<?xml version="1.0" encoding="utf-8" standalone="no"?>
<!DOCTYPE svg PUBLIC "-//W3C//DTD SVG 1.1//EN"
  "http://www.w3.org/Graphics/SVG/1.1/DTD/svg11.dtd">
<svg height="345.6pt" version="1.1" viewBox="0 0 460.8 345.6" width="460.8pt" xmlns="http://www.w3.org/2000/svg" xmlns:xlink="http://www.w3.org/1999/xlink">
 <metadata>
  <rdf:RDF xmlns:cc="http://creativecommons.org/ns#" xmlns:dc="http://purl.org/dc/elements/1.1/" xmlns:rdf="http://www.w3.org/1999/02/22-rdf-syntax-ns#">
   <cc:Work>
    <dc:type rdf:resource="http://purl.org/dc/dcmitype/StillImage"/>
    <dc:date>2021-07-17T05:04:26.808951</dc:date>
    <dc:format>image/svg+xml</dc:format>
    <dc:creator>
     <cc:Agent>
      <dc:title>Matplotlib v3.4.2, https://matplotlib.org/</dc:title>
     </cc:Agent>
    </dc:creator>
   </cc:Work>
  </rdf:RDF>
 </metadata>
 <defs>
  <style type="text/css">*{stroke-linecap:butt;stroke-linejoin:round;}</style>
 </defs>
 <g id="figure_1">
  <g id="patch_1">
   <path d="M 0 345.6 
L 460.8 345.6 
L 460.8 0 
L 0 0 
z
" style="fill:#ffffff;"/>
  </g>
  <g id="axes_1">
   <g id="patch_2">
    <path d="M 57.6 307.584 
L 414.72 307.584 
L 414.72 41.472 
L 57.6 41.472 
z
" style="fill:#ffffff;"/>
   </g>
   <g id="matplotlib.axis_1">
    <g id="xtick_1">
     <g id="line2d_1">
      <defs>
       <path d="M 0 0 
L 0 3.5 
" id="m0e9b774ff7" style="stroke:#000000;stroke-width:0.8;"/>
      </defs>
      <g>
       <use style="stroke:#000000;stroke-width:0.8;" x="73.019057" xlink:href="#m0e9b774ff7" y="307.584"/>
      </g>
     </g>
     <g id="text_1">
      <!-- 0 -->
      <g transform="translate(69.837807 322.182437)scale(0.1 -0.1)">
       <defs>
        <path d="M 2034 4250 
Q 1547 4250 1301 3770 
Q 1056 3291 1056 2328 
Q 1056 1369 1301 889 
Q 1547 409 2034 409 
Q 2525 409 2770 889 
Q 3016 1369 3016 2328 
Q 3016 3291 2770 3770 
Q 2525 4250 2034 4250 
z
M 2034 4750 
Q 2819 4750 3233 4129 
Q 3647 3509 3647 2328 
Q 3647 1150 3233 529 
Q 2819 -91 2034 -91 
Q 1250 -91 836 529 
Q 422 1150 422 2328 
Q 422 3509 836 4129 
Q 1250 4750 2034 4750 
z
" id="DejaVuSans-30" transform="scale(0.015625)"/>
       </defs>
       <use xlink:href="#DejaVuSans-30"/>
      </g>
     </g>
    </g>
    <g id="xtick_2">
     <g id="line2d_2">
      <g>
       <use style="stroke:#000000;stroke-width:0.8;" x="113.702584" xlink:href="#m0e9b774ff7" y="307.584"/>
      </g>
     </g>
     <g id="text_2">
      <!-- 50 -->
      <g transform="translate(107.340084 322.182437)scale(0.1 -0.1)">
       <defs>
        <path d="M 691 4666 
L 3169 4666 
L 3169 4134 
L 1269 4134 
L 1269 2991 
Q 1406 3038 1543 3061 
Q 1681 3084 1819 3084 
Q 2600 3084 3056 2656 
Q 3513 2228 3513 1497 
Q 3513 744 3044 326 
Q 2575 -91 1722 -91 
Q 1428 -91 1123 -41 
Q 819 9 494 109 
L 494 744 
Q 775 591 1075 516 
Q 1375 441 1709 441 
Q 2250 441 2565 725 
Q 2881 1009 2881 1497 
Q 2881 1984 2565 2268 
Q 2250 2553 1709 2553 
Q 1456 2553 1204 2497 
Q 953 2441 691 2322 
L 691 4666 
z
" id="DejaVuSans-35" transform="scale(0.015625)"/>
       </defs>
       <use xlink:href="#DejaVuSans-35"/>
       <use x="63.623047" xlink:href="#DejaVuSans-30"/>
      </g>
     </g>
    </g>
    <g id="xtick_3">
     <g id="line2d_3">
      <g>
       <use style="stroke:#000000;stroke-width:0.8;" x="154.386111" xlink:href="#m0e9b774ff7" y="307.584"/>
      </g>
     </g>
     <g id="text_3">
      <!-- 100 -->
      <g transform="translate(144.842361 322.182437)scale(0.1 -0.1)">
       <defs>
        <path d="M 794 531 
L 1825 531 
L 1825 4091 
L 703 3866 
L 703 4441 
L 1819 4666 
L 2450 4666 
L 2450 531 
L 3481 531 
L 3481 0 
L 794 0 
L 794 531 
z
" id="DejaVuSans-31" transform="scale(0.015625)"/>
       </defs>
       <use xlink:href="#DejaVuSans-31"/>
       <use x="63.623047" xlink:href="#DejaVuSans-30"/>
       <use x="127.246094" xlink:href="#DejaVuSans-30"/>
      </g>
     </g>
    </g>
    <g id="xtick_4">
     <g id="line2d_4">
      <g>
       <use style="stroke:#000000;stroke-width:0.8;" x="195.069638" xlink:href="#m0e9b774ff7" y="307.584"/>
      </g>
     </g>
     <g id="text_4">
      <!-- 150 -->
      <g transform="translate(185.525888 322.182437)scale(0.1 -0.1)">
       <use xlink:href="#DejaVuSans-31"/>
       <use x="63.623047" xlink:href="#DejaVuSans-35"/>
       <use x="127.246094" xlink:href="#DejaVuSans-30"/>
      </g>
     </g>
    </g>
    <g id="xtick_5">
     <g id="line2d_5">
      <g>
       <use style="stroke:#000000;stroke-width:0.8;" x="235.753165" xlink:href="#m0e9b774ff7" y="307.584"/>
      </g>
     </g>
     <g id="text_5">
      <!-- 200 -->
      <g transform="translate(226.209415 322.182437)scale(0.1 -0.1)">
       <defs>
        <path d="M 1228 531 
L 3431 531 
L 3431 0 
L 469 0 
L 469 531 
Q 828 903 1448 1529 
Q 2069 2156 2228 2338 
Q 2531 2678 2651 2914 
Q 2772 3150 2772 3378 
Q 2772 3750 2511 3984 
Q 2250 4219 1831 4219 
Q 1534 4219 1204 4116 
Q 875 4013 500 3803 
L 500 4441 
Q 881 4594 1212 4672 
Q 1544 4750 1819 4750 
Q 2544 4750 2975 4387 
Q 3406 4025 3406 3419 
Q 3406 3131 3298 2873 
Q 3191 2616 2906 2266 
Q 2828 2175 2409 1742 
Q 1991 1309 1228 531 
z
" id="DejaVuSans-32" transform="scale(0.015625)"/>
       </defs>
       <use xlink:href="#DejaVuSans-32"/>
       <use x="63.623047" xlink:href="#DejaVuSans-30"/>
       <use x="127.246094" xlink:href="#DejaVuSans-30"/>
      </g>
     </g>
    </g>
    <g id="xtick_6">
     <g id="line2d_6">
      <g>
       <use style="stroke:#000000;stroke-width:0.8;" x="276.436692" xlink:href="#m0e9b774ff7" y="307.584"/>
      </g>
     </g>
     <g id="text_6">
      <!-- 250 -->
      <g transform="translate(266.892942 322.182437)scale(0.1 -0.1)">
       <use xlink:href="#DejaVuSans-32"/>
       <use x="63.623047" xlink:href="#DejaVuSans-35"/>
       <use x="127.246094" xlink:href="#DejaVuSans-30"/>
      </g>
     </g>
    </g>
    <g id="xtick_7">
     <g id="line2d_7">
      <g>
       <use style="stroke:#000000;stroke-width:0.8;" x="317.120219" xlink:href="#m0e9b774ff7" y="307.584"/>
      </g>
     </g>
     <g id="text_7">
      <!-- 300 -->
      <g transform="translate(307.576469 322.182437)scale(0.1 -0.1)">
       <defs>
        <path d="M 2597 2516 
Q 3050 2419 3304 2112 
Q 3559 1806 3559 1356 
Q 3559 666 3084 287 
Q 2609 -91 1734 -91 
Q 1441 -91 1130 -33 
Q 819 25 488 141 
L 488 750 
Q 750 597 1062 519 
Q 1375 441 1716 441 
Q 2309 441 2620 675 
Q 2931 909 2931 1356 
Q 2931 1769 2642 2001 
Q 2353 2234 1838 2234 
L 1294 2234 
L 1294 2753 
L 1863 2753 
Q 2328 2753 2575 2939 
Q 2822 3125 2822 3475 
Q 2822 3834 2567 4026 
Q 2313 4219 1838 4219 
Q 1578 4219 1281 4162 
Q 984 4106 628 3988 
L 628 4550 
Q 988 4650 1302 4700 
Q 1616 4750 1894 4750 
Q 2613 4750 3031 4423 
Q 3450 4097 3450 3541 
Q 3450 3153 3228 2886 
Q 3006 2619 2597 2516 
z
" id="DejaVuSans-33" transform="scale(0.015625)"/>
       </defs>
       <use xlink:href="#DejaVuSans-33"/>
       <use x="63.623047" xlink:href="#DejaVuSans-30"/>
       <use x="127.246094" xlink:href="#DejaVuSans-30"/>
      </g>
     </g>
    </g>
    <g id="xtick_8">
     <g id="line2d_8">
      <g>
       <use style="stroke:#000000;stroke-width:0.8;" x="357.803746" xlink:href="#m0e9b774ff7" y="307.584"/>
      </g>
     </g>
     <g id="text_8">
      <!-- 350 -->
      <g transform="translate(348.259996 322.182437)scale(0.1 -0.1)">
       <use xlink:href="#DejaVuSans-33"/>
       <use x="63.623047" xlink:href="#DejaVuSans-35"/>
       <use x="127.246094" xlink:href="#DejaVuSans-30"/>
      </g>
     </g>
    </g>
    <g id="xtick_9">
     <g id="line2d_9">
      <g>
       <use style="stroke:#000000;stroke-width:0.8;" x="398.487273" xlink:href="#m0e9b774ff7" y="307.584"/>
      </g>
     </g>
     <g id="text_9">
      <!-- 400 -->
      <g transform="translate(388.943523 322.182437)scale(0.1 -0.1)">
       <defs>
        <path d="M 2419 4116 
L 825 1625 
L 2419 1625 
L 2419 4116 
z
M 2253 4666 
L 3047 4666 
L 3047 1625 
L 3713 1625 
L 3713 1100 
L 3047 1100 
L 3047 0 
L 2419 0 
L 2419 1100 
L 313 1100 
L 313 1709 
L 2253 4666 
z
" id="DejaVuSans-34" transform="scale(0.015625)"/>
       </defs>
       <use xlink:href="#DejaVuSans-34"/>
       <use x="63.623047" xlink:href="#DejaVuSans-30"/>
       <use x="127.246094" xlink:href="#DejaVuSans-30"/>
      </g>
     </g>
    </g>
    <g id="text_10">
     <!-- Epoch -->
     <g transform="translate(213.193594 339.659781)scale(0.15 -0.15)">
      <defs>
       <path d="M 628 4666 
L 3578 4666 
L 3578 4134 
L 1259 4134 
L 1259 2753 
L 3481 2753 
L 3481 2222 
L 1259 2222 
L 1259 531 
L 3634 531 
L 3634 0 
L 628 0 
L 628 4666 
z
" id="DejaVuSans-45" transform="scale(0.015625)"/>
       <path d="M 1159 525 
L 1159 -1331 
L 581 -1331 
L 581 3500 
L 1159 3500 
L 1159 2969 
Q 1341 3281 1617 3432 
Q 1894 3584 2278 3584 
Q 2916 3584 3314 3078 
Q 3713 2572 3713 1747 
Q 3713 922 3314 415 
Q 2916 -91 2278 -91 
Q 1894 -91 1617 61 
Q 1341 213 1159 525 
z
M 3116 1747 
Q 3116 2381 2855 2742 
Q 2594 3103 2138 3103 
Q 1681 3103 1420 2742 
Q 1159 2381 1159 1747 
Q 1159 1113 1420 752 
Q 1681 391 2138 391 
Q 2594 391 2855 752 
Q 3116 1113 3116 1747 
z
" id="DejaVuSans-70" transform="scale(0.015625)"/>
       <path d="M 1959 3097 
Q 1497 3097 1228 2736 
Q 959 2375 959 1747 
Q 959 1119 1226 758 
Q 1494 397 1959 397 
Q 2419 397 2687 759 
Q 2956 1122 2956 1747 
Q 2956 2369 2687 2733 
Q 2419 3097 1959 3097 
z
M 1959 3584 
Q 2709 3584 3137 3096 
Q 3566 2609 3566 1747 
Q 3566 888 3137 398 
Q 2709 -91 1959 -91 
Q 1206 -91 779 398 
Q 353 888 353 1747 
Q 353 2609 779 3096 
Q 1206 3584 1959 3584 
z
" id="DejaVuSans-6f" transform="scale(0.015625)"/>
       <path d="M 3122 3366 
L 3122 2828 
Q 2878 2963 2633 3030 
Q 2388 3097 2138 3097 
Q 1578 3097 1268 2742 
Q 959 2388 959 1747 
Q 959 1106 1268 751 
Q 1578 397 2138 397 
Q 2388 397 2633 464 
Q 2878 531 3122 666 
L 3122 134 
Q 2881 22 2623 -34 
Q 2366 -91 2075 -91 
Q 1284 -91 818 406 
Q 353 903 353 1747 
Q 353 2603 823 3093 
Q 1294 3584 2113 3584 
Q 2378 3584 2631 3529 
Q 2884 3475 3122 3366 
z
" id="DejaVuSans-63" transform="scale(0.015625)"/>
       <path d="M 3513 2113 
L 3513 0 
L 2938 0 
L 2938 2094 
Q 2938 2591 2744 2837 
Q 2550 3084 2163 3084 
Q 1697 3084 1428 2787 
Q 1159 2491 1159 1978 
L 1159 0 
L 581 0 
L 581 4863 
L 1159 4863 
L 1159 2956 
Q 1366 3272 1645 3428 
Q 1925 3584 2291 3584 
Q 2894 3584 3203 3211 
Q 3513 2838 3513 2113 
z
" id="DejaVuSans-68" transform="scale(0.015625)"/>
      </defs>
      <use xlink:href="#DejaVuSans-45"/>
      <use x="63.183594" xlink:href="#DejaVuSans-70"/>
      <use x="126.660156" xlink:href="#DejaVuSans-6f"/>
      <use x="187.841797" xlink:href="#DejaVuSans-63"/>
      <use x="242.822266" xlink:href="#DejaVuSans-68"/>
     </g>
    </g>
   </g>
   <g id="matplotlib.axis_2">
    <g id="ytick_1">
     <g id="line2d_10">
      <defs>
       <path d="M 0 0 
L -3.5 0 
" id="m1bf1b4f315" style="stroke:#000000;stroke-width:0.8;"/>
      </defs>
      <g>
       <use style="stroke:#000000;stroke-width:0.8;" x="57.6" xlink:href="#m1bf1b4f315" y="304.110423"/>
      </g>
     </g>
     <g id="text_11">
      <!-- −1200 -->
      <g transform="translate(16.770313 307.909642)scale(0.1 -0.1)">
       <defs>
        <path d="M 678 2272 
L 4684 2272 
L 4684 1741 
L 678 1741 
L 678 2272 
z
" id="DejaVuSans-2212" transform="scale(0.015625)"/>
       </defs>
       <use xlink:href="#DejaVuSans-2212"/>
       <use x="83.789062" xlink:href="#DejaVuSans-31"/>
       <use x="147.412109" xlink:href="#DejaVuSans-32"/>
       <use x="211.035156" xlink:href="#DejaVuSans-30"/>
       <use x="274.658203" xlink:href="#DejaVuSans-30"/>
      </g>
     </g>
    </g>
    <g id="ytick_2">
     <g id="line2d_11">
      <g>
       <use style="stroke:#000000;stroke-width:0.8;" x="57.6" xlink:href="#m1bf1b4f315" y="257.399175"/>
      </g>
     </g>
     <g id="text_12">
      <!-- −1000 -->
      <g transform="translate(16.770313 261.198394)scale(0.1 -0.1)">
       <use xlink:href="#DejaVuSans-2212"/>
       <use x="83.789062" xlink:href="#DejaVuSans-31"/>
       <use x="147.412109" xlink:href="#DejaVuSans-30"/>
       <use x="211.035156" xlink:href="#DejaVuSans-30"/>
       <use x="274.658203" xlink:href="#DejaVuSans-30"/>
      </g>
     </g>
    </g>
    <g id="ytick_3">
     <g id="line2d_12">
      <g>
       <use style="stroke:#000000;stroke-width:0.8;" x="57.6" xlink:href="#m1bf1b4f315" y="210.687927"/>
      </g>
     </g>
     <g id="text_13">
      <!-- −800 -->
      <g transform="translate(23.132812 214.487146)scale(0.1 -0.1)">
       <defs>
        <path d="M 2034 2216 
Q 1584 2216 1326 1975 
Q 1069 1734 1069 1313 
Q 1069 891 1326 650 
Q 1584 409 2034 409 
Q 2484 409 2743 651 
Q 3003 894 3003 1313 
Q 3003 1734 2745 1975 
Q 2488 2216 2034 2216 
z
M 1403 2484 
Q 997 2584 770 2862 
Q 544 3141 544 3541 
Q 544 4100 942 4425 
Q 1341 4750 2034 4750 
Q 2731 4750 3128 4425 
Q 3525 4100 3525 3541 
Q 3525 3141 3298 2862 
Q 3072 2584 2669 2484 
Q 3125 2378 3379 2068 
Q 3634 1759 3634 1313 
Q 3634 634 3220 271 
Q 2806 -91 2034 -91 
Q 1263 -91 848 271 
Q 434 634 434 1313 
Q 434 1759 690 2068 
Q 947 2378 1403 2484 
z
M 1172 3481 
Q 1172 3119 1398 2916 
Q 1625 2713 2034 2713 
Q 2441 2713 2670 2916 
Q 2900 3119 2900 3481 
Q 2900 3844 2670 4047 
Q 2441 4250 2034 4250 
Q 1625 4250 1398 4047 
Q 1172 3844 1172 3481 
z
" id="DejaVuSans-38" transform="scale(0.015625)"/>
       </defs>
       <use xlink:href="#DejaVuSans-2212"/>
       <use x="83.789062" xlink:href="#DejaVuSans-38"/>
       <use x="147.412109" xlink:href="#DejaVuSans-30"/>
       <use x="211.035156" xlink:href="#DejaVuSans-30"/>
      </g>
     </g>
    </g>
    <g id="ytick_4">
     <g id="line2d_13">
      <g>
       <use style="stroke:#000000;stroke-width:0.8;" x="57.6" xlink:href="#m1bf1b4f315" y="163.976679"/>
      </g>
     </g>
     <g id="text_14">
      <!-- −600 -->
      <g transform="translate(23.132812 167.775897)scale(0.1 -0.1)">
       <defs>
        <path d="M 2113 2584 
Q 1688 2584 1439 2293 
Q 1191 2003 1191 1497 
Q 1191 994 1439 701 
Q 1688 409 2113 409 
Q 2538 409 2786 701 
Q 3034 994 3034 1497 
Q 3034 2003 2786 2293 
Q 2538 2584 2113 2584 
z
M 3366 4563 
L 3366 3988 
Q 3128 4100 2886 4159 
Q 2644 4219 2406 4219 
Q 1781 4219 1451 3797 
Q 1122 3375 1075 2522 
Q 1259 2794 1537 2939 
Q 1816 3084 2150 3084 
Q 2853 3084 3261 2657 
Q 3669 2231 3669 1497 
Q 3669 778 3244 343 
Q 2819 -91 2113 -91 
Q 1303 -91 875 529 
Q 447 1150 447 2328 
Q 447 3434 972 4092 
Q 1497 4750 2381 4750 
Q 2619 4750 2861 4703 
Q 3103 4656 3366 4563 
z
" id="DejaVuSans-36" transform="scale(0.015625)"/>
       </defs>
       <use xlink:href="#DejaVuSans-2212"/>
       <use x="83.789062" xlink:href="#DejaVuSans-36"/>
       <use x="147.412109" xlink:href="#DejaVuSans-30"/>
       <use x="211.035156" xlink:href="#DejaVuSans-30"/>
      </g>
     </g>
    </g>
    <g id="ytick_5">
     <g id="line2d_14">
      <g>
       <use style="stroke:#000000;stroke-width:0.8;" x="57.6" xlink:href="#m1bf1b4f315" y="117.26543"/>
      </g>
     </g>
     <g id="text_15">
      <!-- −400 -->
      <g transform="translate(23.132812 121.064649)scale(0.1 -0.1)">
       <use xlink:href="#DejaVuSans-2212"/>
       <use x="83.789062" xlink:href="#DejaVuSans-34"/>
       <use x="147.412109" xlink:href="#DejaVuSans-30"/>
       <use x="211.035156" xlink:href="#DejaVuSans-30"/>
      </g>
     </g>
    </g>
    <g id="ytick_6">
     <g id="line2d_15">
      <g>
       <use style="stroke:#000000;stroke-width:0.8;" x="57.6" xlink:href="#m1bf1b4f315" y="70.554182"/>
      </g>
     </g>
     <g id="text_16">
      <!-- −200 -->
      <g transform="translate(23.132812 74.353401)scale(0.1 -0.1)">
       <use xlink:href="#DejaVuSans-2212"/>
       <use x="83.789062" xlink:href="#DejaVuSans-32"/>
       <use x="147.412109" xlink:href="#DejaVuSans-30"/>
       <use x="211.035156" xlink:href="#DejaVuSans-30"/>
      </g>
     </g>
    </g>
    <g id="text_17">
     <!-- Loss -->
     <g transform="translate(9.650781 190.978781)rotate(-90)scale(0.15 -0.15)">
      <defs>
       <path d="M 628 4666 
L 1259 4666 
L 1259 531 
L 3531 531 
L 3531 0 
L 628 0 
L 628 4666 
z
" id="DejaVuSans-4c" transform="scale(0.015625)"/>
       <path d="M 2834 3397 
L 2834 2853 
Q 2591 2978 2328 3040 
Q 2066 3103 1784 3103 
Q 1356 3103 1142 2972 
Q 928 2841 928 2578 
Q 928 2378 1081 2264 
Q 1234 2150 1697 2047 
L 1894 2003 
Q 2506 1872 2764 1633 
Q 3022 1394 3022 966 
Q 3022 478 2636 193 
Q 2250 -91 1575 -91 
Q 1294 -91 989 -36 
Q 684 19 347 128 
L 347 722 
Q 666 556 975 473 
Q 1284 391 1588 391 
Q 1994 391 2212 530 
Q 2431 669 2431 922 
Q 2431 1156 2273 1281 
Q 2116 1406 1581 1522 
L 1381 1569 
Q 847 1681 609 1914 
Q 372 2147 372 2553 
Q 372 3047 722 3315 
Q 1072 3584 1716 3584 
Q 2034 3584 2315 3537 
Q 2597 3491 2834 3397 
z
" id="DejaVuSans-73" transform="scale(0.015625)"/>
      </defs>
      <use xlink:href="#DejaVuSans-4c"/>
      <use x="53.962891" xlink:href="#DejaVuSans-6f"/>
      <use x="115.144531" xlink:href="#DejaVuSans-73"/>
      <use x="167.244141" xlink:href="#DejaVuSans-73"/>
     </g>
    </g>
   </g>
   <g id="line2d_16">
    <path clip-path="url(#pd7085b45d5)" d="M 73.832727 53.568 
L 74.646398 85.351834 
L 76.273739 140.804368 
L 77.087409 133.059204 
L 77.90108 139.518402 
L 78.714751 150.010031 
L 79.528421 151.384872 
L 80.342092 145.949702 
L 81.155762 174.097095 
L 81.969433 182.616699 
L 82.783103 179.640651 
L 83.596774 177.351019 
L 84.410444 182.875935 
L 85.224115 193.462238 
L 86.037785 209.473534 
L 86.851456 200.616884 
L 87.665126 194.422007 
L 88.478797 201.235631 
L 89.292468 201.751247 
L 90.106138 204.31155 
L 90.919809 205.734948 
L 91.733479 221.945174 
L 92.54715 217.177755 
L 93.36082 219.686195 
L 94.174491 211.745932 
L 94.988161 199.331465 
L 95.801832 208.412562 
L 96.615502 213.075463 
L 97.429173 225.072302 
L 98.242843 213.159347 
L 99.056514 222.629273 
L 99.870185 218.803238 
L 100.683855 231.296649 
L 101.497526 232.487921 
L 102.311196 226.168327 
L 103.124867 238.602132 
L 103.938537 223.660027 
L 104.752208 219.787246 
L 105.565878 222.755917 
L 106.379549 219.878923 
L 107.193219 226.195096 
L 108.00689 238.372419 
L 108.82056 245.462069 
L 109.634231 221.726847 
L 110.447902 221.483644 
L 111.261572 241.545522 
L 112.075243 238.554573 
L 112.888913 227.656701 
L 113.702584 251.445828 
L 114.516254 246.372501 
L 115.329925 245.128111 
L 116.143595 234.342246 
L 116.957266 241.546136 
L 117.770936 245.044826 
L 118.584607 246.506182 
L 119.398278 236.45875 
L 120.211948 234.44247 
L 121.025619 262.790022 
L 121.839289 224.68098 
L 122.65296 235.070659 
L 123.46663 234.418061 
L 124.280301 242.847359 
L 125.093971 238.598175 
L 125.907642 246.640083 
L 126.721312 233.44156 
L 127.534983 259.839175 
L 128.348653 237.332967 
L 129.162324 247.889664 
L 129.975995 242.484212 
L 130.789665 247.111225 
L 131.603336 240.084091 
L 132.417006 245.095873 
L 133.230677 237.516344 
L 134.044347 233.347167 
L 134.858018 242.308643 
L 135.671688 249.726475 
L 136.485359 240.352329 
L 137.299029 242.102779 
L 138.1127 240.525713 
L 138.92637 234.995265 
L 139.740041 242.815119 
L 140.553712 244.81283 
L 141.367382 253.888162 
L 142.181053 238.340439 
L 142.994723 252.45348 
L 143.808394 239.853566 
L 144.622064 241.943102 
L 145.435735 250.373376 
L 146.249405 251.46817 
L 147.063076 239.629798 
L 147.876746 243.610557 
L 148.690417 249.498469 
L 149.504087 261.526177 
L 150.317758 235.128713 
L 151.131429 258.414773 
L 151.945099 240.948192 
L 152.75877 238.214942 
L 153.57244 254.718595 
L 155.199781 238.492973 
L 156.013452 248.317132 
L 156.827122 239.679764 
L 157.640793 241.255678 
L 158.454463 250.732474 
L 159.268134 246.164139 
L 160.081805 259.395082 
L 160.895475 257.297146 
L 161.709146 226.679085 
L 162.522816 268.670244 
L 163.336487 245.8559 
L 164.150157 247.612555 
L 164.963828 252.40063 
L 165.777498 249.57212 
L 166.591169 252.038842 
L 167.404839 245.726475 
L 168.21851 252.987978 
L 169.03218 263.452621 
L 169.845851 252.991512 
L 170.659522 248.950225 
L 171.473192 232.418067 
L 172.286863 253.080921 
L 173.100533 254.924048 
L 173.914204 240.529404 
L 174.727874 233.607593 
L 175.541545 251.975571 
L 177.168886 234.865591 
L 177.982556 255.383097 
L 178.796227 232.185869 
L 179.609897 249.097591 
L 180.423568 245.282153 
L 181.237239 252.127176 
L 182.050909 260.170221 
L 182.86458 246.808267 
L 183.67825 260.664074 
L 184.491921 258.646972 
L 185.305591 248.400812 
L 186.119262 236.260195 
L 186.932932 233.106049 
L 187.746603 244.927684 
L 188.560273 241.390176 
L 189.373944 259.486016 
L 190.187614 243.241185 
L 191.001285 269.818877 
L 191.814956 257.726513 
L 192.628626 254.400464 
L 193.442297 259.179747 
L 194.255967 261.950938 
L 195.069638 246.440107 
L 195.883308 259.725601 
L 196.696979 236.525093 
L 197.510649 256.491692 
L 198.32432 256.841821 
L 199.13799 259.084797 
L 199.951661 253.429288 
L 200.765332 260.906006 
L 201.579002 253.670048 
L 202.392673 260.336931 
L 203.206343 245.721208 
L 204.020014 244.614964 
L 204.833684 251.400458 
L 205.647355 264.407872 
L 206.461025 259.033169 
L 207.274696 237.560027 
L 208.902037 263.052506 
L 209.715707 262.773719 
L 210.529378 256.857282 
L 211.343049 257.696628 
L 212.156719 250.960575 
L 212.97039 245.235416 
L 213.78406 261.320265 
L 214.597731 253.369276 
L 215.411401 248.648518 
L 216.225072 265.615657 
L 217.038742 270.726918 
L 217.852413 265.915639 
L 218.666083 272.363425 
L 219.479754 265.449928 
L 220.293424 264.47023 
L 221.107095 243.407557 
L 221.920766 252.639695 
L 222.734436 267.54254 
L 223.548107 284.915966 
L 224.361777 245.519459 
L 225.175448 257.15722 
L 225.989118 275.746771 
L 226.802789 259.98945 
L 227.616459 248.405721 
L 228.43013 267.22188 
L 229.2438 264.980325 
L 230.057471 268.093242 
L 230.871141 253.897977 
L 231.684812 244.644934 
L 232.498483 270.124274 
L 233.312153 259.462278 
L 234.125824 252.323956 
L 234.939494 265.374435 
L 235.753165 261.763569 
L 236.566835 268.19255 
L 237.380506 262.423798 
L 238.194176 286.156295 
L 239.007847 261.734906 
L 239.821517 255.996229 
L 240.635188 263.253593 
L 241.448859 273.752219 
L 242.262529 264.560498 
L 243.0762 264.270702 
L 243.88987 281.854522 
L 244.703541 265.483946 
L 245.517211 256.099088 
L 246.330882 261.066678 
L 247.144552 261.010847 
L 247.958223 259.476982 
L 248.771893 281.347347 
L 249.585564 260.34639 
L 250.399234 273.714361 
L 251.212905 253.765791 
L 252.026576 274.528787 
L 252.840246 278.495318 
L 253.653917 277.014904 
L 254.467587 280.870335 
L 255.281258 253.834057 
L 256.094928 267.068032 
L 256.908599 267.835732 
L 257.722269 268.061675 
L 258.53594 274.711929 
L 259.34961 264.521985 
L 260.163281 265.762242 
L 260.976951 258.887939 
L 261.790622 271.142367 
L 262.604293 267.823702 
L 263.417963 254.866834 
L 264.231634 267.291616 
L 265.045304 262.559493 
L 265.858975 262.341253 
L 266.672645 266.911019 
L 267.486316 263.776236 
L 268.299986 269.292498 
L 269.113657 256.143814 
L 270.740998 277.673644 
L 271.554668 256.167755 
L 272.368339 289.131422 
L 273.18201 261.518721 
L 273.99568 280.569351 
L 274.809351 266.231141 
L 275.623021 281.155466 
L 277.250362 249.739766 
L 278.064033 250.510042 
L 278.877703 270.39881 
L 279.691374 256.549383 
L 280.505044 268.317698 
L 281.318715 268.305162 
L 282.132386 268.783927 
L 282.946056 272.028052 
L 283.759727 262.913501 
L 284.573397 274.535328 
L 285.387068 268.602356 
L 286.200738 264.915011 
L 287.014409 281.364015 
L 287.828079 283.67267 
L 288.64175 253.781705 
L 289.45542 264.307465 
L 290.269091 257.338846 
L 291.896432 277.318556 
L 292.710103 265.399493 
L 293.523773 272.165842 
L 294.337444 271.915373 
L 295.151114 268.11061 
L 295.964785 253.85462 
L 296.778455 277.617851 
L 297.592126 271.445137 
L 298.405796 263.513656 
L 299.219467 280.96524 
L 300.033137 276.75919 
L 300.846808 257.203051 
L 301.660478 275.333602 
L 302.474149 263.01854 
L 303.28782 255.678218 
L 304.10149 251.852559 
L 304.915161 265.545373 
L 305.728831 265.141485 
L 306.542502 265.473353 
L 307.356172 271.961345 
L 308.169843 289.387689 
L 308.983513 281.937108 
L 309.797184 282.36436 
L 310.610854 270.113804 
L 311.424525 275.906702 
L 312.238195 277.438492 
L 313.051866 268.193428 
L 313.865537 278.014504 
L 314.679207 271.76924 
L 315.492878 264.448644 
L 316.306548 259.719898 
L 317.120219 273.432827 
L 317.933889 260.501185 
L 318.74756 271.757212 
L 319.56123 258.681205 
L 320.374901 269.317952 
L 321.188571 266.743444 
L 322.002242 276.80494 
L 322.815913 272.282882 
L 323.629583 282.044653 
L 324.443254 259.496455 
L 325.256924 289.423973 
L 326.070595 271.821532 
L 326.884265 272.464284 
L 327.697936 278.584642 
L 328.511606 278.470684 
L 329.325277 256.337139 
L 330.138947 260.094286 
L 330.952618 276.103053 
L 331.766288 273.370579 
L 332.579959 267.783381 
L 333.39363 272.634164 
L 334.2073 264.433062 
L 335.020971 278.918686 
L 335.834641 279.6018 
L 336.648312 266.569486 
L 337.461982 260.392113 
L 338.275653 279.926671 
L 339.089323 271.44181 
L 339.902994 269.374606 
L 340.716664 273.222191 
L 341.530335 272.717974 
L 342.344005 281.050438 
L 343.157676 278.020066 
L 343.971347 266.556216 
L 344.785017 273.061175 
L 345.598688 266.184517 
L 346.412358 271.738544 
L 347.226029 251.329923 
L 348.039699 295.488 
L 348.85337 261.456528 
L 349.66704 259.072094 
L 350.480711 274.687061 
L 351.294381 270.22266 
L 352.108052 268.143606 
L 352.921722 280.29039 
L 353.735393 267.211583 
L 354.549064 260.054195 
L 355.362734 287.694862 
L 356.176405 272.049467 
L 356.990075 259.72551 
L 357.803746 265.838005 
L 358.617416 279.115213 
L 359.431087 280.094607 
L 360.244757 271.433827 
L 361.872098 261.787526 
L 362.685769 279.855591 
L 363.49944 273.059922 
L 364.31311 272.096759 
L 365.126781 285.075105 
L 365.940451 273.5041 
L 366.754122 272.042774 
L 368.381463 281.199759 
L 369.195133 255.733076 
L 370.008804 271.417852 
L 370.822474 261.329981 
L 371.636145 265.059023 
L 372.449815 275.378062 
L 373.263486 263.179237 
L 374.890827 275.783851 
L 375.704498 272.312264 
L 376.518168 279.484063 
L 377.331839 265.757898 
L 378.145509 280.844921 
L 378.95918 278.18903 
L 379.77285 276.001419 
L 380.586521 280.152764 
L 381.400191 286.716378 
L 382.213862 263.479572 
L 383.027532 251.787585 
L 383.841203 275.136044 
L 384.654874 274.377003 
L 385.468544 266.550085 
L 386.282215 266.773859 
L 387.095885 287.422373 
L 387.909556 283.627956 
L 388.723226 276.178199 
L 389.536897 283.519417 
L 390.350567 266.570942 
L 391.164238 268.945942 
L 391.977908 265.700986 
L 392.791579 273.820061 
L 393.605249 278.041827 
L 394.41892 270.818379 
L 395.232591 267.605979 
L 396.046261 275.205141 
L 396.859932 271.499213 
L 397.673602 278.308239 
L 398.487273 258.490649 
L 398.487273 258.490649 
" style="fill:none;stroke:#1f77b4;stroke-linecap:square;stroke-width:1.5;"/>
   </g>
   <g id="line2d_17">
    <path clip-path="url(#pd7085b45d5)" d="M 73.832727 70.641813 
L 74.646398 86.911723 
L 75.460068 123.232798 
L 76.273739 143.588053 
L 77.087409 150.238203 
L 77.90108 160.437027 
L 78.714751 161.529924 
L 79.528421 128.035302 
L 80.342092 172.932243 
L 81.155762 171.443675 
L 81.969433 181.476507 
L 82.783103 111.823206 
L 83.596774 144.693538 
L 84.410444 203.298305 
L 85.224115 202.421572 
L 86.037785 212.071994 
L 86.851456 162.192447 
L 87.665126 204.410528 
L 88.478797 212.357719 
L 89.292468 210.057665 
L 90.919809 218.996168 
L 91.733479 217.383728 
L 92.54715 206.188576 
L 93.36082 219.928316 
L 94.174491 214.603651 
L 94.988161 226.679358 
L 95.801832 192.429667 
L 96.615502 221.708449 
L 97.429173 214.478286 
L 98.242843 215.132764 
L 99.056514 200.879755 
L 99.870185 226.519703 
L 100.683855 220.378654 
L 101.497526 231.045433 
L 102.311196 228.96718 
L 103.124867 230.742765 
L 103.938537 225.80182 
L 104.752208 226.419295 
L 105.565878 212.400505 
L 106.379549 239.514244 
L 107.193219 235.740093 
L 108.00689 233.706695 
L 108.82056 234.531582 
L 109.634231 213.037983 
L 110.447902 237.501003 
L 111.261572 229.086647 
L 112.888913 231.816271 
L 113.702584 239.505783 
L 114.516254 238.134279 
L 115.329925 245.861613 
L 116.143595 238.895553 
L 116.957266 252.835895 
L 117.770936 242.344755 
L 119.398278 256.61702 
L 120.211948 237.419184 
L 121.025619 242.035721 
L 121.839289 241.410178 
L 122.65296 235.111325 
L 123.46663 240.746936 
L 124.280301 239.476724 
L 125.093971 253.957844 
L 125.907642 238.142563 
L 126.721312 232.867757 
L 127.534983 247.968884 
L 128.348653 245.50456 
L 129.162324 244.56959 
L 129.975995 234.560143 
L 130.789665 243.373937 
L 131.603336 242.571666 
L 132.417006 240.524573 
L 133.230677 242.197302 
L 134.044347 247.270757 
L 134.858018 248.957569 
L 135.671688 247.590364 
L 136.485359 253.590783 
L 137.299029 240.04132 
L 138.1127 239.986681 
L 138.92637 246.485197 
L 139.740041 245.426843 
L 140.553712 233.639017 
L 141.367382 235.131804 
L 142.181053 256.236473 
L 142.994723 253.064216 
L 143.808394 250.468835 
L 144.622064 241.575514 
L 145.435735 236.669634 
L 146.249405 242.718419 
L 147.063076 254.439454 
L 147.876746 235.473804 
L 148.690417 249.578453 
L 149.504087 247.526645 
L 150.317758 249.757335 
L 151.131429 252.868584 
L 151.945099 240.121425 
L 152.75877 251.655818 
L 153.57244 234.059188 
L 154.386111 238.253935 
L 155.199781 236.069164 
L 156.013452 258.332735 
L 156.827122 244.338015 
L 157.640793 246.570511 
L 158.454463 238.178595 
L 159.268134 236.162944 
L 160.081805 235.712235 
L 160.895475 244.741574 
L 161.709146 241.896792 
L 162.522816 244.955342 
L 163.336487 250.672043 
L 164.150157 247.952084 
L 164.963828 247.84779 
L 165.777498 245.257333 
L 166.591169 244.205618 
L 167.404839 240.702409 
L 168.21851 243.560425 
L 169.03218 248.225222 
L 169.845851 249.252279 
L 170.659522 237.312011 
L 171.473192 250.95403 
L 172.286863 253.641201 
L 173.100533 251.26431 
L 173.914204 239.597156 
L 174.727874 253.067886 
L 175.541545 257.280497 
L 176.355215 248.000249 
L 177.168886 249.829076 
L 177.982556 248.571917 
L 178.796227 235.876038 
L 179.609897 253.204601 
L 180.423568 249.54393 
L 181.237239 252.047124 
L 182.050909 257.294141 
L 182.86458 246.826815 
L 183.67825 253.256274 
L 184.491921 257.509066 
L 185.305591 246.64899 
L 186.119262 249.726245 
L 186.932932 255.468384 
L 187.746603 233.254388 
L 188.560273 258.894458 
L 189.373944 254.241912 
L 190.187614 254.092137 
L 191.001285 244.913503 
L 191.814956 251.872073 
L 192.628626 248.040003 
L 193.442297 253.88892 
L 195.069638 250.035959 
L 195.883308 262.711766 
L 196.696979 260.723061 
L 197.510649 241.76711 
L 198.32432 261.477144 
L 199.13799 251.141769 
L 199.951661 262.796986 
L 200.765332 256.871075 
L 201.579002 241.881365 
L 202.392673 258.053442 
L 203.206343 251.800244 
L 204.020014 259.095418 
L 204.833684 251.709195 
L 205.647355 256.004503 
L 206.461025 242.758219 
L 207.274696 254.539863 
L 208.088366 262.946125 
L 208.902037 262.729318 
L 209.715707 245.849098 
L 210.529378 249.53422 
L 211.343049 260.113974 
L 212.156719 264.110268 
L 212.97039 259.042959 
L 213.78406 260.699656 
L 214.597731 262.822585 
L 215.411401 250.94134 
L 216.225072 259.770259 
L 217.038742 252.321702 
L 217.852413 259.05114 
L 218.666083 258.734488 
L 219.479754 254.86168 
L 220.293424 262.753584 
L 221.107095 241.548172 
L 221.920766 254.871135 
L 222.734436 254.283834 
L 223.548107 244.887744 
L 224.361777 255.276358 
L 225.175448 252.012536 
L 225.989118 263.753831 
L 226.802789 253.121418 
L 227.616459 244.092878 
L 228.43013 239.990571 
L 229.2438 254.034854 
L 230.057471 263.132014 
L 230.871141 255.185258 
L 231.684812 267.155906 
L 232.498483 261.872082 
L 233.312153 268.654871 
L 234.125824 259.024998 
L 234.939494 267.352664 
L 235.753165 258.473042 
L 236.566835 252.228789 
L 237.380506 261.315496 
L 238.194176 259.026358 
L 239.007847 265.752397 
L 239.821517 261.331592 
L 240.635188 275.435793 
L 241.448859 258.614632 
L 242.262529 268.361394 
L 243.0762 270.038902 
L 243.88987 272.413256 
L 244.703541 254.419156 
L 245.517211 266.69499 
L 246.330882 254.060571 
L 247.144552 263.719769 
L 247.958223 265.06955 
L 248.771893 270.071268 
L 249.585564 251.222966 
L 250.399234 264.799963 
L 251.212905 259.618715 
L 252.026576 261.176307 
L 252.840246 259.524692 
L 253.653917 267.419296 
L 254.467587 266.288461 
L 255.281258 255.236181 
L 256.094928 257.254125 
L 256.908599 257.613847 
L 257.722269 275.549559 
L 258.53594 258.440935 
L 259.34961 268.516818 
L 260.163281 265.984896 
L 261.790622 258.944799 
L 262.604293 262.086414 
L 263.417963 274.782904 
L 264.231634 262.949824 
L 265.045304 276.202514 
L 265.858975 259.075302 
L 266.672645 264.368793 
L 267.486316 265.75607 
L 268.299986 265.581173 
L 269.113657 274.014048 
L 269.927327 259.343208 
L 270.740998 259.471127 
L 271.554668 257.704872 
L 272.368339 270.442812 
L 273.18201 257.294405 
L 273.99568 256.503806 
L 274.809351 262.988384 
L 275.623021 263.78171 
L 276.436692 261.640818 
L 277.250362 256.677256 
L 278.064033 253.615013 
L 278.877703 271.850075 
L 279.691374 255.334586 
L 280.505044 269.516539 
L 281.318715 258.504561 
L 282.132386 268.729401 
L 282.946056 263.650093 
L 283.759727 274.698963 
L 284.573397 257.70189 
L 285.387068 268.785401 
L 286.200738 254.960588 
L 287.014409 263.471966 
L 287.828079 247.978714 
L 288.64175 265.653191 
L 289.45542 280.6599 
L 290.269091 269.091004 
L 291.082761 251.802765 
L 291.896432 264.021647 
L 292.710103 271.6651 
L 293.523773 262.477212 
L 294.337444 272.069956 
L 295.151114 260.810565 
L 295.964785 267.151026 
L 296.778455 260.158193 
L 297.592126 274.29483 
L 298.405796 256.272125 
L 299.219467 267.727784 
L 300.033137 268.73311 
L 300.846808 252.379759 
L 301.660478 265.744373 
L 302.474149 257.460999 
L 303.28782 269.931471 
L 304.10149 263.770061 
L 304.915161 273.1369 
L 305.728831 266.173366 
L 306.542502 262.957639 
L 307.356172 261.95593 
L 308.169843 272.038664 
L 308.983513 260.977166 
L 309.797184 268.531824 
L 310.610854 263.290275 
L 311.424525 257.216348 
L 312.238195 264.781027 
L 313.051866 260.08062 
L 313.865537 272.099865 
L 314.679207 267.195695 
L 315.492878 273.260939 
L 317.120219 256.429698 
L 317.933889 267.871368 
L 318.74756 262.662009 
L 319.56123 261.934102 
L 320.374901 262.38019 
L 321.188571 274.617423 
L 322.002242 273.917629 
L 322.815913 269.36859 
L 323.629583 267.223786 
L 324.443254 273.445486 
L 325.256924 261.300323 
L 326.070595 274.938774 
L 326.884265 260.016122 
L 327.697936 238.784668 
L 328.511606 258.812286 
L 329.325277 267.836722 
L 330.138947 265.602165 
L 330.952618 266.944903 
L 331.766288 267.652712 
L 332.579959 261.163757 
L 333.39363 271.077558 
L 334.2073 266.459425 
L 335.020971 272.977226 
L 335.834641 264.870603 
L 336.648312 263.261519 
L 337.461982 264.890635 
L 338.275653 267.491441 
L 339.089323 269.135048 
L 339.902994 268.371563 
L 340.716664 266.301938 
L 341.530335 253.194932 
L 342.344005 281.505116 
L 343.157676 274.870355 
L 343.971347 272.615271 
L 344.785017 267.317252 
L 345.598688 272.994434 
L 346.412358 261.766009 
L 347.226029 262.596215 
L 348.039699 259.872704 
L 348.85337 268.475568 
L 349.66704 267.207112 
L 350.480711 272.173669 
L 351.294381 260.234494 
L 352.108052 266.224051 
L 352.921722 258.783285 
L 353.735393 270.740563 
L 354.549064 256.336338 
L 356.176405 276.792289 
L 356.990075 269.252689 
L 357.803746 270.860062 
L 358.617416 263.988768 
L 359.431087 255.352913 
L 360.244757 280.487552 
L 361.058428 258.449134 
L 361.872098 267.562801 
L 362.685769 265.034158 
L 363.49944 268.857575 
L 364.31311 261.32146 
L 365.126781 271.767203 
L 365.940451 277.458416 
L 366.754122 272.050634 
L 367.567792 268.784615 
L 368.381463 264.990792 
L 369.195133 268.775524 
L 370.008804 271.910127 
L 370.822474 241.392068 
L 371.636145 265.47027 
L 372.449815 256.509014 
L 373.263486 280.880091 
L 374.077157 270.612102 
L 374.890827 267.591043 
L 375.704498 274.267609 
L 377.331839 260.492766 
L 378.145509 273.958192 
L 378.95918 277.521769 
L 379.77285 269.16476 
L 380.586521 268.306772 
L 381.400191 270.027123 
L 382.213862 261.760948 
L 383.027532 271.003683 
L 383.841203 268.704064 
L 384.654874 270.126372 
L 385.468544 271.271929 
L 386.282215 268.487723 
L 387.095885 263.156246 
L 387.909556 277.426582 
L 388.723226 261.061106 
L 389.536897 270.974542 
L 390.350567 258.190904 
L 391.164238 262.300327 
L 391.977908 278.496024 
L 392.791579 273.95418 
L 393.605249 280.58746 
L 394.41892 259.535259 
L 395.232591 272.749375 
L 396.046261 264.658234 
L 396.859932 274.835461 
L 397.673602 257.93187 
L 398.487273 270.306546 
L 398.487273 270.306546 
" style="fill:none;stroke:#ff7f0e;stroke-linecap:square;stroke-width:1.5;"/>
   </g>
   <g id="patch_3">
    <path d="M 57.6 307.584 
L 57.6 41.472 
" style="fill:none;stroke:#000000;stroke-linecap:square;stroke-linejoin:miter;stroke-width:0.8;"/>
   </g>
   <g id="patch_4">
    <path d="M 414.72 307.584 
L 414.72 41.472 
" style="fill:none;stroke:#000000;stroke-linecap:square;stroke-linejoin:miter;stroke-width:0.8;"/>
   </g>
   <g id="patch_5">
    <path d="M 57.6 307.584 
L 414.72 307.584 
" style="fill:none;stroke:#000000;stroke-linecap:square;stroke-linejoin:miter;stroke-width:0.8;"/>
   </g>
   <g id="patch_6">
    <path d="M 57.6 41.472 
L 414.72 41.472 
" style="fill:none;stroke:#000000;stroke-linecap:square;stroke-linejoin:miter;stroke-width:0.8;"/>
   </g>
   <g id="legend_1">
    <g id="patch_7">
     <path d="M 303.845 78.82825 
L 407.72 78.82825 
Q 409.72 78.82825 409.72 76.82825 
L 409.72 48.472 
Q 409.72 46.472 407.72 46.472 
L 303.845 46.472 
Q 301.845 46.472 301.845 48.472 
L 301.845 76.82825 
Q 301.845 78.82825 303.845 78.82825 
z
" style="fill:#ffffff;opacity:0.8;stroke:#cccccc;stroke-linejoin:miter;"/>
    </g>
    <g id="line2d_18">
     <path d="M 305.845 54.570437 
L 325.845 54.570437 
" style="fill:none;stroke:#1f77b4;stroke-linecap:square;stroke-width:1.5;"/>
    </g>
    <g id="line2d_19"/>
    <g id="text_18">
     <!-- Train loss -->
     <g transform="translate(333.845 58.070437)scale(0.1 -0.1)">
      <defs>
       <path d="M -19 4666 
L 3928 4666 
L 3928 4134 
L 2272 4134 
L 2272 0 
L 1638 0 
L 1638 4134 
L -19 4134 
L -19 4666 
z
" id="DejaVuSans-54" transform="scale(0.015625)"/>
       <path d="M 2631 2963 
Q 2534 3019 2420 3045 
Q 2306 3072 2169 3072 
Q 1681 3072 1420 2755 
Q 1159 2438 1159 1844 
L 1159 0 
L 581 0 
L 581 3500 
L 1159 3500 
L 1159 2956 
Q 1341 3275 1631 3429 
Q 1922 3584 2338 3584 
Q 2397 3584 2469 3576 
Q 2541 3569 2628 3553 
L 2631 2963 
z
" id="DejaVuSans-72" transform="scale(0.015625)"/>
       <path d="M 2194 1759 
Q 1497 1759 1228 1600 
Q 959 1441 959 1056 
Q 959 750 1161 570 
Q 1363 391 1709 391 
Q 2188 391 2477 730 
Q 2766 1069 2766 1631 
L 2766 1759 
L 2194 1759 
z
M 3341 1997 
L 3341 0 
L 2766 0 
L 2766 531 
Q 2569 213 2275 61 
Q 1981 -91 1556 -91 
Q 1019 -91 701 211 
Q 384 513 384 1019 
Q 384 1609 779 1909 
Q 1175 2209 1959 2209 
L 2766 2209 
L 2766 2266 
Q 2766 2663 2505 2880 
Q 2244 3097 1772 3097 
Q 1472 3097 1187 3025 
Q 903 2953 641 2809 
L 641 3341 
Q 956 3463 1253 3523 
Q 1550 3584 1831 3584 
Q 2591 3584 2966 3190 
Q 3341 2797 3341 1997 
z
" id="DejaVuSans-61" transform="scale(0.015625)"/>
       <path d="M 603 3500 
L 1178 3500 
L 1178 0 
L 603 0 
L 603 3500 
z
M 603 4863 
L 1178 4863 
L 1178 4134 
L 603 4134 
L 603 4863 
z
" id="DejaVuSans-69" transform="scale(0.015625)"/>
       <path d="M 3513 2113 
L 3513 0 
L 2938 0 
L 2938 2094 
Q 2938 2591 2744 2837 
Q 2550 3084 2163 3084 
Q 1697 3084 1428 2787 
Q 1159 2491 1159 1978 
L 1159 0 
L 581 0 
L 581 3500 
L 1159 3500 
L 1159 2956 
Q 1366 3272 1645 3428 
Q 1925 3584 2291 3584 
Q 2894 3584 3203 3211 
Q 3513 2838 3513 2113 
z
" id="DejaVuSans-6e" transform="scale(0.015625)"/>
       <path id="DejaVuSans-20" transform="scale(0.015625)"/>
       <path d="M 603 4863 
L 1178 4863 
L 1178 0 
L 603 0 
L 603 4863 
z
" id="DejaVuSans-6c" transform="scale(0.015625)"/>
      </defs>
      <use xlink:href="#DejaVuSans-54"/>
      <use x="46.333984" xlink:href="#DejaVuSans-72"/>
      <use x="87.447266" xlink:href="#DejaVuSans-61"/>
      <use x="148.726562" xlink:href="#DejaVuSans-69"/>
      <use x="176.509766" xlink:href="#DejaVuSans-6e"/>
      <use x="239.888672" xlink:href="#DejaVuSans-20"/>
      <use x="271.675781" xlink:href="#DejaVuSans-6c"/>
      <use x="299.458984" xlink:href="#DejaVuSans-6f"/>
      <use x="360.640625" xlink:href="#DejaVuSans-73"/>
      <use x="412.740234" xlink:href="#DejaVuSans-73"/>
     </g>
    </g>
    <g id="line2d_20">
     <path d="M 305.845 69.248562 
L 325.845 69.248562 
" style="fill:none;stroke:#ff7f0e;stroke-linecap:square;stroke-width:1.5;"/>
    </g>
    <g id="line2d_21"/>
    <g id="text_19">
     <!-- Validation loss -->
     <g transform="translate(333.845 72.748562)scale(0.1 -0.1)">
      <defs>
       <path d="M 1831 0 
L 50 4666 
L 709 4666 
L 2188 738 
L 3669 4666 
L 4325 4666 
L 2547 0 
L 1831 0 
z
" id="DejaVuSans-56" transform="scale(0.015625)"/>
       <path d="M 2906 2969 
L 2906 4863 
L 3481 4863 
L 3481 0 
L 2906 0 
L 2906 525 
Q 2725 213 2448 61 
Q 2172 -91 1784 -91 
Q 1150 -91 751 415 
Q 353 922 353 1747 
Q 353 2572 751 3078 
Q 1150 3584 1784 3584 
Q 2172 3584 2448 3432 
Q 2725 3281 2906 2969 
z
M 947 1747 
Q 947 1113 1208 752 
Q 1469 391 1925 391 
Q 2381 391 2643 752 
Q 2906 1113 2906 1747 
Q 2906 2381 2643 2742 
Q 2381 3103 1925 3103 
Q 1469 3103 1208 2742 
Q 947 2381 947 1747 
z
" id="DejaVuSans-64" transform="scale(0.015625)"/>
       <path d="M 1172 4494 
L 1172 3500 
L 2356 3500 
L 2356 3053 
L 1172 3053 
L 1172 1153 
Q 1172 725 1289 603 
Q 1406 481 1766 481 
L 2356 481 
L 2356 0 
L 1766 0 
Q 1100 0 847 248 
Q 594 497 594 1153 
L 594 3053 
L 172 3053 
L 172 3500 
L 594 3500 
L 594 4494 
L 1172 4494 
z
" id="DejaVuSans-74" transform="scale(0.015625)"/>
      </defs>
      <use xlink:href="#DejaVuSans-56"/>
      <use x="60.658203" xlink:href="#DejaVuSans-61"/>
      <use x="121.9375" xlink:href="#DejaVuSans-6c"/>
      <use x="149.720703" xlink:href="#DejaVuSans-69"/>
      <use x="177.503906" xlink:href="#DejaVuSans-64"/>
      <use x="240.980469" xlink:href="#DejaVuSans-61"/>
      <use x="302.259766" xlink:href="#DejaVuSans-74"/>
      <use x="341.46875" xlink:href="#DejaVuSans-69"/>
      <use x="369.251953" xlink:href="#DejaVuSans-6f"/>
      <use x="430.433594" xlink:href="#DejaVuSans-6e"/>
      <use x="493.8125" xlink:href="#DejaVuSans-20"/>
      <use x="525.599609" xlink:href="#DejaVuSans-6c"/>
      <use x="553.382812" xlink:href="#DejaVuSans-6f"/>
      <use x="614.564453" xlink:href="#DejaVuSans-73"/>
      <use x="666.664062" xlink:href="#DejaVuSans-73"/>
     </g>
    </g>
   </g>
  </g>
 </g>
 <defs>
  <clipPath id="pd7085b45d5">
   <rect height="266.112" width="357.12" x="57.6" y="41.472"/>
  </clipPath>
 </defs>
</svg>
