<?xml version="1.0" encoding="utf-8" standalone="no"?>
<!DOCTYPE svg PUBLIC "-//W3C//DTD SVG 1.1//EN"
  "http://www.w3.org/Graphics/SVG/1.1/DTD/svg11.dtd">
<svg height="345.6pt" version="1.1" viewBox="0 0 460.8 345.6" width="460.8pt" xmlns="http://www.w3.org/2000/svg" xmlns:xlink="http://www.w3.org/1999/xlink">
 <metadata>
  <rdf:RDF xmlns:cc="http://creativecommons.org/ns#" xmlns:dc="http://purl.org/dc/elements/1.1/" xmlns:rdf="http://www.w3.org/1999/02/22-rdf-syntax-ns#">
   <cc:Work>
    <dc:type rdf:resource="http://purl.org/dc/dcmitype/StillImage"/>
    <dc:date>2021-07-17T05:04:27.385761</dc:date>
    <dc:format>image/svg+xml</dc:format>
    <dc:creator>
     <cc:Agent>
      <dc:title>Matplotlib v3.4.2, https://matplotlib.org/</dc:title>
     </cc:Agent>
    </dc:creator>
   </cc:Work>
  </rdf:RDF>
 </metadata>
 <defs>
  <style type="text/css">*{stroke-linecap:butt;stroke-linejoin:round;}</style>
 </defs>
 <g id="figure_1">
  <g id="patch_1">
   <path d="M 0 345.6 
L 460.8 345.6 
L 460.8 0 
L 0 0 
z
" style="fill:#ffffff;"/>
  </g>
  <g id="axes_1">
   <g id="patch_2">
    <path d="M 57.6 307.584 
L 414.72 307.584 
L 414.72 41.472 
L 57.6 41.472 
z
" style="fill:#ffffff;"/>
   </g>
   <g id="matplotlib.axis_1">
    <g id="xtick_1">
     <g id="line2d_1">
      <defs>
       <path d="M 0 0 
L 0 3.5 
" id="ma89223b60e" style="stroke:#000000;stroke-width:0.8;"/>
      </defs>
      <g>
       <use style="stroke:#000000;stroke-width:0.8;" x="73.019057" xlink:href="#ma89223b60e" y="307.584"/>
      </g>
     </g>
     <g id="text_1">
      <!-- 0 -->
      <g transform="translate(69.837807 322.182437)scale(0.1 -0.1)">
       <defs>
        <path d="M 2034 4250 
Q 1547 4250 1301 3770 
Q 1056 3291 1056 2328 
Q 1056 1369 1301 889 
Q 1547 409 2034 409 
Q 2525 409 2770 889 
Q 3016 1369 3016 2328 
Q 3016 3291 2770 3770 
Q 2525 4250 2034 4250 
z
M 2034 4750 
Q 2819 4750 3233 4129 
Q 3647 3509 3647 2328 
Q 3647 1150 3233 529 
Q 2819 -91 2034 -91 
Q 1250 -91 836 529 
Q 422 1150 422 2328 
Q 422 3509 836 4129 
Q 1250 4750 2034 4750 
z
" id="DejaVuSans-30" transform="scale(0.015625)"/>
       </defs>
       <use xlink:href="#DejaVuSans-30"/>
      </g>
     </g>
    </g>
    <g id="xtick_2">
     <g id="line2d_2">
      <g>
       <use style="stroke:#000000;stroke-width:0.8;" x="113.702584" xlink:href="#ma89223b60e" y="307.584"/>
      </g>
     </g>
     <g id="text_2">
      <!-- 50 -->
      <g transform="translate(107.340084 322.182437)scale(0.1 -0.1)">
       <defs>
        <path d="M 691 4666 
L 3169 4666 
L 3169 4134 
L 1269 4134 
L 1269 2991 
Q 1406 3038 1543 3061 
Q 1681 3084 1819 3084 
Q 2600 3084 3056 2656 
Q 3513 2228 3513 1497 
Q 3513 744 3044 326 
Q 2575 -91 1722 -91 
Q 1428 -91 1123 -41 
Q 819 9 494 109 
L 494 744 
Q 775 591 1075 516 
Q 1375 441 1709 441 
Q 2250 441 2565 725 
Q 2881 1009 2881 1497 
Q 2881 1984 2565 2268 
Q 2250 2553 1709 2553 
Q 1456 2553 1204 2497 
Q 953 2441 691 2322 
L 691 4666 
z
" id="DejaVuSans-35" transform="scale(0.015625)"/>
       </defs>
       <use xlink:href="#DejaVuSans-35"/>
       <use x="63.623047" xlink:href="#DejaVuSans-30"/>
      </g>
     </g>
    </g>
    <g id="xtick_3">
     <g id="line2d_3">
      <g>
       <use style="stroke:#000000;stroke-width:0.8;" x="154.386111" xlink:href="#ma89223b60e" y="307.584"/>
      </g>
     </g>
     <g id="text_3">
      <!-- 100 -->
      <g transform="translate(144.842361 322.182437)scale(0.1 -0.1)">
       <defs>
        <path d="M 794 531 
L 1825 531 
L 1825 4091 
L 703 3866 
L 703 4441 
L 1819 4666 
L 2450 4666 
L 2450 531 
L 3481 531 
L 3481 0 
L 794 0 
L 794 531 
z
" id="DejaVuSans-31" transform="scale(0.015625)"/>
       </defs>
       <use xlink:href="#DejaVuSans-31"/>
       <use x="63.623047" xlink:href="#DejaVuSans-30"/>
       <use x="127.246094" xlink:href="#DejaVuSans-30"/>
      </g>
     </g>
    </g>
    <g id="xtick_4">
     <g id="line2d_4">
      <g>
       <use style="stroke:#000000;stroke-width:0.8;" x="195.069638" xlink:href="#ma89223b60e" y="307.584"/>
      </g>
     </g>
     <g id="text_4">
      <!-- 150 -->
      <g transform="translate(185.525888 322.182437)scale(0.1 -0.1)">
       <use xlink:href="#DejaVuSans-31"/>
       <use x="63.623047" xlink:href="#DejaVuSans-35"/>
       <use x="127.246094" xlink:href="#DejaVuSans-30"/>
      </g>
     </g>
    </g>
    <g id="xtick_5">
     <g id="line2d_5">
      <g>
       <use style="stroke:#000000;stroke-width:0.8;" x="235.753165" xlink:href="#ma89223b60e" y="307.584"/>
      </g>
     </g>
     <g id="text_5">
      <!-- 200 -->
      <g transform="translate(226.209415 322.182437)scale(0.1 -0.1)">
       <defs>
        <path d="M 1228 531 
L 3431 531 
L 3431 0 
L 469 0 
L 469 531 
Q 828 903 1448 1529 
Q 2069 2156 2228 2338 
Q 2531 2678 2651 2914 
Q 2772 3150 2772 3378 
Q 2772 3750 2511 3984 
Q 2250 4219 1831 4219 
Q 1534 4219 1204 4116 
Q 875 4013 500 3803 
L 500 4441 
Q 881 4594 1212 4672 
Q 1544 4750 1819 4750 
Q 2544 4750 2975 4387 
Q 3406 4025 3406 3419 
Q 3406 3131 3298 2873 
Q 3191 2616 2906 2266 
Q 2828 2175 2409 1742 
Q 1991 1309 1228 531 
z
" id="DejaVuSans-32" transform="scale(0.015625)"/>
       </defs>
       <use xlink:href="#DejaVuSans-32"/>
       <use x="63.623047" xlink:href="#DejaVuSans-30"/>
       <use x="127.246094" xlink:href="#DejaVuSans-30"/>
      </g>
     </g>
    </g>
    <g id="xtick_6">
     <g id="line2d_6">
      <g>
       <use style="stroke:#000000;stroke-width:0.8;" x="276.436692" xlink:href="#ma89223b60e" y="307.584"/>
      </g>
     </g>
     <g id="text_6">
      <!-- 250 -->
      <g transform="translate(266.892942 322.182437)scale(0.1 -0.1)">
       <use xlink:href="#DejaVuSans-32"/>
       <use x="63.623047" xlink:href="#DejaVuSans-35"/>
       <use x="127.246094" xlink:href="#DejaVuSans-30"/>
      </g>
     </g>
    </g>
    <g id="xtick_7">
     <g id="line2d_7">
      <g>
       <use style="stroke:#000000;stroke-width:0.8;" x="317.120219" xlink:href="#ma89223b60e" y="307.584"/>
      </g>
     </g>
     <g id="text_7">
      <!-- 300 -->
      <g transform="translate(307.576469 322.182437)scale(0.1 -0.1)">
       <defs>
        <path d="M 2597 2516 
Q 3050 2419 3304 2112 
Q 3559 1806 3559 1356 
Q 3559 666 3084 287 
Q 2609 -91 1734 -91 
Q 1441 -91 1130 -33 
Q 819 25 488 141 
L 488 750 
Q 750 597 1062 519 
Q 1375 441 1716 441 
Q 2309 441 2620 675 
Q 2931 909 2931 1356 
Q 2931 1769 2642 2001 
Q 2353 2234 1838 2234 
L 1294 2234 
L 1294 2753 
L 1863 2753 
Q 2328 2753 2575 2939 
Q 2822 3125 2822 3475 
Q 2822 3834 2567 4026 
Q 2313 4219 1838 4219 
Q 1578 4219 1281 4162 
Q 984 4106 628 3988 
L 628 4550 
Q 988 4650 1302 4700 
Q 1616 4750 1894 4750 
Q 2613 4750 3031 4423 
Q 3450 4097 3450 3541 
Q 3450 3153 3228 2886 
Q 3006 2619 2597 2516 
z
" id="DejaVuSans-33" transform="scale(0.015625)"/>
       </defs>
       <use xlink:href="#DejaVuSans-33"/>
       <use x="63.623047" xlink:href="#DejaVuSans-30"/>
       <use x="127.246094" xlink:href="#DejaVuSans-30"/>
      </g>
     </g>
    </g>
    <g id="xtick_8">
     <g id="line2d_8">
      <g>
       <use style="stroke:#000000;stroke-width:0.8;" x="357.803746" xlink:href="#ma89223b60e" y="307.584"/>
      </g>
     </g>
     <g id="text_8">
      <!-- 350 -->
      <g transform="translate(348.259996 322.182437)scale(0.1 -0.1)">
       <use xlink:href="#DejaVuSans-33"/>
       <use x="63.623047" xlink:href="#DejaVuSans-35"/>
       <use x="127.246094" xlink:href="#DejaVuSans-30"/>
      </g>
     </g>
    </g>
    <g id="xtick_9">
     <g id="line2d_9">
      <g>
       <use style="stroke:#000000;stroke-width:0.8;" x="398.487273" xlink:href="#ma89223b60e" y="307.584"/>
      </g>
     </g>
     <g id="text_9">
      <!-- 400 -->
      <g transform="translate(388.943523 322.182437)scale(0.1 -0.1)">
       <defs>
        <path d="M 2419 4116 
L 825 1625 
L 2419 1625 
L 2419 4116 
z
M 2253 4666 
L 3047 4666 
L 3047 1625 
L 3713 1625 
L 3713 1100 
L 3047 1100 
L 3047 0 
L 2419 0 
L 2419 1100 
L 313 1100 
L 313 1709 
L 2253 4666 
z
" id="DejaVuSans-34" transform="scale(0.015625)"/>
       </defs>
       <use xlink:href="#DejaVuSans-34"/>
       <use x="63.623047" xlink:href="#DejaVuSans-30"/>
       <use x="127.246094" xlink:href="#DejaVuSans-30"/>
      </g>
     </g>
    </g>
    <g id="text_10">
     <!-- Epoch -->
     <g transform="translate(213.193594 339.659781)scale(0.15 -0.15)">
      <defs>
       <path d="M 628 4666 
L 3578 4666 
L 3578 4134 
L 1259 4134 
L 1259 2753 
L 3481 2753 
L 3481 2222 
L 1259 2222 
L 1259 531 
L 3634 531 
L 3634 0 
L 628 0 
L 628 4666 
z
" id="DejaVuSans-45" transform="scale(0.015625)"/>
       <path d="M 1159 525 
L 1159 -1331 
L 581 -1331 
L 581 3500 
L 1159 3500 
L 1159 2969 
Q 1341 3281 1617 3432 
Q 1894 3584 2278 3584 
Q 2916 3584 3314 3078 
Q 3713 2572 3713 1747 
Q 3713 922 3314 415 
Q 2916 -91 2278 -91 
Q 1894 -91 1617 61 
Q 1341 213 1159 525 
z
M 3116 1747 
Q 3116 2381 2855 2742 
Q 2594 3103 2138 3103 
Q 1681 3103 1420 2742 
Q 1159 2381 1159 1747 
Q 1159 1113 1420 752 
Q 1681 391 2138 391 
Q 2594 391 2855 752 
Q 3116 1113 3116 1747 
z
" id="DejaVuSans-70" transform="scale(0.015625)"/>
       <path d="M 1959 3097 
Q 1497 3097 1228 2736 
Q 959 2375 959 1747 
Q 959 1119 1226 758 
Q 1494 397 1959 397 
Q 2419 397 2687 759 
Q 2956 1122 2956 1747 
Q 2956 2369 2687 2733 
Q 2419 3097 1959 3097 
z
M 1959 3584 
Q 2709 3584 3137 3096 
Q 3566 2609 3566 1747 
Q 3566 888 3137 398 
Q 2709 -91 1959 -91 
Q 1206 -91 779 398 
Q 353 888 353 1747 
Q 353 2609 779 3096 
Q 1206 3584 1959 3584 
z
" id="DejaVuSans-6f" transform="scale(0.015625)"/>
       <path d="M 3122 3366 
L 3122 2828 
Q 2878 2963 2633 3030 
Q 2388 3097 2138 3097 
Q 1578 3097 1268 2742 
Q 959 2388 959 1747 
Q 959 1106 1268 751 
Q 1578 397 2138 397 
Q 2388 397 2633 464 
Q 2878 531 3122 666 
L 3122 134 
Q 2881 22 2623 -34 
Q 2366 -91 2075 -91 
Q 1284 -91 818 406 
Q 353 903 353 1747 
Q 353 2603 823 3093 
Q 1294 3584 2113 3584 
Q 2378 3584 2631 3529 
Q 2884 3475 3122 3366 
z
" id="DejaVuSans-63" transform="scale(0.015625)"/>
       <path d="M 3513 2113 
L 3513 0 
L 2938 0 
L 2938 2094 
Q 2938 2591 2744 2837 
Q 2550 3084 2163 3084 
Q 1697 3084 1428 2787 
Q 1159 2491 1159 1978 
L 1159 0 
L 581 0 
L 581 4863 
L 1159 4863 
L 1159 2956 
Q 1366 3272 1645 3428 
Q 1925 3584 2291 3584 
Q 2894 3584 3203 3211 
Q 3513 2838 3513 2113 
z
" id="DejaVuSans-68" transform="scale(0.015625)"/>
      </defs>
      <use xlink:href="#DejaVuSans-45"/>
      <use x="63.183594" xlink:href="#DejaVuSans-70"/>
      <use x="126.660156" xlink:href="#DejaVuSans-6f"/>
      <use x="187.841797" xlink:href="#DejaVuSans-63"/>
      <use x="242.822266" xlink:href="#DejaVuSans-68"/>
     </g>
    </g>
   </g>
   <g id="matplotlib.axis_2">
    <g id="ytick_1">
     <g id="line2d_10">
      <defs>
       <path d="M 0 0 
L -3.5 0 
" id="m808dd80a1d" style="stroke:#000000;stroke-width:0.8;"/>
      </defs>
      <g>
       <use style="stroke:#000000;stroke-width:0.8;" x="57.6" xlink:href="#m808dd80a1d" y="286.822784"/>
      </g>
     </g>
     <g id="text_11">
      <!-- 0.50 -->
      <g transform="translate(28.334375 290.622003)scale(0.1 -0.1)">
       <defs>
        <path d="M 684 794 
L 1344 794 
L 1344 0 
L 684 0 
L 684 794 
z
" id="DejaVuSans-2e" transform="scale(0.015625)"/>
       </defs>
       <use xlink:href="#DejaVuSans-30"/>
       <use x="63.623047" xlink:href="#DejaVuSans-2e"/>
       <use x="95.410156" xlink:href="#DejaVuSans-35"/>
       <use x="159.033203" xlink:href="#DejaVuSans-30"/>
      </g>
     </g>
    </g>
    <g id="ytick_2">
     <g id="line2d_11">
      <g>
       <use style="stroke:#000000;stroke-width:0.8;" x="57.6" xlink:href="#m808dd80a1d" y="248.310712"/>
      </g>
     </g>
     <g id="text_12">
      <!-- 0.55 -->
      <g transform="translate(28.334375 252.10993)scale(0.1 -0.1)">
       <use xlink:href="#DejaVuSans-30"/>
       <use x="63.623047" xlink:href="#DejaVuSans-2e"/>
       <use x="95.410156" xlink:href="#DejaVuSans-35"/>
       <use x="159.033203" xlink:href="#DejaVuSans-35"/>
      </g>
     </g>
    </g>
    <g id="ytick_3">
     <g id="line2d_12">
      <g>
       <use style="stroke:#000000;stroke-width:0.8;" x="57.6" xlink:href="#m808dd80a1d" y="209.798639"/>
      </g>
     </g>
     <g id="text_13">
      <!-- 0.60 -->
      <g transform="translate(28.334375 213.597858)scale(0.1 -0.1)">
       <defs>
        <path d="M 2113 2584 
Q 1688 2584 1439 2293 
Q 1191 2003 1191 1497 
Q 1191 994 1439 701 
Q 1688 409 2113 409 
Q 2538 409 2786 701 
Q 3034 994 3034 1497 
Q 3034 2003 2786 2293 
Q 2538 2584 2113 2584 
z
M 3366 4563 
L 3366 3988 
Q 3128 4100 2886 4159 
Q 2644 4219 2406 4219 
Q 1781 4219 1451 3797 
Q 1122 3375 1075 2522 
Q 1259 2794 1537 2939 
Q 1816 3084 2150 3084 
Q 2853 3084 3261 2657 
Q 3669 2231 3669 1497 
Q 3669 778 3244 343 
Q 2819 -91 2113 -91 
Q 1303 -91 875 529 
Q 447 1150 447 2328 
Q 447 3434 972 4092 
Q 1497 4750 2381 4750 
Q 2619 4750 2861 4703 
Q 3103 4656 3366 4563 
z
" id="DejaVuSans-36" transform="scale(0.015625)"/>
       </defs>
       <use xlink:href="#DejaVuSans-30"/>
       <use x="63.623047" xlink:href="#DejaVuSans-2e"/>
       <use x="95.410156" xlink:href="#DejaVuSans-36"/>
       <use x="159.033203" xlink:href="#DejaVuSans-30"/>
      </g>
     </g>
    </g>
    <g id="ytick_4">
     <g id="line2d_13">
      <g>
       <use style="stroke:#000000;stroke-width:0.8;" x="57.6" xlink:href="#m808dd80a1d" y="171.286567"/>
      </g>
     </g>
     <g id="text_14">
      <!-- 0.65 -->
      <g transform="translate(28.334375 175.085786)scale(0.1 -0.1)">
       <use xlink:href="#DejaVuSans-30"/>
       <use x="63.623047" xlink:href="#DejaVuSans-2e"/>
       <use x="95.410156" xlink:href="#DejaVuSans-36"/>
       <use x="159.033203" xlink:href="#DejaVuSans-35"/>
      </g>
     </g>
    </g>
    <g id="ytick_5">
     <g id="line2d_14">
      <g>
       <use style="stroke:#000000;stroke-width:0.8;" x="57.6" xlink:href="#m808dd80a1d" y="132.774495"/>
      </g>
     </g>
     <g id="text_15">
      <!-- 0.70 -->
      <g transform="translate(28.334375 136.573714)scale(0.1 -0.1)">
       <defs>
        <path d="M 525 4666 
L 3525 4666 
L 3525 4397 
L 1831 0 
L 1172 0 
L 2766 4134 
L 525 4134 
L 525 4666 
z
" id="DejaVuSans-37" transform="scale(0.015625)"/>
       </defs>
       <use xlink:href="#DejaVuSans-30"/>
       <use x="63.623047" xlink:href="#DejaVuSans-2e"/>
       <use x="95.410156" xlink:href="#DejaVuSans-37"/>
       <use x="159.033203" xlink:href="#DejaVuSans-30"/>
      </g>
     </g>
    </g>
    <g id="ytick_6">
     <g id="line2d_15">
      <g>
       <use style="stroke:#000000;stroke-width:0.8;" x="57.6" xlink:href="#m808dd80a1d" y="94.262423"/>
      </g>
     </g>
     <g id="text_16">
      <!-- 0.75 -->
      <g transform="translate(28.334375 98.061642)scale(0.1 -0.1)">
       <use xlink:href="#DejaVuSans-30"/>
       <use x="63.623047" xlink:href="#DejaVuSans-2e"/>
       <use x="95.410156" xlink:href="#DejaVuSans-37"/>
       <use x="159.033203" xlink:href="#DejaVuSans-35"/>
      </g>
     </g>
    </g>
    <g id="ytick_7">
     <g id="line2d_16">
      <g>
       <use style="stroke:#000000;stroke-width:0.8;" x="57.6" xlink:href="#m808dd80a1d" y="55.750351"/>
      </g>
     </g>
     <g id="text_17">
      <!-- 0.80 -->
      <g transform="translate(28.334375 59.54957)scale(0.1 -0.1)">
       <defs>
        <path d="M 2034 2216 
Q 1584 2216 1326 1975 
Q 1069 1734 1069 1313 
Q 1069 891 1326 650 
Q 1584 409 2034 409 
Q 2484 409 2743 651 
Q 3003 894 3003 1313 
Q 3003 1734 2745 1975 
Q 2488 2216 2034 2216 
z
M 1403 2484 
Q 997 2584 770 2862 
Q 544 3141 544 3541 
Q 544 4100 942 4425 
Q 1341 4750 2034 4750 
Q 2731 4750 3128 4425 
Q 3525 4100 3525 3541 
Q 3525 3141 3298 2862 
Q 3072 2584 2669 2484 
Q 3125 2378 3379 2068 
Q 3634 1759 3634 1313 
Q 3634 634 3220 271 
Q 2806 -91 2034 -91 
Q 1263 -91 848 271 
Q 434 634 434 1313 
Q 434 1759 690 2068 
Q 947 2378 1403 2484 
z
M 1172 3481 
Q 1172 3119 1398 2916 
Q 1625 2713 2034 2713 
Q 2441 2713 2670 2916 
Q 2900 3119 2900 3481 
Q 2900 3844 2670 4047 
Q 2441 4250 2034 4250 
Q 1625 4250 1398 4047 
Q 1172 3844 1172 3481 
z
" id="DejaVuSans-38" transform="scale(0.015625)"/>
       </defs>
       <use xlink:href="#DejaVuSans-30"/>
       <use x="63.623047" xlink:href="#DejaVuSans-2e"/>
       <use x="95.410156" xlink:href="#DejaVuSans-38"/>
       <use x="159.033203" xlink:href="#DejaVuSans-30"/>
      </g>
     </g>
    </g>
    <g id="text_18">
     <!-- Loss -->
     <g transform="translate(21.214844 190.978781)rotate(-90)scale(0.15 -0.15)">
      <defs>
       <path d="M 628 4666 
L 1259 4666 
L 1259 531 
L 3531 531 
L 3531 0 
L 628 0 
L 628 4666 
z
" id="DejaVuSans-4c" transform="scale(0.015625)"/>
       <path d="M 2834 3397 
L 2834 2853 
Q 2591 2978 2328 3040 
Q 2066 3103 1784 3103 
Q 1356 3103 1142 2972 
Q 928 2841 928 2578 
Q 928 2378 1081 2264 
Q 1234 2150 1697 2047 
L 1894 2003 
Q 2506 1872 2764 1633 
Q 3022 1394 3022 966 
Q 3022 478 2636 193 
Q 2250 -91 1575 -91 
Q 1294 -91 989 -36 
Q 684 19 347 128 
L 347 722 
Q 666 556 975 473 
Q 1284 391 1588 391 
Q 1994 391 2212 530 
Q 2431 669 2431 922 
Q 2431 1156 2273 1281 
Q 2116 1406 1581 1522 
L 1381 1569 
Q 847 1681 609 1914 
Q 372 2147 372 2553 
Q 372 3047 722 3315 
Q 1072 3584 1716 3584 
Q 2034 3584 2315 3537 
Q 2597 3491 2834 3397 
z
" id="DejaVuSans-73" transform="scale(0.015625)"/>
      </defs>
      <use xlink:href="#DejaVuSans-4c"/>
      <use x="53.962891" xlink:href="#DejaVuSans-6f"/>
      <use x="115.144531" xlink:href="#DejaVuSans-73"/>
      <use x="167.244141" xlink:href="#DejaVuSans-73"/>
     </g>
    </g>
   </g>
   <g id="line2d_17">
    <path clip-path="url(#pab9e30f669)" d="M 73.832727 289.709246 
L 74.646398 285.934641 
L 75.460068 284.380392 
L 76.273739 287.155837 
L 77.087409 289.487211 
L 77.90108 285.046499 
L 78.714751 289.709246 
L 79.528421 281.715965 
L 80.342092 294.705047 
L 81.155762 285.712606 
L 81.969433 280.827823 
L 82.783103 284.935481 
L 83.596774 287.599908 
L 84.410444 286.933802 
L 85.224115 284.713446 
L 86.037785 292.817745 
L 86.851456 283.603268 
L 87.665126 287.488891 
L 88.478797 286.378713 
L 89.292468 288.710086 
L 90.106138 285.823624 
L 90.919809 289.820264 
L 91.733479 279.273574 
L 92.54715 284.269375 
L 93.36082 288.154997 
L 94.174491 287.821944 
L 94.988161 286.267695 
L 95.801832 290.930442 
L 96.615502 293.261816 
L 97.429173 288.154997 
L 98.242843 290.930442 
L 99.056514 287.710926 
L 99.870185 286.378713 
L 100.683855 274.499809 
L 101.497526 278.163396 
L 102.311196 277.608307 
L 103.124867 280.827823 
L 103.938537 276.831182 
L 104.752208 277.94136 
L 105.565878 266.728563 
L 106.379549 261.732763 
L 107.193219 259.512407 
L 108.00689 254.183553 
L 108.82056 253.517446 
L 109.634231 254.738642 
L 110.447902 245.968236 
L 111.261572 244.191951 
L 112.075243 234.644421 
L 112.888913 242.304649 
L 113.702584 237.863937 
L 114.516254 246.079254 
L 116.143595 222.6545 
L 116.957266 227.317247 
L 117.770936 225.207909 
L 118.584607 233.090172 
L 119.398278 224.763838 
L 120.211948 221.988393 
L 121.025619 225.096891 
L 121.839289 221.877375 
L 122.65296 214.550201 
L 123.46663 229.981674 
L 124.280301 220.212108 
L 125.093971 220.212108 
L 125.907642 214.328165 
L 126.721312 215.438343 
L 127.534983 213.10697 
L 128.348653 216.659539 
L 129.162324 203.670457 
L 129.975995 204.114528 
L 130.789665 206.889973 
L 131.603336 202.338244 
L 132.417006 208.777276 
L 133.230677 213.440023 
L 134.044347 210.775596 
L 134.858018 206.001831 
L 135.671688 197.675497 
L 136.485359 199.229746 
L 137.299029 197.231425 
L 138.1127 200.117888 
L 138.92637 189.571198 
L 139.740041 197.231425 
L 141.367382 191.569518 
L 142.181053 191.125447 
L 142.994723 185.685575 
L 143.808394 193.345803 
L 144.622064 195.788194 
L 145.435735 188.572038 
L 146.249405 193.012749 
L 147.063076 186.462699 
L 147.876746 193.678856 
L 148.690417 184.242344 
L 149.504087 177.248223 
L 150.317758 179.690614 
L 151.131429 176.36008 
L 151.945099 184.575397 
L 152.75877 182.133006 
L 153.57244 183.354201 
L 154.386111 175.582956 
L 155.199781 185.019468 
L 156.013452 172.585475 
L 156.827122 184.131326 
L 157.640793 178.580436 
L 158.454463 176.693134 
L 159.268134 177.359241 
L 160.081805 176.36008 
L 160.895475 178.691454 
L 161.709146 173.806671 
L 162.522816 176.693134 
L 163.336487 172.807511 
L 164.150157 172.474458 
L 164.963828 179.135525 
L 165.777498 171.36428 
L 166.591169 169.810031 
L 167.404839 166.479497 
L 168.21851 159.707412 
L 169.03218 157.931127 
L 169.845851 168.588835 
L 170.659522 165.258301 
L 171.473192 169.810031 
L 172.286863 155.2667 
L 173.100533 168.255782 
L 173.914204 161.594714 
L 174.727874 168.699853 
L 175.541545 168.366799 
L 176.355215 164.259141 
L 177.168886 169.587995 
L 177.982556 160.484536 
L 178.796227 162.593874 
L 179.609897 156.376878 
L 180.423568 164.81423 
L 181.237239 162.260821 
L 182.050909 158.26418 
L 182.86458 151.270059 
L 183.67825 163.370999 
L 184.491921 152.158202 
L 185.305591 150.270899 
L 186.119262 146.385276 
L 186.932932 153.26838 
L 187.746603 151.825148 
L 188.560273 152.824308 
L 189.373944 154.045504 
L 190.187614 154.822629 
L 191.001285 146.607312 
L 191.814956 153.490415 
L 192.628626 155.155682 
L 193.442297 145.164081 
L 194.255967 133.063141 
L 195.069638 142.832707 
L 195.883308 144.831027 
L 196.696979 154.600593 
L 197.510649 152.158202 
L 199.13799 134.062301 
L 200.765332 135.505533 
L 201.579002 140.279298 
L 202.392673 139.058102 
L 203.206343 128.067341 
L 204.020014 125.291896 
L 204.833684 136.393675 
L 205.647355 138.503013 
L 206.461025 134.506373 
L 207.274696 131.175839 
L 208.902037 137.947924 
L 209.715707 131.064821 
L 210.529378 131.730928 
L 211.343049 125.735967 
L 212.156719 148.71665 
L 212.97039 126.957163 
L 213.78406 118.741846 
L 214.597731 130.176679 
L 215.411401 121.961362 
L 216.225072 129.066501 
L 217.038742 124.181718 
L 217.852413 132.61907 
L 218.666083 119.407953 
L 219.479754 132.063981 
L 220.293424 118.186757 
L 221.107095 132.174999 
L 221.920766 130.509732 
L 223.548107 114.634188 
L 224.361777 134.950444 
L 225.175448 121.517291 
L 225.989118 123.737647 
L 226.802789 121.850344 
L 227.616459 118.630828 
L 228.43013 121.517291 
L 229.2438 119.407953 
L 230.057471 106.862942 
L 230.871141 122.183398 
L 231.684812 121.517291 
L 233.312153 116.299455 
L 234.125824 119.852024 
L 234.939494 113.746045 
L 235.753165 117.187597 
L 236.566835 119.296935 
L 237.380506 113.190957 
L 238.194176 117.298615 
L 239.007847 112.857903 
L 239.821517 119.741006 
L 240.635188 105.419711 
L 241.448859 121.295255 
L 242.262529 121.07322 
L 243.0762 112.302814 
L 243.88987 112.191796 
L 244.703541 107.751085 
L 245.517211 107.307014 
L 246.330882 119.0749 
L 247.144552 116.965561 
L 247.958223 111.192636 
L 248.771893 117.298615 
L 249.585564 119.0749 
L 250.399234 110.193476 
L 251.212905 107.084978 
L 252.026576 102.866302 
L 252.840246 106.418871 
L 253.653917 105.641747 
L 254.467587 101.645106 
L 255.281258 115.52233 
L 256.094928 100.312893 
L 256.908599 101.534088 
L 257.722269 104.198515 
L 258.53594 91.098416 
L 259.34961 106.97396 
L 260.163281 118.075739 
L 260.976951 101.756124 
L 261.790622 106.640907 
L 262.604293 104.642587 
L 263.417963 109.194316 
L 264.231634 108.417191 
L 265.858975 104.864622 
L 266.672645 97.537448 
L 267.486316 104.864622 
L 269.113657 109.416352 
L 269.927327 105.419711 
L 270.740998 114.190117 
L 271.554668 110.748565 
L 272.368339 94.42895 
L 273.18201 109.638387 
L 273.99568 93.651825 
L 274.809351 114.634188 
L 275.623021 91.542487 
L 276.436692 103.310373 
L 277.250362 99.535768 
L 278.064033 101.201035 
L 278.877703 101.090017 
L 279.691374 99.646786 
L 280.505044 89.87722 
L 281.318715 91.87554 
L 282.132386 104.753604 
L 282.946056 91.764523 
L 283.759727 88.989078 
L 284.573397 91.209434 
L 285.387068 94.42895 
L 286.200738 85.103455 
L 287.014409 87.212793 
L 287.828079 85.991597 
L 288.64175 89.87722 
L 289.45542 91.87554 
L 290.269091 95.539128 
L 291.082761 88.433989 
L 291.896432 83.438188 
L 292.710103 92.541647 
L 293.523773 79.774601 
L 294.337444 101.978159 
L 295.151114 91.431469 
L 295.964785 87.545846 
L 296.778455 89.433149 
L 297.592126 86.324651 
L 298.405796 88.989078 
L 299.219467 88.656024 
L 300.033137 82.105975 
L 300.846808 78.33137 
L 301.660478 82.883099 
L 302.474149 93.873861 
L 303.28782 93.429789 
L 304.10149 101.423071 
L 304.915161 93.429789 
L 305.728831 87.767882 
L 306.542502 91.986558 
L 307.356172 86.990758 
L 308.169843 79.441548 
L 308.983513 86.102615 
L 309.797184 76.111014 
L 310.610854 74.334729 
L 311.424525 92.985718 
L 312.238195 89.322131 
L 313.051866 79.774601 
L 313.865537 84.104295 
L 314.679207 86.213633 
L 315.492878 89.322131 
L 316.306548 88.322971 
L 317.120219 82.216992 
L 317.933889 86.657704 
L 318.74756 92.652665 
L 319.56123 87.8789 
L 320.374901 84.215313 
L 321.188571 87.8789 
L 322.002242 71.448267 
L 322.815913 77.33221 
L 323.629583 76.999156 
L 324.443254 78.886459 
L 325.256924 77.443227 
L 326.070595 79.552565 
L 326.884265 76.333049 
L 327.697936 75.444907 
L 328.511606 84.659384 
L 329.325277 82.772081 
L 330.138947 83.660224 
L 330.952618 79.552565 
L 331.766288 74.667783 
L 332.579959 76.666103 
L 333.39363 91.431469 
L 335.020971 75.444907 
L 335.834641 84.104295 
L 336.648312 72.447427 
L 337.461982 80.551726 
L 338.275653 71.337249 
L 339.089323 87.323811 
L 339.902994 74.223711 
L 340.716664 73.77964 
L 341.530335 73.668622 
L 342.344005 65.009235 
L 343.157676 73.002516 
L 343.971347 64.010075 
L 344.785017 62.011754 
L 345.598688 82.883099 
L 346.412358 69.227911 
L 347.226029 82.772081 
L 348.039699 68.672822 
L 348.85337 84.992437 
L 349.66704 69.338929 
L 350.480711 68.006715 
L 351.294381 72.78048 
L 352.108052 73.446587 
L 352.921722 82.994117 
L 353.735393 73.224551 
L 354.549064 78.553405 
L 355.362734 68.228751 
L 356.176405 70.338089 
L 356.990075 63.343968 
L 357.803746 72.558445 
L 358.617416 73.224551 
L 359.431087 66.008395 
L 360.244757 65.897377 
L 361.058428 81.994957 
L 361.872098 77.110174 
L 362.685769 74.667783 
L 363.49944 73.446587 
L 364.31311 66.119413 
L 365.126781 73.77964 
L 365.940451 65.23127 
L 366.754122 63.23295 
L 367.567792 72.78048 
L 368.381463 67.562644 
L 369.195133 85.325491 
L 370.008804 74.556765 
L 370.822474 71.559284 
L 371.636145 76.555085 
L 372.449815 73.668622 
L 373.263486 77.221192 
L 374.077157 75.333889 
L 374.890827 60.790559 
L 375.704498 65.23127 
L 376.518168 67.007555 
L 377.331839 73.890658 
L 378.145509 68.672822 
L 378.95918 58.68122 
L 379.77285 68.894857 
L 380.586521 69.227911 
L 381.400191 63.566003 
L 382.213862 75.333889 
L 383.027532 71.115213 
L 383.841203 67.895697 
L 384.654874 66.674502 
L 385.468544 60.679541 
L 386.282215 65.675341 
L 387.095885 56.127811 
L 387.909556 67.784679 
L 388.723226 65.453306 
L 389.536897 68.339768 
L 390.350567 69.894018 
L 391.164238 70.449106 
L 391.977908 75.999996 
L 392.791579 63.677021 
L 393.605249 65.342288 
L 394.41892 76.444067 
L 395.232591 73.335569 
L 396.046261 63.454986 
L 396.859932 68.672822 
L 397.673602 72.447427 
L 398.487273 65.564324 
L 398.487273 65.564324 
" style="fill:none;stroke:#1f77b4;stroke-linecap:square;stroke-width:1.5;"/>
   </g>
   <g id="line2d_18">
    <path clip-path="url(#pab9e30f669)" d="M 73.832727 284.832993 
L 74.646398 285.153927 
L 75.460068 287.528838 
L 76.273739 286.69441 
L 77.087409 282.329709 
L 77.90108 286.951157 
L 78.714751 288.940948 
L 79.528421 285.282301 
L 80.342092 288.427453 
L 81.155762 283.998565 
L 81.969433 284.576246 
L 82.783103 284.512059 
L 83.596774 285.089741 
L 84.410444 283.549258 
L 85.224115 286.69441 
L 86.037785 282.393895 
L 86.851456 282.393895 
L 87.665126 280.917599 
L 88.478797 291.315859 
L 89.292468 289.326068 
L 90.106138 285.539048 
L 90.919809 284.961367 
L 91.733479 288.748387 
L 92.54715 289.005135 
L 93.36082 287.593025 
L 94.174491 281.559467 
L 94.988161 288.620014 
L 95.801832 280.789226 
L 96.615502 295.488 
L 97.429173 286.052542 
L 98.242843 284.062752 
L 99.056514 289.133508 
L 99.870185 283.035763 
L 100.683855 287.785586 
L 101.497526 285.859982 
L 102.311196 280.339918 
L 103.124867 279.377116 
L 103.938537 274.1138 
L 104.752208 266.989067 
L 105.565878 264.742529 
L 106.379549 264.678342 
L 107.193219 256.719181 
L 108.00689 250.043755 
L 108.82056 249.401887 
L 109.634231 248.053964 
L 110.447902 256.783367 
L 111.261572 236.115222 
L 112.075243 246.192548 
L 112.888913 240.223176 
L 113.702584 238.618507 
L 114.516254 237.270584 
L 115.329925 231.044466 
L 116.143595 234.703113 
L 116.957266 223.213678 
L 117.770936 233.419377 
L 118.584607 226.230457 
L 119.398278 225.331842 
L 120.211948 226.808138 
L 121.025619 224.5616 
L 121.839289 225.845336 
L 122.65296 223.149491 
L 123.46663 228.541181 
L 124.280301 217.501054 
L 125.093971 218.078735 
L 125.907642 213.136352 
L 126.721312 216.217318 
L 127.534983 211.660056 
L 128.348653 211.98099 
L 129.162324 206.460927 
L 129.975995 211.78843 
L 130.789665 218.78479 
L 131.603336 202.417159 
L 132.417006 212.366111 
L 133.230677 199.079446 
L 134.858018 192.724954 
L 135.671688 200.555742 
L 136.485359 191.505405 
L 137.299029 195.356612 
L 138.1127 197.988271 
L 138.92637 198.437578 
L 139.740041 187.461638 
L 140.553712 192.40402 
L 141.367382 189.387241 
L 142.181053 187.076517 
L 142.994723 186.306275 
L 143.808394 192.40402 
L 144.622064 183.096936 
L 145.435735 182.134134 
L 146.249405 197.025469 
L 147.063076 187.910945 
L 147.876746 174.239159 
L 148.690417 182.198321 
L 149.504087 184.765793 
L 150.317758 193.110075 
L 151.131429 174.43172 
L 151.945099 175.330335 
L 152.75877 180.850399 
L 153.57244 169.553524 
L 155.199781 184.701606 
L 156.013452 184.765793 
L 156.827122 199.528754 
L 157.640793 170.516326 
L 158.454463 172.313556 
L 159.268134 171.735875 
L 160.081805 180.529465 
L 160.895475 172.82705 
L 161.709146 179.374102 
L 162.522816 166.665119 
L 163.336487 168.398162 
L 164.150157 171.607501 
L 164.963828 172.056809 
L 165.777498 170.708886 
L 166.591169 169.746084 
L 167.404839 165.83069 
L 168.21851 163.006472 
L 169.03218 169.617711 
L 169.845851 169.553524 
L 170.659522 164.996262 
L 171.473192 154.405442 
L 172.286863 157.999902 
L 173.100533 167.499547 
L 173.914204 163.64834 
L 175.541545 147.601643 
L 176.355215 160.824121 
L 177.168886 159.797132 
L 177.982556 167.306986 
L 178.796227 160.05388 
L 179.609897 155.881738 
L 180.423568 153.827761 
L 181.237239 154.341256 
L 182.050909 152.351465 
L 182.86458 159.283638 
L 183.67825 141.632272 
L 184.491921 135.406153 
L 185.305591 151.64541 
L 186.119262 164.611141 
L 186.932932 145.162545 
L 187.746603 147.152335 
L 188.560273 140.797843 
L 189.373944 151.45285 
L 190.187614 139.193174 
L 191.001285 147.66583 
L 191.814956 143.301128 
L 192.628626 141.889019 
L 193.442297 139.963415 
L 194.255967 141.632272 
L 195.069638 141.054591 
L 195.883308 135.213593 
L 196.696979 139.0648 
L 197.510649 137.460131 
L 198.32432 133.801484 
L 199.13799 134.892659 
L 199.951661 127.446992 
L 200.765332 137.07501 
L 201.579002 135.983834 
L 202.392673 139.000613 
L 203.206343 132.646122 
L 204.020014 146.703028 
L 204.833684 131.811693 
L 205.647355 128.987475 
L 206.461025 132.774495 
L 207.274696 124.815334 
L 208.088366 127.960486 
L 208.902037 128.08886 
L 209.715707 120.322258 
L 210.529378 127.575365 
L 211.343049 130.720518 
L 212.156719 133.223803 
L 212.97039 133.095429 
L 213.78406 137.524317 
L 214.597731 123.274851 
L 215.411401 132.838682 
L 216.225072 122.247862 
L 217.038742 126.869311 
L 217.852413 124.558586 
L 218.666083 121.605994 
L 219.479754 124.751147 
L 220.293424 113.711019 
L 221.107095 129.244222 
L 221.920766 121.413434 
L 222.734436 141.568085 
L 223.548107 126.869311 
L 224.361777 118.396655 
L 225.175448 125.007894 
L 225.989118 119.423643 
L 226.802789 125.393015 
L 228.43013 112.812404 
L 229.2438 129.757716 
L 230.057471 117.49804 
L 230.871141 119.680391 
L 231.684812 125.585575 
L 232.498483 119.552017 
L 233.312153 116.599425 
L 234.125824 117.177106 
L 234.939494 121.349247 
L 235.753165 113.454272 
L 236.566835 112.555657 
L 237.380506 101.451343 
L 238.194176 123.403224 
L 239.007847 116.406864 
L 239.821517 114.738008 
L 240.635188 106.778846 
L 241.448859 105.30255 
L 242.262529 117.754787 
L 243.0762 114.09614 
L 243.88987 107.420714 
L 244.703541 103.376947 
L 245.517211 111.015174 
L 246.330882 114.031953 
L 247.144552 110.50168 
L 247.958223 103.441133 
L 248.771893 109.731439 
L 249.585564 122.568796 
L 250.399234 110.758427 
L 251.212905 101.194596 
L 252.026576 110.116559 
L 252.840246 112.170536 
L 253.653917 100.681102 
L 254.467587 99.654113 
L 255.281258 109.474691 
L 256.094928 101.451343 
L 256.908599 100.231794 
L 258.53594 106.136979 
L 259.34961 105.816045 
L 260.976951 103.1202 
L 261.790622 99.076432 
L 262.604293 100.937849 
L 263.417963 99.782487 
L 264.231634 108.383516 
L 265.045304 101.900651 
L 265.858975 96.765708 
L 267.486316 105.238363 
L 268.299986 102.285771 
L 269.113657 101.643903 
L 269.927327 94.840104 
L 270.740998 110.052373 
L 271.554668 106.265352 
L 272.368339 101.066222 
L 273.18201 99.333179 
L 273.99568 99.076432 
L 274.809351 93.620555 
L 275.623021 96.894081 
L 276.436692 102.799266 
L 277.250362 109.859812 
L 278.064033 102.093211 
L 278.877703 92.208446 
L 279.691374 89.576787 
L 280.505044 104.596496 
L 281.318715 85.597207 
L 282.132386 107.484901 
L 282.946056 94.840104 
L 283.759727 94.32661 
L 284.573397 90.475402 
L 285.387068 85.083712 
L 286.200738 93.235434 
L 287.014409 90.411216 
L 287.828079 92.593566 
L 288.64175 97.535949 
L 289.45542 87.972118 
L 290.269091 90.218655 
L 291.082761 86.367448 
L 291.896432 93.877302 
L 292.710103 85.468833 
L 293.523773 94.005676 
L 294.337444 90.796336 
L 295.151114 84.891152 
L 295.964785 92.208446 
L 296.778455 86.945129 
L 297.592126 90.603776 
L 298.405796 109.603065 
L 299.219467 88.228865 
L 300.033137 91.502391 
L 300.846808 82.516241 
L 301.660478 88.164678 
L 302.474149 99.7183 
L 303.28782 88.100491 
L 304.10149 87.201876 
L 304.915161 88.100491 
L 305.728831 90.73215 
L 306.542502 78.72922 
L 307.356172 88.93492 
L 308.169843 83.799977 
L 308.983513 86.560008 
L 309.797184 81.874373 
L 310.610854 83.671603 
L 311.424525 86.239075 
L 312.238195 84.570218 
L 313.051866 81.745999 
L 313.865537 87.394437 
L 314.679207 80.911571 
L 316.306548 92.593566 
L 317.120219 79.884583 
L 317.933889 87.201876 
L 318.74756 81.617626 
L 319.56123 90.154469 
L 321.188571 73.273344 
L 322.002242 73.016596 
L 323.629583 79.242715 
L 324.443254 83.864163 
L 325.256924 80.783198 
L 326.070595 78.151539 
L 326.884265 73.33753 
L 327.697936 120.386445 
L 328.511606 81.039945 
L 329.325277 75.327321 
L 330.138947 80.590637 
L 330.952618 73.658464 
L 331.766288 75.455694 
L 332.579959 81.039945 
L 333.39363 71.026806 
L 334.2073 87.201876 
L 335.020971 86.560008 
L 335.834641 76.482683 
L 336.648312 78.023166 
L 337.461982 73.979398 
L 338.275653 74.171959 
L 339.089323 79.756209 
L 339.902994 64.479754 
L 340.716664 73.594278 
L 341.530335 81.232505 
L 342.344005 66.790478 
L 343.157676 65.95605 
L 343.971347 73.722651 
L 344.785017 76.097562 
L 345.598688 70.641685 
L 346.412358 72.310542 
L 347.226029 82.644614 
L 348.039699 78.087353 
L 348.85337 72.246355 
L 349.66704 74.685453 
L 350.480711 76.54687 
L 351.294381 76.73943 
L 352.108052 67.624906 
L 352.921722 91.245644 
L 353.735393 78.857594 
L 354.549064 73.465904 
L 355.362734 72.759849 
L 356.176405 61.591348 
L 356.990075 79.178528 
L 357.803746 72.374729 
L 358.617416 76.354309 
L 359.431087 85.789767 
L 360.244757 75.198947 
L 361.058428 71.668674 
L 361.872098 89.255854 
L 362.685769 71.732861 
L 363.49944 76.73943 
L 364.31311 78.408287 
L 365.126781 67.624906 
L 365.940451 64.929061 
L 366.754122 70.064004 
L 367.567792 72.824036 
L 368.381463 68.716082 
L 369.195133 66.918852 
L 370.008804 77.509672 
L 370.822474 78.023166 
L 371.636145 75.13476 
L 372.449815 90.539589 
L 373.263486 68.459335 
L 374.077157 63.966259 
L 374.890827 66.983038 
L 375.704498 75.584068 
L 376.518168 69.35795 
L 377.331839 68.330961 
L 378.145509 65.570929 
L 378.95918 65.121622 
L 379.77285 71.219366 
L 380.586521 66.084423 
L 381.400191 65.95605 
L 382.213862 69.101202 
L 383.027532 53.568 
L 383.841203 72.95241 
L 384.654874 68.716082 
L 385.468544 70.962619 
L 386.282215 65.827676 
L 387.095885 74.9422 
L 387.909556 63.388578 
L 388.723226 66.726291 
L 389.536897 64.415567 
L 390.350567 72.888223 
L 391.164238 74.685453 
L 391.977908 77.252924 
L 392.791579 62.939271 
L 393.605249 63.452765 
L 394.41892 68.074214 
L 395.232591 68.844455 
L 396.046261 70.128191 
L 396.859932 59.729932 
L 397.673602 67.56072 
L 398.487273 54.466615 
L 398.487273 54.466615 
" style="fill:none;stroke:#ff7f0e;stroke-linecap:square;stroke-width:1.5;"/>
   </g>
   <g id="patch_3">
    <path d="M 57.6 307.584 
L 57.6 41.472 
" style="fill:none;stroke:#000000;stroke-linecap:square;stroke-linejoin:miter;stroke-width:0.8;"/>
   </g>
   <g id="patch_4">
    <path d="M 414.72 307.584 
L 414.72 41.472 
" style="fill:none;stroke:#000000;stroke-linecap:square;stroke-linejoin:miter;stroke-width:0.8;"/>
   </g>
   <g id="patch_5">
    <path d="M 57.6 307.584 
L 414.72 307.584 
" style="fill:none;stroke:#000000;stroke-linecap:square;stroke-linejoin:miter;stroke-width:0.8;"/>
   </g>
   <g id="patch_6">
    <path d="M 57.6 41.472 
L 414.72 41.472 
" style="fill:none;stroke:#000000;stroke-linecap:square;stroke-linejoin:miter;stroke-width:0.8;"/>
   </g>
   <g id="legend_1">
    <g id="patch_7">
     <path d="M 64.6 78.82825 
L 168.475 78.82825 
Q 170.475 78.82825 170.475 76.82825 
L 170.475 48.472 
Q 170.475 46.472 168.475 46.472 
L 64.6 46.472 
Q 62.6 46.472 62.6 48.472 
L 62.6 76.82825 
Q 62.6 78.82825 64.6 78.82825 
z
" style="fill:#ffffff;opacity:0.8;stroke:#cccccc;stroke-linejoin:miter;"/>
    </g>
    <g id="line2d_19">
     <path d="M 66.6 54.570437 
L 86.6 54.570437 
" style="fill:none;stroke:#1f77b4;stroke-linecap:square;stroke-width:1.5;"/>
    </g>
    <g id="line2d_20"/>
    <g id="text_19">
     <!-- Train loss -->
     <g transform="translate(94.6 58.070437)scale(0.1 -0.1)">
      <defs>
       <path d="M -19 4666 
L 3928 4666 
L 3928 4134 
L 2272 4134 
L 2272 0 
L 1638 0 
L 1638 4134 
L -19 4134 
L -19 4666 
z
" id="DejaVuSans-54" transform="scale(0.015625)"/>
       <path d="M 2631 2963 
Q 2534 3019 2420 3045 
Q 2306 3072 2169 3072 
Q 1681 3072 1420 2755 
Q 1159 2438 1159 1844 
L 1159 0 
L 581 0 
L 581 3500 
L 1159 3500 
L 1159 2956 
Q 1341 3275 1631 3429 
Q 1922 3584 2338 3584 
Q 2397 3584 2469 3576 
Q 2541 3569 2628 3553 
L 2631 2963 
z
" id="DejaVuSans-72" transform="scale(0.015625)"/>
       <path d="M 2194 1759 
Q 1497 1759 1228 1600 
Q 959 1441 959 1056 
Q 959 750 1161 570 
Q 1363 391 1709 391 
Q 2188 391 2477 730 
Q 2766 1069 2766 1631 
L 2766 1759 
L 2194 1759 
z
M 3341 1997 
L 3341 0 
L 2766 0 
L 2766 531 
Q 2569 213 2275 61 
Q 1981 -91 1556 -91 
Q 1019 -91 701 211 
Q 384 513 384 1019 
Q 384 1609 779 1909 
Q 1175 2209 1959 2209 
L 2766 2209 
L 2766 2266 
Q 2766 2663 2505 2880 
Q 2244 3097 1772 3097 
Q 1472 3097 1187 3025 
Q 903 2953 641 2809 
L 641 3341 
Q 956 3463 1253 3523 
Q 1550 3584 1831 3584 
Q 2591 3584 2966 3190 
Q 3341 2797 3341 1997 
z
" id="DejaVuSans-61" transform="scale(0.015625)"/>
       <path d="M 603 3500 
L 1178 3500 
L 1178 0 
L 603 0 
L 603 3500 
z
M 603 4863 
L 1178 4863 
L 1178 4134 
L 603 4134 
L 603 4863 
z
" id="DejaVuSans-69" transform="scale(0.015625)"/>
       <path d="M 3513 2113 
L 3513 0 
L 2938 0 
L 2938 2094 
Q 2938 2591 2744 2837 
Q 2550 3084 2163 3084 
Q 1697 3084 1428 2787 
Q 1159 2491 1159 1978 
L 1159 0 
L 581 0 
L 581 3500 
L 1159 3500 
L 1159 2956 
Q 1366 3272 1645 3428 
Q 1925 3584 2291 3584 
Q 2894 3584 3203 3211 
Q 3513 2838 3513 2113 
z
" id="DejaVuSans-6e" transform="scale(0.015625)"/>
       <path id="DejaVuSans-20" transform="scale(0.015625)"/>
       <path d="M 603 4863 
L 1178 4863 
L 1178 0 
L 603 0 
L 603 4863 
z
" id="DejaVuSans-6c" transform="scale(0.015625)"/>
      </defs>
      <use xlink:href="#DejaVuSans-54"/>
      <use x="46.333984" xlink:href="#DejaVuSans-72"/>
      <use x="87.447266" xlink:href="#DejaVuSans-61"/>
      <use x="148.726562" xlink:href="#DejaVuSans-69"/>
      <use x="176.509766" xlink:href="#DejaVuSans-6e"/>
      <use x="239.888672" xlink:href="#DejaVuSans-20"/>
      <use x="271.675781" xlink:href="#DejaVuSans-6c"/>
      <use x="299.458984" xlink:href="#DejaVuSans-6f"/>
      <use x="360.640625" xlink:href="#DejaVuSans-73"/>
      <use x="412.740234" xlink:href="#DejaVuSans-73"/>
     </g>
    </g>
    <g id="line2d_21">
     <path d="M 66.6 69.248562 
L 86.6 69.248562 
" style="fill:none;stroke:#ff7f0e;stroke-linecap:square;stroke-width:1.5;"/>
    </g>
    <g id="line2d_22"/>
    <g id="text_20">
     <!-- Validation loss -->
     <g transform="translate(94.6 72.748562)scale(0.1 -0.1)">
      <defs>
       <path d="M 1831 0 
L 50 4666 
L 709 4666 
L 2188 738 
L 3669 4666 
L 4325 4666 
L 2547 0 
L 1831 0 
z
" id="DejaVuSans-56" transform="scale(0.015625)"/>
       <path d="M 2906 2969 
L 2906 4863 
L 3481 4863 
L 3481 0 
L 2906 0 
L 2906 525 
Q 2725 213 2448 61 
Q 2172 -91 1784 -91 
Q 1150 -91 751 415 
Q 353 922 353 1747 
Q 353 2572 751 3078 
Q 1150 3584 1784 3584 
Q 2172 3584 2448 3432 
Q 2725 3281 2906 2969 
z
M 947 1747 
Q 947 1113 1208 752 
Q 1469 391 1925 391 
Q 2381 391 2643 752 
Q 2906 1113 2906 1747 
Q 2906 2381 2643 2742 
Q 2381 3103 1925 3103 
Q 1469 3103 1208 2742 
Q 947 2381 947 1747 
z
" id="DejaVuSans-64" transform="scale(0.015625)"/>
       <path d="M 1172 4494 
L 1172 3500 
L 2356 3500 
L 2356 3053 
L 1172 3053 
L 1172 1153 
Q 1172 725 1289 603 
Q 1406 481 1766 481 
L 2356 481 
L 2356 0 
L 1766 0 
Q 1100 0 847 248 
Q 594 497 594 1153 
L 594 3053 
L 172 3053 
L 172 3500 
L 594 3500 
L 594 4494 
L 1172 4494 
z
" id="DejaVuSans-74" transform="scale(0.015625)"/>
      </defs>
      <use xlink:href="#DejaVuSans-56"/>
      <use x="60.658203" xlink:href="#DejaVuSans-61"/>
      <use x="121.9375" xlink:href="#DejaVuSans-6c"/>
      <use x="149.720703" xlink:href="#DejaVuSans-69"/>
      <use x="177.503906" xlink:href="#DejaVuSans-64"/>
      <use x="240.980469" xlink:href="#DejaVuSans-61"/>
      <use x="302.259766" xlink:href="#DejaVuSans-74"/>
      <use x="341.46875" xlink:href="#DejaVuSans-69"/>
      <use x="369.251953" xlink:href="#DejaVuSans-6f"/>
      <use x="430.433594" xlink:href="#DejaVuSans-6e"/>
      <use x="493.8125" xlink:href="#DejaVuSans-20"/>
      <use x="525.599609" xlink:href="#DejaVuSans-6c"/>
      <use x="553.382812" xlink:href="#DejaVuSans-6f"/>
      <use x="614.564453" xlink:href="#DejaVuSans-73"/>
      <use x="666.664062" xlink:href="#DejaVuSans-73"/>
     </g>
    </g>
   </g>
  </g>
 </g>
 <defs>
  <clipPath id="pab9e30f669">
   <rect height="266.112" width="357.12" x="57.6" y="41.472"/>
  </clipPath>
 </defs>
</svg>
