<?xml version="1.0" encoding="utf-8" standalone="no"?>
<!DOCTYPE svg PUBLIC "-//W3C//DTD SVG 1.1//EN"
  "http://www.w3.org/Graphics/SVG/1.1/DTD/svg11.dtd">
<svg height="345.6pt" version="1.1" viewBox="0 0 460.8 345.6" width="460.8pt" xmlns="http://www.w3.org/2000/svg" xmlns:xlink="http://www.w3.org/1999/xlink">
 <metadata>
  <rdf:RDF xmlns:cc="http://creativecommons.org/ns#" xmlns:dc="http://purl.org/dc/elements/1.1/" xmlns:rdf="http://www.w3.org/1999/02/22-rdf-syntax-ns#">
   <cc:Work>
    <dc:type rdf:resource="http://purl.org/dc/dcmitype/StillImage"/>
    <dc:date>2021-07-14T14:55:31.817955</dc:date>
    <dc:format>image/svg+xml</dc:format>
    <dc:creator>
     <cc:Agent>
      <dc:title>Matplotlib v3.4.2, https://matplotlib.org/</dc:title>
     </cc:Agent>
    </dc:creator>
   </cc:Work>
  </rdf:RDF>
 </metadata>
 <defs>
  <style type="text/css">*{stroke-linecap:butt;stroke-linejoin:round;}</style>
 </defs>
 <g id="figure_1">
  <g id="patch_1">
   <path d="M 0 345.6 
L 460.8 345.6 
L 460.8 0 
L 0 0 
z
" style="fill:#ffffff;"/>
  </g>
  <g id="axes_1">
   <g id="patch_2">
    <path d="M 57.6 307.584 
L 414.72 307.584 
L 414.72 41.472 
L 57.6 41.472 
z
" style="fill:#ffffff;"/>
   </g>
   <g id="matplotlib.axis_1">
    <g id="xtick_1">
     <g id="line2d_1">
      <defs>
       <path d="M 0 0 
L 0 3.5 
" id="m04074a197c" style="stroke:#000000;stroke-width:0.8;"/>
      </defs>
      <g>
       <use style="stroke:#000000;stroke-width:0.8;" x="73.019057" xlink:href="#m04074a197c" y="307.584"/>
      </g>
     </g>
     <g id="text_1">
      <!-- 0 -->
      <g transform="translate(69.837807 322.182437)scale(0.1 -0.1)">
       <defs>
        <path d="M 2034 4250 
Q 1547 4250 1301 3770 
Q 1056 3291 1056 2328 
Q 1056 1369 1301 889 
Q 1547 409 2034 409 
Q 2525 409 2770 889 
Q 3016 1369 3016 2328 
Q 3016 3291 2770 3770 
Q 2525 4250 2034 4250 
z
M 2034 4750 
Q 2819 4750 3233 4129 
Q 3647 3509 3647 2328 
Q 3647 1150 3233 529 
Q 2819 -91 2034 -91 
Q 1250 -91 836 529 
Q 422 1150 422 2328 
Q 422 3509 836 4129 
Q 1250 4750 2034 4750 
z
" id="DejaVuSans-30" transform="scale(0.015625)"/>
       </defs>
       <use xlink:href="#DejaVuSans-30"/>
      </g>
     </g>
    </g>
    <g id="xtick_2">
     <g id="line2d_2">
      <g>
       <use style="stroke:#000000;stroke-width:0.8;" x="113.702584" xlink:href="#m04074a197c" y="307.584"/>
      </g>
     </g>
     <g id="text_2">
      <!-- 50 -->
      <g transform="translate(107.340084 322.182437)scale(0.1 -0.1)">
       <defs>
        <path d="M 691 4666 
L 3169 4666 
L 3169 4134 
L 1269 4134 
L 1269 2991 
Q 1406 3038 1543 3061 
Q 1681 3084 1819 3084 
Q 2600 3084 3056 2656 
Q 3513 2228 3513 1497 
Q 3513 744 3044 326 
Q 2575 -91 1722 -91 
Q 1428 -91 1123 -41 
Q 819 9 494 109 
L 494 744 
Q 775 591 1075 516 
Q 1375 441 1709 441 
Q 2250 441 2565 725 
Q 2881 1009 2881 1497 
Q 2881 1984 2565 2268 
Q 2250 2553 1709 2553 
Q 1456 2553 1204 2497 
Q 953 2441 691 2322 
L 691 4666 
z
" id="DejaVuSans-35" transform="scale(0.015625)"/>
       </defs>
       <use xlink:href="#DejaVuSans-35"/>
       <use x="63.623047" xlink:href="#DejaVuSans-30"/>
      </g>
     </g>
    </g>
    <g id="xtick_3">
     <g id="line2d_3">
      <g>
       <use style="stroke:#000000;stroke-width:0.8;" x="154.386111" xlink:href="#m04074a197c" y="307.584"/>
      </g>
     </g>
     <g id="text_3">
      <!-- 100 -->
      <g transform="translate(144.842361 322.182437)scale(0.1 -0.1)">
       <defs>
        <path d="M 794 531 
L 1825 531 
L 1825 4091 
L 703 3866 
L 703 4441 
L 1819 4666 
L 2450 4666 
L 2450 531 
L 3481 531 
L 3481 0 
L 794 0 
L 794 531 
z
" id="DejaVuSans-31" transform="scale(0.015625)"/>
       </defs>
       <use xlink:href="#DejaVuSans-31"/>
       <use x="63.623047" xlink:href="#DejaVuSans-30"/>
       <use x="127.246094" xlink:href="#DejaVuSans-30"/>
      </g>
     </g>
    </g>
    <g id="xtick_4">
     <g id="line2d_4">
      <g>
       <use style="stroke:#000000;stroke-width:0.8;" x="195.069638" xlink:href="#m04074a197c" y="307.584"/>
      </g>
     </g>
     <g id="text_4">
      <!-- 150 -->
      <g transform="translate(185.525888 322.182437)scale(0.1 -0.1)">
       <use xlink:href="#DejaVuSans-31"/>
       <use x="63.623047" xlink:href="#DejaVuSans-35"/>
       <use x="127.246094" xlink:href="#DejaVuSans-30"/>
      </g>
     </g>
    </g>
    <g id="xtick_5">
     <g id="line2d_5">
      <g>
       <use style="stroke:#000000;stroke-width:0.8;" x="235.753165" xlink:href="#m04074a197c" y="307.584"/>
      </g>
     </g>
     <g id="text_5">
      <!-- 200 -->
      <g transform="translate(226.209415 322.182437)scale(0.1 -0.1)">
       <defs>
        <path d="M 1228 531 
L 3431 531 
L 3431 0 
L 469 0 
L 469 531 
Q 828 903 1448 1529 
Q 2069 2156 2228 2338 
Q 2531 2678 2651 2914 
Q 2772 3150 2772 3378 
Q 2772 3750 2511 3984 
Q 2250 4219 1831 4219 
Q 1534 4219 1204 4116 
Q 875 4013 500 3803 
L 500 4441 
Q 881 4594 1212 4672 
Q 1544 4750 1819 4750 
Q 2544 4750 2975 4387 
Q 3406 4025 3406 3419 
Q 3406 3131 3298 2873 
Q 3191 2616 2906 2266 
Q 2828 2175 2409 1742 
Q 1991 1309 1228 531 
z
" id="DejaVuSans-32" transform="scale(0.015625)"/>
       </defs>
       <use xlink:href="#DejaVuSans-32"/>
       <use x="63.623047" xlink:href="#DejaVuSans-30"/>
       <use x="127.246094" xlink:href="#DejaVuSans-30"/>
      </g>
     </g>
    </g>
    <g id="xtick_6">
     <g id="line2d_6">
      <g>
       <use style="stroke:#000000;stroke-width:0.8;" x="276.436692" xlink:href="#m04074a197c" y="307.584"/>
      </g>
     </g>
     <g id="text_6">
      <!-- 250 -->
      <g transform="translate(266.892942 322.182437)scale(0.1 -0.1)">
       <use xlink:href="#DejaVuSans-32"/>
       <use x="63.623047" xlink:href="#DejaVuSans-35"/>
       <use x="127.246094" xlink:href="#DejaVuSans-30"/>
      </g>
     </g>
    </g>
    <g id="xtick_7">
     <g id="line2d_7">
      <g>
       <use style="stroke:#000000;stroke-width:0.8;" x="317.120219" xlink:href="#m04074a197c" y="307.584"/>
      </g>
     </g>
     <g id="text_7">
      <!-- 300 -->
      <g transform="translate(307.576469 322.182437)scale(0.1 -0.1)">
       <defs>
        <path d="M 2597 2516 
Q 3050 2419 3304 2112 
Q 3559 1806 3559 1356 
Q 3559 666 3084 287 
Q 2609 -91 1734 -91 
Q 1441 -91 1130 -33 
Q 819 25 488 141 
L 488 750 
Q 750 597 1062 519 
Q 1375 441 1716 441 
Q 2309 441 2620 675 
Q 2931 909 2931 1356 
Q 2931 1769 2642 2001 
Q 2353 2234 1838 2234 
L 1294 2234 
L 1294 2753 
L 1863 2753 
Q 2328 2753 2575 2939 
Q 2822 3125 2822 3475 
Q 2822 3834 2567 4026 
Q 2313 4219 1838 4219 
Q 1578 4219 1281 4162 
Q 984 4106 628 3988 
L 628 4550 
Q 988 4650 1302 4700 
Q 1616 4750 1894 4750 
Q 2613 4750 3031 4423 
Q 3450 4097 3450 3541 
Q 3450 3153 3228 2886 
Q 3006 2619 2597 2516 
z
" id="DejaVuSans-33" transform="scale(0.015625)"/>
       </defs>
       <use xlink:href="#DejaVuSans-33"/>
       <use x="63.623047" xlink:href="#DejaVuSans-30"/>
       <use x="127.246094" xlink:href="#DejaVuSans-30"/>
      </g>
     </g>
    </g>
    <g id="xtick_8">
     <g id="line2d_8">
      <g>
       <use style="stroke:#000000;stroke-width:0.8;" x="357.803746" xlink:href="#m04074a197c" y="307.584"/>
      </g>
     </g>
     <g id="text_8">
      <!-- 350 -->
      <g transform="translate(348.259996 322.182437)scale(0.1 -0.1)">
       <use xlink:href="#DejaVuSans-33"/>
       <use x="63.623047" xlink:href="#DejaVuSans-35"/>
       <use x="127.246094" xlink:href="#DejaVuSans-30"/>
      </g>
     </g>
    </g>
    <g id="xtick_9">
     <g id="line2d_9">
      <g>
       <use style="stroke:#000000;stroke-width:0.8;" x="398.487273" xlink:href="#m04074a197c" y="307.584"/>
      </g>
     </g>
     <g id="text_9">
      <!-- 400 -->
      <g transform="translate(388.943523 322.182437)scale(0.1 -0.1)">
       <defs>
        <path d="M 2419 4116 
L 825 1625 
L 2419 1625 
L 2419 4116 
z
M 2253 4666 
L 3047 4666 
L 3047 1625 
L 3713 1625 
L 3713 1100 
L 3047 1100 
L 3047 0 
L 2419 0 
L 2419 1100 
L 313 1100 
L 313 1709 
L 2253 4666 
z
" id="DejaVuSans-34" transform="scale(0.015625)"/>
       </defs>
       <use xlink:href="#DejaVuSans-34"/>
       <use x="63.623047" xlink:href="#DejaVuSans-30"/>
       <use x="127.246094" xlink:href="#DejaVuSans-30"/>
      </g>
     </g>
    </g>
    <g id="text_10">
     <!-- Epoch -->
     <g transform="translate(213.193594 339.659781)scale(0.15 -0.15)">
      <defs>
       <path d="M 628 4666 
L 3578 4666 
L 3578 4134 
L 1259 4134 
L 1259 2753 
L 3481 2753 
L 3481 2222 
L 1259 2222 
L 1259 531 
L 3634 531 
L 3634 0 
L 628 0 
L 628 4666 
z
" id="DejaVuSans-45" transform="scale(0.015625)"/>
       <path d="M 1159 525 
L 1159 -1331 
L 581 -1331 
L 581 3500 
L 1159 3500 
L 1159 2969 
Q 1341 3281 1617 3432 
Q 1894 3584 2278 3584 
Q 2916 3584 3314 3078 
Q 3713 2572 3713 1747 
Q 3713 922 3314 415 
Q 2916 -91 2278 -91 
Q 1894 -91 1617 61 
Q 1341 213 1159 525 
z
M 3116 1747 
Q 3116 2381 2855 2742 
Q 2594 3103 2138 3103 
Q 1681 3103 1420 2742 
Q 1159 2381 1159 1747 
Q 1159 1113 1420 752 
Q 1681 391 2138 391 
Q 2594 391 2855 752 
Q 3116 1113 3116 1747 
z
" id="DejaVuSans-70" transform="scale(0.015625)"/>
       <path d="M 1959 3097 
Q 1497 3097 1228 2736 
Q 959 2375 959 1747 
Q 959 1119 1226 758 
Q 1494 397 1959 397 
Q 2419 397 2687 759 
Q 2956 1122 2956 1747 
Q 2956 2369 2687 2733 
Q 2419 3097 1959 3097 
z
M 1959 3584 
Q 2709 3584 3137 3096 
Q 3566 2609 3566 1747 
Q 3566 888 3137 398 
Q 2709 -91 1959 -91 
Q 1206 -91 779 398 
Q 353 888 353 1747 
Q 353 2609 779 3096 
Q 1206 3584 1959 3584 
z
" id="DejaVuSans-6f" transform="scale(0.015625)"/>
       <path d="M 3122 3366 
L 3122 2828 
Q 2878 2963 2633 3030 
Q 2388 3097 2138 3097 
Q 1578 3097 1268 2742 
Q 959 2388 959 1747 
Q 959 1106 1268 751 
Q 1578 397 2138 397 
Q 2388 397 2633 464 
Q 2878 531 3122 666 
L 3122 134 
Q 2881 22 2623 -34 
Q 2366 -91 2075 -91 
Q 1284 -91 818 406 
Q 353 903 353 1747 
Q 353 2603 823 3093 
Q 1294 3584 2113 3584 
Q 2378 3584 2631 3529 
Q 2884 3475 3122 3366 
z
" id="DejaVuSans-63" transform="scale(0.015625)"/>
       <path d="M 3513 2113 
L 3513 0 
L 2938 0 
L 2938 2094 
Q 2938 2591 2744 2837 
Q 2550 3084 2163 3084 
Q 1697 3084 1428 2787 
Q 1159 2491 1159 1978 
L 1159 0 
L 581 0 
L 581 4863 
L 1159 4863 
L 1159 2956 
Q 1366 3272 1645 3428 
Q 1925 3584 2291 3584 
Q 2894 3584 3203 3211 
Q 3513 2838 3513 2113 
z
" id="DejaVuSans-68" transform="scale(0.015625)"/>
      </defs>
      <use xlink:href="#DejaVuSans-45"/>
      <use x="63.183594" xlink:href="#DejaVuSans-70"/>
      <use x="126.660156" xlink:href="#DejaVuSans-6f"/>
      <use x="187.841797" xlink:href="#DejaVuSans-63"/>
      <use x="242.822266" xlink:href="#DejaVuSans-68"/>
     </g>
    </g>
   </g>
   <g id="matplotlib.axis_2">
    <g id="ytick_1">
     <g id="line2d_10">
      <defs>
       <path d="M 0 0 
L -3.5 0 
" id="m9858c5401d" style="stroke:#000000;stroke-width:0.8;"/>
      </defs>
      <g>
       <use style="stroke:#000000;stroke-width:0.8;" x="57.6" xlink:href="#m9858c5401d" y="305.060281"/>
      </g>
     </g>
     <g id="text_11">
      <!-- 0.0 -->
      <g transform="translate(34.696875 308.8595)scale(0.1 -0.1)">
       <defs>
        <path d="M 684 794 
L 1344 794 
L 1344 0 
L 684 0 
L 684 794 
z
" id="DejaVuSans-2e" transform="scale(0.015625)"/>
       </defs>
       <use xlink:href="#DejaVuSans-30"/>
       <use x="63.623047" xlink:href="#DejaVuSans-2e"/>
       <use x="95.410156" xlink:href="#DejaVuSans-30"/>
      </g>
     </g>
    </g>
    <g id="ytick_2">
     <g id="line2d_11">
      <g>
       <use style="stroke:#000000;stroke-width:0.8;" x="57.6" xlink:href="#m9858c5401d" y="264.946385"/>
      </g>
     </g>
     <g id="text_12">
      <!-- 0.2 -->
      <g transform="translate(34.696875 268.745604)scale(0.1 -0.1)">
       <use xlink:href="#DejaVuSans-30"/>
       <use x="63.623047" xlink:href="#DejaVuSans-2e"/>
       <use x="95.410156" xlink:href="#DejaVuSans-32"/>
      </g>
     </g>
    </g>
    <g id="ytick_3">
     <g id="line2d_12">
      <g>
       <use style="stroke:#000000;stroke-width:0.8;" x="57.6" xlink:href="#m9858c5401d" y="224.832489"/>
      </g>
     </g>
     <g id="text_13">
      <!-- 0.4 -->
      <g transform="translate(34.696875 228.631708)scale(0.1 -0.1)">
       <use xlink:href="#DejaVuSans-30"/>
       <use x="63.623047" xlink:href="#DejaVuSans-2e"/>
       <use x="95.410156" xlink:href="#DejaVuSans-34"/>
      </g>
     </g>
    </g>
    <g id="ytick_4">
     <g id="line2d_13">
      <g>
       <use style="stroke:#000000;stroke-width:0.8;" x="57.6" xlink:href="#m9858c5401d" y="184.718593"/>
      </g>
     </g>
     <g id="text_14">
      <!-- 0.6 -->
      <g transform="translate(34.696875 188.517812)scale(0.1 -0.1)">
       <defs>
        <path d="M 2113 2584 
Q 1688 2584 1439 2293 
Q 1191 2003 1191 1497 
Q 1191 994 1439 701 
Q 1688 409 2113 409 
Q 2538 409 2786 701 
Q 3034 994 3034 1497 
Q 3034 2003 2786 2293 
Q 2538 2584 2113 2584 
z
M 3366 4563 
L 3366 3988 
Q 3128 4100 2886 4159 
Q 2644 4219 2406 4219 
Q 1781 4219 1451 3797 
Q 1122 3375 1075 2522 
Q 1259 2794 1537 2939 
Q 1816 3084 2150 3084 
Q 2853 3084 3261 2657 
Q 3669 2231 3669 1497 
Q 3669 778 3244 343 
Q 2819 -91 2113 -91 
Q 1303 -91 875 529 
Q 447 1150 447 2328 
Q 447 3434 972 4092 
Q 1497 4750 2381 4750 
Q 2619 4750 2861 4703 
Q 3103 4656 3366 4563 
z
" id="DejaVuSans-36" transform="scale(0.015625)"/>
       </defs>
       <use xlink:href="#DejaVuSans-30"/>
       <use x="63.623047" xlink:href="#DejaVuSans-2e"/>
       <use x="95.410156" xlink:href="#DejaVuSans-36"/>
      </g>
     </g>
    </g>
    <g id="ytick_5">
     <g id="line2d_14">
      <g>
       <use style="stroke:#000000;stroke-width:0.8;" x="57.6" xlink:href="#m9858c5401d" y="144.604697"/>
      </g>
     </g>
     <g id="text_15">
      <!-- 0.8 -->
      <g transform="translate(34.696875 148.403916)scale(0.1 -0.1)">
       <defs>
        <path d="M 2034 2216 
Q 1584 2216 1326 1975 
Q 1069 1734 1069 1313 
Q 1069 891 1326 650 
Q 1584 409 2034 409 
Q 2484 409 2743 651 
Q 3003 894 3003 1313 
Q 3003 1734 2745 1975 
Q 2488 2216 2034 2216 
z
M 1403 2484 
Q 997 2584 770 2862 
Q 544 3141 544 3541 
Q 544 4100 942 4425 
Q 1341 4750 2034 4750 
Q 2731 4750 3128 4425 
Q 3525 4100 3525 3541 
Q 3525 3141 3298 2862 
Q 3072 2584 2669 2484 
Q 3125 2378 3379 2068 
Q 3634 1759 3634 1313 
Q 3634 634 3220 271 
Q 2806 -91 2034 -91 
Q 1263 -91 848 271 
Q 434 634 434 1313 
Q 434 1759 690 2068 
Q 947 2378 1403 2484 
z
M 1172 3481 
Q 1172 3119 1398 2916 
Q 1625 2713 2034 2713 
Q 2441 2713 2670 2916 
Q 2900 3119 2900 3481 
Q 2900 3844 2670 4047 
Q 2441 4250 2034 4250 
Q 1625 4250 1398 4047 
Q 1172 3844 1172 3481 
z
" id="DejaVuSans-38" transform="scale(0.015625)"/>
       </defs>
       <use xlink:href="#DejaVuSans-30"/>
       <use x="63.623047" xlink:href="#DejaVuSans-2e"/>
       <use x="95.410156" xlink:href="#DejaVuSans-38"/>
      </g>
     </g>
    </g>
    <g id="ytick_6">
     <g id="line2d_15">
      <g>
       <use style="stroke:#000000;stroke-width:0.8;" x="57.6" xlink:href="#m9858c5401d" y="104.490801"/>
      </g>
     </g>
     <g id="text_16">
      <!-- 1.0 -->
      <g transform="translate(34.696875 108.29002)scale(0.1 -0.1)">
       <use xlink:href="#DejaVuSans-31"/>
       <use x="63.623047" xlink:href="#DejaVuSans-2e"/>
       <use x="95.410156" xlink:href="#DejaVuSans-30"/>
      </g>
     </g>
    </g>
    <g id="ytick_7">
     <g id="line2d_16">
      <g>
       <use style="stroke:#000000;stroke-width:0.8;" x="57.6" xlink:href="#m9858c5401d" y="64.376905"/>
      </g>
     </g>
     <g id="text_17">
      <!-- 1.2 -->
      <g transform="translate(34.696875 68.176123)scale(0.1 -0.1)">
       <use xlink:href="#DejaVuSans-31"/>
       <use x="63.623047" xlink:href="#DejaVuSans-2e"/>
       <use x="95.410156" xlink:href="#DejaVuSans-32"/>
      </g>
     </g>
    </g>
    <g id="text_18">
     <!-- Loss -->
     <g transform="translate(27.577344 190.978781)rotate(-90)scale(0.15 -0.15)">
      <defs>
       <path d="M 628 4666 
L 1259 4666 
L 1259 531 
L 3531 531 
L 3531 0 
L 628 0 
L 628 4666 
z
" id="DejaVuSans-4c" transform="scale(0.015625)"/>
       <path d="M 2834 3397 
L 2834 2853 
Q 2591 2978 2328 3040 
Q 2066 3103 1784 3103 
Q 1356 3103 1142 2972 
Q 928 2841 928 2578 
Q 928 2378 1081 2264 
Q 1234 2150 1697 2047 
L 1894 2003 
Q 2506 1872 2764 1633 
Q 3022 1394 3022 966 
Q 3022 478 2636 193 
Q 2250 -91 1575 -91 
Q 1294 -91 989 -36 
Q 684 19 347 128 
L 347 722 
Q 666 556 975 473 
Q 1284 391 1588 391 
Q 1994 391 2212 530 
Q 2431 669 2431 922 
Q 2431 1156 2273 1281 
Q 2116 1406 1581 1522 
L 1381 1569 
Q 847 1681 609 1914 
Q 372 2147 372 2553 
Q 372 3047 722 3315 
Q 1072 3584 1716 3584 
Q 2034 3584 2315 3537 
Q 2597 3491 2834 3397 
z
" id="DejaVuSans-73" transform="scale(0.015625)"/>
      </defs>
      <use xlink:href="#DejaVuSans-4c"/>
      <use x="53.962891" xlink:href="#DejaVuSans-6f"/>
      <use x="115.144531" xlink:href="#DejaVuSans-73"/>
      <use x="167.244141" xlink:href="#DejaVuSans-73"/>
     </g>
    </g>
   </g>
   <g id="line2d_17">
    <path clip-path="url(#p959fb411e5)" d="M 73.832727 209.875404 
L 74.646398 202.868487 
L 75.460068 225.7729 
L 76.273739 217.766018 
L 77.087409 223.467587 
L 77.90108 212.119565 
L 78.714751 224.370956 
L 79.528421 214.832185 
L 80.342092 222.168824 
L 81.155762 223.148401 
L 81.969433 220.268668 
L 82.783103 213.649624 
L 83.596774 219.594662 
L 84.410444 221.088904 
L 85.224115 224.280679 
L 86.037785 224.498472 
L 86.851456 227.954851 
L 87.665126 221.896025 
L 88.478797 221.494257 
L 89.292468 217.686617 
L 90.106138 226.606903 
L 90.919809 212.438 
L 91.733479 216.772525 
L 92.54715 217.866449 
L 93.36082 221.705099 
L 94.174491 217.692759 
L 94.988161 220.232617 
L 95.801832 223.263885 
L 96.615502 219.355792 
L 97.429173 221.251033 
L 98.242843 210.41042 
L 99.056514 216.512369 
L 99.870185 211.959992 
L 100.683855 221.009769 
L 101.497526 208.872671 
L 102.311196 217.132514 
L 103.124867 219.577116 
L 103.938537 214.761281 
L 104.752208 223.632892 
L 105.565878 217.903918 
L 106.379549 216.440246 
L 107.193219 230.148234 
L 108.00689 223.267075 
L 108.82056 211.019446 
L 109.634231 215.435683 
L 110.447902 223.495036 
L 111.261572 221.097066 
L 112.075243 224.843662 
L 112.888913 217.668281 
L 113.702584 211.666886 
L 114.516254 213.663911 
L 115.329925 222.384957 
L 116.143595 218.695465 
L 116.957266 222.428743 
L 117.770936 227.043545 
L 118.584607 223.61936 
L 119.398278 212.301925 
L 120.211948 219.767773 
L 121.025619 219.752599 
L 121.839289 221.922965 
L 122.65296 239.317258 
L 123.46663 224.777722 
L 124.280301 231.064386 
L 125.093971 223.593477 
L 125.907642 234.494847 
L 126.721312 227.665429 
L 127.534983 235.26327 
L 128.348653 232.571034 
L 129.162324 230.382602 
L 129.975995 241.86396 
L 130.789665 230.662475 
L 131.603336 234.822627 
L 132.417006 222.240006 
L 133.230677 238.474603 
L 134.044347 236.063709 
L 134.858018 237.478132 
L 135.671688 243.35628 
L 136.485359 242.93858 
L 137.299029 237.995621 
L 138.1127 238.579874 
L 138.92637 244.544173 
L 139.740041 231.40348 
L 140.553712 240.033604 
L 141.367382 238.713061 
L 142.181053 243.684275 
L 142.994723 244.978661 
L 143.808394 238.696027 
L 144.622064 249.863491 
L 145.435735 244.370831 
L 146.249405 243.055992 
L 147.063076 242.822154 
L 147.876746 236.054704 
L 148.690417 246.353321 
L 149.504087 232.140484 
L 150.317758 245.228914 
L 151.131429 236.60865 
L 151.945099 240.741727 
L 152.75877 240.508046 
L 153.57244 245.075792 
L 154.386111 251.015759 
L 155.199781 243.234029 
L 156.013452 253.019559 
L 156.827122 255.223679 
L 157.640793 247.292487 
L 158.454463 240.86073 
L 160.081805 250.941833 
L 160.895475 247.782576 
L 161.709146 253.851325 
L 162.522816 251.078685 
L 163.336487 252.226547 
L 164.150157 255.931417 
L 164.963828 258.254744 
L 165.777498 249.797064 
L 166.591169 250.070445 
L 167.404839 257.415622 
L 168.21851 245.618698 
L 169.03218 252.314461 
L 169.845851 250.443364 
L 170.659522 259.718339 
L 171.473192 252.974899 
L 172.286863 252.47604 
L 173.100533 259.850754 
L 173.914204 251.768982 
L 174.727874 253.208044 
L 175.541545 260.201807 
L 176.355215 261.98294 
L 177.168886 250.692308 
L 177.982556 260.685714 
L 178.796227 261.905534 
L 179.609897 263.70122 
L 180.423568 257.928547 
L 181.237239 256.291964 
L 182.050909 261.727462 
L 182.86458 256.412314 
L 183.67825 261.806533 
L 184.491921 262.47114 
L 185.305591 266.143843 
L 186.119262 261.510427 
L 186.932932 261.891238 
L 187.746603 267.954163 
L 188.560273 262.034867 
L 189.373944 259.313785 
L 190.187614 259.910198 
L 191.001285 267.604911 
L 191.814956 267.742313 
L 192.628626 264.254863 
L 193.442297 262.796787 
L 194.255967 261.72052 
L 195.069638 268.180755 
L 195.883308 263.598121 
L 196.696979 260.705469 
L 197.510649 268.879568 
L 198.32432 267.525702 
L 199.13799 264.481755 
L 199.951661 268.081928 
L 200.765332 270.247993 
L 201.579002 268.090316 
L 202.392673 260.419436 
L 203.206343 271.958084 
L 204.020014 268.696158 
L 204.833684 270.149769 
L 205.647355 265.746918 
L 206.461025 264.191864 
L 207.274696 274.88995 
L 208.088366 267.041575 
L 208.902037 269.331856 
L 209.715707 266.666712 
L 210.529378 270.104185 
L 211.343049 267.648684 
L 212.156719 267.017894 
L 212.97039 268.777283 
L 213.78406 265.863334 
L 214.597731 273.648655 
L 215.411401 270.068451 
L 216.225072 263.431694 
L 217.038742 264.800721 
L 217.852413 276.540054 
L 218.666083 276.712931 
L 219.479754 266.928243 
L 220.293424 275.411188 
L 221.107095 270.3063 
L 221.920766 268.934096 
L 222.734436 270.937233 
L 223.548107 271.944381 
L 224.361777 270.477051 
L 225.175448 267.403144 
L 225.989118 276.259675 
L 226.802789 277.809621 
L 227.616459 274.058202 
L 228.43013 277.569175 
L 229.2438 278.609226 
L 230.057471 273.589543 
L 230.871141 270.685594 
L 231.684812 265.825348 
L 232.498483 269.353474 
L 233.312153 273.815665 
L 234.125824 273.757436 
L 234.939494 274.378052 
L 235.753165 274.534548 
L 236.566835 270.706102 
L 237.380506 277.342882 
L 238.194176 277.988723 
L 239.007847 270.06406 
L 239.821517 274.295327 
L 240.635188 267.441733 
L 241.448859 273.855046 
L 242.262529 273.068552 
L 243.0762 274.338897 
L 243.88987 271.911475 
L 244.703541 282.896613 
L 245.517211 275.645135 
L 246.330882 273.884864 
L 247.144552 269.657826 
L 247.958223 276.614422 
L 248.771893 266.569523 
L 249.585564 271.408085 
L 250.399234 274.154597 
L 251.212905 276.452819 
L 252.026576 276.485198 
L 252.840246 278.966643 
L 253.653917 277.852665 
L 254.467587 280.19923 
L 255.281258 280.2675 
L 256.094928 278.851934 
L 256.908599 274.162096 
L 257.722269 277.702962 
L 258.53594 271.45286 
L 259.34961 278.303941 
L 260.163281 276.155007 
L 260.976951 284.027363 
L 261.790622 281.35894 
L 262.604293 279.195132 
L 263.417963 278.387825 
L 264.231634 279.294753 
L 265.045304 282.917276 
L 265.858975 279.720469 
L 266.672645 270.131454 
L 267.486316 283.77517 
L 268.299986 280.752463 
L 269.113657 286.589797 
L 269.927327 280.603802 
L 270.740998 276.974734 
L 271.554668 281.596079 
L 272.368339 280.937427 
L 273.18201 281.465648 
L 273.99568 275.815903 
L 274.809351 268.375889 
L 275.623021 286.500215 
L 276.436692 280.262641 
L 277.250362 277.306079 
L 278.064033 276.026788 
L 278.877703 280.132822 
L 279.691374 276.869645 
L 280.505044 284.51447 
L 281.318715 281.319066 
L 282.132386 279.603694 
L 282.946056 280.433458 
L 283.759727 277.646535 
L 284.573397 283.127781 
L 285.387068 285.277351 
L 286.200738 281.572917 
L 287.014409 287.595474 
L 287.828079 280.788453 
L 288.64175 282.19815 
L 289.45542 281.835361 
L 290.269091 281.258165 
L 291.082761 279.511106 
L 291.896432 288.22079 
L 292.710103 280.685362 
L 293.523773 279.889973 
L 294.337444 285.583899 
L 295.151114 283.17917 
L 295.964785 276.150089 
L 296.778455 283.99127 
L 297.592126 283.442212 
L 298.405796 281.853182 
L 299.219467 279.85007 
L 300.033137 280.295328 
L 300.846808 286.325839 
L 301.660478 284.430098 
L 302.474149 284.656216 
L 303.28782 287.38576 
L 304.10149 283.415099 
L 304.915161 282.449997 
L 305.728831 284.025632 
L 306.542502 284.550407 
L 307.356172 287.582968 
L 308.169843 283.952696 
L 308.983513 285.951092 
L 309.797184 287.296453 
L 310.610854 281.13079 
L 311.424525 284.822098 
L 312.238195 284.722992 
L 313.051866 281.415535 
L 313.865537 283.21359 
L 314.679207 284.137019 
L 315.492878 280.441355 
L 316.306548 288.818555 
L 317.120219 282.040089 
L 317.933889 284.984671 
L 318.74756 288.912542 
L 319.56123 285.884671 
L 320.374901 287.609227 
L 321.188571 287.092817 
L 322.002242 283.724608 
L 322.815913 282.522665 
L 323.629583 282.774286 
L 324.443254 286.01997 
L 326.070595 284.272433 
L 326.884265 282.076437 
L 328.511606 287.971003 
L 329.325277 280.645573 
L 330.138947 290.655932 
L 330.952618 284.834221 
L 332.579959 286.902878 
L 333.39363 287.06088 
L 334.2073 288.289253 
L 335.020971 286.861193 
L 335.834641 288.19028 
L 336.648312 285.868605 
L 337.461982 284.649861 
L 338.275653 280.612505 
L 339.089323 286.945325 
L 339.902994 282.325117 
L 340.716664 292.615196 
L 341.530335 281.376606 
L 342.344005 294.393263 
L 343.157676 290.063481 
L 343.971347 280.093245 
L 344.785017 291.407706 
L 345.598688 285.016322 
L 346.412358 285.39095 
L 347.226029 282.240846 
L 348.039699 292.642084 
L 348.85337 292.570081 
L 349.66704 286.333103 
L 350.480711 289.068577 
L 351.294381 289.580953 
L 352.108052 292.82875 
L 352.921722 286.784407 
L 353.735393 292.847657 
L 354.549064 290.11975 
L 355.362734 283.750073 
L 356.176405 287.803384 
L 356.990075 283.615072 
L 357.803746 290.009562 
L 358.617416 285.512062 
L 359.431087 285.840171 
L 360.244757 282.513575 
L 361.058428 285.994245 
L 361.872098 289.994226 
L 362.685769 288.155881 
L 363.49944 293.900469 
L 364.31311 286.710092 
L 365.126781 284.572645 
L 365.940451 286.53581 
L 366.754122 288.875425 
L 367.567792 292.842639 
L 368.381463 288.446796 
L 369.195133 288.899444 
L 370.008804 286.919488 
L 370.822474 290.696753 
L 371.636145 289.773842 
L 372.449815 283.384087 
L 373.263486 288.680059 
L 374.077157 292.000396 
L 374.890827 291.436907 
L 375.704498 284.479798 
L 376.518168 285.21905 
L 377.331839 295.488 
L 378.145509 292.985924 
L 378.95918 285.669809 
L 379.77285 286.193346 
L 380.586521 283.736441 
L 381.400191 290.011481 
L 382.213862 293.936296 
L 383.027532 291.209416 
L 383.841203 281.674629 
L 384.654874 288.696192 
L 385.468544 292.825946 
L 386.282215 291.401707 
L 387.095885 287.987786 
L 387.909556 286.643765 
L 388.723226 290.80678 
L 389.536897 280.961283 
L 390.350567 283.595267 
L 391.164238 289.209474 
L 391.977908 288.638924 
L 392.791579 283.187377 
L 394.41892 292.490236 
L 395.232591 287.270251 
L 396.859932 290.776523 
L 397.673602 290.257504 
L 398.487273 288.229994 
L 398.487273 288.229994 
" style="fill:none;stroke:#1f77b4;stroke-linecap:square;stroke-width:1.5;"/>
   </g>
   <g id="line2d_18">
    <path clip-path="url(#p959fb411e5)" d="M 73.832727 70.578394 
L 74.646398 73.196916 
L 75.460068 68.495477 
L 76.273739 73.777183 
L 77.087409 72.575719 
L 77.90108 70.832141 
L 78.714751 63.904624 
L 79.528421 60.32837 
L 80.342092 76.885592 
L 81.155762 71.434484 
L 81.969433 83.767262 
L 82.783103 73.905747 
L 83.596774 62.502307 
L 84.410444 74.425813 
L 85.224115 69.283549 
L 86.037785 80.66887 
L 86.851456 82.247125 
L 87.665126 73.04713 
L 88.478797 67.04629 
L 89.292468 71.197624 
L 90.106138 66.581098 
L 90.919809 75.503821 
L 91.733479 69.836991 
L 92.54715 82.446719 
L 93.36082 70.529127 
L 94.174491 77.048005 
L 94.988161 73.82591 
L 95.801832 64.814622 
L 96.615502 76.069883 
L 97.429173 63.592484 
L 98.242843 70.087253 
L 99.056514 82.143453 
L 99.870185 69.500739 
L 100.683855 69.152888 
L 101.497526 74.25468 
L 102.311196 76.572193 
L 103.124867 67.374369 
L 103.938537 83.86464 
L 104.752208 69.41526 
L 105.565878 78.744923 
L 106.379549 76.952092 
L 107.193219 71.61135 
L 108.00689 72.512575 
L 108.82056 71.177552 
L 109.634231 70.324713 
L 110.447902 76.013044 
L 111.261572 73.469964 
L 112.075243 69.434147 
L 112.888913 71.498036 
L 113.702584 67.344286 
L 114.516254 53.568 
L 115.329925 68.900643 
L 116.143595 74.838261 
L 116.957266 79.912201 
L 117.770936 73.01183 
L 118.584607 75.832453 
L 119.398278 81.294291 
L 120.211948 93.425073 
L 121.025619 87.331589 
L 121.839289 93.168094 
L 122.65296 68.361913 
L 123.46663 98.556858 
L 124.280301 95.778805 
L 125.093971 96.468432 
L 125.907642 98.861008 
L 126.721312 102.007806 
L 127.534983 106.642036 
L 128.348653 104.708402 
L 129.162324 94.720722 
L 129.975995 110.061487 
L 130.789665 106.278522 
L 131.603336 92.375649 
L 132.417006 105.367302 
L 133.230677 106.320202 
L 134.044347 114.843101 
L 134.858018 110.710908 
L 135.671688 123.477188 
L 136.485359 111.255307 
L 137.299029 111.441035 
L 138.1127 121.26089 
L 138.92637 111.854689 
L 139.740041 121.612716 
L 140.553712 115.407201 
L 141.367382 128.838739 
L 142.181053 126.666945 
L 142.994723 118.683018 
L 143.808394 125.008233 
L 144.622064 114.375132 
L 145.435735 119.527165 
L 146.249405 120.506893 
L 147.063076 118.25386 
L 147.876746 119.696675 
L 148.690417 131.071192 
L 149.504087 117.074223 
L 150.317758 130.861864 
L 151.945099 118.932051 
L 152.75877 122.45477 
L 153.57244 136.214964 
L 154.386111 134.315244 
L 155.199781 141.219489 
L 156.013452 135.364873 
L 156.827122 137.385537 
L 157.640793 123.899313 
L 158.454463 137.946219 
L 159.268134 131.364306 
L 160.081805 144.355921 
L 160.895475 147.555462 
L 161.709146 143.751327 
L 162.522816 141.071237 
L 163.336487 139.618928 
L 164.150157 125.907619 
L 164.963828 127.684656 
L 165.777498 137.356945 
L 166.591169 143.067745 
L 167.404839 130.297476 
L 168.21851 139.82336 
L 169.03218 144.683808 
L 170.659522 132.265633 
L 171.473192 146.538935 
L 172.286863 147.614615 
L 173.100533 150.978352 
L 173.914204 135.943552 
L 174.727874 152.770512 
L 175.541545 144.764879 
L 176.355215 148.67024 
L 177.168886 150.033741 
L 177.982556 140.422635 
L 178.796227 149.250616 
L 179.609897 143.501932 
L 180.423568 156.129547 
L 181.237239 164.341835 
L 182.050909 155.713307 
L 182.86458 152.825895 
L 183.67825 161.879981 
L 184.491921 151.605866 
L 185.305591 147.92033 
L 186.119262 155.049821 
L 186.932932 149.137099 
L 187.746603 135.531866 
L 188.560273 153.725244 
L 189.373944 158.219668 
L 190.187614 150.830262 
L 191.001285 158.388931 
L 191.814956 154.754332 
L 192.628626 153.805068 
L 193.442297 153.261314 
L 194.255967 150.863743 
L 195.069638 156.182206 
L 195.883308 151.056214 
L 196.696979 160.54587 
L 197.510649 154.479849 
L 198.32432 153.35373 
L 199.13799 160.447166 
L 199.951661 155.022343 
L 200.765332 123.055194 
L 201.579002 157.300078 
L 202.392673 161.040609 
L 203.206343 161.452952 
L 204.020014 161.111431 
L 204.833684 144.729226 
L 205.647355 159.007734 
L 206.461025 160.667871 
L 207.274696 173.366171 
L 208.088366 156.196416 
L 208.902037 155.993302 
L 209.715707 162.414485 
L 210.529378 160.582858 
L 212.156719 168.218587 
L 212.97039 164.243118 
L 213.78406 155.172165 
L 214.597731 164.507745 
L 215.411401 164.275035 
L 216.225072 145.903477 
L 217.038742 159.981343 
L 217.852413 160.238861 
L 218.666083 159.18883 
L 219.479754 161.478435 
L 220.293424 163.331134 
L 221.107095 139.5979 
L 221.920766 167.981464 
L 222.734436 145.962015 
L 223.548107 157.273207 
L 224.361777 152.483456 
L 225.175448 161.709525 
L 225.989118 155.592222 
L 226.802789 159.167548 
L 227.616459 147.407651 
L 228.43013 161.657769 
L 229.2438 157.865336 
L 230.057471 145.783845 
L 230.871141 153.293996 
L 231.684812 153.775416 
L 232.498483 157.479769 
L 233.312153 169.566574 
L 234.125824 159.002074 
L 234.939494 141.765503 
L 235.753165 161.56047 
L 236.566835 147.914554 
L 237.380506 158.891849 
L 238.194176 162.254649 
L 239.007847 150.721676 
L 239.821517 164.291281 
L 240.635188 157.255972 
L 241.448859 158.156168 
L 242.262529 161.030115 
L 243.0762 158.145974 
L 243.88987 158.987382 
L 244.703541 154.28595 
L 245.517211 153.715119 
L 246.330882 159.507869 
L 247.144552 162.235983 
L 247.958223 145.902014 
L 248.771893 168.168911 
L 249.585564 147.623502 
L 250.399234 168.965289 
L 251.212905 151.620514 
L 252.026576 166.472031 
L 252.840246 171.268034 
L 253.653917 155.669552 
L 254.467587 159.416882 
L 255.281258 149.930393 
L 256.094928 161.293953 
L 256.908599 157.380621 
L 257.722269 165.165676 
L 258.53594 149.448993 
L 259.34961 166.304359 
L 260.163281 153.180252 
L 260.976951 157.415505 
L 261.790622 172.787106 
L 262.604293 168.27854 
L 263.417963 153.608268 
L 264.231634 133.742246 
L 265.045304 139.370581 
L 265.858975 167.194866 
L 266.672645 138.000011 
L 267.486316 149.190169 
L 268.299986 153.012423 
L 269.113657 135.260699 
L 269.927327 140.343578 
L 270.740998 154.695821 
L 271.554668 160.28327 
L 272.368339 173.004078 
L 273.18201 151.645745 
L 273.99568 166.194208 
L 274.809351 147.140814 
L 275.623021 156.952274 
L 276.436692 169.961685 
L 277.250362 171.427466 
L 278.064033 156.862817 
L 278.877703 167.394589 
L 279.691374 168.467008 
L 280.505044 167.320369 
L 281.318715 170.65002 
L 282.132386 165.972461 
L 282.946056 170.685919 
L 283.759727 168.001482 
L 284.573397 158.171127 
L 285.387068 158.525864 
L 286.200738 163.744112 
L 287.014409 157.323316 
L 287.828079 162.251775 
L 288.64175 151.828827 
L 289.45542 163.734035 
L 290.269091 157.150401 
L 291.896432 170.834464 
L 292.710103 139.105747 
L 293.523773 159.15774 
L 294.337444 157.22541 
L 295.151114 168.589316 
L 295.964785 146.698414 
L 296.778455 162.085663 
L 298.405796 153.187062 
L 299.219467 173.300645 
L 300.033137 168.653203 
L 300.846808 161.360142 
L 301.660478 164.27949 
L 302.474149 161.768395 
L 303.28782 153.931481 
L 304.10149 164.72019 
L 304.915161 137.246946 
L 305.728831 163.954811 
L 306.542502 162.44922 
L 307.356172 164.459705 
L 308.169843 151.639799 
L 308.983513 154.251446 
L 309.797184 136.580936 
L 310.610854 145.842342 
L 311.424525 146.254439 
L 312.238195 159.681712 
L 313.051866 160.904035 
L 313.865537 159.043214 
L 314.679207 149.027288 
L 315.492878 141.877479 
L 316.306548 139.476872 
L 317.120219 164.077682 
L 317.933889 171.850638 
L 318.74756 156.264103 
L 319.56123 148.717082 
L 320.374901 154.929888 
L 321.188571 159.769863 
L 322.002242 143.067676 
L 322.815913 155.887891 
L 323.629583 165.776034 
L 324.443254 153.749518 
L 325.256924 150.774657 
L 326.070595 163.647011 
L 326.884265 152.487692 
L 327.697936 172.768739 
L 328.511606 172.902098 
L 329.325277 154.57825 
L 330.138947 162.878578 
L 330.952618 168.930099 
L 331.766288 158.363726 
L 332.579959 154.771885 
L 333.39363 150.478458 
L 334.2073 162.752825 
L 335.020971 146.83098 
L 335.834641 163.757692 
L 336.648312 136.961009 
L 337.461982 150.589552 
L 338.275653 161.690961 
L 339.089323 158.921096 
L 339.902994 163.897723 
L 340.716664 129.922008 
L 341.530335 173.55469 
L 342.344005 156.635231 
L 343.157676 159.757527 
L 343.971347 154.227855 
L 344.785017 141.766365 
L 345.598688 140.035155 
L 346.412358 168.286097 
L 347.226029 163.05964 
L 348.039699 130.243686 
L 348.85337 146.185532 
L 349.66704 140.160857 
L 350.480711 130.4025 
L 351.294381 157.933215 
L 352.108052 141.006051 
L 352.921722 152.907777 
L 353.735393 162.354011 
L 354.549064 154.073292 
L 355.362734 166.896778 
L 356.176405 152.086352 
L 356.990075 168.630285 
L 357.803746 168.310244 
L 358.617416 172.962785 
L 359.431087 131.105402 
L 360.244757 175.299682 
L 361.058428 142.74746 
L 361.872098 167.142242 
L 362.685769 157.711303 
L 363.49944 138.245597 
L 364.31311 136.210027 
L 365.126781 163.571095 
L 365.940451 151.7276 
L 366.754122 165.921348 
L 367.567792 161.812846 
L 368.381463 167.900733 
L 369.195133 154.876551 
L 370.008804 157.30132 
L 370.822474 164.839523 
L 371.636145 157.037766 
L 372.449815 162.874611 
L 373.263486 158.881676 
L 374.077157 165.785785 
L 374.890827 163.37537 
L 375.704498 166.715572 
L 376.518168 176.232388 
L 378.145509 143.551682 
L 378.95918 157.658266 
L 379.77285 144.919454 
L 380.586521 162.738003 
L 381.400191 165.038873 
L 382.213862 165.046503 
L 383.027532 171.651499 
L 383.841203 168.016948 
L 384.654874 161.366027 
L 385.468544 164.44715 
L 386.282215 166.881364 
L 387.095885 144.026915 
L 387.909556 145.609602 
L 388.723226 168.711547 
L 389.536897 152.361948 
L 390.350567 160.857022 
L 391.164238 162.218505 
L 391.977908 173.252149 
L 392.791579 156.506409 
L 393.605249 170.483438 
L 394.41892 157.923848 
L 395.232591 151.916389 
L 396.046261 161.152593 
L 396.859932 161.356846 
L 397.673602 140.033407 
L 398.487273 156.199499 
L 398.487273 156.199499 
" style="fill:none;stroke:#ff7f0e;stroke-linecap:square;stroke-width:1.5;"/>
   </g>
   <g id="patch_3">
    <path d="M 57.6 307.584 
L 57.6 41.472 
" style="fill:none;stroke:#000000;stroke-linecap:square;stroke-linejoin:miter;stroke-width:0.8;"/>
   </g>
   <g id="patch_4">
    <path d="M 414.72 307.584 
L 414.72 41.472 
" style="fill:none;stroke:#000000;stroke-linecap:square;stroke-linejoin:miter;stroke-width:0.8;"/>
   </g>
   <g id="patch_5">
    <path d="M 57.6 307.584 
L 414.72 307.584 
" style="fill:none;stroke:#000000;stroke-linecap:square;stroke-linejoin:miter;stroke-width:0.8;"/>
   </g>
   <g id="patch_6">
    <path d="M 57.6 41.472 
L 414.72 41.472 
" style="fill:none;stroke:#000000;stroke-linecap:square;stroke-linejoin:miter;stroke-width:0.8;"/>
   </g>
   <g id="legend_1">
    <g id="patch_7">
     <path d="M 303.845 78.82825 
L 407.72 78.82825 
Q 409.72 78.82825 409.72 76.82825 
L 409.72 48.472 
Q 409.72 46.472 407.72 46.472 
L 303.845 46.472 
Q 301.845 46.472 301.845 48.472 
L 301.845 76.82825 
Q 301.845 78.82825 303.845 78.82825 
z
" style="fill:#ffffff;opacity:0.8;stroke:#cccccc;stroke-linejoin:miter;"/>
    </g>
    <g id="line2d_19">
     <path d="M 305.845 54.570437 
L 325.845 54.570437 
" style="fill:none;stroke:#1f77b4;stroke-linecap:square;stroke-width:1.5;"/>
    </g>
    <g id="line2d_20"/>
    <g id="text_19">
     <!-- Train loss -->
     <g transform="translate(333.845 58.070437)scale(0.1 -0.1)">
      <defs>
       <path d="M -19 4666 
L 3928 4666 
L 3928 4134 
L 2272 4134 
L 2272 0 
L 1638 0 
L 1638 4134 
L -19 4134 
L -19 4666 
z
" id="DejaVuSans-54" transform="scale(0.015625)"/>
       <path d="M 2631 2963 
Q 2534 3019 2420 3045 
Q 2306 3072 2169 3072 
Q 1681 3072 1420 2755 
Q 1159 2438 1159 1844 
L 1159 0 
L 581 0 
L 581 3500 
L 1159 3500 
L 1159 2956 
Q 1341 3275 1631 3429 
Q 1922 3584 2338 3584 
Q 2397 3584 2469 3576 
Q 2541 3569 2628 3553 
L 2631 2963 
z
" id="DejaVuSans-72" transform="scale(0.015625)"/>
       <path d="M 2194 1759 
Q 1497 1759 1228 1600 
Q 959 1441 959 1056 
Q 959 750 1161 570 
Q 1363 391 1709 391 
Q 2188 391 2477 730 
Q 2766 1069 2766 1631 
L 2766 1759 
L 2194 1759 
z
M 3341 1997 
L 3341 0 
L 2766 0 
L 2766 531 
Q 2569 213 2275 61 
Q 1981 -91 1556 -91 
Q 1019 -91 701 211 
Q 384 513 384 1019 
Q 384 1609 779 1909 
Q 1175 2209 1959 2209 
L 2766 2209 
L 2766 2266 
Q 2766 2663 2505 2880 
Q 2244 3097 1772 3097 
Q 1472 3097 1187 3025 
Q 903 2953 641 2809 
L 641 3341 
Q 956 3463 1253 3523 
Q 1550 3584 1831 3584 
Q 2591 3584 2966 3190 
Q 3341 2797 3341 1997 
z
" id="DejaVuSans-61" transform="scale(0.015625)"/>
       <path d="M 603 3500 
L 1178 3500 
L 1178 0 
L 603 0 
L 603 3500 
z
M 603 4863 
L 1178 4863 
L 1178 4134 
L 603 4134 
L 603 4863 
z
" id="DejaVuSans-69" transform="scale(0.015625)"/>
       <path d="M 3513 2113 
L 3513 0 
L 2938 0 
L 2938 2094 
Q 2938 2591 2744 2837 
Q 2550 3084 2163 3084 
Q 1697 3084 1428 2787 
Q 1159 2491 1159 1978 
L 1159 0 
L 581 0 
L 581 3500 
L 1159 3500 
L 1159 2956 
Q 1366 3272 1645 3428 
Q 1925 3584 2291 3584 
Q 2894 3584 3203 3211 
Q 3513 2838 3513 2113 
z
" id="DejaVuSans-6e" transform="scale(0.015625)"/>
       <path id="DejaVuSans-20" transform="scale(0.015625)"/>
       <path d="M 603 4863 
L 1178 4863 
L 1178 0 
L 603 0 
L 603 4863 
z
" id="DejaVuSans-6c" transform="scale(0.015625)"/>
      </defs>
      <use xlink:href="#DejaVuSans-54"/>
      <use x="46.333984" xlink:href="#DejaVuSans-72"/>
      <use x="87.447266" xlink:href="#DejaVuSans-61"/>
      <use x="148.726562" xlink:href="#DejaVuSans-69"/>
      <use x="176.509766" xlink:href="#DejaVuSans-6e"/>
      <use x="239.888672" xlink:href="#DejaVuSans-20"/>
      <use x="271.675781" xlink:href="#DejaVuSans-6c"/>
      <use x="299.458984" xlink:href="#DejaVuSans-6f"/>
      <use x="360.640625" xlink:href="#DejaVuSans-73"/>
      <use x="412.740234" xlink:href="#DejaVuSans-73"/>
     </g>
    </g>
    <g id="line2d_21">
     <path d="M 305.845 69.248562 
L 325.845 69.248562 
" style="fill:none;stroke:#ff7f0e;stroke-linecap:square;stroke-width:1.5;"/>
    </g>
    <g id="line2d_22"/>
    <g id="text_20">
     <!-- Validation loss -->
     <g transform="translate(333.845 72.748562)scale(0.1 -0.1)">
      <defs>
       <path d="M 1831 0 
L 50 4666 
L 709 4666 
L 2188 738 
L 3669 4666 
L 4325 4666 
L 2547 0 
L 1831 0 
z
" id="DejaVuSans-56" transform="scale(0.015625)"/>
       <path d="M 2906 2969 
L 2906 4863 
L 3481 4863 
L 3481 0 
L 2906 0 
L 2906 525 
Q 2725 213 2448 61 
Q 2172 -91 1784 -91 
Q 1150 -91 751 415 
Q 353 922 353 1747 
Q 353 2572 751 3078 
Q 1150 3584 1784 3584 
Q 2172 3584 2448 3432 
Q 2725 3281 2906 2969 
z
M 947 1747 
Q 947 1113 1208 752 
Q 1469 391 1925 391 
Q 2381 391 2643 752 
Q 2906 1113 2906 1747 
Q 2906 2381 2643 2742 
Q 2381 3103 1925 3103 
Q 1469 3103 1208 2742 
Q 947 2381 947 1747 
z
" id="DejaVuSans-64" transform="scale(0.015625)"/>
       <path d="M 1172 4494 
L 1172 3500 
L 2356 3500 
L 2356 3053 
L 1172 3053 
L 1172 1153 
Q 1172 725 1289 603 
Q 1406 481 1766 481 
L 2356 481 
L 2356 0 
L 1766 0 
Q 1100 0 847 248 
Q 594 497 594 1153 
L 594 3053 
L 172 3053 
L 172 3500 
L 594 3500 
L 594 4494 
L 1172 4494 
z
" id="DejaVuSans-74" transform="scale(0.015625)"/>
      </defs>
      <use xlink:href="#DejaVuSans-56"/>
      <use x="60.658203" xlink:href="#DejaVuSans-61"/>
      <use x="121.9375" xlink:href="#DejaVuSans-6c"/>
      <use x="149.720703" xlink:href="#DejaVuSans-69"/>
      <use x="177.503906" xlink:href="#DejaVuSans-64"/>
      <use x="240.980469" xlink:href="#DejaVuSans-61"/>
      <use x="302.259766" xlink:href="#DejaVuSans-74"/>
      <use x="341.46875" xlink:href="#DejaVuSans-69"/>
      <use x="369.251953" xlink:href="#DejaVuSans-6f"/>
      <use x="430.433594" xlink:href="#DejaVuSans-6e"/>
      <use x="493.8125" xlink:href="#DejaVuSans-20"/>
      <use x="525.599609" xlink:href="#DejaVuSans-6c"/>
      <use x="553.382812" xlink:href="#DejaVuSans-6f"/>
      <use x="614.564453" xlink:href="#DejaVuSans-73"/>
      <use x="666.664062" xlink:href="#DejaVuSans-73"/>
     </g>
    </g>
   </g>
  </g>
 </g>
 <defs>
  <clipPath id="p959fb411e5">
   <rect height="266.112" width="357.12" x="57.6" y="41.472"/>
  </clipPath>
 </defs>
</svg>
