<?xml version="1.0" encoding="utf-8" standalone="no"?>
<!DOCTYPE svg PUBLIC "-//W3C//DTD SVG 1.1//EN"
  "http://www.w3.org/Graphics/SVG/1.1/DTD/svg11.dtd">
<svg height="345.6pt" version="1.1" viewBox="0 0 460.8 345.6" width="460.8pt" xmlns="http://www.w3.org/2000/svg" xmlns:xlink="http://www.w3.org/1999/xlink">
 <metadata>
  <rdf:RDF xmlns:cc="http://creativecommons.org/ns#" xmlns:dc="http://purl.org/dc/elements/1.1/" xmlns:rdf="http://www.w3.org/1999/02/22-rdf-syntax-ns#">
   <cc:Work>
    <dc:type rdf:resource="http://purl.org/dc/dcmitype/StillImage"/>
    <dc:date>2021-08-09T18:08:07.059323</dc:date>
    <dc:format>image/svg+xml</dc:format>
    <dc:creator>
     <cc:Agent>
      <dc:title>Matplotlib v3.4.1, https://matplotlib.org/</dc:title>
     </cc:Agent>
    </dc:creator>
   </cc:Work>
  </rdf:RDF>
 </metadata>
 <defs>
  <style type="text/css">*{stroke-linecap:butt;stroke-linejoin:round;}</style>
 </defs>
 <g id="figure_1">
  <g id="patch_1">
   <path d="M 0 345.6 
L 460.8 345.6 
L 460.8 0 
L 0 0 
z
" style="fill:#ffffff;"/>
  </g>
  <g id="axes_1">
   <g id="patch_2">
    <path d="M 57.6 307.584 
L 414.72 307.584 
L 414.72 41.472 
L 57.6 41.472 
z
" style="fill:#ffffff;"/>
   </g>
   <g id="matplotlib.axis_1">
    <g id="xtick_1">
     <g id="line2d_1">
      <defs>
       <path d="M 0 0 
L 0 3.5 
" id="md0b411db4e" style="stroke:#000000;stroke-width:0.8;"/>
      </defs>
      <g>
       <use style="stroke:#000000;stroke-width:0.8;" x="73.308245" xlink:href="#md0b411db4e" y="307.584"/>
      </g>
     </g>
     <g id="text_1">
      <!-- 0 -->
      <g transform="translate(70.126995 322.182437)scale(0.1 -0.1)">
       <defs>
        <path d="M 2034 4250 
Q 1547 4250 1301 3770 
Q 1056 3291 1056 2328 
Q 1056 1369 1301 889 
Q 1547 409 2034 409 
Q 2525 409 2770 889 
Q 3016 1369 3016 2328 
Q 3016 3291 2770 3770 
Q 2525 4250 2034 4250 
z
M 2034 4750 
Q 2819 4750 3233 4129 
Q 3647 3509 3647 2328 
Q 3647 1150 3233 529 
Q 2819 -91 2034 -91 
Q 1250 -91 836 529 
Q 422 1150 422 2328 
Q 422 3509 836 4129 
Q 1250 4750 2034 4750 
z
" id="DejaVuSans-30" transform="scale(0.015625)"/>
       </defs>
       <use xlink:href="#DejaVuSans-30"/>
      </g>
     </g>
    </g>
    <g id="xtick_2">
     <g id="line2d_2">
      <g>
       <use style="stroke:#000000;stroke-width:0.8;" x="125.756475" xlink:href="#md0b411db4e" y="307.584"/>
      </g>
     </g>
     <g id="text_2">
      <!-- 100 -->
      <g transform="translate(116.212725 322.182437)scale(0.1 -0.1)">
       <defs>
        <path d="M 794 531 
L 1825 531 
L 1825 4091 
L 703 3866 
L 703 4441 
L 1819 4666 
L 2450 4666 
L 2450 531 
L 3481 531 
L 3481 0 
L 794 0 
L 794 531 
z
" id="DejaVuSans-31" transform="scale(0.015625)"/>
       </defs>
       <use xlink:href="#DejaVuSans-31"/>
       <use x="63.623047" xlink:href="#DejaVuSans-30"/>
       <use x="127.246094" xlink:href="#DejaVuSans-30"/>
      </g>
     </g>
    </g>
    <g id="xtick_3">
     <g id="line2d_3">
      <g>
       <use style="stroke:#000000;stroke-width:0.8;" x="178.204706" xlink:href="#md0b411db4e" y="307.584"/>
      </g>
     </g>
     <g id="text_3">
      <!-- 200 -->
      <g transform="translate(168.660956 322.182437)scale(0.1 -0.1)">
       <defs>
        <path d="M 1228 531 
L 3431 531 
L 3431 0 
L 469 0 
L 469 531 
Q 828 903 1448 1529 
Q 2069 2156 2228 2338 
Q 2531 2678 2651 2914 
Q 2772 3150 2772 3378 
Q 2772 3750 2511 3984 
Q 2250 4219 1831 4219 
Q 1534 4219 1204 4116 
Q 875 4013 500 3803 
L 500 4441 
Q 881 4594 1212 4672 
Q 1544 4750 1819 4750 
Q 2544 4750 2975 4387 
Q 3406 4025 3406 3419 
Q 3406 3131 3298 2873 
Q 3191 2616 2906 2266 
Q 2828 2175 2409 1742 
Q 1991 1309 1228 531 
z
" id="DejaVuSans-32" transform="scale(0.015625)"/>
       </defs>
       <use xlink:href="#DejaVuSans-32"/>
       <use x="63.623047" xlink:href="#DejaVuSans-30"/>
       <use x="127.246094" xlink:href="#DejaVuSans-30"/>
      </g>
     </g>
    </g>
    <g id="xtick_4">
     <g id="line2d_4">
      <g>
       <use style="stroke:#000000;stroke-width:0.8;" x="230.652936" xlink:href="#md0b411db4e" y="307.584"/>
      </g>
     </g>
     <g id="text_4">
      <!-- 300 -->
      <g transform="translate(221.109186 322.182437)scale(0.1 -0.1)">
       <defs>
        <path d="M 2597 2516 
Q 3050 2419 3304 2112 
Q 3559 1806 3559 1356 
Q 3559 666 3084 287 
Q 2609 -91 1734 -91 
Q 1441 -91 1130 -33 
Q 819 25 488 141 
L 488 750 
Q 750 597 1062 519 
Q 1375 441 1716 441 
Q 2309 441 2620 675 
Q 2931 909 2931 1356 
Q 2931 1769 2642 2001 
Q 2353 2234 1838 2234 
L 1294 2234 
L 1294 2753 
L 1863 2753 
Q 2328 2753 2575 2939 
Q 2822 3125 2822 3475 
Q 2822 3834 2567 4026 
Q 2313 4219 1838 4219 
Q 1578 4219 1281 4162 
Q 984 4106 628 3988 
L 628 4550 
Q 988 4650 1302 4700 
Q 1616 4750 1894 4750 
Q 2613 4750 3031 4423 
Q 3450 4097 3450 3541 
Q 3450 3153 3228 2886 
Q 3006 2619 2597 2516 
z
" id="DejaVuSans-33" transform="scale(0.015625)"/>
       </defs>
       <use xlink:href="#DejaVuSans-33"/>
       <use x="63.623047" xlink:href="#DejaVuSans-30"/>
       <use x="127.246094" xlink:href="#DejaVuSans-30"/>
      </g>
     </g>
    </g>
    <g id="xtick_5">
     <g id="line2d_5">
      <g>
       <use style="stroke:#000000;stroke-width:0.8;" x="283.101166" xlink:href="#md0b411db4e" y="307.584"/>
      </g>
     </g>
     <g id="text_5">
      <!-- 400 -->
      <g transform="translate(273.557416 322.182437)scale(0.1 -0.1)">
       <defs>
        <path d="M 2419 4116 
L 825 1625 
L 2419 1625 
L 2419 4116 
z
M 2253 4666 
L 3047 4666 
L 3047 1625 
L 3713 1625 
L 3713 1100 
L 3047 1100 
L 3047 0 
L 2419 0 
L 2419 1100 
L 313 1100 
L 313 1709 
L 2253 4666 
z
" id="DejaVuSans-34" transform="scale(0.015625)"/>
       </defs>
       <use xlink:href="#DejaVuSans-34"/>
       <use x="63.623047" xlink:href="#DejaVuSans-30"/>
       <use x="127.246094" xlink:href="#DejaVuSans-30"/>
      </g>
     </g>
    </g>
    <g id="xtick_6">
     <g id="line2d_6">
      <g>
       <use style="stroke:#000000;stroke-width:0.8;" x="335.549396" xlink:href="#md0b411db4e" y="307.584"/>
      </g>
     </g>
     <g id="text_6">
      <!-- 500 -->
      <g transform="translate(326.005646 322.182437)scale(0.1 -0.1)">
       <defs>
        <path d="M 691 4666 
L 3169 4666 
L 3169 4134 
L 1269 4134 
L 1269 2991 
Q 1406 3038 1543 3061 
Q 1681 3084 1819 3084 
Q 2600 3084 3056 2656 
Q 3513 2228 3513 1497 
Q 3513 744 3044 326 
Q 2575 -91 1722 -91 
Q 1428 -91 1123 -41 
Q 819 9 494 109 
L 494 744 
Q 775 591 1075 516 
Q 1375 441 1709 441 
Q 2250 441 2565 725 
Q 2881 1009 2881 1497 
Q 2881 1984 2565 2268 
Q 2250 2553 1709 2553 
Q 1456 2553 1204 2497 
Q 953 2441 691 2322 
L 691 4666 
z
" id="DejaVuSans-35" transform="scale(0.015625)"/>
       </defs>
       <use xlink:href="#DejaVuSans-35"/>
       <use x="63.623047" xlink:href="#DejaVuSans-30"/>
       <use x="127.246094" xlink:href="#DejaVuSans-30"/>
      </g>
     </g>
    </g>
    <g id="xtick_7">
     <g id="line2d_7">
      <g>
       <use style="stroke:#000000;stroke-width:0.8;" x="387.997627" xlink:href="#md0b411db4e" y="307.584"/>
      </g>
     </g>
     <g id="text_7">
      <!-- 600 -->
      <g transform="translate(378.453877 322.182437)scale(0.1 -0.1)">
       <defs>
        <path d="M 2113 2584 
Q 1688 2584 1439 2293 
Q 1191 2003 1191 1497 
Q 1191 994 1439 701 
Q 1688 409 2113 409 
Q 2538 409 2786 701 
Q 3034 994 3034 1497 
Q 3034 2003 2786 2293 
Q 2538 2584 2113 2584 
z
M 3366 4563 
L 3366 3988 
Q 3128 4100 2886 4159 
Q 2644 4219 2406 4219 
Q 1781 4219 1451 3797 
Q 1122 3375 1075 2522 
Q 1259 2794 1537 2939 
Q 1816 3084 2150 3084 
Q 2853 3084 3261 2657 
Q 3669 2231 3669 1497 
Q 3669 778 3244 343 
Q 2819 -91 2113 -91 
Q 1303 -91 875 529 
Q 447 1150 447 2328 
Q 447 3434 972 4092 
Q 1497 4750 2381 4750 
Q 2619 4750 2861 4703 
Q 3103 4656 3366 4563 
z
" id="DejaVuSans-36" transform="scale(0.015625)"/>
       </defs>
       <use xlink:href="#DejaVuSans-36"/>
       <use x="63.623047" xlink:href="#DejaVuSans-30"/>
       <use x="127.246094" xlink:href="#DejaVuSans-30"/>
      </g>
     </g>
    </g>
    <g id="text_8">
     <!-- Epoch -->
     <g transform="translate(213.193594 339.659781)scale(0.15 -0.15)">
      <defs>
       <path d="M 628 4666 
L 3578 4666 
L 3578 4134 
L 1259 4134 
L 1259 2753 
L 3481 2753 
L 3481 2222 
L 1259 2222 
L 1259 531 
L 3634 531 
L 3634 0 
L 628 0 
L 628 4666 
z
" id="DejaVuSans-45" transform="scale(0.015625)"/>
       <path d="M 1159 525 
L 1159 -1331 
L 581 -1331 
L 581 3500 
L 1159 3500 
L 1159 2969 
Q 1341 3281 1617 3432 
Q 1894 3584 2278 3584 
Q 2916 3584 3314 3078 
Q 3713 2572 3713 1747 
Q 3713 922 3314 415 
Q 2916 -91 2278 -91 
Q 1894 -91 1617 61 
Q 1341 213 1159 525 
z
M 3116 1747 
Q 3116 2381 2855 2742 
Q 2594 3103 2138 3103 
Q 1681 3103 1420 2742 
Q 1159 2381 1159 1747 
Q 1159 1113 1420 752 
Q 1681 391 2138 391 
Q 2594 391 2855 752 
Q 3116 1113 3116 1747 
z
" id="DejaVuSans-70" transform="scale(0.015625)"/>
       <path d="M 1959 3097 
Q 1497 3097 1228 2736 
Q 959 2375 959 1747 
Q 959 1119 1226 758 
Q 1494 397 1959 397 
Q 2419 397 2687 759 
Q 2956 1122 2956 1747 
Q 2956 2369 2687 2733 
Q 2419 3097 1959 3097 
z
M 1959 3584 
Q 2709 3584 3137 3096 
Q 3566 2609 3566 1747 
Q 3566 888 3137 398 
Q 2709 -91 1959 -91 
Q 1206 -91 779 398 
Q 353 888 353 1747 
Q 353 2609 779 3096 
Q 1206 3584 1959 3584 
z
" id="DejaVuSans-6f" transform="scale(0.015625)"/>
       <path d="M 3122 3366 
L 3122 2828 
Q 2878 2963 2633 3030 
Q 2388 3097 2138 3097 
Q 1578 3097 1268 2742 
Q 959 2388 959 1747 
Q 959 1106 1268 751 
Q 1578 397 2138 397 
Q 2388 397 2633 464 
Q 2878 531 3122 666 
L 3122 134 
Q 2881 22 2623 -34 
Q 2366 -91 2075 -91 
Q 1284 -91 818 406 
Q 353 903 353 1747 
Q 353 2603 823 3093 
Q 1294 3584 2113 3584 
Q 2378 3584 2631 3529 
Q 2884 3475 3122 3366 
z
" id="DejaVuSans-63" transform="scale(0.015625)"/>
       <path d="M 3513 2113 
L 3513 0 
L 2938 0 
L 2938 2094 
Q 2938 2591 2744 2837 
Q 2550 3084 2163 3084 
Q 1697 3084 1428 2787 
Q 1159 2491 1159 1978 
L 1159 0 
L 581 0 
L 581 4863 
L 1159 4863 
L 1159 2956 
Q 1366 3272 1645 3428 
Q 1925 3584 2291 3584 
Q 2894 3584 3203 3211 
Q 3513 2838 3513 2113 
z
" id="DejaVuSans-68" transform="scale(0.015625)"/>
      </defs>
      <use xlink:href="#DejaVuSans-45"/>
      <use x="63.183594" xlink:href="#DejaVuSans-70"/>
      <use x="126.660156" xlink:href="#DejaVuSans-6f"/>
      <use x="187.841797" xlink:href="#DejaVuSans-63"/>
      <use x="242.822266" xlink:href="#DejaVuSans-68"/>
     </g>
    </g>
   </g>
   <g id="matplotlib.axis_2">
    <g id="ytick_1">
     <g id="line2d_8">
      <defs>
       <path d="M 0 0 
L -3.5 0 
" id="ma064207a31" style="stroke:#000000;stroke-width:0.8;"/>
      </defs>
      <g>
       <use style="stroke:#000000;stroke-width:0.8;" x="57.6" xlink:href="#ma064207a31" y="303.149595"/>
      </g>
     </g>
     <g id="text_9">
      <!-- −1200 -->
      <g transform="translate(16.770313 306.948814)scale(0.1 -0.1)">
       <defs>
        <path d="M 678 2272 
L 4684 2272 
L 4684 1741 
L 678 1741 
L 678 2272 
z
" id="DejaVuSans-2212" transform="scale(0.015625)"/>
       </defs>
       <use xlink:href="#DejaVuSans-2212"/>
       <use x="83.789062" xlink:href="#DejaVuSans-31"/>
       <use x="147.412109" xlink:href="#DejaVuSans-32"/>
       <use x="211.035156" xlink:href="#DejaVuSans-30"/>
       <use x="274.658203" xlink:href="#DejaVuSans-30"/>
      </g>
     </g>
    </g>
    <g id="ytick_2">
     <g id="line2d_9">
      <g>
       <use style="stroke:#000000;stroke-width:0.8;" x="57.6" xlink:href="#ma064207a31" y="262.547235"/>
      </g>
     </g>
     <g id="text_10">
      <!-- −1000 -->
      <g transform="translate(16.770313 266.346453)scale(0.1 -0.1)">
       <use xlink:href="#DejaVuSans-2212"/>
       <use x="83.789062" xlink:href="#DejaVuSans-31"/>
       <use x="147.412109" xlink:href="#DejaVuSans-30"/>
       <use x="211.035156" xlink:href="#DejaVuSans-30"/>
       <use x="274.658203" xlink:href="#DejaVuSans-30"/>
      </g>
     </g>
    </g>
    <g id="ytick_3">
     <g id="line2d_10">
      <g>
       <use style="stroke:#000000;stroke-width:0.8;" x="57.6" xlink:href="#ma064207a31" y="221.944874"/>
      </g>
     </g>
     <g id="text_11">
      <!-- −800 -->
      <g transform="translate(23.132812 225.744093)scale(0.1 -0.1)">
       <defs>
        <path d="M 2034 2216 
Q 1584 2216 1326 1975 
Q 1069 1734 1069 1313 
Q 1069 891 1326 650 
Q 1584 409 2034 409 
Q 2484 409 2743 651 
Q 3003 894 3003 1313 
Q 3003 1734 2745 1975 
Q 2488 2216 2034 2216 
z
M 1403 2484 
Q 997 2584 770 2862 
Q 544 3141 544 3541 
Q 544 4100 942 4425 
Q 1341 4750 2034 4750 
Q 2731 4750 3128 4425 
Q 3525 4100 3525 3541 
Q 3525 3141 3298 2862 
Q 3072 2584 2669 2484 
Q 3125 2378 3379 2068 
Q 3634 1759 3634 1313 
Q 3634 634 3220 271 
Q 2806 -91 2034 -91 
Q 1263 -91 848 271 
Q 434 634 434 1313 
Q 434 1759 690 2068 
Q 947 2378 1403 2484 
z
M 1172 3481 
Q 1172 3119 1398 2916 
Q 1625 2713 2034 2713 
Q 2441 2713 2670 2916 
Q 2900 3119 2900 3481 
Q 2900 3844 2670 4047 
Q 2441 4250 2034 4250 
Q 1625 4250 1398 4047 
Q 1172 3844 1172 3481 
z
" id="DejaVuSans-38" transform="scale(0.015625)"/>
       </defs>
       <use xlink:href="#DejaVuSans-2212"/>
       <use x="83.789062" xlink:href="#DejaVuSans-38"/>
       <use x="147.412109" xlink:href="#DejaVuSans-30"/>
       <use x="211.035156" xlink:href="#DejaVuSans-30"/>
      </g>
     </g>
    </g>
    <g id="ytick_4">
     <g id="line2d_11">
      <g>
       <use style="stroke:#000000;stroke-width:0.8;" x="57.6" xlink:href="#ma064207a31" y="181.342514"/>
      </g>
     </g>
     <g id="text_12">
      <!-- −600 -->
      <g transform="translate(23.132812 185.141732)scale(0.1 -0.1)">
       <use xlink:href="#DejaVuSans-2212"/>
       <use x="83.789062" xlink:href="#DejaVuSans-36"/>
       <use x="147.412109" xlink:href="#DejaVuSans-30"/>
       <use x="211.035156" xlink:href="#DejaVuSans-30"/>
      </g>
     </g>
    </g>
    <g id="ytick_5">
     <g id="line2d_12">
      <g>
       <use style="stroke:#000000;stroke-width:0.8;" x="57.6" xlink:href="#ma064207a31" y="140.740153"/>
      </g>
     </g>
     <g id="text_13">
      <!-- −400 -->
      <g transform="translate(23.132812 144.539372)scale(0.1 -0.1)">
       <use xlink:href="#DejaVuSans-2212"/>
       <use x="83.789062" xlink:href="#DejaVuSans-34"/>
       <use x="147.412109" xlink:href="#DejaVuSans-30"/>
       <use x="211.035156" xlink:href="#DejaVuSans-30"/>
      </g>
     </g>
    </g>
    <g id="ytick_6">
     <g id="line2d_13">
      <g>
       <use style="stroke:#000000;stroke-width:0.8;" x="57.6" xlink:href="#ma064207a31" y="100.137793"/>
      </g>
     </g>
     <g id="text_14">
      <!-- −200 -->
      <g transform="translate(23.132812 103.937011)scale(0.1 -0.1)">
       <use xlink:href="#DejaVuSans-2212"/>
       <use x="83.789062" xlink:href="#DejaVuSans-32"/>
       <use x="147.412109" xlink:href="#DejaVuSans-30"/>
       <use x="211.035156" xlink:href="#DejaVuSans-30"/>
      </g>
     </g>
    </g>
    <g id="ytick_7">
     <g id="line2d_14">
      <g>
       <use style="stroke:#000000;stroke-width:0.8;" x="57.6" xlink:href="#ma064207a31" y="59.535432"/>
      </g>
     </g>
     <g id="text_15">
      <!-- 0 -->
      <g transform="translate(44.2375 63.334651)scale(0.1 -0.1)">
       <use xlink:href="#DejaVuSans-30"/>
      </g>
     </g>
    </g>
   </g>
   <g id="line2d_15">
    <path clip-path="url(#p6f4d60b5f6)" d="M 73.832727 53.568 
L 74.35721 138.384074 
L 74.881692 143.160944 
L 75.930656 158.853481 
L 76.455139 164.679379 
L 77.504103 178.721508 
L 78.553068 186.585297 
L 79.07755 189.221052 
L 79.602033 191.268195 
L 80.126515 194.438402 
L 80.650997 198.729032 
L 81.17548 198.124298 
L 82.224444 205.869349 
L 82.748926 208.196872 
L 83.273409 211.116701 
L 83.797891 212.509633 
L 84.846856 217.511901 
L 85.371338 218.012394 
L 85.89582 219.980765 
L 86.420303 220.34603 
L 86.944785 223.52018 
L 87.993749 225.548526 
L 88.518232 225.874215 
L 89.042714 226.476559 
L 89.567196 228.845671 
L 90.091679 229.179588 
L 90.616161 230.261961 
L 91.140643 231.781706 
L 91.665126 231.737899 
L 92.189608 233.330154 
L 92.71409 233.020694 
L 93.238572 235.17481 
L 93.763055 235.568699 
L 94.287537 236.633354 
L 95.336502 239.111356 
L 95.860984 238.333012 
L 96.385466 240.963689 
L 96.909949 240.49664 
L 97.434431 242.17767 
L 97.958913 242.899096 
L 98.483396 241.15855 
L 99.007878 243.446075 
L 99.53236 243.917097 
L 101.105807 246.074765 
L 101.630289 246.299122 
L 102.154772 246.764653 
L 102.679254 247.952008 
L 103.203736 222.049207 
L 103.728219 240.3974 
L 104.252701 244.607153 
L 105.826148 247.95926 
L 106.35063 246.851361 
L 106.875112 249.024666 
L 107.399595 247.390083 
L 107.924077 251.193869 
L 108.448559 251.020806 
L 108.973042 251.391512 
L 109.497524 253.150118 
L 110.022006 253.010642 
L 110.546488 253.519056 
L 111.070971 253.740091 
L 112.119935 254.930517 
L 112.644418 255.097832 
L 113.1689 255.770957 
L 113.693382 254.064445 
L 114.217865 255.679826 
L 114.742347 255.718977 
L 115.266829 256.765362 
L 115.791311 256.339715 
L 116.315794 257.460445 
L 117.364758 257.266693 
L 117.889241 258.47123 
L 118.413723 258.591098 
L 119.462688 259.800405 
L 119.98717 259.521519 
L 120.511652 260.115202 
L 121.036135 260.456977 
L 121.560617 261.085116 
L 122.085099 260.522975 
L 122.609581 261.433746 
L 123.134064 261.02855 
L 123.658546 261.514418 
L 124.183028 261.56966 
L 125.231993 262.328135 
L 125.756475 262.960497 
L 126.280958 262.476883 
L 126.80544 255.392453 
L 127.329922 263.678796 
L 127.854404 264.496374 
L 128.378887 264.923908 
L 131.001298 265.457899 
L 131.525781 265.419764 
L 132.574745 265.632092 
L 133.099227 265.555609 
L 134.148192 265.770319 
L 134.672674 265.59353 
L 135.197157 265.901879 
L 135.721639 265.642524 
L 136.246121 265.80484 
L 136.770604 265.603446 
L 137.295086 265.823021 
L 137.819568 265.864627 
L 138.344051 265.596547 
L 138.868533 265.61184 
L 139.393015 265.515357 
L 139.917497 265.708959 
L 140.44198 265.75958 
L 141.490944 265.438583 
L 142.015427 264.72477 
L 142.539909 265.598701 
L 143.064391 265.080552 
L 143.588874 265.50014 
L 144.637838 264.795747 
L 145.16232 264.31835 
L 145.686803 264.459631 
L 146.735767 264.402598 
L 147.26025 263.819571 
L 147.784732 265.325151 
L 148.309214 264.191289 
L 148.833697 263.737225 
L 149.358179 264.285319 
L 149.882661 263.323791 
L 150.407143 265.048567 
L 150.931626 264.268187 
L 151.456108 265.154265 
L 151.98059 263.298815 
L 152.505073 262.490117 
L 153.029555 264.40275 
L 153.554037 262.872448 
L 154.07852 263.844917 
L 154.603002 260.844728 
L 155.127484 265.099787 
L 155.651967 264.768095 
L 156.176449 264.755069 
L 156.700931 265.548195 
L 157.225413 265.728748 
L 157.749896 266.313711 
L 158.274378 265.961226 
L 158.79886 266.080434 
L 159.323343 264.81539 
L 159.847825 266.122512 
L 160.372307 266.091963 
L 160.89679 267.337887 
L 161.421272 267.22175 
L 161.945754 268.06287 
L 162.470236 267.047641 
L 162.994719 267.241534 
L 163.519201 265.838606 
L 164.568166 268.975112 
L 165.092648 269.244603 
L 165.61713 262.259512 
L 166.141613 264.116269 
L 166.666095 263.832879 
L 167.190577 267.476359 
L 167.715059 269.294709 
L 168.239542 269.197035 
L 168.764024 269.362731 
L 169.288506 269.103705 
L 170.337471 270.701479 
L 170.861953 270.661748 
L 171.910918 269.342194 
L 173.484365 271.657329 
L 174.008847 271.863091 
L 174.533329 270.81681 
L 175.057812 268.995022 
L 175.582294 269.539398 
L 176.106776 270.727828 
L 176.631259 271.041836 
L 177.155741 272.64223 
L 178.729188 272.475917 
L 179.25367 272.187423 
L 179.778152 272.928882 
L 180.302635 273.460741 
L 180.827117 272.803062 
L 181.351599 273.418445 
L 181.876082 273.637417 
L 182.400564 273.328081 
L 182.925046 273.414114 
L 183.449529 271.524672 
L 183.974011 274.194248 
L 184.498493 273.493793 
L 185.022975 274.116974 
L 185.547458 273.325172 
L 186.07194 274.319098 
L 186.596422 274.562289 
L 187.120905 273.414376 
L 187.645387 274.258788 
L 188.169869 274.850858 
L 188.694352 275.980099 
L 189.218834 275.246224 
L 189.743316 274.928001 
L 190.267799 274.330747 
L 190.792281 275.612574 
L 191.316763 275.694323 
L 192.365728 275.291699 
L 192.89021 276.312267 
L 193.414692 276.908965 
L 193.939175 274.974225 
L 194.463657 276.437043 
L 194.988139 276.951735 
L 195.512622 276.876445 
L 196.037104 276.533219 
L 196.561586 277.566155 
L 197.086068 276.944969 
L 197.610551 277.020546 
L 198.135033 275.873929 
L 198.659515 277.959094 
L 199.183998 277.680378 
L 199.70848 276.540756 
L 200.232962 277.465101 
L 200.757445 277.744486 
L 201.281927 276.930885 
L 201.806409 276.894696 
L 202.330891 277.800533 
L 202.855374 279.078478 
L 203.379856 277.450008 
L 203.904338 278.247987 
L 204.428821 277.767718 
L 204.953303 278.748488 
L 205.477785 278.383248 
L 206.002268 278.980429 
L 206.52675 279.901663 
L 207.051232 278.454056 
L 207.575714 278.04691 
L 208.100197 276.917104 
L 208.624679 278.154148 
L 209.149161 280.316656 
L 209.673644 277.377346 
L 210.198126 280.119322 
L 210.722608 279.994942 
L 211.247091 280.042461 
L 211.771573 280.822792 
L 212.296055 279.978989 
L 212.820538 278.446266 
L 213.34502 280.787575 
L 213.869502 281.008724 
L 215.442949 280.806976 
L 215.967431 282.096402 
L 216.491914 279.573934 
L 217.016396 280.89442 
L 217.540878 279.727684 
L 218.065361 281.181925 
L 218.589843 281.019396 
L 219.114325 281.703722 
L 219.638807 279.784165 
L 220.16329 281.974774 
L 220.687772 282.100212 
L 221.212254 281.479771 
L 221.736737 279.962562 
L 222.261219 282.626284 
L 222.785701 279.912736 
L 223.834666 282.155822 
L 224.88363 282.760079 
L 225.408113 282.314819 
L 225.932595 281.131976 
L 226.457077 282.793854 
L 226.98156 282.728375 
L 227.506042 279.834822 
L 228.030524 283.229806 
L 228.555007 282.592046 
L 229.079489 282.512946 
L 229.603971 283.854361 
L 230.128454 283.253827 
L 230.652936 281.891927 
L 231.177418 282.222981 
L 232.226383 285.701387 
L 233.79983 286.039374 
L 234.848794 286.227046 
L 235.373277 286.243846 
L 235.897759 285.9948 
L 236.422241 286.069598 
L 236.946723 285.997025 
L 237.471206 286.04728 
L 237.995688 285.670403 
L 238.52017 285.845222 
L 239.569135 285.809204 
L 240.093617 285.828479 
L 240.6181 285.583026 
L 241.142582 285.812414 
L 241.667064 282.743883 
L 242.716029 286.198885 
L 243.240511 286.714302 
L 244.289476 286.975133 
L 244.813958 286.780849 
L 245.33844 287.0606 
L 245.862923 286.888612 
L 246.387405 286.992949 
L 246.911887 286.956047 
L 247.43637 287.08261 
L 247.960852 286.632762 
L 248.485334 274.026112 
L 249.009816 283.896079 
L 249.534299 285.086743 
L 250.058781 285.842498 
L 250.583263 284.98128 
L 251.107746 286.008382 
L 251.632228 286.482455 
L 252.15671 286.20528 
L 252.681193 286.356167 
L 253.205675 286.677639 
L 253.730157 286.155204 
L 254.254639 286.189244 
L 254.779122 285.707779 
L 255.303604 286.374474 
L 255.828086 285.599766 
L 256.352569 286.39378 
L 256.877051 285.656035 
L 257.401533 285.250014 
L 257.926016 285.741144 
L 258.450498 285.933049 
L 258.97498 284.440303 
L 259.499462 284.882298 
L 260.023945 285.807575 
L 260.548427 285.800955 
L 261.072909 286.368414 
L 261.597392 284.576835 
L 262.121874 286.13753 
L 262.646356 284.698747 
L 263.170839 285.143529 
L 263.695321 285.071197 
L 264.219803 287.018217 
L 265.268768 286.389194 
L 265.79325 284.873529 
L 266.317732 285.621421 
L 266.842215 285.191898 
L 267.366697 283.759287 
L 267.891179 284.822774 
L 268.415662 286.78071 
L 268.940144 287.053048 
L 269.464626 286.506792 
L 269.989109 287.447637 
L 270.513591 285.840611 
L 271.038073 286.945069 
L 271.562555 285.246357 
L 272.087038 285.295911 
L 272.61152 286.686868 
L 273.136002 286.554122 
L 273.660485 286.590233 
L 274.184967 286.059638 
L 275.233932 287.630373 
L 275.758414 286.560787 
L 276.282896 286.057044 
L 276.807378 287.479832 
L 277.331861 286.178749 
L 277.856343 287.204696 
L 278.380825 287.855915 
L 278.905308 287.39932 
L 279.42979 287.542295 
L 279.954272 287.561634 
L 280.478755 284.461055 
L 281.003237 285.369739 
L 281.527719 287.591206 
L 282.052201 285.348976 
L 282.576684 286.338135 
L 283.101166 286.401623 
L 283.625648 287.733403 
L 284.150131 287.027078 
L 284.674613 287.581056 
L 285.199095 288.79052 
L 285.723578 287.825845 
L 286.24806 288.609721 
L 286.772542 286.465567 
L 287.297025 287.736838 
L 287.821507 288.080374 
L 288.345989 288.182618 
L 288.870471 287.126844 
L 289.919436 287.742343 
L 290.443918 287.954142 
L 290.968401 289.508168 
L 291.492883 288.514396 
L 292.017365 288.163018 
L 292.541848 285.539635 
L 293.06633 284.944514 
L 293.590812 285.165228 
L 294.115294 288.475058 
L 294.639777 287.921123 
L 295.164259 288.082453 
L 295.688741 289.324131 
L 296.213224 288.506299 
L 296.737706 289.024562 
L 297.786671 288.807511 
L 298.311153 286.894088 
L 298.835635 288.185503 
L 299.360117 287.892125 
L 299.8846 288.806759 
L 300.409082 289.028008 
L 300.933564 287.177094 
L 301.458047 289.429148 
L 301.982529 289.620577 
L 302.507011 280.739914 
L 303.031494 287.527072 
L 304.080458 289.146466 
L 304.604941 289.349048 
L 305.129423 289.320465 
L 306.178387 288.862157 
L 306.70287 288.377064 
L 307.227352 290.329991 
L 307.751834 288.593469 
L 308.276317 290.21567 
L 308.800799 288.519254 
L 309.325281 289.281303 
L 309.849764 288.78424 
L 310.374246 290.90097 
L 310.898728 290.236807 
L 311.42321 287.540289 
L 311.947693 289.470139 
L 312.472175 289.380566 
L 312.996657 288.920535 
L 313.52114 286.541494 
L 314.045622 290.450208 
L 314.570104 290.283277 
L 315.094587 289.835999 
L 315.619069 290.339454 
L 316.143551 289.972621 
L 316.668033 291.657194 
L 317.192516 290.989845 
L 317.716998 289.26726 
L 318.24148 290.850368 
L 318.765963 291.086883 
L 319.290445 291.093828 
L 319.814927 290.891038 
L 320.33941 290.247571 
L 321.388374 290.965112 
L 321.912857 289.505876 
L 322.437339 290.84991 
L 322.961821 289.25982 
L 323.486303 288.497086 
L 324.010786 290.719264 
L 324.535268 290.998678 
L 325.05975 290.312075 
L 325.584233 290.877202 
L 326.108715 290.724553 
L 326.633197 291.171546 
L 327.15768 287.986159 
L 327.682162 290.904657 
L 328.206644 290.280434 
L 328.731126 290.777249 
L 329.255609 287.793714 
L 329.780091 291.382045 
L 330.304573 291.165911 
L 330.829056 292.18727 
L 331.353538 290.016562 
L 331.87802 290.925733 
L 332.926985 291.186706 
L 333.451467 290.474488 
L 333.975949 292.036765 
L 334.500432 290.716544 
L 335.024914 292.095826 
L 335.549396 292.314538 
L 336.073879 291.617371 
L 336.598361 291.994387 
L 337.122843 292.052279 
L 337.647326 292.259222 
L 338.171808 291.49055 
L 338.69629 291.931801 
L 339.220773 290.887582 
L 339.745255 293.061732 
L 340.269737 290.406791 
L 340.794219 291.417856 
L 341.318702 291.776837 
L 342.367666 291.551712 
L 342.892149 291.646543 
L 343.416631 292.272703 
L 343.941113 290.91088 
L 344.465596 290.905147 
L 344.990078 292.584573 
L 345.51456 286.448645 
L 346.039042 291.894484 
L 346.563525 292.899088 
L 347.088007 291.010573 
L 347.612489 291.991003 
L 348.136972 292.168943 
L 348.661454 293.091707 
L 349.185936 290.884349 
L 349.710419 291.826698 
L 350.234901 292.484236 
L 350.759383 292.542606 
L 351.283865 293.006487 
L 352.33283 291.960634 
L 352.857312 293.134987 
L 353.381795 292.793792 
L 353.906277 291.875025 
L 354.430759 293.505525 
L 354.955242 292.320346 
L 355.479724 292.817487 
L 356.004206 293.072751 
L 356.528689 292.790748 
L 357.577653 293.245987 
L 358.102135 291.791749 
L 358.626618 293.238724 
L 359.1511 287.23356 
L 359.675582 292.889401 
L 360.200065 293.506356 
L 360.724547 293.34631 
L 361.249029 292.908576 
L 361.773512 293.08089 
L 362.297994 293.823293 
L 362.822476 294.096559 
L 363.346958 293.56909 
L 363.871441 293.670398 
L 364.395923 291.27364 
L 365.444888 293.651786 
L 365.96937 293.079659 
L 366.493852 293.792365 
L 367.018335 293.346536 
L 367.542817 293.995022 
L 368.067299 293.789287 
L 368.591781 288.541538 
L 369.116264 293.611111 
L 370.165228 294.358025 
L 370.689711 294.255794 
L 371.214193 294.845125 
L 371.738675 294.284157 
L 372.263158 294.241021 
L 372.78764 293.981146 
L 373.312122 293.233932 
L 373.836604 292.243624 
L 374.361087 292.440099 
L 374.885569 294.589876 
L 375.410051 294.825024 
L 375.934534 293.532354 
L 376.459016 294.261245 
L 377.507981 293.679164 
L 378.032463 294.98463 
L 378.556945 293.853007 
L 379.081428 294.788535 
L 379.60591 293.730287 
L 380.130392 294.181123 
L 380.654874 294.298061 
L 381.179357 294.648867 
L 381.703839 293.996143 
L 382.228321 294.176201 
L 382.752804 294.170428 
L 383.277286 294.781238 
L 384.326251 294.629022 
L 384.850733 295.293486 
L 385.375215 292.808098 
L 385.899697 295.488 
L 386.42418 294.018643 
L 386.948662 294.426867 
L 387.473144 293.552775 
L 387.997627 293.869537 
L 388.522109 294.773022 
L 389.046591 293.119177 
L 389.571074 293.610513 
L 390.095556 294.985868 
L 390.620038 294.959424 
L 391.14452 295.382538 
L 391.669003 285.889424 
L 392.193485 293.41796 
L 392.717967 293.944822 
L 393.24245 295.130808 
L 393.766932 291.414393 
L 394.291414 294.670538 
L 394.815897 294.547081 
L 395.340379 295.272293 
L 395.864861 295.020533 
L 396.389344 294.358097 
L 397.438308 293.875648 
L 397.96279 294.138027 
L 398.487273 295.247548 
L 398.487273 295.247548 
" style="fill:none;stroke:#1f77b4;stroke-linecap:square;stroke-width:1.5;"/>
   </g>
   <g id="line2d_16">
    <path clip-path="url(#p6f4d60b5f6)" d="M 73.832727 133.711746 
L 75.406174 155.921152 
L 75.930656 154.531215 
L 76.455139 171.195572 
L 76.979621 175.288245 
L 77.504103 185.157809 
L 78.028586 185.666062 
L 78.553068 175.474904 
L 79.07755 188.151668 
L 79.602033 196.580903 
L 80.126515 199.553566 
L 80.650997 201.251304 
L 81.17548 196.713188 
L 81.699962 205.773455 
L 82.224444 208.362651 
L 82.748926 207.875487 
L 83.273409 213.409808 
L 83.797891 215.937924 
L 84.322373 215.212923 
L 84.846856 216.594674 
L 85.371338 221.007171 
L 85.89582 220.146029 
L 86.420303 223.253644 
L 86.944785 221.168843 
L 87.469267 214.506944 
L 87.993749 223.738238 
L 88.518232 220.888112 
L 89.042714 229.091556 
L 89.567196 226.768951 
L 90.091679 228.389511 
L 90.616161 229.135577 
L 91.140643 232.103829 
L 91.665126 229.675739 
L 92.71409 234.3539 
L 93.238572 235.093613 
L 93.763055 234.75771 
L 94.287537 237.353388 
L 94.812019 236.790735 
L 95.336502 226.984801 
L 95.860984 238.735604 
L 96.385466 234.10465 
L 96.909949 240.521687 
L 97.434431 239.939524 
L 97.958913 235.802658 
L 98.483396 242.552688 
L 99.007878 241.329059 
L 99.53236 241.502901 
L 100.056842 241.02265 
L 100.581325 243.186427 
L 101.105807 243.952689 
L 101.630289 241.810252 
L 102.154772 244.199806 
L 102.679254 245.555668 
L 103.203736 234.736444 
L 103.728219 233.498188 
L 104.252701 242.393032 
L 104.777183 228.405833 
L 105.301665 244.81206 
L 105.826148 240.112785 
L 106.35063 243.543827 
L 107.399595 247.268592 
L 107.924077 249.913494 
L 108.448559 248.223985 
L 108.973042 247.184721 
L 109.497524 249.868445 
L 110.022006 249.478261 
L 110.546488 251.931352 
L 111.070971 250.995409 
L 111.595453 250.619631 
L 112.119935 251.17036 
L 112.644418 253.312472 
L 113.1689 251.093152 
L 113.693382 249.470116 
L 114.217865 248.676218 
L 114.742347 254.151737 
L 115.266829 248.579142 
L 115.791311 254.7645 
L 116.315794 253.058473 
L 116.840276 249.631234 
L 117.364758 254.492669 
L 117.889241 255.810693 
L 118.413723 256.499002 
L 118.938205 255.000427 
L 119.462688 256.448475 
L 119.98717 255.496699 
L 120.511652 255.195418 
L 121.036135 256.258015 
L 121.560617 256.67546 
L 122.085099 254.953664 
L 122.609581 257.457728 
L 123.134064 257.730699 
L 123.658546 255.276286 
L 124.183028 256.061407 
L 124.707511 253.550947 
L 125.231993 258.53645 
L 125.756475 259.415944 
L 126.280958 258.656131 
L 126.80544 257.485452 
L 127.854404 259.756709 
L 128.903369 259.764551 
L 129.427851 260.203388 
L 130.476816 259.748203 
L 131.001298 259.783762 
L 132.050263 260.514359 
L 132.574745 259.959766 
L 133.62371 261.125568 
L 134.148192 260.480383 
L 134.672674 260.195006 
L 135.197157 259.541835 
L 136.246121 261.092887 
L 136.770604 260.976395 
L 137.295086 259.817973 
L 137.819568 260.803402 
L 138.868533 260.956424 
L 139.393015 261.714647 
L 139.917497 260.046457 
L 140.44198 259.311531 
L 140.966462 258.834327 
L 141.490944 261.600616 
L 142.015427 260.105793 
L 142.539909 260.117091 
L 143.064391 260.388803 
L 143.588874 260.850677 
L 144.113356 259.974719 
L 144.637838 255.138638 
L 145.16232 259.024717 
L 145.686803 254.517128 
L 146.211285 260.215012 
L 147.26025 260.795961 
L 147.784732 261.263989 
L 148.309214 259.538443 
L 148.833697 259.197852 
L 149.358179 256.407473 
L 149.882661 260.242891 
L 150.407143 259.050739 
L 150.931626 261.091359 
L 151.456108 255.583087 
L 151.98059 259.925394 
L 152.505073 260.176132 
L 153.029555 253.626646 
L 153.554037 252.203383 
L 154.07852 255.775625 
L 154.603002 260.651143 
L 155.127484 261.294679 
L 155.651967 261.062267 
L 156.176449 260.312186 
L 156.700931 260.108773 
L 157.225413 260.720979 
L 157.749896 262.911485 
L 158.274378 262.083152 
L 158.79886 263.359064 
L 159.323343 262.285411 
L 159.847825 260.242549 
L 160.372307 262.003332 
L 160.89679 262.38645 
L 161.421272 261.848076 
L 161.945754 263.700331 
L 162.470236 263.767771 
L 162.994719 263.222811 
L 163.519201 261.00125 
L 164.043683 262.251237 
L 165.092648 264.16375 
L 165.61713 262.140749 
L 166.141613 248.288228 
L 166.666095 262.23745 
L 167.190577 262.620313 
L 167.715059 264.292575 
L 168.239542 264.74106 
L 168.764024 265.977254 
L 169.288506 264.666119 
L 169.812989 265.138309 
L 170.337471 265.066654 
L 170.861953 264.20918 
L 171.910918 263.583568 
L 172.4354 265.437106 
L 172.959883 266.664857 
L 173.484365 265.661713 
L 174.008847 265.943521 
L 174.533329 264.169376 
L 175.057812 266.257251 
L 175.582294 266.465407 
L 176.106776 264.550468 
L 176.631259 267.41169 
L 177.155741 266.922376 
L 177.680223 265.548548 
L 178.204706 263.742055 
L 178.729188 266.262149 
L 179.25367 266.177836 
L 179.778152 266.786957 
L 180.302635 266.8207 
L 181.351599 268.479482 
L 181.876082 267.127849 
L 182.400564 266.267064 
L 182.925046 263.073669 
L 183.449529 268.664004 
L 183.974011 268.540721 
L 184.498493 268.915466 
L 185.022975 268.960336 
L 185.547458 266.303033 
L 186.07194 268.102594 
L 186.596422 263.081682 
L 187.120905 266.77229 
L 187.645387 260.278971 
L 188.169869 267.83549 
L 188.694352 266.748256 
L 189.218834 268.052894 
L 189.743316 265.74419 
L 190.267799 269.52293 
L 190.792281 267.441155 
L 191.316763 268.910497 
L 191.841245 269.844521 
L 192.365728 267.688486 
L 192.89021 267.250444 
L 193.414692 270.853462 
L 193.939175 268.61753 
L 194.463657 268.991574 
L 194.988139 271.322235 
L 195.512622 267.067306 
L 196.561586 271.745581 
L 197.086068 270.499905 
L 197.610551 271.915046 
L 198.135033 270.988047 
L 198.659515 271.036191 
L 199.183998 267.412299 
L 199.70848 271.28548 
L 200.232962 270.720417 
L 200.757445 269.901049 
L 201.281927 272.037476 
L 201.806409 270.136898 
L 202.330891 269.246211 
L 202.855374 269.116022 
L 203.379856 269.624339 
L 203.904338 272.911127 
L 204.428821 271.319593 
L 204.953303 271.5131 
L 205.477785 271.356874 
L 206.002268 272.744423 
L 206.52675 270.145191 
L 207.051232 269.583211 
L 207.575714 271.427168 
L 208.100197 271.79677 
L 208.624679 273.658784 
L 209.149161 273.382336 
L 209.673644 272.058535 
L 210.198126 272.916689 
L 210.722608 269.8333 
L 211.247091 273.159317 
L 211.771573 273.024399 
L 212.296055 270.815953 
L 212.820538 273.94832 
L 213.34502 273.221435 
L 213.869502 273.456528 
L 214.393984 270.700924 
L 214.918467 273.363593 
L 215.442949 272.818821 
L 215.967431 272.962971 
L 216.491914 271.409999 
L 217.016396 271.915303 
L 217.540878 273.627249 
L 218.065361 273.658352 
L 218.589843 274.91319 
L 219.638807 272.538649 
L 220.16329 273.18449 
L 220.687772 273.406412 
L 221.212254 270.889059 
L 221.736737 271.53992 
L 222.261219 272.923952 
L 222.785701 269.498174 
L 223.310184 274.104854 
L 223.834666 274.504763 
L 224.359148 272.439547 
L 224.88363 272.93803 
L 225.408113 273.641614 
L 225.932595 273.591098 
L 226.457077 275.185276 
L 226.98156 274.870974 
L 227.506042 274.156599 
L 228.030524 276.312518 
L 228.555007 273.089858 
L 229.079489 274.242447 
L 229.603971 274.510001 
L 230.128454 273.302919 
L 230.652936 273.179721 
L 231.177418 275.404907 
L 232.226383 276.285807 
L 232.750865 274.856491 
L 233.275347 274.968322 
L 233.79983 276.164271 
L 234.324312 275.774682 
L 234.848794 275.569335 
L 235.373277 275.671116 
L 236.422241 275.587137 
L 236.946723 277.030848 
L 237.471206 276.173417 
L 237.995688 275.784146 
L 238.52017 275.675351 
L 239.044653 275.335269 
L 239.569135 276.032949 
L 240.093617 277.181814 
L 240.6181 276.777803 
L 241.142582 277.009601 
L 241.667064 270.750897 
L 242.191546 275.844717 
L 242.716029 276.044209 
L 243.240511 276.100179 
L 243.764993 275.833725 
L 244.289476 277.392287 
L 244.813958 278.194138 
L 245.862923 275.452215 
L 246.387405 276.05202 
L 246.911887 275.57742 
L 247.43637 276.393025 
L 247.960852 258.322037 
L 248.485334 274.864946 
L 249.009816 277.089516 
L 249.534299 276.154667 
L 250.583263 273.728139 
L 251.107746 275.535374 
L 251.632228 276.937656 
L 252.15671 276.078465 
L 252.681193 275.529892 
L 253.205675 275.252983 
L 253.730157 276.72489 
L 254.254639 275.148943 
L 254.779122 274.026301 
L 255.303604 275.644239 
L 255.828086 273.559656 
L 256.352569 275.700972 
L 257.401533 273.935961 
L 257.926016 276.395093 
L 258.450498 275.633306 
L 258.97498 273.551641 
L 259.499462 273.913305 
L 260.023945 276.955667 
L 260.548427 276.16049 
L 261.072909 276.791417 
L 262.121874 272.964208 
L 262.646356 277.406161 
L 263.170839 277.018233 
L 263.695321 277.291071 
L 264.219803 278.578079 
L 264.744286 275.182437 
L 265.268768 276.26272 
L 265.79325 276.365472 
L 266.317732 275.802326 
L 266.842215 275.406387 
L 267.366697 275.275876 
L 267.891179 276.337075 
L 268.415662 278.476278 
L 268.940144 276.443523 
L 269.464626 275.740285 
L 269.989109 275.389585 
L 270.513591 277.40684 
L 271.038073 276.477619 
L 271.562555 271.72297 
L 272.087038 272.401959 
L 272.61152 278.18154 
L 273.136002 273.342829 
L 273.660485 277.063171 
L 274.184967 275.914434 
L 274.709449 277.241354 
L 275.233932 277.740136 
L 275.758414 277.356532 
L 276.282896 277.908314 
L 277.331861 275.19477 
L 277.856343 279.231888 
L 278.380825 279.744418 
L 278.905308 275.766193 
L 279.42979 276.843716 
L 279.954272 272.994756 
L 280.478755 278.293586 
L 281.003237 277.758623 
L 281.527719 279.274422 
L 282.052201 275.786948 
L 282.576684 277.113956 
L 283.625648 276.96367 
L 284.150131 276.7269 
L 284.674613 275.933497 
L 285.199095 278.851929 
L 285.723578 278.65868 
L 286.24806 277.188759 
L 286.772542 276.454287 
L 287.297025 279.924178 
L 287.821507 278.315371 
L 288.345989 277.539718 
L 288.870471 277.495089 
L 289.394954 277.225126 
L 289.919436 279.376984 
L 290.443918 278.155149 
L 290.968401 278.939246 
L 291.492883 277.106465 
L 292.017365 277.12639 
L 292.541848 270.193632 
L 293.06633 279.095075 
L 293.590812 280.126706 
L 294.115294 277.651995 
L 295.164259 280.926247 
L 295.688741 278.014787 
L 296.213224 280.258656 
L 296.737706 278.78487 
L 297.262188 279.29045 
L 298.311153 277.825336 
L 298.835635 278.385407 
L 299.360117 277.201557 
L 299.8846 278.450193 
L 300.409082 277.987485 
L 301.458047 279.626183 
L 301.982529 280.090459 
L 302.507011 277.425344 
L 303.031494 278.605959 
L 303.555976 280.918928 
L 304.080458 279.636448 
L 304.604941 279.899677 
L 305.129423 279.504691 
L 305.653905 277.604353 
L 306.178387 279.059474 
L 306.70287 278.104574 
L 307.227352 280.408988 
L 307.751834 280.267226 
L 308.276317 278.904787 
L 308.800799 275.244864 
L 309.325281 280.54735 
L 309.849764 281.097375 
L 310.374246 280.785335 
L 310.898728 276.046449 
L 311.42321 278.887622 
L 311.947693 277.827413 
L 312.472175 279.714165 
L 312.996657 271.643688 
L 313.52114 278.102997 
L 314.045622 280.527844 
L 314.570104 277.620919 
L 315.094587 280.062292 
L 315.619069 279.385852 
L 316.143551 280.434747 
L 316.668033 279.26626 
L 317.192516 279.210058 
L 317.716998 278.010876 
L 318.765963 280.789489 
L 319.814927 279.826108 
L 320.33941 280.515494 
L 321.388374 280.779336 
L 321.912857 278.695426 
L 322.437339 278.993657 
L 322.961821 280.126249 
L 323.486303 280.72407 
L 324.535268 277.780566 
L 325.05975 277.636603 
L 325.584233 279.578659 
L 326.108715 277.997027 
L 326.633197 273.254848 
L 327.15768 278.329771 
L 327.682162 280.341795 
L 328.206644 280.057521 
L 328.731126 280.186489 
L 329.255609 280.139552 
L 329.780091 279.86351 
L 330.304573 279.8545 
L 330.829056 281.432161 
L 331.353538 280.122442 
L 331.87802 280.442806 
L 332.402503 281.520597 
L 332.926985 280.147016 
L 333.451467 280.988574 
L 333.975949 279.419518 
L 334.500432 279.418273 
L 335.024914 277.011494 
L 335.549396 281.044746 
L 336.073879 280.163655 
L 336.598361 280.139041 
L 337.122843 278.714269 
L 337.647326 280.322331 
L 338.171808 282.856081 
L 338.69629 282.511721 
L 339.220773 280.473162 
L 339.745255 277.787791 
L 340.269737 280.889383 
L 340.794219 281.09125 
L 341.318702 279.098654 
L 341.843184 279.88131 
L 342.892149 279.54964 
L 343.416631 278.923213 
L 343.941113 278.019321 
L 344.465596 282.487123 
L 344.990078 280.490749 
L 345.51456 279.848186 
L 346.039042 279.676612 
L 346.563525 280.542443 
L 347.088007 281.871091 
L 348.136972 281.644312 
L 348.661454 278.923253 
L 349.185936 281.700373 
L 349.710419 281.072028 
L 350.234901 279.448376 
L 350.759383 280.895247 
L 351.283865 280.095956 
L 351.808348 280.68064 
L 352.33283 280.99721 
L 352.857312 280.270242 
L 353.381795 281.101814 
L 353.906277 283.015149 
L 354.430759 280.627596 
L 354.955242 281.020788 
L 355.479724 279.363541 
L 356.004206 280.710871 
L 356.528689 279.857562 
L 357.053171 278.429204 
L 357.577653 282.583684 
L 358.102135 279.702461 
L 358.626618 282.194687 
L 359.1511 276.895289 
L 360.200065 283.164717 
L 360.724547 279.988319 
L 361.249029 282.008122 
L 361.773512 281.247988 
L 362.297994 280.793192 
L 362.822476 281.395682 
L 363.871441 279.212704 
L 364.395923 279.102188 
L 364.920405 281.38898 
L 365.444888 283.00384 
L 365.96937 281.867952 
L 366.493852 279.2877 
L 367.018335 279.048747 
L 367.542817 282.245883 
L 368.067299 278.955201 
L 368.591781 281.69095 
L 369.640746 279.406797 
L 370.165228 281.613089 
L 370.689711 281.082789 
L 371.214193 279.381725 
L 371.738675 283.496761 
L 372.263158 280.714465 
L 372.78764 282.551197 
L 373.312122 281.137866 
L 373.836604 282.811229 
L 374.361087 282.613399 
L 374.885569 282.007609 
L 375.410051 280.950382 
L 375.934534 281.085559 
L 376.459016 282.411751 
L 376.983498 280.215408 
L 377.507981 280.636668 
L 378.032463 281.807111 
L 378.556945 280.194285 
L 379.081428 281.658853 
L 379.60591 279.212792 
L 380.130392 283.350173 
L 380.654874 281.306903 
L 381.179357 280.975454 
L 381.703839 278.119616 
L 382.228321 282.908059 
L 382.752804 280.589529 
L 383.277286 281.940417 
L 383.801768 280.44768 
L 384.326251 281.609365 
L 384.850733 281.554537 
L 385.375215 283.020627 
L 385.899697 282.152352 
L 386.42418 277.987235 
L 386.948662 282.077454 
L 387.473144 280.257001 
L 387.997627 281.451212 
L 388.522109 265.580625 
L 389.046591 282.979327 
L 389.571074 279.144168 
L 390.095556 281.553416 
L 390.620038 280.817937 
L 391.14452 279.840637 
L 391.669003 283.02417 
L 392.193485 283.073488 
L 392.717967 283.958809 
L 393.24245 281.014812 
L 393.766932 281.289802 
L 394.291414 283.247208 
L 394.815897 282.047081 
L 395.340379 282.156317 
L 395.864861 283.033653 
L 396.389344 278.798184 
L 396.913826 281.348514 
L 397.438308 273.934474 
L 397.96279 282.347349 
L 398.487273 281.350067 
L 398.487273 281.350067 
" style="fill:none;stroke:#ff7f0e;stroke-linecap:square;stroke-width:1.5;"/>
   </g>
   <g id="patch_3">
    <path d="M 57.6 307.584 
L 57.6 41.472 
" style="fill:none;stroke:#000000;stroke-linecap:square;stroke-linejoin:miter;stroke-width:0.8;"/>
   </g>
   <g id="patch_4">
    <path d="M 414.72 307.584 
L 414.72 41.472 
" style="fill:none;stroke:#000000;stroke-linecap:square;stroke-linejoin:miter;stroke-width:0.8;"/>
   </g>
   <g id="patch_5">
    <path d="M 57.6 307.584 
L 414.72 307.584 
" style="fill:none;stroke:#000000;stroke-linecap:square;stroke-linejoin:miter;stroke-width:0.8;"/>
   </g>
   <g id="patch_6">
    <path d="M 57.6 41.472 
L 414.72 41.472 
" style="fill:none;stroke:#000000;stroke-linecap:square;stroke-linejoin:miter;stroke-width:0.8;"/>
   </g>
   <g id="legend_1">
    <g id="patch_7">
     <path d="M 303.845 78.82825 
L 407.72 78.82825 
Q 409.72 78.82825 409.72 76.82825 
L 409.72 48.472 
Q 409.72 46.472 407.72 46.472 
L 303.845 46.472 
Q 301.845 46.472 301.845 48.472 
L 301.845 76.82825 
Q 301.845 78.82825 303.845 78.82825 
z
" style="fill:#ffffff;opacity:0.8;stroke:#cccccc;stroke-linejoin:miter;"/>
    </g>
    <g id="line2d_17">
     <path d="M 305.845 54.570437 
L 325.845 54.570437 
" style="fill:none;stroke:#1f77b4;stroke-linecap:square;stroke-width:1.5;"/>
    </g>
    <g id="line2d_18"/>
    <g id="text_16">
     <!-- Train loss -->
     <g transform="translate(333.845 58.070437)scale(0.1 -0.1)">
      <defs>
       <path d="M -19 4666 
L 3928 4666 
L 3928 4134 
L 2272 4134 
L 2272 0 
L 1638 0 
L 1638 4134 
L -19 4134 
L -19 4666 
z
" id="DejaVuSans-54" transform="scale(0.015625)"/>
       <path d="M 2631 2963 
Q 2534 3019 2420 3045 
Q 2306 3072 2169 3072 
Q 1681 3072 1420 2755 
Q 1159 2438 1159 1844 
L 1159 0 
L 581 0 
L 581 3500 
L 1159 3500 
L 1159 2956 
Q 1341 3275 1631 3429 
Q 1922 3584 2338 3584 
Q 2397 3584 2469 3576 
Q 2541 3569 2628 3553 
L 2631 2963 
z
" id="DejaVuSans-72" transform="scale(0.015625)"/>
       <path d="M 2194 1759 
Q 1497 1759 1228 1600 
Q 959 1441 959 1056 
Q 959 750 1161 570 
Q 1363 391 1709 391 
Q 2188 391 2477 730 
Q 2766 1069 2766 1631 
L 2766 1759 
L 2194 1759 
z
M 3341 1997 
L 3341 0 
L 2766 0 
L 2766 531 
Q 2569 213 2275 61 
Q 1981 -91 1556 -91 
Q 1019 -91 701 211 
Q 384 513 384 1019 
Q 384 1609 779 1909 
Q 1175 2209 1959 2209 
L 2766 2209 
L 2766 2266 
Q 2766 2663 2505 2880 
Q 2244 3097 1772 3097 
Q 1472 3097 1187 3025 
Q 903 2953 641 2809 
L 641 3341 
Q 956 3463 1253 3523 
Q 1550 3584 1831 3584 
Q 2591 3584 2966 3190 
Q 3341 2797 3341 1997 
z
" id="DejaVuSans-61" transform="scale(0.015625)"/>
       <path d="M 603 3500 
L 1178 3500 
L 1178 0 
L 603 0 
L 603 3500 
z
M 603 4863 
L 1178 4863 
L 1178 4134 
L 603 4134 
L 603 4863 
z
" id="DejaVuSans-69" transform="scale(0.015625)"/>
       <path d="M 3513 2113 
L 3513 0 
L 2938 0 
L 2938 2094 
Q 2938 2591 2744 2837 
Q 2550 3084 2163 3084 
Q 1697 3084 1428 2787 
Q 1159 2491 1159 1978 
L 1159 0 
L 581 0 
L 581 3500 
L 1159 3500 
L 1159 2956 
Q 1366 3272 1645 3428 
Q 1925 3584 2291 3584 
Q 2894 3584 3203 3211 
Q 3513 2838 3513 2113 
z
" id="DejaVuSans-6e" transform="scale(0.015625)"/>
       <path id="DejaVuSans-20" transform="scale(0.015625)"/>
       <path d="M 603 4863 
L 1178 4863 
L 1178 0 
L 603 0 
L 603 4863 
z
" id="DejaVuSans-6c" transform="scale(0.015625)"/>
       <path d="M 2834 3397 
L 2834 2853 
Q 2591 2978 2328 3040 
Q 2066 3103 1784 3103 
Q 1356 3103 1142 2972 
Q 928 2841 928 2578 
Q 928 2378 1081 2264 
Q 1234 2150 1697 2047 
L 1894 2003 
Q 2506 1872 2764 1633 
Q 3022 1394 3022 966 
Q 3022 478 2636 193 
Q 2250 -91 1575 -91 
Q 1294 -91 989 -36 
Q 684 19 347 128 
L 347 722 
Q 666 556 975 473 
Q 1284 391 1588 391 
Q 1994 391 2212 530 
Q 2431 669 2431 922 
Q 2431 1156 2273 1281 
Q 2116 1406 1581 1522 
L 1381 1569 
Q 847 1681 609 1914 
Q 372 2147 372 2553 
Q 372 3047 722 3315 
Q 1072 3584 1716 3584 
Q 2034 3584 2315 3537 
Q 2597 3491 2834 3397 
z
" id="DejaVuSans-73" transform="scale(0.015625)"/>
      </defs>
      <use xlink:href="#DejaVuSans-54"/>
      <use x="46.333984" xlink:href="#DejaVuSans-72"/>
      <use x="87.447266" xlink:href="#DejaVuSans-61"/>
      <use x="148.726562" xlink:href="#DejaVuSans-69"/>
      <use x="176.509766" xlink:href="#DejaVuSans-6e"/>
      <use x="239.888672" xlink:href="#DejaVuSans-20"/>
      <use x="271.675781" xlink:href="#DejaVuSans-6c"/>
      <use x="299.458984" xlink:href="#DejaVuSans-6f"/>
      <use x="360.640625" xlink:href="#DejaVuSans-73"/>
      <use x="412.740234" xlink:href="#DejaVuSans-73"/>
     </g>
    </g>
    <g id="line2d_19">
     <path d="M 305.845 69.248562 
L 325.845 69.248562 
" style="fill:none;stroke:#ff7f0e;stroke-linecap:square;stroke-width:1.5;"/>
    </g>
    <g id="line2d_20"/>
    <g id="text_17">
     <!-- Validation loss -->
     <g transform="translate(333.845 72.748562)scale(0.1 -0.1)">
      <defs>
       <path d="M 1831 0 
L 50 4666 
L 709 4666 
L 2188 738 
L 3669 4666 
L 4325 4666 
L 2547 0 
L 1831 0 
z
" id="DejaVuSans-56" transform="scale(0.015625)"/>
       <path d="M 2906 2969 
L 2906 4863 
L 3481 4863 
L 3481 0 
L 2906 0 
L 2906 525 
Q 2725 213 2448 61 
Q 2172 -91 1784 -91 
Q 1150 -91 751 415 
Q 353 922 353 1747 
Q 353 2572 751 3078 
Q 1150 3584 1784 3584 
Q 2172 3584 2448 3432 
Q 2725 3281 2906 2969 
z
M 947 1747 
Q 947 1113 1208 752 
Q 1469 391 1925 391 
Q 2381 391 2643 752 
Q 2906 1113 2906 1747 
Q 2906 2381 2643 2742 
Q 2381 3103 1925 3103 
Q 1469 3103 1208 2742 
Q 947 2381 947 1747 
z
" id="DejaVuSans-64" transform="scale(0.015625)"/>
       <path d="M 1172 4494 
L 1172 3500 
L 2356 3500 
L 2356 3053 
L 1172 3053 
L 1172 1153 
Q 1172 725 1289 603 
Q 1406 481 1766 481 
L 2356 481 
L 2356 0 
L 1766 0 
Q 1100 0 847 248 
Q 594 497 594 1153 
L 594 3053 
L 172 3053 
L 172 3500 
L 594 3500 
L 594 4494 
L 1172 4494 
z
" id="DejaVuSans-74" transform="scale(0.015625)"/>
      </defs>
      <use xlink:href="#DejaVuSans-56"/>
      <use x="60.658203" xlink:href="#DejaVuSans-61"/>
      <use x="121.9375" xlink:href="#DejaVuSans-6c"/>
      <use x="149.720703" xlink:href="#DejaVuSans-69"/>
      <use x="177.503906" xlink:href="#DejaVuSans-64"/>
      <use x="240.980469" xlink:href="#DejaVuSans-61"/>
      <use x="302.259766" xlink:href="#DejaVuSans-74"/>
      <use x="341.46875" xlink:href="#DejaVuSans-69"/>
      <use x="369.251953" xlink:href="#DejaVuSans-6f"/>
      <use x="430.433594" xlink:href="#DejaVuSans-6e"/>
      <use x="493.8125" xlink:href="#DejaVuSans-20"/>
      <use x="525.599609" xlink:href="#DejaVuSans-6c"/>
      <use x="553.382812" xlink:href="#DejaVuSans-6f"/>
      <use x="614.564453" xlink:href="#DejaVuSans-73"/>
      <use x="666.664062" xlink:href="#DejaVuSans-73"/>
     </g>
    </g>
   </g>
  </g>
 </g>
 <defs>
  <clipPath id="p6f4d60b5f6">
   <rect height="266.112" width="357.12" x="57.6" y="41.472"/>
  </clipPath>
 </defs>
</svg>
