<?xml version="1.0" encoding="utf-8" standalone="no"?>
<!DOCTYPE svg PUBLIC "-//W3C//DTD SVG 1.1//EN"
  "http://www.w3.org/Graphics/SVG/1.1/DTD/svg11.dtd">
<svg height="345.6pt" version="1.1" viewBox="0 0 460.8 345.6" width="460.8pt" xmlns="http://www.w3.org/2000/svg" xmlns:xlink="http://www.w3.org/1999/xlink">
 <metadata>
  <rdf:RDF xmlns:cc="http://creativecommons.org/ns#" xmlns:dc="http://purl.org/dc/elements/1.1/" xmlns:rdf="http://www.w3.org/1999/02/22-rdf-syntax-ns#">
   <cc:Work>
    <dc:type rdf:resource="http://purl.org/dc/dcmitype/StillImage"/>
    <dc:date>2021-08-10T00:39:26.132706</dc:date>
    <dc:format>image/svg+xml</dc:format>
    <dc:creator>
     <cc:Agent>
      <dc:title>Matplotlib v3.4.1, https://matplotlib.org/</dc:title>
     </cc:Agent>
    </dc:creator>
   </cc:Work>
  </rdf:RDF>
 </metadata>
 <defs>
  <style type="text/css">*{stroke-linecap:butt;stroke-linejoin:round;}</style>
 </defs>
 <g id="figure_1">
  <g id="patch_1">
   <path d="M 0 345.6 
L 460.8 345.6 
L 460.8 0 
L 0 0 
z
" style="fill:#ffffff;"/>
  </g>
  <g id="axes_1">
   <g id="patch_2">
    <path d="M 57.6 307.584 
L 414.72 307.584 
L 414.72 41.472 
L 57.6 41.472 
z
" style="fill:#ffffff;"/>
   </g>
   <g id="matplotlib.axis_1">
    <g id="xtick_1">
     <g id="line2d_1">
      <defs>
       <path d="M 0 0 
L 0 3.5 
" id="mc9ea1c7602" style="stroke:#000000;stroke-width:0.8;"/>
      </defs>
      <g>
       <use style="stroke:#000000;stroke-width:0.8;" x="73.393411" xlink:href="#mc9ea1c7602" y="307.584"/>
      </g>
     </g>
     <g id="text_1">
      <!-- 0 -->
      <g transform="translate(70.212161 322.182437)scale(0.1 -0.1)">
       <defs>
        <path d="M 2034 4250 
Q 1547 4250 1301 3770 
Q 1056 3291 1056 2328 
Q 1056 1369 1301 889 
Q 1547 409 2034 409 
Q 2525 409 2770 889 
Q 3016 1369 3016 2328 
Q 3016 3291 2770 3770 
Q 2525 4250 2034 4250 
z
M 2034 4750 
Q 2819 4750 3233 4129 
Q 3647 3509 3647 2328 
Q 3647 1150 3233 529 
Q 2819 -91 2034 -91 
Q 1250 -91 836 529 
Q 422 1150 422 2328 
Q 422 3509 836 4129 
Q 1250 4750 2034 4750 
z
" id="DejaVuSans-30" transform="scale(0.015625)"/>
       </defs>
       <use xlink:href="#DejaVuSans-30"/>
      </g>
     </g>
    </g>
    <g id="xtick_2">
     <g id="line2d_2">
      <g>
       <use style="stroke:#000000;stroke-width:0.8;" x="117.325014" xlink:href="#mc9ea1c7602" y="307.584"/>
      </g>
     </g>
     <g id="text_2">
      <!-- 100 -->
      <g transform="translate(107.781264 322.182437)scale(0.1 -0.1)">
       <defs>
        <path d="M 794 531 
L 1825 531 
L 1825 4091 
L 703 3866 
L 703 4441 
L 1819 4666 
L 2450 4666 
L 2450 531 
L 3481 531 
L 3481 0 
L 794 0 
L 794 531 
z
" id="DejaVuSans-31" transform="scale(0.015625)"/>
       </defs>
       <use xlink:href="#DejaVuSans-31"/>
       <use x="63.623047" xlink:href="#DejaVuSans-30"/>
       <use x="127.246094" xlink:href="#DejaVuSans-30"/>
      </g>
     </g>
    </g>
    <g id="xtick_3">
     <g id="line2d_3">
      <g>
       <use style="stroke:#000000;stroke-width:0.8;" x="161.256617" xlink:href="#mc9ea1c7602" y="307.584"/>
      </g>
     </g>
     <g id="text_3">
      <!-- 200 -->
      <g transform="translate(151.712867 322.182437)scale(0.1 -0.1)">
       <defs>
        <path d="M 1228 531 
L 3431 531 
L 3431 0 
L 469 0 
L 469 531 
Q 828 903 1448 1529 
Q 2069 2156 2228 2338 
Q 2531 2678 2651 2914 
Q 2772 3150 2772 3378 
Q 2772 3750 2511 3984 
Q 2250 4219 1831 4219 
Q 1534 4219 1204 4116 
Q 875 4013 500 3803 
L 500 4441 
Q 881 4594 1212 4672 
Q 1544 4750 1819 4750 
Q 2544 4750 2975 4387 
Q 3406 4025 3406 3419 
Q 3406 3131 3298 2873 
Q 3191 2616 2906 2266 
Q 2828 2175 2409 1742 
Q 1991 1309 1228 531 
z
" id="DejaVuSans-32" transform="scale(0.015625)"/>
       </defs>
       <use xlink:href="#DejaVuSans-32"/>
       <use x="63.623047" xlink:href="#DejaVuSans-30"/>
       <use x="127.246094" xlink:href="#DejaVuSans-30"/>
      </g>
     </g>
    </g>
    <g id="xtick_4">
     <g id="line2d_4">
      <g>
       <use style="stroke:#000000;stroke-width:0.8;" x="205.18822" xlink:href="#mc9ea1c7602" y="307.584"/>
      </g>
     </g>
     <g id="text_4">
      <!-- 300 -->
      <g transform="translate(195.64447 322.182437)scale(0.1 -0.1)">
       <defs>
        <path d="M 2597 2516 
Q 3050 2419 3304 2112 
Q 3559 1806 3559 1356 
Q 3559 666 3084 287 
Q 2609 -91 1734 -91 
Q 1441 -91 1130 -33 
Q 819 25 488 141 
L 488 750 
Q 750 597 1062 519 
Q 1375 441 1716 441 
Q 2309 441 2620 675 
Q 2931 909 2931 1356 
Q 2931 1769 2642 2001 
Q 2353 2234 1838 2234 
L 1294 2234 
L 1294 2753 
L 1863 2753 
Q 2328 2753 2575 2939 
Q 2822 3125 2822 3475 
Q 2822 3834 2567 4026 
Q 2313 4219 1838 4219 
Q 1578 4219 1281 4162 
Q 984 4106 628 3988 
L 628 4550 
Q 988 4650 1302 4700 
Q 1616 4750 1894 4750 
Q 2613 4750 3031 4423 
Q 3450 4097 3450 3541 
Q 3450 3153 3228 2886 
Q 3006 2619 2597 2516 
z
" id="DejaVuSans-33" transform="scale(0.015625)"/>
       </defs>
       <use xlink:href="#DejaVuSans-33"/>
       <use x="63.623047" xlink:href="#DejaVuSans-30"/>
       <use x="127.246094" xlink:href="#DejaVuSans-30"/>
      </g>
     </g>
    </g>
    <g id="xtick_5">
     <g id="line2d_5">
      <g>
       <use style="stroke:#000000;stroke-width:0.8;" x="249.119823" xlink:href="#mc9ea1c7602" y="307.584"/>
      </g>
     </g>
     <g id="text_5">
      <!-- 400 -->
      <g transform="translate(239.576073 322.182437)scale(0.1 -0.1)">
       <defs>
        <path d="M 2419 4116 
L 825 1625 
L 2419 1625 
L 2419 4116 
z
M 2253 4666 
L 3047 4666 
L 3047 1625 
L 3713 1625 
L 3713 1100 
L 3047 1100 
L 3047 0 
L 2419 0 
L 2419 1100 
L 313 1100 
L 313 1709 
L 2253 4666 
z
" id="DejaVuSans-34" transform="scale(0.015625)"/>
       </defs>
       <use xlink:href="#DejaVuSans-34"/>
       <use x="63.623047" xlink:href="#DejaVuSans-30"/>
       <use x="127.246094" xlink:href="#DejaVuSans-30"/>
      </g>
     </g>
    </g>
    <g id="xtick_6">
     <g id="line2d_6">
      <g>
       <use style="stroke:#000000;stroke-width:0.8;" x="293.051426" xlink:href="#mc9ea1c7602" y="307.584"/>
      </g>
     </g>
     <g id="text_6">
      <!-- 500 -->
      <g transform="translate(283.507676 322.182437)scale(0.1 -0.1)">
       <defs>
        <path d="M 691 4666 
L 3169 4666 
L 3169 4134 
L 1269 4134 
L 1269 2991 
Q 1406 3038 1543 3061 
Q 1681 3084 1819 3084 
Q 2600 3084 3056 2656 
Q 3513 2228 3513 1497 
Q 3513 744 3044 326 
Q 2575 -91 1722 -91 
Q 1428 -91 1123 -41 
Q 819 9 494 109 
L 494 744 
Q 775 591 1075 516 
Q 1375 441 1709 441 
Q 2250 441 2565 725 
Q 2881 1009 2881 1497 
Q 2881 1984 2565 2268 
Q 2250 2553 1709 2553 
Q 1456 2553 1204 2497 
Q 953 2441 691 2322 
L 691 4666 
z
" id="DejaVuSans-35" transform="scale(0.015625)"/>
       </defs>
       <use xlink:href="#DejaVuSans-35"/>
       <use x="63.623047" xlink:href="#DejaVuSans-30"/>
       <use x="127.246094" xlink:href="#DejaVuSans-30"/>
      </g>
     </g>
    </g>
    <g id="xtick_7">
     <g id="line2d_7">
      <g>
       <use style="stroke:#000000;stroke-width:0.8;" x="336.983029" xlink:href="#mc9ea1c7602" y="307.584"/>
      </g>
     </g>
     <g id="text_7">
      <!-- 600 -->
      <g transform="translate(327.439279 322.182437)scale(0.1 -0.1)">
       <defs>
        <path d="M 2113 2584 
Q 1688 2584 1439 2293 
Q 1191 2003 1191 1497 
Q 1191 994 1439 701 
Q 1688 409 2113 409 
Q 2538 409 2786 701 
Q 3034 994 3034 1497 
Q 3034 2003 2786 2293 
Q 2538 2584 2113 2584 
z
M 3366 4563 
L 3366 3988 
Q 3128 4100 2886 4159 
Q 2644 4219 2406 4219 
Q 1781 4219 1451 3797 
Q 1122 3375 1075 2522 
Q 1259 2794 1537 2939 
Q 1816 3084 2150 3084 
Q 2853 3084 3261 2657 
Q 3669 2231 3669 1497 
Q 3669 778 3244 343 
Q 2819 -91 2113 -91 
Q 1303 -91 875 529 
Q 447 1150 447 2328 
Q 447 3434 972 4092 
Q 1497 4750 2381 4750 
Q 2619 4750 2861 4703 
Q 3103 4656 3366 4563 
z
" id="DejaVuSans-36" transform="scale(0.015625)"/>
       </defs>
       <use xlink:href="#DejaVuSans-36"/>
       <use x="63.623047" xlink:href="#DejaVuSans-30"/>
       <use x="127.246094" xlink:href="#DejaVuSans-30"/>
      </g>
     </g>
    </g>
    <g id="xtick_8">
     <g id="line2d_8">
      <g>
       <use style="stroke:#000000;stroke-width:0.8;" x="380.914632" xlink:href="#mc9ea1c7602" y="307.584"/>
      </g>
     </g>
     <g id="text_8">
      <!-- 700 -->
      <g transform="translate(371.370882 322.182437)scale(0.1 -0.1)">
       <defs>
        <path d="M 525 4666 
L 3525 4666 
L 3525 4397 
L 1831 0 
L 1172 0 
L 2766 4134 
L 525 4134 
L 525 4666 
z
" id="DejaVuSans-37" transform="scale(0.015625)"/>
       </defs>
       <use xlink:href="#DejaVuSans-37"/>
       <use x="63.623047" xlink:href="#DejaVuSans-30"/>
       <use x="127.246094" xlink:href="#DejaVuSans-30"/>
      </g>
     </g>
    </g>
    <g id="text_9">
     <!-- Epoch -->
     <g transform="translate(213.193594 339.659781)scale(0.15 -0.15)">
      <defs>
       <path d="M 628 4666 
L 3578 4666 
L 3578 4134 
L 1259 4134 
L 1259 2753 
L 3481 2753 
L 3481 2222 
L 1259 2222 
L 1259 531 
L 3634 531 
L 3634 0 
L 628 0 
L 628 4666 
z
" id="DejaVuSans-45" transform="scale(0.015625)"/>
       <path d="M 1159 525 
L 1159 -1331 
L 581 -1331 
L 581 3500 
L 1159 3500 
L 1159 2969 
Q 1341 3281 1617 3432 
Q 1894 3584 2278 3584 
Q 2916 3584 3314 3078 
Q 3713 2572 3713 1747 
Q 3713 922 3314 415 
Q 2916 -91 2278 -91 
Q 1894 -91 1617 61 
Q 1341 213 1159 525 
z
M 3116 1747 
Q 3116 2381 2855 2742 
Q 2594 3103 2138 3103 
Q 1681 3103 1420 2742 
Q 1159 2381 1159 1747 
Q 1159 1113 1420 752 
Q 1681 391 2138 391 
Q 2594 391 2855 752 
Q 3116 1113 3116 1747 
z
" id="DejaVuSans-70" transform="scale(0.015625)"/>
       <path d="M 1959 3097 
Q 1497 3097 1228 2736 
Q 959 2375 959 1747 
Q 959 1119 1226 758 
Q 1494 397 1959 397 
Q 2419 397 2687 759 
Q 2956 1122 2956 1747 
Q 2956 2369 2687 2733 
Q 2419 3097 1959 3097 
z
M 1959 3584 
Q 2709 3584 3137 3096 
Q 3566 2609 3566 1747 
Q 3566 888 3137 398 
Q 2709 -91 1959 -91 
Q 1206 -91 779 398 
Q 353 888 353 1747 
Q 353 2609 779 3096 
Q 1206 3584 1959 3584 
z
" id="DejaVuSans-6f" transform="scale(0.015625)"/>
       <path d="M 3122 3366 
L 3122 2828 
Q 2878 2963 2633 3030 
Q 2388 3097 2138 3097 
Q 1578 3097 1268 2742 
Q 959 2388 959 1747 
Q 959 1106 1268 751 
Q 1578 397 2138 397 
Q 2388 397 2633 464 
Q 2878 531 3122 666 
L 3122 134 
Q 2881 22 2623 -34 
Q 2366 -91 2075 -91 
Q 1284 -91 818 406 
Q 353 903 353 1747 
Q 353 2603 823 3093 
Q 1294 3584 2113 3584 
Q 2378 3584 2631 3529 
Q 2884 3475 3122 3366 
z
" id="DejaVuSans-63" transform="scale(0.015625)"/>
       <path d="M 3513 2113 
L 3513 0 
L 2938 0 
L 2938 2094 
Q 2938 2591 2744 2837 
Q 2550 3084 2163 3084 
Q 1697 3084 1428 2787 
Q 1159 2491 1159 1978 
L 1159 0 
L 581 0 
L 581 4863 
L 1159 4863 
L 1159 2956 
Q 1366 3272 1645 3428 
Q 1925 3584 2291 3584 
Q 2894 3584 3203 3211 
Q 3513 2838 3513 2113 
z
" id="DejaVuSans-68" transform="scale(0.015625)"/>
      </defs>
      <use xlink:href="#DejaVuSans-45"/>
      <use x="63.183594" xlink:href="#DejaVuSans-70"/>
      <use x="126.660156" xlink:href="#DejaVuSans-6f"/>
      <use x="187.841797" xlink:href="#DejaVuSans-63"/>
      <use x="242.822266" xlink:href="#DejaVuSans-68"/>
     </g>
    </g>
   </g>
   <g id="matplotlib.axis_2">
    <g id="ytick_1">
     <g id="line2d_9">
      <defs>
       <path d="M 0 0 
L -3.5 0 
" id="ma57adb060c" style="stroke:#000000;stroke-width:0.8;"/>
      </defs>
      <g>
       <use style="stroke:#000000;stroke-width:0.8;" x="57.6" xlink:href="#ma57adb060c" y="302.40335"/>
      </g>
     </g>
     <g id="text_10">
      <!-- 0.0 -->
      <g transform="translate(34.696875 306.202569)scale(0.1 -0.1)">
       <defs>
        <path d="M 684 794 
L 1344 794 
L 1344 0 
L 684 0 
L 684 794 
z
" id="DejaVuSans-2e" transform="scale(0.015625)"/>
       </defs>
       <use xlink:href="#DejaVuSans-30"/>
       <use x="63.623047" xlink:href="#DejaVuSans-2e"/>
       <use x="95.410156" xlink:href="#DejaVuSans-30"/>
      </g>
     </g>
    </g>
    <g id="ytick_2">
     <g id="line2d_10">
      <g>
       <use style="stroke:#000000;stroke-width:0.8;" x="57.6" xlink:href="#ma57adb060c" y="265.432452"/>
      </g>
     </g>
     <g id="text_11">
      <!-- 0.2 -->
      <g transform="translate(34.696875 269.231671)scale(0.1 -0.1)">
       <use xlink:href="#DejaVuSans-30"/>
       <use x="63.623047" xlink:href="#DejaVuSans-2e"/>
       <use x="95.410156" xlink:href="#DejaVuSans-32"/>
      </g>
     </g>
    </g>
    <g id="ytick_3">
     <g id="line2d_11">
      <g>
       <use style="stroke:#000000;stroke-width:0.8;" x="57.6" xlink:href="#ma57adb060c" y="228.461554"/>
      </g>
     </g>
     <g id="text_12">
      <!-- 0.4 -->
      <g transform="translate(34.696875 232.260772)scale(0.1 -0.1)">
       <use xlink:href="#DejaVuSans-30"/>
       <use x="63.623047" xlink:href="#DejaVuSans-2e"/>
       <use x="95.410156" xlink:href="#DejaVuSans-34"/>
      </g>
     </g>
    </g>
    <g id="ytick_4">
     <g id="line2d_12">
      <g>
       <use style="stroke:#000000;stroke-width:0.8;" x="57.6" xlink:href="#ma57adb060c" y="191.490655"/>
      </g>
     </g>
     <g id="text_13">
      <!-- 0.6 -->
      <g transform="translate(34.696875 195.289874)scale(0.1 -0.1)">
       <use xlink:href="#DejaVuSans-30"/>
       <use x="63.623047" xlink:href="#DejaVuSans-2e"/>
       <use x="95.410156" xlink:href="#DejaVuSans-36"/>
      </g>
     </g>
    </g>
    <g id="ytick_5">
     <g id="line2d_13">
      <g>
       <use style="stroke:#000000;stroke-width:0.8;" x="57.6" xlink:href="#ma57adb060c" y="154.519757"/>
      </g>
     </g>
     <g id="text_14">
      <!-- 0.8 -->
      <g transform="translate(34.696875 158.318976)scale(0.1 -0.1)">
       <defs>
        <path d="M 2034 2216 
Q 1584 2216 1326 1975 
Q 1069 1734 1069 1313 
Q 1069 891 1326 650 
Q 1584 409 2034 409 
Q 2484 409 2743 651 
Q 3003 894 3003 1313 
Q 3003 1734 2745 1975 
Q 2488 2216 2034 2216 
z
M 1403 2484 
Q 997 2584 770 2862 
Q 544 3141 544 3541 
Q 544 4100 942 4425 
Q 1341 4750 2034 4750 
Q 2731 4750 3128 4425 
Q 3525 4100 3525 3541 
Q 3525 3141 3298 2862 
Q 3072 2584 2669 2484 
Q 3125 2378 3379 2068 
Q 3634 1759 3634 1313 
Q 3634 634 3220 271 
Q 2806 -91 2034 -91 
Q 1263 -91 848 271 
Q 434 634 434 1313 
Q 434 1759 690 2068 
Q 947 2378 1403 2484 
z
M 1172 3481 
Q 1172 3119 1398 2916 
Q 1625 2713 2034 2713 
Q 2441 2713 2670 2916 
Q 2900 3119 2900 3481 
Q 2900 3844 2670 4047 
Q 2441 4250 2034 4250 
Q 1625 4250 1398 4047 
Q 1172 3844 1172 3481 
z
" id="DejaVuSans-38" transform="scale(0.015625)"/>
       </defs>
       <use xlink:href="#DejaVuSans-30"/>
       <use x="63.623047" xlink:href="#DejaVuSans-2e"/>
       <use x="95.410156" xlink:href="#DejaVuSans-38"/>
      </g>
     </g>
    </g>
    <g id="ytick_6">
     <g id="line2d_14">
      <g>
       <use style="stroke:#000000;stroke-width:0.8;" x="57.6" xlink:href="#ma57adb060c" y="117.548859"/>
      </g>
     </g>
     <g id="text_15">
      <!-- 1.0 -->
      <g transform="translate(34.696875 121.348078)scale(0.1 -0.1)">
       <use xlink:href="#DejaVuSans-31"/>
       <use x="63.623047" xlink:href="#DejaVuSans-2e"/>
       <use x="95.410156" xlink:href="#DejaVuSans-30"/>
      </g>
     </g>
    </g>
    <g id="ytick_7">
     <g id="line2d_15">
      <g>
       <use style="stroke:#000000;stroke-width:0.8;" x="57.6" xlink:href="#ma57adb060c" y="80.577961"/>
      </g>
     </g>
     <g id="text_16">
      <!-- 1.2 -->
      <g transform="translate(34.696875 84.37718)scale(0.1 -0.1)">
       <use xlink:href="#DejaVuSans-31"/>
       <use x="63.623047" xlink:href="#DejaVuSans-2e"/>
       <use x="95.410156" xlink:href="#DejaVuSans-32"/>
      </g>
     </g>
    </g>
    <g id="ytick_8">
     <g id="line2d_16">
      <g>
       <use style="stroke:#000000;stroke-width:0.8;" x="57.6" xlink:href="#ma57adb060c" y="43.607063"/>
      </g>
     </g>
     <g id="text_17">
      <!-- 1.4 -->
      <g transform="translate(34.696875 47.406281)scale(0.1 -0.1)">
       <use xlink:href="#DejaVuSans-31"/>
       <use x="63.623047" xlink:href="#DejaVuSans-2e"/>
       <use x="95.410156" xlink:href="#DejaVuSans-34"/>
      </g>
     </g>
    </g>
   </g>
   <g id="line2d_17">
    <path clip-path="url(#pd230125446)" d="M 73.832727 219.030328 
L 74.272043 219.023891 
L 74.711359 223.540502 
L 75.150675 225.844553 
L 76.029307 214.046992 
L 76.907939 224.263797 
L 77.347256 221.00626 
L 78.225888 220.310981 
L 78.665204 226.494442 
L 79.543836 218.457902 
L 79.983152 224.897338 
L 80.422468 217.551421 
L 80.861784 216.920879 
L 81.740416 227.007444 
L 82.179732 222.727782 
L 82.619048 225.083695 
L 83.058364 222.463665 
L 83.49768 222.459745 
L 83.936996 220.825523 
L 84.376312 221.216014 
L 84.815628 217.81016 
L 85.254944 221.432457 
L 85.69426 228.019939 
L 86.133576 218.726933 
L 86.572892 224.594087 
L 87.012208 216.518267 
L 87.451524 211.117803 
L 87.89084 208.787659 
L 88.330156 201.677072 
L 88.769472 209.549753 
L 89.208788 214.113543 
L 89.648104 226.062355 
L 90.08742 222.211871 
L 90.526736 219.989921 
L 90.966052 223.664475 
L 91.405368 229.382447 
L 91.844684 221.771367 
L 92.284 221.816081 
L 92.723317 226.560515 
L 93.162633 219.947646 
L 93.601949 218.589731 
L 94.041265 234.574258 
L 94.480581 218.184266 
L 94.919897 223.740349 
L 95.359213 221.077281 
L 95.798529 224.346635 
L 96.237845 219.915113 
L 96.677161 225.437222 
L 97.116477 227.317196 
L 97.555793 224.720273 
L 97.995109 223.419143 
L 98.434425 222.658991 
L 98.873741 224.690249 
L 99.313057 215.836991 
L 99.752373 218.376987 
L 100.191689 226.980823 
L 100.631005 220.266888 
L 101.070321 218.309747 
L 101.948953 225.7292 
L 102.388269 224.001387 
L 102.827585 231.434732 
L 103.266901 226.698476 
L 103.706217 219.240454 
L 104.145533 221.692256 
L 104.584849 216.692419 
L 105.024165 224.165007 
L 105.463481 222.606509 
L 105.902797 221.613618 
L 106.342113 222.546531 
L 106.781429 226.402984 
L 107.220745 228.017684 
L 107.660062 221.108601 
L 108.099378 223.245434 
L 108.538694 217.937299 
L 108.97801 230.009553 
L 109.417326 222.152281 
L 109.856642 222.626371 
L 110.295958 222.532026 
L 110.735274 227.288449 
L 111.17459 225.84664 
L 111.613906 225.575701 
L 112.053222 221.926384 
L 112.492538 224.311024 
L 112.931854 225.142099 
L 113.37117 228.551529 
L 113.810486 223.754036 
L 114.249802 226.348073 
L 114.689118 224.503811 
L 115.128434 223.374524 
L 115.56775 223.606608 
L 116.007066 223.351691 
L 116.446382 222.780375 
L 116.885698 223.019194 
L 117.325014 219.651159 
L 117.76433 221.347206 
L 118.203646 231.378768 
L 118.642962 226.991125 
L 119.082278 226.586499 
L 119.521594 228.510327 
L 119.96091 220.722751 
L 120.400226 228.223162 
L 120.839542 224.455557 
L 121.278858 231.335377 
L 121.718174 225.571579 
L 122.15749 228.678615 
L 122.596806 226.720201 
L 123.036123 229.456376 
L 123.475439 228.881092 
L 123.914755 233.592285 
L 124.354071 234.102471 
L 124.793387 225.588235 
L 125.232703 239.474249 
L 125.672019 225.393537 
L 126.550651 234.754947 
L 126.989967 235.76945 
L 127.429283 234.320899 
L 127.868599 231.560255 
L 128.307915 232.079163 
L 128.747231 229.954225 
L 129.186547 232.945066 
L 129.625863 233.05633 
L 130.065179 238.073623 
L 130.504495 244.84818 
L 131.383127 230.92376 
L 131.822443 232.107243 
L 132.261759 240.704484 
L 132.701075 235.145708 
L 133.140391 240.166128 
L 133.579707 241.169581 
L 134.019023 239.19499 
L 134.897655 234.249828 
L 135.336971 237.422336 
L 135.776287 243.249833 
L 136.215603 234.086629 
L 136.654919 244.20177 
L 137.094235 241.372296 
L 137.533551 240.44563 
L 137.972868 235.089338 
L 138.412184 242.435423 
L 138.8515 238.743831 
L 139.290816 232.490114 
L 139.730132 242.004693 
L 140.169448 247.484794 
L 140.608764 242.615953 
L 141.04808 248.224217 
L 141.487396 236.550466 
L 141.926712 239.796238 
L 142.366028 246.013896 
L 142.805344 243.859123 
L 143.24466 248.078023 
L 143.683976 243.219862 
L 144.123292 246.23137 
L 144.562608 247.994176 
L 145.001924 248.95679 
L 145.44124 245.802553 
L 145.880556 239.954166 
L 146.319872 247.958073 
L 146.759188 248.279828 
L 147.198504 249.145303 
L 147.63782 247.570081 
L 148.077136 256.658647 
L 148.516452 257.357122 
L 148.955768 241.754573 
L 149.395084 241.107691 
L 150.713032 259.865933 
L 151.152348 251.346846 
L 151.591664 258.663783 
L 152.03098 252.110593 
L 152.470296 254.468298 
L 152.909612 255.652523 
L 153.348929 248.033944 
L 153.788245 258.713168 
L 154.227561 251.031282 
L 154.666877 259.722993 
L 155.106193 252.93876 
L 155.545509 258.48377 
L 155.984825 254.929423 
L 156.424141 247.171962 
L 156.863457 248.734515 
L 157.302773 256.468141 
L 157.742089 251.056301 
L 158.181405 259.427214 
L 158.620721 263.234531 
L 159.060037 260.850836 
L 159.499353 261.324594 
L 159.938669 254.586831 
L 160.377985 257.387535 
L 160.817301 263.686283 
L 161.695933 252.78116 
L 162.135249 262.184793 
L 162.574565 257.904 
L 163.013881 256.215059 
L 163.453197 255.617019 
L 163.892513 256.728822 
L 164.331829 261.904078 
L 164.771145 261.479904 
L 165.210461 267.039342 
L 165.649777 259.187266 
L 166.089093 256.416844 
L 166.528409 261.617335 
L 166.967725 258.526676 
L 167.407041 258.115599 
L 167.846357 257.246799 
L 168.285674 259.422354 
L 168.72499 259.18218 
L 169.164306 256.695512 
L 169.603622 257.928023 
L 170.042938 259.961744 
L 170.482254 264.047006 
L 170.92157 260.19386 
L 171.360886 264.738499 
L 171.800202 255.773629 
L 172.239518 256.931055 
L 172.678834 256.492887 
L 173.11815 262.603252 
L 173.557466 258.646633 
L 173.996782 265.998565 
L 174.875414 260.528136 
L 175.31473 268.132102 
L 175.754046 256.684002 
L 176.193362 266.788465 
L 176.632678 264.342347 
L 177.071994 262.557066 
L 177.51131 266.181707 
L 177.950626 265.65629 
L 178.389942 269.673701 
L 178.829258 263.689461 
L 179.268574 263.296714 
L 179.70789 260.602802 
L 180.147206 261.329383 
L 180.586522 271.255861 
L 181.025838 264.819867 
L 181.465154 261.521726 
L 181.90447 262.775504 
L 182.343786 257.49269 
L 182.783102 266.078644 
L 183.222419 254.260703 
L 183.661735 261.276449 
L 184.101051 261.712687 
L 184.540367 261.906406 
L 184.979683 267.234672 
L 185.418999 264.513183 
L 185.858315 266.311654 
L 186.297631 268.991852 
L 186.736947 257.797981 
L 187.176263 266.53282 
L 187.615579 263.567749 
L 188.054895 266.101657 
L 188.494211 257.447095 
L 189.372843 270.520584 
L 189.812159 268.345034 
L 190.251475 258.563022 
L 190.690791 268.008618 
L 191.130107 264.174754 
L 191.569423 263.582886 
L 192.008739 265.963857 
L 192.448055 262.031287 
L 192.887371 272.385439 
L 193.766003 264.752715 
L 194.205319 266.625061 
L 194.644635 272.699578 
L 195.083951 270.556141 
L 195.523267 271.308148 
L 195.962583 268.498806 
L 196.401899 262.959986 
L 196.841215 265.521356 
L 197.280531 266.105955 
L 197.719847 260.467985 
L 198.159163 272.736687 
L 198.59848 270.998403 
L 199.037796 270.968351 
L 199.477112 273.732444 
L 199.916428 266.603624 
L 200.355744 267.486569 
L 200.79506 260.372541 
L 201.234376 266.399484 
L 201.673692 265.642457 
L 202.113008 277.828888 
L 202.552324 268.741287 
L 202.99164 270.894716 
L 203.430956 272.187424 
L 203.870272 269.864294 
L 204.309588 273.95192 
L 204.748904 269.834423 
L 205.18822 278.129347 
L 205.627536 261.835666 
L 206.066852 267.27415 
L 206.506168 275.117525 
L 206.945484 270.580376 
L 207.3848 272.385127 
L 207.824116 269.44606 
L 208.263432 269.924886 
L 208.702748 268.458244 
L 209.142064 275.013264 
L 209.58138 265.22581 
L 210.020696 265.374892 
L 210.899328 274.400337 
L 211.338644 275.143432 
L 211.77796 269.985104 
L 212.217276 270.414521 
L 212.656592 272.623451 
L 213.095908 276.740477 
L 213.535225 273.233369 
L 213.974541 278.2478 
L 214.413857 264.824727 
L 214.853173 275.765982 
L 215.292489 273.060284 
L 215.731805 273.279654 
L 216.171121 272.366397 
L 216.610437 279.696305 
L 217.049753 276.82681 
L 217.489069 268.010343 
L 217.928385 272.000105 
L 218.367701 272.481908 
L 218.807017 272.698881 
L 219.246333 275.013278 
L 219.685649 271.018495 
L 220.124965 277.472125 
L 220.564281 275.086032 
L 221.003597 275.659345 
L 221.442913 282.37095 
L 221.882229 270.201138 
L 222.760861 282.190536 
L 223.639493 274.251648 
L 224.078809 282.9297 
L 224.518125 278.723874 
L 224.957441 271.641006 
L 225.836073 277.326886 
L 226.275389 270.013067 
L 226.714705 272.639874 
L 227.154021 274.467765 
L 227.593337 269.851745 
L 228.032653 270.505964 
L 228.471969 276.619098 
L 228.911286 263.232357 
L 229.789918 277.016043 
L 230.229234 277.470028 
L 230.66855 270.6545 
L 231.107866 278.531139 
L 231.547182 278.391388 
L 231.986498 279.875453 
L 232.425814 280.235092 
L 232.86513 277.609215 
L 233.304446 275.822807 
L 233.743762 277.490218 
L 234.183078 277.595201 
L 234.622394 280.10398 
L 235.06171 280.315254 
L 235.501026 278.159285 
L 235.940342 282.055902 
L 236.379658 274.807442 
L 236.818974 278.928339 
L 237.25829 278.551512 
L 237.697606 273.306232 
L 238.136922 271.270441 
L 238.576238 270.166161 
L 239.015554 279.178707 
L 239.45487 276.931638 
L 239.894186 281.79708 
L 240.333502 275.575053 
L 240.772818 275.410751 
L 241.65145 280.751736 
L 242.090766 272.349948 
L 242.530082 279.619987 
L 243.848031 268.452559 
L 244.287347 273.669592 
L 244.726663 275.124725 
L 245.165979 274.685676 
L 245.605295 279.208426 
L 246.044611 277.102066 
L 246.483927 278.128032 
L 246.923243 278.273486 
L 247.362559 275.871132 
L 247.801875 286.221316 
L 248.241191 278.665378 
L 248.680507 279.670931 
L 249.119823 274.507476 
L 249.559139 284.384838 
L 249.998455 280.920618 
L 250.437771 276.356579 
L 250.877087 282.238905 
L 251.316403 272.793572 
L 251.755719 282.479112 
L 252.195035 275.717839 
L 253.073667 284.100345 
L 253.512983 279.423875 
L 253.952299 283.722185 
L 254.391615 282.390732 
L 254.830931 274.947429 
L 255.270247 279.163042 
L 255.709563 275.468362 
L 256.148879 287.355041 
L 256.588195 272.702862 
L 257.027511 274.819498 
L 257.466827 284.610748 
L 257.906143 276.267429 
L 258.345459 276.145774 
L 258.784775 277.723596 
L 259.663408 282.263659 
L 260.102724 279.764233 
L 260.54204 285.664276 
L 260.981356 280.505103 
L 261.420672 280.756519 
L 261.859988 267.163629 
L 262.299304 278.791938 
L 262.73862 282.023796 
L 263.177936 283.006525 
L 263.617252 282.205587 
L 264.056568 278.454629 
L 264.495884 277.488438 
L 265.374516 271.625416 
L 265.813832 281.188874 
L 266.253148 275.080096 
L 266.692464 272.706087 
L 267.13178 276.864653 
L 267.571096 284.269951 
L 268.010412 278.828516 
L 268.449728 284.854681 
L 268.889044 272.182664 
L 269.32836 283.397404 
L 269.767676 287.734245 
L 270.206992 284.776516 
L 270.646308 283.105576 
L 271.085624 283.751722 
L 271.52494 270.6625 
L 271.964256 282.761322 
L 272.403572 288.054986 
L 272.842888 286.36572 
L 273.282204 277.181842 
L 273.72152 287.294312 
L 274.160837 276.381298 
L 274.600153 283.857966 
L 275.039469 283.591056 
L 275.478785 278.997792 
L 275.918101 281.543995 
L 276.357417 285.340047 
L 276.796733 274.007866 
L 277.236049 281.542656 
L 277.675365 282.763945 
L 278.114681 281.395164 
L 278.553997 271.528057 
L 278.993313 278.186982 
L 279.432629 281.499544 
L 279.871945 281.825035 
L 280.311261 278.401997 
L 280.750577 276.250463 
L 281.189893 287.653508 
L 281.629209 277.487083 
L 282.068525 278.102606 
L 282.507841 282.044597 
L 282.947157 271.322298 
L 283.825789 287.010557 
L 284.265105 284.418392 
L 284.704421 292.419641 
L 285.143737 286.324343 
L 286.022369 277.530377 
L 286.461685 285.503063 
L 286.901001 274.655169 
L 287.340317 283.182661 
L 287.779633 271.609318 
L 288.218949 282.392687 
L 288.658265 283.714915 
L 289.097581 287.846232 
L 289.536898 282.593604 
L 289.976214 281.784345 
L 290.41553 283.756127 
L 290.854846 284.413683 
L 291.294162 269.008424 
L 291.733478 283.933333 
L 292.172794 285.961432 
L 292.61211 279.284031 
L 293.051426 282.564245 
L 293.490742 281.263179 
L 293.930058 284.388084 
L 294.369374 283.478728 
L 294.80869 281.11284 
L 295.248006 280.179527 
L 295.687322 277.814111 
L 296.565954 287.071809 
L 297.00527 277.961277 
L 297.444586 279.282756 
L 297.883902 282.825564 
L 298.323218 274.307065 
L 298.762534 281.77258 
L 299.20185 281.834592 
L 299.641166 281.262677 
L 300.080482 277.24041 
L 300.519798 284.321609 
L 300.959114 278.966698 
L 301.39843 281.62107 
L 301.837746 277.673785 
L 302.277062 285.60433 
L 302.716378 284.423339 
L 303.155694 292.165165 
L 303.59501 279.409992 
L 304.034326 289.400424 
L 304.473643 288.667687 
L 304.912959 277.82483 
L 306.230907 288.950099 
L 307.109539 270.879923 
L 307.548855 290.012028 
L 307.988171 281.087836 
L 308.427487 283.474751 
L 308.866803 281.300538 
L 309.306119 280.966842 
L 309.745435 280.114631 
L 310.184751 282.521271 
L 310.624067 286.132807 
L 311.063383 283.616231 
L 311.502699 281.849977 
L 311.942015 281.836474 
L 312.381331 291.467086 
L 312.820647 285.162051 
L 313.259963 286.59556 
L 313.699279 283.556847 
L 314.577911 285.661541 
L 315.017227 279.615688 
L 315.456543 284.201906 
L 315.895859 284.947085 
L 316.335175 281.982541 
L 316.774491 285.20086 
L 317.213807 291.652134 
L 317.653123 284.365576 
L 318.092439 289.207205 
L 318.531755 286.792611 
L 319.410388 274.909958 
L 319.849704 290.318706 
L 320.28902 288.834166 
L 320.728336 278.310858 
L 321.167652 287.72153 
L 321.606968 283.487655 
L 322.046284 288.731791 
L 322.4856 284.486198 
L 322.924916 285.977887 
L 323.364232 285.187061 
L 323.803548 286.827738 
L 324.242864 284.740713 
L 324.68218 286.067829 
L 325.121496 288.946888 
L 325.560812 285.500366 
L 326.000128 286.093717 
L 326.439444 290.445967 
L 326.87876 283.838373 
L 327.318076 288.493508 
L 327.757392 280.470221 
L 328.196708 281.20809 
L 328.636024 287.666527 
L 329.07534 285.698584 
L 329.514656 292.014171 
L 330.393288 285.303431 
L 330.832604 279.124036 
L 331.27192 292.85286 
L 331.711236 284.784734 
L 332.150552 287.087336 
L 332.589868 279.976393 
L 333.4685 286.599641 
L 333.907816 286.100668 
L 334.347132 286.482678 
L 334.786449 286.677681 
L 335.225765 283.393789 
L 335.665081 287.094489 
L 336.104397 283.837325 
L 336.543713 286.974166 
L 337.422345 278.094013 
L 337.861661 278.874935 
L 338.300977 280.236727 
L 338.740293 285.473198 
L 339.179609 279.133542 
L 339.618925 286.312829 
L 340.058241 278.218635 
L 340.497557 283.614229 
L 341.376189 287.515373 
L 341.815505 279.145858 
L 342.254821 290.614154 
L 342.694137 278.487522 
L 343.133453 287.196324 
L 343.572769 285.624107 
L 344.012085 285.942995 
L 344.451401 290.045105 
L 344.890717 287.883922 
L 345.330033 283.479388 
L 345.769349 287.988909 
L 346.208665 287.747261 
L 346.647981 283.765581 
L 347.087297 283.112104 
L 347.526613 286.426132 
L 348.405245 283.673906 
L 348.844561 269.598629 
L 349.283877 285.327189 
L 349.723194 288.047789 
L 350.16251 278.616772 
L 350.601826 286.788517 
L 351.041142 281.725261 
L 351.480458 278.652234 
L 351.919774 285.919123 
L 352.35909 287.766117 
L 352.798406 279.78576 
L 353.237722 287.701549 
L 353.677038 289.362058 
L 354.55567 289.394815 
L 354.994986 282.269617 
L 355.434302 280.810604 
L 356.312934 290.565539 
L 356.75225 284.69427 
L 357.191566 288.06934 
L 357.630882 293.049836 
L 358.070198 285.109381 
L 358.509514 290.15236 
L 358.94883 287.403559 
L 359.388146 290.004877 
L 359.827462 286.597075 
L 360.266778 285.889694 
L 360.706094 284.911629 
L 361.14541 285.049384 
L 362.024042 292.233972 
L 362.463358 288.874342 
L 362.902674 279.950261 
L 363.34199 289.790042 
L 363.781306 285.899874 
L 364.220622 285.375549 
L 364.659938 281.887359 
L 365.099255 285.766021 
L 365.977887 288.844875 
L 366.417203 287.848939 
L 366.856519 280.408502 
L 367.295835 290.873813 
L 367.735151 284.842439 
L 368.174467 286.35688 
L 368.613783 285.728569 
L 369.053099 288.384318 
L 369.492415 280.48709 
L 369.931731 291.705442 
L 370.371047 287.11159 
L 371.249679 290.917194 
L 371.688995 281.100459 
L 372.567627 290.237444 
L 373.006943 283.209541 
L 373.446259 287.595307 
L 373.885575 287.19913 
L 374.324891 289.54244 
L 374.764207 288.518555 
L 375.203523 291.275393 
L 375.642839 289.989257 
L 376.082155 286.47669 
L 376.521471 287.178478 
L 376.960787 282.132672 
L 377.400103 288.022065 
L 377.839419 286.095404 
L 378.278735 284.705882 
L 378.718051 289.406276 
L 379.157367 281.300033 
L 379.596683 283.149441 
L 380.036 279.531735 
L 380.475316 283.3809 
L 380.914632 279.111974 
L 381.353948 287.124162 
L 381.793264 285.445172 
L 382.671896 288.706526 
L 383.111212 283.474096 
L 383.550528 290.298916 
L 383.989844 293.151464 
L 384.868476 285.746538 
L 385.307792 285.442017 
L 385.747108 291.282766 
L 386.186424 275.527923 
L 386.62574 288.296909 
L 387.065056 289.313123 
L 387.504372 289.437103 
L 387.943688 283.820888 
L 388.383004 282.133907 
L 388.82232 278.324416 
L 390.579584 288.37 
L 391.0189 288.75052 
L 391.458216 295.488 
L 392.336848 290.761312 
L 392.776164 289.176508 
L 393.21548 280.44008 
L 393.654796 284.965802 
L 394.094112 285.968248 
L 394.533428 285.10056 
L 394.972744 283.584634 
L 395.412061 291.984741 
L 395.851377 286.771828 
L 396.290693 290.96969 
L 397.169325 284.061833 
L 397.608641 284.996855 
L 398.047957 282.561273 
L 398.487273 271.109826 
L 398.487273 271.109826 
" style="fill:none;stroke:#1f77b4;stroke-linecap:square;stroke-width:1.5;"/>
   </g>
   <g id="line2d_18">
    <path clip-path="url(#pd230125446)" d="M 73.832727 84.301223 
L 74.272043 81.638136 
L 75.150675 89.116605 
L 75.589991 87.207368 
L 76.468623 90.616123 
L 76.907939 90.670747 
L 77.347256 88.303925 
L 77.786572 89.172271 
L 78.225888 89.505528 
L 78.665204 89.562977 
L 79.10452 89.058595 
L 79.543836 90.941355 
L 79.983152 90.523083 
L 80.422468 88.669358 
L 80.861784 87.658705 
L 81.3011 90.351794 
L 81.740416 90.818317 
L 82.179732 90.817711 
L 82.619048 90.08576 
L 83.058364 88.633486 
L 83.49768 90.076767 
L 83.936996 88.65662 
L 84.376312 87.773745 
L 84.815628 90.847647 
L 85.254944 91.911926 
L 85.69426 91.836877 
L 86.133576 92.052873 
L 86.572892 91.378118 
L 87.012208 87.065012 
L 87.451524 80.148554 
L 87.89084 53.568 
L 88.330156 65.156216 
L 88.769472 63.722412 
L 89.208788 87.242033 
L 89.648104 90.718553 
L 90.08742 88.074269 
L 90.526736 91.295471 
L 90.966052 91.382985 
L 91.405368 90.22127 
L 91.844684 92.283036 
L 92.284 91.157185 
L 92.723317 90.781015 
L 93.162633 90.011138 
L 93.601949 89.646165 
L 94.041265 89.629951 
L 94.480581 92.366091 
L 94.919897 92.429297 
L 95.359213 92.674417 
L 95.798529 91.804731 
L 96.237845 92.398402 
L 96.677161 92.801049 
L 97.116477 92.029281 
L 97.555793 94.17246 
L 97.995109 94.316097 
L 98.434425 91.489278 
L 98.873741 90.220821 
L 99.313057 90.503895 
L 100.191689 90.107522 
L 100.631005 88.263312 
L 101.070321 88.658492 
L 101.509637 91.174929 
L 101.948953 92.798319 
L 102.827585 94.075614 
L 103.266901 92.565228 
L 104.145533 96.293622 
L 104.584849 95.982655 
L 105.024165 93.759647 
L 105.463481 95.803206 
L 105.902797 91.877297 
L 106.342113 91.575523 
L 106.781429 95.913675 
L 107.220745 93.092707 
L 107.660062 88.35625 
L 108.099378 89.380061 
L 108.538694 92.667477 
L 108.97801 92.70962 
L 109.417326 96.136001 
L 109.856642 95.271982 
L 110.295958 87.889735 
L 110.735274 96.50811 
L 111.17459 97.57605 
L 111.613906 97.407087 
L 112.053222 97.680275 
L 112.492538 95.408431 
L 112.931854 97.786753 
L 113.37117 98.967296 
L 113.810486 97.742309 
L 114.249802 98.175966 
L 114.689118 97.783443 
L 115.128434 97.599465 
L 115.56775 94.567292 
L 116.007066 93.960517 
L 116.446382 95.515739 
L 116.885698 96.003835 
L 117.76433 97.343813 
L 118.642962 101.584226 
L 119.521594 102.290057 
L 119.96091 105.375124 
L 120.400226 104.162223 
L 120.839542 103.306587 
L 121.278858 106.317536 
L 121.718174 103.186068 
L 122.15749 103.103718 
L 122.596806 109.332547 
L 123.036123 109.239699 
L 123.475439 110.989238 
L 123.914755 108.71393 
L 124.354071 109.511559 
L 125.232703 109.802855 
L 125.672019 115.901339 
L 126.111335 116.69394 
L 126.550651 112.030118 
L 126.989967 117.233771 
L 127.429283 118.102859 
L 127.868599 115.087482 
L 128.307915 113.474888 
L 128.747231 114.670906 
L 129.625863 118.768524 
L 130.065179 121.797035 
L 130.504495 115.072874 
L 130.943811 117.76666 
L 131.383127 118.938696 
L 131.822443 120.661552 
L 132.261759 115.410839 
L 132.701075 122.301619 
L 133.140391 118.335454 
L 133.579707 100.007067 
L 134.019023 121.005877 
L 134.458339 117.949914 
L 134.897655 125.213207 
L 135.336971 125.674155 
L 135.776287 126.454682 
L 136.215603 125.639859 
L 136.654919 119.84446 
L 137.094235 105.780338 
L 137.533551 130.880769 
L 138.412184 124.076576 
L 138.8515 128.68178 
L 139.290816 132.062674 
L 139.730132 124.454212 
L 140.169448 140.367793 
L 141.04808 134.77175 
L 141.487396 142.874622 
L 141.926712 141.250944 
L 142.366028 142.068035 
L 142.805344 139.183191 
L 143.683976 144.68938 
L 144.123292 146.437053 
L 144.562608 144.824766 
L 145.001924 147.992816 
L 145.44124 144.459591 
L 145.880556 145.189858 
L 146.319872 150.618451 
L 146.759188 145.647742 
L 147.198504 150.671017 
L 147.63782 142.248034 
L 148.077136 147.742662 
L 148.516452 141.127212 
L 148.955768 147.684731 
L 149.395084 147.484766 
L 149.8344 157.18531 
L 150.273716 153.316666 
L 151.152348 149.407916 
L 151.591664 140.298728 
L 152.03098 160.871555 
L 152.470296 158.93903 
L 152.909612 150.816093 
L 153.348929 152.656429 
L 153.788245 162.267685 
L 154.227561 154.640303 
L 154.666877 154.764751 
L 155.106193 158.110367 
L 155.545509 121.179482 
L 155.984825 155.374363 
L 156.424141 158.163335 
L 156.863457 162.399174 
L 157.302773 148.727812 
L 157.742089 158.689015 
L 158.181405 127.552744 
L 158.620721 153.312745 
L 159.060037 160.138718 
L 159.499353 158.255035 
L 159.938669 164.633559 
L 160.377985 158.896037 
L 160.817301 156.343046 
L 161.256617 137.467974 
L 161.695933 163.507844 
L 162.135249 146.514219 
L 162.574565 160.463378 
L 163.013881 152.838954 
L 163.453197 159.822481 
L 163.892513 150.187947 
L 164.331829 160.052122 
L 164.771145 158.841449 
L 165.210461 160.357954 
L 165.649777 165.064652 
L 166.089093 163.684063 
L 166.528409 159.554356 
L 166.967725 140.076575 
L 167.407041 150.899064 
L 167.846357 154.650714 
L 168.285674 162.693855 
L 168.72499 163.927922 
L 169.164306 156.593052 
L 169.603622 163.558858 
L 170.042938 165.723797 
L 170.482254 160.023717 
L 170.92157 164.225427 
L 171.360886 169.785534 
L 171.800202 162.885263 
L 172.239518 167.77773 
L 172.678834 153.179471 
L 173.11815 150.987371 
L 173.557466 168.736597 
L 173.996782 164.693362 
L 174.436098 165.641009 
L 174.875414 163.332478 
L 175.31473 168.183413 
L 175.754046 153.55986 
L 176.193362 165.66558 
L 176.632678 167.715429 
L 177.071994 165.894479 
L 177.51131 165.677752 
L 177.950626 164.569003 
L 178.389942 148.865574 
L 178.829258 170.985084 
L 179.268574 157.67772 
L 180.147206 163.962239 
L 180.586522 152.503548 
L 181.025838 159.532371 
L 181.90447 162.231958 
L 182.343786 160.37949 
L 182.783102 166.567652 
L 183.222419 163.734913 
L 183.661735 165.568754 
L 184.101051 170.295513 
L 184.540367 160.99786 
L 184.979683 173.123024 
L 185.418999 140.64247 
L 185.858315 151.101286 
L 186.297631 150.716291 
L 186.736947 138.787837 
L 187.176263 148.555284 
L 187.615579 161.437881 
L 188.054895 154.048354 
L 188.933527 174.209478 
L 189.372843 169.804816 
L 189.812159 160.544108 
L 190.251475 159.610215 
L 190.690791 159.832755 
L 191.130107 163.179795 
L 191.569423 159.136989 
L 192.008739 160.295104 
L 192.448055 155.178679 
L 192.887371 167.974136 
L 193.326687 172.411063 
L 193.766003 160.920833 
L 194.205319 166.571073 
L 194.644635 168.552422 
L 195.083951 169.375083 
L 195.523267 131.775777 
L 195.962583 172.265875 
L 196.401899 160.324301 
L 196.841215 170.548635 
L 197.280531 164.566102 
L 197.719847 145.263253 
L 198.159163 158.795879 
L 198.59848 163.450169 
L 199.037796 173.474157 
L 199.477112 167.03284 
L 200.355744 171.358011 
L 200.79506 164.253916 
L 201.234376 160.822394 
L 201.673692 158.322505 
L 202.113008 155.178279 
L 202.552324 164.628304 
L 202.99164 164.673965 
L 203.430956 174.209854 
L 203.870272 174.17751 
L 204.309588 176.755439 
L 204.748904 158.219621 
L 205.18822 165.907911 
L 205.627536 169.004015 
L 206.066852 173.425329 
L 206.506168 174.922301 
L 206.945484 174.360308 
L 207.3848 161.791155 
L 207.824116 175.022155 
L 208.263432 179.796408 
L 208.702748 175.147359 
L 209.142064 173.222065 
L 209.58138 162.283803 
L 210.020696 176.156178 
L 210.460012 173.564342 
L 210.899328 177.4843 
L 211.338644 171.065099 
L 211.77796 176.931589 
L 212.217276 178.207112 
L 212.656592 168.423245 
L 213.095908 163.580109 
L 213.974541 173.006219 
L 214.413857 181.732872 
L 214.853173 182.91245 
L 215.292489 178.227849 
L 215.731805 169.484873 
L 216.171121 181.854789 
L 216.610437 167.246573 
L 217.049753 171.699255 
L 217.489069 173.787073 
L 217.928385 177.624606 
L 218.367701 165.660585 
L 218.807017 170.912108 
L 219.246333 170.367731 
L 219.685649 174.975607 
L 220.124965 173.40385 
L 220.564281 160.363241 
L 221.003597 167.519152 
L 221.442913 148.784444 
L 221.882229 177.96314 
L 222.321545 170.368433 
L 222.760861 169.088601 
L 223.200177 174.709836 
L 223.639493 159.027264 
L 224.078809 165.467713 
L 224.518125 146.421028 
L 225.396757 172.731843 
L 225.836073 169.765552 
L 226.275389 170.184124 
L 226.714705 165.694442 
L 227.154021 173.356096 
L 227.593337 168.385576 
L 228.032653 171.184459 
L 228.471969 167.606915 
L 228.911286 169.964008 
L 229.350602 136.988058 
L 229.789918 175.530328 
L 230.229234 179.176729 
L 230.66855 158.786084 
L 231.107866 181.50488 
L 231.547182 169.295005 
L 231.986498 179.153204 
L 232.425814 175.360061 
L 233.304446 164.703014 
L 233.743762 178.069806 
L 234.622394 147.668565 
L 235.06171 166.168451 
L 235.501026 162.962828 
L 235.940342 106.878516 
L 236.379658 166.43494 
L 237.25829 161.966975 
L 237.697606 177.686379 
L 238.136922 156.779702 
L 238.576238 166.599767 
L 239.015554 145.483071 
L 239.45487 179.701912 
L 239.894186 174.920253 
L 240.333502 180.943879 
L 240.772818 159.069132 
L 241.212134 171.02587 
L 241.65145 148.677816 
L 242.090766 175.37072 
L 242.530082 181.625309 
L 242.969398 160.311235 
L 243.408714 165.692815 
L 243.848031 181.574998 
L 244.287347 110.458437 
L 244.726663 176.98449 
L 245.165979 182.934054 
L 245.605295 170.858923 
L 246.044611 186.4885 
L 246.483927 182.267792 
L 246.923243 172.677509 
L 247.362559 175.282007 
L 247.801875 181.207916 
L 248.241191 182.118658 
L 248.680507 173.392727 
L 249.119823 172.492808 
L 249.559139 163.941042 
L 249.998455 167.727439 
L 250.437771 162.499632 
L 250.877087 170.030527 
L 251.316403 171.542998 
L 251.755719 164.279589 
L 252.195035 172.392323 
L 252.634351 166.336608 
L 253.073667 173.757007 
L 253.512983 175.467725 
L 253.952299 163.572735 
L 254.391615 160.787344 
L 254.830931 176.152519 
L 255.270247 170.583792 
L 255.709563 167.067386 
L 256.148879 179.515246 
L 256.588195 146.584963 
L 257.027511 172.249045 
L 257.906143 151.341762 
L 258.345459 170.322385 
L 258.784775 180.554291 
L 259.224092 165.739208 
L 259.663408 179.93528 
L 260.102724 184.435925 
L 260.54204 168.621862 
L 260.981356 174.025195 
L 261.420672 162.336382 
L 261.859988 153.980731 
L 262.299304 176.296696 
L 262.73862 165.701902 
L 263.177936 161.330951 
L 263.617252 163.376444 
L 264.056568 170.236358 
L 264.495884 166.603045 
L 264.9352 182.524504 
L 265.374516 166.825967 
L 265.813832 162.015426 
L 266.253148 168.194961 
L 266.692464 178.624316 
L 267.13178 178.740373 
L 267.571096 168.181879 
L 268.010412 167.125668 
L 268.449728 184.079218 
L 268.889044 172.814984 
L 269.32836 170.215612 
L 269.767676 173.828176 
L 270.206992 160.617862 
L 270.646308 171.751698 
L 271.085624 167.703905 
L 271.52494 175.955973 
L 271.964256 176.196974 
L 272.403572 150.236079 
L 272.842888 172.805564 
L 273.282204 180.28732 
L 273.72152 165.416281 
L 274.160837 170.940401 
L 274.600153 182.475249 
L 275.039469 174.738346 
L 275.478785 162.161542 
L 275.918101 173.72064 
L 276.357417 178.394801 
L 276.796733 191.893509 
L 277.236049 179.255706 
L 277.675365 149.83497 
L 278.114681 175.600827 
L 278.553997 183.127483 
L 278.993313 171.129472 
L 279.432629 173.280596 
L 279.871945 180.384381 
L 280.311261 174.897144 
L 280.750577 156.313969 
L 281.189893 171.301712 
L 281.629209 155.822159 
L 282.068525 175.409759 
L 282.507841 143.295799 
L 282.947157 170.829717 
L 283.386473 184.77401 
L 283.825789 172.072725 
L 284.265105 174.533911 
L 284.704421 150.354952 
L 285.143737 156.38959 
L 285.583053 171.404325 
L 286.022369 153.790033 
L 286.461685 171.022966 
L 286.901001 169.390007 
L 287.340317 156.060625 
L 287.779633 181.604559 
L 288.218949 180.357695 
L 288.658265 180.377329 
L 289.097581 174.364315 
L 289.536898 160.787148 
L 289.976214 170.125821 
L 290.41553 162.076293 
L 290.854846 161.978795 
L 291.294162 181.641929 
L 291.733478 163.863571 
L 292.172794 184.675106 
L 292.61211 188.275479 
L 293.051426 186.001073 
L 293.490742 190.50059 
L 293.930058 180.465303 
L 294.369374 185.234305 
L 295.248006 173.822624 
L 295.687322 173.115106 
L 296.126638 176.327895 
L 296.565954 167.851105 
L 297.00527 185.559036 
L 297.444586 187.265803 
L 297.883902 161.863827 
L 298.323218 172.299836 
L 298.762534 177.856873 
L 299.20185 178.259054 
L 299.641166 173.604346 
L 300.080482 172.302231 
L 300.519798 161.080654 
L 300.959114 163.416872 
L 301.39843 178.884388 
L 301.837746 167.900566 
L 302.277062 173.794309 
L 302.716378 181.290204 
L 303.155694 167.347458 
L 303.59501 176.15784 
L 304.034326 155.486108 
L 304.473643 152.108205 
L 304.912959 162.462485 
L 305.352275 179.173336 
L 305.791591 166.750786 
L 306.230907 159.750579 
L 306.670223 150.550972 
L 307.109539 172.234157 
L 307.548855 163.990084 
L 307.988171 179.033572 
L 308.427487 168.834158 
L 308.866803 171.527512 
L 309.306119 156.144071 
L 309.745435 176.646264 
L 310.184751 182.06486 
L 310.624067 156.892093 
L 311.502699 179.80982 
L 312.381331 183.805436 
L 312.820647 184.771508 
L 313.259963 176.418392 
L 313.699279 157.656846 
L 314.138595 163.498756 
L 315.017227 184.878869 
L 315.456543 180.370277 
L 316.335175 163.244075 
L 316.774491 143.916443 
L 317.653123 164.431437 
L 318.531755 160.270883 
L 318.971071 156.764755 
L 319.410388 174.673855 
L 319.849704 168.812453 
L 320.28902 123.511797 
L 320.728336 171.089695 
L 321.167652 157.889636 
L 321.606968 175.571763 
L 322.046284 176.878642 
L 322.4856 182.140286 
L 322.924916 179.103733 
L 323.803548 151.055315 
L 324.242864 156.737984 
L 324.68218 153.737314 
L 325.121496 159.941408 
L 325.560812 161.933285 
L 326.000128 167.0577 
L 326.439444 166.112977 
L 326.87876 168.272941 
L 327.318076 163.057278 
L 327.757392 161.870665 
L 328.196708 162.460076 
L 328.636024 147.11161 
L 329.07534 166.537901 
L 329.514656 162.324141 
L 329.953972 170.808254 
L 330.393288 170.340613 
L 330.832604 155.338488 
L 331.27192 155.074288 
L 331.711236 161.286912 
L 332.150552 157.973321 
L 332.589868 173.238748 
L 333.029184 126.949164 
L 333.4685 174.452701 
L 333.907816 178.37846 
L 334.347132 162.099162 
L 334.786449 180.810579 
L 335.225765 175.416491 
L 335.665081 146.473073 
L 336.104397 172.560161 
L 336.983029 183.675953 
L 337.422345 136.802244 
L 337.861661 111.507888 
L 338.300977 185.712344 
L 338.740293 188.127883 
L 339.179609 183.883848 
L 339.618925 177.793524 
L 340.058241 191.040342 
L 340.497557 178.681269 
L 340.936873 169.773011 
L 341.376189 156.722157 
L 341.815505 166.382923 
L 342.254821 171.417278 
L 342.694137 156.634482 
L 343.133453 168.691676 
L 343.572769 175.296348 
L 344.012085 162.525154 
L 344.451401 164.704831 
L 344.890717 172.979031 
L 345.330033 169.376894 
L 345.769349 167.458132 
L 346.208665 169.654987 
L 346.647981 138.381518 
L 347.087297 168.697596 
L 347.526613 171.813992 
L 347.965929 149.024037 
L 348.405245 175.427229 
L 348.844561 187.171931 
L 349.283877 166.074204 
L 349.723194 163.711237 
L 350.16251 166.248637 
L 350.601826 134.053597 
L 351.041142 174.727469 
L 351.480458 149.931575 
L 351.919774 155.053999 
L 352.35909 175.980815 
L 352.798406 184.543741 
L 353.237722 180.55474 
L 353.677038 167.593736 
L 354.116354 183.462882 
L 354.994986 160.712382 
L 355.434302 177.456641 
L 355.873618 165.163573 
L 356.312934 156.535352 
L 356.75225 174.074492 
L 357.191566 181.379793 
L 357.630882 167.000306 
L 358.070198 183.150622 
L 358.509514 172.099931 
L 358.94883 172.148505 
L 359.388146 157.093079 
L 359.827462 177.196 
L 360.266778 183.976367 
L 361.14541 169.516479 
L 361.584726 186.50523 
L 362.024042 178.558996 
L 362.463358 154.384333 
L 362.902674 170.268995 
L 363.34199 160.689538 
L 363.781306 170.95885 
L 364.220622 176.17584 
L 364.659938 135.2167 
L 365.099255 181.601544 
L 365.977887 160.310521 
L 366.417203 176.814616 
L 366.856519 167.467067 
L 367.295835 176.898658 
L 367.735151 177.454055 
L 368.174467 166.974045 
L 368.613783 169.956224 
L 369.053099 174.740519 
L 369.492415 171.447495 
L 369.931731 171.910666 
L 370.371047 159.380032 
L 370.810363 180.984554 
L 371.249679 161.639735 
L 371.688995 180.024556 
L 372.128311 180.19427 
L 372.567627 171.111867 
L 373.006943 165.523306 
L 373.446259 149.160277 
L 373.885575 172.105846 
L 374.324891 175.913316 
L 374.764207 156.684211 
L 375.203523 174.194869 
L 375.642839 162.738379 
L 376.082155 169.265608 
L 376.521471 164.481762 
L 376.960787 183.893452 
L 377.400103 177.487225 
L 377.839419 180.206824 
L 378.718051 160.402662 
L 379.157367 175.063265 
L 379.596683 157.054227 
L 380.036 150.024473 
L 380.475316 177.392025 
L 380.914632 169.54781 
L 381.353948 171.247218 
L 381.793264 184.991657 
L 382.23258 159.36626 
L 382.671896 154.103131 
L 383.111212 159.164017 
L 383.550528 147.815186 
L 383.989844 160.037272 
L 384.42916 156.939086 
L 384.868476 161.140827 
L 385.307792 161.926245 
L 385.747108 163.595076 
L 386.186424 185.222514 
L 386.62574 170.465941 
L 387.065056 172.768923 
L 387.504372 164.872151 
L 387.943688 170.000401 
L 388.383004 166.150821 
L 388.82232 171.32743 
L 389.261636 159.113447 
L 389.700952 181.677865 
L 390.140268 138.916246 
L 390.579584 164.260215 
L 391.0189 163.912518 
L 391.897532 173.324246 
L 392.336848 169.806419 
L 392.776164 170.58326 
L 393.21548 175.955777 
L 393.654796 166.986853 
L 394.094112 170.877097 
L 394.533428 170.939671 
L 394.972744 167.743902 
L 395.412061 160.253253 
L 395.851377 146.293198 
L 396.290693 160.9602 
L 396.730009 170.762412 
L 397.169325 186.712808 
L 397.608641 174.192561 
L 398.047957 178.582194 
L 398.487273 187.658502 
L 398.487273 187.658502 
" style="fill:none;stroke:#ff7f0e;stroke-linecap:square;stroke-width:1.5;"/>
   </g>
   <g id="patch_3">
    <path d="M 57.6 307.584 
L 57.6 41.472 
" style="fill:none;stroke:#000000;stroke-linecap:square;stroke-linejoin:miter;stroke-width:0.8;"/>
   </g>
   <g id="patch_4">
    <path d="M 414.72 307.584 
L 414.72 41.472 
" style="fill:none;stroke:#000000;stroke-linecap:square;stroke-linejoin:miter;stroke-width:0.8;"/>
   </g>
   <g id="patch_5">
    <path d="M 57.6 307.584 
L 414.72 307.584 
" style="fill:none;stroke:#000000;stroke-linecap:square;stroke-linejoin:miter;stroke-width:0.8;"/>
   </g>
   <g id="patch_6">
    <path d="M 57.6 41.472 
L 414.72 41.472 
" style="fill:none;stroke:#000000;stroke-linecap:square;stroke-linejoin:miter;stroke-width:0.8;"/>
   </g>
   <g id="legend_1">
    <g id="patch_7">
     <path d="M 303.845 78.82825 
L 407.72 78.82825 
Q 409.72 78.82825 409.72 76.82825 
L 409.72 48.472 
Q 409.72 46.472 407.72 46.472 
L 303.845 46.472 
Q 301.845 46.472 301.845 48.472 
L 301.845 76.82825 
Q 301.845 78.82825 303.845 78.82825 
z
" style="fill:#ffffff;opacity:0.8;stroke:#cccccc;stroke-linejoin:miter;"/>
    </g>
    <g id="line2d_19">
     <path d="M 305.845 54.570437 
L 325.845 54.570437 
" style="fill:none;stroke:#1f77b4;stroke-linecap:square;stroke-width:1.5;"/>
    </g>
    <g id="line2d_20"/>
    <g id="text_18">
     <!-- Train loss -->
     <g transform="translate(333.845 58.070437)scale(0.1 -0.1)">
      <defs>
       <path d="M -19 4666 
L 3928 4666 
L 3928 4134 
L 2272 4134 
L 2272 0 
L 1638 0 
L 1638 4134 
L -19 4134 
L -19 4666 
z
" id="DejaVuSans-54" transform="scale(0.015625)"/>
       <path d="M 2631 2963 
Q 2534 3019 2420 3045 
Q 2306 3072 2169 3072 
Q 1681 3072 1420 2755 
Q 1159 2438 1159 1844 
L 1159 0 
L 581 0 
L 581 3500 
L 1159 3500 
L 1159 2956 
Q 1341 3275 1631 3429 
Q 1922 3584 2338 3584 
Q 2397 3584 2469 3576 
Q 2541 3569 2628 3553 
L 2631 2963 
z
" id="DejaVuSans-72" transform="scale(0.015625)"/>
       <path d="M 2194 1759 
Q 1497 1759 1228 1600 
Q 959 1441 959 1056 
Q 959 750 1161 570 
Q 1363 391 1709 391 
Q 2188 391 2477 730 
Q 2766 1069 2766 1631 
L 2766 1759 
L 2194 1759 
z
M 3341 1997 
L 3341 0 
L 2766 0 
L 2766 531 
Q 2569 213 2275 61 
Q 1981 -91 1556 -91 
Q 1019 -91 701 211 
Q 384 513 384 1019 
Q 384 1609 779 1909 
Q 1175 2209 1959 2209 
L 2766 2209 
L 2766 2266 
Q 2766 2663 2505 2880 
Q 2244 3097 1772 3097 
Q 1472 3097 1187 3025 
Q 903 2953 641 2809 
L 641 3341 
Q 956 3463 1253 3523 
Q 1550 3584 1831 3584 
Q 2591 3584 2966 3190 
Q 3341 2797 3341 1997 
z
" id="DejaVuSans-61" transform="scale(0.015625)"/>
       <path d="M 603 3500 
L 1178 3500 
L 1178 0 
L 603 0 
L 603 3500 
z
M 603 4863 
L 1178 4863 
L 1178 4134 
L 603 4134 
L 603 4863 
z
" id="DejaVuSans-69" transform="scale(0.015625)"/>
       <path d="M 3513 2113 
L 3513 0 
L 2938 0 
L 2938 2094 
Q 2938 2591 2744 2837 
Q 2550 3084 2163 3084 
Q 1697 3084 1428 2787 
Q 1159 2491 1159 1978 
L 1159 0 
L 581 0 
L 581 3500 
L 1159 3500 
L 1159 2956 
Q 1366 3272 1645 3428 
Q 1925 3584 2291 3584 
Q 2894 3584 3203 3211 
Q 3513 2838 3513 2113 
z
" id="DejaVuSans-6e" transform="scale(0.015625)"/>
       <path id="DejaVuSans-20" transform="scale(0.015625)"/>
       <path d="M 603 4863 
L 1178 4863 
L 1178 0 
L 603 0 
L 603 4863 
z
" id="DejaVuSans-6c" transform="scale(0.015625)"/>
       <path d="M 2834 3397 
L 2834 2853 
Q 2591 2978 2328 3040 
Q 2066 3103 1784 3103 
Q 1356 3103 1142 2972 
Q 928 2841 928 2578 
Q 928 2378 1081 2264 
Q 1234 2150 1697 2047 
L 1894 2003 
Q 2506 1872 2764 1633 
Q 3022 1394 3022 966 
Q 3022 478 2636 193 
Q 2250 -91 1575 -91 
Q 1294 -91 989 -36 
Q 684 19 347 128 
L 347 722 
Q 666 556 975 473 
Q 1284 391 1588 391 
Q 1994 391 2212 530 
Q 2431 669 2431 922 
Q 2431 1156 2273 1281 
Q 2116 1406 1581 1522 
L 1381 1569 
Q 847 1681 609 1914 
Q 372 2147 372 2553 
Q 372 3047 722 3315 
Q 1072 3584 1716 3584 
Q 2034 3584 2315 3537 
Q 2597 3491 2834 3397 
z
" id="DejaVuSans-73" transform="scale(0.015625)"/>
      </defs>
      <use xlink:href="#DejaVuSans-54"/>
      <use x="46.333984" xlink:href="#DejaVuSans-72"/>
      <use x="87.447266" xlink:href="#DejaVuSans-61"/>
      <use x="148.726562" xlink:href="#DejaVuSans-69"/>
      <use x="176.509766" xlink:href="#DejaVuSans-6e"/>
      <use x="239.888672" xlink:href="#DejaVuSans-20"/>
      <use x="271.675781" xlink:href="#DejaVuSans-6c"/>
      <use x="299.458984" xlink:href="#DejaVuSans-6f"/>
      <use x="360.640625" xlink:href="#DejaVuSans-73"/>
      <use x="412.740234" xlink:href="#DejaVuSans-73"/>
     </g>
    </g>
    <g id="line2d_21">
     <path d="M 305.845 69.248562 
L 325.845 69.248562 
" style="fill:none;stroke:#ff7f0e;stroke-linecap:square;stroke-width:1.5;"/>
    </g>
    <g id="line2d_22"/>
    <g id="text_19">
     <!-- Validation loss -->
     <g transform="translate(333.845 72.748562)scale(0.1 -0.1)">
      <defs>
       <path d="M 1831 0 
L 50 4666 
L 709 4666 
L 2188 738 
L 3669 4666 
L 4325 4666 
L 2547 0 
L 1831 0 
z
" id="DejaVuSans-56" transform="scale(0.015625)"/>
       <path d="M 2906 2969 
L 2906 4863 
L 3481 4863 
L 3481 0 
L 2906 0 
L 2906 525 
Q 2725 213 2448 61 
Q 2172 -91 1784 -91 
Q 1150 -91 751 415 
Q 353 922 353 1747 
Q 353 2572 751 3078 
Q 1150 3584 1784 3584 
Q 2172 3584 2448 3432 
Q 2725 3281 2906 2969 
z
M 947 1747 
Q 947 1113 1208 752 
Q 1469 391 1925 391 
Q 2381 391 2643 752 
Q 2906 1113 2906 1747 
Q 2906 2381 2643 2742 
Q 2381 3103 1925 3103 
Q 1469 3103 1208 2742 
Q 947 2381 947 1747 
z
" id="DejaVuSans-64" transform="scale(0.015625)"/>
       <path d="M 1172 4494 
L 1172 3500 
L 2356 3500 
L 2356 3053 
L 1172 3053 
L 1172 1153 
Q 1172 725 1289 603 
Q 1406 481 1766 481 
L 2356 481 
L 2356 0 
L 1766 0 
Q 1100 0 847 248 
Q 594 497 594 1153 
L 594 3053 
L 172 3053 
L 172 3500 
L 594 3500 
L 594 4494 
L 1172 4494 
z
" id="DejaVuSans-74" transform="scale(0.015625)"/>
      </defs>
      <use xlink:href="#DejaVuSans-56"/>
      <use x="60.658203" xlink:href="#DejaVuSans-61"/>
      <use x="121.9375" xlink:href="#DejaVuSans-6c"/>
      <use x="149.720703" xlink:href="#DejaVuSans-69"/>
      <use x="177.503906" xlink:href="#DejaVuSans-64"/>
      <use x="240.980469" xlink:href="#DejaVuSans-61"/>
      <use x="302.259766" xlink:href="#DejaVuSans-74"/>
      <use x="341.46875" xlink:href="#DejaVuSans-69"/>
      <use x="369.251953" xlink:href="#DejaVuSans-6f"/>
      <use x="430.433594" xlink:href="#DejaVuSans-6e"/>
      <use x="493.8125" xlink:href="#DejaVuSans-20"/>
      <use x="525.599609" xlink:href="#DejaVuSans-6c"/>
      <use x="553.382812" xlink:href="#DejaVuSans-6f"/>
      <use x="614.564453" xlink:href="#DejaVuSans-73"/>
      <use x="666.664062" xlink:href="#DejaVuSans-73"/>
     </g>
    </g>
   </g>
  </g>
 </g>
 <defs>
  <clipPath id="pd230125446">
   <rect height="266.112" width="357.12" x="57.6" y="41.472"/>
  </clipPath>
 </defs>
</svg>
