<?xml version="1.0" encoding="utf-8" standalone="no"?>
<!DOCTYPE svg PUBLIC "-//W3C//DTD SVG 1.1//EN"
  "http://www.w3.org/Graphics/SVG/1.1/DTD/svg11.dtd">
<svg height="345.6pt" version="1.1" viewBox="0 0 460.8 345.6" width="460.8pt" xmlns="http://www.w3.org/2000/svg" xmlns:xlink="http://www.w3.org/1999/xlink">
 <metadata>
  <rdf:RDF xmlns:cc="http://creativecommons.org/ns#" xmlns:dc="http://purl.org/dc/elements/1.1/" xmlns:rdf="http://www.w3.org/1999/02/22-rdf-syntax-ns#">
   <cc:Work>
    <dc:type rdf:resource="http://purl.org/dc/dcmitype/StillImage"/>
    <dc:date>2021-08-10T13:34:44.107496</dc:date>
    <dc:format>image/svg+xml</dc:format>
    <dc:creator>
     <cc:Agent>
      <dc:title>Matplotlib v3.4.1, https://matplotlib.org/</dc:title>
     </cc:Agent>
    </dc:creator>
   </cc:Work>
  </rdf:RDF>
 </metadata>
 <defs>
  <style type="text/css">*{stroke-linecap:butt;stroke-linejoin:round;}</style>
 </defs>
 <g id="figure_1">
  <g id="patch_1">
   <path d="M 0 345.6 
L 460.8 345.6 
L 460.8 0 
L 0 0 
z
" style="fill:#ffffff;"/>
  </g>
  <g id="axes_1">
   <g id="patch_2">
    <path d="M 57.6 307.584 
L 414.72 307.584 
L 414.72 41.472 
L 57.6 41.472 
z
" style="fill:#ffffff;"/>
   </g>
   <g id="matplotlib.axis_1">
    <g id="xtick_1">
     <g id="line2d_1">
      <defs>
       <path d="M 0 0 
L 0 3.5 
" id="m3e4aa9baf2" style="stroke:#000000;stroke-width:0.8;"/>
      </defs>
      <g>
       <use style="stroke:#000000;stroke-width:0.8;" x="73.501109" xlink:href="#m3e4aa9baf2" y="307.584"/>
      </g>
     </g>
     <g id="text_1">
      <!-- 0 -->
      <g transform="translate(70.319859 322.182437)scale(0.1 -0.1)">
       <defs>
        <path d="M 2034 4250 
Q 1547 4250 1301 3770 
Q 1056 3291 1056 2328 
Q 1056 1369 1301 889 
Q 1547 409 2034 409 
Q 2525 409 2770 889 
Q 3016 1369 3016 2328 
Q 3016 3291 2770 3770 
Q 2525 4250 2034 4250 
z
M 2034 4750 
Q 2819 4750 3233 4129 
Q 3647 3509 3647 2328 
Q 3647 1150 3233 529 
Q 2819 -91 2034 -91 
Q 1250 -91 836 529 
Q 422 1150 422 2328 
Q 422 3509 836 4129 
Q 1250 4750 2034 4750 
z
" id="DejaVuSans-30" transform="scale(0.015625)"/>
       </defs>
       <use xlink:href="#DejaVuSans-30"/>
      </g>
     </g>
    </g>
    <g id="xtick_2">
     <g id="line2d_2">
      <g>
       <use style="stroke:#000000;stroke-width:0.8;" x="139.824816" xlink:href="#m3e4aa9baf2" y="307.584"/>
      </g>
     </g>
     <g id="text_2">
      <!-- 200 -->
      <g transform="translate(130.281066 322.182437)scale(0.1 -0.1)">
       <defs>
        <path d="M 1228 531 
L 3431 531 
L 3431 0 
L 469 0 
L 469 531 
Q 828 903 1448 1529 
Q 2069 2156 2228 2338 
Q 2531 2678 2651 2914 
Q 2772 3150 2772 3378 
Q 2772 3750 2511 3984 
Q 2250 4219 1831 4219 
Q 1534 4219 1204 4116 
Q 875 4013 500 3803 
L 500 4441 
Q 881 4594 1212 4672 
Q 1544 4750 1819 4750 
Q 2544 4750 2975 4387 
Q 3406 4025 3406 3419 
Q 3406 3131 3298 2873 
Q 3191 2616 2906 2266 
Q 2828 2175 2409 1742 
Q 1991 1309 1228 531 
z
" id="DejaVuSans-32" transform="scale(0.015625)"/>
       </defs>
       <use xlink:href="#DejaVuSans-32"/>
       <use x="63.623047" xlink:href="#DejaVuSans-30"/>
       <use x="127.246094" xlink:href="#DejaVuSans-30"/>
      </g>
     </g>
    </g>
    <g id="xtick_3">
     <g id="line2d_3">
      <g>
       <use style="stroke:#000000;stroke-width:0.8;" x="206.148523" xlink:href="#m3e4aa9baf2" y="307.584"/>
      </g>
     </g>
     <g id="text_3">
      <!-- 400 -->
      <g transform="translate(196.604773 322.182437)scale(0.1 -0.1)">
       <defs>
        <path d="M 2419 4116 
L 825 1625 
L 2419 1625 
L 2419 4116 
z
M 2253 4666 
L 3047 4666 
L 3047 1625 
L 3713 1625 
L 3713 1100 
L 3047 1100 
L 3047 0 
L 2419 0 
L 2419 1100 
L 313 1100 
L 313 1709 
L 2253 4666 
z
" id="DejaVuSans-34" transform="scale(0.015625)"/>
       </defs>
       <use xlink:href="#DejaVuSans-34"/>
       <use x="63.623047" xlink:href="#DejaVuSans-30"/>
       <use x="127.246094" xlink:href="#DejaVuSans-30"/>
      </g>
     </g>
    </g>
    <g id="xtick_4">
     <g id="line2d_4">
      <g>
       <use style="stroke:#000000;stroke-width:0.8;" x="272.47223" xlink:href="#m3e4aa9baf2" y="307.584"/>
      </g>
     </g>
     <g id="text_4">
      <!-- 600 -->
      <g transform="translate(262.92848 322.182437)scale(0.1 -0.1)">
       <defs>
        <path d="M 2113 2584 
Q 1688 2584 1439 2293 
Q 1191 2003 1191 1497 
Q 1191 994 1439 701 
Q 1688 409 2113 409 
Q 2538 409 2786 701 
Q 3034 994 3034 1497 
Q 3034 2003 2786 2293 
Q 2538 2584 2113 2584 
z
M 3366 4563 
L 3366 3988 
Q 3128 4100 2886 4159 
Q 2644 4219 2406 4219 
Q 1781 4219 1451 3797 
Q 1122 3375 1075 2522 
Q 1259 2794 1537 2939 
Q 1816 3084 2150 3084 
Q 2853 3084 3261 2657 
Q 3669 2231 3669 1497 
Q 3669 778 3244 343 
Q 2819 -91 2113 -91 
Q 1303 -91 875 529 
Q 447 1150 447 2328 
Q 447 3434 972 4092 
Q 1497 4750 2381 4750 
Q 2619 4750 2861 4703 
Q 3103 4656 3366 4563 
z
" id="DejaVuSans-36" transform="scale(0.015625)"/>
       </defs>
       <use xlink:href="#DejaVuSans-36"/>
       <use x="63.623047" xlink:href="#DejaVuSans-30"/>
       <use x="127.246094" xlink:href="#DejaVuSans-30"/>
      </g>
     </g>
    </g>
    <g id="xtick_5">
     <g id="line2d_5">
      <g>
       <use style="stroke:#000000;stroke-width:0.8;" x="338.795936" xlink:href="#m3e4aa9baf2" y="307.584"/>
      </g>
     </g>
     <g id="text_5">
      <!-- 800 -->
      <g transform="translate(329.252186 322.182437)scale(0.1 -0.1)">
       <defs>
        <path d="M 2034 2216 
Q 1584 2216 1326 1975 
Q 1069 1734 1069 1313 
Q 1069 891 1326 650 
Q 1584 409 2034 409 
Q 2484 409 2743 651 
Q 3003 894 3003 1313 
Q 3003 1734 2745 1975 
Q 2488 2216 2034 2216 
z
M 1403 2484 
Q 997 2584 770 2862 
Q 544 3141 544 3541 
Q 544 4100 942 4425 
Q 1341 4750 2034 4750 
Q 2731 4750 3128 4425 
Q 3525 4100 3525 3541 
Q 3525 3141 3298 2862 
Q 3072 2584 2669 2484 
Q 3125 2378 3379 2068 
Q 3634 1759 3634 1313 
Q 3634 634 3220 271 
Q 2806 -91 2034 -91 
Q 1263 -91 848 271 
Q 434 634 434 1313 
Q 434 1759 690 2068 
Q 947 2378 1403 2484 
z
M 1172 3481 
Q 1172 3119 1398 2916 
Q 1625 2713 2034 2713 
Q 2441 2713 2670 2916 
Q 2900 3119 2900 3481 
Q 2900 3844 2670 4047 
Q 2441 4250 2034 4250 
Q 1625 4250 1398 4047 
Q 1172 3844 1172 3481 
z
" id="DejaVuSans-38" transform="scale(0.015625)"/>
       </defs>
       <use xlink:href="#DejaVuSans-38"/>
       <use x="63.623047" xlink:href="#DejaVuSans-30"/>
       <use x="127.246094" xlink:href="#DejaVuSans-30"/>
      </g>
     </g>
    </g>
    <g id="xtick_6">
     <g id="line2d_6">
      <g>
       <use style="stroke:#000000;stroke-width:0.8;" x="405.119643" xlink:href="#m3e4aa9baf2" y="307.584"/>
      </g>
     </g>
     <g id="text_6">
      <!-- 1000 -->
      <g transform="translate(392.394643 322.182437)scale(0.1 -0.1)">
       <defs>
        <path d="M 794 531 
L 1825 531 
L 1825 4091 
L 703 3866 
L 703 4441 
L 1819 4666 
L 2450 4666 
L 2450 531 
L 3481 531 
L 3481 0 
L 794 0 
L 794 531 
z
" id="DejaVuSans-31" transform="scale(0.015625)"/>
       </defs>
       <use xlink:href="#DejaVuSans-31"/>
       <use x="63.623047" xlink:href="#DejaVuSans-30"/>
       <use x="127.246094" xlink:href="#DejaVuSans-30"/>
       <use x="190.869141" xlink:href="#DejaVuSans-30"/>
      </g>
     </g>
    </g>
    <g id="text_7">
     <!-- Epoch -->
     <g transform="translate(213.193594 339.659781)scale(0.15 -0.15)">
      <defs>
       <path d="M 628 4666 
L 3578 4666 
L 3578 4134 
L 1259 4134 
L 1259 2753 
L 3481 2753 
L 3481 2222 
L 1259 2222 
L 1259 531 
L 3634 531 
L 3634 0 
L 628 0 
L 628 4666 
z
" id="DejaVuSans-45" transform="scale(0.015625)"/>
       <path d="M 1159 525 
L 1159 -1331 
L 581 -1331 
L 581 3500 
L 1159 3500 
L 1159 2969 
Q 1341 3281 1617 3432 
Q 1894 3584 2278 3584 
Q 2916 3584 3314 3078 
Q 3713 2572 3713 1747 
Q 3713 922 3314 415 
Q 2916 -91 2278 -91 
Q 1894 -91 1617 61 
Q 1341 213 1159 525 
z
M 3116 1747 
Q 3116 2381 2855 2742 
Q 2594 3103 2138 3103 
Q 1681 3103 1420 2742 
Q 1159 2381 1159 1747 
Q 1159 1113 1420 752 
Q 1681 391 2138 391 
Q 2594 391 2855 752 
Q 3116 1113 3116 1747 
z
" id="DejaVuSans-70" transform="scale(0.015625)"/>
       <path d="M 1959 3097 
Q 1497 3097 1228 2736 
Q 959 2375 959 1747 
Q 959 1119 1226 758 
Q 1494 397 1959 397 
Q 2419 397 2687 759 
Q 2956 1122 2956 1747 
Q 2956 2369 2687 2733 
Q 2419 3097 1959 3097 
z
M 1959 3584 
Q 2709 3584 3137 3096 
Q 3566 2609 3566 1747 
Q 3566 888 3137 398 
Q 2709 -91 1959 -91 
Q 1206 -91 779 398 
Q 353 888 353 1747 
Q 353 2609 779 3096 
Q 1206 3584 1959 3584 
z
" id="DejaVuSans-6f" transform="scale(0.015625)"/>
       <path d="M 3122 3366 
L 3122 2828 
Q 2878 2963 2633 3030 
Q 2388 3097 2138 3097 
Q 1578 3097 1268 2742 
Q 959 2388 959 1747 
Q 959 1106 1268 751 
Q 1578 397 2138 397 
Q 2388 397 2633 464 
Q 2878 531 3122 666 
L 3122 134 
Q 2881 22 2623 -34 
Q 2366 -91 2075 -91 
Q 1284 -91 818 406 
Q 353 903 353 1747 
Q 353 2603 823 3093 
Q 1294 3584 2113 3584 
Q 2378 3584 2631 3529 
Q 2884 3475 3122 3366 
z
" id="DejaVuSans-63" transform="scale(0.015625)"/>
       <path d="M 3513 2113 
L 3513 0 
L 2938 0 
L 2938 2094 
Q 2938 2591 2744 2837 
Q 2550 3084 2163 3084 
Q 1697 3084 1428 2787 
Q 1159 2491 1159 1978 
L 1159 0 
L 581 0 
L 581 4863 
L 1159 4863 
L 1159 2956 
Q 1366 3272 1645 3428 
Q 1925 3584 2291 3584 
Q 2894 3584 3203 3211 
Q 3513 2838 3513 2113 
z
" id="DejaVuSans-68" transform="scale(0.015625)"/>
      </defs>
      <use xlink:href="#DejaVuSans-45"/>
      <use x="63.183594" xlink:href="#DejaVuSans-70"/>
      <use x="126.660156" xlink:href="#DejaVuSans-6f"/>
      <use x="187.841797" xlink:href="#DejaVuSans-63"/>
      <use x="242.822266" xlink:href="#DejaVuSans-68"/>
     </g>
    </g>
   </g>
   <g id="matplotlib.axis_2">
    <g id="ytick_1">
     <g id="line2d_7">
      <defs>
       <path d="M 0 0 
L -3.5 0 
" id="m954bd82a85" style="stroke:#000000;stroke-width:0.8;"/>
      </defs>
      <g>
       <use style="stroke:#000000;stroke-width:0.8;" x="57.6" xlink:href="#m954bd82a85" y="300.54192"/>
      </g>
     </g>
     <g id="text_8">
      <!-- 0.0 -->
      <g transform="translate(34.696875 304.341138)scale(0.1 -0.1)">
       <defs>
        <path d="M 684 794 
L 1344 794 
L 1344 0 
L 684 0 
L 684 794 
z
" id="DejaVuSans-2e" transform="scale(0.015625)"/>
       </defs>
       <use xlink:href="#DejaVuSans-30"/>
       <use x="63.623047" xlink:href="#DejaVuSans-2e"/>
       <use x="95.410156" xlink:href="#DejaVuSans-30"/>
      </g>
     </g>
    </g>
    <g id="ytick_2">
     <g id="line2d_8">
      <g>
       <use style="stroke:#000000;stroke-width:0.8;" x="57.6" xlink:href="#m954bd82a85" y="263.847585"/>
      </g>
     </g>
     <g id="text_9">
      <!-- 0.2 -->
      <g transform="translate(34.696875 267.646804)scale(0.1 -0.1)">
       <use xlink:href="#DejaVuSans-30"/>
       <use x="63.623047" xlink:href="#DejaVuSans-2e"/>
       <use x="95.410156" xlink:href="#DejaVuSans-32"/>
      </g>
     </g>
    </g>
    <g id="ytick_3">
     <g id="line2d_9">
      <g>
       <use style="stroke:#000000;stroke-width:0.8;" x="57.6" xlink:href="#m954bd82a85" y="227.15325"/>
      </g>
     </g>
     <g id="text_10">
      <!-- 0.4 -->
      <g transform="translate(34.696875 230.952469)scale(0.1 -0.1)">
       <use xlink:href="#DejaVuSans-30"/>
       <use x="63.623047" xlink:href="#DejaVuSans-2e"/>
       <use x="95.410156" xlink:href="#DejaVuSans-34"/>
      </g>
     </g>
    </g>
    <g id="ytick_4">
     <g id="line2d_10">
      <g>
       <use style="stroke:#000000;stroke-width:0.8;" x="57.6" xlink:href="#m954bd82a85" y="190.458915"/>
      </g>
     </g>
     <g id="text_11">
      <!-- 0.6 -->
      <g transform="translate(34.696875 194.258134)scale(0.1 -0.1)">
       <use xlink:href="#DejaVuSans-30"/>
       <use x="63.623047" xlink:href="#DejaVuSans-2e"/>
       <use x="95.410156" xlink:href="#DejaVuSans-36"/>
      </g>
     </g>
    </g>
    <g id="ytick_5">
     <g id="line2d_11">
      <g>
       <use style="stroke:#000000;stroke-width:0.8;" x="57.6" xlink:href="#m954bd82a85" y="153.764581"/>
      </g>
     </g>
     <g id="text_12">
      <!-- 0.8 -->
      <g transform="translate(34.696875 157.563799)scale(0.1 -0.1)">
       <use xlink:href="#DejaVuSans-30"/>
       <use x="63.623047" xlink:href="#DejaVuSans-2e"/>
       <use x="95.410156" xlink:href="#DejaVuSans-38"/>
      </g>
     </g>
    </g>
    <g id="ytick_6">
     <g id="line2d_12">
      <g>
       <use style="stroke:#000000;stroke-width:0.8;" x="57.6" xlink:href="#m954bd82a85" y="117.070246"/>
      </g>
     </g>
     <g id="text_13">
      <!-- 1.0 -->
      <g transform="translate(34.696875 120.869464)scale(0.1 -0.1)">
       <use xlink:href="#DejaVuSans-31"/>
       <use x="63.623047" xlink:href="#DejaVuSans-2e"/>
       <use x="95.410156" xlink:href="#DejaVuSans-30"/>
      </g>
     </g>
    </g>
    <g id="ytick_7">
     <g id="line2d_13">
      <g>
       <use style="stroke:#000000;stroke-width:0.8;" x="57.6" xlink:href="#m954bd82a85" y="80.375911"/>
      </g>
     </g>
     <g id="text_14">
      <!-- 1.2 -->
      <g transform="translate(34.696875 84.17513)scale(0.1 -0.1)">
       <use xlink:href="#DejaVuSans-31"/>
       <use x="63.623047" xlink:href="#DejaVuSans-2e"/>
       <use x="95.410156" xlink:href="#DejaVuSans-32"/>
      </g>
     </g>
    </g>
    <g id="ytick_8">
     <g id="line2d_14">
      <g>
       <use style="stroke:#000000;stroke-width:0.8;" x="57.6" xlink:href="#m954bd82a85" y="43.681576"/>
      </g>
     </g>
     <g id="text_15">
      <!-- 1.4 -->
      <g transform="translate(34.696875 47.480795)scale(0.1 -0.1)">
       <use xlink:href="#DejaVuSans-31"/>
       <use x="63.623047" xlink:href="#DejaVuSans-2e"/>
       <use x="95.410156" xlink:href="#DejaVuSans-34"/>
      </g>
     </g>
    </g>
   </g>
   <g id="line2d_15">
    <path clip-path="url(#p64f880c7bc)" d="M 73.832727 217.792575 
L 74.164346 217.786186 
L 74.495964 222.269011 
L 74.827583 224.555827 
L 75.49082 212.846517 
L 76.154057 222.986895 
L 76.485676 219.753726 
L 77.148913 219.063649 
L 77.480531 225.200853 
L 78.143768 217.224431 
L 78.475387 223.615697 
L 78.807005 216.324731 
L 79.138624 215.698906 
L 79.801861 225.710018 
L 80.133479 221.46237 
L 80.465098 223.80066 
L 80.796717 221.200229 
L 81.128335 221.196339 
L 81.459954 219.574342 
L 81.791572 219.961911 
L 82.123191 216.581535 
L 82.454809 220.176735 
L 82.786428 226.714939 
L 83.118046 217.49145 
L 83.449665 223.314715 
L 84.112902 209.93924 
L 84.44452 207.626527 
L 84.776139 200.569131 
L 85.107757 208.38292 
L 85.439376 212.912571 
L 85.770995 224.771999 
L 86.102613 220.950319 
L 86.434232 218.744991 
L 86.76585 222.392056 
L 87.097469 228.067255 
L 87.429087 220.513109 
L 87.760706 220.557489 
L 88.092324 225.266433 
L 88.423943 218.703031 
L 88.755561 217.355275 
L 89.08718 233.220228 
L 89.418798 216.952842 
L 89.750417 222.467363 
L 90.082035 219.824216 
L 90.413654 223.069114 
L 90.745273 218.670742 
L 91.076891 224.151543 
L 91.40851 226.017453 
L 91.740128 223.439956 
L 92.071747 222.14856 
L 92.403365 221.394094 
L 92.734984 223.410157 
L 93.066602 214.623126 
L 93.398221 217.144122 
L 93.729839 225.683597 
L 94.061458 219.019886 
L 94.393076 217.077385 
L 95.056313 224.441336 
L 95.387932 222.726448 
L 95.719551 230.104188 
L 96.051169 225.403361 
L 96.382788 218.001129 
L 96.714406 220.434591 
L 97.046025 215.472155 
L 97.377643 222.888845 
L 97.709262 221.342005 
L 98.04088 220.356541 
L 98.372499 221.282476 
L 98.704117 225.110079 
L 99.035736 226.712701 
L 99.367354 219.855302 
L 99.698973 221.97615 
L 100.030592 216.707723 
L 100.36221 228.68967 
L 100.693829 220.891175 
L 101.025447 221.361718 
L 101.357066 221.268079 
L 101.688684 225.988921 
L 102.020303 224.557897 
L 102.351921 224.288985 
L 102.68354 220.666968 
L 103.015158 223.033769 
L 103.346777 223.858627 
L 103.678395 227.242552 
L 104.010014 222.480947 
L 104.341632 225.05558 
L 104.673251 223.225114 
L 105.00487 222.104275 
L 105.336488 222.334622 
L 105.668107 222.081612 
L 105.999725 221.51457 
L 106.331344 221.751603 
L 106.662962 218.408762 
L 106.994581 220.092122 
L 107.326199 230.048642 
L 107.657818 225.693821 
L 107.989436 225.292222 
L 108.321055 227.201659 
L 108.652673 219.472338 
L 108.984292 226.916641 
L 109.31591 223.17722 
L 109.647529 230.005576 
L 109.979148 224.284894 
L 110.310766 227.368688 
L 110.642385 225.424924 
L 110.974003 228.14063 
L 111.305622 227.56965 
L 111.63724 232.245601 
L 111.968859 232.75197 
L 112.300477 224.301425 
L 112.632096 238.083564 
L 112.963714 224.108184 
L 113.626951 233.399565 
L 113.95857 234.40648 
L 114.290189 232.968765 
L 114.621807 230.228772 
L 114.953426 230.743797 
L 115.285044 228.634756 
L 115.616663 231.603224 
L 115.948281 231.713655 
L 116.2799 236.693415 
L 116.611518 243.417295 
L 117.274755 229.597038 
L 117.606374 230.771668 
L 117.937992 239.304596 
L 118.269611 233.787403 
L 118.601229 238.770268 
L 118.932848 239.766214 
L 119.264467 237.806394 
L 119.927704 232.898225 
L 120.259322 236.047001 
L 120.590941 241.830905 
L 120.922559 232.736246 
L 121.254178 242.77572 
L 121.585796 239.967413 
L 121.917415 239.047679 
L 122.249033 233.731455 
L 122.580652 241.022587 
L 122.91227 237.35861 
L 123.243889 231.151674 
L 123.575507 240.595079 
L 123.907126 246.034186 
L 124.238745 241.201767 
L 124.570363 246.768077 
L 124.901982 235.181653 
L 125.2336 238.403144 
L 125.565219 244.574291 
L 125.896837 242.435637 
L 126.228456 246.622977 
L 126.560074 241.801158 
L 126.891693 244.790138 
L 127.223311 246.539757 
L 127.55493 247.49517 
L 127.886548 244.364529 
L 128.218167 238.559891 
L 128.549785 246.503925 
L 128.881404 246.823272 
L 129.213023 247.682273 
L 129.544641 246.118834 
L 129.87626 255.139413 
L 130.207878 255.832663 
L 130.539497 240.34683 
L 130.871115 239.704787 
L 131.865971 258.322706 
L 132.197589 249.867347 
L 132.529208 257.12955 
L 132.860826 250.625382 
L 133.192445 252.965449 
L 133.524064 254.140816 
L 133.855682 246.579228 
L 134.187301 257.178565 
L 134.518919 249.554144 
L 134.850538 258.180837 
L 135.182156 251.447353 
L 135.513775 256.950883 
L 135.845393 253.423124 
L 136.177012 245.723694 
L 136.50863 247.274558 
L 136.840249 254.950332 
L 137.171867 249.578976 
L 137.503486 257.88727 
L 137.835104 261.666106 
L 138.166723 259.300242 
L 138.498342 259.770456 
L 138.82996 253.083095 
L 139.161579 255.862848 
L 139.493197 262.114478 
L 140.156434 251.290932 
L 140.488053 260.62422 
L 140.819671 256.37545 
L 141.15129 254.699144 
L 141.482908 254.105577 
L 141.814527 255.209063 
L 142.146145 260.345606 
L 142.477764 259.924604 
L 142.809382 265.442454 
L 143.141001 257.649116 
L 143.47262 254.899419 
L 143.804238 260.061008 
L 144.135857 256.993468 
L 144.467475 256.585466 
L 144.799094 255.723166 
L 145.130712 257.882446 
L 145.462331 257.644069 
L 145.793949 255.176002 
L 146.125568 256.399293 
L 146.457186 258.417801 
L 146.788805 262.472503 
L 147.120423 258.648181 
L 147.452042 263.158823 
L 147.783661 254.261016 
L 148.115279 255.409783 
L 148.446898 254.974894 
L 148.778516 261.039549 
L 149.110135 257.112528 
L 149.441753 264.409463 
L 150.10499 258.979956 
L 150.436609 266.52704 
L 150.768227 255.164579 
L 151.099846 265.193454 
L 151.763083 260.993708 
L 152.094701 264.591236 
L 152.42632 264.069748 
L 152.757939 268.057107 
L 153.089557 262.117633 
L 153.421176 261.727824 
L 153.752794 259.054064 
L 154.084413 259.775209 
L 154.416031 269.627432 
L 154.74765 263.239583 
L 155.079268 259.966113 
L 155.410887 261.210512 
L 155.742505 255.967217 
L 156.074124 264.488944 
L 156.405742 252.759408 
L 156.737361 259.722671 
L 157.068979 260.155646 
L 157.400598 260.347916 
L 157.732217 265.636324 
L 158.063835 262.935193 
L 158.395454 264.72021 
L 158.727072 267.380359 
L 159.058691 256.270225 
L 159.390309 264.939722 
L 159.721928 261.996831 
L 160.053546 264.511784 
L 160.385165 255.921964 
L 161.048402 268.897655 
L 161.38002 266.738379 
L 161.711639 257.029542 
L 162.043257 266.40448 
L 162.374876 262.599296 
L 162.706495 262.011854 
L 163.038113 264.375015 
L 163.369732 260.471863 
L 163.70135 270.74856 
L 164.364587 263.172933 
L 164.696206 265.031273 
L 165.027824 271.060349 
L 165.359443 268.932946 
L 165.691061 269.679328 
L 166.02268 266.891001 
L 166.354298 261.393615 
L 166.685917 263.935824 
L 167.017536 264.516049 
L 167.349154 258.920255 
L 167.680773 271.09718 
L 168.012391 269.3719 
L 168.34401 269.342072 
L 168.675628 272.085488 
L 169.007247 265.009996 
L 169.338865 265.886336 
L 169.670484 258.825525 
L 170.002102 264.807383 
L 170.333721 264.056019 
L 170.665339 276.151288 
L 170.996958 267.131668 
L 171.328576 269.268989 
L 171.660195 270.552026 
L 171.991814 268.246274 
L 172.323432 272.303322 
L 172.655051 268.216627 
L 172.986669 276.4495 
L 173.318288 260.277705 
L 173.649906 265.675506 
L 173.981525 273.460208 
L 174.313143 268.957 
L 174.644762 270.748251 
L 174.97638 267.831169 
L 175.307999 268.306413 
L 175.639617 266.850742 
L 175.971236 273.356727 
L 176.302854 263.642489 
L 176.634473 263.790456 
L 177.29771 272.748385 
L 177.629329 273.485921 
L 177.960947 268.366181 
L 178.292566 268.792386 
L 178.624184 270.984791 
L 178.955803 275.071019 
L 179.287421 271.590146 
L 179.61904 276.567066 
L 179.950658 263.244406 
L 180.282277 274.103814 
L 180.613895 271.418356 
L 180.945514 271.636086 
L 181.277133 270.72966 
L 181.608751 278.004736 
L 181.94037 275.156706 
L 182.271988 266.406192 
L 182.603607 270.366109 
L 182.935225 270.844307 
L 183.266844 271.059657 
L 183.598462 273.356741 
L 183.930081 269.391842 
L 184.261699 275.797194 
L 184.593318 273.428951 
L 184.924936 273.997975 
L 185.256555 280.659374 
L 185.588173 268.580599 
L 186.251411 280.480309 
L 186.914648 272.600809 
L 187.246266 281.213944 
L 187.577885 277.03958 
L 187.909503 270.009696 
L 188.57274 275.653042 
L 188.904359 268.393935 
L 189.567596 272.815309 
L 189.899214 268.233819 
L 190.230833 268.883144 
L 190.562451 274.950549 
L 190.89407 261.663948 
L 191.557307 275.344524 
L 191.888926 275.795113 
L 192.220544 269.030569 
L 192.552163 276.848286 
L 192.883781 276.709581 
L 193.2154 278.182544 
L 193.547018 278.539493 
L 194.210255 274.160214 
L 194.541874 275.815152 
L 194.873492 275.91935 
L 195.205111 278.409362 
L 195.53673 278.619055 
L 195.868348 276.479214 
L 196.199967 280.346682 
L 196.531585 273.152445 
L 196.863204 277.242515 
L 197.194822 276.868507 
L 197.526441 271.662464 
L 197.858059 269.641903 
L 198.189678 268.545883 
L 198.521296 277.49101 
L 198.852915 275.26075 
L 199.184533 280.089796 
L 199.516152 273.914314 
L 199.84777 273.75124 
L 200.511008 279.052272 
L 200.842626 270.713334 
L 201.174245 277.928989 
L 202.1691 266.8451 
L 202.500719 272.023107 
L 202.832337 273.467355 
L 203.163956 273.03159 
L 203.495574 277.520507 
L 203.827193 275.429903 
L 204.158811 276.448195 
L 204.49043 276.592561 
L 204.822048 274.208178 
L 205.153667 284.480936 
L 205.485286 276.981521 
L 205.816904 277.979552 
L 206.148523 272.854723 
L 206.480141 282.658197 
L 207.143378 274.689994 
L 207.474997 280.528317 
L 207.806615 271.153639 
L 208.138234 280.766727 
L 208.469852 274.056032 
L 209.133089 282.375832 
L 209.464708 277.734344 
L 209.796326 282.0005 
L 210.127945 280.679007 
L 210.459564 273.291384 
L 210.791182 277.475463 
L 211.122801 273.808421 
L 211.454419 285.606181 
L 211.786038 271.063608 
L 212.117656 273.164411 
L 212.449275 282.882416 
L 212.780893 274.601511 
L 213.112512 274.480765 
L 213.44413 276.046784 
L 214.107367 280.552885 
L 214.438986 278.072157 
L 214.770605 283.928063 
L 215.102223 278.807484 
L 215.433842 279.057019 
L 215.76546 265.565811 
L 216.097079 277.107134 
L 216.428697 280.314816 
L 216.760316 281.290194 
L 217.091934 280.495248 
L 217.423553 276.772349 
L 217.755171 275.813385 
L 218.418408 269.994222 
L 218.750027 279.48614 
L 219.081645 273.423059 
L 219.413264 271.066809 
L 219.744883 275.194267 
L 220.076501 282.544169 
L 220.40812 277.143439 
L 220.739738 283.124524 
L 221.071357 270.547302 
L 221.402975 281.678149 
L 221.734594 285.982548 
L 222.066212 283.046945 
L 222.397831 281.388504 
L 222.729449 282.029816 
L 223.061068 269.038509 
L 223.392686 281.046825 
L 223.724305 286.30089 
L 224.055923 284.62426 
L 224.387542 275.509082 
L 224.719161 285.545906 
L 225.050779 274.714527 
L 225.382398 282.135266 
L 225.714016 281.870353 
L 226.045635 277.311448 
L 226.377253 279.838605 
L 226.708872 283.60626 
L 227.04049 272.35885 
L 227.372109 279.837275 
L 227.703727 281.049428 
L 228.035346 279.690887 
L 228.366964 269.897591 
L 228.698583 276.506704 
L 229.030202 279.794486 
L 229.36182 280.117543 
L 229.693439 276.72011 
L 230.025057 274.584671 
L 230.356676 285.902415 
L 230.688294 275.812041 
L 231.019913 276.422959 
L 231.351531 280.335461 
L 231.68315 269.693371 
L 232.346387 285.264273 
L 232.678005 282.691499 
L 233.009624 290.632895 
L 233.672861 280.227654 
L 234.00448 275.85501 
L 234.336098 283.768056 
L 234.667717 273.001311 
L 234.999335 281.465013 
L 235.330954 269.978245 
L 235.662572 280.680948 
L 235.994191 281.993285 
L 236.325809 286.093697 
L 236.657428 280.880362 
L 236.989046 280.077156 
L 237.320665 282.034189 
L 237.652283 282.686825 
L 237.983902 267.396807 
L 238.31552 282.210069 
L 238.647139 284.222996 
L 238.978758 277.595547 
L 239.310376 280.851222 
L 239.641995 279.559889 
L 239.973613 282.661418 
L 240.305232 281.758864 
L 240.63685 279.410675 
L 240.968469 278.484343 
L 241.300087 276.136622 
L 241.963324 285.325067 
L 242.294943 276.282687 
L 242.626561 277.594281 
L 242.95818 281.110587 
L 243.289798 272.65581 
L 243.621417 280.06548 
L 243.953036 280.127027 
L 244.284654 279.559391 
L 244.616273 275.567213 
L 244.947891 282.595441 
L 245.27951 277.280587 
L 245.611128 279.915103 
L 245.942747 275.997346 
L 246.274365 283.868566 
L 246.605984 282.69641 
L 246.937602 290.380322 
L 247.269221 277.720565 
L 247.600839 287.636263 
L 247.932458 286.909007 
L 248.264077 276.147261 
L 249.258932 287.189307 
L 249.922169 269.254306 
L 250.253788 288.243291 
L 250.585406 279.385858 
L 250.917025 281.754918 
L 251.248643 279.596969 
L 251.580262 279.265769 
L 251.91188 278.419933 
L 252.243499 280.80857 
L 252.575117 284.393089 
L 253.238355 280.142297 
L 253.569973 280.128895 
L 253.901592 289.687465 
L 254.23321 283.429595 
L 254.564829 284.852381 
L 254.896447 281.836399 
L 255.559684 283.925349 
L 255.891303 277.924722 
L 256.222921 282.476633 
L 256.55454 283.216238 
L 256.886158 280.27387 
L 257.217777 283.468114 
L 257.549395 289.871129 
L 257.881014 282.639079 
L 258.212633 287.444489 
L 258.544251 285.047958 
L 259.207488 273.254194 
L 259.539107 288.547676 
L 259.870725 287.074241 
L 260.202344 276.629654 
L 260.533962 285.969928 
L 260.865581 281.767725 
L 261.197199 286.972631 
L 261.528818 282.758799 
L 261.860436 284.239329 
L 262.192055 283.454419 
L 262.523674 285.082822 
L 262.855292 283.011409 
L 263.186911 284.328598 
L 263.518529 287.18612 
L 263.850148 283.765379 
L 264.181766 284.354292 
L 264.513385 288.673985 
L 264.845003 282.11582 
L 265.176622 286.736131 
L 265.50824 278.772863 
L 265.839859 279.505212 
L 266.171477 285.915336 
L 266.503096 283.962115 
L 266.834714 290.230457 
L 267.497952 283.569918 
L 267.82957 277.436748 
L 268.161189 291.062873 
L 268.492807 283.055101 
L 268.824426 285.340478 
L 269.156044 278.282729 
L 269.819281 284.856432 
L 270.1509 284.361191 
L 270.482518 284.740344 
L 270.814137 284.933888 
L 271.145755 281.674561 
L 271.477374 285.347578 
L 271.808992 282.114779 
L 272.140611 285.228155 
L 272.803848 276.41443 
L 273.135467 277.18951 
L 273.467085 278.541116 
L 273.798704 283.738415 
L 274.130322 277.446183 
L 274.461941 284.571765 
L 274.793559 276.53812 
L 275.125178 281.893352 
L 275.788415 285.765313 
L 276.120033 277.458407 
L 276.451652 288.840913 
L 276.78327 276.804996 
L 277.114889 285.448651 
L 277.446508 283.888195 
L 277.778126 284.204698 
L 278.109745 288.276122 
L 278.441363 286.131105 
L 278.772982 281.75952 
L 279.1046 286.235307 
L 279.436219 285.995466 
L 279.767837 282.043572 
L 280.099456 281.394984 
L 280.431074 284.68422 
L 281.094311 281.952583 
L 281.42593 267.982596 
L 281.757549 283.593498 
L 282.089167 286.293746 
L 282.420786 276.933279 
L 282.752404 285.043895 
L 283.084023 280.018514 
L 283.415641 276.968475 
L 283.74726 284.181004 
L 284.078878 286.014181 
L 284.410497 278.093523 
L 284.742115 285.950097 
L 285.073734 287.598184 
L 285.736971 287.630696 
L 286.068589 280.558798 
L 286.400208 279.1107 
L 287.063445 288.792662 
L 287.395064 282.965314 
L 287.726682 286.315137 
L 288.058301 291.258376 
L 288.389919 283.377319 
L 288.721538 288.382574 
L 289.053156 285.654336 
L 289.384775 288.236195 
L 289.716393 284.853885 
L 290.048012 284.151795 
L 290.37963 283.181047 
L 290.711249 283.317771 
L 291.374486 290.448615 
L 291.706105 287.114117 
L 292.037723 278.256792 
L 292.369342 288.022967 
L 292.70096 284.161899 
L 293.032579 283.641497 
L 293.364197 280.1794 
L 293.695816 284.029047 
L 294.359053 287.08487 
L 294.690671 286.096384 
L 295.02229 278.711606 
L 295.353908 289.098631 
L 295.685527 283.112374 
L 296.017146 284.615486 
L 296.348764 283.991876 
L 296.680383 286.627758 
L 297.012001 278.789606 
L 297.34362 289.924038 
L 297.675238 285.36455 
L 298.338475 289.141687 
L 298.670094 279.398386 
L 299.333331 288.467022 
L 299.664949 281.491692 
L 299.996568 285.84465 
L 300.328186 285.451436 
L 300.659805 287.777216 
L 300.991424 286.760991 
L 301.323042 289.497206 
L 301.654661 288.220691 
L 301.986279 284.7344 
L 302.317898 285.430939 
L 302.649516 280.422877 
L 302.981135 286.268215 
L 303.644372 282.976839 
L 303.97599 287.642071 
L 304.307609 279.596468 
L 304.639227 281.432041 
L 304.970846 277.841398 
L 305.302464 281.661768 
L 305.634083 277.424777 
L 305.965702 285.377029 
L 306.29732 283.710598 
L 306.960557 286.947555 
L 307.292176 281.754267 
L 307.623794 288.528034 
L 307.955413 291.359243 
L 308.61865 284.00971 
L 308.950268 283.707467 
L 309.281887 289.504524 
L 309.613505 273.867536 
L 309.945124 286.541002 
L 310.276743 287.549615 
L 310.608361 287.672668 
L 310.93998 282.098465 
L 311.271598 280.424104 
L 311.603217 276.64311 
L 312.929691 286.613547 
L 313.261309 286.99122 
L 313.592928 293.6783 
L 314.256165 288.986971 
L 314.587783 287.414022 
L 314.919402 278.742948 
L 315.251021 283.234814 
L 315.582639 284.229761 
L 315.914258 283.368565 
L 316.245876 281.863978 
L 316.577495 290.201248 
L 316.909113 285.02733 
L 317.240732 289.19379 
L 317.903969 282.337607 
L 318.235587 283.265635 
L 318.567206 280.848272 
L 318.898824 269.482489 
L 319.230443 283.023204 
L 319.562061 288.812445 
L 319.89368 283.43049 
L 320.225299 289.587789 
L 320.556917 288.339412 
L 320.888536 280.546485 
L 321.551773 293.240847 
L 321.883391 291.360018 
L 322.546628 283.588215 
L 322.878247 283.036176 
L 323.209865 288.860996 
L 323.541484 286.063831 
L 323.873102 290.305315 
L 324.204721 286.435816 
L 324.536339 277.979626 
L 324.867958 274.378768 
L 325.199577 282.888751 
L 325.531195 283.519747 
L 325.862814 284.986768 
L 326.194432 290.143987 
L 326.526051 287.571363 
L 326.857669 288.457207 
L 327.189288 285.024629 
L 327.520906 290.439769 
L 327.852525 283.705616 
L 328.184143 287.924288 
L 328.515762 282.108693 
L 328.84738 286.18108 
L 329.178999 283.068635 
L 329.510618 291.072051 
L 329.842236 284.35067 
L 330.173855 283.820127 
L 330.505473 284.37864 
L 330.837092 287.766138 
L 331.16871 280.379415 
L 331.500329 287.305945 
L 331.831947 281.787797 
L 332.163566 286.720587 
L 332.495184 284.300417 
L 332.826803 285.040152 
L 333.158421 285.174965 
L 333.49004 280.657308 
L 333.821658 283.63352 
L 334.153277 282.090719 
L 334.484896 279.45876 
L 334.816514 290.885818 
L 335.148133 281.879507 
L 335.479751 280.633201 
L 336.142988 288.11632 
L 336.474607 287.787972 
L 336.806225 282.438006 
L 337.137844 289.118185 
L 337.469462 288.016148 
L 337.801081 283.352766 
L 338.464318 291.063963 
L 338.795936 283.583559 
L 339.127555 285.410958 
L 339.459174 290.093488 
L 339.790792 285.377706 
L 340.122411 284.634048 
L 340.454029 281.509874 
L 340.785648 285.446382 
L 341.117266 287.665181 
L 341.448885 282.477385 
L 341.780503 287.442102 
L 342.112122 282.957016 
L 342.44374 281.341609 
L 343.106977 290.927939 
L 343.438596 284.650257 
L 343.770215 287.578242 
L 344.101833 283.058217 
L 344.433452 285.394654 
L 344.76507 283.297739 
L 345.096689 287.424764 
L 345.428307 283.390515 
L 345.759926 287.369224 
L 346.423163 291.436532 
L 346.754781 292.125388 
L 347.0864 282.959876 
L 347.418018 288.472129 
L 347.749637 288.248672 
L 348.081255 279.693824 
L 348.412874 282.136313 
L 348.744493 281.929383 
L 349.076111 280.61757 
L 349.40773 288.689642 
L 350.070967 279.746277 
L 350.402585 288.507954 
L 350.734204 282.654107 
L 351.065822 284.62514 
L 351.397441 289.175683 
L 351.729059 289.750058 
L 352.060678 287.806497 
L 352.392296 291.795813 
L 352.723915 281.438874 
L 353.055533 285.152623 
L 353.718771 277.731973 
L 354.050389 283.336613 
L 354.382008 280.80825 
L 354.713626 287.64675 
L 355.045245 289.114233 
L 355.376863 284.847995 
L 355.708482 287.796461 
L 356.0401 292.887717 
L 356.371719 280.138049 
L 356.703337 288.574912 
L 357.034956 288.689606 
L 357.366574 293.253349 
L 357.698193 292.361988 
L 358.029811 277.520527 
L 358.36143 279.725096 
L 359.024667 291.834098 
L 359.356286 284.095735 
L 359.687904 281.264834 
L 360.019523 292.254333 
L 360.351141 290.498248 
L 361.345997 281.582087 
L 361.677615 288.471105 
L 362.009234 290.024067 
L 362.340852 285.995735 
L 362.672471 287.1541 
L 363.00409 289.466256 
L 363.335708 280.770469 
L 363.667327 278.727622 
L 363.998945 287.65058 
L 364.330564 287.033264 
L 364.662182 282.84218 
L 364.993801 290.766952 
L 365.325419 285.182768 
L 365.657038 283.237888 
L 365.988656 286.878883 
L 366.320275 295.488 
L 366.651893 292.056537 
L 366.983512 286.667475 
L 367.31513 287.169528 
L 367.646749 286.702847 
L 367.978368 282.372492 
L 368.309986 292.89623 
L 368.641605 287.700626 
L 368.973223 280.649513 
L 369.304842 283.453734 
L 369.968079 292.029866 
L 370.299697 283.728814 
L 370.631316 285.309335 
L 370.962934 282.578006 
L 371.294553 285.515005 
L 371.626171 291.085044 
L 371.95779 294.731156 
L 372.289408 285.148325 
L 372.621027 283.858865 
L 372.952646 291.784315 
L 373.284264 283.48322 
L 373.615883 292.930724 
L 373.947501 287.683059 
L 374.27912 292.320739 
L 374.610738 290.969759 
L 374.942357 294.510664 
L 375.273975 283.651665 
L 375.605594 289.352055 
L 375.937212 283.162914 
L 376.600449 291.39041 
L 376.932068 291.930542 
L 377.263687 284.905772 
L 377.595305 288.508518 
L 377.926924 281.735772 
L 378.258542 285.795045 
L 378.590161 286.711975 
L 378.921779 289.330194 
L 379.253398 281.707704 
L 379.585016 283.152041 
L 379.916635 282.964332 
L 380.248253 275.437996 
L 380.579872 292.053182 
L 380.91149 287.572099 
L 381.243109 288.321458 
L 381.574727 274.802316 
L 382.237965 286.419065 
L 382.569583 272.431237 
L 382.901202 282.901746 
L 383.23282 285.801415 
L 383.564439 290.219782 
L 383.896057 293.091219 
L 384.227676 289.233028 
L 384.559294 290.273046 
L 384.890913 282.558204 
L 385.55415 279.064723 
L 385.885768 285.050813 
L 386.217387 287.822813 
L 386.549005 288.254316 
L 386.880624 285.293292 
L 387.212243 289.894985 
L 387.87548 291.997832 
L 388.207098 287.464956 
L 388.538717 274.10934 
L 388.870335 288.272302 
L 389.201954 281.560209 
L 389.533572 282.236026 
L 389.865191 292.328075 
L 390.196809 291.817332 
L 390.528428 288.196892 
L 390.860046 288.687266 
L 391.191665 282.081651 
L 391.523283 282.76759 
L 392.186521 290.155494 
L 392.518139 291.411067 
L 393.181376 281.497512 
L 393.512995 279.912437 
L 393.844613 288.178935 
L 394.176232 280.909514 
L 394.50785 284.908228 
L 394.839469 284.869391 
L 395.502706 291.296648 
L 395.834324 292.611119 
L 396.497562 286.506273 
L 396.82918 282.706451 
L 397.160799 291.213903 
L 397.492417 276.05349 
L 397.824036 293.499427 
L 398.155654 278.258401 
L 398.487273 284.758746 
L 398.487273 284.758746 
" style="fill:none;stroke:#1f77b4;stroke-linecap:square;stroke-width:1.5;"/>
   </g>
   <g id="line2d_16">
    <path clip-path="url(#p64f880c7bc)" d="M 73.832727 84.071321 
L 74.164346 81.428155 
L 74.827583 88.850681 
L 75.159201 86.955727 
L 75.822438 90.338982 
L 76.154057 90.393197 
L 76.485676 88.04408 
L 76.817294 88.905931 
L 77.148913 89.236695 
L 77.480531 89.293715 
L 77.81215 88.793105 
L 78.143768 90.661781 
L 78.475387 90.246638 
L 78.807005 88.40678 
L 79.138624 87.403687 
L 79.470242 90.07663 
L 79.801861 90.539664 
L 80.133479 90.539062 
L 80.465098 89.812587 
L 80.796717 88.371176 
L 81.128335 89.803661 
L 81.459954 88.394137 
L 81.791572 87.517866 
L 82.123191 90.568774 
L 82.454809 91.625092 
L 82.786428 91.550604 
L 83.118046 91.764984 
L 83.449665 91.095277 
L 83.781283 86.814435 
L 84.112902 79.949716 
L 84.44452 53.568 
L 84.776139 65.069529 
L 85.107757 63.646451 
L 85.439376 86.990132 
L 85.770995 90.440646 
L 86.102613 87.816143 
L 86.434232 91.013248 
L 86.76585 91.100108 
L 87.097469 89.947083 
L 87.429087 91.993425 
L 87.760706 90.875997 
L 88.092324 90.50264 
L 88.423943 89.738522 
L 88.755561 89.376279 
L 89.08718 89.360187 
L 89.418798 92.075859 
L 89.750417 92.138592 
L 90.082035 92.381878 
L 90.413654 91.518699 
L 91.076891 92.507564 
L 91.40851 91.741569 
L 91.740128 93.868716 
L 92.071747 94.011278 
L 92.403365 91.205605 
L 92.734984 89.946637 
L 93.066602 90.227594 
L 93.729839 89.834185 
L 94.061458 88.003771 
L 94.393076 88.395995 
L 94.724695 90.893608 
L 95.056313 92.504854 
L 95.719551 93.772593 
L 96.051169 92.273506 
L 96.714406 95.97401 
L 97.046025 95.665369 
L 97.377643 93.45899 
L 97.709262 95.487263 
L 98.04088 91.590722 
L 98.372499 91.291205 
L 98.704117 95.596905 
L 99.035736 92.79704 
L 99.367354 88.096014 
L 99.698973 89.112167 
L 100.030592 92.374991 
L 100.36221 92.416819 
L 100.693829 95.817569 
L 101.025447 94.960012 
L 101.357066 87.632988 
L 101.688684 96.186894 
L 102.020303 97.246845 
L 102.351921 97.079146 
L 102.68354 97.35029 
L 103.015158 95.09544 
L 103.346777 97.455971 
L 103.678395 98.627684 
L 104.010014 97.41186 
L 104.341632 97.842273 
L 104.673251 97.452687 
L 105.00487 97.270085 
L 105.336488 94.260594 
L 105.668107 93.658358 
L 105.999725 95.201946 
L 106.331344 95.686391 
L 106.994581 97.016345 
L 107.657818 101.225037 
L 108.321055 101.925588 
L 108.652673 104.987577 
L 109.31591 102.934514 
L 109.647529 105.922939 
L 109.979148 102.814897 
L 110.310766 102.733163 
L 110.642385 108.915397 
L 110.974003 108.823243 
L 111.305622 110.559695 
L 111.63724 108.301407 
L 111.968859 109.09307 
L 112.632096 109.382186 
L 112.963714 115.43505 
L 113.295333 116.221722 
L 113.626951 111.592788 
L 113.95857 116.757515 
L 114.290189 117.620101 
L 114.621807 114.627281 
L 114.953426 113.02675 
L 115.285044 114.213822 
L 115.948281 118.280787 
L 116.2799 121.286643 
L 116.611518 114.612782 
L 116.943137 117.286417 
L 117.274755 118.449686 
L 117.606374 120.159654 
L 117.937992 114.948219 
L 118.269611 121.787452 
L 118.601229 117.850956 
L 118.932848 99.659676 
L 119.264467 120.501403 
L 119.596085 117.468301 
L 119.927704 124.67726 
L 120.259322 125.13476 
L 120.590941 125.909448 
L 120.922559 125.100721 
L 121.254178 119.348674 
L 121.585796 105.38976 
L 121.917415 130.302426 
L 122.580652 123.549132 
L 123.243889 131.475489 
L 123.575507 123.923943 
L 123.907126 139.718481 
L 124.570363 134.164299 
L 124.901982 142.206557 
L 125.2336 140.595026 
L 125.565219 141.406004 
L 125.896837 138.542741 
L 126.560074 144.00774 
L 126.891693 145.74234 
L 127.223311 144.142113 
L 127.55493 147.286464 
L 127.886548 143.77967 
L 128.218167 144.504474 
L 128.549785 149.892458 
L 128.881404 144.958933 
L 129.213023 149.944632 
L 129.544641 141.584657 
L 129.87626 147.038181 
L 130.207878 140.472219 
L 130.539497 146.980685 
L 130.871115 146.782215 
L 131.202734 156.410194 
L 131.534352 152.570489 
L 132.197589 148.690979 
L 132.529208 139.649933 
L 132.860826 160.068863 
L 133.192445 158.150795 
L 133.524064 150.088622 
L 133.855682 151.915191 
L 134.187301 161.45455 
L 134.518919 153.884224 
L 134.850538 154.007742 
L 135.182156 157.328331 
L 135.513775 120.673709 
L 135.845393 154.612794 
L 136.177012 157.380903 
L 136.50863 161.585055 
L 136.840249 148.015962 
L 137.171867 157.90265 
L 137.503486 126.999296 
L 137.835104 152.566597 
L 138.166723 159.341508 
L 138.498342 157.471916 
L 138.82996 163.802725 
L 139.161579 158.108123 
L 139.493197 155.57423 
L 139.824816 136.840354 
L 140.156434 162.685431 
L 140.488053 145.818929 
L 140.819671 159.663739 
L 141.15129 152.09635 
L 141.482908 159.027637 
L 141.814527 149.465175 
L 142.146145 159.25556 
L 142.477764 158.053943 
L 142.809382 159.559104 
L 143.141001 164.230594 
L 143.47262 162.860332 
L 143.804238 158.761518 
L 144.135857 139.429442 
L 144.467475 150.170972 
L 144.799094 153.894558 
L 145.130712 161.877531 
L 145.462331 163.102367 
L 145.793949 155.822366 
L 146.125568 162.736063 
L 146.457186 164.884808 
L 146.788805 159.227368 
L 147.452042 168.916161 
L 147.783661 162.067508 
L 148.115279 166.923376 
L 148.446898 152.43432 
L 148.778516 150.258619 
L 149.110135 167.87507 
L 149.441753 163.862081 
L 149.773372 164.802639 
L 150.10499 162.511377 
L 150.436609 167.326025 
L 150.768227 152.811864 
L 151.099846 164.827027 
L 151.431464 166.861541 
L 151.763083 165.054213 
L 152.094701 164.839107 
L 152.42632 163.738652 
L 152.757939 148.152694 
L 153.089557 170.106737 
L 153.421176 156.89892 
L 154.084413 163.136427 
L 154.416031 151.763453 
L 154.74765 158.739697 
L 155.410887 161.419089 
L 155.742505 159.580479 
L 156.074124 165.72235 
L 156.405742 162.910802 
L 156.737361 164.730925 
L 157.068979 169.422325 
L 157.400598 160.194223 
L 157.732217 172.228684 
L 158.063835 139.991104 
L 158.395454 150.371681 
L 158.727072 149.989567 
L 159.058691 138.150344 
L 159.721928 160.630953 
L 160.053546 153.296704 
L 160.716783 173.307011 
L 161.048402 168.935298 
L 161.38002 159.743866 
L 161.711639 158.816959 
L 162.043257 159.037834 
L 162.374876 162.359836 
L 162.706495 158.347272 
L 163.038113 159.496725 
L 163.369732 154.418573 
L 163.70135 167.118312 
L 164.032969 171.522049 
L 164.364587 160.117773 
L 164.696206 165.725746 
L 165.027824 167.692273 
L 165.359443 168.508779 
L 165.691061 131.190738 
L 166.02268 171.377948 
L 166.354298 159.525703 
L 166.685917 169.673553 
L 167.017536 163.735773 
L 167.349154 144.57732 
L 167.680773 158.008715 
L 168.012391 162.628188 
L 168.34401 172.57719 
L 168.675628 166.184058 
L 169.338865 170.476875 
L 169.670484 163.425922 
L 170.333721 157.538882 
L 170.665339 154.418176 
L 170.996958 163.797509 
L 171.328576 163.842829 
L 171.660195 173.307384 
L 171.991814 173.275282 
L 172.323432 175.833926 
L 172.655051 157.436767 
L 172.986669 165.067544 
L 173.318288 168.140488 
L 173.649906 172.528727 
L 173.981525 174.014502 
L 174.313143 173.456713 
L 174.644762 160.981584 
L 174.97638 174.113609 
L 175.307999 178.852147 
L 175.639617 174.237876 
L 175.971236 172.326984 
L 176.302854 161.470547 
L 176.634473 175.239149 
L 176.966092 172.6667 
L 177.29771 176.557336 
L 177.629329 170.186154 
L 177.960947 176.008759 
L 178.292566 177.274741 
L 178.624184 167.564062 
L 178.955803 162.757156 
L 179.61904 172.112753 
L 179.950658 180.774126 
L 180.282277 181.94488 
L 180.613895 177.295323 
L 180.945514 168.617749 
L 181.277133 180.895131 
L 181.608751 166.396192 
L 181.94037 170.815566 
L 182.271988 172.887766 
L 182.603607 176.696591 
L 182.935225 164.822069 
L 183.266844 170.034307 
L 183.598462 169.494002 
L 183.930081 174.067409 
L 184.261699 172.507409 
L 184.593318 159.564351 
L 184.924936 166.666733 
L 185.256555 148.072171 
L 185.588173 177.032593 
L 185.919792 169.494699 
L 186.251411 168.224441 
L 186.583029 173.803626 
L 186.914648 158.238368 
L 187.246266 164.630639 
L 187.577885 145.726434 
L 188.241122 171.84043 
L 188.57274 168.896328 
L 188.904359 169.311769 
L 189.235977 164.855672 
L 189.567596 172.460013 
L 189.899214 167.526675 
L 190.230833 170.304621 
L 190.562451 166.753839 
L 190.89407 169.0933 
L 191.225689 136.364029 
L 191.557307 174.61798 
L 191.888926 178.237104 
L 192.220544 157.998993 
L 192.552163 180.547839 
L 192.883781 168.429301 
L 193.2154 178.213755 
L 193.547018 174.448987 
L 194.210255 163.871661 
L 194.541874 177.138461 
L 195.205111 146.964639 
L 195.53673 165.326135 
L 195.868348 162.144493 
L 196.199967 106.479723 
L 196.531585 165.590631 
L 197.194822 161.156088 
L 197.526441 176.757903 
L 197.858059 156.00762 
L 198.189678 165.754224 
L 198.521296 144.795494 
L 198.852915 178.758358 
L 199.184533 174.012469 
L 199.516152 179.991035 
L 199.84777 158.279923 
L 200.179389 170.147219 
L 200.511008 147.96634 
L 200.842626 174.459566 
L 201.174245 180.667367 
L 201.505863 159.512734 
L 201.837482 164.854058 
L 202.1691 180.617433 
L 202.500719 110.032864 
L 202.832337 176.061264 
L 203.163956 181.966322 
L 203.495574 169.98152 
L 203.827193 185.494179 
L 204.158811 181.305044 
L 204.49043 171.786502 
L 204.822048 174.371517 
L 205.153667 180.253096 
L 205.485286 181.157026 
L 205.816904 172.49637 
L 206.148523 171.603183 
L 206.480141 163.115388 
L 206.81176 166.873461 
L 207.143378 161.684761 
L 207.474997 169.159321 
L 207.806615 170.660477 
L 208.138234 163.451403 
L 208.469852 171.503449 
L 208.801471 165.493034 
L 209.133089 172.857924 
L 209.464708 174.555846 
L 209.796326 162.749837 
L 210.127945 159.985282 
L 210.459564 175.235517 
L 210.791182 169.708447 
L 211.122801 166.218345 
L 211.454419 178.573089 
L 211.786038 145.889143 
L 212.117656 171.361243 
L 212.780893 150.610358 
L 213.112512 169.448996 
L 213.44413 179.604361 
L 213.775749 164.900103 
L 214.107367 178.989981 
L 214.438986 183.456958 
L 214.770605 167.761193 
L 215.102223 173.124106 
L 215.76546 153.229586 
L 216.097079 175.378615 
L 216.428697 164.863077 
L 216.760316 160.524823 
L 217.091934 162.555014 
L 217.423553 169.363612 
L 217.755171 165.757478 
L 218.08679 181.559836 
L 218.418408 165.978733 
L 218.750027 161.204178 
L 219.081645 167.337486 
L 219.413264 177.688824 
L 219.744883 177.804012 
L 220.076501 167.324501 
L 220.40812 166.276192 
L 220.739738 183.102919 
L 221.071357 171.922949 
L 221.402975 169.343021 
L 221.734594 172.928561 
L 222.066212 159.817068 
L 222.397831 170.867616 
L 222.729449 166.850103 
L 223.061068 175.040441 
L 223.392686 175.279639 
L 223.724305 149.512947 
L 224.055923 171.9136 
L 224.387542 179.339387 
L 224.719161 164.579592 
L 225.050779 170.062388 
L 225.382398 181.510949 
L 225.714016 173.831923 
L 226.045635 161.3492 
L 226.377253 172.82183 
L 226.708872 177.461026 
L 227.04049 190.858755 
L 227.372109 178.31549 
L 227.703727 149.114839 
L 228.035346 174.687952 
L 228.366964 182.158304 
L 228.698583 170.250045 
L 229.030202 172.385078 
L 229.36182 179.435723 
L 229.693439 173.989533 
L 230.025057 155.545371 
L 230.356676 170.420997 
L 230.688294 155.057239 
L 231.019913 174.498313 
L 231.351531 142.624584 
L 231.68315 169.952532 
L 232.014768 183.792514 
L 232.346387 171.186242 
L 232.678005 173.629017 
L 233.009624 149.630931 
L 233.341242 155.620425 
L 233.672861 170.522842 
L 234.00448 153.040315 
L 234.336098 170.144336 
L 234.667717 168.523592 
L 234.999335 155.293922 
L 235.330954 180.646773 
L 235.662572 179.409236 
L 235.994191 179.428723 
L 236.325809 173.46069 
L 236.657428 159.985087 
L 236.989046 169.253902 
L 237.320665 161.26459 
L 237.652283 161.16782 
L 237.983902 180.683862 
L 238.31552 163.038497 
L 238.647139 183.69435 
L 238.978758 187.26779 
L 239.310376 185.010398 
L 239.641995 189.476256 
L 239.973613 179.516039 
L 240.305232 184.249366 
L 240.968469 172.92305 
L 241.300087 172.220825 
L 241.631706 175.409581 
L 241.963324 166.996202 
L 242.294943 184.571668 
L 242.626561 186.265667 
L 242.95818 161.053712 
L 243.289798 171.411654 
L 243.621417 176.927121 
L 243.953036 177.326294 
L 244.284654 172.706405 
L 244.616273 171.414031 
L 244.947891 160.276398 
L 245.27951 162.595139 
L 245.611128 177.94695 
L 245.942747 167.045293 
L 246.605984 180.334769 
L 246.937602 166.496323 
L 247.269221 175.240798 
L 247.600839 154.723702 
L 247.932458 151.371068 
L 248.264077 161.647892 
L 248.595695 178.233736 
L 248.927314 165.904114 
L 249.590551 149.825484 
L 249.922169 171.346466 
L 250.253788 163.164063 
L 250.585406 178.095018 
L 250.917025 167.971902 
L 251.248643 170.645108 
L 251.580262 155.376743 
L 251.91188 175.725568 
L 252.243499 181.10363 
L 252.575117 156.119169 
L 253.238355 178.865459 
L 253.901592 182.831186 
L 254.23321 183.790031 
L 254.564829 175.499401 
L 254.896447 156.878202 
L 255.228066 162.676411 
L 255.891303 183.896589 
L 256.222921 179.421724 
L 256.886158 162.423635 
L 257.217777 143.240585 
L 257.881014 163.602115 
L 258.544251 159.472684 
L 258.87587 155.992784 
L 259.207488 173.767914 
L 259.539107 167.950359 
L 259.870725 122.988578 
L 260.202344 170.210566 
L 260.533962 157.109251 
L 260.865581 174.659106 
L 261.197199 175.956208 
L 261.528818 181.178492 
L 261.860436 178.164654 
L 262.523674 150.326054 
L 262.855292 155.966214 
L 263.186911 152.98799 
L 263.518529 159.145674 
L 263.850148 161.122651 
L 264.181766 166.208732 
L 264.513385 165.271076 
L 264.845003 167.414883 
L 265.176622 162.238235 
L 265.50824 161.060499 
L 265.839859 161.645501 
L 266.171477 146.41185 
L 266.503096 165.692822 
L 266.834714 161.510583 
L 267.166333 169.93123 
L 267.497952 169.467087 
L 267.82957 154.577187 
L 268.161189 154.314964 
L 268.492807 160.481113 
L 268.824426 157.192309 
L 269.156044 172.343543 
L 269.487663 126.400231 
L 269.819281 173.548414 
L 270.1509 177.444806 
L 270.482518 161.287287 
L 270.814137 179.858732 
L 271.145755 174.504995 
L 271.477374 145.77809 
L 271.808992 171.670031 
L 272.47223 182.702671 
L 272.803848 136.179605 
L 273.135467 111.074465 
L 273.467085 184.723829 
L 273.798704 187.121298 
L 274.130322 182.909012 
L 274.461941 176.864246 
L 274.793559 190.01197 
L 275.788415 155.950505 
L 276.120033 165.539003 
L 276.451652 170.535698 
L 276.78327 155.863486 
L 277.114889 167.830485 
L 277.446508 174.38575 
L 277.778126 161.710092 
L 278.109745 163.873464 
L 278.441363 172.085769 
L 278.772982 168.510578 
L 279.1046 166.606168 
L 279.436219 168.78659 
L 279.767837 137.747064 
L 280.099456 167.836361 
L 280.431074 170.929445 
L 280.762693 148.309971 
L 281.094311 174.515653 
L 281.42593 186.172497 
L 281.757549 165.232593 
L 282.089167 162.887303 
L 282.420786 165.405722 
L 282.752404 133.451519 
L 283.084023 173.821127 
L 283.415641 149.210721 
L 283.74726 154.294826 
L 284.078878 175.065098 
L 284.410497 183.563968 
L 284.742115 179.604807 
L 285.073734 166.740759 
L 285.405352 182.491194 
L 286.068589 159.91088 
L 286.400208 176.529883 
L 287.063445 155.765098 
L 287.395064 173.173034 
L 287.726682 180.423688 
L 288.058301 166.151767 
L 288.389919 182.18127 
L 288.721538 171.213245 
L 289.053156 171.261456 
L 289.384775 156.318652 
L 289.716393 176.271192 
L 290.048012 183.000838 
L 290.711249 168.649118 
L 291.042867 185.510784 
L 291.374486 177.623992 
L 291.706105 153.630169 
L 292.037723 169.396005 
L 292.369342 159.888208 
L 292.70096 170.080699 
L 293.032579 175.258663 
L 293.364197 134.605921 
L 293.695816 180.64378 
L 294.359053 159.512026 
L 294.690671 175.892661 
L 295.02229 166.615037 
L 295.353908 175.976074 
L 295.685527 176.527317 
L 296.017146 166.125704 
L 296.348764 169.085574 
L 296.680383 173.83408 
L 297.012001 170.565689 
L 297.34362 171.025395 
L 297.675238 158.588498 
L 298.006857 180.031406 
L 298.338475 160.831297 
L 298.670094 179.078589 
L 299.001712 179.247034 
L 299.333331 170.232572 
L 299.664949 164.685816 
L 299.996568 148.445192 
L 300.328186 171.219115 
L 300.659805 174.998103 
L 300.991424 155.912843 
L 301.323042 173.292511 
L 301.654661 161.921722 
L 301.986279 168.400124 
L 302.317898 163.652063 
L 302.649516 182.918543 
L 302.981135 176.560238 
L 303.312753 179.259493 
L 303.97599 159.603478 
L 304.307609 174.154411 
L 304.639227 156.280091 
L 304.970846 149.302924 
L 305.302464 176.46575 
L 305.634083 168.680215 
L 305.965702 170.36691 
L 306.29732 184.008533 
L 306.628939 158.574828 
L 306.960557 153.351071 
L 307.292176 158.374099 
L 307.623794 147.110163 
L 307.955413 159.240822 
L 308.287031 156.165812 
L 308.61865 160.336121 
L 308.950268 161.115664 
L 309.281887 162.77201 
L 309.613505 184.237663 
L 309.945124 169.591478 
L 310.276743 171.877232 
L 310.608361 164.039532 
L 310.93998 169.129421 
L 311.271598 165.308637 
L 311.603217 170.446523 
L 311.934835 158.323907 
L 312.266454 180.719531 
L 312.598072 138.277793 
L 312.929691 163.432174 
L 313.261309 163.087078 
L 313.924546 172.428401 
L 314.256165 168.93689 
L 314.587783 169.70792 
L 314.919402 175.040246 
L 315.251021 166.138416 
L 315.582639 169.999558 
L 315.914258 170.061664 
L 316.245876 166.889801 
L 316.577495 159.455187 
L 316.909113 145.59956 
L 317.903969 185.716809 
L 318.235587 173.29022 
L 318.567206 177.647016 
L 319.230443 192.653887 
L 319.562061 170.581851 
L 319.89368 176.84091 
L 320.225299 168.061009 
L 320.556917 169.496155 
L 320.888536 179.92226 
L 321.220154 170.347133 
L 321.551773 182.44202 
L 321.883391 151.852546 
L 322.21501 178.836918 
L 322.546628 180.994363 
L 322.878247 178.668428 
L 323.209865 181.629367 
L 323.541484 167.528623 
L 323.873102 160.602925 
L 324.204721 172.264342 
L 324.536339 119.228118 
L 324.867958 173.845462 
L 325.199577 164.12784 
L 325.531195 182.376508 
L 325.862814 164.604835 
L 326.194432 172.113716 
L 326.526051 189.246524 
L 326.857669 165.509974 
L 327.189288 175.426455 
L 327.520906 163.363194 
L 327.852525 165.999179 
L 328.184143 176.111032 
L 328.515762 176.845523 
L 328.84738 168.805396 
L 329.178999 172.981846 
L 329.510618 164.009041 
L 329.842236 171.209057 
L 330.173855 160.86384 
L 330.505473 181.047361 
L 330.837092 166.493485 
L 331.500329 174.52414 
L 331.831947 170.466453 
L 332.163566 174.778931 
L 332.495184 150.5227 
L 332.826803 154.14734 
L 333.158421 175.13678 
L 333.49004 184.566407 
L 333.821658 170.968759 
L 334.153277 161.959212 
L 334.484896 179.02428 
L 334.816514 167.184613 
L 335.148133 177.103796 
L 335.479751 179.037465 
L 335.81137 172.732594 
L 336.142988 174.315879 
L 336.474607 188.595933 
L 336.806225 172.586898 
L 337.137844 176.062134 
L 337.469462 166.069438 
L 337.801081 186.1424 
L 338.132699 181.558423 
L 338.464318 180.960087 
L 338.795936 172.611561 
L 339.127555 172.74685 
L 339.459174 187.231898 
L 339.790792 172.765936 
L 340.122411 145.494851 
L 340.454029 180.545046 
L 340.785648 180.489438 
L 341.117266 174.094047 
L 341.448885 181.131749 
L 341.780503 167.084952 
L 342.112122 161.251676 
L 342.44374 170.149882 
L 342.775359 172.37948 
L 343.106977 173.462889 
L 343.438596 167.47405 
L 343.770215 156.496632 
L 344.101833 158.287393 
L 344.433452 179.567761 
L 344.76507 179.110528 
L 345.096689 165.889397 
L 345.428307 184.878627 
L 345.759926 172.782179 
L 346.091544 183.442666 
L 346.754781 170.935832 
L 347.0864 187.485248 
L 347.418018 163.372201 
L 347.749637 164.818312 
L 348.081255 165.125649 
L 348.412874 180.706187 
L 348.744493 176.616103 
L 349.076111 180.366125 
L 349.40773 170.053434 
L 349.739348 170.706284 
L 350.070967 181.955459 
L 350.402585 153.714478 
L 350.734204 172.979896 
L 351.065822 174.514099 
L 351.729059 181.511551 
L 352.060678 181.095866 
L 352.392296 172.102364 
L 352.723915 185.158014 
L 353.055533 178.539191 
L 353.387152 193.544572 
L 353.718771 183.477138 
L 354.050389 179.540904 
L 354.382008 194.304619 
L 354.713626 189.637375 
L 355.045245 170.612523 
L 355.376863 178.29817 
L 355.708482 175.79672 
L 356.0401 159.643076 
L 356.371719 160.055076 
L 356.703337 178.487968 
L 357.034956 167.513699 
L 357.366574 168.81985 
L 357.698193 181.130483 
L 358.029811 170.204585 
L 358.693049 185.669557 
L 359.024667 172.207872 
L 359.356286 172.064791 
L 359.687904 179.278006 
L 360.019523 173.874555 
L 360.351141 164.598821 
L 360.68276 170.758746 
L 361.014378 187.040193 
L 361.345997 182.607839 
L 361.677615 180.794801 
L 362.009234 179.672882 
L 362.340852 180.461359 
L 362.672471 183.225305 
L 363.00409 182.218332 
L 363.335708 182.307828 
L 363.667327 173.591937 
L 363.998945 176.106153 
L 364.330564 160.98205 
L 364.662182 183.195437 
L 364.993801 178.648107 
L 365.325419 175.981464 
L 365.657038 161.332828 
L 365.988656 164.234634 
L 366.320275 184.063335 
L 366.651893 191.203008 
L 366.983512 188.293752 
L 367.31513 176.249467 
L 367.646749 168.546328 
L 367.978368 175.898466 
L 368.309986 164.9654 
L 368.641605 169.733816 
L 368.973223 147.901084 
L 369.304842 145.868288 
L 369.63646 169.914699 
L 369.968079 174.913852 
L 370.299697 178.031401 
L 370.631316 173.827872 
L 370.962934 154.722216 
L 371.294553 177.604746 
L 371.626171 166.727408 
L 371.95779 163.984157 
L 372.289408 178.343465 
L 372.621027 177.529333 
L 372.952646 177.054617 
L 373.284264 170.633321 
L 373.615883 168.457121 
L 373.947501 182.254278 
L 374.610738 171.000831 
L 374.942357 148.756874 
L 375.273975 150.549341 
L 375.605594 175.660774 
L 375.937212 161.727823 
L 376.268831 181.949469 
L 376.600449 160.684396 
L 376.932068 183.155907 
L 377.263687 173.703019 
L 377.595305 168.334802 
L 377.926924 160.414168 
L 378.258542 166.479193 
L 378.590161 157.63479 
L 378.921779 171.362186 
L 379.253398 145.594421 
L 379.585016 172.424847 
L 379.916635 106.882093 
L 380.248253 188.478574 
L 381.243109 178.818649 
L 381.574727 179.010759 
L 381.906346 186.410814 
L 382.237965 163.977406 
L 382.569583 176.928391 
L 382.901202 183.110175 
L 383.896057 171.771058 
L 384.227676 181.85412 
L 384.559294 182.812921 
L 384.890913 169.395129 
L 385.222531 164.15461 
L 385.55415 186.24721 
L 385.885768 192.520582 
L 386.217387 182.929237 
L 386.549005 183.471817 
L 386.880624 185.94766 
L 387.212243 185.198299 
L 387.543861 190.178558 
L 387.87548 137.795364 
L 388.207098 187.099016 
L 388.870335 178.05665 
L 389.201954 182.980042 
L 389.533572 179.627924 
L 389.865191 169.556638 
L 390.196809 171.797836 
L 390.528428 172.493735 
L 390.860046 172.248768 
L 391.191665 185.961758 
L 391.523283 190.570598 
L 392.186521 161.981623 
L 392.849758 183.089215 
L 393.181376 185.44136 
L 393.512995 177.549844 
L 393.844613 187.376048 
L 394.176232 184.027302 
L 394.50785 191.200415 
L 394.839469 172.943101 
L 395.171087 178.689598 
L 395.502706 180.769099 
L 395.834324 186.846416 
L 396.165943 184.938698 
L 396.497562 175.870292 
L 396.82918 181.208556 
L 397.160799 156.260697 
L 397.492417 170.339836 
L 397.824036 173.744596 
L 398.487273 184.066957 
L 398.487273 184.066957 
" style="fill:none;stroke:#ff7f0e;stroke-linecap:square;stroke-width:1.5;"/>
   </g>
   <g id="patch_3">
    <path d="M 57.6 307.584 
L 57.6 41.472 
" style="fill:none;stroke:#000000;stroke-linecap:square;stroke-linejoin:miter;stroke-width:0.8;"/>
   </g>
   <g id="patch_4">
    <path d="M 414.72 307.584 
L 414.72 41.472 
" style="fill:none;stroke:#000000;stroke-linecap:square;stroke-linejoin:miter;stroke-width:0.8;"/>
   </g>
   <g id="patch_5">
    <path d="M 57.6 307.584 
L 414.72 307.584 
" style="fill:none;stroke:#000000;stroke-linecap:square;stroke-linejoin:miter;stroke-width:0.8;"/>
   </g>
   <g id="patch_6">
    <path d="M 57.6 41.472 
L 414.72 41.472 
" style="fill:none;stroke:#000000;stroke-linecap:square;stroke-linejoin:miter;stroke-width:0.8;"/>
   </g>
   <g id="legend_1">
    <g id="patch_7">
     <path d="M 303.845 78.82825 
L 407.72 78.82825 
Q 409.72 78.82825 409.72 76.82825 
L 409.72 48.472 
Q 409.72 46.472 407.72 46.472 
L 303.845 46.472 
Q 301.845 46.472 301.845 48.472 
L 301.845 76.82825 
Q 301.845 78.82825 303.845 78.82825 
z
" style="fill:#ffffff;opacity:0.8;stroke:#cccccc;stroke-linejoin:miter;"/>
    </g>
    <g id="line2d_17">
     <path d="M 305.845 54.570437 
L 325.845 54.570437 
" style="fill:none;stroke:#1f77b4;stroke-linecap:square;stroke-width:1.5;"/>
    </g>
    <g id="line2d_18"/>
    <g id="text_16">
     <!-- Train loss -->
     <g transform="translate(333.845 58.070437)scale(0.1 -0.1)">
      <defs>
       <path d="M -19 4666 
L 3928 4666 
L 3928 4134 
L 2272 4134 
L 2272 0 
L 1638 0 
L 1638 4134 
L -19 4134 
L -19 4666 
z
" id="DejaVuSans-54" transform="scale(0.015625)"/>
       <path d="M 2631 2963 
Q 2534 3019 2420 3045 
Q 2306 3072 2169 3072 
Q 1681 3072 1420 2755 
Q 1159 2438 1159 1844 
L 1159 0 
L 581 0 
L 581 3500 
L 1159 3500 
L 1159 2956 
Q 1341 3275 1631 3429 
Q 1922 3584 2338 3584 
Q 2397 3584 2469 3576 
Q 2541 3569 2628 3553 
L 2631 2963 
z
" id="DejaVuSans-72" transform="scale(0.015625)"/>
       <path d="M 2194 1759 
Q 1497 1759 1228 1600 
Q 959 1441 959 1056 
Q 959 750 1161 570 
Q 1363 391 1709 391 
Q 2188 391 2477 730 
Q 2766 1069 2766 1631 
L 2766 1759 
L 2194 1759 
z
M 3341 1997 
L 3341 0 
L 2766 0 
L 2766 531 
Q 2569 213 2275 61 
Q 1981 -91 1556 -91 
Q 1019 -91 701 211 
Q 384 513 384 1019 
Q 384 1609 779 1909 
Q 1175 2209 1959 2209 
L 2766 2209 
L 2766 2266 
Q 2766 2663 2505 2880 
Q 2244 3097 1772 3097 
Q 1472 3097 1187 3025 
Q 903 2953 641 2809 
L 641 3341 
Q 956 3463 1253 3523 
Q 1550 3584 1831 3584 
Q 2591 3584 2966 3190 
Q 3341 2797 3341 1997 
z
" id="DejaVuSans-61" transform="scale(0.015625)"/>
       <path d="M 603 3500 
L 1178 3500 
L 1178 0 
L 603 0 
L 603 3500 
z
M 603 4863 
L 1178 4863 
L 1178 4134 
L 603 4134 
L 603 4863 
z
" id="DejaVuSans-69" transform="scale(0.015625)"/>
       <path d="M 3513 2113 
L 3513 0 
L 2938 0 
L 2938 2094 
Q 2938 2591 2744 2837 
Q 2550 3084 2163 3084 
Q 1697 3084 1428 2787 
Q 1159 2491 1159 1978 
L 1159 0 
L 581 0 
L 581 3500 
L 1159 3500 
L 1159 2956 
Q 1366 3272 1645 3428 
Q 1925 3584 2291 3584 
Q 2894 3584 3203 3211 
Q 3513 2838 3513 2113 
z
" id="DejaVuSans-6e" transform="scale(0.015625)"/>
       <path id="DejaVuSans-20" transform="scale(0.015625)"/>
       <path d="M 603 4863 
L 1178 4863 
L 1178 0 
L 603 0 
L 603 4863 
z
" id="DejaVuSans-6c" transform="scale(0.015625)"/>
       <path d="M 2834 3397 
L 2834 2853 
Q 2591 2978 2328 3040 
Q 2066 3103 1784 3103 
Q 1356 3103 1142 2972 
Q 928 2841 928 2578 
Q 928 2378 1081 2264 
Q 1234 2150 1697 2047 
L 1894 2003 
Q 2506 1872 2764 1633 
Q 3022 1394 3022 966 
Q 3022 478 2636 193 
Q 2250 -91 1575 -91 
Q 1294 -91 989 -36 
Q 684 19 347 128 
L 347 722 
Q 666 556 975 473 
Q 1284 391 1588 391 
Q 1994 391 2212 530 
Q 2431 669 2431 922 
Q 2431 1156 2273 1281 
Q 2116 1406 1581 1522 
L 1381 1569 
Q 847 1681 609 1914 
Q 372 2147 372 2553 
Q 372 3047 722 3315 
Q 1072 3584 1716 3584 
Q 2034 3584 2315 3537 
Q 2597 3491 2834 3397 
z
" id="DejaVuSans-73" transform="scale(0.015625)"/>
      </defs>
      <use xlink:href="#DejaVuSans-54"/>
      <use x="46.333984" xlink:href="#DejaVuSans-72"/>
      <use x="87.447266" xlink:href="#DejaVuSans-61"/>
      <use x="148.726562" xlink:href="#DejaVuSans-69"/>
      <use x="176.509766" xlink:href="#DejaVuSans-6e"/>
      <use x="239.888672" xlink:href="#DejaVuSans-20"/>
      <use x="271.675781" xlink:href="#DejaVuSans-6c"/>
      <use x="299.458984" xlink:href="#DejaVuSans-6f"/>
      <use x="360.640625" xlink:href="#DejaVuSans-73"/>
      <use x="412.740234" xlink:href="#DejaVuSans-73"/>
     </g>
    </g>
    <g id="line2d_19">
     <path d="M 305.845 69.248562 
L 325.845 69.248562 
" style="fill:none;stroke:#ff7f0e;stroke-linecap:square;stroke-width:1.5;"/>
    </g>
    <g id="line2d_20"/>
    <g id="text_17">
     <!-- Validation loss -->
     <g transform="translate(333.845 72.748562)scale(0.1 -0.1)">
      <defs>
       <path d="M 1831 0 
L 50 4666 
L 709 4666 
L 2188 738 
L 3669 4666 
L 4325 4666 
L 2547 0 
L 1831 0 
z
" id="DejaVuSans-56" transform="scale(0.015625)"/>
       <path d="M 2906 2969 
L 2906 4863 
L 3481 4863 
L 3481 0 
L 2906 0 
L 2906 525 
Q 2725 213 2448 61 
Q 2172 -91 1784 -91 
Q 1150 -91 751 415 
Q 353 922 353 1747 
Q 353 2572 751 3078 
Q 1150 3584 1784 3584 
Q 2172 3584 2448 3432 
Q 2725 3281 2906 2969 
z
M 947 1747 
Q 947 1113 1208 752 
Q 1469 391 1925 391 
Q 2381 391 2643 752 
Q 2906 1113 2906 1747 
Q 2906 2381 2643 2742 
Q 2381 3103 1925 3103 
Q 1469 3103 1208 2742 
Q 947 2381 947 1747 
z
" id="DejaVuSans-64" transform="scale(0.015625)"/>
       <path d="M 1172 4494 
L 1172 3500 
L 2356 3500 
L 2356 3053 
L 1172 3053 
L 1172 1153 
Q 1172 725 1289 603 
Q 1406 481 1766 481 
L 2356 481 
L 2356 0 
L 1766 0 
Q 1100 0 847 248 
Q 594 497 594 1153 
L 594 3053 
L 172 3053 
L 172 3500 
L 594 3500 
L 594 4494 
L 1172 4494 
z
" id="DejaVuSans-74" transform="scale(0.015625)"/>
      </defs>
      <use xlink:href="#DejaVuSans-56"/>
      <use x="60.658203" xlink:href="#DejaVuSans-61"/>
      <use x="121.9375" xlink:href="#DejaVuSans-6c"/>
      <use x="149.720703" xlink:href="#DejaVuSans-69"/>
      <use x="177.503906" xlink:href="#DejaVuSans-64"/>
      <use x="240.980469" xlink:href="#DejaVuSans-61"/>
      <use x="302.259766" xlink:href="#DejaVuSans-74"/>
      <use x="341.46875" xlink:href="#DejaVuSans-69"/>
      <use x="369.251953" xlink:href="#DejaVuSans-6f"/>
      <use x="430.433594" xlink:href="#DejaVuSans-6e"/>
      <use x="493.8125" xlink:href="#DejaVuSans-20"/>
      <use x="525.599609" xlink:href="#DejaVuSans-6c"/>
      <use x="553.382812" xlink:href="#DejaVuSans-6f"/>
      <use x="614.564453" xlink:href="#DejaVuSans-73"/>
      <use x="666.664062" xlink:href="#DejaVuSans-73"/>
     </g>
    </g>
   </g>
  </g>
 </g>
 <defs>
  <clipPath id="p64f880c7bc">
   <rect height="266.112" width="357.12" x="57.6" y="41.472"/>
  </clipPath>
 </defs>
</svg>
