<?xml version="1.0" encoding="utf-8" standalone="no"?>
<!DOCTYPE svg PUBLIC "-//W3C//DTD SVG 1.1//EN"
  "http://www.w3.org/Graphics/SVG/1.1/DTD/svg11.dtd">
<svg height="345.6pt" version="1.1" viewBox="0 0 460.8 345.6" width="460.8pt" xmlns="http://www.w3.org/2000/svg" xmlns:xlink="http://www.w3.org/1999/xlink">
 <metadata>
  <rdf:RDF xmlns:cc="http://creativecommons.org/ns#" xmlns:dc="http://purl.org/dc/elements/1.1/" xmlns:rdf="http://www.w3.org/1999/02/22-rdf-syntax-ns#">
   <cc:Work>
    <dc:type rdf:resource="http://purl.org/dc/dcmitype/StillImage"/>
    <dc:date>2021-07-20T08:42:36.526796</dc:date>
    <dc:format>image/svg+xml</dc:format>
    <dc:creator>
     <cc:Agent>
      <dc:title>Matplotlib v3.4.2, https://matplotlib.org/</dc:title>
     </cc:Agent>
    </dc:creator>
   </cc:Work>
  </rdf:RDF>
 </metadata>
 <defs>
  <style type="text/css">*{stroke-linecap:butt;stroke-linejoin:round;}</style>
 </defs>
 <g id="figure_1">
  <g id="patch_1">
   <path d="M 0 345.6 
L 460.8 345.6 
L 460.8 0 
L 0 0 
z
" style="fill:#ffffff;"/>
  </g>
  <g id="axes_1">
   <g id="patch_2">
    <path d="M 57.6 307.584 
L 414.72 307.584 
L 414.72 41.472 
L 57.6 41.472 
z
" style="fill:#ffffff;"/>
   </g>
   <g id="matplotlib.axis_1">
    <g id="xtick_1">
     <g id="line2d_1">
      <defs>
       <path d="M 0 0 
L 0 3.5 
" id="m2a3cfaf710" style="stroke:#000000;stroke-width:0.8;"/>
      </defs>
      <g>
       <use style="stroke:#000000;stroke-width:0.8;" x="73.832727" xlink:href="#m2a3cfaf710" y="307.584"/>
      </g>
     </g>
     <g id="text_1">
      <!-- 0 -->
      <g transform="translate(70.651477 322.182437)scale(0.1 -0.1)">
       <defs>
        <path d="M 2034 4250 
Q 1547 4250 1301 3770 
Q 1056 3291 1056 2328 
Q 1056 1369 1301 889 
Q 1547 409 2034 409 
Q 2525 409 2770 889 
Q 3016 1369 3016 2328 
Q 3016 3291 2770 3770 
Q 2525 4250 2034 4250 
z
M 2034 4750 
Q 2819 4750 3233 4129 
Q 3647 3509 3647 2328 
Q 3647 1150 3233 529 
Q 2819 -91 2034 -91 
Q 1250 -91 836 529 
Q 422 1150 422 2328 
Q 422 3509 836 4129 
Q 1250 4750 2034 4750 
z
" id="DejaVuSans-30" transform="scale(0.015625)"/>
       </defs>
       <use xlink:href="#DejaVuSans-30"/>
      </g>
     </g>
    </g>
    <g id="xtick_2">
     <g id="line2d_2">
      <g>
       <use style="stroke:#000000;stroke-width:0.8;" x="136.50735" xlink:href="#m2a3cfaf710" y="307.584"/>
      </g>
     </g>
     <g id="text_2">
      <!-- 50 -->
      <g transform="translate(130.14485 322.182437)scale(0.1 -0.1)">
       <defs>
        <path d="M 691 4666 
L 3169 4666 
L 3169 4134 
L 1269 4134 
L 1269 2991 
Q 1406 3038 1543 3061 
Q 1681 3084 1819 3084 
Q 2600 3084 3056 2656 
Q 3513 2228 3513 1497 
Q 3513 744 3044 326 
Q 2575 -91 1722 -91 
Q 1428 -91 1123 -41 
Q 819 9 494 109 
L 494 744 
Q 775 591 1075 516 
Q 1375 441 1709 441 
Q 2250 441 2565 725 
Q 2881 1009 2881 1497 
Q 2881 1984 2565 2268 
Q 2250 2553 1709 2553 
Q 1456 2553 1204 2497 
Q 953 2441 691 2322 
L 691 4666 
z
" id="DejaVuSans-35" transform="scale(0.015625)"/>
       </defs>
       <use xlink:href="#DejaVuSans-35"/>
       <use x="63.623047" xlink:href="#DejaVuSans-30"/>
      </g>
     </g>
    </g>
    <g id="xtick_3">
     <g id="line2d_3">
      <g>
       <use style="stroke:#000000;stroke-width:0.8;" x="199.181973" xlink:href="#m2a3cfaf710" y="307.584"/>
      </g>
     </g>
     <g id="text_3">
      <!-- 100 -->
      <g transform="translate(189.638223 322.182437)scale(0.1 -0.1)">
       <defs>
        <path d="M 794 531 
L 1825 531 
L 1825 4091 
L 703 3866 
L 703 4441 
L 1819 4666 
L 2450 4666 
L 2450 531 
L 3481 531 
L 3481 0 
L 794 0 
L 794 531 
z
" id="DejaVuSans-31" transform="scale(0.015625)"/>
       </defs>
       <use xlink:href="#DejaVuSans-31"/>
       <use x="63.623047" xlink:href="#DejaVuSans-30"/>
       <use x="127.246094" xlink:href="#DejaVuSans-30"/>
      </g>
     </g>
    </g>
    <g id="xtick_4">
     <g id="line2d_4">
      <g>
       <use style="stroke:#000000;stroke-width:0.8;" x="261.856595" xlink:href="#m2a3cfaf710" y="307.584"/>
      </g>
     </g>
     <g id="text_4">
      <!-- 150 -->
      <g transform="translate(252.312845 322.182437)scale(0.1 -0.1)">
       <use xlink:href="#DejaVuSans-31"/>
       <use x="63.623047" xlink:href="#DejaVuSans-35"/>
       <use x="127.246094" xlink:href="#DejaVuSans-30"/>
      </g>
     </g>
    </g>
    <g id="xtick_5">
     <g id="line2d_5">
      <g>
       <use style="stroke:#000000;stroke-width:0.8;" x="324.531218" xlink:href="#m2a3cfaf710" y="307.584"/>
      </g>
     </g>
     <g id="text_5">
      <!-- 200 -->
      <g transform="translate(314.987468 322.182437)scale(0.1 -0.1)">
       <defs>
        <path d="M 1228 531 
L 3431 531 
L 3431 0 
L 469 0 
L 469 531 
Q 828 903 1448 1529 
Q 2069 2156 2228 2338 
Q 2531 2678 2651 2914 
Q 2772 3150 2772 3378 
Q 2772 3750 2511 3984 
Q 2250 4219 1831 4219 
Q 1534 4219 1204 4116 
Q 875 4013 500 3803 
L 500 4441 
Q 881 4594 1212 4672 
Q 1544 4750 1819 4750 
Q 2544 4750 2975 4387 
Q 3406 4025 3406 3419 
Q 3406 3131 3298 2873 
Q 3191 2616 2906 2266 
Q 2828 2175 2409 1742 
Q 1991 1309 1228 531 
z
" id="DejaVuSans-32" transform="scale(0.015625)"/>
       </defs>
       <use xlink:href="#DejaVuSans-32"/>
       <use x="63.623047" xlink:href="#DejaVuSans-30"/>
       <use x="127.246094" xlink:href="#DejaVuSans-30"/>
      </g>
     </g>
    </g>
    <g id="xtick_6">
     <g id="line2d_6">
      <g>
       <use style="stroke:#000000;stroke-width:0.8;" x="387.205841" xlink:href="#m2a3cfaf710" y="307.584"/>
      </g>
     </g>
     <g id="text_6">
      <!-- 250 -->
      <g transform="translate(377.662091 322.182437)scale(0.1 -0.1)">
       <use xlink:href="#DejaVuSans-32"/>
       <use x="63.623047" xlink:href="#DejaVuSans-35"/>
       <use x="127.246094" xlink:href="#DejaVuSans-30"/>
      </g>
     </g>
    </g>
    <g id="text_7">
     <!-- Epoch -->
     <g transform="translate(213.193594 339.659781)scale(0.15 -0.15)">
      <defs>
       <path d="M 628 4666 
L 3578 4666 
L 3578 4134 
L 1259 4134 
L 1259 2753 
L 3481 2753 
L 3481 2222 
L 1259 2222 
L 1259 531 
L 3634 531 
L 3634 0 
L 628 0 
L 628 4666 
z
" id="DejaVuSans-45" transform="scale(0.015625)"/>
       <path d="M 1159 525 
L 1159 -1331 
L 581 -1331 
L 581 3500 
L 1159 3500 
L 1159 2969 
Q 1341 3281 1617 3432 
Q 1894 3584 2278 3584 
Q 2916 3584 3314 3078 
Q 3713 2572 3713 1747 
Q 3713 922 3314 415 
Q 2916 -91 2278 -91 
Q 1894 -91 1617 61 
Q 1341 213 1159 525 
z
M 3116 1747 
Q 3116 2381 2855 2742 
Q 2594 3103 2138 3103 
Q 1681 3103 1420 2742 
Q 1159 2381 1159 1747 
Q 1159 1113 1420 752 
Q 1681 391 2138 391 
Q 2594 391 2855 752 
Q 3116 1113 3116 1747 
z
" id="DejaVuSans-70" transform="scale(0.015625)"/>
       <path d="M 1959 3097 
Q 1497 3097 1228 2736 
Q 959 2375 959 1747 
Q 959 1119 1226 758 
Q 1494 397 1959 397 
Q 2419 397 2687 759 
Q 2956 1122 2956 1747 
Q 2956 2369 2687 2733 
Q 2419 3097 1959 3097 
z
M 1959 3584 
Q 2709 3584 3137 3096 
Q 3566 2609 3566 1747 
Q 3566 888 3137 398 
Q 2709 -91 1959 -91 
Q 1206 -91 779 398 
Q 353 888 353 1747 
Q 353 2609 779 3096 
Q 1206 3584 1959 3584 
z
" id="DejaVuSans-6f" transform="scale(0.015625)"/>
       <path d="M 3122 3366 
L 3122 2828 
Q 2878 2963 2633 3030 
Q 2388 3097 2138 3097 
Q 1578 3097 1268 2742 
Q 959 2388 959 1747 
Q 959 1106 1268 751 
Q 1578 397 2138 397 
Q 2388 397 2633 464 
Q 2878 531 3122 666 
L 3122 134 
Q 2881 22 2623 -34 
Q 2366 -91 2075 -91 
Q 1284 -91 818 406 
Q 353 903 353 1747 
Q 353 2603 823 3093 
Q 1294 3584 2113 3584 
Q 2378 3584 2631 3529 
Q 2884 3475 3122 3366 
z
" id="DejaVuSans-63" transform="scale(0.015625)"/>
       <path d="M 3513 2113 
L 3513 0 
L 2938 0 
L 2938 2094 
Q 2938 2591 2744 2837 
Q 2550 3084 2163 3084 
Q 1697 3084 1428 2787 
Q 1159 2491 1159 1978 
L 1159 0 
L 581 0 
L 581 4863 
L 1159 4863 
L 1159 2956 
Q 1366 3272 1645 3428 
Q 1925 3584 2291 3584 
Q 2894 3584 3203 3211 
Q 3513 2838 3513 2113 
z
" id="DejaVuSans-68" transform="scale(0.015625)"/>
      </defs>
      <use xlink:href="#DejaVuSans-45"/>
      <use x="63.183594" xlink:href="#DejaVuSans-70"/>
      <use x="126.660156" xlink:href="#DejaVuSans-6f"/>
      <use x="187.841797" xlink:href="#DejaVuSans-63"/>
      <use x="242.822266" xlink:href="#DejaVuSans-68"/>
     </g>
    </g>
   </g>
   <g id="matplotlib.axis_2">
    <g id="ytick_1">
     <g id="line2d_7">
      <defs>
       <path d="M 0 0 
L -3.5 0 
" id="m6b2d161d20" style="stroke:#000000;stroke-width:0.8;"/>
      </defs>
      <g>
       <use style="stroke:#000000;stroke-width:0.8;" x="57.6" xlink:href="#m6b2d161d20" y="294.490342"/>
      </g>
     </g>
     <g id="text_8">
      <!-- $\mathdefault{10^{-4}}$ -->
      <g transform="translate(27.1 298.28956)scale(0.1 -0.1)">
       <defs>
        <path d="M 678 2272 
L 4684 2272 
L 4684 1741 
L 678 1741 
L 678 2272 
z
" id="DejaVuSans-2212" transform="scale(0.015625)"/>
        <path d="M 2419 4116 
L 825 1625 
L 2419 1625 
L 2419 4116 
z
M 2253 4666 
L 3047 4666 
L 3047 1625 
L 3713 1625 
L 3713 1100 
L 3047 1100 
L 3047 0 
L 2419 0 
L 2419 1100 
L 313 1100 
L 313 1709 
L 2253 4666 
z
" id="DejaVuSans-34" transform="scale(0.015625)"/>
       </defs>
       <use transform="translate(0 0.684375)" xlink:href="#DejaVuSans-31"/>
       <use transform="translate(63.623047 0.684375)" xlink:href="#DejaVuSans-30"/>
       <use transform="translate(128.203125 38.965625)scale(0.7)" xlink:href="#DejaVuSans-2212"/>
       <use transform="translate(186.855469 38.965625)scale(0.7)" xlink:href="#DejaVuSans-34"/>
      </g>
     </g>
    </g>
    <g id="ytick_2">
     <g id="line2d_8">
      <g>
       <use style="stroke:#000000;stroke-width:0.8;" x="57.6" xlink:href="#m6b2d161d20" y="250.354378"/>
      </g>
     </g>
     <g id="text_9">
      <!-- $\mathdefault{10^{-3}}$ -->
      <g transform="translate(27.1 254.153597)scale(0.1 -0.1)">
       <defs>
        <path d="M 2597 2516 
Q 3050 2419 3304 2112 
Q 3559 1806 3559 1356 
Q 3559 666 3084 287 
Q 2609 -91 1734 -91 
Q 1441 -91 1130 -33 
Q 819 25 488 141 
L 488 750 
Q 750 597 1062 519 
Q 1375 441 1716 441 
Q 2309 441 2620 675 
Q 2931 909 2931 1356 
Q 2931 1769 2642 2001 
Q 2353 2234 1838 2234 
L 1294 2234 
L 1294 2753 
L 1863 2753 
Q 2328 2753 2575 2939 
Q 2822 3125 2822 3475 
Q 2822 3834 2567 4026 
Q 2313 4219 1838 4219 
Q 1578 4219 1281 4162 
Q 984 4106 628 3988 
L 628 4550 
Q 988 4650 1302 4700 
Q 1616 4750 1894 4750 
Q 2613 4750 3031 4423 
Q 3450 4097 3450 3541 
Q 3450 3153 3228 2886 
Q 3006 2619 2597 2516 
z
" id="DejaVuSans-33" transform="scale(0.015625)"/>
       </defs>
       <use transform="translate(0 0.765625)" xlink:href="#DejaVuSans-31"/>
       <use transform="translate(63.623047 0.765625)" xlink:href="#DejaVuSans-30"/>
       <use transform="translate(128.203125 39.046875)scale(0.7)" xlink:href="#DejaVuSans-2212"/>
       <use transform="translate(186.855469 39.046875)scale(0.7)" xlink:href="#DejaVuSans-33"/>
      </g>
     </g>
    </g>
    <g id="ytick_3">
     <g id="line2d_9">
      <g>
       <use style="stroke:#000000;stroke-width:0.8;" x="57.6" xlink:href="#m6b2d161d20" y="206.218415"/>
      </g>
     </g>
     <g id="text_10">
      <!-- $\mathdefault{10^{-2}}$ -->
      <g transform="translate(27.1 210.017634)scale(0.1 -0.1)">
       <use transform="translate(0 0.765625)" xlink:href="#DejaVuSans-31"/>
       <use transform="translate(63.623047 0.765625)" xlink:href="#DejaVuSans-30"/>
       <use transform="translate(128.203125 39.046875)scale(0.7)" xlink:href="#DejaVuSans-2212"/>
       <use transform="translate(186.855469 39.046875)scale(0.7)" xlink:href="#DejaVuSans-32"/>
      </g>
     </g>
    </g>
    <g id="ytick_4">
     <g id="line2d_10">
      <g>
       <use style="stroke:#000000;stroke-width:0.8;" x="57.6" xlink:href="#m6b2d161d20" y="162.082452"/>
      </g>
     </g>
     <g id="text_11">
      <!-- $\mathdefault{10^{-1}}$ -->
      <g transform="translate(27.1 165.88167)scale(0.1 -0.1)">
       <use transform="translate(0 0.684375)" xlink:href="#DejaVuSans-31"/>
       <use transform="translate(63.623047 0.684375)" xlink:href="#DejaVuSans-30"/>
       <use transform="translate(128.203125 38.965625)scale(0.7)" xlink:href="#DejaVuSans-2212"/>
       <use transform="translate(186.855469 38.965625)scale(0.7)" xlink:href="#DejaVuSans-31"/>
      </g>
     </g>
    </g>
    <g id="ytick_5">
     <g id="line2d_11">
      <g>
       <use style="stroke:#000000;stroke-width:0.8;" x="57.6" xlink:href="#m6b2d161d20" y="117.946488"/>
      </g>
     </g>
     <g id="text_12">
      <!-- $\mathdefault{10^{0}}$ -->
      <g transform="translate(33 121.745707)scale(0.1 -0.1)">
       <use transform="translate(0 0.765625)" xlink:href="#DejaVuSans-31"/>
       <use transform="translate(63.623047 0.765625)" xlink:href="#DejaVuSans-30"/>
       <use transform="translate(128.203125 39.046875)scale(0.7)" xlink:href="#DejaVuSans-30"/>
      </g>
     </g>
    </g>
    <g id="ytick_6">
     <g id="line2d_12">
      <g>
       <use style="stroke:#000000;stroke-width:0.8;" x="57.6" xlink:href="#m6b2d161d20" y="73.810525"/>
      </g>
     </g>
     <g id="text_13">
      <!-- $\mathdefault{10^{1}}$ -->
      <g transform="translate(33 77.609744)scale(0.1 -0.1)">
       <use transform="translate(0 0.684375)" xlink:href="#DejaVuSans-31"/>
       <use transform="translate(63.623047 0.684375)" xlink:href="#DejaVuSans-30"/>
       <use transform="translate(128.203125 38.965625)scale(0.7)" xlink:href="#DejaVuSans-31"/>
      </g>
     </g>
    </g>
    <g id="ytick_7">
     <g id="line2d_13">
      <defs>
       <path d="M 0 0 
L -2 0 
" id="m74f2dd9a25" style="stroke:#000000;stroke-width:0.6;"/>
      </defs>
      <g>
       <use style="stroke:#000000;stroke-width:0.6;" x="57.6" xlink:href="#m74f2dd9a25" y="304.28185"/>
      </g>
     </g>
    </g>
    <g id="ytick_8">
     <g id="line2d_14">
      <g>
       <use style="stroke:#000000;stroke-width:0.6;" x="57.6" xlink:href="#m74f2dd9a25" y="301.327089"/>
      </g>
     </g>
    </g>
    <g id="ytick_9">
     <g id="line2d_15">
      <g>
       <use style="stroke:#000000;stroke-width:0.6;" x="57.6" xlink:href="#m74f2dd9a25" y="298.767558"/>
      </g>
     </g>
    </g>
    <g id="ytick_10">
     <g id="line2d_16">
      <g>
       <use style="stroke:#000000;stroke-width:0.6;" x="57.6" xlink:href="#m74f2dd9a25" y="296.509893"/>
      </g>
     </g>
    </g>
    <g id="ytick_11">
     <g id="line2d_17">
      <g>
       <use style="stroke:#000000;stroke-width:0.6;" x="57.6" xlink:href="#m74f2dd9a25" y="281.204093"/>
      </g>
     </g>
    </g>
    <g id="ytick_12">
     <g id="line2d_18">
      <g>
       <use style="stroke:#000000;stroke-width:0.6;" x="57.6" xlink:href="#m74f2dd9a25" y="273.432135"/>
      </g>
     </g>
    </g>
    <g id="ytick_13">
     <g id="line2d_19">
      <g>
       <use style="stroke:#000000;stroke-width:0.6;" x="57.6" xlink:href="#m74f2dd9a25" y="267.917844"/>
      </g>
     </g>
    </g>
    <g id="ytick_14">
     <g id="line2d_20">
      <g>
       <use style="stroke:#000000;stroke-width:0.6;" x="57.6" xlink:href="#m74f2dd9a25" y="263.640627"/>
      </g>
     </g>
    </g>
    <g id="ytick_15">
     <g id="line2d_21">
      <g>
       <use style="stroke:#000000;stroke-width:0.6;" x="57.6" xlink:href="#m74f2dd9a25" y="260.145887"/>
      </g>
     </g>
    </g>
    <g id="ytick_16">
     <g id="line2d_22">
      <g>
       <use style="stroke:#000000;stroke-width:0.6;" x="57.6" xlink:href="#m74f2dd9a25" y="257.191126"/>
      </g>
     </g>
    </g>
    <g id="ytick_17">
     <g id="line2d_23">
      <g>
       <use style="stroke:#000000;stroke-width:0.6;" x="57.6" xlink:href="#m74f2dd9a25" y="254.631595"/>
      </g>
     </g>
    </g>
    <g id="ytick_18">
     <g id="line2d_24">
      <g>
       <use style="stroke:#000000;stroke-width:0.6;" x="57.6" xlink:href="#m74f2dd9a25" y="252.373929"/>
      </g>
     </g>
    </g>
    <g id="ytick_19">
     <g id="line2d_25">
      <g>
       <use style="stroke:#000000;stroke-width:0.6;" x="57.6" xlink:href="#m74f2dd9a25" y="237.06813"/>
      </g>
     </g>
    </g>
    <g id="ytick_20">
     <g id="line2d_26">
      <g>
       <use style="stroke:#000000;stroke-width:0.6;" x="57.6" xlink:href="#m74f2dd9a25" y="229.296172"/>
      </g>
     </g>
    </g>
    <g id="ytick_21">
     <g id="line2d_27">
      <g>
       <use style="stroke:#000000;stroke-width:0.6;" x="57.6" xlink:href="#m74f2dd9a25" y="223.781881"/>
      </g>
     </g>
    </g>
    <g id="ytick_22">
     <g id="line2d_28">
      <g>
       <use style="stroke:#000000;stroke-width:0.6;" x="57.6" xlink:href="#m74f2dd9a25" y="219.504664"/>
      </g>
     </g>
    </g>
    <g id="ytick_23">
     <g id="line2d_29">
      <g>
       <use style="stroke:#000000;stroke-width:0.6;" x="57.6" xlink:href="#m74f2dd9a25" y="216.009923"/>
      </g>
     </g>
    </g>
    <g id="ytick_24">
     <g id="line2d_30">
      <g>
       <use style="stroke:#000000;stroke-width:0.6;" x="57.6" xlink:href="#m74f2dd9a25" y="213.055162"/>
      </g>
     </g>
    </g>
    <g id="ytick_25">
     <g id="line2d_31">
      <g>
       <use style="stroke:#000000;stroke-width:0.6;" x="57.6" xlink:href="#m74f2dd9a25" y="210.495632"/>
      </g>
     </g>
    </g>
    <g id="ytick_26">
     <g id="line2d_32">
      <g>
       <use style="stroke:#000000;stroke-width:0.6;" x="57.6" xlink:href="#m74f2dd9a25" y="208.237966"/>
      </g>
     </g>
    </g>
    <g id="ytick_27">
     <g id="line2d_33">
      <g>
       <use style="stroke:#000000;stroke-width:0.6;" x="57.6" xlink:href="#m74f2dd9a25" y="192.932166"/>
      </g>
     </g>
    </g>
    <g id="ytick_28">
     <g id="line2d_34">
      <g>
       <use style="stroke:#000000;stroke-width:0.6;" x="57.6" xlink:href="#m74f2dd9a25" y="185.160209"/>
      </g>
     </g>
    </g>
    <g id="ytick_29">
     <g id="line2d_35">
      <g>
       <use style="stroke:#000000;stroke-width:0.6;" x="57.6" xlink:href="#m74f2dd9a25" y="179.645917"/>
      </g>
     </g>
    </g>
    <g id="ytick_30">
     <g id="line2d_36">
      <g>
       <use style="stroke:#000000;stroke-width:0.6;" x="57.6" xlink:href="#m74f2dd9a25" y="175.368701"/>
      </g>
     </g>
    </g>
    <g id="ytick_31">
     <g id="line2d_37">
      <g>
       <use style="stroke:#000000;stroke-width:0.6;" x="57.6" xlink:href="#m74f2dd9a25" y="171.87396"/>
      </g>
     </g>
    </g>
    <g id="ytick_32">
     <g id="line2d_38">
      <g>
       <use style="stroke:#000000;stroke-width:0.6;" x="57.6" xlink:href="#m74f2dd9a25" y="168.919199"/>
      </g>
     </g>
    </g>
    <g id="ytick_33">
     <g id="line2d_39">
      <g>
       <use style="stroke:#000000;stroke-width:0.6;" x="57.6" xlink:href="#m74f2dd9a25" y="166.359668"/>
      </g>
     </g>
    </g>
    <g id="ytick_34">
     <g id="line2d_40">
      <g>
       <use style="stroke:#000000;stroke-width:0.6;" x="57.6" xlink:href="#m74f2dd9a25" y="164.102003"/>
      </g>
     </g>
    </g>
    <g id="ytick_35">
     <g id="line2d_41">
      <g>
       <use style="stroke:#000000;stroke-width:0.6;" x="57.6" xlink:href="#m74f2dd9a25" y="148.796203"/>
      </g>
     </g>
    </g>
    <g id="ytick_36">
     <g id="line2d_42">
      <g>
       <use style="stroke:#000000;stroke-width:0.6;" x="57.6" xlink:href="#m74f2dd9a25" y="141.024245"/>
      </g>
     </g>
    </g>
    <g id="ytick_37">
     <g id="line2d_43">
      <g>
       <use style="stroke:#000000;stroke-width:0.6;" x="57.6" xlink:href="#m74f2dd9a25" y="135.509954"/>
      </g>
     </g>
    </g>
    <g id="ytick_38">
     <g id="line2d_44">
      <g>
       <use style="stroke:#000000;stroke-width:0.6;" x="57.6" xlink:href="#m74f2dd9a25" y="131.232737"/>
      </g>
     </g>
    </g>
    <g id="ytick_39">
     <g id="line2d_45">
      <g>
       <use style="stroke:#000000;stroke-width:0.6;" x="57.6" xlink:href="#m74f2dd9a25" y="127.737997"/>
      </g>
     </g>
    </g>
    <g id="ytick_40">
     <g id="line2d_46">
      <g>
       <use style="stroke:#000000;stroke-width:0.6;" x="57.6" xlink:href="#m74f2dd9a25" y="124.783236"/>
      </g>
     </g>
    </g>
    <g id="ytick_41">
     <g id="line2d_47">
      <g>
       <use style="stroke:#000000;stroke-width:0.6;" x="57.6" xlink:href="#m74f2dd9a25" y="122.223705"/>
      </g>
     </g>
    </g>
    <g id="ytick_42">
     <g id="line2d_48">
      <g>
       <use style="stroke:#000000;stroke-width:0.6;" x="57.6" xlink:href="#m74f2dd9a25" y="119.966039"/>
      </g>
     </g>
    </g>
    <g id="ytick_43">
     <g id="line2d_49">
      <g>
       <use style="stroke:#000000;stroke-width:0.6;" x="57.6" xlink:href="#m74f2dd9a25" y="104.66024"/>
      </g>
     </g>
    </g>
    <g id="ytick_44">
     <g id="line2d_50">
      <g>
       <use style="stroke:#000000;stroke-width:0.6;" x="57.6" xlink:href="#m74f2dd9a25" y="96.888282"/>
      </g>
     </g>
    </g>
    <g id="ytick_45">
     <g id="line2d_51">
      <g>
       <use style="stroke:#000000;stroke-width:0.6;" x="57.6" xlink:href="#m74f2dd9a25" y="91.373991"/>
      </g>
     </g>
    </g>
    <g id="ytick_46">
     <g id="line2d_52">
      <g>
       <use style="stroke:#000000;stroke-width:0.6;" x="57.6" xlink:href="#m74f2dd9a25" y="87.096774"/>
      </g>
     </g>
    </g>
    <g id="ytick_47">
     <g id="line2d_53">
      <g>
       <use style="stroke:#000000;stroke-width:0.6;" x="57.6" xlink:href="#m74f2dd9a25" y="83.602033"/>
      </g>
     </g>
    </g>
    <g id="ytick_48">
     <g id="line2d_54">
      <g>
       <use style="stroke:#000000;stroke-width:0.6;" x="57.6" xlink:href="#m74f2dd9a25" y="80.647272"/>
      </g>
     </g>
    </g>
    <g id="ytick_49">
     <g id="line2d_55">
      <g>
       <use style="stroke:#000000;stroke-width:0.6;" x="57.6" xlink:href="#m74f2dd9a25" y="78.087742"/>
      </g>
     </g>
    </g>
    <g id="ytick_50">
     <g id="line2d_56">
      <g>
       <use style="stroke:#000000;stroke-width:0.6;" x="57.6" xlink:href="#m74f2dd9a25" y="75.830076"/>
      </g>
     </g>
    </g>
    <g id="ytick_51">
     <g id="line2d_57">
      <g>
       <use style="stroke:#000000;stroke-width:0.6;" x="57.6" xlink:href="#m74f2dd9a25" y="60.524276"/>
      </g>
     </g>
    </g>
    <g id="ytick_52">
     <g id="line2d_58">
      <g>
       <use style="stroke:#000000;stroke-width:0.6;" x="57.6" xlink:href="#m74f2dd9a25" y="52.752319"/>
      </g>
     </g>
    </g>
    <g id="ytick_53">
     <g id="line2d_59">
      <g>
       <use style="stroke:#000000;stroke-width:0.6;" x="57.6" xlink:href="#m74f2dd9a25" y="47.238027"/>
      </g>
     </g>
    </g>
    <g id="ytick_54">
     <g id="line2d_60">
      <g>
       <use style="stroke:#000000;stroke-width:0.6;" x="57.6" xlink:href="#m74f2dd9a25" y="42.960811"/>
      </g>
     </g>
    </g>
    <g id="text_14">
     <!-- Gradient norm -->
     <g transform="translate(19.980469 229.154953)rotate(-90)scale(0.15 -0.15)">
      <defs>
       <path d="M 3809 666 
L 3809 1919 
L 2778 1919 
L 2778 2438 
L 4434 2438 
L 4434 434 
Q 4069 175 3628 42 
Q 3188 -91 2688 -91 
Q 1594 -91 976 548 
Q 359 1188 359 2328 
Q 359 3472 976 4111 
Q 1594 4750 2688 4750 
Q 3144 4750 3555 4637 
Q 3966 4525 4313 4306 
L 4313 3634 
Q 3963 3931 3569 4081 
Q 3175 4231 2741 4231 
Q 1884 4231 1454 3753 
Q 1025 3275 1025 2328 
Q 1025 1384 1454 906 
Q 1884 428 2741 428 
Q 3075 428 3337 486 
Q 3600 544 3809 666 
z
" id="DejaVuSans-47" transform="scale(0.015625)"/>
       <path d="M 2631 2963 
Q 2534 3019 2420 3045 
Q 2306 3072 2169 3072 
Q 1681 3072 1420 2755 
Q 1159 2438 1159 1844 
L 1159 0 
L 581 0 
L 581 3500 
L 1159 3500 
L 1159 2956 
Q 1341 3275 1631 3429 
Q 1922 3584 2338 3584 
Q 2397 3584 2469 3576 
Q 2541 3569 2628 3553 
L 2631 2963 
z
" id="DejaVuSans-72" transform="scale(0.015625)"/>
       <path d="M 2194 1759 
Q 1497 1759 1228 1600 
Q 959 1441 959 1056 
Q 959 750 1161 570 
Q 1363 391 1709 391 
Q 2188 391 2477 730 
Q 2766 1069 2766 1631 
L 2766 1759 
L 2194 1759 
z
M 3341 1997 
L 3341 0 
L 2766 0 
L 2766 531 
Q 2569 213 2275 61 
Q 1981 -91 1556 -91 
Q 1019 -91 701 211 
Q 384 513 384 1019 
Q 384 1609 779 1909 
Q 1175 2209 1959 2209 
L 2766 2209 
L 2766 2266 
Q 2766 2663 2505 2880 
Q 2244 3097 1772 3097 
Q 1472 3097 1187 3025 
Q 903 2953 641 2809 
L 641 3341 
Q 956 3463 1253 3523 
Q 1550 3584 1831 3584 
Q 2591 3584 2966 3190 
Q 3341 2797 3341 1997 
z
" id="DejaVuSans-61" transform="scale(0.015625)"/>
       <path d="M 2906 2969 
L 2906 4863 
L 3481 4863 
L 3481 0 
L 2906 0 
L 2906 525 
Q 2725 213 2448 61 
Q 2172 -91 1784 -91 
Q 1150 -91 751 415 
Q 353 922 353 1747 
Q 353 2572 751 3078 
Q 1150 3584 1784 3584 
Q 2172 3584 2448 3432 
Q 2725 3281 2906 2969 
z
M 947 1747 
Q 947 1113 1208 752 
Q 1469 391 1925 391 
Q 2381 391 2643 752 
Q 2906 1113 2906 1747 
Q 2906 2381 2643 2742 
Q 2381 3103 1925 3103 
Q 1469 3103 1208 2742 
Q 947 2381 947 1747 
z
" id="DejaVuSans-64" transform="scale(0.015625)"/>
       <path d="M 603 3500 
L 1178 3500 
L 1178 0 
L 603 0 
L 603 3500 
z
M 603 4863 
L 1178 4863 
L 1178 4134 
L 603 4134 
L 603 4863 
z
" id="DejaVuSans-69" transform="scale(0.015625)"/>
       <path d="M 3597 1894 
L 3597 1613 
L 953 1613 
Q 991 1019 1311 708 
Q 1631 397 2203 397 
Q 2534 397 2845 478 
Q 3156 559 3463 722 
L 3463 178 
Q 3153 47 2828 -22 
Q 2503 -91 2169 -91 
Q 1331 -91 842 396 
Q 353 884 353 1716 
Q 353 2575 817 3079 
Q 1281 3584 2069 3584 
Q 2775 3584 3186 3129 
Q 3597 2675 3597 1894 
z
M 3022 2063 
Q 3016 2534 2758 2815 
Q 2500 3097 2075 3097 
Q 1594 3097 1305 2825 
Q 1016 2553 972 2059 
L 3022 2063 
z
" id="DejaVuSans-65" transform="scale(0.015625)"/>
       <path d="M 3513 2113 
L 3513 0 
L 2938 0 
L 2938 2094 
Q 2938 2591 2744 2837 
Q 2550 3084 2163 3084 
Q 1697 3084 1428 2787 
Q 1159 2491 1159 1978 
L 1159 0 
L 581 0 
L 581 3500 
L 1159 3500 
L 1159 2956 
Q 1366 3272 1645 3428 
Q 1925 3584 2291 3584 
Q 2894 3584 3203 3211 
Q 3513 2838 3513 2113 
z
" id="DejaVuSans-6e" transform="scale(0.015625)"/>
       <path d="M 1172 4494 
L 1172 3500 
L 2356 3500 
L 2356 3053 
L 1172 3053 
L 1172 1153 
Q 1172 725 1289 603 
Q 1406 481 1766 481 
L 2356 481 
L 2356 0 
L 1766 0 
Q 1100 0 847 248 
Q 594 497 594 1153 
L 594 3053 
L 172 3053 
L 172 3500 
L 594 3500 
L 594 4494 
L 1172 4494 
z
" id="DejaVuSans-74" transform="scale(0.015625)"/>
       <path id="DejaVuSans-20" transform="scale(0.015625)"/>
       <path d="M 3328 2828 
Q 3544 3216 3844 3400 
Q 4144 3584 4550 3584 
Q 5097 3584 5394 3201 
Q 5691 2819 5691 2113 
L 5691 0 
L 5113 0 
L 5113 2094 
Q 5113 2597 4934 2840 
Q 4756 3084 4391 3084 
Q 3944 3084 3684 2787 
Q 3425 2491 3425 1978 
L 3425 0 
L 2847 0 
L 2847 2094 
Q 2847 2600 2669 2842 
Q 2491 3084 2119 3084 
Q 1678 3084 1418 2786 
Q 1159 2488 1159 1978 
L 1159 0 
L 581 0 
L 581 3500 
L 1159 3500 
L 1159 2956 
Q 1356 3278 1631 3431 
Q 1906 3584 2284 3584 
Q 2666 3584 2933 3390 
Q 3200 3197 3328 2828 
z
" id="DejaVuSans-6d" transform="scale(0.015625)"/>
      </defs>
      <use xlink:href="#DejaVuSans-47"/>
      <use x="77.490234" xlink:href="#DejaVuSans-72"/>
      <use x="118.603516" xlink:href="#DejaVuSans-61"/>
      <use x="179.882812" xlink:href="#DejaVuSans-64"/>
      <use x="243.359375" xlink:href="#DejaVuSans-69"/>
      <use x="271.142578" xlink:href="#DejaVuSans-65"/>
      <use x="332.666016" xlink:href="#DejaVuSans-6e"/>
      <use x="396.044922" xlink:href="#DejaVuSans-74"/>
      <use x="435.253906" xlink:href="#DejaVuSans-20"/>
      <use x="467.041016" xlink:href="#DejaVuSans-6e"/>
      <use x="530.419922" xlink:href="#DejaVuSans-6f"/>
      <use x="591.601562" xlink:href="#DejaVuSans-72"/>
      <use x="630.964844" xlink:href="#DejaVuSans-6d"/>
     </g>
    </g>
   </g>
   <g id="line2d_61">
    <path clip-path="url(#pb328c20221)" d="M 73.832727 127.877225 
L 75.08622 122.634736 
L 76.339712 127.035654 
L 77.593205 130.684665 
L 78.846697 131.682362 
L 80.10019 133.8888 
L 81.353682 133.289498 
L 82.607174 134.99348 
L 83.860667 135.762087 
L 85.114159 142.758176 
L 86.367652 136.584544 
L 87.621144 137.674081 
L 88.874637 133.272621 
L 90.128129 141.024589 
L 91.381622 134.222208 
L 92.635114 140.270443 
L 93.888607 138.432766 
L 95.142099 140.48141 
L 96.395591 140.255323 
L 98.902576 144.939538 
L 100.156069 143.777078 
L 101.409561 139.711357 
L 102.663054 141.405265 
L 103.916546 144.984844 
L 105.170039 140.607879 
L 106.423531 139.345073 
L 107.677024 142.964956 
L 108.930516 137.583492 
L 110.184008 139.424721 
L 111.437501 135.019044 
L 112.690993 136.950889 
L 113.944486 140.643362 
L 115.197978 138.748404 
L 116.451471 141.392018 
L 117.704963 142.655409 
L 118.958456 138.558071 
L 120.211948 136.493846 
L 121.465441 138.787294 
L 122.718933 140.40344 
L 123.972425 139.356132 
L 125.225918 140.060918 
L 126.47941 143.031425 
L 127.732903 132.629682 
L 128.986395 130.033964 
L 130.239888 131.241373 
L 131.49338 133.899811 
L 132.746873 125.539498 
L 134.000365 123.819641 
L 135.253857 124.16634 
L 136.50735 133.00192 
L 137.760842 132.436151 
L 139.014335 126.764944 
L 140.267827 130.140726 
L 141.52132 122.87791 
L 142.774812 121.700667 
L 144.028305 121.538536 
L 145.281797 122.471819 
L 146.53529 120.451148 
L 149.042274 121.639017 
L 150.295767 116.865423 
L 151.549259 110.699283 
L 152.802752 116.607092 
L 154.056244 115.065154 
L 155.309737 109.294754 
L 156.563229 107.906815 
L 157.816722 113.743401 
L 159.070214 108.726708 
L 160.323707 110.473866 
L 161.577199 109.663922 
L 162.830691 104.521747 
L 164.084184 110.036113 
L 165.337676 108.308417 
L 166.591169 108.99749 
L 167.844661 105.944773 
L 169.098154 97.9103 
L 170.351646 106.24578 
L 171.605139 109.00345 
L 172.858631 100.252486 
L 174.112124 97.63913 
L 175.365616 102.199042 
L 176.619108 98.740368 
L 177.872601 89.729109 
L 179.126093 99.101804 
L 180.379586 98.622185 
L 181.633078 96.475092 
L 182.886571 90.743245 
L 184.140063 84.449059 
L 185.393556 97.647113 
L 186.647048 92.032723 
L 187.900541 92.05903 
L 189.154033 85.663538 
L 190.407525 88.4184 
L 191.661018 86.084664 
L 192.91451 84.07249 
L 194.168003 83.689174 
L 195.421495 91.896985 
L 196.674988 92.034471 
L 197.92848 84.835288 
L 199.181973 87.523339 
L 200.435465 86.604601 
L 201.688958 89.677184 
L 202.94245 91.60918 
L 204.195942 91.693933 
L 205.449435 85.770297 
L 206.702927 91.379824 
L 207.95642 87.204703 
L 209.209912 84.167831 
L 210.463405 89.934274 
L 211.716897 82.430208 
L 212.97039 85.433595 
L 214.223882 87.971917 
L 215.477375 82.92337 
L 216.730867 78.549209 
L 217.984359 84.704514 
L 219.237852 79.53085 
L 220.491344 85.192547 
L 221.744837 82.575051 
L 222.998329 81.830653 
L 224.251822 85.911184 
L 225.505314 80.971883 
L 226.758807 84.519439 
L 228.012299 82.250891 
L 229.265792 77.898025 
L 230.519284 77.633008 
L 231.772776 86.646789 
L 233.026269 79.216286 
L 234.279761 77.293056 
L 235.533254 76.339288 
L 236.786746 77.181191 
L 238.040239 78.755622 
L 239.293731 77.060063 
L 240.547224 77.988226 
L 241.800716 76.128613 
L 243.054208 81.143411 
L 244.307701 75.745377 
L 245.561193 78.976772 
L 246.814686 75.232783 
L 248.068178 81.166818 
L 249.321671 73.624027 
L 250.575163 73.881743 
L 251.828656 79.547751 
L 253.082148 74.15591 
L 254.335641 77.719269 
L 255.589133 68.73686 
L 256.842625 77.565802 
L 258.096118 76.878743 
L 259.34961 71.844647 
L 260.603103 65.280603 
L 261.856595 77.220262 
L 263.110088 70.580268 
L 264.36358 75.946115 
L 265.617073 71.311009 
L 266.870565 75.015578 
L 268.124058 73.529568 
L 269.37755 73.526528 
L 270.631042 75.661449 
L 271.884535 69.748093 
L 273.138027 67.73131 
L 274.39152 75.723265 
L 275.645012 76.331902 
L 276.898505 69.893024 
L 278.151997 67.198845 
L 279.40549 62.562929 
L 280.658982 71.436487 
L 281.912475 67.276598 
L 283.165967 73.575696 
L 284.419459 69.009616 
L 285.672952 67.396079 
L 286.926444 64.311956 
L 288.179937 69.112975 
L 289.433429 67.128801 
L 290.686922 70.119448 
L 291.940414 67.109742 
L 293.193907 70.852467 
L 294.447399 73.996493 
L 295.700892 66.951594 
L 296.954384 70.93369 
L 298.207876 73.965788 
L 299.461369 69.797885 
L 300.714861 70.043884 
L 301.968354 71.03382 
L 303.221846 67.303464 
L 304.475339 69.081497 
L 305.728831 65.182094 
L 306.982324 69.236634 
L 308.235816 65.22214 
L 309.489309 68.356131 
L 310.742801 67.411755 
L 311.996293 61.619385 
L 313.249786 66.701353 
L 314.503278 67.4052 
L 315.756771 65.172163 
L 317.010263 62.614859 
L 318.263756 64.162846 
L 319.517248 61.33808 
L 320.770741 65.683083 
L 322.024233 69.318197 
L 323.277726 64.52382 
L 324.531218 67.156395 
L 327.038203 63.29867 
L 328.291695 60.750653 
L 329.545188 64.351837 
L 330.79868 65.203847 
L 332.052173 58.135341 
L 333.305665 63.998268 
L 334.559158 67.931457 
L 335.81265 62.065961 
L 337.066143 64.368301 
L 338.319635 60.806476 
L 339.573127 65.46333 
L 340.82662 60.975846 
L 343.333605 62.645604 
L 344.587097 58.259884 
L 345.84059 61.319011 
L 347.094082 60.957755 
L 348.347575 57.93968 
L 349.601067 62.117605 
L 350.854559 58.839886 
L 352.108052 54.561951 
L 353.361544 64.700018 
L 354.615037 64.473668 
L 355.868529 58.289346 
L 357.122022 59.415515 
L 358.375514 57.879463 
L 359.629007 59.028782 
L 360.882499 61.280511 
L 362.135992 62.581175 
L 363.389484 60.1084 
L 364.642976 63.737395 
L 365.896469 61.682378 
L 367.149961 62.132978 
L 368.403454 54.604971 
L 369.656946 63.099789 
L 370.910439 58.730198 
L 372.163931 58.861568 
L 373.417424 65.54369 
L 374.670916 53.587959 
L 375.924409 57.894765 
L 377.177901 55.974101 
L 378.431393 61.554457 
L 379.684886 57.437763 
L 380.938378 57.673031 
L 382.191871 53.568 
L 383.445363 59.798946 
L 384.698856 61.63003 
L 385.952348 61.419878 
L 387.205841 56.640974 
L 388.459333 60.134475 
L 389.712826 62.856891 
L 390.966318 60.640229 
L 392.21981 62.107026 
L 393.473303 57.815971 
L 394.726795 63.96713 
L 395.980288 56.565601 
L 397.23378 54.266907 
L 398.487273 54.527372 
L 398.487273 54.527372 
" style="fill:none;stroke:#0000ff;stroke-linecap:square;stroke-width:1.5;"/>
   </g>
   <g id="line2d_62">
    <path clip-path="url(#pb328c20221)" d="M 73.832727 205.784226 
L 75.08622 213.237099 
L 76.339712 234.522231 
L 77.593205 248.78572 
L 78.846697 243.083382 
L 80.10019 259.445714 
L 81.353682 250.303439 
L 82.607174 253.863139 
L 83.860667 259.657586 
L 85.114159 262.980954 
L 86.367652 258.335473 
L 87.621144 234.196757 
L 91.381622 288.011882 
L 92.635114 271.412484 
L 93.888607 272.574813 
L 95.142099 285.857437 
L 96.395591 290.006158 
L 97.649084 281.746559 
L 98.902576 278.277541 
L 100.156069 288.897848 
L 101.409561 286.53035 
L 102.663054 295.488 
L 103.916546 288.503252 
L 105.170039 263.214043 
L 106.423531 271.442586 
L 107.677024 288.810925 
L 108.930516 287.977893 
L 110.184008 265.995895 
L 111.437501 285.480017 
L 112.690993 261.856109 
L 113.944486 258.325349 
L 115.197978 260.203581 
L 116.451471 259.093211 
L 117.704963 252.154506 
L 118.958456 244.353601 
L 120.211948 238.204351 
L 121.465441 234.843232 
L 122.718933 232.248487 
L 123.972425 228.321108 
L 125.225918 221.872649 
L 126.47941 219.462004 
L 127.732903 210.646538 
L 128.986395 206.814547 
L 130.239888 206.100017 
L 131.49338 200.433466 
L 132.746873 199.596067 
L 134.000365 196.017286 
L 135.253857 195.191191 
L 136.50735 193.241261 
L 137.760842 189.013446 
L 139.014335 185.436781 
L 140.267827 186.356728 
L 141.52132 182.367647 
L 142.774812 185.121063 
L 144.028305 181.93458 
L 145.281797 181.328664 
L 146.53529 182.765178 
L 147.788782 183.945874 
L 149.042274 184.605436 
L 150.295767 181.080804 
L 151.549259 183.860498 
L 152.802752 182.750322 
L 154.056244 178.250104 
L 155.309737 181.348441 
L 156.563229 180.998357 
L 157.816722 182.641568 
L 159.070214 179.868017 
L 160.323707 178.63849 
L 161.577199 182.389646 
L 162.830691 178.32578 
L 164.084184 177.810844 
L 165.337676 179.007665 
L 166.591169 178.958441 
L 167.844661 180.760167 
L 169.098154 176.505707 
L 170.351646 176.733209 
L 171.605139 177.750326 
L 172.858631 181.024718 
L 174.112124 177.589463 
L 175.365616 177.232885 
L 176.619108 174.301463 
L 177.872601 178.372301 
L 179.126093 174.237706 
L 180.379586 174.108589 
L 182.886571 177.371942 
L 184.140063 176.387516 
L 185.393556 174.406392 
L 186.647048 176.027307 
L 187.900541 173.590247 
L 189.154033 173.801712 
L 190.407525 175.841272 
L 191.661018 176.054044 
L 192.91451 173.140442 
L 194.168003 173.896215 
L 195.421495 176.560145 
L 196.674988 174.90818 
L 197.92848 171.507992 
L 199.181973 171.456202 
L 200.435465 175.227938 
L 201.688958 172.568628 
L 202.94245 175.084999 
L 204.195942 173.31342 
L 206.702927 171.903172 
L 207.95642 172.4659 
L 209.209912 173.180521 
L 210.463405 171.987139 
L 211.716897 173.376195 
L 215.477375 171.035565 
L 216.730867 170.586104 
L 217.984359 172.873134 
L 219.237852 172.376078 
L 220.491344 171.04022 
L 221.744837 169.992713 
L 222.998329 168.181739 
L 224.251822 170.134738 
L 225.505314 170.170821 
L 226.758807 169.998995 
L 228.012299 168.064122 
L 229.265792 169.314153 
L 230.519284 168.556503 
L 231.772776 169.227592 
L 233.026269 169.2682 
L 234.279761 170.377677 
L 235.533254 167.631088 
L 236.786746 166.939228 
L 238.040239 164.695052 
L 239.293731 168.38592 
L 240.547224 166.932368 
L 241.800716 168.452683 
L 243.054208 169.218859 
L 244.307701 165.249744 
L 245.561193 166.351748 
L 246.814686 167.620628 
L 248.068178 167.14016 
L 249.321671 164.150925 
L 250.575163 166.556176 
L 251.828656 167.10325 
L 253.082148 166.536875 
L 254.335641 166.197737 
L 255.589133 165.520607 
L 256.842625 166.838562 
L 258.096118 167.363426 
L 259.34961 167.063757 
L 260.603103 163.96962 
L 261.856595 165.886362 
L 263.110088 166.010224 
L 264.36358 162.873214 
L 265.617073 163.473365 
L 266.870565 165.520041 
L 268.124058 165.425608 
L 269.37755 163.101924 
L 270.631042 162.837307 
L 271.884535 161.931472 
L 273.138027 163.836078 
L 274.39152 166.911051 
L 276.898505 164.498303 
L 278.151997 162.177817 
L 279.40549 164.118164 
L 280.658982 164.028445 
L 281.912475 162.45351 
L 283.165967 165.253545 
L 284.419459 164.542564 
L 285.672952 162.35112 
L 286.926444 162.494771 
L 288.179937 163.11149 
L 289.433429 161.87923 
L 290.686922 162.23301 
L 291.940414 163.26945 
L 293.193907 162.814456 
L 294.447399 164.042011 
L 295.700892 162.494645 
L 296.954384 162.095093 
L 298.207876 163.869406 
L 299.461369 162.84213 
L 300.714861 161.555553 
L 301.968354 163.99003 
L 303.221846 162.598567 
L 304.475339 162.606453 
L 305.728831 160.253698 
L 306.982324 163.616956 
L 308.235816 160.262688 
L 309.489309 162.984559 
L 310.742801 161.320431 
L 311.996293 158.866469 
L 313.249786 161.665548 
L 314.503278 161.305924 
L 315.756771 160.69426 
L 317.010263 160.6612 
L 318.263756 160.279184 
L 319.517248 160.855304 
L 320.770741 162.421116 
L 322.024233 163.580918 
L 323.277726 161.791598 
L 325.78471 160.880224 
L 327.038203 162.206291 
L 328.291695 160.123946 
L 329.545188 160.252296 
L 330.79868 161.514418 
L 332.052173 161.522281 
L 333.305665 162.154933 
L 334.559158 161.401232 
L 335.81265 160.454004 
L 337.066143 160.617883 
L 338.319635 159.193853 
L 339.573127 159.269133 
L 340.82662 158.100848 
L 342.080112 159.547588 
L 344.587097 159.147041 
L 345.84059 159.918114 
L 347.094082 159.904998 
L 348.347575 161.042503 
L 349.601067 160.219718 
L 350.854559 161.773246 
L 352.108052 162.15582 
L 353.361544 161.652678 
L 354.615037 160.869022 
L 355.868529 159.510241 
L 357.122022 160.281444 
L 358.375514 159.658786 
L 359.629007 159.794265 
L 360.882499 159.039027 
L 363.389484 160.289065 
L 364.642976 162.334488 
L 367.149961 160.99171 
L 368.403454 160.041707 
L 369.656946 161.963362 
L 370.910439 158.403883 
L 372.163931 160.800733 
L 373.417424 161.734498 
L 374.670916 159.970825 
L 375.924409 159.967822 
L 378.431393 162.442072 
L 379.684886 160.375833 
L 380.938378 161.636747 
L 382.191871 158.977552 
L 383.445363 158.813841 
L 384.698856 161.240968 
L 385.952348 159.760698 
L 387.205841 161.52272 
L 388.459333 158.271221 
L 389.712826 158.296657 
L 390.966318 162.04423 
L 393.473303 158.286677 
L 394.726795 157.863753 
L 395.980288 158.184237 
L 397.23378 157.725852 
L 398.487273 155.562256 
L 398.487273 155.562256 
" style="fill:none;stroke:#ffa500;stroke-linecap:square;stroke-width:1.5;"/>
   </g>
   <g id="line2d_63">
    <path clip-path="url(#pb328c20221)" d="M 73.832727 162.874606 
L 75.08622 167.065533 
L 76.339712 184.297532 
L 77.593205 192.14879 
L 78.846697 191.838051 
L 80.10019 200.691209 
L 81.353682 198.390183 
L 83.860667 206.046783 
L 85.114159 207.412727 
L 86.367652 208.093419 
L 87.621144 183.976063 
L 88.874637 205.438699 
L 90.128129 209.416068 
L 91.381622 221.487108 
L 92.635114 223.039006 
L 93.888607 217.437781 
L 95.142099 226.773374 
L 96.395591 225.135029 
L 97.649084 220.854236 
L 98.902576 218.244489 
L 100.156069 222.822563 
L 101.409561 228.093376 
L 102.663054 236.087758 
L 103.916546 230.944074 
L 105.170039 216.646595 
L 106.423531 221.809925 
L 107.677024 233.999769 
L 108.930516 231.612535 
L 110.184008 219.113107 
L 111.437501 231.335967 
L 112.690993 211.307487 
L 113.944486 211.736491 
L 115.197978 210.372913 
L 116.451471 211.43969 
L 117.704963 201.178783 
L 118.958456 194.508569 
L 120.211948 189.972355 
L 121.465441 182.512246 
L 123.972425 173.573078 
L 125.225918 172.78278 
L 126.47941 173.547665 
L 127.732903 160.478776 
L 128.986395 153.495109 
L 130.239888 154.190895 
L 131.49338 150.763044 
L 132.746873 154.877873 
L 134.000365 147.524252 
L 135.253857 145.165874 
L 136.50735 143.842303 
L 137.760842 138.185312 
L 139.014335 138.095574 
L 140.267827 134.066742 
L 141.52132 133.02877 
L 142.774812 133.417483 
L 144.028305 135.213052 
L 145.281797 134.862761 
L 146.53529 134.872788 
L 147.788782 128.343847 
L 149.042274 128.870159 
L 150.295767 132.240995 
L 151.549259 131.649399 
L 152.802752 129.3867 
L 154.056244 131.87301 
L 155.309737 132.126528 
L 156.563229 130.139735 
L 157.816722 133.117624 
L 159.070214 132.796152 
L 160.323707 127.741706 
L 161.577199 127.881117 
L 162.830691 129.900453 
L 164.084184 130.805562 
L 165.337676 134.477533 
L 166.591169 130.449694 
L 167.844661 131.018909 
L 169.098154 132.61637 
L 170.351646 129.587912 
L 171.605139 128.048299 
L 172.858631 127.103395 
L 174.112124 128.724388 
L 175.365616 126.00323 
L 176.619108 127.376905 
L 177.872601 129.886807 
L 179.126093 133.15547 
L 180.379586 128.750237 
L 181.633078 128.745835 
L 182.886571 127.022981 
L 184.140063 128.597479 
L 185.393556 127.118774 
L 186.647048 125.902931 
L 187.900541 128.610042 
L 189.154033 127.472222 
L 190.407525 124.891112 
L 191.661018 124.75467 
L 192.91451 126.960168 
L 194.168003 126.061319 
L 195.421495 122.707691 
L 196.674988 128.931641 
L 197.92848 126.223417 
L 199.181973 129.333506 
L 200.435465 126.151485 
L 201.688958 126.868519 
L 202.94245 122.552056 
L 204.195942 124.955176 
L 205.449435 123.66443 
L 206.702927 124.74358 
L 207.95642 123.116564 
L 209.209912 123.394971 
L 210.463405 119.207208 
L 211.716897 120.741341 
L 212.97039 120.786993 
L 214.223882 119.658345 
L 215.477375 123.805579 
L 216.730867 121.325555 
L 217.984359 118.127854 
L 219.237852 120.993413 
L 220.491344 117.703149 
L 221.744837 120.856475 
L 222.998329 119.955939 
L 224.251822 117.25167 
L 225.505314 117.718648 
L 226.758807 120.968881 
L 228.012299 120.043242 
L 229.265792 118.331776 
L 230.519284 115.340057 
L 231.772776 119.070885 
L 233.026269 117.40392 
L 234.279761 117.114657 
L 235.533254 117.686803 
L 236.786746 119.41588 
L 238.040239 117.411185 
L 239.293731 116.453246 
L 240.547224 117.446067 
L 241.800716 116.587863 
L 243.054208 118.087495 
L 244.307701 115.816656 
L 245.561193 113.980873 
L 246.814686 115.203562 
L 248.068178 116.6279 
L 249.321671 118.279966 
L 250.575163 116.824526 
L 251.828656 111.656705 
L 253.082148 112.85264 
L 255.589133 115.690181 
L 256.842625 116.22202 
L 258.096118 113.53358 
L 259.34961 111.481446 
L 260.603103 113.671266 
L 261.856595 112.270296 
L 263.110088 115.651742 
L 264.36358 113.546039 
L 265.617073 113.453279 
L 266.870565 111.429345 
L 268.124058 115.692847 
L 269.37755 115.613952 
L 270.631042 114.615278 
L 271.884535 114.477078 
L 273.138027 112.945587 
L 274.39152 111.878086 
L 275.645012 114.766992 
L 276.898505 112.397028 
L 278.151997 116.54285 
L 279.40549 113.360782 
L 280.658982 112.617632 
L 281.912475 114.421506 
L 283.165967 110.752167 
L 284.419459 119.110872 
L 285.672952 113.016109 
L 288.179937 116.406733 
L 289.433429 112.957772 
L 290.686922 114.250472 
L 291.940414 114.93806 
L 293.193907 112.02233 
L 294.447399 113.66113 
L 295.700892 115.817852 
L 296.954384 111.550623 
L 299.461369 112.388176 
L 300.714861 115.087668 
L 301.968354 114.149961 
L 303.221846 111.727898 
L 304.475339 110.934871 
L 305.728831 119.356524 
L 306.982324 111.093938 
L 308.235816 113.76594 
L 309.489309 113.709217 
L 310.742801 111.124218 
L 311.996293 114.837175 
L 313.249786 112.911792 
L 314.503278 116.200413 
L 315.756771 112.579696 
L 317.010263 112.140127 
L 318.263756 113.31161 
L 319.517248 111.83766 
L 320.770741 112.72523 
L 323.277726 112.437943 
L 324.531218 112.579765 
L 325.78471 114.337537 
L 327.038203 113.41914 
L 328.291695 118.983947 
L 329.545188 114.428264 
L 330.79868 112.632097 
L 332.052173 107.046958 
L 333.305665 113.01436 
L 334.559158 114.873702 
L 335.81265 112.957121 
L 337.066143 113.183006 
L 338.319635 115.667307 
L 339.573127 115.316855 
L 340.82662 110.506359 
L 342.080112 114.86886 
L 343.333605 116.824265 
L 344.587097 112.789841 
L 345.84059 113.008695 
L 347.094082 111.991302 
L 348.347575 109.066806 
L 349.601067 113.856912 
L 350.854559 112.12437 
L 352.108052 111.545029 
L 353.361544 115.252144 
L 354.615037 109.733201 
L 355.868529 111.362423 
L 357.122022 114.664738 
L 358.375514 113.49873 
L 359.629007 116.942598 
L 360.882499 116.19689 
L 362.135992 114.784251 
L 363.389484 110.370209 
L 364.642976 112.946716 
L 365.896469 114.600477 
L 367.149961 111.362574 
L 368.403454 114.767617 
L 369.656946 113.467198 
L 370.910439 108.597045 
L 372.163931 114.339979 
L 373.417424 113.642568 
L 374.670916 112.80528 
L 375.924409 116.874937 
L 377.177901 110.061992 
L 378.431393 112.494885 
L 379.684886 110.781324 
L 380.938378 111.019056 
L 382.191871 113.791909 
L 383.445363 114.19277 
L 384.698856 115.469079 
L 385.952348 112.597712 
L 387.205841 110.422338 
L 388.459333 114.502284 
L 389.712826 115.53769 
L 390.966318 113.06575 
L 392.21981 109.698311 
L 393.473303 112.241618 
L 394.726795 114.036356 
L 395.980288 116.622263 
L 397.23378 113.704848 
L 398.487273 112.668642 
L 398.487273 112.668642 
" style="fill:none;stroke:#008000;stroke-linecap:square;stroke-width:1.5;"/>
   </g>
   <g id="patch_3">
    <path d="M 57.6 307.584 
L 57.6 41.472 
" style="fill:none;stroke:#000000;stroke-linecap:square;stroke-linejoin:miter;stroke-width:0.8;"/>
   </g>
   <g id="patch_4">
    <path d="M 414.72 307.584 
L 414.72 41.472 
" style="fill:none;stroke:#000000;stroke-linecap:square;stroke-linejoin:miter;stroke-width:0.8;"/>
   </g>
   <g id="patch_5">
    <path d="M 57.6 307.584 
L 414.72 307.584 
" style="fill:none;stroke:#000000;stroke-linecap:square;stroke-linejoin:miter;stroke-width:0.8;"/>
   </g>
   <g id="patch_6">
    <path d="M 57.6 41.472 
L 414.72 41.472 
" style="fill:none;stroke:#000000;stroke-linecap:square;stroke-linejoin:miter;stroke-width:0.8;"/>
   </g>
  </g>
 </g>
 <defs>
  <clipPath id="pb328c20221">
   <rect height="266.112" width="357.12" x="57.6" y="41.472"/>
  </clipPath>
 </defs>
</svg>
