<?xml version="1.0" encoding="utf-8" standalone="no"?>
<!DOCTYPE svg PUBLIC "-//W3C//DTD SVG 1.1//EN"
  "http://www.w3.org/Graphics/SVG/1.1/DTD/svg11.dtd">
<svg height="345.6pt" version="1.1" viewBox="0 0 460.8 345.6" width="460.8pt" xmlns="http://www.w3.org/2000/svg" xmlns:xlink="http://www.w3.org/1999/xlink">
 <metadata>
  <rdf:RDF xmlns:cc="http://creativecommons.org/ns#" xmlns:dc="http://purl.org/dc/elements/1.1/" xmlns:rdf="http://www.w3.org/1999/02/22-rdf-syntax-ns#">
   <cc:Work>
    <dc:type rdf:resource="http://purl.org/dc/dcmitype/StillImage"/>
    <dc:date>2021-07-14T20:57:33.312068</dc:date>
    <dc:format>image/svg+xml</dc:format>
    <dc:creator>
     <cc:Agent>
      <dc:title>Matplotlib v3.4.2, https://matplotlib.org/</dc:title>
     </cc:Agent>
    </dc:creator>
   </cc:Work>
  </rdf:RDF>
 </metadata>
 <defs>
  <style type="text/css">*{stroke-linecap:butt;stroke-linejoin:round;}</style>
 </defs>
 <g id="figure_1">
  <g id="patch_1">
   <path d="M 0 345.6 
L 460.8 345.6 
L 460.8 0 
L 0 0 
z
" style="fill:#ffffff;"/>
  </g>
  <g id="axes_1">
   <g id="patch_2">
    <path d="M 57.6 307.584 
L 414.72 307.584 
L 414.72 41.472 
L 57.6 41.472 
z
" style="fill:#ffffff;"/>
   </g>
   <g id="matplotlib.axis_1">
    <g id="xtick_1">
     <g id="line2d_1">
      <defs>
       <path d="M 0 0 
L 0 3.5 
" id="m04c1db02dc" style="stroke:#000000;stroke-width:0.8;"/>
      </defs>
      <g>
       <use style="stroke:#000000;stroke-width:0.8;" x="73.019057" xlink:href="#m04c1db02dc" y="307.584"/>
      </g>
     </g>
     <g id="text_1">
      <!-- 0 -->
      <g transform="translate(69.837807 322.182437)scale(0.1 -0.1)">
       <defs>
        <path d="M 2034 4250 
Q 1547 4250 1301 3770 
Q 1056 3291 1056 2328 
Q 1056 1369 1301 889 
Q 1547 409 2034 409 
Q 2525 409 2770 889 
Q 3016 1369 3016 2328 
Q 3016 3291 2770 3770 
Q 2525 4250 2034 4250 
z
M 2034 4750 
Q 2819 4750 3233 4129 
Q 3647 3509 3647 2328 
Q 3647 1150 3233 529 
Q 2819 -91 2034 -91 
Q 1250 -91 836 529 
Q 422 1150 422 2328 
Q 422 3509 836 4129 
Q 1250 4750 2034 4750 
z
" id="DejaVuSans-30" transform="scale(0.015625)"/>
       </defs>
       <use xlink:href="#DejaVuSans-30"/>
      </g>
     </g>
    </g>
    <g id="xtick_2">
     <g id="line2d_2">
      <g>
       <use style="stroke:#000000;stroke-width:0.8;" x="113.702584" xlink:href="#m04c1db02dc" y="307.584"/>
      </g>
     </g>
     <g id="text_2">
      <!-- 50 -->
      <g transform="translate(107.340084 322.182437)scale(0.1 -0.1)">
       <defs>
        <path d="M 691 4666 
L 3169 4666 
L 3169 4134 
L 1269 4134 
L 1269 2991 
Q 1406 3038 1543 3061 
Q 1681 3084 1819 3084 
Q 2600 3084 3056 2656 
Q 3513 2228 3513 1497 
Q 3513 744 3044 326 
Q 2575 -91 1722 -91 
Q 1428 -91 1123 -41 
Q 819 9 494 109 
L 494 744 
Q 775 591 1075 516 
Q 1375 441 1709 441 
Q 2250 441 2565 725 
Q 2881 1009 2881 1497 
Q 2881 1984 2565 2268 
Q 2250 2553 1709 2553 
Q 1456 2553 1204 2497 
Q 953 2441 691 2322 
L 691 4666 
z
" id="DejaVuSans-35" transform="scale(0.015625)"/>
       </defs>
       <use xlink:href="#DejaVuSans-35"/>
       <use x="63.623047" xlink:href="#DejaVuSans-30"/>
      </g>
     </g>
    </g>
    <g id="xtick_3">
     <g id="line2d_3">
      <g>
       <use style="stroke:#000000;stroke-width:0.8;" x="154.386111" xlink:href="#m04c1db02dc" y="307.584"/>
      </g>
     </g>
     <g id="text_3">
      <!-- 100 -->
      <g transform="translate(144.842361 322.182437)scale(0.1 -0.1)">
       <defs>
        <path d="M 794 531 
L 1825 531 
L 1825 4091 
L 703 3866 
L 703 4441 
L 1819 4666 
L 2450 4666 
L 2450 531 
L 3481 531 
L 3481 0 
L 794 0 
L 794 531 
z
" id="DejaVuSans-31" transform="scale(0.015625)"/>
       </defs>
       <use xlink:href="#DejaVuSans-31"/>
       <use x="63.623047" xlink:href="#DejaVuSans-30"/>
       <use x="127.246094" xlink:href="#DejaVuSans-30"/>
      </g>
     </g>
    </g>
    <g id="xtick_4">
     <g id="line2d_4">
      <g>
       <use style="stroke:#000000;stroke-width:0.8;" x="195.069638" xlink:href="#m04c1db02dc" y="307.584"/>
      </g>
     </g>
     <g id="text_4">
      <!-- 150 -->
      <g transform="translate(185.525888 322.182437)scale(0.1 -0.1)">
       <use xlink:href="#DejaVuSans-31"/>
       <use x="63.623047" xlink:href="#DejaVuSans-35"/>
       <use x="127.246094" xlink:href="#DejaVuSans-30"/>
      </g>
     </g>
    </g>
    <g id="xtick_5">
     <g id="line2d_5">
      <g>
       <use style="stroke:#000000;stroke-width:0.8;" x="235.753165" xlink:href="#m04c1db02dc" y="307.584"/>
      </g>
     </g>
     <g id="text_5">
      <!-- 200 -->
      <g transform="translate(226.209415 322.182437)scale(0.1 -0.1)">
       <defs>
        <path d="M 1228 531 
L 3431 531 
L 3431 0 
L 469 0 
L 469 531 
Q 828 903 1448 1529 
Q 2069 2156 2228 2338 
Q 2531 2678 2651 2914 
Q 2772 3150 2772 3378 
Q 2772 3750 2511 3984 
Q 2250 4219 1831 4219 
Q 1534 4219 1204 4116 
Q 875 4013 500 3803 
L 500 4441 
Q 881 4594 1212 4672 
Q 1544 4750 1819 4750 
Q 2544 4750 2975 4387 
Q 3406 4025 3406 3419 
Q 3406 3131 3298 2873 
Q 3191 2616 2906 2266 
Q 2828 2175 2409 1742 
Q 1991 1309 1228 531 
z
" id="DejaVuSans-32" transform="scale(0.015625)"/>
       </defs>
       <use xlink:href="#DejaVuSans-32"/>
       <use x="63.623047" xlink:href="#DejaVuSans-30"/>
       <use x="127.246094" xlink:href="#DejaVuSans-30"/>
      </g>
     </g>
    </g>
    <g id="xtick_6">
     <g id="line2d_6">
      <g>
       <use style="stroke:#000000;stroke-width:0.8;" x="276.436692" xlink:href="#m04c1db02dc" y="307.584"/>
      </g>
     </g>
     <g id="text_6">
      <!-- 250 -->
      <g transform="translate(266.892942 322.182437)scale(0.1 -0.1)">
       <use xlink:href="#DejaVuSans-32"/>
       <use x="63.623047" xlink:href="#DejaVuSans-35"/>
       <use x="127.246094" xlink:href="#DejaVuSans-30"/>
      </g>
     </g>
    </g>
    <g id="xtick_7">
     <g id="line2d_7">
      <g>
       <use style="stroke:#000000;stroke-width:0.8;" x="317.120219" xlink:href="#m04c1db02dc" y="307.584"/>
      </g>
     </g>
     <g id="text_7">
      <!-- 300 -->
      <g transform="translate(307.576469 322.182437)scale(0.1 -0.1)">
       <defs>
        <path d="M 2597 2516 
Q 3050 2419 3304 2112 
Q 3559 1806 3559 1356 
Q 3559 666 3084 287 
Q 2609 -91 1734 -91 
Q 1441 -91 1130 -33 
Q 819 25 488 141 
L 488 750 
Q 750 597 1062 519 
Q 1375 441 1716 441 
Q 2309 441 2620 675 
Q 2931 909 2931 1356 
Q 2931 1769 2642 2001 
Q 2353 2234 1838 2234 
L 1294 2234 
L 1294 2753 
L 1863 2753 
Q 2328 2753 2575 2939 
Q 2822 3125 2822 3475 
Q 2822 3834 2567 4026 
Q 2313 4219 1838 4219 
Q 1578 4219 1281 4162 
Q 984 4106 628 3988 
L 628 4550 
Q 988 4650 1302 4700 
Q 1616 4750 1894 4750 
Q 2613 4750 3031 4423 
Q 3450 4097 3450 3541 
Q 3450 3153 3228 2886 
Q 3006 2619 2597 2516 
z
" id="DejaVuSans-33" transform="scale(0.015625)"/>
       </defs>
       <use xlink:href="#DejaVuSans-33"/>
       <use x="63.623047" xlink:href="#DejaVuSans-30"/>
       <use x="127.246094" xlink:href="#DejaVuSans-30"/>
      </g>
     </g>
    </g>
    <g id="xtick_8">
     <g id="line2d_8">
      <g>
       <use style="stroke:#000000;stroke-width:0.8;" x="357.803746" xlink:href="#m04c1db02dc" y="307.584"/>
      </g>
     </g>
     <g id="text_8">
      <!-- 350 -->
      <g transform="translate(348.259996 322.182437)scale(0.1 -0.1)">
       <use xlink:href="#DejaVuSans-33"/>
       <use x="63.623047" xlink:href="#DejaVuSans-35"/>
       <use x="127.246094" xlink:href="#DejaVuSans-30"/>
      </g>
     </g>
    </g>
    <g id="xtick_9">
     <g id="line2d_9">
      <g>
       <use style="stroke:#000000;stroke-width:0.8;" x="398.487273" xlink:href="#m04c1db02dc" y="307.584"/>
      </g>
     </g>
     <g id="text_9">
      <!-- 400 -->
      <g transform="translate(388.943523 322.182437)scale(0.1 -0.1)">
       <defs>
        <path d="M 2419 4116 
L 825 1625 
L 2419 1625 
L 2419 4116 
z
M 2253 4666 
L 3047 4666 
L 3047 1625 
L 3713 1625 
L 3713 1100 
L 3047 1100 
L 3047 0 
L 2419 0 
L 2419 1100 
L 313 1100 
L 313 1709 
L 2253 4666 
z
" id="DejaVuSans-34" transform="scale(0.015625)"/>
       </defs>
       <use xlink:href="#DejaVuSans-34"/>
       <use x="63.623047" xlink:href="#DejaVuSans-30"/>
       <use x="127.246094" xlink:href="#DejaVuSans-30"/>
      </g>
     </g>
    </g>
    <g id="text_10">
     <!-- Epoch -->
     <g transform="translate(213.193594 339.659781)scale(0.15 -0.15)">
      <defs>
       <path d="M 628 4666 
L 3578 4666 
L 3578 4134 
L 1259 4134 
L 1259 2753 
L 3481 2753 
L 3481 2222 
L 1259 2222 
L 1259 531 
L 3634 531 
L 3634 0 
L 628 0 
L 628 4666 
z
" id="DejaVuSans-45" transform="scale(0.015625)"/>
       <path d="M 1159 525 
L 1159 -1331 
L 581 -1331 
L 581 3500 
L 1159 3500 
L 1159 2969 
Q 1341 3281 1617 3432 
Q 1894 3584 2278 3584 
Q 2916 3584 3314 3078 
Q 3713 2572 3713 1747 
Q 3713 922 3314 415 
Q 2916 -91 2278 -91 
Q 1894 -91 1617 61 
Q 1341 213 1159 525 
z
M 3116 1747 
Q 3116 2381 2855 2742 
Q 2594 3103 2138 3103 
Q 1681 3103 1420 2742 
Q 1159 2381 1159 1747 
Q 1159 1113 1420 752 
Q 1681 391 2138 391 
Q 2594 391 2855 752 
Q 3116 1113 3116 1747 
z
" id="DejaVuSans-70" transform="scale(0.015625)"/>
       <path d="M 1959 3097 
Q 1497 3097 1228 2736 
Q 959 2375 959 1747 
Q 959 1119 1226 758 
Q 1494 397 1959 397 
Q 2419 397 2687 759 
Q 2956 1122 2956 1747 
Q 2956 2369 2687 2733 
Q 2419 3097 1959 3097 
z
M 1959 3584 
Q 2709 3584 3137 3096 
Q 3566 2609 3566 1747 
Q 3566 888 3137 398 
Q 2709 -91 1959 -91 
Q 1206 -91 779 398 
Q 353 888 353 1747 
Q 353 2609 779 3096 
Q 1206 3584 1959 3584 
z
" id="DejaVuSans-6f" transform="scale(0.015625)"/>
       <path d="M 3122 3366 
L 3122 2828 
Q 2878 2963 2633 3030 
Q 2388 3097 2138 3097 
Q 1578 3097 1268 2742 
Q 959 2388 959 1747 
Q 959 1106 1268 751 
Q 1578 397 2138 397 
Q 2388 397 2633 464 
Q 2878 531 3122 666 
L 3122 134 
Q 2881 22 2623 -34 
Q 2366 -91 2075 -91 
Q 1284 -91 818 406 
Q 353 903 353 1747 
Q 353 2603 823 3093 
Q 1294 3584 2113 3584 
Q 2378 3584 2631 3529 
Q 2884 3475 3122 3366 
z
" id="DejaVuSans-63" transform="scale(0.015625)"/>
       <path d="M 3513 2113 
L 3513 0 
L 2938 0 
L 2938 2094 
Q 2938 2591 2744 2837 
Q 2550 3084 2163 3084 
Q 1697 3084 1428 2787 
Q 1159 2491 1159 1978 
L 1159 0 
L 581 0 
L 581 4863 
L 1159 4863 
L 1159 2956 
Q 1366 3272 1645 3428 
Q 1925 3584 2291 3584 
Q 2894 3584 3203 3211 
Q 3513 2838 3513 2113 
z
" id="DejaVuSans-68" transform="scale(0.015625)"/>
      </defs>
      <use xlink:href="#DejaVuSans-45"/>
      <use x="63.183594" xlink:href="#DejaVuSans-70"/>
      <use x="126.660156" xlink:href="#DejaVuSans-6f"/>
      <use x="187.841797" xlink:href="#DejaVuSans-63"/>
      <use x="242.822266" xlink:href="#DejaVuSans-68"/>
     </g>
    </g>
   </g>
   <g id="matplotlib.axis_2">
    <g id="ytick_1">
     <g id="line2d_10">
      <defs>
       <path d="M 0 0 
L -3.5 0 
" id="mcf44394ff6" style="stroke:#000000;stroke-width:0.8;"/>
      </defs>
      <g>
       <use style="stroke:#000000;stroke-width:0.8;" x="57.6" xlink:href="#mcf44394ff6" y="302.895017"/>
      </g>
     </g>
     <g id="text_11">
      <!-- −1200 -->
      <g transform="translate(16.770313 306.694236)scale(0.1 -0.1)">
       <defs>
        <path d="M 678 2272 
L 4684 2272 
L 4684 1741 
L 678 1741 
L 678 2272 
z
" id="DejaVuSans-2212" transform="scale(0.015625)"/>
       </defs>
       <use xlink:href="#DejaVuSans-2212"/>
       <use x="83.789062" xlink:href="#DejaVuSans-31"/>
       <use x="147.412109" xlink:href="#DejaVuSans-32"/>
       <use x="211.035156" xlink:href="#DejaVuSans-30"/>
       <use x="274.658203" xlink:href="#DejaVuSans-30"/>
      </g>
     </g>
    </g>
    <g id="ytick_2">
     <g id="line2d_11">
      <g>
       <use style="stroke:#000000;stroke-width:0.8;" x="57.6" xlink:href="#mcf44394ff6" y="258.768727"/>
      </g>
     </g>
     <g id="text_12">
      <!-- −1000 -->
      <g transform="translate(16.770313 262.567946)scale(0.1 -0.1)">
       <use xlink:href="#DejaVuSans-2212"/>
       <use x="83.789062" xlink:href="#DejaVuSans-31"/>
       <use x="147.412109" xlink:href="#DejaVuSans-30"/>
       <use x="211.035156" xlink:href="#DejaVuSans-30"/>
       <use x="274.658203" xlink:href="#DejaVuSans-30"/>
      </g>
     </g>
    </g>
    <g id="ytick_3">
     <g id="line2d_12">
      <g>
       <use style="stroke:#000000;stroke-width:0.8;" x="57.6" xlink:href="#mcf44394ff6" y="214.642437"/>
      </g>
     </g>
     <g id="text_13">
      <!-- −800 -->
      <g transform="translate(23.132812 218.441656)scale(0.1 -0.1)">
       <defs>
        <path d="M 2034 2216 
Q 1584 2216 1326 1975 
Q 1069 1734 1069 1313 
Q 1069 891 1326 650 
Q 1584 409 2034 409 
Q 2484 409 2743 651 
Q 3003 894 3003 1313 
Q 3003 1734 2745 1975 
Q 2488 2216 2034 2216 
z
M 1403 2484 
Q 997 2584 770 2862 
Q 544 3141 544 3541 
Q 544 4100 942 4425 
Q 1341 4750 2034 4750 
Q 2731 4750 3128 4425 
Q 3525 4100 3525 3541 
Q 3525 3141 3298 2862 
Q 3072 2584 2669 2484 
Q 3125 2378 3379 2068 
Q 3634 1759 3634 1313 
Q 3634 634 3220 271 
Q 2806 -91 2034 -91 
Q 1263 -91 848 271 
Q 434 634 434 1313 
Q 434 1759 690 2068 
Q 947 2378 1403 2484 
z
M 1172 3481 
Q 1172 3119 1398 2916 
Q 1625 2713 2034 2713 
Q 2441 2713 2670 2916 
Q 2900 3119 2900 3481 
Q 2900 3844 2670 4047 
Q 2441 4250 2034 4250 
Q 1625 4250 1398 4047 
Q 1172 3844 1172 3481 
z
" id="DejaVuSans-38" transform="scale(0.015625)"/>
       </defs>
       <use xlink:href="#DejaVuSans-2212"/>
       <use x="83.789062" xlink:href="#DejaVuSans-38"/>
       <use x="147.412109" xlink:href="#DejaVuSans-30"/>
       <use x="211.035156" xlink:href="#DejaVuSans-30"/>
      </g>
     </g>
    </g>
    <g id="ytick_4">
     <g id="line2d_13">
      <g>
       <use style="stroke:#000000;stroke-width:0.8;" x="57.6" xlink:href="#mcf44394ff6" y="170.516147"/>
      </g>
     </g>
     <g id="text_14">
      <!-- −600 -->
      <g transform="translate(23.132812 174.315365)scale(0.1 -0.1)">
       <defs>
        <path d="M 2113 2584 
Q 1688 2584 1439 2293 
Q 1191 2003 1191 1497 
Q 1191 994 1439 701 
Q 1688 409 2113 409 
Q 2538 409 2786 701 
Q 3034 994 3034 1497 
Q 3034 2003 2786 2293 
Q 2538 2584 2113 2584 
z
M 3366 4563 
L 3366 3988 
Q 3128 4100 2886 4159 
Q 2644 4219 2406 4219 
Q 1781 4219 1451 3797 
Q 1122 3375 1075 2522 
Q 1259 2794 1537 2939 
Q 1816 3084 2150 3084 
Q 2853 3084 3261 2657 
Q 3669 2231 3669 1497 
Q 3669 778 3244 343 
Q 2819 -91 2113 -91 
Q 1303 -91 875 529 
Q 447 1150 447 2328 
Q 447 3434 972 4092 
Q 1497 4750 2381 4750 
Q 2619 4750 2861 4703 
Q 3103 4656 3366 4563 
z
" id="DejaVuSans-36" transform="scale(0.015625)"/>
       </defs>
       <use xlink:href="#DejaVuSans-2212"/>
       <use x="83.789062" xlink:href="#DejaVuSans-36"/>
       <use x="147.412109" xlink:href="#DejaVuSans-30"/>
       <use x="211.035156" xlink:href="#DejaVuSans-30"/>
      </g>
     </g>
    </g>
    <g id="ytick_5">
     <g id="line2d_14">
      <g>
       <use style="stroke:#000000;stroke-width:0.8;" x="57.6" xlink:href="#mcf44394ff6" y="126.389856"/>
      </g>
     </g>
     <g id="text_15">
      <!-- −400 -->
      <g transform="translate(23.132812 130.189075)scale(0.1 -0.1)">
       <use xlink:href="#DejaVuSans-2212"/>
       <use x="83.789062" xlink:href="#DejaVuSans-34"/>
       <use x="147.412109" xlink:href="#DejaVuSans-30"/>
       <use x="211.035156" xlink:href="#DejaVuSans-30"/>
      </g>
     </g>
    </g>
    <g id="ytick_6">
     <g id="line2d_15">
      <g>
       <use style="stroke:#000000;stroke-width:0.8;" x="57.6" xlink:href="#mcf44394ff6" y="82.263566"/>
      </g>
     </g>
     <g id="text_16">
      <!-- −200 -->
      <g transform="translate(23.132812 86.062785)scale(0.1 -0.1)">
       <use xlink:href="#DejaVuSans-2212"/>
       <use x="83.789062" xlink:href="#DejaVuSans-32"/>
       <use x="147.412109" xlink:href="#DejaVuSans-30"/>
       <use x="211.035156" xlink:href="#DejaVuSans-30"/>
      </g>
     </g>
    </g>
    <g id="text_17">
     <!-- Loss -->
     <g transform="translate(9.650781 190.978781)rotate(-90)scale(0.15 -0.15)">
      <defs>
       <path d="M 628 4666 
L 1259 4666 
L 1259 531 
L 3531 531 
L 3531 0 
L 628 0 
L 628 4666 
z
" id="DejaVuSans-4c" transform="scale(0.015625)"/>
       <path d="M 2834 3397 
L 2834 2853 
Q 2591 2978 2328 3040 
Q 2066 3103 1784 3103 
Q 1356 3103 1142 2972 
Q 928 2841 928 2578 
Q 928 2378 1081 2264 
Q 1234 2150 1697 2047 
L 1894 2003 
Q 2506 1872 2764 1633 
Q 3022 1394 3022 966 
Q 3022 478 2636 193 
Q 2250 -91 1575 -91 
Q 1294 -91 989 -36 
Q 684 19 347 128 
L 347 722 
Q 666 556 975 473 
Q 1284 391 1588 391 
Q 1994 391 2212 530 
Q 2431 669 2431 922 
Q 2431 1156 2273 1281 
Q 2116 1406 1581 1522 
L 1381 1569 
Q 847 1681 609 1914 
Q 372 2147 372 2553 
Q 372 3047 722 3315 
Q 1072 3584 1716 3584 
Q 2034 3584 2315 3537 
Q 2597 3491 2834 3397 
z
" id="DejaVuSans-73" transform="scale(0.015625)"/>
      </defs>
      <use xlink:href="#DejaVuSans-4c"/>
      <use x="53.962891" xlink:href="#DejaVuSans-6f"/>
      <use x="115.144531" xlink:href="#DejaVuSans-73"/>
      <use x="167.244141" xlink:href="#DejaVuSans-73"/>
     </g>
    </g>
   </g>
   <g id="line2d_16">
    <path clip-path="url(#p3205f16fd4)" d="M 73.832727 74.079533 
L 74.646398 116.700762 
L 75.460068 132.126404 
L 76.273739 139.505517 
L 77.087409 159.818811 
L 77.90108 153.157931 
L 78.714751 180.506969 
L 79.528421 173.407604 
L 80.342092 172.072722 
L 81.155762 187.748312 
L 81.969433 191.193001 
L 82.783103 196.12495 
L 83.596774 203.456937 
L 84.410444 199.82413 
L 85.224115 194.267167 
L 86.037785 217.36 
L 86.851456 225.979109 
L 87.665126 197.311795 
L 88.478797 219.490912 
L 89.292468 210.085526 
L 90.106138 229.89384 
L 90.919809 215.462449 
L 91.733479 225.719806 
L 92.54715 224.841058 
L 93.36082 229.024898 
L 94.174491 221.054089 
L 94.988161 231.536699 
L 95.801832 229.144438 
L 96.615502 236.281592 
L 97.429173 229.844323 
L 98.242843 231.98989 
L 99.056514 235.120365 
L 99.870185 229.345454 
L 100.683855 245.423102 
L 101.497526 230.042332 
L 102.311196 237.778381 
L 103.124867 223.172106 
L 103.938537 238.878903 
L 104.752208 235.228715 
L 105.565878 244.850984 
L 106.379549 237.007041 
L 107.193219 237.011612 
L 108.00689 242.206128 
L 108.82056 235.870402 
L 109.634231 238.555177 
L 110.447902 240.62513 
L 111.261572 226.061723 
L 112.075243 239.419809 
L 112.888913 234.893866 
L 113.702584 255.455919 
L 114.516254 244.472406 
L 115.329925 251.543032 
L 116.143595 256.481536 
L 116.957266 252.470527 
L 117.770936 242.712312 
L 118.584607 238.280553 
L 119.398278 238.06545 
L 120.211948 241.141879 
L 121.025619 242.699096 
L 121.839289 245.153027 
L 122.65296 240.68894 
L 123.46663 247.935928 
L 124.280301 240.010565 
L 125.093971 239.85055 
L 125.907642 248.221917 
L 126.721312 235.868706 
L 129.162324 248.914718 
L 129.975995 249.99801 
L 130.789665 255.59958 
L 131.603336 252.804742 
L 132.417006 250.662534 
L 133.230677 241.640093 
L 134.044347 250.307234 
L 134.858018 242.210366 
L 135.671688 258.285143 
L 136.485359 246.288537 
L 137.299029 232.435061 
L 138.1127 246.691385 
L 138.92637 250.963535 
L 139.740041 243.083144 
L 140.553712 256.348759 
L 141.367382 245.938801 
L 142.181053 256.14031 
L 142.994723 245.949684 
L 143.808394 255.359268 
L 144.622064 240.21882 
L 145.435735 243.002466 
L 146.249405 268.132498 
L 147.063076 260.598183 
L 147.876746 250.49656 
L 148.690417 255.245317 
L 149.504087 252.019624 
L 150.317758 255.539192 
L 151.131429 247.137071 
L 151.945099 259.263055 
L 152.75877 238.977466 
L 153.57244 254.723005 
L 154.386111 260.646844 
L 155.199781 271.828 
L 156.827122 243.180847 
L 157.640793 252.444043 
L 158.454463 257.327871 
L 159.268134 252.026483 
L 160.081805 250.992204 
L 160.895475 251.215841 
L 161.709146 253.013349 
L 162.522816 253.222898 
L 163.336487 258.917334 
L 164.150157 265.462903 
L 164.963828 260.571123 
L 165.777498 243.529187 
L 166.591169 265.869421 
L 167.404839 257.449797 
L 168.21851 258.75693 
L 169.03218 252.015257 
L 169.845851 242.615879 
L 170.659522 253.757988 
L 171.473192 258.181573 
L 173.100533 250.574559 
L 173.914204 256.6143 
L 174.727874 258.64939 
L 175.541545 243.975356 
L 176.355215 251.123166 
L 177.982556 254.51572 
L 178.796227 262.824566 
L 179.609897 256.99653 
L 180.423568 262.915819 
L 181.237239 250.197211 
L 182.050909 261.014364 
L 182.86458 268.89812 
L 183.67825 252.287679 
L 184.491921 267.433426 
L 185.305591 248.527388 
L 186.119262 260.849342 
L 186.932932 262.662412 
L 187.746603 262.489875 
L 189.373944 247.786803 
L 190.187614 270.335661 
L 191.001285 262.947069 
L 191.814956 259.534597 
L 192.628626 265.735489 
L 193.442297 275.947193 
L 194.255967 257.950247 
L 195.069638 264.121588 
L 195.883308 268.649777 
L 196.696979 249.814207 
L 197.510649 247.75958 
L 198.32432 255.486705 
L 199.13799 267.795158 
L 199.951661 259.247179 
L 200.765332 269.542243 
L 201.579002 268.445649 
L 202.392673 250.087821 
L 203.206343 255.986499 
L 204.020014 256.043029 
L 204.833684 266.188065 
L 205.647355 259.195497 
L 206.461025 261.709802 
L 207.274696 269.377138 
L 208.088366 258.850875 
L 208.902037 269.196115 
L 209.715707 264.471915 
L 210.529378 257.769411 
L 211.343049 266.913469 
L 212.156719 252.947245 
L 212.97039 269.065428 
L 213.78406 249.595383 
L 214.597731 269.55425 
L 215.411401 264.95288 
L 216.225072 271.629299 
L 217.038742 254.88467 
L 217.852413 274.08526 
L 218.666083 264.759713 
L 219.479754 267.712336 
L 220.293424 264.259302 
L 221.920766 253.884713 
L 222.734436 258.937139 
L 223.548107 267.147933 
L 224.361777 258.392403 
L 225.175448 263.29546 
L 225.989118 266.727709 
L 226.802789 262.578955 
L 227.616459 254.536256 
L 228.43013 261.937055 
L 229.2438 265.639865 
L 230.057471 260.391454 
L 230.871141 278.010327 
L 231.684812 264.340326 
L 232.498483 263.26595 
L 233.312153 282.855414 
L 234.125824 259.616069 
L 234.939494 268.16766 
L 235.753165 272.879981 
L 236.566835 267.747268 
L 237.380506 265.618101 
L 238.194176 262.344861 
L 239.007847 278.096462 
L 239.821517 279.11784 
L 241.448859 260.014482 
L 242.262529 258.230645 
L 243.0762 264.161941 
L 243.88987 274.18894 
L 244.703541 275.232027 
L 245.517211 263.16218 
L 247.144552 267.118401 
L 247.958223 256.295123 
L 248.771893 269.58774 
L 249.585564 279.546622 
L 250.399234 284.773112 
L 251.212905 266.115922 
L 252.026576 282.42547 
L 252.840246 264.837617 
L 253.653917 260.77368 
L 254.467587 267.875301 
L 255.281258 267.637246 
L 256.094928 276.390247 
L 256.908599 269.023073 
L 257.722269 267.645825 
L 258.53594 277.133193 
L 259.34961 274.112456 
L 260.163281 254.261875 
L 261.790622 280.473817 
L 262.604293 264.566228 
L 263.417963 265.41848 
L 264.231634 287.491289 
L 265.045304 279.894612 
L 265.858975 288.034508 
L 266.672645 276.013741 
L 267.486316 257.599714 
L 268.299986 264.236747 
L 269.113657 276.942632 
L 269.927327 280.529906 
L 270.740998 286.350673 
L 271.554668 272.840574 
L 272.368339 266.474477 
L 273.18201 265.038825 
L 273.99568 286.588127 
L 274.809351 275.203886 
L 275.623021 276.978432 
L 276.436692 272.344774 
L 277.250362 272.325662 
L 278.064033 272.933387 
L 278.877703 289.300599 
L 279.691374 255.701113 
L 280.505044 272.520375 
L 281.318715 282.725623 
L 282.946056 277.333377 
L 283.759727 267.707189 
L 284.573397 271.532311 
L 285.387068 276.905567 
L 286.200738 279.64234 
L 287.014409 283.028658 
L 287.828079 266.675395 
L 288.64175 276.143112 
L 289.45542 266.831148 
L 291.082761 285.318897 
L 291.896432 273.337158 
L 292.710103 284.053061 
L 293.523773 278.911286 
L 294.337444 274.509701 
L 295.151114 279.237341 
L 295.964785 278.486036 
L 296.778455 270.729376 
L 297.592126 264.727781 
L 298.405796 288.204007 
L 299.219467 283.453859 
L 300.033137 283.270513 
L 300.846808 277.480516 
L 301.660478 286.241816 
L 302.474149 267.709658 
L 303.28782 283.992027 
L 304.10149 285.901452 
L 304.915161 290.581243 
L 305.728831 282.181255 
L 306.542502 275.470398 
L 307.356172 273.030097 
L 308.169843 283.426801 
L 308.983513 287.606079 
L 310.610854 252.807037 
L 311.424525 288.282138 
L 312.238195 286.732495 
L 313.051866 271.701726 
L 313.865537 286.530628 
L 314.679207 263.694644 
L 315.492878 275.400136 
L 316.306548 283.613154 
L 317.120219 262.155255 
L 317.933889 279.933995 
L 318.74756 276.323312 
L 319.56123 285.286676 
L 320.374901 292.109444 
L 321.188571 278.702413 
L 322.002242 281.290439 
L 322.815913 278.806941 
L 323.629583 272.14638 
L 324.443254 286.042017 
L 325.256924 276.114655 
L 326.070595 285.545372 
L 327.697936 274.997785 
L 328.511606 283.758521 
L 329.325277 279.752597 
L 330.138947 286.488963 
L 330.952618 274.467085 
L 331.766288 280.605589 
L 332.579959 279.444804 
L 333.39363 281.628097 
L 334.2073 274.288648 
L 335.020971 294.658639 
L 335.834641 285.202527 
L 336.648312 280.330722 
L 337.461982 293.385258 
L 338.275653 293.395997 
L 341.530335 268.694617 
L 342.344005 280.782993 
L 343.157676 279.554884 
L 343.971347 280.845655 
L 344.785017 276.502359 
L 345.598688 287.342962 
L 346.412358 274.621503 
L 347.226029 269.476487 
L 348.039699 276.551163 
L 348.85337 272.101226 
L 349.66704 284.160157 
L 350.480711 291.7527 
L 351.294381 285.491191 
L 352.108052 263.015581 
L 352.921722 260.556138 
L 353.735393 287.700626 
L 354.549064 283.899935 
L 355.362734 262.268531 
L 356.176405 276.082333 
L 356.990075 273.576049 
L 357.803746 279.846308 
L 358.617416 287.553659 
L 359.431087 271.96448 
L 360.244757 285.910486 
L 361.058428 274.079399 
L 361.872098 280.348191 
L 362.685769 285.358775 
L 363.49944 280.971499 
L 364.31311 273.398786 
L 365.126781 293.434842 
L 365.940451 267.508506 
L 366.754122 268.985216 
L 367.567792 274.434985 
L 368.381463 282.520083 
L 369.195133 289.048851 
L 370.008804 278.593113 
L 370.822474 273.763123 
L 371.636145 275.935078 
L 372.449815 282.113963 
L 373.263486 265.210393 
L 374.077157 289.952398 
L 374.890827 282.377444 
L 375.704498 295.488 
L 376.518168 283.428663 
L 377.331839 287.175935 
L 378.145509 280.777232 
L 378.95918 289.886974 
L 379.77285 277.661454 
L 380.586521 270.05648 
L 381.400191 270.639626 
L 382.213862 289.89462 
L 383.027532 281.653711 
L 383.841203 278.284788 
L 384.654874 272.96224 
L 385.468544 279.308733 
L 386.282215 287.922409 
L 387.095885 286.408164 
L 388.723226 273.547324 
L 389.536897 268.433006 
L 390.350567 274.01765 
L 391.164238 288.111829 
L 391.977908 276.637162 
L 392.791579 272.591161 
L 393.605249 282.539913 
L 394.41892 281.645007 
L 395.232591 281.597291 
L 396.046261 273.669619 
L 396.859932 271.350589 
L 397.673602 289.024081 
L 398.487273 280.081337 
L 398.487273 280.081337 
" style="fill:none;stroke:#1f77b4;stroke-linecap:square;stroke-width:1.5;"/>
   </g>
   <g id="line2d_17">
    <path clip-path="url(#p3205f16fd4)" d="M 73.832727 114.35648 
L 74.646398 120.463368 
L 75.460068 66.193999 
L 76.273739 150.542676 
L 77.087409 53.568 
L 77.90108 175.476816 
L 78.714751 174.733796 
L 79.528421 190.054275 
L 80.342092 190.650948 
L 81.155762 209.074175 
L 81.969433 191.549588 
L 82.783103 191.905228 
L 83.596774 205.142888 
L 84.410444 146.652439 
L 85.224115 192.168833 
L 86.037785 205.454967 
L 86.851456 224.779871 
L 87.665126 219.999883 
L 88.478797 208.427621 
L 89.292468 217.018514 
L 90.106138 227.300595 
L 90.919809 224.529142 
L 91.733479 228.325054 
L 92.54715 228.899571 
L 93.36082 224.305598 
L 94.174491 126.650334 
L 94.988161 226.796827 
L 95.801832 229.351549 
L 96.615502 229.054527 
L 97.429173 221.702411 
L 98.242843 236.36582 
L 99.056514 231.463736 
L 99.870185 225.758972 
L 100.683855 222.417945 
L 101.497526 240.635306 
L 102.311196 236.790816 
L 103.124867 234.738505 
L 103.938537 234.289621 
L 104.752208 242.118793 
L 105.565878 231.396507 
L 106.379549 238.554622 
L 107.193219 247.922209 
L 108.00689 238.150394 
L 108.82056 249.763223 
L 109.634231 236.769389 
L 110.447902 244.123146 
L 111.261572 240.73766 
L 112.075243 238.533596 
L 112.888913 231.285085 
L 113.702584 247.508955 
L 114.516254 235.527846 
L 115.329925 240.1468 
L 116.143595 242.495847 
L 116.957266 233.832641 
L 117.770936 238.377057 
L 118.584607 245.429662 
L 119.398278 254.231466 
L 120.211948 251.429912 
L 121.025619 238.625588 
L 121.839289 238.46546 
L 122.65296 240.42385 
L 123.46663 247.58495 
L 124.280301 250.941747 
L 125.093971 237.716746 
L 125.907642 234.274 
L 126.721312 240.794774 
L 127.534983 244.217422 
L 128.348653 237.627659 
L 129.162324 244.844947 
L 129.975995 238.368404 
L 130.789665 236.973345 
L 131.603336 240.067917 
L 132.417006 238.968328 
L 133.230677 237.477619 
L 134.044347 249.261076 
L 134.858018 245.719712 
L 135.671688 244.590937 
L 136.485359 244.14236 
L 137.299029 246.622242 
L 138.1127 251.473547 
L 138.92637 251.732514 
L 139.740041 236.424983 
L 140.553712 248.916149 
L 141.367382 258.006684 
L 142.181053 239.932579 
L 142.994723 243.418368 
L 143.808394 245.544093 
L 144.622064 246.110987 
L 145.435735 248.809938 
L 146.249405 242.535607 
L 147.063076 255.420446 
L 147.876746 252.667747 
L 148.690417 251.843978 
L 149.504087 251.306924 
L 150.317758 245.369768 
L 151.131429 251.399874 
L 151.945099 249.220026 
L 152.75877 238.440069 
L 153.57244 247.096725 
L 154.386111 253.579065 
L 155.199781 250.082175 
L 156.013452 256.576376 
L 156.827122 241.563127 
L 157.640793 249.644586 
L 158.454463 237.627049 
L 159.268134 254.784213 
L 160.081805 237.657107 
L 160.895475 242.364749 
L 161.709146 251.679064 
L 162.522816 256.712285 
L 163.336487 251.823635 
L 164.150157 250.035977 
L 164.963828 256.685564 
L 165.777498 250.551105 
L 166.591169 254.607436 
L 167.404839 248.452898 
L 168.21851 251.013729 
L 169.03218 245.784694 
L 169.845851 255.743845 
L 170.659522 247.709599 
L 171.473192 251.591785 
L 172.286863 250.578699 
L 173.100533 248.298494 
L 173.914204 249.066915 
L 174.727874 247.006148 
L 175.541545 260.67651 
L 176.355215 252.29054 
L 177.168886 257.46686 
L 177.982556 259.010151 
L 178.796227 249.831933 
L 179.609897 254.651012 
L 180.423568 252.330559 
L 181.237239 254.784821 
L 182.050909 247.651377 
L 182.86458 265.038477 
L 183.67825 256.009984 
L 184.491921 264.569883 
L 185.305591 249.424387 
L 186.119262 264.314106 
L 186.932932 254.584879 
L 187.746603 256.979357 
L 188.560273 248.206442 
L 189.373944 265.556913 
L 190.187614 262.963083 
L 191.001285 247.74894 
L 191.814956 256.799246 
L 192.628626 255.95077 
L 193.442297 254.835711 
L 194.255967 260.211367 
L 195.069638 251.777832 
L 195.883308 255.959819 
L 196.696979 252.599445 
L 197.510649 248.351283 
L 198.32432 261.316597 
L 199.13799 254.594557 
L 199.951661 260.547236 
L 200.765332 259.728986 
L 201.579002 252.3612 
L 202.392673 249.461673 
L 203.206343 252.188853 
L 204.020014 251.843774 
L 204.833684 257.255824 
L 205.647355 247.809294 
L 206.461025 252.451817 
L 207.274696 258.853542 
L 208.088366 261.963999 
L 208.902037 271.445058 
L 209.715707 255.075175 
L 210.529378 257.537093 
L 211.343049 252.615017 
L 212.156719 253.436853 
L 212.97039 255.739468 
L 213.78406 263.298557 
L 214.597731 259.690536 
L 215.411401 240.288389 
L 217.038742 257.515297 
L 217.852413 262.813362 
L 218.666083 262.40797 
L 219.479754 261.509706 
L 220.293424 253.442464 
L 221.107095 254.244385 
L 221.920766 260.115275 
L 222.734436 259.598097 
L 223.548107 258.787904 
L 224.361777 255.395743 
L 225.175448 262.654855 
L 225.989118 268.432185 
L 226.802789 267.320985 
L 227.616459 250.742632 
L 228.43013 259.074133 
L 229.2438 261.871751 
L 230.057471 259.062109 
L 230.871141 263.583455 
L 232.498483 275.750958 
L 233.312153 267.906303 
L 234.125824 269.606232 
L 234.939494 256.669288 
L 235.753165 265.505392 
L 236.566835 266.570834 
L 237.380506 265.374795 
L 238.194176 260.725419 
L 239.007847 252.820329 
L 239.821517 278.374748 
L 240.635188 269.932555 
L 241.448859 259.992039 
L 242.262529 271.23167 
L 243.0762 264.191701 
L 243.88987 264.887963 
L 244.703541 263.558412 
L 245.517211 278.134375 
L 246.330882 266.683472 
L 247.144552 268.819422 
L 247.958223 255.895348 
L 248.771893 271.238163 
L 249.585564 264.143168 
L 250.399234 269.842657 
L 251.212905 273.380113 
L 252.026576 260.932456 
L 252.840246 267.744696 
L 253.653917 270.049457 
L 254.467587 258.094184 
L 255.281258 268.325982 
L 256.094928 275.840517 
L 256.908599 266.621623 
L 257.722269 242.269102 
L 258.53594 269.506893 
L 259.34961 258.196867 
L 260.163281 249.415206 
L 260.976951 264.930785 
L 261.790622 264.441293 
L 262.604293 266.928892 
L 263.417963 260.561131 
L 264.231634 274.438442 
L 265.045304 265.560954 
L 265.858975 271.23531 
L 266.672645 254.136508 
L 267.486316 273.259038 
L 268.299986 272.630703 
L 269.113657 273.090638 
L 269.927327 268.913564 
L 270.740998 275.444727 
L 271.554668 276.839338 
L 272.368339 260.32027 
L 273.18201 264.010377 
L 273.99568 283.332459 
L 274.809351 243.441545 
L 276.436692 276.777149 
L 277.250362 275.411362 
L 278.064033 282.333242 
L 278.877703 276.388554 
L 279.691374 276.19938 
L 280.505044 271.325399 
L 281.318715 272.822949 
L 282.132386 271.541334 
L 282.946056 270.525423 
L 283.759727 275.843678 
L 284.573397 262.985906 
L 285.387068 264.209117 
L 286.200738 269.405901 
L 287.014409 269.050794 
L 287.828079 259.735988 
L 288.64175 267.866197 
L 289.45542 264.87022 
L 290.269091 272.997016 
L 291.082761 276.893271 
L 291.896432 275.374663 
L 292.710103 277.229855 
L 293.523773 278.798685 
L 294.337444 274.422216 
L 295.151114 277.152146 
L 295.964785 278.419815 
L 296.778455 257.091995 
L 297.592126 270.257838 
L 298.405796 268.966163 
L 299.219467 285.439519 
L 300.033137 290.888591 
L 300.846808 279.37469 
L 301.660478 275.757971 
L 302.474149 265.83299 
L 303.28782 275.846466 
L 304.10149 268.302166 
L 304.915161 269.360018 
L 305.728831 276.050226 
L 306.542502 267.977797 
L 307.356172 279.650556 
L 308.169843 268.533471 
L 308.983513 277.18969 
L 309.797184 275.262931 
L 310.610854 252.616802 
L 311.424525 271.307769 
L 312.238195 271.220134 
L 313.051866 261.025749 
L 313.865537 274.291407 
L 315.492878 266.962423 
L 316.306548 262.932568 
L 317.120219 273.39423 
L 317.933889 276.052994 
L 318.74756 278.041347 
L 319.56123 277.955788 
L 320.374901 275.302901 
L 321.188571 275.01624 
L 322.002242 273.146823 
L 322.815913 280.349043 
L 323.629583 269.192545 
L 324.443254 261.999519 
L 325.256924 273.803018 
L 326.070595 282.623623 
L 326.884265 276.291723 
L 327.697936 276.203815 
L 328.511606 252.029299 
L 329.325277 271.949809 
L 330.138947 281.556711 
L 330.952618 263.364831 
L 331.766288 274.887271 
L 332.579959 270.619175 
L 333.39363 271.995223 
L 334.2073 261.18643 
L 335.834641 282.478581 
L 336.648312 278.221107 
L 337.461982 267.272894 
L 338.275653 274.237752 
L 339.089323 268.507731 
L 339.902994 281.788465 
L 340.716664 263.679054 
L 341.530335 275.875023 
L 342.344005 266.368784 
L 343.157676 274.333877 
L 343.971347 276.751969 
L 344.785017 267.034822 
L 345.598688 277.855733 
L 346.412358 267.268265 
L 347.226029 282.573272 
L 348.039699 267.672678 
L 348.85337 275.614301 
L 349.66704 270.21836 
L 350.480711 279.032116 
L 351.294381 278.258749 
L 352.108052 283.766762 
L 352.921722 277.764219 
L 353.735393 267.968309 
L 354.549064 279.806268 
L 355.362734 254.849482 
L 356.176405 272.562527 
L 356.990075 286.351447 
L 357.803746 264.704577 
L 358.617416 276.234236 
L 359.431087 279.825329 
L 360.244757 272.46741 
L 361.058428 257.532161 
L 361.872098 269.959914 
L 362.685769 274.185645 
L 363.49944 281.075314 
L 364.31311 280.354562 
L 365.126781 267.241463 
L 365.940451 267.225431 
L 366.754122 275.978729 
L 367.567792 265.085371 
L 368.381463 269.593 
L 369.195133 272.948092 
L 370.008804 274.970926 
L 370.822474 268.636303 
L 371.636145 277.428687 
L 372.449815 272.840051 
L 373.263486 280.283059 
L 374.077157 267.96592 
L 374.890827 270.431001 
L 375.704498 269.7961 
L 376.518168 268.824049 
L 377.331839 285.307674 
L 378.145509 284.386793 
L 378.95918 262.512233 
L 379.77285 274.002398 
L 380.586521 272.052395 
L 381.400191 270.812248 
L 382.213862 267.698627 
L 383.027532 272.38443 
L 383.841203 262.10861 
L 384.654874 279.171675 
L 385.468544 284.26922 
L 386.282215 282.848669 
L 387.909556 270.603385 
L 388.723226 272.005581 
L 389.536897 139.88851 
L 390.350567 276.563089 
L 391.164238 284.098827 
L 391.977908 278.028962 
L 392.791579 281.947473 
L 393.605249 277.540868 
L 394.41892 270.579306 
L 395.232591 277.310487 
L 396.046261 265.807843 
L 396.859932 273.453769 
L 397.673602 265.425426 
L 398.487273 276.399087 
L 398.487273 276.399087 
" style="fill:none;stroke:#ff7f0e;stroke-linecap:square;stroke-width:1.5;"/>
   </g>
   <g id="patch_3">
    <path d="M 57.6 307.584 
L 57.6 41.472 
" style="fill:none;stroke:#000000;stroke-linecap:square;stroke-linejoin:miter;stroke-width:0.8;"/>
   </g>
   <g id="patch_4">
    <path d="M 414.72 307.584 
L 414.72 41.472 
" style="fill:none;stroke:#000000;stroke-linecap:square;stroke-linejoin:miter;stroke-width:0.8;"/>
   </g>
   <g id="patch_5">
    <path d="M 57.6 307.584 
L 414.72 307.584 
" style="fill:none;stroke:#000000;stroke-linecap:square;stroke-linejoin:miter;stroke-width:0.8;"/>
   </g>
   <g id="patch_6">
    <path d="M 57.6 41.472 
L 414.72 41.472 
" style="fill:none;stroke:#000000;stroke-linecap:square;stroke-linejoin:miter;stroke-width:0.8;"/>
   </g>
   <g id="legend_1">
    <g id="patch_7">
     <path d="M 303.845 78.82825 
L 407.72 78.82825 
Q 409.72 78.82825 409.72 76.82825 
L 409.72 48.472 
Q 409.72 46.472 407.72 46.472 
L 303.845 46.472 
Q 301.845 46.472 301.845 48.472 
L 301.845 76.82825 
Q 301.845 78.82825 303.845 78.82825 
z
" style="fill:#ffffff;opacity:0.8;stroke:#cccccc;stroke-linejoin:miter;"/>
    </g>
    <g id="line2d_18">
     <path d="M 305.845 54.570437 
L 325.845 54.570437 
" style="fill:none;stroke:#1f77b4;stroke-linecap:square;stroke-width:1.5;"/>
    </g>
    <g id="line2d_19"/>
    <g id="text_18">
     <!-- Train loss -->
     <g transform="translate(333.845 58.070437)scale(0.1 -0.1)">
      <defs>
       <path d="M -19 4666 
L 3928 4666 
L 3928 4134 
L 2272 4134 
L 2272 0 
L 1638 0 
L 1638 4134 
L -19 4134 
L -19 4666 
z
" id="DejaVuSans-54" transform="scale(0.015625)"/>
       <path d="M 2631 2963 
Q 2534 3019 2420 3045 
Q 2306 3072 2169 3072 
Q 1681 3072 1420 2755 
Q 1159 2438 1159 1844 
L 1159 0 
L 581 0 
L 581 3500 
L 1159 3500 
L 1159 2956 
Q 1341 3275 1631 3429 
Q 1922 3584 2338 3584 
Q 2397 3584 2469 3576 
Q 2541 3569 2628 3553 
L 2631 2963 
z
" id="DejaVuSans-72" transform="scale(0.015625)"/>
       <path d="M 2194 1759 
Q 1497 1759 1228 1600 
Q 959 1441 959 1056 
Q 959 750 1161 570 
Q 1363 391 1709 391 
Q 2188 391 2477 730 
Q 2766 1069 2766 1631 
L 2766 1759 
L 2194 1759 
z
M 3341 1997 
L 3341 0 
L 2766 0 
L 2766 531 
Q 2569 213 2275 61 
Q 1981 -91 1556 -91 
Q 1019 -91 701 211 
Q 384 513 384 1019 
Q 384 1609 779 1909 
Q 1175 2209 1959 2209 
L 2766 2209 
L 2766 2266 
Q 2766 2663 2505 2880 
Q 2244 3097 1772 3097 
Q 1472 3097 1187 3025 
Q 903 2953 641 2809 
L 641 3341 
Q 956 3463 1253 3523 
Q 1550 3584 1831 3584 
Q 2591 3584 2966 3190 
Q 3341 2797 3341 1997 
z
" id="DejaVuSans-61" transform="scale(0.015625)"/>
       <path d="M 603 3500 
L 1178 3500 
L 1178 0 
L 603 0 
L 603 3500 
z
M 603 4863 
L 1178 4863 
L 1178 4134 
L 603 4134 
L 603 4863 
z
" id="DejaVuSans-69" transform="scale(0.015625)"/>
       <path d="M 3513 2113 
L 3513 0 
L 2938 0 
L 2938 2094 
Q 2938 2591 2744 2837 
Q 2550 3084 2163 3084 
Q 1697 3084 1428 2787 
Q 1159 2491 1159 1978 
L 1159 0 
L 581 0 
L 581 3500 
L 1159 3500 
L 1159 2956 
Q 1366 3272 1645 3428 
Q 1925 3584 2291 3584 
Q 2894 3584 3203 3211 
Q 3513 2838 3513 2113 
z
" id="DejaVuSans-6e" transform="scale(0.015625)"/>
       <path id="DejaVuSans-20" transform="scale(0.015625)"/>
       <path d="M 603 4863 
L 1178 4863 
L 1178 0 
L 603 0 
L 603 4863 
z
" id="DejaVuSans-6c" transform="scale(0.015625)"/>
      </defs>
      <use xlink:href="#DejaVuSans-54"/>
      <use x="46.333984" xlink:href="#DejaVuSans-72"/>
      <use x="87.447266" xlink:href="#DejaVuSans-61"/>
      <use x="148.726562" xlink:href="#DejaVuSans-69"/>
      <use x="176.509766" xlink:href="#DejaVuSans-6e"/>
      <use x="239.888672" xlink:href="#DejaVuSans-20"/>
      <use x="271.675781" xlink:href="#DejaVuSans-6c"/>
      <use x="299.458984" xlink:href="#DejaVuSans-6f"/>
      <use x="360.640625" xlink:href="#DejaVuSans-73"/>
      <use x="412.740234" xlink:href="#DejaVuSans-73"/>
     </g>
    </g>
    <g id="line2d_20">
     <path d="M 305.845 69.248562 
L 325.845 69.248562 
" style="fill:none;stroke:#ff7f0e;stroke-linecap:square;stroke-width:1.5;"/>
    </g>
    <g id="line2d_21"/>
    <g id="text_19">
     <!-- Validation loss -->
     <g transform="translate(333.845 72.748562)scale(0.1 -0.1)">
      <defs>
       <path d="M 1831 0 
L 50 4666 
L 709 4666 
L 2188 738 
L 3669 4666 
L 4325 4666 
L 2547 0 
L 1831 0 
z
" id="DejaVuSans-56" transform="scale(0.015625)"/>
       <path d="M 2906 2969 
L 2906 4863 
L 3481 4863 
L 3481 0 
L 2906 0 
L 2906 525 
Q 2725 213 2448 61 
Q 2172 -91 1784 -91 
Q 1150 -91 751 415 
Q 353 922 353 1747 
Q 353 2572 751 3078 
Q 1150 3584 1784 3584 
Q 2172 3584 2448 3432 
Q 2725 3281 2906 2969 
z
M 947 1747 
Q 947 1113 1208 752 
Q 1469 391 1925 391 
Q 2381 391 2643 752 
Q 2906 1113 2906 1747 
Q 2906 2381 2643 2742 
Q 2381 3103 1925 3103 
Q 1469 3103 1208 2742 
Q 947 2381 947 1747 
z
" id="DejaVuSans-64" transform="scale(0.015625)"/>
       <path d="M 1172 4494 
L 1172 3500 
L 2356 3500 
L 2356 3053 
L 1172 3053 
L 1172 1153 
Q 1172 725 1289 603 
Q 1406 481 1766 481 
L 2356 481 
L 2356 0 
L 1766 0 
Q 1100 0 847 248 
Q 594 497 594 1153 
L 594 3053 
L 172 3053 
L 172 3500 
L 594 3500 
L 594 4494 
L 1172 4494 
z
" id="DejaVuSans-74" transform="scale(0.015625)"/>
      </defs>
      <use xlink:href="#DejaVuSans-56"/>
      <use x="60.658203" xlink:href="#DejaVuSans-61"/>
      <use x="121.9375" xlink:href="#DejaVuSans-6c"/>
      <use x="149.720703" xlink:href="#DejaVuSans-69"/>
      <use x="177.503906" xlink:href="#DejaVuSans-64"/>
      <use x="240.980469" xlink:href="#DejaVuSans-61"/>
      <use x="302.259766" xlink:href="#DejaVuSans-74"/>
      <use x="341.46875" xlink:href="#DejaVuSans-69"/>
      <use x="369.251953" xlink:href="#DejaVuSans-6f"/>
      <use x="430.433594" xlink:href="#DejaVuSans-6e"/>
      <use x="493.8125" xlink:href="#DejaVuSans-20"/>
      <use x="525.599609" xlink:href="#DejaVuSans-6c"/>
      <use x="553.382812" xlink:href="#DejaVuSans-6f"/>
      <use x="614.564453" xlink:href="#DejaVuSans-73"/>
      <use x="666.664062" xlink:href="#DejaVuSans-73"/>
     </g>
    </g>
   </g>
  </g>
 </g>
 <defs>
  <clipPath id="p3205f16fd4">
   <rect height="266.112" width="357.12" x="57.6" y="41.472"/>
  </clipPath>
 </defs>
</svg>
