<?xml version="1.0" encoding="utf-8" standalone="no"?>
<!DOCTYPE svg PUBLIC "-//W3C//DTD SVG 1.1//EN"
  "http://www.w3.org/Graphics/SVG/1.1/DTD/svg11.dtd">
<svg height="345.6pt" version="1.1" viewBox="0 0 460.8 345.6" width="460.8pt" xmlns="http://www.w3.org/2000/svg" xmlns:xlink="http://www.w3.org/1999/xlink">
 <metadata>
  <rdf:RDF xmlns:cc="http://creativecommons.org/ns#" xmlns:dc="http://purl.org/dc/elements/1.1/" xmlns:rdf="http://www.w3.org/1999/02/22-rdf-syntax-ns#">
   <cc:Work>
    <dc:type rdf:resource="http://purl.org/dc/dcmitype/StillImage"/>
    <dc:date>2021-07-14T20:57:33.440477</dc:date>
    <dc:format>image/svg+xml</dc:format>
    <dc:creator>
     <cc:Agent>
      <dc:title>Matplotlib v3.4.2, https://matplotlib.org/</dc:title>
     </cc:Agent>
    </dc:creator>
   </cc:Work>
  </rdf:RDF>
 </metadata>
 <defs>
  <style type="text/css">*{stroke-linecap:butt;stroke-linejoin:round;}</style>
 </defs>
 <g id="figure_1">
  <g id="patch_1">
   <path d="M 0 345.6 
L 460.8 345.6 
L 460.8 0 
L 0 0 
z
" style="fill:#ffffff;"/>
  </g>
  <g id="axes_1">
   <g id="patch_2">
    <path d="M 57.6 307.584 
L 414.72 307.584 
L 414.72 41.472 
L 57.6 41.472 
z
" style="fill:#ffffff;"/>
   </g>
   <g id="matplotlib.axis_1">
    <g id="xtick_1">
     <g id="line2d_1">
      <defs>
       <path d="M 0 0 
L 0 3.5 
" id="m5294c9c6f4" style="stroke:#000000;stroke-width:0.8;"/>
      </defs>
      <g>
       <use style="stroke:#000000;stroke-width:0.8;" x="73.019057" xlink:href="#m5294c9c6f4" y="307.584"/>
      </g>
     </g>
     <g id="text_1">
      <!-- 0 -->
      <g transform="translate(69.837807 322.182437)scale(0.1 -0.1)">
       <defs>
        <path d="M 2034 4250 
Q 1547 4250 1301 3770 
Q 1056 3291 1056 2328 
Q 1056 1369 1301 889 
Q 1547 409 2034 409 
Q 2525 409 2770 889 
Q 3016 1369 3016 2328 
Q 3016 3291 2770 3770 
Q 2525 4250 2034 4250 
z
M 2034 4750 
Q 2819 4750 3233 4129 
Q 3647 3509 3647 2328 
Q 3647 1150 3233 529 
Q 2819 -91 2034 -91 
Q 1250 -91 836 529 
Q 422 1150 422 2328 
Q 422 3509 836 4129 
Q 1250 4750 2034 4750 
z
" id="DejaVuSans-30" transform="scale(0.015625)"/>
       </defs>
       <use xlink:href="#DejaVuSans-30"/>
      </g>
     </g>
    </g>
    <g id="xtick_2">
     <g id="line2d_2">
      <g>
       <use style="stroke:#000000;stroke-width:0.8;" x="113.702584" xlink:href="#m5294c9c6f4" y="307.584"/>
      </g>
     </g>
     <g id="text_2">
      <!-- 50 -->
      <g transform="translate(107.340084 322.182437)scale(0.1 -0.1)">
       <defs>
        <path d="M 691 4666 
L 3169 4666 
L 3169 4134 
L 1269 4134 
L 1269 2991 
Q 1406 3038 1543 3061 
Q 1681 3084 1819 3084 
Q 2600 3084 3056 2656 
Q 3513 2228 3513 1497 
Q 3513 744 3044 326 
Q 2575 -91 1722 -91 
Q 1428 -91 1123 -41 
Q 819 9 494 109 
L 494 744 
Q 775 591 1075 516 
Q 1375 441 1709 441 
Q 2250 441 2565 725 
Q 2881 1009 2881 1497 
Q 2881 1984 2565 2268 
Q 2250 2553 1709 2553 
Q 1456 2553 1204 2497 
Q 953 2441 691 2322 
L 691 4666 
z
" id="DejaVuSans-35" transform="scale(0.015625)"/>
       </defs>
       <use xlink:href="#DejaVuSans-35"/>
       <use x="63.623047" xlink:href="#DejaVuSans-30"/>
      </g>
     </g>
    </g>
    <g id="xtick_3">
     <g id="line2d_3">
      <g>
       <use style="stroke:#000000;stroke-width:0.8;" x="154.386111" xlink:href="#m5294c9c6f4" y="307.584"/>
      </g>
     </g>
     <g id="text_3">
      <!-- 100 -->
      <g transform="translate(144.842361 322.182437)scale(0.1 -0.1)">
       <defs>
        <path d="M 794 531 
L 1825 531 
L 1825 4091 
L 703 3866 
L 703 4441 
L 1819 4666 
L 2450 4666 
L 2450 531 
L 3481 531 
L 3481 0 
L 794 0 
L 794 531 
z
" id="DejaVuSans-31" transform="scale(0.015625)"/>
       </defs>
       <use xlink:href="#DejaVuSans-31"/>
       <use x="63.623047" xlink:href="#DejaVuSans-30"/>
       <use x="127.246094" xlink:href="#DejaVuSans-30"/>
      </g>
     </g>
    </g>
    <g id="xtick_4">
     <g id="line2d_4">
      <g>
       <use style="stroke:#000000;stroke-width:0.8;" x="195.069638" xlink:href="#m5294c9c6f4" y="307.584"/>
      </g>
     </g>
     <g id="text_4">
      <!-- 150 -->
      <g transform="translate(185.525888 322.182437)scale(0.1 -0.1)">
       <use xlink:href="#DejaVuSans-31"/>
       <use x="63.623047" xlink:href="#DejaVuSans-35"/>
       <use x="127.246094" xlink:href="#DejaVuSans-30"/>
      </g>
     </g>
    </g>
    <g id="xtick_5">
     <g id="line2d_5">
      <g>
       <use style="stroke:#000000;stroke-width:0.8;" x="235.753165" xlink:href="#m5294c9c6f4" y="307.584"/>
      </g>
     </g>
     <g id="text_5">
      <!-- 200 -->
      <g transform="translate(226.209415 322.182437)scale(0.1 -0.1)">
       <defs>
        <path d="M 1228 531 
L 3431 531 
L 3431 0 
L 469 0 
L 469 531 
Q 828 903 1448 1529 
Q 2069 2156 2228 2338 
Q 2531 2678 2651 2914 
Q 2772 3150 2772 3378 
Q 2772 3750 2511 3984 
Q 2250 4219 1831 4219 
Q 1534 4219 1204 4116 
Q 875 4013 500 3803 
L 500 4441 
Q 881 4594 1212 4672 
Q 1544 4750 1819 4750 
Q 2544 4750 2975 4387 
Q 3406 4025 3406 3419 
Q 3406 3131 3298 2873 
Q 3191 2616 2906 2266 
Q 2828 2175 2409 1742 
Q 1991 1309 1228 531 
z
" id="DejaVuSans-32" transform="scale(0.015625)"/>
       </defs>
       <use xlink:href="#DejaVuSans-32"/>
       <use x="63.623047" xlink:href="#DejaVuSans-30"/>
       <use x="127.246094" xlink:href="#DejaVuSans-30"/>
      </g>
     </g>
    </g>
    <g id="xtick_6">
     <g id="line2d_6">
      <g>
       <use style="stroke:#000000;stroke-width:0.8;" x="276.436692" xlink:href="#m5294c9c6f4" y="307.584"/>
      </g>
     </g>
     <g id="text_6">
      <!-- 250 -->
      <g transform="translate(266.892942 322.182437)scale(0.1 -0.1)">
       <use xlink:href="#DejaVuSans-32"/>
       <use x="63.623047" xlink:href="#DejaVuSans-35"/>
       <use x="127.246094" xlink:href="#DejaVuSans-30"/>
      </g>
     </g>
    </g>
    <g id="xtick_7">
     <g id="line2d_7">
      <g>
       <use style="stroke:#000000;stroke-width:0.8;" x="317.120219" xlink:href="#m5294c9c6f4" y="307.584"/>
      </g>
     </g>
     <g id="text_7">
      <!-- 300 -->
      <g transform="translate(307.576469 322.182437)scale(0.1 -0.1)">
       <defs>
        <path d="M 2597 2516 
Q 3050 2419 3304 2112 
Q 3559 1806 3559 1356 
Q 3559 666 3084 287 
Q 2609 -91 1734 -91 
Q 1441 -91 1130 -33 
Q 819 25 488 141 
L 488 750 
Q 750 597 1062 519 
Q 1375 441 1716 441 
Q 2309 441 2620 675 
Q 2931 909 2931 1356 
Q 2931 1769 2642 2001 
Q 2353 2234 1838 2234 
L 1294 2234 
L 1294 2753 
L 1863 2753 
Q 2328 2753 2575 2939 
Q 2822 3125 2822 3475 
Q 2822 3834 2567 4026 
Q 2313 4219 1838 4219 
Q 1578 4219 1281 4162 
Q 984 4106 628 3988 
L 628 4550 
Q 988 4650 1302 4700 
Q 1616 4750 1894 4750 
Q 2613 4750 3031 4423 
Q 3450 4097 3450 3541 
Q 3450 3153 3228 2886 
Q 3006 2619 2597 2516 
z
" id="DejaVuSans-33" transform="scale(0.015625)"/>
       </defs>
       <use xlink:href="#DejaVuSans-33"/>
       <use x="63.623047" xlink:href="#DejaVuSans-30"/>
       <use x="127.246094" xlink:href="#DejaVuSans-30"/>
      </g>
     </g>
    </g>
    <g id="xtick_8">
     <g id="line2d_8">
      <g>
       <use style="stroke:#000000;stroke-width:0.8;" x="357.803746" xlink:href="#m5294c9c6f4" y="307.584"/>
      </g>
     </g>
     <g id="text_8">
      <!-- 350 -->
      <g transform="translate(348.259996 322.182437)scale(0.1 -0.1)">
       <use xlink:href="#DejaVuSans-33"/>
       <use x="63.623047" xlink:href="#DejaVuSans-35"/>
       <use x="127.246094" xlink:href="#DejaVuSans-30"/>
      </g>
     </g>
    </g>
    <g id="xtick_9">
     <g id="line2d_9">
      <g>
       <use style="stroke:#000000;stroke-width:0.8;" x="398.487273" xlink:href="#m5294c9c6f4" y="307.584"/>
      </g>
     </g>
     <g id="text_9">
      <!-- 400 -->
      <g transform="translate(388.943523 322.182437)scale(0.1 -0.1)">
       <defs>
        <path d="M 2419 4116 
L 825 1625 
L 2419 1625 
L 2419 4116 
z
M 2253 4666 
L 3047 4666 
L 3047 1625 
L 3713 1625 
L 3713 1100 
L 3047 1100 
L 3047 0 
L 2419 0 
L 2419 1100 
L 313 1100 
L 313 1709 
L 2253 4666 
z
" id="DejaVuSans-34" transform="scale(0.015625)"/>
       </defs>
       <use xlink:href="#DejaVuSans-34"/>
       <use x="63.623047" xlink:href="#DejaVuSans-30"/>
       <use x="127.246094" xlink:href="#DejaVuSans-30"/>
      </g>
     </g>
    </g>
    <g id="text_10">
     <!-- Epoch -->
     <g transform="translate(213.193594 339.659781)scale(0.15 -0.15)">
      <defs>
       <path d="M 628 4666 
L 3578 4666 
L 3578 4134 
L 1259 4134 
L 1259 2753 
L 3481 2753 
L 3481 2222 
L 1259 2222 
L 1259 531 
L 3634 531 
L 3634 0 
L 628 0 
L 628 4666 
z
" id="DejaVuSans-45" transform="scale(0.015625)"/>
       <path d="M 1159 525 
L 1159 -1331 
L 581 -1331 
L 581 3500 
L 1159 3500 
L 1159 2969 
Q 1341 3281 1617 3432 
Q 1894 3584 2278 3584 
Q 2916 3584 3314 3078 
Q 3713 2572 3713 1747 
Q 3713 922 3314 415 
Q 2916 -91 2278 -91 
Q 1894 -91 1617 61 
Q 1341 213 1159 525 
z
M 3116 1747 
Q 3116 2381 2855 2742 
Q 2594 3103 2138 3103 
Q 1681 3103 1420 2742 
Q 1159 2381 1159 1747 
Q 1159 1113 1420 752 
Q 1681 391 2138 391 
Q 2594 391 2855 752 
Q 3116 1113 3116 1747 
z
" id="DejaVuSans-70" transform="scale(0.015625)"/>
       <path d="M 1959 3097 
Q 1497 3097 1228 2736 
Q 959 2375 959 1747 
Q 959 1119 1226 758 
Q 1494 397 1959 397 
Q 2419 397 2687 759 
Q 2956 1122 2956 1747 
Q 2956 2369 2687 2733 
Q 2419 3097 1959 3097 
z
M 1959 3584 
Q 2709 3584 3137 3096 
Q 3566 2609 3566 1747 
Q 3566 888 3137 398 
Q 2709 -91 1959 -91 
Q 1206 -91 779 398 
Q 353 888 353 1747 
Q 353 2609 779 3096 
Q 1206 3584 1959 3584 
z
" id="DejaVuSans-6f" transform="scale(0.015625)"/>
       <path d="M 3122 3366 
L 3122 2828 
Q 2878 2963 2633 3030 
Q 2388 3097 2138 3097 
Q 1578 3097 1268 2742 
Q 959 2388 959 1747 
Q 959 1106 1268 751 
Q 1578 397 2138 397 
Q 2388 397 2633 464 
Q 2878 531 3122 666 
L 3122 134 
Q 2881 22 2623 -34 
Q 2366 -91 2075 -91 
Q 1284 -91 818 406 
Q 353 903 353 1747 
Q 353 2603 823 3093 
Q 1294 3584 2113 3584 
Q 2378 3584 2631 3529 
Q 2884 3475 3122 3366 
z
" id="DejaVuSans-63" transform="scale(0.015625)"/>
       <path d="M 3513 2113 
L 3513 0 
L 2938 0 
L 2938 2094 
Q 2938 2591 2744 2837 
Q 2550 3084 2163 3084 
Q 1697 3084 1428 2787 
Q 1159 2491 1159 1978 
L 1159 0 
L 581 0 
L 581 4863 
L 1159 4863 
L 1159 2956 
Q 1366 3272 1645 3428 
Q 1925 3584 2291 3584 
Q 2894 3584 3203 3211 
Q 3513 2838 3513 2113 
z
" id="DejaVuSans-68" transform="scale(0.015625)"/>
      </defs>
      <use xlink:href="#DejaVuSans-45"/>
      <use x="63.183594" xlink:href="#DejaVuSans-70"/>
      <use x="126.660156" xlink:href="#DejaVuSans-6f"/>
      <use x="187.841797" xlink:href="#DejaVuSans-63"/>
      <use x="242.822266" xlink:href="#DejaVuSans-68"/>
     </g>
    </g>
   </g>
   <g id="matplotlib.axis_2">
    <g id="ytick_1">
     <g id="line2d_10">
      <defs>
       <path d="M 0 0 
L -3.5 0 
" id="m9075a8f03b" style="stroke:#000000;stroke-width:0.8;"/>
      </defs>
      <g>
       <use style="stroke:#000000;stroke-width:0.8;" x="57.6" xlink:href="#m9075a8f03b" y="302.862347"/>
      </g>
     </g>
     <g id="text_11">
      <!-- −1200 -->
      <g transform="translate(16.770313 306.661566)scale(0.1 -0.1)">
       <defs>
        <path d="M 678 2272 
L 4684 2272 
L 4684 1741 
L 678 1741 
L 678 2272 
z
" id="DejaVuSans-2212" transform="scale(0.015625)"/>
       </defs>
       <use xlink:href="#DejaVuSans-2212"/>
       <use x="83.789062" xlink:href="#DejaVuSans-31"/>
       <use x="147.412109" xlink:href="#DejaVuSans-32"/>
       <use x="211.035156" xlink:href="#DejaVuSans-30"/>
       <use x="274.658203" xlink:href="#DejaVuSans-30"/>
      </g>
     </g>
    </g>
    <g id="ytick_2">
     <g id="line2d_11">
      <g>
       <use style="stroke:#000000;stroke-width:0.8;" x="57.6" xlink:href="#m9075a8f03b" y="258.728324"/>
      </g>
     </g>
     <g id="text_12">
      <!-- −1000 -->
      <g transform="translate(16.770313 262.527542)scale(0.1 -0.1)">
       <use xlink:href="#DejaVuSans-2212"/>
       <use x="83.789062" xlink:href="#DejaVuSans-31"/>
       <use x="147.412109" xlink:href="#DejaVuSans-30"/>
       <use x="211.035156" xlink:href="#DejaVuSans-30"/>
       <use x="274.658203" xlink:href="#DejaVuSans-30"/>
      </g>
     </g>
    </g>
    <g id="ytick_3">
     <g id="line2d_12">
      <g>
       <use style="stroke:#000000;stroke-width:0.8;" x="57.6" xlink:href="#m9075a8f03b" y="214.5943"/>
      </g>
     </g>
     <g id="text_13">
      <!-- −800 -->
      <g transform="translate(23.132812 218.393518)scale(0.1 -0.1)">
       <defs>
        <path d="M 2034 2216 
Q 1584 2216 1326 1975 
Q 1069 1734 1069 1313 
Q 1069 891 1326 650 
Q 1584 409 2034 409 
Q 2484 409 2743 651 
Q 3003 894 3003 1313 
Q 3003 1734 2745 1975 
Q 2488 2216 2034 2216 
z
M 1403 2484 
Q 997 2584 770 2862 
Q 544 3141 544 3541 
Q 544 4100 942 4425 
Q 1341 4750 2034 4750 
Q 2731 4750 3128 4425 
Q 3525 4100 3525 3541 
Q 3525 3141 3298 2862 
Q 3072 2584 2669 2484 
Q 3125 2378 3379 2068 
Q 3634 1759 3634 1313 
Q 3634 634 3220 271 
Q 2806 -91 2034 -91 
Q 1263 -91 848 271 
Q 434 634 434 1313 
Q 434 1759 690 2068 
Q 947 2378 1403 2484 
z
M 1172 3481 
Q 1172 3119 1398 2916 
Q 1625 2713 2034 2713 
Q 2441 2713 2670 2916 
Q 2900 3119 2900 3481 
Q 2900 3844 2670 4047 
Q 2441 4250 2034 4250 
Q 1625 4250 1398 4047 
Q 1172 3844 1172 3481 
z
" id="DejaVuSans-38" transform="scale(0.015625)"/>
       </defs>
       <use xlink:href="#DejaVuSans-2212"/>
       <use x="83.789062" xlink:href="#DejaVuSans-38"/>
       <use x="147.412109" xlink:href="#DejaVuSans-30"/>
       <use x="211.035156" xlink:href="#DejaVuSans-30"/>
      </g>
     </g>
    </g>
    <g id="ytick_4">
     <g id="line2d_13">
      <g>
       <use style="stroke:#000000;stroke-width:0.8;" x="57.6" xlink:href="#m9075a8f03b" y="170.460276"/>
      </g>
     </g>
     <g id="text_14">
      <!-- −600 -->
      <g transform="translate(23.132812 174.259494)scale(0.1 -0.1)">
       <defs>
        <path d="M 2113 2584 
Q 1688 2584 1439 2293 
Q 1191 2003 1191 1497 
Q 1191 994 1439 701 
Q 1688 409 2113 409 
Q 2538 409 2786 701 
Q 3034 994 3034 1497 
Q 3034 2003 2786 2293 
Q 2538 2584 2113 2584 
z
M 3366 4563 
L 3366 3988 
Q 3128 4100 2886 4159 
Q 2644 4219 2406 4219 
Q 1781 4219 1451 3797 
Q 1122 3375 1075 2522 
Q 1259 2794 1537 2939 
Q 1816 3084 2150 3084 
Q 2853 3084 3261 2657 
Q 3669 2231 3669 1497 
Q 3669 778 3244 343 
Q 2819 -91 2113 -91 
Q 1303 -91 875 529 
Q 447 1150 447 2328 
Q 447 3434 972 4092 
Q 1497 4750 2381 4750 
Q 2619 4750 2861 4703 
Q 3103 4656 3366 4563 
z
" id="DejaVuSans-36" transform="scale(0.015625)"/>
       </defs>
       <use xlink:href="#DejaVuSans-2212"/>
       <use x="83.789062" xlink:href="#DejaVuSans-36"/>
       <use x="147.412109" xlink:href="#DejaVuSans-30"/>
       <use x="211.035156" xlink:href="#DejaVuSans-30"/>
      </g>
     </g>
    </g>
    <g id="ytick_5">
     <g id="line2d_14">
      <g>
       <use style="stroke:#000000;stroke-width:0.8;" x="57.6" xlink:href="#m9075a8f03b" y="126.326252"/>
      </g>
     </g>
     <g id="text_15">
      <!-- −400 -->
      <g transform="translate(23.132812 130.125471)scale(0.1 -0.1)">
       <use xlink:href="#DejaVuSans-2212"/>
       <use x="83.789062" xlink:href="#DejaVuSans-34"/>
       <use x="147.412109" xlink:href="#DejaVuSans-30"/>
       <use x="211.035156" xlink:href="#DejaVuSans-30"/>
      </g>
     </g>
    </g>
    <g id="ytick_6">
     <g id="line2d_15">
      <g>
       <use style="stroke:#000000;stroke-width:0.8;" x="57.6" xlink:href="#m9075a8f03b" y="82.192228"/>
      </g>
     </g>
     <g id="text_16">
      <!-- −200 -->
      <g transform="translate(23.132812 85.991447)scale(0.1 -0.1)">
       <use xlink:href="#DejaVuSans-2212"/>
       <use x="83.789062" xlink:href="#DejaVuSans-32"/>
       <use x="147.412109" xlink:href="#DejaVuSans-30"/>
       <use x="211.035156" xlink:href="#DejaVuSans-30"/>
      </g>
     </g>
    </g>
    <g id="text_17">
     <!-- Loss -->
     <g transform="translate(9.650781 190.978781)rotate(-90)scale(0.15 -0.15)">
      <defs>
       <path d="M 628 4666 
L 1259 4666 
L 1259 531 
L 3531 531 
L 3531 0 
L 628 0 
L 628 4666 
z
" id="DejaVuSans-4c" transform="scale(0.015625)"/>
       <path d="M 2834 3397 
L 2834 2853 
Q 2591 2978 2328 3040 
Q 2066 3103 1784 3103 
Q 1356 3103 1142 2972 
Q 928 2841 928 2578 
Q 928 2378 1081 2264 
Q 1234 2150 1697 2047 
L 1894 2003 
Q 2506 1872 2764 1633 
Q 3022 1394 3022 966 
Q 3022 478 2636 193 
Q 2250 -91 1575 -91 
Q 1294 -91 989 -36 
Q 684 19 347 128 
L 347 722 
Q 666 556 975 473 
Q 1284 391 1588 391 
Q 1994 391 2212 530 
Q 2431 669 2431 922 
Q 2431 1156 2273 1281 
Q 2116 1406 1581 1522 
L 1381 1569 
Q 847 1681 609 1914 
Q 372 2147 372 2553 
Q 372 3047 722 3315 
Q 1072 3584 1716 3584 
Q 2034 3584 2315 3537 
Q 2597 3491 2834 3397 
z
" id="DejaVuSans-73" transform="scale(0.015625)"/>
      </defs>
      <use xlink:href="#DejaVuSans-4c"/>
      <use x="53.962891" xlink:href="#DejaVuSans-6f"/>
      <use x="115.144531" xlink:href="#DejaVuSans-73"/>
      <use x="167.244141" xlink:href="#DejaVuSans-73"/>
     </g>
    </g>
   </g>
   <g id="line2d_16">
    <path clip-path="url(#p900eaa52c1)" d="M 73.832727 74.080484 
L 74.646398 116.712598 
L 75.460068 132.138438 
L 76.273739 139.522112 
L 77.087409 159.838641 
L 77.90108 153.171422 
L 78.714751 180.530552 
L 79.528421 173.42837 
L 80.342092 172.088392 
L 81.155762 187.768387 
L 81.969433 191.217375 
L 82.783103 196.152205 
L 83.596774 203.482039 
L 84.410444 199.847764 
L 85.224115 194.287426 
L 86.037785 217.389525 
L 86.851456 226.015 
L 87.665126 197.333127 
L 88.478797 219.521009 
L 89.292468 210.109671 
L 90.106138 229.92782 
L 90.919809 215.489015 
L 91.733479 225.749348 
L 92.54715 224.871306 
L 93.36082 229.057585 
L 94.174491 221.082353 
L 94.988161 231.570631 
L 95.801832 229.174681 
L 96.615502 236.316031 
L 97.429173 229.873452 
L 98.242843 232.021935 
L 99.056514 235.152634 
L 99.870185 229.37389 
L 100.683855 245.459198 
L 101.497526 230.068693 
L 102.311196 237.80889 
L 103.124867 223.196397 
L 103.938537 238.910287 
L 104.752208 235.256484 
L 105.565878 244.881704 
L 106.379549 237.034749 
L 107.193219 237.037771 
L 108.00689 242.234612 
L 108.82056 235.896232 
L 109.634231 238.579689 
L 110.447902 240.650488 
L 111.261572 226.082623 
L 112.075243 239.443835 
L 112.888913 234.915613 
L 113.702584 255.486502 
L 114.516254 244.497016 
L 115.329925 251.568766 
L 116.143595 256.507631 
L 116.957266 252.494259 
L 117.770936 242.732127 
L 118.584607 238.296581 
L 119.398278 238.081304 
L 120.211948 241.157833 
L 121.025619 242.714527 
L 121.839289 245.16983 
L 122.65296 240.704834 
L 123.46663 247.953221 
L 124.280301 240.02615 
L 125.093971 239.862773 
L 125.907642 248.237417 
L 126.721312 235.880739 
L 129.162324 248.933141 
L 129.975995 250.01269 
L 130.789665 255.617177 
L 131.603336 252.824007 
L 132.417006 250.677846 
L 133.230677 241.649486 
L 134.044347 250.322133 
L 134.858018 242.221203 
L 135.671688 258.302016 
L 136.485359 246.300277 
L 137.299029 232.439995 
L 138.1127 246.704608 
L 138.92637 250.976066 
L 139.740041 243.090491 
L 140.553712 256.361716 
L 141.367382 245.946588 
L 142.181053 256.154329 
L 142.994723 245.957523 
L 143.808394 255.372555 
L 144.622064 240.223627 
L 145.435735 243.008114 
L 146.249405 268.147626 
L 147.063076 260.611688 
L 147.876746 250.503362 
L 148.690417 255.253533 
L 149.504087 252.027102 
L 150.317758 255.546863 
L 151.131429 247.144273 
L 151.945099 259.271184 
L 152.75877 238.979458 
L 153.57244 254.730308 
L 154.386111 260.654033 
L 155.199781 271.837999 
L 156.827122 243.182661 
L 157.640793 252.45017 
L 158.454463 257.334867 
L 159.268134 252.031636 
L 160.081805 250.996571 
L 160.895475 251.2183 
L 161.709146 253.015255 
L 162.522816 253.223926 
L 163.336487 258.921781 
L 164.150157 265.465995 
L 164.963828 260.578146 
L 165.777498 243.52817 
L 166.591169 265.875713 
L 167.404839 257.450883 
L 168.21851 258.759236 
L 169.03218 252.018013 
L 169.845851 242.612912 
L 170.659522 253.758957 
L 171.473192 258.180363 
L 173.100533 250.573845 
L 173.914204 256.615893 
L 174.727874 258.650811 
L 175.541545 243.974188 
L 176.355215 251.121761 
L 177.982556 254.519212 
L 178.796227 262.826567 
L 179.609897 256.999519 
L 180.423568 262.920026 
L 181.237239 250.196528 
L 182.050909 261.01527 
L 182.86458 268.902596 
L 183.67825 252.29113 
L 184.491921 267.43523 
L 185.305591 248.523728 
L 186.119262 260.850926 
L 186.932932 262.664562 
L 187.746603 262.491855 
L 189.373944 247.780449 
L 190.187614 270.342176 
L 191.001285 262.94759 
L 191.814956 259.532313 
L 192.628626 265.735307 
L 193.442297 275.949714 
L 194.255967 257.948604 
L 195.069638 264.123077 
L 195.883308 268.656044 
L 196.696979 249.808497 
L 197.510649 247.758789 
L 198.32432 255.487042 
L 199.13799 267.795809 
L 199.951661 259.245851 
L 200.765332 269.543456 
L 201.579002 268.445508 
L 202.392673 250.083574 
L 203.206343 255.984215 
L 204.020014 256.043007 
L 204.833684 266.187694 
L 205.647355 259.192059 
L 206.461025 261.708435 
L 207.274696 269.376543 
L 208.088366 258.849021 
L 208.902037 269.194243 
L 209.715707 264.473863 
L 210.529378 257.765662 
L 211.343049 266.918924 
L 212.156719 252.942354 
L 212.97039 269.067801 
L 213.78406 249.591388 
L 214.597731 269.556878 
L 215.411401 264.952127 
L 216.225072 271.634203 
L 217.038742 254.879952 
L 217.852413 274.093353 
L 218.666083 264.757587 
L 219.479754 267.712545 
L 220.293424 264.256986 
L 221.920766 253.880616 
L 222.734436 258.935018 
L 223.548107 267.144911 
L 224.361777 258.383147 
L 225.175448 263.295953 
L 225.989118 266.72718 
L 226.802789 262.57544 
L 227.616459 254.533224 
L 228.43013 261.936445 
L 229.2438 265.640461 
L 230.057471 260.384208 
L 230.871141 278.012377 
L 231.684812 264.338528 
L 232.498483 263.264604 
L 233.312153 282.858442 
L 234.125824 259.611042 
L 234.939494 268.165622 
L 235.753165 272.882866 
L 236.566835 267.741203 
L 237.380506 265.615211 
L 238.194176 262.34041 
L 239.007847 278.099556 
L 239.821517 279.120269 
L 241.448859 260.009029 
L 242.262529 258.220787 
L 243.0762 264.156439 
L 243.88987 274.187602 
L 244.703541 275.230176 
L 245.517211 263.15877 
L 247.144552 267.116939 
L 247.958223 256.290862 
L 248.771893 269.584196 
L 249.585564 279.549784 
L 250.399234 284.781742 
L 251.212905 266.108754 
L 252.026576 282.427244 
L 252.840246 264.834858 
L 253.653917 260.769817 
L 254.467587 267.876722 
L 255.281258 267.63473 
L 256.094928 276.391714 
L 256.908599 269.022971 
L 257.722269 267.642484 
L 258.53594 277.135913 
L 259.34961 274.114956 
L 260.163281 254.259354 
L 261.790622 280.47284 
L 262.604293 264.5574 
L 263.417963 265.415816 
L 264.231634 287.500362 
L 265.045304 279.892721 
L 265.858975 288.037716 
L 266.672645 276.015239 
L 267.486316 257.593274 
L 268.299986 264.232543 
L 269.113657 276.942226 
L 269.927327 280.530875 
L 270.740998 286.356544 
L 271.554668 272.840008 
L 272.368339 266.473044 
L 273.18201 265.03313 
L 273.99568 286.592502 
L 274.809351 275.200931 
L 275.623021 276.978838 
L 276.436692 272.342055 
L 277.250362 272.321942 
L 278.064033 272.929353 
L 278.877703 289.304496 
L 279.691374 255.692273 
L 280.505044 272.515564 
L 281.318715 282.725127 
L 282.946056 277.333133 
L 283.759727 267.70288 
L 284.573397 271.528289 
L 285.387068 276.905352 
L 286.200738 279.643683 
L 287.014409 283.030519 
L 287.828079 266.668525 
L 288.64175 276.141308 
L 289.45542 266.826659 
L 291.082761 285.317074 
L 291.896432 273.336595 
L 292.710103 284.054789 
L 293.523773 278.904573 
L 294.337444 274.510622 
L 295.151114 279.237409 
L 295.964785 278.485582 
L 296.778455 270.727948 
L 297.592126 264.721153 
L 298.405796 288.204427 
L 299.219467 283.450304 
L 300.033137 283.273536 
L 300.846808 277.477113 
L 301.660478 286.243606 
L 302.474149 267.707059 
L 303.28782 283.993274 
L 304.10149 285.904929 
L 304.915161 290.586166 
L 305.728831 282.180881 
L 306.542502 275.467549 
L 307.356172 273.026463 
L 308.169843 283.426393 
L 308.983513 287.608117 
L 310.610854 252.798212 
L 311.424525 288.284188 
L 312.238195 286.735259 
L 313.051866 271.699675 
L 313.865537 286.536178 
L 314.679207 263.690516 
L 315.492878 275.398178 
L 316.306548 283.612442 
L 317.120219 262.147904 
L 317.933889 279.931883 
L 318.74756 276.324221 
L 319.56123 285.289439 
L 320.374901 292.114591 
L 321.188571 278.702276 
L 322.002242 281.286703 
L 322.815913 278.800598 
L 323.629583 272.140218 
L 324.443254 286.041728 
L 325.256924 276.112952 
L 326.070595 285.545541 
L 327.697936 274.997647 
L 328.511606 283.762328 
L 329.325277 279.752091 
L 330.138947 286.487697 
L 330.952618 274.462506 
L 331.766288 280.602605 
L 332.579959 279.44478 
L 333.39363 281.628649 
L 334.2073 274.283978 
L 335.020971 294.662468 
L 335.834641 285.201232 
L 336.648312 280.330707 
L 337.461982 293.384112 
L 338.275653 293.397382 
L 341.530335 268.690926 
L 342.344005 280.785016 
L 343.157676 279.556129 
L 343.971347 280.845535 
L 344.785017 276.496792 
L 345.598688 287.342375 
L 346.412358 274.614745 
L 347.226029 269.471108 
L 348.039699 276.548586 
L 348.85337 272.092389 
L 349.66704 284.164751 
L 350.480711 291.754561 
L 351.294381 285.486164 
L 352.108052 263.005411 
L 352.921722 260.547288 
L 353.735393 287.706222 
L 354.549064 283.897887 
L 355.362734 262.263054 
L 356.176405 276.080267 
L 356.990075 273.569533 
L 357.803746 279.844273 
L 358.617416 287.559829 
L 359.431087 271.959911 
L 360.244757 285.909665 
L 361.058428 274.073305 
L 361.872098 280.343204 
L 362.685769 285.359002 
L 363.49944 280.964034 
L 364.31311 273.390997 
L 365.126781 293.433657 
L 365.940451 267.500865 
L 366.754122 268.980003 
L 367.567792 274.432982 
L 368.381463 282.516046 
L 369.195133 289.050722 
L 370.008804 278.589635 
L 370.822474 273.755656 
L 371.636145 275.935254 
L 372.449815 282.116731 
L 373.263486 265.20261 
L 374.077157 289.949253 
L 374.890827 282.373585 
L 375.704498 295.488 
L 376.518168 283.425336 
L 377.331839 287.171816 
L 378.145509 280.771858 
L 378.95918 289.886767 
L 379.77285 277.660817 
L 380.586521 270.050478 
L 381.400191 270.632179 
L 382.213862 289.897867 
L 383.027532 281.647844 
L 383.841203 278.281768 
L 384.654874 272.952975 
L 385.468544 279.30438 
L 386.282215 287.917153 
L 387.095885 286.403945 
L 389.536897 268.425176 
L 390.350567 274.013563 
L 391.164238 288.108347 
L 391.977908 276.634583 
L 392.791579 272.585927 
L 393.605249 282.538054 
L 394.41892 281.643481 
L 395.232591 281.59383 
L 396.046261 273.663831 
L 396.859932 271.345183 
L 397.673602 289.02416 
L 398.487273 280.07978 
L 398.487273 280.07978 
" style="fill:none;stroke:#1f77b4;stroke-linecap:square;stroke-width:1.5;"/>
   </g>
   <g id="line2d_17">
    <path clip-path="url(#p900eaa52c1)" d="M 73.832727 114.365114 
L 74.646398 120.473873 
L 75.460068 66.195593 
L 76.273739 150.559389 
L 77.087409 53.568 
L 77.90108 175.498366 
L 78.714751 174.751852 
L 79.528421 190.080006 
L 80.342092 190.674233 
L 81.155762 209.106043 
L 81.969433 191.572642 
L 82.783103 191.926209 
L 83.596774 205.167461 
L 84.410444 146.66577 
L 85.224115 192.19024 
L 86.037785 205.482593 
L 86.851456 224.812349 
L 87.665126 220.029692 
L 88.478797 208.455295 
L 89.292468 217.045368 
L 90.106138 227.332737 
L 90.919809 224.559758 
L 91.733479 228.35564 
L 92.54715 228.930055 
L 93.36082 224.333197 
L 94.174491 126.659453 
L 94.988161 226.825639 
L 95.801832 229.381791 
L 96.615502 229.083698 
L 97.429173 221.730996 
L 98.242843 236.397937 
L 99.056514 231.492525 
L 99.870185 225.78588 
L 100.683855 222.442614 
L 101.497526 240.666622 
L 102.311196 236.820203 
L 103.124867 234.765995 
L 103.938537 234.318116 
L 104.752208 242.15136 
L 105.565878 231.421125 
L 106.379549 238.58287 
L 107.193219 247.954939 
L 108.00689 238.176818 
L 108.82056 249.793878 
L 109.634231 236.791901 
L 110.447902 244.149964 
L 111.261572 240.766335 
L 112.075243 238.555305 
L 112.888913 231.303627 
L 113.702584 247.536317 
L 114.516254 235.54651 
L 115.329925 240.165957 
L 116.143595 242.516251 
L 116.957266 233.846514 
L 117.770936 238.394085 
L 118.584607 245.449934 
L 119.398278 254.253802 
L 120.211948 251.453317 
L 121.025619 238.639425 
L 121.839289 238.482086 
L 122.65296 240.438158 
L 123.46663 247.602637 
L 124.280301 250.960363 
L 125.093971 237.732356 
L 125.907642 234.284385 
L 126.721312 240.806044 
L 127.534983 244.230664 
L 128.348653 237.641423 
L 129.162324 244.861744 
L 129.975995 238.38042 
L 130.789665 236.982217 
L 131.603336 240.079322 
L 132.417006 238.978186 
L 133.230677 237.489782 
L 134.044347 249.279226 
L 134.858018 245.731008 
L 135.671688 244.600411 
L 136.485359 244.154396 
L 137.299029 246.63255 
L 138.1127 251.486334 
L 138.92637 251.74387 
L 139.740041 236.429362 
L 140.553712 248.92569 
L 141.367382 258.018666 
L 142.181053 239.94364 
L 142.994723 243.428948 
L 143.808394 245.554613 
L 144.622064 246.117841 
L 145.435735 248.818384 
L 146.249405 242.541502 
L 147.063076 255.431104 
L 147.876746 252.677528 
L 148.690417 251.850467 
L 149.504087 251.313872 
L 150.317758 245.374462 
L 151.131429 251.408866 
L 151.945099 249.226188 
L 152.75877 238.442156 
L 153.57244 247.100458 
L 154.386111 253.58288 
L 155.199781 250.08536 
L 156.013452 256.584884 
L 156.827122 241.561857 
L 157.640793 249.649541 
L 158.454463 237.630595 
L 159.268134 254.789994 
L 160.081805 237.660902 
L 160.895475 242.367094 
L 161.709146 251.679934 
L 162.522816 256.721899 
L 163.336487 251.82735 
L 164.150157 250.037716 
L 164.963828 256.691962 
L 165.777498 250.551085 
L 166.591169 254.607745 
L 167.404839 248.455482 
L 168.21851 251.011252 
L 169.03218 245.784066 
L 169.845851 255.749219 
L 170.659522 247.709028 
L 171.473192 251.590024 
L 172.286863 250.578175 
L 173.100533 248.299323 
L 173.914204 249.07108 
L 174.727874 247.003418 
L 175.541545 260.680226 
L 176.355215 252.290571 
L 177.168886 257.469244 
L 177.982556 259.014662 
L 178.796227 249.831495 
L 179.609897 254.649745 
L 180.423568 252.330668 
L 181.237239 254.785817 
L 182.050909 247.648425 
L 182.86458 265.044816 
L 183.67825 256.008374 
L 184.491921 264.572363 
L 185.305591 249.421378 
L 186.119262 264.318106 
L 186.932932 254.582586 
L 187.746603 256.979443 
L 188.560273 248.200748 
L 189.373944 265.558587 
L 190.187614 262.967584 
L 191.001285 247.745067 
L 191.814956 256.798611 
L 192.628626 255.948621 
L 193.442297 254.832347 
L 194.255967 260.210305 
L 195.069638 251.779909 
L 195.883308 255.957229 
L 196.696979 252.593353 
L 197.510649 248.349956 
L 198.32432 261.318193 
L 199.13799 254.590836 
L 199.951661 260.548987 
L 200.765332 259.730312 
L 201.579002 252.361596 
L 202.392673 249.456103 
L 203.206343 252.186794 
L 204.020014 251.840183 
L 204.833684 257.254617 
L 205.647355 247.804846 
L 206.461025 252.448541 
L 207.274696 258.85165 
L 208.088366 261.963021 
L 208.902037 271.44858 
L 209.715707 255.071271 
L 210.529378 257.543308 
L 211.343049 252.611712 
L 212.156719 253.433626 
L 212.97039 255.737601 
L 213.78406 263.296544 
L 214.597731 259.687835 
L 215.411401 240.280328 
L 217.038742 257.511872 
L 217.852413 262.814627 
L 218.666083 262.405745 
L 219.479754 261.507645 
L 220.293424 253.435758 
L 221.107095 254.239276 
L 221.920766 260.114285 
L 222.734436 259.595638 
L 223.548107 258.784081 
L 224.361777 255.403075 
L 225.175448 262.653596 
L 225.989118 268.435638 
L 226.802789 267.321785 
L 227.616459 250.737505 
L 228.43013 259.072597 
L 229.2438 261.869014 
L 230.057471 259.05602 
L 230.871141 263.581352 
L 232.498483 275.75325 
L 233.312153 267.905376 
L 234.125824 269.603519 
L 234.939494 256.663319 
L 235.753165 265.506155 
L 236.566835 266.569256 
L 237.380506 265.372853 
L 238.194176 260.725418 
L 239.007847 252.818368 
L 239.821517 278.377575 
L 240.635188 269.928577 
L 241.448859 259.988122 
L 242.262529 271.230421 
L 243.0762 264.184276 
L 243.88987 264.886476 
L 244.703541 263.554834 
L 245.517211 278.136435 
L 246.330882 266.681922 
L 247.144552 268.820453 
L 247.958223 255.893866 
L 248.771893 271.236528 
L 249.585564 264.141223 
L 250.399234 269.841328 
L 251.212905 273.379667 
L 252.026576 260.927242 
L 252.840246 267.741559 
L 253.653917 270.047822 
L 254.467587 258.089041 
L 255.281258 268.326946 
L 256.094928 275.838271 
L 256.908599 266.620558 
L 257.722269 242.265336 
L 258.53594 269.510304 
L 259.34961 258.193665 
L 260.163281 249.412015 
L 260.976951 264.929737 
L 261.790622 264.434742 
L 262.604293 266.926544 
L 263.417963 260.560184 
L 264.231634 274.43869 
L 265.045304 265.556571 
L 265.858975 271.235493 
L 266.672645 254.132589 
L 267.486316 273.257586 
L 268.299986 272.629142 
L 269.113657 273.087723 
L 269.927327 268.919957 
L 270.740998 275.44582 
L 271.554668 276.840555 
L 272.368339 260.313635 
L 273.18201 264.004742 
L 273.99568 283.335308 
L 274.809351 243.433741 
L 276.436692 276.7772 
L 277.250362 275.409658 
L 278.064033 282.339176 
L 278.877703 276.385772 
L 279.691374 276.199016 
L 280.505044 271.323442 
L 281.318715 272.819528 
L 282.132386 271.539751 
L 282.946056 270.524405 
L 283.759727 275.841881 
L 284.573397 262.983275 
L 285.387068 264.20691 
L 286.200738 269.402808 
L 287.014409 269.047725 
L 287.828079 259.732941 
L 288.64175 267.860774 
L 289.45542 264.867347 
L 290.269091 272.99389 
L 291.082761 276.892526 
L 291.896432 275.375015 
L 292.710103 277.227291 
L 293.523773 278.797371 
L 294.337444 274.420182 
L 295.151114 277.151597 
L 295.964785 278.420103 
L 296.778455 257.090035 
L 297.592126 270.251869 
L 298.405796 268.961843 
L 299.219467 285.441675 
L 300.033137 290.891193 
L 300.846808 279.37698 
L 301.660478 275.756644 
L 302.474149 265.827732 
L 303.28782 275.843875 
L 304.10149 268.298715 
L 304.915161 269.35867 
L 305.728831 276.049085 
L 306.542502 267.974127 
L 307.356172 279.65135 
L 308.169843 268.530153 
L 308.983513 277.188323 
L 309.797184 275.258975 
L 310.610854 252.608713 
L 311.424525 271.30265 
L 312.238195 271.220216 
L 313.051866 261.028524 
L 313.865537 274.291433 
L 315.492878 266.96084 
L 316.306548 262.930161 
L 317.120219 273.388732 
L 317.933889 276.050617 
L 318.74756 278.042875 
L 319.56123 277.956341 
L 320.374901 275.302134 
L 321.188571 275.010703 
L 322.002242 273.142802 
L 322.815913 280.349677 
L 323.629583 269.189205 
L 324.443254 261.993687 
L 325.256924 273.801911 
L 326.070595 282.626944 
L 326.884265 276.296123 
L 327.697936 276.215759 
L 328.511606 252.028573 
L 329.325277 271.946039 
L 330.138947 281.558851 
L 330.952618 263.361802 
L 331.766288 274.885712 
L 332.579959 270.618102 
L 333.39363 271.993955 
L 334.2073 261.180381 
L 335.834641 282.482247 
L 336.648312 278.216755 
L 337.461982 267.266 
L 338.275653 274.233436 
L 339.089323 268.501692 
L 339.902994 281.78812 
L 340.716664 263.673387 
L 341.530335 275.87552 
L 342.344005 266.36543 
L 343.157676 274.331463 
L 343.971347 276.750392 
L 344.785017 267.029948 
L 345.598688 277.852407 
L 346.412358 267.263777 
L 347.226029 282.572518 
L 348.039699 267.666855 
L 348.85337 275.612301 
L 349.66704 270.214063 
L 350.480711 279.026882 
L 351.294381 278.254259 
L 352.108052 283.762244 
L 352.921722 277.762672 
L 353.735393 267.962833 
L 354.549064 279.805973 
L 355.362734 254.841021 
L 356.176405 272.561409 
L 356.990075 286.352597 
L 357.803746 264.708082 
L 358.617416 276.231257 
L 359.431087 279.821836 
L 360.244757 272.460343 
L 361.058428 257.52431 
L 361.872098 269.954077 
L 362.685769 274.180579 
L 363.49944 281.072283 
L 364.31311 280.349641 
L 365.126781 267.235955 
L 365.940451 267.220021 
L 366.754122 275.97908 
L 367.567792 265.079415 
L 368.381463 269.587875 
L 369.195133 272.943889 
L 370.008804 274.966852 
L 370.822474 268.632662 
L 371.636145 277.429786 
L 372.449815 272.839492 
L 373.263486 280.28267 
L 374.077157 267.957893 
L 374.890827 270.423263 
L 375.704498 269.795217 
L 376.518168 268.817335 
L 377.331839 285.306684 
L 378.145509 284.385166 
L 378.95918 262.507359 
L 379.77285 274.000072 
L 380.586521 272.048661 
L 381.400191 270.80931 
L 382.213862 267.690007 
L 383.027532 272.38659 
L 383.841203 262.098589 
L 384.654874 279.16822 
L 385.468544 284.268026 
L 386.282215 282.847434 
L 387.909556 270.596294 
L 388.723226 271.99961 
L 389.536897 139.859342 
L 390.350567 276.559208 
L 391.164238 284.096271 
L 391.977908 278.027936 
L 392.791579 281.944366 
L 393.605249 277.538152 
L 394.41892 270.573609 
L 395.232591 277.30476 
L 396.046261 265.799916 
L 396.859932 273.445902 
L 397.673602 265.420531 
L 398.487273 276.397416 
L 398.487273 276.397416 
" style="fill:none;stroke:#ff7f0e;stroke-linecap:square;stroke-width:1.5;"/>
   </g>
   <g id="patch_3">
    <path d="M 57.6 307.584 
L 57.6 41.472 
" style="fill:none;stroke:#000000;stroke-linecap:square;stroke-linejoin:miter;stroke-width:0.8;"/>
   </g>
   <g id="patch_4">
    <path d="M 414.72 307.584 
L 414.72 41.472 
" style="fill:none;stroke:#000000;stroke-linecap:square;stroke-linejoin:miter;stroke-width:0.8;"/>
   </g>
   <g id="patch_5">
    <path d="M 57.6 307.584 
L 414.72 307.584 
" style="fill:none;stroke:#000000;stroke-linecap:square;stroke-linejoin:miter;stroke-width:0.8;"/>
   </g>
   <g id="patch_6">
    <path d="M 57.6 41.472 
L 414.72 41.472 
" style="fill:none;stroke:#000000;stroke-linecap:square;stroke-linejoin:miter;stroke-width:0.8;"/>
   </g>
   <g id="legend_1">
    <g id="patch_7">
     <path d="M 303.845 78.82825 
L 407.72 78.82825 
Q 409.72 78.82825 409.72 76.82825 
L 409.72 48.472 
Q 409.72 46.472 407.72 46.472 
L 303.845 46.472 
Q 301.845 46.472 301.845 48.472 
L 301.845 76.82825 
Q 301.845 78.82825 303.845 78.82825 
z
" style="fill:#ffffff;opacity:0.8;stroke:#cccccc;stroke-linejoin:miter;"/>
    </g>
    <g id="line2d_18">
     <path d="M 305.845 54.570437 
L 325.845 54.570437 
" style="fill:none;stroke:#1f77b4;stroke-linecap:square;stroke-width:1.5;"/>
    </g>
    <g id="line2d_19"/>
    <g id="text_18">
     <!-- Train loss -->
     <g transform="translate(333.845 58.070437)scale(0.1 -0.1)">
      <defs>
       <path d="M -19 4666 
L 3928 4666 
L 3928 4134 
L 2272 4134 
L 2272 0 
L 1638 0 
L 1638 4134 
L -19 4134 
L -19 4666 
z
" id="DejaVuSans-54" transform="scale(0.015625)"/>
       <path d="M 2631 2963 
Q 2534 3019 2420 3045 
Q 2306 3072 2169 3072 
Q 1681 3072 1420 2755 
Q 1159 2438 1159 1844 
L 1159 0 
L 581 0 
L 581 3500 
L 1159 3500 
L 1159 2956 
Q 1341 3275 1631 3429 
Q 1922 3584 2338 3584 
Q 2397 3584 2469 3576 
Q 2541 3569 2628 3553 
L 2631 2963 
z
" id="DejaVuSans-72" transform="scale(0.015625)"/>
       <path d="M 2194 1759 
Q 1497 1759 1228 1600 
Q 959 1441 959 1056 
Q 959 750 1161 570 
Q 1363 391 1709 391 
Q 2188 391 2477 730 
Q 2766 1069 2766 1631 
L 2766 1759 
L 2194 1759 
z
M 3341 1997 
L 3341 0 
L 2766 0 
L 2766 531 
Q 2569 213 2275 61 
Q 1981 -91 1556 -91 
Q 1019 -91 701 211 
Q 384 513 384 1019 
Q 384 1609 779 1909 
Q 1175 2209 1959 2209 
L 2766 2209 
L 2766 2266 
Q 2766 2663 2505 2880 
Q 2244 3097 1772 3097 
Q 1472 3097 1187 3025 
Q 903 2953 641 2809 
L 641 3341 
Q 956 3463 1253 3523 
Q 1550 3584 1831 3584 
Q 2591 3584 2966 3190 
Q 3341 2797 3341 1997 
z
" id="DejaVuSans-61" transform="scale(0.015625)"/>
       <path d="M 603 3500 
L 1178 3500 
L 1178 0 
L 603 0 
L 603 3500 
z
M 603 4863 
L 1178 4863 
L 1178 4134 
L 603 4134 
L 603 4863 
z
" id="DejaVuSans-69" transform="scale(0.015625)"/>
       <path d="M 3513 2113 
L 3513 0 
L 2938 0 
L 2938 2094 
Q 2938 2591 2744 2837 
Q 2550 3084 2163 3084 
Q 1697 3084 1428 2787 
Q 1159 2491 1159 1978 
L 1159 0 
L 581 0 
L 581 3500 
L 1159 3500 
L 1159 2956 
Q 1366 3272 1645 3428 
Q 1925 3584 2291 3584 
Q 2894 3584 3203 3211 
Q 3513 2838 3513 2113 
z
" id="DejaVuSans-6e" transform="scale(0.015625)"/>
       <path id="DejaVuSans-20" transform="scale(0.015625)"/>
       <path d="M 603 4863 
L 1178 4863 
L 1178 0 
L 603 0 
L 603 4863 
z
" id="DejaVuSans-6c" transform="scale(0.015625)"/>
      </defs>
      <use xlink:href="#DejaVuSans-54"/>
      <use x="46.333984" xlink:href="#DejaVuSans-72"/>
      <use x="87.447266" xlink:href="#DejaVuSans-61"/>
      <use x="148.726562" xlink:href="#DejaVuSans-69"/>
      <use x="176.509766" xlink:href="#DejaVuSans-6e"/>
      <use x="239.888672" xlink:href="#DejaVuSans-20"/>
      <use x="271.675781" xlink:href="#DejaVuSans-6c"/>
      <use x="299.458984" xlink:href="#DejaVuSans-6f"/>
      <use x="360.640625" xlink:href="#DejaVuSans-73"/>
      <use x="412.740234" xlink:href="#DejaVuSans-73"/>
     </g>
    </g>
    <g id="line2d_20">
     <path d="M 305.845 69.248562 
L 325.845 69.248562 
" style="fill:none;stroke:#ff7f0e;stroke-linecap:square;stroke-width:1.5;"/>
    </g>
    <g id="line2d_21"/>
    <g id="text_19">
     <!-- Validation loss -->
     <g transform="translate(333.845 72.748562)scale(0.1 -0.1)">
      <defs>
       <path d="M 1831 0 
L 50 4666 
L 709 4666 
L 2188 738 
L 3669 4666 
L 4325 4666 
L 2547 0 
L 1831 0 
z
" id="DejaVuSans-56" transform="scale(0.015625)"/>
       <path d="M 2906 2969 
L 2906 4863 
L 3481 4863 
L 3481 0 
L 2906 0 
L 2906 525 
Q 2725 213 2448 61 
Q 2172 -91 1784 -91 
Q 1150 -91 751 415 
Q 353 922 353 1747 
Q 353 2572 751 3078 
Q 1150 3584 1784 3584 
Q 2172 3584 2448 3432 
Q 2725 3281 2906 2969 
z
M 947 1747 
Q 947 1113 1208 752 
Q 1469 391 1925 391 
Q 2381 391 2643 752 
Q 2906 1113 2906 1747 
Q 2906 2381 2643 2742 
Q 2381 3103 1925 3103 
Q 1469 3103 1208 2742 
Q 947 2381 947 1747 
z
" id="DejaVuSans-64" transform="scale(0.015625)"/>
       <path d="M 1172 4494 
L 1172 3500 
L 2356 3500 
L 2356 3053 
L 1172 3053 
L 1172 1153 
Q 1172 725 1289 603 
Q 1406 481 1766 481 
L 2356 481 
L 2356 0 
L 1766 0 
Q 1100 0 847 248 
Q 594 497 594 1153 
L 594 3053 
L 172 3053 
L 172 3500 
L 594 3500 
L 594 4494 
L 1172 4494 
z
" id="DejaVuSans-74" transform="scale(0.015625)"/>
      </defs>
      <use xlink:href="#DejaVuSans-56"/>
      <use x="60.658203" xlink:href="#DejaVuSans-61"/>
      <use x="121.9375" xlink:href="#DejaVuSans-6c"/>
      <use x="149.720703" xlink:href="#DejaVuSans-69"/>
      <use x="177.503906" xlink:href="#DejaVuSans-64"/>
      <use x="240.980469" xlink:href="#DejaVuSans-61"/>
      <use x="302.259766" xlink:href="#DejaVuSans-74"/>
      <use x="341.46875" xlink:href="#DejaVuSans-69"/>
      <use x="369.251953" xlink:href="#DejaVuSans-6f"/>
      <use x="430.433594" xlink:href="#DejaVuSans-6e"/>
      <use x="493.8125" xlink:href="#DejaVuSans-20"/>
      <use x="525.599609" xlink:href="#DejaVuSans-6c"/>
      <use x="553.382812" xlink:href="#DejaVuSans-6f"/>
      <use x="614.564453" xlink:href="#DejaVuSans-73"/>
      <use x="666.664062" xlink:href="#DejaVuSans-73"/>
     </g>
    </g>
   </g>
  </g>
 </g>
 <defs>
  <clipPath id="p900eaa52c1">
   <rect height="266.112" width="357.12" x="57.6" y="41.472"/>
  </clipPath>
 </defs>
</svg>
