<?xml version="1.0" encoding="utf-8" standalone="no"?>
<!DOCTYPE svg PUBLIC "-//W3C//DTD SVG 1.1//EN"
  "http://www.w3.org/Graphics/SVG/1.1/DTD/svg11.dtd">
<svg height="345.6pt" version="1.1" viewBox="0 0 460.8 345.6" width="460.8pt" xmlns="http://www.w3.org/2000/svg" xmlns:xlink="http://www.w3.org/1999/xlink">
 <metadata>
  <rdf:RDF xmlns:cc="http://creativecommons.org/ns#" xmlns:dc="http://purl.org/dc/elements/1.1/" xmlns:rdf="http://www.w3.org/1999/02/22-rdf-syntax-ns#">
   <cc:Work>
    <dc:type rdf:resource="http://purl.org/dc/dcmitype/StillImage"/>
    <dc:date>2021-07-31T06:40:41.797326</dc:date>
    <dc:format>image/svg+xml</dc:format>
    <dc:creator>
     <cc:Agent>
      <dc:title>Matplotlib v3.4.1, https://matplotlib.org/</dc:title>
     </cc:Agent>
    </dc:creator>
   </cc:Work>
  </rdf:RDF>
 </metadata>
 <defs>
  <style type="text/css">*{stroke-linecap:butt;stroke-linejoin:round;}</style>
 </defs>
 <g id="figure_1">
  <g id="patch_1">
   <path d="M 0 345.6 
L 460.8 345.6 
L 460.8 0 
L 0 0 
z
" style="fill:#ffffff;"/>
  </g>
  <g id="axes_1">
   <g id="patch_2">
    <path d="M 57.6 307.584 
L 414.72 307.584 
L 414.72 41.472 
L 57.6 41.472 
z
" style="fill:#ffffff;"/>
   </g>
   <g id="matplotlib.axis_1">
    <g id="xtick_1">
     <g id="line2d_1">
      <defs>
       <path d="M 0 0 
L 0 3.5 
" id="m528c8c7b90" style="stroke:#000000;stroke-width:0.8;"/>
      </defs>
      <g>
       <use style="stroke:#000000;stroke-width:0.8;" x="73.629691" xlink:href="#m528c8c7b90" y="307.584"/>
      </g>
     </g>
     <g id="text_1">
      <!-- 0 -->
      <g transform="translate(70.448441 322.182437)scale(0.1 -0.1)">
       <defs>
        <path d="M 2034 4250 
Q 1547 4250 1301 3770 
Q 1056 3291 1056 2328 
Q 1056 1369 1301 889 
Q 1547 409 2034 409 
Q 2525 409 2770 889 
Q 3016 1369 3016 2328 
Q 3016 3291 2770 3770 
Q 2525 4250 2034 4250 
z
M 2034 4750 
Q 2819 4750 3233 4129 
Q 3647 3509 3647 2328 
Q 3647 1150 3233 529 
Q 2819 -91 2034 -91 
Q 1250 -91 836 529 
Q 422 1150 422 2328 
Q 422 3509 836 4129 
Q 1250 4750 2034 4750 
z
" id="DejaVuSans-30" transform="scale(0.015625)"/>
       </defs>
       <use xlink:href="#DejaVuSans-30"/>
      </g>
     </g>
    </g>
    <g id="xtick_2">
     <g id="line2d_2">
      <g>
       <use style="stroke:#000000;stroke-width:0.8;" x="114.236889" xlink:href="#m528c8c7b90" y="307.584"/>
      </g>
     </g>
     <g id="text_2">
      <!-- 200 -->
      <g transform="translate(104.693139 322.182437)scale(0.1 -0.1)">
       <defs>
        <path d="M 1228 531 
L 3431 531 
L 3431 0 
L 469 0 
L 469 531 
Q 828 903 1448 1529 
Q 2069 2156 2228 2338 
Q 2531 2678 2651 2914 
Q 2772 3150 2772 3378 
Q 2772 3750 2511 3984 
Q 2250 4219 1831 4219 
Q 1534 4219 1204 4116 
Q 875 4013 500 3803 
L 500 4441 
Q 881 4594 1212 4672 
Q 1544 4750 1819 4750 
Q 2544 4750 2975 4387 
Q 3406 4025 3406 3419 
Q 3406 3131 3298 2873 
Q 3191 2616 2906 2266 
Q 2828 2175 2409 1742 
Q 1991 1309 1228 531 
z
" id="DejaVuSans-32" transform="scale(0.015625)"/>
       </defs>
       <use xlink:href="#DejaVuSans-32"/>
       <use x="63.623047" xlink:href="#DejaVuSans-30"/>
       <use x="127.246094" xlink:href="#DejaVuSans-30"/>
      </g>
     </g>
    </g>
    <g id="xtick_3">
     <g id="line2d_3">
      <g>
       <use style="stroke:#000000;stroke-width:0.8;" x="154.844087" xlink:href="#m528c8c7b90" y="307.584"/>
      </g>
     </g>
     <g id="text_3">
      <!-- 400 -->
      <g transform="translate(145.300337 322.182437)scale(0.1 -0.1)">
       <defs>
        <path d="M 2419 4116 
L 825 1625 
L 2419 1625 
L 2419 4116 
z
M 2253 4666 
L 3047 4666 
L 3047 1625 
L 3713 1625 
L 3713 1100 
L 3047 1100 
L 3047 0 
L 2419 0 
L 2419 1100 
L 313 1100 
L 313 1709 
L 2253 4666 
z
" id="DejaVuSans-34" transform="scale(0.015625)"/>
       </defs>
       <use xlink:href="#DejaVuSans-34"/>
       <use x="63.623047" xlink:href="#DejaVuSans-30"/>
       <use x="127.246094" xlink:href="#DejaVuSans-30"/>
      </g>
     </g>
    </g>
    <g id="xtick_4">
     <g id="line2d_4">
      <g>
       <use style="stroke:#000000;stroke-width:0.8;" x="195.451284" xlink:href="#m528c8c7b90" y="307.584"/>
      </g>
     </g>
     <g id="text_4">
      <!-- 600 -->
      <g transform="translate(185.907534 322.182437)scale(0.1 -0.1)">
       <defs>
        <path d="M 2113 2584 
Q 1688 2584 1439 2293 
Q 1191 2003 1191 1497 
Q 1191 994 1439 701 
Q 1688 409 2113 409 
Q 2538 409 2786 701 
Q 3034 994 3034 1497 
Q 3034 2003 2786 2293 
Q 2538 2584 2113 2584 
z
M 3366 4563 
L 3366 3988 
Q 3128 4100 2886 4159 
Q 2644 4219 2406 4219 
Q 1781 4219 1451 3797 
Q 1122 3375 1075 2522 
Q 1259 2794 1537 2939 
Q 1816 3084 2150 3084 
Q 2853 3084 3261 2657 
Q 3669 2231 3669 1497 
Q 3669 778 3244 343 
Q 2819 -91 2113 -91 
Q 1303 -91 875 529 
Q 447 1150 447 2328 
Q 447 3434 972 4092 
Q 1497 4750 2381 4750 
Q 2619 4750 2861 4703 
Q 3103 4656 3366 4563 
z
" id="DejaVuSans-36" transform="scale(0.015625)"/>
       </defs>
       <use xlink:href="#DejaVuSans-36"/>
       <use x="63.623047" xlink:href="#DejaVuSans-30"/>
       <use x="127.246094" xlink:href="#DejaVuSans-30"/>
      </g>
     </g>
    </g>
    <g id="xtick_5">
     <g id="line2d_5">
      <g>
       <use style="stroke:#000000;stroke-width:0.8;" x="236.058482" xlink:href="#m528c8c7b90" y="307.584"/>
      </g>
     </g>
     <g id="text_5">
      <!-- 800 -->
      <g transform="translate(226.514732 322.182437)scale(0.1 -0.1)">
       <defs>
        <path d="M 2034 2216 
Q 1584 2216 1326 1975 
Q 1069 1734 1069 1313 
Q 1069 891 1326 650 
Q 1584 409 2034 409 
Q 2484 409 2743 651 
Q 3003 894 3003 1313 
Q 3003 1734 2745 1975 
Q 2488 2216 2034 2216 
z
M 1403 2484 
Q 997 2584 770 2862 
Q 544 3141 544 3541 
Q 544 4100 942 4425 
Q 1341 4750 2034 4750 
Q 2731 4750 3128 4425 
Q 3525 4100 3525 3541 
Q 3525 3141 3298 2862 
Q 3072 2584 2669 2484 
Q 3125 2378 3379 2068 
Q 3634 1759 3634 1313 
Q 3634 634 3220 271 
Q 2806 -91 2034 -91 
Q 1263 -91 848 271 
Q 434 634 434 1313 
Q 434 1759 690 2068 
Q 947 2378 1403 2484 
z
M 1172 3481 
Q 1172 3119 1398 2916 
Q 1625 2713 2034 2713 
Q 2441 2713 2670 2916 
Q 2900 3119 2900 3481 
Q 2900 3844 2670 4047 
Q 2441 4250 2034 4250 
Q 1625 4250 1398 4047 
Q 1172 3844 1172 3481 
z
" id="DejaVuSans-38" transform="scale(0.015625)"/>
       </defs>
       <use xlink:href="#DejaVuSans-38"/>
       <use x="63.623047" xlink:href="#DejaVuSans-30"/>
       <use x="127.246094" xlink:href="#DejaVuSans-30"/>
      </g>
     </g>
    </g>
    <g id="xtick_6">
     <g id="line2d_6">
      <g>
       <use style="stroke:#000000;stroke-width:0.8;" x="276.66568" xlink:href="#m528c8c7b90" y="307.584"/>
      </g>
     </g>
     <g id="text_6">
      <!-- 1000 -->
      <g transform="translate(263.94068 322.182437)scale(0.1 -0.1)">
       <defs>
        <path d="M 794 531 
L 1825 531 
L 1825 4091 
L 703 3866 
L 703 4441 
L 1819 4666 
L 2450 4666 
L 2450 531 
L 3481 531 
L 3481 0 
L 794 0 
L 794 531 
z
" id="DejaVuSans-31" transform="scale(0.015625)"/>
       </defs>
       <use xlink:href="#DejaVuSans-31"/>
       <use x="63.623047" xlink:href="#DejaVuSans-30"/>
       <use x="127.246094" xlink:href="#DejaVuSans-30"/>
       <use x="190.869141" xlink:href="#DejaVuSans-30"/>
      </g>
     </g>
    </g>
    <g id="xtick_7">
     <g id="line2d_7">
      <g>
       <use style="stroke:#000000;stroke-width:0.8;" x="317.272877" xlink:href="#m528c8c7b90" y="307.584"/>
      </g>
     </g>
     <g id="text_7">
      <!-- 1200 -->
      <g transform="translate(304.547877 322.182437)scale(0.1 -0.1)">
       <use xlink:href="#DejaVuSans-31"/>
       <use x="63.623047" xlink:href="#DejaVuSans-32"/>
       <use x="127.246094" xlink:href="#DejaVuSans-30"/>
       <use x="190.869141" xlink:href="#DejaVuSans-30"/>
      </g>
     </g>
    </g>
    <g id="xtick_8">
     <g id="line2d_8">
      <g>
       <use style="stroke:#000000;stroke-width:0.8;" x="357.880075" xlink:href="#m528c8c7b90" y="307.584"/>
      </g>
     </g>
     <g id="text_8">
      <!-- 1400 -->
      <g transform="translate(345.155075 322.182437)scale(0.1 -0.1)">
       <use xlink:href="#DejaVuSans-31"/>
       <use x="63.623047" xlink:href="#DejaVuSans-34"/>
       <use x="127.246094" xlink:href="#DejaVuSans-30"/>
       <use x="190.869141" xlink:href="#DejaVuSans-30"/>
      </g>
     </g>
    </g>
    <g id="xtick_9">
     <g id="line2d_9">
      <g>
       <use style="stroke:#000000;stroke-width:0.8;" x="398.487273" xlink:href="#m528c8c7b90" y="307.584"/>
      </g>
     </g>
     <g id="text_9">
      <!-- 1600 -->
      <g transform="translate(385.762273 322.182437)scale(0.1 -0.1)">
       <use xlink:href="#DejaVuSans-31"/>
       <use x="63.623047" xlink:href="#DejaVuSans-36"/>
       <use x="127.246094" xlink:href="#DejaVuSans-30"/>
       <use x="190.869141" xlink:href="#DejaVuSans-30"/>
      </g>
     </g>
    </g>
    <g id="text_10">
     <!-- Epoch -->
     <g transform="translate(213.193594 339.659781)scale(0.15 -0.15)">
      <defs>
       <path d="M 628 4666 
L 3578 4666 
L 3578 4134 
L 1259 4134 
L 1259 2753 
L 3481 2753 
L 3481 2222 
L 1259 2222 
L 1259 531 
L 3634 531 
L 3634 0 
L 628 0 
L 628 4666 
z
" id="DejaVuSans-45" transform="scale(0.015625)"/>
       <path d="M 1159 525 
L 1159 -1331 
L 581 -1331 
L 581 3500 
L 1159 3500 
L 1159 2969 
Q 1341 3281 1617 3432 
Q 1894 3584 2278 3584 
Q 2916 3584 3314 3078 
Q 3713 2572 3713 1747 
Q 3713 922 3314 415 
Q 2916 -91 2278 -91 
Q 1894 -91 1617 61 
Q 1341 213 1159 525 
z
M 3116 1747 
Q 3116 2381 2855 2742 
Q 2594 3103 2138 3103 
Q 1681 3103 1420 2742 
Q 1159 2381 1159 1747 
Q 1159 1113 1420 752 
Q 1681 391 2138 391 
Q 2594 391 2855 752 
Q 3116 1113 3116 1747 
z
" id="DejaVuSans-70" transform="scale(0.015625)"/>
       <path d="M 1959 3097 
Q 1497 3097 1228 2736 
Q 959 2375 959 1747 
Q 959 1119 1226 758 
Q 1494 397 1959 397 
Q 2419 397 2687 759 
Q 2956 1122 2956 1747 
Q 2956 2369 2687 2733 
Q 2419 3097 1959 3097 
z
M 1959 3584 
Q 2709 3584 3137 3096 
Q 3566 2609 3566 1747 
Q 3566 888 3137 398 
Q 2709 -91 1959 -91 
Q 1206 -91 779 398 
Q 353 888 353 1747 
Q 353 2609 779 3096 
Q 1206 3584 1959 3584 
z
" id="DejaVuSans-6f" transform="scale(0.015625)"/>
       <path d="M 3122 3366 
L 3122 2828 
Q 2878 2963 2633 3030 
Q 2388 3097 2138 3097 
Q 1578 3097 1268 2742 
Q 959 2388 959 1747 
Q 959 1106 1268 751 
Q 1578 397 2138 397 
Q 2388 397 2633 464 
Q 2878 531 3122 666 
L 3122 134 
Q 2881 22 2623 -34 
Q 2366 -91 2075 -91 
Q 1284 -91 818 406 
Q 353 903 353 1747 
Q 353 2603 823 3093 
Q 1294 3584 2113 3584 
Q 2378 3584 2631 3529 
Q 2884 3475 3122 3366 
z
" id="DejaVuSans-63" transform="scale(0.015625)"/>
       <path d="M 3513 2113 
L 3513 0 
L 2938 0 
L 2938 2094 
Q 2938 2591 2744 2837 
Q 2550 3084 2163 3084 
Q 1697 3084 1428 2787 
Q 1159 2491 1159 1978 
L 1159 0 
L 581 0 
L 581 4863 
L 1159 4863 
L 1159 2956 
Q 1366 3272 1645 3428 
Q 1925 3584 2291 3584 
Q 2894 3584 3203 3211 
Q 3513 2838 3513 2113 
z
" id="DejaVuSans-68" transform="scale(0.015625)"/>
      </defs>
      <use xlink:href="#DejaVuSans-45"/>
      <use x="63.183594" xlink:href="#DejaVuSans-70"/>
      <use x="126.660156" xlink:href="#DejaVuSans-6f"/>
      <use x="187.841797" xlink:href="#DejaVuSans-63"/>
      <use x="242.822266" xlink:href="#DejaVuSans-68"/>
     </g>
    </g>
   </g>
   <g id="matplotlib.axis_2">
    <g id="ytick_1">
     <g id="line2d_10">
      <defs>
       <path d="M 0 0 
L -3.5 0 
" id="m3f54ca5057" style="stroke:#000000;stroke-width:0.8;"/>
      </defs>
      <g>
       <use style="stroke:#000000;stroke-width:0.8;" x="57.6" xlink:href="#m3f54ca5057" y="301.118708"/>
      </g>
     </g>
     <g id="text_11">
      <!-- −0.25 -->
      <g transform="translate(19.954687 304.917927)scale(0.1 -0.1)">
       <defs>
        <path d="M 678 2272 
L 4684 2272 
L 4684 1741 
L 678 1741 
L 678 2272 
z
" id="DejaVuSans-2212" transform="scale(0.015625)"/>
        <path d="M 684 794 
L 1344 794 
L 1344 0 
L 684 0 
L 684 794 
z
" id="DejaVuSans-2e" transform="scale(0.015625)"/>
        <path d="M 691 4666 
L 3169 4666 
L 3169 4134 
L 1269 4134 
L 1269 2991 
Q 1406 3038 1543 3061 
Q 1681 3084 1819 3084 
Q 2600 3084 3056 2656 
Q 3513 2228 3513 1497 
Q 3513 744 3044 326 
Q 2575 -91 1722 -91 
Q 1428 -91 1123 -41 
Q 819 9 494 109 
L 494 744 
Q 775 591 1075 516 
Q 1375 441 1709 441 
Q 2250 441 2565 725 
Q 2881 1009 2881 1497 
Q 2881 1984 2565 2268 
Q 2250 2553 1709 2553 
Q 1456 2553 1204 2497 
Q 953 2441 691 2322 
L 691 4666 
z
" id="DejaVuSans-35" transform="scale(0.015625)"/>
       </defs>
       <use xlink:href="#DejaVuSans-2212"/>
       <use x="83.789062" xlink:href="#DejaVuSans-30"/>
       <use x="147.412109" xlink:href="#DejaVuSans-2e"/>
       <use x="179.199219" xlink:href="#DejaVuSans-32"/>
       <use x="242.822266" xlink:href="#DejaVuSans-35"/>
      </g>
     </g>
    </g>
    <g id="ytick_2">
     <g id="line2d_11">
      <g>
       <use style="stroke:#000000;stroke-width:0.8;" x="57.6" xlink:href="#m3f54ca5057" y="251.609079"/>
      </g>
     </g>
     <g id="text_12">
      <!-- −0.20 -->
      <g transform="translate(19.954687 255.408298)scale(0.1 -0.1)">
       <use xlink:href="#DejaVuSans-2212"/>
       <use x="83.789062" xlink:href="#DejaVuSans-30"/>
       <use x="147.412109" xlink:href="#DejaVuSans-2e"/>
       <use x="179.199219" xlink:href="#DejaVuSans-32"/>
       <use x="242.822266" xlink:href="#DejaVuSans-30"/>
      </g>
     </g>
    </g>
    <g id="ytick_3">
     <g id="line2d_12">
      <g>
       <use style="stroke:#000000;stroke-width:0.8;" x="57.6" xlink:href="#m3f54ca5057" y="202.099449"/>
      </g>
     </g>
     <g id="text_13">
      <!-- −0.15 -->
      <g transform="translate(19.954687 205.898668)scale(0.1 -0.1)">
       <use xlink:href="#DejaVuSans-2212"/>
       <use x="83.789062" xlink:href="#DejaVuSans-30"/>
       <use x="147.412109" xlink:href="#DejaVuSans-2e"/>
       <use x="179.199219" xlink:href="#DejaVuSans-31"/>
       <use x="242.822266" xlink:href="#DejaVuSans-35"/>
      </g>
     </g>
    </g>
    <g id="ytick_4">
     <g id="line2d_13">
      <g>
       <use style="stroke:#000000;stroke-width:0.8;" x="57.6" xlink:href="#m3f54ca5057" y="152.58982"/>
      </g>
     </g>
     <g id="text_14">
      <!-- −0.10 -->
      <g transform="translate(19.954687 156.389039)scale(0.1 -0.1)">
       <use xlink:href="#DejaVuSans-2212"/>
       <use x="83.789062" xlink:href="#DejaVuSans-30"/>
       <use x="147.412109" xlink:href="#DejaVuSans-2e"/>
       <use x="179.199219" xlink:href="#DejaVuSans-31"/>
       <use x="242.822266" xlink:href="#DejaVuSans-30"/>
      </g>
     </g>
    </g>
    <g id="ytick_5">
     <g id="line2d_14">
      <g>
       <use style="stroke:#000000;stroke-width:0.8;" x="57.6" xlink:href="#m3f54ca5057" y="103.08019"/>
      </g>
     </g>
     <g id="text_15">
      <!-- −0.05 -->
      <g transform="translate(19.954687 106.879409)scale(0.1 -0.1)">
       <use xlink:href="#DejaVuSans-2212"/>
       <use x="83.789062" xlink:href="#DejaVuSans-30"/>
       <use x="147.412109" xlink:href="#DejaVuSans-2e"/>
       <use x="179.199219" xlink:href="#DejaVuSans-30"/>
       <use x="242.822266" xlink:href="#DejaVuSans-35"/>
      </g>
     </g>
    </g>
    <g id="ytick_6">
     <g id="line2d_15">
      <g>
       <use style="stroke:#000000;stroke-width:0.8;" x="57.6" xlink:href="#m3f54ca5057" y="53.570561"/>
      </g>
     </g>
     <g id="text_16">
      <!-- 0.00 -->
      <g transform="translate(28.334375 57.36978)scale(0.1 -0.1)">
       <use xlink:href="#DejaVuSans-30"/>
       <use x="63.623047" xlink:href="#DejaVuSans-2e"/>
       <use x="95.410156" xlink:href="#DejaVuSans-30"/>
       <use x="159.033203" xlink:href="#DejaVuSans-30"/>
      </g>
     </g>
    </g>
   </g>
   <g id="line2d_16">
    <path clip-path="url(#p3c540aac2e)" d="M 73.832727 53.570528 
L 96.572758 53.570092 
L 108.754917 53.652707 
L 109.364025 53.951579 
L 109.770097 54.851635 
L 109.973133 54.296962 
L 110.176169 55.055039 
L 110.582241 57.356413 
L 110.785277 58.22599 
L 110.988313 58.209918 
L 111.191349 59.185292 
L 111.394385 61.164865 
L 111.597421 64.457312 
L 111.800457 64.222847 
L 112.003493 64.669844 
L 112.206529 69.030602 
L 112.409565 69.595116 
L 112.815637 59.863054 
L 113.018673 59.61906 
L 113.424745 69.669729 
L 113.627781 70.492736 
L 113.830817 69.059872 
L 114.033853 71.760884 
L 114.236889 69.328111 
L 114.439925 77.563659 
L 114.642961 70.755215 
L 114.845997 78.848322 
L 115.049033 80.985414 
L 115.252069 84.379295 
L 115.455105 76.187038 
L 115.658141 76.876105 
L 115.861177 79.978675 
L 116.064213 77.580078 
L 116.267249 76.901497 
L 116.470285 77.953973 
L 116.673321 82.538626 
L 116.876357 75.551139 
L 117.079393 74.135416 
L 117.282429 74.542483 
L 117.485465 87.604109 
L 117.688501 81.955296 
L 117.891537 66.167186 
L 118.094573 76.796494 
L 118.297609 70.828438 
L 118.500645 81.877864 
L 118.703681 77.440319 
L 118.906717 84.478261 
L 119.109753 84.760494 
L 119.312789 84.367946 
L 119.515825 79.824529 
L 119.718861 89.818412 
L 119.921897 85.025348 
L 120.124933 90.797381 
L 120.327969 79.750095 
L 120.531005 83.686523 
L 120.937077 95.138834 
L 121.140113 91.193534 
L 121.343149 76.381233 
L 121.546185 86.01271 
L 121.749221 81.894306 
L 121.952257 93.500146 
L 122.155293 88.012968 
L 122.358329 87.621407 
L 122.561364 95.49735 
L 122.7644 94.401489 
L 122.967436 90.511865 
L 123.170472 99.979029 
L 123.373508 92.169472 
L 123.576544 95.150461 
L 123.77958 87.510627 
L 123.982616 95.924285 
L 124.388688 90.272576 
L 124.591724 99.697161 
L 124.79476 95.733581 
L 124.997796 104.44888 
L 125.200832 92.474809 
L 125.403868 88.608801 
L 125.606904 90.978947 
L 125.80994 89.058679 
L 126.012976 90.50139 
L 126.216012 100.988844 
L 126.419048 91.897887 
L 126.622084 93.185974 
L 126.82512 90.791672 
L 127.028156 95.771642 
L 127.231192 103.63384 
L 127.434228 100.608787 
L 127.637264 102.938886 
L 127.8403 101.987337 
L 128.043336 112.70269 
L 128.246372 112.581323 
L 128.449408 108.35515 
L 128.652444 110.478976 
L 128.85548 107.62039 
L 129.058516 111.500864 
L 129.261552 99.608176 
L 129.464588 107.136297 
L 129.667624 102.431435 
L 129.87066 102.833834 
L 130.073696 94.602166 
L 130.276732 102.17773 
L 130.479768 88.780174 
L 130.682804 97.1224 
L 130.88584 111.857115 
L 131.088876 104.781283 
L 131.291912 106.864825 
L 132.104056 97.009444 
L 132.307092 105.036167 
L 132.510128 103.943629 
L 132.713164 105.567752 
L 132.9162 125.352991 
L 133.322272 112.804336 
L 133.525308 119.375825 
L 133.728344 111.5428 
L 133.93138 114.24127 
L 134.540488 92.750996 
L 135.149596 115.866361 
L 135.352632 101.688691 
L 135.555668 112.716185 
L 135.758704 115.478006 
L 135.96174 114.370764 
L 136.164776 109.24976 
L 136.367812 124.9416 
L 136.570848 111.583324 
L 136.773884 122.262871 
L 137.179956 110.137809 
L 137.382992 121.035489 
L 137.586028 98.03155 
L 137.789064 108.971605 
L 137.9921 105.416801 
L 138.195136 120.558665 
L 138.398172 108.346591 
L 138.601208 106.967952 
L 138.804244 117.543646 
L 139.00728 115.22359 
L 139.210316 131.055969 
L 139.616388 118.818647 
L 139.819424 117.12797 
L 140.022459 129.82683 
L 140.225495 131.987976 
L 140.428531 114.083288 
L 140.631567 127.791878 
L 140.834603 120.381541 
L 141.037639 128.563308 
L 141.240675 119.320876 
L 141.443711 128.503639 
L 141.646747 116.054295 
L 141.849783 119.499911 
L 142.052819 134.533222 
L 142.255855 116.91006 
L 142.458891 119.516846 
L 142.661927 111.307661 
L 142.864963 115.078402 
L 143.067999 128.85828 
L 143.474071 137.074504 
L 143.880143 119.76392 
L 144.083179 129.791521 
L 144.286215 133.413814 
L 144.489251 146.521436 
L 145.098359 125.659668 
L 145.301395 134.488715 
L 145.504431 135.729312 
L 145.707467 115.137204 
L 145.910503 128.364125 
L 146.113539 127.186547 
L 146.316575 120.705677 
L 146.519611 135.88334 
L 146.722647 117.813615 
L 146.925683 139.500482 
L 147.331755 117.569778 
L 147.737827 151.459897 
L 147.940863 138.237459 
L 148.143899 147.121969 
L 148.346935 115.796862 
L 148.549971 133.222668 
L 148.753007 124.386686 
L 148.956043 131.096587 
L 149.159079 154.43151 
L 149.362115 146.436005 
L 149.565151 144.147756 
L 149.768187 131.486875 
L 150.174259 156.808701 
L 150.377295 155.614859 
L 150.783367 143.969187 
L 150.986403 133.153101 
L 151.189439 162.685735 
L 151.392475 145.791069 
L 151.595511 149.104767 
L 151.798547 149.44898 
L 152.001583 165.896676 
L 152.204619 134.971178 
L 152.407655 132.808558 
L 152.610691 152.383537 
L 152.813727 153.612081 
L 153.016763 146.068648 
L 153.219799 130.651107 
L 153.422835 143.414914 
L 153.625871 142.237138 
L 153.828907 137.260166 
L 154.031943 140.210272 
L 154.234979 139.451095 
L 154.438015 125.691244 
L 154.844087 155.554476 
L 155.047123 153.356766 
L 155.250159 137.813447 
L 155.453195 152.3417 
L 155.656231 140.352621 
L 155.859267 151.016491 
L 156.062303 141.223138 
L 156.265339 150.078033 
L 156.468375 143.375149 
L 156.671411 151.074872 
L 156.874447 138.369305 
L 157.077483 143.130317 
L 157.483554 171.723942 
L 157.889626 154.778144 
L 158.092662 156.528567 
L 158.295698 134.561348 
L 158.498734 150.550745 
L 158.70177 149.775494 
L 158.904806 143.421399 
L 159.107842 129.523903 
L 159.310878 151.981976 
L 159.513914 144.183871 
L 159.71695 144.949355 
L 159.919986 148.100321 
L 160.123022 140.634642 
L 160.326058 141.93051 
L 160.529094 163.789446 
L 160.73213 123.052562 
L 160.935166 173.013309 
L 161.138202 149.567523 
L 161.341238 155.709543 
L 161.544274 154.907905 
L 161.74731 148.495567 
L 161.950346 199.819881 
L 162.153382 129.328718 
L 162.356418 151.311096 
L 162.76249 157.364465 
L 162.965526 152.756899 
L 163.168562 158.425488 
L 163.371598 169.108941 
L 163.574634 157.562915 
L 163.77767 156.091789 
L 163.980706 164.315309 
L 164.183742 147.213434 
L 164.386778 169.907356 
L 164.589814 171.211156 
L 164.995886 175.754284 
L 165.198922 167.967487 
L 165.401958 148.013677 
L 165.604994 154.89731 
L 165.80803 139.560538 
L 166.011066 140.986781 
L 166.214102 172.281614 
L 166.417138 176.998483 
L 166.620174 152.694846 
L 166.82321 161.991855 
L 167.229282 147.073435 
L 167.432318 167.995111 
L 167.635354 156.714452 
L 167.83839 155.832067 
L 168.041426 169.177764 
L 168.447498 133.459523 
L 168.650534 157.996356 
L 168.85357 155.388334 
L 169.056606 167.297717 
L 169.259642 162.164741 
L 169.462678 145.993435 
L 169.665714 169.002219 
L 169.86875 140.880783 
L 170.071786 168.906384 
L 170.274822 163.445683 
L 170.477858 168.436137 
L 170.88393 137.44242 
L 171.086966 162.639145 
L 171.290002 127.173228 
L 171.493038 149.653316 
L 171.696074 140.438155 
L 171.89911 142.554634 
L 172.102146 158.613001 
L 172.305182 150.951679 
L 172.508218 150.962961 
L 172.711254 159.25277 
L 172.91429 154.613788 
L 173.117326 182.603975 
L 173.320362 144.523211 
L 173.523398 170.322903 
L 173.726434 150.272321 
L 173.92947 152.50994 
L 174.132506 177.910832 
L 174.335542 152.392763 
L 174.538578 177.914894 
L 174.741614 167.646774 
L 174.944649 167.647016 
L 175.147685 171.925935 
L 175.350721 148.022779 
L 175.553757 163.758776 
L 175.756793 166.089255 
L 175.959829 202.331547 
L 176.162865 158.592257 
L 176.568937 181.894926 
L 176.771973 164.567266 
L 176.975009 177.54556 
L 177.178045 178.018275 
L 177.584117 191.0701 
L 177.990189 150.511621 
L 178.193225 181.820028 
L 178.396261 155.080567 
L 178.599297 152.276108 
L 179.005369 176.10427 
L 179.208405 154.157683 
L 179.411441 169.724712 
L 179.614477 160.596786 
L 179.817513 173.63289 
L 180.020549 170.364922 
L 180.223585 157.193846 
L 180.426621 192.281037 
L 180.629657 145.42696 
L 180.832693 181.55043 
L 181.035729 156.283983 
L 181.238765 161.602666 
L 181.441801 180.510785 
L 181.644837 186.534401 
L 181.847873 162.843631 
L 182.050909 156.693764 
L 182.253945 154.721895 
L 182.456981 172.025201 
L 182.660017 198.806124 
L 182.863053 172.292427 
L 183.066089 179.649933 
L 183.269125 196.868544 
L 183.472161 154.74288 
L 183.675197 182.033584 
L 183.878233 154.549188 
L 184.081269 160.185897 
L 184.284305 158.997067 
L 184.487341 188.698212 
L 184.690377 188.414232 
L 184.893413 181.727589 
L 185.096449 165.055029 
L 185.299485 159.755094 
L 185.502521 177.661692 
L 185.705557 169.373853 
L 185.908593 186.128987 
L 186.111629 163.544918 
L 186.314665 162.849037 
L 186.517701 164.153644 
L 186.720737 207.297684 
L 186.923773 185.809675 
L 187.126809 145.598012 
L 187.329845 193.649022 
L 187.532881 196.053593 
L 188.141989 150.337653 
L 188.548061 183.05225 
L 188.751097 183.952337 
L 188.954133 149.476023 
L 189.360205 192.13701 
L 189.563241 176.889138 
L 189.766277 214.794499 
L 190.172349 148.484916 
L 190.578421 177.337719 
L 190.781457 187.42265 
L 190.984493 170.169269 
L 191.390565 203.836891 
L 191.593601 187.923597 
L 191.796637 182.555595 
L 191.999673 187.088356 
L 192.202709 195.816738 
L 192.405744 164.288008 
L 192.60878 199.907688 
L 193.014852 180.365359 
L 193.420924 166.698071 
L 193.826996 197.417639 
L 194.030032 172.8547 
L 194.436104 168.435179 
L 194.63914 160.131594 
L 194.842176 183.737294 
L 195.045212 155.479488 
L 195.248248 154.524475 
L 195.451284 164.845857 
L 195.65432 150.631784 
L 195.857356 193.029258 
L 196.060392 187.883494 
L 196.263428 164.256633 
L 196.466464 185.515067 
L 196.6695 180.673954 
L 196.872536 200.783953 
L 197.075572 198.005891 
L 197.278608 191.295865 
L 197.481644 211.203568 
L 197.68468 183.756481 
L 197.887716 219.571735 
L 198.090752 183.106606 
L 198.293788 182.069152 
L 198.496824 190.956661 
L 198.69986 145.900854 
L 198.902896 203.76532 
L 199.105932 182.712235 
L 199.308968 196.380537 
L 199.512004 186.912117 
L 199.71504 192.386853 
L 199.918076 169.390965 
L 200.121112 162.931796 
L 200.324148 164.095075 
L 200.527184 173.117283 
L 200.73022 191.925592 
L 200.933256 180.304502 
L 201.136292 202.232328 
L 201.542364 178.636099 
L 201.7454 207.220495 
L 201.948436 194.759463 
L 202.151472 189.501395 
L 202.557544 158.917305 
L 202.76058 210.382844 
L 202.963616 203.647118 
L 203.166652 177.264491 
L 203.369688 180.300139 
L 203.572724 153.950652 
L 203.77576 181.671041 
L 203.978796 170.683972 
L 204.181832 187.541348 
L 204.384868 167.129352 
L 204.587904 165.88515 
L 204.79094 154.0742 
L 204.993976 185.102862 
L 205.197012 180.737981 
L 205.400048 180.916025 
L 205.603084 178.911144 
L 205.80612 169.568977 
L 206.009156 165.816388 
L 206.212192 250.705592 
L 206.415228 189.043804 
L 206.618264 205.30022 
L 206.8213 203.459168 
L 207.024336 214.364164 
L 207.430408 152.329134 
L 207.83648 204.031173 
L 208.039516 201.953434 
L 208.445588 156.504273 
L 208.648624 192.900436 
L 208.85166 197.029306 
L 209.054696 228.547067 
L 209.257732 181.055985 
L 209.663804 209.91274 
L 209.86684 200.000851 
L 210.069875 175.196072 
L 210.272911 178.21632 
L 210.475947 194.698187 
L 210.678983 184.587496 
L 210.882019 153.523981 
L 211.085055 186.913589 
L 211.288091 196.805908 
L 211.491127 183.901049 
L 211.694163 195.236941 
L 211.897199 169.602226 
L 212.100235 172.422728 
L 212.303271 192.878213 
L 212.506307 189.024215 
L 212.709343 192.915956 
L 212.912379 201.143772 
L 213.115415 174.266593 
L 213.318451 216.662229 
L 213.521487 211.503815 
L 213.724523 187.488516 
L 213.927559 231.958763 
L 214.130595 220.021185 
L 214.333631 187.704686 
L 214.536667 180.583712 
L 214.739703 178.421054 
L 214.942739 218.186388 
L 215.145775 188.174015 
L 215.348811 192.252816 
L 215.551847 228.419807 
L 215.754883 160.030893 
L 215.957919 206.30243 
L 216.160955 185.119655 
L 216.363991 184.36163 
L 216.567027 177.066243 
L 216.770063 185.393716 
L 216.973099 178.661713 
L 217.176135 182.383894 
L 217.379171 172.266924 
L 217.582207 189.993609 
L 217.785243 164.344091 
L 217.988279 196.720786 
L 218.191315 176.230739 
L 218.597387 178.177044 
L 218.800423 204.528469 
L 219.003459 172.936149 
L 219.206495 201.928989 
L 219.612567 180.796781 
L 219.815603 231.555818 
L 220.018639 221.001505 
L 220.221675 151.332041 
L 220.627747 200.887955 
L 220.830783 189.07544 
L 221.033819 186.991918 
L 221.236855 193.563631 
L 221.439891 220.22834 
L 221.642927 199.259139 
L 221.845963 237.990436 
L 222.048999 194.164759 
L 222.252035 193.259828 
L 222.455071 197.2881 
L 222.658107 185.043393 
L 222.861143 207.504332 
L 223.064179 209.299053 
L 223.267215 183.444655 
L 223.470251 220.048384 
L 223.673287 183.727877 
L 223.876323 183.169479 
L 224.079359 203.740876 
L 224.282395 178.927783 
L 224.485431 192.646985 
L 224.891503 170.015826 
L 225.094539 210.643088 
L 225.297575 170.175002 
L 225.500611 159.768867 
L 225.906683 209.982873 
L 226.312755 191.547348 
L 226.515791 183.562117 
L 226.718827 189.514494 
L 226.921863 184.327854 
L 227.124899 234.537171 
L 227.327935 207.239547 
L 227.53097 207.959883 
L 227.734006 226.145737 
L 227.937042 189.613664 
L 228.140078 178.765373 
L 228.343114 191.904099 
L 228.54615 217.021055 
L 228.749186 182.904942 
L 228.952222 206.697526 
L 229.155258 200.177747 
L 229.358294 214.583589 
L 229.56133 196.885707 
L 229.764366 198.983334 
L 229.967402 194.675534 
L 230.170438 180.784586 
L 230.373474 218.589551 
L 230.57651 227.652869 
L 230.779546 213.404382 
L 230.982582 210.30175 
L 231.185618 189.686115 
L 231.388654 204.697446 
L 231.794726 173.835768 
L 231.997762 214.832989 
L 232.200798 143.098245 
L 232.403834 184.35675 
L 232.60687 178.292413 
L 232.809906 198.64666 
L 233.012942 147.781136 
L 233.419014 193.354419 
L 233.62205 207.014962 
L 233.825086 230.035875 
L 234.028122 207.567005 
L 234.231158 233.546184 
L 234.434194 233.832221 
L 234.63723 182.84569 
L 234.840266 188.125985 
L 235.043302 187.407392 
L 235.246338 206.798503 
L 235.449374 212.263362 
L 235.65241 175.167955 
L 235.855446 195.106393 
L 236.058482 193.244514 
L 236.261518 209.202934 
L 236.66759 177.101898 
L 236.870626 194.712787 
L 237.073662 189.658611 
L 237.276698 169.553842 
L 237.68277 203.578416 
L 237.885806 167.642819 
L 238.291878 151.217488 
L 238.69795 207.915008 
L 238.900986 202.335775 
L 239.104022 202.574484 
L 239.307058 222.776661 
L 239.510094 183.082927 
L 239.71313 198.810762 
L 240.322238 181.583855 
L 240.525274 209.461113 
L 240.72831 181.945128 
L 240.931346 186.482292 
L 241.134382 184.778824 
L 241.337418 217.560777 
L 241.540454 213.107979 
L 241.74349 174.200574 
L 241.946526 201.045329 
L 242.149562 212.107369 
L 242.352598 213.986292 
L 242.555634 220.319598 
L 242.75867 200.71489 
L 242.961706 208.647141 
L 243.164742 185.623752 
L 243.570814 247.119621 
L 243.77385 194.510638 
L 243.976886 173.961697 
L 244.179922 178.338425 
L 244.382958 195.342756 
L 244.585994 195.592709 
L 244.78903 192.672463 
L 244.992065 192.388185 
L 245.398137 205.801527 
L 245.804209 154.349905 
L 246.007245 209.207262 
L 246.210281 216.957195 
L 246.413317 187.690768 
L 246.616353 203.334842 
L 247.022425 173.879701 
L 247.225461 186.569253 
L 247.428497 171.009842 
L 247.631533 165.869451 
L 247.834569 223.181243 
L 248.037605 180.460979 
L 248.240641 167.781814 
L 248.443677 166.529286 
L 248.646713 219.54281 
L 248.849749 221.821175 
L 249.052785 209.814211 
L 249.255821 215.013177 
L 249.458857 169.070497 
L 249.661893 170.933497 
L 249.864929 174.887782 
L 250.067965 215.778659 
L 250.271001 196.157795 
L 250.474037 220.532955 
L 250.677073 176.012331 
L 250.880109 175.836123 
L 251.083145 150.135305 
L 251.286181 158.860922 
L 251.489217 188.016631 
L 251.692253 182.176219 
L 251.895289 222.750833 
L 252.098325 234.613529 
L 252.301361 171.806982 
L 252.504397 186.282103 
L 252.707433 186.458258 
L 252.910469 211.848094 
L 253.113505 188.659686 
L 253.316541 216.999379 
L 253.519577 191.269796 
L 253.722613 193.945656 
L 253.925649 191.954485 
L 254.128685 215.993288 
L 254.331721 195.398785 
L 254.534757 235.494903 
L 254.940829 194.323196 
L 255.143865 202.290097 
L 255.346901 174.832139 
L 255.752973 213.115303 
L 255.956009 187.44302 
L 256.159045 200.642008 
L 256.362081 195.770127 
L 256.565117 199.469352 
L 256.768153 177.737465 
L 256.971189 211.326566 
L 257.174225 152.170163 
L 257.377261 216.212532 
L 257.580297 189.156529 
L 257.783333 195.462215 
L 257.986369 223.44959 
L 258.189405 226.325782 
L 258.392441 186.484248 
L 258.595477 187.261673 
L 258.798513 167.129609 
L 259.001549 193.22901 
L 259.204585 202.738717 
L 259.407621 193.544155 
L 259.610657 209.033971 
L 259.813693 205.81982 
L 260.016729 191.092034 
L 260.219765 233.346297 
L 260.422801 224.27753 
L 260.625837 229.810984 
L 261.031909 159.035702 
L 261.234945 206.350164 
L 261.437981 214.938602 
L 261.641017 200.789432 
L 261.844053 201.832238 
L 262.250125 248.278406 
L 262.45316 207.722445 
L 262.656196 232.584076 
L 262.859232 210.413829 
L 263.062268 206.20553 
L 263.265304 218.587667 
L 263.46834 211.022311 
L 263.671376 190.740847 
L 264.077448 199.832246 
L 264.280484 211.355613 
L 264.48352 178.344956 
L 264.686556 172.756353 
L 264.889592 215.790144 
L 265.092628 196.085023 
L 265.295664 191.444572 
L 265.701736 231.049706 
L 265.904772 212.653012 
L 266.107808 206.356223 
L 266.51388 187.571294 
L 266.716916 231.479662 
L 267.122988 203.070911 
L 267.326024 222.138356 
L 267.52906 213.679531 
L 267.732096 217.970069 
L 267.935132 188.273754 
L 268.138168 194.794599 
L 268.341204 261.68553 
L 268.54424 193.932151 
L 268.747276 225.363445 
L 268.950312 197.039118 
L 269.153348 221.249427 
L 269.356384 202.09352 
L 269.55942 213.514454 
L 269.762456 244.782104 
L 269.965492 230.608928 
L 270.168528 233.004109 
L 270.371564 233.257048 
L 270.5746 231.5735 
L 270.777636 200.230564 
L 270.980672 257.367647 
L 271.386744 156.711272 
L 271.58978 184.79759 
L 271.792816 157.874982 
L 271.995852 230.687108 
L 272.401924 172.973536 
L 272.60496 230.032236 
L 272.807996 190.788918 
L 273.011032 195.165391 
L 273.214068 219.184454 
L 273.417104 174.537877 
L 273.62014 234.528864 
L 273.823176 165.415783 
L 274.026212 191.161061 
L 274.229248 202.56831 
L 274.432284 193.484073 
L 274.63532 190.27367 
L 274.838356 202.407791 
L 275.041392 178.633887 
L 275.244428 184.088222 
L 275.447464 236.869866 
L 275.6505 193.829875 
L 275.853536 178.826798 
L 276.056572 209.929718 
L 276.259608 217.56074 
L 276.462644 220.563955 
L 276.66568 235.829738 
L 277.071752 171.781454 
L 277.274788 203.634279 
L 277.477824 187.681722 
L 277.68086 214.338591 
L 277.883896 178.473577 
L 278.086932 236.11278 
L 278.289968 206.06262 
L 278.493004 214.373828 
L 278.69604 205.164321 
L 278.899076 229.107482 
L 279.102112 181.362545 
L 279.305148 199.743036 
L 279.508184 206.424614 
L 279.71122 194.831012 
L 279.914256 232.111713 
L 280.320327 223.367545 
L 280.523363 160.509432 
L 280.726399 214.857611 
L 280.929435 187.189857 
L 281.132471 182.553752 
L 281.335507 229.44933 
L 281.538543 239.559493 
L 281.741579 178.168284 
L 282.147651 214.51923 
L 282.350687 203.080672 
L 282.553723 179.873636 
L 282.756759 174.202295 
L 282.959795 221.282585 
L 283.162831 202.570179 
L 283.365867 241.481279 
L 283.568903 193.805088 
L 283.771939 219.236689 
L 283.974975 184.047144 
L 284.178011 227.200699 
L 284.381047 202.178289 
L 284.584083 206.358146 
L 284.787119 193.036757 
L 284.990155 256.746248 
L 285.193191 167.864069 
L 285.599263 240.612458 
L 285.802299 206.993746 
L 286.005335 244.224424 
L 286.208371 212.635746 
L 286.411407 221.287757 
L 286.817479 200.407107 
L 287.020515 219.157776 
L 287.223551 200.299898 
L 287.629623 204.416609 
L 287.832659 168.123943 
L 288.035695 166.078324 
L 288.238731 247.639336 
L 288.441767 166.755395 
L 288.644803 181.007285 
L 288.847839 183.172854 
L 289.050875 189.645664 
L 289.253911 204.151163 
L 289.456947 192.352315 
L 289.659983 202.043584 
L 289.863019 190.360367 
L 290.066055 186.734548 
L 290.269091 229.321277 
L 290.472127 222.912207 
L 290.675163 192.635056 
L 290.878199 197.257312 
L 291.081235 198.540209 
L 291.284271 178.992321 
L 291.487307 177.402217 
L 291.690343 221.164962 
L 291.893379 184.279891 
L 292.096415 177.710972 
L 292.299451 179.905031 
L 292.502487 186.855874 
L 292.705523 182.154395 
L 292.908559 215.824709 
L 293.111595 192.616607 
L 293.720703 219.156652 
L 293.923739 191.200826 
L 294.126775 225.261871 
L 294.329811 181.614304 
L 294.532847 198.987495 
L 294.735883 203.354694 
L 294.938919 231.417409 
L 295.141955 196.064412 
L 295.344991 210.178117 
L 295.548027 205.408305 
L 295.751063 207.734392 
L 295.954099 193.542999 
L 296.157135 212.786881 
L 296.563207 187.76507 
L 296.766243 218.99338 
L 297.578386 180.82318 
L 297.781422 200.146244 
L 297.984458 232.86284 
L 298.187494 192.464881 
L 298.39053 180.869274 
L 298.796602 220.826585 
L 298.999638 204.736428 
L 299.202674 206.460532 
L 299.40571 184.724617 
L 299.608746 237.590153 
L 299.811782 218.669015 
L 300.014818 256.647712 
L 300.217854 258.510936 
L 300.42089 194.708126 
L 300.623926 225.893152 
L 300.826962 224.729233 
L 301.029998 204.16157 
L 301.233034 196.98914 
L 301.43607 246.786869 
L 301.639106 206.160231 
L 301.842142 220.358102 
L 302.045178 202.439203 
L 302.248214 226.162924 
L 302.654286 167.979378 
L 302.857322 177.858977 
L 303.060358 216.000831 
L 303.46643 197.926286 
L 303.669466 195.44546 
L 303.872502 213.39176 
L 304.075538 207.349636 
L 304.278574 235.112006 
L 304.48161 205.635656 
L 304.684646 225.797326 
L 304.887682 221.826788 
L 305.293754 160.749177 
L 305.49679 223.524369 
L 305.699826 216.717496 
L 305.902862 222.510514 
L 306.105898 223.586027 
L 306.308934 208.395097 
L 306.51197 179.658761 
L 306.715006 200.81133 
L 306.918042 200.093522 
L 307.121078 254.607278 
L 307.324114 239.165228 
L 307.52715 187.920484 
L 307.730186 192.122661 
L 307.933222 226.703662 
L 308.339294 200.49885 
L 308.54233 210.279926 
L 308.745366 179.104624 
L 308.948402 214.694105 
L 309.354474 198.427288 
L 309.55751 169.486865 
L 309.760546 227.63461 
L 309.963582 214.237145 
L 310.166618 182.45679 
L 310.369654 224.281826 
L 310.57269 217.916461 
L 310.775726 169.847929 
L 311.181798 256.298618 
L 311.58787 158.454833 
L 311.790906 213.237414 
L 311.993942 218.545644 
L 312.196978 232.924997 
L 312.400014 188.215574 
L 312.806086 211.858858 
L 313.212158 251.76239 
L 313.415194 218.725267 
L 313.61823 260.330749 
L 313.821266 230.733932 
L 314.024302 234.741419 
L 314.227338 211.1458 
L 314.430374 202.233057 
L 314.63341 207.743975 
L 314.836446 201.774083 
L 315.039481 221.125826 
L 315.242517 188.674608 
L 315.445553 257.177439 
L 315.851625 205.257973 
L 316.054661 250.143899 
L 316.460733 216.232833 
L 316.663769 213.005346 
L 316.866805 224.920172 
L 317.069841 210.49527 
L 317.272877 278.505817 
L 317.475913 199.41402 
L 317.678949 171.684658 
L 317.881985 244.616903 
L 318.085021 185.860079 
L 318.491093 229.384324 
L 318.694129 201.117058 
L 318.897165 208.198964 
L 319.100201 221.006873 
L 319.303237 199.08973 
L 319.709309 214.879059 
L 319.912345 193.881412 
L 320.318417 227.545249 
L 320.724489 166.314711 
L 320.927525 253.105592 
L 321.130561 197.749436 
L 321.333597 228.324323 
L 321.536633 182.588728 
L 321.739669 225.37611 
L 321.942705 202.165666 
L 322.348777 240.289904 
L 322.551813 226.955902 
L 322.754849 194.778869 
L 323.160921 237.866801 
L 323.363957 167.608156 
L 323.566993 208.386134 
L 323.770029 179.913173 
L 323.973065 212.107225 
L 324.379137 200.365942 
L 324.582173 203.807087 
L 324.785209 203.7809 
L 324.988245 231.211034 
L 325.597353 196.82615 
L 325.800389 206.072283 
L 326.003425 238.662102 
L 326.409497 199.502419 
L 326.612533 238.404356 
L 326.815569 184.123957 
L 327.018605 213.007686 
L 327.221641 203.919026 
L 327.627713 228.966418 
L 327.830749 227.51395 
L 328.033785 174.776506 
L 328.236821 228.555632 
L 328.642893 184.618398 
L 328.845929 243.802789 
L 329.048965 205.560908 
L 329.252001 206.363527 
L 329.455037 216.261338 
L 329.658073 198.825968 
L 329.861109 219.76349 
L 330.064145 212.340332 
L 330.267181 211.91943 
L 330.470217 257.460673 
L 330.673253 186.380312 
L 331.079325 219.657377 
L 331.282361 206.295853 
L 331.485397 252.606568 
L 331.688433 198.702349 
L 331.891469 249.378403 
L 332.094505 198.485021 
L 332.297541 230.421326 
L 332.500576 234.708974 
L 332.703612 217.979209 
L 332.906648 188.047031 
L 333.109684 230.169612 
L 333.31272 188.693204 
L 333.515756 256.64181 
L 333.718792 189.75207 
L 333.921828 238.606774 
L 334.124864 201.61196 
L 334.3279 213.969109 
L 334.530936 185.352067 
L 335.34308 231.661093 
L 335.546116 268.051084 
L 336.155224 205.708553 
L 336.35826 230.779633 
L 336.561296 199.399226 
L 336.764332 188.433814 
L 337.170404 234.488185 
L 337.576476 199.384727 
L 337.779512 195.34431 
L 338.185584 211.920867 
L 338.591656 204.80061 
L 338.794692 251.020093 
L 338.997728 208.174815 
L 339.200764 217.541108 
L 339.4038 244.411632 
L 339.606836 215.851723 
L 339.809872 232.833195 
L 340.012908 260.546877 
L 340.215944 184.827969 
L 340.41898 231.758271 
L 340.622016 225.997435 
L 340.825052 191.339968 
L 341.231124 219.8061 
L 341.43416 204.95871 
L 341.637196 201.147974 
L 341.840232 214.015179 
L 342.043268 247.234713 
L 342.246304 203.496835 
L 342.44934 243.79198 
L 342.652376 199.55893 
L 342.855412 262.35262 
L 343.46452 176.062932 
L 343.667556 193.0551 
L 343.870592 228.484067 
L 344.073628 217.715396 
L 344.276664 241.569799 
L 345.088808 186.208512 
L 345.291844 224.735631 
L 345.49488 240.99916 
L 345.697916 226.951808 
L 345.900952 187.250971 
L 346.103988 214.790374 
L 346.307024 226.075212 
L 346.51006 212.702159 
L 346.713096 183.586942 
L 346.916132 209.724624 
L 347.119168 207.734935 
L 347.322204 212.917695 
L 347.52524 233.532205 
L 347.728276 225.974799 
L 347.931312 224.059353 
L 348.337384 193.138461 
L 348.54042 208.264393 
L 348.743456 168.111204 
L 348.946492 260.500162 
L 349.149528 212.225779 
L 349.352564 219.810645 
L 349.5556 208.569164 
L 349.758636 214.210494 
L 349.961671 239.077348 
L 350.367743 170.410599 
L 350.570779 210.108729 
L 350.773815 160.566416 
L 350.976851 199.30295 
L 351.382923 190.994663 
L 351.585959 221.795174 
L 351.788995 201.095751 
L 351.992031 202.940358 
L 352.195067 249.500887 
L 352.398103 249.852437 
L 352.601139 220.034647 
L 352.804175 211.410277 
L 353.007211 218.114451 
L 353.210247 201.970487 
L 353.413283 214.564599 
L 353.616319 183.20337 
L 353.819355 240.971926 
L 354.022391 212.227334 
L 354.225427 228.159454 
L 354.428463 232.739576 
L 354.631499 243.219633 
L 354.834535 212.265762 
L 355.037571 206.502141 
L 355.240607 245.886428 
L 355.443643 223.181116 
L 355.646679 229.148497 
L 355.849715 188.834698 
L 356.052751 248.912951 
L 356.255787 204.513705 
L 356.458823 241.139184 
L 356.661859 229.438451 
L 356.864895 199.766894 
L 357.067931 203.780032 
L 357.270967 221.258692 
L 357.474003 190.879819 
L 357.677039 190.150139 
L 357.880075 196.376174 
L 358.083111 228.121677 
L 358.286147 279.952764 
L 358.489183 211.863163 
L 358.692219 189.720472 
L 358.895255 220.367208 
L 359.098291 226.94049 
L 359.301327 208.858992 
L 359.504363 227.899645 
L 359.707399 204.899217 
L 359.910435 229.090589 
L 360.113471 195.826251 
L 360.316507 229.171074 
L 360.519543 231.304387 
L 360.722579 253.609878 
L 360.925615 185.786713 
L 361.128651 195.40484 
L 361.331687 198.313583 
L 361.534723 204.079931 
L 361.737759 201.303444 
L 361.940795 186.579058 
L 362.143831 236.98443 
L 362.346867 235.872264 
L 362.549903 181.275343 
L 362.752939 237.691319 
L 362.955975 221.877764 
L 363.159011 217.81533 
L 363.362047 228.741103 
L 363.565083 231.988388 
L 363.768119 217.951373 
L 363.971155 241.605898 
L 364.580263 177.146199 
L 364.783299 187.889756 
L 364.986335 256.231187 
L 365.189371 201.513554 
L 365.392407 241.87611 
L 365.595443 200.769396 
L 365.798479 260.725799 
L 366.001515 208.02379 
L 366.204551 221.611562 
L 366.407587 213.317963 
L 366.610623 242.505512 
L 366.813659 208.891038 
L 367.219731 222.713603 
L 367.422767 240.913878 
L 368.031874 192.405842 
L 368.23491 170.304651 
L 368.437946 218.006154 
L 368.640982 171.890194 
L 368.844018 238.538426 
L 369.047054 191.298089 
L 369.25009 187.910456 
L 369.453126 222.553766 
L 369.656162 198.953788 
L 370.062234 227.047972 
L 370.26527 241.185867 
L 370.468306 201.947187 
L 370.671342 266.578131 
L 370.874378 186.522826 
L 371.077414 187.502975 
L 371.686522 226.356295 
L 371.889558 204.695295 
L 372.092594 214.041142 
L 372.29563 197.321318 
L 372.498666 238.066146 
L 372.701702 193.112888 
L 372.904738 197.707733 
L 373.107774 212.4245 
L 373.31081 194.638467 
L 373.716882 217.238399 
L 373.919918 218.385455 
L 374.122954 218.427098 
L 374.32599 180.818353 
L 374.732062 232.186329 
L 375.138134 216.45329 
L 375.34117 219.878053 
L 375.544206 211.329654 
L 375.747242 252.474049 
L 376.153314 175.105954 
L 376.35635 201.371232 
L 376.559386 202.993124 
L 376.762422 211.376626 
L 376.965458 235.868218 
L 377.168494 210.246811 
L 377.37153 214.685984 
L 377.574566 195.879204 
L 377.777602 216.739385 
L 377.980638 221.632361 
L 378.183674 174.922143 
L 378.38671 236.108414 
L 378.589746 258.441147 
L 378.792782 216.349568 
L 378.995818 207.253974 
L 379.198854 188.003562 
L 379.40189 260.102226 
L 379.604926 226.514459 
L 379.807962 230.578373 
L 380.214034 243.378467 
L 380.620106 195.383122 
L 380.823142 272.600614 
L 381.026178 194.027969 
L 381.229214 235.910777 
L 381.635286 226.037597 
L 381.838322 203.950705 
L 382.041358 221.546839 
L 382.244394 199.249861 
L 382.44743 199.075075 
L 382.650466 235.765905 
L 382.853502 185.819591 
L 383.056538 191.625618 
L 383.259574 185.402772 
L 383.46261 244.061119 
L 383.665646 186.495384 
L 383.868682 188.30779 
L 384.071718 217.619402 
L 384.274754 220.328879 
L 384.47779 225.730875 
L 384.680826 247.296028 
L 384.883862 247.545207 
L 385.289933 179.768881 
L 385.492969 202.3731 
L 385.899041 218.983724 
L 386.102077 218.494209 
L 386.305113 270.848062 
L 386.508149 227.521534 
L 386.711185 247.277801 
L 386.914221 238.589908 
L 387.117257 240.910846 
L 387.320293 228.216145 
L 387.523329 200.42703 
L 387.726365 199.646629 
L 387.929401 239.059627 
L 388.132437 256.446808 
L 388.335473 188.426082 
L 388.538509 184.895967 
L 388.741545 211.620947 
L 388.944581 200.821811 
L 389.147617 208.924369 
L 389.350653 252.812818 
L 389.553689 214.695211 
L 389.756725 222.476856 
L 389.959761 178.649901 
L 390.162797 252.678522 
L 390.365833 204.874131 
L 390.568869 246.339745 
L 390.771905 209.916187 
L 390.974941 251.80296 
L 391.177977 267.217905 
L 391.584049 197.723486 
L 391.787085 222.420612 
L 391.990121 218.798328 
L 392.193157 252.208988 
L 392.396193 208.137392 
L 392.599229 204.79699 
L 392.802265 258.142377 
L 393.005301 194.318388 
L 393.614409 230.190591 
L 393.817445 176.078937 
L 394.020481 273.309189 
L 394.223517 183.812321 
L 394.426553 224.890674 
L 394.629589 238.599022 
L 394.832625 230.497981 
L 395.035661 194.994513 
L 395.238697 201.798575 
L 395.441733 176.108825 
L 395.644769 221.183051 
L 396.050841 197.411502 
L 396.253877 232.880181 
L 396.456913 199.507001 
L 396.659949 196.98424 
L 396.862985 232.541331 
L 397.066021 205.953558 
L 397.269057 243.838246 
L 397.472093 249.39087 
L 397.675129 232.742213 
L 397.878165 234.451562 
L 398.081201 295.488 
L 398.284237 189.392892 
L 398.487273 272.162618 
L 398.487273 272.162618 
" style="fill:none;stroke:#1f77b4;stroke-linecap:square;stroke-width:1.5;"/>
   </g>
   <g id="line2d_17">
    <path clip-path="url(#p3c540aac2e)" d="M 73.832727 53.570465 
L 99.00919 53.570176 
L 108.754917 53.690006 
L 109.160989 54.005973 
L 109.364025 54.156896 
L 109.567061 54.652394 
L 109.770097 54.367249 
L 109.973133 54.336952 
L 110.176169 56.214544 
L 110.379205 56.827789 
L 110.582241 58.267254 
L 110.785277 58.341057 
L 110.988313 58.964969 
L 111.191349 60.407946 
L 111.394385 66.114887 
L 111.597421 63.292541 
L 111.800457 63.772055 
L 112.206529 68.368599 
L 112.409565 63.569944 
L 112.815637 59.198825 
L 113.424745 75.087762 
L 113.627781 72.220231 
L 113.830817 65.142337 
L 114.033853 72.891081 
L 114.236889 70.144664 
L 114.439925 75.931712 
L 114.642961 75.299543 
L 114.845997 81.557831 
L 115.049033 77.65135 
L 115.252069 80.483117 
L 115.455105 73.80772 
L 115.658141 82.254416 
L 115.861177 73.052413 
L 116.064213 72.974618 
L 116.267249 81.836625 
L 116.470285 83.649203 
L 116.876357 81.787169 
L 117.079393 77.5126 
L 117.485465 89.486626 
L 117.891537 68.094393 
L 118.094573 73.600079 
L 118.297609 75.559665 
L 118.703681 84.806912 
L 118.906717 85.181693 
L 119.109753 90.046461 
L 119.312789 90.093648 
L 119.515825 88.943212 
L 119.718861 86.916725 
L 119.921897 86.516905 
L 120.124933 81.876903 
L 120.327969 83.240509 
L 120.531005 89.31943 
L 120.734041 88.144574 
L 120.937077 91.244844 
L 121.140113 77.956951 
L 121.343149 88.64865 
L 121.546185 88.265257 
L 121.749221 88.572311 
L 121.952257 86.66505 
L 122.155293 94.833647 
L 122.358329 90.805533 
L 122.7644 96.21587 
L 122.967436 90.957902 
L 123.170472 93.492629 
L 123.373508 91.616838 
L 123.576544 84.185584 
L 123.982616 92.830516 
L 124.185652 85.220493 
L 124.591724 93.772557 
L 124.79476 91.183392 
L 124.997796 98.199471 
L 125.200832 98.929937 
L 125.403868 87.955223 
L 125.80994 96.446281 
L 126.012976 93.727829 
L 126.216012 97.298584 
L 126.419048 94.790979 
L 126.622084 94.343253 
L 126.82512 86.692212 
L 127.028156 98.846282 
L 127.231192 96.430568 
L 127.434228 100.552283 
L 127.637264 97.408662 
L 127.8403 91.033524 
L 128.043336 103.622695 
L 128.652444 105.969526 
L 128.85548 106.196008 
L 129.058516 109.450191 
L 129.261552 102.149119 
L 129.667624 107.2205 
L 129.87066 105.782169 
L 130.276732 89.54823 
L 130.479768 97.638444 
L 130.682804 99.505143 
L 130.88584 111.809114 
L 131.088876 107.799209 
L 131.291912 105.994682 
L 131.697984 111.611616 
L 131.90102 97.313216 
L 132.104056 109.653063 
L 132.307092 101.281263 
L 132.713164 109.406124 
L 132.9162 117.80685 
L 133.322272 103.667368 
L 133.728344 115.564993 
L 133.93138 107.799544 
L 134.134416 104.792009 
L 134.540488 114.433164 
L 134.743524 113.128027 
L 134.94656 110.92256 
L 135.149596 120.61098 
L 135.352632 110.185271 
L 135.555668 116.289119 
L 135.758704 113.042943 
L 135.96174 94.926259 
L 136.164776 105.846093 
L 136.367812 107.667021 
L 136.570848 115.643265 
L 136.773884 102.081352 
L 136.97692 118.745741 
L 137.179956 120.260993 
L 137.382992 123.69361 
L 137.586028 111.587377 
L 137.789064 111.43337 
L 137.9921 116.639783 
L 138.195136 112.483935 
L 138.398172 112.248671 
L 138.804244 121.042244 
L 139.00728 119.316737 
L 139.210316 121.35189 
L 139.413352 129.795797 
L 139.616388 107.690698 
L 139.819424 115.562431 
L 140.022459 131.717358 
L 140.225495 135.881574 
L 140.428531 122.820588 
L 140.631567 121.859961 
L 140.834603 114.21682 
L 141.037639 116.187075 
L 141.240675 108.604514 
L 141.443711 112.049122 
L 141.646747 119.732818 
L 141.849783 120.379782 
L 142.052819 116.325158 
L 142.255855 101.115145 
L 142.458891 132.209673 
L 142.661927 114.156396 
L 142.864963 120.978029 
L 143.067999 135.720597 
L 143.271035 127.119198 
L 143.474071 140.961344 
L 143.677107 131.025804 
L 143.880143 132.619896 
L 144.286215 125.542891 
L 144.489251 130.039972 
L 144.692287 122.382011 
L 144.895323 132.283619 
L 145.098359 120.298767 
L 145.301395 131.415286 
L 145.504431 124.422443 
L 145.707467 122.180262 
L 145.910503 129.192937 
L 146.113539 125.851657 
L 146.316575 134.386825 
L 146.519611 129.718609 
L 146.722647 113.217765 
L 146.925683 140.907934 
L 147.128719 125.513205 
L 147.331755 140.892253 
L 147.534791 126.993632 
L 147.737827 144.350049 
L 147.940863 120.798822 
L 148.143899 139.242752 
L 148.346935 129.450038 
L 148.549971 142.228747 
L 148.753007 127.21593 
L 149.159079 138.058957 
L 149.362115 133.423643 
L 149.565151 140.179161 
L 149.768187 142.142635 
L 149.971223 142.347425 
L 150.174259 143.295847 
L 150.377295 145.376458 
L 150.580331 128.377854 
L 150.783367 157.613604 
L 150.986403 147.561203 
L 151.189439 150.741475 
L 151.392475 148.225888 
L 151.595511 131.582108 
L 151.798547 134.707439 
L 152.001583 153.459194 
L 152.204619 136.238234 
L 152.407655 156.663285 
L 152.813727 132.996416 
L 153.016763 150.630556 
L 153.219799 126.227579 
L 153.422835 153.772828 
L 153.625871 137.462806 
L 153.828907 130.104183 
L 154.031943 134.638608 
L 154.234979 123.627515 
L 154.438015 158.114148 
L 154.641051 152.465914 
L 154.844087 166.280778 
L 155.047123 148.603747 
L 155.250159 141.953947 
L 155.453195 151.238507 
L 155.656231 140.382882 
L 155.859267 148.170168 
L 156.062303 140.399575 
L 156.265339 139.708754 
L 156.468375 141.288464 
L 156.671411 150.686688 
L 156.874447 149.756969 
L 157.077483 134.362879 
L 157.280519 154.717028 
L 157.68659 129.781864 
L 157.889626 133.764498 
L 158.092662 160.788868 
L 158.295698 150.228157 
L 158.498734 151.559508 
L 158.70177 156.100979 
L 158.904806 152.700799 
L 159.107842 160.589648 
L 159.310878 160.29977 
L 159.513914 150.088214 
L 159.919986 155.002248 
L 160.123022 147.56768 
L 160.326058 165.63358 
L 160.529094 144.669251 
L 160.73213 141.607994 
L 161.138202 163.288953 
L 161.544274 139.562911 
L 161.950346 150.436051 
L 162.153382 152.767757 
L 162.356418 146.162665 
L 162.559454 150.388243 
L 162.76249 141.963059 
L 162.965526 156.263878 
L 163.168562 154.813788 
L 163.371598 165.05751 
L 163.574634 143.121351 
L 163.77767 164.397279 
L 163.980706 158.558276 
L 164.183742 156.664854 
L 164.386778 160.00477 
L 164.589814 165.747345 
L 164.79285 176.501837 
L 164.995886 166.490102 
L 165.198922 175.930911 
L 165.604994 148.679133 
L 165.80803 135.540136 
L 166.214102 162.768136 
L 166.417138 140.936622 
L 166.620174 146.141761 
L 166.82321 156.785144 
L 167.026246 148.010351 
L 167.229282 168.611066 
L 167.432318 148.958908 
L 167.635354 153.995979 
L 167.83839 171.566205 
L 168.041426 150.361269 
L 168.244462 152.589307 
L 168.447498 158.610762 
L 168.650534 155.647805 
L 168.85357 167.832963 
L 169.056606 135.269092 
L 169.259642 154.930198 
L 169.462678 156.78262 
L 169.665714 181.331939 
L 169.86875 156.501958 
L 170.274822 174.499062 
L 170.477858 160.581503 
L 170.680894 173.489267 
L 171.086966 148.181217 
L 171.290002 175.170352 
L 171.493038 155.50029 
L 171.696074 156.813495 
L 171.89911 136.20084 
L 172.102146 181.710305 
L 172.508218 154.938202 
L 172.711254 165.642255 
L 172.91429 145.476622 
L 173.320362 169.192325 
L 173.523398 167.234053 
L 173.92947 167.811247 
L 174.132506 174.755034 
L 174.335542 160.4433 
L 174.538578 170.259761 
L 174.741614 142.795976 
L 175.147685 180.468386 
L 175.350721 148.213583 
L 175.553757 184.133394 
L 175.756793 185.202244 
L 175.959829 150.319539 
L 176.365901 177.938303 
L 176.568937 155.893829 
L 176.975009 182.761465 
L 177.178045 149.842163 
L 177.381081 172.965252 
L 177.787153 156.639264 
L 177.990189 180.503058 
L 178.193225 161.780862 
L 178.396261 188.524204 
L 178.599297 162.28165 
L 178.802333 168.843733 
L 179.005369 167.50256 
L 179.208405 181.299691 
L 179.411441 144.598201 
L 179.614477 173.493965 
L 179.817513 172.494471 
L 180.020549 174.793237 
L 180.223585 169.096819 
L 180.426621 171.272935 
L 180.629657 160.402009 
L 181.035729 189.234858 
L 181.441801 160.416346 
L 181.644837 180.705015 
L 181.847873 167.108842 
L 182.253945 181.152915 
L 182.456981 169.387676 
L 182.660017 173.721873 
L 182.863053 165.187553 
L 183.066089 183.222801 
L 183.269125 178.260708 
L 183.472161 187.863141 
L 183.675197 180.288877 
L 183.878233 188.441742 
L 184.081269 202.481848 
L 184.284305 165.594678 
L 184.487341 179.038975 
L 184.690377 165.223157 
L 184.893413 172.251802 
L 185.096449 218.711761 
L 185.299485 174.816772 
L 185.502521 169.311477 
L 185.705557 173.00235 
L 185.908593 153.104081 
L 186.111629 184.25226 
L 186.314665 183.611675 
L 186.517701 184.957419 
L 186.720737 193.588382 
L 186.923773 174.879102 
L 187.126809 171.815009 
L 187.329845 180.866436 
L 187.532881 167.468269 
L 187.735917 187.231391 
L 187.938953 191.247571 
L 188.141989 166.553364 
L 188.345025 164.321278 
L 188.548061 165.906983 
L 188.751097 172.697363 
L 188.954133 164.098341 
L 189.157169 182.707066 
L 189.360205 169.936791 
L 189.563241 187.643913 
L 189.766277 186.676885 
L 189.969313 177.858406 
L 190.172349 185.699324 
L 190.375385 169.796269 
L 190.578421 164.69403 
L 190.781457 183.343323 
L 190.984493 187.338342 
L 191.187529 181.927427 
L 191.390565 200.810054 
L 191.796637 173.328952 
L 191.999673 162.369795 
L 192.202709 188.407938 
L 192.405744 172.623126 
L 192.60878 176.237722 
L 192.811816 173.259627 
L 193.014852 175.175825 
L 193.217888 213.515429 
L 193.420924 192.249026 
L 193.62396 158.904777 
L 193.826996 182.746698 
L 194.030032 179.608834 
L 194.233068 182.470651 
L 194.436104 196.010937 
L 194.842176 175.243511 
L 195.045212 189.293763 
L 195.248248 182.100605 
L 195.451284 166.045084 
L 195.65432 186.724609 
L 195.857356 192.457686 
L 196.060392 170.383968 
L 196.263428 200.879601 
L 196.466464 174.900317 
L 196.6695 207.899237 
L 196.872536 190.013292 
L 197.075572 200.967015 
L 197.278608 170.017276 
L 197.481644 169.634627 
L 197.68468 199.376744 
L 198.090752 166.719242 
L 198.293788 165.892877 
L 198.496824 180.704701 
L 198.69986 161.052872 
L 198.902896 199.059629 
L 199.105932 160.431418 
L 199.308968 196.414413 
L 199.71504 164.024176 
L 199.918076 206.626156 
L 200.121112 174.133063 
L 200.527184 192.458699 
L 200.933256 187.728468 
L 201.136292 195.493105 
L 201.339328 168.642978 
L 201.542364 188.406113 
L 201.7454 164.216763 
L 201.948436 183.798754 
L 202.151472 181.510159 
L 202.354508 205.46187 
L 202.557544 189.257736 
L 202.76058 184.060394 
L 202.963616 174.609993 
L 203.166652 193.364358 
L 203.369688 162.171447 
L 203.572724 178.429256 
L 203.77576 179.015802 
L 203.978796 171.044248 
L 204.181832 191.201665 
L 204.384868 178.117515 
L 204.587904 173.40734 
L 204.993976 195.77009 
L 205.197012 188.655834 
L 205.400048 192.179103 
L 205.603084 189.433268 
L 205.80612 164.622053 
L 206.212192 178.601178 
L 206.415228 180.546939 
L 206.618264 219.993363 
L 206.8213 175.725653 
L 207.024336 198.806767 
L 207.227372 182.706818 
L 207.430408 196.047266 
L 207.633444 165.414799 
L 207.83648 199.861302 
L 208.039516 207.167684 
L 208.242552 173.238673 
L 208.445588 176.899229 
L 208.85166 199.800423 
L 209.054696 200.701838 
L 209.460768 181.683924 
L 209.663804 193.574006 
L 209.86684 186.786732 
L 210.069875 204.090323 
L 210.272911 180.328661 
L 210.475947 230.089868 
L 210.678983 175.38408 
L 210.882019 217.85217 
L 211.085055 175.811554 
L 211.288091 164.157469 
L 211.491127 184.351675 
L 211.694163 169.292905 
L 211.897199 178.159031 
L 212.100235 236.074941 
L 212.303271 202.426997 
L 212.506307 216.539406 
L 212.709343 188.045991 
L 212.912379 179.164367 
L 213.115415 187.85792 
L 213.318451 206.603007 
L 213.521487 200.56815 
L 213.724523 189.409209 
L 213.927559 212.443134 
L 214.130595 172.535465 
L 214.536667 206.497092 
L 214.739703 188.218343 
L 214.942739 205.860883 
L 215.145775 191.576721 
L 215.348811 209.433045 
L 215.551847 178.843977 
L 215.754883 208.260946 
L 215.957919 207.125 
L 216.160955 192.601398 
L 216.363991 209.152336 
L 216.567027 178.878332 
L 216.973099 185.458017 
L 217.176135 172.905071 
L 217.582207 168.722155 
L 217.785243 186.334038 
L 217.988279 184.364011 
L 218.191315 197.123724 
L 218.394351 200.237379 
L 218.597387 205.700557 
L 218.800423 195.753989 
L 219.003459 199.254906 
L 219.206495 199.05104 
L 219.409531 188.65127 
L 219.612567 204.960614 
L 219.815603 192.422771 
L 220.018639 212.012453 
L 220.424711 197.797872 
L 220.627747 177.940556 
L 220.830783 189.056611 
L 221.033819 174.108943 
L 221.642927 219.452359 
L 221.845963 164.138412 
L 222.252035 204.181102 
L 222.455071 187.846002 
L 222.658107 194.962605 
L 222.861143 180.059822 
L 223.064179 201.964848 
L 223.267215 199.278293 
L 223.470251 176.537059 
L 223.673287 197.256552 
L 223.876323 183.740657 
L 224.079359 208.42736 
L 224.485431 197.65707 
L 224.688467 171.077948 
L 224.891503 211.268489 
L 225.094539 208.709114 
L 225.297575 162.265827 
L 225.500611 196.384088 
L 225.703647 163.259296 
L 225.906683 188.952434 
L 226.109719 187.236985 
L 226.312755 182.323834 
L 226.515791 212.988194 
L 226.921863 185.543026 
L 227.124899 204.954255 
L 227.327935 167.366789 
L 227.53097 207.388566 
L 227.734006 207.825461 
L 227.937042 187.348425 
L 228.140078 199.574651 
L 228.343114 195.817207 
L 228.54615 195.700147 
L 228.749186 202.601618 
L 228.952222 194.760075 
L 229.155258 152.546592 
L 229.358294 217.711824 
L 229.967402 162.26383 
L 230.170438 199.143857 
L 230.373474 186.436 
L 230.57651 206.401347 
L 230.779546 211.157074 
L 230.982582 187.386767 
L 231.185618 196.521372 
L 231.388654 211.644615 
L 231.59169 170.3692 
L 231.794726 182.057741 
L 231.997762 186.893085 
L 232.200798 184.129242 
L 232.403834 178.113145 
L 232.60687 218.112735 
L 232.809906 202.798645 
L 233.012942 213.080615 
L 233.215978 181.026082 
L 233.62205 202.621215 
L 234.028122 181.129853 
L 234.63723 235.971966 
L 234.840266 219.449883 
L 235.043302 177.219824 
L 235.246338 180.116147 
L 235.449374 226.862609 
L 235.65241 195.324711 
L 235.855446 231.783884 
L 236.058482 169.730411 
L 236.464554 210.954376 
L 236.66759 214.177043 
L 237.073662 168.513345 
L 237.276698 176.530796 
L 237.479734 195.839879 
L 237.68277 165.440275 
L 237.885806 189.74215 
L 238.088842 187.564304 
L 238.291878 191.856311 
L 238.494914 192.803029 
L 238.69795 181.68224 
L 238.900986 199.819158 
L 239.104022 193.539905 
L 239.307058 203.727872 
L 239.510094 188.603295 
L 239.71313 197.050518 
L 239.916166 179.205889 
L 240.119202 211.95094 
L 240.525274 182.930977 
L 240.72831 216.880284 
L 240.931346 206.893031 
L 241.134382 212.73093 
L 241.337418 225.210963 
L 241.540454 177.434046 
L 241.74349 173.910058 
L 241.946526 177.516542 
L 242.352598 192.228774 
L 242.555634 179.268519 
L 242.75867 210.113026 
L 242.961706 213.054563 
L 243.164742 205.012171 
L 243.367778 230.817693 
L 243.570814 195.100325 
L 243.77385 185.247859 
L 243.976886 197.726041 
L 244.179922 199.910149 
L 244.382958 206.665742 
L 244.585994 190.056269 
L 244.78903 205.519157 
L 245.195101 178.107309 
L 245.601173 204.437023 
L 245.804209 191.821998 
L 246.007245 214.477007 
L 246.210281 196.805702 
L 246.413317 189.695722 
L 246.616353 201.686996 
L 247.022425 188.119123 
L 247.225461 216.764142 
L 247.428497 210.083772 
L 247.631533 195.48587 
L 247.834569 191.965925 
L 248.037605 211.801042 
L 248.240641 207.414967 
L 248.646713 181.765115 
L 248.849749 186.822383 
L 249.255821 207.701125 
L 249.661893 190.281611 
L 249.864929 192.678856 
L 250.067965 206.433 
L 250.271001 212.050628 
L 250.474037 186.087147 
L 250.677073 217.483409 
L 251.083145 192.339873 
L 251.286181 203.113747 
L 251.489217 166.423616 
L 251.692253 217.853596 
L 251.895289 187.991982 
L 252.098325 219.425438 
L 252.301361 214.306412 
L 252.504397 182.392818 
L 252.707433 190.060159 
L 252.910469 192.727618 
L 253.113505 218.759825 
L 253.316541 196.026339 
L 253.519577 192.774878 
L 253.722613 207.046277 
L 253.925649 179.017179 
L 254.534757 208.042862 
L 254.737793 186.96282 
L 255.143865 213.360256 
L 255.346901 195.774527 
L 255.549937 219.878319 
L 255.752973 167.86329 
L 255.956009 190.155381 
L 256.362081 206.874004 
L 256.565117 206.071965 
L 256.768153 183.807933 
L 256.971189 184.095814 
L 257.174225 189.416597 
L 257.377261 209.445627 
L 257.580297 212.821899 
L 257.783333 186.560183 
L 258.189405 200.015192 
L 258.392441 197.434577 
L 258.595477 203.369723 
L 258.798513 205.405724 
L 259.001549 185.378553 
L 259.204585 227.351471 
L 259.407621 197.793653 
L 259.610657 199.435397 
L 259.813693 217.067079 
L 260.016729 198.276546 
L 260.219765 191.765223 
L 260.422801 227.66413 
L 260.625837 215.500629 
L 260.828873 196.612789 
L 261.031909 197.99281 
L 261.234945 206.953998 
L 261.437981 173.960206 
L 261.641017 225.204088 
L 261.844053 195.518887 
L 262.047089 209.619389 
L 262.250125 205.781928 
L 262.45316 204.20126 
L 262.656196 220.569915 
L 262.859232 194.584248 
L 263.062268 214.405783 
L 263.265304 220.230254 
L 263.46834 213.562686 
L 263.874412 180.791715 
L 264.280484 204.735688 
L 264.48352 199.647644 
L 264.686556 212.15237 
L 265.092628 169.087971 
L 265.295664 203.778747 
L 265.4987 183.310544 
L 265.701736 199.147216 
L 265.904772 206.09122 
L 266.107808 184.797652 
L 266.310844 220.260594 
L 266.51388 198.550707 
L 266.716916 251.461711 
L 266.919952 208.184433 
L 267.326024 219.275121 
L 267.52906 222.227088 
L 267.732096 214.438919 
L 267.935132 247.535014 
L 268.138168 193.758649 
L 268.341204 218.984285 
L 268.54424 184.697345 
L 268.747276 206.311903 
L 268.950312 189.292872 
L 269.153348 200.673259 
L 269.356384 256.500256 
L 269.55942 210.192731 
L 269.762456 195.599494 
L 270.168528 217.568238 
L 270.371564 197.385836 
L 270.5746 234.197822 
L 270.777636 200.284846 
L 270.980672 208.832561 
L 271.183708 202.387201 
L 271.386744 209.469722 
L 271.58978 187.031554 
L 271.792816 205.598497 
L 271.995852 204.083023 
L 272.198888 198.831001 
L 272.401924 220.976626 
L 272.60496 209.231177 
L 272.807996 235.648931 
L 273.011032 203.391632 
L 273.214068 231.218756 
L 273.417104 214.36548 
L 273.62014 222.140061 
L 273.823176 207.763632 
L 274.026212 239.533853 
L 274.229248 193.611396 
L 274.432284 211.031399 
L 274.63532 194.147176 
L 274.838356 211.303244 
L 275.041392 208.080508 
L 275.244428 210.244175 
L 275.447464 237.206102 
L 275.6505 201.389846 
L 275.853536 196.432107 
L 276.056572 200.4829 
L 276.259608 210.283655 
L 276.66568 186.620105 
L 276.868716 210.689139 
L 277.071752 194.832625 
L 277.274788 208.47579 
L 277.477824 196.037322 
L 277.68086 222.194078 
L 278.086932 187.103447 
L 278.289968 229.733013 
L 278.493004 198.533438 
L 278.69604 196.695 
L 278.899076 188.753482 
L 279.305148 222.887457 
L 279.508184 177.025933 
L 279.71122 176.003482 
L 279.914256 209.74718 
L 280.117291 201.599063 
L 280.320327 227.043415 
L 280.523363 200.757373 
L 280.929435 197.998334 
L 281.132471 240.144968 
L 281.335507 166.597148 
L 281.538543 221.878255 
L 281.741579 178.30778 
L 281.944615 205.467094 
L 282.147651 202.775025 
L 282.350687 236.4244 
L 282.756759 194.30431 
L 282.959795 214.464923 
L 283.162831 188.61062 
L 283.568903 228.003116 
L 283.974975 189.529001 
L 284.178011 204.837764 
L 284.381047 202.356351 
L 284.584083 209.340931 
L 284.787119 195.306861 
L 284.990155 202.12891 
L 285.193191 203.848526 
L 285.396227 215.949328 
L 285.599263 218.130431 
L 285.802299 214.954493 
L 286.005335 203.692227 
L 286.208371 212.503529 
L 286.411407 187.829444 
L 286.614443 202.588576 
L 286.817479 183.139562 
L 287.020515 211.964167 
L 287.223551 201.949211 
L 287.426587 199.157027 
L 287.629623 186.282776 
L 287.832659 210.068197 
L 288.035695 164.440443 
L 288.238731 192.985802 
L 288.441767 179.561445 
L 289.050875 219.366548 
L 289.253911 218.957447 
L 289.456947 207.105266 
L 289.659983 226.741058 
L 289.863019 196.097215 
L 290.066055 203.214116 
L 290.269091 183.933109 
L 290.472127 213.250062 
L 290.675163 217.955225 
L 290.878199 212.8075 
L 291.081235 211.919071 
L 291.284271 221.251997 
L 291.487307 219.521525 
L 291.690343 220.274164 
L 291.893379 191.209433 
L 292.096415 215.655903 
L 292.299451 196.609507 
L 292.502487 204.86087 
L 292.705523 222.271097 
L 293.111595 190.380333 
L 293.314631 222.137099 
L 293.517667 214.143209 
L 293.720703 194.02338 
L 293.923739 200.814457 
L 294.126775 189.881074 
L 294.329811 224.643296 
L 294.532847 230.104791 
L 294.735883 180.837323 
L 294.938919 210.902569 
L 295.141955 179.8344 
L 295.548027 203.396075 
L 295.751063 195.827967 
L 296.157135 216.617755 
L 296.360171 211.081183 
L 296.563207 198.336764 
L 296.766243 212.559765 
L 296.969279 186.464677 
L 297.172315 228.516137 
L 297.375351 213.745553 
L 297.578386 226.562406 
L 297.781422 218.963386 
L 297.984458 196.586969 
L 298.39053 189.758188 
L 298.593566 200.522753 
L 298.796602 182.113014 
L 298.999638 176.650205 
L 299.202674 223.51696 
L 299.40571 187.465801 
L 299.811782 205.511885 
L 300.014818 199.209148 
L 300.217854 225.24844 
L 300.42089 210.363658 
L 300.623926 230.400914 
L 300.826962 198.838726 
L 301.029998 219.367927 
L 301.233034 199.918892 
L 301.43607 204.437099 
L 301.639106 212.860391 
L 301.842142 227.167947 
L 302.045178 207.864034 
L 302.248214 228.340445 
L 302.654286 203.694759 
L 302.857322 173.627877 
L 303.060358 204.259667 
L 303.263394 209.065483 
L 303.46643 195.50598 
L 303.669466 196.356469 
L 304.075538 222.080265 
L 304.278574 223.135218 
L 304.48161 225.432062 
L 304.684646 217.740978 
L 304.887682 238.977673 
L 305.090718 188.812572 
L 305.293754 180.792206 
L 306.105898 214.286185 
L 306.308934 179.275545 
L 306.51197 211.428234 
L 306.715006 183.298151 
L 307.121078 225.636827 
L 307.324114 205.574786 
L 307.52715 207.841608 
L 307.730186 239.340914 
L 307.933222 209.555957 
L 308.136258 264.24584 
L 308.339294 220.088945 
L 308.54233 228.959522 
L 308.745366 214.8539 
L 308.948402 231.504453 
L 309.151438 184.465584 
L 309.55751 220.299397 
L 309.760546 175.026062 
L 310.166618 214.953158 
L 310.369654 215.894495 
L 310.57269 228.118731 
L 310.775726 191.055388 
L 310.978762 203.312703 
L 311.181798 204.182258 
L 311.384834 218.56935 
L 311.58787 197.995688 
L 311.790906 206.217217 
L 311.993942 230.88131 
L 312.196978 236.093222 
L 312.400014 218.695344 
L 312.60305 213.231097 
L 312.806086 222.152263 
L 313.009122 200.707558 
L 313.212158 197.007275 
L 313.415194 221.69071 
L 313.61823 210.773355 
L 313.821266 176.079373 
L 314.024302 195.236281 
L 314.227338 193.723768 
L 314.63341 223.684567 
L 314.836446 193.798333 
L 315.039481 205.94938 
L 315.242517 202.648404 
L 315.445553 224.426943 
L 315.648589 218.327232 
L 315.851625 199.539743 
L 316.054661 238.896131 
L 316.257697 197.155193 
L 316.460733 214.746133 
L 316.663769 211.36089 
L 317.069841 215.587544 
L 317.272877 223.237886 
L 317.475913 193.622329 
L 317.881985 237.379947 
L 318.085021 199.563555 
L 318.288057 224.753407 
L 318.491093 185.29289 
L 318.694129 220.083746 
L 318.897165 195.29371 
L 319.100201 188.292125 
L 319.303237 195.536449 
L 319.506273 221.56766 
L 319.912345 186.921677 
L 320.115381 204.527242 
L 320.318417 237.034758 
L 320.724489 197.568381 
L 320.927525 197.453679 
L 321.130561 216.250583 
L 321.333597 213.366478 
L 321.536633 198.726446 
L 321.739669 239.680218 
L 321.942705 194.658269 
L 322.348777 226.952889 
L 322.551813 219.805294 
L 322.754849 205.576439 
L 322.957885 204.611573 
L 323.160921 193.498761 
L 323.363957 204.370707 
L 323.566993 225.914038 
L 323.770029 199.228182 
L 323.973065 230.398918 
L 324.176101 205.428877 
L 324.379137 207.749654 
L 324.582173 181.327066 
L 324.785209 213.649696 
L 324.988245 179.414127 
L 325.191281 197.438848 
L 325.394317 199.453205 
L 325.597353 214.088967 
L 326.003425 205.438668 
L 326.206461 203.988385 
L 326.409497 188.679266 
L 326.815569 228.724662 
L 327.018605 238.343062 
L 327.221641 201.807371 
L 327.424677 232.831146 
L 327.830749 214.473667 
L 328.033785 238.373766 
L 328.236821 210.64785 
L 328.439857 234.524355 
L 328.642893 231.384848 
L 328.845929 224.666965 
L 329.048965 212.988264 
L 329.252001 227.252273 
L 329.455037 200.466412 
L 329.658073 209.988039 
L 329.861109 253.018164 
L 330.064145 235.51226 
L 330.267181 205.825643 
L 330.470217 212.290248 
L 330.673253 199.306456 
L 330.876289 242.043405 
L 331.079325 190.943245 
L 331.282361 213.34734 
L 331.485397 192.543102 
L 331.688433 217.798957 
L 331.891469 209.004371 
L 332.094505 214.695811 
L 332.297541 203.497932 
L 332.500576 209.736935 
L 332.703612 197.370881 
L 332.906648 204.168118 
L 333.31272 230.389758 
L 333.718792 206.562187 
L 333.921828 216.357396 
L 334.124864 210.814663 
L 334.3279 223.073432 
L 334.530936 224.963086 
L 334.733972 225.05467 
L 334.937008 201.466288 
L 335.140044 232.433445 
L 335.34308 198.077127 
L 335.546116 210.158822 
L 335.749152 197.028791 
L 335.952188 228.397763 
L 336.155224 230.372736 
L 336.35826 241.004802 
L 336.561296 194.888638 
L 336.764332 206.043382 
L 336.967368 189.249915 
L 337.170404 182.313539 
L 337.37344 215.920877 
L 337.576476 206.326689 
L 337.779512 290.064528 
L 337.982548 236.624707 
L 338.185584 219.123035 
L 338.38862 212.188939 
L 338.591656 196.470238 
L 338.794692 236.775481 
L 338.997728 207.413858 
L 339.200764 234.24431 
L 339.4038 213.104485 
L 339.606836 217.749331 
L 339.809872 207.825122 
L 340.012908 245.155968 
L 340.215944 207.332224 
L 340.622016 212.88894 
L 340.825052 174.129305 
L 341.231124 226.843136 
L 341.43416 225.945893 
L 341.637196 245.081563 
L 341.840232 197.705598 
L 342.043268 196.87927 
L 342.246304 211.375199 
L 342.44934 254.899301 
L 342.652376 190.690385 
L 342.855412 216.499927 
L 343.058448 220.33058 
L 343.46452 253.253037 
L 343.667556 247.47908 
L 343.870592 225.755904 
L 344.073628 232.69523 
L 344.276664 193.278862 
L 344.4797 218.208287 
L 344.682736 208.00489 
L 344.885772 188.669961 
L 345.291844 226.814755 
L 345.49488 205.95412 
L 345.697916 251.206843 
L 346.103988 206.193175 
L 346.307024 205.720158 
L 346.51006 221.353868 
L 346.713096 257.021379 
L 346.916132 201.879248 
L 347.119168 191.556307 
L 347.322204 197.301585 
L 347.52524 213.654779 
L 347.728276 201.91011 
L 347.931312 215.932248 
L 348.134348 218.122164 
L 348.337384 198.822209 
L 348.54042 212.687277 
L 348.743456 191.426713 
L 348.946492 201.410318 
L 349.149528 186.58539 
L 349.352564 238.943449 
L 349.5556 253.314876 
L 349.758636 218.541412 
L 349.961671 226.649518 
L 350.164707 195.436236 
L 350.367743 203.360786 
L 350.570779 256.482012 
L 350.976851 173.672162 
L 351.179887 238.20809 
L 351.382923 191.945271 
L 351.585959 198.867954 
L 351.788995 220.720535 
L 351.992031 192.609532 
L 352.398103 173.798763 
L 352.601139 215.523515 
L 352.804175 229.888571 
L 353.007211 210.203791 
L 353.210247 226.581245 
L 353.413283 179.435256 
L 353.819355 206.18011 
L 354.022391 211.319795 
L 354.225427 224.00267 
L 354.428463 206.583324 
L 354.631499 212.160722 
L 354.834535 182.701474 
L 355.037571 224.188333 
L 355.240607 232.691013 
L 355.443643 222.143331 
L 355.646679 192.535369 
L 355.849715 218.171205 
L 356.052751 190.135311 
L 356.255787 215.703383 
L 356.458823 213.396161 
L 356.661859 202.673354 
L 356.864895 227.641831 
L 357.067931 217.884216 
L 357.270967 224.858155 
L 357.474003 197.767665 
L 357.677039 212.307643 
L 357.880075 191.812456 
L 358.083111 236.339532 
L 358.286147 215.488332 
L 358.489183 226.799751 
L 358.692219 230.834616 
L 358.895255 203.592313 
L 359.098291 216.434171 
L 359.301327 213.561326 
L 359.504363 243.726298 
L 359.707399 211.550339 
L 359.910435 231.749427 
L 360.113471 230.060203 
L 360.316507 263.304167 
L 360.519543 200.186966 
L 360.722579 201.019852 
L 360.925615 182.808596 
L 361.128651 215.516073 
L 361.331687 214.403664 
L 361.534723 210.969879 
L 361.940795 199.613787 
L 362.143831 219.866057 
L 362.346867 194.653265 
L 362.549903 194.62222 
L 362.752939 213.661713 
L 362.955975 212.940158 
L 363.159011 226.54425 
L 363.362047 184.982148 
L 363.565083 219.22269 
L 363.768119 207.880089 
L 363.971155 212.093434 
L 364.174191 220.889837 
L 364.377227 235.234563 
L 364.580263 182.725745 
L 364.783299 208.507063 
L 364.986335 215.160635 
L 365.189371 206.97498 
L 365.392407 248.116317 
L 365.595443 243.101212 
L 365.798479 217.176392 
L 366.001515 213.101627 
L 366.204551 225.611299 
L 366.407587 181.187854 
L 366.610623 225.251217 
L 366.813659 224.222645 
L 367.016695 229.139439 
L 367.219731 250.507793 
L 367.422767 221.867409 
L 367.625802 231.97388 
L 367.828838 200.030667 
L 368.031874 197.385866 
L 368.23491 229.44754 
L 368.437946 220.994251 
L 368.640982 201.153831 
L 368.844018 209.418473 
L 369.047054 204.476293 
L 369.25009 211.786892 
L 369.453126 231.430473 
L 369.656162 204.563959 
L 369.859198 219.42006 
L 370.062234 214.828103 
L 370.468306 187.529834 
L 370.671342 213.714778 
L 370.874378 200.76261 
L 371.077414 210.336956 
L 371.28045 195.360508 
L 371.483486 219.543437 
L 371.686522 262.446924 
L 371.889558 207.968647 
L 372.092594 223.794479 
L 372.29563 211.753276 
L 372.498666 186.742417 
L 372.701702 222.630547 
L 372.904738 226.506932 
L 373.107774 192.417139 
L 373.31081 209.587061 
L 373.513846 206.126273 
L 373.716882 177.003434 
L 373.919918 210.193803 
L 374.122954 198.835291 
L 374.32599 231.780537 
L 374.529026 214.079298 
L 374.732062 220.330933 
L 374.935098 195.423144 
L 375.34117 239.486227 
L 375.544206 197.031536 
L 375.950278 203.16951 
L 376.153314 232.060643 
L 376.35635 233.042013 
L 376.762422 202.855093 
L 376.965458 232.291534 
L 377.168494 240.820112 
L 377.37153 221.04869 
L 377.574566 214.954339 
L 377.777602 184.723543 
L 377.980638 215.522683 
L 378.183674 209.740772 
L 378.38671 192.166021 
L 378.589746 230.974132 
L 378.792782 244.408529 
L 378.995818 218.808057 
L 379.198854 213.509527 
L 379.604926 187.027118 
L 379.807962 226.965263 
L 380.010998 241.808995 
L 380.41707 198.879295 
L 380.620106 211.837169 
L 380.823142 195.287142 
L 381.026178 208.212861 
L 381.229214 208.824519 
L 381.43225 227.682016 
L 381.838322 211.537679 
L 382.041358 213.627196 
L 382.244394 235.165056 
L 382.44743 218.444883 
L 382.650466 234.597566 
L 382.853502 198.970274 
L 383.056538 230.27262 
L 383.259574 219.4821 
L 383.46261 217.842347 
L 383.665646 210.436856 
L 383.868682 234.606023 
L 384.071718 239.665795 
L 384.274754 222.472966 
L 384.47779 234.78734 
L 384.680826 223.744867 
L 384.883862 254.650151 
L 385.086897 246.481156 
L 385.289933 218.547257 
L 385.696005 254.436735 
L 385.899041 193.255767 
L 386.102077 222.025151 
L 386.305113 218.709916 
L 386.711185 243.252539 
L 386.914221 219.060969 
L 387.117257 218.304679 
L 387.320293 210.14966 
L 387.523329 241.592034 
L 387.726365 228.064907 
L 387.929401 229.818154 
L 388.132437 243.24255 
L 388.335473 237.42989 
L 388.538509 242.1253 
L 388.741545 198.047344 
L 388.944581 228.156254 
L 389.147617 215.668737 
L 389.350653 221.49057 
L 389.553689 188.833821 
L 389.756725 248.844184 
L 389.959761 208.255522 
L 390.162797 214.74819 
L 390.365833 233.782971 
L 390.568869 218.029349 
L 390.771905 258.957303 
L 391.177977 194.311516 
L 391.381013 232.569869 
L 391.584049 194.898192 
L 391.787085 226.54628 
L 391.990121 218.442264 
L 392.193157 232.440931 
L 392.396193 205.231018 
L 392.599229 215.475365 
L 392.802265 210.087087 
L 393.005301 200.266599 
L 393.208337 233.191215 
L 393.411373 186.16003 
L 393.817445 238.30489 
L 394.020481 228.130856 
L 394.223517 185.692466 
L 394.426553 197.940958 
L 394.629589 220.300097 
L 394.832625 198.759276 
L 395.035661 203.887135 
L 395.238697 238.920216 
L 395.644769 208.159202 
L 395.847805 211.602542 
L 396.050841 206.960087 
L 396.253877 239.94746 
L 396.659949 206.203864 
L 396.862985 220.220083 
L 397.066021 256.599116 
L 397.269057 199.34779 
L 397.472093 222.260829 
L 397.675129 210.321014 
L 397.878165 189.256709 
L 398.081201 201.502647 
L 398.284237 228.679303 
L 398.487273 238.897651 
L 398.487273 238.897651 
" style="fill:none;stroke:#ff7f0e;stroke-linecap:square;stroke-width:1.5;"/>
   </g>
   <g id="patch_3">
    <path d="M 57.6 307.584 
L 57.6 41.472 
" style="fill:none;stroke:#000000;stroke-linecap:square;stroke-linejoin:miter;stroke-width:0.8;"/>
   </g>
   <g id="patch_4">
    <path d="M 414.72 307.584 
L 414.72 41.472 
" style="fill:none;stroke:#000000;stroke-linecap:square;stroke-linejoin:miter;stroke-width:0.8;"/>
   </g>
   <g id="patch_5">
    <path d="M 57.6 307.584 
L 414.72 307.584 
" style="fill:none;stroke:#000000;stroke-linecap:square;stroke-linejoin:miter;stroke-width:0.8;"/>
   </g>
   <g id="patch_6">
    <path d="M 57.6 41.472 
L 414.72 41.472 
" style="fill:none;stroke:#000000;stroke-linecap:square;stroke-linejoin:miter;stroke-width:0.8;"/>
   </g>
   <g id="legend_1">
    <g id="patch_7">
     <path d="M 303.845 78.82825 
L 407.72 78.82825 
Q 409.72 78.82825 409.72 76.82825 
L 409.72 48.472 
Q 409.72 46.472 407.72 46.472 
L 303.845 46.472 
Q 301.845 46.472 301.845 48.472 
L 301.845 76.82825 
Q 301.845 78.82825 303.845 78.82825 
z
" style="fill:#ffffff;opacity:0.8;stroke:#cccccc;stroke-linejoin:miter;"/>
    </g>
    <g id="line2d_18">
     <path d="M 305.845 54.570437 
L 325.845 54.570437 
" style="fill:none;stroke:#1f77b4;stroke-linecap:square;stroke-width:1.5;"/>
    </g>
    <g id="line2d_19"/>
    <g id="text_17">
     <!-- Train loss -->
     <g transform="translate(333.845 58.070437)scale(0.1 -0.1)">
      <defs>
       <path d="M -19 4666 
L 3928 4666 
L 3928 4134 
L 2272 4134 
L 2272 0 
L 1638 0 
L 1638 4134 
L -19 4134 
L -19 4666 
z
" id="DejaVuSans-54" transform="scale(0.015625)"/>
       <path d="M 2631 2963 
Q 2534 3019 2420 3045 
Q 2306 3072 2169 3072 
Q 1681 3072 1420 2755 
Q 1159 2438 1159 1844 
L 1159 0 
L 581 0 
L 581 3500 
L 1159 3500 
L 1159 2956 
Q 1341 3275 1631 3429 
Q 1922 3584 2338 3584 
Q 2397 3584 2469 3576 
Q 2541 3569 2628 3553 
L 2631 2963 
z
" id="DejaVuSans-72" transform="scale(0.015625)"/>
       <path d="M 2194 1759 
Q 1497 1759 1228 1600 
Q 959 1441 959 1056 
Q 959 750 1161 570 
Q 1363 391 1709 391 
Q 2188 391 2477 730 
Q 2766 1069 2766 1631 
L 2766 1759 
L 2194 1759 
z
M 3341 1997 
L 3341 0 
L 2766 0 
L 2766 531 
Q 2569 213 2275 61 
Q 1981 -91 1556 -91 
Q 1019 -91 701 211 
Q 384 513 384 1019 
Q 384 1609 779 1909 
Q 1175 2209 1959 2209 
L 2766 2209 
L 2766 2266 
Q 2766 2663 2505 2880 
Q 2244 3097 1772 3097 
Q 1472 3097 1187 3025 
Q 903 2953 641 2809 
L 641 3341 
Q 956 3463 1253 3523 
Q 1550 3584 1831 3584 
Q 2591 3584 2966 3190 
Q 3341 2797 3341 1997 
z
" id="DejaVuSans-61" transform="scale(0.015625)"/>
       <path d="M 603 3500 
L 1178 3500 
L 1178 0 
L 603 0 
L 603 3500 
z
M 603 4863 
L 1178 4863 
L 1178 4134 
L 603 4134 
L 603 4863 
z
" id="DejaVuSans-69" transform="scale(0.015625)"/>
       <path d="M 3513 2113 
L 3513 0 
L 2938 0 
L 2938 2094 
Q 2938 2591 2744 2837 
Q 2550 3084 2163 3084 
Q 1697 3084 1428 2787 
Q 1159 2491 1159 1978 
L 1159 0 
L 581 0 
L 581 3500 
L 1159 3500 
L 1159 2956 
Q 1366 3272 1645 3428 
Q 1925 3584 2291 3584 
Q 2894 3584 3203 3211 
Q 3513 2838 3513 2113 
z
" id="DejaVuSans-6e" transform="scale(0.015625)"/>
       <path id="DejaVuSans-20" transform="scale(0.015625)"/>
       <path d="M 603 4863 
L 1178 4863 
L 1178 0 
L 603 0 
L 603 4863 
z
" id="DejaVuSans-6c" transform="scale(0.015625)"/>
       <path d="M 2834 3397 
L 2834 2853 
Q 2591 2978 2328 3040 
Q 2066 3103 1784 3103 
Q 1356 3103 1142 2972 
Q 928 2841 928 2578 
Q 928 2378 1081 2264 
Q 1234 2150 1697 2047 
L 1894 2003 
Q 2506 1872 2764 1633 
Q 3022 1394 3022 966 
Q 3022 478 2636 193 
Q 2250 -91 1575 -91 
Q 1294 -91 989 -36 
Q 684 19 347 128 
L 347 722 
Q 666 556 975 473 
Q 1284 391 1588 391 
Q 1994 391 2212 530 
Q 2431 669 2431 922 
Q 2431 1156 2273 1281 
Q 2116 1406 1581 1522 
L 1381 1569 
Q 847 1681 609 1914 
Q 372 2147 372 2553 
Q 372 3047 722 3315 
Q 1072 3584 1716 3584 
Q 2034 3584 2315 3537 
Q 2597 3491 2834 3397 
z
" id="DejaVuSans-73" transform="scale(0.015625)"/>
      </defs>
      <use xlink:href="#DejaVuSans-54"/>
      <use x="46.333984" xlink:href="#DejaVuSans-72"/>
      <use x="87.447266" xlink:href="#DejaVuSans-61"/>
      <use x="148.726562" xlink:href="#DejaVuSans-69"/>
      <use x="176.509766" xlink:href="#DejaVuSans-6e"/>
      <use x="239.888672" xlink:href="#DejaVuSans-20"/>
      <use x="271.675781" xlink:href="#DejaVuSans-6c"/>
      <use x="299.458984" xlink:href="#DejaVuSans-6f"/>
      <use x="360.640625" xlink:href="#DejaVuSans-73"/>
      <use x="412.740234" xlink:href="#DejaVuSans-73"/>
     </g>
    </g>
    <g id="line2d_20">
     <path d="M 305.845 69.248562 
L 325.845 69.248562 
" style="fill:none;stroke:#ff7f0e;stroke-linecap:square;stroke-width:1.5;"/>
    </g>
    <g id="line2d_21"/>
    <g id="text_18">
     <!-- Validation loss -->
     <g transform="translate(333.845 72.748562)scale(0.1 -0.1)">
      <defs>
       <path d="M 1831 0 
L 50 4666 
L 709 4666 
L 2188 738 
L 3669 4666 
L 4325 4666 
L 2547 0 
L 1831 0 
z
" id="DejaVuSans-56" transform="scale(0.015625)"/>
       <path d="M 2906 2969 
L 2906 4863 
L 3481 4863 
L 3481 0 
L 2906 0 
L 2906 525 
Q 2725 213 2448 61 
Q 2172 -91 1784 -91 
Q 1150 -91 751 415 
Q 353 922 353 1747 
Q 353 2572 751 3078 
Q 1150 3584 1784 3584 
Q 2172 3584 2448 3432 
Q 2725 3281 2906 2969 
z
M 947 1747 
Q 947 1113 1208 752 
Q 1469 391 1925 391 
Q 2381 391 2643 752 
Q 2906 1113 2906 1747 
Q 2906 2381 2643 2742 
Q 2381 3103 1925 3103 
Q 1469 3103 1208 2742 
Q 947 2381 947 1747 
z
" id="DejaVuSans-64" transform="scale(0.015625)"/>
       <path d="M 1172 4494 
L 1172 3500 
L 2356 3500 
L 2356 3053 
L 1172 3053 
L 1172 1153 
Q 1172 725 1289 603 
Q 1406 481 1766 481 
L 2356 481 
L 2356 0 
L 1766 0 
Q 1100 0 847 248 
Q 594 497 594 1153 
L 594 3053 
L 172 3053 
L 172 3500 
L 594 3500 
L 594 4494 
L 1172 4494 
z
" id="DejaVuSans-74" transform="scale(0.015625)"/>
      </defs>
      <use xlink:href="#DejaVuSans-56"/>
      <use x="60.658203" xlink:href="#DejaVuSans-61"/>
      <use x="121.9375" xlink:href="#DejaVuSans-6c"/>
      <use x="149.720703" xlink:href="#DejaVuSans-69"/>
      <use x="177.503906" xlink:href="#DejaVuSans-64"/>
      <use x="240.980469" xlink:href="#DejaVuSans-61"/>
      <use x="302.259766" xlink:href="#DejaVuSans-74"/>
      <use x="341.46875" xlink:href="#DejaVuSans-69"/>
      <use x="369.251953" xlink:href="#DejaVuSans-6f"/>
      <use x="430.433594" xlink:href="#DejaVuSans-6e"/>
      <use x="493.8125" xlink:href="#DejaVuSans-20"/>
      <use x="525.599609" xlink:href="#DejaVuSans-6c"/>
      <use x="553.382812" xlink:href="#DejaVuSans-6f"/>
      <use x="614.564453" xlink:href="#DejaVuSans-73"/>
      <use x="666.664062" xlink:href="#DejaVuSans-73"/>
     </g>
    </g>
   </g>
  </g>
 </g>
 <defs>
  <clipPath id="p3c540aac2e">
   <rect height="266.112" width="357.12" x="57.6" y="41.472"/>
  </clipPath>
 </defs>
</svg>
