<?xml version="1.0" encoding="utf-8" standalone="no"?>
<!DOCTYPE svg PUBLIC "-//W3C//DTD SVG 1.1//EN"
  "http://www.w3.org/Graphics/SVG/1.1/DTD/svg11.dtd">
<svg height="345.6pt" version="1.1" viewBox="0 0 460.8 345.6" width="460.8pt" xmlns="http://www.w3.org/2000/svg" xmlns:xlink="http://www.w3.org/1999/xlink">
 <metadata>
  <rdf:RDF xmlns:cc="http://creativecommons.org/ns#" xmlns:dc="http://purl.org/dc/elements/1.1/" xmlns:rdf="http://www.w3.org/1999/02/22-rdf-syntax-ns#">
   <cc:Work>
    <dc:type rdf:resource="http://purl.org/dc/dcmitype/StillImage"/>
    <dc:date>2021-07-31T06:40:40.685434</dc:date>
    <dc:format>image/svg+xml</dc:format>
    <dc:creator>
     <cc:Agent>
      <dc:title>Matplotlib v3.4.1, https://matplotlib.org/</dc:title>
     </cc:Agent>
    </dc:creator>
   </cc:Work>
  </rdf:RDF>
 </metadata>
 <defs>
  <style type="text/css">*{stroke-linecap:butt;stroke-linejoin:round;}</style>
 </defs>
 <g id="figure_1">
  <g id="patch_1">
   <path d="M 0 345.6 
L 460.8 345.6 
L 460.8 0 
L 0 0 
z
" style="fill:#ffffff;"/>
  </g>
  <g id="axes_1">
   <g id="patch_2">
    <path d="M 57.6 307.584 
L 414.72 307.584 
L 414.72 41.472 
L 57.6 41.472 
z
" style="fill:#ffffff;"/>
   </g>
   <g id="matplotlib.axis_1">
    <g id="xtick_1">
     <g id="line2d_1">
      <defs>
       <path d="M 0 0 
L 0 3.5 
" id="m550260b92a" style="stroke:#000000;stroke-width:0.8;"/>
      </defs>
      <g>
       <use style="stroke:#000000;stroke-width:0.8;" x="73.629691" xlink:href="#m550260b92a" y="307.584"/>
      </g>
     </g>
     <g id="text_1">
      <!-- 0 -->
      <g transform="translate(70.448441 322.182437)scale(0.1 -0.1)">
       <defs>
        <path d="M 2034 4250 
Q 1547 4250 1301 3770 
Q 1056 3291 1056 2328 
Q 1056 1369 1301 889 
Q 1547 409 2034 409 
Q 2525 409 2770 889 
Q 3016 1369 3016 2328 
Q 3016 3291 2770 3770 
Q 2525 4250 2034 4250 
z
M 2034 4750 
Q 2819 4750 3233 4129 
Q 3647 3509 3647 2328 
Q 3647 1150 3233 529 
Q 2819 -91 2034 -91 
Q 1250 -91 836 529 
Q 422 1150 422 2328 
Q 422 3509 836 4129 
Q 1250 4750 2034 4750 
z
" id="DejaVuSans-30" transform="scale(0.015625)"/>
       </defs>
       <use xlink:href="#DejaVuSans-30"/>
      </g>
     </g>
    </g>
    <g id="xtick_2">
     <g id="line2d_2">
      <g>
       <use style="stroke:#000000;stroke-width:0.8;" x="114.236889" xlink:href="#m550260b92a" y="307.584"/>
      </g>
     </g>
     <g id="text_2">
      <!-- 200 -->
      <g transform="translate(104.693139 322.182437)scale(0.1 -0.1)">
       <defs>
        <path d="M 1228 531 
L 3431 531 
L 3431 0 
L 469 0 
L 469 531 
Q 828 903 1448 1529 
Q 2069 2156 2228 2338 
Q 2531 2678 2651 2914 
Q 2772 3150 2772 3378 
Q 2772 3750 2511 3984 
Q 2250 4219 1831 4219 
Q 1534 4219 1204 4116 
Q 875 4013 500 3803 
L 500 4441 
Q 881 4594 1212 4672 
Q 1544 4750 1819 4750 
Q 2544 4750 2975 4387 
Q 3406 4025 3406 3419 
Q 3406 3131 3298 2873 
Q 3191 2616 2906 2266 
Q 2828 2175 2409 1742 
Q 1991 1309 1228 531 
z
" id="DejaVuSans-32" transform="scale(0.015625)"/>
       </defs>
       <use xlink:href="#DejaVuSans-32"/>
       <use x="63.623047" xlink:href="#DejaVuSans-30"/>
       <use x="127.246094" xlink:href="#DejaVuSans-30"/>
      </g>
     </g>
    </g>
    <g id="xtick_3">
     <g id="line2d_3">
      <g>
       <use style="stroke:#000000;stroke-width:0.8;" x="154.844087" xlink:href="#m550260b92a" y="307.584"/>
      </g>
     </g>
     <g id="text_3">
      <!-- 400 -->
      <g transform="translate(145.300337 322.182437)scale(0.1 -0.1)">
       <defs>
        <path d="M 2419 4116 
L 825 1625 
L 2419 1625 
L 2419 4116 
z
M 2253 4666 
L 3047 4666 
L 3047 1625 
L 3713 1625 
L 3713 1100 
L 3047 1100 
L 3047 0 
L 2419 0 
L 2419 1100 
L 313 1100 
L 313 1709 
L 2253 4666 
z
" id="DejaVuSans-34" transform="scale(0.015625)"/>
       </defs>
       <use xlink:href="#DejaVuSans-34"/>
       <use x="63.623047" xlink:href="#DejaVuSans-30"/>
       <use x="127.246094" xlink:href="#DejaVuSans-30"/>
      </g>
     </g>
    </g>
    <g id="xtick_4">
     <g id="line2d_4">
      <g>
       <use style="stroke:#000000;stroke-width:0.8;" x="195.451284" xlink:href="#m550260b92a" y="307.584"/>
      </g>
     </g>
     <g id="text_4">
      <!-- 600 -->
      <g transform="translate(185.907534 322.182437)scale(0.1 -0.1)">
       <defs>
        <path d="M 2113 2584 
Q 1688 2584 1439 2293 
Q 1191 2003 1191 1497 
Q 1191 994 1439 701 
Q 1688 409 2113 409 
Q 2538 409 2786 701 
Q 3034 994 3034 1497 
Q 3034 2003 2786 2293 
Q 2538 2584 2113 2584 
z
M 3366 4563 
L 3366 3988 
Q 3128 4100 2886 4159 
Q 2644 4219 2406 4219 
Q 1781 4219 1451 3797 
Q 1122 3375 1075 2522 
Q 1259 2794 1537 2939 
Q 1816 3084 2150 3084 
Q 2853 3084 3261 2657 
Q 3669 2231 3669 1497 
Q 3669 778 3244 343 
Q 2819 -91 2113 -91 
Q 1303 -91 875 529 
Q 447 1150 447 2328 
Q 447 3434 972 4092 
Q 1497 4750 2381 4750 
Q 2619 4750 2861 4703 
Q 3103 4656 3366 4563 
z
" id="DejaVuSans-36" transform="scale(0.015625)"/>
       </defs>
       <use xlink:href="#DejaVuSans-36"/>
       <use x="63.623047" xlink:href="#DejaVuSans-30"/>
       <use x="127.246094" xlink:href="#DejaVuSans-30"/>
      </g>
     </g>
    </g>
    <g id="xtick_5">
     <g id="line2d_5">
      <g>
       <use style="stroke:#000000;stroke-width:0.8;" x="236.058482" xlink:href="#m550260b92a" y="307.584"/>
      </g>
     </g>
     <g id="text_5">
      <!-- 800 -->
      <g transform="translate(226.514732 322.182437)scale(0.1 -0.1)">
       <defs>
        <path d="M 2034 2216 
Q 1584 2216 1326 1975 
Q 1069 1734 1069 1313 
Q 1069 891 1326 650 
Q 1584 409 2034 409 
Q 2484 409 2743 651 
Q 3003 894 3003 1313 
Q 3003 1734 2745 1975 
Q 2488 2216 2034 2216 
z
M 1403 2484 
Q 997 2584 770 2862 
Q 544 3141 544 3541 
Q 544 4100 942 4425 
Q 1341 4750 2034 4750 
Q 2731 4750 3128 4425 
Q 3525 4100 3525 3541 
Q 3525 3141 3298 2862 
Q 3072 2584 2669 2484 
Q 3125 2378 3379 2068 
Q 3634 1759 3634 1313 
Q 3634 634 3220 271 
Q 2806 -91 2034 -91 
Q 1263 -91 848 271 
Q 434 634 434 1313 
Q 434 1759 690 2068 
Q 947 2378 1403 2484 
z
M 1172 3481 
Q 1172 3119 1398 2916 
Q 1625 2713 2034 2713 
Q 2441 2713 2670 2916 
Q 2900 3119 2900 3481 
Q 2900 3844 2670 4047 
Q 2441 4250 2034 4250 
Q 1625 4250 1398 4047 
Q 1172 3844 1172 3481 
z
" id="DejaVuSans-38" transform="scale(0.015625)"/>
       </defs>
       <use xlink:href="#DejaVuSans-38"/>
       <use x="63.623047" xlink:href="#DejaVuSans-30"/>
       <use x="127.246094" xlink:href="#DejaVuSans-30"/>
      </g>
     </g>
    </g>
    <g id="xtick_6">
     <g id="line2d_6">
      <g>
       <use style="stroke:#000000;stroke-width:0.8;" x="276.66568" xlink:href="#m550260b92a" y="307.584"/>
      </g>
     </g>
     <g id="text_6">
      <!-- 1000 -->
      <g transform="translate(263.94068 322.182437)scale(0.1 -0.1)">
       <defs>
        <path d="M 794 531 
L 1825 531 
L 1825 4091 
L 703 3866 
L 703 4441 
L 1819 4666 
L 2450 4666 
L 2450 531 
L 3481 531 
L 3481 0 
L 794 0 
L 794 531 
z
" id="DejaVuSans-31" transform="scale(0.015625)"/>
       </defs>
       <use xlink:href="#DejaVuSans-31"/>
       <use x="63.623047" xlink:href="#DejaVuSans-30"/>
       <use x="127.246094" xlink:href="#DejaVuSans-30"/>
       <use x="190.869141" xlink:href="#DejaVuSans-30"/>
      </g>
     </g>
    </g>
    <g id="xtick_7">
     <g id="line2d_7">
      <g>
       <use style="stroke:#000000;stroke-width:0.8;" x="317.272877" xlink:href="#m550260b92a" y="307.584"/>
      </g>
     </g>
     <g id="text_7">
      <!-- 1200 -->
      <g transform="translate(304.547877 322.182437)scale(0.1 -0.1)">
       <use xlink:href="#DejaVuSans-31"/>
       <use x="63.623047" xlink:href="#DejaVuSans-32"/>
       <use x="127.246094" xlink:href="#DejaVuSans-30"/>
       <use x="190.869141" xlink:href="#DejaVuSans-30"/>
      </g>
     </g>
    </g>
    <g id="xtick_8">
     <g id="line2d_8">
      <g>
       <use style="stroke:#000000;stroke-width:0.8;" x="357.880075" xlink:href="#m550260b92a" y="307.584"/>
      </g>
     </g>
     <g id="text_8">
      <!-- 1400 -->
      <g transform="translate(345.155075 322.182437)scale(0.1 -0.1)">
       <use xlink:href="#DejaVuSans-31"/>
       <use x="63.623047" xlink:href="#DejaVuSans-34"/>
       <use x="127.246094" xlink:href="#DejaVuSans-30"/>
       <use x="190.869141" xlink:href="#DejaVuSans-30"/>
      </g>
     </g>
    </g>
    <g id="xtick_9">
     <g id="line2d_9">
      <g>
       <use style="stroke:#000000;stroke-width:0.8;" x="398.487273" xlink:href="#m550260b92a" y="307.584"/>
      </g>
     </g>
     <g id="text_9">
      <!-- 1600 -->
      <g transform="translate(385.762273 322.182437)scale(0.1 -0.1)">
       <use xlink:href="#DejaVuSans-31"/>
       <use x="63.623047" xlink:href="#DejaVuSans-36"/>
       <use x="127.246094" xlink:href="#DejaVuSans-30"/>
       <use x="190.869141" xlink:href="#DejaVuSans-30"/>
      </g>
     </g>
    </g>
    <g id="text_10">
     <!-- Epoch -->
     <g transform="translate(213.193594 339.659781)scale(0.15 -0.15)">
      <defs>
       <path d="M 628 4666 
L 3578 4666 
L 3578 4134 
L 1259 4134 
L 1259 2753 
L 3481 2753 
L 3481 2222 
L 1259 2222 
L 1259 531 
L 3634 531 
L 3634 0 
L 628 0 
L 628 4666 
z
" id="DejaVuSans-45" transform="scale(0.015625)"/>
       <path d="M 1159 525 
L 1159 -1331 
L 581 -1331 
L 581 3500 
L 1159 3500 
L 1159 2969 
Q 1341 3281 1617 3432 
Q 1894 3584 2278 3584 
Q 2916 3584 3314 3078 
Q 3713 2572 3713 1747 
Q 3713 922 3314 415 
Q 2916 -91 2278 -91 
Q 1894 -91 1617 61 
Q 1341 213 1159 525 
z
M 3116 1747 
Q 3116 2381 2855 2742 
Q 2594 3103 2138 3103 
Q 1681 3103 1420 2742 
Q 1159 2381 1159 1747 
Q 1159 1113 1420 752 
Q 1681 391 2138 391 
Q 2594 391 2855 752 
Q 3116 1113 3116 1747 
z
" id="DejaVuSans-70" transform="scale(0.015625)"/>
       <path d="M 1959 3097 
Q 1497 3097 1228 2736 
Q 959 2375 959 1747 
Q 959 1119 1226 758 
Q 1494 397 1959 397 
Q 2419 397 2687 759 
Q 2956 1122 2956 1747 
Q 2956 2369 2687 2733 
Q 2419 3097 1959 3097 
z
M 1959 3584 
Q 2709 3584 3137 3096 
Q 3566 2609 3566 1747 
Q 3566 888 3137 398 
Q 2709 -91 1959 -91 
Q 1206 -91 779 398 
Q 353 888 353 1747 
Q 353 2609 779 3096 
Q 1206 3584 1959 3584 
z
" id="DejaVuSans-6f" transform="scale(0.015625)"/>
       <path d="M 3122 3366 
L 3122 2828 
Q 2878 2963 2633 3030 
Q 2388 3097 2138 3097 
Q 1578 3097 1268 2742 
Q 959 2388 959 1747 
Q 959 1106 1268 751 
Q 1578 397 2138 397 
Q 2388 397 2633 464 
Q 2878 531 3122 666 
L 3122 134 
Q 2881 22 2623 -34 
Q 2366 -91 2075 -91 
Q 1284 -91 818 406 
Q 353 903 353 1747 
Q 353 2603 823 3093 
Q 1294 3584 2113 3584 
Q 2378 3584 2631 3529 
Q 2884 3475 3122 3366 
z
" id="DejaVuSans-63" transform="scale(0.015625)"/>
       <path d="M 3513 2113 
L 3513 0 
L 2938 0 
L 2938 2094 
Q 2938 2591 2744 2837 
Q 2550 3084 2163 3084 
Q 1697 3084 1428 2787 
Q 1159 2491 1159 1978 
L 1159 0 
L 581 0 
L 581 4863 
L 1159 4863 
L 1159 2956 
Q 1366 3272 1645 3428 
Q 1925 3584 2291 3584 
Q 2894 3584 3203 3211 
Q 3513 2838 3513 2113 
z
" id="DejaVuSans-68" transform="scale(0.015625)"/>
      </defs>
      <use xlink:href="#DejaVuSans-45"/>
      <use x="63.183594" xlink:href="#DejaVuSans-70"/>
      <use x="126.660156" xlink:href="#DejaVuSans-6f"/>
      <use x="187.841797" xlink:href="#DejaVuSans-63"/>
      <use x="242.822266" xlink:href="#DejaVuSans-68"/>
     </g>
    </g>
   </g>
   <g id="matplotlib.axis_2">
    <g id="ytick_1">
     <g id="line2d_10">
      <defs>
       <path d="M 0 0 
L -3.5 0 
" id="m3700ddc09a" style="stroke:#000000;stroke-width:0.8;"/>
      </defs>
      <g>
       <use style="stroke:#000000;stroke-width:0.8;" x="57.6" xlink:href="#m3700ddc09a" y="305.193266"/>
      </g>
     </g>
     <g id="text_11">
      <!-- −0.25 -->
      <g transform="translate(19.954687 308.992484)scale(0.1 -0.1)">
       <defs>
        <path d="M 678 2272 
L 4684 2272 
L 4684 1741 
L 678 1741 
L 678 2272 
z
" id="DejaVuSans-2212" transform="scale(0.015625)"/>
        <path d="M 684 794 
L 1344 794 
L 1344 0 
L 684 0 
L 684 794 
z
" id="DejaVuSans-2e" transform="scale(0.015625)"/>
        <path d="M 691 4666 
L 3169 4666 
L 3169 4134 
L 1269 4134 
L 1269 2991 
Q 1406 3038 1543 3061 
Q 1681 3084 1819 3084 
Q 2600 3084 3056 2656 
Q 3513 2228 3513 1497 
Q 3513 744 3044 326 
Q 2575 -91 1722 -91 
Q 1428 -91 1123 -41 
Q 819 9 494 109 
L 494 744 
Q 775 591 1075 516 
Q 1375 441 1709 441 
Q 2250 441 2565 725 
Q 2881 1009 2881 1497 
Q 2881 1984 2565 2268 
Q 2250 2553 1709 2553 
Q 1456 2553 1204 2497 
Q 953 2441 691 2322 
L 691 4666 
z
" id="DejaVuSans-35" transform="scale(0.015625)"/>
       </defs>
       <use xlink:href="#DejaVuSans-2212"/>
       <use x="83.789062" xlink:href="#DejaVuSans-30"/>
       <use x="147.412109" xlink:href="#DejaVuSans-2e"/>
       <use x="179.199219" xlink:href="#DejaVuSans-32"/>
       <use x="242.822266" xlink:href="#DejaVuSans-35"/>
      </g>
     </g>
    </g>
    <g id="ytick_2">
     <g id="line2d_11">
      <g>
       <use style="stroke:#000000;stroke-width:0.8;" x="57.6" xlink:href="#m3700ddc09a" y="271.070593"/>
      </g>
     </g>
     <g id="text_12">
      <!-- 0.00 -->
      <g transform="translate(28.334375 274.869812)scale(0.1 -0.1)">
       <use xlink:href="#DejaVuSans-30"/>
       <use x="63.623047" xlink:href="#DejaVuSans-2e"/>
       <use x="95.410156" xlink:href="#DejaVuSans-30"/>
       <use x="159.033203" xlink:href="#DejaVuSans-30"/>
      </g>
     </g>
    </g>
    <g id="ytick_3">
     <g id="line2d_12">
      <g>
       <use style="stroke:#000000;stroke-width:0.8;" x="57.6" xlink:href="#m3700ddc09a" y="236.947921"/>
      </g>
     </g>
     <g id="text_13">
      <!-- 0.25 -->
      <g transform="translate(28.334375 240.747139)scale(0.1 -0.1)">
       <use xlink:href="#DejaVuSans-30"/>
       <use x="63.623047" xlink:href="#DejaVuSans-2e"/>
       <use x="95.410156" xlink:href="#DejaVuSans-32"/>
       <use x="159.033203" xlink:href="#DejaVuSans-35"/>
      </g>
     </g>
    </g>
    <g id="ytick_4">
     <g id="line2d_13">
      <g>
       <use style="stroke:#000000;stroke-width:0.8;" x="57.6" xlink:href="#m3700ddc09a" y="202.825248"/>
      </g>
     </g>
     <g id="text_14">
      <!-- 0.50 -->
      <g transform="translate(28.334375 206.624467)scale(0.1 -0.1)">
       <use xlink:href="#DejaVuSans-30"/>
       <use x="63.623047" xlink:href="#DejaVuSans-2e"/>
       <use x="95.410156" xlink:href="#DejaVuSans-35"/>
       <use x="159.033203" xlink:href="#DejaVuSans-30"/>
      </g>
     </g>
    </g>
    <g id="ytick_5">
     <g id="line2d_14">
      <g>
       <use style="stroke:#000000;stroke-width:0.8;" x="57.6" xlink:href="#m3700ddc09a" y="168.702576"/>
      </g>
     </g>
     <g id="text_15">
      <!-- 0.75 -->
      <g transform="translate(28.334375 172.501794)scale(0.1 -0.1)">
       <defs>
        <path d="M 525 4666 
L 3525 4666 
L 3525 4397 
L 1831 0 
L 1172 0 
L 2766 4134 
L 525 4134 
L 525 4666 
z
" id="DejaVuSans-37" transform="scale(0.015625)"/>
       </defs>
       <use xlink:href="#DejaVuSans-30"/>
       <use x="63.623047" xlink:href="#DejaVuSans-2e"/>
       <use x="95.410156" xlink:href="#DejaVuSans-37"/>
       <use x="159.033203" xlink:href="#DejaVuSans-35"/>
      </g>
     </g>
    </g>
    <g id="ytick_6">
     <g id="line2d_15">
      <g>
       <use style="stroke:#000000;stroke-width:0.8;" x="57.6" xlink:href="#m3700ddc09a" y="134.579903"/>
      </g>
     </g>
     <g id="text_16">
      <!-- 1.00 -->
      <g transform="translate(28.334375 138.379122)scale(0.1 -0.1)">
       <use xlink:href="#DejaVuSans-31"/>
       <use x="63.623047" xlink:href="#DejaVuSans-2e"/>
       <use x="95.410156" xlink:href="#DejaVuSans-30"/>
       <use x="159.033203" xlink:href="#DejaVuSans-30"/>
      </g>
     </g>
    </g>
    <g id="ytick_7">
     <g id="line2d_16">
      <g>
       <use style="stroke:#000000;stroke-width:0.8;" x="57.6" xlink:href="#m3700ddc09a" y="100.457231"/>
      </g>
     </g>
     <g id="text_17">
      <!-- 1.25 -->
      <g transform="translate(28.334375 104.256449)scale(0.1 -0.1)">
       <use xlink:href="#DejaVuSans-31"/>
       <use x="63.623047" xlink:href="#DejaVuSans-2e"/>
       <use x="95.410156" xlink:href="#DejaVuSans-32"/>
       <use x="159.033203" xlink:href="#DejaVuSans-35"/>
      </g>
     </g>
    </g>
    <g id="ytick_8">
     <g id="line2d_17">
      <g>
       <use style="stroke:#000000;stroke-width:0.8;" x="57.6" xlink:href="#m3700ddc09a" y="66.334558"/>
      </g>
     </g>
     <g id="text_18">
      <!-- 1.50 -->
      <g transform="translate(28.334375 70.133777)scale(0.1 -0.1)">
       <use xlink:href="#DejaVuSans-31"/>
       <use x="63.623047" xlink:href="#DejaVuSans-2e"/>
       <use x="95.410156" xlink:href="#DejaVuSans-35"/>
       <use x="159.033203" xlink:href="#DejaVuSans-30"/>
      </g>
     </g>
    </g>
   </g>
   <g id="line2d_18">
    <path clip-path="url(#p6dcd899c63)" d="M 73.832727 132.686743 
L 74.238799 111.548133 
L 74.441835 117.127618 
L 74.847907 105.781055 
L 75.050943 93.225734 
L 75.253979 99.850521 
L 75.457015 122.784373 
L 75.660051 66.925647 
L 75.863087 122.871764 
L 76.066123 105.614192 
L 76.269159 131.355957 
L 76.472195 111.006294 
L 76.675231 109.207872 
L 76.878267 135.143545 
L 77.081303 87.21725 
L 77.284339 73.23422 
L 77.487375 141.897958 
L 77.690411 83.575011 
L 77.893447 117.356287 
L 78.096483 124.452089 
L 78.299519 114.01878 
L 78.502555 156.784039 
L 79.111663 109.662257 
L 79.314699 108.794394 
L 79.517735 121.260769 
L 79.720771 123.845387 
L 79.923807 104.297915 
L 80.126843 103.399545 
L 80.329879 136.041704 
L 80.532915 99.058518 
L 80.735951 97.851467 
L 80.938987 126.904427 
L 81.142023 114.510474 
L 81.345059 109.953147 
L 81.548095 121.067313 
L 81.751131 98.400369 
L 81.954167 110.146605 
L 82.157203 113.951821 
L 82.360239 84.455811 
L 82.563275 98.961921 
L 82.766311 126.637273 
L 83.172383 90.445879 
L 83.578455 121.274459 
L 83.781491 148.620221 
L 84.390599 111.612944 
L 84.796671 154.483716 
L 84.999707 116.077324 
L 85.202743 129.574764 
L 85.405779 115.875034 
L 85.608815 141.911762 
L 85.811851 115.186187 
L 86.014887 140.437139 
L 86.420959 86.405249 
L 86.623995 112.763689 
L 86.827031 115.096435 
L 87.030067 101.914095 
L 87.233103 117.068532 
L 87.436138 99.481995 
L 87.639174 109.953268 
L 87.84221 69.027972 
L 88.045246 101.130674 
L 88.248282 85.929449 
L 88.451318 101.593249 
L 88.654354 149.741366 
L 89.060426 109.307094 
L 89.263462 103.606505 
L 89.466498 78.292593 
L 89.87257 139.440323 
L 90.075606 102.964522 
L 90.278642 123.498579 
L 90.481678 102.429539 
L 90.684714 98.468522 
L 90.88775 120.773918 
L 91.090786 73.520457 
L 91.293822 110.869118 
L 91.496858 110.479733 
L 92.105966 130.391571 
L 92.309002 130.004254 
L 92.512038 102.038255 
L 92.715074 96.934898 
L 92.91811 121.011581 
L 93.121146 114.455242 
L 93.324182 146.501371 
L 93.527218 109.897019 
L 93.730254 126.38833 
L 93.93329 121.359486 
L 94.136326 146.98794 
L 94.339362 128.142616 
L 94.542398 86.140463 
L 94.94847 150.772715 
L 95.151506 125.430582 
L 95.354542 137.772867 
L 95.557578 140.757623 
L 95.760614 151.337367 
L 96.166686 87.494129 
L 96.369722 139.489687 
L 96.572758 137.6829 
L 96.775794 75.810502 
L 96.97883 128.361904 
L 97.384902 108.413936 
L 97.587938 59.095041 
L 97.790974 116.009578 
L 97.99401 139.286399 
L 98.197046 101.71172 
L 98.400082 117.320478 
L 98.603118 106.671615 
L 98.806154 105.207352 
L 99.212226 91.290792 
L 99.415262 119.813964 
L 99.618298 99.615255 
L 99.821334 122.675054 
L 100.02437 95.526618 
L 100.227406 118.12064 
L 100.430442 87.380802 
L 100.633478 132.447168 
L 100.836514 116.820567 
L 101.03955 125.20385 
L 101.242586 118.781273 
L 101.445622 132.950999 
L 101.851694 105.892299 
L 102.05473 127.961022 
L 102.257766 132.739678 
L 102.460802 86.475007 
L 102.663838 89.442833 
L 102.866874 116.670433 
L 103.06991 118.500628 
L 103.272946 158.667148 
L 103.475982 116.822719 
L 103.679018 137.237556 
L 103.882054 92.71545 
L 104.08509 132.877901 
L 104.288126 118.003602 
L 104.491162 116.768107 
L 104.694198 119.847534 
L 104.897233 79.990089 
L 105.100269 145.586175 
L 105.303305 106.822608 
L 105.506341 117.038792 
L 105.709377 142.145069 
L 105.912413 141.586267 
L 106.318485 80.826413 
L 106.521521 114.193137 
L 106.724557 92.382045 
L 106.927593 118.64614 
L 107.130629 110.497653 
L 107.333665 133.381408 
L 107.536701 104.462315 
L 107.739737 136.145755 
L 107.942773 103.426184 
L 108.145809 111.384607 
L 108.348845 88.889065 
L 108.551881 112.694191 
L 108.754917 93.86849 
L 108.957953 60.824445 
L 109.160989 113.33217 
L 109.364025 106.591906 
L 109.567061 108.791162 
L 109.770097 118.298867 
L 109.973133 100.480714 
L 110.176169 97.365825 
L 110.379205 161.373946 
L 110.785277 112.727115 
L 110.988313 99.597004 
L 111.191349 110.706094 
L 111.394385 81.709464 
L 111.597421 90.567145 
L 111.800457 123.525892 
L 112.206529 137.215247 
L 112.409565 140.651597 
L 112.612601 94.924269 
L 112.815637 112.097772 
L 113.018673 106.318336 
L 113.221709 141.519305 
L 113.424745 150.982887 
L 113.627781 131.617371 
L 113.830817 90.320707 
L 114.236889 160.81919 
L 114.439925 135.997472 
L 114.845997 151.085426 
L 115.049033 135.369859 
L 115.252069 134.466765 
L 115.455105 144.037358 
L 115.861177 120.867084 
L 116.267249 146.461948 
L 116.876357 121.777074 
L 117.079393 141.081364 
L 117.282429 137.780518 
L 117.485465 119.938357 
L 117.688501 116.681419 
L 117.891537 120.218073 
L 118.094573 149.595587 
L 118.500645 129.899528 
L 118.703681 143.882977 
L 118.906717 142.143415 
L 119.109753 137.684611 
L 119.312789 142.68569 
L 119.515825 126.72059 
L 119.718861 153.27815 
L 119.921897 141.069824 
L 120.124933 138.979618 
L 120.327969 177.299144 
L 120.531005 146.311555 
L 120.734041 158.405559 
L 120.937077 160.679281 
L 121.140113 134.840125 
L 121.343149 165.191249 
L 121.749221 122.586479 
L 121.952257 162.31509 
L 122.155293 134.088921 
L 122.358329 140.081432 
L 122.561364 156.094872 
L 122.7644 149.642639 
L 122.967436 153.732613 
L 123.170472 168.34694 
L 123.373508 127.376835 
L 123.576544 132.852296 
L 123.77958 155.340309 
L 123.982616 146.804636 
L 124.388688 154.886426 
L 124.591724 130.856192 
L 124.79476 156.903868 
L 124.997796 149.338656 
L 125.200832 125.879328 
L 125.403868 148.712197 
L 125.606904 122.967972 
L 125.80994 177.999324 
L 126.012976 132.422842 
L 126.216012 157.074861 
L 126.419048 158.688146 
L 126.622084 125.141808 
L 126.82512 116.52732 
L 127.028156 147.465894 
L 127.231192 155.706525 
L 127.434228 146.816498 
L 127.637264 151.684667 
L 127.8403 142.918879 
L 128.043336 161.048415 
L 128.246372 168.211616 
L 128.449408 171.192514 
L 128.652444 164.140667 
L 128.85548 177.879674 
L 129.261552 152.073365 
L 129.464588 156.977063 
L 129.667624 155.845235 
L 129.87066 129.59087 
L 130.073696 129.904676 
L 130.276732 175.060179 
L 130.479768 176.181791 
L 130.682804 156.574278 
L 130.88584 156.270564 
L 131.088876 177.822742 
L 131.291912 152.062408 
L 131.494948 155.680564 
L 131.697984 170.538512 
L 131.90102 162.788836 
L 132.104056 138.731184 
L 132.307092 166.131712 
L 132.510128 161.418758 
L 132.713164 176.688736 
L 132.9162 178.367197 
L 133.119236 147.399265 
L 133.322272 163.186556 
L 133.728344 175.086313 
L 133.93138 174.600415 
L 134.134416 158.0584 
L 134.337452 178.711541 
L 134.540488 137.446745 
L 134.94656 180.744836 
L 135.149596 173.429809 
L 135.352632 141.330712 
L 135.555668 164.337897 
L 135.758704 161.934655 
L 135.96174 168.684903 
L 136.164776 143.281382 
L 136.367812 181.244591 
L 136.570848 173.934824 
L 136.773884 171.568325 
L 136.97692 167.08035 
L 137.179956 183.406886 
L 137.382992 151.297614 
L 137.586028 161.321474 
L 137.789064 155.922857 
L 137.9921 170.959214 
L 138.195136 163.881285 
L 138.398172 148.081006 
L 138.601208 143.719179 
L 138.804244 189.62559 
L 139.00728 164.019993 
L 139.413352 188.416934 
L 139.616388 169.042941 
L 139.819424 168.884156 
L 140.022459 166.347626 
L 140.225495 184.489315 
L 140.428531 187.921886 
L 140.631567 182.720824 
L 140.834603 184.935893 
L 141.037639 170.385494 
L 141.240675 177.9472 
L 141.443711 165.925316 
L 141.646747 169.420772 
L 141.849783 168.413525 
L 142.052819 171.865044 
L 142.255855 159.830011 
L 142.458891 173.496097 
L 142.661927 164.836568 
L 142.864963 178.420714 
L 143.067999 174.216262 
L 143.271035 164.994135 
L 143.474071 183.663527 
L 143.677107 185.331203 
L 143.880143 169.180385 
L 144.083179 168.000981 
L 144.286215 203.164667 
L 144.692287 179.216698 
L 144.895323 177.758862 
L 145.301395 195.493657 
L 145.707467 171.469079 
L 145.910503 183.996815 
L 146.113539 171.856929 
L 146.316575 201.104387 
L 146.519611 180.765253 
L 146.722647 182.202343 
L 146.925683 186.232894 
L 147.128719 204.700414 
L 147.331755 171.063464 
L 147.737827 188.490848 
L 147.940863 183.327116 
L 148.143899 195.380374 
L 148.346935 178.033714 
L 148.549971 204.538277 
L 148.753007 176.980948 
L 149.159079 197.288469 
L 149.362115 199.30783 
L 149.565151 187.1009 
L 149.768187 191.511341 
L 149.971223 206.323677 
L 150.174259 211.017928 
L 150.377295 186.70329 
L 150.580331 209.104439 
L 150.986403 185.92055 
L 151.189439 205.25068 
L 151.392475 177.411861 
L 151.595511 224.42542 
L 151.798547 204.635048 
L 152.001583 198.059453 
L 152.407655 179.196342 
L 152.610691 209.929931 
L 152.813727 203.753877 
L 153.016763 179.618933 
L 153.219799 182.15202 
L 153.422835 194.44495 
L 153.625871 185.557547 
L 153.828907 193.64083 
L 154.031943 184.590116 
L 154.438015 211.43392 
L 154.641051 196.837177 
L 154.844087 198.502191 
L 155.047123 211.066011 
L 155.250159 197.247394 
L 155.453195 206.295491 
L 155.656231 192.488006 
L 155.859267 199.570214 
L 156.062303 210.903504 
L 156.468375 197.090104 
L 156.671411 194.688892 
L 156.874447 186.933164 
L 157.280519 202.65528 
L 157.483554 229.310864 
L 157.68659 208.087731 
L 157.889626 212.432506 
L 158.092662 223.427437 
L 158.295698 183.36321 
L 158.498734 198.364061 
L 158.70177 189.826203 
L 158.904806 196.012871 
L 159.107842 194.691758 
L 159.310878 214.956542 
L 159.513914 204.118418 
L 159.71695 187.143601 
L 159.919986 205.435647 
L 160.123022 196.359232 
L 160.326058 195.556268 
L 160.529094 204.158605 
L 160.73213 195.501852 
L 160.935166 223.082223 
L 161.138202 191.279054 
L 161.341238 205.877271 
L 161.544274 201.337333 
L 161.74731 214.959442 
L 162.153382 199.887145 
L 162.356418 197.562405 
L 162.559454 207.029005 
L 162.76249 205.114319 
L 163.168562 221.819693 
L 163.371598 209.443704 
L 163.574634 210.505159 
L 163.77767 219.649636 
L 163.980706 213.990991 
L 164.386778 220.708532 
L 164.589814 211.506763 
L 164.995886 221.576937 
L 165.198922 220.940749 
L 165.401958 201.794087 
L 165.604994 219.98006 
L 165.80803 192.596639 
L 166.417138 218.605395 
L 166.620174 205.728232 
L 166.82321 221.387608 
L 167.026246 219.483444 
L 167.432318 211.993819 
L 167.635354 193.39353 
L 167.83839 228.709543 
L 168.041426 217.261052 
L 168.244462 215.834689 
L 168.650534 203.693875 
L 169.056606 222.473382 
L 169.259642 200.717577 
L 169.462678 221.185426 
L 169.665714 217.593228 
L 169.86875 209.845015 
L 170.071786 214.205943 
L 170.274822 203.872466 
L 170.477858 213.933996 
L 170.680894 214.829893 
L 170.88393 206.726161 
L 171.086966 211.581385 
L 171.290002 202.053719 
L 171.493038 205.792701 
L 171.696074 220.922945 
L 171.89911 205.938616 
L 172.102146 203.555221 
L 172.305182 209.83344 
L 172.508218 208.209884 
L 172.711254 229.73342 
L 172.91429 214.795712 
L 173.117326 230.037404 
L 173.320362 217.775209 
L 173.523398 219.88394 
L 173.726434 219.994403 
L 173.92947 215.430477 
L 174.132506 236.965224 
L 174.335542 222.145239 
L 174.538578 223.010045 
L 174.741614 232.211856 
L 174.944649 216.666381 
L 175.147685 233.015076 
L 175.350721 220.851888 
L 175.553757 221.130214 
L 175.756793 233.019422 
L 175.959829 235.670968 
L 176.162865 209.130438 
L 176.365901 227.91206 
L 176.568937 227.422463 
L 176.771973 231.926526 
L 177.178045 235.926537 
L 177.381081 230.732512 
L 177.584117 231.827767 
L 177.990189 215.615203 
L 178.193225 236.440193 
L 178.396261 217.232291 
L 178.599297 228.64371 
L 178.802333 228.341074 
L 179.005369 225.913829 
L 179.208405 217.459017 
L 179.411441 222.511301 
L 179.817513 234.879055 
L 180.020549 223.232716 
L 180.223585 224.842107 
L 180.426621 239.73888 
L 180.629657 223.494684 
L 180.832693 226.385869 
L 181.238765 215.842256 
L 181.441801 229.21768 
L 181.644837 231.210404 
L 181.847873 231.462398 
L 182.050909 226.712778 
L 182.253945 230.23908 
L 182.456981 230.481176 
L 182.660017 235.835276 
L 182.863053 237.722834 
L 183.066089 235.621992 
L 183.269125 229.886124 
L 183.675197 240.682295 
L 183.878233 223.103801 
L 184.081269 230.913589 
L 184.487341 223.097045 
L 184.690377 225.079841 
L 184.893413 232.798743 
L 185.096449 232.960166 
L 185.502521 223.342365 
L 185.705557 234.915107 
L 185.908593 236.962377 
L 186.111629 233.53491 
L 186.314665 216.156366 
L 186.517701 227.120074 
L 186.720737 244.483847 
L 186.923773 239.186726 
L 187.126809 224.551629 
L 187.329845 237.007754 
L 187.532881 239.609081 
L 187.735917 233.635637 
L 187.938953 222.786602 
L 188.141989 236.716083 
L 188.345025 241.486268 
L 188.751097 217.671851 
L 188.954133 224.91298 
L 189.157169 224.01962 
L 189.360205 246.770311 
L 189.563241 238.937348 
L 189.766277 239.620927 
L 189.969313 229.189064 
L 190.375385 241.456863 
L 190.781457 239.14423 
L 190.984493 231.292743 
L 191.187529 244.277281 
L 191.390565 240.940461 
L 191.593601 241.775198 
L 191.796637 233.794477 
L 191.999673 235.633398 
L 192.202709 233.038186 
L 192.405744 235.763817 
L 192.60878 244.754138 
L 192.811816 240.571504 
L 193.014852 242.932089 
L 193.420924 234.925651 
L 193.62396 226.595299 
L 193.826996 244.759811 
L 194.030032 246.895421 
L 194.436104 216.277703 
L 194.63914 234.012043 
L 194.842176 238.87996 
L 195.045212 226.855154 
L 195.248248 237.094107 
L 195.451284 235.247394 
L 195.65432 239.605213 
L 195.857356 248.352088 
L 196.263428 231.661526 
L 196.466464 253.710506 
L 196.6695 247.307543 
L 196.872536 253.711496 
L 197.278608 241.147155 
L 197.481644 257.335174 
L 197.68468 244.44485 
L 197.887716 248.538161 
L 198.090752 242.384956 
L 198.293788 244.98162 
L 198.69986 222.71896 
L 198.902896 257.735357 
L 199.105932 243.233074 
L 199.308968 248.679451 
L 199.512004 235.802559 
L 199.71504 240.141369 
L 199.918076 235.052264 
L 200.121112 235.361951 
L 200.933256 245.823957 
L 201.136292 253.749748 
L 201.339328 242.988359 
L 201.542364 247.863234 
L 201.7454 247.550442 
L 201.948436 248.545103 
L 202.151472 245.357357 
L 202.354508 232.476344 
L 202.963616 245.879284 
L 203.166652 234.771759 
L 203.369688 241.948112 
L 203.572724 236.033521 
L 203.77576 239.936596 
L 203.978796 249.578866 
L 204.181832 247.027101 
L 204.587904 250.035387 
L 204.79094 246.08681 
L 204.993976 246.996205 
L 205.197012 224.184314 
L 205.400048 251.07544 
L 205.603084 252.940896 
L 205.80612 238.799751 
L 206.009156 242.594587 
L 206.212192 264.521945 
L 206.415228 259.317808 
L 206.618264 250.256098 
L 206.8213 256.725307 
L 207.024336 255.291501 
L 207.430408 241.712346 
L 207.633444 252.420611 
L 207.83648 252.579087 
L 208.039516 255.072994 
L 208.242552 251.710835 
L 208.445588 244.689925 
L 208.648624 247.88432 
L 208.85166 248.410989 
L 209.054696 261.702015 
L 209.257732 240.179293 
L 209.460768 256.107795 
L 209.663804 247.923495 
L 209.86684 258.304995 
L 210.272911 244.988224 
L 210.475947 252.023095 
L 210.678983 240.148821 
L 211.085055 250.476554 
L 211.288091 259.357381 
L 211.491127 254.993837 
L 211.694163 258.299156 
L 211.897199 250.939463 
L 212.100235 250.466807 
L 212.303271 239.918107 
L 212.506307 240.119729 
L 212.912379 253.594073 
L 213.115415 252.380574 
L 213.318451 256.002126 
L 213.521487 256.208572 
L 213.724523 248.892493 
L 213.927559 261.331197 
L 214.130595 260.45162 
L 214.739703 248.568196 
L 214.942739 264.508335 
L 215.145775 244.074405 
L 215.348811 250.68468 
L 215.551847 265.386127 
L 215.754883 252.26758 
L 215.957919 258.745115 
L 216.160955 254.237471 
L 216.363991 254.029014 
L 216.567027 254.108098 
L 216.973099 246.579781 
L 217.176135 249.800524 
L 217.379171 248.136737 
L 217.582207 253.679265 
L 217.785243 251.029169 
L 217.988279 262.486164 
L 218.191315 247.09108 
L 218.394351 250.048556 
L 218.597387 243.439992 
L 218.800423 251.981362 
L 219.003459 255.029353 
L 219.206495 253.785337 
L 219.409531 255.323517 
L 219.612567 249.111476 
L 219.815603 265.357253 
L 220.018639 247.995259 
L 220.221675 242.375897 
L 220.424711 254.842586 
L 220.627747 251.133091 
L 220.830783 243.548855 
L 221.033819 245.772108 
L 221.236855 242.513815 
L 221.439891 257.824817 
L 221.642927 253.968009 
L 222.048999 262.175049 
L 222.252035 245.824773 
L 222.455071 255.364928 
L 222.658107 242.230788 
L 222.861143 255.6578 
L 223.267215 242.33595 
L 223.470251 253.01961 
L 223.876323 256.982665 
L 224.079359 260.666704 
L 224.282395 257.489914 
L 224.485431 249.302165 
L 224.688467 249.243762 
L 224.891503 253.70727 
L 225.094539 255.328596 
L 225.297575 249.345676 
L 225.500611 250.128153 
L 225.703647 251.755755 
L 226.109719 266.095734 
L 226.515791 261.566551 
L 226.718827 253.755507 
L 226.921863 241.220073 
L 227.327935 258.715999 
L 227.53097 260.26539 
L 227.734006 263.394741 
L 227.937042 262.395335 
L 228.343114 254.16206 
L 228.54615 261.42467 
L 228.749186 258.624833 
L 228.952222 252.441221 
L 229.358294 260.60452 
L 229.56133 253.67194 
L 229.764366 257.300146 
L 229.967402 245.389648 
L 230.373474 266.922244 
L 230.57651 260.031881 
L 230.779546 264.163053 
L 230.982582 257.160111 
L 231.185618 258.286787 
L 231.388654 262.465296 
L 231.794726 253.572674 
L 231.997762 262.443427 
L 232.403834 247.129555 
L 232.60687 261.918899 
L 232.809906 258.08198 
L 233.012942 261.005624 
L 233.215978 251.144456 
L 233.419014 261.498304 
L 233.62205 259.729034 
L 233.825086 267.074343 
L 234.028122 267.901349 
L 234.231158 273.81755 
L 234.434194 271.208333 
L 234.63723 251.304873 
L 234.840266 250.092173 
L 235.043302 260.551594 
L 235.246338 257.274251 
L 235.449374 269.469989 
L 235.855446 255.06239 
L 236.058482 259.403258 
L 236.261518 260.787681 
L 236.464554 265.546671 
L 236.66759 243.925268 
L 236.870626 252.129121 
L 237.073662 255.794966 
L 237.276698 245.374243 
L 237.479734 245.583909 
L 237.885806 261.389889 
L 238.088842 250.845545 
L 238.291878 248.925907 
L 238.494914 252.151372 
L 238.69795 261.283061 
L 238.900986 264.425193 
L 239.104022 263.43617 
L 239.307058 267.054432 
L 239.510094 261.772902 
L 239.71313 271.862869 
L 239.916166 247.351063 
L 240.119202 246.468731 
L 240.322238 247.405389 
L 240.525274 256.535852 
L 240.72831 244.640125 
L 240.931346 262.516805 
L 241.134382 249.705779 
L 241.337418 270.340554 
L 241.946526 257.034463 
L 242.149562 261.788619 
L 242.352598 259.604998 
L 242.555634 267.63164 
L 242.75867 258.085029 
L 242.961706 262.507807 
L 243.164742 263.118512 
L 243.570814 271.974082 
L 243.77385 252.091199 
L 243.976886 264.744453 
L 244.179922 258.048593 
L 244.382958 259.953285 
L 244.585994 269.09981 
L 244.78903 258.025539 
L 244.992065 262.341 
L 245.195101 258.72264 
L 245.398137 264.761594 
L 245.601173 265.721372 
L 245.804209 255.13345 
L 246.210281 264.539746 
L 246.413317 251.089922 
L 246.616353 263.767612 
L 246.819389 263.813974 
L 247.022425 259.958855 
L 247.225461 271.952883 
L 247.428497 257.571132 
L 247.631533 258.182386 
L 247.834569 272.655457 
L 248.037605 260.733198 
L 248.240641 256.521291 
L 248.443677 255.999102 
L 248.646713 275.853565 
L 248.849749 260.223558 
L 249.052785 266.345161 
L 249.255821 258.342761 
L 249.458857 265.735278 
L 249.661893 258.485297 
L 249.864929 244.764255 
L 250.067965 269.702797 
L 250.271001 255.119949 
L 250.474037 265.823986 
L 250.677073 257.868731 
L 250.880109 263.797791 
L 251.083145 254.51873 
L 251.286181 263.531875 
L 251.489217 257.117026 
L 251.692253 266.525441 
L 251.895289 267.592163 
L 252.098325 276.76875 
L 252.301361 259.98757 
L 252.504397 259.010616 
L 252.707433 265.848124 
L 252.910469 276.50745 
L 253.316541 261.252266 
L 253.519577 254.376827 
L 253.722613 255.788142 
L 253.925649 271.0293 
L 254.331721 263.796016 
L 254.534757 273.590949 
L 254.737793 269.457199 
L 254.940829 261.660034 
L 255.143865 270.934945 
L 255.752973 248.175611 
L 255.956009 265.850188 
L 256.159045 266.630679 
L 256.362081 270.17949 
L 256.565117 268.744541 
L 256.768153 270.202753 
L 256.971189 259.583651 
L 257.174225 270.885167 
L 257.377261 272.665355 
L 257.580297 263.877261 
L 257.783333 264.560417 
L 257.986369 272.05028 
L 258.189405 274.754912 
L 258.392441 263.150824 
L 258.595477 261.218584 
L 259.001549 273.155617 
L 259.204585 268.073551 
L 259.407621 254.573074 
L 259.610657 267.667 
L 259.813693 258.471541 
L 260.016729 260.858532 
L 260.219765 277.481556 
L 260.422801 273.460333 
L 260.828873 272.287565 
L 261.031909 265.013055 
L 261.234945 271.349826 
L 261.437981 268.796775 
L 261.641017 271.820467 
L 262.047089 265.618117 
L 262.250125 274.221398 
L 262.45316 267.085416 
L 262.656196 269.310249 
L 262.859232 267.017309 
L 263.062268 262.373767 
L 263.265304 269.769732 
L 263.46834 268.221262 
L 263.671376 258.292986 
L 263.874412 266.970644 
L 264.077448 264.716311 
L 264.280484 278.414149 
L 264.48352 267.673795 
L 264.686556 268.703792 
L 264.889592 272.704999 
L 265.295664 262.250215 
L 266.107808 276.259982 
L 266.310844 260.665686 
L 266.51388 263.89495 
L 266.716916 277.81074 
L 266.919952 281.433121 
L 267.326024 269.978219 
L 267.52906 276.836514 
L 267.732096 278.172544 
L 267.935132 264.905754 
L 268.341204 282.252766 
L 268.54424 261.322999 
L 268.747276 270.458925 
L 268.950312 273.943734 
L 269.153348 273.738725 
L 269.356384 257.767364 
L 269.55942 263.048185 
L 269.762456 274.135454 
L 269.965492 274.701399 
L 270.168528 276.308219 
L 270.371564 275.348104 
L 270.5746 284.13811 
L 270.777636 259.226534 
L 270.980672 279.658795 
L 271.183708 261.673559 
L 271.386744 258.68174 
L 271.58978 258.038061 
L 271.792816 254.395366 
L 271.995852 274.373204 
L 272.198888 277.435173 
L 272.401924 267.774381 
L 272.60496 273.483394 
L 273.011032 263.458045 
L 273.214068 276.247735 
L 273.417104 267.980079 
L 273.62014 273.343187 
L 273.823176 268.601568 
L 274.026212 273.702734 
L 274.229248 273.23088 
L 274.432284 273.189399 
L 274.63532 271.228238 
L 274.838356 265.778407 
L 275.041392 264.458217 
L 275.244428 271.981675 
L 275.447464 267.464858 
L 275.6505 268.209714 
L 275.853536 269.393054 
L 276.056572 265.928476 
L 276.259608 274.440656 
L 276.462644 262.997736 
L 276.66568 260.756213 
L 276.868716 250.13802 
L 277.071752 258.424634 
L 277.274788 260.469552 
L 277.477824 267.282733 
L 277.68086 269.401161 
L 277.883896 256.156449 
L 278.086932 273.774452 
L 278.289968 276.420984 
L 278.493004 257.74587 
L 278.69604 265.370274 
L 278.899076 268.649777 
L 279.102112 249.987719 
L 279.305148 269.475233 
L 279.508184 275.873873 
L 279.914256 260.423542 
L 280.117291 275.336637 
L 280.523363 270.010886 
L 280.726399 277.400349 
L 280.929435 269.505035 
L 281.132471 273.560536 
L 281.335507 270.504532 
L 281.538543 276.400356 
L 281.741579 266.576292 
L 281.944615 267.633495 
L 282.147651 279.355683 
L 282.350687 267.233943 
L 282.553723 276.101973 
L 282.756759 265.268118 
L 282.959795 273.894801 
L 283.365867 281.601726 
L 283.568903 271.830357 
L 283.771939 275.738988 
L 284.178011 266.957677 
L 284.381047 269.861933 
L 284.584083 275.575577 
L 284.787119 258.921553 
L 284.990155 281.088848 
L 285.193191 256.405673 
L 285.396227 276.102048 
L 285.599263 280.950187 
L 285.802299 273.066174 
L 286.005335 278.707722 
L 286.208371 271.991405 
L 286.411407 273.380486 
L 286.614443 271.117535 
L 286.817479 265.494271 
L 287.020515 267.110794 
L 287.223551 281.872492 
L 287.832659 257.708093 
L 288.035695 271.675177 
L 288.238731 271.916918 
L 288.441767 269.634505 
L 288.644803 270.142877 
L 288.847839 267.342486 
L 289.050875 276.338069 
L 289.253911 266.499147 
L 289.456947 266.038216 
L 289.659983 267.340416 
L 289.863019 269.586314 
L 290.066055 269.56069 
L 290.269091 278.621609 
L 290.472127 276.755152 
L 290.675163 272.492196 
L 290.878199 262.691683 
L 291.081235 279.311937 
L 291.487307 272.717096 
L 291.690343 263.733675 
L 291.893379 265.373269 
L 292.096415 274.990096 
L 292.299451 268.518603 
L 292.502487 269.506127 
L 292.705523 266.998005 
L 292.908559 281.265835 
L 293.314631 267.802361 
L 293.517667 266.346037 
L 293.720703 269.290405 
L 293.923739 269.864867 
L 294.126775 267.10574 
L 294.329811 277.612624 
L 294.532847 279.252807 
L 294.735883 272.655465 
L 294.938919 272.925074 
L 295.141955 267.681324 
L 295.344991 275.927514 
L 295.548027 277.269036 
L 295.751063 275.403034 
L 295.954099 270.389535 
L 296.360171 274.217147 
L 296.563207 268.270815 
L 296.766243 274.475052 
L 296.969279 271.089029 
L 297.172315 273.903647 
L 297.375351 273.716499 
L 297.984458 278.251212 
L 298.39053 266.07079 
L 298.796602 275.914378 
L 298.999638 270.877294 
L 299.202674 261.095003 
L 299.608746 283.235766 
L 299.811782 280.620381 
L 300.014818 283.235937 
L 300.217854 282.408887 
L 300.623926 277.396216 
L 300.826962 277.705841 
L 301.233034 263.040078 
L 301.43607 281.869229 
L 301.639106 257.117515 
L 301.842142 279.487507 
L 302.248214 277.370394 
L 302.45125 268.641279 
L 302.654286 273.68509 
L 302.857322 265.467629 
L 303.060358 263.017315 
L 303.263394 264.285311 
L 303.46643 270.377491 
L 303.669466 269.658602 
L 303.872502 272.306727 
L 304.075538 266.027025 
L 304.278574 266.689952 
L 304.48161 276.037149 
L 304.684646 274.394172 
L 304.887682 271.568421 
L 305.090718 263.296191 
L 305.293754 261.838705 
L 305.49679 277.816769 
L 305.699826 272.050713 
L 305.902862 270.345312 
L 306.308934 279.231387 
L 306.51197 271.730838 
L 306.715006 279.102335 
L 306.918042 276.165321 
L 307.121078 284.107227 
L 307.52715 272.854337 
L 307.730186 271.750238 
L 308.339294 282.798582 
L 308.54233 274.294894 
L 308.948402 279.174271 
L 309.151438 272.697834 
L 309.354474 272.182982 
L 309.55751 263.94875 
L 309.760546 271.963945 
L 309.963582 265.955601 
L 310.166618 278.21046 
L 310.369654 282.478332 
L 310.57269 274.054071 
L 310.775726 270.28185 
L 310.978762 274.027479 
L 311.181798 289.571452 
L 311.384834 264.038277 
L 311.58787 265.21642 
L 311.790906 280.455438 
L 311.993942 283.454566 
L 312.196978 278.824666 
L 312.400014 279.053076 
L 312.806086 281.754893 
L 313.009122 273.68011 
L 313.212158 276.113104 
L 313.415194 262.937475 
L 313.61823 284.910752 
L 313.821266 272.359367 
L 314.024302 273.180955 
L 314.227338 277.900164 
L 314.430374 266.650443 
L 314.836446 280.651869 
L 315.039481 280.512796 
L 315.242517 278.155276 
L 315.445553 283.442107 
L 315.648589 272.014437 
L 316.054661 284.865253 
L 316.257697 274.185605 
L 316.460733 279.156805 
L 316.663769 273.816966 
L 316.866805 280.972374 
L 317.069841 267.265121 
L 317.272877 288.1703 
L 317.475913 278.988786 
L 317.678949 276.853958 
L 317.881985 289.273053 
L 318.085021 275.302652 
L 318.288057 278.269456 
L 318.897165 265.60014 
L 319.100201 275.910027 
L 319.506273 272.410002 
L 319.709309 274.182175 
L 319.912345 278.746971 
L 320.115381 279.317833 
L 320.318417 277.69691 
L 320.521453 283.120924 
L 320.724489 272.513247 
L 320.927525 286.799665 
L 321.333597 274.842581 
L 321.536633 273.602123 
L 321.739669 280.270063 
L 321.942705 273.339131 
L 322.348777 287.000109 
L 322.551813 286.107224 
L 322.754849 277.142773 
L 322.957885 279.132834 
L 323.160921 287.455718 
L 323.363957 266.923065 
L 323.566993 263.624375 
L 323.770029 267.276276 
L 323.973065 275.7315 
L 324.176101 278.262569 
L 324.379137 282.342201 
L 324.582173 275.523704 
L 324.785209 276.357042 
L 325.191281 261.932694 
L 325.394317 274.507667 
L 325.597353 276.838017 
L 325.800389 275.175248 
L 326.003425 290.29872 
L 326.206461 283.854205 
L 326.409497 267.474851 
L 326.612533 286.684229 
L 326.815569 275.971536 
L 327.018605 277.434474 
L 327.221641 275.412793 
L 327.424677 277.440507 
L 327.830749 283.8844 
L 328.033785 267.860192 
L 328.236821 276.54043 
L 328.439857 277.123292 
L 328.642893 261.240173 
L 329.048965 284.536343 
L 329.252001 274.42365 
L 329.455037 279.914553 
L 329.658073 282.384401 
L 329.861109 278.847364 
L 330.064145 278.225081 
L 330.267181 271.504321 
L 330.470217 285.300386 
L 330.673253 268.621632 
L 330.876289 271.255205 
L 331.079325 276.387814 
L 331.282361 275.436957 
L 331.485397 283.313677 
L 331.688433 276.493243 
L 331.891469 283.106384 
L 332.094505 279.966711 
L 332.297541 282.678242 
L 332.500576 278.450645 
L 332.703612 280.685894 
L 332.906648 270.732784 
L 333.109684 280.253935 
L 333.31272 278.824777 
L 333.515756 289.535342 
L 333.718792 278.931113 
L 333.921828 288.407655 
L 334.124864 277.488015 
L 334.530936 275.623587 
L 334.733972 270.75032 
L 335.140044 282.327735 
L 335.34308 283.207213 
L 335.546116 288.58715 
L 335.749152 283.828272 
L 335.952188 286.015609 
L 336.155224 273.638538 
L 336.561296 270.999601 
L 336.967368 275.971127 
L 337.170404 283.334804 
L 337.37344 277.758125 
L 337.576476 276.715434 
L 337.779512 282.478326 
L 337.982548 282.824991 
L 338.185584 275.441563 
L 338.38862 272.284744 
L 338.591656 274.293281 
L 338.794692 284.795648 
L 339.200764 277.205326 
L 339.4038 287.435474 
L 339.606836 277.920181 
L 339.809872 279.161537 
L 340.012908 292.161811 
L 340.215944 273.079017 
L 340.41898 286.767685 
L 340.622016 279.72329 
L 340.825052 282.122513 
L 341.028088 278.048557 
L 341.231124 279.964818 
L 341.43416 264.900112 
L 342.043268 286.791388 
L 342.246304 275.598985 
L 342.44934 288.592235 
L 342.652376 280.689427 
L 342.855412 286.389009 
L 343.058448 281.841111 
L 343.261484 272.633635 
L 343.667556 281.344587 
L 343.870592 280.261697 
L 344.073628 287.324569 
L 344.276664 289.965418 
L 344.682736 277.059199 
L 344.885772 280.140027 
L 345.088808 267.071795 
L 345.291844 279.610518 
L 345.49488 281.701016 
L 345.697916 290.119463 
L 345.900952 274.191519 
L 346.103988 275.119498 
L 346.307024 288.330785 
L 346.51006 285.592599 
L 346.713096 276.808063 
L 346.916132 277.52392 
L 347.119168 271.080802 
L 347.322204 284.754949 
L 347.931312 274.024883 
L 348.134348 275.046157 
L 348.337384 268.68976 
L 348.54042 276.605292 
L 348.743456 273.122859 
L 348.946492 292.599016 
L 349.149528 279.579171 
L 349.352564 286.672813 
L 349.5556 278.570281 
L 349.758636 278.759352 
L 349.961671 285.126676 
L 350.164707 279.73042 
L 350.367743 258.905881 
L 350.570779 274.720426 
L 350.773815 275.025461 
L 350.976851 275.760195 
L 351.179887 273.37245 
L 351.585959 278.710821 
L 351.788995 284.486796 
L 351.992031 279.645067 
L 352.195067 283.83264 
L 352.398103 285.422612 
L 352.601139 276.696952 
L 352.804175 285.541692 
L 353.007211 279.546267 
L 353.210247 279.683874 
L 353.616319 271.206288 
L 353.819355 283.944269 
L 354.022391 278.073894 
L 354.225427 277.875287 
L 354.631499 285.783478 
L 354.834535 279.994809 
L 355.037571 282.063403 
L 355.240607 286.184843 
L 355.646679 274.892054 
L 355.849715 273.678894 
L 356.052751 282.375012 
L 356.255787 256.638131 
L 356.458823 278.7815 
L 356.864895 286.241454 
L 357.067931 279.546765 
L 357.270967 279.801328 
L 357.677039 266.845685 
L 358.286147 291.203775 
L 358.692219 272.075539 
L 358.895255 277.40334 
L 359.098291 287.959433 
L 359.301327 280.812145 
L 359.504363 287.736456 
L 359.707399 280.427357 
L 359.910435 286.059324 
L 360.113471 285.552183 
L 360.519543 271.772946 
L 360.722579 285.65508 
L 360.925615 267.159777 
L 361.331687 281.682848 
L 361.534723 276.565679 
L 361.737759 278.222346 
L 361.940795 272.017191 
L 362.143831 276.852216 
L 362.346867 289.582722 
L 362.549903 268.285659 
L 362.752939 276.945119 
L 363.362047 286.341165 
L 363.768119 281.914143 
L 363.971155 288.609333 
L 364.174191 282.275827 
L 364.377227 279.580222 
L 364.580263 280.921292 
L 364.783299 281.358754 
L 364.986335 282.654257 
L 365.189371 277.839351 
L 365.392407 283.32292 
L 365.595443 276.89307 
L 365.798479 294.813404 
L 366.001515 287.340869 
L 366.204551 285.158914 
L 366.407587 278.552178 
L 366.610623 288.122516 
L 366.813659 280.572042 
L 367.016695 283.978108 
L 367.219731 284.167617 
L 367.422767 286.001751 
L 367.828838 276.36814 
L 368.031874 276.589013 
L 368.23491 276.643512 
L 368.437946 273.174744 
L 368.640982 272.373951 
L 368.844018 277.251411 
L 369.047054 254.243278 
L 369.25009 278.392943 
L 369.453126 274.983857 
L 369.656162 267.920322 
L 370.062234 284.871155 
L 370.468306 272.352398 
L 370.671342 291.071515 
L 370.874378 270.541948 
L 371.077414 274.530507 
L 371.28045 272.704122 
L 371.483486 280.80801 
L 371.889558 286.838905 
L 372.092594 278.176695 
L 372.29563 276.329954 
L 372.498666 287.845809 
L 372.701702 287.105308 
L 372.904738 278.395399 
L 373.107774 288.091482 
L 373.31081 278.09613 
L 373.513846 284.707065 
L 373.919918 276.492259 
L 374.122954 281.675074 
L 374.32599 272.933413 
L 374.529026 273.721363 
L 374.732062 280.085553 
L 374.935098 279.644818 
L 375.138134 284.66127 
L 375.544206 280.721573 
L 375.747242 280.178463 
L 375.950278 273.457892 
L 376.153314 275.574706 
L 376.35635 280.293315 
L 376.559386 275.714357 
L 376.762422 277.118062 
L 376.965458 284.996311 
L 377.168494 279.399642 
L 377.37153 285.003003 
L 377.574566 271.346127 
L 377.980638 288.39842 
L 378.183674 274.224209 
L 378.38671 285.19721 
L 378.589746 288.602883 
L 378.792782 280.768604 
L 378.995818 286.984368 
L 379.198854 265.182349 
L 379.40189 286.925567 
L 379.604926 279.520947 
L 379.807962 285.256625 
L 380.010998 287.460473 
L 380.41707 283.904346 
L 380.620106 275.539845 
L 380.823142 291.057005 
L 381.026178 284.834805 
L 381.229214 289.188443 
L 381.43225 285.003572 
L 381.635286 289.181932 
L 381.838322 277.715356 
L 382.041358 286.577886 
L 382.244394 283.820171 
L 382.44743 275.120357 
L 382.650466 282.592406 
L 383.056538 284.706325 
L 383.259574 279.500405 
L 383.46261 288.52243 
L 383.665646 279.242972 
L 383.868682 281.97494 
L 384.071718 274.053573 
L 384.274754 285.798792 
L 384.47779 283.530064 
L 384.680826 286.951475 
L 384.883862 286.222843 
L 385.086897 283.760485 
L 385.289933 276.551532 
L 385.696005 285.502883 
L 386.102077 287.333509 
L 386.305113 295.488 
L 386.508149 289.657896 
L 386.711185 291.120306 
L 386.914221 286.009105 
L 387.117257 273.215743 
L 387.320293 284.336492 
L 387.726365 281.229668 
L 387.929401 287.104616 
L 388.132437 288.460239 
L 388.335473 274.100061 
L 388.538509 276.61153 
L 388.741545 280.680526 
L 388.944581 280.608354 
L 389.147617 280.998119 
L 389.350653 282.954822 
L 389.553689 271.729 
L 389.756725 284.581323 
L 389.959761 274.300722 
L 390.162797 287.859148 
L 390.365833 270.737677 
L 390.568869 288.441938 
L 390.771905 280.096547 
L 390.974941 289.812665 
L 391.177977 290.493155 
L 391.584049 283.005334 
L 391.787085 280.035505 
L 392.193157 282.920869 
L 392.396193 285.614176 
L 392.599229 281.895139 
L 392.802265 290.280766 
L 393.005301 285.690875 
L 393.208337 273.254929 
L 393.614409 285.647724 
L 393.817445 281.654146 
L 394.020481 288.417398 
L 394.223517 279.432291 
L 394.426553 284.593716 
L 394.629589 274.854277 
L 394.832625 284.727415 
L 395.035661 262.826343 
L 395.238697 280.972645 
L 395.441733 276.3841 
L 395.644769 279.028544 
L 395.847805 286.27289 
L 396.050841 278.548187 
L 396.253877 286.88069 
L 396.456913 274.588111 
L 396.659949 270.279462 
L 396.862985 286.840998 
L 397.066021 278.81221 
L 397.472093 286.337697 
L 397.675129 286.496072 
L 397.878165 275.729008 
L 398.081201 295.379544 
L 398.284237 276.202021 
L 398.487273 290.222394 
L 398.487273 290.222394 
" style="fill:none;stroke:#1f77b4;stroke-linecap:square;stroke-width:1.5;"/>
   </g>
   <g id="line2d_19">
    <path clip-path="url(#p6dcd899c63)" d="M 73.832727 116.70969 
L 74.035763 136.510537 
L 74.238799 101.721533 
L 74.441835 86.781006 
L 74.644871 107.26432 
L 74.847907 107.309302 
L 75.050943 88.710846 
L 75.253979 125.368405 
L 75.457015 103.232178 
L 75.660051 132.097785 
L 75.863087 105.253194 
L 76.066123 110.665923 
L 76.269159 112.110864 
L 76.472195 119.496857 
L 76.878267 125.237808 
L 77.081303 119.863001 
L 77.487375 129.962543 
L 77.690411 107.172635 
L 77.893447 101.620601 
L 78.299519 119.633345 
L 78.502555 100.569507 
L 78.705591 125.293107 
L 78.908627 123.071129 
L 79.111663 91.956912 
L 79.314699 97.070083 
L 79.517735 84.394893 
L 79.720771 99.997407 
L 79.923807 151.119506 
L 80.329879 79.96317 
L 80.532915 120.426591 
L 80.735951 117.731232 
L 80.938987 95.194339 
L 81.142023 103.790478 
L 81.345059 95.021502 
L 81.548095 96.728828 
L 81.751131 138.633604 
L 81.954167 120.012214 
L 82.157203 118.625898 
L 82.360239 104.404894 
L 82.563275 105.350589 
L 82.766311 110.969374 
L 82.969347 89.655607 
L 83.375419 150.098885 
L 83.578455 113.612022 
L 83.781491 139.367358 
L 83.984527 107.082944 
L 84.187563 112.281198 
L 84.390599 98.434481 
L 84.593635 122.059542 
L 84.796671 104.799011 
L 84.999707 149.075946 
L 85.405779 101.077494 
L 85.608815 102.296819 
L 85.811851 139.518181 
L 86.014887 130.393541 
L 86.217923 102.32143 
L 86.420959 126.650616 
L 86.623995 116.062119 
L 86.827031 93.293047 
L 87.030067 106.432165 
L 87.233103 98.005527 
L 87.436138 123.655922 
L 87.639174 92.927939 
L 87.84221 109.174128 
L 88.045246 114.396344 
L 88.248282 95.641858 
L 88.451318 88.743282 
L 88.654354 114.0762 
L 88.85739 107.063056 
L 89.060426 115.619477 
L 89.263462 109.625669 
L 89.466498 134.738364 
L 89.669534 109.515503 
L 90.075606 137.024491 
L 90.278642 123.535202 
L 90.481678 98.355029 
L 90.684714 93.954305 
L 91.090786 140.03185 
L 91.293822 100.885092 
L 91.496858 129.73554 
L 91.90293 100.134272 
L 92.105966 113.131491 
L 92.309002 90.54437 
L 92.512038 106.771343 
L 92.715074 105.371296 
L 92.91811 100.482018 
L 93.527218 112.453471 
L 93.730254 141.690213 
L 93.93329 102.003458 
L 94.136326 123.204956 
L 94.339362 99.800761 
L 94.542398 122.628506 
L 95.151506 101.610965 
L 95.354542 124.032869 
L 95.557578 110.03664 
L 95.760614 129.799307 
L 95.96365 118.894722 
L 96.166686 119.93941 
L 96.369722 140.319468 
L 96.572758 102.459818 
L 96.775794 135.276841 
L 97.181866 90.895491 
L 97.384902 128.830683 
L 97.587938 136.043052 
L 97.790974 130.066383 
L 97.99401 128.691439 
L 98.197046 88.409176 
L 98.400082 87.607173 
L 98.806154 117.642779 
L 99.00919 103.68976 
L 99.212226 126.77684 
L 99.415262 119.588915 
L 99.618298 146.480818 
L 99.821334 132.730396 
L 100.02437 100.952836 
L 100.227406 132.949658 
L 100.633478 110.682799 
L 100.836514 133.867253 
L 101.03955 124.643936 
L 101.242586 87.316145 
L 101.445622 102.698681 
L 101.648658 89.524488 
L 102.05473 121.367186 
L 102.257766 121.655106 
L 102.460802 109.723583 
L 102.663838 111.221178 
L 102.866874 122.030498 
L 103.06991 83.607016 
L 103.475982 119.773206 
L 103.679018 109.412558 
L 103.882054 118.924094 
L 104.08509 85.689268 
L 104.288126 138.060295 
L 104.491162 114.483188 
L 104.694198 129.776299 
L 104.897233 108.262258 
L 105.100269 120.565966 
L 105.303305 117.459209 
L 105.506341 137.393892 
L 105.912413 119.516937 
L 106.115449 113.947516 
L 106.318485 53.568 
L 106.521521 124.932884 
L 106.724557 97.102609 
L 106.927593 117.773066 
L 107.130629 119.707034 
L 107.333665 106.842822 
L 107.536701 106.339963 
L 107.739737 102.195669 
L 108.145809 124.828217 
L 108.348845 115.142508 
L 108.551881 97.662395 
L 108.957953 125.739973 
L 109.160989 92.16651 
L 109.364025 113.55998 
L 109.567061 110.072181 
L 109.770097 97.337672 
L 109.973133 121.305148 
L 110.176169 97.509055 
L 110.582241 126.261524 
L 110.785277 102.684141 
L 110.988313 120.000309 
L 111.191349 97.600634 
L 111.597421 128.827832 
L 112.003493 133.658837 
L 112.409565 117.053303 
L 112.612601 100.964042 
L 112.815637 132.164514 
L 113.221709 122.389898 
L 113.424745 139.178688 
L 113.627781 125.13873 
L 113.830817 120.756527 
L 114.033853 135.436874 
L 114.236889 119.102933 
L 114.439925 139.142822 
L 114.845997 124.120513 
L 115.049033 147.43011 
L 115.252069 132.803683 
L 115.455105 142.288886 
L 115.658141 117.526514 
L 115.861177 138.968173 
L 116.064213 122.987447 
L 116.470285 156.67446 
L 116.673321 124.049775 
L 116.876357 119.629657 
L 117.079393 124.982749 
L 117.282429 134.73565 
L 117.485465 116.848792 
L 117.688501 110.884883 
L 117.891537 132.756758 
L 118.094573 132.95788 
L 118.297609 124.77163 
L 118.500645 130.66145 
L 118.703681 124.197546 
L 118.906717 93.646188 
L 119.109753 147.549386 
L 119.312789 137.84819 
L 119.515825 140.854109 
L 119.718861 157.160571 
L 119.921897 102.966759 
L 120.124933 97.500136 
L 120.327969 131.376247 
L 120.531005 130.794698 
L 120.734041 122.660874 
L 120.937077 144.103417 
L 121.140113 108.364664 
L 121.343149 146.443521 
L 121.546185 117.381613 
L 121.749221 142.461747 
L 121.952257 149.309276 
L 122.155293 124.831467 
L 122.358329 130.630995 
L 122.561364 128.4754 
L 122.7644 140.927583 
L 122.967436 141.730329 
L 123.170472 126.632576 
L 123.373508 156.678859 
L 123.77958 138.779665 
L 123.982616 137.396698 
L 124.185652 114.535992 
L 124.591724 134.284001 
L 124.79476 134.335997 
L 124.997796 150.031685 
L 125.403868 118.960041 
L 125.606904 158.075948 
L 125.80994 128.284606 
L 126.012976 129.269301 
L 126.216012 147.478532 
L 126.419048 125.902996 
L 126.622084 136.764203 
L 126.82512 127.563475 
L 127.028156 144.141974 
L 127.231192 129.731106 
L 127.434228 154.238934 
L 127.637264 135.142253 
L 127.8403 146.410805 
L 128.246372 136.295676 
L 128.449408 122.735833 
L 128.652444 137.820607 
L 128.85548 137.533775 
L 129.058516 151.654684 
L 129.261552 129.988066 
L 129.464588 143.250064 
L 129.667624 170.175897 
L 130.073696 121.78473 
L 130.276732 159.95509 
L 130.479768 131.927154 
L 130.682804 134.52201 
L 130.88584 139.744096 
L 131.088876 140.761557 
L 131.291912 148.093506 
L 131.494948 139.929123 
L 131.697984 160.06503 
L 131.90102 126.268655 
L 132.104056 144.393605 
L 132.307092 139.582676 
L 132.510128 138.448725 
L 132.713164 130.986258 
L 132.9162 149.562227 
L 133.119236 116.538355 
L 133.322272 152.272209 
L 133.525308 163.641336 
L 133.728344 165.908926 
L 133.93138 143.354201 
L 134.134416 146.855505 
L 134.337452 142.905528 
L 134.540488 159.49046 
L 134.743524 152.797631 
L 134.94656 153.926771 
L 135.149596 151.706843 
L 135.352632 148.041305 
L 135.555668 159.853741 
L 135.758704 160.414847 
L 135.96174 145.907792 
L 136.164776 155.63792 
L 136.367812 145.306818 
L 136.570848 149.439678 
L 136.773884 133.900473 
L 136.97692 167.910104 
L 137.179956 161.126769 
L 137.382992 159.151908 
L 137.789064 144.240016 
L 137.9921 138.615996 
L 138.195136 148.059388 
L 138.398172 167.069226 
L 138.601208 162.214428 
L 138.804244 151.127961 
L 139.00728 146.994294 
L 139.210316 159.373386 
L 139.413352 162.712591 
L 139.616388 169.282938 
L 139.819424 140.392977 
L 140.225495 159.999774 
L 140.428531 151.084633 
L 140.631567 153.254242 
L 140.834603 126.251822 
L 141.240675 162.02117 
L 141.443711 144.815854 
L 141.646747 166.270265 
L 141.849783 162.096253 
L 142.052819 168.780548 
L 142.255855 139.008792 
L 142.458891 165.564104 
L 142.661927 151.904522 
L 142.864963 158.757702 
L 143.067999 161.203633 
L 143.271035 138.491131 
L 143.474071 166.56797 
L 143.677107 157.191385 
L 143.880143 153.66455 
L 144.083179 140.83813 
L 144.692287 165.164745 
L 144.895323 155.0185 
L 145.098359 136.352622 
L 145.301395 153.667904 
L 145.504431 156.303704 
L 145.707467 147.781449 
L 145.910503 149.999589 
L 146.113539 154.912394 
L 146.316575 168.930391 
L 146.722647 138.506923 
L 146.925683 175.428765 
L 147.128719 147.014952 
L 147.737827 163.799932 
L 147.940863 154.917694 
L 148.143899 158.667937 
L 148.346935 144.528486 
L 148.753007 158.544234 
L 148.956043 161.131817 
L 149.159079 142.429804 
L 149.565151 176.112613 
L 149.768187 145.884231 
L 149.971223 161.467099 
L 150.174259 158.34464 
L 150.377295 168.760986 
L 150.580331 186.531147 
L 150.783367 167.966958 
L 150.986403 172.587495 
L 151.189439 166.278055 
L 151.798547 135.609017 
L 152.001583 188.785129 
L 152.204619 151.823948 
L 152.407655 173.735871 
L 152.610691 158.833774 
L 152.813727 157.352769 
L 153.016763 154.28537 
L 153.219799 168.508578 
L 153.422835 156.445816 
L 153.625871 152.444039 
L 153.828907 179.892034 
L 154.031943 171.800245 
L 154.234979 149.604342 
L 154.438015 175.79673 
L 154.641051 155.32217 
L 154.844087 195.670996 
L 155.047123 157.485428 
L 155.250159 159.626555 
L 155.453195 169.402858 
L 155.656231 159.203656 
L 155.859267 177.160403 
L 156.062303 141.530149 
L 156.265339 163.219245 
L 156.468375 151.243869 
L 156.874447 182.979948 
L 157.077483 174.382427 
L 157.280519 155.345208 
L 157.483554 177.93647 
L 157.68659 147.52056 
L 157.889626 172.644349 
L 158.092662 178.648394 
L 158.295698 160.224772 
L 158.498734 170.944866 
L 158.70177 170.698333 
L 158.904806 168.896301 
L 159.107842 177.259338 
L 159.310878 170.632514 
L 159.513914 170.169537 
L 159.71695 162.373563 
L 160.326058 169.704961 
L 160.529094 149.487648 
L 160.73213 182.833511 
L 160.935166 157.378767 
L 161.138202 175.827753 
L 161.341238 164.96794 
L 161.544274 143.57869 
L 161.74731 168.508704 
L 161.950346 159.625317 
L 162.153382 171.324543 
L 162.356418 160.195188 
L 162.559454 175.804369 
L 162.76249 159.163045 
L 162.965526 175.808593 
L 163.168562 165.571722 
L 163.371598 164.545975 
L 163.574634 166.667949 
L 163.77767 166.657343 
L 163.980706 185.498212 
L 164.183742 159.625483 
L 164.386778 159.960964 
L 164.589814 154.089327 
L 164.79285 194.458932 
L 164.995886 158.718156 
L 165.198922 177.993873 
L 165.401958 167.220656 
L 165.604994 169.94174 
L 165.80803 151.781568 
L 166.011066 152.722055 
L 166.214102 163.605994 
L 166.417138 151.824439 
L 166.620174 174.004967 
L 166.82321 158.655167 
L 167.026246 168.730343 
L 167.432318 152.180746 
L 167.83839 192.556708 
L 168.041426 162.173969 
L 168.244462 174.037947 
L 168.447498 155.720709 
L 168.650534 158.718865 
L 168.85357 164.415133 
L 169.056606 152.630157 
L 169.259642 179.965338 
L 169.462678 179.317672 
L 169.665714 191.772966 
L 169.86875 166.745355 
L 170.274822 185.371158 
L 170.477858 171.869554 
L 170.680894 173.087573 
L 170.88393 172.763783 
L 171.086966 159.755808 
L 171.290002 191.163656 
L 171.493038 161.91924 
L 171.696074 169.836684 
L 171.89911 150.016778 
L 172.102146 187.797098 
L 172.305182 167.437529 
L 172.711254 171.182251 
L 172.91429 156.331722 
L 173.320362 176.820382 
L 173.523398 199.850216 
L 173.726434 170.347301 
L 173.92947 159.569104 
L 174.132506 174.533995 
L 174.335542 170.518109 
L 174.538578 169.75799 
L 174.741614 145.452322 
L 174.944649 163.871469 
L 175.147685 166.888108 
L 175.350721 150.623121 
L 175.553757 179.278618 
L 175.756793 175.520237 
L 175.959829 160.148946 
L 176.365901 178.617303 
L 176.568937 160.677147 
L 176.771973 178.681087 
L 176.975009 173.057311 
L 177.178045 155.999795 
L 177.381081 171.139301 
L 177.584117 159.389792 
L 177.787153 165.032614 
L 177.990189 166.557583 
L 178.193225 159.662744 
L 178.396261 181.711385 
L 178.599297 174.647301 
L 178.802333 158.371041 
L 179.005369 179.35318 
L 179.208405 175.389802 
L 179.411441 151.571935 
L 179.614477 176.868852 
L 179.817513 170.655553 
L 180.020549 171.91051 
L 180.223585 165.772382 
L 180.426621 165.862396 
L 180.629657 160.823249 
L 180.832693 168.297147 
L 181.035729 187.487103 
L 181.238765 167.735743 
L 181.441801 160.638523 
L 181.644837 173.116356 
L 181.847873 160.650147 
L 182.253945 186.085032 
L 182.660017 173.638923 
L 182.863053 165.812088 
L 183.066089 184.32284 
L 183.269125 169.090594 
L 183.472161 182.320106 
L 183.675197 183.343859 
L 183.878233 180.746649 
L 184.081269 189.541059 
L 184.284305 165.694809 
L 184.487341 181.189594 
L 184.690377 164.37487 
L 184.893413 172.737612 
L 185.096449 201.791598 
L 185.299485 166.43836 
L 185.502521 188.012262 
L 185.705557 161.340008 
L 185.908593 156.88858 
L 186.314665 183.774201 
L 186.517701 179.978145 
L 186.720737 191.508315 
L 187.126809 172.242817 
L 187.329845 165.651373 
L 187.532881 154.552039 
L 187.735917 173.144786 
L 187.938953 174.183432 
L 188.141989 161.938197 
L 188.345025 172.011992 
L 188.548061 162.402853 
L 188.751097 163.781694 
L 189.157169 186.425621 
L 189.360205 159.801114 
L 189.563241 179.950669 
L 189.969313 169.393243 
L 190.172349 165.334001 
L 190.375385 188.461071 
L 190.578421 166.58168 
L 190.984493 182.40876 
L 191.187529 182.829791 
L 191.593601 163.615805 
L 191.796637 163.144469 
L 191.999673 156.054309 
L 192.202709 200.073035 
L 192.405744 170.717071 
L 192.60878 164.635182 
L 192.811816 177.589406 
L 193.014852 175.328208 
L 193.217888 189.510999 
L 193.420924 181.782643 
L 193.62396 159.39988 
L 194.030032 181.639959 
L 194.233068 180.227509 
L 194.436104 186.064519 
L 194.63914 186.97224 
L 194.842176 171.509931 
L 195.045212 182.917984 
L 195.248248 167.827338 
L 195.451284 182.482558 
L 195.65432 182.63731 
L 195.857356 186.220611 
L 196.060392 147.545409 
L 196.263428 189.767958 
L 196.466464 158.037354 
L 196.6695 197.837218 
L 196.872536 165.515454 
L 197.075572 187.079393 
L 197.481644 143.796586 
L 197.68468 181.929786 
L 197.887716 152.92805 
L 198.090752 159.291382 
L 198.293788 154.368976 
L 198.496824 180.687928 
L 198.69986 171.048818 
L 198.902896 175.334984 
L 199.105932 150.934262 
L 199.308968 176.226414 
L 199.512004 163.458769 
L 199.71504 168.029975 
L 199.918076 181.246727 
L 200.121112 181.929914 
L 200.324148 161.524301 
L 200.527184 175.281563 
L 200.73022 165.466759 
L 200.933256 170.338139 
L 201.136292 180.328626 
L 201.339328 152.280569 
L 201.542364 166.987839 
L 201.7454 155.712742 
L 201.948436 170.128064 
L 202.151472 149.589855 
L 202.354508 185.303899 
L 202.557544 175.48537 
L 202.76058 176.865841 
L 202.963616 145.844718 
L 203.166652 180.349198 
L 203.369688 153.264217 
L 203.572724 179.800612 
L 203.77576 173.775466 
L 203.978796 157.809984 
L 204.384868 170.014214 
L 204.587904 159.854715 
L 204.79094 162.847184 
L 204.993976 198.931884 
L 205.197012 177.892288 
L 205.400048 177.577808 
L 205.603084 163.227384 
L 206.009156 169.003519 
L 206.212192 197.466584 
L 206.415228 164.7646 
L 206.618264 194.210289 
L 206.8213 166.542465 
L 207.024336 168.064542 
L 207.227372 170.450884 
L 207.430408 183.149652 
L 207.633444 153.630141 
L 207.83648 186.587285 
L 208.242552 158.611453 
L 208.445588 176.396409 
L 208.648624 165.779019 
L 208.85166 192.058702 
L 209.054696 199.613018 
L 209.257732 170.231037 
L 209.460768 157.992784 
L 209.663804 176.574111 
L 209.86684 172.237917 
L 210.069875 191.324711 
L 210.272911 152.623614 
L 210.475947 193.772336 
L 210.678983 161.584782 
L 210.882019 183.647298 
L 211.085055 175.614397 
L 211.288091 146.969376 
L 211.694163 165.848953 
L 211.897199 156.985925 
L 212.100235 186.368428 
L 212.303271 169.774834 
L 212.506307 188.271926 
L 212.709343 175.026726 
L 212.912379 179.145227 
L 213.115415 174.966644 
L 213.318451 188.731844 
L 213.724523 158.913039 
L 213.927559 195.415981 
L 214.130595 172.986676 
L 214.333631 179.127494 
L 214.536667 155.838719 
L 214.739703 172.969369 
L 215.145775 162.072813 
L 215.348811 171.749322 
L 215.551847 159.146822 
L 215.754883 183.482832 
L 215.957919 177.278559 
L 216.160955 175.626088 
L 216.363991 178.35058 
L 216.567027 160.276471 
L 216.770063 185.496851 
L 216.973099 166.70122 
L 217.176135 162.059131 
L 217.379171 146.495834 
L 217.582207 145.467193 
L 217.785243 180.542812 
L 217.988279 188.873844 
L 218.191315 160.515785 
L 218.394351 161.406715 
L 218.597387 181.960617 
L 219.003459 176.707486 
L 219.206495 182.572615 
L 219.409531 165.596097 
L 219.612567 170.616783 
L 219.815603 171.520114 
L 220.018639 190.192041 
L 220.221675 182.251711 
L 220.424711 156.029501 
L 220.627747 169.317906 
L 220.830783 163.263488 
L 221.033819 178.443234 
L 221.236855 175.85064 
L 221.439891 177.771928 
L 221.642927 194.906584 
L 221.845963 153.156356 
L 222.252035 176.130502 
L 222.455071 168.128773 
L 222.861143 182.923223 
L 223.064179 191.631831 
L 223.267215 183.480064 
L 223.470251 161.108131 
L 223.673287 163.748939 
L 223.876323 164.031741 
L 224.282395 200.440128 
L 224.688467 158.025408 
L 224.891503 180.98957 
L 225.094539 171.436926 
L 225.297575 167.194357 
L 225.500611 166.448967 
L 225.703647 143.898401 
L 225.906683 164.638746 
L 226.109719 151.468398 
L 226.312755 162.363415 
L 226.718827 151.675145 
L 226.921863 159.759728 
L 227.124899 177.184512 
L 227.327935 150.017597 
L 227.53097 177.892992 
L 227.734006 160.311163 
L 227.937042 163.538623 
L 228.140078 159.078559 
L 228.343114 179.828412 
L 228.54615 180.658432 
L 228.749186 174.549006 
L 228.952222 162.863498 
L 229.155258 158.141761 
L 229.358294 182.367144 
L 229.56133 184.259452 
L 229.764366 176.327697 
L 229.967402 136.221669 
L 230.170438 161.270671 
L 230.373474 152.843084 
L 230.57651 176.749369 
L 230.779546 174.95236 
L 230.982582 145.338249 
L 231.388654 188.824467 
L 231.59169 144.275434 
L 232.200798 180.429934 
L 232.403834 158.966684 
L 232.60687 185.207853 
L 232.809906 178.796531 
L 233.012942 167.90064 
L 233.215978 172.431435 
L 233.419014 164.979006 
L 233.62205 188.924488 
L 233.825086 159.055622 
L 234.028122 147.644008 
L 234.231158 156.166148 
L 234.63723 183.240194 
L 234.840266 180.542343 
L 235.043302 167.484794 
L 235.246338 164.091005 
L 235.449374 178.252451 
L 235.65241 154.638153 
L 235.855446 188.376258 
L 236.058482 144.142429 
L 236.261518 187.085629 
L 236.464554 181.057355 
L 236.870626 157.463933 
L 237.073662 156.918056 
L 237.276698 154.86558 
L 237.479734 174.96266 
L 237.68277 163.455751 
L 237.885806 163.796953 
L 238.088842 152.430825 
L 238.494914 179.390386 
L 238.69795 162.279985 
L 238.900986 184.027537 
L 239.104022 164.849535 
L 239.307058 157.641107 
L 239.510094 155.782901 
L 239.71313 170.92914 
L 239.916166 126.430227 
L 240.119202 186.233774 
L 240.525274 156.379422 
L 240.72831 202.251499 
L 240.931346 183.943022 
L 241.134382 176.456777 
L 241.337418 203.874032 
L 241.540454 149.091333 
L 241.74349 152.121708 
L 241.946526 152.140604 
L 242.149562 161.886781 
L 242.75867 172.759547 
L 242.961706 164.839524 
L 243.164742 173.997624 
L 243.367778 196.962529 
L 243.570814 154.45954 
L 243.77385 138.010847 
L 243.976886 178.961601 
L 244.179922 158.971997 
L 244.382958 168.974937 
L 244.585994 150.174897 
L 244.78903 175.345277 
L 244.992065 152.729022 
L 245.195101 147.365627 
L 245.601173 178.140866 
L 245.804209 163.630801 
L 246.210281 169.68184 
L 246.413317 146.490701 
L 246.616353 178.848212 
L 246.819389 163.349213 
L 247.022425 166.69842 
L 247.428497 184.157211 
L 247.631533 145.930662 
L 247.834569 143.083285 
L 248.037605 154.402228 
L 248.240641 155.965549 
L 248.443677 159.155496 
L 248.849749 148.224133 
L 249.255821 174.101679 
L 249.661893 146.821028 
L 249.864929 161.096786 
L 250.067965 164.523115 
L 250.271001 152.486576 
L 250.474037 149.63914 
L 250.677073 179.922129 
L 250.880109 156.745375 
L 251.083145 175.944742 
L 251.286181 181.912755 
L 251.489217 120.266853 
L 251.692253 180.527924 
L 251.895289 153.879653 
L 252.098325 185.260378 
L 252.301361 185.832384 
L 252.504397 156.308157 
L 252.707433 172.678352 
L 252.910469 141.003419 
L 253.113505 157.821827 
L 253.316541 147.523919 
L 253.519577 149.955611 
L 253.722613 168.122197 
L 253.925649 147.229303 
L 254.128685 145.373572 
L 254.534757 160.757302 
L 254.737793 141.050025 
L 255.143865 158.445239 
L 255.346901 156.319538 
L 255.549937 180.13748 
L 255.752973 166.694315 
L 255.956009 174.910259 
L 256.159045 168.000475 
L 256.362081 186.992659 
L 256.768153 154.290139 
L 256.971189 158.979488 
L 257.174225 149.266554 
L 257.377261 162.75259 
L 257.783333 142.811575 
L 257.986369 167.225522 
L 258.189405 175.160136 
L 258.392441 173.296933 
L 258.595477 161.507064 
L 258.798513 170.0475 
L 259.001549 156.824899 
L 259.204585 174.40221 
L 259.610657 142.161027 
L 259.813693 165.718363 
L 260.016729 160.9883 
L 260.219765 139.238082 
L 260.422801 168.756692 
L 260.625837 158.413851 
L 260.828873 141.202668 
L 261.031909 155.495016 
L 261.234945 160.592226 
L 261.437981 132.332466 
L 261.641017 170.382164 
L 261.844053 153.691493 
L 262.047089 171.109737 
L 262.45316 166.154045 
L 262.656196 139.602796 
L 262.859232 153.987362 
L 263.062268 151.347087 
L 263.265304 156.129512 
L 263.46834 165.546939 
L 263.671376 157.299417 
L 263.874412 131.180033 
L 264.280484 158.664923 
L 264.48352 161.473676 
L 264.686556 171.693637 
L 264.889592 146.383388 
L 265.092628 146.011176 
L 265.295664 163.144373 
L 265.4987 163.343736 
L 265.701736 160.748843 
L 265.904772 170.124193 
L 266.107808 150.387238 
L 266.310844 170.410288 
L 266.51388 167.940152 
L 266.716916 196.25257 
L 267.122988 163.288005 
L 267.326024 169.071197 
L 267.52906 156.49293 
L 267.732096 151.972647 
L 267.935132 173.084655 
L 268.138168 160.331357 
L 268.341204 162.153224 
L 268.54424 141.347465 
L 268.747276 155.166899 
L 269.153348 134.31016 
L 269.356384 192.928482 
L 269.762456 144.870087 
L 269.965492 164.066247 
L 270.168528 155.826932 
L 270.371564 155.651244 
L 270.5746 176.517805 
L 270.777636 157.68055 
L 271.183708 167.155318 
L 271.386744 161.958597 
L 271.58978 140.616659 
L 271.792816 175.59058 
L 271.995852 168.630188 
L 272.198888 152.09483 
L 272.401924 182.859285 
L 272.60496 161.238382 
L 272.807996 188.430505 
L 273.011032 158.115117 
L 273.214068 165.253385 
L 273.417104 156.553811 
L 273.62014 170.326578 
L 273.823176 149.367184 
L 274.026212 187.692836 
L 274.229248 159.556762 
L 274.63532 141.610477 
L 274.838356 171.265635 
L 275.041392 148.838492 
L 275.244428 175.540746 
L 275.447464 168.715681 
L 275.6505 168.534665 
L 275.853536 148.539788 
L 276.056572 172.548262 
L 276.259608 171.912562 
L 276.462644 169.060696 
L 276.66568 147.069985 
L 276.868716 173.165953 
L 277.071752 153.220029 
L 277.274788 181.966474 
L 277.477824 172.846482 
L 277.68086 172.408908 
L 277.883896 138.741157 
L 278.086932 146.698496 
L 278.289968 191.053151 
L 278.493004 147.372592 
L 278.69604 171.34277 
L 278.899076 149.074365 
L 279.102112 160.32991 
L 279.305148 188.402196 
L 279.508184 133.994868 
L 279.71122 129.297691 
L 280.320327 183.365454 
L 280.726399 143.482984 
L 280.929435 150.200267 
L 281.132471 191.681162 
L 281.335507 113.589407 
L 281.538543 148.915776 
L 281.741579 143.616975 
L 281.944615 164.385196 
L 282.147651 161.33748 
L 282.350687 181.567507 
L 282.553723 156.511278 
L 282.756759 156.214667 
L 282.959795 164.870803 
L 283.162831 166.620519 
L 283.365867 157.745696 
L 283.568903 178.00901 
L 283.974975 150.913172 
L 284.178011 162.183602 
L 284.381047 158.465719 
L 284.787119 173.459784 
L 284.990155 142.926506 
L 285.193191 148.595498 
L 285.396227 167.387004 
L 285.599263 154.088756 
L 285.802299 160.487813 
L 286.005335 133.415655 
L 286.208371 166.827654 
L 286.411407 133.412599 
L 286.614443 144.311118 
L 286.817479 138.624926 
L 287.020515 162.563428 
L 287.223551 152.57551 
L 287.426587 163.327875 
L 287.629623 149.705233 
L 287.832659 173.633222 
L 288.238731 144.469356 
L 288.441767 151.397639 
L 288.644803 175.471127 
L 288.847839 167.153344 
L 289.050875 178.134579 
L 289.253911 170.041575 
L 289.456947 195.82266 
L 289.659983 191.663354 
L 289.863019 145.719006 
L 290.066055 150.814648 
L 290.269091 132.558705 
L 290.472127 164.946691 
L 290.675163 164.822106 
L 290.878199 178.374348 
L 291.284271 150.513773 
L 291.487307 148.067397 
L 291.690343 156.698526 
L 291.893379 139.423613 
L 292.096415 175.789761 
L 292.502487 159.810489 
L 292.705523 166.950647 
L 292.908559 136.271445 
L 293.111595 133.968291 
L 293.314631 134.681468 
L 293.517667 165.482799 
L 293.720703 153.693812 
L 293.923739 161.491077 
L 294.126775 156.994775 
L 294.329811 177.820695 
L 294.532847 185.847859 
L 294.735883 129.153693 
L 294.938919 184.621078 
L 295.141955 128.09217 
L 295.548027 167.846727 
L 295.751063 167.897081 
L 295.954099 186.300996 
L 296.563207 141.820755 
L 296.766243 156.998295 
L 296.969279 136.341056 
L 297.172315 177.114148 
L 297.375351 179.641584 
L 297.781422 166.09 
L 297.984458 96.221416 
L 298.187494 147.230555 
L 298.39053 147.895966 
L 298.593566 174.936995 
L 298.999638 131.063766 
L 299.202674 167.975545 
L 299.40571 131.650562 
L 299.608746 157.486569 
L 299.811782 164.84243 
L 300.014818 149.402267 
L 300.217854 155.766233 
L 300.42089 155.600767 
L 300.623926 168.90098 
L 300.826962 144.479085 
L 301.029998 157.602815 
L 301.233034 155.693645 
L 301.639106 172.631494 
L 301.842142 188.539829 
L 302.045178 162.284165 
L 302.248214 161.570088 
L 302.45125 169.169245 
L 302.654286 155.092551 
L 302.857322 114.972466 
L 303.060358 142.924065 
L 303.263394 153.957657 
L 303.46643 146.653022 
L 303.872502 161.911399 
L 304.278574 167.70691 
L 304.48161 181.720868 
L 304.684646 176.587428 
L 304.887682 185.338467 
L 305.090718 135.822887 
L 305.293754 144.57509 
L 305.49679 141.575329 
L 305.699826 166.615123 
L 305.902862 165.807475 
L 306.105898 161.667235 
L 306.308934 145.890034 
L 306.51197 176.964809 
L 306.715006 144.201368 
L 307.121078 178.596986 
L 307.324114 152.180377 
L 307.52715 175.78135 
L 307.730186 180.132027 
L 307.933222 173.666722 
L 308.136258 189.398024 
L 308.339294 151.554773 
L 308.54233 154.310236 
L 308.745366 133.225066 
L 308.948402 150.257071 
L 309.151438 115.549363 
L 309.354474 162.023439 
L 309.55751 175.191071 
L 309.760546 111.47971 
L 309.963582 160.522493 
L 310.166618 168.126824 
L 310.57269 155.391743 
L 310.775726 136.114162 
L 310.978762 134.909194 
L 311.181798 167.96397 
L 311.384834 181.849106 
L 311.58787 149.567783 
L 311.790906 161.252004 
L 311.993942 180.001371 
L 312.400014 142.926262 
L 312.60305 114.946704 
L 312.806086 146.205123 
L 313.009122 137.835991 
L 313.212158 110.278229 
L 313.415194 158.282081 
L 313.61823 171.211129 
L 313.821266 130.624763 
L 314.024302 159.223258 
L 314.227338 125.319692 
L 314.430374 146.877683 
L 314.63341 184.019794 
L 314.836446 146.650385 
L 315.039481 147.247236 
L 315.242517 136.475963 
L 315.445553 149.013124 
L 315.648589 148.499166 
L 315.851625 131.408877 
L 316.054661 166.896385 
L 316.257697 141.103913 
L 316.460733 153.893062 
L 316.663769 178.934467 
L 316.866805 162.326051 
L 317.272877 178.547538 
L 317.475913 138.416609 
L 317.678949 150.073492 
L 317.881985 153.525887 
L 318.085021 142.613353 
L 318.491093 147.211187 
L 318.694129 171.452638 
L 318.897165 124.783631 
L 319.100201 109.340962 
L 319.506273 156.910803 
L 320.115381 142.38922 
L 320.521453 174.433707 
L 320.724489 126.682435 
L 321.130561 145.153564 
L 321.333597 147.150837 
L 321.536633 146.862226 
L 321.739669 157.806678 
L 321.942705 137.415625 
L 322.145741 178.373431 
L 322.348777 151.820137 
L 322.551813 155.719167 
L 322.754849 150.640389 
L 322.957885 168.686106 
L 323.363957 117.967305 
L 323.566993 177.042851 
L 323.770029 140.266129 
L 323.973065 173.274765 
L 324.176101 151.433839 
L 324.379137 188.111736 
L 324.582173 158.070386 
L 324.785209 187.66726 
L 324.988245 118.70045 
L 325.394317 171.852234 
L 325.597353 158.023346 
L 325.800389 154.552001 
L 326.003425 155.819526 
L 326.206461 136.66192 
L 326.612533 149.507751 
L 326.815569 152.637521 
L 327.018605 166.413396 
L 327.221641 152.508506 
L 327.424677 171.092919 
L 327.627713 170.194824 
L 327.830749 145.732412 
L 328.033785 163.639667 
L 328.236821 143.528602 
L 328.439857 185.291261 
L 328.642893 180.524541 
L 329.048965 159.634748 
L 329.252001 161.794024 
L 329.455037 141.21421 
L 329.861109 185.198866 
L 330.064145 154.743825 
L 330.470217 132.179872 
L 330.876289 182.316472 
L 331.079325 126.967742 
L 331.485397 147.763827 
L 331.688433 160.24881 
L 331.891469 140.224999 
L 332.094505 155.459076 
L 332.297541 129.621653 
L 332.500576 151.936093 
L 332.703612 132.429247 
L 332.906648 140.424237 
L 333.109684 178.537236 
L 333.515756 152.117327 
L 333.718792 154.381405 
L 334.124864 148.908073 
L 334.3279 128.960517 
L 334.530936 151.745412 
L 334.937008 153.791698 
L 335.140044 174.938285 
L 335.34308 117.551937 
L 335.546116 140.938429 
L 335.749152 143.501337 
L 335.952188 149.515125 
L 336.155224 140.760681 
L 336.35826 184.943032 
L 336.561296 153.05928 
L 336.764332 139.155212 
L 336.967368 144.164543 
L 337.170404 121.381874 
L 337.37344 163.434144 
L 337.576476 178.456273 
L 337.779512 205.027074 
L 337.982548 163.214856 
L 338.185584 161.395074 
L 338.38862 144.628855 
L 338.591656 116.799126 
L 338.794692 165.918455 
L 338.997728 128.433707 
L 339.200764 159.65643 
L 339.4038 172.775901 
L 339.606836 150.919952 
L 340.012908 175.649667 
L 340.215944 159.562827 
L 340.41898 164.023797 
L 340.622016 148.515635 
L 340.825052 117.467047 
L 341.028088 131.087718 
L 341.231124 158.329121 
L 341.43416 159.841746 
L 341.637196 191.773608 
L 341.840232 162.623358 
L 342.043268 150.891884 
L 342.246304 183.528917 
L 342.44934 192.347686 
L 342.652376 152.581339 
L 342.855412 152.257279 
L 343.058448 134.312079 
L 343.261484 164.613921 
L 343.46452 157.785199 
L 343.667556 158.850198 
L 343.870592 176.291078 
L 344.073628 152.419865 
L 344.276664 109.297447 
L 344.4797 159.085596 
L 344.885772 103.81035 
L 345.088808 139.384326 
L 345.291844 141.761119 
L 345.49488 154.888336 
L 345.697916 185.116709 
L 345.900952 138.747895 
L 346.103988 132.929462 
L 346.307024 151.541408 
L 346.51006 152.757338 
L 346.713096 185.239944 
L 346.916132 109.443618 
L 347.119168 128.739001 
L 347.322204 113.350345 
L 347.52524 136.655324 
L 347.728276 142.199637 
L 347.931312 143.183096 
L 348.134348 162.789544 
L 348.337384 144.601495 
L 348.54042 151.733736 
L 348.743456 129.051446 
L 348.946492 139.445009 
L 349.149528 163.186683 
L 349.352564 167.87852 
L 349.758636 158.752682 
L 349.961671 179.605121 
L 350.164707 91.150537 
L 350.367743 120.128398 
L 350.570779 179.942718 
L 350.773815 128.300419 
L 350.976851 106.0414 
L 351.179887 164.272427 
L 351.585959 105.866682 
L 351.788995 143.015861 
L 351.992031 116.209079 
L 352.195067 110.118733 
L 352.398103 86.19152 
L 352.601139 136.596709 
L 352.804175 145.046903 
L 353.007211 131.153339 
L 353.210247 143.64233 
L 353.413283 112.526542 
L 353.819355 150.717097 
L 354.022391 147.511201 
L 354.225427 152.081599 
L 354.428463 162.080648 
L 354.834535 113.388708 
L 355.037571 132.853836 
L 355.240607 165.586077 
L 355.443643 151.972419 
L 355.646679 121.376268 
L 355.849715 172.46074 
L 356.052751 124.195143 
L 356.255787 117.505444 
L 356.458823 156.931497 
L 356.661859 124.22183 
L 357.067931 165.400276 
L 357.474003 135.351775 
L 357.677039 150.545631 
L 357.880075 139.925181 
L 358.083111 179.107252 
L 358.286147 143.041967 
L 358.692219 170.076549 
L 358.895255 161.269803 
L 359.098291 139.049064 
L 359.301327 134.976553 
L 359.504363 166.718715 
L 359.707399 147.343647 
L 359.910435 141.427062 
L 360.113471 144.219407 
L 360.316507 163.484307 
L 360.519543 169.787709 
L 360.722579 116.433472 
L 360.925615 126.135019 
L 361.128651 143.428138 
L 361.331687 149.697843 
L 361.534723 139.792145 
L 361.737759 171.441413 
L 361.940795 120.580245 
L 362.143831 151.774975 
L 362.346867 136.43896 
L 362.549903 157.303051 
L 362.752939 156.000124 
L 362.955975 159.690496 
L 363.159011 159.274043 
L 363.362047 107.032833 
L 363.565083 181.500102 
L 363.768119 134.4958 
L 363.971155 122.088912 
L 364.174191 141.047406 
L 364.377227 144.357737 
L 364.580263 110.86888 
L 364.783299 163.74081 
L 364.986335 149.690847 
L 365.189371 168.115174 
L 365.392407 199.811643 
L 365.595443 153.04403 
L 366.001515 133.696282 
L 366.204551 150.374125 
L 366.407587 118.943576 
L 366.610623 158.367272 
L 366.813659 155.461406 
L 367.219731 162.316123 
L 367.422767 156.223518 
L 367.625802 160.43683 
L 367.828838 127.571858 
L 368.031874 123.365811 
L 368.23491 149.604115 
L 368.437946 157.049235 
L 368.640982 119.072905 
L 368.844018 150.063812 
L 369.047054 103.086201 
L 369.25009 133.453225 
L 369.453126 145.014633 
L 369.656162 122.662358 
L 369.859198 140.980527 
L 370.26527 134.142784 
L 370.468306 113.021024 
L 370.671342 146.440967 
L 370.874378 119.976668 
L 371.077414 163.873143 
L 371.28045 134.543937 
L 371.686522 188.635394 
L 371.889558 153.085194 
L 372.092594 157.857952 
L 372.29563 165.709497 
L 372.498666 127.127275 
L 372.701702 145.388034 
L 372.904738 144.007977 
L 373.31081 138.558472 
L 373.716882 102.161328 
L 374.529026 155.654915 
L 374.732062 149.452493 
L 374.935098 130.061889 
L 375.34117 156.144312 
L 375.747242 101.175208 
L 376.153314 154.2324 
L 376.35635 159.868041 
L 376.762422 138.909677 
L 377.168494 162.618546 
L 377.37153 138.473833 
L 377.574566 140.55268 
L 377.777602 129.356422 
L 377.980638 152.743327 
L 378.183674 155.93495 
L 378.38671 125.601037 
L 378.589746 178.902003 
L 378.792782 188.99097 
L 378.995818 133.707426 
L 379.198854 140.85589 
L 379.40189 161.765218 
L 379.604926 148.126065 
L 379.807962 154.525521 
L 380.010998 179.908435 
L 380.41707 122.250076 
L 380.823142 168.361544 
L 381.026178 147.386008 
L 381.229214 158.094159 
L 381.43225 151.299158 
L 381.635286 139.044571 
L 381.838322 143.617665 
L 382.041358 160.09721 
L 382.44743 114.299614 
L 382.650466 152.211459 
L 382.853502 127.994002 
L 383.259574 149.491443 
L 383.46261 144.04183 
L 383.665646 151.706843 
L 383.868682 151.36456 
L 384.071718 160.451085 
L 384.274754 127.20229 
L 384.47779 130.4688 
L 384.680826 130.310326 
L 384.883862 164.939379 
L 385.086897 153.214025 
L 385.289933 115.79775 
L 385.696005 177.858441 
L 385.899041 119.646923 
L 386.102077 132.726169 
L 386.305113 122.906018 
L 386.711185 170.694156 
L 386.914221 144.48223 
L 387.117257 138.0442 
L 387.523329 144.594869 
L 387.726365 128.91872 
L 387.929401 141.16609 
L 388.132437 165.85401 
L 388.538509 140.56647 
L 388.741545 122.981844 
L 388.944581 155.766903 
L 389.147617 152.093627 
L 389.350653 119.075554 
L 389.553689 132.334713 
L 389.756725 169.055791 
L 389.959761 113.174431 
L 390.365833 164.717647 
L 390.568869 152.52752 
L 390.771905 171.398707 
L 390.974941 149.244673 
L 391.177977 114.007935 
L 391.381013 138.177368 
L 391.584049 119.946463 
L 391.990121 158.849385 
L 392.396193 128.344713 
L 392.599229 144.433569 
L 392.802265 149.207419 
L 393.005301 85.769655 
L 393.208337 165.116163 
L 393.411373 108.853377 
L 393.614409 123.263174 
L 393.817445 153.337012 
L 394.020481 159.385031 
L 394.223517 110.560145 
L 394.629589 137.867901 
L 394.832625 125.169968 
L 395.035661 146.167979 
L 395.238697 181.440696 
L 395.441733 143.017 
L 395.644769 132.348512 
L 395.847805 151.532741 
L 396.050841 131.317418 
L 396.253877 150.395082 
L 396.456913 182.085202 
L 396.659949 134.158827 
L 397.066021 179.702262 
L 397.269057 139.031169 
L 397.472093 133.980364 
L 397.675129 105.11124 
L 397.878165 122.511991 
L 398.284237 131.103241 
L 398.487273 170.101071 
L 398.487273 170.101071 
" style="fill:none;stroke:#ff7f0e;stroke-linecap:square;stroke-width:1.5;"/>
   </g>
   <g id="patch_3">
    <path d="M 57.6 307.584 
L 57.6 41.472 
" style="fill:none;stroke:#000000;stroke-linecap:square;stroke-linejoin:miter;stroke-width:0.8;"/>
   </g>
   <g id="patch_4">
    <path d="M 414.72 307.584 
L 414.72 41.472 
" style="fill:none;stroke:#000000;stroke-linecap:square;stroke-linejoin:miter;stroke-width:0.8;"/>
   </g>
   <g id="patch_5">
    <path d="M 57.6 307.584 
L 414.72 307.584 
" style="fill:none;stroke:#000000;stroke-linecap:square;stroke-linejoin:miter;stroke-width:0.8;"/>
   </g>
   <g id="patch_6">
    <path d="M 57.6 41.472 
L 414.72 41.472 
" style="fill:none;stroke:#000000;stroke-linecap:square;stroke-linejoin:miter;stroke-width:0.8;"/>
   </g>
   <g id="legend_1">
    <g id="patch_7">
     <path d="M 303.845 78.82825 
L 407.72 78.82825 
Q 409.72 78.82825 409.72 76.82825 
L 409.72 48.472 
Q 409.72 46.472 407.72 46.472 
L 303.845 46.472 
Q 301.845 46.472 301.845 48.472 
L 301.845 76.82825 
Q 301.845 78.82825 303.845 78.82825 
z
" style="fill:#ffffff;opacity:0.8;stroke:#cccccc;stroke-linejoin:miter;"/>
    </g>
    <g id="line2d_20">
     <path d="M 305.845 54.570437 
L 325.845 54.570437 
" style="fill:none;stroke:#1f77b4;stroke-linecap:square;stroke-width:1.5;"/>
    </g>
    <g id="line2d_21"/>
    <g id="text_19">
     <!-- Train loss -->
     <g transform="translate(333.845 58.070437)scale(0.1 -0.1)">
      <defs>
       <path d="M -19 4666 
L 3928 4666 
L 3928 4134 
L 2272 4134 
L 2272 0 
L 1638 0 
L 1638 4134 
L -19 4134 
L -19 4666 
z
" id="DejaVuSans-54" transform="scale(0.015625)"/>
       <path d="M 2631 2963 
Q 2534 3019 2420 3045 
Q 2306 3072 2169 3072 
Q 1681 3072 1420 2755 
Q 1159 2438 1159 1844 
L 1159 0 
L 581 0 
L 581 3500 
L 1159 3500 
L 1159 2956 
Q 1341 3275 1631 3429 
Q 1922 3584 2338 3584 
Q 2397 3584 2469 3576 
Q 2541 3569 2628 3553 
L 2631 2963 
z
" id="DejaVuSans-72" transform="scale(0.015625)"/>
       <path d="M 2194 1759 
Q 1497 1759 1228 1600 
Q 959 1441 959 1056 
Q 959 750 1161 570 
Q 1363 391 1709 391 
Q 2188 391 2477 730 
Q 2766 1069 2766 1631 
L 2766 1759 
L 2194 1759 
z
M 3341 1997 
L 3341 0 
L 2766 0 
L 2766 531 
Q 2569 213 2275 61 
Q 1981 -91 1556 -91 
Q 1019 -91 701 211 
Q 384 513 384 1019 
Q 384 1609 779 1909 
Q 1175 2209 1959 2209 
L 2766 2209 
L 2766 2266 
Q 2766 2663 2505 2880 
Q 2244 3097 1772 3097 
Q 1472 3097 1187 3025 
Q 903 2953 641 2809 
L 641 3341 
Q 956 3463 1253 3523 
Q 1550 3584 1831 3584 
Q 2591 3584 2966 3190 
Q 3341 2797 3341 1997 
z
" id="DejaVuSans-61" transform="scale(0.015625)"/>
       <path d="M 603 3500 
L 1178 3500 
L 1178 0 
L 603 0 
L 603 3500 
z
M 603 4863 
L 1178 4863 
L 1178 4134 
L 603 4134 
L 603 4863 
z
" id="DejaVuSans-69" transform="scale(0.015625)"/>
       <path d="M 3513 2113 
L 3513 0 
L 2938 0 
L 2938 2094 
Q 2938 2591 2744 2837 
Q 2550 3084 2163 3084 
Q 1697 3084 1428 2787 
Q 1159 2491 1159 1978 
L 1159 0 
L 581 0 
L 581 3500 
L 1159 3500 
L 1159 2956 
Q 1366 3272 1645 3428 
Q 1925 3584 2291 3584 
Q 2894 3584 3203 3211 
Q 3513 2838 3513 2113 
z
" id="DejaVuSans-6e" transform="scale(0.015625)"/>
       <path id="DejaVuSans-20" transform="scale(0.015625)"/>
       <path d="M 603 4863 
L 1178 4863 
L 1178 0 
L 603 0 
L 603 4863 
z
" id="DejaVuSans-6c" transform="scale(0.015625)"/>
       <path d="M 2834 3397 
L 2834 2853 
Q 2591 2978 2328 3040 
Q 2066 3103 1784 3103 
Q 1356 3103 1142 2972 
Q 928 2841 928 2578 
Q 928 2378 1081 2264 
Q 1234 2150 1697 2047 
L 1894 2003 
Q 2506 1872 2764 1633 
Q 3022 1394 3022 966 
Q 3022 478 2636 193 
Q 2250 -91 1575 -91 
Q 1294 -91 989 -36 
Q 684 19 347 128 
L 347 722 
Q 666 556 975 473 
Q 1284 391 1588 391 
Q 1994 391 2212 530 
Q 2431 669 2431 922 
Q 2431 1156 2273 1281 
Q 2116 1406 1581 1522 
L 1381 1569 
Q 847 1681 609 1914 
Q 372 2147 372 2553 
Q 372 3047 722 3315 
Q 1072 3584 1716 3584 
Q 2034 3584 2315 3537 
Q 2597 3491 2834 3397 
z
" id="DejaVuSans-73" transform="scale(0.015625)"/>
      </defs>
      <use xlink:href="#DejaVuSans-54"/>
      <use x="46.333984" xlink:href="#DejaVuSans-72"/>
      <use x="87.447266" xlink:href="#DejaVuSans-61"/>
      <use x="148.726562" xlink:href="#DejaVuSans-69"/>
      <use x="176.509766" xlink:href="#DejaVuSans-6e"/>
      <use x="239.888672" xlink:href="#DejaVuSans-20"/>
      <use x="271.675781" xlink:href="#DejaVuSans-6c"/>
      <use x="299.458984" xlink:href="#DejaVuSans-6f"/>
      <use x="360.640625" xlink:href="#DejaVuSans-73"/>
      <use x="412.740234" xlink:href="#DejaVuSans-73"/>
     </g>
    </g>
    <g id="line2d_22">
     <path d="M 305.845 69.248562 
L 325.845 69.248562 
" style="fill:none;stroke:#ff7f0e;stroke-linecap:square;stroke-width:1.5;"/>
    </g>
    <g id="line2d_23"/>
    <g id="text_20">
     <!-- Validation loss -->
     <g transform="translate(333.845 72.748562)scale(0.1 -0.1)">
      <defs>
       <path d="M 1831 0 
L 50 4666 
L 709 4666 
L 2188 738 
L 3669 4666 
L 4325 4666 
L 2547 0 
L 1831 0 
z
" id="DejaVuSans-56" transform="scale(0.015625)"/>
       <path d="M 2906 2969 
L 2906 4863 
L 3481 4863 
L 3481 0 
L 2906 0 
L 2906 525 
Q 2725 213 2448 61 
Q 2172 -91 1784 -91 
Q 1150 -91 751 415 
Q 353 922 353 1747 
Q 353 2572 751 3078 
Q 1150 3584 1784 3584 
Q 2172 3584 2448 3432 
Q 2725 3281 2906 2969 
z
M 947 1747 
Q 947 1113 1208 752 
Q 1469 391 1925 391 
Q 2381 391 2643 752 
Q 2906 1113 2906 1747 
Q 2906 2381 2643 2742 
Q 2381 3103 1925 3103 
Q 1469 3103 1208 2742 
Q 947 2381 947 1747 
z
" id="DejaVuSans-64" transform="scale(0.015625)"/>
       <path d="M 1172 4494 
L 1172 3500 
L 2356 3500 
L 2356 3053 
L 1172 3053 
L 1172 1153 
Q 1172 725 1289 603 
Q 1406 481 1766 481 
L 2356 481 
L 2356 0 
L 1766 0 
Q 1100 0 847 248 
Q 594 497 594 1153 
L 594 3053 
L 172 3053 
L 172 3500 
L 594 3500 
L 594 4494 
L 1172 4494 
z
" id="DejaVuSans-74" transform="scale(0.015625)"/>
      </defs>
      <use xlink:href="#DejaVuSans-56"/>
      <use x="60.658203" xlink:href="#DejaVuSans-61"/>
      <use x="121.9375" xlink:href="#DejaVuSans-6c"/>
      <use x="149.720703" xlink:href="#DejaVuSans-69"/>
      <use x="177.503906" xlink:href="#DejaVuSans-64"/>
      <use x="240.980469" xlink:href="#DejaVuSans-61"/>
      <use x="302.259766" xlink:href="#DejaVuSans-74"/>
      <use x="341.46875" xlink:href="#DejaVuSans-69"/>
      <use x="369.251953" xlink:href="#DejaVuSans-6f"/>
      <use x="430.433594" xlink:href="#DejaVuSans-6e"/>
      <use x="493.8125" xlink:href="#DejaVuSans-20"/>
      <use x="525.599609" xlink:href="#DejaVuSans-6c"/>
      <use x="553.382812" xlink:href="#DejaVuSans-6f"/>
      <use x="614.564453" xlink:href="#DejaVuSans-73"/>
      <use x="666.664062" xlink:href="#DejaVuSans-73"/>
     </g>
    </g>
   </g>
  </g>
 </g>
 <defs>
  <clipPath id="p6dcd899c63">
   <rect height="266.112" width="357.12" x="57.6" y="41.472"/>
  </clipPath>
 </defs>
</svg>
