<?xml version="1.0" encoding="utf-8" standalone="no"?>
<!DOCTYPE svg PUBLIC "-//W3C//DTD SVG 1.1//EN"
  "http://www.w3.org/Graphics/SVG/1.1/DTD/svg11.dtd">
<svg height="345.6pt" version="1.1" viewBox="0 0 460.8 345.6" width="460.8pt" xmlns="http://www.w3.org/2000/svg" xmlns:xlink="http://www.w3.org/1999/xlink">
 <metadata>
  <rdf:RDF xmlns:cc="http://creativecommons.org/ns#" xmlns:dc="http://purl.org/dc/elements/1.1/" xmlns:rdf="http://www.w3.org/1999/02/22-rdf-syntax-ns#">
   <cc:Work>
    <dc:type rdf:resource="http://purl.org/dc/dcmitype/StillImage"/>
    <dc:date>2021-07-14T12:47:23.533297</dc:date>
    <dc:format>image/svg+xml</dc:format>
    <dc:creator>
     <cc:Agent>
      <dc:title>Matplotlib v3.4.2, https://matplotlib.org/</dc:title>
     </cc:Agent>
    </dc:creator>
   </cc:Work>
  </rdf:RDF>
 </metadata>
 <defs>
  <style type="text/css">*{stroke-linecap:butt;stroke-linejoin:round;}</style>
 </defs>
 <g id="figure_1">
  <g id="patch_1">
   <path d="M 0 345.6 
L 460.8 345.6 
L 460.8 0 
L 0 0 
z
" style="fill:#ffffff;"/>
  </g>
  <g id="axes_1">
   <g id="patch_2">
    <path d="M 57.6 307.584 
L 414.72 307.584 
L 414.72 41.472 
L 57.6 41.472 
z
" style="fill:#ffffff;"/>
   </g>
   <g id="matplotlib.axis_1">
    <g id="xtick_1">
     <g id="line2d_1">
      <defs>
       <path d="M 0 0 
L 0 3.5 
" id="mb9fefa2041" style="stroke:#000000;stroke-width:0.8;"/>
      </defs>
      <g>
       <use style="stroke:#000000;stroke-width:0.8;" x="73.019057" xlink:href="#mb9fefa2041" y="307.584"/>
      </g>
     </g>
     <g id="text_1">
      <!-- 0 -->
      <g transform="translate(69.837807 322.182437)scale(0.1 -0.1)">
       <defs>
        <path d="M 2034 4250 
Q 1547 4250 1301 3770 
Q 1056 3291 1056 2328 
Q 1056 1369 1301 889 
Q 1547 409 2034 409 
Q 2525 409 2770 889 
Q 3016 1369 3016 2328 
Q 3016 3291 2770 3770 
Q 2525 4250 2034 4250 
z
M 2034 4750 
Q 2819 4750 3233 4129 
Q 3647 3509 3647 2328 
Q 3647 1150 3233 529 
Q 2819 -91 2034 -91 
Q 1250 -91 836 529 
Q 422 1150 422 2328 
Q 422 3509 836 4129 
Q 1250 4750 2034 4750 
z
" id="DejaVuSans-30" transform="scale(0.015625)"/>
       </defs>
       <use xlink:href="#DejaVuSans-30"/>
      </g>
     </g>
    </g>
    <g id="xtick_2">
     <g id="line2d_2">
      <g>
       <use style="stroke:#000000;stroke-width:0.8;" x="113.702584" xlink:href="#mb9fefa2041" y="307.584"/>
      </g>
     </g>
     <g id="text_2">
      <!-- 50 -->
      <g transform="translate(107.340084 322.182437)scale(0.1 -0.1)">
       <defs>
        <path d="M 691 4666 
L 3169 4666 
L 3169 4134 
L 1269 4134 
L 1269 2991 
Q 1406 3038 1543 3061 
Q 1681 3084 1819 3084 
Q 2600 3084 3056 2656 
Q 3513 2228 3513 1497 
Q 3513 744 3044 326 
Q 2575 -91 1722 -91 
Q 1428 -91 1123 -41 
Q 819 9 494 109 
L 494 744 
Q 775 591 1075 516 
Q 1375 441 1709 441 
Q 2250 441 2565 725 
Q 2881 1009 2881 1497 
Q 2881 1984 2565 2268 
Q 2250 2553 1709 2553 
Q 1456 2553 1204 2497 
Q 953 2441 691 2322 
L 691 4666 
z
" id="DejaVuSans-35" transform="scale(0.015625)"/>
       </defs>
       <use xlink:href="#DejaVuSans-35"/>
       <use x="63.623047" xlink:href="#DejaVuSans-30"/>
      </g>
     </g>
    </g>
    <g id="xtick_3">
     <g id="line2d_3">
      <g>
       <use style="stroke:#000000;stroke-width:0.8;" x="154.386111" xlink:href="#mb9fefa2041" y="307.584"/>
      </g>
     </g>
     <g id="text_3">
      <!-- 100 -->
      <g transform="translate(144.842361 322.182437)scale(0.1 -0.1)">
       <defs>
        <path d="M 794 531 
L 1825 531 
L 1825 4091 
L 703 3866 
L 703 4441 
L 1819 4666 
L 2450 4666 
L 2450 531 
L 3481 531 
L 3481 0 
L 794 0 
L 794 531 
z
" id="DejaVuSans-31" transform="scale(0.015625)"/>
       </defs>
       <use xlink:href="#DejaVuSans-31"/>
       <use x="63.623047" xlink:href="#DejaVuSans-30"/>
       <use x="127.246094" xlink:href="#DejaVuSans-30"/>
      </g>
     </g>
    </g>
    <g id="xtick_4">
     <g id="line2d_4">
      <g>
       <use style="stroke:#000000;stroke-width:0.8;" x="195.069638" xlink:href="#mb9fefa2041" y="307.584"/>
      </g>
     </g>
     <g id="text_4">
      <!-- 150 -->
      <g transform="translate(185.525888 322.182437)scale(0.1 -0.1)">
       <use xlink:href="#DejaVuSans-31"/>
       <use x="63.623047" xlink:href="#DejaVuSans-35"/>
       <use x="127.246094" xlink:href="#DejaVuSans-30"/>
      </g>
     </g>
    </g>
    <g id="xtick_5">
     <g id="line2d_5">
      <g>
       <use style="stroke:#000000;stroke-width:0.8;" x="235.753165" xlink:href="#mb9fefa2041" y="307.584"/>
      </g>
     </g>
     <g id="text_5">
      <!-- 200 -->
      <g transform="translate(226.209415 322.182437)scale(0.1 -0.1)">
       <defs>
        <path d="M 1228 531 
L 3431 531 
L 3431 0 
L 469 0 
L 469 531 
Q 828 903 1448 1529 
Q 2069 2156 2228 2338 
Q 2531 2678 2651 2914 
Q 2772 3150 2772 3378 
Q 2772 3750 2511 3984 
Q 2250 4219 1831 4219 
Q 1534 4219 1204 4116 
Q 875 4013 500 3803 
L 500 4441 
Q 881 4594 1212 4672 
Q 1544 4750 1819 4750 
Q 2544 4750 2975 4387 
Q 3406 4025 3406 3419 
Q 3406 3131 3298 2873 
Q 3191 2616 2906 2266 
Q 2828 2175 2409 1742 
Q 1991 1309 1228 531 
z
" id="DejaVuSans-32" transform="scale(0.015625)"/>
       </defs>
       <use xlink:href="#DejaVuSans-32"/>
       <use x="63.623047" xlink:href="#DejaVuSans-30"/>
       <use x="127.246094" xlink:href="#DejaVuSans-30"/>
      </g>
     </g>
    </g>
    <g id="xtick_6">
     <g id="line2d_6">
      <g>
       <use style="stroke:#000000;stroke-width:0.8;" x="276.436692" xlink:href="#mb9fefa2041" y="307.584"/>
      </g>
     </g>
     <g id="text_6">
      <!-- 250 -->
      <g transform="translate(266.892942 322.182437)scale(0.1 -0.1)">
       <use xlink:href="#DejaVuSans-32"/>
       <use x="63.623047" xlink:href="#DejaVuSans-35"/>
       <use x="127.246094" xlink:href="#DejaVuSans-30"/>
      </g>
     </g>
    </g>
    <g id="xtick_7">
     <g id="line2d_7">
      <g>
       <use style="stroke:#000000;stroke-width:0.8;" x="317.120219" xlink:href="#mb9fefa2041" y="307.584"/>
      </g>
     </g>
     <g id="text_7">
      <!-- 300 -->
      <g transform="translate(307.576469 322.182437)scale(0.1 -0.1)">
       <defs>
        <path d="M 2597 2516 
Q 3050 2419 3304 2112 
Q 3559 1806 3559 1356 
Q 3559 666 3084 287 
Q 2609 -91 1734 -91 
Q 1441 -91 1130 -33 
Q 819 25 488 141 
L 488 750 
Q 750 597 1062 519 
Q 1375 441 1716 441 
Q 2309 441 2620 675 
Q 2931 909 2931 1356 
Q 2931 1769 2642 2001 
Q 2353 2234 1838 2234 
L 1294 2234 
L 1294 2753 
L 1863 2753 
Q 2328 2753 2575 2939 
Q 2822 3125 2822 3475 
Q 2822 3834 2567 4026 
Q 2313 4219 1838 4219 
Q 1578 4219 1281 4162 
Q 984 4106 628 3988 
L 628 4550 
Q 988 4650 1302 4700 
Q 1616 4750 1894 4750 
Q 2613 4750 3031 4423 
Q 3450 4097 3450 3541 
Q 3450 3153 3228 2886 
Q 3006 2619 2597 2516 
z
" id="DejaVuSans-33" transform="scale(0.015625)"/>
       </defs>
       <use xlink:href="#DejaVuSans-33"/>
       <use x="63.623047" xlink:href="#DejaVuSans-30"/>
       <use x="127.246094" xlink:href="#DejaVuSans-30"/>
      </g>
     </g>
    </g>
    <g id="xtick_8">
     <g id="line2d_8">
      <g>
       <use style="stroke:#000000;stroke-width:0.8;" x="357.803746" xlink:href="#mb9fefa2041" y="307.584"/>
      </g>
     </g>
     <g id="text_8">
      <!-- 350 -->
      <g transform="translate(348.259996 322.182437)scale(0.1 -0.1)">
       <use xlink:href="#DejaVuSans-33"/>
       <use x="63.623047" xlink:href="#DejaVuSans-35"/>
       <use x="127.246094" xlink:href="#DejaVuSans-30"/>
      </g>
     </g>
    </g>
    <g id="xtick_9">
     <g id="line2d_9">
      <g>
       <use style="stroke:#000000;stroke-width:0.8;" x="398.487273" xlink:href="#mb9fefa2041" y="307.584"/>
      </g>
     </g>
     <g id="text_9">
      <!-- 400 -->
      <g transform="translate(388.943523 322.182437)scale(0.1 -0.1)">
       <defs>
        <path d="M 2419 4116 
L 825 1625 
L 2419 1625 
L 2419 4116 
z
M 2253 4666 
L 3047 4666 
L 3047 1625 
L 3713 1625 
L 3713 1100 
L 3047 1100 
L 3047 0 
L 2419 0 
L 2419 1100 
L 313 1100 
L 313 1709 
L 2253 4666 
z
" id="DejaVuSans-34" transform="scale(0.015625)"/>
       </defs>
       <use xlink:href="#DejaVuSans-34"/>
       <use x="63.623047" xlink:href="#DejaVuSans-30"/>
       <use x="127.246094" xlink:href="#DejaVuSans-30"/>
      </g>
     </g>
    </g>
    <g id="text_10">
     <!-- Epoch -->
     <g transform="translate(213.193594 339.659781)scale(0.15 -0.15)">
      <defs>
       <path d="M 628 4666 
L 3578 4666 
L 3578 4134 
L 1259 4134 
L 1259 2753 
L 3481 2753 
L 3481 2222 
L 1259 2222 
L 1259 531 
L 3634 531 
L 3634 0 
L 628 0 
L 628 4666 
z
" id="DejaVuSans-45" transform="scale(0.015625)"/>
       <path d="M 1159 525 
L 1159 -1331 
L 581 -1331 
L 581 3500 
L 1159 3500 
L 1159 2969 
Q 1341 3281 1617 3432 
Q 1894 3584 2278 3584 
Q 2916 3584 3314 3078 
Q 3713 2572 3713 1747 
Q 3713 922 3314 415 
Q 2916 -91 2278 -91 
Q 1894 -91 1617 61 
Q 1341 213 1159 525 
z
M 3116 1747 
Q 3116 2381 2855 2742 
Q 2594 3103 2138 3103 
Q 1681 3103 1420 2742 
Q 1159 2381 1159 1747 
Q 1159 1113 1420 752 
Q 1681 391 2138 391 
Q 2594 391 2855 752 
Q 3116 1113 3116 1747 
z
" id="DejaVuSans-70" transform="scale(0.015625)"/>
       <path d="M 1959 3097 
Q 1497 3097 1228 2736 
Q 959 2375 959 1747 
Q 959 1119 1226 758 
Q 1494 397 1959 397 
Q 2419 397 2687 759 
Q 2956 1122 2956 1747 
Q 2956 2369 2687 2733 
Q 2419 3097 1959 3097 
z
M 1959 3584 
Q 2709 3584 3137 3096 
Q 3566 2609 3566 1747 
Q 3566 888 3137 398 
Q 2709 -91 1959 -91 
Q 1206 -91 779 398 
Q 353 888 353 1747 
Q 353 2609 779 3096 
Q 1206 3584 1959 3584 
z
" id="DejaVuSans-6f" transform="scale(0.015625)"/>
       <path d="M 3122 3366 
L 3122 2828 
Q 2878 2963 2633 3030 
Q 2388 3097 2138 3097 
Q 1578 3097 1268 2742 
Q 959 2388 959 1747 
Q 959 1106 1268 751 
Q 1578 397 2138 397 
Q 2388 397 2633 464 
Q 2878 531 3122 666 
L 3122 134 
Q 2881 22 2623 -34 
Q 2366 -91 2075 -91 
Q 1284 -91 818 406 
Q 353 903 353 1747 
Q 353 2603 823 3093 
Q 1294 3584 2113 3584 
Q 2378 3584 2631 3529 
Q 2884 3475 3122 3366 
z
" id="DejaVuSans-63" transform="scale(0.015625)"/>
       <path d="M 3513 2113 
L 3513 0 
L 2938 0 
L 2938 2094 
Q 2938 2591 2744 2837 
Q 2550 3084 2163 3084 
Q 1697 3084 1428 2787 
Q 1159 2491 1159 1978 
L 1159 0 
L 581 0 
L 581 4863 
L 1159 4863 
L 1159 2956 
Q 1366 3272 1645 3428 
Q 1925 3584 2291 3584 
Q 2894 3584 3203 3211 
Q 3513 2838 3513 2113 
z
" id="DejaVuSans-68" transform="scale(0.015625)"/>
      </defs>
      <use xlink:href="#DejaVuSans-45"/>
      <use x="63.183594" xlink:href="#DejaVuSans-70"/>
      <use x="126.660156" xlink:href="#DejaVuSans-6f"/>
      <use x="187.841797" xlink:href="#DejaVuSans-63"/>
      <use x="242.822266" xlink:href="#DejaVuSans-68"/>
     </g>
    </g>
   </g>
   <g id="matplotlib.axis_2">
    <g id="ytick_1">
     <g id="line2d_10">
      <defs>
       <path d="M 0 0 
L -3.5 0 
" id="mb48cd6f0f9" style="stroke:#000000;stroke-width:0.8;"/>
      </defs>
      <g>
       <use style="stroke:#000000;stroke-width:0.8;" x="57.6" xlink:href="#mb48cd6f0f9" y="292.396826"/>
      </g>
     </g>
     <g id="text_11">
      <!-- 0 -->
      <g transform="translate(44.2375 296.196045)scale(0.1 -0.1)">
       <use xlink:href="#DejaVuSans-30"/>
      </g>
     </g>
    </g>
    <g id="ytick_2">
     <g id="line2d_11">
      <g>
       <use style="stroke:#000000;stroke-width:0.8;" x="57.6" xlink:href="#mb48cd6f0f9" y="241.132"/>
      </g>
     </g>
     <g id="text_12">
      <!-- 20000 -->
      <g transform="translate(18.7875 244.931219)scale(0.1 -0.1)">
       <use xlink:href="#DejaVuSans-32"/>
       <use x="63.623047" xlink:href="#DejaVuSans-30"/>
       <use x="127.246094" xlink:href="#DejaVuSans-30"/>
       <use x="190.869141" xlink:href="#DejaVuSans-30"/>
       <use x="254.492188" xlink:href="#DejaVuSans-30"/>
      </g>
     </g>
    </g>
    <g id="ytick_3">
     <g id="line2d_12">
      <g>
       <use style="stroke:#000000;stroke-width:0.8;" x="57.6" xlink:href="#mb48cd6f0f9" y="189.867175"/>
      </g>
     </g>
     <g id="text_13">
      <!-- 40000 -->
      <g transform="translate(18.7875 193.666393)scale(0.1 -0.1)">
       <use xlink:href="#DejaVuSans-34"/>
       <use x="63.623047" xlink:href="#DejaVuSans-30"/>
       <use x="127.246094" xlink:href="#DejaVuSans-30"/>
       <use x="190.869141" xlink:href="#DejaVuSans-30"/>
       <use x="254.492188" xlink:href="#DejaVuSans-30"/>
      </g>
     </g>
    </g>
    <g id="ytick_4">
     <g id="line2d_13">
      <g>
       <use style="stroke:#000000;stroke-width:0.8;" x="57.6" xlink:href="#mb48cd6f0f9" y="138.602349"/>
      </g>
     </g>
     <g id="text_14">
      <!-- 60000 -->
      <g transform="translate(18.7875 142.401567)scale(0.1 -0.1)">
       <defs>
        <path d="M 2113 2584 
Q 1688 2584 1439 2293 
Q 1191 2003 1191 1497 
Q 1191 994 1439 701 
Q 1688 409 2113 409 
Q 2538 409 2786 701 
Q 3034 994 3034 1497 
Q 3034 2003 2786 2293 
Q 2538 2584 2113 2584 
z
M 3366 4563 
L 3366 3988 
Q 3128 4100 2886 4159 
Q 2644 4219 2406 4219 
Q 1781 4219 1451 3797 
Q 1122 3375 1075 2522 
Q 1259 2794 1537 2939 
Q 1816 3084 2150 3084 
Q 2853 3084 3261 2657 
Q 3669 2231 3669 1497 
Q 3669 778 3244 343 
Q 2819 -91 2113 -91 
Q 1303 -91 875 529 
Q 447 1150 447 2328 
Q 447 3434 972 4092 
Q 1497 4750 2381 4750 
Q 2619 4750 2861 4703 
Q 3103 4656 3366 4563 
z
" id="DejaVuSans-36" transform="scale(0.015625)"/>
       </defs>
       <use xlink:href="#DejaVuSans-36"/>
       <use x="63.623047" xlink:href="#DejaVuSans-30"/>
       <use x="127.246094" xlink:href="#DejaVuSans-30"/>
       <use x="190.869141" xlink:href="#DejaVuSans-30"/>
       <use x="254.492188" xlink:href="#DejaVuSans-30"/>
      </g>
     </g>
    </g>
    <g id="ytick_5">
     <g id="line2d_14">
      <g>
       <use style="stroke:#000000;stroke-width:0.8;" x="57.6" xlink:href="#mb48cd6f0f9" y="87.337523"/>
      </g>
     </g>
     <g id="text_15">
      <!-- 80000 -->
      <g transform="translate(18.7875 91.136742)scale(0.1 -0.1)">
       <defs>
        <path d="M 2034 2216 
Q 1584 2216 1326 1975 
Q 1069 1734 1069 1313 
Q 1069 891 1326 650 
Q 1584 409 2034 409 
Q 2484 409 2743 651 
Q 3003 894 3003 1313 
Q 3003 1734 2745 1975 
Q 2488 2216 2034 2216 
z
M 1403 2484 
Q 997 2584 770 2862 
Q 544 3141 544 3541 
Q 544 4100 942 4425 
Q 1341 4750 2034 4750 
Q 2731 4750 3128 4425 
Q 3525 4100 3525 3541 
Q 3525 3141 3298 2862 
Q 3072 2584 2669 2484 
Q 3125 2378 3379 2068 
Q 3634 1759 3634 1313 
Q 3634 634 3220 271 
Q 2806 -91 2034 -91 
Q 1263 -91 848 271 
Q 434 634 434 1313 
Q 434 1759 690 2068 
Q 947 2378 1403 2484 
z
M 1172 3481 
Q 1172 3119 1398 2916 
Q 1625 2713 2034 2713 
Q 2441 2713 2670 2916 
Q 2900 3119 2900 3481 
Q 2900 3844 2670 4047 
Q 2441 4250 2034 4250 
Q 1625 4250 1398 4047 
Q 1172 3844 1172 3481 
z
" id="DejaVuSans-38" transform="scale(0.015625)"/>
       </defs>
       <use xlink:href="#DejaVuSans-38"/>
       <use x="63.623047" xlink:href="#DejaVuSans-30"/>
       <use x="127.246094" xlink:href="#DejaVuSans-30"/>
       <use x="190.869141" xlink:href="#DejaVuSans-30"/>
       <use x="254.492188" xlink:href="#DejaVuSans-30"/>
      </g>
     </g>
    </g>
    <g id="text_16">
     <!-- Loss -->
     <g transform="translate(11.667969 190.978781)rotate(-90)scale(0.15 -0.15)">
      <defs>
       <path d="M 628 4666 
L 1259 4666 
L 1259 531 
L 3531 531 
L 3531 0 
L 628 0 
L 628 4666 
z
" id="DejaVuSans-4c" transform="scale(0.015625)"/>
       <path d="M 2834 3397 
L 2834 2853 
Q 2591 2978 2328 3040 
Q 2066 3103 1784 3103 
Q 1356 3103 1142 2972 
Q 928 2841 928 2578 
Q 928 2378 1081 2264 
Q 1234 2150 1697 2047 
L 1894 2003 
Q 2506 1872 2764 1633 
Q 3022 1394 3022 966 
Q 3022 478 2636 193 
Q 2250 -91 1575 -91 
Q 1294 -91 989 -36 
Q 684 19 347 128 
L 347 722 
Q 666 556 975 473 
Q 1284 391 1588 391 
Q 1994 391 2212 530 
Q 2431 669 2431 922 
Q 2431 1156 2273 1281 
Q 2116 1406 1581 1522 
L 1381 1569 
Q 847 1681 609 1914 
Q 372 2147 372 2553 
Q 372 3047 722 3315 
Q 1072 3584 1716 3584 
Q 2034 3584 2315 3537 
Q 2597 3491 2834 3397 
z
" id="DejaVuSans-73" transform="scale(0.015625)"/>
      </defs>
      <use xlink:href="#DejaVuSans-4c"/>
      <use x="53.962891" xlink:href="#DejaVuSans-6f"/>
      <use x="115.144531" xlink:href="#DejaVuSans-73"/>
      <use x="167.244141" xlink:href="#DejaVuSans-73"/>
     </g>
    </g>
   </g>
   <g id="line2d_15">
    <path clip-path="url(#p326008d0f5)" d="M 73.832727 292.582634 
L 74.646398 293.201972 
L 75.460068 293.430369 
L 77.087409 293.522537 
L 77.90108 293.733652 
L 78.714751 293.672301 
L 79.528421 293.888838 
L 81.969433 294.046244 
L 82.783103 294.019644 
L 85.224115 294.26072 
L 86.037785 294.259269 
L 86.851456 294.430572 
L 87.665126 294.294511 
L 90.106138 294.49673 
L 97.429173 294.659032 
L 98.242843 294.434649 
L 101.497526 294.682208 
L 102.311196 294.586404 
L 103.938537 294.645645 
L 105.565878 294.599075 
L 107.193219 294.728612 
L 108.00689 294.600056 
L 108.82056 294.603326 
L 109.634231 294.750557 
L 111.261572 294.667456 
L 112.888913 294.739466 
L 113.702584 294.718454 
L 114.516254 294.564318 
L 116.143595 294.829752 
L 116.957266 294.635386 
L 117.770936 294.831956 
L 123.46663 294.719325 
L 124.280301 294.84703 
L 125.093971 294.72227 
L 129.162324 294.783036 
L 133.230677 294.740125 
L 134.044347 294.710081 
L 136.485359 294.899541 
L 137.299029 294.752264 
L 138.1127 294.816567 
L 139.740041 294.752885 
L 141.367382 294.84583 
L 142.994723 294.716624 
L 143.808394 294.903176 
L 145.435735 294.801399 
L 146.249405 294.753274 
L 147.063076 295.000306 
L 147.876746 294.778417 
L 148.690417 294.887473 
L 150.317758 294.799907 
L 151.945099 294.875414 
L 152.75877 294.807824 
L 155.199781 294.853318 
L 156.827122 294.894594 
L 157.640793 295.018432 
L 160.895475 294.779577 
L 164.150157 294.868886 
L 165.777498 294.773371 
L 166.591169 294.902789 
L 167.404839 294.654622 
L 168.21851 294.895927 
L 170.659522 294.828958 
L 171.473192 294.995343 
L 172.286863 294.762133 
L 173.914204 294.957784 
L 174.727874 295.051624 
L 175.541545 294.86687 
L 178.796227 294.837834 
L 179.609897 295.019293 
L 180.423568 294.790727 
L 181.237239 294.942619 
L 182.050909 294.694646 
L 183.67825 294.991371 
L 195.069638 294.835223 
L 195.883308 295.020573 
L 196.696979 294.886484 
L 198.32432 294.968388 
L 199.13799 294.849077 
L 199.951661 294.974197 
L 200.765332 294.828031 
L 201.579002 294.957184 
L 204.833684 294.985718 
L 205.647355 294.740213 
L 206.461025 294.986434 
L 207.274696 295.013784 
L 208.088366 294.917176 
L 208.902037 295.016307 
L 209.715707 294.904613 
L 210.529378 294.951985 
L 211.343049 294.816645 
L 212.156719 295.072567 
L 212.97039 294.881769 
L 214.597731 294.956163 
L 216.225072 294.993391 
L 217.038742 295.144133 
L 217.852413 294.893744 
L 219.479754 295.058133 
L 220.293424 294.996165 
L 221.107095 295.074902 
L 221.920766 294.962138 
L 222.734436 295.022848 
L 224.361777 294.912414 
L 225.175448 294.981505 
L 225.989118 294.93609 
L 227.616459 295.169261 
L 228.43013 294.930563 
L 229.2438 295.027157 
L 230.057471 294.982276 
L 230.871141 295.190122 
L 231.684812 294.980736 
L 232.498483 295.088492 
L 233.312153 294.986159 
L 234.125824 295.075268 
L 234.939494 294.859153 
L 235.753165 295.140808 
L 236.566835 294.952714 
L 237.380506 295.082737 
L 238.194176 294.863528 
L 240.635188 295.082098 
L 241.448859 294.944918 
L 246.330882 295.036647 
L 247.144552 294.971599 
L 247.958223 295.06778 
L 248.771893 294.995288 
L 249.585564 295.073523 
L 250.399234 294.98214 
L 252.026576 295.092561 
L 252.840246 295.037816 
L 254.467587 295.155989 
L 255.281258 295.018104 
L 256.908599 295.107014 
L 257.722269 294.94025 
L 258.53594 295.140639 
L 259.34961 294.958655 
L 260.976951 295.160657 
L 261.790622 294.883059 
L 262.604293 295.093211 
L 264.231634 295.149514 
L 265.045304 295.212787 
L 265.858975 295.002179 
L 266.672645 295.120873 
L 271.554668 295.025045 
L 273.99568 295.159247 
L 274.809351 295.13995 
L 275.623021 295.247328 
L 276.436692 295.063698 
L 277.250362 295.018573 
L 278.877703 295.077366 
L 280.505044 295.056295 
L 282.946056 295.158394 
L 283.759727 295.268142 
L 284.573397 295.027985 
L 287.828079 295.21801 
L 288.64175 295.076269 
L 290.269091 295.059984 
L 291.082761 295.292187 
L 293.523773 295.107221 
L 294.337444 295.076244 
L 295.151114 295.247764 
L 296.778455 295.111506 
L 298.405796 295.189791 
L 300.033137 295.105579 
L 300.846808 295.085132 
L 301.660478 295.383413 
L 302.474149 295.093966 
L 304.10149 295.147067 
L 304.915161 295.262936 
L 305.728831 295.169176 
L 306.542502 295.287677 
L 308.169843 294.97176 
L 308.983513 295.162563 
L 318.74756 295.166993 
L 319.56123 295.311141 
L 320.374901 294.822535 
L 321.188571 295.101003 
L 322.815913 295.312327 
L 323.629583 295.086006 
L 325.256924 295.172913 
L 326.070595 295.029755 
L 327.697936 295.290302 
L 329.325277 295.195729 
L 330.138947 295.446131 
L 330.952618 295.41528 
L 333.39363 295.033838 
L 334.2073 295.188587 
L 335.020971 295.066456 
L 342.344005 295.136132 
L 343.157676 295.124708 
L 343.971347 295.239998 
L 344.785017 294.98483 
L 346.412358 295.349491 
L 347.226029 295.153551 
L 348.039699 295.208698 
L 348.85337 294.95958 
L 350.480711 295.32902 
L 351.294381 295.090904 
L 352.921722 295.229478 
L 353.735393 295.488 
L 354.549064 295.251849 
L 355.362734 295.195461 
L 356.176405 294.987771 
L 359.431087 295.144279 
L 361.058428 295.157067 
L 361.872098 295.288496 
L 367.567792 295.105397 
L 368.381463 294.976903 
L 370.008804 295.397131 
L 370.822474 294.980449 
L 371.636145 295.233009 
L 374.077157 295.265952 
L 375.704498 295.032806 
L 376.518168 295.454521 
L 377.331839 294.989464 
L 378.95918 295.196592 
L 381.400191 295.09468 
L 382.213862 294.907642 
L 383.027532 295.24229 
L 383.841203 295.100565 
L 384.654874 295.401095 
L 386.282215 295.001562 
L 387.095885 295.212123 
L 396.046261 295.397258 
L 396.859932 295.102585 
L 397.673602 295.391428 
L 398.487273 295.103133 
L 398.487273 295.103133 
" style="fill:none;stroke:#1f77b4;stroke-linecap:square;stroke-width:1.5;"/>
   </g>
   <g id="line2d_16">
    <path clip-path="url(#p326008d0f5)" d="M 73.832727 293.047284 
L 75.460068 292.960084 
L 77.087409 288.732977 
L 77.90108 287.809326 
L 78.714751 283.802845 
L 79.528421 285.611149 
L 80.342092 274.293973 
L 81.155762 279.604905 
L 81.969433 266.298961 
L 82.783103 258.520977 
L 83.596774 255.212218 
L 84.410444 248.906609 
L 85.224115 257.426188 
L 86.037785 235.129406 
L 86.851456 232.380953 
L 87.665126 234.247262 
L 88.478797 234.830807 
L 89.292468 226.625156 
L 90.106138 226.638099 
L 90.919809 222.137633 
L 91.733479 227.046758 
L 92.54715 233.467163 
L 93.36082 220.983356 
L 94.174491 214.945181 
L 94.988161 240.473314 
L 95.801832 209.924591 
L 96.615502 220.271333 
L 97.429173 224.296568 
L 98.242843 216.925874 
L 99.056514 219.655404 
L 99.870185 216.53987 
L 100.683855 219.861536 
L 101.497526 222.182232 
L 102.311196 219.795785 
L 103.124867 208.038876 
L 103.938537 228.161438 
L 104.752208 216.948016 
L 105.565878 208.612191 
L 106.379549 207.22967 
L 107.193219 213.418124 
L 108.00689 199.534441 
L 108.82056 213.79657 
L 109.634231 206.168936 
L 110.447902 203.436592 
L 111.261572 216.797159 
L 112.075243 205.792724 
L 112.888913 208.147921 
L 113.702584 202.552239 
L 114.516254 212.344901 
L 115.329925 202.671021 
L 116.143595 201.290251 
L 116.957266 208.773916 
L 117.770936 194.243016 
L 118.584607 197.617821 
L 119.398278 200.043626 
L 120.211948 205.527208 
L 121.025619 217.762827 
L 122.65296 190.208957 
L 123.46663 220.534084 
L 124.280301 200.139736 
L 125.093971 203.000979 
L 125.907642 211.128422 
L 126.721312 204.034959 
L 127.534983 185.180791 
L 128.348653 195.115634 
L 129.162324 188.511187 
L 129.975995 199.019246 
L 130.789665 191.550774 
L 131.603336 202.379683 
L 132.417006 207.982829 
L 133.230677 187.207601 
L 134.044347 187.119095 
L 134.858018 191.376474 
L 135.671688 187.98061 
L 136.485359 207.094629 
L 137.299029 198.496691 
L 138.1127 194.751207 
L 138.92637 190.43573 
L 139.740041 183.68408 
L 140.553712 209.180382 
L 142.181053 192.917971 
L 142.994723 197.968259 
L 143.808394 184.531387 
L 144.622064 213.380925 
L 145.435735 191.707848 
L 146.249405 196.847 
L 147.063076 192.798251 
L 147.876746 182.980353 
L 148.690417 185.331746 
L 149.504087 191.885798 
L 150.317758 178.888418 
L 151.131429 191.719852 
L 151.945099 190.827796 
L 152.75877 185.107267 
L 153.57244 192.891319 
L 154.386111 175.475922 
L 155.199781 188.498835 
L 156.013452 198.645024 
L 156.827122 204.620286 
L 157.640793 192.160343 
L 158.454463 170.116228 
L 159.268134 187.160289 
L 160.081805 176.920118 
L 160.895475 193.735311 
L 161.709146 187.980022 
L 162.522816 189.576703 
L 163.336487 188.366849 
L 164.150157 179.75067 
L 164.963828 181.276527 
L 165.777498 177.533546 
L 166.591169 199.348843 
L 167.404839 185.624043 
L 168.21851 189.675572 
L 169.03218 171.93856 
L 169.845851 188.153319 
L 170.659522 189.177959 
L 171.473192 183.251802 
L 172.286863 195.570318 
L 173.100533 185.109888 
L 173.914204 178.075445 
L 174.727874 182.401388 
L 175.541545 177.609127 
L 176.355215 169.01669 
L 177.168886 188.662627 
L 177.982556 185.13141 
L 178.796227 185.488732 
L 179.609897 176.019571 
L 180.423568 184.689186 
L 181.237239 183.329493 
L 182.050909 180.94358 
L 182.86458 201.909782 
L 183.67825 174.666148 
L 184.491921 184.55989 
L 185.305591 170.367938 
L 186.119262 169.395562 
L 186.932932 186.351135 
L 187.746603 164.940002 
L 188.560273 187.735097 
L 189.373944 171.163311 
L 190.187614 171.793149 
L 191.001285 176.060931 
L 191.814956 163.139743 
L 193.442297 183.471547 
L 194.255967 173.795271 
L 195.069638 166.552537 
L 195.883308 172.205773 
L 196.696979 156.645377 
L 197.510649 185.155863 
L 198.32432 168.902981 
L 199.13799 169.785681 
L 200.765332 182.475687 
L 201.579002 173.465446 
L 202.392673 178.73197 
L 203.206343 174.093682 
L 204.020014 176.377218 
L 204.833684 168.828767 
L 205.647355 173.599328 
L 206.461025 168.071951 
L 207.274696 193.264923 
L 208.088366 157.944346 
L 208.902037 153.313241 
L 209.715707 160.107947 
L 210.529378 170.005474 
L 212.156719 156.277404 
L 212.97039 182.223792 
L 213.78406 161.996066 
L 214.597731 162.771751 
L 215.411401 174.179368 
L 216.225072 170.149384 
L 217.038742 170.527744 
L 217.852413 155.403167 
L 218.666083 142.985072 
L 219.479754 182.125866 
L 220.293424 159.429875 
L 221.107095 151.007527 
L 221.920766 162.466921 
L 222.734436 158.331304 
L 223.548107 168.473768 
L 224.361777 151.566288 
L 225.175448 181.188829 
L 225.989118 165.933848 
L 226.802789 161.762438 
L 227.616459 159.913253 
L 228.43013 149.686567 
L 229.2438 158.869182 
L 230.057471 208.048849 
L 230.871141 166.600447 
L 231.684812 191.940751 
L 232.498483 156.350806 
L 233.312153 153.052087 
L 234.125824 165.971522 
L 234.939494 163.890984 
L 235.753165 166.499555 
L 236.566835 155.783333 
L 237.380506 147.714791 
L 238.194176 166.038952 
L 239.007847 152.451803 
L 239.821517 151.166752 
L 240.635188 151.216633 
L 241.448859 189.516662 
L 243.0762 146.347527 
L 243.88987 162.44443 
L 244.703541 198.633669 
L 245.517211 169.928037 
L 246.330882 168.050572 
L 247.144552 204.615406 
L 247.958223 175.610286 
L 248.771893 168.927851 
L 249.585564 166.268831 
L 250.399234 160.843179 
L 251.212905 144.179661 
L 252.026576 155.820039 
L 252.840246 152.190272 
L 253.653917 159.255628 
L 254.467587 141.387439 
L 255.281258 149.22418 
L 256.094928 138.244287 
L 256.908599 141.582916 
L 257.722269 149.23393 
L 258.53594 146.011712 
L 259.34961 134.885509 
L 260.163281 146.084334 
L 260.976951 139.658527 
L 261.790622 158.861757 
L 262.604293 138.213859 
L 263.417963 124.88459 
L 264.231634 127.568051 
L 265.045304 125.274378 
L 265.858975 116.835469 
L 266.672645 143.18527 
L 267.486316 145.274361 
L 268.299986 146.003593 
L 269.113657 124.413498 
L 269.927327 98.574244 
L 270.740998 115.590992 
L 271.554668 118.645676 
L 272.368339 113.129605 
L 273.18201 98.453438 
L 273.99568 120.074322 
L 274.809351 110.010102 
L 275.623021 105.190654 
L 276.436692 142.593774 
L 277.250362 110.067105 
L 278.064033 100.739548 
L 278.877703 200.964512 
L 279.691374 99.383933 
L 280.505044 95.947287 
L 281.318715 95.888677 
L 282.132386 115.920441 
L 282.946056 148.802677 
L 283.759727 88.057495 
L 284.573397 124.686562 
L 285.387068 90.878843 
L 286.200738 92.18464 
L 287.014409 146.352664 
L 287.828079 91.394001 
L 288.64175 92.083435 
L 289.45542 77.772284 
L 290.269091 146.873108 
L 291.082761 101.403748 
L 291.896432 90.668432 
L 292.710103 95.066476 
L 293.523773 92.988969 
L 294.337444 97.70086 
L 295.964785 81.098118 
L 296.778455 92.721322 
L 297.592126 96.639632 
L 298.405796 86.059822 
L 299.219467 72.66248 
L 300.033137 95.73339 
L 300.846808 102.187834 
L 301.660478 80.241095 
L 302.474149 99.934328 
L 303.28782 109.753693 
L 304.10149 91.316999 
L 304.915161 78.46147 
L 305.728831 101.749717 
L 306.542502 113.030199 
L 307.356172 80.377369 
L 308.169843 92.206021 
L 308.983513 77.897383 
L 309.797184 95.738308 
L 310.610854 82.413675 
L 311.424525 112.827602 
L 312.238195 93.401637 
L 313.051866 101.170225 
L 313.865537 141.972603 
L 314.679207 132.004125 
L 315.492878 133.978236 
L 317.120219 80.90076 
L 317.933889 130.104703 
L 318.74756 79.623239 
L 319.56123 89.806251 
L 320.374901 76.666919 
L 321.188571 83.617506 
L 322.002242 100.543498 
L 322.815913 90.896756 
L 323.629583 79.274021 
L 324.443254 79.440712 
L 325.256924 95.829082 
L 326.070595 83.493019 
L 326.884265 90.358171 
L 327.697936 74.537263 
L 328.511606 71.681749 
L 329.325277 83.947754 
L 330.138947 103.209502 
L 330.952618 78.152086 
L 331.766288 79.963189 
L 332.579959 76.584768 
L 333.39363 162.461974 
L 334.2073 87.794434 
L 335.020971 78.923497 
L 335.834641 66.432088 
L 336.648312 93.324573 
L 337.461982 81.196804 
L 338.275653 84.985585 
L 339.089323 71.721987 
L 339.902994 92.495018 
L 340.716664 92.72363 
L 341.530335 72.847754 
L 342.344005 74.043161 
L 343.157676 72.849501 
L 343.971347 76.806683 
L 344.785017 99.49508 
L 345.598688 84.364571 
L 346.412358 63.820045 
L 347.226029 77.920609 
L 348.039699 96.547525 
L 348.85337 160.248318 
L 349.66704 126.283129 
L 350.480711 67.232078 
L 351.294381 107.395736 
L 352.108052 71.494929 
L 352.921722 78.28682 
L 353.735393 98.293177 
L 354.549064 78.468855 
L 355.362734 84.753043 
L 356.176405 75.601983 
L 356.990075 70.062555 
L 357.803746 85.185303 
L 358.617416 86.230981 
L 359.431087 61.562326 
L 360.244757 62.689455 
L 361.058428 133.948824 
L 361.872098 90.824535 
L 362.685769 78.741617 
L 363.49944 75.524601 
L 364.31311 96.591497 
L 365.126781 77.031839 
L 365.940451 75.92358 
L 366.754122 62.149766 
L 367.567792 88.891854 
L 368.381463 74.175439 
L 369.195133 91.300078 
L 370.822474 75.994951 
L 371.636145 59.10204 
L 372.449815 75.089466 
L 373.263486 70.513046 
L 374.077157 64.475982 
L 374.890827 88.207655 
L 375.704498 80.432295 
L 376.518168 100.286073 
L 377.331839 72.38183 
L 378.145509 82.863707 
L 378.95918 73.556682 
L 379.77285 78.385313 
L 380.586521 89.548056 
L 381.400191 78.475115 
L 382.213862 148.044405 
L 383.027532 102.026284 
L 383.841203 89.513991 
L 384.654874 85.082699 
L 385.468544 75.544547 
L 386.282215 60.377206 
L 387.095885 82.04441 
L 387.909556 66.84401 
L 388.723226 76.610647 
L 389.536897 83.991416 
L 390.350567 72.615047 
L 391.164238 77.373855 
L 391.977908 79.189937 
L 392.791579 76.612474 
L 393.605249 68.416539 
L 394.41892 85.154172 
L 395.232591 80.813458 
L 396.046261 72.056855 
L 396.859932 53.568 
L 397.673602 76.33683 
L 398.487273 68.670514 
L 398.487273 68.670514 
" style="fill:none;stroke:#ff7f0e;stroke-linecap:square;stroke-width:1.5;"/>
   </g>
   <g id="patch_3">
    <path d="M 57.6 307.584 
L 57.6 41.472 
" style="fill:none;stroke:#000000;stroke-linecap:square;stroke-linejoin:miter;stroke-width:0.8;"/>
   </g>
   <g id="patch_4">
    <path d="M 414.72 307.584 
L 414.72 41.472 
" style="fill:none;stroke:#000000;stroke-linecap:square;stroke-linejoin:miter;stroke-width:0.8;"/>
   </g>
   <g id="patch_5">
    <path d="M 57.6 307.584 
L 414.72 307.584 
" style="fill:none;stroke:#000000;stroke-linecap:square;stroke-linejoin:miter;stroke-width:0.8;"/>
   </g>
   <g id="patch_6">
    <path d="M 57.6 41.472 
L 414.72 41.472 
" style="fill:none;stroke:#000000;stroke-linecap:square;stroke-linejoin:miter;stroke-width:0.8;"/>
   </g>
   <g id="legend_1">
    <g id="patch_7">
     <path d="M 64.6 78.82825 
L 168.475 78.82825 
Q 170.475 78.82825 170.475 76.82825 
L 170.475 48.472 
Q 170.475 46.472 168.475 46.472 
L 64.6 46.472 
Q 62.6 46.472 62.6 48.472 
L 62.6 76.82825 
Q 62.6 78.82825 64.6 78.82825 
z
" style="fill:#ffffff;opacity:0.8;stroke:#cccccc;stroke-linejoin:miter;"/>
    </g>
    <g id="line2d_17">
     <path d="M 66.6 54.570437 
L 86.6 54.570437 
" style="fill:none;stroke:#1f77b4;stroke-linecap:square;stroke-width:1.5;"/>
    </g>
    <g id="line2d_18"/>
    <g id="text_17">
     <!-- Train loss -->
     <g transform="translate(94.6 58.070437)scale(0.1 -0.1)">
      <defs>
       <path d="M -19 4666 
L 3928 4666 
L 3928 4134 
L 2272 4134 
L 2272 0 
L 1638 0 
L 1638 4134 
L -19 4134 
L -19 4666 
z
" id="DejaVuSans-54" transform="scale(0.015625)"/>
       <path d="M 2631 2963 
Q 2534 3019 2420 3045 
Q 2306 3072 2169 3072 
Q 1681 3072 1420 2755 
Q 1159 2438 1159 1844 
L 1159 0 
L 581 0 
L 581 3500 
L 1159 3500 
L 1159 2956 
Q 1341 3275 1631 3429 
Q 1922 3584 2338 3584 
Q 2397 3584 2469 3576 
Q 2541 3569 2628 3553 
L 2631 2963 
z
" id="DejaVuSans-72" transform="scale(0.015625)"/>
       <path d="M 2194 1759 
Q 1497 1759 1228 1600 
Q 959 1441 959 1056 
Q 959 750 1161 570 
Q 1363 391 1709 391 
Q 2188 391 2477 730 
Q 2766 1069 2766 1631 
L 2766 1759 
L 2194 1759 
z
M 3341 1997 
L 3341 0 
L 2766 0 
L 2766 531 
Q 2569 213 2275 61 
Q 1981 -91 1556 -91 
Q 1019 -91 701 211 
Q 384 513 384 1019 
Q 384 1609 779 1909 
Q 1175 2209 1959 2209 
L 2766 2209 
L 2766 2266 
Q 2766 2663 2505 2880 
Q 2244 3097 1772 3097 
Q 1472 3097 1187 3025 
Q 903 2953 641 2809 
L 641 3341 
Q 956 3463 1253 3523 
Q 1550 3584 1831 3584 
Q 2591 3584 2966 3190 
Q 3341 2797 3341 1997 
z
" id="DejaVuSans-61" transform="scale(0.015625)"/>
       <path d="M 603 3500 
L 1178 3500 
L 1178 0 
L 603 0 
L 603 3500 
z
M 603 4863 
L 1178 4863 
L 1178 4134 
L 603 4134 
L 603 4863 
z
" id="DejaVuSans-69" transform="scale(0.015625)"/>
       <path d="M 3513 2113 
L 3513 0 
L 2938 0 
L 2938 2094 
Q 2938 2591 2744 2837 
Q 2550 3084 2163 3084 
Q 1697 3084 1428 2787 
Q 1159 2491 1159 1978 
L 1159 0 
L 581 0 
L 581 3500 
L 1159 3500 
L 1159 2956 
Q 1366 3272 1645 3428 
Q 1925 3584 2291 3584 
Q 2894 3584 3203 3211 
Q 3513 2838 3513 2113 
z
" id="DejaVuSans-6e" transform="scale(0.015625)"/>
       <path id="DejaVuSans-20" transform="scale(0.015625)"/>
       <path d="M 603 4863 
L 1178 4863 
L 1178 0 
L 603 0 
L 603 4863 
z
" id="DejaVuSans-6c" transform="scale(0.015625)"/>
      </defs>
      <use xlink:href="#DejaVuSans-54"/>
      <use x="46.333984" xlink:href="#DejaVuSans-72"/>
      <use x="87.447266" xlink:href="#DejaVuSans-61"/>
      <use x="148.726562" xlink:href="#DejaVuSans-69"/>
      <use x="176.509766" xlink:href="#DejaVuSans-6e"/>
      <use x="239.888672" xlink:href="#DejaVuSans-20"/>
      <use x="271.675781" xlink:href="#DejaVuSans-6c"/>
      <use x="299.458984" xlink:href="#DejaVuSans-6f"/>
      <use x="360.640625" xlink:href="#DejaVuSans-73"/>
      <use x="412.740234" xlink:href="#DejaVuSans-73"/>
     </g>
    </g>
    <g id="line2d_19">
     <path d="M 66.6 69.248562 
L 86.6 69.248562 
" style="fill:none;stroke:#ff7f0e;stroke-linecap:square;stroke-width:1.5;"/>
    </g>
    <g id="line2d_20"/>
    <g id="text_18">
     <!-- Validation loss -->
     <g transform="translate(94.6 72.748562)scale(0.1 -0.1)">
      <defs>
       <path d="M 1831 0 
L 50 4666 
L 709 4666 
L 2188 738 
L 3669 4666 
L 4325 4666 
L 2547 0 
L 1831 0 
z
" id="DejaVuSans-56" transform="scale(0.015625)"/>
       <path d="M 2906 2969 
L 2906 4863 
L 3481 4863 
L 3481 0 
L 2906 0 
L 2906 525 
Q 2725 213 2448 61 
Q 2172 -91 1784 -91 
Q 1150 -91 751 415 
Q 353 922 353 1747 
Q 353 2572 751 3078 
Q 1150 3584 1784 3584 
Q 2172 3584 2448 3432 
Q 2725 3281 2906 2969 
z
M 947 1747 
Q 947 1113 1208 752 
Q 1469 391 1925 391 
Q 2381 391 2643 752 
Q 2906 1113 2906 1747 
Q 2906 2381 2643 2742 
Q 2381 3103 1925 3103 
Q 1469 3103 1208 2742 
Q 947 2381 947 1747 
z
" id="DejaVuSans-64" transform="scale(0.015625)"/>
       <path d="M 1172 4494 
L 1172 3500 
L 2356 3500 
L 2356 3053 
L 1172 3053 
L 1172 1153 
Q 1172 725 1289 603 
Q 1406 481 1766 481 
L 2356 481 
L 2356 0 
L 1766 0 
Q 1100 0 847 248 
Q 594 497 594 1153 
L 594 3053 
L 172 3053 
L 172 3500 
L 594 3500 
L 594 4494 
L 1172 4494 
z
" id="DejaVuSans-74" transform="scale(0.015625)"/>
      </defs>
      <use xlink:href="#DejaVuSans-56"/>
      <use x="60.658203" xlink:href="#DejaVuSans-61"/>
      <use x="121.9375" xlink:href="#DejaVuSans-6c"/>
      <use x="149.720703" xlink:href="#DejaVuSans-69"/>
      <use x="177.503906" xlink:href="#DejaVuSans-64"/>
      <use x="240.980469" xlink:href="#DejaVuSans-61"/>
      <use x="302.259766" xlink:href="#DejaVuSans-74"/>
      <use x="341.46875" xlink:href="#DejaVuSans-69"/>
      <use x="369.251953" xlink:href="#DejaVuSans-6f"/>
      <use x="430.433594" xlink:href="#DejaVuSans-6e"/>
      <use x="493.8125" xlink:href="#DejaVuSans-20"/>
      <use x="525.599609" xlink:href="#DejaVuSans-6c"/>
      <use x="553.382812" xlink:href="#DejaVuSans-6f"/>
      <use x="614.564453" xlink:href="#DejaVuSans-73"/>
      <use x="666.664062" xlink:href="#DejaVuSans-73"/>
     </g>
    </g>
   </g>
  </g>
 </g>
 <defs>
  <clipPath id="p326008d0f5">
   <rect height="266.112" width="357.12" x="57.6" y="41.472"/>
  </clipPath>
 </defs>
</svg>
