<?xml version="1.0" encoding="utf-8" standalone="no"?>
<!DOCTYPE svg PUBLIC "-//W3C//DTD SVG 1.1//EN"
  "http://www.w3.org/Graphics/SVG/1.1/DTD/svg11.dtd">
<svg height="345.6pt" version="1.1" viewBox="0 0 460.8 345.6" width="460.8pt" xmlns="http://www.w3.org/2000/svg" xmlns:xlink="http://www.w3.org/1999/xlink">
 <metadata>
  <rdf:RDF xmlns:cc="http://creativecommons.org/ns#" xmlns:dc="http://purl.org/dc/elements/1.1/" xmlns:rdf="http://www.w3.org/1999/02/22-rdf-syntax-ns#">
   <cc:Work>
    <dc:type rdf:resource="http://purl.org/dc/dcmitype/StillImage"/>
    <dc:date>2021-07-23T14:33:39.600051</dc:date>
    <dc:format>image/svg+xml</dc:format>
    <dc:creator>
     <cc:Agent>
      <dc:title>Matplotlib v3.4.2, https://matplotlib.org/</dc:title>
     </cc:Agent>
    </dc:creator>
   </cc:Work>
  </rdf:RDF>
 </metadata>
 <defs>
  <style type="text/css">*{stroke-linecap:butt;stroke-linejoin:round;}</style>
 </defs>
 <g id="figure_1">
  <g id="patch_1">
   <path d="M 0 345.6 
L 460.8 345.6 
L 460.8 0 
L 0 0 
z
" style="fill:#ffffff;"/>
  </g>
  <g id="axes_1">
   <g id="patch_2">
    <path d="M 57.6 307.584 
L 414.72 307.584 
L 414.72 41.472 
L 57.6 41.472 
z
" style="fill:#ffffff;"/>
   </g>
   <g id="matplotlib.axis_1">
    <g id="xtick_1">
     <g id="line2d_1">
      <defs>
       <path d="M 0 0 
L 0 3.5 
" id="m757a7ce652" style="stroke:#000000;stroke-width:0.8;"/>
      </defs>
      <g>
       <use style="stroke:#000000;stroke-width:0.8;" x="73.393411" xlink:href="#m757a7ce652" y="307.584"/>
      </g>
     </g>
     <g id="text_1">
      <!-- 0 -->
      <g transform="translate(70.212161 322.182437)scale(0.1 -0.1)">
       <defs>
        <path d="M 2034 4250 
Q 1547 4250 1301 3770 
Q 1056 3291 1056 2328 
Q 1056 1369 1301 889 
Q 1547 409 2034 409 
Q 2525 409 2770 889 
Q 3016 1369 3016 2328 
Q 3016 3291 2770 3770 
Q 2525 4250 2034 4250 
z
M 2034 4750 
Q 2819 4750 3233 4129 
Q 3647 3509 3647 2328 
Q 3647 1150 3233 529 
Q 2819 -91 2034 -91 
Q 1250 -91 836 529 
Q 422 1150 422 2328 
Q 422 3509 836 4129 
Q 1250 4750 2034 4750 
z
" id="DejaVuSans-30" transform="scale(0.015625)"/>
       </defs>
       <use xlink:href="#DejaVuSans-30"/>
      </g>
     </g>
    </g>
    <g id="xtick_2">
     <g id="line2d_2">
      <g>
       <use style="stroke:#000000;stroke-width:0.8;" x="117.325014" xlink:href="#m757a7ce652" y="307.584"/>
      </g>
     </g>
     <g id="text_2">
      <!-- 100 -->
      <g transform="translate(107.781264 322.182437)scale(0.1 -0.1)">
       <defs>
        <path d="M 794 531 
L 1825 531 
L 1825 4091 
L 703 3866 
L 703 4441 
L 1819 4666 
L 2450 4666 
L 2450 531 
L 3481 531 
L 3481 0 
L 794 0 
L 794 531 
z
" id="DejaVuSans-31" transform="scale(0.015625)"/>
       </defs>
       <use xlink:href="#DejaVuSans-31"/>
       <use x="63.623047" xlink:href="#DejaVuSans-30"/>
       <use x="127.246094" xlink:href="#DejaVuSans-30"/>
      </g>
     </g>
    </g>
    <g id="xtick_3">
     <g id="line2d_3">
      <g>
       <use style="stroke:#000000;stroke-width:0.8;" x="161.256617" xlink:href="#m757a7ce652" y="307.584"/>
      </g>
     </g>
     <g id="text_3">
      <!-- 200 -->
      <g transform="translate(151.712867 322.182437)scale(0.1 -0.1)">
       <defs>
        <path d="M 1228 531 
L 3431 531 
L 3431 0 
L 469 0 
L 469 531 
Q 828 903 1448 1529 
Q 2069 2156 2228 2338 
Q 2531 2678 2651 2914 
Q 2772 3150 2772 3378 
Q 2772 3750 2511 3984 
Q 2250 4219 1831 4219 
Q 1534 4219 1204 4116 
Q 875 4013 500 3803 
L 500 4441 
Q 881 4594 1212 4672 
Q 1544 4750 1819 4750 
Q 2544 4750 2975 4387 
Q 3406 4025 3406 3419 
Q 3406 3131 3298 2873 
Q 3191 2616 2906 2266 
Q 2828 2175 2409 1742 
Q 1991 1309 1228 531 
z
" id="DejaVuSans-32" transform="scale(0.015625)"/>
       </defs>
       <use xlink:href="#DejaVuSans-32"/>
       <use x="63.623047" xlink:href="#DejaVuSans-30"/>
       <use x="127.246094" xlink:href="#DejaVuSans-30"/>
      </g>
     </g>
    </g>
    <g id="xtick_4">
     <g id="line2d_4">
      <g>
       <use style="stroke:#000000;stroke-width:0.8;" x="205.18822" xlink:href="#m757a7ce652" y="307.584"/>
      </g>
     </g>
     <g id="text_4">
      <!-- 300 -->
      <g transform="translate(195.64447 322.182437)scale(0.1 -0.1)">
       <defs>
        <path d="M 2597 2516 
Q 3050 2419 3304 2112 
Q 3559 1806 3559 1356 
Q 3559 666 3084 287 
Q 2609 -91 1734 -91 
Q 1441 -91 1130 -33 
Q 819 25 488 141 
L 488 750 
Q 750 597 1062 519 
Q 1375 441 1716 441 
Q 2309 441 2620 675 
Q 2931 909 2931 1356 
Q 2931 1769 2642 2001 
Q 2353 2234 1838 2234 
L 1294 2234 
L 1294 2753 
L 1863 2753 
Q 2328 2753 2575 2939 
Q 2822 3125 2822 3475 
Q 2822 3834 2567 4026 
Q 2313 4219 1838 4219 
Q 1578 4219 1281 4162 
Q 984 4106 628 3988 
L 628 4550 
Q 988 4650 1302 4700 
Q 1616 4750 1894 4750 
Q 2613 4750 3031 4423 
Q 3450 4097 3450 3541 
Q 3450 3153 3228 2886 
Q 3006 2619 2597 2516 
z
" id="DejaVuSans-33" transform="scale(0.015625)"/>
       </defs>
       <use xlink:href="#DejaVuSans-33"/>
       <use x="63.623047" xlink:href="#DejaVuSans-30"/>
       <use x="127.246094" xlink:href="#DejaVuSans-30"/>
      </g>
     </g>
    </g>
    <g id="xtick_5">
     <g id="line2d_5">
      <g>
       <use style="stroke:#000000;stroke-width:0.8;" x="249.119823" xlink:href="#m757a7ce652" y="307.584"/>
      </g>
     </g>
     <g id="text_5">
      <!-- 400 -->
      <g transform="translate(239.576073 322.182437)scale(0.1 -0.1)">
       <defs>
        <path d="M 2419 4116 
L 825 1625 
L 2419 1625 
L 2419 4116 
z
M 2253 4666 
L 3047 4666 
L 3047 1625 
L 3713 1625 
L 3713 1100 
L 3047 1100 
L 3047 0 
L 2419 0 
L 2419 1100 
L 313 1100 
L 313 1709 
L 2253 4666 
z
" id="DejaVuSans-34" transform="scale(0.015625)"/>
       </defs>
       <use xlink:href="#DejaVuSans-34"/>
       <use x="63.623047" xlink:href="#DejaVuSans-30"/>
       <use x="127.246094" xlink:href="#DejaVuSans-30"/>
      </g>
     </g>
    </g>
    <g id="xtick_6">
     <g id="line2d_6">
      <g>
       <use style="stroke:#000000;stroke-width:0.8;" x="293.051426" xlink:href="#m757a7ce652" y="307.584"/>
      </g>
     </g>
     <g id="text_6">
      <!-- 500 -->
      <g transform="translate(283.507676 322.182437)scale(0.1 -0.1)">
       <defs>
        <path d="M 691 4666 
L 3169 4666 
L 3169 4134 
L 1269 4134 
L 1269 2991 
Q 1406 3038 1543 3061 
Q 1681 3084 1819 3084 
Q 2600 3084 3056 2656 
Q 3513 2228 3513 1497 
Q 3513 744 3044 326 
Q 2575 -91 1722 -91 
Q 1428 -91 1123 -41 
Q 819 9 494 109 
L 494 744 
Q 775 591 1075 516 
Q 1375 441 1709 441 
Q 2250 441 2565 725 
Q 2881 1009 2881 1497 
Q 2881 1984 2565 2268 
Q 2250 2553 1709 2553 
Q 1456 2553 1204 2497 
Q 953 2441 691 2322 
L 691 4666 
z
" id="DejaVuSans-35" transform="scale(0.015625)"/>
       </defs>
       <use xlink:href="#DejaVuSans-35"/>
       <use x="63.623047" xlink:href="#DejaVuSans-30"/>
       <use x="127.246094" xlink:href="#DejaVuSans-30"/>
      </g>
     </g>
    </g>
    <g id="xtick_7">
     <g id="line2d_7">
      <g>
       <use style="stroke:#000000;stroke-width:0.8;" x="336.983029" xlink:href="#m757a7ce652" y="307.584"/>
      </g>
     </g>
     <g id="text_7">
      <!-- 600 -->
      <g transform="translate(327.439279 322.182437)scale(0.1 -0.1)">
       <defs>
        <path d="M 2113 2584 
Q 1688 2584 1439 2293 
Q 1191 2003 1191 1497 
Q 1191 994 1439 701 
Q 1688 409 2113 409 
Q 2538 409 2786 701 
Q 3034 994 3034 1497 
Q 3034 2003 2786 2293 
Q 2538 2584 2113 2584 
z
M 3366 4563 
L 3366 3988 
Q 3128 4100 2886 4159 
Q 2644 4219 2406 4219 
Q 1781 4219 1451 3797 
Q 1122 3375 1075 2522 
Q 1259 2794 1537 2939 
Q 1816 3084 2150 3084 
Q 2853 3084 3261 2657 
Q 3669 2231 3669 1497 
Q 3669 778 3244 343 
Q 2819 -91 2113 -91 
Q 1303 -91 875 529 
Q 447 1150 447 2328 
Q 447 3434 972 4092 
Q 1497 4750 2381 4750 
Q 2619 4750 2861 4703 
Q 3103 4656 3366 4563 
z
" id="DejaVuSans-36" transform="scale(0.015625)"/>
       </defs>
       <use xlink:href="#DejaVuSans-36"/>
       <use x="63.623047" xlink:href="#DejaVuSans-30"/>
       <use x="127.246094" xlink:href="#DejaVuSans-30"/>
      </g>
     </g>
    </g>
    <g id="xtick_8">
     <g id="line2d_8">
      <g>
       <use style="stroke:#000000;stroke-width:0.8;" x="380.914632" xlink:href="#m757a7ce652" y="307.584"/>
      </g>
     </g>
     <g id="text_8">
      <!-- 700 -->
      <g transform="translate(371.370882 322.182437)scale(0.1 -0.1)">
       <defs>
        <path d="M 525 4666 
L 3525 4666 
L 3525 4397 
L 1831 0 
L 1172 0 
L 2766 4134 
L 525 4134 
L 525 4666 
z
" id="DejaVuSans-37" transform="scale(0.015625)"/>
       </defs>
       <use xlink:href="#DejaVuSans-37"/>
       <use x="63.623047" xlink:href="#DejaVuSans-30"/>
       <use x="127.246094" xlink:href="#DejaVuSans-30"/>
      </g>
     </g>
    </g>
    <g id="text_9">
     <!-- Epoch -->
     <g transform="translate(213.193594 339.659781)scale(0.15 -0.15)">
      <defs>
       <path d="M 628 4666 
L 3578 4666 
L 3578 4134 
L 1259 4134 
L 1259 2753 
L 3481 2753 
L 3481 2222 
L 1259 2222 
L 1259 531 
L 3634 531 
L 3634 0 
L 628 0 
L 628 4666 
z
" id="DejaVuSans-45" transform="scale(0.015625)"/>
       <path d="M 1159 525 
L 1159 -1331 
L 581 -1331 
L 581 3500 
L 1159 3500 
L 1159 2969 
Q 1341 3281 1617 3432 
Q 1894 3584 2278 3584 
Q 2916 3584 3314 3078 
Q 3713 2572 3713 1747 
Q 3713 922 3314 415 
Q 2916 -91 2278 -91 
Q 1894 -91 1617 61 
Q 1341 213 1159 525 
z
M 3116 1747 
Q 3116 2381 2855 2742 
Q 2594 3103 2138 3103 
Q 1681 3103 1420 2742 
Q 1159 2381 1159 1747 
Q 1159 1113 1420 752 
Q 1681 391 2138 391 
Q 2594 391 2855 752 
Q 3116 1113 3116 1747 
z
" id="DejaVuSans-70" transform="scale(0.015625)"/>
       <path d="M 1959 3097 
Q 1497 3097 1228 2736 
Q 959 2375 959 1747 
Q 959 1119 1226 758 
Q 1494 397 1959 397 
Q 2419 397 2687 759 
Q 2956 1122 2956 1747 
Q 2956 2369 2687 2733 
Q 2419 3097 1959 3097 
z
M 1959 3584 
Q 2709 3584 3137 3096 
Q 3566 2609 3566 1747 
Q 3566 888 3137 398 
Q 2709 -91 1959 -91 
Q 1206 -91 779 398 
Q 353 888 353 1747 
Q 353 2609 779 3096 
Q 1206 3584 1959 3584 
z
" id="DejaVuSans-6f" transform="scale(0.015625)"/>
       <path d="M 3122 3366 
L 3122 2828 
Q 2878 2963 2633 3030 
Q 2388 3097 2138 3097 
Q 1578 3097 1268 2742 
Q 959 2388 959 1747 
Q 959 1106 1268 751 
Q 1578 397 2138 397 
Q 2388 397 2633 464 
Q 2878 531 3122 666 
L 3122 134 
Q 2881 22 2623 -34 
Q 2366 -91 2075 -91 
Q 1284 -91 818 406 
Q 353 903 353 1747 
Q 353 2603 823 3093 
Q 1294 3584 2113 3584 
Q 2378 3584 2631 3529 
Q 2884 3475 3122 3366 
z
" id="DejaVuSans-63" transform="scale(0.015625)"/>
       <path d="M 3513 2113 
L 3513 0 
L 2938 0 
L 2938 2094 
Q 2938 2591 2744 2837 
Q 2550 3084 2163 3084 
Q 1697 3084 1428 2787 
Q 1159 2491 1159 1978 
L 1159 0 
L 581 0 
L 581 4863 
L 1159 4863 
L 1159 2956 
Q 1366 3272 1645 3428 
Q 1925 3584 2291 3584 
Q 2894 3584 3203 3211 
Q 3513 2838 3513 2113 
z
" id="DejaVuSans-68" transform="scale(0.015625)"/>
      </defs>
      <use xlink:href="#DejaVuSans-45"/>
      <use x="63.183594" xlink:href="#DejaVuSans-70"/>
      <use x="126.660156" xlink:href="#DejaVuSans-6f"/>
      <use x="187.841797" xlink:href="#DejaVuSans-63"/>
      <use x="242.822266" xlink:href="#DejaVuSans-68"/>
     </g>
    </g>
   </g>
   <g id="matplotlib.axis_2">
    <g id="ytick_1">
     <g id="line2d_9">
      <defs>
       <path d="M 0 0 
L -3.5 0 
" id="m0003e67397" style="stroke:#000000;stroke-width:0.8;"/>
      </defs>
      <g>
       <use style="stroke:#000000;stroke-width:0.8;" x="57.6" xlink:href="#m0003e67397" y="273.56512"/>
      </g>
     </g>
     <g id="text_10">
      <!-- −0.25 -->
      <g transform="translate(19.954687 277.364339)scale(0.1 -0.1)">
       <defs>
        <path d="M 678 2272 
L 4684 2272 
L 4684 1741 
L 678 1741 
L 678 2272 
z
" id="DejaVuSans-2212" transform="scale(0.015625)"/>
        <path d="M 684 794 
L 1344 794 
L 1344 0 
L 684 0 
L 684 794 
z
" id="DejaVuSans-2e" transform="scale(0.015625)"/>
       </defs>
       <use xlink:href="#DejaVuSans-2212"/>
       <use x="83.789062" xlink:href="#DejaVuSans-30"/>
       <use x="147.412109" xlink:href="#DejaVuSans-2e"/>
       <use x="179.199219" xlink:href="#DejaVuSans-32"/>
       <use x="242.822266" xlink:href="#DejaVuSans-35"/>
      </g>
     </g>
    </g>
    <g id="ytick_2">
     <g id="line2d_10">
      <g>
       <use style="stroke:#000000;stroke-width:0.8;" x="57.6" xlink:href="#m0003e67397" y="229.568659"/>
      </g>
     </g>
     <g id="text_11">
      <!-- −0.20 -->
      <g transform="translate(19.954687 233.367878)scale(0.1 -0.1)">
       <use xlink:href="#DejaVuSans-2212"/>
       <use x="83.789062" xlink:href="#DejaVuSans-30"/>
       <use x="147.412109" xlink:href="#DejaVuSans-2e"/>
       <use x="179.199219" xlink:href="#DejaVuSans-32"/>
       <use x="242.822266" xlink:href="#DejaVuSans-30"/>
      </g>
     </g>
    </g>
    <g id="ytick_3">
     <g id="line2d_11">
      <g>
       <use style="stroke:#000000;stroke-width:0.8;" x="57.6" xlink:href="#m0003e67397" y="185.572198"/>
      </g>
     </g>
     <g id="text_12">
      <!-- −0.15 -->
      <g transform="translate(19.954687 189.371417)scale(0.1 -0.1)">
       <use xlink:href="#DejaVuSans-2212"/>
       <use x="83.789062" xlink:href="#DejaVuSans-30"/>
       <use x="147.412109" xlink:href="#DejaVuSans-2e"/>
       <use x="179.199219" xlink:href="#DejaVuSans-31"/>
       <use x="242.822266" xlink:href="#DejaVuSans-35"/>
      </g>
     </g>
    </g>
    <g id="ytick_4">
     <g id="line2d_12">
      <g>
       <use style="stroke:#000000;stroke-width:0.8;" x="57.6" xlink:href="#m0003e67397" y="141.575738"/>
      </g>
     </g>
     <g id="text_13">
      <!-- −0.10 -->
      <g transform="translate(19.954687 145.374956)scale(0.1 -0.1)">
       <use xlink:href="#DejaVuSans-2212"/>
       <use x="83.789062" xlink:href="#DejaVuSans-30"/>
       <use x="147.412109" xlink:href="#DejaVuSans-2e"/>
       <use x="179.199219" xlink:href="#DejaVuSans-31"/>
       <use x="242.822266" xlink:href="#DejaVuSans-30"/>
      </g>
     </g>
    </g>
    <g id="ytick_5">
     <g id="line2d_13">
      <g>
       <use style="stroke:#000000;stroke-width:0.8;" x="57.6" xlink:href="#m0003e67397" y="97.579277"/>
      </g>
     </g>
     <g id="text_14">
      <!-- −0.05 -->
      <g transform="translate(19.954687 101.378496)scale(0.1 -0.1)">
       <use xlink:href="#DejaVuSans-2212"/>
       <use x="83.789062" xlink:href="#DejaVuSans-30"/>
       <use x="147.412109" xlink:href="#DejaVuSans-2e"/>
       <use x="179.199219" xlink:href="#DejaVuSans-30"/>
       <use x="242.822266" xlink:href="#DejaVuSans-35"/>
      </g>
     </g>
    </g>
    <g id="ytick_6">
     <g id="line2d_14">
      <g>
       <use style="stroke:#000000;stroke-width:0.8;" x="57.6" xlink:href="#m0003e67397" y="53.582816"/>
      </g>
     </g>
     <g id="text_15">
      <!-- 0.00 -->
      <g transform="translate(28.334375 57.382035)scale(0.1 -0.1)">
       <use xlink:href="#DejaVuSans-30"/>
       <use x="63.623047" xlink:href="#DejaVuSans-2e"/>
       <use x="95.410156" xlink:href="#DejaVuSans-30"/>
       <use x="159.033203" xlink:href="#DejaVuSans-30"/>
      </g>
     </g>
    </g>
   </g>
   <g id="line2d_15">
    <path clip-path="url(#pdeeda5a93c)" d="M 73.832727 53.568 
L 76.907939 53.583823 
L 78.225888 53.607973 
L 78.665204 53.741854 
L 79.10452 54.292777 
L 79.543836 55.995984 
L 80.861784 85.218296 
L 81.3011 86.664223 
L 81.740416 93.190501 
L 82.179732 94.244368 
L 82.619048 96.29948 
L 83.058364 104.865403 
L 83.49768 104.028693 
L 83.936996 110.676382 
L 84.376312 108.424781 
L 84.815628 112.98619 
L 85.254944 121.163475 
L 85.69426 127.261095 
L 86.133576 117.378539 
L 86.572892 123.084634 
L 87.012208 126.36839 
L 87.451524 137.157661 
L 87.89084 138.580409 
L 88.330156 140.4315 
L 88.769472 140.694797 
L 89.208788 151.395664 
L 89.648104 147.905931 
L 90.08742 146.986993 
L 90.526736 150.472294 
L 91.405368 159.439618 
L 91.844684 161.482379 
L 92.284 167.264975 
L 92.723317 169.967766 
L 93.162633 178.126453 
L 93.601949 173.412572 
L 94.041265 176.738864 
L 94.480581 175.331026 
L 94.919897 176.877402 
L 95.359213 177.011649 
L 95.798529 178.695078 
L 96.237845 181.092234 
L 96.677161 187.532965 
L 97.116477 184.530134 
L 97.555793 189.131686 
L 97.995109 184.995744 
L 98.434425 192.450146 
L 98.873741 196.918878 
L 99.313057 191.550936 
L 99.752373 193.907052 
L 100.191689 202.751731 
L 100.631005 196.084385 
L 101.070321 198.262319 
L 101.509637 196.401111 
L 101.948953 202.178406 
L 102.388269 202.060525 
L 102.827585 204.196224 
L 103.266901 207.193469 
L 103.706217 208.536228 
L 104.145533 209.147432 
L 104.584849 208.25661 
L 105.024165 202.323388 
L 105.463481 206.34626 
L 105.902797 206.428534 
L 106.342113 207.184637 
L 106.781429 212.455758 
L 107.220745 212.908884 
L 107.660062 212.458405 
L 108.099378 216.901748 
L 108.538694 213.454019 
L 108.97801 211.966269 
L 109.417326 218.931856 
L 109.856642 221.639591 
L 110.295958 217.87672 
L 110.735274 224.080981 
L 111.17459 224.91297 
L 111.613906 220.386283 
L 112.053222 222.524989 
L 112.492538 219.394376 
L 112.931854 223.292144 
L 113.37117 224.393471 
L 114.249802 218.978224 
L 114.689118 225.569811 
L 115.128434 224.377584 
L 115.56775 225.757726 
L 116.007066 223.405645 
L 116.446382 225.096926 
L 117.325014 220.226672 
L 117.76433 227.261102 
L 118.203646 222.911155 
L 118.642962 235.556938 
L 119.082278 235.668293 
L 119.521594 242.435482 
L 119.96091 237.432015 
L 120.400226 241.507024 
L 120.839542 240.549515 
L 121.278858 242.873476 
L 121.718174 236.908719 
L 122.15749 234.450761 
L 122.596806 243.121936 
L 123.036123 240.897264 
L 123.475439 244.898947 
L 124.354071 241.33017 
L 124.793387 238.486156 
L 125.232703 234.035479 
L 125.672019 245.691992 
L 126.111335 238.535811 
L 126.550651 243.507915 
L 126.989967 250.936078 
L 127.429283 251.486272 
L 127.868599 243.878859 
L 128.307915 241.600719 
L 128.747231 245.304229 
L 129.186547 251.888301 
L 129.625863 244.788648 
L 130.065179 251.621204 
L 130.504495 247.499459 
L 130.943811 252.842106 
L 131.383127 251.538058 
L 132.261759 252.342032 
L 132.701075 251.728981 
L 133.140391 256.221883 
L 133.579707 252.98981 
L 134.019023 256.607381 
L 134.458339 252.852916 
L 135.336971 237.864764 
L 135.776287 237.293091 
L 136.215603 252.981957 
L 136.654919 242.405176 
L 137.094235 252.828499 
L 137.533551 254.228742 
L 137.972868 251.392894 
L 138.412184 255.582008 
L 138.8515 252.601462 
L 139.290816 247.236059 
L 139.730132 250.57546 
L 140.169448 250.085046 
L 140.608764 255.702308 
L 141.04808 253.813871 
L 141.487396 246.030814 
L 141.926712 243.810803 
L 142.366028 251.887993 
L 143.24466 259.42427 
L 143.683976 261.339696 
L 144.123292 267.157401 
L 144.562608 263.000397 
L 145.001924 248.575691 
L 145.44124 265.222195 
L 145.880556 260.025685 
L 146.319872 265.068388 
L 146.759188 260.493648 
L 147.198504 260.720513 
L 147.63782 257.345829 
L 148.077136 262.612834 
L 148.516452 263.511178 
L 148.955768 259.68368 
L 149.395084 265.308154 
L 149.8344 257.465426 
L 150.273716 252.576689 
L 150.713032 250.143821 
L 151.152348 249.866993 
L 152.03098 253.603622 
L 152.470296 260.23356 
L 152.909612 253.159143 
L 153.348929 262.866284 
L 153.788245 258.52768 
L 154.227561 258.286115 
L 154.666877 259.938591 
L 155.106193 259.098873 
L 155.545509 252.818526 
L 155.984825 263.595998 
L 156.424141 260.266576 
L 156.863457 253.144597 
L 157.742089 264.139328 
L 158.181405 253.555227 
L 158.620721 258.97583 
L 159.060037 253.403117 
L 159.499353 265.137578 
L 159.938669 256.669393 
L 160.817301 255.478351 
L 161.256617 257.989169 
L 161.695933 257.27545 
L 162.135249 261.472339 
L 162.574565 260.936058 
L 163.013881 245.266538 
L 163.453197 250.009774 
L 163.892513 260.354858 
L 164.331829 251.073265 
L 164.771145 260.507821 
L 165.210461 260.547162 
L 165.649777 262.685825 
L 166.089093 257.201705 
L 166.528409 260.402079 
L 166.967725 257.937669 
L 167.846357 261.297551 
L 168.285674 252.15905 
L 168.72499 266.614979 
L 169.164306 263.437521 
L 169.603622 265.659069 
L 170.042938 261.265636 
L 170.482254 264.242966 
L 170.92157 263.481867 
L 171.360886 261.358591 
L 171.800202 264.283187 
L 172.678834 249.756756 
L 173.11815 252.842245 
L 173.557466 263.692714 
L 173.996782 263.986788 
L 174.436098 267.318739 
L 174.875414 264.011442 
L 175.31473 261.607663 
L 175.754046 263.567786 
L 176.193362 263.442285 
L 176.632678 266.368941 
L 177.071994 260.789104 
L 177.51131 267.537658 
L 178.389942 259.321787 
L 178.829258 264.772498 
L 179.268574 255.94496 
L 179.70789 264.613077 
L 180.586522 259.841297 
L 181.025838 264.900111 
L 181.465154 264.334414 
L 181.90447 259.48973 
L 182.343786 267.751379 
L 182.783102 263.576605 
L 183.222419 263.541758 
L 183.661735 264.339952 
L 184.101051 261.90374 
L 184.540367 269.245735 
L 184.979683 264.613253 
L 185.418999 258.026087 
L 185.858315 264.670582 
L 186.297631 268.0824 
L 187.176263 251.862794 
L 187.615579 263.925755 
L 188.054895 254.04708 
L 188.494211 256.165792 
L 188.933527 269.833243 
L 189.372843 260.770797 
L 189.812159 267.331272 
L 190.251475 259.763264 
L 190.690791 266.023931 
L 191.130107 258.94932 
L 191.569423 247.166791 
L 192.008739 255.775684 
L 192.448055 256.973312 
L 192.887371 256.294655 
L 193.326687 264.721141 
L 193.766003 266.227123 
L 194.205319 269.040078 
L 194.644635 274.171678 
L 195.083951 261.435908 
L 195.523267 265.194922 
L 195.962583 263.577904 
L 196.401899 253.506252 
L 197.280531 250.110272 
L 197.719847 260.36024 
L 198.159163 266.97957 
L 198.59848 267.168143 
L 199.037796 256.534758 
L 199.477112 268.643202 
L 199.916428 260.865155 
L 200.355744 266.4284 
L 200.79506 260.098274 
L 201.234376 260.178143 
L 201.673692 267.76108 
L 202.113008 257.844402 
L 202.552324 260.480198 
L 202.99164 263.978265 
L 203.430956 249.638983 
L 203.870272 260.887766 
L 204.309588 262.411213 
L 204.748904 258.946938 
L 205.18822 253.443992 
L 205.627536 254.067428 
L 206.066852 257.985282 
L 206.506168 260.340954 
L 206.945484 256.233777 
L 207.3848 268.533383 
L 207.824116 265.883857 
L 208.263432 267.508186 
L 208.702748 268.048385 
L 209.142064 256.55896 
L 210.020696 268.810448 
L 210.460012 261.936043 
L 210.899328 259.934771 
L 211.338644 262.52197 
L 211.77796 266.162177 
L 212.217276 265.743874 
L 212.656592 264.90919 
L 213.095908 269.980458 
L 213.535225 260.716656 
L 213.974541 261.955299 
L 214.413857 255.934482 
L 214.853173 268.02249 
L 215.292489 256.442649 
L 215.731805 268.890075 
L 216.171121 244.787272 
L 216.610437 256.884669 
L 217.049753 258.272224 
L 217.489069 269.695865 
L 217.928385 263.614248 
L 218.367701 259.881266 
L 218.807017 270.58788 
L 219.246333 252.836258 
L 219.685649 256.110762 
L 220.124965 266.644446 
L 220.564281 259.686894 
L 221.003597 246.568072 
L 221.442913 251.830472 
L 221.882229 259.709453 
L 222.321545 261.388438 
L 222.760861 267.672287 
L 223.200177 266.695315 
L 223.639493 270.346939 
L 224.078809 261.08288 
L 224.518125 258.102559 
L 224.957441 266.30932 
L 225.396757 266.256953 
L 225.836073 241.700911 
L 226.275389 247.472899 
L 226.714705 256.018684 
L 227.593337 262.863103 
L 228.032653 257.785462 
L 228.471969 266.863084 
L 228.911286 263.154026 
L 229.350602 266.161182 
L 229.789918 265.818494 
L 230.229234 265.038152 
L 230.66855 259.003213 
L 231.107866 269.799941 
L 231.547182 264.443203 
L 231.986498 266.276362 
L 232.425814 261.729171 
L 232.86513 268.943353 
L 233.304446 259.398209 
L 233.743762 261.089818 
L 234.183078 267.112308 
L 234.622394 265.013192 
L 235.06171 266.300021 
L 235.501026 259.528608 
L 235.940342 257.448304 
L 236.379658 265.365215 
L 236.818974 261.864996 
L 237.25829 271.395787 
L 237.697606 265.373638 
L 238.136922 270.755018 
L 239.015554 255.934182 
L 239.45487 270.075823 
L 239.894186 264.636165 
L 240.333502 256.299824 
L 240.772818 261.038832 
L 241.212134 260.533619 
L 241.65145 257.918258 
L 242.090766 268.018871 
L 242.530082 259.188545 
L 242.969398 269.416889 
L 243.848031 260.961464 
L 244.287347 262.134522 
L 244.726663 251.65891 
L 245.605295 253.154504 
L 246.044611 263.705635 
L 246.483927 256.165001 
L 246.923243 257.849739 
L 247.362559 255.800826 
L 247.801875 256.946252 
L 248.241191 268.282542 
L 248.680507 262.618306 
L 249.119823 273.57162 
L 249.559139 266.269585 
L 249.998455 255.554833 
L 250.437771 252.92223 
L 250.877087 259.517338 
L 251.316403 263.527986 
L 251.755719 269.919625 
L 252.195035 266.162896 
L 252.634351 252.302393 
L 253.073667 256.192894 
L 253.512983 255.058838 
L 253.952299 263.091456 
L 254.391615 254.569686 
L 254.830931 251.349544 
L 255.270247 255.377029 
L 256.148879 251.287339 
L 256.588195 270.093007 
L 257.027511 258.701588 
L 257.466827 273.890971 
L 257.906143 263.012632 
L 258.345459 264.037926 
L 258.784775 262.673973 
L 259.224092 273.584957 
L 259.663408 261.63055 
L 260.102724 266.384522 
L 260.981356 260.139347 
L 261.420672 267.092433 
L 261.859988 254.835001 
L 262.299304 256.399315 
L 262.73862 273.787024 
L 263.177936 253.582682 
L 263.617252 260.579196 
L 264.056568 273.131921 
L 264.495884 265.711254 
L 264.9352 264.193925 
L 265.374516 245.925262 
L 266.253148 263.604936 
L 266.692464 266.31215 
L 267.13178 267.730834 
L 267.571096 267.399222 
L 268.010412 268.555684 
L 268.449728 265.582754 
L 268.889044 263.530955 
L 269.32836 264.729862 
L 269.767676 257.520729 
L 270.206992 263.855294 
L 270.646308 265.093491 
L 271.085624 260.941602 
L 271.52494 254.700186 
L 271.964256 255.884686 
L 272.403572 259.399336 
L 272.842888 258.444969 
L 273.282204 261.079172 
L 273.72152 259.065762 
L 274.160837 272.403499 
L 274.600153 257.885216 
L 275.039469 260.081225 
L 275.478785 254.828335 
L 275.918101 258.4668 
L 276.357417 258.296867 
L 276.796733 251.790587 
L 277.236049 267.371233 
L 277.675365 262.353935 
L 278.114681 267.975871 
L 278.553997 262.483319 
L 278.993313 245.61027 
L 279.432629 261.334967 
L 279.871945 266.721457 
L 280.311261 266.022184 
L 280.750577 264.761865 
L 281.189893 261.399071 
L 281.629209 260.45328 
L 282.068525 259.048973 
L 282.507841 255.18072 
L 282.947157 263.013349 
L 283.825789 267.231248 
L 284.265105 240.537623 
L 284.704421 260.798912 
L 285.143737 270.087511 
L 285.583053 255.403602 
L 286.022369 258.983444 
L 286.461685 259.370475 
L 286.901001 256.369359 
L 287.340317 263.362276 
L 287.779633 263.365539 
L 288.218949 263.932567 
L 288.658265 264.205549 
L 289.097581 264.244665 
L 289.536898 260.920827 
L 289.976214 246.586729 
L 290.854846 264.999909 
L 291.294162 260.286289 
L 291.733478 260.096401 
L 292.172794 255.992349 
L 292.61211 260.985079 
L 293.051426 264.688424 
L 293.490742 269.516472 
L 293.930058 256.595081 
L 294.369374 262.619684 
L 294.80869 265.496961 
L 295.248006 254.250921 
L 295.687322 261.845252 
L 296.126638 260.951578 
L 296.565954 248.331042 
L 297.444586 266.207014 
L 297.883902 250.889362 
L 298.323218 263.799546 
L 298.762534 271.029164 
L 299.20185 271.467623 
L 299.641166 254.618736 
L 300.080482 232.231067 
L 300.959114 252.721908 
L 301.39843 254.658957 
L 301.837746 255.430478 
L 302.277062 264.230545 
L 302.716378 258.849229 
L 303.155694 250.388159 
L 303.59501 259.625605 
L 304.034326 258.30206 
L 304.473643 218.089603 
L 304.912959 101.255745 
L 305.352275 115.953423 
L 305.791591 167.950632 
L 306.230907 239.637211 
L 306.670223 255.87502 
L 307.109539 263.509229 
L 307.548855 251.819942 
L 307.988171 255.104034 
L 308.427487 253.083344 
L 308.866803 249.827357 
L 309.306119 237.307542 
L 309.745435 250.410042 
L 310.184751 258.463048 
L 311.063383 252.49974 
L 311.502699 259.848813 
L 311.942015 250.018739 
L 312.381331 250.886502 
L 312.820647 255.907471 
L 313.259963 249.125186 
L 313.699279 256.703622 
L 314.138595 238.905399 
L 314.577911 231.446509 
L 315.017227 252.4171 
L 315.456543 259.080418 
L 315.895859 254.26528 
L 316.335175 255.402266 
L 316.774491 252.59711 
L 317.213807 258.335066 
L 317.653123 268.028995 
L 318.092439 266.224915 
L 318.531755 262.132866 
L 318.971071 250.99017 
L 319.410388 263.083848 
L 319.849704 264.634625 
L 320.728336 244.162264 
L 321.167652 252.976687 
L 321.606968 252.216014 
L 322.046284 262.934325 
L 322.4856 256.558739 
L 322.924916 259.279642 
L 323.364232 257.676047 
L 323.803548 264.413317 
L 324.242864 264.713024 
L 324.68218 256.501176 
L 325.560812 261.846037 
L 326.439444 269.793268 
L 326.87876 261.143508 
L 327.318076 260.466387 
L 327.757392 263.618765 
L 328.196708 259.40266 
L 328.636024 252.815239 
L 329.07534 255.933403 
L 329.514656 257.226225 
L 329.953972 256.251585 
L 330.393288 251.833955 
L 330.832604 260.485236 
L 331.27192 253.812864 
L 331.711236 245.414021 
L 332.150552 249.581824 
L 332.589868 248.283658 
L 333.029184 254.973353 
L 333.4685 257.338504 
L 334.347132 244.004752 
L 334.786449 259.018387 
L 335.225765 268.899562 
L 335.665081 254.771789 
L 336.104397 257.235891 
L 336.543713 246.676277 
L 336.983029 253.777722 
L 337.422345 258.693248 
L 337.861661 259.658352 
L 338.300977 247.20886 
L 338.740293 240.423165 
L 339.179609 254.090411 
L 339.618925 262.664289 
L 340.058241 264.650687 
L 340.497557 252.902943 
L 340.936873 254.964799 
L 341.376189 250.785278 
L 341.815505 268.903327 
L 342.254821 262.590052 
L 342.694137 259.492032 
L 343.133453 259.440457 
L 343.572769 251.549627 
L 344.012085 250.85445 
L 344.451401 256.641405 
L 344.890717 252.317819 
L 345.330033 255.713106 
L 345.769349 259.994102 
L 346.208665 258.258427 
L 346.647981 251.285868 
L 347.087297 252.890857 
L 347.526613 262.862113 
L 347.965929 263.40477 
L 348.405245 244.934026 
L 348.844561 239.18396 
L 349.283877 257.10568 
L 349.723194 256.67553 
L 350.16251 251.652625 
L 350.601826 262.825929 
L 351.041142 261.908101 
L 351.480458 250.125707 
L 351.919774 254.847922 
L 352.35909 250.477185 
L 352.798406 252.144612 
L 353.237722 256.55092 
L 353.677038 239.947647 
L 354.116354 253.93447 
L 354.55567 263.617632 
L 355.434302 244.509038 
L 355.873618 255.886346 
L 356.312934 259.36346 
L 356.75225 254.89605 
L 357.191566 243.919195 
L 357.630882 262.223078 
L 358.509514 253.842323 
L 358.94883 259.549506 
L 359.388146 260.25539 
L 359.827462 265.912575 
L 360.266778 261.640349 
L 360.706094 244.809253 
L 361.14541 244.268047 
L 361.584726 257.218247 
L 362.024042 262.576569 
L 362.463358 259.124198 
L 362.902674 258.827184 
L 363.34199 272.797904 
L 363.781306 174.866512 
L 364.220622 200.037933 
L 364.659938 246.365028 
L 365.099255 265.18242 
L 365.538571 260.452206 
L 365.977887 260.004655 
L 366.417203 263.155511 
L 366.856519 258.589191 
L 367.295835 252.308496 
L 367.735151 254.321298 
L 368.174467 265.248828 
L 368.613783 265.646376 
L 369.053099 263.416412 
L 369.492415 260.005106 
L 369.931731 260.136069 
L 370.371047 246.864505 
L 370.810363 249.384592 
L 371.249679 265.768913 
L 371.688995 250.136281 
L 372.128311 263.806123 
L 372.567627 260.442789 
L 373.006943 260.19481 
L 373.446259 269.326712 
L 373.885575 261.522854 
L 374.324891 238.11226 
L 374.764207 256.670448 
L 375.203523 254.873137 
L 375.642839 262.327201 
L 376.082155 257.460817 
L 376.521471 266.058879 
L 376.960787 265.2698 
L 377.400103 252.528027 
L 377.839419 252.474963 
L 378.278735 261.879908 
L 378.718051 261.842506 
L 379.157367 235.997785 
L 379.596683 240.223231 
L 380.036 247.703933 
L 380.475316 250.888258 
L 380.914632 260.537987 
L 381.353948 260.906617 
L 381.793264 258.132814 
L 382.23258 256.116871 
L 382.671896 259.377249 
L 383.550528 246.120056 
L 383.989844 261.031701 
L 384.42916 246.736479 
L 384.868476 249.057748 
L 385.307792 257.084788 
L 385.747108 254.518766 
L 386.186424 258.074878 
L 386.62574 257.237977 
L 387.065056 258.807523 
L 387.504372 221.398596 
L 387.943688 245.041525 
L 388.383004 258.386261 
L 388.82232 247.73694 
L 389.261636 266.594392 
L 389.700952 263.960774 
L 390.140268 257.190284 
L 390.579584 258.38605 
L 391.0189 260.509152 
L 391.458216 258.068782 
L 391.897532 256.64809 
L 392.336848 246.523345 
L 392.776164 244.678783 
L 393.21548 243.510336 
L 393.654796 251.083599 
L 394.533428 256.060086 
L 394.972744 249.412848 
L 395.412061 249.546569 
L 395.851377 258.535375 
L 396.290693 260.156943 
L 396.730009 230.00517 
L 397.169325 244.97808 
L 398.047957 264.893053 
L 398.487273 261.988377 
L 398.487273 261.988377 
" style="fill:none;stroke:#1f77b4;stroke-linecap:square;stroke-width:1.5;"/>
   </g>
   <g id="line2d_16">
    <path clip-path="url(#pdeeda5a93c)" d="M 73.832727 53.581765 
L 78.225888 53.700428 
L 78.665204 53.860594 
L 79.10452 54.432802 
L 79.983152 67.276377 
L 80.422468 80.789745 
L 80.861784 82.272684 
L 81.3011 88.258034 
L 81.740416 97.160754 
L 82.179732 94.984089 
L 82.619048 96.479864 
L 83.058364 96.418717 
L 83.49768 108.748642 
L 83.936996 102.769294 
L 84.376312 104.57441 
L 84.815628 122.202124 
L 85.254944 108.666902 
L 85.69426 122.321893 
L 86.133576 105.031235 
L 86.572892 126.592285 
L 87.012208 130.252037 
L 87.451524 131.382811 
L 87.89084 135.459409 
L 88.330156 127.08868 
L 88.769472 145.775097 
L 89.208788 152.976058 
L 89.648104 148.982356 
L 90.08742 159.805533 
L 90.526736 155.607649 
L 90.966052 163.697712 
L 91.405368 162.699488 
L 91.844684 173.811701 
L 92.284 175.970403 
L 92.723317 175.595308 
L 93.162633 180.361954 
L 93.601949 167.53604 
L 94.041265 166.029192 
L 94.480581 172.089108 
L 94.919897 182.556889 
L 95.359213 171.415742 
L 96.237845 197.151962 
L 96.677161 174.482515 
L 97.116477 196.404999 
L 97.555793 179.588573 
L 97.995109 191.709807 
L 98.434425 191.053188 
L 98.873741 197.447853 
L 99.313057 186.494768 
L 99.752373 192.929514 
L 100.191689 196.45628 
L 100.631005 209.929222 
L 101.070321 204.486815 
L 101.509637 209.932668 
L 101.948953 203.939356 
L 102.388269 200.566958 
L 102.827585 205.746685 
L 103.266901 189.709936 
L 103.706217 205.428654 
L 104.145533 190.939919 
L 104.584849 204.570656 
L 105.024165 213.354797 
L 105.463481 199.654379 
L 106.342113 217.038959 
L 106.781429 210.609906 
L 107.220745 212.379942 
L 107.660062 229.159529 
L 108.099378 204.830905 
L 108.538694 217.641397 
L 108.97801 218.325109 
L 109.417326 215.403447 
L 109.856642 209.253486 
L 110.295958 225.375248 
L 110.735274 225.984888 
L 111.17459 217.762318 
L 111.613906 226.139521 
L 112.053222 205.058512 
L 112.492538 214.604386 
L 112.931854 214.713231 
L 113.37117 242.99827 
L 113.810486 225.108162 
L 114.249802 222.793144 
L 114.689118 225.435034 
L 115.128434 218.812792 
L 115.56775 230.385096 
L 116.007066 216.47274 
L 116.446382 217.996231 
L 117.325014 232.794788 
L 117.76433 209.446781 
L 118.203646 232.743525 
L 118.642962 234.904467 
L 119.082278 233.470755 
L 119.521594 231.137846 
L 119.96091 255.054617 
L 120.400226 242.386493 
L 120.839542 233.68769 
L 121.278858 239.655476 
L 121.718174 216.146306 
L 122.15749 245.420909 
L 122.596806 242.550582 
L 123.036123 223.521329 
L 123.914755 256.584499 
L 124.793387 244.61982 
L 125.232703 245.218488 
L 125.672019 230.712029 
L 126.111335 244.166007 
L 126.550651 254.117533 
L 126.989967 246.416875 
L 127.429283 229.115004 
L 127.868599 237.661363 
L 128.307915 231.536592 
L 128.747231 244.588341 
L 129.186547 250.163408 
L 129.625863 252.45472 
L 130.065179 264.004304 
L 130.504495 244.423616 
L 130.943811 237.75579 
L 131.383127 253.830427 
L 131.822443 258.92753 
L 132.261759 268.093077 
L 132.701075 240.745387 
L 133.140391 263.029664 
L 133.579707 246.40473 
L 134.019023 250.648447 
L 134.458339 239.566653 
L 134.897655 261.464119 
L 135.776287 225.281439 
L 136.215603 238.590989 
L 136.654919 261.31905 
L 137.094235 277.968043 
L 137.533551 256.957712 
L 137.972868 255.430844 
L 138.412184 240.55544 
L 138.8515 215.801019 
L 139.290816 253.324232 
L 139.730132 258.134056 
L 140.169448 264.613039 
L 140.608764 247.423704 
L 141.04808 265.660379 
L 141.487396 277.594731 
L 141.926712 256.518229 
L 142.366028 252.670256 
L 142.805344 280.637466 
L 143.24466 252.046166 
L 143.683976 269.016932 
L 144.123292 267.763319 
L 144.562608 263.869161 
L 145.001924 249.558405 
L 145.44124 261.755466 
L 145.880556 247.87796 
L 146.759188 263.441198 
L 147.198504 281.799522 
L 148.077136 254.796563 
L 148.516452 253.02609 
L 148.955768 275.140373 
L 149.395084 265.053001 
L 149.8344 252.388856 
L 150.273716 272.786862 
L 150.713032 242.636591 
L 151.152348 262.164432 
L 151.591664 242.601068 
L 152.03098 255.898847 
L 152.470296 256.390148 
L 152.909612 267.862084 
L 153.348929 264.590573 
L 153.788245 259.513989 
L 154.227561 265.589519 
L 154.666877 265.706772 
L 155.106193 260.495777 
L 155.545509 263.845166 
L 155.984825 256.42752 
L 156.424141 263.090606 
L 156.863457 246.866005 
L 157.302773 260.877176 
L 157.742089 263.842742 
L 158.181405 262.006213 
L 158.620721 256.361224 
L 159.060037 266.561501 
L 159.499353 243.693071 
L 159.938669 254.626996 
L 160.377985 253.430541 
L 160.817301 249.071742 
L 161.256617 250.176753 
L 162.135249 276.899784 
L 162.574565 254.574094 
L 163.013881 278.538565 
L 163.453197 271.163877 
L 163.892513 257.52662 
L 164.331829 251.846967 
L 164.771145 261.163312 
L 165.210461 264.504076 
L 165.649777 256.26717 
L 166.089093 257.042189 
L 166.528409 246.80457 
L 166.967725 252.974924 
L 167.407041 278.517472 
L 167.846357 254.244039 
L 168.285674 255.715038 
L 168.72499 261.698284 
L 169.164306 250.083769 
L 169.603622 273.71407 
L 170.042938 248.503413 
L 170.482254 261.109254 
L 170.92157 250.985845 
L 171.360886 246.790587 
L 171.800202 258.342126 
L 172.239518 265.466516 
L 172.678834 270.662336 
L 173.11815 244.676244 
L 173.557466 254.537372 
L 173.996782 259.613885 
L 174.436098 251.729516 
L 174.875414 248.201457 
L 175.31473 270.410583 
L 175.754046 246.437623 
L 176.193362 266.306341 
L 176.632678 237.188963 
L 177.071994 262.460341 
L 177.51131 260.97761 
L 177.950626 257.15049 
L 178.389942 265.409144 
L 178.829258 271.421828 
L 179.268574 252.40533 
L 179.70789 289.258322 
L 180.147206 268.056917 
L 180.586522 258.317816 
L 181.025838 244.155552 
L 181.465154 264.337987 
L 181.90447 254.337217 
L 182.343786 279.974384 
L 182.783102 257.901601 
L 183.222419 260.10705 
L 183.661735 254.726977 
L 184.101051 278.387159 
L 184.540367 276.24177 
L 184.979683 238.391788 
L 185.418999 273.706899 
L 185.858315 251.868208 
L 186.297631 267.091858 
L 186.736947 251.382338 
L 187.176263 260.500752 
L 187.615579 261.149062 
L 188.054895 254.282185 
L 188.494211 255.542302 
L 188.933527 256.164801 
L 189.372843 271.012572 
L 189.812159 268.81588 
L 190.251475 253.735019 
L 190.690791 282.223346 
L 191.569423 224.633923 
L 192.008739 260.862646 
L 192.448055 276.783625 
L 192.887371 257.218093 
L 193.326687 267.918355 
L 193.766003 288.894017 
L 194.205319 275.43349 
L 194.644635 268.533259 
L 195.083951 266.416029 
L 195.523267 224.160337 
L 195.962583 268.822491 
L 196.401899 250.909459 
L 196.841215 251.931415 
L 197.280531 237.895232 
L 197.719847 261.177178 
L 198.159163 254.927228 
L 198.59848 258.701447 
L 199.037796 269.896333 
L 199.477112 266.260685 
L 199.916428 258.572949 
L 200.355744 252.970374 
L 200.79506 271.999539 
L 201.234376 262.287376 
L 201.673692 246.866654 
L 202.113008 246.334874 
L 202.552324 269.811457 
L 202.99164 275.104529 
L 203.870272 263.653956 
L 204.309588 272.574083 
L 204.748904 252.894238 
L 205.18822 252.897396 
L 205.627536 269.784289 
L 206.066852 255.163715 
L 206.506168 255.876821 
L 206.945484 255.682943 
L 207.3848 273.755304 
L 207.824116 258.941062 
L 208.263432 268.970709 
L 209.142064 251.03593 
L 209.58138 269.910042 
L 210.020696 266.892198 
L 210.460012 266.461358 
L 210.899328 277.461643 
L 211.338644 255.380997 
L 211.77796 267.953364 
L 212.656592 265.479467 
L 213.095908 247.781698 
L 213.535225 281.518717 
L 213.974541 264.679935 
L 214.413857 270.671326 
L 214.853173 268.858911 
L 215.292489 269.494309 
L 215.731805 251.010824 
L 216.171121 273.597482 
L 216.610437 250.888741 
L 217.049753 281.023402 
L 217.489069 251.703797 
L 217.928385 285.519357 
L 218.367701 261.424673 
L 218.807017 260.75723 
L 219.246333 237.845573 
L 219.685649 268.863826 
L 220.124965 253.636525 
L 220.564281 260.521828 
L 221.003597 251.248529 
L 221.442913 269.569905 
L 221.882229 250.923827 
L 222.321545 255.259188 
L 222.760861 294.680931 
L 223.200177 249.345617 
L 223.639493 258.087535 
L 224.078809 272.832415 
L 224.518125 270.872598 
L 224.957441 282.068055 
L 225.396757 251.491055 
L 225.836073 237.499144 
L 226.275389 258.750445 
L 226.714705 264.573134 
L 227.154021 248.43248 
L 227.593337 260.891682 
L 228.032653 280.941584 
L 228.471969 265.325414 
L 228.911286 267.998792 
L 229.350602 268.389129 
L 229.789918 247.396772 
L 230.229234 267.35036 
L 230.66855 239.847831 
L 231.107866 269.330247 
L 231.547182 264.40123 
L 231.986498 279.090435 
L 232.425814 253.930902 
L 233.304446 266.52943 
L 233.743762 266.45538 
L 234.183078 252.735488 
L 234.622394 264.882848 
L 235.06171 249.032891 
L 235.501026 272.131268 
L 235.940342 254.029212 
L 236.379658 270.105659 
L 236.818974 253.62653 
L 237.25829 285.289309 
L 237.697606 281.923193 
L 238.136922 266.026721 
L 239.015554 274.558333 
L 239.45487 256.006347 
L 239.894186 278.218103 
L 240.333502 259.668779 
L 240.772818 275.903268 
L 241.212134 238.975361 
L 241.65145 247.303751 
L 242.090766 265.730275 
L 242.530082 253.283971 
L 242.969398 247.494253 
L 243.408714 260.959684 
L 243.848031 268.450562 
L 244.287347 260.450978 
L 244.726663 233.155488 
L 245.165979 235.180496 
L 245.605295 258.726062 
L 246.044611 273.670294 
L 246.483927 267.715806 
L 246.923243 271.675918 
L 247.362559 273.34873 
L 247.801875 246.652197 
L 248.241191 250.66682 
L 248.680507 268.512254 
L 249.119823 263.775775 
L 249.559139 264.643259 
L 249.998455 270.139216 
L 250.437771 265.624397 
L 250.877087 267.385095 
L 251.755719 250.517935 
L 252.195035 282.866527 
L 252.634351 250.937226 
L 253.073667 238.584024 
L 253.512983 249.600403 
L 253.952299 265.292502 
L 254.391615 271.219038 
L 254.830931 269.134613 
L 255.270247 270.270318 
L 255.709563 261.613392 
L 256.148879 257.237212 
L 257.027511 263.571938 
L 257.466827 284.540688 
L 257.906143 248.242606 
L 258.345459 276.819433 
L 258.784775 264.880783 
L 259.224092 263.858412 
L 259.663408 245.088418 
L 260.54204 271.18746 
L 260.981356 258.066988 
L 261.420672 255.80011 
L 261.859988 232.614867 
L 262.299304 269.488363 
L 262.73862 236.928026 
L 263.177936 276.705142 
L 263.617252 248.647225 
L 264.056568 276.505137 
L 264.495884 274.569117 
L 264.9352 236.686318 
L 265.374516 252.778742 
L 265.813832 259.573197 
L 266.253148 270.004107 
L 266.692464 264.539542 
L 267.13178 246.039392 
L 267.571096 267.591777 
L 268.010412 265.231442 
L 268.449728 284.356739 
L 268.889044 247.028188 
L 269.32836 263.331722 
L 269.767676 239.033463 
L 270.206992 256.727243 
L 270.646308 249.627598 
L 271.085624 256.232656 
L 271.52494 234.823813 
L 271.964256 251.77601 
L 272.403572 252.566961 
L 273.282204 267.910107 
L 273.72152 239.163626 
L 274.160837 269.635259 
L 274.600153 256.989324 
L 275.039469 271.569146 
L 275.478785 282.283228 
L 275.918101 270.606155 
L 276.357417 245.865672 
L 276.796733 242.073526 
L 277.236049 253.838738 
L 277.675365 239.488178 
L 278.114681 283.373398 
L 278.993313 255.728461 
L 279.432629 258.240482 
L 279.871945 267.192101 
L 280.311261 262.199018 
L 280.750577 282.688553 
L 281.189893 236.272814 
L 281.629209 258.162387 
L 282.068525 266.72674 
L 282.507841 232.398067 
L 282.947157 264.029547 
L 283.386473 281.589118 
L 283.825789 224.560943 
L 284.265105 254.198845 
L 284.704421 247.067585 
L 285.143737 276.955083 
L 285.583053 251.924489 
L 286.022369 257.923117 
L 286.461685 271.811729 
L 286.901001 295.488 
L 287.340317 252.135044 
L 287.779633 255.073896 
L 288.218949 273.930797 
L 289.097581 265.646942 
L 289.536898 235.950983 
L 289.976214 251.13571 
L 290.41553 278.578502 
L 290.854846 250.59495 
L 291.294162 266.414991 
L 291.733478 245.306281 
L 292.172794 253.138642 
L 292.61211 270.583188 
L 293.051426 243.920993 
L 293.490742 271.218152 
L 293.930058 254.905842 
L 294.369374 274.027705 
L 294.80869 248.206198 
L 295.248006 258.281249 
L 296.126638 242.247501 
L 296.565954 271.97349 
L 297.00527 259.808453 
L 297.444586 251.282048 
L 297.883902 264.46073 
L 298.323218 254.132109 
L 298.762534 279.936583 
L 299.20185 268.875874 
L 299.641166 216.50797 
L 300.080482 205.616198 
L 300.519798 247.057599 
L 300.959114 237.841778 
L 301.39843 283.726413 
L 301.837746 239.984024 
L 302.277062 276.19735 
L 302.716378 265.964097 
L 303.155694 260.376265 
L 303.59501 252.910902 
L 304.034326 255.188759 
L 304.473643 82.824979 
L 304.912959 142.403325 
L 305.352275 152.236291 
L 305.791591 234.476347 
L 306.230907 251.377391 
L 306.670223 260.926538 
L 307.109539 263.061925 
L 307.548855 253.041328 
L 307.988171 257.398556 
L 308.427487 283.900087 
L 308.866803 228.561599 
L 309.745435 250.008531 
L 310.184751 274.192056 
L 310.624067 251.901338 
L 311.063383 258.986158 
L 311.502699 225.399805 
L 311.942015 250.237175 
L 312.381331 256.99378 
L 312.820647 257.724959 
L 313.259963 233.9003 
L 313.699279 260.689619 
L 314.138595 262.907694 
L 314.577911 241.355166 
L 315.017227 258.291077 
L 315.456543 260.785814 
L 315.895859 226.67209 
L 316.335175 243.489398 
L 316.774491 273.437947 
L 317.213807 254.857023 
L 317.653123 266.689751 
L 318.092439 267.00192 
L 318.531755 246.038946 
L 318.971071 268.545703 
L 319.410388 262.03482 
L 319.849704 267.725564 
L 320.28902 205.741615 
L 320.728336 278.567279 
L 321.606968 229.995709 
L 322.924916 269.9838 
L 323.364232 252.460998 
L 323.803548 251.377926 
L 324.242864 244.18998 
L 324.68218 262.393079 
L 325.560812 256.583065 
L 326.000128 247.349776 
L 326.439444 256.506998 
L 326.87876 228.656878 
L 327.757392 258.536852 
L 328.636024 240.626601 
L 329.07534 255.027183 
L 329.514656 261.819741 
L 329.953972 219.774277 
L 330.393288 260.005542 
L 330.832604 257.162504 
L 331.27192 229.984277 
L 331.711236 251.196311 
L 332.150552 257.978556 
L 332.589868 255.588847 
L 333.029184 263.493387 
L 333.4685 260.760838 
L 333.907816 254.458521 
L 334.347132 267.484792 
L 334.786449 260.141427 
L 335.225765 244.040196 
L 335.665081 257.447503 
L 336.104397 240.620917 
L 336.543713 256.787293 
L 337.422345 274.468529 
L 337.861661 261.061487 
L 338.300977 242.588304 
L 338.740293 235.855395 
L 339.179609 271.340201 
L 339.618925 253.932068 
L 340.058241 261.62415 
L 340.497557 254.047803 
L 340.936873 234.166503 
L 341.376189 261.783212 
L 341.815505 258.82943 
L 342.254821 260.222345 
L 342.694137 275.953898 
L 343.133453 248.763378 
L 343.572769 248.875005 
L 344.012085 261.124348 
L 344.451401 230.427165 
L 345.330033 253.615775 
L 345.769349 281.595727 
L 346.208665 267.385506 
L 346.647981 264.776186 
L 347.087297 283.226392 
L 347.526613 271.657232 
L 347.965929 263.806124 
L 348.405245 244.224249 
L 348.844561 257.885614 
L 349.283877 244.317328 
L 349.723194 251.609455 
L 350.16251 278.724582 
L 350.601826 274.396263 
L 351.041142 259.984943 
L 351.480458 250.560979 
L 351.919774 257.761881 
L 352.35909 245.339843 
L 352.798406 239.052526 
L 353.237722 254.341914 
L 353.677038 236.459604 
L 354.116354 256.053028 
L 354.55567 267.255906 
L 354.994986 178.534338 
L 355.434302 256.49595 
L 355.873618 264.016446 
L 356.312934 260.006835 
L 356.75225 258.828168 
L 357.191566 252.643543 
L 357.630882 269.066021 
L 358.070198 250.640049 
L 358.509514 259.655818 
L 358.94883 260.760558 
L 359.388146 265.904863 
L 359.827462 257.059877 
L 360.266778 242.333868 
L 360.706094 254.61709 
L 361.14541 245.103827 
L 361.584726 250.394089 
L 362.024042 263.952142 
L 362.463358 263.351249 
L 362.902674 250.179732 
L 363.34199 279.980166 
L 363.781306 125.267242 
L 364.220622 214.859436 
L 364.659938 257.514434 
L 365.099255 248.588552 
L 365.538571 277.834336 
L 365.977887 280.251855 
L 366.417203 250.60413 
L 366.856519 273.017533 
L 367.295835 241.663014 
L 367.735151 255.388589 
L 368.174467 263.244514 
L 368.613783 258.849078 
L 369.053099 272.171663 
L 369.931731 253.722391 
L 370.371047 230.537 
L 370.810363 269.046888 
L 371.249679 267.640956 
L 371.688995 239.664811 
L 372.128311 274.856073 
L 372.567627 267.617466 
L 373.006943 265.645192 
L 373.446259 248.264964 
L 373.885575 260.438815 
L 374.764207 238.560682 
L 375.203523 244.983397 
L 375.642839 249.716042 
L 376.082155 266.771738 
L 376.521471 266.842178 
L 376.960787 252.915986 
L 377.400103 228.454014 
L 377.839419 248.15137 
L 378.718051 277.448689 
L 379.157367 211.782528 
L 379.596683 252.990726 
L 380.036 254.942509 
L 380.475316 255.853 
L 380.914632 269.871486 
L 381.353948 270.460692 
L 381.793264 276.451402 
L 382.23258 270.801215 
L 382.671896 255.12468 
L 383.111212 254.016037 
L 383.550528 251.071308 
L 383.989844 255.393175 
L 384.42916 248.748588 
L 384.868476 232.652463 
L 385.307792 255.061059 
L 385.747108 268.790627 
L 386.186424 248.631497 
L 386.62574 267.994815 
L 387.504372 229.318781 
L 387.943688 251.81078 
L 388.383004 256.217467 
L 388.82232 258.3208 
L 389.261636 245.383245 
L 390.140268 275.855531 
L 390.579584 276.590896 
L 391.0189 245.567155 
L 391.458216 266.050891 
L 391.897532 232.946271 
L 392.336848 223.824492 
L 392.776164 236.484481 
L 393.21548 233.981761 
L 393.654796 246.759697 
L 394.094112 239.484664 
L 394.533428 258.358075 
L 394.972744 257.734655 
L 395.412061 252.724861 
L 395.851377 260.776832 
L 396.290693 227.431074 
L 396.730009 238.62085 
L 397.169325 246.177482 
L 397.608641 251.779188 
L 398.047957 249.971894 
L 398.487273 266.179254 
L 398.487273 266.179254 
" style="fill:none;stroke:#ff7f0e;stroke-linecap:square;stroke-width:1.5;"/>
   </g>
   <g id="patch_3">
    <path d="M 57.6 307.584 
L 57.6 41.472 
" style="fill:none;stroke:#000000;stroke-linecap:square;stroke-linejoin:miter;stroke-width:0.8;"/>
   </g>
   <g id="patch_4">
    <path d="M 414.72 307.584 
L 414.72 41.472 
" style="fill:none;stroke:#000000;stroke-linecap:square;stroke-linejoin:miter;stroke-width:0.8;"/>
   </g>
   <g id="patch_5">
    <path d="M 57.6 307.584 
L 414.72 307.584 
" style="fill:none;stroke:#000000;stroke-linecap:square;stroke-linejoin:miter;stroke-width:0.8;"/>
   </g>
   <g id="patch_6">
    <path d="M 57.6 41.472 
L 414.72 41.472 
" style="fill:none;stroke:#000000;stroke-linecap:square;stroke-linejoin:miter;stroke-width:0.8;"/>
   </g>
   <g id="legend_1">
    <g id="patch_7">
     <path d="M 303.845 78.82825 
L 407.72 78.82825 
Q 409.72 78.82825 409.72 76.82825 
L 409.72 48.472 
Q 409.72 46.472 407.72 46.472 
L 303.845 46.472 
Q 301.845 46.472 301.845 48.472 
L 301.845 76.82825 
Q 301.845 78.82825 303.845 78.82825 
z
" style="fill:#ffffff;opacity:0.8;stroke:#cccccc;stroke-linejoin:miter;"/>
    </g>
    <g id="line2d_17">
     <path d="M 305.845 54.570437 
L 325.845 54.570437 
" style="fill:none;stroke:#1f77b4;stroke-linecap:square;stroke-width:1.5;"/>
    </g>
    <g id="line2d_18"/>
    <g id="text_16">
     <!-- Train loss -->
     <g transform="translate(333.845 58.070437)scale(0.1 -0.1)">
      <defs>
       <path d="M -19 4666 
L 3928 4666 
L 3928 4134 
L 2272 4134 
L 2272 0 
L 1638 0 
L 1638 4134 
L -19 4134 
L -19 4666 
z
" id="DejaVuSans-54" transform="scale(0.015625)"/>
       <path d="M 2631 2963 
Q 2534 3019 2420 3045 
Q 2306 3072 2169 3072 
Q 1681 3072 1420 2755 
Q 1159 2438 1159 1844 
L 1159 0 
L 581 0 
L 581 3500 
L 1159 3500 
L 1159 2956 
Q 1341 3275 1631 3429 
Q 1922 3584 2338 3584 
Q 2397 3584 2469 3576 
Q 2541 3569 2628 3553 
L 2631 2963 
z
" id="DejaVuSans-72" transform="scale(0.015625)"/>
       <path d="M 2194 1759 
Q 1497 1759 1228 1600 
Q 959 1441 959 1056 
Q 959 750 1161 570 
Q 1363 391 1709 391 
Q 2188 391 2477 730 
Q 2766 1069 2766 1631 
L 2766 1759 
L 2194 1759 
z
M 3341 1997 
L 3341 0 
L 2766 0 
L 2766 531 
Q 2569 213 2275 61 
Q 1981 -91 1556 -91 
Q 1019 -91 701 211 
Q 384 513 384 1019 
Q 384 1609 779 1909 
Q 1175 2209 1959 2209 
L 2766 2209 
L 2766 2266 
Q 2766 2663 2505 2880 
Q 2244 3097 1772 3097 
Q 1472 3097 1187 3025 
Q 903 2953 641 2809 
L 641 3341 
Q 956 3463 1253 3523 
Q 1550 3584 1831 3584 
Q 2591 3584 2966 3190 
Q 3341 2797 3341 1997 
z
" id="DejaVuSans-61" transform="scale(0.015625)"/>
       <path d="M 603 3500 
L 1178 3500 
L 1178 0 
L 603 0 
L 603 3500 
z
M 603 4863 
L 1178 4863 
L 1178 4134 
L 603 4134 
L 603 4863 
z
" id="DejaVuSans-69" transform="scale(0.015625)"/>
       <path d="M 3513 2113 
L 3513 0 
L 2938 0 
L 2938 2094 
Q 2938 2591 2744 2837 
Q 2550 3084 2163 3084 
Q 1697 3084 1428 2787 
Q 1159 2491 1159 1978 
L 1159 0 
L 581 0 
L 581 3500 
L 1159 3500 
L 1159 2956 
Q 1366 3272 1645 3428 
Q 1925 3584 2291 3584 
Q 2894 3584 3203 3211 
Q 3513 2838 3513 2113 
z
" id="DejaVuSans-6e" transform="scale(0.015625)"/>
       <path id="DejaVuSans-20" transform="scale(0.015625)"/>
       <path d="M 603 4863 
L 1178 4863 
L 1178 0 
L 603 0 
L 603 4863 
z
" id="DejaVuSans-6c" transform="scale(0.015625)"/>
       <path d="M 2834 3397 
L 2834 2853 
Q 2591 2978 2328 3040 
Q 2066 3103 1784 3103 
Q 1356 3103 1142 2972 
Q 928 2841 928 2578 
Q 928 2378 1081 2264 
Q 1234 2150 1697 2047 
L 1894 2003 
Q 2506 1872 2764 1633 
Q 3022 1394 3022 966 
Q 3022 478 2636 193 
Q 2250 -91 1575 -91 
Q 1294 -91 989 -36 
Q 684 19 347 128 
L 347 722 
Q 666 556 975 473 
Q 1284 391 1588 391 
Q 1994 391 2212 530 
Q 2431 669 2431 922 
Q 2431 1156 2273 1281 
Q 2116 1406 1581 1522 
L 1381 1569 
Q 847 1681 609 1914 
Q 372 2147 372 2553 
Q 372 3047 722 3315 
Q 1072 3584 1716 3584 
Q 2034 3584 2315 3537 
Q 2597 3491 2834 3397 
z
" id="DejaVuSans-73" transform="scale(0.015625)"/>
      </defs>
      <use xlink:href="#DejaVuSans-54"/>
      <use x="46.333984" xlink:href="#DejaVuSans-72"/>
      <use x="87.447266" xlink:href="#DejaVuSans-61"/>
      <use x="148.726562" xlink:href="#DejaVuSans-69"/>
      <use x="176.509766" xlink:href="#DejaVuSans-6e"/>
      <use x="239.888672" xlink:href="#DejaVuSans-20"/>
      <use x="271.675781" xlink:href="#DejaVuSans-6c"/>
      <use x="299.458984" xlink:href="#DejaVuSans-6f"/>
      <use x="360.640625" xlink:href="#DejaVuSans-73"/>
      <use x="412.740234" xlink:href="#DejaVuSans-73"/>
     </g>
    </g>
    <g id="line2d_19">
     <path d="M 305.845 69.248562 
L 325.845 69.248562 
" style="fill:none;stroke:#ff7f0e;stroke-linecap:square;stroke-width:1.5;"/>
    </g>
    <g id="line2d_20"/>
    <g id="text_17">
     <!-- Validation loss -->
     <g transform="translate(333.845 72.748562)scale(0.1 -0.1)">
      <defs>
       <path d="M 1831 0 
L 50 4666 
L 709 4666 
L 2188 738 
L 3669 4666 
L 4325 4666 
L 2547 0 
L 1831 0 
z
" id="DejaVuSans-56" transform="scale(0.015625)"/>
       <path d="M 2906 2969 
L 2906 4863 
L 3481 4863 
L 3481 0 
L 2906 0 
L 2906 525 
Q 2725 213 2448 61 
Q 2172 -91 1784 -91 
Q 1150 -91 751 415 
Q 353 922 353 1747 
Q 353 2572 751 3078 
Q 1150 3584 1784 3584 
Q 2172 3584 2448 3432 
Q 2725 3281 2906 2969 
z
M 947 1747 
Q 947 1113 1208 752 
Q 1469 391 1925 391 
Q 2381 391 2643 752 
Q 2906 1113 2906 1747 
Q 2906 2381 2643 2742 
Q 2381 3103 1925 3103 
Q 1469 3103 1208 2742 
Q 947 2381 947 1747 
z
" id="DejaVuSans-64" transform="scale(0.015625)"/>
       <path d="M 1172 4494 
L 1172 3500 
L 2356 3500 
L 2356 3053 
L 1172 3053 
L 1172 1153 
Q 1172 725 1289 603 
Q 1406 481 1766 481 
L 2356 481 
L 2356 0 
L 1766 0 
Q 1100 0 847 248 
Q 594 497 594 1153 
L 594 3053 
L 172 3053 
L 172 3500 
L 594 3500 
L 594 4494 
L 1172 4494 
z
" id="DejaVuSans-74" transform="scale(0.015625)"/>
      </defs>
      <use xlink:href="#DejaVuSans-56"/>
      <use x="60.658203" xlink:href="#DejaVuSans-61"/>
      <use x="121.9375" xlink:href="#DejaVuSans-6c"/>
      <use x="149.720703" xlink:href="#DejaVuSans-69"/>
      <use x="177.503906" xlink:href="#DejaVuSans-64"/>
      <use x="240.980469" xlink:href="#DejaVuSans-61"/>
      <use x="302.259766" xlink:href="#DejaVuSans-74"/>
      <use x="341.46875" xlink:href="#DejaVuSans-69"/>
      <use x="369.251953" xlink:href="#DejaVuSans-6f"/>
      <use x="430.433594" xlink:href="#DejaVuSans-6e"/>
      <use x="493.8125" xlink:href="#DejaVuSans-20"/>
      <use x="525.599609" xlink:href="#DejaVuSans-6c"/>
      <use x="553.382812" xlink:href="#DejaVuSans-6f"/>
      <use x="614.564453" xlink:href="#DejaVuSans-73"/>
      <use x="666.664062" xlink:href="#DejaVuSans-73"/>
     </g>
    </g>
   </g>
  </g>
 </g>
 <defs>
  <clipPath id="pdeeda5a93c">
   <rect height="266.112" width="357.12" x="57.6" y="41.472"/>
  </clipPath>
 </defs>
</svg>
