<?xml version="1.0" encoding="utf-8" standalone="no"?>
<!DOCTYPE svg PUBLIC "-//W3C//DTD SVG 1.1//EN"
  "http://www.w3.org/Graphics/SVG/1.1/DTD/svg11.dtd">
<svg height="345.6pt" version="1.1" viewBox="0 0 460.8 345.6" width="460.8pt" xmlns="http://www.w3.org/2000/svg" xmlns:xlink="http://www.w3.org/1999/xlink">
 <metadata>
  <rdf:RDF xmlns:cc="http://creativecommons.org/ns#" xmlns:dc="http://purl.org/dc/elements/1.1/" xmlns:rdf="http://www.w3.org/1999/02/22-rdf-syntax-ns#">
   <cc:Work>
    <dc:type rdf:resource="http://purl.org/dc/dcmitype/StillImage"/>
    <dc:date>2021-07-23T14:33:38.899560</dc:date>
    <dc:format>image/svg+xml</dc:format>
    <dc:creator>
     <cc:Agent>
      <dc:title>Matplotlib v3.4.2, https://matplotlib.org/</dc:title>
     </cc:Agent>
    </dc:creator>
   </cc:Work>
  </rdf:RDF>
 </metadata>
 <defs>
  <style type="text/css">*{stroke-linecap:butt;stroke-linejoin:round;}</style>
 </defs>
 <g id="figure_1">
  <g id="patch_1">
   <path d="M 0 345.6 
L 460.8 345.6 
L 460.8 0 
L 0 0 
z
" style="fill:#ffffff;"/>
  </g>
  <g id="axes_1">
   <g id="patch_2">
    <path d="M 57.6 307.584 
L 414.72 307.584 
L 414.72 41.472 
L 57.6 41.472 
z
" style="fill:#ffffff;"/>
   </g>
   <g id="matplotlib.axis_1">
    <g id="xtick_1">
     <g id="line2d_1">
      <defs>
       <path d="M 0 0 
L 0 3.5 
" id="m1a357c6e34" style="stroke:#000000;stroke-width:0.8;"/>
      </defs>
      <g>
       <use style="stroke:#000000;stroke-width:0.8;" x="73.393411" xlink:href="#m1a357c6e34" y="307.584"/>
      </g>
     </g>
     <g id="text_1">
      <!-- 0 -->
      <g transform="translate(70.212161 322.182437)scale(0.1 -0.1)">
       <defs>
        <path d="M 2034 4250 
Q 1547 4250 1301 3770 
Q 1056 3291 1056 2328 
Q 1056 1369 1301 889 
Q 1547 409 2034 409 
Q 2525 409 2770 889 
Q 3016 1369 3016 2328 
Q 3016 3291 2770 3770 
Q 2525 4250 2034 4250 
z
M 2034 4750 
Q 2819 4750 3233 4129 
Q 3647 3509 3647 2328 
Q 3647 1150 3233 529 
Q 2819 -91 2034 -91 
Q 1250 -91 836 529 
Q 422 1150 422 2328 
Q 422 3509 836 4129 
Q 1250 4750 2034 4750 
z
" id="DejaVuSans-30" transform="scale(0.015625)"/>
       </defs>
       <use xlink:href="#DejaVuSans-30"/>
      </g>
     </g>
    </g>
    <g id="xtick_2">
     <g id="line2d_2">
      <g>
       <use style="stroke:#000000;stroke-width:0.8;" x="117.325014" xlink:href="#m1a357c6e34" y="307.584"/>
      </g>
     </g>
     <g id="text_2">
      <!-- 100 -->
      <g transform="translate(107.781264 322.182437)scale(0.1 -0.1)">
       <defs>
        <path d="M 794 531 
L 1825 531 
L 1825 4091 
L 703 3866 
L 703 4441 
L 1819 4666 
L 2450 4666 
L 2450 531 
L 3481 531 
L 3481 0 
L 794 0 
L 794 531 
z
" id="DejaVuSans-31" transform="scale(0.015625)"/>
       </defs>
       <use xlink:href="#DejaVuSans-31"/>
       <use x="63.623047" xlink:href="#DejaVuSans-30"/>
       <use x="127.246094" xlink:href="#DejaVuSans-30"/>
      </g>
     </g>
    </g>
    <g id="xtick_3">
     <g id="line2d_3">
      <g>
       <use style="stroke:#000000;stroke-width:0.8;" x="161.256617" xlink:href="#m1a357c6e34" y="307.584"/>
      </g>
     </g>
     <g id="text_3">
      <!-- 200 -->
      <g transform="translate(151.712867 322.182437)scale(0.1 -0.1)">
       <defs>
        <path d="M 1228 531 
L 3431 531 
L 3431 0 
L 469 0 
L 469 531 
Q 828 903 1448 1529 
Q 2069 2156 2228 2338 
Q 2531 2678 2651 2914 
Q 2772 3150 2772 3378 
Q 2772 3750 2511 3984 
Q 2250 4219 1831 4219 
Q 1534 4219 1204 4116 
Q 875 4013 500 3803 
L 500 4441 
Q 881 4594 1212 4672 
Q 1544 4750 1819 4750 
Q 2544 4750 2975 4387 
Q 3406 4025 3406 3419 
Q 3406 3131 3298 2873 
Q 3191 2616 2906 2266 
Q 2828 2175 2409 1742 
Q 1991 1309 1228 531 
z
" id="DejaVuSans-32" transform="scale(0.015625)"/>
       </defs>
       <use xlink:href="#DejaVuSans-32"/>
       <use x="63.623047" xlink:href="#DejaVuSans-30"/>
       <use x="127.246094" xlink:href="#DejaVuSans-30"/>
      </g>
     </g>
    </g>
    <g id="xtick_4">
     <g id="line2d_4">
      <g>
       <use style="stroke:#000000;stroke-width:0.8;" x="205.18822" xlink:href="#m1a357c6e34" y="307.584"/>
      </g>
     </g>
     <g id="text_4">
      <!-- 300 -->
      <g transform="translate(195.64447 322.182437)scale(0.1 -0.1)">
       <defs>
        <path d="M 2597 2516 
Q 3050 2419 3304 2112 
Q 3559 1806 3559 1356 
Q 3559 666 3084 287 
Q 2609 -91 1734 -91 
Q 1441 -91 1130 -33 
Q 819 25 488 141 
L 488 750 
Q 750 597 1062 519 
Q 1375 441 1716 441 
Q 2309 441 2620 675 
Q 2931 909 2931 1356 
Q 2931 1769 2642 2001 
Q 2353 2234 1838 2234 
L 1294 2234 
L 1294 2753 
L 1863 2753 
Q 2328 2753 2575 2939 
Q 2822 3125 2822 3475 
Q 2822 3834 2567 4026 
Q 2313 4219 1838 4219 
Q 1578 4219 1281 4162 
Q 984 4106 628 3988 
L 628 4550 
Q 988 4650 1302 4700 
Q 1616 4750 1894 4750 
Q 2613 4750 3031 4423 
Q 3450 4097 3450 3541 
Q 3450 3153 3228 2886 
Q 3006 2619 2597 2516 
z
" id="DejaVuSans-33" transform="scale(0.015625)"/>
       </defs>
       <use xlink:href="#DejaVuSans-33"/>
       <use x="63.623047" xlink:href="#DejaVuSans-30"/>
       <use x="127.246094" xlink:href="#DejaVuSans-30"/>
      </g>
     </g>
    </g>
    <g id="xtick_5">
     <g id="line2d_5">
      <g>
       <use style="stroke:#000000;stroke-width:0.8;" x="249.119823" xlink:href="#m1a357c6e34" y="307.584"/>
      </g>
     </g>
     <g id="text_5">
      <!-- 400 -->
      <g transform="translate(239.576073 322.182437)scale(0.1 -0.1)">
       <defs>
        <path d="M 2419 4116 
L 825 1625 
L 2419 1625 
L 2419 4116 
z
M 2253 4666 
L 3047 4666 
L 3047 1625 
L 3713 1625 
L 3713 1100 
L 3047 1100 
L 3047 0 
L 2419 0 
L 2419 1100 
L 313 1100 
L 313 1709 
L 2253 4666 
z
" id="DejaVuSans-34" transform="scale(0.015625)"/>
       </defs>
       <use xlink:href="#DejaVuSans-34"/>
       <use x="63.623047" xlink:href="#DejaVuSans-30"/>
       <use x="127.246094" xlink:href="#DejaVuSans-30"/>
      </g>
     </g>
    </g>
    <g id="xtick_6">
     <g id="line2d_6">
      <g>
       <use style="stroke:#000000;stroke-width:0.8;" x="293.051426" xlink:href="#m1a357c6e34" y="307.584"/>
      </g>
     </g>
     <g id="text_6">
      <!-- 500 -->
      <g transform="translate(283.507676 322.182437)scale(0.1 -0.1)">
       <defs>
        <path d="M 691 4666 
L 3169 4666 
L 3169 4134 
L 1269 4134 
L 1269 2991 
Q 1406 3038 1543 3061 
Q 1681 3084 1819 3084 
Q 2600 3084 3056 2656 
Q 3513 2228 3513 1497 
Q 3513 744 3044 326 
Q 2575 -91 1722 -91 
Q 1428 -91 1123 -41 
Q 819 9 494 109 
L 494 744 
Q 775 591 1075 516 
Q 1375 441 1709 441 
Q 2250 441 2565 725 
Q 2881 1009 2881 1497 
Q 2881 1984 2565 2268 
Q 2250 2553 1709 2553 
Q 1456 2553 1204 2497 
Q 953 2441 691 2322 
L 691 4666 
z
" id="DejaVuSans-35" transform="scale(0.015625)"/>
       </defs>
       <use xlink:href="#DejaVuSans-35"/>
       <use x="63.623047" xlink:href="#DejaVuSans-30"/>
       <use x="127.246094" xlink:href="#DejaVuSans-30"/>
      </g>
     </g>
    </g>
    <g id="xtick_7">
     <g id="line2d_7">
      <g>
       <use style="stroke:#000000;stroke-width:0.8;" x="336.983029" xlink:href="#m1a357c6e34" y="307.584"/>
      </g>
     </g>
     <g id="text_7">
      <!-- 600 -->
      <g transform="translate(327.439279 322.182437)scale(0.1 -0.1)">
       <defs>
        <path d="M 2113 2584 
Q 1688 2584 1439 2293 
Q 1191 2003 1191 1497 
Q 1191 994 1439 701 
Q 1688 409 2113 409 
Q 2538 409 2786 701 
Q 3034 994 3034 1497 
Q 3034 2003 2786 2293 
Q 2538 2584 2113 2584 
z
M 3366 4563 
L 3366 3988 
Q 3128 4100 2886 4159 
Q 2644 4219 2406 4219 
Q 1781 4219 1451 3797 
Q 1122 3375 1075 2522 
Q 1259 2794 1537 2939 
Q 1816 3084 2150 3084 
Q 2853 3084 3261 2657 
Q 3669 2231 3669 1497 
Q 3669 778 3244 343 
Q 2819 -91 2113 -91 
Q 1303 -91 875 529 
Q 447 1150 447 2328 
Q 447 3434 972 4092 
Q 1497 4750 2381 4750 
Q 2619 4750 2861 4703 
Q 3103 4656 3366 4563 
z
" id="DejaVuSans-36" transform="scale(0.015625)"/>
       </defs>
       <use xlink:href="#DejaVuSans-36"/>
       <use x="63.623047" xlink:href="#DejaVuSans-30"/>
       <use x="127.246094" xlink:href="#DejaVuSans-30"/>
      </g>
     </g>
    </g>
    <g id="xtick_8">
     <g id="line2d_8">
      <g>
       <use style="stroke:#000000;stroke-width:0.8;" x="380.914632" xlink:href="#m1a357c6e34" y="307.584"/>
      </g>
     </g>
     <g id="text_8">
      <!-- 700 -->
      <g transform="translate(371.370882 322.182437)scale(0.1 -0.1)">
       <defs>
        <path d="M 525 4666 
L 3525 4666 
L 3525 4397 
L 1831 0 
L 1172 0 
L 2766 4134 
L 525 4134 
L 525 4666 
z
" id="DejaVuSans-37" transform="scale(0.015625)"/>
       </defs>
       <use xlink:href="#DejaVuSans-37"/>
       <use x="63.623047" xlink:href="#DejaVuSans-30"/>
       <use x="127.246094" xlink:href="#DejaVuSans-30"/>
      </g>
     </g>
    </g>
    <g id="text_9">
     <!-- Epoch -->
     <g transform="translate(213.193594 339.659781)scale(0.15 -0.15)">
      <defs>
       <path d="M 628 4666 
L 3578 4666 
L 3578 4134 
L 1259 4134 
L 1259 2753 
L 3481 2753 
L 3481 2222 
L 1259 2222 
L 1259 531 
L 3634 531 
L 3634 0 
L 628 0 
L 628 4666 
z
" id="DejaVuSans-45" transform="scale(0.015625)"/>
       <path d="M 1159 525 
L 1159 -1331 
L 581 -1331 
L 581 3500 
L 1159 3500 
L 1159 2969 
Q 1341 3281 1617 3432 
Q 1894 3584 2278 3584 
Q 2916 3584 3314 3078 
Q 3713 2572 3713 1747 
Q 3713 922 3314 415 
Q 2916 -91 2278 -91 
Q 1894 -91 1617 61 
Q 1341 213 1159 525 
z
M 3116 1747 
Q 3116 2381 2855 2742 
Q 2594 3103 2138 3103 
Q 1681 3103 1420 2742 
Q 1159 2381 1159 1747 
Q 1159 1113 1420 752 
Q 1681 391 2138 391 
Q 2594 391 2855 752 
Q 3116 1113 3116 1747 
z
" id="DejaVuSans-70" transform="scale(0.015625)"/>
       <path d="M 1959 3097 
Q 1497 3097 1228 2736 
Q 959 2375 959 1747 
Q 959 1119 1226 758 
Q 1494 397 1959 397 
Q 2419 397 2687 759 
Q 2956 1122 2956 1747 
Q 2956 2369 2687 2733 
Q 2419 3097 1959 3097 
z
M 1959 3584 
Q 2709 3584 3137 3096 
Q 3566 2609 3566 1747 
Q 3566 888 3137 398 
Q 2709 -91 1959 -91 
Q 1206 -91 779 398 
Q 353 888 353 1747 
Q 353 2609 779 3096 
Q 1206 3584 1959 3584 
z
" id="DejaVuSans-6f" transform="scale(0.015625)"/>
       <path d="M 3122 3366 
L 3122 2828 
Q 2878 2963 2633 3030 
Q 2388 3097 2138 3097 
Q 1578 3097 1268 2742 
Q 959 2388 959 1747 
Q 959 1106 1268 751 
Q 1578 397 2138 397 
Q 2388 397 2633 464 
Q 2878 531 3122 666 
L 3122 134 
Q 2881 22 2623 -34 
Q 2366 -91 2075 -91 
Q 1284 -91 818 406 
Q 353 903 353 1747 
Q 353 2603 823 3093 
Q 1294 3584 2113 3584 
Q 2378 3584 2631 3529 
Q 2884 3475 3122 3366 
z
" id="DejaVuSans-63" transform="scale(0.015625)"/>
       <path d="M 3513 2113 
L 3513 0 
L 2938 0 
L 2938 2094 
Q 2938 2591 2744 2837 
Q 2550 3084 2163 3084 
Q 1697 3084 1428 2787 
Q 1159 2491 1159 1978 
L 1159 0 
L 581 0 
L 581 4863 
L 1159 4863 
L 1159 2956 
Q 1366 3272 1645 3428 
Q 1925 3584 2291 3584 
Q 2894 3584 3203 3211 
Q 3513 2838 3513 2113 
z
" id="DejaVuSans-68" transform="scale(0.015625)"/>
      </defs>
      <use xlink:href="#DejaVuSans-45"/>
      <use x="63.183594" xlink:href="#DejaVuSans-70"/>
      <use x="126.660156" xlink:href="#DejaVuSans-6f"/>
      <use x="187.841797" xlink:href="#DejaVuSans-63"/>
      <use x="242.822266" xlink:href="#DejaVuSans-68"/>
     </g>
    </g>
   </g>
   <g id="matplotlib.axis_2">
    <g id="ytick_1">
     <g id="line2d_9">
      <defs>
       <path d="M 0 0 
L -3.5 0 
" id="mf6cf81d79b" style="stroke:#000000;stroke-width:0.8;"/>
      </defs>
      <g>
       <use style="stroke:#000000;stroke-width:0.8;" x="57.6" xlink:href="#mf6cf81d79b" y="257.566022"/>
      </g>
     </g>
     <g id="text_10">
      <!-- −1000 -->
      <g transform="translate(16.770313 261.365241)scale(0.1 -0.1)">
       <defs>
        <path d="M 678 2272 
L 4684 2272 
L 4684 1741 
L 678 1741 
L 678 2272 
z
" id="DejaVuSans-2212" transform="scale(0.015625)"/>
       </defs>
       <use xlink:href="#DejaVuSans-2212"/>
       <use x="83.789062" xlink:href="#DejaVuSans-31"/>
       <use x="147.412109" xlink:href="#DejaVuSans-30"/>
       <use x="211.035156" xlink:href="#DejaVuSans-30"/>
       <use x="274.658203" xlink:href="#DejaVuSans-30"/>
      </g>
     </g>
    </g>
    <g id="ytick_2">
     <g id="line2d_10">
      <g>
       <use style="stroke:#000000;stroke-width:0.8;" x="57.6" xlink:href="#mf6cf81d79b" y="202.775819"/>
      </g>
     </g>
     <g id="text_11">
      <!-- −800 -->
      <g transform="translate(23.132812 206.575038)scale(0.1 -0.1)">
       <defs>
        <path d="M 2034 2216 
Q 1584 2216 1326 1975 
Q 1069 1734 1069 1313 
Q 1069 891 1326 650 
Q 1584 409 2034 409 
Q 2484 409 2743 651 
Q 3003 894 3003 1313 
Q 3003 1734 2745 1975 
Q 2488 2216 2034 2216 
z
M 1403 2484 
Q 997 2584 770 2862 
Q 544 3141 544 3541 
Q 544 4100 942 4425 
Q 1341 4750 2034 4750 
Q 2731 4750 3128 4425 
Q 3525 4100 3525 3541 
Q 3525 3141 3298 2862 
Q 3072 2584 2669 2484 
Q 3125 2378 3379 2068 
Q 3634 1759 3634 1313 
Q 3634 634 3220 271 
Q 2806 -91 2034 -91 
Q 1263 -91 848 271 
Q 434 634 434 1313 
Q 434 1759 690 2068 
Q 947 2378 1403 2484 
z
M 1172 3481 
Q 1172 3119 1398 2916 
Q 1625 2713 2034 2713 
Q 2441 2713 2670 2916 
Q 2900 3119 2900 3481 
Q 2900 3844 2670 4047 
Q 2441 4250 2034 4250 
Q 1625 4250 1398 4047 
Q 1172 3844 1172 3481 
z
" id="DejaVuSans-38" transform="scale(0.015625)"/>
       </defs>
       <use xlink:href="#DejaVuSans-2212"/>
       <use x="83.789062" xlink:href="#DejaVuSans-38"/>
       <use x="147.412109" xlink:href="#DejaVuSans-30"/>
       <use x="211.035156" xlink:href="#DejaVuSans-30"/>
      </g>
     </g>
    </g>
    <g id="ytick_3">
     <g id="line2d_11">
      <g>
       <use style="stroke:#000000;stroke-width:0.8;" x="57.6" xlink:href="#mf6cf81d79b" y="147.985617"/>
      </g>
     </g>
     <g id="text_12">
      <!-- −600 -->
      <g transform="translate(23.132812 151.784836)scale(0.1 -0.1)">
       <use xlink:href="#DejaVuSans-2212"/>
       <use x="83.789062" xlink:href="#DejaVuSans-36"/>
       <use x="147.412109" xlink:href="#DejaVuSans-30"/>
       <use x="211.035156" xlink:href="#DejaVuSans-30"/>
      </g>
     </g>
    </g>
    <g id="ytick_4">
     <g id="line2d_12">
      <g>
       <use style="stroke:#000000;stroke-width:0.8;" x="57.6" xlink:href="#mf6cf81d79b" y="93.195414"/>
      </g>
     </g>
     <g id="text_13">
      <!-- −400 -->
      <g transform="translate(23.132812 96.994633)scale(0.1 -0.1)">
       <use xlink:href="#DejaVuSans-2212"/>
       <use x="83.789062" xlink:href="#DejaVuSans-34"/>
       <use x="147.412109" xlink:href="#DejaVuSans-30"/>
       <use x="211.035156" xlink:href="#DejaVuSans-30"/>
      </g>
     </g>
    </g>
   </g>
   <g id="line2d_13">
    <path clip-path="url(#p7b2d508b64)" d="M 73.832727 53.568 
L 74.272043 116.889078 
L 74.711359 136.661483 
L 75.150675 147.886924 
L 76.029307 180.284667 
L 76.468623 188.230602 
L 76.907939 192.792604 
L 77.347256 206.425944 
L 77.786572 205.57372 
L 78.225888 207.843934 
L 78.665204 214.062528 
L 79.10452 218.642149 
L 79.543836 206.219928 
L 79.983152 216.513457 
L 80.422468 218.092592 
L 80.861784 225.96441 
L 81.3011 221.841798 
L 81.740416 221.737304 
L 82.179732 225.176514 
L 82.619048 221.502002 
L 83.058364 231.110386 
L 83.49768 229.729439 
L 83.936996 231.699575 
L 84.376312 228.94284 
L 84.815628 230.905374 
L 85.69426 239.826418 
L 86.133576 233.384262 
L 86.572892 235.289857 
L 87.012208 231.782047 
L 87.451524 239.842946 
L 87.89084 236.825566 
L 88.330156 229.119638 
L 88.769472 238.747926 
L 89.208788 238.644392 
L 89.648104 240.320885 
L 90.08742 233.346615 
L 90.526736 233.242168 
L 90.966052 232.240581 
L 91.405368 240.866712 
L 91.844684 240.515652 
L 92.284 245.660232 
L 92.723317 240.145364 
L 93.162633 248.651832 
L 93.601949 243.392441 
L 94.041265 246.339676 
L 94.480581 242.711695 
L 94.919897 243.216384 
L 95.359213 239.971313 
L 95.798529 238.462816 
L 96.237845 245.502567 
L 96.677161 248.271882 
L 97.116477 241.128666 
L 97.995109 249.814114 
L 98.434425 249.48304 
L 98.873741 255.889847 
L 99.313057 244.264577 
L 99.752373 247.465643 
L 100.191689 257.459555 
L 100.631005 249.588148 
L 101.070321 245.604063 
L 101.509637 248.488216 
L 101.948953 249.978887 
L 102.388269 253.14021 
L 102.827585 253.231309 
L 103.266901 255.344938 
L 103.706217 253.893312 
L 104.145533 258.980094 
L 105.024165 253.164308 
L 105.463481 251.468525 
L 105.902797 254.953889 
L 106.342113 254.567709 
L 106.781429 254.928737 
L 107.220745 256.295944 
L 107.660062 252.781899 
L 108.099378 258.652344 
L 108.538694 253.679147 
L 108.97801 251.341988 
L 109.417326 256.098624 
L 109.856642 257.868449 
L 110.295958 254.732148 
L 110.735274 261.065042 
L 111.17459 260.427049 
L 111.613906 255.831015 
L 112.053222 257.30456 
L 112.492538 256.514627 
L 112.931854 259.997759 
L 113.37117 259.803859 
L 114.249802 254.141904 
L 114.689118 259.978733 
L 115.128434 257.563156 
L 115.56775 259.992748 
L 116.007066 258.749686 
L 116.446382 261.83604 
L 116.885698 256.209233 
L 117.325014 257.565507 
L 117.76433 256.911992 
L 118.203646 258.733902 
L 118.642962 262.10246 
L 119.082278 262.692332 
L 119.521594 266.619724 
L 119.96091 258.934437 
L 120.400226 265.507559 
L 120.839542 261.669866 
L 121.278858 264.080749 
L 121.718174 257.993846 
L 122.15749 262.980556 
L 122.596806 264.598687 
L 123.036123 265.186019 
L 123.475439 262.57004 
L 124.793387 258.364743 
L 125.232703 253.054289 
L 125.672019 261.664834 
L 126.111335 253.70625 
L 126.550651 256.258816 
L 126.989967 264.928127 
L 127.429283 260.08059 
L 127.868599 257.1034 
L 128.307915 259.043912 
L 128.747231 256.539301 
L 129.186547 263.032442 
L 129.625863 251.25537 
L 130.065179 260.486445 
L 130.504495 256.910321 
L 130.943811 263.325771 
L 131.383127 255.576791 
L 131.822443 255.202477 
L 132.261759 265.694487 
L 132.701075 260.901212 
L 133.140391 266.957927 
L 133.579707 263.598503 
L 134.019023 267.622553 
L 134.897655 251.513021 
L 135.336971 252.580898 
L 135.776287 254.414895 
L 136.215603 264.635814 
L 136.654919 247.133925 
L 137.094235 256.488747 
L 137.533551 255.451018 
L 137.972868 255.120449 
L 138.412184 258.970012 
L 138.8515 260.889804 
L 139.730132 255.959079 
L 140.169448 256.516059 
L 140.608764 260.715461 
L 141.04808 257.466546 
L 141.487396 256.074177 
L 141.926712 255.566348 
L 142.366028 262.695601 
L 142.805344 263.875225 
L 143.24466 260.708204 
L 143.683976 261.95791 
L 144.123292 265.020164 
L 144.562608 262.377454 
L 145.001924 257.687825 
L 145.44124 262.454216 
L 145.880556 259.519855 
L 146.319872 265.594107 
L 146.759188 264.211427 
L 147.198504 260.260451 
L 147.63782 260.94272 
L 148.077136 262.379097 
L 148.516452 266.471412 
L 148.955768 261.84403 
L 149.395084 264.387062 
L 149.8344 263.251864 
L 150.273716 256.454229 
L 150.713032 253.695434 
L 151.152348 255.615515 
L 151.591664 258.43593 
L 152.03098 258.649224 
L 152.470296 258.055697 
L 152.909612 253.047083 
L 153.348929 263.642961 
L 153.788245 261.759274 
L 154.227561 265.699801 
L 154.666877 259.386437 
L 155.106193 263.187136 
L 155.545509 257.840101 
L 155.984825 268.186904 
L 156.424141 266.173749 
L 156.863457 254.935383 
L 157.302773 258.27316 
L 157.742089 264.045068 
L 158.181405 257.265847 
L 158.620721 258.366152 
L 159.060037 256.559242 
L 159.499353 268.286107 
L 159.938669 267.169653 
L 160.817301 257.5486 
L 161.256617 268.903156 
L 161.695933 259.966675 
L 162.135249 264.183495 
L 162.574565 259.985646 
L 163.013881 258.970684 
L 163.453197 259.371511 
L 163.892513 266.003185 
L 164.331829 258.678905 
L 164.771145 258.699416 
L 165.210461 258.964289 
L 165.649777 263.264083 
L 166.089093 264.659808 
L 166.967725 255.761247 
L 167.407041 264.643702 
L 167.846357 263.298319 
L 168.285674 259.770193 
L 168.72499 264.62326 
L 169.164306 260.274162 
L 169.603622 269.285329 
L 170.042938 262.505974 
L 170.92157 259.425913 
L 171.360886 267.159611 
L 171.800202 266.147063 
L 172.239518 255.497217 
L 172.678834 255.9124 
L 173.11815 266.689453 
L 173.557466 265.294382 
L 173.996782 263.336614 
L 174.436098 268.293104 
L 174.875414 268.136778 
L 175.754046 263.157 
L 176.193362 263.276575 
L 176.632678 266.064007 
L 177.071994 262.508383 
L 177.51131 263.961385 
L 177.950626 264.28291 
L 178.389942 263.675528 
L 178.829258 264.40876 
L 179.268574 255.538162 
L 179.70789 266.880077 
L 180.147206 265.381062 
L 180.586522 260.729039 
L 181.025838 265.375036 
L 181.465154 264.533217 
L 181.90447 253.106884 
L 182.343786 263.733503 
L 183.222419 260.978247 
L 183.661735 266.280534 
L 184.101051 264.182514 
L 184.540367 268.853684 
L 184.979683 264.287821 
L 185.418999 262.426803 
L 185.858315 263.752559 
L 186.297631 265.529696 
L 187.176263 259.461302 
L 187.615579 264.935704 
L 188.054895 257.945625 
L 188.494211 263.021103 
L 188.933527 269.879463 
L 189.372843 263.021546 
L 189.812159 264.823846 
L 190.251475 257.661034 
L 190.690791 267.394201 
L 191.130107 262.004573 
L 191.569423 255.072761 
L 192.008739 263.825367 
L 192.448055 259.016637 
L 193.326687 263.590221 
L 193.766003 268.842938 
L 194.205319 267.076878 
L 194.644635 269.808592 
L 195.083951 256.444807 
L 195.523267 264.299244 
L 195.962583 263.904563 
L 196.401899 255.154106 
L 196.841215 259.628843 
L 197.280531 255.377555 
L 197.719847 260.593772 
L 198.159163 269.597827 
L 198.59848 267.525763 
L 199.037796 257.914747 
L 199.477112 264.115866 
L 199.916428 257.249187 
L 200.355744 271.847584 
L 200.79506 258.763187 
L 201.234376 264.615719 
L 201.673692 265.835429 
L 202.113008 258.801376 
L 202.552324 261.730487 
L 203.430956 256.035656 
L 203.870272 264.868902 
L 204.309588 265.688658 
L 204.748904 264.496931 
L 205.18822 258.828146 
L 205.627536 261.894004 
L 206.066852 262.433667 
L 206.506168 268.730318 
L 206.945484 259.975881 
L 207.3848 268.320625 
L 207.824116 266.425688 
L 208.263432 267.602377 
L 208.702748 266.381926 
L 209.142064 259.196751 
L 209.58138 262.400574 
L 210.020696 270.195247 
L 210.460012 256.205949 
L 211.77796 265.601626 
L 212.217276 262.192291 
L 212.656592 265.782209 
L 213.095908 267.083688 
L 213.535225 259.228107 
L 213.974541 257.639825 
L 214.413857 257.156466 
L 214.853173 265.780273 
L 215.292489 254.460625 
L 215.731805 267.956712 
L 216.171121 254.197763 
L 216.610437 259.683524 
L 217.049753 258.694318 
L 217.489069 267.876471 
L 218.367701 257.745659 
L 218.807017 271.304096 
L 219.246333 253.79644 
L 219.685649 267.266033 
L 220.124965 270.755388 
L 220.564281 266.398357 
L 221.003597 251.982834 
L 221.882229 266.449843 
L 222.321545 264.662023 
L 222.760861 272.667457 
L 223.200177 265.359967 
L 223.639493 266.02506 
L 224.078809 258.843326 
L 224.518125 261.354575 
L 224.957441 267.277868 
L 225.396757 264.58178 
L 225.836073 246.593844 
L 226.714705 262.502367 
L 227.154021 262.648105 
L 227.593337 263.678265 
L 228.032653 262.169026 
L 228.471969 264.160196 
L 228.911286 262.374664 
L 229.350602 264.664091 
L 229.789918 264.090994 
L 230.229234 267.839008 
L 230.66855 255.704387 
L 231.107866 271.713487 
L 231.547182 262.462872 
L 231.986498 266.783181 
L 232.425814 260.292273 
L 232.86513 271.142882 
L 233.304446 262.304561 
L 234.183078 269.835523 
L 234.622394 262.08837 
L 235.06171 260.591756 
L 235.501026 260.602012 
L 235.940342 262.994213 
L 236.379658 262.545847 
L 236.818974 261.659517 
L 237.25829 271.718689 
L 237.697606 265.13245 
L 238.136922 272.069358 
L 238.576238 260.848443 
L 239.015554 260.369881 
L 239.45487 266.944163 
L 239.894186 263.337264 
L 240.333502 260.749182 
L 240.772818 260.729353 
L 241.212134 264.901426 
L 241.65145 262.506301 
L 242.090766 268.514359 
L 242.530082 256.839162 
L 242.969398 267.589124 
L 243.408714 265.289733 
L 243.848031 264.942165 
L 244.287347 256.850469 
L 244.726663 263.766615 
L 245.165979 259.664482 
L 246.044611 269.055367 
L 246.483927 261.036547 
L 246.923243 261.315217 
L 247.362559 254.862661 
L 247.801875 257.840674 
L 248.241191 270.667358 
L 248.680507 260.879656 
L 249.119823 271.504858 
L 249.559139 268.667953 
L 249.998455 259.183424 
L 250.437771 258.851827 
L 250.877087 262.938972 
L 251.316403 265.366948 
L 251.755719 270.136609 
L 252.195035 261.366227 
L 252.634351 258.673463 
L 253.073667 261.40993 
L 253.512983 261.463142 
L 253.952299 264.319068 
L 254.391615 258.203733 
L 254.830931 259.501271 
L 255.270247 264.058945 
L 255.709563 261.218452 
L 256.148879 263.641642 
L 256.588195 272.888681 
L 257.027511 259.706433 
L 257.466827 273.75711 
L 257.906143 264.470029 
L 258.345459 266.214639 
L 258.784775 264.898795 
L 259.224092 273.485028 
L 259.663408 261.279571 
L 260.102724 267.830803 
L 260.54204 265.552564 
L 260.981356 257.426757 
L 261.420672 266.870562 
L 261.859988 242.682592 
L 262.299304 248.176381 
L 262.73862 270.019021 
L 263.177936 257.152153 
L 263.617252 265.867131 
L 264.056568 271.64573 
L 264.495884 266.160461 
L 264.9352 264.047859 
L 265.374516 249.622357 
L 266.253148 266.335459 
L 266.692464 266.891703 
L 267.13178 268.799415 
L 267.571096 266.787164 
L 268.010412 265.793964 
L 268.449728 261.391439 
L 268.889044 265.267144 
L 269.32836 267.940603 
L 269.767676 262.818069 
L 270.206992 265.848405 
L 270.646308 266.765051 
L 271.085624 265.203825 
L 271.52494 260.519019 
L 271.964256 261.553318 
L 272.403572 264.084085 
L 272.842888 261.479172 
L 273.282204 262.055275 
L 273.72152 262.964149 
L 274.160837 276.776251 
L 274.600153 257.409276 
L 275.039469 254.960567 
L 275.478785 262.111028 
L 275.918101 266.672481 
L 276.357417 262.276855 
L 276.796733 262.875373 
L 277.236049 267.649466 
L 277.675365 262.113459 
L 278.114681 265.900846 
L 278.553997 260.675043 
L 278.993313 245.612066 
L 279.432629 262.92097 
L 279.871945 268.853692 
L 280.311261 267.503039 
L 280.750577 264.505951 
L 281.189893 250.991627 
L 281.629209 266.690067 
L 282.507841 260.376369 
L 282.947157 267.849441 
L 283.386473 267.30785 
L 283.825789 268.777329 
L 284.265105 256.66212 
L 284.704421 271.632585 
L 285.143737 269.29471 
L 285.583053 258.629111 
L 286.022369 264.894226 
L 286.461685 259.737094 
L 286.901001 257.763471 
L 287.340317 265.062755 
L 287.779633 265.122104 
L 288.218949 263.972191 
L 288.658265 263.837042 
L 289.097581 263.997712 
L 289.536898 263.067506 
L 289.976214 257.581387 
L 290.41553 261.930441 
L 290.854846 269.140263 
L 291.294162 261.801618 
L 291.733478 265.612828 
L 292.172794 262.36507 
L 292.61211 270.100062 
L 293.051426 268.469106 
L 293.490742 268.706035 
L 293.930058 244.879783 
L 294.369374 259.341995 
L 294.80869 261.943437 
L 295.248006 259.632156 
L 295.687322 271.026302 
L 296.126638 259.597185 
L 296.565954 254.619598 
L 297.00527 266.239601 
L 297.444586 270.414523 
L 297.883902 252.004559 
L 298.323218 264.460607 
L 298.762534 273.275537 
L 299.20185 272.128854 
L 300.080482 249.061465 
L 300.519798 260.911237 
L 300.959114 264.133055 
L 301.39843 260.245458 
L 301.837746 263.768518 
L 302.277062 268.48624 
L 302.716378 260.777331 
L 303.155694 256.139943 
L 303.59501 265.683539 
L 304.034326 264.948818 
L 304.473643 232.509953 
L 304.912959 180.021252 
L 305.352275 205.366899 
L 305.791591 223.138241 
L 306.230907 250.305829 
L 306.670223 257.249279 
L 307.109539 267.701347 
L 307.548855 257.347143 
L 307.988171 264.31844 
L 308.427487 259.683069 
L 308.866803 262.69631 
L 309.306119 251.561783 
L 309.745435 256.424767 
L 310.184751 263.872006 
L 310.624067 259.90216 
L 311.063383 263.797926 
L 311.502699 264.217005 
L 311.942015 256.077547 
L 312.381331 258.925398 
L 312.820647 263.310197 
L 313.259963 252.528391 
L 313.699279 265.736383 
L 314.138595 259.721547 
L 314.577911 250.328281 
L 315.456543 269.704057 
L 315.895859 264.208071 
L 316.335175 264.993035 
L 317.213807 263.791113 
L 317.653123 267.473251 
L 318.092439 266.354603 
L 318.531755 266.893299 
L 318.971071 264.710221 
L 319.410388 267.711892 
L 319.849704 267.154003 
L 320.28902 262.869002 
L 320.728336 264.738159 
L 321.167652 262.024257 
L 321.606968 262.096611 
L 322.046284 273.137666 
L 322.4856 264.995934 
L 322.924916 266.263478 
L 323.364232 266.780162 
L 323.803548 266.873482 
L 324.242864 265.343459 
L 324.68218 263.056843 
L 325.121496 269.395542 
L 325.560812 263.051407 
L 326.000128 269.483014 
L 326.439444 272.133679 
L 326.87876 259.933328 
L 327.318076 266.971401 
L 327.757392 268.471975 
L 328.196708 272.814515 
L 328.636024 263.78646 
L 329.07534 265.637839 
L 329.514656 264.992426 
L 329.953972 258.621734 
L 330.832604 265.663786 
L 331.27192 262.662192 
L 331.711236 260.486072 
L 332.150552 260.420133 
L 332.589868 262.69325 
L 333.029184 262.597939 
L 333.4685 265.046239 
L 333.907816 256.021226 
L 334.347132 260.879217 
L 334.786449 270.327321 
L 335.225765 270.511267 
L 335.665081 261.591304 
L 336.104397 267.143551 
L 336.543713 257.0932 
L 336.983029 258.993648 
L 337.422345 264.994547 
L 337.861661 266.679232 
L 338.300977 251.715717 
L 339.179609 262.922149 
L 339.618925 268.029202 
L 340.058241 270.19304 
L 340.936873 253.878311 
L 341.376189 245.115944 
L 341.815505 269.097685 
L 342.254821 266.184051 
L 342.694137 265.117978 
L 343.133453 266.768108 
L 343.572769 258.37901 
L 344.012085 261.054022 
L 344.451401 266.296228 
L 344.890717 266.797136 
L 345.330033 262.900019 
L 345.769349 264.644461 
L 346.208665 264.357461 
L 346.647981 266.805705 
L 347.087297 264.193392 
L 347.965929 270.433791 
L 348.405245 255.78189 
L 348.844561 259.793116 
L 349.283877 273.576106 
L 349.723194 264.040718 
L 350.16251 262.451908 
L 350.601826 266.245797 
L 351.041142 267.540442 
L 351.480458 259.344171 
L 351.919774 260.566256 
L 352.35909 262.480245 
L 352.798406 261.298105 
L 353.237722 263.441743 
L 353.677038 254.082182 
L 354.116354 264.700401 
L 354.55567 266.146266 
L 354.994986 261.481921 
L 355.434302 254.063581 
L 355.873618 265.146504 
L 356.312934 261.572948 
L 356.75225 265.288071 
L 357.191566 262.595379 
L 357.630882 266.038706 
L 358.070198 268.503964 
L 358.509514 263.770171 
L 358.94883 261.742977 
L 359.388146 263.641998 
L 359.827462 270.637865 
L 360.706094 256.729081 
L 361.584726 265.618294 
L 362.024042 262.458201 
L 362.463358 267.88016 
L 362.902674 261.914595 
L 363.34199 275.567011 
L 363.781306 211.447611 
L 364.220622 237.289845 
L 364.659938 254.66949 
L 365.099255 267.540522 
L 365.538571 266.068413 
L 365.977887 261.523663 
L 366.417203 266.593305 
L 366.856519 260.461836 
L 367.295835 263.980983 
L 367.735151 261.559342 
L 368.174467 269.702986 
L 368.613783 268.907976 
L 369.053099 266.812016 
L 369.492415 260.880168 
L 369.931731 262.430132 
L 370.371047 258.765583 
L 370.810363 268.400024 
L 371.249679 270.831181 
L 371.688995 259.333898 
L 372.128311 266.493863 
L 372.567627 265.054294 
L 373.006943 265.101555 
L 373.446259 270.021533 
L 373.885575 265.967969 
L 374.324891 255.477625 
L 374.764207 270.257157 
L 375.203523 264.172315 
L 375.642839 268.061721 
L 376.082155 263.120482 
L 376.521471 267.78864 
L 376.960787 270.325831 
L 377.400103 252.279457 
L 377.839419 258.848571 
L 378.718051 267.136893 
L 379.157367 253.932789 
L 379.596683 254.402182 
L 380.036 260.220482 
L 380.475316 263.980795 
L 380.914632 264.535316 
L 381.353948 263.84486 
L 381.793264 264.739672 
L 382.23258 266.370231 
L 382.671896 260.87481 
L 383.550528 253.869976 
L 383.989844 267.022144 
L 384.42916 259.097982 
L 384.868476 260.079654 
L 385.307792 269.942767 
L 385.747108 264.368687 
L 386.186424 269.038966 
L 386.62574 261.347366 
L 387.065056 268.2566 
L 387.504372 235.743441 
L 387.943688 256.321556 
L 388.383004 264.703688 
L 388.82232 251.415456 
L 389.261636 267.433737 
L 389.700952 273.517945 
L 390.140268 266.623905 
L 390.579584 269.682715 
L 391.0189 263.514186 
L 391.458216 267.555805 
L 391.897532 259.201728 
L 392.336848 260.245055 
L 392.776164 257.135821 
L 393.21548 261.544273 
L 393.654796 263.166498 
L 394.094112 262.275742 
L 394.533428 266.760081 
L 394.972744 262.72318 
L 395.412061 262.232804 
L 395.851377 272.327087 
L 396.290693 263.877536 
L 396.730009 239.612155 
L 397.169325 256.964785 
L 397.608641 264.601836 
L 398.047957 268.243528 
L 398.487273 264.284012 
L 398.487273 264.284012 
" style="fill:none;stroke:#1f77b4;stroke-linecap:square;stroke-width:1.5;"/>
   </g>
   <g id="line2d_14">
    <path clip-path="url(#p7b2d508b64)" d="M 73.832727 99.176433 
L 74.711359 154.796009 
L 75.150675 152.998206 
L 75.589991 190.704346 
L 76.029307 203.641687 
L 76.468623 200.808396 
L 76.907939 194.341555 
L 77.347256 203.657052 
L 77.786572 209.198269 
L 78.225888 208.774569 
L 78.665204 226.478357 
L 79.10452 214.249827 
L 79.543836 227.029307 
L 79.983152 222.859447 
L 80.422468 225.647087 
L 80.861784 227.534629 
L 81.3011 226.372586 
L 81.740416 230.488826 
L 82.179732 218.793978 
L 82.619048 152.505933 
L 83.058364 231.290229 
L 83.49768 245.202965 
L 83.936996 223.551479 
L 84.376312 236.818883 
L 84.815628 232.023717 
L 85.254944 220.128798 
L 85.69426 240.418274 
L 86.133576 221.510397 
L 86.572892 227.289373 
L 87.012208 211.056399 
L 87.451524 239.613004 
L 87.89084 217.815737 
L 88.330156 223.493806 
L 88.769472 253.519937 
L 89.208788 232.011385 
L 90.08742 253.606727 
L 90.526736 251.80119 
L 90.966052 244.027416 
L 91.405368 253.758109 
L 91.844684 250.012628 
L 92.284 236.541669 
L 92.723317 258.59641 
L 93.162633 252.880665 
L 93.601949 229.285107 
L 94.041265 225.719269 
L 94.480581 236.776451 
L 94.919897 254.615429 
L 95.359213 247.068247 
L 95.798529 249.041716 
L 96.237845 263.395394 
L 96.677161 243.568714 
L 97.116477 252.507764 
L 97.555793 233.687402 
L 97.995109 248.713197 
L 98.434425 247.579872 
L 98.873741 266.854854 
L 99.313057 228.892751 
L 99.752373 246.636937 
L 100.191689 242.043088 
L 100.631005 262.6 
L 101.070321 256.395494 
L 101.509637 257.113912 
L 101.948953 259.396312 
L 102.388269 248.953302 
L 102.827585 255.899737 
L 103.266901 241.829791 
L 103.706217 269.035492 
L 104.145533 230.13313 
L 105.024165 261.721577 
L 105.463481 249.403513 
L 105.902797 261.595847 
L 106.342113 258.544993 
L 106.781429 257.215154 
L 107.220745 241.89571 
L 107.660062 284.904598 
L 108.099378 258.384877 
L 108.538694 256.154714 
L 108.97801 248.854439 
L 109.417326 245.379724 
L 109.856642 249.031697 
L 110.735274 260.220456 
L 111.17459 250.725953 
L 111.613906 266.693493 
L 112.053222 231.591188 
L 112.492538 254.005496 
L 112.931854 248.466208 
L 113.37117 282.034627 
L 113.810486 260.557306 
L 114.249802 255.585504 
L 114.689118 254.896506 
L 115.128434 244.64369 
L 115.56775 260.776644 
L 116.007066 250.569053 
L 116.446382 248.95575 
L 116.885698 270.389563 
L 117.325014 263.798732 
L 117.76433 246.507853 
L 118.203646 259.321998 
L 118.642962 264.627282 
L 119.082278 245.572996 
L 119.521594 251.885101 
L 119.96091 277.037965 
L 120.400226 250.325045 
L 120.839542 263.457262 
L 121.278858 267.130688 
L 121.718174 244.110229 
L 122.15749 263.516944 
L 122.596806 268.757486 
L 123.036123 244.097219 
L 123.914755 277.85685 
L 124.354071 249.040155 
L 124.793387 268.712444 
L 125.232703 263.733551 
L 125.672019 244.934844 
L 126.111335 244.054592 
L 126.550651 256.637209 
L 126.989967 260.650634 
L 127.429283 236.869985 
L 127.868599 261.652479 
L 128.307915 248.588281 
L 128.747231 253.343635 
L 129.186547 259.891107 
L 129.625863 263.832904 
L 130.065179 283.187074 
L 130.504495 241.405278 
L 130.943811 253.99305 
L 131.383127 261.656982 
L 131.822443 262.450575 
L 132.261759 265.536632 
L 132.701075 255.622412 
L 133.140391 273.562548 
L 133.579707 256.645221 
L 134.019023 257.709934 
L 134.458339 242.832306 
L 134.897655 272.06659 
L 135.336971 245.668175 
L 135.776287 249.45287 
L 136.215603 242.096905 
L 136.654919 267.912056 
L 137.094235 278.247554 
L 137.972868 259.414941 
L 138.412184 239.999527 
L 138.8515 249.535458 
L 139.730132 262.704024 
L 140.608764 264.752505 
L 141.04808 273.747194 
L 141.487396 291.014869 
L 141.926712 271.438393 
L 142.366028 257.653794 
L 142.805344 267.897222 
L 143.24466 250.123197 
L 143.683976 276.85536 
L 144.123292 270.603261 
L 145.001924 251.506829 
L 145.44124 259.665446 
L 145.880556 263.444036 
L 146.319872 258.633013 
L 146.759188 264.695601 
L 147.198504 280.036296 
L 147.63782 273.429134 
L 148.516452 251.835091 
L 148.955768 270.311867 
L 149.395084 266.246618 
L 149.8344 253.365843 
L 150.273716 271.027648 
L 150.713032 245.33574 
L 151.152348 272.006107 
L 151.591664 259.537723 
L 152.03098 258.230496 
L 152.470296 263.942851 
L 152.909612 279.822455 
L 153.348929 271.707036 
L 153.788245 260.50932 
L 154.227561 263.517051 
L 154.666877 268.778656 
L 155.106193 264.080132 
L 155.545509 272.904123 
L 155.984825 250.279393 
L 156.424141 264.754694 
L 156.863457 258.248832 
L 157.302773 263.357765 
L 157.742089 262.892945 
L 158.181405 259.367282 
L 158.620721 237.892746 
L 159.060037 261.094938 
L 159.499353 245.920744 
L 159.938669 250.340829 
L 160.377985 257.175469 
L 160.817301 269.936655 
L 161.256617 253.78809 
L 161.695933 264.316308 
L 162.135249 285.29699 
L 162.574565 254.424429 
L 163.013881 271.657215 
L 163.453197 276.257628 
L 164.331829 257.015207 
L 164.771145 258.009949 
L 165.210461 267.845441 
L 165.649777 258.417764 
L 166.089093 260.805296 
L 166.528409 239.444502 
L 167.407041 274.274316 
L 167.846357 263.799562 
L 168.285674 261.787387 
L 168.72499 253.875908 
L 169.164306 250.254907 
L 169.603622 275.216534 
L 170.042938 246.65713 
L 170.482254 246.010421 
L 170.92157 241.333064 
L 171.360886 244.455322 
L 171.800202 262.215197 
L 172.239518 264.260744 
L 172.678834 278.45822 
L 173.11815 240.60913 
L 173.557466 265.485554 
L 173.996782 255.709557 
L 174.436098 257.749457 
L 174.875414 258.719246 
L 175.31473 265.593588 
L 175.754046 245.670005 
L 176.193362 269.604249 
L 176.632678 242.008058 
L 177.51131 266.339091 
L 177.950626 252.384337 
L 178.829258 266.799508 
L 179.268574 258.891104 
L 179.70789 283.073021 
L 180.147206 262.147132 
L 180.586522 259.118399 
L 181.025838 235.750451 
L 181.465154 269.521439 
L 181.90447 268.152592 
L 182.343786 283.217389 
L 182.783102 257.344642 
L 183.222419 260.595382 
L 183.661735 261.693085 
L 184.540367 276.426239 
L 184.979683 238.928638 
L 185.418999 281.830391 
L 185.858315 245.093942 
L 186.297631 259.240339 
L 186.736947 263.929325 
L 187.176263 265.689106 
L 187.615579 253.806459 
L 188.054895 259.678564 
L 188.494211 256.962682 
L 189.372843 261.660891 
L 189.812159 261.046253 
L 190.251475 209.316216 
L 190.690791 282.2794 
L 191.130107 246.499312 
L 191.569423 241.968183 
L 192.008739 264.956695 
L 192.448055 281.400893 
L 192.887371 258.741688 
L 193.326687 258.996945 
L 193.766003 285.538421 
L 194.644635 259.351516 
L 195.083951 259.007322 
L 195.523267 226.644364 
L 195.962583 269.375985 
L 196.401899 251.694259 
L 196.841215 268.672914 
L 197.280531 242.472833 
L 197.719847 259.234781 
L 198.159163 249.515554 
L 198.59848 257.907798 
L 199.037796 264.107067 
L 199.477112 268.214996 
L 199.916428 241.286805 
L 200.79506 272.040357 
L 201.234376 266.285277 
L 201.673692 246.930988 
L 202.113008 257.387292 
L 202.552324 260.280699 
L 202.99164 269.25679 
L 203.430956 270.349663 
L 203.870272 264.751867 
L 204.309588 275.427862 
L 204.748904 259.422418 
L 205.18822 269.593224 
L 205.627536 263.06541 
L 206.066852 264.669424 
L 206.506168 270.433637 
L 206.945484 255.17226 
L 207.3848 276.874592 
L 207.824116 268.270523 
L 208.263432 268.873375 
L 208.702748 261.552774 
L 209.142064 250.881775 
L 209.58138 250.252533 
L 210.020696 257.624616 
L 210.460012 260.386371 
L 210.899328 280.604636 
L 211.338644 234.322059 
L 211.77796 274.603723 
L 212.217276 271.782388 
L 212.656592 264.89719 
L 213.095908 246.899874 
L 213.535225 271.424965 
L 213.974541 269.399005 
L 214.853173 266.482076 
L 215.292489 266.076137 
L 215.731805 238.248521 
L 216.171121 272.278344 
L 216.610437 248.264271 
L 217.049753 280.810397 
L 217.489069 247.228452 
L 217.928385 280.429563 
L 218.367701 268.03193 
L 218.807017 270.787231 
L 219.246333 246.602863 
L 219.685649 282.312016 
L 220.124965 245.103684 
L 220.564281 259.200206 
L 221.003597 259.285845 
L 221.442913 268.250387 
L 221.882229 254.960876 
L 222.321545 256.597673 
L 222.760861 283.9445 
L 223.200177 246.587548 
L 223.639493 249.908354 
L 224.518125 279.799677 
L 224.957441 287.111494 
L 225.836073 251.167412 
L 226.275389 259.226178 
L 226.714705 274.702216 
L 227.154021 250.099779 
L 227.593337 261.343145 
L 228.032653 282.098595 
L 228.471969 264.859553 
L 228.911286 257.927849 
L 229.350602 266.654425 
L 229.789918 261.100188 
L 230.229234 271.552265 
L 230.66855 252.615275 
L 231.107866 264.058669 
L 231.547182 268.317057 
L 231.986498 280.702264 
L 232.425814 249.228284 
L 232.86513 267.833889 
L 233.304446 268.655532 
L 233.743762 274.981903 
L 234.183078 260.754722 
L 234.622394 266.64034 
L 235.06171 238.349417 
L 235.501026 276.304418 
L 235.940342 247.969359 
L 236.379658 275.447366 
L 236.818974 252.100368 
L 237.25829 295.488 
L 238.136922 257.924741 
L 238.576238 260.84726 
L 239.015554 287.057593 
L 239.45487 256.92227 
L 239.894186 266.967933 
L 240.333502 257.876848 
L 240.772818 284.440157 
L 241.212134 243.519073 
L 241.65145 247.951214 
L 242.090766 269.546552 
L 242.530082 246.700633 
L 242.969398 249.254659 
L 243.408714 260.33144 
L 243.848031 264.635616 
L 244.287347 253.809527 
L 244.726663 239.52945 
L 245.165979 247.688788 
L 245.605295 251.792269 
L 246.044611 275.096322 
L 246.483927 272.072973 
L 246.923243 266.552643 
L 247.362559 265.367648 
L 247.801875 252.478408 
L 248.241191 255.855137 
L 248.680507 251.942587 
L 249.119823 268.768817 
L 249.559139 257.852199 
L 249.998455 277.813802 
L 250.437771 275.10582 
L 250.877087 262.341177 
L 251.316403 261.287373 
L 251.755719 246.111805 
L 252.195035 270.754851 
L 252.634351 271.147552 
L 253.073667 232.734695 
L 253.952299 277.544842 
L 254.391615 268.084218 
L 254.830931 272.7521 
L 255.270247 265.64424 
L 255.709563 265.404896 
L 256.148879 266.380204 
L 256.588195 265.706128 
L 257.027511 254.446721 
L 257.466827 278.872638 
L 257.906143 243.521149 
L 258.345459 267.40709 
L 258.784775 273.012592 
L 259.224092 263.834166 
L 259.663408 250.298576 
L 260.102724 265.52967 
L 260.54204 273.06389 
L 260.981356 255.221876 
L 261.420672 258.013983 
L 261.859988 198.525424 
L 262.299304 258.352622 
L 262.73862 223.513998 
L 263.177936 268.313634 
L 263.617252 246.918583 
L 264.056568 270.354151 
L 264.495884 274.140666 
L 264.9352 241.460926 
L 265.374516 243.985341 
L 266.253148 268.834823 
L 266.692464 262.206569 
L 267.13178 240.419901 
L 267.571096 269.834876 
L 268.010412 246.526672 
L 268.449728 275.682132 
L 268.889044 245.154505 
L 269.32836 257.359856 
L 269.767676 260.186728 
L 270.206992 258.44171 
L 270.646308 242.257642 
L 271.085624 261.998185 
L 271.52494 246.828653 
L 271.964256 248.258964 
L 272.403572 251.35355 
L 272.842888 261.2292 
L 273.282204 261.901595 
L 273.72152 237.190728 
L 274.160837 265.992803 
L 274.600153 257.977928 
L 275.039469 281.798191 
L 275.918101 277.077567 
L 276.357417 245.380759 
L 276.796733 246.19181 
L 277.236049 243.130223 
L 277.675365 237.24469 
L 278.114681 275.859911 
L 278.553997 265.518881 
L 278.993313 245.391636 
L 279.871945 266.946558 
L 280.311261 263.847608 
L 280.750577 280.499212 
L 281.189893 235.104967 
L 281.629209 268.547885 
L 282.068525 276.642983 
L 282.507841 228.025789 
L 282.947157 260.348148 
L 283.386473 284.08943 
L 283.825789 223.678705 
L 284.265105 262.510935 
L 284.704421 241.313654 
L 285.143737 280.559685 
L 285.583053 253.157403 
L 286.022369 267.301479 
L 286.461685 257.789794 
L 286.901001 282.453269 
L 287.340317 252.305156 
L 288.218949 263.876152 
L 288.658265 209.391862 
L 289.097581 266.161181 
L 289.536898 241.747106 
L 289.976214 255.693898 
L 290.41553 279.086327 
L 290.854846 247.499358 
L 291.294162 267.850437 
L 291.733478 249.098253 
L 292.172794 269.738378 
L 292.61211 279.383156 
L 293.051426 243.60198 
L 293.490742 273.040923 
L 293.930058 251.614605 
L 294.369374 265.312834 
L 294.80869 243.930039 
L 295.248006 259.008489 
L 295.687322 253.855488 
L 296.126638 241.166463 
L 296.565954 278.408506 
L 297.00527 261.009276 
L 297.444586 228.073389 
L 297.883902 279.79292 
L 298.323218 254.489313 
L 298.762534 273.317916 
L 299.20185 257.744828 
L 299.641166 237.478636 
L 300.080482 240.91529 
L 300.519798 256.234436 
L 300.959114 243.296699 
L 301.39843 292.606717 
L 301.837746 231.111664 
L 302.277062 267.998809 
L 302.716378 271.02526 
L 303.155694 282.644371 
L 303.59501 250.551537 
L 304.034326 270.321113 
L 304.473643 80.085059 
L 304.912959 207.130629 
L 305.352275 222.101487 
L 305.791591 247.324758 
L 306.230907 245.680268 
L 306.670223 260.417877 
L 307.548855 264.512076 
L 307.988171 261.736881 
L 308.427487 289.837528 
L 308.866803 250.311358 
L 309.306119 254.1095 
L 309.745435 250.91964 
L 310.184751 278.58938 
L 310.624067 244.978574 
L 311.063383 275.007522 
L 311.502699 225.148066 
L 311.942015 260.980952 
L 312.381331 264.483797 
L 312.820647 257.334551 
L 313.259963 236.821598 
L 313.699279 261.889141 
L 314.138595 273.494391 
L 314.577911 251.396616 
L 315.017227 264.876093 
L 315.456543 270.754601 
L 315.895859 244.450087 
L 316.335175 243.950642 
L 316.774491 279.547221 
L 317.213807 261.17758 
L 317.653123 266.675943 
L 318.092439 260.427178 
L 318.531755 250.13519 
L 318.971071 281.247731 
L 319.410388 268.82206 
L 319.849704 275.355611 
L 320.28902 239.897146 
L 320.728336 285.611396 
L 321.606968 238.264332 
L 322.046284 246.633398 
L 322.4856 271.274906 
L 322.924916 268.506822 
L 323.364232 254.944904 
L 323.803548 262.968616 
L 324.242864 265.470109 
L 324.68218 275.937364 
L 325.560812 251.086073 
L 326.000128 251.213887 
L 326.439444 255.573404 
L 326.87876 232.31464 
L 327.318076 255.888541 
L 327.757392 258.078417 
L 328.196708 266.100735 
L 328.636024 240.662202 
L 329.07534 267.468822 
L 329.514656 261.720004 
L 329.953972 238.845715 
L 330.393288 273.952715 
L 330.832604 256.673352 
L 331.27192 256.704247 
L 331.711236 266.415925 
L 332.150552 262.616856 
L 332.589868 254.024948 
L 333.029184 268.172163 
L 333.4685 257.817886 
L 334.347132 272.566751 
L 334.786449 271.304491 
L 335.225765 239.653238 
L 335.665081 253.012478 
L 336.104397 250.793065 
L 336.543713 263.32262 
L 337.861661 275.952907 
L 338.300977 272.274027 
L 338.740293 262.705114 
L 339.179609 281.207047 
L 339.618925 241.510173 
L 340.058241 267.183925 
L 340.497557 261.426695 
L 340.936873 224.760181 
L 341.376189 259.826931 
L 341.815505 256.144869 
L 342.694137 285.375683 
L 343.133453 259.286915 
L 343.572769 257.653542 
L 344.012085 273.684486 
L 344.451401 249.346803 
L 344.890717 253.284521 
L 345.330033 251.92026 
L 345.769349 281.921753 
L 346.208665 269.892288 
L 346.647981 269.476798 
L 347.087297 289.060472 
L 347.526613 272.72044 
L 348.405245 257.001418 
L 348.844561 270.390911 
L 349.283877 256.791011 
L 349.723194 252.076697 
L 350.16251 283.624421 
L 350.601826 281.072321 
L 351.480458 254.456235 
L 351.919774 264.835848 
L 352.35909 260.892877 
L 352.798406 245.74816 
L 353.237722 262.118638 
L 353.677038 237.783416 
L 354.116354 261.269194 
L 354.55567 277.594093 
L 354.994986 59.690199 
L 355.434302 266.669562 
L 355.873618 264.536929 
L 356.75225 251.381282 
L 357.191566 260.201081 
L 357.630882 287.456997 
L 358.070198 259.150578 
L 358.509514 272.362366 
L 358.94883 264.926621 
L 359.388146 271.822914 
L 359.827462 252.123532 
L 360.266778 249.07589 
L 360.706094 264.012692 
L 361.584726 250.176084 
L 362.024042 264.950259 
L 362.902674 256.317437 
L 363.34199 272.032348 
L 363.781306 201.750007 
L 364.659938 271.229309 
L 365.099255 250.858761 
L 365.538571 284.945043 
L 365.977887 284.326548 
L 366.417203 246.539052 
L 366.856519 284.891897 
L 367.295835 254.282185 
L 367.735151 273.237315 
L 368.613783 258.073964 
L 369.053099 261.299848 
L 369.492415 272.532626 
L 369.931731 265.714961 
L 370.371047 252.824548 
L 370.810363 281.834424 
L 371.249679 265.764724 
L 371.688995 242.99481 
L 372.128311 273.232557 
L 372.567627 276.960282 
L 373.006943 272.351574 
L 373.446259 248.310399 
L 373.885575 255.481474 
L 374.324891 258.694605 
L 374.764207 258.315131 
L 375.203523 255.236858 
L 375.642839 255.961462 
L 376.082155 266.579592 
L 376.521471 265.508544 
L 376.960787 248.070028 
L 377.400103 236.355273 
L 377.839419 243.092621 
L 378.718051 280.856882 
L 379.157367 232.892102 
L 379.596683 265.720573 
L 380.036 281.255398 
L 380.475316 258.375284 
L 380.914632 273.271542 
L 381.353948 272.901162 
L 381.793264 278.341849 
L 382.23258 263.217903 
L 382.671896 253.463066 
L 383.111212 255.318247 
L 383.550528 263.246438 
L 383.989844 255.473266 
L 384.42916 259.306721 
L 384.868476 241.532703 
L 385.747108 270.183877 
L 386.186424 254.975754 
L 386.62574 272.443419 
L 387.065056 260.263284 
L 387.504372 244.474744 
L 388.383004 265.945257 
L 388.82232 265.26498 
L 389.261636 253.797464 
L 389.700952 265.005065 
L 390.140268 279.246473 
L 390.579584 279.124237 
L 391.0189 252.426611 
L 391.458216 276.470473 
L 391.897532 252.385238 
L 392.336848 238.5426 
L 392.776164 240.667676 
L 393.21548 268.610249 
L 393.654796 252.747103 
L 394.094112 253.299472 
L 394.972744 265.88556 
L 395.412061 276.696067 
L 395.851377 266.892168 
L 396.290693 238.064469 
L 396.730009 251.658259 
L 397.169325 261.324785 
L 398.047957 249.30172 
L 398.487273 270.897905 
L 398.487273 270.897905 
" style="fill:none;stroke:#ff7f0e;stroke-linecap:square;stroke-width:1.5;"/>
   </g>
   <g id="patch_3">
    <path d="M 57.6 307.584 
L 57.6 41.472 
" style="fill:none;stroke:#000000;stroke-linecap:square;stroke-linejoin:miter;stroke-width:0.8;"/>
   </g>
   <g id="patch_4">
    <path d="M 414.72 307.584 
L 414.72 41.472 
" style="fill:none;stroke:#000000;stroke-linecap:square;stroke-linejoin:miter;stroke-width:0.8;"/>
   </g>
   <g id="patch_5">
    <path d="M 57.6 307.584 
L 414.72 307.584 
" style="fill:none;stroke:#000000;stroke-linecap:square;stroke-linejoin:miter;stroke-width:0.8;"/>
   </g>
   <g id="patch_6">
    <path d="M 57.6 41.472 
L 414.72 41.472 
" style="fill:none;stroke:#000000;stroke-linecap:square;stroke-linejoin:miter;stroke-width:0.8;"/>
   </g>
   <g id="legend_1">
    <g id="patch_7">
     <path d="M 184.2225 78.82825 
L 288.0975 78.82825 
Q 290.0975 78.82825 290.0975 76.82825 
L 290.0975 48.472 
Q 290.0975 46.472 288.0975 46.472 
L 184.2225 46.472 
Q 182.2225 46.472 182.2225 48.472 
L 182.2225 76.82825 
Q 182.2225 78.82825 184.2225 78.82825 
z
" style="fill:#ffffff;opacity:0.8;stroke:#cccccc;stroke-linejoin:miter;"/>
    </g>
    <g id="line2d_15">
     <path d="M 186.2225 54.570437 
L 206.2225 54.570437 
" style="fill:none;stroke:#1f77b4;stroke-linecap:square;stroke-width:1.5;"/>
    </g>
    <g id="line2d_16"/>
    <g id="text_14">
     <!-- Train loss -->
     <g transform="translate(214.2225 58.070437)scale(0.1 -0.1)">
      <defs>
       <path d="M -19 4666 
L 3928 4666 
L 3928 4134 
L 2272 4134 
L 2272 0 
L 1638 0 
L 1638 4134 
L -19 4134 
L -19 4666 
z
" id="DejaVuSans-54" transform="scale(0.015625)"/>
       <path d="M 2631 2963 
Q 2534 3019 2420 3045 
Q 2306 3072 2169 3072 
Q 1681 3072 1420 2755 
Q 1159 2438 1159 1844 
L 1159 0 
L 581 0 
L 581 3500 
L 1159 3500 
L 1159 2956 
Q 1341 3275 1631 3429 
Q 1922 3584 2338 3584 
Q 2397 3584 2469 3576 
Q 2541 3569 2628 3553 
L 2631 2963 
z
" id="DejaVuSans-72" transform="scale(0.015625)"/>
       <path d="M 2194 1759 
Q 1497 1759 1228 1600 
Q 959 1441 959 1056 
Q 959 750 1161 570 
Q 1363 391 1709 391 
Q 2188 391 2477 730 
Q 2766 1069 2766 1631 
L 2766 1759 
L 2194 1759 
z
M 3341 1997 
L 3341 0 
L 2766 0 
L 2766 531 
Q 2569 213 2275 61 
Q 1981 -91 1556 -91 
Q 1019 -91 701 211 
Q 384 513 384 1019 
Q 384 1609 779 1909 
Q 1175 2209 1959 2209 
L 2766 2209 
L 2766 2266 
Q 2766 2663 2505 2880 
Q 2244 3097 1772 3097 
Q 1472 3097 1187 3025 
Q 903 2953 641 2809 
L 641 3341 
Q 956 3463 1253 3523 
Q 1550 3584 1831 3584 
Q 2591 3584 2966 3190 
Q 3341 2797 3341 1997 
z
" id="DejaVuSans-61" transform="scale(0.015625)"/>
       <path d="M 603 3500 
L 1178 3500 
L 1178 0 
L 603 0 
L 603 3500 
z
M 603 4863 
L 1178 4863 
L 1178 4134 
L 603 4134 
L 603 4863 
z
" id="DejaVuSans-69" transform="scale(0.015625)"/>
       <path d="M 3513 2113 
L 3513 0 
L 2938 0 
L 2938 2094 
Q 2938 2591 2744 2837 
Q 2550 3084 2163 3084 
Q 1697 3084 1428 2787 
Q 1159 2491 1159 1978 
L 1159 0 
L 581 0 
L 581 3500 
L 1159 3500 
L 1159 2956 
Q 1366 3272 1645 3428 
Q 1925 3584 2291 3584 
Q 2894 3584 3203 3211 
Q 3513 2838 3513 2113 
z
" id="DejaVuSans-6e" transform="scale(0.015625)"/>
       <path id="DejaVuSans-20" transform="scale(0.015625)"/>
       <path d="M 603 4863 
L 1178 4863 
L 1178 0 
L 603 0 
L 603 4863 
z
" id="DejaVuSans-6c" transform="scale(0.015625)"/>
       <path d="M 2834 3397 
L 2834 2853 
Q 2591 2978 2328 3040 
Q 2066 3103 1784 3103 
Q 1356 3103 1142 2972 
Q 928 2841 928 2578 
Q 928 2378 1081 2264 
Q 1234 2150 1697 2047 
L 1894 2003 
Q 2506 1872 2764 1633 
Q 3022 1394 3022 966 
Q 3022 478 2636 193 
Q 2250 -91 1575 -91 
Q 1294 -91 989 -36 
Q 684 19 347 128 
L 347 722 
Q 666 556 975 473 
Q 1284 391 1588 391 
Q 1994 391 2212 530 
Q 2431 669 2431 922 
Q 2431 1156 2273 1281 
Q 2116 1406 1581 1522 
L 1381 1569 
Q 847 1681 609 1914 
Q 372 2147 372 2553 
Q 372 3047 722 3315 
Q 1072 3584 1716 3584 
Q 2034 3584 2315 3537 
Q 2597 3491 2834 3397 
z
" id="DejaVuSans-73" transform="scale(0.015625)"/>
      </defs>
      <use xlink:href="#DejaVuSans-54"/>
      <use x="46.333984" xlink:href="#DejaVuSans-72"/>
      <use x="87.447266" xlink:href="#DejaVuSans-61"/>
      <use x="148.726562" xlink:href="#DejaVuSans-69"/>
      <use x="176.509766" xlink:href="#DejaVuSans-6e"/>
      <use x="239.888672" xlink:href="#DejaVuSans-20"/>
      <use x="271.675781" xlink:href="#DejaVuSans-6c"/>
      <use x="299.458984" xlink:href="#DejaVuSans-6f"/>
      <use x="360.640625" xlink:href="#DejaVuSans-73"/>
      <use x="412.740234" xlink:href="#DejaVuSans-73"/>
     </g>
    </g>
    <g id="line2d_17">
     <path d="M 186.2225 69.248562 
L 206.2225 69.248562 
" style="fill:none;stroke:#ff7f0e;stroke-linecap:square;stroke-width:1.5;"/>
    </g>
    <g id="line2d_18"/>
    <g id="text_15">
     <!-- Validation loss -->
     <g transform="translate(214.2225 72.748562)scale(0.1 -0.1)">
      <defs>
       <path d="M 1831 0 
L 50 4666 
L 709 4666 
L 2188 738 
L 3669 4666 
L 4325 4666 
L 2547 0 
L 1831 0 
z
" id="DejaVuSans-56" transform="scale(0.015625)"/>
       <path d="M 2906 2969 
L 2906 4863 
L 3481 4863 
L 3481 0 
L 2906 0 
L 2906 525 
Q 2725 213 2448 61 
Q 2172 -91 1784 -91 
Q 1150 -91 751 415 
Q 353 922 353 1747 
Q 353 2572 751 3078 
Q 1150 3584 1784 3584 
Q 2172 3584 2448 3432 
Q 2725 3281 2906 2969 
z
M 947 1747 
Q 947 1113 1208 752 
Q 1469 391 1925 391 
Q 2381 391 2643 752 
Q 2906 1113 2906 1747 
Q 2906 2381 2643 2742 
Q 2381 3103 1925 3103 
Q 1469 3103 1208 2742 
Q 947 2381 947 1747 
z
" id="DejaVuSans-64" transform="scale(0.015625)"/>
       <path d="M 1172 4494 
L 1172 3500 
L 2356 3500 
L 2356 3053 
L 1172 3053 
L 1172 1153 
Q 1172 725 1289 603 
Q 1406 481 1766 481 
L 2356 481 
L 2356 0 
L 1766 0 
Q 1100 0 847 248 
Q 594 497 594 1153 
L 594 3053 
L 172 3053 
L 172 3500 
L 594 3500 
L 594 4494 
L 1172 4494 
z
" id="DejaVuSans-74" transform="scale(0.015625)"/>
      </defs>
      <use xlink:href="#DejaVuSans-56"/>
      <use x="60.658203" xlink:href="#DejaVuSans-61"/>
      <use x="121.9375" xlink:href="#DejaVuSans-6c"/>
      <use x="149.720703" xlink:href="#DejaVuSans-69"/>
      <use x="177.503906" xlink:href="#DejaVuSans-64"/>
      <use x="240.980469" xlink:href="#DejaVuSans-61"/>
      <use x="302.259766" xlink:href="#DejaVuSans-74"/>
      <use x="341.46875" xlink:href="#DejaVuSans-69"/>
      <use x="369.251953" xlink:href="#DejaVuSans-6f"/>
      <use x="430.433594" xlink:href="#DejaVuSans-6e"/>
      <use x="493.8125" xlink:href="#DejaVuSans-20"/>
      <use x="525.599609" xlink:href="#DejaVuSans-6c"/>
      <use x="553.382812" xlink:href="#DejaVuSans-6f"/>
      <use x="614.564453" xlink:href="#DejaVuSans-73"/>
      <use x="666.664062" xlink:href="#DejaVuSans-73"/>
     </g>
    </g>
   </g>
  </g>
 </g>
 <defs>
  <clipPath id="p7b2d508b64">
   <rect height="266.112" width="357.12" x="57.6" y="41.472"/>
  </clipPath>
 </defs>
</svg>
