<?xml version="1.0" encoding="utf-8" standalone="no"?>
<!DOCTYPE svg PUBLIC "-//W3C//DTD SVG 1.1//EN"
  "http://www.w3.org/Graphics/SVG/1.1/DTD/svg11.dtd">
<svg height="345.6pt" version="1.1" viewBox="0 0 460.8 345.6" width="460.8pt" xmlns="http://www.w3.org/2000/svg" xmlns:xlink="http://www.w3.org/1999/xlink">
 <metadata>
  <rdf:RDF xmlns:cc="http://creativecommons.org/ns#" xmlns:dc="http://purl.org/dc/elements/1.1/" xmlns:rdf="http://www.w3.org/1999/02/22-rdf-syntax-ns#">
   <cc:Work>
    <dc:type rdf:resource="http://purl.org/dc/dcmitype/StillImage"/>
    <dc:date>2021-07-23T14:33:39.348151</dc:date>
    <dc:format>image/svg+xml</dc:format>
    <dc:creator>
     <cc:Agent>
      <dc:title>Matplotlib v3.4.2, https://matplotlib.org/</dc:title>
     </cc:Agent>
    </dc:creator>
   </cc:Work>
  </rdf:RDF>
 </metadata>
 <defs>
  <style type="text/css">*{stroke-linecap:butt;stroke-linejoin:round;}</style>
 </defs>
 <g id="figure_1">
  <g id="patch_1">
   <path d="M 0 345.6 
L 460.8 345.6 
L 460.8 0 
L 0 0 
z
" style="fill:#ffffff;"/>
  </g>
  <g id="axes_1">
   <g id="patch_2">
    <path d="M 57.6 307.584 
L 414.72 307.584 
L 414.72 41.472 
L 57.6 41.472 
z
" style="fill:#ffffff;"/>
   </g>
   <g id="matplotlib.axis_1">
    <g id="xtick_1">
     <g id="line2d_1">
      <defs>
       <path d="M 0 0 
L 0 3.5 
" id="m22718277f9" style="stroke:#000000;stroke-width:0.8;"/>
      </defs>
      <g>
       <use style="stroke:#000000;stroke-width:0.8;" x="73.393411" xlink:href="#m22718277f9" y="307.584"/>
      </g>
     </g>
     <g id="text_1">
      <!-- 0 -->
      <g transform="translate(70.212161 322.182437)scale(0.1 -0.1)">
       <defs>
        <path d="M 2034 4250 
Q 1547 4250 1301 3770 
Q 1056 3291 1056 2328 
Q 1056 1369 1301 889 
Q 1547 409 2034 409 
Q 2525 409 2770 889 
Q 3016 1369 3016 2328 
Q 3016 3291 2770 3770 
Q 2525 4250 2034 4250 
z
M 2034 4750 
Q 2819 4750 3233 4129 
Q 3647 3509 3647 2328 
Q 3647 1150 3233 529 
Q 2819 -91 2034 -91 
Q 1250 -91 836 529 
Q 422 1150 422 2328 
Q 422 3509 836 4129 
Q 1250 4750 2034 4750 
z
" id="DejaVuSans-30" transform="scale(0.015625)"/>
       </defs>
       <use xlink:href="#DejaVuSans-30"/>
      </g>
     </g>
    </g>
    <g id="xtick_2">
     <g id="line2d_2">
      <g>
       <use style="stroke:#000000;stroke-width:0.8;" x="117.325014" xlink:href="#m22718277f9" y="307.584"/>
      </g>
     </g>
     <g id="text_2">
      <!-- 100 -->
      <g transform="translate(107.781264 322.182437)scale(0.1 -0.1)">
       <defs>
        <path d="M 794 531 
L 1825 531 
L 1825 4091 
L 703 3866 
L 703 4441 
L 1819 4666 
L 2450 4666 
L 2450 531 
L 3481 531 
L 3481 0 
L 794 0 
L 794 531 
z
" id="DejaVuSans-31" transform="scale(0.015625)"/>
       </defs>
       <use xlink:href="#DejaVuSans-31"/>
       <use x="63.623047" xlink:href="#DejaVuSans-30"/>
       <use x="127.246094" xlink:href="#DejaVuSans-30"/>
      </g>
     </g>
    </g>
    <g id="xtick_3">
     <g id="line2d_3">
      <g>
       <use style="stroke:#000000;stroke-width:0.8;" x="161.256617" xlink:href="#m22718277f9" y="307.584"/>
      </g>
     </g>
     <g id="text_3">
      <!-- 200 -->
      <g transform="translate(151.712867 322.182437)scale(0.1 -0.1)">
       <defs>
        <path d="M 1228 531 
L 3431 531 
L 3431 0 
L 469 0 
L 469 531 
Q 828 903 1448 1529 
Q 2069 2156 2228 2338 
Q 2531 2678 2651 2914 
Q 2772 3150 2772 3378 
Q 2772 3750 2511 3984 
Q 2250 4219 1831 4219 
Q 1534 4219 1204 4116 
Q 875 4013 500 3803 
L 500 4441 
Q 881 4594 1212 4672 
Q 1544 4750 1819 4750 
Q 2544 4750 2975 4387 
Q 3406 4025 3406 3419 
Q 3406 3131 3298 2873 
Q 3191 2616 2906 2266 
Q 2828 2175 2409 1742 
Q 1991 1309 1228 531 
z
" id="DejaVuSans-32" transform="scale(0.015625)"/>
       </defs>
       <use xlink:href="#DejaVuSans-32"/>
       <use x="63.623047" xlink:href="#DejaVuSans-30"/>
       <use x="127.246094" xlink:href="#DejaVuSans-30"/>
      </g>
     </g>
    </g>
    <g id="xtick_4">
     <g id="line2d_4">
      <g>
       <use style="stroke:#000000;stroke-width:0.8;" x="205.18822" xlink:href="#m22718277f9" y="307.584"/>
      </g>
     </g>
     <g id="text_4">
      <!-- 300 -->
      <g transform="translate(195.64447 322.182437)scale(0.1 -0.1)">
       <defs>
        <path d="M 2597 2516 
Q 3050 2419 3304 2112 
Q 3559 1806 3559 1356 
Q 3559 666 3084 287 
Q 2609 -91 1734 -91 
Q 1441 -91 1130 -33 
Q 819 25 488 141 
L 488 750 
Q 750 597 1062 519 
Q 1375 441 1716 441 
Q 2309 441 2620 675 
Q 2931 909 2931 1356 
Q 2931 1769 2642 2001 
Q 2353 2234 1838 2234 
L 1294 2234 
L 1294 2753 
L 1863 2753 
Q 2328 2753 2575 2939 
Q 2822 3125 2822 3475 
Q 2822 3834 2567 4026 
Q 2313 4219 1838 4219 
Q 1578 4219 1281 4162 
Q 984 4106 628 3988 
L 628 4550 
Q 988 4650 1302 4700 
Q 1616 4750 1894 4750 
Q 2613 4750 3031 4423 
Q 3450 4097 3450 3541 
Q 3450 3153 3228 2886 
Q 3006 2619 2597 2516 
z
" id="DejaVuSans-33" transform="scale(0.015625)"/>
       </defs>
       <use xlink:href="#DejaVuSans-33"/>
       <use x="63.623047" xlink:href="#DejaVuSans-30"/>
       <use x="127.246094" xlink:href="#DejaVuSans-30"/>
      </g>
     </g>
    </g>
    <g id="xtick_5">
     <g id="line2d_5">
      <g>
       <use style="stroke:#000000;stroke-width:0.8;" x="249.119823" xlink:href="#m22718277f9" y="307.584"/>
      </g>
     </g>
     <g id="text_5">
      <!-- 400 -->
      <g transform="translate(239.576073 322.182437)scale(0.1 -0.1)">
       <defs>
        <path d="M 2419 4116 
L 825 1625 
L 2419 1625 
L 2419 4116 
z
M 2253 4666 
L 3047 4666 
L 3047 1625 
L 3713 1625 
L 3713 1100 
L 3047 1100 
L 3047 0 
L 2419 0 
L 2419 1100 
L 313 1100 
L 313 1709 
L 2253 4666 
z
" id="DejaVuSans-34" transform="scale(0.015625)"/>
       </defs>
       <use xlink:href="#DejaVuSans-34"/>
       <use x="63.623047" xlink:href="#DejaVuSans-30"/>
       <use x="127.246094" xlink:href="#DejaVuSans-30"/>
      </g>
     </g>
    </g>
    <g id="xtick_6">
     <g id="line2d_6">
      <g>
       <use style="stroke:#000000;stroke-width:0.8;" x="293.051426" xlink:href="#m22718277f9" y="307.584"/>
      </g>
     </g>
     <g id="text_6">
      <!-- 500 -->
      <g transform="translate(283.507676 322.182437)scale(0.1 -0.1)">
       <defs>
        <path d="M 691 4666 
L 3169 4666 
L 3169 4134 
L 1269 4134 
L 1269 2991 
Q 1406 3038 1543 3061 
Q 1681 3084 1819 3084 
Q 2600 3084 3056 2656 
Q 3513 2228 3513 1497 
Q 3513 744 3044 326 
Q 2575 -91 1722 -91 
Q 1428 -91 1123 -41 
Q 819 9 494 109 
L 494 744 
Q 775 591 1075 516 
Q 1375 441 1709 441 
Q 2250 441 2565 725 
Q 2881 1009 2881 1497 
Q 2881 1984 2565 2268 
Q 2250 2553 1709 2553 
Q 1456 2553 1204 2497 
Q 953 2441 691 2322 
L 691 4666 
z
" id="DejaVuSans-35" transform="scale(0.015625)"/>
       </defs>
       <use xlink:href="#DejaVuSans-35"/>
       <use x="63.623047" xlink:href="#DejaVuSans-30"/>
       <use x="127.246094" xlink:href="#DejaVuSans-30"/>
      </g>
     </g>
    </g>
    <g id="xtick_7">
     <g id="line2d_7">
      <g>
       <use style="stroke:#000000;stroke-width:0.8;" x="336.983029" xlink:href="#m22718277f9" y="307.584"/>
      </g>
     </g>
     <g id="text_7">
      <!-- 600 -->
      <g transform="translate(327.439279 322.182437)scale(0.1 -0.1)">
       <defs>
        <path d="M 2113 2584 
Q 1688 2584 1439 2293 
Q 1191 2003 1191 1497 
Q 1191 994 1439 701 
Q 1688 409 2113 409 
Q 2538 409 2786 701 
Q 3034 994 3034 1497 
Q 3034 2003 2786 2293 
Q 2538 2584 2113 2584 
z
M 3366 4563 
L 3366 3988 
Q 3128 4100 2886 4159 
Q 2644 4219 2406 4219 
Q 1781 4219 1451 3797 
Q 1122 3375 1075 2522 
Q 1259 2794 1537 2939 
Q 1816 3084 2150 3084 
Q 2853 3084 3261 2657 
Q 3669 2231 3669 1497 
Q 3669 778 3244 343 
Q 2819 -91 2113 -91 
Q 1303 -91 875 529 
Q 447 1150 447 2328 
Q 447 3434 972 4092 
Q 1497 4750 2381 4750 
Q 2619 4750 2861 4703 
Q 3103 4656 3366 4563 
z
" id="DejaVuSans-36" transform="scale(0.015625)"/>
       </defs>
       <use xlink:href="#DejaVuSans-36"/>
       <use x="63.623047" xlink:href="#DejaVuSans-30"/>
       <use x="127.246094" xlink:href="#DejaVuSans-30"/>
      </g>
     </g>
    </g>
    <g id="xtick_8">
     <g id="line2d_8">
      <g>
       <use style="stroke:#000000;stroke-width:0.8;" x="380.914632" xlink:href="#m22718277f9" y="307.584"/>
      </g>
     </g>
     <g id="text_8">
      <!-- 700 -->
      <g transform="translate(371.370882 322.182437)scale(0.1 -0.1)">
       <defs>
        <path d="M 525 4666 
L 3525 4666 
L 3525 4397 
L 1831 0 
L 1172 0 
L 2766 4134 
L 525 4134 
L 525 4666 
z
" id="DejaVuSans-37" transform="scale(0.015625)"/>
       </defs>
       <use xlink:href="#DejaVuSans-37"/>
       <use x="63.623047" xlink:href="#DejaVuSans-30"/>
       <use x="127.246094" xlink:href="#DejaVuSans-30"/>
      </g>
     </g>
    </g>
    <g id="text_9">
     <!-- Epoch -->
     <g transform="translate(213.193594 339.659781)scale(0.15 -0.15)">
      <defs>
       <path d="M 628 4666 
L 3578 4666 
L 3578 4134 
L 1259 4134 
L 1259 2753 
L 3481 2753 
L 3481 2222 
L 1259 2222 
L 1259 531 
L 3634 531 
L 3634 0 
L 628 0 
L 628 4666 
z
" id="DejaVuSans-45" transform="scale(0.015625)"/>
       <path d="M 1159 525 
L 1159 -1331 
L 581 -1331 
L 581 3500 
L 1159 3500 
L 1159 2969 
Q 1341 3281 1617 3432 
Q 1894 3584 2278 3584 
Q 2916 3584 3314 3078 
Q 3713 2572 3713 1747 
Q 3713 922 3314 415 
Q 2916 -91 2278 -91 
Q 1894 -91 1617 61 
Q 1341 213 1159 525 
z
M 3116 1747 
Q 3116 2381 2855 2742 
Q 2594 3103 2138 3103 
Q 1681 3103 1420 2742 
Q 1159 2381 1159 1747 
Q 1159 1113 1420 752 
Q 1681 391 2138 391 
Q 2594 391 2855 752 
Q 3116 1113 3116 1747 
z
" id="DejaVuSans-70" transform="scale(0.015625)"/>
       <path d="M 1959 3097 
Q 1497 3097 1228 2736 
Q 959 2375 959 1747 
Q 959 1119 1226 758 
Q 1494 397 1959 397 
Q 2419 397 2687 759 
Q 2956 1122 2956 1747 
Q 2956 2369 2687 2733 
Q 2419 3097 1959 3097 
z
M 1959 3584 
Q 2709 3584 3137 3096 
Q 3566 2609 3566 1747 
Q 3566 888 3137 398 
Q 2709 -91 1959 -91 
Q 1206 -91 779 398 
Q 353 888 353 1747 
Q 353 2609 779 3096 
Q 1206 3584 1959 3584 
z
" id="DejaVuSans-6f" transform="scale(0.015625)"/>
       <path d="M 3122 3366 
L 3122 2828 
Q 2878 2963 2633 3030 
Q 2388 3097 2138 3097 
Q 1578 3097 1268 2742 
Q 959 2388 959 1747 
Q 959 1106 1268 751 
Q 1578 397 2138 397 
Q 2388 397 2633 464 
Q 2878 531 3122 666 
L 3122 134 
Q 2881 22 2623 -34 
Q 2366 -91 2075 -91 
Q 1284 -91 818 406 
Q 353 903 353 1747 
Q 353 2603 823 3093 
Q 1294 3584 2113 3584 
Q 2378 3584 2631 3529 
Q 2884 3475 3122 3366 
z
" id="DejaVuSans-63" transform="scale(0.015625)"/>
       <path d="M 3513 2113 
L 3513 0 
L 2938 0 
L 2938 2094 
Q 2938 2591 2744 2837 
Q 2550 3084 2163 3084 
Q 1697 3084 1428 2787 
Q 1159 2491 1159 1978 
L 1159 0 
L 581 0 
L 581 4863 
L 1159 4863 
L 1159 2956 
Q 1366 3272 1645 3428 
Q 1925 3584 2291 3584 
Q 2894 3584 3203 3211 
Q 3513 2838 3513 2113 
z
" id="DejaVuSans-68" transform="scale(0.015625)"/>
      </defs>
      <use xlink:href="#DejaVuSans-45"/>
      <use x="63.183594" xlink:href="#DejaVuSans-70"/>
      <use x="126.660156" xlink:href="#DejaVuSans-6f"/>
      <use x="187.841797" xlink:href="#DejaVuSans-63"/>
      <use x="242.822266" xlink:href="#DejaVuSans-68"/>
     </g>
    </g>
   </g>
   <g id="matplotlib.axis_2">
    <g id="ytick_1">
     <g id="line2d_9">
      <defs>
       <path d="M 0 0 
L -3.5 0 
" id="m25607f4aeb" style="stroke:#000000;stroke-width:0.8;"/>
      </defs>
      <g>
       <use style="stroke:#000000;stroke-width:0.8;" x="57.6" xlink:href="#m25607f4aeb" y="307.584"/>
      </g>
     </g>
     <g id="text_10">
      <!-- 0.0 -->
      <g transform="translate(34.696875 311.383219)scale(0.1 -0.1)">
       <defs>
        <path d="M 684 794 
L 1344 794 
L 1344 0 
L 684 0 
L 684 794 
z
" id="DejaVuSans-2e" transform="scale(0.015625)"/>
       </defs>
       <use xlink:href="#DejaVuSans-30"/>
       <use x="63.623047" xlink:href="#DejaVuSans-2e"/>
       <use x="95.410156" xlink:href="#DejaVuSans-30"/>
      </g>
     </g>
    </g>
    <g id="ytick_2">
     <g id="line2d_10">
      <g>
       <use style="stroke:#000000;stroke-width:0.8;" x="57.6" xlink:href="#m25607f4aeb" y="254.3616"/>
      </g>
     </g>
     <g id="text_11">
      <!-- 0.2 -->
      <g transform="translate(34.696875 258.160819)scale(0.1 -0.1)">
       <use xlink:href="#DejaVuSans-30"/>
       <use x="63.623047" xlink:href="#DejaVuSans-2e"/>
       <use x="95.410156" xlink:href="#DejaVuSans-32"/>
      </g>
     </g>
    </g>
    <g id="ytick_3">
     <g id="line2d_11">
      <g>
       <use style="stroke:#000000;stroke-width:0.8;" x="57.6" xlink:href="#m25607f4aeb" y="201.1392"/>
      </g>
     </g>
     <g id="text_12">
      <!-- 0.4 -->
      <g transform="translate(34.696875 204.938419)scale(0.1 -0.1)">
       <use xlink:href="#DejaVuSans-30"/>
       <use x="63.623047" xlink:href="#DejaVuSans-2e"/>
       <use x="95.410156" xlink:href="#DejaVuSans-34"/>
      </g>
     </g>
    </g>
    <g id="ytick_4">
     <g id="line2d_12">
      <g>
       <use style="stroke:#000000;stroke-width:0.8;" x="57.6" xlink:href="#m25607f4aeb" y="147.9168"/>
      </g>
     </g>
     <g id="text_13">
      <!-- 0.6 -->
      <g transform="translate(34.696875 151.716019)scale(0.1 -0.1)">
       <use xlink:href="#DejaVuSans-30"/>
       <use x="63.623047" xlink:href="#DejaVuSans-2e"/>
       <use x="95.410156" xlink:href="#DejaVuSans-36"/>
      </g>
     </g>
    </g>
    <g id="ytick_5">
     <g id="line2d_13">
      <g>
       <use style="stroke:#000000;stroke-width:0.8;" x="57.6" xlink:href="#m25607f4aeb" y="94.6944"/>
      </g>
     </g>
     <g id="text_14">
      <!-- 0.8 -->
      <g transform="translate(34.696875 98.493619)scale(0.1 -0.1)">
       <defs>
        <path d="M 2034 2216 
Q 1584 2216 1326 1975 
Q 1069 1734 1069 1313 
Q 1069 891 1326 650 
Q 1584 409 2034 409 
Q 2484 409 2743 651 
Q 3003 894 3003 1313 
Q 3003 1734 2745 1975 
Q 2488 2216 2034 2216 
z
M 1403 2484 
Q 997 2584 770 2862 
Q 544 3141 544 3541 
Q 544 4100 942 4425 
Q 1341 4750 2034 4750 
Q 2731 4750 3128 4425 
Q 3525 4100 3525 3541 
Q 3525 3141 3298 2862 
Q 3072 2584 2669 2484 
Q 3125 2378 3379 2068 
Q 3634 1759 3634 1313 
Q 3634 634 3220 271 
Q 2806 -91 2034 -91 
Q 1263 -91 848 271 
Q 434 634 434 1313 
Q 434 1759 690 2068 
Q 947 2378 1403 2484 
z
M 1172 3481 
Q 1172 3119 1398 2916 
Q 1625 2713 2034 2713 
Q 2441 2713 2670 2916 
Q 2900 3119 2900 3481 
Q 2900 3844 2670 4047 
Q 2441 4250 2034 4250 
Q 1625 4250 1398 4047 
Q 1172 3844 1172 3481 
z
" id="DejaVuSans-38" transform="scale(0.015625)"/>
       </defs>
       <use xlink:href="#DejaVuSans-30"/>
       <use x="63.623047" xlink:href="#DejaVuSans-2e"/>
       <use x="95.410156" xlink:href="#DejaVuSans-38"/>
      </g>
     </g>
    </g>
    <g id="ytick_6">
     <g id="line2d_14">
      <g>
       <use style="stroke:#000000;stroke-width:0.8;" x="57.6" xlink:href="#m25607f4aeb" y="41.472"/>
      </g>
     </g>
     <g id="text_15">
      <!-- 1.0 -->
      <g transform="translate(34.696875 45.271219)scale(0.1 -0.1)">
       <use xlink:href="#DejaVuSans-31"/>
       <use x="63.623047" xlink:href="#DejaVuSans-2e"/>
       <use x="95.410156" xlink:href="#DejaVuSans-30"/>
      </g>
     </g>
    </g>
    <g id="text_16">
     <!-- Accuracy -->
     <g transform="translate(27.577344 208.770187)rotate(-90)scale(0.15 -0.15)">
      <defs>
       <path d="M 2188 4044 
L 1331 1722 
L 3047 1722 
L 2188 4044 
z
M 1831 4666 
L 2547 4666 
L 4325 0 
L 3669 0 
L 3244 1197 
L 1141 1197 
L 716 0 
L 50 0 
L 1831 4666 
z
" id="DejaVuSans-41" transform="scale(0.015625)"/>
       <path d="M 544 1381 
L 544 3500 
L 1119 3500 
L 1119 1403 
Q 1119 906 1312 657 
Q 1506 409 1894 409 
Q 2359 409 2629 706 
Q 2900 1003 2900 1516 
L 2900 3500 
L 3475 3500 
L 3475 0 
L 2900 0 
L 2900 538 
Q 2691 219 2414 64 
Q 2138 -91 1772 -91 
Q 1169 -91 856 284 
Q 544 659 544 1381 
z
M 1991 3584 
L 1991 3584 
z
" id="DejaVuSans-75" transform="scale(0.015625)"/>
       <path d="M 2631 2963 
Q 2534 3019 2420 3045 
Q 2306 3072 2169 3072 
Q 1681 3072 1420 2755 
Q 1159 2438 1159 1844 
L 1159 0 
L 581 0 
L 581 3500 
L 1159 3500 
L 1159 2956 
Q 1341 3275 1631 3429 
Q 1922 3584 2338 3584 
Q 2397 3584 2469 3576 
Q 2541 3569 2628 3553 
L 2631 2963 
z
" id="DejaVuSans-72" transform="scale(0.015625)"/>
       <path d="M 2194 1759 
Q 1497 1759 1228 1600 
Q 959 1441 959 1056 
Q 959 750 1161 570 
Q 1363 391 1709 391 
Q 2188 391 2477 730 
Q 2766 1069 2766 1631 
L 2766 1759 
L 2194 1759 
z
M 3341 1997 
L 3341 0 
L 2766 0 
L 2766 531 
Q 2569 213 2275 61 
Q 1981 -91 1556 -91 
Q 1019 -91 701 211 
Q 384 513 384 1019 
Q 384 1609 779 1909 
Q 1175 2209 1959 2209 
L 2766 2209 
L 2766 2266 
Q 2766 2663 2505 2880 
Q 2244 3097 1772 3097 
Q 1472 3097 1187 3025 
Q 903 2953 641 2809 
L 641 3341 
Q 956 3463 1253 3523 
Q 1550 3584 1831 3584 
Q 2591 3584 2966 3190 
Q 3341 2797 3341 1997 
z
" id="DejaVuSans-61" transform="scale(0.015625)"/>
       <path d="M 2059 -325 
Q 1816 -950 1584 -1140 
Q 1353 -1331 966 -1331 
L 506 -1331 
L 506 -850 
L 844 -850 
Q 1081 -850 1212 -737 
Q 1344 -625 1503 -206 
L 1606 56 
L 191 3500 
L 800 3500 
L 1894 763 
L 2988 3500 
L 3597 3500 
L 2059 -325 
z
" id="DejaVuSans-79" transform="scale(0.015625)"/>
      </defs>
      <use xlink:href="#DejaVuSans-41"/>
      <use x="66.658203" xlink:href="#DejaVuSans-63"/>
      <use x="121.638672" xlink:href="#DejaVuSans-63"/>
      <use x="176.619141" xlink:href="#DejaVuSans-75"/>
      <use x="239.998047" xlink:href="#DejaVuSans-72"/>
      <use x="281.111328" xlink:href="#DejaVuSans-61"/>
      <use x="342.390625" xlink:href="#DejaVuSans-63"/>
      <use x="397.371094" xlink:href="#DejaVuSans-79"/>
     </g>
    </g>
   </g>
   <g id="line2d_15">
    <path clip-path="url(#pdccd6d312f)" d="M 73.832727 276.98112 
L 74.272043 284.96448 
L 74.711359 276.98112 
L 75.150675 288.95616 
L 75.589991 283.63392 
L 76.468623 280.9728 
L 76.907939 283.63392 
L 77.347256 282.30336 
L 77.786572 279.64224 
L 78.225888 271.65888 
L 78.665204 278.31168 
L 79.10452 274.32 
L 79.543836 262.34496 
L 79.983152 263.67552 
L 80.422468 266.33664 
L 80.861784 267.6672 
L 81.3011 257.02272 
L 81.740416 253.03104 
L 82.179732 257.02272 
L 82.619048 247.7088 
L 83.058364 250.36992 
L 83.49768 250.36992 
L 83.936996 246.37824 
L 84.376312 250.36992 
L 84.815628 235.73376 
L 85.254944 246.37824 
L 85.69426 231.74208 
L 86.133576 250.36992 
L 86.572892 231.74208 
L 87.012208 233.07264 
L 87.451524 233.07264 
L 87.89084 203.80032 
L 88.330156 226.41984 
L 88.769472 209.12256 
L 89.208788 213.11424 
L 89.648104 219.76704 
L 90.526736 194.4864 
L 90.966052 206.46144 
L 91.844684 179.85024 
L 92.284 193.15584 
L 92.723317 185.17248 
L 93.162633 179.85024 
L 93.601949 185.17248 
L 94.041265 161.2224 
L 94.480581 147.9168 
L 94.919897 161.2224 
L 95.359213 167.8752 
L 95.798529 126.62784 
L 96.237845 157.23072 
L 96.677161 134.6112 
L 97.116477 149.24736 
L 97.555793 129.28896 
L 97.995109 146.58624 
L 98.434425 146.58624 
L 98.873741 127.9584 
L 99.313057 141.264 
L 99.752373 126.62784 
L 100.191689 127.9584 
L 100.631005 142.59456 
L 101.070321 114.6528 
L 101.509637 129.28896 
L 101.948953 139.93344 
L 102.388269 133.28064 
L 102.827585 121.3056 
L 103.266901 113.32224 
L 103.706217 114.6528 
L 104.145533 119.97504 
L 104.584849 98.68608 
L 105.024165 115.98336 
L 105.463481 108 
L 105.902797 110.66112 
L 106.781429 102.67776 
L 107.220745 110.66112 
L 107.660062 101.3472 
L 108.538694 92.03328 
L 108.97801 101.3472 
L 109.417326 102.67776 
L 109.856642 117.31392 
L 110.295958 102.67776 
L 110.735274 100.01664 
L 111.17459 104.00832 
L 111.613906 93.36384 
L 112.492538 93.36384 
L 112.931854 88.0416 
L 113.37117 89.37216 
L 113.810486 84.04992 
L 114.249802 100.01664 
L 114.689118 97.35552 
L 115.128434 88.0416 
L 115.56775 94.6944 
L 116.007066 89.37216 
L 116.446382 90.70272 
L 116.885698 93.36384 
L 117.325014 93.36384 
L 117.76433 97.35552 
L 118.203646 92.03328 
L 118.642962 77.39712 
L 119.082278 81.3888 
L 119.521594 76.06656 
L 119.96091 77.39712 
L 120.400226 82.71936 
L 120.839542 82.71936 
L 121.278858 84.04992 
L 121.718174 94.6944 
L 122.15749 89.37216 
L 122.596806 89.37216 
L 123.036123 84.04992 
L 123.475439 96.02496 
L 123.914755 80.05824 
L 124.354071 81.3888 
L 124.793387 84.04992 
L 125.232703 70.74432 
L 125.672019 82.71936 
L 126.111335 84.04992 
L 126.550651 66.75264 
L 126.989967 82.71936 
L 127.429283 74.736 
L 127.868599 81.3888 
L 128.307915 93.36384 
L 128.747231 65.42208 
L 129.186547 64.09152 
L 129.625863 66.75264 
L 130.065179 60.09984 
L 130.504495 82.71936 
L 130.943811 58.76928 
L 131.383127 60.09984 
L 132.261759 73.40544 
L 132.701075 65.42208 
L 133.140391 77.39712 
L 133.579707 77.39712 
L 134.019023 70.74432 
L 134.458339 73.40544 
L 134.897655 84.04992 
L 135.336971 64.09152 
L 135.776287 80.05824 
L 136.215603 66.75264 
L 136.654919 62.76096 
L 137.094235 73.40544 
L 137.533551 52.11648 
L 137.972868 50.78592 
L 138.412184 76.06656 
L 138.8515 70.74432 
L 139.290816 77.39712 
L 139.730132 90.70272 
L 140.169448 65.42208 
L 140.608764 54.7776 
L 141.04808 69.41376 
L 141.487396 64.09152 
L 141.926712 85.38048 
L 142.366028 61.4304 
L 143.24466 56.10816 
L 143.683976 60.09984 
L 144.123292 56.10816 
L 144.562608 62.76096 
L 145.001924 77.39712 
L 145.880556 54.7776 
L 146.319872 56.10816 
L 146.759188 54.7776 
L 147.198504 70.74432 
L 147.63782 60.09984 
L 148.077136 72.07488 
L 148.516452 66.75264 
L 148.955768 56.10816 
L 149.395084 66.75264 
L 149.8344 61.4304 
L 150.273716 68.0832 
L 150.713032 69.41376 
L 151.152348 74.736 
L 151.591664 64.09152 
L 152.470296 61.4304 
L 152.909612 50.78592 
L 153.348929 54.7776 
L 153.788245 64.09152 
L 154.227561 70.74432 
L 154.666877 54.7776 
L 155.106193 68.0832 
L 155.984825 57.43872 
L 156.863457 72.07488 
L 157.302773 65.42208 
L 157.742089 61.4304 
L 158.181405 58.76928 
L 158.620721 61.4304 
L 159.060037 65.42208 
L 159.499353 72.07488 
L 160.377985 64.09152 
L 160.817301 62.76096 
L 161.256617 69.41376 
L 161.695933 64.09152 
L 162.135249 54.7776 
L 162.574565 68.0832 
L 163.013881 70.74432 
L 163.892513 56.10816 
L 164.331829 80.05824 
L 164.771145 62.76096 
L 165.210461 56.10816 
L 166.089093 74.736 
L 166.528409 56.10816 
L 166.967725 58.76928 
L 167.407041 69.41376 
L 167.846357 76.06656 
L 168.72499 57.43872 
L 169.164306 58.76928 
L 169.603622 62.76096 
L 170.042938 64.09152 
L 170.482254 52.11648 
L 170.92157 57.43872 
L 171.360886 65.42208 
L 171.800202 58.76928 
L 172.239518 58.76928 
L 172.678834 69.41376 
L 173.11815 72.07488 
L 173.557466 64.09152 
L 173.996782 60.09984 
L 174.875414 70.74432 
L 175.31473 64.09152 
L 175.754046 60.09984 
L 176.193362 54.7776 
L 176.632678 64.09152 
L 177.071994 58.76928 
L 177.51131 60.09984 
L 177.950626 64.09152 
L 178.389942 60.09984 
L 178.829258 61.4304 
L 179.268574 56.10816 
L 179.70789 69.41376 
L 180.147206 76.06656 
L 180.586522 61.4304 
L 181.025838 52.11648 
L 181.465154 68.0832 
L 181.90447 58.76928 
L 182.343786 56.10816 
L 182.783102 45.46368 
L 183.661735 66.75264 
L 184.101051 58.76928 
L 184.540367 65.42208 
L 184.979683 68.0832 
L 185.418999 68.0832 
L 185.858315 53.44704 
L 186.297631 60.09984 
L 186.736947 56.10816 
L 187.176263 76.06656 
L 187.615579 70.74432 
L 188.054895 72.07488 
L 188.494211 66.75264 
L 189.372843 50.78592 
L 189.812159 56.10816 
L 190.251475 64.09152 
L 190.690791 61.4304 
L 191.569423 82.71936 
L 192.008739 78.72768 
L 192.448055 61.4304 
L 192.887371 73.40544 
L 193.326687 56.10816 
L 194.205319 56.10816 
L 194.644635 57.43872 
L 195.083951 52.11648 
L 195.523267 76.06656 
L 195.962583 57.43872 
L 196.401899 85.38048 
L 196.841215 73.40544 
L 197.280531 76.06656 
L 197.719847 64.09152 
L 198.159163 66.75264 
L 198.59848 57.43872 
L 199.037796 64.09152 
L 199.477112 56.10816 
L 199.916428 60.09984 
L 200.79506 77.39712 
L 201.234376 57.43872 
L 202.113008 65.42208 
L 202.552324 66.75264 
L 202.99164 52.11648 
L 203.430956 68.0832 
L 203.870272 62.76096 
L 204.309588 52.11648 
L 204.748904 82.71936 
L 205.18822 74.736 
L 205.627536 76.06656 
L 206.066852 68.0832 
L 206.506168 56.10816 
L 206.945484 76.06656 
L 207.3848 64.09152 
L 207.824116 58.76928 
L 208.263432 57.43872 
L 208.702748 60.09984 
L 209.142064 60.09984 
L 209.58138 54.7776 
L 210.020696 62.76096 
L 210.460012 49.45536 
L 210.899328 66.75264 
L 211.77796 57.43872 
L 212.217276 53.44704 
L 212.656592 53.44704 
L 213.095908 58.76928 
L 213.535225 57.43872 
L 213.974541 61.4304 
L 214.413857 60.09984 
L 214.853173 72.07488 
L 215.292489 57.43872 
L 215.731805 66.75264 
L 216.171121 92.03328 
L 216.610437 58.76928 
L 217.049753 48.1248 
L 217.489069 57.43872 
L 217.928385 70.74432 
L 218.367701 52.11648 
L 218.807017 57.43872 
L 219.246333 72.07488 
L 219.685649 73.40544 
L 220.124965 80.05824 
L 221.003597 70.74432 
L 221.442913 68.0832 
L 221.882229 61.4304 
L 222.321545 68.0832 
L 222.760861 54.7776 
L 223.200177 53.44704 
L 223.639493 60.09984 
L 224.078809 64.09152 
L 224.518125 60.09984 
L 224.957441 57.43872 
L 225.396757 76.06656 
L 225.836073 77.39712 
L 226.275389 68.0832 
L 226.714705 73.40544 
L 227.154021 61.4304 
L 227.593337 62.76096 
L 228.032653 74.736 
L 228.471969 58.76928 
L 228.911286 57.43872 
L 229.350602 64.09152 
L 230.229234 53.44704 
L 230.66855 62.76096 
L 231.107866 60.09984 
L 231.547182 58.76928 
L 231.986498 61.4304 
L 232.425814 77.39712 
L 232.86513 61.4304 
L 233.304446 62.76096 
L 233.743762 69.41376 
L 234.183078 65.42208 
L 234.622394 60.09984 
L 235.06171 66.75264 
L 235.501026 53.44704 
L 235.940342 60.09984 
L 236.379658 60.09984 
L 236.818974 53.44704 
L 237.25829 56.10816 
L 237.697606 50.78592 
L 238.136922 56.10816 
L 238.576238 58.76928 
L 239.015554 70.74432 
L 239.45487 52.11648 
L 239.894186 69.41376 
L 240.333502 69.41376 
L 240.772818 73.40544 
L 241.212134 62.76096 
L 241.65145 60.09984 
L 242.090766 50.78592 
L 242.530082 61.4304 
L 242.969398 64.09152 
L 243.408714 61.4304 
L 243.848031 66.75264 
L 244.287347 56.10816 
L 244.726663 102.67776 
L 245.165979 72.07488 
L 245.605295 78.72768 
L 246.044611 62.76096 
L 246.483927 66.75264 
L 246.923243 61.4304 
L 247.362559 65.42208 
L 247.801875 56.10816 
L 248.241191 52.11648 
L 248.680507 53.44704 
L 249.119823 58.76928 
L 249.559139 54.7776 
L 249.998455 89.37216 
L 250.877087 52.11648 
L 251.316403 73.40544 
L 251.755719 60.09984 
L 252.195035 60.09984 
L 252.634351 77.39712 
L 253.073667 81.3888 
L 253.512983 78.72768 
L 253.952299 56.10816 
L 254.391615 70.74432 
L 254.830931 69.41376 
L 255.270247 72.07488 
L 255.709563 77.39712 
L 256.148879 58.76928 
L 256.588195 58.76928 
L 257.027511 60.09984 
L 257.466827 69.41376 
L 257.906143 65.42208 
L 258.345459 56.10816 
L 258.784775 57.43872 
L 259.224092 61.4304 
L 259.663408 56.10816 
L 260.102724 57.43872 
L 260.54204 56.10816 
L 260.981356 58.76928 
L 261.420672 49.45536 
L 261.859988 70.74432 
L 262.299304 66.75264 
L 262.73862 68.0832 
L 263.177936 70.74432 
L 263.617252 68.0832 
L 264.056568 56.10816 
L 264.495884 50.78592 
L 264.9352 73.40544 
L 265.374516 74.736 
L 266.253148 54.7776 
L 266.692464 52.11648 
L 267.13178 53.44704 
L 267.571096 49.45536 
L 268.449728 52.11648 
L 268.889044 61.4304 
L 269.32836 66.75264 
L 269.767676 58.76928 
L 270.206992 56.10816 
L 270.646308 66.75264 
L 271.085624 82.71936 
L 271.52494 76.06656 
L 271.964256 65.42208 
L 272.403572 66.75264 
L 272.842888 60.09984 
L 273.282204 70.74432 
L 273.72152 65.42208 
L 274.160837 57.43872 
L 274.600153 57.43872 
L 275.039469 56.10816 
L 275.478785 74.736 
L 275.918101 62.76096 
L 276.357417 69.41376 
L 276.796733 65.42208 
L 277.236049 53.44704 
L 277.675365 61.4304 
L 278.114681 54.7776 
L 278.553997 57.43872 
L 278.993313 77.39712 
L 279.432629 69.41376 
L 279.871945 52.11648 
L 280.311261 58.76928 
L 280.750577 52.11648 
L 282.068525 68.0832 
L 282.507841 57.43872 
L 282.947157 61.4304 
L 283.386473 60.09984 
L 283.825789 62.76096 
L 284.265105 93.36384 
L 284.704421 56.10816 
L 285.143737 58.76928 
L 285.583053 60.09984 
L 286.022369 65.42208 
L 286.461685 76.06656 
L 287.340317 52.11648 
L 287.779633 62.76096 
L 288.218949 50.78592 
L 289.097581 61.4304 
L 289.536898 74.736 
L 289.976214 74.736 
L 290.41553 61.4304 
L 290.854846 56.10816 
L 291.294162 66.75264 
L 291.733478 56.10816 
L 292.172794 69.41376 
L 292.61211 58.76928 
L 293.051426 61.4304 
L 293.490742 57.43872 
L 293.930058 64.09152 
L 294.369374 57.43872 
L 294.80869 56.10816 
L 295.248006 77.39712 
L 295.687322 68.0832 
L 296.126638 66.75264 
L 297.00527 69.41376 
L 297.444586 58.76928 
L 297.883902 64.09152 
L 298.323218 49.45536 
L 298.762534 61.4304 
L 299.20185 53.44704 
L 299.641166 64.09152 
L 300.080482 93.36384 
L 300.519798 66.75264 
L 300.959114 70.74432 
L 301.39843 57.43872 
L 301.837746 57.43872 
L 302.277062 54.7776 
L 302.716378 56.10816 
L 303.155694 86.71104 
L 303.59501 56.10816 
L 304.034326 62.76096 
L 304.473643 93.36384 
L 304.912959 249.03936 
L 305.352275 229.08096 
L 305.791591 137.27232 
L 306.230907 73.40544 
L 306.670223 66.75264 
L 307.109539 64.09152 
L 307.548855 66.75264 
L 307.988171 65.42208 
L 308.427487 56.10816 
L 308.866803 74.736 
L 309.306119 82.71936 
L 309.745435 60.09984 
L 310.184751 69.41376 
L 310.624067 56.10816 
L 311.063383 65.42208 
L 311.502699 57.43872 
L 311.942015 64.09152 
L 312.381331 66.75264 
L 312.820647 72.07488 
L 313.259963 57.43872 
L 313.699279 61.4304 
L 314.138595 78.72768 
L 314.577911 77.39712 
L 315.017227 66.75264 
L 315.456543 74.736 
L 315.895859 73.40544 
L 316.335175 65.42208 
L 316.774491 78.72768 
L 317.213807 54.7776 
L 317.653123 57.43872 
L 318.092439 58.76928 
L 318.531755 73.40544 
L 318.971071 52.11648 
L 319.410388 56.10816 
L 319.849704 52.11648 
L 320.28902 70.74432 
L 320.728336 74.736 
L 321.167652 64.09152 
L 321.606968 60.09984 
L 322.046284 73.40544 
L 322.4856 56.10816 
L 322.924916 58.76928 
L 323.364232 70.74432 
L 323.803548 49.45536 
L 324.242864 50.78592 
L 324.68218 65.42208 
L 325.121496 64.09152 
L 325.560812 52.11648 
L 326.000128 50.78592 
L 326.439444 50.78592 
L 326.87876 64.09152 
L 327.318076 68.0832 
L 327.757392 57.43872 
L 328.196708 65.42208 
L 328.636024 76.06656 
L 329.07534 76.06656 
L 329.514656 64.09152 
L 329.953972 65.42208 
L 330.393288 62.76096 
L 330.832604 64.09152 
L 331.27192 73.40544 
L 331.711236 57.43872 
L 332.150552 64.09152 
L 332.589868 73.40544 
L 333.029184 66.75264 
L 333.4685 54.7776 
L 333.907816 80.05824 
L 334.347132 82.71936 
L 334.786449 65.42208 
L 335.225765 66.75264 
L 335.665081 58.76928 
L 336.104397 70.74432 
L 336.543713 72.07488 
L 336.983029 61.4304 
L 337.861661 61.4304 
L 338.300977 64.09152 
L 338.740293 70.74432 
L 339.179609 64.09152 
L 339.618925 52.11648 
L 340.058241 58.76928 
L 340.497557 70.74432 
L 340.936873 53.44704 
L 341.376189 64.09152 
L 341.815505 62.76096 
L 342.254821 58.76928 
L 342.694137 53.44704 
L 343.133453 58.76928 
L 343.572769 68.0832 
L 344.012085 65.42208 
L 344.451401 60.09984 
L 344.890717 74.736 
L 345.330033 64.09152 
L 345.769349 60.09984 
L 346.208665 54.7776 
L 346.647981 68.0832 
L 347.087297 66.75264 
L 347.526613 61.4304 
L 347.965929 58.76928 
L 348.405245 73.40544 
L 348.844561 70.74432 
L 349.283877 72.07488 
L 349.723194 66.75264 
L 350.16251 66.75264 
L 350.601826 60.09984 
L 351.041142 56.10816 
L 351.480458 62.76096 
L 351.919774 58.76928 
L 352.35909 74.736 
L 352.798406 64.09152 
L 353.237722 66.75264 
L 353.677038 76.06656 
L 354.116354 57.43872 
L 354.55567 54.7776 
L 354.994986 60.09984 
L 355.434302 61.4304 
L 355.873618 53.44704 
L 356.312934 54.7776 
L 356.75225 66.75264 
L 357.191566 68.0832 
L 357.630882 58.76928 
L 358.070198 69.41376 
L 358.509514 66.75264 
L 358.94883 56.10816 
L 359.388146 60.09984 
L 359.827462 44.13312 
L 360.266778 49.45536 
L 360.706094 73.40544 
L 361.14541 81.3888 
L 361.584726 57.43872 
L 362.024042 58.76928 
L 362.463358 57.43872 
L 362.902674 53.44704 
L 363.34199 57.43872 
L 363.781306 166.54464 
L 364.659938 65.42208 
L 365.099255 70.74432 
L 365.538571 56.10816 
L 366.417203 61.4304 
L 366.856519 57.43872 
L 367.295835 72.07488 
L 368.174467 52.11648 
L 368.613783 62.76096 
L 369.053099 64.09152 
L 369.492415 56.10816 
L 369.931731 62.76096 
L 370.371047 82.71936 
L 370.810363 57.43872 
L 371.249679 60.09984 
L 371.688995 81.3888 
L 372.128311 64.09152 
L 372.567627 56.10816 
L 373.446259 53.44704 
L 373.885575 72.07488 
L 374.324891 82.71936 
L 374.764207 68.0832 
L 375.203523 58.76928 
L 375.642839 60.09984 
L 376.082155 52.11648 
L 376.521471 54.7776 
L 376.960787 62.76096 
L 377.400103 78.72768 
L 377.839419 60.09984 
L 378.278735 62.76096 
L 378.718051 66.75264 
L 379.157367 90.70272 
L 379.596683 72.07488 
L 380.036 74.736 
L 380.475316 69.41376 
L 380.914632 61.4304 
L 381.353948 68.0832 
L 381.793264 66.75264 
L 382.23258 50.78592 
L 382.671896 54.7776 
L 383.111212 62.76096 
L 383.550528 56.10816 
L 383.989844 62.76096 
L 384.42916 73.40544 
L 384.868476 73.40544 
L 385.307792 56.10816 
L 385.747108 48.1248 
L 386.186424 56.10816 
L 386.62574 57.43872 
L 387.065056 74.736 
L 387.504372 86.71104 
L 388.383004 53.44704 
L 388.82232 62.76096 
L 389.261636 49.45536 
L 389.700952 70.74432 
L 390.140268 65.42208 
L 390.579584 49.45536 
L 391.0189 50.78592 
L 391.458216 72.07488 
L 391.897532 58.76928 
L 392.336848 68.0832 
L 392.776164 68.0832 
L 393.21548 74.736 
L 393.654796 52.11648 
L 394.094112 61.4304 
L 394.533428 62.76096 
L 395.412061 74.736 
L 395.851377 62.76096 
L 396.290693 66.75264 
L 396.730009 76.06656 
L 397.169325 57.43872 
L 397.608641 68.0832 
L 398.047957 57.43872 
L 398.487273 61.4304 
L 398.487273 61.4304 
" style="fill:none;stroke:#1f77b4;stroke-linecap:square;stroke-width:1.5;"/>
   </g>
   <g id="line2d_16">
    <path clip-path="url(#pdccd6d312f)" d="M 73.832727 278.134272 
L 74.272043 280.75104 
L 75.150675 280.063584 
L 75.589991 277.003296 
L 77.347256 276.914592 
L 77.786572 276.75936 
L 78.225888 274.76352 
L 78.665204 267.822432 
L 79.10452 265.627008 
L 79.543836 265.582656 
L 79.983152 261.724032 
L 80.422468 262.78848 
L 81.3011 251.944416 
L 81.740416 254.073312 
L 82.619048 248.15232 
L 83.058364 249.327648 
L 83.49768 250.902144 
L 83.936996 256.845312 
L 84.376312 242.231328 
L 84.815628 244.626336 
L 85.254944 242.785728 
L 85.69426 239.370624 
L 86.133576 245.069856 
L 86.572892 228.282624 
L 87.012208 234.868896 
L 87.451524 222.272928 
L 87.89084 220.077504 
L 88.330156 215.154432 
L 88.769472 216.6624 
L 89.208788 205.818336 
L 89.648104 208.102464 
L 90.08742 198.389376 
L 90.526736 208.01376 
L 90.966052 192.135744 
L 91.844684 184.884192 
L 92.284 185.216832 
L 92.723317 181.646496 
L 93.162633 181.1808 
L 93.601949 170.53632 
L 94.041265 172.399104 
L 94.919897 173.574432 
L 95.359213 175.392864 
L 95.798529 170.070624 
L 96.237845 159.980544 
L 96.677161 164.570976 
L 97.116477 154.45872 
L 97.555793 161.510688 
L 97.995109 148.4712 
L 98.873741 160.911936 
L 99.313057 150.57792 
L 99.752373 146.453184 
L 100.191689 149.491296 
L 100.631005 145.632672 
L 101.070321 145.81008 
L 101.509637 145.677024 
L 101.948953 142.727616 
L 102.388269 143.991648 
L 102.827585 140.399136 
L 103.266901 144.900864 
L 103.706217 152.662464 
L 104.145533 157.23072 
L 104.584849 132.948 
L 105.024165 138.225888 
L 105.463481 139.844736 
L 105.902797 146.03184 
L 106.781429 135.60912 
L 107.220745 120.884256 
L 107.660062 136.141344 
L 108.099378 142.616736 
L 108.538694 128.18016 
L 108.97801 125.142048 
L 109.856642 133.968096 
L 110.295958 126.117792 
L 110.735274 125.7408 
L 111.17459 123.5232 
L 111.613906 126.339552 
L 112.053222 126.694368 
L 112.492538 128.867616 
L 112.931854 126.650016 
L 113.37117 131.994432 
L 113.810486 122.63616 
L 114.249802 124.809408 
L 114.689118 118.733184 
L 115.128434 118.001376 
L 115.56775 117.75744 
L 116.007066 128.224512 
L 116.446382 128.06928 
L 116.885698 128.978496 
L 117.325014 117.336096 
L 117.76433 120.839904 
L 118.203646 112.124736 
L 118.642962 114.253632 
L 119.082278 106.469856 
L 119.521594 112.124736 
L 119.96091 114.785856 
L 120.400226 108.044352 
L 120.839542 119.110176 
L 121.278858 124.166304 
L 121.718174 124.121952 
L 122.15749 113.677056 
L 122.596806 119.42064 
L 123.036123 111.304224 
L 123.475439 125.008992 
L 123.914755 117.003456 
L 124.354071 103.276512 
L 124.793387 112.790016 
L 125.232703 125.829504 
L 126.111335 107.800416 
L 126.550651 98.68608 
L 126.989967 113.854464 
L 127.429283 107.866944 
L 127.868599 117.20304 
L 128.307915 117.823968 
L 128.747231 108.953568 
L 129.186547 103.476096 
L 129.625863 102.855168 
L 130.065179 103.875264 
L 130.504495 99.684 
L 130.943811 108.22176 
L 131.383127 108.820512 
L 131.822443 93.873888 
L 132.261759 99.57312 
L 132.701075 100.304928 
L 133.140391 94.317408 
L 133.579707 100.12752 
L 134.019023 113.87664 
L 134.458339 95.115744 
L 134.897655 99.661824 
L 135.336971 96.268896 
L 135.776287 112.013856 
L 136.215603 96.313248 
L 136.654919 104.828832 
L 137.094235 106.869024 
L 137.533551 99.196128 
L 137.972868 98.508672 
L 138.412184 92.299392 
L 138.8515 133.968096 
L 139.290816 101.058912 
L 139.730132 104.074848 
L 140.169448 96.069312 
L 140.608764 109.286208 
L 141.04808 108 
L 141.487396 118.97712 
L 141.926712 100.593216 
L 142.366028 95.736672 
L 142.805344 96.02496 
L 143.24466 88.862112 
L 143.683976 96.778944 
L 144.123292 91.523232 
L 144.562608 96.756768 
L 145.001924 92.875968 
L 145.44124 92.454624 
L 145.880556 102.810816 
L 146.319872 93.629952 
L 146.759188 93.408192 
L 147.198504 93.829536 
L 147.63782 96.202368 
L 148.077136 96.645888 
L 148.516452 95.647968 
L 148.955768 102.300768 
L 149.395084 93.563424 
L 149.8344 90.081792 
L 150.273716 99.839232 
L 150.713032 97.90992 
L 151.152348 105.294528 
L 151.591664 106.11504 
L 152.03098 93.297312 
L 152.909612 90.991008 
L 153.348929 102.433824 
L 153.788245 90.14832 
L 154.227561 91.58976 
L 154.666877 99.661824 
L 155.106193 99.750528 
L 155.545509 92.853792 
L 155.984825 95.426208 
L 156.424141 103.963968 
L 156.863457 93.208608 
L 157.302773 89.92656 
L 157.742089 97.045056 
L 158.181405 94.760928 
L 158.620721 86.60016 
L 159.060037 96.424128 
L 159.499353 96.02496 
L 159.938669 98.68608 
L 160.377985 98.663904 
L 160.817301 107.844768 
L 161.256617 96.867648 
L 161.695933 93.785184 
L 162.135249 94.14 
L 162.574565 87.331968 
L 163.013881 98.619552 
L 163.453197 98.220384 
L 163.892513 92.188512 
L 164.331829 98.419968 
L 164.771145 92.099808 
L 165.210461 94.206528 
L 165.649777 90.835776 
L 166.089093 93.341664 
L 166.528409 87.132384 
L 166.967725 95.91408 
L 167.407041 93.230784 
L 167.846357 97.000704 
L 168.285674 90.503136 
L 168.72499 90.347904 
L 169.164306 94.295232 
L 169.603622 96.80112 
L 170.042938 90.214848 
L 170.482254 92.831616 
L 170.92157 85.513536 
L 171.360886 92.853792 
L 171.800202 88.019424 
L 172.239518 87.021504 
L 172.678834 92.986848 
L 173.11815 88.219008 
L 173.557466 93.740832 
L 173.996782 92.188512 
L 174.436098 99.661824 
L 174.875414 94.02912 
L 175.31473 94.80528 
L 175.754046 80.967456 
L 176.193362 87.198912 
L 176.632678 87.642432 
L 177.071994 100.726272 
L 177.950626 85.358304 
L 178.389942 89.571744 
L 178.829258 87.797664 
L 179.268574 90.614016 
L 179.70789 87.797664 
L 180.147206 90.880128 
L 180.586522 92.875968 
L 181.025838 85.535712 
L 181.465154 94.871808 
L 181.90447 95.825376 
L 182.783102 85.336128 
L 183.661735 102.12336 
L 184.101051 95.071392 
L 184.540367 90.70272 
L 184.979683 102.322944 
L 185.418999 85.757472 
L 185.858315 88.241184 
L 186.297631 83.584224 
L 186.736947 111.21552 
L 187.176263 88.196832 
L 187.615579 96.712416 
L 188.054895 96.889824 
L 188.494211 83.850336 
L 188.933527 85.779648 
L 189.372843 89.48304 
L 189.812159 86.48928 
L 190.251475 101.746368 
L 190.690791 87.620256 
L 191.130107 92.80944 
L 191.569423 125.07552 
L 192.008739 96.091488 
L 192.887371 83.82816 
L 193.326687 90.192672 
L 193.766003 84.848256 
L 194.205319 85.580064 
L 194.644635 85.402656 
L 195.083951 83.71728 
L 195.523267 85.469184 
L 195.962583 92.410272 
L 196.401899 84.582144 
L 196.841215 122.392224 
L 197.280531 99.79488 
L 198.159163 76.28832 
L 198.59848 96.158016 
L 199.037796 87.731136 
L 199.477112 89.837856 
L 199.916428 100.748448 
L 200.355744 90.636192 
L 200.79506 93.563424 
L 201.234376 87.15456 
L 201.673692 83.118528 
L 202.113008 99.417888 
L 202.99164 86.688864 
L 203.430956 96.379776 
L 203.870272 92.121984 
L 204.309588 85.71312 
L 204.748904 104.274432 
L 205.18822 112.346496 
L 205.627536 84.914784 
L 206.066852 98.863488 
L 206.506168 96.712416 
L 206.945484 86.688864 
L 207.3848 89.993088 
L 207.824116 108.288288 
L 208.263432 80.568288 
L 208.702748 88.440768 
L 209.142064 91.58976 
L 209.58138 76.754016 
L 210.020696 89.106048 
L 210.460012 92.232864 
L 210.899328 88.174656 
L 211.338644 90.791424 
L 211.77796 92.521152 
L 212.217276 90.081792 
L 212.656592 85.580064 
L 213.095908 89.128224 
L 213.535225 95.337504 
L 214.413857 84.138624 
L 214.853173 88.019424 
L 215.292489 87.70896 
L 215.731805 89.48304 
L 216.171121 97.155936 
L 216.610437 82.16496 
L 217.049753 87.642432 
L 217.489069 88.573824 
L 217.928385 84.82608 
L 218.367701 89.882208 
L 218.807017 93.186432 
L 219.246333 91.988928 
L 220.124965 102.744288 
L 220.564281 91.567584 
L 221.003597 95.13792 
L 221.442913 89.460864 
L 221.882229 95.13792 
L 222.321545 89.660448 
L 222.760861 97.045056 
L 223.200177 84.426912 
L 223.639493 82.874592 
L 224.078809 84.693024 
L 224.518125 89.771328 
L 224.957441 83.207232 
L 225.396757 104.429664 
L 225.836073 107.090784 
L 226.275389 88.529472 
L 226.714705 89.660448 
L 227.154021 83.074176 
L 227.593337 89.81568 
L 228.032653 92.343744 
L 228.471969 90.059616 
L 228.911286 84.072096 
L 229.350602 86.48928 
L 229.789918 104.695776 
L 230.229234 88.773408 
L 230.66855 98.641728 
L 231.107866 85.60224 
L 231.547182 84.892608 
L 231.986498 86.090112 
L 232.425814 92.742912 
L 232.86513 86.467104 
L 233.304446 87.59808 
L 233.743762 89.438688 
L 234.183078 87.021504 
L 234.622394 85.580064 
L 235.06171 95.936256 
L 235.501026 100.171872 
L 235.940342 85.801824 
L 236.379658 95.093568 
L 236.818974 88.440768 
L 237.25829 85.646592 
L 237.697606 87.775488 
L 238.136922 84.338208 
L 238.576238 92.454624 
L 239.015554 89.793504 
L 239.45487 80.878752 
L 239.894186 85.424832 
L 240.333502 95.603616 
L 240.772818 92.14416 
L 241.212134 106.469856 
L 241.65145 86.023584 
L 242.090766 90.015264 
L 242.530082 84.582144 
L 242.969398 88.440768 
L 243.408714 83.916864 
L 243.848031 90.946656 
L 244.287347 82.031904 
L 244.726663 98.641728 
L 245.165979 127.160064 
L 245.605295 86.688864 
L 246.044611 92.299392 
L 246.483927 87.442848 
L 246.923243 90.747072 
L 247.362559 86.090112 
L 247.801875 85.779648 
L 248.241191 85.824 
L 248.680507 87.93072 
L 249.119823 83.451168 
L 249.559139 82.71936 
L 250.437771 91.767168 
L 250.877087 78.705504 
L 251.316403 85.291776 
L 251.755719 88.773408 
L 252.195035 79.304256 
L 252.634351 105.228 
L 253.073667 102.23424 
L 253.512983 92.343744 
L 253.952299 89.948736 
L 254.391615 86.733216 
L 254.830931 85.49136 
L 255.270247 85.646592 
L 255.709563 101.67984 
L 256.148879 102.699936 
L 257.027511 84.49344 
L 257.466827 87.065856 
L 257.906143 82.763712 
L 258.345459 82.652832 
L 258.784775 90.636192 
L 259.224092 87.309792 
L 259.663408 89.216928 
L 260.102724 90.03744 
L 260.54204 88.884288 
L 260.981356 86.090112 
L 261.420672 89.549568 
L 261.859988 121.904352 
L 262.299304 80.634816 
L 262.73862 105.44976 
L 263.177936 88.773408 
L 263.617252 91.878048 
L 264.056568 83.074176 
L 264.495884 86.9328 
L 264.9352 110.395008 
L 265.374516 92.720736 
L 265.813832 95.071392 
L 266.253148 91.345824 
L 266.692464 91.70064 
L 267.13178 82.098432 
L 267.571096 85.003488 
L 268.010412 79.370784 
L 268.449728 85.846176 
L 268.889044 84.914784 
L 269.32836 93.075552 
L 269.767676 104.030496 
L 270.206992 82.83024 
L 270.646308 85.535712 
L 271.085624 87.465024 
L 271.52494 88.618176 
L 272.403572 83.118528 
L 273.282204 87.132384 
L 273.72152 87.531552 
L 274.160837 92.609856 
L 274.600153 77.574528 
L 275.039469 92.36592 
L 275.478785 95.670144 
L 275.918101 82.874592 
L 276.357417 96.889824 
L 276.796733 92.188512 
L 277.236049 82.785888 
L 277.675365 89.948736 
L 278.553997 83.451168 
L 278.993313 82.918944 
L 279.432629 82.586304 
L 279.871945 85.469184 
L 280.311261 83.029824 
L 280.750577 83.074176 
L 281.189893 82.142784 
L 281.629209 94.14 
L 282.068525 91.70064 
L 282.507841 101.413728 
L 283.386473 92.632032 
L 283.825789 112.080384 
L 284.265105 89.638272 
L 284.704421 93.319488 
L 285.143737 85.71312 
L 286.022369 98.996544 
L 286.461685 86.289696 
L 286.901001 91.323648 
L 287.340317 88.174656 
L 287.779633 91.789344 
L 288.218949 85.025664 
L 288.658265 90.70272 
L 289.097581 89.283456 
L 289.536898 92.80944 
L 289.976214 94.982688 
L 290.41553 89.106048 
L 290.854846 78.195456 
L 291.733478 102.766464 
L 292.172794 95.647968 
L 292.61211 92.454624 
L 293.051426 84.04992 
L 293.490742 85.846176 
L 293.930058 93.075552 
L 294.369374 97.422048 
L 294.80869 99.550944 
L 295.248006 106.66944 
L 295.687322 87.287616 
L 296.126638 91.70064 
L 296.565954 93.341664 
L 297.00527 81.743616 
L 297.444586 95.13792 
L 297.883902 86.954976 
L 298.323218 88.307712 
L 298.762534 90.103968 
L 299.20185 86.733216 
L 299.641166 133.879392 
L 300.519798 103.23216 
L 300.959114 98.087328 
L 301.837746 83.185056 
L 302.277062 83.739456 
L 302.716378 88.529472 
L 303.155694 94.58352 
L 303.59501 86.910624 
L 304.034326 110.10672 
L 304.473643 262.766304 
L 304.912959 215.88624 
L 305.352275 198.744192 
L 305.791591 108.99792 
L 306.230907 92.632032 
L 306.670223 88.085952 
L 307.109539 91.190592 
L 307.548855 89.682624 
L 307.988171 87.287616 
L 308.427487 91.101888 
L 308.866803 116.493408 
L 309.306119 113.410944 
L 309.745435 90.92448 
L 310.184751 90.325728 
L 310.624067 84.759552 
L 311.063383 100.2384 
L 311.502699 108.11088 
L 311.942015 102.433824 
L 312.381331 103.5648 
L 312.820647 86.400576 
L 313.259963 89.061696 
L 313.699279 95.670144 
L 314.138595 106.425504 
L 314.577911 102.034656 
L 315.017227 91.234944 
L 315.456543 94.80528 
L 315.895859 118.245312 
L 316.335175 84.027744 
L 316.774491 92.03328 
L 317.213807 87.620256 
L 317.653123 87.81984 
L 318.092439 84.693024 
L 318.531755 85.247424 
L 318.971071 89.571744 
L 319.410388 88.70688 
L 319.849704 89.970912 
L 320.28902 117.86832 
L 320.728336 87.997248 
L 321.167652 88.751232 
L 322.046284 90.636192 
L 322.4856 97.444224 
L 322.924916 84.49344 
L 323.364232 85.313952 
L 324.242864 96.823296 
L 324.68218 102.23424 
L 325.121496 79.570368 
L 325.560812 78.217632 
L 326.000128 92.720736 
L 326.439444 81.699264 
L 326.87876 98.087328 
L 327.318076 89.682624 
L 327.757392 90.569664 
L 328.196708 93.91824 
L 328.636024 87.59808 
L 329.07534 115.140672 
L 329.514656 88.507296 
L 329.953972 112.701312 
L 330.393288 93.275136 
L 330.832604 85.668768 
L 331.27192 119.575872 
L 331.711236 98.752608 
L 332.150552 89.882208 
L 332.589868 94.80528 
L 333.029184 96.091488 
L 333.4685 86.533632 
L 333.907816 99.550944 
L 334.347132 88.37424 
L 334.786449 91.81152 
L 335.225765 87.442848 
L 336.104397 100.526688 
L 336.543713 89.726976 
L 336.983029 82.808064 
L 337.422345 87.70896 
L 338.300977 121.86 
L 339.179609 93.80736 
L 339.618925 85.801824 
L 340.058241 85.557888 
L 340.497557 89.749152 
L 340.936873 115.118496 
L 341.376189 95.204448 
L 341.815505 81.233568 
L 342.254821 99.284832 
L 342.694137 90.015264 
L 343.133453 90.8136 
L 343.572769 98.597376 
L 344.012085 85.60224 
L 344.451401 112.945248 
L 344.890717 88.241184 
L 345.330033 85.580064 
L 345.769349 88.729056 
L 346.208665 85.291776 
L 346.647981 88.329888 
L 347.087297 87.420672 
L 347.526613 84.426912 
L 347.965929 87.775488 
L 348.405245 95.426208 
L 348.844561 98.331264 
L 349.283877 90.525312 
L 349.723194 90.968832 
L 350.601826 86.112288 
L 351.041142 88.130304 
L 351.480458 88.751232 
L 351.919774 88.70688 
L 352.35909 91.301472 
L 352.798406 88.972992 
L 353.237722 98.930016 
L 353.677038 83.473344 
L 354.116354 87.354144 
L 354.55567 88.972992 
L 354.994986 178.07616 
L 355.434302 95.714496 
L 355.873618 87.110208 
L 356.312934 83.27376 
L 356.75225 88.085952 
L 357.630882 94.539168 
L 358.070198 94.406112 
L 358.509514 88.773408 
L 358.94883 81.233568 
L 359.388146 86.777568 
L 359.827462 82.187136 
L 360.266778 82.652832 
L 361.14541 102.589056 
L 361.584726 87.59808 
L 362.024042 82.763712 
L 362.463358 86.356224 
L 362.902674 83.71728 
L 363.34199 83.362464 
L 363.781306 226.575072 
L 364.220622 108.687456 
L 365.099255 81.566208 
L 365.538571 89.948736 
L 365.977887 92.92032 
L 366.417203 79.126848 
L 366.856519 85.957056 
L 367.295835 88.773408 
L 367.735151 87.110208 
L 368.174467 88.507296 
L 368.613783 84.182976 
L 369.053099 85.003488 
L 369.492415 80.61264 
L 369.931731 90.636192 
L 370.371047 106.602912 
L 370.810363 93.097728 
L 371.249679 84.316032 
L 371.688995 84.360384 
L 372.128311 84.670848 
L 372.567627 89.394336 
L 373.006943 92.299392 
L 373.446259 103.165632 
L 373.885575 80.346528 
L 374.324891 95.869728 
L 374.764207 101.369376 
L 375.203523 83.473344 
L 375.642839 86.334048 
L 376.082155 83.340288 
L 376.521471 85.624416 
L 376.960787 85.247424 
L 377.400103 93.763008 
L 377.839419 87.775488 
L 378.278735 87.952896 
L 378.718051 92.676384 
L 379.157367 121.948704 
L 379.596683 106.8912 
L 380.475316 90.03744 
L 381.353948 101.036736 
L 381.793264 95.270976 
L 382.23258 93.25296 
L 382.671896 92.742912 
L 383.111212 92.787264 
L 383.550528 100.482336 
L 383.989844 92.077632 
L 384.42916 95.758848 
L 384.868476 94.650048 
L 385.307792 83.672928 
L 386.186424 88.884288 
L 386.62574 97.954272 
L 387.065056 89.59392 
L 387.504372 120.551616 
L 387.943688 95.514912 
L 388.383004 95.204448 
L 388.82232 90.658368 
L 389.261636 90.237024 
L 389.700952 95.714496 
L 390.140268 95.58144 
L 390.579584 92.565504 
L 391.0189 93.740832 
L 391.458216 89.549568 
L 391.897532 113.699232 
L 392.336848 103.187808 
L 392.776164 88.130304 
L 393.21548 119.997216 
L 393.654796 87.221088 
L 394.094112 100.881504 
L 394.533428 88.37424 
L 394.972744 101.480256 
L 395.412061 99.196128 
L 395.851377 87.420672 
L 396.290693 119.97504 
L 396.730009 99.617472 
L 397.169325 94.47264 
L 397.608641 86.622336 
L 398.047957 84.93696 
L 398.487273 81.300096 
L 398.487273 81.300096 
" style="fill:none;stroke:#ff7f0e;stroke-linecap:square;stroke-width:1.5;"/>
   </g>
   <g id="patch_3">
    <path d="M 57.6 307.584 
L 57.6 41.472 
" style="fill:none;stroke:#000000;stroke-linecap:square;stroke-linejoin:miter;stroke-width:0.8;"/>
   </g>
   <g id="patch_4">
    <path d="M 414.72 307.584 
L 414.72 41.472 
" style="fill:none;stroke:#000000;stroke-linecap:square;stroke-linejoin:miter;stroke-width:0.8;"/>
   </g>
   <g id="patch_5">
    <path d="M 57.6 307.584 
L 414.72 307.584 
" style="fill:none;stroke:#000000;stroke-linecap:square;stroke-linejoin:miter;stroke-width:0.8;"/>
   </g>
   <g id="patch_6">
    <path d="M 57.6 41.472 
L 414.72 41.472 
" style="fill:none;stroke:#000000;stroke-linecap:square;stroke-linejoin:miter;stroke-width:0.8;"/>
   </g>
   <g id="legend_1">
    <g id="patch_7">
     <path d="M 303.845 302.584 
L 407.72 302.584 
Q 409.72 302.584 409.72 300.584 
L 409.72 272.22775 
Q 409.72 270.22775 407.72 270.22775 
L 303.845 270.22775 
Q 301.845 270.22775 301.845 272.22775 
L 301.845 300.584 
Q 301.845 302.584 303.845 302.584 
z
" style="fill:#ffffff;opacity:0.8;stroke:#cccccc;stroke-linejoin:miter;"/>
    </g>
    <g id="line2d_17">
     <path d="M 305.845 278.326187 
L 325.845 278.326187 
" style="fill:none;stroke:#1f77b4;stroke-linecap:square;stroke-width:1.5;"/>
    </g>
    <g id="line2d_18"/>
    <g id="text_17">
     <!-- Train loss -->
     <g transform="translate(333.845 281.826187)scale(0.1 -0.1)">
      <defs>
       <path d="M -19 4666 
L 3928 4666 
L 3928 4134 
L 2272 4134 
L 2272 0 
L 1638 0 
L 1638 4134 
L -19 4134 
L -19 4666 
z
" id="DejaVuSans-54" transform="scale(0.015625)"/>
       <path d="M 603 3500 
L 1178 3500 
L 1178 0 
L 603 0 
L 603 3500 
z
M 603 4863 
L 1178 4863 
L 1178 4134 
L 603 4134 
L 603 4863 
z
" id="DejaVuSans-69" transform="scale(0.015625)"/>
       <path d="M 3513 2113 
L 3513 0 
L 2938 0 
L 2938 2094 
Q 2938 2591 2744 2837 
Q 2550 3084 2163 3084 
Q 1697 3084 1428 2787 
Q 1159 2491 1159 1978 
L 1159 0 
L 581 0 
L 581 3500 
L 1159 3500 
L 1159 2956 
Q 1366 3272 1645 3428 
Q 1925 3584 2291 3584 
Q 2894 3584 3203 3211 
Q 3513 2838 3513 2113 
z
" id="DejaVuSans-6e" transform="scale(0.015625)"/>
       <path id="DejaVuSans-20" transform="scale(0.015625)"/>
       <path d="M 603 4863 
L 1178 4863 
L 1178 0 
L 603 0 
L 603 4863 
z
" id="DejaVuSans-6c" transform="scale(0.015625)"/>
       <path d="M 2834 3397 
L 2834 2853 
Q 2591 2978 2328 3040 
Q 2066 3103 1784 3103 
Q 1356 3103 1142 2972 
Q 928 2841 928 2578 
Q 928 2378 1081 2264 
Q 1234 2150 1697 2047 
L 1894 2003 
Q 2506 1872 2764 1633 
Q 3022 1394 3022 966 
Q 3022 478 2636 193 
Q 2250 -91 1575 -91 
Q 1294 -91 989 -36 
Q 684 19 347 128 
L 347 722 
Q 666 556 975 473 
Q 1284 391 1588 391 
Q 1994 391 2212 530 
Q 2431 669 2431 922 
Q 2431 1156 2273 1281 
Q 2116 1406 1581 1522 
L 1381 1569 
Q 847 1681 609 1914 
Q 372 2147 372 2553 
Q 372 3047 722 3315 
Q 1072 3584 1716 3584 
Q 2034 3584 2315 3537 
Q 2597 3491 2834 3397 
z
" id="DejaVuSans-73" transform="scale(0.015625)"/>
      </defs>
      <use xlink:href="#DejaVuSans-54"/>
      <use x="46.333984" xlink:href="#DejaVuSans-72"/>
      <use x="87.447266" xlink:href="#DejaVuSans-61"/>
      <use x="148.726562" xlink:href="#DejaVuSans-69"/>
      <use x="176.509766" xlink:href="#DejaVuSans-6e"/>
      <use x="239.888672" xlink:href="#DejaVuSans-20"/>
      <use x="271.675781" xlink:href="#DejaVuSans-6c"/>
      <use x="299.458984" xlink:href="#DejaVuSans-6f"/>
      <use x="360.640625" xlink:href="#DejaVuSans-73"/>
      <use x="412.740234" xlink:href="#DejaVuSans-73"/>
     </g>
    </g>
    <g id="line2d_19">
     <path d="M 305.845 293.004312 
L 325.845 293.004312 
" style="fill:none;stroke:#ff7f0e;stroke-linecap:square;stroke-width:1.5;"/>
    </g>
    <g id="line2d_20"/>
    <g id="text_18">
     <!-- Validation loss -->
     <g transform="translate(333.845 296.504312)scale(0.1 -0.1)">
      <defs>
       <path d="M 1831 0 
L 50 4666 
L 709 4666 
L 2188 738 
L 3669 4666 
L 4325 4666 
L 2547 0 
L 1831 0 
z
" id="DejaVuSans-56" transform="scale(0.015625)"/>
       <path d="M 2906 2969 
L 2906 4863 
L 3481 4863 
L 3481 0 
L 2906 0 
L 2906 525 
Q 2725 213 2448 61 
Q 2172 -91 1784 -91 
Q 1150 -91 751 415 
Q 353 922 353 1747 
Q 353 2572 751 3078 
Q 1150 3584 1784 3584 
Q 2172 3584 2448 3432 
Q 2725 3281 2906 2969 
z
M 947 1747 
Q 947 1113 1208 752 
Q 1469 391 1925 391 
Q 2381 391 2643 752 
Q 2906 1113 2906 1747 
Q 2906 2381 2643 2742 
Q 2381 3103 1925 3103 
Q 1469 3103 1208 2742 
Q 947 2381 947 1747 
z
" id="DejaVuSans-64" transform="scale(0.015625)"/>
       <path d="M 1172 4494 
L 1172 3500 
L 2356 3500 
L 2356 3053 
L 1172 3053 
L 1172 1153 
Q 1172 725 1289 603 
Q 1406 481 1766 481 
L 2356 481 
L 2356 0 
L 1766 0 
Q 1100 0 847 248 
Q 594 497 594 1153 
L 594 3053 
L 172 3053 
L 172 3500 
L 594 3500 
L 594 4494 
L 1172 4494 
z
" id="DejaVuSans-74" transform="scale(0.015625)"/>
      </defs>
      <use xlink:href="#DejaVuSans-56"/>
      <use x="60.658203" xlink:href="#DejaVuSans-61"/>
      <use x="121.9375" xlink:href="#DejaVuSans-6c"/>
      <use x="149.720703" xlink:href="#DejaVuSans-69"/>
      <use x="177.503906" xlink:href="#DejaVuSans-64"/>
      <use x="240.980469" xlink:href="#DejaVuSans-61"/>
      <use x="302.259766" xlink:href="#DejaVuSans-74"/>
      <use x="341.46875" xlink:href="#DejaVuSans-69"/>
      <use x="369.251953" xlink:href="#DejaVuSans-6f"/>
      <use x="430.433594" xlink:href="#DejaVuSans-6e"/>
      <use x="493.8125" xlink:href="#DejaVuSans-20"/>
      <use x="525.599609" xlink:href="#DejaVuSans-6c"/>
      <use x="553.382812" xlink:href="#DejaVuSans-6f"/>
      <use x="614.564453" xlink:href="#DejaVuSans-73"/>
      <use x="666.664062" xlink:href="#DejaVuSans-73"/>
     </g>
    </g>
   </g>
  </g>
 </g>
 <defs>
  <clipPath id="pdccd6d312f">
   <rect height="266.112" width="357.12" x="57.6" y="41.472"/>
  </clipPath>
 </defs>
</svg>
