<?xml version="1.0" encoding="utf-8" standalone="no"?>
<!DOCTYPE svg PUBLIC "-//W3C//DTD SVG 1.1//EN"
  "http://www.w3.org/Graphics/SVG/1.1/DTD/svg11.dtd">
<svg height="345.6pt" version="1.1" viewBox="0 0 460.8 345.6" width="460.8pt" xmlns="http://www.w3.org/2000/svg" xmlns:xlink="http://www.w3.org/1999/xlink">
 <metadata>
  <rdf:RDF xmlns:cc="http://creativecommons.org/ns#" xmlns:dc="http://purl.org/dc/elements/1.1/" xmlns:rdf="http://www.w3.org/1999/02/22-rdf-syntax-ns#">
   <cc:Work>
    <dc:type rdf:resource="http://purl.org/dc/dcmitype/StillImage"/>
    <dc:date>2021-07-16T13:47:59.491364</dc:date>
    <dc:format>image/svg+xml</dc:format>
    <dc:creator>
     <cc:Agent>
      <dc:title>Matplotlib v3.4.2, https://matplotlib.org/</dc:title>
     </cc:Agent>
    </dc:creator>
   </cc:Work>
  </rdf:RDF>
 </metadata>
 <defs>
  <style type="text/css">*{stroke-linecap:butt;stroke-linejoin:round;}</style>
 </defs>
 <g id="figure_1">
  <g id="patch_1">
   <path d="M 0 345.6 
L 460.8 345.6 
L 460.8 0 
L 0 0 
z
" style="fill:#ffffff;"/>
  </g>
  <g id="axes_1">
   <g id="patch_2">
    <path d="M 57.6 307.584 
L 414.72 307.584 
L 414.72 41.472 
L 57.6 41.472 
z
" style="fill:#ffffff;"/>
   </g>
   <g id="matplotlib.axis_1">
    <g id="xtick_1">
     <g id="line2d_1">
      <defs>
       <path d="M 0 0 
L 0 3.5 
" id="m3356b178a2" style="stroke:#000000;stroke-width:0.8;"/>
      </defs>
      <g>
       <use style="stroke:#000000;stroke-width:0.8;" x="73.019057" xlink:href="#m3356b178a2" y="307.584"/>
      </g>
     </g>
     <g id="text_1">
      <!-- 0 -->
      <g transform="translate(69.837807 322.182437)scale(0.1 -0.1)">
       <defs>
        <path d="M 2034 4250 
Q 1547 4250 1301 3770 
Q 1056 3291 1056 2328 
Q 1056 1369 1301 889 
Q 1547 409 2034 409 
Q 2525 409 2770 889 
Q 3016 1369 3016 2328 
Q 3016 3291 2770 3770 
Q 2525 4250 2034 4250 
z
M 2034 4750 
Q 2819 4750 3233 4129 
Q 3647 3509 3647 2328 
Q 3647 1150 3233 529 
Q 2819 -91 2034 -91 
Q 1250 -91 836 529 
Q 422 1150 422 2328 
Q 422 3509 836 4129 
Q 1250 4750 2034 4750 
z
" id="DejaVuSans-30" transform="scale(0.015625)"/>
       </defs>
       <use xlink:href="#DejaVuSans-30"/>
      </g>
     </g>
    </g>
    <g id="xtick_2">
     <g id="line2d_2">
      <g>
       <use style="stroke:#000000;stroke-width:0.8;" x="113.702584" xlink:href="#m3356b178a2" y="307.584"/>
      </g>
     </g>
     <g id="text_2">
      <!-- 50 -->
      <g transform="translate(107.340084 322.182437)scale(0.1 -0.1)">
       <defs>
        <path d="M 691 4666 
L 3169 4666 
L 3169 4134 
L 1269 4134 
L 1269 2991 
Q 1406 3038 1543 3061 
Q 1681 3084 1819 3084 
Q 2600 3084 3056 2656 
Q 3513 2228 3513 1497 
Q 3513 744 3044 326 
Q 2575 -91 1722 -91 
Q 1428 -91 1123 -41 
Q 819 9 494 109 
L 494 744 
Q 775 591 1075 516 
Q 1375 441 1709 441 
Q 2250 441 2565 725 
Q 2881 1009 2881 1497 
Q 2881 1984 2565 2268 
Q 2250 2553 1709 2553 
Q 1456 2553 1204 2497 
Q 953 2441 691 2322 
L 691 4666 
z
" id="DejaVuSans-35" transform="scale(0.015625)"/>
       </defs>
       <use xlink:href="#DejaVuSans-35"/>
       <use x="63.623047" xlink:href="#DejaVuSans-30"/>
      </g>
     </g>
    </g>
    <g id="xtick_3">
     <g id="line2d_3">
      <g>
       <use style="stroke:#000000;stroke-width:0.8;" x="154.386111" xlink:href="#m3356b178a2" y="307.584"/>
      </g>
     </g>
     <g id="text_3">
      <!-- 100 -->
      <g transform="translate(144.842361 322.182437)scale(0.1 -0.1)">
       <defs>
        <path d="M 794 531 
L 1825 531 
L 1825 4091 
L 703 3866 
L 703 4441 
L 1819 4666 
L 2450 4666 
L 2450 531 
L 3481 531 
L 3481 0 
L 794 0 
L 794 531 
z
" id="DejaVuSans-31" transform="scale(0.015625)"/>
       </defs>
       <use xlink:href="#DejaVuSans-31"/>
       <use x="63.623047" xlink:href="#DejaVuSans-30"/>
       <use x="127.246094" xlink:href="#DejaVuSans-30"/>
      </g>
     </g>
    </g>
    <g id="xtick_4">
     <g id="line2d_4">
      <g>
       <use style="stroke:#000000;stroke-width:0.8;" x="195.069638" xlink:href="#m3356b178a2" y="307.584"/>
      </g>
     </g>
     <g id="text_4">
      <!-- 150 -->
      <g transform="translate(185.525888 322.182437)scale(0.1 -0.1)">
       <use xlink:href="#DejaVuSans-31"/>
       <use x="63.623047" xlink:href="#DejaVuSans-35"/>
       <use x="127.246094" xlink:href="#DejaVuSans-30"/>
      </g>
     </g>
    </g>
    <g id="xtick_5">
     <g id="line2d_5">
      <g>
       <use style="stroke:#000000;stroke-width:0.8;" x="235.753165" xlink:href="#m3356b178a2" y="307.584"/>
      </g>
     </g>
     <g id="text_5">
      <!-- 200 -->
      <g transform="translate(226.209415 322.182437)scale(0.1 -0.1)">
       <defs>
        <path d="M 1228 531 
L 3431 531 
L 3431 0 
L 469 0 
L 469 531 
Q 828 903 1448 1529 
Q 2069 2156 2228 2338 
Q 2531 2678 2651 2914 
Q 2772 3150 2772 3378 
Q 2772 3750 2511 3984 
Q 2250 4219 1831 4219 
Q 1534 4219 1204 4116 
Q 875 4013 500 3803 
L 500 4441 
Q 881 4594 1212 4672 
Q 1544 4750 1819 4750 
Q 2544 4750 2975 4387 
Q 3406 4025 3406 3419 
Q 3406 3131 3298 2873 
Q 3191 2616 2906 2266 
Q 2828 2175 2409 1742 
Q 1991 1309 1228 531 
z
" id="DejaVuSans-32" transform="scale(0.015625)"/>
       </defs>
       <use xlink:href="#DejaVuSans-32"/>
       <use x="63.623047" xlink:href="#DejaVuSans-30"/>
       <use x="127.246094" xlink:href="#DejaVuSans-30"/>
      </g>
     </g>
    </g>
    <g id="xtick_6">
     <g id="line2d_6">
      <g>
       <use style="stroke:#000000;stroke-width:0.8;" x="276.436692" xlink:href="#m3356b178a2" y="307.584"/>
      </g>
     </g>
     <g id="text_6">
      <!-- 250 -->
      <g transform="translate(266.892942 322.182437)scale(0.1 -0.1)">
       <use xlink:href="#DejaVuSans-32"/>
       <use x="63.623047" xlink:href="#DejaVuSans-35"/>
       <use x="127.246094" xlink:href="#DejaVuSans-30"/>
      </g>
     </g>
    </g>
    <g id="xtick_7">
     <g id="line2d_7">
      <g>
       <use style="stroke:#000000;stroke-width:0.8;" x="317.120219" xlink:href="#m3356b178a2" y="307.584"/>
      </g>
     </g>
     <g id="text_7">
      <!-- 300 -->
      <g transform="translate(307.576469 322.182437)scale(0.1 -0.1)">
       <defs>
        <path d="M 2597 2516 
Q 3050 2419 3304 2112 
Q 3559 1806 3559 1356 
Q 3559 666 3084 287 
Q 2609 -91 1734 -91 
Q 1441 -91 1130 -33 
Q 819 25 488 141 
L 488 750 
Q 750 597 1062 519 
Q 1375 441 1716 441 
Q 2309 441 2620 675 
Q 2931 909 2931 1356 
Q 2931 1769 2642 2001 
Q 2353 2234 1838 2234 
L 1294 2234 
L 1294 2753 
L 1863 2753 
Q 2328 2753 2575 2939 
Q 2822 3125 2822 3475 
Q 2822 3834 2567 4026 
Q 2313 4219 1838 4219 
Q 1578 4219 1281 4162 
Q 984 4106 628 3988 
L 628 4550 
Q 988 4650 1302 4700 
Q 1616 4750 1894 4750 
Q 2613 4750 3031 4423 
Q 3450 4097 3450 3541 
Q 3450 3153 3228 2886 
Q 3006 2619 2597 2516 
z
" id="DejaVuSans-33" transform="scale(0.015625)"/>
       </defs>
       <use xlink:href="#DejaVuSans-33"/>
       <use x="63.623047" xlink:href="#DejaVuSans-30"/>
       <use x="127.246094" xlink:href="#DejaVuSans-30"/>
      </g>
     </g>
    </g>
    <g id="xtick_8">
     <g id="line2d_8">
      <g>
       <use style="stroke:#000000;stroke-width:0.8;" x="357.803746" xlink:href="#m3356b178a2" y="307.584"/>
      </g>
     </g>
     <g id="text_8">
      <!-- 350 -->
      <g transform="translate(348.259996 322.182437)scale(0.1 -0.1)">
       <use xlink:href="#DejaVuSans-33"/>
       <use x="63.623047" xlink:href="#DejaVuSans-35"/>
       <use x="127.246094" xlink:href="#DejaVuSans-30"/>
      </g>
     </g>
    </g>
    <g id="xtick_9">
     <g id="line2d_9">
      <g>
       <use style="stroke:#000000;stroke-width:0.8;" x="398.487273" xlink:href="#m3356b178a2" y="307.584"/>
      </g>
     </g>
     <g id="text_9">
      <!-- 400 -->
      <g transform="translate(388.943523 322.182437)scale(0.1 -0.1)">
       <defs>
        <path d="M 2419 4116 
L 825 1625 
L 2419 1625 
L 2419 4116 
z
M 2253 4666 
L 3047 4666 
L 3047 1625 
L 3713 1625 
L 3713 1100 
L 3047 1100 
L 3047 0 
L 2419 0 
L 2419 1100 
L 313 1100 
L 313 1709 
L 2253 4666 
z
" id="DejaVuSans-34" transform="scale(0.015625)"/>
       </defs>
       <use xlink:href="#DejaVuSans-34"/>
       <use x="63.623047" xlink:href="#DejaVuSans-30"/>
       <use x="127.246094" xlink:href="#DejaVuSans-30"/>
      </g>
     </g>
    </g>
    <g id="text_10">
     <!-- Epoch -->
     <g transform="translate(213.193594 339.659781)scale(0.15 -0.15)">
      <defs>
       <path d="M 628 4666 
L 3578 4666 
L 3578 4134 
L 1259 4134 
L 1259 2753 
L 3481 2753 
L 3481 2222 
L 1259 2222 
L 1259 531 
L 3634 531 
L 3634 0 
L 628 0 
L 628 4666 
z
" id="DejaVuSans-45" transform="scale(0.015625)"/>
       <path d="M 1159 525 
L 1159 -1331 
L 581 -1331 
L 581 3500 
L 1159 3500 
L 1159 2969 
Q 1341 3281 1617 3432 
Q 1894 3584 2278 3584 
Q 2916 3584 3314 3078 
Q 3713 2572 3713 1747 
Q 3713 922 3314 415 
Q 2916 -91 2278 -91 
Q 1894 -91 1617 61 
Q 1341 213 1159 525 
z
M 3116 1747 
Q 3116 2381 2855 2742 
Q 2594 3103 2138 3103 
Q 1681 3103 1420 2742 
Q 1159 2381 1159 1747 
Q 1159 1113 1420 752 
Q 1681 391 2138 391 
Q 2594 391 2855 752 
Q 3116 1113 3116 1747 
z
" id="DejaVuSans-70" transform="scale(0.015625)"/>
       <path d="M 1959 3097 
Q 1497 3097 1228 2736 
Q 959 2375 959 1747 
Q 959 1119 1226 758 
Q 1494 397 1959 397 
Q 2419 397 2687 759 
Q 2956 1122 2956 1747 
Q 2956 2369 2687 2733 
Q 2419 3097 1959 3097 
z
M 1959 3584 
Q 2709 3584 3137 3096 
Q 3566 2609 3566 1747 
Q 3566 888 3137 398 
Q 2709 -91 1959 -91 
Q 1206 -91 779 398 
Q 353 888 353 1747 
Q 353 2609 779 3096 
Q 1206 3584 1959 3584 
z
" id="DejaVuSans-6f" transform="scale(0.015625)"/>
       <path d="M 3122 3366 
L 3122 2828 
Q 2878 2963 2633 3030 
Q 2388 3097 2138 3097 
Q 1578 3097 1268 2742 
Q 959 2388 959 1747 
Q 959 1106 1268 751 
Q 1578 397 2138 397 
Q 2388 397 2633 464 
Q 2878 531 3122 666 
L 3122 134 
Q 2881 22 2623 -34 
Q 2366 -91 2075 -91 
Q 1284 -91 818 406 
Q 353 903 353 1747 
Q 353 2603 823 3093 
Q 1294 3584 2113 3584 
Q 2378 3584 2631 3529 
Q 2884 3475 3122 3366 
z
" id="DejaVuSans-63" transform="scale(0.015625)"/>
       <path d="M 3513 2113 
L 3513 0 
L 2938 0 
L 2938 2094 
Q 2938 2591 2744 2837 
Q 2550 3084 2163 3084 
Q 1697 3084 1428 2787 
Q 1159 2491 1159 1978 
L 1159 0 
L 581 0 
L 581 4863 
L 1159 4863 
L 1159 2956 
Q 1366 3272 1645 3428 
Q 1925 3584 2291 3584 
Q 2894 3584 3203 3211 
Q 3513 2838 3513 2113 
z
" id="DejaVuSans-68" transform="scale(0.015625)"/>
      </defs>
      <use xlink:href="#DejaVuSans-45"/>
      <use x="63.183594" xlink:href="#DejaVuSans-70"/>
      <use x="126.660156" xlink:href="#DejaVuSans-6f"/>
      <use x="187.841797" xlink:href="#DejaVuSans-63"/>
      <use x="242.822266" xlink:href="#DejaVuSans-68"/>
     </g>
    </g>
   </g>
   <g id="matplotlib.axis_2">
    <g id="ytick_1">
     <g id="line2d_10">
      <defs>
       <path d="M 0 0 
L -3.5 0 
" id="m4e5c929702" style="stroke:#000000;stroke-width:0.8;"/>
      </defs>
      <g>
       <use style="stroke:#000000;stroke-width:0.8;" x="57.6" xlink:href="#m4e5c929702" y="298.089118"/>
      </g>
     </g>
     <g id="text_11">
      <!-- −1200 -->
      <g transform="translate(16.770313 301.888337)scale(0.1 -0.1)">
       <defs>
        <path d="M 678 2272 
L 4684 2272 
L 4684 1741 
L 678 1741 
L 678 2272 
z
" id="DejaVuSans-2212" transform="scale(0.015625)"/>
       </defs>
       <use xlink:href="#DejaVuSans-2212"/>
       <use x="83.789062" xlink:href="#DejaVuSans-31"/>
       <use x="147.412109" xlink:href="#DejaVuSans-32"/>
       <use x="211.035156" xlink:href="#DejaVuSans-30"/>
       <use x="274.658203" xlink:href="#DejaVuSans-30"/>
      </g>
     </g>
    </g>
    <g id="ytick_2">
     <g id="line2d_11">
      <g>
       <use style="stroke:#000000;stroke-width:0.8;" x="57.6" xlink:href="#m4e5c929702" y="253.208596"/>
      </g>
     </g>
     <g id="text_12">
      <!-- −1000 -->
      <g transform="translate(16.770313 257.007815)scale(0.1 -0.1)">
       <use xlink:href="#DejaVuSans-2212"/>
       <use x="83.789062" xlink:href="#DejaVuSans-31"/>
       <use x="147.412109" xlink:href="#DejaVuSans-30"/>
       <use x="211.035156" xlink:href="#DejaVuSans-30"/>
       <use x="274.658203" xlink:href="#DejaVuSans-30"/>
      </g>
     </g>
    </g>
    <g id="ytick_3">
     <g id="line2d_12">
      <g>
       <use style="stroke:#000000;stroke-width:0.8;" x="57.6" xlink:href="#m4e5c929702" y="208.328074"/>
      </g>
     </g>
     <g id="text_13">
      <!-- −800 -->
      <g transform="translate(23.132812 212.127292)scale(0.1 -0.1)">
       <defs>
        <path d="M 2034 2216 
Q 1584 2216 1326 1975 
Q 1069 1734 1069 1313 
Q 1069 891 1326 650 
Q 1584 409 2034 409 
Q 2484 409 2743 651 
Q 3003 894 3003 1313 
Q 3003 1734 2745 1975 
Q 2488 2216 2034 2216 
z
M 1403 2484 
Q 997 2584 770 2862 
Q 544 3141 544 3541 
Q 544 4100 942 4425 
Q 1341 4750 2034 4750 
Q 2731 4750 3128 4425 
Q 3525 4100 3525 3541 
Q 3525 3141 3298 2862 
Q 3072 2584 2669 2484 
Q 3125 2378 3379 2068 
Q 3634 1759 3634 1313 
Q 3634 634 3220 271 
Q 2806 -91 2034 -91 
Q 1263 -91 848 271 
Q 434 634 434 1313 
Q 434 1759 690 2068 
Q 947 2378 1403 2484 
z
M 1172 3481 
Q 1172 3119 1398 2916 
Q 1625 2713 2034 2713 
Q 2441 2713 2670 2916 
Q 2900 3119 2900 3481 
Q 2900 3844 2670 4047 
Q 2441 4250 2034 4250 
Q 1625 4250 1398 4047 
Q 1172 3844 1172 3481 
z
" id="DejaVuSans-38" transform="scale(0.015625)"/>
       </defs>
       <use xlink:href="#DejaVuSans-2212"/>
       <use x="83.789062" xlink:href="#DejaVuSans-38"/>
       <use x="147.412109" xlink:href="#DejaVuSans-30"/>
       <use x="211.035156" xlink:href="#DejaVuSans-30"/>
      </g>
     </g>
    </g>
    <g id="ytick_4">
     <g id="line2d_13">
      <g>
       <use style="stroke:#000000;stroke-width:0.8;" x="57.6" xlink:href="#m4e5c929702" y="163.447551"/>
      </g>
     </g>
     <g id="text_14">
      <!-- −600 -->
      <g transform="translate(23.132812 167.24677)scale(0.1 -0.1)">
       <defs>
        <path d="M 2113 2584 
Q 1688 2584 1439 2293 
Q 1191 2003 1191 1497 
Q 1191 994 1439 701 
Q 1688 409 2113 409 
Q 2538 409 2786 701 
Q 3034 994 3034 1497 
Q 3034 2003 2786 2293 
Q 2538 2584 2113 2584 
z
M 3366 4563 
L 3366 3988 
Q 3128 4100 2886 4159 
Q 2644 4219 2406 4219 
Q 1781 4219 1451 3797 
Q 1122 3375 1075 2522 
Q 1259 2794 1537 2939 
Q 1816 3084 2150 3084 
Q 2853 3084 3261 2657 
Q 3669 2231 3669 1497 
Q 3669 778 3244 343 
Q 2819 -91 2113 -91 
Q 1303 -91 875 529 
Q 447 1150 447 2328 
Q 447 3434 972 4092 
Q 1497 4750 2381 4750 
Q 2619 4750 2861 4703 
Q 3103 4656 3366 4563 
z
" id="DejaVuSans-36" transform="scale(0.015625)"/>
       </defs>
       <use xlink:href="#DejaVuSans-2212"/>
       <use x="83.789062" xlink:href="#DejaVuSans-36"/>
       <use x="147.412109" xlink:href="#DejaVuSans-30"/>
       <use x="211.035156" xlink:href="#DejaVuSans-30"/>
      </g>
     </g>
    </g>
    <g id="ytick_5">
     <g id="line2d_14">
      <g>
       <use style="stroke:#000000;stroke-width:0.8;" x="57.6" xlink:href="#m4e5c929702" y="118.567029"/>
      </g>
     </g>
     <g id="text_15">
      <!-- −400 -->
      <g transform="translate(23.132812 122.366248)scale(0.1 -0.1)">
       <use xlink:href="#DejaVuSans-2212"/>
       <use x="83.789062" xlink:href="#DejaVuSans-34"/>
       <use x="147.412109" xlink:href="#DejaVuSans-30"/>
       <use x="211.035156" xlink:href="#DejaVuSans-30"/>
      </g>
     </g>
    </g>
    <g id="ytick_6">
     <g id="line2d_15">
      <g>
       <use style="stroke:#000000;stroke-width:0.8;" x="57.6" xlink:href="#m4e5c929702" y="73.686507"/>
      </g>
     </g>
     <g id="text_16">
      <!-- −200 -->
      <g transform="translate(23.132812 77.485726)scale(0.1 -0.1)">
       <use xlink:href="#DejaVuSans-2212"/>
       <use x="83.789062" xlink:href="#DejaVuSans-32"/>
       <use x="147.412109" xlink:href="#DejaVuSans-30"/>
       <use x="211.035156" xlink:href="#DejaVuSans-30"/>
      </g>
     </g>
    </g>
    <g id="text_17">
     <!-- Loss -->
     <g transform="translate(9.650781 190.978781)rotate(-90)scale(0.15 -0.15)">
      <defs>
       <path d="M 628 4666 
L 1259 4666 
L 1259 531 
L 3531 531 
L 3531 0 
L 628 0 
L 628 4666 
z
" id="DejaVuSans-4c" transform="scale(0.015625)"/>
       <path d="M 2834 3397 
L 2834 2853 
Q 2591 2978 2328 3040 
Q 2066 3103 1784 3103 
Q 1356 3103 1142 2972 
Q 928 2841 928 2578 
Q 928 2378 1081 2264 
Q 1234 2150 1697 2047 
L 1894 2003 
Q 2506 1872 2764 1633 
Q 3022 1394 3022 966 
Q 3022 478 2636 193 
Q 2250 -91 1575 -91 
Q 1294 -91 989 -36 
Q 684 19 347 128 
L 347 722 
Q 666 556 975 473 
Q 1284 391 1588 391 
Q 1994 391 2212 530 
Q 2431 669 2431 922 
Q 2431 1156 2273 1281 
Q 2116 1406 1581 1522 
L 1381 1569 
Q 847 1681 609 1914 
Q 372 2147 372 2553 
Q 372 3047 722 3315 
Q 1072 3584 1716 3584 
Q 2034 3584 2315 3537 
Q 2597 3491 2834 3397 
z
" id="DejaVuSans-73" transform="scale(0.015625)"/>
      </defs>
      <use xlink:href="#DejaVuSans-4c"/>
      <use x="53.962891" xlink:href="#DejaVuSans-6f"/>
      <use x="115.144531" xlink:href="#DejaVuSans-73"/>
      <use x="167.244141" xlink:href="#DejaVuSans-73"/>
     </g>
    </g>
   </g>
   <g id="line2d_16">
    <path clip-path="url(#pac9799d98a)" d="M 73.832727 53.568 
L 74.646398 111.878776 
L 75.460068 118.895193 
L 76.273739 122.078269 
L 77.087409 130.046163 
L 77.90108 147.144513 
L 78.714751 150.591893 
L 79.528421 139.412905 
L 80.342092 157.846307 
L 81.155762 166.730921 
L 81.969433 163.206965 
L 82.783103 173.12222 
L 83.596774 180.08102 
L 84.410444 181.518089 
L 85.224115 172.257295 
L 86.037785 200.570153 
L 86.851456 205.242371 
L 87.665126 192.793018 
L 88.478797 204.099037 
L 89.292468 198.66261 
L 90.106138 195.485406 
L 90.919809 191.103383 
L 91.733479 211.665112 
L 92.54715 207.805069 
L 93.36082 215.05471 
L 94.174491 210.760106 
L 94.988161 222.894438 
L 95.801832 205.456031 
L 96.615502 214.115092 
L 97.429173 212.79886 
L 98.242843 223.944754 
L 99.056514 214.600134 
L 99.870185 227.644032 
L 100.683855 238.540438 
L 101.497526 211.328745 
L 102.311196 216.637172 
L 103.124867 216.148897 
L 103.938537 225.15692 
L 104.752208 220.845761 
L 105.565878 218.654209 
L 106.379549 228.878472 
L 107.193219 231.876419 
L 108.00689 224.240699 
L 108.82056 219.056188 
L 109.634231 220.035351 
L 110.447902 232.911305 
L 111.261572 232.735249 
L 112.075243 234.304237 
L 112.888913 226.825015 
L 113.702584 228.440415 
L 114.516254 231.618746 
L 115.329925 241.505752 
L 116.143595 235.604494 
L 116.957266 241.096521 
L 117.770936 239.296063 
L 118.584607 245.81656 
L 119.398278 237.579443 
L 120.211948 226.83686 
L 121.839289 228.337466 
L 122.65296 236.710858 
L 123.46663 235.375426 
L 124.280301 237.777119 
L 125.093971 233.240397 
L 125.907642 238.031836 
L 126.721312 244.819555 
L 127.534983 246.262763 
L 128.348653 236.113486 
L 129.162324 231.062085 
L 129.975995 245.87035 
L 130.789665 239.588922 
L 131.603336 236.009185 
L 132.417006 233.194331 
L 133.230677 239.344082 
L 134.044347 244.190952 
L 134.858018 230.784918 
L 135.671688 210.678488 
L 136.485359 231.595075 
L 137.299029 224.053298 
L 138.1127 236.727418 
L 138.92637 226.292244 
L 139.740041 220.694067 
L 140.553712 234.862625 
L 141.367382 239.928964 
L 142.994723 224.919653 
L 143.808394 234.591934 
L 144.622064 235.36189 
L 145.435735 235.81373 
L 146.249405 238.887541 
L 147.063076 227.480338 
L 147.876746 242.894465 
L 148.690417 235.064895 
L 149.504087 247.393925 
L 150.317758 226.555333 
L 151.131429 245.720248 
L 151.945099 236.476624 
L 152.75877 244.035808 
L 153.57244 236.0036 
L 154.386111 239.455454 
L 155.199781 235.201506 
L 156.013452 234.994528 
L 156.827122 236.484712 
L 157.640793 236.871624 
L 158.454463 236.675342 
L 160.081805 247.403996 
L 160.895475 248.614948 
L 161.709146 246.160427 
L 162.522816 241.90874 
L 163.336487 229.745963 
L 164.150157 241.867728 
L 164.963828 230.726452 
L 165.777498 249.562052 
L 166.591169 236.310819 
L 167.404839 238.326468 
L 168.21851 251.152942 
L 169.03218 241.603199 
L 169.845851 239.403443 
L 170.659522 244.449706 
L 171.473192 245.921173 
L 172.286863 222.287518 
L 173.100533 238.907203 
L 173.914204 250.089752 
L 174.727874 236.077849 
L 175.541545 234.944781 
L 176.355215 242.889152 
L 177.168886 242.62484 
L 177.982556 249.133651 
L 178.796227 233.636617 
L 179.609897 252.785429 
L 180.423568 234.800886 
L 181.237239 228.887073 
L 182.050909 241.541586 
L 182.86458 239.578619 
L 183.67825 249.181305 
L 184.491921 247.042193 
L 185.305591 242.408153 
L 186.119262 256.991757 
L 186.932932 245.037056 
L 187.746603 226.19412 
L 188.560273 243.027006 
L 189.373944 245.051877 
L 190.187614 248.606661 
L 191.001285 232.496452 
L 191.814956 246.013095 
L 192.628626 247.178672 
L 193.442297 253.316573 
L 194.255967 249.467372 
L 195.069638 246.880068 
L 195.883308 245.889094 
L 196.696979 247.46806 
L 197.510649 254.725757 
L 198.32432 248.289209 
L 199.13799 256.391368 
L 199.951661 239.203078 
L 200.765332 228.572125 
L 202.392673 242.904187 
L 203.206343 256.188834 
L 204.020014 254.837438 
L 204.833684 232.993604 
L 206.461025 259.113614 
L 207.274696 269.012161 
L 208.088366 232.579265 
L 208.902037 246.830341 
L 209.715707 255.308836 
L 210.529378 240.486701 
L 211.343049 251.514306 
L 212.156719 245.566633 
L 212.97039 259.382898 
L 213.78406 248.969176 
L 214.597731 245.638694 
L 215.411401 246.527309 
L 216.225072 241.514939 
L 217.038742 243.604221 
L 217.852413 242.64378 
L 218.666083 253.796656 
L 219.479754 248.991473 
L 220.293424 247.268078 
L 221.107095 250.180459 
L 221.920766 238.469921 
L 222.734436 249.443366 
L 223.548107 244.515334 
L 224.361777 255.98031 
L 225.175448 243.862386 
L 225.989118 240.072337 
L 226.802789 237.035977 
L 227.616459 247.850585 
L 228.43013 240.062544 
L 229.2438 250.4408 
L 230.057471 245.814032 
L 230.871141 241.970132 
L 231.684812 248.21669 
L 233.312153 267.775459 
L 234.125824 240.831372 
L 234.939494 245.337566 
L 235.753165 248.198657 
L 236.566835 253.78887 
L 237.380506 239.804813 
L 238.194176 265.991708 
L 239.007847 248.175768 
L 239.821517 254.787547 
L 240.635188 251.399848 
L 241.448859 250.205694 
L 242.262529 239.304146 
L 243.0762 247.422112 
L 243.88987 257.05349 
L 244.703541 250.461872 
L 245.517211 252.034066 
L 246.330882 259.735215 
L 247.958223 245.335688 
L 248.771893 258.661953 
L 249.585564 263.503034 
L 250.399234 258.053843 
L 251.212905 265.339867 
L 252.026576 247.306592 
L 252.840246 247.258659 
L 253.653917 260.765022 
L 255.281258 246.460546 
L 256.094928 265.251892 
L 256.908599 250.028118 
L 257.722269 261.668805 
L 258.53594 250.293582 
L 259.34961 256.914158 
L 260.163281 259.334171 
L 260.976951 260.924868 
L 261.790622 246.03452 
L 262.604293 261.272123 
L 263.417963 268.385776 
L 264.231634 246.647516 
L 265.045304 266.931944 
L 265.858975 253.623202 
L 266.672645 257.661652 
L 267.486316 239.240787 
L 268.299986 269.0011 
L 269.113657 247.766641 
L 269.927327 245.978537 
L 270.740998 250.602608 
L 271.554668 251.371765 
L 272.368339 256.688312 
L 273.18201 269.763558 
L 273.99568 252.503083 
L 274.809351 259.129301 
L 275.623021 264.451843 
L 276.436692 251.901108 
L 277.250362 259.105632 
L 278.064033 251.408348 
L 278.877703 259.163742 
L 280.505044 249.174544 
L 281.318715 252.437837 
L 282.132386 269.918378 
L 282.946056 259.590031 
L 283.759727 252.890899 
L 284.573397 243.527905 
L 285.387068 263.905543 
L 286.200738 265.876311 
L 287.014409 259.724456 
L 287.828079 243.623392 
L 288.64175 248.511858 
L 289.45542 259.013977 
L 290.269091 250.60117 
L 291.082761 258.567694 
L 291.896432 261.259454 
L 292.710103 260.891107 
L 293.523773 259.307833 
L 294.337444 262.081801 
L 295.151114 248.609593 
L 295.964785 246.196223 
L 296.778455 259.462238 
L 297.592126 268.960265 
L 298.405796 265.395379 
L 299.219467 259.250701 
L 300.033137 256.636439 
L 300.846808 259.71082 
L 301.660478 247.942349 
L 302.474149 255.74156 
L 303.28782 246.586557 
L 304.10149 252.540023 
L 304.915161 259.58739 
L 305.728831 254.392007 
L 306.542502 258.039026 
L 307.356172 253.44638 
L 308.169843 269.447739 
L 308.983513 262.524728 
L 309.797184 246.171788 
L 310.610854 244.556238 
L 311.424525 252.741526 
L 312.238195 269.018802 
L 313.051866 262.787147 
L 313.865537 270.127677 
L 314.679207 275.426547 
L 315.492878 272.665669 
L 316.306548 254.802024 
L 317.120219 247.670608 
L 317.933889 262.120194 
L 318.74756 268.230766 
L 319.56123 255.877064 
L 320.374901 252.268347 
L 321.188571 263.053424 
L 322.002242 248.199934 
L 322.815913 268.904223 
L 323.629583 256.583397 
L 324.443254 263.011578 
L 325.256924 267.822459 
L 326.070595 259.48856 
L 326.884265 261.728962 
L 327.697936 280.002246 
L 328.511606 255.512858 
L 329.325277 255.954294 
L 330.138947 255.769512 
L 330.952618 268.312433 
L 331.766288 267.954888 
L 333.39363 259.68063 
L 334.2073 254.146472 
L 335.020971 263.830852 
L 335.834641 264.706126 
L 336.648312 259.694556 
L 337.461982 258.414896 
L 338.275653 260.688934 
L 339.089323 251.00045 
L 339.902994 272.308312 
L 340.716664 258.16664 
L 341.530335 261.904362 
L 342.344005 257.804073 
L 343.157676 268.590586 
L 343.971347 263.66034 
L 344.785017 270.317286 
L 345.598688 260.929325 
L 346.412358 253.666417 
L 347.226029 262.156544 
L 348.039699 268.126934 
L 348.85337 256.137746 
L 349.66704 268.354293 
L 351.294381 257.435968 
L 352.108052 262.359367 
L 352.921722 262.78544 
L 353.735393 283.331792 
L 354.549064 256.639782 
L 355.362734 258.99724 
L 356.176405 268.863581 
L 357.803746 261.831054 
L 358.617416 281.340388 
L 359.431087 269.869724 
L 360.244757 263.283962 
L 361.058428 269.223394 
L 361.872098 265.52396 
L 362.685769 270.243249 
L 363.49944 277.646937 
L 364.31311 273.001728 
L 365.126781 276.941563 
L 365.940451 286.223466 
L 366.754122 255.28777 
L 367.567792 273.678462 
L 368.381463 275.397262 
L 369.195133 260.772498 
L 370.008804 289.772692 
L 370.822474 272.341999 
L 371.636145 268.367391 
L 372.449815 279.15782 
L 373.263486 265.833536 
L 374.077157 282.522617 
L 374.890827 269.227683 
L 375.704498 269.667726 
L 376.518168 256.235065 
L 377.331839 268.254584 
L 378.145509 277.31741 
L 378.95918 271.961406 
L 379.77285 278.36228 
L 380.586521 273.84529 
L 381.400191 276.635034 
L 382.213862 295.488 
L 383.027532 256.393895 
L 384.654874 279.512288 
L 385.468544 271.686131 
L 386.282215 273.865152 
L 387.095885 264.820158 
L 387.909556 260.086848 
L 389.536897 285.233411 
L 390.350567 269.493448 
L 391.164238 285.28022 
L 393.605249 256.365427 
L 394.41892 292.505171 
L 395.232591 263.489009 
L 396.046261 264.817751 
L 396.859932 260.29405 
L 397.673602 263.369099 
L 398.487273 272.838382 
L 398.487273 272.838382 
" style="fill:none;stroke:#1f77b4;stroke-linecap:square;stroke-width:1.5;"/>
   </g>
   <g id="line2d_17">
    <path clip-path="url(#pac9799d98a)" d="M 73.832727 105.736306 
L 75.460068 128.740056 
L 76.273739 139.37263 
L 77.087409 140.447355 
L 77.90108 140.222316 
L 78.714751 167.010708 
L 79.528421 159.43271 
L 80.342092 173.927472 
L 81.155762 171.475581 
L 81.969433 169.711072 
L 82.783103 177.296534 
L 83.596774 192.944106 
L 84.410444 185.015242 
L 85.224115 187.166141 
L 86.037785 190.209367 
L 86.851456 134.633519 
L 87.665126 201.713705 
L 88.478797 193.028295 
L 89.292468 160.919182 
L 90.106138 211.82862 
L 90.919809 210.170713 
L 91.733479 204.919953 
L 92.54715 186.490281 
L 93.36082 207.91041 
L 94.174491 224.07768 
L 94.988161 214.944104 
L 95.801832 212.011528 
L 96.615502 217.747573 
L 97.429173 226.476631 
L 98.242843 223.729134 
L 99.056514 221.528788 
L 99.870185 221.109052 
L 100.683855 211.423407 
L 101.497526 225.167751 
L 102.311196 217.179629 
L 103.124867 223.83167 
L 103.938537 227.047896 
L 104.752208 229.570391 
L 105.565878 216.355259 
L 107.193219 231.869134 
L 108.00689 238.714353 
L 108.82056 224.124958 
L 109.634231 235.357602 
L 110.447902 229.884096 
L 111.261572 228.08746 
L 112.075243 233.883204 
L 112.888913 220.122981 
L 113.702584 221.791469 
L 114.516254 219.756023 
L 115.329925 221.00807 
L 116.143595 235.214086 
L 116.957266 233.074156 
L 117.770936 224.711624 
L 118.584607 232.119075 
L 119.398278 230.743459 
L 120.211948 238.661435 
L 121.025619 243.0212 
L 121.839289 229.695222 
L 122.65296 238.667214 
L 123.46663 224.293495 
L 124.280301 232.321755 
L 125.093971 242.266489 
L 125.907642 229.217723 
L 126.721312 240.948696 
L 127.534983 230.505315 
L 128.348653 236.202793 
L 129.162324 236.186205 
L 129.975995 229.93703 
L 130.789665 236.737811 
L 131.603336 241.760796 
L 132.417006 222.168712 
L 133.230677 230.486163 
L 134.044347 234.204929 
L 134.858018 233.711925 
L 135.671688 225.585082 
L 136.485359 242.996054 
L 137.299029 243.04429 
L 138.1127 234.365118 
L 138.92637 238.251721 
L 139.740041 226.685921 
L 140.553712 230.35562 
L 141.367382 239.043164 
L 142.181053 238.58669 
L 142.994723 230.093694 
L 143.808394 232.741645 
L 144.622064 236.724229 
L 145.435735 225.370473 
L 146.249405 226.16805 
L 147.063076 226.682494 
L 147.876746 240.543622 
L 148.690417 232.025243 
L 149.504087 235.6474 
L 150.317758 232.754851 
L 151.131429 238.800627 
L 151.945099 248.061044 
L 152.75877 240.506153 
L 153.57244 237.52662 
L 154.386111 228.379302 
L 155.199781 234.362421 
L 156.013452 233.187971 
L 156.827122 240.153983 
L 157.640793 236.517803 
L 158.454463 237.098877 
L 159.268134 231.660909 
L 160.081805 236.499527 
L 160.895475 237.97415 
L 161.709146 241.271538 
L 162.522816 243.75066 
L 163.336487 231.292032 
L 164.150157 236.489482 
L 164.963828 235.726163 
L 165.777498 224.650789 
L 166.591169 245.593558 
L 167.404839 234.477973 
L 168.21851 245.963213 
L 169.03218 241.717816 
L 169.845851 251.535997 
L 171.473192 238.359928 
L 172.286863 237.013605 
L 173.100533 243.095907 
L 173.914204 236.264242 
L 174.727874 245.919418 
L 175.541545 243.196712 
L 176.355215 247.117336 
L 177.168886 243.486583 
L 177.982556 243.794679 
L 178.796227 250.37759 
L 179.609897 249.544998 
L 180.423568 232.222371 
L 181.237239 234.228761 
L 182.050909 246.226012 
L 183.67825 235.152467 
L 184.491921 233.488248 
L 185.305591 242.038859 
L 186.119262 232.440551 
L 186.932932 246.978891 
L 187.746603 242.673386 
L 188.560273 247.261714 
L 189.373944 242.342328 
L 190.187614 242.165842 
L 191.001285 248.473926 
L 191.814956 240.093913 
L 192.628626 235.750869 
L 193.442297 242.714725 
L 194.255967 255.049471 
L 195.069638 227.596324 
L 195.883308 251.729305 
L 196.696979 243.222105 
L 197.510649 232.271545 
L 198.32432 247.180682 
L 199.13799 245.054614 
L 199.951661 243.781498 
L 200.765332 230.735745 
L 201.579002 247.993595 
L 202.392673 238.11459 
L 203.206343 239.352642 
L 204.020014 242.511745 
L 204.833684 236.67837 
L 205.647355 254.067784 
L 206.461025 244.226742 
L 207.274696 244.107434 
L 208.088366 244.741248 
L 208.902037 234.473436 
L 209.715707 243.562262 
L 210.529378 244.081003 
L 211.343049 240.410265 
L 212.156719 249.003123 
L 212.97039 248.776243 
L 213.78406 248.419284 
L 215.411401 234.621974 
L 216.225072 243.107537 
L 217.038742 233.908213 
L 217.852413 240.276124 
L 218.666083 251.355565 
L 219.479754 237.393671 
L 221.107095 250.533663 
L 221.920766 242.742487 
L 222.734436 252.599484 
L 223.548107 233.875387 
L 224.361777 252.113487 
L 225.175448 246.551111 
L 225.989118 238.387812 
L 226.802789 247.352469 
L 227.616459 250.806363 
L 228.43013 244.040394 
L 229.2438 252.79441 
L 230.057471 259.550659 
L 230.871141 252.94255 
L 231.684812 258.329763 
L 232.498483 251.34522 
L 233.312153 249.528761 
L 234.125824 253.795108 
L 234.939494 249.829787 
L 235.753165 234.79331 
L 236.566835 248.275479 
L 237.380506 244.844612 
L 238.194176 247.332044 
L 239.007847 244.081962 
L 239.821517 252.27731 
L 240.635188 241.09471 
L 241.448859 255.27213 
L 242.262529 252.479132 
L 243.0762 240.439748 
L 243.88987 236.478292 
L 244.703541 253.298767 
L 245.517211 246.101372 
L 246.330882 243.04348 
L 247.144552 241.599076 
L 247.958223 251.94417 
L 248.771893 248.789693 
L 249.585564 234.683771 
L 250.399234 256.293736 
L 251.212905 245.067767 
L 252.026576 261.321422 
L 252.840246 254.71881 
L 253.653917 254.19796 
L 254.467587 256.061882 
L 255.281258 256.458805 
L 256.094928 243.708049 
L 256.908599 244.332442 
L 257.722269 256.127965 
L 258.53594 242.137531 
L 259.34961 243.758796 
L 260.163281 239.476359 
L 260.976951 244.603601 
L 261.790622 260.639446 
L 262.604293 249.502689 
L 263.417963 254.858587 
L 264.231634 248.820566 
L 265.045304 249.069909 
L 265.858975 247.705273 
L 266.672645 252.578177 
L 267.486316 255.570944 
L 268.299986 248.510579 
L 269.113657 246.646425 
L 269.927327 245.099876 
L 270.740998 262.496134 
L 271.554668 248.251184 
L 272.368339 248.533409 
L 273.18201 252.665843 
L 273.99568 252.734651 
L 274.809351 248.474065 
L 275.623021 255.314694 
L 276.436692 257.956883 
L 277.250362 254.660329 
L 278.064033 255.610623 
L 278.877703 248.529384 
L 279.691374 257.196854 
L 280.505044 257.739564 
L 281.318715 250.177 
L 282.132386 248.143896 
L 282.946056 254.722386 
L 283.759727 251.959179 
L 284.573397 245.968171 
L 285.387068 259.22212 
L 286.200738 257.809853 
L 287.014409 260.124612 
L 287.828079 252.262121 
L 288.64175 248.608591 
L 289.45542 242.446353 
L 290.269091 252.895136 
L 291.082761 252.031572 
L 291.896432 253.51008 
L 292.710103 247.472162 
L 293.523773 266.110713 
L 294.337444 249.009639 
L 295.151114 253.061035 
L 295.964785 268.859079 
L 296.778455 257.400579 
L 297.592126 253.182583 
L 298.405796 248.136015 
L 299.219467 252.154842 
L 300.033137 248.98746 
L 300.846808 242.76984 
L 301.660478 257.78947 
L 302.474149 242.860904 
L 303.28782 245.542115 
L 304.10149 252.934829 
L 304.915161 258.629411 
L 306.542502 256.456543 
L 307.356172 246.556965 
L 308.169843 263.851902 
L 308.983513 262.40146 
L 309.797184 247.036873 
L 310.610854 250.68093 
L 311.424525 261.398015 
L 312.238195 258.722283 
L 313.051866 248.059455 
L 313.865537 257.936118 
L 314.679207 265.80939 
L 315.492878 254.190546 
L 316.306548 248.614839 
L 317.120219 256.369756 
L 317.933889 251.144868 
L 318.74756 256.128647 
L 319.56123 251.590733 
L 320.374901 265.961363 
L 321.188571 262.397164 
L 322.002242 256.777931 
L 322.815913 252.096533 
L 323.629583 257.667253 
L 324.443254 260.312176 
L 325.256924 256.470959 
L 326.070595 254.103778 
L 326.884265 253.49024 
L 327.697936 249.845561 
L 329.325277 261.985326 
L 330.138947 249.086286 
L 330.952618 239.549685 
L 331.766288 253.940302 
L 332.579959 258.940696 
L 333.39363 257.715361 
L 334.2073 257.205476 
L 335.020971 253.816063 
L 335.834641 253.45985 
L 336.648312 265.480731 
L 337.461982 252.116693 
L 339.089323 263.046927 
L 339.902994 252.257914 
L 340.716664 266.351965 
L 341.530335 246.85039 
L 342.344005 258.638284 
L 343.157676 264.664527 
L 343.971347 267.455248 
L 344.785017 252.321089 
L 345.598688 263.479024 
L 346.412358 266.558984 
L 347.226029 260.986609 
L 348.039699 251.23936 
L 348.85337 256.827957 
L 349.66704 263.303781 
L 350.480711 264.102071 
L 351.294381 253.421862 
L 352.108052 264.310904 
L 352.921722 258.248261 
L 353.735393 257.777429 
L 354.549064 258.657168 
L 355.362734 261.154826 
L 356.176405 260.753372 
L 356.990075 260.014334 
L 357.803746 256.811535 
L 358.617416 255.521159 
L 359.431087 270.716691 
L 360.244757 267.854647 
L 361.058428 256.0629 
L 361.872098 255.445959 
L 362.685769 257.757011 
L 363.49944 266.937565 
L 364.31311 260.697408 
L 365.126781 270.928208 
L 365.940451 266.438163 
L 366.754122 279.149859 
L 367.567792 264.590911 
L 368.381463 269.336876 
L 369.195133 264.229071 
L 370.008804 268.869371 
L 370.822474 271.618021 
L 371.636145 270.529858 
L 372.449815 266.754319 
L 373.263486 271.952334 
L 374.077157 264.929002 
L 374.890827 260.47309 
L 375.704498 273.754466 
L 376.518168 262.275936 
L 378.145509 259.587056 
L 378.95918 266.328174 
L 379.77285 270.412795 
L 380.586521 277.490142 
L 381.400191 256.769099 
L 382.213862 253.506259 
L 383.027532 272.36608 
L 383.841203 278.388482 
L 384.654874 251.655381 
L 385.468544 263.179994 
L 386.282215 264.960681 
L 387.095885 269.355112 
L 387.909556 264.29239 
L 388.723226 264.875834 
L 389.536897 274.852111 
L 390.350567 263.06961 
L 391.164238 269.177202 
L 391.977908 270.094405 
L 392.791579 262.794668 
L 393.605249 273.756042 
L 394.41892 262.09908 
L 395.232591 261.717823 
L 396.046261 277.75929 
L 396.859932 258.714923 
L 397.673602 261.798794 
L 398.487273 277.347845 
L 398.487273 277.347845 
" style="fill:none;stroke:#ff7f0e;stroke-linecap:square;stroke-width:1.5;"/>
   </g>
   <g id="patch_3">
    <path d="M 57.6 307.584 
L 57.6 41.472 
" style="fill:none;stroke:#000000;stroke-linecap:square;stroke-linejoin:miter;stroke-width:0.8;"/>
   </g>
   <g id="patch_4">
    <path d="M 414.72 307.584 
L 414.72 41.472 
" style="fill:none;stroke:#000000;stroke-linecap:square;stroke-linejoin:miter;stroke-width:0.8;"/>
   </g>
   <g id="patch_5">
    <path d="M 57.6 307.584 
L 414.72 307.584 
" style="fill:none;stroke:#000000;stroke-linecap:square;stroke-linejoin:miter;stroke-width:0.8;"/>
   </g>
   <g id="patch_6">
    <path d="M 57.6 41.472 
L 414.72 41.472 
" style="fill:none;stroke:#000000;stroke-linecap:square;stroke-linejoin:miter;stroke-width:0.8;"/>
   </g>
   <g id="legend_1">
    <g id="patch_7">
     <path d="M 303.845 78.82825 
L 407.72 78.82825 
Q 409.72 78.82825 409.72 76.82825 
L 409.72 48.472 
Q 409.72 46.472 407.72 46.472 
L 303.845 46.472 
Q 301.845 46.472 301.845 48.472 
L 301.845 76.82825 
Q 301.845 78.82825 303.845 78.82825 
z
" style="fill:#ffffff;opacity:0.8;stroke:#cccccc;stroke-linejoin:miter;"/>
    </g>
    <g id="line2d_18">
     <path d="M 305.845 54.570437 
L 325.845 54.570437 
" style="fill:none;stroke:#1f77b4;stroke-linecap:square;stroke-width:1.5;"/>
    </g>
    <g id="line2d_19"/>
    <g id="text_18">
     <!-- Train loss -->
     <g transform="translate(333.845 58.070437)scale(0.1 -0.1)">
      <defs>
       <path d="M -19 4666 
L 3928 4666 
L 3928 4134 
L 2272 4134 
L 2272 0 
L 1638 0 
L 1638 4134 
L -19 4134 
L -19 4666 
z
" id="DejaVuSans-54" transform="scale(0.015625)"/>
       <path d="M 2631 2963 
Q 2534 3019 2420 3045 
Q 2306 3072 2169 3072 
Q 1681 3072 1420 2755 
Q 1159 2438 1159 1844 
L 1159 0 
L 581 0 
L 581 3500 
L 1159 3500 
L 1159 2956 
Q 1341 3275 1631 3429 
Q 1922 3584 2338 3584 
Q 2397 3584 2469 3576 
Q 2541 3569 2628 3553 
L 2631 2963 
z
" id="DejaVuSans-72" transform="scale(0.015625)"/>
       <path d="M 2194 1759 
Q 1497 1759 1228 1600 
Q 959 1441 959 1056 
Q 959 750 1161 570 
Q 1363 391 1709 391 
Q 2188 391 2477 730 
Q 2766 1069 2766 1631 
L 2766 1759 
L 2194 1759 
z
M 3341 1997 
L 3341 0 
L 2766 0 
L 2766 531 
Q 2569 213 2275 61 
Q 1981 -91 1556 -91 
Q 1019 -91 701 211 
Q 384 513 384 1019 
Q 384 1609 779 1909 
Q 1175 2209 1959 2209 
L 2766 2209 
L 2766 2266 
Q 2766 2663 2505 2880 
Q 2244 3097 1772 3097 
Q 1472 3097 1187 3025 
Q 903 2953 641 2809 
L 641 3341 
Q 956 3463 1253 3523 
Q 1550 3584 1831 3584 
Q 2591 3584 2966 3190 
Q 3341 2797 3341 1997 
z
" id="DejaVuSans-61" transform="scale(0.015625)"/>
       <path d="M 603 3500 
L 1178 3500 
L 1178 0 
L 603 0 
L 603 3500 
z
M 603 4863 
L 1178 4863 
L 1178 4134 
L 603 4134 
L 603 4863 
z
" id="DejaVuSans-69" transform="scale(0.015625)"/>
       <path d="M 3513 2113 
L 3513 0 
L 2938 0 
L 2938 2094 
Q 2938 2591 2744 2837 
Q 2550 3084 2163 3084 
Q 1697 3084 1428 2787 
Q 1159 2491 1159 1978 
L 1159 0 
L 581 0 
L 581 3500 
L 1159 3500 
L 1159 2956 
Q 1366 3272 1645 3428 
Q 1925 3584 2291 3584 
Q 2894 3584 3203 3211 
Q 3513 2838 3513 2113 
z
" id="DejaVuSans-6e" transform="scale(0.015625)"/>
       <path id="DejaVuSans-20" transform="scale(0.015625)"/>
       <path d="M 603 4863 
L 1178 4863 
L 1178 0 
L 603 0 
L 603 4863 
z
" id="DejaVuSans-6c" transform="scale(0.015625)"/>
      </defs>
      <use xlink:href="#DejaVuSans-54"/>
      <use x="46.333984" xlink:href="#DejaVuSans-72"/>
      <use x="87.447266" xlink:href="#DejaVuSans-61"/>
      <use x="148.726562" xlink:href="#DejaVuSans-69"/>
      <use x="176.509766" xlink:href="#DejaVuSans-6e"/>
      <use x="239.888672" xlink:href="#DejaVuSans-20"/>
      <use x="271.675781" xlink:href="#DejaVuSans-6c"/>
      <use x="299.458984" xlink:href="#DejaVuSans-6f"/>
      <use x="360.640625" xlink:href="#DejaVuSans-73"/>
      <use x="412.740234" xlink:href="#DejaVuSans-73"/>
     </g>
    </g>
    <g id="line2d_20">
     <path d="M 305.845 69.248562 
L 325.845 69.248562 
" style="fill:none;stroke:#ff7f0e;stroke-linecap:square;stroke-width:1.5;"/>
    </g>
    <g id="line2d_21"/>
    <g id="text_19">
     <!-- Validation loss -->
     <g transform="translate(333.845 72.748562)scale(0.1 -0.1)">
      <defs>
       <path d="M 1831 0 
L 50 4666 
L 709 4666 
L 2188 738 
L 3669 4666 
L 4325 4666 
L 2547 0 
L 1831 0 
z
" id="DejaVuSans-56" transform="scale(0.015625)"/>
       <path d="M 2906 2969 
L 2906 4863 
L 3481 4863 
L 3481 0 
L 2906 0 
L 2906 525 
Q 2725 213 2448 61 
Q 2172 -91 1784 -91 
Q 1150 -91 751 415 
Q 353 922 353 1747 
Q 353 2572 751 3078 
Q 1150 3584 1784 3584 
Q 2172 3584 2448 3432 
Q 2725 3281 2906 2969 
z
M 947 1747 
Q 947 1113 1208 752 
Q 1469 391 1925 391 
Q 2381 391 2643 752 
Q 2906 1113 2906 1747 
Q 2906 2381 2643 2742 
Q 2381 3103 1925 3103 
Q 1469 3103 1208 2742 
Q 947 2381 947 1747 
z
" id="DejaVuSans-64" transform="scale(0.015625)"/>
       <path d="M 1172 4494 
L 1172 3500 
L 2356 3500 
L 2356 3053 
L 1172 3053 
L 1172 1153 
Q 1172 725 1289 603 
Q 1406 481 1766 481 
L 2356 481 
L 2356 0 
L 1766 0 
Q 1100 0 847 248 
Q 594 497 594 1153 
L 594 3053 
L 172 3053 
L 172 3500 
L 594 3500 
L 594 4494 
L 1172 4494 
z
" id="DejaVuSans-74" transform="scale(0.015625)"/>
      </defs>
      <use xlink:href="#DejaVuSans-56"/>
      <use x="60.658203" xlink:href="#DejaVuSans-61"/>
      <use x="121.9375" xlink:href="#DejaVuSans-6c"/>
      <use x="149.720703" xlink:href="#DejaVuSans-69"/>
      <use x="177.503906" xlink:href="#DejaVuSans-64"/>
      <use x="240.980469" xlink:href="#DejaVuSans-61"/>
      <use x="302.259766" xlink:href="#DejaVuSans-74"/>
      <use x="341.46875" xlink:href="#DejaVuSans-69"/>
      <use x="369.251953" xlink:href="#DejaVuSans-6f"/>
      <use x="430.433594" xlink:href="#DejaVuSans-6e"/>
      <use x="493.8125" xlink:href="#DejaVuSans-20"/>
      <use x="525.599609" xlink:href="#DejaVuSans-6c"/>
      <use x="553.382812" xlink:href="#DejaVuSans-6f"/>
      <use x="614.564453" xlink:href="#DejaVuSans-73"/>
      <use x="666.664062" xlink:href="#DejaVuSans-73"/>
     </g>
    </g>
   </g>
  </g>
 </g>
 <defs>
  <clipPath id="pac9799d98a">
   <rect height="266.112" width="357.12" x="57.6" y="41.472"/>
  </clipPath>
 </defs>
</svg>
