<?xml version="1.0" encoding="utf-8" standalone="no"?>
<!DOCTYPE svg PUBLIC "-//W3C//DTD SVG 1.1//EN"
  "http://www.w3.org/Graphics/SVG/1.1/DTD/svg11.dtd">
<svg height="345.6pt" version="1.1" viewBox="0 0 460.8 345.6" width="460.8pt" xmlns="http://www.w3.org/2000/svg" xmlns:xlink="http://www.w3.org/1999/xlink">
 <metadata>
  <rdf:RDF xmlns:cc="http://creativecommons.org/ns#" xmlns:dc="http://purl.org/dc/elements/1.1/" xmlns:rdf="http://www.w3.org/1999/02/22-rdf-syntax-ns#">
   <cc:Work>
    <dc:type rdf:resource="http://purl.org/dc/dcmitype/StillImage"/>
    <dc:date>2021-07-16T10:05:56.801719</dc:date>
    <dc:format>image/svg+xml</dc:format>
    <dc:creator>
     <cc:Agent>
      <dc:title>Matplotlib v3.4.2, https://matplotlib.org/</dc:title>
     </cc:Agent>
    </dc:creator>
   </cc:Work>
  </rdf:RDF>
 </metadata>
 <defs>
  <style type="text/css">*{stroke-linecap:butt;stroke-linejoin:round;}</style>
 </defs>
 <g id="figure_1">
  <g id="patch_1">
   <path d="M 0 345.6 
L 460.8 345.6 
L 460.8 0 
L 0 0 
z
" style="fill:#ffffff;"/>
  </g>
  <g id="axes_1">
   <g id="patch_2">
    <path d="M 57.6 307.584 
L 414.72 307.584 
L 414.72 41.472 
L 57.6 41.472 
z
" style="fill:#ffffff;"/>
   </g>
   <g id="matplotlib.axis_1">
    <g id="xtick_1">
     <g id="line2d_1">
      <defs>
       <path d="M 0 0 
L 0 3.5 
" id="mc746719512" style="stroke:#000000;stroke-width:0.8;"/>
      </defs>
      <g>
       <use style="stroke:#000000;stroke-width:0.8;" x="73.019057" xlink:href="#mc746719512" y="307.584"/>
      </g>
     </g>
     <g id="text_1">
      <!-- 0 -->
      <g transform="translate(69.837807 322.182437)scale(0.1 -0.1)">
       <defs>
        <path d="M 2034 4250 
Q 1547 4250 1301 3770 
Q 1056 3291 1056 2328 
Q 1056 1369 1301 889 
Q 1547 409 2034 409 
Q 2525 409 2770 889 
Q 3016 1369 3016 2328 
Q 3016 3291 2770 3770 
Q 2525 4250 2034 4250 
z
M 2034 4750 
Q 2819 4750 3233 4129 
Q 3647 3509 3647 2328 
Q 3647 1150 3233 529 
Q 2819 -91 2034 -91 
Q 1250 -91 836 529 
Q 422 1150 422 2328 
Q 422 3509 836 4129 
Q 1250 4750 2034 4750 
z
" id="DejaVuSans-30" transform="scale(0.015625)"/>
       </defs>
       <use xlink:href="#DejaVuSans-30"/>
      </g>
     </g>
    </g>
    <g id="xtick_2">
     <g id="line2d_2">
      <g>
       <use style="stroke:#000000;stroke-width:0.8;" x="113.702584" xlink:href="#mc746719512" y="307.584"/>
      </g>
     </g>
     <g id="text_2">
      <!-- 50 -->
      <g transform="translate(107.340084 322.182437)scale(0.1 -0.1)">
       <defs>
        <path d="M 691 4666 
L 3169 4666 
L 3169 4134 
L 1269 4134 
L 1269 2991 
Q 1406 3038 1543 3061 
Q 1681 3084 1819 3084 
Q 2600 3084 3056 2656 
Q 3513 2228 3513 1497 
Q 3513 744 3044 326 
Q 2575 -91 1722 -91 
Q 1428 -91 1123 -41 
Q 819 9 494 109 
L 494 744 
Q 775 591 1075 516 
Q 1375 441 1709 441 
Q 2250 441 2565 725 
Q 2881 1009 2881 1497 
Q 2881 1984 2565 2268 
Q 2250 2553 1709 2553 
Q 1456 2553 1204 2497 
Q 953 2441 691 2322 
L 691 4666 
z
" id="DejaVuSans-35" transform="scale(0.015625)"/>
       </defs>
       <use xlink:href="#DejaVuSans-35"/>
       <use x="63.623047" xlink:href="#DejaVuSans-30"/>
      </g>
     </g>
    </g>
    <g id="xtick_3">
     <g id="line2d_3">
      <g>
       <use style="stroke:#000000;stroke-width:0.8;" x="154.386111" xlink:href="#mc746719512" y="307.584"/>
      </g>
     </g>
     <g id="text_3">
      <!-- 100 -->
      <g transform="translate(144.842361 322.182437)scale(0.1 -0.1)">
       <defs>
        <path d="M 794 531 
L 1825 531 
L 1825 4091 
L 703 3866 
L 703 4441 
L 1819 4666 
L 2450 4666 
L 2450 531 
L 3481 531 
L 3481 0 
L 794 0 
L 794 531 
z
" id="DejaVuSans-31" transform="scale(0.015625)"/>
       </defs>
       <use xlink:href="#DejaVuSans-31"/>
       <use x="63.623047" xlink:href="#DejaVuSans-30"/>
       <use x="127.246094" xlink:href="#DejaVuSans-30"/>
      </g>
     </g>
    </g>
    <g id="xtick_4">
     <g id="line2d_4">
      <g>
       <use style="stroke:#000000;stroke-width:0.8;" x="195.069638" xlink:href="#mc746719512" y="307.584"/>
      </g>
     </g>
     <g id="text_4">
      <!-- 150 -->
      <g transform="translate(185.525888 322.182437)scale(0.1 -0.1)">
       <use xlink:href="#DejaVuSans-31"/>
       <use x="63.623047" xlink:href="#DejaVuSans-35"/>
       <use x="127.246094" xlink:href="#DejaVuSans-30"/>
      </g>
     </g>
    </g>
    <g id="xtick_5">
     <g id="line2d_5">
      <g>
       <use style="stroke:#000000;stroke-width:0.8;" x="235.753165" xlink:href="#mc746719512" y="307.584"/>
      </g>
     </g>
     <g id="text_5">
      <!-- 200 -->
      <g transform="translate(226.209415 322.182437)scale(0.1 -0.1)">
       <defs>
        <path d="M 1228 531 
L 3431 531 
L 3431 0 
L 469 0 
L 469 531 
Q 828 903 1448 1529 
Q 2069 2156 2228 2338 
Q 2531 2678 2651 2914 
Q 2772 3150 2772 3378 
Q 2772 3750 2511 3984 
Q 2250 4219 1831 4219 
Q 1534 4219 1204 4116 
Q 875 4013 500 3803 
L 500 4441 
Q 881 4594 1212 4672 
Q 1544 4750 1819 4750 
Q 2544 4750 2975 4387 
Q 3406 4025 3406 3419 
Q 3406 3131 3298 2873 
Q 3191 2616 2906 2266 
Q 2828 2175 2409 1742 
Q 1991 1309 1228 531 
z
" id="DejaVuSans-32" transform="scale(0.015625)"/>
       </defs>
       <use xlink:href="#DejaVuSans-32"/>
       <use x="63.623047" xlink:href="#DejaVuSans-30"/>
       <use x="127.246094" xlink:href="#DejaVuSans-30"/>
      </g>
     </g>
    </g>
    <g id="xtick_6">
     <g id="line2d_6">
      <g>
       <use style="stroke:#000000;stroke-width:0.8;" x="276.436692" xlink:href="#mc746719512" y="307.584"/>
      </g>
     </g>
     <g id="text_6">
      <!-- 250 -->
      <g transform="translate(266.892942 322.182437)scale(0.1 -0.1)">
       <use xlink:href="#DejaVuSans-32"/>
       <use x="63.623047" xlink:href="#DejaVuSans-35"/>
       <use x="127.246094" xlink:href="#DejaVuSans-30"/>
      </g>
     </g>
    </g>
    <g id="xtick_7">
     <g id="line2d_7">
      <g>
       <use style="stroke:#000000;stroke-width:0.8;" x="317.120219" xlink:href="#mc746719512" y="307.584"/>
      </g>
     </g>
     <g id="text_7">
      <!-- 300 -->
      <g transform="translate(307.576469 322.182437)scale(0.1 -0.1)">
       <defs>
        <path d="M 2597 2516 
Q 3050 2419 3304 2112 
Q 3559 1806 3559 1356 
Q 3559 666 3084 287 
Q 2609 -91 1734 -91 
Q 1441 -91 1130 -33 
Q 819 25 488 141 
L 488 750 
Q 750 597 1062 519 
Q 1375 441 1716 441 
Q 2309 441 2620 675 
Q 2931 909 2931 1356 
Q 2931 1769 2642 2001 
Q 2353 2234 1838 2234 
L 1294 2234 
L 1294 2753 
L 1863 2753 
Q 2328 2753 2575 2939 
Q 2822 3125 2822 3475 
Q 2822 3834 2567 4026 
Q 2313 4219 1838 4219 
Q 1578 4219 1281 4162 
Q 984 4106 628 3988 
L 628 4550 
Q 988 4650 1302 4700 
Q 1616 4750 1894 4750 
Q 2613 4750 3031 4423 
Q 3450 4097 3450 3541 
Q 3450 3153 3228 2886 
Q 3006 2619 2597 2516 
z
" id="DejaVuSans-33" transform="scale(0.015625)"/>
       </defs>
       <use xlink:href="#DejaVuSans-33"/>
       <use x="63.623047" xlink:href="#DejaVuSans-30"/>
       <use x="127.246094" xlink:href="#DejaVuSans-30"/>
      </g>
     </g>
    </g>
    <g id="xtick_8">
     <g id="line2d_8">
      <g>
       <use style="stroke:#000000;stroke-width:0.8;" x="357.803746" xlink:href="#mc746719512" y="307.584"/>
      </g>
     </g>
     <g id="text_8">
      <!-- 350 -->
      <g transform="translate(348.259996 322.182437)scale(0.1 -0.1)">
       <use xlink:href="#DejaVuSans-33"/>
       <use x="63.623047" xlink:href="#DejaVuSans-35"/>
       <use x="127.246094" xlink:href="#DejaVuSans-30"/>
      </g>
     </g>
    </g>
    <g id="xtick_9">
     <g id="line2d_9">
      <g>
       <use style="stroke:#000000;stroke-width:0.8;" x="398.487273" xlink:href="#mc746719512" y="307.584"/>
      </g>
     </g>
     <g id="text_9">
      <!-- 400 -->
      <g transform="translate(388.943523 322.182437)scale(0.1 -0.1)">
       <defs>
        <path d="M 2419 4116 
L 825 1625 
L 2419 1625 
L 2419 4116 
z
M 2253 4666 
L 3047 4666 
L 3047 1625 
L 3713 1625 
L 3713 1100 
L 3047 1100 
L 3047 0 
L 2419 0 
L 2419 1100 
L 313 1100 
L 313 1709 
L 2253 4666 
z
" id="DejaVuSans-34" transform="scale(0.015625)"/>
       </defs>
       <use xlink:href="#DejaVuSans-34"/>
       <use x="63.623047" xlink:href="#DejaVuSans-30"/>
       <use x="127.246094" xlink:href="#DejaVuSans-30"/>
      </g>
     </g>
    </g>
    <g id="text_10">
     <!-- Epoch -->
     <g transform="translate(213.193594 339.659781)scale(0.15 -0.15)">
      <defs>
       <path d="M 628 4666 
L 3578 4666 
L 3578 4134 
L 1259 4134 
L 1259 2753 
L 3481 2753 
L 3481 2222 
L 1259 2222 
L 1259 531 
L 3634 531 
L 3634 0 
L 628 0 
L 628 4666 
z
" id="DejaVuSans-45" transform="scale(0.015625)"/>
       <path d="M 1159 525 
L 1159 -1331 
L 581 -1331 
L 581 3500 
L 1159 3500 
L 1159 2969 
Q 1341 3281 1617 3432 
Q 1894 3584 2278 3584 
Q 2916 3584 3314 3078 
Q 3713 2572 3713 1747 
Q 3713 922 3314 415 
Q 2916 -91 2278 -91 
Q 1894 -91 1617 61 
Q 1341 213 1159 525 
z
M 3116 1747 
Q 3116 2381 2855 2742 
Q 2594 3103 2138 3103 
Q 1681 3103 1420 2742 
Q 1159 2381 1159 1747 
Q 1159 1113 1420 752 
Q 1681 391 2138 391 
Q 2594 391 2855 752 
Q 3116 1113 3116 1747 
z
" id="DejaVuSans-70" transform="scale(0.015625)"/>
       <path d="M 1959 3097 
Q 1497 3097 1228 2736 
Q 959 2375 959 1747 
Q 959 1119 1226 758 
Q 1494 397 1959 397 
Q 2419 397 2687 759 
Q 2956 1122 2956 1747 
Q 2956 2369 2687 2733 
Q 2419 3097 1959 3097 
z
M 1959 3584 
Q 2709 3584 3137 3096 
Q 3566 2609 3566 1747 
Q 3566 888 3137 398 
Q 2709 -91 1959 -91 
Q 1206 -91 779 398 
Q 353 888 353 1747 
Q 353 2609 779 3096 
Q 1206 3584 1959 3584 
z
" id="DejaVuSans-6f" transform="scale(0.015625)"/>
       <path d="M 3122 3366 
L 3122 2828 
Q 2878 2963 2633 3030 
Q 2388 3097 2138 3097 
Q 1578 3097 1268 2742 
Q 959 2388 959 1747 
Q 959 1106 1268 751 
Q 1578 397 2138 397 
Q 2388 397 2633 464 
Q 2878 531 3122 666 
L 3122 134 
Q 2881 22 2623 -34 
Q 2366 -91 2075 -91 
Q 1284 -91 818 406 
Q 353 903 353 1747 
Q 353 2603 823 3093 
Q 1294 3584 2113 3584 
Q 2378 3584 2631 3529 
Q 2884 3475 3122 3366 
z
" id="DejaVuSans-63" transform="scale(0.015625)"/>
       <path d="M 3513 2113 
L 3513 0 
L 2938 0 
L 2938 2094 
Q 2938 2591 2744 2837 
Q 2550 3084 2163 3084 
Q 1697 3084 1428 2787 
Q 1159 2491 1159 1978 
L 1159 0 
L 581 0 
L 581 4863 
L 1159 4863 
L 1159 2956 
Q 1366 3272 1645 3428 
Q 1925 3584 2291 3584 
Q 2894 3584 3203 3211 
Q 3513 2838 3513 2113 
z
" id="DejaVuSans-68" transform="scale(0.015625)"/>
      </defs>
      <use xlink:href="#DejaVuSans-45"/>
      <use x="63.183594" xlink:href="#DejaVuSans-70"/>
      <use x="126.660156" xlink:href="#DejaVuSans-6f"/>
      <use x="187.841797" xlink:href="#DejaVuSans-63"/>
      <use x="242.822266" xlink:href="#DejaVuSans-68"/>
     </g>
    </g>
   </g>
   <g id="matplotlib.axis_2">
    <g id="ytick_1">
     <g id="line2d_10">
      <defs>
       <path d="M 0 0 
L -3.5 0 
" id="m51b7f9d87d" style="stroke:#000000;stroke-width:0.8;"/>
      </defs>
      <g>
       <use style="stroke:#000000;stroke-width:0.8;" x="57.6" xlink:href="#m51b7f9d87d" y="304.754481"/>
      </g>
     </g>
     <g id="text_11">
      <!-- −1200 -->
      <g transform="translate(16.770313 308.5537)scale(0.1 -0.1)">
       <defs>
        <path d="M 678 2272 
L 4684 2272 
L 4684 1741 
L 678 1741 
L 678 2272 
z
" id="DejaVuSans-2212" transform="scale(0.015625)"/>
       </defs>
       <use xlink:href="#DejaVuSans-2212"/>
       <use x="83.789062" xlink:href="#DejaVuSans-31"/>
       <use x="147.412109" xlink:href="#DejaVuSans-32"/>
       <use x="211.035156" xlink:href="#DejaVuSans-30"/>
       <use x="274.658203" xlink:href="#DejaVuSans-30"/>
      </g>
     </g>
    </g>
    <g id="ytick_2">
     <g id="line2d_11">
      <g>
       <use style="stroke:#000000;stroke-width:0.8;" x="57.6" xlink:href="#m51b7f9d87d" y="261.61756"/>
      </g>
     </g>
     <g id="text_12">
      <!-- −1000 -->
      <g transform="translate(16.770313 265.416779)scale(0.1 -0.1)">
       <use xlink:href="#DejaVuSans-2212"/>
       <use x="83.789062" xlink:href="#DejaVuSans-31"/>
       <use x="147.412109" xlink:href="#DejaVuSans-30"/>
       <use x="211.035156" xlink:href="#DejaVuSans-30"/>
       <use x="274.658203" xlink:href="#DejaVuSans-30"/>
      </g>
     </g>
    </g>
    <g id="ytick_3">
     <g id="line2d_12">
      <g>
       <use style="stroke:#000000;stroke-width:0.8;" x="57.6" xlink:href="#m51b7f9d87d" y="218.48064"/>
      </g>
     </g>
     <g id="text_13">
      <!-- −800 -->
      <g transform="translate(23.132812 222.279858)scale(0.1 -0.1)">
       <defs>
        <path d="M 2034 2216 
Q 1584 2216 1326 1975 
Q 1069 1734 1069 1313 
Q 1069 891 1326 650 
Q 1584 409 2034 409 
Q 2484 409 2743 651 
Q 3003 894 3003 1313 
Q 3003 1734 2745 1975 
Q 2488 2216 2034 2216 
z
M 1403 2484 
Q 997 2584 770 2862 
Q 544 3141 544 3541 
Q 544 4100 942 4425 
Q 1341 4750 2034 4750 
Q 2731 4750 3128 4425 
Q 3525 4100 3525 3541 
Q 3525 3141 3298 2862 
Q 3072 2584 2669 2484 
Q 3125 2378 3379 2068 
Q 3634 1759 3634 1313 
Q 3634 634 3220 271 
Q 2806 -91 2034 -91 
Q 1263 -91 848 271 
Q 434 634 434 1313 
Q 434 1759 690 2068 
Q 947 2378 1403 2484 
z
M 1172 3481 
Q 1172 3119 1398 2916 
Q 1625 2713 2034 2713 
Q 2441 2713 2670 2916 
Q 2900 3119 2900 3481 
Q 2900 3844 2670 4047 
Q 2441 4250 2034 4250 
Q 1625 4250 1398 4047 
Q 1172 3844 1172 3481 
z
" id="DejaVuSans-38" transform="scale(0.015625)"/>
       </defs>
       <use xlink:href="#DejaVuSans-2212"/>
       <use x="83.789062" xlink:href="#DejaVuSans-38"/>
       <use x="147.412109" xlink:href="#DejaVuSans-30"/>
       <use x="211.035156" xlink:href="#DejaVuSans-30"/>
      </g>
     </g>
    </g>
    <g id="ytick_4">
     <g id="line2d_13">
      <g>
       <use style="stroke:#000000;stroke-width:0.8;" x="57.6" xlink:href="#m51b7f9d87d" y="175.343719"/>
      </g>
     </g>
     <g id="text_14">
      <!-- −600 -->
      <g transform="translate(23.132812 179.142937)scale(0.1 -0.1)">
       <defs>
        <path d="M 2113 2584 
Q 1688 2584 1439 2293 
Q 1191 2003 1191 1497 
Q 1191 994 1439 701 
Q 1688 409 2113 409 
Q 2538 409 2786 701 
Q 3034 994 3034 1497 
Q 3034 2003 2786 2293 
Q 2538 2584 2113 2584 
z
M 3366 4563 
L 3366 3988 
Q 3128 4100 2886 4159 
Q 2644 4219 2406 4219 
Q 1781 4219 1451 3797 
Q 1122 3375 1075 2522 
Q 1259 2794 1537 2939 
Q 1816 3084 2150 3084 
Q 2853 3084 3261 2657 
Q 3669 2231 3669 1497 
Q 3669 778 3244 343 
Q 2819 -91 2113 -91 
Q 1303 -91 875 529 
Q 447 1150 447 2328 
Q 447 3434 972 4092 
Q 1497 4750 2381 4750 
Q 2619 4750 2861 4703 
Q 3103 4656 3366 4563 
z
" id="DejaVuSans-36" transform="scale(0.015625)"/>
       </defs>
       <use xlink:href="#DejaVuSans-2212"/>
       <use x="83.789062" xlink:href="#DejaVuSans-36"/>
       <use x="147.412109" xlink:href="#DejaVuSans-30"/>
       <use x="211.035156" xlink:href="#DejaVuSans-30"/>
      </g>
     </g>
    </g>
    <g id="ytick_5">
     <g id="line2d_14">
      <g>
       <use style="stroke:#000000;stroke-width:0.8;" x="57.6" xlink:href="#m51b7f9d87d" y="132.206798"/>
      </g>
     </g>
     <g id="text_15">
      <!-- −400 -->
      <g transform="translate(23.132812 136.006016)scale(0.1 -0.1)">
       <use xlink:href="#DejaVuSans-2212"/>
       <use x="83.789062" xlink:href="#DejaVuSans-34"/>
       <use x="147.412109" xlink:href="#DejaVuSans-30"/>
       <use x="211.035156" xlink:href="#DejaVuSans-30"/>
      </g>
     </g>
    </g>
    <g id="ytick_6">
     <g id="line2d_15">
      <g>
       <use style="stroke:#000000;stroke-width:0.8;" x="57.6" xlink:href="#m51b7f9d87d" y="89.069877"/>
      </g>
     </g>
     <g id="text_16">
      <!-- −200 -->
      <g transform="translate(23.132812 92.869096)scale(0.1 -0.1)">
       <use xlink:href="#DejaVuSans-2212"/>
       <use x="83.789062" xlink:href="#DejaVuSans-32"/>
       <use x="147.412109" xlink:href="#DejaVuSans-30"/>
       <use x="211.035156" xlink:href="#DejaVuSans-30"/>
      </g>
     </g>
    </g>
    <g id="ytick_7">
     <g id="line2d_16">
      <g>
       <use style="stroke:#000000;stroke-width:0.8;" x="57.6" xlink:href="#m51b7f9d87d" y="45.932956"/>
      </g>
     </g>
     <g id="text_17">
      <!-- 0 -->
      <g transform="translate(44.2375 49.732175)scale(0.1 -0.1)">
       <use xlink:href="#DejaVuSans-30"/>
      </g>
     </g>
    </g>
    <g id="text_18">
     <!-- Loss -->
     <g transform="translate(9.650781 190.978781)rotate(-90)scale(0.15 -0.15)">
      <defs>
       <path d="M 628 4666 
L 1259 4666 
L 1259 531 
L 3531 531 
L 3531 0 
L 628 0 
L 628 4666 
z
" id="DejaVuSans-4c" transform="scale(0.015625)"/>
       <path d="M 2834 3397 
L 2834 2853 
Q 2591 2978 2328 3040 
Q 2066 3103 1784 3103 
Q 1356 3103 1142 2972 
Q 928 2841 928 2578 
Q 928 2378 1081 2264 
Q 1234 2150 1697 2047 
L 1894 2003 
Q 2506 1872 2764 1633 
Q 3022 1394 3022 966 
Q 3022 478 2636 193 
Q 2250 -91 1575 -91 
Q 1294 -91 989 -36 
Q 684 19 347 128 
L 347 722 
Q 666 556 975 473 
Q 1284 391 1588 391 
Q 1994 391 2212 530 
Q 2431 669 2431 922 
Q 2431 1156 2273 1281 
Q 2116 1406 1581 1522 
L 1381 1569 
Q 847 1681 609 1914 
Q 372 2147 372 2553 
Q 372 3047 722 3315 
Q 1072 3584 1716 3584 
Q 2034 3584 2315 3537 
Q 2597 3491 2834 3397 
z
" id="DejaVuSans-73" transform="scale(0.015625)"/>
      </defs>
      <use xlink:href="#DejaVuSans-4c"/>
      <use x="53.962891" xlink:href="#DejaVuSans-6f"/>
      <use x="115.144531" xlink:href="#DejaVuSans-73"/>
      <use x="167.244141" xlink:href="#DejaVuSans-73"/>
     </g>
    </g>
   </g>
   <g id="line2d_17">
    <path clip-path="url(#pc584c4345f)" d="M 73.832727 53.568 
L 74.646398 114.294669 
L 75.460068 121.242047 
L 76.273739 83.444026 
L 77.087409 122.94274 
L 77.90108 133.381523 
L 78.714751 136.666753 
L 79.528421 159.280926 
L 80.342092 157.528802 
L 81.155762 153.921268 
L 81.969433 171.594602 
L 83.596774 163.618387 
L 84.410444 174.538751 
L 85.224115 165.503056 
L 86.037785 181.933003 
L 86.851456 184.812842 
L 87.665126 175.546172 
L 88.478797 198.620002 
L 89.292468 197.274205 
L 90.106138 182.577993 
L 90.919809 191.254807 
L 91.733479 202.623553 
L 93.36082 209.624887 
L 94.174491 204.123437 
L 94.988161 205.736772 
L 95.801832 209.552958 
L 96.615502 207.782753 
L 97.429173 223.351499 
L 98.242843 211.438158 
L 99.056514 219.348815 
L 99.870185 219.433053 
L 100.683855 213.379988 
L 101.497526 224.717454 
L 102.311196 229.676033 
L 103.124867 222.101838 
L 103.938537 229.745184 
L 104.752208 234.124046 
L 105.565878 232.281103 
L 106.379549 229.532628 
L 107.193219 229.848541 
L 108.00689 238.604149 
L 108.82056 240.46621 
L 109.634231 218.389644 
L 110.447902 232.119738 
L 111.261572 234.329798 
L 112.075243 237.858004 
L 112.888913 246.09501 
L 113.702584 247.428693 
L 114.516254 239.293644 
L 115.329925 135.328502 
L 116.143595 241.960206 
L 116.957266 232.206215 
L 117.770936 237.004373 
L 118.584607 240.843405 
L 119.398278 240.172257 
L 120.211948 247.73184 
L 121.025619 244.043472 
L 121.839289 234.237943 
L 122.65296 237.520949 
L 123.46663 244.870419 
L 124.280301 253.367534 
L 125.093971 249.638157 
L 125.907642 237.918287 
L 126.721312 236.96201 
L 127.534983 251.49631 
L 128.348653 255.433318 
L 129.162324 236.998808 
L 129.975995 247.707897 
L 130.789665 247.146255 
L 131.603336 241.343105 
L 132.417006 246.493437 
L 133.230677 241.770213 
L 134.044347 257.885529 
L 134.858018 253.6218 
L 135.671688 247.425349 
L 136.485359 234.385788 
L 137.299029 243.241083 
L 138.1127 244.588842 
L 138.92637 243.003957 
L 139.740041 250.758715 
L 140.553712 239.963243 
L 141.367382 251.859163 
L 142.181053 250.579337 
L 142.994723 249.899289 
L 143.808394 245.307179 
L 144.622064 250.44318 
L 145.435735 248.89919 
L 146.249405 240.539421 
L 147.063076 240.822535 
L 147.876746 231.916802 
L 148.690417 245.485853 
L 149.504087 234.00619 
L 150.317758 254.197412 
L 151.131429 249.267802 
L 151.945099 254.72762 
L 152.75877 255.749603 
L 153.57244 242.312477 
L 154.386111 258.05457 
L 155.199781 250.742038 
L 156.013452 259.602503 
L 156.827122 242.305146 
L 157.640793 250.475567 
L 158.454463 254.844223 
L 159.268134 250.471836 
L 160.081805 250.370507 
L 160.895475 256.505988 
L 161.709146 258.106311 
L 162.522816 262.058952 
L 163.336487 243.471662 
L 164.150157 259.524992 
L 164.963828 230.789878 
L 165.777498 242.546699 
L 166.591169 247.45969 
L 167.404839 256.011982 
L 168.21851 254.017507 
L 169.03218 265.645515 
L 169.845851 258.691446 
L 170.659522 248.394828 
L 171.473192 259.186576 
L 172.286863 256.871265 
L 173.100533 249.646537 
L 173.914204 265.208863 
L 174.727874 246.32562 
L 175.541545 252.881695 
L 176.355215 240.473089 
L 177.168886 261.7119 
L 177.982556 252.21608 
L 178.796227 254.736748 
L 179.609897 253.955838 
L 180.423568 265.96486 
L 181.237239 263.007451 
L 182.050909 269.905315 
L 182.86458 241.930278 
L 183.67825 259.426686 
L 184.491921 260.396626 
L 185.305591 254.625677 
L 186.119262 256.738613 
L 186.932932 253.683913 
L 187.746603 264.994456 
L 188.560273 255.491171 
L 189.373944 263.219369 
L 190.187614 250.452168 
L 191.001285 265.407193 
L 191.814956 242.013709 
L 192.628626 257.870324 
L 193.442297 263.437576 
L 194.255967 248.035806 
L 195.069638 258.202242 
L 195.883308 257.262336 
L 196.696979 257.219471 
L 197.510649 266.205039 
L 198.32432 263.954467 
L 199.13799 252.8946 
L 199.951661 265.078985 
L 200.765332 273.58201 
L 201.579002 258.582087 
L 202.392673 263.923923 
L 203.206343 262.620211 
L 204.020014 259.152217 
L 204.833684 261.848421 
L 205.647355 263.625177 
L 206.461025 269.252745 
L 207.274696 254.045517 
L 208.088366 262.396101 
L 208.902037 274.201783 
L 209.715707 251.331336 
L 210.529378 269.353264 
L 211.343049 268.121565 
L 212.156719 257.801856 
L 212.97039 273.352367 
L 213.78406 271.987924 
L 214.597731 263.095776 
L 215.411401 266.945946 
L 216.225072 267.935616 
L 217.038742 270.422661 
L 217.852413 266.117942 
L 218.666083 254.599373 
L 219.479754 270.147246 
L 220.293424 264.444708 
L 221.107095 271.032479 
L 221.920766 273.016116 
L 222.734436 257.918718 
L 223.548107 269.038419 
L 224.361777 261.569499 
L 225.175448 271.147256 
L 225.989118 265.948366 
L 226.802789 258.990395 
L 227.616459 275.15852 
L 229.2438 267.738612 
L 230.057471 262.487126 
L 230.871141 259.004925 
L 231.684812 262.693215 
L 233.312153 276.576303 
L 234.125824 265.590819 
L 234.939494 256.782925 
L 235.753165 261.978558 
L 236.566835 278.573852 
L 237.380506 273.147217 
L 238.194176 261.308136 
L 239.007847 263.821987 
L 239.821517 263.586545 
L 240.635188 277.502975 
L 241.448859 270.007976 
L 242.262529 283.456098 
L 243.0762 261.809895 
L 243.88987 266.966085 
L 244.703541 269.360074 
L 245.517211 265.174304 
L 246.330882 263.152276 
L 247.144552 272.932199 
L 247.958223 262.74277 
L 248.771893 274.368288 
L 249.585564 272.442693 
L 250.399234 278.352891 
L 251.212905 265.985159 
L 252.026576 278.95965 
L 252.840246 271.05286 
L 253.653917 270.827948 
L 254.467587 281.436426 
L 255.281258 275.354487 
L 256.094928 259.575284 
L 256.908599 278.653471 
L 257.722269 276.605129 
L 258.53594 266.583717 
L 259.34961 264.889122 
L 260.163281 276.457148 
L 260.976951 267.456419 
L 261.790622 273.83835 
L 262.604293 282.204113 
L 263.417963 270.390136 
L 264.231634 275.035223 
L 265.045304 295.488 
L 265.858975 276.144725 
L 266.672645 278.06499 
L 267.486316 259.981894 
L 268.299986 265.061329 
L 269.113657 271.681071 
L 269.927327 288.798778 
L 270.740998 275.64384 
L 272.368339 279.39419 
L 273.18201 260.381024 
L 273.99568 283.76821 
L 274.809351 279.968408 
L 275.623021 283.73642 
L 276.436692 279.40222 
L 277.250362 283.897464 
L 278.064033 267.428001 
L 278.877703 280.99551 
L 279.691374 279.797706 
L 280.505044 269.555691 
L 281.318715 271.395668 
L 282.132386 279.117691 
L 282.946056 273.613316 
L 283.759727 277.229409 
L 284.573397 271.672154 
L 285.387068 270.069654 
L 286.200738 290.799185 
L 287.014409 263.320937 
L 287.828079 276.428386 
L 288.64175 278.320327 
L 289.45542 277.962348 
L 290.269091 268.44336 
L 291.896432 290.775954 
L 293.523773 273.522794 
L 294.337444 282.243334 
L 295.151114 253.634237 
L 295.964785 277.61559 
L 296.778455 273.182136 
L 297.592126 280.525234 
L 298.405796 261.590654 
L 299.219467 257.207315 
L 300.033137 270.946584 
L 300.846808 270.934129 
L 301.660478 262.901399 
L 302.474149 274.998776 
L 303.28782 259.293364 
L 304.10149 272.133243 
L 304.915161 279.4421 
L 305.728831 252.923519 
L 306.542502 266.023387 
L 307.356172 273.183899 
L 308.169843 277.437065 
L 308.983513 274.69387 
L 309.797184 288.210007 
L 310.610854 272.326396 
L 311.424525 275.532704 
L 312.238195 278.053029 
L 313.051866 274.928568 
L 313.865537 275.261851 
L 314.679207 273.022267 
L 315.492878 285.704047 
L 316.306548 269.088112 
L 317.120219 276.647852 
L 317.933889 272.915033 
L 318.74756 272.975853 
L 319.56123 291.481833 
L 320.374901 267.510021 
L 321.188571 274.615607 
L 322.002242 272.008631 
L 322.815913 267.673014 
L 323.629583 274.817132 
L 324.443254 286.722087 
L 325.256924 269.377475 
L 326.070595 282.982532 
L 326.884265 287.054729 
L 327.697936 279.785674 
L 328.511606 277.391578 
L 329.325277 276.123925 
L 330.138947 276.863881 
L 331.766288 278.910423 
L 332.579959 266.412917 
L 333.39363 280.841208 
L 334.2073 273.306401 
L 335.020971 273.285799 
L 335.834641 274.785066 
L 336.648312 273.387034 
L 337.461982 268.393581 
L 338.275653 268.443471 
L 339.089323 262.227398 
L 339.902994 265.203559 
L 340.716664 274.964819 
L 341.530335 271.81551 
L 342.344005 261.882465 
L 343.157676 274.097039 
L 343.971347 263.870724 
L 344.785017 278.95345 
L 345.598688 281.391788 
L 346.412358 280.154542 
L 347.226029 267.66241 
L 348.039699 282.30542 
L 348.85337 273.168421 
L 349.66704 279.85342 
L 350.480711 276.954531 
L 351.294381 282.871161 
L 352.108052 280.083075 
L 352.921722 278.492909 
L 354.549064 265.465194 
L 355.362734 278.628585 
L 356.176405 275.702268 
L 356.990075 275.831462 
L 357.803746 271.246574 
L 358.617416 280.490096 
L 359.431087 269.925411 
L 360.244757 287.355583 
L 361.058428 274.955192 
L 361.872098 282.407367 
L 362.685769 283.257083 
L 363.49944 273.262827 
L 364.31311 267.305666 
L 365.126781 263.144242 
L 365.940451 277.829142 
L 366.754122 279.511395 
L 367.567792 269.532945 
L 368.381463 264.574086 
L 369.195133 276.228856 
L 370.008804 285.484829 
L 371.636145 284.50703 
L 372.449815 276.292191 
L 373.263486 284.66607 
L 374.077157 262.919835 
L 374.890827 271.246137 
L 375.704498 285.088544 
L 376.518168 256.321109 
L 377.331839 275.054901 
L 378.145509 262.496572 
L 378.95918 278.667081 
L 379.77285 278.518634 
L 380.586521 271.005303 
L 381.400191 281.496983 
L 382.213862 270.007743 
L 383.027532 271.54304 
L 383.841203 289.769935 
L 384.654874 275.726129 
L 385.468544 277.412638 
L 386.282215 280.038816 
L 387.095885 269.429258 
L 387.909556 285.061997 
L 388.723226 273.84257 
L 389.536897 285.576241 
L 390.350567 272.056978 
L 391.164238 277.097662 
L 391.977908 273.14693 
L 392.791579 271.727923 
L 393.605249 282.142112 
L 394.41892 278.941867 
L 395.232591 265.6903 
L 396.046261 259.153715 
L 396.859932 272.250121 
L 397.673602 268.724805 
L 398.487273 276.993391 
L 398.487273 276.993391 
" style="fill:none;stroke:#1f77b4;stroke-linecap:square;stroke-width:1.5;"/>
   </g>
   <g id="line2d_18">
    <path clip-path="url(#pc584c4345f)" d="M 73.832727 84.225408 
L 74.646398 131.762049 
L 75.460068 140.209838 
L 76.273739 114.549571 
L 77.087409 135.085603 
L 77.90108 148.43473 
L 78.714751 155.533309 
L 79.528421 163.851497 
L 80.342092 163.351655 
L 81.155762 169.476068 
L 81.969433 168.980517 
L 82.783103 167.757149 
L 83.596774 110.213776 
L 84.410444 182.886718 
L 85.224115 177.650262 
L 86.037785 179.637158 
L 87.665126 193.945533 
L 88.478797 191.899141 
L 89.292468 205.654658 
L 90.106138 198.79161 
L 91.733479 210.408671 
L 92.54715 205.718278 
L 93.36082 213.133076 
L 94.174491 216.631305 
L 94.988161 214.112087 
L 95.801832 223.095806 
L 96.615502 213.135109 
L 97.429173 215.866806 
L 98.242843 217.74398 
L 99.056514 225.033238 
L 99.870185 217.559662 
L 100.683855 225.699606 
L 101.497526 231.42949 
L 103.124867 225.158033 
L 103.938537 230.217749 
L 104.752208 227.459344 
L 105.565878 227.692353 
L 106.379549 212.207295 
L 107.193219 237.817606 
L 108.00689 233.117662 
L 108.82056 233.678628 
L 109.634231 233.889592 
L 110.447902 231.522954 
L 111.261572 243.329309 
L 112.075243 236.774119 
L 112.888913 231.819613 
L 113.702584 239.151497 
L 114.516254 225.094473 
L 115.329925 208.17588 
L 116.143595 222.563137 
L 116.957266 243.089465 
L 117.770936 244.028979 
L 118.584607 237.117131 
L 119.398278 240.976539 
L 120.211948 251.429551 
L 121.025619 231.527902 
L 121.839289 251.201349 
L 122.65296 238.192942 
L 123.46663 249.305631 
L 124.280301 244.349406 
L 125.093971 246.858233 
L 125.907642 245.409544 
L 126.721312 242.480798 
L 127.534983 243.535094 
L 128.348653 242.91574 
L 129.162324 248.71094 
L 129.975995 245.326032 
L 130.789665 244.458662 
L 131.603336 235.781602 
L 132.417006 240.815147 
L 133.230677 254.849384 
L 134.044347 243.129637 
L 134.858018 250.056809 
L 135.671688 250.193202 
L 136.485359 239.048546 
L 137.299029 248.203916 
L 138.1127 243.176955 
L 138.92637 244.488738 
L 139.740041 242.855935 
L 140.553712 249.489151 
L 141.367382 249.638794 
L 142.181053 238.841386 
L 142.994723 256.807703 
L 143.808394 241.60468 
L 144.622064 258.820231 
L 145.435735 239.125819 
L 146.249405 246.796793 
L 147.063076 242.773752 
L 147.876746 250.743212 
L 148.690417 243.605557 
L 149.504087 242.35788 
L 150.317758 246.623552 
L 151.131429 245.385017 
L 151.945099 247.42819 
L 152.75877 253.167897 
L 153.57244 251.620629 
L 154.386111 246.2371 
L 155.199781 247.978833 
L 156.013452 238.539019 
L 156.827122 256.10062 
L 157.640793 245.83076 
L 158.454463 248.376517 
L 159.268134 256.316035 
L 160.081805 262.838115 
L 160.895475 250.967169 
L 161.709146 250.537099 
L 162.522816 250.536469 
L 163.336487 218.000389 
L 164.150157 254.244797 
L 164.963828 251.871361 
L 165.777498 245.132939 
L 166.591169 250.819128 
L 167.404839 244.95593 
L 168.21851 257.267702 
L 169.03218 255.804735 
L 169.845851 255.723223 
L 170.659522 255.12007 
L 171.473192 254.274925 
L 172.286863 256.550107 
L 173.100533 241.142005 
L 173.914204 252.891238 
L 174.727874 257.877409 
L 175.541545 251.482523 
L 176.355215 254.434472 
L 177.168886 256.024369 
L 177.982556 235.847872 
L 178.796227 254.788267 
L 179.609897 243.144891 
L 180.423568 248.880292 
L 181.237239 262.491765 
L 182.050909 263.030822 
L 182.86458 248.004242 
L 183.67825 254.946553 
L 184.491921 233.081674 
L 185.305591 255.015469 
L 186.119262 257.206147 
L 186.932932 254.282797 
L 187.746603 257.920408 
L 188.560273 254.412743 
L 189.373944 249.753692 
L 190.187614 267.221746 
L 191.814956 254.71393 
L 192.628626 258.109851 
L 193.442297 252.433614 
L 194.255967 261.35542 
L 195.069638 249.5893 
L 195.883308 262.13445 
L 196.696979 259.629475 
L 197.510649 267.357989 
L 198.32432 262.605358 
L 199.13799 252.603583 
L 199.951661 260.383055 
L 200.765332 256.971176 
L 201.579002 264.512454 
L 202.392673 249.347091 
L 203.206343 266.66304 
L 204.020014 272.040224 
L 204.833684 249.800658 
L 205.647355 260.493122 
L 206.461025 259.720406 
L 207.274696 254.871132 
L 208.088366 265.069163 
L 208.902037 264.889096 
L 209.715707 254.663456 
L 210.529378 257.897161 
L 211.343049 268.050371 
L 212.156719 261.10851 
L 212.97039 275.099538 
L 213.78406 254.968894 
L 214.597731 270.279996 
L 215.411401 273.121571 
L 216.225072 271.679482 
L 217.038742 260.710898 
L 217.852413 256.739636 
L 218.666083 260.879888 
L 219.479754 269.979311 
L 220.293424 271.736489 
L 221.107095 269.048171 
L 221.920766 252.476722 
L 222.734436 263.702102 
L 223.548107 265.458965 
L 224.361777 257.582803 
L 225.175448 277.273376 
L 225.989118 266.798482 
L 227.616459 273.261807 
L 228.43013 276.416624 
L 230.057471 258.777014 
L 230.871141 257.311607 
L 231.684812 262.861364 
L 232.498483 261.549442 
L 233.312153 266.868074 
L 234.125824 271.360936 
L 236.566835 260.007938 
L 237.380506 268.467088 
L 238.194176 265.040061 
L 239.007847 266.868357 
L 239.821517 265.884175 
L 240.635188 267.078266 
L 241.448859 272.607767 
L 242.262529 264.835796 
L 243.0762 269.144876 
L 243.88987 268.696973 
L 244.703541 252.075025 
L 245.517211 266.48523 
L 246.330882 251.202555 
L 247.144552 255.80762 
L 247.958223 272.808772 
L 248.771893 255.043797 
L 249.585564 264.177586 
L 250.399234 269.690468 
L 251.212905 264.319668 
L 252.026576 262.094489 
L 252.840246 272.148638 
L 253.653917 279.674561 
L 254.467587 268.351379 
L 255.281258 268.661481 
L 256.094928 271.675976 
L 256.908599 262.113555 
L 257.722269 270.987698 
L 258.53594 282.048115 
L 259.34961 268.840546 
L 260.163281 272.965986 
L 260.976951 269.402131 
L 261.790622 265.229037 
L 262.604293 271.21081 
L 263.417963 275.929558 
L 264.231634 279.445016 
L 265.045304 270.488014 
L 265.858975 268.390795 
L 266.672645 260.982077 
L 267.486316 281.612058 
L 268.299986 271.232698 
L 269.113657 279.537533 
L 269.927327 280.917617 
L 270.740998 273.450663 
L 271.554668 275.659348 
L 272.368339 274.601948 
L 273.18201 273.752239 
L 273.99568 267.555901 
L 274.809351 275.930467 
L 275.623021 275.917031 
L 276.436692 279.782456 
L 278.064033 268.043098 
L 278.877703 271.576449 
L 279.691374 276.957924 
L 280.505044 266.547483 
L 281.318715 275.8692 
L 282.132386 266.336614 
L 282.946056 278.886479 
L 283.759727 273.386444 
L 284.573397 268.931834 
L 285.387068 266.469112 
L 286.200738 273.443018 
L 287.014409 272.340673 
L 287.828079 270.443765 
L 288.64175 266.189445 
L 289.45542 277.48733 
L 290.269091 270.865573 
L 291.082761 272.505756 
L 291.896432 274.760641 
L 292.710103 275.663016 
L 293.523773 275.885617 
L 294.337444 256.185327 
L 295.151114 262.962003 
L 295.964785 262.339813 
L 296.778455 273.676565 
L 297.592126 263.868925 
L 298.405796 273.117847 
L 299.219467 256.815228 
L 300.033137 270.633406 
L 300.846808 270.021835 
L 301.660478 259.951938 
L 302.474149 278.128975 
L 303.28782 274.108942 
L 304.10149 262.90052 
L 304.915161 263.820965 
L 305.728831 276.151543 
L 306.542502 261.512631 
L 307.356172 265.087555 
L 308.169843 274.188703 
L 308.983513 270.186549 
L 309.797184 279.875613 
L 310.610854 275.502945 
L 311.424525 267.378329 
L 312.238195 261.753478 
L 313.051866 275.375774 
L 313.865537 264.6752 
L 314.679207 268.223396 
L 315.492878 278.079669 
L 316.306548 265.089824 
L 317.120219 261.497663 
L 317.933889 263.350209 
L 318.74756 270.437292 
L 319.56123 280.821595 
L 320.374901 271.090035 
L 321.188571 268.151433 
L 322.002242 275.511312 
L 322.815913 276.01577 
L 323.629583 272.705915 
L 324.443254 275.273841 
L 325.256924 277.461598 
L 326.070595 286.209518 
L 326.884265 279.404629 
L 327.697936 265.942329 
L 328.511606 244.876258 
L 329.325277 262.845652 
L 330.138947 262.242097 
L 330.952618 282.575114 
L 331.766288 267.424332 
L 332.579959 269.064847 
L 333.39363 274.518762 
L 334.2073 276.566058 
L 335.020971 268.553186 
L 335.834641 275.778493 
L 336.648312 277.818183 
L 337.461982 272.915345 
L 338.275653 272.2313 
L 339.089323 271.018724 
L 339.902994 262.358454 
L 340.716664 271.619071 
L 341.530335 276.239945 
L 342.344005 264.41574 
L 343.157676 280.357103 
L 343.971347 269.614572 
L 344.785017 269.130618 
L 345.598688 267.303928 
L 346.412358 272.933092 
L 347.226029 259.474779 
L 348.039699 255.515583 
L 348.85337 286.081547 
L 349.66704 270.837809 
L 350.480711 281.826547 
L 351.294381 270.689504 
L 352.108052 277.587231 
L 352.921722 276.917785 
L 353.735393 277.948821 
L 354.549064 264.727747 
L 355.362734 279.775044 
L 356.990075 262.12356 
L 357.803746 275.708198 
L 358.617416 268.926807 
L 359.431087 276.603376 
L 360.244757 263.763329 
L 361.058428 277.196357 
L 361.872098 287.956102 
L 362.685769 270.024398 
L 363.49944 276.29892 
L 364.31311 274.394927 
L 365.126781 267.665406 
L 365.940451 269.534655 
L 366.754122 269.327652 
L 367.567792 274.18314 
L 368.381463 266.786803 
L 369.195133 269.080359 
L 370.008804 272.54624 
L 370.822474 278.445021 
L 371.636145 263.10125 
L 372.449815 267.873344 
L 373.263486 280.971452 
L 374.077157 271.800479 
L 374.890827 271.706551 
L 375.704498 268.74237 
L 376.518168 279.654833 
L 377.331839 268.517903 
L 378.145509 269.575714 
L 378.95918 279.741239 
L 379.77285 264.669663 
L 380.586521 280.161799 
L 381.400191 271.836804 
L 382.213862 282.940134 
L 383.027532 271.77192 
L 383.841203 277.158706 
L 384.654874 278.084508 
L 385.468544 265.447359 
L 386.282215 269.221152 
L 387.095885 267.394767 
L 387.909556 269.238784 
L 388.723226 272.679956 
L 389.536897 274.224254 
L 390.350567 277.988399 
L 391.164238 276.321843 
L 391.977908 274.998364 
L 392.791579 269.961431 
L 393.605249 274.485195 
L 394.41892 263.080288 
L 395.232591 260.358556 
L 396.046261 268.473307 
L 396.859932 269.045374 
L 397.673602 277.270305 
L 398.487273 273.672371 
L 398.487273 273.672371 
" style="fill:none;stroke:#ff7f0e;stroke-linecap:square;stroke-width:1.5;"/>
   </g>
   <g id="patch_3">
    <path d="M 57.6 307.584 
L 57.6 41.472 
" style="fill:none;stroke:#000000;stroke-linecap:square;stroke-linejoin:miter;stroke-width:0.8;"/>
   </g>
   <g id="patch_4">
    <path d="M 414.72 307.584 
L 414.72 41.472 
" style="fill:none;stroke:#000000;stroke-linecap:square;stroke-linejoin:miter;stroke-width:0.8;"/>
   </g>
   <g id="patch_5">
    <path d="M 57.6 307.584 
L 414.72 307.584 
" style="fill:none;stroke:#000000;stroke-linecap:square;stroke-linejoin:miter;stroke-width:0.8;"/>
   </g>
   <g id="patch_6">
    <path d="M 57.6 41.472 
L 414.72 41.472 
" style="fill:none;stroke:#000000;stroke-linecap:square;stroke-linejoin:miter;stroke-width:0.8;"/>
   </g>
   <g id="legend_1">
    <g id="patch_7">
     <path d="M 303.845 78.82825 
L 407.72 78.82825 
Q 409.72 78.82825 409.72 76.82825 
L 409.72 48.472 
Q 409.72 46.472 407.72 46.472 
L 303.845 46.472 
Q 301.845 46.472 301.845 48.472 
L 301.845 76.82825 
Q 301.845 78.82825 303.845 78.82825 
z
" style="fill:#ffffff;opacity:0.8;stroke:#cccccc;stroke-linejoin:miter;"/>
    </g>
    <g id="line2d_19">
     <path d="M 305.845 54.570437 
L 325.845 54.570437 
" style="fill:none;stroke:#1f77b4;stroke-linecap:square;stroke-width:1.5;"/>
    </g>
    <g id="line2d_20"/>
    <g id="text_19">
     <!-- Train loss -->
     <g transform="translate(333.845 58.070437)scale(0.1 -0.1)">
      <defs>
       <path d="M -19 4666 
L 3928 4666 
L 3928 4134 
L 2272 4134 
L 2272 0 
L 1638 0 
L 1638 4134 
L -19 4134 
L -19 4666 
z
" id="DejaVuSans-54" transform="scale(0.015625)"/>
       <path d="M 2631 2963 
Q 2534 3019 2420 3045 
Q 2306 3072 2169 3072 
Q 1681 3072 1420 2755 
Q 1159 2438 1159 1844 
L 1159 0 
L 581 0 
L 581 3500 
L 1159 3500 
L 1159 2956 
Q 1341 3275 1631 3429 
Q 1922 3584 2338 3584 
Q 2397 3584 2469 3576 
Q 2541 3569 2628 3553 
L 2631 2963 
z
" id="DejaVuSans-72" transform="scale(0.015625)"/>
       <path d="M 2194 1759 
Q 1497 1759 1228 1600 
Q 959 1441 959 1056 
Q 959 750 1161 570 
Q 1363 391 1709 391 
Q 2188 391 2477 730 
Q 2766 1069 2766 1631 
L 2766 1759 
L 2194 1759 
z
M 3341 1997 
L 3341 0 
L 2766 0 
L 2766 531 
Q 2569 213 2275 61 
Q 1981 -91 1556 -91 
Q 1019 -91 701 211 
Q 384 513 384 1019 
Q 384 1609 779 1909 
Q 1175 2209 1959 2209 
L 2766 2209 
L 2766 2266 
Q 2766 2663 2505 2880 
Q 2244 3097 1772 3097 
Q 1472 3097 1187 3025 
Q 903 2953 641 2809 
L 641 3341 
Q 956 3463 1253 3523 
Q 1550 3584 1831 3584 
Q 2591 3584 2966 3190 
Q 3341 2797 3341 1997 
z
" id="DejaVuSans-61" transform="scale(0.015625)"/>
       <path d="M 603 3500 
L 1178 3500 
L 1178 0 
L 603 0 
L 603 3500 
z
M 603 4863 
L 1178 4863 
L 1178 4134 
L 603 4134 
L 603 4863 
z
" id="DejaVuSans-69" transform="scale(0.015625)"/>
       <path d="M 3513 2113 
L 3513 0 
L 2938 0 
L 2938 2094 
Q 2938 2591 2744 2837 
Q 2550 3084 2163 3084 
Q 1697 3084 1428 2787 
Q 1159 2491 1159 1978 
L 1159 0 
L 581 0 
L 581 3500 
L 1159 3500 
L 1159 2956 
Q 1366 3272 1645 3428 
Q 1925 3584 2291 3584 
Q 2894 3584 3203 3211 
Q 3513 2838 3513 2113 
z
" id="DejaVuSans-6e" transform="scale(0.015625)"/>
       <path id="DejaVuSans-20" transform="scale(0.015625)"/>
       <path d="M 603 4863 
L 1178 4863 
L 1178 0 
L 603 0 
L 603 4863 
z
" id="DejaVuSans-6c" transform="scale(0.015625)"/>
      </defs>
      <use xlink:href="#DejaVuSans-54"/>
      <use x="46.333984" xlink:href="#DejaVuSans-72"/>
      <use x="87.447266" xlink:href="#DejaVuSans-61"/>
      <use x="148.726562" xlink:href="#DejaVuSans-69"/>
      <use x="176.509766" xlink:href="#DejaVuSans-6e"/>
      <use x="239.888672" xlink:href="#DejaVuSans-20"/>
      <use x="271.675781" xlink:href="#DejaVuSans-6c"/>
      <use x="299.458984" xlink:href="#DejaVuSans-6f"/>
      <use x="360.640625" xlink:href="#DejaVuSans-73"/>
      <use x="412.740234" xlink:href="#DejaVuSans-73"/>
     </g>
    </g>
    <g id="line2d_21">
     <path d="M 305.845 69.248562 
L 325.845 69.248562 
" style="fill:none;stroke:#ff7f0e;stroke-linecap:square;stroke-width:1.5;"/>
    </g>
    <g id="line2d_22"/>
    <g id="text_20">
     <!-- Validation loss -->
     <g transform="translate(333.845 72.748562)scale(0.1 -0.1)">
      <defs>
       <path d="M 1831 0 
L 50 4666 
L 709 4666 
L 2188 738 
L 3669 4666 
L 4325 4666 
L 2547 0 
L 1831 0 
z
" id="DejaVuSans-56" transform="scale(0.015625)"/>
       <path d="M 2906 2969 
L 2906 4863 
L 3481 4863 
L 3481 0 
L 2906 0 
L 2906 525 
Q 2725 213 2448 61 
Q 2172 -91 1784 -91 
Q 1150 -91 751 415 
Q 353 922 353 1747 
Q 353 2572 751 3078 
Q 1150 3584 1784 3584 
Q 2172 3584 2448 3432 
Q 2725 3281 2906 2969 
z
M 947 1747 
Q 947 1113 1208 752 
Q 1469 391 1925 391 
Q 2381 391 2643 752 
Q 2906 1113 2906 1747 
Q 2906 2381 2643 2742 
Q 2381 3103 1925 3103 
Q 1469 3103 1208 2742 
Q 947 2381 947 1747 
z
" id="DejaVuSans-64" transform="scale(0.015625)"/>
       <path d="M 1172 4494 
L 1172 3500 
L 2356 3500 
L 2356 3053 
L 1172 3053 
L 1172 1153 
Q 1172 725 1289 603 
Q 1406 481 1766 481 
L 2356 481 
L 2356 0 
L 1766 0 
Q 1100 0 847 248 
Q 594 497 594 1153 
L 594 3053 
L 172 3053 
L 172 3500 
L 594 3500 
L 594 4494 
L 1172 4494 
z
" id="DejaVuSans-74" transform="scale(0.015625)"/>
      </defs>
      <use xlink:href="#DejaVuSans-56"/>
      <use x="60.658203" xlink:href="#DejaVuSans-61"/>
      <use x="121.9375" xlink:href="#DejaVuSans-6c"/>
      <use x="149.720703" xlink:href="#DejaVuSans-69"/>
      <use x="177.503906" xlink:href="#DejaVuSans-64"/>
      <use x="240.980469" xlink:href="#DejaVuSans-61"/>
      <use x="302.259766" xlink:href="#DejaVuSans-74"/>
      <use x="341.46875" xlink:href="#DejaVuSans-69"/>
      <use x="369.251953" xlink:href="#DejaVuSans-6f"/>
      <use x="430.433594" xlink:href="#DejaVuSans-6e"/>
      <use x="493.8125" xlink:href="#DejaVuSans-20"/>
      <use x="525.599609" xlink:href="#DejaVuSans-6c"/>
      <use x="553.382812" xlink:href="#DejaVuSans-6f"/>
      <use x="614.564453" xlink:href="#DejaVuSans-73"/>
      <use x="666.664062" xlink:href="#DejaVuSans-73"/>
     </g>
    </g>
   </g>
  </g>
 </g>
 <defs>
  <clipPath id="pc584c4345f">
   <rect height="266.112" width="357.12" x="57.6" y="41.472"/>
  </clipPath>
 </defs>
</svg>
