<?xml version="1.0" encoding="utf-8" standalone="no"?>
<!DOCTYPE svg PUBLIC "-//W3C//DTD SVG 1.1//EN"
  "http://www.w3.org/Graphics/SVG/1.1/DTD/svg11.dtd">
<svg height="345.6pt" version="1.1" viewBox="0 0 460.8 345.6" width="460.8pt" xmlns="http://www.w3.org/2000/svg" xmlns:xlink="http://www.w3.org/1999/xlink">
 <metadata>
  <rdf:RDF xmlns:cc="http://creativecommons.org/ns#" xmlns:dc="http://purl.org/dc/elements/1.1/" xmlns:rdf="http://www.w3.org/1999/02/22-rdf-syntax-ns#">
   <cc:Work>
    <dc:type rdf:resource="http://purl.org/dc/dcmitype/StillImage"/>
    <dc:date>2021-07-14T23:57:48.885774</dc:date>
    <dc:format>image/svg+xml</dc:format>
    <dc:creator>
     <cc:Agent>
      <dc:title>Matplotlib v3.4.2, https://matplotlib.org/</dc:title>
     </cc:Agent>
    </dc:creator>
   </cc:Work>
  </rdf:RDF>
 </metadata>
 <defs>
  <style type="text/css">*{stroke-linecap:butt;stroke-linejoin:round;}</style>
 </defs>
 <g id="figure_1">
  <g id="patch_1">
   <path d="M 0 345.6 
L 460.8 345.6 
L 460.8 0 
L 0 0 
z
" style="fill:#ffffff;"/>
  </g>
  <g id="axes_1">
   <g id="patch_2">
    <path d="M 57.6 307.584 
L 414.72 307.584 
L 414.72 41.472 
L 57.6 41.472 
z
" style="fill:#ffffff;"/>
   </g>
   <g id="matplotlib.axis_1">
    <g id="xtick_1">
     <g id="line2d_1">
      <defs>
       <path d="M 0 0 
L 0 3.5 
" id="m4e976ccf0d" style="stroke:#000000;stroke-width:0.8;"/>
      </defs>
      <g>
       <use style="stroke:#000000;stroke-width:0.8;" x="73.019057" xlink:href="#m4e976ccf0d" y="307.584"/>
      </g>
     </g>
     <g id="text_1">
      <!-- 0 -->
      <g transform="translate(69.837807 322.182437)scale(0.1 -0.1)">
       <defs>
        <path d="M 2034 4250 
Q 1547 4250 1301 3770 
Q 1056 3291 1056 2328 
Q 1056 1369 1301 889 
Q 1547 409 2034 409 
Q 2525 409 2770 889 
Q 3016 1369 3016 2328 
Q 3016 3291 2770 3770 
Q 2525 4250 2034 4250 
z
M 2034 4750 
Q 2819 4750 3233 4129 
Q 3647 3509 3647 2328 
Q 3647 1150 3233 529 
Q 2819 -91 2034 -91 
Q 1250 -91 836 529 
Q 422 1150 422 2328 
Q 422 3509 836 4129 
Q 1250 4750 2034 4750 
z
" id="DejaVuSans-30" transform="scale(0.015625)"/>
       </defs>
       <use xlink:href="#DejaVuSans-30"/>
      </g>
     </g>
    </g>
    <g id="xtick_2">
     <g id="line2d_2">
      <g>
       <use style="stroke:#000000;stroke-width:0.8;" x="113.702584" xlink:href="#m4e976ccf0d" y="307.584"/>
      </g>
     </g>
     <g id="text_2">
      <!-- 50 -->
      <g transform="translate(107.340084 322.182437)scale(0.1 -0.1)">
       <defs>
        <path d="M 691 4666 
L 3169 4666 
L 3169 4134 
L 1269 4134 
L 1269 2991 
Q 1406 3038 1543 3061 
Q 1681 3084 1819 3084 
Q 2600 3084 3056 2656 
Q 3513 2228 3513 1497 
Q 3513 744 3044 326 
Q 2575 -91 1722 -91 
Q 1428 -91 1123 -41 
Q 819 9 494 109 
L 494 744 
Q 775 591 1075 516 
Q 1375 441 1709 441 
Q 2250 441 2565 725 
Q 2881 1009 2881 1497 
Q 2881 1984 2565 2268 
Q 2250 2553 1709 2553 
Q 1456 2553 1204 2497 
Q 953 2441 691 2322 
L 691 4666 
z
" id="DejaVuSans-35" transform="scale(0.015625)"/>
       </defs>
       <use xlink:href="#DejaVuSans-35"/>
       <use x="63.623047" xlink:href="#DejaVuSans-30"/>
      </g>
     </g>
    </g>
    <g id="xtick_3">
     <g id="line2d_3">
      <g>
       <use style="stroke:#000000;stroke-width:0.8;" x="154.386111" xlink:href="#m4e976ccf0d" y="307.584"/>
      </g>
     </g>
     <g id="text_3">
      <!-- 100 -->
      <g transform="translate(144.842361 322.182437)scale(0.1 -0.1)">
       <defs>
        <path d="M 794 531 
L 1825 531 
L 1825 4091 
L 703 3866 
L 703 4441 
L 1819 4666 
L 2450 4666 
L 2450 531 
L 3481 531 
L 3481 0 
L 794 0 
L 794 531 
z
" id="DejaVuSans-31" transform="scale(0.015625)"/>
       </defs>
       <use xlink:href="#DejaVuSans-31"/>
       <use x="63.623047" xlink:href="#DejaVuSans-30"/>
       <use x="127.246094" xlink:href="#DejaVuSans-30"/>
      </g>
     </g>
    </g>
    <g id="xtick_4">
     <g id="line2d_4">
      <g>
       <use style="stroke:#000000;stroke-width:0.8;" x="195.069638" xlink:href="#m4e976ccf0d" y="307.584"/>
      </g>
     </g>
     <g id="text_4">
      <!-- 150 -->
      <g transform="translate(185.525888 322.182437)scale(0.1 -0.1)">
       <use xlink:href="#DejaVuSans-31"/>
       <use x="63.623047" xlink:href="#DejaVuSans-35"/>
       <use x="127.246094" xlink:href="#DejaVuSans-30"/>
      </g>
     </g>
    </g>
    <g id="xtick_5">
     <g id="line2d_5">
      <g>
       <use style="stroke:#000000;stroke-width:0.8;" x="235.753165" xlink:href="#m4e976ccf0d" y="307.584"/>
      </g>
     </g>
     <g id="text_5">
      <!-- 200 -->
      <g transform="translate(226.209415 322.182437)scale(0.1 -0.1)">
       <defs>
        <path d="M 1228 531 
L 3431 531 
L 3431 0 
L 469 0 
L 469 531 
Q 828 903 1448 1529 
Q 2069 2156 2228 2338 
Q 2531 2678 2651 2914 
Q 2772 3150 2772 3378 
Q 2772 3750 2511 3984 
Q 2250 4219 1831 4219 
Q 1534 4219 1204 4116 
Q 875 4013 500 3803 
L 500 4441 
Q 881 4594 1212 4672 
Q 1544 4750 1819 4750 
Q 2544 4750 2975 4387 
Q 3406 4025 3406 3419 
Q 3406 3131 3298 2873 
Q 3191 2616 2906 2266 
Q 2828 2175 2409 1742 
Q 1991 1309 1228 531 
z
" id="DejaVuSans-32" transform="scale(0.015625)"/>
       </defs>
       <use xlink:href="#DejaVuSans-32"/>
       <use x="63.623047" xlink:href="#DejaVuSans-30"/>
       <use x="127.246094" xlink:href="#DejaVuSans-30"/>
      </g>
     </g>
    </g>
    <g id="xtick_6">
     <g id="line2d_6">
      <g>
       <use style="stroke:#000000;stroke-width:0.8;" x="276.436692" xlink:href="#m4e976ccf0d" y="307.584"/>
      </g>
     </g>
     <g id="text_6">
      <!-- 250 -->
      <g transform="translate(266.892942 322.182437)scale(0.1 -0.1)">
       <use xlink:href="#DejaVuSans-32"/>
       <use x="63.623047" xlink:href="#DejaVuSans-35"/>
       <use x="127.246094" xlink:href="#DejaVuSans-30"/>
      </g>
     </g>
    </g>
    <g id="xtick_7">
     <g id="line2d_7">
      <g>
       <use style="stroke:#000000;stroke-width:0.8;" x="317.120219" xlink:href="#m4e976ccf0d" y="307.584"/>
      </g>
     </g>
     <g id="text_7">
      <!-- 300 -->
      <g transform="translate(307.576469 322.182437)scale(0.1 -0.1)">
       <defs>
        <path d="M 2597 2516 
Q 3050 2419 3304 2112 
Q 3559 1806 3559 1356 
Q 3559 666 3084 287 
Q 2609 -91 1734 -91 
Q 1441 -91 1130 -33 
Q 819 25 488 141 
L 488 750 
Q 750 597 1062 519 
Q 1375 441 1716 441 
Q 2309 441 2620 675 
Q 2931 909 2931 1356 
Q 2931 1769 2642 2001 
Q 2353 2234 1838 2234 
L 1294 2234 
L 1294 2753 
L 1863 2753 
Q 2328 2753 2575 2939 
Q 2822 3125 2822 3475 
Q 2822 3834 2567 4026 
Q 2313 4219 1838 4219 
Q 1578 4219 1281 4162 
Q 984 4106 628 3988 
L 628 4550 
Q 988 4650 1302 4700 
Q 1616 4750 1894 4750 
Q 2613 4750 3031 4423 
Q 3450 4097 3450 3541 
Q 3450 3153 3228 2886 
Q 3006 2619 2597 2516 
z
" id="DejaVuSans-33" transform="scale(0.015625)"/>
       </defs>
       <use xlink:href="#DejaVuSans-33"/>
       <use x="63.623047" xlink:href="#DejaVuSans-30"/>
       <use x="127.246094" xlink:href="#DejaVuSans-30"/>
      </g>
     </g>
    </g>
    <g id="xtick_8">
     <g id="line2d_8">
      <g>
       <use style="stroke:#000000;stroke-width:0.8;" x="357.803746" xlink:href="#m4e976ccf0d" y="307.584"/>
      </g>
     </g>
     <g id="text_8">
      <!-- 350 -->
      <g transform="translate(348.259996 322.182437)scale(0.1 -0.1)">
       <use xlink:href="#DejaVuSans-33"/>
       <use x="63.623047" xlink:href="#DejaVuSans-35"/>
       <use x="127.246094" xlink:href="#DejaVuSans-30"/>
      </g>
     </g>
    </g>
    <g id="xtick_9">
     <g id="line2d_9">
      <g>
       <use style="stroke:#000000;stroke-width:0.8;" x="398.487273" xlink:href="#m4e976ccf0d" y="307.584"/>
      </g>
     </g>
     <g id="text_9">
      <!-- 400 -->
      <g transform="translate(388.943523 322.182437)scale(0.1 -0.1)">
       <defs>
        <path d="M 2419 4116 
L 825 1625 
L 2419 1625 
L 2419 4116 
z
M 2253 4666 
L 3047 4666 
L 3047 1625 
L 3713 1625 
L 3713 1100 
L 3047 1100 
L 3047 0 
L 2419 0 
L 2419 1100 
L 313 1100 
L 313 1709 
L 2253 4666 
z
" id="DejaVuSans-34" transform="scale(0.015625)"/>
       </defs>
       <use xlink:href="#DejaVuSans-34"/>
       <use x="63.623047" xlink:href="#DejaVuSans-30"/>
       <use x="127.246094" xlink:href="#DejaVuSans-30"/>
      </g>
     </g>
    </g>
    <g id="text_10">
     <!-- Epoch -->
     <g transform="translate(213.193594 339.659781)scale(0.15 -0.15)">
      <defs>
       <path d="M 628 4666 
L 3578 4666 
L 3578 4134 
L 1259 4134 
L 1259 2753 
L 3481 2753 
L 3481 2222 
L 1259 2222 
L 1259 531 
L 3634 531 
L 3634 0 
L 628 0 
L 628 4666 
z
" id="DejaVuSans-45" transform="scale(0.015625)"/>
       <path d="M 1159 525 
L 1159 -1331 
L 581 -1331 
L 581 3500 
L 1159 3500 
L 1159 2969 
Q 1341 3281 1617 3432 
Q 1894 3584 2278 3584 
Q 2916 3584 3314 3078 
Q 3713 2572 3713 1747 
Q 3713 922 3314 415 
Q 2916 -91 2278 -91 
Q 1894 -91 1617 61 
Q 1341 213 1159 525 
z
M 3116 1747 
Q 3116 2381 2855 2742 
Q 2594 3103 2138 3103 
Q 1681 3103 1420 2742 
Q 1159 2381 1159 1747 
Q 1159 1113 1420 752 
Q 1681 391 2138 391 
Q 2594 391 2855 752 
Q 3116 1113 3116 1747 
z
" id="DejaVuSans-70" transform="scale(0.015625)"/>
       <path d="M 1959 3097 
Q 1497 3097 1228 2736 
Q 959 2375 959 1747 
Q 959 1119 1226 758 
Q 1494 397 1959 397 
Q 2419 397 2687 759 
Q 2956 1122 2956 1747 
Q 2956 2369 2687 2733 
Q 2419 3097 1959 3097 
z
M 1959 3584 
Q 2709 3584 3137 3096 
Q 3566 2609 3566 1747 
Q 3566 888 3137 398 
Q 2709 -91 1959 -91 
Q 1206 -91 779 398 
Q 353 888 353 1747 
Q 353 2609 779 3096 
Q 1206 3584 1959 3584 
z
" id="DejaVuSans-6f" transform="scale(0.015625)"/>
       <path d="M 3122 3366 
L 3122 2828 
Q 2878 2963 2633 3030 
Q 2388 3097 2138 3097 
Q 1578 3097 1268 2742 
Q 959 2388 959 1747 
Q 959 1106 1268 751 
Q 1578 397 2138 397 
Q 2388 397 2633 464 
Q 2878 531 3122 666 
L 3122 134 
Q 2881 22 2623 -34 
Q 2366 -91 2075 -91 
Q 1284 -91 818 406 
Q 353 903 353 1747 
Q 353 2603 823 3093 
Q 1294 3584 2113 3584 
Q 2378 3584 2631 3529 
Q 2884 3475 3122 3366 
z
" id="DejaVuSans-63" transform="scale(0.015625)"/>
       <path d="M 3513 2113 
L 3513 0 
L 2938 0 
L 2938 2094 
Q 2938 2591 2744 2837 
Q 2550 3084 2163 3084 
Q 1697 3084 1428 2787 
Q 1159 2491 1159 1978 
L 1159 0 
L 581 0 
L 581 4863 
L 1159 4863 
L 1159 2956 
Q 1366 3272 1645 3428 
Q 1925 3584 2291 3584 
Q 2894 3584 3203 3211 
Q 3513 2838 3513 2113 
z
" id="DejaVuSans-68" transform="scale(0.015625)"/>
      </defs>
      <use xlink:href="#DejaVuSans-45"/>
      <use x="63.183594" xlink:href="#DejaVuSans-70"/>
      <use x="126.660156" xlink:href="#DejaVuSans-6f"/>
      <use x="187.841797" xlink:href="#DejaVuSans-63"/>
      <use x="242.822266" xlink:href="#DejaVuSans-68"/>
     </g>
    </g>
   </g>
   <g id="matplotlib.axis_2">
    <g id="ytick_1">
     <g id="line2d_10">
      <defs>
       <path d="M 0 0 
L -3.5 0 
" id="m839b437135" style="stroke:#000000;stroke-width:0.8;"/>
      </defs>
      <g>
       <use style="stroke:#000000;stroke-width:0.8;" x="57.6" xlink:href="#m839b437135" y="303.302698"/>
      </g>
     </g>
     <g id="text_11">
      <!-- −1200 -->
      <g transform="translate(16.770313 307.101916)scale(0.1 -0.1)">
       <defs>
        <path d="M 678 2272 
L 4684 2272 
L 4684 1741 
L 678 1741 
L 678 2272 
z
" id="DejaVuSans-2212" transform="scale(0.015625)"/>
       </defs>
       <use xlink:href="#DejaVuSans-2212"/>
       <use x="83.789062" xlink:href="#DejaVuSans-31"/>
       <use x="147.412109" xlink:href="#DejaVuSans-32"/>
       <use x="211.035156" xlink:href="#DejaVuSans-30"/>
       <use x="274.658203" xlink:href="#DejaVuSans-30"/>
      </g>
     </g>
    </g>
    <g id="ytick_2">
     <g id="line2d_11">
      <g>
       <use style="stroke:#000000;stroke-width:0.8;" x="57.6" xlink:href="#m839b437135" y="256.866234"/>
      </g>
     </g>
     <g id="text_12">
      <!-- −1000 -->
      <g transform="translate(16.770313 260.665453)scale(0.1 -0.1)">
       <use xlink:href="#DejaVuSans-2212"/>
       <use x="83.789062" xlink:href="#DejaVuSans-31"/>
       <use x="147.412109" xlink:href="#DejaVuSans-30"/>
       <use x="211.035156" xlink:href="#DejaVuSans-30"/>
       <use x="274.658203" xlink:href="#DejaVuSans-30"/>
      </g>
     </g>
    </g>
    <g id="ytick_3">
     <g id="line2d_12">
      <g>
       <use style="stroke:#000000;stroke-width:0.8;" x="57.6" xlink:href="#m839b437135" y="210.429771"/>
      </g>
     </g>
     <g id="text_13">
      <!-- −800 -->
      <g transform="translate(23.132812 214.22899)scale(0.1 -0.1)">
       <defs>
        <path d="M 2034 2216 
Q 1584 2216 1326 1975 
Q 1069 1734 1069 1313 
Q 1069 891 1326 650 
Q 1584 409 2034 409 
Q 2484 409 2743 651 
Q 3003 894 3003 1313 
Q 3003 1734 2745 1975 
Q 2488 2216 2034 2216 
z
M 1403 2484 
Q 997 2584 770 2862 
Q 544 3141 544 3541 
Q 544 4100 942 4425 
Q 1341 4750 2034 4750 
Q 2731 4750 3128 4425 
Q 3525 4100 3525 3541 
Q 3525 3141 3298 2862 
Q 3072 2584 2669 2484 
Q 3125 2378 3379 2068 
Q 3634 1759 3634 1313 
Q 3634 634 3220 271 
Q 2806 -91 2034 -91 
Q 1263 -91 848 271 
Q 434 634 434 1313 
Q 434 1759 690 2068 
Q 947 2378 1403 2484 
z
M 1172 3481 
Q 1172 3119 1398 2916 
Q 1625 2713 2034 2713 
Q 2441 2713 2670 2916 
Q 2900 3119 2900 3481 
Q 2900 3844 2670 4047 
Q 2441 4250 2034 4250 
Q 1625 4250 1398 4047 
Q 1172 3844 1172 3481 
z
" id="DejaVuSans-38" transform="scale(0.015625)"/>
       </defs>
       <use xlink:href="#DejaVuSans-2212"/>
       <use x="83.789062" xlink:href="#DejaVuSans-38"/>
       <use x="147.412109" xlink:href="#DejaVuSans-30"/>
       <use x="211.035156" xlink:href="#DejaVuSans-30"/>
      </g>
     </g>
    </g>
    <g id="ytick_4">
     <g id="line2d_13">
      <g>
       <use style="stroke:#000000;stroke-width:0.8;" x="57.6" xlink:href="#m839b437135" y="163.993308"/>
      </g>
     </g>
     <g id="text_14">
      <!-- −600 -->
      <g transform="translate(23.132812 167.792526)scale(0.1 -0.1)">
       <defs>
        <path d="M 2113 2584 
Q 1688 2584 1439 2293 
Q 1191 2003 1191 1497 
Q 1191 994 1439 701 
Q 1688 409 2113 409 
Q 2538 409 2786 701 
Q 3034 994 3034 1497 
Q 3034 2003 2786 2293 
Q 2538 2584 2113 2584 
z
M 3366 4563 
L 3366 3988 
Q 3128 4100 2886 4159 
Q 2644 4219 2406 4219 
Q 1781 4219 1451 3797 
Q 1122 3375 1075 2522 
Q 1259 2794 1537 2939 
Q 1816 3084 2150 3084 
Q 2853 3084 3261 2657 
Q 3669 2231 3669 1497 
Q 3669 778 3244 343 
Q 2819 -91 2113 -91 
Q 1303 -91 875 529 
Q 447 1150 447 2328 
Q 447 3434 972 4092 
Q 1497 4750 2381 4750 
Q 2619 4750 2861 4703 
Q 3103 4656 3366 4563 
z
" id="DejaVuSans-36" transform="scale(0.015625)"/>
       </defs>
       <use xlink:href="#DejaVuSans-2212"/>
       <use x="83.789062" xlink:href="#DejaVuSans-36"/>
       <use x="147.412109" xlink:href="#DejaVuSans-30"/>
       <use x="211.035156" xlink:href="#DejaVuSans-30"/>
      </g>
     </g>
    </g>
    <g id="ytick_5">
     <g id="line2d_14">
      <g>
       <use style="stroke:#000000;stroke-width:0.8;" x="57.6" xlink:href="#m839b437135" y="117.556844"/>
      </g>
     </g>
     <g id="text_15">
      <!-- −400 -->
      <g transform="translate(23.132812 121.356063)scale(0.1 -0.1)">
       <use xlink:href="#DejaVuSans-2212"/>
       <use x="83.789062" xlink:href="#DejaVuSans-34"/>
       <use x="147.412109" xlink:href="#DejaVuSans-30"/>
       <use x="211.035156" xlink:href="#DejaVuSans-30"/>
      </g>
     </g>
    </g>
    <g id="ytick_6">
     <g id="line2d_15">
      <g>
       <use style="stroke:#000000;stroke-width:0.8;" x="57.6" xlink:href="#m839b437135" y="71.120381"/>
      </g>
     </g>
     <g id="text_16">
      <!-- −200 -->
      <g transform="translate(23.132812 74.9196)scale(0.1 -0.1)">
       <use xlink:href="#DejaVuSans-2212"/>
       <use x="83.789062" xlink:href="#DejaVuSans-32"/>
       <use x="147.412109" xlink:href="#DejaVuSans-30"/>
       <use x="211.035156" xlink:href="#DejaVuSans-30"/>
      </g>
     </g>
    </g>
    <g id="text_17">
     <!-- Loss -->
     <g transform="translate(9.650781 190.978781)rotate(-90)scale(0.15 -0.15)">
      <defs>
       <path d="M 628 4666 
L 1259 4666 
L 1259 531 
L 3531 531 
L 3531 0 
L 628 0 
L 628 4666 
z
" id="DejaVuSans-4c" transform="scale(0.015625)"/>
       <path d="M 2834 3397 
L 2834 2853 
Q 2591 2978 2328 3040 
Q 2066 3103 1784 3103 
Q 1356 3103 1142 2972 
Q 928 2841 928 2578 
Q 928 2378 1081 2264 
Q 1234 2150 1697 2047 
L 1894 2003 
Q 2506 1872 2764 1633 
Q 3022 1394 3022 966 
Q 3022 478 2636 193 
Q 2250 -91 1575 -91 
Q 1294 -91 989 -36 
Q 684 19 347 128 
L 347 722 
Q 666 556 975 473 
Q 1284 391 1588 391 
Q 1994 391 2212 530 
Q 2431 669 2431 922 
Q 2431 1156 2273 1281 
Q 2116 1406 1581 1522 
L 1381 1569 
Q 847 1681 609 1914 
Q 372 2147 372 2553 
Q 372 3047 722 3315 
Q 1072 3584 1716 3584 
Q 2034 3584 2315 3537 
Q 2597 3491 2834 3397 
z
" id="DejaVuSans-73" transform="scale(0.015625)"/>
      </defs>
      <use xlink:href="#DejaVuSans-4c"/>
      <use x="53.962891" xlink:href="#DejaVuSans-6f"/>
      <use x="115.144531" xlink:href="#DejaVuSans-73"/>
      <use x="167.244141" xlink:href="#DejaVuSans-73"/>
     </g>
    </g>
   </g>
   <g id="line2d_16">
    <path clip-path="url(#p02137dbc87)" d="M 73.832727 53.568 
L 74.646398 97.799825 
L 75.460068 117.922551 
L 76.273739 117.027441 
L 77.087409 132.940932 
L 77.90108 132.367113 
L 78.714751 147.151552 
L 79.528421 143.047171 
L 80.342092 145.781614 
L 81.155762 162.070658 
L 81.969433 167.569672 
L 82.783103 153.848399 
L 83.596774 154.106193 
L 84.410444 165.022287 
L 85.224115 155.08524 
L 86.037785 182.864893 
L 86.851456 181.300313 
L 87.665126 174.60308 
L 88.478797 185.538663 
L 89.292468 180.882389 
L 90.106138 192.197069 
L 90.919809 193.139907 
L 91.733479 179.143784 
L 92.54715 201.523949 
L 93.36082 206.243436 
L 94.174491 195.950501 
L 94.988161 210.207372 
L 95.801832 200.898411 
L 96.615502 206.006867 
L 97.429173 214.118306 
L 98.242843 202.180197 
L 99.056514 213.090487 
L 99.870185 210.277472 
L 100.683855 208.394936 
L 101.497526 172.217672 
L 102.311196 206.608821 
L 103.124867 206.242566 
L 103.938537 215.118595 
L 104.752208 219.6236 
L 105.565878 218.433536 
L 106.379549 226.046889 
L 107.193219 217.613984 
L 108.00689 218.170807 
L 108.82056 231.134881 
L 109.634231 224.30455 
L 110.447902 223.432637 
L 111.261572 221.163242 
L 112.075243 244.764778 
L 112.888913 225.346949 
L 113.702584 226.819193 
L 114.516254 242.275602 
L 115.329925 231.047302 
L 116.143595 227.706321 
L 116.957266 230.134435 
L 117.770936 239.024715 
L 118.584607 235.90551 
L 119.398278 234.420741 
L 120.211948 231.911025 
L 121.025619 231.176987 
L 121.839289 237.339487 
L 122.65296 236.864175 
L 123.46663 230.050465 
L 124.280301 236.407028 
L 125.093971 230.486974 
L 125.907642 226.136435 
L 126.721312 251.184088 
L 129.162324 227.36646 
L 129.975995 247.137452 
L 130.789665 242.425972 
L 131.603336 234.261689 
L 132.417006 231.808378 
L 133.230677 244.931919 
L 134.044347 254.686312 
L 134.858018 231.807919 
L 135.671688 247.79678 
L 136.485359 237.748918 
L 137.299029 245.889379 
L 138.1127 237.992126 
L 138.92637 227.280517 
L 139.740041 229.327076 
L 140.553712 243.288621 
L 141.367382 247.46947 
L 142.181053 246.641141 
L 142.994723 245.17924 
L 143.808394 231.712385 
L 144.622064 246.932547 
L 145.435735 239.002868 
L 146.249405 241.325406 
L 147.063076 246.974512 
L 147.876746 256.613258 
L 148.690417 237.673702 
L 149.504087 236.448291 
L 150.317758 245.987625 
L 151.131429 251.009955 
L 151.945099 243.479092 
L 152.75877 239.954865 
L 153.57244 238.198192 
L 154.386111 242.732966 
L 155.199781 252.322877 
L 156.013452 253.537284 
L 156.827122 231.415932 
L 157.640793 245.796719 
L 158.454463 242.7319 
L 159.268134 241.341138 
L 160.081805 242.612109 
L 160.895475 256.249401 
L 161.709146 230.973021 
L 162.522816 242.737275 
L 163.336487 247.680038 
L 164.150157 257.716869 
L 164.963828 251.744972 
L 165.777498 242.407256 
L 166.591169 228.357984 
L 167.404839 240.234972 
L 168.21851 241.121696 
L 169.03218 253.732038 
L 169.845851 245.321944 
L 170.659522 251.834185 
L 171.473192 249.229046 
L 172.286863 253.38381 
L 173.100533 242.426545 
L 173.914204 247.994488 
L 174.727874 247.438366 
L 175.541545 233.655198 
L 176.355215 261.079529 
L 177.168886 237.800324 
L 177.982556 253.672071 
L 178.796227 246.888625 
L 179.609897 237.849304 
L 180.423568 239.7419 
L 181.237239 259.424374 
L 182.050909 257.404773 
L 182.86458 252.029078 
L 183.67825 253.559684 
L 184.491921 269.172031 
L 185.305591 243.672199 
L 186.119262 245.108396 
L 186.932932 250.261703 
L 187.746603 247.05068 
L 188.560273 259.827821 
L 189.373944 244.998317 
L 190.187614 250.331089 
L 191.001285 274.536929 
L 191.814956 255.732825 
L 192.628626 245.78009 
L 193.442297 245.970274 
L 194.255967 256.462311 
L 195.069638 256.937973 
L 195.883308 254.635654 
L 196.696979 251.20435 
L 197.510649 250.819571 
L 198.32432 250.741727 
L 199.13799 251.543431 
L 199.951661 269.176518 
L 200.765332 256.196158 
L 201.579002 245.530969 
L 202.392673 244.289549 
L 203.206343 245.996669 
L 204.020014 258.846358 
L 204.833684 250.118667 
L 205.647355 258.686312 
L 206.461025 256.583283 
L 207.274696 253.148397 
L 208.088366 258.503202 
L 208.902037 254.702988 
L 209.715707 266.018562 
L 210.529378 256.505677 
L 211.343049 240.923416 
L 212.156719 262.685928 
L 212.97039 258.664653 
L 213.78406 262.653971 
L 214.597731 257.652125 
L 215.411401 247.012864 
L 216.225072 265.434889 
L 217.038742 264.532715 
L 217.852413 242.291575 
L 218.666083 255.776815 
L 219.479754 243.797084 
L 220.293424 249.649338 
L 221.107095 268.518524 
L 221.920766 245.591319 
L 222.734436 261.443336 
L 223.548107 270.923235 
L 224.361777 257.952631 
L 225.175448 262.108997 
L 225.989118 265.496544 
L 226.802789 264.508073 
L 227.616459 267.968556 
L 228.43013 264.274093 
L 229.2438 257.981169 
L 230.057471 256.820737 
L 230.871141 256.129976 
L 231.684812 260.179422 
L 232.498483 243.062221 
L 233.312153 264.409402 
L 234.125824 250.384041 
L 234.939494 259.953134 
L 235.753165 254.585209 
L 236.566835 255.646679 
L 237.380506 253.807013 
L 238.194176 253.029823 
L 239.007847 256.352597 
L 239.821517 240.707665 
L 240.635188 260.966883 
L 241.448859 248.398505 
L 242.262529 257.609979 
L 243.0762 276.169599 
L 243.88987 272.932301 
L 244.703541 254.91467 
L 245.517211 272.382029 
L 246.330882 251.00887 
L 247.144552 256.953538 
L 247.958223 274.730304 
L 248.771893 259.817793 
L 250.399234 272.232495 
L 251.212905 254.803214 
L 252.026576 273.899804 
L 252.840246 263.766305 
L 253.653917 257.459609 
L 254.467587 271.421768 
L 255.281258 262.721433 
L 256.094928 272.950927 
L 256.908599 267.09999 
L 257.722269 253.35592 
L 258.53594 254.565112 
L 259.34961 255.062222 
L 260.163281 254.521297 
L 260.976951 260.293754 
L 261.790622 278.716154 
L 263.417963 263.004849 
L 264.231634 266.642349 
L 265.045304 257.202053 
L 265.858975 264.388928 
L 266.672645 274.561944 
L 267.486316 251.871071 
L 268.299986 259.796278 
L 269.113657 270.20816 
L 269.927327 260.450381 
L 270.740998 255.056389 
L 271.554668 264.68834 
L 272.368339 268.619087 
L 273.18201 265.816112 
L 273.99568 270.068151 
L 274.809351 279.496743 
L 275.623021 267.329593 
L 276.436692 269.151322 
L 277.250362 274.393162 
L 278.064033 260.184398 
L 278.877703 285.833335 
L 279.691374 269.418283 
L 280.505044 272.02605 
L 281.318715 266.522306 
L 282.132386 272.455035 
L 282.946056 268.248818 
L 283.759727 267.924059 
L 284.573397 286.490851 
L 285.387068 272.9929 
L 286.200738 274.030626 
L 287.014409 271.460215 
L 287.828079 275.189198 
L 288.64175 279.77031 
L 289.45542 276.591545 
L 290.269091 271.728253 
L 291.082761 276.890085 
L 291.896432 272.785197 
L 292.710103 282.163028 
L 293.523773 267.751336 
L 294.337444 277.19264 
L 295.151114 273.629421 
L 296.778455 285.796961 
L 297.592126 281.562033 
L 298.405796 277.993107 
L 299.219467 278.366504 
L 300.033137 275.607667 
L 300.846808 280.264819 
L 301.660478 255.138662 
L 302.474149 257.945235 
L 303.28782 271.665361 
L 304.10149 278.392109 
L 304.915161 282.386089 
L 305.728831 270.477521 
L 306.542502 270.837243 
L 307.356172 258.038652 
L 308.169843 286.973811 
L 308.983513 266.526165 
L 309.797184 270.942788 
L 310.610854 276.578662 
L 311.424525 269.517699 
L 312.238195 288.097128 
L 313.051866 285.26972 
L 313.865537 263.762457 
L 314.679207 274.215959 
L 315.492878 288.246888 
L 316.306548 271.759788 
L 317.120219 277.180474 
L 317.933889 268.597364 
L 318.74756 288.523063 
L 319.56123 278.217875 
L 320.374901 279.145032 
L 321.188571 255.379643 
L 322.002242 283.887032 
L 322.815913 288.290858 
L 323.629583 289.321857 
L 324.443254 273.591339 
L 325.256924 270.717203 
L 326.070595 271.102846 
L 326.884265 271.918831 
L 327.697936 270.6675 
L 328.511606 272.326507 
L 329.325277 286.861561 
L 330.138947 278.585128 
L 330.952618 264.977729 
L 331.766288 272.534942 
L 332.579959 268.578705 
L 333.39363 259.671403 
L 334.2073 285.720175 
L 335.020971 286.579878 
L 335.834641 279.892081 
L 336.648312 286.859086 
L 337.461982 261.75205 
L 338.275653 277.167378 
L 339.089323 280.722796 
L 339.902994 268.958831 
L 340.716664 278.444028 
L 341.530335 263.094748 
L 342.344005 264.007468 
L 343.157676 285.89445 
L 343.971347 272.951478 
L 344.785017 269.054563 
L 345.598688 271.346392 
L 346.412358 287.655507 
L 347.226029 285.437463 
L 348.039699 286.997108 
L 348.85337 287.714251 
L 349.66704 277.185587 
L 350.480711 279.953096 
L 351.294381 275.482659 
L 352.108052 252.761895 
L 352.921722 276.772516 
L 353.735393 259.396927 
L 354.549064 281.536914 
L 355.362734 276.902528 
L 356.176405 277.282736 
L 356.990075 289.076749 
L 357.803746 273.838755 
L 358.617416 271.705267 
L 359.431087 264.684913 
L 360.244757 249.126633 
L 361.058428 287.021623 
L 361.872098 265.767927 
L 362.685769 295.488 
L 363.49944 282.738951 
L 364.31311 284.50926 
L 365.126781 282.591658 
L 365.940451 270.217652 
L 366.754122 289.891806 
L 367.567792 283.858084 
L 368.381463 274.904622 
L 369.195133 274.22356 
L 370.008804 269.159314 
L 370.822474 279.986357 
L 371.636145 281.514767 
L 372.449815 259.891558 
L 373.263486 271.280391 
L 374.077157 285.337095 
L 374.890827 287.891049 
L 375.704498 284.190758 
L 376.518168 287.716752 
L 377.331839 294.712407 
L 378.145509 271.434004 
L 378.95918 276.890965 
L 379.77285 292.859949 
L 380.586521 285.775893 
L 381.400191 286.094572 
L 382.213862 265.162155 
L 383.027532 267.88835 
L 383.841203 275.406935 
L 384.654874 274.653527 
L 385.468544 285.376254 
L 386.282215 269.38354 
L 387.095885 268.362597 
L 387.909556 272.690085 
L 388.723226 280.738468 
L 389.536897 286.449855 
L 390.350567 283.646117 
L 391.164238 266.094001 
L 391.977908 261.315794 
L 392.791579 254.201343 
L 393.605249 261.320292 
L 394.41892 277.884079 
L 395.232591 278.739648 
L 396.046261 271.020547 
L 396.859932 269.728791 
L 397.673602 278.207056 
L 398.487273 280.487637 
L 398.487273 280.487637 
" style="fill:none;stroke:#1f77b4;stroke-linecap:square;stroke-width:1.5;"/>
   </g>
   <g id="line2d_17">
    <path clip-path="url(#p02137dbc87)" d="M 73.832727 102.197961 
L 74.646398 107.307713 
L 75.460068 132.162098 
L 76.273739 131.01264 
L 77.087409 141.91287 
L 77.90108 125.505484 
L 78.714751 150.622377 
L 79.528421 144.528569 
L 80.342092 165.133781 
L 81.155762 163.106207 
L 81.969433 163.564305 
L 82.783103 163.315882 
L 83.596774 169.722968 
L 84.410444 155.846119 
L 85.224115 180.360599 
L 86.037785 176.179025 
L 86.851456 166.871932 
L 87.665126 182.782085 
L 88.478797 189.716124 
L 89.292468 186.516239 
L 90.106138 190.53239 
L 90.919809 197.375705 
L 91.733479 191.11578 
L 92.54715 203.730488 
L 93.36082 205.454788 
L 94.174491 215.758844 
L 94.988161 208.675447 
L 95.801832 206.645985 
L 96.615502 195.130717 
L 97.429173 204.836229 
L 98.242843 204.094211 
L 99.056514 217.609332 
L 99.870185 209.765828 
L 100.683855 221.59913 
L 101.497526 203.804434 
L 102.311196 211.120349 
L 103.124867 217.34578 
L 103.938537 216.04163 
L 104.752208 218.142738 
L 105.565878 223.899392 
L 106.379549 219.869119 
L 107.193219 219.551121 
L 108.00689 219.499928 
L 108.82056 223.791295 
L 109.634231 219.247718 
L 111.261572 234.264187 
L 112.075243 217.77141 
L 112.888913 220.780146 
L 113.702584 203.721354 
L 114.516254 233.246289 
L 115.329925 234.352052 
L 116.143595 228.166465 
L 116.957266 231.347425 
L 117.770936 233.837742 
L 118.584607 224.337832 
L 119.398278 233.909033 
L 120.211948 234.65206 
L 121.025619 225.983353 
L 121.839289 235.861168 
L 122.65296 213.61846 
L 123.46663 232.707415 
L 124.280301 232.019779 
L 125.093971 225.396086 
L 125.907642 224.285977 
L 126.721312 227.120799 
L 127.534983 231.013262 
L 128.348653 242.317515 
L 129.162324 232.378733 
L 129.975995 246.665083 
L 130.789665 228.695407 
L 131.603336 231.519086 
L 132.417006 237.046059 
L 133.230677 230.918313 
L 134.044347 239.680887 
L 134.858018 236.685022 
L 135.671688 237.364427 
L 136.485359 236.744967 
L 137.299029 240.29625 
L 138.1127 251.608821 
L 138.92637 226.919596 
L 139.740041 237.200728 
L 140.553712 237.380699 
L 141.367382 236.753 
L 142.181053 241.038815 
L 142.994723 235.919226 
L 143.808394 236.978921 
L 144.622064 237.119805 
L 145.435735 236.589037 
L 146.249405 247.273506 
L 147.063076 243.395923 
L 147.876746 237.891547 
L 148.690417 242.515302 
L 149.504087 241.556184 
L 150.317758 242.17 
L 151.131429 254.007249 
L 151.945099 238.729047 
L 152.75877 233.373097 
L 153.57244 245.996715 
L 154.386111 243.967109 
L 155.199781 245.041021 
L 156.013452 235.696971 
L 156.827122 255.744965 
L 157.640793 235.630692 
L 158.454463 250.302457 
L 159.268134 245.430058 
L 160.081805 246.701787 
L 160.895475 245.756348 
L 161.709146 231.089696 
L 162.522816 244.485896 
L 163.336487 249.979413 
L 164.150157 245.61515 
L 164.963828 247.421706 
L 165.777498 240.322594 
L 166.591169 242.532214 
L 167.404839 248.018442 
L 168.21851 236.780917 
L 169.03218 249.267807 
L 169.845851 235.387854 
L 170.659522 246.170437 
L 171.473192 238.706566 
L 172.286863 249.535504 
L 173.100533 257.368738 
L 173.914204 234.63446 
L 174.727874 246.591873 
L 175.541545 244.602753 
L 176.355215 254.209468 
L 177.168886 249.95476 
L 177.982556 250.51625 
L 178.796227 239.972686 
L 179.609897 246.895964 
L 180.423568 241.370297 
L 181.237239 243.611224 
L 182.050909 245.40573 
L 182.86458 255.895597 
L 183.67825 250.01079 
L 184.491921 250.124165 
L 185.305591 250.867662 
L 186.119262 244.658042 
L 186.932932 241.978238 
L 187.746603 250.615513 
L 188.560273 242.848395 
L 189.373944 259.502794 
L 190.187614 249.833239 
L 191.001285 246.221159 
L 191.814956 263.701986 
L 192.628626 238.118933 
L 193.442297 258.879821 
L 194.255967 257.69748 
L 195.069638 254.324413 
L 195.883308 248.988135 
L 197.510649 249.370998 
L 198.32432 255.279113 
L 199.13799 247.541769 
L 199.951661 242.411957 
L 200.765332 253.055418 
L 201.579002 251.321172 
L 202.392673 240.22865 
L 203.206343 250.345356 
L 204.020014 256.068207 
L 204.833684 250.188182 
L 205.647355 247.93324 
L 206.461025 254.825371 
L 207.274696 258.081844 
L 208.088366 249.608445 
L 208.902037 250.78686 
L 209.715707 256.009516 
L 210.529378 255.788699 
L 211.343049 252.2125 
L 212.156719 244.130255 
L 212.97039 252.754308 
L 213.78406 257.006555 
L 214.597731 253.030658 
L 216.225072 261.678577 
L 217.038742 251.177087 
L 217.852413 261.543573 
L 219.479754 253.977837 
L 220.293424 245.029798 
L 221.107095 257.987886 
L 221.920766 256.436365 
L 222.734436 250.291009 
L 223.548107 252.231471 
L 224.361777 255.862866 
L 225.175448 256.906292 
L 225.989118 245.738588 
L 227.616459 258.478886 
L 228.43013 247.655578 
L 229.2438 257.100305 
L 230.057471 248.05531 
L 230.871141 265.46942 
L 231.684812 261.56992 
L 232.498483 254.402597 
L 233.312153 249.08112 
L 234.125824 259.455716 
L 234.939494 243.723551 
L 235.753165 255.947216 
L 236.566835 258.766894 
L 237.380506 250.037014 
L 238.194176 250.064502 
L 239.007847 262.660901 
L 239.821517 263.712175 
L 240.635188 257.625342 
L 241.448859 254.983274 
L 242.262529 258.624965 
L 243.0762 264.386641 
L 243.88987 258.643088 
L 244.703541 264.165625 
L 245.517211 261.216795 
L 246.330882 253.054705 
L 247.958223 269.996926 
L 248.771893 261.523503 
L 249.585564 247.75165 
L 250.399234 251.06488 
L 251.212905 259.775502 
L 252.026576 261.337981 
L 252.840246 267.993533 
L 253.653917 260.820958 
L 254.467587 263.460408 
L 255.281258 255.460277 
L 256.094928 266.297487 
L 256.908599 263.973368 
L 257.722269 248.203442 
L 258.53594 259.344032 
L 259.34961 256.5459 
L 260.163281 252.036909 
L 260.976951 244.576231 
L 261.790622 252.144691 
L 262.604293 266.196395 
L 263.417963 255.971662 
L 264.231634 263.34407 
L 265.045304 263.895159 
L 265.858975 257.200927 
L 266.672645 266.222629 
L 267.486316 264.170095 
L 268.299986 259.376364 
L 269.113657 264.60538 
L 269.927327 270.941685 
L 270.740998 251.677395 
L 271.554668 274.72872 
L 272.368339 265.064312 
L 273.18201 266.854714 
L 273.99568 256.210524 
L 274.809351 256.268292 
L 275.623021 259.801792 
L 276.436692 255.599004 
L 277.250362 270.870468 
L 278.064033 259.670527 
L 278.877703 256.489234 
L 279.691374 261.552907 
L 280.505044 263.409913 
L 281.318715 268.77713 
L 282.132386 263.566519 
L 282.946056 242.547449 
L 283.759727 260.429791 
L 284.573397 263.0871 
L 285.387068 270.323965 
L 286.200738 270.644663 
L 287.014409 260.04848 
L 288.64175 268.961479 
L 289.45542 267.220829 
L 291.082761 277.085943 
L 291.896432 264.658162 
L 292.710103 263.956338 
L 293.523773 259.517289 
L 294.337444 272.905502 
L 295.151114 275.455438 
L 295.964785 274.671254 
L 296.778455 275.348342 
L 297.592126 266.581594 
L 298.405796 253.893238 
L 299.219467 267.13715 
L 300.033137 269.670661 
L 300.846808 271.59834 
L 301.660478 266.193127 
L 302.474149 278.032878 
L 304.915161 260.797358 
L 305.728831 276.085378 
L 306.542502 265.943547 
L 307.356172 254.360709 
L 308.169843 273.186011 
L 308.983513 270.976176 
L 309.797184 277.099304 
L 310.610854 271.285062 
L 311.424525 276.611172 
L 312.238195 286.144456 
L 313.051866 258.287142 
L 313.865537 262.661423 
L 314.679207 273.238651 
L 315.492878 268.961998 
L 316.306548 276.628067 
L 317.120219 261.125647 
L 317.933889 276.928981 
L 318.74756 278.153599 
L 319.56123 262.390121 
L 320.374901 266.180703 
L 321.188571 275.610485 
L 322.002242 265.935244 
L 322.815913 277.788121 
L 323.629583 277.056445 
L 324.443254 294.074699 
L 325.256924 265.258217 
L 326.070595 279.233541 
L 326.884265 277.762876 
L 327.697936 264.48342 
L 328.511606 269.079788 
L 330.138947 283.322466 
L 330.952618 266.290092 
L 331.766288 262.301503 
L 332.579959 287.572618 
L 333.39363 257.93052 
L 334.2073 273.350408 
L 335.020971 258.145471 
L 335.834641 273.051512 
L 336.648312 280.420742 
L 337.461982 268.375506 
L 338.275653 263.755202 
L 339.089323 270.033504 
L 339.902994 267.691044 
L 340.716664 264.932277 
L 341.530335 274.754145 
L 342.344005 266.720363 
L 343.157676 256.362212 
L 343.971347 256.953934 
L 344.785017 270.522224 
L 345.598688 269.016715 
L 346.412358 274.879753 
L 347.226029 258.95943 
L 348.039699 265.380685 
L 348.85337 282.300169 
L 349.66704 276.342279 
L 350.480711 280.555623 
L 351.294381 267.232329 
L 352.108052 259.755076 
L 352.921722 281.165931 
L 353.735393 261.145641 
L 354.549064 263.821098 
L 355.362734 275.833058 
L 356.176405 268.311156 
L 356.990075 272.098038 
L 357.803746 272.577466 
L 358.617416 272.593369 
L 359.431087 189.274224 
L 360.244757 261.004453 
L 361.058428 273.269997 
L 361.872098 278.13605 
L 362.685769 261.480691 
L 363.49944 271.028253 
L 364.31311 264.275742 
L 365.126781 262.523589 
L 365.940451 272.913494 
L 366.754122 267.016154 
L 367.567792 267.277478 
L 368.381463 273.928007 
L 369.195133 275.825477 
L 370.008804 266.853226 
L 370.822474 271.273845 
L 371.636145 277.338947 
L 372.449815 271.056413 
L 373.263486 275.244226 
L 374.077157 267.783229 
L 374.890827 262.656494 
L 376.518168 281.815836 
L 377.331839 273.015315 
L 378.145509 281.341851 
L 378.95918 261.713967 
L 379.77285 257.136419 
L 381.400191 275.815121 
L 382.213862 276.506643 
L 383.027532 266.753876 
L 383.841203 278.563126 
L 384.654874 279.288672 
L 385.468544 283.010503 
L 386.282215 269.893497 
L 387.095885 274.951355 
L 387.909556 282.428454 
L 388.723226 256.519586 
L 389.536897 284.933924 
L 390.350567 274.687925 
L 391.164238 282.639094 
L 391.977908 218.113812 
L 392.791579 271.463392 
L 393.605249 266.142689 
L 394.41892 275.219248 
L 395.232591 263.047908 
L 396.046261 276.438931 
L 396.859932 268.737309 
L 397.673602 267.764395 
L 398.487273 248.308771 
L 398.487273 248.308771 
" style="fill:none;stroke:#ff7f0e;stroke-linecap:square;stroke-width:1.5;"/>
   </g>
   <g id="patch_3">
    <path d="M 57.6 307.584 
L 57.6 41.472 
" style="fill:none;stroke:#000000;stroke-linecap:square;stroke-linejoin:miter;stroke-width:0.8;"/>
   </g>
   <g id="patch_4">
    <path d="M 414.72 307.584 
L 414.72 41.472 
" style="fill:none;stroke:#000000;stroke-linecap:square;stroke-linejoin:miter;stroke-width:0.8;"/>
   </g>
   <g id="patch_5">
    <path d="M 57.6 307.584 
L 414.72 307.584 
" style="fill:none;stroke:#000000;stroke-linecap:square;stroke-linejoin:miter;stroke-width:0.8;"/>
   </g>
   <g id="patch_6">
    <path d="M 57.6 41.472 
L 414.72 41.472 
" style="fill:none;stroke:#000000;stroke-linecap:square;stroke-linejoin:miter;stroke-width:0.8;"/>
   </g>
   <g id="legend_1">
    <g id="patch_7">
     <path d="M 303.845 78.82825 
L 407.72 78.82825 
Q 409.72 78.82825 409.72 76.82825 
L 409.72 48.472 
Q 409.72 46.472 407.72 46.472 
L 303.845 46.472 
Q 301.845 46.472 301.845 48.472 
L 301.845 76.82825 
Q 301.845 78.82825 303.845 78.82825 
z
" style="fill:#ffffff;opacity:0.8;stroke:#cccccc;stroke-linejoin:miter;"/>
    </g>
    <g id="line2d_18">
     <path d="M 305.845 54.570437 
L 325.845 54.570437 
" style="fill:none;stroke:#1f77b4;stroke-linecap:square;stroke-width:1.5;"/>
    </g>
    <g id="line2d_19"/>
    <g id="text_18">
     <!-- Train loss -->
     <g transform="translate(333.845 58.070437)scale(0.1 -0.1)">
      <defs>
       <path d="M -19 4666 
L 3928 4666 
L 3928 4134 
L 2272 4134 
L 2272 0 
L 1638 0 
L 1638 4134 
L -19 4134 
L -19 4666 
z
" id="DejaVuSans-54" transform="scale(0.015625)"/>
       <path d="M 2631 2963 
Q 2534 3019 2420 3045 
Q 2306 3072 2169 3072 
Q 1681 3072 1420 2755 
Q 1159 2438 1159 1844 
L 1159 0 
L 581 0 
L 581 3500 
L 1159 3500 
L 1159 2956 
Q 1341 3275 1631 3429 
Q 1922 3584 2338 3584 
Q 2397 3584 2469 3576 
Q 2541 3569 2628 3553 
L 2631 2963 
z
" id="DejaVuSans-72" transform="scale(0.015625)"/>
       <path d="M 2194 1759 
Q 1497 1759 1228 1600 
Q 959 1441 959 1056 
Q 959 750 1161 570 
Q 1363 391 1709 391 
Q 2188 391 2477 730 
Q 2766 1069 2766 1631 
L 2766 1759 
L 2194 1759 
z
M 3341 1997 
L 3341 0 
L 2766 0 
L 2766 531 
Q 2569 213 2275 61 
Q 1981 -91 1556 -91 
Q 1019 -91 701 211 
Q 384 513 384 1019 
Q 384 1609 779 1909 
Q 1175 2209 1959 2209 
L 2766 2209 
L 2766 2266 
Q 2766 2663 2505 2880 
Q 2244 3097 1772 3097 
Q 1472 3097 1187 3025 
Q 903 2953 641 2809 
L 641 3341 
Q 956 3463 1253 3523 
Q 1550 3584 1831 3584 
Q 2591 3584 2966 3190 
Q 3341 2797 3341 1997 
z
" id="DejaVuSans-61" transform="scale(0.015625)"/>
       <path d="M 603 3500 
L 1178 3500 
L 1178 0 
L 603 0 
L 603 3500 
z
M 603 4863 
L 1178 4863 
L 1178 4134 
L 603 4134 
L 603 4863 
z
" id="DejaVuSans-69" transform="scale(0.015625)"/>
       <path d="M 3513 2113 
L 3513 0 
L 2938 0 
L 2938 2094 
Q 2938 2591 2744 2837 
Q 2550 3084 2163 3084 
Q 1697 3084 1428 2787 
Q 1159 2491 1159 1978 
L 1159 0 
L 581 0 
L 581 3500 
L 1159 3500 
L 1159 2956 
Q 1366 3272 1645 3428 
Q 1925 3584 2291 3584 
Q 2894 3584 3203 3211 
Q 3513 2838 3513 2113 
z
" id="DejaVuSans-6e" transform="scale(0.015625)"/>
       <path id="DejaVuSans-20" transform="scale(0.015625)"/>
       <path d="M 603 4863 
L 1178 4863 
L 1178 0 
L 603 0 
L 603 4863 
z
" id="DejaVuSans-6c" transform="scale(0.015625)"/>
      </defs>
      <use xlink:href="#DejaVuSans-54"/>
      <use x="46.333984" xlink:href="#DejaVuSans-72"/>
      <use x="87.447266" xlink:href="#DejaVuSans-61"/>
      <use x="148.726562" xlink:href="#DejaVuSans-69"/>
      <use x="176.509766" xlink:href="#DejaVuSans-6e"/>
      <use x="239.888672" xlink:href="#DejaVuSans-20"/>
      <use x="271.675781" xlink:href="#DejaVuSans-6c"/>
      <use x="299.458984" xlink:href="#DejaVuSans-6f"/>
      <use x="360.640625" xlink:href="#DejaVuSans-73"/>
      <use x="412.740234" xlink:href="#DejaVuSans-73"/>
     </g>
    </g>
    <g id="line2d_20">
     <path d="M 305.845 69.248562 
L 325.845 69.248562 
" style="fill:none;stroke:#ff7f0e;stroke-linecap:square;stroke-width:1.5;"/>
    </g>
    <g id="line2d_21"/>
    <g id="text_19">
     <!-- Validation loss -->
     <g transform="translate(333.845 72.748562)scale(0.1 -0.1)">
      <defs>
       <path d="M 1831 0 
L 50 4666 
L 709 4666 
L 2188 738 
L 3669 4666 
L 4325 4666 
L 2547 0 
L 1831 0 
z
" id="DejaVuSans-56" transform="scale(0.015625)"/>
       <path d="M 2906 2969 
L 2906 4863 
L 3481 4863 
L 3481 0 
L 2906 0 
L 2906 525 
Q 2725 213 2448 61 
Q 2172 -91 1784 -91 
Q 1150 -91 751 415 
Q 353 922 353 1747 
Q 353 2572 751 3078 
Q 1150 3584 1784 3584 
Q 2172 3584 2448 3432 
Q 2725 3281 2906 2969 
z
M 947 1747 
Q 947 1113 1208 752 
Q 1469 391 1925 391 
Q 2381 391 2643 752 
Q 2906 1113 2906 1747 
Q 2906 2381 2643 2742 
Q 2381 3103 1925 3103 
Q 1469 3103 1208 2742 
Q 947 2381 947 1747 
z
" id="DejaVuSans-64" transform="scale(0.015625)"/>
       <path d="M 1172 4494 
L 1172 3500 
L 2356 3500 
L 2356 3053 
L 1172 3053 
L 1172 1153 
Q 1172 725 1289 603 
Q 1406 481 1766 481 
L 2356 481 
L 2356 0 
L 1766 0 
Q 1100 0 847 248 
Q 594 497 594 1153 
L 594 3053 
L 172 3053 
L 172 3500 
L 594 3500 
L 594 4494 
L 1172 4494 
z
" id="DejaVuSans-74" transform="scale(0.015625)"/>
      </defs>
      <use xlink:href="#DejaVuSans-56"/>
      <use x="60.658203" xlink:href="#DejaVuSans-61"/>
      <use x="121.9375" xlink:href="#DejaVuSans-6c"/>
      <use x="149.720703" xlink:href="#DejaVuSans-69"/>
      <use x="177.503906" xlink:href="#DejaVuSans-64"/>
      <use x="240.980469" xlink:href="#DejaVuSans-61"/>
      <use x="302.259766" xlink:href="#DejaVuSans-74"/>
      <use x="341.46875" xlink:href="#DejaVuSans-69"/>
      <use x="369.251953" xlink:href="#DejaVuSans-6f"/>
      <use x="430.433594" xlink:href="#DejaVuSans-6e"/>
      <use x="493.8125" xlink:href="#DejaVuSans-20"/>
      <use x="525.599609" xlink:href="#DejaVuSans-6c"/>
      <use x="553.382812" xlink:href="#DejaVuSans-6f"/>
      <use x="614.564453" xlink:href="#DejaVuSans-73"/>
      <use x="666.664062" xlink:href="#DejaVuSans-73"/>
     </g>
    </g>
   </g>
  </g>
 </g>
 <defs>
  <clipPath id="p02137dbc87">
   <rect height="266.112" width="357.12" x="57.6" y="41.472"/>
  </clipPath>
 </defs>
</svg>
