<?xml version="1.0" encoding="utf-8" standalone="no"?>
<!DOCTYPE svg PUBLIC "-//W3C//DTD SVG 1.1//EN"
  "http://www.w3.org/Graphics/SVG/1.1/DTD/svg11.dtd">
<svg height="345.6pt" version="1.1" viewBox="0 0 460.8 345.6" width="460.8pt" xmlns="http://www.w3.org/2000/svg" xmlns:xlink="http://www.w3.org/1999/xlink">
 <metadata>
  <rdf:RDF xmlns:cc="http://creativecommons.org/ns#" xmlns:dc="http://purl.org/dc/elements/1.1/" xmlns:rdf="http://www.w3.org/1999/02/22-rdf-syntax-ns#">
   <cc:Work>
    <dc:type rdf:resource="http://purl.org/dc/dcmitype/StillImage"/>
    <dc:date>2021-07-14T00:15:34.595612</dc:date>
    <dc:format>image/svg+xml</dc:format>
    <dc:creator>
     <cc:Agent>
      <dc:title>Matplotlib v3.4.2, https://matplotlib.org/</dc:title>
     </cc:Agent>
    </dc:creator>
   </cc:Work>
  </rdf:RDF>
 </metadata>
 <defs>
  <style type="text/css">*{stroke-linecap:butt;stroke-linejoin:round;}</style>
 </defs>
 <g id="figure_1">
  <g id="patch_1">
   <path d="M 0 345.6 
L 460.8 345.6 
L 460.8 0 
L 0 0 
z
" style="fill:#ffffff;"/>
  </g>
  <g id="axes_1">
   <g id="patch_2">
    <path d="M 57.6 307.584 
L 414.72 307.584 
L 414.72 41.472 
L 57.6 41.472 
z
" style="fill:#ffffff;"/>
   </g>
   <g id="matplotlib.axis_1">
    <g id="xtick_1">
     <g id="line2d_1">
      <defs>
       <path d="M 0 0 
L 0 3.5 
" id="ma8d6f1d222" style="stroke:#000000;stroke-width:0.8;"/>
      </defs>
      <g>
       <use style="stroke:#000000;stroke-width:0.8;" x="73.019057" xlink:href="#ma8d6f1d222" y="307.584"/>
      </g>
     </g>
     <g id="text_1">
      <!-- 0 -->
      <g transform="translate(69.837807 322.182437)scale(0.1 -0.1)">
       <defs>
        <path d="M 2034 4250 
Q 1547 4250 1301 3770 
Q 1056 3291 1056 2328 
Q 1056 1369 1301 889 
Q 1547 409 2034 409 
Q 2525 409 2770 889 
Q 3016 1369 3016 2328 
Q 3016 3291 2770 3770 
Q 2525 4250 2034 4250 
z
M 2034 4750 
Q 2819 4750 3233 4129 
Q 3647 3509 3647 2328 
Q 3647 1150 3233 529 
Q 2819 -91 2034 -91 
Q 1250 -91 836 529 
Q 422 1150 422 2328 
Q 422 3509 836 4129 
Q 1250 4750 2034 4750 
z
" id="DejaVuSans-30" transform="scale(0.015625)"/>
       </defs>
       <use xlink:href="#DejaVuSans-30"/>
      </g>
     </g>
    </g>
    <g id="xtick_2">
     <g id="line2d_2">
      <g>
       <use style="stroke:#000000;stroke-width:0.8;" x="113.702584" xlink:href="#ma8d6f1d222" y="307.584"/>
      </g>
     </g>
     <g id="text_2">
      <!-- 50 -->
      <g transform="translate(107.340084 322.182437)scale(0.1 -0.1)">
       <defs>
        <path d="M 691 4666 
L 3169 4666 
L 3169 4134 
L 1269 4134 
L 1269 2991 
Q 1406 3038 1543 3061 
Q 1681 3084 1819 3084 
Q 2600 3084 3056 2656 
Q 3513 2228 3513 1497 
Q 3513 744 3044 326 
Q 2575 -91 1722 -91 
Q 1428 -91 1123 -41 
Q 819 9 494 109 
L 494 744 
Q 775 591 1075 516 
Q 1375 441 1709 441 
Q 2250 441 2565 725 
Q 2881 1009 2881 1497 
Q 2881 1984 2565 2268 
Q 2250 2553 1709 2553 
Q 1456 2553 1204 2497 
Q 953 2441 691 2322 
L 691 4666 
z
" id="DejaVuSans-35" transform="scale(0.015625)"/>
       </defs>
       <use xlink:href="#DejaVuSans-35"/>
       <use x="63.623047" xlink:href="#DejaVuSans-30"/>
      </g>
     </g>
    </g>
    <g id="xtick_3">
     <g id="line2d_3">
      <g>
       <use style="stroke:#000000;stroke-width:0.8;" x="154.386111" xlink:href="#ma8d6f1d222" y="307.584"/>
      </g>
     </g>
     <g id="text_3">
      <!-- 100 -->
      <g transform="translate(144.842361 322.182437)scale(0.1 -0.1)">
       <defs>
        <path d="M 794 531 
L 1825 531 
L 1825 4091 
L 703 3866 
L 703 4441 
L 1819 4666 
L 2450 4666 
L 2450 531 
L 3481 531 
L 3481 0 
L 794 0 
L 794 531 
z
" id="DejaVuSans-31" transform="scale(0.015625)"/>
       </defs>
       <use xlink:href="#DejaVuSans-31"/>
       <use x="63.623047" xlink:href="#DejaVuSans-30"/>
       <use x="127.246094" xlink:href="#DejaVuSans-30"/>
      </g>
     </g>
    </g>
    <g id="xtick_4">
     <g id="line2d_4">
      <g>
       <use style="stroke:#000000;stroke-width:0.8;" x="195.069638" xlink:href="#ma8d6f1d222" y="307.584"/>
      </g>
     </g>
     <g id="text_4">
      <!-- 150 -->
      <g transform="translate(185.525888 322.182437)scale(0.1 -0.1)">
       <use xlink:href="#DejaVuSans-31"/>
       <use x="63.623047" xlink:href="#DejaVuSans-35"/>
       <use x="127.246094" xlink:href="#DejaVuSans-30"/>
      </g>
     </g>
    </g>
    <g id="xtick_5">
     <g id="line2d_5">
      <g>
       <use style="stroke:#000000;stroke-width:0.8;" x="235.753165" xlink:href="#ma8d6f1d222" y="307.584"/>
      </g>
     </g>
     <g id="text_5">
      <!-- 200 -->
      <g transform="translate(226.209415 322.182437)scale(0.1 -0.1)">
       <defs>
        <path d="M 1228 531 
L 3431 531 
L 3431 0 
L 469 0 
L 469 531 
Q 828 903 1448 1529 
Q 2069 2156 2228 2338 
Q 2531 2678 2651 2914 
Q 2772 3150 2772 3378 
Q 2772 3750 2511 3984 
Q 2250 4219 1831 4219 
Q 1534 4219 1204 4116 
Q 875 4013 500 3803 
L 500 4441 
Q 881 4594 1212 4672 
Q 1544 4750 1819 4750 
Q 2544 4750 2975 4387 
Q 3406 4025 3406 3419 
Q 3406 3131 3298 2873 
Q 3191 2616 2906 2266 
Q 2828 2175 2409 1742 
Q 1991 1309 1228 531 
z
" id="DejaVuSans-32" transform="scale(0.015625)"/>
       </defs>
       <use xlink:href="#DejaVuSans-32"/>
       <use x="63.623047" xlink:href="#DejaVuSans-30"/>
       <use x="127.246094" xlink:href="#DejaVuSans-30"/>
      </g>
     </g>
    </g>
    <g id="xtick_6">
     <g id="line2d_6">
      <g>
       <use style="stroke:#000000;stroke-width:0.8;" x="276.436692" xlink:href="#ma8d6f1d222" y="307.584"/>
      </g>
     </g>
     <g id="text_6">
      <!-- 250 -->
      <g transform="translate(266.892942 322.182437)scale(0.1 -0.1)">
       <use xlink:href="#DejaVuSans-32"/>
       <use x="63.623047" xlink:href="#DejaVuSans-35"/>
       <use x="127.246094" xlink:href="#DejaVuSans-30"/>
      </g>
     </g>
    </g>
    <g id="xtick_7">
     <g id="line2d_7">
      <g>
       <use style="stroke:#000000;stroke-width:0.8;" x="317.120219" xlink:href="#ma8d6f1d222" y="307.584"/>
      </g>
     </g>
     <g id="text_7">
      <!-- 300 -->
      <g transform="translate(307.576469 322.182437)scale(0.1 -0.1)">
       <defs>
        <path d="M 2597 2516 
Q 3050 2419 3304 2112 
Q 3559 1806 3559 1356 
Q 3559 666 3084 287 
Q 2609 -91 1734 -91 
Q 1441 -91 1130 -33 
Q 819 25 488 141 
L 488 750 
Q 750 597 1062 519 
Q 1375 441 1716 441 
Q 2309 441 2620 675 
Q 2931 909 2931 1356 
Q 2931 1769 2642 2001 
Q 2353 2234 1838 2234 
L 1294 2234 
L 1294 2753 
L 1863 2753 
Q 2328 2753 2575 2939 
Q 2822 3125 2822 3475 
Q 2822 3834 2567 4026 
Q 2313 4219 1838 4219 
Q 1578 4219 1281 4162 
Q 984 4106 628 3988 
L 628 4550 
Q 988 4650 1302 4700 
Q 1616 4750 1894 4750 
Q 2613 4750 3031 4423 
Q 3450 4097 3450 3541 
Q 3450 3153 3228 2886 
Q 3006 2619 2597 2516 
z
" id="DejaVuSans-33" transform="scale(0.015625)"/>
       </defs>
       <use xlink:href="#DejaVuSans-33"/>
       <use x="63.623047" xlink:href="#DejaVuSans-30"/>
       <use x="127.246094" xlink:href="#DejaVuSans-30"/>
      </g>
     </g>
    </g>
    <g id="xtick_8">
     <g id="line2d_8">
      <g>
       <use style="stroke:#000000;stroke-width:0.8;" x="357.803746" xlink:href="#ma8d6f1d222" y="307.584"/>
      </g>
     </g>
     <g id="text_8">
      <!-- 350 -->
      <g transform="translate(348.259996 322.182437)scale(0.1 -0.1)">
       <use xlink:href="#DejaVuSans-33"/>
       <use x="63.623047" xlink:href="#DejaVuSans-35"/>
       <use x="127.246094" xlink:href="#DejaVuSans-30"/>
      </g>
     </g>
    </g>
    <g id="xtick_9">
     <g id="line2d_9">
      <g>
       <use style="stroke:#000000;stroke-width:0.8;" x="398.487273" xlink:href="#ma8d6f1d222" y="307.584"/>
      </g>
     </g>
     <g id="text_9">
      <!-- 400 -->
      <g transform="translate(388.943523 322.182437)scale(0.1 -0.1)">
       <defs>
        <path d="M 2419 4116 
L 825 1625 
L 2419 1625 
L 2419 4116 
z
M 2253 4666 
L 3047 4666 
L 3047 1625 
L 3713 1625 
L 3713 1100 
L 3047 1100 
L 3047 0 
L 2419 0 
L 2419 1100 
L 313 1100 
L 313 1709 
L 2253 4666 
z
" id="DejaVuSans-34" transform="scale(0.015625)"/>
       </defs>
       <use xlink:href="#DejaVuSans-34"/>
       <use x="63.623047" xlink:href="#DejaVuSans-30"/>
       <use x="127.246094" xlink:href="#DejaVuSans-30"/>
      </g>
     </g>
    </g>
    <g id="text_10">
     <!-- Epoch -->
     <g transform="translate(213.193594 339.659781)scale(0.15 -0.15)">
      <defs>
       <path d="M 628 4666 
L 3578 4666 
L 3578 4134 
L 1259 4134 
L 1259 2753 
L 3481 2753 
L 3481 2222 
L 1259 2222 
L 1259 531 
L 3634 531 
L 3634 0 
L 628 0 
L 628 4666 
z
" id="DejaVuSans-45" transform="scale(0.015625)"/>
       <path d="M 1159 525 
L 1159 -1331 
L 581 -1331 
L 581 3500 
L 1159 3500 
L 1159 2969 
Q 1341 3281 1617 3432 
Q 1894 3584 2278 3584 
Q 2916 3584 3314 3078 
Q 3713 2572 3713 1747 
Q 3713 922 3314 415 
Q 2916 -91 2278 -91 
Q 1894 -91 1617 61 
Q 1341 213 1159 525 
z
M 3116 1747 
Q 3116 2381 2855 2742 
Q 2594 3103 2138 3103 
Q 1681 3103 1420 2742 
Q 1159 2381 1159 1747 
Q 1159 1113 1420 752 
Q 1681 391 2138 391 
Q 2594 391 2855 752 
Q 3116 1113 3116 1747 
z
" id="DejaVuSans-70" transform="scale(0.015625)"/>
       <path d="M 1959 3097 
Q 1497 3097 1228 2736 
Q 959 2375 959 1747 
Q 959 1119 1226 758 
Q 1494 397 1959 397 
Q 2419 397 2687 759 
Q 2956 1122 2956 1747 
Q 2956 2369 2687 2733 
Q 2419 3097 1959 3097 
z
M 1959 3584 
Q 2709 3584 3137 3096 
Q 3566 2609 3566 1747 
Q 3566 888 3137 398 
Q 2709 -91 1959 -91 
Q 1206 -91 779 398 
Q 353 888 353 1747 
Q 353 2609 779 3096 
Q 1206 3584 1959 3584 
z
" id="DejaVuSans-6f" transform="scale(0.015625)"/>
       <path d="M 3122 3366 
L 3122 2828 
Q 2878 2963 2633 3030 
Q 2388 3097 2138 3097 
Q 1578 3097 1268 2742 
Q 959 2388 959 1747 
Q 959 1106 1268 751 
Q 1578 397 2138 397 
Q 2388 397 2633 464 
Q 2878 531 3122 666 
L 3122 134 
Q 2881 22 2623 -34 
Q 2366 -91 2075 -91 
Q 1284 -91 818 406 
Q 353 903 353 1747 
Q 353 2603 823 3093 
Q 1294 3584 2113 3584 
Q 2378 3584 2631 3529 
Q 2884 3475 3122 3366 
z
" id="DejaVuSans-63" transform="scale(0.015625)"/>
       <path d="M 3513 2113 
L 3513 0 
L 2938 0 
L 2938 2094 
Q 2938 2591 2744 2837 
Q 2550 3084 2163 3084 
Q 1697 3084 1428 2787 
Q 1159 2491 1159 1978 
L 1159 0 
L 581 0 
L 581 4863 
L 1159 4863 
L 1159 2956 
Q 1366 3272 1645 3428 
Q 1925 3584 2291 3584 
Q 2894 3584 3203 3211 
Q 3513 2838 3513 2113 
z
" id="DejaVuSans-68" transform="scale(0.015625)"/>
      </defs>
      <use xlink:href="#DejaVuSans-45"/>
      <use x="63.183594" xlink:href="#DejaVuSans-70"/>
      <use x="126.660156" xlink:href="#DejaVuSans-6f"/>
      <use x="187.841797" xlink:href="#DejaVuSans-63"/>
      <use x="242.822266" xlink:href="#DejaVuSans-68"/>
     </g>
    </g>
   </g>
   <g id="matplotlib.axis_2">
    <g id="ytick_1">
     <g id="line2d_10">
      <defs>
       <path d="M 0 0 
L -3.5 0 
" id="m18181e003d" style="stroke:#000000;stroke-width:0.8;"/>
      </defs>
      <g>
       <use style="stroke:#000000;stroke-width:0.8;" x="57.6" xlink:href="#m18181e003d" y="303.205036"/>
      </g>
     </g>
     <g id="text_11">
      <!-- −1400 -->
      <g transform="translate(16.770313 307.004254)scale(0.1 -0.1)">
       <defs>
        <path d="M 678 2272 
L 4684 2272 
L 4684 1741 
L 678 1741 
L 678 2272 
z
" id="DejaVuSans-2212" transform="scale(0.015625)"/>
       </defs>
       <use xlink:href="#DejaVuSans-2212"/>
       <use x="83.789062" xlink:href="#DejaVuSans-31"/>
       <use x="147.412109" xlink:href="#DejaVuSans-34"/>
       <use x="211.035156" xlink:href="#DejaVuSans-30"/>
       <use x="274.658203" xlink:href="#DejaVuSans-30"/>
      </g>
     </g>
    </g>
    <g id="ytick_2">
     <g id="line2d_11">
      <g>
       <use style="stroke:#000000;stroke-width:0.8;" x="57.6" xlink:href="#m18181e003d" y="265.046729"/>
      </g>
     </g>
     <g id="text_12">
      <!-- −1200 -->
      <g transform="translate(16.770313 268.845948)scale(0.1 -0.1)">
       <use xlink:href="#DejaVuSans-2212"/>
       <use x="83.789062" xlink:href="#DejaVuSans-31"/>
       <use x="147.412109" xlink:href="#DejaVuSans-32"/>
       <use x="211.035156" xlink:href="#DejaVuSans-30"/>
       <use x="274.658203" xlink:href="#DejaVuSans-30"/>
      </g>
     </g>
    </g>
    <g id="ytick_3">
     <g id="line2d_12">
      <g>
       <use style="stroke:#000000;stroke-width:0.8;" x="57.6" xlink:href="#m18181e003d" y="226.888422"/>
      </g>
     </g>
     <g id="text_13">
      <!-- −1000 -->
      <g transform="translate(16.770313 230.687641)scale(0.1 -0.1)">
       <use xlink:href="#DejaVuSans-2212"/>
       <use x="83.789062" xlink:href="#DejaVuSans-31"/>
       <use x="147.412109" xlink:href="#DejaVuSans-30"/>
       <use x="211.035156" xlink:href="#DejaVuSans-30"/>
       <use x="274.658203" xlink:href="#DejaVuSans-30"/>
      </g>
     </g>
    </g>
    <g id="ytick_4">
     <g id="line2d_13">
      <g>
       <use style="stroke:#000000;stroke-width:0.8;" x="57.6" xlink:href="#m18181e003d" y="188.730116"/>
      </g>
     </g>
     <g id="text_14">
      <!-- −800 -->
      <g transform="translate(23.132812 192.529334)scale(0.1 -0.1)">
       <defs>
        <path d="M 2034 2216 
Q 1584 2216 1326 1975 
Q 1069 1734 1069 1313 
Q 1069 891 1326 650 
Q 1584 409 2034 409 
Q 2484 409 2743 651 
Q 3003 894 3003 1313 
Q 3003 1734 2745 1975 
Q 2488 2216 2034 2216 
z
M 1403 2484 
Q 997 2584 770 2862 
Q 544 3141 544 3541 
Q 544 4100 942 4425 
Q 1341 4750 2034 4750 
Q 2731 4750 3128 4425 
Q 3525 4100 3525 3541 
Q 3525 3141 3298 2862 
Q 3072 2584 2669 2484 
Q 3125 2378 3379 2068 
Q 3634 1759 3634 1313 
Q 3634 634 3220 271 
Q 2806 -91 2034 -91 
Q 1263 -91 848 271 
Q 434 634 434 1313 
Q 434 1759 690 2068 
Q 947 2378 1403 2484 
z
M 1172 3481 
Q 1172 3119 1398 2916 
Q 1625 2713 2034 2713 
Q 2441 2713 2670 2916 
Q 2900 3119 2900 3481 
Q 2900 3844 2670 4047 
Q 2441 4250 2034 4250 
Q 1625 4250 1398 4047 
Q 1172 3844 1172 3481 
z
" id="DejaVuSans-38" transform="scale(0.015625)"/>
       </defs>
       <use xlink:href="#DejaVuSans-2212"/>
       <use x="83.789062" xlink:href="#DejaVuSans-38"/>
       <use x="147.412109" xlink:href="#DejaVuSans-30"/>
       <use x="211.035156" xlink:href="#DejaVuSans-30"/>
      </g>
     </g>
    </g>
    <g id="ytick_5">
     <g id="line2d_14">
      <g>
       <use style="stroke:#000000;stroke-width:0.8;" x="57.6" xlink:href="#m18181e003d" y="150.571809"/>
      </g>
     </g>
     <g id="text_15">
      <!-- −600 -->
      <g transform="translate(23.132812 154.371028)scale(0.1 -0.1)">
       <defs>
        <path d="M 2113 2584 
Q 1688 2584 1439 2293 
Q 1191 2003 1191 1497 
Q 1191 994 1439 701 
Q 1688 409 2113 409 
Q 2538 409 2786 701 
Q 3034 994 3034 1497 
Q 3034 2003 2786 2293 
Q 2538 2584 2113 2584 
z
M 3366 4563 
L 3366 3988 
Q 3128 4100 2886 4159 
Q 2644 4219 2406 4219 
Q 1781 4219 1451 3797 
Q 1122 3375 1075 2522 
Q 1259 2794 1537 2939 
Q 1816 3084 2150 3084 
Q 2853 3084 3261 2657 
Q 3669 2231 3669 1497 
Q 3669 778 3244 343 
Q 2819 -91 2113 -91 
Q 1303 -91 875 529 
Q 447 1150 447 2328 
Q 447 3434 972 4092 
Q 1497 4750 2381 4750 
Q 2619 4750 2861 4703 
Q 3103 4656 3366 4563 
z
" id="DejaVuSans-36" transform="scale(0.015625)"/>
       </defs>
       <use xlink:href="#DejaVuSans-2212"/>
       <use x="83.789062" xlink:href="#DejaVuSans-36"/>
       <use x="147.412109" xlink:href="#DejaVuSans-30"/>
       <use x="211.035156" xlink:href="#DejaVuSans-30"/>
      </g>
     </g>
    </g>
    <g id="ytick_6">
     <g id="line2d_15">
      <g>
       <use style="stroke:#000000;stroke-width:0.8;" x="57.6" xlink:href="#m18181e003d" y="112.413502"/>
      </g>
     </g>
     <g id="text_16">
      <!-- −400 -->
      <g transform="translate(23.132812 116.212721)scale(0.1 -0.1)">
       <use xlink:href="#DejaVuSans-2212"/>
       <use x="83.789062" xlink:href="#DejaVuSans-34"/>
       <use x="147.412109" xlink:href="#DejaVuSans-30"/>
       <use x="211.035156" xlink:href="#DejaVuSans-30"/>
      </g>
     </g>
    </g>
    <g id="ytick_7">
     <g id="line2d_16">
      <g>
       <use style="stroke:#000000;stroke-width:0.8;" x="57.6" xlink:href="#m18181e003d" y="74.255195"/>
      </g>
     </g>
     <g id="text_17">
      <!-- −200 -->
      <g transform="translate(23.132812 78.054414)scale(0.1 -0.1)">
       <use xlink:href="#DejaVuSans-2212"/>
       <use x="83.789062" xlink:href="#DejaVuSans-32"/>
       <use x="147.412109" xlink:href="#DejaVuSans-30"/>
       <use x="211.035156" xlink:href="#DejaVuSans-30"/>
      </g>
     </g>
    </g>
    <g id="text_18">
     <!-- Loss -->
     <g transform="translate(9.650781 190.978781)rotate(-90)scale(0.15 -0.15)">
      <defs>
       <path d="M 628 4666 
L 1259 4666 
L 1259 531 
L 3531 531 
L 3531 0 
L 628 0 
L 628 4666 
z
" id="DejaVuSans-4c" transform="scale(0.015625)"/>
       <path d="M 2834 3397 
L 2834 2853 
Q 2591 2978 2328 3040 
Q 2066 3103 1784 3103 
Q 1356 3103 1142 2972 
Q 928 2841 928 2578 
Q 928 2378 1081 2264 
Q 1234 2150 1697 2047 
L 1894 2003 
Q 2506 1872 2764 1633 
Q 3022 1394 3022 966 
Q 3022 478 2636 193 
Q 2250 -91 1575 -91 
Q 1294 -91 989 -36 
Q 684 19 347 128 
L 347 722 
Q 666 556 975 473 
Q 1284 391 1588 391 
Q 1994 391 2212 530 
Q 2431 669 2431 922 
Q 2431 1156 2273 1281 
Q 2116 1406 1581 1522 
L 1381 1569 
Q 847 1681 609 1914 
Q 372 2147 372 2553 
Q 372 3047 722 3315 
Q 1072 3584 1716 3584 
Q 2034 3584 2315 3537 
Q 2597 3491 2834 3397 
z
" id="DejaVuSans-73" transform="scale(0.015625)"/>
      </defs>
      <use xlink:href="#DejaVuSans-4c"/>
      <use x="53.962891" xlink:href="#DejaVuSans-6f"/>
      <use x="115.144531" xlink:href="#DejaVuSans-73"/>
      <use x="167.244141" xlink:href="#DejaVuSans-73"/>
     </g>
    </g>
   </g>
   <g id="line2d_17">
    <path clip-path="url(#p1874350c6d)" d="M 73.832727 53.568 
L 74.646398 94.364673 
L 75.460068 111.654802 
L 76.273739 124.086646 
L 77.087409 129.749364 
L 77.90108 139.38614 
L 78.714751 134.761823 
L 79.528421 142.780948 
L 80.342092 160.328622 
L 81.155762 163.398254 
L 81.969433 163.841118 
L 82.783103 184.928812 
L 83.596774 194.159669 
L 84.410444 199.989383 
L 85.224115 203.356753 
L 86.037785 204.678518 
L 86.851456 202.88083 
L 87.665126 199.675812 
L 88.478797 219.663783 
L 89.292468 216.11948 
L 90.106138 222.184589 
L 90.919809 213.726406 
L 91.733479 222.015772 
L 92.54715 225.956533 
L 93.36082 214.391135 
L 94.174491 228.775073 
L 94.988161 237.13911 
L 95.801832 217.12296 
L 96.615502 210.437558 
L 97.429173 231.820382 
L 98.242843 226.914225 
L 99.056514 231.176886 
L 99.870185 232.012032 
L 100.683855 225.076879 
L 101.497526 225.426105 
L 102.311196 234.122972 
L 103.124867 223.945628 
L 103.938537 223.496423 
L 104.752208 232.290196 
L 105.565878 237.915312 
L 106.379549 237.043988 
L 107.193219 240.14394 
L 108.00689 248.803781 
L 108.82056 244.055566 
L 109.634231 234.57338 
L 110.447902 227.025977 
L 111.261572 236.827544 
L 112.075243 228.863809 
L 112.888913 248.658153 
L 113.702584 237.724224 
L 114.516254 245.279556 
L 115.329925 226.152851 
L 116.143595 232.689598 
L 116.957266 237.940206 
L 117.770936 252.358875 
L 118.584607 237.010665 
L 119.398278 240.99498 
L 120.211948 240.705084 
L 121.025619 242.089159 
L 121.839289 241.143984 
L 122.65296 236.319719 
L 123.46663 233.083276 
L 124.280301 237.401136 
L 125.093971 239.789614 
L 125.907642 236.85645 
L 126.721312 235.320203 
L 127.534983 245.618073 
L 128.348653 244.583546 
L 129.162324 240.21449 
L 129.975995 231.474941 
L 130.789665 247.162543 
L 131.603336 234.013859 
L 132.417006 241.26808 
L 133.230677 238.745845 
L 134.044347 251.813393 
L 134.858018 249.162797 
L 136.485359 230.675178 
L 137.299029 247.978105 
L 138.92637 231.839735 
L 139.740041 243.414662 
L 140.553712 238.73707 
L 141.367382 233.003868 
L 142.181053 247.626291 
L 142.994723 232.375111 
L 143.808394 237.909995 
L 144.622064 225.541397 
L 145.435735 235.040716 
L 146.249405 242.927467 
L 147.063076 241.680626 
L 147.876746 250.479481 
L 148.690417 245.718674 
L 149.504087 244.681931 
L 150.317758 236.178252 
L 151.131429 236.557674 
L 151.945099 234.913837 
L 152.75877 237.265155 
L 153.57244 231.752355 
L 154.386111 228.643074 
L 155.199781 241.175941 
L 156.013452 246.818383 
L 156.827122 248.767971 
L 157.640793 246.603574 
L 158.454463 236.045441 
L 159.268134 235.247192 
L 160.081805 238.050598 
L 160.895475 236.78577 
L 161.709146 245.155875 
L 162.522816 235.55168 
L 163.336487 245.836438 
L 164.150157 238.156702 
L 164.963828 251.734274 
L 165.777498 249.222338 
L 166.591169 235.397316 
L 167.404839 239.707166 
L 168.21851 251.349338 
L 169.03218 253.674777 
L 169.845851 238.425125 
L 170.659522 228.794139 
L 171.473192 244.136286 
L 172.286863 234.83772 
L 173.914204 237.038051 
L 174.727874 241.424464 
L 175.541545 248.500051 
L 176.355215 239.319322 
L 177.168886 234.186185 
L 177.982556 252.452741 
L 178.796227 246.182099 
L 179.609897 247.995782 
L 180.423568 251.580663 
L 181.237239 249.053318 
L 182.050909 231.482066 
L 182.86458 245.503744 
L 183.67825 241.975875 
L 184.491921 232.280133 
L 185.305591 247.244454 
L 186.119262 239.812383 
L 186.932932 251.032397 
L 187.746603 246.543526 
L 188.560273 259.134091 
L 189.373944 246.282645 
L 190.187614 242.191316 
L 191.001285 241.462091 
L 191.814956 251.850532 
L 192.628626 248.867608 
L 193.442297 254.991635 
L 194.255967 258.99767 
L 195.069638 243.237108 
L 195.883308 247.876246 
L 196.696979 240.105504 
L 197.510649 242.44718 
L 198.32432 237.279643 
L 199.13799 248.33662 
L 200.765332 252.328795 
L 201.579002 245.73516 
L 202.392673 256.70678 
L 203.206343 258.50381 
L 204.020014 239.94748 
L 204.833684 242.465222 
L 205.647355 249.610633 
L 206.461025 251.256666 
L 207.274696 244.763799 
L 208.088366 248.038037 
L 208.902037 243.944572 
L 209.715707 227.656461 
L 210.529378 245.884405 
L 211.343049 240.853902 
L 212.156719 252.45708 
L 212.97039 249.300884 
L 213.78406 243.627772 
L 214.597731 259.022606 
L 215.411401 244.064398 
L 216.225072 259.188416 
L 217.038742 244.890279 
L 217.852413 257.02512 
L 218.666083 236.263371 
L 219.479754 254.687449 
L 220.293424 248.504581 
L 221.107095 245.978558 
L 221.920766 246.472982 
L 222.734436 240.170601 
L 223.548107 252.450475 
L 224.361777 253.436707 
L 225.989118 246.006489 
L 226.802789 256.877072 
L 227.616459 255.782495 
L 228.43013 255.461973 
L 229.2438 252.978924 
L 230.057471 248.615387 
L 230.871141 245.30469 
L 231.684812 248.093387 
L 232.498483 246.090942 
L 233.312153 243.640665 
L 234.125824 250.460269 
L 234.939494 231.880802 
L 235.753165 248.129041 
L 236.566835 255.811804 
L 237.380506 259.094574 
L 238.194176 259.946885 
L 239.007847 245.010631 
L 239.821517 257.999799 
L 240.635188 261.633694 
L 241.448859 241.807269 
L 242.262529 263.289364 
L 243.0762 252.934341 
L 243.88987 259.777782 
L 244.703541 264.127452 
L 245.517211 259.564625 
L 246.330882 250.461879 
L 247.144552 247.288446 
L 247.958223 247.750766 
L 248.771893 253.419643 
L 249.585564 256.482634 
L 250.399234 238.71663 
L 251.212905 246.777058 
L 252.026576 242.782483 
L 252.840246 255.271981 
L 253.653917 249.105355 
L 254.467587 258.930694 
L 255.281258 263.798857 
L 256.094928 253.872652 
L 256.908599 254.303832 
L 257.722269 260.429672 
L 258.53594 259.19063 
L 259.34961 252.617617 
L 260.163281 254.970189 
L 260.976951 246.258497 
L 261.790622 248.169327 
L 262.604293 240.395218 
L 263.417963 242.33122 
L 264.231634 259.911252 
L 265.045304 245.798066 
L 265.858975 244.14211 
L 266.672645 251.726054 
L 267.486316 237.046755 
L 268.299986 251.381666 
L 269.113657 254.36118 
L 269.927327 263.674036 
L 270.740998 254.0191 
L 271.554668 247.302454 
L 272.368339 269.101141 
L 273.18201 258.796437 
L 273.99568 253.67372 
L 274.809351 253.637815 
L 275.623021 252.934748 
L 276.436692 240.96406 
L 277.250362 252.891116 
L 278.064033 267.922784 
L 278.877703 262.233985 
L 279.691374 263.087961 
L 280.505044 248.937151 
L 281.318715 260.475465 
L 282.132386 243.292736 
L 282.946056 271.964116 
L 283.759727 261.301552 
L 284.573397 256.857783 
L 286.200738 253.04687 
L 287.014409 261.252194 
L 287.828079 272.506681 
L 288.64175 265.100596 
L 289.45542 252.219462 
L 290.269091 258.345219 
L 291.082761 263.00115 
L 291.896432 251.661741 
L 292.710103 263.077036 
L 293.523773 262.797825 
L 294.337444 255.49719 
L 295.151114 270.686237 
L 295.964785 262.374638 
L 296.778455 259.451375 
L 297.592126 264.509364 
L 298.405796 252.710453 
L 299.219467 262.609503 
L 300.846808 248.764666 
L 301.660478 262.309398 
L 302.474149 253.006409 
L 303.28782 258.906458 
L 304.10149 253.822511 
L 304.915161 260.601668 
L 305.728831 278.509513 
L 306.542502 270.802385 
L 307.356172 257.941744 
L 308.169843 253.393874 
L 308.983513 245.012451 
L 309.797184 243.832372 
L 310.610854 249.971404 
L 311.424525 268.912058 
L 312.238195 242.720248 
L 313.051866 260.679291 
L 313.865537 266.938278 
L 314.679207 259.147932 
L 315.492878 255.573045 
L 316.306548 262.170408 
L 317.120219 243.804578 
L 317.933889 260.671875 
L 318.74756 247.356893 
L 319.56123 258.217866 
L 320.374901 253.775569 
L 321.188571 260.578991 
L 322.002242 246.8256 
L 322.815913 264.960061 
L 323.629583 245.602848 
L 325.256924 268.726124 
L 326.070595 252.804291 
L 326.884265 253.534411 
L 327.697936 261.157345 
L 328.511606 264.887993 
L 329.325277 260.378231 
L 330.138947 256.618389 
L 330.952618 260.791885 
L 331.766288 263.451665 
L 332.579959 268.647685 
L 333.39363 277.140215 
L 334.2073 259.944311 
L 335.020971 256.487908 
L 335.834641 255.798468 
L 336.648312 255.830647 
L 337.461982 263.40966 
L 338.275653 261.736159 
L 339.089323 254.441484 
L 339.902994 267.253004 
L 340.716664 271.774244 
L 341.530335 252.167975 
L 342.344005 258.517083 
L 343.157676 275.091144 
L 343.971347 280.810476 
L 344.785017 250.254747 
L 345.598688 244.692037 
L 346.412358 266.142308 
L 347.226029 269.68553 
L 348.039699 264.1396 
L 348.85337 263.414718 
L 349.66704 272.316413 
L 350.480711 259.292559 
L 351.294381 263.163891 
L 352.108052 260.516573 
L 352.921722 267.788324 
L 353.735393 262.190622 
L 354.549064 255.074762 
L 355.362734 265.042486 
L 356.176405 247.624709 
L 356.990075 248.954607 
L 357.803746 263.499146 
L 358.617416 263.085875 
L 359.431087 253.785289 
L 360.244757 258.583149 
L 361.058428 278.396115 
L 361.872098 259.713561 
L 362.685769 275.081938 
L 363.49944 252.072935 
L 364.31311 251.423816 
L 365.126781 252.330098 
L 365.940451 275.724544 
L 366.754122 250.861144 
L 367.567792 268.378335 
L 369.195133 253.761616 
L 370.008804 261.283924 
L 370.822474 256.485429 
L 371.636145 253.839046 
L 372.449815 267.72193 
L 373.263486 269.038187 
L 374.077157 275.724315 
L 374.890827 256.150551 
L 375.704498 264.968001 
L 376.518168 257.073491 
L 377.331839 264.300266 
L 378.145509 252.276791 
L 378.95918 259.216839 
L 379.77285 262.65696 
L 380.586521 263.121011 
L 381.400191 258.509413 
L 382.213862 257.771835 
L 383.027532 264.441643 
L 383.841203 251.516166 
L 384.654874 273.586976 
L 385.468544 265.667356 
L 386.282215 249.135832 
L 387.095885 255.029453 
L 387.909556 264.812987 
L 388.723226 257.211653 
L 389.536897 252.916782 
L 390.350567 265.630853 
L 391.164238 265.443877 
L 391.977908 257.413204 
L 392.791579 261.314179 
L 393.605249 254.973685 
L 394.41892 259.181312 
L 395.232591 268.720566 
L 396.046261 258.947087 
L 396.859932 268.761049 
L 397.673602 266.098705 
L 398.487273 254.825499 
L 398.487273 254.825499 
" style="fill:none;stroke:#1f77b4;stroke-linecap:square;stroke-width:1.5;"/>
   </g>
   <g id="line2d_18">
    <path clip-path="url(#p1874350c6d)" d="M 73.832727 98.346979 
L 74.646398 117.209816 
L 77.087409 130.713711 
L 77.90108 120.781041 
L 78.714751 112.817889 
L 79.528421 155.053651 
L 80.342092 149.773374 
L 81.155762 179.022553 
L 81.969433 177.999078 
L 84.410444 204.864537 
L 85.224115 194.161243 
L 86.037785 225.804658 
L 86.851456 217.229359 
L 87.665126 206.405316 
L 89.292468 214.154809 
L 90.106138 232.581945 
L 90.919809 215.194543 
L 91.733479 218.578317 
L 92.54715 207.140553 
L 93.36082 239.341004 
L 94.174491 220.689065 
L 94.988161 225.048613 
L 95.801832 224.780118 
L 96.615502 214.641672 
L 97.429173 233.614759 
L 98.242843 228.837717 
L 99.056514 215.272798 
L 99.870185 238.720238 
L 100.683855 216.663993 
L 101.497526 239.268159 
L 102.311196 240.63663 
L 103.124867 219.661778 
L 103.938537 234.903868 
L 104.752208 235.941961 
L 105.565878 246.975007 
L 106.379549 233.892945 
L 108.00689 240.68383 
L 108.82056 236.555284 
L 109.634231 226.131155 
L 110.447902 243.813175 
L 111.261572 239.316784 
L 112.075243 244.261198 
L 112.888913 252.725258 
L 113.702584 242.606818 
L 114.516254 221.714637 
L 115.329925 226.073939 
L 116.143595 235.804303 
L 116.957266 218.907415 
L 117.770936 240.542046 
L 118.584607 251.317866 
L 119.398278 258.450391 
L 120.211948 236.962391 
L 121.025619 224.404539 
L 121.839289 245.926553 
L 122.65296 239.539722 
L 123.46663 245.86217 
L 124.280301 222.790735 
L 125.093971 249.661198 
L 125.907642 258.099711 
L 126.721312 248.24201 
L 127.534983 242.679404 
L 128.348653 242.425085 
L 129.162324 239.302737 
L 129.975995 244.733628 
L 130.789665 231.977704 
L 131.603336 231.985333 
L 132.417006 248.658291 
L 133.230677 235.884822 
L 134.044347 232.952882 
L 134.858018 231.165493 
L 135.671688 247.624294 
L 136.485359 201.785979 
L 137.299029 246.348108 
L 138.92637 235.865852 
L 139.740041 224.307005 
L 140.553712 241.040025 
L 141.367382 237.412143 
L 142.181053 245.704717 
L 142.994723 243.849846 
L 143.808394 224.107867 
L 144.622064 240.435663 
L 145.435735 248.057452 
L 146.249405 247.064812 
L 147.876746 227.043455 
L 148.690417 238.451925 
L 149.504087 258.041515 
L 150.317758 246.933841 
L 151.131429 238.50643 
L 151.945099 247.321759 
L 152.75877 233.331317 
L 153.57244 264.055867 
L 154.386111 244.544416 
L 155.199781 237.165948 
L 156.013452 239.694185 
L 156.827122 254.486446 
L 157.640793 237.951992 
L 158.454463 254.494788 
L 159.268134 252.859175 
L 160.081805 240.334825 
L 160.895475 252.49327 
L 161.709146 232.769118 
L 162.522816 248.870242 
L 163.336487 250.8708 
L 164.150157 231.442404 
L 164.963828 236.452524 
L 165.777498 260.223239 
L 166.591169 252.256631 
L 167.404839 238.63192 
L 168.21851 246.454743 
L 169.03218 218.863806 
L 169.845851 245.550226 
L 170.659522 237.785071 
L 171.473192 253.2719 
L 172.286863 234.794251 
L 173.100533 234.579453 
L 173.914204 241.374514 
L 174.727874 240.972914 
L 175.541545 226.672887 
L 176.355215 251.758988 
L 177.168886 235.414994 
L 177.982556 236.46267 
L 178.796227 249.746066 
L 179.609897 231.550623 
L 180.423568 259.756055 
L 181.237239 241.015334 
L 182.050909 235.399864 
L 182.86458 245.042678 
L 183.67825 236.027779 
L 184.491921 251.616937 
L 185.305591 236.435903 
L 186.119262 229.077327 
L 186.932932 269.050648 
L 187.746603 229.214493 
L 188.560273 250.131046 
L 189.373944 243.230878 
L 190.187614 238.757968 
L 191.001285 249.870488 
L 191.814956 252.359165 
L 192.628626 268.058106 
L 193.442297 254.185219 
L 194.255967 249.405992 
L 195.069638 233.594296 
L 195.883308 245.29528 
L 196.696979 272.408898 
L 198.32432 224.57686 
L 199.13799 237.634979 
L 199.951661 245.585626 
L 200.765332 247.840548 
L 201.579002 239.845029 
L 202.392673 250.370659 
L 203.206343 243.568217 
L 204.020014 252.099249 
L 205.647355 262.566988 
L 206.461025 251.010683 
L 207.274696 272.706145 
L 208.088366 265.108477 
L 208.902037 244.611701 
L 209.715707 264.168762 
L 210.529378 260.165113 
L 211.343049 250.081467 
L 212.156719 250.61496 
L 212.97039 227.756509 
L 213.78406 251.918434 
L 214.597731 217.40979 
L 215.411401 230.653144 
L 216.225072 239.421458 
L 217.038742 246.839943 
L 217.852413 258.717544 
L 218.666083 242.835532 
L 219.479754 234.379357 
L 220.293424 232.067181 
L 221.107095 254.883541 
L 221.920766 250.647935 
L 223.548107 237.167729 
L 224.361777 245.797957 
L 225.175448 238.26745 
L 225.989118 242.193309 
L 226.802789 255.548644 
L 227.616459 246.178371 
L 228.43013 247.636045 
L 229.2438 254.532928 
L 230.057471 239.763378 
L 230.871141 261.731159 
L 231.684812 250.313021 
L 232.498483 243.105801 
L 233.312153 270.859607 
L 234.125824 256.461184 
L 234.939494 272.742364 
L 235.753165 265.818068 
L 236.566835 240.304513 
L 237.380506 274.994583 
L 238.194176 282.42701 
L 239.007847 265.371751 
L 239.821517 244.131682 
L 240.635188 262.807847 
L 241.448859 256.255692 
L 242.262529 237.40492 
L 243.0762 243.647433 
L 243.88987 246.710874 
L 244.703541 268.799933 
L 245.517211 248.643932 
L 246.330882 255.210955 
L 247.144552 270.135104 
L 247.958223 253.998297 
L 248.771893 250.89533 
L 249.585564 271.847214 
L 250.399234 231.13783 
L 251.212905 229.214664 
L 252.026576 254.409747 
L 252.840246 263.49687 
L 253.653917 267.136584 
L 254.467587 264.716876 
L 255.281258 266.495737 
L 256.094928 245.020576 
L 256.908599 245.048931 
L 257.722269 261.063146 
L 258.53594 264.620278 
L 260.163281 259.078002 
L 260.976951 277.134686 
L 261.790622 252.908385 
L 262.604293 254.526504 
L 263.417963 254.233861 
L 264.231634 273.962401 
L 265.045304 250.269354 
L 265.858975 231.046401 
L 267.486316 276.24602 
L 268.299986 245.487658 
L 269.113657 239.834363 
L 269.927327 242.634733 
L 270.740998 241.577174 
L 271.554668 259.640001 
L 272.368339 260.019738 
L 273.18201 255.962269 
L 273.99568 249.008126 
L 274.809351 239.401093 
L 275.623021 262.318087 
L 276.436692 263.353751 
L 277.250362 246.617209 
L 278.064033 265.391606 
L 278.877703 251.302742 
L 279.691374 261.213741 
L 280.505044 249.421806 
L 281.318715 251.30805 
L 282.132386 251.5876 
L 282.946056 248.441687 
L 283.759727 256.078071 
L 284.573397 257.795698 
L 285.387068 273.755364 
L 286.200738 265.158161 
L 287.014409 242.633381 
L 287.828079 259.405807 
L 288.64175 264.434185 
L 289.45542 255.358842 
L 290.269091 256.384265 
L 291.082761 272.938763 
L 291.896432 245.034047 
L 292.710103 252.925191 
L 293.523773 243.943869 
L 294.337444 256.838396 
L 295.151114 246.949219 
L 295.964785 268.760934 
L 296.778455 253.153572 
L 297.592126 275.12187 
L 298.405796 257.459971 
L 299.219467 268.994729 
L 300.033137 252.918527 
L 300.846808 254.725925 
L 301.660478 266.309186 
L 302.474149 262.008201 
L 303.28782 275.771125 
L 304.10149 235.486291 
L 304.915161 263.165073 
L 305.728831 253.562718 
L 306.542502 273.342854 
L 307.356172 266.912152 
L 308.169843 253.465246 
L 308.983513 252.967446 
L 309.797184 250.658626 
L 310.610854 261.423681 
L 311.424525 266.403381 
L 312.238195 260.344817 
L 313.051866 267.10634 
L 313.865537 249.636037 
L 314.679207 266.677612 
L 315.492878 264.72382 
L 316.306548 255.204943 
L 317.120219 237.809934 
L 317.933889 264.460379 
L 319.56123 236.270152 
L 320.374901 250.016092 
L 321.188571 244.845942 
L 322.002242 253.68874 
L 322.815913 252.60855 
L 323.629583 247.307016 
L 324.443254 295.488 
L 325.256924 264.304312 
L 326.070595 253.177786 
L 326.884265 256.269846 
L 327.697936 254.606038 
L 328.511606 247.363351 
L 329.325277 256.057626 
L 330.138947 258.961583 
L 330.952618 246.15919 
L 331.766288 265.084579 
L 332.579959 260.702309 
L 333.39363 240.845159 
L 334.2073 263.986218 
L 335.020971 256.466623 
L 335.834641 279.519732 
L 336.648312 273.560813 
L 337.461982 273.346382 
L 338.275653 254.933996 
L 339.089323 262.757511 
L 339.902994 257.985689 
L 340.716664 266.832971 
L 341.530335 243.747918 
L 342.344005 255.968269 
L 343.157676 253.60192 
L 343.971347 266.896476 
L 344.785017 245.663563 
L 345.598688 273.653299 
L 346.412358 257.60001 
L 347.226029 251.233792 
L 348.85337 289.559786 
L 349.66704 248.04876 
L 350.480711 268.192881 
L 351.294381 264.38395 
L 352.108052 254.194313 
L 352.921722 248.28628 
L 353.735393 236.429602 
L 354.549064 270.983597 
L 355.362734 262.297938 
L 356.176405 246.700979 
L 356.990075 268.350167 
L 357.803746 231.48572 
L 358.617416 262.499113 
L 359.431087 267.761922 
L 360.244757 239.392499 
L 361.058428 264.746793 
L 361.872098 235.989397 
L 362.685769 277.482205 
L 363.49944 227.136215 
L 364.31311 259.868461 
L 365.126781 261.655391 
L 365.940451 275.547996 
L 366.754122 243.459191 
L 367.567792 233.87207 
L 368.381463 259.560932 
L 369.195133 257.626443 
L 370.008804 271.284826 
L 370.822474 262.231471 
L 371.636145 271.642073 
L 372.449815 261.975243 
L 373.263486 267.236868 
L 374.077157 264.208079 
L 374.890827 243.155541 
L 375.704498 265.381351 
L 376.518168 263.246169 
L 377.331839 264.982386 
L 378.145509 240.497522 
L 378.95918 284.676183 
L 380.586521 235.863861 
L 381.400191 245.842107 
L 382.213862 269.765713 
L 383.027532 270.217755 
L 383.841203 260.427268 
L 384.654874 278.979701 
L 385.468544 269.002931 
L 386.282215 275.845764 
L 387.095885 265.91942 
L 387.909556 277.918484 
L 388.723226 244.49339 
L 389.536897 265.208716 
L 390.350567 272.612828 
L 391.164238 256.174297 
L 391.977908 271.637747 
L 392.791579 271.606332 
L 393.605249 216.471972 
L 394.41892 264.024709 
L 395.232591 275.972424 
L 396.046261 266.472935 
L 396.859932 258.947218 
L 397.673602 225.900299 
L 398.487273 246.386076 
L 398.487273 246.386076 
" style="fill:none;stroke:#ff7f0e;stroke-linecap:square;stroke-width:1.5;"/>
   </g>
   <g id="patch_3">
    <path d="M 57.6 307.584 
L 57.6 41.472 
" style="fill:none;stroke:#000000;stroke-linecap:square;stroke-linejoin:miter;stroke-width:0.8;"/>
   </g>
   <g id="patch_4">
    <path d="M 414.72 307.584 
L 414.72 41.472 
" style="fill:none;stroke:#000000;stroke-linecap:square;stroke-linejoin:miter;stroke-width:0.8;"/>
   </g>
   <g id="patch_5">
    <path d="M 57.6 307.584 
L 414.72 307.584 
" style="fill:none;stroke:#000000;stroke-linecap:square;stroke-linejoin:miter;stroke-width:0.8;"/>
   </g>
   <g id="patch_6">
    <path d="M 57.6 41.472 
L 414.72 41.472 
" style="fill:none;stroke:#000000;stroke-linecap:square;stroke-linejoin:miter;stroke-width:0.8;"/>
   </g>
   <g id="legend_1">
    <g id="patch_7">
     <path d="M 303.845 78.82825 
L 407.72 78.82825 
Q 409.72 78.82825 409.72 76.82825 
L 409.72 48.472 
Q 409.72 46.472 407.72 46.472 
L 303.845 46.472 
Q 301.845 46.472 301.845 48.472 
L 301.845 76.82825 
Q 301.845 78.82825 303.845 78.82825 
z
" style="fill:#ffffff;opacity:0.8;stroke:#cccccc;stroke-linejoin:miter;"/>
    </g>
    <g id="line2d_19">
     <path d="M 305.845 54.570437 
L 325.845 54.570437 
" style="fill:none;stroke:#1f77b4;stroke-linecap:square;stroke-width:1.5;"/>
    </g>
    <g id="line2d_20"/>
    <g id="text_19">
     <!-- Train loss -->
     <g transform="translate(333.845 58.070437)scale(0.1 -0.1)">
      <defs>
       <path d="M -19 4666 
L 3928 4666 
L 3928 4134 
L 2272 4134 
L 2272 0 
L 1638 0 
L 1638 4134 
L -19 4134 
L -19 4666 
z
" id="DejaVuSans-54" transform="scale(0.015625)"/>
       <path d="M 2631 2963 
Q 2534 3019 2420 3045 
Q 2306 3072 2169 3072 
Q 1681 3072 1420 2755 
Q 1159 2438 1159 1844 
L 1159 0 
L 581 0 
L 581 3500 
L 1159 3500 
L 1159 2956 
Q 1341 3275 1631 3429 
Q 1922 3584 2338 3584 
Q 2397 3584 2469 3576 
Q 2541 3569 2628 3553 
L 2631 2963 
z
" id="DejaVuSans-72" transform="scale(0.015625)"/>
       <path d="M 2194 1759 
Q 1497 1759 1228 1600 
Q 959 1441 959 1056 
Q 959 750 1161 570 
Q 1363 391 1709 391 
Q 2188 391 2477 730 
Q 2766 1069 2766 1631 
L 2766 1759 
L 2194 1759 
z
M 3341 1997 
L 3341 0 
L 2766 0 
L 2766 531 
Q 2569 213 2275 61 
Q 1981 -91 1556 -91 
Q 1019 -91 701 211 
Q 384 513 384 1019 
Q 384 1609 779 1909 
Q 1175 2209 1959 2209 
L 2766 2209 
L 2766 2266 
Q 2766 2663 2505 2880 
Q 2244 3097 1772 3097 
Q 1472 3097 1187 3025 
Q 903 2953 641 2809 
L 641 3341 
Q 956 3463 1253 3523 
Q 1550 3584 1831 3584 
Q 2591 3584 2966 3190 
Q 3341 2797 3341 1997 
z
" id="DejaVuSans-61" transform="scale(0.015625)"/>
       <path d="M 603 3500 
L 1178 3500 
L 1178 0 
L 603 0 
L 603 3500 
z
M 603 4863 
L 1178 4863 
L 1178 4134 
L 603 4134 
L 603 4863 
z
" id="DejaVuSans-69" transform="scale(0.015625)"/>
       <path d="M 3513 2113 
L 3513 0 
L 2938 0 
L 2938 2094 
Q 2938 2591 2744 2837 
Q 2550 3084 2163 3084 
Q 1697 3084 1428 2787 
Q 1159 2491 1159 1978 
L 1159 0 
L 581 0 
L 581 3500 
L 1159 3500 
L 1159 2956 
Q 1366 3272 1645 3428 
Q 1925 3584 2291 3584 
Q 2894 3584 3203 3211 
Q 3513 2838 3513 2113 
z
" id="DejaVuSans-6e" transform="scale(0.015625)"/>
       <path id="DejaVuSans-20" transform="scale(0.015625)"/>
       <path d="M 603 4863 
L 1178 4863 
L 1178 0 
L 603 0 
L 603 4863 
z
" id="DejaVuSans-6c" transform="scale(0.015625)"/>
      </defs>
      <use xlink:href="#DejaVuSans-54"/>
      <use x="46.333984" xlink:href="#DejaVuSans-72"/>
      <use x="87.447266" xlink:href="#DejaVuSans-61"/>
      <use x="148.726562" xlink:href="#DejaVuSans-69"/>
      <use x="176.509766" xlink:href="#DejaVuSans-6e"/>
      <use x="239.888672" xlink:href="#DejaVuSans-20"/>
      <use x="271.675781" xlink:href="#DejaVuSans-6c"/>
      <use x="299.458984" xlink:href="#DejaVuSans-6f"/>
      <use x="360.640625" xlink:href="#DejaVuSans-73"/>
      <use x="412.740234" xlink:href="#DejaVuSans-73"/>
     </g>
    </g>
    <g id="line2d_21">
     <path d="M 305.845 69.248562 
L 325.845 69.248562 
" style="fill:none;stroke:#ff7f0e;stroke-linecap:square;stroke-width:1.5;"/>
    </g>
    <g id="line2d_22"/>
    <g id="text_20">
     <!-- Validation loss -->
     <g transform="translate(333.845 72.748562)scale(0.1 -0.1)">
      <defs>
       <path d="M 1831 0 
L 50 4666 
L 709 4666 
L 2188 738 
L 3669 4666 
L 4325 4666 
L 2547 0 
L 1831 0 
z
" id="DejaVuSans-56" transform="scale(0.015625)"/>
       <path d="M 2906 2969 
L 2906 4863 
L 3481 4863 
L 3481 0 
L 2906 0 
L 2906 525 
Q 2725 213 2448 61 
Q 2172 -91 1784 -91 
Q 1150 -91 751 415 
Q 353 922 353 1747 
Q 353 2572 751 3078 
Q 1150 3584 1784 3584 
Q 2172 3584 2448 3432 
Q 2725 3281 2906 2969 
z
M 947 1747 
Q 947 1113 1208 752 
Q 1469 391 1925 391 
Q 2381 391 2643 752 
Q 2906 1113 2906 1747 
Q 2906 2381 2643 2742 
Q 2381 3103 1925 3103 
Q 1469 3103 1208 2742 
Q 947 2381 947 1747 
z
" id="DejaVuSans-64" transform="scale(0.015625)"/>
       <path d="M 1172 4494 
L 1172 3500 
L 2356 3500 
L 2356 3053 
L 1172 3053 
L 1172 1153 
Q 1172 725 1289 603 
Q 1406 481 1766 481 
L 2356 481 
L 2356 0 
L 1766 0 
Q 1100 0 847 248 
Q 594 497 594 1153 
L 594 3053 
L 172 3053 
L 172 3500 
L 594 3500 
L 594 4494 
L 1172 4494 
z
" id="DejaVuSans-74" transform="scale(0.015625)"/>
      </defs>
      <use xlink:href="#DejaVuSans-56"/>
      <use x="60.658203" xlink:href="#DejaVuSans-61"/>
      <use x="121.9375" xlink:href="#DejaVuSans-6c"/>
      <use x="149.720703" xlink:href="#DejaVuSans-69"/>
      <use x="177.503906" xlink:href="#DejaVuSans-64"/>
      <use x="240.980469" xlink:href="#DejaVuSans-61"/>
      <use x="302.259766" xlink:href="#DejaVuSans-74"/>
      <use x="341.46875" xlink:href="#DejaVuSans-69"/>
      <use x="369.251953" xlink:href="#DejaVuSans-6f"/>
      <use x="430.433594" xlink:href="#DejaVuSans-6e"/>
      <use x="493.8125" xlink:href="#DejaVuSans-20"/>
      <use x="525.599609" xlink:href="#DejaVuSans-6c"/>
      <use x="553.382812" xlink:href="#DejaVuSans-6f"/>
      <use x="614.564453" xlink:href="#DejaVuSans-73"/>
      <use x="666.664062" xlink:href="#DejaVuSans-73"/>
     </g>
    </g>
   </g>
  </g>
 </g>
 <defs>
  <clipPath id="p1874350c6d">
   <rect height="266.112" width="357.12" x="57.6" y="41.472"/>
  </clipPath>
 </defs>
</svg>
