<?xml version="1.0" encoding="utf-8" standalone="no"?>
<!DOCTYPE svg PUBLIC "-//W3C//DTD SVG 1.1//EN"
  "http://www.w3.org/Graphics/SVG/1.1/DTD/svg11.dtd">
<svg height="345.6pt" version="1.1" viewBox="0 0 460.8 345.6" width="460.8pt" xmlns="http://www.w3.org/2000/svg" xmlns:xlink="http://www.w3.org/1999/xlink">
 <metadata>
  <rdf:RDF xmlns:cc="http://creativecommons.org/ns#" xmlns:dc="http://purl.org/dc/elements/1.1/" xmlns:rdf="http://www.w3.org/1999/02/22-rdf-syntax-ns#">
   <cc:Work>
    <dc:type rdf:resource="http://purl.org/dc/dcmitype/StillImage"/>
    <dc:date>2021-08-06T18:09:45.059212</dc:date>
    <dc:format>image/svg+xml</dc:format>
    <dc:creator>
     <cc:Agent>
      <dc:title>Matplotlib v3.4.1, https://matplotlib.org/</dc:title>
     </cc:Agent>
    </dc:creator>
   </cc:Work>
  </rdf:RDF>
 </metadata>
 <defs>
  <style type="text/css">*{stroke-linecap:butt;stroke-linejoin:round;}</style>
 </defs>
 <g id="figure_1">
  <g id="patch_1">
   <path d="M 0 345.6 
L 460.8 345.6 
L 460.8 0 
L 0 0 
z
" style="fill:#ffffff;"/>
  </g>
  <g id="axes_1">
   <g id="patch_2">
    <path d="M 57.6 307.584 
L 414.72 307.584 
L 414.72 41.472 
L 57.6 41.472 
z
" style="fill:#ffffff;"/>
   </g>
   <g id="matplotlib.axis_1">
    <g id="xtick_1">
     <g id="line2d_1">
      <defs>
       <path d="M 0 0 
L 0 3.5 
" id="md44f22dd1d" style="stroke:#000000;stroke-width:0.8;"/>
      </defs>
      <g>
       <use style="stroke:#000000;stroke-width:0.8;" x="72.815001" xlink:href="#md44f22dd1d" y="307.584"/>
      </g>
     </g>
     <g id="text_1">
      <!-- 0 -->
      <g transform="translate(69.633751 322.182437)scale(0.1 -0.1)">
       <defs>
        <path d="M 2034 4250 
Q 1547 4250 1301 3770 
Q 1056 3291 1056 2328 
Q 1056 1369 1301 889 
Q 1547 409 2034 409 
Q 2525 409 2770 889 
Q 3016 1369 3016 2328 
Q 3016 3291 2770 3770 
Q 2525 4250 2034 4250 
z
M 2034 4750 
Q 2819 4750 3233 4129 
Q 3647 3509 3647 2328 
Q 3647 1150 3233 529 
Q 2819 -91 2034 -91 
Q 1250 -91 836 529 
Q 422 1150 422 2328 
Q 422 3509 836 4129 
Q 1250 4750 2034 4750 
z
" id="DejaVuSans-30" transform="scale(0.015625)"/>
       </defs>
       <use xlink:href="#DejaVuSans-30"/>
      </g>
     </g>
    </g>
    <g id="xtick_2">
     <g id="line2d_2">
      <g>
       <use style="stroke:#000000;stroke-width:0.8;" x="123.701294" xlink:href="#md44f22dd1d" y="307.584"/>
      </g>
     </g>
     <g id="text_2">
      <!-- 50 -->
      <g transform="translate(117.338794 322.182437)scale(0.1 -0.1)">
       <defs>
        <path d="M 691 4666 
L 3169 4666 
L 3169 4134 
L 1269 4134 
L 1269 2991 
Q 1406 3038 1543 3061 
Q 1681 3084 1819 3084 
Q 2600 3084 3056 2656 
Q 3513 2228 3513 1497 
Q 3513 744 3044 326 
Q 2575 -91 1722 -91 
Q 1428 -91 1123 -41 
Q 819 9 494 109 
L 494 744 
Q 775 591 1075 516 
Q 1375 441 1709 441 
Q 2250 441 2565 725 
Q 2881 1009 2881 1497 
Q 2881 1984 2565 2268 
Q 2250 2553 1709 2553 
Q 1456 2553 1204 2497 
Q 953 2441 691 2322 
L 691 4666 
z
" id="DejaVuSans-35" transform="scale(0.015625)"/>
       </defs>
       <use xlink:href="#DejaVuSans-35"/>
       <use x="63.623047" xlink:href="#DejaVuSans-30"/>
      </g>
     </g>
    </g>
    <g id="xtick_3">
     <g id="line2d_3">
      <g>
       <use style="stroke:#000000;stroke-width:0.8;" x="174.587586" xlink:href="#md44f22dd1d" y="307.584"/>
      </g>
     </g>
     <g id="text_3">
      <!-- 100 -->
      <g transform="translate(165.043836 322.182437)scale(0.1 -0.1)">
       <defs>
        <path d="M 794 531 
L 1825 531 
L 1825 4091 
L 703 3866 
L 703 4441 
L 1819 4666 
L 2450 4666 
L 2450 531 
L 3481 531 
L 3481 0 
L 794 0 
L 794 531 
z
" id="DejaVuSans-31" transform="scale(0.015625)"/>
       </defs>
       <use xlink:href="#DejaVuSans-31"/>
       <use x="63.623047" xlink:href="#DejaVuSans-30"/>
       <use x="127.246094" xlink:href="#DejaVuSans-30"/>
      </g>
     </g>
    </g>
    <g id="xtick_4">
     <g id="line2d_4">
      <g>
       <use style="stroke:#000000;stroke-width:0.8;" x="225.473879" xlink:href="#md44f22dd1d" y="307.584"/>
      </g>
     </g>
     <g id="text_4">
      <!-- 150 -->
      <g transform="translate(215.930129 322.182437)scale(0.1 -0.1)">
       <use xlink:href="#DejaVuSans-31"/>
       <use x="63.623047" xlink:href="#DejaVuSans-35"/>
       <use x="127.246094" xlink:href="#DejaVuSans-30"/>
      </g>
     </g>
    </g>
    <g id="xtick_5">
     <g id="line2d_5">
      <g>
       <use style="stroke:#000000;stroke-width:0.8;" x="276.360171" xlink:href="#md44f22dd1d" y="307.584"/>
      </g>
     </g>
     <g id="text_5">
      <!-- 200 -->
      <g transform="translate(266.816421 322.182437)scale(0.1 -0.1)">
       <defs>
        <path d="M 1228 531 
L 3431 531 
L 3431 0 
L 469 0 
L 469 531 
Q 828 903 1448 1529 
Q 2069 2156 2228 2338 
Q 2531 2678 2651 2914 
Q 2772 3150 2772 3378 
Q 2772 3750 2511 3984 
Q 2250 4219 1831 4219 
Q 1534 4219 1204 4116 
Q 875 4013 500 3803 
L 500 4441 
Q 881 4594 1212 4672 
Q 1544 4750 1819 4750 
Q 2544 4750 2975 4387 
Q 3406 4025 3406 3419 
Q 3406 3131 3298 2873 
Q 3191 2616 2906 2266 
Q 2828 2175 2409 1742 
Q 1991 1309 1228 531 
z
" id="DejaVuSans-32" transform="scale(0.015625)"/>
       </defs>
       <use xlink:href="#DejaVuSans-32"/>
       <use x="63.623047" xlink:href="#DejaVuSans-30"/>
       <use x="127.246094" xlink:href="#DejaVuSans-30"/>
      </g>
     </g>
    </g>
    <g id="xtick_6">
     <g id="line2d_6">
      <g>
       <use style="stroke:#000000;stroke-width:0.8;" x="327.246463" xlink:href="#md44f22dd1d" y="307.584"/>
      </g>
     </g>
     <g id="text_6">
      <!-- 250 -->
      <g transform="translate(317.702713 322.182437)scale(0.1 -0.1)">
       <use xlink:href="#DejaVuSans-32"/>
       <use x="63.623047" xlink:href="#DejaVuSans-35"/>
       <use x="127.246094" xlink:href="#DejaVuSans-30"/>
      </g>
     </g>
    </g>
    <g id="xtick_7">
     <g id="line2d_7">
      <g>
       <use style="stroke:#000000;stroke-width:0.8;" x="378.132756" xlink:href="#md44f22dd1d" y="307.584"/>
      </g>
     </g>
     <g id="text_7">
      <!-- 300 -->
      <g transform="translate(368.589006 322.182437)scale(0.1 -0.1)">
       <defs>
        <path d="M 2597 2516 
Q 3050 2419 3304 2112 
Q 3559 1806 3559 1356 
Q 3559 666 3084 287 
Q 2609 -91 1734 -91 
Q 1441 -91 1130 -33 
Q 819 25 488 141 
L 488 750 
Q 750 597 1062 519 
Q 1375 441 1716 441 
Q 2309 441 2620 675 
Q 2931 909 2931 1356 
Q 2931 1769 2642 2001 
Q 2353 2234 1838 2234 
L 1294 2234 
L 1294 2753 
L 1863 2753 
Q 2328 2753 2575 2939 
Q 2822 3125 2822 3475 
Q 2822 3834 2567 4026 
Q 2313 4219 1838 4219 
Q 1578 4219 1281 4162 
Q 984 4106 628 3988 
L 628 4550 
Q 988 4650 1302 4700 
Q 1616 4750 1894 4750 
Q 2613 4750 3031 4423 
Q 3450 4097 3450 3541 
Q 3450 3153 3228 2886 
Q 3006 2619 2597 2516 
z
" id="DejaVuSans-33" transform="scale(0.015625)"/>
       </defs>
       <use xlink:href="#DejaVuSans-33"/>
       <use x="63.623047" xlink:href="#DejaVuSans-30"/>
       <use x="127.246094" xlink:href="#DejaVuSans-30"/>
      </g>
     </g>
    </g>
    <g id="text_8">
     <!-- Epoch -->
     <g transform="translate(213.193594 339.659781)scale(0.15 -0.15)">
      <defs>
       <path d="M 628 4666 
L 3578 4666 
L 3578 4134 
L 1259 4134 
L 1259 2753 
L 3481 2753 
L 3481 2222 
L 1259 2222 
L 1259 531 
L 3634 531 
L 3634 0 
L 628 0 
L 628 4666 
z
" id="DejaVuSans-45" transform="scale(0.015625)"/>
       <path d="M 1159 525 
L 1159 -1331 
L 581 -1331 
L 581 3500 
L 1159 3500 
L 1159 2969 
Q 1341 3281 1617 3432 
Q 1894 3584 2278 3584 
Q 2916 3584 3314 3078 
Q 3713 2572 3713 1747 
Q 3713 922 3314 415 
Q 2916 -91 2278 -91 
Q 1894 -91 1617 61 
Q 1341 213 1159 525 
z
M 3116 1747 
Q 3116 2381 2855 2742 
Q 2594 3103 2138 3103 
Q 1681 3103 1420 2742 
Q 1159 2381 1159 1747 
Q 1159 1113 1420 752 
Q 1681 391 2138 391 
Q 2594 391 2855 752 
Q 3116 1113 3116 1747 
z
" id="DejaVuSans-70" transform="scale(0.015625)"/>
       <path d="M 1959 3097 
Q 1497 3097 1228 2736 
Q 959 2375 959 1747 
Q 959 1119 1226 758 
Q 1494 397 1959 397 
Q 2419 397 2687 759 
Q 2956 1122 2956 1747 
Q 2956 2369 2687 2733 
Q 2419 3097 1959 3097 
z
M 1959 3584 
Q 2709 3584 3137 3096 
Q 3566 2609 3566 1747 
Q 3566 888 3137 398 
Q 2709 -91 1959 -91 
Q 1206 -91 779 398 
Q 353 888 353 1747 
Q 353 2609 779 3096 
Q 1206 3584 1959 3584 
z
" id="DejaVuSans-6f" transform="scale(0.015625)"/>
       <path d="M 3122 3366 
L 3122 2828 
Q 2878 2963 2633 3030 
Q 2388 3097 2138 3097 
Q 1578 3097 1268 2742 
Q 959 2388 959 1747 
Q 959 1106 1268 751 
Q 1578 397 2138 397 
Q 2388 397 2633 464 
Q 2878 531 3122 666 
L 3122 134 
Q 2881 22 2623 -34 
Q 2366 -91 2075 -91 
Q 1284 -91 818 406 
Q 353 903 353 1747 
Q 353 2603 823 3093 
Q 1294 3584 2113 3584 
Q 2378 3584 2631 3529 
Q 2884 3475 3122 3366 
z
" id="DejaVuSans-63" transform="scale(0.015625)"/>
       <path d="M 3513 2113 
L 3513 0 
L 2938 0 
L 2938 2094 
Q 2938 2591 2744 2837 
Q 2550 3084 2163 3084 
Q 1697 3084 1428 2787 
Q 1159 2491 1159 1978 
L 1159 0 
L 581 0 
L 581 4863 
L 1159 4863 
L 1159 2956 
Q 1366 3272 1645 3428 
Q 1925 3584 2291 3584 
Q 2894 3584 3203 3211 
Q 3513 2838 3513 2113 
z
" id="DejaVuSans-68" transform="scale(0.015625)"/>
      </defs>
      <use xlink:href="#DejaVuSans-45"/>
      <use x="63.183594" xlink:href="#DejaVuSans-70"/>
      <use x="126.660156" xlink:href="#DejaVuSans-6f"/>
      <use x="187.841797" xlink:href="#DejaVuSans-63"/>
      <use x="242.822266" xlink:href="#DejaVuSans-68"/>
     </g>
    </g>
   </g>
   <g id="matplotlib.axis_2">
    <g id="ytick_1">
     <g id="line2d_8">
      <defs>
       <path d="M 0 0 
L -3.5 0 
" id="meac072b2a9" style="stroke:#000000;stroke-width:0.8;"/>
      </defs>
      <g>
       <use style="stroke:#000000;stroke-width:0.8;" x="57.6" xlink:href="#meac072b2a9" y="277.532611"/>
      </g>
     </g>
     <g id="text_9">
      <!-- −1000 -->
      <g transform="translate(16.770313 281.33183)scale(0.1 -0.1)">
       <defs>
        <path d="M 678 2272 
L 4684 2272 
L 4684 1741 
L 678 1741 
L 678 2272 
z
" id="DejaVuSans-2212" transform="scale(0.015625)"/>
       </defs>
       <use xlink:href="#DejaVuSans-2212"/>
       <use x="83.789062" xlink:href="#DejaVuSans-31"/>
       <use x="147.412109" xlink:href="#DejaVuSans-30"/>
       <use x="211.035156" xlink:href="#DejaVuSans-30"/>
       <use x="274.658203" xlink:href="#DejaVuSans-30"/>
      </g>
     </g>
    </g>
    <g id="ytick_2">
     <g id="line2d_9">
      <g>
       <use style="stroke:#000000;stroke-width:0.8;" x="57.6" xlink:href="#meac072b2a9" y="234.546104"/>
      </g>
     </g>
     <g id="text_10">
      <!-- −800 -->
      <g transform="translate(23.132812 238.345323)scale(0.1 -0.1)">
       <defs>
        <path d="M 2034 2216 
Q 1584 2216 1326 1975 
Q 1069 1734 1069 1313 
Q 1069 891 1326 650 
Q 1584 409 2034 409 
Q 2484 409 2743 651 
Q 3003 894 3003 1313 
Q 3003 1734 2745 1975 
Q 2488 2216 2034 2216 
z
M 1403 2484 
Q 997 2584 770 2862 
Q 544 3141 544 3541 
Q 544 4100 942 4425 
Q 1341 4750 2034 4750 
Q 2731 4750 3128 4425 
Q 3525 4100 3525 3541 
Q 3525 3141 3298 2862 
Q 3072 2584 2669 2484 
Q 3125 2378 3379 2068 
Q 3634 1759 3634 1313 
Q 3634 634 3220 271 
Q 2806 -91 2034 -91 
Q 1263 -91 848 271 
Q 434 634 434 1313 
Q 434 1759 690 2068 
Q 947 2378 1403 2484 
z
M 1172 3481 
Q 1172 3119 1398 2916 
Q 1625 2713 2034 2713 
Q 2441 2713 2670 2916 
Q 2900 3119 2900 3481 
Q 2900 3844 2670 4047 
Q 2441 4250 2034 4250 
Q 1625 4250 1398 4047 
Q 1172 3844 1172 3481 
z
" id="DejaVuSans-38" transform="scale(0.015625)"/>
       </defs>
       <use xlink:href="#DejaVuSans-2212"/>
       <use x="83.789062" xlink:href="#DejaVuSans-38"/>
       <use x="147.412109" xlink:href="#DejaVuSans-30"/>
       <use x="211.035156" xlink:href="#DejaVuSans-30"/>
      </g>
     </g>
    </g>
    <g id="ytick_3">
     <g id="line2d_10">
      <g>
       <use style="stroke:#000000;stroke-width:0.8;" x="57.6" xlink:href="#meac072b2a9" y="191.559597"/>
      </g>
     </g>
     <g id="text_11">
      <!-- −600 -->
      <g transform="translate(23.132812 195.358815)scale(0.1 -0.1)">
       <defs>
        <path d="M 2113 2584 
Q 1688 2584 1439 2293 
Q 1191 2003 1191 1497 
Q 1191 994 1439 701 
Q 1688 409 2113 409 
Q 2538 409 2786 701 
Q 3034 994 3034 1497 
Q 3034 2003 2786 2293 
Q 2538 2584 2113 2584 
z
M 3366 4563 
L 3366 3988 
Q 3128 4100 2886 4159 
Q 2644 4219 2406 4219 
Q 1781 4219 1451 3797 
Q 1122 3375 1075 2522 
Q 1259 2794 1537 2939 
Q 1816 3084 2150 3084 
Q 2853 3084 3261 2657 
Q 3669 2231 3669 1497 
Q 3669 778 3244 343 
Q 2819 -91 2113 -91 
Q 1303 -91 875 529 
Q 447 1150 447 2328 
Q 447 3434 972 4092 
Q 1497 4750 2381 4750 
Q 2619 4750 2861 4703 
Q 3103 4656 3366 4563 
z
" id="DejaVuSans-36" transform="scale(0.015625)"/>
       </defs>
       <use xlink:href="#DejaVuSans-2212"/>
       <use x="83.789062" xlink:href="#DejaVuSans-36"/>
       <use x="147.412109" xlink:href="#DejaVuSans-30"/>
       <use x="211.035156" xlink:href="#DejaVuSans-30"/>
      </g>
     </g>
    </g>
    <g id="ytick_4">
     <g id="line2d_11">
      <g>
       <use style="stroke:#000000;stroke-width:0.8;" x="57.6" xlink:href="#meac072b2a9" y="148.573089"/>
      </g>
     </g>
     <g id="text_12">
      <!-- −400 -->
      <g transform="translate(23.132812 152.372308)scale(0.1 -0.1)">
       <defs>
        <path d="M 2419 4116 
L 825 1625 
L 2419 1625 
L 2419 4116 
z
M 2253 4666 
L 3047 4666 
L 3047 1625 
L 3713 1625 
L 3713 1100 
L 3047 1100 
L 3047 0 
L 2419 0 
L 2419 1100 
L 313 1100 
L 313 1709 
L 2253 4666 
z
" id="DejaVuSans-34" transform="scale(0.015625)"/>
       </defs>
       <use xlink:href="#DejaVuSans-2212"/>
       <use x="83.789062" xlink:href="#DejaVuSans-34"/>
       <use x="147.412109" xlink:href="#DejaVuSans-30"/>
       <use x="211.035156" xlink:href="#DejaVuSans-30"/>
      </g>
     </g>
    </g>
    <g id="ytick_5">
     <g id="line2d_12">
      <g>
       <use style="stroke:#000000;stroke-width:0.8;" x="57.6" xlink:href="#meac072b2a9" y="105.586582"/>
      </g>
     </g>
     <g id="text_13">
      <!-- −200 -->
      <g transform="translate(23.132812 109.385801)scale(0.1 -0.1)">
       <use xlink:href="#DejaVuSans-2212"/>
       <use x="83.789062" xlink:href="#DejaVuSans-32"/>
       <use x="147.412109" xlink:href="#DejaVuSans-30"/>
       <use x="211.035156" xlink:href="#DejaVuSans-30"/>
      </g>
     </g>
    </g>
    <g id="ytick_6">
     <g id="line2d_13">
      <g>
       <use style="stroke:#000000;stroke-width:0.8;" x="57.6" xlink:href="#meac072b2a9" y="62.600075"/>
      </g>
     </g>
     <g id="text_14">
      <!-- 0 -->
      <g transform="translate(44.2375 66.399293)scale(0.1 -0.1)">
       <use xlink:href="#DejaVuSans-30"/>
      </g>
     </g>
    </g>
   </g>
   <g id="line2d_14">
    <path clip-path="url(#p2921175577)" d="M 73.832727 53.568 
L 74.850453 141.841602 
L 75.868179 146.149092 
L 76.885905 147.90903 
L 77.903631 150.220565 
L 78.921357 151.816503 
L 79.939082 157.861964 
L 80.956808 160.353671 
L 81.974534 166.815955 
L 82.99226 171.704979 
L 84.009986 173.70043 
L 85.027712 177.891478 
L 86.045437 183.980915 
L 87.063163 188.249166 
L 89.098615 192.770624 
L 90.116341 192.216105 
L 91.134067 198.676997 
L 92.151793 199.37233 
L 93.169518 200.472531 
L 94.187244 203.030428 
L 95.20497 207.176401 
L 96.222696 208.665803 
L 97.240422 210.951285 
L 99.275873 216.895592 
L 100.293599 218.188354 
L 101.311325 219.796138 
L 102.329051 223.092929 
L 103.346777 223.850496 
L 104.364503 226.738302 
L 105.382229 212.227516 
L 106.399954 223.954143 
L 107.41768 226.243352 
L 108.435406 230.41255 
L 109.453132 229.634566 
L 110.470858 231.901171 
L 111.488584 233.491997 
L 112.506309 234.814282 
L 113.524035 236.607385 
L 114.541761 237.73856 
L 115.559487 237.683075 
L 116.577213 239.536224 
L 117.594939 241.144341 
L 119.63039 242.238076 
L 120.648116 244.635009 
L 121.665842 244.753352 
L 122.683568 245.103319 
L 124.71902 246.430652 
L 125.736746 245.981735 
L 126.754471 249.526956 
L 127.772197 247.913441 
L 128.789923 248.638203 
L 129.807649 249.871512 
L 130.825375 248.458675 
L 131.843101 251.34461 
L 132.860826 251.851573 
L 133.878552 254.139958 
L 135.914004 254.613846 
L 136.93173 253.945455 
L 137.949456 256.363736 
L 138.967182 256.702721 
L 139.984907 255.755653 
L 141.002633 256.228968 
L 142.020359 257.69374 
L 143.038085 257.841588 
L 144.055811 258.112927 
L 145.073537 260.778242 
L 146.091262 260.536225 
L 147.108988 261.471547 
L 148.126714 259.645039 
L 149.14444 261.916801 
L 150.162166 262.906479 
L 151.179892 262.752993 
L 152.197618 262.333335 
L 153.215343 262.563978 
L 154.233069 263.636964 
L 155.250795 265.612647 
L 156.268521 265.256691 
L 157.286247 265.020078 
L 158.303973 266.079658 
L 159.321698 266.427876 
L 160.339424 266.388944 
L 161.35715 267.612448 
L 162.374876 266.983948 
L 163.392602 268.617893 
L 164.410328 269.58816 
L 165.428054 269.171238 
L 166.445779 269.455213 
L 167.463505 270.32904 
L 169.498957 270.331413 
L 170.516683 270.802389 
L 171.534409 271.030615 
L 172.552135 271.112073 
L 173.56986 270.693274 
L 174.587586 271.510465 
L 175.605312 272.731388 
L 176.623038 266.608746 
L 177.640764 270.753955 
L 178.65849 271.81405 
L 179.676215 273.589804 
L 180.693941 274.686144 
L 181.711667 274.87042 
L 182.729393 275.544311 
L 183.747119 275.460538 
L 184.764845 276.259529 
L 185.782571 276.003532 
L 186.800296 275.62499 
L 187.818022 276.613784 
L 189.853474 276.360539 
L 190.8712 276.443497 
L 192.906651 276.175966 
L 193.924377 276.674069 
L 194.942103 276.58102 
L 196.977555 275.628947 
L 197.995281 276.495474 
L 199.013007 276.406947 
L 200.030732 275.371211 
L 201.048458 276.34127 
L 202.066184 276.041652 
L 204.101636 276.114354 
L 205.119362 275.020149 
L 207.154813 276.353475 
L 208.172539 275.184967 
L 209.190265 275.280866 
L 210.207991 275.08448 
L 211.225717 274.713489 
L 212.243443 274.020283 
L 213.261168 273.550981 
L 214.278894 274.574457 
L 215.29662 272.508543 
L 216.314346 274.612047 
L 217.332072 274.582214 
L 218.349798 274.097463 
L 219.367524 269.081886 
L 220.385249 273.959202 
L 221.402975 274.332075 
L 222.420701 274.259817 
L 223.438427 271.29996 
L 224.456153 271.058759 
L 225.473879 271.422242 
L 226.491604 273.697336 
L 227.50933 274.345725 
L 228.527056 274.380496 
L 229.544782 274.86247 
L 230.562508 271.826984 
L 231.580234 272.279946 
L 232.59796 274.381638 
L 233.615685 274.110817 
L 234.633411 275.596081 
L 235.651137 274.925846 
L 236.668863 276.094118 
L 237.686589 276.926848 
L 238.704315 274.794008 
L 239.72204 276.21904 
L 240.739766 274.633448 
L 241.757492 276.79277 
L 242.775218 275.277315 
L 243.792944 277.113038 
L 244.81067 276.275909 
L 245.828396 278.671663 
L 246.846121 276.74489 
L 247.863847 277.08281 
L 248.881573 275.582416 
L 249.899299 278.147671 
L 250.917025 277.977137 
L 251.934751 278.809695 
L 252.952476 276.135132 
L 253.970202 276.152822 
L 254.987928 280.900834 
L 256.005654 276.155221 
L 257.02338 276.510209 
L 258.041106 277.09488 
L 259.058832 281.403508 
L 260.076557 278.065514 
L 261.094283 279.177722 
L 262.112009 281.411146 
L 263.129735 278.695523 
L 264.147461 278.179502 
L 265.165187 281.761597 
L 266.182913 279.716481 
L 267.200638 279.239712 
L 268.218364 280.830093 
L 269.23609 280.757869 
L 270.253816 281.082297 
L 272.289268 282.662778 
L 273.306993 281.668554 
L 274.324719 283.311119 
L 275.342445 282.83333 
L 276.360171 283.28147 
L 277.377897 284.000949 
L 278.395623 281.523716 
L 279.413349 280.161316 
L 280.431074 283.590722 
L 281.4488 284.746048 
L 282.466526 284.197374 
L 283.484252 281.923282 
L 284.501978 284.055274 
L 285.519704 282.706467 
L 286.537429 282.573405 
L 287.555155 283.691105 
L 288.572881 285.976649 
L 289.590607 283.103272 
L 290.608333 286.851508 
L 292.643785 278.654923 
L 293.66151 275.487505 
L 294.679236 263.433159 
L 295.696962 279.477403 
L 296.714688 284.256072 
L 297.732414 284.248736 
L 298.75014 286.036228 
L 299.767865 279.730199 
L 300.785591 284.723323 
L 301.803317 285.180751 
L 302.821043 286.016298 
L 303.838769 286.395879 
L 304.856495 281.264799 
L 305.874221 286.867707 
L 306.891946 287.82527 
L 308.927398 285.140567 
L 309.945124 287.380137 
L 311.980576 288.001677 
L 312.998302 280.955094 
L 314.016027 288.046089 
L 315.033753 288.373706 
L 317.069205 286.596018 
L 318.086931 289.004565 
L 319.104657 288.895719 
L 320.122382 287.432368 
L 321.140108 288.364972 
L 322.157834 285.114892 
L 323.17556 288.357357 
L 325.211012 289.380741 
L 326.228738 284.926333 
L 328.264189 289.999621 
L 329.281915 284.3453 
L 330.299641 290.084988 
L 331.317367 290.49299 
L 332.335093 287.825997 
L 333.352818 289.220604 
L 334.370544 286.985142 
L 335.38827 283.723384 
L 337.423722 288.612548 
L 338.441448 289.718079 
L 339.459174 291.246353 
L 340.476899 288.966967 
L 341.494625 290.791889 
L 342.512351 282.603971 
L 343.530077 290.591825 
L 344.547803 289.299205 
L 345.565529 289.462629 
L 346.583254 291.031025 
L 347.60098 283.212521 
L 348.618706 289.223415 
L 349.636432 291.230036 
L 350.654158 292.314506 
L 351.671884 289.516981 
L 352.68961 291.619338 
L 353.707335 290.322686 
L 354.725061 290.573875 
L 355.742787 291.682938 
L 356.760513 292.443546 
L 357.778239 289.449338 
L 359.813691 291.928952 
L 360.831416 291.467026 
L 361.849142 288.157324 
L 362.866868 291.858026 
L 363.884594 293.427697 
L 364.90232 291.32736 
L 365.920046 289.674997 
L 366.937771 291.841862 
L 367.955497 292.669936 
L 368.973223 293.894595 
L 369.990949 291.761475 
L 371.008675 292.709319 
L 372.026401 290.042359 
L 373.044127 292.035679 
L 374.061852 292.007027 
M 376.097304 290.207737 
L 377.11503 292.922371 
L 378.132756 294.489767 
L 379.150482 292.894573 
L 380.168207 292.409515 
L 381.185933 292.882166 
L 382.203659 292.062724 
L 383.221385 292.227784 
L 384.239111 293.814653 
L 385.256837 291.920181 
L 386.274563 294.519504 
L 388.310014 287.362914 
L 389.32774 294.767945 
L 390.345466 294.148109 
L 391.363192 293.192557 
L 392.380918 294.927426 
L 393.398643 295.488 
L 394.416369 292.496561 
L 395.434095 293.287687 
L 396.451821 293.860643 
L 397.469547 293.957741 
L 397.469547 293.957741 
" style="fill:none;stroke:#1f77b4;stroke-linecap:square;stroke-width:1.5;"/>
   </g>
   <g id="line2d_15">
    <path clip-path="url(#p2921175577)" d="M 73.832727 133.782302 
L 74.850453 146.64608 
L 76.885905 149.251614 
L 77.903631 147.923607 
L 78.921357 155.611118 
L 79.939082 161.210597 
L 80.956808 163.944618 
L 81.974534 172.732495 
L 82.99226 173.123727 
L 84.009986 179.775791 
L 85.027712 185.043272 
L 86.045437 189.616948 
L 87.063163 191.758043 
L 88.080889 189.777881 
L 89.098615 196.728022 
L 90.116341 194.986807 
L 91.134067 180.86309 
L 92.151793 195.353506 
L 93.169518 195.383168 
L 94.187244 205.545546 
L 95.20497 205.046337 
L 96.222696 209.221868 
L 97.240422 211.608254 
L 98.258148 210.865309 
L 99.275873 217.910722 
L 100.293599 217.627613 
L 101.311325 219.115938 
L 102.329051 221.252694 
L 103.346777 221.723523 
L 104.364503 222.843619 
L 105.382229 217.485695 
L 106.399954 224.831467 
L 107.41768 228.117608 
L 108.435406 227.85216 
L 109.453132 230.219654 
L 110.470858 226.589709 
L 111.488584 229.097506 
L 112.506309 230.72995 
L 113.524035 233.246741 
L 114.541761 232.689976 
L 115.559487 234.567978 
L 116.577213 229.817037 
L 117.594939 235.949498 
L 118.612665 236.671125 
L 119.63039 235.295446 
L 120.648116 239.625925 
L 121.665842 239.169111 
L 122.683568 237.061631 
L 123.701294 240.799479 
L 124.71902 238.822137 
L 125.736746 242.60022 
L 126.754471 241.912415 
L 127.772197 243.520305 
L 128.789923 243.72377 
L 129.807649 244.420689 
L 130.825375 244.844433 
L 131.843101 244.095081 
L 132.860826 246.043906 
L 133.878552 246.955006 
L 134.896278 246.806738 
L 135.914004 245.05562 
L 136.93173 248.80458 
L 137.949456 247.707166 
L 138.967182 247.023101 
L 139.984907 248.361984 
L 141.002633 250.887781 
L 142.020359 251.656265 
L 143.038085 248.185709 
L 144.055811 251.680699 
L 145.073537 251.427212 
L 147.108988 254.206738 
L 148.126714 251.962301 
L 149.14444 253.875999 
L 150.162166 254.557067 
L 151.179892 250.306092 
L 152.197618 244.371436 
L 153.215343 252.037702 
L 154.233069 252.089916 
L 155.250795 252.578491 
L 156.268521 251.734169 
L 157.286247 248.884376 
L 158.303973 255.619023 
L 159.321698 254.975827 
L 160.339424 252.161626 
L 161.35715 256.22504 
L 163.392602 256.710414 
L 164.410328 258.785022 
L 166.445779 256.592565 
L 167.463505 253.521493 
L 168.481231 248.029875 
L 169.498957 250.629925 
L 170.516683 256.842913 
L 171.534409 254.068341 
L 172.552135 257.075853 
L 173.56986 252.380968 
L 174.587586 256.226313 
L 175.605312 254.047089 
L 176.623038 251.566454 
L 177.640764 253.286777 
L 178.65849 257.223639 
L 179.676215 257.384708 
L 180.693941 257.919414 
L 181.711667 258.094425 
L 182.729393 256.101478 
L 183.747119 254.407131 
L 184.764845 257.684573 
L 185.782571 257.043244 
L 186.800296 257.349918 
L 187.818022 255.264781 
L 188.835748 257.343503 
L 189.853474 257.109245 
L 190.8712 258.534105 
L 191.888926 254.960537 
L 192.906651 256.056112 
L 193.924377 256.8382 
L 194.942103 253.698899 
L 195.959829 258.715546 
L 196.977555 257.054266 
L 197.995281 256.249173 
L 199.013007 257.730371 
L 200.030732 258.469379 
L 201.048458 258.172207 
L 202.066184 254.731852 
L 203.08391 257.746788 
L 204.101636 254.177654 
L 205.119362 255.868413 
L 206.137087 255.051662 
L 207.154813 257.851223 
L 208.172539 256.786734 
L 209.190265 256.334796 
L 210.207991 255.218873 
L 211.225717 258.775846 
L 212.243443 260.203932 
L 213.261168 251.42727 
L 214.278894 254.806753 
L 215.29662 255.702362 
L 216.314346 259.915305 
L 217.332072 257.160904 
L 218.349798 260.106029 
L 219.367524 257.438342 
L 220.385249 258.391502 
L 221.402975 258.37295 
L 222.420701 259.789999 
L 223.438427 254.115265 
L 224.456153 259.168385 
L 225.473879 260.255793 
L 226.491604 258.70149 
L 227.50933 256.112364 
L 228.527056 260.296537 
L 229.544782 256.964419 
L 230.562508 244.549954 
L 231.580234 250.88592 
L 232.59796 258.189199 
L 233.615685 258.659474 
L 234.633411 261.714759 
L 235.651137 260.123758 
L 236.668863 261.324832 
L 237.686589 260.080786 
L 238.704315 254.442726 
L 239.72204 258.861937 
L 240.739766 261.288101 
L 241.757492 258.21604 
L 243.792944 260.417455 
L 244.81067 259.969247 
L 245.828396 257.046732 
L 246.846121 262.151421 
L 247.863847 254.881802 
L 248.881573 261.253138 
L 249.899299 264.119492 
L 250.917025 261.456888 
L 251.934751 252.834122 
L 252.952476 264.124587 
L 253.970202 260.491335 
L 254.987928 263.67503 
L 256.005654 254.747615 
L 257.02338 250.461875 
L 258.041106 259.743103 
L 259.058832 259.573924 
L 260.076557 255.896453 
L 261.094283 258.36542 
L 262.112009 260.399567 
L 263.129735 254.362477 
L 264.147461 263.469144 
L 265.165187 260.289258 
L 266.182913 260.579757 
L 267.200638 261.287388 
L 268.218364 258.768816 
L 269.23609 259.221922 
L 270.253816 257.046771 
L 271.271542 262.55569 
L 272.289268 260.733721 
L 273.306993 264.70688 
L 274.324719 260.964983 
L 275.342445 259.887694 
L 276.360171 259.230283 
L 277.377897 259.856819 
L 278.395623 254.275797 
L 279.413349 260.777828 
L 280.431074 263.925198 
L 281.4488 266.69973 
L 282.466526 257.611896 
L 283.484252 258.848219 
L 284.501978 264.549408 
L 285.519704 262.025063 
L 287.555155 260.992439 
L 288.572881 263.084759 
L 289.590607 263.191748 
L 290.608333 261.070109 
L 291.626059 264.825426 
L 292.643785 258.921084 
L 293.66151 235.174939 
L 294.679236 260.009258 
L 295.696962 265.208778 
L 296.714688 259.731398 
L 297.732414 261.033522 
L 298.75014 264.629332 
L 299.767865 258.881293 
L 300.785591 261.72783 
L 301.803317 263.352328 
L 302.821043 263.086491 
L 303.838769 266.654924 
L 304.856495 259.798038 
L 305.874221 260.521787 
L 306.891946 262.933732 
L 307.909672 262.750909 
L 308.927398 263.113813 
L 309.945124 257.836911 
L 310.96285 262.089746 
L 311.980576 257.549708 
L 312.998302 261.458753 
L 314.016027 259.736378 
L 315.033753 255.889992 
L 316.051479 250.414297 
L 317.069205 264.179556 
L 318.086931 260.56216 
L 319.104657 261.014378 
L 320.122382 255.888941 
L 321.140108 259.778069 
L 322.157834 261.594197 
L 323.17556 265.635546 
L 324.193286 262.594108 
L 325.211012 258.106652 
L 326.228738 254.627863 
L 327.246463 256.681014 
L 328.264189 260.944768 
L 329.281915 267.759481 
L 330.299641 261.580421 
L 331.317367 257.832198 
L 332.335093 251.373027 
L 333.352818 261.417379 
L 334.370544 264.775266 
L 335.38827 265.251069 
L 337.423722 258.08138 
L 338.441448 258.523938 
L 339.459174 259.641395 
L 340.476899 266.422366 
L 341.494625 261.523493 
L 342.512351 262.755018 
L 343.530077 257.780249 
L 344.547803 261.100465 
L 345.565529 263.858688 
L 346.583254 259.420224 
L 347.60098 259.283408 
L 348.618706 259.540226 
L 349.636432 257.384377 
L 350.654158 262.18816 
L 351.671884 257.965059 
L 352.68961 258.368205 
L 353.707335 262.279376 
L 354.725061 254.385348 
L 355.742787 257.324562 
L 356.760513 256.46577 
L 357.778239 261.772783 
L 358.795965 262.761376 
L 359.813691 267.876201 
L 360.831416 263.519594 
L 361.849142 256.602335 
L 362.866868 258.293724 
L 363.884594 255.288072 
L 364.90232 258.271663 
L 365.920046 269.78102 
L 366.937771 257.782712 
L 367.955497 257.597104 
L 368.973223 261.617374 
L 369.990949 251.210418 
L 371.008675 248.161031 
L 372.026401 266.200036 
L 373.044127 255.035222 
L 374.061852 258.745692 
L 375.079578 257.088599 
L 376.097304 257.793241 
L 377.11503 260.234299 
L 378.132756 258.802721 
L 379.150482 262.900785 
L 380.168207 254.493285 
L 381.185933 268.680647 
L 382.203659 257.126544 
L 383.221385 266.233476 
L 384.239111 258.60238 
L 386.274563 254.802622 
L 387.292288 264.601841 
L 388.310014 254.636805 
L 389.32774 252.983701 
L 390.345466 261.201534 
L 391.363192 254.235581 
L 392.380918 258.610733 
L 393.398643 261.058291 
L 394.416369 261.898135 
L 395.434095 259.78527 
L 396.451821 264.10203 
L 397.469547 255.633075 
L 398.487273 266.110336 
L 398.487273 266.110336 
" style="fill:none;stroke:#ff7f0e;stroke-linecap:square;stroke-width:1.5;"/>
   </g>
   <g id="patch_3">
    <path d="M 57.6 307.584 
L 57.6 41.472 
" style="fill:none;stroke:#000000;stroke-linecap:square;stroke-linejoin:miter;stroke-width:0.8;"/>
   </g>
   <g id="patch_4">
    <path d="M 414.72 307.584 
L 414.72 41.472 
" style="fill:none;stroke:#000000;stroke-linecap:square;stroke-linejoin:miter;stroke-width:0.8;"/>
   </g>
   <g id="patch_5">
    <path d="M 57.6 307.584 
L 414.72 307.584 
" style="fill:none;stroke:#000000;stroke-linecap:square;stroke-linejoin:miter;stroke-width:0.8;"/>
   </g>
   <g id="patch_6">
    <path d="M 57.6 41.472 
L 414.72 41.472 
" style="fill:none;stroke:#000000;stroke-linecap:square;stroke-linejoin:miter;stroke-width:0.8;"/>
   </g>
   <g id="legend_1">
    <g id="patch_7">
     <path d="M 303.845 78.82825 
L 407.72 78.82825 
Q 409.72 78.82825 409.72 76.82825 
L 409.72 48.472 
Q 409.72 46.472 407.72 46.472 
L 303.845 46.472 
Q 301.845 46.472 301.845 48.472 
L 301.845 76.82825 
Q 301.845 78.82825 303.845 78.82825 
z
" style="fill:#ffffff;opacity:0.8;stroke:#cccccc;stroke-linejoin:miter;"/>
    </g>
    <g id="line2d_16">
     <path d="M 305.845 54.570437 
L 325.845 54.570437 
" style="fill:none;stroke:#1f77b4;stroke-linecap:square;stroke-width:1.5;"/>
    </g>
    <g id="line2d_17"/>
    <g id="text_15">
     <!-- Train loss -->
     <g transform="translate(333.845 58.070437)scale(0.1 -0.1)">
      <defs>
       <path d="M -19 4666 
L 3928 4666 
L 3928 4134 
L 2272 4134 
L 2272 0 
L 1638 0 
L 1638 4134 
L -19 4134 
L -19 4666 
z
" id="DejaVuSans-54" transform="scale(0.015625)"/>
       <path d="M 2631 2963 
Q 2534 3019 2420 3045 
Q 2306 3072 2169 3072 
Q 1681 3072 1420 2755 
Q 1159 2438 1159 1844 
L 1159 0 
L 581 0 
L 581 3500 
L 1159 3500 
L 1159 2956 
Q 1341 3275 1631 3429 
Q 1922 3584 2338 3584 
Q 2397 3584 2469 3576 
Q 2541 3569 2628 3553 
L 2631 2963 
z
" id="DejaVuSans-72" transform="scale(0.015625)"/>
       <path d="M 2194 1759 
Q 1497 1759 1228 1600 
Q 959 1441 959 1056 
Q 959 750 1161 570 
Q 1363 391 1709 391 
Q 2188 391 2477 730 
Q 2766 1069 2766 1631 
L 2766 1759 
L 2194 1759 
z
M 3341 1997 
L 3341 0 
L 2766 0 
L 2766 531 
Q 2569 213 2275 61 
Q 1981 -91 1556 -91 
Q 1019 -91 701 211 
Q 384 513 384 1019 
Q 384 1609 779 1909 
Q 1175 2209 1959 2209 
L 2766 2209 
L 2766 2266 
Q 2766 2663 2505 2880 
Q 2244 3097 1772 3097 
Q 1472 3097 1187 3025 
Q 903 2953 641 2809 
L 641 3341 
Q 956 3463 1253 3523 
Q 1550 3584 1831 3584 
Q 2591 3584 2966 3190 
Q 3341 2797 3341 1997 
z
" id="DejaVuSans-61" transform="scale(0.015625)"/>
       <path d="M 603 3500 
L 1178 3500 
L 1178 0 
L 603 0 
L 603 3500 
z
M 603 4863 
L 1178 4863 
L 1178 4134 
L 603 4134 
L 603 4863 
z
" id="DejaVuSans-69" transform="scale(0.015625)"/>
       <path d="M 3513 2113 
L 3513 0 
L 2938 0 
L 2938 2094 
Q 2938 2591 2744 2837 
Q 2550 3084 2163 3084 
Q 1697 3084 1428 2787 
Q 1159 2491 1159 1978 
L 1159 0 
L 581 0 
L 581 3500 
L 1159 3500 
L 1159 2956 
Q 1366 3272 1645 3428 
Q 1925 3584 2291 3584 
Q 2894 3584 3203 3211 
Q 3513 2838 3513 2113 
z
" id="DejaVuSans-6e" transform="scale(0.015625)"/>
       <path id="DejaVuSans-20" transform="scale(0.015625)"/>
       <path d="M 603 4863 
L 1178 4863 
L 1178 0 
L 603 0 
L 603 4863 
z
" id="DejaVuSans-6c" transform="scale(0.015625)"/>
       <path d="M 2834 3397 
L 2834 2853 
Q 2591 2978 2328 3040 
Q 2066 3103 1784 3103 
Q 1356 3103 1142 2972 
Q 928 2841 928 2578 
Q 928 2378 1081 2264 
Q 1234 2150 1697 2047 
L 1894 2003 
Q 2506 1872 2764 1633 
Q 3022 1394 3022 966 
Q 3022 478 2636 193 
Q 2250 -91 1575 -91 
Q 1294 -91 989 -36 
Q 684 19 347 128 
L 347 722 
Q 666 556 975 473 
Q 1284 391 1588 391 
Q 1994 391 2212 530 
Q 2431 669 2431 922 
Q 2431 1156 2273 1281 
Q 2116 1406 1581 1522 
L 1381 1569 
Q 847 1681 609 1914 
Q 372 2147 372 2553 
Q 372 3047 722 3315 
Q 1072 3584 1716 3584 
Q 2034 3584 2315 3537 
Q 2597 3491 2834 3397 
z
" id="DejaVuSans-73" transform="scale(0.015625)"/>
      </defs>
      <use xlink:href="#DejaVuSans-54"/>
      <use x="46.333984" xlink:href="#DejaVuSans-72"/>
      <use x="87.447266" xlink:href="#DejaVuSans-61"/>
      <use x="148.726562" xlink:href="#DejaVuSans-69"/>
      <use x="176.509766" xlink:href="#DejaVuSans-6e"/>
      <use x="239.888672" xlink:href="#DejaVuSans-20"/>
      <use x="271.675781" xlink:href="#DejaVuSans-6c"/>
      <use x="299.458984" xlink:href="#DejaVuSans-6f"/>
      <use x="360.640625" xlink:href="#DejaVuSans-73"/>
      <use x="412.740234" xlink:href="#DejaVuSans-73"/>
     </g>
    </g>
    <g id="line2d_18">
     <path d="M 305.845 69.248562 
L 325.845 69.248562 
" style="fill:none;stroke:#ff7f0e;stroke-linecap:square;stroke-width:1.5;"/>
    </g>
    <g id="line2d_19"/>
    <g id="text_16">
     <!-- Validation loss -->
     <g transform="translate(333.845 72.748562)scale(0.1 -0.1)">
      <defs>
       <path d="M 1831 0 
L 50 4666 
L 709 4666 
L 2188 738 
L 3669 4666 
L 4325 4666 
L 2547 0 
L 1831 0 
z
" id="DejaVuSans-56" transform="scale(0.015625)"/>
       <path d="M 2906 2969 
L 2906 4863 
L 3481 4863 
L 3481 0 
L 2906 0 
L 2906 525 
Q 2725 213 2448 61 
Q 2172 -91 1784 -91 
Q 1150 -91 751 415 
Q 353 922 353 1747 
Q 353 2572 751 3078 
Q 1150 3584 1784 3584 
Q 2172 3584 2448 3432 
Q 2725 3281 2906 2969 
z
M 947 1747 
Q 947 1113 1208 752 
Q 1469 391 1925 391 
Q 2381 391 2643 752 
Q 2906 1113 2906 1747 
Q 2906 2381 2643 2742 
Q 2381 3103 1925 3103 
Q 1469 3103 1208 2742 
Q 947 2381 947 1747 
z
" id="DejaVuSans-64" transform="scale(0.015625)"/>
       <path d="M 1172 4494 
L 1172 3500 
L 2356 3500 
L 2356 3053 
L 1172 3053 
L 1172 1153 
Q 1172 725 1289 603 
Q 1406 481 1766 481 
L 2356 481 
L 2356 0 
L 1766 0 
Q 1100 0 847 248 
Q 594 497 594 1153 
L 594 3053 
L 172 3053 
L 172 3500 
L 594 3500 
L 594 4494 
L 1172 4494 
z
" id="DejaVuSans-74" transform="scale(0.015625)"/>
      </defs>
      <use xlink:href="#DejaVuSans-56"/>
      <use x="60.658203" xlink:href="#DejaVuSans-61"/>
      <use x="121.9375" xlink:href="#DejaVuSans-6c"/>
      <use x="149.720703" xlink:href="#DejaVuSans-69"/>
      <use x="177.503906" xlink:href="#DejaVuSans-64"/>
      <use x="240.980469" xlink:href="#DejaVuSans-61"/>
      <use x="302.259766" xlink:href="#DejaVuSans-74"/>
      <use x="341.46875" xlink:href="#DejaVuSans-69"/>
      <use x="369.251953" xlink:href="#DejaVuSans-6f"/>
      <use x="430.433594" xlink:href="#DejaVuSans-6e"/>
      <use x="493.8125" xlink:href="#DejaVuSans-20"/>
      <use x="525.599609" xlink:href="#DejaVuSans-6c"/>
      <use x="553.382812" xlink:href="#DejaVuSans-6f"/>
      <use x="614.564453" xlink:href="#DejaVuSans-73"/>
      <use x="666.664062" xlink:href="#DejaVuSans-73"/>
     </g>
    </g>
   </g>
  </g>
 </g>
 <defs>
  <clipPath id="p2921175577">
   <rect height="266.112" width="357.12" x="57.6" y="41.472"/>
  </clipPath>
 </defs>
</svg>
