<?xml version="1.0" encoding="utf-8" standalone="no"?>
<!DOCTYPE svg PUBLIC "-//W3C//DTD SVG 1.1//EN"
  "http://www.w3.org/Graphics/SVG/1.1/DTD/svg11.dtd">
<svg height="345.6pt" version="1.1" viewBox="0 0 460.8 345.6" width="460.8pt" xmlns="http://www.w3.org/2000/svg" xmlns:xlink="http://www.w3.org/1999/xlink">
 <metadata>
  <rdf:RDF xmlns:cc="http://creativecommons.org/ns#" xmlns:dc="http://purl.org/dc/elements/1.1/" xmlns:rdf="http://www.w3.org/1999/02/22-rdf-syntax-ns#">
   <cc:Work>
    <dc:type rdf:resource="http://purl.org/dc/dcmitype/StillImage"/>
    <dc:date>2021-07-15T05:08:36.589728</dc:date>
    <dc:format>image/svg+xml</dc:format>
    <dc:creator>
     <cc:Agent>
      <dc:title>Matplotlib v3.4.2, https://matplotlib.org/</dc:title>
     </cc:Agent>
    </dc:creator>
   </cc:Work>
  </rdf:RDF>
 </metadata>
 <defs>
  <style type="text/css">*{stroke-linecap:butt;stroke-linejoin:round;}</style>
 </defs>
 <g id="figure_1">
  <g id="patch_1">
   <path d="M 0 345.6 
L 460.8 345.6 
L 460.8 0 
L 0 0 
z
" style="fill:#ffffff;"/>
  </g>
  <g id="axes_1">
   <g id="patch_2">
    <path d="M 57.6 307.584 
L 414.72 307.584 
L 414.72 41.472 
L 57.6 41.472 
z
" style="fill:#ffffff;"/>
   </g>
   <g id="matplotlib.axis_1">
    <g id="xtick_1">
     <g id="line2d_1">
      <defs>
       <path d="M 0 0 
L 0 3.5 
" id="m684397dd37" style="stroke:#000000;stroke-width:0.8;"/>
      </defs>
      <g>
       <use style="stroke:#000000;stroke-width:0.8;" x="73.019057" xlink:href="#m684397dd37" y="307.584"/>
      </g>
     </g>
     <g id="text_1">
      <!-- 0 -->
      <g transform="translate(69.837807 322.182437)scale(0.1 -0.1)">
       <defs>
        <path d="M 2034 4250 
Q 1547 4250 1301 3770 
Q 1056 3291 1056 2328 
Q 1056 1369 1301 889 
Q 1547 409 2034 409 
Q 2525 409 2770 889 
Q 3016 1369 3016 2328 
Q 3016 3291 2770 3770 
Q 2525 4250 2034 4250 
z
M 2034 4750 
Q 2819 4750 3233 4129 
Q 3647 3509 3647 2328 
Q 3647 1150 3233 529 
Q 2819 -91 2034 -91 
Q 1250 -91 836 529 
Q 422 1150 422 2328 
Q 422 3509 836 4129 
Q 1250 4750 2034 4750 
z
" id="DejaVuSans-30" transform="scale(0.015625)"/>
       </defs>
       <use xlink:href="#DejaVuSans-30"/>
      </g>
     </g>
    </g>
    <g id="xtick_2">
     <g id="line2d_2">
      <g>
       <use style="stroke:#000000;stroke-width:0.8;" x="113.702584" xlink:href="#m684397dd37" y="307.584"/>
      </g>
     </g>
     <g id="text_2">
      <!-- 50 -->
      <g transform="translate(107.340084 322.182437)scale(0.1 -0.1)">
       <defs>
        <path d="M 691 4666 
L 3169 4666 
L 3169 4134 
L 1269 4134 
L 1269 2991 
Q 1406 3038 1543 3061 
Q 1681 3084 1819 3084 
Q 2600 3084 3056 2656 
Q 3513 2228 3513 1497 
Q 3513 744 3044 326 
Q 2575 -91 1722 -91 
Q 1428 -91 1123 -41 
Q 819 9 494 109 
L 494 744 
Q 775 591 1075 516 
Q 1375 441 1709 441 
Q 2250 441 2565 725 
Q 2881 1009 2881 1497 
Q 2881 1984 2565 2268 
Q 2250 2553 1709 2553 
Q 1456 2553 1204 2497 
Q 953 2441 691 2322 
L 691 4666 
z
" id="DejaVuSans-35" transform="scale(0.015625)"/>
       </defs>
       <use xlink:href="#DejaVuSans-35"/>
       <use x="63.623047" xlink:href="#DejaVuSans-30"/>
      </g>
     </g>
    </g>
    <g id="xtick_3">
     <g id="line2d_3">
      <g>
       <use style="stroke:#000000;stroke-width:0.8;" x="154.386111" xlink:href="#m684397dd37" y="307.584"/>
      </g>
     </g>
     <g id="text_3">
      <!-- 100 -->
      <g transform="translate(144.842361 322.182437)scale(0.1 -0.1)">
       <defs>
        <path d="M 794 531 
L 1825 531 
L 1825 4091 
L 703 3866 
L 703 4441 
L 1819 4666 
L 2450 4666 
L 2450 531 
L 3481 531 
L 3481 0 
L 794 0 
L 794 531 
z
" id="DejaVuSans-31" transform="scale(0.015625)"/>
       </defs>
       <use xlink:href="#DejaVuSans-31"/>
       <use x="63.623047" xlink:href="#DejaVuSans-30"/>
       <use x="127.246094" xlink:href="#DejaVuSans-30"/>
      </g>
     </g>
    </g>
    <g id="xtick_4">
     <g id="line2d_4">
      <g>
       <use style="stroke:#000000;stroke-width:0.8;" x="195.069638" xlink:href="#m684397dd37" y="307.584"/>
      </g>
     </g>
     <g id="text_4">
      <!-- 150 -->
      <g transform="translate(185.525888 322.182437)scale(0.1 -0.1)">
       <use xlink:href="#DejaVuSans-31"/>
       <use x="63.623047" xlink:href="#DejaVuSans-35"/>
       <use x="127.246094" xlink:href="#DejaVuSans-30"/>
      </g>
     </g>
    </g>
    <g id="xtick_5">
     <g id="line2d_5">
      <g>
       <use style="stroke:#000000;stroke-width:0.8;" x="235.753165" xlink:href="#m684397dd37" y="307.584"/>
      </g>
     </g>
     <g id="text_5">
      <!-- 200 -->
      <g transform="translate(226.209415 322.182437)scale(0.1 -0.1)">
       <defs>
        <path d="M 1228 531 
L 3431 531 
L 3431 0 
L 469 0 
L 469 531 
Q 828 903 1448 1529 
Q 2069 2156 2228 2338 
Q 2531 2678 2651 2914 
Q 2772 3150 2772 3378 
Q 2772 3750 2511 3984 
Q 2250 4219 1831 4219 
Q 1534 4219 1204 4116 
Q 875 4013 500 3803 
L 500 4441 
Q 881 4594 1212 4672 
Q 1544 4750 1819 4750 
Q 2544 4750 2975 4387 
Q 3406 4025 3406 3419 
Q 3406 3131 3298 2873 
Q 3191 2616 2906 2266 
Q 2828 2175 2409 1742 
Q 1991 1309 1228 531 
z
" id="DejaVuSans-32" transform="scale(0.015625)"/>
       </defs>
       <use xlink:href="#DejaVuSans-32"/>
       <use x="63.623047" xlink:href="#DejaVuSans-30"/>
       <use x="127.246094" xlink:href="#DejaVuSans-30"/>
      </g>
     </g>
    </g>
    <g id="xtick_6">
     <g id="line2d_6">
      <g>
       <use style="stroke:#000000;stroke-width:0.8;" x="276.436692" xlink:href="#m684397dd37" y="307.584"/>
      </g>
     </g>
     <g id="text_6">
      <!-- 250 -->
      <g transform="translate(266.892942 322.182437)scale(0.1 -0.1)">
       <use xlink:href="#DejaVuSans-32"/>
       <use x="63.623047" xlink:href="#DejaVuSans-35"/>
       <use x="127.246094" xlink:href="#DejaVuSans-30"/>
      </g>
     </g>
    </g>
    <g id="xtick_7">
     <g id="line2d_7">
      <g>
       <use style="stroke:#000000;stroke-width:0.8;" x="317.120219" xlink:href="#m684397dd37" y="307.584"/>
      </g>
     </g>
     <g id="text_7">
      <!-- 300 -->
      <g transform="translate(307.576469 322.182437)scale(0.1 -0.1)">
       <defs>
        <path d="M 2597 2516 
Q 3050 2419 3304 2112 
Q 3559 1806 3559 1356 
Q 3559 666 3084 287 
Q 2609 -91 1734 -91 
Q 1441 -91 1130 -33 
Q 819 25 488 141 
L 488 750 
Q 750 597 1062 519 
Q 1375 441 1716 441 
Q 2309 441 2620 675 
Q 2931 909 2931 1356 
Q 2931 1769 2642 2001 
Q 2353 2234 1838 2234 
L 1294 2234 
L 1294 2753 
L 1863 2753 
Q 2328 2753 2575 2939 
Q 2822 3125 2822 3475 
Q 2822 3834 2567 4026 
Q 2313 4219 1838 4219 
Q 1578 4219 1281 4162 
Q 984 4106 628 3988 
L 628 4550 
Q 988 4650 1302 4700 
Q 1616 4750 1894 4750 
Q 2613 4750 3031 4423 
Q 3450 4097 3450 3541 
Q 3450 3153 3228 2886 
Q 3006 2619 2597 2516 
z
" id="DejaVuSans-33" transform="scale(0.015625)"/>
       </defs>
       <use xlink:href="#DejaVuSans-33"/>
       <use x="63.623047" xlink:href="#DejaVuSans-30"/>
       <use x="127.246094" xlink:href="#DejaVuSans-30"/>
      </g>
     </g>
    </g>
    <g id="xtick_8">
     <g id="line2d_8">
      <g>
       <use style="stroke:#000000;stroke-width:0.8;" x="357.803746" xlink:href="#m684397dd37" y="307.584"/>
      </g>
     </g>
     <g id="text_8">
      <!-- 350 -->
      <g transform="translate(348.259996 322.182437)scale(0.1 -0.1)">
       <use xlink:href="#DejaVuSans-33"/>
       <use x="63.623047" xlink:href="#DejaVuSans-35"/>
       <use x="127.246094" xlink:href="#DejaVuSans-30"/>
      </g>
     </g>
    </g>
    <g id="xtick_9">
     <g id="line2d_9">
      <g>
       <use style="stroke:#000000;stroke-width:0.8;" x="398.487273" xlink:href="#m684397dd37" y="307.584"/>
      </g>
     </g>
     <g id="text_9">
      <!-- 400 -->
      <g transform="translate(388.943523 322.182437)scale(0.1 -0.1)">
       <defs>
        <path d="M 2419 4116 
L 825 1625 
L 2419 1625 
L 2419 4116 
z
M 2253 4666 
L 3047 4666 
L 3047 1625 
L 3713 1625 
L 3713 1100 
L 3047 1100 
L 3047 0 
L 2419 0 
L 2419 1100 
L 313 1100 
L 313 1709 
L 2253 4666 
z
" id="DejaVuSans-34" transform="scale(0.015625)"/>
       </defs>
       <use xlink:href="#DejaVuSans-34"/>
       <use x="63.623047" xlink:href="#DejaVuSans-30"/>
       <use x="127.246094" xlink:href="#DejaVuSans-30"/>
      </g>
     </g>
    </g>
    <g id="text_10">
     <!-- Epoch -->
     <g transform="translate(213.193594 339.659781)scale(0.15 -0.15)">
      <defs>
       <path d="M 628 4666 
L 3578 4666 
L 3578 4134 
L 1259 4134 
L 1259 2753 
L 3481 2753 
L 3481 2222 
L 1259 2222 
L 1259 531 
L 3634 531 
L 3634 0 
L 628 0 
L 628 4666 
z
" id="DejaVuSans-45" transform="scale(0.015625)"/>
       <path d="M 1159 525 
L 1159 -1331 
L 581 -1331 
L 581 3500 
L 1159 3500 
L 1159 2969 
Q 1341 3281 1617 3432 
Q 1894 3584 2278 3584 
Q 2916 3584 3314 3078 
Q 3713 2572 3713 1747 
Q 3713 922 3314 415 
Q 2916 -91 2278 -91 
Q 1894 -91 1617 61 
Q 1341 213 1159 525 
z
M 3116 1747 
Q 3116 2381 2855 2742 
Q 2594 3103 2138 3103 
Q 1681 3103 1420 2742 
Q 1159 2381 1159 1747 
Q 1159 1113 1420 752 
Q 1681 391 2138 391 
Q 2594 391 2855 752 
Q 3116 1113 3116 1747 
z
" id="DejaVuSans-70" transform="scale(0.015625)"/>
       <path d="M 1959 3097 
Q 1497 3097 1228 2736 
Q 959 2375 959 1747 
Q 959 1119 1226 758 
Q 1494 397 1959 397 
Q 2419 397 2687 759 
Q 2956 1122 2956 1747 
Q 2956 2369 2687 2733 
Q 2419 3097 1959 3097 
z
M 1959 3584 
Q 2709 3584 3137 3096 
Q 3566 2609 3566 1747 
Q 3566 888 3137 398 
Q 2709 -91 1959 -91 
Q 1206 -91 779 398 
Q 353 888 353 1747 
Q 353 2609 779 3096 
Q 1206 3584 1959 3584 
z
" id="DejaVuSans-6f" transform="scale(0.015625)"/>
       <path d="M 3122 3366 
L 3122 2828 
Q 2878 2963 2633 3030 
Q 2388 3097 2138 3097 
Q 1578 3097 1268 2742 
Q 959 2388 959 1747 
Q 959 1106 1268 751 
Q 1578 397 2138 397 
Q 2388 397 2633 464 
Q 2878 531 3122 666 
L 3122 134 
Q 2881 22 2623 -34 
Q 2366 -91 2075 -91 
Q 1284 -91 818 406 
Q 353 903 353 1747 
Q 353 2603 823 3093 
Q 1294 3584 2113 3584 
Q 2378 3584 2631 3529 
Q 2884 3475 3122 3366 
z
" id="DejaVuSans-63" transform="scale(0.015625)"/>
       <path d="M 3513 2113 
L 3513 0 
L 2938 0 
L 2938 2094 
Q 2938 2591 2744 2837 
Q 2550 3084 2163 3084 
Q 1697 3084 1428 2787 
Q 1159 2491 1159 1978 
L 1159 0 
L 581 0 
L 581 4863 
L 1159 4863 
L 1159 2956 
Q 1366 3272 1645 3428 
Q 1925 3584 2291 3584 
Q 2894 3584 3203 3211 
Q 3513 2838 3513 2113 
z
" id="DejaVuSans-68" transform="scale(0.015625)"/>
      </defs>
      <use xlink:href="#DejaVuSans-45"/>
      <use x="63.183594" xlink:href="#DejaVuSans-70"/>
      <use x="126.660156" xlink:href="#DejaVuSans-6f"/>
      <use x="187.841797" xlink:href="#DejaVuSans-63"/>
      <use x="242.822266" xlink:href="#DejaVuSans-68"/>
     </g>
    </g>
   </g>
   <g id="matplotlib.axis_2">
    <g id="ytick_1">
     <g id="line2d_10">
      <defs>
       <path d="M 0 0 
L -3.5 0 
" id="m2f49ddee30" style="stroke:#000000;stroke-width:0.8;"/>
      </defs>
      <g>
       <use style="stroke:#000000;stroke-width:0.8;" x="57.6" xlink:href="#m2f49ddee30" y="293.20237"/>
      </g>
     </g>
     <g id="text_11">
      <!-- −1000 -->
      <g transform="translate(16.770313 297.001589)scale(0.1 -0.1)">
       <defs>
        <path d="M 678 2272 
L 4684 2272 
L 4684 1741 
L 678 1741 
L 678 2272 
z
" id="DejaVuSans-2212" transform="scale(0.015625)"/>
       </defs>
       <use xlink:href="#DejaVuSans-2212"/>
       <use x="83.789062" xlink:href="#DejaVuSans-31"/>
       <use x="147.412109" xlink:href="#DejaVuSans-30"/>
       <use x="211.035156" xlink:href="#DejaVuSans-30"/>
       <use x="274.658203" xlink:href="#DejaVuSans-30"/>
      </g>
     </g>
    </g>
    <g id="ytick_2">
     <g id="line2d_11">
      <g>
       <use style="stroke:#000000;stroke-width:0.8;" x="57.6" xlink:href="#m2f49ddee30" y="246.104536"/>
      </g>
     </g>
     <g id="text_12">
      <!-- −800 -->
      <g transform="translate(23.132812 249.903755)scale(0.1 -0.1)">
       <defs>
        <path d="M 2034 2216 
Q 1584 2216 1326 1975 
Q 1069 1734 1069 1313 
Q 1069 891 1326 650 
Q 1584 409 2034 409 
Q 2484 409 2743 651 
Q 3003 894 3003 1313 
Q 3003 1734 2745 1975 
Q 2488 2216 2034 2216 
z
M 1403 2484 
Q 997 2584 770 2862 
Q 544 3141 544 3541 
Q 544 4100 942 4425 
Q 1341 4750 2034 4750 
Q 2731 4750 3128 4425 
Q 3525 4100 3525 3541 
Q 3525 3141 3298 2862 
Q 3072 2584 2669 2484 
Q 3125 2378 3379 2068 
Q 3634 1759 3634 1313 
Q 3634 634 3220 271 
Q 2806 -91 2034 -91 
Q 1263 -91 848 271 
Q 434 634 434 1313 
Q 434 1759 690 2068 
Q 947 2378 1403 2484 
z
M 1172 3481 
Q 1172 3119 1398 2916 
Q 1625 2713 2034 2713 
Q 2441 2713 2670 2916 
Q 2900 3119 2900 3481 
Q 2900 3844 2670 4047 
Q 2441 4250 2034 4250 
Q 1625 4250 1398 4047 
Q 1172 3844 1172 3481 
z
" id="DejaVuSans-38" transform="scale(0.015625)"/>
       </defs>
       <use xlink:href="#DejaVuSans-2212"/>
       <use x="83.789062" xlink:href="#DejaVuSans-38"/>
       <use x="147.412109" xlink:href="#DejaVuSans-30"/>
       <use x="211.035156" xlink:href="#DejaVuSans-30"/>
      </g>
     </g>
    </g>
    <g id="ytick_3">
     <g id="line2d_12">
      <g>
       <use style="stroke:#000000;stroke-width:0.8;" x="57.6" xlink:href="#m2f49ddee30" y="199.006703"/>
      </g>
     </g>
     <g id="text_13">
      <!-- −600 -->
      <g transform="translate(23.132812 202.805922)scale(0.1 -0.1)">
       <defs>
        <path d="M 2113 2584 
Q 1688 2584 1439 2293 
Q 1191 2003 1191 1497 
Q 1191 994 1439 701 
Q 1688 409 2113 409 
Q 2538 409 2786 701 
Q 3034 994 3034 1497 
Q 3034 2003 2786 2293 
Q 2538 2584 2113 2584 
z
M 3366 4563 
L 3366 3988 
Q 3128 4100 2886 4159 
Q 2644 4219 2406 4219 
Q 1781 4219 1451 3797 
Q 1122 3375 1075 2522 
Q 1259 2794 1537 2939 
Q 1816 3084 2150 3084 
Q 2853 3084 3261 2657 
Q 3669 2231 3669 1497 
Q 3669 778 3244 343 
Q 2819 -91 2113 -91 
Q 1303 -91 875 529 
Q 447 1150 447 2328 
Q 447 3434 972 4092 
Q 1497 4750 2381 4750 
Q 2619 4750 2861 4703 
Q 3103 4656 3366 4563 
z
" id="DejaVuSans-36" transform="scale(0.015625)"/>
       </defs>
       <use xlink:href="#DejaVuSans-2212"/>
       <use x="83.789062" xlink:href="#DejaVuSans-36"/>
       <use x="147.412109" xlink:href="#DejaVuSans-30"/>
       <use x="211.035156" xlink:href="#DejaVuSans-30"/>
      </g>
     </g>
    </g>
    <g id="ytick_4">
     <g id="line2d_13">
      <g>
       <use style="stroke:#000000;stroke-width:0.8;" x="57.6" xlink:href="#m2f49ddee30" y="151.908869"/>
      </g>
     </g>
     <g id="text_14">
      <!-- −400 -->
      <g transform="translate(23.132812 155.708088)scale(0.1 -0.1)">
       <use xlink:href="#DejaVuSans-2212"/>
       <use x="83.789062" xlink:href="#DejaVuSans-34"/>
       <use x="147.412109" xlink:href="#DejaVuSans-30"/>
       <use x="211.035156" xlink:href="#DejaVuSans-30"/>
      </g>
     </g>
    </g>
    <g id="ytick_5">
     <g id="line2d_14">
      <g>
       <use style="stroke:#000000;stroke-width:0.8;" x="57.6" xlink:href="#m2f49ddee30" y="104.811035"/>
      </g>
     </g>
     <g id="text_15">
      <!-- −200 -->
      <g transform="translate(23.132812 108.610254)scale(0.1 -0.1)">
       <use xlink:href="#DejaVuSans-2212"/>
       <use x="83.789062" xlink:href="#DejaVuSans-32"/>
       <use x="147.412109" xlink:href="#DejaVuSans-30"/>
       <use x="211.035156" xlink:href="#DejaVuSans-30"/>
      </g>
     </g>
    </g>
    <g id="ytick_6">
     <g id="line2d_15">
      <g>
       <use style="stroke:#000000;stroke-width:0.8;" x="57.6" xlink:href="#m2f49ddee30" y="57.713202"/>
      </g>
     </g>
     <g id="text_16">
      <!-- 0 -->
      <g transform="translate(44.2375 61.512421)scale(0.1 -0.1)">
       <use xlink:href="#DejaVuSans-30"/>
      </g>
     </g>
    </g>
    <g id="text_17">
     <!-- Loss -->
     <g transform="translate(9.650781 190.978781)rotate(-90)scale(0.15 -0.15)">
      <defs>
       <path d="M 628 4666 
L 1259 4666 
L 1259 531 
L 3531 531 
L 3531 0 
L 628 0 
L 628 4666 
z
" id="DejaVuSans-4c" transform="scale(0.015625)"/>
       <path d="M 2834 3397 
L 2834 2853 
Q 2591 2978 2328 3040 
Q 2066 3103 1784 3103 
Q 1356 3103 1142 2972 
Q 928 2841 928 2578 
Q 928 2378 1081 2264 
Q 1234 2150 1697 2047 
L 1894 2003 
Q 2506 1872 2764 1633 
Q 3022 1394 3022 966 
Q 3022 478 2636 193 
Q 2250 -91 1575 -91 
Q 1294 -91 989 -36 
Q 684 19 347 128 
L 347 722 
Q 666 556 975 473 
Q 1284 391 1588 391 
Q 1994 391 2212 530 
Q 2431 669 2431 922 
Q 2431 1156 2273 1281 
Q 2116 1406 1581 1522 
L 1381 1569 
Q 847 1681 609 1914 
Q 372 2147 372 2553 
Q 372 3047 722 3315 
Q 1072 3584 1716 3584 
Q 2034 3584 2315 3537 
Q 2597 3491 2834 3397 
z
" id="DejaVuSans-73" transform="scale(0.015625)"/>
      </defs>
      <use xlink:href="#DejaVuSans-4c"/>
      <use x="53.962891" xlink:href="#DejaVuSans-6f"/>
      <use x="115.144531" xlink:href="#DejaVuSans-73"/>
      <use x="167.244141" xlink:href="#DejaVuSans-73"/>
     </g>
    </g>
   </g>
   <g id="line2d_16">
    <path clip-path="url(#paf5f366950)" d="M 73.832727 53.568 
L 74.646398 110.787471 
L 75.460068 133.718371 
L 76.273739 121.413528 
L 77.087409 140.511453 
L 77.90108 154.607059 
L 78.714751 155.029302 
L 79.528421 157.20032 
L 80.342092 164.275257 
L 81.155762 172.406544 
L 81.969433 159.57474 
L 82.783103 168.952256 
L 83.596774 175.312811 
L 84.410444 188.920068 
L 85.224115 184.127853 
L 86.037785 195.178155 
L 86.851456 189.488693 
L 88.478797 205.047341 
L 89.292468 198.371163 
L 90.106138 208.268352 
L 90.919809 214.114614 
L 91.733479 202.947145 
L 92.54715 204.496584 
L 93.36082 212.294998 
L 94.174491 169.369752 
L 94.988161 194.49471 
L 96.615502 213.947729 
L 97.429173 213.841454 
L 98.242843 210.66278 
L 99.056514 220.55965 
L 99.870185 214.433195 
L 100.683855 222.372457 
L 101.497526 221.440118 
L 102.311196 219.263783 
L 103.124867 229.135225 
L 103.938537 214.407631 
L 104.752208 225.327433 
L 105.565878 222.820334 
L 106.379549 222.806257 
L 107.193219 228.921981 
L 108.00689 223.260214 
L 108.82056 235.427439 
L 109.634231 233.397739 
L 110.447902 232.400219 
L 111.261572 230.762603 
L 112.075243 238.231514 
L 112.888913 229.6868 
L 113.702584 248.086778 
L 114.516254 242.103696 
L 116.143595 224.749314 
L 116.957266 250.604095 
L 117.770936 241.971419 
L 118.584607 235.159338 
L 119.398278 235.158107 
L 120.211948 247.861506 
L 121.025619 245.063928 
L 121.839289 248.146971 
L 122.65296 246.376424 
L 123.46663 240.267696 
L 124.280301 242.571445 
L 125.093971 236.432448 
L 125.907642 243.228681 
L 126.721312 239.000767 
L 127.534983 241.374662 
L 128.348653 247.716807 
L 129.162324 244.505598 
L 129.975995 252.960061 
L 130.789665 243.137136 
L 131.603336 247.920427 
L 132.417006 238.316024 
L 133.230677 246.574991 
L 134.044347 245.449857 
L 134.858018 258.636869 
L 135.671688 250.264995 
L 136.485359 257.574639 
L 137.299029 246.634411 
L 138.1127 257.248596 
L 139.740041 245.107319 
L 140.553712 245.726678 
L 141.367382 254.012451 
L 142.181053 250.982953 
L 142.994723 255.43325 
L 143.808394 244.714936 
L 144.622064 256.543856 
L 145.435735 254.132567 
L 147.063076 258.869536 
L 147.876746 266.843763 
L 148.690417 257.329923 
L 149.504087 257.427319 
L 150.317758 254.69789 
L 151.131429 263.197869 
L 151.945099 260.697048 
L 152.75877 264.961123 
L 153.57244 252.076414 
L 154.386111 258.316346 
L 155.199781 249.281736 
L 156.013452 254.558862 
L 156.827122 263.842619 
L 157.640793 262.899018 
L 158.454463 254.769352 
L 159.268134 262.493315 
L 160.081805 264.527537 
L 160.895475 258.945084 
L 161.709146 261.229293 
L 162.522816 249.369217 
L 163.336487 267.698841 
L 164.150157 272.724676 
L 164.963828 268.259496 
L 165.777498 266.184291 
L 166.591169 256.902315 
L 167.404839 250.139721 
L 168.21851 261.530348 
L 169.03218 259.635075 
L 169.845851 258.992013 
L 170.659522 272.198975 
L 171.473192 257.097436 
L 172.286863 256.279322 
L 173.100533 253.304913 
L 173.914204 263.868387 
L 174.727874 268.201447 
L 175.541545 264.371999 
L 176.355215 245.941969 
L 177.168886 260.045819 
L 177.982556 261.811676 
L 178.796227 254.502072 
L 179.609897 263.822585 
L 180.423568 261.546113 
L 181.237239 260.635297 
L 182.050909 275.039541 
L 182.86458 263.599448 
L 183.67825 255.072995 
L 184.491921 252.832866 
L 185.305591 271.400855 
L 186.119262 266.299375 
L 186.932932 262.804655 
L 187.746603 256.205676 
L 188.560273 267.097702 
L 189.373944 261.454802 
L 190.187614 262.429139 
L 191.001285 258.88713 
L 192.628626 266.392153 
L 193.442297 265.889717 
L 194.255967 267.705359 
L 195.069638 263.256191 
L 195.883308 282.135025 
L 196.696979 271.172559 
L 197.510649 268.81513 
L 198.32432 275.968113 
L 199.13799 276.084688 
L 199.951661 264.674274 
L 200.765332 269.312092 
L 201.579002 262.174757 
L 202.392673 266.429602 
L 203.206343 256.175595 
L 204.020014 253.979281 
L 204.833684 267.095605 
L 205.647355 266.11769 
L 206.461025 266.356798 
L 207.274696 266.463003 
L 208.088366 268.398028 
L 208.902037 259.572454 
L 209.715707 270.656843 
L 210.529378 259.936572 
L 211.343049 259.716814 
L 212.156719 269.489615 
L 212.97039 274.491291 
L 213.78406 273.803305 
L 214.597731 267.991307 
L 215.411401 272.566216 
L 216.225072 261.299792 
L 217.038742 266.255532 
L 217.852413 274.396799 
L 218.666083 261.71492 
L 219.479754 260.193601 
L 220.293424 266.186057 
L 221.107095 269.121698 
L 221.920766 257.302383 
L 222.734436 272.661571 
L 223.548107 273.624649 
L 224.361777 271.254472 
L 225.175448 270.612685 
L 225.989118 272.423116 
L 226.802789 278.89067 
L 227.616459 271.869305 
L 228.43013 275.21797 
L 229.2438 272.127919 
L 230.057471 267.847151 
L 230.871141 265.428206 
L 231.684812 264.322356 
L 232.498483 276.009787 
L 233.312153 264.461826 
L 234.125824 278.096893 
L 234.939494 269.662756 
L 235.753165 284.45314 
L 236.566835 279.654102 
L 237.380506 266.898478 
L 238.194176 275.420921 
L 239.007847 272.622614 
L 239.821517 281.264211 
L 240.635188 265.121672 
L 241.448859 276.967751 
L 242.262529 276.352102 
L 243.0762 270.578559 
L 243.88987 265.892864 
L 244.703541 272.013679 
L 245.517211 267.4242 
L 246.330882 272.800806 
L 247.144552 267.328931 
L 247.958223 279.389208 
L 248.771893 276.554947 
L 249.585564 269.785735 
L 250.399234 265.357057 
L 251.212905 268.571107 
L 252.026576 269.363828 
L 252.840246 273.394572 
L 253.653917 265.889596 
L 254.467587 271.790979 
L 255.281258 274.120739 
L 256.094928 278.666717 
L 256.908599 265.22993 
L 257.722269 278.458361 
L 258.53594 270.305102 
L 259.34961 274.814742 
L 260.163281 277.362217 
L 260.976951 264.982046 
L 261.790622 276.426034 
L 262.604293 264.898081 
L 263.417963 275.504878 
L 264.231634 273.550464 
L 265.045304 264.735252 
L 265.858975 267.76873 
L 266.672645 277.076267 
L 267.486316 271.929109 
L 268.299986 270.1723 
L 269.113657 272.09019 
L 269.927327 277.028621 
L 270.740998 265.384026 
L 271.554668 284.674053 
L 272.368339 285.921038 
L 273.99568 264.223561 
L 274.809351 269.374427 
L 275.623021 281.097292 
L 277.250362 263.933506 
L 278.064033 273.949915 
L 278.877703 278.031924 
L 279.691374 285.922992 
L 280.505044 270.991681 
L 281.318715 271.514462 
L 282.132386 270.829696 
L 282.946056 273.537294 
L 283.759727 261.812765 
L 285.387068 282.542274 
L 286.200738 278.564711 
L 287.014409 283.938413 
L 287.828079 269.469328 
L 288.64175 278.419318 
L 289.45542 265.738742 
L 290.269091 274.199064 
L 291.082761 280.886436 
L 291.896432 269.593846 
L 292.710103 281.566527 
L 293.523773 276.604358 
L 294.337444 275.057089 
L 295.151114 274.2616 
L 295.964785 280.533214 
L 296.778455 288.235694 
L 297.592126 290.775952 
L 298.405796 269.288884 
L 299.219467 286.16566 
L 300.033137 273.276491 
L 300.846808 280.485599 
L 301.660478 280.451084 
L 302.474149 266.593714 
L 303.28782 290.806248 
L 304.10149 280.782581 
L 304.915161 279.554911 
L 305.728831 261.328322 
L 306.542502 279.524814 
L 307.356172 272.814303 
L 308.169843 271.774408 
L 308.983513 284.095757 
L 309.797184 282.543459 
L 310.610854 277.458817 
L 311.424525 279.613419 
L 312.238195 275.133449 
L 313.051866 272.115989 
L 313.865537 275.709114 
L 314.679207 283.111679 
L 315.492878 275.968924 
L 316.306548 277.076136 
L 317.120219 279.780258 
L 317.933889 288.622121 
L 318.74756 268.380024 
L 320.374901 281.581482 
L 321.188571 278.746 
L 322.002242 277.746841 
L 322.815913 278.977817 
L 323.629583 278.250232 
L 324.443254 274.719537 
L 325.256924 279.511599 
L 326.070595 283.252152 
L 326.884265 285.250296 
L 327.697936 279.425784 
L 328.511606 279.535723 
L 329.325277 292.286007 
L 330.138947 275.085933 
L 330.952618 286.135809 
L 331.766288 278.312042 
L 332.579959 285.713622 
L 333.39363 278.400491 
L 334.2073 287.282986 
L 335.020971 276.61491 
L 336.648312 282.672203 
L 337.461982 283.814529 
L 338.275653 278.149612 
L 339.089323 275.881478 
L 339.902994 282.186028 
L 340.716664 279.330452 
L 341.530335 283.04387 
L 342.344005 279.610327 
L 343.157676 280.538255 
L 343.971347 289.922492 
L 344.785017 279.525279 
L 345.598688 271.617566 
L 346.412358 292.260426 
L 347.226029 283.313722 
L 348.039699 278.896115 
L 348.85337 281.262457 
L 349.66704 275.427875 
L 350.480711 281.492558 
L 351.294381 276.942348 
L 352.921722 284.314578 
L 353.735393 282.197387 
L 354.549064 290.443905 
L 355.362734 286.938612 
L 356.176405 285.72718 
L 356.990075 287.260031 
L 357.803746 287.542217 
L 358.617416 276.923549 
L 359.431087 276.813123 
L 360.244757 285.471711 
L 361.058428 292.297767 
L 361.872098 281.006512 
L 362.685769 274.853486 
L 363.49944 273.424744 
L 364.31311 286.691907 
L 365.126781 280.154407 
L 365.940451 280.078689 
L 366.754122 285.756197 
L 367.567792 279.545508 
L 368.381463 274.805937 
L 369.195133 272.18011 
L 370.008804 288.40186 
L 370.822474 293.523419 
L 371.636145 291.401633 
L 372.449815 280.933546 
L 373.263486 274.554397 
L 374.077157 285.840946 
L 374.890827 281.426372 
L 375.704498 273.602208 
L 376.518168 288.306786 
L 377.331839 285.353915 
L 378.145509 284.387937 
L 378.95918 284.664196 
L 379.77285 287.149284 
L 380.586521 291.693682 
L 381.400191 290.011154 
L 382.213862 289.160954 
L 383.027532 278.952881 
L 383.841203 277.816688 
L 384.654874 286.856257 
L 385.468544 283.147227 
L 386.282215 293.474204 
L 387.909556 271.243738 
L 388.723226 285.845877 
L 389.536897 295.488 
L 390.350567 282.394045 
L 391.164238 286.72377 
L 391.977908 288.476473 
L 392.791579 293.0725 
L 393.605249 289.544334 
L 394.41892 292.630305 
L 395.232591 285.187548 
L 396.046261 287.601053 
L 396.859932 275.68489 
L 397.673602 262.002502 
L 398.487273 281.518746 
L 398.487273 281.518746 
" style="fill:none;stroke:#1f77b4;stroke-linecap:square;stroke-width:1.5;"/>
   </g>
   <g id="line2d_17">
    <path clip-path="url(#paf5f366950)" d="M 73.832727 90.050923 
L 74.646398 111.362917 
L 75.460068 149.445287 
L 76.273739 138.450839 
L 77.087409 150.490946 
L 77.90108 159.266268 
L 78.714751 157.20557 
L 79.528421 149.921043 
L 80.342092 172.852946 
L 81.155762 168.112734 
L 82.783103 188.800193 
L 83.596774 188.135043 
L 84.410444 189.428518 
L 85.224115 194.069379 
L 86.037785 193.045377 
L 86.851456 195.229484 
L 87.665126 198.744786 
L 89.292468 207.875283 
L 90.106138 210.57757 
L 90.919809 209.201306 
L 91.733479 205.855469 
L 92.54715 212.693161 
L 93.36082 215.457685 
L 94.174491 171.462957 
L 94.988161 204.18086 
L 95.801832 211.98514 
L 96.615502 213.680849 
L 97.429173 212.560728 
L 98.242843 216.098428 
L 99.056514 219.033856 
L 99.870185 227.766082 
L 100.683855 216.458146 
L 101.497526 172.290375 
L 102.311196 223.171177 
L 103.124867 232.092238 
L 103.938537 228.584859 
L 104.752208 223.218094 
L 105.565878 222.395201 
L 106.379549 232.522376 
L 107.193219 235.494362 
L 108.00689 236.326243 
L 108.82056 231.686257 
L 109.634231 238.377285 
L 111.261572 228.874656 
L 112.075243 228.038493 
L 113.702584 249.51733 
L 114.516254 234.977436 
L 115.329925 243.263901 
L 116.143595 234.999388 
L 116.957266 235.973927 
L 117.770936 243.560908 
L 118.584607 230.579945 
L 119.398278 246.407606 
L 120.211948 241.83141 
L 121.025619 239.337251 
L 121.839289 248.824876 
L 122.65296 247.450736 
L 124.280301 241.546541 
L 125.093971 249.869855 
L 125.907642 211.132263 
L 126.721312 240.39194 
L 127.534983 241.344124 
L 128.348653 244.154895 
L 129.162324 252.096648 
L 129.975995 239.11583 
L 130.789665 253.671373 
L 131.603336 248.637468 
L 132.417006 254.522743 
L 133.230677 245.00104 
L 134.044347 255.468335 
L 134.858018 256.886786 
L 135.671688 263.003767 
L 136.485359 251.772828 
L 137.299029 251.225479 
L 138.1127 260.870066 
L 139.740041 243.384926 
L 140.553712 257.494409 
L 141.367382 259.569173 
L 142.181053 252.109892 
L 142.994723 249.825207 
L 143.808394 250.849459 
L 144.622064 257.427612 
L 145.435735 253.425106 
L 146.249405 258.020633 
L 147.063076 250.709198 
L 147.876746 254.923793 
L 148.690417 257.941506 
L 149.504087 261.535572 
L 150.317758 254.211534 
L 151.945099 263.319995 
L 152.75877 260.176411 
L 153.57244 259.0595 
L 154.386111 253.511851 
L 155.199781 258.500683 
L 156.013452 255.86299 
L 156.827122 257.599184 
L 157.640793 261.729554 
L 158.454463 259.537484 
L 159.268134 260.486802 
L 160.081805 257.971235 
L 160.895475 258.123259 
L 161.709146 264.068682 
L 162.522816 259.448963 
L 163.336487 256.457488 
L 164.150157 249.612121 
L 164.963828 258.33351 
L 165.777498 258.835692 
L 166.591169 235.196664 
L 167.404839 260.736457 
L 168.21851 260.399398 
L 169.03218 258.324436 
L 169.845851 265.904142 
L 170.659522 260.206611 
L 171.473192 263.924956 
L 172.286863 261.381362 
L 173.100533 266.118798 
L 173.914204 261.085578 
L 174.727874 255.269124 
L 175.541545 258.651607 
L 176.355215 257.068777 
L 177.168886 258.77638 
L 177.982556 258.841968 
L 178.796227 240.70851 
L 179.609897 262.398284 
L 180.423568 266.340917 
L 181.237239 263.113369 
L 182.050909 264.175088 
L 182.86458 267.630146 
L 183.67825 267.857543 
L 184.491921 269.818567 
L 185.305591 260.77215 
L 186.119262 263.286888 
L 186.932932 259.919533 
L 187.746603 265.312443 
L 188.560273 263.271397 
L 189.373944 258.907324 
L 190.187614 256.528284 
L 191.001285 262.829319 
L 191.814956 261.476692 
L 192.628626 246.992206 
L 193.442297 264.835806 
L 194.255967 257.05128 
L 195.069638 264.20973 
L 195.883308 267.703719 
L 196.696979 263.354539 
L 198.32432 263.869992 
L 199.13799 276.850246 
L 199.951661 266.320138 
L 200.765332 271.016616 
L 201.579002 260.2861 
L 202.392673 257.404104 
L 203.206343 264.91826 
L 204.020014 264.608996 
L 205.647355 270.443462 
L 206.461025 272.596661 
L 207.274696 267.748683 
L 208.088366 256.776862 
L 208.902037 263.681811 
L 209.715707 267.685208 
L 210.529378 268.866242 
L 211.343049 273.511238 
L 212.156719 271.336338 
L 212.97039 272.297853 
L 213.78406 262.912939 
L 214.597731 272.728481 
L 215.411401 265.902029 
L 216.225072 266.712518 
L 217.038742 264.597505 
L 217.852413 266.029886 
L 218.666083 259.720423 
L 220.293424 266.998318 
L 221.107095 262.716622 
L 221.920766 270.734191 
L 222.734436 263.280347 
L 223.548107 268.069919 
L 224.361777 268.311733 
L 225.175448 251.255251 
L 225.989118 270.136637 
L 226.802789 270.325132 
L 227.616459 268.862035 
L 229.2438 273.017479 
L 230.057471 254.905274 
L 230.871141 267.399913 
L 231.684812 268.527151 
L 232.498483 276.671356 
L 233.312153 261.751361 
L 234.125824 265.968331 
L 234.939494 269.099797 
L 235.753165 273.768313 
L 236.566835 268.315949 
L 237.380506 266.536464 
L 238.194176 260.069019 
L 239.007847 275.912036 
L 239.821517 274.105785 
L 240.635188 264.915059 
L 241.448859 274.853655 
L 242.262529 269.835803 
L 243.0762 271.144995 
L 243.88987 273.216937 
L 244.703541 272.143427 
L 245.517211 259.819655 
L 246.330882 265.268767 
L 247.144552 274.11155 
L 247.958223 272.553825 
L 248.771893 272.064699 
L 249.585564 269.574277 
L 250.399234 264.908178 
L 251.212905 272.158592 
L 252.026576 271.909395 
L 252.840246 265.391745 
L 253.653917 274.797432 
L 254.467587 268.678675 
L 255.281258 272.040573 
L 256.094928 278.550783 
L 256.908599 271.864072 
L 257.722269 273.185535 
L 258.53594 264.927035 
L 259.34961 268.36386 
L 260.163281 278.19282 
L 260.976951 273.5928 
L 261.790622 272.869303 
L 262.604293 266.565204 
L 263.417963 262.881175 
L 264.231634 274.590884 
L 265.045304 275.595208 
L 265.858975 272.448068 
L 267.486316 281.305091 
L 268.299986 275.248742 
L 269.113657 273.128141 
L 269.927327 273.317167 
L 270.740998 275.585633 
L 271.554668 269.873231 
L 272.368339 270.194734 
L 273.18201 273.475035 
L 273.99568 274.603253 
L 274.809351 269.567691 
L 275.623021 275.060636 
L 276.436692 275.417777 
L 277.250362 273.074225 
L 278.064033 276.091817 
L 278.877703 277.136024 
L 279.691374 282.408801 
L 280.505044 267.415449 
L 281.318715 266.126648 
L 282.132386 275.672227 
L 282.946056 264.384738 
L 283.759727 259.358209 
L 284.573397 276.999236 
L 285.387068 271.417794 
L 286.200738 278.487405 
L 287.014409 274.397615 
L 287.828079 278.201585 
L 288.64175 275.757384 
L 289.45542 267.448887 
L 290.269091 263.472744 
L 291.082761 272.348928 
L 291.896432 277.25016 
L 292.710103 284.41872 
L 293.523773 273.692897 
L 294.337444 267.786359 
L 295.151114 278.648129 
L 295.964785 277.284313 
L 297.592126 272.009372 
L 298.405796 278.51864 
L 299.219467 274.040302 
L 300.033137 274.206091 
L 300.846808 277.149056 
L 301.660478 275.207293 
L 302.474149 274.840857 
L 303.28782 278.201586 
L 304.10149 284.550406 
L 304.915161 273.008536 
L 305.728831 268.103331 
L 306.542502 268.910123 
L 307.356172 277.086245 
L 308.169843 275.484859 
L 308.983513 280.810628 
L 309.797184 277.851423 
L 310.610854 272.705701 
L 312.238195 275.995119 
L 313.051866 273.376086 
L 313.865537 280.441394 
L 314.679207 281.429913 
L 315.492878 265.405768 
L 316.306548 270.321724 
L 317.120219 278.588069 
L 317.933889 276.71688 
L 318.74756 282.859282 
L 319.56123 276.923942 
L 320.374901 273.214929 
L 321.188571 276.600331 
L 322.002242 271.552968 
L 322.815913 283.050334 
L 323.629583 279.989073 
L 324.443254 269.035861 
L 325.256924 269.898749 
L 326.070595 277.291341 
L 326.884265 280.222252 
L 327.697936 270.32549 
L 328.511606 278.806107 
L 329.325277 277.90741 
L 330.138947 270.500098 
L 330.952618 272.548747 
L 331.766288 273.950157 
L 332.579959 267.136651 
L 333.39363 280.884104 
L 334.2073 270.435733 
L 335.020971 273.384718 
L 335.834641 281.807574 
L 336.648312 275.115076 
L 337.461982 273.179779 
L 338.275653 281.085029 
L 339.089323 274.043922 
L 339.902994 279.824681 
L 340.716664 278.666734 
L 341.530335 284.354935 
L 343.157676 275.463102 
L 343.971347 279.868129 
L 344.785017 274.798767 
L 345.598688 278.269539 
L 346.412358 280.243979 
L 347.226029 277.34576 
L 348.039699 280.502967 
L 348.85337 280.042375 
L 349.66704 273.788004 
L 350.480711 276.547762 
L 351.294381 281.941885 
L 352.108052 276.100262 
L 352.921722 271.12371 
L 353.735393 276.358624 
L 354.549064 277.303201 
L 355.362734 274.186538 
L 356.176405 272.705264 
L 356.990075 275.240594 
L 357.803746 279.518656 
L 358.617416 274.200346 
L 359.431087 276.1298 
L 360.244757 282.168569 
L 361.058428 267.019697 
L 361.872098 282.197997 
L 362.685769 283.170959 
L 363.49944 291.108365 
L 364.31311 277.256765 
L 365.126781 274.363784 
L 365.940451 286.432807 
L 366.754122 270.281635 
L 367.567792 280.852225 
L 368.381463 275.755856 
L 369.195133 277.203801 
L 370.008804 274.428633 
L 370.822474 278.89157 
L 372.449815 281.186041 
L 373.263486 277.496514 
L 374.077157 269.046217 
L 375.704498 285.951856 
L 376.518168 281.146642 
L 377.331839 285.756149 
L 378.145509 279.063782 
L 378.95918 277.159276 
L 379.77285 283.8448 
L 380.586521 273.388609 
L 381.400191 279.07928 
L 382.213862 274.193143 
L 383.027532 279.063262 
L 383.841203 286.335046 
L 384.654874 285.051247 
L 385.468544 277.305021 
L 386.282215 280.878049 
L 387.095885 278.805221 
L 387.909556 288.853781 
L 388.723226 282.758233 
L 389.536897 283.672438 
L 390.350567 277.005611 
L 391.164238 281.676763 
L 393.605249 275.256739 
L 394.41892 283.110759 
L 395.232591 275.1746 
L 396.046261 276.07247 
L 396.859932 280.954141 
L 397.673602 275.87522 
L 398.487273 282.922964 
L 398.487273 282.922964 
" style="fill:none;stroke:#ff7f0e;stroke-linecap:square;stroke-width:1.5;"/>
   </g>
   <g id="patch_3">
    <path d="M 57.6 307.584 
L 57.6 41.472 
" style="fill:none;stroke:#000000;stroke-linecap:square;stroke-linejoin:miter;stroke-width:0.8;"/>
   </g>
   <g id="patch_4">
    <path d="M 414.72 307.584 
L 414.72 41.472 
" style="fill:none;stroke:#000000;stroke-linecap:square;stroke-linejoin:miter;stroke-width:0.8;"/>
   </g>
   <g id="patch_5">
    <path d="M 57.6 307.584 
L 414.72 307.584 
" style="fill:none;stroke:#000000;stroke-linecap:square;stroke-linejoin:miter;stroke-width:0.8;"/>
   </g>
   <g id="patch_6">
    <path d="M 57.6 41.472 
L 414.72 41.472 
" style="fill:none;stroke:#000000;stroke-linecap:square;stroke-linejoin:miter;stroke-width:0.8;"/>
   </g>
   <g id="legend_1">
    <g id="patch_7">
     <path d="M 303.845 78.82825 
L 407.72 78.82825 
Q 409.72 78.82825 409.72 76.82825 
L 409.72 48.472 
Q 409.72 46.472 407.72 46.472 
L 303.845 46.472 
Q 301.845 46.472 301.845 48.472 
L 301.845 76.82825 
Q 301.845 78.82825 303.845 78.82825 
z
" style="fill:#ffffff;opacity:0.8;stroke:#cccccc;stroke-linejoin:miter;"/>
    </g>
    <g id="line2d_18">
     <path d="M 305.845 54.570437 
L 325.845 54.570437 
" style="fill:none;stroke:#1f77b4;stroke-linecap:square;stroke-width:1.5;"/>
    </g>
    <g id="line2d_19"/>
    <g id="text_18">
     <!-- Train loss -->
     <g transform="translate(333.845 58.070437)scale(0.1 -0.1)">
      <defs>
       <path d="M -19 4666 
L 3928 4666 
L 3928 4134 
L 2272 4134 
L 2272 0 
L 1638 0 
L 1638 4134 
L -19 4134 
L -19 4666 
z
" id="DejaVuSans-54" transform="scale(0.015625)"/>
       <path d="M 2631 2963 
Q 2534 3019 2420 3045 
Q 2306 3072 2169 3072 
Q 1681 3072 1420 2755 
Q 1159 2438 1159 1844 
L 1159 0 
L 581 0 
L 581 3500 
L 1159 3500 
L 1159 2956 
Q 1341 3275 1631 3429 
Q 1922 3584 2338 3584 
Q 2397 3584 2469 3576 
Q 2541 3569 2628 3553 
L 2631 2963 
z
" id="DejaVuSans-72" transform="scale(0.015625)"/>
       <path d="M 2194 1759 
Q 1497 1759 1228 1600 
Q 959 1441 959 1056 
Q 959 750 1161 570 
Q 1363 391 1709 391 
Q 2188 391 2477 730 
Q 2766 1069 2766 1631 
L 2766 1759 
L 2194 1759 
z
M 3341 1997 
L 3341 0 
L 2766 0 
L 2766 531 
Q 2569 213 2275 61 
Q 1981 -91 1556 -91 
Q 1019 -91 701 211 
Q 384 513 384 1019 
Q 384 1609 779 1909 
Q 1175 2209 1959 2209 
L 2766 2209 
L 2766 2266 
Q 2766 2663 2505 2880 
Q 2244 3097 1772 3097 
Q 1472 3097 1187 3025 
Q 903 2953 641 2809 
L 641 3341 
Q 956 3463 1253 3523 
Q 1550 3584 1831 3584 
Q 2591 3584 2966 3190 
Q 3341 2797 3341 1997 
z
" id="DejaVuSans-61" transform="scale(0.015625)"/>
       <path d="M 603 3500 
L 1178 3500 
L 1178 0 
L 603 0 
L 603 3500 
z
M 603 4863 
L 1178 4863 
L 1178 4134 
L 603 4134 
L 603 4863 
z
" id="DejaVuSans-69" transform="scale(0.015625)"/>
       <path d="M 3513 2113 
L 3513 0 
L 2938 0 
L 2938 2094 
Q 2938 2591 2744 2837 
Q 2550 3084 2163 3084 
Q 1697 3084 1428 2787 
Q 1159 2491 1159 1978 
L 1159 0 
L 581 0 
L 581 3500 
L 1159 3500 
L 1159 2956 
Q 1366 3272 1645 3428 
Q 1925 3584 2291 3584 
Q 2894 3584 3203 3211 
Q 3513 2838 3513 2113 
z
" id="DejaVuSans-6e" transform="scale(0.015625)"/>
       <path id="DejaVuSans-20" transform="scale(0.015625)"/>
       <path d="M 603 4863 
L 1178 4863 
L 1178 0 
L 603 0 
L 603 4863 
z
" id="DejaVuSans-6c" transform="scale(0.015625)"/>
      </defs>
      <use xlink:href="#DejaVuSans-54"/>
      <use x="46.333984" xlink:href="#DejaVuSans-72"/>
      <use x="87.447266" xlink:href="#DejaVuSans-61"/>
      <use x="148.726562" xlink:href="#DejaVuSans-69"/>
      <use x="176.509766" xlink:href="#DejaVuSans-6e"/>
      <use x="239.888672" xlink:href="#DejaVuSans-20"/>
      <use x="271.675781" xlink:href="#DejaVuSans-6c"/>
      <use x="299.458984" xlink:href="#DejaVuSans-6f"/>
      <use x="360.640625" xlink:href="#DejaVuSans-73"/>
      <use x="412.740234" xlink:href="#DejaVuSans-73"/>
     </g>
    </g>
    <g id="line2d_20">
     <path d="M 305.845 69.248562 
L 325.845 69.248562 
" style="fill:none;stroke:#ff7f0e;stroke-linecap:square;stroke-width:1.5;"/>
    </g>
    <g id="line2d_21"/>
    <g id="text_19">
     <!-- Validation loss -->
     <g transform="translate(333.845 72.748562)scale(0.1 -0.1)">
      <defs>
       <path d="M 1831 0 
L 50 4666 
L 709 4666 
L 2188 738 
L 3669 4666 
L 4325 4666 
L 2547 0 
L 1831 0 
z
" id="DejaVuSans-56" transform="scale(0.015625)"/>
       <path d="M 2906 2969 
L 2906 4863 
L 3481 4863 
L 3481 0 
L 2906 0 
L 2906 525 
Q 2725 213 2448 61 
Q 2172 -91 1784 -91 
Q 1150 -91 751 415 
Q 353 922 353 1747 
Q 353 2572 751 3078 
Q 1150 3584 1784 3584 
Q 2172 3584 2448 3432 
Q 2725 3281 2906 2969 
z
M 947 1747 
Q 947 1113 1208 752 
Q 1469 391 1925 391 
Q 2381 391 2643 752 
Q 2906 1113 2906 1747 
Q 2906 2381 2643 2742 
Q 2381 3103 1925 3103 
Q 1469 3103 1208 2742 
Q 947 2381 947 1747 
z
" id="DejaVuSans-64" transform="scale(0.015625)"/>
       <path d="M 1172 4494 
L 1172 3500 
L 2356 3500 
L 2356 3053 
L 1172 3053 
L 1172 1153 
Q 1172 725 1289 603 
Q 1406 481 1766 481 
L 2356 481 
L 2356 0 
L 1766 0 
Q 1100 0 847 248 
Q 594 497 594 1153 
L 594 3053 
L 172 3053 
L 172 3500 
L 594 3500 
L 594 4494 
L 1172 4494 
z
" id="DejaVuSans-74" transform="scale(0.015625)"/>
      </defs>
      <use xlink:href="#DejaVuSans-56"/>
      <use x="60.658203" xlink:href="#DejaVuSans-61"/>
      <use x="121.9375" xlink:href="#DejaVuSans-6c"/>
      <use x="149.720703" xlink:href="#DejaVuSans-69"/>
      <use x="177.503906" xlink:href="#DejaVuSans-64"/>
      <use x="240.980469" xlink:href="#DejaVuSans-61"/>
      <use x="302.259766" xlink:href="#DejaVuSans-74"/>
      <use x="341.46875" xlink:href="#DejaVuSans-69"/>
      <use x="369.251953" xlink:href="#DejaVuSans-6f"/>
      <use x="430.433594" xlink:href="#DejaVuSans-6e"/>
      <use x="493.8125" xlink:href="#DejaVuSans-20"/>
      <use x="525.599609" xlink:href="#DejaVuSans-6c"/>
      <use x="553.382812" xlink:href="#DejaVuSans-6f"/>
      <use x="614.564453" xlink:href="#DejaVuSans-73"/>
      <use x="666.664062" xlink:href="#DejaVuSans-73"/>
     </g>
    </g>
   </g>
  </g>
 </g>
 <defs>
  <clipPath id="paf5f366950">
   <rect height="266.112" width="357.12" x="57.6" y="41.472"/>
  </clipPath>
 </defs>
</svg>
