<?xml version="1.0" encoding="utf-8" standalone="no"?>
<!DOCTYPE svg PUBLIC "-//W3C//DTD SVG 1.1//EN"
  "http://www.w3.org/Graphics/SVG/1.1/DTD/svg11.dtd">
<svg height="345.6pt" version="1.1" viewBox="0 0 460.8 345.6" width="460.8pt" xmlns="http://www.w3.org/2000/svg" xmlns:xlink="http://www.w3.org/1999/xlink">
 <metadata>
  <rdf:RDF xmlns:cc="http://creativecommons.org/ns#" xmlns:dc="http://purl.org/dc/elements/1.1/" xmlns:rdf="http://www.w3.org/1999/02/22-rdf-syntax-ns#">
   <cc:Work>
    <dc:type rdf:resource="http://purl.org/dc/dcmitype/StillImage"/>
    <dc:date>2021-08-10T12:31:38.702864</dc:date>
    <dc:format>image/svg+xml</dc:format>
    <dc:creator>
     <cc:Agent>
      <dc:title>Matplotlib v3.4.2, https://matplotlib.org/</dc:title>
     </cc:Agent>
    </dc:creator>
   </cc:Work>
  </rdf:RDF>
 </metadata>
 <defs>
  <style type="text/css">*{stroke-linecap:butt;stroke-linejoin:round;}</style>
 </defs>
 <g id="figure_1">
  <g id="patch_1">
   <path d="M 0 345.6 
L 460.8 345.6 
L 460.8 0 
L 0 0 
z
" style="fill:#ffffff;"/>
  </g>
  <g id="axes_1">
   <g id="patch_2">
    <path d="M 57.6 307.584 
L 414.72 307.584 
L 414.72 41.472 
L 57.6 41.472 
z
" style="fill:#ffffff;"/>
   </g>
   <g id="matplotlib.axis_1">
    <g id="xtick_1">
     <g id="line2d_1">
      <defs>
       <path d="M 0 0 
L 0 3.5 
" id="m524ab388df" style="stroke:#000000;stroke-width:0.8;"/>
      </defs>
      <g>
       <use style="stroke:#000000;stroke-width:0.8;" x="73.590267" xlink:href="#m524ab388df" y="307.584"/>
      </g>
     </g>
     <g id="text_1">
      <!-- 0 -->
      <g transform="translate(70.409017 322.182437)scale(0.1 -0.1)">
       <defs>
        <path d="M 2034 4250 
Q 1547 4250 1301 3770 
Q 1056 3291 1056 2328 
Q 1056 1369 1301 889 
Q 1547 409 2034 409 
Q 2525 409 2770 889 
Q 3016 1369 3016 2328 
Q 3016 3291 2770 3770 
Q 2525 4250 2034 4250 
z
M 2034 4750 
Q 2819 4750 3233 4129 
Q 3647 3509 3647 2328 
Q 3647 1150 3233 529 
Q 2819 -91 2034 -91 
Q 1250 -91 836 529 
Q 422 1150 422 2328 
Q 422 3509 836 4129 
Q 1250 4750 2034 4750 
z
" id="DejaVuSans-30" transform="scale(0.015625)"/>
       </defs>
       <use xlink:href="#DejaVuSans-30"/>
      </g>
     </g>
    </g>
    <g id="xtick_2">
     <g id="line2d_2">
      <g>
       <use style="stroke:#000000;stroke-width:0.8;" x="122.082357" xlink:href="#m524ab388df" y="307.584"/>
      </g>
     </g>
     <g id="text_2">
      <!-- 200 -->
      <g transform="translate(112.538607 322.182437)scale(0.1 -0.1)">
       <defs>
        <path d="M 1228 531 
L 3431 531 
L 3431 0 
L 469 0 
L 469 531 
Q 828 903 1448 1529 
Q 2069 2156 2228 2338 
Q 2531 2678 2651 2914 
Q 2772 3150 2772 3378 
Q 2772 3750 2511 3984 
Q 2250 4219 1831 4219 
Q 1534 4219 1204 4116 
Q 875 4013 500 3803 
L 500 4441 
Q 881 4594 1212 4672 
Q 1544 4750 1819 4750 
Q 2544 4750 2975 4387 
Q 3406 4025 3406 3419 
Q 3406 3131 3298 2873 
Q 3191 2616 2906 2266 
Q 2828 2175 2409 1742 
Q 1991 1309 1228 531 
z
" id="DejaVuSans-32" transform="scale(0.015625)"/>
       </defs>
       <use xlink:href="#DejaVuSans-32"/>
       <use x="63.623047" xlink:href="#DejaVuSans-30"/>
       <use x="127.246094" xlink:href="#DejaVuSans-30"/>
      </g>
     </g>
    </g>
    <g id="xtick_3">
     <g id="line2d_3">
      <g>
       <use style="stroke:#000000;stroke-width:0.8;" x="170.574448" xlink:href="#m524ab388df" y="307.584"/>
      </g>
     </g>
     <g id="text_3">
      <!-- 400 -->
      <g transform="translate(161.030698 322.182437)scale(0.1 -0.1)">
       <defs>
        <path d="M 2419 4116 
L 825 1625 
L 2419 1625 
L 2419 4116 
z
M 2253 4666 
L 3047 4666 
L 3047 1625 
L 3713 1625 
L 3713 1100 
L 3047 1100 
L 3047 0 
L 2419 0 
L 2419 1100 
L 313 1100 
L 313 1709 
L 2253 4666 
z
" id="DejaVuSans-34" transform="scale(0.015625)"/>
       </defs>
       <use xlink:href="#DejaVuSans-34"/>
       <use x="63.623047" xlink:href="#DejaVuSans-30"/>
       <use x="127.246094" xlink:href="#DejaVuSans-30"/>
      </g>
     </g>
    </g>
    <g id="xtick_4">
     <g id="line2d_4">
      <g>
       <use style="stroke:#000000;stroke-width:0.8;" x="219.066538" xlink:href="#m524ab388df" y="307.584"/>
      </g>
     </g>
     <g id="text_4">
      <!-- 600 -->
      <g transform="translate(209.522788 322.182437)scale(0.1 -0.1)">
       <defs>
        <path d="M 2113 2584 
Q 1688 2584 1439 2293 
Q 1191 2003 1191 1497 
Q 1191 994 1439 701 
Q 1688 409 2113 409 
Q 2538 409 2786 701 
Q 3034 994 3034 1497 
Q 3034 2003 2786 2293 
Q 2538 2584 2113 2584 
z
M 3366 4563 
L 3366 3988 
Q 3128 4100 2886 4159 
Q 2644 4219 2406 4219 
Q 1781 4219 1451 3797 
Q 1122 3375 1075 2522 
Q 1259 2794 1537 2939 
Q 1816 3084 2150 3084 
Q 2853 3084 3261 2657 
Q 3669 2231 3669 1497 
Q 3669 778 3244 343 
Q 2819 -91 2113 -91 
Q 1303 -91 875 529 
Q 447 1150 447 2328 
Q 447 3434 972 4092 
Q 1497 4750 2381 4750 
Q 2619 4750 2861 4703 
Q 3103 4656 3366 4563 
z
" id="DejaVuSans-36" transform="scale(0.015625)"/>
       </defs>
       <use xlink:href="#DejaVuSans-36"/>
       <use x="63.623047" xlink:href="#DejaVuSans-30"/>
       <use x="127.246094" xlink:href="#DejaVuSans-30"/>
      </g>
     </g>
    </g>
    <g id="xtick_5">
     <g id="line2d_5">
      <g>
       <use style="stroke:#000000;stroke-width:0.8;" x="267.558629" xlink:href="#m524ab388df" y="307.584"/>
      </g>
     </g>
     <g id="text_5">
      <!-- 800 -->
      <g transform="translate(258.014879 322.182437)scale(0.1 -0.1)">
       <defs>
        <path d="M 2034 2216 
Q 1584 2216 1326 1975 
Q 1069 1734 1069 1313 
Q 1069 891 1326 650 
Q 1584 409 2034 409 
Q 2484 409 2743 651 
Q 3003 894 3003 1313 
Q 3003 1734 2745 1975 
Q 2488 2216 2034 2216 
z
M 1403 2484 
Q 997 2584 770 2862 
Q 544 3141 544 3541 
Q 544 4100 942 4425 
Q 1341 4750 2034 4750 
Q 2731 4750 3128 4425 
Q 3525 4100 3525 3541 
Q 3525 3141 3298 2862 
Q 3072 2584 2669 2484 
Q 3125 2378 3379 2068 
Q 3634 1759 3634 1313 
Q 3634 634 3220 271 
Q 2806 -91 2034 -91 
Q 1263 -91 848 271 
Q 434 634 434 1313 
Q 434 1759 690 2068 
Q 947 2378 1403 2484 
z
M 1172 3481 
Q 1172 3119 1398 2916 
Q 1625 2713 2034 2713 
Q 2441 2713 2670 2916 
Q 2900 3119 2900 3481 
Q 2900 3844 2670 4047 
Q 2441 4250 2034 4250 
Q 1625 4250 1398 4047 
Q 1172 3844 1172 3481 
z
" id="DejaVuSans-38" transform="scale(0.015625)"/>
       </defs>
       <use xlink:href="#DejaVuSans-38"/>
       <use x="63.623047" xlink:href="#DejaVuSans-30"/>
       <use x="127.246094" xlink:href="#DejaVuSans-30"/>
      </g>
     </g>
    </g>
    <g id="xtick_6">
     <g id="line2d_6">
      <g>
       <use style="stroke:#000000;stroke-width:0.8;" x="316.050719" xlink:href="#m524ab388df" y="307.584"/>
      </g>
     </g>
     <g id="text_6">
      <!-- 1000 -->
      <g transform="translate(303.325719 322.182437)scale(0.1 -0.1)">
       <defs>
        <path d="M 794 531 
L 1825 531 
L 1825 4091 
L 703 3866 
L 703 4441 
L 1819 4666 
L 2450 4666 
L 2450 531 
L 3481 531 
L 3481 0 
L 794 0 
L 794 531 
z
" id="DejaVuSans-31" transform="scale(0.015625)"/>
       </defs>
       <use xlink:href="#DejaVuSans-31"/>
       <use x="63.623047" xlink:href="#DejaVuSans-30"/>
       <use x="127.246094" xlink:href="#DejaVuSans-30"/>
       <use x="190.869141" xlink:href="#DejaVuSans-30"/>
      </g>
     </g>
    </g>
    <g id="xtick_7">
     <g id="line2d_7">
      <g>
       <use style="stroke:#000000;stroke-width:0.8;" x="364.542809" xlink:href="#m524ab388df" y="307.584"/>
      </g>
     </g>
     <g id="text_7">
      <!-- 1200 -->
      <g transform="translate(351.817809 322.182437)scale(0.1 -0.1)">
       <use xlink:href="#DejaVuSans-31"/>
       <use x="63.623047" xlink:href="#DejaVuSans-32"/>
       <use x="127.246094" xlink:href="#DejaVuSans-30"/>
       <use x="190.869141" xlink:href="#DejaVuSans-30"/>
      </g>
     </g>
    </g>
    <g id="xtick_8">
     <g id="line2d_8">
      <g>
       <use style="stroke:#000000;stroke-width:0.8;" x="413.0349" xlink:href="#m524ab388df" y="307.584"/>
      </g>
     </g>
     <g id="text_8">
      <!-- 1400 -->
      <g transform="translate(400.3099 322.182437)scale(0.1 -0.1)">
       <use xlink:href="#DejaVuSans-31"/>
       <use x="63.623047" xlink:href="#DejaVuSans-34"/>
       <use x="127.246094" xlink:href="#DejaVuSans-30"/>
       <use x="190.869141" xlink:href="#DejaVuSans-30"/>
      </g>
     </g>
    </g>
    <g id="text_9">
     <!-- Epoch -->
     <g transform="translate(213.193594 339.659781)scale(0.15 -0.15)">
      <defs>
       <path d="M 628 4666 
L 3578 4666 
L 3578 4134 
L 1259 4134 
L 1259 2753 
L 3481 2753 
L 3481 2222 
L 1259 2222 
L 1259 531 
L 3634 531 
L 3634 0 
L 628 0 
L 628 4666 
z
" id="DejaVuSans-45" transform="scale(0.015625)"/>
       <path d="M 1159 525 
L 1159 -1331 
L 581 -1331 
L 581 3500 
L 1159 3500 
L 1159 2969 
Q 1341 3281 1617 3432 
Q 1894 3584 2278 3584 
Q 2916 3584 3314 3078 
Q 3713 2572 3713 1747 
Q 3713 922 3314 415 
Q 2916 -91 2278 -91 
Q 1894 -91 1617 61 
Q 1341 213 1159 525 
z
M 3116 1747 
Q 3116 2381 2855 2742 
Q 2594 3103 2138 3103 
Q 1681 3103 1420 2742 
Q 1159 2381 1159 1747 
Q 1159 1113 1420 752 
Q 1681 391 2138 391 
Q 2594 391 2855 752 
Q 3116 1113 3116 1747 
z
" id="DejaVuSans-70" transform="scale(0.015625)"/>
       <path d="M 1959 3097 
Q 1497 3097 1228 2736 
Q 959 2375 959 1747 
Q 959 1119 1226 758 
Q 1494 397 1959 397 
Q 2419 397 2687 759 
Q 2956 1122 2956 1747 
Q 2956 2369 2687 2733 
Q 2419 3097 1959 3097 
z
M 1959 3584 
Q 2709 3584 3137 3096 
Q 3566 2609 3566 1747 
Q 3566 888 3137 398 
Q 2709 -91 1959 -91 
Q 1206 -91 779 398 
Q 353 888 353 1747 
Q 353 2609 779 3096 
Q 1206 3584 1959 3584 
z
" id="DejaVuSans-6f" transform="scale(0.015625)"/>
       <path d="M 3122 3366 
L 3122 2828 
Q 2878 2963 2633 3030 
Q 2388 3097 2138 3097 
Q 1578 3097 1268 2742 
Q 959 2388 959 1747 
Q 959 1106 1268 751 
Q 1578 397 2138 397 
Q 2388 397 2633 464 
Q 2878 531 3122 666 
L 3122 134 
Q 2881 22 2623 -34 
Q 2366 -91 2075 -91 
Q 1284 -91 818 406 
Q 353 903 353 1747 
Q 353 2603 823 3093 
Q 1294 3584 2113 3584 
Q 2378 3584 2631 3529 
Q 2884 3475 3122 3366 
z
" id="DejaVuSans-63" transform="scale(0.015625)"/>
       <path d="M 3513 2113 
L 3513 0 
L 2938 0 
L 2938 2094 
Q 2938 2591 2744 2837 
Q 2550 3084 2163 3084 
Q 1697 3084 1428 2787 
Q 1159 2491 1159 1978 
L 1159 0 
L 581 0 
L 581 4863 
L 1159 4863 
L 1159 2956 
Q 1366 3272 1645 3428 
Q 1925 3584 2291 3584 
Q 2894 3584 3203 3211 
Q 3513 2838 3513 2113 
z
" id="DejaVuSans-68" transform="scale(0.015625)"/>
      </defs>
      <use xlink:href="#DejaVuSans-45"/>
      <use x="63.183594" xlink:href="#DejaVuSans-70"/>
      <use x="126.660156" xlink:href="#DejaVuSans-6f"/>
      <use x="187.841797" xlink:href="#DejaVuSans-63"/>
      <use x="242.822266" xlink:href="#DejaVuSans-68"/>
     </g>
    </g>
   </g>
   <g id="matplotlib.axis_2">
    <g id="ytick_1">
     <g id="line2d_9">
      <defs>
       <path d="M 0 0 
L -3.5 0 
" id="md0fe87be80" style="stroke:#000000;stroke-width:0.8;"/>
      </defs>
      <g>
       <use style="stroke:#000000;stroke-width:0.8;" x="57.6" xlink:href="#md0fe87be80" y="277.619784"/>
      </g>
     </g>
     <g id="text_10">
      <!-- −2000 -->
      <g transform="translate(16.770313 281.419003)scale(0.1 -0.1)">
       <defs>
        <path d="M 678 2272 
L 4684 2272 
L 4684 1741 
L 678 1741 
L 678 2272 
z
" id="DejaVuSans-2212" transform="scale(0.015625)"/>
       </defs>
       <use xlink:href="#DejaVuSans-2212"/>
       <use x="83.789062" xlink:href="#DejaVuSans-32"/>
       <use x="147.412109" xlink:href="#DejaVuSans-30"/>
       <use x="211.035156" xlink:href="#DejaVuSans-30"/>
       <use x="274.658203" xlink:href="#DejaVuSans-30"/>
      </g>
     </g>
    </g>
    <g id="ytick_2">
     <g id="line2d_10">
      <g>
       <use style="stroke:#000000;stroke-width:0.8;" x="57.6" xlink:href="#md0fe87be80" y="233.244317"/>
      </g>
     </g>
     <g id="text_11">
      <!-- −1500 -->
      <g transform="translate(16.770313 237.043535)scale(0.1 -0.1)">
       <defs>
        <path d="M 691 4666 
L 3169 4666 
L 3169 4134 
L 1269 4134 
L 1269 2991 
Q 1406 3038 1543 3061 
Q 1681 3084 1819 3084 
Q 2600 3084 3056 2656 
Q 3513 2228 3513 1497 
Q 3513 744 3044 326 
Q 2575 -91 1722 -91 
Q 1428 -91 1123 -41 
Q 819 9 494 109 
L 494 744 
Q 775 591 1075 516 
Q 1375 441 1709 441 
Q 2250 441 2565 725 
Q 2881 1009 2881 1497 
Q 2881 1984 2565 2268 
Q 2250 2553 1709 2553 
Q 1456 2553 1204 2497 
Q 953 2441 691 2322 
L 691 4666 
z
" id="DejaVuSans-35" transform="scale(0.015625)"/>
       </defs>
       <use xlink:href="#DejaVuSans-2212"/>
       <use x="83.789062" xlink:href="#DejaVuSans-31"/>
       <use x="147.412109" xlink:href="#DejaVuSans-35"/>
       <use x="211.035156" xlink:href="#DejaVuSans-30"/>
       <use x="274.658203" xlink:href="#DejaVuSans-30"/>
      </g>
     </g>
    </g>
    <g id="ytick_3">
     <g id="line2d_11">
      <g>
       <use style="stroke:#000000;stroke-width:0.8;" x="57.6" xlink:href="#md0fe87be80" y="188.868849"/>
      </g>
     </g>
     <g id="text_12">
      <!-- −1000 -->
      <g transform="translate(16.770313 192.668068)scale(0.1 -0.1)">
       <use xlink:href="#DejaVuSans-2212"/>
       <use x="83.789062" xlink:href="#DejaVuSans-31"/>
       <use x="147.412109" xlink:href="#DejaVuSans-30"/>
       <use x="211.035156" xlink:href="#DejaVuSans-30"/>
       <use x="274.658203" xlink:href="#DejaVuSans-30"/>
      </g>
     </g>
    </g>
    <g id="ytick_4">
     <g id="line2d_12">
      <g>
       <use style="stroke:#000000;stroke-width:0.8;" x="57.6" xlink:href="#md0fe87be80" y="144.493381"/>
      </g>
     </g>
     <g id="text_13">
      <!-- −500 -->
      <g transform="translate(23.132812 148.2926)scale(0.1 -0.1)">
       <use xlink:href="#DejaVuSans-2212"/>
       <use x="83.789062" xlink:href="#DejaVuSans-35"/>
       <use x="147.412109" xlink:href="#DejaVuSans-30"/>
       <use x="211.035156" xlink:href="#DejaVuSans-30"/>
      </g>
     </g>
    </g>
    <g id="ytick_5">
     <g id="line2d_13">
      <g>
       <use style="stroke:#000000;stroke-width:0.8;" x="57.6" xlink:href="#md0fe87be80" y="100.117914"/>
      </g>
     </g>
     <g id="text_14">
      <!-- 0 -->
      <g transform="translate(44.2375 103.917132)scale(0.1 -0.1)">
       <use xlink:href="#DejaVuSans-30"/>
      </g>
     </g>
    </g>
    <g id="ytick_6">
     <g id="line2d_14">
      <g>
       <use style="stroke:#000000;stroke-width:0.8;" x="57.6" xlink:href="#md0fe87be80" y="55.742446"/>
      </g>
     </g>
     <g id="text_15">
      <!-- 500 -->
      <g transform="translate(31.5125 59.541665)scale(0.1 -0.1)">
       <use xlink:href="#DejaVuSans-35"/>
       <use x="63.623047" xlink:href="#DejaVuSans-30"/>
       <use x="127.246094" xlink:href="#DejaVuSans-30"/>
      </g>
     </g>
    </g>
   </g>
   <g id="line2d_15">
    <path clip-path="url(#p71698909ca)" d="M 73.832727 53.568 
L 74.075188 104.506486 
L 74.802569 150.883177 
L 75.28749 159.467289 
L 76.742253 171.207968 
L 77.227174 173.4607 
L 78.439476 176.993051 
L 79.651778 179.372767 
L 79.894239 179.665472 
L 80.379159 180.725588 
L 80.62162 180.894969 
L 81.106541 182.388119 
L 82.561304 185.992302 
L 83.773606 187.724674 
L 84.500987 188.798136 
L 84.985908 190.499854 
L 85.713289 196.530347 
L 86.683131 200.461538 
L 88.137894 204.319123 
L 89.835117 206.645209 
L 90.077578 206.971592 
L 90.320038 207.010818 
L 90.562498 207.73093 
L 90.804959 207.608385 
L 91.047419 208.217263 
L 91.28988 208.219716 
L 91.53234 208.783816 
L 91.774801 208.810565 
L 92.259722 209.463653 
L 92.987103 210.351556 
L 93.229563 210.193549 
L 94.199405 211.631491 
L 94.441866 211.558004 
L 94.684326 211.777738 
L 94.926787 212.348399 
L 95.169247 212.354967 
L 95.654168 212.89179 
L 96.139089 213.420628 
L 96.381549 213.981066 
L 96.62401 213.893123 
L 96.86647 214.280583 
L 97.108931 214.426346 
L 97.593852 215.368433 
L 97.836312 215.309936 
L 98.078772 215.793167 
L 98.321233 215.858688 
L 98.563693 216.281074 
L 99.048614 216.763628 
L 99.533535 217.340371 
L 99.775996 217.137874 
L 100.018456 217.878552 
L 100.260917 217.871747 
L 100.503377 218.291823 
L 100.988298 218.617645 
L 101.230758 219.088691 
L 101.473219 219.046443 
L 101.715679 219.25446 
L 102.2006 220.130134 
L 102.443061 220.096869 
L 102.685521 220.197411 
L 102.927982 220.646633 
L 103.170442 220.652751 
L 103.412902 220.892822 
L 103.655363 221.517228 
L 104.382744 222.044547 
L 104.625205 221.671332 
L 105.110126 222.775611 
L 105.352586 222.820988 
L 105.595047 222.628877 
L 106.079967 223.322459 
L 106.322428 223.251253 
L 106.564888 223.581807 
L 107.049809 223.559892 
L 107.29227 223.852479 
L 108.019651 224.079876 
L 108.262111 224.644652 
L 108.747032 225.065541 
L 108.989493 224.584081 
L 109.231953 225.187857 
L 110.444256 225.985536 
L 110.686716 226.328936 
L 110.929176 226.244093 
L 111.171637 226.004747 
L 111.414097 226.797855 
L 111.656558 226.804812 
L 111.899018 227.050608 
L 112.141479 227.581168 
L 112.383939 226.736762 
L 112.6264 227.763396 
L 112.86886 227.459073 
L 113.111321 227.911559 
L 113.353781 227.950699 
L 113.596241 228.228704 
L 113.838702 228.110105 
L 114.323623 228.58837 
L 114.566083 228.605782 
L 114.808544 229.031764 
L 115.051004 228.892601 
L 115.778385 229.84058 
L 116.020846 229.748152 
L 116.263306 230.071179 
L 116.505767 229.609594 
L 116.748227 230.286771 
L 116.990688 230.568063 
L 117.233148 230.445108 
L 117.475609 230.745942 
L 117.718069 230.732896 
L 117.96053 231.019933 
L 118.20299 230.566737 
L 118.44545 231.227485 
L 118.687911 231.156075 
L 118.930371 231.648187 
L 119.172832 231.289498 
L 119.415292 231.851604 
L 119.657753 232.09268 
L 119.900213 232.010258 
L 120.142674 232.084928 
L 120.385134 232.458254 
L 120.627595 232.476905 
L 120.870055 232.764041 
L 121.112515 232.27786 
L 121.354976 232.914975 
L 121.597436 232.910762 
L 122.324818 233.471848 
L 122.567278 233.043599 
L 122.809739 233.728886 
L 123.052199 233.172644 
L 123.29466 233.944961 
L 123.53712 233.929621 
L 124.022041 234.442478 
L 124.264501 234.408789 
L 124.506962 234.547843 
L 124.749422 234.115144 
L 125.719264 235.062738 
L 126.446645 234.937739 
L 126.689106 235.220995 
L 126.931566 235.008935 
L 127.174027 235.406808 
L 127.901408 235.527906 
L 128.143869 236.024083 
L 128.628789 236.379118 
L 128.87125 236.120306 
L 129.356171 236.658369 
L 129.598631 236.329621 
L 129.841092 236.934463 
L 130.083552 236.815861 
L 130.326013 236.931558 
L 130.568473 236.775006 
L 130.810934 236.912698 
L 131.053394 236.89673 
L 131.780775 237.873557 
L 132.023236 237.444395 
L 132.265696 237.742648 
L 132.508157 237.656921 
L 132.750617 237.812301 
L 132.993078 238.134761 
L 133.235538 238.226325 
L 133.477999 237.991742 
L 133.720459 238.497047 
L 133.962919 237.093181 
L 134.20538 238.689238 
L 134.44784 238.010993 
L 134.690301 238.752346 
L 134.932761 238.649029 
L 135.175222 239.087411 
L 135.417682 238.833372 
L 135.660143 239.414364 
L 135.902603 239.267209 
L 136.145063 239.561833 
L 136.387524 239.22867 
L 136.629984 239.420443 
L 136.872445 239.794653 
L 137.114905 239.93212 
L 137.357366 239.705634 
L 137.599826 240.043562 
L 137.842287 240.179587 
L 138.084747 239.809151 
L 138.569668 240.370339 
L 139.78197 240.858299 
L 140.024431 240.502648 
L 140.266891 241.255391 
L 140.509352 241.210935 
L 140.994273 241.357841 
L 141.236733 241.255104 
L 141.721654 241.590263 
L 141.964114 241.427202 
L 142.206575 242.231956 
L 142.449035 242.08493 
L 142.691496 241.602324 
L 142.933956 242.438636 
L 143.176417 242.069075 
L 143.418877 242.630403 
L 143.903798 242.607905 
L 144.146258 242.862225 
L 144.388719 242.82494 
L 144.631179 243.129132 
L 144.87364 242.911526 
L 145.1161 243.08531 
L 145.358561 243.043386 
L 145.601021 243.22223 
L 145.843482 243.720604 
L 146.085942 243.6699 
L 146.328402 243.234619 
L 146.570863 243.413872 
L 147.055784 244.106287 
L 147.298244 244.08804 
L 147.540705 244.196389 
L 147.783165 243.58317 
L 148.025626 244.540661 
L 148.510547 244.35198 
L 148.753007 244.472427 
L 148.995467 245.124972 
L 149.237928 244.687705 
L 149.722849 245.127563 
L 149.965309 245.037101 
L 150.20777 245.539405 
L 150.45023 245.700931 
L 150.692691 245.373102 
L 150.935151 245.667537 
L 151.177612 245.632549 
L 151.420072 245.839986 
L 151.662532 245.358112 
L 151.904993 245.193982 
L 152.147453 246.142103 
L 152.389914 246.186697 
L 152.632374 245.844692 
L 153.117295 246.493179 
L 153.359756 246.201434 
L 153.602216 246.145752 
L 154.572058 246.854106 
L 154.814518 246.721218 
L 155.5419 247.215295 
L 155.78436 246.58685 
L 156.026821 247.027794 
L 156.754202 247.519465 
L 156.996662 247.493915 
L 157.239123 247.250184 
L 157.481583 247.643154 
L 157.724044 247.48912 
L 157.966504 247.496953 
L 158.693886 248.018656 
L 159.178806 247.857893 
L 159.421267 248.053244 
L 159.663727 247.026076 
L 159.906188 246.903494 
L 160.148648 248.513692 
L 160.391109 248.221797 
L 160.633569 248.640249 
L 160.87603 248.257374 
L 161.11849 248.64719 
L 161.360951 248.790025 
L 161.603411 248.325429 
L 161.845871 248.830925 
L 162.088332 248.464986 
L 162.330792 248.754979 
L 162.573253 249.280016 
L 163.058174 249.338429 
L 163.543095 249.13711 
L 163.785555 248.74142 
L 164.028015 249.445376 
L 164.270476 249.554212 
L 164.512936 249.341696 
L 164.755397 249.516844 
L 164.997857 249.839858 
L 165.240318 249.623514 
L 165.482778 249.893566 
L 165.725239 249.315307 
L 166.21016 250.016366 
L 166.45262 250.083941 
L 166.69508 250.323128 
L 167.180001 250.185695 
L 167.422462 250.413427 
L 167.664922 250.350532 
L 168.149843 250.406185 
L 168.392304 250.305731 
L 168.877225 251.048394 
L 169.362145 251.031194 
L 169.604606 250.719917 
L 169.847066 251.187988 
L 170.089527 250.895685 
L 170.574448 251.253518 
L 170.816908 251.392474 
L 171.059369 251.17088 
L 171.78675 251.657824 
L 172.02921 251.468987 
L 172.271671 251.757835 
L 172.514131 251.763027 
L 172.756592 251.490533 
L 173.241513 252.174787 
L 173.726434 251.907325 
L 173.968894 252.055212 
L 174.211354 251.195218 
L 174.453815 252.407862 
L 174.696275 252.293161 
L 174.938736 252.638295 
L 175.666117 252.550933 
L 176.393499 252.807802 
L 176.635959 253.157987 
L 176.878419 252.998616 
L 177.12088 252.215233 
L 177.36334 252.30633 
L 177.605801 253.173759 
L 178.090722 253.042779 
L 178.575643 253.449833 
L 178.818103 253.295252 
L 179.060564 253.601244 
L 179.303024 253.698524 
L 179.545484 253.318227 
L 179.787945 253.420305 
L 180.030405 253.927601 
L 180.272866 253.393605 
L 180.515326 253.836429 
L 180.757787 253.878879 
L 181.000247 253.704757 
L 181.242708 253.932628 
L 181.485168 253.81124 
L 181.970089 254.536957 
L 182.212549 254.054555 
L 182.45501 253.840963 
L 182.69747 254.554731 
L 182.939931 254.443945 
L 183.182391 254.533448 
L 183.424852 254.478176 
L 183.667312 254.63563 
L 183.909773 254.393924 
L 184.394693 254.936597 
L 184.637154 255.04196 
L 184.879614 254.698583 
L 185.122075 255.003062 
L 185.364535 254.95754 
L 185.606996 255.15679 
L 185.849456 254.743227 
L 186.334377 255.613478 
L 186.576838 255.293338 
L 186.819298 255.432492 
L 187.061758 255.30635 
L 187.304219 255.869502 
L 187.546679 255.62349 
L 187.78914 255.139157 
L 188.0316 255.755403 
L 188.516521 256.077231 
L 188.758982 256.076823 
L 189.001442 255.947228 
L 189.243903 256.403943 
L 189.971284 256.716965 
L 190.213744 256.250327 
L 190.456205 256.527133 
L 190.698665 257.25854 
L 191.183586 257.359319 
L 191.426047 257.687433 
L 191.668507 257.597413 
L 192.395888 258.280611 
L 192.638349 257.935749 
L 192.880809 258.369774 
L 193.12327 258.324761 
L 194.093112 259.435302 
L 194.578032 259.152232 
L 195.062953 259.877049 
L 195.305414 259.983373 
L 195.790335 259.856354 
L 196.032795 260.042031 
L 196.517716 260.808847 
L 196.760177 260.622885 
L 197.002637 261.049867 
L 197.245097 260.888531 
L 197.487558 261.168565 
L 197.730018 260.762854 
L 197.972479 261.513568 
L 198.214939 261.242163 
L 198.4574 261.871817 
L 198.69986 261.693375 
L 199.184781 262.201334 
L 199.427241 261.84663 
L 199.669702 262.373438 
L 199.912162 262.467598 
L 200.154623 262.747486 
L 200.882004 262.333513 
L 201.124465 262.640917 
L 201.366925 262.349749 
L 201.609386 263.199122 
L 202.336767 263.555723 
L 202.579227 263.359834 
L 202.821688 263.357332 
L 203.064148 262.907004 
L 203.306609 263.562088 
L 203.549069 263.744862 
L 203.79153 263.729073 
L 204.03399 263.9686 
L 204.276451 263.697153 
L 204.518911 264.344188 
L 205.003832 263.600645 
L 205.488753 264.820046 
L 205.731213 264.416876 
L 205.973674 263.784141 
L 206.216134 264.653037 
L 206.458595 264.715172 
L 206.701055 264.921332 
L 206.943516 264.730619 
L 207.185976 264.975647 
L 207.670897 264.295085 
L 208.155818 265.519347 
L 208.398278 265.036134 
L 208.640739 265.399035 
L 208.883199 265.418002 
L 209.12566 265.633414 
L 209.36812 265.457692 
L 209.61058 265.879878 
L 209.853041 265.578124 
L 210.095501 265.748183 
L 210.337962 265.704309 
L 210.580422 266.057678 
L 211.065343 266.082001 
L 211.307804 266.042142 
L 211.550264 266.271714 
L 211.792725 266.305724 
L 212.035185 265.970918 
L 212.520106 266.723586 
L 212.762566 266.57216 
L 213.005027 266.079356 
L 213.247487 266.555317 
L 213.489948 266.412627 
L 213.732408 267.11461 
L 213.974869 266.931257 
L 214.217329 267.010182 
L 214.45979 266.892721 
L 214.70225 266.524037 
L 214.94471 267.036567 
L 215.187171 266.434211 
L 215.429631 267.173126 
L 215.672092 266.752952 
L 215.914552 267.571761 
L 216.157013 267.649639 
L 216.399473 267.441366 
L 216.641934 267.471062 
L 216.884394 267.750861 
L 217.126855 267.177846 
L 217.369315 267.897053 
L 217.611775 267.761472 
L 217.854236 268.161731 
L 218.096696 267.525487 
L 218.339157 267.789018 
L 218.581617 267.853705 
L 218.824078 268.440504 
L 219.066538 268.053319 
L 219.551459 268.478956 
L 219.793919 268.409522 
L 220.27884 268.480703 
L 220.521301 268.410294 
L 220.763761 268.667198 
L 221.006222 268.458097 
L 221.248682 268.955033 
L 221.733603 268.593717 
L 222.218524 269.325864 
L 222.460984 268.667388 
L 222.703445 268.584477 
L 222.945905 269.533173 
L 223.673287 269.149711 
L 224.158208 269.427456 
L 224.400668 269.42229 
L 224.643129 269.634558 
L 224.885589 269.357088 
L 225.128049 269.510748 
L 225.37051 269.906538 
L 225.61297 269.206106 
L 225.855431 269.483342 
L 226.097891 270.162472 
L 226.340352 269.7357 
L 226.582812 270.159162 
L 226.825273 269.836858 
L 227.067733 270.120845 
L 227.310193 270.223159 
L 227.552654 270.592944 
L 227.795114 270.310579 
L 228.037575 270.291796 
L 228.280035 270.689475 
L 228.522496 270.195005 
L 228.764956 270.818045 
L 229.007417 270.482499 
L 229.249877 271.153342 
L 229.734798 269.670917 
L 229.977258 270.950041 
L 230.219719 270.904878 
L 230.462179 271.584513 
L 230.70464 271.300825 
L 230.9471 271.461541 
L 231.189561 270.945208 
L 231.674482 271.375132 
L 231.916942 271.273199 
L 232.159403 270.851968 
L 232.401863 271.619072 
L 232.644323 271.524447 
L 232.886784 271.824351 
L 233.129244 271.632901 
L 233.371705 270.884988 
L 233.614165 271.813127 
L 233.856626 271.963828 
L 234.341547 271.8111 
L 234.584007 272.032721 
L 234.826468 272.023038 
L 235.068928 272.148461 
L 235.311388 271.613464 
L 235.553849 272.306705 
L 236.03877 271.989742 
L 236.28123 272.71699 
L 236.523691 271.785764 
L 236.766151 272.845473 
L 237.008612 272.226984 
L 237.251072 273.05641 
L 237.493532 272.555312 
L 237.735993 272.841148 
L 237.978453 272.902529 
L 238.220914 272.736884 
L 238.463374 273.130346 
L 238.705835 272.827369 
L 239.190756 273.297044 
L 239.433216 272.860638 
L 239.675677 273.423998 
L 240.403058 273.573796 
L 240.887979 273.378725 
L 241.130439 273.511432 
L 241.3729 273.363106 
L 241.61536 273.926218 
L 241.857821 273.709733 
L 242.100281 274.275411 
L 242.342742 273.384561 
L 242.585202 274.299508 
L 242.827662 273.759237 
L 243.070123 273.890402 
L 243.555044 274.464072 
L 244.039965 274.029234 
L 244.282425 274.787598 
L 244.524886 274.032303 
L 244.767346 274.673175 
L 245.009807 274.615961 
L 245.252267 274.744265 
L 245.737188 274.625904 
L 245.979648 275.131698 
L 246.222109 274.507781 
L 246.464569 275.202702 
L 246.70703 275.138932 
L 246.94949 274.759506 
L 247.191951 275.331323 
L 247.434411 275.451745 
L 247.676871 275.019671 
L 247.919332 275.32062 
L 248.161792 275.027811 
L 248.404253 275.300513 
L 248.646713 275.159847 
L 248.889174 275.686829 
L 249.131634 275.408879 
L 249.616555 275.58734 
L 249.859016 275.915234 
L 250.101476 275.823253 
L 250.343936 275.509879 
L 250.586397 276.184599 
L 250.828857 275.570209 
L 251.071318 276.115571 
L 251.313778 275.731287 
L 251.556239 276.082147 
L 252.04116 275.852899 
L 252.526081 276.532546 
L 253.011001 276.035636 
L 253.253462 276.26794 
L 253.495922 276.303393 
L 253.738383 276.832288 
L 253.980843 277.04271 
L 254.223304 276.84297 
L 254.465764 275.80106 
L 254.708225 277.098422 
L 255.193145 276.477479 
L 255.678066 277.260708 
L 255.920527 277.26756 
L 256.162987 277.004895 
L 256.405448 277.027543 
L 256.647908 277.536421 
L 256.890369 277.001266 
L 257.37529 277.571971 
L 257.61775 277.433905 
L 258.102671 277.587134 
L 258.345131 277.410922 
L 258.830052 277.844829 
L 259.072513 277.425705 
L 259.314973 278.124455 
L 259.557434 277.94764 
L 259.799894 278.048429 
L 260.042355 277.57432 
L 260.284815 278.233915 
L 260.527275 278.0202 
L 260.769736 278.199964 
L 261.254657 278.336401 
L 261.497117 277.839084 
L 261.739578 278.258355 
L 261.982038 278.178345 
L 262.466959 278.609875 
L 262.70942 278.386236 
L 262.95188 278.826301 
L 263.19434 278.534292 
L 263.679261 278.421208 
L 264.164182 279.082372 
L 264.649103 278.375271 
L 264.891564 279.241912 
L 265.134024 278.720639 
L 265.376484 279.302872 
L 265.618945 278.473613 
L 265.861405 279.555908 
L 266.103866 279.055289 
L 266.346326 279.310906 
L 266.588787 279.836135 
L 266.831247 278.602677 
L 267.073708 279.769928 
L 267.316168 279.003465 
L 267.558629 279.774083 
L 267.801089 279.12277 
L 268.28601 280.130795 
L 268.52847 279.371052 
L 268.770931 279.915294 
L 269.013391 279.850142 
L 269.255852 279.569024 
L 269.498312 280.116877 
L 269.740773 279.859134 
L 269.983233 279.910218 
L 270.225694 280.123013 
L 270.468154 280.008084 
L 270.953075 280.458897 
L 271.195535 280.022696 
L 271.437996 280.429634 
L 271.680456 280.471657 
L 271.922917 280.400817 
L 272.165377 279.825144 
L 272.650298 280.87459 
L 272.892759 280.30822 
L 273.377679 280.935762 
L 273.62014 280.741232 
L 273.8626 280.975565 
L 274.105061 281.008196 
L 274.589982 280.643311 
L 274.832442 280.904826 
L 275.074903 280.556094 
L 275.317363 280.803421 
L 275.559823 281.349441 
L 275.802284 280.813545 
L 276.044744 281.393277 
L 276.287205 281.208485 
L 276.529665 279.700335 
L 276.772126 281.59746 
L 277.014586 281.164185 
L 277.257047 281.62229 
L 277.499507 281.508527 
L 277.741968 279.966512 
L 277.984428 281.937906 
L 278.226888 281.611766 
L 278.469349 281.653086 
L 278.711809 281.322509 
L 278.95427 281.284742 
L 279.439191 281.844457 
L 279.681651 281.60413 
L 279.924112 281.864758 
L 280.166572 281.060789 
L 280.409033 282.005132 
L 280.651493 282.226573 
L 280.893953 281.862087 
L 281.378874 282.143639 
L 281.621335 282.039346 
L 281.863795 281.517662 
L 282.106256 281.891575 
L 282.348716 281.709189 
L 282.591177 281.741074 
L 282.833637 282.358234 
L 283.076097 282.289625 
L 283.318558 282.528487 
L 283.561018 282.098775 
L 283.803479 281.980062 
L 284.045939 282.691057 
L 284.53086 282.552207 
L 284.773321 281.894715 
L 285.015781 282.695414 
L 285.258242 282.136568 
L 285.500702 282.872848 
L 285.743162 282.44262 
L 285.985623 282.414514 
L 286.228083 283.12975 
L 286.713004 282.721188 
L 286.955465 283.211703 
L 287.197925 282.266929 
L 287.440386 283.045906 
L 287.682846 283.339463 
L 287.925307 282.766202 
L 288.167767 283.094032 
L 288.410227 282.887319 
L 288.652688 283.145664 
L 288.895148 282.65811 
L 289.137609 282.728742 
L 289.380069 283.653527 
L 289.86499 283.14438 
L 290.107451 283.429345 
L 290.349911 283.250812 
L 291.077292 283.76816 
L 291.319753 282.616276 
L 291.562213 283.937701 
L 291.804674 283.649288 
L 292.047134 283.56937 
L 292.289595 283.362684 
L 292.532055 283.827831 
L 292.774516 283.903865 
L 293.016976 283.611538 
L 293.259436 284.09438 
L 293.501897 284.15423 
L 293.744357 284.094783 
L 293.986818 283.198332 
L 294.229278 284.164176 
L 294.471739 282.518858 
L 294.714199 284.079604 
L 294.95666 284.044174 
L 295.19912 284.533122 
L 295.441581 283.569973 
L 295.684041 284.230526 
L 295.926501 284.214685 
L 296.168962 283.952971 
L 296.411422 284.552248 
L 296.653883 284.303211 
L 296.896343 283.350605 
L 297.138804 284.255596 
L 297.381264 284.293429 
L 297.623725 284.547816 
L 297.866185 284.161184 
L 298.351106 284.96823 
L 298.836027 284.767241 
L 299.078487 283.420898 
L 299.320948 284.799721 
L 299.563408 284.269331 
L 300.048329 285.064806 
L 300.29079 284.143521 
L 300.53325 285.021954 
L 300.775711 284.342448 
L 301.018171 285.317687 
L 301.503092 284.326858 
L 301.745552 285.053917 
L 301.988013 284.699967 
L 302.715394 285.247445 
L 302.957855 284.639276 
L 303.200315 285.635161 
L 303.442775 284.84671 
L 303.927696 285.675071 
L 304.170157 285.029995 
L 304.412617 284.773175 
L 304.655078 285.738172 
L 304.897538 284.014836 
L 305.139999 285.819198 
L 305.382459 285.656146 
L 305.62492 285.200661 
L 306.10984 285.591799 
L 306.352301 285.216479 
L 306.594761 285.914702 
L 306.837222 285.711467 
L 307.079682 286.04226 
L 307.322143 285.463276 
L 307.564603 285.21337 
L 307.807064 285.757483 
L 308.049524 285.829578 
L 308.291985 286.030758 
L 308.534445 285.318545 
L 308.776905 285.342734 
L 309.019366 285.801371 
L 309.261826 285.158568 
L 309.504287 286.185644 
L 309.989208 286.553351 
L 310.231668 282.635283 
L 310.474129 286.311742 
L 310.716589 286.281052 
L 310.959049 284.40669 
L 311.20151 286.241938 
L 311.44397 286.697524 
L 311.686431 286.522698 
L 311.928891 286.547198 
L 312.171352 286.258925 
L 312.413812 286.189977 
L 312.656273 286.326913 
L 312.898733 286.638345 
L 313.141194 286.480151 
L 313.383654 285.688597 
L 313.626114 286.57808 
L 313.868575 286.851329 
L 314.111035 286.506886 
L 314.353496 285.862799 
L 314.595956 287.07077 
L 314.838417 286.713794 
L 315.323338 286.683259 
L 315.565798 286.84102 
L 315.808259 286.571666 
L 316.293179 286.778954 
L 316.53564 286.478358 
L 317.020561 287.467766 
L 317.263021 287.350909 
L 317.505482 286.896444 
L 318.232863 286.914628 
L 318.475324 287.610266 
L 318.717784 287.155501 
L 318.960244 286.949453 
L 319.202705 287.831155 
L 319.445165 287.379129 
L 319.930086 287.664848 
L 320.172547 287.309629 
L 320.415007 287.287121 
L 320.657468 287.542323 
L 320.899928 287.384729 
L 321.142388 287.56836 
L 321.384849 287.347361 
L 321.627309 287.918349 
L 321.86977 287.376791 
L 322.11223 287.705958 
L 322.597151 287.551637 
L 322.839612 288.25367 
L 323.082072 287.514534 
L 323.324533 288.216972 
L 323.566993 287.64993 
L 323.809453 288.067703 
L 324.051914 287.040332 
L 324.294374 287.738876 
L 324.536835 287.836978 
L 324.779295 288.55141 
L 325.021756 287.77778 
L 325.264216 288.284952 
L 325.506677 287.819103 
L 325.749137 288.074146 
L 325.991598 287.583598 
L 326.234058 288.484114 
L 326.476518 287.419082 
L 326.718979 288.29801 
L 326.961439 288.082052 
L 327.2039 288.663523 
L 327.44636 286.815975 
L 327.688821 288.285444 
L 327.931281 288.272824 
L 328.173742 288.485614 
L 328.416202 288.439532 
L 328.658663 288.586849 
L 328.901123 288.090521 
L 329.143583 288.263332 
L 329.386044 287.986766 
L 329.628504 288.502962 
L 329.870965 288.33674 
L 330.113425 288.768259 
L 330.355886 288.819952 
L 330.598346 288.464638 
L 330.840807 288.65041 
L 331.083267 288.630832 
L 331.568188 289.161729 
L 331.810648 288.145446 
L 332.295569 288.969002 
L 332.53803 288.419834 
L 332.78049 288.733446 
L 333.022951 288.716817 
L 333.265411 289.244331 
L 333.507872 289.480973 
L 333.750332 288.856644 
L 333.992792 289.361598 
L 334.235253 288.801035 
L 334.477713 289.427511 
L 334.720174 289.375241 
L 334.962634 288.235121 
L 335.447555 289.732391 
L 335.690016 288.761689 
L 335.932476 288.986653 
L 336.174937 289.603702 
L 336.417397 289.514148 
L 336.659857 289.74593 
L 336.902318 288.613426 
L 337.144778 288.845808 
L 337.387239 289.763165 
L 337.629699 289.453786 
L 337.87216 290.011448 
L 338.11462 288.805348 
L 338.357081 289.819767 
L 338.599541 289.383359 
L 338.842001 289.355402 
L 339.084462 289.500768 
L 339.326922 290.227882 
L 339.569383 289.813122 
L 339.811843 290.047097 
L 340.296764 289.401479 
L 340.539225 290.048978 
L 340.781685 289.529471 
L 341.024146 289.808166 
L 341.266606 289.651184 
L 341.509066 290.47912 
L 341.751527 289.794675 
L 341.993987 290.240063 
L 342.236448 289.219628 
L 342.721369 290.306202 
L 343.20629 290.221494 
L 343.44875 289.331379 
L 343.691211 290.624759 
L 343.933671 290.683595 
L 344.176131 290.126859 
L 344.418592 289.996898 
L 344.661052 290.544743 
L 344.903513 290.496443 
L 345.145973 290.333679 
L 345.388434 289.654066 
L 345.630894 290.296752 
L 345.873355 290.595662 
L 346.115815 289.892195 
L 346.600736 290.999141 
L 346.843196 289.898772 
L 347.085657 290.892215 
L 347.570578 289.928903 
L 347.813038 290.963589 
L 348.055499 290.245713 
L 348.297959 290.485633 
L 348.54042 290.92914 
L 348.78288 290.047282 
L 349.02534 291.229931 
L 349.267801 291.013615 
L 349.510261 290.974541 
L 349.752722 291.327508 
L 349.995182 290.232844 
L 350.237643 291.51402 
L 350.480103 290.997906 
L 350.722564 291.275452 
L 350.965024 290.588096 
L 351.207485 291.099194 
L 351.449945 290.597259 
L 351.692405 291.229957 
L 351.934866 290.986048 
L 352.177326 291.31433 
L 352.419787 290.329038 
L 352.662247 291.614592 
L 352.904708 290.929268 
L 353.147168 291.321415 
L 353.389629 291.331552 
L 353.632089 290.909564 
L 353.87455 291.434211 
L 354.11701 291.378628 
L 354.35947 291.473054 
L 354.601931 290.601538 
L 354.844391 291.643212 
L 355.086852 290.482479 
L 355.329312 290.940191 
L 355.571773 292.07682 
L 355.814233 290.652843 
L 356.056694 291.896648 
L 356.541615 291.538358 
L 356.784075 290.991532 
L 357.026535 292.251096 
L 357.268996 290.833154 
L 357.511456 291.822274 
L 357.753917 291.716193 
L 357.996377 291.80927 
L 358.238838 291.565803 
L 358.723759 292.015684 
L 358.966219 292.341619 
L 359.208679 292.069506 
L 359.45114 291.543314 
L 359.6936 292.088818 
L 359.936061 291.992439 
L 360.178521 290.828347 
L 360.420982 291.956617 
L 360.663442 292.10667 
L 361.148363 291.862141 
L 361.390824 291.321422 
L 361.633284 292.156466 
L 361.875744 292.106593 
L 362.118205 291.463549 
L 362.360665 292.326304 
L 362.603126 292.203378 
L 362.845586 291.412606 
L 363.088047 292.334001 
L 363.330507 292.634825 
L 363.572968 292.090945 
L 363.815428 292.043415 
L 364.057889 292.608559 
L 364.542809 291.727234 
L 364.78527 292.724603 
L 365.02773 291.96106 
L 365.270191 291.769324 
L 365.512651 292.870778 
L 365.755112 291.827194 
L 365.997572 292.909333 
L 366.240033 292.543546 
L 366.482493 291.838669 
L 366.724953 292.56188 
L 366.967414 292.894694 
L 367.209874 291.828508 
L 367.452335 292.938407 
L 367.694795 292.871878 
L 367.937256 292.665446 
L 368.179716 292.907122 
L 368.422177 292.537979 
L 368.664637 292.679539 
L 368.907098 292.375319 
L 369.149558 293.171124 
L 369.392018 292.456703 
L 370.1194 292.927606 
L 370.36186 292.788237 
L 370.604321 293.314384 
L 370.846781 292.16608 
L 371.089242 293.17039 
L 371.331702 292.50894 
L 371.574163 293.291843 
L 372.301544 291.346625 
L 372.544004 293.630502 
L 372.786465 293.432206 
L 373.028925 290.465385 
L 373.271386 292.829316 
L 373.513846 293.735822 
L 373.756307 292.776084 
L 373.998767 293.753742 
L 374.483688 292.970783 
L 374.726148 292.982417 
L 374.968609 292.670919 
L 375.211069 293.230727 
L 375.45353 292.784766 
L 375.69599 293.605161 
L 375.938451 293.510441 
L 376.180911 293.66175 
L 376.423372 292.53 
L 376.908292 293.899106 
L 377.150753 293.231023 
L 377.393213 293.864174 
L 377.635674 293.514286 
L 377.878134 292.435079 
L 378.120595 293.816825 
L 378.363055 292.713507 
L 378.605516 293.948899 
L 379.090437 293.599409 
L 379.332897 294.11079 
L 379.575357 293.317187 
L 379.817818 294.282622 
L 380.060278 293.066549 
L 380.302739 293.044465 
L 380.78766 294.249242 
L 381.03012 293.867423 
L 381.272581 294.025526 
L 381.515041 293.661871 
L 381.999962 294.248746 
L 382.242422 293.901691 
L 382.484883 292.989761 
L 382.727343 294.29396 
L 382.969804 293.005834 
L 383.212264 294.643649 
L 383.454725 293.945671 
L 383.939646 294.165528 
L 384.182106 292.980434 
L 384.424567 293.741932 
L 384.667027 293.652949 
L 385.151948 294.519938 
L 385.636869 293.488275 
L 385.879329 294.629703 
L 386.36425 293.801295 
L 386.606711 294.667863 
L 386.849171 294.373107 
L 387.091631 294.405405 
L 387.334092 294.592265 
L 387.576552 294.212875 
L 387.819013 294.347884 
L 388.061473 294.795683 
L 388.546394 293.664681 
L 388.788855 294.456808 
L 389.031315 294.828485 
L 389.273776 294.276725 
L 389.516236 293.399876 
L 389.758696 294.591354 
L 390.001157 293.869231 
L 390.243617 293.977982 
L 390.486078 294.691731 
L 390.728538 294.325871 
L 390.970999 294.716948 
L 391.213459 294.802209 
L 391.69838 294.239142 
L 391.940841 295.028053 
L 392.183301 293.708845 
L 392.425761 293.228524 
L 392.668222 295.31489 
L 392.910682 295.384837 
L 393.153143 294.520067 
L 393.395603 294.930857 
L 393.638064 294.909812 
L 393.880524 295.094951 
L 394.122985 294.428157 
L 394.607905 294.476293 
L 394.850366 295.28475 
L 395.092826 294.880289 
L 395.335287 293.680932 
L 395.577747 295.10585 
L 395.820208 294.173175 
L 396.062668 295.33924 
L 396.305129 295.33278 
L 396.547589 294.848228 
L 396.79005 295.351521 
L 397.03251 295.14009 
L 397.517431 295.195342 
L 397.759891 292.910116 
L 398.002352 295.356938 
L 398.244812 294.913644 
L 398.487273 295.488 
L 398.487273 295.488 
" style="fill:none;stroke:#1f77b4;stroke-linecap:square;stroke-width:1.5;"/>
   </g>
   <g id="line2d_16">
    <path clip-path="url(#p71698909ca)" d="M 73.832727 95.125689 
L 74.075188 115.788943 
L 74.317648 126.832943 
L 74.560109 147.928877 
L 75.28749 160.252508 
L 75.52995 161.75366 
L 76.499792 170.089915 
L 76.742253 171.095767 
L 76.984713 172.816415 
L 77.227174 173.733057 
L 77.469634 173.3818 
L 77.712095 175.178121 
L 78.197015 176.634077 
L 78.439476 176.269789 
L 78.924397 177.663131 
L 79.166857 178.01046 
L 79.409318 178.81615 
L 79.651778 178.716219 
L 79.894239 179.170546 
L 80.136699 180.133607 
L 80.379159 180.149446 
L 80.62162 181.059268 
L 80.86408 181.446162 
L 81.106541 181.346473 
L 81.349001 182.721667 
L 81.591462 183.244384 
L 81.833922 184.398039 
L 82.076383 184.253976 
L 82.318843 185.055277 
L 82.561304 184.480417 
L 82.803764 186.202332 
L 83.046224 186.460769 
L 83.288685 186.938933 
L 83.531145 186.669479 
L 83.773606 187.719832 
L 84.500987 188.333367 
L 84.985908 191.084349 
L 85.228369 191.642831 
L 85.713289 196.719239 
L 85.95575 197.733387 
L 86.19821 197.808767 
L 86.440671 199.378333 
L 86.683131 200.079911 
L 86.925592 200.343094 
L 87.168052 200.010753 
L 87.410513 202.882018 
L 87.652973 202.079206 
L 87.895433 203.744572 
L 88.137894 204.290809 
L 88.380354 203.527291 
L 88.622815 204.871254 
L 89.107736 205.755443 
L 89.350196 205.17977 
L 89.835117 206.229547 
L 90.077578 206.659095 
L 90.320038 206.232197 
L 90.562498 207.116471 
L 91.047419 207.990852 
L 91.28988 207.572803 
L 91.53234 206.391305 
L 91.774801 208.221204 
L 92.017261 208.494605 
L 92.259722 207.787007 
L 92.502182 208.457399 
L 92.744643 209.637785 
L 92.987103 209.02785 
L 93.229563 209.902662 
L 93.714484 210.788143 
L 93.956945 209.492218 
L 94.199405 210.922962 
L 94.441866 208.910343 
L 94.684326 210.4299 
L 94.926787 211.123567 
L 95.169247 211.130889 
L 95.411708 212.337897 
L 95.654168 210.391819 
L 95.896628 211.679596 
L 96.62401 213.138042 
L 96.86647 212.761494 
L 97.108931 212.837606 
L 97.351391 213.26185 
L 97.593852 214.17879 
L 97.836312 214.060943 
L 98.078772 213.56599 
L 98.321233 215.675005 
L 98.806154 215.476951 
L 99.048614 216.071984 
L 99.775996 216.479838 
L 100.018456 216.110165 
L 100.503377 217.175044 
L 100.745837 217.395352 
L 101.230758 218.19956 
L 101.473219 217.922501 
L 101.715679 218.516048 
L 101.95814 217.776554 
L 102.2006 219.138655 
L 102.443061 218.691246 
L 102.685521 219.130899 
L 102.927982 219.122646 
L 103.170442 220.169214 
L 103.412902 220.029719 
L 103.655363 218.550039 
L 103.897823 220.570921 
L 104.140284 220.956271 
L 104.382744 220.027835 
L 104.625205 220.936401 
L 104.867665 221.289175 
L 105.110126 220.362933 
L 105.352586 220.579467 
L 105.837507 222.05404 
L 106.079967 221.692035 
L 106.322428 222.620741 
L 106.564888 222.646965 
L 106.807349 222.097072 
L 107.049809 221.059649 
L 107.53473 223.135219 
L 107.777191 223.28015 
L 108.019651 222.481228 
L 108.262111 223.616005 
L 108.504572 223.011487 
L 108.747032 223.528882 
L 108.989493 224.313196 
L 109.474414 223.707724 
L 109.959335 224.567967 
L 110.201795 224.192859 
L 110.444256 224.412703 
L 110.686716 223.479138 
L 111.171637 225.048782 
L 111.414097 224.630598 
L 111.656558 225.041015 
L 111.899018 226.0836 
L 112.141479 226.218553 
L 112.6264 225.922794 
L 112.86886 226.717293 
L 113.111321 226.2718 
L 113.353781 227.021714 
L 113.596241 225.759166 
L 113.838702 227.384008 
L 114.081162 227.08612 
L 114.323623 225.474565 
L 114.566083 227.3493 
L 114.808544 227.495128 
L 115.051004 227.484315 
L 115.535925 228.065859 
L 115.778385 228.369695 
L 116.020846 228.201637 
L 116.505767 228.664441 
L 116.748227 228.577082 
L 117.233148 228.958822 
L 117.475609 226.225229 
L 117.718069 228.833982 
L 117.96053 228.347023 
L 118.20299 230.08719 
L 118.44545 229.213649 
L 118.687911 229.745761 
L 118.930371 230.555496 
L 119.172832 228.616766 
L 119.415292 230.868601 
L 119.657753 227.961193 
L 119.900213 230.608495 
L 120.142674 229.610867 
L 120.385134 230.919957 
L 120.627595 230.533474 
L 120.870055 231.149124 
L 121.112515 228.632591 
L 121.354976 231.853697 
L 121.597436 230.361985 
L 121.839897 231.884111 
L 122.324818 231.48954 
L 122.567278 231.967971 
L 122.809739 231.919348 
L 123.052199 231.697357 
L 123.29466 231.6291 
L 123.53712 232.477264 
L 123.77958 231.798802 
L 124.022041 232.869931 
L 124.264501 232.757897 
L 124.506962 231.875251 
L 124.991883 233.323982 
L 125.234343 233.180382 
L 125.476804 232.805928 
L 125.719264 233.600794 
L 125.961724 232.844297 
L 126.204185 233.076545 
L 126.446645 232.927301 
L 126.931566 233.942083 
L 127.174027 231.43734 
L 127.416487 234.24011 
L 127.658948 232.512858 
L 127.901408 234.395386 
L 128.143869 232.963244 
L 128.386329 233.458541 
L 128.628789 234.649669 
L 128.87125 233.166056 
L 129.11371 233.614221 
L 129.356171 235.680347 
L 129.598631 234.852061 
L 129.841092 234.94478 
L 130.083552 234.478962 
L 130.326013 234.496424 
L 130.568473 235.349672 
L 130.810934 232.623291 
L 131.053394 235.748023 
L 131.295854 235.644502 
L 131.538315 235.889484 
L 131.780775 233.797102 
L 132.023236 236.162881 
L 132.265696 236.290254 
L 132.508157 235.403383 
L 132.993078 236.360518 
L 133.235538 235.714365 
L 133.477999 236.982356 
L 133.720459 235.566005 
L 133.962919 236.866672 
L 134.20538 236.280657 
L 134.44784 236.51615 
L 134.690301 236.997562 
L 134.932761 236.680221 
L 135.175222 236.014929 
L 135.660143 237.63371 
L 135.902603 237.68098 
L 136.387524 236.553355 
L 136.629984 237.360707 
L 136.872445 238.611585 
L 137.114905 238.236429 
L 137.599826 236.099486 
L 137.842287 237.88007 
L 138.084747 237.987439 
L 138.327208 238.690728 
L 138.812128 238.271344 
L 139.054589 236.665747 
L 139.297049 238.552981 
L 139.78197 239.185516 
L 140.266891 239.674083 
L 140.509352 238.55206 
L 140.994273 239.47779 
L 141.236733 237.243173 
L 141.479193 236.6679 
L 141.721654 239.642234 
L 142.206575 240.020351 
L 142.449035 239.823161 
L 142.691496 240.619042 
L 142.933956 240.326796 
L 143.176417 240.403245 
L 143.418877 240.256777 
L 143.661337 240.623276 
L 143.903798 240.137825 
L 144.146258 241.067661 
L 144.388719 240.874291 
L 144.631179 241.058277 
L 144.87364 240.556556 
L 145.1161 241.197463 
L 145.358561 240.401471 
L 145.601021 241.931338 
L 145.843482 241.465634 
L 146.085942 241.545056 
L 146.328402 240.931949 
L 146.570863 242.319744 
L 147.055784 241.953181 
L 147.298244 241.682641 
L 147.540705 241.764217 
L 148.025626 242.272758 
L 148.268086 241.824582 
L 148.510547 242.764232 
L 148.753007 242.031462 
L 148.995467 242.243296 
L 149.237928 242.240611 
L 149.480388 243.131261 
L 149.722849 242.661125 
L 149.965309 243.404709 
L 150.20777 242.6749 
L 150.45023 243.301445 
L 150.692691 243.281429 
L 150.935151 243.993267 
L 151.177612 243.656565 
L 151.420072 241.218683 
L 151.662532 243.705376 
L 151.904993 242.494408 
L 152.147453 242.714057 
L 152.389914 244.414875 
L 152.632374 243.410377 
L 152.874835 243.570425 
L 153.117295 244.126561 
L 153.602216 244.460244 
L 153.844676 243.849161 
L 154.087137 244.110937 
L 154.329597 243.43394 
L 154.572058 244.172035 
L 154.814518 243.317519 
L 155.056979 244.891273 
L 155.299439 245.140833 
L 155.5419 244.125904 
L 155.78436 244.723207 
L 156.026821 244.080868 
L 156.269281 245.569117 
L 156.511741 244.158244 
L 156.754202 245.266089 
L 156.996662 243.935918 
L 157.239123 243.465465 
L 157.481583 245.693054 
L 157.724044 245.79476 
L 157.966504 245.307278 
L 158.208965 244.524512 
L 158.451425 246.132244 
L 158.693886 245.102203 
L 158.936346 245.866801 
L 159.178806 243.886396 
L 159.421267 245.113093 
L 159.663727 242.157061 
L 159.906188 245.889846 
L 160.391109 244.58913 
L 160.633569 245.712686 
L 160.87603 245.397181 
L 161.11849 246.709445 
L 161.360951 245.711856 
L 161.603411 247.089502 
L 161.845871 245.899596 
L 162.088332 246.453311 
L 162.330792 246.416411 
L 162.573253 246.796593 
L 163.058174 247.014729 
L 163.300634 246.550964 
L 163.543095 246.609293 
L 163.785555 247.099498 
L 164.028015 246.507295 
L 164.270476 247.78731 
L 164.512936 247.269143 
L 164.755397 247.297079 
L 164.997857 247.800817 
L 165.240318 247.656258 
L 165.482778 246.25074 
L 165.725239 246.640949 
L 165.967699 247.674824 
L 166.21016 246.686454 
L 166.45262 247.621036 
L 166.69508 247.273446 
L 166.937541 248.311521 
L 167.180001 248.115644 
L 167.422462 248.429818 
L 167.907383 247.72238 
L 168.149843 248.008827 
L 168.634764 249.060848 
L 168.877225 247.559698 
L 169.119685 248.42901 
L 169.362145 248.522446 
L 169.604606 247.824569 
L 169.847066 248.415695 
L 170.089527 247.740812 
L 170.331987 248.830943 
L 170.574448 247.629387 
L 170.816908 248.432201 
L 171.301829 249.191408 
L 171.544289 247.460135 
L 172.02921 249.503577 
L 172.271671 249.115444 
L 172.514131 249.276794 
L 172.756592 248.924904 
L 172.999052 249.40804 
L 173.241513 248.774445 
L 173.483973 249.401671 
L 173.726434 249.145563 
L 173.968894 247.442358 
L 174.211354 247.337929 
L 174.453815 249.579639 
L 174.696275 249.973426 
L 175.181196 248.9796 
L 175.423657 248.902383 
L 175.666117 250.369639 
L 175.908578 250.769133 
L 176.393499 250.492427 
L 176.635959 249.111365 
L 176.878419 250.068928 
L 177.12088 248.024364 
L 177.36334 249.793489 
L 177.605801 250.509086 
L 177.848261 248.870222 
L 178.090722 250.356029 
L 178.333182 250.574379 
L 178.575643 250.949868 
L 178.818103 249.627439 
L 179.060564 252.000616 
L 179.303024 251.117856 
L 179.545484 251.028691 
L 179.787945 251.62188 
L 180.030405 250.382387 
L 180.272866 251.383938 
L 180.757787 250.213371 
L 181.242708 251.596945 
L 181.485168 251.895913 
L 181.727628 251.489403 
L 181.970089 252.270962 
L 182.45501 251.643103 
L 182.69747 252.974246 
L 182.939931 251.423695 
L 183.182391 252.537803 
L 183.424852 250.968632 
L 183.667312 252.258072 
L 184.152233 252.885267 
L 184.394693 252.246114 
L 184.637154 252.026608 
L 184.879614 252.212655 
L 185.122075 253.100837 
L 185.364535 252.99995 
L 185.606996 252.554378 
L 186.091917 253.275515 
L 186.334377 252.907581 
L 186.576838 253.57589 
L 186.819298 252.868669 
L 187.061758 253.119634 
L 187.304219 251.875127 
L 187.546679 251.290377 
L 187.78914 253.647654 
L 188.0316 253.225845 
L 188.274061 252.549499 
L 188.516521 254.293518 
L 189.001442 253.54407 
L 189.243903 251.543626 
L 189.486363 251.726674 
L 189.728823 254.01686 
L 189.971284 254.161749 
L 190.213744 254.922024 
L 190.456205 254.675639 
L 190.698665 255.754296 
L 191.183586 253.707406 
L 191.426047 255.282265 
L 191.668507 255.41754 
L 191.910967 256.254956 
L 192.395888 255.242346 
L 192.638349 256.048635 
L 192.880809 256.392381 
L 193.12327 255.885334 
L 193.36573 255.88132 
L 193.850651 257.082144 
L 194.335572 258.005979 
L 194.578032 256.884084 
L 195.062953 257.588744 
L 195.305414 257.138624 
L 195.547874 252.876349 
L 195.790335 257.313907 
L 196.032795 257.607271 
L 196.275256 258.160483 
L 196.517716 259.331937 
L 196.760177 258.809549 
L 197.002637 256.794718 
L 197.245097 258.695442 
L 197.487558 256.635463 
L 197.730018 259.014247 
L 197.972479 259.871441 
L 198.214939 260.066204 
L 198.4574 258.846009 
L 198.942321 260.346921 
L 199.184781 259.604039 
L 199.427241 259.664544 
L 199.912162 261.056121 
L 200.397083 260.736031 
L 200.639544 259.914007 
L 200.882004 261.347065 
L 201.124465 260.282791 
L 201.366925 259.805279 
L 201.609386 260.736783 
L 201.851846 261.149667 
L 202.094306 260.00008 
L 202.336767 260.968708 
L 202.579227 260.865689 
L 202.821688 258.40253 
L 203.064148 261.050293 
L 203.306609 262.136929 
L 203.549069 260.959537 
L 203.79153 260.732671 
L 204.03399 262.230182 
L 204.276451 261.733121 
L 204.518911 262.381318 
L 204.761371 262.163351 
L 205.003832 261.735776 
L 205.246292 262.438677 
L 205.488753 261.990094 
L 205.731213 262.693212 
L 205.973674 261.919771 
L 206.216134 262.46136 
L 206.458595 262.372189 
L 206.701055 261.6156 
L 206.943516 263.007531 
L 207.185976 262.667179 
L 207.913357 263.716246 
L 208.155818 262.79883 
L 208.398278 263.821743 
L 208.640739 262.947071 
L 208.883199 263.886842 
L 209.12566 262.671418 
L 209.36812 264.183901 
L 209.61058 264.048816 
L 210.095501 262.069349 
L 210.337962 262.461425 
L 210.580422 263.743769 
L 210.822883 263.794379 
L 211.065343 263.458325 
L 211.307804 264.571837 
L 211.550264 265.07053 
L 212.035185 260.846908 
L 212.277645 263.621067 
L 212.762566 263.287522 
L 213.005027 265.065743 
L 213.247487 265.117484 
L 213.489948 264.124705 
L 213.732408 264.818239 
L 213.974869 262.49575 
L 214.217329 265.44091 
L 214.45979 264.116653 
L 214.70225 264.249672 
L 214.94471 265.723474 
L 215.187171 265.407923 
L 215.429631 264.81538 
L 215.672092 266.093408 
L 215.914552 265.698124 
L 216.157013 265.9516 
L 216.641934 265.614124 
L 217.126855 265.769222 
L 217.611775 265.579949 
L 217.854236 264.50105 
L 218.096696 264.981356 
L 218.339157 266.217483 
L 218.824078 264.819458 
L 219.066538 266.620991 
L 219.308999 266.746258 
L 219.551459 266.632753 
L 219.793919 267.080836 
L 220.03638 266.428251 
L 220.27884 265.088797 
L 220.521301 266.012422 
L 220.763761 265.536593 
L 221.006222 266.989499 
L 221.491143 265.858849 
L 221.733603 266.619647 
L 221.976064 266.68687 
L 222.218524 267.456777 
L 222.460984 267.187829 
L 222.703445 267.195486 
L 222.945905 267.921492 
L 223.188366 267.591542 
L 223.430826 264.356466 
L 223.673287 267.323187 
L 223.915747 267.134177 
L 224.158208 267.827932 
L 224.400668 267.238113 
L 224.643129 266.003067 
L 224.885589 268.009343 
L 225.37051 267.781542 
L 225.61297 266.68113 
L 226.097891 268.535012 
L 226.340352 267.067266 
L 226.582812 268.675439 
L 226.825273 266.708119 
L 227.067733 268.644263 
L 227.310193 267.463219 
L 227.552654 268.015715 
L 227.795114 267.135389 
L 228.037575 267.454099 
L 228.280035 268.26945 
L 228.522496 267.63739 
L 228.764956 268.020006 
L 229.007417 269.595113 
L 229.249877 268.803398 
L 229.492338 268.896541 
L 229.734798 269.674965 
L 230.219719 268.676935 
L 230.462179 269.349899 
L 230.70464 269.169683 
L 230.9471 270.170195 
L 231.189561 269.232858 
L 231.432021 267.398849 
L 231.916942 269.583925 
L 232.159403 269.288031 
L 232.401863 269.641552 
L 232.644323 270.387372 
L 232.886784 269.165128 
L 233.129244 268.713056 
L 233.371705 270.792606 
L 233.614165 269.41458 
L 233.856626 269.165236 
L 234.099086 269.545914 
L 234.341547 270.313649 
L 234.584007 269.357415 
L 234.826468 270.758283 
L 235.068928 264.921807 
L 235.311388 270.790485 
L 235.553849 269.413645 
L 236.03877 270.173171 
L 236.28123 271.250242 
L 236.523691 270.647276 
L 237.008612 270.128471 
L 237.251072 271.498982 
L 237.493532 270.913872 
L 237.735993 270.832667 
L 237.978453 270.214411 
L 238.220914 271.333216 
L 238.463374 271.778856 
L 238.705835 271.573513 
L 238.948295 270.780145 
L 239.190756 271.518362 
L 239.433216 271.096196 
L 239.675677 270.939523 
L 239.918137 272.122421 
L 240.160597 270.933446 
L 240.403058 271.735005 
L 240.645518 270.80056 
L 240.887979 271.49319 
L 241.130439 270.517588 
L 241.61536 273.008626 
L 241.857821 272.046248 
L 242.100281 272.578723 
L 242.342742 269.356235 
L 242.585202 272.445871 
L 242.827662 271.843702 
L 243.312583 272.552882 
L 243.555044 269.872889 
L 244.039965 272.232297 
L 244.282425 272.503073 
L 244.524886 273.200713 
L 244.767346 273.176448 
L 245.252267 271.880641 
L 245.737188 273.511693 
L 245.979648 273.384771 
L 246.222109 273.549085 
L 246.464569 273.414784 
L 246.70703 273.829476 
L 246.94949 272.611171 
L 247.191951 273.883247 
L 247.434411 273.433345 
L 247.676871 272.19013 
L 247.919332 272.867458 
L 248.161792 274.099358 
L 248.404253 273.794755 
L 248.646713 272.904479 
L 248.889174 273.217173 
L 249.131634 272.026959 
L 249.374095 274.64224 
L 249.616555 274.805149 
L 249.859016 274.394296 
L 250.101476 274.573687 
L 250.343936 275.283908 
L 250.586397 274.588338 
L 250.828857 270.99317 
L 251.071318 274.95289 
L 251.313778 272.905277 
L 251.556239 274.45208 
L 251.798699 273.639798 
L 252.04116 275.107653 
L 252.28362 274.167358 
L 252.526081 274.436695 
L 252.768541 275.673563 
L 253.253462 274.570125 
L 253.495922 276.10503 
L 254.223304 273.423354 
L 254.465764 273.985916 
L 254.708225 275.803438 
L 254.950685 274.671569 
L 255.193145 275.844468 
L 255.435606 274.513606 
L 255.678066 275.891348 
L 255.920527 274.43479 
L 256.162987 274.087102 
L 256.405448 275.671354 
L 256.647908 276.510231 
L 256.890369 276.18949 
L 257.132829 273.050115 
L 257.37529 276.243856 
L 257.61775 274.799749 
L 257.86021 276.881947 
L 258.587592 274.932638 
L 258.830052 276.536216 
L 259.072513 275.495186 
L 259.314973 276.868046 
L 259.557434 276.444614 
L 259.799894 276.285912 
L 260.042355 276.388719 
L 260.284815 277.139171 
L 260.527275 274.525632 
L 260.769736 277.223287 
L 261.012196 277.326607 
L 261.254657 277.195882 
L 261.497117 277.45144 
L 261.739578 276.0202 
L 262.224499 277.333459 
L 262.70942 277.544403 
L 262.95188 274.376052 
L 263.19434 274.802135 
L 263.436801 276.678973 
L 263.679261 276.917403 
L 263.921722 277.465488 
L 264.164182 277.640028 
L 264.406643 277.001145 
L 264.649103 276.886151 
L 264.891564 276.999862 
L 265.134024 276.014889 
L 265.376484 277.753456 
L 265.861405 278.176527 
L 266.103866 278.88191 
L 266.346326 277.650913 
L 266.588787 278.412422 
L 266.831247 278.342639 
L 267.073708 275.52322 
L 267.316168 277.928611 
L 267.558629 277.02267 
L 267.801089 277.818203 
L 268.043549 279.08042 
L 268.28601 277.59232 
L 268.52847 278.505726 
L 268.770931 278.003784 
L 269.013391 278.926894 
L 269.255852 277.890733 
L 269.498312 278.74568 
L 269.740773 278.128454 
L 270.225694 278.252536 
L 270.468154 277.868964 
L 270.710614 278.470002 
L 270.953075 278.736479 
L 271.195535 277.704853 
L 271.437996 279.323603 
L 271.680456 279.305067 
L 271.922917 278.438979 
L 272.165377 276.467894 
L 272.407838 279.677029 
L 272.650298 278.850864 
L 272.892759 278.68555 
L 273.135219 278.672802 
L 273.377679 279.245958 
L 273.62014 277.203727 
L 274.105061 279.869111 
L 274.347521 279.770207 
L 274.589982 279.179293 
L 274.832442 279.146399 
L 275.074903 280.011294 
L 275.317363 274.728447 
L 275.559823 279.806628 
L 275.802284 279.622242 
L 276.044744 279.018144 
L 276.287205 280.30829 
L 276.772126 278.900378 
L 277.014586 278.551974 
L 277.499507 280.679131 
L 277.741968 280.598126 
L 277.984428 279.223194 
L 278.226888 280.601956 
L 278.469349 278.927379 
L 278.95427 278.352059 
L 279.19673 280.237021 
L 279.439191 277.79931 
L 279.681651 280.850002 
L 280.166572 279.416417 
L 280.409033 280.745491 
L 280.651493 281.091288 
L 281.136414 279.618995 
L 281.378874 281.491794 
L 281.863795 280.947696 
L 282.106256 281.194443 
L 282.348716 278.366852 
L 282.591177 281.581999 
L 282.833637 280.966419 
L 283.076097 281.655383 
L 283.561018 279.373649 
L 283.803479 281.876306 
L 284.045939 280.81643 
L 284.2884 282.321556 
L 284.53086 281.624714 
L 284.773321 280.215517 
L 285.015781 280.308788 
L 285.258242 276.817159 
L 285.500702 280.904307 
L 285.743162 281.44642 
L 285.985623 280.983127 
L 286.228083 281.376584 
L 286.470544 280.926132 
L 286.713004 282.040015 
L 286.955465 280.112796 
L 287.682846 281.304489 
L 288.167767 280.692181 
L 288.410227 282.108217 
L 288.652688 281.364376 
L 288.895148 282.968177 
L 289.137609 282.159925 
L 289.380069 282.290416 
L 289.62253 282.995888 
L 289.86499 282.320074 
L 290.107451 282.444232 
L 290.349911 280.665881 
L 290.592372 282.404671 
L 291.077292 281.27695 
L 291.319753 281.363291 
L 291.562213 278.449094 
L 291.804674 283.096868 
L 292.047134 280.997764 
L 292.289595 281.932616 
L 292.532055 282.201037 
L 292.774516 282.66893 
L 293.016976 282.87883 
L 293.259436 280.661329 
L 293.744357 283.16366 
L 293.986818 283.111649 
L 294.229278 282.68893 
L 294.471739 283.103481 
L 294.714199 283.010127 
L 294.95666 283.999037 
L 295.19912 282.683135 
L 295.441581 282.820036 
L 295.684041 279.766011 
L 295.926501 283.399639 
L 296.168962 282.46214 
L 296.411422 277.949504 
L 296.653883 282.831261 
L 296.896343 281.704523 
L 297.138804 283.64182 
L 297.381264 283.867364 
L 297.623725 283.767672 
L 297.866185 281.318779 
L 298.108646 283.097944 
L 298.351106 283.730624 
L 298.593566 284.01385 
L 299.078487 283.890607 
L 299.320948 283.830712 
L 299.563408 282.697081 
L 299.805869 282.668494 
L 300.048329 283.873212 
L 300.53325 282.506063 
L 300.775711 283.76402 
L 301.018171 284.189142 
L 301.503092 282.463054 
L 301.988013 284.696713 
L 302.230473 283.251269 
L 302.472934 284.455561 
L 302.715394 284.159252 
L 302.957855 284.54229 
L 303.200315 283.936171 
L 303.442775 282.762583 
L 303.685236 283.577228 
L 303.927696 283.185917 
L 304.170157 282.444382 
L 304.412617 283.692076 
L 304.655078 284.228613 
L 304.897538 284.147413 
L 305.139999 282.7475 
L 305.382459 284.986331 
L 305.62492 285.02152 
L 305.86738 285.27039 
L 306.10984 284.499154 
L 306.352301 280.218936 
L 306.594761 285.095258 
L 307.079682 284.707717 
L 307.322143 282.812217 
L 307.564603 283.935183 
L 307.807064 284.146026 
L 308.049524 285.530584 
L 308.291985 276.305232 
L 308.534445 285.146814 
L 308.776905 285.225616 
L 309.019366 283.962913 
L 309.261826 284.820974 
L 309.504287 284.19178 
L 309.746747 285.207204 
L 309.989208 284.983028 
L 310.231668 284.500413 
L 310.474129 284.843529 
L 310.716589 284.51264 
L 310.959049 282.245863 
L 311.20151 284.714608 
L 311.686431 285.233253 
L 311.928891 285.246977 
L 312.171352 286.347584 
L 312.413812 285.35844 
L 312.656273 285.441203 
L 312.898733 285.949674 
L 313.141194 284.649609 
L 313.383654 285.194141 
L 313.626114 284.596495 
L 313.868575 286.107691 
L 314.111035 285.203239 
L 314.353496 285.365497 
L 314.595956 285.377416 
L 314.838417 284.993539 
L 315.080877 285.728535 
L 315.323338 285.937193 
L 315.808259 283.168789 
L 316.050719 285.432379 
L 316.293179 285.205979 
L 316.53564 286.329059 
L 316.7781 285.272749 
L 317.020561 286.681812 
L 317.263021 284.598121 
L 317.505482 286.378062 
L 317.747942 286.201687 
L 317.990403 286.384084 
L 318.232863 286.419066 
L 318.960244 285.137471 
L 319.202705 285.482118 
L 319.445165 284.684066 
L 319.687626 285.962936 
L 319.930086 284.50317 
L 320.172547 275.070265 
L 320.415007 285.144192 
L 320.657468 285.529847 
L 320.899928 286.354419 
L 321.142388 279.446225 
L 321.384849 286.780472 
L 321.627309 286.342453 
L 321.86977 285.515613 
L 322.11223 285.709934 
L 322.354691 286.546974 
L 322.597151 286.655688 
L 322.839612 286.591083 
L 323.082072 286.92537 
L 323.324533 285.091622 
L 323.566993 284.7763 
L 323.809453 284.27462 
L 324.051914 286.366179 
L 324.536835 287.103428 
L 324.779295 286.586159 
L 325.021756 287.674988 
L 325.264216 286.461591 
L 325.506677 284.571204 
L 325.991598 287.481605 
L 326.234058 286.901175 
L 326.476518 288.126214 
L 326.718979 285.473611 
L 326.961439 287.562251 
L 327.2039 287.188433 
L 327.44636 287.364408 
L 327.688821 285.838537 
L 327.931281 287.996248 
L 328.173742 288.062278 
L 328.416202 286.624236 
L 328.658663 286.694114 
L 328.901123 286.411123 
L 329.143583 287.187884 
L 329.386044 283.222729 
L 329.628504 287.5997 
L 329.870965 287.509866 
L 330.113425 287.710763 
L 330.355886 287.678617 
L 330.598346 283.639425 
L 330.840807 286.567249 
L 331.083267 287.963574 
L 331.325727 288.594612 
L 331.568188 288.457899 
L 331.810648 287.839723 
L 332.053109 288.504377 
L 332.295569 288.196084 
L 332.53803 288.454845 
L 332.78049 288.475537 
L 333.022951 286.314714 
L 333.265411 288.353151 
L 333.507872 288.579843 
L 333.750332 285.67382 
L 333.992792 287.996897 
L 334.235253 286.567196 
L 334.477713 288.056112 
L 334.720174 287.84695 
L 334.962634 288.91827 
L 335.205095 288.707723 
L 335.447555 287.751833 
L 335.690016 288.694507 
L 335.932476 287.720443 
L 336.174937 287.901362 
L 336.659857 288.97366 
L 336.902318 287.382651 
L 337.144778 286.94552 
L 337.387239 288.753208 
L 337.629699 289.048905 
L 337.87216 288.659489 
L 338.11462 289.059602 
L 338.357081 288.339464 
L 338.599541 288.418574 
L 338.842001 285.800036 
L 339.084462 288.686093 
L 339.326922 288.912244 
L 339.569383 289.659535 
L 339.811843 288.706972 
L 340.054304 285.281034 
L 340.296764 288.229164 
L 340.781685 288.991375 
L 341.024146 289.26689 
L 341.266606 286.507364 
L 341.509066 289.583769 
L 341.751527 287.080262 
L 341.993987 289.90852 
L 342.236448 284.213688 
L 342.478908 289.386281 
L 342.721369 286.839403 
L 342.963829 289.687522 
L 343.20629 289.250001 
L 343.44875 287.366645 
L 343.691211 288.215564 
L 343.933671 290.065628 
L 344.176131 288.832393 
L 344.418592 289.349791 
L 344.661052 288.214775 
L 345.145973 288.955251 
L 345.630894 289.126617 
L 345.873355 289.992258 
L 346.115815 290.137459 
L 346.358276 289.535668 
L 346.600736 290.351635 
L 347.085657 289.556415 
L 347.328117 289.832872 
L 347.570578 288.71493 
L 347.813038 289.228892 
L 348.055499 290.109733 
L 348.297959 288.33649 
L 348.54042 289.015468 
L 348.78288 290.254077 
L 349.02534 288.173087 
L 349.267801 285.0899 
L 349.510261 290.135236 
L 349.752722 289.81087 
L 349.995182 290.568761 
L 350.237643 288.522774 
L 350.480103 290.241455 
L 350.722564 288.911997 
L 350.965024 289.886233 
L 351.207485 289.933729 
L 351.449945 289.247205 
L 351.692405 289.176082 
L 351.934866 290.003553 
L 352.177326 289.143937 
L 352.419787 290.051228 
L 352.662247 289.109135 
L 352.904708 290.628341 
L 353.147168 288.20187 
L 353.389629 290.245756 
L 353.632089 289.166767 
L 353.87455 290.305692 
L 354.35947 289.304832 
L 354.601931 290.466054 
L 354.844391 289.10505 
L 355.329312 290.36847 
L 355.571773 290.381404 
L 356.056694 291.262603 
L 356.299154 284.397259 
L 356.541615 291.497927 
L 356.784075 289.763646 
L 357.026535 291.200251 
L 357.268996 287.804848 
L 357.511456 291.189893 
L 357.753917 290.098154 
L 357.996377 288.481551 
L 358.238838 286.088416 
L 358.723759 291.273883 
L 358.966219 291.255238 
L 359.208679 289.158909 
L 359.45114 291.213626 
L 359.6936 291.252283 
L 359.936061 289.889192 
L 360.178521 289.248122 
L 360.663442 291.505609 
L 360.905903 291.31839 
L 361.390824 288.984959 
L 361.633284 290.528593 
L 361.875744 290.364902 
L 362.118205 291.250343 
L 362.360665 291.688031 
L 362.603126 291.858454 
L 362.845586 289.042175 
L 363.088047 291.104738 
L 363.330507 291.510008 
L 363.572968 288.181569 
L 363.815428 291.173077 
L 364.057889 289.164389 
L 364.300349 291.92687 
L 364.542809 291.898571 
L 364.78527 291.401254 
L 365.02773 291.223769 
L 365.512651 290.026141 
L 365.755112 290.883959 
L 366.240033 288.452702 
L 366.482493 292.09207 
L 366.724953 292.213524 
L 366.967414 291.298651 
L 367.209874 292.958412 
L 367.694795 290.499549 
L 368.179716 292.02209 
L 368.422177 291.319111 
L 368.664637 291.826395 
L 368.907098 291.882492 
L 369.149558 291.053627 
L 369.634479 292.203059 
L 369.876939 292.117888 
L 370.1194 291.743369 
L 370.36186 289.207229 
L 370.604321 290.178692 
L 370.846781 292.791487 
L 371.089242 289.002244 
L 371.331702 292.95029 
L 371.816623 292.668776 
L 372.059083 288.296428 
L 372.544004 292.651883 
L 372.786465 291.214756 
L 373.028925 290.621079 
L 373.271386 292.662645 
L 373.513846 291.188629 
L 373.756307 292.945161 
L 373.998767 292.643204 
L 374.241228 289.528443 
L 374.726148 292.138909 
L 375.211069 293.283023 
L 375.45353 291.249587 
L 375.69599 291.185572 
L 375.938451 292.005354 
L 376.180911 291.516805 
L 376.423372 290.443001 
L 376.665832 292.550512 
L 376.908292 292.170637 
L 377.393213 293.388739 
L 377.635674 290.836321 
L 377.878134 291.709732 
L 378.120595 291.203531 
L 378.363055 293.861615 
L 378.605516 292.577701 
L 378.847976 293.615475 
L 379.090437 293.221501 
L 379.332897 293.126907 
L 379.817818 292.107562 
L 380.060278 290.405468 
L 380.302739 291.462589 
L 380.545199 293.850789 
L 380.78766 292.681567 
L 381.03012 293.142115 
L 381.272581 292.639825 
L 381.515041 290.793729 
L 381.757502 293.326855 
L 381.999962 293.543912 
L 382.242422 293.010935 
L 382.484883 292.839282 
L 382.727343 293.615884 
L 382.969804 292.545378 
L 383.212264 293.389899 
L 383.454725 290.877193 
L 383.697185 293.173553 
L 383.939646 291.674406 
L 384.182106 293.477848 
L 384.424567 294.151463 
L 384.909487 291.393446 
L 385.151948 292.658836 
L 385.394408 291.968246 
L 385.636869 293.923126 
L 385.879329 292.826222 
L 386.12179 290.021349 
L 386.36425 292.234658 
L 386.606711 292.946284 
L 386.849171 288.792874 
L 387.091631 293.708682 
L 387.334092 294.190512 
L 387.576552 293.637888 
L 387.819013 293.895213 
L 388.061473 292.189162 
L 388.303934 292.529332 
L 388.546394 291.171183 
L 388.788855 293.454189 
L 389.031315 292.048625 
L 389.273776 292.727323 
L 389.516236 294.318941 
L 389.758696 289.748805 
L 390.001157 293.046231 
L 390.243617 292.117081 
L 390.728538 292.291141 
L 390.970999 294.193578 
L 391.213459 293.575506 
L 391.45592 294.094899 
L 391.69838 293.993377 
L 391.940841 292.842731 
L 392.183301 292.235308 
L 392.425761 294.011545 
L 392.668222 294.375586 
L 392.910682 293.103765 
L 393.153143 292.704199 
L 393.395603 293.231386 
L 393.638064 294.207749 
L 394.122985 294.659988 
L 394.365445 291.11856 
L 394.607905 292.296228 
L 394.850366 294.636642 
L 395.092826 287.473426 
L 395.335287 294.020987 
L 395.577747 294.281345 
L 395.820208 292.88802 
L 396.062668 293.421211 
L 396.305129 294.35387 
L 396.547589 292.902417 
L 396.79005 294.361787 
L 397.03251 293.113976 
L 397.27497 286.037564 
L 397.517431 294.152558 
L 397.759891 294.357752 
L 398.002352 293.057663 
L 398.244812 293.069538 
L 398.487273 292.165224 
L 398.487273 292.165224 
" style="fill:none;stroke:#ff7f0e;stroke-linecap:square;stroke-width:1.5;"/>
   </g>
   <g id="patch_3">
    <path d="M 57.6 307.584 
L 57.6 41.472 
" style="fill:none;stroke:#000000;stroke-linecap:square;stroke-linejoin:miter;stroke-width:0.8;"/>
   </g>
   <g id="patch_4">
    <path d="M 414.72 307.584 
L 414.72 41.472 
" style="fill:none;stroke:#000000;stroke-linecap:square;stroke-linejoin:miter;stroke-width:0.8;"/>
   </g>
   <g id="patch_5">
    <path d="M 57.6 307.584 
L 414.72 307.584 
" style="fill:none;stroke:#000000;stroke-linecap:square;stroke-linejoin:miter;stroke-width:0.8;"/>
   </g>
   <g id="patch_6">
    <path d="M 57.6 41.472 
L 414.72 41.472 
" style="fill:none;stroke:#000000;stroke-linecap:square;stroke-linejoin:miter;stroke-width:0.8;"/>
   </g>
   <g id="legend_1">
    <g id="patch_7">
     <path d="M 303.845 78.82825 
L 407.72 78.82825 
Q 409.72 78.82825 409.72 76.82825 
L 409.72 48.472 
Q 409.72 46.472 407.72 46.472 
L 303.845 46.472 
Q 301.845 46.472 301.845 48.472 
L 301.845 76.82825 
Q 301.845 78.82825 303.845 78.82825 
z
" style="fill:#ffffff;opacity:0.8;stroke:#cccccc;stroke-linejoin:miter;"/>
    </g>
    <g id="line2d_17">
     <path d="M 305.845 54.570437 
L 325.845 54.570437 
" style="fill:none;stroke:#1f77b4;stroke-linecap:square;stroke-width:1.5;"/>
    </g>
    <g id="line2d_18"/>
    <g id="text_16">
     <!-- Train loss -->
     <g transform="translate(333.845 58.070437)scale(0.1 -0.1)">
      <defs>
       <path d="M -19 4666 
L 3928 4666 
L 3928 4134 
L 2272 4134 
L 2272 0 
L 1638 0 
L 1638 4134 
L -19 4134 
L -19 4666 
z
" id="DejaVuSans-54" transform="scale(0.015625)"/>
       <path d="M 2631 2963 
Q 2534 3019 2420 3045 
Q 2306 3072 2169 3072 
Q 1681 3072 1420 2755 
Q 1159 2438 1159 1844 
L 1159 0 
L 581 0 
L 581 3500 
L 1159 3500 
L 1159 2956 
Q 1341 3275 1631 3429 
Q 1922 3584 2338 3584 
Q 2397 3584 2469 3576 
Q 2541 3569 2628 3553 
L 2631 2963 
z
" id="DejaVuSans-72" transform="scale(0.015625)"/>
       <path d="M 2194 1759 
Q 1497 1759 1228 1600 
Q 959 1441 959 1056 
Q 959 750 1161 570 
Q 1363 391 1709 391 
Q 2188 391 2477 730 
Q 2766 1069 2766 1631 
L 2766 1759 
L 2194 1759 
z
M 3341 1997 
L 3341 0 
L 2766 0 
L 2766 531 
Q 2569 213 2275 61 
Q 1981 -91 1556 -91 
Q 1019 -91 701 211 
Q 384 513 384 1019 
Q 384 1609 779 1909 
Q 1175 2209 1959 2209 
L 2766 2209 
L 2766 2266 
Q 2766 2663 2505 2880 
Q 2244 3097 1772 3097 
Q 1472 3097 1187 3025 
Q 903 2953 641 2809 
L 641 3341 
Q 956 3463 1253 3523 
Q 1550 3584 1831 3584 
Q 2591 3584 2966 3190 
Q 3341 2797 3341 1997 
z
" id="DejaVuSans-61" transform="scale(0.015625)"/>
       <path d="M 603 3500 
L 1178 3500 
L 1178 0 
L 603 0 
L 603 3500 
z
M 603 4863 
L 1178 4863 
L 1178 4134 
L 603 4134 
L 603 4863 
z
" id="DejaVuSans-69" transform="scale(0.015625)"/>
       <path d="M 3513 2113 
L 3513 0 
L 2938 0 
L 2938 2094 
Q 2938 2591 2744 2837 
Q 2550 3084 2163 3084 
Q 1697 3084 1428 2787 
Q 1159 2491 1159 1978 
L 1159 0 
L 581 0 
L 581 3500 
L 1159 3500 
L 1159 2956 
Q 1366 3272 1645 3428 
Q 1925 3584 2291 3584 
Q 2894 3584 3203 3211 
Q 3513 2838 3513 2113 
z
" id="DejaVuSans-6e" transform="scale(0.015625)"/>
       <path id="DejaVuSans-20" transform="scale(0.015625)"/>
       <path d="M 603 4863 
L 1178 4863 
L 1178 0 
L 603 0 
L 603 4863 
z
" id="DejaVuSans-6c" transform="scale(0.015625)"/>
       <path d="M 2834 3397 
L 2834 2853 
Q 2591 2978 2328 3040 
Q 2066 3103 1784 3103 
Q 1356 3103 1142 2972 
Q 928 2841 928 2578 
Q 928 2378 1081 2264 
Q 1234 2150 1697 2047 
L 1894 2003 
Q 2506 1872 2764 1633 
Q 3022 1394 3022 966 
Q 3022 478 2636 193 
Q 2250 -91 1575 -91 
Q 1294 -91 989 -36 
Q 684 19 347 128 
L 347 722 
Q 666 556 975 473 
Q 1284 391 1588 391 
Q 1994 391 2212 530 
Q 2431 669 2431 922 
Q 2431 1156 2273 1281 
Q 2116 1406 1581 1522 
L 1381 1569 
Q 847 1681 609 1914 
Q 372 2147 372 2553 
Q 372 3047 722 3315 
Q 1072 3584 1716 3584 
Q 2034 3584 2315 3537 
Q 2597 3491 2834 3397 
z
" id="DejaVuSans-73" transform="scale(0.015625)"/>
      </defs>
      <use xlink:href="#DejaVuSans-54"/>
      <use x="46.333984" xlink:href="#DejaVuSans-72"/>
      <use x="87.447266" xlink:href="#DejaVuSans-61"/>
      <use x="148.726562" xlink:href="#DejaVuSans-69"/>
      <use x="176.509766" xlink:href="#DejaVuSans-6e"/>
      <use x="239.888672" xlink:href="#DejaVuSans-20"/>
      <use x="271.675781" xlink:href="#DejaVuSans-6c"/>
      <use x="299.458984" xlink:href="#DejaVuSans-6f"/>
      <use x="360.640625" xlink:href="#DejaVuSans-73"/>
      <use x="412.740234" xlink:href="#DejaVuSans-73"/>
     </g>
    </g>
    <g id="line2d_19">
     <path d="M 305.845 69.248562 
L 325.845 69.248562 
" style="fill:none;stroke:#ff7f0e;stroke-linecap:square;stroke-width:1.5;"/>
    </g>
    <g id="line2d_20"/>
    <g id="text_17">
     <!-- Validation loss -->
     <g transform="translate(333.845 72.748562)scale(0.1 -0.1)">
      <defs>
       <path d="M 1831 0 
L 50 4666 
L 709 4666 
L 2188 738 
L 3669 4666 
L 4325 4666 
L 2547 0 
L 1831 0 
z
" id="DejaVuSans-56" transform="scale(0.015625)"/>
       <path d="M 2906 2969 
L 2906 4863 
L 3481 4863 
L 3481 0 
L 2906 0 
L 2906 525 
Q 2725 213 2448 61 
Q 2172 -91 1784 -91 
Q 1150 -91 751 415 
Q 353 922 353 1747 
Q 353 2572 751 3078 
Q 1150 3584 1784 3584 
Q 2172 3584 2448 3432 
Q 2725 3281 2906 2969 
z
M 947 1747 
Q 947 1113 1208 752 
Q 1469 391 1925 391 
Q 2381 391 2643 752 
Q 2906 1113 2906 1747 
Q 2906 2381 2643 2742 
Q 2381 3103 1925 3103 
Q 1469 3103 1208 2742 
Q 947 2381 947 1747 
z
" id="DejaVuSans-64" transform="scale(0.015625)"/>
       <path d="M 1172 4494 
L 1172 3500 
L 2356 3500 
L 2356 3053 
L 1172 3053 
L 1172 1153 
Q 1172 725 1289 603 
Q 1406 481 1766 481 
L 2356 481 
L 2356 0 
L 1766 0 
Q 1100 0 847 248 
Q 594 497 594 1153 
L 594 3053 
L 172 3053 
L 172 3500 
L 594 3500 
L 594 4494 
L 1172 4494 
z
" id="DejaVuSans-74" transform="scale(0.015625)"/>
      </defs>
      <use xlink:href="#DejaVuSans-56"/>
      <use x="60.658203" xlink:href="#DejaVuSans-61"/>
      <use x="121.9375" xlink:href="#DejaVuSans-6c"/>
      <use x="149.720703" xlink:href="#DejaVuSans-69"/>
      <use x="177.503906" xlink:href="#DejaVuSans-64"/>
      <use x="240.980469" xlink:href="#DejaVuSans-61"/>
      <use x="302.259766" xlink:href="#DejaVuSans-74"/>
      <use x="341.46875" xlink:href="#DejaVuSans-69"/>
      <use x="369.251953" xlink:href="#DejaVuSans-6f"/>
      <use x="430.433594" xlink:href="#DejaVuSans-6e"/>
      <use x="493.8125" xlink:href="#DejaVuSans-20"/>
      <use x="525.599609" xlink:href="#DejaVuSans-6c"/>
      <use x="553.382812" xlink:href="#DejaVuSans-6f"/>
      <use x="614.564453" xlink:href="#DejaVuSans-73"/>
      <use x="666.664062" xlink:href="#DejaVuSans-73"/>
     </g>
    </g>
   </g>
  </g>
 </g>
 <defs>
  <clipPath id="p71698909ca">
   <rect height="266.112" width="357.12" x="57.6" y="41.472"/>
  </clipPath>
 </defs>
</svg>
