<?xml version="1.0" encoding="utf-8" standalone="no"?>
<!DOCTYPE svg PUBLIC "-//W3C//DTD SVG 1.1//EN"
  "http://www.w3.org/Graphics/SVG/1.1/DTD/svg11.dtd">
<svg height="345.6pt" version="1.1" viewBox="0 0 460.8 345.6" width="460.8pt" xmlns="http://www.w3.org/2000/svg" xmlns:xlink="http://www.w3.org/1999/xlink">
 <metadata>
  <rdf:RDF xmlns:cc="http://creativecommons.org/ns#" xmlns:dc="http://purl.org/dc/elements/1.1/" xmlns:rdf="http://www.w3.org/1999/02/22-rdf-syntax-ns#">
   <cc:Work>
    <dc:type rdf:resource="http://purl.org/dc/dcmitype/StillImage"/>
    <dc:date>2021-07-15T06:46:27.338824</dc:date>
    <dc:format>image/svg+xml</dc:format>
    <dc:creator>
     <cc:Agent>
      <dc:title>Matplotlib v3.4.2, https://matplotlib.org/</dc:title>
     </cc:Agent>
    </dc:creator>
   </cc:Work>
  </rdf:RDF>
 </metadata>
 <defs>
  <style type="text/css">*{stroke-linecap:butt;stroke-linejoin:round;}</style>
 </defs>
 <g id="figure_1">
  <g id="patch_1">
   <path d="M 0 345.6 
L 460.8 345.6 
L 460.8 0 
L 0 0 
z
" style="fill:#ffffff;"/>
  </g>
  <g id="axes_1">
   <g id="patch_2">
    <path d="M 57.6 307.584 
L 414.72 307.584 
L 414.72 41.472 
L 57.6 41.472 
z
" style="fill:#ffffff;"/>
   </g>
   <g id="matplotlib.axis_1">
    <g id="xtick_1">
     <g id="line2d_1">
      <defs>
       <path d="M 0 0 
L 0 3.5 
" id="m7cfd03ddbc" style="stroke:#000000;stroke-width:0.8;"/>
      </defs>
      <g>
       <use style="stroke:#000000;stroke-width:0.8;" x="73.019057" xlink:href="#m7cfd03ddbc" y="307.584"/>
      </g>
     </g>
     <g id="text_1">
      <!-- 0 -->
      <g transform="translate(69.837807 322.182437)scale(0.1 -0.1)">
       <defs>
        <path d="M 2034 4250 
Q 1547 4250 1301 3770 
Q 1056 3291 1056 2328 
Q 1056 1369 1301 889 
Q 1547 409 2034 409 
Q 2525 409 2770 889 
Q 3016 1369 3016 2328 
Q 3016 3291 2770 3770 
Q 2525 4250 2034 4250 
z
M 2034 4750 
Q 2819 4750 3233 4129 
Q 3647 3509 3647 2328 
Q 3647 1150 3233 529 
Q 2819 -91 2034 -91 
Q 1250 -91 836 529 
Q 422 1150 422 2328 
Q 422 3509 836 4129 
Q 1250 4750 2034 4750 
z
" id="DejaVuSans-30" transform="scale(0.015625)"/>
       </defs>
       <use xlink:href="#DejaVuSans-30"/>
      </g>
     </g>
    </g>
    <g id="xtick_2">
     <g id="line2d_2">
      <g>
       <use style="stroke:#000000;stroke-width:0.8;" x="113.702584" xlink:href="#m7cfd03ddbc" y="307.584"/>
      </g>
     </g>
     <g id="text_2">
      <!-- 50 -->
      <g transform="translate(107.340084 322.182437)scale(0.1 -0.1)">
       <defs>
        <path d="M 691 4666 
L 3169 4666 
L 3169 4134 
L 1269 4134 
L 1269 2991 
Q 1406 3038 1543 3061 
Q 1681 3084 1819 3084 
Q 2600 3084 3056 2656 
Q 3513 2228 3513 1497 
Q 3513 744 3044 326 
Q 2575 -91 1722 -91 
Q 1428 -91 1123 -41 
Q 819 9 494 109 
L 494 744 
Q 775 591 1075 516 
Q 1375 441 1709 441 
Q 2250 441 2565 725 
Q 2881 1009 2881 1497 
Q 2881 1984 2565 2268 
Q 2250 2553 1709 2553 
Q 1456 2553 1204 2497 
Q 953 2441 691 2322 
L 691 4666 
z
" id="DejaVuSans-35" transform="scale(0.015625)"/>
       </defs>
       <use xlink:href="#DejaVuSans-35"/>
       <use x="63.623047" xlink:href="#DejaVuSans-30"/>
      </g>
     </g>
    </g>
    <g id="xtick_3">
     <g id="line2d_3">
      <g>
       <use style="stroke:#000000;stroke-width:0.8;" x="154.386111" xlink:href="#m7cfd03ddbc" y="307.584"/>
      </g>
     </g>
     <g id="text_3">
      <!-- 100 -->
      <g transform="translate(144.842361 322.182437)scale(0.1 -0.1)">
       <defs>
        <path d="M 794 531 
L 1825 531 
L 1825 4091 
L 703 3866 
L 703 4441 
L 1819 4666 
L 2450 4666 
L 2450 531 
L 3481 531 
L 3481 0 
L 794 0 
L 794 531 
z
" id="DejaVuSans-31" transform="scale(0.015625)"/>
       </defs>
       <use xlink:href="#DejaVuSans-31"/>
       <use x="63.623047" xlink:href="#DejaVuSans-30"/>
       <use x="127.246094" xlink:href="#DejaVuSans-30"/>
      </g>
     </g>
    </g>
    <g id="xtick_4">
     <g id="line2d_4">
      <g>
       <use style="stroke:#000000;stroke-width:0.8;" x="195.069638" xlink:href="#m7cfd03ddbc" y="307.584"/>
      </g>
     </g>
     <g id="text_4">
      <!-- 150 -->
      <g transform="translate(185.525888 322.182437)scale(0.1 -0.1)">
       <use xlink:href="#DejaVuSans-31"/>
       <use x="63.623047" xlink:href="#DejaVuSans-35"/>
       <use x="127.246094" xlink:href="#DejaVuSans-30"/>
      </g>
     </g>
    </g>
    <g id="xtick_5">
     <g id="line2d_5">
      <g>
       <use style="stroke:#000000;stroke-width:0.8;" x="235.753165" xlink:href="#m7cfd03ddbc" y="307.584"/>
      </g>
     </g>
     <g id="text_5">
      <!-- 200 -->
      <g transform="translate(226.209415 322.182437)scale(0.1 -0.1)">
       <defs>
        <path d="M 1228 531 
L 3431 531 
L 3431 0 
L 469 0 
L 469 531 
Q 828 903 1448 1529 
Q 2069 2156 2228 2338 
Q 2531 2678 2651 2914 
Q 2772 3150 2772 3378 
Q 2772 3750 2511 3984 
Q 2250 4219 1831 4219 
Q 1534 4219 1204 4116 
Q 875 4013 500 3803 
L 500 4441 
Q 881 4594 1212 4672 
Q 1544 4750 1819 4750 
Q 2544 4750 2975 4387 
Q 3406 4025 3406 3419 
Q 3406 3131 3298 2873 
Q 3191 2616 2906 2266 
Q 2828 2175 2409 1742 
Q 1991 1309 1228 531 
z
" id="DejaVuSans-32" transform="scale(0.015625)"/>
       </defs>
       <use xlink:href="#DejaVuSans-32"/>
       <use x="63.623047" xlink:href="#DejaVuSans-30"/>
       <use x="127.246094" xlink:href="#DejaVuSans-30"/>
      </g>
     </g>
    </g>
    <g id="xtick_6">
     <g id="line2d_6">
      <g>
       <use style="stroke:#000000;stroke-width:0.8;" x="276.436692" xlink:href="#m7cfd03ddbc" y="307.584"/>
      </g>
     </g>
     <g id="text_6">
      <!-- 250 -->
      <g transform="translate(266.892942 322.182437)scale(0.1 -0.1)">
       <use xlink:href="#DejaVuSans-32"/>
       <use x="63.623047" xlink:href="#DejaVuSans-35"/>
       <use x="127.246094" xlink:href="#DejaVuSans-30"/>
      </g>
     </g>
    </g>
    <g id="xtick_7">
     <g id="line2d_7">
      <g>
       <use style="stroke:#000000;stroke-width:0.8;" x="317.120219" xlink:href="#m7cfd03ddbc" y="307.584"/>
      </g>
     </g>
     <g id="text_7">
      <!-- 300 -->
      <g transform="translate(307.576469 322.182437)scale(0.1 -0.1)">
       <defs>
        <path d="M 2597 2516 
Q 3050 2419 3304 2112 
Q 3559 1806 3559 1356 
Q 3559 666 3084 287 
Q 2609 -91 1734 -91 
Q 1441 -91 1130 -33 
Q 819 25 488 141 
L 488 750 
Q 750 597 1062 519 
Q 1375 441 1716 441 
Q 2309 441 2620 675 
Q 2931 909 2931 1356 
Q 2931 1769 2642 2001 
Q 2353 2234 1838 2234 
L 1294 2234 
L 1294 2753 
L 1863 2753 
Q 2328 2753 2575 2939 
Q 2822 3125 2822 3475 
Q 2822 3834 2567 4026 
Q 2313 4219 1838 4219 
Q 1578 4219 1281 4162 
Q 984 4106 628 3988 
L 628 4550 
Q 988 4650 1302 4700 
Q 1616 4750 1894 4750 
Q 2613 4750 3031 4423 
Q 3450 4097 3450 3541 
Q 3450 3153 3228 2886 
Q 3006 2619 2597 2516 
z
" id="DejaVuSans-33" transform="scale(0.015625)"/>
       </defs>
       <use xlink:href="#DejaVuSans-33"/>
       <use x="63.623047" xlink:href="#DejaVuSans-30"/>
       <use x="127.246094" xlink:href="#DejaVuSans-30"/>
      </g>
     </g>
    </g>
    <g id="xtick_8">
     <g id="line2d_8">
      <g>
       <use style="stroke:#000000;stroke-width:0.8;" x="357.803746" xlink:href="#m7cfd03ddbc" y="307.584"/>
      </g>
     </g>
     <g id="text_8">
      <!-- 350 -->
      <g transform="translate(348.259996 322.182437)scale(0.1 -0.1)">
       <use xlink:href="#DejaVuSans-33"/>
       <use x="63.623047" xlink:href="#DejaVuSans-35"/>
       <use x="127.246094" xlink:href="#DejaVuSans-30"/>
      </g>
     </g>
    </g>
    <g id="xtick_9">
     <g id="line2d_9">
      <g>
       <use style="stroke:#000000;stroke-width:0.8;" x="398.487273" xlink:href="#m7cfd03ddbc" y="307.584"/>
      </g>
     </g>
     <g id="text_9">
      <!-- 400 -->
      <g transform="translate(388.943523 322.182437)scale(0.1 -0.1)">
       <defs>
        <path d="M 2419 4116 
L 825 1625 
L 2419 1625 
L 2419 4116 
z
M 2253 4666 
L 3047 4666 
L 3047 1625 
L 3713 1625 
L 3713 1100 
L 3047 1100 
L 3047 0 
L 2419 0 
L 2419 1100 
L 313 1100 
L 313 1709 
L 2253 4666 
z
" id="DejaVuSans-34" transform="scale(0.015625)"/>
       </defs>
       <use xlink:href="#DejaVuSans-34"/>
       <use x="63.623047" xlink:href="#DejaVuSans-30"/>
       <use x="127.246094" xlink:href="#DejaVuSans-30"/>
      </g>
     </g>
    </g>
    <g id="text_10">
     <!-- Epoch -->
     <g transform="translate(213.193594 339.659781)scale(0.15 -0.15)">
      <defs>
       <path d="M 628 4666 
L 3578 4666 
L 3578 4134 
L 1259 4134 
L 1259 2753 
L 3481 2753 
L 3481 2222 
L 1259 2222 
L 1259 531 
L 3634 531 
L 3634 0 
L 628 0 
L 628 4666 
z
" id="DejaVuSans-45" transform="scale(0.015625)"/>
       <path d="M 1159 525 
L 1159 -1331 
L 581 -1331 
L 581 3500 
L 1159 3500 
L 1159 2969 
Q 1341 3281 1617 3432 
Q 1894 3584 2278 3584 
Q 2916 3584 3314 3078 
Q 3713 2572 3713 1747 
Q 3713 922 3314 415 
Q 2916 -91 2278 -91 
Q 1894 -91 1617 61 
Q 1341 213 1159 525 
z
M 3116 1747 
Q 3116 2381 2855 2742 
Q 2594 3103 2138 3103 
Q 1681 3103 1420 2742 
Q 1159 2381 1159 1747 
Q 1159 1113 1420 752 
Q 1681 391 2138 391 
Q 2594 391 2855 752 
Q 3116 1113 3116 1747 
z
" id="DejaVuSans-70" transform="scale(0.015625)"/>
       <path d="M 1959 3097 
Q 1497 3097 1228 2736 
Q 959 2375 959 1747 
Q 959 1119 1226 758 
Q 1494 397 1959 397 
Q 2419 397 2687 759 
Q 2956 1122 2956 1747 
Q 2956 2369 2687 2733 
Q 2419 3097 1959 3097 
z
M 1959 3584 
Q 2709 3584 3137 3096 
Q 3566 2609 3566 1747 
Q 3566 888 3137 398 
Q 2709 -91 1959 -91 
Q 1206 -91 779 398 
Q 353 888 353 1747 
Q 353 2609 779 3096 
Q 1206 3584 1959 3584 
z
" id="DejaVuSans-6f" transform="scale(0.015625)"/>
       <path d="M 3122 3366 
L 3122 2828 
Q 2878 2963 2633 3030 
Q 2388 3097 2138 3097 
Q 1578 3097 1268 2742 
Q 959 2388 959 1747 
Q 959 1106 1268 751 
Q 1578 397 2138 397 
Q 2388 397 2633 464 
Q 2878 531 3122 666 
L 3122 134 
Q 2881 22 2623 -34 
Q 2366 -91 2075 -91 
Q 1284 -91 818 406 
Q 353 903 353 1747 
Q 353 2603 823 3093 
Q 1294 3584 2113 3584 
Q 2378 3584 2631 3529 
Q 2884 3475 3122 3366 
z
" id="DejaVuSans-63" transform="scale(0.015625)"/>
       <path d="M 3513 2113 
L 3513 0 
L 2938 0 
L 2938 2094 
Q 2938 2591 2744 2837 
Q 2550 3084 2163 3084 
Q 1697 3084 1428 2787 
Q 1159 2491 1159 1978 
L 1159 0 
L 581 0 
L 581 4863 
L 1159 4863 
L 1159 2956 
Q 1366 3272 1645 3428 
Q 1925 3584 2291 3584 
Q 2894 3584 3203 3211 
Q 3513 2838 3513 2113 
z
" id="DejaVuSans-68" transform="scale(0.015625)"/>
      </defs>
      <use xlink:href="#DejaVuSans-45"/>
      <use x="63.183594" xlink:href="#DejaVuSans-70"/>
      <use x="126.660156" xlink:href="#DejaVuSans-6f"/>
      <use x="187.841797" xlink:href="#DejaVuSans-63"/>
      <use x="242.822266" xlink:href="#DejaVuSans-68"/>
     </g>
    </g>
   </g>
   <g id="matplotlib.axis_2">
    <g id="ytick_1">
     <g id="line2d_10">
      <defs>
       <path d="M 0 0 
L -3.5 0 
" id="mecead8b71f" style="stroke:#000000;stroke-width:0.8;"/>
      </defs>
      <g>
       <use style="stroke:#000000;stroke-width:0.8;" x="57.6" xlink:href="#mecead8b71f" y="292.338148"/>
      </g>
     </g>
     <g id="text_11">
      <!-- 0 -->
      <g transform="translate(44.2375 296.137366)scale(0.1 -0.1)">
       <use xlink:href="#DejaVuSans-30"/>
      </g>
     </g>
    </g>
    <g id="ytick_2">
     <g id="line2d_11">
      <g>
       <use style="stroke:#000000;stroke-width:0.8;" x="57.6" xlink:href="#mecead8b71f" y="243.249363"/>
      </g>
     </g>
     <g id="text_12">
      <!-- 20000 -->
      <g transform="translate(18.7875 247.048582)scale(0.1 -0.1)">
       <use xlink:href="#DejaVuSans-32"/>
       <use x="63.623047" xlink:href="#DejaVuSans-30"/>
       <use x="127.246094" xlink:href="#DejaVuSans-30"/>
       <use x="190.869141" xlink:href="#DejaVuSans-30"/>
       <use x="254.492188" xlink:href="#DejaVuSans-30"/>
      </g>
     </g>
    </g>
    <g id="ytick_3">
     <g id="line2d_12">
      <g>
       <use style="stroke:#000000;stroke-width:0.8;" x="57.6" xlink:href="#mecead8b71f" y="194.160579"/>
      </g>
     </g>
     <g id="text_13">
      <!-- 40000 -->
      <g transform="translate(18.7875 197.959798)scale(0.1 -0.1)">
       <use xlink:href="#DejaVuSans-34"/>
       <use x="63.623047" xlink:href="#DejaVuSans-30"/>
       <use x="127.246094" xlink:href="#DejaVuSans-30"/>
       <use x="190.869141" xlink:href="#DejaVuSans-30"/>
       <use x="254.492188" xlink:href="#DejaVuSans-30"/>
      </g>
     </g>
    </g>
    <g id="ytick_4">
     <g id="line2d_13">
      <g>
       <use style="stroke:#000000;stroke-width:0.8;" x="57.6" xlink:href="#mecead8b71f" y="145.071795"/>
      </g>
     </g>
     <g id="text_14">
      <!-- 60000 -->
      <g transform="translate(18.7875 148.871014)scale(0.1 -0.1)">
       <defs>
        <path d="M 2113 2584 
Q 1688 2584 1439 2293 
Q 1191 2003 1191 1497 
Q 1191 994 1439 701 
Q 1688 409 2113 409 
Q 2538 409 2786 701 
Q 3034 994 3034 1497 
Q 3034 2003 2786 2293 
Q 2538 2584 2113 2584 
z
M 3366 4563 
L 3366 3988 
Q 3128 4100 2886 4159 
Q 2644 4219 2406 4219 
Q 1781 4219 1451 3797 
Q 1122 3375 1075 2522 
Q 1259 2794 1537 2939 
Q 1816 3084 2150 3084 
Q 2853 3084 3261 2657 
Q 3669 2231 3669 1497 
Q 3669 778 3244 343 
Q 2819 -91 2113 -91 
Q 1303 -91 875 529 
Q 447 1150 447 2328 
Q 447 3434 972 4092 
Q 1497 4750 2381 4750 
Q 2619 4750 2861 4703 
Q 3103 4656 3366 4563 
z
" id="DejaVuSans-36" transform="scale(0.015625)"/>
       </defs>
       <use xlink:href="#DejaVuSans-36"/>
       <use x="63.623047" xlink:href="#DejaVuSans-30"/>
       <use x="127.246094" xlink:href="#DejaVuSans-30"/>
       <use x="190.869141" xlink:href="#DejaVuSans-30"/>
       <use x="254.492188" xlink:href="#DejaVuSans-30"/>
      </g>
     </g>
    </g>
    <g id="ytick_5">
     <g id="line2d_14">
      <g>
       <use style="stroke:#000000;stroke-width:0.8;" x="57.6" xlink:href="#mecead8b71f" y="95.983011"/>
      </g>
     </g>
     <g id="text_15">
      <!-- 80000 -->
      <g transform="translate(18.7875 99.782229)scale(0.1 -0.1)">
       <defs>
        <path d="M 2034 2216 
Q 1584 2216 1326 1975 
Q 1069 1734 1069 1313 
Q 1069 891 1326 650 
Q 1584 409 2034 409 
Q 2484 409 2743 651 
Q 3003 894 3003 1313 
Q 3003 1734 2745 1975 
Q 2488 2216 2034 2216 
z
M 1403 2484 
Q 997 2584 770 2862 
Q 544 3141 544 3541 
Q 544 4100 942 4425 
Q 1341 4750 2034 4750 
Q 2731 4750 3128 4425 
Q 3525 4100 3525 3541 
Q 3525 3141 3298 2862 
Q 3072 2584 2669 2484 
Q 3125 2378 3379 2068 
Q 3634 1759 3634 1313 
Q 3634 634 3220 271 
Q 2806 -91 2034 -91 
Q 1263 -91 848 271 
Q 434 634 434 1313 
Q 434 1759 690 2068 
Q 947 2378 1403 2484 
z
M 1172 3481 
Q 1172 3119 1398 2916 
Q 1625 2713 2034 2713 
Q 2441 2713 2670 2916 
Q 2900 3119 2900 3481 
Q 2900 3844 2670 4047 
Q 2441 4250 2034 4250 
Q 1625 4250 1398 4047 
Q 1172 3844 1172 3481 
z
" id="DejaVuSans-38" transform="scale(0.015625)"/>
       </defs>
       <use xlink:href="#DejaVuSans-38"/>
       <use x="63.623047" xlink:href="#DejaVuSans-30"/>
       <use x="127.246094" xlink:href="#DejaVuSans-30"/>
       <use x="190.869141" xlink:href="#DejaVuSans-30"/>
       <use x="254.492188" xlink:href="#DejaVuSans-30"/>
      </g>
     </g>
    </g>
    <g id="ytick_6">
     <g id="line2d_15">
      <g>
       <use style="stroke:#000000;stroke-width:0.8;" x="57.6" xlink:href="#mecead8b71f" y="46.894226"/>
      </g>
     </g>
     <g id="text_16">
      <!-- 100000 -->
      <g transform="translate(12.425 50.693445)scale(0.1 -0.1)">
       <use xlink:href="#DejaVuSans-31"/>
       <use x="63.623047" xlink:href="#DejaVuSans-30"/>
       <use x="127.246094" xlink:href="#DejaVuSans-30"/>
       <use x="190.869141" xlink:href="#DejaVuSans-30"/>
       <use x="254.492188" xlink:href="#DejaVuSans-30"/>
       <use x="318.115234" xlink:href="#DejaVuSans-30"/>
      </g>
     </g>
    </g>
    <g id="text_17">
     <!-- Loss -->
     <g transform="translate(5.305469 190.978781)rotate(-90)scale(0.15 -0.15)">
      <defs>
       <path d="M 628 4666 
L 1259 4666 
L 1259 531 
L 3531 531 
L 3531 0 
L 628 0 
L 628 4666 
z
" id="DejaVuSans-4c" transform="scale(0.015625)"/>
       <path d="M 2834 3397 
L 2834 2853 
Q 2591 2978 2328 3040 
Q 2066 3103 1784 3103 
Q 1356 3103 1142 2972 
Q 928 2841 928 2578 
Q 928 2378 1081 2264 
Q 1234 2150 1697 2047 
L 1894 2003 
Q 2506 1872 2764 1633 
Q 3022 1394 3022 966 
Q 3022 478 2636 193 
Q 2250 -91 1575 -91 
Q 1294 -91 989 -36 
Q 684 19 347 128 
L 347 722 
Q 666 556 975 473 
Q 1284 391 1588 391 
Q 1994 391 2212 530 
Q 2431 669 2431 922 
Q 2431 1156 2273 1281 
Q 2116 1406 1581 1522 
L 1381 1569 
Q 847 1681 609 1914 
Q 372 2147 372 2553 
Q 372 3047 722 3315 
Q 1072 3584 1716 3584 
Q 2034 3584 2315 3537 
Q 2597 3491 2834 3397 
z
" id="DejaVuSans-73" transform="scale(0.015625)"/>
      </defs>
      <use xlink:href="#DejaVuSans-4c"/>
      <use x="53.962891" xlink:href="#DejaVuSans-6f"/>
      <use x="115.144531" xlink:href="#DejaVuSans-73"/>
      <use x="167.244141" xlink:href="#DejaVuSans-73"/>
     </g>
    </g>
   </g>
   <g id="line2d_16">
    <path clip-path="url(#p4d6e4551a6)" d="M 73.832727 292.637134 
L 74.646398 293.188937 
L 75.460068 293.246726 
L 76.273739 293.158177 
L 77.087409 293.429127 
L 78.714751 293.533885 
L 80.342092 293.681114 
L 81.155762 293.825416 
L 82.783103 293.823354 
L 84.410444 293.892468 
L 85.224115 293.88692 
L 86.037785 294.089741 
L 87.665126 293.931613 
L 88.478797 294.098599 
L 89.292468 293.920526 
L 90.919809 294.058845 
L 91.733479 293.958002 
L 92.54715 294.161365 
L 94.174491 294.239454 
L 95.801832 294.263389 
L 99.056514 294.375242 
L 99.870185 294.212626 
L 102.311196 294.426477 
L 103.124867 294.338723 
L 103.938537 294.42126 
L 104.752208 294.32572 
L 105.565878 294.523986 
L 107.193219 294.441057 
L 108.00689 294.380981 
L 109.634231 294.614763 
L 110.447902 294.427837 
L 113.702584 294.484639 
L 115.329925 294.69622 
L 116.143595 294.493058 
L 118.584607 294.549089 
L 120.211948 294.590901 
L 121.025619 294.462456 
L 121.839289 294.64967 
L 122.65296 294.550368 
L 124.280301 294.711953 
L 125.093971 294.450637 
L 125.907642 294.699756 
L 127.534983 294.38076 
L 128.348653 294.801776 
L 129.162324 294.620185 
L 129.975995 294.68783 
L 130.789665 294.566513 
L 131.603336 294.659621 
L 135.671688 294.586219 
L 138.1127 294.627242 
L 138.92637 294.55612 
L 140.553712 294.767753 
L 142.181053 294.597366 
L 143.808394 294.670269 
L 146.249405 294.648773 
L 147.063076 294.789163 
L 147.876746 294.803507 
L 148.690417 294.666849 
L 149.504087 294.80277 
L 151.945099 294.648029 
L 152.75877 294.830056 
L 153.57244 294.519198 
L 154.386111 294.766948 
L 156.827122 294.695527 
L 157.640793 294.682257 
L 158.454463 294.947216 
L 159.268134 294.74328 
L 160.081805 294.821356 
L 160.895475 294.714294 
L 161.709146 294.805326 
L 162.522816 294.698999 
L 163.336487 294.845987 
L 164.150157 294.615316 
L 164.963828 294.745183 
L 166.591169 294.748768 
L 167.404839 294.832631 
L 168.21851 294.659276 
L 169.03218 294.647991 
L 169.845851 294.787386 
L 170.659522 294.681952 
L 171.473192 294.802998 
L 172.286863 294.554254 
L 173.100533 294.733945 
L 173.914204 294.771928 
L 174.727874 294.653573 
L 175.541545 294.750166 
L 176.355215 294.670202 
L 177.168886 294.846653 
L 177.982556 294.717904 
L 178.796227 294.936995 
L 179.609897 294.545218 
L 180.423568 294.893193 
L 182.86458 294.884689 
L 183.67825 294.680528 
L 184.491921 294.79734 
L 186.119262 294.745379 
L 189.373944 294.884718 
L 190.187614 294.635966 
L 191.001285 294.788812 
L 191.814956 294.719372 
L 192.628626 294.777279 
L 193.442297 294.691758 
L 194.255967 294.952585 
L 196.696979 294.93404 
L 197.510649 294.541889 
L 199.13799 294.850318 
L 199.951661 294.729 
L 200.765332 294.88485 
L 201.579002 294.761316 
L 202.392673 294.855237 
L 203.206343 294.733619 
L 204.020014 294.850822 
L 206.461025 294.757539 
L 208.902037 294.842151 
L 210.529378 294.78806 
L 211.343049 294.950004 
L 212.156719 294.931428 
L 213.78406 294.666788 
L 214.597731 295.07098 
L 215.411401 294.658404 
L 218.666083 294.902107 
L 219.479754 294.72532 
L 220.293424 294.976657 
L 221.920766 294.958098 
L 223.548107 294.952531 
L 224.361777 294.908781 
L 225.175448 294.737039 
L 226.802789 295.05767 
L 227.616459 294.632176 
L 228.43013 294.883159 
L 229.2438 294.761015 
L 230.057471 294.929756 
L 230.871141 294.949446 
L 231.684812 294.754595 
L 233.312153 294.916153 
L 234.939494 294.881016 
L 235.753165 294.997259 
L 237.380506 294.76368 
L 238.194176 294.962932 
L 239.821517 294.848433 
L 240.635188 295.005136 
L 241.448859 295.047782 
L 242.262529 294.776735 
L 243.0762 295.030474 
L 245.517211 294.853225 
L 246.330882 295.017957 
L 247.144552 294.81669 
L 247.958223 295.099477 
L 248.771893 294.84275 
L 249.585564 294.899408 
L 251.212905 294.668934 
L 252.026576 294.888516 
L 252.840246 294.822666 
L 253.653917 294.989177 
L 256.094928 294.925036 
L 256.908599 294.99979 
L 259.34961 294.947573 
L 260.976951 295.09056 
L 261.790622 294.923662 
L 262.604293 294.903552 
L 263.417963 295.124925 
L 267.486316 294.98714 
L 269.113657 294.865689 
L 269.927327 295.067283 
L 270.740998 295.033613 
L 271.554668 295.142635 
L 272.368339 294.893735 
L 273.18201 294.800529 
L 275.623021 295.101866 
L 278.877703 294.993664 
L 279.691374 295.179226 
L 281.318715 294.900957 
L 282.946056 294.918996 
L 283.759727 295.175113 
L 284.573397 294.955308 
L 285.387068 294.957123 
L 286.200738 295.100032 
L 288.64175 295.142301 
L 289.45542 295.052701 
L 291.082761 295.123581 
L 291.896432 294.851418 
L 292.710103 295.024505 
L 294.337444 294.836672 
L 295.151114 294.957617 
L 296.778455 294.900338 
L 299.219467 295.063462 
L 300.846808 294.935645 
L 301.660478 294.831374 
L 304.10149 295.168751 
L 304.915161 294.9002 
L 306.542502 294.948666 
L 307.356172 294.706539 
L 308.169843 294.947185 
L 308.983513 295.023523 
L 309.797184 294.910921 
L 310.610854 295.14954 
L 311.424525 294.940639 
L 312.238195 294.899025 
L 313.051866 295.065844 
L 313.865537 294.964659 
L 314.679207 295.110534 
L 315.492878 294.949323 
L 316.306548 294.913926 
L 317.120219 295.064427 
L 324.443254 295.019925 
L 325.256924 295.163874 
L 327.697936 295.039626 
L 328.511606 294.905582 
L 329.325277 295.113698 
L 330.138947 294.968595 
L 332.579959 295.17858 
L 333.39363 294.801146 
L 334.2073 295.052934 
L 335.020971 294.8868 
L 335.834641 295.096414 
L 337.461982 295.055798 
L 338.275653 295.091351 
L 339.089323 294.906453 
L 340.716664 295.058956 
L 341.530335 294.834042 
L 342.344005 294.847647 
L 343.157676 295.054557 
L 343.971347 295.046437 
L 344.785017 294.910807 
L 345.598688 295.085728 
L 346.412358 294.926134 
L 348.85337 295.086491 
L 349.66704 294.897242 
L 351.294381 295.315467 
L 352.108052 294.907091 
L 352.921722 294.87738 
L 353.735393 295.156494 
L 354.549064 295.150548 
L 355.362734 294.930834 
L 356.176405 295.191867 
L 356.990075 294.926594 
L 357.803746 295.026859 
L 362.685769 294.986612 
L 363.49944 295.073983 
L 366.754122 294.994822 
L 367.567792 295.176716 
L 368.381463 294.90694 
L 369.195133 294.94752 
L 370.008804 295.141674 
L 370.822474 294.969698 
L 371.636145 295.037522 
L 373.263486 295.00606 
L 374.077157 295.129692 
L 374.890827 294.909516 
L 375.704498 294.871797 
L 376.518168 294.950751 
L 377.331839 295.179597 
L 378.145509 295.079996 
L 378.95918 295.120537 
L 379.77285 294.945222 
L 380.586521 295.007191 
L 381.400191 294.886592 
L 382.213862 294.981664 
L 383.027532 295.411982 
L 383.841203 295.032228 
L 384.654874 294.79485 
L 385.468544 295.004781 
L 387.909556 295.06679 
L 388.723226 295.488 
L 389.536897 294.969096 
L 390.350567 294.835924 
L 391.164238 295.201396 
L 391.977908 295.020861 
L 392.791579 295.297012 
L 393.605249 295.099784 
L 394.41892 295.28228 
L 395.232591 294.969747 
L 396.046261 295.143471 
L 396.859932 295.006729 
L 397.673602 295.00192 
L 398.487273 294.863482 
L 398.487273 294.863482 
" style="fill:none;stroke:#1f77b4;stroke-linecap:square;stroke-width:1.5;"/>
   </g>
   <g id="line2d_17">
    <path clip-path="url(#p4d6e4551a6)" d="M 73.832727 292.847762 
L 74.646398 293.025481 
L 75.460068 293.033833 
L 76.273739 292.825479 
L 78.714751 290.670385 
L 79.528421 290.830473 
L 80.342092 284.97241 
L 81.155762 282.234839 
L 81.969433 284.008501 
L 82.783103 284.486835 
L 83.596774 274.372761 
L 84.410444 266.976515 
L 85.224115 275.135701 
L 86.037785 268.171522 
L 86.851456 267.662726 
L 87.665126 265.18897 
L 88.478797 265.301163 
L 89.292468 264.092047 
L 90.106138 261.890808 
L 90.919809 258.629985 
L 91.733479 260.973414 
L 92.54715 252.399596 
L 93.36082 254.270228 
L 94.174491 258.241088 
L 94.988161 245.597137 
L 95.801832 253.466116 
L 96.615502 246.851465 
L 97.429173 249.681699 
L 98.242843 245.239799 
L 99.056514 249.104029 
L 99.870185 234.403313 
L 100.683855 247.715337 
L 101.497526 236.271739 
L 102.311196 248.032283 
L 103.124867 232.012308 
L 103.938537 238.98373 
L 104.752208 241.518446 
L 105.565878 224.596582 
L 106.379549 225.573336 
L 107.193219 233.033907 
L 108.00689 220.143999 
L 108.82056 229.525253 
L 109.634231 227.853439 
L 110.447902 220.917993 
L 111.261572 228.958126 
L 112.075243 234.067738 
L 112.888913 225.6091 
L 114.516254 216.875241 
L 115.329925 215.524176 
L 116.143595 213.612372 
L 116.957266 231.814996 
L 117.770936 229.029727 
L 118.584607 199.289577 
L 119.398278 201.384949 
L 120.211948 217.833667 
L 121.025619 219.363718 
L 121.839289 229.406553 
L 122.65296 206.883863 
L 123.46663 215.830484 
L 124.280301 213.952737 
L 125.093971 204.532597 
L 125.907642 220.583767 
L 126.721312 210.312088 
L 127.534983 211.89864 
L 128.348653 202.306567 
L 129.162324 201.813761 
L 129.975995 200.187639 
L 130.789665 203.467853 
L 131.603336 207.713469 
L 132.417006 206.296328 
L 133.230677 213.314896 
L 134.044347 209.691808 
L 134.858018 211.814682 
L 135.671688 201.459073 
L 136.485359 196.357014 
L 137.299029 197.762623 
L 138.1127 205.162426 
L 138.92637 203.740384 
L 139.740041 205.994421 
L 140.553712 199.399424 
L 141.367382 199.985241 
L 142.181053 208.406985 
L 142.994723 192.83592 
L 144.622064 199.619038 
L 145.435735 193.80109 
L 146.249405 206.017406 
L 147.063076 196.036722 
L 147.876746 200.151619 
L 148.690417 199.804479 
L 149.504087 193.931076 
L 150.317758 185.024233 
L 151.131429 202.993743 
L 151.945099 197.553093 
L 152.75877 196.198767 
L 153.57244 205.113233 
L 154.386111 206.786451 
L 155.199781 194.766987 
L 156.013452 191.563557 
L 156.827122 178.444013 
L 157.640793 200.031875 
L 158.454463 182.420317 
L 159.268134 185.697819 
L 160.081805 184.276574 
L 160.895475 186.566553 
L 161.709146 180.758069 
L 162.522816 185.979275 
L 163.336487 186.384274 
L 164.150157 208.990336 
L 164.963828 183.505877 
L 165.777498 185.297996 
L 166.591169 187.696318 
L 167.404839 185.880594 
L 168.21851 184.968144 
L 169.03218 199.641387 
L 169.845851 184.653155 
L 170.659522 192.315171 
L 171.473192 176.604163 
L 172.286863 204.16477 
L 173.100533 206.111579 
L 173.914204 178.953571 
L 174.727874 182.180699 
L 175.541545 176.946975 
L 176.355215 190.48479 
L 177.168886 171.150823 
L 177.982556 196.662667 
L 178.796227 173.19876 
L 179.609897 187.456186 
L 180.423568 182.770629 
L 181.237239 182.386487 
L 182.050909 175.263865 
L 182.86458 160.111347 
L 183.67825 180.676158 
L 184.491921 168.492079 
L 185.305591 182.935692 
L 186.119262 165.366005 
L 186.932932 176.265327 
L 187.746603 191.123443 
L 188.560273 176.974921 
L 189.373944 171.856957 
L 190.187614 189.03314 
L 191.001285 179.711406 
L 191.814956 178.58972 
L 192.628626 172.89948 
L 193.442297 174.916871 
L 194.255967 180.260988 
L 195.069638 172.222315 
L 195.883308 181.201598 
L 196.696979 167.264922 
L 197.510649 167.779381 
L 198.32432 167.597034 
L 199.13799 167.027386 
L 199.951661 160.763986 
L 200.765332 161.790489 
L 201.579002 159.407669 
L 202.392673 161.859277 
L 203.206343 161.568606 
L 204.020014 176.07783 
L 204.833684 167.213643 
L 205.647355 174.597274 
L 206.461025 175.538072 
L 207.274696 161.563366 
L 208.088366 159.321907 
L 208.902037 155.388262 
L 209.715707 163.643209 
L 210.529378 159.821433 
L 211.343049 157.734012 
L 212.156719 145.50101 
L 212.97039 188.92104 
L 213.78406 178.240763 
L 214.597731 164.561921 
L 215.411401 172.009232 
L 216.225072 162.011361 
L 217.038742 163.188021 
L 217.852413 166.444004 
L 218.666083 166.101011 
L 219.479754 150.828462 
L 220.293424 149.774646 
L 221.107095 148.388957 
L 221.920766 142.859767 
L 222.734436 145.127826 
L 223.548107 142.327025 
L 224.361777 145.713136 
L 225.175448 166.071131 
L 225.989118 151.404622 
L 226.802789 133.771716 
L 227.616459 149.570447 
L 228.43013 126.19813 
L 229.2438 177.101978 
L 230.871141 154.914138 
L 231.684812 145.097023 
L 232.498483 147.207975 
L 233.312153 131.109868 
L 234.125824 146.487073 
L 234.939494 137.204477 
L 235.753165 109.47073 
L 236.566835 119.378222 
L 237.380506 138.376251 
L 238.194176 138.827561 
L 239.007847 107.834461 
L 239.821517 144.094922 
L 240.635188 117.101521 
L 241.448859 124.047546 
L 242.262529 120.990769 
L 243.88987 122.509321 
L 244.703541 100.060227 
L 245.517211 152.632073 
L 246.330882 116.502785 
L 247.144552 118.572254 
L 247.958223 94.303183 
L 248.771893 138.356495 
L 249.585564 92.15538 
L 250.399234 107.302321 
L 251.212905 140.231771 
L 252.026576 123.343444 
L 252.840246 118.009617 
L 253.653917 154.052865 
L 254.467587 114.518084 
L 255.281258 110.021715 
L 256.094928 106.98102 
L 256.908599 87.267615 
L 257.722269 111.338497 
L 258.53594 110.394583 
L 259.34961 95.219331 
L 260.163281 110.850069 
L 260.976951 116.520514 
L 261.790622 97.620249 
L 262.604293 97.935206 
L 263.417963 122.248321 
L 264.231634 104.970847 
L 265.045304 110.763377 
L 265.858975 112.910343 
L 266.672645 85.901465 
L 267.486316 104.650492 
L 268.299986 108.355108 
L 269.113657 86.445336 
L 269.927327 111.655287 
L 270.740998 83.542323 
L 271.554668 92.691177 
L 272.368339 108.165135 
L 273.18201 85.098728 
L 273.99568 118.042312 
L 274.809351 102.325273 
L 275.623021 98.386028 
L 276.436692 136.533193 
L 277.250362 95.030026 
L 278.064033 116.689371 
L 278.877703 89.576827 
L 279.691374 82.230997 
L 280.505044 105.63938 
L 281.318715 98.383371 
L 282.132386 76.147414 
L 282.946056 90.801919 
L 283.759727 98.422318 
L 284.573397 95.354842 
L 285.387068 111.007625 
L 286.200738 88.520991 
L 287.014409 104.441644 
L 287.828079 76.611466 
L 288.64175 101.977045 
L 289.45542 94.249673 
L 290.269091 102.035825 
L 291.082761 107.370316 
L 291.896432 89.003324 
L 292.710103 110.062969 
L 293.523773 100.77385 
L 294.337444 161.712238 
L 295.151114 131.511773 
L 295.964785 117.602128 
L 296.778455 100.46628 
L 297.592126 120.2754 
L 298.405796 105.764753 
L 300.033137 95.328806 
L 300.846808 96.575412 
L 301.660478 101.625773 
L 302.474149 108.595868 
L 303.28782 93.779501 
L 304.10149 97.161392 
L 304.915161 108.459967 
L 305.728831 101.146124 
L 306.542502 105.704406 
L 307.356172 128.91282 
L 308.169843 92.975329 
L 308.983513 81.354655 
L 309.797184 81.433833 
L 310.610854 104.74918 
L 311.424525 109.363277 
L 312.238195 94.751155 
L 313.051866 89.019549 
L 313.865537 79.627638 
L 314.679207 96.015735 
L 315.492878 95.809072 
L 316.306548 102.131174 
L 317.120219 93.053046 
L 317.933889 94.158516 
L 318.74756 84.027755 
L 319.56123 78.788265 
L 320.374901 98.860139 
L 321.188571 92.002184 
L 322.002242 100.171616 
L 322.815913 82.900111 
L 323.629583 100.354162 
L 324.443254 102.520083 
L 325.256924 86.005601 
L 326.070595 93.41822 
L 326.884265 95.442004 
L 327.697936 76.03209 
L 328.511606 100.126223 
L 329.325277 84.884828 
L 330.138947 103.653154 
L 330.952618 91.321343 
L 331.766288 83.198658 
L 332.579959 101.027825 
L 333.39363 94.063937 
L 334.2073 93.176531 
L 335.020971 98.170929 
L 335.834641 80.534966 
L 336.648312 87.879492 
L 337.461982 88.87463 
L 338.275653 83.095366 
L 339.089323 82.782227 
L 339.902994 98.317375 
L 340.716664 93.375254 
L 341.530335 198.882567 
L 342.344005 99.794823 
L 343.157676 97.320316 
L 343.971347 79.842339 
L 344.785017 73.660556 
L 345.598688 112.316254 
L 346.412358 86.011504 
L 347.226029 87.20988 
L 348.039699 87.693235 
L 348.85337 95.800567 
L 349.66704 73.034648 
L 350.480711 84.07004 
L 351.294381 87.148686 
L 352.108052 156.882353 
L 352.921722 88.881755 
L 353.735393 90.758342 
L 354.549064 100.553042 
L 355.362734 93.869331 
L 356.176405 96.707774 
L 356.990075 91.979723 
L 357.803746 91.673146 
L 358.617416 89.724691 
L 359.431087 86.712043 
L 360.244757 96.206918 
L 361.058428 118.982659 
L 361.872098 100.645924 
L 362.685769 99.570305 
L 363.49944 95.732894 
L 364.31311 75.707903 
L 365.126781 109.660943 
L 365.940451 107.941485 
L 366.754122 119.347384 
L 367.567792 100.31099 
L 368.381463 73.346466 
L 369.195133 103.957154 
L 370.008804 91.916273 
L 370.822474 92.491199 
L 371.636145 97.43664 
L 372.449815 92.616306 
L 373.263486 100.788206 
L 374.077157 89.021091 
L 374.890827 88.509047 
L 375.704498 95.875181 
L 376.518168 106.395455 
L 378.145509 84.425467 
L 378.95918 104.031706 
L 379.77285 98.767332 
L 380.586521 73.445159 
L 381.400191 102.647664 
L 382.213862 82.707558 
L 383.027532 53.568 
L 384.654874 90.866409 
L 385.468544 102.212262 
L 386.282215 79.044683 
L 387.095885 78.247649 
L 387.909556 92.965187 
L 388.723226 71.789823 
L 389.536897 90.688947 
L 390.350567 57.394268 
L 391.164238 79.132468 
L 391.977908 88.864766 
L 392.791579 101.491567 
L 393.605249 100.970962 
L 394.41892 96.378345 
L 395.232591 75.330828 
L 396.046261 90.599529 
L 396.859932 83.205865 
L 397.673602 71.334821 
L 398.487273 65.623082 
L 398.487273 65.623082 
" style="fill:none;stroke:#ff7f0e;stroke-linecap:square;stroke-width:1.5;"/>
   </g>
   <g id="patch_3">
    <path d="M 57.6 307.584 
L 57.6 41.472 
" style="fill:none;stroke:#000000;stroke-linecap:square;stroke-linejoin:miter;stroke-width:0.8;"/>
   </g>
   <g id="patch_4">
    <path d="M 414.72 307.584 
L 414.72 41.472 
" style="fill:none;stroke:#000000;stroke-linecap:square;stroke-linejoin:miter;stroke-width:0.8;"/>
   </g>
   <g id="patch_5">
    <path d="M 57.6 307.584 
L 414.72 307.584 
" style="fill:none;stroke:#000000;stroke-linecap:square;stroke-linejoin:miter;stroke-width:0.8;"/>
   </g>
   <g id="patch_6">
    <path d="M 57.6 41.472 
L 414.72 41.472 
" style="fill:none;stroke:#000000;stroke-linecap:square;stroke-linejoin:miter;stroke-width:0.8;"/>
   </g>
   <g id="legend_1">
    <g id="patch_7">
     <path d="M 64.6 78.82825 
L 168.475 78.82825 
Q 170.475 78.82825 170.475 76.82825 
L 170.475 48.472 
Q 170.475 46.472 168.475 46.472 
L 64.6 46.472 
Q 62.6 46.472 62.6 48.472 
L 62.6 76.82825 
Q 62.6 78.82825 64.6 78.82825 
z
" style="fill:#ffffff;opacity:0.8;stroke:#cccccc;stroke-linejoin:miter;"/>
    </g>
    <g id="line2d_18">
     <path d="M 66.6 54.570437 
L 86.6 54.570437 
" style="fill:none;stroke:#1f77b4;stroke-linecap:square;stroke-width:1.5;"/>
    </g>
    <g id="line2d_19"/>
    <g id="text_18">
     <!-- Train loss -->
     <g transform="translate(94.6 58.070437)scale(0.1 -0.1)">
      <defs>
       <path d="M -19 4666 
L 3928 4666 
L 3928 4134 
L 2272 4134 
L 2272 0 
L 1638 0 
L 1638 4134 
L -19 4134 
L -19 4666 
z
" id="DejaVuSans-54" transform="scale(0.015625)"/>
       <path d="M 2631 2963 
Q 2534 3019 2420 3045 
Q 2306 3072 2169 3072 
Q 1681 3072 1420 2755 
Q 1159 2438 1159 1844 
L 1159 0 
L 581 0 
L 581 3500 
L 1159 3500 
L 1159 2956 
Q 1341 3275 1631 3429 
Q 1922 3584 2338 3584 
Q 2397 3584 2469 3576 
Q 2541 3569 2628 3553 
L 2631 2963 
z
" id="DejaVuSans-72" transform="scale(0.015625)"/>
       <path d="M 2194 1759 
Q 1497 1759 1228 1600 
Q 959 1441 959 1056 
Q 959 750 1161 570 
Q 1363 391 1709 391 
Q 2188 391 2477 730 
Q 2766 1069 2766 1631 
L 2766 1759 
L 2194 1759 
z
M 3341 1997 
L 3341 0 
L 2766 0 
L 2766 531 
Q 2569 213 2275 61 
Q 1981 -91 1556 -91 
Q 1019 -91 701 211 
Q 384 513 384 1019 
Q 384 1609 779 1909 
Q 1175 2209 1959 2209 
L 2766 2209 
L 2766 2266 
Q 2766 2663 2505 2880 
Q 2244 3097 1772 3097 
Q 1472 3097 1187 3025 
Q 903 2953 641 2809 
L 641 3341 
Q 956 3463 1253 3523 
Q 1550 3584 1831 3584 
Q 2591 3584 2966 3190 
Q 3341 2797 3341 1997 
z
" id="DejaVuSans-61" transform="scale(0.015625)"/>
       <path d="M 603 3500 
L 1178 3500 
L 1178 0 
L 603 0 
L 603 3500 
z
M 603 4863 
L 1178 4863 
L 1178 4134 
L 603 4134 
L 603 4863 
z
" id="DejaVuSans-69" transform="scale(0.015625)"/>
       <path d="M 3513 2113 
L 3513 0 
L 2938 0 
L 2938 2094 
Q 2938 2591 2744 2837 
Q 2550 3084 2163 3084 
Q 1697 3084 1428 2787 
Q 1159 2491 1159 1978 
L 1159 0 
L 581 0 
L 581 3500 
L 1159 3500 
L 1159 2956 
Q 1366 3272 1645 3428 
Q 1925 3584 2291 3584 
Q 2894 3584 3203 3211 
Q 3513 2838 3513 2113 
z
" id="DejaVuSans-6e" transform="scale(0.015625)"/>
       <path id="DejaVuSans-20" transform="scale(0.015625)"/>
       <path d="M 603 4863 
L 1178 4863 
L 1178 0 
L 603 0 
L 603 4863 
z
" id="DejaVuSans-6c" transform="scale(0.015625)"/>
      </defs>
      <use xlink:href="#DejaVuSans-54"/>
      <use x="46.333984" xlink:href="#DejaVuSans-72"/>
      <use x="87.447266" xlink:href="#DejaVuSans-61"/>
      <use x="148.726562" xlink:href="#DejaVuSans-69"/>
      <use x="176.509766" xlink:href="#DejaVuSans-6e"/>
      <use x="239.888672" xlink:href="#DejaVuSans-20"/>
      <use x="271.675781" xlink:href="#DejaVuSans-6c"/>
      <use x="299.458984" xlink:href="#DejaVuSans-6f"/>
      <use x="360.640625" xlink:href="#DejaVuSans-73"/>
      <use x="412.740234" xlink:href="#DejaVuSans-73"/>
     </g>
    </g>
    <g id="line2d_20">
     <path d="M 66.6 69.248562 
L 86.6 69.248562 
" style="fill:none;stroke:#ff7f0e;stroke-linecap:square;stroke-width:1.5;"/>
    </g>
    <g id="line2d_21"/>
    <g id="text_19">
     <!-- Validation loss -->
     <g transform="translate(94.6 72.748562)scale(0.1 -0.1)">
      <defs>
       <path d="M 1831 0 
L 50 4666 
L 709 4666 
L 2188 738 
L 3669 4666 
L 4325 4666 
L 2547 0 
L 1831 0 
z
" id="DejaVuSans-56" transform="scale(0.015625)"/>
       <path d="M 2906 2969 
L 2906 4863 
L 3481 4863 
L 3481 0 
L 2906 0 
L 2906 525 
Q 2725 213 2448 61 
Q 2172 -91 1784 -91 
Q 1150 -91 751 415 
Q 353 922 353 1747 
Q 353 2572 751 3078 
Q 1150 3584 1784 3584 
Q 2172 3584 2448 3432 
Q 2725 3281 2906 2969 
z
M 947 1747 
Q 947 1113 1208 752 
Q 1469 391 1925 391 
Q 2381 391 2643 752 
Q 2906 1113 2906 1747 
Q 2906 2381 2643 2742 
Q 2381 3103 1925 3103 
Q 1469 3103 1208 2742 
Q 947 2381 947 1747 
z
" id="DejaVuSans-64" transform="scale(0.015625)"/>
       <path d="M 1172 4494 
L 1172 3500 
L 2356 3500 
L 2356 3053 
L 1172 3053 
L 1172 1153 
Q 1172 725 1289 603 
Q 1406 481 1766 481 
L 2356 481 
L 2356 0 
L 1766 0 
Q 1100 0 847 248 
Q 594 497 594 1153 
L 594 3053 
L 172 3053 
L 172 3500 
L 594 3500 
L 594 4494 
L 1172 4494 
z
" id="DejaVuSans-74" transform="scale(0.015625)"/>
      </defs>
      <use xlink:href="#DejaVuSans-56"/>
      <use x="60.658203" xlink:href="#DejaVuSans-61"/>
      <use x="121.9375" xlink:href="#DejaVuSans-6c"/>
      <use x="149.720703" xlink:href="#DejaVuSans-69"/>
      <use x="177.503906" xlink:href="#DejaVuSans-64"/>
      <use x="240.980469" xlink:href="#DejaVuSans-61"/>
      <use x="302.259766" xlink:href="#DejaVuSans-74"/>
      <use x="341.46875" xlink:href="#DejaVuSans-69"/>
      <use x="369.251953" xlink:href="#DejaVuSans-6f"/>
      <use x="430.433594" xlink:href="#DejaVuSans-6e"/>
      <use x="493.8125" xlink:href="#DejaVuSans-20"/>
      <use x="525.599609" xlink:href="#DejaVuSans-6c"/>
      <use x="553.382812" xlink:href="#DejaVuSans-6f"/>
      <use x="614.564453" xlink:href="#DejaVuSans-73"/>
      <use x="666.664062" xlink:href="#DejaVuSans-73"/>
     </g>
    </g>
   </g>
  </g>
 </g>
 <defs>
  <clipPath id="p4d6e4551a6">
   <rect height="266.112" width="357.12" x="57.6" y="41.472"/>
  </clipPath>
 </defs>
</svg>
