<?xml version="1.0" encoding="utf-8" standalone="no"?>
<!DOCTYPE svg PUBLIC "-//W3C//DTD SVG 1.1//EN"
  "http://www.w3.org/Graphics/SVG/1.1/DTD/svg11.dtd">
<svg height="345.6pt" version="1.1" viewBox="0 0 460.8 345.6" width="460.8pt" xmlns="http://www.w3.org/2000/svg" xmlns:xlink="http://www.w3.org/1999/xlink">
 <metadata>
  <rdf:RDF xmlns:cc="http://creativecommons.org/ns#" xmlns:dc="http://purl.org/dc/elements/1.1/" xmlns:rdf="http://www.w3.org/1999/02/22-rdf-syntax-ns#">
   <cc:Work>
    <dc:type rdf:resource="http://purl.org/dc/dcmitype/StillImage"/>
    <dc:date>2021-08-06T10:52:25.716508</dc:date>
    <dc:format>image/svg+xml</dc:format>
    <dc:creator>
     <cc:Agent>
      <dc:title>Matplotlib v3.4.1, https://matplotlib.org/</dc:title>
     </cc:Agent>
    </dc:creator>
   </cc:Work>
  </rdf:RDF>
 </metadata>
 <defs>
  <style type="text/css">*{stroke-linecap:butt;stroke-linejoin:round;}</style>
 </defs>
 <g id="figure_1">
  <g id="patch_1">
   <path d="M 0 345.6 
L 460.8 345.6 
L 460.8 0 
L 0 0 
z
" style="fill:#ffffff;"/>
  </g>
  <g id="axes_1">
   <g id="patch_2">
    <path d="M 57.6 307.584 
L 414.72 307.584 
L 414.72 41.472 
L 57.6 41.472 
z
" style="fill:#ffffff;"/>
   </g>
   <g id="matplotlib.axis_1">
    <g id="xtick_1">
     <g id="line2d_1">
      <defs>
       <path d="M 0 0 
L 0 3.5 
" id="m4dd9512fc4" style="stroke:#000000;stroke-width:0.8;"/>
      </defs>
      <g>
       <use style="stroke:#000000;stroke-width:0.8;" x="73.182117" xlink:href="#m4dd9512fc4" y="307.584"/>
      </g>
     </g>
     <g id="text_1">
      <!-- 0 -->
      <g transform="translate(70.000867 322.182437)scale(0.1 -0.1)">
       <defs>
        <path d="M 2034 4250 
Q 1547 4250 1301 3770 
Q 1056 3291 1056 2328 
Q 1056 1369 1301 889 
Q 1547 409 2034 409 
Q 2525 409 2770 889 
Q 3016 1369 3016 2328 
Q 3016 3291 2770 3770 
Q 2525 4250 2034 4250 
z
M 2034 4750 
Q 2819 4750 3233 4129 
Q 3647 3509 3647 2328 
Q 3647 1150 3233 529 
Q 2819 -91 2034 -91 
Q 1250 -91 836 529 
Q 422 1150 422 2328 
Q 422 3509 836 4129 
Q 1250 4750 2034 4750 
z
" id="DejaVuSans-30" transform="scale(0.015625)"/>
       </defs>
       <use xlink:href="#DejaVuSans-30"/>
      </g>
     </g>
    </g>
    <g id="xtick_2">
     <g id="line2d_2">
      <g>
       <use style="stroke:#000000;stroke-width:0.8;" x="138.243148" xlink:href="#m4dd9512fc4" y="307.584"/>
      </g>
     </g>
     <g id="text_2">
      <!-- 100 -->
      <g transform="translate(128.699398 322.182437)scale(0.1 -0.1)">
       <defs>
        <path d="M 794 531 
L 1825 531 
L 1825 4091 
L 703 3866 
L 703 4441 
L 1819 4666 
L 2450 4666 
L 2450 531 
L 3481 531 
L 3481 0 
L 794 0 
L 794 531 
z
" id="DejaVuSans-31" transform="scale(0.015625)"/>
       </defs>
       <use xlink:href="#DejaVuSans-31"/>
       <use x="63.623047" xlink:href="#DejaVuSans-30"/>
       <use x="127.246094" xlink:href="#DejaVuSans-30"/>
      </g>
     </g>
    </g>
    <g id="xtick_3">
     <g id="line2d_3">
      <g>
       <use style="stroke:#000000;stroke-width:0.8;" x="203.304179" xlink:href="#m4dd9512fc4" y="307.584"/>
      </g>
     </g>
     <g id="text_3">
      <!-- 200 -->
      <g transform="translate(193.760429 322.182437)scale(0.1 -0.1)">
       <defs>
        <path d="M 1228 531 
L 3431 531 
L 3431 0 
L 469 0 
L 469 531 
Q 828 903 1448 1529 
Q 2069 2156 2228 2338 
Q 2531 2678 2651 2914 
Q 2772 3150 2772 3378 
Q 2772 3750 2511 3984 
Q 2250 4219 1831 4219 
Q 1534 4219 1204 4116 
Q 875 4013 500 3803 
L 500 4441 
Q 881 4594 1212 4672 
Q 1544 4750 1819 4750 
Q 2544 4750 2975 4387 
Q 3406 4025 3406 3419 
Q 3406 3131 3298 2873 
Q 3191 2616 2906 2266 
Q 2828 2175 2409 1742 
Q 1991 1309 1228 531 
z
" id="DejaVuSans-32" transform="scale(0.015625)"/>
       </defs>
       <use xlink:href="#DejaVuSans-32"/>
       <use x="63.623047" xlink:href="#DejaVuSans-30"/>
       <use x="127.246094" xlink:href="#DejaVuSans-30"/>
      </g>
     </g>
    </g>
    <g id="xtick_4">
     <g id="line2d_4">
      <g>
       <use style="stroke:#000000;stroke-width:0.8;" x="268.36521" xlink:href="#m4dd9512fc4" y="307.584"/>
      </g>
     </g>
     <g id="text_4">
      <!-- 300 -->
      <g transform="translate(258.82146 322.182437)scale(0.1 -0.1)">
       <defs>
        <path d="M 2597 2516 
Q 3050 2419 3304 2112 
Q 3559 1806 3559 1356 
Q 3559 666 3084 287 
Q 2609 -91 1734 -91 
Q 1441 -91 1130 -33 
Q 819 25 488 141 
L 488 750 
Q 750 597 1062 519 
Q 1375 441 1716 441 
Q 2309 441 2620 675 
Q 2931 909 2931 1356 
Q 2931 1769 2642 2001 
Q 2353 2234 1838 2234 
L 1294 2234 
L 1294 2753 
L 1863 2753 
Q 2328 2753 2575 2939 
Q 2822 3125 2822 3475 
Q 2822 3834 2567 4026 
Q 2313 4219 1838 4219 
Q 1578 4219 1281 4162 
Q 984 4106 628 3988 
L 628 4550 
Q 988 4650 1302 4700 
Q 1616 4750 1894 4750 
Q 2613 4750 3031 4423 
Q 3450 4097 3450 3541 
Q 3450 3153 3228 2886 
Q 3006 2619 2597 2516 
z
" id="DejaVuSans-33" transform="scale(0.015625)"/>
       </defs>
       <use xlink:href="#DejaVuSans-33"/>
       <use x="63.623047" xlink:href="#DejaVuSans-30"/>
       <use x="127.246094" xlink:href="#DejaVuSans-30"/>
      </g>
     </g>
    </g>
    <g id="xtick_5">
     <g id="line2d_5">
      <g>
       <use style="stroke:#000000;stroke-width:0.8;" x="333.426242" xlink:href="#m4dd9512fc4" y="307.584"/>
      </g>
     </g>
     <g id="text_5">
      <!-- 400 -->
      <g transform="translate(323.882492 322.182437)scale(0.1 -0.1)">
       <defs>
        <path d="M 2419 4116 
L 825 1625 
L 2419 1625 
L 2419 4116 
z
M 2253 4666 
L 3047 4666 
L 3047 1625 
L 3713 1625 
L 3713 1100 
L 3047 1100 
L 3047 0 
L 2419 0 
L 2419 1100 
L 313 1100 
L 313 1709 
L 2253 4666 
z
" id="DejaVuSans-34" transform="scale(0.015625)"/>
       </defs>
       <use xlink:href="#DejaVuSans-34"/>
       <use x="63.623047" xlink:href="#DejaVuSans-30"/>
       <use x="127.246094" xlink:href="#DejaVuSans-30"/>
      </g>
     </g>
    </g>
    <g id="xtick_6">
     <g id="line2d_6">
      <g>
       <use style="stroke:#000000;stroke-width:0.8;" x="398.487273" xlink:href="#m4dd9512fc4" y="307.584"/>
      </g>
     </g>
     <g id="text_6">
      <!-- 500 -->
      <g transform="translate(388.943523 322.182437)scale(0.1 -0.1)">
       <defs>
        <path d="M 691 4666 
L 3169 4666 
L 3169 4134 
L 1269 4134 
L 1269 2991 
Q 1406 3038 1543 3061 
Q 1681 3084 1819 3084 
Q 2600 3084 3056 2656 
Q 3513 2228 3513 1497 
Q 3513 744 3044 326 
Q 2575 -91 1722 -91 
Q 1428 -91 1123 -41 
Q 819 9 494 109 
L 494 744 
Q 775 591 1075 516 
Q 1375 441 1709 441 
Q 2250 441 2565 725 
Q 2881 1009 2881 1497 
Q 2881 1984 2565 2268 
Q 2250 2553 1709 2553 
Q 1456 2553 1204 2497 
Q 953 2441 691 2322 
L 691 4666 
z
" id="DejaVuSans-35" transform="scale(0.015625)"/>
       </defs>
       <use xlink:href="#DejaVuSans-35"/>
       <use x="63.623047" xlink:href="#DejaVuSans-30"/>
       <use x="127.246094" xlink:href="#DejaVuSans-30"/>
      </g>
     </g>
    </g>
    <g id="text_7">
     <!-- Epoch -->
     <g transform="translate(213.193594 339.659781)scale(0.15 -0.15)">
      <defs>
       <path d="M 628 4666 
L 3578 4666 
L 3578 4134 
L 1259 4134 
L 1259 2753 
L 3481 2753 
L 3481 2222 
L 1259 2222 
L 1259 531 
L 3634 531 
L 3634 0 
L 628 0 
L 628 4666 
z
" id="DejaVuSans-45" transform="scale(0.015625)"/>
       <path d="M 1159 525 
L 1159 -1331 
L 581 -1331 
L 581 3500 
L 1159 3500 
L 1159 2969 
Q 1341 3281 1617 3432 
Q 1894 3584 2278 3584 
Q 2916 3584 3314 3078 
Q 3713 2572 3713 1747 
Q 3713 922 3314 415 
Q 2916 -91 2278 -91 
Q 1894 -91 1617 61 
Q 1341 213 1159 525 
z
M 3116 1747 
Q 3116 2381 2855 2742 
Q 2594 3103 2138 3103 
Q 1681 3103 1420 2742 
Q 1159 2381 1159 1747 
Q 1159 1113 1420 752 
Q 1681 391 2138 391 
Q 2594 391 2855 752 
Q 3116 1113 3116 1747 
z
" id="DejaVuSans-70" transform="scale(0.015625)"/>
       <path d="M 1959 3097 
Q 1497 3097 1228 2736 
Q 959 2375 959 1747 
Q 959 1119 1226 758 
Q 1494 397 1959 397 
Q 2419 397 2687 759 
Q 2956 1122 2956 1747 
Q 2956 2369 2687 2733 
Q 2419 3097 1959 3097 
z
M 1959 3584 
Q 2709 3584 3137 3096 
Q 3566 2609 3566 1747 
Q 3566 888 3137 398 
Q 2709 -91 1959 -91 
Q 1206 -91 779 398 
Q 353 888 353 1747 
Q 353 2609 779 3096 
Q 1206 3584 1959 3584 
z
" id="DejaVuSans-6f" transform="scale(0.015625)"/>
       <path d="M 3122 3366 
L 3122 2828 
Q 2878 2963 2633 3030 
Q 2388 3097 2138 3097 
Q 1578 3097 1268 2742 
Q 959 2388 959 1747 
Q 959 1106 1268 751 
Q 1578 397 2138 397 
Q 2388 397 2633 464 
Q 2878 531 3122 666 
L 3122 134 
Q 2881 22 2623 -34 
Q 2366 -91 2075 -91 
Q 1284 -91 818 406 
Q 353 903 353 1747 
Q 353 2603 823 3093 
Q 1294 3584 2113 3584 
Q 2378 3584 2631 3529 
Q 2884 3475 3122 3366 
z
" id="DejaVuSans-63" transform="scale(0.015625)"/>
       <path d="M 3513 2113 
L 3513 0 
L 2938 0 
L 2938 2094 
Q 2938 2591 2744 2837 
Q 2550 3084 2163 3084 
Q 1697 3084 1428 2787 
Q 1159 2491 1159 1978 
L 1159 0 
L 581 0 
L 581 4863 
L 1159 4863 
L 1159 2956 
Q 1366 3272 1645 3428 
Q 1925 3584 2291 3584 
Q 2894 3584 3203 3211 
Q 3513 2838 3513 2113 
z
" id="DejaVuSans-68" transform="scale(0.015625)"/>
      </defs>
      <use xlink:href="#DejaVuSans-45"/>
      <use x="63.183594" xlink:href="#DejaVuSans-70"/>
      <use x="126.660156" xlink:href="#DejaVuSans-6f"/>
      <use x="187.841797" xlink:href="#DejaVuSans-63"/>
      <use x="242.822266" xlink:href="#DejaVuSans-68"/>
     </g>
    </g>
   </g>
   <g id="matplotlib.axis_2">
    <g id="ytick_1">
     <g id="line2d_7">
      <defs>
       <path d="M 0 0 
L -3.5 0 
" id="m2f54d8faa5" style="stroke:#000000;stroke-width:0.8;"/>
      </defs>
      <g>
       <use style="stroke:#000000;stroke-width:0.8;" x="57.6" xlink:href="#m2f54d8faa5" y="306.963956"/>
      </g>
     </g>
     <g id="text_8">
      <!-- −1200 -->
      <g transform="translate(16.770313 310.763175)scale(0.1 -0.1)">
       <defs>
        <path d="M 678 2272 
L 4684 2272 
L 4684 1741 
L 678 1741 
L 678 2272 
z
" id="DejaVuSans-2212" transform="scale(0.015625)"/>
       </defs>
       <use xlink:href="#DejaVuSans-2212"/>
       <use x="83.789062" xlink:href="#DejaVuSans-31"/>
       <use x="147.412109" xlink:href="#DejaVuSans-32"/>
       <use x="211.035156" xlink:href="#DejaVuSans-30"/>
       <use x="274.658203" xlink:href="#DejaVuSans-30"/>
      </g>
     </g>
    </g>
    <g id="ytick_2">
     <g id="line2d_8">
      <g>
       <use style="stroke:#000000;stroke-width:0.8;" x="57.6" xlink:href="#m2f54d8faa5" y="267.68236"/>
      </g>
     </g>
     <g id="text_9">
      <!-- −1000 -->
      <g transform="translate(16.770313 271.481579)scale(0.1 -0.1)">
       <use xlink:href="#DejaVuSans-2212"/>
       <use x="83.789062" xlink:href="#DejaVuSans-31"/>
       <use x="147.412109" xlink:href="#DejaVuSans-30"/>
       <use x="211.035156" xlink:href="#DejaVuSans-30"/>
       <use x="274.658203" xlink:href="#DejaVuSans-30"/>
      </g>
     </g>
    </g>
    <g id="ytick_3">
     <g id="line2d_9">
      <g>
       <use style="stroke:#000000;stroke-width:0.8;" x="57.6" xlink:href="#m2f54d8faa5" y="228.400764"/>
      </g>
     </g>
     <g id="text_10">
      <!-- −800 -->
      <g transform="translate(23.132812 232.199983)scale(0.1 -0.1)">
       <defs>
        <path d="M 2034 2216 
Q 1584 2216 1326 1975 
Q 1069 1734 1069 1313 
Q 1069 891 1326 650 
Q 1584 409 2034 409 
Q 2484 409 2743 651 
Q 3003 894 3003 1313 
Q 3003 1734 2745 1975 
Q 2488 2216 2034 2216 
z
M 1403 2484 
Q 997 2584 770 2862 
Q 544 3141 544 3541 
Q 544 4100 942 4425 
Q 1341 4750 2034 4750 
Q 2731 4750 3128 4425 
Q 3525 4100 3525 3541 
Q 3525 3141 3298 2862 
Q 3072 2584 2669 2484 
Q 3125 2378 3379 2068 
Q 3634 1759 3634 1313 
Q 3634 634 3220 271 
Q 2806 -91 2034 -91 
Q 1263 -91 848 271 
Q 434 634 434 1313 
Q 434 1759 690 2068 
Q 947 2378 1403 2484 
z
M 1172 3481 
Q 1172 3119 1398 2916 
Q 1625 2713 2034 2713 
Q 2441 2713 2670 2916 
Q 2900 3119 2900 3481 
Q 2900 3844 2670 4047 
Q 2441 4250 2034 4250 
Q 1625 4250 1398 4047 
Q 1172 3844 1172 3481 
z
" id="DejaVuSans-38" transform="scale(0.015625)"/>
       </defs>
       <use xlink:href="#DejaVuSans-2212"/>
       <use x="83.789062" xlink:href="#DejaVuSans-38"/>
       <use x="147.412109" xlink:href="#DejaVuSans-30"/>
       <use x="211.035156" xlink:href="#DejaVuSans-30"/>
      </g>
     </g>
    </g>
    <g id="ytick_4">
     <g id="line2d_10">
      <g>
       <use style="stroke:#000000;stroke-width:0.8;" x="57.6" xlink:href="#m2f54d8faa5" y="189.119168"/>
      </g>
     </g>
     <g id="text_11">
      <!-- −600 -->
      <g transform="translate(23.132812 192.918387)scale(0.1 -0.1)">
       <defs>
        <path d="M 2113 2584 
Q 1688 2584 1439 2293 
Q 1191 2003 1191 1497 
Q 1191 994 1439 701 
Q 1688 409 2113 409 
Q 2538 409 2786 701 
Q 3034 994 3034 1497 
Q 3034 2003 2786 2293 
Q 2538 2584 2113 2584 
z
M 3366 4563 
L 3366 3988 
Q 3128 4100 2886 4159 
Q 2644 4219 2406 4219 
Q 1781 4219 1451 3797 
Q 1122 3375 1075 2522 
Q 1259 2794 1537 2939 
Q 1816 3084 2150 3084 
Q 2853 3084 3261 2657 
Q 3669 2231 3669 1497 
Q 3669 778 3244 343 
Q 2819 -91 2113 -91 
Q 1303 -91 875 529 
Q 447 1150 447 2328 
Q 447 3434 972 4092 
Q 1497 4750 2381 4750 
Q 2619 4750 2861 4703 
Q 3103 4656 3366 4563 
z
" id="DejaVuSans-36" transform="scale(0.015625)"/>
       </defs>
       <use xlink:href="#DejaVuSans-2212"/>
       <use x="83.789062" xlink:href="#DejaVuSans-36"/>
       <use x="147.412109" xlink:href="#DejaVuSans-30"/>
       <use x="211.035156" xlink:href="#DejaVuSans-30"/>
      </g>
     </g>
    </g>
    <g id="ytick_5">
     <g id="line2d_11">
      <g>
       <use style="stroke:#000000;stroke-width:0.8;" x="57.6" xlink:href="#m2f54d8faa5" y="149.837572"/>
      </g>
     </g>
     <g id="text_12">
      <!-- −400 -->
      <g transform="translate(23.132812 153.636791)scale(0.1 -0.1)">
       <use xlink:href="#DejaVuSans-2212"/>
       <use x="83.789062" xlink:href="#DejaVuSans-34"/>
       <use x="147.412109" xlink:href="#DejaVuSans-30"/>
       <use x="211.035156" xlink:href="#DejaVuSans-30"/>
      </g>
     </g>
    </g>
    <g id="ytick_6">
     <g id="line2d_12">
      <g>
       <use style="stroke:#000000;stroke-width:0.8;" x="57.6" xlink:href="#m2f54d8faa5" y="110.555976"/>
      </g>
     </g>
     <g id="text_13">
      <!-- −200 -->
      <g transform="translate(23.132812 114.355195)scale(0.1 -0.1)">
       <use xlink:href="#DejaVuSans-2212"/>
       <use x="83.789062" xlink:href="#DejaVuSans-32"/>
       <use x="147.412109" xlink:href="#DejaVuSans-30"/>
       <use x="211.035156" xlink:href="#DejaVuSans-30"/>
      </g>
     </g>
    </g>
    <g id="ytick_7">
     <g id="line2d_13">
      <g>
       <use style="stroke:#000000;stroke-width:0.8;" x="57.6" xlink:href="#m2f54d8faa5" y="71.27438"/>
      </g>
     </g>
     <g id="text_14">
      <!-- 0 -->
      <g transform="translate(44.2375 75.073599)scale(0.1 -0.1)">
       <use xlink:href="#DejaVuSans-30"/>
      </g>
     </g>
    </g>
   </g>
   <g id="line2d_14">
    <path clip-path="url(#p9ccddb774b)" d="M 73.832727 53.568 
L 74.483338 139.056035 
L 75.133948 145.782266 
L 76.435169 148.233528 
L 77.085779 148.688242 
L 77.736389 148.385826 
L 79.03761 153.313777 
L 79.68822 158.370176 
L 80.33883 160.886542 
L 81.640051 168.688815 
L 82.290661 168.87561 
L 83.591882 178.399049 
L 84.242492 179.424018 
L 85.543713 187.958307 
L 86.194323 190.277524 
L 86.844934 189.407569 
L 87.495544 192.709587 
L 88.146154 192.874205 
L 88.796764 196.554829 
L 89.447375 196.682914 
L 90.097985 197.249607 
L 90.748595 200.405949 
L 91.399206 202.01644 
L 92.049816 202.848075 
L 92.700426 201.782313 
L 93.351037 207.344527 
L 94.001647 206.661084 
L 94.652257 211.28175 
L 95.953478 214.527747 
L 96.604088 217.032072 
L 97.254698 216.996036 
L 98.555919 221.664504 
L 99.206529 222.637079 
L 99.85714 224.348314 
L 100.50775 225.426858 
L 101.15836 227.29546 
L 101.808971 227.222433 
L 102.459581 228.355519 
L 103.110191 230.254492 
L 103.760802 229.134852 
L 104.411412 229.753589 
L 105.062022 231.478352 
L 105.712633 232.348805 
L 106.363243 233.793201 
L 107.013853 233.459057 
L 107.664463 235.365175 
L 108.315074 235.6872 
L 108.965684 235.19195 
L 109.616294 235.424923 
L 110.266905 237.631507 
L 110.917515 237.384377 
L 111.568125 238.429011 
L 112.218736 238.837596 
L 112.869346 238.677208 
L 113.519956 238.704229 
L 114.170567 239.273414 
L 114.821177 239.498098 
L 115.471787 241.182003 
L 116.122398 241.713281 
L 116.773008 241.817893 
L 117.423618 243.41273 
L 118.074228 242.778235 
L 118.724839 242.937772 
L 119.375449 244.512421 
L 120.026059 242.591519 
L 120.67667 245.190006 
L 121.32728 245.109856 
L 121.97789 245.690338 
L 122.628501 246.989248 
L 123.279111 246.960958 
L 123.929721 248.537913 
L 124.580332 247.779869 
L 125.230942 247.283799 
L 125.881552 248.364396 
L 126.532163 249.844779 
L 127.182773 250.09028 
L 127.833383 249.433746 
L 128.483993 246.821065 
L 129.134604 249.538239 
L 129.785214 250.793592 
L 130.435824 251.583236 
L 131.086435 251.742505 
L 131.737045 251.237097 
L 132.387655 252.63975 
L 133.038266 252.529432 
L 133.688876 253.106726 
L 134.339486 254.573785 
L 134.990097 253.511991 
L 135.640707 254.872129 
L 136.291317 255.353578 
L 136.941927 255.145004 
L 137.592538 256.382393 
L 138.893758 255.782793 
L 139.544369 256.235686 
L 140.194979 257.160659 
L 141.4962 257.906045 
L 142.14681 256.805456 
L 142.79742 257.703575 
L 143.448031 258.847823 
L 144.098641 258.318591 
L 144.749251 259.269348 
L 145.399862 258.871871 
L 146.050472 255.885941 
L 146.701082 259.55403 
L 147.351692 258.848463 
L 148.652913 261.145302 
L 149.303523 260.768521 
L 149.954134 261.243696 
L 150.604744 258.747724 
L 151.255354 260.611282 
L 151.905965 246.912562 
L 152.556575 244.402992 
L 153.207185 254.95852 
L 153.857796 258.594499 
L 154.508406 258.779015 
L 155.809627 262.147779 
L 156.460237 262.517311 
L 157.110847 263.616869 
L 157.761457 262.86326 
L 158.412068 264.109861 
L 159.062678 263.786065 
L 159.713288 261.894037 
L 160.363899 263.77016 
L 161.014509 264.321745 
L 161.665119 264.026352 
L 162.31573 264.174927 
L 162.96634 264.530662 
L 163.61695 265.365067 
L 164.267561 265.277102 
L 165.568781 266.010202 
L 166.219392 265.458247 
L 166.870002 265.638918 
L 167.520612 266.985958 
L 168.171222 265.659003 
L 168.821833 266.714218 
L 169.472443 267.307811 
L 170.123053 267.492446 
L 170.773664 268.205286 
L 171.424274 268.165939 
L 172.074884 267.780842 
L 172.725495 267.861379 
L 174.026715 269.199923 
L 175.327936 269.041912 
L 175.978546 268.767496 
L 177.930377 269.269794 
L 178.580987 266.463457 
L 179.231598 269.478257 
L 179.882208 271.003929 
L 180.532818 270.118198 
L 181.183429 270.719848 
L 181.834039 270.539134 
L 182.484649 270.520675 
L 183.13526 270.368413 
L 183.78587 269.830135 
L 184.43648 271.694714 
L 185.087091 270.528182 
L 185.737701 271.597501 
L 186.388311 272.212625 
L 187.038921 271.889373 
L 187.689532 271.840399 
L 188.340142 272.652174 
L 188.990752 271.834199 
L 189.641363 264.935357 
L 190.291973 272.214148 
L 190.942583 270.600216 
L 191.593194 273.842965 
L 192.243804 274.242641 
L 192.894414 273.058537 
L 193.545025 263.060588 
L 194.195635 268.83132 
L 194.846245 272.824655 
L 195.496856 273.770476 
L 196.147466 274.422852 
L 196.798076 274.541285 
L 197.448686 275.165738 
L 198.099297 272.182737 
L 198.749907 275.143164 
L 199.400517 275.408934 
L 200.051128 274.256395 
L 200.701738 272.816019 
L 201.352348 272.655969 
L 202.002959 275.730561 
L 202.653569 275.205029 
L 203.304179 275.457576 
L 203.95479 274.582476 
L 204.6054 275.798135 
L 205.25601 276.560772 
L 205.906621 276.40669 
L 206.557231 276.938246 
L 207.207841 276.624459 
L 207.858451 271.907844 
L 208.509062 276.657402 
L 209.159672 277.347611 
L 209.810282 277.650692 
L 210.460893 277.12022 
L 211.111503 277.934807 
L 211.762113 277.425963 
L 212.412724 275.50584 
L 213.063334 275.817693 
L 213.713944 277.710826 
L 214.364555 277.673037 
L 215.015165 278.113804 
L 215.665775 278.384663 
L 216.316385 277.989788 
L 217.617606 277.753068 
L 218.918827 279.231325 
L 219.569437 279.140509 
L 220.220047 276.72659 
L 220.870658 279.434802 
L 221.521268 279.195417 
L 222.822489 280.208274 
L 223.473099 278.868547 
L 224.123709 279.018507 
L 224.77432 280.410503 
L 225.42493 276.36639 
L 226.07554 279.218855 
L 226.72615 280.370696 
L 227.376761 270.433447 
L 228.027371 279.218475 
L 228.677981 280.898663 
L 229.328592 280.12638 
L 230.629812 280.98446 
L 231.280423 279.171614 
L 231.931033 278.660112 
L 232.581643 281.845691 
L 233.232254 281.015159 
L 233.882864 281.808772 
L 234.533474 281.623952 
L 235.184085 281.916995 
L 235.834695 281.367242 
L 236.485305 281.924149 
L 237.135915 282.312991 
L 237.786526 282.477788 
L 238.437136 276.304849 
L 239.087746 282.939367 
L 239.738357 282.702697 
L 241.039577 281.843475 
L 241.690188 277.719269 
L 242.340798 282.093244 
L 242.991408 282.929255 
L 243.642019 282.896686 
L 244.292629 283.348107 
L 244.943239 283.255835 
L 245.59385 283.023972 
L 246.24446 283.237183 
L 246.89507 281.091567 
L 247.54568 281.752555 
L 248.196291 283.888221 
L 248.846901 284.210236 
L 249.497511 283.856813 
L 250.148122 284.415417 
L 250.798732 283.578801 
L 251.449342 274.576747 
L 252.099953 283.323734 
L 252.750563 284.424194 
L 253.401173 284.647949 
L 254.702394 284.462448 
L 255.353004 284.448254 
L 256.003615 283.758695 
L 256.654225 283.881471 
L 257.304835 284.946638 
L 257.955445 284.590014 
L 258.606056 285.039797 
L 259.256666 284.02885 
L 259.907276 284.829659 
L 260.557887 285.224798 
L 261.208497 285.376764 
L 261.859107 284.585979 
L 262.509718 284.396065 
L 263.160328 286.028519 
L 263.810938 285.495492 
L 264.461549 285.653391 
L 265.112159 284.805217 
L 265.762769 286.245806 
L 266.413379 285.906601 
L 267.06399 285.308196 
L 267.7146 286.228819 
L 269.015821 286.013956 
L 269.666431 286.923081 
L 270.317041 285.249867 
L 270.967652 281.508935 
L 271.618262 286.55334 
L 272.268872 286.34353 
L 272.919483 286.883688 
L 273.570093 286.859951 
L 274.220703 287.368907 
L 274.871314 287.566598 
L 275.521924 285.837192 
L 276.172534 287.208696 
L 276.823144 286.497042 
L 277.473755 286.620644 
L 278.124365 287.383822 
L 278.774975 286.993603 
L 279.425586 287.863934 
L 280.076196 287.809668 
L 280.726806 282.933085 
L 281.377417 275.174538 
L 282.028027 287.0179 
L 282.678637 287.746137 
L 283.329248 288.285973 
L 283.979858 288.503087 
L 284.630468 288.467505 
L 285.281079 284.617307 
L 285.931689 286.991843 
L 286.582299 282.24985 
L 287.232909 288.564931 
L 287.88352 286.46934 
L 288.53413 286.746615 
L 289.18474 289.118996 
L 290.485961 289.054379 
L 291.136571 288.731956 
L 291.787182 288.815504 
L 292.437792 285.812478 
L 293.088402 289.062441 
L 293.739013 289.438247 
L 294.389623 288.896582 
L 295.040233 289.033891 
L 295.690844 288.216346 
L 296.341454 288.661066 
L 296.992064 289.72522 
L 297.642674 281.265177 
L 298.293285 286.880297 
L 298.943895 289.583257 
L 299.594505 289.356559 
L 300.245116 289.463882 
L 300.895726 290.005767 
L 302.196947 288.712624 
L 302.847557 288.877665 
L 303.498167 285.391637 
L 304.148778 286.470019 
L 304.799388 290.076608 
L 305.449998 290.20724 
L 306.751219 290.748237 
L 307.401829 290.42097 
L 308.052439 289.963817 
L 308.70305 289.993782 
L 309.35366 289.633617 
L 310.00427 287.515601 
L 310.654881 289.614805 
L 311.305491 290.339959 
L 312.606712 290.239203 
L 313.257322 290.574894 
L 313.907932 291.213554 
L 314.558543 288.931398 
L 315.209153 289.73922 
L 315.859763 291.333049 
L 316.510373 291.159056 
L 317.160984 290.788481 
L 317.811594 291.653804 
L 318.462204 291.165023 
L 319.112815 275.561152 
L 319.763425 289.672652 
L 320.414035 290.876271 
L 321.064646 291.174657 
L 321.715256 292.011328 
L 322.365866 291.766087 
L 323.016477 274.159712 
L 323.667087 283.185771 
L 324.317697 288.90691 
L 324.968308 290.57789 
L 325.618918 291.179738 
L 326.269528 291.155787 
L 326.920138 291.551989 
L 327.570749 291.236904 
L 328.221359 291.083382 
L 329.52258 291.894821 
L 330.17319 291.643082 
L 330.8238 290.800958 
L 331.474411 288.254526 
L 332.125021 291.223966 
L 332.775631 291.785407 
L 333.426242 289.293868 
L 334.076852 290.045105 
L 334.727462 291.621102 
L 336.028683 292.634788 
L 336.679293 292.373294 
L 337.329903 291.070711 
L 337.980514 283.715207 
L 338.631124 291.033904 
L 339.281734 292.668416 
L 339.932345 293.013084 
L 340.582955 292.068413 
L 341.233565 290.168325 
L 341.884176 292.542628 
L 342.534786 288.886482 
L 343.185396 288.750492 
L 343.836007 292.813372 
L 344.486617 293.027629 
L 345.137227 292.739278 
L 345.787837 292.951324 
L 346.438448 293.008328 
L 347.089058 292.826022 
L 348.390279 293.108316 
L 349.040889 291.255282 
L 349.691499 292.818998 
L 350.34211 293.246882 
L 350.99272 292.006291 
L 351.64333 293.175352 
L 352.293941 292.512501 
L 352.944551 293.232319 
L 353.595161 291.599712 
L 354.245772 292.637972 
L 354.896382 290.569498 
L 355.546992 290.711605 
L 356.197602 291.191321 
L 356.848213 293.212819 
L 357.498823 294.020952 
L 358.149433 293.613121 
L 358.800044 293.798946 
L 359.450654 292.070896 
L 360.101264 293.586649 
L 360.751875 293.88072 
L 361.402485 293.820105 
L 362.053095 293.894136 
L 362.703706 294.333157 
L 363.354316 293.545982 
L 364.004926 291.128326 
L 364.655537 287.342289 
L 365.306147 293.914747 
L 365.956757 294.324282 
L 366.607367 293.375098 
L 367.257978 291.964372 
L 367.908588 291.369957 
L 368.559198 287.310433 
L 369.209809 293.686502 
L 369.860419 294.31236 
L 370.511029 293.598812 
L 371.81225 294.948542 
L 372.46286 294.152779 
L 373.113471 293.726659 
L 373.764081 292.164088 
L 374.414691 293.523094 
L 375.065302 294.102325 
L 375.715912 294.367971 
L 376.366522 294.088038 
L 377.017132 294.629394 
L 377.667743 294.585765 
L 378.318353 294.201905 
L 378.968963 294.170309 
L 379.619574 293.995551 
L 380.270184 294.691242 
L 380.920794 293.966276 
L 381.571405 288.075595 
L 382.222015 292.113239 
L 382.872625 292.477698 
L 383.523236 294.884301 
L 384.173846 295.238911 
L 384.824456 294.917641 
L 385.475066 295.488 
L 386.125677 295.371699 
L 387.426897 294.423172 
L 388.077508 291.928871 
L 388.728118 294.283643 
L 389.378728 294.471558 
L 390.029339 295.144413 
L 390.679949 295.378565 
L 391.330559 294.839098 
L 391.98117 294.915246 
L 392.63178 295.189705 
L 393.28239 282.061136 
L 393.933001 285.746821 
L 394.583611 293.150701 
L 395.234221 294.707664 
L 395.884831 295.212324 
L 396.535442 295.328997 
L 397.186052 294.934888 
L 397.836662 293.2688 
L 398.487273 294.957889 
L 398.487273 294.957889 
" style="fill:none;stroke:#1f77b4;stroke-linecap:square;stroke-width:1.5;"/>
   </g>
   <g id="line2d_15">
    <path clip-path="url(#p9ccddb774b)" d="M 73.832727 127.610683 
L 74.483338 145.536166 
L 75.133948 146.279965 
L 75.784558 149.97545 
L 76.435169 149.73564 
L 77.085779 150.271581 
L 78.386999 152.822954 
L 79.03761 156.037732 
L 79.68822 160.06581 
L 80.33883 163.324228 
L 80.989441 168.347965 
L 82.290661 172.499482 
L 82.941272 165.826709 
L 83.591882 178.509977 
L 84.242492 171.988591 
L 84.893103 186.157944 
L 85.543713 184.128167 
L 86.194323 187.954735 
L 86.844934 190.386375 
L 87.495544 190.936847 
L 88.146154 195.125273 
L 88.796764 195.182976 
L 89.447375 197.336331 
L 90.097985 198.282634 
L 90.748595 200.060161 
L 91.399206 200.437991 
L 92.049816 203.017301 
L 92.700426 199.470021 
L 93.351037 201.32305 
L 94.001647 208.002798 
L 94.652257 210.114603 
L 95.302868 206.042304 
L 95.953478 213.127131 
L 96.604088 211.481373 
L 97.254698 206.836808 
L 97.905309 215.569567 
L 98.555919 218.949924 
L 99.206529 220.647843 
L 99.85714 223.848437 
L 100.50775 219.714145 
L 101.15836 221.697823 
L 101.808971 224.229321 
L 102.459581 225.680767 
L 103.110191 226.134629 
L 103.760802 221.095026 
L 104.411412 228.584533 
L 105.062022 227.270913 
L 105.712633 230.295277 
L 106.363243 224.121524 
L 107.013853 223.869887 
L 107.664463 230.740889 
L 108.315074 231.135489 
L 108.965684 228.370132 
L 109.616294 232.326179 
L 110.266905 232.315257 
L 110.917515 232.578615 
L 111.568125 233.819102 
L 112.218736 221.120339 
L 112.869346 233.610057 
L 113.519956 234.79893 
L 114.170567 225.399178 
L 114.821177 231.74632 
L 115.471787 236.482185 
L 116.122398 235.153727 
L 116.773008 235.897374 
L 117.423618 234.133718 
L 118.074228 239.238127 
L 118.724839 238.27767 
L 120.026059 238.216313 
L 120.67667 240.74634 
L 121.32728 240.753041 
L 121.97789 241.855986 
L 122.628501 241.132248 
L 123.279111 237.301343 
L 123.929721 241.832534 
L 124.580332 241.096896 
L 125.230942 242.778339 
L 125.881552 239.205658 
L 126.532163 243.794299 
L 127.182773 241.788475 
L 127.833383 244.690037 
L 128.483993 244.040443 
L 129.134604 245.046374 
L 129.785214 245.288756 
L 130.435824 242.841284 
L 131.086435 246.045696 
L 131.737045 247.190923 
L 132.387655 246.576372 
L 133.038266 239.042147 
L 133.688876 247.415272 
L 134.339486 246.107745 
L 134.990097 248.445237 
L 136.291317 247.287529 
L 137.592538 250.192753 
L 138.243148 249.927944 
L 138.893758 249.393935 
L 139.544369 246.787399 
L 140.194979 251.071692 
L 140.845589 251.157293 
L 141.4962 251.479618 
L 142.14681 249.950254 
L 142.79742 250.177843 
L 143.448031 248.91192 
L 144.098641 251.765694 
L 145.399862 248.396472 
L 146.050472 247.214499 
L 146.701082 251.657494 
L 147.351692 253.248719 
L 148.002303 249.845518 
L 148.652913 249.785687 
L 149.303523 252.67419 
L 149.954134 253.081538 
L 150.604744 254.066681 
L 151.255354 254.079369 
L 151.905965 221.06565 
L 152.556575 244.171186 
L 153.207185 250.46837 
L 153.857796 249.491627 
L 154.508406 250.130361 
L 155.159016 251.423221 
L 156.460237 255.287007 
L 157.110847 254.268693 
L 157.761457 249.278882 
L 158.412068 253.213597 
L 159.062678 251.186678 
L 159.713288 255.270513 
L 160.363899 253.695864 
L 161.014509 255.752752 
L 161.665119 253.421205 
L 162.31573 255.059978 
L 162.96634 253.716808 
L 163.61695 253.390384 
L 164.267561 255.179625 
L 164.918171 256.380459 
L 165.568781 247.661782 
L 166.219392 253.370696 
L 166.870002 254.960972 
L 167.520612 254.806585 
L 168.171222 257.831306 
L 168.821833 253.411857 
L 169.472443 255.759278 
L 170.123053 257.319157 
L 170.773664 255.428677 
L 171.424274 256.239087 
L 172.074884 255.742386 
L 172.725495 254.393481 
L 173.376105 255.41808 
L 174.026715 250.2111 
L 174.677326 253.097028 
L 175.327936 254.476624 
L 175.978546 254.799709 
L 176.629156 255.763403 
L 177.279767 253.473022 
L 177.930377 253.133351 
L 179.231598 254.040807 
L 179.882208 253.332141 
L 180.532818 256.752632 
L 181.183429 258.940548 
L 181.834039 258.204496 
L 182.484649 246.141598 
L 183.13526 259.604084 
L 183.78587 254.320543 
L 184.43648 255.856752 
L 185.087091 255.947807 
L 186.388311 253.878221 
L 187.038921 256.614528 
L 187.689532 254.047122 
L 188.340142 255.053971 
L 188.990752 259.25337 
L 189.641363 253.759443 
L 190.291973 258.186835 
L 190.942583 258.000029 
L 191.593194 256.593293 
L 192.894414 259.91604 
L 193.545025 253.372104 
L 194.195635 254.674181 
L 194.846245 253.044294 
L 195.496856 258.999853 
L 196.147466 259.525919 
L 196.798076 256.127554 
L 198.749907 259.544052 
L 199.400517 259.226868 
L 200.051128 257.507869 
L 200.701738 256.889472 
L 202.002959 257.187237 
L 202.653569 254.513509 
L 203.304179 253.473859 
L 203.95479 251.768147 
L 204.6054 256.687595 
L 205.25601 252.3475 
L 205.906621 258.072203 
L 206.557231 255.915786 
L 207.207841 255.578572 
L 207.858451 257.465127 
L 208.509062 256.679978 
L 209.159672 252.658635 
L 209.810282 249.747291 
L 210.460893 254.079472 
L 211.111503 255.849002 
L 211.762113 253.210743 
L 212.412724 254.226024 
L 213.063334 258.197874 
L 213.713944 254.498871 
L 214.364555 258.981024 
L 215.015165 257.995799 
L 215.665775 252.886316 
L 216.316385 259.16866 
L 216.966996 256.967878 
L 217.617606 255.849451 
L 218.268216 257.198024 
L 218.918827 257.343643 
L 219.569437 255.712933 
L 220.220047 262.310114 
L 220.870658 257.306749 
L 222.171878 254.361904 
L 222.822489 258.979597 
L 224.123709 257.764661 
L 224.77432 253.613803 
L 225.42493 257.144237 
L 226.07554 256.214732 
L 226.72615 256.37161 
L 227.376761 259.684939 
L 228.027371 253.626418 
L 228.677981 254.296959 
L 229.328592 258.526909 
L 229.979202 256.583887 
L 230.629812 256.83054 
L 231.280423 250.505658 
L 231.931033 256.401264 
L 232.581643 255.950834 
L 233.232254 261.087859 
L 233.882864 254.194144 
L 234.533474 252.197136 
L 235.184085 251.600873 
L 235.834695 255.384544 
L 236.485305 257.356992 
L 237.135915 255.990289 
L 237.786526 253.248371 
L 238.437136 258.122868 
L 239.087746 254.176817 
L 239.738357 260.293385 
L 240.388967 256.955803 
L 241.039577 256.050122 
L 241.690188 256.162508 
L 242.340798 257.271681 
L 242.991408 255.835937 
L 243.642019 256.85267 
L 244.292629 254.868297 
L 244.943239 249.652849 
L 245.59385 254.987611 
L 246.24446 256.197428 
L 246.89507 257.974376 
L 247.54568 256.308942 
L 248.196291 249.136922 
L 248.846901 254.414828 
L 249.497511 254.303859 
L 250.148122 253.456885 
L 250.798732 253.879018 
L 251.449342 259.159074 
L 252.099953 259.577369 
L 252.750563 254.176046 
L 253.401173 251.121089 
L 254.051784 247.250214 
L 254.702394 252.72842 
L 255.353004 249.763439 
L 256.003615 247.782454 
L 256.654225 249.289637 
L 257.304835 253.254004 
L 257.955445 254.38203 
L 258.606056 251.401863 
L 259.907276 256.754685 
L 260.557887 247.429641 
L 261.208497 248.331971 
L 261.859107 248.091629 
L 262.509718 248.528823 
L 263.160328 253.839576 
L 263.810938 247.686215 
L 264.461549 252.090357 
L 265.112159 247.602533 
L 265.762769 254.965526 
L 266.413379 248.200549 
L 267.06399 253.525998 
L 267.7146 252.674625 
L 268.36521 245.628915 
L 269.666431 253.448175 
L 270.317041 259.353149 
L 270.967652 250.894197 
L 271.618262 245.267352 
L 272.268872 255.209103 
L 272.919483 248.284308 
L 273.570093 246.913913 
L 274.220703 246.107815 
L 274.871314 246.044698 
L 275.521924 249.153177 
L 276.172534 244.760016 
L 276.823144 256.845268 
L 277.473755 253.616917 
L 278.124365 239.755508 
L 278.774975 245.042328 
L 279.425586 246.184301 
L 280.076196 248.851731 
L 280.726806 241.594084 
L 281.377417 259.600289 
L 282.028027 241.860411 
L 282.678637 250.931624 
L 283.329248 249.469279 
L 283.979858 247.334108 
L 284.630468 237.527605 
L 285.281079 256.988467 
L 285.931689 249.057686 
L 286.582299 250.769012 
L 287.232909 244.896341 
L 287.88352 252.267301 
L 288.53413 253.206737 
L 289.18474 242.317197 
L 289.835351 250.667825 
L 291.787182 240.344204 
L 292.437792 251.197476 
L 293.088402 238.653384 
L 293.739013 250.21069 
L 294.389623 241.489133 
L 295.040233 256.450237 
L 295.690844 246.84062 
L 296.341454 244.92244 
L 296.992064 243.970411 
L 297.642674 262.089179 
L 298.943895 243.023624 
L 299.594505 251.165083 
L 300.245116 240.413705 
L 300.895726 240.894536 
L 301.546336 240.903869 
L 302.196947 251.844314 
L 302.847557 251.89014 
L 303.498167 257.805272 
L 304.148778 251.100939 
L 304.799388 240.045426 
L 305.449998 242.741046 
L 306.100608 246.141074 
L 306.751219 237.064684 
L 307.401829 250.760962 
L 308.052439 246.285704 
L 308.70305 247.764115 
L 309.35366 239.756503 
L 310.00427 244.892415 
L 310.654881 242.729746 
L 311.305491 250.101247 
L 311.956101 248.190538 
L 312.606712 241.109666 
L 313.257322 242.75256 
L 313.907932 245.381301 
L 314.558543 246.12179 
L 315.209153 240.915575 
L 315.859763 239.893194 
L 316.510373 247.218975 
L 317.160984 245.054423 
L 317.811594 234.834339 
L 319.112815 258.535826 
L 319.763425 245.835022 
L 320.414035 250.858181 
L 321.064646 234.510194 
L 321.715256 240.75217 
L 322.365866 233.216822 
L 323.016477 257.090904 
L 323.667087 252.101139 
L 324.317697 248.743601 
L 324.968308 239.127478 
L 325.618918 243.843 
L 326.920138 234.292159 
L 327.570749 239.276176 
L 328.221359 236.777539 
L 328.871969 229.62255 
L 329.52258 240.566319 
L 330.17319 234.079417 
L 330.8238 240.864269 
L 331.474411 254.785307 
L 332.125021 243.303785 
L 332.775631 237.307867 
L 333.426242 233.932575 
L 334.076852 241.38394 
L 334.727462 239.599209 
L 335.378073 249.752624 
L 336.028683 235.632737 
L 336.679293 244.566462 
L 337.329903 240.292993 
L 337.980514 252.427331 
L 338.631124 237.310278 
L 339.281734 243.963458 
L 339.932345 231.163561 
L 340.582955 235.229825 
L 341.233565 234.55282 
L 341.884176 237.490064 
L 342.534786 265.071761 
L 343.185396 237.14844 
L 343.836007 235.819521 
L 344.486617 233.249167 
L 345.137227 241.186908 
L 345.787837 236.521856 
L 346.438448 239.004784 
L 347.089058 231.022426 
L 347.739668 235.8484 
L 348.390279 239.119922 
L 349.040889 234.957438 
L 349.691499 236.592669 
L 350.34211 237.455028 
L 350.99272 234.434699 
L 351.64333 234.912222 
L 352.293941 233.192884 
L 352.944551 238.852721 
L 353.595161 236.633474 
L 354.245772 230.542951 
L 354.896382 247.573747 
L 355.546992 234.694014 
L 356.197602 238.828032 
L 356.848213 227.048923 
L 357.498823 232.726745 
L 358.149433 229.795714 
L 358.800044 246.187493 
L 359.450654 232.517606 
L 360.101264 228.394309 
L 360.751875 232.5498 
L 361.402485 224.815678 
L 362.053095 219.036647 
L 362.703706 231.936818 
L 363.354316 232.06612 
L 364.004926 254.136102 
L 364.655537 234.402866 
L 365.306147 230.695071 
L 365.956757 231.365591 
L 366.607367 245.496873 
L 367.257978 243.024102 
L 367.908588 253.735319 
L 368.559198 238.202711 
L 369.209809 235.378911 
L 369.860419 239.864625 
L 370.511029 229.159004 
L 371.16164 229.335587 
L 371.81225 230.697635 
L 372.46286 233.667665 
L 373.113471 231.171441 
L 373.764081 243.006241 
L 374.414691 241.153625 
L 375.065302 223.826638 
L 375.715912 232.655136 
L 376.366522 224.240667 
L 377.017132 230.872687 
L 377.667743 227.581861 
L 378.318353 220.941743 
L 378.968963 238.740118 
L 379.619574 237.824803 
L 380.270184 232.491034 
L 380.920794 232.824883 
L 381.571405 257.484479 
L 382.222015 241.437015 
L 382.872625 240.567221 
L 383.523236 228.887919 
L 384.173846 228.833177 
L 384.824456 224.078494 
L 385.475066 215.371754 
L 386.125677 224.299046 
L 386.776287 240.424831 
L 387.426897 229.35251 
L 388.077508 228.084041 
L 388.728118 222.861195 
L 389.378728 225.768999 
L 390.029339 229.446464 
L 390.679949 223.872094 
L 391.330559 229.122162 
L 391.98117 232.20666 
L 392.63178 220.023679 
L 393.28239 263.471618 
L 394.583611 235.699645 
L 395.884831 218.349076 
L 396.535442 223.497276 
L 397.186052 219.878505 
L 397.836662 238.709078 
L 398.487273 228.725872 
L 398.487273 228.725872 
" style="fill:none;stroke:#ff7f0e;stroke-linecap:square;stroke-width:1.5;"/>
   </g>
   <g id="patch_3">
    <path d="M 57.6 307.584 
L 57.6 41.472 
" style="fill:none;stroke:#000000;stroke-linecap:square;stroke-linejoin:miter;stroke-width:0.8;"/>
   </g>
   <g id="patch_4">
    <path d="M 414.72 307.584 
L 414.72 41.472 
" style="fill:none;stroke:#000000;stroke-linecap:square;stroke-linejoin:miter;stroke-width:0.8;"/>
   </g>
   <g id="patch_5">
    <path d="M 57.6 307.584 
L 414.72 307.584 
" style="fill:none;stroke:#000000;stroke-linecap:square;stroke-linejoin:miter;stroke-width:0.8;"/>
   </g>
   <g id="patch_6">
    <path d="M 57.6 41.472 
L 414.72 41.472 
" style="fill:none;stroke:#000000;stroke-linecap:square;stroke-linejoin:miter;stroke-width:0.8;"/>
   </g>
   <g id="legend_1">
    <g id="patch_7">
     <path d="M 303.845 78.82825 
L 407.72 78.82825 
Q 409.72 78.82825 409.72 76.82825 
L 409.72 48.472 
Q 409.72 46.472 407.72 46.472 
L 303.845 46.472 
Q 301.845 46.472 301.845 48.472 
L 301.845 76.82825 
Q 301.845 78.82825 303.845 78.82825 
z
" style="fill:#ffffff;opacity:0.8;stroke:#cccccc;stroke-linejoin:miter;"/>
    </g>
    <g id="line2d_16">
     <path d="M 305.845 54.570437 
L 325.845 54.570437 
" style="fill:none;stroke:#1f77b4;stroke-linecap:square;stroke-width:1.5;"/>
    </g>
    <g id="line2d_17"/>
    <g id="text_15">
     <!-- Train loss -->
     <g transform="translate(333.845 58.070437)scale(0.1 -0.1)">
      <defs>
       <path d="M -19 4666 
L 3928 4666 
L 3928 4134 
L 2272 4134 
L 2272 0 
L 1638 0 
L 1638 4134 
L -19 4134 
L -19 4666 
z
" id="DejaVuSans-54" transform="scale(0.015625)"/>
       <path d="M 2631 2963 
Q 2534 3019 2420 3045 
Q 2306 3072 2169 3072 
Q 1681 3072 1420 2755 
Q 1159 2438 1159 1844 
L 1159 0 
L 581 0 
L 581 3500 
L 1159 3500 
L 1159 2956 
Q 1341 3275 1631 3429 
Q 1922 3584 2338 3584 
Q 2397 3584 2469 3576 
Q 2541 3569 2628 3553 
L 2631 2963 
z
" id="DejaVuSans-72" transform="scale(0.015625)"/>
       <path d="M 2194 1759 
Q 1497 1759 1228 1600 
Q 959 1441 959 1056 
Q 959 750 1161 570 
Q 1363 391 1709 391 
Q 2188 391 2477 730 
Q 2766 1069 2766 1631 
L 2766 1759 
L 2194 1759 
z
M 3341 1997 
L 3341 0 
L 2766 0 
L 2766 531 
Q 2569 213 2275 61 
Q 1981 -91 1556 -91 
Q 1019 -91 701 211 
Q 384 513 384 1019 
Q 384 1609 779 1909 
Q 1175 2209 1959 2209 
L 2766 2209 
L 2766 2266 
Q 2766 2663 2505 2880 
Q 2244 3097 1772 3097 
Q 1472 3097 1187 3025 
Q 903 2953 641 2809 
L 641 3341 
Q 956 3463 1253 3523 
Q 1550 3584 1831 3584 
Q 2591 3584 2966 3190 
Q 3341 2797 3341 1997 
z
" id="DejaVuSans-61" transform="scale(0.015625)"/>
       <path d="M 603 3500 
L 1178 3500 
L 1178 0 
L 603 0 
L 603 3500 
z
M 603 4863 
L 1178 4863 
L 1178 4134 
L 603 4134 
L 603 4863 
z
" id="DejaVuSans-69" transform="scale(0.015625)"/>
       <path d="M 3513 2113 
L 3513 0 
L 2938 0 
L 2938 2094 
Q 2938 2591 2744 2837 
Q 2550 3084 2163 3084 
Q 1697 3084 1428 2787 
Q 1159 2491 1159 1978 
L 1159 0 
L 581 0 
L 581 3500 
L 1159 3500 
L 1159 2956 
Q 1366 3272 1645 3428 
Q 1925 3584 2291 3584 
Q 2894 3584 3203 3211 
Q 3513 2838 3513 2113 
z
" id="DejaVuSans-6e" transform="scale(0.015625)"/>
       <path id="DejaVuSans-20" transform="scale(0.015625)"/>
       <path d="M 603 4863 
L 1178 4863 
L 1178 0 
L 603 0 
L 603 4863 
z
" id="DejaVuSans-6c" transform="scale(0.015625)"/>
       <path d="M 2834 3397 
L 2834 2853 
Q 2591 2978 2328 3040 
Q 2066 3103 1784 3103 
Q 1356 3103 1142 2972 
Q 928 2841 928 2578 
Q 928 2378 1081 2264 
Q 1234 2150 1697 2047 
L 1894 2003 
Q 2506 1872 2764 1633 
Q 3022 1394 3022 966 
Q 3022 478 2636 193 
Q 2250 -91 1575 -91 
Q 1294 -91 989 -36 
Q 684 19 347 128 
L 347 722 
Q 666 556 975 473 
Q 1284 391 1588 391 
Q 1994 391 2212 530 
Q 2431 669 2431 922 
Q 2431 1156 2273 1281 
Q 2116 1406 1581 1522 
L 1381 1569 
Q 847 1681 609 1914 
Q 372 2147 372 2553 
Q 372 3047 722 3315 
Q 1072 3584 1716 3584 
Q 2034 3584 2315 3537 
Q 2597 3491 2834 3397 
z
" id="DejaVuSans-73" transform="scale(0.015625)"/>
      </defs>
      <use xlink:href="#DejaVuSans-54"/>
      <use x="46.333984" xlink:href="#DejaVuSans-72"/>
      <use x="87.447266" xlink:href="#DejaVuSans-61"/>
      <use x="148.726562" xlink:href="#DejaVuSans-69"/>
      <use x="176.509766" xlink:href="#DejaVuSans-6e"/>
      <use x="239.888672" xlink:href="#DejaVuSans-20"/>
      <use x="271.675781" xlink:href="#DejaVuSans-6c"/>
      <use x="299.458984" xlink:href="#DejaVuSans-6f"/>
      <use x="360.640625" xlink:href="#DejaVuSans-73"/>
      <use x="412.740234" xlink:href="#DejaVuSans-73"/>
     </g>
    </g>
    <g id="line2d_18">
     <path d="M 305.845 69.248562 
L 325.845 69.248562 
" style="fill:none;stroke:#ff7f0e;stroke-linecap:square;stroke-width:1.5;"/>
    </g>
    <g id="line2d_19"/>
    <g id="text_16">
     <!-- Validation loss -->
     <g transform="translate(333.845 72.748562)scale(0.1 -0.1)">
      <defs>
       <path d="M 1831 0 
L 50 4666 
L 709 4666 
L 2188 738 
L 3669 4666 
L 4325 4666 
L 2547 0 
L 1831 0 
z
" id="DejaVuSans-56" transform="scale(0.015625)"/>
       <path d="M 2906 2969 
L 2906 4863 
L 3481 4863 
L 3481 0 
L 2906 0 
L 2906 525 
Q 2725 213 2448 61 
Q 2172 -91 1784 -91 
Q 1150 -91 751 415 
Q 353 922 353 1747 
Q 353 2572 751 3078 
Q 1150 3584 1784 3584 
Q 2172 3584 2448 3432 
Q 2725 3281 2906 2969 
z
M 947 1747 
Q 947 1113 1208 752 
Q 1469 391 1925 391 
Q 2381 391 2643 752 
Q 2906 1113 2906 1747 
Q 2906 2381 2643 2742 
Q 2381 3103 1925 3103 
Q 1469 3103 1208 2742 
Q 947 2381 947 1747 
z
" id="DejaVuSans-64" transform="scale(0.015625)"/>
       <path d="M 1172 4494 
L 1172 3500 
L 2356 3500 
L 2356 3053 
L 1172 3053 
L 1172 1153 
Q 1172 725 1289 603 
Q 1406 481 1766 481 
L 2356 481 
L 2356 0 
L 1766 0 
Q 1100 0 847 248 
Q 594 497 594 1153 
L 594 3053 
L 172 3053 
L 172 3500 
L 594 3500 
L 594 4494 
L 1172 4494 
z
" id="DejaVuSans-74" transform="scale(0.015625)"/>
      </defs>
      <use xlink:href="#DejaVuSans-56"/>
      <use x="60.658203" xlink:href="#DejaVuSans-61"/>
      <use x="121.9375" xlink:href="#DejaVuSans-6c"/>
      <use x="149.720703" xlink:href="#DejaVuSans-69"/>
      <use x="177.503906" xlink:href="#DejaVuSans-64"/>
      <use x="240.980469" xlink:href="#DejaVuSans-61"/>
      <use x="302.259766" xlink:href="#DejaVuSans-74"/>
      <use x="341.46875" xlink:href="#DejaVuSans-69"/>
      <use x="369.251953" xlink:href="#DejaVuSans-6f"/>
      <use x="430.433594" xlink:href="#DejaVuSans-6e"/>
      <use x="493.8125" xlink:href="#DejaVuSans-20"/>
      <use x="525.599609" xlink:href="#DejaVuSans-6c"/>
      <use x="553.382812" xlink:href="#DejaVuSans-6f"/>
      <use x="614.564453" xlink:href="#DejaVuSans-73"/>
      <use x="666.664062" xlink:href="#DejaVuSans-73"/>
     </g>
    </g>
   </g>
  </g>
 </g>
 <defs>
  <clipPath id="p9ccddb774b">
   <rect height="266.112" width="357.12" x="57.6" y="41.472"/>
  </clipPath>
 </defs>
</svg>
