<?xml version="1.0" encoding="utf-8" standalone="no"?>
<!DOCTYPE svg PUBLIC "-//W3C//DTD SVG 1.1//EN"
  "http://www.w3.org/Graphics/SVG/1.1/DTD/svg11.dtd">
<svg height="345.6pt" version="1.1" viewBox="0 0 460.8 345.6" width="460.8pt" xmlns="http://www.w3.org/2000/svg" xmlns:xlink="http://www.w3.org/1999/xlink">
 <metadata>
  <rdf:RDF xmlns:cc="http://creativecommons.org/ns#" xmlns:dc="http://purl.org/dc/elements/1.1/" xmlns:rdf="http://www.w3.org/1999/02/22-rdf-syntax-ns#">
   <cc:Work>
    <dc:type rdf:resource="http://purl.org/dc/dcmitype/StillImage"/>
    <dc:date>2021-06-18T03:57:17.429752</dc:date>
    <dc:format>image/svg+xml</dc:format>
    <dc:creator>
     <cc:Agent>
      <dc:title>Matplotlib v3.4.1, https://matplotlib.org/</dc:title>
     </cc:Agent>
    </dc:creator>
   </cc:Work>
  </rdf:RDF>
 </metadata>
 <defs>
  <style type="text/css">*{stroke-linecap:butt;stroke-linejoin:round;}</style>
 </defs>
 <g id="figure_1">
  <g id="patch_1">
   <path d="M 0 345.6 
L 460.8 345.6 
L 460.8 0 
L 0 0 
z
" style="fill:#ffffff;"/>
  </g>
  <g id="axes_1">
   <g id="patch_2">
    <path d="M 57.6 307.584 
L 414.72 307.584 
L 414.72 41.472 
L 57.6 41.472 
z
" style="fill:#ffffff;"/>
   </g>
   <g id="matplotlib.axis_1">
    <g id="xtick_1">
     <g id="line2d_1">
      <defs>
       <path d="M 0 0 
L 0 3.5 
" id="m528b8fa9e7" style="stroke:#000000;stroke-width:0.8;"/>
      </defs>
      <g>
       <use style="stroke:#000000;stroke-width:0.8;" x="73.019057" xlink:href="#m528b8fa9e7" y="307.584"/>
      </g>
     </g>
     <g id="text_1">
      <!-- 0 -->
      <g transform="translate(69.837807 322.182437)scale(0.1 -0.1)">
       <defs>
        <path d="M 2034 4250 
Q 1547 4250 1301 3770 
Q 1056 3291 1056 2328 
Q 1056 1369 1301 889 
Q 1547 409 2034 409 
Q 2525 409 2770 889 
Q 3016 1369 3016 2328 
Q 3016 3291 2770 3770 
Q 2525 4250 2034 4250 
z
M 2034 4750 
Q 2819 4750 3233 4129 
Q 3647 3509 3647 2328 
Q 3647 1150 3233 529 
Q 2819 -91 2034 -91 
Q 1250 -91 836 529 
Q 422 1150 422 2328 
Q 422 3509 836 4129 
Q 1250 4750 2034 4750 
z
" id="DejaVuSans-30" transform="scale(0.015625)"/>
       </defs>
       <use xlink:href="#DejaVuSans-30"/>
      </g>
     </g>
    </g>
    <g id="xtick_2">
     <g id="line2d_2">
      <g>
       <use style="stroke:#000000;stroke-width:0.8;" x="113.702584" xlink:href="#m528b8fa9e7" y="307.584"/>
      </g>
     </g>
     <g id="text_2">
      <!-- 50 -->
      <g transform="translate(107.340084 322.182437)scale(0.1 -0.1)">
       <defs>
        <path d="M 691 4666 
L 3169 4666 
L 3169 4134 
L 1269 4134 
L 1269 2991 
Q 1406 3038 1543 3061 
Q 1681 3084 1819 3084 
Q 2600 3084 3056 2656 
Q 3513 2228 3513 1497 
Q 3513 744 3044 326 
Q 2575 -91 1722 -91 
Q 1428 -91 1123 -41 
Q 819 9 494 109 
L 494 744 
Q 775 591 1075 516 
Q 1375 441 1709 441 
Q 2250 441 2565 725 
Q 2881 1009 2881 1497 
Q 2881 1984 2565 2268 
Q 2250 2553 1709 2553 
Q 1456 2553 1204 2497 
Q 953 2441 691 2322 
L 691 4666 
z
" id="DejaVuSans-35" transform="scale(0.015625)"/>
       </defs>
       <use xlink:href="#DejaVuSans-35"/>
       <use x="63.623047" xlink:href="#DejaVuSans-30"/>
      </g>
     </g>
    </g>
    <g id="xtick_3">
     <g id="line2d_3">
      <g>
       <use style="stroke:#000000;stroke-width:0.8;" x="154.386111" xlink:href="#m528b8fa9e7" y="307.584"/>
      </g>
     </g>
     <g id="text_3">
      <!-- 100 -->
      <g transform="translate(144.842361 322.182437)scale(0.1 -0.1)">
       <defs>
        <path d="M 794 531 
L 1825 531 
L 1825 4091 
L 703 3866 
L 703 4441 
L 1819 4666 
L 2450 4666 
L 2450 531 
L 3481 531 
L 3481 0 
L 794 0 
L 794 531 
z
" id="DejaVuSans-31" transform="scale(0.015625)"/>
       </defs>
       <use xlink:href="#DejaVuSans-31"/>
       <use x="63.623047" xlink:href="#DejaVuSans-30"/>
       <use x="127.246094" xlink:href="#DejaVuSans-30"/>
      </g>
     </g>
    </g>
    <g id="xtick_4">
     <g id="line2d_4">
      <g>
       <use style="stroke:#000000;stroke-width:0.8;" x="195.069638" xlink:href="#m528b8fa9e7" y="307.584"/>
      </g>
     </g>
     <g id="text_4">
      <!-- 150 -->
      <g transform="translate(185.525888 322.182437)scale(0.1 -0.1)">
       <use xlink:href="#DejaVuSans-31"/>
       <use x="63.623047" xlink:href="#DejaVuSans-35"/>
       <use x="127.246094" xlink:href="#DejaVuSans-30"/>
      </g>
     </g>
    </g>
    <g id="xtick_5">
     <g id="line2d_5">
      <g>
       <use style="stroke:#000000;stroke-width:0.8;" x="235.753165" xlink:href="#m528b8fa9e7" y="307.584"/>
      </g>
     </g>
     <g id="text_5">
      <!-- 200 -->
      <g transform="translate(226.209415 322.182437)scale(0.1 -0.1)">
       <defs>
        <path d="M 1228 531 
L 3431 531 
L 3431 0 
L 469 0 
L 469 531 
Q 828 903 1448 1529 
Q 2069 2156 2228 2338 
Q 2531 2678 2651 2914 
Q 2772 3150 2772 3378 
Q 2772 3750 2511 3984 
Q 2250 4219 1831 4219 
Q 1534 4219 1204 4116 
Q 875 4013 500 3803 
L 500 4441 
Q 881 4594 1212 4672 
Q 1544 4750 1819 4750 
Q 2544 4750 2975 4387 
Q 3406 4025 3406 3419 
Q 3406 3131 3298 2873 
Q 3191 2616 2906 2266 
Q 2828 2175 2409 1742 
Q 1991 1309 1228 531 
z
" id="DejaVuSans-32" transform="scale(0.015625)"/>
       </defs>
       <use xlink:href="#DejaVuSans-32"/>
       <use x="63.623047" xlink:href="#DejaVuSans-30"/>
       <use x="127.246094" xlink:href="#DejaVuSans-30"/>
      </g>
     </g>
    </g>
    <g id="xtick_6">
     <g id="line2d_6">
      <g>
       <use style="stroke:#000000;stroke-width:0.8;" x="276.436692" xlink:href="#m528b8fa9e7" y="307.584"/>
      </g>
     </g>
     <g id="text_6">
      <!-- 250 -->
      <g transform="translate(266.892942 322.182437)scale(0.1 -0.1)">
       <use xlink:href="#DejaVuSans-32"/>
       <use x="63.623047" xlink:href="#DejaVuSans-35"/>
       <use x="127.246094" xlink:href="#DejaVuSans-30"/>
      </g>
     </g>
    </g>
    <g id="xtick_7">
     <g id="line2d_7">
      <g>
       <use style="stroke:#000000;stroke-width:0.8;" x="317.120219" xlink:href="#m528b8fa9e7" y="307.584"/>
      </g>
     </g>
     <g id="text_7">
      <!-- 300 -->
      <g transform="translate(307.576469 322.182437)scale(0.1 -0.1)">
       <defs>
        <path d="M 2597 2516 
Q 3050 2419 3304 2112 
Q 3559 1806 3559 1356 
Q 3559 666 3084 287 
Q 2609 -91 1734 -91 
Q 1441 -91 1130 -33 
Q 819 25 488 141 
L 488 750 
Q 750 597 1062 519 
Q 1375 441 1716 441 
Q 2309 441 2620 675 
Q 2931 909 2931 1356 
Q 2931 1769 2642 2001 
Q 2353 2234 1838 2234 
L 1294 2234 
L 1294 2753 
L 1863 2753 
Q 2328 2753 2575 2939 
Q 2822 3125 2822 3475 
Q 2822 3834 2567 4026 
Q 2313 4219 1838 4219 
Q 1578 4219 1281 4162 
Q 984 4106 628 3988 
L 628 4550 
Q 988 4650 1302 4700 
Q 1616 4750 1894 4750 
Q 2613 4750 3031 4423 
Q 3450 4097 3450 3541 
Q 3450 3153 3228 2886 
Q 3006 2619 2597 2516 
z
" id="DejaVuSans-33" transform="scale(0.015625)"/>
       </defs>
       <use xlink:href="#DejaVuSans-33"/>
       <use x="63.623047" xlink:href="#DejaVuSans-30"/>
       <use x="127.246094" xlink:href="#DejaVuSans-30"/>
      </g>
     </g>
    </g>
    <g id="xtick_8">
     <g id="line2d_8">
      <g>
       <use style="stroke:#000000;stroke-width:0.8;" x="357.803746" xlink:href="#m528b8fa9e7" y="307.584"/>
      </g>
     </g>
     <g id="text_8">
      <!-- 350 -->
      <g transform="translate(348.259996 322.182437)scale(0.1 -0.1)">
       <use xlink:href="#DejaVuSans-33"/>
       <use x="63.623047" xlink:href="#DejaVuSans-35"/>
       <use x="127.246094" xlink:href="#DejaVuSans-30"/>
      </g>
     </g>
    </g>
    <g id="xtick_9">
     <g id="line2d_9">
      <g>
       <use style="stroke:#000000;stroke-width:0.8;" x="398.487273" xlink:href="#m528b8fa9e7" y="307.584"/>
      </g>
     </g>
     <g id="text_9">
      <!-- 400 -->
      <g transform="translate(388.943523 322.182437)scale(0.1 -0.1)">
       <defs>
        <path d="M 2419 4116 
L 825 1625 
L 2419 1625 
L 2419 4116 
z
M 2253 4666 
L 3047 4666 
L 3047 1625 
L 3713 1625 
L 3713 1100 
L 3047 1100 
L 3047 0 
L 2419 0 
L 2419 1100 
L 313 1100 
L 313 1709 
L 2253 4666 
z
" id="DejaVuSans-34" transform="scale(0.015625)"/>
       </defs>
       <use xlink:href="#DejaVuSans-34"/>
       <use x="63.623047" xlink:href="#DejaVuSans-30"/>
       <use x="127.246094" xlink:href="#DejaVuSans-30"/>
      </g>
     </g>
    </g>
    <g id="text_10">
     <!-- Epoch -->
     <g transform="translate(213.193594 339.659781)scale(0.15 -0.15)">
      <defs>
       <path d="M 628 4666 
L 3578 4666 
L 3578 4134 
L 1259 4134 
L 1259 2753 
L 3481 2753 
L 3481 2222 
L 1259 2222 
L 1259 531 
L 3634 531 
L 3634 0 
L 628 0 
L 628 4666 
z
" id="DejaVuSans-45" transform="scale(0.015625)"/>
       <path d="M 1159 525 
L 1159 -1331 
L 581 -1331 
L 581 3500 
L 1159 3500 
L 1159 2969 
Q 1341 3281 1617 3432 
Q 1894 3584 2278 3584 
Q 2916 3584 3314 3078 
Q 3713 2572 3713 1747 
Q 3713 922 3314 415 
Q 2916 -91 2278 -91 
Q 1894 -91 1617 61 
Q 1341 213 1159 525 
z
M 3116 1747 
Q 3116 2381 2855 2742 
Q 2594 3103 2138 3103 
Q 1681 3103 1420 2742 
Q 1159 2381 1159 1747 
Q 1159 1113 1420 752 
Q 1681 391 2138 391 
Q 2594 391 2855 752 
Q 3116 1113 3116 1747 
z
" id="DejaVuSans-70" transform="scale(0.015625)"/>
       <path d="M 1959 3097 
Q 1497 3097 1228 2736 
Q 959 2375 959 1747 
Q 959 1119 1226 758 
Q 1494 397 1959 397 
Q 2419 397 2687 759 
Q 2956 1122 2956 1747 
Q 2956 2369 2687 2733 
Q 2419 3097 1959 3097 
z
M 1959 3584 
Q 2709 3584 3137 3096 
Q 3566 2609 3566 1747 
Q 3566 888 3137 398 
Q 2709 -91 1959 -91 
Q 1206 -91 779 398 
Q 353 888 353 1747 
Q 353 2609 779 3096 
Q 1206 3584 1959 3584 
z
" id="DejaVuSans-6f" transform="scale(0.015625)"/>
       <path d="M 3122 3366 
L 3122 2828 
Q 2878 2963 2633 3030 
Q 2388 3097 2138 3097 
Q 1578 3097 1268 2742 
Q 959 2388 959 1747 
Q 959 1106 1268 751 
Q 1578 397 2138 397 
Q 2388 397 2633 464 
Q 2878 531 3122 666 
L 3122 134 
Q 2881 22 2623 -34 
Q 2366 -91 2075 -91 
Q 1284 -91 818 406 
Q 353 903 353 1747 
Q 353 2603 823 3093 
Q 1294 3584 2113 3584 
Q 2378 3584 2631 3529 
Q 2884 3475 3122 3366 
z
" id="DejaVuSans-63" transform="scale(0.015625)"/>
       <path d="M 3513 2113 
L 3513 0 
L 2938 0 
L 2938 2094 
Q 2938 2591 2744 2837 
Q 2550 3084 2163 3084 
Q 1697 3084 1428 2787 
Q 1159 2491 1159 1978 
L 1159 0 
L 581 0 
L 581 4863 
L 1159 4863 
L 1159 2956 
Q 1366 3272 1645 3428 
Q 1925 3584 2291 3584 
Q 2894 3584 3203 3211 
Q 3513 2838 3513 2113 
z
" id="DejaVuSans-68" transform="scale(0.015625)"/>
      </defs>
      <use xlink:href="#DejaVuSans-45"/>
      <use x="63.183594" xlink:href="#DejaVuSans-70"/>
      <use x="126.660156" xlink:href="#DejaVuSans-6f"/>
      <use x="187.841797" xlink:href="#DejaVuSans-63"/>
      <use x="242.822266" xlink:href="#DejaVuSans-68"/>
     </g>
    </g>
   </g>
   <g id="matplotlib.axis_2">
    <g id="ytick_1">
     <g id="line2d_10">
      <defs>
       <path d="M 0 0 
L -3.5 0 
" id="m3b82cd8a53" style="stroke:#000000;stroke-width:0.8;"/>
      </defs>
      <g>
       <use style="stroke:#000000;stroke-width:0.8;" x="57.6" xlink:href="#m3b82cd8a53" y="290.861249"/>
      </g>
     </g>
     <g id="text_11">
      <!-- −2500 -->
      <g transform="translate(16.770313 294.660467)scale(0.1 -0.1)">
       <defs>
        <path d="M 678 2272 
L 4684 2272 
L 4684 1741 
L 678 1741 
L 678 2272 
z
" id="DejaVuSans-2212" transform="scale(0.015625)"/>
       </defs>
       <use xlink:href="#DejaVuSans-2212"/>
       <use x="83.789062" xlink:href="#DejaVuSans-32"/>
       <use x="147.412109" xlink:href="#DejaVuSans-35"/>
       <use x="211.035156" xlink:href="#DejaVuSans-30"/>
       <use x="274.658203" xlink:href="#DejaVuSans-30"/>
      </g>
     </g>
    </g>
    <g id="ytick_2">
     <g id="line2d_11">
      <g>
       <use style="stroke:#000000;stroke-width:0.8;" x="57.6" xlink:href="#m3b82cd8a53" y="258.901205"/>
      </g>
     </g>
     <g id="text_12">
      <!-- −2250 -->
      <g transform="translate(16.770313 262.700424)scale(0.1 -0.1)">
       <use xlink:href="#DejaVuSans-2212"/>
       <use x="83.789062" xlink:href="#DejaVuSans-32"/>
       <use x="147.412109" xlink:href="#DejaVuSans-32"/>
       <use x="211.035156" xlink:href="#DejaVuSans-35"/>
       <use x="274.658203" xlink:href="#DejaVuSans-30"/>
      </g>
     </g>
    </g>
    <g id="ytick_3">
     <g id="line2d_12">
      <g>
       <use style="stroke:#000000;stroke-width:0.8;" x="57.6" xlink:href="#m3b82cd8a53" y="226.941161"/>
      </g>
     </g>
     <g id="text_13">
      <!-- −2000 -->
      <g transform="translate(16.770313 230.74038)scale(0.1 -0.1)">
       <use xlink:href="#DejaVuSans-2212"/>
       <use x="83.789062" xlink:href="#DejaVuSans-32"/>
       <use x="147.412109" xlink:href="#DejaVuSans-30"/>
       <use x="211.035156" xlink:href="#DejaVuSans-30"/>
       <use x="274.658203" xlink:href="#DejaVuSans-30"/>
      </g>
     </g>
    </g>
    <g id="ytick_4">
     <g id="line2d_13">
      <g>
       <use style="stroke:#000000;stroke-width:0.8;" x="57.6" xlink:href="#m3b82cd8a53" y="194.981118"/>
      </g>
     </g>
     <g id="text_14">
      <!-- −1750 -->
      <g transform="translate(16.770313 198.780336)scale(0.1 -0.1)">
       <defs>
        <path d="M 525 4666 
L 3525 4666 
L 3525 4397 
L 1831 0 
L 1172 0 
L 2766 4134 
L 525 4134 
L 525 4666 
z
" id="DejaVuSans-37" transform="scale(0.015625)"/>
       </defs>
       <use xlink:href="#DejaVuSans-2212"/>
       <use x="83.789062" xlink:href="#DejaVuSans-31"/>
       <use x="147.412109" xlink:href="#DejaVuSans-37"/>
       <use x="211.035156" xlink:href="#DejaVuSans-35"/>
       <use x="274.658203" xlink:href="#DejaVuSans-30"/>
      </g>
     </g>
    </g>
    <g id="ytick_5">
     <g id="line2d_14">
      <g>
       <use style="stroke:#000000;stroke-width:0.8;" x="57.6" xlink:href="#m3b82cd8a53" y="163.021074"/>
      </g>
     </g>
     <g id="text_15">
      <!-- −1500 -->
      <g transform="translate(16.770313 166.820293)scale(0.1 -0.1)">
       <use xlink:href="#DejaVuSans-2212"/>
       <use x="83.789062" xlink:href="#DejaVuSans-31"/>
       <use x="147.412109" xlink:href="#DejaVuSans-35"/>
       <use x="211.035156" xlink:href="#DejaVuSans-30"/>
       <use x="274.658203" xlink:href="#DejaVuSans-30"/>
      </g>
     </g>
    </g>
    <g id="ytick_6">
     <g id="line2d_15">
      <g>
       <use style="stroke:#000000;stroke-width:0.8;" x="57.6" xlink:href="#m3b82cd8a53" y="131.06103"/>
      </g>
     </g>
     <g id="text_16">
      <!-- −1250 -->
      <g transform="translate(16.770313 134.860249)scale(0.1 -0.1)">
       <use xlink:href="#DejaVuSans-2212"/>
       <use x="83.789062" xlink:href="#DejaVuSans-31"/>
       <use x="147.412109" xlink:href="#DejaVuSans-32"/>
       <use x="211.035156" xlink:href="#DejaVuSans-35"/>
       <use x="274.658203" xlink:href="#DejaVuSans-30"/>
      </g>
     </g>
    </g>
    <g id="ytick_7">
     <g id="line2d_16">
      <g>
       <use style="stroke:#000000;stroke-width:0.8;" x="57.6" xlink:href="#m3b82cd8a53" y="99.100987"/>
      </g>
     </g>
     <g id="text_17">
      <!-- −1000 -->
      <g transform="translate(16.770313 102.900206)scale(0.1 -0.1)">
       <use xlink:href="#DejaVuSans-2212"/>
       <use x="83.789062" xlink:href="#DejaVuSans-31"/>
       <use x="147.412109" xlink:href="#DejaVuSans-30"/>
       <use x="211.035156" xlink:href="#DejaVuSans-30"/>
       <use x="274.658203" xlink:href="#DejaVuSans-30"/>
      </g>
     </g>
    </g>
    <g id="ytick_8">
     <g id="line2d_17">
      <g>
       <use style="stroke:#000000;stroke-width:0.8;" x="57.6" xlink:href="#m3b82cd8a53" y="67.140943"/>
      </g>
     </g>
     <g id="text_18">
      <!-- −750 -->
      <g transform="translate(23.132812 70.940162)scale(0.1 -0.1)">
       <use xlink:href="#DejaVuSans-2212"/>
       <use x="83.789062" xlink:href="#DejaVuSans-37"/>
       <use x="147.412109" xlink:href="#DejaVuSans-35"/>
       <use x="211.035156" xlink:href="#DejaVuSans-30"/>
      </g>
     </g>
    </g>
    <g id="text_19">
     <!-- Loss -->
     <g transform="translate(9.650781 190.978781)rotate(-90)scale(0.15 -0.15)">
      <defs>
       <path d="M 628 4666 
L 1259 4666 
L 1259 531 
L 3531 531 
L 3531 0 
L 628 0 
L 628 4666 
z
" id="DejaVuSans-4c" transform="scale(0.015625)"/>
       <path d="M 2834 3397 
L 2834 2853 
Q 2591 2978 2328 3040 
Q 2066 3103 1784 3103 
Q 1356 3103 1142 2972 
Q 928 2841 928 2578 
Q 928 2378 1081 2264 
Q 1234 2150 1697 2047 
L 1894 2003 
Q 2506 1872 2764 1633 
Q 3022 1394 3022 966 
Q 3022 478 2636 193 
Q 2250 -91 1575 -91 
Q 1294 -91 989 -36 
Q 684 19 347 128 
L 347 722 
Q 666 556 975 473 
Q 1284 391 1588 391 
Q 1994 391 2212 530 
Q 2431 669 2431 922 
Q 2431 1156 2273 1281 
Q 2116 1406 1581 1522 
L 1381 1569 
Q 847 1681 609 1914 
Q 372 2147 372 2553 
Q 372 3047 722 3315 
Q 1072 3584 1716 3584 
Q 2034 3584 2315 3537 
Q 2597 3491 2834 3397 
z
" id="DejaVuSans-73" transform="scale(0.015625)"/>
      </defs>
      <use xlink:href="#DejaVuSans-4c"/>
      <use x="53.962891" xlink:href="#DejaVuSans-6f"/>
      <use x="115.144531" xlink:href="#DejaVuSans-73"/>
      <use x="167.244141" xlink:href="#DejaVuSans-73"/>
     </g>
    </g>
   </g>
   <g id="line2d_18">
    <path clip-path="url(#p78f0e643fe)" d="M 73.832727 53.568 
L 74.646398 105.071349 
L 75.460068 124.66269 
L 76.273739 135.890944 
L 77.087409 162.536487 
L 77.90108 181.851792 
L 79.528421 198.38528 
L 80.342092 203.641613 
L 81.155762 210.070408 
L 81.969433 213.761143 
L 82.783103 223.590613 
L 83.596774 226.890949 
L 84.410444 228.368945 
L 86.037785 233.097968 
L 86.851456 232.635554 
L 87.665126 236.072109 
L 88.478797 235.508463 
L 89.292468 236.925734 
L 90.106138 236.663961 
L 90.919809 241.454254 
L 91.733479 241.122908 
L 92.54715 237.668731 
L 93.36082 242.861046 
L 94.988161 243.026356 
L 95.801832 244.770363 
L 96.615502 243.217464 
L 97.429173 246.675884 
L 98.242843 247.656866 
L 99.056514 249.786559 
L 99.870185 247.711722 
L 100.683855 249.317396 
L 101.497526 249.41476 
L 102.311196 247.3578 
L 103.124867 251.954107 
L 103.938537 253.762072 
L 104.752208 253.016723 
L 105.565878 257.26332 
L 106.379549 254.441713 
L 107.193219 257.640304 
L 108.00689 257.193107 
L 108.82056 258.951962 
L 109.634231 257.33877 
L 110.447902 259.243339 
L 111.261572 258.734109 
L 112.075243 259.930158 
L 112.888913 257.124188 
L 113.702584 261.672587 
L 114.516254 259.744181 
L 115.329925 259.915338 
L 116.143595 261.177652 
L 116.957266 261.100173 
L 117.770936 261.178193 
L 118.584607 260.960054 
L 119.398278 260.101377 
L 120.211948 260.364926 
L 121.025619 258.441119 
L 121.839289 264.508403 
L 122.65296 260.779341 
L 123.46663 263.740085 
L 124.280301 265.668342 
L 125.093971 260.841591 
L 125.907642 264.458021 
L 126.721312 262.239964 
L 127.534983 260.846074 
L 128.348653 264.596329 
L 129.162324 261.818278 
L 129.975995 263.83235 
L 130.789665 261.851713 
L 131.603336 261.499058 
L 132.417006 264.555616 
L 133.230677 261.979046 
L 134.044347 261.786132 
L 134.858018 262.479704 
L 135.671688 264.649174 
L 136.485359 264.352013 
L 137.299029 261.050791 
L 138.1127 264.94567 
L 138.92637 262.993666 
L 140.553712 267.273342 
L 141.367382 266.593489 
L 142.181053 267.455279 
L 142.994723 265.342331 
L 144.622064 265.887948 
L 145.435735 263.728671 
L 146.249405 265.65049 
L 147.063076 266.689889 
L 147.876746 266.630205 
L 148.690417 265.020582 
L 150.317758 265.560546 
L 151.131429 263.992193 
L 151.945099 266.804073 
L 152.75877 266.55248 
L 153.57244 265.239086 
L 154.386111 268.257576 
L 155.199781 265.658942 
L 156.013452 264.113329 
L 156.827122 265.854892 
L 157.640793 267.132026 
L 158.454463 265.599206 
L 159.268134 268.100679 
L 160.081805 266.570894 
L 160.895475 267.517009 
L 161.709146 266.922217 
L 162.522816 263.570775 
L 163.336487 267.012596 
L 164.150157 267.138131 
L 165.777498 267.56114 
L 166.591169 268.153088 
L 167.404839 266.753069 
L 168.21851 267.956026 
L 169.03218 270.1696 
L 169.845851 264.050316 
L 170.659522 265.920465 
L 171.473192 267.299582 
L 172.286863 262.706969 
L 173.100533 270.044302 
L 173.914204 268.060216 
L 175.541545 269.687026 
L 176.355215 267.044731 
L 177.168886 270.301793 
L 178.796227 268.815863 
L 179.609897 270.535277 
L 180.423568 270.235415 
L 181.237239 268.557962 
L 182.050909 269.504351 
L 182.86458 270.679109 
L 183.67825 267.364793 
L 184.491921 268.112079 
L 185.305591 269.395251 
L 186.119262 269.864543 
L 186.932932 269.764631 
L 187.746603 269.321554 
L 188.560273 270.179095 
L 189.373944 272.224376 
L 190.187614 269.845865 
L 191.001285 269.666121 
L 191.814956 271.703946 
L 192.628626 271.742405 
L 193.442297 271.093935 
L 194.255967 267.171046 
L 195.069638 269.778517 
L 195.883308 271.805671 
L 196.696979 268.794839 
L 197.510649 270.862937 
L 198.32432 270.885099 
L 199.13799 270.053645 
L 199.951661 271.354381 
L 200.765332 270.217371 
L 201.579002 268.044653 
L 202.392673 273.667046 
L 203.206343 271.669119 
L 204.020014 270.581852 
L 204.833684 269.756029 
L 205.647355 271.285419 
L 206.461025 270.646233 
L 207.274696 269.71288 
L 208.902037 272.660114 
L 209.715707 271.628809 
L 210.529378 270.84825 
L 211.343049 268.761636 
L 212.156719 272.067657 
L 212.97039 271.336649 
L 213.78406 271.980737 
L 214.597731 271.767427 
L 215.411401 271.305999 
L 216.225072 273.634184 
L 217.852413 274.781553 
L 218.666083 273.133416 
L 219.479754 271.14706 
L 220.293424 273.185486 
L 221.107095 272.460587 
L 221.920766 267.158041 
L 222.734436 271.665338 
L 223.548107 270.883125 
L 224.361777 270.425696 
L 225.175448 269.202607 
L 225.989118 272.453088 
L 226.802789 272.018291 
L 227.616459 271.737669 
L 228.43013 271.750786 
L 229.2438 271.504114 
L 230.057471 271.45298 
L 230.871141 271.655554 
L 231.684812 271.554935 
L 232.498483 271.219977 
L 233.312153 271.661639 
L 234.125824 271.092912 
L 234.939494 272.835548 
L 235.753165 273.823554 
L 236.566835 272.400725 
L 237.380506 274.056065 
L 238.194176 274.088758 
L 239.007847 274.77972 
L 239.821517 271.282961 
L 240.635188 270.103387 
L 241.448859 273.708476 
L 242.262529 273.364742 
L 243.0762 272.088927 
L 243.88987 273.796481 
L 244.703541 274.566548 
L 245.517211 272.893613 
L 246.330882 273.08847 
L 247.144552 271.015381 
L 247.958223 273.092066 
L 248.771893 274.206543 
L 249.585564 273.159862 
L 250.399234 272.750855 
L 251.212905 275.956205 
L 252.026576 274.59314 
L 252.840246 271.477271 
L 253.653917 272.098797 
L 254.467587 272.556908 
L 255.281258 268.869654 
L 256.094928 274.667238 
L 256.908599 272.203625 
L 257.722269 273.006297 
L 258.53594 270.722271 
L 259.34961 275.661155 
L 260.163281 271.728373 
L 260.976951 273.946743 
L 261.790622 273.184653 
L 262.604293 272.019178 
L 263.417963 274.153987 
L 264.231634 273.933693 
L 265.045304 274.420961 
L 265.858975 274.515601 
L 266.672645 275.048443 
L 267.486316 274.779708 
L 268.299986 271.457555 
L 269.113657 276.875028 
L 269.927327 274.296001 
L 270.740998 275.385819 
L 271.554668 274.181181 
L 272.368339 274.545488 
L 273.18201 273.911216 
L 273.99568 274.531787 
L 275.623021 276.228772 
L 276.436692 271.520562 
L 277.250362 275.596604 
L 278.064033 274.097881 
L 278.877703 273.500483 
L 279.691374 275.997461 
L 280.505044 274.286348 
L 281.318715 274.143667 
L 282.132386 272.320954 
L 282.946056 275.420797 
L 283.759727 273.924057 
L 285.387068 274.031283 
L 286.200738 273.681516 
L 287.014409 275.829344 
L 287.828079 276.030402 
L 288.64175 273.456849 
L 289.45542 274.532631 
L 290.269091 273.546329 
L 291.082761 275.262424 
L 291.896432 274.033484 
L 292.710103 274.148917 
L 293.523773 273.839651 
L 294.337444 276.322841 
L 295.151114 273.891285 
L 295.964785 277.498803 
L 296.778455 273.815804 
L 297.592126 276.656129 
L 298.405796 274.570859 
L 299.219467 274.655531 
L 300.033137 275.164267 
L 300.846808 276.823287 
L 301.660478 276.302374 
L 302.474149 274.501031 
L 303.28782 272.156202 
L 304.10149 277.76458 
L 304.915161 274.362356 
L 305.728831 276.707626 
L 306.542502 276.804009 
L 307.356172 276.298095 
L 308.169843 273.583693 
L 308.983513 273.747512 
L 309.797184 276.116295 
L 310.610854 275.13345 
L 311.424525 274.40804 
L 312.238195 276.618252 
L 313.051866 275.342758 
L 313.865537 275.491023 
L 314.679207 275.518249 
L 315.492878 276.921545 
L 316.306548 277.140098 
L 317.120219 273.718119 
L 317.933889 273.972419 
L 318.74756 275.94879 
L 319.56123 273.286773 
L 320.374901 277.765779 
L 321.188571 277.749647 
L 322.002242 276.769405 
L 322.815913 273.254918 
L 323.629583 277.291154 
L 324.443254 275.896502 
L 326.070595 272.804404 
L 326.884265 277.075777 
L 327.697936 273.640356 
L 328.511606 277.525395 
L 330.138947 276.292427 
L 330.952618 277.221923 
L 331.766288 276.549552 
L 332.579959 277.420345 
L 333.39363 276.496815 
L 334.2073 274.560863 
L 335.020971 276.792635 
L 335.834641 275.961302 
L 336.648312 275.769942 
L 337.461982 274.386611 
L 338.275653 275.296294 
L 339.089323 276.987826 
L 339.902994 276.768401 
L 340.716664 276.031487 
L 341.530335 274.291543 
L 342.344005 276.901046 
L 343.157676 275.127374 
L 343.971347 275.518752 
L 344.785017 275.408511 
L 345.598688 275.813297 
L 346.412358 276.693214 
L 347.226029 274.877881 
L 348.039699 278.391677 
L 348.85337 275.838542 
L 349.66704 275.79594 
L 350.480711 276.200259 
L 351.294381 275.642198 
L 353.735393 277.81972 
L 354.549064 274.738571 
L 355.362734 275.765152 
L 356.176405 277.420014 
L 356.990075 276.737353 
L 357.803746 276.94127 
L 358.617416 276.772676 
L 359.431087 274.506817 
L 360.244757 279.240135 
L 361.058428 276.404093 
L 361.872098 278.88041 
L 363.49944 275.557536 
L 364.31311 280.300197 
L 365.126781 277.921152 
L 365.940451 276.16507 
L 366.754122 275.240183 
L 367.567792 276.880156 
L 368.381463 274.923885 
L 369.195133 276.283395 
L 370.008804 279.845065 
L 370.822474 277.065135 
L 371.636145 276.315324 
L 372.449815 275.831974 
L 373.263486 277.695774 
L 374.077157 277.210273 
L 374.890827 275.516559 
L 375.704498 278.962108 
L 376.518168 274.89931 
L 377.331839 277.707121 
L 378.145509 279.815122 
L 378.95918 277.330955 
L 379.77285 276.642888 
L 380.586521 277.671428 
L 381.400191 278.155066 
L 382.213862 277.699782 
L 383.027532 278.740536 
L 383.841203 279.124238 
L 384.654874 275.707824 
L 385.468544 278.526378 
L 387.095885 281.464993 
L 387.909556 284.465662 
L 388.723226 277.710901 
L 389.536897 278.949996 
L 390.350567 279.289009 
L 391.164238 279.771138 
L 391.977908 280.078036 
L 392.791579 282.162494 
L 393.605249 280.301724 
L 395.232591 280.734807 
L 396.046261 281.464985 
L 396.859932 279.362429 
L 397.673602 279.986776 
L 398.487273 282.386766 
L 398.487273 282.386766 
" style="fill:none;stroke:#1f77b4;stroke-linecap:square;stroke-width:1.5;"/>
   </g>
   <g id="line2d_19">
    <path clip-path="url(#p78f0e643fe)" d="M 73.832727 94.794464 
L 74.646398 102.567284 
L 75.460068 126.18493 
L 76.273739 164.946501 
L 77.087409 162.769448 
L 78.714751 197.744584 
L 79.528421 210.61052 
L 80.342092 200.357363 
L 81.155762 224.570749 
L 81.969433 238.526551 
L 82.783103 207.720196 
L 83.596774 233.820292 
L 84.410444 238.341225 
L 85.224115 237.661422 
L 86.037785 231.751857 
L 86.851456 215.870804 
L 87.665126 247.255189 
L 88.478797 239.790251 
L 89.292468 218.482677 
L 90.106138 245.124618 
L 90.919809 233.156317 
L 91.733479 238.044044 
L 92.54715 252.281881 
L 93.36082 223.97233 
L 94.174491 237.024746 
L 94.988161 242.819772 
L 95.801832 244.446433 
L 96.615502 258.268338 
L 97.429173 222.975801 
L 98.242843 257.770957 
L 99.056514 259.927782 
L 99.870185 257.059784 
L 100.683855 241.472887 
L 101.497526 264.656225 
L 102.311196 238.790217 
L 103.124867 264.298275 
L 103.938537 244.625398 
L 104.752208 218.209001 
L 105.565878 219.282316 
L 106.379549 260.653074 
L 107.193219 257.437431 
L 108.00689 255.15585 
L 108.82056 243.920532 
L 109.634231 248.339308 
L 110.447902 261.107175 
L 111.261572 239.473943 
L 112.075243 261.467221 
L 112.888913 260.592039 
L 113.702584 265.915194 
L 114.516254 278.781542 
L 115.329925 229.3896 
L 116.143595 253.006512 
L 116.957266 254.032942 
L 117.770936 259.401662 
L 118.584607 235.602536 
L 119.398278 257.534249 
L 120.211948 230.89546 
L 121.025619 284.195025 
L 122.65296 254.655074 
L 123.46663 271.720683 
L 124.280301 247.40363 
L 125.093971 256.219364 
L 125.907642 255.207706 
L 126.721312 267.367283 
L 127.534983 235.393296 
L 128.348653 265.439761 
L 129.162324 257.491356 
L 129.975995 271.28078 
L 130.789665 258.751095 
L 131.603336 255.796655 
L 132.417006 270.725976 
L 133.230677 251.052725 
L 134.044347 254.377525 
L 134.858018 250.092322 
L 135.671688 265.926394 
L 137.299029 269.626433 
L 138.1127 252.478806 
L 138.92637 266.349731 
L 139.740041 270.0731 
L 140.553712 268.90953 
L 141.367382 278.678458 
L 142.181053 278.520812 
L 142.994723 265.906882 
L 143.808394 268.193671 
L 144.622064 240.911747 
L 145.435735 253.894761 
L 146.249405 264.842223 
L 147.063076 258.962215 
L 147.876746 280.429803 
L 148.690417 287.519957 
L 149.504087 270.340855 
L 150.317758 267.27587 
L 151.131429 272.018009 
L 151.945099 253.499303 
L 152.75877 230.719609 
L 153.57244 264.107034 
L 154.386111 275.679684 
L 155.199781 269.307787 
L 156.013452 265.686991 
L 156.827122 278.718883 
L 157.640793 267.155227 
L 158.454463 263.168922 
L 159.268134 272.446003 
L 160.081805 262.982088 
L 160.895475 269.324197 
L 161.709146 248.527469 
L 162.522816 257.8656 
L 163.336487 244.557937 
L 164.150157 265.243973 
L 164.963828 268.616646 
L 165.777498 281.470165 
L 166.591169 254.260484 
L 167.404839 256.796947 
L 168.21851 265.86925 
L 169.03218 266.073762 
L 169.845851 265.187171 
L 170.659522 260.9601 
L 171.473192 280.542946 
L 172.286863 276.243746 
L 173.100533 265.011463 
L 173.914204 268.161781 
L 174.727874 263.830746 
L 175.541545 264.997056 
L 176.355215 272.838597 
L 177.168886 260.731002 
L 177.982556 280.08223 
L 178.796227 234.879212 
L 179.609897 239.505884 
L 180.423568 254.435724 
L 181.237239 260.997692 
L 182.050909 279.546638 
L 182.86458 238.658558 
L 183.67825 265.954279 
L 184.491921 260.060839 
L 185.305591 276.94754 
L 186.119262 258.951938 
L 186.932932 280.891285 
L 187.746603 267.738415 
L 188.560273 243.952688 
L 189.373944 281.383647 
L 190.187614 261.420732 
L 191.001285 252.561405 
L 191.814956 261.78702 
L 192.628626 284.41699 
L 193.442297 285.232329 
L 194.255967 276.460349 
L 195.069638 265.363087 
L 195.883308 286.800228 
L 196.696979 278.969731 
L 197.510649 274.978778 
L 198.32432 265.906744 
L 199.13799 280.321482 
L 199.951661 258.641384 
L 200.765332 271.410689 
L 201.579002 270.586932 
L 202.392673 276.324358 
L 203.206343 282.963652 
L 204.020014 252.031979 
L 204.833684 275.198334 
L 205.647355 272.642354 
L 206.461025 275.32456 
L 207.274696 263.308323 
L 208.088366 264.232611 
L 208.902037 264.930011 
L 209.715707 272.017538 
L 210.529378 252.299132 
L 211.343049 271.627435 
L 212.156719 279.994845 
L 212.97039 269.115822 
L 213.78406 272.628329 
L 214.597731 271.836422 
L 215.411401 262.692475 
L 216.225072 266.50937 
L 217.038742 279.624053 
L 218.666083 261.70884 
L 219.479754 246.854697 
L 220.293424 245.058421 
L 221.107095 281.482399 
L 221.920766 270.460601 
L 222.734436 273.595513 
L 223.548107 286.569977 
L 224.361777 270.096306 
L 225.175448 265.52794 
L 225.989118 268.912801 
L 226.802789 265.325705 
L 227.616459 248.881148 
L 228.43013 276.843519 
L 229.2438 287.822953 
L 230.057471 289.762773 
L 230.871141 276.16851 
L 231.684812 253.116303 
L 232.498483 275.924892 
L 233.312153 264.290309 
L 234.125824 272.737784 
L 234.939494 271.149788 
L 235.753165 260.55375 
L 236.566835 265.673961 
L 237.380506 266.614433 
L 238.194176 245.103717 
L 239.007847 276.785684 
L 239.821517 273.321647 
L 240.635188 288.776001 
L 241.448859 269.501329 
L 242.262529 282.86589 
L 243.0762 279.368406 
L 243.88987 244.614032 
L 244.703541 280.929997 
L 245.517211 258.86429 
L 246.330882 272.168727 
L 247.144552 276.761671 
L 247.958223 282.1181 
L 248.771893 275.129096 
L 249.585564 272.695026 
L 250.399234 257.11884 
L 251.212905 265.853446 
L 252.026576 280.162969 
L 252.840246 254.720415 
L 253.653917 262.115344 
L 254.467587 277.5207 
L 255.281258 279.209431 
L 256.094928 282.571247 
L 256.908599 279.361893 
L 257.722269 262.252452 
L 258.53594 273.559549 
L 259.34961 268.614357 
L 260.163281 277.106187 
L 260.976951 257.762688 
L 261.790622 256.827806 
L 262.604293 267.774921 
L 263.417963 265.470037 
L 264.231634 279.293182 
L 265.045304 280.349715 
L 265.858975 252.799434 
L 266.672645 291.420956 
L 267.486316 287.779101 
L 268.299986 248.393833 
L 269.113657 274.504916 
L 269.927327 250.512344 
L 270.740998 279.484439 
L 271.554668 276.856472 
L 272.368339 276.580508 
L 273.18201 295.488 
L 273.99568 279.646444 
L 274.809351 255.146679 
L 275.623021 253.380199 
L 276.436692 260.688115 
L 278.064033 284.845261 
L 278.877703 285.886143 
L 279.691374 282.910424 
L 280.505044 289.372983 
L 281.318715 283.085567 
L 282.132386 274.45994 
L 282.946056 269.815169 
L 283.759727 253.307701 
L 284.573397 250.589097 
L 285.387068 285.482105 
L 286.200738 282.530143 
L 287.014409 288.753093 
L 287.828079 270.996364 
L 288.64175 256.988233 
L 289.45542 255.565402 
L 290.269091 286.68438 
L 291.082761 265.80497 
L 291.896432 277.190337 
L 292.710103 277.153065 
L 293.523773 269.009973 
L 294.337444 273.116945 
L 295.151114 278.691903 
L 295.964785 272.051314 
L 296.778455 276.022912 
L 297.592126 271.351079 
L 298.405796 272.221966 
L 299.219467 285.021788 
L 300.033137 257.12638 
L 300.846808 287.542215 
L 301.660478 270.887587 
L 302.474149 277.0026 
L 303.28782 277.869005 
L 304.10149 274.213902 
L 304.915161 277.01634 
L 306.542502 271.983604 
L 307.356172 291.806659 
L 308.169843 290.547075 
L 308.983513 275.254167 
L 309.797184 251.145368 
L 310.610854 279.229488 
L 311.424525 278.517727 
L 312.238195 279.405405 
L 313.051866 277.799655 
L 313.865537 277.358184 
L 314.679207 278.97933 
L 315.492878 283.680536 
L 316.306548 281.721085 
L 317.120219 278.995206 
L 317.933889 271.538401 
L 318.74756 262.108429 
L 319.56123 278.944737 
L 320.374901 269.66908 
L 321.188571 285.536561 
L 322.002242 268.011437 
L 322.815913 266.365869 
L 323.629583 280.720983 
L 324.443254 265.915543 
L 325.256924 253.962978 
L 326.070595 282.09741 
L 326.884265 260.877019 
L 327.697936 278.219538 
L 328.511606 281.984945 
L 329.325277 266.649616 
L 330.138947 276.366559 
L 330.952618 268.983641 
L 331.766288 250.16003 
L 332.579959 269.475215 
L 333.39363 259.168602 
L 334.2073 246.025867 
L 335.020971 252.79814 
L 335.834641 287.319789 
L 336.648312 249.614243 
L 337.461982 283.620269 
L 338.275653 281.389752 
L 339.089323 282.102802 
L 339.902994 273.420683 
L 340.716664 283.137954 
L 341.530335 278.527438 
L 342.344005 287.355757 
L 343.157676 276.760379 
L 343.971347 263.235943 
L 345.598688 275.825517 
L 346.412358 266.203155 
L 347.226029 288.505491 
L 348.039699 277.569971 
L 348.85337 260.070184 
L 349.66704 271.579888 
L 350.480711 277.137661 
L 351.294381 284.338342 
L 352.108052 281.319114 
L 352.921722 288.709899 
L 353.735393 259.247196 
L 354.549064 280.783098 
L 355.362734 271.916753 
L 356.176405 285.8386 
L 356.990075 279.60122 
L 357.803746 262.225227 
L 358.617416 282.816637 
L 359.431087 287.784052 
L 360.244757 288.076617 
L 361.058428 276.646378 
L 361.872098 288.436964 
L 362.685769 260.437678 
L 363.49944 273.990372 
L 364.31311 285.12984 
L 365.126781 270.171941 
L 365.940451 278.072938 
L 366.754122 281.153847 
L 367.567792 288.662226 
L 368.381463 275.123317 
L 369.195133 275.866329 
L 370.008804 269.152009 
L 370.822474 268.778666 
L 371.636145 276.158133 
L 372.449815 255.185166 
L 373.263486 284.855765 
L 374.077157 285.736986 
L 374.890827 280.953565 
L 375.704498 259.267403 
L 376.518168 259.088672 
L 377.331839 276.894205 
L 378.145509 274.816112 
L 378.95918 267.163442 
L 379.77285 283.045423 
L 380.586521 286.964812 
L 381.400191 250.173931 
L 383.027532 270.541232 
L 383.841203 274.348236 
L 384.654874 260.948722 
L 385.468544 269.120219 
L 386.282215 275.306157 
L 387.095885 252.905086 
L 387.909556 282.160046 
L 388.723226 274.162311 
L 389.536897 290.046701 
L 390.350567 280.383517 
L 391.164238 289.628748 
L 391.977908 276.671003 
L 392.791579 285.210488 
L 393.605249 278.821817 
L 394.41892 284.589436 
L 395.232591 263.100446 
L 396.046261 278.192258 
L 396.859932 290.804403 
L 397.673602 251.599069 
L 398.487273 282.45113 
L 398.487273 282.45113 
" style="fill:none;stroke:#ff7f0e;stroke-linecap:square;stroke-width:1.5;"/>
   </g>
   <g id="patch_3">
    <path d="M 57.6 307.584 
L 57.6 41.472 
" style="fill:none;stroke:#000000;stroke-linecap:square;stroke-linejoin:miter;stroke-width:0.8;"/>
   </g>
   <g id="patch_4">
    <path d="M 414.72 307.584 
L 414.72 41.472 
" style="fill:none;stroke:#000000;stroke-linecap:square;stroke-linejoin:miter;stroke-width:0.8;"/>
   </g>
   <g id="patch_5">
    <path d="M 57.6 307.584 
L 414.72 307.584 
" style="fill:none;stroke:#000000;stroke-linecap:square;stroke-linejoin:miter;stroke-width:0.8;"/>
   </g>
   <g id="patch_6">
    <path d="M 57.6 41.472 
L 414.72 41.472 
" style="fill:none;stroke:#000000;stroke-linecap:square;stroke-linejoin:miter;stroke-width:0.8;"/>
   </g>
   <g id="legend_1">
    <g id="patch_7">
     <path d="M 303.845 78.82825 
L 407.72 78.82825 
Q 409.72 78.82825 409.72 76.82825 
L 409.72 48.472 
Q 409.72 46.472 407.72 46.472 
L 303.845 46.472 
Q 301.845 46.472 301.845 48.472 
L 301.845 76.82825 
Q 301.845 78.82825 303.845 78.82825 
z
" style="fill:#ffffff;opacity:0.8;stroke:#cccccc;stroke-linejoin:miter;"/>
    </g>
    <g id="line2d_20">
     <path d="M 305.845 54.570437 
L 325.845 54.570437 
" style="fill:none;stroke:#1f77b4;stroke-linecap:square;stroke-width:1.5;"/>
    </g>
    <g id="line2d_21"/>
    <g id="text_20">
     <!-- Train loss -->
     <g transform="translate(333.845 58.070437)scale(0.1 -0.1)">
      <defs>
       <path d="M -19 4666 
L 3928 4666 
L 3928 4134 
L 2272 4134 
L 2272 0 
L 1638 0 
L 1638 4134 
L -19 4134 
L -19 4666 
z
" id="DejaVuSans-54" transform="scale(0.015625)"/>
       <path d="M 2631 2963 
Q 2534 3019 2420 3045 
Q 2306 3072 2169 3072 
Q 1681 3072 1420 2755 
Q 1159 2438 1159 1844 
L 1159 0 
L 581 0 
L 581 3500 
L 1159 3500 
L 1159 2956 
Q 1341 3275 1631 3429 
Q 1922 3584 2338 3584 
Q 2397 3584 2469 3576 
Q 2541 3569 2628 3553 
L 2631 2963 
z
" id="DejaVuSans-72" transform="scale(0.015625)"/>
       <path d="M 2194 1759 
Q 1497 1759 1228 1600 
Q 959 1441 959 1056 
Q 959 750 1161 570 
Q 1363 391 1709 391 
Q 2188 391 2477 730 
Q 2766 1069 2766 1631 
L 2766 1759 
L 2194 1759 
z
M 3341 1997 
L 3341 0 
L 2766 0 
L 2766 531 
Q 2569 213 2275 61 
Q 1981 -91 1556 -91 
Q 1019 -91 701 211 
Q 384 513 384 1019 
Q 384 1609 779 1909 
Q 1175 2209 1959 2209 
L 2766 2209 
L 2766 2266 
Q 2766 2663 2505 2880 
Q 2244 3097 1772 3097 
Q 1472 3097 1187 3025 
Q 903 2953 641 2809 
L 641 3341 
Q 956 3463 1253 3523 
Q 1550 3584 1831 3584 
Q 2591 3584 2966 3190 
Q 3341 2797 3341 1997 
z
" id="DejaVuSans-61" transform="scale(0.015625)"/>
       <path d="M 603 3500 
L 1178 3500 
L 1178 0 
L 603 0 
L 603 3500 
z
M 603 4863 
L 1178 4863 
L 1178 4134 
L 603 4134 
L 603 4863 
z
" id="DejaVuSans-69" transform="scale(0.015625)"/>
       <path d="M 3513 2113 
L 3513 0 
L 2938 0 
L 2938 2094 
Q 2938 2591 2744 2837 
Q 2550 3084 2163 3084 
Q 1697 3084 1428 2787 
Q 1159 2491 1159 1978 
L 1159 0 
L 581 0 
L 581 3500 
L 1159 3500 
L 1159 2956 
Q 1366 3272 1645 3428 
Q 1925 3584 2291 3584 
Q 2894 3584 3203 3211 
Q 3513 2838 3513 2113 
z
" id="DejaVuSans-6e" transform="scale(0.015625)"/>
       <path id="DejaVuSans-20" transform="scale(0.015625)"/>
       <path d="M 603 4863 
L 1178 4863 
L 1178 0 
L 603 0 
L 603 4863 
z
" id="DejaVuSans-6c" transform="scale(0.015625)"/>
      </defs>
      <use xlink:href="#DejaVuSans-54"/>
      <use x="46.333984" xlink:href="#DejaVuSans-72"/>
      <use x="87.447266" xlink:href="#DejaVuSans-61"/>
      <use x="148.726562" xlink:href="#DejaVuSans-69"/>
      <use x="176.509766" xlink:href="#DejaVuSans-6e"/>
      <use x="239.888672" xlink:href="#DejaVuSans-20"/>
      <use x="271.675781" xlink:href="#DejaVuSans-6c"/>
      <use x="299.458984" xlink:href="#DejaVuSans-6f"/>
      <use x="360.640625" xlink:href="#DejaVuSans-73"/>
      <use x="412.740234" xlink:href="#DejaVuSans-73"/>
     </g>
    </g>
    <g id="line2d_22">
     <path d="M 305.845 69.248562 
L 325.845 69.248562 
" style="fill:none;stroke:#ff7f0e;stroke-linecap:square;stroke-width:1.5;"/>
    </g>
    <g id="line2d_23"/>
    <g id="text_21">
     <!-- Validation loss -->
     <g transform="translate(333.845 72.748562)scale(0.1 -0.1)">
      <defs>
       <path d="M 1831 0 
L 50 4666 
L 709 4666 
L 2188 738 
L 3669 4666 
L 4325 4666 
L 2547 0 
L 1831 0 
z
" id="DejaVuSans-56" transform="scale(0.015625)"/>
       <path d="M 2906 2969 
L 2906 4863 
L 3481 4863 
L 3481 0 
L 2906 0 
L 2906 525 
Q 2725 213 2448 61 
Q 2172 -91 1784 -91 
Q 1150 -91 751 415 
Q 353 922 353 1747 
Q 353 2572 751 3078 
Q 1150 3584 1784 3584 
Q 2172 3584 2448 3432 
Q 2725 3281 2906 2969 
z
M 947 1747 
Q 947 1113 1208 752 
Q 1469 391 1925 391 
Q 2381 391 2643 752 
Q 2906 1113 2906 1747 
Q 2906 2381 2643 2742 
Q 2381 3103 1925 3103 
Q 1469 3103 1208 2742 
Q 947 2381 947 1747 
z
" id="DejaVuSans-64" transform="scale(0.015625)"/>
       <path d="M 1172 4494 
L 1172 3500 
L 2356 3500 
L 2356 3053 
L 1172 3053 
L 1172 1153 
Q 1172 725 1289 603 
Q 1406 481 1766 481 
L 2356 481 
L 2356 0 
L 1766 0 
Q 1100 0 847 248 
Q 594 497 594 1153 
L 594 3053 
L 172 3053 
L 172 3500 
L 594 3500 
L 594 4494 
L 1172 4494 
z
" id="DejaVuSans-74" transform="scale(0.015625)"/>
      </defs>
      <use xlink:href="#DejaVuSans-56"/>
      <use x="60.658203" xlink:href="#DejaVuSans-61"/>
      <use x="121.9375" xlink:href="#DejaVuSans-6c"/>
      <use x="149.720703" xlink:href="#DejaVuSans-69"/>
      <use x="177.503906" xlink:href="#DejaVuSans-64"/>
      <use x="240.980469" xlink:href="#DejaVuSans-61"/>
      <use x="302.259766" xlink:href="#DejaVuSans-74"/>
      <use x="341.46875" xlink:href="#DejaVuSans-69"/>
      <use x="369.251953" xlink:href="#DejaVuSans-6f"/>
      <use x="430.433594" xlink:href="#DejaVuSans-6e"/>
      <use x="493.8125" xlink:href="#DejaVuSans-20"/>
      <use x="525.599609" xlink:href="#DejaVuSans-6c"/>
      <use x="553.382812" xlink:href="#DejaVuSans-6f"/>
      <use x="614.564453" xlink:href="#DejaVuSans-73"/>
      <use x="666.664062" xlink:href="#DejaVuSans-73"/>
     </g>
    </g>
   </g>
  </g>
 </g>
 <defs>
  <clipPath id="p78f0e643fe">
   <rect height="266.112" width="357.12" x="57.6" y="41.472"/>
  </clipPath>
 </defs>
</svg>
