<?xml version="1.0" encoding="utf-8" standalone="no"?>
<!DOCTYPE svg PUBLIC "-//W3C//DTD SVG 1.1//EN"
  "http://www.w3.org/Graphics/SVG/1.1/DTD/svg11.dtd">
<svg height="345.6pt" version="1.1" viewBox="0 0 460.8 345.6" width="460.8pt" xmlns="http://www.w3.org/2000/svg" xmlns:xlink="http://www.w3.org/1999/xlink">
 <metadata>
  <rdf:RDF xmlns:cc="http://creativecommons.org/ns#" xmlns:dc="http://purl.org/dc/elements/1.1/" xmlns:rdf="http://www.w3.org/1999/02/22-rdf-syntax-ns#">
   <cc:Work>
    <dc:type rdf:resource="http://purl.org/dc/dcmitype/StillImage"/>
    <dc:date>2021-07-19T19:22:09.722904</dc:date>
    <dc:format>image/svg+xml</dc:format>
    <dc:creator>
     <cc:Agent>
      <dc:title>Matplotlib v3.4.2, https://matplotlib.org/</dc:title>
     </cc:Agent>
    </dc:creator>
   </cc:Work>
  </rdf:RDF>
 </metadata>
 <defs>
  <style type="text/css">*{stroke-linecap:butt;stroke-linejoin:round;}</style>
 </defs>
 <g id="figure_1">
  <g id="patch_1">
   <path d="M 0 345.6 
L 460.8 345.6 
L 460.8 0 
L 0 0 
z
" style="fill:#ffffff;"/>
  </g>
  <g id="axes_1">
   <g id="patch_2">
    <path d="M 57.6 307.584 
L 414.72 307.584 
L 414.72 41.472 
L 57.6 41.472 
z
" style="fill:#ffffff;"/>
   </g>
   <g id="matplotlib.axis_1">
    <g id="xtick_1">
     <g id="line2d_1">
      <defs>
       <path d="M 0 0 
L 0 3.5 
" id="m01e7f41c2e" style="stroke:#000000;stroke-width:0.8;"/>
      </defs>
      <g>
       <use style="stroke:#000000;stroke-width:0.8;" x="73.590267" xlink:href="#m01e7f41c2e" y="307.584"/>
      </g>
     </g>
     <g id="text_1">
      <!-- 0 -->
      <g transform="translate(70.409017 322.182437)scale(0.1 -0.1)">
       <defs>
        <path d="M 2034 4250 
Q 1547 4250 1301 3770 
Q 1056 3291 1056 2328 
Q 1056 1369 1301 889 
Q 1547 409 2034 409 
Q 2525 409 2770 889 
Q 3016 1369 3016 2328 
Q 3016 3291 2770 3770 
Q 2525 4250 2034 4250 
z
M 2034 4750 
Q 2819 4750 3233 4129 
Q 3647 3509 3647 2328 
Q 3647 1150 3233 529 
Q 2819 -91 2034 -91 
Q 1250 -91 836 529 
Q 422 1150 422 2328 
Q 422 3509 836 4129 
Q 1250 4750 2034 4750 
z
" id="DejaVuSans-30" transform="scale(0.015625)"/>
       </defs>
       <use xlink:href="#DejaVuSans-30"/>
      </g>
     </g>
    </g>
    <g id="xtick_2">
     <g id="line2d_2">
      <g>
       <use style="stroke:#000000;stroke-width:0.8;" x="122.082357" xlink:href="#m01e7f41c2e" y="307.584"/>
      </g>
     </g>
     <g id="text_2">
      <!-- 200 -->
      <g transform="translate(112.538607 322.182437)scale(0.1 -0.1)">
       <defs>
        <path d="M 1228 531 
L 3431 531 
L 3431 0 
L 469 0 
L 469 531 
Q 828 903 1448 1529 
Q 2069 2156 2228 2338 
Q 2531 2678 2651 2914 
Q 2772 3150 2772 3378 
Q 2772 3750 2511 3984 
Q 2250 4219 1831 4219 
Q 1534 4219 1204 4116 
Q 875 4013 500 3803 
L 500 4441 
Q 881 4594 1212 4672 
Q 1544 4750 1819 4750 
Q 2544 4750 2975 4387 
Q 3406 4025 3406 3419 
Q 3406 3131 3298 2873 
Q 3191 2616 2906 2266 
Q 2828 2175 2409 1742 
Q 1991 1309 1228 531 
z
" id="DejaVuSans-32" transform="scale(0.015625)"/>
       </defs>
       <use xlink:href="#DejaVuSans-32"/>
       <use x="63.623047" xlink:href="#DejaVuSans-30"/>
       <use x="127.246094" xlink:href="#DejaVuSans-30"/>
      </g>
     </g>
    </g>
    <g id="xtick_3">
     <g id="line2d_3">
      <g>
       <use style="stroke:#000000;stroke-width:0.8;" x="170.574448" xlink:href="#m01e7f41c2e" y="307.584"/>
      </g>
     </g>
     <g id="text_3">
      <!-- 400 -->
      <g transform="translate(161.030698 322.182437)scale(0.1 -0.1)">
       <defs>
        <path d="M 2419 4116 
L 825 1625 
L 2419 1625 
L 2419 4116 
z
M 2253 4666 
L 3047 4666 
L 3047 1625 
L 3713 1625 
L 3713 1100 
L 3047 1100 
L 3047 0 
L 2419 0 
L 2419 1100 
L 313 1100 
L 313 1709 
L 2253 4666 
z
" id="DejaVuSans-34" transform="scale(0.015625)"/>
       </defs>
       <use xlink:href="#DejaVuSans-34"/>
       <use x="63.623047" xlink:href="#DejaVuSans-30"/>
       <use x="127.246094" xlink:href="#DejaVuSans-30"/>
      </g>
     </g>
    </g>
    <g id="xtick_4">
     <g id="line2d_4">
      <g>
       <use style="stroke:#000000;stroke-width:0.8;" x="219.066538" xlink:href="#m01e7f41c2e" y="307.584"/>
      </g>
     </g>
     <g id="text_4">
      <!-- 600 -->
      <g transform="translate(209.522788 322.182437)scale(0.1 -0.1)">
       <defs>
        <path d="M 2113 2584 
Q 1688 2584 1439 2293 
Q 1191 2003 1191 1497 
Q 1191 994 1439 701 
Q 1688 409 2113 409 
Q 2538 409 2786 701 
Q 3034 994 3034 1497 
Q 3034 2003 2786 2293 
Q 2538 2584 2113 2584 
z
M 3366 4563 
L 3366 3988 
Q 3128 4100 2886 4159 
Q 2644 4219 2406 4219 
Q 1781 4219 1451 3797 
Q 1122 3375 1075 2522 
Q 1259 2794 1537 2939 
Q 1816 3084 2150 3084 
Q 2853 3084 3261 2657 
Q 3669 2231 3669 1497 
Q 3669 778 3244 343 
Q 2819 -91 2113 -91 
Q 1303 -91 875 529 
Q 447 1150 447 2328 
Q 447 3434 972 4092 
Q 1497 4750 2381 4750 
Q 2619 4750 2861 4703 
Q 3103 4656 3366 4563 
z
" id="DejaVuSans-36" transform="scale(0.015625)"/>
       </defs>
       <use xlink:href="#DejaVuSans-36"/>
       <use x="63.623047" xlink:href="#DejaVuSans-30"/>
       <use x="127.246094" xlink:href="#DejaVuSans-30"/>
      </g>
     </g>
    </g>
    <g id="xtick_5">
     <g id="line2d_5">
      <g>
       <use style="stroke:#000000;stroke-width:0.8;" x="267.558629" xlink:href="#m01e7f41c2e" y="307.584"/>
      </g>
     </g>
     <g id="text_5">
      <!-- 800 -->
      <g transform="translate(258.014879 322.182437)scale(0.1 -0.1)">
       <defs>
        <path d="M 2034 2216 
Q 1584 2216 1326 1975 
Q 1069 1734 1069 1313 
Q 1069 891 1326 650 
Q 1584 409 2034 409 
Q 2484 409 2743 651 
Q 3003 894 3003 1313 
Q 3003 1734 2745 1975 
Q 2488 2216 2034 2216 
z
M 1403 2484 
Q 997 2584 770 2862 
Q 544 3141 544 3541 
Q 544 4100 942 4425 
Q 1341 4750 2034 4750 
Q 2731 4750 3128 4425 
Q 3525 4100 3525 3541 
Q 3525 3141 3298 2862 
Q 3072 2584 2669 2484 
Q 3125 2378 3379 2068 
Q 3634 1759 3634 1313 
Q 3634 634 3220 271 
Q 2806 -91 2034 -91 
Q 1263 -91 848 271 
Q 434 634 434 1313 
Q 434 1759 690 2068 
Q 947 2378 1403 2484 
z
M 1172 3481 
Q 1172 3119 1398 2916 
Q 1625 2713 2034 2713 
Q 2441 2713 2670 2916 
Q 2900 3119 2900 3481 
Q 2900 3844 2670 4047 
Q 2441 4250 2034 4250 
Q 1625 4250 1398 4047 
Q 1172 3844 1172 3481 
z
" id="DejaVuSans-38" transform="scale(0.015625)"/>
       </defs>
       <use xlink:href="#DejaVuSans-38"/>
       <use x="63.623047" xlink:href="#DejaVuSans-30"/>
       <use x="127.246094" xlink:href="#DejaVuSans-30"/>
      </g>
     </g>
    </g>
    <g id="xtick_6">
     <g id="line2d_6">
      <g>
       <use style="stroke:#000000;stroke-width:0.8;" x="316.050719" xlink:href="#m01e7f41c2e" y="307.584"/>
      </g>
     </g>
     <g id="text_6">
      <!-- 1000 -->
      <g transform="translate(303.325719 322.182437)scale(0.1 -0.1)">
       <defs>
        <path d="M 794 531 
L 1825 531 
L 1825 4091 
L 703 3866 
L 703 4441 
L 1819 4666 
L 2450 4666 
L 2450 531 
L 3481 531 
L 3481 0 
L 794 0 
L 794 531 
z
" id="DejaVuSans-31" transform="scale(0.015625)"/>
       </defs>
       <use xlink:href="#DejaVuSans-31"/>
       <use x="63.623047" xlink:href="#DejaVuSans-30"/>
       <use x="127.246094" xlink:href="#DejaVuSans-30"/>
       <use x="190.869141" xlink:href="#DejaVuSans-30"/>
      </g>
     </g>
    </g>
    <g id="xtick_7">
     <g id="line2d_7">
      <g>
       <use style="stroke:#000000;stroke-width:0.8;" x="364.542809" xlink:href="#m01e7f41c2e" y="307.584"/>
      </g>
     </g>
     <g id="text_7">
      <!-- 1200 -->
      <g transform="translate(351.817809 322.182437)scale(0.1 -0.1)">
       <use xlink:href="#DejaVuSans-31"/>
       <use x="63.623047" xlink:href="#DejaVuSans-32"/>
       <use x="127.246094" xlink:href="#DejaVuSans-30"/>
       <use x="190.869141" xlink:href="#DejaVuSans-30"/>
      </g>
     </g>
    </g>
    <g id="xtick_8">
     <g id="line2d_8">
      <g>
       <use style="stroke:#000000;stroke-width:0.8;" x="413.0349" xlink:href="#m01e7f41c2e" y="307.584"/>
      </g>
     </g>
     <g id="text_8">
      <!-- 1400 -->
      <g transform="translate(400.3099 322.182437)scale(0.1 -0.1)">
       <use xlink:href="#DejaVuSans-31"/>
       <use x="63.623047" xlink:href="#DejaVuSans-34"/>
       <use x="127.246094" xlink:href="#DejaVuSans-30"/>
       <use x="190.869141" xlink:href="#DejaVuSans-30"/>
      </g>
     </g>
    </g>
    <g id="text_9">
     <!-- Epoch -->
     <g transform="translate(213.193594 339.659781)scale(0.15 -0.15)">
      <defs>
       <path d="M 628 4666 
L 3578 4666 
L 3578 4134 
L 1259 4134 
L 1259 2753 
L 3481 2753 
L 3481 2222 
L 1259 2222 
L 1259 531 
L 3634 531 
L 3634 0 
L 628 0 
L 628 4666 
z
" id="DejaVuSans-45" transform="scale(0.015625)"/>
       <path d="M 1159 525 
L 1159 -1331 
L 581 -1331 
L 581 3500 
L 1159 3500 
L 1159 2969 
Q 1341 3281 1617 3432 
Q 1894 3584 2278 3584 
Q 2916 3584 3314 3078 
Q 3713 2572 3713 1747 
Q 3713 922 3314 415 
Q 2916 -91 2278 -91 
Q 1894 -91 1617 61 
Q 1341 213 1159 525 
z
M 3116 1747 
Q 3116 2381 2855 2742 
Q 2594 3103 2138 3103 
Q 1681 3103 1420 2742 
Q 1159 2381 1159 1747 
Q 1159 1113 1420 752 
Q 1681 391 2138 391 
Q 2594 391 2855 752 
Q 3116 1113 3116 1747 
z
" id="DejaVuSans-70" transform="scale(0.015625)"/>
       <path d="M 1959 3097 
Q 1497 3097 1228 2736 
Q 959 2375 959 1747 
Q 959 1119 1226 758 
Q 1494 397 1959 397 
Q 2419 397 2687 759 
Q 2956 1122 2956 1747 
Q 2956 2369 2687 2733 
Q 2419 3097 1959 3097 
z
M 1959 3584 
Q 2709 3584 3137 3096 
Q 3566 2609 3566 1747 
Q 3566 888 3137 398 
Q 2709 -91 1959 -91 
Q 1206 -91 779 398 
Q 353 888 353 1747 
Q 353 2609 779 3096 
Q 1206 3584 1959 3584 
z
" id="DejaVuSans-6f" transform="scale(0.015625)"/>
       <path d="M 3122 3366 
L 3122 2828 
Q 2878 2963 2633 3030 
Q 2388 3097 2138 3097 
Q 1578 3097 1268 2742 
Q 959 2388 959 1747 
Q 959 1106 1268 751 
Q 1578 397 2138 397 
Q 2388 397 2633 464 
Q 2878 531 3122 666 
L 3122 134 
Q 2881 22 2623 -34 
Q 2366 -91 2075 -91 
Q 1284 -91 818 406 
Q 353 903 353 1747 
Q 353 2603 823 3093 
Q 1294 3584 2113 3584 
Q 2378 3584 2631 3529 
Q 2884 3475 3122 3366 
z
" id="DejaVuSans-63" transform="scale(0.015625)"/>
       <path d="M 3513 2113 
L 3513 0 
L 2938 0 
L 2938 2094 
Q 2938 2591 2744 2837 
Q 2550 3084 2163 3084 
Q 1697 3084 1428 2787 
Q 1159 2491 1159 1978 
L 1159 0 
L 581 0 
L 581 4863 
L 1159 4863 
L 1159 2956 
Q 1366 3272 1645 3428 
Q 1925 3584 2291 3584 
Q 2894 3584 3203 3211 
Q 3513 2838 3513 2113 
z
" id="DejaVuSans-68" transform="scale(0.015625)"/>
      </defs>
      <use xlink:href="#DejaVuSans-45"/>
      <use x="63.183594" xlink:href="#DejaVuSans-70"/>
      <use x="126.660156" xlink:href="#DejaVuSans-6f"/>
      <use x="187.841797" xlink:href="#DejaVuSans-63"/>
      <use x="242.822266" xlink:href="#DejaVuSans-68"/>
     </g>
    </g>
   </g>
   <g id="matplotlib.axis_2">
    <g id="ytick_1">
     <g id="line2d_9">
      <defs>
       <path d="M 0 0 
L -3.5 0 
" id="m39ebfd5db2" style="stroke:#000000;stroke-width:0.8;"/>
      </defs>
      <g>
       <use style="stroke:#000000;stroke-width:0.8;" x="57.6" xlink:href="#m39ebfd5db2" y="270.599961"/>
      </g>
     </g>
     <g id="text_10">
      <!-- −1000 -->
      <g transform="translate(16.770313 274.39918)scale(0.1 -0.1)">
       <defs>
        <path d="M 678 2272 
L 4684 2272 
L 4684 1741 
L 678 1741 
L 678 2272 
z
" id="DejaVuSans-2212" transform="scale(0.015625)"/>
       </defs>
       <use xlink:href="#DejaVuSans-2212"/>
       <use x="83.789062" xlink:href="#DejaVuSans-31"/>
       <use x="147.412109" xlink:href="#DejaVuSans-30"/>
       <use x="211.035156" xlink:href="#DejaVuSans-30"/>
       <use x="274.658203" xlink:href="#DejaVuSans-30"/>
      </g>
     </g>
    </g>
    <g id="ytick_2">
     <g id="line2d_10">
      <g>
       <use style="stroke:#000000;stroke-width:0.8;" x="57.6" xlink:href="#m39ebfd5db2" y="226.604035"/>
      </g>
     </g>
     <g id="text_11">
      <!-- −800 -->
      <g transform="translate(23.132812 230.403254)scale(0.1 -0.1)">
       <use xlink:href="#DejaVuSans-2212"/>
       <use x="83.789062" xlink:href="#DejaVuSans-38"/>
       <use x="147.412109" xlink:href="#DejaVuSans-30"/>
       <use x="211.035156" xlink:href="#DejaVuSans-30"/>
      </g>
     </g>
    </g>
    <g id="ytick_3">
     <g id="line2d_11">
      <g>
       <use style="stroke:#000000;stroke-width:0.8;" x="57.6" xlink:href="#m39ebfd5db2" y="182.608109"/>
      </g>
     </g>
     <g id="text_12">
      <!-- −600 -->
      <g transform="translate(23.132812 186.407327)scale(0.1 -0.1)">
       <use xlink:href="#DejaVuSans-2212"/>
       <use x="83.789062" xlink:href="#DejaVuSans-36"/>
       <use x="147.412109" xlink:href="#DejaVuSans-30"/>
       <use x="211.035156" xlink:href="#DejaVuSans-30"/>
      </g>
     </g>
    </g>
    <g id="ytick_4">
     <g id="line2d_12">
      <g>
       <use style="stroke:#000000;stroke-width:0.8;" x="57.6" xlink:href="#m39ebfd5db2" y="138.612182"/>
      </g>
     </g>
     <g id="text_13">
      <!-- −400 -->
      <g transform="translate(23.132812 142.411401)scale(0.1 -0.1)">
       <use xlink:href="#DejaVuSans-2212"/>
       <use x="83.789062" xlink:href="#DejaVuSans-34"/>
       <use x="147.412109" xlink:href="#DejaVuSans-30"/>
       <use x="211.035156" xlink:href="#DejaVuSans-30"/>
      </g>
     </g>
    </g>
    <g id="ytick_5">
     <g id="line2d_13">
      <g>
       <use style="stroke:#000000;stroke-width:0.8;" x="57.6" xlink:href="#m39ebfd5db2" y="94.616256"/>
      </g>
     </g>
     <g id="text_14">
      <!-- −200 -->
      <g transform="translate(23.132812 98.415475)scale(0.1 -0.1)">
       <use xlink:href="#DejaVuSans-2212"/>
       <use x="83.789062" xlink:href="#DejaVuSans-32"/>
       <use x="147.412109" xlink:href="#DejaVuSans-30"/>
       <use x="211.035156" xlink:href="#DejaVuSans-30"/>
      </g>
     </g>
    </g>
    <g id="ytick_6">
     <g id="line2d_14">
      <g>
       <use style="stroke:#000000;stroke-width:0.8;" x="57.6" xlink:href="#m39ebfd5db2" y="50.62033"/>
      </g>
     </g>
     <g id="text_15">
      <!-- 0 -->
      <g transform="translate(44.2375 54.419548)scale(0.1 -0.1)">
       <use xlink:href="#DejaVuSans-30"/>
      </g>
     </g>
    </g>
   </g>
   <g id="line2d_15">
    <path clip-path="url(#p361eb01f3a)" d="M 73.832727 53.568 
L 74.075188 122.966398 
L 74.317648 124.674779 
L 74.560109 139.516592 
L 74.802569 135.250208 
L 75.04503 148.801209 
L 75.28749 156.080779 
L 75.52995 158.404604 
L 75.772411 166.887438 
L 76.014871 166.846928 
L 76.257332 179.828429 
L 76.499792 176.285655 
L 76.742253 180.952021 
L 76.984713 188.340391 
L 77.227174 182.243225 
L 77.712095 194.454206 
L 77.954555 195.442339 
L 78.197015 195.439545 
L 78.439476 148.434356 
L 78.681936 195.883645 
L 78.924397 197.336712 
L 79.166857 202.550528 
L 79.409318 204.285755 
L 79.651778 191.710009 
L 79.894239 211.524832 
L 80.136699 205.588609 
L 80.379159 205.086885 
L 80.62162 203.252643 
L 80.86408 213.384298 
L 81.106541 213.603914 
L 81.349001 208.095204 
L 81.591462 211.87315 
L 81.833922 211.817775 
L 82.318843 224.233521 
L 82.561304 210.646983 
L 82.803764 218.751109 
L 83.046224 207.634819 
L 83.531145 231.106945 
L 83.773606 225.741496 
L 84.016066 216.585953 
L 84.258527 219.037696 
L 84.500987 223.87236 
L 84.985908 213.806855 
L 85.228369 223.692096 
L 85.470829 212.467825 
L 85.713289 224.750553 
L 85.95575 219.435196 
L 86.19821 230.65677 
L 86.440671 229.797078 
L 86.683131 222.726435 
L 86.925592 227.176593 
L 87.168052 214.691971 
L 87.652973 236.119496 
L 87.895433 224.403307 
L 88.380354 231.607427 
L 88.622815 227.641667 
L 88.865275 232.474719 
L 89.107736 230.052448 
L 89.350196 235.459259 
L 89.592657 216.757169 
L 89.835117 235.252646 
L 90.077578 235.435735 
L 90.320038 232.732483 
L 90.562498 235.230867 
L 90.804959 230.619637 
L 91.28988 233.672153 
L 91.53234 230.114806 
L 91.774801 230.652309 
L 92.017261 232.945697 
L 92.259722 233.194973 
L 92.502182 231.949054 
L 92.744643 234.295979 
L 92.987103 233.808282 
L 93.229563 245.499334 
L 93.472024 229.590116 
L 93.714484 240.588436 
L 93.956945 238.132329 
L 94.199405 242.49731 
L 94.441866 241.874087 
L 94.684326 244.31655 
L 94.926787 252.711805 
L 95.169247 240.925291 
L 95.411708 243.210226 
L 95.654168 235.801122 
L 95.896628 236.976697 
L 96.139089 240.111113 
L 96.381549 237.617466 
L 96.62401 242.736867 
L 96.86647 221.642702 
L 97.351391 245.15971 
L 97.836312 238.508853 
L 98.078772 242.440436 
L 98.321233 248.347992 
L 98.806154 232.616301 
L 99.048614 246.392089 
L 99.291075 247.898593 
L 99.533535 248.396477 
L 99.775996 247.333334 
L 100.018456 232.92335 
L 100.260917 250.71892 
L 100.503377 245.139663 
L 100.745837 254.451904 
L 100.988298 247.023419 
L 101.230758 245.099169 
L 101.473219 246.175214 
L 101.715679 252.171769 
L 102.2006 237.569278 
L 102.443061 245.692499 
L 102.685521 239.055229 
L 102.927982 238.384796 
L 103.170442 247.824015 
L 103.412902 244.933506 
L 103.655363 243.471577 
L 103.897823 243.426172 
L 104.140284 245.550342 
L 104.382744 236.521113 
L 104.867665 247.424846 
L 105.110126 250.451285 
L 105.352586 251.652433 
L 105.595047 231.578629 
L 105.837507 251.491085 
L 106.322428 228.571627 
L 106.564888 247.21102 
L 106.807349 246.719836 
L 107.049809 250.298002 
L 107.29227 246.347173 
L 107.53473 245.020446 
L 107.777191 244.874676 
L 108.019651 243.215334 
L 108.262111 248.606783 
L 108.504572 237.898146 
L 108.747032 239.980515 
L 108.989493 249.765562 
L 109.231953 253.442154 
L 109.474414 242.969096 
L 109.716874 250.373628 
L 109.959335 249.173672 
L 110.201795 236.186983 
L 110.444256 249.482482 
L 110.686716 248.71517 
L 110.929176 248.528187 
L 111.171637 234.38071 
L 111.656558 246.696867 
L 111.899018 246.856005 
L 112.141479 245.059647 
L 112.383939 253.236923 
L 112.6264 251.139738 
L 112.86886 252.285197 
L 113.111321 251.955388 
L 113.353781 245.392882 
L 113.596241 253.517464 
L 113.838702 245.148831 
L 114.323623 261.084389 
L 114.566083 249.260845 
L 114.808544 247.071693 
L 115.051004 247.830211 
L 115.293465 244.96559 
L 115.535925 250.32077 
L 115.778385 250.188061 
L 116.020846 252.336038 
L 116.263306 250.239415 
L 116.505767 255.661234 
L 116.748227 246.255019 
L 116.990688 254.341547 
L 117.233148 254.22026 
L 117.475609 252.495589 
L 117.718069 256.649208 
L 117.96053 253.946455 
L 118.20299 233.36877 
L 118.44545 251.986306 
L 118.687911 250.561962 
L 118.930371 259.075342 
L 119.172832 252.973002 
L 119.415292 254.662647 
L 119.657753 250.241923 
L 119.900213 248.409324 
L 120.142674 254.237383 
L 120.627595 245.202728 
L 120.870055 246.661162 
L 121.112515 258.481273 
L 121.354976 254.824977 
L 121.839897 256.108717 
L 122.082357 253.025413 
L 122.324818 252.567965 
L 122.567278 251.279812 
L 122.809739 247.425694 
L 123.052199 250.056665 
L 123.29466 257.324178 
L 123.53712 258.431215 
L 123.77958 262.094526 
L 124.022041 247.704718 
L 124.264501 250.346818 
L 124.749422 263.301456 
L 124.991883 255.19499 
L 125.234343 257.363239 
L 125.476804 245.487053 
L 125.719264 257.418364 
L 125.961724 259.008426 
L 126.204185 253.899162 
L 126.446645 261.795857 
L 126.689106 258.002453 
L 127.174027 255.181851 
L 127.416487 248.659825 
L 127.658948 249.05331 
L 127.901408 257.511437 
L 128.386329 260.676649 
L 128.628789 244.246359 
L 128.87125 255.929393 
L 129.11371 259.952046 
L 129.356171 261.419875 
L 129.598631 258.860559 
L 129.841092 267.375669 
L 130.083552 269.537398 
L 130.326013 254.137006 
L 130.568473 257.96387 
L 130.810934 251.234061 
L 131.053394 262.880271 
L 131.295854 257.801355 
L 131.538315 270.877749 
L 131.780775 254.019235 
L 132.023236 259.31649 
L 132.265696 257.71474 
L 132.508157 254.504058 
L 132.750617 258.354526 
L 132.993078 259.033238 
L 133.235538 247.75854 
L 133.720459 262.345684 
L 133.962919 255.567721 
L 134.20538 262.960787 
L 134.44784 251.807075 
L 134.690301 269.496835 
L 134.932761 262.282361 
L 135.175222 272.242482 
L 135.660143 258.104019 
L 135.902603 257.854193 
L 136.145063 267.442976 
L 136.387524 261.450548 
L 136.629984 268.037631 
L 136.872445 261.613595 
L 137.114905 268.683951 
L 137.357366 280.075596 
L 137.599826 264.51986 
L 138.084747 255.791577 
L 138.327208 255.889397 
L 138.569668 276.006872 
L 138.812128 271.651402 
L 139.054589 253.256662 
L 139.297049 266.434348 
L 139.53951 263.194471 
L 139.78197 253.621195 
L 140.024431 264.324642 
L 140.266891 265.182094 
L 140.509352 257.544423 
L 140.994273 269.807226 
L 141.236733 264.065996 
L 141.479193 267.344682 
L 141.721654 258.113813 
L 141.964114 259.351468 
L 142.206575 258.663537 
L 142.449035 267.721601 
L 142.691496 261.999862 
L 143.176417 272.96204 
L 143.418877 264.117982 
L 143.661337 268.062791 
L 143.903798 257.947279 
L 144.146258 264.032933 
L 144.388719 265.920065 
L 144.631179 263.289625 
L 144.87364 265.622421 
L 145.1161 272.593175 
L 145.358561 258.802793 
L 145.601021 269.744397 
L 145.843482 250.002955 
L 146.085942 262.5391 
L 146.328402 263.900624 
L 146.570863 253.084059 
L 146.813323 267.093481 
L 147.298244 249.504589 
L 147.540705 272.226066 
L 147.783165 267.154841 
L 148.025626 275.725075 
L 148.268086 264.701662 
L 148.510547 273.524621 
L 148.753007 263.52059 
L 148.995467 262.275171 
L 149.480388 269.204842 
L 149.722849 257.935117 
L 149.965309 259.835637 
L 150.20777 278.975248 
L 150.692691 262.790324 
L 150.935151 259.895086 
L 151.177612 261.472613 
L 151.420072 278.805283 
L 151.662532 275.303542 
L 152.147453 266.698711 
L 152.389914 269.612285 
L 152.874835 251.59367 
L 153.117295 263.182185 
L 153.359756 263.593575 
L 153.602216 264.989236 
L 153.844676 252.672741 
L 154.087137 255.460209 
L 154.329597 254.542628 
L 154.572058 275.211774 
L 154.814518 275.001615 
L 155.056979 268.077424 
L 155.299439 267.13847 
L 155.5419 272.954368 
L 155.78436 266.852283 
L 156.026821 264.148253 
L 156.269281 269.58245 
L 156.511741 279.441605 
L 156.754202 271.112957 
L 156.996662 276.150935 
L 157.239123 267.002318 
L 157.481583 277.381987 
L 157.724044 262.884602 
L 157.966504 257.881128 
L 158.208965 276.538854 
L 158.693886 261.51529 
L 158.936346 274.499955 
L 159.178806 259.146117 
L 159.421267 274.356101 
L 159.663727 249.672443 
L 159.906188 262.241671 
L 160.148648 254.396687 
L 160.391109 267.917783 
L 160.633569 273.847118 
L 160.87603 251.463285 
L 161.11849 263.93811 
L 161.360951 266.341762 
L 161.603411 273.239985 
L 161.845871 267.459359 
L 162.088332 278.619585 
L 162.330792 267.296679 
L 162.573253 267.545277 
L 162.815713 263.111498 
L 163.058174 284.922471 
L 163.543095 264.401744 
L 163.785555 266.690986 
L 164.028015 265.608244 
L 164.270476 269.991908 
L 164.512936 280.010373 
L 164.755397 261.655992 
L 164.997857 270.217122 
L 165.240318 265.177956 
L 165.482778 266.948652 
L 165.725239 277.704433 
L 165.967699 269.335697 
L 166.21016 264.895861 
L 166.45262 254.076487 
L 166.937541 279.09115 
L 167.180001 266.553187 
L 167.664922 274.79339 
L 167.907383 265.638059 
L 168.149843 270.554095 
L 168.392304 269.954219 
L 168.634764 274.275441 
L 168.877225 275.183259 
L 169.362145 265.228459 
L 169.604606 275.567894 
L 169.847066 269.255626 
L 170.089527 276.848028 
L 170.331987 271.931828 
L 170.574448 270.933737 
L 171.059369 265.675495 
L 171.301829 277.020981 
L 171.544289 280.89792 
L 172.02921 257.995533 
L 172.271671 271.022335 
L 172.514131 264.736618 
L 172.756592 263.836895 
L 172.999052 274.074704 
L 173.241513 264.87905 
L 173.726434 275.092775 
L 173.968894 267.382783 
L 174.211354 268.01354 
L 174.453815 261.083145 
L 174.696275 274.647494 
L 174.938736 261.74882 
L 175.181196 264.07274 
L 175.423657 272.46724 
L 175.666117 273.490845 
L 175.908578 269.985202 
L 176.151038 253.453463 
L 176.393499 275.391831 
L 176.635959 269.122197 
L 176.878419 272.211135 
L 177.12088 279.383019 
L 177.36334 262.270184 
L 177.605801 262.008532 
L 177.848261 265.955772 
L 178.090722 263.900416 
L 178.333182 272.102025 
L 178.575643 262.906892 
L 179.060564 275.449297 
L 179.303024 275.08391 
L 179.787945 266.5571 
L 180.030405 273.729562 
L 180.272866 262.144948 
L 180.515326 269.997802 
L 180.757787 266.302706 
L 181.000247 264.385874 
L 181.242708 277.006683 
L 181.485168 268.578603 
L 181.727628 279.64272 
L 182.212549 266.936352 
L 182.45501 280.143551 
L 182.69747 261.762631 
L 182.939931 282.658841 
L 183.182391 283.485591 
L 183.424852 269.712135 
L 183.667312 283.19678 
L 183.909773 278.05711 
L 184.152233 256.382461 
L 184.394693 284.648456 
L 184.637154 273.865617 
L 184.879614 271.863599 
L 185.122075 279.485623 
L 185.364535 277.886424 
L 185.606996 268.495488 
L 185.849456 276.33677 
L 186.334377 266.943453 
L 186.576838 266.733577 
L 186.819298 272.873798 
L 187.061758 282.974593 
L 187.304219 275.378935 
L 187.546679 279.394163 
L 187.78914 259.696043 
L 188.0316 271.220823 
L 188.274061 266.678604 
L 188.516521 266.939406 
L 188.758982 275.792723 
L 189.001442 273.655413 
L 189.243903 257.435557 
L 189.486363 272.469437 
L 189.728823 271.856104 
L 189.971284 272.799367 
L 190.213744 268.493424 
L 190.456205 268.377852 
L 190.698665 269.081693 
L 190.941126 278.674741 
L 191.426047 269.509478 
L 191.910967 278.9096 
L 192.395888 281.844206 
L 192.638349 262.831936 
L 193.12327 270.545882 
L 193.36573 266.215391 
L 193.608191 265.297559 
L 193.850651 266.260721 
L 194.093112 262.885458 
L 194.335572 275.176803 
L 194.820493 266.425809 
L 195.062953 282.0609 
L 195.305414 267.554371 
L 195.547874 280.586732 
L 195.790335 282.577783 
L 196.032795 267.092285 
L 196.275256 276.281123 
L 196.517716 279.901961 
L 196.760177 285.459435 
L 197.002637 270.237194 
L 197.245097 270.160715 
L 197.487558 277.743204 
L 197.730018 265.956244 
L 197.972479 283.567992 
L 198.214939 264.51045 
L 198.4574 264.269282 
L 198.69986 268.77855 
L 198.942321 280.866803 
L 199.184781 261.147571 
L 199.669702 273.728859 
L 199.912162 275.987624 
L 200.154623 269.57844 
L 200.639544 268.473294 
L 200.882004 275.471587 
L 201.366925 268.187098 
L 201.609386 269.395631 
L 201.851846 277.773575 
L 202.094306 276.016329 
L 202.336767 267.70616 
L 202.579227 277.35546 
L 202.821688 279.294122 
L 203.064148 279.960599 
L 203.306609 267.288728 
L 203.549069 279.678533 
L 203.79153 267.683653 
L 204.03399 278.693004 
L 204.276451 278.458465 
L 204.518911 277.129104 
L 204.761371 267.304969 
L 205.003832 270.04162 
L 205.246292 257.528767 
L 205.488753 271.511447 
L 205.731213 264.851586 
L 206.216134 278.889865 
L 206.458595 273.653512 
L 206.701055 274.454137 
L 206.943516 270.199192 
L 207.185976 268.06185 
L 207.670897 277.269249 
L 207.913357 274.973989 
L 208.155818 261.815427 
L 208.398278 268.92904 
L 208.640739 260.915166 
L 208.883199 275.787714 
L 209.12566 278.222987 
L 209.36812 264.852805 
L 209.61058 285.116096 
L 209.853041 277.486618 
L 210.095501 261.685154 
L 210.337962 277.910718 
L 210.580422 272.466435 
L 210.822883 274.260477 
L 211.065343 264.212243 
L 211.307804 282.656754 
L 211.550264 272.09175 
L 211.792725 271.211123 
L 212.035185 283.288296 
L 212.520106 271.198225 
L 212.762566 279.997286 
L 213.005027 271.06373 
L 213.247487 272.337858 
L 213.489948 280.161161 
L 213.732408 269.435249 
L 213.974869 274.726103 
L 214.217329 268.426799 
L 214.45979 265.969751 
L 214.70225 282.471909 
L 214.94471 277.107155 
L 215.187171 268.505144 
L 215.672092 280.120307 
L 215.914552 279.627433 
L 216.157013 276.037236 
L 216.399473 283.340103 
L 216.641934 267.650033 
L 216.884394 271.857399 
L 217.126855 282.795973 
L 217.369315 259.592962 
L 217.611775 251.724228 
L 217.854236 275.013798 
L 218.096696 278.568033 
L 218.339157 262.23521 
L 218.581617 265.075453 
L 218.824078 272.463849 
L 219.066538 276.435903 
L 219.308999 271.407139 
L 219.551459 280.517998 
L 219.793919 279.174556 
L 220.03638 279.360477 
L 220.27884 276.434829 
L 220.521301 285.339417 
L 220.763761 270.289768 
L 221.006222 269.171184 
L 221.248682 281.098025 
L 221.491143 279.477507 
L 221.976064 268.771002 
L 222.218524 286.09488 
L 222.460984 287.780811 
L 223.188366 269.133821 
L 223.430826 281.302894 
L 223.673287 279.072278 
L 223.915747 272.540291 
L 224.158208 289.093749 
L 224.400668 275.529459 
L 224.643129 273.991189 
L 225.128049 283.827165 
L 225.37051 277.003439 
L 225.61297 273.920992 
L 225.855431 281.553542 
L 226.097891 281.934488 
L 226.340352 290.535272 
L 226.582812 278.768731 
L 226.825273 282.855279 
L 227.067733 264.685834 
L 227.310193 272.925161 
L 227.552654 288.486511 
L 227.795114 271.198334 
L 228.037575 276.862233 
L 228.280035 279.204853 
L 228.522496 276.86759 
L 228.764956 289.996489 
L 229.007417 272.56746 
L 229.249877 276.080805 
L 229.492338 281.571789 
L 229.734798 277.995119 
L 229.977258 276.509492 
L 230.219719 262.474551 
L 230.462179 268.510871 
L 230.70464 270.441528 
L 230.9471 284.466714 
L 231.432021 267.248443 
L 231.674482 272.247771 
L 231.916942 262.732415 
L 232.159403 281.328938 
L 232.401863 272.211414 
L 232.644323 272.970999 
L 232.886784 285.429971 
L 233.129244 282.466519 
L 233.371705 286.59623 
L 233.614165 263.585661 
L 233.856626 275.612704 
L 234.099086 278.041094 
L 234.341547 275.873305 
L 234.584007 268.443985 
L 234.826468 277.406871 
L 235.068928 267.154876 
L 235.311388 271.231967 
L 235.553849 285.480962 
L 235.796309 276.648614 
L 236.03877 275.48525 
L 236.28123 260.706364 
L 236.523691 276.05227 
L 236.766151 268.684123 
L 237.008612 269.158002 
L 237.493532 279.34749 
L 237.735993 267.018056 
L 238.463374 279.995045 
L 238.705835 258.753733 
L 238.948295 272.160044 
L 239.433216 279.519898 
L 239.675677 274.032515 
L 239.918137 261.117416 
L 240.160597 272.555926 
L 240.403058 274.186906 
L 240.645518 261.971404 
L 240.887979 272.321226 
L 241.130439 265.315923 
L 241.3729 274.953156 
L 241.61536 278.291991 
L 241.857821 283.341059 
L 242.100281 270.360673 
L 242.342742 276.762908 
L 242.585202 272.54012 
L 242.827662 279.612333 
L 243.070123 264.411232 
L 243.312583 275.900381 
L 243.555044 265.212445 
L 243.797504 279.313086 
L 244.039965 280.389942 
L 244.282425 275.647148 
L 244.524886 279.131312 
L 244.767346 289.29437 
L 245.009807 265.894425 
L 245.252267 282.127646 
L 245.494727 272.406572 
L 245.737188 282.096686 
L 245.979648 278.333318 
L 246.222109 277.620085 
L 246.464569 275.272897 
L 246.70703 279.027052 
L 246.94949 264.279458 
L 247.191951 264.511607 
L 247.676871 278.294944 
L 247.919332 268.81502 
L 248.161792 279.205664 
L 248.404253 282.15758 
L 248.646713 267.322566 
L 249.131634 270.59084 
L 249.374095 280.87143 
L 249.616555 277.102055 
L 249.859016 276.231467 
L 250.101476 270.064494 
L 250.343936 273.476638 
L 250.586397 279.220924 
L 250.828857 272.673943 
L 251.313778 283.992002 
L 251.556239 273.287299 
L 251.798699 280.744547 
L 252.04116 279.863244 
L 252.28362 269.635539 
L 252.526081 286.063295 
L 253.011001 265.8971 
L 253.253462 276.067545 
L 253.495922 280.407265 
L 253.738383 251.073049 
L 253.980843 282.469335 
L 254.465764 264.257697 
L 254.708225 273.261578 
L 254.950685 273.330867 
L 255.193145 275.574794 
L 255.435606 260.050282 
L 255.678066 277.427063 
L 255.920527 272.671941 
L 256.162987 282.239429 
L 256.405448 279.441988 
L 256.647908 272.772281 
L 256.890369 275.310454 
L 257.132829 275.339896 
L 257.37529 273.254471 
L 257.61775 268.935475 
L 257.86021 273.560298 
L 258.102671 284.532344 
L 258.345131 270.042172 
L 258.830052 280.381226 
L 259.072513 277.736446 
L 259.314973 266.527473 
L 259.557434 278.785558 
L 259.799894 277.343663 
L 260.042355 274.365785 
L 260.284815 287.736046 
L 260.527275 283.846931 
L 260.769736 270.788676 
L 261.012196 267.984637 
L 261.254657 287.933718 
L 261.497117 287.098016 
L 261.739578 276.236449 
L 261.982038 285.952416 
L 262.224499 275.64453 
L 262.466959 283.912566 
L 262.70942 275.616709 
L 262.95188 260.342125 
L 263.19434 288.63565 
L 263.679261 272.973056 
L 263.921722 281.596266 
L 264.164182 267.687266 
L 264.406643 266.08522 
L 264.649103 281.004 
L 264.891564 273.556943 
L 265.134024 276.084375 
L 265.376484 270.927495 
L 265.618945 256.290583 
L 265.861405 273.075192 
L 266.103866 270.344136 
L 266.346326 286.798124 
L 266.588787 281.527982 
L 266.831247 279.352776 
L 267.073708 270.428872 
L 267.316168 273.609841 
L 267.558629 270.031087 
L 267.801089 288.987903 
L 268.043549 282.142143 
L 268.28601 267.881096 
L 268.52847 270.733182 
L 268.770931 268.449218 
L 269.255852 282.097381 
L 269.740773 274.803455 
L 269.983233 279.244374 
L 270.225694 281.636267 
L 270.468154 273.1908 
L 270.710614 273.587219 
L 270.953075 281.73952 
L 271.437996 268.89627 
L 271.680456 277.19743 
L 271.922917 266.41445 
L 272.407838 284.995251 
L 272.892759 272.768327 
L 273.135219 272.20069 
L 273.377679 277.349313 
L 273.62014 270.181155 
L 273.8626 268.275127 
L 274.105061 276.15921 
L 274.347521 257.768943 
L 274.589982 271.945951 
L 274.832442 277.236306 
L 275.074903 272.464099 
L 275.317363 273.561843 
L 275.559823 280.743229 
L 275.802284 269.155686 
L 276.044744 273.926386 
L 276.287205 274.531961 
L 276.529665 284.656201 
L 276.772126 283.397085 
L 277.014586 268.356539 
L 277.257047 261.805296 
L 277.499507 279.614342 
L 277.741968 273.564863 
L 277.984428 275.313981 
L 278.226888 266.603986 
L 278.469349 287.062826 
L 278.95427 276.292463 
L 279.19673 279.633303 
L 279.439191 271.783625 
L 279.681651 273.925161 
L 279.924112 270.241708 
L 280.409033 276.917494 
L 280.893953 267.438393 
L 281.136414 291.482185 
L 281.621335 273.168371 
L 281.863795 271.164423 
L 282.106256 263.207148 
L 282.348716 277.524062 
L 282.591177 276.432496 
L 282.833637 282.783159 
L 283.076097 271.593484 
L 283.318558 267.766936 
L 283.803479 285.706168 
L 284.2884 270.922074 
L 284.53086 284.24204 
L 284.773321 285.635753 
L 285.015781 282.577634 
L 285.258242 274.183783 
L 285.500702 277.060791 
L 285.743162 277.789389 
L 285.985623 278.901119 
L 286.228083 276.535936 
L 286.470544 285.804366 
L 287.197925 266.870204 
L 287.440386 269.272751 
L 287.682846 279.796594 
L 287.925307 281.033158 
L 288.167767 279.5388 
L 288.410227 282.045075 
L 288.652688 276.138561 
L 288.895148 288.208592 
L 289.137609 266.359426 
L 289.62253 279.148982 
L 289.86499 273.21194 
L 290.349911 278.067769 
L 290.592372 268.50272 
L 290.834832 291.265972 
L 291.077292 281.326547 
L 291.319753 266.237441 
L 291.562213 280.807875 
L 291.804674 275.367189 
L 292.047134 273.104604 
L 292.289595 273.539798 
L 292.532055 272.542368 
L 292.774516 285.167814 
L 293.259436 272.96306 
L 293.501897 281.265934 
L 293.744357 279.851607 
L 293.986818 277.652288 
L 294.229278 271.520575 
L 294.471739 284.399272 
L 294.714199 274.158439 
L 294.95666 279.808388 
L 295.19912 282.495038 
L 295.441581 275.122336 
L 295.684041 282.645786 
L 295.926501 268.590368 
L 296.411422 282.247719 
L 296.896343 265.308959 
L 297.138804 283.633993 
L 297.623725 267.240079 
L 297.866185 269.78941 
L 298.593566 285.223551 
L 298.836027 272.617452 
L 299.078487 276.95545 
L 299.320948 290.085466 
L 299.563408 275.170438 
L 299.805869 271.222724 
L 300.048329 285.074006 
L 300.53325 275.129485 
L 300.775711 276.137303 
L 301.260631 273.029923 
L 301.503092 280.06125 
L 301.745552 277.198876 
L 301.988013 290.167639 
L 302.230473 273.750344 
L 302.472934 276.086097 
L 302.715394 275.992102 
L 302.957855 283.146961 
L 303.200315 275.452706 
L 303.685236 278.777792 
L 303.927696 276.934819 
L 304.170157 279.514467 
L 304.412617 269.064567 
L 304.655078 282.433306 
L 304.897538 269.605564 
L 305.382459 273.370293 
L 305.62492 274.348206 
L 305.86738 265.823433 
L 306.10984 286.218248 
L 306.352301 279.86823 
L 306.594761 262.630766 
L 306.837222 279.020904 
L 307.079682 271.51988 
L 307.322143 274.224304 
L 307.564603 275.650255 
L 307.807064 273.833854 
L 308.291985 290.912183 
L 308.534445 278.851669 
L 308.776905 283.564975 
L 309.019366 276.378453 
L 309.261826 274.442715 
L 309.504287 265.615082 
L 309.746747 274.967838 
L 309.989208 279.894498 
L 310.231668 277.768435 
L 310.474129 279.143353 
L 310.959049 269.733875 
L 311.20151 273.451993 
L 311.44397 261.214145 
L 311.686431 276.698068 
L 311.928891 281.432748 
L 312.171352 281.302812 
L 312.413812 270.100796 
L 312.656273 279.346971 
L 312.898733 269.675869 
L 313.141194 275.620503 
L 313.383654 278.48496 
L 313.626114 285.52602 
L 313.868575 272.870742 
L 314.111035 290.875566 
L 314.353496 284.465095 
L 314.595956 270.57053 
L 314.838417 278.106742 
L 315.080877 269.537229 
L 315.323338 274.946264 
L 315.565798 273.575624 
L 315.808259 279.013228 
L 316.050719 271.590122 
L 316.293179 271.98166 
L 316.53564 277.174621 
L 317.020561 281.962404 
L 317.505482 279.219021 
L 317.747942 280.010247 
L 317.990403 292.090503 
L 318.232863 273.691343 
L 318.475324 281.837272 
L 318.717784 282.366183 
L 318.960244 275.81811 
L 319.202705 280.035809 
L 319.445165 278.618001 
L 319.687626 285.522332 
L 319.930086 286.891234 
L 320.172547 284.671938 
L 320.415007 279.103029 
L 320.657468 282.324562 
L 320.899928 282.272825 
L 321.142388 282.759949 
L 321.384849 284.413449 
L 321.627309 273.945259 
L 321.86977 288.787201 
L 322.11223 286.255025 
L 322.354691 278.076543 
L 322.597151 287.122827 
L 322.839612 288.317965 
L 323.082072 279.754987 
L 323.324533 286.777138 
L 323.566993 287.523026 
L 323.809453 286.719677 
L 324.051914 275.533718 
L 324.294374 282.72608 
L 324.536835 280.222755 
L 324.779295 271.69867 
L 325.021756 277.419888 
L 325.264216 272.575279 
L 325.749137 287.394037 
L 325.991598 286.971876 
L 326.234058 283.57178 
L 326.476518 271.912823 
L 326.718979 269.097759 
L 326.961439 282.824338 
L 327.2039 273.395756 
L 327.44636 284.769949 
L 327.688821 269.470084 
L 328.173742 288.76738 
L 328.416202 272.237702 
L 328.901123 288.408271 
L 329.386044 276.179325 
L 329.628504 273.078887 
L 329.870965 274.218897 
L 330.113425 278.168934 
L 330.355886 272.714435 
L 330.598346 270.160156 
L 330.840807 281.368894 
L 331.083267 276.902551 
L 331.325727 287.240852 
L 331.568188 290.39246 
L 332.053109 275.62539 
L 332.295569 275.574092 
L 332.53803 272.087461 
L 332.78049 286.513079 
L 333.022951 271.342546 
L 333.265411 275.729364 
L 333.507872 282.959492 
L 333.750332 276.476405 
L 333.992792 284.996607 
L 334.235253 268.840205 
L 334.477713 280.110475 
L 334.720174 266.191816 
L 334.962634 265.290885 
L 335.205095 279.590138 
L 335.447555 283.268101 
L 335.690016 254.822817 
L 336.174937 283.635747 
L 336.417397 274.22862 
L 336.659857 272.149668 
L 336.902318 284.073152 
L 337.144778 280.358213 
L 337.387239 278.71068 
L 337.629699 274.754242 
L 337.87216 268.007176 
L 338.11462 279.24915 
L 338.357081 279.199263 
L 338.599541 272.724795 
L 338.842001 271.724719 
L 339.084462 266.870428 
L 339.326922 287.643497 
L 339.569383 279.246635 
L 339.811843 283.312928 
L 340.054304 283.309161 
L 340.296764 267.712895 
L 340.539225 273.27548 
L 340.781685 281.64684 
L 341.024146 273.230337 
L 341.266606 274.374299 
L 341.509066 271.226394 
L 341.751527 278.800868 
L 341.993987 264.791132 
L 342.236448 280.590287 
L 342.478908 277.233677 
L 342.721369 281.421951 
L 342.963829 270.735224 
L 343.20629 278.488241 
L 343.44875 278.272688 
L 343.691211 280.719053 
L 344.176131 263.484549 
L 344.418592 281.942122 
L 344.661052 279.772031 
L 344.903513 283.163993 
L 345.145973 281.110995 
L 345.388434 276.762515 
L 345.630894 286.309226 
L 346.115815 273.061968 
L 346.358276 289.09223 
L 346.600736 272.233895 
L 346.843196 286.761497 
L 347.085657 279.690327 
L 347.328117 276.742719 
L 347.570578 287.549763 
L 347.813038 266.985531 
L 348.297959 287.554282 
L 348.54042 274.263155 
L 348.78288 278.848167 
L 349.02534 281.005238 
L 349.267801 290.02367 
L 349.510261 276.454706 
L 349.752722 270.729849 
L 349.995182 285.041964 
L 350.480103 275.323589 
L 350.722564 278.576974 
L 350.965024 274.06293 
L 351.207485 290.876429 
L 351.692405 276.318979 
L 351.934866 278.60938 
L 352.177326 289.767835 
L 352.419787 278.230394 
L 352.662247 274.526939 
L 352.904708 281.122409 
L 353.147168 283.621597 
L 353.389629 278.638955 
L 353.632089 287.886227 
L 353.87455 262.17355 
L 354.35947 285.379208 
L 354.601931 285.548505 
L 354.844391 291.359696 
L 355.571773 267.588991 
L 355.814233 272.246098 
L 356.056694 281.812801 
L 356.299154 279.711536 
L 356.541615 284.897471 
L 356.784075 286.345457 
L 357.026535 276.227078 
L 357.268996 273.311837 
L 357.511456 247.409612 
L 357.753917 265.371608 
L 357.996377 262.933265 
L 358.238838 267.936527 
L 358.481298 264.661225 
L 358.723759 263.631134 
L 358.966219 276.280202 
L 359.45114 277.192375 
L 359.6936 267.953523 
L 359.936061 271.442289 
L 360.420982 286.731697 
L 360.663442 281.934234 
L 360.905903 279.830925 
L 361.148363 266.742534 
L 361.390824 287.395456 
L 361.633284 270.709311 
L 361.875744 274.814955 
L 362.118205 286.339726 
L 362.360665 274.776981 
L 362.603126 279.869169 
L 363.088047 268.041985 
L 363.330507 280.989274 
L 363.572968 276.493066 
L 363.815428 294.922235 
L 364.057889 273.096132 
L 364.542809 280.671208 
L 364.78527 280.028762 
L 365.02773 286.129206 
L 365.270191 269.896957 
L 365.512651 278.33541 
L 365.755112 274.246661 
L 365.997572 282.913183 
L 366.240033 262.969184 
L 366.482493 278.51222 
L 366.967414 269.246125 
L 367.209874 280.542575 
L 367.452335 272.822845 
L 367.694795 286.370374 
L 367.937256 270.338861 
L 368.179716 281.342644 
L 368.422177 285.030287 
L 368.907098 271.886616 
L 369.149558 281.385192 
L 369.392018 275.299478 
L 369.634479 273.752163 
L 370.1194 279.20438 
L 370.36186 282.498168 
L 370.604321 280.847961 
L 370.846781 271.594079 
L 371.089242 271.684623 
L 371.574163 289.546546 
L 371.816623 274.029047 
L 372.059083 278.133805 
L 372.301544 292.507109 
L 372.786465 268.140352 
L 373.028925 284.586446 
L 373.271386 268.991685 
L 373.756307 280.070786 
L 373.998767 269.415343 
L 374.241228 264.647542 
L 374.483688 275.095585 
L 374.968609 281.094944 
L 375.211069 283.166697 
L 375.45353 288.1341 
L 375.69599 274.010705 
L 375.938451 282.565128 
L 376.180911 279.857938 
L 376.423372 279.144807 
L 376.665832 283.23146 
L 377.150753 261.641897 
L 377.393213 271.355454 
L 377.878134 279.810485 
L 378.120595 272.49422 
L 378.363055 289.408747 
L 378.605516 278.527033 
L 378.847976 283.203014 
L 379.090437 273.031122 
L 379.332897 276.752795 
L 379.575357 284.145579 
L 380.060278 274.647143 
L 380.302739 268.08129 
L 380.545199 285.676324 
L 380.78766 276.768077 
L 381.03012 284.959399 
L 381.272581 279.670613 
L 381.515041 268.61807 
L 381.757502 269.272283 
L 381.999962 285.294616 
L 382.242422 270.8265 
L 382.484883 276.838862 
L 382.727343 267.566664 
L 383.212264 283.568844 
L 383.454725 283.990911 
L 383.697185 279.83833 
L 383.939646 282.930479 
L 384.182106 270.393499 
L 384.424567 285.671703 
L 384.667027 275.827903 
L 384.909487 276.468809 
L 385.151948 274.697822 
L 385.394408 281.210523 
L 385.636869 280.133144 
L 385.879329 276.361881 
L 386.36425 266.413938 
L 386.606711 282.961669 
L 386.849171 281.482182 
L 387.091631 265.932937 
L 387.334092 272.732105 
L 387.576552 283.320423 
L 388.061473 279.150361 
L 388.303934 275.000135 
L 388.546394 283.378096 
L 389.031315 276.565435 
L 389.273776 268.802249 
L 389.516236 268.501972 
L 389.758696 287.48158 
L 390.001157 279.560887 
L 390.243617 278.804623 
L 390.486078 289.278684 
L 390.728538 272.415478 
L 390.970999 284.865077 
L 391.213459 280.055752 
L 391.45592 263.669029 
L 391.69838 273.743197 
L 391.940841 274.037598 
L 392.183301 279.509245 
L 392.425761 277.847784 
L 392.668222 280.490986 
L 392.910682 269.792651 
L 393.153143 279.649449 
L 393.395603 283.911957 
L 393.638064 275.914826 
L 393.880524 282.299284 
L 394.122985 271.53753 
L 394.365445 275.195427 
L 394.607905 287.898214 
L 394.850366 282.723779 
L 395.092826 283.800681 
L 395.335287 282.125129 
L 395.577747 283.201992 
L 395.820208 295.488 
L 396.062668 275.455675 
L 396.305129 275.201208 
L 396.547589 289.578962 
L 396.79005 269.311103 
L 397.03251 272.240973 
L 397.27497 284.894239 
L 397.517431 266.958044 
L 397.759891 279.576572 
L 398.002352 276.152636 
L 398.244812 284.486596 
L 398.487273 281.824645 
L 398.487273 281.824645 
" style="fill:none;stroke:#1f77b4;stroke-linecap:square;stroke-width:1.5;"/>
   </g>
   <g id="line2d_16">
    <path clip-path="url(#p361eb01f3a)" d="M 73.832727 95.144571 
L 74.075188 106.21475 
L 74.317648 138.041126 
L 74.560109 145.568277 
L 74.802569 146.622504 
L 75.04503 152.6467 
L 75.28749 119.626487 
L 75.52995 169.65332 
L 75.772411 147.485515 
L 76.014871 178.875879 
L 76.257332 184.578535 
L 76.499792 177.598868 
L 76.742253 190.11405 
L 76.984713 187.993658 
L 77.227174 184.159606 
L 77.469634 168.455438 
L 77.954555 201.368228 
L 78.439476 194.883393 
L 78.681936 197.004383 
L 78.924397 207.830498 
L 79.166857 201.033139 
L 79.409318 209.575163 
L 79.651778 210.929087 
L 79.894239 210.838787 
L 80.136699 202.946574 
L 80.379159 210.829763 
L 80.62162 209.110979 
L 80.86408 213.283463 
L 81.106541 209.45714 
L 81.349001 194.820109 
L 81.591462 208.999069 
L 81.833922 213.198963 
L 82.076383 222.265965 
L 82.561304 213.092319 
L 82.803764 197.18791 
L 83.046224 223.350108 
L 83.288685 219.109134 
L 83.531145 220.59445 
L 84.016066 216.958885 
L 84.258527 218.48742 
L 84.500987 225.456648 
L 84.743448 187.15962 
L 84.985908 227.316002 
L 85.228369 229.566934 
L 85.470829 220.182802 
L 85.713289 216.288878 
L 85.95575 219.24571 
L 86.19821 231.458 
L 86.440671 224.92185 
L 86.683131 228.48532 
L 86.925592 234.981287 
L 87.168052 219.089197 
L 87.410513 227.246565 
L 87.652973 226.934935 
L 87.895433 229.348748 
L 88.137894 224.409509 
L 88.380354 215.812151 
L 88.865275 236.595347 
L 89.107736 224.506625 
L 89.592657 233.637671 
L 89.835117 229.239768 
L 90.077578 229.185968 
L 90.320038 229.652329 
L 90.562498 229.392131 
L 90.804959 228.752354 
L 91.047419 234.698477 
L 91.28988 234.360207 
L 91.53234 229.553576 
L 92.017261 235.012723 
L 92.259722 235.353726 
L 92.502182 231.373678 
L 92.744643 241.937478 
L 92.987103 229.627442 
L 93.229563 233.62731 
L 93.472024 229.018492 
L 93.714484 239.48992 
L 93.956945 227.177936 
L 94.199405 235.321715 
L 94.684326 238.508981 
L 94.926787 236.999208 
L 95.169247 241.365162 
L 95.411708 232.144552 
L 95.654168 236.361319 
L 95.896628 237.099029 
L 96.139089 240.956184 
L 96.381549 238.607968 
L 96.62401 229.491304 
L 96.86647 239.157533 
L 97.108931 238.739031 
L 97.351391 238.078649 
L 97.593852 230.347221 
L 97.836312 235.749784 
L 98.078772 236.475382 
L 98.563693 244.47941 
L 98.806154 242.980396 
L 99.048614 242.416882 
L 99.291075 247.77108 
L 99.533535 244.309378 
L 99.775996 244.736763 
L 100.018456 238.690665 
L 100.260917 241.570952 
L 100.503377 239.194825 
L 100.745837 242.572957 
L 100.988298 240.780648 
L 101.230758 242.54041 
L 101.473219 239.828398 
L 101.715679 239.986671 
L 101.95814 239.820584 
L 102.2006 241.406225 
L 102.443061 234.33027 
L 102.685521 243.546084 
L 102.927982 243.150244 
L 103.170442 242.433324 
L 103.412902 249.951166 
L 103.655363 241.699944 
L 103.897823 248.547623 
L 104.140284 235.556362 
L 104.382744 249.054825 
L 104.625205 244.081465 
L 104.867665 247.474938 
L 105.110126 240.752646 
L 105.352586 248.590837 
L 105.595047 250.393305 
L 105.837507 238.869287 
L 106.079967 243.411245 
L 106.322428 241.190016 
L 106.564888 237.155564 
L 106.807349 241.539028 
L 107.049809 248.821917 
L 107.29227 246.029111 
L 107.53473 245.684866 
L 108.019651 243.009019 
L 108.504572 242.241932 
L 108.747032 238.871915 
L 108.989493 251.506248 
L 109.231953 247.554136 
L 109.474414 251.454275 
L 109.716874 243.905632 
L 109.959335 249.453189 
L 110.201795 249.669041 
L 110.444256 253.113131 
L 110.686716 250.501024 
L 110.929176 251.793874 
L 111.171637 242.915084 
L 111.414097 243.089843 
L 111.656558 248.120977 
L 111.899018 240.056841 
L 112.383939 246.964107 
L 112.6264 244.356245 
L 112.86886 248.006823 
L 113.111321 243.576547 
L 113.353781 249.038004 
L 113.596241 250.536862 
L 113.838702 252.78514 
L 114.081162 248.245756 
L 114.323623 248.4016 
L 114.566083 251.326364 
L 115.293465 242.677361 
L 115.535925 245.731702 
L 115.778385 251.3058 
L 116.020846 243.162607 
L 116.263306 247.05913 
L 116.505767 240.657714 
L 116.748227 255.914223 
L 116.990688 256.233524 
L 117.475609 249.687077 
L 117.718069 239.094522 
L 117.96053 250.415503 
L 118.20299 246.116933 
L 118.44545 244.104916 
L 118.930371 249.036745 
L 119.172832 248.965719 
L 119.415292 249.941709 
L 119.657753 253.378966 
L 119.900213 242.782906 
L 120.142674 247.402845 
L 120.385134 259.601119 
L 120.627595 236.648676 
L 120.870055 255.835764 
L 121.354976 252.132316 
L 121.597436 253.509558 
L 121.839897 252.673351 
L 122.082357 247.400533 
L 122.809739 259.411213 
L 123.052199 253.45238 
L 123.29466 260.731102 
L 123.53712 254.641952 
L 123.77958 256.110781 
L 124.022041 246.625994 
L 124.264501 250.746505 
L 124.506962 249.9654 
L 124.749422 251.375795 
L 124.991883 256.650999 
L 125.234343 238.228267 
L 125.476804 259.880441 
L 125.719264 252.427463 
L 125.961724 253.508561 
L 126.204185 247.743035 
L 126.446645 261.096526 
L 126.931566 255.739643 
L 127.174027 249.975856 
L 127.416487 261.974661 
L 127.658948 255.599686 
L 127.901408 255.683299 
L 128.143869 263.703239 
L 128.628789 250.21 
L 128.87125 250.093374 
L 129.11371 255.844005 
L 129.356171 254.931776 
L 129.598631 258.963796 
L 129.841092 253.065528 
L 130.083552 263.827138 
L 130.326013 255.063407 
L 130.810934 248.169435 
L 131.053394 253.46838 
L 131.295854 241.462711 
L 131.538315 255.006873 
L 131.780775 262.085448 
L 132.023236 256.519876 
L 132.265696 243.335198 
L 132.508157 261.342316 
L 132.750617 254.296906 
L 132.993078 254.169252 
L 133.235538 252.820113 
L 133.477999 259.099322 
L 133.962919 252.808915 
L 134.20538 258.449943 
L 134.690301 255.631452 
L 134.932761 266.916044 
L 135.175222 265.721752 
L 135.417682 263.237445 
L 135.660143 264.969617 
L 135.902603 257.283666 
L 136.145063 265.0601 
L 136.387524 260.01519 
L 136.872445 253.446793 
L 137.114905 264.423788 
L 137.357366 258.331165 
L 137.599826 265.119742 
L 137.842287 265.193096 
L 138.084747 256.091118 
L 138.327208 265.834176 
L 138.569668 257.277791 
L 138.812128 261.292067 
L 139.054589 233.94637 
L 139.297049 263.294497 
L 139.53951 258.575137 
L 139.78197 259.287927 
L 140.024431 269.745706 
L 140.266891 262.224121 
L 140.509352 264.741686 
L 140.751812 270.406146 
L 140.994273 261.046923 
L 141.236733 270.899622 
L 141.479193 266.122443 
L 141.721654 265.7901 
L 142.206575 256.484959 
L 142.449035 269.064829 
L 142.691496 265.411182 
L 142.933956 257.205145 
L 143.176417 268.528713 
L 143.418877 267.654571 
L 143.661337 262.757641 
L 143.903798 261.602768 
L 144.146258 258.979624 
L 144.388719 267.314521 
L 144.631179 264.3119 
L 144.87364 264.492694 
L 145.1161 265.578649 
L 145.358561 264.142639 
L 145.601021 258.688758 
L 145.843482 258.722884 
L 146.085942 258.935405 
L 146.328402 263.84423 
L 146.570863 263.795696 
L 146.813323 266.47859 
L 147.055784 262.046742 
L 147.298244 252.387972 
L 147.540705 264.30875 
L 147.783165 267.091723 
L 148.025626 257.819249 
L 148.268086 270.087395 
L 148.510547 256.803475 
L 148.753007 257.360866 
L 148.995467 257.598391 
L 149.237928 257.229966 
L 149.480388 265.25375 
L 149.722849 266.962884 
L 149.965309 263.815681 
L 150.20777 256.019938 
L 150.45023 265.196909 
L 150.692691 255.640331 
L 150.935151 265.009821 
L 151.177612 256.231296 
L 151.420072 265.482848 
L 151.662532 257.891885 
L 152.389914 272.232676 
L 152.632374 259.065028 
L 152.874835 265.311899 
L 153.117295 267.873215 
L 153.359756 260.575123 
L 153.602216 265.647463 
L 153.844676 266.071683 
L 154.087137 266.005767 
L 154.329597 248.776366 
L 154.572058 263.216066 
L 154.814518 264.634652 
L 155.056979 261.419487 
L 155.299439 271.932674 
L 155.5419 267.172673 
L 155.78436 265.716321 
L 156.026821 261.431855 
L 156.269281 267.179848 
L 156.511741 267.613865 
L 156.754202 262.234702 
L 156.996662 267.676472 
L 157.239123 261.143054 
L 157.481583 265.490193 
L 157.724044 255.2863 
L 158.208965 272.465765 
L 158.451425 268.967084 
L 158.693886 269.596894 
L 158.936346 262.655949 
L 159.178806 246.827844 
L 159.663727 266.67108 
L 159.906188 262.980961 
L 160.148648 262.923639 
L 160.391109 274.902195 
L 160.633569 255.166569 
L 161.11849 268.183023 
L 161.360951 265.586756 
L 161.603411 266.635747 
L 161.845871 264.797492 
L 162.088332 267.563091 
L 162.330792 265.059869 
L 162.573253 264.98822 
L 162.815713 270.311056 
L 163.058174 263.423316 
L 163.300634 271.185394 
L 163.543095 253.51584 
L 163.785555 266.833911 
L 164.028015 270.334241 
L 164.270476 268.727633 
L 164.512936 266.320508 
L 164.755397 266.362302 
L 164.997857 261.509379 
L 165.240318 262.25901 
L 165.482778 259.620602 
L 165.725239 265.985325 
L 165.967699 264.242748 
L 166.45262 269.009432 
L 166.69508 264.530722 
L 166.937541 263.943644 
L 167.180001 264.504823 
L 167.422462 254.58204 
L 167.664922 266.88737 
L 167.907383 270.496568 
L 168.149843 265.248958 
L 168.392304 266.230987 
L 168.634764 267.86031 
L 168.877225 253.555712 
L 169.119685 261.384085 
L 169.362145 262.071042 
L 169.604606 270.153237 
L 169.847066 260.303352 
L 170.089527 261.79385 
L 170.331987 265.045162 
L 170.574448 260.337583 
L 170.816908 262.603497 
L 171.059369 270.549264 
L 171.544289 259.222381 
L 171.78675 272.472079 
L 172.02921 262.357749 
L 172.271671 257.942866 
L 172.514131 263.209847 
L 172.756592 264.50387 
L 172.999052 257.904024 
L 173.241513 265.128159 
L 173.483973 267.124824 
L 173.726434 266.969244 
L 173.968894 271.882476 
L 174.453815 266.712739 
L 174.696275 268.604189 
L 174.938736 273.337969 
L 175.181196 275.360419 
L 175.423657 264.488477 
L 175.666117 271.146928 
L 175.908578 263.686623 
L 176.151038 264.065216 
L 176.393499 258.206338 
L 176.635959 273.16879 
L 176.878419 268.012291 
L 177.12088 265.257946 
L 177.605801 274.383926 
L 177.848261 266.212828 
L 178.090722 268.820898 
L 178.333182 259.727867 
L 178.575643 262.916209 
L 178.818103 272.598739 
L 179.060564 268.398784 
L 179.303024 256.640515 
L 179.545484 270.964216 
L 179.787945 262.854704 
L 180.030405 272.970491 
L 180.272866 271.502157 
L 180.515326 271.351083 
L 180.757787 273.55231 
L 181.000247 264.975045 
L 181.242708 274.589807 
L 181.485168 268.641535 
L 181.727628 258.694322 
L 181.970089 258.686362 
L 182.212549 276.65561 
L 182.45501 266.862681 
L 182.69747 268.863116 
L 182.939931 266.149327 
L 183.182391 259.681709 
L 183.424852 273.167551 
L 183.667312 268.922559 
L 183.909773 256.714122 
L 184.152233 263.529472 
L 184.394693 266.688986 
L 184.637154 257.024182 
L 184.879614 277.158341 
L 185.122075 255.969006 
L 185.364535 267.892137 
L 185.606996 268.807974 
L 185.849456 268.452409 
L 186.091917 268.924254 
L 186.334377 256.909194 
L 186.576838 261.008429 
L 186.819298 272.435019 
L 187.061758 269.861088 
L 187.304219 256.647294 
L 187.546679 265.145343 
L 187.78914 254.414157 
L 188.274061 268.741554 
L 188.516521 267.720488 
L 189.001442 275.30303 
L 189.243903 264.013185 
L 189.486363 272.136232 
L 189.728823 273.868909 
L 189.971284 260.945203 
L 190.213744 269.463774 
L 190.456205 271.334594 
L 190.698665 267.978118 
L 190.941126 261.679959 
L 191.426047 267.344444 
L 191.668507 266.397179 
L 191.910967 268.772516 
L 192.153428 265.414849 
L 192.395888 263.980505 
L 192.638349 264.437253 
L 192.880809 267.350016 
L 193.12327 268.608915 
L 193.36573 261.791564 
L 193.850651 272.851907 
L 194.093112 260.131194 
L 194.335572 261.331925 
L 194.578032 266.52092 
L 195.062953 268.487175 
L 195.305414 270.099833 
L 195.547874 259.807401 
L 195.790335 264.180836 
L 196.032795 261.724339 
L 196.275256 273.362255 
L 196.517716 268.595383 
L 196.760177 267.79626 
L 197.002637 256.935857 
L 197.245097 268.374914 
L 197.487558 262.466145 
L 197.730018 276.556092 
L 198.214939 268.40015 
L 198.4574 261.749411 
L 198.69986 261.976408 
L 198.942321 267.305745 
L 199.184781 264.289722 
L 199.427241 268.013947 
L 199.669702 265.605653 
L 199.912162 265.932305 
L 200.154623 270.154083 
L 200.397083 266.851036 
L 200.639544 266.975615 
L 200.882004 263.468759 
L 201.124465 267.374864 
L 201.366925 259.721337 
L 201.609386 272.471065 
L 201.851846 264.339238 
L 202.094306 264.849934 
L 202.336767 267.927946 
L 202.579227 263.809098 
L 202.821688 263.877477 
L 203.064148 271.176953 
L 203.306609 272.820736 
L 203.549069 269.163742 
L 203.79153 256.524721 
L 204.03399 268.796229 
L 204.276451 269.080567 
L 204.518911 264.799265 
L 204.761371 270.157167 
L 205.003832 267.839412 
L 205.246292 256.900044 
L 205.488753 271.029339 
L 205.731213 263.89566 
L 205.973674 276.469386 
L 206.216134 261.776859 
L 206.458595 267.168106 
L 206.701055 265.396654 
L 206.943516 268.440941 
L 207.185976 275.186688 
L 207.428436 277.243969 
L 207.670897 266.462503 
L 207.913357 269.503582 
L 208.155818 274.991208 
L 208.398278 262.428129 
L 208.640739 278.545709 
L 208.883199 263.307124 
L 209.12566 271.889514 
L 209.36812 261.501142 
L 209.61058 264.714703 
L 209.853041 266.101573 
L 210.095501 269.22001 
L 210.337962 270.280535 
L 210.580422 268.739249 
L 210.822883 269.354539 
L 211.065343 268.396852 
L 211.307804 272.123385 
L 211.550264 267.741507 
L 211.792725 267.051491 
L 212.035185 257.592376 
L 212.520106 274.361728 
L 212.762566 276.321051 
L 213.005027 267.649446 
L 213.247487 268.289255 
L 213.489948 258.078966 
L 213.732408 268.532335 
L 213.974869 267.473366 
L 214.217329 261.127452 
L 214.45979 261.856529 
L 214.70225 268.477167 
L 214.94471 263.179297 
L 215.187171 277.936918 
L 215.429631 269.369588 
L 215.672092 265.669693 
L 215.914552 265.313715 
L 216.157013 262.683106 
L 216.399473 279.340609 
L 216.641934 273.520883 
L 216.884394 253.78517 
L 217.126855 263.406462 
L 217.369315 259.906476 
L 217.854236 269.058136 
L 218.096696 267.947109 
L 218.339157 261.729055 
L 218.581617 273.761966 
L 219.066538 264.770271 
L 219.308999 267.313604 
L 219.551459 266.162512 
L 219.793919 268.485228 
L 220.03638 265.517121 
L 220.27884 264.995582 
L 220.521301 274.901173 
L 220.763761 271.847943 
L 221.006222 270.490216 
L 221.248682 275.581503 
L 221.491143 268.923398 
L 221.733603 269.450797 
L 221.976064 267.102282 
L 222.218524 267.379364 
L 222.460984 260.952961 
L 222.703445 259.748651 
L 222.945905 272.505415 
L 223.188366 263.590854 
L 223.430826 275.337519 
L 223.673287 274.502979 
L 223.915747 260.959869 
L 224.158208 270.339725 
L 224.400668 273.968674 
L 224.643129 266.725583 
L 224.885589 273.305119 
L 225.128049 263.934187 
L 225.61297 261.179031 
L 225.855431 266.040807 
L 226.097891 274.734384 
L 226.340352 277.740945 
L 226.582812 270.611914 
L 226.825273 267.884704 
L 227.067733 269.739462 
L 227.310193 268.202993 
L 227.552654 268.209107 
L 227.795114 269.383366 
L 228.037575 258.911025 
L 228.280035 273.409019 
L 228.522496 273.00363 
L 228.764956 261.287602 
L 229.007417 263.891782 
L 229.249877 264.774282 
L 229.492338 268.42291 
L 229.734798 267.500649 
L 229.977258 272.24391 
L 230.219719 268.633998 
L 230.462179 270.192768 
L 230.70464 274.942631 
L 230.9471 266.950471 
L 231.189561 265.345641 
L 231.432021 256.726044 
L 232.159403 267.708052 
L 232.401863 267.170197 
L 232.644323 256.122489 
L 232.886784 269.110791 
L 233.129244 258.226787 
L 233.371705 270.224284 
L 233.614165 267.484858 
L 233.856626 269.61578 
L 234.099086 258.622328 
L 234.341547 268.333367 
L 234.584007 256.318862 
L 234.826468 266.695178 
L 235.068928 271.390516 
L 235.311388 268.019971 
L 235.553849 267.421651 
L 235.796309 272.581413 
L 236.03877 260.331854 
L 236.28123 270.561605 
L 236.523691 270.381602 
L 236.766151 260.999942 
L 237.008612 278.119942 
L 237.251072 263.437537 
L 237.493532 277.828954 
L 237.735993 274.294444 
L 237.978453 266.959556 
L 238.220914 264.100428 
L 238.463374 259.850729 
L 238.705835 273.127927 
L 238.948295 264.261795 
L 239.190756 270.077517 
L 239.433216 272.613159 
L 239.675677 257.715457 
L 239.918137 268.318248 
L 240.160597 266.832741 
L 240.403058 273.896723 
L 240.645518 269.789329 
L 240.887979 269.364016 
L 241.130439 267.72773 
L 241.3729 268.328905 
L 241.61536 271.915992 
L 241.857821 268.415534 
L 242.100281 269.827747 
L 242.585202 264.149521 
L 242.827662 270.955716 
L 243.070123 268.510808 
L 243.312583 255.235074 
L 243.555044 254.787446 
L 243.797504 267.398768 
L 244.039965 252.917256 
L 244.282425 267.602227 
L 244.524886 272.408647 
L 244.767346 261.945428 
L 245.009807 264.364494 
L 245.494727 260.147424 
L 245.737188 275.851955 
L 246.222109 268.139099 
L 246.464569 266.237814 
L 246.70703 256.191922 
L 246.94949 273.435961 
L 247.191951 263.886014 
L 247.434411 264.214483 
L 247.676871 261.374505 
L 247.919332 272.596162 
L 248.161792 272.660183 
L 248.404253 268.377503 
L 248.646713 277.896882 
L 248.889174 264.713339 
L 249.131634 264.336763 
L 249.374095 262.395784 
L 249.616555 273.921623 
L 249.859016 265.562898 
L 250.101476 267.438584 
L 250.343936 264.878043 
L 250.586397 271.07965 
L 250.828857 272.399907 
L 251.071318 275.657827 
L 251.313778 275.938204 
L 251.556239 265.317723 
L 251.798699 277.82631 
L 252.04116 260.23132 
L 252.28362 268.609692 
L 252.526081 266.110606 
L 252.768541 272.290914 
L 253.011001 261.9381 
L 253.253462 265.646246 
L 253.495922 272.8015 
L 253.738383 266.713646 
L 253.980843 268.207962 
L 254.223304 272.532458 
L 254.465764 265.250983 
L 254.708225 266.951365 
L 254.950685 274.704801 
L 255.193145 268.438871 
L 255.435606 265.520218 
L 255.678066 267.700921 
L 255.920527 264.206157 
L 256.162987 272.727093 
L 256.890369 260.129382 
L 257.132829 272.486809 
L 257.37529 259.018512 
L 257.61775 267.308767 
L 257.86021 267.144671 
L 258.102671 274.403395 
L 258.345131 272.429194 
L 258.587592 262.309789 
L 258.830052 272.574453 
L 259.072513 259.363628 
L 259.314973 271.12601 
L 259.557434 258.617992 
L 260.042355 270.551128 
L 260.284815 267.113092 
L 260.527275 265.664305 
L 260.769736 280.708534 
L 261.012196 253.539069 
L 261.254657 269.88811 
L 261.497117 270.839393 
L 261.739578 267.604305 
L 261.982038 261.447881 
L 262.224499 266.283888 
L 262.466959 267.863084 
L 262.70942 272.621093 
L 262.95188 268.508034 
L 263.19434 275.537282 
L 263.436801 263.300368 
L 263.921722 269.396279 
L 264.164182 271.018188 
L 264.406643 265.924873 
L 264.649103 267.272775 
L 264.891564 261.746857 
L 265.376484 276.643061 
L 265.618945 266.446503 
L 265.861405 267.172906 
L 266.103866 276.130383 
L 266.346326 264.061766 
L 266.588787 271.939082 
L 267.073708 266.641148 
L 267.316168 269.923127 
L 267.558629 271.46092 
L 267.801089 274.453681 
L 268.043549 266.796246 
L 268.28601 263.596924 
L 268.52847 274.876562 
L 268.770931 261.419396 
L 269.013391 266.176318 
L 269.255852 265.439841 
L 269.498312 270.676108 
L 269.740773 258.93089 
L 270.225694 273.902885 
L 270.468154 273.882982 
L 270.953075 268.469275 
L 271.195535 262.698446 
L 271.437996 271.730433 
L 271.680456 273.108105 
L 271.922917 272.506089 
L 272.165377 267.137717 
L 272.407838 269.987565 
L 272.650298 260.68105 
L 272.892759 271.972755 
L 273.135219 271.099931 
L 273.377679 256.614228 
L 273.8626 269.860648 
L 274.105061 232.869217 
L 274.347521 270.524609 
L 274.589982 262.947052 
L 274.832442 264.282235 
L 275.074903 268.213669 
L 275.317363 260.072917 
L 275.559823 268.20696 
L 275.802284 267.188216 
L 276.044744 270.76354 
L 276.287205 265.563424 
L 276.529665 266.160305 
L 276.772126 267.957293 
L 277.014586 268.413447 
L 277.257047 267.159397 
L 277.499507 268.429578 
L 277.741968 263.021055 
L 277.984428 270.105285 
L 278.226888 270.808691 
L 278.711809 260.78201 
L 278.95427 261.134697 
L 279.19673 263.312935 
L 279.439191 263.107469 
L 279.681651 264.972424 
L 279.924112 271.569136 
L 280.166572 270.004032 
L 280.409033 264.318569 
L 280.651493 262.769964 
L 280.893953 270.546447 
L 281.136414 263.40056 
L 281.378874 266.009828 
L 281.621335 262.990786 
L 281.863795 274.566523 
L 282.106256 261.946044 
L 282.348716 261.771446 
L 282.591177 272.644922 
L 282.833637 260.487868 
L 283.076097 270.435802 
L 283.318558 256.802192 
L 283.561018 269.511871 
L 283.803479 267.758728 
L 284.2884 258.428518 
L 284.53086 270.705989 
L 284.773321 271.151924 
L 285.015781 259.018113 
L 285.258242 261.356953 
L 285.500702 272.978001 
L 285.743162 270.996253 
L 285.985623 270.51931 
L 286.228083 250.074135 
L 286.470544 264.007058 
L 286.713004 259.88523 
L 287.197925 279.392609 
L 287.682846 265.537381 
L 287.925307 264.607194 
L 288.167767 259.406185 
L 288.410227 268.727041 
L 288.652688 255.354793 
L 288.895148 272.120429 
L 289.137609 268.03758 
L 289.380069 268.076474 
L 289.86499 264.164707 
L 290.107451 256.840846 
L 290.592372 264.283568 
L 290.834832 274.108172 
L 291.077292 261.929609 
L 291.319753 271.123737 
L 291.562213 267.34278 
L 291.804674 271.107154 
L 292.047134 261.856445 
L 292.289595 263.032185 
L 292.532055 266.228531 
L 292.774516 265.536109 
L 293.016976 270.578883 
L 293.259436 258.695221 
L 293.501897 266.065179 
L 293.744357 265.223443 
L 293.986818 268.03812 
L 294.229278 259.882588 
L 294.471739 261.884672 
L 294.714199 271.039422 
L 294.95666 267.548709 
L 295.19912 277.765602 
L 295.441581 266.205267 
L 295.926501 260.454074 
L 296.168962 275.263766 
L 296.411422 266.166629 
L 296.653883 262.015164 
L 297.138804 277.018273 
L 297.381264 269.573378 
L 297.623725 267.168929 
L 297.866185 268.795022 
L 298.108646 265.193321 
L 298.351106 265.264544 
L 298.593566 264.097647 
L 298.836027 268.925277 
L 299.078487 265.603623 
L 299.320948 268.664155 
L 299.563408 263.129045 
L 299.805869 251.755788 
L 300.048329 257.097567 
L 300.29079 268.839127 
L 300.53325 261.303321 
L 300.775711 275.076811 
L 301.260631 258.928639 
L 301.503092 268.024848 
L 301.745552 270.848324 
L 301.988013 266.900597 
L 302.230473 265.619323 
L 302.472934 268.174869 
L 302.715394 272.711961 
L 302.957855 267.028193 
L 303.200315 266.548933 
L 303.442775 270.917173 
L 303.927696 268.793069 
L 304.170157 265.897322 
L 304.412617 268.849309 
L 304.655078 262.128611 
L 304.897538 274.021985 
L 305.139999 272.33458 
L 305.382459 259.886348 
L 305.62492 268.646378 
L 305.86738 265.597142 
L 306.10984 270.577772 
L 306.352301 267.449636 
L 306.594761 276.469882 
L 306.837222 269.141715 
L 307.079682 245.849922 
L 307.322143 265.289601 
L 307.564603 261.388863 
L 307.807064 254.79247 
L 308.049524 270.644338 
L 308.291985 261.167414 
L 308.534445 270.88781 
L 308.776905 262.72633 
L 309.019366 266.540385 
L 309.261826 260.516081 
L 309.504287 265.411756 
L 309.989208 259.133793 
L 310.231668 266.38397 
L 310.474129 263.760645 
L 310.716589 269.792209 
L 310.959049 269.675211 
L 311.20151 269.864987 
L 311.686431 258.872454 
L 311.928891 265.18678 
L 312.171352 265.63544 
L 312.413812 262.800666 
L 312.656273 270.319256 
L 312.898733 267.203546 
L 313.141194 262.26658 
L 313.383654 265.300906 
L 313.626114 263.203363 
L 313.868575 264.97982 
L 314.111035 264.254054 
L 314.353496 268.808471 
L 314.595956 263.514669 
L 314.838417 272.024063 
L 315.080877 253.088624 
L 315.808259 271.62922 
L 316.050719 265.727999 
L 316.293179 268.025196 
L 316.53564 267.231282 
L 316.7781 263.588869 
L 317.020561 274.656321 
L 317.263021 271.518081 
L 317.505482 264.512065 
L 317.990403 278.277218 
L 318.232863 266.914675 
L 318.475324 264.05076 
L 318.717784 275.287146 
L 318.960244 273.229271 
L 319.202705 264.505199 
L 319.445165 266.909926 
L 319.687626 274.85661 
L 320.172547 267.035122 
L 320.415007 271.89898 
L 320.657468 270.597625 
L 320.899928 265.911529 
L 321.142388 271.271783 
L 321.384849 271.597317 
L 321.627309 263.44214 
L 321.86977 269.338608 
L 322.11223 270.031016 
L 322.354691 265.440773 
L 322.597151 272.804852 
L 322.839612 273.467213 
L 323.566993 268.311891 
L 323.809453 282.641093 
L 324.051914 257.891288 
L 324.536835 270.515752 
L 324.779295 279.13951 
L 325.021756 273.064856 
L 325.264216 271.447856 
L 325.749137 259.341137 
L 325.991598 274.266828 
L 326.234058 278.445319 
L 326.718979 263.14509 
L 327.2039 268.458233 
L 327.44636 263.47911 
L 327.931281 264.99557 
L 328.416202 270.539238 
L 328.658663 275.307657 
L 328.901123 271.694323 
L 329.143583 257.048559 
L 329.386044 267.758956 
L 329.628504 265.872188 
L 329.870965 272.370604 
L 330.113425 273.976641 
L 330.355886 264.898155 
L 330.598346 270.076033 
L 330.840807 258.127877 
L 331.325727 270.340278 
L 331.568188 268.415131 
L 331.810648 267.492038 
L 332.295569 259.334735 
L 332.53803 269.408611 
L 332.78049 271.365021 
L 333.022951 264.943662 
L 333.265411 271.856118 
L 333.507872 266.237151 
L 333.750332 275.406231 
L 333.992792 258.78214 
L 334.477713 266.992671 
L 334.720174 263.642145 
L 334.962634 263.013022 
L 335.205095 264.664579 
L 335.447555 274.226179 
L 335.690016 260.150515 
L 335.932476 269.161296 
L 336.417397 262.082856 
L 336.659857 265.648426 
L 337.144778 268.689118 
L 337.387239 261.225907 
L 337.629699 266.751766 
L 337.87216 262.128956 
L 338.11462 260.863062 
L 338.357081 268.032323 
L 338.599541 263.935925 
L 338.842001 278.703638 
L 339.084462 256.236474 
L 339.326922 266.175949 
L 339.569383 259.24776 
L 339.811843 269.490342 
L 340.054304 261.510215 
L 340.296764 257.272578 
L 340.781685 266.996261 
L 341.266606 274.216222 
L 341.509066 265.845777 
L 341.751527 263.428445 
L 342.478908 271.159434 
L 342.721369 270.834115 
L 342.963829 264.531234 
L 343.20629 263.070552 
L 343.44875 266.724313 
L 343.691211 264.857638 
L 343.933671 264.312931 
L 344.176131 265.56211 
L 344.418592 270.633839 
L 344.661052 263.411035 
L 344.903513 275.174957 
L 345.145973 267.847632 
L 345.388434 256.71595 
L 345.630894 270.266287 
L 345.873355 265.659477 
L 346.358276 268.099823 
L 346.600736 277.360207 
L 346.843196 262.194503 
L 347.085657 263.110762 
L 347.328117 265.56278 
L 347.570578 260.237945 
L 347.813038 265.262549 
L 348.055499 266.20863 
L 348.297959 270.632085 
L 348.54042 269.561252 
L 348.78288 266.286147 
L 349.02534 257.804441 
L 349.267801 269.040731 
L 349.510261 267.996432 
L 349.752722 258.841996 
L 349.995182 264.533349 
L 350.237643 262.060612 
L 350.480103 266.465109 
L 350.722564 260.122491 
L 350.965024 262.020661 
L 351.207485 266.134099 
L 351.449945 276.04967 
L 351.934866 267.991658 
L 352.177326 273.971066 
L 352.419787 255.493468 
L 352.662247 255.872408 
L 352.904708 270.563692 
L 353.389629 267.70411 
L 353.632089 268.93595 
L 353.87455 278.287433 
L 354.11701 264.220585 
L 354.35947 266.495 
L 354.601931 262.590716 
L 354.844391 269.247232 
L 355.086852 269.705081 
L 355.329312 273.744837 
L 355.571773 266.727343 
L 355.814233 270.888845 
L 356.056694 265.580893 
L 356.299154 273.255545 
L 356.784075 264.227626 
L 357.026535 265.017163 
L 357.268996 264.336464 
L 357.511456 258.075325 
L 357.753917 258.074498 
L 357.996377 259.277368 
L 358.238838 255.159551 
L 358.481298 260.775408 
L 358.723759 260.500401 
L 358.966219 259.868391 
L 359.208679 268.325427 
L 359.45114 269.455981 
L 359.6936 263.05623 
L 359.936061 270.665743 
L 360.420982 264.27274 
L 360.663442 265.321919 
L 360.905903 267.667226 
L 361.148363 273.455559 
L 361.390824 268.89908 
L 361.633284 269.011334 
L 361.875744 266.806216 
L 362.118205 266.546642 
L 362.360665 262.401954 
L 362.603126 267.735804 
L 362.845586 269.347486 
L 363.088047 261.622002 
L 363.330507 276.439492 
L 363.572968 264.2162 
L 363.815428 268.422645 
L 364.057889 261.495621 
L 364.300349 268.497877 
L 364.542809 264.216509 
L 364.78527 273.384724 
L 365.02773 264.713919 
L 365.270191 266.339175 
L 365.755112 275.680475 
L 365.997572 266.543265 
L 366.240033 265.732217 
L 366.482493 263.629534 
L 366.724953 260.005506 
L 366.967414 269.332688 
L 367.209874 273.307558 
L 367.452335 253.405941 
L 367.694795 263.336173 
L 368.179716 265.580459 
L 368.422177 262.273238 
L 368.664637 273.385873 
L 368.907098 264.074728 
L 369.149558 263.334734 
L 369.392018 263.708262 
L 369.634479 268.564027 
L 369.876939 269.209783 
L 370.1194 268.27917 
L 370.36186 265.650034 
L 370.604321 256.110648 
L 370.846781 265.370401 
L 371.089242 261.733028 
L 371.331702 265.029814 
L 371.816623 256.637177 
L 372.059083 255.748004 
L 372.301544 269.523396 
L 372.544004 260.7994 
L 372.786465 269.144186 
L 373.028925 268.187328 
L 373.271386 247.915578 
L 373.513846 271.58061 
L 373.756307 263.818592 
L 373.998767 264.20304 
L 374.241228 262.954183 
L 374.483688 271.783501 
L 374.726148 266.85768 
L 374.968609 267.635895 
L 375.211069 264.293152 
L 375.45353 266.977019 
L 375.69599 263.825852 
L 375.938451 269.645672 
L 376.180911 268.985245 
L 376.423372 262.691984 
L 376.665832 259.753564 
L 376.908292 259.836152 
L 377.150753 258.012067 
L 377.393213 263.465714 
L 377.635674 260.354651 
L 377.878134 273.875497 
L 378.120595 265.801835 
L 378.363055 267.484069 
L 378.605516 275.396044 
L 378.847976 262.824669 
L 379.090437 262.386644 
L 379.332897 269.549986 
L 379.575357 265.429839 
L 379.817818 238.397979 
L 380.060278 267.375862 
L 380.302739 271.538824 
L 380.545199 269.05019 
L 380.78766 269.155357 
L 381.03012 264.221664 
L 381.272581 269.007544 
L 381.515041 268.358631 
L 381.757502 272.185966 
L 381.999962 270.724373 
L 382.242422 267.093644 
L 382.484883 261.65799 
L 382.727343 250.109564 
L 382.969804 268.608994 
L 383.212264 260.302185 
L 383.697185 269.086994 
L 383.939646 257.640695 
L 384.424567 271.963684 
L 384.667027 273.350237 
L 384.909487 265.302322 
L 385.151948 267.803306 
L 385.394408 265.626622 
L 385.636869 270.013217 
L 385.879329 263.996877 
L 386.12179 264.446722 
L 386.36425 267.524617 
L 386.606711 267.298798 
L 386.849171 264.760276 
L 387.091631 265.139167 
L 387.334092 256.41395 
L 387.576552 262.023486 
L 387.819013 258.542616 
L 388.061473 270.325632 
L 388.303934 269.910434 
L 388.546394 270.977285 
L 388.788855 262.455457 
L 389.031315 268.730122 
L 389.273776 269.781007 
L 389.516236 261.784483 
L 389.758696 260.247357 
L 390.001157 260.960123 
L 390.243617 264.489719 
L 390.486078 261.759263 
L 390.728538 255.248366 
L 390.970999 267.266401 
L 391.213459 268.987909 
L 391.45592 268.34105 
L 391.69838 258.722272 
L 391.940841 259.167088 
L 392.183301 270.651337 
L 392.425761 272.469192 
L 392.668222 258.462619 
L 392.910682 270.893495 
L 393.153143 264.612347 
L 393.395603 269.289336 
L 393.638064 268.285949 
L 393.880524 254.865507 
L 394.122985 265.220276 
L 394.365445 259.786327 
L 394.850366 270.435838 
L 395.092826 268.755284 
L 395.577747 260.482743 
L 395.820208 272.009857 
L 396.062668 267.347112 
L 396.305129 275.969615 
L 396.547589 265.761302 
L 396.79005 267.420958 
L 397.03251 264.595903 
L 397.27497 257.079624 
L 397.759891 272.342088 
L 398.002352 269.757166 
L 398.244812 265.079757 
L 398.487273 267.326294 
L 398.487273 267.326294 
" style="fill:none;stroke:#ff7f0e;stroke-linecap:square;stroke-width:1.5;"/>
   </g>
   <g id="patch_3">
    <path d="M 57.6 307.584 
L 57.6 41.472 
" style="fill:none;stroke:#000000;stroke-linecap:square;stroke-linejoin:miter;stroke-width:0.8;"/>
   </g>
   <g id="patch_4">
    <path d="M 414.72 307.584 
L 414.72 41.472 
" style="fill:none;stroke:#000000;stroke-linecap:square;stroke-linejoin:miter;stroke-width:0.8;"/>
   </g>
   <g id="patch_5">
    <path d="M 57.6 307.584 
L 414.72 307.584 
" style="fill:none;stroke:#000000;stroke-linecap:square;stroke-linejoin:miter;stroke-width:0.8;"/>
   </g>
   <g id="patch_6">
    <path d="M 57.6 41.472 
L 414.72 41.472 
" style="fill:none;stroke:#000000;stroke-linecap:square;stroke-linejoin:miter;stroke-width:0.8;"/>
   </g>
   <g id="legend_1">
    <g id="patch_7">
     <path d="M 303.845 78.82825 
L 407.72 78.82825 
Q 409.72 78.82825 409.72 76.82825 
L 409.72 48.472 
Q 409.72 46.472 407.72 46.472 
L 303.845 46.472 
Q 301.845 46.472 301.845 48.472 
L 301.845 76.82825 
Q 301.845 78.82825 303.845 78.82825 
z
" style="fill:#ffffff;opacity:0.8;stroke:#cccccc;stroke-linejoin:miter;"/>
    </g>
    <g id="line2d_17">
     <path d="M 305.845 54.570437 
L 325.845 54.570437 
" style="fill:none;stroke:#1f77b4;stroke-linecap:square;stroke-width:1.5;"/>
    </g>
    <g id="line2d_18"/>
    <g id="text_16">
     <!-- Train loss -->
     <g transform="translate(333.845 58.070437)scale(0.1 -0.1)">
      <defs>
       <path d="M -19 4666 
L 3928 4666 
L 3928 4134 
L 2272 4134 
L 2272 0 
L 1638 0 
L 1638 4134 
L -19 4134 
L -19 4666 
z
" id="DejaVuSans-54" transform="scale(0.015625)"/>
       <path d="M 2631 2963 
Q 2534 3019 2420 3045 
Q 2306 3072 2169 3072 
Q 1681 3072 1420 2755 
Q 1159 2438 1159 1844 
L 1159 0 
L 581 0 
L 581 3500 
L 1159 3500 
L 1159 2956 
Q 1341 3275 1631 3429 
Q 1922 3584 2338 3584 
Q 2397 3584 2469 3576 
Q 2541 3569 2628 3553 
L 2631 2963 
z
" id="DejaVuSans-72" transform="scale(0.015625)"/>
       <path d="M 2194 1759 
Q 1497 1759 1228 1600 
Q 959 1441 959 1056 
Q 959 750 1161 570 
Q 1363 391 1709 391 
Q 2188 391 2477 730 
Q 2766 1069 2766 1631 
L 2766 1759 
L 2194 1759 
z
M 3341 1997 
L 3341 0 
L 2766 0 
L 2766 531 
Q 2569 213 2275 61 
Q 1981 -91 1556 -91 
Q 1019 -91 701 211 
Q 384 513 384 1019 
Q 384 1609 779 1909 
Q 1175 2209 1959 2209 
L 2766 2209 
L 2766 2266 
Q 2766 2663 2505 2880 
Q 2244 3097 1772 3097 
Q 1472 3097 1187 3025 
Q 903 2953 641 2809 
L 641 3341 
Q 956 3463 1253 3523 
Q 1550 3584 1831 3584 
Q 2591 3584 2966 3190 
Q 3341 2797 3341 1997 
z
" id="DejaVuSans-61" transform="scale(0.015625)"/>
       <path d="M 603 3500 
L 1178 3500 
L 1178 0 
L 603 0 
L 603 3500 
z
M 603 4863 
L 1178 4863 
L 1178 4134 
L 603 4134 
L 603 4863 
z
" id="DejaVuSans-69" transform="scale(0.015625)"/>
       <path d="M 3513 2113 
L 3513 0 
L 2938 0 
L 2938 2094 
Q 2938 2591 2744 2837 
Q 2550 3084 2163 3084 
Q 1697 3084 1428 2787 
Q 1159 2491 1159 1978 
L 1159 0 
L 581 0 
L 581 3500 
L 1159 3500 
L 1159 2956 
Q 1366 3272 1645 3428 
Q 1925 3584 2291 3584 
Q 2894 3584 3203 3211 
Q 3513 2838 3513 2113 
z
" id="DejaVuSans-6e" transform="scale(0.015625)"/>
       <path id="DejaVuSans-20" transform="scale(0.015625)"/>
       <path d="M 603 4863 
L 1178 4863 
L 1178 0 
L 603 0 
L 603 4863 
z
" id="DejaVuSans-6c" transform="scale(0.015625)"/>
       <path d="M 2834 3397 
L 2834 2853 
Q 2591 2978 2328 3040 
Q 2066 3103 1784 3103 
Q 1356 3103 1142 2972 
Q 928 2841 928 2578 
Q 928 2378 1081 2264 
Q 1234 2150 1697 2047 
L 1894 2003 
Q 2506 1872 2764 1633 
Q 3022 1394 3022 966 
Q 3022 478 2636 193 
Q 2250 -91 1575 -91 
Q 1294 -91 989 -36 
Q 684 19 347 128 
L 347 722 
Q 666 556 975 473 
Q 1284 391 1588 391 
Q 1994 391 2212 530 
Q 2431 669 2431 922 
Q 2431 1156 2273 1281 
Q 2116 1406 1581 1522 
L 1381 1569 
Q 847 1681 609 1914 
Q 372 2147 372 2553 
Q 372 3047 722 3315 
Q 1072 3584 1716 3584 
Q 2034 3584 2315 3537 
Q 2597 3491 2834 3397 
z
" id="DejaVuSans-73" transform="scale(0.015625)"/>
      </defs>
      <use xlink:href="#DejaVuSans-54"/>
      <use x="46.333984" xlink:href="#DejaVuSans-72"/>
      <use x="87.447266" xlink:href="#DejaVuSans-61"/>
      <use x="148.726562" xlink:href="#DejaVuSans-69"/>
      <use x="176.509766" xlink:href="#DejaVuSans-6e"/>
      <use x="239.888672" xlink:href="#DejaVuSans-20"/>
      <use x="271.675781" xlink:href="#DejaVuSans-6c"/>
      <use x="299.458984" xlink:href="#DejaVuSans-6f"/>
      <use x="360.640625" xlink:href="#DejaVuSans-73"/>
      <use x="412.740234" xlink:href="#DejaVuSans-73"/>
     </g>
    </g>
    <g id="line2d_19">
     <path d="M 305.845 69.248562 
L 325.845 69.248562 
" style="fill:none;stroke:#ff7f0e;stroke-linecap:square;stroke-width:1.5;"/>
    </g>
    <g id="line2d_20"/>
    <g id="text_17">
     <!-- Validation loss -->
     <g transform="translate(333.845 72.748562)scale(0.1 -0.1)">
      <defs>
       <path d="M 1831 0 
L 50 4666 
L 709 4666 
L 2188 738 
L 3669 4666 
L 4325 4666 
L 2547 0 
L 1831 0 
z
" id="DejaVuSans-56" transform="scale(0.015625)"/>
       <path d="M 2906 2969 
L 2906 4863 
L 3481 4863 
L 3481 0 
L 2906 0 
L 2906 525 
Q 2725 213 2448 61 
Q 2172 -91 1784 -91 
Q 1150 -91 751 415 
Q 353 922 353 1747 
Q 353 2572 751 3078 
Q 1150 3584 1784 3584 
Q 2172 3584 2448 3432 
Q 2725 3281 2906 2969 
z
M 947 1747 
Q 947 1113 1208 752 
Q 1469 391 1925 391 
Q 2381 391 2643 752 
Q 2906 1113 2906 1747 
Q 2906 2381 2643 2742 
Q 2381 3103 1925 3103 
Q 1469 3103 1208 2742 
Q 947 2381 947 1747 
z
" id="DejaVuSans-64" transform="scale(0.015625)"/>
       <path d="M 1172 4494 
L 1172 3500 
L 2356 3500 
L 2356 3053 
L 1172 3053 
L 1172 1153 
Q 1172 725 1289 603 
Q 1406 481 1766 481 
L 2356 481 
L 2356 0 
L 1766 0 
Q 1100 0 847 248 
Q 594 497 594 1153 
L 594 3053 
L 172 3053 
L 172 3500 
L 594 3500 
L 594 4494 
L 1172 4494 
z
" id="DejaVuSans-74" transform="scale(0.015625)"/>
      </defs>
      <use xlink:href="#DejaVuSans-56"/>
      <use x="60.658203" xlink:href="#DejaVuSans-61"/>
      <use x="121.9375" xlink:href="#DejaVuSans-6c"/>
      <use x="149.720703" xlink:href="#DejaVuSans-69"/>
      <use x="177.503906" xlink:href="#DejaVuSans-64"/>
      <use x="240.980469" xlink:href="#DejaVuSans-61"/>
      <use x="302.259766" xlink:href="#DejaVuSans-74"/>
      <use x="341.46875" xlink:href="#DejaVuSans-69"/>
      <use x="369.251953" xlink:href="#DejaVuSans-6f"/>
      <use x="430.433594" xlink:href="#DejaVuSans-6e"/>
      <use x="493.8125" xlink:href="#DejaVuSans-20"/>
      <use x="525.599609" xlink:href="#DejaVuSans-6c"/>
      <use x="553.382812" xlink:href="#DejaVuSans-6f"/>
      <use x="614.564453" xlink:href="#DejaVuSans-73"/>
      <use x="666.664062" xlink:href="#DejaVuSans-73"/>
     </g>
    </g>
   </g>
  </g>
 </g>
 <defs>
  <clipPath id="p361eb01f3a">
   <rect height="266.112" width="357.12" x="57.6" y="41.472"/>
  </clipPath>
 </defs>
</svg>
