<?xml version="1.0" encoding="utf-8" standalone="no"?>
<!DOCTYPE svg PUBLIC "-//W3C//DTD SVG 1.1//EN"
  "http://www.w3.org/Graphics/SVG/1.1/DTD/svg11.dtd">
<svg height="345.6pt" version="1.1" viewBox="0 0 460.8 345.6" width="460.8pt" xmlns="http://www.w3.org/2000/svg" xmlns:xlink="http://www.w3.org/1999/xlink">
 <metadata>
  <rdf:RDF xmlns:cc="http://creativecommons.org/ns#" xmlns:dc="http://purl.org/dc/elements/1.1/" xmlns:rdf="http://www.w3.org/1999/02/22-rdf-syntax-ns#">
   <cc:Work>
    <dc:type rdf:resource="http://purl.org/dc/dcmitype/StillImage"/>
    <dc:date>2021-07-20T08:46:44.387121</dc:date>
    <dc:format>image/svg+xml</dc:format>
    <dc:creator>
     <cc:Agent>
      <dc:title>Matplotlib v3.4.2, https://matplotlib.org/</dc:title>
     </cc:Agent>
    </dc:creator>
   </cc:Work>
  </rdf:RDF>
 </metadata>
 <defs>
  <style type="text/css">*{stroke-linecap:butt;stroke-linejoin:round;}</style>
 </defs>
 <g id="figure_1">
  <g id="patch_1">
   <path d="M 0 345.6 
L 460.8 345.6 
L 460.8 0 
L 0 0 
z
" style="fill:#ffffff;"/>
  </g>
  <g id="axes_1">
   <g id="patch_2">
    <path d="M 57.6 307.584 
L 414.72 307.584 
L 414.72 41.472 
L 57.6 41.472 
z
" style="fill:#ffffff;"/>
   </g>
   <g id="matplotlib.axis_1">
    <g id="xtick_1">
     <g id="line2d_1">
      <defs>
       <path d="M 0 0 
L 0 3.5 
" id="mc874557fd5" style="stroke:#000000;stroke-width:0.8;"/>
      </defs>
      <g>
       <use style="stroke:#000000;stroke-width:0.8;" x="73.454783" xlink:href="#mc874557fd5" y="307.584"/>
      </g>
     </g>
     <g id="text_1">
      <!-- 0 -->
      <g transform="translate(70.273533 322.182437)scale(0.1 -0.1)">
       <defs>
        <path d="M 2034 4250 
Q 1547 4250 1301 3770 
Q 1056 3291 1056 2328 
Q 1056 1369 1301 889 
Q 1547 409 2034 409 
Q 2525 409 2770 889 
Q 3016 1369 3016 2328 
Q 3016 3291 2770 3770 
Q 2525 4250 2034 4250 
z
M 2034 4750 
Q 2819 4750 3233 4129 
Q 3647 3509 3647 2328 
Q 3647 1150 3233 529 
Q 2819 -91 2034 -91 
Q 1250 -91 836 529 
Q 422 1150 422 2328 
Q 422 3509 836 4129 
Q 1250 4750 2034 4750 
z
" id="DejaVuSans-30" transform="scale(0.015625)"/>
       </defs>
       <use xlink:href="#DejaVuSans-30"/>
      </g>
     </g>
    </g>
    <g id="xtick_2">
     <g id="line2d_2">
      <g>
       <use style="stroke:#000000;stroke-width:0.8;" x="149.043734" xlink:href="#mc874557fd5" y="307.584"/>
      </g>
     </g>
     <g id="text_2">
      <!-- 200 -->
      <g transform="translate(139.499984 322.182437)scale(0.1 -0.1)">
       <defs>
        <path d="M 1228 531 
L 3431 531 
L 3431 0 
L 469 0 
L 469 531 
Q 828 903 1448 1529 
Q 2069 2156 2228 2338 
Q 2531 2678 2651 2914 
Q 2772 3150 2772 3378 
Q 2772 3750 2511 3984 
Q 2250 4219 1831 4219 
Q 1534 4219 1204 4116 
Q 875 4013 500 3803 
L 500 4441 
Q 881 4594 1212 4672 
Q 1544 4750 1819 4750 
Q 2544 4750 2975 4387 
Q 3406 4025 3406 3419 
Q 3406 3131 3298 2873 
Q 3191 2616 2906 2266 
Q 2828 2175 2409 1742 
Q 1991 1309 1228 531 
z
" id="DejaVuSans-32" transform="scale(0.015625)"/>
       </defs>
       <use xlink:href="#DejaVuSans-32"/>
       <use x="63.623047" xlink:href="#DejaVuSans-30"/>
       <use x="127.246094" xlink:href="#DejaVuSans-30"/>
      </g>
     </g>
    </g>
    <g id="xtick_3">
     <g id="line2d_3">
      <g>
       <use style="stroke:#000000;stroke-width:0.8;" x="224.632685" xlink:href="#mc874557fd5" y="307.584"/>
      </g>
     </g>
     <g id="text_3">
      <!-- 400 -->
      <g transform="translate(215.088935 322.182437)scale(0.1 -0.1)">
       <defs>
        <path d="M 2419 4116 
L 825 1625 
L 2419 1625 
L 2419 4116 
z
M 2253 4666 
L 3047 4666 
L 3047 1625 
L 3713 1625 
L 3713 1100 
L 3047 1100 
L 3047 0 
L 2419 0 
L 2419 1100 
L 313 1100 
L 313 1709 
L 2253 4666 
z
" id="DejaVuSans-34" transform="scale(0.015625)"/>
       </defs>
       <use xlink:href="#DejaVuSans-34"/>
       <use x="63.623047" xlink:href="#DejaVuSans-30"/>
       <use x="127.246094" xlink:href="#DejaVuSans-30"/>
      </g>
     </g>
    </g>
    <g id="xtick_4">
     <g id="line2d_4">
      <g>
       <use style="stroke:#000000;stroke-width:0.8;" x="300.221636" xlink:href="#mc874557fd5" y="307.584"/>
      </g>
     </g>
     <g id="text_4">
      <!-- 600 -->
      <g transform="translate(290.677886 322.182437)scale(0.1 -0.1)">
       <defs>
        <path d="M 2113 2584 
Q 1688 2584 1439 2293 
Q 1191 2003 1191 1497 
Q 1191 994 1439 701 
Q 1688 409 2113 409 
Q 2538 409 2786 701 
Q 3034 994 3034 1497 
Q 3034 2003 2786 2293 
Q 2538 2584 2113 2584 
z
M 3366 4563 
L 3366 3988 
Q 3128 4100 2886 4159 
Q 2644 4219 2406 4219 
Q 1781 4219 1451 3797 
Q 1122 3375 1075 2522 
Q 1259 2794 1537 2939 
Q 1816 3084 2150 3084 
Q 2853 3084 3261 2657 
Q 3669 2231 3669 1497 
Q 3669 778 3244 343 
Q 2819 -91 2113 -91 
Q 1303 -91 875 529 
Q 447 1150 447 2328 
Q 447 3434 972 4092 
Q 1497 4750 2381 4750 
Q 2619 4750 2861 4703 
Q 3103 4656 3366 4563 
z
" id="DejaVuSans-36" transform="scale(0.015625)"/>
       </defs>
       <use xlink:href="#DejaVuSans-36"/>
       <use x="63.623047" xlink:href="#DejaVuSans-30"/>
       <use x="127.246094" xlink:href="#DejaVuSans-30"/>
      </g>
     </g>
    </g>
    <g id="xtick_5">
     <g id="line2d_5">
      <g>
       <use style="stroke:#000000;stroke-width:0.8;" x="375.810587" xlink:href="#mc874557fd5" y="307.584"/>
      </g>
     </g>
     <g id="text_5">
      <!-- 800 -->
      <g transform="translate(366.266837 322.182437)scale(0.1 -0.1)">
       <defs>
        <path d="M 2034 2216 
Q 1584 2216 1326 1975 
Q 1069 1734 1069 1313 
Q 1069 891 1326 650 
Q 1584 409 2034 409 
Q 2484 409 2743 651 
Q 3003 894 3003 1313 
Q 3003 1734 2745 1975 
Q 2488 2216 2034 2216 
z
M 1403 2484 
Q 997 2584 770 2862 
Q 544 3141 544 3541 
Q 544 4100 942 4425 
Q 1341 4750 2034 4750 
Q 2731 4750 3128 4425 
Q 3525 4100 3525 3541 
Q 3525 3141 3298 2862 
Q 3072 2584 2669 2484 
Q 3125 2378 3379 2068 
Q 3634 1759 3634 1313 
Q 3634 634 3220 271 
Q 2806 -91 2034 -91 
Q 1263 -91 848 271 
Q 434 634 434 1313 
Q 434 1759 690 2068 
Q 947 2378 1403 2484 
z
M 1172 3481 
Q 1172 3119 1398 2916 
Q 1625 2713 2034 2713 
Q 2441 2713 2670 2916 
Q 2900 3119 2900 3481 
Q 2900 3844 2670 4047 
Q 2441 4250 2034 4250 
Q 1625 4250 1398 4047 
Q 1172 3844 1172 3481 
z
" id="DejaVuSans-38" transform="scale(0.015625)"/>
       </defs>
       <use xlink:href="#DejaVuSans-38"/>
       <use x="63.623047" xlink:href="#DejaVuSans-30"/>
       <use x="127.246094" xlink:href="#DejaVuSans-30"/>
      </g>
     </g>
    </g>
    <g id="text_6">
     <!-- Epoch -->
     <g transform="translate(213.193594 339.659781)scale(0.15 -0.15)">
      <defs>
       <path d="M 628 4666 
L 3578 4666 
L 3578 4134 
L 1259 4134 
L 1259 2753 
L 3481 2753 
L 3481 2222 
L 1259 2222 
L 1259 531 
L 3634 531 
L 3634 0 
L 628 0 
L 628 4666 
z
" id="DejaVuSans-45" transform="scale(0.015625)"/>
       <path d="M 1159 525 
L 1159 -1331 
L 581 -1331 
L 581 3500 
L 1159 3500 
L 1159 2969 
Q 1341 3281 1617 3432 
Q 1894 3584 2278 3584 
Q 2916 3584 3314 3078 
Q 3713 2572 3713 1747 
Q 3713 922 3314 415 
Q 2916 -91 2278 -91 
Q 1894 -91 1617 61 
Q 1341 213 1159 525 
z
M 3116 1747 
Q 3116 2381 2855 2742 
Q 2594 3103 2138 3103 
Q 1681 3103 1420 2742 
Q 1159 2381 1159 1747 
Q 1159 1113 1420 752 
Q 1681 391 2138 391 
Q 2594 391 2855 752 
Q 3116 1113 3116 1747 
z
" id="DejaVuSans-70" transform="scale(0.015625)"/>
       <path d="M 1959 3097 
Q 1497 3097 1228 2736 
Q 959 2375 959 1747 
Q 959 1119 1226 758 
Q 1494 397 1959 397 
Q 2419 397 2687 759 
Q 2956 1122 2956 1747 
Q 2956 2369 2687 2733 
Q 2419 3097 1959 3097 
z
M 1959 3584 
Q 2709 3584 3137 3096 
Q 3566 2609 3566 1747 
Q 3566 888 3137 398 
Q 2709 -91 1959 -91 
Q 1206 -91 779 398 
Q 353 888 353 1747 
Q 353 2609 779 3096 
Q 1206 3584 1959 3584 
z
" id="DejaVuSans-6f" transform="scale(0.015625)"/>
       <path d="M 3122 3366 
L 3122 2828 
Q 2878 2963 2633 3030 
Q 2388 3097 2138 3097 
Q 1578 3097 1268 2742 
Q 959 2388 959 1747 
Q 959 1106 1268 751 
Q 1578 397 2138 397 
Q 2388 397 2633 464 
Q 2878 531 3122 666 
L 3122 134 
Q 2881 22 2623 -34 
Q 2366 -91 2075 -91 
Q 1284 -91 818 406 
Q 353 903 353 1747 
Q 353 2603 823 3093 
Q 1294 3584 2113 3584 
Q 2378 3584 2631 3529 
Q 2884 3475 3122 3366 
z
" id="DejaVuSans-63" transform="scale(0.015625)"/>
       <path d="M 3513 2113 
L 3513 0 
L 2938 0 
L 2938 2094 
Q 2938 2591 2744 2837 
Q 2550 3084 2163 3084 
Q 1697 3084 1428 2787 
Q 1159 2491 1159 1978 
L 1159 0 
L 581 0 
L 581 4863 
L 1159 4863 
L 1159 2956 
Q 1366 3272 1645 3428 
Q 1925 3584 2291 3584 
Q 2894 3584 3203 3211 
Q 3513 2838 3513 2113 
z
" id="DejaVuSans-68" transform="scale(0.015625)"/>
      </defs>
      <use xlink:href="#DejaVuSans-45"/>
      <use x="63.183594" xlink:href="#DejaVuSans-70"/>
      <use x="126.660156" xlink:href="#DejaVuSans-6f"/>
      <use x="187.841797" xlink:href="#DejaVuSans-63"/>
      <use x="242.822266" xlink:href="#DejaVuSans-68"/>
     </g>
    </g>
   </g>
   <g id="matplotlib.axis_2">
    <g id="ytick_1">
     <g id="line2d_6">
      <defs>
       <path d="M 0 0 
L -3.5 0 
" id="m6dc59f88b4" style="stroke:#000000;stroke-width:0.8;"/>
      </defs>
      <g>
       <use style="stroke:#000000;stroke-width:0.8;" x="57.6" xlink:href="#m6dc59f88b4" y="283.618353"/>
      </g>
     </g>
     <g id="text_7">
      <!-- −1000 -->
      <g transform="translate(16.770313 287.417571)scale(0.1 -0.1)">
       <defs>
        <path d="M 678 2272 
L 4684 2272 
L 4684 1741 
L 678 1741 
L 678 2272 
z
" id="DejaVuSans-2212" transform="scale(0.015625)"/>
        <path d="M 794 531 
L 1825 531 
L 1825 4091 
L 703 3866 
L 703 4441 
L 1819 4666 
L 2450 4666 
L 2450 531 
L 3481 531 
L 3481 0 
L 794 0 
L 794 531 
z
" id="DejaVuSans-31" transform="scale(0.015625)"/>
       </defs>
       <use xlink:href="#DejaVuSans-2212"/>
       <use x="83.789062" xlink:href="#DejaVuSans-31"/>
       <use x="147.412109" xlink:href="#DejaVuSans-30"/>
       <use x="211.035156" xlink:href="#DejaVuSans-30"/>
       <use x="274.658203" xlink:href="#DejaVuSans-30"/>
      </g>
     </g>
    </g>
    <g id="ytick_2">
     <g id="line2d_7">
      <g>
       <use style="stroke:#000000;stroke-width:0.8;" x="57.6" xlink:href="#m6dc59f88b4" y="248.561941"/>
      </g>
     </g>
     <g id="text_8">
      <!-- −750 -->
      <g transform="translate(23.132812 252.36116)scale(0.1 -0.1)">
       <defs>
        <path d="M 525 4666 
L 3525 4666 
L 3525 4397 
L 1831 0 
L 1172 0 
L 2766 4134 
L 525 4134 
L 525 4666 
z
" id="DejaVuSans-37" transform="scale(0.015625)"/>
        <path d="M 691 4666 
L 3169 4666 
L 3169 4134 
L 1269 4134 
L 1269 2991 
Q 1406 3038 1543 3061 
Q 1681 3084 1819 3084 
Q 2600 3084 3056 2656 
Q 3513 2228 3513 1497 
Q 3513 744 3044 326 
Q 2575 -91 1722 -91 
Q 1428 -91 1123 -41 
Q 819 9 494 109 
L 494 744 
Q 775 591 1075 516 
Q 1375 441 1709 441 
Q 2250 441 2565 725 
Q 2881 1009 2881 1497 
Q 2881 1984 2565 2268 
Q 2250 2553 1709 2553 
Q 1456 2553 1204 2497 
Q 953 2441 691 2322 
L 691 4666 
z
" id="DejaVuSans-35" transform="scale(0.015625)"/>
       </defs>
       <use xlink:href="#DejaVuSans-2212"/>
       <use x="83.789062" xlink:href="#DejaVuSans-37"/>
       <use x="147.412109" xlink:href="#DejaVuSans-35"/>
       <use x="211.035156" xlink:href="#DejaVuSans-30"/>
      </g>
     </g>
    </g>
    <g id="ytick_3">
     <g id="line2d_8">
      <g>
       <use style="stroke:#000000;stroke-width:0.8;" x="57.6" xlink:href="#m6dc59f88b4" y="213.50553"/>
      </g>
     </g>
     <g id="text_9">
      <!-- −500 -->
      <g transform="translate(23.132812 217.304749)scale(0.1 -0.1)">
       <use xlink:href="#DejaVuSans-2212"/>
       <use x="83.789062" xlink:href="#DejaVuSans-35"/>
       <use x="147.412109" xlink:href="#DejaVuSans-30"/>
       <use x="211.035156" xlink:href="#DejaVuSans-30"/>
      </g>
     </g>
    </g>
    <g id="ytick_4">
     <g id="line2d_9">
      <g>
       <use style="stroke:#000000;stroke-width:0.8;" x="57.6" xlink:href="#m6dc59f88b4" y="178.449119"/>
      </g>
     </g>
     <g id="text_10">
      <!-- −250 -->
      <g transform="translate(23.132812 182.248338)scale(0.1 -0.1)">
       <use xlink:href="#DejaVuSans-2212"/>
       <use x="83.789062" xlink:href="#DejaVuSans-32"/>
       <use x="147.412109" xlink:href="#DejaVuSans-35"/>
       <use x="211.035156" xlink:href="#DejaVuSans-30"/>
      </g>
     </g>
    </g>
    <g id="ytick_5">
     <g id="line2d_10">
      <g>
       <use style="stroke:#000000;stroke-width:0.8;" x="57.6" xlink:href="#m6dc59f88b4" y="143.392708"/>
      </g>
     </g>
     <g id="text_11">
      <!-- 0 -->
      <g transform="translate(44.2375 147.191927)scale(0.1 -0.1)">
       <use xlink:href="#DejaVuSans-30"/>
      </g>
     </g>
    </g>
    <g id="ytick_6">
     <g id="line2d_11">
      <g>
       <use style="stroke:#000000;stroke-width:0.8;" x="57.6" xlink:href="#m6dc59f88b4" y="108.336297"/>
      </g>
     </g>
     <g id="text_12">
      <!-- 250 -->
      <g transform="translate(31.5125 112.135516)scale(0.1 -0.1)">
       <use xlink:href="#DejaVuSans-32"/>
       <use x="63.623047" xlink:href="#DejaVuSans-35"/>
       <use x="127.246094" xlink:href="#DejaVuSans-30"/>
      </g>
     </g>
    </g>
    <g id="ytick_7">
     <g id="line2d_12">
      <g>
       <use style="stroke:#000000;stroke-width:0.8;" x="57.6" xlink:href="#m6dc59f88b4" y="73.279886"/>
      </g>
     </g>
     <g id="text_13">
      <!-- 500 -->
      <g transform="translate(31.5125 77.079105)scale(0.1 -0.1)">
       <use xlink:href="#DejaVuSans-35"/>
       <use x="63.623047" xlink:href="#DejaVuSans-30"/>
       <use x="127.246094" xlink:href="#DejaVuSans-30"/>
      </g>
     </g>
    </g>
   </g>
   <g id="line2d_13">
    <path clip-path="url(#pf78047b8bb)" d="M 73.832727 149.196047 
L 74.210672 180.707914 
L 74.588617 190.789855 
L 74.966562 193.546218 
L 75.344506 202.946288 
L 76.478341 214.516891 
L 76.856285 221.646672 
L 77.23423 222.606413 
L 77.99012 209.313717 
L 78.368064 223.739959 
L 78.746009 222.889027 
L 79.123954 226.988824 
L 79.501899 229.613514 
L 79.879843 234.006636 
L 80.257788 228.761455 
L 81.013678 236.407848 
L 81.391622 238.853149 
L 81.769567 240.10285 
L 82.147512 238.156867 
L 82.525457 241.621845 
L 82.903401 241.480749 
L 83.281346 239.496499 
L 83.659291 248.737006 
L 84.037236 242.582195 
L 84.41518 247.997386 
L 84.793125 236.346238 
L 85.17107 249.638301 
L 85.549015 248.841353 
L 85.926959 247.293502 
L 86.304904 234.5545 
L 86.682849 246.586442 
L 87.060794 248.765744 
L 87.438738 243.090321 
L 87.816683 244.073927 
L 88.194628 254.95521 
L 88.572573 252.770983 
L 88.950518 258.250523 
L 89.328462 252.308333 
L 89.706407 252.807952 
L 90.084352 246.894121 
L 90.462297 252.336977 
L 91.218186 257.926065 
L 91.596131 253.723069 
L 91.974076 256.580432 
L 92.35202 256.858588 
L 93.10791 249.4912 
L 93.485855 259.585509 
L 93.863799 255.695612 
L 94.241744 255.610374 
L 94.619689 257.480405 
L 94.997634 257.976347 
L 95.375578 255.982094 
L 95.753523 264.570076 
L 96.131468 255.447429 
L 96.509413 254.97079 
L 96.887357 256.73441 
L 97.265302 255.634004 
L 97.643247 260.910758 
L 98.021192 258.253329 
L 98.399136 257.784007 
L 98.777081 262.018158 
L 99.155026 258.081221 
L 99.532971 264.706 
L 99.910915 258.324406 
L 100.28886 257.00042 
L 100.666805 254.80003 
L 101.04475 269.08869 
L 101.422694 264.581905 
L 101.800639 264.984384 
L 102.178584 257.248442 
L 102.556529 271.824074 
L 102.934473 262.176918 
L 103.312418 263.513569 
L 103.690363 260.425718 
L 104.068308 261.592429 
L 104.446253 260.941293 
L 104.824197 259.427693 
L 105.202142 257.029382 
L 105.580087 265.786525 
L 105.958032 268.150446 
L 106.335976 262.622698 
L 106.713921 265.589361 
L 107.091866 263.567862 
L 107.469811 260.64804 
L 107.847755 266.56551 
L 108.2257 264.405854 
L 108.603645 259.428676 
L 108.98159 265.192593 
L 109.359534 265.594017 
L 109.737479 261.091688 
L 110.115424 259.620203 
L 110.871313 268.25246 
L 111.249258 265.262586 
L 111.627203 260.666743 
L 112.005148 270.152556 
L 112.383092 268.973472 
L 112.761037 265.144764 
L 113.138982 268.2917 
L 113.516927 266.56013 
L 113.894871 269.878814 
L 114.272816 267.242586 
L 114.650761 258.902002 
L 115.028706 268.968764 
L 115.40665 267.774525 
L 115.784595 274.443041 
L 116.16254 269.232643 
L 116.540485 270.800256 
L 116.918429 268.757387 
L 117.296374 267.738202 
L 117.674319 265.066104 
L 118.052264 263.27929 
L 118.430208 272.585783 
L 118.808153 270.148469 
L 119.564043 262.160914 
L 120.697877 270.281201 
L 121.075822 262.959036 
L 121.453767 270.890329 
L 121.831711 271.431133 
L 122.209656 270.129441 
L 122.587601 261.863644 
L 122.965546 270.047726 
L 123.34349 266.915958 
L 123.721435 267.350384 
L 124.09938 267.275913 
L 124.477325 268.49112 
L 124.855269 274.039593 
L 125.233214 267.365107 
L 125.611159 272.228785 
L 125.989104 266.420618 
L 126.367048 273.714418 
L 127.122938 258.840907 
L 127.878827 269.505513 
L 128.256772 265.242132 
L 128.634717 269.965935 
L 129.012662 261.488393 
L 129.390606 266.154681 
L 129.768551 268.244877 
L 130.146496 267.235693 
L 130.524441 269.461863 
L 130.902385 264.56262 
L 131.658275 274.725802 
L 132.03622 273.288363 
L 132.414164 274.737073 
L 132.792109 269.545514 
L 133.170054 266.544866 
L 133.547999 268.783288 
L 133.925943 273.292527 
L 134.303888 269.996487 
L 134.681833 268.435987 
L 135.059778 276.104799 
L 135.437723 264.380532 
L 136.193612 274.477101 
L 136.571557 273.92664 
L 137.327446 267.578865 
L 137.705391 263.008579 
L 138.083336 273.685246 
L 138.461281 271.563733 
L 138.839225 273.067436 
L 139.21717 267.478802 
L 139.595115 272.734431 
L 139.97306 273.305125 
L 140.351004 275.509701 
L 140.728949 266.330992 
L 141.106894 267.66858 
L 141.484839 266.119872 
L 141.862783 272.78805 
L 142.240728 268.274525 
L 142.618673 272.324634 
L 142.996618 272.593328 
L 143.374562 278.693735 
L 143.752507 273.950686 
L 144.130452 267.689467 
L 144.886341 276.555239 
L 145.264286 269.601667 
L 145.642231 264.740385 
L 146.020176 271.253234 
L 146.39812 270.839933 
L 146.776065 272.908165 
L 147.15401 268.887744 
L 147.531955 270.554699 
L 147.909899 273.108247 
L 148.287844 272.409397 
L 148.665789 273.651103 
L 149.043734 269.352023 
L 149.799623 272.178857 
L 150.177568 266.629194 
L 150.555513 279.007647 
L 150.933458 269.685282 
L 151.311402 276.177707 
L 151.689347 270.97595 
L 152.067292 273.230928 
L 152.445237 267.027978 
L 152.823181 276.336057 
L 153.201126 272.770868 
L 153.579071 272.330756 
L 153.957016 275.133069 
L 154.33496 273.415055 
L 154.712905 276.833253 
L 155.09085 273.093659 
L 155.468795 274.948568 
L 155.846739 274.784976 
L 156.224684 277.403627 
L 156.602629 273.369645 
L 157.358518 279.944424 
L 157.736463 271.959301 
L 158.114408 274.208505 
L 158.492353 268.649756 
L 158.870297 271.442939 
L 159.248242 277.259876 
L 159.626187 272.283314 
L 160.004132 269.796205 
L 160.382076 277.629149 
L 160.760021 272.282018 
L 161.137966 272.495636 
L 161.515911 274.516295 
L 161.893855 273.638784 
L 162.2718 284.74735 
L 163.405634 273.52766 
L 163.783579 272.590369 
L 164.161524 277.645755 
L 164.539469 273.26244 
L 164.917413 270.831233 
L 165.295358 283.474047 
L 166.051248 268.274204 
L 166.429193 276.753336 
L 166.807137 269.844729 
L 167.185082 277.463687 
L 167.563027 276.847941 
L 167.940972 275.129579 
L 168.318916 280.933262 
L 169.452751 274.210004 
L 169.830695 275.020171 
L 170.20864 274.307841 
L 170.586585 276.402077 
L 170.96453 275.244368 
L 171.342474 276.100188 
L 171.720419 277.338917 
L 172.098364 269.912493 
L 172.476309 281.640379 
L 173.232198 275.702156 
L 173.610143 273.431839 
L 173.988088 274.209364 
L 174.366032 272.956503 
L 174.743977 277.718736 
L 175.121922 277.148087 
L 175.877811 274.733751 
L 176.255756 284.309601 
L 176.633701 274.83284 
L 177.011646 280.131132 
L 177.38959 279.491656 
L 177.767535 275.029948 
L 178.14548 279.436167 
L 178.523425 272.472898 
L 178.901369 275.921055 
L 179.279314 277.515246 
L 179.657259 280.460676 
L 180.035204 273.833481 
L 180.413148 281.438888 
L 180.791093 272.369958 
L 181.169038 274.075002 
L 181.546983 278.474594 
L 181.924928 275.117208 
L 182.302872 277.821692 
L 182.680817 276.106323 
L 183.058762 271.283309 
L 183.436707 272.532739 
L 183.814651 269.284002 
L 184.192596 270.165976 
L 184.570541 273.201513 
L 184.948486 271.755736 
L 185.32643 282.314509 
L 185.704375 279.432327 
L 186.08232 274.425328 
L 186.460265 272.654377 
L 186.838209 276.111012 
L 187.216154 280.707297 
L 187.594099 282.266574 
L 187.972044 279.944585 
L 188.349988 283.003742 
L 188.727933 277.189053 
L 189.105878 282.218745 
L 189.483823 277.465411 
L 189.861767 277.973688 
L 190.239712 281.424561 
L 190.995602 278.155624 
L 191.751491 276.452211 
L 192.129436 279.193442 
L 192.507381 272.772365 
L 192.885325 280.63718 
L 193.26327 270.567037 
L 193.641215 274.518527 
L 194.01916 284.889747 
L 194.397104 277.793185 
L 194.775049 280.9023 
L 195.530939 274.92478 
L 195.908883 278.667064 
L 196.286828 279.539335 
L 196.664773 283.382892 
L 197.420663 278.328623 
L 197.798607 283.627122 
L 198.176552 276.917422 
L 198.554497 282.872522 
L 198.932442 281.872006 
L 199.310386 281.749707 
L 199.688331 287.101226 
L 200.066276 281.091695 
L 200.444221 283.152462 
L 200.822165 279.598492 
L 201.20011 284.743372 
L 201.578055 282.579879 
L 201.956 275.775462 
L 202.333944 279.086019 
L 203.089834 280.270798 
L 203.467779 277.610326 
L 203.845723 284.041924 
L 204.223668 282.14729 
L 204.601613 282.975886 
L 204.979558 282.57893 
L 205.357502 287.784984 
L 205.735447 280.706312 
L 206.113392 280.067494 
L 206.491337 280.919409 
L 206.869281 282.937975 
L 207.247226 285.94948 
L 207.625171 285.568506 
L 208.003116 283.202083 
L 208.38106 282.137518 
L 208.759005 276.964737 
L 209.13695 284.696047 
L 209.514895 285.699065 
L 209.892839 275.06527 
L 210.270784 282.080499 
L 210.648729 283.92862 
L 211.026674 280.571202 
L 211.404618 283.98682 
L 211.782563 275.216288 
L 212.160508 283.937673 
L 212.538453 284.062881 
L 212.916398 283.236884 
L 213.294342 288.483141 
L 213.672287 283.497673 
L 214.050232 282.109725 
L 214.428177 272.679408 
L 214.806121 281.377099 
L 215.184066 287.321925 
L 215.562011 282.450585 
L 215.939956 279.201258 
L 216.3179 291.257686 
L 216.695845 278.630142 
L 217.07379 283.127169 
L 217.451735 282.390839 
L 217.829679 285.050987 
L 218.207624 279.280341 
L 218.585569 279.952402 
L 218.963514 289.36361 
L 219.341458 281.775306 
L 219.719403 288.086058 
L 220.853237 280.693225 
L 221.231182 288.926668 
L 221.609127 284.069192 
L 221.987072 284.765638 
L 222.365016 282.924322 
L 222.742961 278.62603 
L 223.120906 280.094055 
L 223.876795 288.642502 
L 224.25474 284.402892 
L 225.388574 281.955269 
L 225.766519 277.852238 
L 226.144464 289.231589 
L 226.522409 282.036456 
L 226.900353 287.074303 
L 227.278298 286.557987 
L 227.656243 281.487572 
L 228.034188 282.644247 
L 228.412133 287.598532 
L 228.790077 279.136948 
L 229.168022 283.699025 
L 229.545967 284.451917 
L 229.923912 283.061657 
L 230.301856 278.094437 
L 230.679801 287.78561 
L 231.057746 292.598925 
L 231.435691 280.293711 
L 231.813635 285.27117 
L 232.19158 279.59077 
L 232.569525 285.365937 
L 232.94747 287.228784 
L 233.325414 285.076778 
L 233.703359 276.571862 
L 234.081304 283.503006 
L 234.459249 280.834463 
L 234.837193 289.247019 
L 235.215138 278.168561 
L 235.593083 275.644723 
L 235.971028 283.921754 
L 236.348972 288.357042 
L 236.726917 284.780957 
L 237.104862 285.379997 
L 237.482807 284.25338 
L 237.860751 288.271265 
L 238.616641 291.699177 
L 238.994586 289.833705 
L 239.37253 282.646567 
L 239.750475 288.107136 
L 240.12842 284.840706 
L 240.506365 286.858489 
L 241.262254 280.585155 
L 241.640199 283.770589 
L 242.018144 283.028325 
L 242.396088 281.263992 
L 242.774033 285.097447 
L 243.151978 285.292444 
L 243.529923 281.105735 
L 243.907867 280.541151 
L 244.285812 281.237297 
L 244.663757 283.772448 
L 245.041702 287.807113 
L 245.419647 281.295987 
L 245.797591 280.718749 
L 246.175536 283.178901 
L 246.553481 284.51315 
L 246.931426 284.421727 
L 247.30937 281.713186 
L 247.687315 280.448914 
L 248.06526 287.64726 
L 248.443205 286.78133 
L 249.199094 281.567041 
L 249.577039 283.044259 
L 249.954984 285.90116 
L 250.332928 283.510477 
L 250.710873 285.895765 
L 251.088818 293.980384 
L 251.466763 282.889681 
L 251.844707 284.294369 
L 252.222652 286.206397 
L 252.600597 281.453448 
L 252.978542 281.788249 
L 253.356486 282.906496 
L 253.734431 287.074232 
L 254.112376 288.082052 
L 254.490321 283.095562 
L 254.868265 284.302526 
L 255.24621 277.186624 
L 255.624155 286.276814 
L 256.0021 283.37894 
L 256.380044 285.04093 
L 256.757989 283.470292 
L 257.135934 285.333123 
L 257.513879 295.488 
L 257.891823 285.687368 
L 258.269768 291.6467 
L 258.647713 280.943919 
L 259.025658 287.709998 
L 259.403602 289.859828 
L 259.781547 281.865225 
L 260.159492 282.270541 
L 260.537437 282.988266 
L 261.293326 286.939673 
L 261.671271 279.650063 
L 262.049216 282.945814 
L 262.427161 282.194395 
L 262.805105 285.199301 
L 263.18305 285.919723 
L 263.560995 287.043365 
L 263.93894 293.639292 
L 264.316884 277.514271 
L 264.694829 284.954797 
L 265.072774 279.518067 
L 265.450719 277.728742 
L 265.828663 285.055044 
L 266.206608 289.047397 
L 266.584553 285.454756 
L 266.962498 291.058063 
L 267.340442 288.456049 
L 267.718387 289.622485 
L 268.096332 284.621571 
L 268.474277 281.812663 
L 269.608111 285.565865 
L 269.986056 277.905134 
L 270.364 288.108989 
L 270.741945 286.360227 
L 271.11989 286.618412 
L 271.497835 289.431932 
L 271.875779 293.755852 
L 272.253724 282.864791 
L 272.631669 284.354644 
L 273.009614 285.353428 
L 273.387558 284.371154 
L 273.765503 289.332876 
L 274.143448 282.398316 
L 274.521393 290.333481 
L 274.899337 284.561795 
L 275.277282 283.79929 
L 275.655227 284.887396 
L 276.033172 287.252979 
L 276.411117 283.073841 
L 276.789061 290.711149 
L 277.167006 283.604135 
L 277.544951 288.422715 
L 277.922896 283.387868 
L 278.30084 287.613152 
L 278.678785 283.72303 
L 279.05673 286.997366 
L 279.434675 283.156107 
L 279.812619 289.255209 
L 280.190564 282.983624 
L 280.568509 285.206814 
L 280.946454 286.560438 
L 281.324398 289.819071 
L 281.702343 284.832855 
L 282.080288 284.608701 
L 282.458233 283.189932 
L 282.836177 284.770277 
L 283.214122 283.116339 
L 283.592067 291.15969 
L 283.970012 284.614154 
L 284.347956 276.071904 
L 284.725901 287.432503 
L 285.103846 284.361544 
L 285.481791 283.563978 
L 285.859735 287.422225 
L 286.23768 287.241183 
L 286.615625 287.387862 
L 286.99357 286.188083 
L 287.371514 289.224962 
L 287.749459 284.423095 
L 288.127404 284.565304 
L 288.505349 293.237167 
L 288.883293 287.817512 
L 289.261238 284.202333 
L 289.639183 285.72408 
L 290.017128 288.203476 
L 290.395072 285.532885 
L 290.773017 284.379461 
L 291.150962 287.492014 
L 291.528907 287.786908 
L 291.906852 287.014927 
L 292.284796 287.211825 
L 292.662741 287.097351 
L 293.040686 285.130403 
L 293.418631 289.98807 
L 293.796575 285.682359 
L 294.17452 285.210961 
L 294.552465 279.573254 
L 294.93041 288.297085 
L 295.308354 291.035248 
L 295.686299 285.547461 
L 296.064244 285.069747 
L 296.442189 288.289566 
L 296.820133 279.442533 
L 297.198078 283.298747 
L 297.576023 289.996338 
L 297.953968 288.400011 
L 298.331912 288.726388 
L 298.709857 283.470731 
L 299.087802 282.480592 
L 299.465747 275.683145 
L 299.843691 284.448163 
L 300.221636 288.284118 
L 300.599581 288.767281 
L 300.977526 279.059394 
L 301.35547 281.996695 
L 301.733415 286.097282 
L 302.11136 288.660652 
L 302.489305 293.711314 
L 303.245194 285.351118 
L 303.623139 284.243547 
L 304.001084 288.69937 
L 304.379028 290.485518 
L 304.756973 287.924763 
L 305.134918 291.157411 
L 305.512863 286.197813 
L 305.890807 286.009345 
L 306.268752 280.349573 
L 306.646697 289.09949 
L 307.024642 286.955348 
L 307.402587 286.104237 
L 307.780531 288.656462 
L 308.158476 277.739714 
L 308.536421 284.904041 
L 308.914366 286.521132 
L 309.29231 283.464612 
L 309.670255 291.827113 
L 310.0482 294.217837 
L 310.426145 284.443526 
L 310.804089 283.5922 
L 311.182034 281.93114 
L 311.559979 286.746402 
L 311.937924 285.360398 
L 312.315868 282.3564 
L 312.693813 288.714595 
L 313.071758 287.380316 
L 313.449703 290.995923 
L 313.827647 285.94137 
L 314.205592 286.045915 
L 314.583537 285.670047 
L 314.961482 285.063868 
L 315.339426 288.459027 
L 315.717371 289.780819 
L 316.095316 281.421342 
L 316.473261 290.586789 
L 316.851205 287.996653 
L 317.22915 289.577111 
L 317.607095 285.661418 
L 317.98504 280.53554 
L 318.362984 288.887792 
L 318.740929 292.320277 
L 319.118874 283.084251 
L 319.496819 288.228487 
L 319.874763 282.749997 
L 320.252708 284.630755 
L 320.630653 287.476435 
L 321.008598 288.093909 
L 321.386542 290.678547 
L 321.764487 275.273012 
L 322.142432 279.898458 
L 322.520377 286.098268 
L 322.898322 286.239567 
L 323.276266 285.889648 
L 323.654211 283.36039 
L 324.032156 288.917174 
L 324.410101 276.891598 
L 324.788045 288.985204 
L 325.16599 285.226458 
L 325.543935 277.552963 
L 325.92188 287.861323 
L 326.299824 282.869731 
L 326.677769 280.312232 
L 327.055714 284.206771 
L 327.433659 285.800374 
L 327.811603 285.797041 
L 328.189548 282.29908 
L 328.567493 290.374941 
L 328.945438 282.407176 
L 329.323382 288.745486 
L 329.701327 283.758684 
L 330.079272 287.934356 
L 330.457217 286.495105 
L 330.835161 289.283755 
L 331.213106 285.940839 
L 331.591051 289.475756 
L 331.968996 289.534522 
L 332.34694 288.949752 
L 332.724885 279.728053 
L 333.10283 285.432392 
L 333.480775 283.326941 
L 333.858719 290.273852 
L 334.236664 283.581049 
L 334.614609 289.074862 
L 334.992554 287.50504 
L 335.370498 285.076282 
L 335.748443 280.730697 
L 336.126388 281.512799 
L 336.504333 289.343768 
L 336.882277 286.574689 
L 337.260222 281.221664 
L 337.638167 293.286394 
L 338.016112 279.935727 
L 338.394057 286.695921 
L 338.772001 288.837752 
L 339.149946 294.315052 
L 339.527891 279.798647 
L 339.905836 293.419339 
L 340.28378 283.97751 
L 340.661725 289.28778 
L 341.03967 287.070405 
L 341.417615 286.31678 
L 341.795559 289.536183 
L 342.173504 286.785317 
L 342.551449 286.623711 
L 342.929394 278.744291 
L 343.307338 289.876292 
L 343.685283 280.38868 
L 344.063228 287.187047 
L 344.441173 280.009965 
L 345.197062 286.098674 
L 345.575007 284.687336 
L 345.952952 282.69736 
L 346.330896 287.502903 
L 346.708841 288.274843 
L 347.086786 291.666302 
L 347.464731 290.136296 
L 347.842675 285.427099 
L 348.22062 289.38829 
L 348.598565 285.926744 
L 348.97651 294.869707 
L 349.354454 284.079185 
L 349.732399 283.99201 
L 350.110344 278.83827 
L 350.488289 287.124255 
L 350.866233 281.077762 
L 351.622123 291.390548 
L 352.000068 286.865012 
L 352.378012 285.981458 
L 352.755957 289.544132 
L 353.133902 283.552914 
L 353.511847 282.70827 
L 353.889792 284.066253 
L 354.267736 288.062108 
L 354.645681 281.396867 
L 355.023626 286.094972 
L 355.401571 279.693548 
L 355.779515 289.414348 
L 356.15746 287.021554 
L 356.535405 286.453013 
L 356.91335 292.07856 
L 357.291294 289.693588 
L 357.669239 284.761904 
L 358.047184 289.444309 
L 358.425129 291.801878 
L 358.803073 290.927818 
L 359.181018 291.545345 
L 359.558963 283.63479 
L 359.936908 284.050474 
L 360.314852 292.389394 
L 360.692797 290.371835 
L 361.070742 291.65463 
L 361.448687 282.375518 
L 361.826631 292.58546 
L 362.204576 293.843723 
L 362.582521 278.850363 
L 362.960466 292.432059 
L 363.33841 288.970553 
L 363.716355 280.886029 
L 364.0943 289.136465 
L 364.472245 283.027934 
L 364.850189 290.888842 
L 365.228134 285.864012 
L 365.606079 283.124645 
L 365.984024 282.640519 
L 366.361968 291.330625 
L 366.739913 291.290203 
L 367.117858 290.966407 
L 367.495803 291.846246 
L 367.873747 287.699087 
L 368.251692 290.880916 
L 368.629637 281.097511 
L 369.007582 287.371263 
L 369.385527 285.493273 
L 369.763471 284.904311 
L 370.141416 282.816122 
L 370.519361 285.878057 
L 370.897306 291.518848 
L 371.27525 288.039088 
L 371.653195 286.256099 
L 372.03114 286.638236 
L 372.409085 289.251312 
L 372.787029 295.393291 
L 373.542919 289.81168 
L 373.920864 287.913387 
L 374.298808 283.032302 
L 374.676753 290.711869 
L 375.054698 284.979318 
L 375.432643 286.030906 
L 375.810587 285.282462 
L 376.188532 290.795744 
L 376.566477 288.017158 
L 376.944422 291.750993 
L 377.322366 289.646306 
L 377.700311 285.828431 
L 378.078256 294.665726 
L 378.456201 289.087382 
L 378.834145 285.714599 
L 379.21209 289.095013 
L 379.590035 284.429715 
L 379.96798 287.468118 
L 380.345924 293.783573 
L 380.723869 287.745372 
L 381.101814 286.430544 
L 381.479759 281.045053 
L 381.857703 288.866695 
L 382.235648 276.388125 
L 382.613593 279.520966 
L 382.991538 289.743558 
L 383.369482 291.225956 
L 383.747427 287.809744 
L 384.125372 286.723066 
L 384.503317 288.980499 
L 385.259206 285.414219 
L 385.637151 284.665343 
L 386.393041 287.347695 
L 386.770985 289.268711 
L 387.14893 285.975307 
L 387.526875 284.919279 
L 387.90482 283.200125 
L 388.282764 290.11509 
L 388.660709 287.846273 
L 389.038654 288.044271 
L 389.794543 285.407506 
L 390.172488 291.924616 
L 390.550433 283.505848 
L 390.928378 288.871221 
L 391.306322 286.624949 
L 391.684267 288.696014 
L 392.062212 288.076625 
L 392.440157 288.514045 
L 392.818101 289.480211 
L 393.196046 289.924957 
L 393.573991 287.045391 
L 394.32988 289.904672 
L 394.707825 285.594102 
L 395.08577 283.894579 
L 395.463715 287.023409 
L 395.841659 284.922988 
L 396.219604 287.71619 
L 396.597549 284.718088 
L 396.975494 287.654887 
L 397.353438 288.581208 
L 397.731383 281.437371 
L 398.109328 288.79655 
L 398.487273 288.390497 
L 398.487273 288.390497 
" style="fill:none;stroke:#1f77b4;stroke-linecap:square;stroke-width:1.5;"/>
   </g>
   <g id="line2d_14">
    <path clip-path="url(#pf78047b8bb)" d="M 73.832727 180.510722 
L 74.210672 183.577217 
L 74.588617 199.122129 
L 74.966562 200.286363 
L 75.344506 206.628685 
L 75.722451 208.818652 
L 76.100396 219.870146 
L 76.478341 217.054649 
L 77.23423 221.850388 
L 77.612175 77.0109 
L 77.99012 222.101662 
L 78.368064 231.418326 
L 78.746009 229.099584 
L 79.123954 227.992484 
L 79.879843 233.922464 
L 80.257788 235.737112 
L 80.635733 235.065988 
L 81.013678 236.394233 
L 81.769567 244.67128 
L 82.147512 245.416272 
L 82.525457 241.386882 
L 82.903401 232.580807 
L 83.281346 248.939411 
L 83.659291 242.742283 
L 84.037236 244.2402 
L 84.41518 243.019088 
L 84.793125 241.132474 
L 85.17107 247.251518 
L 85.549015 245.113108 
L 85.926959 53.568 
L 86.304904 250.054293 
L 86.682849 250.909851 
L 87.060794 249.752028 
L 87.438738 246.945107 
L 88.194628 254.49106 
L 88.572573 250.444668 
L 88.950518 255.088019 
L 89.328462 254.490502 
L 89.706407 253.363587 
L 90.084352 249.851187 
L 90.462297 254.350287 
L 90.840241 253.472743 
L 91.218186 254.295293 
L 91.596131 254.380694 
L 91.974076 253.95859 
L 92.35202 251.672554 
L 92.729965 257.492594 
L 93.10791 258.411978 
L 93.485855 261.096216 
L 93.863799 256.439341 
L 94.241744 261.754574 
L 94.619689 261.917941 
L 94.997634 260.669729 
L 95.375578 256.07999 
L 95.753523 259.025559 
L 96.509413 256.413371 
L 96.887357 257.419148 
L 97.265302 251.623078 
L 97.643247 254.670527 
L 98.021192 259.108082 
L 98.399136 256.763079 
L 98.777081 257.702197 
L 99.155026 261.699774 
L 99.532971 262.572955 
L 99.910915 262.306773 
L 100.28886 260.563261 
L 100.666805 257.848541 
L 101.04475 261.916395 
L 101.422694 254.500247 
L 101.800639 261.524823 
L 102.178584 262.016145 
L 102.556529 265.487216 
L 102.934473 261.281947 
L 103.312418 264.32068 
L 103.690363 262.82715 
L 104.068308 257.512927 
L 104.446253 266.325771 
L 104.824197 263.05067 
L 105.202142 262.611472 
L 105.580087 259.318252 
L 106.335976 262.327847 
L 106.713921 254.628452 
L 107.091866 264.289049 
L 107.469811 264.229624 
L 107.847755 258.212429 
L 108.2257 264.558863 
L 108.603645 259.192746 
L 109.359534 267.052986 
L 109.737479 267.660775 
L 110.115424 261.825474 
L 110.493369 265.474723 
L 110.871313 266.212831 
L 111.249258 261.779295 
L 111.627203 261.414872 
L 112.005148 262.889135 
L 112.383092 265.748433 
L 112.761037 262.833942 
L 113.138982 262.66643 
L 113.516927 264.639268 
L 113.894871 265.027699 
L 114.272816 265.076952 
L 114.650761 269.16412 
L 115.028706 268.985009 
L 115.40665 266.598164 
L 115.784595 260.36384 
L 116.16254 265.438522 
L 116.540485 265.164518 
L 116.918429 264.176399 
L 117.296374 264.497719 
L 117.674319 263.081004 
L 118.052264 266.454815 
L 118.430208 265.837085 
L 118.808153 264.052072 
L 119.186098 265.937594 
L 119.564043 266.18843 
L 120.319932 271.626855 
L 120.697877 266.47636 
L 121.075822 267.33933 
L 121.453767 270.078548 
L 121.831711 266.417981 
L 122.209656 268.187433 
L 122.587601 263.274802 
L 122.965546 269.351582 
L 123.34349 265.59174 
L 123.721435 263.598365 
L 124.09938 259.901395 
L 124.477325 269.469015 
L 124.855269 265.392758 
L 125.611159 268.77097 
L 125.989104 265.775008 
L 126.367048 265.250733 
L 127.122938 271.121473 
L 127.500883 269.935358 
L 127.878827 265.317356 
L 128.256772 265.94419 
L 128.634717 265.573486 
L 129.012662 267.782225 
L 129.390606 266.993305 
L 129.768551 271.268506 
L 130.146496 270.576719 
L 130.524441 270.846141 
L 130.902385 268.59231 
L 131.28033 262.574055 
L 131.658275 265.775678 
L 132.03622 267.853267 
L 132.414164 271.615811 
L 132.792109 270.194821 
L 133.170054 272.88327 
L 133.547999 266.473058 
L 133.925943 267.785746 
L 134.303888 274.118992 
L 134.681833 268.730385 
L 135.059778 270.662859 
L 135.437723 266.09794 
L 135.815667 266.410541 
L 136.193612 271.745397 
L 136.571557 275.098829 
L 137.327446 264.731941 
L 137.705391 266.910752 
L 138.083336 270.076907 
L 138.461281 268.376809 
L 138.839225 266.003149 
L 139.21717 268.495844 
L 139.595115 266.129246 
L 140.351004 271.850885 
L 140.728949 271.120558 
L 141.106894 271.502046 
L 141.484839 263.935119 
L 141.862783 265.625259 
L 142.240728 268.239144 
L 142.618673 274.070927 
L 142.996618 274.901645 
L 143.374562 273.706683 
L 143.752507 273.165104 
L 144.130452 271.654989 
L 144.508397 268.713073 
L 144.886341 276.134819 
L 145.642231 266.821416 
L 146.020176 271.453452 
L 146.39812 269.906135 
L 146.776065 272.397914 
L 147.15401 269.411896 
L 147.531955 271.309918 
L 147.909899 272.320113 
L 148.287844 271.508016 
L 148.665789 269.971885 
L 149.043734 272.497073 
L 149.421678 269.039968 
L 149.799623 264.221768 
L 150.177568 274.706147 
L 150.555513 274.611965 
L 150.933458 270.588588 
L 151.311402 271.559603 
L 151.689347 269.905516 
L 152.445237 274.750715 
L 152.823181 274.946185 
L 153.201126 270.302323 
L 153.579071 269.542575 
L 153.957016 272.141926 
L 154.33496 272.612886 
L 154.712905 270.301315 
L 155.09085 274.620497 
L 155.468795 275.373112 
L 155.846739 272.723451 
L 156.224684 278.360708 
L 156.602629 271.302873 
L 156.980574 272.379333 
L 157.358518 271.480515 
L 157.736463 270.919701 
L 158.114408 271.597349 
L 158.492353 267.432276 
L 158.870297 276.787389 
L 159.248242 275.145228 
L 159.626187 276.247905 
L 160.004132 272.140054 
L 160.382076 271.964654 
L 160.760021 266.901317 
L 161.137966 269.129714 
L 161.515911 268.919549 
L 161.893855 271.333931 
L 162.2718 268.754322 
L 162.649745 275.845573 
L 163.02769 272.678942 
L 163.405634 276.819413 
L 163.783579 267.315471 
L 164.161524 276.022844 
L 164.539469 272.247705 
L 164.917413 278.24621 
L 165.295358 273.847956 
L 165.673303 271.187742 
L 166.051248 278.408122 
L 166.429193 274.523547 
L 166.807137 273.07157 
L 167.185082 274.048808 
L 167.563027 280.443947 
L 167.940972 277.705172 
L 168.318916 271.870784 
L 168.696861 272.198535 
L 169.074806 269.033447 
L 169.830695 275.040983 
L 170.586585 272.943029 
L 170.96453 272.445935 
L 171.342474 271.207647 
L 171.720419 272.905317 
L 172.098364 273.591807 
L 172.476309 273.733978 
L 172.854253 271.443445 
L 173.232198 274.292972 
L 173.610143 273.912163 
L 173.988088 275.098868 
L 174.366032 273.433902 
L 174.743977 275.42469 
L 175.121922 276.053971 
L 175.499867 274.48621 
L 175.877811 273.477604 
L 177.011646 272.924718 
L 177.38959 276.693009 
L 177.767535 271.086928 
L 178.14548 273.717218 
L 178.523425 275.086785 
L 178.901369 272.191532 
L 179.279314 275.228705 
L 179.657259 269.352991 
L 180.035204 273.204232 
L 180.413148 269.504064 
L 180.791093 274.95157 
L 181.169038 273.77016 
L 181.546983 273.936941 
L 181.924928 269.125565 
L 182.302872 277.810132 
L 182.680817 273.347889 
L 183.436707 275.020387 
L 183.814651 279.313188 
L 184.192596 278.330986 
L 184.570541 274.325791 
L 184.948486 276.759016 
L 185.32643 281.046313 
L 185.704375 272.85535 
L 186.08232 278.420357 
L 186.460265 276.284775 
L 187.216154 281.641693 
L 187.594099 276.966395 
L 187.972044 279.338204 
L 188.349988 272.706159 
L 188.727933 281.550273 
L 189.105878 278.907636 
L 189.483823 269.262316 
L 190.239712 277.952928 
L 190.617657 277.309981 
L 190.995602 277.050742 
L 191.373546 276.045183 
L 191.751491 278.964336 
L 192.129436 276.095118 
L 192.507381 281.128708 
L 192.885325 273.935419 
L 193.641215 279.812168 
L 194.01916 278.077503 
L 194.397104 279.943418 
L 194.775049 279.944709 
L 195.152994 273.570344 
L 195.908883 280.341038 
L 196.286828 277.995598 
L 196.664773 276.417602 
L 197.042718 278.581701 
L 197.420663 276.094163 
L 197.798607 278.763086 
L 198.176552 278.414625 
L 198.554497 278.837561 
L 198.932442 280.11256 
L 199.688331 277.910975 
L 200.066276 274.80348 
L 200.444221 279.549021 
L 200.822165 279.091587 
L 201.20011 275.874663 
L 201.578055 274.132296 
L 202.333944 284.059284 
L 202.711889 276.36546 
L 203.089834 276.723656 
L 203.467779 283.333899 
L 203.845723 271.759314 
L 204.223668 281.130764 
L 204.601613 280.07219 
L 204.979558 279.685026 
L 205.357502 281.138354 
L 205.735447 279.491988 
L 206.113392 279.332147 
L 206.491337 276.859634 
L 206.869281 278.431609 
L 207.247226 284.729692 
L 207.625171 280.326841 
L 208.003116 281.284455 
L 208.38106 272.040016 
L 208.759005 279.081335 
L 209.13695 280.637014 
L 209.514895 280.385419 
L 209.892839 278.466246 
L 210.270784 282.122066 
L 210.648729 277.814255 
L 211.026674 276.105336 
L 211.404618 278.541834 
L 211.782563 279.188475 
L 212.160508 286.361243 
L 212.538453 280.072371 
L 212.916398 281.297521 
L 213.294342 280.913752 
L 213.672287 278.010521 
L 214.050232 280.369068 
L 214.428177 285.30605 
L 214.806121 281.171582 
L 215.184066 275.729788 
L 215.562011 281.646513 
L 216.3179 275.361874 
L 216.695845 279.154071 
L 217.07379 275.876357 
L 217.451735 273.909178 
L 217.829679 278.660213 
L 218.207624 276.704192 
L 218.585569 278.967917 
L 218.963514 277.693403 
L 219.341458 282.397406 
L 219.719403 272.700132 
L 220.097348 276.134116 
L 220.475293 278.397978 
L 220.853237 278.855912 
L 221.231182 277.515193 
L 221.609127 282.86355 
L 221.987072 281.791667 
L 222.365016 270.439723 
L 222.742961 283.881204 
L 223.120906 273.842471 
L 223.498851 281.62763 
L 224.25474 277.340721 
L 224.632685 282.175874 
L 225.01063 276.074226 
L 225.388574 272.908449 
L 225.766519 280.472678 
L 226.144464 274.602555 
L 226.522409 277.72767 
L 226.900353 278.736795 
L 227.656243 284.610928 
L 228.034188 280.835232 
L 228.412133 278.619939 
L 228.790077 277.9239 
L 229.168022 280.334318 
L 229.545967 284.403054 
L 229.923912 282.737435 
L 230.301856 282.86091 
L 230.679801 274.600498 
L 231.057746 280.288878 
L 231.435691 280.884583 
L 231.813635 283.311579 
L 232.19158 276.658325 
L 232.569525 283.110803 
L 232.94747 284.628362 
L 233.703359 275.587234 
L 234.081304 281.127869 
L 234.459249 280.04118 
L 234.837193 277.88296 
L 235.215138 278.959645 
L 235.593083 278.234945 
L 235.971028 281.434002 
L 236.348972 280.486713 
L 236.726917 280.44161 
L 237.482807 276.941468 
L 238.238696 283.556097 
L 238.616641 279.327586 
L 238.994586 280.803197 
L 239.37253 277.467303 
L 239.750475 277.643662 
L 240.12842 283.659644 
L 240.506365 283.104559 
L 240.884309 278.631426 
L 241.262254 281.313158 
L 241.640199 279.378695 
L 242.018144 278.077532 
L 242.396088 273.85216 
L 242.774033 282.426373 
L 243.151978 287.222583 
L 243.907867 277.244991 
L 244.285812 274.753652 
L 244.663757 273.207856 
L 245.041702 282.805255 
L 245.419647 284.958043 
L 245.797591 279.393405 
L 246.175536 282.89968 
L 246.553481 277.482015 
L 246.931426 278.798852 
L 247.30937 284.978625 
L 247.687315 279.757542 
L 248.06526 282.413494 
L 248.443205 283.28586 
L 248.821149 280.564666 
L 249.199094 278.825903 
L 249.577039 274.796501 
L 249.954984 274.876471 
L 251.088818 280.728015 
L 251.466763 281.392094 
L 251.844707 284.128872 
L 252.222652 279.986918 
L 252.600597 284.083533 
L 252.978542 286.265492 
L 253.356486 276.726253 
L 253.734431 281.658818 
L 254.112376 279.698151 
L 254.490321 280.600264 
L 254.868265 280.806465 
L 255.24621 281.672128 
L 255.624155 277.717595 
L 256.0021 278.354099 
L 256.380044 275.148699 
L 256.757989 282.106803 
L 257.135934 281.504247 
L 257.513879 281.823597 
L 257.891823 284.247604 
L 258.269768 281.950247 
L 258.647713 274.036375 
L 259.025658 276.627293 
L 259.403602 281.62259 
L 259.781547 279.962205 
L 260.159492 283.252556 
L 260.537437 281.128067 
L 260.915382 283.902133 
L 262.049216 281.219952 
L 262.427161 278.306393 
L 262.805105 276.528318 
L 263.18305 286.504703 
L 263.560995 284.03369 
L 263.93894 283.85846 
L 264.316884 277.452414 
L 264.694829 283.175935 
L 265.072774 282.758829 
L 265.828663 285.839569 
L 266.206608 279.589916 
L 266.584553 282.890555 
L 266.962498 284.793097 
L 267.340442 282.293806 
L 267.718387 283.754597 
L 268.096332 284.342962 
L 268.474277 286.020998 
L 268.852221 284.87741 
L 269.230166 281.11855 
L 269.608111 275.732662 
L 269.986056 281.945632 
L 270.364 283.799499 
L 270.741945 280.918486 
L 271.11989 281.943036 
L 271.497835 282.098031 
L 271.875779 279.408793 
L 272.253724 283.072767 
L 272.631669 282.03035 
L 273.009614 280.547252 
L 273.387558 281.419106 
L 273.765503 279.344292 
L 274.143448 283.690868 
L 274.521393 282.964987 
L 274.899337 282.846246 
L 275.277282 288.082861 
L 275.655227 280.071593 
L 276.033172 279.359747 
L 276.411117 279.931204 
L 276.789061 278.176925 
L 277.167006 282.202213 
L 277.544951 282.064268 
L 277.922896 277.995368 
L 278.30084 280.741516 
L 278.678785 280.718973 
L 279.05673 284.283353 
L 279.434675 281.222478 
L 279.812619 274.68745 
L 280.190564 281.547251 
L 280.568509 284.568884 
L 280.946454 288.62033 
L 281.324398 280.555921 
L 281.702343 282.253391 
L 282.080288 281.532697 
L 282.458233 285.102519 
L 282.836177 282.530378 
L 283.214122 280.849258 
L 283.592067 280.827705 
L 283.970012 280.600353 
L 284.347956 262.558359 
L 284.725901 276.682761 
L 285.103846 278.397498 
L 285.481791 278.104473 
L 285.859735 281.578405 
L 286.23768 283.614508 
L 286.615625 278.387309 
L 286.99357 279.226889 
L 287.371514 280.948312 
L 287.749459 286.208032 
L 288.127404 281.38015 
L 288.505349 279.390573 
L 288.883293 276.674597 
L 289.261238 276.183654 
L 289.639183 267.685612 
L 290.017128 280.878068 
L 290.395072 280.153143 
L 290.773017 282.398105 
L 291.150962 281.10178 
L 291.528907 283.035551 
L 291.906852 279.97785 
L 292.284796 282.488359 
L 292.662741 283.056351 
L 293.040686 282.883111 
L 293.418631 284.072058 
L 293.796575 283.336841 
L 294.17452 277.480965 
L 294.552465 282.781803 
L 294.93041 279.530082 
L 295.308354 278.673874 
L 295.686299 276.308473 
L 296.442189 282.025418 
L 296.820133 280.105432 
L 297.198078 278.881327 
L 297.576023 282.38398 
L 297.953968 280.865077 
L 298.331912 284.029243 
L 298.709857 280.72873 
L 299.087802 279.208394 
L 299.465747 276.347261 
L 299.843691 281.427944 
L 300.221636 288.047976 
L 300.599581 281.224894 
L 300.977526 280.871119 
L 301.35547 280.316713 
L 301.733415 280.734641 
L 302.11136 277.794941 
L 302.489305 283.248714 
L 302.867249 283.097356 
L 303.245194 272.03076 
L 303.623139 282.263405 
L 304.756973 275.522969 
L 305.134918 281.370272 
L 305.512863 279.780622 
L 305.890807 279.099888 
L 306.268752 275.556948 
L 306.646697 277.971759 
L 307.024642 282.979602 
L 307.402587 285.235259 
L 308.158476 277.905973 
L 308.536421 287.302696 
L 308.914366 284.487861 
L 309.29231 277.47259 
L 309.670255 277.189856 
L 310.0482 279.976205 
L 310.426145 287.045214 
L 310.804089 283.016434 
L 311.182034 280.369311 
L 311.559979 280.324264 
L 311.937924 282.777748 
L 312.315868 282.519757 
L 312.693813 281.452286 
L 313.071758 276.663549 
L 313.449703 280.194151 
L 313.827647 284.913337 
L 314.205592 279.456146 
L 314.583537 281.433106 
L 314.961482 285.79492 
L 315.339426 272.73596 
L 315.717371 285.510806 
L 316.095316 282.252249 
L 316.473261 283.421574 
L 316.851205 282.113355 
L 317.22915 282.169021 
L 317.607095 279.863366 
L 317.98504 279.799034 
L 318.362984 281.348465 
L 318.740929 285.131017 
L 319.118874 282.320589 
L 319.496819 277.773011 
L 319.874763 282.766103 
L 320.252708 285.112632 
L 321.008598 280.646673 
L 321.386542 286.210003 
L 321.764487 277.89448 
L 322.142432 280.451094 
L 322.520377 279.516296 
L 322.898322 281.703208 
L 323.276266 282.911977 
L 323.654211 282.378562 
L 324.032156 284.165163 
L 324.410101 282.929796 
L 324.788045 282.539758 
L 325.16599 275.494679 
L 325.543935 281.066802 
L 325.92188 281.794423 
L 326.299824 283.013102 
L 326.677769 289.057016 
L 327.055714 277.600704 
L 327.433659 278.125657 
L 327.811603 277.518775 
L 328.567493 282.414738 
L 328.945438 281.085657 
L 329.323382 286.123714 
L 330.079272 278.090345 
L 330.457217 286.948165 
L 330.835161 279.42403 
L 331.213106 281.615462 
L 331.591051 276.729128 
L 331.968996 281.200699 
L 332.34694 282.005339 
L 332.724885 278.019498 
L 333.10283 279.844158 
L 333.480775 276.153528 
L 333.858719 280.761414 
L 334.236664 276.945516 
L 334.614609 276.493101 
L 334.992554 279.088971 
L 335.370498 277.453029 
L 335.748443 279.226677 
L 336.126388 273.633529 
L 336.504333 282.273726 
L 336.882277 283.25682 
L 337.260222 282.888171 
L 337.638167 278.809267 
L 338.016112 283.124271 
L 338.394057 280.160133 
L 338.772001 283.705 
L 339.149946 278.537617 
L 339.527891 282.463864 
L 339.905836 280.375296 
L 340.28378 282.453274 
L 340.661725 283.866941 
L 341.03967 279.922681 
L 341.417615 271.817869 
L 341.795559 281.811514 
L 342.173504 278.859163 
L 342.551449 285.756966 
L 342.929394 279.287182 
L 343.307338 275.757694 
L 343.685283 288.278922 
L 344.441173 283.105961 
L 344.819117 272.255256 
L 345.197062 280.167306 
L 345.575007 276.513479 
L 345.952952 279.179244 
L 346.330896 285.28062 
L 346.708841 279.015616 
L 347.086786 281.246954 
L 347.464731 282.18028 
L 347.842675 281.949231 
L 348.22062 279.781954 
L 348.598565 286.178952 
L 348.97651 280.259037 
L 349.354454 278.706344 
L 349.732399 282.575135 
L 350.110344 284.035672 
L 350.488289 284.03949 
L 350.866233 280.117094 
L 351.622123 285.27014 
L 352.000068 281.781428 
L 352.378012 288.195058 
L 352.755957 285.225075 
L 353.133902 280.079836 
L 353.511847 280.700823 
L 353.889792 280.98752 
L 354.645681 285.211128 
L 355.023626 280.223221 
L 355.401571 279.484692 
L 355.779515 287.837772 
L 356.15746 280.773137 
L 356.535405 276.653928 
L 356.91335 285.241569 
L 357.291294 284.671955 
L 357.669239 274.933479 
L 358.047184 283.729747 
L 358.425129 281.135852 
L 358.803073 282.376924 
L 359.181018 280.926353 
L 359.558963 282.170073 
L 359.936908 282.722717 
L 360.314852 283.826652 
L 360.692797 279.553978 
L 361.070742 278.610473 
L 361.448687 281.632184 
L 361.826631 282.230472 
L 362.204576 284.781342 
L 362.582521 282.091877 
L 362.960466 284.221607 
L 363.33841 275.079743 
L 363.716355 280.942532 
L 364.0943 282.405113 
L 364.472245 278.167239 
L 364.850189 284.757736 
L 365.228134 283.248585 
L 365.606079 280.69898 
L 365.984024 282.085817 
L 366.361968 277.91672 
L 366.739913 282.670701 
L 367.117858 281.963294 
L 367.495803 279.951437 
L 367.873747 281.010212 
L 368.251692 285.144728 
L 368.629637 282.845928 
L 369.007582 277.199816 
L 369.385527 280.422391 
L 369.763471 281.575844 
L 370.141416 279.542103 
L 370.519361 285.719246 
L 370.897306 281.273374 
L 371.27525 280.928143 
L 371.653195 279.750496 
L 372.03114 284.274729 
L 372.409085 278.881462 
L 372.787029 286.860006 
L 373.164974 281.621841 
L 373.920864 280.114757 
L 374.298808 282.027266 
L 374.676753 273.307228 
L 375.054698 285.580917 
L 375.432643 275.682802 
L 375.810587 285.562767 
L 376.188532 277.848921 
L 376.566477 285.378231 
L 376.944422 278.285239 
L 377.700311 285.614547 
L 378.078256 286.442591 
L 378.456201 282.243804 
L 379.21209 287.406476 
L 379.590035 280.230415 
L 379.96798 279.255872 
L 380.345924 273.594997 
L 380.723869 281.890813 
L 381.101814 278.794451 
L 381.479759 284.529041 
L 381.857703 281.72292 
L 382.235648 276.923989 
L 382.613593 279.230924 
L 382.991538 279.764416 
L 383.369482 277.959152 
L 383.747427 282.10924 
L 384.125372 282.370445 
L 384.503317 278.595011 
L 384.881262 281.347024 
L 385.259206 276.902574 
L 385.637151 275.049596 
L 386.015096 282.725125 
L 386.393041 275.210115 
L 386.770985 275.579884 
L 387.14893 282.407851 
L 387.526875 286.272832 
L 387.90482 281.129 
L 388.282764 285.200623 
L 388.660709 285.295178 
L 389.038654 286.09933 
L 389.416599 281.233708 
L 389.794543 281.821944 
L 390.172488 281.45663 
L 390.550433 283.262313 
L 390.928378 280.136412 
L 391.306322 278.69414 
L 391.684267 281.066338 
L 392.440157 273.159059 
L 392.818101 280.822665 
L 393.196046 283.092799 
L 393.573991 281.068865 
L 393.951936 274.354971 
L 394.707825 280.15024 
L 395.08577 281.482515 
L 395.463715 280.667253 
L 395.841659 280.685789 
L 396.219604 279.572027 
L 396.597549 281.479172 
L 396.975494 279.768842 
L 397.353438 284.062968 
L 397.731383 282.754637 
L 398.109328 283.924477 
L 398.487273 275.490304 
L 398.487273 275.490304 
" style="fill:none;stroke:#ff7f0e;stroke-linecap:square;stroke-width:1.5;"/>
   </g>
   <g id="patch_3">
    <path d="M 57.6 307.584 
L 57.6 41.472 
" style="fill:none;stroke:#000000;stroke-linecap:square;stroke-linejoin:miter;stroke-width:0.8;"/>
   </g>
   <g id="patch_4">
    <path d="M 414.72 307.584 
L 414.72 41.472 
" style="fill:none;stroke:#000000;stroke-linecap:square;stroke-linejoin:miter;stroke-width:0.8;"/>
   </g>
   <g id="patch_5">
    <path d="M 57.6 307.584 
L 414.72 307.584 
" style="fill:none;stroke:#000000;stroke-linecap:square;stroke-linejoin:miter;stroke-width:0.8;"/>
   </g>
   <g id="patch_6">
    <path d="M 57.6 41.472 
L 414.72 41.472 
" style="fill:none;stroke:#000000;stroke-linecap:square;stroke-linejoin:miter;stroke-width:0.8;"/>
   </g>
   <g id="legend_1">
    <g id="patch_7">
     <path d="M 303.845 78.82825 
L 407.72 78.82825 
Q 409.72 78.82825 409.72 76.82825 
L 409.72 48.472 
Q 409.72 46.472 407.72 46.472 
L 303.845 46.472 
Q 301.845 46.472 301.845 48.472 
L 301.845 76.82825 
Q 301.845 78.82825 303.845 78.82825 
z
" style="fill:#ffffff;opacity:0.8;stroke:#cccccc;stroke-linejoin:miter;"/>
    </g>
    <g id="line2d_15">
     <path d="M 305.845 54.570437 
L 325.845 54.570437 
" style="fill:none;stroke:#1f77b4;stroke-linecap:square;stroke-width:1.5;"/>
    </g>
    <g id="line2d_16"/>
    <g id="text_14">
     <!-- Train loss -->
     <g transform="translate(333.845 58.070437)scale(0.1 -0.1)">
      <defs>
       <path d="M -19 4666 
L 3928 4666 
L 3928 4134 
L 2272 4134 
L 2272 0 
L 1638 0 
L 1638 4134 
L -19 4134 
L -19 4666 
z
" id="DejaVuSans-54" transform="scale(0.015625)"/>
       <path d="M 2631 2963 
Q 2534 3019 2420 3045 
Q 2306 3072 2169 3072 
Q 1681 3072 1420 2755 
Q 1159 2438 1159 1844 
L 1159 0 
L 581 0 
L 581 3500 
L 1159 3500 
L 1159 2956 
Q 1341 3275 1631 3429 
Q 1922 3584 2338 3584 
Q 2397 3584 2469 3576 
Q 2541 3569 2628 3553 
L 2631 2963 
z
" id="DejaVuSans-72" transform="scale(0.015625)"/>
       <path d="M 2194 1759 
Q 1497 1759 1228 1600 
Q 959 1441 959 1056 
Q 959 750 1161 570 
Q 1363 391 1709 391 
Q 2188 391 2477 730 
Q 2766 1069 2766 1631 
L 2766 1759 
L 2194 1759 
z
M 3341 1997 
L 3341 0 
L 2766 0 
L 2766 531 
Q 2569 213 2275 61 
Q 1981 -91 1556 -91 
Q 1019 -91 701 211 
Q 384 513 384 1019 
Q 384 1609 779 1909 
Q 1175 2209 1959 2209 
L 2766 2209 
L 2766 2266 
Q 2766 2663 2505 2880 
Q 2244 3097 1772 3097 
Q 1472 3097 1187 3025 
Q 903 2953 641 2809 
L 641 3341 
Q 956 3463 1253 3523 
Q 1550 3584 1831 3584 
Q 2591 3584 2966 3190 
Q 3341 2797 3341 1997 
z
" id="DejaVuSans-61" transform="scale(0.015625)"/>
       <path d="M 603 3500 
L 1178 3500 
L 1178 0 
L 603 0 
L 603 3500 
z
M 603 4863 
L 1178 4863 
L 1178 4134 
L 603 4134 
L 603 4863 
z
" id="DejaVuSans-69" transform="scale(0.015625)"/>
       <path d="M 3513 2113 
L 3513 0 
L 2938 0 
L 2938 2094 
Q 2938 2591 2744 2837 
Q 2550 3084 2163 3084 
Q 1697 3084 1428 2787 
Q 1159 2491 1159 1978 
L 1159 0 
L 581 0 
L 581 3500 
L 1159 3500 
L 1159 2956 
Q 1366 3272 1645 3428 
Q 1925 3584 2291 3584 
Q 2894 3584 3203 3211 
Q 3513 2838 3513 2113 
z
" id="DejaVuSans-6e" transform="scale(0.015625)"/>
       <path id="DejaVuSans-20" transform="scale(0.015625)"/>
       <path d="M 603 4863 
L 1178 4863 
L 1178 0 
L 603 0 
L 603 4863 
z
" id="DejaVuSans-6c" transform="scale(0.015625)"/>
       <path d="M 2834 3397 
L 2834 2853 
Q 2591 2978 2328 3040 
Q 2066 3103 1784 3103 
Q 1356 3103 1142 2972 
Q 928 2841 928 2578 
Q 928 2378 1081 2264 
Q 1234 2150 1697 2047 
L 1894 2003 
Q 2506 1872 2764 1633 
Q 3022 1394 3022 966 
Q 3022 478 2636 193 
Q 2250 -91 1575 -91 
Q 1294 -91 989 -36 
Q 684 19 347 128 
L 347 722 
Q 666 556 975 473 
Q 1284 391 1588 391 
Q 1994 391 2212 530 
Q 2431 669 2431 922 
Q 2431 1156 2273 1281 
Q 2116 1406 1581 1522 
L 1381 1569 
Q 847 1681 609 1914 
Q 372 2147 372 2553 
Q 372 3047 722 3315 
Q 1072 3584 1716 3584 
Q 2034 3584 2315 3537 
Q 2597 3491 2834 3397 
z
" id="DejaVuSans-73" transform="scale(0.015625)"/>
      </defs>
      <use xlink:href="#DejaVuSans-54"/>
      <use x="46.333984" xlink:href="#DejaVuSans-72"/>
      <use x="87.447266" xlink:href="#DejaVuSans-61"/>
      <use x="148.726562" xlink:href="#DejaVuSans-69"/>
      <use x="176.509766" xlink:href="#DejaVuSans-6e"/>
      <use x="239.888672" xlink:href="#DejaVuSans-20"/>
      <use x="271.675781" xlink:href="#DejaVuSans-6c"/>
      <use x="299.458984" xlink:href="#DejaVuSans-6f"/>
      <use x="360.640625" xlink:href="#DejaVuSans-73"/>
      <use x="412.740234" xlink:href="#DejaVuSans-73"/>
     </g>
    </g>
    <g id="line2d_17">
     <path d="M 305.845 69.248562 
L 325.845 69.248562 
" style="fill:none;stroke:#ff7f0e;stroke-linecap:square;stroke-width:1.5;"/>
    </g>
    <g id="line2d_18"/>
    <g id="text_15">
     <!-- Validation loss -->
     <g transform="translate(333.845 72.748562)scale(0.1 -0.1)">
      <defs>
       <path d="M 1831 0 
L 50 4666 
L 709 4666 
L 2188 738 
L 3669 4666 
L 4325 4666 
L 2547 0 
L 1831 0 
z
" id="DejaVuSans-56" transform="scale(0.015625)"/>
       <path d="M 2906 2969 
L 2906 4863 
L 3481 4863 
L 3481 0 
L 2906 0 
L 2906 525 
Q 2725 213 2448 61 
Q 2172 -91 1784 -91 
Q 1150 -91 751 415 
Q 353 922 353 1747 
Q 353 2572 751 3078 
Q 1150 3584 1784 3584 
Q 2172 3584 2448 3432 
Q 2725 3281 2906 2969 
z
M 947 1747 
Q 947 1113 1208 752 
Q 1469 391 1925 391 
Q 2381 391 2643 752 
Q 2906 1113 2906 1747 
Q 2906 2381 2643 2742 
Q 2381 3103 1925 3103 
Q 1469 3103 1208 2742 
Q 947 2381 947 1747 
z
" id="DejaVuSans-64" transform="scale(0.015625)"/>
       <path d="M 1172 4494 
L 1172 3500 
L 2356 3500 
L 2356 3053 
L 1172 3053 
L 1172 1153 
Q 1172 725 1289 603 
Q 1406 481 1766 481 
L 2356 481 
L 2356 0 
L 1766 0 
Q 1100 0 847 248 
Q 594 497 594 1153 
L 594 3053 
L 172 3053 
L 172 3500 
L 594 3500 
L 594 4494 
L 1172 4494 
z
" id="DejaVuSans-74" transform="scale(0.015625)"/>
      </defs>
      <use xlink:href="#DejaVuSans-56"/>
      <use x="60.658203" xlink:href="#DejaVuSans-61"/>
      <use x="121.9375" xlink:href="#DejaVuSans-6c"/>
      <use x="149.720703" xlink:href="#DejaVuSans-69"/>
      <use x="177.503906" xlink:href="#DejaVuSans-64"/>
      <use x="240.980469" xlink:href="#DejaVuSans-61"/>
      <use x="302.259766" xlink:href="#DejaVuSans-74"/>
      <use x="341.46875" xlink:href="#DejaVuSans-69"/>
      <use x="369.251953" xlink:href="#DejaVuSans-6f"/>
      <use x="430.433594" xlink:href="#DejaVuSans-6e"/>
      <use x="493.8125" xlink:href="#DejaVuSans-20"/>
      <use x="525.599609" xlink:href="#DejaVuSans-6c"/>
      <use x="553.382812" xlink:href="#DejaVuSans-6f"/>
      <use x="614.564453" xlink:href="#DejaVuSans-73"/>
      <use x="666.664062" xlink:href="#DejaVuSans-73"/>
     </g>
    </g>
   </g>
  </g>
 </g>
 <defs>
  <clipPath id="pf78047b8bb">
   <rect height="266.112" width="357.12" x="57.6" y="41.472"/>
  </clipPath>
 </defs>
</svg>
