<?xml version="1.0" encoding="utf-8" standalone="no"?>
<!DOCTYPE svg PUBLIC "-//W3C//DTD SVG 1.1//EN"
  "http://www.w3.org/Graphics/SVG/1.1/DTD/svg11.dtd">
<svg height="345.6pt" version="1.1" viewBox="0 0 460.8 345.6" width="460.8pt" xmlns="http://www.w3.org/2000/svg" xmlns:xlink="http://www.w3.org/1999/xlink">
 <metadata>
  <rdf:RDF xmlns:cc="http://creativecommons.org/ns#" xmlns:dc="http://purl.org/dc/elements/1.1/" xmlns:rdf="http://www.w3.org/1999/02/22-rdf-syntax-ns#">
   <cc:Work>
    <dc:type rdf:resource="http://purl.org/dc/dcmitype/StillImage"/>
    <dc:date>2021-07-20T07:48:08.640643</dc:date>
    <dc:format>image/svg+xml</dc:format>
    <dc:creator>
     <cc:Agent>
      <dc:title>Matplotlib v3.4.2, https://matplotlib.org/</dc:title>
     </cc:Agent>
    </dc:creator>
   </cc:Work>
  </rdf:RDF>
 </metadata>
 <defs>
  <style type="text/css">*{stroke-linecap:butt;stroke-linejoin:round;}</style>
 </defs>
 <g id="figure_1">
  <g id="patch_1">
   <path d="M 0 345.6 
L 460.8 345.6 
L 460.8 0 
L 0 0 
z
" style="fill:#ffffff;"/>
  </g>
  <g id="axes_1">
   <g id="patch_2">
    <path d="M 57.6 307.584 
L 414.72 307.584 
L 414.72 41.472 
L 57.6 41.472 
z
" style="fill:#ffffff;"/>
   </g>
   <g id="matplotlib.axis_1">
    <g id="xtick_1">
     <g id="line2d_1">
      <defs>
       <path d="M 0 0 
L 0 3.5 
" id="m37d91dd1e1" style="stroke:#000000;stroke-width:0.8;"/>
      </defs>
      <g>
       <use style="stroke:#000000;stroke-width:0.8;" x="73.426401" xlink:href="#m37d91dd1e1" y="307.584"/>
      </g>
     </g>
     <g id="text_1">
      <!-- 0 -->
      <g transform="translate(70.245151 322.182437)scale(0.1 -0.1)">
       <defs>
        <path d="M 2034 4250 
Q 1547 4250 1301 3770 
Q 1056 3291 1056 2328 
Q 1056 1369 1301 889 
Q 1547 409 2034 409 
Q 2525 409 2770 889 
Q 3016 1369 3016 2328 
Q 3016 3291 2770 3770 
Q 2525 4250 2034 4250 
z
M 2034 4750 
Q 2819 4750 3233 4129 
Q 3647 3509 3647 2328 
Q 3647 1150 3233 529 
Q 2819 -91 2034 -91 
Q 1250 -91 836 529 
Q 422 1150 422 2328 
Q 422 3509 836 4129 
Q 1250 4750 2034 4750 
z
" id="DejaVuSans-30" transform="scale(0.015625)"/>
       </defs>
       <use xlink:href="#DejaVuSans-30"/>
      </g>
     </g>
    </g>
    <g id="xtick_2">
     <g id="line2d_2">
      <g>
       <use style="stroke:#000000;stroke-width:0.8;" x="114.05901" xlink:href="#m37d91dd1e1" y="307.584"/>
      </g>
     </g>
     <g id="text_2">
      <!-- 100 -->
      <g transform="translate(104.51526 322.182437)scale(0.1 -0.1)">
       <defs>
        <path d="M 794 531 
L 1825 531 
L 1825 4091 
L 703 3866 
L 703 4441 
L 1819 4666 
L 2450 4666 
L 2450 531 
L 3481 531 
L 3481 0 
L 794 0 
L 794 531 
z
" id="DejaVuSans-31" transform="scale(0.015625)"/>
       </defs>
       <use xlink:href="#DejaVuSans-31"/>
       <use x="63.623047" xlink:href="#DejaVuSans-30"/>
       <use x="127.246094" xlink:href="#DejaVuSans-30"/>
      </g>
     </g>
    </g>
    <g id="xtick_3">
     <g id="line2d_3">
      <g>
       <use style="stroke:#000000;stroke-width:0.8;" x="154.691619" xlink:href="#m37d91dd1e1" y="307.584"/>
      </g>
     </g>
     <g id="text_3">
      <!-- 200 -->
      <g transform="translate(145.147869 322.182437)scale(0.1 -0.1)">
       <defs>
        <path d="M 1228 531 
L 3431 531 
L 3431 0 
L 469 0 
L 469 531 
Q 828 903 1448 1529 
Q 2069 2156 2228 2338 
Q 2531 2678 2651 2914 
Q 2772 3150 2772 3378 
Q 2772 3750 2511 3984 
Q 2250 4219 1831 4219 
Q 1534 4219 1204 4116 
Q 875 4013 500 3803 
L 500 4441 
Q 881 4594 1212 4672 
Q 1544 4750 1819 4750 
Q 2544 4750 2975 4387 
Q 3406 4025 3406 3419 
Q 3406 3131 3298 2873 
Q 3191 2616 2906 2266 
Q 2828 2175 2409 1742 
Q 1991 1309 1228 531 
z
" id="DejaVuSans-32" transform="scale(0.015625)"/>
       </defs>
       <use xlink:href="#DejaVuSans-32"/>
       <use x="63.623047" xlink:href="#DejaVuSans-30"/>
       <use x="127.246094" xlink:href="#DejaVuSans-30"/>
      </g>
     </g>
    </g>
    <g id="xtick_4">
     <g id="line2d_4">
      <g>
       <use style="stroke:#000000;stroke-width:0.8;" x="195.324228" xlink:href="#m37d91dd1e1" y="307.584"/>
      </g>
     </g>
     <g id="text_4">
      <!-- 300 -->
      <g transform="translate(185.780478 322.182437)scale(0.1 -0.1)">
       <defs>
        <path d="M 2597 2516 
Q 3050 2419 3304 2112 
Q 3559 1806 3559 1356 
Q 3559 666 3084 287 
Q 2609 -91 1734 -91 
Q 1441 -91 1130 -33 
Q 819 25 488 141 
L 488 750 
Q 750 597 1062 519 
Q 1375 441 1716 441 
Q 2309 441 2620 675 
Q 2931 909 2931 1356 
Q 2931 1769 2642 2001 
Q 2353 2234 1838 2234 
L 1294 2234 
L 1294 2753 
L 1863 2753 
Q 2328 2753 2575 2939 
Q 2822 3125 2822 3475 
Q 2822 3834 2567 4026 
Q 2313 4219 1838 4219 
Q 1578 4219 1281 4162 
Q 984 4106 628 3988 
L 628 4550 
Q 988 4650 1302 4700 
Q 1616 4750 1894 4750 
Q 2613 4750 3031 4423 
Q 3450 4097 3450 3541 
Q 3450 3153 3228 2886 
Q 3006 2619 2597 2516 
z
" id="DejaVuSans-33" transform="scale(0.015625)"/>
       </defs>
       <use xlink:href="#DejaVuSans-33"/>
       <use x="63.623047" xlink:href="#DejaVuSans-30"/>
       <use x="127.246094" xlink:href="#DejaVuSans-30"/>
      </g>
     </g>
    </g>
    <g id="xtick_5">
     <g id="line2d_5">
      <g>
       <use style="stroke:#000000;stroke-width:0.8;" x="235.956837" xlink:href="#m37d91dd1e1" y="307.584"/>
      </g>
     </g>
     <g id="text_5">
      <!-- 400 -->
      <g transform="translate(226.413087 322.182437)scale(0.1 -0.1)">
       <defs>
        <path d="M 2419 4116 
L 825 1625 
L 2419 1625 
L 2419 4116 
z
M 2253 4666 
L 3047 4666 
L 3047 1625 
L 3713 1625 
L 3713 1100 
L 3047 1100 
L 3047 0 
L 2419 0 
L 2419 1100 
L 313 1100 
L 313 1709 
L 2253 4666 
z
" id="DejaVuSans-34" transform="scale(0.015625)"/>
       </defs>
       <use xlink:href="#DejaVuSans-34"/>
       <use x="63.623047" xlink:href="#DejaVuSans-30"/>
       <use x="127.246094" xlink:href="#DejaVuSans-30"/>
      </g>
     </g>
    </g>
    <g id="xtick_6">
     <g id="line2d_6">
      <g>
       <use style="stroke:#000000;stroke-width:0.8;" x="276.589446" xlink:href="#m37d91dd1e1" y="307.584"/>
      </g>
     </g>
     <g id="text_6">
      <!-- 500 -->
      <g transform="translate(267.045696 322.182437)scale(0.1 -0.1)">
       <defs>
        <path d="M 691 4666 
L 3169 4666 
L 3169 4134 
L 1269 4134 
L 1269 2991 
Q 1406 3038 1543 3061 
Q 1681 3084 1819 3084 
Q 2600 3084 3056 2656 
Q 3513 2228 3513 1497 
Q 3513 744 3044 326 
Q 2575 -91 1722 -91 
Q 1428 -91 1123 -41 
Q 819 9 494 109 
L 494 744 
Q 775 591 1075 516 
Q 1375 441 1709 441 
Q 2250 441 2565 725 
Q 2881 1009 2881 1497 
Q 2881 1984 2565 2268 
Q 2250 2553 1709 2553 
Q 1456 2553 1204 2497 
Q 953 2441 691 2322 
L 691 4666 
z
" id="DejaVuSans-35" transform="scale(0.015625)"/>
       </defs>
       <use xlink:href="#DejaVuSans-35"/>
       <use x="63.623047" xlink:href="#DejaVuSans-30"/>
       <use x="127.246094" xlink:href="#DejaVuSans-30"/>
      </g>
     </g>
    </g>
    <g id="xtick_7">
     <g id="line2d_7">
      <g>
       <use style="stroke:#000000;stroke-width:0.8;" x="317.222055" xlink:href="#m37d91dd1e1" y="307.584"/>
      </g>
     </g>
     <g id="text_7">
      <!-- 600 -->
      <g transform="translate(307.678305 322.182437)scale(0.1 -0.1)">
       <defs>
        <path d="M 2113 2584 
Q 1688 2584 1439 2293 
Q 1191 2003 1191 1497 
Q 1191 994 1439 701 
Q 1688 409 2113 409 
Q 2538 409 2786 701 
Q 3034 994 3034 1497 
Q 3034 2003 2786 2293 
Q 2538 2584 2113 2584 
z
M 3366 4563 
L 3366 3988 
Q 3128 4100 2886 4159 
Q 2644 4219 2406 4219 
Q 1781 4219 1451 3797 
Q 1122 3375 1075 2522 
Q 1259 2794 1537 2939 
Q 1816 3084 2150 3084 
Q 2853 3084 3261 2657 
Q 3669 2231 3669 1497 
Q 3669 778 3244 343 
Q 2819 -91 2113 -91 
Q 1303 -91 875 529 
Q 447 1150 447 2328 
Q 447 3434 972 4092 
Q 1497 4750 2381 4750 
Q 2619 4750 2861 4703 
Q 3103 4656 3366 4563 
z
" id="DejaVuSans-36" transform="scale(0.015625)"/>
       </defs>
       <use xlink:href="#DejaVuSans-36"/>
       <use x="63.623047" xlink:href="#DejaVuSans-30"/>
       <use x="127.246094" xlink:href="#DejaVuSans-30"/>
      </g>
     </g>
    </g>
    <g id="xtick_8">
     <g id="line2d_8">
      <g>
       <use style="stroke:#000000;stroke-width:0.8;" x="357.854664" xlink:href="#m37d91dd1e1" y="307.584"/>
      </g>
     </g>
     <g id="text_8">
      <!-- 700 -->
      <g transform="translate(348.310914 322.182437)scale(0.1 -0.1)">
       <defs>
        <path d="M 525 4666 
L 3525 4666 
L 3525 4397 
L 1831 0 
L 1172 0 
L 2766 4134 
L 525 4134 
L 525 4666 
z
" id="DejaVuSans-37" transform="scale(0.015625)"/>
       </defs>
       <use xlink:href="#DejaVuSans-37"/>
       <use x="63.623047" xlink:href="#DejaVuSans-30"/>
       <use x="127.246094" xlink:href="#DejaVuSans-30"/>
      </g>
     </g>
    </g>
    <g id="xtick_9">
     <g id="line2d_9">
      <g>
       <use style="stroke:#000000;stroke-width:0.8;" x="398.487273" xlink:href="#m37d91dd1e1" y="307.584"/>
      </g>
     </g>
     <g id="text_9">
      <!-- 800 -->
      <g transform="translate(388.943523 322.182437)scale(0.1 -0.1)">
       <defs>
        <path d="M 2034 2216 
Q 1584 2216 1326 1975 
Q 1069 1734 1069 1313 
Q 1069 891 1326 650 
Q 1584 409 2034 409 
Q 2484 409 2743 651 
Q 3003 894 3003 1313 
Q 3003 1734 2745 1975 
Q 2488 2216 2034 2216 
z
M 1403 2484 
Q 997 2584 770 2862 
Q 544 3141 544 3541 
Q 544 4100 942 4425 
Q 1341 4750 2034 4750 
Q 2731 4750 3128 4425 
Q 3525 4100 3525 3541 
Q 3525 3141 3298 2862 
Q 3072 2584 2669 2484 
Q 3125 2378 3379 2068 
Q 3634 1759 3634 1313 
Q 3634 634 3220 271 
Q 2806 -91 2034 -91 
Q 1263 -91 848 271 
Q 434 634 434 1313 
Q 434 1759 690 2068 
Q 947 2378 1403 2484 
z
M 1172 3481 
Q 1172 3119 1398 2916 
Q 1625 2713 2034 2713 
Q 2441 2713 2670 2916 
Q 2900 3119 2900 3481 
Q 2900 3844 2670 4047 
Q 2441 4250 2034 4250 
Q 1625 4250 1398 4047 
Q 1172 3844 1172 3481 
z
" id="DejaVuSans-38" transform="scale(0.015625)"/>
       </defs>
       <use xlink:href="#DejaVuSans-38"/>
       <use x="63.623047" xlink:href="#DejaVuSans-30"/>
       <use x="127.246094" xlink:href="#DejaVuSans-30"/>
      </g>
     </g>
    </g>
    <g id="text_10">
     <!-- Epoch -->
     <g transform="translate(213.193594 339.659781)scale(0.15 -0.15)">
      <defs>
       <path d="M 628 4666 
L 3578 4666 
L 3578 4134 
L 1259 4134 
L 1259 2753 
L 3481 2753 
L 3481 2222 
L 1259 2222 
L 1259 531 
L 3634 531 
L 3634 0 
L 628 0 
L 628 4666 
z
" id="DejaVuSans-45" transform="scale(0.015625)"/>
       <path d="M 1159 525 
L 1159 -1331 
L 581 -1331 
L 581 3500 
L 1159 3500 
L 1159 2969 
Q 1341 3281 1617 3432 
Q 1894 3584 2278 3584 
Q 2916 3584 3314 3078 
Q 3713 2572 3713 1747 
Q 3713 922 3314 415 
Q 2916 -91 2278 -91 
Q 1894 -91 1617 61 
Q 1341 213 1159 525 
z
M 3116 1747 
Q 3116 2381 2855 2742 
Q 2594 3103 2138 3103 
Q 1681 3103 1420 2742 
Q 1159 2381 1159 1747 
Q 1159 1113 1420 752 
Q 1681 391 2138 391 
Q 2594 391 2855 752 
Q 3116 1113 3116 1747 
z
" id="DejaVuSans-70" transform="scale(0.015625)"/>
       <path d="M 1959 3097 
Q 1497 3097 1228 2736 
Q 959 2375 959 1747 
Q 959 1119 1226 758 
Q 1494 397 1959 397 
Q 2419 397 2687 759 
Q 2956 1122 2956 1747 
Q 2956 2369 2687 2733 
Q 2419 3097 1959 3097 
z
M 1959 3584 
Q 2709 3584 3137 3096 
Q 3566 2609 3566 1747 
Q 3566 888 3137 398 
Q 2709 -91 1959 -91 
Q 1206 -91 779 398 
Q 353 888 353 1747 
Q 353 2609 779 3096 
Q 1206 3584 1959 3584 
z
" id="DejaVuSans-6f" transform="scale(0.015625)"/>
       <path d="M 3122 3366 
L 3122 2828 
Q 2878 2963 2633 3030 
Q 2388 3097 2138 3097 
Q 1578 3097 1268 2742 
Q 959 2388 959 1747 
Q 959 1106 1268 751 
Q 1578 397 2138 397 
Q 2388 397 2633 464 
Q 2878 531 3122 666 
L 3122 134 
Q 2881 22 2623 -34 
Q 2366 -91 2075 -91 
Q 1284 -91 818 406 
Q 353 903 353 1747 
Q 353 2603 823 3093 
Q 1294 3584 2113 3584 
Q 2378 3584 2631 3529 
Q 2884 3475 3122 3366 
z
" id="DejaVuSans-63" transform="scale(0.015625)"/>
       <path d="M 3513 2113 
L 3513 0 
L 2938 0 
L 2938 2094 
Q 2938 2591 2744 2837 
Q 2550 3084 2163 3084 
Q 1697 3084 1428 2787 
Q 1159 2491 1159 1978 
L 1159 0 
L 581 0 
L 581 4863 
L 1159 4863 
L 1159 2956 
Q 1366 3272 1645 3428 
Q 1925 3584 2291 3584 
Q 2894 3584 3203 3211 
Q 3513 2838 3513 2113 
z
" id="DejaVuSans-68" transform="scale(0.015625)"/>
      </defs>
      <use xlink:href="#DejaVuSans-45"/>
      <use x="63.183594" xlink:href="#DejaVuSans-70"/>
      <use x="126.660156" xlink:href="#DejaVuSans-6f"/>
      <use x="187.841797" xlink:href="#DejaVuSans-63"/>
      <use x="242.822266" xlink:href="#DejaVuSans-68"/>
     </g>
    </g>
   </g>
   <g id="matplotlib.axis_2">
    <g id="ytick_1">
     <g id="line2d_10">
      <defs>
       <path d="M 0 0 
L -3.5 0 
" id="m5bf4d4c8e3" style="stroke:#000000;stroke-width:0.8;"/>
      </defs>
      <g>
       <use style="stroke:#000000;stroke-width:0.8;" x="57.6" xlink:href="#m5bf4d4c8e3" y="283.618353"/>
      </g>
     </g>
     <g id="text_11">
      <!-- −1000 -->
      <g transform="translate(16.770313 287.417571)scale(0.1 -0.1)">
       <defs>
        <path d="M 678 2272 
L 4684 2272 
L 4684 1741 
L 678 1741 
L 678 2272 
z
" id="DejaVuSans-2212" transform="scale(0.015625)"/>
       </defs>
       <use xlink:href="#DejaVuSans-2212"/>
       <use x="83.789062" xlink:href="#DejaVuSans-31"/>
       <use x="147.412109" xlink:href="#DejaVuSans-30"/>
       <use x="211.035156" xlink:href="#DejaVuSans-30"/>
       <use x="274.658203" xlink:href="#DejaVuSans-30"/>
      </g>
     </g>
    </g>
    <g id="ytick_2">
     <g id="line2d_11">
      <g>
       <use style="stroke:#000000;stroke-width:0.8;" x="57.6" xlink:href="#m5bf4d4c8e3" y="248.561941"/>
      </g>
     </g>
     <g id="text_12">
      <!-- −750 -->
      <g transform="translate(23.132812 252.36116)scale(0.1 -0.1)">
       <use xlink:href="#DejaVuSans-2212"/>
       <use x="83.789062" xlink:href="#DejaVuSans-37"/>
       <use x="147.412109" xlink:href="#DejaVuSans-35"/>
       <use x="211.035156" xlink:href="#DejaVuSans-30"/>
      </g>
     </g>
    </g>
    <g id="ytick_3">
     <g id="line2d_12">
      <g>
       <use style="stroke:#000000;stroke-width:0.8;" x="57.6" xlink:href="#m5bf4d4c8e3" y="213.50553"/>
      </g>
     </g>
     <g id="text_13">
      <!-- −500 -->
      <g transform="translate(23.132812 217.304749)scale(0.1 -0.1)">
       <use xlink:href="#DejaVuSans-2212"/>
       <use x="83.789062" xlink:href="#DejaVuSans-35"/>
       <use x="147.412109" xlink:href="#DejaVuSans-30"/>
       <use x="211.035156" xlink:href="#DejaVuSans-30"/>
      </g>
     </g>
    </g>
    <g id="ytick_4">
     <g id="line2d_13">
      <g>
       <use style="stroke:#000000;stroke-width:0.8;" x="57.6" xlink:href="#m5bf4d4c8e3" y="178.449119"/>
      </g>
     </g>
     <g id="text_14">
      <!-- −250 -->
      <g transform="translate(23.132812 182.248338)scale(0.1 -0.1)">
       <use xlink:href="#DejaVuSans-2212"/>
       <use x="83.789062" xlink:href="#DejaVuSans-32"/>
       <use x="147.412109" xlink:href="#DejaVuSans-35"/>
       <use x="211.035156" xlink:href="#DejaVuSans-30"/>
      </g>
     </g>
    </g>
    <g id="ytick_5">
     <g id="line2d_14">
      <g>
       <use style="stroke:#000000;stroke-width:0.8;" x="57.6" xlink:href="#m5bf4d4c8e3" y="143.392708"/>
      </g>
     </g>
     <g id="text_15">
      <!-- 0 -->
      <g transform="translate(44.2375 147.191927)scale(0.1 -0.1)">
       <use xlink:href="#DejaVuSans-30"/>
      </g>
     </g>
    </g>
    <g id="ytick_6">
     <g id="line2d_15">
      <g>
       <use style="stroke:#000000;stroke-width:0.8;" x="57.6" xlink:href="#m5bf4d4c8e3" y="108.336297"/>
      </g>
     </g>
     <g id="text_16">
      <!-- 250 -->
      <g transform="translate(31.5125 112.135516)scale(0.1 -0.1)">
       <use xlink:href="#DejaVuSans-32"/>
       <use x="63.623047" xlink:href="#DejaVuSans-35"/>
       <use x="127.246094" xlink:href="#DejaVuSans-30"/>
      </g>
     </g>
    </g>
    <g id="ytick_7">
     <g id="line2d_16">
      <g>
       <use style="stroke:#000000;stroke-width:0.8;" x="57.6" xlink:href="#m5bf4d4c8e3" y="73.279886"/>
      </g>
     </g>
     <g id="text_17">
      <!-- 500 -->
      <g transform="translate(31.5125 77.079105)scale(0.1 -0.1)">
       <use xlink:href="#DejaVuSans-35"/>
       <use x="63.623047" xlink:href="#DejaVuSans-30"/>
       <use x="127.246094" xlink:href="#DejaVuSans-30"/>
      </g>
     </g>
    </g>
   </g>
   <g id="line2d_17">
    <path clip-path="url(#pb0d7cd1b0b)" d="M 73.832727 149.196047 
L 74.239053 180.707914 
L 74.645379 190.789855 
L 75.051706 193.546218 
L 75.458032 202.946288 
L 76.67701 214.516891 
L 77.083336 221.646672 
L 77.489662 222.606413 
L 78.302314 209.313717 
L 78.70864 223.739959 
L 79.114966 222.889027 
L 79.521293 226.988824 
L 79.927619 229.613514 
L 80.333945 234.006636 
L 80.740271 228.761455 
L 81.552923 236.407848 
L 81.959249 238.853149 
L 82.365575 240.10285 
L 82.771901 238.156867 
L 83.178227 241.621845 
L 83.584553 241.480749 
L 83.99088 239.496499 
L 84.397206 248.737006 
L 84.803532 242.582195 
L 85.209858 247.997386 
L 85.616184 236.346238 
L 86.02251 249.638301 
L 86.428836 248.841353 
L 86.835162 247.293502 
L 87.241488 234.5545 
L 87.647814 246.586442 
L 88.05414 248.765744 
L 88.460466 243.090321 
L 88.866793 244.073927 
L 89.273119 254.95521 
L 89.679445 252.770983 
L 90.085771 258.250523 
L 90.492097 252.308333 
L 90.898423 252.807952 
L 91.304749 246.894121 
L 91.711075 252.336977 
L 92.523727 257.926065 
L 92.930053 253.723069 
L 93.33638 256.580432 
L 93.742706 256.858588 
L 94.555358 249.4912 
L 94.961684 259.585509 
L 95.36801 255.695612 
L 95.774336 255.610374 
L 96.180662 257.480405 
L 96.586988 257.976347 
L 96.993314 255.982094 
L 97.39964 264.570076 
L 97.805967 255.447429 
L 98.212293 254.97079 
L 98.618619 256.73441 
L 99.024945 255.634004 
L 99.431271 260.910758 
L 99.837597 258.253329 
L 100.243923 257.784007 
L 100.650249 262.018158 
L 101.056575 258.081221 
L 101.462901 264.706 
L 101.869227 258.324406 
L 102.275554 257.00042 
L 102.68188 254.80003 
L 103.088206 269.08869 
L 103.494532 264.581905 
L 103.900858 264.984384 
L 104.307184 257.248442 
L 104.71351 271.824074 
L 105.119836 262.176918 
L 105.526162 263.513569 
L 105.932488 260.425718 
L 106.338814 261.592429 
L 106.745141 260.941293 
L 107.151467 259.427693 
L 107.557793 257.029382 
L 107.964119 265.786525 
L 108.370445 268.150446 
L 108.776771 262.622698 
L 109.183097 265.589361 
L 109.589423 263.567862 
L 109.995749 260.64804 
L 110.402075 266.56551 
L 110.808401 264.405854 
L 111.214728 259.428676 
L 111.621054 265.192593 
L 112.02738 265.594017 
L 112.433706 261.091688 
L 112.840032 259.620203 
L 113.652684 268.25246 
L 114.05901 265.262586 
L 114.465336 260.666743 
L 114.871662 270.152556 
L 115.277988 268.973472 
L 115.684314 265.144764 
L 116.090641 268.2917 
L 116.496967 266.56013 
L 116.903293 269.878814 
L 117.309619 267.242586 
L 117.715945 258.902002 
L 118.122271 268.968764 
L 118.528597 267.774525 
L 118.934923 274.443041 
L 119.341249 269.232643 
L 119.747575 270.800256 
L 120.153901 268.757387 
L 120.560228 267.738202 
L 120.966554 265.066104 
L 121.37288 263.27929 
L 121.779206 272.585783 
L 122.185532 270.148469 
L 122.998184 262.160914 
L 124.217162 270.281201 
L 124.623488 262.959036 
L 125.029815 270.890329 
L 125.436141 271.431133 
L 125.842467 270.129441 
L 126.248793 261.863644 
L 126.655119 270.047726 
L 127.061445 266.915958 
L 127.467771 267.350384 
L 127.874097 267.275913 
L 128.280423 268.49112 
L 128.686749 274.039593 
L 129.093075 267.365107 
L 129.499402 272.228785 
L 129.905728 266.420618 
L 130.312054 273.714418 
L 131.124706 258.840907 
L 131.937358 269.505513 
L 132.343684 265.242132 
L 132.75001 269.965935 
L 133.156336 261.488393 
L 133.562662 266.154681 
L 133.968989 268.244877 
L 134.375315 267.235693 
L 134.781641 269.461863 
L 135.187967 264.56262 
L 136.000619 274.725802 
L 136.406945 273.288363 
L 136.813271 274.737073 
L 137.219597 269.545514 
L 137.625923 266.544866 
L 138.032249 268.783288 
L 138.438575 273.292527 
L 138.844902 269.996487 
L 139.251228 268.435987 
L 139.657554 276.104799 
L 140.06388 264.380532 
L 140.876532 274.477101 
L 141.282858 273.92664 
L 142.09551 267.578865 
L 142.501836 263.008579 
L 142.908162 273.685246 
L 143.314489 271.563733 
L 143.720815 273.067436 
L 144.127141 267.478802 
L 144.533467 272.734431 
L 144.939793 273.305125 
L 145.346119 275.509701 
L 145.752445 266.330992 
L 146.158771 267.66858 
L 146.565097 266.119872 
L 146.971423 272.78805 
L 147.377749 268.274525 
L 147.784076 272.324634 
L 148.190402 272.593328 
L 148.596728 278.693735 
L 149.003054 273.950686 
L 149.40938 267.689467 
L 150.222032 276.555239 
L 150.628358 269.601667 
L 151.034684 264.740385 
L 151.44101 271.253234 
L 151.847336 270.839933 
L 152.253663 272.908165 
L 152.659989 268.887744 
L 153.066315 270.554699 
L 153.472641 273.108247 
L 153.878967 272.409397 
L 154.285293 273.651103 
L 154.691619 269.352023 
L 155.504271 272.178857 
L 155.910597 266.629194 
L 156.316923 279.007647 
L 156.72325 269.685282 
L 157.129576 276.177707 
L 157.535902 270.97595 
L 157.942228 273.230928 
L 158.348554 267.027978 
L 158.75488 276.336057 
L 159.161206 272.770868 
L 159.567532 272.330756 
L 159.973858 275.133069 
L 160.380184 273.415055 
L 160.78651 276.833253 
L 161.192837 273.093659 
L 161.599163 274.948568 
L 162.005489 274.784976 
L 162.411815 277.403627 
L 162.818141 273.369645 
L 163.630793 279.944424 
L 164.037119 271.959301 
L 164.443445 274.208505 
L 164.849771 268.649756 
L 165.256097 271.442939 
L 165.662423 277.259876 
L 166.06875 272.283314 
L 166.475076 269.796205 
L 166.881402 277.629149 
L 167.287728 272.282018 
L 167.694054 272.495636 
L 168.10038 274.516295 
L 168.506706 273.638784 
L 168.913032 284.74735 
L 170.13201 273.52766 
L 170.538337 272.590369 
L 170.944663 277.645755 
L 171.350989 273.26244 
L 171.757315 270.831233 
L 172.163641 283.474047 
L 172.976293 268.274204 
L 173.382619 276.753336 
L 173.788945 269.844729 
L 174.195271 277.463687 
L 174.601597 276.847941 
L 175.007924 275.129579 
L 175.41425 280.933262 
L 176.633228 274.210004 
L 177.039554 275.020171 
L 177.44588 274.307841 
L 177.852206 276.402077 
L 178.258532 275.244368 
L 178.664858 276.100188 
L 179.071184 277.338917 
L 179.477511 269.912493 
L 179.883837 281.640379 
L 180.696489 275.702156 
L 181.102815 273.431839 
L 181.509141 274.209364 
L 181.915467 272.956503 
L 182.321793 277.718736 
L 182.728119 277.148087 
L 183.540771 274.733751 
L 183.947098 284.309601 
L 184.353424 274.83284 
L 184.75975 280.131132 
L 185.166076 279.491656 
L 185.572402 275.029948 
L 185.978728 279.436167 
L 186.385054 272.472898 
L 186.79138 275.921055 
L 187.197706 277.515246 
L 187.604032 280.460676 
L 188.010358 273.833481 
L 188.416684 281.438888 
L 188.823011 272.369958 
L 189.229337 274.075002 
L 189.635663 278.474594 
L 190.041989 275.117208 
L 190.448315 277.821692 
L 190.854641 276.106323 
L 191.260967 271.283309 
L 191.667293 272.532739 
L 192.073619 269.284002 
L 192.479945 270.165976 
L 192.886271 273.201513 
L 193.292598 271.755736 
L 193.698924 282.314509 
L 194.10525 279.432327 
L 194.511576 274.425328 
L 194.917902 272.654377 
L 195.324228 276.111012 
L 195.730554 280.707297 
L 196.13688 282.266574 
L 196.543206 279.944585 
L 196.949532 283.003742 
L 197.355858 277.189053 
L 197.762185 282.218745 
L 198.168511 277.465411 
L 198.574837 277.973688 
L 198.981163 281.424561 
L 199.793815 278.155624 
L 200.606467 276.452211 
L 201.012793 279.193442 
L 201.419119 272.772365 
L 201.825445 280.63718 
L 202.231772 270.567037 
L 202.638098 274.518527 
L 203.044424 284.889747 
L 203.45075 277.793185 
L 203.857076 280.9023 
L 204.669728 274.92478 
L 205.076054 278.667064 
L 205.48238 279.539335 
L 205.888706 283.382892 
L 206.701359 278.328623 
L 207.107685 283.627122 
L 207.514011 276.917422 
L 207.920337 282.872522 
L 208.326663 281.872006 
L 208.732989 281.749707 
L 209.139315 287.101226 
L 209.545641 281.091695 
L 209.951967 283.152462 
L 210.358293 279.598492 
L 210.764619 284.743372 
L 211.170946 282.579879 
L 211.577272 275.775462 
L 211.983598 279.086019 
L 212.79625 280.270798 
L 213.202576 277.610326 
L 213.608902 284.041924 
L 214.015228 282.14729 
L 214.421554 282.975886 
L 214.82788 282.57893 
L 215.234206 287.784984 
L 215.640532 280.706312 
L 216.046859 280.067494 
L 216.453185 280.919409 
L 216.859511 282.937975 
L 217.265837 285.94948 
L 217.672163 285.568506 
L 218.078489 283.202083 
L 218.484815 282.137518 
L 218.891141 276.964737 
L 219.297467 284.696047 
L 219.703793 285.699065 
L 220.110119 275.06527 
L 220.516446 282.080499 
L 220.922772 283.92862 
L 221.329098 280.571202 
L 221.735424 283.98682 
L 222.14175 275.216288 
L 222.548076 283.937673 
L 222.954402 284.062881 
L 223.360728 283.236884 
L 223.767054 288.483141 
L 224.17338 283.497673 
L 224.579706 282.109725 
L 224.986033 272.679408 
L 225.392359 281.377099 
L 225.798685 287.321925 
L 226.205011 282.450585 
L 226.611337 279.201258 
L 227.017663 291.257686 
L 227.423989 278.630142 
L 227.830315 283.127169 
L 228.236641 282.390839 
L 228.642967 285.050987 
L 229.049293 279.280341 
L 229.45562 279.952402 
L 229.861946 289.36361 
L 230.268272 281.775306 
L 230.674598 288.086058 
L 231.893576 280.693225 
L 232.299902 288.926668 
L 232.706228 284.069192 
L 233.112554 284.765638 
L 233.51888 282.924322 
L 233.925207 278.62603 
L 234.331533 280.094055 
L 235.144185 288.642502 
L 235.550511 284.402892 
L 236.363163 282.992624 
L 236.769489 281.955269 
L 237.175815 277.852238 
L 237.582141 289.231589 
L 237.988467 282.036456 
L 238.394793 287.074303 
L 238.80112 286.557987 
L 239.207446 281.487572 
L 239.613772 282.644247 
L 240.020098 287.598532 
L 240.426424 279.136948 
L 240.83275 283.699025 
L 241.239076 284.451917 
L 241.645402 283.061657 
L 242.051728 278.094437 
L 242.458054 287.78561 
L 242.86438 292.598925 
L 243.270707 280.293711 
L 243.677033 285.27117 
L 244.083359 279.59077 
L 244.489685 285.365937 
L 244.896011 287.228784 
L 245.302337 285.076778 
L 245.708663 276.571862 
L 246.114989 283.503006 
L 246.521315 280.834463 
L 246.927641 289.247019 
L 247.333967 278.168561 
L 247.740294 275.644723 
L 248.14662 283.921754 
L 248.552946 288.357042 
L 248.959272 284.780957 
L 249.365598 285.379997 
L 249.771924 284.25338 
L 250.17825 288.271265 
L 250.990902 291.699177 
L 251.397228 289.833705 
L 251.803554 282.646567 
L 252.209881 288.107136 
L 252.616207 284.840706 
L 253.022533 286.858489 
L 253.835185 280.585155 
L 254.241511 283.770589 
L 254.647837 283.028325 
L 255.054163 281.263992 
L 255.460489 285.097447 
L 255.866815 285.292444 
L 256.273141 281.105735 
L 256.679468 280.541151 
L 257.085794 281.237297 
L 257.49212 283.772448 
L 257.898446 287.807113 
L 258.304772 281.295987 
L 258.711098 280.718749 
L 259.117424 283.178901 
L 259.52375 284.51315 
L 259.930076 284.421727 
L 260.336402 281.713186 
L 260.742728 280.448914 
L 261.149054 287.64726 
L 261.555381 286.78133 
L 262.368033 281.567041 
L 262.774359 283.044259 
L 263.180685 285.90116 
L 263.587011 283.510477 
L 263.993337 285.895765 
L 264.399663 293.980384 
L 264.805989 282.889681 
L 265.212315 284.294369 
L 265.618641 286.206397 
L 266.024968 281.453448 
L 266.431294 281.788249 
L 266.83762 282.906496 
L 267.243946 287.074232 
L 267.650272 288.082052 
L 268.056598 283.095562 
L 268.462924 284.302526 
L 268.86925 277.186624 
L 269.275576 286.276814 
L 269.681902 283.37894 
L 270.088228 285.04093 
L 270.494555 283.470292 
L 270.900881 285.333123 
L 271.307207 295.488 
L 271.713533 285.687368 
L 272.119859 291.6467 
L 272.526185 280.943919 
L 272.932511 287.709998 
L 273.338837 289.859828 
L 273.745163 281.865225 
L 274.151489 282.270541 
L 274.557815 282.988266 
L 275.370468 286.939673 
L 275.776794 279.650063 
L 276.18312 282.945814 
L 276.589446 282.194395 
L 276.995772 285.199301 
L 277.402098 285.919723 
L 277.808424 287.043365 
L 278.21475 293.639292 
L 278.621076 277.514271 
L 279.027402 284.954797 
L 279.433729 279.518067 
L 279.840055 277.728742 
L 280.246381 285.055044 
L 280.652707 289.047397 
L 281.059033 285.454756 
L 281.465359 291.058063 
L 281.871685 288.456049 
L 282.278011 289.622485 
L 282.684337 284.621571 
L 283.090663 281.812663 
L 284.309642 285.565865 
L 284.715968 277.905134 
L 285.122294 288.108989 
L 285.52862 286.360227 
L 285.934946 286.618412 
L 286.341272 289.431932 
L 286.747598 293.755852 
L 287.153924 282.864791 
L 287.56025 284.354644 
L 287.966576 285.353428 
L 288.372902 284.371154 
L 288.779229 289.332876 
L 289.185555 282.398316 
L 289.591881 290.333481 
L 289.998207 284.561795 
L 290.404533 283.79929 
L 290.810859 284.887396 
L 291.217185 287.252979 
L 291.623511 283.073841 
L 292.029837 290.711149 
L 292.436163 283.604135 
L 292.842489 288.422715 
L 293.248816 283.387868 
L 293.655142 287.613152 
L 294.061468 283.72303 
L 294.467794 286.997366 
L 294.87412 283.156107 
L 295.280446 289.255209 
L 295.686772 282.983624 
L 296.093098 285.206814 
L 296.499424 286.560438 
L 296.90575 289.819071 
L 297.312076 284.832855 
L 297.718403 284.608701 
L 298.124729 283.189932 
L 298.531055 284.770277 
L 298.937381 283.116339 
L 299.343707 291.15969 
L 299.750033 284.614154 
L 300.156359 276.071904 
L 300.562685 287.432503 
L 300.969011 284.361544 
L 301.375337 283.563978 
L 301.781663 287.422225 
L 302.18799 287.241183 
L 302.594316 287.387862 
L 303.000642 286.188083 
L 303.406968 289.224962 
L 303.813294 284.423095 
L 304.21962 284.565304 
L 304.625946 293.237167 
L 305.032272 287.817512 
L 305.438598 284.202333 
L 305.844924 285.72408 
L 306.25125 288.203476 
L 306.657577 285.532885 
L 307.063903 284.379461 
L 307.470229 287.492014 
L 307.876555 287.786908 
L 308.282881 287.014927 
L 308.689207 287.211825 
L 309.095533 287.097351 
L 309.501859 285.130403 
L 309.908185 289.98807 
L 310.314511 285.682359 
L 310.720837 285.210961 
L 311.127163 279.573254 
L 311.53349 288.297085 
L 311.939816 291.035248 
L 312.346142 285.547461 
L 312.752468 285.069747 
L 313.158794 288.289566 
L 313.56512 279.442533 
L 313.971446 283.298747 
L 314.377772 289.996338 
L 314.784098 288.400011 
L 315.190424 288.726388 
L 315.59675 283.470731 
L 316.003077 282.480592 
L 316.409403 275.683145 
L 316.815729 284.448163 
L 317.222055 288.284118 
L 317.628381 288.767281 
L 318.034707 279.059394 
L 318.441033 281.996695 
L 318.847359 286.097282 
L 319.253685 288.660652 
L 319.660011 293.711314 
L 320.472664 285.351118 
L 320.87899 284.243547 
L 321.285316 288.69937 
L 321.691642 290.485518 
L 322.097968 287.924763 
L 322.504294 291.157411 
L 322.91062 286.197813 
L 323.316946 286.009345 
L 323.723272 280.349573 
L 324.129598 289.09949 
L 324.535924 286.955348 
L 324.942251 286.104237 
L 325.348577 288.656462 
L 325.754903 277.739714 
L 326.161229 284.904041 
L 326.567555 286.521132 
L 326.973881 283.464612 
L 327.380207 291.827113 
L 327.786533 294.217837 
L 328.192859 284.443526 
L 328.599185 283.5922 
L 329.005511 281.93114 
L 329.411838 286.746402 
L 329.818164 285.360398 
L 330.22449 282.3564 
L 330.630816 288.714595 
L 331.037142 287.380316 
L 331.443468 290.995923 
L 331.849794 285.94137 
L 332.25612 286.045915 
L 332.662446 285.670047 
L 333.068772 285.063868 
L 333.475098 288.459027 
L 333.881425 289.780819 
L 334.287751 281.421342 
L 334.694077 290.586789 
L 335.100403 287.996653 
L 335.506729 289.577111 
L 335.913055 285.661418 
L 336.319381 280.53554 
L 336.725707 288.887792 
L 337.132033 292.320277 
L 337.538359 283.084251 
L 337.944685 288.228487 
L 338.351011 282.749997 
L 338.757338 284.630755 
L 339.163664 287.476435 
L 339.56999 288.093909 
L 339.976316 290.678547 
L 340.382642 275.273012 
L 340.788968 279.898458 
L 341.195294 286.098268 
L 341.60162 286.239567 
L 342.007946 285.889648 
L 342.414272 283.36039 
L 342.820598 288.917174 
L 343.226925 276.891598 
L 343.633251 288.985204 
L 344.039577 285.226458 
L 344.445903 277.552963 
L 344.852229 287.861323 
L 345.258555 282.869731 
L 345.664881 280.312232 
L 346.071207 284.206771 
L 346.477533 285.800374 
L 346.883859 285.797041 
L 347.290185 282.29908 
L 347.696512 290.374941 
L 348.102838 282.407176 
L 348.509164 288.745486 
L 348.91549 283.758684 
L 349.321816 287.934356 
L 349.728142 286.495105 
L 350.134468 289.283755 
L 350.540794 285.940839 
L 350.94712 289.475756 
L 351.353446 289.534522 
L 351.759772 288.949752 
L 352.166099 279.728053 
L 352.572425 285.432392 
L 352.978751 283.326941 
L 353.385077 290.273852 
L 353.791403 283.581049 
L 354.197729 289.074862 
L 354.604055 287.50504 
L 355.010381 285.076282 
L 355.416707 280.730697 
L 355.823033 281.512799 
L 356.229359 289.343768 
L 356.635686 286.574689 
L 357.042012 281.221664 
L 357.448338 293.286394 
L 357.854664 279.935727 
L 358.26099 286.695921 
L 358.667316 288.837752 
L 359.073642 294.315052 
L 359.479968 279.798647 
L 359.886294 293.419339 
L 360.29262 283.97751 
L 360.698946 289.28778 
L 361.105272 287.070405 
L 361.511599 286.31678 
L 361.917925 289.536183 
L 362.324251 286.785317 
L 362.730577 286.623711 
L 363.136903 278.744291 
L 363.543229 289.876292 
L 363.949555 280.38868 
L 364.355881 287.187047 
L 364.762207 280.009965 
L 365.574859 286.098674 
L 365.981186 284.687336 
L 366.387512 282.69736 
L 366.793838 287.502903 
L 367.200164 288.274843 
L 367.60649 291.666302 
L 368.012816 290.136296 
L 368.419142 285.427099 
L 368.825468 289.38829 
L 369.231794 285.926744 
L 369.63812 294.869707 
L 370.044446 284.079185 
L 370.450773 283.99201 
L 370.857099 278.83827 
L 371.263425 287.124255 
L 371.669751 281.077762 
L 372.482403 291.390548 
L 372.888729 286.865012 
L 373.295055 285.981458 
L 373.701381 289.544132 
L 374.107707 283.552914 
L 374.514033 282.70827 
L 374.92036 284.066253 
L 375.326686 288.062108 
L 375.733012 281.396867 
L 376.139338 286.094972 
L 376.545664 279.693548 
L 376.95199 289.414348 
L 377.358316 287.021554 
L 377.764642 286.453013 
L 378.170968 292.07856 
L 378.577294 289.693588 
L 378.98362 284.761904 
L 379.389947 289.444309 
L 379.796273 291.801878 
L 380.202599 290.927818 
L 380.608925 291.545345 
L 381.015251 283.63479 
L 381.421577 284.050474 
L 381.827903 292.389394 
L 382.234229 290.371835 
L 382.640555 291.65463 
L 383.046881 282.375518 
L 383.453207 292.58546 
L 383.859534 293.843723 
L 384.26586 278.850363 
L 384.672186 292.432059 
L 385.078512 288.970553 
L 385.484838 280.886029 
L 385.891164 289.136465 
L 386.29749 283.027934 
L 386.703816 290.888842 
L 387.110142 285.864012 
L 387.516468 283.124645 
L 387.922794 282.640519 
L 388.32912 291.330625 
L 388.735447 291.290203 
L 389.141773 290.966407 
L 389.548099 291.846246 
L 389.954425 287.699087 
L 390.360751 290.880916 
L 390.767077 281.097511 
L 391.173403 287.371263 
L 391.579729 285.493273 
L 391.986055 284.904311 
L 392.392381 282.816122 
L 392.798707 285.878057 
L 393.205034 291.518848 
L 393.61136 288.039088 
L 394.017686 286.256099 
L 394.424012 286.638236 
L 394.830338 289.251312 
L 395.236664 295.393291 
L 396.049316 289.81168 
L 396.455642 287.913387 
L 396.861968 283.032302 
L 397.268294 290.711869 
L 397.674621 284.979318 
L 398.080947 286.030906 
L 398.487273 285.282462 
L 398.487273 285.282462 
" style="fill:none;stroke:#1f77b4;stroke-linecap:square;stroke-width:1.5;"/>
   </g>
   <g id="line2d_18">
    <path clip-path="url(#pb0d7cd1b0b)" d="M 73.832727 180.510722 
L 74.239053 183.577217 
L 74.645379 199.122129 
L 75.051706 200.286363 
L 75.458032 206.628685 
L 75.864358 208.818652 
L 76.270684 219.870146 
L 76.67701 217.054649 
L 77.489662 221.850388 
L 77.895988 77.0109 
L 78.302314 222.101662 
L 78.70864 231.418326 
L 79.114966 229.099584 
L 79.521293 227.992484 
L 80.333945 233.922464 
L 80.740271 235.737112 
L 81.146597 235.065988 
L 81.552923 236.394233 
L 82.365575 244.67128 
L 82.771901 245.416272 
L 83.178227 241.386882 
L 83.584553 232.580807 
L 83.99088 248.939411 
L 84.397206 242.742283 
L 84.803532 244.2402 
L 85.209858 243.019088 
L 85.616184 241.132474 
L 86.02251 247.251518 
L 86.428836 245.113108 
L 86.835162 53.568 
L 87.241488 250.054293 
L 87.647814 250.909851 
L 88.05414 249.752028 
L 88.460466 246.945107 
L 89.273119 254.49106 
L 89.679445 250.444668 
L 90.085771 255.088019 
L 90.492097 254.490502 
L 90.898423 253.363587 
L 91.304749 249.851187 
L 91.711075 254.350287 
L 92.117401 253.472743 
L 92.523727 254.295293 
L 92.930053 254.380694 
L 93.33638 253.95859 
L 93.742706 251.672554 
L 94.149032 257.492594 
L 94.555358 258.411978 
L 94.961684 261.096216 
L 95.36801 256.439341 
L 95.774336 261.754574 
L 96.180662 261.917941 
L 96.586988 260.669729 
L 96.993314 256.07999 
L 97.39964 259.025559 
L 98.212293 256.413371 
L 98.618619 257.419148 
L 99.024945 251.623078 
L 99.431271 254.670527 
L 99.837597 259.108082 
L 100.243923 256.763079 
L 100.650249 257.702197 
L 101.056575 261.699774 
L 101.462901 262.572955 
L 101.869227 262.306773 
L 102.275554 260.563261 
L 102.68188 257.848541 
L 103.088206 261.916395 
L 103.494532 254.500247 
L 103.900858 261.524823 
L 104.307184 262.016145 
L 104.71351 265.487216 
L 105.119836 261.281947 
L 105.526162 264.32068 
L 105.932488 262.82715 
L 106.338814 257.512927 
L 106.745141 266.325771 
L 107.151467 263.05067 
L 107.557793 262.611472 
L 107.964119 259.318252 
L 108.776771 262.327847 
L 109.183097 254.628452 
L 109.589423 264.289049 
L 109.995749 264.229624 
L 110.402075 258.212429 
L 110.808401 264.558863 
L 111.214728 259.192746 
L 112.02738 267.052986 
L 112.433706 267.660775 
L 112.840032 261.825474 
L 113.246358 265.474723 
L 113.652684 266.212831 
L 114.05901 261.779295 
L 114.465336 261.414872 
L 114.871662 262.889135 
L 115.277988 265.748433 
L 115.684314 262.833942 
L 116.090641 262.66643 
L 116.496967 264.639268 
L 116.903293 265.027699 
L 117.309619 265.076952 
L 117.715945 269.16412 
L 118.122271 268.985009 
L 118.528597 266.598164 
L 118.934923 260.36384 
L 119.341249 265.438522 
L 119.747575 265.164518 
L 120.153901 264.176399 
L 120.560228 264.497719 
L 120.966554 263.081004 
L 121.37288 266.454815 
L 121.779206 265.837085 
L 122.185532 264.052072 
L 122.591858 265.937594 
L 122.998184 266.18843 
L 123.810836 271.626855 
L 124.217162 266.47636 
L 124.623488 267.33933 
L 125.029815 270.078548 
L 125.436141 266.417981 
L 125.842467 268.187433 
L 126.248793 263.274802 
L 126.655119 269.351582 
L 127.061445 265.59174 
L 127.467771 263.598365 
L 127.874097 259.901395 
L 128.280423 269.469015 
L 128.686749 265.392758 
L 129.499402 268.77097 
L 129.905728 265.775008 
L 130.312054 265.250733 
L 131.124706 271.121473 
L 131.531032 269.935358 
L 131.937358 265.317356 
L 132.343684 265.94419 
L 132.75001 265.573486 
L 133.156336 267.782225 
L 133.562662 266.993305 
L 133.968989 271.268506 
L 134.375315 270.576719 
L 134.781641 270.846141 
L 135.187967 268.59231 
L 135.594293 262.574055 
L 136.000619 265.775678 
L 136.406945 267.853267 
L 136.813271 271.615811 
L 137.219597 270.194821 
L 137.625923 272.88327 
L 138.032249 266.473058 
L 138.438575 267.785746 
L 138.844902 274.118992 
L 139.251228 268.730385 
L 139.657554 270.662859 
L 140.06388 266.09794 
L 140.470206 266.410541 
L 140.876532 271.745397 
L 141.282858 275.098829 
L 142.09551 264.731941 
L 142.501836 266.910752 
L 142.908162 270.076907 
L 143.314489 268.376809 
L 143.720815 266.003149 
L 144.127141 268.495844 
L 144.533467 266.129246 
L 145.346119 271.850885 
L 145.752445 271.120558 
L 146.158771 271.502046 
L 146.565097 263.935119 
L 146.971423 265.625259 
L 147.377749 268.239144 
L 147.784076 274.070927 
L 148.190402 274.901645 
L 148.596728 273.706683 
L 149.003054 273.165104 
L 149.40938 271.654989 
L 149.815706 268.713073 
L 150.222032 276.134819 
L 151.034684 266.821416 
L 151.44101 271.453452 
L 151.847336 269.906135 
L 152.253663 272.397914 
L 152.659989 269.411896 
L 153.066315 271.309918 
L 153.472641 272.320113 
L 153.878967 271.508016 
L 154.285293 269.971885 
L 154.691619 272.497073 
L 155.097945 269.039968 
L 155.504271 264.221768 
L 155.910597 274.706147 
L 156.316923 274.611965 
L 156.72325 270.588588 
L 157.129576 271.559603 
L 157.535902 269.905516 
L 158.348554 274.750715 
L 158.75488 274.946185 
L 159.161206 270.302323 
L 159.567532 269.542575 
L 159.973858 272.141926 
L 160.380184 272.612886 
L 160.78651 270.301315 
L 161.192837 274.620497 
L 161.599163 275.373112 
L 162.005489 272.723451 
L 162.411815 278.360708 
L 162.818141 271.302873 
L 163.224467 272.379333 
L 163.630793 271.480515 
L 164.037119 270.919701 
L 164.443445 271.597349 
L 164.849771 267.432276 
L 165.256097 276.787389 
L 165.662423 275.145228 
L 166.06875 276.247905 
L 166.475076 272.140054 
L 166.881402 271.964654 
L 167.287728 266.901317 
L 167.694054 269.129714 
L 168.10038 268.919549 
L 168.506706 271.333931 
L 168.913032 268.754322 
L 169.319358 275.845573 
L 169.725684 272.678942 
L 170.13201 276.819413 
L 170.538337 267.315471 
L 170.944663 276.022844 
L 171.350989 272.247705 
L 171.757315 278.24621 
L 172.163641 273.847956 
L 172.569967 271.187742 
L 172.976293 278.408122 
L 173.382619 274.523547 
L 173.788945 273.07157 
L 174.195271 274.048808 
L 174.601597 280.443947 
L 175.007924 277.705172 
L 175.41425 271.870784 
L 175.820576 272.198535 
L 176.226902 269.033447 
L 177.039554 275.040983 
L 177.852206 272.943029 
L 178.258532 272.445935 
L 178.664858 271.207647 
L 179.071184 272.905317 
L 179.477511 273.591807 
L 179.883837 273.733978 
L 180.290163 271.443445 
L 180.696489 274.292972 
L 181.102815 273.912163 
L 181.509141 275.098868 
L 181.915467 273.433902 
L 182.321793 275.42469 
L 182.728119 276.053971 
L 183.134445 274.48621 
L 183.540771 273.477604 
L 184.75975 272.924718 
L 185.166076 276.693009 
L 185.572402 271.086928 
L 185.978728 273.717218 
L 186.385054 275.086785 
L 186.79138 272.191532 
L 187.197706 275.228705 
L 187.604032 269.352991 
L 188.010358 273.204232 
L 188.416684 269.504064 
L 188.823011 274.95157 
L 189.229337 273.77016 
L 189.635663 273.936941 
L 190.041989 269.125565 
L 190.448315 277.810132 
L 190.854641 273.347889 
L 191.667293 275.020387 
L 192.073619 279.313188 
L 192.479945 278.330986 
L 192.886271 274.325791 
L 193.292598 276.759016 
L 193.698924 281.046313 
L 194.10525 272.85535 
L 194.511576 278.420357 
L 194.917902 276.284775 
L 195.730554 281.641693 
L 196.13688 276.966395 
L 196.543206 279.338204 
L 196.949532 272.706159 
L 197.355858 281.550273 
L 197.762185 278.907636 
L 198.168511 269.262316 
L 198.981163 277.952928 
L 199.387489 277.309981 
L 199.793815 277.050742 
L 200.200141 276.045183 
L 200.606467 278.964336 
L 201.012793 276.095118 
L 201.419119 281.128708 
L 201.825445 273.935419 
L 202.638098 279.812168 
L 203.044424 278.077503 
L 203.45075 279.943418 
L 203.857076 279.944709 
L 204.263402 273.570344 
L 205.076054 280.341038 
L 205.48238 277.995598 
L 205.888706 276.417602 
L 206.295032 278.581701 
L 206.701359 276.094163 
L 207.107685 278.763086 
L 207.514011 278.414625 
L 207.920337 278.837561 
L 208.326663 280.11256 
L 208.732989 279.156194 
L 209.139315 277.910975 
L 209.545641 274.80348 
L 209.951967 279.549021 
L 210.358293 279.091587 
L 210.764619 275.874663 
L 211.170946 274.132296 
L 211.983598 284.059284 
L 212.389924 276.36546 
L 212.79625 276.723656 
L 213.202576 283.333899 
L 213.608902 271.759314 
L 214.015228 281.130764 
L 214.421554 280.07219 
L 214.82788 279.685026 
L 215.234206 281.138354 
L 215.640532 279.491988 
L 216.046859 279.332147 
L 216.453185 276.859634 
L 216.859511 278.431609 
L 217.265837 284.729692 
L 217.672163 280.326841 
L 218.078489 281.284455 
L 218.484815 272.040016 
L 218.891141 279.081335 
L 219.297467 280.637014 
L 219.703793 280.385419 
L 220.110119 278.466246 
L 220.516446 282.122066 
L 220.922772 277.814255 
L 221.329098 276.105336 
L 221.735424 278.541834 
L 222.14175 279.188475 
L 222.548076 286.361243 
L 222.954402 280.072371 
L 223.360728 281.297521 
L 223.767054 280.913752 
L 224.17338 278.010521 
L 224.579706 280.369068 
L 224.986033 285.30605 
L 225.392359 281.171582 
L 225.798685 275.729788 
L 226.205011 281.646513 
L 227.017663 275.361874 
L 227.423989 279.154071 
L 227.830315 275.876357 
L 228.236641 273.909178 
L 228.642967 278.660213 
L 229.049293 276.704192 
L 229.45562 278.967917 
L 229.861946 277.693403 
L 230.268272 282.397406 
L 230.674598 272.700132 
L 231.080924 276.134116 
L 231.48725 278.397978 
L 231.893576 278.855912 
L 232.299902 277.515193 
L 232.706228 282.86355 
L 233.112554 281.791667 
L 233.51888 270.439723 
L 233.925207 283.881204 
L 234.331533 273.842471 
L 234.737859 281.62763 
L 235.550511 277.340721 
L 235.956837 282.175874 
L 236.363163 276.074226 
L 236.769489 272.908449 
L 237.175815 280.472678 
L 237.582141 274.602555 
L 237.988467 277.72767 
L 238.394793 278.736795 
L 239.207446 284.610928 
L 239.613772 280.835232 
L 240.020098 278.619939 
L 240.426424 277.9239 
L 240.83275 280.334318 
L 241.239076 284.403054 
L 241.645402 282.737435 
L 242.051728 282.86091 
L 242.458054 274.600498 
L 242.86438 280.288878 
L 243.270707 280.884583 
L 243.677033 283.311579 
L 244.083359 276.658325 
L 244.489685 283.110803 
L 244.896011 284.628362 
L 245.708663 275.587234 
L 246.114989 281.127869 
L 246.521315 280.04118 
L 246.927641 277.88296 
L 247.333967 278.959645 
L 247.740294 278.234945 
L 248.14662 281.434002 
L 248.552946 280.486713 
L 248.959272 280.44161 
L 249.771924 276.941468 
L 250.584576 283.556097 
L 250.990902 279.327586 
L 251.397228 280.803197 
L 251.803554 277.467303 
L 252.209881 277.643662 
L 252.616207 283.659644 
L 253.022533 283.104559 
L 253.428859 278.631426 
L 253.835185 281.313158 
L 254.241511 279.378695 
L 254.647837 278.077532 
L 255.054163 273.85216 
L 255.460489 282.426373 
L 255.866815 287.222583 
L 256.679468 277.244991 
L 257.085794 274.753652 
L 257.49212 273.207856 
L 257.898446 282.805255 
L 258.304772 284.958043 
L 258.711098 279.393405 
L 259.117424 282.89968 
L 259.52375 277.482015 
L 259.930076 278.798852 
L 260.336402 284.978625 
L 260.742728 279.757542 
L 261.149054 282.413494 
L 261.555381 283.28586 
L 261.961707 280.564666 
L 262.368033 278.825903 
L 262.774359 274.796501 
L 263.180685 274.876471 
L 264.399663 280.728015 
L 264.805989 281.392094 
L 265.212315 284.128872 
L 265.618641 279.986918 
L 266.024968 284.083533 
L 266.431294 286.265492 
L 266.83762 276.726253 
L 267.243946 281.658818 
L 267.650272 279.698151 
L 268.056598 280.600264 
L 268.462924 280.806465 
L 268.86925 281.672128 
L 269.275576 277.717595 
L 269.681902 278.354099 
L 270.088228 275.148699 
L 270.494555 282.106803 
L 270.900881 281.504247 
L 271.307207 281.823597 
L 271.713533 284.247604 
L 272.119859 281.950247 
L 272.526185 274.036375 
L 272.932511 276.627293 
L 273.338837 281.62259 
L 273.745163 279.962205 
L 274.151489 283.252556 
L 274.557815 281.128067 
L 274.964142 283.902133 
L 276.18312 281.219952 
L 276.589446 278.306393 
L 276.995772 276.528318 
L 277.402098 286.504703 
L 277.808424 284.03369 
L 278.21475 283.85846 
L 278.621076 277.452414 
L 279.027402 283.175935 
L 279.433729 282.758829 
L 280.246381 285.839569 
L 280.652707 279.589916 
L 281.059033 282.890555 
L 281.465359 284.793097 
L 281.871685 282.293806 
L 282.278011 283.754597 
L 282.684337 284.342962 
L 283.090663 286.020998 
L 283.496989 284.87741 
L 283.903316 281.11855 
L 284.309642 275.732662 
L 284.715968 281.945632 
L 285.122294 283.799499 
L 285.52862 280.918486 
L 285.934946 281.943036 
L 286.341272 282.098031 
L 286.747598 279.408793 
L 287.153924 283.072767 
L 287.56025 282.03035 
L 287.966576 280.547252 
L 288.372902 281.419106 
L 288.779229 279.344292 
L 289.185555 283.690868 
L 289.591881 282.964987 
L 289.998207 282.846246 
L 290.404533 288.082861 
L 290.810859 280.071593 
L 291.217185 279.359747 
L 291.623511 279.931204 
L 292.029837 278.176925 
L 292.436163 282.202213 
L 292.842489 282.064268 
L 293.248816 277.995368 
L 293.655142 280.741516 
L 294.061468 280.718973 
L 294.467794 284.283353 
L 294.87412 281.222478 
L 295.280446 274.68745 
L 295.686772 281.547251 
L 296.093098 284.568884 
L 296.499424 288.62033 
L 296.90575 280.555921 
L 297.312076 282.253391 
L 297.718403 281.532697 
L 298.124729 285.102519 
L 298.531055 282.530378 
L 298.937381 280.849258 
L 299.343707 280.827705 
L 299.750033 280.600353 
L 300.156359 262.558359 
L 300.562685 276.682761 
L 300.969011 278.397498 
L 301.375337 278.104473 
L 301.781663 281.578405 
L 302.18799 283.614508 
L 302.594316 278.387309 
L 303.000642 279.226889 
L 303.406968 280.948312 
L 303.813294 286.208032 
L 304.21962 281.38015 
L 304.625946 279.390573 
L 305.032272 276.674597 
L 305.438598 276.183654 
L 305.844924 267.685612 
L 306.25125 280.878068 
L 306.657577 280.153143 
L 307.063903 282.398105 
L 307.470229 281.10178 
L 307.876555 283.035551 
L 308.282881 279.97785 
L 308.689207 282.488359 
L 309.095533 283.056351 
L 309.501859 282.883111 
L 309.908185 284.072058 
L 310.314511 283.336841 
L 310.720837 277.480965 
L 311.127163 282.781803 
L 311.53349 279.530082 
L 311.939816 278.673874 
L 312.346142 276.308473 
L 313.158794 282.025418 
L 313.56512 280.105432 
L 313.971446 278.881327 
L 314.377772 282.38398 
L 314.784098 280.865077 
L 315.190424 284.029243 
L 315.59675 280.72873 
L 316.003077 279.208394 
L 316.409403 276.347261 
L 316.815729 281.427944 
L 317.222055 288.047976 
L 317.628381 281.224894 
L 318.034707 280.871119 
L 318.441033 280.316713 
L 318.847359 280.734641 
L 319.253685 277.794941 
L 319.660011 283.248714 
L 320.066337 283.097356 
L 320.472664 272.03076 
L 320.87899 282.263405 
L 322.097968 275.522969 
L 322.504294 281.370272 
L 322.91062 279.780622 
L 323.316946 279.099888 
L 323.723272 275.556948 
L 324.129598 277.971759 
L 324.535924 282.979602 
L 324.942251 285.235259 
L 325.754903 277.905973 
L 326.161229 287.302696 
L 326.567555 284.487861 
L 326.973881 277.47259 
L 327.380207 277.189856 
L 327.786533 279.976205 
L 328.192859 287.045214 
L 328.599185 283.016434 
L 329.005511 280.369311 
L 329.411838 280.324264 
L 329.818164 282.777748 
L 330.22449 282.519757 
L 330.630816 281.452286 
L 331.037142 276.663549 
L 331.443468 280.194151 
L 331.849794 284.913337 
L 332.25612 279.456146 
L 332.662446 281.433106 
L 333.068772 285.79492 
L 333.475098 272.73596 
L 333.881425 285.510806 
L 334.287751 282.252249 
L 334.694077 283.421574 
L 335.100403 282.113355 
L 335.506729 282.169021 
L 335.913055 279.863366 
L 336.319381 279.799034 
L 336.725707 281.348465 
L 337.132033 285.131017 
L 337.538359 282.320589 
L 337.944685 277.773011 
L 338.351011 282.766103 
L 338.757338 285.112632 
L 339.56999 280.646673 
L 339.976316 286.210003 
L 340.382642 277.89448 
L 340.788968 280.451094 
L 341.195294 279.516296 
L 341.60162 281.703208 
L 342.007946 282.911977 
L 342.414272 282.378562 
L 342.820598 284.165163 
L 343.226925 282.929796 
L 343.633251 282.539758 
L 344.039577 275.494679 
L 344.445903 281.066802 
L 344.852229 281.794423 
L 345.258555 283.013102 
L 345.664881 289.057016 
L 346.071207 277.600704 
L 346.477533 278.125657 
L 346.883859 277.518775 
L 347.696512 282.414738 
L 348.102838 281.085657 
L 348.509164 286.123714 
L 349.321816 278.090345 
L 349.728142 286.948165 
L 350.134468 279.42403 
L 350.540794 281.615462 
L 350.94712 276.729128 
L 351.353446 281.200699 
L 351.759772 282.005339 
L 352.166099 278.019498 
L 352.572425 279.844158 
L 352.978751 276.153528 
L 353.385077 280.761414 
L 353.791403 276.945516 
L 354.197729 276.493101 
L 354.604055 279.088971 
L 355.010381 277.453029 
L 355.416707 279.226677 
L 355.823033 273.633529 
L 356.229359 282.273726 
L 356.635686 283.25682 
L 357.042012 282.888171 
L 357.448338 278.809267 
L 357.854664 283.124271 
L 358.26099 280.160133 
L 358.667316 283.705 
L 359.073642 278.537617 
L 359.479968 282.463864 
L 359.886294 280.375296 
L 360.29262 282.453274 
L 360.698946 283.866941 
L 361.105272 279.922681 
L 361.511599 271.817869 
L 361.917925 281.811514 
L 362.324251 278.859163 
L 362.730577 285.756966 
L 363.136903 279.287182 
L 363.543229 275.757694 
L 363.949555 288.278922 
L 364.762207 283.105961 
L 365.168533 272.255256 
L 365.574859 280.167306 
L 365.981186 276.513479 
L 366.387512 279.179244 
L 366.793838 285.28062 
L 367.200164 279.015616 
L 367.60649 281.246954 
L 368.012816 282.18028 
L 368.419142 281.949231 
L 368.825468 279.781954 
L 369.231794 286.178952 
L 369.63812 280.259037 
L 370.044446 278.706344 
L 370.450773 282.575135 
L 370.857099 284.035672 
L 371.263425 284.03949 
L 371.669751 280.117094 
L 372.482403 285.27014 
L 372.888729 281.781428 
L 373.295055 288.195058 
L 373.701381 285.225075 
L 374.107707 280.079836 
L 374.514033 280.700823 
L 374.92036 280.98752 
L 375.733012 285.211128 
L 376.139338 280.223221 
L 376.545664 279.484692 
L 376.95199 287.837772 
L 377.358316 280.773137 
L 377.764642 276.653928 
L 378.170968 285.241569 
L 378.577294 284.671955 
L 378.98362 274.933479 
L 379.389947 283.729747 
L 379.796273 281.135852 
L 380.202599 282.376924 
L 380.608925 280.926353 
L 381.015251 282.170073 
L 381.421577 282.722717 
L 381.827903 283.826652 
L 382.234229 279.553978 
L 382.640555 278.610473 
L 383.046881 281.632184 
L 383.453207 282.230472 
L 383.859534 284.781342 
L 384.26586 282.091877 
L 384.672186 284.221607 
L 385.078512 275.079743 
L 385.484838 280.942532 
L 385.891164 282.405113 
L 386.29749 278.167239 
L 386.703816 284.757736 
L 387.110142 283.248585 
L 387.516468 280.69898 
L 387.922794 282.085817 
L 388.32912 277.91672 
L 388.735447 282.670701 
L 389.141773 281.963294 
L 389.548099 279.951437 
L 389.954425 281.010212 
L 390.360751 285.144728 
L 390.767077 282.845928 
L 391.173403 277.199816 
L 391.579729 280.422391 
L 391.986055 281.575844 
L 392.392381 279.542103 
L 392.798707 285.719246 
L 393.205034 281.273374 
L 393.61136 280.928143 
L 394.017686 279.750496 
L 394.424012 284.274729 
L 394.830338 278.881462 
L 395.236664 286.860006 
L 395.64299 281.621841 
L 396.455642 280.114757 
L 396.861968 282.027266 
L 397.268294 273.307228 
L 397.674621 285.580917 
L 398.080947 275.682802 
L 398.487273 285.562767 
L 398.487273 285.562767 
" style="fill:none;stroke:#ff7f0e;stroke-linecap:square;stroke-width:1.5;"/>
   </g>
   <g id="patch_3">
    <path d="M 57.6 307.584 
L 57.6 41.472 
" style="fill:none;stroke:#000000;stroke-linecap:square;stroke-linejoin:miter;stroke-width:0.8;"/>
   </g>
   <g id="patch_4">
    <path d="M 414.72 307.584 
L 414.72 41.472 
" style="fill:none;stroke:#000000;stroke-linecap:square;stroke-linejoin:miter;stroke-width:0.8;"/>
   </g>
   <g id="patch_5">
    <path d="M 57.6 307.584 
L 414.72 307.584 
" style="fill:none;stroke:#000000;stroke-linecap:square;stroke-linejoin:miter;stroke-width:0.8;"/>
   </g>
   <g id="patch_6">
    <path d="M 57.6 41.472 
L 414.72 41.472 
" style="fill:none;stroke:#000000;stroke-linecap:square;stroke-linejoin:miter;stroke-width:0.8;"/>
   </g>
   <g id="legend_1">
    <g id="patch_7">
     <path d="M 303.845 78.82825 
L 407.72 78.82825 
Q 409.72 78.82825 409.72 76.82825 
L 409.72 48.472 
Q 409.72 46.472 407.72 46.472 
L 303.845 46.472 
Q 301.845 46.472 301.845 48.472 
L 301.845 76.82825 
Q 301.845 78.82825 303.845 78.82825 
z
" style="fill:#ffffff;opacity:0.8;stroke:#cccccc;stroke-linejoin:miter;"/>
    </g>
    <g id="line2d_19">
     <path d="M 305.845 54.570437 
L 325.845 54.570437 
" style="fill:none;stroke:#1f77b4;stroke-linecap:square;stroke-width:1.5;"/>
    </g>
    <g id="line2d_20"/>
    <g id="text_18">
     <!-- Train loss -->
     <g transform="translate(333.845 58.070437)scale(0.1 -0.1)">
      <defs>
       <path d="M -19 4666 
L 3928 4666 
L 3928 4134 
L 2272 4134 
L 2272 0 
L 1638 0 
L 1638 4134 
L -19 4134 
L -19 4666 
z
" id="DejaVuSans-54" transform="scale(0.015625)"/>
       <path d="M 2631 2963 
Q 2534 3019 2420 3045 
Q 2306 3072 2169 3072 
Q 1681 3072 1420 2755 
Q 1159 2438 1159 1844 
L 1159 0 
L 581 0 
L 581 3500 
L 1159 3500 
L 1159 2956 
Q 1341 3275 1631 3429 
Q 1922 3584 2338 3584 
Q 2397 3584 2469 3576 
Q 2541 3569 2628 3553 
L 2631 2963 
z
" id="DejaVuSans-72" transform="scale(0.015625)"/>
       <path d="M 2194 1759 
Q 1497 1759 1228 1600 
Q 959 1441 959 1056 
Q 959 750 1161 570 
Q 1363 391 1709 391 
Q 2188 391 2477 730 
Q 2766 1069 2766 1631 
L 2766 1759 
L 2194 1759 
z
M 3341 1997 
L 3341 0 
L 2766 0 
L 2766 531 
Q 2569 213 2275 61 
Q 1981 -91 1556 -91 
Q 1019 -91 701 211 
Q 384 513 384 1019 
Q 384 1609 779 1909 
Q 1175 2209 1959 2209 
L 2766 2209 
L 2766 2266 
Q 2766 2663 2505 2880 
Q 2244 3097 1772 3097 
Q 1472 3097 1187 3025 
Q 903 2953 641 2809 
L 641 3341 
Q 956 3463 1253 3523 
Q 1550 3584 1831 3584 
Q 2591 3584 2966 3190 
Q 3341 2797 3341 1997 
z
" id="DejaVuSans-61" transform="scale(0.015625)"/>
       <path d="M 603 3500 
L 1178 3500 
L 1178 0 
L 603 0 
L 603 3500 
z
M 603 4863 
L 1178 4863 
L 1178 4134 
L 603 4134 
L 603 4863 
z
" id="DejaVuSans-69" transform="scale(0.015625)"/>
       <path d="M 3513 2113 
L 3513 0 
L 2938 0 
L 2938 2094 
Q 2938 2591 2744 2837 
Q 2550 3084 2163 3084 
Q 1697 3084 1428 2787 
Q 1159 2491 1159 1978 
L 1159 0 
L 581 0 
L 581 3500 
L 1159 3500 
L 1159 2956 
Q 1366 3272 1645 3428 
Q 1925 3584 2291 3584 
Q 2894 3584 3203 3211 
Q 3513 2838 3513 2113 
z
" id="DejaVuSans-6e" transform="scale(0.015625)"/>
       <path id="DejaVuSans-20" transform="scale(0.015625)"/>
       <path d="M 603 4863 
L 1178 4863 
L 1178 0 
L 603 0 
L 603 4863 
z
" id="DejaVuSans-6c" transform="scale(0.015625)"/>
       <path d="M 2834 3397 
L 2834 2853 
Q 2591 2978 2328 3040 
Q 2066 3103 1784 3103 
Q 1356 3103 1142 2972 
Q 928 2841 928 2578 
Q 928 2378 1081 2264 
Q 1234 2150 1697 2047 
L 1894 2003 
Q 2506 1872 2764 1633 
Q 3022 1394 3022 966 
Q 3022 478 2636 193 
Q 2250 -91 1575 -91 
Q 1294 -91 989 -36 
Q 684 19 347 128 
L 347 722 
Q 666 556 975 473 
Q 1284 391 1588 391 
Q 1994 391 2212 530 
Q 2431 669 2431 922 
Q 2431 1156 2273 1281 
Q 2116 1406 1581 1522 
L 1381 1569 
Q 847 1681 609 1914 
Q 372 2147 372 2553 
Q 372 3047 722 3315 
Q 1072 3584 1716 3584 
Q 2034 3584 2315 3537 
Q 2597 3491 2834 3397 
z
" id="DejaVuSans-73" transform="scale(0.015625)"/>
      </defs>
      <use xlink:href="#DejaVuSans-54"/>
      <use x="46.333984" xlink:href="#DejaVuSans-72"/>
      <use x="87.447266" xlink:href="#DejaVuSans-61"/>
      <use x="148.726562" xlink:href="#DejaVuSans-69"/>
      <use x="176.509766" xlink:href="#DejaVuSans-6e"/>
      <use x="239.888672" xlink:href="#DejaVuSans-20"/>
      <use x="271.675781" xlink:href="#DejaVuSans-6c"/>
      <use x="299.458984" xlink:href="#DejaVuSans-6f"/>
      <use x="360.640625" xlink:href="#DejaVuSans-73"/>
      <use x="412.740234" xlink:href="#DejaVuSans-73"/>
     </g>
    </g>
    <g id="line2d_21">
     <path d="M 305.845 69.248562 
L 325.845 69.248562 
" style="fill:none;stroke:#ff7f0e;stroke-linecap:square;stroke-width:1.5;"/>
    </g>
    <g id="line2d_22"/>
    <g id="text_19">
     <!-- Validation loss -->
     <g transform="translate(333.845 72.748562)scale(0.1 -0.1)">
      <defs>
       <path d="M 1831 0 
L 50 4666 
L 709 4666 
L 2188 738 
L 3669 4666 
L 4325 4666 
L 2547 0 
L 1831 0 
z
" id="DejaVuSans-56" transform="scale(0.015625)"/>
       <path d="M 2906 2969 
L 2906 4863 
L 3481 4863 
L 3481 0 
L 2906 0 
L 2906 525 
Q 2725 213 2448 61 
Q 2172 -91 1784 -91 
Q 1150 -91 751 415 
Q 353 922 353 1747 
Q 353 2572 751 3078 
Q 1150 3584 1784 3584 
Q 2172 3584 2448 3432 
Q 2725 3281 2906 2969 
z
M 947 1747 
Q 947 1113 1208 752 
Q 1469 391 1925 391 
Q 2381 391 2643 752 
Q 2906 1113 2906 1747 
Q 2906 2381 2643 2742 
Q 2381 3103 1925 3103 
Q 1469 3103 1208 2742 
Q 947 2381 947 1747 
z
" id="DejaVuSans-64" transform="scale(0.015625)"/>
       <path d="M 1172 4494 
L 1172 3500 
L 2356 3500 
L 2356 3053 
L 1172 3053 
L 1172 1153 
Q 1172 725 1289 603 
Q 1406 481 1766 481 
L 2356 481 
L 2356 0 
L 1766 0 
Q 1100 0 847 248 
Q 594 497 594 1153 
L 594 3053 
L 172 3053 
L 172 3500 
L 594 3500 
L 594 4494 
L 1172 4494 
z
" id="DejaVuSans-74" transform="scale(0.015625)"/>
      </defs>
      <use xlink:href="#DejaVuSans-56"/>
      <use x="60.658203" xlink:href="#DejaVuSans-61"/>
      <use x="121.9375" xlink:href="#DejaVuSans-6c"/>
      <use x="149.720703" xlink:href="#DejaVuSans-69"/>
      <use x="177.503906" xlink:href="#DejaVuSans-64"/>
      <use x="240.980469" xlink:href="#DejaVuSans-61"/>
      <use x="302.259766" xlink:href="#DejaVuSans-74"/>
      <use x="341.46875" xlink:href="#DejaVuSans-69"/>
      <use x="369.251953" xlink:href="#DejaVuSans-6f"/>
      <use x="430.433594" xlink:href="#DejaVuSans-6e"/>
      <use x="493.8125" xlink:href="#DejaVuSans-20"/>
      <use x="525.599609" xlink:href="#DejaVuSans-6c"/>
      <use x="553.382812" xlink:href="#DejaVuSans-6f"/>
      <use x="614.564453" xlink:href="#DejaVuSans-73"/>
      <use x="666.664062" xlink:href="#DejaVuSans-73"/>
     </g>
    </g>
   </g>
  </g>
 </g>
 <defs>
  <clipPath id="pb0d7cd1b0b">
   <rect height="266.112" width="357.12" x="57.6" y="41.472"/>
  </clipPath>
 </defs>
</svg>
