<?xml version="1.0" encoding="utf-8" standalone="no"?>
<!DOCTYPE svg PUBLIC "-//W3C//DTD SVG 1.1//EN"
  "http://www.w3.org/Graphics/SVG/1.1/DTD/svg11.dtd">
<svg height="345.6pt" version="1.1" viewBox="0 0 460.8 345.6" width="460.8pt" xmlns="http://www.w3.org/2000/svg" xmlns:xlink="http://www.w3.org/1999/xlink">
 <metadata>
  <rdf:RDF xmlns:cc="http://creativecommons.org/ns#" xmlns:dc="http://purl.org/dc/elements/1.1/" xmlns:rdf="http://www.w3.org/1999/02/22-rdf-syntax-ns#">
   <cc:Work>
    <dc:type rdf:resource="http://purl.org/dc/dcmitype/StillImage"/>
    <dc:date>2021-07-15T16:44:58.549231</dc:date>
    <dc:format>image/svg+xml</dc:format>
    <dc:creator>
     <cc:Agent>
      <dc:title>Matplotlib v3.4.2, https://matplotlib.org/</dc:title>
     </cc:Agent>
    </dc:creator>
   </cc:Work>
  </rdf:RDF>
 </metadata>
 <defs>
  <style type="text/css">*{stroke-linecap:butt;stroke-linejoin:round;}</style>
 </defs>
 <g id="figure_1">
  <g id="patch_1">
   <path d="M 0 345.6 
L 460.8 345.6 
L 460.8 0 
L 0 0 
z
" style="fill:#ffffff;"/>
  </g>
  <g id="axes_1">
   <g id="patch_2">
    <path d="M 57.6 307.584 
L 414.72 307.584 
L 414.72 41.472 
L 57.6 41.472 
z
" style="fill:#ffffff;"/>
   </g>
   <g id="matplotlib.axis_1">
    <g id="xtick_1">
     <g id="line2d_1">
      <defs>
       <path d="M 0 0 
L 0 3.5 
" id="md1370a031a" style="stroke:#000000;stroke-width:0.8;"/>
      </defs>
      <g>
       <use style="stroke:#000000;stroke-width:0.8;" x="73.019057" xlink:href="#md1370a031a" y="307.584"/>
      </g>
     </g>
     <g id="text_1">
      <!-- 0 -->
      <g transform="translate(69.837807 322.182437)scale(0.1 -0.1)">
       <defs>
        <path d="M 2034 4250 
Q 1547 4250 1301 3770 
Q 1056 3291 1056 2328 
Q 1056 1369 1301 889 
Q 1547 409 2034 409 
Q 2525 409 2770 889 
Q 3016 1369 3016 2328 
Q 3016 3291 2770 3770 
Q 2525 4250 2034 4250 
z
M 2034 4750 
Q 2819 4750 3233 4129 
Q 3647 3509 3647 2328 
Q 3647 1150 3233 529 
Q 2819 -91 2034 -91 
Q 1250 -91 836 529 
Q 422 1150 422 2328 
Q 422 3509 836 4129 
Q 1250 4750 2034 4750 
z
" id="DejaVuSans-30" transform="scale(0.015625)"/>
       </defs>
       <use xlink:href="#DejaVuSans-30"/>
      </g>
     </g>
    </g>
    <g id="xtick_2">
     <g id="line2d_2">
      <g>
       <use style="stroke:#000000;stroke-width:0.8;" x="113.702584" xlink:href="#md1370a031a" y="307.584"/>
      </g>
     </g>
     <g id="text_2">
      <!-- 50 -->
      <g transform="translate(107.340084 322.182437)scale(0.1 -0.1)">
       <defs>
        <path d="M 691 4666 
L 3169 4666 
L 3169 4134 
L 1269 4134 
L 1269 2991 
Q 1406 3038 1543 3061 
Q 1681 3084 1819 3084 
Q 2600 3084 3056 2656 
Q 3513 2228 3513 1497 
Q 3513 744 3044 326 
Q 2575 -91 1722 -91 
Q 1428 -91 1123 -41 
Q 819 9 494 109 
L 494 744 
Q 775 591 1075 516 
Q 1375 441 1709 441 
Q 2250 441 2565 725 
Q 2881 1009 2881 1497 
Q 2881 1984 2565 2268 
Q 2250 2553 1709 2553 
Q 1456 2553 1204 2497 
Q 953 2441 691 2322 
L 691 4666 
z
" id="DejaVuSans-35" transform="scale(0.015625)"/>
       </defs>
       <use xlink:href="#DejaVuSans-35"/>
       <use x="63.623047" xlink:href="#DejaVuSans-30"/>
      </g>
     </g>
    </g>
    <g id="xtick_3">
     <g id="line2d_3">
      <g>
       <use style="stroke:#000000;stroke-width:0.8;" x="154.386111" xlink:href="#md1370a031a" y="307.584"/>
      </g>
     </g>
     <g id="text_3">
      <!-- 100 -->
      <g transform="translate(144.842361 322.182437)scale(0.1 -0.1)">
       <defs>
        <path d="M 794 531 
L 1825 531 
L 1825 4091 
L 703 3866 
L 703 4441 
L 1819 4666 
L 2450 4666 
L 2450 531 
L 3481 531 
L 3481 0 
L 794 0 
L 794 531 
z
" id="DejaVuSans-31" transform="scale(0.015625)"/>
       </defs>
       <use xlink:href="#DejaVuSans-31"/>
       <use x="63.623047" xlink:href="#DejaVuSans-30"/>
       <use x="127.246094" xlink:href="#DejaVuSans-30"/>
      </g>
     </g>
    </g>
    <g id="xtick_4">
     <g id="line2d_4">
      <g>
       <use style="stroke:#000000;stroke-width:0.8;" x="195.069638" xlink:href="#md1370a031a" y="307.584"/>
      </g>
     </g>
     <g id="text_4">
      <!-- 150 -->
      <g transform="translate(185.525888 322.182437)scale(0.1 -0.1)">
       <use xlink:href="#DejaVuSans-31"/>
       <use x="63.623047" xlink:href="#DejaVuSans-35"/>
       <use x="127.246094" xlink:href="#DejaVuSans-30"/>
      </g>
     </g>
    </g>
    <g id="xtick_5">
     <g id="line2d_5">
      <g>
       <use style="stroke:#000000;stroke-width:0.8;" x="235.753165" xlink:href="#md1370a031a" y="307.584"/>
      </g>
     </g>
     <g id="text_5">
      <!-- 200 -->
      <g transform="translate(226.209415 322.182437)scale(0.1 -0.1)">
       <defs>
        <path d="M 1228 531 
L 3431 531 
L 3431 0 
L 469 0 
L 469 531 
Q 828 903 1448 1529 
Q 2069 2156 2228 2338 
Q 2531 2678 2651 2914 
Q 2772 3150 2772 3378 
Q 2772 3750 2511 3984 
Q 2250 4219 1831 4219 
Q 1534 4219 1204 4116 
Q 875 4013 500 3803 
L 500 4441 
Q 881 4594 1212 4672 
Q 1544 4750 1819 4750 
Q 2544 4750 2975 4387 
Q 3406 4025 3406 3419 
Q 3406 3131 3298 2873 
Q 3191 2616 2906 2266 
Q 2828 2175 2409 1742 
Q 1991 1309 1228 531 
z
" id="DejaVuSans-32" transform="scale(0.015625)"/>
       </defs>
       <use xlink:href="#DejaVuSans-32"/>
       <use x="63.623047" xlink:href="#DejaVuSans-30"/>
       <use x="127.246094" xlink:href="#DejaVuSans-30"/>
      </g>
     </g>
    </g>
    <g id="xtick_6">
     <g id="line2d_6">
      <g>
       <use style="stroke:#000000;stroke-width:0.8;" x="276.436692" xlink:href="#md1370a031a" y="307.584"/>
      </g>
     </g>
     <g id="text_6">
      <!-- 250 -->
      <g transform="translate(266.892942 322.182437)scale(0.1 -0.1)">
       <use xlink:href="#DejaVuSans-32"/>
       <use x="63.623047" xlink:href="#DejaVuSans-35"/>
       <use x="127.246094" xlink:href="#DejaVuSans-30"/>
      </g>
     </g>
    </g>
    <g id="xtick_7">
     <g id="line2d_7">
      <g>
       <use style="stroke:#000000;stroke-width:0.8;" x="317.120219" xlink:href="#md1370a031a" y="307.584"/>
      </g>
     </g>
     <g id="text_7">
      <!-- 300 -->
      <g transform="translate(307.576469 322.182437)scale(0.1 -0.1)">
       <defs>
        <path d="M 2597 2516 
Q 3050 2419 3304 2112 
Q 3559 1806 3559 1356 
Q 3559 666 3084 287 
Q 2609 -91 1734 -91 
Q 1441 -91 1130 -33 
Q 819 25 488 141 
L 488 750 
Q 750 597 1062 519 
Q 1375 441 1716 441 
Q 2309 441 2620 675 
Q 2931 909 2931 1356 
Q 2931 1769 2642 2001 
Q 2353 2234 1838 2234 
L 1294 2234 
L 1294 2753 
L 1863 2753 
Q 2328 2753 2575 2939 
Q 2822 3125 2822 3475 
Q 2822 3834 2567 4026 
Q 2313 4219 1838 4219 
Q 1578 4219 1281 4162 
Q 984 4106 628 3988 
L 628 4550 
Q 988 4650 1302 4700 
Q 1616 4750 1894 4750 
Q 2613 4750 3031 4423 
Q 3450 4097 3450 3541 
Q 3450 3153 3228 2886 
Q 3006 2619 2597 2516 
z
" id="DejaVuSans-33" transform="scale(0.015625)"/>
       </defs>
       <use xlink:href="#DejaVuSans-33"/>
       <use x="63.623047" xlink:href="#DejaVuSans-30"/>
       <use x="127.246094" xlink:href="#DejaVuSans-30"/>
      </g>
     </g>
    </g>
    <g id="xtick_8">
     <g id="line2d_8">
      <g>
       <use style="stroke:#000000;stroke-width:0.8;" x="357.803746" xlink:href="#md1370a031a" y="307.584"/>
      </g>
     </g>
     <g id="text_8">
      <!-- 350 -->
      <g transform="translate(348.259996 322.182437)scale(0.1 -0.1)">
       <use xlink:href="#DejaVuSans-33"/>
       <use x="63.623047" xlink:href="#DejaVuSans-35"/>
       <use x="127.246094" xlink:href="#DejaVuSans-30"/>
      </g>
     </g>
    </g>
    <g id="xtick_9">
     <g id="line2d_9">
      <g>
       <use style="stroke:#000000;stroke-width:0.8;" x="398.487273" xlink:href="#md1370a031a" y="307.584"/>
      </g>
     </g>
     <g id="text_9">
      <!-- 400 -->
      <g transform="translate(388.943523 322.182437)scale(0.1 -0.1)">
       <defs>
        <path d="M 2419 4116 
L 825 1625 
L 2419 1625 
L 2419 4116 
z
M 2253 4666 
L 3047 4666 
L 3047 1625 
L 3713 1625 
L 3713 1100 
L 3047 1100 
L 3047 0 
L 2419 0 
L 2419 1100 
L 313 1100 
L 313 1709 
L 2253 4666 
z
" id="DejaVuSans-34" transform="scale(0.015625)"/>
       </defs>
       <use xlink:href="#DejaVuSans-34"/>
       <use x="63.623047" xlink:href="#DejaVuSans-30"/>
       <use x="127.246094" xlink:href="#DejaVuSans-30"/>
      </g>
     </g>
    </g>
    <g id="text_10">
     <!-- Epoch -->
     <g transform="translate(213.193594 339.659781)scale(0.15 -0.15)">
      <defs>
       <path d="M 628 4666 
L 3578 4666 
L 3578 4134 
L 1259 4134 
L 1259 2753 
L 3481 2753 
L 3481 2222 
L 1259 2222 
L 1259 531 
L 3634 531 
L 3634 0 
L 628 0 
L 628 4666 
z
" id="DejaVuSans-45" transform="scale(0.015625)"/>
       <path d="M 1159 525 
L 1159 -1331 
L 581 -1331 
L 581 3500 
L 1159 3500 
L 1159 2969 
Q 1341 3281 1617 3432 
Q 1894 3584 2278 3584 
Q 2916 3584 3314 3078 
Q 3713 2572 3713 1747 
Q 3713 922 3314 415 
Q 2916 -91 2278 -91 
Q 1894 -91 1617 61 
Q 1341 213 1159 525 
z
M 3116 1747 
Q 3116 2381 2855 2742 
Q 2594 3103 2138 3103 
Q 1681 3103 1420 2742 
Q 1159 2381 1159 1747 
Q 1159 1113 1420 752 
Q 1681 391 2138 391 
Q 2594 391 2855 752 
Q 3116 1113 3116 1747 
z
" id="DejaVuSans-70" transform="scale(0.015625)"/>
       <path d="M 1959 3097 
Q 1497 3097 1228 2736 
Q 959 2375 959 1747 
Q 959 1119 1226 758 
Q 1494 397 1959 397 
Q 2419 397 2687 759 
Q 2956 1122 2956 1747 
Q 2956 2369 2687 2733 
Q 2419 3097 1959 3097 
z
M 1959 3584 
Q 2709 3584 3137 3096 
Q 3566 2609 3566 1747 
Q 3566 888 3137 398 
Q 2709 -91 1959 -91 
Q 1206 -91 779 398 
Q 353 888 353 1747 
Q 353 2609 779 3096 
Q 1206 3584 1959 3584 
z
" id="DejaVuSans-6f" transform="scale(0.015625)"/>
       <path d="M 3122 3366 
L 3122 2828 
Q 2878 2963 2633 3030 
Q 2388 3097 2138 3097 
Q 1578 3097 1268 2742 
Q 959 2388 959 1747 
Q 959 1106 1268 751 
Q 1578 397 2138 397 
Q 2388 397 2633 464 
Q 2878 531 3122 666 
L 3122 134 
Q 2881 22 2623 -34 
Q 2366 -91 2075 -91 
Q 1284 -91 818 406 
Q 353 903 353 1747 
Q 353 2603 823 3093 
Q 1294 3584 2113 3584 
Q 2378 3584 2631 3529 
Q 2884 3475 3122 3366 
z
" id="DejaVuSans-63" transform="scale(0.015625)"/>
       <path d="M 3513 2113 
L 3513 0 
L 2938 0 
L 2938 2094 
Q 2938 2591 2744 2837 
Q 2550 3084 2163 3084 
Q 1697 3084 1428 2787 
Q 1159 2491 1159 1978 
L 1159 0 
L 581 0 
L 581 4863 
L 1159 4863 
L 1159 2956 
Q 1366 3272 1645 3428 
Q 1925 3584 2291 3584 
Q 2894 3584 3203 3211 
Q 3513 2838 3513 2113 
z
" id="DejaVuSans-68" transform="scale(0.015625)"/>
      </defs>
      <use xlink:href="#DejaVuSans-45"/>
      <use x="63.183594" xlink:href="#DejaVuSans-70"/>
      <use x="126.660156" xlink:href="#DejaVuSans-6f"/>
      <use x="187.841797" xlink:href="#DejaVuSans-63"/>
      <use x="242.822266" xlink:href="#DejaVuSans-68"/>
     </g>
    </g>
   </g>
   <g id="matplotlib.axis_2">
    <g id="ytick_1">
     <g id="line2d_10">
      <defs>
       <path d="M 0 0 
L -3.5 0 
" id="m214432d38e" style="stroke:#000000;stroke-width:0.8;"/>
      </defs>
      <g>
       <use style="stroke:#000000;stroke-width:0.8;" x="57.6" xlink:href="#m214432d38e" y="291.655841"/>
      </g>
     </g>
     <g id="text_11">
      <!-- −1000 -->
      <g transform="translate(16.770313 295.455059)scale(0.1 -0.1)">
       <defs>
        <path d="M 678 2272 
L 4684 2272 
L 4684 1741 
L 678 1741 
L 678 2272 
z
" id="DejaVuSans-2212" transform="scale(0.015625)"/>
       </defs>
       <use xlink:href="#DejaVuSans-2212"/>
       <use x="83.789062" xlink:href="#DejaVuSans-31"/>
       <use x="147.412109" xlink:href="#DejaVuSans-30"/>
       <use x="211.035156" xlink:href="#DejaVuSans-30"/>
       <use x="274.658203" xlink:href="#DejaVuSans-30"/>
      </g>
     </g>
    </g>
    <g id="ytick_2">
     <g id="line2d_11">
      <g>
       <use style="stroke:#000000;stroke-width:0.8;" x="57.6" xlink:href="#m214432d38e" y="241.608112"/>
      </g>
     </g>
     <g id="text_12">
      <!-- −800 -->
      <g transform="translate(23.132812 245.40733)scale(0.1 -0.1)">
       <defs>
        <path d="M 2034 2216 
Q 1584 2216 1326 1975 
Q 1069 1734 1069 1313 
Q 1069 891 1326 650 
Q 1584 409 2034 409 
Q 2484 409 2743 651 
Q 3003 894 3003 1313 
Q 3003 1734 2745 1975 
Q 2488 2216 2034 2216 
z
M 1403 2484 
Q 997 2584 770 2862 
Q 544 3141 544 3541 
Q 544 4100 942 4425 
Q 1341 4750 2034 4750 
Q 2731 4750 3128 4425 
Q 3525 4100 3525 3541 
Q 3525 3141 3298 2862 
Q 3072 2584 2669 2484 
Q 3125 2378 3379 2068 
Q 3634 1759 3634 1313 
Q 3634 634 3220 271 
Q 2806 -91 2034 -91 
Q 1263 -91 848 271 
Q 434 634 434 1313 
Q 434 1759 690 2068 
Q 947 2378 1403 2484 
z
M 1172 3481 
Q 1172 3119 1398 2916 
Q 1625 2713 2034 2713 
Q 2441 2713 2670 2916 
Q 2900 3119 2900 3481 
Q 2900 3844 2670 4047 
Q 2441 4250 2034 4250 
Q 1625 4250 1398 4047 
Q 1172 3844 1172 3481 
z
" id="DejaVuSans-38" transform="scale(0.015625)"/>
       </defs>
       <use xlink:href="#DejaVuSans-2212"/>
       <use x="83.789062" xlink:href="#DejaVuSans-38"/>
       <use x="147.412109" xlink:href="#DejaVuSans-30"/>
       <use x="211.035156" xlink:href="#DejaVuSans-30"/>
      </g>
     </g>
    </g>
    <g id="ytick_3">
     <g id="line2d_12">
      <g>
       <use style="stroke:#000000;stroke-width:0.8;" x="57.6" xlink:href="#m214432d38e" y="191.560383"/>
      </g>
     </g>
     <g id="text_13">
      <!-- −600 -->
      <g transform="translate(23.132812 195.359602)scale(0.1 -0.1)">
       <defs>
        <path d="M 2113 2584 
Q 1688 2584 1439 2293 
Q 1191 2003 1191 1497 
Q 1191 994 1439 701 
Q 1688 409 2113 409 
Q 2538 409 2786 701 
Q 3034 994 3034 1497 
Q 3034 2003 2786 2293 
Q 2538 2584 2113 2584 
z
M 3366 4563 
L 3366 3988 
Q 3128 4100 2886 4159 
Q 2644 4219 2406 4219 
Q 1781 4219 1451 3797 
Q 1122 3375 1075 2522 
Q 1259 2794 1537 2939 
Q 1816 3084 2150 3084 
Q 2853 3084 3261 2657 
Q 3669 2231 3669 1497 
Q 3669 778 3244 343 
Q 2819 -91 2113 -91 
Q 1303 -91 875 529 
Q 447 1150 447 2328 
Q 447 3434 972 4092 
Q 1497 4750 2381 4750 
Q 2619 4750 2861 4703 
Q 3103 4656 3366 4563 
z
" id="DejaVuSans-36" transform="scale(0.015625)"/>
       </defs>
       <use xlink:href="#DejaVuSans-2212"/>
       <use x="83.789062" xlink:href="#DejaVuSans-36"/>
       <use x="147.412109" xlink:href="#DejaVuSans-30"/>
       <use x="211.035156" xlink:href="#DejaVuSans-30"/>
      </g>
     </g>
    </g>
    <g id="ytick_4">
     <g id="line2d_13">
      <g>
       <use style="stroke:#000000;stroke-width:0.8;" x="57.6" xlink:href="#m214432d38e" y="141.512654"/>
      </g>
     </g>
     <g id="text_14">
      <!-- −400 -->
      <g transform="translate(23.132812 145.311873)scale(0.1 -0.1)">
       <use xlink:href="#DejaVuSans-2212"/>
       <use x="83.789062" xlink:href="#DejaVuSans-34"/>
       <use x="147.412109" xlink:href="#DejaVuSans-30"/>
       <use x="211.035156" xlink:href="#DejaVuSans-30"/>
      </g>
     </g>
    </g>
    <g id="ytick_5">
     <g id="line2d_14">
      <g>
       <use style="stroke:#000000;stroke-width:0.8;" x="57.6" xlink:href="#m214432d38e" y="91.464925"/>
      </g>
     </g>
     <g id="text_15">
      <!-- −200 -->
      <g transform="translate(23.132812 95.264144)scale(0.1 -0.1)">
       <use xlink:href="#DejaVuSans-2212"/>
       <use x="83.789062" xlink:href="#DejaVuSans-32"/>
       <use x="147.412109" xlink:href="#DejaVuSans-30"/>
       <use x="211.035156" xlink:href="#DejaVuSans-30"/>
      </g>
     </g>
    </g>
    <g id="text_16">
     <!-- Loss -->
     <g transform="translate(9.650781 190.978781)rotate(-90)scale(0.15 -0.15)">
      <defs>
       <path d="M 628 4666 
L 1259 4666 
L 1259 531 
L 3531 531 
L 3531 0 
L 628 0 
L 628 4666 
z
" id="DejaVuSans-4c" transform="scale(0.015625)"/>
       <path d="M 2834 3397 
L 2834 2853 
Q 2591 2978 2328 3040 
Q 2066 3103 1784 3103 
Q 1356 3103 1142 2972 
Q 928 2841 928 2578 
Q 928 2378 1081 2264 
Q 1234 2150 1697 2047 
L 1894 2003 
Q 2506 1872 2764 1633 
Q 3022 1394 3022 966 
Q 3022 478 2636 193 
Q 2250 -91 1575 -91 
Q 1294 -91 989 -36 
Q 684 19 347 128 
L 347 722 
Q 666 556 975 473 
Q 1284 391 1588 391 
Q 1994 391 2212 530 
Q 2431 669 2431 922 
Q 2431 1156 2273 1281 
Q 2116 1406 1581 1522 
L 1381 1569 
Q 847 1681 609 1914 
Q 372 2147 372 2553 
Q 372 3047 722 3315 
Q 1072 3584 1716 3584 
Q 2034 3584 2315 3537 
Q 2597 3491 2834 3397 
z
" id="DejaVuSans-73" transform="scale(0.015625)"/>
      </defs>
      <use xlink:href="#DejaVuSans-4c"/>
      <use x="53.962891" xlink:href="#DejaVuSans-6f"/>
      <use x="115.144531" xlink:href="#DejaVuSans-73"/>
      <use x="167.244141" xlink:href="#DejaVuSans-73"/>
     </g>
    </g>
   </g>
   <g id="line2d_15">
    <path clip-path="url(#p8b3a81c690)" d="M 73.832727 53.568 
L 74.646398 97.177408 
L 75.460068 124.580456 
L 76.273739 131.378217 
L 77.087409 133.276748 
L 77.90108 144.899337 
L 78.714751 149.597885 
L 79.528421 148.662485 
L 80.342092 139.956862 
L 81.155762 176.15338 
L 81.969433 164.02349 
L 82.783103 163.319898 
L 83.596774 178.236578 
L 84.410444 183.746202 
L 85.224115 176.698805 
L 86.037785 183.924692 
L 86.851456 184.210148 
L 87.665126 186.889238 
L 88.478797 200.944991 
L 89.292468 187.539541 
L 90.106138 192.965156 
L 90.919809 193.801823 
L 91.733479 192.459318 
L 92.54715 192.460785 
L 93.36082 198.051815 
L 94.174491 201.734117 
L 94.988161 203.751563 
L 95.801832 198.148654 
L 96.615502 210.393149 
L 97.429173 205.437629 
L 98.242843 209.314436 
L 99.056514 211.390603 
L 99.870185 224.192653 
L 100.683855 214.471718 
L 101.497526 223.292699 
L 102.311196 215.070916 
L 103.124867 223.041054 
L 103.938537 225.490029 
L 104.752208 225.864287 
L 105.565878 225.892509 
L 106.379549 211.788528 
L 107.193219 220.079392 
L 108.00689 219.210044 
L 108.82056 227.071722 
L 109.634231 233.375339 
L 110.447902 226.096796 
L 111.261572 215.042967 
L 112.075243 236.132574 
L 112.888913 222.517595 
L 113.702584 231.646816 
L 114.516254 234.22083 
L 115.329925 235.881545 
L 116.143595 233.114747 
L 116.957266 225.52848 
L 117.770936 246.891185 
L 118.584607 241.426248 
L 119.398278 230.50587 
L 120.211948 243.006105 
L 121.025619 239.571918 
L 121.839289 230.982635 
L 122.65296 234.051126 
L 123.46663 240.412698 
L 124.280301 244.630188 
L 125.093971 236.57577 
L 125.907642 234.698101 
L 126.721312 246.554189 
L 127.534983 243.09708 
L 128.348653 234.286521 
L 129.162324 231.561867 
L 129.975995 251.185754 
L 130.789665 253.836882 
L 131.603336 232.08454 
L 132.417006 233.361033 
L 133.230677 255.183764 
L 134.044347 232.290505 
L 134.858018 236.431409 
L 135.671688 251.303668 
L 136.485359 236.809768 
L 137.299029 247.760459 
L 138.1127 243.554655 
L 138.92637 236.893946 
L 139.740041 241.571693 
L 140.553712 244.875894 
L 141.367382 250.522516 
L 142.181053 250.953299 
L 142.994723 246.067258 
L 143.808394 238.540222 
L 144.622064 247.82253 
L 145.435735 243.748161 
L 146.249405 245.039953 
L 147.063076 250.363623 
L 147.876746 241.396266 
L 148.690417 241.148675 
L 149.504087 250.5938 
L 150.317758 240.27999 
L 151.131429 246.061341 
L 151.945099 253.744353 
L 152.75877 251.726094 
L 153.57244 241.794171 
L 154.386111 248.732904 
L 155.199781 236.81082 
L 156.013452 249.395113 
L 156.827122 248.894124 
L 157.640793 250.419869 
L 158.454463 250.310534 
L 159.268134 242.758767 
L 160.081805 252.582162 
L 160.895475 257.260928 
L 161.709146 248.489851 
L 162.522816 258.888089 
L 163.336487 254.177804 
L 164.150157 252.65158 
L 164.963828 251.767564 
L 165.777498 244.630731 
L 166.591169 250.687703 
L 167.404839 254.858729 
L 168.21851 258.084362 
L 169.03218 253.334812 
L 169.845851 268.299983 
L 170.659522 254.471437 
L 171.473192 267.136173 
L 172.286863 257.211601 
L 173.100533 256.248924 
L 173.914204 254.38897 
L 174.727874 259.992661 
L 175.541545 251.195034 
L 176.355215 254.469176 
L 177.168886 255.325291 
L 177.982556 268.42603 
L 178.796227 254.992658 
L 179.609897 250.71067 
L 180.423568 254.937288 
L 181.237239 268.169022 
L 182.050909 254.506966 
L 182.86458 261.76926 
L 183.67825 254.676975 
L 184.491921 269.697598 
L 185.305591 260.688637 
L 186.119262 266.078272 
L 186.932932 264.384085 
L 187.746603 259.769782 
L 188.560273 256.095241 
L 189.373944 244.62714 
L 190.187614 264.818442 
L 191.001285 266.685348 
L 191.814956 262.056909 
L 192.628626 278.558627 
L 193.442297 255.658421 
L 194.255967 263.23016 
L 195.069638 257.901749 
L 195.883308 267.887243 
L 196.696979 262.93403 
L 197.510649 263.151349 
L 198.32432 258.59084 
L 199.13799 260.163237 
L 199.951661 262.093098 
L 200.765332 254.832777 
L 201.579002 256.091152 
L 202.392673 262.962243 
L 203.206343 251.31328 
L 204.020014 273.337156 
L 204.833684 259.888386 
L 205.647355 259.409629 
L 206.461025 256.485609 
L 207.274696 264.316907 
L 208.088366 275.198059 
L 208.902037 267.374867 
L 209.715707 262.057285 
L 210.529378 259.958318 
L 211.343049 269.690776 
L 212.156719 261.3068 
L 212.97039 271.855517 
L 213.78406 268.54984 
L 214.597731 275.670303 
L 215.411401 259.264676 
L 216.225072 266.227618 
L 217.038742 259.198923 
L 217.852413 274.194272 
L 218.666083 257.485454 
L 219.479754 267.196996 
L 220.293424 262.99287 
L 221.107095 271.112923 
L 221.920766 253.359705 
L 222.734436 263.906386 
L 223.548107 267.105945 
L 224.361777 260.780011 
L 225.175448 265.146626 
L 225.989118 270.948874 
L 226.802789 275.497078 
L 227.616459 260.309225 
L 228.43013 265.423842 
L 229.2438 277.211735 
L 230.057471 259.299067 
L 230.871141 273.861729 
L 231.684812 258.962579 
L 232.498483 265.155221 
L 233.312153 264.690359 
L 234.125824 274.561987 
L 234.939494 276.119668 
L 235.753165 249.637359 
L 236.566835 251.472892 
L 237.380506 260.630043 
L 238.194176 257.203964 
L 239.007847 268.417369 
L 239.821517 266.528413 
L 240.635188 258.575636 
L 241.448859 253.311631 
L 242.262529 263.340631 
L 243.0762 267.750158 
L 243.88987 267.364287 
L 244.703541 266.579598 
L 246.330882 264.095378 
L 247.144552 278.972014 
L 247.958223 265.809294 
L 248.771893 273.740551 
L 249.585564 268.979694 
L 250.399234 270.595194 
L 252.026576 271.252237 
L 252.840246 268.776017 
L 253.653917 259.965053 
L 254.467587 257.895842 
L 255.281258 265.839128 
L 256.094928 275.131976 
L 256.908599 272.031787 
L 257.722269 279.109247 
L 258.53594 266.615546 
L 259.34961 279.858155 
L 260.163281 261.958962 
L 260.976951 273.253937 
L 261.790622 279.146874 
L 262.604293 286.91737 
L 263.417963 260.812773 
L 264.231634 259.388909 
L 265.045304 272.981343 
L 265.858975 257.012999 
L 266.672645 260.645095 
L 267.486316 268.94367 
L 268.299986 269.638532 
L 269.113657 278.280188 
L 269.927327 283.481909 
L 270.740998 271.373535 
L 271.554668 272.726333 
L 272.368339 260.881071 
L 273.18201 273.221732 
L 273.99568 277.398805 
L 274.809351 270.05113 
L 275.623021 272.908112 
L 276.436692 265.645363 
L 277.250362 265.272599 
L 278.064033 271.572775 
L 278.877703 265.944509 
L 279.691374 265.751338 
L 280.505044 271.647336 
L 281.318715 270.490072 
L 282.132386 263.150339 
L 282.946056 274.092665 
L 283.759727 278.226019 
L 285.387068 275.911581 
L 286.200738 284.670342 
L 287.014409 268.279148 
L 287.828079 263.841948 
L 288.64175 279.66669 
L 289.45542 278.41876 
L 290.269091 270.860522 
L 291.082761 279.258224 
L 291.896432 264.512827 
L 292.710103 269.079148 
L 293.523773 276.729488 
L 294.337444 265.047715 
L 295.151114 280.394322 
L 295.964785 271.634636 
L 296.778455 265.700839 
L 297.592126 274.707467 
L 298.405796 271.01963 
L 299.219467 274.904899 
L 300.033137 267.09367 
L 300.846808 270.526974 
L 301.660478 267.95466 
L 302.474149 275.286133 
L 303.28782 272.519562 
L 304.10149 268.172173 
L 304.915161 282.812796 
L 305.728831 265.82074 
L 306.542502 274.410875 
L 307.356172 272.750904 
L 308.169843 283.013414 
L 308.983513 287.037697 
L 309.797184 275.366821 
L 310.610854 280.700813 
L 311.424525 273.760404 
L 312.238195 275.534947 
L 313.051866 283.708162 
L 313.865537 278.777703 
L 314.679207 279.459928 
L 315.492878 271.416077 
L 316.306548 271.396911 
L 317.120219 268.060746 
L 317.933889 268.173852 
L 318.74756 281.740208 
L 319.56123 276.113691 
L 320.374901 281.140834 
L 321.188571 282.955739 
L 322.002242 287.792197 
L 322.815913 265.997737 
L 323.629583 262.502068 
L 324.443254 271.445733 
L 325.256924 275.602826 
L 326.070595 282.506935 
L 326.884265 280.836281 
L 327.697936 279.558056 
L 328.511606 271.353737 
L 329.325277 274.17305 
L 330.138947 278.540546 
L 330.952618 276.23849 
L 331.766288 289.547845 
L 332.579959 272.36716 
L 333.39363 276.116389 
L 334.2073 281.464149 
L 335.020971 273.041797 
L 335.834641 270.255423 
L 336.648312 274.255463 
L 337.461982 279.883465 
L 338.275653 276.11706 
L 339.089323 276.886666 
L 339.902994 285.826382 
L 340.716664 283.877412 
L 341.530335 277.660802 
L 342.344005 274.588735 
L 343.157676 286.194063 
L 343.971347 283.852255 
L 344.785017 280.845061 
L 345.598688 278.531399 
L 346.412358 279.338801 
L 347.226029 273.260792 
L 348.039699 271.591499 
L 348.85337 291.255683 
L 349.66704 278.442464 
L 350.480711 285.787415 
L 351.294381 280.529353 
L 352.108052 283.574405 
L 352.921722 280.886552 
L 354.549064 268.371356 
L 355.362734 277.903706 
L 356.176405 276.3935 
L 356.990075 278.135905 
L 357.803746 281.665491 
L 358.617416 289.600818 
L 359.431087 274.288875 
L 360.244757 292.446433 
L 361.058428 295.276174 
L 361.872098 268.387843 
L 362.685769 275.177064 
L 363.49944 268.397465 
L 364.31311 285.065138 
L 365.126781 289.125903 
L 365.940451 290.801527 
L 366.754122 288.418555 
L 367.567792 286.584005 
L 368.381463 284.461855 
L 369.195133 272.965732 
L 370.008804 279.326851 
L 370.822474 270.69363 
L 371.636145 284.09208 
L 372.449815 288.067342 
L 373.263486 280.832327 
L 374.890827 270.155226 
L 375.704498 280.107235 
L 376.518168 275.756968 
L 377.331839 287.464555 
L 378.145509 271.9787 
L 378.95918 284.254921 
L 379.77285 269.113457 
L 380.586521 276.108778 
L 381.400191 285.62234 
L 382.213862 284.05214 
L 383.027532 276.797983 
L 383.841203 295.488 
L 384.654874 279.697046 
L 385.468544 277.766847 
L 387.095885 293.172715 
L 387.909556 283.21926 
L 388.723226 280.354792 
L 389.536897 272.173578 
L 390.350567 290.422159 
L 391.164238 285.19719 
L 391.977908 282.507559 
L 392.791579 274.927666 
L 394.41892 288.470332 
L 395.232591 285.786042 
L 396.046261 272.704322 
L 396.859932 271.025163 
L 397.673602 274.363693 
L 398.487273 282.626973 
L 398.487273 282.626973 
" style="fill:none;stroke:#1f77b4;stroke-linecap:square;stroke-width:1.5;"/>
   </g>
   <g id="line2d_16">
    <path clip-path="url(#p8b3a81c690)" d="M 73.832727 111.996417 
L 74.646398 124.434688 
L 75.460068 140.059884 
L 76.273739 147.268518 
L 77.087409 126.484885 
L 77.90108 151.08522 
L 78.714751 154.605614 
L 79.528421 166.500056 
L 80.342092 170.533105 
L 81.155762 143.791807 
L 81.969433 163.145237 
L 82.783103 172.635686 
L 83.596774 179.560245 
L 84.410444 177.243193 
L 85.224115 186.818214 
L 86.851456 162.244642 
L 87.665126 186.438163 
L 88.478797 196.781599 
L 89.292468 191.810497 
L 90.106138 173.157011 
L 90.919809 202.519174 
L 91.733479 188.644482 
L 93.36082 210.009098 
L 94.174491 208.024097 
L 94.988161 201.767237 
L 95.801832 214.030087 
L 96.615502 211.005576 
L 97.429173 202.361992 
L 98.242843 214.709996 
L 99.056514 215.726486 
L 99.870185 144.95241 
L 100.683855 218.848469 
L 101.497526 220.976948 
L 102.311196 181.859968 
L 103.124867 220.387652 
L 103.938537 227.683673 
L 104.752208 229.335801 
L 105.565878 226.053503 
L 106.379549 229.062223 
L 107.193219 223.100475 
L 108.00689 226.07933 
L 108.82056 233.282867 
L 109.634231 231.17475 
L 110.447902 230.247967 
L 111.261572 232.099799 
L 112.075243 227.129302 
L 112.888913 229.4914 
L 113.702584 222.020293 
L 114.516254 221.16119 
L 115.329925 236.557042 
L 116.143595 237.70046 
L 116.957266 235.985861 
L 117.770936 240.008235 
L 118.584607 239.270773 
L 119.398278 229.550743 
L 120.211948 241.119455 
L 121.025619 238.864976 
L 121.839289 241.37562 
L 122.65296 235.565257 
L 123.46663 230.737655 
L 124.280301 211.233379 
L 125.093971 236.410715 
L 125.907642 239.907898 
L 126.721312 240.684262 
L 127.534983 230.563691 
L 128.348653 230.089975 
L 129.975995 241.630616 
L 130.789665 253.376255 
L 131.603336 242.044176 
L 132.417006 240.298026 
L 133.230677 241.625403 
L 134.044347 203.890421 
L 134.858018 240.792247 
L 135.671688 248.317823 
L 136.485359 251.759945 
L 137.299029 232.461991 
L 138.1127 252.868071 
L 138.92637 244.04054 
L 139.740041 243.795308 
L 140.553712 241.780663 
L 141.367382 254.692071 
L 142.181053 249.84959 
L 142.994723 220.627193 
L 143.808394 242.773692 
L 144.622064 243.008348 
L 145.435735 246.712156 
L 146.249405 244.936541 
L 147.063076 239.375459 
L 147.876746 249.250689 
L 148.690417 251.367916 
L 149.504087 249.755058 
L 150.317758 246.950429 
L 151.131429 243.000219 
L 151.945099 245.409 
L 152.75877 257.358354 
L 154.386111 242.44558 
L 155.199781 255.328617 
L 156.013452 245.644506 
L 156.827122 244.814783 
L 157.640793 250.026185 
L 158.454463 251.448866 
L 159.268134 255.826615 
L 160.081805 253.490841 
L 160.895475 256.652559 
L 161.709146 246.960161 
L 162.522816 248.385159 
L 163.336487 252.871841 
L 164.150157 255.15613 
L 164.963828 259.95311 
L 165.777498 254.046842 
L 166.591169 252.929925 
L 167.404839 251.214303 
L 168.21851 253.882958 
L 169.03218 254.27108 
L 169.845851 244.892964 
L 170.659522 249.065785 
L 171.473192 255.880777 
L 172.286863 258.314628 
L 173.100533 251.430563 
L 173.914204 253.69803 
L 174.727874 255.041382 
L 175.541545 260.516796 
L 176.355215 238.713688 
L 177.168886 249.780832 
L 177.982556 255.733132 
L 178.796227 267.174008 
L 179.609897 259.599331 
L 180.423568 258.816288 
L 181.237239 258.545415 
L 182.050909 253.430153 
L 182.86458 265.16995 
L 183.67825 267.91157 
L 184.491921 264.952972 
L 185.305591 265.097702 
L 186.119262 260.679921 
L 186.932932 262.628059 
L 187.746603 261.22608 
L 188.560273 256.060377 
L 189.373944 263.216522 
L 190.187614 266.002187 
L 191.001285 253.072652 
L 191.814956 259.07128 
L 192.628626 257.782019 
L 193.442297 252.499428 
L 194.255967 251.175509 
L 195.069638 273.243034 
L 195.883308 263.016857 
L 196.696979 267.152246 
L 197.510649 269.791709 
L 198.32432 254.277963 
L 199.13799 258.14901 
L 199.951661 260.791244 
L 200.765332 261.751774 
L 201.579002 263.006493 
L 202.392673 259.917976 
L 203.206343 261.37334 
L 204.020014 259.500875 
L 204.833684 256.840796 
L 205.647355 250.333533 
L 206.461025 262.336024 
L 207.274696 252.590542 
L 208.088366 270.355342 
L 209.715707 256.37311 
L 210.529378 257.189052 
L 211.343049 262.315278 
L 212.156719 269.915648 
L 212.97039 259.60041 
L 213.78406 272.916378 
L 214.597731 253.849689 
L 215.411401 262.778531 
L 216.225072 255.222171 
L 217.038742 259.520929 
L 217.852413 252.341117 
L 218.666083 267.79026 
L 219.479754 262.627 
L 220.293424 267.622425 
L 221.107095 249.003288 
L 221.920766 266.056489 
L 222.734436 266.618618 
L 223.548107 263.419729 
L 224.361777 264.05242 
L 225.175448 260.250844 
L 225.989118 264.016744 
L 226.802789 273.440184 
L 227.616459 269.76563 
L 228.43013 272.189504 
L 229.2438 259.837323 
L 230.057471 264.103128 
L 230.871141 267.076783 
L 231.684812 267.299884 
L 232.498483 262.838653 
L 233.312153 266.172144 
L 234.125824 265.671119 
L 234.939494 259.746065 
L 235.753165 258.87297 
L 236.566835 260.036848 
L 238.194176 275.675334 
L 239.007847 263.225805 
L 239.821517 266.047064 
L 240.635188 261.888499 
L 241.448859 260.832093 
L 242.262529 267.814686 
L 243.0762 266.941289 
L 243.88987 263.01133 
L 244.703541 264.961291 
L 245.517211 260.464193 
L 246.330882 266.864196 
L 247.144552 266.635005 
L 247.958223 262.067109 
L 248.771893 255.397954 
L 249.585564 265.628514 
L 250.399234 263.501162 
L 251.212905 262.573915 
L 252.026576 262.236624 
L 252.840246 260.487556 
L 253.653917 266.932981 
L 254.467587 265.546119 
L 255.281258 247.477374 
L 256.094928 275.293459 
L 256.908599 263.008668 
L 257.722269 274.426459 
L 258.53594 264.382168 
L 259.34961 268.601598 
L 260.163281 265.344842 
L 260.976951 266.077639 
L 261.790622 274.060966 
L 262.604293 272.946709 
L 263.417963 255.767464 
L 265.045304 266.263402 
L 265.858975 266.244203 
L 266.672645 264.507912 
L 268.299986 262.205802 
L 269.113657 268.573906 
L 269.927327 268.493069 
L 270.740998 269.19256 
L 271.554668 269.414576 
L 272.368339 273.945242 
L 273.18201 266.176351 
L 273.99568 270.432228 
L 274.809351 275.955802 
L 275.623021 269.36537 
L 276.436692 267.850284 
L 277.250362 277.524345 
L 278.064033 266.190245 
L 278.877703 265.503642 
L 279.691374 261.654585 
L 281.318715 276.769449 
L 282.132386 275.498825 
L 282.946056 267.037329 
L 283.759727 268.432575 
L 284.573397 271.415062 
L 285.387068 267.289879 
L 286.200738 269.988856 
L 287.014409 266.325719 
L 287.828079 258.156601 
L 288.64175 274.00364 
L 289.45542 274.69088 
L 290.269091 266.578289 
L 291.082761 276.209765 
L 291.896432 255.26791 
L 292.710103 272.086132 
L 293.523773 264.655208 
L 294.337444 265.812318 
L 295.151114 263.788125 
L 295.964785 269.446322 
L 296.778455 269.623623 
L 297.592126 261.956658 
L 298.405796 261.068127 
L 300.033137 265.557077 
L 300.846808 270.723211 
L 301.660478 262.315319 
L 302.474149 270.845516 
L 303.28782 267.34016 
L 304.10149 265.151427 
L 304.915161 265.857548 
L 305.728831 257.876965 
L 306.542502 267.192679 
L 307.356172 263.819846 
L 308.169843 270.366467 
L 308.983513 281.254251 
L 309.797184 278.066289 
L 310.610854 263.73466 
L 311.424525 270.055387 
L 312.238195 279.988289 
L 313.051866 275.178783 
L 313.865537 275.064146 
L 314.679207 265.369432 
L 315.492878 267.475039 
L 316.306548 271.840194 
L 317.120219 281.049771 
L 317.933889 261.691713 
L 318.74756 269.804026 
L 319.56123 271.754172 
L 320.374901 272.709508 
L 321.188571 271.762004 
L 322.002242 270.631004 
L 322.815913 268.869461 
L 323.629583 261.517777 
L 324.443254 269.930509 
L 325.256924 267.87976 
L 326.070595 269.932564 
L 326.884265 270.934964 
L 327.697936 276.211414 
L 328.511606 268.264996 
L 329.325277 271.126922 
L 330.138947 268.120805 
L 330.952618 273.221304 
L 331.766288 266.546449 
L 332.579959 277.277142 
L 333.39363 276.804486 
L 334.2073 272.409102 
L 335.020971 266.759791 
L 335.834641 266.605028 
L 336.648312 275.873188 
L 337.461982 275.945687 
L 338.275653 277.156615 
L 339.089323 270.610455 
L 339.902994 272.438611 
L 340.716664 265.472232 
L 341.530335 273.553883 
L 342.344005 273.037878 
L 343.157676 269.516343 
L 343.971347 269.171306 
L 344.785017 275.048955 
L 345.598688 270.548624 
L 346.412358 274.678313 
L 347.226029 270.420365 
L 348.039699 279.410572 
L 348.85337 275.784927 
L 349.66704 268.270805 
L 350.480711 290.21624 
L 352.921722 271.745407 
L 353.735393 275.237791 
L 354.549064 277.692468 
L 355.362734 272.705726 
L 356.176405 274.90506 
L 356.990075 269.906504 
L 357.803746 273.390049 
L 358.617416 274.831153 
L 359.431087 273.437323 
L 360.244757 283.181543 
L 361.058428 278.988479 
L 361.872098 268.682592 
L 362.685769 269.820485 
L 363.49944 280.782376 
L 364.31311 273.876667 
L 365.126781 279.2502 
L 365.940451 274.851047 
L 366.754122 279.932148 
L 367.567792 271.886635 
L 368.381463 276.847347 
L 369.195133 273.962917 
L 370.008804 274.073106 
L 370.822474 278.289153 
L 371.636145 277.945586 
L 372.449815 267.258218 
L 373.263486 272.090526 
L 374.077157 283.128503 
L 374.890827 277.812152 
L 375.704498 280.352588 
L 376.518168 278.195357 
L 377.331839 276.813663 
L 378.145509 272.76111 
L 379.77285 281.154075 
L 380.586521 276.264681 
L 381.400191 281.962341 
L 382.213862 283.938922 
L 383.027532 273.941225 
L 383.841203 283.581335 
L 384.654874 271.900956 
L 386.282215 274.215235 
L 387.095885 279.863861 
L 388.723226 280.75487 
L 389.536897 266.499716 
L 390.350567 287.159023 
L 391.164238 284.93086 
L 391.977908 275.933322 
L 392.791579 287.721856 
L 393.605249 277.327302 
L 394.41892 277.593074 
L 395.232591 275.558331 
L 396.046261 278.891019 
L 396.859932 276.485782 
L 397.673602 284.065909 
L 398.487273 280.015527 
L 398.487273 280.015527 
" style="fill:none;stroke:#ff7f0e;stroke-linecap:square;stroke-width:1.5;"/>
   </g>
   <g id="patch_3">
    <path d="M 57.6 307.584 
L 57.6 41.472 
" style="fill:none;stroke:#000000;stroke-linecap:square;stroke-linejoin:miter;stroke-width:0.8;"/>
   </g>
   <g id="patch_4">
    <path d="M 414.72 307.584 
L 414.72 41.472 
" style="fill:none;stroke:#000000;stroke-linecap:square;stroke-linejoin:miter;stroke-width:0.8;"/>
   </g>
   <g id="patch_5">
    <path d="M 57.6 307.584 
L 414.72 307.584 
" style="fill:none;stroke:#000000;stroke-linecap:square;stroke-linejoin:miter;stroke-width:0.8;"/>
   </g>
   <g id="patch_6">
    <path d="M 57.6 41.472 
L 414.72 41.472 
" style="fill:none;stroke:#000000;stroke-linecap:square;stroke-linejoin:miter;stroke-width:0.8;"/>
   </g>
   <g id="legend_1">
    <g id="patch_7">
     <path d="M 303.845 78.82825 
L 407.72 78.82825 
Q 409.72 78.82825 409.72 76.82825 
L 409.72 48.472 
Q 409.72 46.472 407.72 46.472 
L 303.845 46.472 
Q 301.845 46.472 301.845 48.472 
L 301.845 76.82825 
Q 301.845 78.82825 303.845 78.82825 
z
" style="fill:#ffffff;opacity:0.8;stroke:#cccccc;stroke-linejoin:miter;"/>
    </g>
    <g id="line2d_17">
     <path d="M 305.845 54.570437 
L 325.845 54.570437 
" style="fill:none;stroke:#1f77b4;stroke-linecap:square;stroke-width:1.5;"/>
    </g>
    <g id="line2d_18"/>
    <g id="text_17">
     <!-- Train loss -->
     <g transform="translate(333.845 58.070437)scale(0.1 -0.1)">
      <defs>
       <path d="M -19 4666 
L 3928 4666 
L 3928 4134 
L 2272 4134 
L 2272 0 
L 1638 0 
L 1638 4134 
L -19 4134 
L -19 4666 
z
" id="DejaVuSans-54" transform="scale(0.015625)"/>
       <path d="M 2631 2963 
Q 2534 3019 2420 3045 
Q 2306 3072 2169 3072 
Q 1681 3072 1420 2755 
Q 1159 2438 1159 1844 
L 1159 0 
L 581 0 
L 581 3500 
L 1159 3500 
L 1159 2956 
Q 1341 3275 1631 3429 
Q 1922 3584 2338 3584 
Q 2397 3584 2469 3576 
Q 2541 3569 2628 3553 
L 2631 2963 
z
" id="DejaVuSans-72" transform="scale(0.015625)"/>
       <path d="M 2194 1759 
Q 1497 1759 1228 1600 
Q 959 1441 959 1056 
Q 959 750 1161 570 
Q 1363 391 1709 391 
Q 2188 391 2477 730 
Q 2766 1069 2766 1631 
L 2766 1759 
L 2194 1759 
z
M 3341 1997 
L 3341 0 
L 2766 0 
L 2766 531 
Q 2569 213 2275 61 
Q 1981 -91 1556 -91 
Q 1019 -91 701 211 
Q 384 513 384 1019 
Q 384 1609 779 1909 
Q 1175 2209 1959 2209 
L 2766 2209 
L 2766 2266 
Q 2766 2663 2505 2880 
Q 2244 3097 1772 3097 
Q 1472 3097 1187 3025 
Q 903 2953 641 2809 
L 641 3341 
Q 956 3463 1253 3523 
Q 1550 3584 1831 3584 
Q 2591 3584 2966 3190 
Q 3341 2797 3341 1997 
z
" id="DejaVuSans-61" transform="scale(0.015625)"/>
       <path d="M 603 3500 
L 1178 3500 
L 1178 0 
L 603 0 
L 603 3500 
z
M 603 4863 
L 1178 4863 
L 1178 4134 
L 603 4134 
L 603 4863 
z
" id="DejaVuSans-69" transform="scale(0.015625)"/>
       <path d="M 3513 2113 
L 3513 0 
L 2938 0 
L 2938 2094 
Q 2938 2591 2744 2837 
Q 2550 3084 2163 3084 
Q 1697 3084 1428 2787 
Q 1159 2491 1159 1978 
L 1159 0 
L 581 0 
L 581 3500 
L 1159 3500 
L 1159 2956 
Q 1366 3272 1645 3428 
Q 1925 3584 2291 3584 
Q 2894 3584 3203 3211 
Q 3513 2838 3513 2113 
z
" id="DejaVuSans-6e" transform="scale(0.015625)"/>
       <path id="DejaVuSans-20" transform="scale(0.015625)"/>
       <path d="M 603 4863 
L 1178 4863 
L 1178 0 
L 603 0 
L 603 4863 
z
" id="DejaVuSans-6c" transform="scale(0.015625)"/>
      </defs>
      <use xlink:href="#DejaVuSans-54"/>
      <use x="46.333984" xlink:href="#DejaVuSans-72"/>
      <use x="87.447266" xlink:href="#DejaVuSans-61"/>
      <use x="148.726562" xlink:href="#DejaVuSans-69"/>
      <use x="176.509766" xlink:href="#DejaVuSans-6e"/>
      <use x="239.888672" xlink:href="#DejaVuSans-20"/>
      <use x="271.675781" xlink:href="#DejaVuSans-6c"/>
      <use x="299.458984" xlink:href="#DejaVuSans-6f"/>
      <use x="360.640625" xlink:href="#DejaVuSans-73"/>
      <use x="412.740234" xlink:href="#DejaVuSans-73"/>
     </g>
    </g>
    <g id="line2d_19">
     <path d="M 305.845 69.248562 
L 325.845 69.248562 
" style="fill:none;stroke:#ff7f0e;stroke-linecap:square;stroke-width:1.5;"/>
    </g>
    <g id="line2d_20"/>
    <g id="text_18">
     <!-- Validation loss -->
     <g transform="translate(333.845 72.748562)scale(0.1 -0.1)">
      <defs>
       <path d="M 1831 0 
L 50 4666 
L 709 4666 
L 2188 738 
L 3669 4666 
L 4325 4666 
L 2547 0 
L 1831 0 
z
" id="DejaVuSans-56" transform="scale(0.015625)"/>
       <path d="M 2906 2969 
L 2906 4863 
L 3481 4863 
L 3481 0 
L 2906 0 
L 2906 525 
Q 2725 213 2448 61 
Q 2172 -91 1784 -91 
Q 1150 -91 751 415 
Q 353 922 353 1747 
Q 353 2572 751 3078 
Q 1150 3584 1784 3584 
Q 2172 3584 2448 3432 
Q 2725 3281 2906 2969 
z
M 947 1747 
Q 947 1113 1208 752 
Q 1469 391 1925 391 
Q 2381 391 2643 752 
Q 2906 1113 2906 1747 
Q 2906 2381 2643 2742 
Q 2381 3103 1925 3103 
Q 1469 3103 1208 2742 
Q 947 2381 947 1747 
z
" id="DejaVuSans-64" transform="scale(0.015625)"/>
       <path d="M 1172 4494 
L 1172 3500 
L 2356 3500 
L 2356 3053 
L 1172 3053 
L 1172 1153 
Q 1172 725 1289 603 
Q 1406 481 1766 481 
L 2356 481 
L 2356 0 
L 1766 0 
Q 1100 0 847 248 
Q 594 497 594 1153 
L 594 3053 
L 172 3053 
L 172 3500 
L 594 3500 
L 594 4494 
L 1172 4494 
z
" id="DejaVuSans-74" transform="scale(0.015625)"/>
      </defs>
      <use xlink:href="#DejaVuSans-56"/>
      <use x="60.658203" xlink:href="#DejaVuSans-61"/>
      <use x="121.9375" xlink:href="#DejaVuSans-6c"/>
      <use x="149.720703" xlink:href="#DejaVuSans-69"/>
      <use x="177.503906" xlink:href="#DejaVuSans-64"/>
      <use x="240.980469" xlink:href="#DejaVuSans-61"/>
      <use x="302.259766" xlink:href="#DejaVuSans-74"/>
      <use x="341.46875" xlink:href="#DejaVuSans-69"/>
      <use x="369.251953" xlink:href="#DejaVuSans-6f"/>
      <use x="430.433594" xlink:href="#DejaVuSans-6e"/>
      <use x="493.8125" xlink:href="#DejaVuSans-20"/>
      <use x="525.599609" xlink:href="#DejaVuSans-6c"/>
      <use x="553.382812" xlink:href="#DejaVuSans-6f"/>
      <use x="614.564453" xlink:href="#DejaVuSans-73"/>
      <use x="666.664062" xlink:href="#DejaVuSans-73"/>
     </g>
    </g>
   </g>
  </g>
 </g>
 <defs>
  <clipPath id="p8b3a81c690">
   <rect height="266.112" width="357.12" x="57.6" y="41.472"/>
  </clipPath>
 </defs>
</svg>
