<?xml version="1.0" encoding="utf-8" standalone="no"?>
<!DOCTYPE svg PUBLIC "-//W3C//DTD SVG 1.1//EN"
  "http://www.w3.org/Graphics/SVG/1.1/DTD/svg11.dtd">
<svg height="345.6pt" version="1.1" viewBox="0 0 460.8 345.6" width="460.8pt" xmlns="http://www.w3.org/2000/svg" xmlns:xlink="http://www.w3.org/1999/xlink">
 <metadata>
  <rdf:RDF xmlns:cc="http://creativecommons.org/ns#" xmlns:dc="http://purl.org/dc/elements/1.1/" xmlns:rdf="http://www.w3.org/1999/02/22-rdf-syntax-ns#">
   <cc:Work>
    <dc:type rdf:resource="http://purl.org/dc/dcmitype/StillImage"/>
    <dc:date>2021-07-15T08:59:09.189647</dc:date>
    <dc:format>image/svg+xml</dc:format>
    <dc:creator>
     <cc:Agent>
      <dc:title>Matplotlib v3.4.2, https://matplotlib.org/</dc:title>
     </cc:Agent>
    </dc:creator>
   </cc:Work>
  </rdf:RDF>
 </metadata>
 <defs>
  <style type="text/css">*{stroke-linecap:butt;stroke-linejoin:round;}</style>
 </defs>
 <g id="figure_1">
  <g id="patch_1">
   <path d="M 0 345.6 
L 460.8 345.6 
L 460.8 0 
L 0 0 
z
" style="fill:#ffffff;"/>
  </g>
  <g id="axes_1">
   <g id="patch_2">
    <path d="M 57.6 307.584 
L 414.72 307.584 
L 414.72 41.472 
L 57.6 41.472 
z
" style="fill:#ffffff;"/>
   </g>
   <g id="matplotlib.axis_1">
    <g id="xtick_1">
     <g id="line2d_1">
      <defs>
       <path d="M 0 0 
L 0 3.5 
" id="m3768abc5ea" style="stroke:#000000;stroke-width:0.8;"/>
      </defs>
      <g>
       <use style="stroke:#000000;stroke-width:0.8;" x="73.019057" xlink:href="#m3768abc5ea" y="307.584"/>
      </g>
     </g>
     <g id="text_1">
      <!-- 0 -->
      <g transform="translate(69.837807 322.182437)scale(0.1 -0.1)">
       <defs>
        <path d="M 2034 4250 
Q 1547 4250 1301 3770 
Q 1056 3291 1056 2328 
Q 1056 1369 1301 889 
Q 1547 409 2034 409 
Q 2525 409 2770 889 
Q 3016 1369 3016 2328 
Q 3016 3291 2770 3770 
Q 2525 4250 2034 4250 
z
M 2034 4750 
Q 2819 4750 3233 4129 
Q 3647 3509 3647 2328 
Q 3647 1150 3233 529 
Q 2819 -91 2034 -91 
Q 1250 -91 836 529 
Q 422 1150 422 2328 
Q 422 3509 836 4129 
Q 1250 4750 2034 4750 
z
" id="DejaVuSans-30" transform="scale(0.015625)"/>
       </defs>
       <use xlink:href="#DejaVuSans-30"/>
      </g>
     </g>
    </g>
    <g id="xtick_2">
     <g id="line2d_2">
      <g>
       <use style="stroke:#000000;stroke-width:0.8;" x="113.702584" xlink:href="#m3768abc5ea" y="307.584"/>
      </g>
     </g>
     <g id="text_2">
      <!-- 50 -->
      <g transform="translate(107.340084 322.182437)scale(0.1 -0.1)">
       <defs>
        <path d="M 691 4666 
L 3169 4666 
L 3169 4134 
L 1269 4134 
L 1269 2991 
Q 1406 3038 1543 3061 
Q 1681 3084 1819 3084 
Q 2600 3084 3056 2656 
Q 3513 2228 3513 1497 
Q 3513 744 3044 326 
Q 2575 -91 1722 -91 
Q 1428 -91 1123 -41 
Q 819 9 494 109 
L 494 744 
Q 775 591 1075 516 
Q 1375 441 1709 441 
Q 2250 441 2565 725 
Q 2881 1009 2881 1497 
Q 2881 1984 2565 2268 
Q 2250 2553 1709 2553 
Q 1456 2553 1204 2497 
Q 953 2441 691 2322 
L 691 4666 
z
" id="DejaVuSans-35" transform="scale(0.015625)"/>
       </defs>
       <use xlink:href="#DejaVuSans-35"/>
       <use x="63.623047" xlink:href="#DejaVuSans-30"/>
      </g>
     </g>
    </g>
    <g id="xtick_3">
     <g id="line2d_3">
      <g>
       <use style="stroke:#000000;stroke-width:0.8;" x="154.386111" xlink:href="#m3768abc5ea" y="307.584"/>
      </g>
     </g>
     <g id="text_3">
      <!-- 100 -->
      <g transform="translate(144.842361 322.182437)scale(0.1 -0.1)">
       <defs>
        <path d="M 794 531 
L 1825 531 
L 1825 4091 
L 703 3866 
L 703 4441 
L 1819 4666 
L 2450 4666 
L 2450 531 
L 3481 531 
L 3481 0 
L 794 0 
L 794 531 
z
" id="DejaVuSans-31" transform="scale(0.015625)"/>
       </defs>
       <use xlink:href="#DejaVuSans-31"/>
       <use x="63.623047" xlink:href="#DejaVuSans-30"/>
       <use x="127.246094" xlink:href="#DejaVuSans-30"/>
      </g>
     </g>
    </g>
    <g id="xtick_4">
     <g id="line2d_4">
      <g>
       <use style="stroke:#000000;stroke-width:0.8;" x="195.069638" xlink:href="#m3768abc5ea" y="307.584"/>
      </g>
     </g>
     <g id="text_4">
      <!-- 150 -->
      <g transform="translate(185.525888 322.182437)scale(0.1 -0.1)">
       <use xlink:href="#DejaVuSans-31"/>
       <use x="63.623047" xlink:href="#DejaVuSans-35"/>
       <use x="127.246094" xlink:href="#DejaVuSans-30"/>
      </g>
     </g>
    </g>
    <g id="xtick_5">
     <g id="line2d_5">
      <g>
       <use style="stroke:#000000;stroke-width:0.8;" x="235.753165" xlink:href="#m3768abc5ea" y="307.584"/>
      </g>
     </g>
     <g id="text_5">
      <!-- 200 -->
      <g transform="translate(226.209415 322.182437)scale(0.1 -0.1)">
       <defs>
        <path d="M 1228 531 
L 3431 531 
L 3431 0 
L 469 0 
L 469 531 
Q 828 903 1448 1529 
Q 2069 2156 2228 2338 
Q 2531 2678 2651 2914 
Q 2772 3150 2772 3378 
Q 2772 3750 2511 3984 
Q 2250 4219 1831 4219 
Q 1534 4219 1204 4116 
Q 875 4013 500 3803 
L 500 4441 
Q 881 4594 1212 4672 
Q 1544 4750 1819 4750 
Q 2544 4750 2975 4387 
Q 3406 4025 3406 3419 
Q 3406 3131 3298 2873 
Q 3191 2616 2906 2266 
Q 2828 2175 2409 1742 
Q 1991 1309 1228 531 
z
" id="DejaVuSans-32" transform="scale(0.015625)"/>
       </defs>
       <use xlink:href="#DejaVuSans-32"/>
       <use x="63.623047" xlink:href="#DejaVuSans-30"/>
       <use x="127.246094" xlink:href="#DejaVuSans-30"/>
      </g>
     </g>
    </g>
    <g id="xtick_6">
     <g id="line2d_6">
      <g>
       <use style="stroke:#000000;stroke-width:0.8;" x="276.436692" xlink:href="#m3768abc5ea" y="307.584"/>
      </g>
     </g>
     <g id="text_6">
      <!-- 250 -->
      <g transform="translate(266.892942 322.182437)scale(0.1 -0.1)">
       <use xlink:href="#DejaVuSans-32"/>
       <use x="63.623047" xlink:href="#DejaVuSans-35"/>
       <use x="127.246094" xlink:href="#DejaVuSans-30"/>
      </g>
     </g>
    </g>
    <g id="xtick_7">
     <g id="line2d_7">
      <g>
       <use style="stroke:#000000;stroke-width:0.8;" x="317.120219" xlink:href="#m3768abc5ea" y="307.584"/>
      </g>
     </g>
     <g id="text_7">
      <!-- 300 -->
      <g transform="translate(307.576469 322.182437)scale(0.1 -0.1)">
       <defs>
        <path d="M 2597 2516 
Q 3050 2419 3304 2112 
Q 3559 1806 3559 1356 
Q 3559 666 3084 287 
Q 2609 -91 1734 -91 
Q 1441 -91 1130 -33 
Q 819 25 488 141 
L 488 750 
Q 750 597 1062 519 
Q 1375 441 1716 441 
Q 2309 441 2620 675 
Q 2931 909 2931 1356 
Q 2931 1769 2642 2001 
Q 2353 2234 1838 2234 
L 1294 2234 
L 1294 2753 
L 1863 2753 
Q 2328 2753 2575 2939 
Q 2822 3125 2822 3475 
Q 2822 3834 2567 4026 
Q 2313 4219 1838 4219 
Q 1578 4219 1281 4162 
Q 984 4106 628 3988 
L 628 4550 
Q 988 4650 1302 4700 
Q 1616 4750 1894 4750 
Q 2613 4750 3031 4423 
Q 3450 4097 3450 3541 
Q 3450 3153 3228 2886 
Q 3006 2619 2597 2516 
z
" id="DejaVuSans-33" transform="scale(0.015625)"/>
       </defs>
       <use xlink:href="#DejaVuSans-33"/>
       <use x="63.623047" xlink:href="#DejaVuSans-30"/>
       <use x="127.246094" xlink:href="#DejaVuSans-30"/>
      </g>
     </g>
    </g>
    <g id="xtick_8">
     <g id="line2d_8">
      <g>
       <use style="stroke:#000000;stroke-width:0.8;" x="357.803746" xlink:href="#m3768abc5ea" y="307.584"/>
      </g>
     </g>
     <g id="text_8">
      <!-- 350 -->
      <g transform="translate(348.259996 322.182437)scale(0.1 -0.1)">
       <use xlink:href="#DejaVuSans-33"/>
       <use x="63.623047" xlink:href="#DejaVuSans-35"/>
       <use x="127.246094" xlink:href="#DejaVuSans-30"/>
      </g>
     </g>
    </g>
    <g id="xtick_9">
     <g id="line2d_9">
      <g>
       <use style="stroke:#000000;stroke-width:0.8;" x="398.487273" xlink:href="#m3768abc5ea" y="307.584"/>
      </g>
     </g>
     <g id="text_9">
      <!-- 400 -->
      <g transform="translate(388.943523 322.182437)scale(0.1 -0.1)">
       <defs>
        <path d="M 2419 4116 
L 825 1625 
L 2419 1625 
L 2419 4116 
z
M 2253 4666 
L 3047 4666 
L 3047 1625 
L 3713 1625 
L 3713 1100 
L 3047 1100 
L 3047 0 
L 2419 0 
L 2419 1100 
L 313 1100 
L 313 1709 
L 2253 4666 
z
" id="DejaVuSans-34" transform="scale(0.015625)"/>
       </defs>
       <use xlink:href="#DejaVuSans-34"/>
       <use x="63.623047" xlink:href="#DejaVuSans-30"/>
       <use x="127.246094" xlink:href="#DejaVuSans-30"/>
      </g>
     </g>
    </g>
    <g id="text_10">
     <!-- Epoch -->
     <g transform="translate(213.193594 339.659781)scale(0.15 -0.15)">
      <defs>
       <path d="M 628 4666 
L 3578 4666 
L 3578 4134 
L 1259 4134 
L 1259 2753 
L 3481 2753 
L 3481 2222 
L 1259 2222 
L 1259 531 
L 3634 531 
L 3634 0 
L 628 0 
L 628 4666 
z
" id="DejaVuSans-45" transform="scale(0.015625)"/>
       <path d="M 1159 525 
L 1159 -1331 
L 581 -1331 
L 581 3500 
L 1159 3500 
L 1159 2969 
Q 1341 3281 1617 3432 
Q 1894 3584 2278 3584 
Q 2916 3584 3314 3078 
Q 3713 2572 3713 1747 
Q 3713 922 3314 415 
Q 2916 -91 2278 -91 
Q 1894 -91 1617 61 
Q 1341 213 1159 525 
z
M 3116 1747 
Q 3116 2381 2855 2742 
Q 2594 3103 2138 3103 
Q 1681 3103 1420 2742 
Q 1159 2381 1159 1747 
Q 1159 1113 1420 752 
Q 1681 391 2138 391 
Q 2594 391 2855 752 
Q 3116 1113 3116 1747 
z
" id="DejaVuSans-70" transform="scale(0.015625)"/>
       <path d="M 1959 3097 
Q 1497 3097 1228 2736 
Q 959 2375 959 1747 
Q 959 1119 1226 758 
Q 1494 397 1959 397 
Q 2419 397 2687 759 
Q 2956 1122 2956 1747 
Q 2956 2369 2687 2733 
Q 2419 3097 1959 3097 
z
M 1959 3584 
Q 2709 3584 3137 3096 
Q 3566 2609 3566 1747 
Q 3566 888 3137 398 
Q 2709 -91 1959 -91 
Q 1206 -91 779 398 
Q 353 888 353 1747 
Q 353 2609 779 3096 
Q 1206 3584 1959 3584 
z
" id="DejaVuSans-6f" transform="scale(0.015625)"/>
       <path d="M 3122 3366 
L 3122 2828 
Q 2878 2963 2633 3030 
Q 2388 3097 2138 3097 
Q 1578 3097 1268 2742 
Q 959 2388 959 1747 
Q 959 1106 1268 751 
Q 1578 397 2138 397 
Q 2388 397 2633 464 
Q 2878 531 3122 666 
L 3122 134 
Q 2881 22 2623 -34 
Q 2366 -91 2075 -91 
Q 1284 -91 818 406 
Q 353 903 353 1747 
Q 353 2603 823 3093 
Q 1294 3584 2113 3584 
Q 2378 3584 2631 3529 
Q 2884 3475 3122 3366 
z
" id="DejaVuSans-63" transform="scale(0.015625)"/>
       <path d="M 3513 2113 
L 3513 0 
L 2938 0 
L 2938 2094 
Q 2938 2591 2744 2837 
Q 2550 3084 2163 3084 
Q 1697 3084 1428 2787 
Q 1159 2491 1159 1978 
L 1159 0 
L 581 0 
L 581 4863 
L 1159 4863 
L 1159 2956 
Q 1366 3272 1645 3428 
Q 1925 3584 2291 3584 
Q 2894 3584 3203 3211 
Q 3513 2838 3513 2113 
z
" id="DejaVuSans-68" transform="scale(0.015625)"/>
      </defs>
      <use xlink:href="#DejaVuSans-45"/>
      <use x="63.183594" xlink:href="#DejaVuSans-70"/>
      <use x="126.660156" xlink:href="#DejaVuSans-6f"/>
      <use x="187.841797" xlink:href="#DejaVuSans-63"/>
      <use x="242.822266" xlink:href="#DejaVuSans-68"/>
     </g>
    </g>
   </g>
   <g id="matplotlib.axis_2">
    <g id="ytick_1">
     <g id="line2d_10">
      <defs>
       <path d="M 0 0 
L -3.5 0 
" id="me1b9bb76b5" style="stroke:#000000;stroke-width:0.8;"/>
      </defs>
      <g>
       <use style="stroke:#000000;stroke-width:0.8;" x="57.6" xlink:href="#me1b9bb76b5" y="302.427396"/>
      </g>
     </g>
     <g id="text_11">
      <!-- 0.0 -->
      <g transform="translate(34.696875 306.226615)scale(0.1 -0.1)">
       <defs>
        <path d="M 684 794 
L 1344 794 
L 1344 0 
L 684 0 
L 684 794 
z
" id="DejaVuSans-2e" transform="scale(0.015625)"/>
       </defs>
       <use xlink:href="#DejaVuSans-30"/>
       <use x="63.623047" xlink:href="#DejaVuSans-2e"/>
       <use x="95.410156" xlink:href="#DejaVuSans-30"/>
      </g>
     </g>
    </g>
    <g id="ytick_2">
     <g id="line2d_11">
      <g>
       <use style="stroke:#000000;stroke-width:0.8;" x="57.6" xlink:href="#me1b9bb76b5" y="261.831733"/>
      </g>
     </g>
     <g id="text_12">
      <!-- 0.2 -->
      <g transform="translate(34.696875 265.630951)scale(0.1 -0.1)">
       <use xlink:href="#DejaVuSans-30"/>
       <use x="63.623047" xlink:href="#DejaVuSans-2e"/>
       <use x="95.410156" xlink:href="#DejaVuSans-32"/>
      </g>
     </g>
    </g>
    <g id="ytick_3">
     <g id="line2d_12">
      <g>
       <use style="stroke:#000000;stroke-width:0.8;" x="57.6" xlink:href="#me1b9bb76b5" y="221.23607"/>
      </g>
     </g>
     <g id="text_13">
      <!-- 0.4 -->
      <g transform="translate(34.696875 225.035288)scale(0.1 -0.1)">
       <use xlink:href="#DejaVuSans-30"/>
       <use x="63.623047" xlink:href="#DejaVuSans-2e"/>
       <use x="95.410156" xlink:href="#DejaVuSans-34"/>
      </g>
     </g>
    </g>
    <g id="ytick_4">
     <g id="line2d_13">
      <g>
       <use style="stroke:#000000;stroke-width:0.8;" x="57.6" xlink:href="#me1b9bb76b5" y="180.640407"/>
      </g>
     </g>
     <g id="text_14">
      <!-- 0.6 -->
      <g transform="translate(34.696875 184.439625)scale(0.1 -0.1)">
       <defs>
        <path d="M 2113 2584 
Q 1688 2584 1439 2293 
Q 1191 2003 1191 1497 
Q 1191 994 1439 701 
Q 1688 409 2113 409 
Q 2538 409 2786 701 
Q 3034 994 3034 1497 
Q 3034 2003 2786 2293 
Q 2538 2584 2113 2584 
z
M 3366 4563 
L 3366 3988 
Q 3128 4100 2886 4159 
Q 2644 4219 2406 4219 
Q 1781 4219 1451 3797 
Q 1122 3375 1075 2522 
Q 1259 2794 1537 2939 
Q 1816 3084 2150 3084 
Q 2853 3084 3261 2657 
Q 3669 2231 3669 1497 
Q 3669 778 3244 343 
Q 2819 -91 2113 -91 
Q 1303 -91 875 529 
Q 447 1150 447 2328 
Q 447 3434 972 4092 
Q 1497 4750 2381 4750 
Q 2619 4750 2861 4703 
Q 3103 4656 3366 4563 
z
" id="DejaVuSans-36" transform="scale(0.015625)"/>
       </defs>
       <use xlink:href="#DejaVuSans-30"/>
       <use x="63.623047" xlink:href="#DejaVuSans-2e"/>
       <use x="95.410156" xlink:href="#DejaVuSans-36"/>
      </g>
     </g>
    </g>
    <g id="ytick_5">
     <g id="line2d_14">
      <g>
       <use style="stroke:#000000;stroke-width:0.8;" x="57.6" xlink:href="#me1b9bb76b5" y="140.044744"/>
      </g>
     </g>
     <g id="text_15">
      <!-- 0.8 -->
      <g transform="translate(34.696875 143.843962)scale(0.1 -0.1)">
       <defs>
        <path d="M 2034 2216 
Q 1584 2216 1326 1975 
Q 1069 1734 1069 1313 
Q 1069 891 1326 650 
Q 1584 409 2034 409 
Q 2484 409 2743 651 
Q 3003 894 3003 1313 
Q 3003 1734 2745 1975 
Q 2488 2216 2034 2216 
z
M 1403 2484 
Q 997 2584 770 2862 
Q 544 3141 544 3541 
Q 544 4100 942 4425 
Q 1341 4750 2034 4750 
Q 2731 4750 3128 4425 
Q 3525 4100 3525 3541 
Q 3525 3141 3298 2862 
Q 3072 2584 2669 2484 
Q 3125 2378 3379 2068 
Q 3634 1759 3634 1313 
Q 3634 634 3220 271 
Q 2806 -91 2034 -91 
Q 1263 -91 848 271 
Q 434 634 434 1313 
Q 434 1759 690 2068 
Q 947 2378 1403 2484 
z
M 1172 3481 
Q 1172 3119 1398 2916 
Q 1625 2713 2034 2713 
Q 2441 2713 2670 2916 
Q 2900 3119 2900 3481 
Q 2900 3844 2670 4047 
Q 2441 4250 2034 4250 
Q 1625 4250 1398 4047 
Q 1172 3844 1172 3481 
z
" id="DejaVuSans-38" transform="scale(0.015625)"/>
       </defs>
       <use xlink:href="#DejaVuSans-30"/>
       <use x="63.623047" xlink:href="#DejaVuSans-2e"/>
       <use x="95.410156" xlink:href="#DejaVuSans-38"/>
      </g>
     </g>
    </g>
    <g id="ytick_6">
     <g id="line2d_15">
      <g>
       <use style="stroke:#000000;stroke-width:0.8;" x="57.6" xlink:href="#me1b9bb76b5" y="99.44908"/>
      </g>
     </g>
     <g id="text_16">
      <!-- 1.0 -->
      <g transform="translate(34.696875 103.248299)scale(0.1 -0.1)">
       <use xlink:href="#DejaVuSans-31"/>
       <use x="63.623047" xlink:href="#DejaVuSans-2e"/>
       <use x="95.410156" xlink:href="#DejaVuSans-30"/>
      </g>
     </g>
    </g>
    <g id="ytick_7">
     <g id="line2d_16">
      <g>
       <use style="stroke:#000000;stroke-width:0.8;" x="57.6" xlink:href="#me1b9bb76b5" y="58.853417"/>
      </g>
     </g>
     <g id="text_17">
      <!-- 1.2 -->
      <g transform="translate(34.696875 62.652636)scale(0.1 -0.1)">
       <use xlink:href="#DejaVuSans-31"/>
       <use x="63.623047" xlink:href="#DejaVuSans-2e"/>
       <use x="95.410156" xlink:href="#DejaVuSans-32"/>
      </g>
     </g>
    </g>
    <g id="text_18">
     <!-- Loss -->
     <g transform="translate(27.577344 190.978781)rotate(-90)scale(0.15 -0.15)">
      <defs>
       <path d="M 628 4666 
L 1259 4666 
L 1259 531 
L 3531 531 
L 3531 0 
L 628 0 
L 628 4666 
z
" id="DejaVuSans-4c" transform="scale(0.015625)"/>
       <path d="M 2834 3397 
L 2834 2853 
Q 2591 2978 2328 3040 
Q 2066 3103 1784 3103 
Q 1356 3103 1142 2972 
Q 928 2841 928 2578 
Q 928 2378 1081 2264 
Q 1234 2150 1697 2047 
L 1894 2003 
Q 2506 1872 2764 1633 
Q 3022 1394 3022 966 
Q 3022 478 2636 193 
Q 2250 -91 1575 -91 
Q 1294 -91 989 -36 
Q 684 19 347 128 
L 347 722 
Q 666 556 975 473 
Q 1284 391 1588 391 
Q 1994 391 2212 530 
Q 2431 669 2431 922 
Q 2431 1156 2273 1281 
Q 2116 1406 1581 1522 
L 1381 1569 
Q 847 1681 609 1914 
Q 372 2147 372 2553 
Q 372 3047 722 3315 
Q 1072 3584 1716 3584 
Q 2034 3584 2315 3537 
Q 2597 3491 2834 3397 
z
" id="DejaVuSans-73" transform="scale(0.015625)"/>
      </defs>
      <use xlink:href="#DejaVuSans-4c"/>
      <use x="53.962891" xlink:href="#DejaVuSans-6f"/>
      <use x="115.144531" xlink:href="#DejaVuSans-73"/>
      <use x="167.244141" xlink:href="#DejaVuSans-73"/>
     </g>
    </g>
   </g>
   <g id="line2d_17">
    <path clip-path="url(#p3de04a515c)" d="M 73.832727 210.780978 
L 74.646398 223.897101 
L 75.460068 214.452126 
L 76.273739 192.923394 
L 77.087409 216.243058 
L 77.90108 213.58997 
L 78.714751 216.771048 
L 79.528421 203.71505 
L 80.342092 216.05515 
L 81.155762 203.151461 
L 81.969433 212.582753 
L 82.783103 214.233792 
L 83.596774 210.839498 
L 84.410444 223.590266 
L 85.224115 207.163855 
L 86.037785 211.885819 
L 86.851456 219.899158 
L 87.665126 219.171299 
L 88.478797 212.855327 
L 89.292468 215.539984 
L 90.106138 214.621518 
L 90.919809 227.863483 
L 91.733479 210.731397 
L 92.54715 223.047643 
L 93.36082 211.781669 
L 94.174491 211.130633 
L 94.988161 209.25854 
L 95.801832 205.102513 
L 96.615502 216.848364 
L 97.429173 201.518734 
L 98.242843 212.946315 
L 99.056514 211.577051 
L 99.870185 217.118301 
L 100.683855 199.5986 
L 101.497526 209.724468 
L 102.311196 217.4653 
L 103.124867 208.927749 
L 103.938537 205.783658 
L 104.752208 222.384399 
L 105.565878 212.158013 
L 106.379549 212.131921 
L 107.193219 204.739654 
L 108.00689 218.476704 
L 108.82056 213.197945 
L 109.634231 215.213915 
L 110.447902 208.510554 
L 111.261572 216.237783 
L 112.075243 212.810042 
L 112.888913 212.609813 
L 113.702584 227.153319 
L 114.516254 223.459774 
L 115.329925 210.705345 
L 116.143595 230.43568 
L 116.957266 226.063339 
L 117.770936 223.253472 
L 118.584607 227.172652 
L 119.398278 225.535938 
L 120.211948 224.39065 
L 121.025619 226.701243 
L 121.839289 218.092895 
L 122.65296 227.200927 
L 123.46663 226.76649 
L 124.280301 219.794185 
L 125.093971 220.993432 
L 125.907642 231.867707 
L 126.721312 225.725271 
L 127.534983 224.990994 
L 128.348653 218.419288 
L 129.162324 229.22254 
L 129.975995 227.731532 
L 130.789665 226.786581 
L 131.603336 232.149387 
L 132.417006 239.435712 
L 133.230677 239.072025 
L 134.044347 236.033721 
L 134.858018 239.227489 
L 135.671688 232.958507 
L 136.485359 236.785513 
L 137.299029 233.909414 
L 138.1127 241.849383 
L 138.92637 233.046418 
L 139.740041 218.374344 
L 140.553712 235.415365 
L 141.367382 235.815539 
L 142.181053 223.794202 
L 142.994723 230.656897 
L 143.808394 231.076834 
L 144.622064 234.811135 
L 145.435735 233.509081 
L 146.249405 229.877751 
L 147.063076 232.93468 
L 147.876746 236.992012 
L 148.690417 239.932127 
L 149.504087 234.048193 
L 150.317758 241.548749 
L 151.131429 238.048771 
L 151.945099 231.352813 
L 153.57244 242.697859 
L 154.386111 233.979788 
L 155.199781 235.636718 
L 156.013452 242.609205 
L 156.827122 227.833774 
L 157.640793 238.131744 
L 158.454463 240.91556 
L 159.268134 241.551883 
L 160.081805 244.825741 
L 160.895475 229.841693 
L 161.709146 243.160147 
L 162.522816 236.627548 
L 163.336487 238.843925 
L 164.150157 251.269581 
L 164.963828 245.356684 
L 165.777498 236.797495 
L 166.591169 251.656832 
L 168.21851 241.906678 
L 169.845851 248.762154 
L 170.659522 245.552393 
L 171.473192 253.709179 
L 172.286863 246.904757 
L 173.100533 258.706176 
L 173.914204 250.687629 
L 175.541545 246.94589 
L 176.355215 249.052612 
L 177.168886 255.37333 
L 177.982556 252.710937 
L 178.796227 248.865085 
L 179.609897 257.791046 
L 180.423568 252.428765 
L 181.237239 259.937686 
L 182.050909 256.315308 
L 182.86458 254.968606 
L 183.67825 249.053751 
L 184.491921 257.321322 
L 185.305591 252.78331 
L 186.119262 254.781097 
L 186.932932 253.670832 
L 187.746603 262.991425 
L 188.560273 254.963018 
L 189.373944 258.848078 
L 190.187614 256.001918 
L 191.001285 261.1552 
L 191.814956 257.896436 
L 192.628626 256.926866 
L 193.442297 256.158045 
L 194.255967 256.554474 
L 195.069638 262.832425 
L 195.883308 261.739796 
L 196.696979 252.621151 
L 197.510649 258.032559 
L 198.32432 257.493982 
L 199.13799 256.145858 
L 199.951661 265.250264 
L 200.765332 260.918862 
L 201.579002 264.046502 
L 202.392673 269.132572 
L 203.206343 256.710685 
L 204.020014 263.883779 
L 204.833684 269.325688 
L 205.647355 262.711434 
L 206.461025 267.892012 
L 207.274696 265.124503 
L 208.088366 257.959978 
L 208.902037 268.133652 
L 209.715707 269.413076 
L 210.529378 268.892038 
L 211.343049 269.218808 
L 212.156719 268.475972 
L 212.97039 272.69794 
L 213.78406 266.709157 
L 214.597731 259.496472 
L 215.411401 272.641756 
L 216.225072 274.450054 
L 217.038742 272.050223 
L 217.852413 260.446729 
L 218.666083 270.575773 
L 219.479754 266.188885 
L 220.293424 271.954344 
L 221.107095 269.986391 
L 221.920766 273.849931 
L 222.734436 272.338852 
L 223.548107 271.946548 
L 224.361777 273.106585 
L 225.175448 276.287896 
L 225.989118 268.857604 
L 226.802789 272.720446 
L 227.616459 275.453704 
L 228.43013 282.178333 
L 229.2438 277.184259 
L 230.057471 271.494281 
L 230.871141 272.728142 
L 231.684812 270.167732 
L 232.498483 275.038673 
L 233.312153 270.359714 
L 234.125824 276.716784 
L 234.939494 274.480739 
L 235.753165 262.902499 
L 236.566835 273.673067 
L 237.380506 271.031962 
L 238.194176 282.572631 
L 239.007847 285.620847 
L 239.821517 278.804361 
L 240.635188 274.628139 
L 241.448859 275.990203 
L 242.262529 274.705257 
L 243.0762 277.990233 
L 243.88987 278.606889 
L 244.703541 273.771326 
L 245.517211 275.07818 
L 246.330882 279.978523 
L 247.144552 275.038067 
L 247.958223 276.771074 
L 248.771893 269.376088 
L 249.585564 276.578263 
L 250.399234 276.51966 
L 251.212905 280.888984 
L 252.026576 279.455673 
L 252.840246 275.567653 
L 253.653917 281.935158 
L 254.467587 265.827497 
L 255.281258 277.096641 
L 256.094928 282.037247 
L 256.908599 283.524338 
L 257.722269 277.238852 
L 258.53594 282.899934 
L 259.34961 276.56163 
L 260.163281 279.968723 
L 260.976951 277.238353 
L 261.790622 279.003111 
L 262.604293 279.17418 
L 263.417963 283.606377 
L 264.231634 283.046954 
L 265.045304 279.523954 
L 265.858975 283.708143 
L 266.672645 282.121772 
L 267.486316 283.823158 
L 268.299986 285.825974 
L 269.113657 286.424539 
L 269.927327 279.772132 
L 270.740998 281.618948 
L 271.554668 289.635608 
L 272.368339 284.782075 
L 273.18201 282.776836 
L 273.99568 282.278499 
L 274.809351 283.28549 
L 275.623021 286.116233 
L 276.436692 281.556885 
L 277.250362 281.131806 
L 278.064033 283.021637 
L 278.877703 282.969542 
L 279.691374 271.947038 
L 280.505044 284.821148 
L 281.318715 283.279651 
L 282.132386 283.356913 
L 282.946056 283.139028 
L 283.759727 284.901852 
L 284.573397 283.59699 
L 285.387068 278.484627 
L 286.200738 289.845241 
L 287.828079 283.253231 
L 288.64175 289.581624 
L 289.45542 285.102112 
L 290.269091 288.151243 
L 291.082761 283.431708 
L 291.896432 283.031111 
L 292.710103 277.94474 
L 294.337444 290.305939 
L 295.151114 291.053945 
L 295.964785 285.208766 
L 296.778455 287.713173 
L 297.592126 283.969378 
L 298.405796 285.8423 
L 299.219467 283.616567 
L 300.033137 286.788033 
L 300.846808 287.066184 
L 301.660478 285.592721 
L 302.474149 285.495127 
L 303.28782 290.885475 
L 304.10149 287.374335 
L 304.915161 283.037114 
L 305.728831 284.494503 
L 306.542502 281.574913 
L 308.169843 291.911997 
L 308.983513 286.848553 
L 309.797184 292.657913 
L 310.610854 289.38058 
L 311.424525 288.786004 
L 312.238195 287.925134 
L 313.051866 278.679644 
L 313.865537 289.841845 
L 314.679207 284.013488 
L 315.492878 288.920003 
L 316.306548 287.777133 
L 317.933889 284.425476 
L 318.74756 291.009676 
L 319.56123 291.559684 
L 320.374901 289.261558 
L 321.188571 289.48772 
L 322.002242 280.388656 
L 322.815913 293.999745 
L 323.629583 287.243914 
L 324.443254 290.273983 
L 325.256924 284.808654 
L 326.070595 282.670443 
L 327.697936 292.360503 
L 328.511606 288.87758 
L 329.325277 287.521646 
L 330.138947 289.399853 
L 330.952618 290.467754 
L 331.766288 286.575167 
L 332.579959 286.578797 
L 333.39363 288.641641 
L 334.2073 285.448336 
L 335.020971 291.08541 
L 335.834641 291.493529 
L 336.648312 286.120702 
L 337.461982 293.41316 
L 338.275653 285.994534 
L 339.089323 295.488 
L 340.716664 284.761493 
L 341.530335 287.79532 
L 342.344005 286.523909 
L 343.157676 292.224667 
L 343.971347 290.965004 
L 344.785017 284.566836 
L 345.598688 282.856635 
L 346.412358 287.707802 
L 347.226029 287.150492 
L 348.039699 287.300225 
L 348.85337 286.18901 
L 349.66704 287.512514 
L 350.480711 289.812933 
L 351.294381 287.677378 
L 352.108052 293.606376 
L 352.921722 293.876096 
L 353.735393 292.835283 
L 354.549064 293.154527 
L 355.362734 284.728789 
L 356.176405 292.744516 
L 356.990075 287.600934 
L 357.803746 288.431038 
L 358.617416 293.065005 
L 359.431087 288.110373 
L 361.058428 290.641412 
L 361.872098 287.177273 
L 362.685769 292.752733 
L 363.49944 291.015999 
L 364.31311 294.636307 
L 365.126781 290.453533 
L 365.940451 290.489186 
L 366.754122 291.670013 
L 367.567792 281.086463 
L 368.381463 290.295042 
L 370.008804 291.29641 
L 370.822474 291.286502 
L 371.636145 287.951379 
L 372.449815 290.05123 
L 373.263486 293.952396 
L 374.077157 287.841867 
L 374.890827 294.358101 
L 375.704498 284.15353 
L 376.518168 291.644915 
L 377.331839 294.213598 
L 378.145509 294.320536 
L 378.95918 294.817018 
L 379.77285 289.633481 
L 380.586521 290.536114 
L 381.400191 288.654458 
L 382.213862 291.250056 
L 383.027532 287.608015 
L 383.841203 291.834223 
L 384.654874 293.313295 
L 385.468544 289.125523 
L 386.282215 292.509093 
L 387.095885 285.169911 
L 387.909556 289.424808 
L 388.723226 294.497634 
L 389.536897 288.788018 
L 390.350567 280.17828 
L 391.164238 287.083869 
L 391.977908 295.253218 
L 392.791579 294.46671 
L 393.605249 295.086238 
L 394.41892 292.453367 
L 395.232591 285.261557 
L 396.046261 286.951053 
L 396.859932 294.402895 
L 397.673602 290.651714 
L 398.487273 294.639266 
L 398.487273 294.639266 
" style="fill:none;stroke:#1f77b4;stroke-linecap:square;stroke-width:1.5;"/>
   </g>
   <g id="line2d_18">
    <path clip-path="url(#p3de04a515c)" d="M 73.832727 71.254945 
L 74.646398 62.064754 
L 75.460068 62.884714 
L 76.273739 74.898032 
L 77.087409 66.601484 
L 77.90108 81.161388 
L 78.714751 62.517058 
L 79.528421 68.62999 
L 80.342092 76.958117 
L 81.155762 71.379353 
L 81.969433 63.314726 
L 82.783103 64.614361 
L 83.596774 55.144979 
L 84.410444 71.495079 
L 85.224115 60.395685 
L 86.037785 70.307332 
L 86.851456 64.073171 
L 87.665126 59.55251 
L 89.292468 73.278475 
L 90.106138 62.177111 
L 90.919809 59.447594 
L 91.733479 70.885935 
L 92.54715 64.401751 
L 93.36082 67.396389 
L 94.174491 70.986937 
L 94.988161 77.897448 
L 96.615502 61.136574 
L 97.429173 66.554663 
L 98.242843 66.755594 
L 99.056514 69.784716 
L 99.870185 62.257851 
L 100.683855 63.987337 
L 101.497526 66.676826 
L 102.311196 66.577204 
L 103.124867 63.151852 
L 103.938537 70.658746 
L 104.752208 71.052259 
L 105.565878 63.212317 
L 106.379549 53.568 
L 107.193219 67.215539 
L 108.00689 59.174279 
L 108.82056 67.521202 
L 109.634231 64.024322 
L 110.447902 67.761441 
L 111.261572 66.664496 
L 112.075243 67.599396 
L 112.888913 79.490875 
L 113.702584 72.472259 
L 114.516254 80.187153 
L 115.329925 80.872771 
L 117.770936 87.710959 
L 118.584607 95.236297 
L 119.398278 85.372538 
L 120.211948 90.785443 
L 121.025619 90.515663 
L 121.839289 92.565973 
L 122.65296 84.076819 
L 123.46663 80.72149 
L 124.280301 86.917991 
L 125.093971 89.524258 
L 125.907642 103.482225 
L 126.721312 98.600149 
L 127.534983 101.449273 
L 128.348653 85.667332 
L 129.162324 92.922481 
L 129.975995 85.853377 
L 130.789665 97.378051 
L 131.603336 106.259629 
L 132.417006 105.198891 
L 133.230677 113.293991 
L 134.044347 97.593389 
L 134.858018 100.995566 
L 135.671688 103.825373 
L 136.485359 90.390966 
L 137.299029 113.054583 
L 138.1127 102.867956 
L 138.92637 109.303191 
L 139.740041 103.56263 
L 140.553712 104.512214 
L 141.367382 103.642932 
L 142.181053 110.937069 
L 142.994723 121.360914 
L 143.808394 116.353241 
L 144.622064 100.315618 
L 145.435735 105.782525 
L 146.249405 117.404249 
L 147.063076 120.326479 
L 147.876746 101.900608 
L 148.690417 117.536847 
L 149.504087 116.870223 
L 150.317758 115.872787 
L 151.131429 114.463001 
L 151.945099 115.768958 
L 152.75877 111.236131 
L 153.57244 103.87397 
L 154.386111 109.777637 
L 155.199781 100.743942 
L 156.013452 109.406696 
L 156.827122 127.630002 
L 157.640793 110.550563 
L 158.454463 119.872709 
L 159.268134 115.94671 
L 160.081805 113.822965 
L 160.895475 109.53702 
L 161.709146 126.454838 
L 162.522816 125.041907 
L 163.336487 116.190571 
L 164.150157 114.722284 
L 164.963828 112.459419 
L 165.777498 89.999789 
L 166.591169 125.61754 
L 167.404839 121.82496 
L 168.21851 130.305026 
L 169.03218 129.027947 
L 169.845851 129.146611 
L 170.659522 132.273058 
L 171.473192 137.571973 
L 172.286863 133.414761 
L 173.914204 122.698609 
L 174.727874 124.069304 
L 175.541545 133.663705 
L 176.355215 141.932863 
L 177.168886 134.944882 
L 177.982556 131.255133 
L 178.796227 124.643393 
L 179.609897 140.679116 
L 180.423568 134.13441 
L 181.237239 121.534272 
L 182.050909 142.333717 
L 182.86458 129.493889 
L 183.67825 127.066444 
L 184.491921 148.262149 
L 185.305591 149.289935 
L 186.119262 145.290409 
L 186.932932 148.501911 
L 187.746603 131.758033 
L 188.560273 152.027526 
L 189.373944 143.388547 
L 190.187614 147.397068 
L 191.001285 138.55311 
L 191.814956 128.337752 
L 192.628626 146.731778 
L 193.442297 125.149477 
L 194.255967 145.391654 
L 195.069638 152.178184 
L 195.883308 151.950651 
L 196.696979 144.180976 
L 197.510649 154.901252 
L 198.32432 149.007029 
L 199.13799 154.558356 
L 199.951661 154.115654 
L 200.765332 154.662922 
L 201.579002 146.15339 
L 202.392673 149.881984 
L 203.206343 152.89225 
L 204.020014 131.979104 
L 204.833684 155.010281 
L 205.647355 149.329265 
L 206.461025 152.002351 
L 207.274696 145.969822 
L 208.088366 141.087842 
L 208.902037 155.045817 
L 209.715707 145.973333 
L 210.529378 140.12049 
L 211.343049 158.689485 
L 212.156719 138.297054 
L 212.97039 139.90761 
L 213.78406 158.424135 
L 214.597731 161.06857 
L 215.411401 157.994384 
L 216.225072 144.950438 
L 217.038742 155.483064 
L 217.852413 150.718033 
L 218.666083 142.743985 
L 219.479754 151.100743 
L 220.293424 151.408862 
L 221.107095 148.627366 
L 221.920766 135.798204 
L 222.734436 152.146604 
L 223.548107 155.935434 
L 224.361777 160.451249 
L 225.175448 158.124665 
L 225.989118 162.782009 
L 226.802789 106.223779 
L 227.616459 135.481887 
L 228.43013 141.201726 
L 229.2438 130.752225 
L 230.057471 131.863329 
L 230.871141 155.111643 
L 231.684812 155.41982 
L 232.498483 150.896662 
L 233.312153 152.489381 
L 234.125824 159.881356 
L 234.939494 143.009646 
L 235.753165 165.054134 
L 236.566835 171.313568 
L 239.007847 142.773621 
L 239.821517 148.911247 
L 240.635188 149.499514 
L 241.448859 150.483093 
L 242.262529 157.237062 
L 243.0762 149.429083 
L 243.88987 161.262553 
L 244.703541 168.353571 
L 245.517211 164.892134 
L 246.330882 170.105354 
L 247.144552 162.304006 
L 247.958223 163.170205 
L 248.771893 170.534642 
L 249.585564 161.482934 
L 250.399234 172.302241 
L 251.212905 147.17107 
L 252.026576 167.295311 
L 252.840246 168.478043 
L 253.653917 165.429528 
L 254.467587 160.869717 
L 255.281258 153.002759 
L 256.094928 168.562282 
L 256.908599 137.532016 
L 257.722269 160.727204 
L 258.53594 152.346467 
L 259.34961 169.412557 
L 260.163281 172.137602 
L 260.976951 162.026397 
L 261.790622 175.061947 
L 262.604293 171.42911 
L 264.231634 144.595314 
L 265.045304 138.302184 
L 265.858975 167.14284 
L 266.672645 162.691199 
L 267.486316 168.278236 
L 268.299986 156.753147 
L 269.113657 156.192229 
L 269.927327 153.477886 
L 270.740998 164.954395 
L 271.554668 158.223107 
L 272.368339 120.248063 
L 273.18201 147.162902 
L 273.99568 157.8075 
L 274.809351 155.960565 
L 275.623021 100.936712 
L 276.436692 165.97404 
L 277.250362 168.14791 
L 278.064033 172.604132 
L 278.877703 139.731439 
L 279.691374 165.513584 
L 280.505044 167.890522 
L 281.318715 160.359039 
L 282.132386 159.274414 
L 282.946056 164.378105 
L 283.759727 159.438446 
L 284.573397 159.520499 
L 285.387068 169.719293 
L 287.014409 149.500223 
L 287.828079 164.328274 
L 288.64175 161.528583 
L 289.45542 168.904531 
L 290.269091 119.707738 
L 291.082761 163.704784 
L 291.896432 173.494672 
L 292.710103 175.688656 
L 293.523773 163.962034 
L 294.337444 168.691399 
L 295.151114 152.226958 
L 295.964785 161.949228 
L 296.778455 161.133673 
L 297.592126 159.08282 
L 300.033137 163.93504 
L 300.846808 139.328416 
L 301.660478 158.494539 
L 302.474149 161.305412 
L 303.28782 157.597559 
L 304.10149 162.123194 
L 304.915161 161.071361 
L 306.542502 157.135882 
L 307.356172 169.215345 
L 308.169843 167.013919 
L 308.983513 153.654378 
L 309.797184 158.016275 
L 310.610854 166.746347 
L 311.424525 157.368544 
L 312.238195 163.060119 
L 313.051866 128.405776 
L 314.679207 170.31414 
L 315.492878 164.33814 
L 316.306548 144.536836 
L 317.120219 160.311292 
L 317.933889 163.893032 
L 318.74756 156.103034 
L 319.56123 158.839104 
L 320.374901 156.620645 
L 321.188571 152.593628 
L 322.002242 139.873221 
L 322.815913 161.686708 
L 323.629583 149.677384 
L 324.443254 160.310903 
L 325.256924 160.292986 
L 326.070595 168.94922 
L 326.884265 155.301364 
L 327.697936 163.377539 
L 328.511606 165.600535 
L 329.325277 157.593454 
L 330.138947 152.451269 
L 330.952618 150.726664 
L 331.766288 160.156779 
L 332.579959 160.780387 
L 333.39363 161.833263 
L 334.2073 161.140686 
L 335.020971 171.796559 
L 335.834641 137.014146 
L 336.648312 168.175033 
L 337.461982 164.086115 
L 338.275653 154.077725 
L 339.089323 133.679347 
L 339.902994 173.592685 
L 340.716664 160.970879 
L 341.530335 161.670337 
L 342.344005 170.147475 
L 343.157676 168.576422 
L 343.971347 171.14122 
L 344.785017 163.137103 
L 345.598688 142.889112 
L 346.412358 158.421621 
L 347.226029 155.249486 
L 348.039699 166.410623 
L 348.85337 147.44305 
L 349.66704 169.011578 
L 350.480711 176.473807 
L 351.294381 168.586015 
L 352.108052 164.189692 
L 352.921722 163.23119 
L 354.549064 144.880407 
L 355.362734 136.410144 
L 356.176405 151.091025 
L 356.990075 111.407434 
L 357.803746 165.185791 
L 358.617416 155.354009 
L 359.431087 165.158422 
L 360.244757 162.701655 
L 361.058428 157.675057 
L 361.872098 177.892094 
L 362.685769 174.575303 
L 363.49944 170.716933 
L 364.31311 151.22164 
L 365.126781 155.318293 
L 365.940451 156.526911 
L 366.754122 144.801879 
L 367.567792 160.14417 
L 368.381463 154.988925 
L 369.195133 170.026132 
L 370.008804 132.19585 
L 370.822474 154.260477 
L 371.636145 161.750009 
L 372.449815 155.625832 
L 373.263486 158.835253 
L 374.077157 164.716331 
L 374.890827 157.556254 
L 375.704498 87.030846 
L 376.518168 170.384736 
L 377.331839 158.650306 
L 378.145509 150.887141 
L 378.95918 151.298467 
L 379.77285 149.101584 
L 380.586521 122.570211 
L 381.400191 157.393161 
L 382.213862 147.732028 
L 383.027532 148.713642 
L 383.841203 166.721473 
L 384.654874 164.192193 
L 385.468544 160.003204 
L 386.282215 148.190111 
L 387.095885 128.241768 
L 387.909556 171.10261 
L 388.723226 159.368643 
L 389.536897 159.41045 
L 390.350567 156.571472 
L 391.164238 167.847052 
L 392.791579 143.21772 
L 393.605249 147.341777 
L 394.41892 145.224992 
L 395.232591 160.138088 
L 396.046261 165.609616 
L 396.859932 173.225882 
L 397.673602 170.402456 
L 398.487273 153.882174 
L 398.487273 153.882174 
" style="fill:none;stroke:#ff7f0e;stroke-linecap:square;stroke-width:1.5;"/>
   </g>
   <g id="patch_3">
    <path d="M 57.6 307.584 
L 57.6 41.472 
" style="fill:none;stroke:#000000;stroke-linecap:square;stroke-linejoin:miter;stroke-width:0.8;"/>
   </g>
   <g id="patch_4">
    <path d="M 414.72 307.584 
L 414.72 41.472 
" style="fill:none;stroke:#000000;stroke-linecap:square;stroke-linejoin:miter;stroke-width:0.8;"/>
   </g>
   <g id="patch_5">
    <path d="M 57.6 307.584 
L 414.72 307.584 
" style="fill:none;stroke:#000000;stroke-linecap:square;stroke-linejoin:miter;stroke-width:0.8;"/>
   </g>
   <g id="patch_6">
    <path d="M 57.6 41.472 
L 414.72 41.472 
" style="fill:none;stroke:#000000;stroke-linecap:square;stroke-linejoin:miter;stroke-width:0.8;"/>
   </g>
   <g id="legend_1">
    <g id="patch_7">
     <path d="M 303.845 78.82825 
L 407.72 78.82825 
Q 409.72 78.82825 409.72 76.82825 
L 409.72 48.472 
Q 409.72 46.472 407.72 46.472 
L 303.845 46.472 
Q 301.845 46.472 301.845 48.472 
L 301.845 76.82825 
Q 301.845 78.82825 303.845 78.82825 
z
" style="fill:#ffffff;opacity:0.8;stroke:#cccccc;stroke-linejoin:miter;"/>
    </g>
    <g id="line2d_19">
     <path d="M 305.845 54.570437 
L 325.845 54.570437 
" style="fill:none;stroke:#1f77b4;stroke-linecap:square;stroke-width:1.5;"/>
    </g>
    <g id="line2d_20"/>
    <g id="text_19">
     <!-- Train loss -->
     <g transform="translate(333.845 58.070437)scale(0.1 -0.1)">
      <defs>
       <path d="M -19 4666 
L 3928 4666 
L 3928 4134 
L 2272 4134 
L 2272 0 
L 1638 0 
L 1638 4134 
L -19 4134 
L -19 4666 
z
" id="DejaVuSans-54" transform="scale(0.015625)"/>
       <path d="M 2631 2963 
Q 2534 3019 2420 3045 
Q 2306 3072 2169 3072 
Q 1681 3072 1420 2755 
Q 1159 2438 1159 1844 
L 1159 0 
L 581 0 
L 581 3500 
L 1159 3500 
L 1159 2956 
Q 1341 3275 1631 3429 
Q 1922 3584 2338 3584 
Q 2397 3584 2469 3576 
Q 2541 3569 2628 3553 
L 2631 2963 
z
" id="DejaVuSans-72" transform="scale(0.015625)"/>
       <path d="M 2194 1759 
Q 1497 1759 1228 1600 
Q 959 1441 959 1056 
Q 959 750 1161 570 
Q 1363 391 1709 391 
Q 2188 391 2477 730 
Q 2766 1069 2766 1631 
L 2766 1759 
L 2194 1759 
z
M 3341 1997 
L 3341 0 
L 2766 0 
L 2766 531 
Q 2569 213 2275 61 
Q 1981 -91 1556 -91 
Q 1019 -91 701 211 
Q 384 513 384 1019 
Q 384 1609 779 1909 
Q 1175 2209 1959 2209 
L 2766 2209 
L 2766 2266 
Q 2766 2663 2505 2880 
Q 2244 3097 1772 3097 
Q 1472 3097 1187 3025 
Q 903 2953 641 2809 
L 641 3341 
Q 956 3463 1253 3523 
Q 1550 3584 1831 3584 
Q 2591 3584 2966 3190 
Q 3341 2797 3341 1997 
z
" id="DejaVuSans-61" transform="scale(0.015625)"/>
       <path d="M 603 3500 
L 1178 3500 
L 1178 0 
L 603 0 
L 603 3500 
z
M 603 4863 
L 1178 4863 
L 1178 4134 
L 603 4134 
L 603 4863 
z
" id="DejaVuSans-69" transform="scale(0.015625)"/>
       <path d="M 3513 2113 
L 3513 0 
L 2938 0 
L 2938 2094 
Q 2938 2591 2744 2837 
Q 2550 3084 2163 3084 
Q 1697 3084 1428 2787 
Q 1159 2491 1159 1978 
L 1159 0 
L 581 0 
L 581 3500 
L 1159 3500 
L 1159 2956 
Q 1366 3272 1645 3428 
Q 1925 3584 2291 3584 
Q 2894 3584 3203 3211 
Q 3513 2838 3513 2113 
z
" id="DejaVuSans-6e" transform="scale(0.015625)"/>
       <path id="DejaVuSans-20" transform="scale(0.015625)"/>
       <path d="M 603 4863 
L 1178 4863 
L 1178 0 
L 603 0 
L 603 4863 
z
" id="DejaVuSans-6c" transform="scale(0.015625)"/>
      </defs>
      <use xlink:href="#DejaVuSans-54"/>
      <use x="46.333984" xlink:href="#DejaVuSans-72"/>
      <use x="87.447266" xlink:href="#DejaVuSans-61"/>
      <use x="148.726562" xlink:href="#DejaVuSans-69"/>
      <use x="176.509766" xlink:href="#DejaVuSans-6e"/>
      <use x="239.888672" xlink:href="#DejaVuSans-20"/>
      <use x="271.675781" xlink:href="#DejaVuSans-6c"/>
      <use x="299.458984" xlink:href="#DejaVuSans-6f"/>
      <use x="360.640625" xlink:href="#DejaVuSans-73"/>
      <use x="412.740234" xlink:href="#DejaVuSans-73"/>
     </g>
    </g>
    <g id="line2d_21">
     <path d="M 305.845 69.248562 
L 325.845 69.248562 
" style="fill:none;stroke:#ff7f0e;stroke-linecap:square;stroke-width:1.5;"/>
    </g>
    <g id="line2d_22"/>
    <g id="text_20">
     <!-- Validation loss -->
     <g transform="translate(333.845 72.748562)scale(0.1 -0.1)">
      <defs>
       <path d="M 1831 0 
L 50 4666 
L 709 4666 
L 2188 738 
L 3669 4666 
L 4325 4666 
L 2547 0 
L 1831 0 
z
" id="DejaVuSans-56" transform="scale(0.015625)"/>
       <path d="M 2906 2969 
L 2906 4863 
L 3481 4863 
L 3481 0 
L 2906 0 
L 2906 525 
Q 2725 213 2448 61 
Q 2172 -91 1784 -91 
Q 1150 -91 751 415 
Q 353 922 353 1747 
Q 353 2572 751 3078 
Q 1150 3584 1784 3584 
Q 2172 3584 2448 3432 
Q 2725 3281 2906 2969 
z
M 947 1747 
Q 947 1113 1208 752 
Q 1469 391 1925 391 
Q 2381 391 2643 752 
Q 2906 1113 2906 1747 
Q 2906 2381 2643 2742 
Q 2381 3103 1925 3103 
Q 1469 3103 1208 2742 
Q 947 2381 947 1747 
z
" id="DejaVuSans-64" transform="scale(0.015625)"/>
       <path d="M 1172 4494 
L 1172 3500 
L 2356 3500 
L 2356 3053 
L 1172 3053 
L 1172 1153 
Q 1172 725 1289 603 
Q 1406 481 1766 481 
L 2356 481 
L 2356 0 
L 1766 0 
Q 1100 0 847 248 
Q 594 497 594 1153 
L 594 3053 
L 172 3053 
L 172 3500 
L 594 3500 
L 594 4494 
L 1172 4494 
z
" id="DejaVuSans-74" transform="scale(0.015625)"/>
      </defs>
      <use xlink:href="#DejaVuSans-56"/>
      <use x="60.658203" xlink:href="#DejaVuSans-61"/>
      <use x="121.9375" xlink:href="#DejaVuSans-6c"/>
      <use x="149.720703" xlink:href="#DejaVuSans-69"/>
      <use x="177.503906" xlink:href="#DejaVuSans-64"/>
      <use x="240.980469" xlink:href="#DejaVuSans-61"/>
      <use x="302.259766" xlink:href="#DejaVuSans-74"/>
      <use x="341.46875" xlink:href="#DejaVuSans-69"/>
      <use x="369.251953" xlink:href="#DejaVuSans-6f"/>
      <use x="430.433594" xlink:href="#DejaVuSans-6e"/>
      <use x="493.8125" xlink:href="#DejaVuSans-20"/>
      <use x="525.599609" xlink:href="#DejaVuSans-6c"/>
      <use x="553.382812" xlink:href="#DejaVuSans-6f"/>
      <use x="614.564453" xlink:href="#DejaVuSans-73"/>
      <use x="666.664062" xlink:href="#DejaVuSans-73"/>
     </g>
    </g>
   </g>
  </g>
 </g>
 <defs>
  <clipPath id="p3de04a515c">
   <rect height="266.112" width="357.12" x="57.6" y="41.472"/>
  </clipPath>
 </defs>
</svg>
