<?xml version="1.0" encoding="utf-8" standalone="no"?>
<!DOCTYPE svg PUBLIC "-//W3C//DTD SVG 1.1//EN"
  "http://www.w3.org/Graphics/SVG/1.1/DTD/svg11.dtd">
<svg height="345.6pt" version="1.1" viewBox="0 0 460.8 345.6" width="460.8pt" xmlns="http://www.w3.org/2000/svg" xmlns:xlink="http://www.w3.org/1999/xlink">
 <metadata>
  <rdf:RDF xmlns:cc="http://creativecommons.org/ns#" xmlns:dc="http://purl.org/dc/elements/1.1/" xmlns:rdf="http://www.w3.org/1999/02/22-rdf-syntax-ns#">
   <cc:Work>
    <dc:type rdf:resource="http://purl.org/dc/dcmitype/StillImage"/>
    <dc:date>2021-07-15T08:59:09.068957</dc:date>
    <dc:format>image/svg+xml</dc:format>
    <dc:creator>
     <cc:Agent>
      <dc:title>Matplotlib v3.4.2, https://matplotlib.org/</dc:title>
     </cc:Agent>
    </dc:creator>
   </cc:Work>
  </rdf:RDF>
 </metadata>
 <defs>
  <style type="text/css">*{stroke-linecap:butt;stroke-linejoin:round;}</style>
 </defs>
 <g id="figure_1">
  <g id="patch_1">
   <path d="M 0 345.6 
L 460.8 345.6 
L 460.8 0 
L 0 0 
z
" style="fill:#ffffff;"/>
  </g>
  <g id="axes_1">
   <g id="patch_2">
    <path d="M 57.6 307.584 
L 414.72 307.584 
L 414.72 41.472 
L 57.6 41.472 
z
" style="fill:#ffffff;"/>
   </g>
   <g id="matplotlib.axis_1">
    <g id="xtick_1">
     <g id="line2d_1">
      <defs>
       <path d="M 0 0 
L 0 3.5 
" id="m310e775128" style="stroke:#000000;stroke-width:0.8;"/>
      </defs>
      <g>
       <use style="stroke:#000000;stroke-width:0.8;" x="73.019057" xlink:href="#m310e775128" y="307.584"/>
      </g>
     </g>
     <g id="text_1">
      <!-- 0 -->
      <g transform="translate(69.837807 322.182437)scale(0.1 -0.1)">
       <defs>
        <path d="M 2034 4250 
Q 1547 4250 1301 3770 
Q 1056 3291 1056 2328 
Q 1056 1369 1301 889 
Q 1547 409 2034 409 
Q 2525 409 2770 889 
Q 3016 1369 3016 2328 
Q 3016 3291 2770 3770 
Q 2525 4250 2034 4250 
z
M 2034 4750 
Q 2819 4750 3233 4129 
Q 3647 3509 3647 2328 
Q 3647 1150 3233 529 
Q 2819 -91 2034 -91 
Q 1250 -91 836 529 
Q 422 1150 422 2328 
Q 422 3509 836 4129 
Q 1250 4750 2034 4750 
z
" id="DejaVuSans-30" transform="scale(0.015625)"/>
       </defs>
       <use xlink:href="#DejaVuSans-30"/>
      </g>
     </g>
    </g>
    <g id="xtick_2">
     <g id="line2d_2">
      <g>
       <use style="stroke:#000000;stroke-width:0.8;" x="113.702584" xlink:href="#m310e775128" y="307.584"/>
      </g>
     </g>
     <g id="text_2">
      <!-- 50 -->
      <g transform="translate(107.340084 322.182437)scale(0.1 -0.1)">
       <defs>
        <path d="M 691 4666 
L 3169 4666 
L 3169 4134 
L 1269 4134 
L 1269 2991 
Q 1406 3038 1543 3061 
Q 1681 3084 1819 3084 
Q 2600 3084 3056 2656 
Q 3513 2228 3513 1497 
Q 3513 744 3044 326 
Q 2575 -91 1722 -91 
Q 1428 -91 1123 -41 
Q 819 9 494 109 
L 494 744 
Q 775 591 1075 516 
Q 1375 441 1709 441 
Q 2250 441 2565 725 
Q 2881 1009 2881 1497 
Q 2881 1984 2565 2268 
Q 2250 2553 1709 2553 
Q 1456 2553 1204 2497 
Q 953 2441 691 2322 
L 691 4666 
z
" id="DejaVuSans-35" transform="scale(0.015625)"/>
       </defs>
       <use xlink:href="#DejaVuSans-35"/>
       <use x="63.623047" xlink:href="#DejaVuSans-30"/>
      </g>
     </g>
    </g>
    <g id="xtick_3">
     <g id="line2d_3">
      <g>
       <use style="stroke:#000000;stroke-width:0.8;" x="154.386111" xlink:href="#m310e775128" y="307.584"/>
      </g>
     </g>
     <g id="text_3">
      <!-- 100 -->
      <g transform="translate(144.842361 322.182437)scale(0.1 -0.1)">
       <defs>
        <path d="M 794 531 
L 1825 531 
L 1825 4091 
L 703 3866 
L 703 4441 
L 1819 4666 
L 2450 4666 
L 2450 531 
L 3481 531 
L 3481 0 
L 794 0 
L 794 531 
z
" id="DejaVuSans-31" transform="scale(0.015625)"/>
       </defs>
       <use xlink:href="#DejaVuSans-31"/>
       <use x="63.623047" xlink:href="#DejaVuSans-30"/>
       <use x="127.246094" xlink:href="#DejaVuSans-30"/>
      </g>
     </g>
    </g>
    <g id="xtick_4">
     <g id="line2d_4">
      <g>
       <use style="stroke:#000000;stroke-width:0.8;" x="195.069638" xlink:href="#m310e775128" y="307.584"/>
      </g>
     </g>
     <g id="text_4">
      <!-- 150 -->
      <g transform="translate(185.525888 322.182437)scale(0.1 -0.1)">
       <use xlink:href="#DejaVuSans-31"/>
       <use x="63.623047" xlink:href="#DejaVuSans-35"/>
       <use x="127.246094" xlink:href="#DejaVuSans-30"/>
      </g>
     </g>
    </g>
    <g id="xtick_5">
     <g id="line2d_5">
      <g>
       <use style="stroke:#000000;stroke-width:0.8;" x="235.753165" xlink:href="#m310e775128" y="307.584"/>
      </g>
     </g>
     <g id="text_5">
      <!-- 200 -->
      <g transform="translate(226.209415 322.182437)scale(0.1 -0.1)">
       <defs>
        <path d="M 1228 531 
L 3431 531 
L 3431 0 
L 469 0 
L 469 531 
Q 828 903 1448 1529 
Q 2069 2156 2228 2338 
Q 2531 2678 2651 2914 
Q 2772 3150 2772 3378 
Q 2772 3750 2511 3984 
Q 2250 4219 1831 4219 
Q 1534 4219 1204 4116 
Q 875 4013 500 3803 
L 500 4441 
Q 881 4594 1212 4672 
Q 1544 4750 1819 4750 
Q 2544 4750 2975 4387 
Q 3406 4025 3406 3419 
Q 3406 3131 3298 2873 
Q 3191 2616 2906 2266 
Q 2828 2175 2409 1742 
Q 1991 1309 1228 531 
z
" id="DejaVuSans-32" transform="scale(0.015625)"/>
       </defs>
       <use xlink:href="#DejaVuSans-32"/>
       <use x="63.623047" xlink:href="#DejaVuSans-30"/>
       <use x="127.246094" xlink:href="#DejaVuSans-30"/>
      </g>
     </g>
    </g>
    <g id="xtick_6">
     <g id="line2d_6">
      <g>
       <use style="stroke:#000000;stroke-width:0.8;" x="276.436692" xlink:href="#m310e775128" y="307.584"/>
      </g>
     </g>
     <g id="text_6">
      <!-- 250 -->
      <g transform="translate(266.892942 322.182437)scale(0.1 -0.1)">
       <use xlink:href="#DejaVuSans-32"/>
       <use x="63.623047" xlink:href="#DejaVuSans-35"/>
       <use x="127.246094" xlink:href="#DejaVuSans-30"/>
      </g>
     </g>
    </g>
    <g id="xtick_7">
     <g id="line2d_7">
      <g>
       <use style="stroke:#000000;stroke-width:0.8;" x="317.120219" xlink:href="#m310e775128" y="307.584"/>
      </g>
     </g>
     <g id="text_7">
      <!-- 300 -->
      <g transform="translate(307.576469 322.182437)scale(0.1 -0.1)">
       <defs>
        <path d="M 2597 2516 
Q 3050 2419 3304 2112 
Q 3559 1806 3559 1356 
Q 3559 666 3084 287 
Q 2609 -91 1734 -91 
Q 1441 -91 1130 -33 
Q 819 25 488 141 
L 488 750 
Q 750 597 1062 519 
Q 1375 441 1716 441 
Q 2309 441 2620 675 
Q 2931 909 2931 1356 
Q 2931 1769 2642 2001 
Q 2353 2234 1838 2234 
L 1294 2234 
L 1294 2753 
L 1863 2753 
Q 2328 2753 2575 2939 
Q 2822 3125 2822 3475 
Q 2822 3834 2567 4026 
Q 2313 4219 1838 4219 
Q 1578 4219 1281 4162 
Q 984 4106 628 3988 
L 628 4550 
Q 988 4650 1302 4700 
Q 1616 4750 1894 4750 
Q 2613 4750 3031 4423 
Q 3450 4097 3450 3541 
Q 3450 3153 3228 2886 
Q 3006 2619 2597 2516 
z
" id="DejaVuSans-33" transform="scale(0.015625)"/>
       </defs>
       <use xlink:href="#DejaVuSans-33"/>
       <use x="63.623047" xlink:href="#DejaVuSans-30"/>
       <use x="127.246094" xlink:href="#DejaVuSans-30"/>
      </g>
     </g>
    </g>
    <g id="xtick_8">
     <g id="line2d_8">
      <g>
       <use style="stroke:#000000;stroke-width:0.8;" x="357.803746" xlink:href="#m310e775128" y="307.584"/>
      </g>
     </g>
     <g id="text_8">
      <!-- 350 -->
      <g transform="translate(348.259996 322.182437)scale(0.1 -0.1)">
       <use xlink:href="#DejaVuSans-33"/>
       <use x="63.623047" xlink:href="#DejaVuSans-35"/>
       <use x="127.246094" xlink:href="#DejaVuSans-30"/>
      </g>
     </g>
    </g>
    <g id="xtick_9">
     <g id="line2d_9">
      <g>
       <use style="stroke:#000000;stroke-width:0.8;" x="398.487273" xlink:href="#m310e775128" y="307.584"/>
      </g>
     </g>
     <g id="text_9">
      <!-- 400 -->
      <g transform="translate(388.943523 322.182437)scale(0.1 -0.1)">
       <defs>
        <path d="M 2419 4116 
L 825 1625 
L 2419 1625 
L 2419 4116 
z
M 2253 4666 
L 3047 4666 
L 3047 1625 
L 3713 1625 
L 3713 1100 
L 3047 1100 
L 3047 0 
L 2419 0 
L 2419 1100 
L 313 1100 
L 313 1709 
L 2253 4666 
z
" id="DejaVuSans-34" transform="scale(0.015625)"/>
       </defs>
       <use xlink:href="#DejaVuSans-34"/>
       <use x="63.623047" xlink:href="#DejaVuSans-30"/>
       <use x="127.246094" xlink:href="#DejaVuSans-30"/>
      </g>
     </g>
    </g>
    <g id="text_10">
     <!-- Epoch -->
     <g transform="translate(213.193594 339.659781)scale(0.15 -0.15)">
      <defs>
       <path d="M 628 4666 
L 3578 4666 
L 3578 4134 
L 1259 4134 
L 1259 2753 
L 3481 2753 
L 3481 2222 
L 1259 2222 
L 1259 531 
L 3634 531 
L 3634 0 
L 628 0 
L 628 4666 
z
" id="DejaVuSans-45" transform="scale(0.015625)"/>
       <path d="M 1159 525 
L 1159 -1331 
L 581 -1331 
L 581 3500 
L 1159 3500 
L 1159 2969 
Q 1341 3281 1617 3432 
Q 1894 3584 2278 3584 
Q 2916 3584 3314 3078 
Q 3713 2572 3713 1747 
Q 3713 922 3314 415 
Q 2916 -91 2278 -91 
Q 1894 -91 1617 61 
Q 1341 213 1159 525 
z
M 3116 1747 
Q 3116 2381 2855 2742 
Q 2594 3103 2138 3103 
Q 1681 3103 1420 2742 
Q 1159 2381 1159 1747 
Q 1159 1113 1420 752 
Q 1681 391 2138 391 
Q 2594 391 2855 752 
Q 3116 1113 3116 1747 
z
" id="DejaVuSans-70" transform="scale(0.015625)"/>
       <path d="M 1959 3097 
Q 1497 3097 1228 2736 
Q 959 2375 959 1747 
Q 959 1119 1226 758 
Q 1494 397 1959 397 
Q 2419 397 2687 759 
Q 2956 1122 2956 1747 
Q 2956 2369 2687 2733 
Q 2419 3097 1959 3097 
z
M 1959 3584 
Q 2709 3584 3137 3096 
Q 3566 2609 3566 1747 
Q 3566 888 3137 398 
Q 2709 -91 1959 -91 
Q 1206 -91 779 398 
Q 353 888 353 1747 
Q 353 2609 779 3096 
Q 1206 3584 1959 3584 
z
" id="DejaVuSans-6f" transform="scale(0.015625)"/>
       <path d="M 3122 3366 
L 3122 2828 
Q 2878 2963 2633 3030 
Q 2388 3097 2138 3097 
Q 1578 3097 1268 2742 
Q 959 2388 959 1747 
Q 959 1106 1268 751 
Q 1578 397 2138 397 
Q 2388 397 2633 464 
Q 2878 531 3122 666 
L 3122 134 
Q 2881 22 2623 -34 
Q 2366 -91 2075 -91 
Q 1284 -91 818 406 
Q 353 903 353 1747 
Q 353 2603 823 3093 
Q 1294 3584 2113 3584 
Q 2378 3584 2631 3529 
Q 2884 3475 3122 3366 
z
" id="DejaVuSans-63" transform="scale(0.015625)"/>
       <path d="M 3513 2113 
L 3513 0 
L 2938 0 
L 2938 2094 
Q 2938 2591 2744 2837 
Q 2550 3084 2163 3084 
Q 1697 3084 1428 2787 
Q 1159 2491 1159 1978 
L 1159 0 
L 581 0 
L 581 4863 
L 1159 4863 
L 1159 2956 
Q 1366 3272 1645 3428 
Q 1925 3584 2291 3584 
Q 2894 3584 3203 3211 
Q 3513 2838 3513 2113 
z
" id="DejaVuSans-68" transform="scale(0.015625)"/>
      </defs>
      <use xlink:href="#DejaVuSans-45"/>
      <use x="63.183594" xlink:href="#DejaVuSans-70"/>
      <use x="126.660156" xlink:href="#DejaVuSans-6f"/>
      <use x="187.841797" xlink:href="#DejaVuSans-63"/>
      <use x="242.822266" xlink:href="#DejaVuSans-68"/>
     </g>
    </g>
   </g>
   <g id="matplotlib.axis_2">
    <g id="ytick_1">
     <g id="line2d_10">
      <defs>
       <path d="M 0 0 
L -3.5 0 
" id="ma68c6e19e0" style="stroke:#000000;stroke-width:0.8;"/>
      </defs>
      <g>
       <use style="stroke:#000000;stroke-width:0.8;" x="57.6" xlink:href="#ma68c6e19e0" y="284.513974"/>
      </g>
     </g>
     <g id="text_11">
      <!-- −1000 -->
      <g transform="translate(16.770313 288.313193)scale(0.1 -0.1)">
       <defs>
        <path d="M 678 2272 
L 4684 2272 
L 4684 1741 
L 678 1741 
L 678 2272 
z
" id="DejaVuSans-2212" transform="scale(0.015625)"/>
       </defs>
       <use xlink:href="#DejaVuSans-2212"/>
       <use x="83.789062" xlink:href="#DejaVuSans-31"/>
       <use x="147.412109" xlink:href="#DejaVuSans-30"/>
       <use x="211.035156" xlink:href="#DejaVuSans-30"/>
       <use x="274.658203" xlink:href="#DejaVuSans-30"/>
      </g>
     </g>
    </g>
    <g id="ytick_2">
     <g id="line2d_11">
      <g>
       <use style="stroke:#000000;stroke-width:0.8;" x="57.6" xlink:href="#ma68c6e19e0" y="232.673952"/>
      </g>
     </g>
     <g id="text_12">
      <!-- −800 -->
      <g transform="translate(23.132812 236.473171)scale(0.1 -0.1)">
       <defs>
        <path d="M 2034 2216 
Q 1584 2216 1326 1975 
Q 1069 1734 1069 1313 
Q 1069 891 1326 650 
Q 1584 409 2034 409 
Q 2484 409 2743 651 
Q 3003 894 3003 1313 
Q 3003 1734 2745 1975 
Q 2488 2216 2034 2216 
z
M 1403 2484 
Q 997 2584 770 2862 
Q 544 3141 544 3541 
Q 544 4100 942 4425 
Q 1341 4750 2034 4750 
Q 2731 4750 3128 4425 
Q 3525 4100 3525 3541 
Q 3525 3141 3298 2862 
Q 3072 2584 2669 2484 
Q 3125 2378 3379 2068 
Q 3634 1759 3634 1313 
Q 3634 634 3220 271 
Q 2806 -91 2034 -91 
Q 1263 -91 848 271 
Q 434 634 434 1313 
Q 434 1759 690 2068 
Q 947 2378 1403 2484 
z
M 1172 3481 
Q 1172 3119 1398 2916 
Q 1625 2713 2034 2713 
Q 2441 2713 2670 2916 
Q 2900 3119 2900 3481 
Q 2900 3844 2670 4047 
Q 2441 4250 2034 4250 
Q 1625 4250 1398 4047 
Q 1172 3844 1172 3481 
z
" id="DejaVuSans-38" transform="scale(0.015625)"/>
       </defs>
       <use xlink:href="#DejaVuSans-2212"/>
       <use x="83.789062" xlink:href="#DejaVuSans-38"/>
       <use x="147.412109" xlink:href="#DejaVuSans-30"/>
       <use x="211.035156" xlink:href="#DejaVuSans-30"/>
      </g>
     </g>
    </g>
    <g id="ytick_3">
     <g id="line2d_12">
      <g>
       <use style="stroke:#000000;stroke-width:0.8;" x="57.6" xlink:href="#ma68c6e19e0" y="180.83393"/>
      </g>
     </g>
     <g id="text_13">
      <!-- −600 -->
      <g transform="translate(23.132812 184.633149)scale(0.1 -0.1)">
       <defs>
        <path d="M 2113 2584 
Q 1688 2584 1439 2293 
Q 1191 2003 1191 1497 
Q 1191 994 1439 701 
Q 1688 409 2113 409 
Q 2538 409 2786 701 
Q 3034 994 3034 1497 
Q 3034 2003 2786 2293 
Q 2538 2584 2113 2584 
z
M 3366 4563 
L 3366 3988 
Q 3128 4100 2886 4159 
Q 2644 4219 2406 4219 
Q 1781 4219 1451 3797 
Q 1122 3375 1075 2522 
Q 1259 2794 1537 2939 
Q 1816 3084 2150 3084 
Q 2853 3084 3261 2657 
Q 3669 2231 3669 1497 
Q 3669 778 3244 343 
Q 2819 -91 2113 -91 
Q 1303 -91 875 529 
Q 447 1150 447 2328 
Q 447 3434 972 4092 
Q 1497 4750 2381 4750 
Q 2619 4750 2861 4703 
Q 3103 4656 3366 4563 
z
" id="DejaVuSans-36" transform="scale(0.015625)"/>
       </defs>
       <use xlink:href="#DejaVuSans-2212"/>
       <use x="83.789062" xlink:href="#DejaVuSans-36"/>
       <use x="147.412109" xlink:href="#DejaVuSans-30"/>
       <use x="211.035156" xlink:href="#DejaVuSans-30"/>
      </g>
     </g>
    </g>
    <g id="ytick_4">
     <g id="line2d_13">
      <g>
       <use style="stroke:#000000;stroke-width:0.8;" x="57.6" xlink:href="#ma68c6e19e0" y="128.993908"/>
      </g>
     </g>
     <g id="text_14">
      <!-- −400 -->
      <g transform="translate(23.132812 132.793127)scale(0.1 -0.1)">
       <use xlink:href="#DejaVuSans-2212"/>
       <use x="83.789062" xlink:href="#DejaVuSans-34"/>
       <use x="147.412109" xlink:href="#DejaVuSans-30"/>
       <use x="211.035156" xlink:href="#DejaVuSans-30"/>
      </g>
     </g>
    </g>
    <g id="ytick_5">
     <g id="line2d_14">
      <g>
       <use style="stroke:#000000;stroke-width:0.8;" x="57.6" xlink:href="#ma68c6e19e0" y="77.153886"/>
      </g>
     </g>
     <g id="text_15">
      <!-- −200 -->
      <g transform="translate(23.132812 80.953105)scale(0.1 -0.1)">
       <use xlink:href="#DejaVuSans-2212"/>
       <use x="83.789062" xlink:href="#DejaVuSans-32"/>
       <use x="147.412109" xlink:href="#DejaVuSans-30"/>
       <use x="211.035156" xlink:href="#DejaVuSans-30"/>
      </g>
     </g>
    </g>
    <g id="text_16">
     <!-- Loss -->
     <g transform="translate(9.650781 190.978781)rotate(-90)scale(0.15 -0.15)">
      <defs>
       <path d="M 628 4666 
L 1259 4666 
L 1259 531 
L 3531 531 
L 3531 0 
L 628 0 
L 628 4666 
z
" id="DejaVuSans-4c" transform="scale(0.015625)"/>
       <path d="M 2834 3397 
L 2834 2853 
Q 2591 2978 2328 3040 
Q 2066 3103 1784 3103 
Q 1356 3103 1142 2972 
Q 928 2841 928 2578 
Q 928 2378 1081 2264 
Q 1234 2150 1697 2047 
L 1894 2003 
Q 2506 1872 2764 1633 
Q 3022 1394 3022 966 
Q 3022 478 2636 193 
Q 2250 -91 1575 -91 
Q 1294 -91 989 -36 
Q 684 19 347 128 
L 347 722 
Q 666 556 975 473 
Q 1284 391 1588 391 
Q 1994 391 2212 530 
Q 2431 669 2431 922 
Q 2431 1156 2273 1281 
Q 2116 1406 1581 1522 
L 1381 1569 
Q 847 1681 609 1914 
Q 372 2147 372 2553 
Q 372 3047 722 3315 
Q 1072 3584 1716 3584 
Q 2034 3584 2315 3537 
Q 2597 3491 2834 3397 
z
" id="DejaVuSans-73" transform="scale(0.015625)"/>
      </defs>
      <use xlink:href="#DejaVuSans-4c"/>
      <use x="53.962891" xlink:href="#DejaVuSans-6f"/>
      <use x="115.144531" xlink:href="#DejaVuSans-73"/>
      <use x="167.244141" xlink:href="#DejaVuSans-73"/>
     </g>
    </g>
   </g>
   <g id="line2d_15">
    <path clip-path="url(#p6853406567)" d="M 73.832727 53.568 
L 74.646398 116.024873 
L 75.460068 123.582239 
L 76.273739 124.947871 
L 77.087409 139.163287 
L 77.90108 146.926376 
L 78.714751 144.841167 
L 79.528421 155.846604 
L 80.342092 158.690063 
L 81.155762 164.708189 
L 81.969433 157.98473 
L 82.783103 175.143835 
L 83.596774 171.83513 
L 84.410444 180.167341 
L 85.224115 179.436751 
L 86.037785 186.182302 
L 86.851456 191.086696 
L 87.665126 189.029689 
L 88.478797 195.638572 
L 89.292468 196.820777 
L 90.106138 191.328914 
L 90.919809 197.834457 
L 91.733479 197.625246 
L 92.54715 204.223316 
L 93.36082 203.40344 
L 94.174491 197.653677 
L 94.988161 199.113851 
L 95.801832 204.731042 
L 96.615502 214.913339 
L 97.429173 193.139151 
L 98.242843 200.068906 
L 99.056514 216.136296 
L 99.870185 211.746254 
L 100.683855 209.866261 
L 101.497526 218.89247 
L 102.311196 219.965503 
L 103.124867 217.759508 
L 103.938537 214.516579 
L 105.565878 227.20473 
L 106.379549 208.794954 
L 107.193219 219.141158 
L 108.82056 230.723723 
L 109.634231 223.425163 
L 110.447902 225.999646 
L 111.261572 235.107644 
L 112.075243 224.670579 
L 112.888913 220.424685 
L 113.702584 227.042862 
L 114.516254 230.610552 
L 115.329925 220.277195 
L 116.143595 214.806685 
L 116.957266 245.999739 
L 117.770936 230.846087 
L 118.584607 233.039209 
L 119.398278 231.840231 
L 120.211948 236.803951 
L 121.025619 227.527219 
L 121.839289 223.394349 
L 122.65296 238.677159 
L 123.46663 232.707232 
L 124.280301 244.28115 
L 125.093971 236.33836 
L 125.907642 239.849539 
L 126.721312 246.633158 
L 127.534983 235.817199 
L 128.348653 232.714268 
L 129.162324 234.970784 
L 129.975995 226.983291 
L 130.789665 240.43084 
L 131.603336 241.404407 
L 132.417006 248.26032 
L 133.230677 241.964438 
L 134.858018 249.972679 
L 135.671688 247.067592 
L 136.485359 245.916727 
L 137.299029 237.902624 
L 138.1127 234.914861 
L 138.92637 239.391659 
L 139.740041 233.537974 
L 140.553712 236.319222 
L 141.367382 237.752785 
L 142.181053 242.220303 
L 142.994723 240.582845 
L 143.808394 237.432089 
L 144.622064 245.659901 
L 145.435735 242.929554 
L 146.249405 243.899795 
L 147.063076 253.214548 
L 147.876746 248.863631 
L 148.690417 246.971503 
L 149.504087 251.355014 
L 150.317758 250.367365 
L 151.131429 242.737994 
L 151.945099 241.604988 
L 152.75877 242.050286 
L 153.57244 248.23799 
L 154.386111 238.749381 
L 155.199781 244.658336 
L 156.013452 245.925956 
L 156.827122 242.067947 
L 157.640793 239.117647 
L 158.454463 257.223937 
L 159.268134 247.396715 
L 160.081805 249.889124 
L 161.709146 245.573664 
L 162.522816 239.811231 
L 163.336487 228.389183 
L 164.150157 248.38605 
L 164.963828 251.562602 
L 165.777498 237.369421 
L 166.591169 261.486724 
L 167.404839 253.91377 
L 168.21851 250.275624 
L 169.03218 254.016617 
L 169.845851 254.066045 
L 170.659522 257.98493 
L 171.473192 256.11962 
L 172.286863 258.301145 
L 173.100533 250.908895 
L 173.914204 251.43217 
L 174.727874 246.664966 
L 175.541545 244.540154 
L 176.355215 253.984438 
L 177.168886 256.103406 
L 177.982556 260.524763 
L 178.796227 244.187708 
L 179.609897 254.577838 
L 180.423568 252.888443 
L 181.237239 255.621224 
L 182.050909 255.172602 
L 182.86458 268.096205 
L 183.67825 256.634008 
L 184.491921 254.875269 
L 185.305591 255.209292 
L 186.119262 258.311363 
L 186.932932 245.307189 
L 187.746603 262.23546 
L 188.560273 252.920881 
L 189.373944 255.312181 
L 190.187614 247.21842 
L 191.001285 257.272683 
L 191.814956 265.030793 
L 192.628626 268.493944 
L 193.442297 249.627549 
L 194.255967 246.848171 
L 195.069638 264.717118 
L 195.883308 267.535025 
L 196.696979 245.522291 
L 197.510649 257.005642 
L 198.32432 257.165057 
L 199.13799 240.533818 
L 199.951661 258.908996 
L 200.765332 254.365599 
L 201.579002 252.237292 
L 202.392673 251.858604 
L 203.206343 258.24275 
L 204.020014 258.80605 
L 204.833684 252.208937 
L 205.647355 259.70702 
L 206.461025 256.57715 
L 207.274696 260.425527 
L 208.088366 252.146523 
L 209.715707 264.059775 
L 210.529378 254.850901 
L 211.343049 257.33362 
L 212.156719 256.002198 
L 212.97039 282.43195 
L 213.78406 249.418496 
L 214.597731 261.423391 
L 215.411401 247.882997 
L 216.225072 263.238823 
L 217.038742 267.085196 
L 217.852413 247.961704 
L 218.666083 258.139184 
L 219.479754 250.365467 
L 220.293424 249.494745 
L 221.107095 256.739423 
L 221.920766 254.617189 
L 222.734436 249.439535 
L 223.548107 263.793036 
L 224.361777 259.485271 
L 225.175448 257.99994 
L 225.989118 254.5907 
L 226.802789 255.660305 
L 227.616459 259.579744 
L 228.43013 257.759625 
L 229.2438 263.195404 
L 230.057471 262.617879 
L 230.871141 255.19884 
L 231.684812 266.173847 
L 232.498483 261.265637 
L 233.312153 255.149194 
L 234.125824 264.21999 
L 234.939494 266.866866 
L 235.753165 266.654804 
L 236.566835 261.930987 
L 237.380506 252.208858 
L 238.194176 247.434276 
L 239.007847 253.391509 
L 239.821517 258.056743 
L 240.635188 260.974306 
L 241.448859 262.495767 
L 242.262529 263.02632 
L 243.0762 255.492612 
L 243.88987 268.802567 
L 244.703541 268.075629 
L 245.517211 258.474103 
L 246.330882 263.562428 
L 247.144552 249.275201 
L 247.958223 269.93965 
L 248.771893 263.832131 
L 249.585564 255.231273 
L 250.399234 272.641671 
L 251.212905 259.112724 
L 252.840246 261.643418 
L 253.653917 260.221442 
L 254.467587 250.289135 
L 255.281258 256.772746 
L 256.094928 258.181989 
L 256.908599 267.299263 
L 257.722269 272.570678 
L 258.53594 265.132458 
L 259.34961 267.538997 
L 260.163281 267.796349 
L 260.976951 267.919111 
L 261.790622 265.600779 
L 262.604293 265.685707 
L 263.417963 270.863129 
L 264.231634 257.444146 
L 265.045304 264.892864 
L 265.858975 265.136789 
L 266.672645 265.690512 
L 267.486316 232.654806 
L 268.299986 260.357763 
L 269.113657 263.714293 
L 269.927327 266.171054 
L 270.740998 266.948447 
L 271.554668 275.022044 
L 272.368339 266.67695 
L 273.18201 262.893509 
L 273.99568 268.095514 
L 274.809351 259.986674 
L 275.623021 267.992924 
L 276.436692 258.406674 
L 277.250362 266.651414 
L 278.064033 264.882541 
L 278.877703 270.860532 
L 279.691374 271.028745 
L 280.505044 266.542761 
L 281.318715 266.443667 
L 282.132386 262.655479 
L 282.946056 257.497378 
L 283.759727 273.302787 
L 284.573397 258.665539 
L 285.387068 269.447284 
L 286.200738 263.976455 
L 287.014409 248.40299 
L 287.828079 264.394552 
L 288.64175 272.565733 
L 289.45542 267.897802 
L 290.269091 252.955933 
L 291.082761 264.914511 
L 291.896432 266.854383 
L 292.710103 275.03249 
L 293.523773 273.797329 
L 294.337444 267.58199 
L 295.151114 257.934754 
L 295.964785 269.805302 
L 296.778455 264.247985 
L 297.592126 275.616482 
L 298.405796 260.424575 
L 299.219467 276.092051 
L 300.033137 270.633362 
L 300.846808 258.019017 
L 301.660478 257.728568 
L 303.28782 275.06483 
L 304.10149 257.481456 
L 304.915161 253.13338 
L 305.728831 263.932968 
L 306.542502 269.382644 
L 307.356172 271.566008 
L 308.169843 269.8556 
L 308.983513 257.295843 
L 309.797184 262.124247 
L 310.610854 279.657874 
L 311.424525 263.843373 
L 313.051866 273.708202 
L 313.865537 263.9207 
L 314.679207 270.891507 
L 315.492878 270.226602 
L 316.306548 268.282664 
L 317.120219 271.594977 
L 317.933889 271.127731 
L 318.74756 260.676904 
L 319.56123 261.277141 
L 320.374901 269.345937 
L 321.188571 278.543058 
L 322.002242 276.663442 
L 322.815913 276.136263 
L 323.629583 273.383144 
L 324.443254 271.614776 
L 325.256924 263.484345 
L 326.070595 276.204099 
L 326.884265 264.839034 
L 327.697936 270.890833 
L 329.325277 264.953717 
L 330.138947 263.366561 
L 330.952618 274.928514 
L 331.766288 273.30217 
L 332.579959 266.339887 
L 333.39363 279.775768 
L 334.2073 280.157041 
L 335.020971 267.32553 
L 335.834641 261.899452 
L 336.648312 269.958093 
L 337.461982 271.862647 
L 338.275653 271.15109 
L 339.089323 272.907489 
L 339.902994 273.619378 
L 340.716664 275.523451 
L 341.530335 265.068156 
L 342.344005 264.232681 
L 343.157676 276.513049 
L 343.971347 264.45675 
L 344.785017 271.115297 
L 345.598688 273.120093 
L 346.412358 282.955624 
L 347.226029 271.699067 
L 348.039699 282.719271 
L 348.85337 264.904674 
L 349.66704 281.95228 
L 350.480711 287.792875 
L 351.294381 278.864582 
L 352.108052 281.257568 
L 352.921722 277.755263 
L 353.735393 273.178095 
L 354.549064 282.109281 
L 355.362734 288.65392 
L 356.176405 279.915487 
L 356.990075 278.094253 
L 357.803746 270.801905 
L 358.617416 278.736505 
L 359.431087 282.384505 
L 360.244757 274.522832 
L 361.058428 282.484835 
L 361.872098 287.458647 
L 362.685769 282.358118 
L 363.49944 287.14273 
L 364.31311 266.806025 
L 365.940451 285.874056 
L 366.754122 271.923366 
L 367.567792 263.760247 
L 368.381463 258.200735 
L 369.195133 277.939644 
L 370.008804 263.302762 
L 370.822474 283.067685 
L 371.636145 282.084717 
L 372.449815 280.51471 
L 373.263486 275.314913 
L 374.077157 261.514383 
L 374.890827 281.942142 
L 375.704498 255.910752 
L 376.518168 287.145639 
L 377.331839 293.343983 
L 378.145509 283.893413 
L 378.95918 279.239022 
L 379.77285 283.695449 
L 381.400191 278.688679 
L 382.213862 286.329771 
L 383.027532 284.540583 
L 383.841203 288.394823 
L 384.654874 280.592793 
L 385.468544 266.020675 
L 386.282215 282.950309 
L 387.095885 271.155422 
L 387.909556 274.363482 
L 388.723226 275.199884 
L 389.536897 288.81774 
L 390.350567 283.633964 
L 391.164238 283.562571 
L 391.977908 284.237103 
L 392.791579 281.766211 
L 393.605249 290.478344 
L 394.41892 277.821439 
L 395.232591 273.180886 
L 396.046261 277.724492 
L 396.859932 279.988392 
L 397.673602 284.760748 
L 398.487273 295.488 
L 398.487273 295.488 
" style="fill:none;stroke:#1f77b4;stroke-linecap:square;stroke-width:1.5;"/>
   </g>
   <g id="line2d_16">
    <path clip-path="url(#p6853406567)" d="M 73.832727 103.266296 
L 74.646398 122.740347 
L 75.460068 119.160812 
L 76.273739 136.503834 
L 77.087409 150.946728 
L 77.90108 157.062802 
L 78.714751 149.30381 
L 79.528421 162.538949 
L 80.342092 160.976614 
L 81.155762 172.785298 
L 81.969433 159.786426 
L 82.783103 175.471062 
L 83.596774 172.293055 
L 84.410444 168.649394 
L 85.224115 182.357565 
L 86.037785 179.885054 
L 86.851456 190.386271 
L 87.665126 190.56019 
L 88.478797 180.389405 
L 89.292468 186.850225 
L 90.106138 169.738992 
L 90.919809 197.434601 
L 91.733479 205.054109 
L 92.54715 204.84522 
L 93.36082 192.709116 
L 94.174491 190.502535 
L 94.988161 212.052062 
L 95.801832 211.637399 
L 96.615502 201.968589 
L 97.429173 210.235316 
L 98.242843 213.139997 
L 99.870185 215.488691 
L 100.683855 210.213607 
L 101.497526 217.826941 
L 102.311196 215.130107 
L 103.124867 216.264037 
L 103.938537 223.617511 
L 104.752208 217.657096 
L 105.565878 220.565713 
L 106.379549 217.00479 
L 107.193219 223.119253 
L 108.00689 219.007946 
L 108.82056 228.103314 
L 109.634231 222.463555 
L 110.447902 224.179476 
L 111.261572 223.958936 
L 112.075243 224.182816 
L 112.888913 232.439937 
L 113.702584 221.249191 
L 114.516254 227.343291 
L 115.329925 235.097221 
L 116.143595 186.63208 
L 116.957266 233.237349 
L 117.770936 224.615787 
L 118.584607 236.210982 
L 119.398278 225.340207 
L 120.211948 230.500486 
L 121.025619 233.417302 
L 121.839289 232.419298 
L 122.65296 227.041826 
L 123.46663 229.258993 
L 124.280301 228.544664 
L 125.093971 230.546926 
L 125.907642 242.728025 
L 126.721312 237.593727 
L 127.534983 231.578525 
L 128.348653 233.452512 
L 129.162324 241.384462 
L 129.975995 223.289287 
L 130.789665 241.085207 
L 131.603336 246.442044 
L 132.417006 239.802973 
L 133.230677 241.742411 
L 134.044347 242.692859 
L 134.858018 233.049993 
L 135.671688 245.162829 
L 136.485359 232.405177 
L 137.299029 250.22638 
L 138.1127 236.056111 
L 138.92637 241.595868 
L 139.740041 239.284291 
L 140.553712 238.69254 
L 141.367382 238.784422 
L 142.181053 243.177726 
L 143.808394 248.921713 
L 144.622064 241.824204 
L 145.435735 239.174653 
L 146.249405 244.870168 
L 147.063076 248.876387 
L 147.876746 235.529379 
L 148.690417 249.339546 
L 149.504087 250.085273 
L 150.317758 242.683374 
L 151.131429 246.267916 
L 151.945099 242.372004 
L 152.75877 241.861424 
L 154.386111 250.855097 
L 155.199781 242.853575 
L 156.013452 246.436604 
L 156.827122 254.732973 
L 157.640793 242.991552 
L 158.454463 247.785819 
L 159.268134 247.897387 
L 160.081805 246.042251 
L 160.895475 250.672524 
L 161.709146 252.309739 
L 162.522816 250.029974 
L 163.336487 248.486346 
L 164.150157 242.273792 
L 164.963828 243.555339 
L 165.777498 240.574638 
L 166.591169 248.352108 
L 167.404839 250.982634 
L 168.21851 255.255923 
L 169.03218 248.946466 
L 169.845851 246.743454 
L 170.659522 248.22746 
L 171.473192 256.800694 
L 172.286863 245.972398 
L 173.100533 247.691485 
L 173.914204 249.715015 
L 174.727874 215.936904 
L 175.541545 244.414114 
L 176.355215 260.790647 
L 177.168886 246.314915 
L 177.982556 252.596023 
L 178.796227 247.543359 
L 179.609897 252.710054 
L 180.423568 249.85738 
L 181.237239 248.310438 
L 182.050909 248.865435 
L 182.86458 246.27995 
L 183.67825 257.467628 
L 184.491921 248.047927 
L 185.305591 252.624128 
L 186.119262 252.615078 
L 186.932932 256.819826 
L 187.746603 252.077653 
L 188.560273 260.50029 
L 189.373944 258.12567 
L 190.187614 259.104675 
L 191.001285 252.485479 
L 191.814956 253.155118 
L 192.628626 245.88645 
L 193.442297 249.490659 
L 194.255967 251.830219 
L 195.883308 263.381393 
L 196.696979 244.577013 
L 197.510649 255.473996 
L 198.32432 239.423092 
L 199.13799 248.608083 
L 199.951661 255.728346 
L 200.765332 246.186999 
L 201.579002 247.678285 
L 202.392673 247.032178 
L 203.206343 252.257342 
L 204.020014 254.092213 
L 204.833684 257.647297 
L 205.647355 253.421752 
L 206.461025 257.256669 
L 207.274696 248.451312 
L 208.088366 253.08948 
L 208.902037 251.488578 
L 209.715707 242.889696 
L 210.529378 260.697557 
L 211.343049 245.220193 
L 212.156719 247.109685 
L 212.97039 252.250879 
L 213.78406 254.341262 
L 214.597731 261.105875 
L 215.411401 256.381337 
L 216.225072 261.016253 
L 217.852413 257.626231 
L 218.666083 246.308165 
L 219.479754 256.269821 
L 220.293424 253.500413 
L 221.107095 258.63509 
L 221.920766 261.929676 
L 222.734436 253.704134 
L 223.548107 263.746043 
L 224.361777 263.351132 
L 225.175448 255.835398 
L 225.989118 258.05486 
L 226.802789 250.757572 
L 227.616459 255.107349 
L 228.43013 260.11197 
L 229.2438 248.922125 
L 230.057471 254.798879 
L 230.871141 259.597234 
L 231.684812 260.223394 
L 232.498483 263.566587 
L 233.312153 268.044431 
L 234.125824 260.028329 
L 234.939494 269.953 
L 235.753165 251.534538 
L 236.566835 259.863285 
L 237.380506 255.151338 
L 238.194176 258.014245 
L 239.007847 259.444608 
L 239.821517 266.012776 
L 240.635188 257.393418 
L 241.448859 256.091233 
L 242.262529 259.745855 
L 243.0762 252.058237 
L 243.88987 263.310324 
L 244.703541 267.304434 
L 245.517211 260.221246 
L 246.330882 255.705316 
L 247.144552 255.94378 
L 247.958223 260.547386 
L 248.771893 260.886734 
L 249.585564 260.271854 
L 250.399234 264.304244 
L 251.212905 263.991983 
L 252.026576 265.201868 
L 252.840246 263.786384 
L 253.653917 260.568779 
L 254.467587 260.146116 
L 255.281258 273.514667 
L 256.094928 262.85988 
L 256.908599 255.094283 
L 257.722269 265.700813 
L 258.53594 263.384224 
L 259.34961 253.141047 
L 260.163281 258.869364 
L 260.976951 254.159995 
L 261.790622 259.424295 
L 262.604293 259.999865 
L 263.417963 256.533059 
L 264.231634 260.577559 
L 265.045304 266.420798 
L 265.858975 268.358866 
L 266.672645 264.354741 
L 267.486316 240.239418 
L 268.299986 257.782671 
L 269.113657 259.259629 
L 269.927327 255.515746 
L 270.740998 264.257393 
L 271.554668 259.449499 
L 272.368339 263.249727 
L 273.18201 268.11629 
L 273.99568 245.615252 
L 274.809351 259.845216 
L 275.623021 255.816056 
L 276.436692 257.346866 
L 277.250362 260.903717 
L 278.064033 257.417463 
L 278.877703 261.130124 
L 279.691374 266.233102 
L 280.505044 262.475593 
L 281.318715 257.940469 
L 282.132386 269.951144 
L 282.946056 266.465269 
L 283.759727 264.087357 
L 284.573397 260.022948 
L 285.387068 263.883193 
L 286.200738 252.878764 
L 287.014409 256.662517 
L 287.828079 264.559443 
L 288.64175 249.525468 
L 289.45542 272.568484 
L 290.269091 263.264251 
L 291.082761 265.998907 
L 291.896432 274.228236 
L 292.710103 255.911407 
L 293.523773 258.857835 
L 294.337444 264.66915 
L 295.151114 257.504224 
L 295.964785 264.129891 
L 296.778455 269.144485 
L 297.592126 270.717158 
L 298.405796 263.325814 
L 299.219467 259.933612 
L 300.033137 270.574464 
L 300.846808 263.773441 
L 301.660478 259.098933 
L 302.474149 270.058573 
L 303.28782 268.6295 
L 304.10149 273.869104 
L 304.915161 263.639676 
L 305.728831 258.763 
L 306.542502 267.890781 
L 307.356172 258.365482 
L 308.169843 253.27113 
L 308.983513 262.066887 
L 309.797184 272.086344 
L 310.610854 261.201597 
L 311.424525 262.937637 
L 312.238195 265.725883 
L 313.051866 264.376746 
L 313.865537 273.74078 
L 314.679207 268.023924 
L 315.492878 264.110147 
L 316.306548 265.505144 
L 317.120219 276.679293 
L 317.933889 250.852984 
L 318.74756 263.325185 
L 319.56123 268.895446 
L 320.374901 277.223801 
L 321.188571 273.971147 
L 322.002242 266.459258 
L 322.815913 267.793273 
L 323.629583 263.575191 
L 324.443254 268.552662 
L 325.256924 265.025182 
L 326.070595 271.339088 
L 326.884265 275.046961 
L 327.697936 269.844291 
L 328.511606 274.045288 
L 329.325277 273.803315 
L 330.138947 270.747147 
L 330.952618 258.774434 
L 331.766288 270.144958 
L 332.579959 266.257955 
L 333.39363 270.647381 
L 334.2073 270.74062 
L 335.020971 270.180713 
L 335.834641 263.838506 
L 336.648312 270.424951 
L 337.461982 267.535269 
L 338.275653 271.640992 
L 339.089323 265.078039 
L 339.902994 273.618181 
L 340.716664 277.916409 
L 342.344005 268.496299 
L 343.157676 271.212834 
L 343.971347 274.43652 
L 344.785017 279.178156 
L 345.598688 267.603455 
L 346.412358 273.824105 
L 347.226029 264.589238 
L 348.039699 268.456598 
L 348.85337 273.4271 
L 349.66704 276.819211 
L 350.480711 278.532537 
L 351.294381 264.852236 
L 352.108052 276.822323 
L 352.921722 278.045621 
L 353.735393 279.877858 
L 354.549064 276.762203 
L 355.362734 270.523545 
L 356.176405 280.862289 
L 356.990075 263.008623 
L 357.803746 273.83826 
L 358.617416 264.258183 
L 359.431087 276.019004 
L 360.244757 275.067942 
L 361.058428 278.709981 
L 361.872098 276.483005 
L 362.685769 273.338492 
L 363.49944 281.418595 
L 364.31311 279.651409 
L 365.126781 266.605623 
L 365.940451 282.121032 
L 366.754122 269.499727 
L 367.567792 270.869796 
L 368.381463 267.941275 
L 369.195133 278.173579 
L 370.008804 273.02727 
L 370.822474 273.441698 
L 371.636145 276.457757 
L 372.449815 282.301597 
L 374.077157 270.636587 
L 374.890827 270.294097 
L 375.704498 276.577371 
L 376.518168 280.498681 
L 377.331839 281.478233 
L 378.145509 286.990699 
L 378.95918 272.311614 
L 379.77285 271.725736 
L 380.586521 265.560558 
L 381.400191 279.884794 
L 382.213862 277.203052 
L 383.027532 273.702471 
L 383.841203 270.787585 
L 384.654874 274.085272 
L 385.468544 273.695731 
L 386.282215 276.388842 
L 387.095885 266.687039 
L 387.909556 278.386949 
L 388.723226 268.039113 
L 389.536897 269.728995 
L 390.350567 278.531099 
L 391.164238 275.805254 
L 391.977908 279.820653 
L 392.791579 268.603295 
L 393.605249 272.248095 
L 394.41892 278.03472 
L 395.232591 280.757874 
L 396.046261 272.479109 
L 396.859932 281.427287 
L 397.673602 275.631648 
L 398.487273 278.848606 
L 398.487273 278.848606 
" style="fill:none;stroke:#ff7f0e;stroke-linecap:square;stroke-width:1.5;"/>
   </g>
   <g id="patch_3">
    <path d="M 57.6 307.584 
L 57.6 41.472 
" style="fill:none;stroke:#000000;stroke-linecap:square;stroke-linejoin:miter;stroke-width:0.8;"/>
   </g>
   <g id="patch_4">
    <path d="M 414.72 307.584 
L 414.72 41.472 
" style="fill:none;stroke:#000000;stroke-linecap:square;stroke-linejoin:miter;stroke-width:0.8;"/>
   </g>
   <g id="patch_5">
    <path d="M 57.6 307.584 
L 414.72 307.584 
" style="fill:none;stroke:#000000;stroke-linecap:square;stroke-linejoin:miter;stroke-width:0.8;"/>
   </g>
   <g id="patch_6">
    <path d="M 57.6 41.472 
L 414.72 41.472 
" style="fill:none;stroke:#000000;stroke-linecap:square;stroke-linejoin:miter;stroke-width:0.8;"/>
   </g>
   <g id="legend_1">
    <g id="patch_7">
     <path d="M 303.845 78.82825 
L 407.72 78.82825 
Q 409.72 78.82825 409.72 76.82825 
L 409.72 48.472 
Q 409.72 46.472 407.72 46.472 
L 303.845 46.472 
Q 301.845 46.472 301.845 48.472 
L 301.845 76.82825 
Q 301.845 78.82825 303.845 78.82825 
z
" style="fill:#ffffff;opacity:0.8;stroke:#cccccc;stroke-linejoin:miter;"/>
    </g>
    <g id="line2d_17">
     <path d="M 305.845 54.570437 
L 325.845 54.570437 
" style="fill:none;stroke:#1f77b4;stroke-linecap:square;stroke-width:1.5;"/>
    </g>
    <g id="line2d_18"/>
    <g id="text_17">
     <!-- Train loss -->
     <g transform="translate(333.845 58.070437)scale(0.1 -0.1)">
      <defs>
       <path d="M -19 4666 
L 3928 4666 
L 3928 4134 
L 2272 4134 
L 2272 0 
L 1638 0 
L 1638 4134 
L -19 4134 
L -19 4666 
z
" id="DejaVuSans-54" transform="scale(0.015625)"/>
       <path d="M 2631 2963 
Q 2534 3019 2420 3045 
Q 2306 3072 2169 3072 
Q 1681 3072 1420 2755 
Q 1159 2438 1159 1844 
L 1159 0 
L 581 0 
L 581 3500 
L 1159 3500 
L 1159 2956 
Q 1341 3275 1631 3429 
Q 1922 3584 2338 3584 
Q 2397 3584 2469 3576 
Q 2541 3569 2628 3553 
L 2631 2963 
z
" id="DejaVuSans-72" transform="scale(0.015625)"/>
       <path d="M 2194 1759 
Q 1497 1759 1228 1600 
Q 959 1441 959 1056 
Q 959 750 1161 570 
Q 1363 391 1709 391 
Q 2188 391 2477 730 
Q 2766 1069 2766 1631 
L 2766 1759 
L 2194 1759 
z
M 3341 1997 
L 3341 0 
L 2766 0 
L 2766 531 
Q 2569 213 2275 61 
Q 1981 -91 1556 -91 
Q 1019 -91 701 211 
Q 384 513 384 1019 
Q 384 1609 779 1909 
Q 1175 2209 1959 2209 
L 2766 2209 
L 2766 2266 
Q 2766 2663 2505 2880 
Q 2244 3097 1772 3097 
Q 1472 3097 1187 3025 
Q 903 2953 641 2809 
L 641 3341 
Q 956 3463 1253 3523 
Q 1550 3584 1831 3584 
Q 2591 3584 2966 3190 
Q 3341 2797 3341 1997 
z
" id="DejaVuSans-61" transform="scale(0.015625)"/>
       <path d="M 603 3500 
L 1178 3500 
L 1178 0 
L 603 0 
L 603 3500 
z
M 603 4863 
L 1178 4863 
L 1178 4134 
L 603 4134 
L 603 4863 
z
" id="DejaVuSans-69" transform="scale(0.015625)"/>
       <path d="M 3513 2113 
L 3513 0 
L 2938 0 
L 2938 2094 
Q 2938 2591 2744 2837 
Q 2550 3084 2163 3084 
Q 1697 3084 1428 2787 
Q 1159 2491 1159 1978 
L 1159 0 
L 581 0 
L 581 3500 
L 1159 3500 
L 1159 2956 
Q 1366 3272 1645 3428 
Q 1925 3584 2291 3584 
Q 2894 3584 3203 3211 
Q 3513 2838 3513 2113 
z
" id="DejaVuSans-6e" transform="scale(0.015625)"/>
       <path id="DejaVuSans-20" transform="scale(0.015625)"/>
       <path d="M 603 4863 
L 1178 4863 
L 1178 0 
L 603 0 
L 603 4863 
z
" id="DejaVuSans-6c" transform="scale(0.015625)"/>
      </defs>
      <use xlink:href="#DejaVuSans-54"/>
      <use x="46.333984" xlink:href="#DejaVuSans-72"/>
      <use x="87.447266" xlink:href="#DejaVuSans-61"/>
      <use x="148.726562" xlink:href="#DejaVuSans-69"/>
      <use x="176.509766" xlink:href="#DejaVuSans-6e"/>
      <use x="239.888672" xlink:href="#DejaVuSans-20"/>
      <use x="271.675781" xlink:href="#DejaVuSans-6c"/>
      <use x="299.458984" xlink:href="#DejaVuSans-6f"/>
      <use x="360.640625" xlink:href="#DejaVuSans-73"/>
      <use x="412.740234" xlink:href="#DejaVuSans-73"/>
     </g>
    </g>
    <g id="line2d_19">
     <path d="M 305.845 69.248562 
L 325.845 69.248562 
" style="fill:none;stroke:#ff7f0e;stroke-linecap:square;stroke-width:1.5;"/>
    </g>
    <g id="line2d_20"/>
    <g id="text_18">
     <!-- Validation loss -->
     <g transform="translate(333.845 72.748562)scale(0.1 -0.1)">
      <defs>
       <path d="M 1831 0 
L 50 4666 
L 709 4666 
L 2188 738 
L 3669 4666 
L 4325 4666 
L 2547 0 
L 1831 0 
z
" id="DejaVuSans-56" transform="scale(0.015625)"/>
       <path d="M 2906 2969 
L 2906 4863 
L 3481 4863 
L 3481 0 
L 2906 0 
L 2906 525 
Q 2725 213 2448 61 
Q 2172 -91 1784 -91 
Q 1150 -91 751 415 
Q 353 922 353 1747 
Q 353 2572 751 3078 
Q 1150 3584 1784 3584 
Q 2172 3584 2448 3432 
Q 2725 3281 2906 2969 
z
M 947 1747 
Q 947 1113 1208 752 
Q 1469 391 1925 391 
Q 2381 391 2643 752 
Q 2906 1113 2906 1747 
Q 2906 2381 2643 2742 
Q 2381 3103 1925 3103 
Q 1469 3103 1208 2742 
Q 947 2381 947 1747 
z
" id="DejaVuSans-64" transform="scale(0.015625)"/>
       <path d="M 1172 4494 
L 1172 3500 
L 2356 3500 
L 2356 3053 
L 1172 3053 
L 1172 1153 
Q 1172 725 1289 603 
Q 1406 481 1766 481 
L 2356 481 
L 2356 0 
L 1766 0 
Q 1100 0 847 248 
Q 594 497 594 1153 
L 594 3053 
L 172 3053 
L 172 3500 
L 594 3500 
L 594 4494 
L 1172 4494 
z
" id="DejaVuSans-74" transform="scale(0.015625)"/>
      </defs>
      <use xlink:href="#DejaVuSans-56"/>
      <use x="60.658203" xlink:href="#DejaVuSans-61"/>
      <use x="121.9375" xlink:href="#DejaVuSans-6c"/>
      <use x="149.720703" xlink:href="#DejaVuSans-69"/>
      <use x="177.503906" xlink:href="#DejaVuSans-64"/>
      <use x="240.980469" xlink:href="#DejaVuSans-61"/>
      <use x="302.259766" xlink:href="#DejaVuSans-74"/>
      <use x="341.46875" xlink:href="#DejaVuSans-69"/>
      <use x="369.251953" xlink:href="#DejaVuSans-6f"/>
      <use x="430.433594" xlink:href="#DejaVuSans-6e"/>
      <use x="493.8125" xlink:href="#DejaVuSans-20"/>
      <use x="525.599609" xlink:href="#DejaVuSans-6c"/>
      <use x="553.382812" xlink:href="#DejaVuSans-6f"/>
      <use x="614.564453" xlink:href="#DejaVuSans-73"/>
      <use x="666.664062" xlink:href="#DejaVuSans-73"/>
     </g>
    </g>
   </g>
  </g>
 </g>
 <defs>
  <clipPath id="p6853406567">
   <rect height="266.112" width="357.12" x="57.6" y="41.472"/>
  </clipPath>
 </defs>
</svg>
