<?xml version="1.0" encoding="utf-8" standalone="no"?>
<!DOCTYPE svg PUBLIC "-//W3C//DTD SVG 1.1//EN"
  "http://www.w3.org/Graphics/SVG/1.1/DTD/svg11.dtd">
<svg height="345.6pt" version="1.1" viewBox="0 0 460.8 345.6" width="460.8pt" xmlns="http://www.w3.org/2000/svg" xmlns:xlink="http://www.w3.org/1999/xlink">
 <metadata>
  <rdf:RDF xmlns:cc="http://creativecommons.org/ns#" xmlns:dc="http://purl.org/dc/elements/1.1/" xmlns:rdf="http://www.w3.org/1999/02/22-rdf-syntax-ns#">
   <cc:Work>
    <dc:type rdf:resource="http://purl.org/dc/dcmitype/StillImage"/>
    <dc:date>2021-07-31T13:03:11.391196</dc:date>
    <dc:format>image/svg+xml</dc:format>
    <dc:creator>
     <cc:Agent>
      <dc:title>Matplotlib v3.4.1, https://matplotlib.org/</dc:title>
     </cc:Agent>
    </dc:creator>
   </cc:Work>
  </rdf:RDF>
 </metadata>
 <defs>
  <style type="text/css">*{stroke-linecap:butt;stroke-linejoin:round;}</style>
 </defs>
 <g id="figure_1">
  <g id="patch_1">
   <path d="M 0 345.6 
L 460.8 345.6 
L 460.8 0 
L 0 0 
z
" style="fill:#ffffff;"/>
  </g>
  <g id="axes_1">
   <g id="patch_2">
    <path d="M 57.6 307.584 
L 414.72 307.584 
L 414.72 41.472 
L 57.6 41.472 
z
" style="fill:#ffffff;"/>
   </g>
   <g id="matplotlib.axis_1">
    <g id="xtick_1">
     <g id="line2d_1">
      <defs>
       <path d="M 0 0 
L 0 3.5 
" id="m18c530f546" style="stroke:#000000;stroke-width:0.8;"/>
      </defs>
      <g>
       <use style="stroke:#000000;stroke-width:0.8;" x="73.629691" xlink:href="#m18c530f546" y="307.584"/>
      </g>
     </g>
     <g id="text_1">
      <!-- 0 -->
      <g transform="translate(70.448441 322.182437)scale(0.1 -0.1)">
       <defs>
        <path d="M 2034 4250 
Q 1547 4250 1301 3770 
Q 1056 3291 1056 2328 
Q 1056 1369 1301 889 
Q 1547 409 2034 409 
Q 2525 409 2770 889 
Q 3016 1369 3016 2328 
Q 3016 3291 2770 3770 
Q 2525 4250 2034 4250 
z
M 2034 4750 
Q 2819 4750 3233 4129 
Q 3647 3509 3647 2328 
Q 3647 1150 3233 529 
Q 2819 -91 2034 -91 
Q 1250 -91 836 529 
Q 422 1150 422 2328 
Q 422 3509 836 4129 
Q 1250 4750 2034 4750 
z
" id="DejaVuSans-30" transform="scale(0.015625)"/>
       </defs>
       <use xlink:href="#DejaVuSans-30"/>
      </g>
     </g>
    </g>
    <g id="xtick_2">
     <g id="line2d_2">
      <g>
       <use style="stroke:#000000;stroke-width:0.8;" x="114.236889" xlink:href="#m18c530f546" y="307.584"/>
      </g>
     </g>
     <g id="text_2">
      <!-- 200 -->
      <g transform="translate(104.693139 322.182437)scale(0.1 -0.1)">
       <defs>
        <path d="M 1228 531 
L 3431 531 
L 3431 0 
L 469 0 
L 469 531 
Q 828 903 1448 1529 
Q 2069 2156 2228 2338 
Q 2531 2678 2651 2914 
Q 2772 3150 2772 3378 
Q 2772 3750 2511 3984 
Q 2250 4219 1831 4219 
Q 1534 4219 1204 4116 
Q 875 4013 500 3803 
L 500 4441 
Q 881 4594 1212 4672 
Q 1544 4750 1819 4750 
Q 2544 4750 2975 4387 
Q 3406 4025 3406 3419 
Q 3406 3131 3298 2873 
Q 3191 2616 2906 2266 
Q 2828 2175 2409 1742 
Q 1991 1309 1228 531 
z
" id="DejaVuSans-32" transform="scale(0.015625)"/>
       </defs>
       <use xlink:href="#DejaVuSans-32"/>
       <use x="63.623047" xlink:href="#DejaVuSans-30"/>
       <use x="127.246094" xlink:href="#DejaVuSans-30"/>
      </g>
     </g>
    </g>
    <g id="xtick_3">
     <g id="line2d_3">
      <g>
       <use style="stroke:#000000;stroke-width:0.8;" x="154.844087" xlink:href="#m18c530f546" y="307.584"/>
      </g>
     </g>
     <g id="text_3">
      <!-- 400 -->
      <g transform="translate(145.300337 322.182437)scale(0.1 -0.1)">
       <defs>
        <path d="M 2419 4116 
L 825 1625 
L 2419 1625 
L 2419 4116 
z
M 2253 4666 
L 3047 4666 
L 3047 1625 
L 3713 1625 
L 3713 1100 
L 3047 1100 
L 3047 0 
L 2419 0 
L 2419 1100 
L 313 1100 
L 313 1709 
L 2253 4666 
z
" id="DejaVuSans-34" transform="scale(0.015625)"/>
       </defs>
       <use xlink:href="#DejaVuSans-34"/>
       <use x="63.623047" xlink:href="#DejaVuSans-30"/>
       <use x="127.246094" xlink:href="#DejaVuSans-30"/>
      </g>
     </g>
    </g>
    <g id="xtick_4">
     <g id="line2d_4">
      <g>
       <use style="stroke:#000000;stroke-width:0.8;" x="195.451284" xlink:href="#m18c530f546" y="307.584"/>
      </g>
     </g>
     <g id="text_4">
      <!-- 600 -->
      <g transform="translate(185.907534 322.182437)scale(0.1 -0.1)">
       <defs>
        <path d="M 2113 2584 
Q 1688 2584 1439 2293 
Q 1191 2003 1191 1497 
Q 1191 994 1439 701 
Q 1688 409 2113 409 
Q 2538 409 2786 701 
Q 3034 994 3034 1497 
Q 3034 2003 2786 2293 
Q 2538 2584 2113 2584 
z
M 3366 4563 
L 3366 3988 
Q 3128 4100 2886 4159 
Q 2644 4219 2406 4219 
Q 1781 4219 1451 3797 
Q 1122 3375 1075 2522 
Q 1259 2794 1537 2939 
Q 1816 3084 2150 3084 
Q 2853 3084 3261 2657 
Q 3669 2231 3669 1497 
Q 3669 778 3244 343 
Q 2819 -91 2113 -91 
Q 1303 -91 875 529 
Q 447 1150 447 2328 
Q 447 3434 972 4092 
Q 1497 4750 2381 4750 
Q 2619 4750 2861 4703 
Q 3103 4656 3366 4563 
z
" id="DejaVuSans-36" transform="scale(0.015625)"/>
       </defs>
       <use xlink:href="#DejaVuSans-36"/>
       <use x="63.623047" xlink:href="#DejaVuSans-30"/>
       <use x="127.246094" xlink:href="#DejaVuSans-30"/>
      </g>
     </g>
    </g>
    <g id="xtick_5">
     <g id="line2d_5">
      <g>
       <use style="stroke:#000000;stroke-width:0.8;" x="236.058482" xlink:href="#m18c530f546" y="307.584"/>
      </g>
     </g>
     <g id="text_5">
      <!-- 800 -->
      <g transform="translate(226.514732 322.182437)scale(0.1 -0.1)">
       <defs>
        <path d="M 2034 2216 
Q 1584 2216 1326 1975 
Q 1069 1734 1069 1313 
Q 1069 891 1326 650 
Q 1584 409 2034 409 
Q 2484 409 2743 651 
Q 3003 894 3003 1313 
Q 3003 1734 2745 1975 
Q 2488 2216 2034 2216 
z
M 1403 2484 
Q 997 2584 770 2862 
Q 544 3141 544 3541 
Q 544 4100 942 4425 
Q 1341 4750 2034 4750 
Q 2731 4750 3128 4425 
Q 3525 4100 3525 3541 
Q 3525 3141 3298 2862 
Q 3072 2584 2669 2484 
Q 3125 2378 3379 2068 
Q 3634 1759 3634 1313 
Q 3634 634 3220 271 
Q 2806 -91 2034 -91 
Q 1263 -91 848 271 
Q 434 634 434 1313 
Q 434 1759 690 2068 
Q 947 2378 1403 2484 
z
M 1172 3481 
Q 1172 3119 1398 2916 
Q 1625 2713 2034 2713 
Q 2441 2713 2670 2916 
Q 2900 3119 2900 3481 
Q 2900 3844 2670 4047 
Q 2441 4250 2034 4250 
Q 1625 4250 1398 4047 
Q 1172 3844 1172 3481 
z
" id="DejaVuSans-38" transform="scale(0.015625)"/>
       </defs>
       <use xlink:href="#DejaVuSans-38"/>
       <use x="63.623047" xlink:href="#DejaVuSans-30"/>
       <use x="127.246094" xlink:href="#DejaVuSans-30"/>
      </g>
     </g>
    </g>
    <g id="xtick_6">
     <g id="line2d_6">
      <g>
       <use style="stroke:#000000;stroke-width:0.8;" x="276.66568" xlink:href="#m18c530f546" y="307.584"/>
      </g>
     </g>
     <g id="text_6">
      <!-- 1000 -->
      <g transform="translate(263.94068 322.182437)scale(0.1 -0.1)">
       <defs>
        <path d="M 794 531 
L 1825 531 
L 1825 4091 
L 703 3866 
L 703 4441 
L 1819 4666 
L 2450 4666 
L 2450 531 
L 3481 531 
L 3481 0 
L 794 0 
L 794 531 
z
" id="DejaVuSans-31" transform="scale(0.015625)"/>
       </defs>
       <use xlink:href="#DejaVuSans-31"/>
       <use x="63.623047" xlink:href="#DejaVuSans-30"/>
       <use x="127.246094" xlink:href="#DejaVuSans-30"/>
       <use x="190.869141" xlink:href="#DejaVuSans-30"/>
      </g>
     </g>
    </g>
    <g id="xtick_7">
     <g id="line2d_7">
      <g>
       <use style="stroke:#000000;stroke-width:0.8;" x="317.272877" xlink:href="#m18c530f546" y="307.584"/>
      </g>
     </g>
     <g id="text_7">
      <!-- 1200 -->
      <g transform="translate(304.547877 322.182437)scale(0.1 -0.1)">
       <use xlink:href="#DejaVuSans-31"/>
       <use x="63.623047" xlink:href="#DejaVuSans-32"/>
       <use x="127.246094" xlink:href="#DejaVuSans-30"/>
       <use x="190.869141" xlink:href="#DejaVuSans-30"/>
      </g>
     </g>
    </g>
    <g id="xtick_8">
     <g id="line2d_8">
      <g>
       <use style="stroke:#000000;stroke-width:0.8;" x="357.880075" xlink:href="#m18c530f546" y="307.584"/>
      </g>
     </g>
     <g id="text_8">
      <!-- 1400 -->
      <g transform="translate(345.155075 322.182437)scale(0.1 -0.1)">
       <use xlink:href="#DejaVuSans-31"/>
       <use x="63.623047" xlink:href="#DejaVuSans-34"/>
       <use x="127.246094" xlink:href="#DejaVuSans-30"/>
       <use x="190.869141" xlink:href="#DejaVuSans-30"/>
      </g>
     </g>
    </g>
    <g id="xtick_9">
     <g id="line2d_9">
      <g>
       <use style="stroke:#000000;stroke-width:0.8;" x="398.487273" xlink:href="#m18c530f546" y="307.584"/>
      </g>
     </g>
     <g id="text_9">
      <!-- 1600 -->
      <g transform="translate(385.762273 322.182437)scale(0.1 -0.1)">
       <use xlink:href="#DejaVuSans-31"/>
       <use x="63.623047" xlink:href="#DejaVuSans-36"/>
       <use x="127.246094" xlink:href="#DejaVuSans-30"/>
       <use x="190.869141" xlink:href="#DejaVuSans-30"/>
      </g>
     </g>
    </g>
    <g id="text_10">
     <!-- Epoch -->
     <g transform="translate(213.193594 339.659781)scale(0.15 -0.15)">
      <defs>
       <path d="M 628 4666 
L 3578 4666 
L 3578 4134 
L 1259 4134 
L 1259 2753 
L 3481 2753 
L 3481 2222 
L 1259 2222 
L 1259 531 
L 3634 531 
L 3634 0 
L 628 0 
L 628 4666 
z
" id="DejaVuSans-45" transform="scale(0.015625)"/>
       <path d="M 1159 525 
L 1159 -1331 
L 581 -1331 
L 581 3500 
L 1159 3500 
L 1159 2969 
Q 1341 3281 1617 3432 
Q 1894 3584 2278 3584 
Q 2916 3584 3314 3078 
Q 3713 2572 3713 1747 
Q 3713 922 3314 415 
Q 2916 -91 2278 -91 
Q 1894 -91 1617 61 
Q 1341 213 1159 525 
z
M 3116 1747 
Q 3116 2381 2855 2742 
Q 2594 3103 2138 3103 
Q 1681 3103 1420 2742 
Q 1159 2381 1159 1747 
Q 1159 1113 1420 752 
Q 1681 391 2138 391 
Q 2594 391 2855 752 
Q 3116 1113 3116 1747 
z
" id="DejaVuSans-70" transform="scale(0.015625)"/>
       <path d="M 1959 3097 
Q 1497 3097 1228 2736 
Q 959 2375 959 1747 
Q 959 1119 1226 758 
Q 1494 397 1959 397 
Q 2419 397 2687 759 
Q 2956 1122 2956 1747 
Q 2956 2369 2687 2733 
Q 2419 3097 1959 3097 
z
M 1959 3584 
Q 2709 3584 3137 3096 
Q 3566 2609 3566 1747 
Q 3566 888 3137 398 
Q 2709 -91 1959 -91 
Q 1206 -91 779 398 
Q 353 888 353 1747 
Q 353 2609 779 3096 
Q 1206 3584 1959 3584 
z
" id="DejaVuSans-6f" transform="scale(0.015625)"/>
       <path d="M 3122 3366 
L 3122 2828 
Q 2878 2963 2633 3030 
Q 2388 3097 2138 3097 
Q 1578 3097 1268 2742 
Q 959 2388 959 1747 
Q 959 1106 1268 751 
Q 1578 397 2138 397 
Q 2388 397 2633 464 
Q 2878 531 3122 666 
L 3122 134 
Q 2881 22 2623 -34 
Q 2366 -91 2075 -91 
Q 1284 -91 818 406 
Q 353 903 353 1747 
Q 353 2603 823 3093 
Q 1294 3584 2113 3584 
Q 2378 3584 2631 3529 
Q 2884 3475 3122 3366 
z
" id="DejaVuSans-63" transform="scale(0.015625)"/>
       <path d="M 3513 2113 
L 3513 0 
L 2938 0 
L 2938 2094 
Q 2938 2591 2744 2837 
Q 2550 3084 2163 3084 
Q 1697 3084 1428 2787 
Q 1159 2491 1159 1978 
L 1159 0 
L 581 0 
L 581 4863 
L 1159 4863 
L 1159 2956 
Q 1366 3272 1645 3428 
Q 1925 3584 2291 3584 
Q 2894 3584 3203 3211 
Q 3513 2838 3513 2113 
z
" id="DejaVuSans-68" transform="scale(0.015625)"/>
      </defs>
      <use xlink:href="#DejaVuSans-45"/>
      <use x="63.183594" xlink:href="#DejaVuSans-70"/>
      <use x="126.660156" xlink:href="#DejaVuSans-6f"/>
      <use x="187.841797" xlink:href="#DejaVuSans-63"/>
      <use x="242.822266" xlink:href="#DejaVuSans-68"/>
     </g>
    </g>
   </g>
   <g id="matplotlib.axis_2">
    <g id="ytick_1">
     <g id="line2d_10">
      <defs>
       <path d="M 0 0 
L -3.5 0 
" id="m12934f07b7" style="stroke:#000000;stroke-width:0.8;"/>
      </defs>
      <g>
       <use style="stroke:#000000;stroke-width:0.8;" x="57.6" xlink:href="#m12934f07b7" y="303.610279"/>
      </g>
     </g>
     <g id="text_11">
      <!-- −0.2 -->
      <g transform="translate(26.317187 307.409498)scale(0.1 -0.1)">
       <defs>
        <path d="M 678 2272 
L 4684 2272 
L 4684 1741 
L 678 1741 
L 678 2272 
z
" id="DejaVuSans-2212" transform="scale(0.015625)"/>
        <path d="M 684 794 
L 1344 794 
L 1344 0 
L 684 0 
L 684 794 
z
" id="DejaVuSans-2e" transform="scale(0.015625)"/>
       </defs>
       <use xlink:href="#DejaVuSans-2212"/>
       <use x="83.789062" xlink:href="#DejaVuSans-30"/>
       <use x="147.412109" xlink:href="#DejaVuSans-2e"/>
       <use x="179.199219" xlink:href="#DejaVuSans-32"/>
      </g>
     </g>
    </g>
    <g id="ytick_2">
     <g id="line2d_11">
      <g>
       <use style="stroke:#000000;stroke-width:0.8;" x="57.6" xlink:href="#m12934f07b7" y="273.608658"/>
      </g>
     </g>
     <g id="text_12">
      <!-- 0.0 -->
      <g transform="translate(34.696875 277.407876)scale(0.1 -0.1)">
       <use xlink:href="#DejaVuSans-30"/>
       <use x="63.623047" xlink:href="#DejaVuSans-2e"/>
       <use x="95.410156" xlink:href="#DejaVuSans-30"/>
      </g>
     </g>
    </g>
    <g id="ytick_3">
     <g id="line2d_12">
      <g>
       <use style="stroke:#000000;stroke-width:0.8;" x="57.6" xlink:href="#m12934f07b7" y="243.607036"/>
      </g>
     </g>
     <g id="text_13">
      <!-- 0.2 -->
      <g transform="translate(34.696875 247.406255)scale(0.1 -0.1)">
       <use xlink:href="#DejaVuSans-30"/>
       <use x="63.623047" xlink:href="#DejaVuSans-2e"/>
       <use x="95.410156" xlink:href="#DejaVuSans-32"/>
      </g>
     </g>
    </g>
    <g id="ytick_4">
     <g id="line2d_13">
      <g>
       <use style="stroke:#000000;stroke-width:0.8;" x="57.6" xlink:href="#m12934f07b7" y="213.605414"/>
      </g>
     </g>
     <g id="text_14">
      <!-- 0.4 -->
      <g transform="translate(34.696875 217.404633)scale(0.1 -0.1)">
       <use xlink:href="#DejaVuSans-30"/>
       <use x="63.623047" xlink:href="#DejaVuSans-2e"/>
       <use x="95.410156" xlink:href="#DejaVuSans-34"/>
      </g>
     </g>
    </g>
    <g id="ytick_5">
     <g id="line2d_14">
      <g>
       <use style="stroke:#000000;stroke-width:0.8;" x="57.6" xlink:href="#m12934f07b7" y="183.603793"/>
      </g>
     </g>
     <g id="text_15">
      <!-- 0.6 -->
      <g transform="translate(34.696875 187.403011)scale(0.1 -0.1)">
       <use xlink:href="#DejaVuSans-30"/>
       <use x="63.623047" xlink:href="#DejaVuSans-2e"/>
       <use x="95.410156" xlink:href="#DejaVuSans-36"/>
      </g>
     </g>
    </g>
    <g id="ytick_6">
     <g id="line2d_15">
      <g>
       <use style="stroke:#000000;stroke-width:0.8;" x="57.6" xlink:href="#m12934f07b7" y="153.602171"/>
      </g>
     </g>
     <g id="text_16">
      <!-- 0.8 -->
      <g transform="translate(34.696875 157.40139)scale(0.1 -0.1)">
       <use xlink:href="#DejaVuSans-30"/>
       <use x="63.623047" xlink:href="#DejaVuSans-2e"/>
       <use x="95.410156" xlink:href="#DejaVuSans-38"/>
      </g>
     </g>
    </g>
    <g id="ytick_7">
     <g id="line2d_16">
      <g>
       <use style="stroke:#000000;stroke-width:0.8;" x="57.6" xlink:href="#m12934f07b7" y="123.600549"/>
      </g>
     </g>
     <g id="text_17">
      <!-- 1.0 -->
      <g transform="translate(34.696875 127.399768)scale(0.1 -0.1)">
       <use xlink:href="#DejaVuSans-31"/>
       <use x="63.623047" xlink:href="#DejaVuSans-2e"/>
       <use x="95.410156" xlink:href="#DejaVuSans-30"/>
      </g>
     </g>
    </g>
    <g id="ytick_8">
     <g id="line2d_17">
      <g>
       <use style="stroke:#000000;stroke-width:0.8;" x="57.6" xlink:href="#m12934f07b7" y="93.598928"/>
      </g>
     </g>
     <g id="text_18">
      <!-- 1.2 -->
      <g transform="translate(34.696875 97.398146)scale(0.1 -0.1)">
       <use xlink:href="#DejaVuSans-31"/>
       <use x="63.623047" xlink:href="#DejaVuSans-2e"/>
       <use x="95.410156" xlink:href="#DejaVuSans-32"/>
      </g>
     </g>
    </g>
    <g id="ytick_9">
     <g id="line2d_18">
      <g>
       <use style="stroke:#000000;stroke-width:0.8;" x="57.6" xlink:href="#m12934f07b7" y="63.597306"/>
      </g>
     </g>
     <g id="text_19">
      <!-- 1.4 -->
      <g transform="translate(34.696875 67.396525)scale(0.1 -0.1)">
       <use xlink:href="#DejaVuSans-31"/>
       <use x="63.623047" xlink:href="#DejaVuSans-2e"/>
       <use x="95.410156" xlink:href="#DejaVuSans-34"/>
      </g>
     </g>
    </g>
   </g>
   <g id="line2d_19">
    <path clip-path="url(#pf8a881bf26)" d="M 73.832727 108.147693 
L 74.238799 91.455813 
L 74.441835 82.150243 
L 74.644871 112.625101 
L 74.847907 106.59531 
L 75.050943 75.061804 
L 75.253979 61.649866 
L 75.457015 77.091426 
L 75.660051 77.681333 
L 76.066123 69.206826 
L 76.269159 62.404653 
L 76.472195 123.94741 
L 76.675231 118.664304 
L 76.878267 139.350488 
L 77.081303 84.825567 
L 77.284339 100.140854 
L 77.487375 125.815944 
L 77.690411 78.691619 
L 77.893447 120.648319 
L 78.096483 100.71695 
L 78.299519 120.527112 
L 78.502555 83.703489 
L 78.705591 102.803337 
L 78.908627 81.754114 
L 79.111663 119.888345 
L 79.314699 105.792796 
L 79.517735 108.944936 
L 79.720771 91.412832 
L 79.923807 100.490349 
L 80.126843 72.777053 
L 80.329879 158.614049 
L 80.735951 98.175584 
L 80.938987 81.918945 
L 81.142023 94.671309 
L 81.345059 116.689026 
L 81.548095 81.59991 
L 81.751131 128.216698 
L 81.954167 105.874754 
L 82.157203 107.79002 
L 82.360239 131.462801 
L 82.563275 121.915515 
L 82.766311 145.110069 
L 83.172383 63.471987 
L 83.375419 96.033034 
L 83.578455 67.363306 
L 83.781491 81.556536 
L 83.984527 61.003229 
L 84.187563 108.691472 
L 84.593635 88.330487 
L 84.796671 109.168278 
L 84.999707 117.934754 
L 85.202743 142.07372 
L 85.405779 103.370491 
L 85.608815 102.651876 
L 85.811851 106.321868 
L 86.014887 113.607538 
L 86.217923 80.734035 
L 86.420959 85.157104 
L 86.623995 160.910859 
L 86.827031 105.649119 
L 87.030067 90.646087 
L 87.233103 55.947327 
L 87.436138 110.294458 
L 87.84221 60.791241 
L 88.248282 94.428285 
L 88.451318 53.568 
L 88.85739 131.35968 
L 89.060426 109.443884 
L 89.263462 125.054849 
L 89.466498 68.660383 
L 89.669534 102.935816 
L 89.87257 110.866965 
L 90.075606 113.217481 
L 90.278642 107.371627 
L 90.481678 120.076686 
L 90.684714 122.010347 
L 90.88775 99.732129 
L 91.090786 99.161609 
L 91.293822 143.522423 
L 91.496858 86.231557 
L 91.90293 125.235428 
L 92.105966 91.666464 
L 92.309002 97.330279 
L 92.512038 77.564713 
L 92.715074 102.644626 
L 92.91811 65.291499 
L 93.121146 98.277271 
L 93.324182 78.415802 
L 93.527218 131.800178 
L 93.730254 93.271516 
L 93.93329 98.892109 
L 94.136326 90.649171 
L 94.339362 107.886809 
L 94.542398 67.18341 
L 94.745434 91.602477 
L 94.94847 98.249748 
L 95.151506 115.418745 
L 95.354542 87.164436 
L 95.557578 107.247522 
L 95.760614 107.339973 
L 95.96365 91.337545 
L 96.166686 95.657552 
L 96.369722 60.303759 
L 96.775794 137.830485 
L 96.97883 111.746251 
L 97.384902 95.899797 
L 97.587938 72.484204 
L 97.790974 70.612886 
L 97.99401 104.068767 
L 98.197046 67.441003 
L 98.400082 116.148472 
L 98.603118 81.482784 
L 98.806154 124.112939 
L 99.00919 104.146062 
L 99.212226 101.476187 
L 99.415262 113.138471 
L 99.618298 114.462409 
L 99.821334 102.403426 
L 100.02437 97.75469 
L 100.430442 130.579401 
L 100.836514 90.832261 
L 101.03955 103.147447 
L 101.242586 82.519245 
L 101.445622 107.70089 
L 101.851694 112.222843 
L 102.05473 100.430395 
L 102.257766 99.139462 
L 102.460802 66.670307 
L 102.663838 91.620082 
L 102.866874 80.189019 
L 103.06991 135.602352 
L 103.475982 87.507085 
L 103.679018 124.174699 
L 103.882054 133.205252 
L 104.08509 94.65319 
L 104.288126 106.698144 
L 104.491162 97.892128 
L 104.897233 71.502921 
L 105.100269 105.395967 
L 105.303305 81.288077 
L 105.506341 94.198233 
L 105.709377 60.001051 
L 105.912413 108.784909 
L 106.115449 115.453932 
L 106.318485 71.762728 
L 106.521521 99.679016 
L 106.724557 104.98641 
L 106.927593 92.741006 
L 107.130629 92.411602 
L 107.333665 83.63096 
L 107.536701 81.068677 
L 107.739737 129.30194 
L 107.942773 82.04992 
L 108.145809 112.674484 
L 108.348845 126.283295 
L 108.551881 116.408403 
L 108.754917 71.703673 
L 108.957953 105.106912 
L 109.160989 102.875123 
L 109.364025 117.945931 
L 109.567061 85.911691 
L 109.770097 161.874312 
L 109.973133 117.623129 
L 110.176169 127.895549 
L 110.379205 150.090342 
L 110.582241 98.074803 
L 110.988313 92.000695 
L 111.191349 124.410669 
L 111.597421 155.939038 
L 112.003493 106.411688 
L 112.206529 127.857854 
L 112.409565 133.600975 
L 112.612601 132.249579 
L 113.018673 117.205338 
L 113.221709 129.632005 
L 113.424745 121.088903 
L 113.627781 136.70179 
L 113.830817 117.826716 
L 114.033853 137.194958 
L 114.236889 132.733214 
L 114.439925 120.228576 
L 114.642961 127.05794 
L 114.845997 91.20046 
L 115.049033 105.883152 
L 115.252069 139.831796 
L 115.455105 105.765829 
L 115.861177 155.059992 
L 116.064213 134.183157 
L 116.267249 128.081757 
L 116.470285 155.293695 
L 116.673321 127.927147 
L 116.876357 149.867146 
L 117.079393 135.835441 
L 117.282429 98.030942 
L 117.485465 150.548794 
L 117.688501 120.462156 
L 117.891537 156.317821 
L 118.094573 120.042855 
L 118.500645 138.776135 
L 118.703681 117.271936 
L 118.906717 138.069506 
L 119.109753 176.349704 
L 119.312789 169.940204 
L 119.515825 131.210142 
L 119.718861 143.783335 
L 120.124933 112.20201 
L 120.327969 117.313042 
L 120.531005 147.530194 
L 120.734041 147.986723 
L 120.937077 158.407835 
L 121.140113 155.017638 
L 121.343149 139.450792 
L 121.546185 146.882055 
L 121.749221 125.98005 
L 122.155293 152.261256 
L 122.358329 151.624715 
L 122.561364 160.693049 
L 122.7644 159.364825 
L 122.967436 169.050539 
L 123.170472 115.440296 
L 123.373508 136.01889 
L 123.576544 172.611556 
L 123.77958 147.237895 
L 123.982616 179.726019 
L 124.185652 136.639958 
L 124.388688 148.258472 
L 124.591724 191.057349 
L 124.79476 148.393762 
L 124.997796 181.204345 
L 125.200832 182.8135 
L 125.403868 143.886634 
L 125.606904 148.627106 
L 125.80994 168.75426 
L 126.216012 128.925563 
L 126.419048 168.161353 
L 126.622084 121.577108 
L 126.82512 140.381569 
L 127.028156 123.195634 
L 127.434228 160.995433 
L 127.637264 165.826498 
L 127.8403 143.942763 
L 128.043336 136.279002 
L 128.246372 144.317102 
L 128.449408 167.725962 
L 128.652444 153.593709 
L 128.85548 163.167606 
L 129.058516 160.203496 
L 129.261552 148.835122 
L 129.464588 169.410506 
L 129.667624 159.271062 
L 129.87066 170.363169 
L 130.073696 167.570157 
L 130.276732 172.208227 
L 130.479768 159.963552 
L 130.682804 162.28413 
L 130.88584 176.42361 
L 131.088876 153.418997 
L 131.291912 174.363876 
L 131.494948 141.853372 
L 131.697984 177.648101 
L 131.90102 158.031553 
L 132.104056 162.73995 
L 132.307092 150.031453 
L 132.510128 110.22359 
L 132.713164 152.636406 
L 132.9162 156.262183 
L 133.119236 164.411023 
L 133.322272 162.01645 
L 133.525308 180.449975 
L 133.728344 162.220686 
L 133.93138 158.556166 
L 134.134416 149.992807 
L 134.337452 131.39227 
L 134.540488 147.721615 
L 134.743524 151.431201 
L 134.94656 178.804426 
L 135.149596 170.842896 
L 135.352632 151.982316 
L 135.758704 174.470793 
L 135.96174 143.890351 
L 136.367812 179.264886 
L 136.570848 195.622042 
L 136.773884 170.274876 
L 136.97692 175.863918 
L 137.179956 135.357412 
L 137.382992 177.01559 
L 137.586028 162.948818 
L 137.789064 164.467791 
L 137.9921 182.970279 
L 138.195136 179.350868 
L 138.398172 178.205412 
L 138.804244 157.951617 
L 139.00728 161.729237 
L 139.616388 156.562455 
L 140.022459 201.090596 
L 140.225495 166.735311 
L 140.428531 174.480854 
L 140.631567 169.443525 
L 141.037639 154.187909 
L 141.240675 162.935612 
L 141.443711 157.088593 
L 141.849783 183.748725 
L 142.052819 171.563733 
L 142.255855 171.43443 
L 142.458891 175.732124 
L 142.661927 174.797307 
L 142.864963 170.558484 
L 143.067999 148.22135 
L 143.271035 153.250517 
L 143.474071 178.300843 
L 143.677107 174.438742 
L 143.880143 163.887741 
L 144.083179 167.273432 
L 144.286215 186.35193 
L 144.489251 190.969885 
L 144.692287 186.752748 
L 144.895323 174.115163 
L 145.098359 174.808129 
L 145.504431 192.023167 
L 145.707467 186.415726 
L 145.910503 160.654911 
L 146.316575 191.836778 
L 146.519611 174.824215 
L 146.722647 179.93691 
L 146.925683 155.57314 
L 147.331755 178.511128 
L 147.534791 153.317142 
L 147.737827 188.360914 
L 147.940863 158.626693 
L 148.143899 169.717938 
L 148.346935 221.077631 
L 148.549971 186.282628 
L 148.753007 175.416908 
L 148.956043 187.584285 
L 149.159079 192.216799 
L 149.362115 170.111116 
L 149.565151 191.046576 
L 149.768187 172.773585 
L 149.971223 166.194769 
L 150.174259 190.663857 
L 150.377295 190.400606 
L 150.580331 194.446625 
L 150.783367 170.237417 
L 150.986403 177.999136 
L 151.189439 191.286485 
L 151.392475 194.572421 
L 151.595511 173.391044 
L 151.798547 175.441405 
L 152.001583 185.039572 
L 152.204619 159.001106 
L 152.407655 176.165078 
L 152.610691 183.828707 
L 152.813727 182.693055 
L 153.016763 199.330396 
L 153.219799 178.627215 
L 153.422835 174.040541 
L 153.828907 191.871796 
L 154.031943 187.50297 
L 154.234979 176.90186 
L 154.438015 180.378403 
L 154.641051 177.254252 
L 154.844087 181.286464 
L 155.047123 166.69436 
L 155.250159 181.549369 
L 155.453195 184.304882 
L 155.656231 167.596643 
L 155.859267 191.640954 
L 156.062303 189.854152 
L 156.671411 167.775486 
L 156.874447 191.057514 
L 157.077483 181.187197 
L 157.280519 180.799196 
L 157.483554 201.425098 
L 157.68659 186.664239 
L 157.889626 183.647969 
L 158.092662 190.15751 
L 158.295698 175.715826 
L 158.498734 175.914934 
L 158.70177 195.363515 
L 158.904806 171.448831 
L 159.107842 192.737003 
L 159.310878 189.04983 
L 159.513914 198.782553 
L 159.71695 182.266285 
L 159.919986 194.535812 
L 160.123022 183.017956 
L 160.326058 200.452901 
L 160.529094 198.271363 
L 160.73213 192.441765 
L 160.935166 181.185598 
L 161.138202 193.444714 
L 161.341238 214.907919 
L 161.544274 196.836385 
L 161.74731 200.528901 
L 161.950346 199.324679 
L 162.153382 206.394844 
L 162.356418 198.814268 
L 162.559454 185.651289 
L 162.76249 192.821195 
L 162.965526 209.492041 
L 163.168562 200.847095 
L 163.371598 198.018626 
L 163.574634 180.588551 
L 163.77767 186.786108 
L 163.980706 177.316177 
L 164.386778 192.182044 
L 164.589814 189.386112 
L 164.79285 168.26727 
L 165.401958 216.360438 
L 165.604994 207.900593 
L 166.011066 182.022062 
L 166.214102 172.622999 
L 166.417138 154.707247 
L 166.620174 201.318068 
L 166.82321 205.474215 
L 167.026246 202.844134 
L 167.229282 189.063729 
L 167.432318 208.652138 
L 167.83839 181.041211 
L 168.041426 184.685779 
L 168.244462 182.041904 
L 168.447498 210.019578 
L 168.650534 201.444492 
L 168.85357 206.215628 
L 169.056606 205.420924 
L 169.259642 183.65065 
L 169.462678 215.571835 
L 169.665714 195.4146 
L 169.86875 200.493109 
L 170.071786 202.378438 
L 170.274822 182.079169 
L 170.477858 206.6799 
L 170.88393 183.651787 
L 171.086966 201.845212 
L 171.290002 183.440523 
L 171.696074 204.901257 
L 171.89911 210.766877 
L 172.305182 187.506692 
L 172.508218 221.517085 
L 172.91429 196.710039 
L 173.117326 199.997462 
L 173.320362 207.503351 
L 173.523398 191.694958 
L 173.726434 200.196901 
L 173.92947 188.73488 
L 174.132506 217.550539 
L 174.538578 188.964137 
L 174.741614 215.777449 
L 174.944649 192.388612 
L 175.147685 209.314507 
L 175.350721 192.08787 
L 175.553757 187.768467 
L 175.756793 200.289825 
L 175.959829 196.852182 
L 176.162865 182.661728 
L 176.365901 199.007445 
L 176.568937 202.539723 
L 176.975009 173.729554 
L 177.381081 199.620078 
L 177.584117 205.513774 
L 177.787153 193.435849 
L 178.599297 214.893303 
L 178.802333 204.479691 
L 179.005369 214.022552 
L 179.411441 194.393564 
L 179.817513 208.917188 
L 180.223585 201.289178 
L 180.629657 215.794264 
L 180.832693 209.377595 
L 181.035729 211.95965 
L 181.238765 200.990744 
L 181.441801 198.651634 
L 181.847873 189.663267 
L 182.253945 194.914143 
L 182.456981 213.63074 
L 182.660017 211.286326 
L 182.863053 204.343265 
L 183.269125 211.694159 
L 183.472161 190.404312 
L 183.675197 188.668917 
L 183.878233 215.007411 
L 184.284305 192.285885 
L 184.487341 223.225251 
L 184.690377 210.924831 
L 184.893413 216.405003 
L 185.096449 190.424442 
L 185.299485 203.215123 
L 185.502521 202.239367 
L 185.705557 207.418234 
L 185.908593 216.020172 
L 186.111629 199.786881 
L 186.314665 206.638028 
L 186.720737 212.712832 
L 186.923773 211.827895 
L 187.126809 186.942371 
L 187.532881 208.759232 
L 187.735917 208.170025 
L 187.938953 215.290378 
L 188.141989 214.41949 
L 188.345025 222.431598 
L 188.751097 183.450791 
L 188.954133 211.098545 
L 189.157169 200.539482 
L 189.360205 206.939762 
L 189.563241 202.945135 
L 189.766277 204.271758 
L 189.969313 220.566537 
L 190.172349 208.359396 
L 190.375385 210.549054 
L 190.781457 218.638579 
L 191.187529 213.151811 
L 191.390565 226.617749 
L 191.593601 221.551906 
L 191.796637 205.739338 
L 191.999673 211.448668 
L 192.202709 222.371242 
L 192.405744 225.822575 
L 192.60878 211.433036 
L 192.811816 218.22402 
L 193.014852 229.719922 
L 193.217888 215.857076 
L 193.420924 226.564723 
L 193.62396 223.748373 
L 193.826996 227.206329 
L 194.030032 199.658629 
L 194.233068 227.226085 
L 194.436104 210.148568 
L 194.842176 222.962649 
L 195.045212 217.374189 
L 195.248248 215.192854 
L 195.451284 225.737459 
L 195.65432 227.38116 
L 195.857356 205.178023 
L 196.060392 211.07154 
L 196.263428 225.133015 
L 196.466464 221.636157 
L 196.6695 230.275069 
L 196.872536 228.803415 
L 197.075572 211.001797 
L 197.278608 231.463813 
L 197.68468 211.814079 
L 197.887716 218.291191 
L 198.090752 219.886634 
L 198.293788 236.754453 
L 198.69986 213.197328 
L 198.902896 220.823868 
L 199.105932 234.735601 
L 199.308968 216.538297 
L 199.512004 232.876788 
L 199.71504 210.524942 
L 199.918076 221.006876 
L 200.121112 210.186312 
L 200.324148 228.878622 
L 200.527184 220.517663 
L 200.73022 238.79128 
L 200.933256 207.026688 
L 201.136292 195.484421 
L 201.339328 210.600531 
L 201.542364 210.560705 
L 201.7454 227.362466 
L 201.948436 211.297613 
L 202.151472 214.179136 
L 202.354508 204.707822 
L 202.557544 213.72128 
L 202.76058 238.47808 
L 202.963616 209.474371 
L 203.166652 206.92596 
L 203.369688 237.773495 
L 203.572724 230.910701 
L 203.77576 207.532821 
L 203.978796 221.130151 
L 204.181832 220.175292 
L 204.384868 235.685938 
L 204.587904 228.802444 
L 204.79094 200.798461 
L 204.993976 223.111753 
L 205.197012 221.522207 
L 205.400048 228.87047 
L 205.603084 226.608976 
L 205.80612 206.941711 
L 206.009156 221.228722 
L 206.415228 218.615743 
L 206.8213 235.029598 
L 207.024336 210.824035 
L 207.227372 233.435664 
L 207.430408 230.340734 
L 207.633444 231.885554 
L 207.83648 236.798396 
L 208.242552 220.083083 
L 208.445588 226.442378 
L 208.648624 241.279124 
L 208.85166 213.495267 
L 209.054696 213.065947 
L 209.257732 229.492697 
L 209.460768 226.713996 
L 209.663804 217.402228 
L 209.86684 219.564195 
L 210.069875 219.90584 
L 210.475947 234.795551 
L 210.678983 223.101917 
L 210.882019 233.14045 
L 211.085055 213.363928 
L 211.288091 212.45425 
L 211.491127 230.918215 
L 211.694163 227.109265 
L 211.897199 230.010013 
L 212.303271 202.772912 
L 212.506307 234.921654 
L 212.912379 216.55255 
L 213.115415 246.73787 
L 213.318451 231.585696 
L 213.521487 227.391623 
L 213.724523 236.501867 
L 213.927559 228.122349 
L 214.130595 236.393307 
L 214.333631 234.885767 
L 214.536667 243.620427 
L 214.739703 227.144019 
L 214.942739 242.299514 
L 215.145775 212.346597 
L 215.348811 231.577765 
L 215.551847 237.690981 
L 215.754883 238.339286 
L 215.957919 227.092438 
L 216.160955 237.428077 
L 216.363991 226.63649 
L 216.567027 233.669044 
L 216.770063 232.633559 
L 216.973099 248.080173 
L 217.176135 232.519796 
L 217.379171 233.226141 
L 217.582207 227.768952 
L 217.785243 217.08686 
L 218.191315 239.332991 
L 218.394351 227.040571 
L 218.597387 237.367098 
L 218.800423 238.266021 
L 219.003459 244.024497 
L 219.206495 242.855016 
L 219.409531 238.667796 
L 219.612567 244.667023 
L 219.815603 244.03715 
L 220.018639 247.649108 
L 220.221675 226.502863 
L 220.424711 233.468759 
L 220.627747 229.496611 
L 220.830783 228.729772 
L 221.033819 250.312066 
L 221.236855 246.822336 
L 221.439891 235.607025 
L 221.642927 234.960936 
L 221.845963 243.200617 
L 222.048999 233.929473 
L 222.252035 231.285153 
L 222.455071 247.765296 
L 222.658107 227.624329 
L 222.861143 223.894576 
L 223.064179 231.258554 
L 223.267215 223.618616 
L 223.470251 244.439738 
L 223.673287 239.510466 
L 223.876323 244.49992 
L 224.079359 236.499556 
L 224.282395 240.168978 
L 224.485431 240.223233 
L 224.688467 238.327652 
L 224.891503 235.166419 
L 225.094539 238.018758 
L 225.297575 243.779072 
L 225.500611 244.24503 
L 226.109719 225.404345 
L 226.312755 247.908904 
L 226.515791 228.314702 
L 226.921863 245.977709 
L 227.124899 238.163652 
L 227.327935 238.157286 
L 227.53097 228.323611 
L 227.734006 232.503162 
L 228.140078 247.890339 
L 228.343114 248.902921 
L 228.54615 235.046374 
L 228.749186 244.793566 
L 229.155258 253.43548 
L 229.358294 229.038675 
L 229.56133 236.031037 
L 229.764366 248.507273 
L 229.967402 232.428408 
L 230.170438 237.149654 
L 230.373474 247.419784 
L 230.57651 263.856356 
L 230.779546 245.421337 
L 230.982582 249.5956 
L 231.185618 244.90104 
L 231.388654 232.011166 
L 231.59169 246.576033 
L 231.794726 247.952437 
L 232.200798 234.784511 
L 232.403834 255.948745 
L 232.60687 244.749346 
L 232.809906 245.534271 
L 233.012942 235.342715 
L 233.215978 242.665584 
L 233.419014 243.659832 
L 233.62205 230.73303 
L 233.825086 251.574833 
L 234.028122 240.70597 
L 234.231158 260.132239 
L 234.434194 241.028579 
L 234.63723 238.884205 
L 234.840266 248.307701 
L 235.043302 229.914403 
L 235.246338 237.481948 
L 235.449374 254.477948 
L 235.65241 245.902635 
L 236.058482 251.895126 
L 236.261518 245.643089 
L 236.464554 231.504918 
L 236.870626 256.460178 
L 237.073662 247.00079 
L 237.276698 243.030729 
L 237.479734 243.040732 
L 238.088842 261.256665 
L 238.291878 247.859107 
L 238.494914 249.4196 
L 238.69795 256.601538 
L 238.900986 251.416125 
L 239.104022 255.441754 
L 239.307058 242.568389 
L 239.510094 246.887525 
L 239.71313 231.097945 
L 239.916166 258.57215 
L 240.119202 258.785621 
L 240.322238 248.746724 
L 240.525274 248.105141 
L 240.72831 252.563068 
L 240.931346 237.689773 
L 241.134382 246.418749 
L 241.337418 239.27609 
L 241.540454 250.984538 
L 241.74349 254.853573 
L 241.946526 247.90313 
L 242.149562 267.747153 
L 242.352598 239.310546 
L 242.555634 229.482052 
L 242.961706 242.53705 
L 243.164742 237.710736 
L 243.367778 262.773502 
L 243.570814 241.418086 
L 243.77385 257.500705 
L 243.976886 226.948642 
L 244.179922 258.492391 
L 244.382958 235.312761 
L 244.585994 246.619264 
L 244.78903 277.145774 
L 244.992065 247.238752 
L 245.195101 243.487443 
L 245.398137 254.29562 
L 245.601173 251.600124 
L 245.804209 252.792108 
L 246.007245 246.783079 
L 246.210281 255.948598 
L 246.616353 234.084298 
L 246.819389 234.096177 
L 247.225461 259.466399 
L 247.428497 246.532305 
L 247.631533 268.40602 
L 248.240641 244.53417 
L 248.646713 257.11098 
L 248.849749 253.743668 
L 249.052785 247.839461 
L 249.255821 233.831977 
L 249.661893 247.740846 
L 249.864929 248.541405 
L 250.067965 261.32571 
L 250.474037 238.956868 
L 250.677073 251.79018 
L 250.880109 247.34571 
L 251.083145 258.40916 
L 251.286181 243.292021 
L 251.489217 251.41712 
L 251.692253 250.625111 
L 252.301361 240.877583 
L 252.504397 257.464509 
L 252.910469 251.248565 
L 253.113505 232.061251 
L 253.519577 255.967089 
L 253.722613 252.091567 
L 253.925649 261.268335 
L 254.128685 263.778416 
L 254.331721 253.861165 
L 254.534757 262.435896 
L 254.737793 263.50324 
L 254.940829 251.38576 
L 255.143865 261.385779 
L 255.346901 259.787334 
L 255.549937 248.42134 
L 255.752973 249.676248 
L 255.956009 265.576679 
L 256.159045 250.107893 
L 256.362081 262.143519 
L 256.565117 255.005897 
L 256.768153 240.034069 
L 256.971189 258.531368 
L 257.174225 260.560298 
L 257.377261 253.038121 
L 257.580297 256.646643 
L 257.783333 251.584756 
L 257.986369 251.557923 
L 258.189405 252.486022 
L 258.392441 252.442773 
L 258.595477 262.816825 
L 258.798513 262.423329 
L 259.001549 242.094626 
L 259.204585 253.56158 
L 259.407621 243.037346 
L 259.610657 251.203968 
L 259.813693 246.08736 
L 260.219765 271.397271 
L 260.422801 257.606606 
L 260.625837 260.941482 
L 260.828873 247.9841 
L 261.031909 256.772539 
L 261.234945 254.665499 
L 261.437981 245.753347 
L 261.641017 259.062574 
L 261.844053 232.400781 
L 262.047089 250.692704 
L 262.45316 243.689833 
L 262.859232 263.312842 
L 263.062268 266.255994 
L 263.265304 263.311943 
L 263.671376 253.744929 
L 263.874412 253.849033 
L 264.077448 253.220018 
L 264.280484 253.155624 
L 264.48352 256.709398 
L 264.686556 252.914148 
L 264.889592 257.272641 
L 265.092628 238.414867 
L 265.295664 255.866886 
L 265.4987 263.607426 
L 265.701736 247.149259 
L 265.904772 261.372013 
L 266.107808 267.428452 
L 266.716916 253.090771 
L 266.919952 269.062588 
L 267.122988 246.999193 
L 267.326024 269.342531 
L 267.732096 235.135532 
L 267.935132 256.527626 
L 268.341204 257.330255 
L 268.54424 255.969349 
L 268.747276 251.617963 
L 268.950312 266.166642 
L 269.153348 251.394692 
L 269.356384 251.580909 
L 269.762456 264.995301 
L 269.965492 272.726596 
L 270.168528 263.306343 
L 270.371564 272.607996 
L 270.5746 251.388605 
L 270.777636 251.872885 
L 270.980672 257.392457 
L 271.183708 271.450158 
L 271.386744 270.390695 
L 271.58978 272.947269 
L 271.792816 278.944411 
L 271.995852 254.194785 
L 272.198888 260.736023 
L 272.401924 272.32475 
L 272.60496 256.573009 
L 272.807996 259.969683 
L 273.011032 254.476957 
L 273.214068 266.40532 
L 273.417104 258.472809 
L 273.823176 270.714241 
L 274.229248 258.11291 
L 274.432284 258.487181 
L 274.63532 254.613291 
L 275.041392 269.023062 
L 275.244428 260.802681 
L 275.447464 263.973242 
L 275.853536 261.868725 
L 276.056572 270.715077 
L 276.259608 251.437586 
L 276.462644 252.238336 
L 276.66568 255.586733 
L 276.868716 265.873066 
L 277.071752 259.769882 
L 277.274788 261.058543 
L 277.477824 271.209181 
L 277.68086 256.453305 
L 277.883896 261.129 
L 278.086932 252.400211 
L 278.289968 271.37733 
L 278.493004 271.347746 
L 278.69604 263.547898 
L 278.899076 266.122676 
L 279.102112 254.21936 
L 279.508184 271.896705 
L 279.71122 263.340644 
L 279.914256 264.177777 
L 280.117291 271.00103 
L 280.320327 256.950747 
L 280.523363 262.426354 
L 280.726399 252.79031 
L 281.132471 271.059191 
L 281.335507 267.352298 
L 281.538543 255.674382 
L 281.741579 255.296914 
L 281.944615 260.602109 
L 282.147651 281.38972 
L 282.350687 274.827199 
L 282.553723 258.505393 
L 282.756759 265.20683 
L 282.959795 254.229664 
L 283.162831 276.190013 
L 283.365867 268.325598 
L 283.568903 265.04131 
L 283.771939 265.8842 
L 283.974975 257.030451 
L 284.381047 266.730236 
L 284.584083 266.873561 
L 284.787119 250.756408 
L 284.990155 280.388431 
L 285.193191 257.464434 
L 285.396227 268.092194 
L 285.599263 260.494087 
L 285.802299 265.219575 
L 286.005335 254.316935 
L 286.208371 274.990166 
L 286.614443 268.042075 
L 287.020515 252.359504 
L 287.223551 265.447036 
L 287.426587 238.146342 
L 287.629623 270.663781 
L 287.832659 278.07022 
L 288.035695 254.146012 
L 288.238731 258.339837 
L 288.441767 256.638629 
L 288.644803 257.758567 
L 288.847839 254.502831 
L 289.050875 266.720706 
L 289.253911 261.082176 
L 289.456947 263.685218 
L 289.863019 281.55319 
L 290.066055 264.922707 
L 290.269091 261.780024 
L 290.472127 264.790766 
L 290.675163 277.811319 
L 290.878199 282.078398 
L 291.284271 254.614606 
L 291.487307 262.266087 
L 291.690343 277.725402 
L 291.893379 262.913039 
L 292.096415 259.008146 
L 292.299451 266.687109 
L 292.502487 253.313203 
L 292.705523 255.795587 
L 292.908559 266.650239 
L 293.111595 261.992388 
L 293.314631 272.921296 
L 293.517667 271.790109 
L 293.720703 260.836072 
L 293.923739 260.939487 
L 294.126775 262.727169 
L 294.532847 276.289426 
L 294.735883 255.827819 
L 294.938919 263.934873 
L 295.141955 246.918957 
L 295.344991 273.457567 
L 295.548027 271.546368 
L 295.751063 267.824562 
L 295.954099 272.81994 
L 296.157135 262.649522 
L 296.563207 275.188271 
L 296.766243 262.208841 
L 296.969279 265.464033 
L 297.172315 264.041739 
L 297.375351 274.44117 
L 297.578386 271.651483 
L 297.781422 273.548891 
L 297.984458 255.150168 
L 298.187494 268.326968 
L 298.39053 273.319518 
L 298.593566 263.248881 
L 298.796602 282.869662 
L 298.999638 268.632531 
L 299.202674 275.63911 
L 299.40571 275.409457 
L 299.608746 274.1532 
L 299.811782 268.873666 
L 300.014818 277.281016 
L 300.217854 271.917141 
L 300.42089 277.516918 
L 300.623926 277.931064 
L 300.826962 274.493205 
L 301.029998 260.728384 
L 301.233034 267.930021 
L 301.43607 280.503935 
L 301.842142 267.35101 
L 302.045178 273.813632 
L 302.45125 267.410261 
L 302.654286 283.851132 
L 302.857322 266.665476 
L 303.060358 280.71815 
L 303.263394 272.939043 
L 303.46643 277.657699 
L 303.669466 277.417104 
L 303.872502 268.70362 
L 304.075538 272.529552 
L 304.278574 257.229268 
L 304.887682 272.166648 
L 305.090718 272.07096 
L 305.293754 268.119904 
L 305.49679 272.771163 
L 305.699826 273.802202 
L 305.902862 264.416086 
L 306.105898 274.761919 
L 306.51197 259.263454 
L 306.918042 275.659691 
L 307.121078 276.378159 
L 307.324114 268.44619 
L 307.52715 255.796733 
L 307.730186 261.658723 
L 307.933222 237.394103 
L 308.136258 262.42828 
L 308.339294 252.442774 
L 308.745366 270.655303 
L 308.948402 262.302115 
L 309.354474 275.35705 
L 309.55751 271.544106 
L 309.760546 273.932212 
L 309.963582 267.546273 
L 310.166618 266.732428 
L 310.57269 272.908801 
L 310.775726 267.976389 
L 310.978762 278.837684 
L 311.181798 274.508355 
L 311.384834 274.833757 
L 311.58787 274.53995 
L 311.790906 275.623474 
L 312.196978 259.709312 
L 312.400014 275.973258 
L 312.60305 281.24313 
L 312.806086 268.906659 
L 313.009122 265.551933 
L 313.212158 257.49067 
L 313.415194 268.799654 
L 313.821266 262.632566 
L 314.024302 263.541724 
L 314.227338 258.74153 
L 314.430374 260.955106 
L 314.63341 280.074386 
L 314.836446 266.068097 
L 315.039481 263.010368 
L 315.242517 251.165667 
L 315.648589 280.248543 
L 315.851625 252.803993 
L 316.054661 269.746483 
L 316.460733 263.491012 
L 316.663769 274.457071 
L 316.866805 268.855296 
L 317.069841 270.291577 
L 317.272877 284.537298 
L 317.678949 276.949957 
L 317.881985 270.763944 
L 318.288057 264.178008 
L 318.491093 268.952839 
L 318.694129 280.003661 
L 318.897165 282.670087 
L 319.100201 280.32983 
L 319.303237 282.354782 
L 319.709309 264.535397 
L 319.912345 267.357231 
L 320.115381 271.942857 
L 320.318417 265.327156 
L 320.521453 268.504552 
L 320.927525 260.641473 
L 321.130561 262.094547 
L 321.333597 258.70758 
L 321.536633 276.959262 
L 321.942705 266.438497 
L 322.145741 272.248672 
L 322.348777 271.855221 
L 322.551813 278.403981 
L 322.957885 262.926987 
L 323.363957 273.691235 
L 323.770029 268.513955 
L 323.973065 268.112336 
L 324.176101 280.660075 
L 324.582173 269.36805 
L 324.785209 275.579834 
L 324.988245 273.253932 
L 325.191281 275.826683 
L 325.394317 288.997434 
L 325.597353 280.322837 
L 325.800389 276.720174 
L 326.003425 270.50164 
L 326.206461 281.757718 
L 326.612533 252.268504 
L 326.815569 262.755256 
L 327.018605 279.751681 
L 327.424677 267.991796 
L 327.627713 281.690719 
L 327.830749 282.819926 
L 328.033785 279.427795 
L 328.236821 288.233856 
L 328.642893 261.418832 
L 328.845929 281.098078 
L 329.048965 273.664061 
L 329.252001 275.960249 
L 329.455037 273.949304 
L 329.658073 280.930131 
L 330.064145 269.236053 
L 330.267181 271.027642 
L 330.470217 280.070089 
L 330.673253 272.149709 
L 330.876289 273.341649 
L 331.079325 277.330058 
L 331.282361 287.223155 
L 331.485397 270.718418 
L 331.688433 271.488111 
L 331.891469 277.117695 
L 332.094505 287.305029 
L 332.297541 287.079962 
L 332.500576 269.085856 
L 332.703612 272.066829 
L 332.906648 282.241138 
L 333.109684 272.159053 
L 333.31272 278.88081 
L 333.515756 271.959002 
L 333.718792 269.064849 
L 333.921828 273.246728 
L 334.124864 280.723651 
L 334.3279 280.571104 
L 334.530936 267.745714 
L 334.733972 266.930242 
L 334.937008 267.708145 
L 335.140044 272.80163 
L 335.34308 273.355401 
L 335.546116 272.22489 
L 336.155224 281.22946 
L 336.35826 278.6945 
L 336.561296 269.645478 
L 336.764332 267.232643 
L 336.967368 262.095925 
L 337.170404 269.841468 
L 337.37344 265.383616 
L 337.576476 283.162358 
L 337.779512 271.339979 
L 337.982548 273.467253 
L 338.185584 282.942142 
L 338.38862 258.837915 
L 338.591656 273.709582 
L 338.794692 276.768016 
L 338.997728 285.416897 
L 339.200764 271.804868 
L 339.4038 271.136869 
L 339.606836 272.094107 
L 340.012908 278.372258 
L 340.215944 268.209763 
L 340.622016 281.121414 
L 340.825052 278.201225 
L 341.028088 271.114434 
L 341.231124 281.669294 
L 341.43416 266.659911 
L 341.637196 281.239178 
L 341.840232 279.450836 
L 342.043268 282.533351 
L 342.246304 270.634836 
L 342.44934 268.925816 
L 342.652376 286.72091 
L 342.855412 267.672829 
L 343.058448 286.877387 
L 343.667556 264.862434 
L 343.870592 279.873179 
L 344.073628 267.058742 
L 344.276664 275.890572 
L 344.4797 270.106874 
L 344.682736 275.281903 
L 344.885772 275.778927 
L 345.088808 283.681422 
L 345.291844 285.233227 
L 345.49488 271.011858 
L 345.697916 270.381326 
L 345.900952 276.477496 
L 346.103988 263.958379 
L 346.307024 275.939581 
L 346.51006 280.830574 
L 346.713096 276.910245 
L 347.119168 281.717649 
L 347.322204 279.369655 
L 347.52524 289.795093 
L 347.728276 275.647999 
L 347.931312 270.463444 
L 348.134348 271.716751 
L 348.337384 278.053574 
L 348.54042 268.72182 
L 348.743456 270.481278 
L 348.946492 269.524716 
L 349.149528 284.695476 
L 349.352564 273.542445 
L 349.5556 281.527781 
L 349.758636 275.030326 
L 349.961671 284.497598 
L 350.164707 277.301369 
L 350.367743 275.094647 
L 350.570779 280.496571 
L 350.976851 279.983628 
L 351.179887 274.326525 
L 351.382923 278.866114 
L 351.585959 277.625269 
L 351.788995 278.60867 
L 351.992031 277.996603 
L 352.195067 281.573333 
L 352.398103 272.593596 
L 352.601139 275.898783 
L 352.804175 263.281797 
L 353.007211 271.594097 
L 353.210247 265.615486 
L 353.413283 277.756286 
L 353.616319 276.029511 
L 353.819355 283.794173 
L 354.022391 271.336667 
L 354.225427 269.537123 
L 354.428463 279.347755 
L 354.631499 271.604136 
L 354.834535 279.873879 
L 355.037571 268.893703 
L 355.443643 276.987069 
L 355.646679 262.410244 
L 356.052751 279.898286 
L 356.255787 281.281845 
L 356.458823 281.171319 
L 356.661859 283.589035 
L 356.864895 262.905688 
L 357.067931 275.683865 
L 357.270967 279.350062 
L 357.474003 277.031095 
L 357.880075 285.250626 
L 358.083111 281.779602 
L 358.286147 274.22612 
L 358.489183 272.009071 
L 358.692219 276.236501 
L 358.895255 270.934587 
L 359.098291 270.770954 
L 359.301327 288.270008 
L 359.504363 286.962897 
L 359.707399 282.819661 
L 359.910435 285.543696 
L 360.113471 281.440555 
L 360.316507 281.195098 
L 360.519543 276.801161 
L 360.722579 269.65242 
L 361.128651 283.044703 
L 361.331687 287.968742 
L 361.737759 278.125083 
L 361.940795 278.026024 
L 362.143831 281.128432 
L 362.346867 276.454536 
L 362.549903 274.853893 
L 362.752939 281.392694 
L 362.955975 276.154906 
L 363.159011 279.10658 
L 363.362047 278.763503 
L 363.565083 268.44484 
L 363.768119 271.616126 
L 363.971155 281.429932 
L 364.377227 287.261 
L 364.580263 288.462659 
L 364.783299 287.484012 
L 364.986335 283.622036 
L 365.189371 284.561491 
L 365.392407 281.679787 
L 365.595443 274.945186 
L 365.798479 280.688424 
L 366.001515 279.624593 
L 366.204551 270.97333 
L 366.407587 284.891619 
L 366.610623 271.491726 
L 366.813659 277.804959 
L 367.016695 274.59711 
L 367.219731 281.059359 
L 367.422767 274.299102 
L 367.625802 277.357123 
L 367.828838 268.595596 
L 368.031874 276.80395 
L 368.23491 262.088354 
L 368.640982 275.152519 
L 368.844018 269.831286 
L 369.047054 270.2831 
L 369.25009 273.874111 
L 369.453126 269.43438 
L 369.656162 279.293767 
L 369.859198 267.763047 
L 370.062234 279.089342 
L 370.26527 279.392388 
L 370.468306 281.130093 
L 370.671342 289.188064 
L 370.874378 270.054119 
L 371.077414 283.348712 
L 371.28045 283.299163 
L 371.483486 288.687379 
L 371.686522 273.977243 
L 371.889558 270.519682 
L 372.092594 259.966149 
L 372.498666 279.647159 
L 372.701702 284.016529 
L 373.107774 276.767759 
L 373.31081 271.100899 
L 373.513846 284.73214 
L 373.716882 289.406275 
L 373.919918 272.922658 
L 374.122954 281.824554 
L 374.32599 277.625768 
L 374.529026 279.28382 
L 374.732062 277.45915 
L 374.935098 272.112965 
L 375.138134 279.703869 
L 375.34117 282.253263 
L 375.544206 272.604373 
L 375.747242 289.042771 
L 375.950278 277.901681 
L 376.153314 285.312857 
L 376.35635 275.110714 
L 376.559386 280.407214 
L 377.168494 287.845677 
L 377.37153 282.663916 
L 377.574566 288.552847 
L 377.777602 284.315798 
L 377.980638 260.911483 
L 378.183674 276.016439 
L 378.38671 276.340457 
L 378.589746 286.61932 
L 378.792782 263.950134 
L 378.995818 275.475355 
L 379.198854 276.147182 
L 379.40189 294.924228 
L 379.604926 286.292375 
L 379.807962 290.322822 
L 380.010998 286.071835 
L 380.214034 277.846178 
L 380.620106 280.868387 
L 381.026178 276.289153 
L 381.229214 279.420424 
L 381.635286 270.322411 
L 381.838322 284.026456 
L 382.041358 278.074167 
L 382.44743 281.509776 
L 382.650466 286.093602 
L 382.853502 269.78429 
L 383.259574 290.330609 
L 383.46261 285.760918 
L 383.665646 283.972116 
L 383.868682 278.408423 
L 384.071718 285.804565 
L 384.274754 287.173634 
L 384.47779 287.052027 
L 384.680826 272.699357 
L 384.883862 273.179897 
L 385.086897 286.236881 
L 385.289933 285.396304 
L 385.492969 282.068557 
L 385.696005 273.929456 
L 385.899041 282.049573 
L 386.305113 273.527428 
L 386.711185 284.641384 
L 386.914221 289.139259 
L 387.117257 282.419846 
L 387.320293 287.060881 
L 387.523329 270.155408 
L 387.726365 290.543157 
L 387.929401 285.550115 
L 388.132437 291.760636 
L 388.335473 276.104252 
L 388.741545 288.638001 
L 388.944581 281.068947 
L 389.147617 287.526929 
L 389.350653 283.588515 
L 389.553689 276.589765 
L 389.756725 284.494586 
L 389.959761 281.20359 
L 390.162797 273.882044 
L 390.365833 280.9981 
L 390.568869 272.627517 
L 390.771905 259.391858 
L 390.974941 283.001429 
L 391.177977 269.913435 
L 391.381013 267.384903 
L 391.584049 267.856594 
L 391.787085 283.361162 
L 391.990121 278.014114 
L 392.193157 291.377768 
L 392.396193 277.84294 
L 392.599229 281.278102 
L 393.005301 276.179146 
L 393.208337 275.772887 
L 393.411373 284.157701 
L 393.614409 265.146437 
L 393.817445 288.887728 
L 394.223517 273.179157 
L 394.426553 283.030988 
L 394.629589 282.979937 
L 394.832625 283.134551 
L 395.035661 282.407591 
L 395.238697 273.07638 
L 395.441733 277.725736 
L 395.644769 286.566298 
L 395.847805 284.610526 
L 396.050841 287.088467 
L 396.253877 285.781225 
L 396.456913 277.224583 
L 396.862985 288.832995 
L 397.269057 276.898528 
L 397.472093 295.488 
L 397.675129 289.201805 
L 397.878165 269.388209 
L 398.081201 275.308189 
L 398.284237 266.558713 
L 398.487273 277.010134 
L 398.487273 277.010134 
" style="fill:none;stroke:#1f77b4;stroke-linecap:square;stroke-width:1.5;"/>
   </g>
   <g id="line2d_20">
    <path clip-path="url(#pf8a881bf26)" d="M 73.832727 116.710842 
L 74.035763 79.059255 
L 74.238799 90.700279 
L 74.441835 119.662128 
L 74.644871 122.197938 
L 74.847907 94.618962 
L 75.050943 106.513896 
L 75.253979 77.62701 
L 75.457015 94.670422 
L 75.660051 84.295673 
L 76.066123 112.605475 
L 76.269159 106.319949 
L 76.472195 85.063547 
L 76.675231 78.445155 
L 76.878267 93.412343 
L 77.081303 153.432492 
L 77.284339 113.3868 
L 77.487375 119.450487 
L 77.893447 76.14069 
L 78.096483 105.790952 
L 78.299519 86.001424 
L 78.502555 102.399154 
L 78.705591 103.977871 
L 78.908627 101.454358 
L 79.111663 82.693607 
L 79.517735 113.121738 
L 79.720771 101.950598 
L 79.923807 108.24986 
L 80.126843 86.95366 
L 80.532915 128.225849 
L 80.735951 120.472626 
L 80.938987 78.191315 
L 81.142023 88.383388 
L 81.345059 85.274263 
L 81.548095 79.889884 
L 81.751131 116.707866 
L 81.954167 114.412708 
L 82.157203 128.281244 
L 82.360239 114.137895 
L 82.766311 62.486936 
L 83.172383 93.800825 
L 83.578455 98.380901 
L 83.781491 90.390403 
L 83.984527 93.101298 
L 84.187563 109.834811 
L 84.390599 98.628878 
L 84.593635 63.303815 
L 84.796671 91.651743 
L 84.999707 73.721482 
L 85.202743 101.91788 
L 85.405779 82.223089 
L 85.608815 99.273761 
L 85.811851 97.374357 
L 86.014887 97.861662 
L 86.217923 118.426149 
L 86.623995 102.105886 
L 86.827031 115.420441 
L 87.030067 74.038186 
L 87.233103 105.984021 
L 87.436138 73.718392 
L 87.639174 79.603908 
L 87.84221 97.951292 
L 88.045246 92.652676 
L 88.248282 128.932609 
L 88.654354 79.894944 
L 88.85739 107.467482 
L 89.060426 81.624731 
L 89.263462 116.923322 
L 89.466498 101.277601 
L 89.669534 128.784917 
L 90.075606 73.7445 
L 90.278642 113.632779 
L 90.481678 102.426788 
L 90.684714 115.322055 
L 91.090786 87.909762 
L 91.293822 120.586797 
L 91.699894 78.00799 
L 91.90293 98.769912 
L 92.105966 101.856629 
L 92.512038 130.01893 
L 92.715074 96.535623 
L 92.91811 88.868967 
L 93.121146 96.923152 
L 93.730254 63.251065 
L 93.93329 94.555789 
L 94.136326 106.377354 
L 94.339362 81.047974 
L 94.542398 93.076894 
L 94.745434 87.841254 
L 94.94847 127.597227 
L 95.354542 87.009663 
L 95.557578 112.48462 
L 95.760614 93.553238 
L 96.166686 126.348244 
L 96.572758 65.760968 
L 96.775794 105.44381 
L 97.181866 111.981872 
L 97.587938 65.169326 
L 97.790974 97.666782 
L 97.99401 60.810479 
L 98.197046 72.757726 
L 98.400082 96.578404 
L 98.603118 105.349117 
L 98.806154 92.318759 
L 99.00919 96.638149 
L 99.212226 110.402547 
L 99.415262 93.590931 
L 99.618298 117.033427 
L 99.821334 89.085236 
L 100.02437 119.790495 
L 100.227406 86.88695 
L 100.430442 111.89334 
L 100.633478 108.902607 
L 100.836514 102.916243 
L 101.03955 81.922296 
L 101.242586 98.226579 
L 101.445622 70.834573 
L 101.648658 84.578191 
L 101.851694 123.963688 
L 102.05473 116.239708 
L 102.257766 91.940953 
L 102.460802 101.530688 
L 102.663838 126.922801 
L 102.866874 107.949296 
L 103.06991 103.647519 
L 103.272946 94.761769 
L 103.475982 68.860043 
L 103.679018 115.431338 
L 103.882054 74.579944 
L 104.08509 107.026123 
L 104.288126 73.926595 
L 104.491162 75.395594 
L 104.694198 78.95977 
L 105.100269 120.076718 
L 105.303305 99.622782 
L 105.506341 102.051418 
L 105.709377 84.750038 
L 105.912413 123.471305 
L 106.115449 97.384118 
L 106.318485 136.039159 
L 106.724557 96.798653 
L 106.927593 100.177555 
L 107.130629 107.009271 
L 107.333665 93.08123 
L 107.536701 109.071226 
L 107.739737 86.429329 
L 107.942773 89.116473 
L 108.145809 104.618131 
L 108.348845 83.584046 
L 108.754917 130.497046 
L 108.957953 102.924829 
L 109.160989 99.63618 
L 109.364025 118.903546 
L 109.770097 74.748133 
L 109.973133 77.176197 
L 110.176169 121.398687 
L 110.379205 111.561928 
L 110.582241 107.396586 
L 110.988313 114.846099 
L 111.191349 128.514215 
L 111.394385 100.23342 
L 111.597421 111.632055 
L 111.800457 92.189602 
L 112.003493 118.390175 
L 112.206529 124.074752 
L 112.409565 108.630794 
L 112.612601 140.074886 
L 112.815637 105.9897 
L 113.221709 123.631279 
L 113.424745 94.360701 
L 113.830817 125.176589 
L 114.033853 105.886084 
L 114.236889 129.591833 
L 114.439925 111.104577 
L 114.642961 136.31697 
L 114.845997 118.624377 
L 115.049033 126.889572 
L 115.455105 103.995638 
L 115.658141 117.482743 
L 115.861177 120.008389 
L 116.064213 116.615706 
L 116.267249 118.804038 
L 116.470285 129.058636 
L 116.876357 115.690607 
L 117.079393 143.02827 
L 117.282429 87.999385 
L 117.485465 134.254862 
L 117.688501 111.016121 
L 117.891537 116.33773 
L 118.094573 117.905887 
L 118.297609 112.056609 
L 118.500645 148.287804 
L 118.703681 116.431911 
L 118.906717 131.244118 
L 119.109753 159.243095 
L 119.515825 110.924962 
L 119.718861 139.320108 
L 119.921897 130.101127 
L 120.124933 128.358345 
L 120.327969 122.271812 
L 120.531005 122.186583 
L 120.734041 113.194619 
L 120.937077 136.495089 
L 121.546185 155.071793 
L 121.749221 126.120422 
L 121.952257 128.637906 
L 122.155293 132.818091 
L 122.358329 131.36075 
L 122.561364 151.573615 
L 122.7644 151.454942 
L 122.967436 142.884638 
L 123.170472 163.45523 
L 123.373508 120.04965 
L 123.576544 129.687952 
L 123.77958 128.658127 
L 123.982616 137.833709 
L 124.185652 118.006468 
L 124.388688 143.180045 
L 124.591724 147.807715 
L 124.79476 146.336239 
L 125.200832 110.401256 
L 125.80994 157.320406 
L 126.012976 121.655252 
L 126.216012 166.452974 
L 126.419048 133.671841 
L 126.622084 134.046944 
L 127.028156 114.385627 
L 127.231192 140.471894 
L 127.434228 144.920816 
L 127.637264 161.014708 
L 127.8403 144.972847 
L 128.043336 175.404425 
L 128.246372 141.363427 
L 128.449408 148.108086 
L 128.652444 130.711571 
L 128.85548 145.606997 
L 129.058516 132.943708 
L 129.261552 160.772793 
L 129.464588 142.845708 
L 129.667624 135.138126 
L 129.87066 158.194709 
L 130.073696 150.774395 
L 130.276732 158.804689 
L 130.479768 148.023368 
L 130.682804 146.202802 
L 130.88584 155.628323 
L 131.291912 144.838427 
L 131.494948 140.202504 
L 131.90102 147.897852 
L 132.104056 132.646935 
L 132.307092 144.727058 
L 132.510128 145.961377 
L 132.713164 154.282159 
L 132.9162 148.398777 
L 133.119236 155.150036 
L 133.322272 155.689167 
L 133.525308 151.620907 
L 133.728344 151.961403 
L 134.134416 138.512759 
L 134.337452 148.231385 
L 134.540488 133.339086 
L 134.743524 170.667122 
L 134.94656 149.441486 
L 135.149596 159.965541 
L 135.352632 141.142223 
L 135.758704 158.261517 
L 135.96174 148.853283 
L 136.164776 152.984797 
L 136.367812 143.326049 
L 136.570848 160.122753 
L 136.773884 142.386229 
L 136.97692 157.911581 
L 137.179956 137.228474 
L 137.382992 130.316457 
L 137.789064 157.667588 
L 137.9921 143.896921 
L 138.398172 150.40612 
L 138.601208 147.171674 
L 138.804244 133.100301 
L 139.00728 133.657667 
L 139.210316 149.555063 
L 139.413352 125.067492 
L 139.616388 159.680847 
L 139.819424 171.972442 
L 140.225495 138.21298 
L 140.428531 136.559099 
L 140.631567 146.880213 
L 140.834603 148.217305 
L 141.037639 144.927287 
L 141.240675 148.735191 
L 141.443711 147.254532 
L 141.646747 154.376326 
L 141.849783 165.438374 
L 142.052819 146.717397 
L 142.255855 149.943411 
L 142.458891 158.23803 
L 142.661927 144.730142 
L 142.864963 141.247504 
L 143.067999 146.434563 
L 143.271035 166.177095 
L 143.474071 160.440891 
L 143.677107 177.286239 
L 143.880143 146.941681 
L 144.286215 176.231101 
L 144.489251 165.025692 
L 144.692287 145.232774 
L 144.895323 154.901883 
L 145.098359 151.490421 
L 145.301395 155.437846 
L 145.504431 156.81841 
L 145.910503 130.657187 
L 146.113539 152.422986 
L 146.316575 151.024593 
L 146.519611 164.935172 
L 146.722647 157.362046 
L 146.925683 114.337402 
L 147.128719 171.804702 
L 147.534791 163.275587 
L 147.737827 175.848259 
L 147.940863 168.610585 
L 148.143899 150.614287 
L 148.346935 182.522923 
L 148.549971 160.050085 
L 148.753007 155.169115 
L 148.956043 156.165223 
L 149.159079 193.320497 
L 149.565151 148.116495 
L 149.768187 149.881433 
L 150.174259 172.924293 
L 150.377295 152.056698 
L 150.783367 172.314454 
L 150.986403 176.178733 
L 151.189439 163.222296 
L 151.392475 165.63626 
L 151.595511 155.687449 
L 151.798547 162.327082 
L 152.001583 156.835124 
L 152.204619 155.680967 
L 152.407655 148.277501 
L 152.610691 147.517536 
L 152.813727 161.578086 
L 153.016763 149.379791 
L 153.219799 182.906311 
L 153.422835 152.564558 
L 153.625871 149.907676 
L 154.031943 172.441328 
L 154.234979 156.532198 
L 154.438015 165.606598 
L 154.641051 155.214693 
L 154.844087 156.945574 
L 155.047123 151.397272 
L 155.250159 159.027496 
L 155.453195 161.038143 
L 155.656231 140.821519 
L 156.062303 169.473134 
L 156.468375 152.25161 
L 156.671411 149.256342 
L 156.874447 157.663842 
L 157.077483 171.627666 
L 157.280519 168.94552 
L 157.483554 158.932935 
L 157.68659 163.874531 
L 157.889626 142.149128 
L 158.092662 170.462942 
L 158.498734 151.479052 
L 158.70177 150.075555 
L 158.904806 161.572135 
L 159.107842 162.741466 
L 159.310878 174.056 
L 159.71695 181.998936 
L 160.123022 150.215348 
L 160.326058 167.866031 
L 160.529094 151.527943 
L 160.73213 178.950725 
L 161.138202 148.063769 
L 161.341238 153.957603 
L 161.544274 149.16944 
L 161.74731 172.133177 
L 161.950346 160.033779 
L 162.153382 173.855757 
L 162.559454 147.598619 
L 162.76249 182.575052 
L 162.965526 173.012116 
L 163.168562 168.934917 
L 163.371598 176.758433 
L 163.574634 169.150083 
L 163.77767 166.450452 
L 163.980706 160.128146 
L 164.183742 176.254421 
L 164.589814 155.25395 
L 164.79285 171.139913 
L 164.995886 172.651355 
L 165.198922 158.068421 
L 165.401958 168.438418 
L 165.604994 170.761297 
L 166.011066 144.016699 
L 166.214102 148.415326 
L 166.620174 172.098531 
L 166.82321 145.921536 
L 167.026246 172.298353 
L 167.229282 169.551661 
L 167.432318 170.480423 
L 167.635354 164.379475 
L 167.83839 145.636092 
L 168.041426 160.46674 
L 168.244462 144.575348 
L 168.447498 170.877608 
L 168.650534 165.184184 
L 168.85357 183.658552 
L 169.056606 172.813686 
L 169.259642 170.005721 
L 169.462678 159.760377 
L 169.665714 157.735354 
L 169.86875 146.970646 
L 170.071786 184.886966 
L 170.274822 195.591712 
L 170.477858 158.397058 
L 170.88393 165.712505 
L 171.086966 170.494989 
L 171.290002 144.202799 
L 171.493038 153.668924 
L 171.696074 155.842818 
L 171.89911 175.368961 
L 172.102146 176.398462 
L 172.305182 182.120058 
L 172.508218 178.525833 
L 172.711254 152.568952 
L 172.91429 167.512152 
L 173.117326 162.141595 
L 173.320362 160.991122 
L 173.523398 166.287579 
L 173.726434 164.377058 
L 173.92947 160.211424 
L 174.132506 177.710168 
L 174.335542 155.372108 
L 174.538578 176.505214 
L 174.741614 159.857988 
L 174.944649 176.780358 
L 175.147685 180.653045 
L 175.350721 168.795873 
L 175.553757 172.85765 
L 175.756793 171.228967 
L 175.959829 162.312978 
L 176.162865 176.799227 
L 176.365901 174.35955 
L 176.568937 179.964684 
L 176.975009 156.514725 
L 177.178045 157.728352 
L 177.381081 169.631414 
L 177.584117 150.110275 
L 177.787153 168.830647 
L 177.990189 174.562929 
L 178.193225 169.579619 
L 178.396261 183.186131 
L 178.599297 160.298638 
L 178.802333 166.774491 
L 179.005369 169.323918 
L 179.208405 177.217715 
L 179.411441 179.951086 
L 179.817513 174.371225 
L 180.020549 187.505155 
L 180.223585 176.614785 
L 180.426621 154.625639 
L 180.832693 182.446699 
L 181.035729 155.775181 
L 181.238765 160.798913 
L 181.441801 175.278329 
L 181.644837 158.245187 
L 181.847873 185.800038 
L 182.050909 158.797757 
L 182.253945 173.593234 
L 182.456981 170.42453 
L 182.660017 170.488998 
L 182.863053 179.857844 
L 183.066089 170.874227 
L 183.269125 173.859536 
L 183.472161 155.255634 
L 183.675197 175.582929 
L 183.878233 175.081164 
L 184.081269 170.340015 
L 184.284305 172.185822 
L 184.487341 165.86182 
L 184.690377 176.668951 
L 184.893413 180.298672 
L 185.096449 148.855748 
L 185.299485 168.913273 
L 185.502521 170.517228 
L 185.705557 166.440682 
L 185.908593 177.071236 
L 186.111629 151.948166 
L 186.314665 168.348553 
L 186.517701 156.238811 
L 186.720737 170.64532 
L 186.923773 169.689875 
L 187.126809 165.06076 
L 187.329845 181.098022 
L 187.532881 161.670275 
L 187.735917 170.768134 
L 187.938953 170.369673 
L 188.141989 185.316657 
L 188.345025 157.197596 
L 188.751097 187.516338 
L 188.954133 136.341578 
L 189.157169 187.643395 
L 189.360205 189.448601 
L 189.563241 160.293856 
L 189.766277 185.548226 
L 189.969313 189.712758 
L 190.172349 165.153005 
L 190.375385 163.114049 
L 190.578421 164.657921 
L 190.781457 192.445375 
L 190.984493 168.762248 
L 191.187529 160.584938 
L 191.390565 182.750068 
L 191.593601 159.631854 
L 191.796637 176.895288 
L 191.999673 160.747736 
L 192.202709 163.871731 
L 192.405744 151.076233 
L 192.60878 163.861442 
L 192.811816 158.280785 
L 193.217888 197.086775 
L 193.420924 184.891358 
L 193.62396 158.452677 
L 193.826996 177.803906 
L 194.030032 156.677552 
L 194.233068 174.933206 
L 194.436104 172.660062 
L 194.63914 163.85695 
L 195.045212 170.653086 
L 195.248248 184.903828 
L 195.451284 164.80293 
L 195.65432 176.426141 
L 195.857356 153.620897 
L 196.060392 173.412021 
L 196.263428 170.62009 
L 196.466464 181.255224 
L 196.872536 184.761245 
L 197.481644 169.295866 
L 197.68468 174.277554 
L 197.887716 174.020944 
L 198.090752 157.474029 
L 198.293788 166.569266 
L 198.496824 165.967 
L 198.69986 188.14822 
L 198.902896 165.221091 
L 199.105932 175.600735 
L 199.308968 174.052552 
L 199.512004 159.194137 
L 199.71504 156.22643 
L 199.918076 176.759671 
L 200.121112 169.800954 
L 200.324148 177.699778 
L 200.527184 178.245161 
L 200.73022 179.921419 
L 200.933256 182.873051 
L 201.136292 189.576002 
L 201.339328 176.923102 
L 201.542364 173.923134 
L 201.7454 185.122839 
L 201.948436 164.811203 
L 202.354508 189.3213 
L 202.557544 184.935408 
L 202.76058 176.484704 
L 202.963616 187.465908 
L 203.166652 163.993723 
L 203.369688 181.165273 
L 203.572724 176.663946 
L 203.978796 172.831197 
L 204.181832 172.397528 
L 204.384868 164.666249 
L 204.587904 181.597268 
L 204.79094 159.22425 
L 204.993976 163.959227 
L 205.197012 184.995501 
L 205.400048 168.457577 
L 205.603084 197.553848 
L 205.80612 168.176861 
L 206.009156 184.428173 
L 206.212192 169.762526 
L 206.415228 188.864196 
L 206.618264 158.481679 
L 206.8213 160.158598 
L 207.024336 182.453134 
L 207.227372 175.332151 
L 207.430408 179.854977 
L 207.633444 175.038944 
L 207.83648 164.442163 
L 208.039516 161.167337 
L 208.242552 167.242753 
L 208.445588 149.456754 
L 208.648624 182.570137 
L 209.257732 155.98511 
L 209.460768 198.62485 
L 209.663804 173.154189 
L 209.86684 196.528676 
L 210.069875 193.234585 
L 210.272911 168.723838 
L 210.475947 172.869953 
L 210.882019 188.672745 
L 211.085055 176.655368 
L 211.288091 173.736726 
L 211.491127 167.807117 
L 211.694163 194.770154 
L 211.897199 170.364732 
L 212.100235 195.578366 
L 212.303271 168.165434 
L 212.709343 196.193689 
L 212.912379 190.86078 
L 213.115415 171.271602 
L 213.318451 193.344835 
L 213.521487 174.302947 
L 213.724523 190.260948 
L 213.927559 190.25313 
L 214.130595 189.858764 
L 214.333631 159.857294 
L 214.536667 150.020697 
L 214.739703 191.7941 
L 214.942739 163.873715 
L 215.145775 173.902545 
L 215.348811 176.352747 
L 215.551847 173.903001 
L 215.754883 177.458983 
L 215.957919 175.31326 
L 216.160955 161.089413 
L 216.363991 156.695238 
L 216.567027 182.156339 
L 216.973099 175.080357 
L 217.176135 183.867357 
L 217.582207 156.147684 
L 217.785243 201.745399 
L 217.988279 160.405453 
L 218.191315 179.082086 
L 218.394351 162.455293 
L 218.597387 177.735467 
L 219.003459 151.532587 
L 219.206495 172.004604 
L 219.409531 170.761093 
L 219.612567 180.29819 
L 219.815603 181.605972 
L 220.018639 169.459463 
L 220.221675 173.285978 
L 220.424711 161.348421 
L 220.627747 181.663964 
L 220.830783 162.155017 
L 221.033819 157.135812 
L 221.236855 164.935345 
L 221.439891 187.945226 
L 221.642927 188.155069 
L 222.048999 156.863181 
L 222.252035 174.683714 
L 222.658107 171.809737 
L 222.861143 161.078302 
L 223.064179 166.427209 
L 223.267215 190.271213 
L 223.470251 176.93229 
L 223.673287 178.400521 
L 223.876323 166.579443 
L 224.079359 189.149576 
L 224.282395 184.329989 
L 224.485431 183.7582 
L 224.688467 168.00089 
L 224.891503 185.118944 
L 225.094539 169.890163 
L 225.297575 178.18982 
L 225.500611 156.061454 
L 225.906683 189.893821 
L 226.109719 204.160948 
L 226.312755 206.974013 
L 226.515791 170.129487 
L 226.718827 170.757954 
L 226.921863 170.603237 
L 227.124899 167.56996 
L 227.327935 191.38183 
L 227.53097 195.401469 
L 227.734006 185.393889 
L 227.937042 181.753883 
L 228.140078 175.755895 
L 228.343114 161.644229 
L 228.749186 189.266694 
L 229.155258 158.770434 
L 229.358294 164.518588 
L 229.56133 192.186693 
L 229.764366 180.786115 
L 229.967402 191.423541 
L 230.170438 182.66323 
L 230.373474 206.217519 
L 230.57651 175.757114 
L 230.779546 181.806033 
L 231.185618 176.024716 
L 231.388654 199.938634 
L 231.59169 182.266817 
L 231.794726 180.279004 
L 231.997762 160.434989 
L 232.200798 161.95586 
L 232.403834 186.629286 
L 232.60687 169.518319 
L 232.809906 175.601583 
L 233.012942 167.209489 
L 233.215978 164.652945 
L 233.419014 177.58647 
L 233.62205 174.226421 
L 233.825086 202.82101 
L 234.028122 173.443903 
L 234.231158 191.660195 
L 234.434194 179.944904 
L 234.63723 155.56314 
L 234.840266 162.315125 
L 235.043302 186.92272 
L 235.246338 194.402381 
L 235.65241 168.113945 
L 235.855446 194.487222 
L 236.261518 158.984881 
L 236.464554 175.676143 
L 236.66759 152.967121 
L 236.870626 175.380723 
L 237.073662 168.204524 
L 237.276698 205.21929 
L 237.479734 184.663942 
L 237.68277 181.174118 
L 237.885806 166.854637 
L 238.088842 174.022495 
L 238.291878 187.265768 
L 238.494914 192.408644 
L 238.69795 192.495626 
L 238.900986 165.060903 
L 239.104022 166.497703 
L 239.510094 185.369916 
L 239.71313 169.328233 
L 239.916166 178.152056 
L 240.119202 176.28137 
L 240.525274 186.139073 
L 240.72831 160.899335 
L 241.134382 185.971985 
L 241.337418 181.725225 
L 241.540454 162.188114 
L 241.946526 186.603007 
L 242.149562 147.525861 
L 242.352598 166.475751 
L 242.555634 166.577756 
L 242.75867 172.531595 
L 242.961706 183.122187 
L 243.164742 172.10831 
L 243.570814 199.307461 
L 243.77385 165.139885 
L 243.976886 168.077375 
L 244.179922 174.655164 
L 244.382958 170.704513 
L 244.585994 173.430332 
L 244.78903 159.381224 
L 244.992065 184.675657 
L 245.398137 181.721678 
L 245.601173 176.49105 
L 245.804209 180.592732 
L 246.210281 169.670188 
L 246.413317 158.344649 
L 246.616353 159.105146 
L 246.819389 154.922243 
L 247.225461 191.016266 
L 247.428497 169.006962 
L 247.631533 162.590345 
L 247.834569 180.53703 
L 248.037605 163.107458 
L 248.240641 177.876916 
L 248.646713 166.881982 
L 248.849749 170.336776 
L 249.052785 179.916164 
L 249.255821 175.352724 
L 249.661893 195.776319 
L 249.864929 160.764315 
L 250.067965 189.556046 
L 250.271001 188.486058 
L 250.474037 174.167222 
L 250.677073 187.212724 
L 250.880109 154.772803 
L 251.083145 189.917874 
L 251.286181 181.236438 
L 251.489217 196.914201 
L 251.895289 146.248234 
L 252.098325 181.621284 
L 252.301361 169.616952 
L 252.504397 185.795514 
L 252.707433 158.530701 
L 252.910469 157.301774 
L 253.113505 189.358284 
L 253.316541 182.542865 
L 253.519577 180.175986 
L 253.722613 182.247069 
L 254.128685 161.490739 
L 254.331721 179.580961 
L 254.534757 154.16417 
L 254.737793 171.27712 
L 254.940829 174.784265 
L 255.143865 155.996019 
L 255.346901 180.333443 
L 255.549937 168.13807 
L 255.752973 192.061171 
L 255.956009 157.325968 
L 256.159045 181.983286 
L 256.362081 166.566859 
L 256.768153 172.048493 
L 256.971189 183.116318 
L 257.174225 184.477766 
L 257.377261 165.167618 
L 257.580297 177.959926 
L 257.783333 170.526749 
L 257.986369 189.748038 
L 258.189405 175.06259 
L 258.392441 176.948426 
L 258.595477 194.038425 
L 259.001549 162.357941 
L 259.204585 182.891768 
L 259.407621 162.496066 
L 259.813693 171.060233 
L 260.016729 169.199364 
L 260.219765 187.262375 
L 260.422801 178.809526 
L 260.625837 176.859002 
L 261.031909 156.347517 
L 261.234945 176.405899 
L 261.437981 176.816501 
L 261.641017 180.778995 
L 261.844053 167.966778 
L 262.047089 166.420132 
L 262.250125 155.028997 
L 262.859232 190.555128 
L 263.062268 168.764817 
L 263.265304 181.352822 
L 263.46834 181.607581 
L 263.671376 190.006177 
L 264.280484 155.492813 
L 264.48352 173.108322 
L 264.686556 161.650917 
L 264.889592 163.193983 
L 265.092628 178.217895 
L 265.295664 174.586341 
L 265.701736 203.520485 
L 265.904772 180.118856 
L 266.107808 187.825565 
L 266.310844 180.918138 
L 266.51388 190.176392 
L 266.716916 188.255344 
L 267.122988 170.01311 
L 267.326024 163.90377 
L 267.52906 162.940129 
L 267.732096 170.782047 
L 267.935132 160.465823 
L 268.138168 170.784506 
L 268.341204 161.20074 
L 268.54424 193.853405 
L 268.747276 170.095955 
L 268.950312 177.655237 
L 269.153348 132.893793 
L 269.55942 189.26758 
L 269.965492 167.625941 
L 270.168528 179.069203 
L 270.371564 161.224994 
L 270.5746 155.039523 
L 270.777636 176.53779 
L 270.980672 156.066563 
L 271.386744 192.656143 
L 271.58978 165.297539 
L 271.792816 157.019341 
L 272.198888 173.396337 
L 272.401924 161.441699 
L 272.60496 189.468333 
L 273.011032 151.593494 
L 273.214068 193.279523 
L 273.417104 158.308265 
L 273.62014 178.26168 
L 273.823176 161.887695 
L 274.229248 197.560864 
L 274.432284 163.55025 
L 274.63532 186.644858 
L 274.838356 184.898249 
L 275.244428 150.624961 
L 275.6505 190.887728 
L 275.853536 180.966572 
L 276.056572 156.432088 
L 276.259608 176.898795 
L 276.462644 176.095604 
L 276.66568 179.994832 
L 276.868716 167.536361 
L 277.071752 191.219676 
L 277.274788 189.875898 
L 277.477824 203.557913 
L 277.68086 170.608477 
L 277.883896 167.514769 
L 278.086932 184.179232 
L 278.289968 171.50753 
L 278.493004 178.192989 
L 278.69604 137.256194 
L 278.899076 177.577611 
L 279.102112 162.123191 
L 279.305148 182.964451 
L 279.508184 158.16202 
L 279.71122 172.159202 
L 279.914256 174.341623 
L 280.117291 172.101975 
L 280.320327 164.069814 
L 280.523363 181.138447 
L 280.726399 172.24779 
L 280.929435 168.889171 
L 281.132471 162.064464 
L 281.335507 177.583858 
L 281.538543 176.034255 
L 281.741579 191.802869 
L 281.944615 190.325252 
L 282.350687 157.178685 
L 282.553723 156.86414 
L 282.756759 148.816879 
L 282.959795 159.620891 
L 283.365867 153.759742 
L 283.568903 184.031249 
L 283.771939 187.049456 
L 283.974975 195.602337 
L 284.178011 191.061438 
L 284.381047 171.174655 
L 284.584083 173.067488 
L 284.787119 179.186504 
L 284.990155 167.246495 
L 285.193191 163.388897 
L 285.599263 169.850878 
L 285.802299 191.833354 
L 286.208371 154.398769 
L 286.614443 170.711127 
L 286.817479 154.282523 
L 287.020515 188.528419 
L 287.223551 155.689853 
L 287.629623 165.345944 
L 287.832659 157.708214 
L 288.035695 160.301665 
L 288.238731 171.206358 
L 288.441767 159.547873 
L 288.644803 176.116298 
L 288.847839 161.956553 
L 289.050875 174.234881 
L 289.253911 163.426126 
L 289.456947 169.612322 
L 289.659983 158.050614 
L 289.863019 164.927167 
L 290.066055 159.596263 
L 290.269091 168.134279 
L 290.472127 171.279799 
L 290.675163 150.764031 
L 291.081235 168.341367 
L 291.284271 167.016067 
L 291.487307 160.477463 
L 292.096415 203.917658 
L 292.502487 155.799784 
L 292.705523 166.924388 
L 292.908559 186.683429 
L 293.111595 157.132915 
L 293.314631 180.728263 
L 293.517667 171.524545 
L 293.720703 167.869072 
L 293.923739 179.979792 
L 294.126775 171.121266 
L 294.532847 184.862394 
L 294.735883 161.876415 
L 294.938919 166.315003 
L 295.141955 188.372542 
L 295.548027 151.762604 
L 295.751063 178.996558 
L 295.954099 179.629781 
L 296.157135 190.982374 
L 296.360171 165.810687 
L 296.563207 211.380859 
L 296.766243 166.801543 
L 296.969279 176.926332 
L 297.375351 156.918695 
L 297.578386 177.015847 
L 297.781422 165.799256 
L 297.984458 176.285561 
L 298.187494 152.454313 
L 298.39053 166.652517 
L 298.593566 171.511881 
L 298.796602 171.130398 
L 298.999638 180.175122 
L 299.202674 183.820172 
L 299.608746 148.91752 
L 299.811782 175.452894 
L 300.014818 158.705332 
L 300.217854 179.090252 
L 300.42089 145.315051 
L 300.623926 151.664322 
L 300.826962 177.065653 
L 301.029998 176.784722 
L 301.233034 137.755824 
L 301.43607 186.56018 
L 301.639106 164.439788 
L 301.842142 166.981394 
L 302.045178 165.983455 
L 302.248214 158.743801 
L 302.45125 165.008764 
L 302.654286 175.900045 
L 302.857322 168.613026 
L 303.060358 166.688455 
L 303.263394 203.088895 
L 303.46643 167.568776 
L 303.669466 152.640534 
L 303.872502 155.530009 
L 304.075538 130.453451 
L 304.278574 176.926003 
L 304.48161 144.420931 
L 304.684646 167.939401 
L 304.887682 150.052881 
L 305.293754 157.407462 
L 305.49679 144.936609 
L 305.699826 153.437151 
L 305.902862 169.343805 
L 306.105898 166.363801 
L 306.308934 160.252806 
L 306.51197 178.03198 
L 306.715006 168.097793 
L 306.918042 165.630072 
L 307.324114 140.786877 
L 307.52715 184.140226 
L 307.730186 153.319697 
L 307.933222 155.543126 
L 308.136258 145.495028 
L 308.339294 177.224383 
L 308.54233 185.203649 
L 308.745366 172.53192 
L 308.948402 167.340346 
L 309.151438 158.802268 
L 309.354474 166.928247 
L 309.55751 149.124475 
L 309.963582 160.471509 
L 310.166618 145.037874 
L 310.57269 189.251661 
L 310.775726 175.075951 
L 310.978762 150.604479 
L 311.181798 149.782164 
L 311.384834 186.066259 
L 311.993942 145.078689 
L 312.196978 152.508499 
L 312.400014 153.714142 
L 312.60305 157.030895 
L 312.806086 138.00212 
L 313.009122 148.972187 
L 313.212158 179.504366 
L 313.415194 182.814403 
L 314.024302 155.586754 
L 314.227338 203.090414 
L 314.63341 189.5325 
L 314.836446 166.408662 
L 315.039481 179.277735 
L 315.242517 173.62419 
L 315.445553 172.230776 
L 315.648589 154.15456 
L 315.851625 174.434644 
L 316.054661 213.730902 
L 316.257697 186.056028 
L 316.460733 184.272534 
L 316.663769 139.249178 
L 316.866805 172.853471 
L 317.069841 151.349075 
L 317.272877 184.083729 
L 317.475913 175.337997 
L 317.678949 199.14303 
L 317.881985 173.474966 
L 318.085021 181.099776 
L 318.288057 183.41101 
L 318.491093 163.264603 
L 318.694129 154.719405 
L 318.897165 173.462754 
L 319.100201 177.032298 
L 319.303237 160.147217 
L 319.506273 171.470934 
L 319.709309 172.536859 
L 319.912345 143.105273 
L 320.318417 170.208061 
L 320.521453 134.954961 
L 320.724489 161.652938 
L 321.130561 156.52332 
L 321.333597 164.125351 
L 321.536633 201.624744 
L 321.942705 162.135803 
L 322.145741 159.580191 
L 322.348777 172.342012 
L 322.551813 157.43874 
L 322.754849 159.640856 
L 322.957885 151.705425 
L 323.160921 177.20596 
L 323.363957 159.293639 
L 323.566993 159.606711 
L 323.770029 172.630397 
L 323.973065 169.645939 
L 324.176101 175.433138 
L 324.379137 171.73477 
L 324.582173 162.693153 
L 324.785209 177.506518 
L 324.988245 143.293794 
L 325.191281 157.305382 
L 325.394317 137.357063 
L 325.597353 140.054392 
L 325.800389 109.204613 
L 326.003425 200.755951 
L 326.206461 161.761314 
L 326.409497 156.592518 
L 327.018605 174.504359 
L 327.221641 156.632485 
L 327.424677 157.448913 
L 327.627713 174.952535 
L 328.033785 152.035124 
L 328.236821 150.349125 
L 328.439857 181.274554 
L 328.642893 157.329654 
L 328.845929 170.441111 
L 329.048965 149.068075 
L 329.252001 167.916622 
L 329.455037 171.811608 
L 329.658073 150.950397 
L 329.861109 179.993098 
L 330.064145 143.319267 
L 330.267181 173.348396 
L 330.470217 176.936645 
L 330.673253 164.730063 
L 330.876289 142.130127 
L 331.079325 166.476426 
L 331.282361 153.529494 
L 331.485397 157.91658 
L 331.688433 178.068593 
L 331.891469 161.475644 
L 332.094505 166.657217 
L 332.297541 175.879951 
L 332.500576 176.47367 
L 332.703612 132.674857 
L 332.906648 158.446462 
L 333.109684 152.248983 
L 333.31272 150.516136 
L 333.515756 198.963397 
L 333.718792 166.798495 
L 333.921828 167.444905 
L 334.124864 178.333419 
L 334.3279 160.15056 
L 334.530936 186.736267 
L 335.140044 156.833487 
L 335.34308 136.391947 
L 335.546116 166.348095 
L 335.749152 145.811176 
L 335.952188 155.948172 
L 336.155224 145.162496 
L 336.35826 177.952363 
L 336.561296 166.053898 
L 336.764332 135.967005 
L 336.967368 147.671128 
L 337.170404 148.695504 
L 337.37344 164.185428 
L 337.576476 149.646203 
L 337.779512 152.34175 
L 337.982548 133.342637 
L 338.185584 149.601615 
L 338.38862 145.195846 
L 338.591656 135.648966 
L 338.794692 161.49689 
L 338.997728 147.699641 
L 339.200764 172.337267 
L 339.4038 157.595885 
L 339.606836 154.173357 
L 339.809872 148.123872 
L 340.012908 176.912749 
L 340.215944 183.331494 
L 340.41898 161.897355 
L 340.622016 177.95481 
L 340.825052 153.531141 
L 341.028088 110.285818 
L 341.43416 179.395734 
L 341.637196 149.609889 
L 341.840232 170.78987 
L 342.043268 128.718442 
L 342.246304 129.577831 
L 342.44934 166.767668 
L 342.652376 142.607347 
L 343.058448 151.111857 
L 343.261484 186.832277 
L 343.46452 170.482366 
L 343.667556 177.086809 
L 343.870592 161.08589 
L 344.073628 172.962882 
L 344.276664 111.006239 
L 344.682736 174.076802 
L 344.885772 166.75173 
L 345.088808 154.167441 
L 345.291844 119.471261 
L 345.49488 141.43949 
L 345.697916 150.176323 
L 345.900952 174.176851 
L 346.103988 144.958895 
L 346.307024 145.658377 
L 346.916132 167.08218 
L 347.119168 147.596615 
L 347.322204 149.244059 
L 347.728276 129.616621 
L 347.931312 173.640358 
L 348.134348 176.87546 
L 348.337384 177.06918 
L 348.54042 163.647373 
L 348.743456 163.402397 
L 348.946492 148.428147 
L 349.149528 175.9633 
L 349.5556 152.040461 
L 349.758636 157.539303 
L 349.961671 155.33147 
L 350.164707 140.65399 
L 350.367743 162.178439 
L 350.570779 166.708285 
L 350.773815 150.184458 
L 350.976851 174.663284 
L 351.382923 143.975927 
L 351.585959 152.117194 
L 351.788995 175.793967 
L 351.992031 172.022148 
L 352.195067 156.891604 
L 352.398103 153.983267 
L 352.601139 174.599218 
L 353.007211 152.843054 
L 353.210247 172.273103 
L 353.413283 149.851249 
L 353.616319 157.93855 
L 353.819355 154.75505 
L 354.022391 165.276595 
L 354.225427 159.564472 
L 354.428463 176.974192 
L 354.631499 156.577368 
L 354.834535 151.272777 
L 355.037571 173.318643 
L 355.240607 140.78148 
L 355.443643 166.146695 
L 355.646679 166.269339 
L 355.849715 179.403503 
L 356.052751 167.818104 
L 356.255787 187.02643 
L 356.458823 172.862696 
L 356.661859 168.005528 
L 356.864895 153.874651 
L 357.270967 196.119776 
L 357.474003 155.233565 
L 357.677039 163.013282 
L 357.880075 158.032546 
L 358.083111 166.530618 
L 358.286147 142.985518 
L 358.692219 164.898109 
L 358.895255 192.2362 
L 359.098291 154.949815 
L 359.301327 165.41805 
L 359.504363 164.548758 
L 359.707399 166.677948 
L 359.910435 159.908832 
L 360.113471 167.169938 
L 360.316507 161.675928 
L 360.519543 161.605671 
L 360.722579 178.305917 
L 360.925615 159.949575 
L 361.128651 130.65062 
L 361.331687 181.988912 
L 361.534723 176.873296 
L 361.737759 148.149516 
L 361.940795 192.24802 
L 362.143831 119.394149 
L 362.346867 167.927973 
L 362.549903 145.980673 
L 362.752939 168.164216 
L 362.955975 136.574959 
L 363.362047 192.59226 
L 363.565083 161.635521 
L 363.971155 151.862669 
L 364.174191 143.077377 
L 364.377227 171.567618 
L 364.580263 166.632175 
L 364.986335 151.218082 
L 365.595443 142.55395 
L 365.798479 168.000726 
L 366.001515 136.304657 
L 366.407587 144.804127 
L 366.610623 158.602791 
L 366.813659 152.075113 
L 367.016695 157.515295 
L 367.219731 125.69 
L 367.422767 153.985671 
L 367.625802 162.649465 
L 367.828838 106.816482 
L 368.031874 157.861959 
L 368.23491 142.459015 
L 368.437946 159.626537 
L 368.640982 154.755209 
L 368.844018 174.287071 
L 369.047054 175.589063 
L 369.25009 179.677713 
L 369.453126 164.936902 
L 369.656162 169.874227 
L 369.859198 131.078009 
L 370.062234 185.982082 
L 370.26527 148.646314 
L 370.468306 162.796022 
L 370.671342 165.238636 
L 370.874378 151.612618 
L 371.077414 147.425576 
L 371.28045 167.296301 
L 371.483486 142.556438 
L 371.686522 156.604745 
L 371.889558 141.140936 
L 372.092594 148.761746 
L 372.29563 165.845455 
L 372.498666 166.08616 
L 372.701702 153.654585 
L 372.904738 131.169599 
L 373.107774 122.276884 
L 373.31081 153.002027 
L 373.513846 151.351857 
L 373.716882 118.751376 
L 373.919918 172.331554 
L 374.122954 177.803089 
L 374.32599 171.98646 
L 374.529026 131.566821 
L 374.732062 144.618302 
L 374.935098 188.521672 
L 375.138134 155.845535 
L 375.34117 187.261451 
L 375.544206 160.879772 
L 375.747242 157.897379 
L 375.950278 176.275917 
L 376.153314 172.277256 
L 376.35635 165.847063 
L 376.559386 172.103691 
L 376.762422 163.009811 
L 376.965458 133.407835 
L 377.168494 138.43388 
L 377.37153 176.883206 
L 377.777602 123.260603 
L 377.980638 180.974063 
L 378.183674 183.808689 
L 378.38671 174.162217 
L 378.589746 175.739043 
L 378.792782 174.476784 
L 378.995818 164.737847 
L 379.198854 164.035778 
L 379.40189 178.556023 
L 379.604926 175.014388 
L 379.807962 165.092606 
L 380.010998 161.525788 
L 380.214034 191.410311 
L 380.620106 128.057128 
L 380.823142 165.421474 
L 381.026178 163.453409 
L 381.229214 174.476724 
L 381.43225 133.413989 
L 381.838322 173.417168 
L 382.041358 173.37026 
L 382.244394 175.360954 
L 382.44743 154.637519 
L 382.650466 159.096031 
L 382.853502 144.71415 
L 383.056538 173.054406 
L 383.259574 165.237886 
L 383.46261 151.934855 
L 383.665646 129.993657 
L 383.868682 161.429297 
L 384.071718 161.73966 
L 384.274754 154.706204 
L 384.47779 156.911702 
L 384.680826 171.610126 
L 385.086897 153.594623 
L 385.289933 118.491103 
L 385.492969 131.429657 
L 385.696005 167.811455 
L 385.899041 153.004215 
L 386.102077 164.849712 
L 386.305113 135.658223 
L 386.711185 173.816397 
L 386.914221 148.056066 
L 387.117257 176.451799 
L 387.320293 180.214952 
L 387.726365 145.49513 
L 387.929401 154.577472 
L 388.132437 171.008842 
L 388.335473 168.069402 
L 388.538509 141.60291 
L 388.741545 162.917562 
L 388.944581 169.764905 
L 389.147617 187.980597 
L 389.350653 152.503366 
L 389.756725 163.732868 
L 389.959761 154.957275 
L 390.162797 121.822926 
L 390.365833 128.951477 
L 390.568869 155.820868 
L 390.771905 160.02016 
L 390.974941 158.253308 
L 391.381013 163.775462 
L 391.584049 142.904952 
L 391.990121 180.003565 
L 392.193157 169.219153 
L 392.396193 180.856683 
L 392.599229 145.012081 
L 392.802265 132.706618 
L 393.005301 170.359301 
L 393.208337 160.08141 
L 393.411373 139.139725 
L 393.614409 183.725808 
L 393.817445 150.77505 
L 394.020481 151.552321 
L 394.223517 139.244573 
L 394.629589 149.458041 
L 394.832625 130.047237 
L 395.035661 138.784695 
L 395.238697 163.170325 
L 395.441733 167.235983 
L 395.644769 178.211441 
L 395.847805 141.254573 
L 396.050841 139.319215 
L 396.253877 183.297794 
L 396.659949 104.71825 
L 397.066021 108.904051 
L 397.472093 165.452862 
L 397.675129 131.239073 
L 397.878165 164.558002 
L 398.081201 141.244555 
L 398.284237 170.50067 
L 398.487273 139.777256 
L 398.487273 139.777256 
" style="fill:none;stroke:#ff7f0e;stroke-linecap:square;stroke-width:1.5;"/>
   </g>
   <g id="patch_3">
    <path d="M 57.6 307.584 
L 57.6 41.472 
" style="fill:none;stroke:#000000;stroke-linecap:square;stroke-linejoin:miter;stroke-width:0.8;"/>
   </g>
   <g id="patch_4">
    <path d="M 414.72 307.584 
L 414.72 41.472 
" style="fill:none;stroke:#000000;stroke-linecap:square;stroke-linejoin:miter;stroke-width:0.8;"/>
   </g>
   <g id="patch_5">
    <path d="M 57.6 307.584 
L 414.72 307.584 
" style="fill:none;stroke:#000000;stroke-linecap:square;stroke-linejoin:miter;stroke-width:0.8;"/>
   </g>
   <g id="patch_6">
    <path d="M 57.6 41.472 
L 414.72 41.472 
" style="fill:none;stroke:#000000;stroke-linecap:square;stroke-linejoin:miter;stroke-width:0.8;"/>
   </g>
   <g id="legend_1">
    <g id="patch_7">
     <path d="M 303.845 78.82825 
L 407.72 78.82825 
Q 409.72 78.82825 409.72 76.82825 
L 409.72 48.472 
Q 409.72 46.472 407.72 46.472 
L 303.845 46.472 
Q 301.845 46.472 301.845 48.472 
L 301.845 76.82825 
Q 301.845 78.82825 303.845 78.82825 
z
" style="fill:#ffffff;opacity:0.8;stroke:#cccccc;stroke-linejoin:miter;"/>
    </g>
    <g id="line2d_21">
     <path d="M 305.845 54.570437 
L 325.845 54.570437 
" style="fill:none;stroke:#1f77b4;stroke-linecap:square;stroke-width:1.5;"/>
    </g>
    <g id="line2d_22"/>
    <g id="text_20">
     <!-- Train loss -->
     <g transform="translate(333.845 58.070437)scale(0.1 -0.1)">
      <defs>
       <path d="M -19 4666 
L 3928 4666 
L 3928 4134 
L 2272 4134 
L 2272 0 
L 1638 0 
L 1638 4134 
L -19 4134 
L -19 4666 
z
" id="DejaVuSans-54" transform="scale(0.015625)"/>
       <path d="M 2631 2963 
Q 2534 3019 2420 3045 
Q 2306 3072 2169 3072 
Q 1681 3072 1420 2755 
Q 1159 2438 1159 1844 
L 1159 0 
L 581 0 
L 581 3500 
L 1159 3500 
L 1159 2956 
Q 1341 3275 1631 3429 
Q 1922 3584 2338 3584 
Q 2397 3584 2469 3576 
Q 2541 3569 2628 3553 
L 2631 2963 
z
" id="DejaVuSans-72" transform="scale(0.015625)"/>
       <path d="M 2194 1759 
Q 1497 1759 1228 1600 
Q 959 1441 959 1056 
Q 959 750 1161 570 
Q 1363 391 1709 391 
Q 2188 391 2477 730 
Q 2766 1069 2766 1631 
L 2766 1759 
L 2194 1759 
z
M 3341 1997 
L 3341 0 
L 2766 0 
L 2766 531 
Q 2569 213 2275 61 
Q 1981 -91 1556 -91 
Q 1019 -91 701 211 
Q 384 513 384 1019 
Q 384 1609 779 1909 
Q 1175 2209 1959 2209 
L 2766 2209 
L 2766 2266 
Q 2766 2663 2505 2880 
Q 2244 3097 1772 3097 
Q 1472 3097 1187 3025 
Q 903 2953 641 2809 
L 641 3341 
Q 956 3463 1253 3523 
Q 1550 3584 1831 3584 
Q 2591 3584 2966 3190 
Q 3341 2797 3341 1997 
z
" id="DejaVuSans-61" transform="scale(0.015625)"/>
       <path d="M 603 3500 
L 1178 3500 
L 1178 0 
L 603 0 
L 603 3500 
z
M 603 4863 
L 1178 4863 
L 1178 4134 
L 603 4134 
L 603 4863 
z
" id="DejaVuSans-69" transform="scale(0.015625)"/>
       <path d="M 3513 2113 
L 3513 0 
L 2938 0 
L 2938 2094 
Q 2938 2591 2744 2837 
Q 2550 3084 2163 3084 
Q 1697 3084 1428 2787 
Q 1159 2491 1159 1978 
L 1159 0 
L 581 0 
L 581 3500 
L 1159 3500 
L 1159 2956 
Q 1366 3272 1645 3428 
Q 1925 3584 2291 3584 
Q 2894 3584 3203 3211 
Q 3513 2838 3513 2113 
z
" id="DejaVuSans-6e" transform="scale(0.015625)"/>
       <path id="DejaVuSans-20" transform="scale(0.015625)"/>
       <path d="M 603 4863 
L 1178 4863 
L 1178 0 
L 603 0 
L 603 4863 
z
" id="DejaVuSans-6c" transform="scale(0.015625)"/>
       <path d="M 2834 3397 
L 2834 2853 
Q 2591 2978 2328 3040 
Q 2066 3103 1784 3103 
Q 1356 3103 1142 2972 
Q 928 2841 928 2578 
Q 928 2378 1081 2264 
Q 1234 2150 1697 2047 
L 1894 2003 
Q 2506 1872 2764 1633 
Q 3022 1394 3022 966 
Q 3022 478 2636 193 
Q 2250 -91 1575 -91 
Q 1294 -91 989 -36 
Q 684 19 347 128 
L 347 722 
Q 666 556 975 473 
Q 1284 391 1588 391 
Q 1994 391 2212 530 
Q 2431 669 2431 922 
Q 2431 1156 2273 1281 
Q 2116 1406 1581 1522 
L 1381 1569 
Q 847 1681 609 1914 
Q 372 2147 372 2553 
Q 372 3047 722 3315 
Q 1072 3584 1716 3584 
Q 2034 3584 2315 3537 
Q 2597 3491 2834 3397 
z
" id="DejaVuSans-73" transform="scale(0.015625)"/>
      </defs>
      <use xlink:href="#DejaVuSans-54"/>
      <use x="46.333984" xlink:href="#DejaVuSans-72"/>
      <use x="87.447266" xlink:href="#DejaVuSans-61"/>
      <use x="148.726562" xlink:href="#DejaVuSans-69"/>
      <use x="176.509766" xlink:href="#DejaVuSans-6e"/>
      <use x="239.888672" xlink:href="#DejaVuSans-20"/>
      <use x="271.675781" xlink:href="#DejaVuSans-6c"/>
      <use x="299.458984" xlink:href="#DejaVuSans-6f"/>
      <use x="360.640625" xlink:href="#DejaVuSans-73"/>
      <use x="412.740234" xlink:href="#DejaVuSans-73"/>
     </g>
    </g>
    <g id="line2d_23">
     <path d="M 305.845 69.248562 
L 325.845 69.248562 
" style="fill:none;stroke:#ff7f0e;stroke-linecap:square;stroke-width:1.5;"/>
    </g>
    <g id="line2d_24"/>
    <g id="text_21">
     <!-- Validation loss -->
     <g transform="translate(333.845 72.748562)scale(0.1 -0.1)">
      <defs>
       <path d="M 1831 0 
L 50 4666 
L 709 4666 
L 2188 738 
L 3669 4666 
L 4325 4666 
L 2547 0 
L 1831 0 
z
" id="DejaVuSans-56" transform="scale(0.015625)"/>
       <path d="M 2906 2969 
L 2906 4863 
L 3481 4863 
L 3481 0 
L 2906 0 
L 2906 525 
Q 2725 213 2448 61 
Q 2172 -91 1784 -91 
Q 1150 -91 751 415 
Q 353 922 353 1747 
Q 353 2572 751 3078 
Q 1150 3584 1784 3584 
Q 2172 3584 2448 3432 
Q 2725 3281 2906 2969 
z
M 947 1747 
Q 947 1113 1208 752 
Q 1469 391 1925 391 
Q 2381 391 2643 752 
Q 2906 1113 2906 1747 
Q 2906 2381 2643 2742 
Q 2381 3103 1925 3103 
Q 1469 3103 1208 2742 
Q 947 2381 947 1747 
z
" id="DejaVuSans-64" transform="scale(0.015625)"/>
       <path d="M 1172 4494 
L 1172 3500 
L 2356 3500 
L 2356 3053 
L 1172 3053 
L 1172 1153 
Q 1172 725 1289 603 
Q 1406 481 1766 481 
L 2356 481 
L 2356 0 
L 1766 0 
Q 1100 0 847 248 
Q 594 497 594 1153 
L 594 3053 
L 172 3053 
L 172 3500 
L 594 3500 
L 594 4494 
L 1172 4494 
z
" id="DejaVuSans-74" transform="scale(0.015625)"/>
      </defs>
      <use xlink:href="#DejaVuSans-56"/>
      <use x="60.658203" xlink:href="#DejaVuSans-61"/>
      <use x="121.9375" xlink:href="#DejaVuSans-6c"/>
      <use x="149.720703" xlink:href="#DejaVuSans-69"/>
      <use x="177.503906" xlink:href="#DejaVuSans-64"/>
      <use x="240.980469" xlink:href="#DejaVuSans-61"/>
      <use x="302.259766" xlink:href="#DejaVuSans-74"/>
      <use x="341.46875" xlink:href="#DejaVuSans-69"/>
      <use x="369.251953" xlink:href="#DejaVuSans-6f"/>
      <use x="430.433594" xlink:href="#DejaVuSans-6e"/>
      <use x="493.8125" xlink:href="#DejaVuSans-20"/>
      <use x="525.599609" xlink:href="#DejaVuSans-6c"/>
      <use x="553.382812" xlink:href="#DejaVuSans-6f"/>
      <use x="614.564453" xlink:href="#DejaVuSans-73"/>
      <use x="666.664062" xlink:href="#DejaVuSans-73"/>
     </g>
    </g>
   </g>
  </g>
 </g>
 <defs>
  <clipPath id="pf8a881bf26">
   <rect height="266.112" width="357.12" x="57.6" y="41.472"/>
  </clipPath>
 </defs>
</svg>
