<?xml version="1.0" encoding="utf-8" standalone="no"?>
<!DOCTYPE svg PUBLIC "-//W3C//DTD SVG 1.1//EN"
  "http://www.w3.org/Graphics/SVG/1.1/DTD/svg11.dtd">
<svg height="345.6pt" version="1.1" viewBox="0 0 460.8 345.6" width="460.8pt" xmlns="http://www.w3.org/2000/svg" xmlns:xlink="http://www.w3.org/1999/xlink">
 <metadata>
  <rdf:RDF xmlns:cc="http://creativecommons.org/ns#" xmlns:dc="http://purl.org/dc/elements/1.1/" xmlns:rdf="http://www.w3.org/1999/02/22-rdf-syntax-ns#">
   <cc:Work>
    <dc:type rdf:resource="http://purl.org/dc/dcmitype/StillImage"/>
    <dc:date>2021-07-31T08:34:52.884361</dc:date>
    <dc:format>image/svg+xml</dc:format>
    <dc:creator>
     <cc:Agent>
      <dc:title>Matplotlib v3.4.1, https://matplotlib.org/</dc:title>
     </cc:Agent>
    </dc:creator>
   </cc:Work>
  </rdf:RDF>
 </metadata>
 <defs>
  <style type="text/css">*{stroke-linecap:butt;stroke-linejoin:round;}</style>
 </defs>
 <g id="figure_1">
  <g id="patch_1">
   <path d="M 0 345.6 
L 460.8 345.6 
L 460.8 0 
L 0 0 
z
" style="fill:#ffffff;"/>
  </g>
  <g id="axes_1">
   <g id="patch_2">
    <path d="M 57.6 307.584 
L 414.72 307.584 
L 414.72 41.472 
L 57.6 41.472 
z
" style="fill:#ffffff;"/>
   </g>
   <g id="matplotlib.axis_1">
    <g id="xtick_1">
     <g id="line2d_1">
      <defs>
       <path d="M 0 0 
L 0 3.5 
" id="m3607f316f9" style="stroke:#000000;stroke-width:0.8;"/>
      </defs>
      <g>
       <use style="stroke:#000000;stroke-width:0.8;" x="73.832727" xlink:href="#m3607f316f9" y="307.584"/>
      </g>
     </g>
     <g id="text_1">
      <!-- 0 -->
      <g transform="translate(70.651477 322.182437)scale(0.1 -0.1)">
       <defs>
        <path d="M 2034 4250 
Q 1547 4250 1301 3770 
Q 1056 3291 1056 2328 
Q 1056 1369 1301 889 
Q 1547 409 2034 409 
Q 2525 409 2770 889 
Q 3016 1369 3016 2328 
Q 3016 3291 2770 3770 
Q 2525 4250 2034 4250 
z
M 2034 4750 
Q 2819 4750 3233 4129 
Q 3647 3509 3647 2328 
Q 3647 1150 3233 529 
Q 2819 -91 2034 -91 
Q 1250 -91 836 529 
Q 422 1150 422 2328 
Q 422 3509 836 4129 
Q 1250 4750 2034 4750 
z
" id="DejaVuSans-30" transform="scale(0.015625)"/>
       </defs>
       <use xlink:href="#DejaVuSans-30"/>
      </g>
     </g>
    </g>
    <g id="xtick_2">
     <g id="line2d_2">
      <g>
       <use style="stroke:#000000;stroke-width:0.8;" x="114.439925" xlink:href="#m3607f316f9" y="307.584"/>
      </g>
     </g>
     <g id="text_2">
      <!-- 200 -->
      <g transform="translate(104.896175 322.182437)scale(0.1 -0.1)">
       <defs>
        <path d="M 1228 531 
L 3431 531 
L 3431 0 
L 469 0 
L 469 531 
Q 828 903 1448 1529 
Q 2069 2156 2228 2338 
Q 2531 2678 2651 2914 
Q 2772 3150 2772 3378 
Q 2772 3750 2511 3984 
Q 2250 4219 1831 4219 
Q 1534 4219 1204 4116 
Q 875 4013 500 3803 
L 500 4441 
Q 881 4594 1212 4672 
Q 1544 4750 1819 4750 
Q 2544 4750 2975 4387 
Q 3406 4025 3406 3419 
Q 3406 3131 3298 2873 
Q 3191 2616 2906 2266 
Q 2828 2175 2409 1742 
Q 1991 1309 1228 531 
z
" id="DejaVuSans-32" transform="scale(0.015625)"/>
       </defs>
       <use xlink:href="#DejaVuSans-32"/>
       <use x="63.623047" xlink:href="#DejaVuSans-30"/>
       <use x="127.246094" xlink:href="#DejaVuSans-30"/>
      </g>
     </g>
    </g>
    <g id="xtick_3">
     <g id="line2d_3">
      <g>
       <use style="stroke:#000000;stroke-width:0.8;" x="155.047123" xlink:href="#m3607f316f9" y="307.584"/>
      </g>
     </g>
     <g id="text_3">
      <!-- 400 -->
      <g transform="translate(145.503373 322.182437)scale(0.1 -0.1)">
       <defs>
        <path d="M 2419 4116 
L 825 1625 
L 2419 1625 
L 2419 4116 
z
M 2253 4666 
L 3047 4666 
L 3047 1625 
L 3713 1625 
L 3713 1100 
L 3047 1100 
L 3047 0 
L 2419 0 
L 2419 1100 
L 313 1100 
L 313 1709 
L 2253 4666 
z
" id="DejaVuSans-34" transform="scale(0.015625)"/>
       </defs>
       <use xlink:href="#DejaVuSans-34"/>
       <use x="63.623047" xlink:href="#DejaVuSans-30"/>
       <use x="127.246094" xlink:href="#DejaVuSans-30"/>
      </g>
     </g>
    </g>
    <g id="xtick_4">
     <g id="line2d_4">
      <g>
       <use style="stroke:#000000;stroke-width:0.8;" x="195.65432" xlink:href="#m3607f316f9" y="307.584"/>
      </g>
     </g>
     <g id="text_4">
      <!-- 600 -->
      <g transform="translate(186.11057 322.182437)scale(0.1 -0.1)">
       <defs>
        <path d="M 2113 2584 
Q 1688 2584 1439 2293 
Q 1191 2003 1191 1497 
Q 1191 994 1439 701 
Q 1688 409 2113 409 
Q 2538 409 2786 701 
Q 3034 994 3034 1497 
Q 3034 2003 2786 2293 
Q 2538 2584 2113 2584 
z
M 3366 4563 
L 3366 3988 
Q 3128 4100 2886 4159 
Q 2644 4219 2406 4219 
Q 1781 4219 1451 3797 
Q 1122 3375 1075 2522 
Q 1259 2794 1537 2939 
Q 1816 3084 2150 3084 
Q 2853 3084 3261 2657 
Q 3669 2231 3669 1497 
Q 3669 778 3244 343 
Q 2819 -91 2113 -91 
Q 1303 -91 875 529 
Q 447 1150 447 2328 
Q 447 3434 972 4092 
Q 1497 4750 2381 4750 
Q 2619 4750 2861 4703 
Q 3103 4656 3366 4563 
z
" id="DejaVuSans-36" transform="scale(0.015625)"/>
       </defs>
       <use xlink:href="#DejaVuSans-36"/>
       <use x="63.623047" xlink:href="#DejaVuSans-30"/>
       <use x="127.246094" xlink:href="#DejaVuSans-30"/>
      </g>
     </g>
    </g>
    <g id="xtick_5">
     <g id="line2d_5">
      <g>
       <use style="stroke:#000000;stroke-width:0.8;" x="236.261518" xlink:href="#m3607f316f9" y="307.584"/>
      </g>
     </g>
     <g id="text_5">
      <!-- 800 -->
      <g transform="translate(226.717768 322.182437)scale(0.1 -0.1)">
       <defs>
        <path d="M 2034 2216 
Q 1584 2216 1326 1975 
Q 1069 1734 1069 1313 
Q 1069 891 1326 650 
Q 1584 409 2034 409 
Q 2484 409 2743 651 
Q 3003 894 3003 1313 
Q 3003 1734 2745 1975 
Q 2488 2216 2034 2216 
z
M 1403 2484 
Q 997 2584 770 2862 
Q 544 3141 544 3541 
Q 544 4100 942 4425 
Q 1341 4750 2034 4750 
Q 2731 4750 3128 4425 
Q 3525 4100 3525 3541 
Q 3525 3141 3298 2862 
Q 3072 2584 2669 2484 
Q 3125 2378 3379 2068 
Q 3634 1759 3634 1313 
Q 3634 634 3220 271 
Q 2806 -91 2034 -91 
Q 1263 -91 848 271 
Q 434 634 434 1313 
Q 434 1759 690 2068 
Q 947 2378 1403 2484 
z
M 1172 3481 
Q 1172 3119 1398 2916 
Q 1625 2713 2034 2713 
Q 2441 2713 2670 2916 
Q 2900 3119 2900 3481 
Q 2900 3844 2670 4047 
Q 2441 4250 2034 4250 
Q 1625 4250 1398 4047 
Q 1172 3844 1172 3481 
z
" id="DejaVuSans-38" transform="scale(0.015625)"/>
       </defs>
       <use xlink:href="#DejaVuSans-38"/>
       <use x="63.623047" xlink:href="#DejaVuSans-30"/>
       <use x="127.246094" xlink:href="#DejaVuSans-30"/>
      </g>
     </g>
    </g>
    <g id="xtick_6">
     <g id="line2d_6">
      <g>
       <use style="stroke:#000000;stroke-width:0.8;" x="276.868716" xlink:href="#m3607f316f9" y="307.584"/>
      </g>
     </g>
     <g id="text_6">
      <!-- 1000 -->
      <g transform="translate(264.143716 322.182437)scale(0.1 -0.1)">
       <defs>
        <path d="M 794 531 
L 1825 531 
L 1825 4091 
L 703 3866 
L 703 4441 
L 1819 4666 
L 2450 4666 
L 2450 531 
L 3481 531 
L 3481 0 
L 794 0 
L 794 531 
z
" id="DejaVuSans-31" transform="scale(0.015625)"/>
       </defs>
       <use xlink:href="#DejaVuSans-31"/>
       <use x="63.623047" xlink:href="#DejaVuSans-30"/>
       <use x="127.246094" xlink:href="#DejaVuSans-30"/>
       <use x="190.869141" xlink:href="#DejaVuSans-30"/>
      </g>
     </g>
    </g>
    <g id="xtick_7">
     <g id="line2d_7">
      <g>
       <use style="stroke:#000000;stroke-width:0.8;" x="317.475913" xlink:href="#m3607f316f9" y="307.584"/>
      </g>
     </g>
     <g id="text_7">
      <!-- 1200 -->
      <g transform="translate(304.750913 322.182437)scale(0.1 -0.1)">
       <use xlink:href="#DejaVuSans-31"/>
       <use x="63.623047" xlink:href="#DejaVuSans-32"/>
       <use x="127.246094" xlink:href="#DejaVuSans-30"/>
       <use x="190.869141" xlink:href="#DejaVuSans-30"/>
      </g>
     </g>
    </g>
    <g id="xtick_8">
     <g id="line2d_8">
      <g>
       <use style="stroke:#000000;stroke-width:0.8;" x="358.083111" xlink:href="#m3607f316f9" y="307.584"/>
      </g>
     </g>
     <g id="text_8">
      <!-- 1400 -->
      <g transform="translate(345.358111 322.182437)scale(0.1 -0.1)">
       <use xlink:href="#DejaVuSans-31"/>
       <use x="63.623047" xlink:href="#DejaVuSans-34"/>
       <use x="127.246094" xlink:href="#DejaVuSans-30"/>
       <use x="190.869141" xlink:href="#DejaVuSans-30"/>
      </g>
     </g>
    </g>
    <g id="xtick_9">
     <g id="line2d_9">
      <g>
       <use style="stroke:#000000;stroke-width:0.8;" x="398.690309" xlink:href="#m3607f316f9" y="307.584"/>
      </g>
     </g>
     <g id="text_9">
      <!-- 1600 -->
      <g transform="translate(385.965309 322.182437)scale(0.1 -0.1)">
       <use xlink:href="#DejaVuSans-31"/>
       <use x="63.623047" xlink:href="#DejaVuSans-36"/>
       <use x="127.246094" xlink:href="#DejaVuSans-30"/>
       <use x="190.869141" xlink:href="#DejaVuSans-30"/>
      </g>
     </g>
    </g>
    <g id="text_10">
     <!-- Epoch -->
     <g transform="translate(213.193594 339.659781)scale(0.15 -0.15)">
      <defs>
       <path d="M 628 4666 
L 3578 4666 
L 3578 4134 
L 1259 4134 
L 1259 2753 
L 3481 2753 
L 3481 2222 
L 1259 2222 
L 1259 531 
L 3634 531 
L 3634 0 
L 628 0 
L 628 4666 
z
" id="DejaVuSans-45" transform="scale(0.015625)"/>
       <path d="M 1159 525 
L 1159 -1331 
L 581 -1331 
L 581 3500 
L 1159 3500 
L 1159 2969 
Q 1341 3281 1617 3432 
Q 1894 3584 2278 3584 
Q 2916 3584 3314 3078 
Q 3713 2572 3713 1747 
Q 3713 922 3314 415 
Q 2916 -91 2278 -91 
Q 1894 -91 1617 61 
Q 1341 213 1159 525 
z
M 3116 1747 
Q 3116 2381 2855 2742 
Q 2594 3103 2138 3103 
Q 1681 3103 1420 2742 
Q 1159 2381 1159 1747 
Q 1159 1113 1420 752 
Q 1681 391 2138 391 
Q 2594 391 2855 752 
Q 3116 1113 3116 1747 
z
" id="DejaVuSans-70" transform="scale(0.015625)"/>
       <path d="M 1959 3097 
Q 1497 3097 1228 2736 
Q 959 2375 959 1747 
Q 959 1119 1226 758 
Q 1494 397 1959 397 
Q 2419 397 2687 759 
Q 2956 1122 2956 1747 
Q 2956 2369 2687 2733 
Q 2419 3097 1959 3097 
z
M 1959 3584 
Q 2709 3584 3137 3096 
Q 3566 2609 3566 1747 
Q 3566 888 3137 398 
Q 2709 -91 1959 -91 
Q 1206 -91 779 398 
Q 353 888 353 1747 
Q 353 2609 779 3096 
Q 1206 3584 1959 3584 
z
" id="DejaVuSans-6f" transform="scale(0.015625)"/>
       <path d="M 3122 3366 
L 3122 2828 
Q 2878 2963 2633 3030 
Q 2388 3097 2138 3097 
Q 1578 3097 1268 2742 
Q 959 2388 959 1747 
Q 959 1106 1268 751 
Q 1578 397 2138 397 
Q 2388 397 2633 464 
Q 2878 531 3122 666 
L 3122 134 
Q 2881 22 2623 -34 
Q 2366 -91 2075 -91 
Q 1284 -91 818 406 
Q 353 903 353 1747 
Q 353 2603 823 3093 
Q 1294 3584 2113 3584 
Q 2378 3584 2631 3529 
Q 2884 3475 3122 3366 
z
" id="DejaVuSans-63" transform="scale(0.015625)"/>
       <path d="M 3513 2113 
L 3513 0 
L 2938 0 
L 2938 2094 
Q 2938 2591 2744 2837 
Q 2550 3084 2163 3084 
Q 1697 3084 1428 2787 
Q 1159 2491 1159 1978 
L 1159 0 
L 581 0 
L 581 4863 
L 1159 4863 
L 1159 2956 
Q 1366 3272 1645 3428 
Q 1925 3584 2291 3584 
Q 2894 3584 3203 3211 
Q 3513 2838 3513 2113 
z
" id="DejaVuSans-68" transform="scale(0.015625)"/>
      </defs>
      <use xlink:href="#DejaVuSans-45"/>
      <use x="63.183594" xlink:href="#DejaVuSans-70"/>
      <use x="126.660156" xlink:href="#DejaVuSans-6f"/>
      <use x="187.841797" xlink:href="#DejaVuSans-63"/>
      <use x="242.822266" xlink:href="#DejaVuSans-68"/>
     </g>
    </g>
   </g>
   <g id="matplotlib.axis_2">
    <g id="ytick_1">
     <g id="line2d_10">
      <defs>
       <path d="M 0 0 
L -3.5 0 
" id="m60d4d28ab5" style="stroke:#000000;stroke-width:0.8;"/>
      </defs>
      <g>
       <use style="stroke:#000000;stroke-width:0.8;" x="57.6" xlink:href="#m60d4d28ab5" y="215.411849"/>
      </g>
     </g>
     <g id="text_11">
      <!-- $\mathdefault{10^{0}}$ -->
      <g transform="translate(33 219.211068)scale(0.1 -0.1)">
       <use transform="translate(0 0.765625)" xlink:href="#DejaVuSans-31"/>
       <use transform="translate(63.623047 0.765625)" xlink:href="#DejaVuSans-30"/>
       <use transform="translate(128.203125 39.046875)scale(0.7)" xlink:href="#DejaVuSans-30"/>
      </g>
     </g>
    </g>
    <g id="ytick_2">
     <g id="line2d_11">
      <g>
       <use style="stroke:#000000;stroke-width:0.8;" x="57.6" xlink:href="#m60d4d28ab5" y="109.512074"/>
      </g>
     </g>
     <g id="text_12">
      <!-- $\mathdefault{10^{1}}$ -->
      <g transform="translate(33 113.311293)scale(0.1 -0.1)">
       <use transform="translate(0 0.684375)" xlink:href="#DejaVuSans-31"/>
       <use transform="translate(63.623047 0.684375)" xlink:href="#DejaVuSans-30"/>
       <use transform="translate(128.203125 38.965625)scale(0.7)" xlink:href="#DejaVuSans-31"/>
      </g>
     </g>
    </g>
    <g id="ytick_3">
     <g id="line2d_12">
      <defs>
       <path d="M 0 0 
L -2 0 
" id="mee3ed2f4f6" style="stroke:#000000;stroke-width:0.6;"/>
      </defs>
      <g>
       <use style="stroke:#000000;stroke-width:0.6;" x="57.6" xlink:href="#mee3ed2f4f6" y="289.432615"/>
      </g>
     </g>
    </g>
    <g id="ytick_4">
     <g id="line2d_13">
      <g>
       <use style="stroke:#000000;stroke-width:0.6;" x="57.6" xlink:href="#mee3ed2f4f6" y="270.78459"/>
      </g>
     </g>
    </g>
    <g id="ytick_5">
     <g id="line2d_14">
      <g>
       <use style="stroke:#000000;stroke-width:0.6;" x="57.6" xlink:href="#mee3ed2f4f6" y="257.553606"/>
      </g>
     </g>
    </g>
    <g id="ytick_6">
     <g id="line2d_15">
      <g>
       <use style="stroke:#000000;stroke-width:0.6;" x="57.6" xlink:href="#mee3ed2f4f6" y="247.290858"/>
      </g>
     </g>
    </g>
    <g id="ytick_7">
     <g id="line2d_16">
      <g>
       <use style="stroke:#000000;stroke-width:0.6;" x="57.6" xlink:href="#mee3ed2f4f6" y="238.905582"/>
      </g>
     </g>
    </g>
    <g id="ytick_8">
     <g id="line2d_17">
      <g>
       <use style="stroke:#000000;stroke-width:0.6;" x="57.6" xlink:href="#mee3ed2f4f6" y="231.815932"/>
      </g>
     </g>
    </g>
    <g id="ytick_9">
     <g id="line2d_18">
      <g>
       <use style="stroke:#000000;stroke-width:0.6;" x="57.6" xlink:href="#mee3ed2f4f6" y="225.674598"/>
      </g>
     </g>
    </g>
    <g id="ytick_10">
     <g id="line2d_19">
      <g>
       <use style="stroke:#000000;stroke-width:0.6;" x="57.6" xlink:href="#mee3ed2f4f6" y="220.257557"/>
      </g>
     </g>
    </g>
    <g id="ytick_11">
     <g id="line2d_20">
      <g>
       <use style="stroke:#000000;stroke-width:0.6;" x="57.6" xlink:href="#mee3ed2f4f6" y="183.53284"/>
      </g>
     </g>
    </g>
    <g id="ytick_12">
     <g id="line2d_21">
      <g>
       <use style="stroke:#000000;stroke-width:0.6;" x="57.6" xlink:href="#mee3ed2f4f6" y="164.884816"/>
      </g>
     </g>
    </g>
    <g id="ytick_13">
     <g id="line2d_22">
      <g>
       <use style="stroke:#000000;stroke-width:0.6;" x="57.6" xlink:href="#mee3ed2f4f6" y="151.653831"/>
      </g>
     </g>
    </g>
    <g id="ytick_14">
     <g id="line2d_23">
      <g>
       <use style="stroke:#000000;stroke-width:0.6;" x="57.6" xlink:href="#mee3ed2f4f6" y="141.391083"/>
      </g>
     </g>
    </g>
    <g id="ytick_15">
     <g id="line2d_24">
      <g>
       <use style="stroke:#000000;stroke-width:0.6;" x="57.6" xlink:href="#mee3ed2f4f6" y="133.005807"/>
      </g>
     </g>
    </g>
    <g id="ytick_16">
     <g id="line2d_25">
      <g>
       <use style="stroke:#000000;stroke-width:0.6;" x="57.6" xlink:href="#mee3ed2f4f6" y="125.916157"/>
      </g>
     </g>
    </g>
    <g id="ytick_17">
     <g id="line2d_26">
      <g>
       <use style="stroke:#000000;stroke-width:0.6;" x="57.6" xlink:href="#mee3ed2f4f6" y="119.774823"/>
      </g>
     </g>
    </g>
    <g id="ytick_18">
     <g id="line2d_27">
      <g>
       <use style="stroke:#000000;stroke-width:0.6;" x="57.6" xlink:href="#mee3ed2f4f6" y="114.357782"/>
      </g>
     </g>
    </g>
    <g id="ytick_19">
     <g id="line2d_28">
      <g>
       <use style="stroke:#000000;stroke-width:0.6;" x="57.6" xlink:href="#mee3ed2f4f6" y="77.633065"/>
      </g>
     </g>
    </g>
    <g id="ytick_20">
     <g id="line2d_29">
      <g>
       <use style="stroke:#000000;stroke-width:0.6;" x="57.6" xlink:href="#mee3ed2f4f6" y="58.985041"/>
      </g>
     </g>
    </g>
    <g id="ytick_21">
     <g id="line2d_30">
      <g>
       <use style="stroke:#000000;stroke-width:0.6;" x="57.6" xlink:href="#mee3ed2f4f6" y="45.754057"/>
      </g>
     </g>
    </g>
    <g id="text_13">
     <!-- GradNorm weight -->
     <g transform="translate(25.880469 240.907688)rotate(-90)scale(0.15 -0.15)">
      <defs>
       <path d="M 3809 666 
L 3809 1919 
L 2778 1919 
L 2778 2438 
L 4434 2438 
L 4434 434 
Q 4069 175 3628 42 
Q 3188 -91 2688 -91 
Q 1594 -91 976 548 
Q 359 1188 359 2328 
Q 359 3472 976 4111 
Q 1594 4750 2688 4750 
Q 3144 4750 3555 4637 
Q 3966 4525 4313 4306 
L 4313 3634 
Q 3963 3931 3569 4081 
Q 3175 4231 2741 4231 
Q 1884 4231 1454 3753 
Q 1025 3275 1025 2328 
Q 1025 1384 1454 906 
Q 1884 428 2741 428 
Q 3075 428 3337 486 
Q 3600 544 3809 666 
z
" id="DejaVuSans-47" transform="scale(0.015625)"/>
       <path d="M 2631 2963 
Q 2534 3019 2420 3045 
Q 2306 3072 2169 3072 
Q 1681 3072 1420 2755 
Q 1159 2438 1159 1844 
L 1159 0 
L 581 0 
L 581 3500 
L 1159 3500 
L 1159 2956 
Q 1341 3275 1631 3429 
Q 1922 3584 2338 3584 
Q 2397 3584 2469 3576 
Q 2541 3569 2628 3553 
L 2631 2963 
z
" id="DejaVuSans-72" transform="scale(0.015625)"/>
       <path d="M 2194 1759 
Q 1497 1759 1228 1600 
Q 959 1441 959 1056 
Q 959 750 1161 570 
Q 1363 391 1709 391 
Q 2188 391 2477 730 
Q 2766 1069 2766 1631 
L 2766 1759 
L 2194 1759 
z
M 3341 1997 
L 3341 0 
L 2766 0 
L 2766 531 
Q 2569 213 2275 61 
Q 1981 -91 1556 -91 
Q 1019 -91 701 211 
Q 384 513 384 1019 
Q 384 1609 779 1909 
Q 1175 2209 1959 2209 
L 2766 2209 
L 2766 2266 
Q 2766 2663 2505 2880 
Q 2244 3097 1772 3097 
Q 1472 3097 1187 3025 
Q 903 2953 641 2809 
L 641 3341 
Q 956 3463 1253 3523 
Q 1550 3584 1831 3584 
Q 2591 3584 2966 3190 
Q 3341 2797 3341 1997 
z
" id="DejaVuSans-61" transform="scale(0.015625)"/>
       <path d="M 2906 2969 
L 2906 4863 
L 3481 4863 
L 3481 0 
L 2906 0 
L 2906 525 
Q 2725 213 2448 61 
Q 2172 -91 1784 -91 
Q 1150 -91 751 415 
Q 353 922 353 1747 
Q 353 2572 751 3078 
Q 1150 3584 1784 3584 
Q 2172 3584 2448 3432 
Q 2725 3281 2906 2969 
z
M 947 1747 
Q 947 1113 1208 752 
Q 1469 391 1925 391 
Q 2381 391 2643 752 
Q 2906 1113 2906 1747 
Q 2906 2381 2643 2742 
Q 2381 3103 1925 3103 
Q 1469 3103 1208 2742 
Q 947 2381 947 1747 
z
" id="DejaVuSans-64" transform="scale(0.015625)"/>
       <path d="M 628 4666 
L 1478 4666 
L 3547 763 
L 3547 4666 
L 4159 4666 
L 4159 0 
L 3309 0 
L 1241 3903 
L 1241 0 
L 628 0 
L 628 4666 
z
" id="DejaVuSans-4e" transform="scale(0.015625)"/>
       <path d="M 3328 2828 
Q 3544 3216 3844 3400 
Q 4144 3584 4550 3584 
Q 5097 3584 5394 3201 
Q 5691 2819 5691 2113 
L 5691 0 
L 5113 0 
L 5113 2094 
Q 5113 2597 4934 2840 
Q 4756 3084 4391 3084 
Q 3944 3084 3684 2787 
Q 3425 2491 3425 1978 
L 3425 0 
L 2847 0 
L 2847 2094 
Q 2847 2600 2669 2842 
Q 2491 3084 2119 3084 
Q 1678 3084 1418 2786 
Q 1159 2488 1159 1978 
L 1159 0 
L 581 0 
L 581 3500 
L 1159 3500 
L 1159 2956 
Q 1356 3278 1631 3431 
Q 1906 3584 2284 3584 
Q 2666 3584 2933 3390 
Q 3200 3197 3328 2828 
z
" id="DejaVuSans-6d" transform="scale(0.015625)"/>
       <path id="DejaVuSans-20" transform="scale(0.015625)"/>
       <path d="M 269 3500 
L 844 3500 
L 1563 769 
L 2278 3500 
L 2956 3500 
L 3675 769 
L 4391 3500 
L 4966 3500 
L 4050 0 
L 3372 0 
L 2619 2869 
L 1863 0 
L 1184 0 
L 269 3500 
z
" id="DejaVuSans-77" transform="scale(0.015625)"/>
       <path d="M 3597 1894 
L 3597 1613 
L 953 1613 
Q 991 1019 1311 708 
Q 1631 397 2203 397 
Q 2534 397 2845 478 
Q 3156 559 3463 722 
L 3463 178 
Q 3153 47 2828 -22 
Q 2503 -91 2169 -91 
Q 1331 -91 842 396 
Q 353 884 353 1716 
Q 353 2575 817 3079 
Q 1281 3584 2069 3584 
Q 2775 3584 3186 3129 
Q 3597 2675 3597 1894 
z
M 3022 2063 
Q 3016 2534 2758 2815 
Q 2500 3097 2075 3097 
Q 1594 3097 1305 2825 
Q 1016 2553 972 2059 
L 3022 2063 
z
" id="DejaVuSans-65" transform="scale(0.015625)"/>
       <path d="M 603 3500 
L 1178 3500 
L 1178 0 
L 603 0 
L 603 3500 
z
M 603 4863 
L 1178 4863 
L 1178 4134 
L 603 4134 
L 603 4863 
z
" id="DejaVuSans-69" transform="scale(0.015625)"/>
       <path d="M 2906 1791 
Q 2906 2416 2648 2759 
Q 2391 3103 1925 3103 
Q 1463 3103 1205 2759 
Q 947 2416 947 1791 
Q 947 1169 1205 825 
Q 1463 481 1925 481 
Q 2391 481 2648 825 
Q 2906 1169 2906 1791 
z
M 3481 434 
Q 3481 -459 3084 -895 
Q 2688 -1331 1869 -1331 
Q 1566 -1331 1297 -1286 
Q 1028 -1241 775 -1147 
L 775 -588 
Q 1028 -725 1275 -790 
Q 1522 -856 1778 -856 
Q 2344 -856 2625 -561 
Q 2906 -266 2906 331 
L 2906 616 
Q 2728 306 2450 153 
Q 2172 0 1784 0 
Q 1141 0 747 490 
Q 353 981 353 1791 
Q 353 2603 747 3093 
Q 1141 3584 1784 3584 
Q 2172 3584 2450 3431 
Q 2728 3278 2906 2969 
L 2906 3500 
L 3481 3500 
L 3481 434 
z
" id="DejaVuSans-67" transform="scale(0.015625)"/>
       <path d="M 1172 4494 
L 1172 3500 
L 2356 3500 
L 2356 3053 
L 1172 3053 
L 1172 1153 
Q 1172 725 1289 603 
Q 1406 481 1766 481 
L 2356 481 
L 2356 0 
L 1766 0 
Q 1100 0 847 248 
Q 594 497 594 1153 
L 594 3053 
L 172 3053 
L 172 3500 
L 594 3500 
L 594 4494 
L 1172 4494 
z
" id="DejaVuSans-74" transform="scale(0.015625)"/>
      </defs>
      <use xlink:href="#DejaVuSans-47"/>
      <use x="77.490234" xlink:href="#DejaVuSans-72"/>
      <use x="118.603516" xlink:href="#DejaVuSans-61"/>
      <use x="179.882812" xlink:href="#DejaVuSans-64"/>
      <use x="243.359375" xlink:href="#DejaVuSans-4e"/>
      <use x="318.164062" xlink:href="#DejaVuSans-6f"/>
      <use x="379.345703" xlink:href="#DejaVuSans-72"/>
      <use x="418.708984" xlink:href="#DejaVuSans-6d"/>
      <use x="516.121094" xlink:href="#DejaVuSans-20"/>
      <use x="547.908203" xlink:href="#DejaVuSans-77"/>
      <use x="629.695312" xlink:href="#DejaVuSans-65"/>
      <use x="691.21875" xlink:href="#DejaVuSans-69"/>
      <use x="719.001953" xlink:href="#DejaVuSans-67"/>
      <use x="782.478516" xlink:href="#DejaVuSans-68"/>
      <use x="845.857422" xlink:href="#DejaVuSans-74"/>
     </g>
    </g>
   </g>
   <g id="line2d_31">
    <path clip-path="url(#p5f69208cd7)" d="M 0 0 
" style="fill:none;stroke:#1f77b4;stroke-linecap:square;stroke-width:1.5;"/>
   </g>
   <g id="line2d_32">
    <path clip-path="url(#p5f69208cd7)" d="M 73.832727 215.411849 
L 134.540488 215.411849 
L 134.743524 188.246007 
L 134.94656 187.921046 
L 135.149596 188.741324 
L 135.352632 188.891351 
L 135.555668 191.652435 
L 135.758704 189.164556 
L 135.96174 188.847228 
L 136.570848 189.813984 
L 136.773884 189.225523 
L 136.97692 188.073798 
L 137.179956 189.692736 
L 137.382992 188.565698 
L 137.586028 191.015729 
L 137.789064 188.519898 
L 137.9921 188.779854 
L 138.195136 189.458259 
L 138.398172 188.823706 
L 138.601208 189.330703 
L 138.804244 188.588817 
L 139.00728 189.427052 
L 139.210316 188.760204 
L 139.413352 188.660522 
L 139.819424 187.641908 
L 140.022459 189.758098 
L 140.225495 189.707192 
L 140.428531 188.684341 
L 140.834603 189.268892 
L 141.037639 190.051389 
L 141.240675 189.774354 
L 141.443711 189.827143 
L 141.646747 187.940775 
L 141.849783 188.188882 
L 142.052819 187.671936 
L 142.255855 188.490191 
L 142.458891 187.047451 
L 142.864963 189.816925 
L 143.067999 187.571839 
L 143.271035 188.924275 
L 143.474071 188.911268 
L 143.677107 188.262667 
L 143.880143 188.957347 
L 144.083179 188.830035 
L 144.489251 188.1534 
L 144.692287 187.428092 
L 144.895323 188.10708 
L 145.098359 189.489555 
L 145.301395 188.460536 
L 145.504431 188.210981 
L 145.707467 187.782592 
L 145.910503 190.401017 
L 146.316575 188.531324 
L 146.519611 188.303675 
L 146.722647 190.89362 
L 146.925683 187.578701 
L 147.331755 189.503945 
L 147.534791 187.563571 
L 147.940863 189.95466 
L 148.143899 187.935981 
L 148.346935 188.688603 
L 148.549971 188.126308 
L 148.753007 186.891421 
L 148.956043 187.352155 
L 149.159079 186.854308 
L 149.362115 187.966635 
L 149.565151 187.285954 
L 149.768187 187.713068 
L 149.971223 187.482548 
L 150.174259 188.77622 
L 150.377295 187.120621 
L 150.580331 188.165841 
L 150.783367 187.897137 
L 150.986403 187.108573 
L 151.189439 187.137123 
L 151.392475 186.134282 
L 151.798547 187.481922 
L 152.001583 186.827916 
L 152.204619 187.260408 
L 152.407655 187.300956 
L 152.610691 185.980662 
L 152.813727 186.824314 
L 153.016763 187.138989 
L 153.219799 187.045927 
L 153.625871 186.035619 
L 153.828907 187.10342 
L 154.031943 186.05416 
L 154.438015 186.775721 
L 154.641051 186.526958 
L 154.844087 187.18022 
L 155.047123 186.936934 
L 155.250159 187.187682 
L 155.453195 186.100073 
L 155.656231 186.987374 
L 155.859267 186.670629 
L 156.062303 187.236214 
L 156.265339 186.422125 
L 156.468375 187.254405 
L 156.671411 187.545473 
L 156.874447 187.164784 
L 157.077483 187.27919 
L 157.483554 185.971801 
L 157.889626 186.898483 
L 158.092662 186.403247 
L 158.498734 186.228361 
L 158.70177 186.953033 
L 158.904806 186.658761 
L 159.107842 185.926814 
L 159.310878 186.810459 
L 159.71695 186.720786 
L 160.123022 186.839835 
L 160.326058 186.281274 
L 160.529094 187.643712 
L 160.73213 187.407254 
L 161.138202 186.627489 
L 161.341238 185.615682 
L 161.544274 186.785284 
L 161.74731 186.195135 
L 161.950346 186.336597 
L 162.356418 185.74823 
L 162.559454 186.28861 
L 162.76249 185.369444 
L 162.965526 185.823659 
L 163.168562 187.251266 
L 163.371598 186.745813 
L 163.574634 186.645696 
L 163.77767 186.221716 
L 163.980706 186.494987 
L 164.386778 186.286728 
L 164.589814 187.186354 
L 164.79285 186.238986 
L 164.995886 186.470726 
L 165.198922 186.059163 
L 165.401958 186.435275 
L 165.604994 186.526073 
L 165.80803 185.498302 
L 166.011066 186.819949 
L 166.214102 185.863579 
L 166.417138 186.007242 
L 166.620174 187.04175 
L 166.82321 185.854802 
L 167.229282 186.226437 
L 167.432318 186.144764 
L 167.635354 185.684586 
L 167.83839 185.692676 
L 168.041426 186.263227 
L 168.244462 185.926904 
L 168.447498 185.933399 
L 168.650534 187.082307 
L 168.85357 185.776446 
L 169.056606 185.641486 
L 169.259642 186.340403 
L 169.665714 185.435173 
L 169.86875 185.351825 
L 170.071786 186.301795 
L 170.274822 185.162408 
L 170.680894 186.423632 
L 170.88393 185.708613 
L 171.086966 186.004211 
L 171.290002 186.082615 
L 171.493038 186.445259 
L 171.696074 185.143618 
L 171.89911 185.159742 
L 172.508218 186.220612 
L 172.711254 185.571289 
L 173.117326 186.487346 
L 173.320362 185.131178 
L 173.523398 186.19165 
L 173.726434 185.292944 
L 173.92947 185.512779 
L 174.335542 186.621221 
L 175.147685 185.239432 
L 175.350721 185.815402 
L 175.553757 185.165739 
L 175.959829 185.951198 
L 176.162865 185.398502 
L 176.365901 185.969397 
L 176.568937 185.455251 
L 176.771973 185.490334 
L 176.975009 186.067322 
L 177.178045 186.042477 
L 177.381081 186.300835 
L 177.584117 185.353181 
L 177.787153 185.176024 
L 177.990189 185.556001 
L 178.193225 185.430101 
L 178.396261 185.812587 
L 178.599297 184.876996 
L 179.005369 185.750881 
L 179.208405 185.243707 
L 179.411441 185.074214 
L 179.614477 185.974691 
L 179.817513 185.398136 
L 180.020549 186.080856 
L 180.223585 184.971578 
L 180.426621 185.678254 
L 180.629657 185.352607 
L 180.832693 185.384268 
L 181.035729 185.292584 
L 181.441801 184.879159 
L 181.847873 185.360635 
L 182.050909 185.197348 
L 182.253945 184.702978 
L 182.456981 185.724356 
L 182.660017 185.848491 
L 182.863053 185.543641 
L 183.066089 184.514657 
L 183.269125 185.081835 
L 183.472161 184.562865 
L 183.675197 185.359658 
L 183.878233 185.697741 
L 184.284305 185.609658 
L 184.487341 185.210846 
L 184.690377 186.32954 
L 184.893413 185.407236 
L 185.299485 184.954392 
L 185.502521 185.272545 
L 185.705557 185.018392 
L 185.908593 184.981016 
L 186.111629 185.161273 
L 186.314665 185.536099 
L 186.517701 185.491301 
L 186.720737 185.248602 
L 186.923773 185.683193 
L 187.329845 185.228727 
L 187.735917 185.162489 
L 188.141989 184.899785 
L 188.345025 185.231601 
L 188.548061 184.892082 
L 188.751097 185.148705 
L 188.954133 185.630381 
L 189.157169 184.969774 
L 189.360205 184.689966 
L 189.563241 184.971223 
L 189.766277 185.050948 
L 189.969313 185.507411 
L 190.375385 184.835806 
L 190.578421 184.739347 
L 190.984493 185.650606 
L 191.187529 185.363687 
L 191.390565 185.499151 
L 191.593601 184.852678 
L 191.796637 185.467167 
L 191.999673 185.084251 
L 192.405744 185.742414 
L 192.60878 184.529322 
L 192.811816 185.262119 
L 193.014852 185.054136 
L 193.217888 185.821877 
L 193.420924 184.775945 
L 193.62396 185.608048 
L 193.826996 184.931161 
L 194.030032 184.984574 
L 194.233068 185.475824 
L 194.436104 184.707572 
L 194.63914 184.890481 
L 194.842176 184.888426 
L 195.045212 185.097042 
L 195.248248 184.442056 
L 195.451284 185.066931 
L 195.857356 184.99925 
L 196.060392 185.230431 
L 196.263428 185.201895 
L 196.466464 184.666228 
L 196.6695 185.058985 
L 196.872536 184.791004 
L 197.075572 185.268593 
L 197.278608 184.543241 
L 197.481644 184.639677 
L 197.68468 185.315871 
L 197.887716 184.865023 
L 198.090752 185.297542 
L 198.293788 184.428333 
L 198.69986 185.277696 
L 199.308968 185.026349 
L 199.512004 185.827327 
L 199.918076 184.649627 
L 200.121112 184.857186 
L 200.324148 185.252651 
L 200.527184 184.396831 
L 200.73022 184.907578 
L 201.136292 184.803399 
L 201.339328 184.284619 
L 201.7454 185.074057 
L 201.948436 184.35823 
L 202.354508 184.691181 
L 202.557544 184.946116 
L 202.76058 184.498329 
L 202.963616 185.700497 
L 203.166652 185.447996 
L 203.369688 184.67573 
L 203.572724 184.549434 
L 203.77576 184.766196 
L 203.978796 184.109147 
L 204.181832 185.070314 
L 204.384868 184.849215 
L 204.79094 185.139985 
L 204.993976 184.936975 
L 205.197012 184.962524 
L 205.400048 184.668545 
L 205.603084 185.402416 
L 205.80612 185.371251 
L 206.009156 184.927216 
L 206.212192 185.266691 
L 206.415228 184.48169 
L 206.618264 184.877969 
L 206.8213 184.683281 
L 207.024336 185.13711 
L 207.227372 184.668123 
L 207.430408 185.551606 
L 207.633444 185.728845 
L 208.039516 184.412456 
L 208.242552 185.157241 
L 208.445588 185.007311 
L 208.648624 184.451631 
L 208.85166 184.788433 
L 209.054696 184.457555 
L 209.460768 184.741652 
L 209.663804 184.919692 
L 210.069875 184.367718 
L 210.475947 184.909324 
L 210.678983 184.636729 
L 211.288091 184.473384 
L 211.491127 184.901124 
L 211.897199 184.239337 
L 212.100235 184.410194 
L 212.303271 184.306416 
L 212.506307 185.056904 
L 212.709343 185.092598 
L 212.912379 184.614885 
L 213.115415 185.061723 
L 213.318451 184.366076 
L 213.521487 184.604007 
L 213.724523 184.623255 
L 213.927559 185.039333 
L 214.130595 184.224649 
L 214.536667 184.664983 
L 214.739703 184.698501 
L 214.942739 185.07177 
L 215.145775 184.649361 
L 215.348811 185.038793 
L 215.551847 184.607586 
L 216.363991 184.645824 
L 216.567027 185.0148 
L 216.770063 184.889265 
L 216.973099 184.589547 
L 217.176135 185.412149 
L 217.379171 184.658743 
L 217.785243 184.858448 
L 217.988279 184.355848 
L 218.191315 184.582583 
L 218.394351 185.217429 
L 218.597387 184.881356 
L 218.800423 184.814583 
L 219.003459 184.552271 
L 219.206495 185.24749 
L 219.409531 185.275965 
L 219.815603 184.70586 
L 220.018639 185.420497 
L 220.221675 184.64315 
L 220.424711 184.462397 
L 220.830783 184.863282 
L 221.033819 184.55039 
L 221.236855 184.82803 
L 221.439891 184.583012 
L 221.642927 184.601082 
L 222.048999 185.362106 
L 222.455071 184.093969 
L 222.658107 185.178253 
L 222.861143 184.45581 
L 223.064179 184.906509 
L 223.470251 184.662154 
L 223.673287 184.908717 
L 223.876323 184.940136 
L 224.079359 184.756087 
L 224.485431 184.751174 
L 224.688467 184.606934 
L 224.891503 184.213539 
L 225.094539 184.989016 
L 225.297575 184.937226 
L 225.500611 184.600005 
L 225.703647 185.183496 
L 225.906683 184.325617 
L 226.109719 185.142613 
L 226.312755 184.548321 
L 226.718827 185.196436 
L 226.921863 184.541841 
L 227.124899 185.141061 
L 227.327935 184.45451 
L 227.53097 184.960113 
L 227.734006 184.641143 
L 227.937042 185.006914 
L 228.140078 184.142254 
L 228.343114 185.717836 
L 228.749186 184.705641 
L 228.952222 184.969287 
L 229.358294 184.591929 
L 229.56133 184.731763 
L 229.967402 184.346913 
L 230.170438 184.952098 
L 230.373474 184.695348 
L 230.57651 184.917841 
L 230.779546 184.768187 
L 230.982582 184.019192 
L 231.388654 185.158254 
L 231.59169 184.46855 
L 231.794726 184.509091 
L 231.997762 185.060866 
L 232.200798 184.907857 
L 232.403834 184.314142 
L 232.60687 184.580203 
L 232.809906 184.333262 
L 233.012942 184.759652 
L 233.215978 184.455253 
L 233.419014 184.416623 
L 233.62205 185.260567 
L 233.825086 184.258403 
L 234.028122 184.536356 
L 234.231158 184.289052 
L 234.434194 184.291285 
L 234.63723 184.729163 
L 234.840266 184.790213 
L 235.043302 184.225509 
L 235.246338 185.176954 
L 235.449374 184.278217 
L 235.65241 184.524536 
L 235.855446 184.568891 
L 236.058482 184.78205 
L 236.261518 184.493566 
L 236.464554 184.529499 
L 236.66759 184.224853 
L 236.870626 184.921776 
L 237.073662 184.435493 
L 237.276698 184.35722 
L 237.479734 184.952763 
L 237.68277 184.54667 
L 238.088842 184.779154 
L 238.291878 184.665463 
L 238.494914 184.682498 
L 238.69795 184.209615 
L 238.900986 185.108051 
L 239.104022 184.326215 
L 239.307058 185.552568 
L 239.510094 184.526521 
L 239.71313 184.247935 
L 239.916166 185.137668 
L 240.119202 184.2759 
L 240.322238 184.218619 
L 240.525274 184.435454 
L 240.72831 184.816961 
L 240.931346 184.676522 
L 241.134382 185.082675 
L 241.540454 184.726151 
L 241.74349 184.764228 
L 241.946526 184.293939 
L 242.149562 184.291297 
L 242.352598 183.974954 
L 242.75867 184.315261 
L 242.961706 183.982627 
L 243.164742 184.843044 
L 243.367778 184.372915 
L 243.570814 184.546436 
L 243.77385 184.044585 
L 243.976886 184.560574 
L 244.179922 184.544132 
L 244.382958 184.358556 
L 244.585994 184.926348 
L 244.78903 184.176705 
L 244.992065 184.551403 
L 245.195101 184.269006 
L 245.398137 184.250267 
L 245.601173 184.807213 
L 245.804209 184.794107 
L 246.007245 185.099031 
L 246.210281 184.359208 
L 246.413317 185.229145 
L 246.616353 184.660811 
L 246.819389 184.937355 
L 247.225461 184.777727 
L 247.428497 184.780456 
L 247.631533 184.158176 
L 248.037605 184.53622 
L 248.240641 184.328809 
L 248.646713 184.526167 
L 248.849749 184.899004 
L 249.052785 184.302531 
L 249.255821 184.792052 
L 249.458857 184.389243 
L 249.661893 184.85104 
L 250.067965 184.287076 
L 250.474037 184.221764 
L 250.880109 184.703091 
L 251.083145 184.491051 
L 251.286181 184.106583 
L 251.692253 185.221672 
L 251.895289 184.621454 
L 252.098325 184.383604 
L 252.301361 184.575754 
L 252.504397 184.130872 
L 252.707433 184.164976 
L 252.910469 184.408413 
L 253.113505 184.393347 
L 253.316541 184.065767 
L 253.519577 184.472418 
L 253.722613 184.238445 
L 253.925649 184.488216 
L 254.128685 184.056538 
L 254.331721 184.630371 
L 254.534757 184.434309 
L 254.737793 184.614614 
L 254.940829 184.187757 
L 255.143865 184.184249 
L 255.346901 184.487334 
L 255.549937 184.320636 
L 255.956009 184.434815 
L 256.362081 184.349357 
L 256.768153 184.509564 
L 256.971189 184.258177 
L 257.174225 184.347081 
L 257.580297 184.060896 
L 257.986369 184.870996 
L 258.189405 184.193071 
L 258.392441 184.579241 
L 258.595477 184.330246 
L 258.798513 184.279418 
L 259.001549 184.050111 
L 259.204585 184.512345 
L 259.407621 183.904147 
L 259.813693 184.351346 
L 260.016729 184.143871 
L 260.219765 184.815868 
L 260.625837 184.433503 
L 260.828873 184.400232 
L 261.031909 184.076499 
L 261.437981 184.745664 
L 261.641017 184.176176 
L 261.844053 184.4064 
L 262.047089 184.19031 
L 262.250125 184.555313 
L 262.45316 184.580932 
L 262.656196 184.215547 
L 263.062268 184.403338 
L 263.46834 185.149639 
L 263.671376 184.208728 
L 263.874412 184.555005 
L 264.48352 184.273979 
L 264.686556 184.463559 
L 264.889592 184.278685 
L 265.092628 184.865339 
L 265.295664 184.14318 
L 265.4987 184.522765 
L 265.701736 184.632079 
L 265.904772 185.12314 
L 266.107808 184.465106 
L 266.310844 184.263825 
L 266.51388 184.682644 
L 266.716916 184.304714 
L 266.919952 184.58959 
L 267.122988 184.266796 
L 267.326024 184.752694 
L 267.52906 184.290418 
L 267.732096 184.49729 
L 267.935132 184.165813 
L 268.138168 184.378248 
L 268.341204 184.753803 
L 268.747276 184.160558 
L 268.950312 184.167271 
L 269.153348 184.731016 
L 269.356384 184.130151 
L 269.762456 184.206864 
L 269.965492 184.474606 
L 270.168528 184.343861 
L 270.371564 184.06633 
L 270.5746 184.406213 
L 270.777636 184.384592 
L 270.980672 184.50091 
L 271.183708 184.343839 
L 271.386744 184.568667 
L 271.58978 184.502236 
L 271.792816 185.58827 
L 271.995852 184.47808 
L 272.198888 184.315791 
L 272.401924 184.391832 
L 272.60496 184.00753 
L 272.807996 184.422368 
L 273.011032 184.285806 
L 273.214068 184.362719 
L 273.417104 184.302172 
L 273.62014 184.712784 
L 273.823176 184.733579 
L 274.026212 184.418867 
L 274.229248 184.358415 
L 274.432284 184.057986 
L 274.63532 184.165726 
L 274.838356 184.869338 
L 275.041392 184.065692 
L 275.244428 184.019393 
L 275.447464 184.922034 
L 275.6505 184.477576 
L 275.853536 184.371022 
L 276.056572 184.447138 
L 276.462644 184.077636 
L 277.274788 184.424133 
L 277.477824 184.178051 
L 277.883896 184.432307 
L 278.086932 184.155914 
L 278.493004 184.236692 
L 278.69604 184.02002 
L 278.899076 184.219544 
L 279.102112 184.134323 
L 279.305148 184.415647 
L 279.508184 184.188014 
L 279.914256 184.455134 
L 280.117291 184.28656 
L 280.320327 184.424862 
L 280.726399 184.169272 
L 280.929435 184.845838 
L 281.132471 184.687335 
L 281.335507 184.205874 
L 281.538543 184.244328 
L 281.741579 184.588324 
L 281.944615 184.184402 
L 282.147651 184.251224 
L 282.350687 184.08394 
L 282.553723 184.223744 
L 282.756759 185.010235 
L 283.162831 184.318947 
L 283.365867 184.645175 
L 283.568903 184.470865 
L 283.771939 184.121647 
L 283.974975 184.554701 
L 284.381047 183.927449 
L 284.787119 184.281488 
L 285.193191 183.964791 
L 285.396227 184.282763 
L 285.599263 184.386405 
L 285.802299 184.107449 
L 286.005335 184.234349 
L 286.208371 184.094743 
L 286.411407 184.20188 
L 286.614443 184.975575 
L 286.817479 183.978064 
L 287.020515 184.273377 
L 287.629623 184.357799 
L 287.832659 183.802481 
L 288.238731 184.913897 
L 288.441767 184.200475 
L 288.644803 184.647792 
L 289.050875 183.996907 
L 289.253911 183.983154 
L 289.456947 184.288338 
L 289.659983 184.174772 
L 289.863019 184.60978 
L 290.066055 184.22278 
L 290.269091 184.222697 
L 290.472127 184.561387 
L 290.675163 184.029005 
L 290.878199 184.384507 
L 291.081235 184.452618 
L 291.487307 183.991137 
L 291.893379 184.249181 
L 292.096415 185.458247 
L 292.299451 184.250705 
L 292.502487 184.381575 
L 292.705523 184.299804 
L 292.908559 183.803842 
L 293.111595 184.361005 
L 293.314631 184.391108 
L 293.517667 184.024186 
L 293.720703 184.117116 
L 293.923739 184.078068 
L 294.126775 184.243907 
L 294.329811 184.073014 
L 294.532847 184.589043 
L 294.938919 184.066543 
L 295.344991 184.202534 
L 295.548027 184.460765 
L 295.751063 184.111798 
L 295.954099 184.160289 
L 296.157135 184.916715 
L 296.360171 184.166841 
L 296.766243 184.396027 
L 296.969279 184.567307 
L 297.172315 184.10561 
L 297.375351 184.569774 
L 297.578386 184.205966 
L 297.781422 184.406781 
L 297.984458 184.130436 
L 298.187494 184.594169 
L 298.39053 183.901194 
L 298.999638 184.328813 
L 299.202674 184.042296 
L 299.40571 184.071981 
L 299.608746 184.677311 
L 300.217854 183.918484 
L 300.623926 184.41149 
L 300.826962 184.22239 
L 301.029998 184.259279 
L 301.233034 184.054654 
L 301.43607 184.26403 
L 301.639106 184.119668 
L 301.842142 185.256563 
L 302.045178 184.18573 
L 302.248214 184.166068 
L 302.45125 184.418823 
L 302.654286 184.160396 
L 303.060358 184.124388 
L 303.263394 184.415868 
L 303.46643 184.260373 
L 303.669466 184.72469 
L 303.872502 184.006471 
L 304.278574 184.3539 
L 304.48161 183.887273 
L 304.684646 184.760122 
L 305.090718 184.20175 
L 305.293754 184.310212 
L 305.49679 184.600737 
L 305.902862 183.878213 
L 306.105898 184.072736 
L 306.308934 183.988827 
L 306.51197 184.108696 
L 306.715006 184.69375 
L 306.918042 184.108758 
L 307.121078 184.061686 
L 307.324114 184.326411 
L 307.52715 184.309636 
L 307.730186 184.128483 
L 308.136258 184.14935 
L 308.339294 183.949604 
L 308.54233 184.240083 
L 308.745366 184.077482 
L 308.948402 184.082218 
L 309.354474 183.815878 
L 309.55751 184.657546 
L 309.963582 183.951886 
L 310.369654 184.249995 
L 310.57269 184.2217 
L 310.775726 183.909273 
L 310.978762 184.173354 
L 311.181798 184.111545 
L 311.384834 183.860673 
L 311.790906 184.085054 
L 311.993942 183.952782 
L 312.196978 184.284728 
L 312.400014 183.864316 
L 312.60305 184.024355 
L 312.806086 183.942129 
L 313.009122 184.169866 
L 313.415194 184.21626 
L 313.821266 184.2416 
L 314.024302 183.93151 
L 314.430374 184.060971 
L 314.63341 183.950179 
L 315.851625 184.092128 
L 316.054661 183.921721 
L 316.257697 184.303354 
L 316.460733 183.965772 
L 316.663769 184.082238 
L 316.866805 183.979169 
L 317.069841 184.159682 
L 317.475913 184.157455 
L 317.678949 183.79639 
L 317.881985 183.986666 
L 318.085021 183.822577 
L 318.491093 183.938144 
L 318.694129 184.711926 
L 318.897165 184.026339 
L 319.303237 184.232002 
L 319.506273 184.726934 
L 319.709309 184.485329 
L 319.912345 183.986725 
L 320.115381 184.45428 
L 320.521453 184.145427 
L 320.724489 183.934765 
L 321.130561 184.431882 
L 321.333597 184.069926 
L 321.536633 184.407641 
L 321.942705 184.194474 
L 322.145741 184.386432 
L 322.348777 183.97634 
L 322.754849 184.351191 
L 323.160921 184.029851 
L 323.363957 183.987728 
L 323.566993 184.259525 
L 323.770029 184.016201 
L 324.176101 184.434539 
L 324.379137 183.98056 
L 324.582173 184.317156 
L 324.785209 184.199019 
L 324.988245 183.748774 
L 325.191281 184.412597 
L 325.394317 183.881377 
L 325.597353 184.038191 
L 325.800389 184.427519 
L 326.003425 183.93542 
L 326.206461 184.010603 
L 326.409497 183.834783 
L 326.815569 184.189415 
L 327.018605 183.786358 
L 327.221641 184.397157 
L 327.424677 184.045243 
L 327.627713 184.75959 
L 327.830749 184.512805 
L 328.033785 183.910617 
L 328.236821 184.433265 
L 328.439857 184.039244 
L 328.642893 185.148449 
L 328.845929 184.189308 
L 329.048965 185.298844 
L 329.252001 184.429335 
L 329.455037 184.190489 
L 330.064145 184.042931 
L 330.267181 183.809377 
L 330.673253 183.929766 
L 331.079325 184.483617 
L 331.282361 184.420006 
L 331.485397 184.017905 
L 331.688433 184.253304 
L 331.891469 184.168008 
L 332.297541 184.441146 
L 332.500576 184.182245 
L 332.906648 184.110642 
L 333.109684 184.390246 
L 333.31272 184.02921 
L 333.515756 184.939959 
L 333.718792 183.857929 
L 333.921828 184.937699 
L 334.124864 183.957614 
L 334.3279 184.144013 
L 334.530936 184.108551 
L 334.733972 184.216998 
L 334.937008 183.889809 
L 335.140044 184.135313 
L 335.34308 183.846201 
L 335.546116 184.091813 
L 335.749152 183.903854 
L 335.952188 183.895496 
L 336.35826 185.015609 
L 336.561296 184.00577 
L 336.764332 184.306427 
L 337.170404 184.039492 
L 337.37344 184.070317 
L 337.576476 184.991542 
L 337.779512 183.988152 
L 337.982548 183.931907 
L 338.185584 184.065525 
L 338.38862 183.982481 
L 338.591656 184.632591 
L 338.794692 183.96031 
L 338.997728 184.025551 
L 339.200764 183.812997 
L 339.606836 183.925975 
L 339.809872 184.234628 
L 340.012908 183.896097 
L 340.215944 183.806212 
L 340.622016 184.065101 
L 340.825052 184.066002 
L 341.028088 184.329442 
L 341.43416 184.08402 
L 341.637196 184.380641 
L 341.840232 184.197792 
L 342.043268 184.199496 
L 342.246304 183.870965 
L 342.44934 184.455216 
L 342.652376 184.266958 
L 342.855412 183.879013 
L 343.058448 183.790649 
L 343.261484 184.216944 
L 343.46452 184.008623 
L 343.667556 184.225797 
L 343.870592 183.941759 
L 344.276664 183.834463 
L 344.682736 184.101755 
L 344.885772 183.791431 
L 345.49488 183.993156 
L 345.697916 183.816184 
L 345.900952 184.025143 
L 346.103988 184.423262 
L 346.307024 183.986634 
L 346.713096 183.939833 
L 346.916132 184.559875 
L 347.119168 183.844897 
L 347.322204 184.308064 
L 347.52524 184.286866 
L 347.728276 183.995801 
L 348.54042 184.004189 
L 348.743456 184.171611 
L 348.946492 183.986442 
L 349.352564 184.036975 
L 349.5556 184.198515 
L 349.758636 183.935255 
L 349.961671 183.912723 
L 350.367743 184.684347 
L 350.570779 183.910517 
L 350.773815 184.016615 
L 350.976851 183.885783 
L 351.788995 184.091375 
L 351.992031 183.71854 
L 352.195067 184.340824 
L 352.398103 184.058261 
L 352.601139 184.393451 
L 353.007211 183.874919 
L 353.210247 184.411168 
L 353.413283 184.068782 
L 353.616319 184.097338 
L 353.819355 183.696943 
L 354.022391 184.461083 
L 354.225427 184.309921 
L 354.428463 183.92001 
L 354.631499 184.118872 
L 354.834535 183.847652 
L 355.037571 184.031252 
L 355.240607 183.90015 
L 355.646679 184.121294 
L 355.849715 183.956419 
L 356.052751 184.553537 
L 356.255787 184.643575 
L 356.458823 183.965182 
L 357.067931 183.953478 
L 357.270967 184.446653 
L 357.474003 184.546069 
L 357.880075 183.876111 
L 358.286147 183.812272 
L 358.692219 184.215044 
L 358.895255 183.931039 
L 359.098291 184.250659 
L 359.504363 184.094772 
L 359.910435 183.713338 
L 360.113471 184.379517 
L 360.316507 183.745166 
L 360.722579 184.724187 
L 361.128651 184.117778 
L 361.331687 183.908591 
L 361.737759 184.30201 
L 361.940795 184.615617 
L 362.346867 183.739953 
L 362.752939 183.87936 
L 362.955975 184.388695 
L 363.159011 183.967671 
L 363.362047 183.85707 
L 364.174191 184.748123 
L 364.580263 183.958634 
L 364.783299 183.994523 
L 364.986335 184.243315 
L 365.189371 183.970111 
L 365.798479 184.008321 
L 366.001515 183.810571 
L 366.204551 184.22381 
L 366.407587 184.004466 
L 366.813659 183.872751 
L 367.016695 184.00138 
L 367.219731 184.979343 
L 367.422767 184.079571 
L 367.625802 184.36458 
L 367.828838 184.350793 
L 368.031874 184.032778 
L 368.23491 184.684535 
L 368.437946 183.812023 
L 368.640982 183.968342 
L 368.844018 183.976001 
L 369.25009 183.652456 
L 369.453126 184.001758 
L 369.656162 183.719215 
L 369.859198 184.475355 
L 370.062234 183.785029 
L 370.26527 184.186461 
L 370.468306 183.887185 
L 370.671342 184.130244 
L 371.077414 183.970326 
L 371.28045 183.971865 
L 371.483486 183.661681 
L 371.889558 183.917305 
L 372.092594 183.910332 
L 372.29563 183.7892 
L 372.498666 184.25785 
L 372.904738 183.973408 
L 373.107774 184.05274 
L 373.31081 183.917449 
L 373.513846 184.325964 
L 373.716882 183.730578 
L 373.919918 184.100909 
L 374.122954 183.747554 
L 374.32599 183.972221 
L 374.529026 183.68226 
L 374.732062 184.100853 
L 375.747242 183.888189 
L 376.35635 183.924416 
L 376.559386 184.503861 
L 376.762422 183.901423 
L 376.965458 183.892254 
L 377.168494 184.163219 
L 377.37153 184.138575 
L 377.574566 183.787089 
L 377.980638 184.180365 
L 378.183674 183.723626 
L 378.38671 183.95097 
L 378.589746 183.803723 
L 379.604926 183.941128 
L 379.807962 183.818435 
L 380.41707 184.117663 
L 380.620106 183.990298 
L 380.823142 184.362155 
L 381.026178 184.008568 
L 381.229214 184.186644 
L 381.43225 184.171082 
L 381.635286 183.879171 
L 381.838322 183.788272 
L 382.041358 183.896549 
L 382.244394 183.820105 
L 382.650466 183.958351 
L 383.056538 183.765276 
L 383.259574 184.37391 
L 383.46261 184.089187 
L 383.868682 184.380066 
L 384.071718 183.947064 
L 384.47779 184.327457 
L 384.680826 183.838483 
L 384.883862 184.09352 
L 385.086897 183.825937 
L 385.289933 183.888807 
L 385.492969 184.100901 
L 385.696005 183.84292 
L 385.899041 183.962244 
L 386.102077 183.919865 
L 386.305113 184.233994 
L 386.508149 183.927473 
L 386.711185 184.037691 
L 386.914221 183.946748 
L 387.117257 184.085431 
L 387.929401 184.042918 
L 388.132437 184.140145 
L 388.335473 183.947799 
L 388.538509 184.234939 
L 388.741545 184.161822 
L 388.944581 183.897573 
L 389.756725 184.148303 
L 389.959761 183.94985 
L 390.974941 183.974073 
L 391.177977 183.847092 
L 391.584049 184.376338 
L 391.787085 184.094034 
L 392.193157 184.13865 
L 392.396193 183.885381 
L 392.802265 183.779094 
L 393.005301 184.354274 
L 393.208337 183.704432 
L 393.411373 184.103386 
L 393.614409 183.927079 
L 393.817445 184.240175 
L 394.020481 183.931946 
L 394.223517 183.911397 
L 394.426553 184.192626 
L 394.629589 183.873553 
L 394.832625 184.005574 
L 395.035661 183.763108 
L 395.238697 184.269031 
L 395.441733 183.929418 
L 395.644769 184.162981 
L 395.847805 183.895614 
L 396.050841 184.338604 
L 396.253877 184.406144 
L 396.659949 183.898389 
L 396.862985 184.075419 
L 397.269057 183.88044 
L 397.472093 184.022237 
L 397.675129 183.773149 
L 397.878165 183.78817 
L 398.081201 184.44422 
L 398.284237 183.719263 
L 398.487273 184.378627 
L 398.487273 184.378627 
" style="fill:none;stroke:#ff7f0e;stroke-linecap:square;stroke-width:1.5;"/>
   </g>
   <g id="line2d_33">
    <path clip-path="url(#p5f69208cd7)" d="M 73.832727 53.568 
L 134.540488 53.568 
L 134.743524 128.799147 
L 134.94656 131.92497 
L 135.149596 124.446457 
L 135.352632 123.213996 
L 135.555668 105.446961 
L 135.758704 121.060802 
L 135.96174 123.572638 
L 136.164776 121.461559 
L 136.367812 120.815299 
L 136.570848 116.359072 
L 136.773884 120.595449 
L 136.97692 130.426391 
L 137.179956 117.196295 
L 137.382992 125.937826 
L 137.586028 108.893344 
L 137.789064 126.335798 
L 137.9921 124.126388 
L 138.195136 118.866493 
L 138.398172 123.765117 
L 138.601208 119.804943 
L 138.804244 125.738392 
L 139.00728 119.094087 
L 139.210316 124.28931 
L 139.413352 125.125899 
L 139.819424 134.810316 
L 140.022459 116.742804 
L 140.225495 117.095557 
L 140.428531 124.924447 
L 140.834603 120.267631 
L 141.037639 114.768746 
L 141.240675 116.630804 
L 141.443711 116.269249 
L 141.646747 131.728368 
L 141.849783 129.331907 
L 142.052819 134.490238 
L 142.255855 126.59599 
L 142.458891 141.704199 
L 142.864963 116.338981 
L 143.067999 135.566832 
L 143.271035 122.948416 
L 143.474071 123.053135 
L 143.677107 128.645052 
L 143.880143 122.683374 
L 144.083179 123.713234 
L 144.489251 129.666296 
L 144.692287 137.162665 
L 144.895323 130.1069 
L 145.098359 118.639531 
L 145.301395 126.857377 
L 145.504431 129.124994 
L 145.707467 133.331319 
L 145.910503 112.536396 
L 146.316575 126.236156 
L 146.519611 128.268168 
L 146.722647 109.590639 
L 146.925683 135.49214 
L 147.128719 123.446521 
L 147.331755 118.535596 
L 147.534791 135.657003 
L 147.940863 115.409101 
L 148.143899 131.776052 
L 148.346935 124.888499 
L 148.549971 129.923436 
L 148.753007 143.715655 
L 148.956043 138.030674 
L 149.159079 144.208369 
L 149.362115 131.47206 
L 149.565151 138.802203 
L 149.768187 134.055708 
L 149.971223 136.55099 
L 150.174259 124.156465 
L 150.377295 140.792658 
L 150.580331 129.548745 
L 150.783367 132.164481 
L 150.986403 140.941403 
L 151.189439 140.589744 
L 151.392475 155.089861 
L 151.798547 136.557964 
L 152.001583 144.56223 
L 152.204619 139.103717 
L 152.407655 138.62613 
L 152.610691 157.813144 
L 152.813727 144.61076 
L 153.016763 140.566852 
L 153.219799 141.72339 
L 153.625871 156.81923 
L 153.828907 141.005187 
L 154.031943 156.488953 
L 154.438015 145.270795 
L 154.641051 148.818528 
L 154.844087 140.064344 
L 155.047123 143.119063 
L 155.250159 139.974018 
L 155.453195 155.681721 
L 155.656231 142.467501 
L 155.859267 146.734002 
L 156.062303 139.391275 
L 156.265339 150.405841 
L 156.468375 139.174879 
L 156.671411 135.855047 
L 156.874447 140.251779 
L 157.077483 138.881832 
L 157.483554 157.975543 
L 157.68659 147.56574 
L 157.889626 143.62254 
L 158.092662 150.697989 
L 158.498734 153.502581 
L 158.70177 142.910027 
L 158.904806 146.902413 
L 159.107842 158.80949 
L 159.310878 144.797913 
L 159.71695 146.029429 
L 159.919986 144.590683 
L 160.123022 144.402064 
L 160.326058 152.63471 
L 160.529094 134.791018 
L 160.73213 137.399081 
L 161.138202 147.349374 
L 161.341238 165.058215 
L 161.544274 145.140091 
L 161.74731 154.05656 
L 161.950346 151.745512 
L 162.356418 162.28652 
L 162.559454 152.515731 
L 162.76249 170.722419 
L 162.965526 160.784087 
L 163.168562 139.212151 
L 163.371598 145.682154 
L 163.574634 147.088581 
L 163.77767 153.612799 
L 163.980706 149.296457 
L 164.183742 151.725743 
L 164.386778 152.546229 
L 164.589814 139.990081 
L 164.79285 153.326898 
L 164.995886 149.662694 
L 165.198922 156.400264 
L 165.401958 150.203505 
L 165.604994 148.831685 
L 165.80803 167.667767 
L 166.011066 144.669633 
L 166.214102 160.009322 
L 166.417138 157.329603 
L 166.620174 141.776051 
L 166.82321 160.17849 
L 167.026246 155.507769 
L 167.229282 153.534467 
L 167.432318 154.91011 
L 167.635354 163.595553 
L 167.83839 163.426969 
L 168.041426 152.928766 
L 168.244462 158.807813 
L 168.447498 158.686429 
L 168.650534 141.267527 
L 168.85357 161.718441 
L 169.056606 164.504737 
L 169.259642 151.685011 
L 169.665714 169.137877 
L 169.86875 171.157005 
L 170.071786 152.302749 
L 170.274822 176.120325 
L 170.680894 150.38261 
L 170.88393 163.096756 
L 171.086966 157.384472 
L 171.290002 155.986908 
L 171.493038 150.050511 
L 171.696074 176.644379 
L 171.89911 176.194309 
L 172.305182 159.90889 
L 172.508218 153.631137 
L 172.711254 166.027047 
L 173.117326 149.411465 
L 173.320362 176.994763 
L 173.523398 154.115082 
L 173.726434 172.641165 
L 173.92947 167.337422 
L 174.335542 147.439529 
L 175.147685 174.034529 
L 175.350721 160.946052 
L 175.553757 176.028055 
L 175.959829 158.355504 
L 176.162865 170.014892 
L 176.365901 158.019707 
L 176.568937 168.664966 
L 176.771973 167.850633 
L 176.975009 156.256007 
L 177.178045 156.696769 
L 177.381081 152.318211 
L 177.584117 171.123406 
L 177.787153 175.744403 
L 177.990189 166.365687 
L 178.193225 169.258141 
L 178.396261 161.00141 
L 178.599297 184.834028 
L 179.005369 162.232829 
L 179.208405 173.921601 
L 179.411441 178.63548 
L 179.614477 157.92252 
L 179.817513 170.02374 
L 180.020549 156.017783 
L 180.223585 181.753647 
L 180.426621 163.727959 
L 180.629657 171.137641 
L 180.832693 170.36005 
L 181.035729 172.650383 
L 181.441801 184.761151 
L 181.847873 170.939182 
L 182.050909 175.161993 
L 182.253945 191.123911 
L 182.456981 162.772989 
L 182.660017 160.300532 
L 182.863053 166.641374 
L 183.066089 199.100388 
L 183.269125 178.412434 
L 183.472161 196.919847 
L 183.675197 170.963289 
L 183.878233 163.321756 
L 184.081269 163.693297 
L 184.284305 165.188443 
L 184.487341 174.797231 
L 184.690377 151.857937 
L 184.893413 169.804421 
L 185.299485 182.297772 
L 185.502521 173.167165 
L 185.705557 180.304257 
L 185.908593 181.457611 
L 186.111629 176.151803 
L 186.314665 166.810471 
L 186.517701 167.828403 
L 186.720737 173.792628 
L 186.923773 163.624639 
L 187.329845 174.318611 
L 187.532881 173.770624 
L 187.938953 179.577496 
L 188.141989 184.072156 
L 188.345025 174.24217 
L 188.548061 184.328228 
L 188.954133 164.742081 
L 189.360205 191.631722 
L 189.563241 181.764801 
L 189.766277 179.323434 
L 189.969313 167.459621 
L 190.375385 186.244933 
L 190.578421 189.734327 
L 190.781457 171.061032 
L 190.984493 164.310775 
L 191.187529 170.86397 
L 191.390565 167.648319 
L 191.593601 185.661603 
L 191.796637 168.386677 
L 191.999673 178.341971 
L 192.405744 162.404531 
L 192.60878 198.425785 
L 192.811816 173.438447 
L 193.014852 179.228513 
L 193.217888 160.818978 
L 193.420924 188.378171 
L 193.62396 165.223314 
L 193.826996 183.044032 
L 194.030032 181.346509 
L 194.233068 168.185603 
L 194.436104 190.945973 
L 194.63914 184.381613 
L 194.842176 184.450272 
L 195.045212 177.970671 
L 195.248248 202.597363 
L 195.451284 178.849679 
L 195.65432 179.196119 
L 195.857356 180.891201 
L 196.060392 174.273283 
L 196.263428 175.03877 
L 196.466464 192.573232 
L 196.6695 179.08458 
L 196.872536 187.831878 
L 197.075572 173.269793 
L 197.278608 197.794758 
L 197.481644 193.650213 
L 197.68468 172.057338 
L 197.887716 185.239574 
L 198.090752 172.523444 
L 198.293788 203.290007 
L 198.496824 181.315921 
L 198.69986 173.033741 
L 198.902896 174.860631 
L 199.105932 174.594175 
L 199.308968 180.062517 
L 199.512004 160.712306 
L 199.918076 193.243592 
L 200.324148 173.686245 
L 200.527184 204.921335 
L 200.73022 183.814558 
L 200.933256 184.816766 
L 201.136292 187.387158 
L 201.339328 211.263764 
L 201.7454 178.640088 
L 201.948436 207.00423 
L 202.557544 182.562205 
L 202.76058 199.863515 
L 202.963616 163.264604 
L 203.166652 168.835255 
L 203.369688 192.193991 
L 203.572724 197.516798 
L 203.77576 188.73543 
L 203.978796 223.400926 
L 204.181832 178.750061 
L 204.384868 185.780701 
L 204.79094 176.746422 
L 204.993976 182.856072 
L 205.197012 182.039472 
L 205.400048 192.480431 
L 205.603084 169.920446 
L 205.80612 170.678094 
L 206.009156 183.17199 
L 206.212192 173.319286 
L 206.415228 200.654775 
L 206.618264 184.801222 
L 206.8213 191.894873 
L 207.024336 176.827338 
L 207.227372 192.497347 
L 207.430408 166.463527 
L 207.633444 162.681116 
L 208.039516 204.104815 
L 208.242552 176.263811 
L 208.445588 180.643084 
L 208.648624 202.120361 
L 208.85166 187.924668 
L 209.054696 201.827704 
L 209.257732 192.427857 
L 209.460768 189.647677 
L 209.663804 183.41708 
L 210.069875 206.48329 
L 210.475947 183.757061 
L 210.678983 193.7714 
L 211.085055 197.752464 
L 211.288091 201.054969 
L 211.491127 184.027786 
L 211.897199 214.098364 
L 212.100235 204.222109 
L 212.303271 209.960111 
L 212.506307 179.146305 
L 212.709343 178.099323 
L 212.912379 194.679749 
L 213.115415 179.003494 
L 213.318451 206.573003 
L 213.521487 195.139029 
L 213.724523 194.329551 
L 213.927559 179.670865 
L 214.130595 215.05726 
L 214.536667 192.623129 
L 214.739703 191.29797 
L 214.942739 178.707243 
L 215.145775 193.254409 
L 215.348811 179.687091 
L 215.551847 194.987405 
L 215.754883 193.847952 
L 215.957919 195.590443 
L 216.160955 190.767545 
L 216.363991 193.398573 
L 216.567027 180.413826 
L 216.770063 184.422215 
L 216.973099 195.756906 
L 217.176135 169.686465 
L 217.379171 192.874225 
L 217.582207 186.430182 
L 217.785243 185.463836 
L 217.988279 207.135938 
L 218.191315 196.057549 
L 218.394351 174.620421 
L 218.597387 184.68724 
L 218.800423 186.989651 
L 219.003459 197.390048 
L 219.206495 173.821904 
L 219.409531 173.078532 
L 219.815603 191.012194 
L 220.018639 169.48677 
L 220.221675 193.507857 
L 220.424711 201.589919 
L 220.627747 189.530654 
L 220.830783 185.298858 
L 221.033819 197.474044 
L 221.236855 186.516335 
L 221.439891 196.038988 
L 221.642927 195.263362 
L 222.048999 170.902915 
L 222.252035 186.628488 
L 222.455071 224.620872 
L 222.658107 175.683164 
L 222.861143 201.913694 
L 223.064179 183.849802 
L 223.470251 192.736805 
L 223.673287 183.777043 
L 223.876323 182.754246 
L 224.079359 189.108915 
L 224.282395 188.727748 
L 224.485431 189.291547 
L 224.688467 195.01501 
L 224.891503 215.79632 
L 225.094539 181.208227 
L 225.297575 182.848 
L 225.500611 195.309209 
L 225.703647 175.539445 
L 225.906683 208.842082 
L 226.109719 176.67258 
L 226.312755 197.566616 
L 226.515791 180.809537 
L 226.718827 175.186733 
L 226.921863 197.857819 
L 227.124899 176.716154 
L 227.327935 201.977887 
L 227.53097 182.115897 
L 227.734006 193.590078 
L 227.937042 180.65527 
L 228.140078 220.848437 
L 228.343114 162.906782 
L 228.749186 191.020676 
L 228.952222 181.825788 
L 229.358294 195.654545 
L 229.56133 190.020547 
L 229.764366 196.588699 
L 229.967402 207.633529 
L 230.170438 182.370915 
L 230.373474 191.420972 
L 230.57651 183.477586 
L 230.779546 188.662235 
L 230.982582 231.161202 
L 231.388654 176.235639 
L 231.59169 201.289561 
L 231.794726 199.359083 
L 231.997762 179.028869 
L 232.200798 183.805373 
L 232.403834 209.506934 
L 232.60687 196.160755 
L 232.809906 208.404501 
L 233.012942 188.976839 
L 233.215978 201.941189 
L 233.419014 203.88953 
L 233.62205 173.478956 
L 233.825086 212.883182 
L 234.028122 198.105805 
L 234.231158 210.995584 
L 234.434194 210.861092 
L 234.63723 190.119107 
L 234.840266 187.860382 
L 235.043302 215.000587 
L 235.246338 175.718842 
L 235.449374 211.653894 
L 235.65241 198.644849 
L 235.855446 196.65455 
L 236.058482 188.155882 
L 236.261518 200.088582 
L 236.464554 198.417698 
L 236.66759 215.043813 
L 236.870626 183.34906 
L 237.073662 202.927298 
L 237.276698 207.060046 
L 237.479734 182.349687 
L 237.68277 197.640643 
L 238.088842 188.261194 
L 238.291878 192.603902 
L 238.494914 191.925774 
L 238.69795 216.06024 
L 238.900986 177.653584 
L 239.104022 208.807711 
L 239.307058 166.442092 
L 239.71313 213.546275 
L 239.916166 176.811612 
L 240.119202 211.795949 
L 240.322238 215.456924 
L 240.72831 186.905582 
L 240.931346 192.162511 
L 241.134382 178.387933 
L 241.540454 190.233556 
L 241.74349 188.807905 
L 241.946526 210.701744 
L 242.149562 210.860378 
L 242.352598 235.525125 
L 242.555634 217.329284 
L 242.75867 209.441683 
L 242.961706 234.737596 
L 243.164742 185.99374 
L 243.367778 206.200472 
L 243.570814 197.651159 
L 243.77385 228.833213 
L 243.976886 197.021096 
L 244.179922 197.754671 
L 244.382958 206.98624 
L 244.585994 183.200206 
L 244.78903 218.336489 
L 244.992065 197.428801 
L 245.195101 212.221227 
L 245.398137 213.397723 
L 245.601173 187.2512 
L 245.804209 187.720113 
L 246.007245 177.913236 
L 246.210281 206.950241 
L 246.413317 174.30749 
L 246.616353 192.790869 
L 246.819389 182.843831 
L 247.022425 186.95068 
L 247.225461 188.313174 
L 247.428497 188.213807 
L 247.631533 219.67023 
L 247.834569 204.694243 
L 248.037605 198.111937 
L 248.240641 208.658884 
L 248.443677 201.475502 
L 248.646713 198.570085 
L 248.849749 184.098039 
L 249.052785 210.189744 
L 249.255821 187.79408 
L 249.458857 205.32327 
L 249.661893 185.717914 
L 250.067965 211.11491 
L 250.271001 210.979887 
L 250.474037 215.248031 
L 250.880109 191.119523 
L 251.083145 200.207896 
L 251.286181 223.6047 
L 251.692253 174.506855 
L 252.098325 205.624289 
L 252.301361 196.354344 
L 252.504397 221.709891 
L 252.707433 219.176171 
L 252.910469 204.314715 
L 253.113505 205.105436 
L 253.316541 226.978402 
L 253.519577 201.101779 
L 253.722613 214.156008 
L 253.925649 200.342769 
L 254.128685 227.777273 
L 254.331721 194.033935 
L 254.534757 202.987073 
L 254.737793 194.691127 
L 254.940829 217.559301 
L 255.143865 217.804566 
L 255.346901 200.384789 
L 255.549937 209.129462 
L 255.956009 202.961525 
L 256.159045 207.065109 
L 256.362081 207.496893 
L 256.768153 199.337027 
L 256.971189 212.897344 
L 257.174225 207.624126 
L 257.580297 227.398244 
L 257.783333 195.014162 
L 257.986369 185.036775 
L 258.189405 217.190226 
L 258.392441 196.202534 
L 258.595477 208.576602 
L 258.798513 211.580454 
L 259.001549 228.341984 
L 259.204585 199.207665 
L 259.407621 243.51711 
L 259.813693 207.385988 
L 260.016729 220.727384 
L 260.219765 186.944193 
L 260.625837 203.027807 
L 260.828873 204.742374 
L 261.031909 226.066812 
L 261.234945 197.731349 
L 261.437981 189.497276 
L 261.641017 218.374046 
L 261.844053 204.419531 
L 262.047089 217.381595 
L 262.250125 197.254525 
L 262.45316 196.129141 
L 262.656196 215.661857 
L 262.859232 211.879566 
L 263.062268 204.579495 
L 263.46834 176.475757 
L 263.671376 216.120149 
L 263.874412 197.268224 
L 264.077448 202.954357 
L 264.280484 203.096885 
L 264.48352 211.914063 
L 264.686556 201.533047 
L 264.889592 211.625253 
L 265.092628 185.228803 
L 265.295664 220.779087 
L 265.4987 198.726164 
L 265.701736 193.96324 
L 265.904772 177.22263 
L 266.310844 212.543447 
L 266.51388 191.920021 
L 266.716916 210.060594 
L 266.919952 195.755087 
L 267.122988 212.358405 
L 267.326024 189.234971 
L 267.52906 210.913232 
L 267.732096 199.912546 
L 267.935132 219.115749 
L 268.341204 189.193713 
L 268.747276 219.496598 
L 268.950312 219.01067 
L 269.153348 190.048854 
L 269.356384 221.765013 
L 269.55942 217.523852 
L 269.762456 216.246204 
L 269.965492 200.995872 
L 270.168528 207.80475 
L 270.371564 226.930134 
L 270.5746 204.429325 
L 270.777636 205.571431 
L 270.980672 199.742029 
L 271.183708 207.806024 
L 271.386744 196.664388 
L 271.58978 199.679754 
L 271.792816 165.653934 
L 271.995852 200.828258 
L 272.198888 209.410793 
L 272.401924 205.185744 
L 272.60496 232.271577 
L 272.807996 203.594421 
L 273.011032 211.191817 
L 273.214068 206.757007 
L 273.417104 210.211048 
L 273.62014 190.744973 
L 273.823176 189.951824 
L 274.026212 203.774045 
L 274.229248 206.994034 
L 274.432284 227.65096 
L 274.63532 219.122013 
L 274.838356 185.092975 
L 275.041392 226.984847 
L 275.244428 231.142304 
L 275.447464 183.340654 
L 275.6505 200.85257 
L 275.853536 206.303264 
L 276.056572 202.343563 
L 276.462644 225.971281 
L 276.66568 218.371124 
L 277.071752 211.565924 
L 277.274788 203.50414 
L 277.477824 218.241166 
L 277.883896 203.088323 
L 278.086932 219.835774 
L 278.289968 219.594833 
L 278.493004 214.269517 
L 278.69604 231.08338 
L 278.899076 215.395349 
L 279.102112 221.446988 
L 279.305148 203.939855 
L 279.508184 217.541387 
L 279.914256 201.94706 
L 280.117291 211.146155 
L 280.320327 203.466867 
L 280.726399 218.866829 
L 280.929435 185.897179 
L 281.132471 191.735086 
L 281.335507 216.313332 
L 281.538543 213.777059 
L 281.741579 195.809598 
L 281.944615 217.793849 
L 282.147651 213.336869 
L 282.350687 225.445276 
L 282.553723 215.11701 
L 282.756759 180.553436 
L 283.162831 209.227353 
L 283.365867 193.425074 
L 283.568903 201.177066 
L 283.771939 222.420304 
L 283.974975 197.281769 
L 284.178011 211.583568 
L 284.381047 240.729338 
L 284.787119 211.454129 
L 285.193191 236.589562 
L 285.396227 211.376519 
L 285.599263 205.474531 
L 285.802299 223.535822 
L 286.005335 214.421726 
L 286.208371 224.557828 
L 286.411407 216.585047 
L 286.614443 181.628021 
L 286.817479 235.204266 
L 287.020515 211.951083 
L 287.223551 209.137772 
L 287.426587 211.136571 
L 287.629623 207.028023 
L 287.832659 258.180838 
L 288.035695 197.385394 
L 288.238731 183.606789 
L 288.441767 216.681088 
L 288.644803 193.318284 
L 289.050875 233.307237 
L 289.253911 234.683992 
L 289.456947 211.038685 
L 289.659983 218.473863 
L 289.863019 194.894723 
L 290.066055 215.180725 
L 290.269091 215.186242 
L 290.472127 196.985162 
L 290.675163 230.247359 
L 290.878199 205.575961 
L 291.081235 202.071473 
L 291.487307 233.879783 
L 291.893379 213.466871 
L 292.096415 168.594837 
L 292.299451 213.369889 
L 292.502487 205.733114 
L 292.705523 210.351605 
L 292.908559 257.949998 
L 293.111595 206.85125 
L 293.314631 205.224155 
L 293.517667 230.693811 
L 293.720703 222.773285 
L 293.923739 225.935073 
L 294.126775 213.804089 
L 294.329811 226.360816 
L 294.532847 195.778607 
L 294.938919 226.911874 
L 295.141955 225.476585 
L 295.344991 216.540453 
L 295.548027 201.669922 
L 295.751063 223.191143 
L 295.954099 219.516109 
L 296.157135 183.514458 
L 296.360171 219.041673 
L 296.563207 214.066904 
L 296.969279 196.724145 
L 297.172315 223.682305 
L 297.375351 196.615834 
L 297.578386 216.307062 
L 297.781422 204.399698 
L 297.984458 221.743265 
L 298.187494 195.558489 
L 298.39053 243.882859 
L 298.796602 209.646739 
L 298.999638 208.658653 
L 299.202674 229.038219 
L 299.40571 226.448348 
L 299.608746 192.131201 
L 300.014818 219.323153 
L 300.217854 241.781816 
L 300.42089 215.859001 
L 300.623926 204.154898 
L 300.826962 215.206543 
L 301.029998 212.828071 
L 301.233034 227.942034 
L 301.43607 212.53066 
L 301.639106 222.574092 
L 301.842142 173.583671 
L 302.045178 217.700853 
L 302.248214 219.097351 
L 302.45125 203.776278 
L 302.654286 219.508379 
L 302.857322 217.298054 
L 303.060358 222.208068 
L 303.263394 203.928479 
L 303.46643 212.7594 
L 303.669466 190.289175 
L 303.872502 232.373806 
L 304.075538 213.45598 
L 304.278574 207.243949 
L 304.48161 245.647661 
L 304.684646 188.959455 
L 305.090718 216.593944 
L 305.293754 209.736862 
L 305.49679 195.27803 
L 305.699826 211.819068 
L 305.902862 246.834116 
L 306.105898 226.384374 
L 306.308934 234.111045 
L 306.51197 223.436677 
L 306.715006 191.48345 
L 306.918042 223.431811 
L 307.121078 227.329953 
L 307.324114 208.796435 
L 307.52715 209.770683 
L 307.730186 221.892834 
L 307.933222 220.287202 
L 308.136258 220.319597 
L 308.339294 238.228145 
L 308.54233 214.050211 
L 308.745366 225.984237 
L 308.948402 225.588356 
L 309.354474 255.957344 
L 309.55751 192.92255 
L 309.963582 237.978187 
L 310.369654 213.415029 
L 310.57269 215.252296 
L 310.775726 242.889068 
L 310.978762 218.57485 
L 311.181798 223.211181 
L 311.384834 249.222501 
L 311.58787 228.55707 
L 311.790906 225.353006 
L 311.993942 237.880326 
L 312.196978 211.257133 
L 312.400014 248.716008 
L 312.60305 230.678067 
L 312.806086 239.056812 
L 313.009122 218.824233 
L 313.212158 221.063722 
L 313.61823 212.573486 
L 313.821266 213.952429 
L 314.024302 240.260498 
L 314.430374 227.391827 
L 314.63341 238.165082 
L 314.836446 235.355127 
L 315.039481 240.972726 
L 315.242517 221.508475 
L 315.648589 234.413047 
L 315.851625 224.771072 
L 316.054661 241.399043 
L 316.257697 210.140982 
L 316.460733 236.485762 
L 316.663769 225.586729 
L 316.866805 235.090773 
L 317.069841 219.560382 
L 317.272877 223.989492 
L 317.475913 219.722895 
L 317.678949 259.228648 
L 317.881985 234.328426 
L 318.085021 254.8849 
L 318.491093 239.504754 
L 318.694129 190.778012 
L 318.897165 230.493795 
L 319.303237 214.574666 
L 319.506273 190.203773 
L 319.709309 200.480497 
L 319.912345 234.322473 
L 320.115381 201.989271 
L 320.318417 215.341667 
L 320.521453 220.61122 
L 320.724489 239.88813 
L 320.927525 210.971854 
L 321.130561 203.109863 
L 321.333597 226.622984 
L 321.536633 204.354889 
L 321.942705 217.093362 
L 322.145741 205.473099 
L 322.348777 235.381812 
L 322.754849 207.394621 
L 323.160921 230.169451 
L 323.363957 234.221433 
L 323.566993 212.812651 
L 323.770029 231.443442 
L 324.176101 202.975449 
L 324.379137 234.948418 
L 324.582173 209.331369 
L 324.785209 216.780726 
L 324.988245 268.369586 
L 325.191281 204.097525 
L 325.394317 246.416229 
L 325.800389 203.331432 
L 326.003425 239.813565 
L 326.206461 231.976397 
L 326.409497 252.993052 
L 326.815569 217.443831 
L 327.018605 261.008506 
L 327.221641 204.904182 
L 327.424677 228.774366 
L 327.627713 188.979117 
L 327.830749 199.186265 
L 328.033785 242.72583 
L 328.236821 203.039853 
L 328.439857 229.313047 
L 328.642893 176.509037 
L 328.845929 217.45124 
L 329.048965 172.490184 
L 329.455037 217.369175 
L 329.658073 218.906301 
L 330.064145 228.981233 
L 330.267181 257.022839 
L 330.470217 242.779927 
L 330.673253 240.461246 
L 330.876289 209.862566 
L 331.079325 200.562418 
L 331.282361 203.715509 
L 331.485397 231.282401 
L 331.688433 213.204972 
L 331.891469 218.957654 
L 332.297541 202.642999 
L 332.500576 217.945238 
L 332.703612 217.718606 
L 332.906648 223.282555 
L 333.109684 205.269951 
L 333.31272 230.228465 
L 333.515756 182.759928 
L 333.718792 249.607695 
L 333.921828 182.832739 
L 334.124864 237.35655 
L 334.3279 220.716814 
L 334.530936 223.448196 
L 334.733972 215.564959 
L 334.937008 245.321109 
L 335.140044 221.371824 
L 335.34308 251.29169 
L 335.546116 224.79684 
L 335.749152 243.553192 
L 335.952188 244.596948 
L 336.155224 193.97386 
L 336.35826 180.389115 
L 336.561296 232.441601 
L 336.764332 209.959507 
L 336.967368 224.334226 
L 337.170404 229.290677 
L 337.37344 226.589692 
L 337.576476 181.129781 
L 337.779512 234.178848 
L 337.982548 240.214927 
L 338.185584 226.999158 
L 338.38862 234.752398 
L 338.591656 193.942085 
L 338.794692 237.066926 
L 338.997728 230.56696 
L 339.200764 256.426462 
L 339.606836 240.900811 
L 339.809872 214.403558 
L 340.012908 244.521117 
L 340.215944 257.55058 
L 340.622016 227.035624 
L 340.825052 226.958268 
L 341.028088 208.622592 
L 341.43416 225.438658 
L 341.637196 205.783296 
L 341.840232 216.864919 
L 342.043268 216.748076 
L 342.246304 247.805971 
L 342.44934 201.943025 
L 342.652376 212.348333 
L 342.855412 246.728053 
L 343.058448 260.238706 
L 343.261484 215.568555 
L 343.46452 232.16637 
L 343.667556 214.981594 
L 343.870592 239.098237 
L 344.276664 253.041784 
L 344.682736 223.990965 
L 344.885772 260.099684 
L 345.291844 243.427827 
L 345.49488 233.678586 
L 345.697916 255.907851 
L 346.103988 203.548661 
L 346.307024 234.331673 
L 346.51006 231.766418 
L 346.713096 239.314364 
L 346.916132 197.052052 
L 347.119168 251.482783 
L 347.322204 209.863079 
L 347.52524 211.127605 
L 347.728276 233.416473 
L 347.931312 233.090121 
L 348.134348 243.835557 
L 348.337384 226.488243 
L 348.54042 232.594787 
L 348.743456 218.699258 
L 348.946492 234.351059 
L 349.149528 236.122806 
L 349.352564 229.518411 
L 349.5556 216.815309 
L 349.758636 239.832331 
L 349.961671 242.471162 
L 350.367743 191.852802 
L 350.570779 242.737912 
L 350.773815 231.404219 
L 350.976851 245.840706 
L 351.382923 235.509817 
L 351.585959 224.370815 
L 351.788995 224.832698 
L 351.992031 275.291788 
L 352.195067 207.975785 
L 352.398103 227.627048 
L 352.601139 205.099941 
L 353.007211 247.273226 
L 353.210247 204.171551 
L 353.413283 226.720479 
L 353.616319 224.34725 
L 353.819355 280.967494 
L 354.022391 201.654345 
L 354.225427 209.753982 
L 354.428463 241.601009 
L 354.631499 222.636171 
L 354.834535 251.07995 
L 355.037571 230.040652 
L 355.240607 244.012852 
L 355.443643 226.238986 
L 355.646679 222.447679 
L 355.849715 237.485522 
L 356.052751 197.333614 
L 356.255787 193.490477 
L 356.458823 236.548181 
L 356.661859 234.278237 
L 356.864895 225.017638 
L 357.067931 237.804602 
L 357.270967 202.367724 
L 357.474003 197.667622 
L 357.677039 216.62023 
L 357.880075 247.113873 
L 358.083111 260.831152 
L 358.286147 256.54522 
L 358.692219 215.695485 
L 358.895255 240.314615 
L 359.098291 213.372772 
L 359.301327 215.803005 
L 359.707399 237.017606 
L 359.910435 276.596161 
L 360.113471 205.843718 
L 360.316507 269.14267 
L 360.519543 211.205294 
L 360.722579 190.308334 
L 361.331687 242.972056 
L 361.940795 194.649036 
L 362.346867 270.283378 
L 362.549903 248.135624 
L 362.752939 246.682269 
L 362.955975 205.352414 
L 363.159011 236.28545 
L 363.362047 249.728935 
L 363.768119 200.22205 
L 363.971155 189.138236 
L 364.174191 189.405337 
L 364.580263 237.246763 
L 364.783299 233.542947 
L 364.986335 213.842088 
L 365.189371 236.029295 
L 365.392407 236.270788 
L 365.595443 236.898796 
L 365.798479 232.195444 
L 366.001515 256.825193 
L 366.204551 215.11268 
L 366.407587 232.567919 
L 366.610623 236.962403 
L 366.813659 247.564612 
L 367.016695 232.86827 
L 367.219731 181.50993 
L 367.422767 225.80921 
L 367.625802 206.654908 
L 367.828838 207.416795 
L 368.031874 229.900873 
L 368.23491 191.845386 
L 368.437946 256.586159 
L 368.640982 236.214863 
L 368.844018 235.416871 
L 369.25009 295.488 
L 369.453126 232.831425 
L 369.656162 275.125399 
L 369.859198 200.959669 
L 370.062234 261.249483 
L 370.26527 217.649758 
L 370.468306 245.659141 
L 370.671342 221.757883 
L 370.874378 233.477023 
L 371.077414 236.006812 
L 371.28045 235.846062 
L 371.483486 292.075814 
L 371.889558 241.922058 
L 372.092594 242.760404 
L 372.29563 260.497072 
L 372.498666 212.91797 
L 372.701702 220.857258 
L 372.904738 235.685418 
L 373.107774 228.110085 
L 373.31081 241.904942 
L 373.513846 208.822117 
L 373.716882 272.409107 
L 373.919918 224.058998 
L 374.122954 268.629604 
L 374.32599 235.808898 
L 374.529026 285.271115 
L 374.732062 224.063501 
L 374.935098 228.632942 
L 375.138134 241.971699 
L 375.34117 233.956921 
L 375.544206 236.645048 
L 375.747242 245.529451 
L 375.950278 241.479368 
L 376.153314 251.794861 
L 376.35635 241.082781 
L 376.559386 199.603493 
L 376.762422 243.854339 
L 376.965458 245.008375 
L 377.168494 219.303312 
L 377.37153 221.125108 
L 377.574566 260.876328 
L 377.980638 218.077643 
L 378.183674 274.051725 
L 378.38671 238.078323 
L 378.589746 257.969981 
L 379.198854 238.383238 
L 379.40189 243.6709 
L 379.604926 239.168929 
L 379.807962 255.54495 
L 380.214034 224.247653 
L 380.41707 222.730502 
L 380.620106 233.963675 
L 380.823142 206.788004 
L 381.026178 232.171638 
L 381.229214 217.636924 
L 381.43225 218.737164 
L 381.838322 260.663463 
L 382.041358 244.464176 
L 382.244394 255.277618 
L 382.44743 238.307195 
L 382.650466 237.277226 
L 382.853502 241.867788 
L 383.056538 264.990982 
L 383.259574 206.146545 
L 383.46261 225.012091 
L 383.665646 209.721609 
L 383.868682 205.814203 
L 384.071718 238.508006 
L 384.47779 208.736379 
L 384.680826 252.434732 
L 384.883862 224.657457 
L 385.086897 254.356243 
L 385.289933 245.449881 
L 385.492969 224.059632 
L 385.696005 251.774201 
L 385.899041 236.86029 
L 386.102077 241.618147 
L 386.305113 214.444817 
L 386.508149 240.726626 
L 386.711185 229.453568 
L 386.914221 238.543006 
L 387.117257 225.321806 
L 387.320293 226.803358 
L 387.523329 234.39595 
L 387.726365 223.410572 
L 387.929401 228.982359 
L 388.132437 221.006887 
L 388.335473 238.426825 
L 388.538509 214.383373 
L 388.741545 219.404706 
L 388.944581 244.335378 
L 389.147617 239.16719 
L 389.350653 245.652862 
L 389.553689 224.931646 
L 389.756725 220.39723 
L 389.959761 238.201156 
L 390.162797 236.924166 
L 390.365833 231.853912 
L 390.568869 239.46862 
L 390.771905 239.615683 
L 390.974941 235.616456 
L 391.177977 251.161602 
L 391.381013 216.970728 
L 391.584049 206.015147 
L 391.787085 224.615543 
L 392.193157 221.119477 
L 392.396193 245.892902 
L 392.802265 262.3419 
L 393.005301 207.223218 
L 393.208337 278.918895 
L 393.411373 223.860116 
L 393.614409 240.772311 
L 393.817445 214.044228 
L 394.020481 240.210416 
L 394.223517 242.631344 
L 394.426553 217.22102 
L 394.629589 247.456587 
L 394.832625 232.460561 
L 395.035661 265.420721 
L 395.238697 212.219652 
L 395.441733 240.501422 
L 395.644769 219.3206 
L 395.847805 244.582145 
L 396.050841 208.101244 
L 396.253877 204.432884 
L 396.659949 244.23296 
L 396.862985 226.157754 
L 397.066021 233.884949 
L 397.269057 246.539626 
L 397.472093 230.875668 
L 397.675129 263.46289 
L 397.878165 260.681734 
L 398.081201 202.489103 
L 398.284237 275.113466 
L 398.487273 205.891654 
L 398.487273 205.891654 
" style="fill:none;stroke:#2ca02c;stroke-linecap:square;stroke-width:1.5;"/>
   </g>
   <g id="patch_3">
    <path d="M 57.6 307.584 
L 57.6 41.472 
" style="fill:none;stroke:#000000;stroke-linecap:square;stroke-linejoin:miter;stroke-width:0.8;"/>
   </g>
   <g id="patch_4">
    <path d="M 414.72 307.584 
L 414.72 41.472 
" style="fill:none;stroke:#000000;stroke-linecap:square;stroke-linejoin:miter;stroke-width:0.8;"/>
   </g>
   <g id="patch_5">
    <path d="M 57.6 307.584 
L 414.72 307.584 
" style="fill:none;stroke:#000000;stroke-linecap:square;stroke-linejoin:miter;stroke-width:0.8;"/>
   </g>
   <g id="patch_6">
    <path d="M 57.6 41.472 
L 414.72 41.472 
" style="fill:none;stroke:#000000;stroke-linecap:square;stroke-linejoin:miter;stroke-width:0.8;"/>
   </g>
   <g id="legend_1">
    <g id="patch_7">
     <path d="M 271.49175 116.4015 
L 404.64 116.4015 
Q 407.52 116.4015 407.52 113.5215 
L 407.52 51.552 
Q 407.52 48.672 404.64 48.672 
L 271.49175 48.672 
Q 268.61175 48.672 268.61175 51.552 
L 268.61175 113.5215 
Q 268.61175 116.4015 271.49175 116.4015 
z
" style="fill:#ffffff;opacity:0.8;stroke:#cccccc;stroke-linejoin:miter;"/>
    </g>
    <g id="line2d_34">
     <path d="M 274.37175 60.33375 
L 303.17175 60.33375 
" style="fill:none;stroke:#1f77b4;stroke-linecap:square;stroke-width:1.5;"/>
    </g>
    <g id="line2d_35"/>
    <g id="text_14">
     <!-- Regression -->
     <g transform="translate(314.69175 65.37375)scale(0.144 -0.144)">
      <defs>
       <path d="M 2841 2188 
Q 3044 2119 3236 1894 
Q 3428 1669 3622 1275 
L 4263 0 
L 3584 0 
L 2988 1197 
Q 2756 1666 2539 1819 
Q 2322 1972 1947 1972 
L 1259 1972 
L 1259 0 
L 628 0 
L 628 4666 
L 2053 4666 
Q 2853 4666 3247 4331 
Q 3641 3997 3641 3322 
Q 3641 2881 3436 2590 
Q 3231 2300 2841 2188 
z
M 1259 4147 
L 1259 2491 
L 2053 2491 
Q 2509 2491 2742 2702 
Q 2975 2913 2975 3322 
Q 2975 3731 2742 3939 
Q 2509 4147 2053 4147 
L 1259 4147 
z
" id="DejaVuSans-52" transform="scale(0.015625)"/>
       <path d="M 2834 3397 
L 2834 2853 
Q 2591 2978 2328 3040 
Q 2066 3103 1784 3103 
Q 1356 3103 1142 2972 
Q 928 2841 928 2578 
Q 928 2378 1081 2264 
Q 1234 2150 1697 2047 
L 1894 2003 
Q 2506 1872 2764 1633 
Q 3022 1394 3022 966 
Q 3022 478 2636 193 
Q 2250 -91 1575 -91 
Q 1294 -91 989 -36 
Q 684 19 347 128 
L 347 722 
Q 666 556 975 473 
Q 1284 391 1588 391 
Q 1994 391 2212 530 
Q 2431 669 2431 922 
Q 2431 1156 2273 1281 
Q 2116 1406 1581 1522 
L 1381 1569 
Q 847 1681 609 1914 
Q 372 2147 372 2553 
Q 372 3047 722 3315 
Q 1072 3584 1716 3584 
Q 2034 3584 2315 3537 
Q 2597 3491 2834 3397 
z
" id="DejaVuSans-73" transform="scale(0.015625)"/>
       <path d="M 3513 2113 
L 3513 0 
L 2938 0 
L 2938 2094 
Q 2938 2591 2744 2837 
Q 2550 3084 2163 3084 
Q 1697 3084 1428 2787 
Q 1159 2491 1159 1978 
L 1159 0 
L 581 0 
L 581 3500 
L 1159 3500 
L 1159 2956 
Q 1366 3272 1645 3428 
Q 1925 3584 2291 3584 
Q 2894 3584 3203 3211 
Q 3513 2838 3513 2113 
z
" id="DejaVuSans-6e" transform="scale(0.015625)"/>
      </defs>
      <use xlink:href="#DejaVuSans-52"/>
      <use x="64.982422" xlink:href="#DejaVuSans-65"/>
      <use x="126.505859" xlink:href="#DejaVuSans-67"/>
      <use x="189.982422" xlink:href="#DejaVuSans-72"/>
      <use x="228.845703" xlink:href="#DejaVuSans-65"/>
      <use x="290.369141" xlink:href="#DejaVuSans-73"/>
      <use x="342.46875" xlink:href="#DejaVuSans-73"/>
      <use x="394.568359" xlink:href="#DejaVuSans-69"/>
      <use x="422.351562" xlink:href="#DejaVuSans-6f"/>
      <use x="483.533203" xlink:href="#DejaVuSans-6e"/>
     </g>
    </g>
    <g id="line2d_36">
     <path d="M 274.37175 81.47025 
L 303.17175 81.47025 
" style="fill:none;stroke:#ff7f0e;stroke-linecap:square;stroke-width:1.5;"/>
    </g>
    <g id="line2d_37"/>
    <g id="text_15">
     <!-- Consistency -->
     <g transform="translate(314.69175 86.51025)scale(0.144 -0.144)">
      <defs>
       <path d="M 4122 4306 
L 4122 3641 
Q 3803 3938 3442 4084 
Q 3081 4231 2675 4231 
Q 1875 4231 1450 3742 
Q 1025 3253 1025 2328 
Q 1025 1406 1450 917 
Q 1875 428 2675 428 
Q 3081 428 3442 575 
Q 3803 722 4122 1019 
L 4122 359 
Q 3791 134 3420 21 
Q 3050 -91 2638 -91 
Q 1578 -91 968 557 
Q 359 1206 359 2328 
Q 359 3453 968 4101 
Q 1578 4750 2638 4750 
Q 3056 4750 3426 4639 
Q 3797 4528 4122 4306 
z
" id="DejaVuSans-43" transform="scale(0.015625)"/>
       <path d="M 2059 -325 
Q 1816 -950 1584 -1140 
Q 1353 -1331 966 -1331 
L 506 -1331 
L 506 -850 
L 844 -850 
Q 1081 -850 1212 -737 
Q 1344 -625 1503 -206 
L 1606 56 
L 191 3500 
L 800 3500 
L 1894 763 
L 2988 3500 
L 3597 3500 
L 2059 -325 
z
" id="DejaVuSans-79" transform="scale(0.015625)"/>
      </defs>
      <use xlink:href="#DejaVuSans-43"/>
      <use x="69.824219" xlink:href="#DejaVuSans-6f"/>
      <use x="131.005859" xlink:href="#DejaVuSans-6e"/>
      <use x="194.384766" xlink:href="#DejaVuSans-73"/>
      <use x="246.484375" xlink:href="#DejaVuSans-69"/>
      <use x="274.267578" xlink:href="#DejaVuSans-73"/>
      <use x="326.367188" xlink:href="#DejaVuSans-74"/>
      <use x="365.576172" xlink:href="#DejaVuSans-65"/>
      <use x="427.099609" xlink:href="#DejaVuSans-6e"/>
      <use x="490.478516" xlink:href="#DejaVuSans-63"/>
      <use x="545.458984" xlink:href="#DejaVuSans-79"/>
     </g>
    </g>
    <g id="line2d_38">
     <path d="M 274.37175 102.60675 
L 303.17175 102.60675 
" style="fill:none;stroke:#2ca02c;stroke-linecap:square;stroke-width:1.5;"/>
    </g>
    <g id="line2d_39"/>
    <g id="text_16">
     <!-- Supervised -->
     <g transform="translate(314.69175 107.64675)scale(0.144 -0.144)">
      <defs>
       <path d="M 3425 4513 
L 3425 3897 
Q 3066 4069 2747 4153 
Q 2428 4238 2131 4238 
Q 1616 4238 1336 4038 
Q 1056 3838 1056 3469 
Q 1056 3159 1242 3001 
Q 1428 2844 1947 2747 
L 2328 2669 
Q 3034 2534 3370 2195 
Q 3706 1856 3706 1288 
Q 3706 609 3251 259 
Q 2797 -91 1919 -91 
Q 1588 -91 1214 -16 
Q 841 59 441 206 
L 441 856 
Q 825 641 1194 531 
Q 1563 422 1919 422 
Q 2459 422 2753 634 
Q 3047 847 3047 1241 
Q 3047 1584 2836 1778 
Q 2625 1972 2144 2069 
L 1759 2144 
Q 1053 2284 737 2584 
Q 422 2884 422 3419 
Q 422 4038 858 4394 
Q 1294 4750 2059 4750 
Q 2388 4750 2728 4690 
Q 3069 4631 3425 4513 
z
" id="DejaVuSans-53" transform="scale(0.015625)"/>
       <path d="M 544 1381 
L 544 3500 
L 1119 3500 
L 1119 1403 
Q 1119 906 1312 657 
Q 1506 409 1894 409 
Q 2359 409 2629 706 
Q 2900 1003 2900 1516 
L 2900 3500 
L 3475 3500 
L 3475 0 
L 2900 0 
L 2900 538 
Q 2691 219 2414 64 
Q 2138 -91 1772 -91 
Q 1169 -91 856 284 
Q 544 659 544 1381 
z
M 1991 3584 
L 1991 3584 
z
" id="DejaVuSans-75" transform="scale(0.015625)"/>
       <path d="M 191 3500 
L 800 3500 
L 1894 563 
L 2988 3500 
L 3597 3500 
L 2284 0 
L 1503 0 
L 191 3500 
z
" id="DejaVuSans-76" transform="scale(0.015625)"/>
      </defs>
      <use xlink:href="#DejaVuSans-53"/>
      <use x="63.476562" xlink:href="#DejaVuSans-75"/>
      <use x="126.855469" xlink:href="#DejaVuSans-70"/>
      <use x="190.332031" xlink:href="#DejaVuSans-65"/>
      <use x="251.855469" xlink:href="#DejaVuSans-72"/>
      <use x="292.96875" xlink:href="#DejaVuSans-76"/>
      <use x="352.148438" xlink:href="#DejaVuSans-69"/>
      <use x="379.931641" xlink:href="#DejaVuSans-73"/>
      <use x="432.03125" xlink:href="#DejaVuSans-65"/>
      <use x="493.554688" xlink:href="#DejaVuSans-64"/>
     </g>
    </g>
   </g>
  </g>
 </g>
 <defs>
  <clipPath id="p5f69208cd7">
   <rect height="266.112" width="357.12" x="57.6" y="41.472"/>
  </clipPath>
 </defs>
</svg>
