<?xml version="1.0" encoding="utf-8" standalone="no"?>
<!DOCTYPE svg PUBLIC "-//W3C//DTD SVG 1.1//EN"
  "http://www.w3.org/Graphics/SVG/1.1/DTD/svg11.dtd">
<svg height="345.6pt" version="1.1" viewBox="0 0 460.8 345.6" width="460.8pt" xmlns="http://www.w3.org/2000/svg" xmlns:xlink="http://www.w3.org/1999/xlink">
 <metadata>
  <rdf:RDF xmlns:cc="http://creativecommons.org/ns#" xmlns:dc="http://purl.org/dc/elements/1.1/" xmlns:rdf="http://www.w3.org/1999/02/22-rdf-syntax-ns#">
   <cc:Work>
    <dc:type rdf:resource="http://purl.org/dc/dcmitype/StillImage"/>
    <dc:date>2021-07-30T12:47:10.944929</dc:date>
    <dc:format>image/svg+xml</dc:format>
    <dc:creator>
     <cc:Agent>
      <dc:title>Matplotlib v3.4.1, https://matplotlib.org/</dc:title>
     </cc:Agent>
    </dc:creator>
   </cc:Work>
  </rdf:RDF>
 </metadata>
 <defs>
  <style type="text/css">*{stroke-linecap:butt;stroke-linejoin:round;}</style>
 </defs>
 <g id="figure_1">
  <g id="patch_1">
   <path d="M 0 345.6 
L 460.8 345.6 
L 460.8 0 
L 0 0 
z
" style="fill:#ffffff;"/>
  </g>
  <g id="axes_1">
   <g id="patch_2">
    <path d="M 57.6 307.584 
L 414.72 307.584 
L 414.72 41.472 
L 57.6 41.472 
z
" style="fill:#ffffff;"/>
   </g>
   <g id="matplotlib.axis_1">
    <g id="xtick_1">
     <g id="line2d_1">
      <defs>
       <path d="M 0 0 
L 0 3.5 
" id="md3e0880215" style="stroke:#000000;stroke-width:0.8;"/>
      </defs>
      <g>
       <use style="stroke:#000000;stroke-width:0.8;" x="73.629691" xlink:href="#md3e0880215" y="307.584"/>
      </g>
     </g>
     <g id="text_1">
      <!-- 0 -->
      <g transform="translate(70.448441 322.182437)scale(0.1 -0.1)">
       <defs>
        <path d="M 2034 4250 
Q 1547 4250 1301 3770 
Q 1056 3291 1056 2328 
Q 1056 1369 1301 889 
Q 1547 409 2034 409 
Q 2525 409 2770 889 
Q 3016 1369 3016 2328 
Q 3016 3291 2770 3770 
Q 2525 4250 2034 4250 
z
M 2034 4750 
Q 2819 4750 3233 4129 
Q 3647 3509 3647 2328 
Q 3647 1150 3233 529 
Q 2819 -91 2034 -91 
Q 1250 -91 836 529 
Q 422 1150 422 2328 
Q 422 3509 836 4129 
Q 1250 4750 2034 4750 
z
" id="DejaVuSans-30" transform="scale(0.015625)"/>
       </defs>
       <use xlink:href="#DejaVuSans-30"/>
      </g>
     </g>
    </g>
    <g id="xtick_2">
     <g id="line2d_2">
      <g>
       <use style="stroke:#000000;stroke-width:0.8;" x="114.236889" xlink:href="#md3e0880215" y="307.584"/>
      </g>
     </g>
     <g id="text_2">
      <!-- 200 -->
      <g transform="translate(104.693139 322.182437)scale(0.1 -0.1)">
       <defs>
        <path d="M 1228 531 
L 3431 531 
L 3431 0 
L 469 0 
L 469 531 
Q 828 903 1448 1529 
Q 2069 2156 2228 2338 
Q 2531 2678 2651 2914 
Q 2772 3150 2772 3378 
Q 2772 3750 2511 3984 
Q 2250 4219 1831 4219 
Q 1534 4219 1204 4116 
Q 875 4013 500 3803 
L 500 4441 
Q 881 4594 1212 4672 
Q 1544 4750 1819 4750 
Q 2544 4750 2975 4387 
Q 3406 4025 3406 3419 
Q 3406 3131 3298 2873 
Q 3191 2616 2906 2266 
Q 2828 2175 2409 1742 
Q 1991 1309 1228 531 
z
" id="DejaVuSans-32" transform="scale(0.015625)"/>
       </defs>
       <use xlink:href="#DejaVuSans-32"/>
       <use x="63.623047" xlink:href="#DejaVuSans-30"/>
       <use x="127.246094" xlink:href="#DejaVuSans-30"/>
      </g>
     </g>
    </g>
    <g id="xtick_3">
     <g id="line2d_3">
      <g>
       <use style="stroke:#000000;stroke-width:0.8;" x="154.844087" xlink:href="#md3e0880215" y="307.584"/>
      </g>
     </g>
     <g id="text_3">
      <!-- 400 -->
      <g transform="translate(145.300337 322.182437)scale(0.1 -0.1)">
       <defs>
        <path d="M 2419 4116 
L 825 1625 
L 2419 1625 
L 2419 4116 
z
M 2253 4666 
L 3047 4666 
L 3047 1625 
L 3713 1625 
L 3713 1100 
L 3047 1100 
L 3047 0 
L 2419 0 
L 2419 1100 
L 313 1100 
L 313 1709 
L 2253 4666 
z
" id="DejaVuSans-34" transform="scale(0.015625)"/>
       </defs>
       <use xlink:href="#DejaVuSans-34"/>
       <use x="63.623047" xlink:href="#DejaVuSans-30"/>
       <use x="127.246094" xlink:href="#DejaVuSans-30"/>
      </g>
     </g>
    </g>
    <g id="xtick_4">
     <g id="line2d_4">
      <g>
       <use style="stroke:#000000;stroke-width:0.8;" x="195.451284" xlink:href="#md3e0880215" y="307.584"/>
      </g>
     </g>
     <g id="text_4">
      <!-- 600 -->
      <g transform="translate(185.907534 322.182437)scale(0.1 -0.1)">
       <defs>
        <path d="M 2113 2584 
Q 1688 2584 1439 2293 
Q 1191 2003 1191 1497 
Q 1191 994 1439 701 
Q 1688 409 2113 409 
Q 2538 409 2786 701 
Q 3034 994 3034 1497 
Q 3034 2003 2786 2293 
Q 2538 2584 2113 2584 
z
M 3366 4563 
L 3366 3988 
Q 3128 4100 2886 4159 
Q 2644 4219 2406 4219 
Q 1781 4219 1451 3797 
Q 1122 3375 1075 2522 
Q 1259 2794 1537 2939 
Q 1816 3084 2150 3084 
Q 2853 3084 3261 2657 
Q 3669 2231 3669 1497 
Q 3669 778 3244 343 
Q 2819 -91 2113 -91 
Q 1303 -91 875 529 
Q 447 1150 447 2328 
Q 447 3434 972 4092 
Q 1497 4750 2381 4750 
Q 2619 4750 2861 4703 
Q 3103 4656 3366 4563 
z
" id="DejaVuSans-36" transform="scale(0.015625)"/>
       </defs>
       <use xlink:href="#DejaVuSans-36"/>
       <use x="63.623047" xlink:href="#DejaVuSans-30"/>
       <use x="127.246094" xlink:href="#DejaVuSans-30"/>
      </g>
     </g>
    </g>
    <g id="xtick_5">
     <g id="line2d_5">
      <g>
       <use style="stroke:#000000;stroke-width:0.8;" x="236.058482" xlink:href="#md3e0880215" y="307.584"/>
      </g>
     </g>
     <g id="text_5">
      <!-- 800 -->
      <g transform="translate(226.514732 322.182437)scale(0.1 -0.1)">
       <defs>
        <path d="M 2034 2216 
Q 1584 2216 1326 1975 
Q 1069 1734 1069 1313 
Q 1069 891 1326 650 
Q 1584 409 2034 409 
Q 2484 409 2743 651 
Q 3003 894 3003 1313 
Q 3003 1734 2745 1975 
Q 2488 2216 2034 2216 
z
M 1403 2484 
Q 997 2584 770 2862 
Q 544 3141 544 3541 
Q 544 4100 942 4425 
Q 1341 4750 2034 4750 
Q 2731 4750 3128 4425 
Q 3525 4100 3525 3541 
Q 3525 3141 3298 2862 
Q 3072 2584 2669 2484 
Q 3125 2378 3379 2068 
Q 3634 1759 3634 1313 
Q 3634 634 3220 271 
Q 2806 -91 2034 -91 
Q 1263 -91 848 271 
Q 434 634 434 1313 
Q 434 1759 690 2068 
Q 947 2378 1403 2484 
z
M 1172 3481 
Q 1172 3119 1398 2916 
Q 1625 2713 2034 2713 
Q 2441 2713 2670 2916 
Q 2900 3119 2900 3481 
Q 2900 3844 2670 4047 
Q 2441 4250 2034 4250 
Q 1625 4250 1398 4047 
Q 1172 3844 1172 3481 
z
" id="DejaVuSans-38" transform="scale(0.015625)"/>
       </defs>
       <use xlink:href="#DejaVuSans-38"/>
       <use x="63.623047" xlink:href="#DejaVuSans-30"/>
       <use x="127.246094" xlink:href="#DejaVuSans-30"/>
      </g>
     </g>
    </g>
    <g id="xtick_6">
     <g id="line2d_6">
      <g>
       <use style="stroke:#000000;stroke-width:0.8;" x="276.66568" xlink:href="#md3e0880215" y="307.584"/>
      </g>
     </g>
     <g id="text_6">
      <!-- 1000 -->
      <g transform="translate(263.94068 322.182437)scale(0.1 -0.1)">
       <defs>
        <path d="M 794 531 
L 1825 531 
L 1825 4091 
L 703 3866 
L 703 4441 
L 1819 4666 
L 2450 4666 
L 2450 531 
L 3481 531 
L 3481 0 
L 794 0 
L 794 531 
z
" id="DejaVuSans-31" transform="scale(0.015625)"/>
       </defs>
       <use xlink:href="#DejaVuSans-31"/>
       <use x="63.623047" xlink:href="#DejaVuSans-30"/>
       <use x="127.246094" xlink:href="#DejaVuSans-30"/>
       <use x="190.869141" xlink:href="#DejaVuSans-30"/>
      </g>
     </g>
    </g>
    <g id="xtick_7">
     <g id="line2d_7">
      <g>
       <use style="stroke:#000000;stroke-width:0.8;" x="317.272877" xlink:href="#md3e0880215" y="307.584"/>
      </g>
     </g>
     <g id="text_7">
      <!-- 1200 -->
      <g transform="translate(304.547877 322.182437)scale(0.1 -0.1)">
       <use xlink:href="#DejaVuSans-31"/>
       <use x="63.623047" xlink:href="#DejaVuSans-32"/>
       <use x="127.246094" xlink:href="#DejaVuSans-30"/>
       <use x="190.869141" xlink:href="#DejaVuSans-30"/>
      </g>
     </g>
    </g>
    <g id="xtick_8">
     <g id="line2d_8">
      <g>
       <use style="stroke:#000000;stroke-width:0.8;" x="357.880075" xlink:href="#md3e0880215" y="307.584"/>
      </g>
     </g>
     <g id="text_8">
      <!-- 1400 -->
      <g transform="translate(345.155075 322.182437)scale(0.1 -0.1)">
       <use xlink:href="#DejaVuSans-31"/>
       <use x="63.623047" xlink:href="#DejaVuSans-34"/>
       <use x="127.246094" xlink:href="#DejaVuSans-30"/>
       <use x="190.869141" xlink:href="#DejaVuSans-30"/>
      </g>
     </g>
    </g>
    <g id="xtick_9">
     <g id="line2d_9">
      <g>
       <use style="stroke:#000000;stroke-width:0.8;" x="398.487273" xlink:href="#md3e0880215" y="307.584"/>
      </g>
     </g>
     <g id="text_9">
      <!-- 1600 -->
      <g transform="translate(385.762273 322.182437)scale(0.1 -0.1)">
       <use xlink:href="#DejaVuSans-31"/>
       <use x="63.623047" xlink:href="#DejaVuSans-36"/>
       <use x="127.246094" xlink:href="#DejaVuSans-30"/>
       <use x="190.869141" xlink:href="#DejaVuSans-30"/>
      </g>
     </g>
    </g>
    <g id="text_10">
     <!-- Epoch -->
     <g transform="translate(213.193594 339.659781)scale(0.15 -0.15)">
      <defs>
       <path d="M 628 4666 
L 3578 4666 
L 3578 4134 
L 1259 4134 
L 1259 2753 
L 3481 2753 
L 3481 2222 
L 1259 2222 
L 1259 531 
L 3634 531 
L 3634 0 
L 628 0 
L 628 4666 
z
" id="DejaVuSans-45" transform="scale(0.015625)"/>
       <path d="M 1159 525 
L 1159 -1331 
L 581 -1331 
L 581 3500 
L 1159 3500 
L 1159 2969 
Q 1341 3281 1617 3432 
Q 1894 3584 2278 3584 
Q 2916 3584 3314 3078 
Q 3713 2572 3713 1747 
Q 3713 922 3314 415 
Q 2916 -91 2278 -91 
Q 1894 -91 1617 61 
Q 1341 213 1159 525 
z
M 3116 1747 
Q 3116 2381 2855 2742 
Q 2594 3103 2138 3103 
Q 1681 3103 1420 2742 
Q 1159 2381 1159 1747 
Q 1159 1113 1420 752 
Q 1681 391 2138 391 
Q 2594 391 2855 752 
Q 3116 1113 3116 1747 
z
" id="DejaVuSans-70" transform="scale(0.015625)"/>
       <path d="M 1959 3097 
Q 1497 3097 1228 2736 
Q 959 2375 959 1747 
Q 959 1119 1226 758 
Q 1494 397 1959 397 
Q 2419 397 2687 759 
Q 2956 1122 2956 1747 
Q 2956 2369 2687 2733 
Q 2419 3097 1959 3097 
z
M 1959 3584 
Q 2709 3584 3137 3096 
Q 3566 2609 3566 1747 
Q 3566 888 3137 398 
Q 2709 -91 1959 -91 
Q 1206 -91 779 398 
Q 353 888 353 1747 
Q 353 2609 779 3096 
Q 1206 3584 1959 3584 
z
" id="DejaVuSans-6f" transform="scale(0.015625)"/>
       <path d="M 3122 3366 
L 3122 2828 
Q 2878 2963 2633 3030 
Q 2388 3097 2138 3097 
Q 1578 3097 1268 2742 
Q 959 2388 959 1747 
Q 959 1106 1268 751 
Q 1578 397 2138 397 
Q 2388 397 2633 464 
Q 2878 531 3122 666 
L 3122 134 
Q 2881 22 2623 -34 
Q 2366 -91 2075 -91 
Q 1284 -91 818 406 
Q 353 903 353 1747 
Q 353 2603 823 3093 
Q 1294 3584 2113 3584 
Q 2378 3584 2631 3529 
Q 2884 3475 3122 3366 
z
" id="DejaVuSans-63" transform="scale(0.015625)"/>
       <path d="M 3513 2113 
L 3513 0 
L 2938 0 
L 2938 2094 
Q 2938 2591 2744 2837 
Q 2550 3084 2163 3084 
Q 1697 3084 1428 2787 
Q 1159 2491 1159 1978 
L 1159 0 
L 581 0 
L 581 4863 
L 1159 4863 
L 1159 2956 
Q 1366 3272 1645 3428 
Q 1925 3584 2291 3584 
Q 2894 3584 3203 3211 
Q 3513 2838 3513 2113 
z
" id="DejaVuSans-68" transform="scale(0.015625)"/>
      </defs>
      <use xlink:href="#DejaVuSans-45"/>
      <use x="63.183594" xlink:href="#DejaVuSans-70"/>
      <use x="126.660156" xlink:href="#DejaVuSans-6f"/>
      <use x="187.841797" xlink:href="#DejaVuSans-63"/>
      <use x="242.822266" xlink:href="#DejaVuSans-68"/>
     </g>
    </g>
   </g>
   <g id="matplotlib.axis_2">
    <g id="ytick_1">
     <g id="line2d_10">
      <defs>
       <path d="M 0 0 
L -3.5 0 
" id="m3718995cfa" style="stroke:#000000;stroke-width:0.8;"/>
      </defs>
      <g>
       <use style="stroke:#000000;stroke-width:0.8;" x="57.6" xlink:href="#m3718995cfa" y="276.394017"/>
      </g>
     </g>
     <g id="text_11">
      <!-- −0.25 -->
      <g transform="translate(19.954687 280.193235)scale(0.1 -0.1)">
       <defs>
        <path d="M 678 2272 
L 4684 2272 
L 4684 1741 
L 678 1741 
L 678 2272 
z
" id="DejaVuSans-2212" transform="scale(0.015625)"/>
        <path d="M 684 794 
L 1344 794 
L 1344 0 
L 684 0 
L 684 794 
z
" id="DejaVuSans-2e" transform="scale(0.015625)"/>
        <path d="M 691 4666 
L 3169 4666 
L 3169 4134 
L 1269 4134 
L 1269 2991 
Q 1406 3038 1543 3061 
Q 1681 3084 1819 3084 
Q 2600 3084 3056 2656 
Q 3513 2228 3513 1497 
Q 3513 744 3044 326 
Q 2575 -91 1722 -91 
Q 1428 -91 1123 -41 
Q 819 9 494 109 
L 494 744 
Q 775 591 1075 516 
Q 1375 441 1709 441 
Q 2250 441 2565 725 
Q 2881 1009 2881 1497 
Q 2881 1984 2565 2268 
Q 2250 2553 1709 2553 
Q 1456 2553 1204 2497 
Q 953 2441 691 2322 
L 691 4666 
z
" id="DejaVuSans-35" transform="scale(0.015625)"/>
       </defs>
       <use xlink:href="#DejaVuSans-2212"/>
       <use x="83.789062" xlink:href="#DejaVuSans-30"/>
       <use x="147.412109" xlink:href="#DejaVuSans-2e"/>
       <use x="179.199219" xlink:href="#DejaVuSans-32"/>
       <use x="242.822266" xlink:href="#DejaVuSans-35"/>
      </g>
     </g>
    </g>
    <g id="ytick_2">
     <g id="line2d_11">
      <g>
       <use style="stroke:#000000;stroke-width:0.8;" x="57.6" xlink:href="#m3718995cfa" y="231.829387"/>
      </g>
     </g>
     <g id="text_12">
      <!-- −0.20 -->
      <g transform="translate(19.954687 235.628605)scale(0.1 -0.1)">
       <use xlink:href="#DejaVuSans-2212"/>
       <use x="83.789062" xlink:href="#DejaVuSans-30"/>
       <use x="147.412109" xlink:href="#DejaVuSans-2e"/>
       <use x="179.199219" xlink:href="#DejaVuSans-32"/>
       <use x="242.822266" xlink:href="#DejaVuSans-30"/>
      </g>
     </g>
    </g>
    <g id="ytick_3">
     <g id="line2d_12">
      <g>
       <use style="stroke:#000000;stroke-width:0.8;" x="57.6" xlink:href="#m3718995cfa" y="187.264756"/>
      </g>
     </g>
     <g id="text_13">
      <!-- −0.15 -->
      <g transform="translate(19.954687 191.063975)scale(0.1 -0.1)">
       <use xlink:href="#DejaVuSans-2212"/>
       <use x="83.789062" xlink:href="#DejaVuSans-30"/>
       <use x="147.412109" xlink:href="#DejaVuSans-2e"/>
       <use x="179.199219" xlink:href="#DejaVuSans-31"/>
       <use x="242.822266" xlink:href="#DejaVuSans-35"/>
      </g>
     </g>
    </g>
    <g id="ytick_4">
     <g id="line2d_13">
      <g>
       <use style="stroke:#000000;stroke-width:0.8;" x="57.6" xlink:href="#m3718995cfa" y="142.700126"/>
      </g>
     </g>
     <g id="text_14">
      <!-- −0.10 -->
      <g transform="translate(19.954687 146.499345)scale(0.1 -0.1)">
       <use xlink:href="#DejaVuSans-2212"/>
       <use x="83.789062" xlink:href="#DejaVuSans-30"/>
       <use x="147.412109" xlink:href="#DejaVuSans-2e"/>
       <use x="179.199219" xlink:href="#DejaVuSans-31"/>
       <use x="242.822266" xlink:href="#DejaVuSans-30"/>
      </g>
     </g>
    </g>
    <g id="ytick_5">
     <g id="line2d_14">
      <g>
       <use style="stroke:#000000;stroke-width:0.8;" x="57.6" xlink:href="#m3718995cfa" y="98.135496"/>
      </g>
     </g>
     <g id="text_15">
      <!-- −0.05 -->
      <g transform="translate(19.954687 101.934715)scale(0.1 -0.1)">
       <use xlink:href="#DejaVuSans-2212"/>
       <use x="83.789062" xlink:href="#DejaVuSans-30"/>
       <use x="147.412109" xlink:href="#DejaVuSans-2e"/>
       <use x="179.199219" xlink:href="#DejaVuSans-30"/>
       <use x="242.822266" xlink:href="#DejaVuSans-35"/>
      </g>
     </g>
    </g>
    <g id="ytick_6">
     <g id="line2d_15">
      <g>
       <use style="stroke:#000000;stroke-width:0.8;" x="57.6" xlink:href="#m3718995cfa" y="53.570866"/>
      </g>
     </g>
     <g id="text_16">
      <!-- 0.00 -->
      <g transform="translate(28.334375 57.370085)scale(0.1 -0.1)">
       <use xlink:href="#DejaVuSans-30"/>
       <use x="63.623047" xlink:href="#DejaVuSans-2e"/>
       <use x="95.410156" xlink:href="#DejaVuSans-30"/>
       <use x="159.033203" xlink:href="#DejaVuSans-30"/>
      </g>
     </g>
    </g>
   </g>
   <g id="line2d_16">
    <path clip-path="url(#p8574aed100)" d="M 73.832727 53.570852 
L 105.100269 53.57209 
L 105.912413 53.605552 
L 106.115449 53.713953 
L 106.318485 54.062906 
L 106.521521 54.770755 
L 106.724557 60.341588 
L 106.927593 60.103108 
L 107.130629 56.259015 
L 107.333665 58.843424 
L 107.536701 58.238113 
L 107.739737 63.864512 
L 107.942773 63.46745 
L 108.145809 66.09394 
L 108.348845 63.102487 
L 108.551881 70.50095 
L 108.754917 62.255659 
L 108.957953 60.39893 
L 109.160989 61.678807 
L 109.364025 61.261102 
L 109.567061 67.273619 
L 109.770097 67.137293 
L 109.973133 73.91187 
L 110.176169 76.747988 
L 110.582241 66.147532 
L 110.785277 72.577117 
L 110.988313 68.545197 
L 111.191349 70.243527 
L 111.394385 69.413867 
L 111.597421 67.59964 
L 111.800457 69.535823 
L 112.003493 76.650141 
L 112.206529 70.84383 
L 112.409565 80.059587 
L 112.612601 69.690982 
L 112.815637 76.868576 
L 113.018673 73.448711 
L 113.221709 80.146105 
L 113.424745 81.352436 
L 113.627781 79.126363 
L 113.830817 86.518285 
L 114.033853 86.694028 
L 114.236889 91.478935 
L 114.439925 74.738719 
L 114.845997 82.55497 
L 115.049033 79.034851 
L 115.252069 78.283571 
L 115.455105 75.294196 
L 115.658141 79.37475 
L 115.861177 76.804357 
L 116.064213 78.661361 
L 116.267249 75.03091 
L 116.470285 76.745764 
L 116.673321 79.410324 
L 116.876357 79.26631 
L 117.485465 91.805574 
L 117.688501 87.751505 
L 117.891537 86.379105 
L 118.094573 75.87581 
L 118.297609 88.09852 
L 118.500645 85.211083 
L 118.703681 84.070634 
L 118.906717 93.710366 
L 119.109753 96.331991 
L 119.312789 93.765236 
L 119.515825 88.515219 
L 119.718861 101.382278 
L 119.921897 93.262929 
L 120.124933 106.607435 
L 120.327969 106.251971 
L 120.531005 103.653377 
L 120.734041 92.560082 
L 120.937077 88.142344 
L 121.140113 90.404589 
L 121.343149 96.078998 
L 121.546185 93.629528 
L 121.749221 96.074513 
L 121.952257 100.715092 
L 122.155293 100.379006 
L 122.358329 113.281606 
L 122.561364 94.394028 
L 122.7644 100.501042 
L 122.967436 92.315967 
L 123.170472 92.560486 
L 123.373508 104.64814 
L 123.576544 108.312057 
L 123.77958 99.858982 
L 123.982616 100.055919 
L 124.185652 111.402461 
L 124.79476 97.667489 
L 125.200832 117.308873 
L 125.403868 97.224008 
L 125.606904 105.600736 
L 126.012976 98.957814 
L 126.216012 115.59948 
L 126.419048 96.520178 
L 126.82512 120.162548 
L 127.028156 99.814659 
L 127.231192 102.94319 
L 127.434228 112.323344 
L 127.637264 100.466917 
L 128.043336 114.198708 
L 128.449408 102.557676 
L 128.652444 106.861446 
L 128.85548 92.648622 
L 129.261552 116.361857 
L 129.464588 106.49252 
L 129.667624 108.677019 
L 130.073696 123.157368 
L 130.276732 101.638369 
L 130.479768 99.272629 
L 130.682804 123.305353 
L 130.88584 108.745074 
L 131.088876 102.311295 
L 131.291912 117.337471 
L 131.494948 104.71874 
L 131.697984 120.188353 
L 131.90102 119.688374 
L 132.104056 126.05594 
L 132.510128 109.641668 
L 132.713164 118.810638 
L 132.9162 118.985295 
L 133.119236 110.486561 
L 133.322272 118.345805 
L 133.728344 108.332405 
L 133.93138 121.999926 
L 134.337452 105.449249 
L 134.540488 127.33807 
L 134.743524 108.871029 
L 134.94656 127.201085 
L 135.149596 114.263474 
L 135.555668 128.143719 
L 135.758704 114.469847 
L 135.96174 111.171075 
L 136.367812 114.509179 
L 136.570848 121.892064 
L 136.773884 123.144458 
L 136.97692 128.966251 
L 137.179956 124.539587 
L 137.382992 125.888236 
L 137.586028 134.620926 
L 137.789064 121.755887 
L 137.9921 126.337153 
L 138.195136 114.087505 
L 138.398172 125.987652 
L 138.601208 117.921004 
L 138.804244 103.873234 
L 139.00728 138.991183 
L 139.210316 110.801272 
L 139.616388 126.824441 
L 139.819424 113.430403 
L 140.225495 134.869412 
L 140.428531 125.089184 
L 140.631567 129.974586 
L 140.834603 126.177789 
L 141.037639 132.440679 
L 141.240675 122.304983 
L 141.646747 129.141987 
L 141.849783 119.441566 
L 142.052819 120.58632 
L 142.458891 125.640578 
L 142.661927 111.580972 
L 142.864963 110.164919 
L 143.067999 134.500793 
L 143.271035 125.349563 
L 143.474071 138.082633 
L 143.677107 138.530609 
L 144.083179 115.670882 
L 144.286215 128.372896 
L 144.489251 129.581132 
L 144.692287 137.891976 
L 144.895323 122.03437 
L 145.098359 137.891211 
L 145.504431 99.974183 
L 145.707467 142.943516 
L 145.910503 118.361921 
L 146.113539 119.746551 
L 146.316575 143.874385 
L 146.519611 133.88998 
L 146.722647 151.42469 
L 146.925683 122.260176 
L 147.128719 140.488656 
L 147.331755 123.975333 
L 147.534791 127.466352 
L 147.737827 140.561424 
L 147.940863 134.511941 
L 148.143899 118.894129 
L 148.346935 139.070993 
L 148.549971 115.10838 
L 148.956043 120.868572 
L 149.159079 130.497048 
L 149.362115 115.339137 
L 149.565151 126.673797 
L 149.768187 155.046043 
L 149.971223 142.284449 
L 150.174259 115.471612 
L 150.377295 128.090157 
L 150.580331 149.945553 
L 150.783367 148.787741 
L 150.986403 125.401518 
L 151.189439 146.713772 
L 151.392475 135.317294 
L 151.595511 132.394935 
L 151.798547 122.994054 
L 152.001583 132.629305 
L 152.204619 129.9978 
L 152.407655 129.624822 
L 153.016763 123.032131 
L 153.219799 143.005726 
L 153.625871 109.622835 
L 153.828907 141.538259 
L 154.031943 128.199336 
L 154.234979 131.227172 
L 154.438015 130.597447 
L 154.641051 139.727609 
L 155.047123 124.043847 
L 155.250159 123.923486 
L 155.453195 122.50402 
L 155.656231 145.885235 
L 156.062303 131.023351 
L 156.265339 132.732034 
L 156.468375 128.411906 
L 156.874447 143.708279 
L 157.077483 132.348671 
L 157.280519 135.691087 
L 157.483554 121.807424 
L 157.68659 136.130483 
L 158.092662 129.008091 
L 158.295698 133.482706 
L 158.498734 142.122266 
L 158.70177 131.705668 
L 159.107842 134.982441 
L 159.310878 132.353306 
L 159.513914 148.38098 
L 159.71695 141.299455 
L 159.919986 126.413337 
L 160.123022 139.087541 
L 160.326058 132.04217 
L 160.529094 134.39028 
L 160.73213 116.862581 
L 160.935166 132.102974 
L 161.138202 126.312372 
L 161.341238 158.793613 
L 161.544274 132.33001 
L 161.74731 122.860769 
L 162.153382 139.892229 
L 162.356418 123.069709 
L 162.559454 143.087082 
L 162.76249 131.310997 
L 162.965526 136.538012 
L 163.168562 134.322396 
L 163.371598 150.814658 
L 163.574634 131.727448 
L 163.77767 156.682745 
L 163.980706 150.4908 
L 164.183742 133.080335 
L 164.386778 133.965993 
L 164.79285 141.382463 
L 164.995886 114.944841 
L 165.198922 121.766647 
L 165.401958 122.417046 
L 165.80803 149.063294 
L 166.011066 151.014829 
L 166.214102 154.337257 
L 166.417138 139.78339 
L 166.620174 160.250723 
L 166.82321 137.095365 
L 167.026246 146.841523 
L 167.229282 145.394154 
L 167.432318 131.531171 
L 167.635354 137.194654 
L 167.83839 124.980773 
L 168.244462 139.917705 
L 168.447498 130.802333 
L 168.650534 149.88294 
L 168.85357 138.665931 
L 169.056606 139.090493 
L 169.259642 130.092013 
L 169.665714 153.29327 
L 170.071786 127.281946 
L 170.274822 138.254598 
L 170.477858 160.303066 
L 171.086966 120.164673 
L 171.290002 134.050843 
L 171.493038 161.099236 
L 171.696074 148.739269 
L 171.89911 159.81622 
L 172.305182 133.044666 
L 172.508218 163.251869 
L 172.711254 149.119971 
L 172.91429 147.440498 
L 173.117326 127.737693 
L 173.523398 159.553057 
L 173.726434 162.312498 
L 173.92947 139.646932 
L 174.132506 134.768664 
L 174.335542 134.603527 
L 174.538578 165.285932 
L 174.741614 154.481459 
L 174.944649 152.466775 
L 175.147685 142.167572 
L 175.350721 156.83052 
L 175.553757 135.886702 
L 175.756793 137.603092 
L 176.162865 131.457234 
L 176.365901 137.615457 
L 176.568937 135.047636 
L 176.771973 119.00095 
L 176.975009 145.266178 
L 177.178045 138.942784 
L 177.381081 151.853034 
L 177.584117 146.502193 
L 177.787153 134.333958 
L 177.990189 138.153766 
L 178.396261 172.166508 
L 178.599297 137.505963 
L 178.802333 162.33194 
L 179.005369 138.079828 
L 179.208405 162.982306 
L 179.411441 139.642978 
L 179.614477 152.79993 
L 179.817513 151.608527 
L 180.020549 136.27191 
L 180.426621 171.867101 
L 180.629657 121.859654 
L 181.035729 162.804658 
L 181.238765 131.693474 
L 181.441801 162.627894 
L 181.644837 131.797659 
L 181.847873 130.629463 
L 182.253945 153.803584 
L 182.456981 151.615754 
L 182.660017 134.247315 
L 182.863053 150.302058 
L 183.066089 130.173561 
L 183.269125 139.797144 
L 183.472161 160.562563 
L 183.675197 155.811273 
L 183.878233 162.52773 
L 184.081269 165.475113 
L 184.284305 177.908057 
L 184.487341 175.988964 
L 184.690377 175.62816 
L 185.096449 147.817166 
L 185.299485 176.514662 
L 185.502521 146.021825 
L 185.705557 155.017046 
L 186.111629 141.720624 
L 186.314665 157.481473 
L 186.517701 137.379172 
L 186.720737 168.310229 
L 187.126809 149.08229 
L 187.329845 136.527536 
L 187.532881 151.562795 
L 187.735917 141.7532 
L 188.141989 169.526897 
L 188.345025 155.988985 
L 188.548061 181.760311 
L 188.751097 154.165707 
L 188.954133 150.104025 
L 189.157169 132.9762 
L 189.360205 137.554861 
L 189.563241 154.949749 
L 189.766277 143.916837 
L 189.969313 159.857556 
L 190.172349 152.610113 
L 190.375385 140.466384 
L 190.578421 140.586796 
L 190.781457 142.025642 
L 191.187529 160.314121 
L 191.390565 155.577969 
L 191.593601 165.688105 
L 191.796637 127.999441 
L 192.202709 176.915653 
L 192.405744 158.239265 
L 192.60878 155.466987 
L 192.811816 166.339962 
L 193.420924 154.391083 
L 193.62396 169.037525 
L 193.826996 149.087149 
L 194.030032 164.575992 
L 194.233068 138.372113 
L 194.436104 166.127143 
L 194.63914 162.333546 
L 194.842176 154.439675 
L 195.045212 178.904085 
L 195.248248 144.000917 
L 195.451284 171.995717 
L 195.65432 152.469016 
L 195.857356 175.113481 
L 196.060392 170.026043 
L 196.263428 174.91157 
L 196.466464 150.794022 
L 196.6695 145.517219 
L 196.872536 177.503819 
L 197.075572 156.295176 
L 197.278608 182.825475 
L 197.481644 132.743654 
L 197.68468 130.204821 
L 198.090752 142.630027 
L 198.496824 182.25492 
L 199.105932 149.697928 
L 199.512004 140.301569 
L 199.918076 170.97232 
L 200.121112 164.953669 
L 200.324148 153.761413 
L 200.527184 181.731646 
L 200.73022 146.606195 
L 200.933256 160.307028 
L 201.136292 166.405328 
L 201.339328 175.988194 
L 201.542364 158.68255 
L 201.7454 167.492801 
L 201.948436 190.187788 
L 202.354508 155.933658 
L 202.557544 178.88135 
L 202.76058 175.135554 
L 202.963616 196.82226 
L 203.166652 171.239737 
L 203.369688 179.865347 
L 203.572724 164.689523 
L 203.77576 191.480835 
L 203.978796 169.812783 
L 204.181832 174.212735 
L 204.384868 200.065026 
L 204.587904 158.141384 
L 204.79094 154.176978 
L 205.400048 169.908879 
L 205.603084 164.37747 
L 206.009156 184.452989 
L 206.415228 162.979429 
L 206.618264 186.278815 
L 206.8213 173.470397 
L 207.024336 185.356925 
L 207.227372 176.130771 
L 207.430408 152.30569 
L 207.633444 147.19015 
L 207.83648 196.691648 
L 208.039516 189.339222 
L 208.242552 188.53473 
L 208.445588 223.223684 
L 208.648624 174.275276 
L 208.85166 169.904204 
L 209.054696 177.286486 
L 209.257732 188.845362 
L 209.460768 159.742878 
L 209.663804 162.992924 
L 209.86684 164.218384 
L 210.069875 199.490455 
L 210.475947 153.880984 
L 210.678983 163.994481 
L 210.882019 203.259324 
L 211.085055 160.278175 
L 211.288091 189.664258 
L 211.491127 156.254868 
L 211.694163 161.664912 
L 211.897199 196.811918 
L 212.100235 133.479724 
L 212.303271 188.483604 
L 212.506307 160.761706 
L 212.709343 160.009876 
L 212.912379 181.772902 
L 213.115415 151.730553 
L 213.318451 148.227093 
L 213.521487 172.009946 
L 213.724523 169.09456 
L 213.927559 185.981211 
L 214.130595 166.18651 
L 214.333631 176.803501 
L 214.536667 197.678861 
L 214.739703 151.035341 
L 214.942739 178.089727 
L 215.145775 166.042857 
L 215.348811 163.344226 
L 215.551847 164.768634 
L 215.754883 175.006985 
L 215.957919 123.243043 
L 216.363991 193.583727 
L 216.770063 140.642926 
L 217.176135 173.469155 
L 217.379171 186.040121 
L 217.582207 151.536474 
L 217.785243 191.177103 
L 217.988279 166.793473 
L 218.191315 167.187529 
L 218.394351 180.235014 
L 218.597387 169.154172 
L 218.800423 199.554334 
L 219.003459 200.142575 
L 219.206495 157.271972 
L 219.815603 196.873689 
L 220.018639 195.243006 
L 220.221675 174.272558 
L 220.627747 175.424254 
L 220.830783 191.914276 
L 221.033819 157.664679 
L 221.236855 160.492676 
L 221.439891 168.571752 
L 221.642927 168.283815 
L 221.845963 157.349647 
L 222.048999 192.645334 
L 222.455071 216.510493 
L 222.658107 156.504309 
L 222.861143 183.643011 
L 223.064179 180.47786 
L 223.267215 196.598103 
L 223.470251 189.315328 
L 223.673287 154.176431 
L 223.876323 206.795041 
L 224.079359 183.058368 
L 224.282395 206.708521 
L 224.485431 172.268148 
L 224.688467 177.795462 
L 224.891503 203.113115 
L 225.297575 145.547414 
L 225.500611 149.534571 
L 225.906683 196.282225 
L 226.109719 191.371137 
L 226.312755 151.703315 
L 226.515791 175.968001 
L 226.718827 150.17526 
L 226.921863 197.000388 
L 227.124899 186.699171 
L 227.327935 189.601164 
L 227.53097 189.330887 
L 227.734006 138.818079 
L 228.140078 187.288402 
L 228.343114 166.150143 
L 228.54615 197.848549 
L 228.749186 211.153067 
L 228.952222 158.613967 
L 229.155258 173.946612 
L 229.358294 154.060949 
L 229.56133 215.535789 
L 229.764366 202.649915 
L 229.967402 157.533175 
L 230.170438 216.425597 
L 230.373474 167.470564 
L 230.57651 197.301962 
L 230.779546 187.382361 
L 230.982582 203.008103 
L 231.185618 203.961201 
L 231.388654 178.552887 
L 231.59169 177.230351 
L 231.794726 198.346677 
L 231.997762 176.469093 
L 232.200798 201.709006 
L 232.403834 189.46172 
L 232.60687 188.982185 
L 232.809906 180.882328 
L 233.012942 163.010023 
L 233.215978 190.49513 
L 233.419014 178.695827 
L 233.62205 177.315963 
L 233.825086 211.721797 
L 234.028122 182.874018 
L 234.231158 171.427329 
L 234.434194 207.033927 
L 234.840266 186.520493 
L 235.043302 183.365565 
L 235.246338 214.383638 
L 235.449374 200.614319 
L 235.65241 175.139012 
L 235.855446 183.718302 
L 236.058482 215.004303 
L 236.261518 175.052242 
L 236.464554 204.040935 
L 236.66759 186.236348 
L 236.870626 128.22134 
L 237.073662 196.015064 
L 237.276698 179.800871 
L 237.479734 193.335135 
L 237.68277 187.172946 
L 237.885806 197.072563 
L 238.291878 188.021418 
L 238.494914 164.312381 
L 238.69795 195.728363 
L 238.900986 166.303684 
L 239.307058 212.580345 
L 239.510094 174.093658 
L 239.71313 189.332996 
L 239.916166 195.974071 
L 240.119202 190.297887 
L 240.322238 190.452702 
L 240.525274 173.346776 
L 240.72831 190.320164 
L 240.931346 174.321207 
L 241.134382 199.236074 
L 241.337418 194.092436 
L 241.540454 214.967037 
L 241.74349 193.334105 
L 241.946526 214.101973 
L 242.149562 193.751354 
L 242.352598 156.816819 
L 242.555634 188.96172 
L 242.75867 178.072008 
L 242.961706 183.873776 
L 243.164742 179.868022 
L 243.367778 205.72705 
L 243.570814 165.269868 
L 243.77385 174.373949 
L 243.976886 188.477022 
L 244.179922 182.48959 
L 244.585994 154.054746 
L 244.78903 232.783278 
L 244.992065 173.964039 
L 245.195101 206.707625 
L 245.398137 188.674101 
L 245.601173 187.231505 
L 245.804209 212.472708 
L 246.007245 210.457755 
L 246.210281 169.357436 
L 246.616353 192.009462 
L 246.819389 197.581007 
L 247.022425 186.324701 
L 247.225461 168.769548 
L 247.428497 218.285079 
L 247.834569 176.581558 
L 248.037605 227.165097 
L 248.240641 220.809552 
L 248.443677 196.548236 
L 248.646713 206.182415 
L 248.849749 197.228167 
L 249.052785 236.521544 
L 249.255821 195.76324 
L 249.458857 205.76583 
L 249.661893 179.269623 
L 249.864929 196.587714 
L 250.067965 229.527252 
L 250.271001 181.886628 
L 250.474037 184.691851 
L 250.677073 180.715801 
L 251.083145 229.912625 
L 251.692253 150.419326 
L 251.895289 186.404151 
L 252.098325 176.058152 
L 252.301361 194.931814 
L 252.707433 168.732909 
L 252.910469 176.674795 
L 253.113505 164.978916 
L 253.316541 201.982771 
L 253.519577 159.672524 
L 253.722613 194.455456 
L 253.925649 198.719705 
L 254.128685 170.866094 
L 254.534757 209.288133 
L 254.737793 186.647028 
L 254.940829 231.421903 
L 255.143865 185.412309 
L 255.346901 171.645835 
L 255.549937 209.930513 
L 255.752973 217.583787 
L 256.159045 166.283613 
L 256.362081 161.909554 
L 256.565117 210.750685 
L 256.768153 217.847928 
L 256.971189 208.522957 
L 257.174225 174.708898 
L 257.377261 209.966384 
L 257.580297 163.094638 
L 257.783333 184.461132 
L 257.986369 172.266045 
L 258.392441 198.728359 
L 258.595477 174.583707 
L 258.798513 165.902374 
L 259.001549 218.632793 
L 259.204585 193.111335 
L 259.407621 184.724246 
L 259.610657 217.651441 
L 259.813693 207.620021 
L 260.016729 178.916393 
L 260.219765 198.734338 
L 260.422801 189.698093 
L 260.828873 212.418166 
L 261.031909 162.061757 
L 261.234945 198.389496 
L 261.437981 181.038651 
L 261.641017 208.171542 
L 261.844053 182.860768 
L 262.047089 185.170595 
L 262.250125 188.9104 
L 262.45316 217.940731 
L 262.656196 192.044423 
L 262.859232 200.529528 
L 263.265304 165.359769 
L 263.46834 204.380317 
L 263.671376 187.403646 
L 263.874412 211.015905 
L 264.280484 188.768429 
L 264.48352 154.914305 
L 264.686556 221.432989 
L 264.889592 200.644378 
L 265.092628 227.99267 
L 265.295664 167.315212 
L 265.4987 170.179136 
L 265.701736 171.376155 
L 265.904772 181.931761 
L 266.107808 213.886509 
L 266.310844 204.678832 
L 266.51388 212.605465 
L 266.716916 182.484195 
L 266.919952 211.67209 
L 267.122988 205.06907 
L 267.326024 180.82858 
L 267.52906 237.876512 
L 267.935132 188.3603 
L 268.138168 201.317768 
L 268.341204 199.193578 
L 268.54424 184.970357 
L 268.747276 183.390284 
L 269.153348 162.570344 
L 269.356384 189.093645 
L 269.55942 177.838238 
L 269.762456 230.138038 
L 269.965492 166.489443 
L 270.168528 200.536022 
L 270.371564 195.928188 
L 270.5746 179.419331 
L 270.777636 213.74676 
L 270.980672 159.07107 
L 271.183708 194.826492 
L 271.386744 196.762955 
L 271.58978 187.653285 
L 271.792816 192.081858 
L 271.995852 237.546735 
L 272.198888 196.693891 
L 272.401924 194.779242 
L 272.60496 176.655483 
L 272.807996 263.070988 
L 273.214068 178.350792 
L 273.417104 176.738393 
L 273.62014 217.329461 
L 273.823176 185.379754 
L 274.229248 228.695657 
L 274.432284 202.902464 
L 274.63532 229.258508 
L 274.838356 167.551814 
L 275.244428 238.576786 
L 275.447464 179.280611 
L 275.853536 225.75285 
L 276.056572 171.506899 
L 276.66568 200.472348 
L 276.868716 228.849241 
L 277.274788 182.388454 
L 277.477824 216.298303 
L 277.883896 166.188544 
L 278.086932 231.512648 
L 278.289968 214.542846 
L 278.493004 163.863236 
L 278.69604 234.297401 
L 278.899076 201.031408 
L 279.305148 254.749049 
L 279.71122 190.635761 
L 279.914256 191.865166 
L 280.117291 191.866173 
L 280.523363 218.682741 
L 280.726399 229.532101 
L 280.929435 175.770236 
L 281.132471 228.593989 
L 281.538543 206.98615 
L 281.741579 209.956253 
L 282.147651 222.87171 
L 282.350687 181.444154 
L 282.553723 197.214028 
L 282.756759 195.944573 
L 282.959795 209.11894 
L 283.162831 174.813641 
L 283.365867 188.154099 
L 283.771939 253.975444 
L 283.974975 202.252965 
L 284.178011 208.544498 
L 284.381047 184.691038 
L 284.584083 215.388955 
L 284.787119 209.026718 
L 285.193191 173.976587 
L 285.599263 216.406837 
L 285.802299 211.069633 
L 286.005335 186.276024 
L 286.208371 190.701897 
L 286.614443 243.785941 
L 287.020515 168.696015 
L 287.223551 223.936153 
L 287.629623 185.910099 
L 287.832659 247.476766 
L 288.035695 211.842194 
L 288.238731 213.727301 
L 288.441767 164.569354 
L 288.644803 220.041307 
L 288.847839 216.135215 
L 289.050875 197.331599 
L 289.253911 234.626605 
L 289.456947 194.130996 
L 289.659983 176.632806 
L 290.066055 201.132563 
L 290.269091 202.892232 
L 290.472127 230.446455 
L 290.675163 216.845488 
L 290.878199 149.27402 
L 291.081235 240.944372 
L 291.284271 178.382973 
L 291.487307 198.274639 
L 291.690343 160.77373 
L 291.893379 210.981247 
L 292.096415 166.987 
L 292.299451 214.819218 
L 292.502487 163.159459 
L 292.705523 218.039997 
L 292.908559 240.25513 
L 293.111595 231.586423 
L 293.314631 213.455371 
L 293.517667 206.852776 
L 293.720703 214.474893 
L 293.923739 199.556282 
L 294.126775 238.864429 
L 294.329811 239.039035 
L 294.532847 210.487572 
L 294.735883 210.181748 
L 294.938919 198.811904 
L 295.141955 200.215158 
L 295.344991 232.420521 
L 295.548027 212.525893 
L 296.157135 208.221797 
L 296.360171 188.650483 
L 296.563207 214.685682 
L 296.766243 181.486137 
L 296.969279 208.885494 
L 297.172315 180.212553 
L 297.375351 227.973744 
L 297.578386 231.893666 
L 297.781422 198.144762 
L 297.984458 210.817979 
L 298.39053 167.462607 
L 298.593566 230.852306 
L 298.796602 207.102444 
L 298.999638 215.860159 
L 299.202674 240.730055 
L 299.40571 186.025492 
L 299.608746 180.507185 
L 300.014818 214.511388 
L 300.42089 231.549883 
L 300.623926 199.883111 
L 300.826962 199.463878 
L 301.029998 235.707953 
L 301.43607 220.841627 
L 301.639106 232.646948 
L 301.842142 227.564555 
L 302.045178 185.652437 
L 302.248214 202.340243 
L 302.45125 247.967183 
L 302.654286 210.894372 
L 302.857322 214.633487 
L 303.060358 235.60519 
L 303.263394 181.923781 
L 303.46643 221.447195 
L 303.669466 222.840231 
L 303.872502 200.58317 
L 304.075538 229.144787 
L 304.278574 222.040285 
L 304.48161 233.193426 
L 304.684646 210.554454 
L 304.887682 221.011978 
L 305.293754 198.062212 
L 305.49679 233.992627 
L 305.699826 232.177664 
L 305.902862 204.419114 
L 306.105898 199.822706 
L 306.308934 238.682783 
L 306.51197 170.126859 
L 306.715006 166.117952 
L 306.918042 209.237564 
L 307.121078 201.206079 
L 307.324114 221.188408 
L 307.52715 204.581918 
L 307.730186 205.457691 
L 307.933222 178.846184 
L 308.339294 224.741819 
L 308.54233 187.06412 
L 308.745366 186.240821 
L 308.948402 224.719439 
L 309.151438 210.70567 
L 309.354474 177.509407 
L 309.760546 232.650627 
L 309.963582 183.877013 
L 310.166618 218.782601 
L 310.369654 222.114914 
L 310.57269 227.920397 
L 310.978762 192.761637 
L 311.181798 221.563461 
L 311.384834 188.539964 
L 311.58787 217.084861 
L 311.790906 225.225398 
L 311.993942 252.922352 
L 312.60305 182.254198 
L 312.806086 242.520284 
L 313.009122 233.070241 
L 313.212158 189.76771 
L 313.415194 227.666132 
L 313.61823 208.759372 
L 313.821266 243.211021 
L 314.024302 232.62401 
L 314.227338 239.044842 
L 314.430374 201.713827 
L 314.63341 231.878614 
L 314.836446 191.121773 
L 315.039481 248.706362 
L 315.648589 206.832716 
L 315.851625 199.651667 
L 316.054661 263.267273 
L 316.257697 197.692618 
L 316.460733 188.716482 
L 316.663769 215.248233 
L 316.866805 221.334312 
L 317.069841 196.284136 
L 317.272877 226.50738 
L 317.475913 197.085316 
L 317.881985 238.303493 
L 318.085021 206.273376 
L 318.288057 244.208984 
L 318.491093 205.221585 
L 318.694129 206.123455 
L 318.897165 223.682839 
L 319.709309 203.342784 
L 320.318417 259.012523 
L 320.724489 206.067479 
L 320.927525 206.470819 
L 321.130561 200.089374 
L 321.333597 223.022453 
L 321.536633 230.310553 
L 321.942705 212.469387 
L 322.145741 210.778219 
L 322.348777 178.765059 
L 322.551813 176.128676 
L 322.754849 180.989138 
L 322.957885 188.649794 
L 323.160921 166.665637 
L 323.566993 200.747359 
L 323.770029 199.126873 
L 323.973065 224.166798 
L 324.176101 224.058021 
L 324.379137 190.100246 
L 324.582173 237.258264 
L 324.785209 246.417421 
L 325.191281 207.184835 
L 325.394317 240.927065 
L 325.597353 224.921725 
L 326.003425 225.927782 
L 326.409497 259.292947 
L 326.612533 206.60162 
L 326.815569 210.75198 
L 327.018605 221.848248 
L 327.221641 226.263885 
L 327.424677 244.682371 
L 327.627713 199.872195 
L 327.830749 205.422213 
L 328.236821 253.416203 
L 328.439857 222.693393 
L 328.642893 215.563517 
L 328.845929 217.914401 
L 329.048965 191.614308 
L 329.252001 189.535466 
L 329.455037 199.168839 
L 329.658073 265.773242 
L 329.861109 226.955544 
L 330.064145 247.928702 
L 330.267181 198.095634 
L 330.470217 206.495316 
L 330.673253 208.168969 
L 330.876289 220.29685 
L 331.079325 209.991413 
L 331.282361 175.479807 
L 331.485397 175.64749 
L 331.688433 187.382557 
L 331.891469 227.002789 
L 332.094505 198.104256 
L 332.297541 220.690287 
L 332.500576 201.012532 
L 332.703612 287.364145 
L 332.906648 212.26488 
L 333.31272 209.495679 
L 333.515756 247.270357 
L 333.718792 193.062194 
L 333.921828 263.738014 
L 334.124864 206.644227 
L 334.3279 257.658848 
L 334.530936 237.484142 
L 334.733972 194.849759 
L 334.937008 213.657647 
L 335.140044 255.401273 
L 335.34308 202.498023 
L 335.546116 190.87946 
L 335.749152 250.941267 
L 335.952188 239.825173 
L 336.155224 217.812882 
L 336.35826 215.058679 
L 336.561296 197.285829 
L 336.764332 226.152402 
L 336.967368 223.037618 
L 337.170404 254.305293 
L 337.37344 191.617648 
L 337.576476 233.247358 
L 337.779512 229.457267 
L 337.982548 214.823458 
L 338.185584 189.301761 
L 338.38862 217.52731 
L 338.591656 215.552534 
L 338.997728 251.700438 
L 339.200764 223.746079 
L 339.4038 219.381178 
L 339.606836 202.366271 
L 339.809872 239.081319 
L 340.012908 162.057248 
L 340.215944 254.593649 
L 340.41898 178.102328 
L 340.622016 206.439275 
L 340.825052 196.441375 
L 341.231124 225.516353 
L 341.43416 194.547648 
L 341.840232 210.274264 
L 342.043268 178.019849 
L 342.44934 260.638745 
L 342.652376 239.768684 
L 343.058448 238.091191 
L 343.261484 211.426534 
L 343.46452 219.643365 
L 343.870592 201.718753 
L 344.073628 239.242829 
L 344.276664 159.368035 
L 344.682736 226.616076 
L 344.885772 219.581765 
L 345.088808 225.012851 
L 345.291844 204.625921 
L 345.49488 201.217 
L 345.697916 202.893448 
L 345.900952 220.262786 
L 346.103988 261.421994 
L 346.307024 186.009379 
L 346.51006 246.549583 
L 346.916132 205.32899 
L 347.119168 222.958064 
L 347.322204 202.581222 
L 347.52524 220.390137 
L 347.728276 185.651715 
L 347.931312 231.18403 
L 348.134348 240.1784 
L 348.337384 221.69848 
L 348.54042 259.359542 
L 348.743456 202.414129 
L 348.946492 257.089499 
L 349.352564 203.731732 
L 349.5556 212.860345 
L 349.758636 247.042865 
L 349.961671 200.383264 
L 350.164707 273.606539 
L 350.367743 266.200315 
L 350.773815 233.175118 
L 350.976851 240.08209 
L 351.179887 272.250965 
L 351.585959 246.91285 
L 351.788995 264.062536 
L 351.992031 197.707145 
L 352.195067 211.746229 
L 352.398103 187.574756 
L 352.601139 235.497829 
L 352.804175 227.365599 
L 353.007211 259.332588 
L 353.210247 272.765797 
L 353.616319 231.962726 
L 353.819355 252.790211 
L 354.022391 233.041264 
L 354.225427 272.388959 
L 354.428463 205.381829 
L 354.631499 203.769288 
L 354.834535 261.720573 
L 355.037571 195.501944 
L 355.240607 226.992186 
L 355.443643 231.5221 
L 355.849715 177.367245 
L 356.052751 199.675692 
L 356.255787 193.262919 
L 356.458823 245.924503 
L 356.661859 187.732935 
L 357.067931 246.597416 
L 357.270967 252.077044 
L 357.474003 199.221987 
L 357.677039 246.906556 
L 357.880075 211.118174 
L 358.083111 257.077017 
L 358.286147 225.167395 
L 358.489183 247.096527 
L 358.692219 249.431235 
L 358.895255 246.454074 
L 359.301327 214.827159 
L 359.504363 272.952009 
L 359.707399 223.037377 
L 360.113471 280.696977 
L 360.316507 260.789417 
L 360.519543 175.79352 
L 360.722579 243.32962 
L 361.128651 191.996631 
L 361.331687 215.391924 
L 361.534723 260.701073 
L 361.737759 222.47402 
L 361.940795 242.870378 
L 362.346867 184.365149 
L 362.549903 231.313771 
L 362.752939 205.364637 
L 363.159011 289.917103 
L 363.362047 204.163337 
L 363.565083 170.549005 
L 363.768119 245.327648 
L 363.971155 264.677344 
L 364.174191 219.180983 
L 364.377227 233.806314 
L 364.580263 225.988643 
L 364.986335 277.298177 
L 365.189371 213.253769 
L 365.392407 213.672872 
L 365.595443 295.488 
L 365.798479 191.943583 
L 366.001515 195.367445 
L 366.204551 276.043562 
L 366.407587 244.235952 
L 366.610623 250.54079 
L 366.813659 262.661295 
L 367.016695 176.499212 
L 367.219731 187.828145 
L 367.422767 217.492964 
L 367.625802 213.977816 
L 367.828838 215.626303 
L 368.031874 207.384113 
L 368.23491 221.408988 
L 368.437946 170.269485 
L 368.844018 252.391947 
L 369.047054 245.887162 
L 369.453126 289.100722 
L 369.656162 235.506791 
L 369.859198 239.85104 
L 370.062234 230.203531 
L 370.26527 211.826347 
L 370.468306 238.459158 
L 370.671342 248.473976 
L 370.874378 250.287542 
L 371.28045 196.711574 
L 371.483486 204.201063 
L 371.686522 237.437971 
L 371.889558 238.72754 
L 372.092594 226.324731 
L 372.29563 232.47312 
L 372.498666 212.818615 
L 372.701702 243.605015 
L 372.904738 209.389379 
L 373.107774 221.508189 
L 373.31081 191.790706 
L 373.716882 250.629559 
L 373.919918 226.305696 
L 374.122954 229.699298 
L 374.32599 221.574717 
L 374.529026 203.03629 
L 374.935098 238.29196 
L 375.138134 270.40605 
L 375.34117 207.713436 
L 375.544206 206.063295 
L 375.747242 231.199145 
L 375.950278 218.890671 
L 376.153314 249.816377 
L 376.35635 207.025341 
L 376.559386 214.555101 
L 376.762422 252.242985 
L 376.965458 261.126021 
L 377.168494 214.3874 
L 377.37153 196.717173 
L 377.574566 247.598109 
L 377.777602 207.265876 
L 378.183674 266.757361 
L 378.38671 249.737656 
L 378.589746 252.345691 
L 378.792782 207.912846 
L 378.995818 237.424885 
L 379.198854 237.863981 
L 379.40189 272.41202 
L 379.604926 262.056591 
L 379.807962 232.432059 
L 380.010998 168.268616 
L 380.41707 286.006334 
L 380.620106 234.722333 
L 380.823142 235.442343 
L 381.026178 220.44493 
L 381.229214 221.056397 
L 381.43225 250.792849 
L 381.635286 223.775412 
L 381.838322 232.889364 
L 382.041358 212.348652 
L 382.244394 227.09111 
L 382.44743 173.352006 
L 382.650466 212.794321 
L 382.853502 200.171027 
L 383.056538 216.841964 
L 383.259574 245.923849 
L 383.46261 198.927914 
L 383.665646 235.78972 
L 383.868682 230.922069 
L 384.071718 217.095024 
L 384.274754 219.336103 
L 384.47779 239.240717 
L 384.680826 192.458408 
L 384.883862 210.22885 
L 385.086897 206.370292 
L 385.289933 221.792962 
L 385.492969 214.820168 
L 385.696005 266.478226 
L 386.102077 183.67862 
L 386.305113 257.57631 
L 386.508149 202.767134 
L 386.711185 246.532701 
L 386.914221 241.251632 
L 387.117257 200.572198 
L 387.320293 203.941073 
L 387.523329 191.459275 
L 387.726365 268.995555 
L 387.929401 192.987662 
L 388.132437 264.673517 
L 388.335473 197.715866 
L 388.538509 254.187991 
L 388.741545 206.916756 
L 388.944581 212.725434 
L 389.147617 204.298538 
L 389.350653 212.691923 
L 389.553689 227.662522 
L 389.756725 221.951891 
L 389.959761 238.718631 
L 390.162797 280.432081 
L 390.365833 189.517503 
L 390.568869 227.597475 
L 390.771905 220.447054 
L 390.974941 229.468527 
L 391.177977 229.045863 
L 391.584049 274.131637 
L 392.193157 194.588973 
L 392.396193 217.751285 
L 392.599229 227.532491 
L 392.802265 275.843758 
L 393.005301 222.25658 
L 393.208337 237.255143 
L 393.411373 203.262978 
L 393.614409 229.530994 
L 393.817445 229.353097 
L 394.020481 225.928545 
L 394.223517 238.145942 
L 394.629589 202.908495 
L 394.832625 246.726221 
L 395.035661 219.263314 
L 395.238697 241.68962 
L 395.441733 197.21362 
L 395.644769 217.892812 
L 395.847805 254.562315 
L 396.050841 187.543845 
L 396.253877 227.81424 
L 396.456913 237.371997 
L 396.659949 267.794172 
L 396.862985 155.261155 
L 397.472093 284.764587 
L 397.675129 212.357852 
L 397.878165 204.377967 
L 398.081201 240.567133 
L 398.284237 201.462354 
L 398.487273 209.60684 
L 398.487273 209.60684 
" style="fill:none;stroke:#1f77b4;stroke-linecap:square;stroke-width:1.5;"/>
   </g>
   <g id="line2d_17">
    <path clip-path="url(#p8574aed100)" d="M 73.832727 53.571167 
L 91.699894 53.570686 
L 103.475982 53.571731 
L 105.912413 53.643182 
L 106.115449 53.79156 
L 106.318485 54.124915 
L 106.724557 59.650682 
L 106.927593 56.966517 
L 107.130629 58.042005 
L 107.333665 58.390547 
L 107.536701 62.957072 
L 107.739737 61.712988 
L 107.942773 67.895712 
L 108.145809 69.537012 
L 108.348845 67.420321 
L 108.551881 68.689649 
L 108.754917 60.011232 
L 109.160989 62.862102 
L 109.364025 63.033379 
L 109.567061 68.8714 
L 109.770097 71.495051 
L 109.973133 75.868346 
L 110.176169 70.756733 
L 110.379205 69.278765 
L 110.582241 69.097393 
L 110.785277 68.73011 
L 110.988313 74.705143 
L 111.394385 68.842742 
L 111.800457 72.99959 
L 112.003493 71.561955 
L 112.206529 74.594897 
L 112.409565 75.557889 
L 112.612601 74.646723 
L 112.815637 70.824309 
L 113.221709 80.92207 
L 113.424745 81.741714 
L 113.627781 78.072681 
L 113.830817 79.893399 
L 114.236889 85.565139 
L 114.439925 81.993117 
L 114.642961 81.207199 
L 114.845997 82.075155 
L 115.049033 72.356111 
L 115.252069 75.657175 
L 115.455105 76.739393 
L 115.861177 74.965862 
L 116.064213 76.53385 
L 116.470285 87.253351 
L 116.673321 78.455999 
L 116.876357 83.300082 
L 117.079393 84.524673 
L 117.282429 84.676856 
L 117.485465 87.261603 
L 117.688501 82.629923 
L 118.094573 85.575795 
L 118.297609 85.074265 
L 118.500645 89.437957 
L 118.703681 85.566807 
L 118.906717 87.142955 
L 119.109753 95.771539 
L 119.515825 84.861925 
L 119.718861 92.265784 
L 119.921897 90.573181 
L 120.327969 99.680884 
L 120.531005 101.317526 
L 120.937077 86.583091 
L 121.140113 90.621709 
L 121.343149 89.8259 
L 121.546185 91.247991 
L 121.749221 97.732633 
L 121.952257 95.3078 
L 122.155293 103.45848 
L 122.358329 101.832503 
L 122.561364 101.160291 
L 122.967436 93.745696 
L 123.170472 97.085439 
L 123.576544 112.81107 
L 123.982616 100.586163 
L 124.185652 98.658324 
L 124.388688 98.245261 
L 124.591724 98.762656 
L 124.79476 98.852037 
L 124.997796 106.128795 
L 125.200832 105.574528 
L 125.403868 106.861541 
L 125.606904 110.264096 
L 125.80994 104.833329 
L 126.012976 102.83716 
L 126.216012 98.531161 
L 126.622084 108.117476 
L 127.028156 104.094383 
L 127.231192 109.114661 
L 127.434228 100.22414 
L 127.637264 116.188382 
L 128.043336 99.535086 
L 128.246372 111.121059 
L 128.449408 108.776437 
L 128.652444 107.907279 
L 128.85548 98.860473 
L 129.464588 112.98929 
L 129.667624 101.148796 
L 129.87066 102.569115 
L 130.073696 98.843892 
L 130.276732 108.887014 
L 130.479768 106.383183 
L 130.682804 114.786178 
L 131.088876 113.23889 
L 131.291912 126.241495 
L 131.494948 123.478402 
L 131.697984 112.749915 
L 131.90102 111.240744 
L 132.104056 119.101138 
L 132.307092 120.56701 
L 132.510128 109.746827 
L 132.713164 123.527521 
L 132.9162 116.748141 
L 133.119236 118.20152 
L 133.322272 111.203807 
L 133.525308 116.740791 
L 133.728344 107.23084 
L 133.93138 116.414982 
L 134.134416 98.591561 
L 134.540488 132.487098 
L 134.743524 117.687631 
L 134.94656 111.60434 
L 135.149596 116.423046 
L 135.352632 124.292313 
L 135.555668 120.092099 
L 135.758704 111.423569 
L 135.96174 113.365058 
L 136.164776 124.897592 
L 136.367812 121.92308 
L 136.570848 133.957474 
L 136.773884 124.391534 
L 136.97692 121.628411 
L 137.179956 122.300764 
L 137.382992 115.674886 
L 137.586028 124.898311 
L 137.789064 123.312856 
L 137.9921 120.446174 
L 138.398172 104.676898 
L 138.601208 116.795463 
L 138.804244 113.538425 
L 139.00728 123.905208 
L 139.210316 114.829791 
L 139.413352 124.836567 
L 139.616388 125.048704 
L 139.819424 123.46434 
L 140.022459 112.512935 
L 140.225495 127.153031 
L 140.428531 113.897931 
L 140.631567 115.809074 
L 140.834603 121.655241 
L 141.037639 121.872662 
L 141.443711 123.466797 
L 141.646747 113.729153 
L 141.849783 128.570562 
L 142.052819 129.611579 
L 142.255855 119.127368 
L 142.458891 129.414335 
L 142.864963 119.290194 
L 143.067999 137.285146 
L 143.474071 113.476107 
L 143.677107 127.748103 
L 143.880143 124.275188 
L 144.083179 126.584964 
L 144.286215 118.062322 
L 144.489251 131.479655 
L 144.692287 114.822725 
L 144.895323 130.799076 
L 145.098359 130.89275 
L 145.301395 122.278675 
L 145.504431 118.682321 
L 145.707467 141.998168 
L 146.113539 114.461692 
L 146.316575 127.977128 
L 146.519611 115.448449 
L 146.925683 136.463446 
L 147.128719 128.874299 
L 147.331755 126.088885 
L 147.737827 141.530818 
L 148.143899 126.713333 
L 148.346935 135.634143 
L 148.549971 124.959885 
L 148.753007 132.297779 
L 148.956043 124.240205 
L 149.159079 124.629226 
L 149.362115 122.083864 
L 149.565151 131.86375 
L 149.768187 136.137608 
L 149.971223 128.685933 
L 150.174259 141.822657 
L 150.377295 139.824842 
L 150.580331 122.414338 
L 150.783367 131.426484 
L 150.986403 126.876115 
L 151.189439 145.202449 
L 151.392475 131.7849 
L 151.595511 126.850314 
L 151.798547 129.612025 
L 152.001583 124.577819 
L 152.204619 130.757224 
L 152.407655 118.448109 
L 152.610691 120.833789 
L 152.813727 117.102546 
L 153.016763 121.563174 
L 153.219799 128.973559 
L 153.422835 118.100189 
L 153.625871 119.764932 
L 153.828907 144.123846 
L 154.031943 129.396118 
L 154.234979 139.93351 
L 154.641051 115.846626 
L 154.844087 129.477577 
L 155.047123 122.576397 
L 155.453195 126.164463 
L 155.656231 126.402137 
L 155.859267 123.774027 
L 156.062303 141.047847 
L 156.671411 130.560746 
L 156.874447 134.090732 
L 157.077483 122.461867 
L 157.280519 140.970818 
L 157.483554 132.694887 
L 157.68659 141.956478 
L 157.889626 141.064081 
L 158.092662 141.657163 
L 158.295698 127.334341 
L 158.498734 155.473014 
L 158.70177 125.307543 
L 158.904806 132.866288 
L 159.107842 136.133307 
L 159.310878 130.878297 
L 159.71695 138.867172 
L 159.919986 136.396113 
L 160.123022 121.352409 
L 160.326058 137.417951 
L 160.529094 128.366859 
L 160.73213 134.964103 
L 160.935166 133.192696 
L 161.138202 127.605502 
L 161.544274 146.734413 
L 161.74731 141.697166 
L 161.950346 129.508429 
L 162.153382 147.172731 
L 162.356418 117.894442 
L 162.559454 141.750909 
L 162.76249 146.845033 
L 162.965526 128.437169 
L 163.168562 137.316863 
L 163.371598 154.3744 
L 163.574634 135.148309 
L 163.77767 130.519203 
L 163.980706 148.306873 
L 164.183742 137.994957 
L 164.589814 150.460432 
L 164.995886 114.90493 
L 165.198922 134.201696 
L 165.401958 139.827881 
L 165.604994 141.257515 
L 165.80803 124.715551 
L 166.214102 146.016651 
L 166.417138 139.313679 
L 167.026246 143.328296 
L 167.229282 127.723004 
L 167.432318 141.578038 
L 167.83839 149.001157 
L 168.041426 143.426578 
L 168.244462 140.979294 
L 168.447498 144.059358 
L 168.650534 132.991657 
L 168.85357 145.137258 
L 169.056606 137.003969 
L 169.259642 140.062848 
L 169.462678 145.399267 
L 169.665714 158.145656 
L 169.86875 158.609844 
L 170.071786 135.221476 
L 170.274822 132.630392 
L 170.477858 143.479935 
L 170.680894 134.534073 
L 170.88393 150.403991 
L 171.086966 149.693321 
L 171.290002 144.49978 
L 171.493038 151.210306 
L 171.696074 140.57337 
L 171.89911 160.252319 
L 172.102146 141.283095 
L 172.305182 159.637838 
L 172.508218 161.865042 
L 172.711254 146.235737 
L 172.91429 139.328169 
L 173.117326 142.633105 
L 173.320362 141.95794 
L 173.523398 146.681668 
L 173.726434 154.768358 
L 173.92947 153.077093 
L 174.132506 145.728557 
L 174.335542 144.894886 
L 174.538578 140.422445 
L 174.741614 131.10585 
L 175.147685 149.710333 
L 175.350721 126.380169 
L 175.553757 134.742292 
L 175.756793 136.589271 
L 175.959829 147.879291 
L 176.162865 147.350458 
L 176.365901 137.310681 
L 176.568937 155.229134 
L 176.771973 158.429095 
L 176.975009 150.520322 
L 177.178045 157.19234 
L 177.584117 134.287843 
L 177.787153 155.316181 
L 177.990189 156.813374 
L 178.193225 151.835454 
L 178.396261 123.958758 
L 178.599297 149.24898 
L 178.802333 136.77276 
L 179.005369 137.028275 
L 179.208405 138.910528 
L 179.411441 144.52462 
L 179.614477 128.977761 
L 179.817513 151.762719 
L 180.020549 123.348858 
L 180.223585 156.333986 
L 180.426621 152.4064 
L 180.629657 135.010772 
L 180.832693 164.940859 
L 181.035729 120.74274 
L 181.238765 150.404386 
L 181.644837 134.954447 
L 181.847873 137.382518 
L 182.050909 154.605821 
L 182.253945 142.180298 
L 182.456981 150.083599 
L 182.660017 130.489031 
L 182.863053 148.269648 
L 183.066089 145.98502 
L 183.269125 139.621408 
L 183.472161 150.533188 
L 183.675197 130.830193 
L 183.878233 140.159815 
L 184.284305 145.709414 
L 184.487341 146.202688 
L 184.690377 159.428272 
L 184.893413 155.583575 
L 185.096449 144.776092 
L 185.299485 153.027793 
L 185.502521 168.853241 
L 185.705557 168.285899 
L 185.908593 147.365139 
L 186.111629 138.604975 
L 186.314665 140.525692 
L 186.720737 170.761137 
L 187.126809 135.559247 
L 187.329845 147.271603 
L 187.532881 147.13998 
L 187.735917 143.42219 
L 187.938953 150.808752 
L 188.345025 156.721597 
L 188.548061 166.447415 
L 188.751097 164.321503 
L 188.954133 151.006306 
L 189.157169 170.377476 
L 189.360205 128.830665 
L 189.969313 173.900846 
L 190.172349 131.355788 
L 190.375385 161.226326 
L 190.578421 141.315019 
L 190.781457 149.797724 
L 190.984493 152.276699 
L 191.187529 157.457753 
L 191.390565 149.461267 
L 191.593601 148.398682 
L 191.796637 136.61037 
L 191.999673 139.762681 
L 192.202709 154.685951 
L 192.405744 142.413703 
L 193.014852 168.43016 
L 193.217888 156.400244 
L 193.420924 155.693339 
L 193.62396 173.986905 
L 194.030032 162.807432 
L 194.233068 137.703686 
L 194.436104 170.113706 
L 194.842176 146.26914 
L 195.045212 160.351612 
L 195.248248 191.00574 
L 195.65432 154.353083 
L 195.857356 165.915778 
L 196.060392 147.059622 
L 196.263428 156.935498 
L 196.466464 140.844747 
L 196.6695 175.944774 
L 196.872536 158.941635 
L 197.278608 153.046267 
L 197.481644 136.194096 
L 197.68468 181.921526 
L 197.887716 153.565028 
L 198.090752 159.424592 
L 198.293788 150.35869 
L 198.496824 163.895583 
L 198.69986 169.707249 
L 199.105932 143.401752 
L 199.308968 152.943627 
L 199.512004 148.717518 
L 199.71504 170.387214 
L 199.918076 169.395317 
L 200.324148 159.363005 
L 200.527184 145.479629 
L 200.73022 156.053014 
L 200.933256 140.050452 
L 201.136292 153.892347 
L 201.339328 182.366505 
L 201.542364 153.589627 
L 201.7454 169.803367 
L 201.948436 167.381158 
L 202.151472 150.156971 
L 202.354508 170.588784 
L 202.557544 148.260991 
L 203.166652 185.231998 
L 203.369688 166.837788 
L 203.572724 165.928656 
L 203.978796 140.655912 
L 204.181832 154.399695 
L 204.384868 182.61621 
L 204.587904 161.874536 
L 204.79094 153.648445 
L 204.993976 159.217724 
L 205.197012 173.039397 
L 205.400048 164.639796 
L 205.603084 188.630376 
L 205.80612 173.987439 
L 206.212192 165.814243 
L 206.415228 195.216506 
L 206.618264 157.885482 
L 206.8213 175.144264 
L 207.024336 148.007769 
L 207.227372 179.859115 
L 207.430408 154.121586 
L 207.633444 171.784907 
L 208.039516 170.961525 
L 208.242552 164.986325 
L 208.445588 144.337418 
L 208.85166 177.669536 
L 209.054696 174.492447 
L 209.257732 175.245828 
L 209.460768 181.433039 
L 209.663804 171.879931 
L 210.069875 187.03342 
L 210.475947 169.417922 
L 210.678983 163.119605 
L 210.882019 166.93517 
L 211.085055 163.147418 
L 211.288091 174.811448 
L 211.491127 177.504393 
L 211.694163 171.546624 
L 211.897199 171.117883 
L 212.100235 175.379204 
L 212.303271 201.520508 
L 212.506307 158.76393 
L 212.709343 161.93094 
L 212.912379 150.22433 
L 213.318451 187.917084 
L 213.521487 187.160845 
L 213.724523 162.431809 
L 213.927559 165.405876 
L 214.130595 206.078938 
L 214.333631 171.928138 
L 214.536667 172.888376 
L 214.739703 174.81501 
L 214.942739 178.653579 
L 215.145775 177.180948 
L 215.348811 200.020342 
L 215.551847 191.793664 
L 215.754883 168.581464 
L 215.957919 160.951862 
L 216.160955 177.650363 
L 216.363991 169.958813 
L 216.567027 174.08233 
L 216.770063 174.904408 
L 216.973099 170.474219 
L 217.176135 197.128546 
L 217.379171 163.409695 
L 217.582207 191.853136 
L 217.785243 188.961925 
L 217.988279 213.278127 
L 218.191315 159.442335 
L 218.394351 176.929247 
L 218.597387 163.657136 
L 218.800423 189.710641 
L 219.003459 175.276329 
L 219.206495 191.98569 
L 219.409531 189.174039 
L 219.612567 181.282421 
L 219.815603 180.478312 
L 220.018639 166.444909 
L 220.221675 174.721732 
L 220.424711 176.749784 
L 220.627747 172.371165 
L 220.830783 156.432192 
L 221.033819 177.29528 
L 221.236855 155.501811 
L 221.439891 182.63531 
L 221.642927 188.141958 
L 221.845963 189.96279 
L 222.048999 185.371271 
L 222.252035 161.583041 
L 222.455071 152.049459 
L 222.658107 167.498358 
L 222.861143 195.004249 
L 223.064179 179.504965 
L 223.267215 190.675108 
L 223.470251 193.611058 
L 223.673287 167.601488 
L 223.876323 177.272176 
L 224.079359 179.378704 
L 224.282395 173.925151 
L 224.485431 217.519071 
L 224.688467 175.799547 
L 224.891503 191.973164 
L 225.094539 179.061316 
L 225.500611 170.627945 
L 225.703647 156.786886 
L 225.906683 174.124402 
L 226.109719 167.130604 
L 226.312755 171.229321 
L 226.515791 161.575463 
L 226.718827 183.638654 
L 226.921863 185.485091 
L 227.124899 145.431641 
L 227.327935 185.804931 
L 227.734006 153.665734 
L 227.937042 166.209744 
L 228.140078 170.69193 
L 228.343114 169.504571 
L 228.54615 190.282972 
L 228.749186 183.147762 
L 228.952222 200.53219 
L 229.155258 178.980284 
L 229.358294 187.048208 
L 229.56133 158.806424 
L 229.967402 176.41417 
L 230.170438 172.28419 
L 230.57651 200.863853 
L 230.779546 187.694614 
L 230.982582 197.692848 
L 231.185618 178.269824 
L 231.388654 173.923812 
L 231.59169 193.313351 
L 231.997762 169.832743 
L 232.200798 153.585081 
L 232.403834 185.755459 
L 232.60687 159.842937 
L 232.809906 186.750161 
L 233.012942 166.386189 
L 233.215978 190.733337 
L 233.419014 176.998912 
L 233.62205 154.598418 
L 233.825086 181.719009 
L 234.028122 177.074107 
L 234.231158 160.597562 
L 234.434194 161.60831 
L 234.63723 167.004429 
L 234.840266 183.997012 
L 235.043302 162.573676 
L 235.246338 176.40761 
L 235.449374 181.331608 
L 235.65241 178.368872 
L 235.855446 179.029105 
L 236.058482 175.925287 
L 236.261518 177.141498 
L 236.464554 182.759939 
L 236.66759 172.736613 
L 236.870626 193.825359 
L 237.073662 178.02201 
L 237.276698 218.378948 
L 237.479734 212.833676 
L 237.68277 180.076466 
L 237.885806 169.834645 
L 238.088842 171.727313 
L 238.291878 194.889595 
L 238.494914 160.871052 
L 238.69795 227.241022 
L 239.104022 154.089715 
L 239.307058 183.977644 
L 239.510094 167.421749 
L 239.71313 177.252765 
L 239.916166 212.070631 
L 240.322238 188.419281 
L 240.525274 189.391419 
L 240.72831 212.037692 
L 240.931346 195.359901 
L 241.134382 158.449441 
L 241.337418 216.238919 
L 241.540454 184.267857 
L 242.149562 196.897397 
L 242.352598 191.940164 
L 242.555634 178.155719 
L 242.75867 178.378381 
L 242.961706 211.401998 
L 243.164742 167.780847 
L 243.570814 196.270635 
L 243.976886 179.14015 
L 244.179922 193.693218 
L 244.382958 180.455934 
L 244.585994 204.867312 
L 244.78903 189.097801 
L 244.992065 185.330985 
L 245.195101 175.477263 
L 245.398137 194.882443 
L 245.601173 184.998829 
L 245.804209 190.378082 
L 246.007245 172.590689 
L 246.210281 193.620075 
L 246.413317 179.757383 
L 246.616353 194.786463 
L 246.819389 188.723358 
L 247.022425 186.822074 
L 247.225461 201.407407 
L 247.428497 160.044088 
L 247.834569 197.066083 
L 248.037605 187.48959 
L 248.240641 215.505869 
L 248.443677 177.600215 
L 248.646713 211.966529 
L 248.849749 160.244235 
L 249.052785 224.701717 
L 249.255821 180.036979 
L 249.458857 241.91763 
L 249.661893 180.712038 
L 249.864929 189.595778 
L 250.067965 205.906218 
L 250.271001 195.626681 
L 250.474037 177.858511 
L 250.677073 214.028515 
L 251.286181 171.366017 
L 251.489217 193.91779 
L 251.692253 186.534112 
L 252.098325 202.601229 
L 252.301361 181.129502 
L 252.504397 198.434522 
L 252.707433 178.290264 
L 252.910469 204.428946 
L 253.113505 192.947301 
L 253.316541 160.630771 
L 253.722613 197.425034 
L 253.925649 198.534655 
L 254.331721 168.663674 
L 254.534757 177.370487 
L 254.737793 215.964248 
L 254.940829 177.385064 
L 255.143865 170.011207 
L 255.346901 221.971425 
L 255.549937 174.126157 
L 255.752973 184.023684 
L 255.956009 211.550604 
L 256.159045 177.04853 
L 256.362081 178.294111 
L 256.565117 188.881519 
L 256.768153 190.443452 
L 256.971189 210.894354 
L 257.174225 184.499518 
L 257.377261 174.102415 
L 257.580297 205.828767 
L 257.783333 187.328873 
L 258.189405 216.236188 
L 258.595477 170.708491 
L 258.798513 173.772617 
L 259.204585 197.896018 
L 259.407621 210.436245 
L 259.610657 193.658956 
L 259.813693 208.437164 
L 260.016729 210.155443 
L 260.219765 215.115198 
L 260.625837 160.918927 
L 260.828873 211.213612 
L 261.031909 182.194546 
L 261.234945 190.494026 
L 261.437981 177.656673 
L 261.641017 201.833051 
L 261.844053 184.662531 
L 262.250125 194.692885 
L 262.45316 168.358372 
L 262.859232 181.717229 
L 263.062268 171.979477 
L 263.46834 216.303131 
L 263.671376 185.467007 
L 264.077448 198.10631 
L 264.280484 230.027649 
L 264.48352 213.37383 
L 264.686556 217.266205 
L 264.889592 181.681687 
L 265.092628 173.094823 
L 265.295664 211.251553 
L 265.4987 202.535602 
L 265.701736 177.332705 
L 265.904772 177.491131 
L 266.310844 224.295881 
L 266.51388 194.057251 
L 266.716916 203.014807 
L 266.919952 205.907034 
L 267.122988 204.643869 
L 267.52906 180.021634 
L 267.732096 209.669936 
L 267.935132 217.196188 
L 268.138168 218.662442 
L 268.341204 211.845963 
L 268.54424 190.871812 
L 268.747276 200.294082 
L 268.950312 177.014945 
L 269.153348 213.310698 
L 269.356384 215.640838 
L 269.55942 191.561371 
L 269.762456 200.867477 
L 269.965492 222.243103 
L 270.168528 175.362416 
L 270.371564 194.74816 
L 270.5746 277.331067 
L 270.777636 192.49636 
L 270.980672 180.298527 
L 271.183708 209.010317 
L 271.58978 186.313846 
L 271.792816 193.511697 
L 271.995852 184.778181 
L 272.198888 198.889651 
L 272.401924 205.170125 
L 272.60496 218.859297 
L 272.807996 212.089725 
L 273.011032 186.078077 
L 273.214068 202.09977 
L 273.417104 204.55625 
L 273.62014 204.430989 
L 273.823176 227.054586 
L 274.026212 184.550222 
L 274.432284 198.306173 
L 274.63532 199.964963 
L 274.838356 185.884296 
L 275.244428 224.728246 
L 275.447464 191.080986 
L 275.853536 216.677227 
L 276.056572 156.261187 
L 276.259608 179.809311 
L 276.462644 185.347178 
L 276.66568 180.594456 
L 276.868716 202.534196 
L 277.071752 243.608195 
L 277.274788 197.853961 
L 277.477824 192.38803 
L 277.68086 211.638515 
L 277.883896 210.756482 
L 278.086932 207.679301 
L 278.289968 181.945072 
L 278.493004 185.767352 
L 278.69604 192.80509 
L 278.899076 233.440823 
L 279.102112 187.79778 
L 279.305148 189.77564 
L 279.508184 189.521701 
L 279.71122 196.967347 
L 279.914256 192.011385 
L 280.117291 179.042542 
L 280.320327 186.995535 
L 280.523363 200.511442 
L 280.726399 179.197242 
L 281.335507 216.465372 
L 281.538543 202.018647 
L 281.741579 179.633715 
L 281.944615 195.244061 
L 282.350687 175.24776 
L 282.553723 218.4088 
L 282.756759 222.829958 
L 282.959795 223.312678 
L 283.162831 188.347645 
L 283.365867 233.139677 
L 283.568903 225.583548 
L 283.771939 196.335081 
L 283.974975 196.302585 
L 284.178011 200.328424 
L 284.381047 230.56526 
L 284.584083 178.494814 
L 284.787119 202.020187 
L 285.193191 210.455139 
L 285.396227 210.510141 
L 285.599263 219.067407 
L 285.802299 168.579184 
L 286.005335 201.323585 
L 286.208371 180.587454 
L 286.817479 208.882782 
L 287.020515 191.403937 
L 287.223551 215.177576 
L 287.426587 194.300075 
L 287.629623 189.378335 
L 287.832659 196.808309 
L 288.035695 216.364221 
L 288.238731 188.623947 
L 288.441767 206.736614 
L 288.644803 207.085721 
L 288.847839 191.787955 
L 289.050875 225.59422 
L 289.456947 187.098252 
L 289.659983 236.900108 
L 289.863019 226.98379 
L 290.269091 185.302422 
L 290.472127 188.159756 
L 290.675163 243.456791 
L 290.878199 192.954695 
L 291.081235 202.445701 
L 291.284271 230.756487 
L 291.487307 212.325318 
L 291.690343 210.848282 
L 291.893379 168.657443 
L 292.096415 216.764702 
L 292.299451 206.299922 
L 292.502487 223.286116 
L 292.908559 186.479778 
L 293.111595 206.029718 
L 293.517667 216.824414 
L 293.720703 192.31585 
L 293.923739 214.912779 
L 294.126775 200.243078 
L 294.329811 209.452791 
L 294.532847 173.541172 
L 294.735883 192.304521 
L 294.938919 187.677096 
L 295.141955 192.344258 
L 295.344991 193.255089 
L 295.751063 210.524126 
L 295.954099 165.128173 
L 296.157135 221.256022 
L 296.360171 174.887823 
L 296.563207 227.274573 
L 296.766243 192.517543 
L 296.969279 194.919004 
L 297.172315 181.815574 
L 297.375351 217.435504 
L 297.578386 201.725919 
L 297.781422 200.396301 
L 297.984458 201.733344 
L 298.187494 218.705291 
L 298.39053 216.342261 
L 298.796602 201.385314 
L 298.999638 204.445965 
L 299.202674 201.105482 
L 299.40571 179.701741 
L 299.608746 217.558837 
L 299.811782 207.591314 
L 300.014818 209.98711 
L 300.217854 172.013727 
L 300.42089 231.426098 
L 300.623926 186.631685 
L 300.826962 203.478352 
L 301.029998 206.474063 
L 301.233034 238.471875 
L 301.842142 189.192269 
L 302.045178 198.610993 
L 302.248214 224.131238 
L 302.45125 195.477907 
L 302.654286 213.281576 
L 302.857322 201.711535 
L 303.060358 211.391201 
L 303.263394 211.769693 
L 303.46643 193.291374 
L 303.669466 241.023795 
L 304.075538 183.819904 
L 304.278574 196.36743 
L 304.48161 194.308002 
L 304.684646 212.715018 
L 304.887682 194.657636 
L 305.090718 221.914666 
L 305.293754 206.801276 
L 305.49679 205.491673 
L 305.699826 194.50447 
L 305.902862 195.727179 
L 306.105898 206.252089 
L 306.308934 207.101864 
L 306.51197 226.663268 
L 306.715006 200.900266 
L 306.918042 210.357667 
L 307.121078 225.532689 
L 307.324114 202.468953 
L 307.52715 229.879442 
L 307.730186 217.61758 
L 307.933222 232.016192 
L 308.339294 203.508492 
L 308.54233 178.217987 
L 308.745366 200.006667 
L 308.948402 190.239433 
L 309.151438 237.755032 
L 309.354474 241.608468 
L 309.55751 239.288936 
L 309.760546 202.109718 
L 309.963582 188.440364 
L 310.166618 217.108777 
L 310.369654 212.770059 
L 310.57269 220.183957 
L 310.775726 191.118489 
L 310.978762 191.306853 
L 311.181798 230.994818 
L 311.384834 219.989196 
L 311.58787 187.369522 
L 311.993942 228.65173 
L 312.196978 208.482917 
L 312.400014 231.530365 
L 312.60305 190.615405 
L 312.806086 192.43607 
L 313.009122 211.012949 
L 313.212158 215.050262 
L 313.415194 213.541072 
L 313.821266 205.366382 
L 314.024302 206.175074 
L 314.227338 195.107835 
L 314.430374 200.722836 
L 314.836446 237.436653 
L 315.039481 202.812203 
L 315.242517 206.819361 
L 315.445553 198.281255 
L 315.648589 221.7741 
L 315.851625 190.060101 
L 316.054661 224.692554 
L 316.257697 197.278723 
L 316.460733 222.368859 
L 316.663769 229.846826 
L 316.866805 184.022907 
L 317.069841 212.548249 
L 317.272877 174.066857 
L 317.475913 266.258091 
L 317.678949 194.478552 
L 317.881985 245.26747 
L 318.085021 208.020601 
L 318.288057 202.770228 
L 318.491093 220.901754 
L 318.694129 221.470985 
L 318.897165 214.556664 
L 319.100201 211.669764 
L 319.303237 230.715865 
L 319.506273 202.198852 
L 319.709309 222.167536 
L 319.912345 192.354733 
L 320.318417 191.647839 
L 320.521453 227.881303 
L 320.927525 213.871941 
L 321.130561 239.044748 
L 321.333597 190.027315 
L 321.536633 248.435767 
L 321.739669 227.45815 
L 321.942705 231.070777 
L 322.145741 180.430293 
L 322.348777 205.762314 
L 322.551813 175.330711 
L 322.754849 198.165034 
L 322.957885 202.557904 
L 323.160921 203.885001 
L 323.363957 208.630501 
L 323.566993 185.238911 
L 323.770029 216.820305 
L 323.973065 194.368607 
L 324.176101 223.069498 
L 324.379137 222.066962 
L 324.582173 202.045723 
L 324.785209 196.620207 
L 324.988245 219.126125 
L 325.191281 189.745184 
L 325.394317 200.645755 
L 325.597353 241.607312 
L 325.800389 247.964217 
L 326.003425 197.752305 
L 326.206461 250.229325 
L 326.409497 213.057986 
L 326.612533 220.833888 
L 326.815569 201.916349 
L 327.018605 197.755077 
L 327.221641 219.131749 
L 327.424677 176.274822 
L 327.627713 228.966523 
L 327.830749 195.079494 
L 328.033785 238.969464 
L 328.236821 205.771245 
L 328.439857 214.624349 
L 328.642893 232.95448 
L 328.845929 231.26025 
L 329.048965 219.727177 
L 329.252001 230.496114 
L 329.455037 195.103174 
L 329.658073 180.735773 
L 329.861109 227.243382 
L 330.064145 214.177873 
L 330.470217 243.541507 
L 330.673253 215.380878 
L 330.876289 222.680808 
L 331.079325 224.044539 
L 331.282361 202.588513 
L 331.485397 204.186168 
L 331.688433 226.256619 
L 331.891469 195.607466 
L 332.094505 194.397494 
L 332.297541 212.165146 
L 332.703612 225.733165 
L 332.906648 186.652507 
L 333.109684 194.365445 
L 333.31272 207.654473 
L 333.515756 199.008793 
L 333.718792 227.688082 
L 333.921828 235.07841 
L 334.124864 227.112784 
L 334.3279 191.602186 
L 334.530936 220.315899 
L 334.733972 226.456237 
L 334.937008 197.63523 
L 335.140044 220.720087 
L 335.546116 211.548019 
L 335.749152 223.675298 
L 335.952188 209.973958 
L 336.155224 205.437149 
L 336.35826 224.010801 
L 336.561296 184.967546 
L 336.764332 216.853431 
L 336.967368 208.837065 
L 337.170404 191.10561 
L 337.37344 187.354567 
L 337.576476 218.561776 
L 337.779512 187.243927 
L 337.982548 248.525456 
L 338.38862 204.78634 
L 338.591656 196.303807 
L 338.794692 200.607561 
L 338.997728 210.775985 
L 339.200764 210.21365 
L 339.4038 234.399971 
L 339.606836 210.868605 
L 339.809872 213.017007 
L 340.012908 202.291078 
L 340.41898 212.285631 
L 340.622016 238.426272 
L 340.825052 244.206618 
L 341.028088 201.967537 
L 341.231124 211.644032 
L 341.43416 233.489447 
L 341.637196 234.86377 
L 341.840232 237.970993 
L 342.043268 232.972811 
L 342.44934 201.048125 
L 342.652376 249.326609 
L 342.855412 222.53963 
L 343.058448 216.28658 
L 343.261484 192.843592 
L 343.667556 220.159427 
L 343.870592 206.327166 
L 344.073628 224.571984 
L 344.276664 200.04456 
L 344.4797 195.105899 
L 344.682736 196.188394 
L 344.885772 238.613713 
L 345.088808 218.437342 
L 345.291844 224.643821 
L 345.49488 218.265265 
L 345.697916 200.009261 
L 345.900952 232.670094 
L 346.103988 204.218276 
L 346.307024 201.3551 
L 346.51006 226.103302 
L 346.713096 211.182578 
L 346.916132 218.553911 
L 347.119168 199.694604 
L 347.322204 204.601911 
L 347.728276 268.507558 
L 347.931312 223.862842 
L 348.337384 205.466486 
L 348.54042 225.167505 
L 348.743456 218.94867 
L 348.946492 250.185246 
L 349.149528 214.294781 
L 349.352564 211.063448 
L 349.5556 222.678537 
L 349.758636 202.243075 
L 349.961671 199.982953 
L 350.164707 215.581157 
L 350.367743 216.757142 
L 350.570779 220.036188 
L 350.976851 203.723004 
L 351.179887 210.110341 
L 351.382923 197.774003 
L 351.585959 218.184048 
L 351.992031 205.886428 
L 352.195067 213.107447 
L 352.398103 205.697134 
L 352.601139 205.892577 
L 352.804175 199.910263 
L 353.007211 214.713863 
L 353.210247 219.301421 
L 353.413283 251.938533 
L 353.819355 207.447363 
L 354.022391 172.179173 
L 354.225427 200.996431 
L 354.428463 261.960648 
L 354.631499 231.770198 
L 354.834535 247.564425 
L 355.037571 205.685843 
L 355.240607 253.784943 
L 355.443643 197.021339 
L 356.052751 238.337313 
L 356.255787 203.034155 
L 356.458823 210.812027 
L 356.661859 223.150657 
L 356.864895 210.349628 
L 357.067931 251.970265 
L 357.270967 225.686301 
L 357.474003 235.780934 
L 357.677039 226.100533 
L 357.880075 207.446499 
L 358.083111 231.547382 
L 358.286147 224.447793 
L 358.692219 192.046527 
L 358.895255 200.310227 
L 359.098291 227.749695 
L 359.301327 228.169337 
L 359.504363 224.52511 
L 359.707399 207.457747 
L 359.910435 201.708349 
L 360.113471 224.189364 
L 360.316507 199.627622 
L 360.519543 249.381142 
L 360.722579 189.624817 
L 360.925615 249.755892 
L 361.128651 208.957427 
L 361.331687 201.950266 
L 361.534723 229.20816 
L 361.737759 227.012154 
L 361.940795 205.508487 
L 362.143831 279.695993 
L 362.346867 245.495658 
L 362.955975 196.754254 
L 363.159011 234.683594 
L 363.362047 193.703085 
L 363.565083 230.570275 
L 363.768119 199.844457 
L 363.971155 210.200696 
L 364.174191 199.937127 
L 364.377227 242.587172 
L 364.580263 180.675387 
L 364.783299 223.28214 
L 364.986335 202.300847 
L 365.189371 218.512856 
L 365.392407 203.265529 
L 365.595443 208.960045 
L 365.798479 226.967286 
L 366.001515 216.015659 
L 366.204551 187.081514 
L 366.407587 252.310772 
L 366.610623 219.789442 
L 366.813659 217.909735 
L 367.016695 245.125266 
L 367.219731 245.853381 
L 367.422767 242.77653 
L 367.625802 207.164792 
L 367.828838 248.256033 
L 368.031874 228.74965 
L 368.23491 221.621938 
L 368.640982 240.952645 
L 368.844018 210.204682 
L 369.047054 217.071507 
L 369.25009 205.152824 
L 369.453126 206.037271 
L 369.656162 197.115582 
L 369.859198 235.630099 
L 370.062234 221.076882 
L 370.26527 244.402411 
L 370.468306 216.755902 
L 370.671342 247.817981 
L 371.077414 214.136308 
L 371.28045 250.086942 
L 371.483486 247.553811 
L 371.686522 270.52448 
L 371.889558 215.16961 
L 372.092594 250.266807 
L 372.29563 218.045137 
L 372.498666 240.264274 
L 372.701702 228.192551 
L 372.904738 230.116866 
L 373.107774 228.489537 
L 373.31081 190.15879 
L 373.919918 230.664666 
L 374.122954 241.080587 
L 374.32599 233.692249 
L 374.732062 228.645786 
L 374.935098 219.153339 
L 375.138134 223.835398 
L 375.34117 217.522949 
L 375.544206 275.680009 
L 375.747242 201.823185 
L 376.153314 244.243847 
L 376.35635 208.096278 
L 376.559386 231.587527 
L 376.762422 219.378905 
L 376.965458 241.612717 
L 377.168494 239.55961 
L 377.37153 221.837413 
L 377.574566 221.090351 
L 377.980638 239.723206 
L 378.183674 199.504976 
L 378.38671 217.748804 
L 378.589746 224.206379 
L 378.792782 224.095358 
L 378.995818 214.516573 
L 379.198854 217.845886 
L 379.40189 240.64958 
L 379.604926 237.324799 
L 379.807962 224.140423 
L 380.010998 221.416936 
L 380.214034 234.285951 
L 380.620106 195.763708 
L 380.823142 226.81379 
L 381.026178 226.606847 
L 381.229214 221.281552 
L 381.43225 236.291627 
L 381.635286 239.158212 
L 381.838322 209.424764 
L 382.041358 211.825977 
L 382.244394 204.242059 
L 382.44743 189.238718 
L 382.650466 214.487237 
L 382.853502 210.733731 
L 383.056538 198.907497 
L 383.259574 264.622496 
L 383.46261 220.281171 
L 383.868682 230.70939 
L 384.071718 209.855295 
L 384.274754 204.984225 
L 384.47779 240.033995 
L 384.883862 211.297998 
L 385.086897 222.172535 
L 385.289933 226.901238 
L 385.492969 220.314767 
L 385.696005 260.729518 
L 385.899041 233.882437 
L 386.102077 238.497345 
L 386.508149 257.332334 
L 386.711185 218.407477 
L 386.914221 249.91371 
L 387.117257 220.126922 
L 387.320293 241.715847 
L 387.523329 227.312521 
L 387.726365 224.931878 
L 387.929401 255.815595 
L 388.335473 220.402173 
L 388.538509 238.021991 
L 388.741545 203.493899 
L 388.944581 200.53697 
L 389.147617 276.843794 
L 389.350653 233.995213 
L 389.553689 217.506113 
L 389.959761 242.137738 
L 390.365833 200.167981 
L 390.568869 278.41694 
L 390.771905 220.869551 
L 390.974941 216.184446 
L 391.381013 239.413342 
L 391.787085 216.975822 
L 391.990121 221.498622 
L 392.193157 237.625077 
L 392.599229 196.69773 
L 392.802265 206.526393 
L 393.005301 193.083417 
L 393.208337 236.580606 
L 393.411373 240.350127 
L 393.614409 206.960362 
L 393.817445 252.765529 
L 394.020481 176.396741 
L 394.223517 222.822552 
L 394.426553 238.723801 
L 394.629589 240.616201 
L 394.832625 214.62176 
L 395.035661 210.079579 
L 395.441733 228.900308 
L 395.644769 209.960307 
L 396.050841 231.235692 
L 396.253877 238.470008 
L 396.456913 208.578605 
L 396.659949 231.736704 
L 396.862985 202.482876 
L 397.066021 244.492557 
L 397.269057 202.979352 
L 397.472093 222.009719 
L 397.675129 200.347168 
L 397.878165 220.767724 
L 398.081201 216.362315 
L 398.284237 214.386598 
L 398.487273 210.623874 
L 398.487273 210.623874 
" style="fill:none;stroke:#ff7f0e;stroke-linecap:square;stroke-width:1.5;"/>
   </g>
   <g id="patch_3">
    <path d="M 57.6 307.584 
L 57.6 41.472 
" style="fill:none;stroke:#000000;stroke-linecap:square;stroke-linejoin:miter;stroke-width:0.8;"/>
   </g>
   <g id="patch_4">
    <path d="M 414.72 307.584 
L 414.72 41.472 
" style="fill:none;stroke:#000000;stroke-linecap:square;stroke-linejoin:miter;stroke-width:0.8;"/>
   </g>
   <g id="patch_5">
    <path d="M 57.6 307.584 
L 414.72 307.584 
" style="fill:none;stroke:#000000;stroke-linecap:square;stroke-linejoin:miter;stroke-width:0.8;"/>
   </g>
   <g id="patch_6">
    <path d="M 57.6 41.472 
L 414.72 41.472 
" style="fill:none;stroke:#000000;stroke-linecap:square;stroke-linejoin:miter;stroke-width:0.8;"/>
   </g>
   <g id="legend_1">
    <g id="patch_7">
     <path d="M 303.845 78.82825 
L 407.72 78.82825 
Q 409.72 78.82825 409.72 76.82825 
L 409.72 48.472 
Q 409.72 46.472 407.72 46.472 
L 303.845 46.472 
Q 301.845 46.472 301.845 48.472 
L 301.845 76.82825 
Q 301.845 78.82825 303.845 78.82825 
z
" style="fill:#ffffff;opacity:0.8;stroke:#cccccc;stroke-linejoin:miter;"/>
    </g>
    <g id="line2d_18">
     <path d="M 305.845 54.570437 
L 325.845 54.570437 
" style="fill:none;stroke:#1f77b4;stroke-linecap:square;stroke-width:1.5;"/>
    </g>
    <g id="line2d_19"/>
    <g id="text_17">
     <!-- Train loss -->
     <g transform="translate(333.845 58.070437)scale(0.1 -0.1)">
      <defs>
       <path d="M -19 4666 
L 3928 4666 
L 3928 4134 
L 2272 4134 
L 2272 0 
L 1638 0 
L 1638 4134 
L -19 4134 
L -19 4666 
z
" id="DejaVuSans-54" transform="scale(0.015625)"/>
       <path d="M 2631 2963 
Q 2534 3019 2420 3045 
Q 2306 3072 2169 3072 
Q 1681 3072 1420 2755 
Q 1159 2438 1159 1844 
L 1159 0 
L 581 0 
L 581 3500 
L 1159 3500 
L 1159 2956 
Q 1341 3275 1631 3429 
Q 1922 3584 2338 3584 
Q 2397 3584 2469 3576 
Q 2541 3569 2628 3553 
L 2631 2963 
z
" id="DejaVuSans-72" transform="scale(0.015625)"/>
       <path d="M 2194 1759 
Q 1497 1759 1228 1600 
Q 959 1441 959 1056 
Q 959 750 1161 570 
Q 1363 391 1709 391 
Q 2188 391 2477 730 
Q 2766 1069 2766 1631 
L 2766 1759 
L 2194 1759 
z
M 3341 1997 
L 3341 0 
L 2766 0 
L 2766 531 
Q 2569 213 2275 61 
Q 1981 -91 1556 -91 
Q 1019 -91 701 211 
Q 384 513 384 1019 
Q 384 1609 779 1909 
Q 1175 2209 1959 2209 
L 2766 2209 
L 2766 2266 
Q 2766 2663 2505 2880 
Q 2244 3097 1772 3097 
Q 1472 3097 1187 3025 
Q 903 2953 641 2809 
L 641 3341 
Q 956 3463 1253 3523 
Q 1550 3584 1831 3584 
Q 2591 3584 2966 3190 
Q 3341 2797 3341 1997 
z
" id="DejaVuSans-61" transform="scale(0.015625)"/>
       <path d="M 603 3500 
L 1178 3500 
L 1178 0 
L 603 0 
L 603 3500 
z
M 603 4863 
L 1178 4863 
L 1178 4134 
L 603 4134 
L 603 4863 
z
" id="DejaVuSans-69" transform="scale(0.015625)"/>
       <path d="M 3513 2113 
L 3513 0 
L 2938 0 
L 2938 2094 
Q 2938 2591 2744 2837 
Q 2550 3084 2163 3084 
Q 1697 3084 1428 2787 
Q 1159 2491 1159 1978 
L 1159 0 
L 581 0 
L 581 3500 
L 1159 3500 
L 1159 2956 
Q 1366 3272 1645 3428 
Q 1925 3584 2291 3584 
Q 2894 3584 3203 3211 
Q 3513 2838 3513 2113 
z
" id="DejaVuSans-6e" transform="scale(0.015625)"/>
       <path id="DejaVuSans-20" transform="scale(0.015625)"/>
       <path d="M 603 4863 
L 1178 4863 
L 1178 0 
L 603 0 
L 603 4863 
z
" id="DejaVuSans-6c" transform="scale(0.015625)"/>
       <path d="M 2834 3397 
L 2834 2853 
Q 2591 2978 2328 3040 
Q 2066 3103 1784 3103 
Q 1356 3103 1142 2972 
Q 928 2841 928 2578 
Q 928 2378 1081 2264 
Q 1234 2150 1697 2047 
L 1894 2003 
Q 2506 1872 2764 1633 
Q 3022 1394 3022 966 
Q 3022 478 2636 193 
Q 2250 -91 1575 -91 
Q 1294 -91 989 -36 
Q 684 19 347 128 
L 347 722 
Q 666 556 975 473 
Q 1284 391 1588 391 
Q 1994 391 2212 530 
Q 2431 669 2431 922 
Q 2431 1156 2273 1281 
Q 2116 1406 1581 1522 
L 1381 1569 
Q 847 1681 609 1914 
Q 372 2147 372 2553 
Q 372 3047 722 3315 
Q 1072 3584 1716 3584 
Q 2034 3584 2315 3537 
Q 2597 3491 2834 3397 
z
" id="DejaVuSans-73" transform="scale(0.015625)"/>
      </defs>
      <use xlink:href="#DejaVuSans-54"/>
      <use x="46.333984" xlink:href="#DejaVuSans-72"/>
      <use x="87.447266" xlink:href="#DejaVuSans-61"/>
      <use x="148.726562" xlink:href="#DejaVuSans-69"/>
      <use x="176.509766" xlink:href="#DejaVuSans-6e"/>
      <use x="239.888672" xlink:href="#DejaVuSans-20"/>
      <use x="271.675781" xlink:href="#DejaVuSans-6c"/>
      <use x="299.458984" xlink:href="#DejaVuSans-6f"/>
      <use x="360.640625" xlink:href="#DejaVuSans-73"/>
      <use x="412.740234" xlink:href="#DejaVuSans-73"/>
     </g>
    </g>
    <g id="line2d_20">
     <path d="M 305.845 69.248562 
L 325.845 69.248562 
" style="fill:none;stroke:#ff7f0e;stroke-linecap:square;stroke-width:1.5;"/>
    </g>
    <g id="line2d_21"/>
    <g id="text_18">
     <!-- Validation loss -->
     <g transform="translate(333.845 72.748562)scale(0.1 -0.1)">
      <defs>
       <path d="M 1831 0 
L 50 4666 
L 709 4666 
L 2188 738 
L 3669 4666 
L 4325 4666 
L 2547 0 
L 1831 0 
z
" id="DejaVuSans-56" transform="scale(0.015625)"/>
       <path d="M 2906 2969 
L 2906 4863 
L 3481 4863 
L 3481 0 
L 2906 0 
L 2906 525 
Q 2725 213 2448 61 
Q 2172 -91 1784 -91 
Q 1150 -91 751 415 
Q 353 922 353 1747 
Q 353 2572 751 3078 
Q 1150 3584 1784 3584 
Q 2172 3584 2448 3432 
Q 2725 3281 2906 2969 
z
M 947 1747 
Q 947 1113 1208 752 
Q 1469 391 1925 391 
Q 2381 391 2643 752 
Q 2906 1113 2906 1747 
Q 2906 2381 2643 2742 
Q 2381 3103 1925 3103 
Q 1469 3103 1208 2742 
Q 947 2381 947 1747 
z
" id="DejaVuSans-64" transform="scale(0.015625)"/>
       <path d="M 1172 4494 
L 1172 3500 
L 2356 3500 
L 2356 3053 
L 1172 3053 
L 1172 1153 
Q 1172 725 1289 603 
Q 1406 481 1766 481 
L 2356 481 
L 2356 0 
L 1766 0 
Q 1100 0 847 248 
Q 594 497 594 1153 
L 594 3053 
L 172 3053 
L 172 3500 
L 594 3500 
L 594 4494 
L 1172 4494 
z
" id="DejaVuSans-74" transform="scale(0.015625)"/>
      </defs>
      <use xlink:href="#DejaVuSans-56"/>
      <use x="60.658203" xlink:href="#DejaVuSans-61"/>
      <use x="121.9375" xlink:href="#DejaVuSans-6c"/>
      <use x="149.720703" xlink:href="#DejaVuSans-69"/>
      <use x="177.503906" xlink:href="#DejaVuSans-64"/>
      <use x="240.980469" xlink:href="#DejaVuSans-61"/>
      <use x="302.259766" xlink:href="#DejaVuSans-74"/>
      <use x="341.46875" xlink:href="#DejaVuSans-69"/>
      <use x="369.251953" xlink:href="#DejaVuSans-6f"/>
      <use x="430.433594" xlink:href="#DejaVuSans-6e"/>
      <use x="493.8125" xlink:href="#DejaVuSans-20"/>
      <use x="525.599609" xlink:href="#DejaVuSans-6c"/>
      <use x="553.382812" xlink:href="#DejaVuSans-6f"/>
      <use x="614.564453" xlink:href="#DejaVuSans-73"/>
      <use x="666.664062" xlink:href="#DejaVuSans-73"/>
     </g>
    </g>
   </g>
  </g>
 </g>
 <defs>
  <clipPath id="p8574aed100">
   <rect height="266.112" width="357.12" x="57.6" y="41.472"/>
  </clipPath>
 </defs>
</svg>
