<?xml version="1.0" encoding="utf-8" standalone="no"?>
<!DOCTYPE svg PUBLIC "-//W3C//DTD SVG 1.1//EN"
  "http://www.w3.org/Graphics/SVG/1.1/DTD/svg11.dtd">
<svg height="345.6pt" version="1.1" viewBox="0 0 460.8 345.6" width="460.8pt" xmlns="http://www.w3.org/2000/svg" xmlns:xlink="http://www.w3.org/1999/xlink">
 <metadata>
  <rdf:RDF xmlns:cc="http://creativecommons.org/ns#" xmlns:dc="http://purl.org/dc/elements/1.1/" xmlns:rdf="http://www.w3.org/1999/02/22-rdf-syntax-ns#">
   <cc:Work>
    <dc:type rdf:resource="http://purl.org/dc/dcmitype/StillImage"/>
    <dc:date>2021-07-30T12:47:11.312674</dc:date>
    <dc:format>image/svg+xml</dc:format>
    <dc:creator>
     <cc:Agent>
      <dc:title>Matplotlib v3.4.1, https://matplotlib.org/</dc:title>
     </cc:Agent>
    </dc:creator>
   </cc:Work>
  </rdf:RDF>
 </metadata>
 <defs>
  <style type="text/css">*{stroke-linecap:butt;stroke-linejoin:round;}</style>
 </defs>
 <g id="figure_1">
  <g id="patch_1">
   <path d="M 0 345.6 
L 460.8 345.6 
L 460.8 0 
L 0 0 
z
" style="fill:#ffffff;"/>
  </g>
  <g id="axes_1">
   <g id="patch_2">
    <path d="M 57.6 307.584 
L 414.72 307.584 
L 414.72 41.472 
L 57.6 41.472 
z
" style="fill:#ffffff;"/>
   </g>
   <g id="matplotlib.axis_1">
    <g id="xtick_1">
     <g id="line2d_1">
      <defs>
       <path d="M 0 0 
L 0 3.5 
" id="m204e325e5a" style="stroke:#000000;stroke-width:0.8;"/>
      </defs>
      <g>
       <use style="stroke:#000000;stroke-width:0.8;" x="73.629691" xlink:href="#m204e325e5a" y="307.584"/>
      </g>
     </g>
     <g id="text_1">
      <!-- 0 -->
      <g transform="translate(70.448441 322.182437)scale(0.1 -0.1)">
       <defs>
        <path d="M 2034 4250 
Q 1547 4250 1301 3770 
Q 1056 3291 1056 2328 
Q 1056 1369 1301 889 
Q 1547 409 2034 409 
Q 2525 409 2770 889 
Q 3016 1369 3016 2328 
Q 3016 3291 2770 3770 
Q 2525 4250 2034 4250 
z
M 2034 4750 
Q 2819 4750 3233 4129 
Q 3647 3509 3647 2328 
Q 3647 1150 3233 529 
Q 2819 -91 2034 -91 
Q 1250 -91 836 529 
Q 422 1150 422 2328 
Q 422 3509 836 4129 
Q 1250 4750 2034 4750 
z
" id="DejaVuSans-30" transform="scale(0.015625)"/>
       </defs>
       <use xlink:href="#DejaVuSans-30"/>
      </g>
     </g>
    </g>
    <g id="xtick_2">
     <g id="line2d_2">
      <g>
       <use style="stroke:#000000;stroke-width:0.8;" x="114.236889" xlink:href="#m204e325e5a" y="307.584"/>
      </g>
     </g>
     <g id="text_2">
      <!-- 200 -->
      <g transform="translate(104.693139 322.182437)scale(0.1 -0.1)">
       <defs>
        <path d="M 1228 531 
L 3431 531 
L 3431 0 
L 469 0 
L 469 531 
Q 828 903 1448 1529 
Q 2069 2156 2228 2338 
Q 2531 2678 2651 2914 
Q 2772 3150 2772 3378 
Q 2772 3750 2511 3984 
Q 2250 4219 1831 4219 
Q 1534 4219 1204 4116 
Q 875 4013 500 3803 
L 500 4441 
Q 881 4594 1212 4672 
Q 1544 4750 1819 4750 
Q 2544 4750 2975 4387 
Q 3406 4025 3406 3419 
Q 3406 3131 3298 2873 
Q 3191 2616 2906 2266 
Q 2828 2175 2409 1742 
Q 1991 1309 1228 531 
z
" id="DejaVuSans-32" transform="scale(0.015625)"/>
       </defs>
       <use xlink:href="#DejaVuSans-32"/>
       <use x="63.623047" xlink:href="#DejaVuSans-30"/>
       <use x="127.246094" xlink:href="#DejaVuSans-30"/>
      </g>
     </g>
    </g>
    <g id="xtick_3">
     <g id="line2d_3">
      <g>
       <use style="stroke:#000000;stroke-width:0.8;" x="154.844087" xlink:href="#m204e325e5a" y="307.584"/>
      </g>
     </g>
     <g id="text_3">
      <!-- 400 -->
      <g transform="translate(145.300337 322.182437)scale(0.1 -0.1)">
       <defs>
        <path d="M 2419 4116 
L 825 1625 
L 2419 1625 
L 2419 4116 
z
M 2253 4666 
L 3047 4666 
L 3047 1625 
L 3713 1625 
L 3713 1100 
L 3047 1100 
L 3047 0 
L 2419 0 
L 2419 1100 
L 313 1100 
L 313 1709 
L 2253 4666 
z
" id="DejaVuSans-34" transform="scale(0.015625)"/>
       </defs>
       <use xlink:href="#DejaVuSans-34"/>
       <use x="63.623047" xlink:href="#DejaVuSans-30"/>
       <use x="127.246094" xlink:href="#DejaVuSans-30"/>
      </g>
     </g>
    </g>
    <g id="xtick_4">
     <g id="line2d_4">
      <g>
       <use style="stroke:#000000;stroke-width:0.8;" x="195.451284" xlink:href="#m204e325e5a" y="307.584"/>
      </g>
     </g>
     <g id="text_4">
      <!-- 600 -->
      <g transform="translate(185.907534 322.182437)scale(0.1 -0.1)">
       <defs>
        <path d="M 2113 2584 
Q 1688 2584 1439 2293 
Q 1191 2003 1191 1497 
Q 1191 994 1439 701 
Q 1688 409 2113 409 
Q 2538 409 2786 701 
Q 3034 994 3034 1497 
Q 3034 2003 2786 2293 
Q 2538 2584 2113 2584 
z
M 3366 4563 
L 3366 3988 
Q 3128 4100 2886 4159 
Q 2644 4219 2406 4219 
Q 1781 4219 1451 3797 
Q 1122 3375 1075 2522 
Q 1259 2794 1537 2939 
Q 1816 3084 2150 3084 
Q 2853 3084 3261 2657 
Q 3669 2231 3669 1497 
Q 3669 778 3244 343 
Q 2819 -91 2113 -91 
Q 1303 -91 875 529 
Q 447 1150 447 2328 
Q 447 3434 972 4092 
Q 1497 4750 2381 4750 
Q 2619 4750 2861 4703 
Q 3103 4656 3366 4563 
z
" id="DejaVuSans-36" transform="scale(0.015625)"/>
       </defs>
       <use xlink:href="#DejaVuSans-36"/>
       <use x="63.623047" xlink:href="#DejaVuSans-30"/>
       <use x="127.246094" xlink:href="#DejaVuSans-30"/>
      </g>
     </g>
    </g>
    <g id="xtick_5">
     <g id="line2d_5">
      <g>
       <use style="stroke:#000000;stroke-width:0.8;" x="236.058482" xlink:href="#m204e325e5a" y="307.584"/>
      </g>
     </g>
     <g id="text_5">
      <!-- 800 -->
      <g transform="translate(226.514732 322.182437)scale(0.1 -0.1)">
       <defs>
        <path d="M 2034 2216 
Q 1584 2216 1326 1975 
Q 1069 1734 1069 1313 
Q 1069 891 1326 650 
Q 1584 409 2034 409 
Q 2484 409 2743 651 
Q 3003 894 3003 1313 
Q 3003 1734 2745 1975 
Q 2488 2216 2034 2216 
z
M 1403 2484 
Q 997 2584 770 2862 
Q 544 3141 544 3541 
Q 544 4100 942 4425 
Q 1341 4750 2034 4750 
Q 2731 4750 3128 4425 
Q 3525 4100 3525 3541 
Q 3525 3141 3298 2862 
Q 3072 2584 2669 2484 
Q 3125 2378 3379 2068 
Q 3634 1759 3634 1313 
Q 3634 634 3220 271 
Q 2806 -91 2034 -91 
Q 1263 -91 848 271 
Q 434 634 434 1313 
Q 434 1759 690 2068 
Q 947 2378 1403 2484 
z
M 1172 3481 
Q 1172 3119 1398 2916 
Q 1625 2713 2034 2713 
Q 2441 2713 2670 2916 
Q 2900 3119 2900 3481 
Q 2900 3844 2670 4047 
Q 2441 4250 2034 4250 
Q 1625 4250 1398 4047 
Q 1172 3844 1172 3481 
z
" id="DejaVuSans-38" transform="scale(0.015625)"/>
       </defs>
       <use xlink:href="#DejaVuSans-38"/>
       <use x="63.623047" xlink:href="#DejaVuSans-30"/>
       <use x="127.246094" xlink:href="#DejaVuSans-30"/>
      </g>
     </g>
    </g>
    <g id="xtick_6">
     <g id="line2d_6">
      <g>
       <use style="stroke:#000000;stroke-width:0.8;" x="276.66568" xlink:href="#m204e325e5a" y="307.584"/>
      </g>
     </g>
     <g id="text_6">
      <!-- 1000 -->
      <g transform="translate(263.94068 322.182437)scale(0.1 -0.1)">
       <defs>
        <path d="M 794 531 
L 1825 531 
L 1825 4091 
L 703 3866 
L 703 4441 
L 1819 4666 
L 2450 4666 
L 2450 531 
L 3481 531 
L 3481 0 
L 794 0 
L 794 531 
z
" id="DejaVuSans-31" transform="scale(0.015625)"/>
       </defs>
       <use xlink:href="#DejaVuSans-31"/>
       <use x="63.623047" xlink:href="#DejaVuSans-30"/>
       <use x="127.246094" xlink:href="#DejaVuSans-30"/>
       <use x="190.869141" xlink:href="#DejaVuSans-30"/>
      </g>
     </g>
    </g>
    <g id="xtick_7">
     <g id="line2d_7">
      <g>
       <use style="stroke:#000000;stroke-width:0.8;" x="317.272877" xlink:href="#m204e325e5a" y="307.584"/>
      </g>
     </g>
     <g id="text_7">
      <!-- 1200 -->
      <g transform="translate(304.547877 322.182437)scale(0.1 -0.1)">
       <use xlink:href="#DejaVuSans-31"/>
       <use x="63.623047" xlink:href="#DejaVuSans-32"/>
       <use x="127.246094" xlink:href="#DejaVuSans-30"/>
       <use x="190.869141" xlink:href="#DejaVuSans-30"/>
      </g>
     </g>
    </g>
    <g id="xtick_8">
     <g id="line2d_8">
      <g>
       <use style="stroke:#000000;stroke-width:0.8;" x="357.880075" xlink:href="#m204e325e5a" y="307.584"/>
      </g>
     </g>
     <g id="text_8">
      <!-- 1400 -->
      <g transform="translate(345.155075 322.182437)scale(0.1 -0.1)">
       <use xlink:href="#DejaVuSans-31"/>
       <use x="63.623047" xlink:href="#DejaVuSans-34"/>
       <use x="127.246094" xlink:href="#DejaVuSans-30"/>
       <use x="190.869141" xlink:href="#DejaVuSans-30"/>
      </g>
     </g>
    </g>
    <g id="xtick_9">
     <g id="line2d_9">
      <g>
       <use style="stroke:#000000;stroke-width:0.8;" x="398.487273" xlink:href="#m204e325e5a" y="307.584"/>
      </g>
     </g>
     <g id="text_9">
      <!-- 1600 -->
      <g transform="translate(385.762273 322.182437)scale(0.1 -0.1)">
       <use xlink:href="#DejaVuSans-31"/>
       <use x="63.623047" xlink:href="#DejaVuSans-36"/>
       <use x="127.246094" xlink:href="#DejaVuSans-30"/>
       <use x="190.869141" xlink:href="#DejaVuSans-30"/>
      </g>
     </g>
    </g>
    <g id="text_10">
     <!-- Epoch -->
     <g transform="translate(213.193594 339.659781)scale(0.15 -0.15)">
      <defs>
       <path d="M 628 4666 
L 3578 4666 
L 3578 4134 
L 1259 4134 
L 1259 2753 
L 3481 2753 
L 3481 2222 
L 1259 2222 
L 1259 531 
L 3634 531 
L 3634 0 
L 628 0 
L 628 4666 
z
" id="DejaVuSans-45" transform="scale(0.015625)"/>
       <path d="M 1159 525 
L 1159 -1331 
L 581 -1331 
L 581 3500 
L 1159 3500 
L 1159 2969 
Q 1341 3281 1617 3432 
Q 1894 3584 2278 3584 
Q 2916 3584 3314 3078 
Q 3713 2572 3713 1747 
Q 3713 922 3314 415 
Q 2916 -91 2278 -91 
Q 1894 -91 1617 61 
Q 1341 213 1159 525 
z
M 3116 1747 
Q 3116 2381 2855 2742 
Q 2594 3103 2138 3103 
Q 1681 3103 1420 2742 
Q 1159 2381 1159 1747 
Q 1159 1113 1420 752 
Q 1681 391 2138 391 
Q 2594 391 2855 752 
Q 3116 1113 3116 1747 
z
" id="DejaVuSans-70" transform="scale(0.015625)"/>
       <path d="M 1959 3097 
Q 1497 3097 1228 2736 
Q 959 2375 959 1747 
Q 959 1119 1226 758 
Q 1494 397 1959 397 
Q 2419 397 2687 759 
Q 2956 1122 2956 1747 
Q 2956 2369 2687 2733 
Q 2419 3097 1959 3097 
z
M 1959 3584 
Q 2709 3584 3137 3096 
Q 3566 2609 3566 1747 
Q 3566 888 3137 398 
Q 2709 -91 1959 -91 
Q 1206 -91 779 398 
Q 353 888 353 1747 
Q 353 2609 779 3096 
Q 1206 3584 1959 3584 
z
" id="DejaVuSans-6f" transform="scale(0.015625)"/>
       <path d="M 3122 3366 
L 3122 2828 
Q 2878 2963 2633 3030 
Q 2388 3097 2138 3097 
Q 1578 3097 1268 2742 
Q 959 2388 959 1747 
Q 959 1106 1268 751 
Q 1578 397 2138 397 
Q 2388 397 2633 464 
Q 2878 531 3122 666 
L 3122 134 
Q 2881 22 2623 -34 
Q 2366 -91 2075 -91 
Q 1284 -91 818 406 
Q 353 903 353 1747 
Q 353 2603 823 3093 
Q 1294 3584 2113 3584 
Q 2378 3584 2631 3529 
Q 2884 3475 3122 3366 
z
" id="DejaVuSans-63" transform="scale(0.015625)"/>
       <path d="M 3513 2113 
L 3513 0 
L 2938 0 
L 2938 2094 
Q 2938 2591 2744 2837 
Q 2550 3084 2163 3084 
Q 1697 3084 1428 2787 
Q 1159 2491 1159 1978 
L 1159 0 
L 581 0 
L 581 4863 
L 1159 4863 
L 1159 2956 
Q 1366 3272 1645 3428 
Q 1925 3584 2291 3584 
Q 2894 3584 3203 3211 
Q 3513 2838 3513 2113 
z
" id="DejaVuSans-68" transform="scale(0.015625)"/>
      </defs>
      <use xlink:href="#DejaVuSans-45"/>
      <use x="63.183594" xlink:href="#DejaVuSans-70"/>
      <use x="126.660156" xlink:href="#DejaVuSans-6f"/>
      <use x="187.841797" xlink:href="#DejaVuSans-63"/>
      <use x="242.822266" xlink:href="#DejaVuSans-68"/>
     </g>
    </g>
   </g>
   <g id="matplotlib.axis_2">
    <g id="ytick_1">
     <g id="line2d_10">
      <defs>
       <path d="M 0 0 
L -3.5 0 
" id="ma911412f61" style="stroke:#000000;stroke-width:0.8;"/>
      </defs>
      <g>
       <use style="stroke:#000000;stroke-width:0.8;" x="57.6" xlink:href="#ma911412f61" y="307.584"/>
      </g>
     </g>
     <g id="text_11">
      <!-- 0.0 -->
      <g transform="translate(34.696875 311.383219)scale(0.1 -0.1)">
       <defs>
        <path d="M 684 794 
L 1344 794 
L 1344 0 
L 684 0 
L 684 794 
z
" id="DejaVuSans-2e" transform="scale(0.015625)"/>
       </defs>
       <use xlink:href="#DejaVuSans-30"/>
       <use x="63.623047" xlink:href="#DejaVuSans-2e"/>
       <use x="95.410156" xlink:href="#DejaVuSans-30"/>
      </g>
     </g>
    </g>
    <g id="ytick_2">
     <g id="line2d_11">
      <g>
       <use style="stroke:#000000;stroke-width:0.8;" x="57.6" xlink:href="#ma911412f61" y="254.3616"/>
      </g>
     </g>
     <g id="text_12">
      <!-- 0.2 -->
      <g transform="translate(34.696875 258.160819)scale(0.1 -0.1)">
       <use xlink:href="#DejaVuSans-30"/>
       <use x="63.623047" xlink:href="#DejaVuSans-2e"/>
       <use x="95.410156" xlink:href="#DejaVuSans-32"/>
      </g>
     </g>
    </g>
    <g id="ytick_3">
     <g id="line2d_12">
      <g>
       <use style="stroke:#000000;stroke-width:0.8;" x="57.6" xlink:href="#ma911412f61" y="201.1392"/>
      </g>
     </g>
     <g id="text_13">
      <!-- 0.4 -->
      <g transform="translate(34.696875 204.938419)scale(0.1 -0.1)">
       <use xlink:href="#DejaVuSans-30"/>
       <use x="63.623047" xlink:href="#DejaVuSans-2e"/>
       <use x="95.410156" xlink:href="#DejaVuSans-34"/>
      </g>
     </g>
    </g>
    <g id="ytick_4">
     <g id="line2d_13">
      <g>
       <use style="stroke:#000000;stroke-width:0.8;" x="57.6" xlink:href="#ma911412f61" y="147.9168"/>
      </g>
     </g>
     <g id="text_14">
      <!-- 0.6 -->
      <g transform="translate(34.696875 151.716019)scale(0.1 -0.1)">
       <use xlink:href="#DejaVuSans-30"/>
       <use x="63.623047" xlink:href="#DejaVuSans-2e"/>
       <use x="95.410156" xlink:href="#DejaVuSans-36"/>
      </g>
     </g>
    </g>
    <g id="ytick_5">
     <g id="line2d_14">
      <g>
       <use style="stroke:#000000;stroke-width:0.8;" x="57.6" xlink:href="#ma911412f61" y="94.6944"/>
      </g>
     </g>
     <g id="text_15">
      <!-- 0.8 -->
      <g transform="translate(34.696875 98.493619)scale(0.1 -0.1)">
       <use xlink:href="#DejaVuSans-30"/>
       <use x="63.623047" xlink:href="#DejaVuSans-2e"/>
       <use x="95.410156" xlink:href="#DejaVuSans-38"/>
      </g>
     </g>
    </g>
    <g id="ytick_6">
     <g id="line2d_15">
      <g>
       <use style="stroke:#000000;stroke-width:0.8;" x="57.6" xlink:href="#ma911412f61" y="41.472"/>
      </g>
     </g>
     <g id="text_16">
      <!-- 1.0 -->
      <g transform="translate(34.696875 45.271219)scale(0.1 -0.1)">
       <use xlink:href="#DejaVuSans-31"/>
       <use x="63.623047" xlink:href="#DejaVuSans-2e"/>
       <use x="95.410156" xlink:href="#DejaVuSans-30"/>
      </g>
     </g>
    </g>
    <g id="text_17">
     <!-- Accuracy -->
     <g transform="translate(27.577344 208.770187)rotate(-90)scale(0.15 -0.15)">
      <defs>
       <path d="M 2188 4044 
L 1331 1722 
L 3047 1722 
L 2188 4044 
z
M 1831 4666 
L 2547 4666 
L 4325 0 
L 3669 0 
L 3244 1197 
L 1141 1197 
L 716 0 
L 50 0 
L 1831 4666 
z
" id="DejaVuSans-41" transform="scale(0.015625)"/>
       <path d="M 544 1381 
L 544 3500 
L 1119 3500 
L 1119 1403 
Q 1119 906 1312 657 
Q 1506 409 1894 409 
Q 2359 409 2629 706 
Q 2900 1003 2900 1516 
L 2900 3500 
L 3475 3500 
L 3475 0 
L 2900 0 
L 2900 538 
Q 2691 219 2414 64 
Q 2138 -91 1772 -91 
Q 1169 -91 856 284 
Q 544 659 544 1381 
z
M 1991 3584 
L 1991 3584 
z
" id="DejaVuSans-75" transform="scale(0.015625)"/>
       <path d="M 2631 2963 
Q 2534 3019 2420 3045 
Q 2306 3072 2169 3072 
Q 1681 3072 1420 2755 
Q 1159 2438 1159 1844 
L 1159 0 
L 581 0 
L 581 3500 
L 1159 3500 
L 1159 2956 
Q 1341 3275 1631 3429 
Q 1922 3584 2338 3584 
Q 2397 3584 2469 3576 
Q 2541 3569 2628 3553 
L 2631 2963 
z
" id="DejaVuSans-72" transform="scale(0.015625)"/>
       <path d="M 2194 1759 
Q 1497 1759 1228 1600 
Q 959 1441 959 1056 
Q 959 750 1161 570 
Q 1363 391 1709 391 
Q 2188 391 2477 730 
Q 2766 1069 2766 1631 
L 2766 1759 
L 2194 1759 
z
M 3341 1997 
L 3341 0 
L 2766 0 
L 2766 531 
Q 2569 213 2275 61 
Q 1981 -91 1556 -91 
Q 1019 -91 701 211 
Q 384 513 384 1019 
Q 384 1609 779 1909 
Q 1175 2209 1959 2209 
L 2766 2209 
L 2766 2266 
Q 2766 2663 2505 2880 
Q 2244 3097 1772 3097 
Q 1472 3097 1187 3025 
Q 903 2953 641 2809 
L 641 3341 
Q 956 3463 1253 3523 
Q 1550 3584 1831 3584 
Q 2591 3584 2966 3190 
Q 3341 2797 3341 1997 
z
" id="DejaVuSans-61" transform="scale(0.015625)"/>
       <path d="M 2059 -325 
Q 1816 -950 1584 -1140 
Q 1353 -1331 966 -1331 
L 506 -1331 
L 506 -850 
L 844 -850 
Q 1081 -850 1212 -737 
Q 1344 -625 1503 -206 
L 1606 56 
L 191 3500 
L 800 3500 
L 1894 763 
L 2988 3500 
L 3597 3500 
L 2059 -325 
z
" id="DejaVuSans-79" transform="scale(0.015625)"/>
      </defs>
      <use xlink:href="#DejaVuSans-41"/>
      <use x="66.658203" xlink:href="#DejaVuSans-63"/>
      <use x="121.638672" xlink:href="#DejaVuSans-63"/>
      <use x="176.619141" xlink:href="#DejaVuSans-75"/>
      <use x="239.998047" xlink:href="#DejaVuSans-72"/>
      <use x="281.111328" xlink:href="#DejaVuSans-61"/>
      <use x="342.390625" xlink:href="#DejaVuSans-63"/>
      <use x="397.371094" xlink:href="#DejaVuSans-79"/>
     </g>
    </g>
   </g>
   <g id="line2d_16">
    <path clip-path="url(#p3b068e6bc6)" d="M 73.832727 280.9728 
L 74.035763 280.9728 
L 74.238799 283.63392 
L 74.441835 278.31168 
L 74.644871 282.30336 
L 74.847907 278.31168 
L 75.253979 282.30336 
L 75.457015 280.9728 
L 75.660051 282.30336 
L 75.863087 284.96448 
L 76.066123 279.64224 
L 76.269159 279.64224 
L 76.472195 278.31168 
L 76.675231 275.65056 
L 76.878267 280.9728 
L 77.284339 276.98112 
L 77.487375 286.29504 
L 77.690411 278.31168 
L 77.893447 279.64224 
L 78.096483 275.65056 
L 78.299519 274.32 
L 78.502555 278.31168 
L 78.705591 288.95616 
L 78.908627 286.29504 
L 79.111663 275.65056 
L 79.314699 294.2784 
L 79.517735 284.96448 
L 79.720771 280.9728 
L 79.923807 290.28672 
L 80.126843 287.6256 
L 80.329879 279.64224 
L 80.532915 278.31168 
L 80.735951 288.95616 
L 80.938987 280.9728 
L 81.142023 284.96448 
L 81.548095 275.65056 
L 81.751131 282.30336 
L 81.954167 279.64224 
L 82.157203 283.63392 
L 82.563275 286.29504 
L 82.766311 284.96448 
L 82.969347 275.65056 
L 83.172383 274.32 
L 83.375419 280.9728 
L 83.578455 278.31168 
L 83.781491 284.96448 
L 83.984527 283.63392 
L 84.187563 271.65888 
L 84.390599 287.6256 
L 84.593635 282.30336 
L 84.999707 279.64224 
L 85.202743 280.9728 
L 85.405779 286.29504 
L 85.608815 286.29504 
L 86.014887 276.98112 
L 86.217923 279.64224 
L 86.420959 275.65056 
L 86.623995 274.32 
L 86.827031 283.63392 
L 87.030067 283.63392 
L 87.233103 279.64224 
L 87.639174 282.30336 
L 87.84221 274.32 
L 88.045246 288.95616 
L 88.248282 287.6256 
L 89.060426 278.31168 
L 89.263462 286.29504 
L 89.669534 282.30336 
L 89.87257 282.30336 
L 90.075606 270.32832 
L 90.278642 265.00608 
L 90.481678 279.64224 
L 90.684714 276.98112 
L 90.88775 292.94784 
L 91.090786 278.31168 
L 91.293822 282.30336 
L 91.496858 278.31168 
L 91.699894 284.96448 
L 91.90293 283.63392 
L 92.105966 276.98112 
L 92.309002 279.64224 
L 92.512038 272.98944 
L 92.715074 275.65056 
L 92.91811 274.32 
L 93.121146 284.96448 
L 93.324182 286.29504 
L 93.527218 283.63392 
L 93.730254 283.63392 
L 93.93329 276.98112 
L 94.136326 275.65056 
L 94.339362 278.31168 
L 94.542398 276.98112 
L 94.94847 284.96448 
L 95.151506 270.32832 
L 95.354542 284.96448 
L 95.557578 275.65056 
L 95.760614 282.30336 
L 96.166686 275.65056 
L 96.369722 271.65888 
L 96.572758 284.96448 
L 96.775794 279.64224 
L 96.97883 283.63392 
L 97.181866 279.64224 
L 97.384902 280.9728 
L 97.587938 288.95616 
L 97.790974 278.31168 
L 97.99401 283.63392 
L 98.197046 271.65888 
L 98.400082 276.98112 
L 98.603118 286.29504 
L 98.806154 276.98112 
L 99.00919 272.98944 
L 99.415262 290.28672 
L 100.02437 271.65888 
L 100.227406 279.64224 
L 100.430442 278.31168 
L 100.633478 282.30336 
L 100.836514 276.98112 
L 101.03955 282.30336 
L 101.242586 280.9728 
L 101.445622 283.63392 
L 101.648658 280.9728 
L 101.851694 275.65056 
L 102.05473 286.29504 
L 102.460802 279.64224 
L 102.866874 263.67552 
L 103.06991 279.64224 
L 103.272946 280.9728 
L 103.475982 276.98112 
L 103.679018 276.98112 
L 103.882054 279.64224 
L 104.08509 279.64224 
L 104.288126 290.28672 
L 104.491162 279.64224 
L 104.694198 286.29504 
L 104.897233 274.32 
L 105.100269 276.98112 
L 105.303305 276.98112 
L 105.506341 286.29504 
L 105.709377 282.30336 
L 105.912413 271.65888 
L 106.115449 267.6672 
L 106.318485 275.65056 
L 106.521521 270.32832 
L 106.724557 255.69216 
L 106.927593 263.67552 
L 107.130629 265.00608 
L 107.333665 250.36992 
L 107.739737 263.67552 
L 107.942773 265.00608 
L 108.145809 250.36992 
L 108.348845 258.35328 
L 108.551881 258.35328 
L 108.754917 267.6672 
L 108.957953 257.02272 
L 109.160989 257.02272 
L 109.364025 258.35328 
L 109.567061 245.04768 
L 109.770097 245.04768 
L 109.973133 259.68384 
L 110.176169 249.03936 
L 110.379205 262.34496 
L 110.785277 246.37824 
L 110.988313 246.37824 
L 111.191349 258.35328 
L 111.394385 261.0144 
L 111.597421 237.06432 
L 112.003493 247.7088 
L 112.206529 246.37824 
L 112.409565 241.056 
L 112.612601 241.056 
L 112.815637 237.06432 
L 113.018673 217.10592 
L 113.221709 242.38656 
L 113.424745 243.71712 
L 113.830817 218.43648 
L 114.236889 241.056 
L 114.439925 230.41152 
L 114.642961 227.7504 
L 114.845997 205.13088 
L 115.049033 239.72544 
L 115.658141 223.75872 
L 115.861177 237.06432 
L 116.064213 226.41984 
L 116.267249 222.42816 
L 116.470285 249.03936 
L 116.673321 209.12256 
L 116.876357 229.08096 
L 117.079393 231.74208 
L 117.282429 217.10592 
L 117.485465 235.73376 
L 117.688501 239.72544 
L 117.891537 246.37824 
L 118.094573 215.77536 
L 118.297609 234.4032 
L 118.500645 218.43648 
L 118.906717 214.4448 
L 119.109753 223.75872 
L 119.312789 211.78368 
L 119.515825 222.42816 
L 119.718861 213.11424 
L 119.921897 209.12256 
L 120.124933 218.43648 
L 120.327969 207.792 
L 120.531005 225.08928 
L 120.734041 213.11424 
L 120.937077 219.76704 
L 121.140113 239.72544 
L 121.343149 211.78368 
L 121.546185 221.0976 
L 121.749221 207.792 
L 122.155293 217.10592 
L 122.358329 217.10592 
L 122.561364 233.07264 
L 122.7644 223.75872 
L 122.967436 199.80864 
L 123.170472 218.43648 
L 123.373508 198.47808 
L 123.77958 217.10592 
L 123.982616 209.12256 
L 124.185652 221.0976 
L 124.591724 198.47808 
L 124.997796 207.792 
L 125.200832 203.80032 
L 125.403868 225.08928 
L 125.606904 198.47808 
L 126.012976 213.11424 
L 126.216012 209.12256 
L 126.419048 207.792 
L 126.622084 221.0976 
L 126.82512 199.80864 
L 127.231192 183.84192 
L 127.637264 211.78368 
L 127.8403 198.47808 
L 128.043336 205.13088 
L 128.246372 198.47808 
L 128.449408 219.76704 
L 128.652444 213.11424 
L 128.85548 221.0976 
L 129.058516 218.43648 
L 129.261552 190.49472 
L 129.464588 182.51136 
L 129.667624 211.78368 
L 129.87066 199.80864 
L 130.276732 205.13088 
L 130.682804 185.17248 
L 130.88584 189.16416 
L 131.291912 177.18912 
L 131.697984 194.4864 
L 131.90102 211.78368 
L 132.104056 185.17248 
L 132.510128 187.8336 
L 132.713164 185.17248 
L 132.9162 193.15584 
L 133.119236 182.51136 
L 133.322272 206.46144 
L 133.525308 197.14752 
L 133.728344 205.13088 
L 133.93138 191.82528 
L 134.134416 186.50304 
L 134.337452 165.21408 
L 134.540488 189.16416 
L 134.743524 191.82528 
L 135.149596 189.16416 
L 135.352632 197.14752 
L 135.555668 190.49472 
L 135.758704 190.49472 
L 135.96174 186.50304 
L 136.164776 177.18912 
L 136.367812 157.23072 
L 136.570848 187.8336 
L 136.773884 183.84192 
L 137.179956 201.1392 
L 137.382992 195.81696 
L 137.586028 183.84192 
L 137.789064 182.51136 
L 138.195136 197.14752 
L 138.398172 175.85856 
L 138.601208 194.4864 
L 138.804244 178.51968 
L 139.00728 178.51968 
L 139.210316 201.1392 
L 139.616388 185.17248 
L 139.819424 189.16416 
L 140.022459 195.81696 
L 140.428531 175.85856 
L 140.631567 191.82528 
L 140.834603 181.1808 
L 141.037639 178.51968 
L 141.240675 209.12256 
L 141.443711 169.20576 
L 141.849783 181.1808 
L 142.052819 173.19744 
L 142.255855 171.86688 
L 142.458891 186.50304 
L 142.661927 173.19744 
L 142.864963 194.4864 
L 143.067999 161.2224 
L 143.474071 195.81696 
L 143.677107 173.19744 
L 143.880143 182.51136 
L 144.083179 174.528 
L 144.286215 175.85856 
L 144.489251 202.46976 
L 144.692287 185.17248 
L 144.895323 179.85024 
L 145.301395 193.15584 
L 145.504431 210.45312 
L 145.910503 170.53632 
L 146.113539 171.86688 
L 146.316575 167.8752 
L 146.519611 166.54464 
L 146.722647 181.1808 
L 146.925683 163.88352 
L 147.128719 191.82528 
L 147.331755 189.16416 
L 147.534791 158.56128 
L 147.737827 159.89184 
L 147.940863 173.19744 
L 148.143899 174.528 
L 148.346935 183.84192 
L 148.549971 158.56128 
L 148.956043 194.4864 
L 149.159079 169.20576 
L 149.362115 183.84192 
L 149.565151 178.51968 
L 149.768187 155.90016 
L 150.174259 198.47808 
L 150.580331 163.88352 
L 150.783367 171.86688 
L 150.986403 167.8752 
L 151.392475 178.51968 
L 151.595511 175.85856 
L 151.798547 158.56128 
L 152.001583 203.80032 
L 152.407655 170.53632 
L 152.610691 174.528 
L 152.813727 182.51136 
L 153.016763 185.17248 
L 153.219799 170.53632 
L 153.422835 185.17248 
L 153.625871 138.60288 
L 153.828907 173.19744 
L 154.234979 178.51968 
L 154.641051 159.89184 
L 154.844087 173.19744 
L 155.047123 159.89184 
L 155.250159 165.21408 
L 155.453195 159.89184 
L 155.656231 199.80864 
L 155.859267 194.4864 
L 156.062303 157.23072 
L 156.265339 197.14752 
L 156.671411 171.86688 
L 156.874447 170.53632 
L 157.077483 181.1808 
L 157.280519 166.54464 
L 157.483554 163.88352 
L 157.68659 165.21408 
L 157.889626 158.56128 
L 158.092662 163.88352 
L 158.295698 154.5696 
L 158.498734 191.82528 
L 158.70177 162.55296 
L 158.904806 182.51136 
L 159.107842 175.85856 
L 159.310878 174.528 
L 159.513914 190.49472 
L 159.71695 147.9168 
L 159.919986 167.8752 
L 160.123022 167.8752 
L 160.529094 177.18912 
L 160.73213 169.20576 
L 160.935166 169.20576 
L 161.341238 161.2224 
L 161.544274 170.53632 
L 161.74731 165.21408 
L 161.950346 153.23904 
L 162.153382 149.24736 
L 162.356418 182.51136 
L 162.559454 154.5696 
L 162.76249 145.25568 
L 163.168562 165.21408 
L 163.371598 145.25568 
L 163.574634 179.85024 
L 163.77767 155.90016 
L 163.980706 158.56128 
L 164.183742 170.53632 
L 164.386778 171.86688 
L 164.589814 166.54464 
L 164.79285 166.54464 
L 164.995886 182.51136 
L 165.198922 159.89184 
L 165.401958 181.1808 
L 165.604994 155.90016 
L 165.80803 147.9168 
L 166.011066 181.1808 
L 166.214102 161.2224 
L 166.417138 173.19744 
L 166.620174 138.60288 
L 167.026246 174.528 
L 167.229282 161.2224 
L 167.432318 167.8752 
L 167.635354 155.90016 
L 167.83839 162.55296 
L 168.041426 179.85024 
L 168.244462 177.18912 
L 168.447498 151.90848 
L 168.650534 167.8752 
L 168.85357 174.528 
L 169.056606 187.8336 
L 169.259642 178.51968 
L 169.462678 154.5696 
L 169.665714 147.9168 
L 169.86875 170.53632 
L 170.071786 170.53632 
L 170.274822 143.92512 
L 170.680894 187.8336 
L 171.086966 123.96672 
L 171.493038 178.51968 
L 171.89911 135.94176 
L 172.305182 174.528 
L 172.508218 182.51136 
L 172.711254 171.86688 
L 172.91429 151.90848 
L 173.117326 178.51968 
L 173.320362 158.56128 
L 173.523398 157.23072 
L 173.726434 211.78368 
L 173.92947 158.56128 
L 174.132506 149.24736 
L 174.335542 155.90016 
L 174.538578 170.53632 
L 174.741614 138.60288 
L 174.944649 143.92512 
L 175.147685 143.92512 
L 175.350721 153.23904 
L 175.553757 175.85856 
L 175.756793 150.57792 
L 175.959829 167.8752 
L 176.162865 146.58624 
L 176.365901 139.93344 
L 176.568937 182.51136 
L 176.771973 146.58624 
L 176.975009 161.2224 
L 177.178045 186.50304 
L 177.381081 194.4864 
L 177.584117 169.20576 
L 177.787153 171.86688 
L 177.990189 166.54464 
L 178.193225 170.53632 
L 178.396261 177.18912 
L 178.599297 157.23072 
L 178.802333 179.85024 
L 179.208405 131.95008 
L 179.411441 173.19744 
L 179.614477 170.53632 
L 179.817513 155.90016 
L 180.020549 155.90016 
L 180.223585 166.54464 
L 180.426621 157.23072 
L 180.629657 178.51968 
L 180.832693 158.56128 
L 181.035729 169.20576 
L 181.238765 151.90848 
L 181.441801 150.57792 
L 181.644837 178.51968 
L 181.847873 153.23904 
L 182.050909 155.90016 
L 182.253945 145.25568 
L 182.456981 162.55296 
L 182.863053 178.51968 
L 183.269125 145.25568 
L 183.675197 158.56128 
L 183.878233 131.95008 
L 184.081269 149.24736 
L 184.284305 150.57792 
L 184.487341 139.93344 
L 184.690377 171.86688 
L 184.893413 163.88352 
L 185.096449 134.6112 
L 185.299485 153.23904 
L 185.502521 155.90016 
L 185.705557 137.27232 
L 185.908593 147.9168 
L 186.111629 146.58624 
L 186.314665 133.28064 
L 186.517701 109.33056 
L 186.720737 171.86688 
L 186.923773 147.9168 
L 187.126809 154.5696 
L 187.329845 129.28896 
L 187.735917 163.88352 
L 187.938953 143.92512 
L 188.141989 147.9168 
L 188.548061 173.19744 
L 188.751097 134.6112 
L 188.954133 146.58624 
L 189.157169 138.60288 
L 189.360205 174.528 
L 189.563241 153.23904 
L 189.766277 143.92512 
L 189.969313 162.55296 
L 190.172349 147.9168 
L 190.375385 155.90016 
L 190.578421 183.84192 
L 190.984493 138.60288 
L 191.390565 170.53632 
L 191.593601 154.5696 
L 191.796637 149.24736 
L 191.999673 130.61952 
L 192.202709 155.90016 
L 192.405744 147.9168 
L 192.60878 169.20576 
L 192.811816 142.59456 
L 193.014852 170.53632 
L 193.217888 151.90848 
L 193.62396 177.18912 
L 193.826996 154.5696 
L 194.030032 149.24736 
L 194.233068 134.6112 
L 194.436104 153.23904 
L 194.63914 158.56128 
L 194.842176 157.23072 
L 195.248248 130.61952 
L 195.451284 143.92512 
L 195.65432 145.25568 
L 196.060392 166.54464 
L 196.263428 178.51968 
L 196.466464 135.94176 
L 196.6695 161.2224 
L 196.872536 129.28896 
L 197.075572 149.24736 
L 197.278608 150.57792 
L 197.481644 150.57792 
L 197.68468 133.28064 
L 197.887716 153.23904 
L 198.090752 135.94176 
L 198.293788 135.94176 
L 198.496824 141.264 
L 198.69986 159.89184 
L 198.902896 133.28064 
L 199.105932 189.16416 
L 199.308968 145.25568 
L 199.512004 141.264 
L 199.71504 158.56128 
L 199.918076 139.93344 
L 200.121112 150.57792 
L 200.324148 137.27232 
L 200.527184 137.27232 
L 200.73022 154.5696 
L 200.933256 147.9168 
L 201.136292 166.54464 
L 201.7454 122.63616 
L 201.948436 142.59456 
L 202.151472 127.9584 
L 202.354508 135.94176 
L 202.557544 131.95008 
L 202.76058 145.25568 
L 202.963616 131.95008 
L 203.166652 138.60288 
L 203.369688 151.90848 
L 203.572724 146.58624 
L 203.77576 153.23904 
L 203.978796 142.59456 
L 204.181832 115.98336 
L 204.384868 158.56128 
L 204.587904 153.23904 
L 204.79094 134.6112 
L 204.993976 151.90848 
L 205.197012 143.92512 
L 205.400048 161.2224 
L 205.603084 167.8752 
L 205.80612 142.59456 
L 206.009156 143.92512 
L 206.212192 171.86688 
L 206.618264 122.63616 
L 206.8213 122.63616 
L 207.024336 135.94176 
L 207.430408 145.25568 
L 207.633444 119.97504 
L 207.83648 155.90016 
L 208.242552 129.28896 
L 208.445588 126.62784 
L 208.648624 139.93344 
L 209.054696 122.63616 
L 209.257732 125.29728 
L 209.460768 145.25568 
L 209.663804 84.04992 
L 209.86684 142.59456 
L 210.272911 110.66112 
L 210.475947 145.25568 
L 210.882019 126.62784 
L 211.085055 161.2224 
L 211.288091 125.29728 
L 211.491127 134.6112 
L 211.897199 131.95008 
L 212.100235 133.28064 
L 212.303271 127.9584 
L 212.506307 137.27232 
L 212.709343 101.3472 
L 212.912379 145.25568 
L 213.115415 121.3056 
L 213.318451 135.94176 
L 213.521487 129.28896 
L 213.724523 151.90848 
L 213.927559 131.95008 
L 214.130595 123.96672 
L 214.333631 130.61952 
L 214.536667 133.28064 
L 214.739703 126.62784 
L 214.942739 151.90848 
L 215.145775 149.24736 
L 215.348811 151.90848 
L 215.551847 138.60288 
L 215.754883 141.264 
L 215.957919 115.98336 
L 216.160955 130.61952 
L 216.363991 157.23072 
L 216.567027 127.9584 
L 216.770063 118.64448 
L 216.973099 155.90016 
L 217.176135 122.63616 
L 217.582207 110.66112 
L 217.785243 130.61952 
L 217.988279 119.97504 
L 218.191315 126.62784 
L 218.394351 138.60288 
L 218.597387 130.61952 
L 218.800423 146.58624 
L 219.003459 115.98336 
L 219.206495 133.28064 
L 219.409531 104.00832 
L 219.612567 137.27232 
L 220.221675 102.67776 
L 220.627747 161.2224 
L 221.033819 114.6528 
L 221.236855 157.23072 
L 221.439891 105.33888 
L 221.642927 102.67776 
L 222.252035 146.58624 
L 222.455071 130.61952 
L 222.861143 119.97504 
L 223.064179 135.94176 
L 223.267215 119.97504 
L 223.470251 131.95008 
L 223.876323 117.31392 
L 224.079359 130.61952 
L 224.282395 134.6112 
L 224.485431 108 
L 224.891503 145.25568 
L 225.094539 135.94176 
L 225.297575 117.31392 
L 225.500611 135.94176 
L 225.703647 110.66112 
L 226.109719 155.90016 
L 226.312755 157.23072 
L 226.515791 93.36384 
L 226.718827 163.88352 
L 226.921863 154.5696 
L 227.124899 127.9584 
L 227.327935 127.9584 
L 227.53097 135.94176 
L 227.734006 119.97504 
L 227.937042 134.6112 
L 228.343114 117.31392 
L 228.54615 109.33056 
L 228.749186 139.93344 
L 228.952222 135.94176 
L 229.155258 106.66944 
L 229.358294 109.33056 
L 229.56133 141.264 
L 229.764366 154.5696 
L 229.967402 121.3056 
L 230.170438 143.92512 
L 230.373474 108 
L 230.57651 130.61952 
L 230.779546 118.64448 
L 230.982582 115.98336 
L 231.185618 131.95008 
L 231.388654 137.27232 
L 231.59169 113.32224 
L 231.794726 102.67776 
L 232.200798 114.6528 
L 232.403834 137.27232 
L 232.60687 98.68608 
L 232.809906 153.23904 
L 233.012942 114.6528 
L 233.215978 129.28896 
L 233.419014 127.9584 
L 233.62205 129.28896 
L 233.825086 134.6112 
L 234.028122 115.98336 
L 234.231158 150.57792 
L 234.63723 119.97504 
L 234.840266 118.64448 
L 235.043302 162.55296 
L 235.246338 105.33888 
L 235.449374 105.33888 
L 235.65241 142.59456 
L 235.855446 118.64448 
L 236.058482 139.93344 
L 236.464554 130.61952 
L 236.66759 85.38048 
L 237.276698 125.29728 
L 237.479734 102.67776 
L 237.885806 131.95008 
L 238.088842 125.29728 
L 238.291878 100.01664 
L 238.494914 115.98336 
L 238.69795 101.3472 
L 238.900986 109.33056 
L 239.104022 153.23904 
L 239.307058 105.33888 
L 239.510094 105.33888 
L 239.71313 98.68608 
L 239.916166 85.38048 
L 240.322238 129.28896 
L 240.525274 121.3056 
L 240.72831 133.28064 
L 240.931346 113.32224 
L 241.134382 118.64448 
L 241.337418 109.33056 
L 241.540454 90.70272 
L 241.74349 114.6528 
L 241.946526 123.96672 
L 242.149562 118.64448 
L 242.352598 125.29728 
L 242.555634 126.62784 
L 242.75867 126.62784 
L 242.961706 130.61952 
L 243.164742 117.31392 
L 243.367778 113.32224 
L 243.570814 134.6112 
L 243.77385 109.33056 
L 243.976886 113.32224 
L 244.179922 134.6112 
L 244.382958 106.66944 
L 244.585994 123.96672 
L 244.78903 113.32224 
L 244.992065 110.66112 
L 245.195101 115.98336 
L 245.398137 127.9584 
L 245.601173 111.99168 
L 245.804209 113.32224 
L 246.007245 122.63616 
L 246.210281 90.70272 
L 246.413317 110.66112 
L 246.616353 145.25568 
L 246.819389 122.63616 
L 247.428497 106.66944 
L 247.631533 119.97504 
L 247.834569 121.3056 
L 248.037605 106.66944 
L 248.443677 119.97504 
L 248.646713 96.02496 
L 248.849749 122.63616 
L 249.052785 115.98336 
L 249.255821 114.6528 
L 249.458857 108 
L 249.661893 94.6944 
L 249.864929 134.6112 
L 250.271001 90.70272 
L 250.474037 121.3056 
L 250.677073 121.3056 
L 250.880109 127.9584 
L 251.083145 123.96672 
L 251.286181 101.3472 
L 251.489217 117.31392 
L 251.692253 105.33888 
L 251.895289 115.98336 
L 252.098325 109.33056 
L 252.707433 126.62784 
L 252.910469 100.01664 
L 253.113505 104.00832 
L 253.316541 105.33888 
L 253.519577 134.6112 
L 253.722613 97.35552 
L 253.925649 105.33888 
L 254.128685 84.04992 
L 254.534757 121.3056 
L 254.737793 105.33888 
L 255.143865 130.61952 
L 255.346901 98.68608 
L 255.549937 114.6528 
L 255.752973 98.68608 
L 255.956009 134.6112 
L 256.159045 94.6944 
L 256.362081 77.39712 
L 256.565117 106.66944 
L 256.768153 101.3472 
L 256.971189 106.66944 
L 257.174225 106.66944 
L 257.377261 108 
L 257.580297 86.71104 
L 257.783333 119.97504 
L 257.986369 118.64448 
L 258.189405 126.62784 
L 258.392441 85.38048 
L 258.595477 97.35552 
L 258.798513 118.64448 
L 259.001549 159.89184 
L 259.204585 102.67776 
L 259.407621 105.33888 
L 259.610657 129.28896 
L 260.016729 94.6944 
L 260.219765 115.98336 
L 260.422801 115.98336 
L 260.625837 96.02496 
L 260.828873 121.3056 
L 261.234945 111.99168 
L 261.437981 82.71936 
L 261.641017 114.6528 
L 261.844053 105.33888 
L 262.047089 105.33888 
L 262.250125 104.00832 
L 262.45316 127.9584 
L 262.859232 88.0416 
L 263.062268 101.3472 
L 263.265304 101.3472 
L 263.46834 108 
L 263.671376 93.36384 
L 263.874412 100.01664 
L 264.077448 97.35552 
L 264.280484 106.66944 
L 264.48352 90.70272 
L 264.686556 109.33056 
L 264.889592 105.33888 
L 265.092628 127.9584 
L 265.295664 98.68608 
L 265.4987 89.37216 
L 265.701736 130.61952 
L 265.904772 118.64448 
L 266.107808 118.64448 
L 266.310844 127.9584 
L 266.51388 94.6944 
L 266.716916 130.61952 
L 266.919952 100.01664 
L 267.122988 117.31392 
L 267.326024 80.05824 
L 267.52906 126.62784 
L 267.732096 97.35552 
L 267.935132 88.0416 
L 268.747276 121.3056 
L 268.950312 93.36384 
L 269.153348 88.0416 
L 269.55942 90.70272 
L 269.762456 85.38048 
L 270.371564 119.97504 
L 270.5746 86.71104 
L 270.777636 133.28064 
L 270.980672 92.03328 
L 271.183708 101.3472 
L 271.386744 123.96672 
L 271.58978 105.33888 
L 271.792816 114.6528 
L 271.995852 134.6112 
L 272.198888 102.67776 
L 272.401924 110.66112 
L 272.60496 82.71936 
L 272.807996 84.04992 
L 273.011032 113.32224 
L 273.214068 80.05824 
L 273.417104 84.04992 
L 273.62014 81.3888 
L 273.823176 97.35552 
L 274.026212 82.71936 
L 274.229248 121.3056 
L 274.432284 110.66112 
L 274.63532 121.3056 
L 274.838356 102.67776 
L 275.244428 98.68608 
L 275.6505 149.24736 
L 275.853536 102.67776 
L 276.056572 85.38048 
L 276.259608 108 
L 276.462644 115.98336 
L 276.66568 108 
L 276.868716 89.37216 
L 277.071752 89.37216 
L 277.274788 118.64448 
L 277.477824 118.64448 
L 277.68086 100.01664 
L 277.883896 104.00832 
L 278.086932 93.36384 
L 278.289968 127.9584 
L 278.493004 89.37216 
L 278.69604 105.33888 
L 278.899076 102.67776 
L 279.102112 81.3888 
L 279.305148 113.32224 
L 279.508184 102.67776 
L 279.71122 125.29728 
L 279.914256 92.03328 
L 280.117291 118.64448 
L 280.320327 108 
L 280.523363 108 
L 280.726399 105.33888 
L 280.929435 123.96672 
L 281.132471 88.0416 
L 281.335507 110.66112 
L 281.741579 94.6944 
L 281.944615 108 
L 282.147651 89.37216 
L 282.350687 89.37216 
L 282.553723 106.66944 
L 282.756759 101.3472 
L 282.959795 89.37216 
L 283.162831 93.36384 
L 283.365867 81.3888 
L 283.568903 118.64448 
L 283.771939 102.67776 
L 283.974975 106.66944 
L 284.178011 117.31392 
L 284.381047 98.68608 
L 284.584083 100.01664 
L 284.787119 89.37216 
L 284.990155 126.62784 
L 285.396227 101.3472 
L 285.599263 122.63616 
L 285.802299 97.35552 
L 286.005335 96.02496 
L 286.411407 121.3056 
L 286.614443 98.68608 
L 286.817479 98.68608 
L 287.020515 82.71936 
L 287.223551 84.04992 
L 287.426587 98.68608 
L 287.629623 102.67776 
L 287.832659 82.71936 
L 288.035695 109.33056 
L 288.238731 114.6528 
L 288.441767 89.37216 
L 288.644803 84.04992 
L 288.847839 94.6944 
L 289.050875 98.68608 
L 289.253911 86.71104 
L 289.456947 118.64448 
L 289.659983 122.63616 
L 289.863019 82.71936 
L 290.066055 88.0416 
L 290.269091 125.29728 
L 290.675163 101.3472 
L 290.878199 108 
L 291.081235 110.66112 
L 291.284271 93.36384 
L 291.487307 121.3056 
L 291.690343 98.68608 
L 291.893379 93.36384 
L 292.096415 74.736 
L 292.299451 100.01664 
L 292.502487 98.68608 
L 292.705523 90.70272 
L 292.908559 92.03328 
L 293.111595 86.71104 
L 293.314631 77.39712 
L 293.923739 110.66112 
L 294.126775 111.99168 
L 294.329811 105.33888 
L 294.532847 122.63616 
L 294.735883 97.35552 
L 294.938919 137.27232 
L 295.141955 125.29728 
L 295.344991 100.01664 
L 295.548027 109.33056 
L 295.751063 72.07488 
L 295.954099 101.3472 
L 296.157135 94.6944 
L 296.360171 61.4304 
L 296.563207 98.68608 
L 296.766243 74.736 
L 296.969279 74.736 
L 297.375351 102.67776 
L 297.578386 73.40544 
L 297.984458 98.68608 
L 298.187494 81.3888 
L 298.39053 77.39712 
L 298.593566 102.67776 
L 298.796602 94.6944 
L 298.999638 78.72768 
L 299.202674 135.94176 
L 299.40571 98.68608 
L 299.608746 134.6112 
L 299.811782 73.40544 
L 300.014818 86.71104 
L 300.217854 85.38048 
L 300.42089 69.41376 
L 300.623926 81.3888 
L 300.826962 73.40544 
L 301.029998 115.98336 
L 301.233034 92.03328 
L 301.43607 92.03328 
L 301.639106 100.01664 
L 301.842142 80.05824 
L 302.045178 100.01664 
L 302.248214 82.71936 
L 302.45125 81.3888 
L 302.654286 88.0416 
L 302.857322 76.06656 
L 303.060358 126.62784 
L 303.263394 85.38048 
L 303.46643 93.36384 
L 303.669466 113.32224 
L 303.872502 98.68608 
L 304.075538 110.66112 
L 304.278574 85.38048 
L 304.48161 108 
L 304.684646 85.38048 
L 304.887682 98.68608 
L 305.090718 100.01664 
L 305.293754 69.41376 
L 305.49679 70.74432 
L 305.699826 77.39712 
L 305.902862 104.00832 
L 306.105898 74.736 
L 306.51197 65.42208 
L 306.715006 76.06656 
L 306.918042 76.06656 
L 307.324114 92.03328 
L 307.52715 76.06656 
L 307.730186 96.02496 
L 307.933222 88.0416 
L 308.136258 125.29728 
L 308.339294 86.71104 
L 308.54233 89.37216 
L 308.745366 85.38048 
L 308.948402 73.40544 
L 309.151438 110.66112 
L 309.55751 74.736 
L 309.760546 84.04992 
L 310.166618 62.76096 
L 310.369654 88.0416 
L 310.57269 82.71936 
L 310.775726 97.35552 
L 310.978762 65.42208 
L 311.181798 82.71936 
L 311.58787 62.76096 
L 311.790906 113.32224 
L 311.993942 65.42208 
L 312.196978 126.62784 
L 312.400014 105.33888 
L 312.60305 104.00832 
L 312.806086 97.35552 
L 313.009122 96.02496 
L 313.212158 89.37216 
L 313.415194 86.71104 
L 313.61823 80.05824 
L 313.821266 105.33888 
L 314.024302 92.03328 
L 314.227338 62.76096 
L 314.430374 100.01664 
L 314.63341 76.06656 
L 314.836446 74.736 
L 315.039481 100.01664 
L 315.242517 97.35552 
L 315.445553 106.66944 
L 315.851625 82.71936 
L 316.054661 97.35552 
L 316.257697 80.05824 
L 316.460733 89.37216 
L 316.663769 81.3888 
L 316.866805 121.3056 
L 317.069841 89.37216 
L 317.272877 84.04992 
L 317.475913 92.03328 
L 317.678949 80.05824 
L 317.881985 96.02496 
L 318.085021 102.67776 
L 318.288057 61.4304 
L 318.491093 109.33056 
L 318.694129 90.70272 
L 318.897165 106.66944 
L 319.100201 65.42208 
L 319.506273 108 
L 319.709309 69.41376 
L 319.912345 72.07488 
L 320.115381 84.04992 
L 320.318417 104.00832 
L 320.521453 96.02496 
L 320.724489 68.0832 
L 320.927525 80.05824 
L 321.130561 72.07488 
L 321.333597 56.10816 
L 321.942705 90.70272 
L 322.145741 84.04992 
L 322.348777 123.96672 
L 322.551813 65.42208 
L 322.754849 110.66112 
L 322.957885 88.0416 
L 323.160921 90.70272 
L 323.363957 82.71936 
L 323.566993 101.3472 
L 323.770029 100.01664 
L 323.973065 92.03328 
L 324.176101 76.06656 
L 324.379137 81.3888 
L 324.582173 64.09152 
L 324.785209 92.03328 
L 325.191281 60.09984 
L 325.394317 96.02496 
L 325.597353 68.0832 
L 325.800389 80.05824 
L 326.003425 108 
L 326.206461 96.02496 
L 326.409497 110.66112 
L 326.612533 66.75264 
L 326.815569 92.03328 
L 327.018605 68.0832 
L 327.221641 82.71936 
L 327.424677 82.71936 
L 327.627713 61.4304 
L 327.830749 84.04992 
L 328.033785 88.0416 
L 328.236821 97.35552 
L 328.439857 82.71936 
L 328.642893 88.0416 
L 328.845929 81.3888 
L 329.048965 89.37216 
L 329.252001 84.04992 
L 329.455037 69.41376 
L 329.658073 93.36384 
L 329.861109 81.3888 
L 330.064145 81.3888 
L 330.267181 64.09152 
L 330.470217 62.76096 
L 330.673253 57.43872 
L 330.876289 111.99168 
L 331.079325 105.33888 
L 331.282361 74.736 
L 331.485397 85.38048 
L 331.688433 80.05824 
L 331.891469 82.71936 
L 332.094505 88.0416 
L 332.297541 73.40544 
L 332.500576 88.0416 
L 332.703612 82.71936 
L 332.906648 104.00832 
L 333.109684 88.0416 
L 333.31272 96.02496 
L 333.515756 80.05824 
L 333.718792 77.39712 
L 333.921828 89.37216 
L 334.124864 80.05824 
L 334.3279 110.66112 
L 334.530936 93.36384 
L 334.733972 117.31392 
L 335.140044 82.71936 
L 335.34308 97.35552 
L 335.546116 80.05824 
L 335.952188 77.39712 
L 336.155224 93.36384 
L 336.35826 85.38048 
L 336.561296 102.67776 
L 336.764332 101.3472 
L 336.967368 98.68608 
L 337.170404 104.00832 
L 337.37344 100.01664 
L 337.576476 81.3888 
L 337.779512 80.05824 
L 337.982548 60.09984 
L 338.185584 66.75264 
L 338.38862 92.03328 
L 338.591656 82.71936 
L 338.794692 65.42208 
L 338.997728 101.3472 
L 339.4038 58.76928 
L 339.606836 114.6528 
L 339.809872 108 
L 340.012908 73.40544 
L 340.215944 84.04992 
L 340.41898 72.07488 
L 340.622016 94.6944 
L 340.825052 62.76096 
L 341.231124 86.71104 
L 341.43416 80.05824 
L 341.637196 90.70272 
L 341.840232 84.04992 
L 342.043268 89.37216 
L 342.246304 82.71936 
L 342.44934 113.32224 
L 342.652376 80.05824 
L 343.058448 104.00832 
L 343.261484 89.37216 
L 343.667556 85.38048 
L 343.870592 85.38048 
L 344.073628 82.71936 
L 344.276664 84.04992 
L 344.4797 84.04992 
L 344.682736 66.75264 
L 344.885772 77.39712 
L 345.088808 60.09984 
L 345.291844 101.3472 
L 345.49488 65.42208 
L 345.697916 60.09984 
L 345.900952 139.93344 
L 346.307024 76.06656 
L 346.51006 65.42208 
L 346.713096 76.06656 
L 346.916132 76.06656 
L 347.119168 89.37216 
L 347.322204 77.39712 
L 347.52524 92.03328 
L 347.728276 57.43872 
L 347.931312 61.4304 
L 348.134348 85.38048 
L 348.337384 72.07488 
L 348.54042 110.66112 
L 348.743456 94.6944 
L 348.946492 111.99168 
L 349.149528 89.37216 
L 349.352564 85.38048 
L 349.5556 98.68608 
L 349.758636 82.71936 
L 349.961671 88.0416 
L 350.164707 100.01664 
L 350.367743 86.71104 
L 350.570779 64.09152 
L 350.773815 94.6944 
L 350.976851 98.68608 
L 351.179887 69.41376 
L 351.382923 90.70272 
L 351.585959 81.3888 
L 351.788995 97.35552 
L 352.195067 62.76096 
L 352.398103 84.04992 
L 352.601139 85.38048 
L 352.804175 82.71936 
L 353.007211 66.75264 
L 353.413283 86.71104 
L 353.616319 76.06656 
L 353.819355 78.72768 
L 354.022391 74.736 
L 354.225427 81.3888 
L 354.428463 65.42208 
L 354.834535 86.71104 
L 355.037571 74.736 
L 355.443643 113.32224 
L 355.646679 77.39712 
L 355.849715 97.35552 
L 356.052751 80.05824 
L 356.255787 97.35552 
L 356.661859 73.40544 
L 356.864895 70.74432 
L 357.067931 76.06656 
L 357.270967 66.75264 
L 357.474003 84.04992 
L 357.677039 62.76096 
L 357.880075 86.71104 
L 358.083111 65.42208 
L 358.286147 89.37216 
L 358.489183 62.76096 
L 358.692219 72.07488 
L 358.895255 110.66112 
L 359.301327 58.76928 
L 359.504363 69.41376 
L 359.707399 64.09152 
L 359.910435 104.00832 
L 360.113471 76.06656 
L 360.316507 69.41376 
L 360.519543 69.41376 
L 360.722579 105.33888 
L 360.925615 78.72768 
L 361.128651 97.35552 
L 361.331687 74.736 
L 361.534723 76.06656 
L 361.737759 90.70272 
L 361.940795 61.4304 
L 362.346867 94.6944 
L 362.549903 101.3472 
L 362.752939 70.74432 
L 362.955975 88.0416 
L 363.159011 82.71936 
L 363.362047 113.32224 
L 363.565083 80.05824 
L 363.768119 68.0832 
L 363.971155 73.40544 
L 364.174191 101.3472 
L 364.377227 56.10816 
L 364.580263 76.06656 
L 364.783299 74.736 
L 364.986335 69.41376 
L 365.189371 78.72768 
L 365.392407 96.02496 
L 365.595443 80.05824 
L 365.798479 81.3888 
L 366.001515 86.71104 
L 366.204551 68.0832 
L 366.407587 68.0832 
L 366.610623 92.03328 
L 367.016695 65.42208 
L 367.422767 102.67776 
L 367.625802 76.06656 
L 368.031874 104.00832 
L 368.23491 57.43872 
L 368.437946 65.42208 
L 368.640982 65.42208 
L 368.844018 60.09984 
L 369.25009 85.38048 
L 369.656162 65.42208 
L 369.859198 62.76096 
L 370.062234 80.05824 
L 370.26527 68.0832 
L 370.468306 73.40544 
L 370.671342 113.32224 
L 370.874378 125.29728 
L 371.077414 81.3888 
L 371.28045 81.3888 
L 371.483486 80.05824 
L 371.686522 64.09152 
L 371.889558 74.736 
L 372.29563 62.76096 
L 372.498666 76.06656 
L 372.701702 58.76928 
L 372.904738 90.70272 
L 373.107774 58.76928 
L 373.31081 69.41376 
L 373.513846 89.37216 
L 373.716882 86.71104 
L 373.919918 101.3472 
L 374.122954 98.68608 
L 374.32599 77.39712 
L 374.529026 77.39712 
L 374.732062 70.74432 
L 374.935098 88.0416 
L 375.138134 80.05824 
L 375.34117 77.39712 
L 375.544206 54.7776 
L 375.747242 73.40544 
L 375.950278 77.39712 
L 376.153314 69.41376 
L 376.35635 77.39712 
L 376.559386 62.76096 
L 376.762422 86.71104 
L 376.965458 90.70272 
L 377.168494 74.736 
L 377.37153 72.07488 
L 377.574566 56.10816 
L 377.777602 70.74432 
L 377.980638 57.43872 
L 378.183674 58.76928 
L 378.38671 90.70272 
L 378.589746 96.02496 
L 378.792782 56.10816 
L 378.995818 109.33056 
L 379.198854 82.71936 
L 379.40189 70.74432 
L 379.604926 89.37216 
L 379.807962 96.02496 
L 380.010998 54.7776 
L 380.41707 92.03328 
L 380.620106 85.38048 
L 380.823142 74.736 
L 381.026178 77.39712 
L 381.229214 77.39712 
L 381.43225 72.07488 
L 381.838322 97.35552 
L 382.041358 119.97504 
L 382.244394 65.42208 
L 382.650466 76.06656 
L 382.853502 65.42208 
L 383.056538 94.6944 
L 383.46261 64.09152 
L 383.665646 73.40544 
L 383.868682 72.07488 
L 384.274754 57.43872 
L 384.47779 69.41376 
L 384.680826 57.43872 
L 384.883862 66.75264 
L 385.086897 69.41376 
L 385.289933 88.0416 
L 385.492969 62.76096 
L 385.696005 92.03328 
L 385.899041 88.0416 
L 386.102077 77.39712 
L 386.305113 81.3888 
L 386.508149 70.74432 
L 386.914221 77.39712 
L 387.117257 90.70272 
L 387.320293 84.04992 
L 387.523329 72.07488 
L 387.726365 85.38048 
L 387.929401 60.09984 
L 388.132437 78.72768 
L 388.335473 68.0832 
L 388.538509 68.0832 
L 388.741545 72.07488 
L 388.944581 58.76928 
L 389.147617 85.38048 
L 389.350653 54.7776 
L 389.756725 73.40544 
L 389.959761 84.04992 
L 390.162797 81.3888 
L 390.365833 69.41376 
L 390.568869 49.45536 
L 390.771905 66.75264 
L 390.974941 64.09152 
L 391.177977 78.72768 
L 391.381013 82.71936 
L 391.584049 81.3888 
L 391.787085 54.7776 
L 391.990121 60.09984 
L 392.193157 48.1248 
L 392.599229 77.39712 
L 392.802265 85.38048 
L 393.005301 76.06656 
L 393.208337 108 
L 393.411373 81.3888 
L 393.614409 72.07488 
L 393.817445 74.736 
L 394.020481 110.66112 
L 394.223517 64.09152 
L 394.426553 74.736 
L 394.629589 74.736 
L 394.832625 73.40544 
L 395.035661 62.76096 
L 395.238697 81.3888 
L 395.441733 81.3888 
L 395.644769 46.79424 
L 395.847805 82.71936 
L 396.050841 74.736 
L 396.253877 97.35552 
L 396.456913 89.37216 
L 396.659949 89.37216 
L 396.862985 58.76928 
L 397.066021 94.6944 
L 397.269057 68.0832 
L 397.472093 90.70272 
L 397.675129 70.74432 
L 397.878165 66.75264 
L 398.081201 89.37216 
L 398.284237 60.09984 
L 398.487273 65.42208 
L 398.487273 65.42208 
" style="fill:none;stroke:#1f77b4;stroke-linecap:square;stroke-width:1.5;"/>
   </g>
   <g id="line2d_17">
    <path clip-path="url(#p3b068e6bc6)" d="M 73.832727 281.394144 
L 74.035763 280.684512 
L 74.441835 281.438496 
L 74.644871 280.728864 
L 74.847907 280.950624 
L 75.050943 280.9728 
L 75.253979 280.728864 
L 75.457015 281.061504 
L 75.660051 280.839744 
L 75.863087 281.63808 
L 76.066123 281.549376 
L 76.269159 280.86192 
L 76.472195 281.061504 
L 76.675231 280.706688 
L 76.878267 280.08576 
L 77.081303 280.75104 
L 77.284339 279.886176 
L 77.487375 281.704608 
L 77.690411 281.039328 
L 77.893447 279.952704 
L 78.096483 281.261088 
L 78.299519 281.74896 
L 78.502555 281.726784 
L 78.705591 281.549376 
L 79.111663 280.396224 
L 79.314699 280.75104 
L 79.517735 281.615904 
L 79.720771 280.617984 
L 79.923807 280.4184 
L 80.329879 279.42048 
L 80.532915 280.263168 
L 80.735951 279.597888 
L 80.938987 281.63808 
L 81.345059 279.775296 
L 81.548095 281.505024 
L 81.954167 281.061504 
L 82.157203 281.105856 
L 82.360239 280.374048 
L 82.563275 280.950624 
L 82.766311 282.369888 
L 82.969347 281.837664 
L 83.172383 279.97488 
L 83.375419 281.283264 
L 83.578455 280.263168 
L 83.781491 281.238912 
L 83.984527 280.462752 
L 84.187563 280.595808 
L 84.390599 280.218816 
L 84.593635 280.795392 
L 84.999707 280.573632 
L 85.202743 281.017152 
L 85.405779 281.904192 
L 85.608815 280.595808 
L 85.811851 281.261088 
L 86.014887 280.484928 
L 86.217923 280.329696 
L 86.420959 281.460672 
L 86.827031 280.462752 
L 87.030067 280.52928 
L 87.233103 280.30752 
L 87.436138 280.884096 
L 87.639174 280.617984 
L 87.84221 281.615904 
L 88.045246 280.950624 
L 88.248282 280.9728 
L 88.451318 281.283264 
L 88.85739 280.728864 
L 89.060426 281.615904 
L 89.263462 280.884096 
L 89.466498 281.283264 
L 89.669534 282.148128 
L 89.87257 282.125952 
L 90.075606 281.904192 
L 90.278642 281.105856 
L 90.481678 282.436416 
L 90.684714 282.19248 
L 90.88775 279.132192 
L 91.090786 281.97072 
L 91.293822 281.793312 
L 91.496858 281.283264 
L 91.90293 281.216736 
L 92.105966 281.571552 
L 92.309002 280.950624 
L 92.512038 281.438496 
L 92.715074 281.017152 
L 92.91811 281.172384 
L 93.121146 280.374048 
L 93.324182 282.30336 
L 93.527218 280.617984 
L 93.730254 279.997056 
L 93.93329 280.329696 
L 94.136326 281.460672 
L 94.339362 280.573632 
L 94.542398 282.125952 
L 94.745434 280.52928 
L 94.94847 280.52928 
L 95.151506 280.86192 
L 95.354542 282.015072 
L 95.557578 280.551456 
L 95.760614 280.396224 
L 96.572758 282.591648 
L 96.775794 282.502944 
L 96.97883 281.482848 
L 97.181866 281.238912 
L 97.384902 281.74896 
L 97.587938 280.462752 
L 97.790974 280.817568 
L 97.99401 279.154368 
L 98.197046 282.347712 
L 98.400082 280.64016 
L 98.603118 281.438496 
L 98.806154 280.950624 
L 99.00919 282.724704 
L 99.212226 281.150208 
L 99.618298 281.63808 
L 99.821334 280.19664 
L 100.02437 281.08368 
L 100.227406 279.952704 
L 100.430442 281.41632 
L 100.633478 280.773216 
L 100.836514 282.170304 
L 101.242586 279.819648 
L 102.05473 282.236832 
L 102.257766 280.728864 
L 102.460802 281.238912 
L 102.866874 280.595808 
L 103.272946 279.864 
L 103.475982 280.374048 
L 104.08509 279.553536 
L 104.288126 280.285344 
L 104.491162 280.551456 
L 104.694198 278.356032 
L 104.897233 278.42256 
L 105.506341 273.943008 
L 105.709377 270.572256 
L 105.912413 273.078144 
L 106.115449 264.67344 
L 106.318485 262.588896 
L 106.521521 264.296448 
L 106.724557 264.518208 
L 106.927593 263.298528 
L 107.130629 259.994304 
L 107.333665 262.1232 
L 107.536701 260.57088 
L 107.739737 261.435744 
L 107.942773 257.288832 
L 108.145809 261.369216 
L 108.551881 258.996384 
L 108.754917 259.772544 
L 108.957953 262.877184 
L 109.160989 252.055296 
L 109.364025 257.421888 
L 109.567061 256.069152 
L 109.770097 257.02272 
L 109.973133 249.948576 
L 110.176169 255.980448 
L 110.582241 252.277056 
L 110.785277 256.756608 
L 110.988313 249.837696 
L 111.191349 253.208448 
L 111.394385 252.742752 
L 111.597421 249.948576 
L 111.800457 243.650592 
L 112.003493 252.25488 
L 112.409565 245.735136 
L 112.612601 244.559808 
L 112.815637 247.553568 
L 113.018673 241.100352 
L 113.221709 242.7192 
L 113.424745 234.358848 
L 113.627781 238.816224 
L 113.830817 233.449632 
L 114.033853 234.536256 
L 114.236889 230.544576 
L 114.439925 239.925024 
L 114.845997 233.604864 
L 115.049033 241.566048 
L 115.252069 242.763552 
L 115.455105 235.822464 
L 115.658141 245.335968 
L 115.861177 236.909088 
L 116.267249 229.058784 
L 116.470285 233.538336 
L 116.673321 228.947904 
L 116.876357 229.790592 
L 117.079393 228.127392 
L 117.282429 227.63952 
L 117.485465 234.048384 
L 117.688501 232.385184 
L 117.891537 235.17936 
L 118.297609 227.373408 
L 118.500645 226.663776 
L 118.703681 231.6312 
L 118.906717 227.927808 
L 119.109753 229.480128 
L 119.312789 221.518944 
L 119.515825 228.282624 
L 119.718861 220.87584 
L 119.921897 224.956224 
L 120.124933 226.264608 
L 120.327969 223.337376 
L 120.531005 217.66032 
L 121.140113 230.123232 
L 121.343149 223.381728 
L 121.546185 231.564672 
L 121.749221 221.54112 
L 121.952257 220.09968 
L 122.155293 228.216096 
L 122.358329 217.904256 
L 122.561364 215.132256 
L 122.967436 220.676256 
L 123.170472 221.740704 
L 123.373508 220.698432 
L 123.576544 222.073344 
L 123.77958 218.21472 
L 123.982616 222.42816 
L 124.388688 211.961088 
L 124.591724 220.077504 
L 124.79476 217.394208 
L 124.997796 217.150272 
L 125.200832 225.377568 
L 125.606904 213.22512 
L 126.012976 221.275008 
L 126.216012 220.5432 
L 126.419048 219.367872 
L 126.622084 225.64368 
L 126.82512 217.32768 
L 127.028156 219.412224 
L 127.231192 207.12672 
L 127.434228 211.89456 
L 127.637264 206.727552 
L 127.8403 208.723392 
L 128.043336 221.652 
L 128.246372 210.67488 
L 128.449408 213.624288 
L 128.652444 205.707456 
L 128.85548 214.156512 
L 129.058516 211.761504 
L 129.261552 212.182848 
L 129.464588 210.940992 
L 129.667624 211.317984 
L 129.87066 200.717856 
L 130.073696 210.830112 
L 130.276732 205.286112 
L 130.479768 212.160672 
L 130.682804 207.747648 
L 130.88584 210.78576 
L 131.088876 217.615968 
L 131.291912 200.562624 
L 131.494948 207.060192 
L 131.697984 206.505792 
L 131.90102 216.839808 
L 132.307092 198.9216 
L 132.510128 217.10592 
L 132.713164 203.090688 
L 132.9162 206.439264 
L 133.119236 206.993664 
L 133.322272 205.108704 
L 133.525308 200.5848 
L 133.728344 198.899424 
L 133.93138 202.69152 
L 134.134416 203.13504 
L 134.337452 199.542528 
L 134.540488 201.072672 
L 134.743524 196.193952 
L 134.94656 206.1288 
L 135.149596 204.776064 
L 135.352632 201.604896 
L 135.555668 210.408768 
L 135.758704 206.661024 
L 135.96174 207.45936 
L 136.164776 203.112864 
L 136.367812 206.284032 
L 136.570848 197.968032 
L 136.97692 206.816256 
L 137.179956 196.615296 
L 137.382992 205.90704 
L 137.789064 190.694304 
L 137.9921 199.476 
L 138.195136 190.649952 
L 138.601208 202.624992 
L 138.804244 204.68736 
L 139.00728 197.59104 
L 139.210316 198.633312 
L 139.413352 200.939616 
L 139.616388 213.11424 
L 139.819424 193.421952 
L 140.022459 202.114944 
L 140.225495 193.288896 
L 140.428531 191.93616 
L 140.631567 197.635392 
L 140.834603 195.92784 
L 141.037639 203.933376 
L 141.240675 192.690144 
L 141.443711 198.522432 
L 141.646747 194.663808 
L 141.849783 194.109408 
L 142.255855 207.370656 
L 142.458891 192.867552 
L 142.661927 205.419168 
L 142.864963 204.4656 
L 143.067999 200.096928 
L 143.474071 204.709536 
L 143.880143 187.367904 
L 144.083179 199.653408 
L 144.286215 198.988128 
L 144.489251 201.094848 
L 144.692287 187.589664 
L 144.895323 190.649952 
L 145.098359 200.0304 
L 145.301395 191.38176 
L 145.504431 202.602816 
L 145.707467 194.996448 
L 145.910503 196.792704 
L 146.113539 183.708864 
L 146.316575 202.558464 
L 146.519611 196.393536 
L 146.722647 195.417792 
L 146.925683 193.200192 
L 147.128719 192.778848 
L 147.534791 202.048416 
L 147.737827 192.845376 
L 147.940863 194.109408 
L 148.143899 197.080992 
L 148.346935 197.92368 
L 148.549971 196.637472 
L 148.753007 199.564704 
L 148.956043 194.508576 
L 149.159079 198.566784 
L 149.362115 187.94448 
L 149.565151 189.430272 
L 149.768187 195.972192 
L 149.971223 191.448288 
L 150.174259 199.010304 
L 150.377295 198.988128 
L 150.580331 195.085152 
L 150.783367 194.198112 
L 150.986403 201.338784 
L 151.189439 192.113568 
L 151.392475 197.435808 
L 151.595511 193.200192 
L 151.798547 191.49264 
L 152.001583 205.308288 
L 152.204619 187.700544 
L 152.407655 185.17248 
L 152.813727 199.010304 
L 153.016763 200.296512 
L 153.219799 189.430272 
L 153.422835 188.388 
L 153.625871 201.316608 
L 154.031943 180.936864 
L 154.234979 188.875872 
L 154.641051 193.887648 
L 154.844087 203.977728 
L 155.047123 190.27296 
L 155.250159 192.246624 
L 155.453195 191.581344 
L 155.656231 198.522432 
L 155.859267 197.59104 
L 156.062303 188.986752 
L 156.265339 195.573024 
L 156.468375 195.173856 
L 156.671411 194.442048 
L 156.874447 187.345728 
L 157.077483 186.28128 
L 157.280519 199.25424 
L 157.483554 191.16 
L 157.68659 197.125344 
L 157.889626 189.60768 
L 158.092662 197.236224 
L 158.295698 200.0304 
L 158.498734 192.623616 
L 158.70177 194.4864 
L 158.904806 193.776768 
L 159.107842 190.450368 
L 159.513914 201.80448 
L 159.919986 182.245248 
L 160.123022 202.114944 
L 160.326058 193.798944 
L 160.529094 212.315904 
L 160.73213 180.51552 
L 160.935166 187.234848 
L 161.138202 198.832896 
L 161.341238 188.587584 
L 161.544274 193.510656 
L 161.74731 187.16832 
L 161.950346 199.209888 
L 162.153382 190.6056 
L 162.356418 197.746272 
L 162.559454 187.234848 
L 162.76249 201.427488 
L 162.965526 191.38176 
L 163.168562 196.859232 
L 163.371598 194.175936 
L 163.574634 196.415712 
L 163.77767 188.077536 
L 163.980706 188.809344 
L 164.386778 196.171776 
L 164.589814 187.123968 
L 164.79285 199.719936 
L 164.995886 191.115648 
L 165.198922 187.922304 
L 165.401958 187.61184 
L 165.604994 189.851616 
L 165.80803 188.72064 
L 166.011066 181.40256 
L 166.214102 190.27296 
L 166.417138 192.734496 
L 166.620174 184.462848 
L 166.82321 183.50928 
L 167.026246 191.913984 
L 167.229282 181.202976 
L 167.432318 193.355424 
L 167.635354 181.003392 
L 168.041426 199.187712 
L 168.244462 190.916064 
L 168.447498 194.774688 
L 168.650534 202.514112 
L 168.85357 182.932704 
L 169.056606 195.018624 
L 169.259642 187.877952 
L 169.462678 195.661728 
L 169.665714 181.358208 
L 169.86875 178.719264 
L 170.071786 191.426112 
L 170.274822 195.196032 
L 170.477858 192.024864 
L 170.680894 198.300672 
L 171.086966 185.39424 
L 171.290002 182.17872 
L 171.493038 181.979136 
L 171.696074 190.93824 
L 171.89911 184.329792 
L 172.102146 181.823904 
L 172.305182 181.95696 
L 172.508218 196.238304 
L 172.711254 197.302752 
L 172.91429 190.428192 
L 173.117326 189.27504 
L 173.320362 172.288224 
L 173.523398 187.412256 
L 173.726434 187.434432 
L 173.92947 187.767072 
L 174.132506 182.688768 
L 174.335542 182.777472 
L 174.538578 179.761536 
L 174.741614 179.761536 
L 174.944649 177.699168 
L 175.147685 185.549472 
L 175.350721 178.142688 
L 175.553757 200.274336 
L 175.756793 189.119808 
L 175.959829 187.966656 
L 176.162865 181.469088 
L 176.365901 186.791328 
L 176.568937 183.62016 
L 176.771973 186.636096 
L 176.975009 175.925088 
L 177.178045 184.972896 
L 177.381081 186.857856 
L 177.584117 190.250784 
L 177.787153 179.872416 
L 177.990189 187.16832 
L 178.193225 188.543232 
L 178.396261 192.069216 
L 178.599297 169.893216 
L 178.802333 191.426112 
L 179.005369 182.06784 
L 179.208405 189.918144 
L 179.817513 180.160704 
L 180.426621 185.571648 
L 180.629657 192.911904 
L 181.035729 176.63472 
L 181.238765 177.233472 
L 181.441801 183.309696 
L 181.644837 181.668672 
L 181.847873 182.156544 
L 182.050909 178.142688 
L 182.253945 194.04288 
L 182.456981 187.678368 
L 182.660017 177.654816 
L 182.863053 178.430976 
L 183.066089 167.963904 
L 183.269125 168.673536 
L 183.472161 181.269504 
L 183.675197 170.491968 
L 183.878233 182.245248 
L 184.081269 182.999232 
L 184.284305 175.348512 
L 184.487341 189.230688 
L 184.893413 171.999936 
L 185.096449 169.715808 
L 185.299485 183.043584 
L 185.502521 187.412256 
L 185.705557 177.033888 
L 185.908593 180.027648 
L 186.111629 184.72896 
L 186.314665 175.925088 
L 186.517701 178.63056 
L 186.720737 176.656896 
L 186.923773 167.20992 
L 187.126809 170.137152 
L 187.532881 190.805184 
L 187.735917 158.029056 
L 187.938953 163.173888 
L 188.345025 191.869632 
L 188.548061 174.461472 
L 188.751097 179.40672 
L 188.954133 177.388704 
L 189.157169 168.09696 
L 189.360205 175.902912 
L 189.563241 169.671456 
L 189.766277 172.665216 
L 190.375385 192.024864 
L 190.578421 165.568896 
L 191.390565 186.259104 
L 191.593601 163.750464 
L 191.796637 181.247328 
L 191.999673 172.97568 
L 192.202709 175.947264 
L 192.405744 169.405344 
L 192.60878 174.461472 
L 192.811816 175.459392 
L 193.014852 164.77056 
L 193.217888 181.092096 
L 193.420924 175.281984 
L 193.62396 176.058144 
L 193.826996 174.616704 
L 194.030032 176.501664 
L 194.233068 173.286144 
L 194.436104 182.023488 
L 194.63914 179.229312 
L 194.842176 173.729664 
L 195.248248 178.009632 
L 195.451284 171.290304 
L 195.65432 172.798272 
L 195.857356 167.564736 
L 196.060392 191.16 
L 196.263428 171.2016 
L 196.466464 182.378304 
L 196.6695 165.701952 
L 196.872536 177.056064 
L 197.278608 184.351968 
L 197.68468 164.859264 
L 197.887716 170.292384 
L 198.090752 167.786496 
L 198.293788 167.963904 
L 198.69986 178.009632 
L 198.902896 166.167648 
L 199.105932 190.6056 
L 199.308968 174.239712 
L 199.512004 177.233472 
L 199.71504 162.153792 
L 200.324148 177.18912 
L 200.527184 167.697792 
L 200.73022 164.260512 
L 200.933256 185.039424 
L 201.136292 164.748384 
L 201.542364 180.027648 
L 201.7454 162.641664 
L 201.948436 168.895296 
L 202.151472 168.695712 
L 202.354508 168.828768 
L 202.557544 163.750464 
L 202.76058 178.475328 
L 202.963616 181.868256 
L 203.166652 163.573056 
L 203.369688 170.336736 
L 203.77576 176.346432 
L 203.978796 163.839168 
L 204.181832 174.19536 
L 204.384868 168.008256 
L 204.587904 174.661056 
L 204.79094 175.0824 
L 204.993976 174.550176 
L 205.197012 165.21408 
L 205.400048 162.020736 
L 205.603084 168.850944 
L 205.80612 164.32704 
L 206.009156 172.288224 
L 206.212192 166.65552 
L 206.415228 172.953504 
L 206.8213 164.570976 
L 207.024336 164.748384 
L 207.227372 155.988864 
L 207.430408 171.379008 
L 207.633444 160.468416 
L 207.83648 168.230016 
L 208.039516 171.046368 
L 208.445588 168.296544 
L 208.648624 160.490592 
L 208.85166 183.132288 
L 209.054696 176.701248 
L 209.257732 157.652064 
L 209.460768 171.068544 
L 209.663804 172.842624 
L 209.86684 160.44624 
L 210.069875 161.577216 
L 210.272911 163.351296 
L 210.678983 156.498912 
L 210.882019 173.995776 
L 211.085055 175.6368 
L 211.288091 161.244576 
L 211.491127 170.735904 
L 211.694163 154.835712 
L 212.100235 167.697792 
L 212.303271 158.539104 
L 212.506307 160.180128 
L 212.709343 172.997856 
L 212.912379 155.523168 
L 213.115415 167.187744 
L 213.318451 167.631264 
L 213.521487 168.496128 
L 213.724523 162.264672 
L 213.927559 162.464256 
L 214.333631 178.697088 
L 214.536667 160.601472 
L 214.739703 173.463552 
L 214.942739 171.600768 
L 215.145775 165.790656 
L 215.348811 173.951424 
L 215.551847 161.488512 
L 215.754883 163.972224 
L 215.957919 168.917472 
L 216.160955 160.180128 
L 216.363991 161.288928 
L 216.567027 160.579296 
L 216.770063 159.381792 
L 216.973099 166.189824 
L 217.176135 163.573056 
L 217.379171 171.379008 
L 217.582207 171.42336 
L 217.785243 163.44 
L 217.988279 167.675616 
L 218.191315 156.432384 
L 218.394351 174.572352 
L 218.597387 170.491968 
L 218.800423 171.223776 
L 219.003459 179.761536 
L 219.409531 158.206464 
L 219.612567 161.421984 
L 219.815603 169.360992 
L 220.018639 157.984704 
L 220.221675 166.633344 
L 220.627747 162.841248 
L 220.830783 162.087264 
L 221.033819 164.99232 
L 221.236855 146.14272 
L 221.439891 172.376928 
L 221.845963 153.882144 
L 222.048999 160.157952 
L 222.252035 171.334656 
L 222.455071 154.857888 
L 222.861143 168.340896 
L 223.064179 175.437216 
L 223.267215 161.155872 
L 223.470251 159.537024 
L 223.673287 153.549504 
L 223.876323 166.300704 
L 224.079359 165.524544 
L 224.282395 165.43584 
L 224.688467 170.735904 
L 224.891503 162.841248 
L 225.094539 165.524544 
L 225.297575 165.746304 
L 225.500611 167.8752 
L 225.703647 175.725504 
L 225.906683 157.031136 
L 226.109719 167.09904 
L 226.312755 170.824608 
L 226.515791 155.45664 
L 226.718827 166.87728 
L 226.921863 163.816992 
L 227.124899 170.558496 
L 227.327935 168.740064 
L 227.53097 155.767104 
L 227.734006 158.605632 
L 227.937042 152.972928 
L 228.140078 156.831552 
L 228.54615 171.290304 
L 228.952222 147.14064 
L 229.155258 151.975008 
L 229.358294 160.712352 
L 229.56133 158.78304 
L 229.764366 175.880736 
L 229.967402 171.578592 
L 230.170438 153.948672 
L 230.373474 158.073408 
L 230.57651 156.12192 
L 230.982582 162.863424 
L 231.185618 155.146176 
L 231.388654 180.40464 
L 231.794726 154.68048 
L 231.997762 164.193984 
L 232.200798 163.88352 
L 232.403834 170.53632 
L 232.60687 161.155872 
L 232.809906 159.869664 
L 233.012942 161.599392 
L 233.215978 161.843328 
L 233.419014 162.907776 
L 233.62205 157.873824 
L 233.825086 157.408128 
L 234.028122 161.88768 
L 234.231158 149.846112 
L 234.434194 168.740064 
L 234.63723 157.519008 
L 234.840266 157.519008 
L 235.043302 149.602176 
L 235.246338 158.760864 
L 235.449374 178.918848 
L 235.65241 149.80176 
L 235.855446 157.408128 
L 236.058482 158.67216 
L 236.261518 171.2016 
L 236.66759 154.037376 
L 236.870626 157.67424 
L 237.073662 156.920256 
L 237.276698 157.696416 
L 237.479734 152.9064 
L 237.68277 154.702656 
L 237.885806 164.193984 
L 238.088842 163.484352 
L 238.291878 157.696416 
L 238.494914 165.391488 
L 238.69795 165.081024 
L 238.900986 151.376256 
L 239.104022 155.944512 
L 239.307058 172.598688 
L 239.71313 153.815616 
L 239.916166 161.266752 
L 240.322238 148.13856 
L 240.525274 157.075488 
L 240.931346 152.329824 
L 241.134382 159.182208 
L 241.337418 152.329824 
L 241.540454 171.179424 
L 241.74349 163.32912 
L 241.946526 145.632672 
L 242.149562 154.12608 
L 242.352598 150.46704 
L 242.555634 156.476736 
L 242.75867 158.760864 
L 243.164742 147.58416 
L 243.367778 155.500992 
L 243.570814 150.888384 
L 243.77385 166.167648 
L 243.976886 165.458016 
L 244.382958 141.796224 
L 244.992065 169.560576 
L 245.195101 147.783744 
L 245.398137 158.89392 
L 245.601173 154.658304 
L 246.007245 160.357536 
L 246.210281 169.848864 
L 246.413317 152.839872 
L 246.616353 148.094208 
L 246.819389 150.79968 
L 247.225461 164.947968 
L 247.428497 151.841952 
L 247.631533 153.837792 
L 247.834569 152.57376 
L 248.037605 157.00896 
L 248.240641 154.392192 
L 248.443677 147.983328 
L 248.646713 159.869664 
L 248.849749 154.702656 
L 249.052785 141.840576 
L 249.458857 156.34368 
L 249.661893 150.444864 
L 249.864929 163.240416 
L 250.271001 152.839872 
L 250.474037 153.771264 
L 250.677073 167.498208 
L 250.880109 149.069952 
L 251.286181 161.976384 
L 251.489217 154.946592 
L 251.692253 163.21824 
L 251.895289 166.43376 
L 252.098325 156.34368 
L 252.301361 154.5696 
L 252.504397 158.250816 
L 252.707433 159.359616 
L 252.910469 158.583456 
L 253.113505 158.33952 
L 253.316541 148.870368 
L 253.519577 158.272992 
L 253.722613 158.33952 
L 253.925649 147.118464 
L 254.128685 155.212704 
L 254.331721 138.38112 
L 254.534757 158.250816 
L 254.737793 155.722752 
L 254.940829 144.656928 
L 255.143865 144.789984 
L 255.346901 156.521088 
L 255.549937 150.977088 
L 255.752973 153.549504 
L 255.956009 152.285472 
L 256.159045 164.814912 
L 256.362081 146.741472 
L 256.768153 151.841952 
L 256.971189 140.332608 
L 257.174225 154.148256 
L 257.377261 156.033216 
L 257.580297 145.03392 
L 257.783333 159.071328 
L 257.986369 164.570976 
L 258.189405 154.68048 
L 258.392441 165.258432 
L 258.798513 153.505152 
L 259.001549 151.398432 
L 259.204585 158.073408 
L 259.407621 161.067168 
L 259.610657 157.918176 
L 259.813693 161.599392 
L 260.016729 150.001344 
L 260.219765 153.283392 
L 260.422801 164.260512 
L 260.625837 151.819776 
L 260.828873 148.670784 
L 261.031909 148.382496 
L 261.234945 156.2328 
L 261.641017 160.601472 
L 262.047089 145.987488 
L 262.250125 146.497536 
L 262.656196 157.142016 
L 262.859232 146.009664 
L 263.062268 152.307648 
L 263.265304 168.030432 
L 263.671376 144.324288 
L 264.077448 150.267456 
L 264.280484 145.322208 
L 264.686556 152.839872 
L 265.092628 144.989568 
L 265.295664 157.56336 
L 265.4987 134.345088 
L 265.904772 152.839872 
L 266.107808 137.49408 
L 266.310844 142.949376 
L 266.51388 169.582752 
L 266.716916 157.56336 
L 266.919952 160.047072 
L 267.52906 140.842656 
L 267.732096 148.892544 
L 267.935132 149.047776 
L 268.138168 143.4816 
L 268.341204 145.965312 
L 268.54424 147.074112 
L 268.747276 140.399136 
L 268.950312 150.35616 
L 269.153348 144.501696 
L 269.356384 153.4608 
L 269.55942 152.995104 
L 269.762456 145.632672 
L 269.965492 144.390816 
L 270.168528 145.1448 
L 270.371564 141.574464 
L 270.5746 158.67216 
L 271.183708 139.733856 
L 271.386744 143.25984 
L 271.58978 149.380416 
L 271.995852 155.56752 
L 272.198888 154.103904 
L 272.401924 133.83504 
L 272.60496 163.10736 
L 272.807996 140.199552 
L 273.011032 144.435168 
L 273.214068 138.93552 
L 273.417104 159.093504 
L 273.62014 148.848192 
L 273.823176 145.344384 
L 274.229248 131.218272 
L 274.432284 151.708896 
L 274.63532 146.275776 
L 274.838356 147.14064 
L 275.041392 159.0048 
L 275.447464 148.205088 
L 275.6505 160.801056 
L 275.853536 151.930656 
L 276.056572 165.945888 
L 276.259608 148.315968 
L 276.462644 151.331904 
L 276.66568 142.217568 
L 276.868716 159.049152 
L 277.071752 144.058176 
L 277.274788 142.9272 
L 277.477824 159.0048 
L 277.883896 141.064416 
L 278.086932 144.235584 
L 278.289968 129.577248 
L 278.493004 133.036704 
L 278.69604 128.468448 
L 279.102112 152.706816 
L 279.305148 151.731072 
L 279.508184 137.471904 
L 279.71122 164.10528 
L 279.914256 135.49824 
L 280.117291 155.301408 
L 280.523363 140.554368 
L 280.929435 158.982624 
L 281.335507 139.48992 
L 281.538543 136.363104 
L 281.741579 156.654144 
L 282.147651 148.493376 
L 282.350687 135.099072 
L 282.553723 148.892544 
L 282.756759 146.830176 
L 282.959795 158.184288 
L 283.162831 142.3728 
L 283.365867 144.723456 
L 283.568903 150.710976 
L 283.771939 146.741472 
L 283.974975 150.35616 
L 284.178011 147.517632 
L 284.381047 146.564064 
L 284.584083 132.903648 
L 284.787119 142.838496 
L 284.990155 136.429632 
L 285.193191 150.733152 
L 285.396227 149.336064 
L 285.599263 150.311808 
L 286.005335 147.118464 
L 286.411407 142.905024 
L 286.614443 157.873824 
L 286.817479 140.221728 
L 287.020515 159.182208 
L 287.223551 133.968096 
L 287.426587 154.325664 
L 287.629623 142.70544 
L 287.832659 141.197472 
L 288.035695 143.104608 
L 288.238731 143.126784 
L 288.644803 131.994432 
L 288.847839 144.612576 
L 289.050875 148.315968 
L 289.253911 139.71168 
L 289.456947 156.188448 
L 289.659983 154.68048 
L 289.863019 140.687424 
L 290.066055 157.740768 
L 290.269091 145.6992 
L 290.472127 149.092128 
L 290.675163 160.357536 
L 290.878199 147.25152 
L 291.081235 149.313888 
L 291.284271 138.336768 
L 291.487307 150.333984 
L 291.690343 142.971552 
L 291.893379 140.776128 
L 292.096415 141.130944 
L 292.299451 147.561984 
L 292.502487 145.211328 
L 292.705523 158.162112 
L 292.908559 145.987488 
L 293.111595 142.505856 
L 293.314631 145.233504 
L 293.517667 144.457344 
L 293.720703 150.267456 
L 293.923739 136.363104 
L 294.329811 155.811456 
L 294.532847 143.991648 
L 294.735883 140.842656 
L 294.938919 148.24944 
L 295.141955 159.825312 
L 295.344991 145.388736 
L 295.548027 144.013824 
L 295.751063 144.5904 
L 295.954099 141.352704 
L 296.360171 147.850272 
L 296.563207 136.562688 
L 296.766243 153.194688 
L 296.969279 137.804544 
L 297.172315 135.520416 
L 297.375351 130.796928 
L 297.578386 137.250144 
L 297.781422 133.901568 
L 297.984458 155.767104 
L 298.39053 147.229344 
L 298.593566 137.183616 
L 298.796602 141.995808 
L 298.999638 141.92928 
L 299.202674 135.853056 
L 299.40571 156.099744 
L 299.608746 140.177376 
L 299.811782 153.68256 
L 300.014818 146.47536 
L 300.217854 154.45872 
L 300.42089 151.531488 
L 300.623926 139.445568 
L 300.826962 148.493376 
L 301.029998 139.93344 
L 301.233034 153.704736 
L 301.43607 135.72 
L 301.639106 146.098368 
L 301.842142 126.051264 
L 302.045178 144.013824 
L 302.248214 139.423392 
L 302.45125 143.415072 
L 302.654286 133.369344 
L 302.857322 136.562688 
L 303.263394 150.777504 
L 303.46643 153.482976 
L 303.669466 151.35408 
L 303.872502 156.2328 
L 304.075538 137.316672 
L 304.278574 145.499616 
L 304.48161 142.217568 
L 304.684646 155.434464 
L 304.887682 148.338144 
L 305.090718 145.388736 
L 305.293754 149.13648 
L 305.49679 134.145504 
L 305.699826 137.760192 
L 305.902862 138.846816 
L 306.105898 126.273024 
L 306.308934 124.986816 
L 306.51197 149.158656 
L 306.715006 134.544672 
L 306.918042 141.59664 
L 307.121078 137.227968 
L 307.324114 125.496864 
L 307.52715 140.088672 
L 307.730186 136.030464 
L 307.933222 142.993728 
L 308.136258 130.353408 
L 308.339294 132.482304 
L 308.54233 138.735936 
L 308.745366 132.149664 
L 308.948402 155.190528 
L 309.151438 135.143424 
L 309.55751 140.731776 
L 309.760546 139.955616 
L 309.963582 140.288256 
L 310.166618 152.329824 
L 310.369654 151.975008 
L 310.57269 138.492 
L 310.775726 145.854432 
L 310.978762 142.195392 
L 311.181798 143.902944 
L 311.384834 139.999968 
L 311.58787 141.064416 
L 311.790906 139.534272 
L 311.993942 131.440032 
L 312.400014 150.200928 
L 312.60305 135.453888 
L 312.806086 144.279936 
L 313.009122 130.087296 
L 313.212158 127.780992 
L 313.415194 142.128864 
L 313.61823 131.129568 
L 313.821266 138.514176 
L 314.024302 133.790688 
L 314.227338 134.877312 
L 314.430374 145.36656 
L 314.63341 120.618144 
L 314.836446 124.099776 
L 315.039481 133.990272 
L 315.242517 154.747008 
L 315.445553 141.264 
L 315.648589 139.71168 
L 315.851625 144.745632 
L 316.054661 159.869664 
L 316.257697 145.721376 
L 316.460733 148.626432 
L 316.663769 140.088672 
L 316.866805 142.3728 
L 317.069841 143.193312 
L 317.272877 144.789984 
L 317.475913 149.0256 
L 317.678949 119.908512 
L 317.881985 146.098368 
L 318.085021 135.542592 
L 318.288057 142.195392 
L 318.491093 132.50448 
L 318.694129 139.445568 
L 318.897165 133.191936 
L 319.100201 131.817024 
L 319.303237 154.835712 
L 319.506273 134.034624 
L 319.709309 130.597344 
L 319.912345 130.84128 
L 320.115381 146.03184 
L 320.318417 128.756736 
L 320.724489 143.4816 
L 320.927525 136.318752 
L 321.130561 145.47744 
L 321.333597 134.433792 
L 321.536633 136.518336 
L 321.739669 137.405376 
L 321.942705 131.61744 
L 322.145741 138.536352 
L 322.348777 162.841248 
L 322.551813 155.523168 
L 322.754849 138.469824 
L 322.957885 135.010368 
L 323.363957 154.370016 
L 323.566993 140.82048 
L 323.770029 138.403296 
L 323.973065 149.13648 
L 324.176101 133.16976 
L 324.379137 133.968096 
L 324.582173 123.168384 
L 324.785209 135.27648 
L 324.988245 128.645856 
L 325.191281 140.975712 
L 325.597353 133.83504 
L 325.800389 141.264 
L 326.003425 135.121248 
L 326.206461 140.199552 
L 326.409497 152.595936 
L 326.612533 144.36864 
L 326.815569 129.311136 
L 327.018605 140.421312 
L 327.221641 133.036704 
L 327.424677 142.417152 
L 327.627713 130.7304 
L 327.830749 144.013824 
L 328.033785 142.195392 
L 328.236821 132.105312 
L 328.439857 132.903648 
L 328.642893 130.863456 
L 328.845929 142.328448 
L 329.048965 128.801088 
L 329.252001 137.006208 
L 329.455037 135.187776 
L 329.658073 130.552992 
L 329.861109 135.72 
L 330.064145 123.124032 
L 330.267181 146.03184 
L 330.876289 133.61328 
L 331.079325 145.1448 
L 331.282361 142.749792 
L 331.485397 145.300032 
L 331.688433 130.552992 
L 331.891469 132.593184 
L 332.094505 146.164896 
L 332.297541 120.08592 
L 332.500576 132.083136 
L 332.703612 129.976416 
L 332.906648 152.374176 
L 333.31272 128.84544 
L 333.515756 126.672192 
L 333.718792 150.844032 
L 333.921828 145.122624 
L 334.124864 134.433792 
L 334.3279 132.859296 
L 334.530936 122.74704 
L 334.733972 124.388064 
L 334.937008 136.540512 
L 335.140044 138.336768 
L 335.34308 143.769888 
L 335.546116 135.05472 
L 335.749152 143.171136 
L 335.952188 136.895328 
L 336.155224 146.608416 
L 336.35826 147.894624 
L 336.561296 130.575168 
L 336.764332 141.751872 
L 336.967368 144.967392 
L 337.170404 127.73664 
L 337.37344 133.435872 
L 337.576476 147.717216 
L 337.779512 148.936896 
L 337.982548 138.802464 
L 338.185584 137.427552 
L 338.38862 129.95424 
L 338.591656 128.5128 
L 338.794692 130.220352 
L 338.997728 133.125408 
L 339.200764 122.08176 
L 339.4038 126.783072 
L 339.809872 139.112928 
L 340.012908 128.40192 
L 340.41898 147.384576 
L 340.622016 138.957696 
L 340.825052 125.585568 
L 341.028088 129.377664 
L 341.231124 142.04016 
L 341.43416 118.067904 
L 341.637196 133.28064 
L 341.840232 130.752576 
L 342.043268 131.861376 
L 342.44934 117.114336 
L 342.652376 134.212032 
L 343.058448 126.605664 
L 343.261484 125.319456 
L 343.667556 144.5904 
L 344.073628 127.337472 
L 344.276664 131.905728 
L 344.4797 127.248768 
L 344.682736 128.601504 
L 345.088808 137.205792 
L 345.291844 135.298656 
L 345.49488 131.95008 
L 345.697916 124.41024 
L 345.900952 128.601504 
L 346.307024 144.789984 
L 346.51006 135.586944 
L 346.713096 115.961184 
L 346.916132 128.246688 
L 347.119168 127.51488 
L 347.322204 134.699904 
L 347.52524 134.677728 
L 347.728276 145.898784 
L 347.931312 128.357568 
L 348.134348 134.012448 
L 348.54042 129.333312 
L 348.743456 139.0464 
L 348.946492 135.986112 
L 349.352564 145.322208 
L 349.5556 137.582784 
L 349.758636 137.893248 
L 349.961671 136.740096 
L 350.164707 143.215488 
L 350.367743 136.695744 
L 350.570779 145.721376 
L 351.179887 131.683968 
L 351.382923 127.470528 
L 351.585959 135.05472 
L 351.788995 133.302816 
L 351.992031 133.435872 
L 352.195067 141.774048 
L 352.398103 133.05888 
L 352.601139 136.074816 
L 352.804175 135.099072 
L 353.007211 121.660416 
L 353.413283 137.205792 
L 353.616319 131.794848 
L 353.819355 122.990976 
L 354.022391 133.324992 
L 354.225427 131.772672 
L 354.428463 137.582784 
L 354.631499 139.866912 
L 354.834535 138.891168 
L 355.037571 135.919584 
L 355.240607 146.47536 
L 355.443643 146.408832 
L 355.646679 122.9688 
L 355.849715 141.685344 
L 356.052751 129.17808 
L 356.255787 130.153824 
L 356.458823 127.492704 
L 356.661859 121.483008 
L 356.864895 126.40608 
L 357.067931 125.51904 
L 357.474003 140.48784 
L 357.677039 133.214112 
L 357.880075 134.145504 
L 358.083111 143.769888 
L 358.286147 121.41648 
L 358.489183 127.160064 
L 358.692219 122.214816 
L 358.895255 131.750496 
L 359.098291 133.258464 
L 359.301327 129.155904 
L 359.504363 130.819104 
L 359.707399 130.663872 
L 359.910435 132.704064 
L 360.113471 128.446272 
L 360.316507 117.380448 
L 360.925615 138.558528 
L 361.331687 124.011072 
L 361.534723 139.201632 
L 361.940795 123.434496 
L 362.143831 148.626432 
L 362.346867 130.486464 
L 362.549903 138.868992 
L 362.955975 131.040864 
L 363.159011 125.452512 
L 363.565083 136.8288 
L 363.768119 124.920288 
L 363.971155 136.518336 
L 364.174191 134.034624 
L 364.377227 141.862752 
L 364.580263 115.7616 
L 364.783299 126.871776 
L 364.986335 124.543296 
L 365.392407 141.130944 
L 365.798479 124.255008 
L 366.001515 123.013152 
L 366.204551 134.478144 
L 366.407587 124.41024 
L 366.610623 128.5128 
L 366.813659 128.534976 
L 367.016695 146.164896 
L 367.422767 129.665952 
L 367.828838 141.729696 
L 368.031874 138.181536 
L 368.23491 130.907808 
L 368.437946 132.992352 
L 368.640982 143.03808 
L 369.047054 125.940384 
L 369.25009 142.572384 
L 369.453126 111.304224 
L 369.656162 116.75952 
L 369.859198 117.75744 
L 370.062234 126.317376 
L 370.26527 144.70128 
L 370.468306 125.918208 
L 370.671342 138.248064 
L 370.874378 124.543296 
L 371.077414 150.001344 
L 371.28045 130.686048 
L 371.483486 146.120544 
L 371.686522 119.908512 
L 371.889558 134.078976 
L 372.092594 130.042944 
L 372.29563 132.038784 
L 372.498666 139.290336 
L 372.904738 123.656256 
L 373.107774 123.057504 
L 373.31081 123.611904 
L 373.513846 126.494784 
L 373.716882 127.670112 
L 373.919918 121.216896 
L 374.122954 119.442816 
L 374.32599 127.160064 
L 374.529026 126.051264 
L 374.732062 130.264704 
L 374.935098 121.52736 
L 375.138134 142.638912 
L 375.34117 135.564768 
L 375.544206 139.93344 
L 375.950278 125.7408 
L 376.153314 137.82672 
L 376.35635 135.986112 
L 376.559386 122.370048 
L 376.762422 131.994432 
L 376.965458 124.698528 
L 377.168494 134.677728 
L 377.37153 127.73664 
L 377.574566 125.62992 
L 377.777602 117.890496 
L 377.980638 121.438656 
L 378.183674 131.484384 
L 378.38671 126.694368 
L 378.589746 127.049184 
L 378.792782 130.309056 
L 378.995818 139.312512 
L 379.198854 125.62992 
L 379.40189 139.733856 
L 379.807962 118.688832 
L 380.010998 123.988896 
L 380.214034 134.367264 
L 380.620106 121.63824 
L 380.823142 121.19472 
L 381.026178 130.819104 
L 381.229214 127.381824 
L 381.43225 132.881472 
L 381.635286 143.215488 
L 382.041358 129.932064 
L 382.244394 136.473984 
L 382.44743 150.35616 
L 382.650466 126.494784 
L 382.853502 126.361728 
L 383.056538 134.078976 
L 383.259574 134.322912 
L 383.46261 125.319456 
L 383.665646 123.922368 
L 383.868682 131.927904 
L 384.071718 122.680512 
L 384.274754 128.579328 
L 384.47779 127.891872 
L 384.680826 129.17808 
L 384.883862 118.733184 
L 385.086897 122.902272 
L 385.289933 137.471904 
L 385.492969 134.101152 
L 385.696005 128.557152 
L 385.899041 135.476064 
L 386.102077 116.293824 
L 386.305113 118.267488 
L 386.508149 126.805248 
L 386.711185 125.607744 
L 386.914221 136.71792 
L 387.320293 120.485088 
L 387.523329 126.339552 
L 387.726365 128.224512 
L 387.929401 131.17392 
L 388.132437 125.652096 
L 388.335473 124.121952 
L 388.538509 131.794848 
L 388.741545 119.021472 
L 388.944581 129.466368 
L 389.147617 129.133728 
L 389.350653 118.888416 
L 389.553689 120.063744 
L 389.756725 120.352032 
L 390.162797 130.641696 
L 390.365833 126.472608 
L 390.568869 126.539136 
L 390.771905 122.880096 
L 391.177977 121.017312 
L 391.381013 133.28064 
L 391.584049 122.126112 
L 391.787085 126.73872 
L 392.396193 120.507264 
L 392.599229 121.616064 
L 392.802265 114.142752 
L 393.208337 144.92304 
L 394.020481 124.96464 
L 394.223517 123.900192 
L 394.426553 130.552992 
L 394.629589 131.17392 
L 395.035661 133.746336 
L 395.238697 117.957024 
L 395.441733 124.476768 
L 395.644769 127.115712 
L 395.847805 119.331936 
L 396.050841 120.152448 
L 396.253877 126.339552 
L 396.456913 117.86832 
L 396.659949 120.108096 
L 396.862985 114.453216 
L 397.066021 138.691584 
L 397.269057 131.8392 
L 397.472093 133.39152 
L 397.675129 124.831584 
L 397.878165 135.49824 
L 398.284237 126.250848 
L 398.487273 115.562016 
L 398.487273 115.562016 
" style="fill:none;stroke:#ff7f0e;stroke-linecap:square;stroke-width:1.5;"/>
   </g>
   <g id="patch_3">
    <path d="M 57.6 307.584 
L 57.6 41.472 
" style="fill:none;stroke:#000000;stroke-linecap:square;stroke-linejoin:miter;stroke-width:0.8;"/>
   </g>
   <g id="patch_4">
    <path d="M 414.72 307.584 
L 414.72 41.472 
" style="fill:none;stroke:#000000;stroke-linecap:square;stroke-linejoin:miter;stroke-width:0.8;"/>
   </g>
   <g id="patch_5">
    <path d="M 57.6 307.584 
L 414.72 307.584 
" style="fill:none;stroke:#000000;stroke-linecap:square;stroke-linejoin:miter;stroke-width:0.8;"/>
   </g>
   <g id="patch_6">
    <path d="M 57.6 41.472 
L 414.72 41.472 
" style="fill:none;stroke:#000000;stroke-linecap:square;stroke-linejoin:miter;stroke-width:0.8;"/>
   </g>
   <g id="legend_1">
    <g id="patch_7">
     <path d="M 64.6 78.82825 
L 168.475 78.82825 
Q 170.475 78.82825 170.475 76.82825 
L 170.475 48.472 
Q 170.475 46.472 168.475 46.472 
L 64.6 46.472 
Q 62.6 46.472 62.6 48.472 
L 62.6 76.82825 
Q 62.6 78.82825 64.6 78.82825 
z
" style="fill:#ffffff;opacity:0.8;stroke:#cccccc;stroke-linejoin:miter;"/>
    </g>
    <g id="line2d_18">
     <path d="M 66.6 54.570437 
L 86.6 54.570437 
" style="fill:none;stroke:#1f77b4;stroke-linecap:square;stroke-width:1.5;"/>
    </g>
    <g id="line2d_19"/>
    <g id="text_18">
     <!-- Train loss -->
     <g transform="translate(94.6 58.070437)scale(0.1 -0.1)">
      <defs>
       <path d="M -19 4666 
L 3928 4666 
L 3928 4134 
L 2272 4134 
L 2272 0 
L 1638 0 
L 1638 4134 
L -19 4134 
L -19 4666 
z
" id="DejaVuSans-54" transform="scale(0.015625)"/>
       <path d="M 603 3500 
L 1178 3500 
L 1178 0 
L 603 0 
L 603 3500 
z
M 603 4863 
L 1178 4863 
L 1178 4134 
L 603 4134 
L 603 4863 
z
" id="DejaVuSans-69" transform="scale(0.015625)"/>
       <path d="M 3513 2113 
L 3513 0 
L 2938 0 
L 2938 2094 
Q 2938 2591 2744 2837 
Q 2550 3084 2163 3084 
Q 1697 3084 1428 2787 
Q 1159 2491 1159 1978 
L 1159 0 
L 581 0 
L 581 3500 
L 1159 3500 
L 1159 2956 
Q 1366 3272 1645 3428 
Q 1925 3584 2291 3584 
Q 2894 3584 3203 3211 
Q 3513 2838 3513 2113 
z
" id="DejaVuSans-6e" transform="scale(0.015625)"/>
       <path id="DejaVuSans-20" transform="scale(0.015625)"/>
       <path d="M 603 4863 
L 1178 4863 
L 1178 0 
L 603 0 
L 603 4863 
z
" id="DejaVuSans-6c" transform="scale(0.015625)"/>
       <path d="M 2834 3397 
L 2834 2853 
Q 2591 2978 2328 3040 
Q 2066 3103 1784 3103 
Q 1356 3103 1142 2972 
Q 928 2841 928 2578 
Q 928 2378 1081 2264 
Q 1234 2150 1697 2047 
L 1894 2003 
Q 2506 1872 2764 1633 
Q 3022 1394 3022 966 
Q 3022 478 2636 193 
Q 2250 -91 1575 -91 
Q 1294 -91 989 -36 
Q 684 19 347 128 
L 347 722 
Q 666 556 975 473 
Q 1284 391 1588 391 
Q 1994 391 2212 530 
Q 2431 669 2431 922 
Q 2431 1156 2273 1281 
Q 2116 1406 1581 1522 
L 1381 1569 
Q 847 1681 609 1914 
Q 372 2147 372 2553 
Q 372 3047 722 3315 
Q 1072 3584 1716 3584 
Q 2034 3584 2315 3537 
Q 2597 3491 2834 3397 
z
" id="DejaVuSans-73" transform="scale(0.015625)"/>
      </defs>
      <use xlink:href="#DejaVuSans-54"/>
      <use x="46.333984" xlink:href="#DejaVuSans-72"/>
      <use x="87.447266" xlink:href="#DejaVuSans-61"/>
      <use x="148.726562" xlink:href="#DejaVuSans-69"/>
      <use x="176.509766" xlink:href="#DejaVuSans-6e"/>
      <use x="239.888672" xlink:href="#DejaVuSans-20"/>
      <use x="271.675781" xlink:href="#DejaVuSans-6c"/>
      <use x="299.458984" xlink:href="#DejaVuSans-6f"/>
      <use x="360.640625" xlink:href="#DejaVuSans-73"/>
      <use x="412.740234" xlink:href="#DejaVuSans-73"/>
     </g>
    </g>
    <g id="line2d_20">
     <path d="M 66.6 69.248562 
L 86.6 69.248562 
" style="fill:none;stroke:#ff7f0e;stroke-linecap:square;stroke-width:1.5;"/>
    </g>
    <g id="line2d_21"/>
    <g id="text_19">
     <!-- Validation loss -->
     <g transform="translate(94.6 72.748562)scale(0.1 -0.1)">
      <defs>
       <path d="M 1831 0 
L 50 4666 
L 709 4666 
L 2188 738 
L 3669 4666 
L 4325 4666 
L 2547 0 
L 1831 0 
z
" id="DejaVuSans-56" transform="scale(0.015625)"/>
       <path d="M 2906 2969 
L 2906 4863 
L 3481 4863 
L 3481 0 
L 2906 0 
L 2906 525 
Q 2725 213 2448 61 
Q 2172 -91 1784 -91 
Q 1150 -91 751 415 
Q 353 922 353 1747 
Q 353 2572 751 3078 
Q 1150 3584 1784 3584 
Q 2172 3584 2448 3432 
Q 2725 3281 2906 2969 
z
M 947 1747 
Q 947 1113 1208 752 
Q 1469 391 1925 391 
Q 2381 391 2643 752 
Q 2906 1113 2906 1747 
Q 2906 2381 2643 2742 
Q 2381 3103 1925 3103 
Q 1469 3103 1208 2742 
Q 947 2381 947 1747 
z
" id="DejaVuSans-64" transform="scale(0.015625)"/>
       <path d="M 1172 4494 
L 1172 3500 
L 2356 3500 
L 2356 3053 
L 1172 3053 
L 1172 1153 
Q 1172 725 1289 603 
Q 1406 481 1766 481 
L 2356 481 
L 2356 0 
L 1766 0 
Q 1100 0 847 248 
Q 594 497 594 1153 
L 594 3053 
L 172 3053 
L 172 3500 
L 594 3500 
L 594 4494 
L 1172 4494 
z
" id="DejaVuSans-74" transform="scale(0.015625)"/>
      </defs>
      <use xlink:href="#DejaVuSans-56"/>
      <use x="60.658203" xlink:href="#DejaVuSans-61"/>
      <use x="121.9375" xlink:href="#DejaVuSans-6c"/>
      <use x="149.720703" xlink:href="#DejaVuSans-69"/>
      <use x="177.503906" xlink:href="#DejaVuSans-64"/>
      <use x="240.980469" xlink:href="#DejaVuSans-61"/>
      <use x="302.259766" xlink:href="#DejaVuSans-74"/>
      <use x="341.46875" xlink:href="#DejaVuSans-69"/>
      <use x="369.251953" xlink:href="#DejaVuSans-6f"/>
      <use x="430.433594" xlink:href="#DejaVuSans-6e"/>
      <use x="493.8125" xlink:href="#DejaVuSans-20"/>
      <use x="525.599609" xlink:href="#DejaVuSans-6c"/>
      <use x="553.382812" xlink:href="#DejaVuSans-6f"/>
      <use x="614.564453" xlink:href="#DejaVuSans-73"/>
      <use x="666.664062" xlink:href="#DejaVuSans-73"/>
     </g>
    </g>
   </g>
  </g>
 </g>
 <defs>
  <clipPath id="p3b068e6bc6">
   <rect height="266.112" width="357.12" x="57.6" y="41.472"/>
  </clipPath>
 </defs>
</svg>
