<?xml version="1.0" encoding="utf-8" standalone="no"?>
<!DOCTYPE svg PUBLIC "-//W3C//DTD SVG 1.1//EN"
  "http://www.w3.org/Graphics/SVG/1.1/DTD/svg11.dtd">
<svg height="345.6pt" version="1.1" viewBox="0 0 460.8 345.6" width="460.8pt" xmlns="http://www.w3.org/2000/svg" xmlns:xlink="http://www.w3.org/1999/xlink">
 <metadata>
  <rdf:RDF xmlns:cc="http://creativecommons.org/ns#" xmlns:dc="http://purl.org/dc/elements/1.1/" xmlns:rdf="http://www.w3.org/1999/02/22-rdf-syntax-ns#">
   <cc:Work>
    <dc:type rdf:resource="http://purl.org/dc/dcmitype/StillImage"/>
    <dc:date>2021-08-01T13:16:10.035909</dc:date>
    <dc:format>image/svg+xml</dc:format>
    <dc:creator>
     <cc:Agent>
      <dc:title>Matplotlib v3.4.2, https://matplotlib.org/</dc:title>
     </cc:Agent>
    </dc:creator>
   </cc:Work>
  </rdf:RDF>
 </metadata>
 <defs>
  <style type="text/css">*{stroke-linecap:butt;stroke-linejoin:round;}</style>
 </defs>
 <g id="figure_1">
  <g id="patch_1">
   <path d="M 0 345.6 
L 460.8 345.6 
L 460.8 0 
L 0 0 
z
" style="fill:#ffffff;"/>
  </g>
  <g id="axes_1">
   <g id="patch_2">
    <path d="M 57.6 307.584 
L 414.72 307.584 
L 414.72 41.472 
L 57.6 41.472 
z
" style="fill:#ffffff;"/>
   </g>
   <g id="matplotlib.axis_1">
    <g id="xtick_1">
     <g id="line2d_1">
      <defs>
       <path d="M 0 0 
L 0 3.5 
" id="m759604fcf8" style="stroke:#000000;stroke-width:0.8;"/>
      </defs>
      <g>
       <use style="stroke:#000000;stroke-width:0.8;" x="73.600665" xlink:href="#m759604fcf8" y="307.584"/>
      </g>
     </g>
     <g id="text_1">
      <!-- 0 -->
      <g transform="translate(70.419415 322.182437)scale(0.1 -0.1)">
       <defs>
        <path d="M 2034 4250 
Q 1547 4250 1301 3770 
Q 1056 3291 1056 2328 
Q 1056 1369 1301 889 
Q 1547 409 2034 409 
Q 2525 409 2770 889 
Q 3016 1369 3016 2328 
Q 3016 3291 2770 3770 
Q 2525 4250 2034 4250 
z
M 2034 4750 
Q 2819 4750 3233 4129 
Q 3647 3509 3647 2328 
Q 3647 1150 3233 529 
Q 2819 -91 2034 -91 
Q 1250 -91 836 529 
Q 422 1150 422 2328 
Q 422 3509 836 4129 
Q 1250 4750 2034 4750 
z
" id="DejaVuSans-30" transform="scale(0.015625)"/>
       </defs>
       <use xlink:href="#DejaVuSans-30"/>
      </g>
     </g>
    </g>
    <g id="xtick_2">
     <g id="line2d_2">
      <g>
       <use style="stroke:#000000;stroke-width:0.8;" x="120.013038" xlink:href="#m759604fcf8" y="307.584"/>
      </g>
     </g>
     <g id="text_2">
      <!-- 200 -->
      <g transform="translate(110.469288 322.182437)scale(0.1 -0.1)">
       <defs>
        <path d="M 1228 531 
L 3431 531 
L 3431 0 
L 469 0 
L 469 531 
Q 828 903 1448 1529 
Q 2069 2156 2228 2338 
Q 2531 2678 2651 2914 
Q 2772 3150 2772 3378 
Q 2772 3750 2511 3984 
Q 2250 4219 1831 4219 
Q 1534 4219 1204 4116 
Q 875 4013 500 3803 
L 500 4441 
Q 881 4594 1212 4672 
Q 1544 4750 1819 4750 
Q 2544 4750 2975 4387 
Q 3406 4025 3406 3419 
Q 3406 3131 3298 2873 
Q 3191 2616 2906 2266 
Q 2828 2175 2409 1742 
Q 1991 1309 1228 531 
z
" id="DejaVuSans-32" transform="scale(0.015625)"/>
       </defs>
       <use xlink:href="#DejaVuSans-32"/>
       <use x="63.623047" xlink:href="#DejaVuSans-30"/>
       <use x="127.246094" xlink:href="#DejaVuSans-30"/>
      </g>
     </g>
    </g>
    <g id="xtick_3">
     <g id="line2d_3">
      <g>
       <use style="stroke:#000000;stroke-width:0.8;" x="166.42541" xlink:href="#m759604fcf8" y="307.584"/>
      </g>
     </g>
     <g id="text_3">
      <!-- 400 -->
      <g transform="translate(156.88166 322.182437)scale(0.1 -0.1)">
       <defs>
        <path d="M 2419 4116 
L 825 1625 
L 2419 1625 
L 2419 4116 
z
M 2253 4666 
L 3047 4666 
L 3047 1625 
L 3713 1625 
L 3713 1100 
L 3047 1100 
L 3047 0 
L 2419 0 
L 2419 1100 
L 313 1100 
L 313 1709 
L 2253 4666 
z
" id="DejaVuSans-34" transform="scale(0.015625)"/>
       </defs>
       <use xlink:href="#DejaVuSans-34"/>
       <use x="63.623047" xlink:href="#DejaVuSans-30"/>
       <use x="127.246094" xlink:href="#DejaVuSans-30"/>
      </g>
     </g>
    </g>
    <g id="xtick_4">
     <g id="line2d_4">
      <g>
       <use style="stroke:#000000;stroke-width:0.8;" x="212.837783" xlink:href="#m759604fcf8" y="307.584"/>
      </g>
     </g>
     <g id="text_4">
      <!-- 600 -->
      <g transform="translate(203.294033 322.182437)scale(0.1 -0.1)">
       <defs>
        <path d="M 2113 2584 
Q 1688 2584 1439 2293 
Q 1191 2003 1191 1497 
Q 1191 994 1439 701 
Q 1688 409 2113 409 
Q 2538 409 2786 701 
Q 3034 994 3034 1497 
Q 3034 2003 2786 2293 
Q 2538 2584 2113 2584 
z
M 3366 4563 
L 3366 3988 
Q 3128 4100 2886 4159 
Q 2644 4219 2406 4219 
Q 1781 4219 1451 3797 
Q 1122 3375 1075 2522 
Q 1259 2794 1537 2939 
Q 1816 3084 2150 3084 
Q 2853 3084 3261 2657 
Q 3669 2231 3669 1497 
Q 3669 778 3244 343 
Q 2819 -91 2113 -91 
Q 1303 -91 875 529 
Q 447 1150 447 2328 
Q 447 3434 972 4092 
Q 1497 4750 2381 4750 
Q 2619 4750 2861 4703 
Q 3103 4656 3366 4563 
z
" id="DejaVuSans-36" transform="scale(0.015625)"/>
       </defs>
       <use xlink:href="#DejaVuSans-36"/>
       <use x="63.623047" xlink:href="#DejaVuSans-30"/>
       <use x="127.246094" xlink:href="#DejaVuSans-30"/>
      </g>
     </g>
    </g>
    <g id="xtick_5">
     <g id="line2d_5">
      <g>
       <use style="stroke:#000000;stroke-width:0.8;" x="259.250155" xlink:href="#m759604fcf8" y="307.584"/>
      </g>
     </g>
     <g id="text_5">
      <!-- 800 -->
      <g transform="translate(249.706405 322.182437)scale(0.1 -0.1)">
       <defs>
        <path d="M 2034 2216 
Q 1584 2216 1326 1975 
Q 1069 1734 1069 1313 
Q 1069 891 1326 650 
Q 1584 409 2034 409 
Q 2484 409 2743 651 
Q 3003 894 3003 1313 
Q 3003 1734 2745 1975 
Q 2488 2216 2034 2216 
z
M 1403 2484 
Q 997 2584 770 2862 
Q 544 3141 544 3541 
Q 544 4100 942 4425 
Q 1341 4750 2034 4750 
Q 2731 4750 3128 4425 
Q 3525 4100 3525 3541 
Q 3525 3141 3298 2862 
Q 3072 2584 2669 2484 
Q 3125 2378 3379 2068 
Q 3634 1759 3634 1313 
Q 3634 634 3220 271 
Q 2806 -91 2034 -91 
Q 1263 -91 848 271 
Q 434 634 434 1313 
Q 434 1759 690 2068 
Q 947 2378 1403 2484 
z
M 1172 3481 
Q 1172 3119 1398 2916 
Q 1625 2713 2034 2713 
Q 2441 2713 2670 2916 
Q 2900 3119 2900 3481 
Q 2900 3844 2670 4047 
Q 2441 4250 2034 4250 
Q 1625 4250 1398 4047 
Q 1172 3844 1172 3481 
z
" id="DejaVuSans-38" transform="scale(0.015625)"/>
       </defs>
       <use xlink:href="#DejaVuSans-38"/>
       <use x="63.623047" xlink:href="#DejaVuSans-30"/>
       <use x="127.246094" xlink:href="#DejaVuSans-30"/>
      </g>
     </g>
    </g>
    <g id="xtick_6">
     <g id="line2d_6">
      <g>
       <use style="stroke:#000000;stroke-width:0.8;" x="305.662528" xlink:href="#m759604fcf8" y="307.584"/>
      </g>
     </g>
     <g id="text_6">
      <!-- 1000 -->
      <g transform="translate(292.937528 322.182437)scale(0.1 -0.1)">
       <defs>
        <path d="M 794 531 
L 1825 531 
L 1825 4091 
L 703 3866 
L 703 4441 
L 1819 4666 
L 2450 4666 
L 2450 531 
L 3481 531 
L 3481 0 
L 794 0 
L 794 531 
z
" id="DejaVuSans-31" transform="scale(0.015625)"/>
       </defs>
       <use xlink:href="#DejaVuSans-31"/>
       <use x="63.623047" xlink:href="#DejaVuSans-30"/>
       <use x="127.246094" xlink:href="#DejaVuSans-30"/>
       <use x="190.869141" xlink:href="#DejaVuSans-30"/>
      </g>
     </g>
    </g>
    <g id="xtick_7">
     <g id="line2d_7">
      <g>
       <use style="stroke:#000000;stroke-width:0.8;" x="352.0749" xlink:href="#m759604fcf8" y="307.584"/>
      </g>
     </g>
     <g id="text_7">
      <!-- 1200 -->
      <g transform="translate(339.3499 322.182437)scale(0.1 -0.1)">
       <use xlink:href="#DejaVuSans-31"/>
       <use x="63.623047" xlink:href="#DejaVuSans-32"/>
       <use x="127.246094" xlink:href="#DejaVuSans-30"/>
       <use x="190.869141" xlink:href="#DejaVuSans-30"/>
      </g>
     </g>
    </g>
    <g id="xtick_8">
     <g id="line2d_8">
      <g>
       <use style="stroke:#000000;stroke-width:0.8;" x="398.487273" xlink:href="#m759604fcf8" y="307.584"/>
      </g>
     </g>
     <g id="text_8">
      <!-- 1400 -->
      <g transform="translate(385.762273 322.182437)scale(0.1 -0.1)">
       <use xlink:href="#DejaVuSans-31"/>
       <use x="63.623047" xlink:href="#DejaVuSans-34"/>
       <use x="127.246094" xlink:href="#DejaVuSans-30"/>
       <use x="190.869141" xlink:href="#DejaVuSans-30"/>
      </g>
     </g>
    </g>
    <g id="text_9">
     <!-- Epoch -->
     <g transform="translate(213.193594 339.659781)scale(0.15 -0.15)">
      <defs>
       <path d="M 628 4666 
L 3578 4666 
L 3578 4134 
L 1259 4134 
L 1259 2753 
L 3481 2753 
L 3481 2222 
L 1259 2222 
L 1259 531 
L 3634 531 
L 3634 0 
L 628 0 
L 628 4666 
z
" id="DejaVuSans-45" transform="scale(0.015625)"/>
       <path d="M 1159 525 
L 1159 -1331 
L 581 -1331 
L 581 3500 
L 1159 3500 
L 1159 2969 
Q 1341 3281 1617 3432 
Q 1894 3584 2278 3584 
Q 2916 3584 3314 3078 
Q 3713 2572 3713 1747 
Q 3713 922 3314 415 
Q 2916 -91 2278 -91 
Q 1894 -91 1617 61 
Q 1341 213 1159 525 
z
M 3116 1747 
Q 3116 2381 2855 2742 
Q 2594 3103 2138 3103 
Q 1681 3103 1420 2742 
Q 1159 2381 1159 1747 
Q 1159 1113 1420 752 
Q 1681 391 2138 391 
Q 2594 391 2855 752 
Q 3116 1113 3116 1747 
z
" id="DejaVuSans-70" transform="scale(0.015625)"/>
       <path d="M 1959 3097 
Q 1497 3097 1228 2736 
Q 959 2375 959 1747 
Q 959 1119 1226 758 
Q 1494 397 1959 397 
Q 2419 397 2687 759 
Q 2956 1122 2956 1747 
Q 2956 2369 2687 2733 
Q 2419 3097 1959 3097 
z
M 1959 3584 
Q 2709 3584 3137 3096 
Q 3566 2609 3566 1747 
Q 3566 888 3137 398 
Q 2709 -91 1959 -91 
Q 1206 -91 779 398 
Q 353 888 353 1747 
Q 353 2609 779 3096 
Q 1206 3584 1959 3584 
z
" id="DejaVuSans-6f" transform="scale(0.015625)"/>
       <path d="M 3122 3366 
L 3122 2828 
Q 2878 2963 2633 3030 
Q 2388 3097 2138 3097 
Q 1578 3097 1268 2742 
Q 959 2388 959 1747 
Q 959 1106 1268 751 
Q 1578 397 2138 397 
Q 2388 397 2633 464 
Q 2878 531 3122 666 
L 3122 134 
Q 2881 22 2623 -34 
Q 2366 -91 2075 -91 
Q 1284 -91 818 406 
Q 353 903 353 1747 
Q 353 2603 823 3093 
Q 1294 3584 2113 3584 
Q 2378 3584 2631 3529 
Q 2884 3475 3122 3366 
z
" id="DejaVuSans-63" transform="scale(0.015625)"/>
       <path d="M 3513 2113 
L 3513 0 
L 2938 0 
L 2938 2094 
Q 2938 2591 2744 2837 
Q 2550 3084 2163 3084 
Q 1697 3084 1428 2787 
Q 1159 2491 1159 1978 
L 1159 0 
L 581 0 
L 581 4863 
L 1159 4863 
L 1159 2956 
Q 1366 3272 1645 3428 
Q 1925 3584 2291 3584 
Q 2894 3584 3203 3211 
Q 3513 2838 3513 2113 
z
" id="DejaVuSans-68" transform="scale(0.015625)"/>
      </defs>
      <use xlink:href="#DejaVuSans-45"/>
      <use x="63.183594" xlink:href="#DejaVuSans-70"/>
      <use x="126.660156" xlink:href="#DejaVuSans-6f"/>
      <use x="187.841797" xlink:href="#DejaVuSans-63"/>
      <use x="242.822266" xlink:href="#DejaVuSans-68"/>
     </g>
    </g>
   </g>
   <g id="matplotlib.axis_2">
    <g id="ytick_1">
     <g id="line2d_9">
      <defs>
       <path d="M 0 0 
L -3.5 0 
" id="mf6111415bf" style="stroke:#000000;stroke-width:0.8;"/>
      </defs>
      <g>
       <use style="stroke:#000000;stroke-width:0.8;" x="57.6" xlink:href="#mf6111415bf" y="264.678864"/>
      </g>
     </g>
     <g id="text_10">
      <!-- −1000 -->
      <g transform="translate(16.770313 268.478083)scale(0.1 -0.1)">
       <defs>
        <path d="M 678 2272 
L 4684 2272 
L 4684 1741 
L 678 1741 
L 678 2272 
z
" id="DejaVuSans-2212" transform="scale(0.015625)"/>
       </defs>
       <use xlink:href="#DejaVuSans-2212"/>
       <use x="83.789062" xlink:href="#DejaVuSans-31"/>
       <use x="147.412109" xlink:href="#DejaVuSans-30"/>
       <use x="211.035156" xlink:href="#DejaVuSans-30"/>
       <use x="274.658203" xlink:href="#DejaVuSans-30"/>
      </g>
     </g>
    </g>
    <g id="ytick_2">
     <g id="line2d_10">
      <g>
       <use style="stroke:#000000;stroke-width:0.8;" x="57.6" xlink:href="#mf6111415bf" y="218.359128"/>
      </g>
     </g>
     <g id="text_11">
      <!-- −800 -->
      <g transform="translate(23.132812 222.158346)scale(0.1 -0.1)">
       <use xlink:href="#DejaVuSans-2212"/>
       <use x="83.789062" xlink:href="#DejaVuSans-38"/>
       <use x="147.412109" xlink:href="#DejaVuSans-30"/>
       <use x="211.035156" xlink:href="#DejaVuSans-30"/>
      </g>
     </g>
    </g>
    <g id="ytick_3">
     <g id="line2d_11">
      <g>
       <use style="stroke:#000000;stroke-width:0.8;" x="57.6" xlink:href="#mf6111415bf" y="172.039391"/>
      </g>
     </g>
     <g id="text_12">
      <!-- −600 -->
      <g transform="translate(23.132812 175.83861)scale(0.1 -0.1)">
       <use xlink:href="#DejaVuSans-2212"/>
       <use x="83.789062" xlink:href="#DejaVuSans-36"/>
       <use x="147.412109" xlink:href="#DejaVuSans-30"/>
       <use x="211.035156" xlink:href="#DejaVuSans-30"/>
      </g>
     </g>
    </g>
    <g id="ytick_4">
     <g id="line2d_12">
      <g>
       <use style="stroke:#000000;stroke-width:0.8;" x="57.6" xlink:href="#mf6111415bf" y="125.719654"/>
      </g>
     </g>
     <g id="text_13">
      <!-- −400 -->
      <g transform="translate(23.132812 129.518873)scale(0.1 -0.1)">
       <use xlink:href="#DejaVuSans-2212"/>
       <use x="83.789062" xlink:href="#DejaVuSans-34"/>
       <use x="147.412109" xlink:href="#DejaVuSans-30"/>
       <use x="211.035156" xlink:href="#DejaVuSans-30"/>
      </g>
     </g>
    </g>
    <g id="ytick_5">
     <g id="line2d_13">
      <g>
       <use style="stroke:#000000;stroke-width:0.8;" x="57.6" xlink:href="#mf6111415bf" y="79.399918"/>
      </g>
     </g>
     <g id="text_14">
      <!-- −200 -->
      <g transform="translate(23.132812 83.199137)scale(0.1 -0.1)">
       <use xlink:href="#DejaVuSans-2212"/>
       <use x="83.789062" xlink:href="#DejaVuSans-32"/>
       <use x="147.412109" xlink:href="#DejaVuSans-30"/>
       <use x="211.035156" xlink:href="#DejaVuSans-30"/>
      </g>
     </g>
    </g>
   </g>
   <g id="line2d_14">
    <path clip-path="url(#p285570757a)" d="M 73.832727 53.568 
L 74.296851 123.446201 
L 74.528913 121.263453 
L 74.760975 131.809374 
L 74.993037 133.017248 
L 75.225098 151.067482 
L 75.45716 158.931912 
L 75.689222 156.86739 
L 75.921284 168.632045 
L 76.153346 165.600556 
L 76.385408 169.0256 
L 76.61747 176.838569 
L 76.849531 168.533903 
L 77.081593 183.082732 
L 77.313655 181.383223 
L 77.545717 188.441367 
L 77.777779 187.452367 
L 78.009841 183.071394 
L 78.241903 185.565231 
L 78.473965 185.211092 
L 78.706026 182.054972 
L 78.938088 190.452826 
L 79.17015 187.587337 
L 79.402212 194.374397 
L 79.634274 194.841632 
L 79.866336 194.812883 
L 80.098398 201.546031 
L 80.330459 201.15116 
L 80.562521 203.495451 
L 80.794583 200.352559 
L 81.258707 204.344973 
L 81.490769 204.060788 
L 81.722831 209.191379 
L 81.954892 208.708568 
L 82.186954 200.330257 
L 82.419016 201.066163 
L 82.651078 202.988134 
L 82.88314 217.850883 
L 83.115202 211.39181 
L 83.347264 210.942514 
L 83.579325 216.865345 
L 83.811387 209.274023 
L 84.043449 206.729669 
L 84.275511 220.512297 
L 84.507573 209.772277 
L 84.739635 210.460932 
L 84.971697 225.251028 
L 85.203759 214.387285 
L 85.43582 218.898709 
L 85.899944 203.368396 
L 86.132006 216.907899 
L 86.364068 217.352036 
L 86.59613 225.265436 
L 86.828192 227.261626 
L 87.060253 225.741002 
L 87.292315 227.66356 
L 87.524377 221.507762 
L 87.756439 224.240941 
L 87.988501 221.185848 
L 88.220563 229.020425 
L 88.452625 223.877582 
L 88.684686 225.041935 
L 88.916748 234.883244 
L 89.380872 221.725017 
L 89.612934 223.565785 
L 89.844996 230.903056 
L 90.077058 230.254406 
L 90.30912 220.112216 
L 90.773243 231.979458 
L 91.005305 222.857214 
L 91.469429 227.982224 
L 91.701491 227.793802 
L 91.933553 220.214279 
L 92.165614 239.132701 
L 92.397676 227.662373 
L 92.629738 228.721514 
L 92.8618 223.124674 
L 93.325924 236.312283 
L 93.557986 221.298373 
L 93.790047 237.543546 
L 94.022109 228.443598 
L 94.254171 228.980823 
L 94.486233 225.88194 
L 94.950357 233.328579 
L 95.182419 232.062491 
L 95.41448 220.294514 
L 95.878604 239.790656 
L 96.110666 240.941848 
L 96.342728 231.806032 
L 96.57479 228.500693 
L 96.806852 233.872507 
L 97.038914 242.836605 
L 97.270975 237.104546 
L 97.503037 235.47628 
L 97.735099 239.199528 
L 98.199223 236.731528 
L 98.663347 247.668122 
L 98.895408 236.455362 
L 99.12747 246.523555 
L 99.359532 242.965923 
L 99.591594 229.993263 
L 99.823656 235.535378 
L 100.055718 246.918151 
L 100.28778 229.246236 
L 100.751903 251.013814 
L 100.983965 245.00468 
L 101.216027 242.017444 
L 101.448089 232.417603 
L 101.680151 245.945854 
L 101.912213 228.112749 
L 102.144274 252.93044 
L 102.376336 239.594471 
L 102.608398 240.688668 
L 103.072522 244.175934 
L 103.304584 238.414532 
L 103.536646 243.068235 
L 103.768708 243.509664 
L 104.000769 241.074788 
L 104.232831 240.762808 
L 104.464893 232.625575 
L 104.929017 245.965078 
L 105.161079 229.88139 
L 105.625202 244.377253 
L 105.857264 237.230288 
L 106.089326 239.151094 
L 106.321388 235.962861 
L 106.55345 237.059258 
L 107.017574 240.837089 
L 107.249635 232.731785 
L 107.481697 233.779021 
L 107.713759 246.923556 
L 108.177883 235.349979 
L 108.409945 240.087218 
L 108.642007 229.859718 
L 108.874068 244.46943 
L 109.10613 245.47676 
L 109.338192 234.219363 
L 109.802316 243.130971 
L 110.26644 237.201356 
L 110.498502 241.604391 
L 110.730563 249.110682 
L 110.962625 247.925644 
L 111.194687 249.825057 
L 111.426749 244.03892 
L 111.658811 242.57002 
L 111.890873 248.076185 
L 112.122935 250.784191 
L 112.354996 236.627025 
L 112.587058 244.104663 
L 112.81912 247.842726 
L 113.051182 232.606376 
L 113.283244 238.455697 
L 113.515306 236.27391 
L 113.747368 247.199942 
L 113.979429 241.02406 
L 114.211491 238.398624 
L 114.443553 247.13154 
L 114.675615 242.014512 
L 114.907677 242.934625 
L 115.139739 247.326283 
L 115.371801 247.153924 
L 115.603862 239.700923 
L 115.835924 252.312908 
L 116.067986 254.886228 
L 116.300048 252.155505 
L 116.53211 239.423713 
L 116.764172 244.596254 
L 116.996234 262.799276 
L 117.228296 247.476588 
L 117.460357 254.777001 
L 117.692419 252.65833 
L 117.924481 255.875334 
L 118.156543 249.281979 
L 118.388605 238.308408 
L 118.620667 251.220043 
L 118.852729 247.098557 
L 119.08479 259.102521 
L 119.316852 250.856465 
L 119.548914 255.832762 
L 119.780976 251.610915 
L 120.013038 251.668806 
L 120.2451 250.228397 
L 120.477162 247.873259 
L 120.709223 248.057528 
L 120.941285 245.949329 
L 121.173347 248.485247 
L 121.405409 245.748006 
L 121.637471 256.822026 
L 121.869533 242.953759 
L 122.333657 262.049453 
L 122.565718 245.176736 
L 122.79778 253.064693 
L 123.029842 254.219352 
L 123.261904 250.107996 
L 123.493966 258.233515 
L 123.726028 244.833368 
L 124.190151 257.245908 
L 124.422213 245.411656 
L 124.654275 243.427436 
L 124.886337 254.892556 
L 125.118399 248.279265 
L 125.350461 254.53131 
L 125.814584 257.773415 
L 126.046646 251.260117 
L 126.278708 256.624725 
L 126.51077 250.744628 
L 126.742832 249.00262 
L 126.974894 258.043723 
L 127.206956 251.006835 
L 127.439017 265.718849 
L 127.903141 255.911326 
L 128.135203 263.405035 
L 128.599327 249.420284 
L 128.831389 261.963678 
L 129.295512 249.146006 
L 129.527574 261.926073 
L 129.759636 251.331628 
L 129.991698 268.886477 
L 130.22376 249.319234 
L 130.687884 259.080106 
L 130.919945 250.411363 
L 131.152007 264.741833 
L 131.384069 260.998757 
L 131.616131 263.806458 
L 131.848193 259.285998 
L 132.080255 258.979626 
L 132.312317 261.399023 
L 132.544378 247.690686 
L 132.77644 264.190477 
L 133.008502 253.358683 
L 133.240564 251.530987 
L 133.472626 265.749638 
L 133.704688 256.10849 
L 133.93675 266.204243 
L 134.168811 254.496652 
L 134.400873 261.05214 
L 134.632935 262.205209 
L 134.864997 258.440073 
L 135.097059 266.504475 
L 135.329121 261.069717 
L 135.561183 271.059755 
L 135.793245 251.672105 
L 136.025306 260.405291 
L 136.257368 246.644145 
L 136.953554 266.27418 
L 137.185616 263.754489 
L 137.417678 251.671211 
L 137.649739 249.295767 
L 137.881801 264.24244 
L 138.113863 261.00949 
L 138.577987 264.460369 
L 138.810049 261.746956 
L 139.042111 261.769698 
L 139.274172 267.737069 
L 139.738296 256.285229 
L 139.970358 253.565014 
L 140.20242 269.090738 
L 140.434482 257.205434 
L 140.666544 251.660161 
L 140.898605 259.276393 
L 141.130667 257.255714 
L 141.362729 259.176481 
L 141.594791 270.19438 
L 141.826853 264.440075 
L 142.058915 243.111486 
L 142.290977 256.805972 
L 142.7551 266.544925 
L 142.987162 256.619911 
L 143.219224 240.044774 
L 143.451286 272.378323 
L 143.683348 257.17815 
L 143.91541 266.971919 
L 144.147472 260.429596 
L 144.379533 267.748821 
L 144.611595 256.352127 
L 144.843657 273.848117 
L 145.075719 256.870456 
L 145.307781 253.7475 
L 145.539843 244.586735 
L 145.771905 261.790775 
L 146.003966 248.287765 
L 146.236028 258.765221 
L 146.46809 254.214306 
L 146.932214 263.10263 
L 147.164276 260.259576 
L 147.396338 266.263115 
L 147.6284 269.082622 
L 147.860461 254.544577 
L 148.092523 261.856923 
L 148.324585 264.933525 
L 148.556647 256.405544 
L 148.788709 254.930863 
L 149.020771 255.088485 
L 149.252833 253.899467 
L 149.484894 257.642016 
L 149.949018 269.260268 
L 150.18108 270.081958 
L 150.413142 259.366503 
L 150.645204 275.154189 
L 150.877266 251.827441 
L 151.109327 260.802183 
L 151.341389 262.804703 
L 151.573451 260.002654 
L 152.037575 270.518251 
L 152.269637 265.534876 
L 152.501699 275.259664 
L 152.73376 258.54807 
L 152.965822 269.009193 
L 153.197884 254.728831 
L 153.429946 275.163345 
L 153.662008 253.85699 
L 154.126132 270.560635 
L 154.358194 263.608567 
L 154.590255 277.876064 
L 154.822317 264.838255 
L 155.054379 259.112271 
L 155.286441 262.241775 
L 155.518503 263.295175 
L 155.750565 261.326945 
L 155.982627 269.472926 
L 156.214688 263.836751 
L 156.44675 266.761177 
L 156.678812 262.246631 
L 156.910874 271.236533 
L 157.142936 265.882732 
L 157.374998 269.240495 
L 157.60706 256.625722 
L 157.839121 273.118754 
L 158.303245 254.447325 
L 158.535307 265.490112 
L 158.999431 258.858772 
L 159.231493 269.609955 
L 159.463554 268.317702 
L 159.695616 272.440472 
L 160.15974 263.69735 
L 160.623864 249.673975 
L 160.855926 264.923479 
L 161.087988 263.011215 
L 161.320049 250.57129 
L 161.784173 268.090523 
L 162.016235 270.180374 
L 162.248297 274.399051 
L 162.480359 258.690765 
L 162.712421 265.318833 
L 162.944482 258.129479 
L 163.176544 264.739801 
L 163.408606 257.094512 
L 163.640668 265.992433 
L 163.87273 267.876428 
L 164.104792 262.951501 
L 164.568915 270.248371 
L 164.800977 265.32166 
L 165.033039 270.976119 
L 165.265101 269.199242 
L 165.497163 270.750978 
L 165.729225 265.440976 
L 165.961287 270.019879 
L 166.193348 263.169432 
L 166.42541 262.394248 
L 166.657472 263.084691 
L 166.889534 276.447212 
L 167.121596 260.551197 
L 167.353658 268.42926 
L 167.58572 266.113762 
L 167.817782 265.644969 
L 168.281905 267.079568 
L 168.513967 258.531037 
L 168.746029 265.617623 
L 168.978091 261.71698 
L 169.210153 266.415627 
L 169.442215 262.185389 
L 169.674276 242.23864 
L 170.370462 260.673471 
L 170.602524 273.861921 
L 170.834586 262.27636 
L 171.066648 262.997276 
L 171.298709 273.967855 
L 171.762833 258.819141 
L 171.994895 274.051804 
L 172.459019 255.708752 
L 172.691081 256.80531 
L 173.155204 271.927128 
L 173.387266 270.949388 
L 173.619328 260.15127 
L 173.85139 256.538504 
L 174.083452 260.985472 
L 174.315514 268.938962 
L 174.547576 266.983715 
L 174.779637 266.039822 
L 175.011699 270.01036 
L 175.475823 261.702406 
L 175.707885 261.757234 
L 176.172009 271.045513 
L 176.40407 271.744372 
L 176.636132 269.226689 
L 176.868194 273.507202 
L 177.332318 268.289585 
L 177.796442 263.85617 
L 178.028503 257.873321 
L 178.260565 260.879691 
L 178.492627 279.264548 
L 178.724689 277.719447 
L 178.956751 259.87048 
L 179.188813 266.743511 
L 179.420875 260.528852 
L 179.652937 268.903041 
L 179.884998 272.834485 
L 180.11706 265.591121 
L 180.349122 262.324532 
L 180.581184 267.049904 
L 180.813246 264.931206 
L 181.045308 265.791194 
L 181.509431 257.842733 
L 181.973555 277.612676 
L 182.205617 266.098606 
L 182.437679 276.527036 
L 182.669741 274.713173 
L 182.901803 260.353275 
L 183.133864 271.98289 
L 183.365926 266.198762 
L 183.597988 275.698773 
L 183.83005 259.420197 
L 184.062112 262.282581 
L 184.294174 272.283885 
L 184.526236 271.16712 
L 184.758297 260.700956 
L 184.990359 271.311782 
L 185.222421 270.138343 
L 185.454483 266.678646 
L 185.686545 258.507956 
L 185.918607 268.078714 
L 186.382731 257.251421 
L 186.614792 267.985784 
L 186.846854 268.281276 
L 187.078916 272.342001 
L 187.310978 269.587234 
L 187.54304 272.30319 
L 187.775102 269.517186 
L 188.007164 244.104564 
L 188.239225 266.334546 
L 188.471287 273.202987 
L 188.703349 276.284812 
L 188.935411 274.76451 
L 189.167473 277.152101 
L 189.399535 275.753814 
L 189.631597 265.494295 
L 189.863658 264.939321 
L 190.09572 265.122749 
L 190.327782 261.538704 
L 190.559844 267.864781 
L 190.791906 263.489459 
L 191.023968 265.703951 
L 191.25603 272.29556 
L 191.488091 283.35023 
L 191.720153 260.427485 
L 192.184277 267.559473 
L 192.416339 267.156322 
L 192.648401 277.030066 
L 192.880463 273.030783 
L 193.112525 274.515081 
L 193.344586 284.602287 
L 193.576648 267.067628 
L 193.80871 274.128562 
L 194.040772 274.425888 
L 194.272834 263.011424 
L 194.504896 258.969344 
L 194.736958 265.608749 
L 194.969019 277.848448 
L 195.201081 259.760408 
L 195.433143 266.236393 
L 195.665205 264.276551 
L 195.897267 268.028523 
L 196.129329 264.789481 
L 196.361391 269.141605 
L 196.593452 269.846396 
L 196.825514 270.179367 
L 197.057576 268.666215 
L 197.289638 271.920168 
L 197.5217 277.220955 
L 197.985824 261.437076 
L 198.217886 257.214038 
L 198.449947 257.705249 
L 198.682009 261.410053 
L 198.914071 270.759143 
L 199.146133 261.370148 
L 199.378195 279.008365 
L 200.07438 263.754047 
L 200.306442 284.596139 
L 200.538504 260.9973 
L 200.770566 269.589355 
L 201.002628 264.605789 
L 201.23469 278.338098 
L 201.466752 262.520334 
L 201.698813 255.974951 
L 201.930875 270.98269 
L 202.162937 252.504877 
L 202.394999 269.949901 
L 202.627061 260.143171 
L 202.859123 266.905232 
L 203.091185 257.76213 
L 203.323246 271.335018 
L 203.555308 264.848418 
L 203.78737 273.54859 
L 204.019432 266.672782 
L 204.483556 261.841555 
L 204.715618 272.37423 
L 204.94768 267.812563 
L 205.179741 273.066188 
L 205.411803 263.167872 
L 205.643865 269.301957 
L 205.875927 256.614507 
L 206.107989 260.366609 
L 206.572113 271.275869 
L 206.804174 263.479694 
L 207.036236 272.217951 
L 207.268298 263.314492 
L 207.50036 266.530525 
L 207.732422 276.361882 
L 207.964484 259.137176 
L 208.196546 279.261476 
L 208.428607 268.380449 
L 208.660669 264.595102 
L 208.892731 262.80522 
L 209.124793 259.100118 
L 210.05304 275.518774 
L 210.285102 263.990096 
L 210.517164 264.105176 
L 210.749226 263.704286 
L 210.981288 276.519301 
L 211.21335 273.670829 
L 211.445412 278.623378 
L 211.677474 275.47786 
L 212.141597 264.005838 
L 212.373659 264.95857 
L 213.069845 270.496313 
L 213.533968 264.410527 
L 213.76603 277.526437 
L 214.230154 270.854698 
L 214.462216 262.931372 
L 214.694278 278.640226 
L 214.92634 260.300296 
L 215.158401 273.202683 
L 215.390463 271.940796 
L 215.622525 213.526163 
L 215.854587 258.145979 
L 216.086649 260.839631 
L 216.318711 271.944759 
L 216.550773 275.760336 
L 216.782834 272.01988 
L 217.014896 271.562409 
L 217.246958 263.918282 
L 217.47902 277.544524 
L 217.711082 264.710529 
L 217.943144 269.447208 
L 218.175206 267.423266 
L 218.407268 267.23918 
L 218.639329 264.979375 
L 218.871391 264.774765 
L 219.103453 272.240401 
L 219.335515 265.943307 
L 219.567577 267.935153 
L 220.031701 261.635488 
L 220.263762 266.834536 
L 220.495824 267.821627 
L 220.959948 276.225967 
L 221.656134 258.883472 
L 221.888195 265.444694 
L 222.120257 281.809804 
L 222.352319 260.906799 
L 222.816443 273.933894 
L 223.048505 272.127636 
L 223.280567 257.280876 
L 223.74469 279.358691 
L 223.976752 270.09867 
L 224.208814 274.173935 
L 224.672938 262.532213 
L 224.905 277.369735 
L 225.369123 265.38595 
L 225.833247 280.042279 
L 226.065309 262.777463 
L 226.297371 263.029898 
L 226.529433 265.465221 
L 226.761495 266.684359 
L 226.993556 266.608397 
L 227.225618 271.064879 
L 227.45768 267.526912 
L 227.689742 270.8881 
L 227.921804 266.136639 
L 228.385928 269.125927 
L 228.617989 275.179659 
L 228.850051 269.813016 
L 229.082113 276.074767 
L 229.314175 271.366699 
L 229.546237 270.414218 
L 229.778299 262.922861 
L 230.010361 263.583222 
L 230.242423 261.185431 
L 230.474484 266.164555 
L 230.706546 274.23455 
L 230.938608 261.081447 
L 231.17067 271.586701 
L 231.402732 269.04201 
L 231.634794 263.973826 
L 231.866856 268.469014 
L 232.098917 264.997036 
L 232.330979 265.327515 
L 232.563041 271.670284 
L 232.795103 268.49074 
L 233.027165 260.19661 
L 233.259227 272.025153 
L 233.491289 276.385831 
L 233.72335 269.375462 
L 233.955412 270.224461 
L 234.187474 274.86177 
L 234.419536 261.622945 
L 234.651598 282.555048 
L 234.88366 264.777321 
L 235.115722 258.390972 
L 235.347783 274.683498 
L 235.579845 276.44046 
L 235.811907 245.681699 
L 236.276031 280.031472 
L 236.508093 260.115407 
L 236.740155 281.363007 
L 236.972217 262.596711 
L 237.204278 275.544469 
L 237.43634 268.451703 
L 237.668402 269.883169 
L 237.900464 273.742527 
L 238.132526 257.791745 
L 238.364588 271.918331 
L 238.59665 271.188272 
L 238.828711 272.55158 
L 239.060773 278.134653 
L 239.292835 267.685153 
L 239.524897 272.702768 
L 239.756959 269.174063 
L 239.989021 281.371056 
L 240.221083 268.985149 
L 240.453144 277.894716 
L 240.685206 267.635188 
L 240.917268 287.961968 
L 241.14933 283.599168 
L 241.381392 266.458934 
L 241.613454 284.67583 
L 241.845516 272.907332 
L 242.077577 267.341007 
L 242.309639 272.397876 
L 242.773763 276.104475 
L 243.005825 272.321055 
L 243.237887 279.562829 
L 243.469949 273.255831 
L 243.702011 261.126059 
L 243.934072 272.248981 
L 244.166134 269.866994 
L 244.398196 259.493932 
L 244.630258 261.416132 
L 244.86232 265.505525 
L 245.094382 280.852048 
L 245.326444 282.755545 
L 246.022629 268.938634 
L 246.254691 274.274614 
L 246.486753 275.896474 
L 246.718815 267.896046 
L 246.950877 269.053308 
L 247.182938 264.31866 
L 247.647062 271.952816 
L 247.879124 273.919096 
L 248.111186 269.203658 
L 248.343248 269.747479 
L 248.57531 265.115389 
L 248.807371 266.483916 
L 249.039433 271.44099 
L 249.271495 278.86 
L 249.735619 265.73848 
L 249.967681 277.666167 
L 250.199743 270.977891 
L 250.663866 275.602834 
L 250.895928 270.816864 
L 251.12799 255.50785 
L 251.592114 270.97875 
L 251.824176 273.339585 
L 252.056238 267.877061 
L 252.288299 284.947399 
L 252.520361 259.671238 
L 252.752423 273.82423 
L 252.984485 273.858686 
L 253.216547 275.965548 
L 253.448609 262.590964 
L 253.912732 269.911897 
L 254.144794 272.899522 
L 254.376856 260.603748 
L 254.608918 275.57931 
L 254.84098 273.916596 
L 255.073042 278.116743 
L 255.305104 271.118744 
L 255.537166 283.054459 
L 255.769227 275.470919 
L 256.001289 272.990928 
L 256.233351 278.394103 
L 256.465413 266.419172 
L 256.697475 278.918248 
L 256.929537 276.988356 
L 257.161599 280.2783 
L 257.39366 266.079856 
L 257.625722 273.185289 
L 257.857784 283.721251 
L 258.089846 273.45468 
L 258.321908 273.290116 
L 258.55397 268.163622 
L 258.786032 248.2162 
L 259.018093 269.784682 
L 259.250155 253.594064 
L 259.714279 279.793796 
L 259.946341 267.051473 
L 260.178403 275.171519 
L 260.410465 273.058957 
L 260.642526 273.547967 
L 260.874588 273.124705 
L 261.10665 266.220818 
L 261.338712 277.20701 
L 261.570774 282.651911 
L 261.802836 270.401811 
L 262.034898 269.906881 
L 262.26696 264.688259 
L 262.499021 282.821924 
L 262.731083 259.98323 
L 262.963145 258.486251 
L 263.195207 268.768593 
L 263.427269 273.363994 
L 263.659331 273.601609 
L 263.891393 262.456989 
L 264.355516 274.365851 
L 264.81964 263.924861 
L 265.051702 285.464345 
L 265.283764 267.09353 
L 265.515826 281.073184 
L 265.747887 260.5372 
L 265.979949 278.829952 
L 266.212011 269.683564 
L 266.444073 265.58839 
L 266.676135 276.171691 
L 266.908197 258.488288 
L 267.140259 276.528446 
L 267.37232 267.954741 
L 267.604382 265.916129 
L 267.836444 271.571359 
L 268.068506 266.981112 
L 268.300568 259.66894 
L 268.53263 276.171852 
L 268.764692 261.127284 
L 268.996754 279.22093 
L 269.228815 264.060982 
L 269.460877 263.41417 
L 269.692939 274.351073 
L 269.925001 272.238913 
L 270.157063 271.574681 
L 270.389125 277.180653 
L 270.621187 273.519735 
L 270.853248 274.690248 
L 271.317372 267.738616 
L 271.549434 269.03218 
L 271.781496 263.617838 
L 272.013558 277.960215 
L 272.24562 278.938834 
L 272.477681 273.517776 
L 272.709743 280.164464 
L 272.941805 263.471183 
L 273.405929 271.332972 
L 273.637991 274.496155 
L 273.870053 274.775587 
L 274.102114 277.803447 
L 274.334176 273.561874 
L 274.566238 276.896091 
L 274.7983 266.800698 
L 275.030362 273.196653 
L 275.262424 273.347622 
L 275.494486 267.25823 
L 275.726548 276.737555 
L 275.958609 270.231627 
L 276.190671 268.817012 
L 276.422733 271.118342 
L 276.654795 268.336377 
L 276.886857 261.550974 
L 277.118919 266.782916 
L 277.350981 268.75619 
L 277.583042 279.83951 
L 278.047166 267.357309 
L 278.51129 286.367791 
L 278.975414 261.666126 
L 279.207475 265.910031 
L 279.439537 274.857657 
L 279.671599 268.904612 
L 279.903661 275.457214 
L 280.135723 275.030331 
L 280.367785 278.113641 
L 280.599847 285.944112 
L 280.831909 263.40926 
L 281.06397 263.354156 
L 281.296032 271.917287 
L 281.528094 268.382847 
L 281.760156 266.726153 
L 281.992218 280.102245 
L 282.456342 267.194901 
L 282.688403 266.95603 
L 282.920465 281.626548 
L 283.384589 272.540377 
L 283.616651 277.083905 
L 283.848713 259.947329 
L 284.080775 269.64997 
L 284.312836 271.301095 
L 284.544898 271.358337 
L 284.77696 267.074862 
L 285.009022 265.194426 
L 285.241084 267.575482 
L 285.705208 281.154437 
L 285.937269 274.599949 
L 286.169331 273.167467 
L 286.401393 259.145098 
L 286.633455 281.713007 
L 286.865517 270.019785 
L 287.097579 279.519165 
L 287.561703 274.111876 
L 287.793764 274.488075 
L 288.025826 267.55853 
L 288.257888 266.265186 
L 288.48995 270.469656 
L 288.722012 271.805305 
L 288.954074 260.561666 
L 289.418197 279.754593 
L 289.650259 270.792351 
L 289.882321 273.18864 
L 290.114383 262.499551 
L 290.346445 271.919655 
L 290.578507 274.072318 
L 290.810569 269.341084 
L 291.04263 272.749776 
L 291.274692 270.932187 
L 291.738816 276.713303 
L 291.970878 288.566227 
L 292.20294 275.809912 
L 292.435002 280.134711 
L 292.667063 295.488 
L 292.899125 274.376131 
L 293.131187 268.475919 
L 293.363249 272.826062 
L 293.595311 267.740413 
L 294.059435 271.324914 
L 294.291497 287.903776 
L 294.75562 271.55702 
L 294.987682 271.692781 
L 295.219744 285.026736 
L 295.451806 281.294963 
L 295.683868 269.07494 
L 295.91593 270.795037 
L 296.147991 274.73515 
L 296.380053 285.470263 
L 296.612115 268.461668 
L 296.844177 267.126072 
L 297.076239 272.583365 
L 297.308301 273.014007 
L 297.540363 275.417585 
L 297.772424 269.996347 
L 298.004486 278.425458 
L 298.236548 275.911652 
L 298.46861 266.504111 
L 298.700672 277.705205 
L 298.932734 262.364834 
L 299.164796 278.089054 
L 299.396857 272.716431 
L 299.628919 283.820894 
L 299.860981 272.728244 
L 300.093043 274.726027 
L 300.325105 270.273771 
L 300.557167 278.445543 
L 300.789229 272.934786 
L 301.021291 284.013834 
L 301.253352 276.374704 
L 301.485414 259.966739 
L 301.717476 273.679489 
L 301.949538 273.76059 
L 302.1816 270.541992 
L 302.413662 272.985065 
L 302.645724 271.853474 
L 302.877785 264.000306 
L 303.109847 278.67059 
L 303.341909 281.019309 
L 303.806033 265.708408 
L 304.038095 271.536295 
L 304.270157 272.359608 
L 304.502218 272.248558 
L 304.966342 283.112129 
L 305.198404 264.213528 
L 305.430466 273.637721 
L 305.662528 261.847166 
L 305.89459 269.42797 
L 306.126652 272.526487 
L 306.358713 255.767993 
L 306.590775 255.924189 
L 306.822837 255.478089 
L 307.054899 253.269157 
L 307.286961 266.227507 
L 307.519023 260.9857 
L 307.751085 272.358294 
L 307.983146 262.521929 
L 308.44727 278.788054 
L 308.911394 262.729228 
L 309.143456 263.474315 
L 309.607579 280.860646 
L 309.839641 267.230077 
L 310.071703 261.437583 
L 310.303765 264.649844 
L 310.535827 263.026738 
L 310.767889 264.643386 
L 310.999951 269.288241 
L 311.232012 279.366923 
L 311.464074 264.201822 
L 311.696136 270.377405 
L 311.928198 262.0557 
L 312.16026 273.702405 
L 312.392322 271.507953 
L 312.624384 283.621597 
L 312.856446 273.599998 
L 313.088507 269.298587 
L 313.320569 269.139371 
L 313.552631 281.501394 
L 313.784693 273.821851 
L 314.016755 278.04024 
L 314.248817 265.164024 
L 314.480879 281.198923 
L 314.71294 269.795924 
L 314.945002 266.363213 
L 315.177064 274.387927 
L 315.409126 267.279463 
L 315.641188 283.340163 
L 315.87325 254.516231 
L 316.105312 268.44596 
L 316.337373 271.720369 
L 316.569435 264.712402 
L 316.801497 269.974635 
L 317.033559 282.695173 
L 317.265621 267.783127 
L 317.497683 270.308399 
L 317.729745 268.920187 
L 317.961806 276.114297 
L 318.193868 260.369348 
L 318.42593 269.916083 
L 318.657992 273.419508 
L 318.890054 280.451997 
L 319.122116 272.944437 
L 319.354178 273.084121 
L 319.58624 271.398067 
L 319.818301 275.905701 
L 320.050363 270.625932 
L 320.282425 271.524727 
L 320.514487 260.149498 
L 320.746549 274.01244 
L 320.978611 277.253136 
L 321.210673 260.759888 
L 321.442734 266.136863 
L 321.674796 286.081282 
L 321.906858 275.424464 
L 322.13892 271.287677 
L 322.370982 273.745493 
L 322.603044 286.112256 
L 322.835106 270.298073 
L 323.067167 240.921019 
L 323.299229 265.407147 
L 323.531291 266.077961 
L 323.763353 269.493022 
L 323.995415 267.054641 
L 324.227477 268.411491 
L 324.459539 268.608227 
L 324.6916 266.729984 
L 324.923662 272.397936 
L 325.155724 284.286918 
L 325.387786 267.59161 
L 325.619848 277.800347 
L 325.85191 276.615135 
L 326.083972 267.646092 
L 326.316034 265.514724 
L 326.548095 272.654088 
L 326.780157 271.418236 
L 327.012219 274.134048 
L 327.244281 266.690753 
L 327.476343 283.09691 
L 327.708405 258.410063 
L 328.172528 272.278107 
L 328.636652 281.837419 
L 328.868714 283.255287 
L 329.100776 253.137133 
L 329.332838 273.958935 
L 329.5649 271.267766 
L 329.796961 273.655918 
L 330.029023 265.369146 
L 330.261085 273.444558 
L 330.493147 275.176136 
L 330.725209 278.092128 
L 330.957271 277.914627 
L 331.189333 267.910682 
L 331.653456 279.097393 
L 332.11758 263.959066 
L 332.349642 275.595697 
L 332.581704 259.136383 
L 332.813766 256.65048 
L 333.045828 269.02792 
L 333.277889 270.47848 
L 333.509951 283.514149 
L 333.742013 267.095516 
L 333.974075 272.551972 
L 334.206137 274.817955 
L 334.438199 283.926518 
L 334.670261 270.388752 
L 334.902322 273.909054 
L 335.134384 268.212794 
L 335.366446 279.164203 
L 335.598508 261.944158 
L 335.83057 272.365716 
L 336.062632 266.196375 
L 336.294694 266.531201 
L 336.526755 268.802494 
L 336.990879 263.583005 
L 337.222941 264.258738 
L 337.455003 280.705613 
L 337.687065 273.267091 
L 337.919127 278.176867 
L 338.151189 268.362018 
L 338.38325 272.700643 
L 338.847374 269.296982 
L 339.079436 276.550777 
L 339.311498 272.100831 
L 339.54356 265.225573 
L 339.775622 263.955943 
L 340.007683 266.498393 
L 340.239745 272.896126 
L 340.471807 261.281796 
L 340.703869 265.607856 
L 340.935931 279.122298 
L 341.167993 266.870592 
L 341.400055 279.090419 
L 341.632116 268.574726 
L 341.864178 263.611217 
L 342.09624 269.247165 
L 342.328302 268.194914 
L 342.560364 276.214474 
L 342.792426 272.155061 
L 343.024488 275.779706 
L 343.256549 262.984787 
L 343.720673 276.738464 
L 343.952735 269.578536 
L 344.184797 271.41685 
L 344.416859 278.943991 
L 344.648921 270.862814 
L 344.880983 271.142341 
L 345.113044 277.24254 
L 345.345106 266.856829 
L 345.577168 271.42225 
L 345.80923 270.282852 
L 346.041292 262.09142 
L 346.273354 266.511923 
L 346.505416 281.080263 
L 346.737477 279.940317 
L 346.969539 263.557253 
L 347.201601 262.732749 
L 347.433663 270.023675 
L 347.665725 282.387948 
L 347.897787 287.605663 
L 348.129849 277.354975 
L 348.36191 275.969154 
L 348.593972 284.725984 
L 348.826034 266.018021 
L 349.058096 276.591828 
L 349.290158 264.92452 
L 349.52222 284.694208 
L 349.754282 270.129692 
L 349.986343 265.147498 
L 350.218405 266.792751 
L 350.450467 272.680505 
L 350.682529 265.522226 
L 350.914591 272.823144 
L 351.146653 268.535519 
L 351.378715 272.211256 
L 351.610777 267.434559 
L 351.842838 275.696124 
L 352.0749 276.130763 
L 352.306962 280.621376 
L 352.771086 269.049282 
L 353.003148 270.897295 
L 353.23521 275.413528 
L 353.467271 269.743405 
L 353.699333 259.050294 
L 353.931395 276.479723 
L 354.163457 270.724403 
L 354.395519 252.035583 
L 354.627581 269.557067 
L 354.859643 277.272628 
L 355.091704 270.160342 
L 355.323766 276.514902 
L 355.555828 264.907249 
L 355.78789 268.418377 
L 356.019952 269.602855 
L 356.252014 261.769049 
L 356.484076 275.110144 
L 356.716138 267.919396 
L 357.412323 285.113764 
L 357.644385 264.282249 
L 357.876447 271.645874 
L 358.108509 271.084036 
L 358.340571 271.861689 
L 358.572632 256.613175 
L 358.804694 251.492629 
L 359.036756 269.206873 
L 359.268818 264.650317 
L 359.50088 251.793378 
L 359.732942 254.313425 
L 359.965004 264.45866 
L 360.197065 258.916694 
L 360.429127 272.642399 
L 360.661189 274.087442 
L 360.893251 263.235251 
L 361.357375 255.336353 
L 361.589437 268.971114 
L 361.821498 275.790681 
L 362.05356 267.009995 
L 362.285622 267.607485 
L 362.517684 273.979025 
L 362.749746 273.71909 
L 362.981808 266.156871 
L 363.21387 279.461385 
L 363.445932 265.656941 
L 363.910055 271.310275 
L 364.142117 277.736195 
L 364.374179 267.755683 
L 364.838303 283.983419 
L 365.070365 270.020887 
L 365.302426 277.041059 
L 365.534488 274.26664 
L 365.76655 263.388434 
L 365.998612 258.630193 
L 366.230674 274.561394 
L 366.462736 268.17052 
L 366.926859 272.452992 
L 367.158921 272.330529 
L 367.390983 267.656788 
L 367.623045 271.23051 
L 367.855107 271.483132 
L 368.319231 265.609769 
L 368.551292 274.934927 
L 368.783354 269.777982 
L 369.015416 267.302912 
L 369.247478 269.039798 
L 369.47954 275.020067 
L 369.711602 266.138316 
L 369.943664 276.891545 
L 370.175726 271.490316 
L 370.407787 279.962091 
L 370.639849 277.80444 
L 370.871911 271.938763 
L 371.103973 279.033312 
L 371.568097 271.247148 
L 371.800159 282.335948 
L 372.03222 268.989468 
L 372.496344 277.502145 
L 372.960468 257.329518 
L 373.424592 273.539684 
L 373.656653 273.496811 
L 373.888715 280.408083 
L 374.120777 279.098557 
L 374.352839 266.220036 
L 374.584901 270.366803 
L 374.816963 278.867997 
L 375.049025 283.194416 
L 375.281086 279.554418 
L 375.513148 279.640917 
L 375.74521 272.178606 
L 375.977272 269.6745 
L 376.209334 230.132089 
L 376.441396 257.444483 
L 376.673458 264.859224 
L 376.90552 264.30247 
L 377.137581 267.443177 
L 377.369643 281.6611 
L 377.601705 265.323171 
L 377.833767 268.158519 
L 378.065829 264.930095 
L 378.297891 273.208348 
L 378.529953 274.083096 
L 378.762014 265.594945 
L 378.994076 269.441186 
L 379.226138 270.012039 
L 379.4582 280.506259 
L 379.690262 261.286581 
L 379.922324 276.473311 
L 380.154386 277.902432 
L 380.386447 276.535572 
L 380.618509 282.386512 
L 380.850571 277.905723 
L 381.082633 270.103252 
L 381.314695 269.733299 
L 381.546757 265.145338 
L 381.778819 270.944092 
L 382.01088 280.821218 
L 382.242942 277.242682 
L 382.475004 268.921884 
L 382.707066 267.109611 
L 382.939128 257.81441 
L 383.17119 284.597688 
L 383.403252 272.017662 
L 383.635314 272.152859 
L 383.867375 264.37123 
L 384.099437 277.388758 
L 384.563561 250.625866 
L 384.795623 262.688157 
L 385.027685 268.2117 
L 385.491808 289.579603 
L 385.72387 274.757888 
L 385.955932 277.532695 
L 386.187994 264.524043 
L 386.420056 279.26584 
L 386.652118 267.611434 
L 387.116241 273.151847 
L 387.348303 256.485342 
L 387.580365 273.953502 
L 387.812427 268.60375 
L 388.044489 276.088347 
L 388.276551 275.733954 
L 388.740675 262.175289 
L 388.972736 275.447008 
L 389.204798 260.76901 
L 389.43686 290.84053 
L 389.668922 269.710984 
L 389.900984 275.08777 
L 390.133046 266.56085 
L 390.365108 274.823257 
L 390.597169 263.310134 
L 390.829231 288.09686 
L 391.061293 267.887185 
L 391.293355 275.692952 
L 391.525417 274.738743 
L 391.757479 268.237398 
L 391.989541 284.746951 
L 392.453664 253.076277 
L 392.685726 260.198062 
L 392.917788 273.441179 
L 393.14985 279.86435 
L 393.613974 272.994226 
L 394.078097 279.347281 
L 394.310159 281.997821 
L 394.542221 273.553755 
L 394.774283 276.932566 
L 395.006345 227.753004 
L 395.470469 250.756729 
L 395.934592 260.978659 
L 396.166654 270.737681 
L 396.398716 273.983772 
L 396.630778 272.167809 
L 396.86284 274.290472 
L 397.094902 260.892246 
L 397.326963 274.62683 
L 397.559025 268.242191 
L 397.791087 272.894346 
L 398.023149 285.190898 
L 398.487273 263.98157 
L 398.487273 263.98157 
" style="fill:none;stroke:#1f77b4;stroke-linecap:square;stroke-width:1.5;"/>
   </g>
   <g id="line2d_15">
    <path clip-path="url(#p285570757a)" d="M 73.832727 69.366915 
L 74.296851 131.919782 
L 74.528913 133.454799 
L 74.993037 153.639408 
L 75.225098 143.822302 
L 75.45716 140.116022 
L 75.689222 163.194166 
L 75.921284 167.9396 
L 76.153346 150.214754 
L 76.385408 173.969056 
L 76.61747 170.402914 
L 76.849531 174.054094 
L 77.081593 186.027748 
L 77.313655 182.180292 
L 77.545717 186.298247 
L 77.777779 187.852 
L 78.009841 172.06599 
L 78.241903 194.201477 
L 78.473965 182.406853 
L 78.706026 190.493641 
L 78.938088 170.070161 
L 79.17015 189.83434 
L 79.402212 195.187247 
L 79.634274 188.124968 
L 79.866336 202.033887 
L 80.098398 202.009112 
L 80.330459 194.053225 
L 80.562521 200.503944 
L 80.794583 195.803104 
L 81.026645 207.508722 
L 81.258707 210.29956 
L 81.490769 197.899312 
L 81.722831 201.786429 
L 81.954892 210.110191 
L 82.186954 212.142943 
L 82.651078 212.522213 
L 82.88314 214.509148 
L 83.347264 211.654087 
L 83.811387 216.198798 
L 84.043449 203.275613 
L 84.275511 207.376785 
L 84.507573 206.157233 
L 84.739635 218.969491 
L 84.971697 217.75332 
L 85.203759 191.555568 
L 85.43582 222.844471 
L 85.667882 214.520697 
L 85.899944 164.182439 
L 86.132006 222.936784 
L 86.364068 219.655742 
L 86.59613 224.29126 
L 86.828192 216.115498 
L 87.060253 220.648848 
L 87.292315 189.660762 
L 87.524377 224.348596 
L 87.756439 214.913391 
L 87.988501 220.200024 
L 88.220563 233.634356 
L 88.452625 222.836411 
L 88.684686 223.508016 
L 88.916748 222.793275 
L 89.14881 223.382734 
L 89.380872 219.109082 
L 89.844996 223.196897 
L 90.077058 222.985773 
L 90.30912 224.425902 
L 90.773243 223.898458 
L 91.005305 204.469723 
L 91.237367 227.823151 
L 91.469429 225.289955 
L 91.701491 215.579796 
L 91.933553 227.244703 
L 92.165614 232.528032 
L 92.397676 220.750987 
L 92.629738 231.904947 
L 92.8618 231.878229 
L 93.093862 236.09267 
L 93.325924 227.400035 
L 93.557986 231.143258 
L 93.790047 224.487412 
L 94.022109 226.538207 
L 94.486233 233.308278 
L 94.718295 226.91575 
L 94.950357 227.622458 
L 95.182419 226.49561 
L 95.41448 233.999123 
L 95.646542 234.084547 
L 95.878604 226.345002 
L 96.342728 236.849105 
L 96.57479 234.742269 
L 96.806852 237.492392 
L 97.038914 230.468094 
L 97.270975 236.462771 
L 97.503037 235.900255 
L 97.735099 234.068308 
L 97.967161 247.653931 
L 98.199223 243.081033 
L 98.431285 233.81726 
L 98.663347 231.29151 
L 98.895408 236.132284 
L 99.12747 245.003331 
L 99.359532 237.351863 
L 99.591594 242.099545 
L 99.823656 238.239145 
L 100.055718 229.081637 
L 100.28778 240.420955 
L 100.519841 239.139007 
L 100.751903 239.686761 
L 100.983965 226.216175 
L 101.216027 237.176594 
L 101.448089 240.894748 
L 101.680151 236.778995 
L 101.912213 245.729783 
L 102.376336 229.791224 
L 102.608398 236.702095 
L 102.84046 230.988662 
L 103.072522 229.826732 
L 103.304584 232.757839 
L 103.536646 242.917814 
L 103.768708 231.157076 
L 104.000769 235.069634 
L 104.232831 233.320953 
L 104.464893 224.301606 
L 104.696955 241.461257 
L 104.929017 234.29034 
L 105.161079 244.960422 
L 105.393141 239.708502 
L 105.625202 224.572962 
L 105.857264 235.632494 
L 106.089326 238.992851 
L 106.321388 237.151485 
L 106.55345 244.047733 
L 106.785512 237.002662 
L 107.017574 238.65965 
L 107.249635 232.836159 
L 107.481697 242.160962 
L 107.713759 241.312622 
L 107.945821 247.281245 
L 108.177883 236.110592 
L 108.409945 235.927732 
L 108.642007 241.576647 
L 108.874068 231.359349 
L 109.10613 248.310589 
L 109.570254 233.4297 
L 109.802316 245.253479 
L 110.034378 240.181088 
L 110.26644 240.009894 
L 110.498502 241.817778 
L 110.730563 245.02006 
L 110.962625 241.206971 
L 111.194687 244.119558 
L 111.426749 241.658865 
L 111.890873 245.113457 
L 112.122935 242.804329 
L 112.354996 248.200959 
L 112.587058 250.630837 
L 112.81912 246.126711 
L 113.051182 228.733161 
L 113.283244 243.14759 
L 113.515306 245.610935 
L 113.747368 250.457504 
L 113.979429 240.672826 
L 114.211491 250.792731 
L 114.443553 232.994228 
L 114.675615 243.00212 
L 114.907677 247.950554 
L 115.139739 247.761177 
L 115.371801 246.147199 
L 115.603862 236.918599 
L 115.835924 244.85994 
L 116.067986 245.3932 
L 116.300048 250.951921 
L 116.53211 247.523579 
L 116.764172 249.024916 
L 116.996234 247.345555 
L 117.228296 250.148256 
L 117.460357 248.709991 
L 117.692419 249.190975 
L 117.924481 246.654615 
L 118.156543 242.551262 
L 118.388605 248.201162 
L 118.620667 250.455664 
L 118.852729 243.390771 
L 119.08479 246.133199 
L 119.316852 244.046529 
L 119.548914 243.774392 
L 119.780976 248.889068 
L 120.013038 247.716946 
L 120.2451 240.642605 
L 120.477162 247.418306 
L 120.709223 249.212999 
L 120.941285 247.398282 
L 121.173347 241.127708 
L 121.405409 231.035196 
L 121.637471 248.568987 
L 122.333657 239.896017 
L 122.565718 252.700943 
L 123.029842 245.46321 
L 123.493966 252.91576 
L 123.726028 253.164496 
L 123.95809 248.570703 
L 124.190151 246.744168 
L 124.422213 237.231888 
L 124.654275 247.45074 
L 124.886337 240.899871 
L 125.118399 248.127748 
L 125.582523 254.046464 
L 125.814584 253.651902 
L 126.046646 250.842282 
L 126.278708 257.218835 
L 126.742832 249.010687 
L 126.974894 241.569876 
L 127.206956 254.901689 
L 127.439017 256.517163 
L 127.671079 256.645254 
L 127.903141 246.967375 
L 128.135203 248.529356 
L 128.367265 254.785166 
L 128.599327 253.773117 
L 128.831389 248.991519 
L 129.063451 249.050314 
L 129.295512 247.158617 
L 129.527574 257.622328 
L 129.759636 247.857434 
L 130.22376 255.574183 
L 130.455822 251.507124 
L 130.687884 251.385176 
L 130.919945 256.900257 
L 131.152007 241.18903 
L 131.384069 257.211925 
L 131.616131 261.078202 
L 131.848193 253.527936 
L 132.080255 254.842911 
L 132.312317 248.273641 
L 132.544378 254.816602 
L 132.77644 255.280143 
L 133.008502 253.593405 
L 133.240564 259.35945 
L 133.472626 258.002735 
L 133.704688 252.914732 
L 133.93675 256.628509 
L 134.168811 251.248142 
L 134.400873 259.653172 
L 134.632935 249.465637 
L 134.864997 262.257069 
L 135.097059 247.549777 
L 135.329121 262.631035 
L 135.561183 257.930379 
L 135.793245 246.200199 
L 136.025306 258.944022 
L 136.257368 261.124315 
L 136.48943 245.04594 
L 136.721492 251.371682 
L 136.953554 252.284506 
L 137.185616 262.393688 
L 137.417678 262.652178 
L 137.649739 257.092044 
L 137.881801 262.140115 
L 138.345925 253.663342 
L 139.042111 257.960852 
L 139.274172 251.274015 
L 139.506234 262.996769 
L 139.738296 250.651346 
L 139.970358 248.065173 
L 140.20242 248.717437 
L 140.434482 238.529145 
L 140.666544 249.763738 
L 140.898605 253.573412 
L 141.130667 251.91048 
L 141.362729 257.470631 
L 141.594791 257.574484 
L 141.826853 264.355305 
L 142.058915 231.143701 
L 142.290977 254.890053 
L 142.523039 250.797084 
L 142.7551 251.112855 
L 142.987162 250.758305 
L 143.219224 251.60177 
L 143.451286 251.53718 
L 143.683348 244.191146 
L 143.91541 262.783556 
L 144.147472 254.311793 
L 144.379533 252.622562 
L 144.611595 256.672376 
L 144.843657 246.936659 
L 145.075719 263.660762 
L 145.307781 238.398861 
L 145.539843 254.043782 
L 145.771905 234.733421 
L 146.236028 260.573538 
L 146.46809 254.006441 
L 146.700152 263.506073 
L 146.932214 264.029886 
L 147.164276 250.171038 
L 147.396338 258.391084 
L 147.6284 252.452196 
L 147.860461 257.082511 
L 148.092523 253.49887 
L 148.324585 254.388123 
L 148.556647 259.642836 
L 148.788709 259.635209 
L 149.020771 262.224481 
L 149.484894 251.655972 
L 149.716956 271.117866 
L 149.949018 245.479441 
L 150.18108 260.177325 
L 150.413142 260.271348 
L 150.645204 250.153108 
L 150.877266 260.431396 
L 151.109327 257.930622 
L 151.341389 262.352101 
L 151.573451 264.340227 
L 151.805513 257.947104 
L 152.037575 257.402818 
L 152.269637 251.584919 
L 152.501699 254.963664 
L 152.73376 255.104882 
L 152.965822 263.434865 
L 153.197884 260.760763 
L 153.429946 243.254599 
L 153.662008 255.238618 
L 153.89407 255.87724 
L 154.126132 264.611458 
L 154.358194 257.037036 
L 154.590255 261.375856 
L 154.822317 261.711456 
L 155.054379 253.665072 
L 155.286441 259.475937 
L 155.518503 244.435676 
L 155.750565 244.779891 
L 155.982627 260.084832 
L 156.214688 261.45676 
L 156.44675 261.073213 
L 156.678812 265.831844 
L 156.910874 252.290184 
L 157.142936 256.723087 
L 157.374998 248.279962 
L 157.60706 254.773204 
L 158.071183 257.270563 
L 158.303245 260.796101 
L 158.535307 275.395266 
L 158.767369 251.440792 
L 158.999431 263.269395 
L 159.231493 258.375705 
L 159.463554 264.811324 
L 159.695616 256.317223 
L 159.927678 263.05448 
L 160.15974 265.801017 
L 160.855926 251.926161 
L 161.087988 264.035807 
L 161.320049 251.843175 
L 161.552111 254.840637 
L 161.784173 260.931556 
L 162.016235 256.621409 
L 162.248297 254.953097 
L 162.480359 247.68358 
L 162.712421 253.318996 
L 162.944482 251.531917 
L 163.176544 258.521943 
L 163.408606 256.651914 
L 163.640668 247.233722 
L 164.104792 258.430616 
L 164.336854 253.684985 
L 164.568915 264.202637 
L 164.800977 264.936615 
L 165.033039 258.161026 
L 165.265101 256.772191 
L 165.729225 267.972484 
L 165.961287 260.609874 
L 166.193348 264.172316 
L 166.42541 250.67718 
L 166.657472 253.14456 
L 166.889534 237.896824 
L 167.121596 258.492493 
L 167.58572 259.919458 
L 167.817782 255.21842 
L 168.049843 257.556976 
L 168.281905 254.09588 
L 168.513967 255.314745 
L 168.746029 263.854367 
L 168.978091 262.568609 
L 169.210153 258.800374 
L 169.442215 259.341805 
L 169.674276 238.275352 
L 169.906338 255.757447 
L 170.1384 251.869385 
L 170.370462 256.710069 
L 170.602524 255.812815 
L 171.066648 258.173359 
L 171.298709 262.062259 
L 171.530771 247.222479 
L 171.762833 265.89431 
L 171.994895 263.242238 
L 172.226957 253.799273 
L 172.459019 254.080613 
L 172.691081 235.631173 
L 172.923143 260.938751 
L 173.155204 236.439923 
L 173.387266 257.030827 
L 173.619328 250.001297 
L 173.85139 260.495602 
L 174.083452 258.773021 
L 174.315514 249.963059 
L 174.547576 251.285503 
L 174.779637 264.407463 
L 175.011699 253.680242 
L 175.243761 265.305771 
L 175.475823 258.614977 
L 175.707885 255.604598 
L 175.939947 256.96616 
L 176.172009 253.993713 
L 176.636132 265.699342 
L 177.100256 257.550114 
L 177.332318 267.786427 
L 177.56438 263.771263 
L 177.796442 266.208407 
L 178.028503 244.859256 
L 178.260565 255.177001 
L 178.492627 259.397064 
L 178.724689 252.417379 
L 179.188813 270.570446 
L 179.884998 258.194999 
L 180.11706 259.076336 
L 180.349122 267.34446 
L 180.581184 253.881721 
L 180.813246 252.10051 
L 181.045308 257.004508 
L 181.27737 248.578682 
L 181.509431 255.738535 
L 181.741493 257.901183 
L 181.973555 255.630401 
L 182.205617 266.966272 
L 182.437679 261.015093 
L 182.669741 261.993342 
L 183.133864 258.284374 
L 183.365926 268.385287 
L 183.597988 267.374747 
L 184.062112 257.830017 
L 184.294174 264.818959 
L 184.526236 254.689584 
L 185.222421 269.827698 
L 185.454483 241.7167 
L 185.686545 266.149252 
L 185.918607 260.624923 
L 186.150669 259.598002 
L 186.382731 266.960157 
L 186.614792 249.914162 
L 186.846854 256.402953 
L 187.078916 249.167797 
L 187.310978 265.613303 
L 187.54304 257.622344 
L 188.007164 257.690214 
L 188.239225 261.209249 
L 188.471287 252.559074 
L 188.703349 259.654147 
L 188.935411 256.173492 
L 189.167473 256.379476 
L 189.399535 261.321788 
L 189.631597 254.460701 
L 189.863658 264.068254 
L 190.09572 268.454912 
L 190.327782 264.127634 
L 190.559844 254.623451 
L 190.791906 274.251248 
L 191.023968 256.867223 
L 191.25603 260.819773 
L 191.488091 257.90556 
L 191.720153 250.486772 
L 191.952215 262.876147 
L 192.184277 256.393372 
L 192.416339 258.394788 
L 192.648401 265.587693 
L 192.880463 263.879103 
L 193.112525 258.103973 
L 193.344586 266.674138 
L 193.576648 248.934505 
L 193.80871 254.930942 
L 194.040772 256.670705 
L 194.504896 265.505897 
L 194.736958 257.498343 
L 194.969019 260.585083 
L 195.201081 261.706302 
L 195.433143 274.093437 
L 195.665205 265.711082 
L 195.897267 263.692957 
L 196.129329 255.594128 
L 196.361391 266.449266 
L 196.593452 262.342824 
L 196.825514 264.879223 
L 197.057576 261.96543 
L 197.289638 255.936873 
L 197.5217 255.465154 
L 198.217886 265.124631 
L 198.449947 261.253486 
L 198.682009 260.695182 
L 198.914071 259.476716 
L 199.146133 265.656763 
L 199.378195 265.35573 
L 199.610257 259.807661 
L 199.842319 261.568721 
L 200.07438 262.08111 
L 200.306442 261.380855 
L 200.538504 264.2184 
L 200.770566 260.774857 
L 201.002628 262.558623 
L 201.23469 262.166938 
L 201.466752 261.298513 
L 201.698813 256.156735 
L 201.930875 259.779702 
L 202.162937 252.485022 
L 202.394999 262.499259 
L 202.859123 249.119341 
L 203.091185 248.109183 
L 203.555308 260.482627 
L 204.019432 266.296497 
L 204.251494 263.838324 
L 204.483556 257.746604 
L 204.715618 260.34626 
L 204.94768 259.242706 
L 205.179741 269.216192 
L 205.411803 266.337769 
L 205.643865 251.00553 
L 205.875927 248.373804 
L 206.107989 262.44083 
L 206.340051 259.548996 
L 206.572113 268.716575 
L 206.804174 259.698561 
L 207.268298 256.578054 
L 207.50036 263.731651 
L 207.964484 259.651712 
L 208.196546 260.149703 
L 208.428607 253.666426 
L 208.660669 264.073382 
L 208.892731 253.940538 
L 209.124793 250.517069 
L 209.356855 252.65333 
L 209.820979 260.181336 
L 210.05304 271.569276 
L 210.285102 264.645334 
L 210.517164 263.960586 
L 210.749226 254.402311 
L 210.981288 266.192564 
L 211.21335 263.248674 
L 211.445412 265.563827 
L 211.677474 270.045301 
L 211.909535 260.696474 
L 212.141597 259.669444 
L 212.373659 271.312861 
L 212.605721 252.135052 
L 213.069845 269.066921 
L 213.533968 258.72592 
L 213.76603 258.90284 
L 213.998092 262.681226 
L 214.230154 260.447296 
L 214.462216 260.174811 
L 214.694278 261.519636 
L 214.92634 268.781776 
L 215.390463 248.892067 
L 215.622525 248.836104 
L 215.854587 255.436241 
L 216.086649 270.721714 
L 216.318711 259.275444 
L 216.550773 260.9663 
L 216.782834 256.578151 
L 217.014896 256.660217 
L 217.246958 255.972131 
L 217.47902 258.98437 
L 217.711082 253.855518 
L 217.943144 264.634701 
L 218.175206 261.502823 
L 218.407268 264.252221 
L 218.871391 250.344498 
L 219.103453 263.609299 
L 219.335515 260.778697 
L 219.567577 261.305677 
L 219.799639 260.508652 
L 220.263762 264.9467 
L 220.495824 259.879543 
L 220.727886 268.436012 
L 220.959948 252.601893 
L 221.19201 269.938417 
L 221.424072 252.574525 
L 221.656134 266.55706 
L 222.120257 253.309246 
L 222.352319 262.824385 
L 222.584381 254.665331 
L 222.816443 263.504243 
L 223.048505 256.14568 
L 223.512629 262.486791 
L 223.74469 260.188741 
L 223.976752 265.951369 
L 224.208814 264.633645 
L 224.440876 238.14849 
L 224.905 269.037113 
L 225.137062 267.476716 
L 225.601185 256.342088 
L 225.833247 254.698645 
L 226.065309 268.133821 
L 226.297371 264.900863 
L 226.529433 247.940147 
L 226.761495 266.472809 
L 226.993556 256.724308 
L 227.225618 268.650093 
L 227.689742 257.192261 
L 227.921804 256.979766 
L 228.153866 256.347452 
L 228.385928 266.68353 
L 228.617989 255.672149 
L 228.850051 262.321458 
L 229.082113 256.068234 
L 229.314175 274.037894 
L 229.546237 254.430449 
L 229.778299 266.5708 
L 230.010361 247.366446 
L 230.242423 256.278979 
L 230.474484 258.102467 
L 230.706546 261.020454 
L 230.938608 258.363539 
L 231.17067 262.083519 
L 231.402732 255.865988 
L 231.634794 253.805822 
L 231.866856 255.427263 
L 232.098917 261.273104 
L 232.330979 252.708984 
L 232.563041 265.502873 
L 233.027165 251.284669 
L 233.491289 267.819786 
L 233.72335 255.026533 
L 233.955412 262.555188 
L 234.187474 250.583769 
L 234.419536 266.359398 
L 234.651598 256.549557 
L 234.88366 261.963802 
L 235.115722 258.212952 
L 235.347783 260.377238 
L 235.579845 266.056765 
L 235.811907 253.221931 
L 236.043969 254.204716 
L 236.276031 261.793969 
L 236.508093 257.072319 
L 236.740155 259.290872 
L 236.972217 263.46394 
L 237.204278 262.452611 
L 237.43634 265.929126 
L 237.668402 262.520126 
L 237.900464 266.051347 
L 238.132526 264.412857 
L 238.364588 266.034859 
L 238.59665 263.282586 
L 238.828711 263.073703 
L 239.060773 269.149762 
L 239.292835 270.215938 
L 239.524897 258.489027 
L 239.756959 263.155938 
L 239.989021 255.504322 
L 240.221083 268.056975 
L 240.453144 257.98107 
L 240.917268 269.049788 
L 241.14933 268.623839 
L 241.613454 256.561667 
L 241.845516 255.267568 
L 242.077577 265.866717 
L 242.309639 260.805957 
L 242.541701 259.247636 
L 242.773763 252.989107 
L 243.005825 264.613788 
L 243.237887 262.030052 
L 243.469949 255.297371 
L 243.702011 261.429705 
L 243.934072 254.894893 
L 244.166134 259.414349 
L 244.630258 254.544913 
L 245.094382 256.747352 
L 245.326444 271.703881 
L 245.558505 266.390481 
L 245.790567 269.990087 
L 246.022629 264.762914 
L 246.254691 252.389156 
L 246.486753 256.657697 
L 246.718815 262.987884 
L 246.950877 261.137336 
L 247.182938 264.251557 
L 247.415 261.786223 
L 247.647062 253.750683 
L 247.879124 265.017276 
L 248.111186 266.553002 
L 248.343248 269.303391 
L 248.57531 259.548464 
L 248.807371 262.547114 
L 249.039433 245.947733 
L 249.271495 247.040354 
L 249.503557 256.405601 
L 249.735619 255.038479 
L 249.967681 268.617513 
L 250.199743 259.550805 
L 250.431805 256.442488 
L 250.663866 270.636316 
L 250.895928 254.317957 
L 251.12799 258.086662 
L 251.360052 267.782617 
L 251.824176 254.832912 
L 252.056238 260.208064 
L 252.288299 260.526482 
L 252.520361 251.255238 
L 252.752423 261.825611 
L 252.984485 256.45241 
L 253.216547 260.316623 
L 253.448609 266.715056 
L 253.680671 262.524153 
L 253.912732 255.025273 
L 254.144794 266.882342 
L 254.376856 267.851479 
L 254.608918 242.783419 
L 254.84098 255.630768 
L 255.073042 257.277278 
L 255.305104 256.465145 
L 255.537166 267.302409 
L 255.769227 252.18675 
L 256.233351 261.631598 
L 256.465413 258.727148 
L 256.697475 265.218807 
L 256.929537 253.808177 
L 257.161599 264.589288 
L 257.39366 263.589021 
L 257.625722 249.155215 
L 257.857784 264.439667 
L 258.089846 260.938388 
L 258.55397 248.980754 
L 258.786032 258.5675 
L 259.250155 254.257632 
L 259.482217 262.970106 
L 259.714279 256.711116 
L 259.946341 266.672955 
L 260.178403 258.934583 
L 260.410465 268.279441 
L 260.642526 256.776618 
L 260.874588 258.763237 
L 261.10665 263.903404 
L 261.338712 248.984758 
L 261.570774 257.023165 
L 261.802836 251.679995 
L 262.499021 264.929066 
L 262.731083 251.874914 
L 262.963145 260.627597 
L 263.195207 258.8059 
L 263.427269 264.295179 
L 263.659331 255.841265 
L 263.891393 256.836391 
L 264.123454 260.693756 
L 264.355516 270.47789 
L 264.587578 254.067085 
L 264.81964 247.549962 
L 265.051702 258.320097 
L 265.283764 257.27597 
L 265.515826 259.951047 
L 265.747887 265.809254 
L 266.212011 260.247813 
L 266.444073 263.288225 
L 266.676135 264.694758 
L 266.908197 252.745689 
L 267.140259 257.182016 
L 267.37232 255.355848 
L 267.604382 267.893069 
L 267.836444 257.119236 
L 268.068506 267.355791 
L 268.300568 256.868638 
L 268.53263 268.389267 
L 268.764692 262.16393 
L 268.996754 262.134362 
L 269.228815 260.464249 
L 269.460877 255.951572 
L 269.692939 259.386727 
L 269.925001 265.821577 
L 270.157063 266.087803 
L 270.389125 257.488342 
L 270.621187 264.12866 
L 270.853248 260.693331 
L 271.08531 259.883625 
L 271.317372 250.118874 
L 271.549434 260.542555 
L 271.781496 250.392707 
L 272.24562 253.960146 
L 272.709743 267.172569 
L 272.941805 259.770741 
L 273.173867 268.967683 
L 273.405929 271.347695 
L 273.637991 262.283085 
L 273.870053 261.045158 
L 274.102114 253.939223 
L 274.334176 261.328522 
L 274.566238 260.23544 
L 274.7983 263.343645 
L 275.030362 253.962279 
L 275.494486 264.024034 
L 275.726548 259.051649 
L 275.958609 260.068293 
L 276.190671 272.366087 
L 276.654795 253.911609 
L 276.886857 264.173334 
L 277.118919 263.763374 
L 277.350981 256.892542 
L 277.583042 260.64472 
L 277.815104 251.456414 
L 278.047166 265.145728 
L 278.279228 259.897577 
L 278.51129 265.210092 
L 278.743352 264.296583 
L 278.975414 260.435647 
L 279.207475 265.14098 
L 279.439537 262.504636 
L 279.671599 255.851928 
L 279.903661 255.124461 
L 280.135723 263.893265 
L 280.367785 250.812623 
L 280.831909 267.594997 
L 281.06397 264.755513 
L 281.296032 258.653666 
L 281.528094 267.724185 
L 281.760156 260.77289 
L 281.992218 264.430522 
L 282.22428 264.554564 
L 282.456342 252.623261 
L 282.688403 263.124787 
L 283.152527 256.38881 
L 283.616651 263.293538 
L 283.848713 267.415834 
L 284.544898 242.981635 
L 284.77696 263.206892 
L 285.009022 267.640415 
L 285.241084 255.677958 
L 285.473146 259.662019 
L 285.705208 259.046269 
L 285.937269 255.319553 
L 286.169331 264.287082 
L 286.401393 260.614997 
L 286.633455 261.201511 
L 286.865517 258.216145 
L 287.097579 269.483407 
L 287.561703 254.194748 
L 287.793764 264.32548 
L 288.025826 253.418267 
L 288.257888 268.610387 
L 288.48995 263.581946 
L 288.722012 261.557695 
L 288.954074 257.094417 
L 289.186136 256.005521 
L 289.418197 257.955983 
L 289.650259 256.920101 
L 289.882321 265.458571 
L 290.114383 261.785368 
L 290.346445 266.582475 
L 290.578507 266.08379 
L 290.810569 266.165327 
L 291.04263 262.098133 
L 291.274692 254.762701 
L 291.506754 257.680789 
L 291.738816 262.055638 
L 291.970878 258.528974 
L 292.20294 251.839921 
L 292.435002 262.261222 
L 292.667063 257.4659 
L 292.899125 258.055219 
L 293.131187 263.753352 
L 293.363249 249.460358 
L 293.595311 260.6031 
L 293.827373 245.908559 
L 294.059435 258.735372 
L 294.291497 255.654178 
L 294.523558 255.452582 
L 294.75562 254.809195 
L 294.987682 251.84852 
L 295.219744 266.431025 
L 295.451806 265.194355 
L 295.683868 251.625197 
L 295.91593 267.660965 
L 296.380053 260.093381 
L 296.612115 268.063156 
L 296.844177 258.305478 
L 297.076239 256.833991 
L 297.308301 263.282393 
L 297.772424 253.395723 
L 298.004486 262.572221 
L 298.236548 255.110076 
L 298.700672 267.15813 
L 298.932734 256.62088 
L 299.164796 267.152422 
L 299.396857 255.939402 
L 299.628919 256.595506 
L 299.860981 261.154807 
L 300.093043 262.170358 
L 300.325105 268.160664 
L 300.557167 257.42624 
L 300.789229 257.645047 
L 301.021291 266.521015 
L 301.253352 257.588283 
L 301.485414 262.931428 
L 301.717476 252.928312 
L 301.949538 262.337598 
L 302.1816 248.997457 
L 302.413662 258.178193 
L 302.877785 257.137199 
L 303.109847 260.540109 
L 303.341909 269.707768 
L 303.573971 264.072438 
L 303.806033 263.772005 
L 304.038095 258.664941 
L 304.270157 246.947163 
L 304.502218 263.996612 
L 304.73428 267.951618 
L 304.966342 256.814479 
L 305.198404 254.674834 
L 305.430466 263.587582 
L 305.662528 251.91716 
L 305.89459 258.126231 
L 306.126652 260.511685 
L 306.358713 245.096552 
L 306.590775 250.787762 
L 306.822837 244.477017 
L 307.054899 258.913768 
L 307.286961 261.743174 
L 307.519023 260.234181 
L 307.751085 260.672065 
L 307.983146 255.850344 
L 308.44727 259.771082 
L 308.911394 267.089012 
L 309.143456 262.826812 
L 309.375518 242.267104 
L 309.607579 255.372434 
L 309.839641 220.254834 
L 310.071703 261.30457 
L 310.303765 253.464108 
L 310.535827 258.45161 
L 310.767889 258.483655 
L 310.999951 258.397076 
L 311.232012 262.012773 
L 311.464074 256.631741 
L 311.696136 262.982993 
L 311.928198 257.069206 
L 312.16026 259.775547 
L 312.392322 260.36562 
L 312.624384 267.495621 
L 312.856446 255.939421 
L 313.088507 256.186688 
L 313.320569 259.930928 
L 313.552631 253.081772 
L 313.784693 257.220518 
L 314.016755 257.028607 
L 314.248817 257.903513 
L 314.480879 263.052954 
L 314.945002 256.233873 
L 315.177064 249.946692 
L 315.409126 256.962586 
L 315.87325 260.36081 
L 316.105312 256.882009 
L 316.337373 240.44049 
L 316.569435 262.671021 
L 316.801497 267.206826 
L 317.033559 265.372193 
L 317.265621 269.597864 
L 317.497683 259.482518 
L 317.729745 258.004442 
L 317.961806 240.131819 
L 318.42593 263.314615 
L 318.657992 265.944527 
L 318.890054 270.970478 
L 319.122116 254.681263 
L 319.354178 253.066115 
L 319.818301 262.730399 
L 320.050363 257.143255 
L 320.282425 262.140912 
L 320.514487 258.17336 
L 320.746549 257.663594 
L 320.978611 254.127736 
L 321.210673 260.36652 
L 321.442734 248.309118 
L 321.906858 262.799052 
L 322.13892 260.619636 
L 322.370982 273.499039 
L 322.835106 254.068593 
L 323.067167 236.382916 
L 323.299229 252.958561 
L 323.531291 253.462845 
L 323.763353 248.549322 
L 323.995415 261.679887 
L 324.227477 261.031528 
L 324.459539 262.310278 
L 324.6916 266.329602 
L 324.923662 263.424437 
L 325.155724 249.920755 
L 325.387786 258.019341 
L 325.619848 258.290051 
L 325.85191 249.629996 
L 326.083972 261.375453 
L 326.316034 260.377003 
L 326.548095 252.549383 
L 327.012219 267.86768 
L 327.244281 265.102967 
L 327.476343 258.435309 
L 327.940467 267.981434 
L 328.172528 261.10141 
L 328.40459 260.622007 
L 328.636652 240.914156 
L 328.868714 261.672737 
L 329.100776 253.085192 
L 329.332838 250.101602 
L 329.5649 252.832259 
L 329.796961 271.328955 
L 330.029023 255.419316 
L 330.261085 258.673443 
L 330.493147 249.321753 
L 330.725209 257.486048 
L 330.957271 253.657163 
L 331.421395 261.336855 
L 331.653456 264.396027 
L 332.11758 257.797095 
L 332.349642 265.214556 
L 332.581704 259.001149 
L 332.813766 266.535279 
L 333.045828 263.912283 
L 333.277889 256.468591 
L 333.509951 263.800443 
L 333.742013 253.880243 
L 333.974075 265.996395 
L 334.206137 265.264413 
L 334.438199 249.211714 
L 334.670261 258.808883 
L 334.902322 256.14858 
L 335.134384 260.474838 
L 335.366446 267.763215 
L 335.83057 245.21612 
L 336.062632 262.814555 
L 336.294694 257.108379 
L 336.526755 265.767899 
L 336.758817 248.346921 
L 336.990879 260.494005 
L 337.222941 253.373418 
L 337.455003 268.426932 
L 337.687065 230.807419 
L 337.919127 260.010563 
L 338.151189 247.857804 
L 338.38325 267.022216 
L 338.615312 258.590509 
L 338.847374 262.582792 
L 339.079436 260.748763 
L 339.311498 264.885424 
L 339.54356 245.048187 
L 339.775622 259.522611 
L 340.007683 264.447436 
L 340.239745 258.219034 
L 340.471807 257.073356 
L 340.703869 265.66021 
L 340.935931 258.225704 
L 341.167993 267.450847 
L 341.632116 261.57667 
L 341.864178 252.920576 
L 342.09624 254.08611 
L 342.328302 261.609414 
L 342.560364 261.357779 
L 343.024488 253.293352 
L 343.256549 251.589068 
L 343.488611 264.412145 
L 343.720673 260.972879 
L 343.952735 266.68741 
L 344.184797 253.574123 
L 344.416859 258.257871 
L 344.648921 258.885494 
L 344.880983 264.816843 
L 345.113044 256.479626 
L 345.345106 264.200185 
L 345.80923 267.075874 
L 346.041292 259.472791 
L 346.273354 260.812815 
L 346.505416 254.174327 
L 346.737477 263.231349 
L 347.201601 246.127592 
L 347.433663 258.293612 
L 347.665725 257.814637 
L 347.897787 261.307971 
L 348.129849 268.868413 
L 348.36191 266.873137 
L 348.593972 270.983338 
L 348.826034 252.513554 
L 349.058096 264.607289 
L 349.290158 252.983265 
L 349.52222 262.329449 
L 349.986343 255.332681 
L 350.218405 264.594112 
L 350.450467 245.746425 
L 350.682529 263.648802 
L 350.914591 251.944669 
L 351.146653 256.209786 
L 351.378715 264.482701 
L 351.610777 256.429761 
L 351.842838 261.809719 
L 352.0749 261.907357 
L 352.306962 267.742196 
L 352.539024 265.446324 
L 352.771086 252.709227 
L 353.003148 252.275491 
L 353.23521 253.184143 
L 353.467271 268.60816 
L 353.699333 261.890317 
L 353.931395 272.60285 
L 354.163457 265.038957 
L 354.395519 248.769844 
L 354.627581 263.504911 
L 354.859643 257.338725 
L 355.091704 263.709519 
L 355.323766 260.230428 
L 355.555828 244.721356 
L 355.78789 257.715248 
L 356.019952 258.512485 
L 356.252014 244.524764 
L 356.484076 251.633377 
L 356.716138 266.135025 
L 356.948199 261.903413 
L 357.180261 262.689544 
L 357.412323 262.868738 
L 357.644385 259.607243 
L 357.876447 261.636611 
L 358.108509 265.615155 
L 358.340571 261.065498 
L 358.572632 251.710948 
L 358.804694 263.35761 
L 359.036756 256.117951 
L 359.268818 252.916701 
L 359.732942 257.394579 
L 359.965004 247.66373 
L 360.429127 262.823426 
L 360.661189 254.872308 
L 360.893251 263.556837 
L 361.125313 251.371416 
L 361.357375 260.9551 
L 361.589437 255.842692 
L 361.821498 256.420954 
L 362.05356 251.182135 
L 362.285622 272.989607 
L 362.517684 258.013134 
L 362.749746 264.921023 
L 362.981808 262.744562 
L 363.21387 261.722405 
L 363.445932 261.375227 
L 363.910055 257.556814 
L 364.142117 264.042793 
L 364.374179 264.798142 
L 364.606241 257.2038 
L 364.838303 261.084902 
L 365.070365 260.573696 
L 365.302426 254.340501 
L 365.534488 265.568906 
L 365.76655 249.606987 
L 365.998612 248.005347 
L 366.230674 260.636628 
L 366.462736 254.923464 
L 366.694798 269.598032 
L 366.926859 255.566 
L 367.390983 255.572542 
L 367.623045 255.426613 
L 367.855107 268.186628 
L 368.319231 258.76482 
L 368.551292 246.656607 
L 368.783354 256.62104 
L 369.015416 239.870349 
L 369.247478 259.142553 
L 369.47954 263.201566 
L 369.943664 253.665794 
L 370.175726 255.729568 
L 370.407787 242.357182 
L 370.639849 265.321398 
L 370.871911 255.904619 
L 371.103973 251.54445 
L 371.336035 265.775345 
L 371.800159 241.328289 
L 372.03222 260.477957 
L 372.264282 257.575485 
L 372.496344 265.214502 
L 372.728406 259.806476 
L 372.960468 247.099684 
L 373.424592 266.849145 
L 373.888715 253.37947 
L 374.352839 266.273504 
L 374.584901 257.489902 
L 375.049025 267.960922 
L 375.281086 262.720283 
L 375.513148 253.725585 
L 375.74521 259.023881 
L 375.977272 254.862454 
L 376.209334 258.163117 
L 376.441396 249.349273 
L 376.673458 261.140824 
L 376.90552 257.962431 
L 377.137581 264.543873 
L 377.369643 266.525509 
L 377.601705 266.914311 
L 377.833767 255.78483 
L 378.065829 252.56709 
L 378.297891 261.140056 
L 378.529953 257.696847 
L 378.762014 257.289683 
L 378.994076 261.67053 
L 379.226138 258.32887 
L 379.4582 257.6683 
L 379.690262 259.228061 
L 379.922324 256.49371 
L 380.386447 267.16588 
L 380.618509 258.162575 
L 380.850571 267.387496 
L 381.082633 243.592849 
L 381.314695 265.397368 
L 381.546757 260.354923 
L 381.778819 265.467103 
L 382.01088 258.037288 
L 382.242942 256.160335 
L 382.475004 251.345605 
L 382.707066 265.44546 
L 382.939128 252.652406 
L 383.17119 257.671656 
L 383.403252 247.716889 
L 383.867375 259.534213 
L 384.099437 261.275878 
L 384.331499 186.821 
L 384.563561 251.108346 
L 384.795623 259.579896 
L 385.027685 257.799308 
L 385.259747 269.211243 
L 385.491808 271.049993 
L 385.72387 262.209031 
L 385.955932 268.437983 
L 386.187994 263.599762 
L 386.420056 248.504817 
L 386.88418 260.829959 
L 387.116241 250.264364 
L 387.348303 262.168363 
L 387.580365 263.229052 
L 387.812427 264.829623 
L 388.044489 255.299358 
L 388.276551 260.165371 
L 388.508613 253.373174 
L 388.740675 261.051663 
L 388.972736 257.786096 
L 389.204798 250.961742 
L 389.43686 264.436258 
L 389.668922 266.073214 
L 389.900984 250.79101 
L 390.133046 249.782929 
L 390.597169 264.312722 
L 390.829231 258.068981 
L 391.061293 262.192748 
L 391.293355 261.198887 
L 391.525417 262.937552 
L 391.757479 255.30138 
L 391.989541 259.343552 
L 392.221602 246.530204 
L 392.453664 255.985482 
L 392.685726 255.183275 
L 392.917788 256.507115 
L 393.14985 255.140135 
L 393.381912 268.877591 
L 393.613974 248.511309 
L 393.846035 272.420627 
L 394.310159 256.092774 
L 394.542221 257.347412 
L 394.774283 256.268538 
L 395.006345 225.232932 
L 395.70253 252.310719 
L 395.934592 254.534094 
L 396.166654 247.907629 
L 396.398716 253.307162 
L 396.630778 255.164131 
L 396.86284 254.944566 
L 397.326963 249.231811 
L 397.791087 268.367193 
L 398.023149 250.049426 
L 398.255211 265.807472 
L 398.487273 249.133351 
L 398.487273 249.133351 
" style="fill:none;stroke:#ff7f0e;stroke-linecap:square;stroke-width:1.5;"/>
   </g>
   <g id="patch_3">
    <path d="M 57.6 307.584 
L 57.6 41.472 
" style="fill:none;stroke:#000000;stroke-linecap:square;stroke-linejoin:miter;stroke-width:0.8;"/>
   </g>
   <g id="patch_4">
    <path d="M 414.72 307.584 
L 414.72 41.472 
" style="fill:none;stroke:#000000;stroke-linecap:square;stroke-linejoin:miter;stroke-width:0.8;"/>
   </g>
   <g id="patch_5">
    <path d="M 57.6 307.584 
L 414.72 307.584 
" style="fill:none;stroke:#000000;stroke-linecap:square;stroke-linejoin:miter;stroke-width:0.8;"/>
   </g>
   <g id="patch_6">
    <path d="M 57.6 41.472 
L 414.72 41.472 
" style="fill:none;stroke:#000000;stroke-linecap:square;stroke-linejoin:miter;stroke-width:0.8;"/>
   </g>
   <g id="legend_1">
    <g id="patch_7">
     <path d="M 303.845 78.82825 
L 407.72 78.82825 
Q 409.72 78.82825 409.72 76.82825 
L 409.72 48.472 
Q 409.72 46.472 407.72 46.472 
L 303.845 46.472 
Q 301.845 46.472 301.845 48.472 
L 301.845 76.82825 
Q 301.845 78.82825 303.845 78.82825 
z
" style="fill:#ffffff;opacity:0.8;stroke:#cccccc;stroke-linejoin:miter;"/>
    </g>
    <g id="line2d_16">
     <path d="M 305.845 54.570437 
L 325.845 54.570437 
" style="fill:none;stroke:#1f77b4;stroke-linecap:square;stroke-width:1.5;"/>
    </g>
    <g id="line2d_17"/>
    <g id="text_15">
     <!-- Train loss -->
     <g transform="translate(333.845 58.070437)scale(0.1 -0.1)">
      <defs>
       <path d="M -19 4666 
L 3928 4666 
L 3928 4134 
L 2272 4134 
L 2272 0 
L 1638 0 
L 1638 4134 
L -19 4134 
L -19 4666 
z
" id="DejaVuSans-54" transform="scale(0.015625)"/>
       <path d="M 2631 2963 
Q 2534 3019 2420 3045 
Q 2306 3072 2169 3072 
Q 1681 3072 1420 2755 
Q 1159 2438 1159 1844 
L 1159 0 
L 581 0 
L 581 3500 
L 1159 3500 
L 1159 2956 
Q 1341 3275 1631 3429 
Q 1922 3584 2338 3584 
Q 2397 3584 2469 3576 
Q 2541 3569 2628 3553 
L 2631 2963 
z
" id="DejaVuSans-72" transform="scale(0.015625)"/>
       <path d="M 2194 1759 
Q 1497 1759 1228 1600 
Q 959 1441 959 1056 
Q 959 750 1161 570 
Q 1363 391 1709 391 
Q 2188 391 2477 730 
Q 2766 1069 2766 1631 
L 2766 1759 
L 2194 1759 
z
M 3341 1997 
L 3341 0 
L 2766 0 
L 2766 531 
Q 2569 213 2275 61 
Q 1981 -91 1556 -91 
Q 1019 -91 701 211 
Q 384 513 384 1019 
Q 384 1609 779 1909 
Q 1175 2209 1959 2209 
L 2766 2209 
L 2766 2266 
Q 2766 2663 2505 2880 
Q 2244 3097 1772 3097 
Q 1472 3097 1187 3025 
Q 903 2953 641 2809 
L 641 3341 
Q 956 3463 1253 3523 
Q 1550 3584 1831 3584 
Q 2591 3584 2966 3190 
Q 3341 2797 3341 1997 
z
" id="DejaVuSans-61" transform="scale(0.015625)"/>
       <path d="M 603 3500 
L 1178 3500 
L 1178 0 
L 603 0 
L 603 3500 
z
M 603 4863 
L 1178 4863 
L 1178 4134 
L 603 4134 
L 603 4863 
z
" id="DejaVuSans-69" transform="scale(0.015625)"/>
       <path d="M 3513 2113 
L 3513 0 
L 2938 0 
L 2938 2094 
Q 2938 2591 2744 2837 
Q 2550 3084 2163 3084 
Q 1697 3084 1428 2787 
Q 1159 2491 1159 1978 
L 1159 0 
L 581 0 
L 581 3500 
L 1159 3500 
L 1159 2956 
Q 1366 3272 1645 3428 
Q 1925 3584 2291 3584 
Q 2894 3584 3203 3211 
Q 3513 2838 3513 2113 
z
" id="DejaVuSans-6e" transform="scale(0.015625)"/>
       <path id="DejaVuSans-20" transform="scale(0.015625)"/>
       <path d="M 603 4863 
L 1178 4863 
L 1178 0 
L 603 0 
L 603 4863 
z
" id="DejaVuSans-6c" transform="scale(0.015625)"/>
       <path d="M 2834 3397 
L 2834 2853 
Q 2591 2978 2328 3040 
Q 2066 3103 1784 3103 
Q 1356 3103 1142 2972 
Q 928 2841 928 2578 
Q 928 2378 1081 2264 
Q 1234 2150 1697 2047 
L 1894 2003 
Q 2506 1872 2764 1633 
Q 3022 1394 3022 966 
Q 3022 478 2636 193 
Q 2250 -91 1575 -91 
Q 1294 -91 989 -36 
Q 684 19 347 128 
L 347 722 
Q 666 556 975 473 
Q 1284 391 1588 391 
Q 1994 391 2212 530 
Q 2431 669 2431 922 
Q 2431 1156 2273 1281 
Q 2116 1406 1581 1522 
L 1381 1569 
Q 847 1681 609 1914 
Q 372 2147 372 2553 
Q 372 3047 722 3315 
Q 1072 3584 1716 3584 
Q 2034 3584 2315 3537 
Q 2597 3491 2834 3397 
z
" id="DejaVuSans-73" transform="scale(0.015625)"/>
      </defs>
      <use xlink:href="#DejaVuSans-54"/>
      <use x="46.333984" xlink:href="#DejaVuSans-72"/>
      <use x="87.447266" xlink:href="#DejaVuSans-61"/>
      <use x="148.726562" xlink:href="#DejaVuSans-69"/>
      <use x="176.509766" xlink:href="#DejaVuSans-6e"/>
      <use x="239.888672" xlink:href="#DejaVuSans-20"/>
      <use x="271.675781" xlink:href="#DejaVuSans-6c"/>
      <use x="299.458984" xlink:href="#DejaVuSans-6f"/>
      <use x="360.640625" xlink:href="#DejaVuSans-73"/>
      <use x="412.740234" xlink:href="#DejaVuSans-73"/>
     </g>
    </g>
    <g id="line2d_18">
     <path d="M 305.845 69.248562 
L 325.845 69.248562 
" style="fill:none;stroke:#ff7f0e;stroke-linecap:square;stroke-width:1.5;"/>
    </g>
    <g id="line2d_19"/>
    <g id="text_16">
     <!-- Validation loss -->
     <g transform="translate(333.845 72.748562)scale(0.1 -0.1)">
      <defs>
       <path d="M 1831 0 
L 50 4666 
L 709 4666 
L 2188 738 
L 3669 4666 
L 4325 4666 
L 2547 0 
L 1831 0 
z
" id="DejaVuSans-56" transform="scale(0.015625)"/>
       <path d="M 2906 2969 
L 2906 4863 
L 3481 4863 
L 3481 0 
L 2906 0 
L 2906 525 
Q 2725 213 2448 61 
Q 2172 -91 1784 -91 
Q 1150 -91 751 415 
Q 353 922 353 1747 
Q 353 2572 751 3078 
Q 1150 3584 1784 3584 
Q 2172 3584 2448 3432 
Q 2725 3281 2906 2969 
z
M 947 1747 
Q 947 1113 1208 752 
Q 1469 391 1925 391 
Q 2381 391 2643 752 
Q 2906 1113 2906 1747 
Q 2906 2381 2643 2742 
Q 2381 3103 1925 3103 
Q 1469 3103 1208 2742 
Q 947 2381 947 1747 
z
" id="DejaVuSans-64" transform="scale(0.015625)"/>
       <path d="M 1172 4494 
L 1172 3500 
L 2356 3500 
L 2356 3053 
L 1172 3053 
L 1172 1153 
Q 1172 725 1289 603 
Q 1406 481 1766 481 
L 2356 481 
L 2356 0 
L 1766 0 
Q 1100 0 847 248 
Q 594 497 594 1153 
L 594 3053 
L 172 3053 
L 172 3500 
L 594 3500 
L 594 4494 
L 1172 4494 
z
" id="DejaVuSans-74" transform="scale(0.015625)"/>
      </defs>
      <use xlink:href="#DejaVuSans-56"/>
      <use x="60.658203" xlink:href="#DejaVuSans-61"/>
      <use x="121.9375" xlink:href="#DejaVuSans-6c"/>
      <use x="149.720703" xlink:href="#DejaVuSans-69"/>
      <use x="177.503906" xlink:href="#DejaVuSans-64"/>
      <use x="240.980469" xlink:href="#DejaVuSans-61"/>
      <use x="302.259766" xlink:href="#DejaVuSans-74"/>
      <use x="341.46875" xlink:href="#DejaVuSans-69"/>
      <use x="369.251953" xlink:href="#DejaVuSans-6f"/>
      <use x="430.433594" xlink:href="#DejaVuSans-6e"/>
      <use x="493.8125" xlink:href="#DejaVuSans-20"/>
      <use x="525.599609" xlink:href="#DejaVuSans-6c"/>
      <use x="553.382812" xlink:href="#DejaVuSans-6f"/>
      <use x="614.564453" xlink:href="#DejaVuSans-73"/>
      <use x="666.664062" xlink:href="#DejaVuSans-73"/>
     </g>
    </g>
   </g>
  </g>
 </g>
 <defs>
  <clipPath id="p285570757a">
   <rect height="266.112" width="357.12" x="57.6" y="41.472"/>
  </clipPath>
 </defs>
</svg>
