<?xml version="1.0" encoding="utf-8" standalone="no"?>
<!DOCTYPE svg PUBLIC "-//W3C//DTD SVG 1.1//EN"
  "http://www.w3.org/Graphics/SVG/1.1/DTD/svg11.dtd">
<svg height="345.6pt" version="1.1" viewBox="0 0 460.8 345.6" width="460.8pt" xmlns="http://www.w3.org/2000/svg" xmlns:xlink="http://www.w3.org/1999/xlink">
 <metadata>
  <rdf:RDF xmlns:cc="http://creativecommons.org/ns#" xmlns:dc="http://purl.org/dc/elements/1.1/" xmlns:rdf="http://www.w3.org/1999/02/22-rdf-syntax-ns#">
   <cc:Work>
    <dc:type rdf:resource="http://purl.org/dc/dcmitype/StillImage"/>
    <dc:date>2021-07-16T16:38:37.748485</dc:date>
    <dc:format>image/svg+xml</dc:format>
    <dc:creator>
     <cc:Agent>
      <dc:title>Matplotlib v3.4.1, https://matplotlib.org/</dc:title>
     </cc:Agent>
    </dc:creator>
   </cc:Work>
  </rdf:RDF>
 </metadata>
 <defs>
  <style type="text/css">*{stroke-linecap:butt;stroke-linejoin:round;}</style>
 </defs>
 <g id="figure_1">
  <g id="patch_1">
   <path d="M 0 345.6 
L 460.8 345.6 
L 460.8 0 
L 0 0 
z
" style="fill:#ffffff;"/>
  </g>
  <g id="axes_1">
   <g id="patch_2">
    <path d="M 57.6 307.584 
L 414.72 307.584 
L 414.72 41.472 
L 57.6 41.472 
z
" style="fill:#ffffff;"/>
   </g>
   <g id="matplotlib.axis_1">
    <g id="xtick_1">
     <g id="line2d_1">
      <defs>
       <path d="M 0 0 
L 0 3.5 
" id="m115f652c13" style="stroke:#000000;stroke-width:0.8;"/>
      </defs>
      <g>
       <use style="stroke:#000000;stroke-width:0.8;" x="73.019057" xlink:href="#m115f652c13" y="307.584"/>
      </g>
     </g>
     <g id="text_1">
      <!-- 0 -->
      <g transform="translate(69.837807 322.182437)scale(0.1 -0.1)">
       <defs>
        <path d="M 2034 4250 
Q 1547 4250 1301 3770 
Q 1056 3291 1056 2328 
Q 1056 1369 1301 889 
Q 1547 409 2034 409 
Q 2525 409 2770 889 
Q 3016 1369 3016 2328 
Q 3016 3291 2770 3770 
Q 2525 4250 2034 4250 
z
M 2034 4750 
Q 2819 4750 3233 4129 
Q 3647 3509 3647 2328 
Q 3647 1150 3233 529 
Q 2819 -91 2034 -91 
Q 1250 -91 836 529 
Q 422 1150 422 2328 
Q 422 3509 836 4129 
Q 1250 4750 2034 4750 
z
" id="DejaVuSans-30" transform="scale(0.015625)"/>
       </defs>
       <use xlink:href="#DejaVuSans-30"/>
      </g>
     </g>
    </g>
    <g id="xtick_2">
     <g id="line2d_2">
      <g>
       <use style="stroke:#000000;stroke-width:0.8;" x="113.702584" xlink:href="#m115f652c13" y="307.584"/>
      </g>
     </g>
     <g id="text_2">
      <!-- 50 -->
      <g transform="translate(107.340084 322.182437)scale(0.1 -0.1)">
       <defs>
        <path d="M 691 4666 
L 3169 4666 
L 3169 4134 
L 1269 4134 
L 1269 2991 
Q 1406 3038 1543 3061 
Q 1681 3084 1819 3084 
Q 2600 3084 3056 2656 
Q 3513 2228 3513 1497 
Q 3513 744 3044 326 
Q 2575 -91 1722 -91 
Q 1428 -91 1123 -41 
Q 819 9 494 109 
L 494 744 
Q 775 591 1075 516 
Q 1375 441 1709 441 
Q 2250 441 2565 725 
Q 2881 1009 2881 1497 
Q 2881 1984 2565 2268 
Q 2250 2553 1709 2553 
Q 1456 2553 1204 2497 
Q 953 2441 691 2322 
L 691 4666 
z
" id="DejaVuSans-35" transform="scale(0.015625)"/>
       </defs>
       <use xlink:href="#DejaVuSans-35"/>
       <use x="63.623047" xlink:href="#DejaVuSans-30"/>
      </g>
     </g>
    </g>
    <g id="xtick_3">
     <g id="line2d_3">
      <g>
       <use style="stroke:#000000;stroke-width:0.8;" x="154.386111" xlink:href="#m115f652c13" y="307.584"/>
      </g>
     </g>
     <g id="text_3">
      <!-- 100 -->
      <g transform="translate(144.842361 322.182437)scale(0.1 -0.1)">
       <defs>
        <path d="M 794 531 
L 1825 531 
L 1825 4091 
L 703 3866 
L 703 4441 
L 1819 4666 
L 2450 4666 
L 2450 531 
L 3481 531 
L 3481 0 
L 794 0 
L 794 531 
z
" id="DejaVuSans-31" transform="scale(0.015625)"/>
       </defs>
       <use xlink:href="#DejaVuSans-31"/>
       <use x="63.623047" xlink:href="#DejaVuSans-30"/>
       <use x="127.246094" xlink:href="#DejaVuSans-30"/>
      </g>
     </g>
    </g>
    <g id="xtick_4">
     <g id="line2d_4">
      <g>
       <use style="stroke:#000000;stroke-width:0.8;" x="195.069638" xlink:href="#m115f652c13" y="307.584"/>
      </g>
     </g>
     <g id="text_4">
      <!-- 150 -->
      <g transform="translate(185.525888 322.182437)scale(0.1 -0.1)">
       <use xlink:href="#DejaVuSans-31"/>
       <use x="63.623047" xlink:href="#DejaVuSans-35"/>
       <use x="127.246094" xlink:href="#DejaVuSans-30"/>
      </g>
     </g>
    </g>
    <g id="xtick_5">
     <g id="line2d_5">
      <g>
       <use style="stroke:#000000;stroke-width:0.8;" x="235.753165" xlink:href="#m115f652c13" y="307.584"/>
      </g>
     </g>
     <g id="text_5">
      <!-- 200 -->
      <g transform="translate(226.209415 322.182437)scale(0.1 -0.1)">
       <defs>
        <path d="M 1228 531 
L 3431 531 
L 3431 0 
L 469 0 
L 469 531 
Q 828 903 1448 1529 
Q 2069 2156 2228 2338 
Q 2531 2678 2651 2914 
Q 2772 3150 2772 3378 
Q 2772 3750 2511 3984 
Q 2250 4219 1831 4219 
Q 1534 4219 1204 4116 
Q 875 4013 500 3803 
L 500 4441 
Q 881 4594 1212 4672 
Q 1544 4750 1819 4750 
Q 2544 4750 2975 4387 
Q 3406 4025 3406 3419 
Q 3406 3131 3298 2873 
Q 3191 2616 2906 2266 
Q 2828 2175 2409 1742 
Q 1991 1309 1228 531 
z
" id="DejaVuSans-32" transform="scale(0.015625)"/>
       </defs>
       <use xlink:href="#DejaVuSans-32"/>
       <use x="63.623047" xlink:href="#DejaVuSans-30"/>
       <use x="127.246094" xlink:href="#DejaVuSans-30"/>
      </g>
     </g>
    </g>
    <g id="xtick_6">
     <g id="line2d_6">
      <g>
       <use style="stroke:#000000;stroke-width:0.8;" x="276.436692" xlink:href="#m115f652c13" y="307.584"/>
      </g>
     </g>
     <g id="text_6">
      <!-- 250 -->
      <g transform="translate(266.892942 322.182437)scale(0.1 -0.1)">
       <use xlink:href="#DejaVuSans-32"/>
       <use x="63.623047" xlink:href="#DejaVuSans-35"/>
       <use x="127.246094" xlink:href="#DejaVuSans-30"/>
      </g>
     </g>
    </g>
    <g id="xtick_7">
     <g id="line2d_7">
      <g>
       <use style="stroke:#000000;stroke-width:0.8;" x="317.120219" xlink:href="#m115f652c13" y="307.584"/>
      </g>
     </g>
     <g id="text_7">
      <!-- 300 -->
      <g transform="translate(307.576469 322.182437)scale(0.1 -0.1)">
       <defs>
        <path d="M 2597 2516 
Q 3050 2419 3304 2112 
Q 3559 1806 3559 1356 
Q 3559 666 3084 287 
Q 2609 -91 1734 -91 
Q 1441 -91 1130 -33 
Q 819 25 488 141 
L 488 750 
Q 750 597 1062 519 
Q 1375 441 1716 441 
Q 2309 441 2620 675 
Q 2931 909 2931 1356 
Q 2931 1769 2642 2001 
Q 2353 2234 1838 2234 
L 1294 2234 
L 1294 2753 
L 1863 2753 
Q 2328 2753 2575 2939 
Q 2822 3125 2822 3475 
Q 2822 3834 2567 4026 
Q 2313 4219 1838 4219 
Q 1578 4219 1281 4162 
Q 984 4106 628 3988 
L 628 4550 
Q 988 4650 1302 4700 
Q 1616 4750 1894 4750 
Q 2613 4750 3031 4423 
Q 3450 4097 3450 3541 
Q 3450 3153 3228 2886 
Q 3006 2619 2597 2516 
z
" id="DejaVuSans-33" transform="scale(0.015625)"/>
       </defs>
       <use xlink:href="#DejaVuSans-33"/>
       <use x="63.623047" xlink:href="#DejaVuSans-30"/>
       <use x="127.246094" xlink:href="#DejaVuSans-30"/>
      </g>
     </g>
    </g>
    <g id="xtick_8">
     <g id="line2d_8">
      <g>
       <use style="stroke:#000000;stroke-width:0.8;" x="357.803746" xlink:href="#m115f652c13" y="307.584"/>
      </g>
     </g>
     <g id="text_8">
      <!-- 350 -->
      <g transform="translate(348.259996 322.182437)scale(0.1 -0.1)">
       <use xlink:href="#DejaVuSans-33"/>
       <use x="63.623047" xlink:href="#DejaVuSans-35"/>
       <use x="127.246094" xlink:href="#DejaVuSans-30"/>
      </g>
     </g>
    </g>
    <g id="xtick_9">
     <g id="line2d_9">
      <g>
       <use style="stroke:#000000;stroke-width:0.8;" x="398.487273" xlink:href="#m115f652c13" y="307.584"/>
      </g>
     </g>
     <g id="text_9">
      <!-- 400 -->
      <g transform="translate(388.943523 322.182437)scale(0.1 -0.1)">
       <defs>
        <path d="M 2419 4116 
L 825 1625 
L 2419 1625 
L 2419 4116 
z
M 2253 4666 
L 3047 4666 
L 3047 1625 
L 3713 1625 
L 3713 1100 
L 3047 1100 
L 3047 0 
L 2419 0 
L 2419 1100 
L 313 1100 
L 313 1709 
L 2253 4666 
z
" id="DejaVuSans-34" transform="scale(0.015625)"/>
       </defs>
       <use xlink:href="#DejaVuSans-34"/>
       <use x="63.623047" xlink:href="#DejaVuSans-30"/>
       <use x="127.246094" xlink:href="#DejaVuSans-30"/>
      </g>
     </g>
    </g>
    <g id="text_10">
     <!-- Epoch -->
     <g transform="translate(213.193594 339.659781)scale(0.15 -0.15)">
      <defs>
       <path d="M 628 4666 
L 3578 4666 
L 3578 4134 
L 1259 4134 
L 1259 2753 
L 3481 2753 
L 3481 2222 
L 1259 2222 
L 1259 531 
L 3634 531 
L 3634 0 
L 628 0 
L 628 4666 
z
" id="DejaVuSans-45" transform="scale(0.015625)"/>
       <path d="M 1159 525 
L 1159 -1331 
L 581 -1331 
L 581 3500 
L 1159 3500 
L 1159 2969 
Q 1341 3281 1617 3432 
Q 1894 3584 2278 3584 
Q 2916 3584 3314 3078 
Q 3713 2572 3713 1747 
Q 3713 922 3314 415 
Q 2916 -91 2278 -91 
Q 1894 -91 1617 61 
Q 1341 213 1159 525 
z
M 3116 1747 
Q 3116 2381 2855 2742 
Q 2594 3103 2138 3103 
Q 1681 3103 1420 2742 
Q 1159 2381 1159 1747 
Q 1159 1113 1420 752 
Q 1681 391 2138 391 
Q 2594 391 2855 752 
Q 3116 1113 3116 1747 
z
" id="DejaVuSans-70" transform="scale(0.015625)"/>
       <path d="M 1959 3097 
Q 1497 3097 1228 2736 
Q 959 2375 959 1747 
Q 959 1119 1226 758 
Q 1494 397 1959 397 
Q 2419 397 2687 759 
Q 2956 1122 2956 1747 
Q 2956 2369 2687 2733 
Q 2419 3097 1959 3097 
z
M 1959 3584 
Q 2709 3584 3137 3096 
Q 3566 2609 3566 1747 
Q 3566 888 3137 398 
Q 2709 -91 1959 -91 
Q 1206 -91 779 398 
Q 353 888 353 1747 
Q 353 2609 779 3096 
Q 1206 3584 1959 3584 
z
" id="DejaVuSans-6f" transform="scale(0.015625)"/>
       <path d="M 3122 3366 
L 3122 2828 
Q 2878 2963 2633 3030 
Q 2388 3097 2138 3097 
Q 1578 3097 1268 2742 
Q 959 2388 959 1747 
Q 959 1106 1268 751 
Q 1578 397 2138 397 
Q 2388 397 2633 464 
Q 2878 531 3122 666 
L 3122 134 
Q 2881 22 2623 -34 
Q 2366 -91 2075 -91 
Q 1284 -91 818 406 
Q 353 903 353 1747 
Q 353 2603 823 3093 
Q 1294 3584 2113 3584 
Q 2378 3584 2631 3529 
Q 2884 3475 3122 3366 
z
" id="DejaVuSans-63" transform="scale(0.015625)"/>
       <path d="M 3513 2113 
L 3513 0 
L 2938 0 
L 2938 2094 
Q 2938 2591 2744 2837 
Q 2550 3084 2163 3084 
Q 1697 3084 1428 2787 
Q 1159 2491 1159 1978 
L 1159 0 
L 581 0 
L 581 4863 
L 1159 4863 
L 1159 2956 
Q 1366 3272 1645 3428 
Q 1925 3584 2291 3584 
Q 2894 3584 3203 3211 
Q 3513 2838 3513 2113 
z
" id="DejaVuSans-68" transform="scale(0.015625)"/>
      </defs>
      <use xlink:href="#DejaVuSans-45"/>
      <use x="63.183594" xlink:href="#DejaVuSans-70"/>
      <use x="126.660156" xlink:href="#DejaVuSans-6f"/>
      <use x="187.841797" xlink:href="#DejaVuSans-63"/>
      <use x="242.822266" xlink:href="#DejaVuSans-68"/>
     </g>
    </g>
   </g>
   <g id="matplotlib.axis_2">
    <g id="ytick_1">
     <g id="line2d_10">
      <defs>
       <path d="M 0 0 
L -3.5 0 
" id="m406ab5bb15" style="stroke:#000000;stroke-width:0.8;"/>
      </defs>
      <g>
       <use style="stroke:#000000;stroke-width:0.8;" x="57.6" xlink:href="#m406ab5bb15" y="278.80738"/>
      </g>
     </g>
     <g id="text_11">
      <!-- −1200 -->
      <g transform="translate(16.770313 282.606599)scale(0.1 -0.1)">
       <defs>
        <path d="M 678 2272 
L 4684 2272 
L 4684 1741 
L 678 1741 
L 678 2272 
z
" id="DejaVuSans-2212" transform="scale(0.015625)"/>
       </defs>
       <use xlink:href="#DejaVuSans-2212"/>
       <use x="83.789062" xlink:href="#DejaVuSans-31"/>
       <use x="147.412109" xlink:href="#DejaVuSans-32"/>
       <use x="211.035156" xlink:href="#DejaVuSans-30"/>
       <use x="274.658203" xlink:href="#DejaVuSans-30"/>
      </g>
     </g>
    </g>
    <g id="ytick_2">
     <g id="line2d_11">
      <g>
       <use style="stroke:#000000;stroke-width:0.8;" x="57.6" xlink:href="#m406ab5bb15" y="241.120808"/>
      </g>
     </g>
     <g id="text_12">
      <!-- −1000 -->
      <g transform="translate(16.770313 244.920027)scale(0.1 -0.1)">
       <use xlink:href="#DejaVuSans-2212"/>
       <use x="83.789062" xlink:href="#DejaVuSans-31"/>
       <use x="147.412109" xlink:href="#DejaVuSans-30"/>
       <use x="211.035156" xlink:href="#DejaVuSans-30"/>
       <use x="274.658203" xlink:href="#DejaVuSans-30"/>
      </g>
     </g>
    </g>
    <g id="ytick_3">
     <g id="line2d_12">
      <g>
       <use style="stroke:#000000;stroke-width:0.8;" x="57.6" xlink:href="#m406ab5bb15" y="203.434235"/>
      </g>
     </g>
     <g id="text_13">
      <!-- −800 -->
      <g transform="translate(23.132812 207.233454)scale(0.1 -0.1)">
       <defs>
        <path d="M 2034 2216 
Q 1584 2216 1326 1975 
Q 1069 1734 1069 1313 
Q 1069 891 1326 650 
Q 1584 409 2034 409 
Q 2484 409 2743 651 
Q 3003 894 3003 1313 
Q 3003 1734 2745 1975 
Q 2488 2216 2034 2216 
z
M 1403 2484 
Q 997 2584 770 2862 
Q 544 3141 544 3541 
Q 544 4100 942 4425 
Q 1341 4750 2034 4750 
Q 2731 4750 3128 4425 
Q 3525 4100 3525 3541 
Q 3525 3141 3298 2862 
Q 3072 2584 2669 2484 
Q 3125 2378 3379 2068 
Q 3634 1759 3634 1313 
Q 3634 634 3220 271 
Q 2806 -91 2034 -91 
Q 1263 -91 848 271 
Q 434 634 434 1313 
Q 434 1759 690 2068 
Q 947 2378 1403 2484 
z
M 1172 3481 
Q 1172 3119 1398 2916 
Q 1625 2713 2034 2713 
Q 2441 2713 2670 2916 
Q 2900 3119 2900 3481 
Q 2900 3844 2670 4047 
Q 2441 4250 2034 4250 
Q 1625 4250 1398 4047 
Q 1172 3844 1172 3481 
z
" id="DejaVuSans-38" transform="scale(0.015625)"/>
       </defs>
       <use xlink:href="#DejaVuSans-2212"/>
       <use x="83.789062" xlink:href="#DejaVuSans-38"/>
       <use x="147.412109" xlink:href="#DejaVuSans-30"/>
       <use x="211.035156" xlink:href="#DejaVuSans-30"/>
      </g>
     </g>
    </g>
    <g id="ytick_4">
     <g id="line2d_13">
      <g>
       <use style="stroke:#000000;stroke-width:0.8;" x="57.6" xlink:href="#m406ab5bb15" y="165.747663"/>
      </g>
     </g>
     <g id="text_14">
      <!-- −600 -->
      <g transform="translate(23.132812 169.546882)scale(0.1 -0.1)">
       <defs>
        <path d="M 2113 2584 
Q 1688 2584 1439 2293 
Q 1191 2003 1191 1497 
Q 1191 994 1439 701 
Q 1688 409 2113 409 
Q 2538 409 2786 701 
Q 3034 994 3034 1497 
Q 3034 2003 2786 2293 
Q 2538 2584 2113 2584 
z
M 3366 4563 
L 3366 3988 
Q 3128 4100 2886 4159 
Q 2644 4219 2406 4219 
Q 1781 4219 1451 3797 
Q 1122 3375 1075 2522 
Q 1259 2794 1537 2939 
Q 1816 3084 2150 3084 
Q 2853 3084 3261 2657 
Q 3669 2231 3669 1497 
Q 3669 778 3244 343 
Q 2819 -91 2113 -91 
Q 1303 -91 875 529 
Q 447 1150 447 2328 
Q 447 3434 972 4092 
Q 1497 4750 2381 4750 
Q 2619 4750 2861 4703 
Q 3103 4656 3366 4563 
z
" id="DejaVuSans-36" transform="scale(0.015625)"/>
       </defs>
       <use xlink:href="#DejaVuSans-2212"/>
       <use x="83.789062" xlink:href="#DejaVuSans-36"/>
       <use x="147.412109" xlink:href="#DejaVuSans-30"/>
       <use x="211.035156" xlink:href="#DejaVuSans-30"/>
      </g>
     </g>
    </g>
    <g id="ytick_5">
     <g id="line2d_14">
      <g>
       <use style="stroke:#000000;stroke-width:0.8;" x="57.6" xlink:href="#m406ab5bb15" y="128.06109"/>
      </g>
     </g>
     <g id="text_15">
      <!-- −400 -->
      <g transform="translate(23.132812 131.860309)scale(0.1 -0.1)">
       <use xlink:href="#DejaVuSans-2212"/>
       <use x="83.789062" xlink:href="#DejaVuSans-34"/>
       <use x="147.412109" xlink:href="#DejaVuSans-30"/>
       <use x="211.035156" xlink:href="#DejaVuSans-30"/>
      </g>
     </g>
    </g>
    <g id="ytick_6">
     <g id="line2d_15">
      <g>
       <use style="stroke:#000000;stroke-width:0.8;" x="57.6" xlink:href="#m406ab5bb15" y="90.374518"/>
      </g>
     </g>
     <g id="text_16">
      <!-- −200 -->
      <g transform="translate(23.132812 94.173736)scale(0.1 -0.1)">
       <use xlink:href="#DejaVuSans-2212"/>
       <use x="83.789062" xlink:href="#DejaVuSans-32"/>
       <use x="147.412109" xlink:href="#DejaVuSans-30"/>
       <use x="211.035156" xlink:href="#DejaVuSans-30"/>
      </g>
     </g>
    </g>
    <g id="ytick_7">
     <g id="line2d_16">
      <g>
       <use style="stroke:#000000;stroke-width:0.8;" x="57.6" xlink:href="#m406ab5bb15" y="52.687945"/>
      </g>
     </g>
     <g id="text_17">
      <!-- 0 -->
      <g transform="translate(44.2375 56.487164)scale(0.1 -0.1)">
       <use xlink:href="#DejaVuSans-30"/>
      </g>
     </g>
    </g>
    <g id="text_18">
     <!-- Loss -->
     <g transform="translate(9.650781 190.978781)rotate(-90)scale(0.15 -0.15)">
      <defs>
       <path d="M 628 4666 
L 1259 4666 
L 1259 531 
L 3531 531 
L 3531 0 
L 628 0 
L 628 4666 
z
" id="DejaVuSans-4c" transform="scale(0.015625)"/>
       <path d="M 2834 3397 
L 2834 2853 
Q 2591 2978 2328 3040 
Q 2066 3103 1784 3103 
Q 1356 3103 1142 2972 
Q 928 2841 928 2578 
Q 928 2378 1081 2264 
Q 1234 2150 1697 2047 
L 1894 2003 
Q 2506 1872 2764 1633 
Q 3022 1394 3022 966 
Q 3022 478 2636 193 
Q 2250 -91 1575 -91 
Q 1294 -91 989 -36 
Q 684 19 347 128 
L 347 722 
Q 666 556 975 473 
Q 1284 391 1588 391 
Q 1994 391 2212 530 
Q 2431 669 2431 922 
Q 2431 1156 2273 1281 
Q 2116 1406 1581 1522 
L 1381 1569 
Q 847 1681 609 1914 
Q 372 2147 372 2553 
Q 372 3047 722 3315 
Q 1072 3584 1716 3584 
Q 2034 3584 2315 3537 
Q 2597 3491 2834 3397 
z
" id="DejaVuSans-73" transform="scale(0.015625)"/>
      </defs>
      <use xlink:href="#DejaVuSans-4c"/>
      <use x="53.962891" xlink:href="#DejaVuSans-6f"/>
      <use x="115.144531" xlink:href="#DejaVuSans-73"/>
      <use x="167.244141" xlink:href="#DejaVuSans-73"/>
     </g>
    </g>
   </g>
   <g id="line2d_17">
    <path clip-path="url(#pf41cd1edd3)" d="M 73.832727 73.336705 
L 74.646398 106.772732 
L 75.460068 125.370061 
L 76.273739 130.663116 
L 77.087409 133.522128 
L 77.90108 149.173425 
L 78.714751 146.943527 
L 79.528421 148.679009 
L 80.342092 166.302759 
L 81.155762 155.963633 
L 81.969433 172.476858 
L 82.783103 175.486507 
L 83.596774 185.46482 
L 84.410444 198.764407 
L 85.224115 194.671756 
L 86.851456 212.966425 
L 87.665126 214.750121 
L 88.478797 205.184241 
L 89.292468 229.430154 
L 90.106138 219.071636 
L 90.919809 225.588488 
L 91.733479 218.628444 
L 92.54715 222.731598 
L 93.36082 221.02927 
L 94.988161 233.332508 
L 95.801832 225.383476 
L 96.615502 228.272339 
L 97.429173 236.332236 
L 98.242843 233.184102 
L 99.056514 228.351958 
L 99.870185 225.993999 
L 100.683855 230.45571 
L 101.497526 230.252626 
L 102.311196 233.409188 
L 103.124867 237.746098 
L 103.938537 228.857806 
L 104.752208 232.467335 
L 105.565878 237.605291 
L 106.379549 231.856042 
L 107.193219 228.936743 
L 108.00689 226.441194 
L 108.82056 240.939529 
L 109.634231 240.259378 
L 110.447902 237.617349 
L 111.261572 239.516554 
L 112.075243 232.050326 
L 112.888913 239.56774 
L 113.702584 236.591301 
L 114.516254 242.307915 
L 115.329925 244.56901 
L 116.143595 245.955309 
L 116.957266 239.077127 
L 117.770936 234.91612 
L 118.584607 240.321784 
L 119.398278 237.790854 
L 120.211948 241.919623 
L 121.025619 235.942076 
L 121.839289 240.3926 
L 122.65296 238.066278 
L 123.46663 240.20989 
L 124.280301 226.346741 
L 125.093971 230.383957 
L 125.907642 242.404693 
L 126.721312 237.67709 
L 127.534983 244.479877 
L 128.348653 244.409464 
L 129.162324 244.208246 
L 129.975995 245.207945 
L 130.789665 234.722783 
L 131.603336 243.490869 
L 132.417006 236.972255 
L 133.230677 235.342327 
L 134.044347 242.329728 
L 134.858018 245.223957 
L 135.671688 237.470945 
L 136.485359 242.969744 
L 137.299029 247.26092 
L 138.1127 240.61532 
L 138.92637 235.926129 
L 139.740041 240.408822 
L 140.553712 246.241645 
L 141.367382 233.294712 
L 142.181053 237.736837 
L 142.994723 237.447799 
L 143.808394 240.41612 
L 144.622064 240.521346 
L 145.435735 240.433117 
L 146.249405 237.790227 
L 147.063076 236.665051 
L 147.876746 251.829919 
L 148.690417 255.38867 
L 149.504087 245.525777 
L 150.317758 243.466096 
L 151.131429 245.787999 
L 151.945099 246.66185 
L 153.57244 240.369131 
L 154.386111 250.855009 
L 155.199781 242.424187 
L 156.013452 245.948946 
L 156.827122 239.463584 
L 157.640793 249.914384 
L 158.454463 241.888692 
L 159.268134 250.558479 
L 160.081805 250.711979 
L 160.895475 251.898256 
L 161.709146 242.663942 
L 162.522816 249.250908 
L 163.336487 244.718101 
L 164.150157 237.248215 
L 164.963828 253.56816 
L 165.777498 240.18513 
L 166.591169 239.468574 
L 168.21851 250.400212 
L 169.03218 241.74828 
L 169.845851 254.690742 
L 170.659522 243.406115 
L 171.473192 246.351483 
L 172.286863 250.651401 
L 173.100533 256.241361 
L 173.914204 249.407384 
L 174.727874 255.323461 
L 175.541545 248.199935 
L 176.355215 247.341564 
L 177.168886 243.21359 
L 177.982556 243.11135 
L 178.796227 241.907999 
L 179.609897 255.88959 
L 180.423568 252.838825 
L 181.237239 253.209765 
L 182.050909 255.130808 
L 182.86458 251.011265 
L 183.67825 250.579239 
L 184.491921 254.648804 
L 185.305591 241.311622 
L 186.119262 240.886815 
L 186.932932 251.683141 
L 187.746603 247.612833 
L 188.560273 253.407591 
L 189.373944 252.770356 
L 190.187614 244.607648 
L 191.001285 239.678296 
L 191.814956 243.769333 
L 192.628626 245.878054 
L 193.442297 259.236726 
L 194.255967 250.413111 
L 195.069638 255.199272 
L 195.883308 255.676116 
L 196.696979 255.375772 
L 198.32432 247.165174 
L 199.13799 250.973115 
L 199.951661 249.038377 
L 200.765332 243.835019 
L 201.579002 247.967014 
L 202.392673 262.516709 
L 203.206343 259.310084 
L 204.020014 254.47314 
L 204.833684 264.308307 
L 205.647355 245.678893 
L 206.461025 244.783759 
L 207.274696 252.881462 
L 208.088366 254.980634 
L 208.902037 249.620789 
L 209.715707 252.086261 
L 210.529378 249.349227 
L 211.343049 256.727398 
L 212.156719 253.857658 
L 212.97039 260.554553 
L 213.78406 251.71666 
L 214.597731 257.334184 
L 215.411401 252.491839 
L 216.225072 253.451761 
L 217.038742 252.966816 
L 217.852413 263.736753 
L 218.666083 250.252765 
L 219.479754 260.598669 
L 220.293424 259.481332 
L 221.107095 257.443553 
L 221.920766 252.571448 
L 222.734436 256.088644 
L 223.548107 260.638089 
L 224.361777 252.358017 
L 225.175448 257.269806 
L 225.989118 250.635716 
L 226.802789 252.745661 
L 227.616459 253.083947 
L 228.43013 251.624192 
L 229.2438 254.250787 
L 230.057471 256.070546 
L 230.871141 251.654066 
L 231.684812 261.050009 
L 232.498483 253.203206 
L 233.312153 251.697657 
L 234.125824 261.864798 
L 234.939494 259.810007 
L 235.753165 254.507602 
L 236.566835 250.509241 
L 237.380506 256.803039 
L 238.194176 260.277756 
L 239.007847 257.584469 
L 239.821517 255.784649 
L 240.635188 247.682669 
L 241.448859 245.628309 
L 242.262529 253.514005 
L 243.0762 259.398289 
L 243.88987 255.153183 
L 244.703541 259.528234 
L 246.330882 255.19244 
L 247.144552 253.755196 
L 247.958223 256.397464 
L 248.771893 258.349338 
L 249.585564 247.853937 
L 250.399234 248.885526 
L 251.212905 249.631523 
L 252.026576 246.047519 
L 252.840246 256.965396 
L 253.653917 250.580037 
L 254.467587 252.987435 
L 255.281258 256.447602 
L 256.094928 258.468271 
L 257.722269 249.520369 
L 258.53594 256.948867 
L 259.34961 261.174673 
L 260.163281 248.426849 
L 260.976951 248.498653 
L 261.790622 260.782451 
L 262.604293 252.337223 
L 263.417963 257.503603 
L 264.231634 258.374524 
L 265.045304 266.971926 
L 265.858975 259.603954 
L 266.672645 246.63827 
L 267.486316 255.55713 
L 268.299986 255.706833 
L 269.113657 249.647216 
L 269.927327 257.509452 
L 270.740998 253.117919 
L 271.554668 253.02402 
L 272.368339 256.598724 
L 273.18201 257.55249 
L 273.99568 255.668088 
L 274.809351 256.060109 
L 275.623021 257.21885 
L 276.436692 265.529886 
L 277.250362 263.570576 
L 278.064033 272.652661 
L 278.877703 254.860636 
L 279.691374 251.605076 
L 280.505044 256.797426 
L 281.318715 256.547263 
L 282.132386 254.770034 
L 282.946056 255.486927 
L 283.759727 254.066 
L 284.573397 258.934314 
L 285.387068 258.212087 
L 286.200738 262.122457 
L 287.014409 255.572228 
L 287.828079 247.52664 
L 288.64175 259.761534 
L 289.45542 257.284984 
L 290.269091 263.039351 
L 291.082761 255.267927 
L 291.896432 263.835179 
L 292.710103 250.387966 
L 293.523773 250.565758 
L 294.337444 251.720289 
L 295.151114 258.017836 
L 295.964785 260.197467 
L 296.778455 263.044325 
L 297.592126 268.54583 
L 298.405796 255.612605 
L 299.219467 264.082128 
L 300.846808 266.721073 
L 301.660478 245.513009 
L 302.474149 260.539184 
L 303.28782 267.526899 
L 304.10149 252.842882 
L 304.915161 257.143922 
L 305.728831 253.365707 
L 306.542502 259.540708 
L 307.356172 255.999412 
L 308.169843 256.058109 
L 308.983513 240.583608 
L 309.797184 252.030091 
L 310.610854 249.998738 
L 311.424525 263.530444 
L 312.238195 260.301717 
L 313.051866 247.357807 
L 313.865537 258.675917 
L 314.679207 250.182163 
L 315.492878 246.700843 
L 316.306548 258.798079 
L 317.120219 257.053931 
L 317.933889 245.318379 
L 318.74756 249.272414 
L 319.56123 263.895836 
L 320.374901 274.279968 
L 321.188571 259.748701 
L 322.002242 259.418007 
L 322.815913 262.261573 
L 323.629583 254.414059 
L 324.443254 256.095654 
L 326.070595 268.915331 
L 326.884265 253.893769 
L 327.697936 266.11766 
L 328.511606 257.108018 
L 329.325277 250.618225 
L 330.138947 251.276603 
L 330.952618 253.296637 
L 331.766288 258.761233 
L 332.579959 258.40948 
L 333.39363 265.49081 
L 334.2073 257.59009 
L 335.020971 260.021441 
L 335.834641 253.21556 
L 336.648312 271.424749 
L 337.461982 260.468782 
L 338.275653 247.01241 
L 339.089323 255.085247 
L 339.902994 266.992063 
L 340.716664 260.116252 
L 341.530335 251.862058 
L 343.157676 259.639595 
L 343.971347 260.189888 
L 344.785017 260.93138 
L 345.598688 257.959737 
L 346.412358 253.199862 
L 347.226029 257.406218 
L 348.039699 255.592573 
L 348.85337 254.433556 
L 349.66704 255.431022 
L 350.480711 253.086307 
L 351.294381 263.666338 
L 352.108052 265.189015 
L 352.921722 253.397113 
L 353.735393 247.919036 
L 354.549064 258.305769 
L 355.362734 259.247755 
L 356.176405 247.798219 
L 356.990075 261.401325 
L 358.617416 263.683852 
L 359.431087 261.542391 
L 360.244757 257.673213 
L 361.058428 252.335085 
L 361.872098 261.876792 
L 362.685769 257.407709 
L 363.49944 254.86069 
L 364.31311 254.253066 
L 365.126781 264.699925 
L 365.940451 251.434402 
L 366.754122 255.112783 
L 367.567792 255.021805 
L 368.381463 255.199418 
L 369.195133 264.433524 
L 370.008804 259.140909 
L 370.822474 251.05545 
L 371.636145 247.002036 
L 372.449815 255.84008 
L 373.263486 262.950344 
L 374.077157 266.387064 
L 375.704498 250.310381 
L 376.518168 252.423898 
L 377.331839 257.083546 
L 378.145509 264.495325 
L 378.95918 264.250159 
L 379.77285 255.939245 
L 380.586521 264.912317 
L 381.400191 262.012017 
L 382.213862 263.114331 
L 383.027532 265.739523 
L 383.841203 263.118994 
L 384.654874 254.573153 
L 385.468544 249.588398 
L 386.282215 260.873334 
L 387.095885 251.462577 
L 387.909556 261.10403 
L 388.723226 257.267999 
L 389.536897 256.814166 
L 390.350567 254.682738 
L 391.164238 264.522326 
L 391.977908 262.687428 
L 392.791579 256.715004 
L 393.605249 261.310754 
L 394.41892 250.664976 
L 395.232591 255.010084 
L 396.046261 251.439989 
L 396.859932 264.59515 
L 397.673602 255.632212 
L 398.487273 261.918189 
L 398.487273 261.918189 
" style="fill:none;stroke:#1f77b4;stroke-linecap:square;stroke-width:1.5;"/>
   </g>
   <g id="line2d_18">
    <path clip-path="url(#pf41cd1edd3)" d="M 73.832727 53.568 
L 74.646398 102.224145 
L 75.460068 117.478056 
L 77.087409 129.042925 
L 77.90108 137.802727 
L 78.714751 144.870745 
L 79.528421 144.698221 
L 80.342092 149.307166 
L 81.155762 151.878825 
L 81.969433 159.74802 
L 82.783103 166.105685 
L 83.596774 180.753794 
L 84.410444 172.067506 
L 85.224115 192.762589 
L 86.037785 201.225851 
L 86.851456 206.03861 
L 87.665126 196.528942 
L 88.478797 210.039805 
L 89.292468 213.581865 
L 90.106138 205.194298 
L 90.919809 210.213161 
L 91.733479 205.167044 
L 92.54715 217.243989 
L 93.36082 215.622409 
L 94.174491 221.605213 
L 94.988161 214.910737 
L 95.801832 222.500122 
L 96.615502 228.990067 
L 97.429173 227.501036 
L 98.242843 224.993342 
L 99.056514 221.959884 
L 99.870185 230.366818 
L 100.683855 231.9774 
L 101.497526 216.544731 
L 102.311196 217.574197 
L 103.124867 228.126278 
L 103.938537 229.813659 
L 104.752208 234.541583 
L 105.565878 227.673546 
L 107.193219 235.437141 
L 108.00689 232.989626 
L 108.82056 222.295226 
L 109.634231 235.097875 
L 110.447902 224.818401 
L 111.261572 233.831243 
L 112.075243 244.614952 
L 112.888913 229.223258 
L 113.702584 237.1506 
L 114.516254 234.850021 
L 115.329925 235.795841 
L 116.143595 234.031241 
L 116.957266 235.504089 
L 117.770936 248.645248 
L 119.398278 237.244722 
L 120.211948 235.822824 
L 121.025619 233.837717 
L 121.839289 244.541304 
L 122.65296 239.872892 
L 123.46663 230.42297 
L 124.280301 247.823563 
L 125.907642 232.597617 
L 126.721312 237.299485 
L 127.534983 239.049982 
L 128.348653 249.672653 
L 129.162324 244.444877 
L 129.975995 244.211807 
L 130.789665 249.126689 
L 131.603336 237.225854 
L 132.417006 245.921974 
L 133.230677 244.644816 
L 134.044347 246.496229 
L 134.858018 233.217688 
L 135.671688 246.221655 
L 136.485359 248.792372 
L 137.299029 250.480091 
L 138.1127 246.522618 
L 138.92637 248.346266 
L 139.740041 240.98932 
L 140.553712 250.922196 
L 141.367382 252.303803 
L 142.181053 237.501802 
L 142.994723 240.38155 
L 143.808394 243.830713 
L 144.622064 242.64807 
L 145.435735 235.361346 
L 146.249405 246.733673 
L 147.063076 238.29731 
L 147.876746 236.868477 
L 148.690417 240.306367 
L 149.504087 237.182362 
L 150.317758 247.863601 
L 151.131429 244.649453 
L 151.945099 245.396411 
L 152.75877 240.097024 
L 153.57244 238.98083 
L 154.386111 235.333887 
L 155.199781 244.712431 
L 156.013452 243.462169 
L 156.827122 241.609707 
L 157.640793 239.293975 
L 158.454463 248.373987 
L 159.268134 244.372522 
L 160.081805 244.700933 
L 160.895475 237.537688 
L 161.709146 243.610469 
L 162.522816 243.918654 
L 163.336487 244.629097 
L 164.150157 248.104709 
L 164.963828 244.132082 
L 165.777498 241.036203 
L 166.591169 243.713741 
L 167.404839 231.365956 
L 168.21851 239.649713 
L 169.03218 236.162349 
L 169.845851 241.632146 
L 170.659522 234.16811 
L 171.473192 242.500018 
L 172.286863 243.817681 
L 173.100533 243.954817 
L 173.914204 250.521504 
L 174.727874 241.998391 
L 175.541545 243.805469 
L 176.355215 251.001705 
L 177.168886 246.060248 
L 177.982556 245.693334 
L 178.796227 242.66234 
L 179.609897 249.585869 
L 180.423568 242.483308 
L 181.237239 247.340124 
L 182.050909 243.328394 
L 182.86458 246.318149 
L 183.67825 251.958591 
L 184.491921 256.158084 
L 185.305591 245.436526 
L 186.119262 250.555106 
L 186.932932 250.020293 
L 187.746603 248.193689 
L 188.560273 247.776059 
L 189.373944 252.784127 
L 190.187614 253.352647 
L 191.001285 252.292939 
L 191.814956 255.590519 
L 192.628626 254.786145 
L 193.442297 251.363843 
L 194.255967 246.973657 
L 195.069638 249.791909 
L 195.883308 253.105491 
L 196.696979 255.157854 
L 197.510649 236.985546 
L 198.32432 253.575993 
L 199.13799 252.78364 
L 199.951661 244.887213 
L 200.765332 253.646082 
L 201.579002 243.559064 
L 202.392673 244.205872 
L 203.206343 247.669522 
L 204.020014 242.189978 
L 204.833684 246.010024 
L 205.647355 247.072992 
L 207.274696 253.652952 
L 208.088366 261.130394 
L 208.902037 228.901755 
L 209.715707 244.376582 
L 210.529378 263.213986 
L 212.156719 249.380431 
L 212.97039 250.830225 
L 213.78406 247.274253 
L 214.597731 250.479172 
L 215.411401 247.563732 
L 216.225072 257.230882 
L 217.038742 252.608023 
L 217.852413 255.61027 
L 218.666083 261.711779 
L 219.479754 256.662651 
L 220.293424 255.305099 
L 221.107095 239.947081 
L 221.920766 249.147997 
L 222.734436 253.819494 
L 223.548107 257.712704 
L 224.361777 256.998464 
L 225.989118 242.708064 
L 226.802789 244.864985 
L 227.616459 262.355144 
L 228.43013 253.780412 
L 229.2438 248.785518 
L 230.057471 259.729947 
L 230.871141 251.569044 
L 231.684812 255.240579 
L 232.498483 267.65604 
L 233.312153 237.951776 
L 234.125824 261.883265 
L 234.939494 251.107552 
L 235.753165 258.028114 
L 236.566835 251.996661 
L 237.380506 260.123469 
L 238.194176 254.098788 
L 239.007847 249.295759 
L 239.821517 251.494668 
L 240.635188 247.228027 
L 241.448859 260.231476 
L 242.262529 263.547462 
L 243.0762 261.386478 
L 243.88987 257.820706 
L 244.703541 253.604324 
L 245.517211 247.661553 
L 246.330882 246.403707 
L 247.144552 256.893284 
L 247.958223 247.705079 
L 248.771893 258.180497 
L 249.585564 246.577085 
L 250.399234 265.652862 
L 251.212905 245.728077 
L 252.026576 249.403819 
L 252.840246 252.426364 
L 253.653917 248.674092 
L 254.467587 254.767082 
L 255.281258 255.678503 
L 256.094928 265.322048 
L 256.908599 253.853344 
L 257.722269 252.477288 
L 258.53594 261.890817 
L 259.34961 260.546482 
L 260.163281 245.730845 
L 260.976951 255.190724 
L 261.790622 249.51621 
L 262.604293 256.382364 
L 263.417963 252.519055 
L 264.231634 260.452609 
L 265.045304 249.29044 
L 265.858975 258.572532 
L 266.672645 248.171511 
L 267.486316 255.026298 
L 268.299986 249.992221 
L 269.113657 249.718943 
L 269.927327 253.311819 
L 270.740998 253.775066 
L 271.554668 267.846959 
L 272.368339 241.572732 
L 273.18201 251.418316 
L 273.99568 247.896037 
L 274.809351 257.288216 
L 275.623021 248.025977 
L 276.436692 260.825922 
L 278.064033 253.645451 
L 278.877703 247.265244 
L 279.691374 263.380806 
L 280.505044 247.037529 
L 281.318715 255.099414 
L 282.132386 258.03119 
L 282.946056 262.863405 
L 283.759727 256.871571 
L 284.573397 255.16089 
L 285.387068 247.357343 
L 286.200738 255.795485 
L 287.014409 252.551067 
L 287.828079 263.159254 
L 288.64175 265.93616 
L 289.45542 261.904051 
L 290.269091 253.893492 
L 291.082761 247.741408 
L 291.896432 255.86392 
L 292.710103 249.916612 
L 293.523773 265.21326 
L 294.337444 269.843117 
L 295.151114 275.848476 
L 295.964785 270.472061 
L 296.778455 259.243774 
L 297.592126 260.039391 
L 298.405796 262.476781 
L 299.219467 256.635119 
L 300.033137 257.310816 
L 300.846808 248.674957 
L 301.660478 267.785705 
L 303.28782 255.8895 
L 304.10149 261.805038 
L 304.915161 262.614571 
L 305.728831 256.739447 
L 306.542502 264.374144 
L 307.356172 269.482037 
L 308.169843 256.771061 
L 308.983513 262.480529 
L 309.797184 241.848151 
L 310.610854 257.773436 
L 311.424525 252.169928 
L 312.238195 253.253347 
L 313.865537 244.056087 
L 315.492878 261.23882 
L 316.306548 261.0367 
L 317.120219 248.589592 
L 317.933889 251.639623 
L 318.74756 250.796413 
L 319.56123 254.067607 
L 320.374901 264.562618 
L 321.188571 271.075502 
L 322.002242 257.281575 
L 322.815913 256.16812 
L 323.629583 256.059355 
L 324.443254 256.316999 
L 325.256924 255.955251 
L 326.070595 253.583113 
L 326.884265 255.665272 
L 327.697936 258.208617 
L 328.511606 256.120816 
L 329.325277 258.943232 
L 330.138947 262.426255 
L 330.952618 261.86903 
L 331.766288 250.43015 
L 332.579959 266.547781 
L 333.39363 250.070448 
L 334.2073 257.907437 
L 335.020971 252.087991 
L 335.834641 270.12141 
L 336.648312 261.330363 
L 338.275653 258.470415 
L 339.902994 262.873332 
L 340.716664 261.439482 
L 341.530335 264.137376 
L 342.344005 264.599711 
L 343.157676 260.124881 
L 343.971347 263.140007 
L 344.785017 252.472904 
L 345.598688 265.992343 
L 346.412358 260.144405 
L 347.226029 255.429109 
L 348.039699 257.538224 
L 348.85337 261.003628 
L 349.66704 253.625383 
L 350.480711 261.608568 
L 351.294381 262.621747 
L 352.108052 261.176364 
L 352.921722 252.244585 
L 353.735393 263.968514 
L 354.549064 253.522699 
L 355.362734 256.381221 
L 356.176405 263.726213 
L 356.990075 261.81071 
L 357.803746 252.250493 
L 358.617416 262.41024 
L 359.431087 263.430231 
L 360.244757 253.40636 
L 361.058428 266.509647 
L 361.872098 260.558348 
L 362.685769 251.587608 
L 363.49944 260.236181 
L 364.31311 267.33872 
L 365.126781 251.578376 
L 365.940451 258.615548 
L 366.754122 257.829188 
L 367.567792 257.280119 
L 368.381463 258.275521 
L 369.195133 255.763266 
L 370.008804 263.786387 
L 370.822474 258.692927 
L 371.636145 263.270307 
L 372.449815 249.764029 
L 373.263486 251.211161 
L 374.077157 252.146992 
L 374.890827 257.10851 
L 375.704498 267.329569 
L 376.518168 264.695897 
L 377.331839 257.34537 
L 378.145509 268.32892 
L 378.95918 250.612795 
L 379.77285 263.960391 
L 380.586521 266.496526 
L 381.400191 264.69005 
L 382.213862 264.307082 
L 383.027532 268.72026 
L 383.841203 250.146079 
L 384.654874 267.851893 
L 385.468544 271.582226 
L 386.282215 264.500807 
L 387.095885 261.92929 
L 387.909556 250.85716 
L 388.723226 258.959813 
L 389.536897 255.154941 
L 390.350567 266.228674 
L 391.164238 263.619756 
L 391.977908 254.407777 
L 392.791579 261.051973 
L 393.605249 263.647042 
L 394.41892 262.101159 
L 395.232591 262.078414 
L 396.046261 260.204597 
L 396.859932 253.13059 
L 397.673602 261.739357 
L 398.487273 265.170276 
L 398.487273 265.170276 
" style="fill:none;stroke:#ff7f0e;stroke-dasharray:5.55,2.4;stroke-dashoffset:0;stroke-width:1.5;"/>
   </g>
   <g id="line2d_19">
    <path clip-path="url(#pf41cd1edd3)" d="M 73.832727 69.818307 
L 74.646398 119.489279 
L 75.460068 124.342698 
L 76.273739 124.533817 
L 77.087409 150.943934 
L 77.90108 155.206315 
L 79.528421 183.806544 
L 80.342092 177.125185 
L 81.155762 216.050815 
L 81.969433 209.655229 
L 82.783103 214.047203 
L 83.596774 222.575085 
L 84.410444 229.641608 
L 85.224115 220.907494 
L 86.037785 231.708718 
L 86.851456 236.548259 
L 87.665126 239.505094 
L 88.478797 245.30184 
L 89.292468 231.065115 
L 90.106138 236.143052 
L 90.919809 239.425031 
L 91.733479 226.784453 
L 92.54715 237.111383 
L 93.36082 232.695849 
L 94.174491 236.475323 
L 94.988161 236.767556 
L 95.801832 235.53056 
L 96.615502 243.592438 
L 97.429173 235.631348 
L 98.242843 243.877533 
L 99.056514 228.425227 
L 99.870185 243.062577 
L 100.683855 249.073291 
L 101.497526 250.018788 
L 102.311196 246.348885 
L 103.124867 250.579153 
L 103.938537 244.073109 
L 104.752208 240.322183 
L 105.565878 242.669171 
L 106.379549 250.388959 
L 107.193219 238.503592 
L 108.00689 241.628372 
L 108.82056 256.171315 
L 109.634231 260.966528 
L 110.447902 259.134676 
L 111.261572 247.977832 
L 112.075243 262.083193 
L 112.888913 255.330329 
L 113.702584 245.985866 
L 114.516254 241.653785 
L 116.143595 257.19683 
L 116.957266 262.77503 
L 117.770936 242.674154 
L 118.584607 258.128712 
L 119.398278 236.489803 
L 120.211948 251.44268 
L 121.025619 246.007456 
L 121.839289 257.870301 
L 122.65296 239.78842 
L 123.46663 248.743488 
L 124.280301 265.879671 
L 125.093971 252.782623 
L 125.907642 249.470993 
L 126.721312 254.361896 
L 127.534983 246.002551 
L 128.348653 267.932522 
L 129.162324 266.068291 
L 129.975995 257.305221 
L 130.789665 267.271012 
L 131.603336 247.276847 
L 132.417006 244.519919 
L 133.230677 259.141437 
L 134.044347 245.416854 
L 134.858018 250.696962 
L 135.671688 261.288828 
L 136.485359 261.450718 
L 137.299029 245.759568 
L 138.1127 269.622341 
L 138.92637 252.402575 
L 139.740041 260.332614 
L 140.553712 251.467798 
L 141.367382 252.386189 
L 142.181053 257.542528 
L 142.994723 239.939559 
L 143.808394 252.489724 
L 144.622064 260.106073 
L 145.435735 266.358316 
L 146.249405 250.10868 
L 147.063076 256.523214 
L 147.876746 251.225651 
L 148.690417 255.022532 
L 149.504087 262.247699 
L 150.317758 248.919638 
L 151.131429 262.548139 
L 151.945099 258.018644 
L 152.75877 263.137071 
L 153.57244 249.177732 
L 154.386111 261.073433 
L 155.199781 265.929727 
L 156.013452 263.958921 
L 156.827122 265.877089 
L 158.454463 255.152676 
L 159.268134 269.559333 
L 160.081805 257.666958 
L 160.895475 251.193279 
L 161.709146 260.5929 
L 162.522816 257.23373 
L 163.336487 258.473399 
L 164.963828 256.504314 
L 165.777498 270.274955 
L 166.591169 261.745596 
L 167.404839 255.662001 
L 168.21851 256.800854 
L 169.03218 257.370755 
L 169.845851 260.172438 
L 170.659522 265.09951 
L 171.473192 267.62482 
L 173.100533 256.255062 
L 173.914204 255.969233 
L 174.727874 261.611753 
L 175.541545 254.845997 
L 176.355215 272.826804 
L 177.168886 255.930373 
L 177.982556 263.54259 
L 178.796227 266.708094 
L 179.609897 257.507843 
L 180.423568 274.671868 
L 181.237239 252.9154 
L 182.050909 268.537667 
L 182.86458 271.999209 
L 183.67825 272.17564 
L 184.491921 255.860467 
L 185.305591 258.227281 
L 186.119262 265.828791 
L 186.932932 251.798321 
L 187.746603 276.363958 
L 188.560273 266.11013 
L 189.373944 261.980958 
L 190.187614 263.093041 
L 191.001285 258.843165 
L 191.814956 264.654025 
L 192.628626 254.05531 
L 193.442297 261.873397 
L 194.255967 262.063209 
L 195.069638 255.162833 
L 195.883308 271.06311 
L 196.696979 278.79771 
L 197.510649 269.139308 
L 198.32432 268.844448 
L 199.13799 257.471502 
L 199.951661 270.181621 
L 200.765332 263.040107 
L 201.579002 260.062832 
L 202.392673 270.406177 
L 203.206343 256.879782 
L 204.020014 267.114181 
L 204.833684 260.192959 
L 205.647355 263.874217 
L 206.461025 254.638092 
L 207.274696 261.621003 
L 208.088366 258.231191 
L 208.902037 263.113076 
L 209.715707 261.638353 
L 210.529378 270.521448 
L 211.343049 261.279597 
L 212.156719 260.729606 
L 212.97039 257.463735 
L 213.78406 264.240428 
L 214.597731 273.504809 
L 215.411401 260.77535 
L 216.225072 257.759938 
L 217.038742 260.730235 
L 218.666083 256.711944 
L 219.479754 257.606651 
L 220.293424 266.449312 
L 221.107095 252.587337 
L 221.920766 273.801425 
L 222.734436 258.768182 
L 223.548107 261.867751 
L 224.361777 269.147633 
L 225.175448 265.126636 
L 225.989118 248.299812 
L 226.802789 259.208382 
L 227.616459 262.043683 
L 228.43013 262.276907 
L 229.2438 260.779279 
L 230.057471 272.203357 
L 230.871141 270.283317 
L 231.684812 270.40563 
L 232.498483 272.54229 
L 233.312153 266.745308 
L 234.125824 252.5675 
L 234.939494 280.022549 
L 235.753165 266.958747 
L 236.566835 261.868344 
L 237.380506 268.123488 
L 238.194176 270.260668 
L 239.007847 270.172167 
L 239.821517 278.170941 
L 240.635188 264.209341 
L 241.448859 273.439543 
L 242.262529 265.141917 
L 243.0762 272.098679 
L 243.88987 277.594654 
L 244.703541 263.577737 
L 245.517211 258.809615 
L 246.330882 271.107932 
L 247.144552 264.790226 
L 247.958223 278.94072 
L 248.771893 265.279644 
L 249.585564 264.574556 
L 250.399234 268.574438 
L 251.212905 259.803118 
L 252.026576 268.697264 
L 252.840246 261.592358 
L 253.653917 261.381356 
L 254.467587 264.854968 
L 255.281258 266.789813 
L 256.094928 273.200588 
L 256.908599 264.804355 
L 257.722269 269.249639 
L 258.53594 276.920844 
L 259.34961 269.94318 
L 260.163281 274.579021 
L 260.976951 274.274642 
L 262.604293 260.242475 
L 264.231634 264.430542 
L 265.045304 260.034615 
L 265.858975 269.641856 
L 266.672645 261.847181 
L 267.486316 274.474654 
L 268.299986 264.290741 
L 269.113657 267.061175 
L 269.927327 263.596673 
L 270.740998 275.179689 
L 271.554668 260.708514 
L 272.368339 278.064992 
L 273.18201 267.610339 
L 273.99568 249.200168 
L 275.623021 277.490194 
L 276.436692 257.80448 
L 277.250362 271.701253 
L 278.064033 265.105557 
L 278.877703 265.781691 
L 279.691374 254.369023 
L 280.505044 269.343733 
L 281.318715 269.648185 
L 282.132386 281.98017 
L 282.946056 271.529434 
L 283.759727 276.963938 
L 284.573397 270.03813 
L 285.387068 266.903269 
L 286.200738 277.786489 
L 287.014409 278.68001 
L 287.828079 259.467625 
L 288.64175 267.095307 
L 289.45542 255.521479 
L 290.269091 264.487182 
L 291.082761 286.447368 
L 291.896432 267.162584 
L 292.710103 280.038818 
L 293.523773 274.923865 
L 294.337444 275.626254 
L 295.151114 269.24844 
L 295.964785 268.824227 
L 296.778455 263.192933 
L 297.592126 273.593327 
L 298.405796 269.87768 
L 299.219467 271.410697 
L 300.033137 264.876876 
L 300.846808 250.918051 
L 301.660478 257.476468 
L 302.474149 253.870794 
L 303.28782 268.817382 
L 304.10149 268.081344 
L 304.915161 268.460445 
L 305.728831 268.984923 
L 306.542502 273.795094 
L 307.356172 277.633559 
L 308.169843 271.663512 
L 308.983513 271.709073 
L 309.797184 271.484516 
L 310.610854 276.058329 
L 311.424525 279.392932 
L 312.238195 273.297937 
L 313.051866 265.397771 
L 313.865537 259.953532 
L 314.679207 267.402913 
L 315.492878 270.401657 
L 316.306548 265.932352 
L 317.120219 257.243718 
L 317.933889 280.392853 
L 318.74756 272.522481 
L 319.56123 259.350556 
L 320.374901 273.392229 
L 321.188571 275.965176 
L 322.002242 259.895253 
L 322.815913 258.32077 
L 323.629583 271.33577 
L 324.443254 254.593245 
L 325.256924 267.532301 
L 326.070595 265.170342 
L 326.884265 275.675687 
L 327.697936 272.828062 
L 328.511606 264.643144 
L 329.325277 270.684627 
L 330.138947 264.727776 
L 330.952618 281.901625 
L 331.766288 271.701108 
L 332.579959 271.862463 
L 333.39363 273.612823 
L 334.2073 268.903809 
L 335.020971 273.905688 
L 335.834641 254.522835 
L 336.648312 275.446651 
L 337.461982 257.424547 
L 338.275653 282.021354 
L 339.902994 254.457743 
L 340.716664 287.899272 
L 341.530335 272.132792 
L 342.344005 272.671142 
L 343.157676 273.688651 
L 343.971347 269.602675 
L 344.785017 273.117626 
L 345.598688 269.955355 
L 346.412358 272.804052 
L 347.226029 260.574943 
L 348.039699 258.724175 
L 348.85337 277.564459 
L 349.66704 264.670372 
L 350.480711 271.030575 
L 351.294381 267.869514 
L 352.108052 270.65578 
L 352.921722 270.286717 
L 353.735393 274.663986 
L 354.549064 273.674928 
L 355.362734 264.741093 
L 356.176405 282.40205 
L 356.990075 279.330117 
L 357.803746 268.867206 
L 358.617416 271.500709 
L 359.431087 277.796102 
L 360.244757 267.638429 
L 361.058428 269.571722 
L 361.872098 278.072328 
L 362.685769 270.861463 
L 363.49944 260.44385 
L 364.31311 280.800676 
L 365.126781 273.034125 
L 365.940451 271.710652 
L 366.754122 275.826614 
L 367.567792 268.315424 
L 368.381463 276.439961 
L 369.195133 269.857996 
L 370.008804 271.778961 
L 370.822474 267.48549 
L 371.636145 261.426558 
L 372.449815 263.452918 
L 373.263486 260.97768 
L 374.077157 269.425866 
L 374.890827 270.035351 
L 375.704498 274.277549 
L 376.518168 256.999431 
L 377.331839 262.758662 
L 378.145509 265.424407 
L 378.95918 266.005537 
L 379.77285 275.19754 
L 380.586521 267.493057 
L 381.400191 269.39382 
L 382.213862 280.592727 
L 383.027532 270.249337 
L 383.841203 283.599983 
L 384.654874 276.493356 
L 385.468544 273.531487 
L 386.282215 274.282287 
L 387.095885 272.094159 
L 387.909556 265.469169 
L 388.723226 271.243083 
L 389.536897 273.603206 
L 390.350567 273.807823 
L 391.164238 272.390415 
L 391.977908 272.341425 
L 392.791579 274.72465 
L 393.605249 271.759448 
L 394.41892 270.566972 
L 395.232591 270.553362 
L 396.046261 263.650957 
L 396.859932 278.025777 
L 397.673602 261.646698 
L 398.487273 265.867827 
L 398.487273 265.867827 
" style="fill:none;stroke:#2ca02c;stroke-dasharray:9.6,2.4,1.5,2.4;stroke-dashoffset:0;stroke-width:1.5;"/>
   </g>
   <g id="line2d_20">
    <path clip-path="url(#pf41cd1edd3)" d="M 73.832727 73.767548 
L 74.646398 123.281341 
L 75.460068 146.718831 
L 76.273739 120.067902 
L 77.087409 152.276991 
L 77.90108 147.543639 
L 78.714751 160.873372 
L 79.528421 154.522077 
L 80.342092 173.627768 
L 81.155762 169.93315 
L 81.969433 184.401833 
L 82.783103 183.981732 
L 83.596774 178.228774 
L 84.410444 174.154929 
L 85.224115 186.60639 
L 86.037785 219.375744 
L 86.851456 210.835638 
L 87.665126 229.988138 
L 88.478797 221.888927 
L 89.292468 228.731932 
L 90.106138 225.221463 
L 90.919809 248.63121 
L 91.733479 228.865966 
L 92.54715 234.852947 
L 93.36082 234.446572 
L 94.174491 241.389379 
L 94.988161 247.233175 
L 95.801832 252.223874 
L 96.615502 242.107476 
L 97.429173 234.648773 
L 98.242843 242.747066 
L 99.056514 248.92746 
L 99.870185 245.006654 
L 100.683855 242.998595 
L 101.497526 235.011355 
L 102.311196 248.101337 
L 103.124867 257.986958 
L 103.938537 234.871572 
L 104.752208 252.029669 
L 105.565878 248.538139 
L 106.379549 241.713416 
L 107.193219 252.546944 
L 108.00689 247.717763 
L 108.82056 245.479154 
L 109.634231 251.909841 
L 110.447902 254.595702 
L 111.261572 250.075506 
L 112.075243 247.827403 
L 112.888913 260.074089 
L 113.702584 238.231804 
L 115.329925 257.830802 
L 116.143595 239.184094 
L 116.957266 252.174246 
L 117.770936 258.187761 
L 118.584607 249.865669 
L 119.398278 260.680355 
L 120.211948 258.10624 
L 121.025619 259.852091 
L 121.839289 246.477019 
L 122.65296 259.504788 
L 124.280301 244.042323 
L 125.093971 257.126363 
L 125.907642 264.618433 
L 126.721312 258.627793 
L 127.534983 251.468748 
L 128.348653 254.411289 
L 129.162324 256.616402 
L 129.975995 252.828553 
L 130.789665 257.71041 
L 131.603336 254.555256 
L 132.417006 275.292044 
L 133.230677 250.065551 
L 134.044347 259.823288 
L 134.858018 260.699127 
L 135.671688 249.352274 
L 136.485359 260.24941 
L 137.299029 255.606361 
L 138.1127 253.272085 
L 138.92637 260.746523 
L 139.740041 262.508163 
L 140.553712 263.431958 
L 141.367382 277.774932 
L 142.181053 256.536355 
L 142.994723 266.567163 
L 143.808394 261.175811 
L 144.622064 264.010142 
L 145.435735 252.204307 
L 146.249405 271.999231 
L 147.063076 275.005164 
L 147.876746 266.164209 
L 148.690417 258.828615 
L 149.504087 261.330923 
L 150.317758 257.340068 
L 151.131429 259.772239 
L 151.945099 257.597974 
L 152.75877 265.701761 
L 153.57244 267.081375 
L 154.386111 259.246113 
L 155.199781 263.823373 
L 156.013452 263.198378 
L 156.827122 259.44705 
L 157.640793 249.461348 
L 158.454463 263.72824 
L 159.268134 259.915645 
L 160.081805 256.989756 
L 160.895475 261.980991 
L 161.709146 264.4063 
L 162.522816 256.524857 
L 164.150157 269.093 
L 164.963828 264.96852 
L 166.591169 272.5479 
L 167.404839 264.542509 
L 168.21851 268.838162 
L 169.03218 246.740862 
L 169.845851 267.623607 
L 170.659522 263.541842 
L 171.473192 263.922251 
L 172.286863 270.743654 
L 173.100533 263.013649 
L 173.914204 258.38501 
L 174.727874 270.982094 
L 175.541545 249.449938 
L 176.355215 262.117421 
L 177.168886 276.649795 
L 177.982556 248.167901 
L 178.796227 266.292023 
L 179.609897 255.942305 
L 180.423568 267.120382 
L 181.237239 258.808599 
L 182.050909 259.208091 
L 182.86458 260.712015 
L 183.67825 261.680821 
L 184.491921 269.404149 
L 185.305591 264.513393 
L 186.119262 272.622989 
L 186.932932 275.552633 
L 187.746603 261.854721 
L 188.560273 255.883449 
L 189.373944 267.115293 
L 190.187614 268.085484 
L 191.001285 270.094245 
L 191.814956 257.998127 
L 192.628626 268.691494 
L 193.442297 269.699147 
L 194.255967 267.295256 
L 195.069638 258.593922 
L 195.883308 266.145471 
L 196.696979 252.424134 
L 197.510649 271.831206 
L 198.32432 282.901051 
L 199.13799 265.254527 
L 199.951661 265.434183 
L 200.765332 276.961467 
L 201.579002 274.06375 
L 202.392673 274.630187 
L 203.206343 257.325519 
L 204.833684 267.447184 
L 205.647355 281.970759 
L 207.274696 259.957976 
L 208.088366 267.478818 
L 208.902037 262.643889 
L 209.715707 261.909077 
L 210.529378 257.615379 
L 212.156719 264.777296 
L 212.97039 260.926681 
L 213.78406 261.276727 
L 214.597731 262.171089 
L 215.411401 254.908582 
L 216.225072 266.685781 
L 217.038742 266.074639 
L 217.852413 278.734792 
L 218.666083 272.400432 
L 219.479754 277.262689 
L 220.293424 269.649549 
L 221.107095 266.655895 
L 221.920766 266.016512 
L 222.734436 278.191543 
L 223.548107 269.568646 
L 224.361777 276.333846 
L 225.175448 261.505182 
L 225.989118 268.200018 
L 226.802789 258.854294 
L 227.616459 271.794206 
L 228.43013 266.441356 
L 229.2438 270.141256 
L 230.057471 275.338758 
L 231.684812 271.777112 
L 232.498483 264.670453 
L 233.312153 269.254715 
L 234.125824 262.992004 
L 234.939494 260.823394 
L 235.753165 270.027969 
L 236.566835 260.557953 
L 237.380506 271.306338 
L 238.194176 272.13054 
L 239.007847 267.52299 
L 239.821517 270.890982 
L 240.635188 265.017323 
L 241.448859 275.198859 
L 242.262529 262.434546 
L 243.0762 280.370326 
L 243.88987 277.411524 
L 244.703541 276.000747 
L 245.517211 274.236186 
L 246.330882 266.308811 
L 247.144552 281.629953 
L 247.958223 270.267358 
L 248.771893 261.156955 
L 249.585564 262.754975 
L 250.399234 283.632961 
L 251.212905 280.893823 
L 252.026576 276.983144 
L 252.840246 277.829489 
L 253.653917 269.334968 
L 254.467587 263.079974 
L 255.281258 275.321512 
L 256.094928 266.885939 
L 256.908599 263.845321 
L 257.722269 262.215789 
L 258.53594 270.018346 
L 259.34961 264.849145 
L 260.976951 273.294327 
L 261.790622 270.2737 
L 262.604293 281.929975 
L 263.417963 270.234569 
L 264.231634 272.967765 
L 265.045304 274.293491 
L 265.858975 267.489306 
L 266.672645 279.731895 
L 267.486316 269.782569 
L 268.299986 266.91512 
L 269.113657 282.073457 
L 269.927327 270.38382 
L 271.554668 259.430488 
L 272.368339 266.589315 
L 273.18201 270.306047 
L 273.99568 275.007076 
L 274.809351 264.345764 
L 275.623021 260.580601 
L 276.436692 269.508818 
L 277.250362 259.223316 
L 278.064033 269.204033 
L 278.877703 280.742867 
L 279.691374 265.244339 
L 280.505044 267.19782 
L 281.318715 262.692648 
L 282.132386 273.345393 
L 282.946056 259.284523 
L 283.759727 265.408323 
L 284.573397 269.981615 
L 285.387068 275.626874 
L 286.200738 258.127046 
L 287.014409 276.676345 
L 287.828079 286.591978 
L 288.64175 269.959427 
L 290.269091 280.172521 
L 291.082761 267.917213 
L 291.896432 275.090792 
L 292.710103 262.101882 
L 293.523773 266.530798 
L 294.337444 251.442977 
L 295.151114 270.712679 
L 295.964785 281.219019 
L 296.778455 285.112882 
L 297.592126 295.488 
L 298.405796 275.862846 
L 299.219467 262.388173 
L 300.033137 272.091541 
L 300.846808 275.66347 
L 301.660478 274.862938 
L 302.474149 271.348161 
L 303.28782 264.394572 
L 304.10149 258.440255 
L 304.915161 270.560171 
L 305.728831 252.47825 
L 306.542502 263.685117 
L 307.356172 279.039611 
L 308.169843 269.920762 
L 308.983513 278.111367 
L 309.797184 266.217067 
L 310.610854 273.683395 
L 312.238195 265.165585 
L 313.051866 270.169396 
L 313.865537 253.063744 
L 314.679207 294.519526 
L 315.492878 277.018408 
L 316.306548 267.762098 
L 317.120219 273.176108 
L 317.933889 269.204801 
L 318.74756 272.827648 
L 319.56123 272.431041 
L 320.374901 266.296814 
L 321.188571 264.845514 
L 322.002242 269.527145 
L 322.815913 274.925932 
L 323.629583 273.737464 
L 324.443254 247.604651 
L 325.256924 268.372074 
L 326.070595 263.640592 
L 326.884265 260.259219 
L 327.697936 265.888688 
L 328.511606 276.444009 
L 329.325277 283.093348 
L 330.138947 266.899896 
L 330.952618 267.05525 
L 331.766288 263.677646 
L 332.579959 278.576275 
L 333.39363 258.851911 
L 334.2073 271.987687 
L 335.020971 279.167902 
L 335.834641 277.281358 
L 336.648312 264.891909 
L 337.461982 269.497043 
L 338.275653 264.018914 
L 339.089323 259.697305 
L 339.902994 267.473098 
L 340.716664 270.577783 
L 341.530335 277.363983 
L 342.344005 277.136017 
L 343.157676 260.849465 
L 343.971347 286.82554 
L 344.785017 262.546787 
L 345.598688 282.778925 
L 346.412358 266.826087 
L 347.226029 276.554782 
L 348.039699 272.37685 
L 348.85337 280.154678 
L 349.66704 273.028316 
L 350.480711 273.068097 
L 351.294381 268.342958 
L 352.108052 264.598767 
L 352.921722 279.215382 
L 353.735393 278.424599 
L 354.549064 273.359251 
L 355.362734 260.354641 
L 356.176405 273.449841 
L 356.990075 257.952478 
L 357.803746 270.860174 
L 358.617416 266.401571 
L 359.431087 285.484663 
L 360.244757 278.764855 
L 361.058428 276.726719 
L 361.872098 272.932819 
L 362.685769 258.110235 
L 363.49944 262.503432 
L 364.31311 274.039888 
L 365.126781 267.075452 
L 365.940451 275.275936 
L 366.754122 287.20261 
L 367.567792 272.324812 
L 368.381463 278.971408 
L 369.195133 271.751243 
L 370.008804 267.397553 
L 370.822474 261.207935 
L 371.636145 260.759456 
L 372.449815 279.368056 
L 373.263486 268.23619 
L 374.077157 275.418459 
L 374.890827 280.209944 
L 375.704498 271.336359 
L 376.518168 275.678884 
L 377.331839 273.22154 
L 378.145509 288.503907 
L 378.95918 271.968751 
L 379.77285 269.647703 
L 380.586521 279.918821 
L 381.400191 274.603985 
L 382.213862 272.054926 
L 383.027532 282.904811 
L 383.841203 273.603489 
L 384.654874 275.248253 
L 385.468544 281.469509 
L 386.282215 280.063774 
L 387.095885 269.898148 
L 388.723226 292.130918 
L 389.536897 271.013291 
L 390.350567 275.256274 
L 391.164238 270.78568 
L 391.977908 280.673567 
L 392.791579 270.519197 
L 393.605249 254.032448 
L 394.41892 273.956272 
L 395.232591 267.944695 
L 396.046261 271.429302 
L 396.859932 255.326733 
L 397.673602 267.079963 
L 398.487273 272.465811 
L 398.487273 272.465811 
" style="fill:none;stroke:#d62728;stroke-dasharray:1.5,2.475;stroke-dashoffset:0;stroke-width:1.5;"/>
   </g>
   <g id="patch_3">
    <path d="M 57.6 307.584 
L 57.6 41.472 
" style="fill:none;stroke:#000000;stroke-linecap:square;stroke-linejoin:miter;stroke-width:0.8;"/>
   </g>
   <g id="patch_4">
    <path d="M 414.72 307.584 
L 414.72 41.472 
" style="fill:none;stroke:#000000;stroke-linecap:square;stroke-linejoin:miter;stroke-width:0.8;"/>
   </g>
   <g id="patch_5">
    <path d="M 57.6 307.584 
L 414.72 307.584 
" style="fill:none;stroke:#000000;stroke-linecap:square;stroke-linejoin:miter;stroke-width:0.8;"/>
   </g>
   <g id="patch_6">
    <path d="M 57.6 41.472 
L 414.72 41.472 
" style="fill:none;stroke:#000000;stroke-linecap:square;stroke-linejoin:miter;stroke-width:0.8;"/>
   </g>
   <g id="legend_1">
    <g id="patch_7">
     <path d="M 300.348125 108.462625 
L 407.72 108.462625 
Q 409.72 108.462625 409.72 106.462625 
L 409.72 48.472 
Q 409.72 46.472 407.72 46.472 
L 300.348125 46.472 
Q 298.348125 46.472 298.348125 48.472 
L 298.348125 106.462625 
Q 298.348125 108.462625 300.348125 108.462625 
z
" style="fill:#ffffff;opacity:0.8;stroke:#cccccc;stroke-linejoin:miter;"/>
    </g>
    <g id="line2d_21">
     <path d="M 302.348125 54.570438 
L 322.348125 54.570438 
" style="fill:none;stroke:#1f77b4;stroke-linecap:square;stroke-width:1.5;"/>
    </g>
    <g id="line2d_22"/>
    <g id="text_19">
     <!-- UNetCNP_GMM -->
     <g transform="translate(330.348125 58.070438)scale(0.1 -0.1)">
      <defs>
       <path d="M 556 4666 
L 1191 4666 
L 1191 1831 
Q 1191 1081 1462 751 
Q 1734 422 2344 422 
Q 2950 422 3222 751 
Q 3494 1081 3494 1831 
L 3494 4666 
L 4128 4666 
L 4128 1753 
Q 4128 841 3676 375 
Q 3225 -91 2344 -91 
Q 1459 -91 1007 375 
Q 556 841 556 1753 
L 556 4666 
z
" id="DejaVuSans-55" transform="scale(0.015625)"/>
       <path d="M 628 4666 
L 1478 4666 
L 3547 763 
L 3547 4666 
L 4159 4666 
L 4159 0 
L 3309 0 
L 1241 3903 
L 1241 0 
L 628 0 
L 628 4666 
z
" id="DejaVuSans-4e" transform="scale(0.015625)"/>
       <path d="M 3597 1894 
L 3597 1613 
L 953 1613 
Q 991 1019 1311 708 
Q 1631 397 2203 397 
Q 2534 397 2845 478 
Q 3156 559 3463 722 
L 3463 178 
Q 3153 47 2828 -22 
Q 2503 -91 2169 -91 
Q 1331 -91 842 396 
Q 353 884 353 1716 
Q 353 2575 817 3079 
Q 1281 3584 2069 3584 
Q 2775 3584 3186 3129 
Q 3597 2675 3597 1894 
z
M 3022 2063 
Q 3016 2534 2758 2815 
Q 2500 3097 2075 3097 
Q 1594 3097 1305 2825 
Q 1016 2553 972 2059 
L 3022 2063 
z
" id="DejaVuSans-65" transform="scale(0.015625)"/>
       <path d="M 1172 4494 
L 1172 3500 
L 2356 3500 
L 2356 3053 
L 1172 3053 
L 1172 1153 
Q 1172 725 1289 603 
Q 1406 481 1766 481 
L 2356 481 
L 2356 0 
L 1766 0 
Q 1100 0 847 248 
Q 594 497 594 1153 
L 594 3053 
L 172 3053 
L 172 3500 
L 594 3500 
L 594 4494 
L 1172 4494 
z
" id="DejaVuSans-74" transform="scale(0.015625)"/>
       <path d="M 4122 4306 
L 4122 3641 
Q 3803 3938 3442 4084 
Q 3081 4231 2675 4231 
Q 1875 4231 1450 3742 
Q 1025 3253 1025 2328 
Q 1025 1406 1450 917 
Q 1875 428 2675 428 
Q 3081 428 3442 575 
Q 3803 722 4122 1019 
L 4122 359 
Q 3791 134 3420 21 
Q 3050 -91 2638 -91 
Q 1578 -91 968 557 
Q 359 1206 359 2328 
Q 359 3453 968 4101 
Q 1578 4750 2638 4750 
Q 3056 4750 3426 4639 
Q 3797 4528 4122 4306 
z
" id="DejaVuSans-43" transform="scale(0.015625)"/>
       <path d="M 1259 4147 
L 1259 2394 
L 2053 2394 
Q 2494 2394 2734 2622 
Q 2975 2850 2975 3272 
Q 2975 3691 2734 3919 
Q 2494 4147 2053 4147 
L 1259 4147 
z
M 628 4666 
L 2053 4666 
Q 2838 4666 3239 4311 
Q 3641 3956 3641 3272 
Q 3641 2581 3239 2228 
Q 2838 1875 2053 1875 
L 1259 1875 
L 1259 0 
L 628 0 
L 628 4666 
z
" id="DejaVuSans-50" transform="scale(0.015625)"/>
       <path d="M 3263 -1063 
L 3263 -1509 
L -63 -1509 
L -63 -1063 
L 3263 -1063 
z
" id="DejaVuSans-5f" transform="scale(0.015625)"/>
       <path d="M 3809 666 
L 3809 1919 
L 2778 1919 
L 2778 2438 
L 4434 2438 
L 4434 434 
Q 4069 175 3628 42 
Q 3188 -91 2688 -91 
Q 1594 -91 976 548 
Q 359 1188 359 2328 
Q 359 3472 976 4111 
Q 1594 4750 2688 4750 
Q 3144 4750 3555 4637 
Q 3966 4525 4313 4306 
L 4313 3634 
Q 3963 3931 3569 4081 
Q 3175 4231 2741 4231 
Q 1884 4231 1454 3753 
Q 1025 3275 1025 2328 
Q 1025 1384 1454 906 
Q 1884 428 2741 428 
Q 3075 428 3337 486 
Q 3600 544 3809 666 
z
" id="DejaVuSans-47" transform="scale(0.015625)"/>
       <path d="M 628 4666 
L 1569 4666 
L 2759 1491 
L 3956 4666 
L 4897 4666 
L 4897 0 
L 4281 0 
L 4281 4097 
L 3078 897 
L 2444 897 
L 1241 4097 
L 1241 0 
L 628 0 
L 628 4666 
z
" id="DejaVuSans-4d" transform="scale(0.015625)"/>
      </defs>
      <use xlink:href="#DejaVuSans-55"/>
      <use x="73.193359" xlink:href="#DejaVuSans-4e"/>
      <use x="147.998047" xlink:href="#DejaVuSans-65"/>
      <use x="209.521484" xlink:href="#DejaVuSans-74"/>
      <use x="248.730469" xlink:href="#DejaVuSans-43"/>
      <use x="318.554688" xlink:href="#DejaVuSans-4e"/>
      <use x="393.359375" xlink:href="#DejaVuSans-50"/>
      <use x="453.662109" xlink:href="#DejaVuSans-5f"/>
      <use x="503.662109" xlink:href="#DejaVuSans-47"/>
      <use x="581.152344" xlink:href="#DejaVuSans-4d"/>
      <use x="667.431641" xlink:href="#DejaVuSans-4d"/>
     </g>
    </g>
    <g id="line2d_23">
     <path d="M 302.348125 69.526688 
L 322.348125 69.526688 
" style="fill:none;stroke:#ff7f0e;stroke-dasharray:5.55,2.4;stroke-dashoffset:0;stroke-width:1.5;"/>
    </g>
    <g id="line2d_24"/>
    <g id="text_20">
     <!-- + consistency -->
     <g transform="translate(330.348125 73.026688)scale(0.1 -0.1)">
      <defs>
       <path d="M 2944 4013 
L 2944 2272 
L 4684 2272 
L 4684 1741 
L 2944 1741 
L 2944 0 
L 2419 0 
L 2419 1741 
L 678 1741 
L 678 2272 
L 2419 2272 
L 2419 4013 
L 2944 4013 
z
" id="DejaVuSans-2b" transform="scale(0.015625)"/>
       <path id="DejaVuSans-20" transform="scale(0.015625)"/>
       <path d="M 3513 2113 
L 3513 0 
L 2938 0 
L 2938 2094 
Q 2938 2591 2744 2837 
Q 2550 3084 2163 3084 
Q 1697 3084 1428 2787 
Q 1159 2491 1159 1978 
L 1159 0 
L 581 0 
L 581 3500 
L 1159 3500 
L 1159 2956 
Q 1366 3272 1645 3428 
Q 1925 3584 2291 3584 
Q 2894 3584 3203 3211 
Q 3513 2838 3513 2113 
z
" id="DejaVuSans-6e" transform="scale(0.015625)"/>
       <path d="M 603 3500 
L 1178 3500 
L 1178 0 
L 603 0 
L 603 3500 
z
M 603 4863 
L 1178 4863 
L 1178 4134 
L 603 4134 
L 603 4863 
z
" id="DejaVuSans-69" transform="scale(0.015625)"/>
       <path d="M 2059 -325 
Q 1816 -950 1584 -1140 
Q 1353 -1331 966 -1331 
L 506 -1331 
L 506 -850 
L 844 -850 
Q 1081 -850 1212 -737 
Q 1344 -625 1503 -206 
L 1606 56 
L 191 3500 
L 800 3500 
L 1894 763 
L 2988 3500 
L 3597 3500 
L 2059 -325 
z
" id="DejaVuSans-79" transform="scale(0.015625)"/>
      </defs>
      <use xlink:href="#DejaVuSans-2b"/>
      <use x="83.789062" xlink:href="#DejaVuSans-20"/>
      <use x="115.576172" xlink:href="#DejaVuSans-63"/>
      <use x="170.556641" xlink:href="#DejaVuSans-6f"/>
      <use x="231.738281" xlink:href="#DejaVuSans-6e"/>
      <use x="295.117188" xlink:href="#DejaVuSans-73"/>
      <use x="347.216797" xlink:href="#DejaVuSans-69"/>
      <use x="375" xlink:href="#DejaVuSans-73"/>
      <use x="427.099609" xlink:href="#DejaVuSans-74"/>
      <use x="466.308594" xlink:href="#DejaVuSans-65"/>
      <use x="527.832031" xlink:href="#DejaVuSans-6e"/>
      <use x="591.210938" xlink:href="#DejaVuSans-63"/>
      <use x="646.191406" xlink:href="#DejaVuSans-79"/>
     </g>
    </g>
    <g id="line2d_25">
     <path d="M 302.348125 84.204813 
L 322.348125 84.204813 
" style="fill:none;stroke:#2ca02c;stroke-dasharray:9.6,2.4,1.5,2.4;stroke-dashoffset:0;stroke-width:1.5;"/>
    </g>
    <g id="line2d_26"/>
    <g id="text_21">
     <!-- + extra task -->
     <g transform="translate(330.348125 87.704813)scale(0.1 -0.1)">
      <defs>
       <path d="M 3513 3500 
L 2247 1797 
L 3578 0 
L 2900 0 
L 1881 1375 
L 863 0 
L 184 0 
L 1544 1831 
L 300 3500 
L 978 3500 
L 1906 2253 
L 2834 3500 
L 3513 3500 
z
" id="DejaVuSans-78" transform="scale(0.015625)"/>
       <path d="M 2631 2963 
Q 2534 3019 2420 3045 
Q 2306 3072 2169 3072 
Q 1681 3072 1420 2755 
Q 1159 2438 1159 1844 
L 1159 0 
L 581 0 
L 581 3500 
L 1159 3500 
L 1159 2956 
Q 1341 3275 1631 3429 
Q 1922 3584 2338 3584 
Q 2397 3584 2469 3576 
Q 2541 3569 2628 3553 
L 2631 2963 
z
" id="DejaVuSans-72" transform="scale(0.015625)"/>
       <path d="M 2194 1759 
Q 1497 1759 1228 1600 
Q 959 1441 959 1056 
Q 959 750 1161 570 
Q 1363 391 1709 391 
Q 2188 391 2477 730 
Q 2766 1069 2766 1631 
L 2766 1759 
L 2194 1759 
z
M 3341 1997 
L 3341 0 
L 2766 0 
L 2766 531 
Q 2569 213 2275 61 
Q 1981 -91 1556 -91 
Q 1019 -91 701 211 
Q 384 513 384 1019 
Q 384 1609 779 1909 
Q 1175 2209 1959 2209 
L 2766 2209 
L 2766 2266 
Q 2766 2663 2505 2880 
Q 2244 3097 1772 3097 
Q 1472 3097 1187 3025 
Q 903 2953 641 2809 
L 641 3341 
Q 956 3463 1253 3523 
Q 1550 3584 1831 3584 
Q 2591 3584 2966 3190 
Q 3341 2797 3341 1997 
z
" id="DejaVuSans-61" transform="scale(0.015625)"/>
       <path d="M 581 4863 
L 1159 4863 
L 1159 1991 
L 2875 3500 
L 3609 3500 
L 1753 1863 
L 3688 0 
L 2938 0 
L 1159 1709 
L 1159 0 
L 581 0 
L 581 4863 
z
" id="DejaVuSans-6b" transform="scale(0.015625)"/>
      </defs>
      <use xlink:href="#DejaVuSans-2b"/>
      <use x="83.789062" xlink:href="#DejaVuSans-20"/>
      <use x="115.576172" xlink:href="#DejaVuSans-65"/>
      <use x="175.349609" xlink:href="#DejaVuSans-78"/>
      <use x="234.529297" xlink:href="#DejaVuSans-74"/>
      <use x="273.738281" xlink:href="#DejaVuSans-72"/>
      <use x="314.851562" xlink:href="#DejaVuSans-61"/>
      <use x="376.130859" xlink:href="#DejaVuSans-20"/>
      <use x="407.917969" xlink:href="#DejaVuSans-74"/>
      <use x="447.126953" xlink:href="#DejaVuSans-61"/>
      <use x="508.40625" xlink:href="#DejaVuSans-73"/>
      <use x="560.505859" xlink:href="#DejaVuSans-6b"/>
     </g>
    </g>
    <g id="line2d_27">
     <path d="M 302.348125 98.882938 
L 322.348125 98.882938 
" style="fill:none;stroke:#d62728;stroke-dasharray:1.5,2.475;stroke-dashoffset:0;stroke-width:1.5;"/>
    </g>
    <g id="line2d_28"/>
    <g id="text_22">
     <!-- + both -->
     <g transform="translate(330.348125 102.382938)scale(0.1 -0.1)">
      <defs>
       <path d="M 3116 1747 
Q 3116 2381 2855 2742 
Q 2594 3103 2138 3103 
Q 1681 3103 1420 2742 
Q 1159 2381 1159 1747 
Q 1159 1113 1420 752 
Q 1681 391 2138 391 
Q 2594 391 2855 752 
Q 3116 1113 3116 1747 
z
M 1159 2969 
Q 1341 3281 1617 3432 
Q 1894 3584 2278 3584 
Q 2916 3584 3314 3078 
Q 3713 2572 3713 1747 
Q 3713 922 3314 415 
Q 2916 -91 2278 -91 
Q 1894 -91 1617 61 
Q 1341 213 1159 525 
L 1159 0 
L 581 0 
L 581 4863 
L 1159 4863 
L 1159 2969 
z
" id="DejaVuSans-62" transform="scale(0.015625)"/>
      </defs>
      <use xlink:href="#DejaVuSans-2b"/>
      <use x="83.789062" xlink:href="#DejaVuSans-20"/>
      <use x="115.576172" xlink:href="#DejaVuSans-62"/>
      <use x="179.052734" xlink:href="#DejaVuSans-6f"/>
      <use x="240.234375" xlink:href="#DejaVuSans-74"/>
      <use x="279.443359" xlink:href="#DejaVuSans-68"/>
     </g>
    </g>
   </g>
  </g>
 </g>
 <defs>
  <clipPath id="pf41cd1edd3">
   <rect height="266.112" width="357.12" x="57.6" y="41.472"/>
  </clipPath>
 </defs>
</svg>
