<?xml version="1.0" encoding="utf-8" standalone="no"?>
<!DOCTYPE svg PUBLIC "-//W3C//DTD SVG 1.1//EN"
  "http://www.w3.org/Graphics/SVG/1.1/DTD/svg11.dtd">
<svg height="345.6pt" version="1.1" viewBox="0 0 460.8 345.6" width="460.8pt" xmlns="http://www.w3.org/2000/svg" xmlns:xlink="http://www.w3.org/1999/xlink">
 <metadata>
  <rdf:RDF xmlns:cc="http://creativecommons.org/ns#" xmlns:dc="http://purl.org/dc/elements/1.1/" xmlns:rdf="http://www.w3.org/1999/02/22-rdf-syntax-ns#">
   <cc:Work>
    <dc:type rdf:resource="http://purl.org/dc/dcmitype/StillImage"/>
    <dc:date>2021-07-20T21:12:10.402550</dc:date>
    <dc:format>image/svg+xml</dc:format>
    <dc:creator>
     <cc:Agent>
      <dc:title>Matplotlib v3.4.2, https://matplotlib.org/</dc:title>
     </cc:Agent>
    </dc:creator>
   </cc:Work>
  </rdf:RDF>
 </metadata>
 <defs>
  <style type="text/css">*{stroke-linecap:butt;stroke-linejoin:round;}</style>
 </defs>
 <g id="figure_1">
  <g id="patch_1">
   <path d="M 0 345.6 
L 460.8 345.6 
L 460.8 0 
L 0 0 
z
" style="fill:#ffffff;"/>
  </g>
  <g id="axes_1">
   <g id="patch_2">
    <path d="M 57.6 307.584 
L 414.72 307.584 
L 414.72 41.472 
L 57.6 41.472 
z
" style="fill:#ffffff;"/>
   </g>
   <g id="matplotlib.axis_1">
    <g id="xtick_1">
     <g id="line2d_1">
      <defs>
       <path d="M 0 0 
L 0 3.5 
" id="m230186d7c2" style="stroke:#000000;stroke-width:0.8;"/>
      </defs>
      <g>
       <use style="stroke:#000000;stroke-width:0.8;" x="73.607116" xlink:href="#m230186d7c2" y="307.584"/>
      </g>
     </g>
     <g id="text_1">
      <!-- 0 -->
      <g transform="translate(70.425866 322.182437)scale(0.1 -0.1)">
       <defs>
        <path d="M 2034 4250 
Q 1547 4250 1301 3770 
Q 1056 3291 1056 2328 
Q 1056 1369 1301 889 
Q 1547 409 2034 409 
Q 2525 409 2770 889 
Q 3016 1369 3016 2328 
Q 3016 3291 2770 3770 
Q 2525 4250 2034 4250 
z
M 2034 4750 
Q 2819 4750 3233 4129 
Q 3647 3509 3647 2328 
Q 3647 1150 3233 529 
Q 2819 -91 2034 -91 
Q 1250 -91 836 529 
Q 422 1150 422 2328 
Q 422 3509 836 4129 
Q 1250 4750 2034 4750 
z
" id="DejaVuSans-30" transform="scale(0.015625)"/>
       </defs>
       <use xlink:href="#DejaVuSans-30"/>
      </g>
     </g>
    </g>
    <g id="xtick_2">
     <g id="line2d_2">
      <g>
       <use style="stroke:#000000;stroke-width:0.8;" x="118.72936" xlink:href="#m230186d7c2" y="307.584"/>
      </g>
     </g>
     <g id="text_2">
      <!-- 200 -->
      <g transform="translate(109.18561 322.182437)scale(0.1 -0.1)">
       <defs>
        <path d="M 1228 531 
L 3431 531 
L 3431 0 
L 469 0 
L 469 531 
Q 828 903 1448 1529 
Q 2069 2156 2228 2338 
Q 2531 2678 2651 2914 
Q 2772 3150 2772 3378 
Q 2772 3750 2511 3984 
Q 2250 4219 1831 4219 
Q 1534 4219 1204 4116 
Q 875 4013 500 3803 
L 500 4441 
Q 881 4594 1212 4672 
Q 1544 4750 1819 4750 
Q 2544 4750 2975 4387 
Q 3406 4025 3406 3419 
Q 3406 3131 3298 2873 
Q 3191 2616 2906 2266 
Q 2828 2175 2409 1742 
Q 1991 1309 1228 531 
z
" id="DejaVuSans-32" transform="scale(0.015625)"/>
       </defs>
       <use xlink:href="#DejaVuSans-32"/>
       <use x="63.623047" xlink:href="#DejaVuSans-30"/>
       <use x="127.246094" xlink:href="#DejaVuSans-30"/>
      </g>
     </g>
    </g>
    <g id="xtick_3">
     <g id="line2d_3">
      <g>
       <use style="stroke:#000000;stroke-width:0.8;" x="163.851604" xlink:href="#m230186d7c2" y="307.584"/>
      </g>
     </g>
     <g id="text_3">
      <!-- 400 -->
      <g transform="translate(154.307854 322.182437)scale(0.1 -0.1)">
       <defs>
        <path d="M 2419 4116 
L 825 1625 
L 2419 1625 
L 2419 4116 
z
M 2253 4666 
L 3047 4666 
L 3047 1625 
L 3713 1625 
L 3713 1100 
L 3047 1100 
L 3047 0 
L 2419 0 
L 2419 1100 
L 313 1100 
L 313 1709 
L 2253 4666 
z
" id="DejaVuSans-34" transform="scale(0.015625)"/>
       </defs>
       <use xlink:href="#DejaVuSans-34"/>
       <use x="63.623047" xlink:href="#DejaVuSans-30"/>
       <use x="127.246094" xlink:href="#DejaVuSans-30"/>
      </g>
     </g>
    </g>
    <g id="xtick_4">
     <g id="line2d_4">
      <g>
       <use style="stroke:#000000;stroke-width:0.8;" x="208.973848" xlink:href="#m230186d7c2" y="307.584"/>
      </g>
     </g>
     <g id="text_4">
      <!-- 600 -->
      <g transform="translate(199.430098 322.182437)scale(0.1 -0.1)">
       <defs>
        <path d="M 2113 2584 
Q 1688 2584 1439 2293 
Q 1191 2003 1191 1497 
Q 1191 994 1439 701 
Q 1688 409 2113 409 
Q 2538 409 2786 701 
Q 3034 994 3034 1497 
Q 3034 2003 2786 2293 
Q 2538 2584 2113 2584 
z
M 3366 4563 
L 3366 3988 
Q 3128 4100 2886 4159 
Q 2644 4219 2406 4219 
Q 1781 4219 1451 3797 
Q 1122 3375 1075 2522 
Q 1259 2794 1537 2939 
Q 1816 3084 2150 3084 
Q 2853 3084 3261 2657 
Q 3669 2231 3669 1497 
Q 3669 778 3244 343 
Q 2819 -91 2113 -91 
Q 1303 -91 875 529 
Q 447 1150 447 2328 
Q 447 3434 972 4092 
Q 1497 4750 2381 4750 
Q 2619 4750 2861 4703 
Q 3103 4656 3366 4563 
z
" id="DejaVuSans-36" transform="scale(0.015625)"/>
       </defs>
       <use xlink:href="#DejaVuSans-36"/>
       <use x="63.623047" xlink:href="#DejaVuSans-30"/>
       <use x="127.246094" xlink:href="#DejaVuSans-30"/>
      </g>
     </g>
    </g>
    <g id="xtick_5">
     <g id="line2d_5">
      <g>
       <use style="stroke:#000000;stroke-width:0.8;" x="254.096092" xlink:href="#m230186d7c2" y="307.584"/>
      </g>
     </g>
     <g id="text_5">
      <!-- 800 -->
      <g transform="translate(244.552342 322.182437)scale(0.1 -0.1)">
       <defs>
        <path d="M 2034 2216 
Q 1584 2216 1326 1975 
Q 1069 1734 1069 1313 
Q 1069 891 1326 650 
Q 1584 409 2034 409 
Q 2484 409 2743 651 
Q 3003 894 3003 1313 
Q 3003 1734 2745 1975 
Q 2488 2216 2034 2216 
z
M 1403 2484 
Q 997 2584 770 2862 
Q 544 3141 544 3541 
Q 544 4100 942 4425 
Q 1341 4750 2034 4750 
Q 2731 4750 3128 4425 
Q 3525 4100 3525 3541 
Q 3525 3141 3298 2862 
Q 3072 2584 2669 2484 
Q 3125 2378 3379 2068 
Q 3634 1759 3634 1313 
Q 3634 634 3220 271 
Q 2806 -91 2034 -91 
Q 1263 -91 848 271 
Q 434 634 434 1313 
Q 434 1759 690 2068 
Q 947 2378 1403 2484 
z
M 1172 3481 
Q 1172 3119 1398 2916 
Q 1625 2713 2034 2713 
Q 2441 2713 2670 2916 
Q 2900 3119 2900 3481 
Q 2900 3844 2670 4047 
Q 2441 4250 2034 4250 
Q 1625 4250 1398 4047 
Q 1172 3844 1172 3481 
z
" id="DejaVuSans-38" transform="scale(0.015625)"/>
       </defs>
       <use xlink:href="#DejaVuSans-38"/>
       <use x="63.623047" xlink:href="#DejaVuSans-30"/>
       <use x="127.246094" xlink:href="#DejaVuSans-30"/>
      </g>
     </g>
    </g>
    <g id="xtick_6">
     <g id="line2d_6">
      <g>
       <use style="stroke:#000000;stroke-width:0.8;" x="299.218336" xlink:href="#m230186d7c2" y="307.584"/>
      </g>
     </g>
     <g id="text_6">
      <!-- 1000 -->
      <g transform="translate(286.493336 322.182437)scale(0.1 -0.1)">
       <defs>
        <path d="M 794 531 
L 1825 531 
L 1825 4091 
L 703 3866 
L 703 4441 
L 1819 4666 
L 2450 4666 
L 2450 531 
L 3481 531 
L 3481 0 
L 794 0 
L 794 531 
z
" id="DejaVuSans-31" transform="scale(0.015625)"/>
       </defs>
       <use xlink:href="#DejaVuSans-31"/>
       <use x="63.623047" xlink:href="#DejaVuSans-30"/>
       <use x="127.246094" xlink:href="#DejaVuSans-30"/>
       <use x="190.869141" xlink:href="#DejaVuSans-30"/>
      </g>
     </g>
    </g>
    <g id="xtick_7">
     <g id="line2d_7">
      <g>
       <use style="stroke:#000000;stroke-width:0.8;" x="344.34058" xlink:href="#m230186d7c2" y="307.584"/>
      </g>
     </g>
     <g id="text_7">
      <!-- 1200 -->
      <g transform="translate(331.61558 322.182437)scale(0.1 -0.1)">
       <use xlink:href="#DejaVuSans-31"/>
       <use x="63.623047" xlink:href="#DejaVuSans-32"/>
       <use x="127.246094" xlink:href="#DejaVuSans-30"/>
       <use x="190.869141" xlink:href="#DejaVuSans-30"/>
      </g>
     </g>
    </g>
    <g id="xtick_8">
     <g id="line2d_8">
      <g>
       <use style="stroke:#000000;stroke-width:0.8;" x="389.462824" xlink:href="#m230186d7c2" y="307.584"/>
      </g>
     </g>
     <g id="text_8">
      <!-- 1400 -->
      <g transform="translate(376.737824 322.182437)scale(0.1 -0.1)">
       <use xlink:href="#DejaVuSans-31"/>
       <use x="63.623047" xlink:href="#DejaVuSans-34"/>
       <use x="127.246094" xlink:href="#DejaVuSans-30"/>
       <use x="190.869141" xlink:href="#DejaVuSans-30"/>
      </g>
     </g>
    </g>
    <g id="text_9">
     <!-- Epoch -->
     <g transform="translate(213.193594 339.659781)scale(0.15 -0.15)">
      <defs>
       <path d="M 628 4666 
L 3578 4666 
L 3578 4134 
L 1259 4134 
L 1259 2753 
L 3481 2753 
L 3481 2222 
L 1259 2222 
L 1259 531 
L 3634 531 
L 3634 0 
L 628 0 
L 628 4666 
z
" id="DejaVuSans-45" transform="scale(0.015625)"/>
       <path d="M 1159 525 
L 1159 -1331 
L 581 -1331 
L 581 3500 
L 1159 3500 
L 1159 2969 
Q 1341 3281 1617 3432 
Q 1894 3584 2278 3584 
Q 2916 3584 3314 3078 
Q 3713 2572 3713 1747 
Q 3713 922 3314 415 
Q 2916 -91 2278 -91 
Q 1894 -91 1617 61 
Q 1341 213 1159 525 
z
M 3116 1747 
Q 3116 2381 2855 2742 
Q 2594 3103 2138 3103 
Q 1681 3103 1420 2742 
Q 1159 2381 1159 1747 
Q 1159 1113 1420 752 
Q 1681 391 2138 391 
Q 2594 391 2855 752 
Q 3116 1113 3116 1747 
z
" id="DejaVuSans-70" transform="scale(0.015625)"/>
       <path d="M 1959 3097 
Q 1497 3097 1228 2736 
Q 959 2375 959 1747 
Q 959 1119 1226 758 
Q 1494 397 1959 397 
Q 2419 397 2687 759 
Q 2956 1122 2956 1747 
Q 2956 2369 2687 2733 
Q 2419 3097 1959 3097 
z
M 1959 3584 
Q 2709 3584 3137 3096 
Q 3566 2609 3566 1747 
Q 3566 888 3137 398 
Q 2709 -91 1959 -91 
Q 1206 -91 779 398 
Q 353 888 353 1747 
Q 353 2609 779 3096 
Q 1206 3584 1959 3584 
z
" id="DejaVuSans-6f" transform="scale(0.015625)"/>
       <path d="M 3122 3366 
L 3122 2828 
Q 2878 2963 2633 3030 
Q 2388 3097 2138 3097 
Q 1578 3097 1268 2742 
Q 959 2388 959 1747 
Q 959 1106 1268 751 
Q 1578 397 2138 397 
Q 2388 397 2633 464 
Q 2878 531 3122 666 
L 3122 134 
Q 2881 22 2623 -34 
Q 2366 -91 2075 -91 
Q 1284 -91 818 406 
Q 353 903 353 1747 
Q 353 2603 823 3093 
Q 1294 3584 2113 3584 
Q 2378 3584 2631 3529 
Q 2884 3475 3122 3366 
z
" id="DejaVuSans-63" transform="scale(0.015625)"/>
       <path d="M 3513 2113 
L 3513 0 
L 2938 0 
L 2938 2094 
Q 2938 2591 2744 2837 
Q 2550 3084 2163 3084 
Q 1697 3084 1428 2787 
Q 1159 2491 1159 1978 
L 1159 0 
L 581 0 
L 581 4863 
L 1159 4863 
L 1159 2956 
Q 1366 3272 1645 3428 
Q 1925 3584 2291 3584 
Q 2894 3584 3203 3211 
Q 3513 2838 3513 2113 
z
" id="DejaVuSans-68" transform="scale(0.015625)"/>
      </defs>
      <use xlink:href="#DejaVuSans-45"/>
      <use x="63.183594" xlink:href="#DejaVuSans-70"/>
      <use x="126.660156" xlink:href="#DejaVuSans-6f"/>
      <use x="187.841797" xlink:href="#DejaVuSans-63"/>
      <use x="242.822266" xlink:href="#DejaVuSans-68"/>
     </g>
    </g>
   </g>
   <g id="matplotlib.axis_2">
    <g id="ytick_1">
     <g id="line2d_9">
      <defs>
       <path d="M 0 0 
L -3.5 0 
" id="m0bc65094c3" style="stroke:#000000;stroke-width:0.8;"/>
      </defs>
      <g>
       <use style="stroke:#000000;stroke-width:0.8;" x="57.6" xlink:href="#m0bc65094c3" y="307.584"/>
      </g>
     </g>
     <g id="text_10">
      <!-- 0.0 -->
      <g transform="translate(34.696875 311.383219)scale(0.1 -0.1)">
       <defs>
        <path d="M 684 794 
L 1344 794 
L 1344 0 
L 684 0 
L 684 794 
z
" id="DejaVuSans-2e" transform="scale(0.015625)"/>
       </defs>
       <use xlink:href="#DejaVuSans-30"/>
       <use x="63.623047" xlink:href="#DejaVuSans-2e"/>
       <use x="95.410156" xlink:href="#DejaVuSans-30"/>
      </g>
     </g>
    </g>
    <g id="ytick_2">
     <g id="line2d_10">
      <g>
       <use style="stroke:#000000;stroke-width:0.8;" x="57.6" xlink:href="#m0bc65094c3" y="254.3616"/>
      </g>
     </g>
     <g id="text_11">
      <!-- 0.2 -->
      <g transform="translate(34.696875 258.160819)scale(0.1 -0.1)">
       <use xlink:href="#DejaVuSans-30"/>
       <use x="63.623047" xlink:href="#DejaVuSans-2e"/>
       <use x="95.410156" xlink:href="#DejaVuSans-32"/>
      </g>
     </g>
    </g>
    <g id="ytick_3">
     <g id="line2d_11">
      <g>
       <use style="stroke:#000000;stroke-width:0.8;" x="57.6" xlink:href="#m0bc65094c3" y="201.1392"/>
      </g>
     </g>
     <g id="text_12">
      <!-- 0.4 -->
      <g transform="translate(34.696875 204.938419)scale(0.1 -0.1)">
       <use xlink:href="#DejaVuSans-30"/>
       <use x="63.623047" xlink:href="#DejaVuSans-2e"/>
       <use x="95.410156" xlink:href="#DejaVuSans-34"/>
      </g>
     </g>
    </g>
    <g id="ytick_4">
     <g id="line2d_12">
      <g>
       <use style="stroke:#000000;stroke-width:0.8;" x="57.6" xlink:href="#m0bc65094c3" y="147.9168"/>
      </g>
     </g>
     <g id="text_13">
      <!-- 0.6 -->
      <g transform="translate(34.696875 151.716019)scale(0.1 -0.1)">
       <use xlink:href="#DejaVuSans-30"/>
       <use x="63.623047" xlink:href="#DejaVuSans-2e"/>
       <use x="95.410156" xlink:href="#DejaVuSans-36"/>
      </g>
     </g>
    </g>
    <g id="ytick_5">
     <g id="line2d_13">
      <g>
       <use style="stroke:#000000;stroke-width:0.8;" x="57.6" xlink:href="#m0bc65094c3" y="94.6944"/>
      </g>
     </g>
     <g id="text_14">
      <!-- 0.8 -->
      <g transform="translate(34.696875 98.493619)scale(0.1 -0.1)">
       <use xlink:href="#DejaVuSans-30"/>
       <use x="63.623047" xlink:href="#DejaVuSans-2e"/>
       <use x="95.410156" xlink:href="#DejaVuSans-38"/>
      </g>
     </g>
    </g>
    <g id="ytick_6">
     <g id="line2d_14">
      <g>
       <use style="stroke:#000000;stroke-width:0.8;" x="57.6" xlink:href="#m0bc65094c3" y="41.472"/>
      </g>
     </g>
     <g id="text_15">
      <!-- 1.0 -->
      <g transform="translate(34.696875 45.271219)scale(0.1 -0.1)">
       <use xlink:href="#DejaVuSans-31"/>
       <use x="63.623047" xlink:href="#DejaVuSans-2e"/>
       <use x="95.410156" xlink:href="#DejaVuSans-30"/>
      </g>
     </g>
    </g>
    <g id="text_16">
     <!-- Accuracy -->
     <g transform="translate(27.577344 208.770187)rotate(-90)scale(0.15 -0.15)">
      <defs>
       <path d="M 2188 4044 
L 1331 1722 
L 3047 1722 
L 2188 4044 
z
M 1831 4666 
L 2547 4666 
L 4325 0 
L 3669 0 
L 3244 1197 
L 1141 1197 
L 716 0 
L 50 0 
L 1831 4666 
z
" id="DejaVuSans-41" transform="scale(0.015625)"/>
       <path d="M 544 1381 
L 544 3500 
L 1119 3500 
L 1119 1403 
Q 1119 906 1312 657 
Q 1506 409 1894 409 
Q 2359 409 2629 706 
Q 2900 1003 2900 1516 
L 2900 3500 
L 3475 3500 
L 3475 0 
L 2900 0 
L 2900 538 
Q 2691 219 2414 64 
Q 2138 -91 1772 -91 
Q 1169 -91 856 284 
Q 544 659 544 1381 
z
M 1991 3584 
L 1991 3584 
z
" id="DejaVuSans-75" transform="scale(0.015625)"/>
       <path d="M 2631 2963 
Q 2534 3019 2420 3045 
Q 2306 3072 2169 3072 
Q 1681 3072 1420 2755 
Q 1159 2438 1159 1844 
L 1159 0 
L 581 0 
L 581 3500 
L 1159 3500 
L 1159 2956 
Q 1341 3275 1631 3429 
Q 1922 3584 2338 3584 
Q 2397 3584 2469 3576 
Q 2541 3569 2628 3553 
L 2631 2963 
z
" id="DejaVuSans-72" transform="scale(0.015625)"/>
       <path d="M 2194 1759 
Q 1497 1759 1228 1600 
Q 959 1441 959 1056 
Q 959 750 1161 570 
Q 1363 391 1709 391 
Q 2188 391 2477 730 
Q 2766 1069 2766 1631 
L 2766 1759 
L 2194 1759 
z
M 3341 1997 
L 3341 0 
L 2766 0 
L 2766 531 
Q 2569 213 2275 61 
Q 1981 -91 1556 -91 
Q 1019 -91 701 211 
Q 384 513 384 1019 
Q 384 1609 779 1909 
Q 1175 2209 1959 2209 
L 2766 2209 
L 2766 2266 
Q 2766 2663 2505 2880 
Q 2244 3097 1772 3097 
Q 1472 3097 1187 3025 
Q 903 2953 641 2809 
L 641 3341 
Q 956 3463 1253 3523 
Q 1550 3584 1831 3584 
Q 2591 3584 2966 3190 
Q 3341 2797 3341 1997 
z
" id="DejaVuSans-61" transform="scale(0.015625)"/>
       <path d="M 2059 -325 
Q 1816 -950 1584 -1140 
Q 1353 -1331 966 -1331 
L 506 -1331 
L 506 -850 
L 844 -850 
Q 1081 -850 1212 -737 
Q 1344 -625 1503 -206 
L 1606 56 
L 191 3500 
L 800 3500 
L 1894 763 
L 2988 3500 
L 3597 3500 
L 2059 -325 
z
" id="DejaVuSans-79" transform="scale(0.015625)"/>
      </defs>
      <use xlink:href="#DejaVuSans-41"/>
      <use x="66.658203" xlink:href="#DejaVuSans-63"/>
      <use x="121.638672" xlink:href="#DejaVuSans-63"/>
      <use x="176.619141" xlink:href="#DejaVuSans-75"/>
      <use x="239.998047" xlink:href="#DejaVuSans-72"/>
      <use x="281.111328" xlink:href="#DejaVuSans-61"/>
      <use x="342.390625" xlink:href="#DejaVuSans-63"/>
      <use x="397.371094" xlink:href="#DejaVuSans-79"/>
     </g>
    </g>
   </g>
   <g id="line2d_15">
    <path clip-path="url(#pad4d78f185)" d="M 73.832727 174.604711 
L 74.058338 173.147194 
L 74.28395 173.338973 
L 74.509561 175.103336 
L 74.735172 174.719779 
L 74.960783 173.645818 
L 75.186395 174.988269 
L 75.412006 174.604711 
L 75.637617 172.801993 
L 75.863228 172.38008 
L 76.088839 174.604711 
L 76.314451 172.149945 
L 76.540062 174.067731 
L 76.991284 175.640316 
L 77.216896 173.45404 
L 77.442507 172.418435 
L 77.668118 174.988269 
L 77.893729 172.188301 
L 78.11934 173.99102 
L 78.344952 172.64857 
L 78.570563 173.607463 
L 78.796174 172.341724 
L 79.021785 174.451289 
L 79.247397 173.952664 
L 79.473008 174.451289 
L 79.92423 177.021122 
L 80.149841 172.11159 
L 80.375453 172.64857 
L 80.601064 176.637565 
L 80.826675 171.881455 
L 81.052286 176.599209 
L 81.277898 173.914308 
L 81.503509 173.377328 
L 81.72912 174.873201 
L 81.954731 174.604711 
L 82.180342 175.908806 
L 82.405954 175.60196 
L 82.631565 171.804744 
L 82.857176 173.72253 
L 83.082787 173.377328 
L 83.308399 178.056726 
L 83.53401 175.141692 
L 83.759621 175.793739 
L 83.985232 176.100585 
L 84.210843 174.911557 
L 84.436455 178.440284 
L 84.662066 174.106087 
L 84.887677 175.908806 
L 85.113288 172.188301 
L 85.338899 174.144443 
L 85.564511 171.958167 
L 85.790122 172.456791 
L 86.015733 174.451289 
L 86.241344 172.034878 
L 86.466956 173.607463 
L 86.692567 173.492396 
L 86.918178 176.215652 
L 87.3694 173.300617 
L 87.595012 173.875953 
L 87.820623 175.256759 
L 88.046234 168.544507 
L 88.271845 168.889709 
L 88.497457 166.01303 
L 88.723068 165.20756 
L 88.948679 168.276017 
L 89.17429 163.097995 
L 89.399901 166.434943 
L 89.625513 166.588366 
L 89.851124 164.977425 
L 90.076735 164.171955 
L 90.302346 164.708935 
L 90.527958 162.637726 
L 90.753569 161.832256 
L 90.97918 161.870612 
L 91.204791 157.958328 
L 91.430402 159.300778 
L 91.881625 157.191214 
L 92.107236 158.84051 
L 92.332847 154.314534 
L 92.558459 157.382992 
L 92.78407 156.577522 
L 93.009681 157.498059 
L 93.235292 155.350139 
L 93.686515 157.651482 
L 93.912126 153.892622 
L 94.137737 153.432353 
L 94.363348 153.777554 
L 94.58896 153.163863 
L 94.814571 151.246077 
L 95.040182 155.004937 
L 95.265793 153.163863 
L 95.491404 154.161112 
L 95.717016 153.240574 
L 95.942627 154.813159 
L 96.393849 150.977587 
L 96.61946 151.93648 
L 96.845072 150.785808 
L 97.070683 148.215975 
L 97.296294 144.342047 
L 97.521905 145.531074 
L 97.747517 145.339295 
L 98.198739 144.073557 
L 98.649961 139.010601 
L 98.875573 140.314696 
L 99.101184 139.73936 
L 99.326795 137.85993 
L 99.552406 133.870935 
L 99.778018 135.366808 
L 100.003629 134.139425 
L 100.22924 134.983251 
L 100.454851 134.906539 
L 101.131685 130.112074 
L 101.357296 132.643551 
L 101.582907 130.495631 
L 101.808519 131.569591 
L 102.03413 130.68741 
L 102.259741 126.775126 
L 102.485352 129.958651 
L 102.710963 128.616201 
L 102.936575 128.232643 
L 103.162186 124.05187 
L 103.387797 128.194288 
L 103.613408 130.073718 
L 104.064631 126.161434 
L 104.290242 126.506636 
L 104.515853 124.090225 
L 104.741464 127.465529 
L 104.967076 127.695663 
L 105.192687 125.701166 
L 105.418298 121.750526 
L 105.643909 120.791633 
L 105.869521 125.12583 
L 106.095132 123.361467 
L 106.320743 122.671064 
L 106.546354 118.375223 
L 106.771965 120.753278 
L 106.997577 119.909452 
L 107.223188 122.364218 
L 107.448799 122.210795 
L 107.67441 124.05187 
L 107.900021 119.103982 
L 108.125633 120.177942 
L 108.351244 122.287506 
L 108.576855 120.177942 
L 108.802466 115.575255 
L 109.028078 115.191698 
L 109.253689 115.805389 
L 109.4793 114.654718 
L 109.704911 116.994417 
L 109.930522 117.224551 
L 110.156134 115.958812 
L 110.381745 116.956061 
L 110.607356 116.534148 
L 110.832967 111.931462 
L 111.28419 113.005422 
L 111.509801 111.662971 
L 111.735412 115.114986 
L 111.961023 114.578006 
L 112.186635 113.73418 
L 112.412246 111.087636 
L 112.637857 113.580758 
L 112.863468 111.087636 
L 113.08908 113.772536 
L 113.314691 111.164347 
L 113.540302 111.279414 
L 113.765913 111.010924 
L 113.991524 108.901359 
L 114.217136 110.589011 
L 114.442747 109.016427 
L 114.668358 111.893106 
L 114.893969 107.443842 
L 115.119581 112.199952 
L 115.345192 112.353374 
L 115.570803 113.427335 
L 115.796414 108.134245 
L 116.022025 109.16985 
L 116.473248 107.789044 
L 116.698859 110.397233 
L 116.92447 111.58626 
L 117.150081 107.597265 
L 117.375693 108.249312 
L 117.601304 105.21921 
L 117.826915 107.252063 
L 118.052526 111.432837 
L 118.278138 107.482198 
L 118.503749 106.178103 
L 118.72936 106.56166 
L 118.954971 106.063036 
L 119.180582 108.632869 
L 119.631805 104.528807 
L 119.857416 106.676728 
L 120.083027 104.41374 
L 120.308639 106.56166 
L 120.53425 106.178103 
L 120.759861 106.484949 
L 120.985472 101.191859 
L 121.211083 106.101392 
L 121.436695 108.326024 
L 121.662306 108.901359 
L 121.887917 104.298673 
L 122.113528 107.520553 
L 122.33914 102.074041 
L 122.564751 100.578168 
L 123.015973 107.520553 
L 123.241584 104.260317 
L 123.692807 103.224713 
L 123.918418 105.832902 
L 124.144029 101.191859 
L 124.369641 101.613772 
L 124.595252 102.304175 
L 124.820863 103.531558 
L 125.046474 102.457598 
L 125.272085 103.531558 
L 125.497697 100.846658 
L 125.948919 105.065787 
L 126.17453 101.537061 
L 126.625753 106.945218 
L 127.076975 101.613772 
L 127.302586 102.304175 
L 127.528198 102.380887 
L 127.753809 101.383638 
L 127.97942 100.961725 
L 128.205031 105.717835 
L 128.430642 103.378135 
L 128.656254 104.337029 
L 128.881865 101.613772 
L 129.107476 103.186357 
L 129.333087 101.076792 
L 129.558699 104.528807 
L 129.78431 103.684981 
L 130.009921 100.693235 
L 130.235532 102.26582 
L 130.461143 100.079543 
L 130.686755 104.758941 
L 130.912366 102.26582 
L 131.137977 101.613772 
L 131.363588 102.879511 
L 131.5892 101.728839 
L 131.814811 102.342531 
L 132.266033 101.230215 
L 132.491644 105.295922 
L 133.168478 99.695986 
L 133.394089 103.953471 
L 133.619701 104.797297 
L 133.845312 103.378135 
L 134.070923 99.849409 
L 134.296534 104.835653 
L 134.522145 98.430247 
L 134.747757 100.079543 
L 134.973368 99.274073 
L 135.198979 103.531558 
L 135.42459 100.539812 
L 135.650202 99.274073 
L 135.875813 99.695986 
L 136.101424 101.920618 
L 136.327035 101.920618 
L 136.552646 97.663133 
L 137.003869 103.953471 
L 137.22948 97.548066 
L 137.455091 99.043939 
L 137.680703 104.490451 
L 137.906314 99.811053 
L 138.131925 98.353536 
L 138.357536 99.619275 
L 138.583147 98.545314 
L 138.808759 99.772698 
L 139.03437 98.008334 
L 139.259981 101.805551 
L 139.485592 98.04669 
L 139.711203 99.964476 
L 139.936815 99.197362 
L 140.162426 100.923369 
L 140.388037 96.474106 
L 140.83926 101.153504 
L 141.290482 99.92612 
L 141.516093 98.123402 
L 141.741704 98.161757 
L 141.967316 99.695986 
L 142.192927 98.008334 
L 142.418538 97.7782 
L 142.644149 94.633031 
L 142.869761 97.356287 
L 143.095372 102.189108 
L 143.320983 96.934374 
L 143.772205 101.038436 
L 143.997817 96.742596 
L 144.223428 106.676728 
L 144.67465 96.320683 
L 144.900262 100.731591 
L 145.125873 99.235717 
L 145.351484 96.397394 
L 145.577095 96.70424 
L 145.802706 97.663133 
L 146.028318 96.282327 
L 146.47954 101.230215 
L 146.705151 95.36179 
L 147.156374 95.822058 
L 147.381985 97.126153 
L 147.607596 97.164509 
L 147.833207 96.320683 
L 148.058819 97.356287 
L 148.735652 92.868668 
L 148.961264 96.16726 
L 149.186875 96.896018 
L 149.412486 95.131655 
L 149.638097 94.671387 
L 149.863708 98.698737 
L 150.314931 97.394643 
L 150.540542 93.674138 
L 150.766153 97.087797 
L 150.991764 94.671387 
L 151.217376 97.049441 
L 151.442987 96.205615 
L 151.668598 94.748098 
L 151.894209 95.553568 
L 152.345432 98.161757 
L 152.571043 96.819307 
L 152.796654 96.205615 
L 153.022265 92.791956 
L 153.247877 95.131655 
L 153.473488 95.89877 
L 153.699099 92.370043 
L 153.92471 97.279576 
L 154.150322 93.750849 
L 154.375933 98.238469 
L 154.601544 95.706991 
L 154.827155 96.742596 
L 155.052766 94.364541 
L 155.278378 97.164509 
L 155.503989 92.254976 
L 155.7296 91.94813 
L 155.955211 92.293332 
L 156.180823 91.833063 
L 156.406434 98.200113 
L 156.857656 96.474106 
L 157.083267 97.893267 
L 157.308879 94.211118 
L 157.53449 99.005583 
L 157.760101 93.597426 
L 157.985712 92.254976 
L 158.211324 96.742596 
L 158.436935 94.786454 
L 158.662546 95.822058 
L 158.888157 94.671387 
L 159.113768 95.0933 
L 159.33938 94.172762 
L 159.564991 96.97273 
L 159.790602 95.36179 
L 160.016213 88.72625 
L 160.241824 95.860414 
L 160.467436 93.712494 
L 160.693047 93.789205 
L 160.918658 96.627528 
L 161.144269 93.597426 
L 161.369881 94.517964 
L 161.595492 94.671387 
L 161.821103 96.550817 
L 162.046714 94.287829 
L 162.272325 97.279576 
L 162.723548 94.211118 
L 162.949159 96.013837 
L 163.17477 95.553568 
L 163.400382 93.405648 
L 163.625993 92.7536 
L 163.851604 96.97273 
L 164.302826 93.597426 
L 164.528438 93.789205 
L 164.754049 98.967227 
L 164.97966 91.219372 
L 165.205271 92.024842 
L 165.430883 91.717996 
L 165.656494 95.745347 
L 165.882105 94.556319 
L 166.333327 94.096051 
L 166.558939 92.868668 
L 166.78455 94.441252 
L 167.010161 92.063197 
L 167.235772 93.942628 
L 167.461384 93.597426 
L 167.686995 88.918028 
L 167.912606 89.838566 
L 168.138217 93.712494 
L 168.363828 91.487862 
L 168.815051 95.208367 
L 169.040662 91.14266 
L 169.266273 89.723498 
L 169.491885 90.222123 
L 169.717496 89.953633 
L 169.943107 91.219372 
L 170.168718 94.633031 
L 170.394329 92.063197 
L 170.619941 91.334439 
L 170.845552 91.372794 
L 171.071163 88.956384 
L 171.296774 89.109807 
L 171.522385 91.756352 
L 171.973608 93.328936 
L 172.199219 93.022091 
L 172.650442 95.285078 
L 173.101664 89.761854 
L 173.327275 91.67964 
L 173.552886 91.794707 
L 173.778498 96.934374 
L 174.004109 92.446755 
L 174.22972 90.989237 
L 174.906554 94.326185 
L 175.132165 91.67964 
L 175.357776 91.449506 
L 175.583387 93.520715 
L 175.808999 91.717996 
L 176.03461 92.408399 
L 176.260221 90.528969 
L 176.485832 94.594675 
L 176.711444 90.989237 
L 176.937055 90.375546 
L 177.162666 90.413901 
L 177.388277 88.72625 
L 177.613888 93.022091 
L 177.8395 92.676889 
L 178.065111 91.065949 
L 178.290722 92.178265 
L 178.516333 90.145411 
L 178.741945 91.641285 
L 178.967556 90.87417 
L 179.193167 88.918028 
L 179.418778 88.611182 
L 179.644389 91.296083 
L 179.870001 89.148163 
L 180.321223 90.87417 
L 180.546834 89.570076 
L 180.998057 92.446755 
L 181.223668 88.45776 
L 181.449279 90.950882 
L 181.67489 90.452257 
L 181.900502 88.918028 
L 182.126113 91.219372 
L 182.351724 89.53172 
L 182.577335 92.830312 
L 182.802946 90.298834 
L 183.028558 90.490613 
L 183.254169 89.455008 
L 183.47978 90.490613 
L 183.705391 88.918028 
L 183.931003 88.265981 
L 184.607836 92.830312 
L 184.833447 88.496115 
L 185.059059 91.67964 
L 185.28467 86.731752 
L 185.510281 91.564573 
L 185.735892 91.487862 
L 185.961504 92.868668 
L 186.187115 91.67964 
L 186.412726 91.296083 
L 186.638337 89.80021 
L 187.08956 89.339941 
L 187.315171 85.84957 
L 187.540782 90.644036 
L 187.992005 94.326185 
L 188.217616 91.487862 
L 188.443227 92.907023 
L 188.668838 89.838566 
L 188.894449 91.296083 
L 189.120061 89.685143 
L 189.345672 93.137158 
L 189.571283 88.572827 
L 189.796894 91.104304 
L 190.022506 95.131655 
L 190.248117 90.912526 
L 190.473728 92.48511 
L 190.699339 91.41115 
L 190.92495 94.134406 
L 191.150562 93.137158 
L 191.376173 90.989237 
L 191.601784 85.84957 
L 191.827395 90.452257 
L 192.053007 87.038598 
L 192.278618 87.345444 
L 192.504229 86.846819 
L 192.72984 90.0687 
L 193.181063 89.186518 
L 193.406674 84.890677 
L 193.857896 91.564573 
L 194.083507 89.991988 
L 194.309119 90.298834 
L 194.53473 86.156416 
L 194.760341 89.26323 
L 194.985952 89.915277 
L 195.211564 89.53172 
L 195.437175 88.227625 
L 195.662786 88.496115 
L 195.888397 90.222123 
L 196.114008 87.882424 
L 196.33962 89.224874 
L 196.565231 92.408399 
L 196.790842 86.885175 
L 197.016453 89.685143 
L 197.242065 88.496115 
L 197.467676 90.797459 
L 197.693287 90.490613 
L 197.918898 85.197523 
L 198.144509 89.761854 
L 198.370121 89.186518 
L 198.595732 88.918028 
L 198.821343 87.767357 
L 199.046954 94.901521 
L 199.272566 88.764605 
L 199.498177 87.115309 
L 199.723788 88.496115 
L 199.949399 91.449506 
L 200.17501 89.493364 
L 200.400622 89.186518 
L 200.626233 88.419404 
L 200.851844 98.506959 
L 201.303067 88.611182 
L 201.528678 88.265981 
L 201.754289 89.570076 
L 201.9799 89.033095 
L 202.205511 88.956384 
L 202.431123 90.87417 
L 202.656734 89.493364 
L 202.882345 91.334439 
L 203.107956 89.53172 
L 203.333568 86.808464 
L 203.559179 91.14266 
L 203.78479 91.909775 
L 204.010401 90.298834 
L 204.236012 90.720747 
L 204.461624 87.690645 
L 204.687235 87.537222 
L 204.912846 90.145411 
L 205.138457 86.693396 
L 205.364068 92.715245 
L 205.58968 90.183767 
L 205.815291 88.956384 
L 206.040902 89.26323 
L 206.266513 87.268732 
L 206.492125 87.920779 
L 206.717736 87.767357 
L 206.943347 89.876921 
L 207.168958 86.501618 
L 207.394569 88.572827 
L 207.620181 88.112558 
L 207.845792 88.419404 
L 208.071403 88.419404 
L 208.297014 84.77561 
L 208.522626 91.67964 
L 208.748237 87.613934 
L 208.973848 94.978232 
L 209.199459 87.422155 
L 209.42507 86.079705 
L 209.650682 90.490613 
L 209.876293 86.655041 
L 210.101904 88.035847 
L 210.327515 94.096051 
L 210.553127 89.186518 
L 210.778738 89.301585 
L 211.004349 88.18927 
L 211.22996 89.339941 
L 211.455571 89.378297 
L 211.681183 85.964638 
L 211.906794 87.537222 
L 212.132405 86.424906 
L 212.358016 88.150914 
L 212.583628 88.381048 
L 212.809239 87.537222 
L 213.03485 85.504369 
L 213.260461 89.876921 
L 213.711684 84.276986 
L 213.937295 90.989237 
L 214.162906 85.504369 
L 214.388517 88.764605 
L 214.614128 88.534471 
L 214.83974 89.033095 
L 215.065351 89.071451 
L 215.290962 92.446755 
L 215.516573 86.923531 
L 215.967796 86.616685 
L 216.193407 89.26323 
L 216.419018 88.45776 
L 216.644629 88.496115 
L 216.870241 85.197523 
L 217.095852 87.805712 
L 217.321463 86.156416 
L 217.547074 86.079705 
L 217.772686 85.619436 
L 217.998297 86.309839 
L 218.223908 87.460511 
L 218.449519 86.961886 
L 218.67513 85.466013 
L 218.900742 86.846819 
L 219.126353 90.260479 
L 219.577575 85.696148 
L 220.028798 87.230376 
L 220.254409 90.0687 
L 220.48002 86.079705 
L 220.705631 86.424906 
L 220.931243 88.879673 
L 221.156854 84.23863 
L 221.382465 87.230376 
L 221.608076 87.383799 
L 221.833688 89.53172 
L 222.059299 89.915277 
L 222.510521 85.197523 
L 222.736132 85.964638 
L 222.961744 83.279737 
L 223.412966 90.298834 
L 223.638577 87.498867 
L 223.864189 86.233128 
L 224.0898 91.219372 
L 224.315411 89.224874 
L 224.541022 89.224874 
L 224.992245 84.737255 
L 225.217856 83.855073 
L 225.443467 85.274235 
L 225.669078 92.408399 
L 225.894689 83.740006 
L 226.345912 89.186518 
L 226.571523 85.926282 
L 226.797134 87.575578 
L 227.022746 87.767357 
L 227.248357 87.575578 
L 227.473968 87.192021 
L 227.699579 87.115309 
L 227.92519 87.613934 
L 228.150802 87.805712 
L 228.376413 84.008496 
L 228.602024 84.660543 
L 228.827635 82.129065 
L 229.278858 90.183767 
L 229.504469 85.657792 
L 229.73008 86.731752 
L 229.955691 89.53172 
L 230.181303 86.770108 
L 230.406914 89.685143 
L 230.632525 86.693396 
L 230.858136 85.427658 
L 231.083748 89.033095 
L 231.309359 86.693396 
L 231.53497 90.912526 
L 231.760581 85.734503 
L 231.986192 85.657792 
L 232.211804 88.112558 
L 232.437415 87.690645 
L 232.663026 86.539973 
L 232.888637 87.882424 
L 233.114249 84.929033 
L 233.33986 88.112558 
L 233.565471 85.887926 
L 233.791082 87.498867 
L 234.016693 84.23863 
L 234.467916 93.712494 
L 234.693527 88.956384 
L 235.14475 85.811215 
L 235.370361 86.386551 
L 235.595972 91.027593 
L 235.821583 86.501618 
L 236.047194 86.539973 
L 236.272806 90.030344 
L 236.498417 84.123563 
L 236.724028 87.038598 
L 237.17525 84.545476 
L 237.400862 88.419404 
L 237.626473 86.156416 
L 237.852084 86.118061 
L 238.077695 83.816717 
L 238.303307 86.808464 
L 238.754529 85.504369 
L 238.98014 84.046852 
L 239.205751 88.112558 
L 239.656974 82.972891 
L 239.882585 89.723498 
L 240.108196 86.309839 
L 240.333808 89.416653 
L 240.559419 86.501618 
L 240.78503 88.956384 
L 241.010641 84.008496 
L 241.236252 82.550978 
L 241.461864 86.808464 
L 241.687475 83.70165 
L 241.913086 85.84957 
L 242.138697 84.50712 
L 242.364309 88.534471 
L 242.58992 84.468764 
L 242.815531 86.655041 
L 243.041142 91.334439 
L 243.492365 87.422155 
L 243.943587 88.802961 
L 244.169198 86.578329 
L 244.39481 86.463262 
L 244.620421 87.844068 
L 244.846032 84.23863 
L 245.071643 87.652289 
L 245.297254 87.307088 
L 245.522866 85.811215 
L 245.974088 90.0687 
L 246.199699 84.545476 
L 246.425311 86.348195 
L 246.650922 84.315342 
L 246.876533 85.120812 
L 247.102144 85.466013 
L 247.327755 85.542725 
L 247.553367 83.16467 
L 247.778978 87.537222 
L 248.004589 86.002993 
L 248.2302 85.619436 
L 248.455811 86.616685 
L 248.681423 84.660543 
L 248.907034 85.389302 
L 249.132645 85.235879 
L 249.358256 86.846819 
L 249.583868 85.197523 
L 249.809479 90.145411 
L 250.03509 82.972891 
L 250.711924 86.539973 
L 250.937535 89.416653 
L 251.163146 84.813966 
L 251.388757 82.972891 
L 251.614369 83.778361 
L 251.83998 86.041349 
L 252.065591 85.350946 
L 252.291202 87.422155 
L 252.516813 85.466013 
L 252.742425 88.841317 
L 252.968036 89.378297 
L 253.193647 84.315342 
L 253.419258 87.882424 
L 253.64487 84.23863 
L 253.870481 85.427658 
L 254.096092 85.274235 
L 254.321703 85.811215 
L 254.772926 85.235879 
L 254.998537 85.887926 
L 255.224148 87.383799 
L 255.449759 85.0441 
L 255.675371 86.156416 
L 255.900982 83.011247 
L 256.126593 87.268732 
L 256.577815 84.23863 
L 256.803427 88.381048 
L 257.029038 85.504369 
L 257.254649 89.416653 
L 257.48026 84.929033 
L 257.705872 86.808464 
L 257.931483 87.115309 
L 258.157094 86.463262 
L 258.382705 86.731752 
L 258.608316 84.046852 
L 259.059539 86.578329 
L 259.28515 83.43316 
L 259.510761 86.002993 
L 259.736372 85.120812 
L 259.961984 86.271483 
L 260.187595 82.052354 
L 260.638817 90.145411 
L 260.864429 88.112558 
L 261.09004 87.920779 
L 261.315651 84.545476 
L 261.541262 84.698899 
L 261.766873 85.274235 
L 261.992485 80.786615 
L 262.218096 87.575578 
L 262.443707 83.624939 
L 262.669318 86.041349 
L 263.120541 88.150914 
L 263.571763 84.276986 
L 263.797374 82.819468 
L 264.022986 84.392053 
L 264.248597 84.852322 
L 264.474208 83.893429 
L 264.699819 85.235879 
L 264.925431 88.381048 
L 265.151042 83.70165 
L 265.602264 89.53172 
L 265.827875 83.624939 
L 266.053487 82.435911 
L 266.279098 84.468764 
L 266.504709 85.31259 
L 266.73032 84.583832 
L 266.955932 87.383799 
L 267.181543 83.203026 
L 267.407154 87.192021 
L 267.632765 86.616685 
L 267.858376 81.323595 
L 268.083988 81.668797 
L 268.309599 79.482521 
L 268.53521 81.745508 
L 268.760821 85.350946 
L 268.986432 85.926282 
L 269.212044 85.389302 
L 269.437655 87.767357 
L 270.114489 82.819468 
L 270.3401 83.011247 
L 270.565711 83.816717 
L 270.791322 81.515374 
L 271.016933 84.660543 
L 271.242545 85.350946 
L 271.468156 84.392053 
L 271.693767 90.797459 
L 271.919378 86.233128 
L 272.14499 84.046852 
L 272.370601 85.84957 
L 272.596212 81.016749 
L 273.047434 85.005745 
L 273.273046 86.041349 
L 273.724268 81.28524 
L 273.949879 84.430409 
L 274.175491 82.857824 
L 274.401102 82.09071 
L 274.626713 83.356449 
L 274.852324 81.668797 
L 275.077935 85.235879 
L 275.303547 81.975643 
L 275.529158 87.230376 
L 275.754769 83.663294 
L 276.205992 89.915277 
L 276.431603 85.0441 
L 276.657214 84.008496 
L 276.882825 86.731752 
L 277.108436 84.967389 
L 277.334048 84.276986 
L 277.559659 84.660543 
L 277.78527 84.123563 
L 278.010881 85.427658 
L 278.236493 83.778361 
L 278.462104 84.353697 
L 278.687715 81.668797 
L 278.913326 81.323595 
L 279.364549 85.887926 
L 279.59016 86.079705 
L 279.815771 85.120812 
L 280.041382 85.657792 
L 280.266993 82.435911 
L 280.492605 84.77561 
L 280.718216 82.244133 
L 280.943827 86.923531 
L 281.169438 85.159167 
L 281.39505 80.134568 
L 281.620661 82.474267 
L 281.846272 83.548227 
L 282.071883 85.235879 
L 282.523106 84.737255 
L 282.974328 83.16467 
L 283.199939 86.424906 
L 283.425551 82.09071 
L 283.651162 84.813966 
L 283.876773 82.934536 
L 284.102384 86.539973 
L 284.327995 82.512623 
L 284.779218 84.468764 
L 285.004829 84.698899 
L 285.23044 83.855073 
L 285.456052 84.545476 
L 285.681663 85.619436 
L 285.907274 84.200274 
L 286.132885 84.967389 
L 286.358496 90.720747 
L 286.809719 86.041349 
L 287.03533 85.926282 
L 287.260941 82.62769 
L 287.712164 86.002993 
L 287.937775 82.435911 
L 288.163386 85.964638 
L 288.388997 83.087958 
L 288.614609 85.734503 
L 288.84022 84.085207 
L 289.065831 84.967389 
L 289.291442 83.855073 
L 289.742665 83.43316 
L 289.968276 89.378297 
L 290.193887 84.392053 
L 290.419498 83.624939 
L 290.64511 87.038598 
L 291.321943 80.556481 
L 291.547554 84.813966 
L 291.773166 79.367453 
L 292.449999 89.071451 
L 292.901222 82.666046 
L 293.126833 86.731752 
L 293.352444 87.537222 
L 293.578055 86.501618 
L 293.803667 83.586583 
L 294.029278 95.63028 
L 294.254889 86.885175 
L 294.4805 86.578329 
L 294.706112 81.438662 
L 294.931723 83.931784 
L 295.157334 84.046852 
L 295.382945 83.663294 
L 295.608556 84.123563 
L 295.834168 83.893429 
L 296.059779 84.929033 
L 296.28539 88.918028 
L 296.511001 83.011247 
L 296.736613 82.052354 
L 296.962224 86.386551 
L 297.187835 85.197523 
L 297.413446 86.271483 
L 297.639057 85.005745 
L 297.864669 82.972891 
L 298.09028 85.696148 
L 298.315891 83.087958 
L 298.541502 85.772859 
L 298.767114 85.504369 
L 299.218336 82.167421 
L 299.443947 82.397555 
L 299.669558 81.170172 
L 299.89517 81.323595 
L 300.346392 85.84957 
L 300.572003 84.085207 
L 300.797615 85.58108 
L 301.023226 89.109807 
L 301.248837 84.008496 
L 301.474448 84.890677 
L 301.700059 90.528969 
L 301.925671 84.046852 
L 302.376893 86.846819 
L 302.602504 86.770108 
L 302.828115 85.427658 
L 303.053727 82.397555 
L 303.504949 82.972891 
L 303.73056 82.62769 
L 303.956172 84.23863 
L 304.181783 84.161919 
L 304.407394 83.586583 
L 304.633005 84.583832 
L 304.858616 81.515374 
L 305.084228 85.082456 
L 305.309839 82.052354 
L 305.53545 83.931784 
L 305.761061 86.808464 
L 305.986673 87.537222 
L 306.212284 83.855073 
L 306.437895 82.972891 
L 306.663506 85.504369 
L 307.114729 79.751011 
L 307.565951 88.342692 
L 307.791562 84.468764 
L 308.017174 82.742757 
L 308.242785 82.972891 
L 308.468396 84.008496 
L 308.694007 83.049603 
L 308.919618 83.586583 
L 309.370841 88.18927 
L 309.596452 87.498867 
L 310.047675 84.123563 
L 310.273286 85.350946 
L 310.498897 85.734503 
L 310.724508 89.53172 
L 310.950119 90.413901 
L 311.401342 84.430409 
L 311.626953 83.471516 
L 311.852564 86.424906 
L 312.078176 85.120812 
L 312.529398 86.271483 
L 312.755009 83.279737 
L 312.98062 87.613934 
L 313.206232 82.3592 
L 313.431843 86.693396 
L 313.657454 86.501618 
L 313.883065 82.397555 
L 314.108676 81.400307 
L 314.334288 84.161919 
L 314.559899 85.005745 
L 314.78551 81.323595 
L 315.236733 84.200274 
L 315.462344 82.742757 
L 315.687955 83.011247 
L 315.913566 81.860575 
L 316.139177 84.852322 
L 316.364789 86.041349 
L 316.5904 88.419404 
L 316.816011 80.748259 
L 317.041622 83.356449 
L 317.718456 84.468764 
L 317.944067 85.466013 
L 318.169678 83.740006 
L 318.39529 88.112558 
L 318.620901 84.737255 
L 318.846512 85.657792 
L 319.072123 87.345444 
L 319.297735 81.898931 
L 319.523346 83.778361 
L 319.748957 84.698899 
L 319.974568 84.046852 
L 320.200179 83.816717 
L 320.425791 84.622187 
L 320.651402 84.77561 
L 320.877013 86.118061 
L 321.102624 82.397555 
L 321.328236 81.937287 
L 321.553847 82.052354 
L 321.779458 85.887926 
L 322.005069 81.745508 
L 322.456292 83.43316 
L 322.681903 86.194772 
L 322.907514 84.23863 
L 323.133125 84.967389 
L 323.358736 82.435911 
L 323.584348 88.074202 
L 323.809959 87.115309 
L 324.03557 90.950882 
L 324.261181 90.030344 
L 324.486793 86.424906 
L 324.938015 83.394804 
L 325.163626 87.575578 
L 325.389237 84.545476 
L 325.614849 85.58108 
L 325.84046 81.783864 
L 326.066071 81.400307 
L 326.517294 85.504369 
L 326.742905 83.126314 
L 326.968516 83.586583 
L 327.194127 84.852322 
L 327.419738 84.890677 
L 327.64535 81.592085 
L 327.870961 80.940038 
L 328.096572 82.129065 
L 328.322183 85.926282 
L 328.773406 79.252386 
L 328.999017 84.200274 
L 329.224628 80.134568 
L 329.675851 86.578329 
L 329.901462 83.624939 
L 330.127073 82.781113 
L 330.352684 82.857824 
L 330.578296 83.394804 
L 330.803907 86.348195 
L 331.029518 86.309839 
L 331.255129 90.413901 
L 331.48074 85.504369 
L 331.706352 86.616685 
L 332.157574 82.781113 
L 332.383185 82.167421 
L 332.608797 83.816717 
L 332.834408 86.424906 
L 333.060019 80.019501 
L 333.28563 85.58108 
L 333.511241 80.441414 
L 333.962464 84.852322 
L 334.188075 84.123563 
L 334.413686 81.630441 
L 334.639297 82.474267 
L 334.864909 82.550978 
L 335.09052 83.586583 
L 335.316131 86.961886 
L 335.541742 85.427658 
L 335.767354 80.824971 
L 336.669798 89.455008 
L 336.89541 89.991988 
L 337.121021 83.931784 
L 337.346632 84.085207 
L 337.572243 87.153665 
L 337.797855 80.824971 
L 338.023466 81.438662 
L 338.249077 83.471516 
L 338.700299 82.205777 
L 338.925911 80.479769 
L 339.151522 86.424906 
L 339.377133 82.09071 
L 339.602744 81.898931 
L 339.828356 87.920779 
L 340.053967 84.008496 
L 340.279578 82.09071 
L 340.505189 82.474267 
L 340.7308 86.002993 
L 340.956412 82.972891 
L 341.182023 84.353697 
L 341.407634 82.819468 
L 341.858857 84.967389 
L 342.084468 81.745508 
L 342.310079 87.115309 
L 342.53569 81.82222 
L 342.761301 82.435911 
L 342.986913 84.77561 
L 343.212524 85.274235 
L 343.438135 82.205777 
L 343.663746 83.087958 
L 343.889358 84.77561 
L 344.114969 85.389302 
L 344.34058 84.392053 
L 344.566191 81.400307 
L 344.791802 81.783864 
L 345.017414 81.400307 
L 345.243025 83.740006 
L 345.468636 81.093461 
L 345.694247 83.509871 
L 345.919858 80.671548 
L 346.14547 81.975643 
L 346.371081 85.84957 
L 346.822303 90.030344 
L 347.273526 83.97014 
L 347.499137 84.200274 
L 347.724748 83.241381 
L 347.950359 85.120812 
L 348.175971 84.468764 
L 348.401582 81.515374 
L 348.627193 87.307088 
L 348.852804 86.309839 
L 349.078416 81.898931 
L 349.304027 82.282488 
L 349.529638 80.824971 
L 349.755249 80.326346 
L 349.98086 83.356449 
L 350.206472 84.353697 
L 350.432083 83.126314 
L 350.657694 84.23863 
L 350.883305 86.386551 
L 351.108917 80.287991 
L 351.334528 83.049603 
L 351.560139 81.055105 
L 351.78575 87.038598 
L 352.011361 79.674299 
L 352.462584 84.660543 
L 352.688195 79.866078 
L 352.913806 82.244133 
L 353.365029 91.641285 
L 353.816251 86.961886 
L 354.041862 85.504369 
L 354.267474 82.052354 
L 354.493085 80.326346 
L 354.718696 81.170172 
L 354.944307 85.466013 
L 355.169919 84.583832 
L 355.39553 80.633192 
L 355.846752 82.09071 
L 356.072363 79.482521 
L 356.297975 79.712655 
L 356.523586 80.940038 
L 356.749197 79.981145 
L 356.974808 84.545476 
L 357.200419 86.309839 
L 357.651642 81.093461 
L 357.877253 85.31259 
L 358.102864 79.060608 
L 358.328476 83.548227 
L 358.554087 82.857824 
L 358.779698 81.246884 
L 359.005309 86.041349 
L 359.23092 88.150914 
L 359.456532 80.786615 
L 359.682143 81.668797 
L 359.907754 81.82222 
L 360.133365 82.512623 
L 360.358977 82.397555 
L 360.584588 84.392053 
L 360.810199 81.898931 
L 361.03581 84.583832 
L 361.261421 83.931784 
L 361.487033 80.518125 
L 361.712644 84.77561 
L 361.938255 86.578329 
L 362.163866 86.808464 
L 362.389478 82.972891 
L 362.615089 83.241381 
L 362.8407 86.770108 
L 363.066311 81.016749 
L 363.291922 83.279737 
L 363.517534 81.668797 
L 363.743145 81.323595 
L 363.968756 81.783864 
L 364.194367 83.97014 
L 364.419979 82.550978 
L 364.64559 86.233128 
L 365.096812 82.435911 
L 365.548035 85.120812 
L 365.773646 80.287991 
L 365.999257 84.660543 
L 366.224868 83.318093 
L 366.450479 78.40856 
L 366.676091 83.203026 
L 366.901702 80.518125 
L 367.127313 82.474267 
L 367.352924 80.287991 
L 367.578536 81.055105 
L 367.804147 82.666046 
L 368.029758 81.975643 
L 368.255369 83.241381 
L 368.48098 86.539973 
L 368.706592 83.471516 
L 368.932203 83.43316 
L 369.157814 82.742757 
L 369.383425 80.901682 
L 369.609037 81.477018 
L 369.834648 83.16467 
L 370.28587 81.361951 
L 370.511481 86.424906 
L 370.962704 80.479769 
L 371.188315 84.967389 
L 371.413926 82.781113 
L 371.639538 82.819468 
L 371.865149 85.734503 
L 372.09076 79.751011 
L 372.316371 85.159167 
L 372.541982 80.633192 
L 372.767594 84.392053 
L 373.218816 79.597588 
L 373.444427 82.781113 
L 373.670039 83.356449 
L 373.89565 85.31259 
L 374.121261 83.43316 
L 374.346872 84.583832 
L 374.572483 82.742757 
L 374.798095 84.545476 
L 375.023706 83.356449 
L 375.249317 83.816717 
L 375.474928 79.444165 
L 375.70054 83.43316 
L 375.926151 81.246884 
L 376.151762 83.394804 
L 376.377373 82.397555 
L 376.602984 83.509871 
L 376.828596 83.663294 
L 377.054207 84.468764 
L 377.279818 80.287991 
L 377.505429 81.400307 
L 377.73104 80.134568 
L 377.956652 83.893429 
L 378.407874 82.89618 
L 378.633485 83.97014 
L 378.859097 79.904434 
L 379.310319 87.920779 
L 379.761541 78.792118 
L 380.212764 86.539973 
L 380.663986 81.361951 
L 380.889598 81.400307 
L 381.115209 81.016749 
L 381.34082 82.167421 
L 381.792042 86.846819 
L 382.017654 80.518125 
L 382.243265 81.055105 
L 382.468876 82.244133 
L 382.920099 81.131817 
L 383.14571 79.827722 
L 383.371321 85.235879 
L 383.596932 86.539973 
L 383.822543 85.082456 
L 384.273766 83.70165 
L 384.499377 81.170172 
L 384.724988 83.087958 
L 384.9506 83.509871 
L 385.176211 78.830473 
L 385.401822 83.203026 
L 385.627433 80.748259 
L 385.853044 84.046852 
L 386.078656 82.589334 
L 386.304267 78.293493 
L 386.529878 84.698899 
L 386.755489 81.055105 
L 386.981101 84.50712 
L 387.206712 81.400307 
L 387.432323 82.704401 
L 387.657934 86.156416 
L 387.883545 81.860575 
L 388.109157 83.087958 
L 388.334768 79.290742 
L 388.560379 81.246884 
L 388.78599 78.523628 
L 389.011601 82.62769 
L 389.237213 82.819468 
L 389.462824 87.038598 
L 389.688435 87.192021 
L 389.914046 90.260479 
L 390.139658 84.622187 
L 390.365269 84.276986 
L 390.59088 84.737255 
L 391.267714 78.907185 
L 391.493325 84.468764 
L 391.718936 79.252386 
L 391.944547 78.983896 
L 392.170159 85.159167 
L 392.39577 83.855073 
L 392.621381 81.55373 
L 392.846992 82.435911 
L 393.072603 85.235879 
L 393.298215 82.474267 
L 393.749437 84.890677 
L 393.975048 83.471516 
L 394.20066 108.287668 
L 394.651882 88.112558 
L 394.877493 90.490613 
L 395.103104 88.99474 
L 395.328716 82.972891 
L 395.554327 85.657792 
L 396.005549 81.246884 
L 396.231161 89.071451 
L 396.456772 82.09071 
L 396.907994 79.405809 
L 397.133605 80.403058 
L 397.359217 83.778361 
L 397.584828 82.972891 
L 397.810439 77.87158 
L 398.03605 78.063359 
L 398.487273 84.698899 
L 398.487273 84.698899 
" style="fill:none;stroke:#1f77b4;stroke-linecap:square;stroke-width:1.5;"/>
   </g>
   <g id="line2d_16">
    <path clip-path="url(#pad4d78f185)" d="M 73.832727 174.816288 
L 74.058338 174.284064 
L 74.509561 174.838464 
L 74.735172 174.904992 
L 74.960783 173.929248 
L 75.186395 173.685312 
L 75.412006 175.681152 
L 75.637617 174.151008 
L 75.863228 174.483648 
L 76.088839 175.19328 
L 76.314451 174.727584 
L 76.540062 175.370688 
L 76.765673 174.30624 
L 76.991284 175.41504 
L 77.216896 173.574432 
L 77.442507 175.41504 
L 77.668118 173.685312 
L 77.893729 173.75184 
L 78.11934 173.130912 
L 78.344952 174.74976 
L 78.570563 175.481568 
L 78.796174 171.622944 
L 79.247397 175.348512 
L 79.473008 173.907072 
L 79.698619 174.350592 
L 79.92423 173.397024 
L 80.149841 173.441376 
L 80.375453 174.239712 
L 80.601064 173.064384 
L 80.826675 173.64096 
L 81.052286 176.900832 
L 81.277898 177.011712 
L 81.503509 175.237632 
L 81.72912 175.038048 
L 81.954731 174.19536 
L 82.180342 172.687392 
L 82.405954 172.08864 
L 82.631565 175.259808 
L 82.857176 174.616704 
L 83.082787 173.574432 
L 83.308399 173.707488 
L 83.53401 174.661056 
L 83.759621 174.128832 
L 83.985232 175.171104 
L 84.210843 175.0824 
L 84.436455 175.592448 
L 84.662066 173.707488 
L 84.887677 175.52592 
L 85.113288 174.106656 
L 85.338899 174.816288 
L 85.564511 175.126752 
L 85.790122 172.8648 
L 86.015733 173.64096 
L 86.241344 176.767776 
L 86.692567 172.598688 
L 86.918178 173.951424 
L 87.3694 174.505824 
L 87.595012 173.907072 
L 87.820623 168.740064 
L 88.046234 166.367232 
L 88.271845 166.832928 
L 88.497457 166.500288 
L 88.723068 169.161408 
L 89.17429 166.256352 
L 89.399901 162.597312 
L 89.625513 163.9944 
L 89.851124 161.532864 
L 90.076735 163.151712 
L 90.302346 162.10944 
L 90.527958 159.11568 
L 90.753569 159.736608 
L 90.97918 161.798976 
L 91.204791 157.629888 
L 91.656014 156.410208 
L 92.107236 157.984704 
L 92.558459 154.34784 
L 92.78407 155.90016 
L 93.009681 155.767104 
L 93.235292 154.857888 
L 93.460903 156.920256 
L 93.686515 152.063712 
L 93.912126 156.654144 
L 94.137737 154.0152 
L 94.363348 152.839872 
L 94.58896 156.099744 
L 95.040182 150.24528 
L 95.491404 158.627808 
L 95.717016 151.176672 
L 95.942627 151.02144 
L 96.168238 151.664544 
L 96.61946 147.295872 
L 96.845072 147.761568 
L 97.296294 145.277856 
L 97.521905 145.6992 
L 97.747517 140.421312 
L 97.973128 141.574464 
L 98.198739 139.71168 
L 98.42435 139.667328 
L 98.649961 139.999968 
L 98.875573 136.984032 
L 99.101184 136.296576 
L 99.552406 133.28064 
L 99.778018 137.16144 
L 100.003629 134.16768 
L 100.22924 134.034624 
L 100.454851 132.571008 
L 100.680462 129.865536 
L 100.906074 132.016608 
L 101.131685 131.573088 
L 101.357296 139.135104 
L 101.582907 130.84128 
L 102.259741 128.579328 
L 102.485352 131.61744 
L 102.710963 128.5128 
L 102.936575 128.934144 
L 103.162186 125.984736 
L 103.387797 126.428256 
L 103.613408 127.160064 
L 103.83902 124.365888 
L 104.064631 124.454592 
L 104.290242 126.694368 
L 104.515853 125.7408 
L 104.741464 123.19056 
L 104.967076 124.543296 
L 105.192687 123.057504 
L 105.418298 124.498944 
L 105.869521 122.325696 
L 106.095132 123.234912 
L 106.320743 122.591808 
L 106.546354 121.52736 
L 106.771965 121.593888 
L 106.997577 123.013152 
L 107.448799 120.285504 
L 107.900021 121.327776 
L 108.125633 117.513504 
L 108.351244 118.821888 
L 108.576855 120.839904 
L 108.802466 117.180864 
L 109.253689 116.8704 
L 109.4793 115.53984 
L 109.704911 115.695072 
L 109.930522 118.09008 
L 110.156134 114.608448 
L 110.381745 114.43104 
L 110.607356 119.132352 
L 110.832967 115.118496 
L 111.058579 114.275808 
L 111.28419 112.856544 
L 111.509801 110.528064 
L 111.961023 117.380448 
L 112.186635 112.036032 
L 112.412246 113.410944 
L 112.637857 113.011776 
L 112.863468 119.043648 
L 113.08908 109.485792 
L 113.314691 114.963264 
L 113.540302 109.042272 
L 113.765913 111.392928 
L 113.991524 108.88704 
L 114.217136 110.99376 
L 114.442747 109.308384 
L 114.668358 114.275808 
L 115.570803 108.487872 
L 115.796414 110.10672 
L 116.022025 110.483712 
L 116.247637 110.43936 
L 116.473248 105.361056 
L 116.698859 109.751904 
L 116.92447 108.44352 
L 117.150081 108.11088 
L 117.375693 108.155232 
L 117.601304 106.647264 
L 117.826915 107.822592 
L 118.052526 107.135136 
L 118.278138 111.570336 
L 118.503749 106.536384 
L 118.72936 105.56064 
L 118.954971 105.250176 
L 119.180582 106.425504 
L 119.406194 104.78448 
L 119.631805 106.869024 
L 119.857416 104.717952 
L 120.083027 107.379072 
L 120.308639 104.629248 
L 120.53425 104.695776 
L 120.759861 107.977824 
L 120.985472 104.851008 
L 121.211083 107.933472 
L 121.436695 108.288288 
L 121.662306 108.11088 
L 121.887917 103.653504 
L 122.113528 109.707552 
L 122.33914 100.659744 
L 122.790362 107.157312 
L 123.015973 105.11712 
L 123.241584 106.758144 
L 123.692807 103.23216 
L 123.918418 104.873184 
L 124.144029 100.171872 
L 124.369641 103.45392 
L 124.595252 103.89744 
L 124.820863 103.23216 
L 125.046474 104.318784 
L 125.497697 102.589056 
L 125.723308 111.392928 
L 125.948919 107.623008 
L 126.17453 100.859328 
L 126.400142 101.635488 
L 126.625753 104.56272 
L 126.851364 100.881504 
L 127.076975 108.376992 
L 127.302586 103.12128 
L 127.528198 103.476096 
L 127.753809 105.294528 
L 127.97942 103.34304 
L 128.430642 104.56272 
L 128.656254 103.34304 
L 128.881865 103.653504 
L 129.107476 101.214144 
L 129.333087 101.147616 
L 129.558699 103.542624 
L 129.78431 101.480256 
L 130.009921 101.191968 
L 130.235532 102.189888 
L 130.461143 102.189888 
L 130.686755 100.637568 
L 130.912366 101.302848 
L 131.137977 100.548864 
L 131.363588 98.220384 
L 132.040422 101.081088 
L 132.266033 99.440064 
L 132.491644 99.706176 
L 132.717256 99.173952 
L 132.942867 98.286912 
L 133.168478 101.524608 
L 133.394089 101.546784 
L 133.619701 101.435904 
L 133.845312 105.804576 
L 134.296534 97.599456 
L 134.522145 98.109504 
L 134.747757 99.927936 
L 134.973368 99.307008 
L 135.198979 100.46016 
L 135.42459 103.076928 
L 135.650202 100.282752 
L 136.101424 99.262656 
L 136.327035 101.413728 
L 136.552646 99.728352 
L 136.778258 101.480256 
L 137.22948 97.311168 
L 137.455091 97.111584 
L 137.680703 99.706176 
L 137.906314 96.823296 
L 138.131925 99.706176 
L 138.357536 100.105344 
L 138.583147 102.810816 
L 138.808759 100.12752 
L 139.259981 98.819136 
L 139.485592 102.079008 
L 139.711203 98.13168 
L 139.936815 102.322944 
L 140.388037 98.087328 
L 140.613648 101.103264 
L 141.064871 97.79904 
L 141.516093 101.058912 
L 141.741704 98.930016 
L 141.967316 99.972288 
L 142.192927 99.706176 
L 142.644149 95.115744 
L 142.869761 98.530848 
L 143.095372 97.599456 
L 143.320983 95.58144 
L 143.546594 96.535008 
L 143.772205 96.645888 
L 143.997817 97.843392 
L 144.223428 101.990304 
L 144.449039 100.216224 
L 144.67465 96.313248 
L 144.900262 99.24048 
L 145.125873 96.845472 
L 145.351484 98.397792 
L 145.577095 94.982688 
L 145.802706 94.6944 
L 146.028318 97.555104 
L 146.253929 94.893984 
L 146.47954 101.591136 
L 146.705151 96.535008 
L 146.930763 96.46848 
L 147.156374 97.4664 
L 147.381985 96.424128 
L 147.607596 96.313248 
L 147.833207 97.444224 
L 148.058819 96.490656 
L 148.28443 94.627872 
L 148.510041 95.35968 
L 148.735652 97.710336 
L 148.961264 93.896064 
L 149.186875 97.57728 
L 149.638097 95.625792 
L 150.08932 98.419968 
L 150.314931 96.291072 
L 150.766153 98.752608 
L 151.217376 94.273056 
L 151.442987 97.045056 
L 151.668598 94.960512 
L 151.894209 98.5752 
L 152.119821 95.315328 
L 152.345432 95.226624 
L 152.571043 97.311168 
L 152.796654 94.960512 
L 153.022265 94.91616 
L 153.247877 99.506592 
L 153.699099 93.430368 
L 153.92471 96.02496 
L 154.150322 91.611936 
L 154.375933 95.315328 
L 154.601544 94.184352 
L 154.827155 94.938336 
L 155.052766 92.853792 
L 155.278378 97.843392 
L 155.503989 95.8032 
L 155.7296 94.982688 
L 155.955211 96.291072 
L 156.180823 95.847552 
L 156.406434 97.79904 
L 156.632045 93.496896 
L 156.857656 93.36384 
L 157.083267 98.708256 
L 157.308879 94.783104 
L 157.53449 95.492736 
L 157.760101 95.492736 
L 157.985712 95.714496 
L 158.211324 95.182272 
L 158.436935 95.891904 
L 158.662546 93.896064 
L 158.888157 95.270976 
L 159.113768 91.412352 
L 159.33938 94.47264 
L 159.564991 92.432448 
L 159.790602 94.982688 
L 160.016213 93.69648 
L 160.467436 93.119904 
L 160.693047 94.494816 
L 160.918658 93.91824 
L 161.144269 91.855872 
L 161.369881 92.299392 
L 161.821103 95.781024 
L 162.046714 95.093568 
L 162.272325 97.776864 
L 162.497937 96.002784 
L 162.723548 95.448384 
L 162.949159 94.006944 
L 163.17477 97.045056 
L 163.625993 92.25504 
L 163.851604 95.891904 
L 164.077215 94.871808 
L 164.302826 96.202368 
L 164.528438 93.940416 
L 164.754049 99.395712 
L 164.97966 93.275136 
L 165.205271 95.093568 
L 165.430883 93.0312 
L 165.656494 95.337504 
L 165.882105 93.740832 
L 166.107716 90.503136 
L 166.333327 105.871104 
L 166.558939 97.24464 
L 166.78455 93.25296 
L 167.010161 97.24464 
L 167.235772 90.680544 
L 167.461384 93.629952 
L 167.686995 90.614016 
L 168.138217 94.317408 
L 168.363828 94.317408 
L 168.58944 96.645888 
L 168.815051 91.47888 
L 169.040662 93.896064 
L 169.266273 93.230784 
L 169.491885 91.301472 
L 169.717496 92.964672 
L 169.943107 92.80944 
L 170.168718 91.678464 
L 170.394329 91.390176 
L 170.619941 93.386016 
L 170.845552 89.749152 
L 171.296774 94.561344 
L 171.522385 91.079712 
L 171.747997 93.541248 
L 171.973608 90.503136 
L 172.199219 95.958432 
L 172.650442 92.942496 
L 172.876053 94.273056 
L 173.101664 93.652128 
L 173.327275 94.117824 
L 173.552886 92.565504 
L 173.778498 95.537088 
L 174.22972 90.769248 
L 174.455331 89.970912 
L 174.680943 97.510752 
L 174.906554 92.720736 
L 175.132165 92.58768 
L 175.357776 90.414432 
L 175.583387 91.412352 
L 175.808999 96.291072 
L 176.260221 89.948736 
L 176.485832 91.833696 
L 176.711444 89.993088 
L 176.937055 92.432448 
L 177.162666 93.097728 
L 177.388277 91.634112 
L 177.613888 96.645888 
L 177.8395 92.609856 
L 178.065111 93.740832 
L 178.290722 95.980608 
L 178.741945 88.884288 
L 178.967556 92.609856 
L 179.193167 92.25504 
L 179.418778 89.993088 
L 179.644389 93.14208 
L 179.870001 90.392256 
L 180.095612 89.948736 
L 180.321223 92.14416 
L 180.546834 92.742912 
L 180.772446 91.47888 
L 180.998057 92.011104 
L 181.223668 92.011104 
L 181.449279 90.436608 
L 181.67489 90.347904 
L 181.900502 93.829536 
L 182.126113 93.297312 
L 182.351724 90.059616 
L 182.577335 94.450464 
L 182.802946 90.325728 
L 183.028558 89.993088 
L 183.47978 92.565504 
L 183.705391 88.92864 
L 183.931003 91.434528 
L 184.156614 92.03328 
L 184.382225 93.386016 
L 184.607836 92.166336 
L 184.833447 89.749152 
L 185.059059 90.303552 
L 185.28467 89.37216 
L 185.510281 92.654208 
L 185.735892 88.640352 
L 185.961504 92.099808 
L 186.187115 90.281376 
L 186.412726 90.614016 
L 186.638337 87.15456 
L 186.863948 93.5856 
L 187.08956 87.065856 
L 187.315171 90.791424 
L 187.540782 89.216928 
L 187.766393 89.03952 
L 187.992005 95.647968 
L 188.217616 89.239104 
L 188.443227 90.791424 
L 188.894449 89.527392 
L 189.120061 89.81568 
L 189.345672 91.833696 
L 189.571283 88.618176 
L 189.796894 90.968832 
L 190.022506 90.214848 
L 190.248117 92.36592 
L 190.473728 90.103968 
L 190.699339 89.860032 
L 190.92495 104.141376 
L 191.150562 93.341664 
L 191.376173 92.831616 
L 191.601784 88.92864 
L 191.827395 91.412352 
L 192.053007 88.950816 
L 192.278618 91.58976 
L 192.504229 89.283456 
L 192.72984 90.59184 
L 192.955451 89.128224 
L 193.181063 88.529472 
L 193.406674 86.999328 
L 193.632285 89.904384 
L 193.857896 90.303552 
L 194.083507 89.726976 
L 194.309119 92.942496 
L 194.53473 89.948736 
L 194.760341 89.017344 
L 194.985952 89.37216 
L 195.211564 89.216928 
L 195.437175 89.749152 
L 195.662786 92.432448 
L 195.888397 89.305632 
L 196.114008 90.946656 
L 196.33962 89.03952 
L 196.565231 90.37008 
L 196.790842 90.835776 
L 197.242065 88.26336 
L 197.467676 90.724896 
L 197.918898 87.952896 
L 198.144509 87.842016 
L 198.370121 91.03536 
L 198.595732 89.106048 
L 198.821343 93.341664 
L 199.046954 91.634112 
L 199.272566 90.857952 
L 199.498177 90.791424 
L 199.723788 88.396416 
L 199.949399 87.886368 
L 200.400622 89.682624 
L 200.626233 89.083872 
L 200.851844 90.92448 
L 201.077455 90.303552 
L 201.303067 96.956352 
L 201.754289 90.636192 
L 201.9799 90.37008 
L 202.431123 87.70896 
L 202.656734 88.307712 
L 202.882345 92.543328 
L 203.107956 90.747072 
L 203.333568 90.92448 
L 203.559179 94.383936 
L 204.010401 87.021504 
L 204.236012 86.866272 
L 204.461624 88.640352 
L 204.687235 93.386016 
L 204.912846 87.842016 
L 205.138457 87.93072 
L 205.364068 91.611936 
L 205.58968 90.59184 
L 205.815291 86.444928 
L 206.040902 89.1504 
L 206.266513 88.26336 
L 206.492125 86.666688 
L 206.717736 87.15456 
L 207.168958 89.837856 
L 207.394569 88.174656 
L 207.620181 91.190592 
L 207.845792 89.061696 
L 208.071403 88.573824 
L 208.297014 91.234944 
L 208.522626 89.726976 
L 208.748237 88.972992 
L 208.973848 90.303552 
L 209.199459 89.416512 
L 209.42507 90.458784 
L 209.650682 88.529472 
L 209.876293 85.580064 
L 210.327515 90.70272 
L 210.778738 87.243264 
L 211.004349 86.223168 
L 211.22996 89.771328 
L 211.455571 86.112288 
L 211.681183 85.93488 
L 211.906794 90.658368 
L 212.132405 90.214848 
L 212.358016 87.553728 
L 212.583628 87.309792 
L 212.809239 89.948736 
L 213.03485 85.890528 
L 213.260461 89.92656 
L 213.486072 87.221088 
L 213.711684 88.418592 
L 213.937295 90.281376 
L 214.162906 87.842016 
L 214.388517 87.842016 
L 214.614128 86.910624 
L 214.83974 86.733216 
L 215.065351 85.49136 
L 215.290962 89.837856 
L 215.516573 90.081792 
L 215.742185 87.731136 
L 215.967796 89.37216 
L 216.193407 89.882208 
L 216.419018 89.59392 
L 216.644629 90.436608 
L 217.095852 88.108128 
L 217.321463 86.71104 
L 217.547074 88.396416 
L 217.772686 88.884288 
L 217.998297 88.26336 
L 218.223908 86.356224 
L 218.449519 89.349984 
L 218.900742 85.824 
L 219.126353 88.15248 
L 219.351964 88.15248 
L 219.577575 87.975072 
L 219.803187 89.970912 
L 220.254409 87.531552 
L 220.48002 86.977152 
L 220.705631 87.021504 
L 220.931243 84.870432 
L 221.156854 86.090112 
L 221.382465 85.424832 
L 221.608076 89.749152 
L 221.833688 90.281376 
L 222.059299 91.390176 
L 222.28491 85.93488 
L 222.510521 89.017344 
L 222.961744 91.434528 
L 223.187355 86.15664 
L 223.412966 85.846176 
L 223.638577 87.088032 
L 223.864189 89.460864 
L 224.0898 89.128224 
L 224.315411 86.533632 
L 224.541022 89.460864 
L 224.766633 87.842016 
L 224.992245 88.773408 
L 225.217856 89.061696 
L 225.443467 85.225248 
L 225.894689 89.860032 
L 226.120301 89.305632 
L 226.345912 87.864192 
L 226.571523 89.904384 
L 226.797134 85.846176 
L 227.022746 87.37632 
L 227.248357 86.866272 
L 227.473968 87.37632 
L 227.699579 85.49136 
L 228.150802 86.444928 
L 228.376413 89.571744 
L 228.602024 87.243264 
L 228.827635 88.551648 
L 229.053247 88.241184 
L 229.278858 89.549568 
L 229.73008 87.04368 
L 229.955691 87.575904 
L 230.181303 87.59808 
L 230.406914 84.648672 
L 230.632525 89.106048 
L 230.858136 87.132384 
L 231.083748 87.198912 
L 231.309359 86.04576 
L 231.53497 89.03952 
L 231.760581 88.019424 
L 231.986192 89.81568 
L 232.437415 84.094272 
L 232.663026 88.108128 
L 232.888637 89.283456 
L 233.114249 88.70688 
L 233.33986 88.729056 
L 233.565471 85.846176 
L 233.791082 88.085952 
L 234.016693 89.03952 
L 234.242305 96.623712 
L 234.467916 88.995168 
L 234.919138 91.079712 
L 235.14475 87.731136 
L 235.370361 93.0312 
L 235.821583 85.2696 
L 236.272806 88.950816 
L 236.498417 85.801824 
L 236.724028 87.088032 
L 236.949639 86.71104 
L 237.17525 84.693024 
L 237.626473 89.638272 
L 238.077695 82.896768 
L 238.303307 88.352064 
L 238.528918 88.26336 
L 238.754529 86.622336 
L 238.98014 87.465024 
L 239.205751 91.744992 
L 239.431363 87.664608 
L 239.656974 87.4872 
L 239.882585 84.582144 
L 240.108196 96.158016 
L 240.333808 87.642432 
L 240.559419 88.108128 
L 241.236252 86.356224 
L 241.461864 86.844096 
L 241.687475 89.904384 
L 241.913086 87.176736 
L 242.138697 86.511456 
L 242.364309 88.596 
L 242.58992 86.71104 
L 242.815531 89.26128 
L 243.041142 87.021504 
L 243.266753 86.334048 
L 243.492365 88.529472 
L 243.943587 86.533632 
L 244.169198 88.085952 
L 244.39481 87.221088 
L 244.620421 86.844096 
L 244.846032 84.249504 
L 245.071643 89.460864 
L 245.297254 88.396416 
L 245.522866 89.48304 
L 245.748477 86.48928 
L 245.974088 88.995168 
L 246.199699 87.775488 
L 246.425311 83.6064 
L 246.650922 86.799744 
L 246.876533 87.309792 
L 247.102144 85.71312 
L 247.327755 87.465024 
L 247.778978 87.952896 
L 248.004589 94.36176 
L 248.2302 86.134464 
L 248.455811 85.846176 
L 248.681423 84.182976 
L 248.907034 85.247424 
L 249.132645 89.349984 
L 249.358256 84.515616 
L 249.583868 87.221088 
L 250.03509 84.471264 
L 250.260701 90.547488 
L 250.486312 86.533632 
L 250.711924 88.352064 
L 250.937535 86.888448 
L 251.163146 84.04992 
L 251.388757 85.092192 
L 251.614369 87.642432 
L 251.83998 86.733216 
L 252.065591 88.440768 
L 252.291202 85.313952 
L 252.516813 88.085952 
L 252.742425 84.515616 
L 252.968036 86.666688 
L 253.193647 86.48928 
L 253.419258 84.537792 
L 253.870481 87.309792 
L 254.096092 86.134464 
L 254.321703 85.824 
L 254.547314 87.088032 
L 254.772926 84.316032 
L 254.998537 90.103968 
L 255.224148 84.870432 
L 255.449759 86.688864 
L 255.900982 81.876672 
L 256.126593 89.460864 
L 256.577815 84.803904 
L 256.803427 87.176736 
L 257.48026 85.824 
L 257.705872 86.200992 
L 258.157094 85.225248 
L 258.382705 82.697184 
L 258.608316 87.465024 
L 258.833928 87.110208 
L 259.059539 88.0416 
L 259.28515 85.890528 
L 259.510761 85.557888 
L 259.736372 86.644512 
L 259.961984 84.693024 
L 260.187595 90.281376 
L 260.413206 86.555808 
L 260.638817 89.172576 
L 261.09004 86.223168 
L 261.315651 87.59808 
L 261.541262 84.316032 
L 261.766873 86.666688 
L 261.992485 83.894688 
L 262.218096 83.93904 
L 262.443707 85.225248 
L 262.669318 85.646592 
L 262.89493 86.910624 
L 263.120541 86.245344 
L 263.346152 84.227328 
L 263.571763 88.773408 
L 264.022986 85.757472 
L 264.248597 85.890528 
L 264.474208 87.309792 
L 264.699819 83.562048 
L 264.925431 86.60016 
L 265.151042 86.223168 
L 265.376653 84.82608 
L 265.602264 85.336128 
L 265.827875 85.025664 
L 266.053487 85.136544 
L 266.279098 85.690944 
L 266.504709 87.886368 
L 266.73032 83.406816 
L 266.955932 88.795584 
L 267.181543 84.559968 
L 267.407154 87.997248 
L 267.632765 85.225248 
L 267.858376 84.316032 
L 268.083988 87.664608 
L 268.309599 84.537792 
L 268.760821 91.124064 
L 268.986432 86.422752 
L 269.212044 86.067936 
L 269.437655 86.3784 
L 269.663266 85.291776 
L 269.888877 85.868352 
L 270.114489 84.360384 
L 270.3401 87.952896 
L 270.565711 88.063776 
L 271.016933 84.759552 
L 271.242545 89.128224 
L 271.468156 85.025664 
L 271.693767 86.467104 
L 271.919378 85.824 
L 272.14499 88.174656 
L 272.370601 85.225248 
L 272.596212 85.824 
L 272.821823 87.531552 
L 273.047434 85.025664 
L 273.273046 84.781728 
L 273.498657 87.331968 
L 273.724268 87.398496 
L 274.175491 85.003488 
L 274.401102 87.132384 
L 274.626713 85.402656 
L 274.852324 87.70896 
L 275.077935 86.977152 
L 275.303547 85.801824 
L 275.529158 87.686784 
L 275.754769 84.360384 
L 275.98038 88.70688 
L 276.205992 84.205152 
L 276.431603 85.291776 
L 276.882825 84.005568 
L 277.108436 84.93696 
L 277.334048 84.360384 
L 277.559659 89.1504 
L 277.78527 84.82608 
L 278.010881 87.952896 
L 278.236493 87.997248 
L 278.462104 85.93488 
L 278.913326 84.426912 
L 279.138937 85.15872 
L 279.364549 84.803904 
L 279.59016 85.424832 
L 280.041382 90.503136 
L 280.492605 85.04784 
L 280.718216 85.070016 
L 280.943827 84.559968 
L 281.169438 85.60224 
L 281.39505 88.507296 
L 281.620661 85.180896 
L 281.846272 87.04368 
L 282.071883 86.26752 
L 282.297494 86.511456 
L 282.523106 84.449088 
L 282.748717 84.559968 
L 282.974328 85.868352 
L 283.199939 86.223168 
L 283.425551 84.7152 
L 283.651162 86.467104 
L 283.876773 87.132384 
L 284.102384 83.628576 
L 284.553607 83.739456 
L 284.779218 85.779648 
L 285.004829 84.626496 
L 285.23044 84.116448 
L 285.456052 84.848256 
L 285.681663 84.293856 
L 285.907274 85.824 
L 286.132885 93.164256 
L 286.584108 85.801824 
L 286.809719 86.26752 
L 287.03533 87.331968 
L 287.260941 85.291776 
L 287.486553 86.04576 
L 287.712164 84.582144 
L 287.937775 84.471264 
L 288.163386 86.644512 
L 288.388997 82.519776 
L 288.614609 85.668768 
L 288.84022 84.848256 
L 289.065831 85.957056 
L 289.291442 84.360384 
L 289.517054 88.130304 
L 289.742665 87.065856 
L 289.968276 86.777568 
L 290.193887 84.49344 
L 290.419498 87.442848 
L 290.64511 86.001408 
L 290.870721 86.577984 
L 291.096332 85.580064 
L 291.321943 85.557888 
L 291.547554 83.71728 
L 291.773166 86.622336 
L 291.998777 87.26544 
L 292.224388 85.580064 
L 292.449999 86.422752 
L 292.675611 84.49344 
L 292.901222 87.15456 
L 293.126833 87.81984 
L 293.352444 84.759552 
L 293.578055 87.952896 
L 293.803667 85.469184 
L 294.029278 91.744992 
L 294.254889 90.946656 
L 294.4805 86.223168 
L 294.706112 84.471264 
L 294.931723 88.507296 
L 295.157334 84.60432 
L 295.382945 86.999328 
L 295.834168 84.182976 
L 296.059779 85.957056 
L 296.28539 83.27376 
L 296.511001 84.27168 
L 296.736613 82.298016 
L 296.962224 86.223168 
L 297.187835 82.364544 
L 297.864669 86.356224 
L 298.09028 83.739456 
L 298.315891 84.27168 
L 298.541502 85.358304 
L 298.767114 85.114368 
L 298.992725 84.537792 
L 299.218336 85.735296 
L 299.443947 82.541952 
L 299.669558 84.670848 
L 299.89517 84.870432 
L 300.120781 83.052 
L 300.346392 85.757472 
L 300.572003 85.025664 
L 300.797615 83.473344 
L 301.023226 84.693024 
L 301.248837 83.628576 
L 301.474448 93.186432 
L 301.700059 86.910624 
L 302.151282 84.227328 
L 302.376893 91.567584 
L 302.602504 86.954976 
L 302.828115 89.349984 
L 303.053727 84.870432 
L 303.279338 83.451168 
L 303.504949 85.557888 
L 303.73056 84.182976 
L 303.956172 90.126144 
L 304.181783 86.311872 
L 304.407394 85.824 
L 304.633005 84.781728 
L 304.858616 88.751232 
L 305.084228 85.469184 
L 305.309839 86.555808 
L 305.53545 84.626496 
L 305.761061 85.070016 
L 305.986673 83.451168 
L 306.212284 88.684704 
L 306.437895 80.656992 
L 306.889117 85.070016 
L 307.114729 84.848256 
L 307.34034 84.338208 
L 307.565951 86.444928 
L 307.791562 83.38464 
L 308.017174 84.981312 
L 308.242785 85.535712 
L 308.468396 84.205152 
L 308.694007 87.354144 
L 308.919618 86.555808 
L 309.14523 81.787968 
L 309.370841 89.948736 
L 309.822063 84.781728 
L 310.047675 85.225248 
L 310.273286 91.168416 
L 310.498897 88.81776 
L 310.724508 94.6944 
L 310.950119 87.81984 
L 311.401342 85.957056 
L 311.626953 86.888448 
L 311.852564 86.777568 
L 312.078176 88.019424 
L 312.529398 84.848256 
L 312.755009 84.7152 
L 312.98062 86.555808 
L 313.206232 85.690944 
L 313.431843 87.70896 
L 313.657454 84.93696 
L 313.883065 85.003488 
L 314.108676 86.3784 
L 314.334288 83.539872 
L 314.559899 87.642432 
L 314.78551 85.557888 
L 315.011121 88.92864 
L 315.236733 82.408896 
L 315.462344 86.777568 
L 316.364789 83.695104 
L 316.5904 83.93904 
L 316.816011 82.697184 
L 317.041622 88.019424 
L 317.267234 83.49552 
L 317.492845 85.38048 
L 317.718456 84.7152 
L 317.944067 85.757472 
L 318.169678 82.60848 
L 318.39529 84.892608 
L 318.846512 86.48928 
L 319.072123 86.422752 
L 319.297735 82.963296 
L 319.523346 85.180896 
L 319.748957 85.60224 
L 319.974568 85.38048 
L 320.200179 83.029824 
L 320.425791 86.001408 
L 320.877013 83.539872 
L 321.102624 84.1608 
L 321.328236 81.455328 
L 321.553847 86.60016 
L 321.779458 82.320192 
L 322.005069 88.640352 
L 322.23068 84.338208 
L 322.456292 85.890528 
L 322.681903 85.203072 
L 322.907514 83.207232 
L 323.133125 83.38464 
L 323.358736 87.420672 
L 323.584348 84.537792 
L 323.809959 93.0312 
L 324.03557 93.785184 
L 324.261181 87.465024 
L 324.712404 84.094272 
L 324.938015 91.900224 
L 325.163626 87.354144 
L 325.389237 87.088032 
L 325.614849 88.285536 
L 325.84046 85.646592 
L 326.066071 87.176736 
L 326.291682 84.49344 
L 326.517294 86.733216 
L 326.742905 82.408896 
L 326.968516 84.648672 
L 327.194127 83.961216 
L 327.419738 85.336128 
L 327.64535 85.779648 
L 327.870961 82.808064 
L 328.096572 87.465024 
L 328.547795 83.318112 
L 328.773406 84.870432 
L 328.999017 83.251584 
L 329.224628 85.04784 
L 329.450239 85.247424 
L 329.675851 85.912704 
L 329.901462 85.336128 
L 330.127073 82.963296 
L 330.352684 85.801824 
L 330.803907 85.824 
L 331.029518 95.58144 
L 331.255129 87.620256 
L 331.48074 87.15456 
L 331.931963 85.646592 
L 332.383185 84.515616 
L 332.608797 86.9328 
L 332.834408 87.420672 
L 333.060019 83.517696 
L 333.28563 86.311872 
L 333.511241 84.648672 
L 333.736853 86.644512 
L 333.962464 84.49344 
L 334.188075 84.803904 
L 334.413686 84.426912 
L 334.639297 84.338208 
L 334.864909 83.850336 
L 335.09052 92.80944 
L 335.316131 85.646592 
L 335.541742 84.515616 
L 335.767354 84.471264 
L 335.992965 87.221088 
L 336.218576 93.962592 
L 336.444187 84.582144 
L 336.669798 88.241184 
L 336.89541 84.959136 
L 337.121021 86.622336 
L 337.797855 83.406816 
L 338.023466 86.04576 
L 338.249077 87.04368 
L 338.474688 82.4976 
L 338.700299 83.118528 
L 338.925911 82.16496 
L 339.151522 82.896768 
L 339.377133 86.954976 
L 339.602744 85.336128 
L 339.828356 84.892608 
L 340.053967 82.852416 
L 340.279578 85.358304 
L 340.505189 85.557888 
L 340.7308 87.620256 
L 340.956412 83.539872 
L 341.182023 81.898848 
L 341.407634 83.872512 
L 341.633245 84.116448 
L 341.858857 83.93904 
L 342.084468 86.9328 
L 342.310079 84.293856 
L 342.53569 86.26752 
L 342.761301 85.114368 
L 342.986913 84.670848 
L 343.212524 85.358304 
L 343.438135 83.739456 
L 343.663746 88.130304 
L 343.889358 82.71936 
L 344.566191 86.245344 
L 345.017414 82.94112 
L 345.243025 83.672928 
L 345.468636 85.402656 
L 345.694247 89.527392 
L 345.919858 84.138624 
L 346.14547 83.71728 
L 346.371081 86.910624 
L 346.596692 100.083168 
L 346.822303 88.352064 
L 347.047915 89.882208 
L 347.499137 83.71728 
L 347.724748 88.884288 
L 348.175971 82.785888 
L 348.401582 85.71312 
L 348.627193 84.7152 
L 348.852804 85.624416 
L 349.078416 85.203072 
L 349.304027 87.398496 
L 349.529638 84.404736 
L 349.755249 85.003488 
L 349.98086 84.848256 
L 350.206472 87.309792 
L 350.432083 82.652832 
L 350.883305 85.557888 
L 351.108917 85.912704 
L 351.334528 82.586304 
L 351.560139 87.642432 
L 351.78575 86.15664 
L 352.011361 88.37424 
L 352.462584 84.116448 
L 352.688195 85.291776 
L 352.913806 83.562048 
L 353.139418 96.490656 
L 353.365029 92.964672 
L 353.59064 87.531552 
L 354.041862 82.453248 
L 354.267474 86.15664 
L 354.493085 82.142784 
L 354.718696 85.668768 
L 354.944307 86.245344 
L 355.169919 84.515616 
L 355.39553 86.3784 
L 355.621141 84.04992 
L 355.846752 83.650752 
L 356.072363 81.921024 
L 356.297975 85.580064 
L 356.523586 81.366624 
L 356.749197 83.650752 
L 356.974808 82.675008 
L 357.200419 84.27168 
L 357.426031 84.072096 
L 357.651642 84.981312 
L 358.102864 79.747776 
L 358.328476 82.985472 
L 358.554087 81.521856 
L 358.779698 82.83024 
L 359.005309 86.15664 
L 359.23092 85.801824 
L 359.456532 82.963296 
L 359.682143 85.757472 
L 359.907754 83.185056 
L 360.133365 82.630656 
L 360.358977 87.620256 
L 360.584588 84.471264 
L 360.810199 87.731136 
L 361.03581 84.515616 
L 361.261421 83.93904 
L 361.487033 85.336128 
L 361.712644 90.237024 
L 361.938255 84.670848 
L 362.163866 82.253664 
L 362.389478 82.142784 
L 362.615089 87.4872 
L 362.8407 83.318112 
L 363.066311 85.313952 
L 363.291922 83.761632 
L 363.517534 86.001408 
L 363.743145 85.49136 
L 363.968756 81.566208 
L 364.194367 84.138624 
L 364.419979 84.094272 
L 364.64559 84.626496 
L 364.871201 83.894688 
L 365.096812 87.465024 
L 365.322423 82.38672 
L 365.548035 85.60224 
L 365.773646 87.198912 
L 365.999257 86.3784 
L 366.224868 84.759552 
L 366.450479 87.753312 
L 366.901702 81.521856 
L 367.127313 87.331968 
L 367.352924 84.981312 
L 367.578536 84.449088 
L 367.804147 87.642432 
L 368.029758 81.83232 
L 368.255369 83.207232 
L 368.48098 85.535712 
L 368.706592 84.293856 
L 368.932203 91.611936 
L 369.157814 84.7152 
L 369.383425 87.243264 
L 369.609037 83.562048 
L 369.834648 84.93696 
L 370.28587 83.251584 
L 370.511481 83.052 
L 370.737093 81.49968 
L 370.962704 85.535712 
L 371.188315 85.535712 
L 371.413926 82.808064 
L 371.639538 89.061696 
L 371.865149 84.93696 
L 372.09076 85.513536 
L 372.316371 84.759552 
L 372.541982 85.779648 
L 372.767594 82.60848 
L 372.993205 82.4976 
L 373.218816 82.541952 
L 373.444427 81.588384 
L 373.670039 84.04992 
L 373.89565 83.71728 
L 374.121261 82.94112 
L 374.572483 86.200992 
L 374.798095 82.697184 
L 375.023706 81.921024 
L 375.249317 83.406816 
L 375.70054 90.126144 
L 376.151762 83.695104 
L 376.377373 91.789344 
L 376.602984 84.49344 
L 376.828596 87.088032 
L 377.054207 84.93696 
L 377.279818 84.537792 
L 377.505429 85.114368 
L 377.73104 83.894688 
L 377.956652 85.136544 
L 378.182263 84.60432 
L 378.407874 83.71728 
L 378.633485 84.759552 
L 378.859097 81.83232 
L 379.084708 87.021504 
L 379.310319 84.82608 
L 379.53593 86.223168 
L 379.761541 86.178816 
L 379.987153 85.136544 
L 380.212764 83.007648 
L 380.438375 84.7152 
L 380.663986 82.408896 
L 380.889598 82.763712 
L 381.115209 85.070016 
L 381.34082 82.697184 
L 381.566431 84.693024 
L 382.017654 84.7152 
L 382.243265 84.426912 
L 382.468876 83.16288 
L 382.920099 84.870432 
L 383.14571 81.632736 
L 383.596932 89.460864 
L 383.822543 82.009728 
L 384.048155 84.138624 
L 384.273766 84.870432 
L 384.499377 84.781728 
L 384.724988 80.8344 
L 384.9506 82.808064 
L 385.176211 83.739456 
L 385.401822 86.555808 
L 385.627433 85.469184 
L 385.853044 85.846176 
L 386.078656 83.562048 
L 386.304267 83.207232 
L 386.529878 85.136544 
L 386.755489 83.6064 
L 386.981101 83.38464 
L 387.206712 85.04784 
L 387.657934 84.449088 
L 387.883545 84.49344 
L 388.109157 81.300096 
L 388.560379 85.424832 
L 388.78599 86.245344 
L 389.011601 83.539872 
L 389.237213 83.362464 
L 389.462824 92.432448 
L 389.914046 83.251584 
L 390.139658 82.60848 
L 390.365269 84.803904 
L 390.59088 80.479584 
L 390.816491 85.38048 
L 391.042102 83.961216 
L 391.267714 86.134464 
L 391.493325 83.16288 
L 391.718936 85.624416 
L 391.944547 85.203072 
L 392.170159 84.426912 
L 392.39577 82.852416 
L 392.846992 83.49552 
L 393.072603 82.785888 
L 393.298215 100.925856 
L 393.523826 85.979232 
L 393.749437 87.93072 
L 393.975048 84.072096 
L 394.20066 100.637568 
L 394.651882 87.309792 
L 394.877493 87.198912 
L 395.103104 86.688864 
L 395.328716 85.557888 
L 395.554327 87.398496 
L 395.779938 85.424832 
L 396.005549 84.7152 
L 396.231161 86.666688 
L 396.456772 84.182976 
L 396.682383 84.316032 
L 396.907994 81.3888 
L 397.359217 85.979232 
L 397.584828 83.562048 
L 397.810439 83.650752 
L 398.03605 83.251584 
L 398.261662 83.118528 
L 398.487273 84.870432 
L 398.487273 84.870432 
" style="fill:none;stroke:#ff7f0e;stroke-linecap:square;stroke-width:1.5;"/>
   </g>
   <g id="patch_3">
    <path d="M 57.6 307.584 
L 57.6 41.472 
" style="fill:none;stroke:#000000;stroke-linecap:square;stroke-linejoin:miter;stroke-width:0.8;"/>
   </g>
   <g id="patch_4">
    <path d="M 414.72 307.584 
L 414.72 41.472 
" style="fill:none;stroke:#000000;stroke-linecap:square;stroke-linejoin:miter;stroke-width:0.8;"/>
   </g>
   <g id="patch_5">
    <path d="M 57.6 307.584 
L 414.72 307.584 
" style="fill:none;stroke:#000000;stroke-linecap:square;stroke-linejoin:miter;stroke-width:0.8;"/>
   </g>
   <g id="patch_6">
    <path d="M 57.6 41.472 
L 414.72 41.472 
" style="fill:none;stroke:#000000;stroke-linecap:square;stroke-linejoin:miter;stroke-width:0.8;"/>
   </g>
   <g id="legend_1">
    <g id="patch_7">
     <path d="M 64.6 78.82825 
L 168.475 78.82825 
Q 170.475 78.82825 170.475 76.82825 
L 170.475 48.472 
Q 170.475 46.472 168.475 46.472 
L 64.6 46.472 
Q 62.6 46.472 62.6 48.472 
L 62.6 76.82825 
Q 62.6 78.82825 64.6 78.82825 
z
" style="fill:#ffffff;opacity:0.8;stroke:#cccccc;stroke-linejoin:miter;"/>
    </g>
    <g id="line2d_17">
     <path d="M 66.6 54.570437 
L 86.6 54.570437 
" style="fill:none;stroke:#1f77b4;stroke-linecap:square;stroke-width:1.5;"/>
    </g>
    <g id="line2d_18"/>
    <g id="text_17">
     <!-- Train loss -->
     <g transform="translate(94.6 58.070437)scale(0.1 -0.1)">
      <defs>
       <path d="M -19 4666 
L 3928 4666 
L 3928 4134 
L 2272 4134 
L 2272 0 
L 1638 0 
L 1638 4134 
L -19 4134 
L -19 4666 
z
" id="DejaVuSans-54" transform="scale(0.015625)"/>
       <path d="M 603 3500 
L 1178 3500 
L 1178 0 
L 603 0 
L 603 3500 
z
M 603 4863 
L 1178 4863 
L 1178 4134 
L 603 4134 
L 603 4863 
z
" id="DejaVuSans-69" transform="scale(0.015625)"/>
       <path d="M 3513 2113 
L 3513 0 
L 2938 0 
L 2938 2094 
Q 2938 2591 2744 2837 
Q 2550 3084 2163 3084 
Q 1697 3084 1428 2787 
Q 1159 2491 1159 1978 
L 1159 0 
L 581 0 
L 581 3500 
L 1159 3500 
L 1159 2956 
Q 1366 3272 1645 3428 
Q 1925 3584 2291 3584 
Q 2894 3584 3203 3211 
Q 3513 2838 3513 2113 
z
" id="DejaVuSans-6e" transform="scale(0.015625)"/>
       <path id="DejaVuSans-20" transform="scale(0.015625)"/>
       <path d="M 603 4863 
L 1178 4863 
L 1178 0 
L 603 0 
L 603 4863 
z
" id="DejaVuSans-6c" transform="scale(0.015625)"/>
       <path d="M 2834 3397 
L 2834 2853 
Q 2591 2978 2328 3040 
Q 2066 3103 1784 3103 
Q 1356 3103 1142 2972 
Q 928 2841 928 2578 
Q 928 2378 1081 2264 
Q 1234 2150 1697 2047 
L 1894 2003 
Q 2506 1872 2764 1633 
Q 3022 1394 3022 966 
Q 3022 478 2636 193 
Q 2250 -91 1575 -91 
Q 1294 -91 989 -36 
Q 684 19 347 128 
L 347 722 
Q 666 556 975 473 
Q 1284 391 1588 391 
Q 1994 391 2212 530 
Q 2431 669 2431 922 
Q 2431 1156 2273 1281 
Q 2116 1406 1581 1522 
L 1381 1569 
Q 847 1681 609 1914 
Q 372 2147 372 2553 
Q 372 3047 722 3315 
Q 1072 3584 1716 3584 
Q 2034 3584 2315 3537 
Q 2597 3491 2834 3397 
z
" id="DejaVuSans-73" transform="scale(0.015625)"/>
      </defs>
      <use xlink:href="#DejaVuSans-54"/>
      <use x="46.333984" xlink:href="#DejaVuSans-72"/>
      <use x="87.447266" xlink:href="#DejaVuSans-61"/>
      <use x="148.726562" xlink:href="#DejaVuSans-69"/>
      <use x="176.509766" xlink:href="#DejaVuSans-6e"/>
      <use x="239.888672" xlink:href="#DejaVuSans-20"/>
      <use x="271.675781" xlink:href="#DejaVuSans-6c"/>
      <use x="299.458984" xlink:href="#DejaVuSans-6f"/>
      <use x="360.640625" xlink:href="#DejaVuSans-73"/>
      <use x="412.740234" xlink:href="#DejaVuSans-73"/>
     </g>
    </g>
    <g id="line2d_19">
     <path d="M 66.6 69.248562 
L 86.6 69.248562 
" style="fill:none;stroke:#ff7f0e;stroke-linecap:square;stroke-width:1.5;"/>
    </g>
    <g id="line2d_20"/>
    <g id="text_18">
     <!-- Validation loss -->
     <g transform="translate(94.6 72.748562)scale(0.1 -0.1)">
      <defs>
       <path d="M 1831 0 
L 50 4666 
L 709 4666 
L 2188 738 
L 3669 4666 
L 4325 4666 
L 2547 0 
L 1831 0 
z
" id="DejaVuSans-56" transform="scale(0.015625)"/>
       <path d="M 2906 2969 
L 2906 4863 
L 3481 4863 
L 3481 0 
L 2906 0 
L 2906 525 
Q 2725 213 2448 61 
Q 2172 -91 1784 -91 
Q 1150 -91 751 415 
Q 353 922 353 1747 
Q 353 2572 751 3078 
Q 1150 3584 1784 3584 
Q 2172 3584 2448 3432 
Q 2725 3281 2906 2969 
z
M 947 1747 
Q 947 1113 1208 752 
Q 1469 391 1925 391 
Q 2381 391 2643 752 
Q 2906 1113 2906 1747 
Q 2906 2381 2643 2742 
Q 2381 3103 1925 3103 
Q 1469 3103 1208 2742 
Q 947 2381 947 1747 
z
" id="DejaVuSans-64" transform="scale(0.015625)"/>
       <path d="M 1172 4494 
L 1172 3500 
L 2356 3500 
L 2356 3053 
L 1172 3053 
L 1172 1153 
Q 1172 725 1289 603 
Q 1406 481 1766 481 
L 2356 481 
L 2356 0 
L 1766 0 
Q 1100 0 847 248 
Q 594 497 594 1153 
L 594 3053 
L 172 3053 
L 172 3500 
L 594 3500 
L 594 4494 
L 1172 4494 
z
" id="DejaVuSans-74" transform="scale(0.015625)"/>
      </defs>
      <use xlink:href="#DejaVuSans-56"/>
      <use x="60.658203" xlink:href="#DejaVuSans-61"/>
      <use x="121.9375" xlink:href="#DejaVuSans-6c"/>
      <use x="149.720703" xlink:href="#DejaVuSans-69"/>
      <use x="177.503906" xlink:href="#DejaVuSans-64"/>
      <use x="240.980469" xlink:href="#DejaVuSans-61"/>
      <use x="302.259766" xlink:href="#DejaVuSans-74"/>
      <use x="341.46875" xlink:href="#DejaVuSans-69"/>
      <use x="369.251953" xlink:href="#DejaVuSans-6f"/>
      <use x="430.433594" xlink:href="#DejaVuSans-6e"/>
      <use x="493.8125" xlink:href="#DejaVuSans-20"/>
      <use x="525.599609" xlink:href="#DejaVuSans-6c"/>
      <use x="553.382812" xlink:href="#DejaVuSans-6f"/>
      <use x="614.564453" xlink:href="#DejaVuSans-73"/>
      <use x="666.664062" xlink:href="#DejaVuSans-73"/>
     </g>
    </g>
   </g>
  </g>
 </g>
 <defs>
  <clipPath id="pad4d78f185">
   <rect height="266.112" width="357.12" x="57.6" y="41.472"/>
  </clipPath>
 </defs>
</svg>
