<?xml version="1.0" encoding="utf-8" standalone="no"?>
<!DOCTYPE svg PUBLIC "-//W3C//DTD SVG 1.1//EN"
  "http://www.w3.org/Graphics/SVG/1.1/DTD/svg11.dtd">
<svg height="360pt" version="1.1" viewBox="0 0 1440 360" width="1440pt" xmlns="http://www.w3.org/2000/svg" xmlns:xlink="http://www.w3.org/1999/xlink">
 <metadata>
  <rdf:RDF xmlns:cc="http://creativecommons.org/ns#" xmlns:dc="http://purl.org/dc/elements/1.1/" xmlns:rdf="http://www.w3.org/1999/02/22-rdf-syntax-ns#">
   <cc:Work>
    <dc:type rdf:resource="http://purl.org/dc/dcmitype/StillImage"/>
    <dc:date>2021-07-20T07:47:56.217331</dc:date>
    <dc:format>image/svg+xml</dc:format>
    <dc:creator>
     <cc:Agent>
      <dc:title>Matplotlib v3.4.2, https://matplotlib.org/</dc:title>
     </cc:Agent>
    </dc:creator>
   </cc:Work>
  </rdf:RDF>
 </metadata>
 <defs>
  <style type="text/css">*{stroke-linecap:butt;stroke-linejoin:round;}</style>
 </defs>
 <g id="figure_1">
  <g id="patch_1">
   <path d="M 0 360 
L 1440 360 
L 1440 0 
L 0 0 
z
" style="fill:#ffffff;"/>
  </g>
  <g id="axes_1">
   <g id="patch_2">
    <path d="M 180 320.4 
L 508.235294 320.4 
L 508.235294 43.2 
L 180 43.2 
z
" style="fill:#ffffff;"/>
   </g>
   <g id="matplotlib.axis_1">
    <g id="xtick_1">
     <g id="line2d_1">
      <defs>
       <path d="M 0 0 
L 0 3.5 
" id="me6ea658d09" style="stroke:#000000;stroke-width:0.8;"/>
      </defs>
      <g>
       <use style="stroke:#000000;stroke-width:0.8;" x="193.043083" xlink:href="#me6ea658d09" y="320.4"/>
      </g>
     </g>
     <g id="text_1">
      <!-- 0 -->
      <g transform="translate(189.861833 334.998438)scale(0.1 -0.1)">
       <defs>
        <path d="M 2034 4250 
Q 1547 4250 1301 3770 
Q 1056 3291 1056 2328 
Q 1056 1369 1301 889 
Q 1547 409 2034 409 
Q 2525 409 2770 889 
Q 3016 1369 3016 2328 
Q 3016 3291 2770 3770 
Q 2525 4250 2034 4250 
z
M 2034 4750 
Q 2819 4750 3233 4129 
Q 3647 3509 3647 2328 
Q 3647 1150 3233 529 
Q 2819 -91 2034 -91 
Q 1250 -91 836 529 
Q 422 1150 422 2328 
Q 422 3509 836 4129 
Q 1250 4750 2034 4750 
z
" id="DejaVuSans-30" transform="scale(0.015625)"/>
       </defs>
       <use xlink:href="#DejaVuSans-30"/>
      </g>
     </g>
    </g>
    <g id="xtick_2">
     <g id="line2d_2">
      <g>
       <use style="stroke:#000000;stroke-width:0.8;" x="230.577137" xlink:href="#me6ea658d09" y="320.4"/>
      </g>
     </g>
     <g id="text_2">
      <!-- 20 -->
      <g transform="translate(224.214637 334.998438)scale(0.1 -0.1)">
       <defs>
        <path d="M 1228 531 
L 3431 531 
L 3431 0 
L 469 0 
L 469 531 
Q 828 903 1448 1529 
Q 2069 2156 2228 2338 
Q 2531 2678 2651 2914 
Q 2772 3150 2772 3378 
Q 2772 3750 2511 3984 
Q 2250 4219 1831 4219 
Q 1534 4219 1204 4116 
Q 875 4013 500 3803 
L 500 4441 
Q 881 4594 1212 4672 
Q 1544 4750 1819 4750 
Q 2544 4750 2975 4387 
Q 3406 4025 3406 3419 
Q 3406 3131 3298 2873 
Q 3191 2616 2906 2266 
Q 2828 2175 2409 1742 
Q 1991 1309 1228 531 
z
" id="DejaVuSans-32" transform="scale(0.015625)"/>
       </defs>
       <use xlink:href="#DejaVuSans-32"/>
       <use x="63.623047" xlink:href="#DejaVuSans-30"/>
      </g>
     </g>
    </g>
    <g id="xtick_3">
     <g id="line2d_3">
      <g>
       <use style="stroke:#000000;stroke-width:0.8;" x="268.11119" xlink:href="#me6ea658d09" y="320.4"/>
      </g>
     </g>
     <g id="text_3">
      <!-- 40 -->
      <g transform="translate(261.74869 334.998438)scale(0.1 -0.1)">
       <defs>
        <path d="M 2419 4116 
L 825 1625 
L 2419 1625 
L 2419 4116 
z
M 2253 4666 
L 3047 4666 
L 3047 1625 
L 3713 1625 
L 3713 1100 
L 3047 1100 
L 3047 0 
L 2419 0 
L 2419 1100 
L 313 1100 
L 313 1709 
L 2253 4666 
z
" id="DejaVuSans-34" transform="scale(0.015625)"/>
       </defs>
       <use xlink:href="#DejaVuSans-34"/>
       <use x="63.623047" xlink:href="#DejaVuSans-30"/>
      </g>
     </g>
    </g>
    <g id="xtick_4">
     <g id="line2d_4">
      <g>
       <use style="stroke:#000000;stroke-width:0.8;" x="305.645243" xlink:href="#me6ea658d09" y="320.4"/>
      </g>
     </g>
     <g id="text_4">
      <!-- 60 -->
      <g transform="translate(299.282743 334.998438)scale(0.1 -0.1)">
       <defs>
        <path d="M 2113 2584 
Q 1688 2584 1439 2293 
Q 1191 2003 1191 1497 
Q 1191 994 1439 701 
Q 1688 409 2113 409 
Q 2538 409 2786 701 
Q 3034 994 3034 1497 
Q 3034 2003 2786 2293 
Q 2538 2584 2113 2584 
z
M 3366 4563 
L 3366 3988 
Q 3128 4100 2886 4159 
Q 2644 4219 2406 4219 
Q 1781 4219 1451 3797 
Q 1122 3375 1075 2522 
Q 1259 2794 1537 2939 
Q 1816 3084 2150 3084 
Q 2853 3084 3261 2657 
Q 3669 2231 3669 1497 
Q 3669 778 3244 343 
Q 2819 -91 2113 -91 
Q 1303 -91 875 529 
Q 447 1150 447 2328 
Q 447 3434 972 4092 
Q 1497 4750 2381 4750 
Q 2619 4750 2861 4703 
Q 3103 4656 3366 4563 
z
" id="DejaVuSans-36" transform="scale(0.015625)"/>
       </defs>
       <use xlink:href="#DejaVuSans-36"/>
       <use x="63.623047" xlink:href="#DejaVuSans-30"/>
      </g>
     </g>
    </g>
    <g id="xtick_5">
     <g id="line2d_5">
      <g>
       <use style="stroke:#000000;stroke-width:0.8;" x="343.179296" xlink:href="#me6ea658d09" y="320.4"/>
      </g>
     </g>
     <g id="text_5">
      <!-- 80 -->
      <g transform="translate(336.816796 334.998438)scale(0.1 -0.1)">
       <defs>
        <path d="M 2034 2216 
Q 1584 2216 1326 1975 
Q 1069 1734 1069 1313 
Q 1069 891 1326 650 
Q 1584 409 2034 409 
Q 2484 409 2743 651 
Q 3003 894 3003 1313 
Q 3003 1734 2745 1975 
Q 2488 2216 2034 2216 
z
M 1403 2484 
Q 997 2584 770 2862 
Q 544 3141 544 3541 
Q 544 4100 942 4425 
Q 1341 4750 2034 4750 
Q 2731 4750 3128 4425 
Q 3525 4100 3525 3541 
Q 3525 3141 3298 2862 
Q 3072 2584 2669 2484 
Q 3125 2378 3379 2068 
Q 3634 1759 3634 1313 
Q 3634 634 3220 271 
Q 2806 -91 2034 -91 
Q 1263 -91 848 271 
Q 434 634 434 1313 
Q 434 1759 690 2068 
Q 947 2378 1403 2484 
z
M 1172 3481 
Q 1172 3119 1398 2916 
Q 1625 2713 2034 2713 
Q 2441 2713 2670 2916 
Q 2900 3119 2900 3481 
Q 2900 3844 2670 4047 
Q 2441 4250 2034 4250 
Q 1625 4250 1398 4047 
Q 1172 3844 1172 3481 
z
" id="DejaVuSans-38" transform="scale(0.015625)"/>
       </defs>
       <use xlink:href="#DejaVuSans-38"/>
       <use x="63.623047" xlink:href="#DejaVuSans-30"/>
      </g>
     </g>
    </g>
    <g id="xtick_6">
     <g id="line2d_6">
      <g>
       <use style="stroke:#000000;stroke-width:0.8;" x="380.713349" xlink:href="#me6ea658d09" y="320.4"/>
      </g>
     </g>
     <g id="text_6">
      <!-- 100 -->
      <g transform="translate(371.169599 334.998438)scale(0.1 -0.1)">
       <defs>
        <path d="M 794 531 
L 1825 531 
L 1825 4091 
L 703 3866 
L 703 4441 
L 1819 4666 
L 2450 4666 
L 2450 531 
L 3481 531 
L 3481 0 
L 794 0 
L 794 531 
z
" id="DejaVuSans-31" transform="scale(0.015625)"/>
       </defs>
       <use xlink:href="#DejaVuSans-31"/>
       <use x="63.623047" xlink:href="#DejaVuSans-30"/>
       <use x="127.246094" xlink:href="#DejaVuSans-30"/>
      </g>
     </g>
    </g>
    <g id="xtick_7">
     <g id="line2d_7">
      <g>
       <use style="stroke:#000000;stroke-width:0.8;" x="418.247402" xlink:href="#me6ea658d09" y="320.4"/>
      </g>
     </g>
     <g id="text_7">
      <!-- 120 -->
      <g transform="translate(408.703652 334.998438)scale(0.1 -0.1)">
       <use xlink:href="#DejaVuSans-31"/>
       <use x="63.623047" xlink:href="#DejaVuSans-32"/>
       <use x="127.246094" xlink:href="#DejaVuSans-30"/>
      </g>
     </g>
    </g>
    <g id="xtick_8">
     <g id="line2d_8">
      <g>
       <use style="stroke:#000000;stroke-width:0.8;" x="455.781455" xlink:href="#me6ea658d09" y="320.4"/>
      </g>
     </g>
     <g id="text_8">
      <!-- 140 -->
      <g transform="translate(446.237705 334.998438)scale(0.1 -0.1)">
       <use xlink:href="#DejaVuSans-31"/>
       <use x="63.623047" xlink:href="#DejaVuSans-34"/>
       <use x="127.246094" xlink:href="#DejaVuSans-30"/>
      </g>
     </g>
    </g>
    <g id="xtick_9">
     <g id="line2d_9">
      <g>
       <use style="stroke:#000000;stroke-width:0.8;" x="493.315508" xlink:href="#me6ea658d09" y="320.4"/>
      </g>
     </g>
     <g id="text_9">
      <!-- 160 -->
      <g transform="translate(483.771758 334.998438)scale(0.1 -0.1)">
       <use xlink:href="#DejaVuSans-31"/>
       <use x="63.623047" xlink:href="#DejaVuSans-36"/>
       <use x="127.246094" xlink:href="#DejaVuSans-30"/>
      </g>
     </g>
    </g>
    <g id="text_10">
     <!-- Epoch -->
     <g transform="translate(321.151241 352.475781)scale(0.15 -0.15)">
      <defs>
       <path d="M 628 4666 
L 3578 4666 
L 3578 4134 
L 1259 4134 
L 1259 2753 
L 3481 2753 
L 3481 2222 
L 1259 2222 
L 1259 531 
L 3634 531 
L 3634 0 
L 628 0 
L 628 4666 
z
" id="DejaVuSans-45" transform="scale(0.015625)"/>
       <path d="M 1159 525 
L 1159 -1331 
L 581 -1331 
L 581 3500 
L 1159 3500 
L 1159 2969 
Q 1341 3281 1617 3432 
Q 1894 3584 2278 3584 
Q 2916 3584 3314 3078 
Q 3713 2572 3713 1747 
Q 3713 922 3314 415 
Q 2916 -91 2278 -91 
Q 1894 -91 1617 61 
Q 1341 213 1159 525 
z
M 3116 1747 
Q 3116 2381 2855 2742 
Q 2594 3103 2138 3103 
Q 1681 3103 1420 2742 
Q 1159 2381 1159 1747 
Q 1159 1113 1420 752 
Q 1681 391 2138 391 
Q 2594 391 2855 752 
Q 3116 1113 3116 1747 
z
" id="DejaVuSans-70" transform="scale(0.015625)"/>
       <path d="M 1959 3097 
Q 1497 3097 1228 2736 
Q 959 2375 959 1747 
Q 959 1119 1226 758 
Q 1494 397 1959 397 
Q 2419 397 2687 759 
Q 2956 1122 2956 1747 
Q 2956 2369 2687 2733 
Q 2419 3097 1959 3097 
z
M 1959 3584 
Q 2709 3584 3137 3096 
Q 3566 2609 3566 1747 
Q 3566 888 3137 398 
Q 2709 -91 1959 -91 
Q 1206 -91 779 398 
Q 353 888 353 1747 
Q 353 2609 779 3096 
Q 1206 3584 1959 3584 
z
" id="DejaVuSans-6f" transform="scale(0.015625)"/>
       <path d="M 3122 3366 
L 3122 2828 
Q 2878 2963 2633 3030 
Q 2388 3097 2138 3097 
Q 1578 3097 1268 2742 
Q 959 2388 959 1747 
Q 959 1106 1268 751 
Q 1578 397 2138 397 
Q 2388 397 2633 464 
Q 2878 531 3122 666 
L 3122 134 
Q 2881 22 2623 -34 
Q 2366 -91 2075 -91 
Q 1284 -91 818 406 
Q 353 903 353 1747 
Q 353 2603 823 3093 
Q 1294 3584 2113 3584 
Q 2378 3584 2631 3529 
Q 2884 3475 3122 3366 
z
" id="DejaVuSans-63" transform="scale(0.015625)"/>
       <path d="M 3513 2113 
L 3513 0 
L 2938 0 
L 2938 2094 
Q 2938 2591 2744 2837 
Q 2550 3084 2163 3084 
Q 1697 3084 1428 2787 
Q 1159 2491 1159 1978 
L 1159 0 
L 581 0 
L 581 4863 
L 1159 4863 
L 1159 2956 
Q 1366 3272 1645 3428 
Q 1925 3584 2291 3584 
Q 2894 3584 3203 3211 
Q 3513 2838 3513 2113 
z
" id="DejaVuSans-68" transform="scale(0.015625)"/>
      </defs>
      <use xlink:href="#DejaVuSans-45"/>
      <use x="63.183594" xlink:href="#DejaVuSans-70"/>
      <use x="126.660156" xlink:href="#DejaVuSans-6f"/>
      <use x="187.841797" xlink:href="#DejaVuSans-63"/>
      <use x="242.822266" xlink:href="#DejaVuSans-68"/>
     </g>
    </g>
   </g>
   <g id="matplotlib.axis_2">
    <g id="ytick_1">
     <g id="line2d_10">
      <defs>
       <path d="M 0 0 
L -3.5 0 
" id="m1aceeda455" style="stroke:#000000;stroke-width:0.8;"/>
      </defs>
      <g>
       <use style="stroke:#000000;stroke-width:0.8;" x="180" xlink:href="#m1aceeda455" y="296.297158"/>
      </g>
     </g>
     <g id="text_11">
      <!-- −1000 -->
      <g transform="translate(139.170312 300.096377)scale(0.1 -0.1)">
       <defs>
        <path d="M 678 2272 
L 4684 2272 
L 4684 1741 
L 678 1741 
L 678 2272 
z
" id="DejaVuSans-2212" transform="scale(0.015625)"/>
       </defs>
       <use xlink:href="#DejaVuSans-2212"/>
       <use x="83.789062" xlink:href="#DejaVuSans-31"/>
       <use x="147.412109" xlink:href="#DejaVuSans-30"/>
       <use x="211.035156" xlink:href="#DejaVuSans-30"/>
       <use x="274.658203" xlink:href="#DejaVuSans-30"/>
      </g>
     </g>
    </g>
    <g id="ytick_2">
     <g id="line2d_11">
      <g>
       <use style="stroke:#000000;stroke-width:0.8;" x="180" xlink:href="#m1aceeda455" y="245.246"/>
      </g>
     </g>
     <g id="text_12">
      <!-- −800 -->
      <g transform="translate(145.532813 249.045219)scale(0.1 -0.1)">
       <use xlink:href="#DejaVuSans-2212"/>
       <use x="83.789062" xlink:href="#DejaVuSans-38"/>
       <use x="147.412109" xlink:href="#DejaVuSans-30"/>
       <use x="211.035156" xlink:href="#DejaVuSans-30"/>
      </g>
     </g>
    </g>
    <g id="ytick_3">
     <g id="line2d_12">
      <g>
       <use style="stroke:#000000;stroke-width:0.8;" x="180" xlink:href="#m1aceeda455" y="194.194842"/>
      </g>
     </g>
     <g id="text_13">
      <!-- −600 -->
      <g transform="translate(145.532813 197.994061)scale(0.1 -0.1)">
       <use xlink:href="#DejaVuSans-2212"/>
       <use x="83.789062" xlink:href="#DejaVuSans-36"/>
       <use x="147.412109" xlink:href="#DejaVuSans-30"/>
       <use x="211.035156" xlink:href="#DejaVuSans-30"/>
      </g>
     </g>
    </g>
    <g id="ytick_4">
     <g id="line2d_13">
      <g>
       <use style="stroke:#000000;stroke-width:0.8;" x="180" xlink:href="#m1aceeda455" y="143.143684"/>
      </g>
     </g>
     <g id="text_14">
      <!-- −400 -->
      <g transform="translate(145.532813 146.942903)scale(0.1 -0.1)">
       <use xlink:href="#DejaVuSans-2212"/>
       <use x="83.789062" xlink:href="#DejaVuSans-34"/>
       <use x="147.412109" xlink:href="#DejaVuSans-30"/>
       <use x="211.035156" xlink:href="#DejaVuSans-30"/>
      </g>
     </g>
    </g>
    <g id="ytick_5">
     <g id="line2d_14">
      <g>
       <use style="stroke:#000000;stroke-width:0.8;" x="180" xlink:href="#m1aceeda455" y="92.092526"/>
      </g>
     </g>
     <g id="text_15">
      <!-- −200 -->
      <g transform="translate(145.532813 95.891744)scale(0.1 -0.1)">
       <use xlink:href="#DejaVuSans-2212"/>
       <use x="83.789062" xlink:href="#DejaVuSans-32"/>
       <use x="147.412109" xlink:href="#DejaVuSans-30"/>
       <use x="211.035156" xlink:href="#DejaVuSans-30"/>
      </g>
     </g>
    </g>
   </g>
   <g id="line2d_15">
    <path clip-path="url(#p4c9d43700c)" d="M 194.919786 61.013948 
L 196.796489 122.03412 
L 200.549894 135.805879 
L 202.426597 164.130528 
L 204.303299 167.906798 
L 206.180002 163.580397 
L 208.056705 163.205845 
L 209.933407 181.557175 
L 211.81011 183.136125 
L 213.686813 190.202451 
L 215.563515 191.186973 
L 217.440218 191.541841 
L 219.316921 214.110862 
L 221.193623 213.901985 
L 223.070326 220.362549 
L 224.947029 222.26848 
L 226.823731 223.447769 
L 228.700434 235.749491 
L 230.577137 238.911467 
L 232.453839 224.074673 
L 234.330542 231.405661 
L 236.207244 246.981103 
L 238.083947 247.222584 
L 239.96065 264.630965 
L 241.837352 249.789914 
L 243.714055 216.889973 
L 245.590758 243.633872 
L 247.46746 255.336491 
L 249.344163 231.776689 
L 251.220866 261.065844 
L 253.097568 233.938595 
L 254.974271 248.839658 
L 256.850974 259.200042 
L 258.727676 263.932963 
L 260.604379 252.899495 
L 262.481082 249.947564 
L 264.357784 252.871433 
L 266.234487 261.454232 
L 268.11119 262.690291 
L 269.987892 271.801631 
L 271.864595 254.958318 
L 273.741298 254.89772 
L 275.618 260.185619 
L 277.494703 260.903336 
L 279.371406 265.905295 
L 281.248108 263.436232 
L 283.124811 273.674316 
L 285.001513 270.752443 
L 286.878216 259.863214 
L 288.754919 268.190385 
L 290.631621 272.501603 
L 292.508324 250.002268 
L 294.385027 263.839098 
L 296.261729 264.502969 
L 298.138432 286.769066 
L 300.015135 268.929178 
L 301.891837 267.052845 
L 303.76854 268.638712 
L 305.645243 267.841768 
L 307.521945 268.14989 
L 309.398648 273.720695 
L 311.275351 270.496539 
L 313.152053 275.812 
L 315.028756 268.900685 
L 316.905459 266.278265 
L 318.782161 268.512554 
L 320.658864 267.073064 
L 322.535567 280.618364 
L 324.412269 263.180251 
L 326.288972 273.79091 
L 328.165675 274.552464 
L 330.042377 280.841941 
L 333.795782 268.406028 
L 335.672485 290.547955 
L 337.549188 283.276456 
L 339.42589 278.876154 
L 341.302593 276.781475 
L 343.179296 292.074481 
L 345.055998 294.480193 
L 346.932701 282.895671 
L 348.809404 275.25823 
L 350.686106 284.596305 
L 352.562809 286.195293 
L 354.439512 277.22828 
L 356.316214 294.831551 
L 358.192917 282.231648 
L 360.06962 282.191499 
L 361.946322 289.584179 
L 363.823025 283.741186 
L 365.699728 303.391677 
L 367.57643 298.26416 
L 369.453133 278.715239 
L 371.329836 280.491318 
L 373.206538 270.903562 
L 375.083241 280.396953 
L 376.959943 280.885104 
L 378.836646 284.21347 
L 380.713349 282.636678 
L 382.590051 294.033044 
L 384.466754 286.108288 
L 386.343457 279.588909 
L 388.220159 288.75152 
L 390.096862 284.345617 
L 391.973565 289.802657 
L 393.850267 284.849797 
L 395.72697 298.810463 
L 397.603673 289.06248 
L 399.480375 286.888596 
L 401.357078 289.818767 
L 403.233781 291.019792 
L 405.110483 290.011656 
L 406.987186 291.890407 
L 408.863889 289.014695 
L 410.740591 283.813078 
L 412.617294 289.90426 
L 414.493997 304.38564 
L 416.370699 282.891673 
L 418.247402 278.068893 
L 420.124105 295.259026 
L 422.000807 273.162703 
L 425.754212 295.947881 
L 427.630915 285.062221 
L 429.507618 289.223557 
L 431.38432 307.726973 
L 433.261023 302.447681 
L 435.137726 280.459781 
L 437.014428 294.213533 
L 438.891131 285.217695 
L 440.767834 285.823567 
L 442.644536 281.096398 
L 444.521239 281.666582 
L 446.397942 287.357961 
L 448.274644 278.870993 
L 450.151347 290.450907 
L 452.02805 279.189435 
L 453.904752 299.500138 
L 455.781455 296.664108 
L 457.658158 289.23166 
L 459.53486 289.205038 
L 461.411563 275.60012 
L 463.288266 275.957401 
L 465.164968 293.726145 
L 467.041671 307.8 
L 468.918374 297.793172 
L 470.795076 292.977239 
L 472.671779 298.296456 
L 474.548481 293.973718 
L 476.425184 287.830354 
L 478.301887 294.168068 
L 480.178589 280.733063 
L 482.055292 295.332761 
L 483.931995 294.909221 
L 485.808697 299.572275 
L 487.6854 288.85063 
L 489.562103 292.497831 
L 491.438805 288.01541 
L 493.315508 286.217761 
L 493.315508 286.217761 
" style="fill:none;stroke:#1f77b4;stroke-linecap:square;stroke-width:1.5;"/>
   </g>
   <g id="line2d_16">
    <path clip-path="url(#p4c9d43700c)" d="M 194.919786 115.900435 
L 196.796489 140.327051 
L 198.673191 55.8 
L 200.549894 155.497066 
L 202.426597 167.982743 
L 204.303299 183.995162 
L 206.180002 148.375947 
L 208.056705 170.762546 
L 209.933407 204.182382 
L 211.81011 202.545667 
L 213.686813 215.590988 
L 215.563515 211.966495 
L 217.440218 220.710146 
L 219.316921 224.153103 
L 221.193623 215.015943 
L 223.070326 232.979235 
L 224.947029 226.148853 
L 226.823731 242.195182 
L 228.700434 234.855568 
L 230.577137 227.036195 
L 232.453839 216.019825 
L 234.330542 207.851298 
L 236.207244 238.974576 
L 238.083947 245.027411 
L 239.96065 244.404324 
L 241.837352 241.553998 
L 243.714055 261.097609 
L 245.590758 228.791527 
L 247.46746 243.676365 
L 249.344163 260.000754 
L 251.220866 263.384994 
L 253.097568 258.803416 
L 254.974271 258.181106 
L 256.850974 263.169955 
L 258.727676 262.469552 
L 260.604379 261.144946 
L 262.481082 263.012446 
L 264.357784 266.219438 
L 266.234487 256.841463 
L 268.11119 261.254681 
L 269.987892 246.033943 
L 271.864595 247.235882 
L 273.741298 260.770996 
L 275.618 268.45233 
L 277.494703 250.830424 
L 279.371406 266.835303 
L 281.248108 274.822706 
L 283.124811 262.393803 
L 285.001513 281.15754 
L 286.878216 278.996578 
L 288.754919 264.227559 
L 290.631621 269.909298 
L 292.508324 263.223461 
L 294.385027 269.562082 
L 296.261729 237.903752 
L 298.138432 284.698071 
L 300.015135 274.193357 
L 301.891837 273.762505 
L 303.76854 281.419668 
L 305.645243 283.804291 
L 307.521945 272.16449 
L 309.398648 270.124194 
L 311.275351 271.053284 
L 313.152053 267.114243 
L 315.028756 270.112872 
L 316.905459 245.820663 
L 318.782161 272.067429 
L 320.658864 280.942184 
L 322.535567 249.646792 
L 324.412269 276.545393 
L 326.288972 286.510417 
L 328.165675 285.475185 
L 330.042377 273.035195 
L 331.91908 282.975672 
L 333.795782 274.971584 
L 335.672485 288.573824 
L 337.549188 280.173224 
L 339.42589 275.649399 
L 341.302593 283.323131 
L 343.179296 290.31415 
L 345.055998 283.470604 
L 346.932701 279.295621 
L 348.809404 285.182466 
L 350.686106 291.99618 
L 352.562809 280.950756 
L 354.439512 289.973733 
L 356.316214 287.04206 
L 358.192917 279.86367 
L 360.06962 283.087424 
L 361.946322 283.951175 
L 363.823025 278.117518 
L 365.699728 275.644877 
L 367.57643 286.098227 
L 369.453133 275.422839 
L 371.329836 271.909674 
L 373.206538 292.177701 
L 375.083241 275.219314 
L 376.959943 279.602316 
L 378.836646 292.84158 
L 380.713349 279.388079 
L 382.590051 280.041853 
L 384.466754 288.828927 
L 386.343457 292.626621 
L 388.220159 293.853828 
L 390.096862 296.335053 
L 391.973565 275.503731 
L 393.850267 285.699889 
L 395.72697 284.652583 
L 397.603673 282.679524 
L 399.480375 281.993248 
L 401.357078 281.802101 
L 403.233781 290.4929 
L 405.110483 295.630615 
L 406.987186 285.658143 
L 408.863889 281.395043 
L 412.617294 286.774616 
L 414.493997 283.978167 
L 416.370699 274.807619 
L 418.247402 288.872366 
L 420.124105 296.01956 
L 422.000807 286.561365 
L 423.87751 275.562625 
L 425.754212 287.796949 
L 427.630915 282.290938 
L 429.507618 298.030584 
L 431.38432 285.135869 
L 433.261023 287.994388 
L 435.137726 293.801538 
L 437.014428 289.703622 
L 438.891131 292.05963 
L 440.767834 297.616304 
L 442.644536 289.886819 
L 444.521239 296.601753 
L 446.397942 293.393505 
L 448.274644 289.818711 
L 450.151347 283.823854 
L 452.02805 294.435873 
L 453.904752 291.974428 
L 455.781455 290.396478 
L 457.658158 282.330506 
L 459.53486 292.938418 
L 461.411563 281.99244 
L 463.288266 282.305148 
L 465.164968 285.564089 
L 467.041671 291.458217 
L 468.918374 275.797876 
L 470.795076 288.435763 
L 472.671779 295.647822 
L 474.548481 285.959084 
L 476.425184 285.939461 
L 478.301887 283.236109 
L 480.178589 298.298343 
L 482.055292 290.291292 
L 483.931995 290.711955 
L 485.808697 300.618862 
L 487.6854 281.50141 
L 489.562103 286.831715 
L 491.438805 301.630504 
L 493.315508 284.891883 
L 493.315508 284.891883 
" style="fill:none;stroke:#ff7f0e;stroke-linecap:square;stroke-width:1.5;"/>
   </g>
   <g id="patch_3">
    <path d="M 180 320.4 
L 180 43.2 
" style="fill:none;stroke:#000000;stroke-linecap:square;stroke-linejoin:miter;stroke-width:0.8;"/>
   </g>
   <g id="patch_4">
    <path d="M 508.235294 320.4 
L 508.235294 43.2 
" style="fill:none;stroke:#000000;stroke-linecap:square;stroke-linejoin:miter;stroke-width:0.8;"/>
   </g>
   <g id="patch_5">
    <path d="M 180 320.4 
L 508.235294 320.4 
" style="fill:none;stroke:#000000;stroke-linecap:square;stroke-linejoin:miter;stroke-width:0.8;"/>
   </g>
   <g id="patch_6">
    <path d="M 180 43.2 
L 508.235294 43.2 
" style="fill:none;stroke:#000000;stroke-linecap:square;stroke-linejoin:miter;stroke-width:0.8;"/>
   </g>
   <g id="legend_1">
    <g id="patch_7">
     <path d="M 397.360294 80.55625 
L 501.235294 80.55625 
Q 503.235294 80.55625 503.235294 78.55625 
L 503.235294 50.2 
Q 503.235294 48.2 501.235294 48.2 
L 397.360294 48.2 
Q 395.360294 48.2 395.360294 50.2 
L 395.360294 78.55625 
Q 395.360294 80.55625 397.360294 80.55625 
z
" style="fill:#ffffff;opacity:0.8;stroke:#cccccc;stroke-linejoin:miter;"/>
    </g>
    <g id="line2d_17">
     <path d="M 399.360294 56.298437 
L 419.360294 56.298437 
" style="fill:none;stroke:#1f77b4;stroke-linecap:square;stroke-width:1.5;"/>
    </g>
    <g id="line2d_18"/>
    <g id="text_16">
     <!-- Train loss -->
     <g transform="translate(427.360294 59.798437)scale(0.1 -0.1)">
      <defs>
       <path d="M -19 4666 
L 3928 4666 
L 3928 4134 
L 2272 4134 
L 2272 0 
L 1638 0 
L 1638 4134 
L -19 4134 
L -19 4666 
z
" id="DejaVuSans-54" transform="scale(0.015625)"/>
       <path d="M 2631 2963 
Q 2534 3019 2420 3045 
Q 2306 3072 2169 3072 
Q 1681 3072 1420 2755 
Q 1159 2438 1159 1844 
L 1159 0 
L 581 0 
L 581 3500 
L 1159 3500 
L 1159 2956 
Q 1341 3275 1631 3429 
Q 1922 3584 2338 3584 
Q 2397 3584 2469 3576 
Q 2541 3569 2628 3553 
L 2631 2963 
z
" id="DejaVuSans-72" transform="scale(0.015625)"/>
       <path d="M 2194 1759 
Q 1497 1759 1228 1600 
Q 959 1441 959 1056 
Q 959 750 1161 570 
Q 1363 391 1709 391 
Q 2188 391 2477 730 
Q 2766 1069 2766 1631 
L 2766 1759 
L 2194 1759 
z
M 3341 1997 
L 3341 0 
L 2766 0 
L 2766 531 
Q 2569 213 2275 61 
Q 1981 -91 1556 -91 
Q 1019 -91 701 211 
Q 384 513 384 1019 
Q 384 1609 779 1909 
Q 1175 2209 1959 2209 
L 2766 2209 
L 2766 2266 
Q 2766 2663 2505 2880 
Q 2244 3097 1772 3097 
Q 1472 3097 1187 3025 
Q 903 2953 641 2809 
L 641 3341 
Q 956 3463 1253 3523 
Q 1550 3584 1831 3584 
Q 2591 3584 2966 3190 
Q 3341 2797 3341 1997 
z
" id="DejaVuSans-61" transform="scale(0.015625)"/>
       <path d="M 603 3500 
L 1178 3500 
L 1178 0 
L 603 0 
L 603 3500 
z
M 603 4863 
L 1178 4863 
L 1178 4134 
L 603 4134 
L 603 4863 
z
" id="DejaVuSans-69" transform="scale(0.015625)"/>
       <path d="M 3513 2113 
L 3513 0 
L 2938 0 
L 2938 2094 
Q 2938 2591 2744 2837 
Q 2550 3084 2163 3084 
Q 1697 3084 1428 2787 
Q 1159 2491 1159 1978 
L 1159 0 
L 581 0 
L 581 3500 
L 1159 3500 
L 1159 2956 
Q 1366 3272 1645 3428 
Q 1925 3584 2291 3584 
Q 2894 3584 3203 3211 
Q 3513 2838 3513 2113 
z
" id="DejaVuSans-6e" transform="scale(0.015625)"/>
       <path id="DejaVuSans-20" transform="scale(0.015625)"/>
       <path d="M 603 4863 
L 1178 4863 
L 1178 0 
L 603 0 
L 603 4863 
z
" id="DejaVuSans-6c" transform="scale(0.015625)"/>
       <path d="M 2834 3397 
L 2834 2853 
Q 2591 2978 2328 3040 
Q 2066 3103 1784 3103 
Q 1356 3103 1142 2972 
Q 928 2841 928 2578 
Q 928 2378 1081 2264 
Q 1234 2150 1697 2047 
L 1894 2003 
Q 2506 1872 2764 1633 
Q 3022 1394 3022 966 
Q 3022 478 2636 193 
Q 2250 -91 1575 -91 
Q 1294 -91 989 -36 
Q 684 19 347 128 
L 347 722 
Q 666 556 975 473 
Q 1284 391 1588 391 
Q 1994 391 2212 530 
Q 2431 669 2431 922 
Q 2431 1156 2273 1281 
Q 2116 1406 1581 1522 
L 1381 1569 
Q 847 1681 609 1914 
Q 372 2147 372 2553 
Q 372 3047 722 3315 
Q 1072 3584 1716 3584 
Q 2034 3584 2315 3537 
Q 2597 3491 2834 3397 
z
" id="DejaVuSans-73" transform="scale(0.015625)"/>
      </defs>
      <use xlink:href="#DejaVuSans-54"/>
      <use x="46.333984" xlink:href="#DejaVuSans-72"/>
      <use x="87.447266" xlink:href="#DejaVuSans-61"/>
      <use x="148.726562" xlink:href="#DejaVuSans-69"/>
      <use x="176.509766" xlink:href="#DejaVuSans-6e"/>
      <use x="239.888672" xlink:href="#DejaVuSans-20"/>
      <use x="271.675781" xlink:href="#DejaVuSans-6c"/>
      <use x="299.458984" xlink:href="#DejaVuSans-6f"/>
      <use x="360.640625" xlink:href="#DejaVuSans-73"/>
      <use x="412.740234" xlink:href="#DejaVuSans-73"/>
     </g>
    </g>
    <g id="line2d_19">
     <path d="M 399.360294 70.976562 
L 419.360294 70.976562 
" style="fill:none;stroke:#ff7f0e;stroke-linecap:square;stroke-width:1.5;"/>
    </g>
    <g id="line2d_20"/>
    <g id="text_17">
     <!-- Validation loss -->
     <g transform="translate(427.360294 74.476562)scale(0.1 -0.1)">
      <defs>
       <path d="M 1831 0 
L 50 4666 
L 709 4666 
L 2188 738 
L 3669 4666 
L 4325 4666 
L 2547 0 
L 1831 0 
z
" id="DejaVuSans-56" transform="scale(0.015625)"/>
       <path d="M 2906 2969 
L 2906 4863 
L 3481 4863 
L 3481 0 
L 2906 0 
L 2906 525 
Q 2725 213 2448 61 
Q 2172 -91 1784 -91 
Q 1150 -91 751 415 
Q 353 922 353 1747 
Q 353 2572 751 3078 
Q 1150 3584 1784 3584 
Q 2172 3584 2448 3432 
Q 2725 3281 2906 2969 
z
M 947 1747 
Q 947 1113 1208 752 
Q 1469 391 1925 391 
Q 2381 391 2643 752 
Q 2906 1113 2906 1747 
Q 2906 2381 2643 2742 
Q 2381 3103 1925 3103 
Q 1469 3103 1208 2742 
Q 947 2381 947 1747 
z
" id="DejaVuSans-64" transform="scale(0.015625)"/>
       <path d="M 1172 4494 
L 1172 3500 
L 2356 3500 
L 2356 3053 
L 1172 3053 
L 1172 1153 
Q 1172 725 1289 603 
Q 1406 481 1766 481 
L 2356 481 
L 2356 0 
L 1766 0 
Q 1100 0 847 248 
Q 594 497 594 1153 
L 594 3053 
L 172 3053 
L 172 3500 
L 594 3500 
L 594 4494 
L 1172 4494 
z
" id="DejaVuSans-74" transform="scale(0.015625)"/>
      </defs>
      <use xlink:href="#DejaVuSans-56"/>
      <use x="60.658203" xlink:href="#DejaVuSans-61"/>
      <use x="121.9375" xlink:href="#DejaVuSans-6c"/>
      <use x="149.720703" xlink:href="#DejaVuSans-69"/>
      <use x="177.503906" xlink:href="#DejaVuSans-64"/>
      <use x="240.980469" xlink:href="#DejaVuSans-61"/>
      <use x="302.259766" xlink:href="#DejaVuSans-74"/>
      <use x="341.46875" xlink:href="#DejaVuSans-69"/>
      <use x="369.251953" xlink:href="#DejaVuSans-6f"/>
      <use x="430.433594" xlink:href="#DejaVuSans-6e"/>
      <use x="493.8125" xlink:href="#DejaVuSans-20"/>
      <use x="525.599609" xlink:href="#DejaVuSans-6c"/>
      <use x="553.382812" xlink:href="#DejaVuSans-6f"/>
      <use x="614.564453" xlink:href="#DejaVuSans-73"/>
      <use x="666.664062" xlink:href="#DejaVuSans-73"/>
     </g>
    </g>
   </g>
  </g>
  <g id="axes_2">
   <g id="patch_8">
    <path d="M 573.882353 320.4 
L 902.117647 320.4 
L 902.117647 43.2 
L 573.882353 43.2 
z
" style="fill:#ffffff;"/>
   </g>
   <g id="matplotlib.axis_3">
    <g id="xtick_10">
     <g id="line2d_21">
      <g>
       <use style="stroke:#000000;stroke-width:0.8;" x="586.925436" xlink:href="#me6ea658d09" y="320.4"/>
      </g>
     </g>
     <g id="text_18">
      <!-- 0 -->
      <g transform="translate(583.744186 334.998438)scale(0.1 -0.1)">
       <use xlink:href="#DejaVuSans-30"/>
      </g>
     </g>
    </g>
    <g id="xtick_11">
     <g id="line2d_22">
      <g>
       <use style="stroke:#000000;stroke-width:0.8;" x="624.459489" xlink:href="#me6ea658d09" y="320.4"/>
      </g>
     </g>
     <g id="text_19">
      <!-- 20 -->
      <g transform="translate(618.096989 334.998438)scale(0.1 -0.1)">
       <use xlink:href="#DejaVuSans-32"/>
       <use x="63.623047" xlink:href="#DejaVuSans-30"/>
      </g>
     </g>
    </g>
    <g id="xtick_12">
     <g id="line2d_23">
      <g>
       <use style="stroke:#000000;stroke-width:0.8;" x="661.993543" xlink:href="#me6ea658d09" y="320.4"/>
      </g>
     </g>
     <g id="text_20">
      <!-- 40 -->
      <g transform="translate(655.631043 334.998438)scale(0.1 -0.1)">
       <use xlink:href="#DejaVuSans-34"/>
       <use x="63.623047" xlink:href="#DejaVuSans-30"/>
      </g>
     </g>
    </g>
    <g id="xtick_13">
     <g id="line2d_24">
      <g>
       <use style="stroke:#000000;stroke-width:0.8;" x="699.527596" xlink:href="#me6ea658d09" y="320.4"/>
      </g>
     </g>
     <g id="text_21">
      <!-- 60 -->
      <g transform="translate(693.165096 334.998438)scale(0.1 -0.1)">
       <use xlink:href="#DejaVuSans-36"/>
       <use x="63.623047" xlink:href="#DejaVuSans-30"/>
      </g>
     </g>
    </g>
    <g id="xtick_14">
     <g id="line2d_25">
      <g>
       <use style="stroke:#000000;stroke-width:0.8;" x="737.061649" xlink:href="#me6ea658d09" y="320.4"/>
      </g>
     </g>
     <g id="text_22">
      <!-- 80 -->
      <g transform="translate(730.699149 334.998438)scale(0.1 -0.1)">
       <use xlink:href="#DejaVuSans-38"/>
       <use x="63.623047" xlink:href="#DejaVuSans-30"/>
      </g>
     </g>
    </g>
    <g id="xtick_15">
     <g id="line2d_26">
      <g>
       <use style="stroke:#000000;stroke-width:0.8;" x="774.595702" xlink:href="#me6ea658d09" y="320.4"/>
      </g>
     </g>
     <g id="text_23">
      <!-- 100 -->
      <g transform="translate(765.051952 334.998438)scale(0.1 -0.1)">
       <use xlink:href="#DejaVuSans-31"/>
       <use x="63.623047" xlink:href="#DejaVuSans-30"/>
       <use x="127.246094" xlink:href="#DejaVuSans-30"/>
      </g>
     </g>
    </g>
    <g id="xtick_16">
     <g id="line2d_27">
      <g>
       <use style="stroke:#000000;stroke-width:0.8;" x="812.129755" xlink:href="#me6ea658d09" y="320.4"/>
      </g>
     </g>
     <g id="text_24">
      <!-- 120 -->
      <g transform="translate(802.586005 334.998438)scale(0.1 -0.1)">
       <use xlink:href="#DejaVuSans-31"/>
       <use x="63.623047" xlink:href="#DejaVuSans-32"/>
       <use x="127.246094" xlink:href="#DejaVuSans-30"/>
      </g>
     </g>
    </g>
    <g id="xtick_17">
     <g id="line2d_28">
      <g>
       <use style="stroke:#000000;stroke-width:0.8;" x="849.663808" xlink:href="#me6ea658d09" y="320.4"/>
      </g>
     </g>
     <g id="text_25">
      <!-- 140 -->
      <g transform="translate(840.120058 334.998438)scale(0.1 -0.1)">
       <use xlink:href="#DejaVuSans-31"/>
       <use x="63.623047" xlink:href="#DejaVuSans-34"/>
       <use x="127.246094" xlink:href="#DejaVuSans-30"/>
      </g>
     </g>
    </g>
    <g id="xtick_18">
     <g id="line2d_29">
      <g>
       <use style="stroke:#000000;stroke-width:0.8;" x="887.197861" xlink:href="#me6ea658d09" y="320.4"/>
      </g>
     </g>
     <g id="text_26">
      <!-- 160 -->
      <g transform="translate(877.654111 334.998438)scale(0.1 -0.1)">
       <use xlink:href="#DejaVuSans-31"/>
       <use x="63.623047" xlink:href="#DejaVuSans-36"/>
       <use x="127.246094" xlink:href="#DejaVuSans-30"/>
      </g>
     </g>
    </g>
    <g id="text_27">
     <!-- Epoch -->
     <g transform="translate(715.033594 352.475781)scale(0.15 -0.15)">
      <use xlink:href="#DejaVuSans-45"/>
      <use x="63.183594" xlink:href="#DejaVuSans-70"/>
      <use x="126.660156" xlink:href="#DejaVuSans-6f"/>
      <use x="187.841797" xlink:href="#DejaVuSans-63"/>
      <use x="242.822266" xlink:href="#DejaVuSans-68"/>
     </g>
    </g>
   </g>
   <g id="matplotlib.axis_4">
    <g id="ytick_6">
     <g id="line2d_30">
      <g>
       <use style="stroke:#000000;stroke-width:0.8;" x="573.882353" xlink:href="#m1aceeda455" y="320.4"/>
      </g>
     </g>
     <g id="text_28">
      <!-- 0.0 -->
      <g transform="translate(550.979228 324.199219)scale(0.1 -0.1)">
       <defs>
        <path d="M 684 794 
L 1344 794 
L 1344 0 
L 684 0 
L 684 794 
z
" id="DejaVuSans-2e" transform="scale(0.015625)"/>
       </defs>
       <use xlink:href="#DejaVuSans-30"/>
       <use x="63.623047" xlink:href="#DejaVuSans-2e"/>
       <use x="95.410156" xlink:href="#DejaVuSans-30"/>
      </g>
     </g>
    </g>
    <g id="ytick_7">
     <g id="line2d_31">
      <g>
       <use style="stroke:#000000;stroke-width:0.8;" x="573.882353" xlink:href="#m1aceeda455" y="264.96"/>
      </g>
     </g>
     <g id="text_29">
      <!-- 0.2 -->
      <g transform="translate(550.979228 268.759219)scale(0.1 -0.1)">
       <use xlink:href="#DejaVuSans-30"/>
       <use x="63.623047" xlink:href="#DejaVuSans-2e"/>
       <use x="95.410156" xlink:href="#DejaVuSans-32"/>
      </g>
     </g>
    </g>
    <g id="ytick_8">
     <g id="line2d_32">
      <g>
       <use style="stroke:#000000;stroke-width:0.8;" x="573.882353" xlink:href="#m1aceeda455" y="209.52"/>
      </g>
     </g>
     <g id="text_30">
      <!-- 0.4 -->
      <g transform="translate(550.979228 213.319219)scale(0.1 -0.1)">
       <use xlink:href="#DejaVuSans-30"/>
       <use x="63.623047" xlink:href="#DejaVuSans-2e"/>
       <use x="95.410156" xlink:href="#DejaVuSans-34"/>
      </g>
     </g>
    </g>
    <g id="ytick_9">
     <g id="line2d_33">
      <g>
       <use style="stroke:#000000;stroke-width:0.8;" x="573.882353" xlink:href="#m1aceeda455" y="154.08"/>
      </g>
     </g>
     <g id="text_31">
      <!-- 0.6 -->
      <g transform="translate(550.979228 157.879219)scale(0.1 -0.1)">
       <use xlink:href="#DejaVuSans-30"/>
       <use x="63.623047" xlink:href="#DejaVuSans-2e"/>
       <use x="95.410156" xlink:href="#DejaVuSans-36"/>
      </g>
     </g>
    </g>
    <g id="ytick_10">
     <g id="line2d_34">
      <g>
       <use style="stroke:#000000;stroke-width:0.8;" x="573.882353" xlink:href="#m1aceeda455" y="98.64"/>
      </g>
     </g>
     <g id="text_32">
      <!-- 0.8 -->
      <g transform="translate(550.979228 102.439219)scale(0.1 -0.1)">
       <use xlink:href="#DejaVuSans-30"/>
       <use x="63.623047" xlink:href="#DejaVuSans-2e"/>
       <use x="95.410156" xlink:href="#DejaVuSans-38"/>
      </g>
     </g>
    </g>
    <g id="ytick_11">
     <g id="line2d_35">
      <g>
       <use style="stroke:#000000;stroke-width:0.8;" x="573.882353" xlink:href="#m1aceeda455" y="43.2"/>
      </g>
     </g>
     <g id="text_33">
      <!-- 1.0 -->
      <g transform="translate(550.979228 46.999219)scale(0.1 -0.1)">
       <use xlink:href="#DejaVuSans-31"/>
       <use x="63.623047" xlink:href="#DejaVuSans-2e"/>
       <use x="95.410156" xlink:href="#DejaVuSans-30"/>
      </g>
     </g>
    </g>
    <g id="text_34">
     <!-- Accuracy -->
     <g transform="translate(543.859697 216.042187)rotate(-90)scale(0.15 -0.15)">
      <defs>
       <path d="M 2188 4044 
L 1331 1722 
L 3047 1722 
L 2188 4044 
z
M 1831 4666 
L 2547 4666 
L 4325 0 
L 3669 0 
L 3244 1197 
L 1141 1197 
L 716 0 
L 50 0 
L 1831 4666 
z
" id="DejaVuSans-41" transform="scale(0.015625)"/>
       <path d="M 544 1381 
L 544 3500 
L 1119 3500 
L 1119 1403 
Q 1119 906 1312 657 
Q 1506 409 1894 409 
Q 2359 409 2629 706 
Q 2900 1003 2900 1516 
L 2900 3500 
L 3475 3500 
L 3475 0 
L 2900 0 
L 2900 538 
Q 2691 219 2414 64 
Q 2138 -91 1772 -91 
Q 1169 -91 856 284 
Q 544 659 544 1381 
z
M 1991 3584 
L 1991 3584 
z
" id="DejaVuSans-75" transform="scale(0.015625)"/>
       <path d="M 2059 -325 
Q 1816 -950 1584 -1140 
Q 1353 -1331 966 -1331 
L 506 -1331 
L 506 -850 
L 844 -850 
Q 1081 -850 1212 -737 
Q 1344 -625 1503 -206 
L 1606 56 
L 191 3500 
L 800 3500 
L 1894 763 
L 2988 3500 
L 3597 3500 
L 2059 -325 
z
" id="DejaVuSans-79" transform="scale(0.015625)"/>
      </defs>
      <use xlink:href="#DejaVuSans-41"/>
      <use x="66.658203" xlink:href="#DejaVuSans-63"/>
      <use x="121.638672" xlink:href="#DejaVuSans-63"/>
      <use x="176.619141" xlink:href="#DejaVuSans-75"/>
      <use x="239.998047" xlink:href="#DejaVuSans-72"/>
      <use x="281.111328" xlink:href="#DejaVuSans-61"/>
      <use x="342.390625" xlink:href="#DejaVuSans-63"/>
      <use x="397.371094" xlink:href="#DejaVuSans-79"/>
     </g>
    </g>
   </g>
   <g id="line2d_36">
    <path clip-path="url(#pfba5a2aba2)" d="M 588.802139 298.224 
L 590.678842 298.224 
L 592.555544 299.61 
L 594.432247 299.61 
L 596.30895 295.452 
L 598.185652 292.68 
L 600.062355 292.68 
L 601.939058 289.908 
L 603.81576 296.838 
L 605.692463 299.61 
L 607.569166 289.908 
L 609.445868 296.838 
L 611.322571 295.452 
L 613.199274 298.224 
L 615.075976 298.224 
L 616.952679 303.768 
L 618.829381 292.68 
L 620.706084 291.294 
L 622.582787 294.066 
L 624.459489 288.522 
L 626.336192 292.68 
L 628.212895 294.066 
L 630.089597 292.68 
L 633.843003 292.68 
L 635.719705 291.294 
L 637.596408 288.522 
L 639.473111 294.066 
L 641.349813 291.294 
L 643.226516 295.452 
L 645.103219 292.68 
L 646.979921 292.68 
L 648.856624 296.838 
L 650.733327 287.136 
L 652.610029 294.066 
L 654.486732 292.68 
L 656.363435 302.382 
L 658.240137 300.996 
L 660.11684 298.224 
L 661.993543 284.364 
L 663.870245 281.592 
L 665.746948 299.61 
L 667.62365 295.452 
L 669.500353 292.68 
L 671.377056 296.838 
L 673.253758 287.136 
L 675.130461 292.68 
L 678.883866 295.452 
L 680.760569 288.522 
L 682.637272 291.294 
L 684.513974 292.68 
L 686.390677 292.68 
L 690.144082 281.592 
L 693.897488 292.68 
L 695.77419 303.768 
L 697.650893 295.452 
L 699.527596 280.206 
L 701.404298 284.364 
L 703.281001 282.978 
L 705.157704 292.68 
L 707.034406 269.118 
L 708.911109 281.592 
L 710.787812 277.434 
L 712.664514 282.978 
L 714.541217 287.136 
L 716.417919 281.592 
L 718.294622 282.978 
L 720.171325 273.276 
L 722.048027 269.118 
L 723.92473 278.82 
L 725.801433 256.644 
L 727.678135 281.592 
L 729.554838 269.118 
L 731.431541 263.574 
L 733.308243 266.346 
L 735.184946 263.574 
L 737.061649 266.346 
L 738.938351 255.258 
L 740.815054 263.574 
L 742.691757 256.644 
L 744.568459 259.416 
L 746.445162 255.258 
L 748.321865 263.574 
L 750.198567 262.188 
L 752.07527 263.574 
L 753.951973 249.714 
L 755.828675 255.258 
L 757.705378 245.556 
L 759.582081 256.644 
L 761.458783 262.188 
L 763.335486 260.802 
L 765.212188 252.486 
L 767.088891 252.486 
L 768.965594 258.03 
L 770.842296 252.486 
L 772.718999 253.872 
L 774.595702 256.644 
L 776.472404 241.398 
L 778.349107 252.486 
L 780.22581 253.872 
L 782.102512 251.1 
L 783.979215 245.556 
L 785.855918 258.03 
L 787.73262 246.942 
L 789.609323 233.082 
L 791.486026 248.328 
L 793.362728 242.784 
L 795.239431 240.012 
L 797.116134 240.012 
L 798.992836 235.854 
L 800.869539 251.1 
L 802.746242 237.24 
L 804.622944 234.468 
L 806.499647 238.626 
L 810.253052 241.398 
L 814.006457 238.626 
L 815.88316 231.696 
L 817.759863 241.398 
L 819.636565 233.082 
L 821.513268 230.31 
L 823.389971 252.486 
L 825.266673 233.082 
L 827.143376 240.012 
L 829.020079 235.854 
L 830.896781 234.468 
L 832.773484 230.31 
L 834.650187 235.854 
L 836.526889 224.766 
L 838.403592 235.854 
L 840.280295 230.31 
L 842.156997 228.924 
L 844.0337 220.608 
L 845.910403 224.766 
L 847.787105 238.626 
L 849.663808 230.31 
L 851.540511 235.854 
L 853.417213 219.222 
L 855.293916 226.152 
L 857.170619 231.696 
L 859.047321 241.398 
L 860.924024 227.538 
L 862.800726 224.766 
L 864.677429 231.696 
L 866.554132 224.766 
L 868.430834 230.31 
L 872.18424 224.766 
L 874.060942 216.45 
L 875.937645 234.468 
L 877.814348 216.45 
L 879.69105 220.608 
L 881.567753 219.222 
L 883.444456 231.696 
L 885.321158 219.222 
L 887.197861 224.766 
L 887.197861 224.766 
" style="fill:none;stroke:#1f77b4;stroke-linecap:square;stroke-width:1.5;"/>
   </g>
   <g id="line2d_37">
    <path clip-path="url(#pfba5a2aba2)" d="M 588.802139 293.4654 
L 590.678842 293.0958 
L 592.555544 291.9177 
L 594.432247 291.6174 
L 596.30895 293.6271 
L 598.185652 293.142 
L 600.062355 292.7955 
L 601.939058 290.9706 
L 603.81576 292.0332 
L 605.692463 292.2873 
L 607.569166 293.4192 
L 609.445868 293.0958 
L 611.322571 292.3566 
L 613.199274 292.8879 
L 615.075976 291.1323 
L 616.952679 292.1487 
L 618.829381 293.9967 
L 620.706084 294.2508 
L 622.582787 293.8119 
L 624.459489 293.5578 
L 628.212895 293.6733 
L 630.089597 294.2277 
L 631.9663 293.5116 
L 633.843003 293.8581 
L 635.719705 293.1882 
L 637.596408 292.8879 
L 639.473111 293.9274 
L 641.349813 293.8581 
L 646.979921 293.1651 
L 648.856624 293.2113 
L 650.733327 294.2277 
L 652.610029 293.3268 
L 654.486732 293.1651 
L 656.363435 293.1651 
L 658.240137 292.7955 
L 661.993543 291.1785 
L 663.870245 292.1718 
L 665.746948 291.4557 
L 667.62365 291.6867 
L 669.500353 291.2016 
L 671.377056 287.6442 
L 673.253758 291.5943 
L 675.130461 289.7232 
L 678.883866 289.3305 
L 680.760569 287.4363 
L 682.637272 287.9214 
L 684.513974 288.5682 
L 686.390677 290.5548 
L 688.26738 288.7068 
L 690.144082 286.5123 
L 692.020785 285.288 
L 693.897488 285.1263 
L 695.77419 284.0406 
L 697.650893 286.2351 
L 699.527596 281.7999 
L 701.404298 279.9519 
L 703.281001 283.4169 
L 705.157704 278.3349 
L 707.034406 275.0316 
L 708.911109 274.3848 
L 710.787812 275.5398 
L 712.664514 281.13 
L 714.541217 277.2261 
L 716.417919 271.5666 
L 718.294622 273.9459 
L 720.171325 268.6329 
L 722.048027 273.045 
L 723.92473 269.9958 
L 725.801433 266.6694 
L 727.678135 267.1314 
L 729.554838 262.0956 
L 731.431541 260.8713 
L 733.308243 262.6731 
L 735.184946 259.416 
L 737.061649 259.416 
L 738.938351 259.9242 
L 740.815054 261.2409 
L 742.691757 254.2878 
L 744.568459 257.7297 
L 746.445162 259.2774 
L 748.321865 255.7431 
L 750.198567 256.0203 
L 752.07527 256.6671 
L 753.951973 255.7662 
L 757.705378 257.9145 
L 759.582081 258.3072 
L 761.458783 257.4756 
L 763.335486 252.9018 
L 765.212188 253.2945 
L 767.088891 251.8854 
L 768.965594 257.2215 
L 770.842296 250.7997 
L 772.718999 254.1261 
L 774.595702 251.2848 
L 776.472404 248.79 
L 778.349107 247.7967 
L 780.22581 246.942 
L 782.102512 247.7736 
L 783.979215 248.2125 
L 785.855918 250.0605 
L 787.73262 245.6715 
L 789.609323 245.0247 
L 791.486026 246.1797 
L 793.362728 243.8004 
L 795.239431 243.1074 
L 797.116134 243.8466 
L 798.992836 241.2363 
L 800.869539 242.0679 
L 802.746242 242.2527 
L 804.622944 245.3943 
L 806.499647 243.3615 
L 808.37635 242.0448 
L 810.253052 241.8369 
L 812.129755 240.2892 
L 814.006457 240.9591 
L 815.88316 244.632 
L 817.759863 248.8131 
L 819.636565 238.626 
L 821.513268 243.3153 
L 823.389971 239.1111 
L 825.266673 239.9196 
L 827.143376 245.1171 
L 829.020079 244.7013 
L 830.896781 237.2631 
L 832.773484 237.3786 
L 834.650187 238.2333 
L 836.526889 241.0746 
L 838.403592 237.9099 
L 840.280295 238.0947 
L 842.156997 235.8771 
L 844.0337 237.8637 
L 845.910403 233.7981 
L 847.787105 233.6595 
L 849.663808 233.6364 
L 851.540511 235.0224 
L 853.417213 234.9531 
L 855.293916 233.2668 
L 857.170619 234.1215 
L 859.047321 234.3987 
L 860.924024 233.2206 
L 862.800726 233.8905 
L 864.677429 231.0261 
L 866.554132 232.5276 
L 868.430834 233.5902 
L 870.307537 232.7124 
L 872.18424 231.4188 
L 874.060942 231.4188 
L 875.937645 228.8085 
L 877.814348 237.6789 
L 879.69105 231.8346 
L 881.567753 229.5015 
L 883.444456 228.693 
L 885.321158 228.8085 
L 887.197861 228.4389 
L 887.197861 228.4389 
" style="fill:none;stroke:#ff7f0e;stroke-linecap:square;stroke-width:1.5;"/>
   </g>
   <g id="patch_9">
    <path d="M 573.882353 320.4 
L 573.882353 43.2 
" style="fill:none;stroke:#000000;stroke-linecap:square;stroke-linejoin:miter;stroke-width:0.8;"/>
   </g>
   <g id="patch_10">
    <path d="M 902.117647 320.4 
L 902.117647 43.2 
" style="fill:none;stroke:#000000;stroke-linecap:square;stroke-linejoin:miter;stroke-width:0.8;"/>
   </g>
   <g id="patch_11">
    <path d="M 573.882353 320.4 
L 902.117647 320.4 
" style="fill:none;stroke:#000000;stroke-linecap:square;stroke-linejoin:miter;stroke-width:0.8;"/>
   </g>
   <g id="patch_12">
    <path d="M 573.882353 43.2 
L 902.117647 43.2 
" style="fill:none;stroke:#000000;stroke-linecap:square;stroke-linejoin:miter;stroke-width:0.8;"/>
   </g>
   <g id="legend_2">
    <g id="patch_13">
     <path d="M 791.242647 80.55625 
L 895.117647 80.55625 
Q 897.117647 80.55625 897.117647 78.55625 
L 897.117647 50.2 
Q 897.117647 48.2 895.117647 48.2 
L 791.242647 48.2 
Q 789.242647 48.2 789.242647 50.2 
L 789.242647 78.55625 
Q 789.242647 80.55625 791.242647 80.55625 
z
" style="fill:#ffffff;opacity:0.8;stroke:#cccccc;stroke-linejoin:miter;"/>
    </g>
    <g id="line2d_38">
     <path d="M 793.242647 56.298437 
L 813.242647 56.298437 
" style="fill:none;stroke:#1f77b4;stroke-linecap:square;stroke-width:1.5;"/>
    </g>
    <g id="line2d_39"/>
    <g id="text_35">
     <!-- Train loss -->
     <g transform="translate(821.242647 59.798437)scale(0.1 -0.1)">
      <use xlink:href="#DejaVuSans-54"/>
      <use x="46.333984" xlink:href="#DejaVuSans-72"/>
      <use x="87.447266" xlink:href="#DejaVuSans-61"/>
      <use x="148.726562" xlink:href="#DejaVuSans-69"/>
      <use x="176.509766" xlink:href="#DejaVuSans-6e"/>
      <use x="239.888672" xlink:href="#DejaVuSans-20"/>
      <use x="271.675781" xlink:href="#DejaVuSans-6c"/>
      <use x="299.458984" xlink:href="#DejaVuSans-6f"/>
      <use x="360.640625" xlink:href="#DejaVuSans-73"/>
      <use x="412.740234" xlink:href="#DejaVuSans-73"/>
     </g>
    </g>
    <g id="line2d_40">
     <path d="M 793.242647 70.976562 
L 813.242647 70.976562 
" style="fill:none;stroke:#ff7f0e;stroke-linecap:square;stroke-width:1.5;"/>
    </g>
    <g id="line2d_41"/>
    <g id="text_36">
     <!-- Validation loss -->
     <g transform="translate(821.242647 74.476562)scale(0.1 -0.1)">
      <use xlink:href="#DejaVuSans-56"/>
      <use x="60.658203" xlink:href="#DejaVuSans-61"/>
      <use x="121.9375" xlink:href="#DejaVuSans-6c"/>
      <use x="149.720703" xlink:href="#DejaVuSans-69"/>
      <use x="177.503906" xlink:href="#DejaVuSans-64"/>
      <use x="240.980469" xlink:href="#DejaVuSans-61"/>
      <use x="302.259766" xlink:href="#DejaVuSans-74"/>
      <use x="341.46875" xlink:href="#DejaVuSans-69"/>
      <use x="369.251953" xlink:href="#DejaVuSans-6f"/>
      <use x="430.433594" xlink:href="#DejaVuSans-6e"/>
      <use x="493.8125" xlink:href="#DejaVuSans-20"/>
      <use x="525.599609" xlink:href="#DejaVuSans-6c"/>
      <use x="553.382812" xlink:href="#DejaVuSans-6f"/>
      <use x="614.564453" xlink:href="#DejaVuSans-73"/>
      <use x="666.664062" xlink:href="#DejaVuSans-73"/>
     </g>
    </g>
   </g>
  </g>
  <g id="axes_3">
   <g id="patch_14">
    <path d="M 967.764706 320.4 
L 1296 320.4 
L 1296 43.2 
L 967.764706 43.2 
z
" style="fill:#ffffff;"/>
   </g>
   <g id="matplotlib.axis_5">
    <g id="xtick_19">
     <g id="line2d_42">
      <g>
       <use style="stroke:#000000;stroke-width:0.8;" x="980.807789" xlink:href="#me6ea658d09" y="320.4"/>
      </g>
     </g>
     <g id="text_37">
      <!-- 0 -->
      <g transform="translate(977.626539 334.998438)scale(0.1 -0.1)">
       <use xlink:href="#DejaVuSans-30"/>
      </g>
     </g>
    </g>
    <g id="xtick_20">
     <g id="line2d_43">
      <g>
       <use style="stroke:#000000;stroke-width:0.8;" x="1018.341842" xlink:href="#me6ea658d09" y="320.4"/>
      </g>
     </g>
     <g id="text_38">
      <!-- 20 -->
      <g transform="translate(1011.979342 334.998438)scale(0.1 -0.1)">
       <use xlink:href="#DejaVuSans-32"/>
       <use x="63.623047" xlink:href="#DejaVuSans-30"/>
      </g>
     </g>
    </g>
    <g id="xtick_21">
     <g id="line2d_44">
      <g>
       <use style="stroke:#000000;stroke-width:0.8;" x="1055.875895" xlink:href="#me6ea658d09" y="320.4"/>
      </g>
     </g>
     <g id="text_39">
      <!-- 40 -->
      <g transform="translate(1049.513395 334.998438)scale(0.1 -0.1)">
       <use xlink:href="#DejaVuSans-34"/>
       <use x="63.623047" xlink:href="#DejaVuSans-30"/>
      </g>
     </g>
    </g>
    <g id="xtick_22">
     <g id="line2d_45">
      <g>
       <use style="stroke:#000000;stroke-width:0.8;" x="1093.409949" xlink:href="#me6ea658d09" y="320.4"/>
      </g>
     </g>
     <g id="text_40">
      <!-- 60 -->
      <g transform="translate(1087.047449 334.998438)scale(0.1 -0.1)">
       <use xlink:href="#DejaVuSans-36"/>
       <use x="63.623047" xlink:href="#DejaVuSans-30"/>
      </g>
     </g>
    </g>
    <g id="xtick_23">
     <g id="line2d_46">
      <g>
       <use style="stroke:#000000;stroke-width:0.8;" x="1130.944002" xlink:href="#me6ea658d09" y="320.4"/>
      </g>
     </g>
     <g id="text_41">
      <!-- 80 -->
      <g transform="translate(1124.581502 334.998438)scale(0.1 -0.1)">
       <use xlink:href="#DejaVuSans-38"/>
       <use x="63.623047" xlink:href="#DejaVuSans-30"/>
      </g>
     </g>
    </g>
    <g id="xtick_24">
     <g id="line2d_47">
      <g>
       <use style="stroke:#000000;stroke-width:0.8;" x="1168.478055" xlink:href="#me6ea658d09" y="320.4"/>
      </g>
     </g>
     <g id="text_42">
      <!-- 100 -->
      <g transform="translate(1158.934305 334.998438)scale(0.1 -0.1)">
       <use xlink:href="#DejaVuSans-31"/>
       <use x="63.623047" xlink:href="#DejaVuSans-30"/>
       <use x="127.246094" xlink:href="#DejaVuSans-30"/>
      </g>
     </g>
    </g>
    <g id="xtick_25">
     <g id="line2d_48">
      <g>
       <use style="stroke:#000000;stroke-width:0.8;" x="1206.012108" xlink:href="#me6ea658d09" y="320.4"/>
      </g>
     </g>
     <g id="text_43">
      <!-- 120 -->
      <g transform="translate(1196.468358 334.998438)scale(0.1 -0.1)">
       <use xlink:href="#DejaVuSans-31"/>
       <use x="63.623047" xlink:href="#DejaVuSans-32"/>
       <use x="127.246094" xlink:href="#DejaVuSans-30"/>
      </g>
     </g>
    </g>
    <g id="xtick_26">
     <g id="line2d_49">
      <g>
       <use style="stroke:#000000;stroke-width:0.8;" x="1243.546161" xlink:href="#me6ea658d09" y="320.4"/>
      </g>
     </g>
     <g id="text_44">
      <!-- 140 -->
      <g transform="translate(1234.002411 334.998438)scale(0.1 -0.1)">
       <use xlink:href="#DejaVuSans-31"/>
       <use x="63.623047" xlink:href="#DejaVuSans-34"/>
       <use x="127.246094" xlink:href="#DejaVuSans-30"/>
      </g>
     </g>
    </g>
    <g id="xtick_27">
     <g id="line2d_50">
      <g>
       <use style="stroke:#000000;stroke-width:0.8;" x="1281.080214" xlink:href="#me6ea658d09" y="320.4"/>
      </g>
     </g>
     <g id="text_45">
      <!-- 160 -->
      <g transform="translate(1271.536464 334.998438)scale(0.1 -0.1)">
       <use xlink:href="#DejaVuSans-31"/>
       <use x="63.623047" xlink:href="#DejaVuSans-36"/>
       <use x="127.246094" xlink:href="#DejaVuSans-30"/>
      </g>
     </g>
    </g>
    <g id="text_46">
     <!-- Epoch -->
     <g transform="translate(1108.915947 352.475781)scale(0.15 -0.15)">
      <use xlink:href="#DejaVuSans-45"/>
      <use x="63.183594" xlink:href="#DejaVuSans-70"/>
      <use x="126.660156" xlink:href="#DejaVuSans-6f"/>
      <use x="187.841797" xlink:href="#DejaVuSans-63"/>
      <use x="242.822266" xlink:href="#DejaVuSans-68"/>
     </g>
    </g>
   </g>
   <g id="matplotlib.axis_6">
    <g id="ytick_12">
     <g id="line2d_51">
      <g>
       <use style="stroke:#000000;stroke-width:0.8;" x="967.764706" xlink:href="#m1aceeda455" y="320.4"/>
      </g>
     </g>
     <g id="text_47">
      <!-- 0.0 -->
      <g transform="translate(944.861581 324.199219)scale(0.1 -0.1)">
       <use xlink:href="#DejaVuSans-30"/>
       <use x="63.623047" xlink:href="#DejaVuSans-2e"/>
       <use x="95.410156" xlink:href="#DejaVuSans-30"/>
      </g>
     </g>
    </g>
    <g id="ytick_13">
     <g id="line2d_52">
      <g>
       <use style="stroke:#000000;stroke-width:0.8;" x="967.764706" xlink:href="#m1aceeda455" y="264.96"/>
      </g>
     </g>
     <g id="text_48">
      <!-- 0.2 -->
      <g transform="translate(944.861581 268.759219)scale(0.1 -0.1)">
       <use xlink:href="#DejaVuSans-30"/>
       <use x="63.623047" xlink:href="#DejaVuSans-2e"/>
       <use x="95.410156" xlink:href="#DejaVuSans-32"/>
      </g>
     </g>
    </g>
    <g id="ytick_14">
     <g id="line2d_53">
      <g>
       <use style="stroke:#000000;stroke-width:0.8;" x="967.764706" xlink:href="#m1aceeda455" y="209.52"/>
      </g>
     </g>
     <g id="text_49">
      <!-- 0.4 -->
      <g transform="translate(944.861581 213.319219)scale(0.1 -0.1)">
       <use xlink:href="#DejaVuSans-30"/>
       <use x="63.623047" xlink:href="#DejaVuSans-2e"/>
       <use x="95.410156" xlink:href="#DejaVuSans-34"/>
      </g>
     </g>
    </g>
    <g id="ytick_15">
     <g id="line2d_54">
      <g>
       <use style="stroke:#000000;stroke-width:0.8;" x="967.764706" xlink:href="#m1aceeda455" y="154.08"/>
      </g>
     </g>
     <g id="text_50">
      <!-- 0.6 -->
      <g transform="translate(944.861581 157.879219)scale(0.1 -0.1)">
       <use xlink:href="#DejaVuSans-30"/>
       <use x="63.623047" xlink:href="#DejaVuSans-2e"/>
       <use x="95.410156" xlink:href="#DejaVuSans-36"/>
      </g>
     </g>
    </g>
    <g id="ytick_16">
     <g id="line2d_55">
      <g>
       <use style="stroke:#000000;stroke-width:0.8;" x="967.764706" xlink:href="#m1aceeda455" y="98.64"/>
      </g>
     </g>
     <g id="text_51">
      <!-- 0.8 -->
      <g transform="translate(944.861581 102.439219)scale(0.1 -0.1)">
       <use xlink:href="#DejaVuSans-30"/>
       <use x="63.623047" xlink:href="#DejaVuSans-2e"/>
       <use x="95.410156" xlink:href="#DejaVuSans-38"/>
      </g>
     </g>
    </g>
    <g id="ytick_17">
     <g id="line2d_56">
      <g>
       <use style="stroke:#000000;stroke-width:0.8;" x="967.764706" xlink:href="#m1aceeda455" y="43.2"/>
      </g>
     </g>
     <g id="text_52">
      <!-- 1.0 -->
      <g transform="translate(944.861581 46.999219)scale(0.1 -0.1)">
       <use xlink:href="#DejaVuSans-31"/>
       <use x="63.623047" xlink:href="#DejaVuSans-2e"/>
       <use x="95.410156" xlink:href="#DejaVuSans-30"/>
      </g>
     </g>
    </g>
    <g id="text_53">
     <!-- Accuracy -->
     <g transform="translate(937.74205 216.042187)rotate(-90)scale(0.15 -0.15)">
      <use xlink:href="#DejaVuSans-41"/>
      <use x="66.658203" xlink:href="#DejaVuSans-63"/>
      <use x="121.638672" xlink:href="#DejaVuSans-63"/>
      <use x="176.619141" xlink:href="#DejaVuSans-75"/>
      <use x="239.998047" xlink:href="#DejaVuSans-72"/>
      <use x="281.111328" xlink:href="#DejaVuSans-61"/>
      <use x="342.390625" xlink:href="#DejaVuSans-63"/>
      <use x="397.371094" xlink:href="#DejaVuSans-79"/>
     </g>
    </g>
   </g>
   <g id="line2d_57">
    <path clip-path="url(#p5eb5ef2c75)" d="M 982.684492 181.879908 
L 984.561195 180.36166 
L 986.437897 180.56143 
L 988.3146 182.399308 
L 990.191303 181.999769 
L 992.068005 180.881061 
L 993.944708 182.279447 
L 995.821411 181.879908 
L 997.698113 180.002076 
L 999.574816 179.562583 
L 1001.451519 181.879908 
L 1003.328221 179.32286 
L 1005.204924 181.320553 
L 1007.081626 182.239493 
L 1008.958329 182.958662 
L 1010.835032 180.681291 
L 1012.711734 179.602537 
L 1014.588437 182.279447 
L 1016.46514 179.362813 
L 1018.341842 181.240646 
L 1020.218545 179.84226 
L 1022.095248 180.841107 
L 1023.97195 179.522629 
L 1025.848653 181.720092 
L 1027.725356 181.200692 
L 1029.602058 181.720092 
L 1031.478761 183.23834 
L 1033.355464 184.397002 
L 1035.232166 179.282906 
L 1037.108869 179.84226 
L 1038.985572 183.997463 
L 1040.862274 179.043182 
L 1042.738977 183.957509 
L 1044.61568 181.160738 
L 1046.492382 180.601384 
L 1048.369085 182.159585 
L 1050.245788 181.879908 
L 1052.12249 183.23834 
L 1053.999193 182.918709 
L 1055.875895 178.963275 
L 1057.752598 180.960969 
L 1059.629301 180.601384 
L 1061.506003 185.475757 
L 1063.382706 182.439262 
L 1065.259409 183.118478 
L 1067.136111 183.438109 
L 1069.012814 182.199539 
L 1070.889517 185.875295 
L 1072.766219 181.360507 
L 1074.642922 183.23834 
L 1076.519625 179.362813 
L 1078.396327 181.400461 
L 1080.27303 179.12309 
L 1082.149733 179.642491 
L 1084.026435 181.720092 
L 1085.903138 179.202998 
L 1087.779841 180.841107 
L 1089.656543 180.721245 
L 1091.533246 183.557971 
L 1093.409949 181.720092 
L 1095.286651 180.521476 
L 1097.163354 181.120784 
L 1099.040057 182.559124 
L 1100.916759 175.567195 
L 1102.793462 175.92678 
L 1104.670164 172.930239 
L 1106.546867 172.091208 
L 1108.42357 175.287518 
L 1110.300272 169.893745 
L 1112.176975 173.369732 
L 1114.053678 173.529547 
L 1115.93038 171.851485 
L 1117.807083 171.012453 
L 1119.683786 171.571807 
L 1121.560488 169.414298 
L 1123.437191 168.575267 
L 1125.313894 168.615221 
L 1127.190596 164.539925 
L 1129.067299 165.938311 
L 1132.820704 163.740848 
L 1134.697407 165.458864 
L 1136.57411 160.744307 
L 1138.450812 163.940617 
L 1140.327515 163.101585 
L 1142.204218 164.060479 
L 1144.08092 161.823061 
L 1147.834325 164.220294 
L 1149.711028 160.304814 
L 1151.587731 159.825368 
L 1153.464433 160.184952 
L 1155.341136 159.54569 
L 1157.217839 157.547997 
L 1159.094541 161.463477 
L 1160.971244 159.54569 
L 1162.847947 160.584491 
L 1164.724649 159.625598 
L 1166.601352 161.263707 
L 1170.354757 157.268319 
L 1172.23146 158.267166 
L 1174.108163 157.06855 
L 1175.984865 154.39164 
L 1177.861568 150.356299 
L 1179.738271 151.594869 
L 1181.614973 151.395099 
L 1183.491676 150.556068 
L 1185.368379 150.076622 
L 1189.121784 144.80271 
L 1190.998487 146.161142 
L 1192.875189 145.561833 
L 1194.751892 143.604093 
L 1196.628594 139.44889 
L 1198.505297 141.007091 
L 1200.382 139.728567 
L 1202.258702 140.607553 
L 1204.135405 140.527645 
L 1206.012108 138.809628 
L 1207.88881 137.49115 
L 1209.765513 135.53341 
L 1211.642216 138.170366 
L 1213.518918 135.932949 
L 1215.395621 137.051658 
L 1217.272324 136.132718 
L 1219.149026 132.057423 
L 1221.025729 135.373595 
L 1222.902432 133.975209 
L 1224.779134 133.57567 
L 1226.655837 129.220698 
L 1228.53254 133.535716 
L 1230.409242 135.493456 
L 1232.285945 133.176131 
L 1234.162648 131.418161 
L 1236.03935 131.777746 
L 1237.916053 129.260651 
L 1239.792756 132.776593 
L 1241.669458 133.016316 
L 1243.546161 130.938714 
L 1245.422863 126.823465 
L 1247.299566 125.824618 
L 1249.176269 130.339406 
L 1251.052971 128.501528 
L 1252.929674 127.782358 
L 1254.806377 123.307524 
L 1256.683079 125.784664 
L 1258.559782 124.905679 
L 1260.436485 127.462727 
L 1262.313187 127.302912 
L 1264.18989 129.220698 
L 1266.066593 124.066647 
L 1267.943295 125.185356 
L 1269.819998 127.382819 
L 1271.696701 125.185356 
L 1273.573403 120.390891 
L 1275.450106 119.991352 
L 1277.326809 120.630614 
L 1279.203511 119.431998 
L 1281.080214 121.869184 
L 1281.080214 121.869184 
" style="fill:none;stroke:#1f77b4;stroke-linecap:square;stroke-width:1.5;"/>
   </g>
   <g id="line2d_58">
    <path clip-path="url(#p5eb5ef2c75)" d="M 982.684492 182.1003 
L 984.561195 181.5459 
L 986.437897 181.9155 
L 988.3146 182.1234 
L 990.191303 182.1927 
L 992.068005 181.1763 
L 993.944708 180.9222 
L 995.821411 183.0012 
L 997.698113 181.4073 
L 999.574816 181.7538 
L 1001.451519 182.493 
L 1003.328221 182.0079 
L 1005.204924 182.6778 
L 1007.081626 181.569 
L 1008.958329 182.724 
L 1010.835032 180.8067 
L 1012.711734 182.724 
L 1014.588437 180.9222 
L 1016.46514 180.9915 
L 1018.341842 180.3447 
L 1020.218545 182.031 
L 1022.095248 182.7933 
L 1023.97195 178.7739 
L 1027.725356 182.6547 
L 1029.602058 181.1532 
L 1031.478761 181.6152 
L 1033.355464 180.6219 
L 1035.232166 180.6681 
L 1037.108869 181.4997 
L 1038.985572 180.2754 
L 1040.862274 180.876 
L 1042.738977 184.2717 
L 1044.61568 184.3872 
L 1046.492382 182.5392 
L 1048.369085 182.3313 
L 1050.245788 181.4535 
L 1052.12249 179.8827 
L 1053.999193 179.259 
L 1055.875895 182.5623 
L 1057.752598 181.8924 
L 1059.629301 180.8067 
L 1061.506003 180.9453 
L 1063.382706 181.9386 
L 1065.259409 181.3842 
L 1067.136111 182.4699 
L 1069.012814 182.3775 
L 1070.889517 182.9088 
L 1072.766219 180.9453 
L 1074.642922 182.8395 
L 1076.519625 181.3611 
L 1078.396327 182.1003 
L 1080.27303 182.4237 
L 1082.149733 180.0675 
L 1084.026435 180.876 
L 1085.903138 184.1331 
L 1087.779841 182.0541 
L 1089.656543 179.7903 
L 1091.533246 181.1994 
L 1095.286651 181.7769 
L 1097.163354 181.1532 
L 1099.040057 175.7709 
L 1100.916759 173.2992 
L 1102.793462 173.7843 
L 1104.670164 173.4378 
L 1106.546867 176.2098 
L 1110.300272 173.1837 
L 1112.176975 169.3722 
L 1114.053678 170.8275 
L 1115.93038 168.2634 
L 1117.807083 169.9497 
L 1119.683786 168.864 
L 1121.560488 165.7455 
L 1123.437191 166.3923 
L 1125.313894 168.5406 
L 1127.190596 164.1978 
L 1129.067299 163.4817 
L 1130.944002 162.9273 
L 1134.697407 164.5674 
L 1136.57411 162.9273 
L 1138.450812 160.779 
L 1140.327515 162.396 
L 1142.204218 162.2574 
L 1144.08092 161.3103 
L 1145.957623 163.4586 
L 1147.834325 158.3997 
L 1149.711028 163.1814 
L 1151.587731 160.4325 
L 1153.464433 159.2082 
L 1155.341136 162.6039 
L 1157.217839 159.3006 
L 1159.094541 156.5055 
L 1160.971244 161.3796 
L 1162.847947 165.2373 
L 1164.724649 157.4757 
L 1166.601352 157.314 
L 1168.478055 157.9839 
L 1170.354757 155.4198 
L 1172.23146 153.4332 
L 1174.108163 153.9183 
L 1175.984865 152.232 
L 1177.861568 151.3311 
L 1179.738271 151.77 
L 1181.614973 146.2722 
L 1183.491676 147.4734 
L 1185.368379 145.533 
L 1187.245081 145.4868 
L 1189.121784 145.8333 
L 1190.998487 142.6917 
L 1192.875189 141.9756 
L 1196.628594 138.834 
L 1198.505297 142.8765 
L 1200.382 139.758 
L 1202.258702 139.6194 
L 1204.135405 138.0948 
L 1206.012108 135.2766 
L 1207.88881 137.5173 
L 1209.765513 137.0553 
L 1211.642216 144.9324 
L 1213.518918 136.293 
L 1215.395621 135.4845 
L 1217.272324 134.3295 
L 1219.149026 133.9368 
L 1221.025729 137.1015 
L 1222.902432 133.8675 
L 1224.779134 134.3064 
L 1226.655837 131.2341 
L 1228.53254 131.6961 
L 1230.409242 132.4584 
L 1232.285945 129.5478 
L 1234.162648 129.6402 
L 1236.03935 131.9733 
L 1237.916053 130.98 
L 1239.792756 128.3235 
L 1241.669458 129.7326 
L 1243.546161 128.1849 
L 1245.422863 129.6864 
L 1247.299566 128.1849 
L 1249.176269 127.4226 
L 1251.052971 128.3697 
L 1252.929674 127.6998 
L 1254.806377 126.591 
L 1256.683079 126.6603 
L 1258.559782 128.1387 
L 1260.436485 126.8451 
L 1262.313187 125.2974 
L 1266.066593 126.3831 
L 1267.943295 122.4099 
L 1269.819998 123.7728 
L 1271.696701 125.8749 
L 1273.573403 122.0634 
L 1277.326809 121.74 
L 1279.203511 120.354 
L 1281.080214 120.5157 
L 1281.080214 120.5157 
" style="fill:none;stroke:#ff7f0e;stroke-linecap:square;stroke-width:1.5;"/>
   </g>
   <g id="patch_15">
    <path d="M 967.764706 320.4 
L 967.764706 43.2 
" style="fill:none;stroke:#000000;stroke-linecap:square;stroke-linejoin:miter;stroke-width:0.8;"/>
   </g>
   <g id="patch_16">
    <path d="M 1296 320.4 
L 1296 43.2 
" style="fill:none;stroke:#000000;stroke-linecap:square;stroke-linejoin:miter;stroke-width:0.8;"/>
   </g>
   <g id="patch_17">
    <path d="M 967.764706 320.4 
L 1296 320.4 
" style="fill:none;stroke:#000000;stroke-linecap:square;stroke-linejoin:miter;stroke-width:0.8;"/>
   </g>
   <g id="patch_18">
    <path d="M 967.764706 43.2 
L 1296 43.2 
" style="fill:none;stroke:#000000;stroke-linecap:square;stroke-linejoin:miter;stroke-width:0.8;"/>
   </g>
   <g id="legend_3">
    <g id="patch_19">
     <path d="M 1185.125 80.55625 
L 1289 80.55625 
Q 1291 80.55625 1291 78.55625 
L 1291 50.2 
Q 1291 48.2 1289 48.2 
L 1185.125 48.2 
Q 1183.125 48.2 1183.125 50.2 
L 1183.125 78.55625 
Q 1183.125 80.55625 1185.125 80.55625 
z
" style="fill:#ffffff;opacity:0.8;stroke:#cccccc;stroke-linejoin:miter;"/>
    </g>
    <g id="line2d_59">
     <path d="M 1187.125 56.298437 
L 1207.125 56.298437 
" style="fill:none;stroke:#1f77b4;stroke-linecap:square;stroke-width:1.5;"/>
    </g>
    <g id="line2d_60"/>
    <g id="text_54">
     <!-- Train loss -->
     <g transform="translate(1215.125 59.798437)scale(0.1 -0.1)">
      <use xlink:href="#DejaVuSans-54"/>
      <use x="46.333984" xlink:href="#DejaVuSans-72"/>
      <use x="87.447266" xlink:href="#DejaVuSans-61"/>
      <use x="148.726562" xlink:href="#DejaVuSans-69"/>
      <use x="176.509766" xlink:href="#DejaVuSans-6e"/>
      <use x="239.888672" xlink:href="#DejaVuSans-20"/>
      <use x="271.675781" xlink:href="#DejaVuSans-6c"/>
      <use x="299.458984" xlink:href="#DejaVuSans-6f"/>
      <use x="360.640625" xlink:href="#DejaVuSans-73"/>
      <use x="412.740234" xlink:href="#DejaVuSans-73"/>
     </g>
    </g>
    <g id="line2d_61">
     <path d="M 1187.125 70.976562 
L 1207.125 70.976562 
" style="fill:none;stroke:#ff7f0e;stroke-linecap:square;stroke-width:1.5;"/>
    </g>
    <g id="line2d_62"/>
    <g id="text_55">
     <!-- Validation loss -->
     <g transform="translate(1215.125 74.476562)scale(0.1 -0.1)">
      <use xlink:href="#DejaVuSans-56"/>
      <use x="60.658203" xlink:href="#DejaVuSans-61"/>
      <use x="121.9375" xlink:href="#DejaVuSans-6c"/>
      <use x="149.720703" xlink:href="#DejaVuSans-69"/>
      <use x="177.503906" xlink:href="#DejaVuSans-64"/>
      <use x="240.980469" xlink:href="#DejaVuSans-61"/>
      <use x="302.259766" xlink:href="#DejaVuSans-74"/>
      <use x="341.46875" xlink:href="#DejaVuSans-69"/>
      <use x="369.251953" xlink:href="#DejaVuSans-6f"/>
      <use x="430.433594" xlink:href="#DejaVuSans-6e"/>
      <use x="493.8125" xlink:href="#DejaVuSans-20"/>
      <use x="525.599609" xlink:href="#DejaVuSans-6c"/>
      <use x="553.382812" xlink:href="#DejaVuSans-6f"/>
      <use x="614.564453" xlink:href="#DejaVuSans-73"/>
      <use x="666.664062" xlink:href="#DejaVuSans-73"/>
     </g>
    </g>
   </g>
  </g>
 </g>
 <defs>
  <clipPath id="p4c9d43700c">
   <rect height="277.2" width="328.235294" x="180" y="43.2"/>
  </clipPath>
  <clipPath id="pfba5a2aba2">
   <rect height="277.2" width="328.235294" x="573.882353" y="43.2"/>
  </clipPath>
  <clipPath id="p5eb5ef2c75">
   <rect height="277.2" width="328.235294" x="967.764706" y="43.2"/>
  </clipPath>
 </defs>
</svg>
