<?xml version="1.0" encoding="utf-8" standalone="no"?>
<!DOCTYPE svg PUBLIC "-//W3C//DTD SVG 1.1//EN"
  "http://www.w3.org/Graphics/SVG/1.1/DTD/svg11.dtd">
<svg height="345.6pt" version="1.1" viewBox="0 0 460.8 345.6" width="460.8pt" xmlns="http://www.w3.org/2000/svg" xmlns:xlink="http://www.w3.org/1999/xlink">
 <metadata>
  <rdf:RDF xmlns:cc="http://creativecommons.org/ns#" xmlns:dc="http://purl.org/dc/elements/1.1/" xmlns:rdf="http://www.w3.org/1999/02/22-rdf-syntax-ns#">
   <cc:Work>
    <dc:type rdf:resource="http://purl.org/dc/dcmitype/StillImage"/>
    <dc:date>2021-07-16T22:29:17.565832</dc:date>
    <dc:format>image/svg+xml</dc:format>
    <dc:creator>
     <cc:Agent>
      <dc:title>Matplotlib v3.4.2, https://matplotlib.org/</dc:title>
     </cc:Agent>
    </dc:creator>
   </cc:Work>
  </rdf:RDF>
 </metadata>
 <defs>
  <style type="text/css">*{stroke-linecap:butt;stroke-linejoin:round;}</style>
 </defs>
 <g id="figure_1">
  <g id="patch_1">
   <path d="M 0 345.6 
L 460.8 345.6 
L 460.8 0 
L 0 0 
z
" style="fill:#ffffff;"/>
  </g>
  <g id="axes_1">
   <g id="patch_2">
    <path d="M 57.6 307.584 
L 414.72 307.584 
L 414.72 41.472 
L 57.6 41.472 
z
" style="fill:#ffffff;"/>
   </g>
   <g id="matplotlib.axis_1">
    <g id="xtick_1">
     <g id="line2d_1">
      <defs>
       <path d="M 0 0 
L 0 3.5 
" id="mf16adc9e72" style="stroke:#000000;stroke-width:0.8;"/>
      </defs>
      <g>
       <use style="stroke:#000000;stroke-width:0.8;" x="73.019057" xlink:href="#mf16adc9e72" y="307.584"/>
      </g>
     </g>
     <g id="text_1">
      <!-- 0 -->
      <g transform="translate(69.837807 322.182437)scale(0.1 -0.1)">
       <defs>
        <path d="M 2034 4250 
Q 1547 4250 1301 3770 
Q 1056 3291 1056 2328 
Q 1056 1369 1301 889 
Q 1547 409 2034 409 
Q 2525 409 2770 889 
Q 3016 1369 3016 2328 
Q 3016 3291 2770 3770 
Q 2525 4250 2034 4250 
z
M 2034 4750 
Q 2819 4750 3233 4129 
Q 3647 3509 3647 2328 
Q 3647 1150 3233 529 
Q 2819 -91 2034 -91 
Q 1250 -91 836 529 
Q 422 1150 422 2328 
Q 422 3509 836 4129 
Q 1250 4750 2034 4750 
z
" id="DejaVuSans-30" transform="scale(0.015625)"/>
       </defs>
       <use xlink:href="#DejaVuSans-30"/>
      </g>
     </g>
    </g>
    <g id="xtick_2">
     <g id="line2d_2">
      <g>
       <use style="stroke:#000000;stroke-width:0.8;" x="113.702584" xlink:href="#mf16adc9e72" y="307.584"/>
      </g>
     </g>
     <g id="text_2">
      <!-- 50 -->
      <g transform="translate(107.340084 322.182437)scale(0.1 -0.1)">
       <defs>
        <path d="M 691 4666 
L 3169 4666 
L 3169 4134 
L 1269 4134 
L 1269 2991 
Q 1406 3038 1543 3061 
Q 1681 3084 1819 3084 
Q 2600 3084 3056 2656 
Q 3513 2228 3513 1497 
Q 3513 744 3044 326 
Q 2575 -91 1722 -91 
Q 1428 -91 1123 -41 
Q 819 9 494 109 
L 494 744 
Q 775 591 1075 516 
Q 1375 441 1709 441 
Q 2250 441 2565 725 
Q 2881 1009 2881 1497 
Q 2881 1984 2565 2268 
Q 2250 2553 1709 2553 
Q 1456 2553 1204 2497 
Q 953 2441 691 2322 
L 691 4666 
z
" id="DejaVuSans-35" transform="scale(0.015625)"/>
       </defs>
       <use xlink:href="#DejaVuSans-35"/>
       <use x="63.623047" xlink:href="#DejaVuSans-30"/>
      </g>
     </g>
    </g>
    <g id="xtick_3">
     <g id="line2d_3">
      <g>
       <use style="stroke:#000000;stroke-width:0.8;" x="154.386111" xlink:href="#mf16adc9e72" y="307.584"/>
      </g>
     </g>
     <g id="text_3">
      <!-- 100 -->
      <g transform="translate(144.842361 322.182437)scale(0.1 -0.1)">
       <defs>
        <path d="M 794 531 
L 1825 531 
L 1825 4091 
L 703 3866 
L 703 4441 
L 1819 4666 
L 2450 4666 
L 2450 531 
L 3481 531 
L 3481 0 
L 794 0 
L 794 531 
z
" id="DejaVuSans-31" transform="scale(0.015625)"/>
       </defs>
       <use xlink:href="#DejaVuSans-31"/>
       <use x="63.623047" xlink:href="#DejaVuSans-30"/>
       <use x="127.246094" xlink:href="#DejaVuSans-30"/>
      </g>
     </g>
    </g>
    <g id="xtick_4">
     <g id="line2d_4">
      <g>
       <use style="stroke:#000000;stroke-width:0.8;" x="195.069638" xlink:href="#mf16adc9e72" y="307.584"/>
      </g>
     </g>
     <g id="text_4">
      <!-- 150 -->
      <g transform="translate(185.525888 322.182437)scale(0.1 -0.1)">
       <use xlink:href="#DejaVuSans-31"/>
       <use x="63.623047" xlink:href="#DejaVuSans-35"/>
       <use x="127.246094" xlink:href="#DejaVuSans-30"/>
      </g>
     </g>
    </g>
    <g id="xtick_5">
     <g id="line2d_5">
      <g>
       <use style="stroke:#000000;stroke-width:0.8;" x="235.753165" xlink:href="#mf16adc9e72" y="307.584"/>
      </g>
     </g>
     <g id="text_5">
      <!-- 200 -->
      <g transform="translate(226.209415 322.182437)scale(0.1 -0.1)">
       <defs>
        <path d="M 1228 531 
L 3431 531 
L 3431 0 
L 469 0 
L 469 531 
Q 828 903 1448 1529 
Q 2069 2156 2228 2338 
Q 2531 2678 2651 2914 
Q 2772 3150 2772 3378 
Q 2772 3750 2511 3984 
Q 2250 4219 1831 4219 
Q 1534 4219 1204 4116 
Q 875 4013 500 3803 
L 500 4441 
Q 881 4594 1212 4672 
Q 1544 4750 1819 4750 
Q 2544 4750 2975 4387 
Q 3406 4025 3406 3419 
Q 3406 3131 3298 2873 
Q 3191 2616 2906 2266 
Q 2828 2175 2409 1742 
Q 1991 1309 1228 531 
z
" id="DejaVuSans-32" transform="scale(0.015625)"/>
       </defs>
       <use xlink:href="#DejaVuSans-32"/>
       <use x="63.623047" xlink:href="#DejaVuSans-30"/>
       <use x="127.246094" xlink:href="#DejaVuSans-30"/>
      </g>
     </g>
    </g>
    <g id="xtick_6">
     <g id="line2d_6">
      <g>
       <use style="stroke:#000000;stroke-width:0.8;" x="276.436692" xlink:href="#mf16adc9e72" y="307.584"/>
      </g>
     </g>
     <g id="text_6">
      <!-- 250 -->
      <g transform="translate(266.892942 322.182437)scale(0.1 -0.1)">
       <use xlink:href="#DejaVuSans-32"/>
       <use x="63.623047" xlink:href="#DejaVuSans-35"/>
       <use x="127.246094" xlink:href="#DejaVuSans-30"/>
      </g>
     </g>
    </g>
    <g id="xtick_7">
     <g id="line2d_7">
      <g>
       <use style="stroke:#000000;stroke-width:0.8;" x="317.120219" xlink:href="#mf16adc9e72" y="307.584"/>
      </g>
     </g>
     <g id="text_7">
      <!-- 300 -->
      <g transform="translate(307.576469 322.182437)scale(0.1 -0.1)">
       <defs>
        <path d="M 2597 2516 
Q 3050 2419 3304 2112 
Q 3559 1806 3559 1356 
Q 3559 666 3084 287 
Q 2609 -91 1734 -91 
Q 1441 -91 1130 -33 
Q 819 25 488 141 
L 488 750 
Q 750 597 1062 519 
Q 1375 441 1716 441 
Q 2309 441 2620 675 
Q 2931 909 2931 1356 
Q 2931 1769 2642 2001 
Q 2353 2234 1838 2234 
L 1294 2234 
L 1294 2753 
L 1863 2753 
Q 2328 2753 2575 2939 
Q 2822 3125 2822 3475 
Q 2822 3834 2567 4026 
Q 2313 4219 1838 4219 
Q 1578 4219 1281 4162 
Q 984 4106 628 3988 
L 628 4550 
Q 988 4650 1302 4700 
Q 1616 4750 1894 4750 
Q 2613 4750 3031 4423 
Q 3450 4097 3450 3541 
Q 3450 3153 3228 2886 
Q 3006 2619 2597 2516 
z
" id="DejaVuSans-33" transform="scale(0.015625)"/>
       </defs>
       <use xlink:href="#DejaVuSans-33"/>
       <use x="63.623047" xlink:href="#DejaVuSans-30"/>
       <use x="127.246094" xlink:href="#DejaVuSans-30"/>
      </g>
     </g>
    </g>
    <g id="xtick_8">
     <g id="line2d_8">
      <g>
       <use style="stroke:#000000;stroke-width:0.8;" x="357.803746" xlink:href="#mf16adc9e72" y="307.584"/>
      </g>
     </g>
     <g id="text_8">
      <!-- 350 -->
      <g transform="translate(348.259996 322.182437)scale(0.1 -0.1)">
       <use xlink:href="#DejaVuSans-33"/>
       <use x="63.623047" xlink:href="#DejaVuSans-35"/>
       <use x="127.246094" xlink:href="#DejaVuSans-30"/>
      </g>
     </g>
    </g>
    <g id="xtick_9">
     <g id="line2d_9">
      <g>
       <use style="stroke:#000000;stroke-width:0.8;" x="398.487273" xlink:href="#mf16adc9e72" y="307.584"/>
      </g>
     </g>
     <g id="text_9">
      <!-- 400 -->
      <g transform="translate(388.943523 322.182437)scale(0.1 -0.1)">
       <defs>
        <path d="M 2419 4116 
L 825 1625 
L 2419 1625 
L 2419 4116 
z
M 2253 4666 
L 3047 4666 
L 3047 1625 
L 3713 1625 
L 3713 1100 
L 3047 1100 
L 3047 0 
L 2419 0 
L 2419 1100 
L 313 1100 
L 313 1709 
L 2253 4666 
z
" id="DejaVuSans-34" transform="scale(0.015625)"/>
       </defs>
       <use xlink:href="#DejaVuSans-34"/>
       <use x="63.623047" xlink:href="#DejaVuSans-30"/>
       <use x="127.246094" xlink:href="#DejaVuSans-30"/>
      </g>
     </g>
    </g>
    <g id="text_10">
     <!-- Epoch -->
     <g transform="translate(213.193594 339.659781)scale(0.15 -0.15)">
      <defs>
       <path d="M 628 4666 
L 3578 4666 
L 3578 4134 
L 1259 4134 
L 1259 2753 
L 3481 2753 
L 3481 2222 
L 1259 2222 
L 1259 531 
L 3634 531 
L 3634 0 
L 628 0 
L 628 4666 
z
" id="DejaVuSans-45" transform="scale(0.015625)"/>
       <path d="M 1159 525 
L 1159 -1331 
L 581 -1331 
L 581 3500 
L 1159 3500 
L 1159 2969 
Q 1341 3281 1617 3432 
Q 1894 3584 2278 3584 
Q 2916 3584 3314 3078 
Q 3713 2572 3713 1747 
Q 3713 922 3314 415 
Q 2916 -91 2278 -91 
Q 1894 -91 1617 61 
Q 1341 213 1159 525 
z
M 3116 1747 
Q 3116 2381 2855 2742 
Q 2594 3103 2138 3103 
Q 1681 3103 1420 2742 
Q 1159 2381 1159 1747 
Q 1159 1113 1420 752 
Q 1681 391 2138 391 
Q 2594 391 2855 752 
Q 3116 1113 3116 1747 
z
" id="DejaVuSans-70" transform="scale(0.015625)"/>
       <path d="M 1959 3097 
Q 1497 3097 1228 2736 
Q 959 2375 959 1747 
Q 959 1119 1226 758 
Q 1494 397 1959 397 
Q 2419 397 2687 759 
Q 2956 1122 2956 1747 
Q 2956 2369 2687 2733 
Q 2419 3097 1959 3097 
z
M 1959 3584 
Q 2709 3584 3137 3096 
Q 3566 2609 3566 1747 
Q 3566 888 3137 398 
Q 2709 -91 1959 -91 
Q 1206 -91 779 398 
Q 353 888 353 1747 
Q 353 2609 779 3096 
Q 1206 3584 1959 3584 
z
" id="DejaVuSans-6f" transform="scale(0.015625)"/>
       <path d="M 3122 3366 
L 3122 2828 
Q 2878 2963 2633 3030 
Q 2388 3097 2138 3097 
Q 1578 3097 1268 2742 
Q 959 2388 959 1747 
Q 959 1106 1268 751 
Q 1578 397 2138 397 
Q 2388 397 2633 464 
Q 2878 531 3122 666 
L 3122 134 
Q 2881 22 2623 -34 
Q 2366 -91 2075 -91 
Q 1284 -91 818 406 
Q 353 903 353 1747 
Q 353 2603 823 3093 
Q 1294 3584 2113 3584 
Q 2378 3584 2631 3529 
Q 2884 3475 3122 3366 
z
" id="DejaVuSans-63" transform="scale(0.015625)"/>
       <path d="M 3513 2113 
L 3513 0 
L 2938 0 
L 2938 2094 
Q 2938 2591 2744 2837 
Q 2550 3084 2163 3084 
Q 1697 3084 1428 2787 
Q 1159 2491 1159 1978 
L 1159 0 
L 581 0 
L 581 4863 
L 1159 4863 
L 1159 2956 
Q 1366 3272 1645 3428 
Q 1925 3584 2291 3584 
Q 2894 3584 3203 3211 
Q 3513 2838 3513 2113 
z
" id="DejaVuSans-68" transform="scale(0.015625)"/>
      </defs>
      <use xlink:href="#DejaVuSans-45"/>
      <use x="63.183594" xlink:href="#DejaVuSans-70"/>
      <use x="126.660156" xlink:href="#DejaVuSans-6f"/>
      <use x="187.841797" xlink:href="#DejaVuSans-63"/>
      <use x="242.822266" xlink:href="#DejaVuSans-68"/>
     </g>
    </g>
   </g>
   <g id="matplotlib.axis_2">
    <g id="ytick_1">
     <g id="line2d_10">
      <defs>
       <path d="M 0 0 
L -3.5 0 
" id="m83d46c07d6" style="stroke:#000000;stroke-width:0.8;"/>
      </defs>
      <g>
       <use style="stroke:#000000;stroke-width:0.8;" x="57.6" xlink:href="#m83d46c07d6" y="303.422101"/>
      </g>
     </g>
     <g id="text_11">
      <!-- −1200 -->
      <g transform="translate(16.770313 307.221319)scale(0.1 -0.1)">
       <defs>
        <path d="M 678 2272 
L 4684 2272 
L 4684 1741 
L 678 1741 
L 678 2272 
z
" id="DejaVuSans-2212" transform="scale(0.015625)"/>
       </defs>
       <use xlink:href="#DejaVuSans-2212"/>
       <use x="83.789062" xlink:href="#DejaVuSans-31"/>
       <use x="147.412109" xlink:href="#DejaVuSans-32"/>
       <use x="211.035156" xlink:href="#DejaVuSans-30"/>
       <use x="274.658203" xlink:href="#DejaVuSans-30"/>
      </g>
     </g>
    </g>
    <g id="ytick_2">
     <g id="line2d_11">
      <g>
       <use style="stroke:#000000;stroke-width:0.8;" x="57.6" xlink:href="#m83d46c07d6" y="260.888792"/>
      </g>
     </g>
     <g id="text_12">
      <!-- −1000 -->
      <g transform="translate(16.770313 264.688011)scale(0.1 -0.1)">
       <use xlink:href="#DejaVuSans-2212"/>
       <use x="83.789062" xlink:href="#DejaVuSans-31"/>
       <use x="147.412109" xlink:href="#DejaVuSans-30"/>
       <use x="211.035156" xlink:href="#DejaVuSans-30"/>
       <use x="274.658203" xlink:href="#DejaVuSans-30"/>
      </g>
     </g>
    </g>
    <g id="ytick_3">
     <g id="line2d_12">
      <g>
       <use style="stroke:#000000;stroke-width:0.8;" x="57.6" xlink:href="#m83d46c07d6" y="218.355483"/>
      </g>
     </g>
     <g id="text_13">
      <!-- −800 -->
      <g transform="translate(23.132812 222.154702)scale(0.1 -0.1)">
       <defs>
        <path d="M 2034 2216 
Q 1584 2216 1326 1975 
Q 1069 1734 1069 1313 
Q 1069 891 1326 650 
Q 1584 409 2034 409 
Q 2484 409 2743 651 
Q 3003 894 3003 1313 
Q 3003 1734 2745 1975 
Q 2488 2216 2034 2216 
z
M 1403 2484 
Q 997 2584 770 2862 
Q 544 3141 544 3541 
Q 544 4100 942 4425 
Q 1341 4750 2034 4750 
Q 2731 4750 3128 4425 
Q 3525 4100 3525 3541 
Q 3525 3141 3298 2862 
Q 3072 2584 2669 2484 
Q 3125 2378 3379 2068 
Q 3634 1759 3634 1313 
Q 3634 634 3220 271 
Q 2806 -91 2034 -91 
Q 1263 -91 848 271 
Q 434 634 434 1313 
Q 434 1759 690 2068 
Q 947 2378 1403 2484 
z
M 1172 3481 
Q 1172 3119 1398 2916 
Q 1625 2713 2034 2713 
Q 2441 2713 2670 2916 
Q 2900 3119 2900 3481 
Q 2900 3844 2670 4047 
Q 2441 4250 2034 4250 
Q 1625 4250 1398 4047 
Q 1172 3844 1172 3481 
z
" id="DejaVuSans-38" transform="scale(0.015625)"/>
       </defs>
       <use xlink:href="#DejaVuSans-2212"/>
       <use x="83.789062" xlink:href="#DejaVuSans-38"/>
       <use x="147.412109" xlink:href="#DejaVuSans-30"/>
       <use x="211.035156" xlink:href="#DejaVuSans-30"/>
      </g>
     </g>
    </g>
    <g id="ytick_4">
     <g id="line2d_13">
      <g>
       <use style="stroke:#000000;stroke-width:0.8;" x="57.6" xlink:href="#m83d46c07d6" y="175.822174"/>
      </g>
     </g>
     <g id="text_14">
      <!-- −600 -->
      <g transform="translate(23.132812 179.621393)scale(0.1 -0.1)">
       <defs>
        <path d="M 2113 2584 
Q 1688 2584 1439 2293 
Q 1191 2003 1191 1497 
Q 1191 994 1439 701 
Q 1688 409 2113 409 
Q 2538 409 2786 701 
Q 3034 994 3034 1497 
Q 3034 2003 2786 2293 
Q 2538 2584 2113 2584 
z
M 3366 4563 
L 3366 3988 
Q 3128 4100 2886 4159 
Q 2644 4219 2406 4219 
Q 1781 4219 1451 3797 
Q 1122 3375 1075 2522 
Q 1259 2794 1537 2939 
Q 1816 3084 2150 3084 
Q 2853 3084 3261 2657 
Q 3669 2231 3669 1497 
Q 3669 778 3244 343 
Q 2819 -91 2113 -91 
Q 1303 -91 875 529 
Q 447 1150 447 2328 
Q 447 3434 972 4092 
Q 1497 4750 2381 4750 
Q 2619 4750 2861 4703 
Q 3103 4656 3366 4563 
z
" id="DejaVuSans-36" transform="scale(0.015625)"/>
       </defs>
       <use xlink:href="#DejaVuSans-2212"/>
       <use x="83.789062" xlink:href="#DejaVuSans-36"/>
       <use x="147.412109" xlink:href="#DejaVuSans-30"/>
       <use x="211.035156" xlink:href="#DejaVuSans-30"/>
      </g>
     </g>
    </g>
    <g id="ytick_5">
     <g id="line2d_14">
      <g>
       <use style="stroke:#000000;stroke-width:0.8;" x="57.6" xlink:href="#m83d46c07d6" y="133.288865"/>
      </g>
     </g>
     <g id="text_15">
      <!-- −400 -->
      <g transform="translate(23.132812 137.088084)scale(0.1 -0.1)">
       <use xlink:href="#DejaVuSans-2212"/>
       <use x="83.789062" xlink:href="#DejaVuSans-34"/>
       <use x="147.412109" xlink:href="#DejaVuSans-30"/>
       <use x="211.035156" xlink:href="#DejaVuSans-30"/>
      </g>
     </g>
    </g>
    <g id="ytick_6">
     <g id="line2d_15">
      <g>
       <use style="stroke:#000000;stroke-width:0.8;" x="57.6" xlink:href="#m83d46c07d6" y="90.755556"/>
      </g>
     </g>
     <g id="text_16">
      <!-- −200 -->
      <g transform="translate(23.132812 94.554775)scale(0.1 -0.1)">
       <use xlink:href="#DejaVuSans-2212"/>
       <use x="83.789062" xlink:href="#DejaVuSans-32"/>
       <use x="147.412109" xlink:href="#DejaVuSans-30"/>
       <use x="211.035156" xlink:href="#DejaVuSans-30"/>
      </g>
     </g>
    </g>
    <g id="ytick_7">
     <g id="line2d_16">
      <g>
       <use style="stroke:#000000;stroke-width:0.8;" x="57.6" xlink:href="#m83d46c07d6" y="48.222248"/>
      </g>
     </g>
     <g id="text_17">
      <!-- 0 -->
      <g transform="translate(44.2375 52.021466)scale(0.1 -0.1)">
       <use xlink:href="#DejaVuSans-30"/>
      </g>
     </g>
    </g>
    <g id="text_18">
     <!-- Loss -->
     <g transform="translate(9.650781 190.978781)rotate(-90)scale(0.15 -0.15)">
      <defs>
       <path d="M 628 4666 
L 1259 4666 
L 1259 531 
L 3531 531 
L 3531 0 
L 628 0 
L 628 4666 
z
" id="DejaVuSans-4c" transform="scale(0.015625)"/>
       <path d="M 2834 3397 
L 2834 2853 
Q 2591 2978 2328 3040 
Q 2066 3103 1784 3103 
Q 1356 3103 1142 2972 
Q 928 2841 928 2578 
Q 928 2378 1081 2264 
Q 1234 2150 1697 2047 
L 1894 2003 
Q 2506 1872 2764 1633 
Q 3022 1394 3022 966 
Q 3022 478 2636 193 
Q 2250 -91 1575 -91 
Q 1294 -91 989 -36 
Q 684 19 347 128 
L 347 722 
Q 666 556 975 473 
Q 1284 391 1588 391 
Q 1994 391 2212 530 
Q 2431 669 2431 922 
Q 2431 1156 2273 1281 
Q 2116 1406 1581 1522 
L 1381 1569 
Q 847 1681 609 1914 
Q 372 2147 372 2553 
Q 372 3047 722 3315 
Q 1072 3584 1716 3584 
Q 2034 3584 2315 3537 
Q 2597 3491 2834 3397 
z
" id="DejaVuSans-73" transform="scale(0.015625)"/>
      </defs>
      <use xlink:href="#DejaVuSans-4c"/>
      <use x="53.962891" xlink:href="#DejaVuSans-6f"/>
      <use x="115.144531" xlink:href="#DejaVuSans-73"/>
      <use x="167.244141" xlink:href="#DejaVuSans-73"/>
     </g>
    </g>
   </g>
   <g id="line2d_17">
    <path clip-path="url(#p4ad70b4d34)" d="M 73.832727 68.659085 
L 74.646398 116.649125 
L 75.460068 115.512365 
L 76.273739 140.201821 
L 77.087409 137.159423 
L 77.90108 147.283272 
L 79.528421 156.37299 
L 80.342092 141.420616 
L 81.155762 162.599318 
L 81.969433 169.889119 
L 82.783103 172.252402 
L 83.596774 176.85585 
L 84.410444 176.790428 
L 85.224115 179.148605 
L 86.037785 188.47288 
L 86.851456 185.138562 
L 87.665126 192.982517 
L 88.478797 192.31532 
L 89.292468 189.102678 
L 90.106138 193.49597 
L 90.919809 205.272061 
L 91.733479 193.387113 
L 92.54715 201.754517 
L 93.36082 215.842721 
L 94.174491 227.935368 
L 94.988161 212.983569 
L 95.801832 219.925213 
L 96.615502 201.513643 
L 97.429173 223.091125 
L 98.242843 218.138214 
L 99.056514 215.962845 
L 99.870185 221.023627 
L 100.683855 233.094437 
L 101.497526 215.516058 
L 102.311196 238.5709 
L 103.124867 222.11036 
L 103.938537 224.785435 
L 104.752208 220.60116 
L 105.565878 217.305007 
L 106.379549 233.182766 
L 107.193219 228.539469 
L 108.00689 237.9864 
L 108.82056 226.175856 
L 109.634231 218.302012 
L 110.447902 244.494815 
L 111.261572 233.932668 
L 112.075243 232.414899 
L 112.888913 230.535461 
L 113.702584 230.804909 
L 114.516254 241.940151 
L 115.329925 246.447272 
L 116.143595 249.379527 
L 116.957266 257.404291 
L 117.770936 246.988014 
L 118.584607 243.367439 
L 119.398278 252.629136 
L 120.211948 239.968589 
L 121.025619 249.358616 
L 122.65296 239.863296 
L 123.46663 247.959104 
L 124.280301 241.097566 
L 125.093971 237.869024 
L 125.907642 244.292643 
L 126.721312 238.623748 
L 127.534983 235.377722 
L 128.348653 235.667149 
L 129.162324 254.172191 
L 129.975995 231.620017 
L 130.789665 237.22541 
L 131.603336 236.542939 
L 132.417006 249.03523 
L 133.230677 241.325095 
L 134.044347 246.169781 
L 134.858018 246.645784 
L 135.671688 245.916362 
L 136.485359 236.550657 
L 137.299029 246.442085 
L 138.1127 243.273779 
L 138.92637 240.774352 
L 139.740041 240.232298 
L 140.553712 242.541865 
L 141.367382 256.509756 
L 142.181053 237.560532 
L 142.994723 256.057855 
L 143.808394 246.499309 
L 144.622064 253.229145 
L 145.435735 248.412205 
L 146.249405 246.274015 
L 147.063076 239.289477 
L 147.876746 242.79765 
L 148.690417 251.481703 
L 149.504087 252.414284 
L 150.317758 241.166899 
L 151.131429 242.791993 
L 151.945099 239.415095 
L 152.75877 256.602749 
L 153.57244 259.93474 
L 154.386111 253.625988 
L 155.199781 242.294805 
L 156.013452 252.032164 
L 156.827122 254.041637 
L 157.640793 253.459194 
L 158.454463 245.758763 
L 159.268134 241.772295 
L 160.081805 257.698779 
L 160.895475 245.058478 
L 161.709146 263.753254 
L 162.522816 258.773165 
L 163.336487 261.596037 
L 164.150157 267.449055 
L 164.963828 258.601712 
L 165.777498 259.763315 
L 166.591169 258.23594 
L 167.404839 253.086157 
L 168.21851 248.964905 
L 169.03218 240.964684 
L 169.845851 255.224289 
L 170.659522 249.117072 
L 171.473192 253.104415 
L 172.286863 258.929311 
L 173.100533 249.173085 
L 173.914204 258.471597 
L 174.727874 249.260626 
L 175.541545 260.507015 
L 176.355215 250.292373 
L 177.168886 250.369845 
L 177.982556 250.724775 
L 178.796227 258.677722 
L 179.609897 256.012193 
L 180.423568 247.668605 
L 181.237239 258.12157 
L 182.050909 254.884601 
L 182.86458 256.823668 
L 183.67825 256.578765 
L 184.491921 249.232603 
L 185.305591 255.539561 
L 186.119262 254.92797 
L 186.932932 258.531837 
L 187.746603 260.634914 
L 188.560273 260.659525 
L 189.373944 258.708681 
L 190.187614 249.716491 
L 191.001285 264.903026 
L 191.814956 251.921394 
L 192.628626 262.527468 
L 193.442297 254.104091 
L 194.255967 256.51048 
L 195.069638 256.294523 
L 195.883308 246.082905 
L 196.696979 265.125554 
L 197.510649 279.340443 
L 198.32432 257.62025 
L 199.13799 254.645486 
L 199.951661 253.587869 
L 200.765332 265.198836 
L 201.579002 257.879332 
L 202.392673 271.417358 
L 203.206343 263.154651 
L 204.020014 259.165222 
L 204.833684 248.375367 
L 205.647355 258.680377 
L 206.461025 260.463687 
L 207.274696 257.793125 
L 208.088366 255.989916 
L 208.902037 267.94846 
L 209.715707 233.696406 
L 210.529378 254.634671 
L 211.343049 259.401038 
L 212.156719 256.365094 
L 212.97039 277.460876 
L 213.78406 257.210961 
L 214.597731 250.323768 
L 215.411401 270.268437 
L 216.225072 252.994525 
L 217.038742 260.194821 
L 217.852413 249.661198 
L 218.666083 258.018516 
L 219.479754 250.893945 
L 220.293424 253.679793 
L 221.107095 249.642386 
L 222.734436 262.496641 
L 223.548107 262.117972 
L 224.361777 266.263834 
L 225.175448 267.423511 
L 225.989118 269.5539 
L 226.802789 257.737308 
L 227.616459 259.678963 
L 228.43013 245.714366 
L 229.2438 266.09225 
L 230.057471 244.734867 
L 230.871141 257.399776 
L 231.684812 252.286768 
L 232.498483 258.033806 
L 233.312153 270.962447 
L 234.125824 271.264984 
L 234.939494 261.651453 
L 235.753165 265.439525 
L 236.566835 258.530003 
L 237.380506 248.797996 
L 238.194176 257.546722 
L 239.007847 268.886107 
L 239.821517 267.63791 
L 240.635188 273.529551 
L 242.262529 258.476217 
L 243.0762 259.122356 
L 243.88987 268.31885 
L 244.703541 252.031607 
L 245.517211 254.709489 
L 246.330882 238.598094 
L 247.958223 279.997333 
L 248.771893 275.358065 
L 249.585564 255.691692 
L 250.399234 265.366889 
L 251.212905 278.653135 
L 252.026576 260.468614 
L 252.840246 271.408101 
L 253.653917 262.899458 
L 254.467587 267.955763 
L 255.281258 257.895887 
L 256.094928 258.112549 
L 256.908599 263.596342 
L 257.722269 282.118618 
L 258.53594 255.21687 
L 259.34961 258.620618 
L 260.163281 259.205952 
L 260.976951 275.191226 
L 261.790622 288.195971 
L 262.604293 272.838223 
L 263.417963 269.345456 
L 264.231634 274.332402 
L 265.045304 280.099478 
L 265.858975 275.620478 
L 266.672645 277.67385 
L 267.486316 272.951535 
L 268.299986 263.227176 
L 269.113657 280.071776 
L 269.927327 280.511068 
L 270.740998 275.334484 
L 271.554668 269.031961 
L 272.368339 269.908526 
L 273.18201 282.612635 
L 273.99568 269.244329 
L 275.623021 272.838442 
L 276.436692 284.605022 
L 278.064033 267.331948 
L 278.877703 271.541509 
L 279.691374 282.344961 
L 280.505044 270.880825 
L 281.318715 253.561914 
L 282.132386 265.41853 
L 282.946056 284.953342 
L 283.759727 274.124123 
L 284.573397 269.663434 
L 285.387068 267.865923 
L 286.200738 265.744608 
L 287.014409 269.356662 
L 287.828079 276.148646 
L 288.64175 271.41929 
L 289.45542 284.854583 
L 290.269091 253.505312 
L 291.896432 284.876973 
L 292.710103 267.630126 
L 293.523773 268.78182 
L 294.337444 273.621608 
L 295.151114 266.502589 
L 295.964785 280.227129 
L 296.778455 274.2374 
L 297.592126 281.014759 
L 298.405796 266.048759 
L 299.219467 284.100314 
L 300.033137 273.032343 
L 300.846808 282.295422 
L 301.660478 268.817755 
L 302.474149 293.462017 
L 303.28782 272.761801 
L 304.10149 272.535123 
L 304.915161 275.270949 
L 305.728831 282.190425 
L 306.542502 266.72667 
L 307.356172 276.045333 
L 308.169843 279.114173 
L 308.983513 259.743362 
L 309.797184 262.249839 
L 310.610854 294.666614 
L 311.424525 275.421509 
L 312.238195 267.574721 
L 313.051866 269.015666 
L 313.865537 279.671139 
L 314.679207 268.89608 
L 315.492878 295.200368 
L 316.306548 282.07337 
L 317.120219 282.443037 
L 317.933889 277.1628 
L 318.74756 262.831727 
L 319.56123 283.099597 
L 320.374901 267.830599 
L 321.188571 291.56552 
L 322.002242 267.971388 
L 322.815913 282.181897 
L 323.629583 263.530727 
L 324.443254 281.976244 
L 325.256924 275.139623 
L 326.070595 275.821238 
L 326.884265 261.924779 
L 327.697936 279.704109 
L 328.511606 285.137844 
L 329.325277 280.287271 
L 330.138947 271.985329 
L 330.952618 278.119929 
L 331.766288 295.488 
L 332.579959 266.822556 
L 333.39363 281.459207 
L 334.2073 261.558617 
L 335.020971 289.805165 
L 335.834641 286.333525 
L 336.648312 270.322774 
L 337.461982 287.923151 
L 338.275653 274.300825 
L 339.089323 278.420696 
L 339.902994 268.706132 
L 340.716664 272.805595 
L 341.530335 286.422023 
L 342.344005 291.105547 
L 343.157676 271.624703 
L 343.971347 265.084653 
L 344.785017 289.171527 
L 346.412358 264.685104 
L 347.226029 294.989776 
L 348.039699 273.154713 
L 348.85337 280.257074 
L 349.66704 292.246437 
L 350.480711 274.590947 
L 351.294381 264.873366 
L 352.108052 271.98984 
L 352.921722 275.150995 
L 353.735393 287.623356 
L 354.549064 281.272831 
L 355.362734 281.756489 
L 356.176405 279.859747 
L 356.990075 283.903848 
L 357.803746 284.619859 
L 358.617416 282.984649 
L 359.431087 288.917539 
L 360.244757 286.356706 
L 361.058428 284.704913 
L 361.872098 273.348182 
L 362.685769 275.424437 
L 363.49944 283.728002 
L 364.31311 277.004672 
L 365.126781 286.760298 
L 365.940451 284.700843 
L 366.754122 280.279552 
L 367.567792 281.651675 
L 368.381463 290.054707 
L 369.195133 271.574469 
L 370.008804 279.249404 
L 370.822474 272.322703 
L 371.636145 273.320539 
L 372.449815 286.957568 
L 373.263486 273.778251 
L 374.077157 277.737664 
L 374.890827 271.04282 
L 375.704498 279.120972 
L 376.518168 288.375592 
L 377.331839 274.002555 
L 378.145509 271.982429 
L 378.95918 277.129788 
L 379.77285 274.857086 
L 380.586521 276.844033 
L 381.400191 286.604335 
L 382.213862 284.067201 
L 383.027532 287.517275 
L 383.841203 284.556733 
L 384.654874 287.402321 
L 385.468544 281.951666 
L 386.282215 269.705321 
L 387.095885 270.303989 
L 387.909556 273.270111 
L 388.723226 293.82703 
L 389.536897 272.150907 
L 390.350567 286.532379 
L 391.164238 277.138732 
L 391.977908 281.684415 
L 392.791579 281.004221 
L 393.605249 284.832708 
L 394.41892 274.778155 
L 395.232591 287.231359 
L 396.046261 284.818693 
L 396.859932 276.704892 
L 397.673602 288.145882 
L 398.487273 283.133969 
L 398.487273 283.133969 
" style="fill:none;stroke:#1f77b4;stroke-linecap:square;stroke-width:1.5;"/>
   </g>
   <g id="line2d_18">
    <path clip-path="url(#p4ad70b4d34)" d="M 73.832727 116.84068 
L 74.646398 53.568 
L 75.460068 140.528992 
L 76.273739 124.6462 
L 77.087409 156.162263 
L 77.90108 151.559895 
L 78.714751 160.645162 
L 79.528421 139.187281 
L 80.342092 164.423345 
L 81.155762 174.045753 
L 81.969433 171.917366 
L 82.783103 179.626769 
L 83.596774 113.721838 
L 84.410444 177.331769 
L 85.224115 175.404567 
L 86.037785 161.742719 
L 86.851456 198.471707 
L 87.665126 186.964296 
L 89.292468 208.295626 
L 90.106138 205.581281 
L 90.919809 208.591455 
L 91.733479 208.367134 
L 92.54715 202.467954 
L 93.36082 212.299026 
L 94.174491 215.80814 
L 94.988161 214.323981 
L 95.801832 215.334449 
L 96.615502 199.707707 
L 97.429173 220.759981 
L 98.242843 221.48692 
L 99.056514 212.851784 
L 100.683855 220.544541 
L 101.497526 232.757173 
L 102.311196 221.897114 
L 103.124867 224.354797 
L 103.938537 227.249541 
L 104.752208 235.048974 
L 105.565878 210.879838 
L 106.379549 233.965738 
L 107.193219 235.410567 
L 108.00689 241.260124 
L 108.82056 234.033121 
L 109.634231 225.222353 
L 110.447902 243.50978 
L 111.261572 247.110324 
L 112.075243 234.754254 
L 112.888913 235.375459 
L 113.702584 223.837533 
L 114.516254 239.104739 
L 115.329925 240.231529 
L 116.143595 241.735436 
L 116.957266 251.7177 
L 117.770936 247.27719 
L 118.584607 233.364323 
L 119.398278 238.613045 
L 120.211948 244.721351 
L 121.025619 246.343142 
L 121.839289 243.777852 
L 122.65296 244.315808 
L 123.46663 238.125443 
L 124.280301 243.499854 
L 125.093971 247.27167 
L 125.907642 234.59356 
L 126.721312 244.178615 
L 127.534983 236.541899 
L 128.348653 253.284929 
L 129.162324 242.999252 
L 129.975995 248.937494 
L 130.789665 235.558043 
L 131.603336 250.056462 
L 132.417006 232.518387 
L 133.230677 253.678874 
L 134.044347 247.839015 
L 134.858018 244.956865 
L 135.671688 236.840412 
L 136.485359 215.842605 
L 137.299029 240.833589 
L 138.1127 250.193135 
L 138.92637 244.64683 
L 139.740041 249.822253 
L 140.553712 249.875333 
L 141.367382 252.096786 
L 142.181053 252.836075 
L 142.994723 245.414594 
L 143.808394 249.487082 
L 144.622064 262.765362 
L 145.435735 247.763629 
L 146.249405 248.14595 
L 147.063076 246.294408 
L 147.876746 245.507106 
L 148.690417 246.877612 
L 149.504087 247.529633 
L 150.317758 239.327862 
L 151.131429 260.915177 
L 151.945099 251.898154 
L 152.75877 254.634218 
L 153.57244 241.30527 
L 154.386111 231.266462 
L 155.199781 256.297213 
L 156.013452 246.004722 
L 156.827122 263.931812 
L 157.640793 245.532876 
L 158.454463 254.615306 
L 159.268134 250.980639 
L 160.081805 253.301272 
L 160.895475 248.77897 
L 161.709146 259.200721 
L 163.336487 241.753007 
L 164.150157 253.754536 
L 164.963828 250.658342 
L 165.777498 249.662825 
L 166.591169 241.987749 
L 167.404839 256.753428 
L 168.21851 247.899112 
L 169.03218 255.000445 
L 169.845851 252.585457 
L 170.659522 246.43573 
L 171.473192 260.053018 
L 172.286863 258.352231 
L 173.914204 246.201052 
L 174.727874 252.333107 
L 175.541545 254.42648 
L 176.355215 250.842719 
L 177.168886 254.29545 
L 177.982556 244.624468 
L 178.796227 242.5524 
L 179.609897 256.971941 
L 180.423568 252.0898 
L 181.237239 252.323299 
L 182.050909 253.10932 
L 182.86458 261.32235 
L 183.67825 261.322547 
L 184.491921 249.767238 
L 185.305591 262.734826 
L 186.119262 258.369689 
L 186.932932 247.746394 
L 187.746603 235.345577 
L 188.560273 254.513719 
L 189.373944 264.688668 
L 190.187614 244.437864 
L 191.001285 255.664882 
L 191.814956 255.356659 
L 192.628626 261.482025 
L 193.442297 257.212553 
L 194.255967 238.694747 
L 195.069638 267.721428 
L 195.883308 257.548842 
L 196.696979 252.795242 
L 197.510649 242.767537 
L 198.32432 248.794657 
L 199.13799 265.321499 
L 199.951661 251.180526 
L 200.765332 255.705109 
L 201.579002 252.811759 
L 202.392673 252.370516 
L 203.206343 247.486787 
L 204.020014 260.51092 
L 204.833684 258.463057 
L 205.647355 225.216678 
L 207.274696 261.949263 
L 208.088366 251.837937 
L 208.902037 255.005886 
L 209.715707 261.856407 
L 210.529378 258.788163 
L 211.343049 265.178 
L 212.156719 251.480293 
L 212.97039 267.796649 
L 213.78406 256.773599 
L 214.597731 257.783521 
L 215.411401 266.349628 
L 216.225072 256.853797 
L 217.038742 265.278087 
L 217.852413 263.942559 
L 218.666083 256.048619 
L 219.479754 257.651113 
L 220.293424 252.379542 
L 221.107095 242.461313 
L 222.734436 265.120302 
L 223.548107 257.702628 
L 224.361777 256.262994 
L 225.175448 265.62968 
L 225.989118 255.251729 
L 226.802789 261.886881 
L 227.616459 256.218603 
L 228.43013 261.511437 
L 229.2438 256.752395 
L 230.057471 264.088279 
L 230.871141 251.756372 
L 231.684812 271.463543 
L 232.498483 250.598422 
L 233.312153 268.620732 
L 234.125824 259.302185 
L 234.939494 257.859187 
L 235.753165 267.328942 
L 236.566835 250.737722 
L 237.380506 259.916175 
L 238.194176 259.909013 
L 239.007847 254.842363 
L 239.821517 264.764919 
L 240.635188 258.002814 
L 241.448859 261.799676 
L 242.262529 258.399356 
L 243.0762 261.887742 
L 243.88987 260.894179 
L 244.703541 252.384035 
L 245.517211 259.871363 
L 246.330882 271.001089 
L 247.144552 266.697874 
L 247.958223 269.049129 
L 248.771893 265.537599 
L 249.585564 265.433829 
L 250.399234 269.551932 
L 251.212905 261.114547 
L 252.026576 268.821898 
L 252.840246 260.704775 
L 253.653917 260.370777 
L 254.467587 261.886001 
L 255.281258 260.257735 
L 256.094928 263.301162 
L 256.908599 265.763741 
L 257.722269 266.51976 
L 258.53594 261.199635 
L 259.34961 262.457171 
L 260.163281 264.339152 
L 260.976951 262.598049 
L 261.790622 253.361443 
L 262.604293 274.413034 
L 263.417963 276.784139 
L 264.231634 267.112277 
L 265.045304 274.065368 
L 265.858975 271.584467 
L 266.672645 258.719204 
L 268.299986 274.35586 
L 269.113657 261.914619 
L 269.927327 262.657208 
L 270.740998 265.807198 
L 271.554668 275.251692 
L 272.368339 271.727065 
L 273.18201 259.12816 
L 273.99568 263.721393 
L 274.809351 271.3275 
L 275.623021 256.066365 
L 277.250362 274.952447 
L 278.064033 278.11006 
L 278.877703 259.260396 
L 279.691374 261.822308 
L 280.505044 271.004556 
L 281.318715 261.030162 
L 282.132386 271.258644 
L 282.946056 271.087416 
L 283.759727 276.339073 
L 284.573397 270.758342 
L 285.387068 267.806361 
L 286.200738 275.465075 
L 287.014409 261.749793 
L 287.828079 275.555728 
L 288.64175 260.348851 
L 289.45542 267.897009 
L 290.269091 266.269334 
L 291.082761 271.139071 
L 291.896432 273.456235 
L 292.710103 280.221286 
L 293.523773 270.749877 
L 294.337444 270.471428 
L 295.151114 275.725679 
L 295.964785 267.742523 
L 296.778455 272.519861 
L 297.592126 276.415738 
L 299.219467 265.879175 
L 300.033137 281.525961 
L 300.846808 264.527494 
L 301.660478 264.924148 
L 302.474149 262.658101 
L 303.28782 275.381447 
L 304.10149 276.083064 
L 304.915161 270.749426 
L 305.728831 257.51405 
L 306.542502 270.07837 
L 307.356172 275.566979 
L 308.169843 279.033469 
L 308.983513 190.037923 
L 309.797184 277.697937 
L 310.610854 278.214262 
L 311.424525 278.285158 
L 312.238195 283.384255 
L 313.051866 250.027571 
L 313.865537 270.391277 
L 314.679207 273.441246 
L 315.492878 278.346257 
L 316.306548 280.553992 
L 317.120219 268.684333 
L 317.933889 277.995804 
L 318.74756 276.767133 
L 319.56123 263.729731 
L 321.188571 287.313046 
L 322.002242 278.124846 
L 322.815913 219.810315 
L 323.629583 272.969214 
L 324.443254 274.917178 
L 325.256924 274.227484 
L 326.070595 278.666719 
L 326.884265 270.697395 
L 327.697936 277.991615 
L 328.511606 267.879808 
L 329.325277 278.085655 
L 330.138947 263.839947 
L 330.952618 276.633674 
L 331.766288 280.399651 
L 332.579959 277.061444 
L 333.39363 274.510341 
L 334.2073 250.513415 
L 335.020971 280.311209 
L 335.834641 273.962139 
L 336.648312 279.915958 
L 337.461982 275.162331 
L 338.275653 271.846132 
L 339.089323 275.903554 
L 339.902994 286.524855 
L 340.716664 277.18215 
L 341.530335 279.183337 
L 342.344005 278.474813 
L 343.157676 274.548074 
L 343.971347 268.679921 
L 344.785017 281.37993 
L 345.598688 279.25391 
L 347.226029 272.932375 
L 348.039699 278.128196 
L 348.85337 277.792891 
L 349.66704 275.902755 
L 350.480711 268.319021 
L 351.294381 263.679748 
L 352.108052 276.124266 
L 352.921722 281.062682 
L 353.735393 265.378872 
L 354.549064 266.804181 
L 355.362734 276.516027 
L 356.176405 288.731822 
L 356.990075 272.261745 
L 357.803746 262.873941 
L 358.617416 277.945782 
L 359.431087 273.364078 
L 360.244757 266.341802 
L 361.058428 274.76407 
L 361.872098 263.291182 
L 362.685769 277.980362 
L 363.49944 265.152671 
L 364.31311 273.294441 
L 365.126781 279.228761 
L 365.940451 273.44898 
L 366.754122 283.580205 
L 367.567792 276.658517 
L 368.381463 271.94003 
L 369.195133 271.830584 
L 370.008804 287.2521 
L 370.822474 276.581643 
L 371.636145 284.067841 
L 372.449815 276.226635 
L 373.263486 276.419552 
L 374.077157 276.761732 
L 374.890827 276.377175 
L 375.704498 274.953519 
L 376.518168 286.407504 
L 377.331839 263.374993 
L 378.145509 270.50151 
L 378.95918 286.864651 
L 379.77285 269.743315 
L 380.586521 273.016561 
L 381.400191 258.79959 
L 382.213862 274.729661 
L 383.027532 283.889909 
L 383.841203 284.473572 
L 384.654874 282.972757 
L 385.468544 272.680393 
L 386.282215 275.403294 
L 387.095885 270.557199 
L 387.909556 272.171468 
L 388.723226 268.187236 
L 389.536897 284.011054 
L 391.164238 265.901637 
L 391.977908 272.213709 
L 392.791579 283.896992 
L 393.605249 268.06752 
L 394.41892 265.43643 
L 395.232591 276.353534 
L 396.046261 278.13715 
L 396.859932 269.559912 
L 397.673602 286.152509 
L 398.487273 276.89778 
L 398.487273 276.89778 
" style="fill:none;stroke:#ff7f0e;stroke-linecap:square;stroke-width:1.5;"/>
   </g>
   <g id="patch_3">
    <path d="M 57.6 307.584 
L 57.6 41.472 
" style="fill:none;stroke:#000000;stroke-linecap:square;stroke-linejoin:miter;stroke-width:0.8;"/>
   </g>
   <g id="patch_4">
    <path d="M 414.72 307.584 
L 414.72 41.472 
" style="fill:none;stroke:#000000;stroke-linecap:square;stroke-linejoin:miter;stroke-width:0.8;"/>
   </g>
   <g id="patch_5">
    <path d="M 57.6 307.584 
L 414.72 307.584 
" style="fill:none;stroke:#000000;stroke-linecap:square;stroke-linejoin:miter;stroke-width:0.8;"/>
   </g>
   <g id="patch_6">
    <path d="M 57.6 41.472 
L 414.72 41.472 
" style="fill:none;stroke:#000000;stroke-linecap:square;stroke-linejoin:miter;stroke-width:0.8;"/>
   </g>
   <g id="legend_1">
    <g id="patch_7">
     <path d="M 303.845 78.82825 
L 407.72 78.82825 
Q 409.72 78.82825 409.72 76.82825 
L 409.72 48.472 
Q 409.72 46.472 407.72 46.472 
L 303.845 46.472 
Q 301.845 46.472 301.845 48.472 
L 301.845 76.82825 
Q 301.845 78.82825 303.845 78.82825 
z
" style="fill:#ffffff;opacity:0.8;stroke:#cccccc;stroke-linejoin:miter;"/>
    </g>
    <g id="line2d_19">
     <path d="M 305.845 54.570437 
L 325.845 54.570437 
" style="fill:none;stroke:#1f77b4;stroke-linecap:square;stroke-width:1.5;"/>
    </g>
    <g id="line2d_20"/>
    <g id="text_19">
     <!-- Train loss -->
     <g transform="translate(333.845 58.070437)scale(0.1 -0.1)">
      <defs>
       <path d="M -19 4666 
L 3928 4666 
L 3928 4134 
L 2272 4134 
L 2272 0 
L 1638 0 
L 1638 4134 
L -19 4134 
L -19 4666 
z
" id="DejaVuSans-54" transform="scale(0.015625)"/>
       <path d="M 2631 2963 
Q 2534 3019 2420 3045 
Q 2306 3072 2169 3072 
Q 1681 3072 1420 2755 
Q 1159 2438 1159 1844 
L 1159 0 
L 581 0 
L 581 3500 
L 1159 3500 
L 1159 2956 
Q 1341 3275 1631 3429 
Q 1922 3584 2338 3584 
Q 2397 3584 2469 3576 
Q 2541 3569 2628 3553 
L 2631 2963 
z
" id="DejaVuSans-72" transform="scale(0.015625)"/>
       <path d="M 2194 1759 
Q 1497 1759 1228 1600 
Q 959 1441 959 1056 
Q 959 750 1161 570 
Q 1363 391 1709 391 
Q 2188 391 2477 730 
Q 2766 1069 2766 1631 
L 2766 1759 
L 2194 1759 
z
M 3341 1997 
L 3341 0 
L 2766 0 
L 2766 531 
Q 2569 213 2275 61 
Q 1981 -91 1556 -91 
Q 1019 -91 701 211 
Q 384 513 384 1019 
Q 384 1609 779 1909 
Q 1175 2209 1959 2209 
L 2766 2209 
L 2766 2266 
Q 2766 2663 2505 2880 
Q 2244 3097 1772 3097 
Q 1472 3097 1187 3025 
Q 903 2953 641 2809 
L 641 3341 
Q 956 3463 1253 3523 
Q 1550 3584 1831 3584 
Q 2591 3584 2966 3190 
Q 3341 2797 3341 1997 
z
" id="DejaVuSans-61" transform="scale(0.015625)"/>
       <path d="M 603 3500 
L 1178 3500 
L 1178 0 
L 603 0 
L 603 3500 
z
M 603 4863 
L 1178 4863 
L 1178 4134 
L 603 4134 
L 603 4863 
z
" id="DejaVuSans-69" transform="scale(0.015625)"/>
       <path d="M 3513 2113 
L 3513 0 
L 2938 0 
L 2938 2094 
Q 2938 2591 2744 2837 
Q 2550 3084 2163 3084 
Q 1697 3084 1428 2787 
Q 1159 2491 1159 1978 
L 1159 0 
L 581 0 
L 581 3500 
L 1159 3500 
L 1159 2956 
Q 1366 3272 1645 3428 
Q 1925 3584 2291 3584 
Q 2894 3584 3203 3211 
Q 3513 2838 3513 2113 
z
" id="DejaVuSans-6e" transform="scale(0.015625)"/>
       <path id="DejaVuSans-20" transform="scale(0.015625)"/>
       <path d="M 603 4863 
L 1178 4863 
L 1178 0 
L 603 0 
L 603 4863 
z
" id="DejaVuSans-6c" transform="scale(0.015625)"/>
      </defs>
      <use xlink:href="#DejaVuSans-54"/>
      <use x="46.333984" xlink:href="#DejaVuSans-72"/>
      <use x="87.447266" xlink:href="#DejaVuSans-61"/>
      <use x="148.726562" xlink:href="#DejaVuSans-69"/>
      <use x="176.509766" xlink:href="#DejaVuSans-6e"/>
      <use x="239.888672" xlink:href="#DejaVuSans-20"/>
      <use x="271.675781" xlink:href="#DejaVuSans-6c"/>
      <use x="299.458984" xlink:href="#DejaVuSans-6f"/>
      <use x="360.640625" xlink:href="#DejaVuSans-73"/>
      <use x="412.740234" xlink:href="#DejaVuSans-73"/>
     </g>
    </g>
    <g id="line2d_21">
     <path d="M 305.845 69.248562 
L 325.845 69.248562 
" style="fill:none;stroke:#ff7f0e;stroke-linecap:square;stroke-width:1.5;"/>
    </g>
    <g id="line2d_22"/>
    <g id="text_20">
     <!-- Validation loss -->
     <g transform="translate(333.845 72.748562)scale(0.1 -0.1)">
      <defs>
       <path d="M 1831 0 
L 50 4666 
L 709 4666 
L 2188 738 
L 3669 4666 
L 4325 4666 
L 2547 0 
L 1831 0 
z
" id="DejaVuSans-56" transform="scale(0.015625)"/>
       <path d="M 2906 2969 
L 2906 4863 
L 3481 4863 
L 3481 0 
L 2906 0 
L 2906 525 
Q 2725 213 2448 61 
Q 2172 -91 1784 -91 
Q 1150 -91 751 415 
Q 353 922 353 1747 
Q 353 2572 751 3078 
Q 1150 3584 1784 3584 
Q 2172 3584 2448 3432 
Q 2725 3281 2906 2969 
z
M 947 1747 
Q 947 1113 1208 752 
Q 1469 391 1925 391 
Q 2381 391 2643 752 
Q 2906 1113 2906 1747 
Q 2906 2381 2643 2742 
Q 2381 3103 1925 3103 
Q 1469 3103 1208 2742 
Q 947 2381 947 1747 
z
" id="DejaVuSans-64" transform="scale(0.015625)"/>
       <path d="M 1172 4494 
L 1172 3500 
L 2356 3500 
L 2356 3053 
L 1172 3053 
L 1172 1153 
Q 1172 725 1289 603 
Q 1406 481 1766 481 
L 2356 481 
L 2356 0 
L 1766 0 
Q 1100 0 847 248 
Q 594 497 594 1153 
L 594 3053 
L 172 3053 
L 172 3500 
L 594 3500 
L 594 4494 
L 1172 4494 
z
" id="DejaVuSans-74" transform="scale(0.015625)"/>
      </defs>
      <use xlink:href="#DejaVuSans-56"/>
      <use x="60.658203" xlink:href="#DejaVuSans-61"/>
      <use x="121.9375" xlink:href="#DejaVuSans-6c"/>
      <use x="149.720703" xlink:href="#DejaVuSans-69"/>
      <use x="177.503906" xlink:href="#DejaVuSans-64"/>
      <use x="240.980469" xlink:href="#DejaVuSans-61"/>
      <use x="302.259766" xlink:href="#DejaVuSans-74"/>
      <use x="341.46875" xlink:href="#DejaVuSans-69"/>
      <use x="369.251953" xlink:href="#DejaVuSans-6f"/>
      <use x="430.433594" xlink:href="#DejaVuSans-6e"/>
      <use x="493.8125" xlink:href="#DejaVuSans-20"/>
      <use x="525.599609" xlink:href="#DejaVuSans-6c"/>
      <use x="553.382812" xlink:href="#DejaVuSans-6f"/>
      <use x="614.564453" xlink:href="#DejaVuSans-73"/>
      <use x="666.664062" xlink:href="#DejaVuSans-73"/>
     </g>
    </g>
   </g>
  </g>
 </g>
 <defs>
  <clipPath id="p4ad70b4d34">
   <rect height="266.112" width="357.12" x="57.6" y="41.472"/>
  </clipPath>
 </defs>
</svg>
