<?xml version="1.0" encoding="utf-8" standalone="no"?>
<!DOCTYPE svg PUBLIC "-//W3C//DTD SVG 1.1//EN"
  "http://www.w3.org/Graphics/SVG/1.1/DTD/svg11.dtd">
<svg height="345.6pt" version="1.1" viewBox="0 0 460.8 345.6" width="460.8pt" xmlns="http://www.w3.org/2000/svg" xmlns:xlink="http://www.w3.org/1999/xlink">
 <metadata>
  <rdf:RDF xmlns:cc="http://creativecommons.org/ns#" xmlns:dc="http://purl.org/dc/elements/1.1/" xmlns:rdf="http://www.w3.org/1999/02/22-rdf-syntax-ns#">
   <cc:Work>
    <dc:type rdf:resource="http://purl.org/dc/dcmitype/StillImage"/>
    <dc:date>2021-05-03T00:52:05.678433</dc:date>
    <dc:format>image/svg+xml</dc:format>
    <dc:creator>
     <cc:Agent>
      <dc:title>Matplotlib v3.4.1, https://matplotlib.org/</dc:title>
     </cc:Agent>
    </dc:creator>
   </cc:Work>
  </rdf:RDF>
 </metadata>
 <defs>
  <style type="text/css">*{stroke-linecap:butt;stroke-linejoin:round;}</style>
 </defs>
 <g id="figure_1">
  <g id="patch_1">
   <path d="M 0 345.6 
L 460.8 345.6 
L 460.8 0 
L 0 0 
z
" style="fill:#ffffff;"/>
  </g>
  <g id="axes_1">
   <g id="patch_2">
    <path d="M 57.6 307.584 
L 414.72 307.584 
L 414.72 41.472 
L 57.6 41.472 
z
" style="fill:#ffffff;"/>
   </g>
   <g id="matplotlib.axis_1">
    <g id="xtick_1">
     <g id="line2d_1">
      <defs>
       <path d="M 0 0 
L 0 3.5 
" id="m18acce3a17" style="stroke:#000000;stroke-width:0.8;"/>
      </defs>
      <g>
       <use style="stroke:#000000;stroke-width:0.8;" x="73.507748" xlink:href="#m18acce3a17" y="307.584"/>
      </g>
     </g>
     <g id="text_1">
      <!-- 0 -->
      <g transform="translate(70.326498 322.182437)scale(0.1 -0.1)">
       <defs>
        <path d="M 2034 4250 
Q 1547 4250 1301 3770 
Q 1056 3291 1056 2328 
Q 1056 1369 1301 889 
Q 1547 409 2034 409 
Q 2525 409 2770 889 
Q 3016 1369 3016 2328 
Q 3016 3291 2770 3770 
Q 2525 4250 2034 4250 
z
M 2034 4750 
Q 2819 4750 3233 4129 
Q 3647 3509 3647 2328 
Q 3647 1150 3233 529 
Q 2819 -91 2034 -91 
Q 1250 -91 836 529 
Q 422 1150 422 2328 
Q 422 3509 836 4129 
Q 1250 4750 2034 4750 
z
" id="DejaVuSans-30" transform="scale(0.015625)"/>
       </defs>
       <use xlink:href="#DejaVuSans-30"/>
      </g>
     </g>
    </g>
    <g id="xtick_2">
     <g id="line2d_2">
      <g>
       <use style="stroke:#000000;stroke-width:0.8;" x="138.503653" xlink:href="#m18acce3a17" y="307.584"/>
      </g>
     </g>
     <g id="text_2">
      <!-- 200 -->
      <g transform="translate(128.959903 322.182437)scale(0.1 -0.1)">
       <defs>
        <path d="M 1228 531 
L 3431 531 
L 3431 0 
L 469 0 
L 469 531 
Q 828 903 1448 1529 
Q 2069 2156 2228 2338 
Q 2531 2678 2651 2914 
Q 2772 3150 2772 3378 
Q 2772 3750 2511 3984 
Q 2250 4219 1831 4219 
Q 1534 4219 1204 4116 
Q 875 4013 500 3803 
L 500 4441 
Q 881 4594 1212 4672 
Q 1544 4750 1819 4750 
Q 2544 4750 2975 4387 
Q 3406 4025 3406 3419 
Q 3406 3131 3298 2873 
Q 3191 2616 2906 2266 
Q 2828 2175 2409 1742 
Q 1991 1309 1228 531 
z
" id="DejaVuSans-32" transform="scale(0.015625)"/>
       </defs>
       <use xlink:href="#DejaVuSans-32"/>
       <use x="63.623047" xlink:href="#DejaVuSans-30"/>
       <use x="127.246094" xlink:href="#DejaVuSans-30"/>
      </g>
     </g>
    </g>
    <g id="xtick_3">
     <g id="line2d_3">
      <g>
       <use style="stroke:#000000;stroke-width:0.8;" x="203.499558" xlink:href="#m18acce3a17" y="307.584"/>
      </g>
     </g>
     <g id="text_3">
      <!-- 400 -->
      <g transform="translate(193.955808 322.182437)scale(0.1 -0.1)">
       <defs>
        <path d="M 2419 4116 
L 825 1625 
L 2419 1625 
L 2419 4116 
z
M 2253 4666 
L 3047 4666 
L 3047 1625 
L 3713 1625 
L 3713 1100 
L 3047 1100 
L 3047 0 
L 2419 0 
L 2419 1100 
L 313 1100 
L 313 1709 
L 2253 4666 
z
" id="DejaVuSans-34" transform="scale(0.015625)"/>
       </defs>
       <use xlink:href="#DejaVuSans-34"/>
       <use x="63.623047" xlink:href="#DejaVuSans-30"/>
       <use x="127.246094" xlink:href="#DejaVuSans-30"/>
      </g>
     </g>
    </g>
    <g id="xtick_4">
     <g id="line2d_4">
      <g>
       <use style="stroke:#000000;stroke-width:0.8;" x="268.495463" xlink:href="#m18acce3a17" y="307.584"/>
      </g>
     </g>
     <g id="text_4">
      <!-- 600 -->
      <g transform="translate(258.951713 322.182437)scale(0.1 -0.1)">
       <defs>
        <path d="M 2113 2584 
Q 1688 2584 1439 2293 
Q 1191 2003 1191 1497 
Q 1191 994 1439 701 
Q 1688 409 2113 409 
Q 2538 409 2786 701 
Q 3034 994 3034 1497 
Q 3034 2003 2786 2293 
Q 2538 2584 2113 2584 
z
M 3366 4563 
L 3366 3988 
Q 3128 4100 2886 4159 
Q 2644 4219 2406 4219 
Q 1781 4219 1451 3797 
Q 1122 3375 1075 2522 
Q 1259 2794 1537 2939 
Q 1816 3084 2150 3084 
Q 2853 3084 3261 2657 
Q 3669 2231 3669 1497 
Q 3669 778 3244 343 
Q 2819 -91 2113 -91 
Q 1303 -91 875 529 
Q 447 1150 447 2328 
Q 447 3434 972 4092 
Q 1497 4750 2381 4750 
Q 2619 4750 2861 4703 
Q 3103 4656 3366 4563 
z
" id="DejaVuSans-36" transform="scale(0.015625)"/>
       </defs>
       <use xlink:href="#DejaVuSans-36"/>
       <use x="63.623047" xlink:href="#DejaVuSans-30"/>
       <use x="127.246094" xlink:href="#DejaVuSans-30"/>
      </g>
     </g>
    </g>
    <g id="xtick_5">
     <g id="line2d_5">
      <g>
       <use style="stroke:#000000;stroke-width:0.8;" x="333.491368" xlink:href="#m18acce3a17" y="307.584"/>
      </g>
     </g>
     <g id="text_5">
      <!-- 800 -->
      <g transform="translate(323.947618 322.182437)scale(0.1 -0.1)">
       <defs>
        <path d="M 2034 2216 
Q 1584 2216 1326 1975 
Q 1069 1734 1069 1313 
Q 1069 891 1326 650 
Q 1584 409 2034 409 
Q 2484 409 2743 651 
Q 3003 894 3003 1313 
Q 3003 1734 2745 1975 
Q 2488 2216 2034 2216 
z
M 1403 2484 
Q 997 2584 770 2862 
Q 544 3141 544 3541 
Q 544 4100 942 4425 
Q 1341 4750 2034 4750 
Q 2731 4750 3128 4425 
Q 3525 4100 3525 3541 
Q 3525 3141 3298 2862 
Q 3072 2584 2669 2484 
Q 3125 2378 3379 2068 
Q 3634 1759 3634 1313 
Q 3634 634 3220 271 
Q 2806 -91 2034 -91 
Q 1263 -91 848 271 
Q 434 634 434 1313 
Q 434 1759 690 2068 
Q 947 2378 1403 2484 
z
M 1172 3481 
Q 1172 3119 1398 2916 
Q 1625 2713 2034 2713 
Q 2441 2713 2670 2916 
Q 2900 3119 2900 3481 
Q 2900 3844 2670 4047 
Q 2441 4250 2034 4250 
Q 1625 4250 1398 4047 
Q 1172 3844 1172 3481 
z
" id="DejaVuSans-38" transform="scale(0.015625)"/>
       </defs>
       <use xlink:href="#DejaVuSans-38"/>
       <use x="63.623047" xlink:href="#DejaVuSans-30"/>
       <use x="127.246094" xlink:href="#DejaVuSans-30"/>
      </g>
     </g>
    </g>
    <g id="xtick_6">
     <g id="line2d_6">
      <g>
       <use style="stroke:#000000;stroke-width:0.8;" x="398.487273" xlink:href="#m18acce3a17" y="307.584"/>
      </g>
     </g>
     <g id="text_6">
      <!-- 1000 -->
      <g transform="translate(385.762273 322.182437)scale(0.1 -0.1)">
       <defs>
        <path d="M 794 531 
L 1825 531 
L 1825 4091 
L 703 3866 
L 703 4441 
L 1819 4666 
L 2450 4666 
L 2450 531 
L 3481 531 
L 3481 0 
L 794 0 
L 794 531 
z
" id="DejaVuSans-31" transform="scale(0.015625)"/>
       </defs>
       <use xlink:href="#DejaVuSans-31"/>
       <use x="63.623047" xlink:href="#DejaVuSans-30"/>
       <use x="127.246094" xlink:href="#DejaVuSans-30"/>
       <use x="190.869141" xlink:href="#DejaVuSans-30"/>
      </g>
     </g>
    </g>
    <g id="text_7">
     <!-- Epoch -->
     <g transform="translate(213.193594 339.659781)scale(0.15 -0.15)">
      <defs>
       <path d="M 628 4666 
L 3578 4666 
L 3578 4134 
L 1259 4134 
L 1259 2753 
L 3481 2753 
L 3481 2222 
L 1259 2222 
L 1259 531 
L 3634 531 
L 3634 0 
L 628 0 
L 628 4666 
z
" id="DejaVuSans-45" transform="scale(0.015625)"/>
       <path d="M 1159 525 
L 1159 -1331 
L 581 -1331 
L 581 3500 
L 1159 3500 
L 1159 2969 
Q 1341 3281 1617 3432 
Q 1894 3584 2278 3584 
Q 2916 3584 3314 3078 
Q 3713 2572 3713 1747 
Q 3713 922 3314 415 
Q 2916 -91 2278 -91 
Q 1894 -91 1617 61 
Q 1341 213 1159 525 
z
M 3116 1747 
Q 3116 2381 2855 2742 
Q 2594 3103 2138 3103 
Q 1681 3103 1420 2742 
Q 1159 2381 1159 1747 
Q 1159 1113 1420 752 
Q 1681 391 2138 391 
Q 2594 391 2855 752 
Q 3116 1113 3116 1747 
z
" id="DejaVuSans-70" transform="scale(0.015625)"/>
       <path d="M 1959 3097 
Q 1497 3097 1228 2736 
Q 959 2375 959 1747 
Q 959 1119 1226 758 
Q 1494 397 1959 397 
Q 2419 397 2687 759 
Q 2956 1122 2956 1747 
Q 2956 2369 2687 2733 
Q 2419 3097 1959 3097 
z
M 1959 3584 
Q 2709 3584 3137 3096 
Q 3566 2609 3566 1747 
Q 3566 888 3137 398 
Q 2709 -91 1959 -91 
Q 1206 -91 779 398 
Q 353 888 353 1747 
Q 353 2609 779 3096 
Q 1206 3584 1959 3584 
z
" id="DejaVuSans-6f" transform="scale(0.015625)"/>
       <path d="M 3122 3366 
L 3122 2828 
Q 2878 2963 2633 3030 
Q 2388 3097 2138 3097 
Q 1578 3097 1268 2742 
Q 959 2388 959 1747 
Q 959 1106 1268 751 
Q 1578 397 2138 397 
Q 2388 397 2633 464 
Q 2878 531 3122 666 
L 3122 134 
Q 2881 22 2623 -34 
Q 2366 -91 2075 -91 
Q 1284 -91 818 406 
Q 353 903 353 1747 
Q 353 2603 823 3093 
Q 1294 3584 2113 3584 
Q 2378 3584 2631 3529 
Q 2884 3475 3122 3366 
z
" id="DejaVuSans-63" transform="scale(0.015625)"/>
       <path d="M 3513 2113 
L 3513 0 
L 2938 0 
L 2938 2094 
Q 2938 2591 2744 2837 
Q 2550 3084 2163 3084 
Q 1697 3084 1428 2787 
Q 1159 2491 1159 1978 
L 1159 0 
L 581 0 
L 581 4863 
L 1159 4863 
L 1159 2956 
Q 1366 3272 1645 3428 
Q 1925 3584 2291 3584 
Q 2894 3584 3203 3211 
Q 3513 2838 3513 2113 
z
" id="DejaVuSans-68" transform="scale(0.015625)"/>
      </defs>
      <use xlink:href="#DejaVuSans-45"/>
      <use x="63.183594" xlink:href="#DejaVuSans-70"/>
      <use x="126.660156" xlink:href="#DejaVuSans-6f"/>
      <use x="187.841797" xlink:href="#DejaVuSans-63"/>
      <use x="242.822266" xlink:href="#DejaVuSans-68"/>
     </g>
    </g>
   </g>
   <g id="matplotlib.axis_2">
    <g id="ytick_1">
     <g id="line2d_7">
      <defs>
       <path d="M 0 0 
L -3.5 0 
" id="m879986767d" style="stroke:#000000;stroke-width:0.8;"/>
      </defs>
      <g>
       <use style="stroke:#000000;stroke-width:0.8;" x="57.6" xlink:href="#m879986767d" y="295.490691"/>
      </g>
     </g>
     <g id="text_8">
      <!-- 0 -->
      <g transform="translate(44.2375 299.28991)scale(0.1 -0.1)">
       <use xlink:href="#DejaVuSans-30"/>
      </g>
     </g>
    </g>
    <g id="ytick_2">
     <g id="line2d_8">
      <g>
       <use style="stroke:#000000;stroke-width:0.8;" x="57.6" xlink:href="#m879986767d" y="254.679942"/>
      </g>
     </g>
     <g id="text_9">
      <!-- 1 -->
      <g transform="translate(44.2375 258.479161)scale(0.1 -0.1)">
       <use xlink:href="#DejaVuSans-31"/>
      </g>
     </g>
    </g>
    <g id="ytick_3">
     <g id="line2d_9">
      <g>
       <use style="stroke:#000000;stroke-width:0.8;" x="57.6" xlink:href="#m879986767d" y="213.869194"/>
      </g>
     </g>
     <g id="text_10">
      <!-- 2 -->
      <g transform="translate(44.2375 217.668413)scale(0.1 -0.1)">
       <use xlink:href="#DejaVuSans-32"/>
      </g>
     </g>
    </g>
    <g id="ytick_4">
     <g id="line2d_10">
      <g>
       <use style="stroke:#000000;stroke-width:0.8;" x="57.6" xlink:href="#m879986767d" y="173.058445"/>
      </g>
     </g>
     <g id="text_11">
      <!-- 3 -->
      <g transform="translate(44.2375 176.857664)scale(0.1 -0.1)">
       <defs>
        <path d="M 2597 2516 
Q 3050 2419 3304 2112 
Q 3559 1806 3559 1356 
Q 3559 666 3084 287 
Q 2609 -91 1734 -91 
Q 1441 -91 1130 -33 
Q 819 25 488 141 
L 488 750 
Q 750 597 1062 519 
Q 1375 441 1716 441 
Q 2309 441 2620 675 
Q 2931 909 2931 1356 
Q 2931 1769 2642 2001 
Q 2353 2234 1838 2234 
L 1294 2234 
L 1294 2753 
L 1863 2753 
Q 2328 2753 2575 2939 
Q 2822 3125 2822 3475 
Q 2822 3834 2567 4026 
Q 2313 4219 1838 4219 
Q 1578 4219 1281 4162 
Q 984 4106 628 3988 
L 628 4550 
Q 988 4650 1302 4700 
Q 1616 4750 1894 4750 
Q 2613 4750 3031 4423 
Q 3450 4097 3450 3541 
Q 3450 3153 3228 2886 
Q 3006 2619 2597 2516 
z
" id="DejaVuSans-33" transform="scale(0.015625)"/>
       </defs>
       <use xlink:href="#DejaVuSans-33"/>
      </g>
     </g>
    </g>
    <g id="ytick_5">
     <g id="line2d_11">
      <g>
       <use style="stroke:#000000;stroke-width:0.8;" x="57.6" xlink:href="#m879986767d" y="132.247697"/>
      </g>
     </g>
     <g id="text_12">
      <!-- 4 -->
      <g transform="translate(44.2375 136.046916)scale(0.1 -0.1)">
       <use xlink:href="#DejaVuSans-34"/>
      </g>
     </g>
    </g>
    <g id="ytick_6">
     <g id="line2d_12">
      <g>
       <use style="stroke:#000000;stroke-width:0.8;" x="57.6" xlink:href="#m879986767d" y="91.436949"/>
      </g>
     </g>
     <g id="text_13">
      <!-- 5 -->
      <g transform="translate(44.2375 95.236167)scale(0.1 -0.1)">
       <defs>
        <path d="M 691 4666 
L 3169 4666 
L 3169 4134 
L 1269 4134 
L 1269 2991 
Q 1406 3038 1543 3061 
Q 1681 3084 1819 3084 
Q 2600 3084 3056 2656 
Q 3513 2228 3513 1497 
Q 3513 744 3044 326 
Q 2575 -91 1722 -91 
Q 1428 -91 1123 -41 
Q 819 9 494 109 
L 494 744 
Q 775 591 1075 516 
Q 1375 441 1709 441 
Q 2250 441 2565 725 
Q 2881 1009 2881 1497 
Q 2881 1984 2565 2268 
Q 2250 2553 1709 2553 
Q 1456 2553 1204 2497 
Q 953 2441 691 2322 
L 691 4666 
z
" id="DejaVuSans-35" transform="scale(0.015625)"/>
       </defs>
       <use xlink:href="#DejaVuSans-35"/>
      </g>
     </g>
    </g>
    <g id="ytick_7">
     <g id="line2d_13">
      <g>
       <use style="stroke:#000000;stroke-width:0.8;" x="57.6" xlink:href="#m879986767d" y="50.6262"/>
      </g>
     </g>
     <g id="text_14">
      <!-- 6 -->
      <g transform="translate(44.2375 54.425419)scale(0.1 -0.1)">
       <use xlink:href="#DejaVuSans-36"/>
      </g>
     </g>
    </g>
    <g id="text_15">
     <!-- Loss -->
     <g transform="translate(37.117969 190.978781)rotate(-90)scale(0.15 -0.15)">
      <defs>
       <path d="M 628 4666 
L 1259 4666 
L 1259 531 
L 3531 531 
L 3531 0 
L 628 0 
L 628 4666 
z
" id="DejaVuSans-4c" transform="scale(0.015625)"/>
       <path d="M 2834 3397 
L 2834 2853 
Q 2591 2978 2328 3040 
Q 2066 3103 1784 3103 
Q 1356 3103 1142 2972 
Q 928 2841 928 2578 
Q 928 2378 1081 2264 
Q 1234 2150 1697 2047 
L 1894 2003 
Q 2506 1872 2764 1633 
Q 3022 1394 3022 966 
Q 3022 478 2636 193 
Q 2250 -91 1575 -91 
Q 1294 -91 989 -36 
Q 684 19 347 128 
L 347 722 
Q 666 556 975 473 
Q 1284 391 1588 391 
Q 1994 391 2212 530 
Q 2431 669 2431 922 
Q 2431 1156 2273 1281 
Q 2116 1406 1581 1522 
L 1381 1569 
Q 847 1681 609 1914 
Q 372 2147 372 2553 
Q 372 3047 722 3315 
Q 1072 3584 1716 3584 
Q 2034 3584 2315 3537 
Q 2597 3491 2834 3397 
z
" id="DejaVuSans-73" transform="scale(0.015625)"/>
      </defs>
      <use xlink:href="#DejaVuSans-4c"/>
      <use x="53.962891" xlink:href="#DejaVuSans-6f"/>
      <use x="115.144531" xlink:href="#DejaVuSans-73"/>
      <use x="167.244141" xlink:href="#DejaVuSans-73"/>
     </g>
    </g>
   </g>
   <g id="line2d_14">
    <path clip-path="url(#p1705e7e1e8)" d="M 73.832727 200.528471 
L 74.157707 195.326169 
L 74.482686 200.036277 
L 74.807666 203.080427 
L 75.132645 203.989486 
L 75.782604 210.099153 
L 76.107584 206.060671 
L 76.432563 204.925866 
L 76.757543 214.623515 
L 77.082523 212.328792 
L 77.732482 217.795139 
L 78.057461 217.994926 
L 78.382441 221.868056 
L 78.70742 224.342055 
L 79.0324 225.53092 
L 79.357379 229.011472 
L 79.682359 231.213434 
L 80.007338 229.796443 
L 80.332318 233.431883 
L 80.657297 226.229085 
L 80.982277 231.06976 
L 81.307256 240.364644 
L 81.632236 234.276037 
L 81.957215 242.4477 
L 82.282195 239.279536 
L 82.607174 244.38463 
L 82.932154 244.558919 
L 83.257133 245.578263 
L 83.907093 248.344864 
L 84.232072 248.005713 
L 85.207011 253.42429 
L 85.53199 251.622404 
L 85.85697 253.049752 
L 86.181949 239.523103 
L 86.506929 232.117189 
L 86.831908 246.999447 
L 87.156888 252.363872 
L 87.481867 245.144045 
L 87.806847 256.264343 
L 88.131826 245.374399 
L 88.456806 256.895458 
L 88.781785 251.428109 
L 89.106765 255.789464 
L 89.431744 256.001637 
L 89.756724 255.926198 
L 90.081704 259.677038 
L 90.406683 256.279639 
L 90.731663 260.904984 
L 91.056642 259.448796 
L 91.381622 261.63308 
L 91.706601 262.847183 
L 92.031581 263.037619 
L 92.35656 264.114983 
L 92.68154 265.831642 
L 93.331499 266.743889 
L 93.656478 263.725662 
L 93.981458 264.321804 
L 94.306437 258.245073 
L 94.631417 266.049492 
L 95.281376 270.585294 
L 95.606355 264.336322 
L 95.931335 264.201823 
L 96.256314 270.871774 
L 96.581294 268.313199 
L 96.906274 267.344836 
L 97.231253 265.016868 
L 97.556233 273.974737 
L 97.881212 271.751958 
L 98.206192 272.684358 
L 98.531171 271.491762 
L 98.856151 275.182026 
L 99.18113 276.254962 
L 99.50611 275.195227 
L 99.831089 276.56137 
L 100.156069 276.679202 
L 100.481048 279.968919 
L 100.806028 278.258937 
L 101.131007 279.97983 
L 101.455987 280.33772 
L 101.780966 279.624685 
L 102.105946 281.51394 
L 102.755905 275.279596 
L 103.080885 250.774737 
L 103.405864 251.929479 
L 103.730844 253.680799 
L 104.055823 274.309574 
L 104.380803 252.980056 
L 104.705782 267.304943 
L 105.030762 269.774091 
L 105.355741 269.228306 
L 105.680721 272.646839 
L 106.0057 278.552387 
L 106.33068 266.158043 
L 106.655659 281.879471 
L 106.980639 266.358896 
L 107.305618 279.601211 
L 107.630598 278.183523 
L 107.955577 276.026188 
L 108.280557 280.654078 
L 108.605536 281.585265 
L 108.930516 279.377206 
L 109.255495 282.695551 
L 109.580475 284.604101 
L 109.905455 281.53952 
L 110.230434 285.129484 
L 110.555414 286.337249 
L 110.880393 284.761576 
L 111.205373 286.542704 
L 111.530352 287.592557 
L 111.855332 287.853503 
L 112.180311 287.410954 
L 112.505291 289.245116 
L 112.83027 289.493066 
L 113.15525 289.258944 
L 113.805209 290.751258 
L 114.130188 290.763806 
L 114.455168 290.943177 
L 114.780147 291.683279 
L 115.105127 291.91094 
L 115.430106 291.947572 
L 115.755086 292.170122 
L 116.080066 292.669969 
L 116.405045 292.964736 
L 116.730025 292.860554 
L 117.379984 293.514323 
L 118.354922 293.793168 
L 118.679902 294.047807 
L 119.004881 294.137379 
L 119.329861 294.110973 
L 120.304799 294.479574 
L 121.279738 294.659056 
L 121.929697 294.771272 
L 124.529533 295.02923 
L 126.80439 295.163623 
L 132.979001 295.30829 
L 149.227977 295.407056 
L 213.573923 295.470634 
L 398.487273 295.487996 
L 398.487273 295.487996 
" style="fill:none;stroke:#1f77b4;stroke-linecap:square;stroke-width:1.5;"/>
   </g>
   <g id="line2d_15">
    <path clip-path="url(#p1705e7e1e8)" d="M 73.832727 194.489512 
L 74.157707 200.026207 
L 74.482686 203.035465 
L 74.807666 203.775804 
L 75.132645 205.750896 
L 75.457625 209.649801 
L 75.782604 200.093996 
L 76.107584 210.429586 
L 76.432563 214.681 
L 76.757543 204.94015 
L 77.082523 206.739798 
L 77.407502 214.439982 
L 77.732482 215.505524 
L 78.057461 212.612423 
L 78.382441 214.100745 
L 78.70742 220.732779 
L 79.0324 216.883702 
L 79.357379 211.663997 
L 79.682359 217.905322 
L 80.007338 203.774306 
L 80.332318 203.214877 
L 80.982277 216.304988 
L 81.307256 201.813907 
L 81.632236 213.442678 
L 81.957215 214.058837 
L 82.282195 224.328185 
L 82.607174 218.224506 
L 82.932154 214.737347 
L 83.257133 221.883439 
L 83.582113 225.202093 
L 83.907093 212.997538 
L 84.232072 221.97224 
L 84.557052 222.200235 
L 85.207011 217.87675 
L 85.53199 212.222881 
L 85.85697 226.012971 
L 86.181949 185.943014 
L 86.506929 216.823998 
L 86.831908 233.027371 
L 87.156888 211.882864 
L 87.481867 222.63093 
L 87.806847 220.506979 
L 88.131826 227.643964 
L 88.456806 220.966159 
L 88.781785 231.735874 
L 89.431744 211.640859 
L 89.756724 216.737323 
L 90.081704 225.379628 
L 90.406683 224.929302 
L 90.731663 223.880588 
L 91.056642 233.043008 
L 91.381622 228.493703 
L 91.706601 219.253253 
L 92.031581 219.150533 
L 92.35656 215.965434 
L 93.006519 223.804281 
L 93.331499 203.963682 
L 93.656478 220.455449 
L 93.981458 199.208144 
L 94.306437 224.004967 
L 94.631417 210.361436 
L 94.956396 209.919517 
L 95.281376 217.840987 
L 95.606355 193.934189 
L 95.931335 210.746921 
L 96.256314 218.297078 
L 96.581294 193.713181 
L 96.906274 204.449172 
L 97.231253 208.757371 
L 97.556233 210.165639 
L 97.881212 215.540105 
L 98.206192 199.396595 
L 98.531171 214.476334 
L 98.856151 214.966976 
L 99.18113 207.998914 
L 99.50611 209.519992 
L 99.831089 193.724556 
L 100.156069 206.364744 
L 100.481048 206.416304 
L 100.806028 199.787587 
L 101.131007 201.529342 
L 101.455987 192.453676 
L 101.780966 200.381626 
L 102.105946 178.014938 
L 102.430925 203.093621 
L 102.755905 138.522036 
L 103.080885 204.648102 
L 103.405864 167.683386 
L 103.730844 193.342107 
L 104.055823 204.902864 
L 104.380803 187.339469 
L 104.705782 185.103798 
L 105.030762 205.741944 
L 105.355741 217.248894 
L 105.680721 207.775882 
L 106.0057 181.005767 
L 106.33068 220.788761 
L 106.655659 216.388058 
L 106.980639 215.922169 
L 107.305618 199.4505 
L 107.630598 199.651104 
L 107.955577 217.720733 
L 108.280557 222.508979 
L 108.605536 214.841877 
L 108.930516 210.409902 
L 109.255495 207.802192 
L 109.580475 202.518002 
L 109.905455 201.068703 
L 110.230434 202.341645 
L 110.555414 205.026134 
L 110.880393 208.763958 
L 111.205373 204.212109 
L 111.855332 177.51424 
L 112.180311 183.608573 
L 112.505291 194.354644 
L 112.83027 198.83739 
L 113.15525 194.49824 
L 113.805209 180.648753 
L 114.455168 177.538915 
L 116.080066 163.248229 
L 116.405045 163.137248 
L 116.730025 164.43651 
L 117.055004 162.639518 
L 117.379984 158.544835 
L 118.354922 143.83781 
L 118.679902 142.768459 
L 119.004881 143.848727 
L 119.65484 147.581122 
L 119.97982 148.269493 
L 120.304799 147.792283 
L 120.629779 146.10055 
L 121.604717 138.852633 
L 121.929697 137.862475 
L 122.254676 137.878024 
L 122.904636 138.82608 
L 123.229615 138.69597 
L 123.554595 138.085566 
L 124.204554 136.07677 
L 125.179492 132.065395 
L 126.47941 125.044159 
L 126.80439 124.460103 
L 127.779328 124.338186 
L 128.104308 123.99744 
L 128.754267 122.704999 
L 131.029124 116.55462 
L 131.354103 116.012132 
L 131.679083 115.706453 
L 132.004062 115.69215 
L 132.654021 115.974593 
L 132.979001 115.93324 
L 133.62896 115.376507 
L 134.603898 113.685484 
L 135.903817 111.722176 
L 136.553776 111.2506 
L 137.203735 111.077036 
L 137.528714 110.709084 
L 138.178673 109.595929 
L 138.828632 109.22969 
L 140.778509 107.632465 
L 141.103489 107.481844 
L 142.403407 106.183467 
L 143.053366 105.485493 
L 144.678264 104.738264 
L 145.978182 103.434458 
L 146.303161 103.388844 
L 146.628141 103.228259 
L 146.95312 102.895959 
L 147.928059 102.563814 
L 148.578018 102.295226 
L 149.552957 101.804852 
L 150.852875 100.991673 
L 154.10267 99.170579 
L 154.427649 99.116111 
L 156.377527 97.883062 
L 157.027486 97.737267 
L 157.677445 97.350809 
L 159.952301 96.589881 
L 160.60226 96.261142 
L 161.252219 96.212141 
L 162.877117 95.523624 
L 163.527076 95.303161 
L 164.177035 94.945484 
L 164.826994 94.963621 
L 166.126912 94.5153 
L 166.776871 94.630834 
L 167.75181 94.201273 
L 168.401769 93.845503 
L 169.701687 93.457878 
L 172.301523 92.641936 
L 172.626503 92.41978 
L 175.226339 91.725561 
L 175.876298 91.596794 
L 176.201278 91.60448 
L 176.851237 91.218042 
L 177.176216 91.078611 
L 178.151155 90.961967 
L 178.801114 90.6818 
L 180.101032 90.485584 
L 180.426011 90.490449 
L 182.700868 89.689278 
L 183.350827 89.669506 
L 184.000786 89.354681 
L 184.975725 89.446766 
L 185.950663 89.047718 
L 188.22552 88.265014 
L 188.875479 88.302669 
L 189.525438 88.169542 
L 190.175397 88.128268 
L 190.825356 87.806048 
L 191.475315 87.717602 
L 193.100213 87.096047 
L 195.05009 86.638209 
L 195.700049 86.540306 
L 197.974906 85.866072 
L 198.299885 85.660651 
L 198.624865 85.674702 
L 198.949844 85.81318 
L 199.274824 85.809151 
L 200.249762 85.403389 
L 200.899722 85.369859 
L 201.87466 84.98634 
L 202.524619 84.970013 
L 204.474496 84.397575 
L 210.324128 82.874162 
L 211.299066 82.664597 
L 211.949025 82.451567 
L 212.598984 82.292014 
L 213.898903 81.878799 
L 214.873841 81.675655 
L 215.5238 81.605482 
L 216.173759 81.407612 
L 216.823718 81.275789 
L 218.123636 80.813807 
L 219.098575 80.770722 
L 222.34837 79.800968 
L 223.648288 79.633397 
L 224.623227 79.363914 
L 224.948206 79.210783 
L 226.573104 79.024589 
L 227.223063 78.795796 
L 227.873022 78.72395 
L 229.17294 78.290399 
L 230.147879 78.198975 
L 231.447797 77.835344 
L 232.097756 77.825225 
L 234.047633 77.207912 
L 235.99751 76.893924 
L 236.972449 76.535819 
L 237.622408 76.542377 
L 239.572285 76.117758 
L 240.547224 75.801688 
L 241.197183 75.730211 
L 241.847142 75.613567 
L 244.771957 74.887784 
L 245.421916 74.912576 
L 248.021753 74.136742 
L 249.64665 73.969618 
L 251.271548 73.453673 
L 253.221425 73.245587 
L 253.871384 73.057875 
L 254.521343 72.920097 
L 255.171302 72.719406 
L 255.821261 72.669588 
L 257.771138 72.262502 
L 258.421097 72.190461 
L 259.071057 71.96739 
L 259.721016 71.91656 
L 260.695954 71.626897 
L 261.345913 71.555673 
L 261.995872 71.417779 
L 262.645831 71.339764 
L 263.29579 71.149794 
L 263.945749 71.100054 
L 265.245667 70.853437 
L 270.44534 69.875996 
L 271.095299 69.736039 
L 272.070238 69.711539 
L 274.670074 69.107031 
L 276.294971 68.800067 
L 282.144603 67.901284 
L 284.744439 67.384288 
L 287.019296 67.108364 
L 292.218968 66.215399 
L 293.193907 66.130923 
L 295.468763 65.723779 
L 296.118722 65.518183 
L 297.093661 65.439876 
L 297.74362 65.274757 
L 298.393579 65.234202 
L 299.693497 64.988713 
L 300.993415 64.777474 
L 307.493006 63.777732 
L 308.792924 63.575678 
L 314.317576 62.679483 
L 316.267453 62.385324 
L 317.242391 62.261558 
L 319.192269 61.911354 
L 320.492187 61.727301 
L 321.792105 61.580766 
L 328.616675 60.626269 
L 329.591613 60.496645 
L 330.891532 60.40347 
L 331.216511 60.094639 
L 331.541491 60.409912 
L 331.86647 60.248685 
L 332.19145 60.34328 
L 332.841409 60.041668 
L 333.166388 60.168899 
L 333.491368 59.055704 
L 333.816347 60.064709 
L 334.141327 59.988523 
L 334.466306 57.946927 
L 334.791286 57.317238 
L 335.116265 60.027015 
L 335.441245 60.10686 
L 335.766224 59.928158 
L 336.091204 57.399476 
L 336.416183 56.738398 
L 336.741163 57.009982 
L 337.066143 57.801015 
L 337.391122 57.066981 
L 337.716102 55.146096 
L 338.041081 54.249103 
L 338.366061 55.906031 
L 338.69104 56.93979 
L 339.01602 55.932614 
L 339.340999 54.517302 
L 339.665979 54.294153 
L 340.315938 56.364472 
L 340.640917 56.05171 
L 340.965897 55.039883 
L 341.290876 54.405912 
L 341.615856 54.275919 
L 342.265815 54.934137 
L 342.915774 54.167137 
L 343.240753 54.290923 
L 343.565733 55.057338 
L 343.890713 55.213759 
L 344.540672 54.246281 
L 345.51561 53.919507 
L 345.84059 53.568 
L 346.165569 53.578275 
L 346.815528 54.097489 
L 347.140508 54.123099 
L 347.790467 53.840441 
L 348.440426 53.952804 
L 348.765405 54.392426 
L 349.090385 54.563948 
L 349.740344 54.228611 
L 350.065324 54.013558 
L 350.390303 54.083206 
L 351.365242 55.133622 
L 351.690221 55.043016 
L 352.34018 54.458318 
L 352.66516 54.144952 
L 352.990139 54.205162 
L 353.640098 55.05874 
L 353.965078 55.460668 
L 355.914955 55.403767 
L 356.239934 55.208932 
L 356.889894 55.348597 
L 358.189812 54.68353 
L 358.839771 54.59269 
L 359.48973 54.974458 
L 360.464668 54.657687 
L 360.789648 54.734029 
L 361.114627 54.67341 
L 361.764586 54.925049 
L 362.089566 54.849641 
L 362.414545 54.651265 
L 362.739525 54.653386 
L 363.389484 54.318303 
L 363.714464 54.525494 
L 364.039443 55.019936 
L 364.364423 55.109705 
L 364.689402 55.058525 
L 365.339361 55.723749 
L 365.664341 55.655152 
L 365.98932 55.396605 
L 366.3143 55.45662 
L 366.639279 55.752958 
L 366.964259 55.745058 
L 367.289238 55.533818 
L 367.614218 55.635439 
L 367.939197 55.984514 
L 368.264177 56.07187 
L 368.589156 55.891962 
L 368.914136 55.85129 
L 369.239115 55.929111 
L 369.889075 55.788882 
L 370.214054 55.886532 
L 370.539034 55.837221 
L 370.864013 55.921463 
L 371.188993 55.850648 
L 371.513972 55.897897 
L 371.838952 55.723282 
L 372.163931 55.422079 
L 372.488911 55.431458 
L 372.81389 55.675644 
L 373.13887 55.643165 
L 373.463849 55.749125 
L 373.788829 56.130795 
L 374.113808 56.293404 
L 375.413726 55.628959 
L 375.738706 55.70857 
L 376.063686 55.659647 
L 376.713645 55.905292 
L 377.038624 55.699482 
L 378.988501 55.607689 
L 379.313481 55.680917 
L 379.63846 55.559097 
L 379.96344 55.623607 
L 380.288419 55.535083 
L 380.613399 55.627597 
L 380.938378 55.566258 
L 381.263358 55.631819 
L 381.588337 55.546662 
L 381.913317 55.695104 
L 382.238296 55.635186 
L 382.563276 55.417992 
L 382.888256 55.470748 
L 383.213235 55.33122 
L 383.538215 55.33624 
L 383.863194 55.509591 
L 384.188174 55.455453 
L 384.513153 55.583656 
L 384.838133 55.57844 
L 385.163112 55.710613 
L 385.488092 55.518464 
L 386.138051 55.621369 
L 386.78801 55.409157 
L 387.112989 55.583578 
L 387.437969 55.5561 
L 387.762948 55.329682 
L 388.087928 55.389658 
L 388.412907 55.679088 
L 388.737887 55.607884 
L 389.062867 55.228354 
L 389.387846 55.165206 
L 389.712826 55.455375 
L 390.037805 55.478805 
L 390.362785 55.222671 
L 390.687764 55.169234 
L 391.337723 55.916443 
L 392.312662 55.406725 
L 392.637641 55.705184 
L 392.962621 55.823287 
L 393.61258 55.534753 
L 393.937559 55.614091 
L 394.262539 55.819473 
L 394.912498 55.253087 
L 395.237477 55.282647 
L 395.562457 55.759867 
L 395.887437 55.814511 
L 396.212416 55.418206 
L 396.537396 55.437686 
L 396.862375 55.670564 
L 397.837314 55.355992 
L 398.162293 55.634641 
L 398.487273 55.403922 
L 398.487273 55.403922 
" style="fill:none;stroke:#ff7f0e;stroke-linecap:square;stroke-width:1.5;"/>
   </g>
   <g id="patch_3">
    <path d="M 57.6 307.584 
L 57.6 41.472 
" style="fill:none;stroke:#000000;stroke-linecap:square;stroke-linejoin:miter;stroke-width:0.8;"/>
   </g>
   <g id="patch_4">
    <path d="M 414.72 307.584 
L 414.72 41.472 
" style="fill:none;stroke:#000000;stroke-linecap:square;stroke-linejoin:miter;stroke-width:0.8;"/>
   </g>
   <g id="patch_5">
    <path d="M 57.6 307.584 
L 414.72 307.584 
" style="fill:none;stroke:#000000;stroke-linecap:square;stroke-linejoin:miter;stroke-width:0.8;"/>
   </g>
   <g id="patch_6">
    <path d="M 57.6 41.472 
L 414.72 41.472 
" style="fill:none;stroke:#000000;stroke-linecap:square;stroke-linejoin:miter;stroke-width:0.8;"/>
   </g>
   <g id="legend_1">
    <g id="patch_7">
     <path d="M 64.6 78.82825 
L 168.475 78.82825 
Q 170.475 78.82825 170.475 76.82825 
L 170.475 48.472 
Q 170.475 46.472 168.475 46.472 
L 64.6 46.472 
Q 62.6 46.472 62.6 48.472 
L 62.6 76.82825 
Q 62.6 78.82825 64.6 78.82825 
z
" style="fill:#ffffff;opacity:0.8;stroke:#cccccc;stroke-linejoin:miter;"/>
    </g>
    <g id="line2d_16">
     <path d="M 66.6 54.570437 
L 86.6 54.570437 
" style="fill:none;stroke:#1f77b4;stroke-linecap:square;stroke-width:1.5;"/>
    </g>
    <g id="line2d_17"/>
    <g id="text_16">
     <!-- Train loss -->
     <g transform="translate(94.6 58.070437)scale(0.1 -0.1)">
      <defs>
       <path d="M -19 4666 
L 3928 4666 
L 3928 4134 
L 2272 4134 
L 2272 0 
L 1638 0 
L 1638 4134 
L -19 4134 
L -19 4666 
z
" id="DejaVuSans-54" transform="scale(0.015625)"/>
       <path d="M 2631 2963 
Q 2534 3019 2420 3045 
Q 2306 3072 2169 3072 
Q 1681 3072 1420 2755 
Q 1159 2438 1159 1844 
L 1159 0 
L 581 0 
L 581 3500 
L 1159 3500 
L 1159 2956 
Q 1341 3275 1631 3429 
Q 1922 3584 2338 3584 
Q 2397 3584 2469 3576 
Q 2541 3569 2628 3553 
L 2631 2963 
z
" id="DejaVuSans-72" transform="scale(0.015625)"/>
       <path d="M 2194 1759 
Q 1497 1759 1228 1600 
Q 959 1441 959 1056 
Q 959 750 1161 570 
Q 1363 391 1709 391 
Q 2188 391 2477 730 
Q 2766 1069 2766 1631 
L 2766 1759 
L 2194 1759 
z
M 3341 1997 
L 3341 0 
L 2766 0 
L 2766 531 
Q 2569 213 2275 61 
Q 1981 -91 1556 -91 
Q 1019 -91 701 211 
Q 384 513 384 1019 
Q 384 1609 779 1909 
Q 1175 2209 1959 2209 
L 2766 2209 
L 2766 2266 
Q 2766 2663 2505 2880 
Q 2244 3097 1772 3097 
Q 1472 3097 1187 3025 
Q 903 2953 641 2809 
L 641 3341 
Q 956 3463 1253 3523 
Q 1550 3584 1831 3584 
Q 2591 3584 2966 3190 
Q 3341 2797 3341 1997 
z
" id="DejaVuSans-61" transform="scale(0.015625)"/>
       <path d="M 603 3500 
L 1178 3500 
L 1178 0 
L 603 0 
L 603 3500 
z
M 603 4863 
L 1178 4863 
L 1178 4134 
L 603 4134 
L 603 4863 
z
" id="DejaVuSans-69" transform="scale(0.015625)"/>
       <path d="M 3513 2113 
L 3513 0 
L 2938 0 
L 2938 2094 
Q 2938 2591 2744 2837 
Q 2550 3084 2163 3084 
Q 1697 3084 1428 2787 
Q 1159 2491 1159 1978 
L 1159 0 
L 581 0 
L 581 3500 
L 1159 3500 
L 1159 2956 
Q 1366 3272 1645 3428 
Q 1925 3584 2291 3584 
Q 2894 3584 3203 3211 
Q 3513 2838 3513 2113 
z
" id="DejaVuSans-6e" transform="scale(0.015625)"/>
       <path id="DejaVuSans-20" transform="scale(0.015625)"/>
       <path d="M 603 4863 
L 1178 4863 
L 1178 0 
L 603 0 
L 603 4863 
z
" id="DejaVuSans-6c" transform="scale(0.015625)"/>
      </defs>
      <use xlink:href="#DejaVuSans-54"/>
      <use x="46.333984" xlink:href="#DejaVuSans-72"/>
      <use x="87.447266" xlink:href="#DejaVuSans-61"/>
      <use x="148.726562" xlink:href="#DejaVuSans-69"/>
      <use x="176.509766" xlink:href="#DejaVuSans-6e"/>
      <use x="239.888672" xlink:href="#DejaVuSans-20"/>
      <use x="271.675781" xlink:href="#DejaVuSans-6c"/>
      <use x="299.458984" xlink:href="#DejaVuSans-6f"/>
      <use x="360.640625" xlink:href="#DejaVuSans-73"/>
      <use x="412.740234" xlink:href="#DejaVuSans-73"/>
     </g>
    </g>
    <g id="line2d_18">
     <path d="M 66.6 69.248562 
L 86.6 69.248562 
" style="fill:none;stroke:#ff7f0e;stroke-linecap:square;stroke-width:1.5;"/>
    </g>
    <g id="line2d_19"/>
    <g id="text_17">
     <!-- Validation loss -->
     <g transform="translate(94.6 72.748562)scale(0.1 -0.1)">
      <defs>
       <path d="M 1831 0 
L 50 4666 
L 709 4666 
L 2188 738 
L 3669 4666 
L 4325 4666 
L 2547 0 
L 1831 0 
z
" id="DejaVuSans-56" transform="scale(0.015625)"/>
       <path d="M 2906 2969 
L 2906 4863 
L 3481 4863 
L 3481 0 
L 2906 0 
L 2906 525 
Q 2725 213 2448 61 
Q 2172 -91 1784 -91 
Q 1150 -91 751 415 
Q 353 922 353 1747 
Q 353 2572 751 3078 
Q 1150 3584 1784 3584 
Q 2172 3584 2448 3432 
Q 2725 3281 2906 2969 
z
M 947 1747 
Q 947 1113 1208 752 
Q 1469 391 1925 391 
Q 2381 391 2643 752 
Q 2906 1113 2906 1747 
Q 2906 2381 2643 2742 
Q 2381 3103 1925 3103 
Q 1469 3103 1208 2742 
Q 947 2381 947 1747 
z
" id="DejaVuSans-64" transform="scale(0.015625)"/>
       <path d="M 1172 4494 
L 1172 3500 
L 2356 3500 
L 2356 3053 
L 1172 3053 
L 1172 1153 
Q 1172 725 1289 603 
Q 1406 481 1766 481 
L 2356 481 
L 2356 0 
L 1766 0 
Q 1100 0 847 248 
Q 594 497 594 1153 
L 594 3053 
L 172 3053 
L 172 3500 
L 594 3500 
L 594 4494 
L 1172 4494 
z
" id="DejaVuSans-74" transform="scale(0.015625)"/>
      </defs>
      <use xlink:href="#DejaVuSans-56"/>
      <use x="60.658203" xlink:href="#DejaVuSans-61"/>
      <use x="121.9375" xlink:href="#DejaVuSans-6c"/>
      <use x="149.720703" xlink:href="#DejaVuSans-69"/>
      <use x="177.503906" xlink:href="#DejaVuSans-64"/>
      <use x="240.980469" xlink:href="#DejaVuSans-61"/>
      <use x="302.259766" xlink:href="#DejaVuSans-74"/>
      <use x="341.46875" xlink:href="#DejaVuSans-69"/>
      <use x="369.251953" xlink:href="#DejaVuSans-6f"/>
      <use x="430.433594" xlink:href="#DejaVuSans-6e"/>
      <use x="493.8125" xlink:href="#DejaVuSans-20"/>
      <use x="525.599609" xlink:href="#DejaVuSans-6c"/>
      <use x="553.382812" xlink:href="#DejaVuSans-6f"/>
      <use x="614.564453" xlink:href="#DejaVuSans-73"/>
      <use x="666.664062" xlink:href="#DejaVuSans-73"/>
     </g>
    </g>
   </g>
  </g>
 </g>
 <defs>
  <clipPath id="p1705e7e1e8">
   <rect height="266.112" width="357.12" x="57.6" y="41.472"/>
  </clipPath>
 </defs>
</svg>
