<?xml version="1.0" encoding="utf-8" standalone="no"?>
<!DOCTYPE svg PUBLIC "-//W3C//DTD SVG 1.1//EN"
  "http://www.w3.org/Graphics/SVG/1.1/DTD/svg11.dtd">
<svg height="345.6pt" version="1.1" viewBox="0 0 460.8 345.6" width="460.8pt" xmlns="http://www.w3.org/2000/svg" xmlns:xlink="http://www.w3.org/1999/xlink">
 <metadata>
  <rdf:RDF xmlns:cc="http://creativecommons.org/ns#" xmlns:dc="http://purl.org/dc/elements/1.1/" xmlns:rdf="http://www.w3.org/1999/02/22-rdf-syntax-ns#">
   <cc:Work>
    <dc:type rdf:resource="http://purl.org/dc/dcmitype/StillImage"/>
    <dc:date>2021-07-11T11:28:36.671846</dc:date>
    <dc:format>image/svg+xml</dc:format>
    <dc:creator>
     <cc:Agent>
      <dc:title>Matplotlib v3.4.2, https://matplotlib.org/</dc:title>
     </cc:Agent>
    </dc:creator>
   </cc:Work>
  </rdf:RDF>
 </metadata>
 <defs>
  <style type="text/css">*{stroke-linecap:butt;stroke-linejoin:round;}</style>
 </defs>
 <g id="figure_1">
  <g id="patch_1">
   <path d="M 0 345.6 
L 460.8 345.6 
L 460.8 0 
L 0 0 
z
" style="fill:#ffffff;"/>
  </g>
  <g id="axes_1">
   <g id="patch_2">
    <path d="M 57.6 307.584 
L 414.72 307.584 
L 414.72 41.472 
L 57.6 41.472 
z
" style="fill:#ffffff;"/>
   </g>
   <g id="matplotlib.axis_1">
    <g id="xtick_1">
     <g id="line2d_1">
      <defs>
       <path d="M 0 0 
L 0 3.5 
" id="m0994f638d3" style="stroke:#000000;stroke-width:0.8;"/>
      </defs>
      <g>
       <use style="stroke:#000000;stroke-width:0.8;" x="73.019057" xlink:href="#m0994f638d3" y="307.584"/>
      </g>
     </g>
     <g id="text_1">
      <!-- 0 -->
      <g transform="translate(69.837807 322.182437)scale(0.1 -0.1)">
       <defs>
        <path d="M 2034 4250 
Q 1547 4250 1301 3770 
Q 1056 3291 1056 2328 
Q 1056 1369 1301 889 
Q 1547 409 2034 409 
Q 2525 409 2770 889 
Q 3016 1369 3016 2328 
Q 3016 3291 2770 3770 
Q 2525 4250 2034 4250 
z
M 2034 4750 
Q 2819 4750 3233 4129 
Q 3647 3509 3647 2328 
Q 3647 1150 3233 529 
Q 2819 -91 2034 -91 
Q 1250 -91 836 529 
Q 422 1150 422 2328 
Q 422 3509 836 4129 
Q 1250 4750 2034 4750 
z
" id="DejaVuSans-30" transform="scale(0.015625)"/>
       </defs>
       <use xlink:href="#DejaVuSans-30"/>
      </g>
     </g>
    </g>
    <g id="xtick_2">
     <g id="line2d_2">
      <g>
       <use style="stroke:#000000;stroke-width:0.8;" x="113.702584" xlink:href="#m0994f638d3" y="307.584"/>
      </g>
     </g>
     <g id="text_2">
      <!-- 50 -->
      <g transform="translate(107.340084 322.182437)scale(0.1 -0.1)">
       <defs>
        <path d="M 691 4666 
L 3169 4666 
L 3169 4134 
L 1269 4134 
L 1269 2991 
Q 1406 3038 1543 3061 
Q 1681 3084 1819 3084 
Q 2600 3084 3056 2656 
Q 3513 2228 3513 1497 
Q 3513 744 3044 326 
Q 2575 -91 1722 -91 
Q 1428 -91 1123 -41 
Q 819 9 494 109 
L 494 744 
Q 775 591 1075 516 
Q 1375 441 1709 441 
Q 2250 441 2565 725 
Q 2881 1009 2881 1497 
Q 2881 1984 2565 2268 
Q 2250 2553 1709 2553 
Q 1456 2553 1204 2497 
Q 953 2441 691 2322 
L 691 4666 
z
" id="DejaVuSans-35" transform="scale(0.015625)"/>
       </defs>
       <use xlink:href="#DejaVuSans-35"/>
       <use x="63.623047" xlink:href="#DejaVuSans-30"/>
      </g>
     </g>
    </g>
    <g id="xtick_3">
     <g id="line2d_3">
      <g>
       <use style="stroke:#000000;stroke-width:0.8;" x="154.386111" xlink:href="#m0994f638d3" y="307.584"/>
      </g>
     </g>
     <g id="text_3">
      <!-- 100 -->
      <g transform="translate(144.842361 322.182437)scale(0.1 -0.1)">
       <defs>
        <path d="M 794 531 
L 1825 531 
L 1825 4091 
L 703 3866 
L 703 4441 
L 1819 4666 
L 2450 4666 
L 2450 531 
L 3481 531 
L 3481 0 
L 794 0 
L 794 531 
z
" id="DejaVuSans-31" transform="scale(0.015625)"/>
       </defs>
       <use xlink:href="#DejaVuSans-31"/>
       <use x="63.623047" xlink:href="#DejaVuSans-30"/>
       <use x="127.246094" xlink:href="#DejaVuSans-30"/>
      </g>
     </g>
    </g>
    <g id="xtick_4">
     <g id="line2d_4">
      <g>
       <use style="stroke:#000000;stroke-width:0.8;" x="195.069638" xlink:href="#m0994f638d3" y="307.584"/>
      </g>
     </g>
     <g id="text_4">
      <!-- 150 -->
      <g transform="translate(185.525888 322.182437)scale(0.1 -0.1)">
       <use xlink:href="#DejaVuSans-31"/>
       <use x="63.623047" xlink:href="#DejaVuSans-35"/>
       <use x="127.246094" xlink:href="#DejaVuSans-30"/>
      </g>
     </g>
    </g>
    <g id="xtick_5">
     <g id="line2d_5">
      <g>
       <use style="stroke:#000000;stroke-width:0.8;" x="235.753165" xlink:href="#m0994f638d3" y="307.584"/>
      </g>
     </g>
     <g id="text_5">
      <!-- 200 -->
      <g transform="translate(226.209415 322.182437)scale(0.1 -0.1)">
       <defs>
        <path d="M 1228 531 
L 3431 531 
L 3431 0 
L 469 0 
L 469 531 
Q 828 903 1448 1529 
Q 2069 2156 2228 2338 
Q 2531 2678 2651 2914 
Q 2772 3150 2772 3378 
Q 2772 3750 2511 3984 
Q 2250 4219 1831 4219 
Q 1534 4219 1204 4116 
Q 875 4013 500 3803 
L 500 4441 
Q 881 4594 1212 4672 
Q 1544 4750 1819 4750 
Q 2544 4750 2975 4387 
Q 3406 4025 3406 3419 
Q 3406 3131 3298 2873 
Q 3191 2616 2906 2266 
Q 2828 2175 2409 1742 
Q 1991 1309 1228 531 
z
" id="DejaVuSans-32" transform="scale(0.015625)"/>
       </defs>
       <use xlink:href="#DejaVuSans-32"/>
       <use x="63.623047" xlink:href="#DejaVuSans-30"/>
       <use x="127.246094" xlink:href="#DejaVuSans-30"/>
      </g>
     </g>
    </g>
    <g id="xtick_6">
     <g id="line2d_6">
      <g>
       <use style="stroke:#000000;stroke-width:0.8;" x="276.436692" xlink:href="#m0994f638d3" y="307.584"/>
      </g>
     </g>
     <g id="text_6">
      <!-- 250 -->
      <g transform="translate(266.892942 322.182437)scale(0.1 -0.1)">
       <use xlink:href="#DejaVuSans-32"/>
       <use x="63.623047" xlink:href="#DejaVuSans-35"/>
       <use x="127.246094" xlink:href="#DejaVuSans-30"/>
      </g>
     </g>
    </g>
    <g id="xtick_7">
     <g id="line2d_7">
      <g>
       <use style="stroke:#000000;stroke-width:0.8;" x="317.120219" xlink:href="#m0994f638d3" y="307.584"/>
      </g>
     </g>
     <g id="text_7">
      <!-- 300 -->
      <g transform="translate(307.576469 322.182437)scale(0.1 -0.1)">
       <defs>
        <path d="M 2597 2516 
Q 3050 2419 3304 2112 
Q 3559 1806 3559 1356 
Q 3559 666 3084 287 
Q 2609 -91 1734 -91 
Q 1441 -91 1130 -33 
Q 819 25 488 141 
L 488 750 
Q 750 597 1062 519 
Q 1375 441 1716 441 
Q 2309 441 2620 675 
Q 2931 909 2931 1356 
Q 2931 1769 2642 2001 
Q 2353 2234 1838 2234 
L 1294 2234 
L 1294 2753 
L 1863 2753 
Q 2328 2753 2575 2939 
Q 2822 3125 2822 3475 
Q 2822 3834 2567 4026 
Q 2313 4219 1838 4219 
Q 1578 4219 1281 4162 
Q 984 4106 628 3988 
L 628 4550 
Q 988 4650 1302 4700 
Q 1616 4750 1894 4750 
Q 2613 4750 3031 4423 
Q 3450 4097 3450 3541 
Q 3450 3153 3228 2886 
Q 3006 2619 2597 2516 
z
" id="DejaVuSans-33" transform="scale(0.015625)"/>
       </defs>
       <use xlink:href="#DejaVuSans-33"/>
       <use x="63.623047" xlink:href="#DejaVuSans-30"/>
       <use x="127.246094" xlink:href="#DejaVuSans-30"/>
      </g>
     </g>
    </g>
    <g id="xtick_8">
     <g id="line2d_8">
      <g>
       <use style="stroke:#000000;stroke-width:0.8;" x="357.803746" xlink:href="#m0994f638d3" y="307.584"/>
      </g>
     </g>
     <g id="text_8">
      <!-- 350 -->
      <g transform="translate(348.259996 322.182437)scale(0.1 -0.1)">
       <use xlink:href="#DejaVuSans-33"/>
       <use x="63.623047" xlink:href="#DejaVuSans-35"/>
       <use x="127.246094" xlink:href="#DejaVuSans-30"/>
      </g>
     </g>
    </g>
    <g id="xtick_9">
     <g id="line2d_9">
      <g>
       <use style="stroke:#000000;stroke-width:0.8;" x="398.487273" xlink:href="#m0994f638d3" y="307.584"/>
      </g>
     </g>
     <g id="text_9">
      <!-- 400 -->
      <g transform="translate(388.943523 322.182437)scale(0.1 -0.1)">
       <defs>
        <path d="M 2419 4116 
L 825 1625 
L 2419 1625 
L 2419 4116 
z
M 2253 4666 
L 3047 4666 
L 3047 1625 
L 3713 1625 
L 3713 1100 
L 3047 1100 
L 3047 0 
L 2419 0 
L 2419 1100 
L 313 1100 
L 313 1709 
L 2253 4666 
z
" id="DejaVuSans-34" transform="scale(0.015625)"/>
       </defs>
       <use xlink:href="#DejaVuSans-34"/>
       <use x="63.623047" xlink:href="#DejaVuSans-30"/>
       <use x="127.246094" xlink:href="#DejaVuSans-30"/>
      </g>
     </g>
    </g>
    <g id="text_10">
     <!-- Epoch -->
     <g transform="translate(213.193594 339.659781)scale(0.15 -0.15)">
      <defs>
       <path d="M 628 4666 
L 3578 4666 
L 3578 4134 
L 1259 4134 
L 1259 2753 
L 3481 2753 
L 3481 2222 
L 1259 2222 
L 1259 531 
L 3634 531 
L 3634 0 
L 628 0 
L 628 4666 
z
" id="DejaVuSans-45" transform="scale(0.015625)"/>
       <path d="M 1159 525 
L 1159 -1331 
L 581 -1331 
L 581 3500 
L 1159 3500 
L 1159 2969 
Q 1341 3281 1617 3432 
Q 1894 3584 2278 3584 
Q 2916 3584 3314 3078 
Q 3713 2572 3713 1747 
Q 3713 922 3314 415 
Q 2916 -91 2278 -91 
Q 1894 -91 1617 61 
Q 1341 213 1159 525 
z
M 3116 1747 
Q 3116 2381 2855 2742 
Q 2594 3103 2138 3103 
Q 1681 3103 1420 2742 
Q 1159 2381 1159 1747 
Q 1159 1113 1420 752 
Q 1681 391 2138 391 
Q 2594 391 2855 752 
Q 3116 1113 3116 1747 
z
" id="DejaVuSans-70" transform="scale(0.015625)"/>
       <path d="M 1959 3097 
Q 1497 3097 1228 2736 
Q 959 2375 959 1747 
Q 959 1119 1226 758 
Q 1494 397 1959 397 
Q 2419 397 2687 759 
Q 2956 1122 2956 1747 
Q 2956 2369 2687 2733 
Q 2419 3097 1959 3097 
z
M 1959 3584 
Q 2709 3584 3137 3096 
Q 3566 2609 3566 1747 
Q 3566 888 3137 398 
Q 2709 -91 1959 -91 
Q 1206 -91 779 398 
Q 353 888 353 1747 
Q 353 2609 779 3096 
Q 1206 3584 1959 3584 
z
" id="DejaVuSans-6f" transform="scale(0.015625)"/>
       <path d="M 3122 3366 
L 3122 2828 
Q 2878 2963 2633 3030 
Q 2388 3097 2138 3097 
Q 1578 3097 1268 2742 
Q 959 2388 959 1747 
Q 959 1106 1268 751 
Q 1578 397 2138 397 
Q 2388 397 2633 464 
Q 2878 531 3122 666 
L 3122 134 
Q 2881 22 2623 -34 
Q 2366 -91 2075 -91 
Q 1284 -91 818 406 
Q 353 903 353 1747 
Q 353 2603 823 3093 
Q 1294 3584 2113 3584 
Q 2378 3584 2631 3529 
Q 2884 3475 3122 3366 
z
" id="DejaVuSans-63" transform="scale(0.015625)"/>
       <path d="M 3513 2113 
L 3513 0 
L 2938 0 
L 2938 2094 
Q 2938 2591 2744 2837 
Q 2550 3084 2163 3084 
Q 1697 3084 1428 2787 
Q 1159 2491 1159 1978 
L 1159 0 
L 581 0 
L 581 4863 
L 1159 4863 
L 1159 2956 
Q 1366 3272 1645 3428 
Q 1925 3584 2291 3584 
Q 2894 3584 3203 3211 
Q 3513 2838 3513 2113 
z
" id="DejaVuSans-68" transform="scale(0.015625)"/>
      </defs>
      <use xlink:href="#DejaVuSans-45"/>
      <use x="63.183594" xlink:href="#DejaVuSans-70"/>
      <use x="126.660156" xlink:href="#DejaVuSans-6f"/>
      <use x="187.841797" xlink:href="#DejaVuSans-63"/>
      <use x="242.822266" xlink:href="#DejaVuSans-68"/>
     </g>
    </g>
   </g>
   <g id="matplotlib.axis_2">
    <g id="ytick_1">
     <g id="line2d_10">
      <defs>
       <path d="M 0 0 
L -3.5 0 
" id="m645cb54982" style="stroke:#000000;stroke-width:0.8;"/>
      </defs>
      <g>
       <use style="stroke:#000000;stroke-width:0.8;" x="57.6" xlink:href="#m645cb54982" y="293.537726"/>
      </g>
     </g>
     <g id="text_11">
      <!-- −2000 -->
      <g transform="translate(16.770313 297.336945)scale(0.1 -0.1)">
       <defs>
        <path d="M 678 2272 
L 4684 2272 
L 4684 1741 
L 678 1741 
L 678 2272 
z
" id="DejaVuSans-2212" transform="scale(0.015625)"/>
       </defs>
       <use xlink:href="#DejaVuSans-2212"/>
       <use x="83.789062" xlink:href="#DejaVuSans-32"/>
       <use x="147.412109" xlink:href="#DejaVuSans-30"/>
       <use x="211.035156" xlink:href="#DejaVuSans-30"/>
       <use x="274.658203" xlink:href="#DejaVuSans-30"/>
      </g>
     </g>
    </g>
    <g id="ytick_2">
     <g id="line2d_11">
      <g>
       <use style="stroke:#000000;stroke-width:0.8;" x="57.6" xlink:href="#m645cb54982" y="263.541511"/>
      </g>
     </g>
     <g id="text_12">
      <!-- −1750 -->
      <g transform="translate(16.770313 267.340729)scale(0.1 -0.1)">
       <defs>
        <path d="M 525 4666 
L 3525 4666 
L 3525 4397 
L 1831 0 
L 1172 0 
L 2766 4134 
L 525 4134 
L 525 4666 
z
" id="DejaVuSans-37" transform="scale(0.015625)"/>
       </defs>
       <use xlink:href="#DejaVuSans-2212"/>
       <use x="83.789062" xlink:href="#DejaVuSans-31"/>
       <use x="147.412109" xlink:href="#DejaVuSans-37"/>
       <use x="211.035156" xlink:href="#DejaVuSans-35"/>
       <use x="274.658203" xlink:href="#DejaVuSans-30"/>
      </g>
     </g>
    </g>
    <g id="ytick_3">
     <g id="line2d_12">
      <g>
       <use style="stroke:#000000;stroke-width:0.8;" x="57.6" xlink:href="#m645cb54982" y="233.545295"/>
      </g>
     </g>
     <g id="text_13">
      <!-- −1500 -->
      <g transform="translate(16.770313 237.344513)scale(0.1 -0.1)">
       <use xlink:href="#DejaVuSans-2212"/>
       <use x="83.789062" xlink:href="#DejaVuSans-31"/>
       <use x="147.412109" xlink:href="#DejaVuSans-35"/>
       <use x="211.035156" xlink:href="#DejaVuSans-30"/>
       <use x="274.658203" xlink:href="#DejaVuSans-30"/>
      </g>
     </g>
    </g>
    <g id="ytick_4">
     <g id="line2d_13">
      <g>
       <use style="stroke:#000000;stroke-width:0.8;" x="57.6" xlink:href="#m645cb54982" y="203.549079"/>
      </g>
     </g>
     <g id="text_14">
      <!-- −1250 -->
      <g transform="translate(16.770313 207.348298)scale(0.1 -0.1)">
       <use xlink:href="#DejaVuSans-2212"/>
       <use x="83.789062" xlink:href="#DejaVuSans-31"/>
       <use x="147.412109" xlink:href="#DejaVuSans-32"/>
       <use x="211.035156" xlink:href="#DejaVuSans-35"/>
       <use x="274.658203" xlink:href="#DejaVuSans-30"/>
      </g>
     </g>
    </g>
    <g id="ytick_5">
     <g id="line2d_14">
      <g>
       <use style="stroke:#000000;stroke-width:0.8;" x="57.6" xlink:href="#m645cb54982" y="173.552863"/>
      </g>
     </g>
     <g id="text_15">
      <!-- −1000 -->
      <g transform="translate(16.770313 177.352082)scale(0.1 -0.1)">
       <use xlink:href="#DejaVuSans-2212"/>
       <use x="83.789062" xlink:href="#DejaVuSans-31"/>
       <use x="147.412109" xlink:href="#DejaVuSans-30"/>
       <use x="211.035156" xlink:href="#DejaVuSans-30"/>
       <use x="274.658203" xlink:href="#DejaVuSans-30"/>
      </g>
     </g>
    </g>
    <g id="ytick_6">
     <g id="line2d_15">
      <g>
       <use style="stroke:#000000;stroke-width:0.8;" x="57.6" xlink:href="#m645cb54982" y="143.556647"/>
      </g>
     </g>
     <g id="text_16">
      <!-- −750 -->
      <g transform="translate(23.132812 147.355866)scale(0.1 -0.1)">
       <use xlink:href="#DejaVuSans-2212"/>
       <use x="83.789062" xlink:href="#DejaVuSans-37"/>
       <use x="147.412109" xlink:href="#DejaVuSans-35"/>
       <use x="211.035156" xlink:href="#DejaVuSans-30"/>
      </g>
     </g>
    </g>
    <g id="ytick_7">
     <g id="line2d_16">
      <g>
       <use style="stroke:#000000;stroke-width:0.8;" x="57.6" xlink:href="#m645cb54982" y="113.560432"/>
      </g>
     </g>
     <g id="text_17">
      <!-- −500 -->
      <g transform="translate(23.132812 117.35965)scale(0.1 -0.1)">
       <use xlink:href="#DejaVuSans-2212"/>
       <use x="83.789062" xlink:href="#DejaVuSans-35"/>
       <use x="147.412109" xlink:href="#DejaVuSans-30"/>
       <use x="211.035156" xlink:href="#DejaVuSans-30"/>
      </g>
     </g>
    </g>
    <g id="ytick_8">
     <g id="line2d_17">
      <g>
       <use style="stroke:#000000;stroke-width:0.8;" x="57.6" xlink:href="#m645cb54982" y="83.564216"/>
      </g>
     </g>
     <g id="text_18">
      <!-- −250 -->
      <g transform="translate(23.132812 87.363435)scale(0.1 -0.1)">
       <use xlink:href="#DejaVuSans-2212"/>
       <use x="83.789062" xlink:href="#DejaVuSans-32"/>
       <use x="147.412109" xlink:href="#DejaVuSans-35"/>
       <use x="211.035156" xlink:href="#DejaVuSans-30"/>
      </g>
     </g>
    </g>
    <g id="ytick_9">
     <g id="line2d_18">
      <g>
       <use style="stroke:#000000;stroke-width:0.8;" x="57.6" xlink:href="#m645cb54982" y="53.568"/>
      </g>
     </g>
     <g id="text_19">
      <!-- 0 -->
      <g transform="translate(44.2375 57.367219)scale(0.1 -0.1)">
       <use xlink:href="#DejaVuSans-30"/>
      </g>
     </g>
    </g>
    <g id="text_20">
     <!-- Loss -->
     <g transform="translate(9.650781 190.978781)rotate(-90)scale(0.15 -0.15)">
      <defs>
       <path d="M 628 4666 
L 1259 4666 
L 1259 531 
L 3531 531 
L 3531 0 
L 628 0 
L 628 4666 
z
" id="DejaVuSans-4c" transform="scale(0.015625)"/>
       <path d="M 2834 3397 
L 2834 2853 
Q 2591 2978 2328 3040 
Q 2066 3103 1784 3103 
Q 1356 3103 1142 2972 
Q 928 2841 928 2578 
Q 928 2378 1081 2264 
Q 1234 2150 1697 2047 
L 1894 2003 
Q 2506 1872 2764 1633 
Q 3022 1394 3022 966 
Q 3022 478 2636 193 
Q 2250 -91 1575 -91 
Q 1294 -91 989 -36 
Q 684 19 347 128 
L 347 722 
Q 666 556 975 473 
Q 1284 391 1588 391 
Q 1994 391 2212 530 
Q 2431 669 2431 922 
Q 2431 1156 2273 1281 
Q 2116 1406 1581 1522 
L 1381 1569 
Q 847 1681 609 1914 
Q 372 2147 372 2553 
Q 372 3047 722 3315 
Q 1072 3584 1716 3584 
Q 2034 3584 2315 3537 
Q 2597 3491 2834 3397 
z
" id="DejaVuSans-73" transform="scale(0.015625)"/>
      </defs>
      <use xlink:href="#DejaVuSans-4c"/>
      <use x="53.962891" xlink:href="#DejaVuSans-6f"/>
      <use x="115.144531" xlink:href="#DejaVuSans-73"/>
      <use x="167.244141" xlink:href="#DejaVuSans-73"/>
     </g>
    </g>
   </g>
   <g id="line2d_19">
    <path clip-path="url(#pa136f72791)" d="M 73.832727 57.192261 
L 74.646398 86.741504 
L 75.460068 92.715484 
L 77.087409 106.68599 
L 77.90108 103.958757 
L 78.714751 108.663151 
L 79.528421 117.280317 
L 80.342092 110.026884 
L 81.969433 125.432425 
L 82.783103 120.366458 
L 83.596774 123.516628 
L 84.410444 127.589856 
L 85.224115 128.367659 
L 86.037785 124.48055 
L 86.851456 133.027143 
L 87.665126 136.341747 
L 88.478797 135.591123 
L 89.292468 136.196721 
L 90.106138 135.626125 
L 90.919809 138.871414 
L 91.733479 137.103011 
L 92.54715 142.444585 
L 93.36082 142.802555 
L 94.174491 143.417566 
L 94.988161 138.43428 
L 95.801832 139.37491 
L 96.615502 143.526598 
L 97.429173 144.993788 
L 98.242843 147.812997 
L 99.056514 142.433025 
L 99.870185 143.642772 
L 100.683855 149.980138 
L 102.311196 145.851623 
L 103.124867 150.99393 
L 103.938537 151.706587 
L 104.752208 146.49079 
L 105.565878 149.693017 
L 106.379549 153.351037 
L 107.193219 152.90006 
L 108.00689 148.438621 
L 108.82056 154.930559 
L 109.634231 151.242183 
L 110.447902 148.234091 
L 111.261572 147.841042 
L 112.075243 151.287319 
L 112.888913 151.589196 
L 113.702584 150.839309 
L 114.516254 157.835729 
L 115.329925 153.976742 
L 116.143595 155.941245 
L 116.957266 150.334608 
L 117.770936 154.006515 
L 118.584607 151.345768 
L 119.398278 154.110466 
L 120.211948 155.411051 
L 121.025619 153.723827 
L 121.839289 155.659469 
L 122.65296 147.10291 
L 123.46663 148.907042 
L 124.280301 151.965526 
L 125.093971 154.073205 
L 125.907642 151.494299 
L 126.721312 153.921032 
L 127.534983 161.078579 
L 128.348653 159.799773 
L 129.162324 152.681067 
L 129.975995 153.083615 
L 130.789665 155.08701 
L 131.603336 155.879745 
L 132.417006 155.552242 
L 133.230677 154.220894 
L 134.044347 158.293919 
L 134.858018 155.220681 
L 135.671688 156.005101 
L 136.485359 153.81823 
L 137.299029 160.418313 
L 138.1127 157.42377 
L 138.92637 158.655345 
L 139.740041 158.068579 
L 140.553712 152.231562 
L 141.367382 159.66763 
L 142.181053 156.174161 
L 142.994723 158.81986 
L 143.808394 156.829801 
L 144.622064 160.25808 
L 145.435735 156.371105 
L 146.249405 160.947766 
L 147.063076 156.816382 
L 147.876746 160.932045 
L 148.690417 158.47346 
L 149.504087 156.620463 
L 150.317758 157.164538 
L 151.131429 163.476211 
L 151.945099 161.26184 
L 152.75877 157.860508 
L 153.57244 158.021355 
L 154.386111 154.677823 
L 155.199781 152.198753 
L 156.013452 158.264538 
L 156.827122 158.839699 
L 157.640793 162.659925 
L 158.454463 159.470452 
L 159.268134 159.561313 
L 160.081805 153.332827 
L 160.895475 155.158504 
L 161.709146 157.763336 
L 162.522816 164.133576 
L 163.336487 157.926214 
L 164.150157 164.373675 
L 164.963828 161.904415 
L 165.777498 166.822394 
L 166.591169 158.994461 
L 167.404839 163.923927 
L 168.21851 162.21918 
L 169.03218 165.975143 
L 169.845851 161.477568 
L 170.659522 168.641067 
L 171.473192 161.958756 
L 172.286863 157.25824 
L 173.100533 159.58928 
L 173.914204 159.194837 
L 174.727874 159.433033 
L 175.541545 163.780334 
L 176.355215 166.840447 
L 177.168886 159.000917 
L 177.982556 159.488444 
L 178.796227 166.618216 
L 179.609897 162.922747 
L 180.423568 161.014797 
L 181.237239 157.166254 
L 182.050909 161.555197 
L 182.86458 159.846859 
L 183.67825 166.630969 
L 184.491921 163.839755 
L 185.305591 159.012344 
L 186.119262 158.974378 
L 186.932932 160.713154 
L 187.746603 159.001529 
L 188.560273 165.979317 
L 189.373944 161.885186 
L 190.187614 160.989018 
L 191.001285 156.323761 
L 191.814956 159.863478 
L 192.628626 166.181155 
L 193.442297 162.880304 
L 194.255967 164.073886 
L 195.069638 158.543586 
L 195.883308 163.119937 
L 196.696979 157.075409 
L 197.510649 160.21533 
L 198.32432 161.608797 
L 199.13799 162.559934 
L 199.951661 164.588508 
L 200.765332 162.594885 
L 201.579002 163.032631 
L 202.392673 163.782825 
L 203.206343 162.742529 
L 204.020014 165.518595 
L 204.833684 159.780152 
L 205.647355 169.361231 
L 206.461025 162.403566 
L 207.274696 164.467929 
L 208.088366 164.895508 
L 208.902037 162.777529 
L 209.715707 160.154473 
L 210.529378 165.820388 
L 211.343049 159.972618 
L 212.156719 166.652163 
L 212.97039 162.518855 
L 213.78406 162.920587 
L 214.597731 162.982537 
L 215.411401 163.919198 
L 216.225072 157.30105 
L 217.038742 163.090195 
L 217.852413 163.46311 
L 218.666083 162.186954 
L 219.479754 162.625173 
L 220.293424 166.721265 
L 221.107095 167.57056 
L 221.920766 164.206389 
L 222.734436 165.025773 
L 223.548107 162.1734 
L 224.361777 166.415995 
L 225.175448 160.864593 
L 225.989118 160.662322 
L 226.802789 167.229115 
L 227.616459 164.112689 
L 228.43013 161.873181 
L 229.2438 162.947678 
L 230.057471 160.410608 
L 230.871141 165.778864 
L 231.684812 164.680117 
L 232.498483 161.666886 
L 233.312153 169.384603 
L 234.125824 160.391786 
L 234.939494 166.775008 
L 235.753165 171.037747 
L 236.566835 161.006991 
L 237.380506 168.60889 
L 238.194176 159.45224 
L 239.007847 171.178151 
L 239.821517 163.286894 
L 240.635188 167.546977 
L 241.448859 167.543967 
L 242.262529 170.12325 
L 243.0762 165.643695 
L 243.88987 169.41475 
L 244.703541 172.062134 
L 245.517211 169.109702 
L 246.330882 159.72792 
L 247.144552 167.005528 
L 247.958223 162.182675 
L 248.771893 165.420609 
L 249.585564 165.961203 
L 250.399234 168.802037 
L 251.212905 165.484161 
L 252.026576 164.982111 
L 252.840246 165.477491 
L 253.653917 164.351367 
L 254.467587 170.202839 
L 255.281258 168.629221 
L 256.094928 162.922203 
L 256.908599 165.369456 
L 257.722269 160.617559 
L 258.53594 166.576437 
L 259.34961 167.825775 
L 260.163281 163.367474 
L 260.976951 168.684744 
L 261.790622 164.622348 
L 262.604293 165.045969 
L 263.417963 163.719762 
L 264.231634 166.703401 
L 265.045304 175.570238 
L 265.858975 164.010164 
L 266.672645 172.628743 
L 267.486316 164.909819 
L 268.299986 161.386177 
L 269.113657 165.100357 
L 269.927327 160.924053 
L 270.740998 165.628981 
L 271.554668 164.901061 
L 272.368339 165.561065 
L 273.18201 171.144378 
L 273.99568 160.682735 
L 274.809351 164.06846 
L 275.623021 170.967036 
L 276.436692 168.473514 
L 278.064033 168.898832 
L 278.877703 168.593351 
L 279.691374 161.797827 
L 280.505044 170.472936 
L 281.318715 164.676791 
L 282.132386 170.367121 
L 282.946056 169.088922 
L 283.759727 166.009183 
L 284.573397 162.205755 
L 285.387068 167.502456 
L 286.200738 164.918166 
L 287.014409 169.790232 
L 287.828079 168.930866 
L 288.64175 161.166038 
L 289.45542 170.948927 
L 290.269091 161.589207 
L 291.082761 167.519937 
L 291.896432 172.528758 
L 293.523773 164.341439 
L 294.337444 165.534222 
L 295.151114 169.0301 
L 295.964785 172.001947 
L 296.778455 170.147564 
L 297.592126 162.146006 
L 298.405796 164.296554 
L 299.219467 170.57702 
L 300.033137 165.309463 
L 300.846808 165.896035 
L 301.660478 166.302218 
L 302.474149 167.684551 
L 303.28782 167.273183 
L 304.10149 170.15429 
L 304.915161 171.555247 
L 305.728831 169.118742 
L 306.542502 164.531304 
L 307.356172 165.300117 
L 308.169843 164.533993 
L 308.983513 171.571869 
L 309.797184 168.38531 
L 310.610854 161.44906 
L 311.424525 168.554208 
L 312.238195 166.87203 
L 313.051866 162.215723 
L 313.865537 164.776405 
L 314.679207 169.123178 
L 315.492878 168.115336 
L 316.306548 169.410153 
L 317.120219 166.272491 
L 317.933889 169.091569 
L 318.74756 168.857032 
L 319.56123 167.139197 
L 321.188571 174.029617 
L 322.815913 163.977245 
L 323.629583 171.022101 
L 324.443254 168.682256 
L 325.256924 172.389046 
L 326.070595 170.421848 
L 326.884265 164.985326 
L 327.697936 172.110062 
L 328.511606 169.180721 
L 329.325277 163.455144 
L 330.138947 169.116147 
L 330.952618 166.054246 
L 331.766288 166.108363 
L 332.579959 171.250936 
L 333.39363 162.158268 
L 334.2073 163.37563 
L 335.020971 171.281633 
L 335.834641 169.189857 
L 336.648312 171.415855 
L 337.461982 167.570258 
L 338.275653 165.36238 
L 339.089323 167.473749 
L 339.902994 167.931385 
L 340.716664 164.672108 
L 341.530335 167.431921 
L 342.344005 167.767608 
L 343.157676 166.88197 
L 343.971347 173.729413 
L 344.785017 163.102912 
L 345.598688 166.56139 
L 346.412358 169.440574 
L 347.226029 166.645563 
L 348.039699 168.19872 
L 348.85337 173.118343 
L 349.66704 168.487931 
L 350.480711 169.082535 
L 351.294381 166.491495 
L 352.108052 173.982403 
L 352.921722 172.734489 
L 353.735393 171.707494 
L 354.549064 167.725262 
L 355.362734 165.971209 
L 356.176405 172.259689 
L 356.990075 176.355825 
L 357.803746 168.2348 
L 358.617416 165.05125 
L 359.431087 167.351654 
L 360.244757 172.434728 
L 361.058428 167.72018 
L 361.872098 174.316444 
L 362.685769 173.490192 
L 363.49944 173.351169 
L 364.31311 171.667472 
L 365.126781 175.083558 
L 365.940451 167.980079 
L 366.754122 168.700481 
L 367.567792 174.918091 
L 368.381463 170.179724 
L 369.195133 166.596719 
L 370.008804 169.973153 
L 370.822474 171.977803 
L 371.636145 172.620754 
L 372.449815 164.966001 
L 373.263486 169.692753 
L 374.077157 168.148828 
L 374.890827 171.703782 
L 375.704498 167.017061 
L 376.518168 172.199499 
L 377.331839 172.240879 
L 378.145509 169.337321 
L 378.95918 170.480699 
L 379.77285 172.210622 
L 380.586521 167.787813 
L 381.400191 171.524997 
L 382.213862 167.89776 
L 383.027532 173.390731 
L 383.841203 168.517656 
L 384.654874 173.134727 
L 385.468544 171.311773 
L 386.282215 176.095924 
L 387.095885 169.42767 
L 387.909556 170.002064 
L 388.723226 175.433861 
L 389.536897 168.43802 
L 390.350567 169.205826 
L 391.164238 169.387042 
L 391.977908 167.577786 
L 392.791579 171.806773 
L 393.605249 169.727751 
L 394.41892 172.814382 
L 395.232591 174.286403 
L 396.046261 170.702472 
L 396.859932 175.726455 
L 397.673602 167.965315 
L 398.487273 169.779842 
L 398.487273 169.779842 
" style="fill:none;stroke:#1f77b4;stroke-linecap:square;stroke-width:1.5;"/>
   </g>
   <g id="line2d_20">
    <path clip-path="url(#pa136f72791)" d="M 73.832727 89.063043 
L 74.646398 109.779882 
L 75.460068 92.224147 
L 76.273739 118.556657 
L 77.087409 150.445447 
L 77.90108 69.719154 
L 78.714751 113.290457 
L 79.528421 124.370201 
L 80.342092 53.568 
L 81.155762 128.814111 
L 81.969433 132.338211 
L 82.783103 93.996771 
L 83.596774 191.536878 
L 84.410444 74.810644 
L 85.224115 140.791585 
L 86.037785 172.828168 
L 86.851456 141.055525 
L 87.665126 187.948238 
L 88.478797 193.335511 
L 89.292468 147.664908 
L 90.106138 113.230901 
L 91.733479 174.915091 
L 92.54715 174.287115 
L 93.36082 173.50605 
L 94.174491 189.393055 
L 94.988161 97.187195 
L 95.801832 149.904181 
L 96.615502 73.09915 
L 97.429173 154.756541 
L 98.242843 116.929008 
L 99.056514 110.835499 
L 99.870185 128.281937 
L 100.683855 110.601961 
L 101.497526 143.691265 
L 102.311196 127.483624 
L 103.124867 162.000525 
L 103.938537 224.293865 
L 104.752208 134.974411 
L 105.565878 164.160351 
L 106.379549 106.192242 
L 107.193219 159.224613 
L 108.00689 79.957816 
L 108.82056 241.178737 
L 109.634231 120.465597 
L 110.447902 163.794354 
L 111.261572 164.244238 
L 112.075243 154.285885 
L 112.888913 125.085812 
L 113.702584 53.568 
L 114.516254 163.887187 
L 115.329925 123.540158 
L 116.143595 134.53791 
L 116.957266 236.690385 
L 117.770936 264.948614 
L 118.584607 135.053892 
L 119.398278 263.012266 
L 120.211948 208.63341 
L 121.025619 195.92892 
L 121.839289 198.530471 
L 122.65296 163.659615 
L 123.46663 160.030426 
L 124.280301 82.044023 
L 125.093971 67.271611 
L 125.907642 250.607117 
L 126.721312 166.79042 
L 127.534983 173.339372 
L 128.348653 162.62974 
L 129.162324 168.70057 
L 129.975995 126.498736 
L 130.789665 162.974556 
L 131.603336 154.185501 
L 132.417006 249.152742 
L 133.230677 67.49358 
L 134.044347 53.568 
L 134.858018 111.490924 
L 135.671688 229.702331 
L 136.485359 77.109644 
L 137.299029 223.192279 
L 138.1127 67.969709 
L 138.92637 164.086365 
L 139.740041 274.929745 
L 140.553712 167.316178 
L 141.367382 263.758203 
L 142.181053 166.153825 
L 142.994723 251.965854 
L 143.808394 192.744405 
L 144.622064 112.644252 
L 145.435735 246.010662 
L 146.249405 168.861977 
L 147.063076 170.665806 
L 147.876746 230.364036 
L 148.690417 130.036243 
L 149.504087 178.725008 
L 150.317758 170.566073 
L 151.131429 227.875072 
L 151.945099 167.822879 
L 152.75877 244.808033 
L 153.57244 91.093105 
L 154.386111 127.649779 
L 155.199781 82.727224 
L 156.013452 183.182826 
L 156.827122 139.27264 
L 157.640793 173.832296 
L 158.454463 171.794064 
L 159.268134 170.669432 
L 160.081805 111.20483 
L 160.895475 171.066848 
L 161.709146 196.651621 
L 162.522816 95.39457 
L 163.336487 173.69633 
L 164.150157 196.790169 
L 164.963828 171.099936 
L 165.777498 197.514446 
L 166.591169 98.092714 
L 167.404839 68.174934 
L 168.21851 170.322698 
L 169.03218 67.656455 
L 169.845851 153.21713 
L 170.659522 112.541007 
L 171.473192 176.63682 
L 172.286863 160.577163 
L 173.100533 269.777096 
L 173.914204 169.85122 
L 174.727874 174.627891 
L 175.541545 166.40448 
L 176.355215 207.731599 
L 177.168886 113.686886 
L 177.982556 82.885765 
L 179.609897 258.435294 
L 180.423568 63.213541 
L 181.237239 225.417037 
L 182.050909 71.691175 
L 182.86458 110.252228 
L 183.67825 171.3326 
L 184.491921 68.563576 
L 185.305591 172.772674 
L 186.119262 174.228645 
L 186.932932 255.295219 
L 187.746603 83.608394 
L 188.560273 156.81383 
L 189.373944 145.143476 
L 190.187614 171.781518 
L 191.001285 143.562085 
L 191.814956 174.944704 
L 192.628626 218.809923 
L 193.442297 111.934567 
L 194.255967 198.481924 
L 195.069638 157.892663 
L 195.883308 173.756683 
L 196.696979 174.13901 
L 197.510649 171.030975 
L 198.32432 265.611945 
L 199.13799 232.44505 
L 199.951661 233.647034 
L 200.765332 142.50458 
L 201.579002 111.970357 
L 202.392673 172.559558 
L 203.206343 203.476106 
L 204.020014 98.726388 
L 204.833684 122.45055 
L 205.647355 218.642219 
L 206.461025 255.373818 
L 207.274696 143.974901 
L 208.088366 175.548757 
L 208.902037 174.162966 
L 209.715707 114.357762 
L 210.529378 83.484283 
L 211.343049 172.320849 
L 212.156719 173.04941 
L 212.97039 159.42886 
L 213.78406 233.663852 
L 214.597731 53.568 
L 215.411401 98.438955 
L 216.225072 97.717046 
L 217.038742 266.154546 
L 217.852413 127.792253 
L 218.666083 268.029746 
L 219.479754 173.127406 
L 220.293424 97.188359 
L 221.107095 149.457499 
L 221.920766 174.502585 
L 222.734436 172.15655 
L 223.548107 204.868662 
L 224.361777 176.115254 
L 225.175448 221.844441 
L 225.989118 84.246146 
L 226.802789 261.592582 
L 227.616459 175.414381 
L 228.43013 173.792845 
L 229.2438 91.573468 
L 230.057471 176.662547 
L 230.871141 171.23721 
L 231.684812 175.890741 
L 232.498483 98.790618 
L 233.312153 174.491378 
L 234.125824 84.316283 
L 234.939494 282.808587 
L 235.753165 175.34759 
L 236.566835 173.043002 
L 237.380506 172.990581 
L 238.194176 114.468948 
L 239.007847 207.109306 
L 239.821517 200.137527 
L 240.635188 105.04241 
L 241.448859 203.578674 
L 242.262529 236.106012 
L 243.0762 176.713224 
L 243.88987 173.089414 
L 244.703541 83.408763 
L 245.517211 110.644652 
L 246.330882 176.666631 
L 247.144552 173.398364 
L 247.958223 255.956871 
L 248.771893 175.813256 
L 250.399234 239.338984 
L 251.212905 76.423186 
L 252.026576 112.029148 
L 252.840246 173.090283 
L 253.653917 172.661758 
L 254.467587 86.538421 
L 255.281258 162.89501 
L 256.094928 220.710369 
L 256.908599 172.280608 
L 257.722269 67.058446 
L 258.53594 218.884557 
L 259.34961 114.571106 
L 260.163281 177.094217 
L 260.976951 174.619477 
L 261.790622 225.761005 
L 262.604293 145.513399 
L 263.417963 271.864863 
L 264.231634 147.638634 
L 265.045304 235.433582 
L 265.858975 68.170098 
L 266.672645 210.937227 
L 267.486316 237.592583 
L 268.299986 178.545039 
L 269.113657 231.578518 
L 269.927327 175.343606 
L 270.740998 216.755683 
L 271.554668 132.680042 
L 272.368339 243.741377 
L 273.18201 259.769602 
L 273.99568 226.074383 
L 274.809351 172.792937 
L 275.623021 147.641883 
L 276.436692 178.405977 
L 277.250362 250.772942 
L 278.064033 148.698165 
L 278.877703 243.636685 
L 279.691374 289.774389 
L 280.505044 194.642257 
L 281.318715 285.363255 
L 282.132386 158.904846 
L 282.946056 83.641123 
L 283.759727 250.494337 
L 284.573397 100.371767 
L 285.387068 53.568 
L 286.200738 191.815321 
L 287.014409 58.636198 
L 287.828079 277.444891 
L 288.64175 164.928365 
L 289.45542 230.766203 
L 290.269091 146.018265 
L 291.082761 178.112644 
L 291.896432 285.983032 
L 292.710103 213.482262 
L 293.523773 210.518985 
L 294.337444 252.900598 
L 295.151114 231.416156 
L 295.964785 202.613408 
L 296.778455 286.77005 
L 297.592126 145.772535 
L 298.405796 211.751499 
L 299.219467 176.4135 
L 300.033137 182.184221 
L 300.846808 176.18956 
L 301.660478 176.07561 
L 302.474149 259.879628 
L 303.28782 99.843095 
L 304.10149 69.335393 
L 304.915161 209.378658 
L 305.728831 236.777849 
L 306.542502 178.884585 
L 307.356172 178.166446 
L 308.169843 82.094686 
L 308.983513 145.325127 
L 309.797184 84.421221 
L 310.610854 240.301119 
L 311.424525 74.958227 
L 312.238195 182.181865 
L 313.051866 163.980563 
L 313.865537 176.387491 
L 314.679207 178.367109 
L 315.492878 172.550002 
L 317.120219 292.040352 
L 317.933889 174.140898 
L 318.74756 95.840063 
L 319.56123 177.883288 
L 320.374901 178.324762 
L 321.188571 174.122204 
L 322.002242 174.868821 
L 322.815913 179.524996 
L 323.629583 63.507049 
L 324.443254 180.17877 
L 325.256924 179.798295 
L 326.070595 147.187708 
L 326.884265 102.263549 
L 327.697936 245.806955 
L 328.511606 115.201277 
L 329.325277 84.03379 
L 330.138947 241.299471 
L 330.952618 178.662948 
L 331.766288 269.837068 
L 332.579959 114.114785 
L 333.39363 114.180466 
L 334.2073 178.958649 
L 335.020971 148.537737 
L 335.834641 264.651758 
L 336.648312 213.262661 
L 337.461982 133.964908 
L 338.275653 134.261033 
L 339.089323 53.568 
L 339.902994 241.489492 
L 340.716664 273.712875 
L 341.530335 178.044327 
L 342.344005 115.794273 
L 343.157676 71.816683 
L 343.971347 177.736944 
L 344.785017 147.959853 
L 345.598688 177.435347 
L 346.412358 179.070668 
L 347.226029 213.996734 
L 348.039699 53.568 
L 348.85337 214.425125 
L 349.66704 183.431739 
L 350.480711 295.488 
L 351.294381 131.829949 
L 352.108052 100.747221 
L 352.921722 114.962192 
L 353.735393 179.78615 
L 354.549064 207.171652 
L 355.362734 180.797135 
L 356.176405 200.444216 
L 356.990075 263.231485 
L 357.803746 243.712921 
L 358.617416 241.430285 
L 359.431087 178.887455 
L 360.244757 182.585733 
L 361.058428 180.969599 
L 361.872098 277.979896 
L 362.685769 147.128873 
L 363.49944 260.137335 
L 364.31311 179.098403 
L 365.126781 182.520283 
L 365.940451 53.568 
L 366.754122 69.717146 
L 367.567792 174.299479 
L 368.381463 212.926561 
L 369.195133 179.683481 
L 370.008804 85.581521 
L 370.822474 209.200676 
L 371.636145 180.677901 
L 372.449815 199.085778 
L 373.263486 53.568 
L 374.077157 117.716672 
L 374.890827 264.155263 
L 375.704498 59.441572 
L 376.518168 98.140799 
L 377.331839 249.82843 
L 378.145509 179.75475 
L 378.95918 214.419428 
L 379.77285 282.843622 
L 380.586521 216.069853 
L 381.400191 274.976411 
L 382.213862 247.26527 
L 383.027532 135.256511 
L 383.841203 69.273372 
L 384.654874 187.922705 
L 385.468544 243.292565 
L 386.282215 177.469123 
L 387.095885 97.061625 
L 387.909556 53.568 
L 388.723226 184.916898 
L 389.536897 243.752863 
L 390.350567 163.036357 
L 391.164238 177.714942 
L 391.977908 210.948574 
L 392.791579 210.158679 
L 393.605249 133.952818 
L 394.41892 185.300869 
L 395.232591 182.179327 
L 396.046261 245.35123 
L 396.859932 133.485251 
L 397.673602 277.523203 
L 398.487273 182.951164 
L 398.487273 182.951164 
" style="fill:none;stroke:#ff7f0e;stroke-linecap:square;stroke-width:1.5;"/>
   </g>
   <g id="patch_3">
    <path d="M 57.6 307.584 
L 57.6 41.472 
" style="fill:none;stroke:#000000;stroke-linecap:square;stroke-linejoin:miter;stroke-width:0.8;"/>
   </g>
   <g id="patch_4">
    <path d="M 414.72 307.584 
L 414.72 41.472 
" style="fill:none;stroke:#000000;stroke-linecap:square;stroke-linejoin:miter;stroke-width:0.8;"/>
   </g>
   <g id="patch_5">
    <path d="M 57.6 307.584 
L 414.72 307.584 
" style="fill:none;stroke:#000000;stroke-linecap:square;stroke-linejoin:miter;stroke-width:0.8;"/>
   </g>
   <g id="patch_6">
    <path d="M 57.6 41.472 
L 414.72 41.472 
" style="fill:none;stroke:#000000;stroke-linecap:square;stroke-linejoin:miter;stroke-width:0.8;"/>
   </g>
   <g id="legend_1">
    <g id="patch_7">
     <path d="M 64.6 302.584 
L 168.475 302.584 
Q 170.475 302.584 170.475 300.584 
L 170.475 272.22775 
Q 170.475 270.22775 168.475 270.22775 
L 64.6 270.22775 
Q 62.6 270.22775 62.6 272.22775 
L 62.6 300.584 
Q 62.6 302.584 64.6 302.584 
z
" style="fill:#ffffff;opacity:0.8;stroke:#cccccc;stroke-linejoin:miter;"/>
    </g>
    <g id="line2d_21">
     <path d="M 66.6 278.326187 
L 86.6 278.326187 
" style="fill:none;stroke:#1f77b4;stroke-linecap:square;stroke-width:1.5;"/>
    </g>
    <g id="line2d_22"/>
    <g id="text_21">
     <!-- Train loss -->
     <g transform="translate(94.6 281.826187)scale(0.1 -0.1)">
      <defs>
       <path d="M -19 4666 
L 3928 4666 
L 3928 4134 
L 2272 4134 
L 2272 0 
L 1638 0 
L 1638 4134 
L -19 4134 
L -19 4666 
z
" id="DejaVuSans-54" transform="scale(0.015625)"/>
       <path d="M 2631 2963 
Q 2534 3019 2420 3045 
Q 2306 3072 2169 3072 
Q 1681 3072 1420 2755 
Q 1159 2438 1159 1844 
L 1159 0 
L 581 0 
L 581 3500 
L 1159 3500 
L 1159 2956 
Q 1341 3275 1631 3429 
Q 1922 3584 2338 3584 
Q 2397 3584 2469 3576 
Q 2541 3569 2628 3553 
L 2631 2963 
z
" id="DejaVuSans-72" transform="scale(0.015625)"/>
       <path d="M 2194 1759 
Q 1497 1759 1228 1600 
Q 959 1441 959 1056 
Q 959 750 1161 570 
Q 1363 391 1709 391 
Q 2188 391 2477 730 
Q 2766 1069 2766 1631 
L 2766 1759 
L 2194 1759 
z
M 3341 1997 
L 3341 0 
L 2766 0 
L 2766 531 
Q 2569 213 2275 61 
Q 1981 -91 1556 -91 
Q 1019 -91 701 211 
Q 384 513 384 1019 
Q 384 1609 779 1909 
Q 1175 2209 1959 2209 
L 2766 2209 
L 2766 2266 
Q 2766 2663 2505 2880 
Q 2244 3097 1772 3097 
Q 1472 3097 1187 3025 
Q 903 2953 641 2809 
L 641 3341 
Q 956 3463 1253 3523 
Q 1550 3584 1831 3584 
Q 2591 3584 2966 3190 
Q 3341 2797 3341 1997 
z
" id="DejaVuSans-61" transform="scale(0.015625)"/>
       <path d="M 603 3500 
L 1178 3500 
L 1178 0 
L 603 0 
L 603 3500 
z
M 603 4863 
L 1178 4863 
L 1178 4134 
L 603 4134 
L 603 4863 
z
" id="DejaVuSans-69" transform="scale(0.015625)"/>
       <path d="M 3513 2113 
L 3513 0 
L 2938 0 
L 2938 2094 
Q 2938 2591 2744 2837 
Q 2550 3084 2163 3084 
Q 1697 3084 1428 2787 
Q 1159 2491 1159 1978 
L 1159 0 
L 581 0 
L 581 3500 
L 1159 3500 
L 1159 2956 
Q 1366 3272 1645 3428 
Q 1925 3584 2291 3584 
Q 2894 3584 3203 3211 
Q 3513 2838 3513 2113 
z
" id="DejaVuSans-6e" transform="scale(0.015625)"/>
       <path id="DejaVuSans-20" transform="scale(0.015625)"/>
       <path d="M 603 4863 
L 1178 4863 
L 1178 0 
L 603 0 
L 603 4863 
z
" id="DejaVuSans-6c" transform="scale(0.015625)"/>
      </defs>
      <use xlink:href="#DejaVuSans-54"/>
      <use x="46.333984" xlink:href="#DejaVuSans-72"/>
      <use x="87.447266" xlink:href="#DejaVuSans-61"/>
      <use x="148.726562" xlink:href="#DejaVuSans-69"/>
      <use x="176.509766" xlink:href="#DejaVuSans-6e"/>
      <use x="239.888672" xlink:href="#DejaVuSans-20"/>
      <use x="271.675781" xlink:href="#DejaVuSans-6c"/>
      <use x="299.458984" xlink:href="#DejaVuSans-6f"/>
      <use x="360.640625" xlink:href="#DejaVuSans-73"/>
      <use x="412.740234" xlink:href="#DejaVuSans-73"/>
     </g>
    </g>
    <g id="line2d_23">
     <path d="M 66.6 293.004312 
L 86.6 293.004312 
" style="fill:none;stroke:#ff7f0e;stroke-linecap:square;stroke-width:1.5;"/>
    </g>
    <g id="line2d_24"/>
    <g id="text_22">
     <!-- Validation loss -->
     <g transform="translate(94.6 296.504312)scale(0.1 -0.1)">
      <defs>
       <path d="M 1831 0 
L 50 4666 
L 709 4666 
L 2188 738 
L 3669 4666 
L 4325 4666 
L 2547 0 
L 1831 0 
z
" id="DejaVuSans-56" transform="scale(0.015625)"/>
       <path d="M 2906 2969 
L 2906 4863 
L 3481 4863 
L 3481 0 
L 2906 0 
L 2906 525 
Q 2725 213 2448 61 
Q 2172 -91 1784 -91 
Q 1150 -91 751 415 
Q 353 922 353 1747 
Q 353 2572 751 3078 
Q 1150 3584 1784 3584 
Q 2172 3584 2448 3432 
Q 2725 3281 2906 2969 
z
M 947 1747 
Q 947 1113 1208 752 
Q 1469 391 1925 391 
Q 2381 391 2643 752 
Q 2906 1113 2906 1747 
Q 2906 2381 2643 2742 
Q 2381 3103 1925 3103 
Q 1469 3103 1208 2742 
Q 947 2381 947 1747 
z
" id="DejaVuSans-64" transform="scale(0.015625)"/>
       <path d="M 1172 4494 
L 1172 3500 
L 2356 3500 
L 2356 3053 
L 1172 3053 
L 1172 1153 
Q 1172 725 1289 603 
Q 1406 481 1766 481 
L 2356 481 
L 2356 0 
L 1766 0 
Q 1100 0 847 248 
Q 594 497 594 1153 
L 594 3053 
L 172 3053 
L 172 3500 
L 594 3500 
L 594 4494 
L 1172 4494 
z
" id="DejaVuSans-74" transform="scale(0.015625)"/>
      </defs>
      <use xlink:href="#DejaVuSans-56"/>
      <use x="60.658203" xlink:href="#DejaVuSans-61"/>
      <use x="121.9375" xlink:href="#DejaVuSans-6c"/>
      <use x="149.720703" xlink:href="#DejaVuSans-69"/>
      <use x="177.503906" xlink:href="#DejaVuSans-64"/>
      <use x="240.980469" xlink:href="#DejaVuSans-61"/>
      <use x="302.259766" xlink:href="#DejaVuSans-74"/>
      <use x="341.46875" xlink:href="#DejaVuSans-69"/>
      <use x="369.251953" xlink:href="#DejaVuSans-6f"/>
      <use x="430.433594" xlink:href="#DejaVuSans-6e"/>
      <use x="493.8125" xlink:href="#DejaVuSans-20"/>
      <use x="525.599609" xlink:href="#DejaVuSans-6c"/>
      <use x="553.382812" xlink:href="#DejaVuSans-6f"/>
      <use x="614.564453" xlink:href="#DejaVuSans-73"/>
      <use x="666.664062" xlink:href="#DejaVuSans-73"/>
     </g>
    </g>
   </g>
  </g>
 </g>
 <defs>
  <clipPath id="pa136f72791">
   <rect height="266.112" width="357.12" x="57.6" y="41.472"/>
  </clipPath>
 </defs>
</svg>
