<?xml version="1.0" encoding="utf-8" standalone="no"?>
<!DOCTYPE svg PUBLIC "-//W3C//DTD SVG 1.1//EN"
  "http://www.w3.org/Graphics/SVG/1.1/DTD/svg11.dtd">
<svg height="345.6pt" version="1.1" viewBox="0 0 460.8 345.6" width="460.8pt" xmlns="http://www.w3.org/2000/svg" xmlns:xlink="http://www.w3.org/1999/xlink">
 <metadata>
  <rdf:RDF xmlns:cc="http://creativecommons.org/ns#" xmlns:dc="http://purl.org/dc/elements/1.1/" xmlns:rdf="http://www.w3.org/1999/02/22-rdf-syntax-ns#">
   <cc:Work>
    <dc:type rdf:resource="http://purl.org/dc/dcmitype/StillImage"/>
    <dc:date>2021-07-16T20:22:52.138961</dc:date>
    <dc:format>image/svg+xml</dc:format>
    <dc:creator>
     <cc:Agent>
      <dc:title>Matplotlib v3.4.2, https://matplotlib.org/</dc:title>
     </cc:Agent>
    </dc:creator>
   </cc:Work>
  </rdf:RDF>
 </metadata>
 <defs>
  <style type="text/css">*{stroke-linecap:butt;stroke-linejoin:round;}</style>
 </defs>
 <g id="figure_1">
  <g id="patch_1">
   <path d="M 0 345.6 
L 460.8 345.6 
L 460.8 0 
L 0 0 
z
" style="fill:#ffffff;"/>
  </g>
  <g id="axes_1">
   <g id="patch_2">
    <path d="M 57.6 307.584 
L 414.72 307.584 
L 414.72 41.472 
L 57.6 41.472 
z
" style="fill:#ffffff;"/>
   </g>
   <g id="matplotlib.axis_1">
    <g id="xtick_1">
     <g id="line2d_1">
      <defs>
       <path d="M 0 0 
L 0 3.5 
" id="mc17b7dad6a" style="stroke:#000000;stroke-width:0.8;"/>
      </defs>
      <g>
       <use style="stroke:#000000;stroke-width:0.8;" x="73.019057" xlink:href="#mc17b7dad6a" y="307.584"/>
      </g>
     </g>
     <g id="text_1">
      <!-- 0 -->
      <g transform="translate(69.837807 322.182437)scale(0.1 -0.1)">
       <defs>
        <path d="M 2034 4250 
Q 1547 4250 1301 3770 
Q 1056 3291 1056 2328 
Q 1056 1369 1301 889 
Q 1547 409 2034 409 
Q 2525 409 2770 889 
Q 3016 1369 3016 2328 
Q 3016 3291 2770 3770 
Q 2525 4250 2034 4250 
z
M 2034 4750 
Q 2819 4750 3233 4129 
Q 3647 3509 3647 2328 
Q 3647 1150 3233 529 
Q 2819 -91 2034 -91 
Q 1250 -91 836 529 
Q 422 1150 422 2328 
Q 422 3509 836 4129 
Q 1250 4750 2034 4750 
z
" id="DejaVuSans-30" transform="scale(0.015625)"/>
       </defs>
       <use xlink:href="#DejaVuSans-30"/>
      </g>
     </g>
    </g>
    <g id="xtick_2">
     <g id="line2d_2">
      <g>
       <use style="stroke:#000000;stroke-width:0.8;" x="113.702584" xlink:href="#mc17b7dad6a" y="307.584"/>
      </g>
     </g>
     <g id="text_2">
      <!-- 50 -->
      <g transform="translate(107.340084 322.182437)scale(0.1 -0.1)">
       <defs>
        <path d="M 691 4666 
L 3169 4666 
L 3169 4134 
L 1269 4134 
L 1269 2991 
Q 1406 3038 1543 3061 
Q 1681 3084 1819 3084 
Q 2600 3084 3056 2656 
Q 3513 2228 3513 1497 
Q 3513 744 3044 326 
Q 2575 -91 1722 -91 
Q 1428 -91 1123 -41 
Q 819 9 494 109 
L 494 744 
Q 775 591 1075 516 
Q 1375 441 1709 441 
Q 2250 441 2565 725 
Q 2881 1009 2881 1497 
Q 2881 1984 2565 2268 
Q 2250 2553 1709 2553 
Q 1456 2553 1204 2497 
Q 953 2441 691 2322 
L 691 4666 
z
" id="DejaVuSans-35" transform="scale(0.015625)"/>
       </defs>
       <use xlink:href="#DejaVuSans-35"/>
       <use x="63.623047" xlink:href="#DejaVuSans-30"/>
      </g>
     </g>
    </g>
    <g id="xtick_3">
     <g id="line2d_3">
      <g>
       <use style="stroke:#000000;stroke-width:0.8;" x="154.386111" xlink:href="#mc17b7dad6a" y="307.584"/>
      </g>
     </g>
     <g id="text_3">
      <!-- 100 -->
      <g transform="translate(144.842361 322.182437)scale(0.1 -0.1)">
       <defs>
        <path d="M 794 531 
L 1825 531 
L 1825 4091 
L 703 3866 
L 703 4441 
L 1819 4666 
L 2450 4666 
L 2450 531 
L 3481 531 
L 3481 0 
L 794 0 
L 794 531 
z
" id="DejaVuSans-31" transform="scale(0.015625)"/>
       </defs>
       <use xlink:href="#DejaVuSans-31"/>
       <use x="63.623047" xlink:href="#DejaVuSans-30"/>
       <use x="127.246094" xlink:href="#DejaVuSans-30"/>
      </g>
     </g>
    </g>
    <g id="xtick_4">
     <g id="line2d_4">
      <g>
       <use style="stroke:#000000;stroke-width:0.8;" x="195.069638" xlink:href="#mc17b7dad6a" y="307.584"/>
      </g>
     </g>
     <g id="text_4">
      <!-- 150 -->
      <g transform="translate(185.525888 322.182437)scale(0.1 -0.1)">
       <use xlink:href="#DejaVuSans-31"/>
       <use x="63.623047" xlink:href="#DejaVuSans-35"/>
       <use x="127.246094" xlink:href="#DejaVuSans-30"/>
      </g>
     </g>
    </g>
    <g id="xtick_5">
     <g id="line2d_5">
      <g>
       <use style="stroke:#000000;stroke-width:0.8;" x="235.753165" xlink:href="#mc17b7dad6a" y="307.584"/>
      </g>
     </g>
     <g id="text_5">
      <!-- 200 -->
      <g transform="translate(226.209415 322.182437)scale(0.1 -0.1)">
       <defs>
        <path d="M 1228 531 
L 3431 531 
L 3431 0 
L 469 0 
L 469 531 
Q 828 903 1448 1529 
Q 2069 2156 2228 2338 
Q 2531 2678 2651 2914 
Q 2772 3150 2772 3378 
Q 2772 3750 2511 3984 
Q 2250 4219 1831 4219 
Q 1534 4219 1204 4116 
Q 875 4013 500 3803 
L 500 4441 
Q 881 4594 1212 4672 
Q 1544 4750 1819 4750 
Q 2544 4750 2975 4387 
Q 3406 4025 3406 3419 
Q 3406 3131 3298 2873 
Q 3191 2616 2906 2266 
Q 2828 2175 2409 1742 
Q 1991 1309 1228 531 
z
" id="DejaVuSans-32" transform="scale(0.015625)"/>
       </defs>
       <use xlink:href="#DejaVuSans-32"/>
       <use x="63.623047" xlink:href="#DejaVuSans-30"/>
       <use x="127.246094" xlink:href="#DejaVuSans-30"/>
      </g>
     </g>
    </g>
    <g id="xtick_6">
     <g id="line2d_6">
      <g>
       <use style="stroke:#000000;stroke-width:0.8;" x="276.436692" xlink:href="#mc17b7dad6a" y="307.584"/>
      </g>
     </g>
     <g id="text_6">
      <!-- 250 -->
      <g transform="translate(266.892942 322.182437)scale(0.1 -0.1)">
       <use xlink:href="#DejaVuSans-32"/>
       <use x="63.623047" xlink:href="#DejaVuSans-35"/>
       <use x="127.246094" xlink:href="#DejaVuSans-30"/>
      </g>
     </g>
    </g>
    <g id="xtick_7">
     <g id="line2d_7">
      <g>
       <use style="stroke:#000000;stroke-width:0.8;" x="317.120219" xlink:href="#mc17b7dad6a" y="307.584"/>
      </g>
     </g>
     <g id="text_7">
      <!-- 300 -->
      <g transform="translate(307.576469 322.182437)scale(0.1 -0.1)">
       <defs>
        <path d="M 2597 2516 
Q 3050 2419 3304 2112 
Q 3559 1806 3559 1356 
Q 3559 666 3084 287 
Q 2609 -91 1734 -91 
Q 1441 -91 1130 -33 
Q 819 25 488 141 
L 488 750 
Q 750 597 1062 519 
Q 1375 441 1716 441 
Q 2309 441 2620 675 
Q 2931 909 2931 1356 
Q 2931 1769 2642 2001 
Q 2353 2234 1838 2234 
L 1294 2234 
L 1294 2753 
L 1863 2753 
Q 2328 2753 2575 2939 
Q 2822 3125 2822 3475 
Q 2822 3834 2567 4026 
Q 2313 4219 1838 4219 
Q 1578 4219 1281 4162 
Q 984 4106 628 3988 
L 628 4550 
Q 988 4650 1302 4700 
Q 1616 4750 1894 4750 
Q 2613 4750 3031 4423 
Q 3450 4097 3450 3541 
Q 3450 3153 3228 2886 
Q 3006 2619 2597 2516 
z
" id="DejaVuSans-33" transform="scale(0.015625)"/>
       </defs>
       <use xlink:href="#DejaVuSans-33"/>
       <use x="63.623047" xlink:href="#DejaVuSans-30"/>
       <use x="127.246094" xlink:href="#DejaVuSans-30"/>
      </g>
     </g>
    </g>
    <g id="xtick_8">
     <g id="line2d_8">
      <g>
       <use style="stroke:#000000;stroke-width:0.8;" x="357.803746" xlink:href="#mc17b7dad6a" y="307.584"/>
      </g>
     </g>
     <g id="text_8">
      <!-- 350 -->
      <g transform="translate(348.259996 322.182437)scale(0.1 -0.1)">
       <use xlink:href="#DejaVuSans-33"/>
       <use x="63.623047" xlink:href="#DejaVuSans-35"/>
       <use x="127.246094" xlink:href="#DejaVuSans-30"/>
      </g>
     </g>
    </g>
    <g id="xtick_9">
     <g id="line2d_9">
      <g>
       <use style="stroke:#000000;stroke-width:0.8;" x="398.487273" xlink:href="#mc17b7dad6a" y="307.584"/>
      </g>
     </g>
     <g id="text_9">
      <!-- 400 -->
      <g transform="translate(388.943523 322.182437)scale(0.1 -0.1)">
       <defs>
        <path d="M 2419 4116 
L 825 1625 
L 2419 1625 
L 2419 4116 
z
M 2253 4666 
L 3047 4666 
L 3047 1625 
L 3713 1625 
L 3713 1100 
L 3047 1100 
L 3047 0 
L 2419 0 
L 2419 1100 
L 313 1100 
L 313 1709 
L 2253 4666 
z
" id="DejaVuSans-34" transform="scale(0.015625)"/>
       </defs>
       <use xlink:href="#DejaVuSans-34"/>
       <use x="63.623047" xlink:href="#DejaVuSans-30"/>
       <use x="127.246094" xlink:href="#DejaVuSans-30"/>
      </g>
     </g>
    </g>
    <g id="text_10">
     <!-- Epoch -->
     <g transform="translate(213.193594 339.659781)scale(0.15 -0.15)">
      <defs>
       <path d="M 628 4666 
L 3578 4666 
L 3578 4134 
L 1259 4134 
L 1259 2753 
L 3481 2753 
L 3481 2222 
L 1259 2222 
L 1259 531 
L 3634 531 
L 3634 0 
L 628 0 
L 628 4666 
z
" id="DejaVuSans-45" transform="scale(0.015625)"/>
       <path d="M 1159 525 
L 1159 -1331 
L 581 -1331 
L 581 3500 
L 1159 3500 
L 1159 2969 
Q 1341 3281 1617 3432 
Q 1894 3584 2278 3584 
Q 2916 3584 3314 3078 
Q 3713 2572 3713 1747 
Q 3713 922 3314 415 
Q 2916 -91 2278 -91 
Q 1894 -91 1617 61 
Q 1341 213 1159 525 
z
M 3116 1747 
Q 3116 2381 2855 2742 
Q 2594 3103 2138 3103 
Q 1681 3103 1420 2742 
Q 1159 2381 1159 1747 
Q 1159 1113 1420 752 
Q 1681 391 2138 391 
Q 2594 391 2855 752 
Q 3116 1113 3116 1747 
z
" id="DejaVuSans-70" transform="scale(0.015625)"/>
       <path d="M 1959 3097 
Q 1497 3097 1228 2736 
Q 959 2375 959 1747 
Q 959 1119 1226 758 
Q 1494 397 1959 397 
Q 2419 397 2687 759 
Q 2956 1122 2956 1747 
Q 2956 2369 2687 2733 
Q 2419 3097 1959 3097 
z
M 1959 3584 
Q 2709 3584 3137 3096 
Q 3566 2609 3566 1747 
Q 3566 888 3137 398 
Q 2709 -91 1959 -91 
Q 1206 -91 779 398 
Q 353 888 353 1747 
Q 353 2609 779 3096 
Q 1206 3584 1959 3584 
z
" id="DejaVuSans-6f" transform="scale(0.015625)"/>
       <path d="M 3122 3366 
L 3122 2828 
Q 2878 2963 2633 3030 
Q 2388 3097 2138 3097 
Q 1578 3097 1268 2742 
Q 959 2388 959 1747 
Q 959 1106 1268 751 
Q 1578 397 2138 397 
Q 2388 397 2633 464 
Q 2878 531 3122 666 
L 3122 134 
Q 2881 22 2623 -34 
Q 2366 -91 2075 -91 
Q 1284 -91 818 406 
Q 353 903 353 1747 
Q 353 2603 823 3093 
Q 1294 3584 2113 3584 
Q 2378 3584 2631 3529 
Q 2884 3475 3122 3366 
z
" id="DejaVuSans-63" transform="scale(0.015625)"/>
       <path d="M 3513 2113 
L 3513 0 
L 2938 0 
L 2938 2094 
Q 2938 2591 2744 2837 
Q 2550 3084 2163 3084 
Q 1697 3084 1428 2787 
Q 1159 2491 1159 1978 
L 1159 0 
L 581 0 
L 581 4863 
L 1159 4863 
L 1159 2956 
Q 1366 3272 1645 3428 
Q 1925 3584 2291 3584 
Q 2894 3584 3203 3211 
Q 3513 2838 3513 2113 
z
" id="DejaVuSans-68" transform="scale(0.015625)"/>
      </defs>
      <use xlink:href="#DejaVuSans-45"/>
      <use x="63.183594" xlink:href="#DejaVuSans-70"/>
      <use x="126.660156" xlink:href="#DejaVuSans-6f"/>
      <use x="187.841797" xlink:href="#DejaVuSans-63"/>
      <use x="242.822266" xlink:href="#DejaVuSans-68"/>
     </g>
    </g>
   </g>
   <g id="matplotlib.axis_2">
    <g id="ytick_1">
     <g id="line2d_10">
      <defs>
       <path d="M 0 0 
L -3.5 0 
" id="m7a0013c389" style="stroke:#000000;stroke-width:0.8;"/>
      </defs>
      <g>
       <use style="stroke:#000000;stroke-width:0.8;" x="57.6" xlink:href="#m7a0013c389" y="281.158416"/>
      </g>
     </g>
     <g id="text_11">
      <!-- −1000 -->
      <g transform="translate(16.770313 284.957635)scale(0.1 -0.1)">
       <defs>
        <path d="M 678 2272 
L 4684 2272 
L 4684 1741 
L 678 1741 
L 678 2272 
z
" id="DejaVuSans-2212" transform="scale(0.015625)"/>
       </defs>
       <use xlink:href="#DejaVuSans-2212"/>
       <use x="83.789062" xlink:href="#DejaVuSans-31"/>
       <use x="147.412109" xlink:href="#DejaVuSans-30"/>
       <use x="211.035156" xlink:href="#DejaVuSans-30"/>
       <use x="274.658203" xlink:href="#DejaVuSans-30"/>
      </g>
     </g>
    </g>
    <g id="ytick_2">
     <g id="line2d_11">
      <g>
       <use style="stroke:#000000;stroke-width:0.8;" x="57.6" xlink:href="#m7a0013c389" y="231.21435"/>
      </g>
     </g>
     <g id="text_12">
      <!-- −800 -->
      <g transform="translate(23.132812 235.013568)scale(0.1 -0.1)">
       <defs>
        <path d="M 2034 2216 
Q 1584 2216 1326 1975 
Q 1069 1734 1069 1313 
Q 1069 891 1326 650 
Q 1584 409 2034 409 
Q 2484 409 2743 651 
Q 3003 894 3003 1313 
Q 3003 1734 2745 1975 
Q 2488 2216 2034 2216 
z
M 1403 2484 
Q 997 2584 770 2862 
Q 544 3141 544 3541 
Q 544 4100 942 4425 
Q 1341 4750 2034 4750 
Q 2731 4750 3128 4425 
Q 3525 4100 3525 3541 
Q 3525 3141 3298 2862 
Q 3072 2584 2669 2484 
Q 3125 2378 3379 2068 
Q 3634 1759 3634 1313 
Q 3634 634 3220 271 
Q 2806 -91 2034 -91 
Q 1263 -91 848 271 
Q 434 634 434 1313 
Q 434 1759 690 2068 
Q 947 2378 1403 2484 
z
M 1172 3481 
Q 1172 3119 1398 2916 
Q 1625 2713 2034 2713 
Q 2441 2713 2670 2916 
Q 2900 3119 2900 3481 
Q 2900 3844 2670 4047 
Q 2441 4250 2034 4250 
Q 1625 4250 1398 4047 
Q 1172 3844 1172 3481 
z
" id="DejaVuSans-38" transform="scale(0.015625)"/>
       </defs>
       <use xlink:href="#DejaVuSans-2212"/>
       <use x="83.789062" xlink:href="#DejaVuSans-38"/>
       <use x="147.412109" xlink:href="#DejaVuSans-30"/>
       <use x="211.035156" xlink:href="#DejaVuSans-30"/>
      </g>
     </g>
    </g>
    <g id="ytick_3">
     <g id="line2d_12">
      <g>
       <use style="stroke:#000000;stroke-width:0.8;" x="57.6" xlink:href="#m7a0013c389" y="181.270283"/>
      </g>
     </g>
     <g id="text_13">
      <!-- −600 -->
      <g transform="translate(23.132812 185.069502)scale(0.1 -0.1)">
       <defs>
        <path d="M 2113 2584 
Q 1688 2584 1439 2293 
Q 1191 2003 1191 1497 
Q 1191 994 1439 701 
Q 1688 409 2113 409 
Q 2538 409 2786 701 
Q 3034 994 3034 1497 
Q 3034 2003 2786 2293 
Q 2538 2584 2113 2584 
z
M 3366 4563 
L 3366 3988 
Q 3128 4100 2886 4159 
Q 2644 4219 2406 4219 
Q 1781 4219 1451 3797 
Q 1122 3375 1075 2522 
Q 1259 2794 1537 2939 
Q 1816 3084 2150 3084 
Q 2853 3084 3261 2657 
Q 3669 2231 3669 1497 
Q 3669 778 3244 343 
Q 2819 -91 2113 -91 
Q 1303 -91 875 529 
Q 447 1150 447 2328 
Q 447 3434 972 4092 
Q 1497 4750 2381 4750 
Q 2619 4750 2861 4703 
Q 3103 4656 3366 4563 
z
" id="DejaVuSans-36" transform="scale(0.015625)"/>
       </defs>
       <use xlink:href="#DejaVuSans-2212"/>
       <use x="83.789062" xlink:href="#DejaVuSans-36"/>
       <use x="147.412109" xlink:href="#DejaVuSans-30"/>
       <use x="211.035156" xlink:href="#DejaVuSans-30"/>
      </g>
     </g>
    </g>
    <g id="ytick_4">
     <g id="line2d_13">
      <g>
       <use style="stroke:#000000;stroke-width:0.8;" x="57.6" xlink:href="#m7a0013c389" y="131.326216"/>
      </g>
     </g>
     <g id="text_14">
      <!-- −400 -->
      <g transform="translate(23.132812 135.125435)scale(0.1 -0.1)">
       <use xlink:href="#DejaVuSans-2212"/>
       <use x="83.789062" xlink:href="#DejaVuSans-34"/>
       <use x="147.412109" xlink:href="#DejaVuSans-30"/>
       <use x="211.035156" xlink:href="#DejaVuSans-30"/>
      </g>
     </g>
    </g>
    <g id="ytick_5">
     <g id="line2d_14">
      <g>
       <use style="stroke:#000000;stroke-width:0.8;" x="57.6" xlink:href="#m7a0013c389" y="81.38215"/>
      </g>
     </g>
     <g id="text_15">
      <!-- −200 -->
      <g transform="translate(23.132812 85.181368)scale(0.1 -0.1)">
       <use xlink:href="#DejaVuSans-2212"/>
       <use x="83.789062" xlink:href="#DejaVuSans-32"/>
       <use x="147.412109" xlink:href="#DejaVuSans-30"/>
       <use x="211.035156" xlink:href="#DejaVuSans-30"/>
      </g>
     </g>
    </g>
    <g id="text_16">
     <!-- Loss -->
     <g transform="translate(9.650781 190.978781)rotate(-90)scale(0.15 -0.15)">
      <defs>
       <path d="M 628 4666 
L 1259 4666 
L 1259 531 
L 3531 531 
L 3531 0 
L 628 0 
L 628 4666 
z
" id="DejaVuSans-4c" transform="scale(0.015625)"/>
       <path d="M 2834 3397 
L 2834 2853 
Q 2591 2978 2328 3040 
Q 2066 3103 1784 3103 
Q 1356 3103 1142 2972 
Q 928 2841 928 2578 
Q 928 2378 1081 2264 
Q 1234 2150 1697 2047 
L 1894 2003 
Q 2506 1872 2764 1633 
Q 3022 1394 3022 966 
Q 3022 478 2636 193 
Q 2250 -91 1575 -91 
Q 1294 -91 989 -36 
Q 684 19 347 128 
L 347 722 
Q 666 556 975 473 
Q 1284 391 1588 391 
Q 1994 391 2212 530 
Q 2431 669 2431 922 
Q 2431 1156 2273 1281 
Q 2116 1406 1581 1522 
L 1381 1569 
Q 847 1681 609 1914 
Q 372 2147 372 2553 
Q 372 3047 722 3315 
Q 1072 3584 1716 3584 
Q 2034 3584 2315 3537 
Q 2597 3491 2834 3397 
z
" id="DejaVuSans-73" transform="scale(0.015625)"/>
      </defs>
      <use xlink:href="#DejaVuSans-4c"/>
      <use x="53.962891" xlink:href="#DejaVuSans-6f"/>
      <use x="115.144531" xlink:href="#DejaVuSans-73"/>
      <use x="167.244141" xlink:href="#DejaVuSans-73"/>
     </g>
    </g>
   </g>
   <g id="line2d_15">
    <path clip-path="url(#p537af7f973)" d="M 73.832727 56.882411 
L 74.646398 105.16175 
L 75.460068 110.369964 
L 76.273739 127.756934 
L 77.087409 140.458132 
L 77.90108 149.42686 
L 79.528421 161.349562 
L 80.342092 157.103911 
L 81.155762 161.42407 
L 81.969433 173.502809 
L 82.783103 174.21145 
L 83.596774 183.283532 
L 84.410444 177.520988 
L 85.224115 189.937468 
L 86.037785 191.71053 
L 86.851456 184.320007 
L 87.665126 188.28741 
L 88.478797 204.883319 
L 89.292468 191.2599 
L 90.106138 190.590076 
L 90.919809 195.027343 
L 91.733479 202.903458 
L 92.54715 203.375941 
L 93.36082 197.46493 
L 94.174491 211.601009 
L 94.988161 214.188695 
L 95.801832 210.198699 
L 96.615502 221.591538 
L 97.429173 213.175615 
L 98.242843 222.520889 
L 99.056514 223.274465 
L 99.870185 216.951691 
L 100.683855 217.073879 
L 101.497526 221.980721 
L 102.311196 185.098652 
L 103.124867 217.738437 
L 103.938537 226.187703 
L 104.752208 225.173838 
L 105.565878 220.002989 
L 106.379549 230.554219 
L 108.00689 202.338255 
L 108.82056 235.744383 
L 109.634231 224.247911 
L 110.447902 227.384146 
L 111.261572 227.325527 
L 112.075243 178.319768 
L 112.888913 218.692425 
L 113.702584 233.596732 
L 114.516254 229.905603 
L 115.329925 201.203844 
L 116.143595 207.189718 
L 116.957266 210.715296 
L 117.770936 217.299928 
L 118.584607 219.651485 
L 119.398278 207.985918 
L 120.211948 214.683206 
L 121.025619 225.767451 
L 121.839289 222.530468 
L 122.65296 226.730175 
L 123.46663 229.879869 
L 124.280301 228.912403 
L 125.093971 222.931356 
L 125.907642 228.631232 
L 126.721312 225.334317 
L 127.534983 228.84014 
L 128.348653 227.965612 
L 129.162324 230.102237 
L 129.975995 218.137658 
L 130.789665 223.007665 
L 131.603336 228.862937 
L 132.417006 231.956808 
L 133.230677 238.767411 
L 134.044347 240.671883 
L 134.858018 232.566045 
L 135.671688 237.044033 
L 136.485359 225.887283 
L 137.299029 234.674826 
L 138.1127 242.194604 
L 138.92637 238.719984 
L 139.740041 241.196577 
L 140.553712 242.7469 
L 141.367382 234.450047 
L 142.181053 235.779665 
L 142.994723 231.8667 
L 143.808394 229.182993 
L 144.622064 240.500317 
L 145.435735 240.277753 
L 146.249405 249.233531 
L 147.063076 220.135241 
L 147.876746 244.286273 
L 148.690417 236.954737 
L 149.504087 247.847742 
L 150.317758 229.795856 
L 151.131429 233.571403 
L 151.945099 248.543764 
L 152.75877 248.530138 
L 153.57244 239.474471 
L 154.386111 242.155452 
L 155.199781 245.57599 
L 156.013452 245.289795 
L 156.827122 240.304296 
L 157.640793 234.377886 
L 159.268134 243.314894 
L 160.081805 238.276091 
L 160.895475 222.023096 
L 161.709146 247.726797 
L 162.522816 247.047302 
L 163.336487 239.22107 
L 164.150157 243.203576 
L 164.963828 242.629922 
L 165.777498 249.269681 
L 166.591169 246.282329 
L 167.404839 248.195285 
L 168.21851 255.823623 
L 169.03218 238.607065 
L 169.845851 252.850053 
L 170.659522 241.581352 
L 171.473192 248.419945 
L 172.286863 238.993375 
L 173.100533 240.109326 
L 173.914204 260.01928 
L 174.727874 251.152171 
L 175.541545 258.960781 
L 176.355215 246.232154 
L 177.168886 244.373394 
L 177.982556 245.508334 
L 178.796227 258.808019 
L 179.609897 243.828732 
L 180.423568 247.47362 
L 181.237239 257.864552 
L 182.050909 247.767806 
L 182.86458 247.25775 
L 183.67825 243.112021 
L 184.491921 256.148652 
L 185.305591 250.32599 
L 186.119262 258.103716 
L 186.932932 245.237092 
L 187.746603 253.54081 
L 188.560273 248.421048 
L 189.373944 258.430409 
L 190.187614 260.396567 
L 191.001285 249.989008 
L 191.814956 237.907443 
L 192.628626 252.098782 
L 193.442297 251.06344 
L 194.255967 248.765603 
L 195.069638 256.351359 
L 195.883308 253.449647 
L 196.696979 247.875576 
L 197.510649 255.455366 
L 198.32432 256.845654 
L 199.13799 253.382451 
L 199.951661 254.72439 
L 200.765332 261.115716 
L 201.579002 262.692288 
L 203.206343 248.060619 
L 204.020014 263.164424 
L 204.833684 257.049952 
L 205.647355 253.672764 
L 206.461025 251.760614 
L 207.274696 252.779772 
L 208.902037 253.446735 
L 209.715707 242.811296 
L 210.529378 256.477049 
L 211.343049 248.206006 
L 212.156719 257.51407 
L 213.78406 271.56495 
L 214.597731 256.87368 
L 215.411401 266.343491 
L 216.225072 261.434342 
L 217.038742 247.104176 
L 217.852413 253.028022 
L 218.666083 247.06722 
L 219.479754 259.474709 
L 220.293424 262.424758 
L 221.107095 257.631778 
L 221.920766 249.092502 
L 222.734436 249.771357 
L 223.548107 255.499099 
L 224.361777 259.281148 
L 225.175448 258.972047 
L 225.989118 262.270888 
L 226.802789 261.04222 
L 227.616459 260.341925 
L 228.43013 258.146973 
L 229.2438 268.586305 
L 230.057471 255.887822 
L 230.871141 252.577712 
L 231.684812 268.171177 
L 232.498483 260.395931 
L 233.312153 272.163691 
L 234.125824 264.201881 
L 234.939494 245.553729 
L 235.753165 263.245562 
L 236.566835 258.424878 
L 237.380506 263.233356 
L 238.194176 258.977304 
L 239.007847 261.988642 
L 239.821517 256.628634 
L 240.635188 267.813413 
L 242.262529 254.0428 
L 243.0762 262.175182 
L 243.88987 259.175588 
L 244.703541 269.845631 
L 245.517211 263.322686 
L 246.330882 273.19892 
L 247.144552 273.088186 
L 247.958223 263.156517 
L 248.771893 259.492348 
L 250.399234 250.920957 
L 251.212905 255.152739 
L 252.026576 269.345637 
L 252.840246 266.208829 
L 253.653917 270.611075 
L 254.467587 262.113568 
L 255.281258 259.97939 
L 256.094928 262.427763 
L 256.908599 261.006024 
L 257.722269 255.146409 
L 258.53594 258.568977 
L 259.34961 250.054804 
L 260.163281 265.314274 
L 260.976951 255.121169 
L 261.790622 269.8171 
L 262.604293 261.194381 
L 263.417963 267.701191 
L 264.231634 262.74918 
L 265.045304 257.014931 
L 265.858975 253.761675 
L 266.672645 256.792106 
L 267.486316 265.660307 
L 268.299986 262.034457 
L 269.113657 254.996747 
L 269.927327 261.579303 
L 270.740998 252.409741 
L 271.554668 261.693605 
L 272.368339 276.551735 
L 273.18201 271.381735 
L 273.99568 270.146968 
L 274.809351 269.971725 
L 275.623021 265.105773 
L 277.250362 266.402423 
L 278.064033 265.919972 
L 278.877703 263.244753 
L 280.505044 277.436291 
L 281.318715 262.921878 
L 282.132386 269.738589 
L 282.946056 264.437261 
L 283.759727 270.289785 
L 284.573397 260.999078 
L 285.387068 271.898277 
L 286.200738 244.425168 
L 287.014409 262.511365 
L 287.828079 260.828557 
L 288.64175 264.302902 
L 289.45542 262.262417 
L 290.269091 264.99083 
L 291.082761 259.68301 
L 291.896432 267.437536 
L 292.710103 268.704303 
L 293.523773 285.681396 
L 294.337444 270.531163 
L 295.151114 277.436832 
L 295.964785 265.146386 
L 296.778455 274.767699 
L 297.592126 273.550795 
L 298.405796 262.106293 
L 299.219467 284.433139 
L 300.033137 270.135567 
L 300.846808 275.995681 
L 301.660478 271.585202 
L 302.474149 284.904136 
L 303.28782 267.22217 
L 304.10149 273.610294 
L 304.915161 268.386121 
L 305.728831 269.224705 
L 306.542502 269.27146 
L 307.356172 261.861498 
L 308.169843 270.466073 
L 308.983513 275.313291 
L 309.797184 269.820264 
L 310.610854 256.776734 
L 311.424525 254.430864 
L 312.238195 265.217021 
L 313.051866 264.840214 
L 313.865537 268.256907 
L 314.679207 274.914733 
L 315.492878 267.345589 
L 316.306548 272.267525 
L 317.120219 271.302596 
L 317.933889 271.246388 
L 318.74756 282.054597 
L 319.56123 277.665369 
L 320.374901 278.77348 
L 321.188571 263.342749 
L 322.002242 295.488 
L 322.815913 276.728992 
L 323.629583 280.469259 
L 324.443254 269.16308 
L 325.256924 270.956898 
L 326.070595 270.295053 
L 326.884265 273.230882 
L 327.697936 277.645123 
L 328.511606 280.121874 
L 329.325277 269.458331 
L 330.138947 275.483271 
L 330.952618 275.166652 
L 331.766288 266.302001 
L 332.579959 283.771232 
L 333.39363 259.532965 
L 335.020971 279.144034 
L 335.834641 278.994308 
L 336.648312 269.847819 
L 337.461982 286.688068 
L 338.275653 270.980034 
L 339.089323 268.497823 
L 339.902994 274.67149 
L 340.716664 266.901733 
L 341.530335 282.653324 
L 343.157676 270.142348 
L 343.971347 273.500998 
L 344.785017 273.285629 
L 345.598688 281.72069 
L 346.412358 284.465696 
L 347.226029 267.949841 
L 348.039699 269.036105 
L 348.85337 265.194792 
L 349.66704 273.718937 
L 350.480711 284.563282 
L 351.294381 269.985248 
L 352.108052 284.053643 
L 352.921722 279.573094 
L 353.735393 276.667661 
L 354.549064 274.731489 
L 355.362734 273.616546 
L 356.176405 261.687343 
L 356.990075 279.221976 
L 357.803746 273.894696 
L 358.617416 279.7872 
L 359.431087 273.839321 
L 360.244757 276.317958 
L 361.058428 276.77849 
L 361.872098 285.684637 
L 362.685769 270.583217 
L 363.49944 280.880047 
L 364.31311 265.374882 
L 365.126781 278.813994 
L 365.940451 278.45054 
L 366.754122 271.186023 
L 367.567792 278.234924 
L 368.381463 277.542886 
L 369.195133 280.175998 
L 370.008804 271.057404 
L 370.822474 274.983993 
L 372.449815 269.870562 
L 373.263486 275.635499 
L 374.077157 276.973639 
L 374.890827 286.637671 
L 375.704498 267.371897 
L 376.518168 276.697364 
L 377.331839 278.978465 
L 378.145509 278.335466 
L 378.95918 273.591633 
L 379.77285 271.072464 
L 380.586521 278.419297 
L 381.400191 281.443762 
L 382.213862 270.031761 
L 383.027532 264.291329 
L 383.841203 267.206154 
L 384.654874 273.442884 
L 385.468544 282.898459 
L 387.095885 275.00864 
L 387.909556 290.108039 
L 388.723226 288.709441 
L 390.350567 268.412907 
L 391.164238 281.837739 
L 391.977908 282.902715 
L 392.791579 279.837699 
L 393.605249 280.752615 
L 394.41892 269.284378 
L 395.232591 270.234738 
L 396.046261 263.745882 
L 396.859932 278.319784 
L 397.673602 280.834319 
L 398.487273 277.718535 
L 398.487273 277.718535 
" style="fill:none;stroke:#1f77b4;stroke-linecap:square;stroke-width:1.5;"/>
   </g>
   <g id="line2d_16">
    <path clip-path="url(#p537af7f973)" d="M 73.832727 76.945496 
L 74.646398 123.616572 
L 75.460068 133.031073 
L 76.273739 53.568 
L 77.087409 146.194683 
L 77.90108 145.692541 
L 78.714751 161.941699 
L 79.528421 109.74998 
L 80.342092 169.668597 
L 81.155762 172.608983 
L 81.969433 181.073257 
L 82.783103 181.912494 
L 83.596774 194.094612 
L 84.410444 192.336588 
L 85.224115 192.079065 
L 86.037785 198.272621 
L 86.851456 201.616183 
L 87.665126 187.646972 
L 88.478797 195.649898 
L 89.292468 207.890091 
L 90.106138 202.877238 
L 90.919809 203.91766 
L 91.733479 212.816326 
L 93.36082 210.265524 
L 94.174491 212.898583 
L 94.988161 210.591706 
L 95.801832 209.617251 
L 96.615502 218.39443 
L 97.429173 215.951748 
L 98.242843 219.743864 
L 99.056514 226.140384 
L 99.870185 219.562784 
L 100.683855 220.696365 
L 101.497526 221.513535 
L 102.311196 207.760696 
L 103.124867 219.986742 
L 103.938537 222.021566 
L 104.752208 218.884619 
L 105.565878 222.269009 
L 106.379549 219.763393 
L 107.193219 233.291145 
L 108.00689 226.141113 
L 108.82056 232.032525 
L 109.634231 227.933901 
L 110.447902 229.522766 
L 111.261572 232.313366 
L 112.075243 171.867123 
L 112.888913 225.567364 
L 113.702584 236.157722 
L 114.516254 225.970448 
L 115.329925 201.090802 
L 116.143595 205.952112 
L 116.957266 209.882576 
L 117.770936 220.015055 
L 118.584607 209.414199 
L 119.398278 217.134711 
L 120.211948 217.208198 
L 121.025619 222.414161 
L 121.839289 222.527798 
L 122.65296 226.737778 
L 123.46663 231.895964 
L 124.280301 225.983048 
L 125.093971 224.195025 
L 125.907642 228.12805 
L 126.721312 217.034614 
L 127.534983 229.221172 
L 128.348653 222.888842 
L 129.162324 233.393853 
L 129.975995 235.916064 
L 130.789665 237.054753 
L 131.603336 242.054982 
L 132.417006 229.985385 
L 133.230677 238.026001 
L 134.044347 237.483652 
L 134.858018 236.094527 
L 135.671688 240.952648 
L 136.485359 231.411619 
L 137.299029 240.778764 
L 138.1127 229.829573 
L 138.92637 237.780825 
L 139.740041 241.234049 
L 140.553712 230.164479 
L 141.367382 233.426672 
L 142.181053 226.857604 
L 142.994723 235.486243 
L 143.808394 237.067054 
L 144.622064 240.470245 
L 145.435735 237.608134 
L 146.249405 236.637086 
L 147.063076 239.84938 
L 147.876746 234.056883 
L 148.690417 246.175574 
L 149.504087 236.368314 
L 150.317758 240.731436 
L 151.131429 235.035514 
L 151.945099 240.225059 
L 152.75877 243.256704 
L 153.57244 240.601334 
L 154.386111 242.135732 
L 155.199781 242.592524 
L 156.013452 242.88367 
L 156.827122 196.786736 
L 157.640793 234.819632 
L 158.454463 243.603829 
L 159.268134 241.818792 
L 160.081805 249.441441 
L 160.895475 242.242326 
L 161.709146 244.743597 
L 162.522816 240.447532 
L 163.336487 241.304364 
L 164.150157 254.281678 
L 164.963828 245.189949 
L 165.777498 250.931737 
L 166.591169 248.83333 
L 167.404839 252.097312 
L 168.21851 244.674317 
L 169.03218 249.405237 
L 169.845851 244.553918 
L 170.659522 237.094011 
L 171.473192 220.807068 
L 172.286863 247.534627 
L 173.100533 243.904501 
L 173.914204 241.824494 
L 174.727874 245.611413 
L 175.541545 252.106211 
L 176.355215 248.473409 
L 177.168886 243.928387 
L 177.982556 250.990464 
L 178.796227 238.769309 
L 179.609897 255.698273 
L 181.237239 245.146428 
L 182.050909 244.131426 
L 182.86458 250.241457 
L 183.67825 240.217403 
L 184.491921 250.12093 
L 185.305591 246.265467 
L 186.119262 253.428206 
L 186.932932 249.66599 
L 187.746603 249.370471 
L 188.560273 253.563663 
L 189.373944 250.090343 
L 190.187614 250.707824 
L 191.001285 248.84225 
L 191.814956 253.861057 
L 192.628626 249.376855 
L 193.442297 260.377359 
L 194.255967 255.058047 
L 195.069638 246.049815 
L 195.883308 251.329697 
L 196.696979 245.122311 
L 197.510649 260.708694 
L 198.32432 249.367096 
L 199.13799 255.602884 
L 199.951661 259.599157 
L 200.765332 257.579922 
L 201.579002 247.078372 
L 202.392673 258.04238 
L 203.206343 255.048309 
L 204.020014 259.465883 
L 204.833684 253.623762 
L 205.647355 261.141252 
L 206.461025 258.904418 
L 207.274696 252.725575 
L 208.088366 259.483386 
L 208.902037 258.232771 
L 209.715707 242.928117 
L 210.529378 253.341174 
L 211.343049 261.729083 
L 212.156719 265.524488 
L 212.97039 260.29665 
L 213.78406 255.836277 
L 214.597731 264.696568 
L 215.411401 262.073842 
L 217.038742 249.088144 
L 217.852413 260.184797 
L 218.666083 248.778719 
L 219.479754 251.309062 
L 220.293424 258.665353 
L 221.107095 252.865832 
L 221.920766 262.778567 
L 222.734436 262.369949 
L 223.548107 260.83814 
L 224.361777 263.695727 
L 225.175448 251.528306 
L 225.989118 247.794912 
L 226.802789 228.777826 
L 227.616459 262.012145 
L 229.2438 254.41223 
L 230.057471 263.971312 
L 230.871141 260.333726 
L 232.498483 251.183385 
L 233.312153 267.952684 
L 234.125824 246.781778 
L 234.939494 265.48322 
L 235.753165 264.995941 
L 236.566835 259.110292 
L 237.380506 273.173584 
L 238.194176 254.184198 
L 239.007847 243.039526 
L 239.821517 261.654313 
L 240.635188 264.71003 
L 241.448859 260.529835 
L 242.262529 251.711911 
L 243.0762 264.836033 
L 243.88987 267.866174 
L 244.703541 269.085068 
L 245.517211 269.169608 
L 246.330882 259.650188 
L 247.144552 263.641991 
L 247.958223 262.721207 
L 248.771893 262.739713 
L 249.585564 252.431977 
L 250.399234 273.220463 
L 251.212905 261.931938 
L 252.026576 265.213412 
L 252.840246 261.822215 
L 253.653917 253.925248 
L 254.467587 258.964054 
L 255.281258 266.749858 
L 256.094928 265.475228 
L 256.908599 266.67805 
L 257.722269 262.984318 
L 258.53594 261.728871 
L 259.34961 263.78126 
L 260.163281 261.352551 
L 260.976951 257.700613 
L 261.790622 257.766822 
L 262.604293 263.953258 
L 263.417963 266.086876 
L 264.231634 269.404542 
L 265.045304 261.246404 
L 265.858975 264.110165 
L 266.672645 273.793183 
L 267.486316 262.25306 
L 268.299986 261.174684 
L 269.113657 257.386999 
L 269.927327 264.475515 
L 270.740998 265.549917 
L 271.554668 260.439823 
L 272.368339 274.235073 
L 273.18201 273.608335 
L 274.809351 251.15044 
L 275.623021 263.535124 
L 276.436692 263.409648 
L 277.250362 261.978432 
L 278.064033 261.929311 
L 278.877703 276.419148 
L 279.691374 270.066417 
L 280.505044 267.163353 
L 281.318715 268.039497 
L 282.132386 263.60046 
L 282.946056 278.227304 
L 283.759727 267.789613 
L 284.573397 271.053767 
L 285.387068 271.174469 
L 286.200738 267.854649 
L 287.014409 266.198273 
L 287.828079 261.46828 
L 288.64175 264.954948 
L 289.45542 274.632346 
L 290.269091 259.515147 
L 291.082761 255.062539 
L 291.896432 264.097159 
L 292.710103 259.556998 
L 293.523773 262.1352 
L 294.337444 268.619847 
L 295.151114 267.392933 
L 295.964785 267.088888 
L 296.778455 268.570416 
L 297.592126 253.125096 
L 298.405796 276.534992 
L 299.219467 278.380416 
L 300.033137 273.666307 
L 300.846808 271.17669 
L 301.660478 266.25505 
L 302.474149 270.76128 
L 303.28782 263.716622 
L 304.10149 265.98344 
L 304.915161 265.970293 
L 305.728831 260.751798 
L 306.542502 267.074853 
L 307.356172 265.2433 
L 308.169843 270.858196 
L 308.983513 273.421139 
L 309.797184 255.868668 
L 310.610854 274.953576 
L 311.424525 255.654721 
L 312.238195 256.411741 
L 313.051866 277.93091 
L 313.865537 270.752542 
L 314.679207 269.044791 
L 315.492878 270.170551 
L 316.306548 266.903359 
L 317.120219 267.052146 
L 317.933889 263.158416 
L 318.74756 269.698258 
L 319.56123 275.055591 
L 320.374901 271.370519 
L 321.188571 270.187371 
L 322.002242 273.143846 
L 322.815913 272.321192 
L 323.629583 261.830347 
L 324.443254 255.725766 
L 325.256924 268.272297 
L 326.070595 266.139294 
L 326.884265 272.920749 
L 327.697936 267.257568 
L 328.511606 271.619563 
L 329.325277 264.30173 
L 330.138947 275.037336 
L 330.952618 277.068477 
L 331.766288 265.505534 
L 332.579959 260.483154 
L 333.39363 274.478971 
L 334.2073 273.710756 
L 335.020971 261.864334 
L 335.834641 275.91915 
L 336.648312 269.418967 
L 337.461982 258.428272 
L 338.275653 273.09753 
L 339.089323 276.078452 
L 340.716664 263.287837 
L 341.530335 267.162585 
L 342.344005 277.638605 
L 343.157676 278.019202 
L 343.971347 275.410114 
L 344.785017 271.696909 
L 345.598688 275.00977 
L 346.412358 277.564951 
L 347.226029 260.110638 
L 348.039699 271.21219 
L 348.85337 271.201058 
L 349.66704 270.976146 
L 350.480711 278.219218 
L 351.294381 273.444144 
L 352.108052 274.611191 
L 352.921722 269.530028 
L 353.735393 282.475261 
L 354.549064 275.201242 
L 355.362734 270.005865 
L 356.176405 269.803799 
L 356.990075 260.225544 
L 357.803746 271.005468 
L 358.617416 277.336724 
L 359.431087 269.885899 
L 360.244757 267.424512 
L 361.058428 272.516203 
L 361.872098 273.23923 
L 362.685769 269.584972 
L 363.49944 262.103136 
L 364.31311 273.779063 
L 365.126781 275.540736 
L 365.940451 266.281951 
L 366.754122 272.087882 
L 367.567792 273.103622 
L 368.381463 279.413615 
L 369.195133 273.157212 
L 370.008804 271.793558 
L 370.822474 269.341698 
L 371.636145 266.427532 
L 372.449815 274.934238 
L 373.263486 276.597903 
L 374.077157 269.691794 
L 374.890827 279.474317 
L 375.704498 269.394047 
L 376.518168 277.49252 
L 377.331839 280.881924 
L 378.145509 266.937549 
L 378.95918 265.013558 
L 379.77285 272.289171 
L 380.586521 271.114788 
L 381.400191 270.881331 
L 382.213862 282.617768 
L 383.027532 275.629975 
L 383.841203 258.049826 
L 384.654874 268.107235 
L 386.282215 283.440269 
L 387.095885 273.841503 
L 387.909556 276.007134 
L 388.723226 266.982805 
L 389.536897 265.193734 
L 390.350567 277.502894 
L 391.164238 278.858718 
L 391.977908 267.392792 
L 392.791579 274.595611 
L 393.605249 272.347833 
L 394.41892 277.136502 
L 395.232591 268.623532 
L 396.046261 274.469195 
L 396.859932 265.590854 
L 397.673602 272.086458 
L 398.487273 265.954798 
L 398.487273 265.954798 
" style="fill:none;stroke:#ff7f0e;stroke-linecap:square;stroke-width:1.5;"/>
   </g>
   <g id="patch_3">
    <path d="M 57.6 307.584 
L 57.6 41.472 
" style="fill:none;stroke:#000000;stroke-linecap:square;stroke-linejoin:miter;stroke-width:0.8;"/>
   </g>
   <g id="patch_4">
    <path d="M 414.72 307.584 
L 414.72 41.472 
" style="fill:none;stroke:#000000;stroke-linecap:square;stroke-linejoin:miter;stroke-width:0.8;"/>
   </g>
   <g id="patch_5">
    <path d="M 57.6 307.584 
L 414.72 307.584 
" style="fill:none;stroke:#000000;stroke-linecap:square;stroke-linejoin:miter;stroke-width:0.8;"/>
   </g>
   <g id="patch_6">
    <path d="M 57.6 41.472 
L 414.72 41.472 
" style="fill:none;stroke:#000000;stroke-linecap:square;stroke-linejoin:miter;stroke-width:0.8;"/>
   </g>
   <g id="legend_1">
    <g id="patch_7">
     <path d="M 303.845 78.82825 
L 407.72 78.82825 
Q 409.72 78.82825 409.72 76.82825 
L 409.72 48.472 
Q 409.72 46.472 407.72 46.472 
L 303.845 46.472 
Q 301.845 46.472 301.845 48.472 
L 301.845 76.82825 
Q 301.845 78.82825 303.845 78.82825 
z
" style="fill:#ffffff;opacity:0.8;stroke:#cccccc;stroke-linejoin:miter;"/>
    </g>
    <g id="line2d_17">
     <path d="M 305.845 54.570437 
L 325.845 54.570437 
" style="fill:none;stroke:#1f77b4;stroke-linecap:square;stroke-width:1.5;"/>
    </g>
    <g id="line2d_18"/>
    <g id="text_17">
     <!-- Train loss -->
     <g transform="translate(333.845 58.070437)scale(0.1 -0.1)">
      <defs>
       <path d="M -19 4666 
L 3928 4666 
L 3928 4134 
L 2272 4134 
L 2272 0 
L 1638 0 
L 1638 4134 
L -19 4134 
L -19 4666 
z
" id="DejaVuSans-54" transform="scale(0.015625)"/>
       <path d="M 2631 2963 
Q 2534 3019 2420 3045 
Q 2306 3072 2169 3072 
Q 1681 3072 1420 2755 
Q 1159 2438 1159 1844 
L 1159 0 
L 581 0 
L 581 3500 
L 1159 3500 
L 1159 2956 
Q 1341 3275 1631 3429 
Q 1922 3584 2338 3584 
Q 2397 3584 2469 3576 
Q 2541 3569 2628 3553 
L 2631 2963 
z
" id="DejaVuSans-72" transform="scale(0.015625)"/>
       <path d="M 2194 1759 
Q 1497 1759 1228 1600 
Q 959 1441 959 1056 
Q 959 750 1161 570 
Q 1363 391 1709 391 
Q 2188 391 2477 730 
Q 2766 1069 2766 1631 
L 2766 1759 
L 2194 1759 
z
M 3341 1997 
L 3341 0 
L 2766 0 
L 2766 531 
Q 2569 213 2275 61 
Q 1981 -91 1556 -91 
Q 1019 -91 701 211 
Q 384 513 384 1019 
Q 384 1609 779 1909 
Q 1175 2209 1959 2209 
L 2766 2209 
L 2766 2266 
Q 2766 2663 2505 2880 
Q 2244 3097 1772 3097 
Q 1472 3097 1187 3025 
Q 903 2953 641 2809 
L 641 3341 
Q 956 3463 1253 3523 
Q 1550 3584 1831 3584 
Q 2591 3584 2966 3190 
Q 3341 2797 3341 1997 
z
" id="DejaVuSans-61" transform="scale(0.015625)"/>
       <path d="M 603 3500 
L 1178 3500 
L 1178 0 
L 603 0 
L 603 3500 
z
M 603 4863 
L 1178 4863 
L 1178 4134 
L 603 4134 
L 603 4863 
z
" id="DejaVuSans-69" transform="scale(0.015625)"/>
       <path d="M 3513 2113 
L 3513 0 
L 2938 0 
L 2938 2094 
Q 2938 2591 2744 2837 
Q 2550 3084 2163 3084 
Q 1697 3084 1428 2787 
Q 1159 2491 1159 1978 
L 1159 0 
L 581 0 
L 581 3500 
L 1159 3500 
L 1159 2956 
Q 1366 3272 1645 3428 
Q 1925 3584 2291 3584 
Q 2894 3584 3203 3211 
Q 3513 2838 3513 2113 
z
" id="DejaVuSans-6e" transform="scale(0.015625)"/>
       <path id="DejaVuSans-20" transform="scale(0.015625)"/>
       <path d="M 603 4863 
L 1178 4863 
L 1178 0 
L 603 0 
L 603 4863 
z
" id="DejaVuSans-6c" transform="scale(0.015625)"/>
      </defs>
      <use xlink:href="#DejaVuSans-54"/>
      <use x="46.333984" xlink:href="#DejaVuSans-72"/>
      <use x="87.447266" xlink:href="#DejaVuSans-61"/>
      <use x="148.726562" xlink:href="#DejaVuSans-69"/>
      <use x="176.509766" xlink:href="#DejaVuSans-6e"/>
      <use x="239.888672" xlink:href="#DejaVuSans-20"/>
      <use x="271.675781" xlink:href="#DejaVuSans-6c"/>
      <use x="299.458984" xlink:href="#DejaVuSans-6f"/>
      <use x="360.640625" xlink:href="#DejaVuSans-73"/>
      <use x="412.740234" xlink:href="#DejaVuSans-73"/>
     </g>
    </g>
    <g id="line2d_19">
     <path d="M 305.845 69.248562 
L 325.845 69.248562 
" style="fill:none;stroke:#ff7f0e;stroke-linecap:square;stroke-width:1.5;"/>
    </g>
    <g id="line2d_20"/>
    <g id="text_18">
     <!-- Validation loss -->
     <g transform="translate(333.845 72.748562)scale(0.1 -0.1)">
      <defs>
       <path d="M 1831 0 
L 50 4666 
L 709 4666 
L 2188 738 
L 3669 4666 
L 4325 4666 
L 2547 0 
L 1831 0 
z
" id="DejaVuSans-56" transform="scale(0.015625)"/>
       <path d="M 2906 2969 
L 2906 4863 
L 3481 4863 
L 3481 0 
L 2906 0 
L 2906 525 
Q 2725 213 2448 61 
Q 2172 -91 1784 -91 
Q 1150 -91 751 415 
Q 353 922 353 1747 
Q 353 2572 751 3078 
Q 1150 3584 1784 3584 
Q 2172 3584 2448 3432 
Q 2725 3281 2906 2969 
z
M 947 1747 
Q 947 1113 1208 752 
Q 1469 391 1925 391 
Q 2381 391 2643 752 
Q 2906 1113 2906 1747 
Q 2906 2381 2643 2742 
Q 2381 3103 1925 3103 
Q 1469 3103 1208 2742 
Q 947 2381 947 1747 
z
" id="DejaVuSans-64" transform="scale(0.015625)"/>
       <path d="M 1172 4494 
L 1172 3500 
L 2356 3500 
L 2356 3053 
L 1172 3053 
L 1172 1153 
Q 1172 725 1289 603 
Q 1406 481 1766 481 
L 2356 481 
L 2356 0 
L 1766 0 
Q 1100 0 847 248 
Q 594 497 594 1153 
L 594 3053 
L 172 3053 
L 172 3500 
L 594 3500 
L 594 4494 
L 1172 4494 
z
" id="DejaVuSans-74" transform="scale(0.015625)"/>
      </defs>
      <use xlink:href="#DejaVuSans-56"/>
      <use x="60.658203" xlink:href="#DejaVuSans-61"/>
      <use x="121.9375" xlink:href="#DejaVuSans-6c"/>
      <use x="149.720703" xlink:href="#DejaVuSans-69"/>
      <use x="177.503906" xlink:href="#DejaVuSans-64"/>
      <use x="240.980469" xlink:href="#DejaVuSans-61"/>
      <use x="302.259766" xlink:href="#DejaVuSans-74"/>
      <use x="341.46875" xlink:href="#DejaVuSans-69"/>
      <use x="369.251953" xlink:href="#DejaVuSans-6f"/>
      <use x="430.433594" xlink:href="#DejaVuSans-6e"/>
      <use x="493.8125" xlink:href="#DejaVuSans-20"/>
      <use x="525.599609" xlink:href="#DejaVuSans-6c"/>
      <use x="553.382812" xlink:href="#DejaVuSans-6f"/>
      <use x="614.564453" xlink:href="#DejaVuSans-73"/>
      <use x="666.664062" xlink:href="#DejaVuSans-73"/>
     </g>
    </g>
   </g>
  </g>
 </g>
 <defs>
  <clipPath id="p537af7f973">
   <rect height="266.112" width="357.12" x="57.6" y="41.472"/>
  </clipPath>
 </defs>
</svg>
