<?xml version="1.0" encoding="utf-8" standalone="no"?>
<!DOCTYPE svg PUBLIC "-//W3C//DTD SVG 1.1//EN"
  "http://www.w3.org/Graphics/SVG/1.1/DTD/svg11.dtd">
<svg height="345.6pt" version="1.1" viewBox="0 0 460.8 345.6" width="460.8pt" xmlns="http://www.w3.org/2000/svg" xmlns:xlink="http://www.w3.org/1999/xlink">
 <metadata>
  <rdf:RDF xmlns:cc="http://creativecommons.org/ns#" xmlns:dc="http://purl.org/dc/elements/1.1/" xmlns:rdf="http://www.w3.org/1999/02/22-rdf-syntax-ns#">
   <cc:Work>
    <dc:type rdf:resource="http://purl.org/dc/dcmitype/StillImage"/>
    <dc:date>2021-07-04T12:57:17.703238</dc:date>
    <dc:format>image/svg+xml</dc:format>
    <dc:creator>
     <cc:Agent>
      <dc:title>Matplotlib v3.4.2, https://matplotlib.org/</dc:title>
     </cc:Agent>
    </dc:creator>
   </cc:Work>
  </rdf:RDF>
 </metadata>
 <defs>
  <style type="text/css">*{stroke-linecap:butt;stroke-linejoin:round;}</style>
 </defs>
 <g id="figure_1">
  <g id="patch_1">
   <path d="M 0 345.6 
L 460.8 345.6 
L 460.8 0 
L 0 0 
z
" style="fill:#ffffff;"/>
  </g>
  <g id="axes_1">
   <g id="patch_2">
    <path d="M 57.6 307.584 
L 414.72 307.584 
L 414.72 41.472 
L 57.6 41.472 
z
" style="fill:#ffffff;"/>
   </g>
   <g id="matplotlib.axis_1">
    <g id="xtick_1">
     <g id="line2d_1">
      <defs>
       <path d="M 0 0 
L 0 3.5 
" id="m2eb327c372" style="stroke:#000000;stroke-width:0.8;"/>
      </defs>
      <g>
       <use style="stroke:#000000;stroke-width:0.8;" x="73.019057" xlink:href="#m2eb327c372" y="307.584"/>
      </g>
     </g>
     <g id="text_1">
      <!-- 0 -->
      <g transform="translate(69.837807 322.182437)scale(0.1 -0.1)">
       <defs>
        <path d="M 2034 4250 
Q 1547 4250 1301 3770 
Q 1056 3291 1056 2328 
Q 1056 1369 1301 889 
Q 1547 409 2034 409 
Q 2525 409 2770 889 
Q 3016 1369 3016 2328 
Q 3016 3291 2770 3770 
Q 2525 4250 2034 4250 
z
M 2034 4750 
Q 2819 4750 3233 4129 
Q 3647 3509 3647 2328 
Q 3647 1150 3233 529 
Q 2819 -91 2034 -91 
Q 1250 -91 836 529 
Q 422 1150 422 2328 
Q 422 3509 836 4129 
Q 1250 4750 2034 4750 
z
" id="DejaVuSans-30" transform="scale(0.015625)"/>
       </defs>
       <use xlink:href="#DejaVuSans-30"/>
      </g>
     </g>
    </g>
    <g id="xtick_2">
     <g id="line2d_2">
      <g>
       <use style="stroke:#000000;stroke-width:0.8;" x="113.702584" xlink:href="#m2eb327c372" y="307.584"/>
      </g>
     </g>
     <g id="text_2">
      <!-- 50 -->
      <g transform="translate(107.340084 322.182437)scale(0.1 -0.1)">
       <defs>
        <path d="M 691 4666 
L 3169 4666 
L 3169 4134 
L 1269 4134 
L 1269 2991 
Q 1406 3038 1543 3061 
Q 1681 3084 1819 3084 
Q 2600 3084 3056 2656 
Q 3513 2228 3513 1497 
Q 3513 744 3044 326 
Q 2575 -91 1722 -91 
Q 1428 -91 1123 -41 
Q 819 9 494 109 
L 494 744 
Q 775 591 1075 516 
Q 1375 441 1709 441 
Q 2250 441 2565 725 
Q 2881 1009 2881 1497 
Q 2881 1984 2565 2268 
Q 2250 2553 1709 2553 
Q 1456 2553 1204 2497 
Q 953 2441 691 2322 
L 691 4666 
z
" id="DejaVuSans-35" transform="scale(0.015625)"/>
       </defs>
       <use xlink:href="#DejaVuSans-35"/>
       <use x="63.623047" xlink:href="#DejaVuSans-30"/>
      </g>
     </g>
    </g>
    <g id="xtick_3">
     <g id="line2d_3">
      <g>
       <use style="stroke:#000000;stroke-width:0.8;" x="154.386111" xlink:href="#m2eb327c372" y="307.584"/>
      </g>
     </g>
     <g id="text_3">
      <!-- 100 -->
      <g transform="translate(144.842361 322.182437)scale(0.1 -0.1)">
       <defs>
        <path d="M 794 531 
L 1825 531 
L 1825 4091 
L 703 3866 
L 703 4441 
L 1819 4666 
L 2450 4666 
L 2450 531 
L 3481 531 
L 3481 0 
L 794 0 
L 794 531 
z
" id="DejaVuSans-31" transform="scale(0.015625)"/>
       </defs>
       <use xlink:href="#DejaVuSans-31"/>
       <use x="63.623047" xlink:href="#DejaVuSans-30"/>
       <use x="127.246094" xlink:href="#DejaVuSans-30"/>
      </g>
     </g>
    </g>
    <g id="xtick_4">
     <g id="line2d_4">
      <g>
       <use style="stroke:#000000;stroke-width:0.8;" x="195.069638" xlink:href="#m2eb327c372" y="307.584"/>
      </g>
     </g>
     <g id="text_4">
      <!-- 150 -->
      <g transform="translate(185.525888 322.182437)scale(0.1 -0.1)">
       <use xlink:href="#DejaVuSans-31"/>
       <use x="63.623047" xlink:href="#DejaVuSans-35"/>
       <use x="127.246094" xlink:href="#DejaVuSans-30"/>
      </g>
     </g>
    </g>
    <g id="xtick_5">
     <g id="line2d_5">
      <g>
       <use style="stroke:#000000;stroke-width:0.8;" x="235.753165" xlink:href="#m2eb327c372" y="307.584"/>
      </g>
     </g>
     <g id="text_5">
      <!-- 200 -->
      <g transform="translate(226.209415 322.182437)scale(0.1 -0.1)">
       <defs>
        <path d="M 1228 531 
L 3431 531 
L 3431 0 
L 469 0 
L 469 531 
Q 828 903 1448 1529 
Q 2069 2156 2228 2338 
Q 2531 2678 2651 2914 
Q 2772 3150 2772 3378 
Q 2772 3750 2511 3984 
Q 2250 4219 1831 4219 
Q 1534 4219 1204 4116 
Q 875 4013 500 3803 
L 500 4441 
Q 881 4594 1212 4672 
Q 1544 4750 1819 4750 
Q 2544 4750 2975 4387 
Q 3406 4025 3406 3419 
Q 3406 3131 3298 2873 
Q 3191 2616 2906 2266 
Q 2828 2175 2409 1742 
Q 1991 1309 1228 531 
z
" id="DejaVuSans-32" transform="scale(0.015625)"/>
       </defs>
       <use xlink:href="#DejaVuSans-32"/>
       <use x="63.623047" xlink:href="#DejaVuSans-30"/>
       <use x="127.246094" xlink:href="#DejaVuSans-30"/>
      </g>
     </g>
    </g>
    <g id="xtick_6">
     <g id="line2d_6">
      <g>
       <use style="stroke:#000000;stroke-width:0.8;" x="276.436692" xlink:href="#m2eb327c372" y="307.584"/>
      </g>
     </g>
     <g id="text_6">
      <!-- 250 -->
      <g transform="translate(266.892942 322.182437)scale(0.1 -0.1)">
       <use xlink:href="#DejaVuSans-32"/>
       <use x="63.623047" xlink:href="#DejaVuSans-35"/>
       <use x="127.246094" xlink:href="#DejaVuSans-30"/>
      </g>
     </g>
    </g>
    <g id="xtick_7">
     <g id="line2d_7">
      <g>
       <use style="stroke:#000000;stroke-width:0.8;" x="317.120219" xlink:href="#m2eb327c372" y="307.584"/>
      </g>
     </g>
     <g id="text_7">
      <!-- 300 -->
      <g transform="translate(307.576469 322.182437)scale(0.1 -0.1)">
       <defs>
        <path d="M 2597 2516 
Q 3050 2419 3304 2112 
Q 3559 1806 3559 1356 
Q 3559 666 3084 287 
Q 2609 -91 1734 -91 
Q 1441 -91 1130 -33 
Q 819 25 488 141 
L 488 750 
Q 750 597 1062 519 
Q 1375 441 1716 441 
Q 2309 441 2620 675 
Q 2931 909 2931 1356 
Q 2931 1769 2642 2001 
Q 2353 2234 1838 2234 
L 1294 2234 
L 1294 2753 
L 1863 2753 
Q 2328 2753 2575 2939 
Q 2822 3125 2822 3475 
Q 2822 3834 2567 4026 
Q 2313 4219 1838 4219 
Q 1578 4219 1281 4162 
Q 984 4106 628 3988 
L 628 4550 
Q 988 4650 1302 4700 
Q 1616 4750 1894 4750 
Q 2613 4750 3031 4423 
Q 3450 4097 3450 3541 
Q 3450 3153 3228 2886 
Q 3006 2619 2597 2516 
z
" id="DejaVuSans-33" transform="scale(0.015625)"/>
       </defs>
       <use xlink:href="#DejaVuSans-33"/>
       <use x="63.623047" xlink:href="#DejaVuSans-30"/>
       <use x="127.246094" xlink:href="#DejaVuSans-30"/>
      </g>
     </g>
    </g>
    <g id="xtick_8">
     <g id="line2d_8">
      <g>
       <use style="stroke:#000000;stroke-width:0.8;" x="357.803746" xlink:href="#m2eb327c372" y="307.584"/>
      </g>
     </g>
     <g id="text_8">
      <!-- 350 -->
      <g transform="translate(348.259996 322.182437)scale(0.1 -0.1)">
       <use xlink:href="#DejaVuSans-33"/>
       <use x="63.623047" xlink:href="#DejaVuSans-35"/>
       <use x="127.246094" xlink:href="#DejaVuSans-30"/>
      </g>
     </g>
    </g>
    <g id="xtick_9">
     <g id="line2d_9">
      <g>
       <use style="stroke:#000000;stroke-width:0.8;" x="398.487273" xlink:href="#m2eb327c372" y="307.584"/>
      </g>
     </g>
     <g id="text_9">
      <!-- 400 -->
      <g transform="translate(388.943523 322.182437)scale(0.1 -0.1)">
       <defs>
        <path d="M 2419 4116 
L 825 1625 
L 2419 1625 
L 2419 4116 
z
M 2253 4666 
L 3047 4666 
L 3047 1625 
L 3713 1625 
L 3713 1100 
L 3047 1100 
L 3047 0 
L 2419 0 
L 2419 1100 
L 313 1100 
L 313 1709 
L 2253 4666 
z
" id="DejaVuSans-34" transform="scale(0.015625)"/>
       </defs>
       <use xlink:href="#DejaVuSans-34"/>
       <use x="63.623047" xlink:href="#DejaVuSans-30"/>
       <use x="127.246094" xlink:href="#DejaVuSans-30"/>
      </g>
     </g>
    </g>
    <g id="text_10">
     <!-- Epoch -->
     <g transform="translate(213.193594 339.659781)scale(0.15 -0.15)">
      <defs>
       <path d="M 628 4666 
L 3578 4666 
L 3578 4134 
L 1259 4134 
L 1259 2753 
L 3481 2753 
L 3481 2222 
L 1259 2222 
L 1259 531 
L 3634 531 
L 3634 0 
L 628 0 
L 628 4666 
z
" id="DejaVuSans-45" transform="scale(0.015625)"/>
       <path d="M 1159 525 
L 1159 -1331 
L 581 -1331 
L 581 3500 
L 1159 3500 
L 1159 2969 
Q 1341 3281 1617 3432 
Q 1894 3584 2278 3584 
Q 2916 3584 3314 3078 
Q 3713 2572 3713 1747 
Q 3713 922 3314 415 
Q 2916 -91 2278 -91 
Q 1894 -91 1617 61 
Q 1341 213 1159 525 
z
M 3116 1747 
Q 3116 2381 2855 2742 
Q 2594 3103 2138 3103 
Q 1681 3103 1420 2742 
Q 1159 2381 1159 1747 
Q 1159 1113 1420 752 
Q 1681 391 2138 391 
Q 2594 391 2855 752 
Q 3116 1113 3116 1747 
z
" id="DejaVuSans-70" transform="scale(0.015625)"/>
       <path d="M 1959 3097 
Q 1497 3097 1228 2736 
Q 959 2375 959 1747 
Q 959 1119 1226 758 
Q 1494 397 1959 397 
Q 2419 397 2687 759 
Q 2956 1122 2956 1747 
Q 2956 2369 2687 2733 
Q 2419 3097 1959 3097 
z
M 1959 3584 
Q 2709 3584 3137 3096 
Q 3566 2609 3566 1747 
Q 3566 888 3137 398 
Q 2709 -91 1959 -91 
Q 1206 -91 779 398 
Q 353 888 353 1747 
Q 353 2609 779 3096 
Q 1206 3584 1959 3584 
z
" id="DejaVuSans-6f" transform="scale(0.015625)"/>
       <path d="M 3122 3366 
L 3122 2828 
Q 2878 2963 2633 3030 
Q 2388 3097 2138 3097 
Q 1578 3097 1268 2742 
Q 959 2388 959 1747 
Q 959 1106 1268 751 
Q 1578 397 2138 397 
Q 2388 397 2633 464 
Q 2878 531 3122 666 
L 3122 134 
Q 2881 22 2623 -34 
Q 2366 -91 2075 -91 
Q 1284 -91 818 406 
Q 353 903 353 1747 
Q 353 2603 823 3093 
Q 1294 3584 2113 3584 
Q 2378 3584 2631 3529 
Q 2884 3475 3122 3366 
z
" id="DejaVuSans-63" transform="scale(0.015625)"/>
       <path d="M 3513 2113 
L 3513 0 
L 2938 0 
L 2938 2094 
Q 2938 2591 2744 2837 
Q 2550 3084 2163 3084 
Q 1697 3084 1428 2787 
Q 1159 2491 1159 1978 
L 1159 0 
L 581 0 
L 581 4863 
L 1159 4863 
L 1159 2956 
Q 1366 3272 1645 3428 
Q 1925 3584 2291 3584 
Q 2894 3584 3203 3211 
Q 3513 2838 3513 2113 
z
" id="DejaVuSans-68" transform="scale(0.015625)"/>
      </defs>
      <use xlink:href="#DejaVuSans-45"/>
      <use x="63.183594" xlink:href="#DejaVuSans-70"/>
      <use x="126.660156" xlink:href="#DejaVuSans-6f"/>
      <use x="187.841797" xlink:href="#DejaVuSans-63"/>
      <use x="242.822266" xlink:href="#DejaVuSans-68"/>
     </g>
    </g>
   </g>
   <g id="matplotlib.axis_2">
    <g id="ytick_1">
     <g id="line2d_10">
      <defs>
       <path d="M 0 0 
L -3.5 0 
" id="m19c357c2fd" style="stroke:#000000;stroke-width:0.8;"/>
      </defs>
      <g>
       <use style="stroke:#000000;stroke-width:0.8;" x="57.6" xlink:href="#m19c357c2fd" y="279.36"/>
      </g>
     </g>
     <g id="text_11">
      <!-- 0.1 -->
      <g transform="translate(34.696875 283.159219)scale(0.1 -0.1)">
       <defs>
        <path d="M 684 794 
L 1344 794 
L 1344 0 
L 684 0 
L 684 794 
z
" id="DejaVuSans-2e" transform="scale(0.015625)"/>
       </defs>
       <use xlink:href="#DejaVuSans-30"/>
       <use x="63.623047" xlink:href="#DejaVuSans-2e"/>
       <use x="95.410156" xlink:href="#DejaVuSans-31"/>
      </g>
     </g>
    </g>
    <g id="ytick_2">
     <g id="line2d_11">
      <g>
       <use style="stroke:#000000;stroke-width:0.8;" x="57.6" xlink:href="#m19c357c2fd" y="247.104"/>
      </g>
     </g>
     <g id="text_12">
      <!-- 0.2 -->
      <g transform="translate(34.696875 250.903219)scale(0.1 -0.1)">
       <use xlink:href="#DejaVuSans-30"/>
       <use x="63.623047" xlink:href="#DejaVuSans-2e"/>
       <use x="95.410156" xlink:href="#DejaVuSans-32"/>
      </g>
     </g>
    </g>
    <g id="ytick_3">
     <g id="line2d_12">
      <g>
       <use style="stroke:#000000;stroke-width:0.8;" x="57.6" xlink:href="#m19c357c2fd" y="214.848"/>
      </g>
     </g>
     <g id="text_13">
      <!-- 0.3 -->
      <g transform="translate(34.696875 218.647219)scale(0.1 -0.1)">
       <use xlink:href="#DejaVuSans-30"/>
       <use x="63.623047" xlink:href="#DejaVuSans-2e"/>
       <use x="95.410156" xlink:href="#DejaVuSans-33"/>
      </g>
     </g>
    </g>
    <g id="ytick_4">
     <g id="line2d_13">
      <g>
       <use style="stroke:#000000;stroke-width:0.8;" x="57.6" xlink:href="#m19c357c2fd" y="182.592"/>
      </g>
     </g>
     <g id="text_14">
      <!-- 0.4 -->
      <g transform="translate(34.696875 186.391219)scale(0.1 -0.1)">
       <use xlink:href="#DejaVuSans-30"/>
       <use x="63.623047" xlink:href="#DejaVuSans-2e"/>
       <use x="95.410156" xlink:href="#DejaVuSans-34"/>
      </g>
     </g>
    </g>
    <g id="ytick_5">
     <g id="line2d_14">
      <g>
       <use style="stroke:#000000;stroke-width:0.8;" x="57.6" xlink:href="#m19c357c2fd" y="150.336"/>
      </g>
     </g>
     <g id="text_15">
      <!-- 0.5 -->
      <g transform="translate(34.696875 154.135219)scale(0.1 -0.1)">
       <use xlink:href="#DejaVuSans-30"/>
       <use x="63.623047" xlink:href="#DejaVuSans-2e"/>
       <use x="95.410156" xlink:href="#DejaVuSans-35"/>
      </g>
     </g>
    </g>
    <g id="ytick_6">
     <g id="line2d_15">
      <g>
       <use style="stroke:#000000;stroke-width:0.8;" x="57.6" xlink:href="#m19c357c2fd" y="118.08"/>
      </g>
     </g>
     <g id="text_16">
      <!-- 0.6 -->
      <g transform="translate(34.696875 121.879219)scale(0.1 -0.1)">
       <defs>
        <path d="M 2113 2584 
Q 1688 2584 1439 2293 
Q 1191 2003 1191 1497 
Q 1191 994 1439 701 
Q 1688 409 2113 409 
Q 2538 409 2786 701 
Q 3034 994 3034 1497 
Q 3034 2003 2786 2293 
Q 2538 2584 2113 2584 
z
M 3366 4563 
L 3366 3988 
Q 3128 4100 2886 4159 
Q 2644 4219 2406 4219 
Q 1781 4219 1451 3797 
Q 1122 3375 1075 2522 
Q 1259 2794 1537 2939 
Q 1816 3084 2150 3084 
Q 2853 3084 3261 2657 
Q 3669 2231 3669 1497 
Q 3669 778 3244 343 
Q 2819 -91 2113 -91 
Q 1303 -91 875 529 
Q 447 1150 447 2328 
Q 447 3434 972 4092 
Q 1497 4750 2381 4750 
Q 2619 4750 2861 4703 
Q 3103 4656 3366 4563 
z
" id="DejaVuSans-36" transform="scale(0.015625)"/>
       </defs>
       <use xlink:href="#DejaVuSans-30"/>
       <use x="63.623047" xlink:href="#DejaVuSans-2e"/>
       <use x="95.410156" xlink:href="#DejaVuSans-36"/>
      </g>
     </g>
    </g>
    <g id="ytick_7">
     <g id="line2d_16">
      <g>
       <use style="stroke:#000000;stroke-width:0.8;" x="57.6" xlink:href="#m19c357c2fd" y="85.824"/>
      </g>
     </g>
     <g id="text_17">
      <!-- 0.7 -->
      <g transform="translate(34.696875 89.623219)scale(0.1 -0.1)">
       <defs>
        <path d="M 525 4666 
L 3525 4666 
L 3525 4397 
L 1831 0 
L 1172 0 
L 2766 4134 
L 525 4134 
L 525 4666 
z
" id="DejaVuSans-37" transform="scale(0.015625)"/>
       </defs>
       <use xlink:href="#DejaVuSans-30"/>
       <use x="63.623047" xlink:href="#DejaVuSans-2e"/>
       <use x="95.410156" xlink:href="#DejaVuSans-37"/>
      </g>
     </g>
    </g>
    <g id="ytick_8">
     <g id="line2d_17">
      <g>
       <use style="stroke:#000000;stroke-width:0.8;" x="57.6" xlink:href="#m19c357c2fd" y="53.568"/>
      </g>
     </g>
     <g id="text_18">
      <!-- 0.8 -->
      <g transform="translate(34.696875 57.367219)scale(0.1 -0.1)">
       <defs>
        <path d="M 2034 2216 
Q 1584 2216 1326 1975 
Q 1069 1734 1069 1313 
Q 1069 891 1326 650 
Q 1584 409 2034 409 
Q 2484 409 2743 651 
Q 3003 894 3003 1313 
Q 3003 1734 2745 1975 
Q 2488 2216 2034 2216 
z
M 1403 2484 
Q 997 2584 770 2862 
Q 544 3141 544 3541 
Q 544 4100 942 4425 
Q 1341 4750 2034 4750 
Q 2731 4750 3128 4425 
Q 3525 4100 3525 3541 
Q 3525 3141 3298 2862 
Q 3072 2584 2669 2484 
Q 3125 2378 3379 2068 
Q 3634 1759 3634 1313 
Q 3634 634 3220 271 
Q 2806 -91 2034 -91 
Q 1263 -91 848 271 
Q 434 634 434 1313 
Q 434 1759 690 2068 
Q 947 2378 1403 2484 
z
M 1172 3481 
Q 1172 3119 1398 2916 
Q 1625 2713 2034 2713 
Q 2441 2713 2670 2916 
Q 2900 3119 2900 3481 
Q 2900 3844 2670 4047 
Q 2441 4250 2034 4250 
Q 1625 4250 1398 4047 
Q 1172 3844 1172 3481 
z
" id="DejaVuSans-38" transform="scale(0.015625)"/>
       </defs>
       <use xlink:href="#DejaVuSans-30"/>
       <use x="63.623047" xlink:href="#DejaVuSans-2e"/>
       <use x="95.410156" xlink:href="#DejaVuSans-38"/>
      </g>
     </g>
    </g>
    <g id="text_19">
     <!-- Loss -->
     <g transform="translate(27.577344 190.978781)rotate(-90)scale(0.15 -0.15)">
      <defs>
       <path d="M 628 4666 
L 1259 4666 
L 1259 531 
L 3531 531 
L 3531 0 
L 628 0 
L 628 4666 
z
" id="DejaVuSans-4c" transform="scale(0.015625)"/>
       <path d="M 2834 3397 
L 2834 2853 
Q 2591 2978 2328 3040 
Q 2066 3103 1784 3103 
Q 1356 3103 1142 2972 
Q 928 2841 928 2578 
Q 928 2378 1081 2264 
Q 1234 2150 1697 2047 
L 1894 2003 
Q 2506 1872 2764 1633 
Q 3022 1394 3022 966 
Q 3022 478 2636 193 
Q 2250 -91 1575 -91 
Q 1294 -91 989 -36 
Q 684 19 347 128 
L 347 722 
Q 666 556 975 473 
Q 1284 391 1588 391 
Q 1994 391 2212 530 
Q 2431 669 2431 922 
Q 2431 1156 2273 1281 
Q 2116 1406 1581 1522 
L 1381 1569 
Q 847 1681 609 1914 
Q 372 2147 372 2553 
Q 372 3047 722 3315 
Q 1072 3584 1716 3584 
Q 2034 3584 2315 3537 
Q 2597 3491 2834 3397 
z
" id="DejaVuSans-73" transform="scale(0.015625)"/>
      </defs>
      <use xlink:href="#DejaVuSans-4c"/>
      <use x="53.962891" xlink:href="#DejaVuSans-6f"/>
      <use x="115.144531" xlink:href="#DejaVuSans-73"/>
      <use x="167.244141" xlink:href="#DejaVuSans-73"/>
     </g>
    </g>
   </g>
   <g id="line2d_18">
    <path clip-path="url(#p1a30565235)" d="M 73.832727 279.36 
L 74.646398 292.2624 
L 75.460068 282.5856 
L 76.273739 295.488 
L 77.087409 285.8112 
L 77.90108 279.36 
L 78.714751 295.488 
L 80.342092 269.6832 
L 81.155762 282.5856 
L 81.969433 276.1344 
L 82.783103 282.5856 
L 83.596774 282.5856 
L 85.224115 289.0368 
L 86.037785 282.5856 
L 86.851456 279.36 
L 90.919809 279.36 
L 91.733479 292.2624 
L 92.54715 272.9088 
L 93.36082 282.5856 
L 94.174491 289.0368 
L 94.988161 282.5856 
L 95.801832 282.5856 
L 96.615502 279.36 
L 97.429173 289.0368 
L 98.242843 279.36 
L 99.056514 282.5856 
L 99.870185 276.1344 
L 100.683855 282.5856 
L 101.497526 279.36 
L 103.124867 279.36 
L 103.938537 282.5856 
L 104.752208 279.36 
L 105.565878 279.36 
L 106.379549 282.5856 
L 107.193219 282.5856 
L 108.00689 279.36 
L 108.82056 285.8112 
L 110.447902 279.36 
L 111.261572 289.0368 
L 112.075243 279.36 
L 112.888913 279.36 
L 113.702584 282.5856 
L 114.516254 282.5856 
L 115.329925 276.1344 
L 116.143595 285.8112 
L 116.957266 279.36 
L 117.770936 279.36 
L 118.584607 276.1344 
L 119.398278 282.5856 
L 120.211948 276.1344 
L 121.025619 289.0368 
L 121.839289 292.2624 
L 122.65296 279.36 
L 124.280301 279.36 
L 125.093971 282.5856 
L 126.721312 269.6832 
L 127.534983 272.9088 
L 128.348653 282.5856 
L 129.162324 282.5856 
L 129.975995 289.0368 
L 130.789665 272.9088 
L 131.603336 282.5856 
L 132.417006 272.9088 
L 133.230677 279.36 
L 134.044347 260.0064 
L 134.858018 272.9088 
L 135.671688 253.5552 
L 136.485359 269.6832 
L 137.299029 263.232 
L 138.92637 269.6832 
L 139.740041 260.0064 
L 141.367382 247.104 
L 142.181053 263.232 
L 142.994723 263.232 
L 143.808394 276.1344 
L 144.622064 266.4576 
L 145.435735 230.976 
L 146.249405 260.0064 
L 147.063076 253.5552 
L 147.876746 256.7808 
L 148.690417 256.7808 
L 149.504087 260.0064 
L 150.317758 243.8784 
L 151.131429 263.232 
L 151.945099 272.9088 
L 152.75877 243.8784 
L 153.57244 250.3296 
L 154.386111 272.9088 
L 155.199781 243.8784 
L 156.013452 237.4272 
L 156.827122 260.0064 
L 157.640793 253.5552 
L 158.454463 253.5552 
L 159.268134 224.5248 
L 160.081805 227.7504 
L 160.895475 247.104 
L 161.709146 224.5248 
L 163.336487 224.5248 
L 164.150157 240.6528 
L 165.777498 221.2992 
L 166.591169 234.2016 
L 167.404839 211.6224 
L 168.21851 240.6528 
L 169.03218 214.848 
L 169.845851 234.2016 
L 170.659522 243.8784 
L 171.473192 218.0736 
L 172.286863 234.2016 
L 173.100533 224.5248 
L 173.914204 224.5248 
L 174.727874 227.7504 
L 175.541545 234.2016 
L 176.355215 234.2016 
L 177.168886 205.1712 
L 177.982556 224.5248 
L 178.796227 214.848 
L 179.609897 224.5248 
L 181.237239 224.5248 
L 182.050909 195.4944 
L 182.86458 224.5248 
L 183.67825 227.7504 
L 184.491921 208.3968 
L 185.305591 192.2688 
L 186.119262 211.6224 
L 186.932932 218.0736 
L 187.746603 192.2688 
L 189.373944 198.72 
L 190.187614 205.1712 
L 191.001285 221.2992 
L 191.814956 214.848 
L 192.628626 227.7504 
L 193.442297 201.9456 
L 194.255967 189.0432 
L 195.069638 198.72 
L 195.883308 176.1408 
L 196.696979 198.72 
L 197.510649 182.592 
L 199.13799 169.6896 
L 199.951661 185.8176 
L 200.765332 169.6896 
L 202.392673 182.592 
L 203.206343 179.3664 
L 204.020014 182.592 
L 204.833684 166.464 
L 205.647355 153.5616 
L 206.461025 172.9152 
L 207.274696 163.2384 
L 208.088366 156.7872 
L 208.902037 166.464 
L 209.715707 179.3664 
L 210.529378 118.08 
L 211.343049 169.6896 
L 212.156719 172.9152 
L 212.97039 147.1104 
L 213.78406 150.336 
L 214.597731 147.1104 
L 215.411401 182.592 
L 216.225072 160.0128 
L 217.038742 140.6592 
L 217.852413 153.5616 
L 218.666083 156.7872 
L 219.479754 137.4336 
L 220.293424 156.7872 
L 221.107095 153.5616 
L 221.920766 137.4336 
L 222.734436 134.208 
L 223.548107 124.5312 
L 224.361777 143.8848 
L 225.175448 172.9152 
L 225.989118 130.9824 
L 226.802789 130.9824 
L 227.616459 140.6592 
L 228.43013 156.7872 
L 229.2438 127.7568 
L 230.057471 153.5616 
L 230.871141 111.6288 
L 231.684812 160.0128 
L 232.498483 134.208 
L 233.312153 121.3056 
L 234.939494 160.0128 
L 235.753165 156.7872 
L 236.566835 140.6592 
L 237.380506 121.3056 
L 238.194176 140.6592 
L 239.007847 118.08 
L 239.821517 127.7568 
L 240.635188 150.336 
L 241.448859 143.8848 
L 242.262529 130.9824 
L 243.0762 137.4336 
L 243.88987 134.208 
L 244.703541 101.952 
L 245.517211 101.952 
L 246.330882 121.3056 
L 247.144552 124.5312 
L 247.958223 121.3056 
L 248.771893 108.4032 
L 249.585564 127.7568 
L 250.399234 130.9824 
L 252.026576 98.7264 
L 252.840246 72.9216 
L 253.653917 114.8544 
L 254.467587 127.7568 
L 255.281258 111.6288 
L 256.094928 143.8848 
L 256.908599 95.5008 
L 257.722269 76.1472 
L 258.53594 114.8544 
L 259.34961 121.3056 
L 260.163281 130.9824 
L 260.976951 130.9824 
L 261.790622 127.7568 
L 262.604293 118.08 
L 263.417963 98.7264 
L 264.231634 92.2752 
L 265.045304 118.08 
L 265.858975 134.208 
L 266.672645 124.5312 
L 267.486316 101.952 
L 268.299986 111.6288 
L 269.113657 114.8544 
L 269.927327 89.0496 
L 270.740998 105.1776 
L 271.554668 114.8544 
L 272.368339 114.8544 
L 273.18201 98.7264 
L 273.99568 98.7264 
L 275.623021 147.1104 
L 276.436692 101.952 
L 277.250362 105.1776 
L 278.064033 89.0496 
L 278.877703 114.8544 
L 279.691374 60.0192 
L 280.505044 108.4032 
L 281.318715 105.1776 
L 282.132386 124.5312 
L 282.946056 98.7264 
L 283.759727 124.5312 
L 284.573397 121.3056 
L 285.387068 98.7264 
L 286.200738 89.0496 
L 287.014409 134.208 
L 287.828079 108.4032 
L 288.64175 124.5312 
L 289.45542 82.5984 
L 290.269091 127.7568 
L 291.082761 105.1776 
L 291.896432 111.6288 
L 292.710103 76.1472 
L 293.523773 118.08 
L 294.337444 134.208 
L 295.151114 101.952 
L 295.964785 76.1472 
L 296.778455 118.08 
L 297.592126 89.0496 
L 298.405796 118.08 
L 299.219467 124.5312 
L 300.846808 124.5312 
L 301.660478 92.2752 
L 302.474149 79.3728 
L 303.28782 105.1776 
L 304.10149 92.2752 
L 304.915161 105.1776 
L 305.728831 108.4032 
L 306.542502 130.9824 
L 307.356172 69.696 
L 308.169843 76.1472 
L 308.983513 105.1776 
L 309.797184 124.5312 
L 310.610854 85.824 
L 311.424525 111.6288 
L 312.238195 105.1776 
L 313.051866 72.9216 
L 313.865537 85.824 
L 314.679207 89.0496 
L 315.492878 111.6288 
L 316.306548 76.1472 
L 317.120219 56.7936 
L 317.933889 98.7264 
L 318.74756 79.3728 
L 319.56123 124.5312 
L 320.374901 124.5312 
L 321.188571 56.7936 
L 322.002242 118.08 
L 322.815913 105.1776 
L 323.629583 66.4704 
L 324.443254 89.0496 
L 325.256924 53.568 
L 326.070595 101.952 
L 326.884265 89.0496 
L 327.697936 92.2752 
L 328.511606 121.3056 
L 329.325277 111.6288 
L 330.138947 114.8544 
L 331.766288 95.5008 
L 332.579959 92.2752 
L 333.39363 66.4704 
L 334.2073 89.0496 
L 335.834641 108.4032 
L 336.648312 114.8544 
L 337.461982 101.952 
L 338.275653 118.08 
L 339.089323 82.5984 
L 339.902994 89.0496 
L 340.716664 108.4032 
L 341.530335 69.696 
L 342.344005 82.5984 
L 343.157676 82.5984 
L 343.971347 111.6288 
L 344.785017 114.8544 
L 345.598688 92.2752 
L 346.412358 105.1776 
L 347.226029 121.3056 
L 348.039699 130.9824 
L 348.85337 121.3056 
L 349.66704 85.824 
L 350.480711 105.1776 
L 351.294381 111.6288 
L 352.108052 82.5984 
L 352.921722 92.2752 
L 353.735393 89.0496 
L 354.549064 108.4032 
L 355.362734 108.4032 
L 356.176405 111.6288 
L 356.990075 92.2752 
L 357.803746 92.2752 
L 358.617416 85.824 
L 359.431087 85.824 
L 360.244757 82.5984 
L 361.058428 89.0496 
L 361.872098 89.0496 
L 362.685769 95.5008 
L 363.49944 95.5008 
L 364.31311 76.1472 
L 365.126781 101.952 
L 365.940451 89.0496 
L 366.754122 60.0192 
L 367.567792 72.9216 
L 368.381463 101.952 
L 369.195133 82.5984 
L 370.008804 95.5008 
L 370.822474 101.952 
L 371.636145 82.5984 
L 372.449815 53.568 
L 373.263486 101.952 
L 374.077157 76.1472 
L 374.890827 118.08 
L 375.704498 82.5984 
L 376.518168 72.9216 
L 377.331839 118.08 
L 378.145509 92.2752 
L 378.95918 85.824 
L 379.77285 111.6288 
L 380.586521 85.824 
L 381.400191 105.1776 
L 382.213862 108.4032 
L 383.027532 118.08 
L 384.654874 85.824 
L 385.468544 111.6288 
L 386.282215 85.824 
L 387.095885 85.824 
L 387.909556 56.7936 
L 388.723226 137.4336 
L 389.536897 76.1472 
L 390.350567 118.08 
L 391.164238 82.5984 
L 391.977908 101.952 
L 392.791579 98.7264 
L 393.605249 69.696 
L 394.41892 79.3728 
L 395.232591 105.1776 
L 396.046261 108.4032 
L 396.859932 82.5984 
L 397.673602 105.1776 
L 398.487273 95.5008 
L 398.487273 95.5008 
" style="fill:none;stroke:#1f77b4;stroke-linecap:square;stroke-width:1.5;"/>
   </g>
   <g id="line2d_19">
    <path clip-path="url(#p1a30565235)" d="M 73.832727 281.56416 
L 74.646398 280.704 
L 75.460068 277.85472 
L 76.273739 279.6288 
L 77.087409 278.92992 
L 77.90108 275.70432 
L 78.714751 277.69344 
L 79.528421 277.53216 
L 80.342092 279.46752 
L 81.155762 278.23104 
L 81.969433 279.19872 
L 82.783103 277.7472 
L 83.596774 277.85472 
L 84.410444 279.03744 
L 85.224115 281.08032 
L 86.037785 280.48896 
L 90.919809 280.54272 
L 91.733479 280.32768 
L 92.54715 279.52128 
L 93.36082 279.57504 
L 94.988161 281.40288 
L 96.615502 280.54272 
L 98.242843 280.65024 
L 99.056514 279.57504 
L 99.870185 279.8976 
L 100.683855 280.48896 
L 101.497526 280.48896 
L 102.311196 280.81152 
L 103.124867 280.54272 
L 104.752208 280.59648 
L 105.565878 280.91904 
L 106.379549 280.81152 
L 107.193219 280.54272 
L 108.00689 280.11264 
L 108.82056 279.19872 
L 109.634231 278.71488 
L 110.447902 280.27392 
L 111.261572 278.60736 
L 112.075243 280.32768 
L 113.702584 280.65024 
L 114.516254 278.2848 
L 115.329925 281.56416 
L 116.143595 279.03744 
L 117.770936 279.14496 
L 118.584607 279.73632 
L 119.398278 278.06976 
L 120.211948 278.8224 
L 121.025619 279.79008 
L 121.839289 279.0912 
L 123.46663 279.14496 
L 124.280301 278.66112 
L 125.093971 279.57504 
L 125.907642 279.8976 
L 126.721312 279.79008 
L 127.534983 279.14496 
L 128.348653 277.80096 
L 129.162324 279.41376 
L 129.975995 279.0912 
L 130.789665 278.2848 
L 131.603336 278.06976 
L 132.417006 276.1344 
L 133.230677 267.264 
L 134.044347 267.69408 
L 134.858018 275.97312 
L 135.671688 266.88768 
L 136.485359 269.6832 
L 137.299029 264.8448 
L 138.1127 265.1136 
L 138.92637 261.94176 
L 139.740041 265.22112 
L 140.553712 259.57632 
L 141.367382 263.232 
L 142.181053 256.02816 
L 142.994723 256.40448 
L 143.808394 254.3616 
L 145.435735 258.28608 
L 146.249405 255.27552 
L 147.063076 254.57664 
L 147.876746 253.39392 
L 148.690417 255.9744 
L 149.504087 255.7056 
L 150.317758 249.46944 
L 151.131429 247.26528 
L 151.945099 248.7168 
L 152.75877 246.13632 
L 153.57244 251.72736 
L 154.386111 251.29728 
L 155.199781 249.792 
L 156.013452 255.168 
L 156.827122 256.99584 
L 157.640793 241.62048 
L 158.454463 246.8352 
L 159.268134 247.80288 
L 160.081805 254.30784 
L 160.895475 233.34144 
L 161.709146 241.02912 
L 162.522816 250.81344 
L 163.336487 240.49152 
L 164.150157 244.6848 
L 164.963828 235.65312 
L 165.777498 238.98624 
L 166.591169 239.04 
L 167.404839 239.25504 
L 168.21851 240.6528 
L 169.03218 239.90016 
L 169.845851 236.0832 
L 170.659522 234.36288 
L 173.100533 222.42816 
L 173.914204 231.7824 
L 174.727874 234.63168 
L 175.541545 227.26656 
L 176.355215 232.48128 
L 177.168886 232.69632 
L 177.982556 224.30976 
L 178.796227 219.04128 
L 179.609897 228.8256 
L 180.423568 218.88 
L 181.237239 223.07328 
L 182.050909 233.50272 
L 182.86458 227.91168 
L 183.67825 211.8912 
L 184.491921 225.3312 
L 185.305591 221.08416 
L 186.119262 217.75104 
L 186.932932 225.49248 
L 187.746603 221.568 
L 188.560273 223.93344 
L 189.373944 210.76224 
L 190.187614 218.3424 
L 191.001285 224.20224 
L 191.814956 209.14944 
L 192.628626 210.33216 
L 193.442297 221.78304 
L 194.255967 225.11616 
L 195.069638 194.31168 
L 195.883308 202.26816 
L 196.696979 212.05248 
L 197.510649 208.50432 
L 198.32432 195.2256 
L 199.13799 187.968 
L 199.951661 188.93568 
L 201.579002 219.1488 
L 202.392673 191.24736 
L 203.206343 195.17184 
L 204.020014 187.64544 
L 204.833684 191.30112 
L 205.647355 203.93472 
L 206.461025 183.61344 
L 207.274696 175.81824 
L 208.088366 207.26784 
L 208.902037 185.17248 
L 209.715707 174.63552 
L 210.529378 183.50592 
L 211.343049 198.9888 
L 212.156719 176.4096 
L 212.97039 181.94688 
L 213.78406 175.0656 
L 214.597731 171.89376 
L 215.411401 173.56032 
L 216.225072 164.63616 
L 217.038742 182.53824 
L 217.852413 168.3456 
L 218.666083 180.92544 
L 219.479754 166.30272 
L 221.107095 190.76352 
L 221.920766 169.31328 
L 222.734436 165.3888 
L 223.548107 190.87104 
L 224.361777 177.26976 
L 225.175448 202.37568 
L 225.989118 174.74304 
L 226.802789 156.73344 
L 227.616459 165.22752 
L 228.43013 175.28064 
L 229.2438 190.87104 
L 230.057471 172.21632 
L 230.871141 175.01184 
L 231.684812 155.22816 
L 232.498483 159.90528 
L 233.312153 151.30368 
L 234.125824 170.60352 
L 234.939494 173.82912 
L 235.753165 163.02336 
L 236.566835 142.11072 
L 237.380506 167.2704 
L 238.194176 162.1632 
L 239.007847 158.6688 
L 239.821517 154.20672 
L 240.635188 152.54016 
L 241.448859 163.02336 
L 242.262529 162.05568 
L 243.0762 168.66816 
L 243.88987 163.2384 
L 244.703541 167.0016 
L 245.517211 160.44288 
L 246.330882 175.38816 
L 247.144552 153.5616 
L 247.958223 167.96928 
L 248.771893 169.6896 
L 249.585564 155.01312 
L 250.399234 163.02336 
L 251.212905 160.60416 
L 252.026576 133.6704 
L 252.840246 166.7328 
L 253.653917 150.65856 
L 254.467587 128.77824 
L 255.281258 157.056 
L 256.094928 145.28256 
L 256.908599 165.17376 
L 257.722269 155.55072 
L 258.53594 140.17536 
L 259.34961 178.99008 
L 260.163281 174.09792 
L 260.976951 155.01312 
L 261.790622 164.42112 
L 262.604293 148.40064 
L 263.417963 145.65888 
L 264.231634 145.7664 
L 265.045304 140.6592 
L 265.858975 143.13216 
L 266.672645 154.85184 
L 267.486316 127.11168 
L 268.299986 154.74432 
L 269.113657 144.63744 
L 269.927327 141.14304 
L 270.740998 185.5488 
L 271.554668 149.90592 
L 272.368339 155.81952 
L 273.18201 157.8624 
L 273.99568 159.31392 
L 274.809351 188.88192 
L 275.623021 136.14336 
L 276.436692 145.60512 
L 277.250362 134.90688 
L 278.064033 147.05664 
L 278.877703 141.89568 
L 279.691374 147.54048 
L 280.505044 136.0896 
L 281.318715 179.15136 
L 282.132386 141.94944 
L 282.946056 163.56096 
L 283.759727 158.45376 
L 284.573397 174.04416 
L 285.387068 139.79904 
L 286.200738 153.99168 
L 287.014409 145.71264 
L 288.64175 181.19424 
L 289.45542 141.89568 
L 290.269091 139.10016 
L 291.082761 149.7984 
L 291.896432 143.0784 
L 292.710103 146.8416 
L 293.523773 130.06848 
L 294.337444 157.96992 
L 295.151114 160.33536 
L 295.964785 159.26016 
L 296.778455 152.70144 
L 297.592126 152.05632 
L 298.405796 142.75584 
L 299.219467 140.49792 
L 300.033137 147.48672 
L 300.846808 151.51872 
L 301.660478 137.27232 
L 302.474149 168.6144 
L 303.28782 154.47552 
L 304.10149 145.06752 
L 304.915161 149.2608 
L 305.728831 144.90624 
L 306.542502 154.0992 
L 307.356172 129.31584 
L 308.169843 134.4768 
L 308.983513 161.51808 
L 309.797184 147.86304 
L 310.610854 120.87552 
L 311.424525 151.46496 
L 312.238195 140.71296 
L 313.051866 126.78912 
L 313.865537 126.6816 
L 314.679207 138.72384 
L 315.492878 143.66976 
L 316.306548 126.46656 
L 317.120219 145.4976 
L 317.933889 125.8752 
L 319.56123 160.12032 
L 320.374901 136.78848 
L 321.188571 142.43328 
L 322.002242 155.65824 
L 322.815913 131.68128 
L 323.629583 134.208 
L 324.443254 143.13216 
L 325.256924 158.34624 
L 326.070595 146.78784 
L 326.884265 141.41184 
L 327.697936 153.40032 
L 328.511606 136.14336 
L 329.325277 150.22848 
L 330.138947 152.80896 
L 330.952618 127.54176 
L 331.766288 148.02432 
L 332.579959 158.72256 
L 333.39363 120.55296 
L 334.2073 145.71264 
L 335.020971 138.61632 
L 335.834641 129.20832 
L 336.648312 139.10016 
L 337.461982 137.48736 
L 338.275653 143.13216 
L 339.089323 152.43264 
L 339.902994 153.8304 
L 340.716664 161.51808 
L 341.530335 148.13184 
L 342.344005 140.71296 
L 343.157676 144.52992 
L 343.971347 145.28256 
L 344.785017 139.0464 
L 345.598688 150.71232 
L 346.412358 169.90464 
L 347.226029 124.5312 
L 348.039699 149.95968 
L 348.85337 148.1856 
L 349.66704 159.85152 
L 350.480711 153.34656 
L 351.294381 143.0784 
L 352.108052 138.56256 
L 352.921722 122.32704 
L 353.735393 131.95008 
L 354.549064 150.49728 
L 355.362734 117.05856 
L 356.176405 163.776 
L 356.990075 140.17536 
L 357.803746 134.58432 
L 358.617416 125.23008 
L 359.431087 125.71392 
L 360.244757 127.488 
L 361.058428 111.79008 
L 361.872098 140.44416 
L 362.685769 146.08896 
L 363.49944 125.3376 
L 364.31311 133.45536 
L 365.126781 140.17536 
L 365.940451 120.55296 
L 367.567792 141.4656 
L 368.381463 140.928 
L 369.195133 135.76704 
L 370.008804 139.8528 
L 370.822474 129.26208 
L 371.636145 171.62496 
L 372.449815 160.22784 
L 373.263486 132.0576 
L 374.077157 145.39008 
L 374.890827 133.45536 
L 376.518168 146.46528 
L 377.331839 127.38048 
L 378.145509 143.23968 
L 378.95918 128.67072 
L 379.77285 127.91808 
L 380.586521 118.02624 
L 381.400191 144.52992 
L 382.213862 157.3248 
L 383.027532 117.48864 
L 383.841203 135.06816 
L 384.654874 145.17504 
L 385.468544 150.22848 
L 386.282215 139.36896 
L 387.095885 133.4016 
L 387.909556 146.51904 
L 389.536897 128.0256 
L 390.350567 144.58368 
L 391.164238 129.53088 
L 391.977908 108.4032 
L 392.791579 138.02496 
L 393.605249 131.89632 
L 394.41892 128.5632 
L 395.232591 126.03648 
L 396.046261 127.00416 
L 396.859932 140.98176 
L 397.673602 135.17568 
L 398.487273 151.4112 
L 398.487273 151.4112 
" style="fill:none;stroke:#ff7f0e;stroke-linecap:square;stroke-width:1.5;"/>
   </g>
   <g id="patch_3">
    <path d="M 57.6 307.584 
L 57.6 41.472 
" style="fill:none;stroke:#000000;stroke-linecap:square;stroke-linejoin:miter;stroke-width:0.8;"/>
   </g>
   <g id="patch_4">
    <path d="M 414.72 307.584 
L 414.72 41.472 
" style="fill:none;stroke:#000000;stroke-linecap:square;stroke-linejoin:miter;stroke-width:0.8;"/>
   </g>
   <g id="patch_5">
    <path d="M 57.6 307.584 
L 414.72 307.584 
" style="fill:none;stroke:#000000;stroke-linecap:square;stroke-linejoin:miter;stroke-width:0.8;"/>
   </g>
   <g id="patch_6">
    <path d="M 57.6 41.472 
L 414.72 41.472 
" style="fill:none;stroke:#000000;stroke-linecap:square;stroke-linejoin:miter;stroke-width:0.8;"/>
   </g>
   <g id="legend_1">
    <g id="patch_7">
     <path d="M 64.6 78.82825 
L 168.475 78.82825 
Q 170.475 78.82825 170.475 76.82825 
L 170.475 48.472 
Q 170.475 46.472 168.475 46.472 
L 64.6 46.472 
Q 62.6 46.472 62.6 48.472 
L 62.6 76.82825 
Q 62.6 78.82825 64.6 78.82825 
z
" style="fill:#ffffff;opacity:0.8;stroke:#cccccc;stroke-linejoin:miter;"/>
    </g>
    <g id="line2d_20">
     <path d="M 66.6 54.570437 
L 86.6 54.570437 
" style="fill:none;stroke:#1f77b4;stroke-linecap:square;stroke-width:1.5;"/>
    </g>
    <g id="line2d_21"/>
    <g id="text_20">
     <!-- Train loss -->
     <g transform="translate(94.6 58.070437)scale(0.1 -0.1)">
      <defs>
       <path d="M -19 4666 
L 3928 4666 
L 3928 4134 
L 2272 4134 
L 2272 0 
L 1638 0 
L 1638 4134 
L -19 4134 
L -19 4666 
z
" id="DejaVuSans-54" transform="scale(0.015625)"/>
       <path d="M 2631 2963 
Q 2534 3019 2420 3045 
Q 2306 3072 2169 3072 
Q 1681 3072 1420 2755 
Q 1159 2438 1159 1844 
L 1159 0 
L 581 0 
L 581 3500 
L 1159 3500 
L 1159 2956 
Q 1341 3275 1631 3429 
Q 1922 3584 2338 3584 
Q 2397 3584 2469 3576 
Q 2541 3569 2628 3553 
L 2631 2963 
z
" id="DejaVuSans-72" transform="scale(0.015625)"/>
       <path d="M 2194 1759 
Q 1497 1759 1228 1600 
Q 959 1441 959 1056 
Q 959 750 1161 570 
Q 1363 391 1709 391 
Q 2188 391 2477 730 
Q 2766 1069 2766 1631 
L 2766 1759 
L 2194 1759 
z
M 3341 1997 
L 3341 0 
L 2766 0 
L 2766 531 
Q 2569 213 2275 61 
Q 1981 -91 1556 -91 
Q 1019 -91 701 211 
Q 384 513 384 1019 
Q 384 1609 779 1909 
Q 1175 2209 1959 2209 
L 2766 2209 
L 2766 2266 
Q 2766 2663 2505 2880 
Q 2244 3097 1772 3097 
Q 1472 3097 1187 3025 
Q 903 2953 641 2809 
L 641 3341 
Q 956 3463 1253 3523 
Q 1550 3584 1831 3584 
Q 2591 3584 2966 3190 
Q 3341 2797 3341 1997 
z
" id="DejaVuSans-61" transform="scale(0.015625)"/>
       <path d="M 603 3500 
L 1178 3500 
L 1178 0 
L 603 0 
L 603 3500 
z
M 603 4863 
L 1178 4863 
L 1178 4134 
L 603 4134 
L 603 4863 
z
" id="DejaVuSans-69" transform="scale(0.015625)"/>
       <path d="M 3513 2113 
L 3513 0 
L 2938 0 
L 2938 2094 
Q 2938 2591 2744 2837 
Q 2550 3084 2163 3084 
Q 1697 3084 1428 2787 
Q 1159 2491 1159 1978 
L 1159 0 
L 581 0 
L 581 3500 
L 1159 3500 
L 1159 2956 
Q 1366 3272 1645 3428 
Q 1925 3584 2291 3584 
Q 2894 3584 3203 3211 
Q 3513 2838 3513 2113 
z
" id="DejaVuSans-6e" transform="scale(0.015625)"/>
       <path id="DejaVuSans-20" transform="scale(0.015625)"/>
       <path d="M 603 4863 
L 1178 4863 
L 1178 0 
L 603 0 
L 603 4863 
z
" id="DejaVuSans-6c" transform="scale(0.015625)"/>
      </defs>
      <use xlink:href="#DejaVuSans-54"/>
      <use x="46.333984" xlink:href="#DejaVuSans-72"/>
      <use x="87.447266" xlink:href="#DejaVuSans-61"/>
      <use x="148.726562" xlink:href="#DejaVuSans-69"/>
      <use x="176.509766" xlink:href="#DejaVuSans-6e"/>
      <use x="239.888672" xlink:href="#DejaVuSans-20"/>
      <use x="271.675781" xlink:href="#DejaVuSans-6c"/>
      <use x="299.458984" xlink:href="#DejaVuSans-6f"/>
      <use x="360.640625" xlink:href="#DejaVuSans-73"/>
      <use x="412.740234" xlink:href="#DejaVuSans-73"/>
     </g>
    </g>
    <g id="line2d_22">
     <path d="M 66.6 69.248562 
L 86.6 69.248562 
" style="fill:none;stroke:#ff7f0e;stroke-linecap:square;stroke-width:1.5;"/>
    </g>
    <g id="line2d_23"/>
    <g id="text_21">
     <!-- Validation loss -->
     <g transform="translate(94.6 72.748562)scale(0.1 -0.1)">
      <defs>
       <path d="M 1831 0 
L 50 4666 
L 709 4666 
L 2188 738 
L 3669 4666 
L 4325 4666 
L 2547 0 
L 1831 0 
z
" id="DejaVuSans-56" transform="scale(0.015625)"/>
       <path d="M 2906 2969 
L 2906 4863 
L 3481 4863 
L 3481 0 
L 2906 0 
L 2906 525 
Q 2725 213 2448 61 
Q 2172 -91 1784 -91 
Q 1150 -91 751 415 
Q 353 922 353 1747 
Q 353 2572 751 3078 
Q 1150 3584 1784 3584 
Q 2172 3584 2448 3432 
Q 2725 3281 2906 2969 
z
M 947 1747 
Q 947 1113 1208 752 
Q 1469 391 1925 391 
Q 2381 391 2643 752 
Q 2906 1113 2906 1747 
Q 2906 2381 2643 2742 
Q 2381 3103 1925 3103 
Q 1469 3103 1208 2742 
Q 947 2381 947 1747 
z
" id="DejaVuSans-64" transform="scale(0.015625)"/>
       <path d="M 1172 4494 
L 1172 3500 
L 2356 3500 
L 2356 3053 
L 1172 3053 
L 1172 1153 
Q 1172 725 1289 603 
Q 1406 481 1766 481 
L 2356 481 
L 2356 0 
L 1766 0 
Q 1100 0 847 248 
Q 594 497 594 1153 
L 594 3053 
L 172 3053 
L 172 3500 
L 594 3500 
L 594 4494 
L 1172 4494 
z
" id="DejaVuSans-74" transform="scale(0.015625)"/>
      </defs>
      <use xlink:href="#DejaVuSans-56"/>
      <use x="60.658203" xlink:href="#DejaVuSans-61"/>
      <use x="121.9375" xlink:href="#DejaVuSans-6c"/>
      <use x="149.720703" xlink:href="#DejaVuSans-69"/>
      <use x="177.503906" xlink:href="#DejaVuSans-64"/>
      <use x="240.980469" xlink:href="#DejaVuSans-61"/>
      <use x="302.259766" xlink:href="#DejaVuSans-74"/>
      <use x="341.46875" xlink:href="#DejaVuSans-69"/>
      <use x="369.251953" xlink:href="#DejaVuSans-6f"/>
      <use x="430.433594" xlink:href="#DejaVuSans-6e"/>
      <use x="493.8125" xlink:href="#DejaVuSans-20"/>
      <use x="525.599609" xlink:href="#DejaVuSans-6c"/>
      <use x="553.382812" xlink:href="#DejaVuSans-6f"/>
      <use x="614.564453" xlink:href="#DejaVuSans-73"/>
      <use x="666.664062" xlink:href="#DejaVuSans-73"/>
     </g>
    </g>
   </g>
  </g>
 </g>
 <defs>
  <clipPath id="p1a30565235">
   <rect height="266.112" width="357.12" x="57.6" y="41.472"/>
  </clipPath>
 </defs>
</svg>
