<?xml version="1.0" encoding="utf-8" standalone="no"?>
<!DOCTYPE svg PUBLIC "-//W3C//DTD SVG 1.1//EN"
  "http://www.w3.org/Graphics/SVG/1.1/DTD/svg11.dtd">
<svg height="345.6pt" version="1.1" viewBox="0 0 460.8 345.6" width="460.8pt" xmlns="http://www.w3.org/2000/svg" xmlns:xlink="http://www.w3.org/1999/xlink">
 <metadata>
  <rdf:RDF xmlns:cc="http://creativecommons.org/ns#" xmlns:dc="http://purl.org/dc/elements/1.1/" xmlns:rdf="http://www.w3.org/1999/02/22-rdf-syntax-ns#">
   <cc:Work>
    <dc:type rdf:resource="http://purl.org/dc/dcmitype/StillImage"/>
    <dc:date>2021-07-17T02:56:59.260472</dc:date>
    <dc:format>image/svg+xml</dc:format>
    <dc:creator>
     <cc:Agent>
      <dc:title>Matplotlib v3.4.2, https://matplotlib.org/</dc:title>
     </cc:Agent>
    </dc:creator>
   </cc:Work>
  </rdf:RDF>
 </metadata>
 <defs>
  <style type="text/css">*{stroke-linecap:butt;stroke-linejoin:round;}</style>
 </defs>
 <g id="figure_1">
  <g id="patch_1">
   <path d="M 0 345.6 
L 460.8 345.6 
L 460.8 0 
L 0 0 
z
" style="fill:#ffffff;"/>
  </g>
  <g id="axes_1">
   <g id="patch_2">
    <path d="M 57.6 307.584 
L 414.72 307.584 
L 414.72 41.472 
L 57.6 41.472 
z
" style="fill:#ffffff;"/>
   </g>
   <g id="matplotlib.axis_1">
    <g id="xtick_1">
     <g id="line2d_1">
      <defs>
       <path d="M 0 0 
L 0 3.5 
" id="mce0e2b2ebe" style="stroke:#000000;stroke-width:0.8;"/>
      </defs>
      <g>
       <use style="stroke:#000000;stroke-width:0.8;" x="73.019057" xlink:href="#mce0e2b2ebe" y="307.584"/>
      </g>
     </g>
     <g id="text_1">
      <!-- 0 -->
      <g transform="translate(69.837807 322.182437)scale(0.1 -0.1)">
       <defs>
        <path d="M 2034 4250 
Q 1547 4250 1301 3770 
Q 1056 3291 1056 2328 
Q 1056 1369 1301 889 
Q 1547 409 2034 409 
Q 2525 409 2770 889 
Q 3016 1369 3016 2328 
Q 3016 3291 2770 3770 
Q 2525 4250 2034 4250 
z
M 2034 4750 
Q 2819 4750 3233 4129 
Q 3647 3509 3647 2328 
Q 3647 1150 3233 529 
Q 2819 -91 2034 -91 
Q 1250 -91 836 529 
Q 422 1150 422 2328 
Q 422 3509 836 4129 
Q 1250 4750 2034 4750 
z
" id="DejaVuSans-30" transform="scale(0.015625)"/>
       </defs>
       <use xlink:href="#DejaVuSans-30"/>
      </g>
     </g>
    </g>
    <g id="xtick_2">
     <g id="line2d_2">
      <g>
       <use style="stroke:#000000;stroke-width:0.8;" x="113.702584" xlink:href="#mce0e2b2ebe" y="307.584"/>
      </g>
     </g>
     <g id="text_2">
      <!-- 50 -->
      <g transform="translate(107.340084 322.182437)scale(0.1 -0.1)">
       <defs>
        <path d="M 691 4666 
L 3169 4666 
L 3169 4134 
L 1269 4134 
L 1269 2991 
Q 1406 3038 1543 3061 
Q 1681 3084 1819 3084 
Q 2600 3084 3056 2656 
Q 3513 2228 3513 1497 
Q 3513 744 3044 326 
Q 2575 -91 1722 -91 
Q 1428 -91 1123 -41 
Q 819 9 494 109 
L 494 744 
Q 775 591 1075 516 
Q 1375 441 1709 441 
Q 2250 441 2565 725 
Q 2881 1009 2881 1497 
Q 2881 1984 2565 2268 
Q 2250 2553 1709 2553 
Q 1456 2553 1204 2497 
Q 953 2441 691 2322 
L 691 4666 
z
" id="DejaVuSans-35" transform="scale(0.015625)"/>
       </defs>
       <use xlink:href="#DejaVuSans-35"/>
       <use x="63.623047" xlink:href="#DejaVuSans-30"/>
      </g>
     </g>
    </g>
    <g id="xtick_3">
     <g id="line2d_3">
      <g>
       <use style="stroke:#000000;stroke-width:0.8;" x="154.386111" xlink:href="#mce0e2b2ebe" y="307.584"/>
      </g>
     </g>
     <g id="text_3">
      <!-- 100 -->
      <g transform="translate(144.842361 322.182437)scale(0.1 -0.1)">
       <defs>
        <path d="M 794 531 
L 1825 531 
L 1825 4091 
L 703 3866 
L 703 4441 
L 1819 4666 
L 2450 4666 
L 2450 531 
L 3481 531 
L 3481 0 
L 794 0 
L 794 531 
z
" id="DejaVuSans-31" transform="scale(0.015625)"/>
       </defs>
       <use xlink:href="#DejaVuSans-31"/>
       <use x="63.623047" xlink:href="#DejaVuSans-30"/>
       <use x="127.246094" xlink:href="#DejaVuSans-30"/>
      </g>
     </g>
    </g>
    <g id="xtick_4">
     <g id="line2d_4">
      <g>
       <use style="stroke:#000000;stroke-width:0.8;" x="195.069638" xlink:href="#mce0e2b2ebe" y="307.584"/>
      </g>
     </g>
     <g id="text_4">
      <!-- 150 -->
      <g transform="translate(185.525888 322.182437)scale(0.1 -0.1)">
       <use xlink:href="#DejaVuSans-31"/>
       <use x="63.623047" xlink:href="#DejaVuSans-35"/>
       <use x="127.246094" xlink:href="#DejaVuSans-30"/>
      </g>
     </g>
    </g>
    <g id="xtick_5">
     <g id="line2d_5">
      <g>
       <use style="stroke:#000000;stroke-width:0.8;" x="235.753165" xlink:href="#mce0e2b2ebe" y="307.584"/>
      </g>
     </g>
     <g id="text_5">
      <!-- 200 -->
      <g transform="translate(226.209415 322.182437)scale(0.1 -0.1)">
       <defs>
        <path d="M 1228 531 
L 3431 531 
L 3431 0 
L 469 0 
L 469 531 
Q 828 903 1448 1529 
Q 2069 2156 2228 2338 
Q 2531 2678 2651 2914 
Q 2772 3150 2772 3378 
Q 2772 3750 2511 3984 
Q 2250 4219 1831 4219 
Q 1534 4219 1204 4116 
Q 875 4013 500 3803 
L 500 4441 
Q 881 4594 1212 4672 
Q 1544 4750 1819 4750 
Q 2544 4750 2975 4387 
Q 3406 4025 3406 3419 
Q 3406 3131 3298 2873 
Q 3191 2616 2906 2266 
Q 2828 2175 2409 1742 
Q 1991 1309 1228 531 
z
" id="DejaVuSans-32" transform="scale(0.015625)"/>
       </defs>
       <use xlink:href="#DejaVuSans-32"/>
       <use x="63.623047" xlink:href="#DejaVuSans-30"/>
       <use x="127.246094" xlink:href="#DejaVuSans-30"/>
      </g>
     </g>
    </g>
    <g id="xtick_6">
     <g id="line2d_6">
      <g>
       <use style="stroke:#000000;stroke-width:0.8;" x="276.436692" xlink:href="#mce0e2b2ebe" y="307.584"/>
      </g>
     </g>
     <g id="text_6">
      <!-- 250 -->
      <g transform="translate(266.892942 322.182437)scale(0.1 -0.1)">
       <use xlink:href="#DejaVuSans-32"/>
       <use x="63.623047" xlink:href="#DejaVuSans-35"/>
       <use x="127.246094" xlink:href="#DejaVuSans-30"/>
      </g>
     </g>
    </g>
    <g id="xtick_7">
     <g id="line2d_7">
      <g>
       <use style="stroke:#000000;stroke-width:0.8;" x="317.120219" xlink:href="#mce0e2b2ebe" y="307.584"/>
      </g>
     </g>
     <g id="text_7">
      <!-- 300 -->
      <g transform="translate(307.576469 322.182437)scale(0.1 -0.1)">
       <defs>
        <path d="M 2597 2516 
Q 3050 2419 3304 2112 
Q 3559 1806 3559 1356 
Q 3559 666 3084 287 
Q 2609 -91 1734 -91 
Q 1441 -91 1130 -33 
Q 819 25 488 141 
L 488 750 
Q 750 597 1062 519 
Q 1375 441 1716 441 
Q 2309 441 2620 675 
Q 2931 909 2931 1356 
Q 2931 1769 2642 2001 
Q 2353 2234 1838 2234 
L 1294 2234 
L 1294 2753 
L 1863 2753 
Q 2328 2753 2575 2939 
Q 2822 3125 2822 3475 
Q 2822 3834 2567 4026 
Q 2313 4219 1838 4219 
Q 1578 4219 1281 4162 
Q 984 4106 628 3988 
L 628 4550 
Q 988 4650 1302 4700 
Q 1616 4750 1894 4750 
Q 2613 4750 3031 4423 
Q 3450 4097 3450 3541 
Q 3450 3153 3228 2886 
Q 3006 2619 2597 2516 
z
" id="DejaVuSans-33" transform="scale(0.015625)"/>
       </defs>
       <use xlink:href="#DejaVuSans-33"/>
       <use x="63.623047" xlink:href="#DejaVuSans-30"/>
       <use x="127.246094" xlink:href="#DejaVuSans-30"/>
      </g>
     </g>
    </g>
    <g id="xtick_8">
     <g id="line2d_8">
      <g>
       <use style="stroke:#000000;stroke-width:0.8;" x="357.803746" xlink:href="#mce0e2b2ebe" y="307.584"/>
      </g>
     </g>
     <g id="text_8">
      <!-- 350 -->
      <g transform="translate(348.259996 322.182437)scale(0.1 -0.1)">
       <use xlink:href="#DejaVuSans-33"/>
       <use x="63.623047" xlink:href="#DejaVuSans-35"/>
       <use x="127.246094" xlink:href="#DejaVuSans-30"/>
      </g>
     </g>
    </g>
    <g id="xtick_9">
     <g id="line2d_9">
      <g>
       <use style="stroke:#000000;stroke-width:0.8;" x="398.487273" xlink:href="#mce0e2b2ebe" y="307.584"/>
      </g>
     </g>
     <g id="text_9">
      <!-- 400 -->
      <g transform="translate(388.943523 322.182437)scale(0.1 -0.1)">
       <defs>
        <path d="M 2419 4116 
L 825 1625 
L 2419 1625 
L 2419 4116 
z
M 2253 4666 
L 3047 4666 
L 3047 1625 
L 3713 1625 
L 3713 1100 
L 3047 1100 
L 3047 0 
L 2419 0 
L 2419 1100 
L 313 1100 
L 313 1709 
L 2253 4666 
z
" id="DejaVuSans-34" transform="scale(0.015625)"/>
       </defs>
       <use xlink:href="#DejaVuSans-34"/>
       <use x="63.623047" xlink:href="#DejaVuSans-30"/>
       <use x="127.246094" xlink:href="#DejaVuSans-30"/>
      </g>
     </g>
    </g>
    <g id="text_10">
     <!-- Epoch -->
     <g transform="translate(213.193594 339.659781)scale(0.15 -0.15)">
      <defs>
       <path d="M 628 4666 
L 3578 4666 
L 3578 4134 
L 1259 4134 
L 1259 2753 
L 3481 2753 
L 3481 2222 
L 1259 2222 
L 1259 531 
L 3634 531 
L 3634 0 
L 628 0 
L 628 4666 
z
" id="DejaVuSans-45" transform="scale(0.015625)"/>
       <path d="M 1159 525 
L 1159 -1331 
L 581 -1331 
L 581 3500 
L 1159 3500 
L 1159 2969 
Q 1341 3281 1617 3432 
Q 1894 3584 2278 3584 
Q 2916 3584 3314 3078 
Q 3713 2572 3713 1747 
Q 3713 922 3314 415 
Q 2916 -91 2278 -91 
Q 1894 -91 1617 61 
Q 1341 213 1159 525 
z
M 3116 1747 
Q 3116 2381 2855 2742 
Q 2594 3103 2138 3103 
Q 1681 3103 1420 2742 
Q 1159 2381 1159 1747 
Q 1159 1113 1420 752 
Q 1681 391 2138 391 
Q 2594 391 2855 752 
Q 3116 1113 3116 1747 
z
" id="DejaVuSans-70" transform="scale(0.015625)"/>
       <path d="M 1959 3097 
Q 1497 3097 1228 2736 
Q 959 2375 959 1747 
Q 959 1119 1226 758 
Q 1494 397 1959 397 
Q 2419 397 2687 759 
Q 2956 1122 2956 1747 
Q 2956 2369 2687 2733 
Q 2419 3097 1959 3097 
z
M 1959 3584 
Q 2709 3584 3137 3096 
Q 3566 2609 3566 1747 
Q 3566 888 3137 398 
Q 2709 -91 1959 -91 
Q 1206 -91 779 398 
Q 353 888 353 1747 
Q 353 2609 779 3096 
Q 1206 3584 1959 3584 
z
" id="DejaVuSans-6f" transform="scale(0.015625)"/>
       <path d="M 3122 3366 
L 3122 2828 
Q 2878 2963 2633 3030 
Q 2388 3097 2138 3097 
Q 1578 3097 1268 2742 
Q 959 2388 959 1747 
Q 959 1106 1268 751 
Q 1578 397 2138 397 
Q 2388 397 2633 464 
Q 2878 531 3122 666 
L 3122 134 
Q 2881 22 2623 -34 
Q 2366 -91 2075 -91 
Q 1284 -91 818 406 
Q 353 903 353 1747 
Q 353 2603 823 3093 
Q 1294 3584 2113 3584 
Q 2378 3584 2631 3529 
Q 2884 3475 3122 3366 
z
" id="DejaVuSans-63" transform="scale(0.015625)"/>
       <path d="M 3513 2113 
L 3513 0 
L 2938 0 
L 2938 2094 
Q 2938 2591 2744 2837 
Q 2550 3084 2163 3084 
Q 1697 3084 1428 2787 
Q 1159 2491 1159 1978 
L 1159 0 
L 581 0 
L 581 4863 
L 1159 4863 
L 1159 2956 
Q 1366 3272 1645 3428 
Q 1925 3584 2291 3584 
Q 2894 3584 3203 3211 
Q 3513 2838 3513 2113 
z
" id="DejaVuSans-68" transform="scale(0.015625)"/>
      </defs>
      <use xlink:href="#DejaVuSans-45"/>
      <use x="63.183594" xlink:href="#DejaVuSans-70"/>
      <use x="126.660156" xlink:href="#DejaVuSans-6f"/>
      <use x="187.841797" xlink:href="#DejaVuSans-63"/>
      <use x="242.822266" xlink:href="#DejaVuSans-68"/>
     </g>
    </g>
   </g>
   <g id="matplotlib.axis_2">
    <g id="ytick_1">
     <g id="line2d_10">
      <defs>
       <path d="M 0 0 
L -3.5 0 
" id="me70fcd75f9" style="stroke:#000000;stroke-width:0.8;"/>
      </defs>
      <g>
       <use style="stroke:#000000;stroke-width:0.8;" x="57.6" xlink:href="#me70fcd75f9" y="290.395975"/>
      </g>
     </g>
     <g id="text_11">
      <!-- −1000 -->
      <g transform="translate(16.770313 294.195194)scale(0.1 -0.1)">
       <defs>
        <path d="M 678 2272 
L 4684 2272 
L 4684 1741 
L 678 1741 
L 678 2272 
z
" id="DejaVuSans-2212" transform="scale(0.015625)"/>
       </defs>
       <use xlink:href="#DejaVuSans-2212"/>
       <use x="83.789062" xlink:href="#DejaVuSans-31"/>
       <use x="147.412109" xlink:href="#DejaVuSans-30"/>
       <use x="211.035156" xlink:href="#DejaVuSans-30"/>
       <use x="274.658203" xlink:href="#DejaVuSans-30"/>
      </g>
     </g>
    </g>
    <g id="ytick_2">
     <g id="line2d_11">
      <g>
       <use style="stroke:#000000;stroke-width:0.8;" x="57.6" xlink:href="#me70fcd75f9" y="243.034607"/>
      </g>
     </g>
     <g id="text_12">
      <!-- −800 -->
      <g transform="translate(23.132812 246.833826)scale(0.1 -0.1)">
       <defs>
        <path d="M 2034 2216 
Q 1584 2216 1326 1975 
Q 1069 1734 1069 1313 
Q 1069 891 1326 650 
Q 1584 409 2034 409 
Q 2484 409 2743 651 
Q 3003 894 3003 1313 
Q 3003 1734 2745 1975 
Q 2488 2216 2034 2216 
z
M 1403 2484 
Q 997 2584 770 2862 
Q 544 3141 544 3541 
Q 544 4100 942 4425 
Q 1341 4750 2034 4750 
Q 2731 4750 3128 4425 
Q 3525 4100 3525 3541 
Q 3525 3141 3298 2862 
Q 3072 2584 2669 2484 
Q 3125 2378 3379 2068 
Q 3634 1759 3634 1313 
Q 3634 634 3220 271 
Q 2806 -91 2034 -91 
Q 1263 -91 848 271 
Q 434 634 434 1313 
Q 434 1759 690 2068 
Q 947 2378 1403 2484 
z
M 1172 3481 
Q 1172 3119 1398 2916 
Q 1625 2713 2034 2713 
Q 2441 2713 2670 2916 
Q 2900 3119 2900 3481 
Q 2900 3844 2670 4047 
Q 2441 4250 2034 4250 
Q 1625 4250 1398 4047 
Q 1172 3844 1172 3481 
z
" id="DejaVuSans-38" transform="scale(0.015625)"/>
       </defs>
       <use xlink:href="#DejaVuSans-2212"/>
       <use x="83.789062" xlink:href="#DejaVuSans-38"/>
       <use x="147.412109" xlink:href="#DejaVuSans-30"/>
       <use x="211.035156" xlink:href="#DejaVuSans-30"/>
      </g>
     </g>
    </g>
    <g id="ytick_3">
     <g id="line2d_12">
      <g>
       <use style="stroke:#000000;stroke-width:0.8;" x="57.6" xlink:href="#me70fcd75f9" y="195.67324"/>
      </g>
     </g>
     <g id="text_13">
      <!-- −600 -->
      <g transform="translate(23.132812 199.472458)scale(0.1 -0.1)">
       <defs>
        <path d="M 2113 2584 
Q 1688 2584 1439 2293 
Q 1191 2003 1191 1497 
Q 1191 994 1439 701 
Q 1688 409 2113 409 
Q 2538 409 2786 701 
Q 3034 994 3034 1497 
Q 3034 2003 2786 2293 
Q 2538 2584 2113 2584 
z
M 3366 4563 
L 3366 3988 
Q 3128 4100 2886 4159 
Q 2644 4219 2406 4219 
Q 1781 4219 1451 3797 
Q 1122 3375 1075 2522 
Q 1259 2794 1537 2939 
Q 1816 3084 2150 3084 
Q 2853 3084 3261 2657 
Q 3669 2231 3669 1497 
Q 3669 778 3244 343 
Q 2819 -91 2113 -91 
Q 1303 -91 875 529 
Q 447 1150 447 2328 
Q 447 3434 972 4092 
Q 1497 4750 2381 4750 
Q 2619 4750 2861 4703 
Q 3103 4656 3366 4563 
z
" id="DejaVuSans-36" transform="scale(0.015625)"/>
       </defs>
       <use xlink:href="#DejaVuSans-2212"/>
       <use x="83.789062" xlink:href="#DejaVuSans-36"/>
       <use x="147.412109" xlink:href="#DejaVuSans-30"/>
       <use x="211.035156" xlink:href="#DejaVuSans-30"/>
      </g>
     </g>
    </g>
    <g id="ytick_4">
     <g id="line2d_13">
      <g>
       <use style="stroke:#000000;stroke-width:0.8;" x="57.6" xlink:href="#me70fcd75f9" y="148.311872"/>
      </g>
     </g>
     <g id="text_14">
      <!-- −400 -->
      <g transform="translate(23.132812 152.111091)scale(0.1 -0.1)">
       <use xlink:href="#DejaVuSans-2212"/>
       <use x="83.789062" xlink:href="#DejaVuSans-34"/>
       <use x="147.412109" xlink:href="#DejaVuSans-30"/>
       <use x="211.035156" xlink:href="#DejaVuSans-30"/>
      </g>
     </g>
    </g>
    <g id="ytick_5">
     <g id="line2d_14">
      <g>
       <use style="stroke:#000000;stroke-width:0.8;" x="57.6" xlink:href="#me70fcd75f9" y="100.950504"/>
      </g>
     </g>
     <g id="text_15">
      <!-- −200 -->
      <g transform="translate(23.132812 104.749723)scale(0.1 -0.1)">
       <use xlink:href="#DejaVuSans-2212"/>
       <use x="83.789062" xlink:href="#DejaVuSans-32"/>
       <use x="147.412109" xlink:href="#DejaVuSans-30"/>
       <use x="211.035156" xlink:href="#DejaVuSans-30"/>
      </g>
     </g>
    </g>
    <g id="ytick_6">
     <g id="line2d_15">
      <g>
       <use style="stroke:#000000;stroke-width:0.8;" x="57.6" xlink:href="#me70fcd75f9" y="53.589137"/>
      </g>
     </g>
     <g id="text_16">
      <!-- 0 -->
      <g transform="translate(44.2375 57.388355)scale(0.1 -0.1)">
       <use xlink:href="#DejaVuSans-30"/>
      </g>
     </g>
    </g>
    <g id="text_17">
     <!-- Loss -->
     <g transform="translate(9.650781 190.978781)rotate(-90)scale(0.15 -0.15)">
      <defs>
       <path d="M 628 4666 
L 1259 4666 
L 1259 531 
L 3531 531 
L 3531 0 
L 628 0 
L 628 4666 
z
" id="DejaVuSans-4c" transform="scale(0.015625)"/>
       <path d="M 2834 3397 
L 2834 2853 
Q 2591 2978 2328 3040 
Q 2066 3103 1784 3103 
Q 1356 3103 1142 2972 
Q 928 2841 928 2578 
Q 928 2378 1081 2264 
Q 1234 2150 1697 2047 
L 1894 2003 
Q 2506 1872 2764 1633 
Q 3022 1394 3022 966 
Q 3022 478 2636 193 
Q 2250 -91 1575 -91 
Q 1294 -91 989 -36 
Q 684 19 347 128 
L 347 722 
Q 666 556 975 473 
Q 1284 391 1588 391 
Q 1994 391 2212 530 
Q 2431 669 2431 922 
Q 2431 1156 2273 1281 
Q 2116 1406 1581 1522 
L 1381 1569 
Q 847 1681 609 1914 
Q 372 2147 372 2553 
Q 372 3047 722 3315 
Q 1072 3584 1716 3584 
Q 2034 3584 2315 3537 
Q 2597 3491 2834 3397 
z
" id="DejaVuSans-73" transform="scale(0.015625)"/>
      </defs>
      <use xlink:href="#DejaVuSans-4c"/>
      <use x="53.962891" xlink:href="#DejaVuSans-6f"/>
      <use x="115.144531" xlink:href="#DejaVuSans-73"/>
      <use x="167.244141" xlink:href="#DejaVuSans-73"/>
     </g>
    </g>
   </g>
   <g id="line2d_16">
    <path clip-path="url(#p09dbaff3a4)" d="M 73.832727 65.647049 
L 74.646398 115.108862 
L 75.460068 123.691226 
L 76.273739 123.450213 
L 77.087409 142.391587 
L 77.90108 151.760396 
L 78.714751 146.122541 
L 79.528421 162.527467 
L 80.342092 171.476002 
L 81.155762 170.433062 
L 81.969433 181.333572 
L 82.783103 176.861179 
L 83.596774 181.232211 
L 84.410444 192.15162 
L 85.224115 182.753318 
L 86.037785 193.534002 
L 86.851456 198.920972 
L 87.665126 197.22558 
L 88.478797 199.134682 
L 89.292468 195.254965 
L 90.106138 205.24799 
L 90.919809 212.63107 
L 91.733479 206.617248 
L 92.54715 192.665474 
L 93.36082 186.840797 
L 94.174491 203.672757 
L 94.988161 203.647351 
L 95.801832 206.020098 
L 96.615502 223.799675 
L 97.429173 215.254003 
L 98.242843 217.626011 
L 99.056514 226.753126 
L 99.870185 228.270684 
L 100.683855 225.467538 
L 101.497526 226.847256 
L 102.311196 227.149795 
L 103.124867 232.181666 
L 103.938537 226.698112 
L 104.752208 235.812232 
L 105.565878 226.570353 
L 106.379549 229.761198 
L 107.193219 222.267391 
L 108.00689 236.384114 
L 108.82056 238.531077 
L 109.634231 241.995094 
L 110.447902 233.038552 
L 111.261572 239.154252 
L 112.075243 242.366097 
L 112.888913 244.156608 
L 113.702584 243.828365 
L 114.516254 233.032698 
L 115.329925 255.160441 
L 116.143595 253.336693 
L 116.957266 253.587341 
L 117.770936 249.327301 
L 118.584607 243.384535 
L 119.398278 246.446794 
L 120.211948 254.595831 
L 121.025619 247.734723 
L 121.839289 248.253606 
L 122.65296 254.035389 
L 123.46663 246.03 
L 124.280301 251.292636 
L 125.093971 247.773371 
L 125.907642 240.370102 
L 126.721312 250.098479 
L 127.534983 251.932193 
L 128.348653 254.144534 
L 129.162324 242.034193 
L 129.975995 241.064787 
L 130.789665 248.180929 
L 131.603336 246.800483 
L 132.417006 256.723987 
L 133.230677 257.80379 
L 134.044347 245.448951 
L 134.858018 249.737854 
L 135.671688 261.456775 
L 136.485359 258.816343 
L 137.299029 241.92108 
L 138.1127 259.441816 
L 138.92637 239.390612 
L 139.740041 253.179234 
L 140.553712 250.994699 
L 141.367382 253.753444 
L 142.181053 253.507586 
L 142.994723 250.835588 
L 143.808394 256.686417 
L 144.622064 254.357613 
L 145.435735 245.541078 
L 146.249405 260.961612 
L 147.063076 251.767689 
L 147.876746 255.836954 
L 148.690417 257.928447 
L 149.504087 253.588664 
L 150.317758 267.271163 
L 151.131429 259.800776 
L 151.945099 246.10357 
L 152.75877 261.991012 
L 153.57244 257.629027 
L 154.386111 257.391848 
L 155.199781 253.498528 
L 156.013452 259.292523 
L 156.827122 264.051266 
L 157.640793 263.040628 
L 158.454463 251.17519 
L 159.268134 268.455395 
L 160.081805 239.847356 
L 161.709146 258.177701 
L 162.522816 259.862108 
L 163.336487 268.392114 
L 164.150157 260.145932 
L 164.963828 253.290553 
L 165.777498 252.972069 
L 166.591169 260.317482 
L 167.404839 261.009337 
L 169.03218 249.735287 
L 169.845851 268.620252 
L 170.659522 262.045904 
L 171.473192 265.331918 
L 172.286863 255.986979 
L 173.100533 261.607184 
L 173.914204 258.614005 
L 174.727874 256.771617 
L 175.541545 249.05901 
L 176.355215 265.614464 
L 177.168886 263.256756 
L 177.982556 266.008218 
L 178.796227 267.063157 
L 179.609897 273.049221 
L 180.423568 261.674132 
L 181.237239 268.022398 
L 182.050909 258.081063 
L 182.86458 267.126944 
L 183.67825 261.231676 
L 184.491921 257.651869 
L 185.305591 266.591959 
L 186.119262 265.952378 
L 186.932932 256.157243 
L 187.746603 269.907838 
L 188.560273 262.126871 
L 189.373944 259.777798 
L 190.187614 255.288355 
L 191.001285 256.901085 
L 191.814956 273.646561 
L 192.628626 269.253991 
L 194.255967 257.757559 
L 195.069638 274.843783 
L 195.883308 269.874469 
L 196.696979 271.216866 
L 197.510649 263.971754 
L 198.32432 266.100962 
L 199.13799 260.631229 
L 199.951661 259.605061 
L 200.765332 257.606342 
L 201.579002 271.44015 
L 202.392673 252.602306 
L 203.206343 266.271648 
L 204.020014 268.032243 
L 204.833684 270.574649 
L 205.647355 270.855567 
L 206.461025 269.418907 
L 207.274696 261.65993 
L 208.088366 265.539941 
L 208.902037 275.62807 
L 209.715707 265.386497 
L 210.529378 262.548765 
L 211.343049 262.06956 
L 212.156719 269.092719 
L 212.97039 270.242727 
L 213.78406 266.621224 
L 214.597731 265.911184 
L 215.411401 277.974818 
L 216.225072 261.451143 
L 217.038742 273.990545 
L 217.852413 266.687995 
L 218.666083 266.327785 
L 220.293424 268.366939 
L 221.107095 268.12441 
L 221.920766 270.722079 
L 222.734436 260.011167 
L 223.548107 264.543367 
L 224.361777 285.845467 
L 225.175448 271.068591 
L 225.989118 268.232283 
L 226.802789 263.231198 
L 227.616459 274.679419 
L 229.2438 269.476849 
L 230.057471 269.92272 
L 230.871141 268.685913 
L 231.684812 260.754675 
L 232.498483 279.758467 
L 233.312153 269.583891 
L 234.125824 273.367578 
L 234.939494 271.405347 
L 235.753165 270.01507 
L 236.566835 273.09633 
L 237.380506 278.912288 
L 238.194176 269.866529 
L 239.007847 273.569872 
L 239.821517 262.049844 
L 240.635188 272.544391 
L 241.448859 264.25571 
L 242.262529 271.636964 
L 243.0762 273.165547 
L 243.88987 265.762672 
L 244.703541 268.796314 
L 245.517211 267.020968 
L 246.330882 278.479977 
L 247.144552 268.272663 
L 247.958223 272.334025 
L 248.771893 284.934522 
L 249.585564 267.467271 
L 250.399234 270.621165 
L 251.212905 263.003252 
L 252.026576 267.486293 
L 252.840246 281.28213 
L 253.653917 265.909288 
L 254.467587 279.382366 
L 255.281258 272.99522 
L 256.094928 269.643533 
L 256.908599 270.30228 
L 257.722269 267.630163 
L 258.53594 274.844623 
L 259.34961 277.409678 
L 260.163281 259.820902 
L 260.976951 261.067247 
L 261.790622 263.282057 
L 262.604293 279.090262 
L 263.417963 278.692211 
L 264.231634 265.881685 
L 265.045304 270.145102 
L 265.858975 278.352884 
L 266.672645 277.677932 
L 267.486316 273.191639 
L 268.299986 275.377534 
L 269.113657 274.061151 
L 269.927327 279.730253 
L 270.740998 266.587374 
L 271.554668 273.138818 
L 272.368339 267.273507 
L 273.18201 276.968952 
L 273.99568 262.37589 
L 274.809351 272.307065 
L 275.623021 270.37082 
L 276.436692 280.047569 
L 277.250362 259.240016 
L 278.064033 264.564041 
L 278.877703 282.081038 
L 279.691374 267.472323 
L 280.505044 283.090703 
L 281.318715 268.778219 
L 282.132386 275.888546 
L 282.946056 274.417928 
L 283.759727 260.295242 
L 284.573397 272.761801 
L 285.387068 273.362972 
L 286.200738 277.661028 
L 287.014409 288.456637 
L 287.828079 285.182793 
L 288.64175 272.494592 
L 289.45542 276.982589 
L 290.269091 278.654076 
L 291.082761 279.214428 
L 291.896432 281.918762 
L 292.710103 281.407549 
L 293.523773 274.574783 
L 295.151114 284.185712 
L 295.964785 271.144302 
L 296.778455 280.443806 
L 297.592126 285.441821 
L 298.405796 272.760173 
L 299.219467 263.407864 
L 300.033137 274.87815 
L 300.846808 267.540379 
L 302.474149 279.113402 
L 303.28782 269.564281 
L 304.10149 273.656215 
L 304.915161 281.486674 
L 305.728831 283.456211 
L 306.542502 281.820404 
L 307.356172 276.989884 
L 308.169843 286.032481 
L 308.983513 266.131861 
L 309.797184 280.861207 
L 310.610854 280.455124 
L 311.424525 277.74398 
L 312.238195 277.017663 
L 313.051866 280.466886 
L 313.865537 271.65412 
L 314.679207 275.386097 
L 315.492878 277.016083 
L 316.306548 274.563239 
L 317.120219 284.811881 
L 317.933889 271.915283 
L 318.74756 282.308509 
L 319.56123 266.225117 
L 320.374901 274.269736 
L 321.188571 264.494904 
L 322.002242 270.382136 
L 322.815913 278.317617 
L 323.629583 281.525237 
L 324.443254 288.102592 
L 325.256924 269.916434 
L 326.070595 277.733479 
L 326.884265 269.386537 
L 327.697936 278.112877 
L 328.511606 278.424922 
L 329.325277 272.089069 
L 330.952618 278.649747 
L 331.766288 276.594624 
L 332.579959 272.07131 
L 333.39363 281.015412 
L 334.2073 274.897942 
L 335.020971 272.496686 
L 335.834641 276.483224 
L 336.648312 270.113807 
L 337.461982 282.919069 
L 338.275653 282.964946 
L 339.089323 277.510123 
L 339.902994 280.101829 
L 340.716664 273.07208 
L 341.530335 273.030483 
L 342.344005 279.053637 
L 343.157676 279.597466 
L 343.971347 280.97182 
L 344.785017 284.167963 
L 345.598688 288.794298 
L 346.412358 285.67735 
L 347.226029 287.84469 
L 348.039699 285.131935 
L 348.85337 283.405146 
L 349.66704 295.488 
L 350.480711 287.722244 
L 351.294381 290.69686 
L 352.108052 278.408208 
L 352.921722 278.117577 
L 353.735393 269.678612 
L 354.549064 283.620576 
L 355.362734 282.982661 
L 356.176405 292.421251 
L 356.990075 279.05083 
L 357.803746 276.435747 
L 358.617416 269.44403 
L 359.431087 271.710822 
L 360.244757 276.954029 
L 361.058428 275.811366 
L 361.872098 285.005056 
L 362.685769 280.24423 
L 363.49944 280.487859 
L 364.31311 279.34402 
L 365.126781 284.937033 
L 365.940451 285.484134 
L 366.754122 280.747453 
L 367.567792 270.371701 
L 368.381463 289.348675 
L 369.195133 289.16526 
L 370.008804 276.812115 
L 370.822474 281.915627 
L 372.449815 275.996436 
L 374.077157 284.876821 
L 374.890827 283.272328 
L 375.704498 280.912414 
L 376.518168 277.767978 
L 377.331839 282.534984 
L 378.145509 282.6961 
L 378.95918 277.059934 
L 379.77285 274.510358 
L 380.586521 284.758081 
L 381.400191 286.837477 
L 382.213862 283.328521 
L 383.027532 272.680145 
L 383.841203 291.255909 
L 384.654874 272.597991 
L 385.468544 284.709173 
L 386.282215 273.232783 
L 387.095885 283.356787 
L 387.909556 277.357193 
L 388.723226 272.868324 
L 390.350567 279.034803 
L 391.164238 282.250659 
L 391.977908 274.435802 
L 392.791579 279.516247 
L 393.605249 282.697266 
L 394.41892 284.764099 
L 395.232591 277.0812 
L 396.046261 275.83148 
L 396.859932 291.911759 
L 397.673602 278.172577 
L 398.487273 279.334937 
L 398.487273 279.334937 
" style="fill:none;stroke:#1f77b4;stroke-linecap:square;stroke-width:1.5;"/>
   </g>
   <g id="line2d_17">
    <path clip-path="url(#p09dbaff3a4)" d="M 73.832727 62.260969 
L 74.646398 138.929984 
L 75.460068 135.91187 
L 76.273739 141.884351 
L 77.087409 142.998934 
L 78.714751 168.762308 
L 79.528421 168.552885 
L 80.342092 164.131266 
L 81.155762 184.202197 
L 81.969433 175.192642 
L 82.783103 183.929417 
L 83.596774 183.780428 
L 84.410444 188.575916 
L 85.224115 192.048824 
L 86.037785 158.586174 
L 86.851456 196.502399 
L 87.665126 194.078174 
L 88.478797 205.309754 
L 89.292468 204.244494 
L 90.106138 205.713748 
L 90.919809 195.158635 
L 91.733479 202.831361 
L 92.54715 53.568 
L 93.36082 211.259546 
L 94.174491 205.476507 
L 94.988161 200.645787 
L 95.801832 200.688453 
L 96.615502 222.80397 
L 97.429173 214.727984 
L 98.242843 223.081709 
L 99.056514 223.962115 
L 99.870185 226.9676 
L 100.683855 219.934412 
L 101.497526 220.206689 
L 102.311196 231.026077 
L 103.124867 220.047766 
L 103.938537 233.347602 
L 104.752208 222.366625 
L 105.565878 231.260684 
L 107.193219 235.675773 
L 108.00689 239.396427 
L 108.82056 234.203009 
L 109.634231 235.197021 
L 110.447902 230.628103 
L 111.261572 239.072676 
L 112.075243 251.13679 
L 112.888913 230.241604 
L 113.702584 248.818257 
L 114.516254 239.28133 
L 115.329925 243.809032 
L 116.143595 251.057398 
L 116.957266 243.020104 
L 117.770936 253.250195 
L 118.584607 250.991459 
L 119.398278 252.232983 
L 120.211948 250.889668 
L 121.025619 250.462118 
L 121.839289 255.727555 
L 122.65296 250.012001 
L 123.46663 247.785082 
L 124.280301 251.885733 
L 125.093971 254.957959 
L 125.907642 241.699119 
L 126.721312 250.543244 
L 127.534983 247.307402 
L 128.348653 245.755908 
L 129.162324 254.096901 
L 129.975995 247.80605 
L 130.789665 245.871839 
L 131.603336 255.041736 
L 132.417006 252.782258 
L 133.230677 252.972817 
L 134.044347 244.523896 
L 134.858018 254.421766 
L 135.671688 254.370117 
L 136.485359 255.424252 
L 137.299029 251.482635 
L 138.1127 244.831481 
L 138.92637 245.620415 
L 139.740041 255.659572 
L 140.553712 254.875595 
L 141.367382 250.111498 
L 142.181053 254.014294 
L 142.994723 242.95437 
L 143.808394 251.63007 
L 144.622064 242.187047 
L 145.435735 253.673907 
L 146.249405 262.04775 
L 147.063076 250.451078 
L 147.876746 256.286055 
L 148.690417 253.263485 
L 149.504087 258.220187 
L 150.317758 253.240811 
L 151.131429 256.642893 
L 151.945099 251.623467 
L 152.75877 257.226606 
L 153.57244 256.22619 
L 154.386111 261.177772 
L 155.199781 263.673752 
L 156.013452 263.646924 
L 156.827122 254.672039 
L 157.640793 260.938469 
L 158.454463 265.728848 
L 159.268134 256.939081 
L 160.081805 257.024271 
L 160.895475 262.457681 
L 161.709146 255.572322 
L 162.522816 263.127014 
L 163.336487 260.45759 
L 164.150157 267.259671 
L 164.963828 262.976329 
L 165.777498 255.288717 
L 166.591169 263.215955 
L 167.404839 241.720208 
L 168.21851 258.792933 
L 169.03218 261.752212 
L 169.845851 261.967864 
L 170.659522 261.850806 
L 171.473192 261.302521 
L 172.286863 254.107871 
L 173.100533 253.544745 
L 173.914204 263.474173 
L 174.727874 258.025259 
L 175.541545 255.589125 
L 176.355215 266.435463 
L 177.168886 254.792317 
L 177.982556 260.299255 
L 178.796227 259.158342 
L 179.609897 260.365252 
L 180.423568 263.144989 
L 181.237239 259.257494 
L 182.050909 258.983192 
L 182.86458 260.053545 
L 183.67825 263.162558 
L 184.491921 262.699295 
L 185.305591 270.055352 
L 186.932932 259.826865 
L 187.746603 272.814925 
L 188.560273 258.12686 
L 189.373944 266.567334 
L 190.187614 251.885064 
L 191.001285 263.560944 
L 191.814956 265.241182 
L 192.628626 263.732293 
L 193.442297 264.374489 
L 194.255967 267.572974 
L 195.069638 259.53079 
L 195.883308 263.077209 
L 196.696979 263.142738 
L 197.510649 267.266474 
L 198.32432 260.894191 
L 199.13799 263.655902 
L 199.951661 267.886812 
L 200.765332 255.960382 
L 201.579002 272.143752 
L 202.392673 268.226236 
L 203.206343 271.103785 
L 204.020014 267.532722 
L 205.647355 258.753733 
L 207.274696 268.730765 
L 208.088366 268.225961 
L 208.902037 264.058282 
L 209.715707 270.380819 
L 210.529378 265.764286 
L 211.343049 273.214373 
L 212.156719 266.432506 
L 212.97039 258.337302 
L 213.78406 260.833971 
L 214.597731 266.436752 
L 215.411401 267.787126 
L 216.225072 260.607474 
L 217.038742 270.854551 
L 217.852413 268.586093 
L 218.666083 265.775595 
L 219.479754 270.081787 
L 220.293424 269.953136 
L 221.107095 272.019022 
L 221.920766 185.636573 
L 222.734436 263.418755 
L 223.548107 266.580929 
L 225.175448 269.907295 
L 225.989118 269.274673 
L 226.802789 257.989239 
L 227.616459 265.213158 
L 228.43013 253.11416 
L 229.2438 271.776925 
L 230.057471 263.75915 
L 230.871141 263.598068 
L 231.684812 272.313309 
L 232.498483 274.535297 
L 233.312153 269.297627 
L 234.125824 267.030151 
L 234.939494 265.391589 
L 235.753165 272.099981 
L 236.566835 266.240712 
L 237.380506 269.145737 
L 238.194176 265.535817 
L 239.007847 274.793726 
L 239.821517 257.655766 
L 240.635188 272.651691 
L 241.448859 272.612302 
L 242.262529 264.790666 
L 243.0762 266.95538 
L 243.88987 268.120941 
L 244.703541 256.765581 
L 245.517211 274.416919 
L 246.330882 265.861404 
L 247.144552 263.91641 
L 247.958223 277.45299 
L 248.771893 263.481069 
L 249.585564 264.273327 
L 250.399234 264.432738 
L 251.212905 241.624624 
L 252.026576 267.509698 
L 252.840246 264.582244 
L 253.653917 278.340739 
L 254.467587 265.632761 
L 255.281258 264.455154 
L 256.094928 262.267873 
L 256.908599 269.6012 
L 257.722269 264.938793 
L 259.34961 274.702205 
L 260.163281 271.80664 
L 260.976951 273.589494 
L 261.790622 265.486533 
L 262.604293 270.492909 
L 263.417963 271.368126 
L 264.231634 274.574485 
L 265.045304 271.685808 
L 265.858975 275.901808 
L 266.672645 271.910102 
L 267.486316 271.306897 
L 268.299986 260.23877 
L 269.113657 261.883293 
L 269.927327 270.912955 
L 270.740998 283.973204 
L 271.554668 273.906163 
L 272.368339 270.453448 
L 273.18201 270.411172 
L 273.99568 263.218024 
L 274.809351 267.419562 
L 275.623021 264.995759 
L 276.436692 276.206234 
L 277.250362 266.057377 
L 278.064033 272.994856 
L 278.877703 272.672674 
L 279.691374 267.039411 
L 280.505044 277.043881 
L 281.318715 271.490477 
L 282.132386 275.596974 
L 282.946056 271.58746 
L 283.759727 273.440197 
L 284.573397 276.022689 
L 285.387068 276.529056 
L 286.200738 267.527261 
L 287.014409 274.030248 
L 287.828079 275.750648 
L 288.64175 272.741863 
L 289.45542 271.621145 
L 290.269091 260.536753 
L 291.082761 273.378014 
L 291.896432 282.524605 
L 292.710103 278.321516 
L 293.523773 271.427187 
L 294.337444 273.767665 
L 295.151114 275.304592 
L 295.964785 278.984707 
L 296.778455 277.741361 
L 297.592126 266.08953 
L 298.405796 265.248555 
L 299.219467 269.501264 
L 300.033137 278.237486 
L 300.846808 280.25712 
L 301.660478 275.331395 
L 302.474149 262.627166 
L 303.28782 271.495684 
L 304.10149 262.465744 
L 305.728831 279.338431 
L 306.542502 277.452837 
L 307.356172 275.154177 
L 308.169843 271.451018 
L 308.983513 273.929919 
L 309.797184 271.136109 
L 310.610854 276.478271 
L 311.424525 271.097197 
L 312.238195 277.438836 
L 313.051866 274.869043 
L 313.865537 270.166496 
L 314.679207 274.116554 
L 315.492878 268.042212 
L 316.306548 269.606196 
L 317.120219 267.897566 
L 317.933889 272.408149 
L 318.74756 262.85026 
L 319.56123 271.457273 
L 320.374901 272.644607 
L 321.188571 277.655877 
L 322.002242 268.968093 
L 322.815913 263.919502 
L 323.629583 273.430574 
L 324.443254 270.972566 
L 325.256924 275.356738 
L 326.070595 274.892911 
L 326.884265 272.195512 
L 327.697936 274.630771 
L 328.511606 281.985117 
L 329.325277 258.685322 
L 330.138947 277.828637 
L 330.952618 268.519663 
L 331.766288 273.531562 
L 333.39363 268.792365 
L 334.2073 264.181856 
L 335.020971 276.484239 
L 335.834641 279.766911 
L 336.648312 280.675702 
L 337.461982 274.4348 
L 338.275653 279.095063 
L 339.089323 273.946936 
L 339.902994 272.560365 
L 340.716664 275.800934 
L 341.530335 270.143228 
L 342.344005 272.215899 
L 343.971347 263.674758 
L 344.785017 281.345017 
L 345.598688 273.430024 
L 346.412358 274.37611 
L 347.226029 280.087952 
L 348.039699 273.007504 
L 348.85337 273.957149 
L 349.66704 273.656918 
L 350.480711 267.137532 
L 351.294381 273.756408 
L 352.108052 276.973744 
L 352.921722 272.737939 
L 353.735393 279.266797 
L 354.549064 278.084446 
L 355.362734 280.073819 
L 356.176405 268.0504 
L 356.990075 281.417805 
L 357.803746 274.157044 
L 358.617416 278.916602 
L 359.431087 274.958683 
L 360.244757 283.596084 
L 361.058428 281.398537 
L 361.872098 273.644232 
L 362.685769 274.874318 
L 363.49944 281.876672 
L 364.31311 274.083864 
L 365.126781 278.882355 
L 365.940451 268.29131 
L 366.754122 278.972656 
L 367.567792 271.22786 
L 368.381463 277.114331 
L 369.195133 271.78363 
L 370.008804 276.337774 
L 370.822474 274.817461 
L 371.636145 278.893386 
L 372.449815 274.250669 
L 373.263486 275.101514 
L 374.077157 284.632841 
L 374.890827 274.133739 
L 375.704498 277.733001 
L 376.518168 272.158977 
L 377.331839 274.79369 
L 378.145509 278.82309 
L 378.95918 274.393517 
L 379.77285 281.318312 
L 380.586521 263.178849 
L 381.400191 270.771099 
L 382.213862 270.871205 
L 383.027532 276.491802 
L 383.841203 273.279489 
L 384.654874 279.616091 
L 385.468544 277.162357 
L 386.282215 279.645413 
L 387.095885 277.307405 
L 387.909556 275.619393 
L 388.723226 276.917197 
L 389.536897 274.049878 
L 390.350567 273.467059 
L 391.164238 278.870296 
L 391.977908 280.95656 
L 392.791579 273.76576 
L 393.605249 273.798582 
L 394.41892 284.609172 
L 395.232591 277.054917 
L 396.046261 284.323525 
L 396.859932 267.407355 
L 397.673602 280.233483 
L 398.487273 280.426123 
L 398.487273 280.426123 
" style="fill:none;stroke:#ff7f0e;stroke-linecap:square;stroke-width:1.5;"/>
   </g>
   <g id="patch_3">
    <path d="M 57.6 307.584 
L 57.6 41.472 
" style="fill:none;stroke:#000000;stroke-linecap:square;stroke-linejoin:miter;stroke-width:0.8;"/>
   </g>
   <g id="patch_4">
    <path d="M 414.72 307.584 
L 414.72 41.472 
" style="fill:none;stroke:#000000;stroke-linecap:square;stroke-linejoin:miter;stroke-width:0.8;"/>
   </g>
   <g id="patch_5">
    <path d="M 57.6 307.584 
L 414.72 307.584 
" style="fill:none;stroke:#000000;stroke-linecap:square;stroke-linejoin:miter;stroke-width:0.8;"/>
   </g>
   <g id="patch_6">
    <path d="M 57.6 41.472 
L 414.72 41.472 
" style="fill:none;stroke:#000000;stroke-linecap:square;stroke-linejoin:miter;stroke-width:0.8;"/>
   </g>
   <g id="legend_1">
    <g id="patch_7">
     <path d="M 303.845 78.82825 
L 407.72 78.82825 
Q 409.72 78.82825 409.72 76.82825 
L 409.72 48.472 
Q 409.72 46.472 407.72 46.472 
L 303.845 46.472 
Q 301.845 46.472 301.845 48.472 
L 301.845 76.82825 
Q 301.845 78.82825 303.845 78.82825 
z
" style="fill:#ffffff;opacity:0.8;stroke:#cccccc;stroke-linejoin:miter;"/>
    </g>
    <g id="line2d_18">
     <path d="M 305.845 54.570437 
L 325.845 54.570437 
" style="fill:none;stroke:#1f77b4;stroke-linecap:square;stroke-width:1.5;"/>
    </g>
    <g id="line2d_19"/>
    <g id="text_18">
     <!-- Train loss -->
     <g transform="translate(333.845 58.070437)scale(0.1 -0.1)">
      <defs>
       <path d="M -19 4666 
L 3928 4666 
L 3928 4134 
L 2272 4134 
L 2272 0 
L 1638 0 
L 1638 4134 
L -19 4134 
L -19 4666 
z
" id="DejaVuSans-54" transform="scale(0.015625)"/>
       <path d="M 2631 2963 
Q 2534 3019 2420 3045 
Q 2306 3072 2169 3072 
Q 1681 3072 1420 2755 
Q 1159 2438 1159 1844 
L 1159 0 
L 581 0 
L 581 3500 
L 1159 3500 
L 1159 2956 
Q 1341 3275 1631 3429 
Q 1922 3584 2338 3584 
Q 2397 3584 2469 3576 
Q 2541 3569 2628 3553 
L 2631 2963 
z
" id="DejaVuSans-72" transform="scale(0.015625)"/>
       <path d="M 2194 1759 
Q 1497 1759 1228 1600 
Q 959 1441 959 1056 
Q 959 750 1161 570 
Q 1363 391 1709 391 
Q 2188 391 2477 730 
Q 2766 1069 2766 1631 
L 2766 1759 
L 2194 1759 
z
M 3341 1997 
L 3341 0 
L 2766 0 
L 2766 531 
Q 2569 213 2275 61 
Q 1981 -91 1556 -91 
Q 1019 -91 701 211 
Q 384 513 384 1019 
Q 384 1609 779 1909 
Q 1175 2209 1959 2209 
L 2766 2209 
L 2766 2266 
Q 2766 2663 2505 2880 
Q 2244 3097 1772 3097 
Q 1472 3097 1187 3025 
Q 903 2953 641 2809 
L 641 3341 
Q 956 3463 1253 3523 
Q 1550 3584 1831 3584 
Q 2591 3584 2966 3190 
Q 3341 2797 3341 1997 
z
" id="DejaVuSans-61" transform="scale(0.015625)"/>
       <path d="M 603 3500 
L 1178 3500 
L 1178 0 
L 603 0 
L 603 3500 
z
M 603 4863 
L 1178 4863 
L 1178 4134 
L 603 4134 
L 603 4863 
z
" id="DejaVuSans-69" transform="scale(0.015625)"/>
       <path d="M 3513 2113 
L 3513 0 
L 2938 0 
L 2938 2094 
Q 2938 2591 2744 2837 
Q 2550 3084 2163 3084 
Q 1697 3084 1428 2787 
Q 1159 2491 1159 1978 
L 1159 0 
L 581 0 
L 581 3500 
L 1159 3500 
L 1159 2956 
Q 1366 3272 1645 3428 
Q 1925 3584 2291 3584 
Q 2894 3584 3203 3211 
Q 3513 2838 3513 2113 
z
" id="DejaVuSans-6e" transform="scale(0.015625)"/>
       <path id="DejaVuSans-20" transform="scale(0.015625)"/>
       <path d="M 603 4863 
L 1178 4863 
L 1178 0 
L 603 0 
L 603 4863 
z
" id="DejaVuSans-6c" transform="scale(0.015625)"/>
      </defs>
      <use xlink:href="#DejaVuSans-54"/>
      <use x="46.333984" xlink:href="#DejaVuSans-72"/>
      <use x="87.447266" xlink:href="#DejaVuSans-61"/>
      <use x="148.726562" xlink:href="#DejaVuSans-69"/>
      <use x="176.509766" xlink:href="#DejaVuSans-6e"/>
      <use x="239.888672" xlink:href="#DejaVuSans-20"/>
      <use x="271.675781" xlink:href="#DejaVuSans-6c"/>
      <use x="299.458984" xlink:href="#DejaVuSans-6f"/>
      <use x="360.640625" xlink:href="#DejaVuSans-73"/>
      <use x="412.740234" xlink:href="#DejaVuSans-73"/>
     </g>
    </g>
    <g id="line2d_20">
     <path d="M 305.845 69.248562 
L 325.845 69.248562 
" style="fill:none;stroke:#ff7f0e;stroke-linecap:square;stroke-width:1.5;"/>
    </g>
    <g id="line2d_21"/>
    <g id="text_19">
     <!-- Validation loss -->
     <g transform="translate(333.845 72.748562)scale(0.1 -0.1)">
      <defs>
       <path d="M 1831 0 
L 50 4666 
L 709 4666 
L 2188 738 
L 3669 4666 
L 4325 4666 
L 2547 0 
L 1831 0 
z
" id="DejaVuSans-56" transform="scale(0.015625)"/>
       <path d="M 2906 2969 
L 2906 4863 
L 3481 4863 
L 3481 0 
L 2906 0 
L 2906 525 
Q 2725 213 2448 61 
Q 2172 -91 1784 -91 
Q 1150 -91 751 415 
Q 353 922 353 1747 
Q 353 2572 751 3078 
Q 1150 3584 1784 3584 
Q 2172 3584 2448 3432 
Q 2725 3281 2906 2969 
z
M 947 1747 
Q 947 1113 1208 752 
Q 1469 391 1925 391 
Q 2381 391 2643 752 
Q 2906 1113 2906 1747 
Q 2906 2381 2643 2742 
Q 2381 3103 1925 3103 
Q 1469 3103 1208 2742 
Q 947 2381 947 1747 
z
" id="DejaVuSans-64" transform="scale(0.015625)"/>
       <path d="M 1172 4494 
L 1172 3500 
L 2356 3500 
L 2356 3053 
L 1172 3053 
L 1172 1153 
Q 1172 725 1289 603 
Q 1406 481 1766 481 
L 2356 481 
L 2356 0 
L 1766 0 
Q 1100 0 847 248 
Q 594 497 594 1153 
L 594 3053 
L 172 3053 
L 172 3500 
L 594 3500 
L 594 4494 
L 1172 4494 
z
" id="DejaVuSans-74" transform="scale(0.015625)"/>
      </defs>
      <use xlink:href="#DejaVuSans-56"/>
      <use x="60.658203" xlink:href="#DejaVuSans-61"/>
      <use x="121.9375" xlink:href="#DejaVuSans-6c"/>
      <use x="149.720703" xlink:href="#DejaVuSans-69"/>
      <use x="177.503906" xlink:href="#DejaVuSans-64"/>
      <use x="240.980469" xlink:href="#DejaVuSans-61"/>
      <use x="302.259766" xlink:href="#DejaVuSans-74"/>
      <use x="341.46875" xlink:href="#DejaVuSans-69"/>
      <use x="369.251953" xlink:href="#DejaVuSans-6f"/>
      <use x="430.433594" xlink:href="#DejaVuSans-6e"/>
      <use x="493.8125" xlink:href="#DejaVuSans-20"/>
      <use x="525.599609" xlink:href="#DejaVuSans-6c"/>
      <use x="553.382812" xlink:href="#DejaVuSans-6f"/>
      <use x="614.564453" xlink:href="#DejaVuSans-73"/>
      <use x="666.664062" xlink:href="#DejaVuSans-73"/>
     </g>
    </g>
   </g>
  </g>
 </g>
 <defs>
  <clipPath id="p09dbaff3a4">
   <rect height="266.112" width="357.12" x="57.6" y="41.472"/>
  </clipPath>
 </defs>
</svg>
