<?xml version="1.0" encoding="utf-8" standalone="no"?>
<!DOCTYPE svg PUBLIC "-//W3C//DTD SVG 1.1//EN"
  "http://www.w3.org/Graphics/SVG/1.1/DTD/svg11.dtd">
<svg height="345.6pt" version="1.1" viewBox="0 0 460.8 345.6" width="460.8pt" xmlns="http://www.w3.org/2000/svg" xmlns:xlink="http://www.w3.org/1999/xlink">
 <metadata>
  <rdf:RDF xmlns:cc="http://creativecommons.org/ns#" xmlns:dc="http://purl.org/dc/elements/1.1/" xmlns:rdf="http://www.w3.org/1999/02/22-rdf-syntax-ns#">
   <cc:Work>
    <dc:type rdf:resource="http://purl.org/dc/dcmitype/StillImage"/>
    <dc:date>2021-07-14T11:02:40.994864</dc:date>
    <dc:format>image/svg+xml</dc:format>
    <dc:creator>
     <cc:Agent>
      <dc:title>Matplotlib v3.4.1, https://matplotlib.org/</dc:title>
     </cc:Agent>
    </dc:creator>
   </cc:Work>
  </rdf:RDF>
 </metadata>
 <defs>
  <style type="text/css">*{stroke-linecap:butt;stroke-linejoin:round;}</style>
 </defs>
 <g id="figure_1">
  <g id="patch_1">
   <path d="M 0 345.6 
L 460.8 345.6 
L 460.8 0 
L 0 0 
z
" style="fill:#ffffff;"/>
  </g>
  <g id="axes_1">
   <g id="patch_2">
    <path d="M 57.6 307.584 
L 414.72 307.584 
L 414.72 41.472 
L 57.6 41.472 
z
" style="fill:#ffffff;"/>
   </g>
   <g id="matplotlib.axis_1">
    <g id="xtick_1">
     <g id="line2d_1">
      <defs>
       <path d="M 0 0 
L 0 3.5 
" id="mecfa8c9c9b" style="stroke:#000000;stroke-width:0.8;"/>
      </defs>
      <g>
       <use style="stroke:#000000;stroke-width:0.8;" x="73.019057" xlink:href="#mecfa8c9c9b" y="307.584"/>
      </g>
     </g>
     <g id="text_1">
      <!-- 0 -->
      <g transform="translate(69.837807 322.182437)scale(0.1 -0.1)">
       <defs>
        <path d="M 2034 4250 
Q 1547 4250 1301 3770 
Q 1056 3291 1056 2328 
Q 1056 1369 1301 889 
Q 1547 409 2034 409 
Q 2525 409 2770 889 
Q 3016 1369 3016 2328 
Q 3016 3291 2770 3770 
Q 2525 4250 2034 4250 
z
M 2034 4750 
Q 2819 4750 3233 4129 
Q 3647 3509 3647 2328 
Q 3647 1150 3233 529 
Q 2819 -91 2034 -91 
Q 1250 -91 836 529 
Q 422 1150 422 2328 
Q 422 3509 836 4129 
Q 1250 4750 2034 4750 
z
" id="DejaVuSans-30" transform="scale(0.015625)"/>
       </defs>
       <use xlink:href="#DejaVuSans-30"/>
      </g>
     </g>
    </g>
    <g id="xtick_2">
     <g id="line2d_2">
      <g>
       <use style="stroke:#000000;stroke-width:0.8;" x="113.702584" xlink:href="#mecfa8c9c9b" y="307.584"/>
      </g>
     </g>
     <g id="text_2">
      <!-- 50 -->
      <g transform="translate(107.340084 322.182437)scale(0.1 -0.1)">
       <defs>
        <path d="M 691 4666 
L 3169 4666 
L 3169 4134 
L 1269 4134 
L 1269 2991 
Q 1406 3038 1543 3061 
Q 1681 3084 1819 3084 
Q 2600 3084 3056 2656 
Q 3513 2228 3513 1497 
Q 3513 744 3044 326 
Q 2575 -91 1722 -91 
Q 1428 -91 1123 -41 
Q 819 9 494 109 
L 494 744 
Q 775 591 1075 516 
Q 1375 441 1709 441 
Q 2250 441 2565 725 
Q 2881 1009 2881 1497 
Q 2881 1984 2565 2268 
Q 2250 2553 1709 2553 
Q 1456 2553 1204 2497 
Q 953 2441 691 2322 
L 691 4666 
z
" id="DejaVuSans-35" transform="scale(0.015625)"/>
       </defs>
       <use xlink:href="#DejaVuSans-35"/>
       <use x="63.623047" xlink:href="#DejaVuSans-30"/>
      </g>
     </g>
    </g>
    <g id="xtick_3">
     <g id="line2d_3">
      <g>
       <use style="stroke:#000000;stroke-width:0.8;" x="154.386111" xlink:href="#mecfa8c9c9b" y="307.584"/>
      </g>
     </g>
     <g id="text_3">
      <!-- 100 -->
      <g transform="translate(144.842361 322.182437)scale(0.1 -0.1)">
       <defs>
        <path d="M 794 531 
L 1825 531 
L 1825 4091 
L 703 3866 
L 703 4441 
L 1819 4666 
L 2450 4666 
L 2450 531 
L 3481 531 
L 3481 0 
L 794 0 
L 794 531 
z
" id="DejaVuSans-31" transform="scale(0.015625)"/>
       </defs>
       <use xlink:href="#DejaVuSans-31"/>
       <use x="63.623047" xlink:href="#DejaVuSans-30"/>
       <use x="127.246094" xlink:href="#DejaVuSans-30"/>
      </g>
     </g>
    </g>
    <g id="xtick_4">
     <g id="line2d_4">
      <g>
       <use style="stroke:#000000;stroke-width:0.8;" x="195.069638" xlink:href="#mecfa8c9c9b" y="307.584"/>
      </g>
     </g>
     <g id="text_4">
      <!-- 150 -->
      <g transform="translate(185.525888 322.182437)scale(0.1 -0.1)">
       <use xlink:href="#DejaVuSans-31"/>
       <use x="63.623047" xlink:href="#DejaVuSans-35"/>
       <use x="127.246094" xlink:href="#DejaVuSans-30"/>
      </g>
     </g>
    </g>
    <g id="xtick_5">
     <g id="line2d_5">
      <g>
       <use style="stroke:#000000;stroke-width:0.8;" x="235.753165" xlink:href="#mecfa8c9c9b" y="307.584"/>
      </g>
     </g>
     <g id="text_5">
      <!-- 200 -->
      <g transform="translate(226.209415 322.182437)scale(0.1 -0.1)">
       <defs>
        <path d="M 1228 531 
L 3431 531 
L 3431 0 
L 469 0 
L 469 531 
Q 828 903 1448 1529 
Q 2069 2156 2228 2338 
Q 2531 2678 2651 2914 
Q 2772 3150 2772 3378 
Q 2772 3750 2511 3984 
Q 2250 4219 1831 4219 
Q 1534 4219 1204 4116 
Q 875 4013 500 3803 
L 500 4441 
Q 881 4594 1212 4672 
Q 1544 4750 1819 4750 
Q 2544 4750 2975 4387 
Q 3406 4025 3406 3419 
Q 3406 3131 3298 2873 
Q 3191 2616 2906 2266 
Q 2828 2175 2409 1742 
Q 1991 1309 1228 531 
z
" id="DejaVuSans-32" transform="scale(0.015625)"/>
       </defs>
       <use xlink:href="#DejaVuSans-32"/>
       <use x="63.623047" xlink:href="#DejaVuSans-30"/>
       <use x="127.246094" xlink:href="#DejaVuSans-30"/>
      </g>
     </g>
    </g>
    <g id="xtick_6">
     <g id="line2d_6">
      <g>
       <use style="stroke:#000000;stroke-width:0.8;" x="276.436692" xlink:href="#mecfa8c9c9b" y="307.584"/>
      </g>
     </g>
     <g id="text_6">
      <!-- 250 -->
      <g transform="translate(266.892942 322.182437)scale(0.1 -0.1)">
       <use xlink:href="#DejaVuSans-32"/>
       <use x="63.623047" xlink:href="#DejaVuSans-35"/>
       <use x="127.246094" xlink:href="#DejaVuSans-30"/>
      </g>
     </g>
    </g>
    <g id="xtick_7">
     <g id="line2d_7">
      <g>
       <use style="stroke:#000000;stroke-width:0.8;" x="317.120219" xlink:href="#mecfa8c9c9b" y="307.584"/>
      </g>
     </g>
     <g id="text_7">
      <!-- 300 -->
      <g transform="translate(307.576469 322.182437)scale(0.1 -0.1)">
       <defs>
        <path d="M 2597 2516 
Q 3050 2419 3304 2112 
Q 3559 1806 3559 1356 
Q 3559 666 3084 287 
Q 2609 -91 1734 -91 
Q 1441 -91 1130 -33 
Q 819 25 488 141 
L 488 750 
Q 750 597 1062 519 
Q 1375 441 1716 441 
Q 2309 441 2620 675 
Q 2931 909 2931 1356 
Q 2931 1769 2642 2001 
Q 2353 2234 1838 2234 
L 1294 2234 
L 1294 2753 
L 1863 2753 
Q 2328 2753 2575 2939 
Q 2822 3125 2822 3475 
Q 2822 3834 2567 4026 
Q 2313 4219 1838 4219 
Q 1578 4219 1281 4162 
Q 984 4106 628 3988 
L 628 4550 
Q 988 4650 1302 4700 
Q 1616 4750 1894 4750 
Q 2613 4750 3031 4423 
Q 3450 4097 3450 3541 
Q 3450 3153 3228 2886 
Q 3006 2619 2597 2516 
z
" id="DejaVuSans-33" transform="scale(0.015625)"/>
       </defs>
       <use xlink:href="#DejaVuSans-33"/>
       <use x="63.623047" xlink:href="#DejaVuSans-30"/>
       <use x="127.246094" xlink:href="#DejaVuSans-30"/>
      </g>
     </g>
    </g>
    <g id="xtick_8">
     <g id="line2d_8">
      <g>
       <use style="stroke:#000000;stroke-width:0.8;" x="357.803746" xlink:href="#mecfa8c9c9b" y="307.584"/>
      </g>
     </g>
     <g id="text_8">
      <!-- 350 -->
      <g transform="translate(348.259996 322.182437)scale(0.1 -0.1)">
       <use xlink:href="#DejaVuSans-33"/>
       <use x="63.623047" xlink:href="#DejaVuSans-35"/>
       <use x="127.246094" xlink:href="#DejaVuSans-30"/>
      </g>
     </g>
    </g>
    <g id="xtick_9">
     <g id="line2d_9">
      <g>
       <use style="stroke:#000000;stroke-width:0.8;" x="398.487273" xlink:href="#mecfa8c9c9b" y="307.584"/>
      </g>
     </g>
     <g id="text_9">
      <!-- 400 -->
      <g transform="translate(388.943523 322.182437)scale(0.1 -0.1)">
       <defs>
        <path d="M 2419 4116 
L 825 1625 
L 2419 1625 
L 2419 4116 
z
M 2253 4666 
L 3047 4666 
L 3047 1625 
L 3713 1625 
L 3713 1100 
L 3047 1100 
L 3047 0 
L 2419 0 
L 2419 1100 
L 313 1100 
L 313 1709 
L 2253 4666 
z
" id="DejaVuSans-34" transform="scale(0.015625)"/>
       </defs>
       <use xlink:href="#DejaVuSans-34"/>
       <use x="63.623047" xlink:href="#DejaVuSans-30"/>
       <use x="127.246094" xlink:href="#DejaVuSans-30"/>
      </g>
     </g>
    </g>
    <g id="text_10">
     <!-- Epoch -->
     <g transform="translate(213.193594 339.659781)scale(0.15 -0.15)">
      <defs>
       <path d="M 628 4666 
L 3578 4666 
L 3578 4134 
L 1259 4134 
L 1259 2753 
L 3481 2753 
L 3481 2222 
L 1259 2222 
L 1259 531 
L 3634 531 
L 3634 0 
L 628 0 
L 628 4666 
z
" id="DejaVuSans-45" transform="scale(0.015625)"/>
       <path d="M 1159 525 
L 1159 -1331 
L 581 -1331 
L 581 3500 
L 1159 3500 
L 1159 2969 
Q 1341 3281 1617 3432 
Q 1894 3584 2278 3584 
Q 2916 3584 3314 3078 
Q 3713 2572 3713 1747 
Q 3713 922 3314 415 
Q 2916 -91 2278 -91 
Q 1894 -91 1617 61 
Q 1341 213 1159 525 
z
M 3116 1747 
Q 3116 2381 2855 2742 
Q 2594 3103 2138 3103 
Q 1681 3103 1420 2742 
Q 1159 2381 1159 1747 
Q 1159 1113 1420 752 
Q 1681 391 2138 391 
Q 2594 391 2855 752 
Q 3116 1113 3116 1747 
z
" id="DejaVuSans-70" transform="scale(0.015625)"/>
       <path d="M 1959 3097 
Q 1497 3097 1228 2736 
Q 959 2375 959 1747 
Q 959 1119 1226 758 
Q 1494 397 1959 397 
Q 2419 397 2687 759 
Q 2956 1122 2956 1747 
Q 2956 2369 2687 2733 
Q 2419 3097 1959 3097 
z
M 1959 3584 
Q 2709 3584 3137 3096 
Q 3566 2609 3566 1747 
Q 3566 888 3137 398 
Q 2709 -91 1959 -91 
Q 1206 -91 779 398 
Q 353 888 353 1747 
Q 353 2609 779 3096 
Q 1206 3584 1959 3584 
z
" id="DejaVuSans-6f" transform="scale(0.015625)"/>
       <path d="M 3122 3366 
L 3122 2828 
Q 2878 2963 2633 3030 
Q 2388 3097 2138 3097 
Q 1578 3097 1268 2742 
Q 959 2388 959 1747 
Q 959 1106 1268 751 
Q 1578 397 2138 397 
Q 2388 397 2633 464 
Q 2878 531 3122 666 
L 3122 134 
Q 2881 22 2623 -34 
Q 2366 -91 2075 -91 
Q 1284 -91 818 406 
Q 353 903 353 1747 
Q 353 2603 823 3093 
Q 1294 3584 2113 3584 
Q 2378 3584 2631 3529 
Q 2884 3475 3122 3366 
z
" id="DejaVuSans-63" transform="scale(0.015625)"/>
       <path d="M 3513 2113 
L 3513 0 
L 2938 0 
L 2938 2094 
Q 2938 2591 2744 2837 
Q 2550 3084 2163 3084 
Q 1697 3084 1428 2787 
Q 1159 2491 1159 1978 
L 1159 0 
L 581 0 
L 581 4863 
L 1159 4863 
L 1159 2956 
Q 1366 3272 1645 3428 
Q 1925 3584 2291 3584 
Q 2894 3584 3203 3211 
Q 3513 2838 3513 2113 
z
" id="DejaVuSans-68" transform="scale(0.015625)"/>
      </defs>
      <use xlink:href="#DejaVuSans-45"/>
      <use x="63.183594" xlink:href="#DejaVuSans-70"/>
      <use x="126.660156" xlink:href="#DejaVuSans-6f"/>
      <use x="187.841797" xlink:href="#DejaVuSans-63"/>
      <use x="242.822266" xlink:href="#DejaVuSans-68"/>
     </g>
    </g>
   </g>
   <g id="matplotlib.axis_2">
    <g id="ytick_1">
     <g id="line2d_10">
      <defs>
       <path d="M 0 0 
L -3.5 0 
" id="mc6667ebe4b" style="stroke:#000000;stroke-width:0.8;"/>
      </defs>
      <g>
       <use style="stroke:#000000;stroke-width:0.8;" x="57.6" xlink:href="#mc6667ebe4b" y="300.578863"/>
      </g>
     </g>
     <g id="text_11">
      <!-- 0.0 -->
      <g transform="translate(34.696875 304.378082)scale(0.1 -0.1)">
       <defs>
        <path d="M 684 794 
L 1344 794 
L 1344 0 
L 684 0 
L 684 794 
z
" id="DejaVuSans-2e" transform="scale(0.015625)"/>
       </defs>
       <use xlink:href="#DejaVuSans-30"/>
       <use x="63.623047" xlink:href="#DejaVuSans-2e"/>
       <use x="95.410156" xlink:href="#DejaVuSans-30"/>
      </g>
     </g>
    </g>
    <g id="ytick_2">
     <g id="line2d_11">
      <g>
       <use style="stroke:#000000;stroke-width:0.8;" x="57.6" xlink:href="#mc6667ebe4b" y="254.361305"/>
      </g>
     </g>
     <g id="text_12">
      <!-- 0.1 -->
      <g transform="translate(34.696875 258.160524)scale(0.1 -0.1)">
       <use xlink:href="#DejaVuSans-30"/>
       <use x="63.623047" xlink:href="#DejaVuSans-2e"/>
       <use x="95.410156" xlink:href="#DejaVuSans-31"/>
      </g>
     </g>
    </g>
    <g id="ytick_3">
     <g id="line2d_12">
      <g>
       <use style="stroke:#000000;stroke-width:0.8;" x="57.6" xlink:href="#mc6667ebe4b" y="208.143748"/>
      </g>
     </g>
     <g id="text_13">
      <!-- 0.2 -->
      <g transform="translate(34.696875 211.942967)scale(0.1 -0.1)">
       <use xlink:href="#DejaVuSans-30"/>
       <use x="63.623047" xlink:href="#DejaVuSans-2e"/>
       <use x="95.410156" xlink:href="#DejaVuSans-32"/>
      </g>
     </g>
    </g>
    <g id="ytick_4">
     <g id="line2d_13">
      <g>
       <use style="stroke:#000000;stroke-width:0.8;" x="57.6" xlink:href="#mc6667ebe4b" y="161.92619"/>
      </g>
     </g>
     <g id="text_14">
      <!-- 0.3 -->
      <g transform="translate(34.696875 165.725409)scale(0.1 -0.1)">
       <use xlink:href="#DejaVuSans-30"/>
       <use x="63.623047" xlink:href="#DejaVuSans-2e"/>
       <use x="95.410156" xlink:href="#DejaVuSans-33"/>
      </g>
     </g>
    </g>
    <g id="ytick_5">
     <g id="line2d_14">
      <g>
       <use style="stroke:#000000;stroke-width:0.8;" x="57.6" xlink:href="#mc6667ebe4b" y="115.708633"/>
      </g>
     </g>
     <g id="text_15">
      <!-- 0.4 -->
      <g transform="translate(34.696875 119.507852)scale(0.1 -0.1)">
       <use xlink:href="#DejaVuSans-30"/>
       <use x="63.623047" xlink:href="#DejaVuSans-2e"/>
       <use x="95.410156" xlink:href="#DejaVuSans-34"/>
      </g>
     </g>
    </g>
    <g id="ytick_6">
     <g id="line2d_15">
      <g>
       <use style="stroke:#000000;stroke-width:0.8;" x="57.6" xlink:href="#mc6667ebe4b" y="69.491076"/>
      </g>
     </g>
     <g id="text_16">
      <!-- 0.5 -->
      <g transform="translate(34.696875 73.290294)scale(0.1 -0.1)">
       <use xlink:href="#DejaVuSans-30"/>
       <use x="63.623047" xlink:href="#DejaVuSans-2e"/>
       <use x="95.410156" xlink:href="#DejaVuSans-35"/>
      </g>
     </g>
    </g>
    <g id="text_17">
     <!-- Loss -->
     <g transform="translate(27.577344 190.978781)rotate(-90)scale(0.15 -0.15)">
      <defs>
       <path d="M 628 4666 
L 1259 4666 
L 1259 531 
L 3531 531 
L 3531 0 
L 628 0 
L 628 4666 
z
" id="DejaVuSans-4c" transform="scale(0.015625)"/>
       <path d="M 2834 3397 
L 2834 2853 
Q 2591 2978 2328 3040 
Q 2066 3103 1784 3103 
Q 1356 3103 1142 2972 
Q 928 2841 928 2578 
Q 928 2378 1081 2264 
Q 1234 2150 1697 2047 
L 1894 2003 
Q 2506 1872 2764 1633 
Q 3022 1394 3022 966 
Q 3022 478 2636 193 
Q 2250 -91 1575 -91 
Q 1294 -91 989 -36 
Q 684 19 347 128 
L 347 722 
Q 666 556 975 473 
Q 1284 391 1588 391 
Q 1994 391 2212 530 
Q 2431 669 2431 922 
Q 2431 1156 2273 1281 
Q 2116 1406 1581 1522 
L 1381 1569 
Q 847 1681 609 1914 
Q 372 2147 372 2553 
Q 372 3047 722 3315 
Q 1072 3584 1716 3584 
Q 2034 3584 2315 3537 
Q 2597 3491 2834 3397 
z
" id="DejaVuSans-73" transform="scale(0.015625)"/>
      </defs>
      <use xlink:href="#DejaVuSans-4c"/>
      <use x="53.962891" xlink:href="#DejaVuSans-6f"/>
      <use x="115.144531" xlink:href="#DejaVuSans-73"/>
      <use x="167.244141" xlink:href="#DejaVuSans-73"/>
     </g>
    </g>
   </g>
   <g id="line2d_16">
    <path clip-path="url(#p0f48a96d75)" d="M 73.832727 86.23339 
L 74.646398 117.324782 
L 75.460068 121.452112 
L 76.273739 102.3286 
L 77.087409 97.851682 
L 77.90108 87.622486 
L 78.714751 102.576192 
L 79.528421 105.205135 
L 80.342092 97.467538 
L 81.155762 114.816688 
L 81.969433 102.68008 
L 82.783103 84.384839 
L 83.596774 87.800461 
L 84.410444 114.035228 
L 85.224115 113.28519 
L 86.037785 102.471441 
L 86.851456 86.457329 
L 87.665126 106.445465 
L 88.478797 111.383493 
L 89.292468 83.067105 
L 90.106138 118.386197 
L 90.919809 82.570772 
L 91.733479 123.767467 
L 93.36082 86.037701 
L 94.174491 53.568 
L 94.988161 103.037609 
L 95.801832 107.343544 
L 96.615502 81.581406 
L 97.429173 106.092034 
L 98.242843 80.229608 
L 99.870185 120.503398 
L 100.683855 124.053082 
L 101.497526 108.194917 
L 102.311196 122.869482 
L 103.124867 119.194543 
L 103.938537 118.188413 
L 104.752208 130.659324 
L 105.565878 130.448959 
L 106.379549 125.09161 
L 107.193219 135.41647 
L 108.00689 124.060304 
L 108.82056 136.114477 
L 109.634231 138.696941 
L 110.447902 124.583239 
L 111.261572 122.496708 
L 112.075243 140.188046 
L 112.888913 140.45239 
L 113.702584 149.363106 
L 114.516254 137.221379 
L 115.329925 137.689032 
L 116.143595 135.864707 
L 117.770936 159.316804 
L 118.584607 152.913636 
L 119.398278 161.796952 
L 120.211948 153.039076 
L 121.025619 156.891276 
L 121.839289 141.283554 
L 122.65296 166.009046 
L 123.46663 162.88125 
L 124.280301 151.318441 
L 125.907642 156.422897 
L 126.721312 180.33644 
L 127.534983 158.231969 
L 128.348653 190.745899 
L 129.162324 173.58666 
L 129.975995 181.140402 
L 130.789665 180.943912 
L 131.603336 193.086091 
L 132.417006 178.39893 
L 133.230677 190.505057 
L 134.044347 178.014955 
L 134.858018 171.381282 
L 135.671688 195.422391 
L 136.485359 180.536313 
L 137.299029 186.301188 
L 138.1127 183.446382 
L 138.92637 198.883857 
L 139.740041 188.399833 
L 140.553712 191.813741 
L 142.181053 167.384647 
L 142.994723 173.221862 
L 143.808394 194.796968 
L 144.622064 194.481426 
L 145.435735 178.12375 
L 146.249405 200.083074 
L 147.063076 190.794417 
L 147.876746 204.274635 
L 149.504087 186.296717 
L 150.317758 202.918746 
L 151.131429 210.171598 
L 151.945099 205.522867 
L 152.75877 188.811445 
L 153.57244 198.139025 
L 154.386111 211.53548 
L 155.199781 215.418126 
L 156.013452 216.472543 
L 156.827122 208.987716 
L 157.640793 205.386852 
L 158.454463 196.780291 
L 159.268134 197.23145 
L 160.081805 197.045071 
L 160.895475 221.613591 
L 161.709146 212.37462 
L 162.522816 216.66732 
L 164.150157 232.151454 
L 165.777498 211.240989 
L 166.591169 226.504601 
L 167.404839 234.205455 
L 168.21851 216.88162 
L 169.03218 211.008347 
L 169.845851 242.739737 
L 170.659522 240.922331 
L 171.473192 229.39698 
L 172.286863 224.033932 
L 173.100533 226.689604 
L 173.914204 229.974867 
L 174.727874 239.176878 
L 175.541545 242.322242 
L 176.355215 224.978842 
L 177.168886 222.576788 
L 177.982556 231.861875 
L 178.796227 239.191299 
L 179.609897 250.91183 
L 180.423568 246.40148 
L 181.237239 227.563164 
L 182.050909 243.687823 
L 182.86458 241.840187 
L 183.67825 237.798614 
L 184.491921 251.794479 
L 185.305591 237.562795 
L 186.119262 246.915437 
L 186.932932 252.356877 
L 187.746603 238.863504 
L 188.560273 234.049619 
L 189.373944 227.859446 
L 190.187614 256.940819 
L 191.001285 258.266127 
L 191.814956 248.943806 
L 192.628626 237.308244 
L 193.442297 232.156476 
L 194.255967 250.789064 
L 195.069638 252.035737 
L 195.883308 266.414587 
L 196.696979 229.562628 
L 197.510649 249.949253 
L 198.32432 254.317052 
L 199.13799 252.865332 
L 199.951661 233.31868 
L 200.765332 261.964074 
L 202.392673 245.091681 
L 203.206343 261.391477 
L 204.020014 254.784622 
L 204.833684 257.792829 
L 205.647355 251.098386 
L 206.461025 268.163785 
L 207.274696 248.635432 
L 208.088366 251.630854 
L 208.902037 257.211994 
L 209.715707 269.625241 
L 210.529378 242.029673 
L 211.343049 267.667478 
L 212.156719 269.450929 
L 212.97039 252.437007 
L 213.78406 248.078253 
L 214.597731 266.620129 
L 215.411401 261.697994 
L 216.225072 262.659608 
L 217.038742 260.279577 
L 217.852413 243.5502 
L 218.666083 255.015341 
L 219.479754 251.792916 
L 220.293424 259.497638 
L 221.107095 275.359006 
L 221.920766 272.62198 
L 223.548107 274.365787 
L 224.361777 258.767385 
L 225.175448 260.017467 
L 225.989118 273.934225 
L 226.802789 263.655814 
L 227.616459 271.826534 
L 228.43013 248.807955 
L 229.2438 248.552023 
L 230.057471 267.159077 
L 230.871141 272.065058 
L 231.684812 264.030363 
L 232.498483 249.197802 
L 233.312153 266.034023 
L 234.125824 265.97848 
L 234.939494 272.966714 
L 235.753165 266.712187 
L 236.566835 257.939209 
L 237.380506 271.395708 
L 238.194176 262.74445 
L 239.007847 274.025861 
L 239.821517 268.774334 
L 240.635188 260.425659 
L 241.448859 264.475256 
L 242.262529 273.024598 
L 243.0762 266.687651 
L 243.88987 267.997648 
L 244.703541 276.378518 
L 245.517211 271.130377 
L 247.144552 277.912697 
L 247.958223 255.235085 
L 248.771893 273.978598 
L 249.585564 278.535209 
L 250.399234 276.82714 
L 251.212905 266.692289 
L 252.026576 277.377437 
L 252.840246 267.451519 
L 253.653917 269.091232 
L 254.467587 282.284339 
L 255.281258 288.496754 
L 256.094928 281.352882 
L 256.908599 281.018105 
L 257.722269 274.831374 
L 258.53594 258.998109 
L 259.34961 284.567843 
L 260.163281 285.939515 
L 260.976951 265.895233 
L 261.790622 277.580701 
L 262.604293 262.302355 
L 263.417963 266.681441 
L 264.231634 250.813817 
L 265.045304 280.663971 
L 265.858975 288.073789 
L 266.672645 263.926225 
L 267.486316 283.080587 
L 268.299986 281.939759 
L 269.113657 263.161768 
L 269.927327 271.64332 
L 270.740998 271.465379 
L 271.554668 265.494274 
L 272.368339 278.602422 
L 273.18201 274.982863 
L 273.99568 273.705222 
L 274.809351 285.633461 
L 275.623021 288.519983 
L 276.436692 274.166466 
L 277.250362 278.660799 
L 278.064033 277.920214 
L 278.877703 287.689967 
L 279.691374 267.936147 
L 280.505044 264.29165 
L 281.318715 280.491468 
L 282.132386 282.190061 
L 282.946056 278.738756 
L 283.759727 268.160596 
L 284.573397 271.052209 
L 285.387068 285.909616 
L 286.200738 286.795666 
L 287.014409 288.769522 
L 287.828079 276.141034 
L 288.64175 282.616394 
L 289.45542 287.494297 
L 290.269091 276.133009 
L 291.082761 284.615814 
L 292.710103 279.256768 
L 293.523773 286.585504 
L 294.337444 279.287032 
L 295.151114 283.552755 
L 295.964785 274.73206 
L 296.778455 273.606543 
L 297.592126 271.360254 
L 298.405796 279.183426 
L 299.219467 277.877483 
L 300.033137 268.229987 
L 300.846808 278.333323 
L 301.660478 282.876687 
L 302.474149 283.318797 
L 303.28782 285.789407 
L 304.10149 290.311604 
L 304.915161 288.789784 
L 305.728831 283.982409 
L 306.542502 275.107946 
L 307.356172 279.14341 
L 308.169843 281.93599 
L 308.983513 288.896234 
L 309.797184 283.147469 
L 310.610854 290.013123 
L 311.424525 286.742346 
L 312.238195 277.74871 
L 313.051866 284.055108 
L 313.865537 279.003781 
L 314.679207 279.729031 
L 316.306548 269.172105 
L 317.120219 280.215206 
L 317.933889 277.101806 
L 318.74756 284.330694 
L 319.56123 289.102019 
L 320.374901 282.811098 
L 321.188571 281.479604 
L 322.002242 287.458824 
L 322.815913 284.067912 
L 323.629583 285.128081 
L 324.443254 267.349303 
L 325.256924 274.214653 
L 326.070595 273.832418 
L 326.884265 290.840528 
L 327.697936 291.46991 
L 328.511606 292.876708 
L 329.325277 282.501937 
L 330.138947 268.223203 
L 330.952618 283.803227 
L 331.766288 276.878422 
L 332.579959 272.410377 
L 333.39363 288.048556 
L 334.2073 285.703376 
L 335.020971 292.062788 
L 335.834641 269.895576 
L 336.648312 290.117313 
L 337.461982 283.788445 
L 338.275653 289.69226 
L 339.089323 288.33457 
L 339.902994 293.377727 
L 340.716664 279.385874 
L 342.344005 289.661655 
L 343.157676 287.60889 
L 343.971347 292.084891 
L 344.785017 294.753386 
L 345.598688 292.006697 
L 346.412358 244.756525 
L 347.226029 285.362446 
L 348.039699 291.432769 
L 348.85337 287.660642 
L 349.66704 288.922823 
L 350.480711 291.708419 
L 351.294381 290.267543 
L 352.108052 287.72189 
L 352.921722 283.472858 
L 353.735393 270.293088 
L 355.362734 280.587649 
L 356.176405 286.697566 
L 356.990075 288.205384 
L 357.803746 284.896065 
L 358.617416 293.190808 
L 359.431087 288.041812 
L 360.244757 285.791889 
L 361.058428 274.692173 
L 361.872098 287.277164 
L 362.685769 285.718146 
L 363.49944 274.590268 
L 364.31311 283.269281 
L 365.126781 285.070474 
L 365.940451 281.548652 
L 366.754122 287.671131 
L 367.567792 282.373516 
L 368.381463 282.965904 
L 369.195133 281.081553 
L 370.008804 291.413131 
L 370.822474 291.128248 
L 371.636145 292.301668 
L 372.449815 260.915767 
L 373.263486 281.931333 
L 374.077157 290.388485 
L 374.890827 288.905843 
L 375.704498 282.917444 
L 376.518168 281.981697 
L 377.331839 258.358521 
L 378.145509 285.856706 
L 378.95918 285.977395 
L 380.586521 278.145636 
L 381.400191 294.799687 
L 382.213862 294.680491 
L 383.027532 282.117621 
L 383.841203 287.3202 
L 384.654874 286.674164 
L 385.468544 283.47477 
L 386.282215 284.706347 
L 387.095885 288.541198 
L 387.909556 290.268469 
L 388.723226 291.35287 
L 389.536897 291.846269 
L 390.350567 288.914885 
L 391.164238 289.296397 
L 391.977908 281.410052 
L 392.791579 288.186229 
L 393.605249 286.842493 
L 394.41892 294.682279 
L 395.232591 281.69566 
L 396.046261 285.53127 
L 396.859932 282.961751 
L 397.673602 289.633338 
L 398.487273 289.231797 
L 398.487273 289.231797 
" style="fill:none;stroke:#1f77b4;stroke-linecap:square;stroke-width:1.5;"/>
   </g>
   <g id="line2d_17">
    <path clip-path="url(#p0f48a96d75)" d="M 73.832727 113.527399 
L 74.646398 103.659904 
L 76.273739 122.239176 
L 77.087409 100.689952 
L 77.90108 69.417635 
L 78.714751 94.792471 
L 79.528421 89.208153 
L 80.342092 96.646373 
L 81.155762 114.102882 
L 81.969433 99.107681 
L 82.783103 109.894114 
L 83.596774 95.868236 
L 84.410444 98.745935 
L 85.224115 107.069473 
L 86.037785 111.528723 
L 86.851456 106.271394 
L 87.665126 75.49166 
L 88.478797 101.870523 
L 89.292468 84.225153 
L 90.106138 88.811352 
L 90.919809 109.082077 
L 91.733479 134.227086 
L 92.54715 110.610942 
L 93.36082 131.727453 
L 94.174491 136.446099 
L 94.988161 113.725587 
L 95.801832 118.674325 
L 96.615502 88.017925 
L 97.429173 91.092772 
L 98.242843 111.769582 
L 99.056514 100.457548 
L 99.870185 97.513589 
L 100.683855 103.145959 
L 101.497526 98.608008 
L 102.311196 101.923496 
L 103.938537 126.690272 
L 104.752208 129.996656 
L 105.565878 110.198371 
L 106.379549 133.468636 
L 107.193219 111.375478 
L 108.00689 120.091888 
L 108.82056 110.578921 
L 109.634231 123.642016 
L 110.447902 110.073592 
L 111.261572 126.123725 
L 112.075243 122.942484 
L 112.888913 121.519497 
L 113.702584 117.804936 
L 114.516254 127.257671 
L 115.329925 94.000597 
L 116.143595 96.073081 
L 116.957266 105.4565 
L 117.770936 136.327947 
L 118.584607 116.073741 
L 119.398278 126.113927 
L 120.211948 103.487402 
L 121.025619 149.860744 
L 121.839289 131.132134 
L 122.65296 119.057255 
L 123.46663 112.783509 
L 124.280301 145.305294 
L 125.093971 134.639375 
L 125.907642 135.580413 
L 126.721312 154.488206 
L 127.534983 154.269078 
L 128.348653 143.004843 
L 129.162324 129.833767 
L 129.975995 129.03483 
L 130.789665 164.246747 
L 131.603336 150.717566 
L 133.230677 138.095942 
L 134.044347 181.8013 
L 134.858018 144.113775 
L 135.671688 132.578676 
L 136.485359 157.440345 
L 137.299029 158.321209 
L 138.1127 179.644291 
L 138.92637 148.814375 
L 139.740041 163.39489 
L 140.553712 139.436708 
L 141.367382 146.041402 
L 142.181053 159.44341 
L 142.994723 169.165792 
L 143.808394 166.532509 
L 145.435735 158.247933 
L 146.249405 177.662779 
L 147.063076 172.867395 
L 147.876746 179.206873 
L 148.690417 168.666306 
L 149.504087 183.928832 
L 150.317758 184.008962 
L 151.131429 165.288747 
L 151.945099 174.88651 
L 152.75877 185.807156 
L 153.57244 184.962285 
L 154.386111 212.10749 
L 155.199781 186.679166 
L 156.013452 193.533032 
L 156.827122 196.591711 
L 157.640793 184.676145 
L 158.454463 170.371883 
L 159.268134 192.070179 
L 160.081805 197.599876 
L 160.895475 199.604998 
L 161.709146 201.037803 
L 162.522816 204.752139 
L 163.336487 197.19504 
L 164.150157 215.861453 
L 164.963828 191.880574 
L 165.777498 191.914582 
L 166.591169 215.154158 
L 167.404839 215.230215 
L 168.21851 226.56762 
L 169.03218 203.24462 
L 169.845851 203.275426 
L 170.659522 203.482903 
L 171.473192 207.633853 
L 172.286863 199.680499 
L 173.100533 229.258605 
L 173.914204 197.978979 
L 174.727874 227.217495 
L 175.541545 197.075923 
L 176.355215 234.211624 
L 177.168886 209.063236 
L 177.982556 214.549566 
L 178.796227 208.635993 
L 179.609897 215.714287 
L 180.423568 229.858008 
L 181.237239 236.095666 
L 182.050909 229.471653 
L 182.86458 228.842835 
L 183.67825 221.354723 
L 184.491921 230.926846 
L 185.305591 224.158131 
L 186.119262 225.988898 
L 186.932932 224.941513 
L 187.746603 249.204085 
L 188.560273 211.693008 
L 189.373944 237.899927 
L 190.187614 232.457141 
L 191.001285 239.559637 
L 191.814956 251.050637 
L 192.628626 219.943492 
L 193.442297 219.023728 
L 194.255967 236.506309 
L 195.069638 249.446457 
L 195.883308 235.145913 
L 196.696979 218.810112 
L 197.510649 240.560237 
L 198.32432 241.921205 
L 199.13799 218.752049 
L 199.951661 233.832675 
L 200.765332 256.581672 
L 201.579002 243.594054 
L 203.206343 227.59229 
L 204.020014 233.488751 
L 204.833684 236.89282 
L 205.647355 244.817354 
L 206.461025 248.705286 
L 207.274696 243.226128 
L 208.088366 246.204665 
L 208.902037 248.529076 
L 209.715707 240.083751 
L 210.529378 238.506617 
L 211.343049 250.591596 
L 212.156719 241.358542 
L 212.97039 236.230367 
L 213.78406 270.643016 
L 214.597731 260.057974 
L 215.411401 225.287335 
L 216.225072 246.175003 
L 217.038742 255.546499 
L 217.852413 266.344078 
L 218.666083 242.847841 
L 219.479754 257.413938 
L 220.293424 263.322275 
L 221.107095 255.695475 
L 222.734436 249.514653 
L 223.548107 251.305629 
L 224.361777 248.375839 
L 225.175448 262.031223 
L 225.989118 256.574436 
L 226.802789 255.076815 
L 227.616459 258.479127 
L 228.43013 247.950916 
L 229.2438 257.362655 
L 230.057471 275.234483 
L 230.871141 255.308502 
L 231.684812 255.892808 
L 232.498483 258.309815 
L 233.312153 256.721882 
L 234.125824 268.979415 
L 234.939494 232.974431 
L 236.566835 262.474015 
L 237.380506 268.634079 
L 238.194176 247.262132 
L 239.007847 267.515456 
L 239.821517 246.347695 
L 240.635188 261.843366 
L 241.448859 271.142923 
L 242.262529 275.337894 
L 243.0762 267.801919 
L 243.88987 266.185787 
L 245.517211 252.010019 
L 246.330882 274.47026 
L 247.144552 267.04404 
L 247.958223 252.103325 
L 248.771893 268.083332 
L 250.399234 268.043768 
L 251.212905 272.806921 
L 252.026576 261.622465 
L 252.840246 274.462219 
L 253.653917 266.639291 
L 254.467587 272.453257 
L 255.281258 280.464434 
L 256.094928 270.907352 
L 256.908599 253.62322 
L 257.722269 281.277703 
L 258.53594 265.623828 
L 259.34961 263.244718 
L 260.163281 257.789885 
L 260.976951 274.402677 
L 261.790622 276.867085 
L 262.604293 267.714293 
L 263.417963 274.060563 
L 264.231634 272.210104 
L 265.045304 272.089617 
L 265.858975 282.957229 
L 266.672645 268.340439 
L 267.486316 255.882355 
L 268.299986 278.31473 
L 269.113657 281.295142 
L 269.927327 269.68048 
L 270.740998 274.404008 
L 271.554668 281.183203 
L 272.368339 270.250143 
L 273.18201 252.381921 
L 273.99568 286.519454 
L 274.809351 275.967054 
L 275.623021 276.20783 
L 276.436692 280.280589 
L 277.250362 283.420309 
L 278.064033 274.846114 
L 278.877703 269.557199 
L 279.691374 275.723835 
L 280.505044 263.629331 
L 281.318715 280.783711 
L 282.132386 253.701099 
L 282.946056 269.886864 
L 283.759727 282.512901 
L 284.573397 271.091615 
L 285.387068 274.673757 
L 286.200738 288.375219 
L 287.014409 270.819838 
L 287.828079 268.094395 
L 288.64175 253.832053 
L 289.45542 272.135626 
L 290.269091 282.144176 
L 291.082761 269.052795 
L 291.896432 259.96474 
L 292.710103 283.079503 
L 293.523773 277.140011 
L 294.337444 282.466949 
L 295.151114 275.532388 
L 295.964785 281.513056 
L 296.778455 283.611378 
L 297.592126 282.148267 
L 298.405796 254.157824 
L 299.219467 278.070912 
L 300.033137 287.286378 
L 300.846808 278.669735 
L 301.660478 282.531313 
L 302.474149 276.73727 
L 303.28782 259.944871 
L 304.10149 284.466782 
L 304.915161 273.263153 
L 305.728831 280.140111 
L 306.542502 289.399287 
L 307.356172 278.948105 
L 308.169843 282.808898 
L 308.983513 274.034481 
L 309.797184 280.946341 
L 310.610854 273.21096 
L 311.424525 278.851751 
L 312.238195 294.223489 
L 313.051866 281.190669 
L 313.865537 274.628986 
L 314.679207 252.70556 
L 315.492878 280.074436 
L 316.306548 280.900805 
L 317.933889 281.15423 
L 318.74756 283.362526 
L 320.374901 278.548362 
L 321.188571 281.038208 
L 322.002242 285.88935 
L 322.815913 276.642143 
L 323.629583 276.705494 
L 324.443254 278.730092 
L 325.256924 278.703032 
L 326.070595 274.060034 
L 326.884265 272.422455 
L 327.697936 279.803937 
L 328.511606 273.477748 
L 329.325277 279.874787 
L 330.138947 274.772743 
L 330.952618 290.660993 
L 331.766288 283.8665 
L 332.579959 293.031742 
L 333.39363 274.148221 
L 334.2073 283.275333 
L 335.020971 266.654238 
L 335.834641 280.134004 
L 336.648312 276.984358 
L 337.461982 289.076211 
L 338.275653 271.041351 
L 339.089323 287.957111 
L 339.902994 292.448863 
L 341.530335 278.368131 
L 342.344005 269.045573 
L 343.157676 286.546545 
L 343.971347 281.210831 
L 344.785017 283.121066 
L 345.598688 285.510967 
L 346.412358 282.134298 
L 347.226029 291.000839 
L 348.85337 280.137498 
L 349.66704 266.348062 
L 350.480711 288.737903 
L 351.294381 276.821954 
L 352.108052 281.063932 
L 352.921722 275.3255 
L 353.735393 293.407545 
L 354.549064 289.767931 
L 355.362734 290.52849 
L 356.176405 288.406397 
L 356.990075 283.052579 
L 357.803746 288.740723 
L 358.617416 289.135188 
L 359.431087 276.078424 
L 360.244757 274.219413 
L 361.058428 285.859368 
L 361.872098 291.055176 
L 362.685769 285.1573 
L 363.49944 284.702059 
L 364.31311 289.227745 
L 365.126781 280.532175 
L 365.940451 283.372486 
L 366.754122 276.169096 
L 367.567792 286.824991 
L 368.381463 284.314964 
L 369.195133 275.988395 
L 370.008804 285.473419 
L 370.822474 266.638287 
L 371.636145 286.996429 
L 372.449815 288.191711 
L 373.263486 289.78157 
L 374.077157 289.033964 
L 376.518168 274.232963 
L 377.331839 281.093563 
L 378.145509 277.709549 
L 378.95918 290.475825 
L 379.77285 283.654947 
L 380.586521 286.500586 
L 381.400191 284.528804 
L 382.213862 281.244051 
L 383.027532 288.69152 
L 383.841203 290.687102 
L 384.654874 291.541741 
L 385.468544 276.698857 
L 386.282215 282.163312 
L 387.095885 289.45554 
L 387.909556 285.169196 
L 388.723226 278.320175 
L 389.536897 289.70703 
L 390.350567 276.192777 
L 391.164238 294.423774 
L 391.977908 295.488 
L 392.791579 286.36349 
L 393.605249 286.175008 
L 394.41892 285.635804 
L 395.232591 291.426193 
L 396.046261 292.942985 
L 396.859932 291.177052 
L 397.673602 288.924466 
L 398.487273 289.59066 
L 398.487273 289.59066 
" style="fill:none;stroke:#ff7f0e;stroke-linecap:square;stroke-width:1.5;"/>
   </g>
   <g id="patch_3">
    <path d="M 57.6 307.584 
L 57.6 41.472 
" style="fill:none;stroke:#000000;stroke-linecap:square;stroke-linejoin:miter;stroke-width:0.8;"/>
   </g>
   <g id="patch_4">
    <path d="M 414.72 307.584 
L 414.72 41.472 
" style="fill:none;stroke:#000000;stroke-linecap:square;stroke-linejoin:miter;stroke-width:0.8;"/>
   </g>
   <g id="patch_5">
    <path d="M 57.6 307.584 
L 414.72 307.584 
" style="fill:none;stroke:#000000;stroke-linecap:square;stroke-linejoin:miter;stroke-width:0.8;"/>
   </g>
   <g id="patch_6">
    <path d="M 57.6 41.472 
L 414.72 41.472 
" style="fill:none;stroke:#000000;stroke-linecap:square;stroke-linejoin:miter;stroke-width:0.8;"/>
   </g>
   <g id="legend_1">
    <g id="patch_7">
     <path d="M 281.854375 78.82825 
L 407.72 78.82825 
Q 409.72 78.82825 409.72 76.82825 
L 409.72 48.472 
Q 409.72 46.472 407.72 46.472 
L 281.854375 46.472 
Q 279.854375 46.472 279.854375 48.472 
L 279.854375 76.82825 
Q 279.854375 78.82825 281.854375 78.82825 
z
" style="fill:#ffffff;opacity:0.8;stroke:#cccccc;stroke-linejoin:miter;"/>
    </g>
    <g id="line2d_18">
     <path d="M 283.854375 54.570437 
L 303.854375 54.570437 
" style="fill:none;stroke:#1f77b4;stroke-linecap:square;stroke-width:1.5;"/>
    </g>
    <g id="line2d_19"/>
    <g id="text_18">
     <!-- Without GradNorm -->
     <g transform="translate(311.854375 58.070437)scale(0.1 -0.1)">
      <defs>
       <path d="M 213 4666 
L 850 4666 
L 1831 722 
L 2809 4666 
L 3519 4666 
L 4500 722 
L 5478 4666 
L 6119 4666 
L 4947 0 
L 4153 0 
L 3169 4050 
L 2175 0 
L 1381 0 
L 213 4666 
z
" id="DejaVuSans-57" transform="scale(0.015625)"/>
       <path d="M 603 3500 
L 1178 3500 
L 1178 0 
L 603 0 
L 603 3500 
z
M 603 4863 
L 1178 4863 
L 1178 4134 
L 603 4134 
L 603 4863 
z
" id="DejaVuSans-69" transform="scale(0.015625)"/>
       <path d="M 1172 4494 
L 1172 3500 
L 2356 3500 
L 2356 3053 
L 1172 3053 
L 1172 1153 
Q 1172 725 1289 603 
Q 1406 481 1766 481 
L 2356 481 
L 2356 0 
L 1766 0 
Q 1100 0 847 248 
Q 594 497 594 1153 
L 594 3053 
L 172 3053 
L 172 3500 
L 594 3500 
L 594 4494 
L 1172 4494 
z
" id="DejaVuSans-74" transform="scale(0.015625)"/>
       <path d="M 544 1381 
L 544 3500 
L 1119 3500 
L 1119 1403 
Q 1119 906 1312 657 
Q 1506 409 1894 409 
Q 2359 409 2629 706 
Q 2900 1003 2900 1516 
L 2900 3500 
L 3475 3500 
L 3475 0 
L 2900 0 
L 2900 538 
Q 2691 219 2414 64 
Q 2138 -91 1772 -91 
Q 1169 -91 856 284 
Q 544 659 544 1381 
z
M 1991 3584 
L 1991 3584 
z
" id="DejaVuSans-75" transform="scale(0.015625)"/>
       <path id="DejaVuSans-20" transform="scale(0.015625)"/>
       <path d="M 3809 666 
L 3809 1919 
L 2778 1919 
L 2778 2438 
L 4434 2438 
L 4434 434 
Q 4069 175 3628 42 
Q 3188 -91 2688 -91 
Q 1594 -91 976 548 
Q 359 1188 359 2328 
Q 359 3472 976 4111 
Q 1594 4750 2688 4750 
Q 3144 4750 3555 4637 
Q 3966 4525 4313 4306 
L 4313 3634 
Q 3963 3931 3569 4081 
Q 3175 4231 2741 4231 
Q 1884 4231 1454 3753 
Q 1025 3275 1025 2328 
Q 1025 1384 1454 906 
Q 1884 428 2741 428 
Q 3075 428 3337 486 
Q 3600 544 3809 666 
z
" id="DejaVuSans-47" transform="scale(0.015625)"/>
       <path d="M 2631 2963 
Q 2534 3019 2420 3045 
Q 2306 3072 2169 3072 
Q 1681 3072 1420 2755 
Q 1159 2438 1159 1844 
L 1159 0 
L 581 0 
L 581 3500 
L 1159 3500 
L 1159 2956 
Q 1341 3275 1631 3429 
Q 1922 3584 2338 3584 
Q 2397 3584 2469 3576 
Q 2541 3569 2628 3553 
L 2631 2963 
z
" id="DejaVuSans-72" transform="scale(0.015625)"/>
       <path d="M 2194 1759 
Q 1497 1759 1228 1600 
Q 959 1441 959 1056 
Q 959 750 1161 570 
Q 1363 391 1709 391 
Q 2188 391 2477 730 
Q 2766 1069 2766 1631 
L 2766 1759 
L 2194 1759 
z
M 3341 1997 
L 3341 0 
L 2766 0 
L 2766 531 
Q 2569 213 2275 61 
Q 1981 -91 1556 -91 
Q 1019 -91 701 211 
Q 384 513 384 1019 
Q 384 1609 779 1909 
Q 1175 2209 1959 2209 
L 2766 2209 
L 2766 2266 
Q 2766 2663 2505 2880 
Q 2244 3097 1772 3097 
Q 1472 3097 1187 3025 
Q 903 2953 641 2809 
L 641 3341 
Q 956 3463 1253 3523 
Q 1550 3584 1831 3584 
Q 2591 3584 2966 3190 
Q 3341 2797 3341 1997 
z
" id="DejaVuSans-61" transform="scale(0.015625)"/>
       <path d="M 2906 2969 
L 2906 4863 
L 3481 4863 
L 3481 0 
L 2906 0 
L 2906 525 
Q 2725 213 2448 61 
Q 2172 -91 1784 -91 
Q 1150 -91 751 415 
Q 353 922 353 1747 
Q 353 2572 751 3078 
Q 1150 3584 1784 3584 
Q 2172 3584 2448 3432 
Q 2725 3281 2906 2969 
z
M 947 1747 
Q 947 1113 1208 752 
Q 1469 391 1925 391 
Q 2381 391 2643 752 
Q 2906 1113 2906 1747 
Q 2906 2381 2643 2742 
Q 2381 3103 1925 3103 
Q 1469 3103 1208 2742 
Q 947 2381 947 1747 
z
" id="DejaVuSans-64" transform="scale(0.015625)"/>
       <path d="M 628 4666 
L 1478 4666 
L 3547 763 
L 3547 4666 
L 4159 4666 
L 4159 0 
L 3309 0 
L 1241 3903 
L 1241 0 
L 628 0 
L 628 4666 
z
" id="DejaVuSans-4e" transform="scale(0.015625)"/>
       <path d="M 3328 2828 
Q 3544 3216 3844 3400 
Q 4144 3584 4550 3584 
Q 5097 3584 5394 3201 
Q 5691 2819 5691 2113 
L 5691 0 
L 5113 0 
L 5113 2094 
Q 5113 2597 4934 2840 
Q 4756 3084 4391 3084 
Q 3944 3084 3684 2787 
Q 3425 2491 3425 1978 
L 3425 0 
L 2847 0 
L 2847 2094 
Q 2847 2600 2669 2842 
Q 2491 3084 2119 3084 
Q 1678 3084 1418 2786 
Q 1159 2488 1159 1978 
L 1159 0 
L 581 0 
L 581 3500 
L 1159 3500 
L 1159 2956 
Q 1356 3278 1631 3431 
Q 1906 3584 2284 3584 
Q 2666 3584 2933 3390 
Q 3200 3197 3328 2828 
z
" id="DejaVuSans-6d" transform="scale(0.015625)"/>
      </defs>
      <use xlink:href="#DejaVuSans-57"/>
      <use x="96.626953" xlink:href="#DejaVuSans-69"/>
      <use x="124.410156" xlink:href="#DejaVuSans-74"/>
      <use x="163.619141" xlink:href="#DejaVuSans-68"/>
      <use x="226.998047" xlink:href="#DejaVuSans-6f"/>
      <use x="288.179688" xlink:href="#DejaVuSans-75"/>
      <use x="351.558594" xlink:href="#DejaVuSans-74"/>
      <use x="390.767578" xlink:href="#DejaVuSans-20"/>
      <use x="422.554688" xlink:href="#DejaVuSans-47"/>
      <use x="500.044922" xlink:href="#DejaVuSans-72"/>
      <use x="541.158203" xlink:href="#DejaVuSans-61"/>
      <use x="602.4375" xlink:href="#DejaVuSans-64"/>
      <use x="665.914062" xlink:href="#DejaVuSans-4e"/>
      <use x="740.71875" xlink:href="#DejaVuSans-6f"/>
      <use x="801.900391" xlink:href="#DejaVuSans-72"/>
      <use x="841.263672" xlink:href="#DejaVuSans-6d"/>
     </g>
    </g>
    <g id="line2d_20">
     <path d="M 283.854375 69.248562 
L 303.854375 69.248562 
" style="fill:none;stroke:#ff7f0e;stroke-linecap:square;stroke-width:1.5;"/>
    </g>
    <g id="line2d_21"/>
    <g id="text_19">
     <!-- With GradNorm -->
     <g transform="translate(311.854375 72.748562)scale(0.1 -0.1)">
      <use xlink:href="#DejaVuSans-57"/>
      <use x="96.626953" xlink:href="#DejaVuSans-69"/>
      <use x="124.410156" xlink:href="#DejaVuSans-74"/>
      <use x="163.619141" xlink:href="#DejaVuSans-68"/>
      <use x="226.998047" xlink:href="#DejaVuSans-20"/>
      <use x="258.785156" xlink:href="#DejaVuSans-47"/>
      <use x="336.275391" xlink:href="#DejaVuSans-72"/>
      <use x="377.388672" xlink:href="#DejaVuSans-61"/>
      <use x="438.667969" xlink:href="#DejaVuSans-64"/>
      <use x="502.144531" xlink:href="#DejaVuSans-4e"/>
      <use x="576.949219" xlink:href="#DejaVuSans-6f"/>
      <use x="638.130859" xlink:href="#DejaVuSans-72"/>
      <use x="677.494141" xlink:href="#DejaVuSans-6d"/>
     </g>
    </g>
   </g>
  </g>
 </g>
 <defs>
  <clipPath id="p0f48a96d75">
   <rect height="266.112" width="357.12" x="57.6" y="41.472"/>
  </clipPath>
 </defs>
</svg>
