<?xml version="1.0" encoding="utf-8" standalone="no"?>
<!DOCTYPE svg PUBLIC "-//W3C//DTD SVG 1.1//EN"
  "http://www.w3.org/Graphics/SVG/1.1/DTD/svg11.dtd">
<svg height="345.6pt" version="1.1" viewBox="0 0 460.8 345.6" width="460.8pt" xmlns="http://www.w3.org/2000/svg" xmlns:xlink="http://www.w3.org/1999/xlink">
 <metadata>
  <rdf:RDF xmlns:cc="http://creativecommons.org/ns#" xmlns:dc="http://purl.org/dc/elements/1.1/" xmlns:rdf="http://www.w3.org/1999/02/22-rdf-syntax-ns#">
   <cc:Work>
    <dc:type rdf:resource="http://purl.org/dc/dcmitype/StillImage"/>
    <dc:date>2021-07-16T16:38:05.021807</dc:date>
    <dc:format>image/svg+xml</dc:format>
    <dc:creator>
     <cc:Agent>
      <dc:title>Matplotlib v3.4.1, https://matplotlib.org/</dc:title>
     </cc:Agent>
    </dc:creator>
   </cc:Work>
  </rdf:RDF>
 </metadata>
 <defs>
  <style type="text/css">*{stroke-linecap:butt;stroke-linejoin:round;}</style>
 </defs>
 <g id="figure_1">
  <g id="patch_1">
   <path d="M 0 345.6 
L 460.8 345.6 
L 460.8 0 
L 0 0 
z
" style="fill:#ffffff;"/>
  </g>
  <g id="axes_1">
   <g id="patch_2">
    <path d="M 57.6 307.584 
L 414.72 307.584 
L 414.72 41.472 
L 57.6 41.472 
z
" style="fill:#ffffff;"/>
   </g>
   <g id="matplotlib.axis_1">
    <g id="xtick_1">
     <g id="line2d_1">
      <defs>
       <path d="M 0 0 
L 0 3.5 
" id="m790e6e432e" style="stroke:#000000;stroke-width:0.8;"/>
      </defs>
      <g>
       <use style="stroke:#000000;stroke-width:0.8;" x="73.019057" xlink:href="#m790e6e432e" y="307.584"/>
      </g>
     </g>
     <g id="text_1">
      <!-- 0 -->
      <g transform="translate(69.837807 322.182437)scale(0.1 -0.1)">
       <defs>
        <path d="M 2034 4250 
Q 1547 4250 1301 3770 
Q 1056 3291 1056 2328 
Q 1056 1369 1301 889 
Q 1547 409 2034 409 
Q 2525 409 2770 889 
Q 3016 1369 3016 2328 
Q 3016 3291 2770 3770 
Q 2525 4250 2034 4250 
z
M 2034 4750 
Q 2819 4750 3233 4129 
Q 3647 3509 3647 2328 
Q 3647 1150 3233 529 
Q 2819 -91 2034 -91 
Q 1250 -91 836 529 
Q 422 1150 422 2328 
Q 422 3509 836 4129 
Q 1250 4750 2034 4750 
z
" id="DejaVuSans-30" transform="scale(0.015625)"/>
       </defs>
       <use xlink:href="#DejaVuSans-30"/>
      </g>
     </g>
    </g>
    <g id="xtick_2">
     <g id="line2d_2">
      <g>
       <use style="stroke:#000000;stroke-width:0.8;" x="113.702584" xlink:href="#m790e6e432e" y="307.584"/>
      </g>
     </g>
     <g id="text_2">
      <!-- 50 -->
      <g transform="translate(107.340084 322.182437)scale(0.1 -0.1)">
       <defs>
        <path d="M 691 4666 
L 3169 4666 
L 3169 4134 
L 1269 4134 
L 1269 2991 
Q 1406 3038 1543 3061 
Q 1681 3084 1819 3084 
Q 2600 3084 3056 2656 
Q 3513 2228 3513 1497 
Q 3513 744 3044 326 
Q 2575 -91 1722 -91 
Q 1428 -91 1123 -41 
Q 819 9 494 109 
L 494 744 
Q 775 591 1075 516 
Q 1375 441 1709 441 
Q 2250 441 2565 725 
Q 2881 1009 2881 1497 
Q 2881 1984 2565 2268 
Q 2250 2553 1709 2553 
Q 1456 2553 1204 2497 
Q 953 2441 691 2322 
L 691 4666 
z
" id="DejaVuSans-35" transform="scale(0.015625)"/>
       </defs>
       <use xlink:href="#DejaVuSans-35"/>
       <use x="63.623047" xlink:href="#DejaVuSans-30"/>
      </g>
     </g>
    </g>
    <g id="xtick_3">
     <g id="line2d_3">
      <g>
       <use style="stroke:#000000;stroke-width:0.8;" x="154.386111" xlink:href="#m790e6e432e" y="307.584"/>
      </g>
     </g>
     <g id="text_3">
      <!-- 100 -->
      <g transform="translate(144.842361 322.182437)scale(0.1 -0.1)">
       <defs>
        <path d="M 794 531 
L 1825 531 
L 1825 4091 
L 703 3866 
L 703 4441 
L 1819 4666 
L 2450 4666 
L 2450 531 
L 3481 531 
L 3481 0 
L 794 0 
L 794 531 
z
" id="DejaVuSans-31" transform="scale(0.015625)"/>
       </defs>
       <use xlink:href="#DejaVuSans-31"/>
       <use x="63.623047" xlink:href="#DejaVuSans-30"/>
       <use x="127.246094" xlink:href="#DejaVuSans-30"/>
      </g>
     </g>
    </g>
    <g id="xtick_4">
     <g id="line2d_4">
      <g>
       <use style="stroke:#000000;stroke-width:0.8;" x="195.069638" xlink:href="#m790e6e432e" y="307.584"/>
      </g>
     </g>
     <g id="text_4">
      <!-- 150 -->
      <g transform="translate(185.525888 322.182437)scale(0.1 -0.1)">
       <use xlink:href="#DejaVuSans-31"/>
       <use x="63.623047" xlink:href="#DejaVuSans-35"/>
       <use x="127.246094" xlink:href="#DejaVuSans-30"/>
      </g>
     </g>
    </g>
    <g id="xtick_5">
     <g id="line2d_5">
      <g>
       <use style="stroke:#000000;stroke-width:0.8;" x="235.753165" xlink:href="#m790e6e432e" y="307.584"/>
      </g>
     </g>
     <g id="text_5">
      <!-- 200 -->
      <g transform="translate(226.209415 322.182437)scale(0.1 -0.1)">
       <defs>
        <path d="M 1228 531 
L 3431 531 
L 3431 0 
L 469 0 
L 469 531 
Q 828 903 1448 1529 
Q 2069 2156 2228 2338 
Q 2531 2678 2651 2914 
Q 2772 3150 2772 3378 
Q 2772 3750 2511 3984 
Q 2250 4219 1831 4219 
Q 1534 4219 1204 4116 
Q 875 4013 500 3803 
L 500 4441 
Q 881 4594 1212 4672 
Q 1544 4750 1819 4750 
Q 2544 4750 2975 4387 
Q 3406 4025 3406 3419 
Q 3406 3131 3298 2873 
Q 3191 2616 2906 2266 
Q 2828 2175 2409 1742 
Q 1991 1309 1228 531 
z
" id="DejaVuSans-32" transform="scale(0.015625)"/>
       </defs>
       <use xlink:href="#DejaVuSans-32"/>
       <use x="63.623047" xlink:href="#DejaVuSans-30"/>
       <use x="127.246094" xlink:href="#DejaVuSans-30"/>
      </g>
     </g>
    </g>
    <g id="xtick_6">
     <g id="line2d_6">
      <g>
       <use style="stroke:#000000;stroke-width:0.8;" x="276.436692" xlink:href="#m790e6e432e" y="307.584"/>
      </g>
     </g>
     <g id="text_6">
      <!-- 250 -->
      <g transform="translate(266.892942 322.182437)scale(0.1 -0.1)">
       <use xlink:href="#DejaVuSans-32"/>
       <use x="63.623047" xlink:href="#DejaVuSans-35"/>
       <use x="127.246094" xlink:href="#DejaVuSans-30"/>
      </g>
     </g>
    </g>
    <g id="xtick_7">
     <g id="line2d_7">
      <g>
       <use style="stroke:#000000;stroke-width:0.8;" x="317.120219" xlink:href="#m790e6e432e" y="307.584"/>
      </g>
     </g>
     <g id="text_7">
      <!-- 300 -->
      <g transform="translate(307.576469 322.182437)scale(0.1 -0.1)">
       <defs>
        <path d="M 2597 2516 
Q 3050 2419 3304 2112 
Q 3559 1806 3559 1356 
Q 3559 666 3084 287 
Q 2609 -91 1734 -91 
Q 1441 -91 1130 -33 
Q 819 25 488 141 
L 488 750 
Q 750 597 1062 519 
Q 1375 441 1716 441 
Q 2309 441 2620 675 
Q 2931 909 2931 1356 
Q 2931 1769 2642 2001 
Q 2353 2234 1838 2234 
L 1294 2234 
L 1294 2753 
L 1863 2753 
Q 2328 2753 2575 2939 
Q 2822 3125 2822 3475 
Q 2822 3834 2567 4026 
Q 2313 4219 1838 4219 
Q 1578 4219 1281 4162 
Q 984 4106 628 3988 
L 628 4550 
Q 988 4650 1302 4700 
Q 1616 4750 1894 4750 
Q 2613 4750 3031 4423 
Q 3450 4097 3450 3541 
Q 3450 3153 3228 2886 
Q 3006 2619 2597 2516 
z
" id="DejaVuSans-33" transform="scale(0.015625)"/>
       </defs>
       <use xlink:href="#DejaVuSans-33"/>
       <use x="63.623047" xlink:href="#DejaVuSans-30"/>
       <use x="127.246094" xlink:href="#DejaVuSans-30"/>
      </g>
     </g>
    </g>
    <g id="xtick_8">
     <g id="line2d_8">
      <g>
       <use style="stroke:#000000;stroke-width:0.8;" x="357.803746" xlink:href="#m790e6e432e" y="307.584"/>
      </g>
     </g>
     <g id="text_8">
      <!-- 350 -->
      <g transform="translate(348.259996 322.182437)scale(0.1 -0.1)">
       <use xlink:href="#DejaVuSans-33"/>
       <use x="63.623047" xlink:href="#DejaVuSans-35"/>
       <use x="127.246094" xlink:href="#DejaVuSans-30"/>
      </g>
     </g>
    </g>
    <g id="xtick_9">
     <g id="line2d_9">
      <g>
       <use style="stroke:#000000;stroke-width:0.8;" x="398.487273" xlink:href="#m790e6e432e" y="307.584"/>
      </g>
     </g>
     <g id="text_9">
      <!-- 400 -->
      <g transform="translate(388.943523 322.182437)scale(0.1 -0.1)">
       <defs>
        <path d="M 2419 4116 
L 825 1625 
L 2419 1625 
L 2419 4116 
z
M 2253 4666 
L 3047 4666 
L 3047 1625 
L 3713 1625 
L 3713 1100 
L 3047 1100 
L 3047 0 
L 2419 0 
L 2419 1100 
L 313 1100 
L 313 1709 
L 2253 4666 
z
" id="DejaVuSans-34" transform="scale(0.015625)"/>
       </defs>
       <use xlink:href="#DejaVuSans-34"/>
       <use x="63.623047" xlink:href="#DejaVuSans-30"/>
       <use x="127.246094" xlink:href="#DejaVuSans-30"/>
      </g>
     </g>
    </g>
    <g id="text_10">
     <!-- Epoch -->
     <g transform="translate(213.193594 339.659781)scale(0.15 -0.15)">
      <defs>
       <path d="M 628 4666 
L 3578 4666 
L 3578 4134 
L 1259 4134 
L 1259 2753 
L 3481 2753 
L 3481 2222 
L 1259 2222 
L 1259 531 
L 3634 531 
L 3634 0 
L 628 0 
L 628 4666 
z
" id="DejaVuSans-45" transform="scale(0.015625)"/>
       <path d="M 1159 525 
L 1159 -1331 
L 581 -1331 
L 581 3500 
L 1159 3500 
L 1159 2969 
Q 1341 3281 1617 3432 
Q 1894 3584 2278 3584 
Q 2916 3584 3314 3078 
Q 3713 2572 3713 1747 
Q 3713 922 3314 415 
Q 2916 -91 2278 -91 
Q 1894 -91 1617 61 
Q 1341 213 1159 525 
z
M 3116 1747 
Q 3116 2381 2855 2742 
Q 2594 3103 2138 3103 
Q 1681 3103 1420 2742 
Q 1159 2381 1159 1747 
Q 1159 1113 1420 752 
Q 1681 391 2138 391 
Q 2594 391 2855 752 
Q 3116 1113 3116 1747 
z
" id="DejaVuSans-70" transform="scale(0.015625)"/>
       <path d="M 1959 3097 
Q 1497 3097 1228 2736 
Q 959 2375 959 1747 
Q 959 1119 1226 758 
Q 1494 397 1959 397 
Q 2419 397 2687 759 
Q 2956 1122 2956 1747 
Q 2956 2369 2687 2733 
Q 2419 3097 1959 3097 
z
M 1959 3584 
Q 2709 3584 3137 3096 
Q 3566 2609 3566 1747 
Q 3566 888 3137 398 
Q 2709 -91 1959 -91 
Q 1206 -91 779 398 
Q 353 888 353 1747 
Q 353 2609 779 3096 
Q 1206 3584 1959 3584 
z
" id="DejaVuSans-6f" transform="scale(0.015625)"/>
       <path d="M 3122 3366 
L 3122 2828 
Q 2878 2963 2633 3030 
Q 2388 3097 2138 3097 
Q 1578 3097 1268 2742 
Q 959 2388 959 1747 
Q 959 1106 1268 751 
Q 1578 397 2138 397 
Q 2388 397 2633 464 
Q 2878 531 3122 666 
L 3122 134 
Q 2881 22 2623 -34 
Q 2366 -91 2075 -91 
Q 1284 -91 818 406 
Q 353 903 353 1747 
Q 353 2603 823 3093 
Q 1294 3584 2113 3584 
Q 2378 3584 2631 3529 
Q 2884 3475 3122 3366 
z
" id="DejaVuSans-63" transform="scale(0.015625)"/>
       <path d="M 3513 2113 
L 3513 0 
L 2938 0 
L 2938 2094 
Q 2938 2591 2744 2837 
Q 2550 3084 2163 3084 
Q 1697 3084 1428 2787 
Q 1159 2491 1159 1978 
L 1159 0 
L 581 0 
L 581 4863 
L 1159 4863 
L 1159 2956 
Q 1366 3272 1645 3428 
Q 1925 3584 2291 3584 
Q 2894 3584 3203 3211 
Q 3513 2838 3513 2113 
z
" id="DejaVuSans-68" transform="scale(0.015625)"/>
      </defs>
      <use xlink:href="#DejaVuSans-45"/>
      <use x="63.183594" xlink:href="#DejaVuSans-70"/>
      <use x="126.660156" xlink:href="#DejaVuSans-6f"/>
      <use x="187.841797" xlink:href="#DejaVuSans-63"/>
      <use x="242.822266" xlink:href="#DejaVuSans-68"/>
     </g>
    </g>
   </g>
   <g id="matplotlib.axis_2">
    <g id="ytick_1">
     <g id="line2d_10">
      <defs>
       <path d="M 0 0 
L -3.5 0 
" id="m7c0427f5db" style="stroke:#000000;stroke-width:0.8;"/>
      </defs>
      <g>
       <use style="stroke:#000000;stroke-width:0.8;" x="57.6" xlink:href="#m7c0427f5db" y="277.27072"/>
      </g>
     </g>
     <g id="text_11">
      <!-- −1000 -->
      <g transform="translate(16.770313 281.069938)scale(0.1 -0.1)">
       <defs>
        <path d="M 678 2272 
L 4684 2272 
L 4684 1741 
L 678 1741 
L 678 2272 
z
" id="DejaVuSans-2212" transform="scale(0.015625)"/>
       </defs>
       <use xlink:href="#DejaVuSans-2212"/>
       <use x="83.789062" xlink:href="#DejaVuSans-31"/>
       <use x="147.412109" xlink:href="#DejaVuSans-30"/>
       <use x="211.035156" xlink:href="#DejaVuSans-30"/>
       <use x="274.658203" xlink:href="#DejaVuSans-30"/>
      </g>
     </g>
    </g>
    <g id="ytick_2">
     <g id="line2d_11">
      <g>
       <use style="stroke:#000000;stroke-width:0.8;" x="57.6" xlink:href="#m7c0427f5db" y="230.62233"/>
      </g>
     </g>
     <g id="text_12">
      <!-- −800 -->
      <g transform="translate(23.132812 234.421549)scale(0.1 -0.1)">
       <defs>
        <path d="M 2034 2216 
Q 1584 2216 1326 1975 
Q 1069 1734 1069 1313 
Q 1069 891 1326 650 
Q 1584 409 2034 409 
Q 2484 409 2743 651 
Q 3003 894 3003 1313 
Q 3003 1734 2745 1975 
Q 2488 2216 2034 2216 
z
M 1403 2484 
Q 997 2584 770 2862 
Q 544 3141 544 3541 
Q 544 4100 942 4425 
Q 1341 4750 2034 4750 
Q 2731 4750 3128 4425 
Q 3525 4100 3525 3541 
Q 3525 3141 3298 2862 
Q 3072 2584 2669 2484 
Q 3125 2378 3379 2068 
Q 3634 1759 3634 1313 
Q 3634 634 3220 271 
Q 2806 -91 2034 -91 
Q 1263 -91 848 271 
Q 434 634 434 1313 
Q 434 1759 690 2068 
Q 947 2378 1403 2484 
z
M 1172 3481 
Q 1172 3119 1398 2916 
Q 1625 2713 2034 2713 
Q 2441 2713 2670 2916 
Q 2900 3119 2900 3481 
Q 2900 3844 2670 4047 
Q 2441 4250 2034 4250 
Q 1625 4250 1398 4047 
Q 1172 3844 1172 3481 
z
" id="DejaVuSans-38" transform="scale(0.015625)"/>
       </defs>
       <use xlink:href="#DejaVuSans-2212"/>
       <use x="83.789062" xlink:href="#DejaVuSans-38"/>
       <use x="147.412109" xlink:href="#DejaVuSans-30"/>
       <use x="211.035156" xlink:href="#DejaVuSans-30"/>
      </g>
     </g>
    </g>
    <g id="ytick_3">
     <g id="line2d_12">
      <g>
       <use style="stroke:#000000;stroke-width:0.8;" x="57.6" xlink:href="#m7c0427f5db" y="183.97394"/>
      </g>
     </g>
     <g id="text_13">
      <!-- −600 -->
      <g transform="translate(23.132812 187.773159)scale(0.1 -0.1)">
       <defs>
        <path d="M 2113 2584 
Q 1688 2584 1439 2293 
Q 1191 2003 1191 1497 
Q 1191 994 1439 701 
Q 1688 409 2113 409 
Q 2538 409 2786 701 
Q 3034 994 3034 1497 
Q 3034 2003 2786 2293 
Q 2538 2584 2113 2584 
z
M 3366 4563 
L 3366 3988 
Q 3128 4100 2886 4159 
Q 2644 4219 2406 4219 
Q 1781 4219 1451 3797 
Q 1122 3375 1075 2522 
Q 1259 2794 1537 2939 
Q 1816 3084 2150 3084 
Q 2853 3084 3261 2657 
Q 3669 2231 3669 1497 
Q 3669 778 3244 343 
Q 2819 -91 2113 -91 
Q 1303 -91 875 529 
Q 447 1150 447 2328 
Q 447 3434 972 4092 
Q 1497 4750 2381 4750 
Q 2619 4750 2861 4703 
Q 3103 4656 3366 4563 
z
" id="DejaVuSans-36" transform="scale(0.015625)"/>
       </defs>
       <use xlink:href="#DejaVuSans-2212"/>
       <use x="83.789062" xlink:href="#DejaVuSans-36"/>
       <use x="147.412109" xlink:href="#DejaVuSans-30"/>
       <use x="211.035156" xlink:href="#DejaVuSans-30"/>
      </g>
     </g>
    </g>
    <g id="ytick_4">
     <g id="line2d_13">
      <g>
       <use style="stroke:#000000;stroke-width:0.8;" x="57.6" xlink:href="#m7c0427f5db" y="137.325551"/>
      </g>
     </g>
     <g id="text_14">
      <!-- −400 -->
      <g transform="translate(23.132812 141.12477)scale(0.1 -0.1)">
       <use xlink:href="#DejaVuSans-2212"/>
       <use x="83.789062" xlink:href="#DejaVuSans-34"/>
       <use x="147.412109" xlink:href="#DejaVuSans-30"/>
       <use x="211.035156" xlink:href="#DejaVuSans-30"/>
      </g>
     </g>
    </g>
    <g id="ytick_5">
     <g id="line2d_14">
      <g>
       <use style="stroke:#000000;stroke-width:0.8;" x="57.6" xlink:href="#m7c0427f5db" y="90.677161"/>
      </g>
     </g>
     <g id="text_15">
      <!-- −200 -->
      <g transform="translate(23.132812 94.47638)scale(0.1 -0.1)">
       <use xlink:href="#DejaVuSans-2212"/>
       <use x="83.789062" xlink:href="#DejaVuSans-32"/>
       <use x="147.412109" xlink:href="#DejaVuSans-30"/>
       <use x="211.035156" xlink:href="#DejaVuSans-30"/>
      </g>
     </g>
    </g>
    <g id="ytick_6">
     <g id="line2d_15">
      <g>
       <use style="stroke:#000000;stroke-width:0.8;" x="57.6" xlink:href="#m7c0427f5db" y="44.028772"/>
      </g>
     </g>
     <g id="text_16">
      <!-- 0 -->
      <g transform="translate(44.2375 47.82799)scale(0.1 -0.1)">
       <use xlink:href="#DejaVuSans-30"/>
      </g>
     </g>
    </g>
    <g id="text_17">
     <!-- Loss -->
     <g transform="translate(9.650781 190.978781)rotate(-90)scale(0.15 -0.15)">
      <defs>
       <path d="M 628 4666 
L 1259 4666 
L 1259 531 
L 3531 531 
L 3531 0 
L 628 0 
L 628 4666 
z
" id="DejaVuSans-4c" transform="scale(0.015625)"/>
       <path d="M 2834 3397 
L 2834 2853 
Q 2591 2978 2328 3040 
Q 2066 3103 1784 3103 
Q 1356 3103 1142 2972 
Q 928 2841 928 2578 
Q 928 2378 1081 2264 
Q 1234 2150 1697 2047 
L 1894 2003 
Q 2506 1872 2764 1633 
Q 3022 1394 3022 966 
Q 3022 478 2636 193 
Q 2250 -91 1575 -91 
Q 1294 -91 989 -36 
Q 684 19 347 128 
L 347 722 
Q 666 556 975 473 
Q 1284 391 1588 391 
Q 1994 391 2212 530 
Q 2431 669 2431 922 
Q 2431 1156 2273 1281 
Q 2116 1406 1581 1522 
L 1381 1569 
Q 847 1681 609 1914 
Q 372 2147 372 2553 
Q 372 3047 722 3315 
Q 1072 3584 1716 3584 
Q 2034 3584 2315 3537 
Q 2597 3491 2834 3397 
z
" id="DejaVuSans-73" transform="scale(0.015625)"/>
      </defs>
      <use xlink:href="#DejaVuSans-4c"/>
      <use x="53.962891" xlink:href="#DejaVuSans-6f"/>
      <use x="115.144531" xlink:href="#DejaVuSans-73"/>
      <use x="167.244141" xlink:href="#DejaVuSans-73"/>
     </g>
    </g>
   </g>
   <g id="line2d_16">
    <path clip-path="url(#p25c37344f4)" d="M 73.832727 53.568 
L 74.646398 120.651531 
L 75.460068 143.860459 
L 76.273739 134.397417 
L 77.087409 159.975667 
L 77.90108 148.395551 
L 78.714751 166.401204 
L 79.528421 160.145942 
L 80.342092 167.469706 
L 81.155762 169.234764 
L 81.969433 177.401826 
L 82.783103 179.926146 
L 83.596774 185.186585 
L 84.410444 189.191704 
L 85.224115 189.145412 
L 86.037785 187.323339 
L 86.851456 177.286736 
L 87.665126 189.919511 
L 88.478797 195.267432 
L 89.292468 188.460166 
L 90.106138 207.892145 
L 90.919809 188.151187 
L 91.733479 209.936246 
L 92.54715 207.563529 
L 93.36082 207.66902 
L 94.174491 194.462746 
L 94.988161 214.182093 
L 95.801832 209.362724 
L 96.615502 217.536905 
L 97.429173 207.010809 
L 99.056514 219.952778 
L 99.870185 218.058783 
L 100.683855 223.723761 
L 101.497526 211.009162 
L 102.311196 221.652683 
L 103.124867 219.291114 
L 103.938537 220.626986 
L 104.752208 224.424248 
L 105.565878 221.875406 
L 106.379549 226.102929 
L 107.193219 229.726897 
L 108.00689 221.152369 
L 108.82056 220.139858 
L 109.634231 224.636973 
L 110.447902 228.366403 
L 111.261572 220.070141 
L 112.075243 220.521683 
L 112.888913 232.279507 
L 113.702584 233.50679 
L 114.516254 233.24512 
L 115.329925 225.286213 
L 116.143595 235.356342 
L 116.957266 230.554142 
L 117.770936 235.07725 
L 118.584607 237.042691 
L 119.398278 237.025882 
L 120.211948 236.824798 
L 121.025619 234.792314 
L 122.65296 234.345508 
L 124.280301 247.694411 
L 125.093971 238.886021 
L 125.907642 232.003851 
L 126.721312 249.723099 
L 127.534983 234.931718 
L 128.348653 241.919933 
L 129.162324 237.870767 
L 129.975995 253.496773 
L 130.789665 240.799785 
L 131.603336 237.139732 
L 132.417006 244.777577 
L 133.230677 241.001129 
L 134.044347 241.188446 
L 134.858018 252.217727 
L 135.671688 240.641691 
L 136.485359 237.638727 
L 137.299029 248.107684 
L 138.1127 252.124618 
L 138.92637 234.795598 
L 139.740041 235.463573 
L 140.553712 243.133279 
L 141.367382 249.601665 
L 142.181053 245.874479 
L 142.994723 243.453025 
L 143.808394 239.082468 
L 144.622064 240.858785 
L 145.435735 241.804173 
L 146.249405 245.875445 
L 147.063076 251.439226 
L 147.876746 247.032299 
L 148.690417 244.853585 
L 149.504087 239.858511 
L 150.317758 250.853029 
L 151.131429 254.11044 
L 151.945099 246.837136 
L 152.75877 255.31338 
L 153.57244 244.7204 
L 154.386111 249.674468 
L 155.199781 249.703492 
L 156.013452 240.522864 
L 157.640793 262.670261 
L 158.454463 243.767174 
L 159.268134 263.043237 
L 160.081805 250.514069 
L 160.895475 255.653883 
L 161.709146 256.43907 
L 162.522816 248.241596 
L 163.336487 244.051714 
L 164.150157 253.356051 
L 164.963828 247.581062 
L 165.777498 252.541412 
L 166.591169 244.943331 
L 167.404839 255.981438 
L 168.21851 259.052779 
L 169.03218 263.359912 
L 169.845851 262.144452 
L 170.659522 265.608343 
L 171.473192 253.168914 
L 172.286863 248.582692 
L 173.100533 257.876478 
L 173.914204 265.806078 
L 174.727874 255.914888 
L 175.541545 268.432703 
L 176.355215 261.452799 
L 177.168886 251.975844 
L 177.982556 254.713976 
L 178.796227 255.821477 
L 179.609897 255.433705 
L 180.423568 256.076123 
L 181.237239 257.588062 
L 182.050909 251.694841 
L 182.86458 248.180369 
L 183.67825 256.57778 
L 184.491921 251.914987 
L 185.305591 238.267443 
L 186.119262 264.677029 
L 186.932932 251.218406 
L 187.746603 258.599079 
L 188.560273 259.592238 
L 189.373944 266.996012 
L 190.187614 258.085463 
L 191.001285 254.682067 
L 191.814956 258.507793 
L 192.628626 259.904443 
L 193.442297 257.662115 
L 194.255967 257.212586 
L 195.069638 256.074003 
L 195.883308 250.437881 
L 196.696979 268.50444 
L 197.510649 263.387471 
L 198.32432 255.459174 
L 199.13799 262.179067 
L 199.951661 256.433563 
L 200.765332 257.463379 
L 201.579002 270.941639 
L 202.392673 266.684492 
L 203.206343 259.34098 
L 204.020014 259.885149 
L 204.833684 258.958408 
L 205.647355 261.118722 
L 206.461025 271.822557 
L 207.274696 265.904561 
L 208.088366 263.532038 
L 208.902037 249.615757 
L 209.715707 267.363056 
L 210.529378 255.266158 
L 211.343049 258.640189 
L 212.156719 248.632893 
L 212.97039 267.329216 
L 213.78406 260.657962 
L 214.597731 266.648161 
L 215.411401 258.577643 
L 216.225072 260.631731 
L 217.038742 268.825809 
L 217.852413 256.405113 
L 218.666083 259.746097 
L 219.479754 259.176546 
L 220.293424 266.506096 
L 221.107095 272.263954 
L 222.734436 250.675162 
L 223.548107 263.702466 
L 224.361777 263.832234 
L 225.175448 260.031482 
L 225.989118 265.668607 
L 226.802789 262.726642 
L 227.616459 263.500201 
L 228.43013 264.4584 
L 229.2438 267.357236 
L 230.057471 261.563541 
L 230.871141 267.330784 
L 231.684812 271.304408 
L 232.498483 268.219383 
L 233.312153 262.849459 
L 234.125824 271.057176 
L 234.939494 268.512143 
L 235.753165 261.644315 
L 236.566835 260.971632 
L 237.380506 263.210767 
L 238.194176 263.845688 
L 239.007847 260.340014 
L 239.821517 272.135638 
L 240.635188 264.294116 
L 241.448859 266.309698 
L 242.262529 267.318309 
L 243.0762 269.743339 
L 243.88987 268.642733 
L 244.703541 262.880316 
L 245.517211 268.642783 
L 246.330882 264.046411 
L 247.144552 280.818218 
L 247.958223 266.366175 
L 248.771893 275.46344 
L 249.585564 273.944045 
L 250.399234 271.728385 
L 251.212905 275.251895 
L 252.026576 267.364401 
L 252.840246 282.041437 
L 253.653917 268.015544 
L 254.467587 277.010358 
L 255.281258 269.79697 
L 256.094928 271.560904 
L 256.908599 278.217524 
L 257.722269 269.879396 
L 258.53594 267.237575 
L 259.34961 263.134434 
L 260.976951 276.369818 
L 261.790622 271.692041 
L 262.604293 269.116846 
L 263.417963 253.271999 
L 264.231634 265.541676 
L 265.045304 268.54067 
L 265.858975 260.13984 
L 266.672645 277.271801 
L 267.486316 257.309699 
L 268.299986 277.881958 
L 269.113657 264.075154 
L 269.927327 261.010653 
L 270.740998 268.501976 
L 271.554668 269.904951 
L 272.368339 256.366109 
L 273.18201 274.723589 
L 273.99568 276.46093 
L 274.809351 271.265955 
L 275.623021 272.700527 
L 277.250362 272.347132 
L 278.064033 262.835295 
L 278.877703 281.421937 
L 279.691374 275.680248 
L 280.505044 265.851367 
L 281.318715 262.396392 
L 282.132386 272.555486 
L 282.946056 271.057404 
L 283.759727 266.150881 
L 284.573397 269.988366 
L 285.387068 258.098962 
L 286.200738 269.113604 
L 287.014409 270.998901 
L 287.828079 273.813727 
L 288.64175 269.067332 
L 289.45542 258.468157 
L 290.269091 282.937312 
L 291.082761 268.534947 
L 291.896432 274.642747 
L 292.710103 276.312951 
L 293.523773 274.280584 
L 294.337444 274.637006 
L 295.151114 278.453322 
L 295.964785 268.856041 
L 296.778455 267.959865 
L 297.592126 272.343749 
L 298.405796 266.457867 
L 299.219467 277.353692 
L 300.033137 271.810633 
L 300.846808 268.660908 
L 301.660478 278.880682 
L 302.474149 274.629544 
L 303.28782 274.747115 
L 304.10149 272.104093 
L 304.915161 267.670493 
L 305.728831 273.142619 
L 306.542502 277.363874 
L 307.356172 272.5641 
L 308.169843 281.237603 
L 308.983513 278.44396 
L 309.797184 274.870562 
L 310.610854 267.989746 
L 311.424525 263.343966 
L 312.238195 276.506537 
L 313.051866 287.101902 
L 313.865537 279.981101 
L 314.679207 264.943185 
L 315.492878 275.23727 
L 316.306548 262.728563 
L 317.120219 266.922261 
L 317.933889 278.652389 
L 318.74756 282.684321 
L 320.374901 277.121247 
L 322.002242 273.08131 
L 322.815913 276.536064 
L 323.629583 279.143501 
L 324.443254 291.284555 
L 325.256924 281.370285 
L 326.070595 282.457227 
L 326.884265 271.067373 
L 327.697936 275.734792 
L 328.511606 282.070494 
L 329.325277 272.09246 
L 330.138947 274.735633 
L 330.952618 278.610143 
L 331.766288 280.635718 
L 332.579959 283.986818 
L 333.39363 276.109845 
L 334.2073 281.3256 
L 335.020971 275.067158 
L 335.834641 276.535018 
L 336.648312 273.142355 
L 337.461982 267.774291 
L 338.275653 284.996152 
L 339.089323 287.503185 
L 339.902994 286.829001 
L 340.716664 279.95982 
L 341.530335 278.276319 
L 342.344005 272.328524 
L 343.157676 275.739772 
L 343.971347 285.40301 
L 344.785017 271.746168 
L 345.598688 279.336262 
L 346.412358 266.086073 
L 347.226029 275.141421 
L 348.039699 282.891201 
L 348.85337 279.160306 
L 349.66704 268.695494 
L 350.480711 282.290339 
L 351.294381 276.414997 
L 352.108052 289.670027 
L 352.921722 283.001791 
L 353.735393 262.493789 
L 354.549064 282.608403 
L 355.362734 279.797544 
L 356.176405 280.790285 
L 356.990075 277.942968 
L 357.803746 280.919846 
L 358.617416 280.457823 
L 359.431087 278.667509 
L 360.244757 278.645337 
L 361.058428 268.886468 
L 361.872098 277.409009 
L 362.685769 280.145222 
L 363.49944 280.518068 
L 364.31311 277.839319 
L 365.126781 280.248556 
L 365.940451 283.2067 
L 366.754122 261.072401 
L 368.381463 282.50612 
L 369.195133 275.239831 
L 370.008804 282.490411 
L 370.822474 276.416027 
L 371.636145 277.419844 
L 372.449815 262.149412 
L 373.263486 278.839414 
L 374.077157 279.334948 
L 374.890827 287.649657 
L 375.704498 284.604105 
L 376.518168 283.192295 
L 377.331839 276.842104 
L 378.145509 275.845156 
L 378.95918 280.023274 
L 379.77285 274.674005 
L 380.586521 276.38511 
L 381.400191 282.661472 
L 382.213862 283.818511 
L 383.027532 275.24004 
L 383.841203 271.692378 
L 384.654874 278.030818 
L 385.468544 280.544652 
L 386.282215 279.175443 
L 387.095885 289.961771 
L 387.909556 277.5113 
L 388.723226 279.137527 
L 389.536897 292.844482 
L 390.350567 295.488 
L 391.164238 276.925791 
L 391.977908 282.511676 
L 392.791579 274.614181 
L 393.605249 274.027 
L 394.41892 280.712881 
L 395.232591 281.728654 
L 396.046261 274.63642 
L 396.859932 282.785335 
L 397.673602 276.188784 
L 398.487273 280.145021 
L 398.487273 280.145021 
" style="fill:none;stroke:#1f77b4;stroke-linecap:square;stroke-width:1.5;"/>
   </g>
   <g id="line2d_17">
    <path clip-path="url(#p25c37344f4)" d="M 73.832727 61.953951 
L 74.646398 122.970011 
L 75.460068 142.389485 
L 76.273739 136.080989 
L 77.087409 148.860412 
L 77.90108 147.898638 
L 78.714751 151.49786 
L 79.528421 162.61623 
L 80.342092 177.841512 
L 81.155762 178.727976 
L 81.969433 172.660996 
L 82.783103 165.352617 
L 83.596774 183.294883 
L 84.410444 196.041216 
L 85.224115 194.5622 
L 86.037785 195.480999 
L 86.851456 202.24322 
L 87.665126 198.002373 
L 88.478797 202.827408 
L 89.292468 208.84139 
L 90.106138 206.256026 
L 90.919809 209.233959 
L 91.733479 215.978019 
L 92.54715 213.97814 
L 93.36082 222.353845 
L 94.174491 217.576838 
L 94.988161 222.630076 
L 95.801832 219.913389 
L 96.615502 204.896596 
L 97.429173 218.678885 
L 98.242843 225.918812 
L 99.056514 223.588851 
L 99.870185 218.662935 
L 100.683855 225.001144 
L 101.497526 229.269649 
L 102.311196 228.569638 
L 103.124867 233.241697 
L 103.938537 234.967296 
L 104.752208 227.975482 
L 105.565878 217.916592 
L 106.379549 234.456985 
L 107.193219 225.852463 
L 108.00689 235.907226 
L 108.82056 236.635083 
L 109.634231 241.593987 
L 110.447902 231.073733 
L 111.261572 239.530471 
L 112.075243 232.977815 
L 112.888913 239.554485 
L 113.702584 235.410909 
L 114.516254 235.707951 
L 115.329925 230.895498 
L 116.143595 233.766915 
L 116.957266 238.069598 
L 117.770936 234.622046 
L 118.584607 243.170404 
L 120.211948 229.493722 
L 121.025619 244.097888 
L 121.839289 232.566539 
L 122.65296 248.641993 
L 123.46663 248.56948 
L 124.280301 244.489468 
L 125.093971 254.172893 
L 125.907642 249.823106 
L 126.721312 237.810608 
L 127.534983 239.676403 
L 128.348653 248.804806 
L 129.162324 247.212586 
L 129.975995 238.687332 
L 130.789665 251.872489 
L 131.603336 246.967021 
L 132.417006 240.712651 
L 133.230677 240.489845 
L 134.044347 241.909104 
L 134.858018 244.846692 
L 135.671688 237.824725 
L 136.485359 245.006197 
L 137.299029 244.289823 
L 138.1127 242.288589 
L 138.92637 249.661043 
L 139.740041 237.310461 
L 140.553712 241.253701 
L 141.367382 239.111088 
L 142.181053 255.683547 
L 142.994723 258.684157 
L 143.808394 238.320758 
L 144.622064 239.467838 
L 145.435735 243.190266 
L 146.249405 255.905098 
L 147.063076 255.588816 
L 147.876746 247.887172 
L 148.690417 246.989443 
L 149.504087 250.571761 
L 150.317758 236.750741 
L 151.131429 250.155857 
L 151.945099 250.283606 
L 153.57244 232.231437 
L 154.386111 245.579754 
L 155.199781 244.506649 
L 156.013452 250.129887 
L 156.827122 247.70285 
L 157.640793 245.697986 
L 158.454463 241.371813 
L 159.268134 241.992358 
L 160.081805 248.283517 
L 160.895475 244.783142 
L 161.709146 246.421193 
L 162.522816 257.770824 
L 163.336487 248.170529 
L 164.150157 248.668964 
L 164.963828 243.202948 
L 165.777498 254.828903 
L 166.591169 258.164918 
L 167.404839 255.380231 
L 168.21851 251.629728 
L 169.03218 248.501951 
L 169.845851 241.382634 
L 170.659522 256.106863 
L 171.473192 248.576756 
L 172.286863 264.522232 
L 173.100533 254.154052 
L 173.914204 250.988248 
L 174.727874 255.206517 
L 175.541545 249.478999 
L 176.355215 263.472804 
L 177.168886 259.580299 
L 177.982556 250.789529 
L 178.796227 248.959129 
L 179.609897 259.761085 
L 180.423568 259.415009 
L 181.237239 266.793105 
L 182.86458 249.192091 
L 183.67825 247.510773 
L 184.491921 263.335466 
L 185.305591 249.070704 
L 186.119262 255.867275 
L 186.932932 251.905931 
L 187.746603 258.64599 
L 188.560273 256.290668 
L 189.373944 258.777848 
L 190.187614 255.747398 
L 191.001285 247.609377 
L 191.814956 251.088792 
L 192.628626 244.471231 
L 193.442297 248.980157 
L 194.255967 249.014281 
L 195.069638 258.313604 
L 195.883308 252.277872 
L 196.696979 250.629094 
L 197.510649 272.551648 
L 198.32432 253.626101 
L 199.13799 250.262382 
L 199.951661 253.719063 
L 200.765332 269.107653 
L 201.579002 249.149799 
L 202.392673 260.879872 
L 203.206343 256.632745 
L 204.020014 254.296838 
L 204.833684 259.761805 
L 205.647355 262.141748 
L 206.461025 263.27285 
L 207.274696 259.71719 
L 208.088366 262.528301 
L 208.902037 258.948075 
L 209.715707 242.09018 
L 210.529378 259.455147 
L 211.343049 257.630729 
L 212.156719 262.269837 
L 212.97039 264.102252 
L 213.78406 261.797876 
L 214.597731 253.69965 
L 215.411401 272.243291 
L 216.225072 259.888679 
L 217.852413 256.919742 
L 218.666083 262.467817 
L 219.479754 255.585532 
L 220.293424 253.356999 
L 221.107095 257.343409 
L 221.920766 254.575564 
L 222.734436 258.372255 
L 223.548107 258.826513 
L 224.361777 258.624628 
L 225.175448 264.22705 
L 225.989118 258.037237 
L 226.802789 254.179627 
L 227.616459 265.178767 
L 228.43013 256.526369 
L 229.2438 264.260684 
L 230.057471 255.667525 
L 230.871141 249.002348 
L 231.684812 259.337046 
L 232.498483 256.871999 
L 233.312153 266.100699 
L 234.125824 257.690168 
L 234.939494 256.669779 
L 235.753165 259.69298 
L 236.566835 270.953326 
L 237.380506 264.013506 
L 238.194176 258.960533 
L 239.007847 260.038336 
L 240.635188 258.926956 
L 242.262529 264.426826 
L 243.0762 260.488556 
L 243.88987 268.149154 
L 244.703541 259.892741 
L 245.517211 267.71764 
L 246.330882 262.898714 
L 247.144552 260.770371 
L 247.958223 263.296992 
L 248.771893 262.117299 
L 249.585564 262.707522 
L 250.399234 267.761121 
L 252.026576 267.643929 
L 252.840246 267.828072 
L 253.653917 268.798326 
L 254.467587 258.043387 
L 255.281258 265.743711 
L 256.094928 265.125529 
L 256.908599 257.516818 
L 257.722269 270.868487 
L 258.53594 271.789635 
L 260.163281 256.569446 
L 260.976951 272.467109 
L 261.790622 270.181704 
L 262.604293 275.618248 
L 263.417963 275.772074 
L 264.231634 255.5841 
L 265.045304 272.99544 
L 265.858975 271.795558 
L 266.672645 267.616288 
L 267.486316 266.507445 
L 268.299986 271.677388 
L 269.113657 275.472744 
L 269.927327 266.070017 
L 271.554668 260.654282 
L 272.368339 269.306533 
L 273.18201 266.558542 
L 273.99568 272.857442 
L 274.809351 254.415049 
L 275.623021 282.117398 
L 276.436692 273.649776 
L 277.250362 262.948729 
L 278.064033 275.186186 
L 278.877703 274.819972 
L 279.691374 273.492854 
L 280.505044 277.098297 
L 281.318715 266.404527 
L 282.132386 274.614382 
L 282.946056 270.333269 
L 283.759727 274.984469 
L 284.573397 271.988133 
L 285.387068 261.728802 
L 286.200738 265.603117 
L 287.014409 265.434681 
L 287.828079 276.309388 
L 288.64175 266.249066 
L 289.45542 276.960214 
L 290.269091 283.263845 
L 291.082761 276.659478 
L 291.896432 283.344552 
L 292.710103 282.056103 
L 293.523773 271.955146 
L 294.337444 274.108214 
L 295.151114 274.874935 
L 295.964785 276.109082 
L 296.778455 282.583805 
L 297.592126 275.774079 
L 298.405796 271.33364 
L 299.219467 276.086548 
L 300.033137 284.671376 
L 300.846808 278.386981 
L 301.660478 274.222814 
L 302.474149 267.741186 
L 303.28782 265.754899 
L 304.10149 269.83834 
L 304.915161 267.936029 
L 305.728831 275.131133 
L 306.542502 284.334216 
L 307.356172 282.822238 
L 308.169843 274.238594 
L 308.983513 275.445359 
L 309.797184 267.204838 
L 310.610854 279.291446 
L 311.424525 278.14286 
L 312.238195 269.882876 
L 313.051866 272.599216 
L 313.865537 266.815668 
L 314.679207 271.806595 
L 315.492878 278.934153 
L 316.306548 274.413443 
L 317.120219 271.540674 
L 317.933889 270.381656 
L 318.74756 281.400431 
L 319.56123 268.545187 
L 320.374901 265.778386 
L 321.188571 275.460439 
L 322.002242 270.563933 
L 322.815913 261.6951 
L 323.629583 277.184811 
L 324.443254 272.121145 
L 325.256924 283.7278 
L 326.070595 274.407747 
L 326.884265 282.999372 
L 327.697936 281.901576 
L 328.511606 278.111719 
L 329.325277 276.999664 
L 330.138947 278.347288 
L 330.952618 282.930716 
L 331.766288 264.226866 
L 332.579959 274.181559 
L 333.39363 289.857554 
L 334.2073 283.069495 
L 335.020971 265.611704 
L 335.834641 277.62048 
L 336.648312 270.697303 
L 337.461982 273.767123 
L 338.275653 266.266039 
L 339.089323 266.798757 
L 339.902994 275.759509 
L 340.716664 279.744167 
L 341.530335 285.213719 
L 342.344005 285.437235 
L 343.157676 285.422635 
L 343.971347 267.628471 
L 344.785017 282.781547 
L 345.598688 293.776862 
L 346.412358 279.767216 
L 347.226029 270.20554 
L 348.039699 274.969659 
L 348.85337 277.835207 
L 349.66704 285.287114 
L 350.480711 277.847493 
L 351.294381 288.5321 
L 352.108052 277.569096 
L 352.921722 275.384846 
L 353.735393 282.008086 
L 354.549064 276.478194 
L 355.362734 276.228479 
L 356.176405 283.696261 
L 356.990075 277.67327 
L 357.803746 280.867451 
L 358.617416 280.893464 
L 359.431087 270.99971 
L 360.244757 283.81188 
L 361.058428 272.847484 
L 361.872098 283.764952 
L 362.685769 277.223585 
L 363.49944 281.03284 
L 364.31311 283.087957 
L 365.126781 268.342726 
L 365.940451 284.606205 
L 366.754122 274.743627 
L 367.567792 271.114046 
L 368.381463 270.371002 
L 369.195133 279.466911 
L 370.008804 278.751083 
L 370.822474 279.02247 
L 371.636145 278.659666 
L 372.449815 266.516112 
L 373.263486 264.228659 
L 374.077157 277.032217 
L 374.890827 275.026862 
L 375.704498 280.218243 
L 376.518168 287.738952 
L 377.331839 275.138476 
L 378.145509 276.563339 
L 378.95918 266.798714 
L 379.77285 283.5506 
L 381.400191 274.62952 
L 382.213862 291.195542 
L 383.027532 284.137277 
L 383.841203 271.70899 
L 384.654874 275.585186 
L 385.468544 278.213078 
L 386.282215 283.745969 
L 387.095885 269.308297 
L 387.909556 260.183552 
L 388.723226 276.440896 
L 389.536897 271.430301 
L 390.350567 271.703151 
L 391.164238 289.460154 
L 391.977908 274.116028 
L 392.791579 269.2891 
L 393.605249 271.824578 
L 394.41892 277.363947 
L 395.232591 278.298804 
L 396.046261 274.56285 
L 396.859932 262.50409 
L 397.673602 265.098412 
L 398.487273 268.888251 
L 398.487273 268.888251 
" style="fill:none;stroke:#ff7f0e;stroke-linecap:square;stroke-width:1.5;"/>
   </g>
   <g id="patch_3">
    <path d="M 57.6 307.584 
L 57.6 41.472 
" style="fill:none;stroke:#000000;stroke-linecap:square;stroke-linejoin:miter;stroke-width:0.8;"/>
   </g>
   <g id="patch_4">
    <path d="M 414.72 307.584 
L 414.72 41.472 
" style="fill:none;stroke:#000000;stroke-linecap:square;stroke-linejoin:miter;stroke-width:0.8;"/>
   </g>
   <g id="patch_5">
    <path d="M 57.6 307.584 
L 414.72 307.584 
" style="fill:none;stroke:#000000;stroke-linecap:square;stroke-linejoin:miter;stroke-width:0.8;"/>
   </g>
   <g id="patch_6">
    <path d="M 57.6 41.472 
L 414.72 41.472 
" style="fill:none;stroke:#000000;stroke-linecap:square;stroke-linejoin:miter;stroke-width:0.8;"/>
   </g>
   <g id="legend_1">
    <g id="patch_7">
     <path d="M 281.854375 78.82825 
L 407.72 78.82825 
Q 409.72 78.82825 409.72 76.82825 
L 409.72 48.472 
Q 409.72 46.472 407.72 46.472 
L 281.854375 46.472 
Q 279.854375 46.472 279.854375 48.472 
L 279.854375 76.82825 
Q 279.854375 78.82825 281.854375 78.82825 
z
" style="fill:#ffffff;opacity:0.8;stroke:#cccccc;stroke-linejoin:miter;"/>
    </g>
    <g id="line2d_18">
     <path d="M 283.854375 54.570437 
L 303.854375 54.570437 
" style="fill:none;stroke:#1f77b4;stroke-linecap:square;stroke-width:1.5;"/>
    </g>
    <g id="line2d_19"/>
    <g id="text_18">
     <!-- Without GradNorm -->
     <g transform="translate(311.854375 58.070437)scale(0.1 -0.1)">
      <defs>
       <path d="M 213 4666 
L 850 4666 
L 1831 722 
L 2809 4666 
L 3519 4666 
L 4500 722 
L 5478 4666 
L 6119 4666 
L 4947 0 
L 4153 0 
L 3169 4050 
L 2175 0 
L 1381 0 
L 213 4666 
z
" id="DejaVuSans-57" transform="scale(0.015625)"/>
       <path d="M 603 3500 
L 1178 3500 
L 1178 0 
L 603 0 
L 603 3500 
z
M 603 4863 
L 1178 4863 
L 1178 4134 
L 603 4134 
L 603 4863 
z
" id="DejaVuSans-69" transform="scale(0.015625)"/>
       <path d="M 1172 4494 
L 1172 3500 
L 2356 3500 
L 2356 3053 
L 1172 3053 
L 1172 1153 
Q 1172 725 1289 603 
Q 1406 481 1766 481 
L 2356 481 
L 2356 0 
L 1766 0 
Q 1100 0 847 248 
Q 594 497 594 1153 
L 594 3053 
L 172 3053 
L 172 3500 
L 594 3500 
L 594 4494 
L 1172 4494 
z
" id="DejaVuSans-74" transform="scale(0.015625)"/>
       <path d="M 544 1381 
L 544 3500 
L 1119 3500 
L 1119 1403 
Q 1119 906 1312 657 
Q 1506 409 1894 409 
Q 2359 409 2629 706 
Q 2900 1003 2900 1516 
L 2900 3500 
L 3475 3500 
L 3475 0 
L 2900 0 
L 2900 538 
Q 2691 219 2414 64 
Q 2138 -91 1772 -91 
Q 1169 -91 856 284 
Q 544 659 544 1381 
z
M 1991 3584 
L 1991 3584 
z
" id="DejaVuSans-75" transform="scale(0.015625)"/>
       <path id="DejaVuSans-20" transform="scale(0.015625)"/>
       <path d="M 3809 666 
L 3809 1919 
L 2778 1919 
L 2778 2438 
L 4434 2438 
L 4434 434 
Q 4069 175 3628 42 
Q 3188 -91 2688 -91 
Q 1594 -91 976 548 
Q 359 1188 359 2328 
Q 359 3472 976 4111 
Q 1594 4750 2688 4750 
Q 3144 4750 3555 4637 
Q 3966 4525 4313 4306 
L 4313 3634 
Q 3963 3931 3569 4081 
Q 3175 4231 2741 4231 
Q 1884 4231 1454 3753 
Q 1025 3275 1025 2328 
Q 1025 1384 1454 906 
Q 1884 428 2741 428 
Q 3075 428 3337 486 
Q 3600 544 3809 666 
z
" id="DejaVuSans-47" transform="scale(0.015625)"/>
       <path d="M 2631 2963 
Q 2534 3019 2420 3045 
Q 2306 3072 2169 3072 
Q 1681 3072 1420 2755 
Q 1159 2438 1159 1844 
L 1159 0 
L 581 0 
L 581 3500 
L 1159 3500 
L 1159 2956 
Q 1341 3275 1631 3429 
Q 1922 3584 2338 3584 
Q 2397 3584 2469 3576 
Q 2541 3569 2628 3553 
L 2631 2963 
z
" id="DejaVuSans-72" transform="scale(0.015625)"/>
       <path d="M 2194 1759 
Q 1497 1759 1228 1600 
Q 959 1441 959 1056 
Q 959 750 1161 570 
Q 1363 391 1709 391 
Q 2188 391 2477 730 
Q 2766 1069 2766 1631 
L 2766 1759 
L 2194 1759 
z
M 3341 1997 
L 3341 0 
L 2766 0 
L 2766 531 
Q 2569 213 2275 61 
Q 1981 -91 1556 -91 
Q 1019 -91 701 211 
Q 384 513 384 1019 
Q 384 1609 779 1909 
Q 1175 2209 1959 2209 
L 2766 2209 
L 2766 2266 
Q 2766 2663 2505 2880 
Q 2244 3097 1772 3097 
Q 1472 3097 1187 3025 
Q 903 2953 641 2809 
L 641 3341 
Q 956 3463 1253 3523 
Q 1550 3584 1831 3584 
Q 2591 3584 2966 3190 
Q 3341 2797 3341 1997 
z
" id="DejaVuSans-61" transform="scale(0.015625)"/>
       <path d="M 2906 2969 
L 2906 4863 
L 3481 4863 
L 3481 0 
L 2906 0 
L 2906 525 
Q 2725 213 2448 61 
Q 2172 -91 1784 -91 
Q 1150 -91 751 415 
Q 353 922 353 1747 
Q 353 2572 751 3078 
Q 1150 3584 1784 3584 
Q 2172 3584 2448 3432 
Q 2725 3281 2906 2969 
z
M 947 1747 
Q 947 1113 1208 752 
Q 1469 391 1925 391 
Q 2381 391 2643 752 
Q 2906 1113 2906 1747 
Q 2906 2381 2643 2742 
Q 2381 3103 1925 3103 
Q 1469 3103 1208 2742 
Q 947 2381 947 1747 
z
" id="DejaVuSans-64" transform="scale(0.015625)"/>
       <path d="M 628 4666 
L 1478 4666 
L 3547 763 
L 3547 4666 
L 4159 4666 
L 4159 0 
L 3309 0 
L 1241 3903 
L 1241 0 
L 628 0 
L 628 4666 
z
" id="DejaVuSans-4e" transform="scale(0.015625)"/>
       <path d="M 3328 2828 
Q 3544 3216 3844 3400 
Q 4144 3584 4550 3584 
Q 5097 3584 5394 3201 
Q 5691 2819 5691 2113 
L 5691 0 
L 5113 0 
L 5113 2094 
Q 5113 2597 4934 2840 
Q 4756 3084 4391 3084 
Q 3944 3084 3684 2787 
Q 3425 2491 3425 1978 
L 3425 0 
L 2847 0 
L 2847 2094 
Q 2847 2600 2669 2842 
Q 2491 3084 2119 3084 
Q 1678 3084 1418 2786 
Q 1159 2488 1159 1978 
L 1159 0 
L 581 0 
L 581 3500 
L 1159 3500 
L 1159 2956 
Q 1356 3278 1631 3431 
Q 1906 3584 2284 3584 
Q 2666 3584 2933 3390 
Q 3200 3197 3328 2828 
z
" id="DejaVuSans-6d" transform="scale(0.015625)"/>
      </defs>
      <use xlink:href="#DejaVuSans-57"/>
      <use x="96.626953" xlink:href="#DejaVuSans-69"/>
      <use x="124.410156" xlink:href="#DejaVuSans-74"/>
      <use x="163.619141" xlink:href="#DejaVuSans-68"/>
      <use x="226.998047" xlink:href="#DejaVuSans-6f"/>
      <use x="288.179688" xlink:href="#DejaVuSans-75"/>
      <use x="351.558594" xlink:href="#DejaVuSans-74"/>
      <use x="390.767578" xlink:href="#DejaVuSans-20"/>
      <use x="422.554688" xlink:href="#DejaVuSans-47"/>
      <use x="500.044922" xlink:href="#DejaVuSans-72"/>
      <use x="541.158203" xlink:href="#DejaVuSans-61"/>
      <use x="602.4375" xlink:href="#DejaVuSans-64"/>
      <use x="665.914062" xlink:href="#DejaVuSans-4e"/>
      <use x="740.71875" xlink:href="#DejaVuSans-6f"/>
      <use x="801.900391" xlink:href="#DejaVuSans-72"/>
      <use x="841.263672" xlink:href="#DejaVuSans-6d"/>
     </g>
    </g>
    <g id="line2d_20">
     <path d="M 283.854375 69.248562 
L 303.854375 69.248562 
" style="fill:none;stroke:#ff7f0e;stroke-linecap:square;stroke-width:1.5;"/>
    </g>
    <g id="line2d_21"/>
    <g id="text_19">
     <!-- With GradNorm -->
     <g transform="translate(311.854375 72.748562)scale(0.1 -0.1)">
      <use xlink:href="#DejaVuSans-57"/>
      <use x="96.626953" xlink:href="#DejaVuSans-69"/>
      <use x="124.410156" xlink:href="#DejaVuSans-74"/>
      <use x="163.619141" xlink:href="#DejaVuSans-68"/>
      <use x="226.998047" xlink:href="#DejaVuSans-20"/>
      <use x="258.785156" xlink:href="#DejaVuSans-47"/>
      <use x="336.275391" xlink:href="#DejaVuSans-72"/>
      <use x="377.388672" xlink:href="#DejaVuSans-61"/>
      <use x="438.667969" xlink:href="#DejaVuSans-64"/>
      <use x="502.144531" xlink:href="#DejaVuSans-4e"/>
      <use x="576.949219" xlink:href="#DejaVuSans-6f"/>
      <use x="638.130859" xlink:href="#DejaVuSans-72"/>
      <use x="677.494141" xlink:href="#DejaVuSans-6d"/>
     </g>
    </g>
   </g>
  </g>
 </g>
 <defs>
  <clipPath id="p25c37344f4">
   <rect height="266.112" width="357.12" x="57.6" y="41.472"/>
  </clipPath>
 </defs>
</svg>
