<?xml version="1.0" encoding="utf-8" standalone="no"?>
<!DOCTYPE svg PUBLIC "-//W3C//DTD SVG 1.1//EN"
  "http://www.w3.org/Graphics/SVG/1.1/DTD/svg11.dtd">
<svg height="345.6pt" version="1.1" viewBox="0 0 460.8 345.6" width="460.8pt" xmlns="http://www.w3.org/2000/svg" xmlns:xlink="http://www.w3.org/1999/xlink">
 <metadata>
  <rdf:RDF xmlns:cc="http://creativecommons.org/ns#" xmlns:dc="http://purl.org/dc/elements/1.1/" xmlns:rdf="http://www.w3.org/1999/02/22-rdf-syntax-ns#">
   <cc:Work>
    <dc:type rdf:resource="http://purl.org/dc/dcmitype/StillImage"/>
    <dc:date>2021-07-16T12:00:28.943739</dc:date>
    <dc:format>image/svg+xml</dc:format>
    <dc:creator>
     <cc:Agent>
      <dc:title>Matplotlib v3.4.1, https://matplotlib.org/</dc:title>
     </cc:Agent>
    </dc:creator>
   </cc:Work>
  </rdf:RDF>
 </metadata>
 <defs>
  <style type="text/css">*{stroke-linecap:butt;stroke-linejoin:round;}</style>
 </defs>
 <g id="figure_1">
  <g id="patch_1">
   <path d="M 0 345.6 
L 460.8 345.6 
L 460.8 0 
L 0 0 
z
" style="fill:#ffffff;"/>
  </g>
  <g id="axes_1">
   <g id="patch_2">
    <path d="M 57.6 307.584 
L 414.72 307.584 
L 414.72 41.472 
L 57.6 41.472 
z
" style="fill:#ffffff;"/>
   </g>
   <g id="matplotlib.axis_1">
    <g id="xtick_1">
     <g id="line2d_1">
      <defs>
       <path d="M 0 0 
L 0 3.5 
" id="m4dff10fdd9" style="stroke:#000000;stroke-width:0.8;"/>
      </defs>
      <g>
       <use style="stroke:#000000;stroke-width:0.8;" x="73.019057" xlink:href="#m4dff10fdd9" y="307.584"/>
      </g>
     </g>
     <g id="text_1">
      <!-- 0 -->
      <g transform="translate(69.837807 322.182437)scale(0.1 -0.1)">
       <defs>
        <path d="M 2034 4250 
Q 1547 4250 1301 3770 
Q 1056 3291 1056 2328 
Q 1056 1369 1301 889 
Q 1547 409 2034 409 
Q 2525 409 2770 889 
Q 3016 1369 3016 2328 
Q 3016 3291 2770 3770 
Q 2525 4250 2034 4250 
z
M 2034 4750 
Q 2819 4750 3233 4129 
Q 3647 3509 3647 2328 
Q 3647 1150 3233 529 
Q 2819 -91 2034 -91 
Q 1250 -91 836 529 
Q 422 1150 422 2328 
Q 422 3509 836 4129 
Q 1250 4750 2034 4750 
z
" id="DejaVuSans-30" transform="scale(0.015625)"/>
       </defs>
       <use xlink:href="#DejaVuSans-30"/>
      </g>
     </g>
    </g>
    <g id="xtick_2">
     <g id="line2d_2">
      <g>
       <use style="stroke:#000000;stroke-width:0.8;" x="113.702584" xlink:href="#m4dff10fdd9" y="307.584"/>
      </g>
     </g>
     <g id="text_2">
      <!-- 50 -->
      <g transform="translate(107.340084 322.182437)scale(0.1 -0.1)">
       <defs>
        <path d="M 691 4666 
L 3169 4666 
L 3169 4134 
L 1269 4134 
L 1269 2991 
Q 1406 3038 1543 3061 
Q 1681 3084 1819 3084 
Q 2600 3084 3056 2656 
Q 3513 2228 3513 1497 
Q 3513 744 3044 326 
Q 2575 -91 1722 -91 
Q 1428 -91 1123 -41 
Q 819 9 494 109 
L 494 744 
Q 775 591 1075 516 
Q 1375 441 1709 441 
Q 2250 441 2565 725 
Q 2881 1009 2881 1497 
Q 2881 1984 2565 2268 
Q 2250 2553 1709 2553 
Q 1456 2553 1204 2497 
Q 953 2441 691 2322 
L 691 4666 
z
" id="DejaVuSans-35" transform="scale(0.015625)"/>
       </defs>
       <use xlink:href="#DejaVuSans-35"/>
       <use x="63.623047" xlink:href="#DejaVuSans-30"/>
      </g>
     </g>
    </g>
    <g id="xtick_3">
     <g id="line2d_3">
      <g>
       <use style="stroke:#000000;stroke-width:0.8;" x="154.386111" xlink:href="#m4dff10fdd9" y="307.584"/>
      </g>
     </g>
     <g id="text_3">
      <!-- 100 -->
      <g transform="translate(144.842361 322.182437)scale(0.1 -0.1)">
       <defs>
        <path d="M 794 531 
L 1825 531 
L 1825 4091 
L 703 3866 
L 703 4441 
L 1819 4666 
L 2450 4666 
L 2450 531 
L 3481 531 
L 3481 0 
L 794 0 
L 794 531 
z
" id="DejaVuSans-31" transform="scale(0.015625)"/>
       </defs>
       <use xlink:href="#DejaVuSans-31"/>
       <use x="63.623047" xlink:href="#DejaVuSans-30"/>
       <use x="127.246094" xlink:href="#DejaVuSans-30"/>
      </g>
     </g>
    </g>
    <g id="xtick_4">
     <g id="line2d_4">
      <g>
       <use style="stroke:#000000;stroke-width:0.8;" x="195.069638" xlink:href="#m4dff10fdd9" y="307.584"/>
      </g>
     </g>
     <g id="text_4">
      <!-- 150 -->
      <g transform="translate(185.525888 322.182437)scale(0.1 -0.1)">
       <use xlink:href="#DejaVuSans-31"/>
       <use x="63.623047" xlink:href="#DejaVuSans-35"/>
       <use x="127.246094" xlink:href="#DejaVuSans-30"/>
      </g>
     </g>
    </g>
    <g id="xtick_5">
     <g id="line2d_5">
      <g>
       <use style="stroke:#000000;stroke-width:0.8;" x="235.753165" xlink:href="#m4dff10fdd9" y="307.584"/>
      </g>
     </g>
     <g id="text_5">
      <!-- 200 -->
      <g transform="translate(226.209415 322.182437)scale(0.1 -0.1)">
       <defs>
        <path d="M 1228 531 
L 3431 531 
L 3431 0 
L 469 0 
L 469 531 
Q 828 903 1448 1529 
Q 2069 2156 2228 2338 
Q 2531 2678 2651 2914 
Q 2772 3150 2772 3378 
Q 2772 3750 2511 3984 
Q 2250 4219 1831 4219 
Q 1534 4219 1204 4116 
Q 875 4013 500 3803 
L 500 4441 
Q 881 4594 1212 4672 
Q 1544 4750 1819 4750 
Q 2544 4750 2975 4387 
Q 3406 4025 3406 3419 
Q 3406 3131 3298 2873 
Q 3191 2616 2906 2266 
Q 2828 2175 2409 1742 
Q 1991 1309 1228 531 
z
" id="DejaVuSans-32" transform="scale(0.015625)"/>
       </defs>
       <use xlink:href="#DejaVuSans-32"/>
       <use x="63.623047" xlink:href="#DejaVuSans-30"/>
       <use x="127.246094" xlink:href="#DejaVuSans-30"/>
      </g>
     </g>
    </g>
    <g id="xtick_6">
     <g id="line2d_6">
      <g>
       <use style="stroke:#000000;stroke-width:0.8;" x="276.436692" xlink:href="#m4dff10fdd9" y="307.584"/>
      </g>
     </g>
     <g id="text_6">
      <!-- 250 -->
      <g transform="translate(266.892942 322.182437)scale(0.1 -0.1)">
       <use xlink:href="#DejaVuSans-32"/>
       <use x="63.623047" xlink:href="#DejaVuSans-35"/>
       <use x="127.246094" xlink:href="#DejaVuSans-30"/>
      </g>
     </g>
    </g>
    <g id="xtick_7">
     <g id="line2d_7">
      <g>
       <use style="stroke:#000000;stroke-width:0.8;" x="317.120219" xlink:href="#m4dff10fdd9" y="307.584"/>
      </g>
     </g>
     <g id="text_7">
      <!-- 300 -->
      <g transform="translate(307.576469 322.182437)scale(0.1 -0.1)">
       <defs>
        <path d="M 2597 2516 
Q 3050 2419 3304 2112 
Q 3559 1806 3559 1356 
Q 3559 666 3084 287 
Q 2609 -91 1734 -91 
Q 1441 -91 1130 -33 
Q 819 25 488 141 
L 488 750 
Q 750 597 1062 519 
Q 1375 441 1716 441 
Q 2309 441 2620 675 
Q 2931 909 2931 1356 
Q 2931 1769 2642 2001 
Q 2353 2234 1838 2234 
L 1294 2234 
L 1294 2753 
L 1863 2753 
Q 2328 2753 2575 2939 
Q 2822 3125 2822 3475 
Q 2822 3834 2567 4026 
Q 2313 4219 1838 4219 
Q 1578 4219 1281 4162 
Q 984 4106 628 3988 
L 628 4550 
Q 988 4650 1302 4700 
Q 1616 4750 1894 4750 
Q 2613 4750 3031 4423 
Q 3450 4097 3450 3541 
Q 3450 3153 3228 2886 
Q 3006 2619 2597 2516 
z
" id="DejaVuSans-33" transform="scale(0.015625)"/>
       </defs>
       <use xlink:href="#DejaVuSans-33"/>
       <use x="63.623047" xlink:href="#DejaVuSans-30"/>
       <use x="127.246094" xlink:href="#DejaVuSans-30"/>
      </g>
     </g>
    </g>
    <g id="xtick_8">
     <g id="line2d_8">
      <g>
       <use style="stroke:#000000;stroke-width:0.8;" x="357.803746" xlink:href="#m4dff10fdd9" y="307.584"/>
      </g>
     </g>
     <g id="text_8">
      <!-- 350 -->
      <g transform="translate(348.259996 322.182437)scale(0.1 -0.1)">
       <use xlink:href="#DejaVuSans-33"/>
       <use x="63.623047" xlink:href="#DejaVuSans-35"/>
       <use x="127.246094" xlink:href="#DejaVuSans-30"/>
      </g>
     </g>
    </g>
    <g id="xtick_9">
     <g id="line2d_9">
      <g>
       <use style="stroke:#000000;stroke-width:0.8;" x="398.487273" xlink:href="#m4dff10fdd9" y="307.584"/>
      </g>
     </g>
     <g id="text_9">
      <!-- 400 -->
      <g transform="translate(388.943523 322.182437)scale(0.1 -0.1)">
       <defs>
        <path d="M 2419 4116 
L 825 1625 
L 2419 1625 
L 2419 4116 
z
M 2253 4666 
L 3047 4666 
L 3047 1625 
L 3713 1625 
L 3713 1100 
L 3047 1100 
L 3047 0 
L 2419 0 
L 2419 1100 
L 313 1100 
L 313 1709 
L 2253 4666 
z
" id="DejaVuSans-34" transform="scale(0.015625)"/>
       </defs>
       <use xlink:href="#DejaVuSans-34"/>
       <use x="63.623047" xlink:href="#DejaVuSans-30"/>
       <use x="127.246094" xlink:href="#DejaVuSans-30"/>
      </g>
     </g>
    </g>
    <g id="text_10">
     <!-- Epoch -->
     <g transform="translate(213.193594 339.659781)scale(0.15 -0.15)">
      <defs>
       <path d="M 628 4666 
L 3578 4666 
L 3578 4134 
L 1259 4134 
L 1259 2753 
L 3481 2753 
L 3481 2222 
L 1259 2222 
L 1259 531 
L 3634 531 
L 3634 0 
L 628 0 
L 628 4666 
z
" id="DejaVuSans-45" transform="scale(0.015625)"/>
       <path d="M 1159 525 
L 1159 -1331 
L 581 -1331 
L 581 3500 
L 1159 3500 
L 1159 2969 
Q 1341 3281 1617 3432 
Q 1894 3584 2278 3584 
Q 2916 3584 3314 3078 
Q 3713 2572 3713 1747 
Q 3713 922 3314 415 
Q 2916 -91 2278 -91 
Q 1894 -91 1617 61 
Q 1341 213 1159 525 
z
M 3116 1747 
Q 3116 2381 2855 2742 
Q 2594 3103 2138 3103 
Q 1681 3103 1420 2742 
Q 1159 2381 1159 1747 
Q 1159 1113 1420 752 
Q 1681 391 2138 391 
Q 2594 391 2855 752 
Q 3116 1113 3116 1747 
z
" id="DejaVuSans-70" transform="scale(0.015625)"/>
       <path d="M 1959 3097 
Q 1497 3097 1228 2736 
Q 959 2375 959 1747 
Q 959 1119 1226 758 
Q 1494 397 1959 397 
Q 2419 397 2687 759 
Q 2956 1122 2956 1747 
Q 2956 2369 2687 2733 
Q 2419 3097 1959 3097 
z
M 1959 3584 
Q 2709 3584 3137 3096 
Q 3566 2609 3566 1747 
Q 3566 888 3137 398 
Q 2709 -91 1959 -91 
Q 1206 -91 779 398 
Q 353 888 353 1747 
Q 353 2609 779 3096 
Q 1206 3584 1959 3584 
z
" id="DejaVuSans-6f" transform="scale(0.015625)"/>
       <path d="M 3122 3366 
L 3122 2828 
Q 2878 2963 2633 3030 
Q 2388 3097 2138 3097 
Q 1578 3097 1268 2742 
Q 959 2388 959 1747 
Q 959 1106 1268 751 
Q 1578 397 2138 397 
Q 2388 397 2633 464 
Q 2878 531 3122 666 
L 3122 134 
Q 2881 22 2623 -34 
Q 2366 -91 2075 -91 
Q 1284 -91 818 406 
Q 353 903 353 1747 
Q 353 2603 823 3093 
Q 1294 3584 2113 3584 
Q 2378 3584 2631 3529 
Q 2884 3475 3122 3366 
z
" id="DejaVuSans-63" transform="scale(0.015625)"/>
       <path d="M 3513 2113 
L 3513 0 
L 2938 0 
L 2938 2094 
Q 2938 2591 2744 2837 
Q 2550 3084 2163 3084 
Q 1697 3084 1428 2787 
Q 1159 2491 1159 1978 
L 1159 0 
L 581 0 
L 581 4863 
L 1159 4863 
L 1159 2956 
Q 1366 3272 1645 3428 
Q 1925 3584 2291 3584 
Q 2894 3584 3203 3211 
Q 3513 2838 3513 2113 
z
" id="DejaVuSans-68" transform="scale(0.015625)"/>
      </defs>
      <use xlink:href="#DejaVuSans-45"/>
      <use x="63.183594" xlink:href="#DejaVuSans-70"/>
      <use x="126.660156" xlink:href="#DejaVuSans-6f"/>
      <use x="187.841797" xlink:href="#DejaVuSans-63"/>
      <use x="242.822266" xlink:href="#DejaVuSans-68"/>
     </g>
    </g>
   </g>
   <g id="matplotlib.axis_2">
    <g id="ytick_1">
     <g id="line2d_10">
      <defs>
       <path d="M 0 0 
L -3.5 0 
" id="mf2247e9280" style="stroke:#000000;stroke-width:0.8;"/>
      </defs>
      <g>
       <use style="stroke:#000000;stroke-width:0.8;" x="57.6" xlink:href="#mf2247e9280" y="307.584"/>
      </g>
     </g>
     <g id="text_11">
      <!-- 0.0 -->
      <g transform="translate(34.696875 311.383219)scale(0.1 -0.1)">
       <defs>
        <path d="M 684 794 
L 1344 794 
L 1344 0 
L 684 0 
L 684 794 
z
" id="DejaVuSans-2e" transform="scale(0.015625)"/>
       </defs>
       <use xlink:href="#DejaVuSans-30"/>
       <use x="63.623047" xlink:href="#DejaVuSans-2e"/>
       <use x="95.410156" xlink:href="#DejaVuSans-30"/>
      </g>
     </g>
    </g>
    <g id="ytick_2">
     <g id="line2d_11">
      <g>
       <use style="stroke:#000000;stroke-width:0.8;" x="57.6" xlink:href="#mf2247e9280" y="254.3616"/>
      </g>
     </g>
     <g id="text_12">
      <!-- 0.2 -->
      <g transform="translate(34.696875 258.160819)scale(0.1 -0.1)">
       <use xlink:href="#DejaVuSans-30"/>
       <use x="63.623047" xlink:href="#DejaVuSans-2e"/>
       <use x="95.410156" xlink:href="#DejaVuSans-32"/>
      </g>
     </g>
    </g>
    <g id="ytick_3">
     <g id="line2d_12">
      <g>
       <use style="stroke:#000000;stroke-width:0.8;" x="57.6" xlink:href="#mf2247e9280" y="201.1392"/>
      </g>
     </g>
     <g id="text_13">
      <!-- 0.4 -->
      <g transform="translate(34.696875 204.938419)scale(0.1 -0.1)">
       <use xlink:href="#DejaVuSans-30"/>
       <use x="63.623047" xlink:href="#DejaVuSans-2e"/>
       <use x="95.410156" xlink:href="#DejaVuSans-34"/>
      </g>
     </g>
    </g>
    <g id="ytick_4">
     <g id="line2d_13">
      <g>
       <use style="stroke:#000000;stroke-width:0.8;" x="57.6" xlink:href="#mf2247e9280" y="147.9168"/>
      </g>
     </g>
     <g id="text_14">
      <!-- 0.6 -->
      <g transform="translate(34.696875 151.716019)scale(0.1 -0.1)">
       <defs>
        <path d="M 2113 2584 
Q 1688 2584 1439 2293 
Q 1191 2003 1191 1497 
Q 1191 994 1439 701 
Q 1688 409 2113 409 
Q 2538 409 2786 701 
Q 3034 994 3034 1497 
Q 3034 2003 2786 2293 
Q 2538 2584 2113 2584 
z
M 3366 4563 
L 3366 3988 
Q 3128 4100 2886 4159 
Q 2644 4219 2406 4219 
Q 1781 4219 1451 3797 
Q 1122 3375 1075 2522 
Q 1259 2794 1537 2939 
Q 1816 3084 2150 3084 
Q 2853 3084 3261 2657 
Q 3669 2231 3669 1497 
Q 3669 778 3244 343 
Q 2819 -91 2113 -91 
Q 1303 -91 875 529 
Q 447 1150 447 2328 
Q 447 3434 972 4092 
Q 1497 4750 2381 4750 
Q 2619 4750 2861 4703 
Q 3103 4656 3366 4563 
z
" id="DejaVuSans-36" transform="scale(0.015625)"/>
       </defs>
       <use xlink:href="#DejaVuSans-30"/>
       <use x="63.623047" xlink:href="#DejaVuSans-2e"/>
       <use x="95.410156" xlink:href="#DejaVuSans-36"/>
      </g>
     </g>
    </g>
    <g id="ytick_5">
     <g id="line2d_14">
      <g>
       <use style="stroke:#000000;stroke-width:0.8;" x="57.6" xlink:href="#mf2247e9280" y="94.6944"/>
      </g>
     </g>
     <g id="text_15">
      <!-- 0.8 -->
      <g transform="translate(34.696875 98.493619)scale(0.1 -0.1)">
       <defs>
        <path d="M 2034 2216 
Q 1584 2216 1326 1975 
Q 1069 1734 1069 1313 
Q 1069 891 1326 650 
Q 1584 409 2034 409 
Q 2484 409 2743 651 
Q 3003 894 3003 1313 
Q 3003 1734 2745 1975 
Q 2488 2216 2034 2216 
z
M 1403 2484 
Q 997 2584 770 2862 
Q 544 3141 544 3541 
Q 544 4100 942 4425 
Q 1341 4750 2034 4750 
Q 2731 4750 3128 4425 
Q 3525 4100 3525 3541 
Q 3525 3141 3298 2862 
Q 3072 2584 2669 2484 
Q 3125 2378 3379 2068 
Q 3634 1759 3634 1313 
Q 3634 634 3220 271 
Q 2806 -91 2034 -91 
Q 1263 -91 848 271 
Q 434 634 434 1313 
Q 434 1759 690 2068 
Q 947 2378 1403 2484 
z
M 1172 3481 
Q 1172 3119 1398 2916 
Q 1625 2713 2034 2713 
Q 2441 2713 2670 2916 
Q 2900 3119 2900 3481 
Q 2900 3844 2670 4047 
Q 2441 4250 2034 4250 
Q 1625 4250 1398 4047 
Q 1172 3844 1172 3481 
z
" id="DejaVuSans-38" transform="scale(0.015625)"/>
       </defs>
       <use xlink:href="#DejaVuSans-30"/>
       <use x="63.623047" xlink:href="#DejaVuSans-2e"/>
       <use x="95.410156" xlink:href="#DejaVuSans-38"/>
      </g>
     </g>
    </g>
    <g id="ytick_6">
     <g id="line2d_15">
      <g>
       <use style="stroke:#000000;stroke-width:0.8;" x="57.6" xlink:href="#mf2247e9280" y="41.472"/>
      </g>
     </g>
     <g id="text_16">
      <!-- 1.0 -->
      <g transform="translate(34.696875 45.271219)scale(0.1 -0.1)">
       <use xlink:href="#DejaVuSans-31"/>
       <use x="63.623047" xlink:href="#DejaVuSans-2e"/>
       <use x="95.410156" xlink:href="#DejaVuSans-30"/>
      </g>
     </g>
    </g>
    <g id="text_17">
     <!-- Accuracy -->
     <g transform="translate(27.577344 208.770187)rotate(-90)scale(0.15 -0.15)">
      <defs>
       <path d="M 2188 4044 
L 1331 1722 
L 3047 1722 
L 2188 4044 
z
M 1831 4666 
L 2547 4666 
L 4325 0 
L 3669 0 
L 3244 1197 
L 1141 1197 
L 716 0 
L 50 0 
L 1831 4666 
z
" id="DejaVuSans-41" transform="scale(0.015625)"/>
       <path d="M 544 1381 
L 544 3500 
L 1119 3500 
L 1119 1403 
Q 1119 906 1312 657 
Q 1506 409 1894 409 
Q 2359 409 2629 706 
Q 2900 1003 2900 1516 
L 2900 3500 
L 3475 3500 
L 3475 0 
L 2900 0 
L 2900 538 
Q 2691 219 2414 64 
Q 2138 -91 1772 -91 
Q 1169 -91 856 284 
Q 544 659 544 1381 
z
M 1991 3584 
L 1991 3584 
z
" id="DejaVuSans-75" transform="scale(0.015625)"/>
       <path d="M 2631 2963 
Q 2534 3019 2420 3045 
Q 2306 3072 2169 3072 
Q 1681 3072 1420 2755 
Q 1159 2438 1159 1844 
L 1159 0 
L 581 0 
L 581 3500 
L 1159 3500 
L 1159 2956 
Q 1341 3275 1631 3429 
Q 1922 3584 2338 3584 
Q 2397 3584 2469 3576 
Q 2541 3569 2628 3553 
L 2631 2963 
z
" id="DejaVuSans-72" transform="scale(0.015625)"/>
       <path d="M 2194 1759 
Q 1497 1759 1228 1600 
Q 959 1441 959 1056 
Q 959 750 1161 570 
Q 1363 391 1709 391 
Q 2188 391 2477 730 
Q 2766 1069 2766 1631 
L 2766 1759 
L 2194 1759 
z
M 3341 1997 
L 3341 0 
L 2766 0 
L 2766 531 
Q 2569 213 2275 61 
Q 1981 -91 1556 -91 
Q 1019 -91 701 211 
Q 384 513 384 1019 
Q 384 1609 779 1909 
Q 1175 2209 1959 2209 
L 2766 2209 
L 2766 2266 
Q 2766 2663 2505 2880 
Q 2244 3097 1772 3097 
Q 1472 3097 1187 3025 
Q 903 2953 641 2809 
L 641 3341 
Q 956 3463 1253 3523 
Q 1550 3584 1831 3584 
Q 2591 3584 2966 3190 
Q 3341 2797 3341 1997 
z
" id="DejaVuSans-61" transform="scale(0.015625)"/>
       <path d="M 2059 -325 
Q 1816 -950 1584 -1140 
Q 1353 -1331 966 -1331 
L 506 -1331 
L 506 -850 
L 844 -850 
Q 1081 -850 1212 -737 
Q 1344 -625 1503 -206 
L 1606 56 
L 191 3500 
L 800 3500 
L 1894 763 
L 2988 3500 
L 3597 3500 
L 2059 -325 
z
" id="DejaVuSans-79" transform="scale(0.015625)"/>
      </defs>
      <use xlink:href="#DejaVuSans-41"/>
      <use x="66.658203" xlink:href="#DejaVuSans-63"/>
      <use x="121.638672" xlink:href="#DejaVuSans-63"/>
      <use x="176.619141" xlink:href="#DejaVuSans-75"/>
      <use x="239.998047" xlink:href="#DejaVuSans-72"/>
      <use x="281.111328" xlink:href="#DejaVuSans-61"/>
      <use x="342.390625" xlink:href="#DejaVuSans-63"/>
      <use x="397.371094" xlink:href="#DejaVuSans-79"/>
     </g>
    </g>
   </g>
   <g id="line2d_16">
    <path clip-path="url(#p087bba3eaf)" d="M 73.832727 174.498595 
L 74.646398 174.684825 
L 75.460068 175.194505 
L 76.273739 175.302322 
L 77.087409 174.890657 
L 77.90108 174.871054 
L 78.714751 175.243513 
L 79.528421 175.008276 
L 80.342092 175.370933 
L 81.155762 174.204549 
L 81.969433 175.008276 
L 82.783103 174.40058 
L 83.596774 175.145497 
L 84.410444 175.331727 
L 85.224115 173.645861 
L 86.037785 174.135938 
L 86.851456 173.645861 
L 87.665126 174.567206 
L 88.478797 174.733832 
L 89.292468 174.78284 
L 90.106138 174.302564 
L 90.919809 174.331969 
L 92.54715 173.440028 
L 93.36082 173.253799 
L 94.174491 172.891142 
L 94.988161 171.087657 
L 95.801832 170.774008 
L 97.429173 167.245451 
L 98.242843 165.059706 
L 99.056514 165.843829 
L 99.870185 160.286352 
L 100.683855 161.962417 
L 101.497526 160.805834 
L 102.311196 162.854358 
L 103.124867 158.669097 
L 103.938537 159.031754 
L 104.752208 158.512272 
L 107.193219 155.728633 
L 108.00689 157.257674 
L 108.82056 154.8857 
L 109.634231 154.964112 
L 110.447902 152.209878 
L 111.261572 154.18979 
L 112.075243 150.739646 
L 112.888913 148.759733 
L 113.702584 150.945478 
L 114.516254 147.622754 
L 115.329925 151.219921 
L 116.143595 144.946931 
L 116.957266 145.417406 
L 117.770936 146.740614 
L 119.398278 146.299545 
L 120.211948 144.956733 
L 121.025619 145.123359 
L 121.839289 144.652885 
L 123.46663 144.584274 
L 124.280301 142.643568 
L 125.093971 143.966777 
L 125.907642 141.702619 
L 126.721312 143.809952 
L 127.534983 141.800635 
L 128.348653 143.809952 
L 129.162324 143.045431 
L 129.975995 140.957702 
L 130.789665 141.486985 
L 131.603336 139.654096 
L 132.417006 138.801361 
L 133.230677 141.006709 
L 134.858018 140.859686 
L 135.671688 139.693302 
L 136.485359 139.987349 
L 137.299029 139.242431 
L 138.1127 138.840568 
L 138.92637 139.565882 
L 139.740041 138.820964 
L 140.553712 138.850369 
L 141.367382 140.673457 
L 142.181053 140.25199 
L 142.994723 138.330887 
L 143.808394 138.438704 
L 144.622064 138.409299 
L 145.435735 138.899377 
L 146.249405 138.781758 
L 147.063076 138.91898 
L 147.876746 137.135098 
L 148.690417 139.810921 
L 149.504087 141.624207 
L 150.317758 136.89006 
L 151.131429 136.458792 
L 151.945099 137.625176 
L 152.75877 138.203467 
L 153.57244 138.468109 
L 154.386111 136.399982 
L 155.199781 138.213269 
L 156.013452 135.18459 
L 156.827122 137.870214 
L 157.640793 141.026312 
L 158.454463 140.144173 
L 159.268134 137.723191 
L 160.081805 138.438704 
L 160.895475 138.281879 
L 161.709146 137.664382 
L 162.522816 139.61489 
L 163.336487 137.831008 
L 164.150157 137.487954 
L 164.963828 138.673941 
L 165.777498 139.536477 
L 166.591169 141.114526 
L 167.404839 137.948627 
L 168.21851 136.615616 
L 169.03218 141.477184 
L 169.845851 136.635219 
L 170.659522 137.056686 
L 171.473192 136.439189 
L 172.286863 140.575441 
L 173.100533 137.58597 
L 173.914204 138.79156 
L 174.727874 137.52716 
L 175.541545 138.762155 
L 176.355215 139.369851 
L 177.168886 136.390181 
L 177.982556 134.978758 
L 178.796227 138.379895 
L 179.609897 134.919949 
L 180.423568 137.65458 
L 181.237239 137.850611 
L 182.050909 137.448748 
L 182.86458 137.791802 
L 183.67825 137.046884 
L 184.491921 136.458792 
L 185.305591 139.526676 
L 186.119262 139.291439 
L 186.932932 140.212784 
L 187.746603 138.487712 
L 188.560273 135.664866 
L 189.373944 138.399498 
L 190.187614 139.536477 
L 191.001285 139.350248 
L 191.814956 137.674183 
L 192.628626 139.889333 
L 193.442297 139.575684 
L 194.255967 137.429145 
L 195.069638 138.546521 
L 195.883308 136.00792 
L 196.696979 137.752596 
L 198.32432 136.635219 
L 199.13799 140.016753 
L 199.951661 134.449474 
L 200.765332 136.429387 
L 201.579002 137.497756 
L 202.392673 139.203225 
L 203.206343 137.174305 
L 204.020014 139.781516 
L 204.833684 140.212784 
L 205.647355 136.115737 
L 207.274696 139.0464 
L 208.088366 138.526918 
L 208.902037 137.409542 
L 209.715707 137.076289 
L 210.529378 138.154459 
L 211.343049 140.889091 
L 212.156719 138.09565 
L 212.97039 136.184348 
L 213.78406 139.291439 
L 214.597731 138.360292 
L 215.411401 133.557534 
L 216.225072 137.213511 
L 217.038742 139.124812 
L 217.852413 139.193423 
L 218.666083 137.282122 
L 219.479754 136.115737 
L 220.293424 137.644779 
L 221.107095 136.105936 
L 221.920766 136.06673 
L 222.734436 137.448748 
L 223.548107 135.390423 
L 224.361777 137.419343 
L 225.175448 135.831493 
L 225.989118 137.321328 
L 226.802789 135.547248 
L 227.616459 135.49824 
L 228.43013 135.851096 
L 229.2438 138.409299 
L 230.057471 135.606057 
L 230.871141 136.547006 
L 231.684812 136.83125 
L 232.498483 136.380379 
L 233.312153 137.252717 
L 234.125824 135.851096 
L 234.939494 139.17382 
L 235.753165 137.772199 
L 236.566835 137.831008 
L 237.380506 139.536477 
L 238.194176 136.497998 
L 239.007847 139.164019 
L 239.821517 136.056928 
L 240.635188 139.712905 
L 241.448859 135.331614 
L 242.262529 139.791318 
L 243.0762 135.18459 
L 243.88987 137.703588 
L 244.703541 140.938099 
L 245.517211 135.351217 
L 246.330882 137.01748 
L 247.144552 135.361018 
L 247.958223 137.135098 
L 248.771893 134.792529 
L 249.585564 137.321328 
L 250.399234 137.752596 
L 251.212905 138.056444 
L 252.026576 139.928539 
L 252.840246 138.360292 
L 253.653917 139.085606 
L 254.467587 137.448748 
L 255.281258 138.60533 
L 256.094928 136.645021 
L 256.908599 138.703346 
L 258.53594 136.154944 
L 259.34961 139.399256 
L 260.163281 138.66414 
L 260.976951 136.32157 
L 261.790622 136.939067 
L 262.604293 138.066245 
L 263.417963 142.447537 
L 264.231634 137.458549 
L 265.045304 135.851096 
L 265.858975 141.77123 
L 266.672645 138.879774 
L 267.486316 140.751869 
L 268.299986 138.262276 
L 269.113657 138.252475 
L 269.927327 136.527402 
L 270.740998 141.20274 
L 271.554668 142.967019 
L 272.368339 139.752111 
L 273.18201 141.349764 
L 273.99568 140.281395 
L 274.809351 137.634977 
L 275.623021 140.242189 
L 276.436692 139.938341 
L 277.250362 138.115253 
L 278.064033 141.741825 
L 278.877703 137.438946 
L 279.691374 136.635219 
L 280.505044 140.938099 
L 281.318715 139.74231 
L 282.132386 140.859686 
L 282.946056 139.389454 
L 283.759727 140.173578 
L 284.573397 141.496787 
L 285.387068 138.634735 
L 286.200738 137.605573 
L 287.014409 138.860171 
L 288.64175 142.202498 
L 289.45542 142.751385 
L 290.269091 138.232872 
L 291.082761 137.889817 
L 291.896432 138.830766 
L 292.710103 135.11598 
L 293.523773 135.870699 
L 294.337444 137.184106 
L 295.151114 138.752354 
L 295.964785 139.222828 
L 296.778455 140.25199 
L 297.592126 139.115011 
L 298.405796 141.634008 
L 299.219467 139.634493 
L 300.033137 139.48747 
L 300.846808 138.546521 
L 301.660478 139.183622 
L 302.474149 138.948385 
L 303.28782 137.850611 
L 304.10149 135.949111 
L 304.915161 140.50683 
L 305.728831 137.350732 
L 306.542502 139.379653 
L 307.356172 139.193423 
L 308.169843 139.908936 
L 308.983513 141.967261 
L 309.797184 138.419101 
L 310.610854 136.429387 
L 311.424525 142.261307 
L 312.238195 136.233356 
L 313.051866 140.291196 
L 313.865537 141.64381 
L 314.679207 139.252232 
L 315.492878 139.967745 
L 317.120219 139.183622 
L 317.933889 137.184106 
L 318.74756 142.790591 
L 319.56123 140.761671 
L 320.374901 140.055959 
L 321.188571 141.64381 
L 322.002242 138.517116 
L 322.815913 138.722949 
L 323.629583 136.625418 
L 324.443254 140.69306 
L 325.256924 138.556323 
L 326.070595 138.79156 
L 326.884265 140.467624 
L 327.697936 140.350006 
L 328.511606 139.369851 
L 329.325277 140.291196 
L 330.138947 139.987349 
L 330.952618 143.54531 
L 331.766288 140.967503 
L 332.579959 140.624449 
L 333.39363 140.536235 
L 334.2073 139.320843 
L 335.020971 139.164019 
L 336.648312 139.889333 
L 337.461982 140.006952 
L 338.275653 139.007194 
L 339.089323 138.683743 
L 339.902994 138.183864 
L 340.716664 139.761913 
L 341.530335 143.016027 
L 343.157676 137.203709 
L 343.971347 138.958186 
L 344.785017 139.61489 
L 345.598688 139.164019 
L 347.226029 137.546763 
L 348.039699 141.781032 
L 348.85337 138.948385 
L 349.66704 139.840325 
L 350.480711 139.085606 
L 351.294381 140.879289 
L 352.108052 143.506104 
L 352.921722 140.065761 
L 353.735393 142.555354 
L 354.549064 140.428418 
L 355.362734 142.614163 
L 356.176405 139.399256 
L 356.990075 138.742552 
L 357.803746 140.320601 
L 358.617416 142.202498 
L 359.431087 138.428903 
L 360.244757 139.987349 
L 361.058428 138.928781 
L 361.872098 138.811163 
L 362.685769 141.624207 
L 363.49944 139.320843 
L 364.31311 140.996908 
L 365.126781 139.781516 
L 365.940451 137.664382 
L 366.754122 140.585243 
L 367.567792 138.899377 
L 368.381463 138.79156 
L 369.195133 137.742794 
L 370.008804 139.673699 
L 370.822474 139.036598 
L 371.636145 139.026797 
L 372.449815 139.271836 
L 373.263486 139.908936 
L 374.077157 142.143689 
L 374.890827 137.301725 
L 375.704498 136.086333 
L 376.518168 138.497513 
L 377.331839 135.576652 
L 378.145509 140.075562 
L 378.95918 137.683985 
L 379.77285 137.791802 
L 380.586521 139.575684 
L 382.213862 140.153975 
L 383.027532 139.879531 
L 383.841203 142.055475 
L 384.654874 143.564913 
L 385.468544 141.33016 
L 386.282215 137.850611 
L 387.095885 140.967503 
L 387.909556 139.252232 
L 388.723226 140.653854 
L 389.536897 141.359565 
L 390.350567 140.555838 
L 391.164238 140.418617 
L 391.977908 140.095166 
L 392.791579 139.222828 
L 393.605249 138.60533 
L 394.41892 137.811405 
L 395.232591 138.91898 
L 396.046261 138.428903 
L 396.859932 140.928297 
L 397.673602 139.987349 
L 398.487273 138.252475 
L 398.487273 138.252475 
" style="fill:none;stroke:#1f77b4;stroke-linecap:square;stroke-width:1.5;"/>
   </g>
   <g id="line2d_17">
    <path clip-path="url(#p087bba3eaf)" d="M 73.832727 174.14574 
L 74.646398 175.194505 
L 75.460068 173.616456 
L 76.273739 175.116093 
L 77.087409 174.626015 
L 77.90108 175.400338 
L 78.714751 174.057526 
L 79.528421 174.665222 
L 80.342092 175.655178 
L 81.155762 174.096732 
L 81.969433 174.282961 
L 82.783103 173.498838 
L 83.596774 175.282719 
L 84.410444 174.067327 
L 85.224115 173.773281 
L 86.037785 174.184946 
L 86.851456 175.312124 
L 88.478797 174.155541 
L 89.292468 174.518198 
L 90.106138 173.106776 
L 90.919809 175.361131 
L 91.733479 176.106049 
L 92.54715 174.773039 
L 93.36082 173.871296 
L 94.174491 175.508155 
L 94.988161 173.616456 
L 95.801832 171.342497 
L 96.615502 172.783325 
L 97.429173 169.303775 
L 98.242843 169.548814 
L 99.056514 167.010213 
L 99.870185 168.754889 
L 100.683855 167.510092 
L 101.497526 165.834028 
L 102.311196 163.295427 
L 103.124867 161.491943 
L 103.938537 162.61912 
L 104.752208 161.609561 
L 105.565878 159.463022 
L 106.379549 160.060917 
L 107.193219 157.522316 
L 108.00689 157.698744 
L 108.82056 156.355932 
L 109.634231 156.159901 
L 110.447902 156.502955 
L 111.261572 158.237829 
L 112.075243 156.09129 
L 112.888913 156.101092 
L 113.702584 157.287079 
L 115.329925 154.679867 
L 116.143595 155.512999 
L 116.957266 154.130981 
L 117.770936 152.092259 
L 119.398278 153.209635 
L 120.211948 155.865855 
L 121.025619 152.562733 
L 121.839289 151.33754 
L 122.65296 153.758522 
L 123.46663 150.857264 
L 124.280301 152.013847 
L 125.093971 151.994244 
L 125.907642 151.553174 
L 126.721312 152.141267 
L 127.534983 152.327496 
L 128.348653 151.582579 
L 129.162324 152.278488 
L 129.975995 151.376746 
L 130.789665 151.455158 
L 131.603336 151.190517 
L 132.417006 149.867308 
L 133.230677 151.043493 
L 134.044347 151.406151 
L 134.858018 154.895501 
L 135.671688 149.896712 
L 136.485359 152.16087 
L 137.299029 151.611983 
L 138.1127 152.876383 
L 138.92637 150.327981 
L 139.740041 152.552932 
L 140.553712 152.053053 
L 141.367382 150.965081 
L 142.181053 151.004287 
L 142.994723 150.014331 
L 143.808394 149.465444 
L 144.622064 147.593349 
L 145.435735 150.20056 
L 146.249405 149.004772 
L 147.063076 150.857264 
L 147.876746 146.6524 
L 148.690417 148.122632 
L 149.504087 146.201529 
L 150.317758 150.13195 
L 151.131429 147.642357 
L 151.945099 149.975125 
L 152.75877 147.956006 
L 153.57244 146.328949 
L 154.386111 145.809467 
L 155.199781 144.064792 
L 156.013452 145.750658 
L 156.827122 146.701408 
L 157.640793 145.976094 
L 158.454463 143.731539 
L 159.268134 146.211331 
L 160.895475 142.369124 
L 161.709146 145.544826 
L 162.522816 143.907967 
L 163.336487 144.574472 
L 164.150157 143.996181 
L 164.963828 141.996666 
L 165.777498 145.005741 
L 166.591169 145.505619 
L 168.21851 140.291196 
L 169.03218 143.711936 
L 169.845851 140.43822 
L 170.659522 139.546279 
L 171.473192 142.075078 
L 172.286863 140.614648 
L 173.100533 140.418617 
L 173.914204 139.409057 
L 174.727874 141.339962 
L 175.541545 142.28091 
L 176.355215 140.134372 
L 177.168886 137.037083 
L 177.982556 140.408815 
L 178.796227 140.82048 
L 179.609897 140.271593 
L 180.423568 138.360292 
L 181.237239 140.50683 
L 182.050909 139.899135 
L 182.86458 136.684227 
L 183.67825 138.47791 
L 184.491921 137.448748 
L 185.305591 140.350006 
L 186.119262 139.771714 
L 186.932932 137.811405 
L 187.746603 137.105694 
L 188.560273 136.664624 
L 189.373944 135.05717 
L 190.187614 136.988075 
L 191.001285 135.674668 
L 191.814956 136.870457 
L 192.628626 138.654338 
L 193.442297 133.920191 
L 194.255967 133.861382 
L 195.069638 138.889575 
L 195.883308 134.16523 
L 196.696979 136.243158 
L 197.510649 135.253201 
L 198.32432 133.871183 
L 199.13799 131.185559 
L 199.951661 134.273047 
L 200.765332 132.087302 
L 201.579002 133.969199 
L 202.392673 134.900346 
L 203.206343 133.008647 
L 204.020014 134.175031 
L 204.833684 131.852065 
L 205.647355 132.920433 
L 206.461025 132.155912 
L 207.274696 133.361503 
L 208.088366 127.755018 
L 208.902037 131.724644 
L 209.715707 132.802815 
L 210.529378 131.087544 
L 211.343049 132.557776 
L 212.156719 131.214964 
L 212.97039 129.597709 
L 213.78406 130.793497 
L 214.597731 128.833188 
L 215.411401 130.176 
L 216.225072 127.696209 
L 217.038742 128.627356 
L 217.852413 126.745459 
L 218.666083 128.411722 
L 219.479754 127.764819 
L 220.293424 126.284786 
L 221.107095 125.559471 
L 221.920766 127.19633 
L 222.734436 130.342626 
L 223.548107 128.078469 
L 224.361777 128.695966 
L 225.175448 126.471015 
L 225.989118 125.833915 
L 226.802789 123.599162 
L 227.616459 126.088755 
L 228.43013 127.019902 
L 229.2438 126.196572 
L 230.057471 125.784907 
L 230.871141 124.569515 
L 232.498483 129.79374 
L 233.312153 124.314675 
L 234.125824 125.079196 
L 234.939494 125.079196 
L 235.753165 123.197299 
L 236.566835 124.745943 
L 237.380506 124.108842 
L 238.194176 121.246791 
L 239.007847 124.118644 
L 239.821517 124.500904 
L 240.635188 124.647928 
L 241.448859 127.019902 
L 242.262529 120.178422 
L 243.0762 120.452865 
L 243.88987 122.442579 
L 244.703541 121.825082 
L 245.517211 119.864773 
L 246.330882 123.942216 
L 247.144552 125.696693 
L 247.958223 118.83561 
L 248.771893 121.825082 
L 249.585564 123.216902 
L 250.399234 121.413417 
L 251.212905 120.296041 
L 252.026576 124.941974 
L 252.840246 122.099525 
L 253.653917 121.129172 
L 254.467587 121.834884 
L 255.281258 118.796404 
L 256.094928 119.159061 
L 256.908599 121.678059 
L 257.722269 119.874574 
L 258.53594 119.649139 
L 259.34961 116.257803 
L 260.163281 120.011796 
L 260.976951 116.091177 
L 261.790622 119.355092 
L 262.604293 116.355819 
L 263.417963 120.070605 
L 264.231634 115.875543 
L 265.045304 118.482754 
L 265.858975 119.374695 
L 266.672645 117.198752 
L 267.486316 119.747154 
L 268.299986 116.620461 
L 269.113657 117.002721 
L 269.927327 118.32593 
L 270.740998 117.31637 
L 271.554668 116.953713 
L 272.368339 117.277164 
L 273.18201 118.727793 
L 273.99568 116.894904 
L 274.809351 115.336458 
L 275.623021 115.591298 
L 276.436692 114.954198 
L 277.250362 116.434231 
L 278.877703 114.170074 
L 279.691374 116.983118 
L 280.505044 112.592025 
L 281.318715 111.190404 
L 282.132386 113.709401 
L 282.946056 114.679754 
L 283.759727 118.345533 
L 285.387068 115.72852 
L 286.200738 116.404827 
L 287.014409 113.199721 
L 287.828079 112.797857 
L 288.64175 114.699357 
L 289.45542 114.101463 
L 290.269091 115.934352 
L 291.082761 115.826535 
L 291.896432 113.297736 
L 292.710103 113.346744 
L 293.523773 112.327383 
L 294.337444 115.199236 
L 295.151114 111.876512 
L 295.964785 111.798099 
L 296.778455 113.062499 
L 297.592126 113.503569 
L 298.405796 112.268574 
L 299.219467 114.023051 
L 300.033137 113.219324 
L 300.846808 113.944638 
L 301.660478 111.807901 
L 302.474149 110.778739 
L 303.28782 116.29701 
L 304.10149 112.552819 
L 304.915161 110.298463 
L 305.728831 112.278375 
L 306.542502 112.376391 
L 307.356172 112.209764 
L 308.169843 114.405311 
L 308.983513 115.47368 
L 309.797184 112.043138 
L 310.610854 110.484692 
L 311.424525 114.532731 
L 312.238195 111.61187 
L 313.051866 111.141396 
L 313.865537 114.444517 
L 314.679207 110.817945 
L 315.492878 108.691009 
L 316.306548 107.191372 
L 317.120219 110.563105 
L 317.933889 111.984329 
L 318.74756 111.602069 
L 319.56123 107.985298 
L 320.374901 108.220535 
L 321.188571 106.446455 
L 322.002242 112.033337 
L 322.815913 112.160757 
L 323.629583 112.072543 
L 324.443254 116.93411 
L 325.256924 108.269543 
L 326.070595 111.847107 
L 326.884265 112.866468 
L 327.697936 110.886556 
L 328.511606 108.357756 
L 329.325277 110.102432 
L 330.138947 106.201416 
L 330.952618 109.484934 
L 331.766288 110.523898 
L 332.579959 113.689798 
L 333.39363 110.817945 
L 334.2073 110.09263 
L 335.020971 104.77039 
L 335.834641 109.337911 
L 336.648312 107.955893 
L 337.461982 109.994615 
L 338.275653 108.387161 
L 339.089323 112.150955 
L 339.902994 108.093115 
L 340.716664 109.690767 
L 341.530335 105.868164 
L 342.344005 105.113444 
L 343.157676 106.760104 
L 343.971347 106.769906 
L 344.785017 110.40628 
L 345.598688 109.132079 
L 346.412358 107.563831 
L 347.226029 106.652287 
L 348.039699 106.466058 
L 348.85337 105.926973 
L 349.66704 109.151682 
L 350.480711 113.00369 
L 351.294381 107.848076 
L 352.108052 109.494736 
L 352.921722 104.231305 
L 354.549064 108.847834 
L 355.362734 106.211218 
L 356.176405 102.476828 
L 356.990075 106.887524 
L 357.803746 108.289146 
L 358.617416 104.339122 
L 359.431087 107.210975 
L 360.244757 103.427578 
L 361.058428 105.133048 
L 361.872098 108.19113 
L 362.685769 108.171527 
L 363.49944 105.730942 
L 364.31311 102.378813 
L 365.126781 106.319035 
L 365.940451 105.603522 
L 366.754122 106.975738 
L 367.567792 107.769664 
L 368.381463 107.42661 
L 369.195133 112.454803 
L 370.008804 106.299432 
L 370.822474 107.475617 
L 371.636145 104.574359 
L 372.449815 105.456499 
L 373.263486 107.338396 
L 374.077157 105.172254 
L 374.890827 102.535638 
L 375.704498 105.152651 
L 376.518168 103.682419 
L 377.331839 106.60328 
L 378.145509 104.525352 
L 378.95918 107.965695 
L 380.586521 102.270996 
L 381.400191 104.789993 
L 382.213862 106.191615 
L 383.027532 104.603764 
L 383.841203 109.778981 
L 384.654874 102.790478 
L 385.468544 105.093841 
L 386.282215 108.093115 
L 387.095885 105.182055 
L 387.909556 104.701779 
L 388.723226 104.064679 
L 389.536897 104.995826 
L 390.350567 100.957589 
L 391.164238 102.3004 
L 391.977908 104.760589 
L 392.791579 100.781161 
L 394.41892 108.112718 
L 395.232591 104.544955 
L 396.046261 102.496431 
L 396.859932 108.328352 
L 397.673602 111.298221 
L 398.487273 102.986509 
L 398.487273 102.986509 
" style="fill:none;stroke:#ff7f0e;stroke-linecap:square;stroke-width:1.5;"/>
   </g>
   <g id="patch_3">
    <path d="M 57.6 307.584 
L 57.6 41.472 
" style="fill:none;stroke:#000000;stroke-linecap:square;stroke-linejoin:miter;stroke-width:0.8;"/>
   </g>
   <g id="patch_4">
    <path d="M 414.72 307.584 
L 414.72 41.472 
" style="fill:none;stroke:#000000;stroke-linecap:square;stroke-linejoin:miter;stroke-width:0.8;"/>
   </g>
   <g id="patch_5">
    <path d="M 57.6 307.584 
L 414.72 307.584 
" style="fill:none;stroke:#000000;stroke-linecap:square;stroke-linejoin:miter;stroke-width:0.8;"/>
   </g>
   <g id="patch_6">
    <path d="M 57.6 41.472 
L 414.72 41.472 
" style="fill:none;stroke:#000000;stroke-linecap:square;stroke-linejoin:miter;stroke-width:0.8;"/>
   </g>
   <g id="legend_1">
    <g id="patch_7">
     <path d="M 281.854375 78.82825 
L 407.72 78.82825 
Q 409.72 78.82825 409.72 76.82825 
L 409.72 48.472 
Q 409.72 46.472 407.72 46.472 
L 281.854375 46.472 
Q 279.854375 46.472 279.854375 48.472 
L 279.854375 76.82825 
Q 279.854375 78.82825 281.854375 78.82825 
z
" style="fill:#ffffff;opacity:0.8;stroke:#cccccc;stroke-linejoin:miter;"/>
    </g>
    <g id="line2d_18">
     <path d="M 283.854375 54.570437 
L 303.854375 54.570437 
" style="fill:none;stroke:#1f77b4;stroke-linecap:square;stroke-width:1.5;"/>
    </g>
    <g id="line2d_19"/>
    <g id="text_18">
     <!-- Without GradNorm -->
     <g transform="translate(311.854375 58.070437)scale(0.1 -0.1)">
      <defs>
       <path d="M 213 4666 
L 850 4666 
L 1831 722 
L 2809 4666 
L 3519 4666 
L 4500 722 
L 5478 4666 
L 6119 4666 
L 4947 0 
L 4153 0 
L 3169 4050 
L 2175 0 
L 1381 0 
L 213 4666 
z
" id="DejaVuSans-57" transform="scale(0.015625)"/>
       <path d="M 603 3500 
L 1178 3500 
L 1178 0 
L 603 0 
L 603 3500 
z
M 603 4863 
L 1178 4863 
L 1178 4134 
L 603 4134 
L 603 4863 
z
" id="DejaVuSans-69" transform="scale(0.015625)"/>
       <path d="M 1172 4494 
L 1172 3500 
L 2356 3500 
L 2356 3053 
L 1172 3053 
L 1172 1153 
Q 1172 725 1289 603 
Q 1406 481 1766 481 
L 2356 481 
L 2356 0 
L 1766 0 
Q 1100 0 847 248 
Q 594 497 594 1153 
L 594 3053 
L 172 3053 
L 172 3500 
L 594 3500 
L 594 4494 
L 1172 4494 
z
" id="DejaVuSans-74" transform="scale(0.015625)"/>
       <path id="DejaVuSans-20" transform="scale(0.015625)"/>
       <path d="M 3809 666 
L 3809 1919 
L 2778 1919 
L 2778 2438 
L 4434 2438 
L 4434 434 
Q 4069 175 3628 42 
Q 3188 -91 2688 -91 
Q 1594 -91 976 548 
Q 359 1188 359 2328 
Q 359 3472 976 4111 
Q 1594 4750 2688 4750 
Q 3144 4750 3555 4637 
Q 3966 4525 4313 4306 
L 4313 3634 
Q 3963 3931 3569 4081 
Q 3175 4231 2741 4231 
Q 1884 4231 1454 3753 
Q 1025 3275 1025 2328 
Q 1025 1384 1454 906 
Q 1884 428 2741 428 
Q 3075 428 3337 486 
Q 3600 544 3809 666 
z
" id="DejaVuSans-47" transform="scale(0.015625)"/>
       <path d="M 2906 2969 
L 2906 4863 
L 3481 4863 
L 3481 0 
L 2906 0 
L 2906 525 
Q 2725 213 2448 61 
Q 2172 -91 1784 -91 
Q 1150 -91 751 415 
Q 353 922 353 1747 
Q 353 2572 751 3078 
Q 1150 3584 1784 3584 
Q 2172 3584 2448 3432 
Q 2725 3281 2906 2969 
z
M 947 1747 
Q 947 1113 1208 752 
Q 1469 391 1925 391 
Q 2381 391 2643 752 
Q 2906 1113 2906 1747 
Q 2906 2381 2643 2742 
Q 2381 3103 1925 3103 
Q 1469 3103 1208 2742 
Q 947 2381 947 1747 
z
" id="DejaVuSans-64" transform="scale(0.015625)"/>
       <path d="M 628 4666 
L 1478 4666 
L 3547 763 
L 3547 4666 
L 4159 4666 
L 4159 0 
L 3309 0 
L 1241 3903 
L 1241 0 
L 628 0 
L 628 4666 
z
" id="DejaVuSans-4e" transform="scale(0.015625)"/>
       <path d="M 3328 2828 
Q 3544 3216 3844 3400 
Q 4144 3584 4550 3584 
Q 5097 3584 5394 3201 
Q 5691 2819 5691 2113 
L 5691 0 
L 5113 0 
L 5113 2094 
Q 5113 2597 4934 2840 
Q 4756 3084 4391 3084 
Q 3944 3084 3684 2787 
Q 3425 2491 3425 1978 
L 3425 0 
L 2847 0 
L 2847 2094 
Q 2847 2600 2669 2842 
Q 2491 3084 2119 3084 
Q 1678 3084 1418 2786 
Q 1159 2488 1159 1978 
L 1159 0 
L 581 0 
L 581 3500 
L 1159 3500 
L 1159 2956 
Q 1356 3278 1631 3431 
Q 1906 3584 2284 3584 
Q 2666 3584 2933 3390 
Q 3200 3197 3328 2828 
z
" id="DejaVuSans-6d" transform="scale(0.015625)"/>
      </defs>
      <use xlink:href="#DejaVuSans-57"/>
      <use x="96.626953" xlink:href="#DejaVuSans-69"/>
      <use x="124.410156" xlink:href="#DejaVuSans-74"/>
      <use x="163.619141" xlink:href="#DejaVuSans-68"/>
      <use x="226.998047" xlink:href="#DejaVuSans-6f"/>
      <use x="288.179688" xlink:href="#DejaVuSans-75"/>
      <use x="351.558594" xlink:href="#DejaVuSans-74"/>
      <use x="390.767578" xlink:href="#DejaVuSans-20"/>
      <use x="422.554688" xlink:href="#DejaVuSans-47"/>
      <use x="500.044922" xlink:href="#DejaVuSans-72"/>
      <use x="541.158203" xlink:href="#DejaVuSans-61"/>
      <use x="602.4375" xlink:href="#DejaVuSans-64"/>
      <use x="665.914062" xlink:href="#DejaVuSans-4e"/>
      <use x="740.71875" xlink:href="#DejaVuSans-6f"/>
      <use x="801.900391" xlink:href="#DejaVuSans-72"/>
      <use x="841.263672" xlink:href="#DejaVuSans-6d"/>
     </g>
    </g>
    <g id="line2d_20">
     <path d="M 283.854375 69.248562 
L 303.854375 69.248562 
" style="fill:none;stroke:#ff7f0e;stroke-linecap:square;stroke-width:1.5;"/>
    </g>
    <g id="line2d_21"/>
    <g id="text_19">
     <!-- With GradNorm -->
     <g transform="translate(311.854375 72.748562)scale(0.1 -0.1)">
      <use xlink:href="#DejaVuSans-57"/>
      <use x="96.626953" xlink:href="#DejaVuSans-69"/>
      <use x="124.410156" xlink:href="#DejaVuSans-74"/>
      <use x="163.619141" xlink:href="#DejaVuSans-68"/>
      <use x="226.998047" xlink:href="#DejaVuSans-20"/>
      <use x="258.785156" xlink:href="#DejaVuSans-47"/>
      <use x="336.275391" xlink:href="#DejaVuSans-72"/>
      <use x="377.388672" xlink:href="#DejaVuSans-61"/>
      <use x="438.667969" xlink:href="#DejaVuSans-64"/>
      <use x="502.144531" xlink:href="#DejaVuSans-4e"/>
      <use x="576.949219" xlink:href="#DejaVuSans-6f"/>
      <use x="638.130859" xlink:href="#DejaVuSans-72"/>
      <use x="677.494141" xlink:href="#DejaVuSans-6d"/>
     </g>
    </g>
   </g>
  </g>
 </g>
 <defs>
  <clipPath id="p087bba3eaf">
   <rect height="266.112" width="357.12" x="57.6" y="41.472"/>
  </clipPath>
 </defs>
</svg>
