<?xml version="1.0" encoding="utf-8" standalone="no"?>
<!DOCTYPE svg PUBLIC "-//W3C//DTD SVG 1.1//EN"
  "http://www.w3.org/Graphics/SVG/1.1/DTD/svg11.dtd">
<svg height="345.6pt" version="1.1" viewBox="0 0 460.8 345.6" width="460.8pt" xmlns="http://www.w3.org/2000/svg" xmlns:xlink="http://www.w3.org/1999/xlink">
 <metadata>
  <rdf:RDF xmlns:cc="http://creativecommons.org/ns#" xmlns:dc="http://purl.org/dc/elements/1.1/" xmlns:rdf="http://www.w3.org/1999/02/22-rdf-syntax-ns#">
   <cc:Work>
    <dc:type rdf:resource="http://purl.org/dc/dcmitype/StillImage"/>
    <dc:date>2021-07-16T16:38:07.256208</dc:date>
    <dc:format>image/svg+xml</dc:format>
    <dc:creator>
     <cc:Agent>
      <dc:title>Matplotlib v3.4.1, https://matplotlib.org/</dc:title>
     </cc:Agent>
    </dc:creator>
   </cc:Work>
  </rdf:RDF>
 </metadata>
 <defs>
  <style type="text/css">*{stroke-linecap:butt;stroke-linejoin:round;}</style>
 </defs>
 <g id="figure_1">
  <g id="patch_1">
   <path d="M 0 345.6 
L 460.8 345.6 
L 460.8 0 
L 0 0 
z
" style="fill:#ffffff;"/>
  </g>
  <g id="axes_1">
   <g id="patch_2">
    <path d="M 57.6 307.584 
L 414.72 307.584 
L 414.72 41.472 
L 57.6 41.472 
z
" style="fill:#ffffff;"/>
   </g>
   <g id="matplotlib.axis_1">
    <g id="xtick_1">
     <g id="line2d_1">
      <defs>
       <path d="M 0 0 
L 0 3.5 
" id="mb68102ef26" style="stroke:#000000;stroke-width:0.8;"/>
      </defs>
      <g>
       <use style="stroke:#000000;stroke-width:0.8;" x="73.019057" xlink:href="#mb68102ef26" y="307.584"/>
      </g>
     </g>
     <g id="text_1">
      <!-- 0 -->
      <g transform="translate(69.837807 322.182437)scale(0.1 -0.1)">
       <defs>
        <path d="M 2034 4250 
Q 1547 4250 1301 3770 
Q 1056 3291 1056 2328 
Q 1056 1369 1301 889 
Q 1547 409 2034 409 
Q 2525 409 2770 889 
Q 3016 1369 3016 2328 
Q 3016 3291 2770 3770 
Q 2525 4250 2034 4250 
z
M 2034 4750 
Q 2819 4750 3233 4129 
Q 3647 3509 3647 2328 
Q 3647 1150 3233 529 
Q 2819 -91 2034 -91 
Q 1250 -91 836 529 
Q 422 1150 422 2328 
Q 422 3509 836 4129 
Q 1250 4750 2034 4750 
z
" id="DejaVuSans-30" transform="scale(0.015625)"/>
       </defs>
       <use xlink:href="#DejaVuSans-30"/>
      </g>
     </g>
    </g>
    <g id="xtick_2">
     <g id="line2d_2">
      <g>
       <use style="stroke:#000000;stroke-width:0.8;" x="113.702584" xlink:href="#mb68102ef26" y="307.584"/>
      </g>
     </g>
     <g id="text_2">
      <!-- 50 -->
      <g transform="translate(107.340084 322.182437)scale(0.1 -0.1)">
       <defs>
        <path d="M 691 4666 
L 3169 4666 
L 3169 4134 
L 1269 4134 
L 1269 2991 
Q 1406 3038 1543 3061 
Q 1681 3084 1819 3084 
Q 2600 3084 3056 2656 
Q 3513 2228 3513 1497 
Q 3513 744 3044 326 
Q 2575 -91 1722 -91 
Q 1428 -91 1123 -41 
Q 819 9 494 109 
L 494 744 
Q 775 591 1075 516 
Q 1375 441 1709 441 
Q 2250 441 2565 725 
Q 2881 1009 2881 1497 
Q 2881 1984 2565 2268 
Q 2250 2553 1709 2553 
Q 1456 2553 1204 2497 
Q 953 2441 691 2322 
L 691 4666 
z
" id="DejaVuSans-35" transform="scale(0.015625)"/>
       </defs>
       <use xlink:href="#DejaVuSans-35"/>
       <use x="63.623047" xlink:href="#DejaVuSans-30"/>
      </g>
     </g>
    </g>
    <g id="xtick_3">
     <g id="line2d_3">
      <g>
       <use style="stroke:#000000;stroke-width:0.8;" x="154.386111" xlink:href="#mb68102ef26" y="307.584"/>
      </g>
     </g>
     <g id="text_3">
      <!-- 100 -->
      <g transform="translate(144.842361 322.182437)scale(0.1 -0.1)">
       <defs>
        <path d="M 794 531 
L 1825 531 
L 1825 4091 
L 703 3866 
L 703 4441 
L 1819 4666 
L 2450 4666 
L 2450 531 
L 3481 531 
L 3481 0 
L 794 0 
L 794 531 
z
" id="DejaVuSans-31" transform="scale(0.015625)"/>
       </defs>
       <use xlink:href="#DejaVuSans-31"/>
       <use x="63.623047" xlink:href="#DejaVuSans-30"/>
       <use x="127.246094" xlink:href="#DejaVuSans-30"/>
      </g>
     </g>
    </g>
    <g id="xtick_4">
     <g id="line2d_4">
      <g>
       <use style="stroke:#000000;stroke-width:0.8;" x="195.069638" xlink:href="#mb68102ef26" y="307.584"/>
      </g>
     </g>
     <g id="text_4">
      <!-- 150 -->
      <g transform="translate(185.525888 322.182437)scale(0.1 -0.1)">
       <use xlink:href="#DejaVuSans-31"/>
       <use x="63.623047" xlink:href="#DejaVuSans-35"/>
       <use x="127.246094" xlink:href="#DejaVuSans-30"/>
      </g>
     </g>
    </g>
    <g id="xtick_5">
     <g id="line2d_5">
      <g>
       <use style="stroke:#000000;stroke-width:0.8;" x="235.753165" xlink:href="#mb68102ef26" y="307.584"/>
      </g>
     </g>
     <g id="text_5">
      <!-- 200 -->
      <g transform="translate(226.209415 322.182437)scale(0.1 -0.1)">
       <defs>
        <path d="M 1228 531 
L 3431 531 
L 3431 0 
L 469 0 
L 469 531 
Q 828 903 1448 1529 
Q 2069 2156 2228 2338 
Q 2531 2678 2651 2914 
Q 2772 3150 2772 3378 
Q 2772 3750 2511 3984 
Q 2250 4219 1831 4219 
Q 1534 4219 1204 4116 
Q 875 4013 500 3803 
L 500 4441 
Q 881 4594 1212 4672 
Q 1544 4750 1819 4750 
Q 2544 4750 2975 4387 
Q 3406 4025 3406 3419 
Q 3406 3131 3298 2873 
Q 3191 2616 2906 2266 
Q 2828 2175 2409 1742 
Q 1991 1309 1228 531 
z
" id="DejaVuSans-32" transform="scale(0.015625)"/>
       </defs>
       <use xlink:href="#DejaVuSans-32"/>
       <use x="63.623047" xlink:href="#DejaVuSans-30"/>
       <use x="127.246094" xlink:href="#DejaVuSans-30"/>
      </g>
     </g>
    </g>
    <g id="xtick_6">
     <g id="line2d_6">
      <g>
       <use style="stroke:#000000;stroke-width:0.8;" x="276.436692" xlink:href="#mb68102ef26" y="307.584"/>
      </g>
     </g>
     <g id="text_6">
      <!-- 250 -->
      <g transform="translate(266.892942 322.182437)scale(0.1 -0.1)">
       <use xlink:href="#DejaVuSans-32"/>
       <use x="63.623047" xlink:href="#DejaVuSans-35"/>
       <use x="127.246094" xlink:href="#DejaVuSans-30"/>
      </g>
     </g>
    </g>
    <g id="xtick_7">
     <g id="line2d_7">
      <g>
       <use style="stroke:#000000;stroke-width:0.8;" x="317.120219" xlink:href="#mb68102ef26" y="307.584"/>
      </g>
     </g>
     <g id="text_7">
      <!-- 300 -->
      <g transform="translate(307.576469 322.182437)scale(0.1 -0.1)">
       <defs>
        <path d="M 2597 2516 
Q 3050 2419 3304 2112 
Q 3559 1806 3559 1356 
Q 3559 666 3084 287 
Q 2609 -91 1734 -91 
Q 1441 -91 1130 -33 
Q 819 25 488 141 
L 488 750 
Q 750 597 1062 519 
Q 1375 441 1716 441 
Q 2309 441 2620 675 
Q 2931 909 2931 1356 
Q 2931 1769 2642 2001 
Q 2353 2234 1838 2234 
L 1294 2234 
L 1294 2753 
L 1863 2753 
Q 2328 2753 2575 2939 
Q 2822 3125 2822 3475 
Q 2822 3834 2567 4026 
Q 2313 4219 1838 4219 
Q 1578 4219 1281 4162 
Q 984 4106 628 3988 
L 628 4550 
Q 988 4650 1302 4700 
Q 1616 4750 1894 4750 
Q 2613 4750 3031 4423 
Q 3450 4097 3450 3541 
Q 3450 3153 3228 2886 
Q 3006 2619 2597 2516 
z
" id="DejaVuSans-33" transform="scale(0.015625)"/>
       </defs>
       <use xlink:href="#DejaVuSans-33"/>
       <use x="63.623047" xlink:href="#DejaVuSans-30"/>
       <use x="127.246094" xlink:href="#DejaVuSans-30"/>
      </g>
     </g>
    </g>
    <g id="xtick_8">
     <g id="line2d_8">
      <g>
       <use style="stroke:#000000;stroke-width:0.8;" x="357.803746" xlink:href="#mb68102ef26" y="307.584"/>
      </g>
     </g>
     <g id="text_8">
      <!-- 350 -->
      <g transform="translate(348.259996 322.182437)scale(0.1 -0.1)">
       <use xlink:href="#DejaVuSans-33"/>
       <use x="63.623047" xlink:href="#DejaVuSans-35"/>
       <use x="127.246094" xlink:href="#DejaVuSans-30"/>
      </g>
     </g>
    </g>
    <g id="xtick_9">
     <g id="line2d_9">
      <g>
       <use style="stroke:#000000;stroke-width:0.8;" x="398.487273" xlink:href="#mb68102ef26" y="307.584"/>
      </g>
     </g>
     <g id="text_9">
      <!-- 400 -->
      <g transform="translate(388.943523 322.182437)scale(0.1 -0.1)">
       <defs>
        <path d="M 2419 4116 
L 825 1625 
L 2419 1625 
L 2419 4116 
z
M 2253 4666 
L 3047 4666 
L 3047 1625 
L 3713 1625 
L 3713 1100 
L 3047 1100 
L 3047 0 
L 2419 0 
L 2419 1100 
L 313 1100 
L 313 1709 
L 2253 4666 
z
" id="DejaVuSans-34" transform="scale(0.015625)"/>
       </defs>
       <use xlink:href="#DejaVuSans-34"/>
       <use x="63.623047" xlink:href="#DejaVuSans-30"/>
       <use x="127.246094" xlink:href="#DejaVuSans-30"/>
      </g>
     </g>
    </g>
    <g id="text_10">
     <!-- Epoch -->
     <g transform="translate(213.193594 339.659781)scale(0.15 -0.15)">
      <defs>
       <path d="M 628 4666 
L 3578 4666 
L 3578 4134 
L 1259 4134 
L 1259 2753 
L 3481 2753 
L 3481 2222 
L 1259 2222 
L 1259 531 
L 3634 531 
L 3634 0 
L 628 0 
L 628 4666 
z
" id="DejaVuSans-45" transform="scale(0.015625)"/>
       <path d="M 1159 525 
L 1159 -1331 
L 581 -1331 
L 581 3500 
L 1159 3500 
L 1159 2969 
Q 1341 3281 1617 3432 
Q 1894 3584 2278 3584 
Q 2916 3584 3314 3078 
Q 3713 2572 3713 1747 
Q 3713 922 3314 415 
Q 2916 -91 2278 -91 
Q 1894 -91 1617 61 
Q 1341 213 1159 525 
z
M 3116 1747 
Q 3116 2381 2855 2742 
Q 2594 3103 2138 3103 
Q 1681 3103 1420 2742 
Q 1159 2381 1159 1747 
Q 1159 1113 1420 752 
Q 1681 391 2138 391 
Q 2594 391 2855 752 
Q 3116 1113 3116 1747 
z
" id="DejaVuSans-70" transform="scale(0.015625)"/>
       <path d="M 1959 3097 
Q 1497 3097 1228 2736 
Q 959 2375 959 1747 
Q 959 1119 1226 758 
Q 1494 397 1959 397 
Q 2419 397 2687 759 
Q 2956 1122 2956 1747 
Q 2956 2369 2687 2733 
Q 2419 3097 1959 3097 
z
M 1959 3584 
Q 2709 3584 3137 3096 
Q 3566 2609 3566 1747 
Q 3566 888 3137 398 
Q 2709 -91 1959 -91 
Q 1206 -91 779 398 
Q 353 888 353 1747 
Q 353 2609 779 3096 
Q 1206 3584 1959 3584 
z
" id="DejaVuSans-6f" transform="scale(0.015625)"/>
       <path d="M 3122 3366 
L 3122 2828 
Q 2878 2963 2633 3030 
Q 2388 3097 2138 3097 
Q 1578 3097 1268 2742 
Q 959 2388 959 1747 
Q 959 1106 1268 751 
Q 1578 397 2138 397 
Q 2388 397 2633 464 
Q 2878 531 3122 666 
L 3122 134 
Q 2881 22 2623 -34 
Q 2366 -91 2075 -91 
Q 1284 -91 818 406 
Q 353 903 353 1747 
Q 353 2603 823 3093 
Q 1294 3584 2113 3584 
Q 2378 3584 2631 3529 
Q 2884 3475 3122 3366 
z
" id="DejaVuSans-63" transform="scale(0.015625)"/>
       <path d="M 3513 2113 
L 3513 0 
L 2938 0 
L 2938 2094 
Q 2938 2591 2744 2837 
Q 2550 3084 2163 3084 
Q 1697 3084 1428 2787 
Q 1159 2491 1159 1978 
L 1159 0 
L 581 0 
L 581 4863 
L 1159 4863 
L 1159 2956 
Q 1366 3272 1645 3428 
Q 1925 3584 2291 3584 
Q 2894 3584 3203 3211 
Q 3513 2838 3513 2113 
z
" id="DejaVuSans-68" transform="scale(0.015625)"/>
      </defs>
      <use xlink:href="#DejaVuSans-45"/>
      <use x="63.183594" xlink:href="#DejaVuSans-70"/>
      <use x="126.660156" xlink:href="#DejaVuSans-6f"/>
      <use x="187.841797" xlink:href="#DejaVuSans-63"/>
      <use x="242.822266" xlink:href="#DejaVuSans-68"/>
     </g>
    </g>
   </g>
   <g id="matplotlib.axis_2">
    <g id="ytick_1">
     <g id="line2d_10">
      <defs>
       <path d="M 0 0 
L -3.5 0 
" id="m05381801d0" style="stroke:#000000;stroke-width:0.8;"/>
      </defs>
      <g>
       <use style="stroke:#000000;stroke-width:0.8;" x="57.6" xlink:href="#m05381801d0" y="295.022767"/>
      </g>
     </g>
     <g id="text_11">
      <!-- −1200 -->
      <g transform="translate(16.770313 298.821986)scale(0.1 -0.1)">
       <defs>
        <path d="M 678 2272 
L 4684 2272 
L 4684 1741 
L 678 1741 
L 678 2272 
z
" id="DejaVuSans-2212" transform="scale(0.015625)"/>
       </defs>
       <use xlink:href="#DejaVuSans-2212"/>
       <use x="83.789062" xlink:href="#DejaVuSans-31"/>
       <use x="147.412109" xlink:href="#DejaVuSans-32"/>
       <use x="211.035156" xlink:href="#DejaVuSans-30"/>
       <use x="274.658203" xlink:href="#DejaVuSans-30"/>
      </g>
     </g>
    </g>
    <g id="ytick_2">
     <g id="line2d_11">
      <g>
       <use style="stroke:#000000;stroke-width:0.8;" x="57.6" xlink:href="#m05381801d0" y="251.34856"/>
      </g>
     </g>
     <g id="text_12">
      <!-- −1000 -->
      <g transform="translate(16.770313 255.147779)scale(0.1 -0.1)">
       <use xlink:href="#DejaVuSans-2212"/>
       <use x="83.789062" xlink:href="#DejaVuSans-31"/>
       <use x="147.412109" xlink:href="#DejaVuSans-30"/>
       <use x="211.035156" xlink:href="#DejaVuSans-30"/>
       <use x="274.658203" xlink:href="#DejaVuSans-30"/>
      </g>
     </g>
    </g>
    <g id="ytick_3">
     <g id="line2d_12">
      <g>
       <use style="stroke:#000000;stroke-width:0.8;" x="57.6" xlink:href="#m05381801d0" y="207.674353"/>
      </g>
     </g>
     <g id="text_13">
      <!-- −800 -->
      <g transform="translate(23.132812 211.473572)scale(0.1 -0.1)">
       <defs>
        <path d="M 2034 2216 
Q 1584 2216 1326 1975 
Q 1069 1734 1069 1313 
Q 1069 891 1326 650 
Q 1584 409 2034 409 
Q 2484 409 2743 651 
Q 3003 894 3003 1313 
Q 3003 1734 2745 1975 
Q 2488 2216 2034 2216 
z
M 1403 2484 
Q 997 2584 770 2862 
Q 544 3141 544 3541 
Q 544 4100 942 4425 
Q 1341 4750 2034 4750 
Q 2731 4750 3128 4425 
Q 3525 4100 3525 3541 
Q 3525 3141 3298 2862 
Q 3072 2584 2669 2484 
Q 3125 2378 3379 2068 
Q 3634 1759 3634 1313 
Q 3634 634 3220 271 
Q 2806 -91 2034 -91 
Q 1263 -91 848 271 
Q 434 634 434 1313 
Q 434 1759 690 2068 
Q 947 2378 1403 2484 
z
M 1172 3481 
Q 1172 3119 1398 2916 
Q 1625 2713 2034 2713 
Q 2441 2713 2670 2916 
Q 2900 3119 2900 3481 
Q 2900 3844 2670 4047 
Q 2441 4250 2034 4250 
Q 1625 4250 1398 4047 
Q 1172 3844 1172 3481 
z
" id="DejaVuSans-38" transform="scale(0.015625)"/>
       </defs>
       <use xlink:href="#DejaVuSans-2212"/>
       <use x="83.789062" xlink:href="#DejaVuSans-38"/>
       <use x="147.412109" xlink:href="#DejaVuSans-30"/>
       <use x="211.035156" xlink:href="#DejaVuSans-30"/>
      </g>
     </g>
    </g>
    <g id="ytick_4">
     <g id="line2d_13">
      <g>
       <use style="stroke:#000000;stroke-width:0.8;" x="57.6" xlink:href="#m05381801d0" y="164.000147"/>
      </g>
     </g>
     <g id="text_14">
      <!-- −600 -->
      <g transform="translate(23.132812 167.799365)scale(0.1 -0.1)">
       <defs>
        <path d="M 2113 2584 
Q 1688 2584 1439 2293 
Q 1191 2003 1191 1497 
Q 1191 994 1439 701 
Q 1688 409 2113 409 
Q 2538 409 2786 701 
Q 3034 994 3034 1497 
Q 3034 2003 2786 2293 
Q 2538 2584 2113 2584 
z
M 3366 4563 
L 3366 3988 
Q 3128 4100 2886 4159 
Q 2644 4219 2406 4219 
Q 1781 4219 1451 3797 
Q 1122 3375 1075 2522 
Q 1259 2794 1537 2939 
Q 1816 3084 2150 3084 
Q 2853 3084 3261 2657 
Q 3669 2231 3669 1497 
Q 3669 778 3244 343 
Q 2819 -91 2113 -91 
Q 1303 -91 875 529 
Q 447 1150 447 2328 
Q 447 3434 972 4092 
Q 1497 4750 2381 4750 
Q 2619 4750 2861 4703 
Q 3103 4656 3366 4563 
z
" id="DejaVuSans-36" transform="scale(0.015625)"/>
       </defs>
       <use xlink:href="#DejaVuSans-2212"/>
       <use x="83.789062" xlink:href="#DejaVuSans-36"/>
       <use x="147.412109" xlink:href="#DejaVuSans-30"/>
       <use x="211.035156" xlink:href="#DejaVuSans-30"/>
      </g>
     </g>
    </g>
    <g id="ytick_5">
     <g id="line2d_14">
      <g>
       <use style="stroke:#000000;stroke-width:0.8;" x="57.6" xlink:href="#m05381801d0" y="120.32594"/>
      </g>
     </g>
     <g id="text_15">
      <!-- −400 -->
      <g transform="translate(23.132812 124.125158)scale(0.1 -0.1)">
       <use xlink:href="#DejaVuSans-2212"/>
       <use x="83.789062" xlink:href="#DejaVuSans-34"/>
       <use x="147.412109" xlink:href="#DejaVuSans-30"/>
       <use x="211.035156" xlink:href="#DejaVuSans-30"/>
      </g>
     </g>
    </g>
    <g id="ytick_6">
     <g id="line2d_15">
      <g>
       <use style="stroke:#000000;stroke-width:0.8;" x="57.6" xlink:href="#m05381801d0" y="76.651733"/>
      </g>
     </g>
     <g id="text_16">
      <!-- −200 -->
      <g transform="translate(23.132812 80.450951)scale(0.1 -0.1)">
       <use xlink:href="#DejaVuSans-2212"/>
       <use x="83.789062" xlink:href="#DejaVuSans-32"/>
       <use x="147.412109" xlink:href="#DejaVuSans-30"/>
       <use x="211.035156" xlink:href="#DejaVuSans-30"/>
      </g>
     </g>
    </g>
    <g id="text_17">
     <!-- Loss -->
     <g transform="translate(9.650781 190.978781)rotate(-90)scale(0.15 -0.15)">
      <defs>
       <path d="M 628 4666 
L 1259 4666 
L 1259 531 
L 3531 531 
L 3531 0 
L 628 0 
L 628 4666 
z
" id="DejaVuSans-4c" transform="scale(0.015625)"/>
       <path d="M 2834 3397 
L 2834 2853 
Q 2591 2978 2328 3040 
Q 2066 3103 1784 3103 
Q 1356 3103 1142 2972 
Q 928 2841 928 2578 
Q 928 2378 1081 2264 
Q 1234 2150 1697 2047 
L 1894 2003 
Q 2506 1872 2764 1633 
Q 3022 1394 3022 966 
Q 3022 478 2636 193 
Q 2250 -91 1575 -91 
Q 1294 -91 989 -36 
Q 684 19 347 128 
L 347 722 
Q 666 556 975 473 
Q 1284 391 1588 391 
Q 1994 391 2212 530 
Q 2431 669 2431 922 
Q 2431 1156 2273 1281 
Q 2116 1406 1581 1522 
L 1381 1569 
Q 847 1681 609 1914 
Q 372 2147 372 2553 
Q 372 3047 722 3315 
Q 1072 3584 1716 3584 
Q 2034 3584 2315 3537 
Q 2597 3491 2834 3397 
z
" id="DejaVuSans-73" transform="scale(0.015625)"/>
      </defs>
      <use xlink:href="#DejaVuSans-4c"/>
      <use x="53.962891" xlink:href="#DejaVuSans-6f"/>
      <use x="115.144531" xlink:href="#DejaVuSans-73"/>
      <use x="167.244141" xlink:href="#DejaVuSans-73"/>
     </g>
    </g>
   </g>
   <g id="line2d_16">
    <path clip-path="url(#pc8212309a1)" d="M 73.832727 60.02606 
L 74.646398 117.0982 
L 75.460068 141.438363 
L 76.273739 138.31277 
L 77.087409 126.697214 
L 77.90108 156.49091 
L 78.714751 145.28246 
L 79.528421 177.460598 
L 80.342092 182.452175 
L 81.155762 172.681199 
L 81.969433 190.440811 
L 82.783103 184.719087 
L 84.410444 199.334135 
L 85.224115 205.591801 
L 86.037785 199.879592 
L 86.851456 224.255592 
L 87.665126 214.54308 
L 88.478797 218.358672 
L 89.292468 226.700932 
L 90.106138 214.672691 
L 90.919809 224.839654 
L 91.733479 221.132033 
L 92.54715 220.583626 
L 93.36082 233.07275 
L 94.174491 232.295122 
L 94.988161 220.414662 
L 95.801832 218.690867 
L 96.615502 220.915502 
L 97.429173 241.90426 
L 98.242843 226.931349 
L 99.056514 228.031752 
L 99.870185 228.844418 
L 100.683855 226.107869 
L 101.497526 233.629173 
L 102.311196 235.829539 
L 103.124867 231.571016 
L 103.938537 230.796589 
L 104.752208 227.610447 
L 105.565878 236.106848 
L 106.379549 238.459427 
L 107.193219 238.686735 
L 108.82056 234.781031 
L 109.634231 231.801841 
L 110.447902 247.935883 
L 111.261572 235.610067 
L 112.075243 241.033198 
L 112.888913 250.91966 
L 113.702584 234.696271 
L 114.516254 249.429808 
L 115.329925 238.582655 
L 116.143595 240.709071 
L 116.957266 241.735543 
L 117.770936 239.793939 
L 118.584607 245.468226 
L 119.398278 237.168856 
L 120.211948 248.098415 
L 121.025619 240.699358 
L 121.839289 247.556338 
L 122.65296 237.009345 
L 123.46663 237.77344 
L 124.280301 245.808406 
L 125.093971 244.685899 
L 125.907642 242.659187 
L 126.721312 229.800675 
L 127.534983 237.962176 
L 128.348653 249.734348 
L 129.162324 232.476545 
L 129.975995 253.676467 
L 130.789665 255.650303 
L 131.603336 242.433093 
L 132.417006 254.359069 
L 134.044347 246.768347 
L 134.858018 241.500642 
L 135.671688 250.219423 
L 136.485359 236.460167 
L 137.299029 254.280191 
L 138.1127 261.747606 
L 138.92637 244.607912 
L 139.740041 230.634196 
L 140.553712 247.38612 
L 141.367382 237.781071 
L 142.181053 240.66981 
L 142.994723 259.900485 
L 143.808394 244.911821 
L 144.622064 251.295509 
L 145.435735 243.998749 
L 146.249405 246.586831 
L 147.063076 241.544366 
L 147.876746 257.200587 
L 149.504087 235.84406 
L 150.317758 263.957587 
L 151.131429 245.937211 
L 151.945099 239.643713 
L 152.75877 239.842933 
L 153.57244 251.357015 
L 154.386111 259.512322 
L 155.199781 256.551742 
L 156.013452 249.578823 
L 156.827122 248.278996 
L 157.640793 256.381155 
L 158.454463 242.035841 
L 159.268134 253.713761 
L 160.081805 248.581151 
L 160.895475 261.241516 
L 161.709146 263.565729 
L 162.522816 250.329758 
L 163.336487 253.293484 
L 164.150157 247.250062 
L 164.963828 251.333348 
L 165.777498 242.406532 
L 166.591169 240.326721 
L 167.404839 245.179941 
L 168.21851 246.908079 
L 169.03218 260.695002 
L 169.845851 266.428423 
L 170.659522 263.852004 
L 172.286863 249.872643 
L 173.100533 267.08677 
L 173.914204 244.359333 
L 174.727874 251.001389 
L 175.541545 255.554505 
L 176.355215 261.205629 
L 177.168886 257.609426 
L 177.982556 268.370531 
L 178.796227 270.643056 
L 179.609897 254.86429 
L 180.423568 260.270757 
L 181.237239 261.325446 
L 182.050909 265.41642 
L 182.86458 249.129891 
L 183.67825 259.315647 
L 184.491921 267.349484 
L 185.305591 240.295568 
L 186.119262 259.391691 
L 186.932932 255.248463 
L 187.746603 271.164153 
L 188.560273 264.623177 
L 189.373944 263.769305 
L 190.187614 261.833836 
L 191.001285 255.329496 
L 191.814956 264.475317 
L 192.628626 258.55534 
L 193.442297 259.720944 
L 194.255967 269.367019 
L 195.069638 255.164344 
L 195.883308 260.738077 
L 196.696979 259.086222 
L 197.510649 275.045652 
L 198.32432 273.072211 
L 199.13799 264.427945 
L 199.951661 269.521247 
L 200.765332 261.192118 
L 201.579002 259.495775 
L 202.392673 256.622045 
L 203.206343 266.417139 
L 204.020014 243.114309 
L 204.833684 258.413731 
L 205.647355 266.291382 
L 206.461025 256.984756 
L 207.274696 260.379604 
L 208.088366 261.912935 
L 208.902037 263.749674 
L 209.715707 279.653016 
L 210.529378 252.712525 
L 211.343049 260.081821 
L 212.156719 269.027178 
L 212.97039 265.36407 
L 213.78406 268.719762 
L 214.597731 274.634809 
L 215.411401 279.71413 
L 216.225072 282.657534 
L 217.038742 280.032812 
L 217.852413 248.660831 
L 218.666083 272.256706 
L 219.479754 273.357643 
L 220.293424 251.018693 
L 221.107095 266.711501 
L 221.920766 258.101735 
L 222.734436 274.306591 
L 223.548107 269.41855 
L 224.361777 256.255602 
L 225.175448 261.245238 
L 225.989118 265.477781 
L 226.802789 260.169392 
L 227.616459 275.386662 
L 228.43013 273.790754 
L 229.2438 270.539471 
L 230.057471 269.080866 
L 230.871141 259.043983 
L 231.684812 257.593418 
L 232.498483 267.265649 
L 233.312153 270.020606 
L 234.125824 271.071698 
L 234.939494 263.276877 
L 235.753165 248.486052 
L 236.566835 267.393337 
L 237.380506 270.626544 
L 238.194176 259.364151 
L 239.821517 291.358204 
L 240.635188 254.740465 
L 241.448859 280.628752 
L 242.262529 268.297258 
L 243.0762 273.109377 
L 243.88987 262.313986 
L 244.703541 260.957754 
L 245.517211 265.605684 
L 246.330882 259.516992 
L 247.144552 263.549689 
L 247.958223 292.377402 
L 248.771893 267.151588 
L 249.585564 268.063528 
L 250.399234 262.672109 
L 251.212905 259.742482 
L 252.026576 247.503221 
L 252.840246 279.041234 
L 253.653917 264.150541 
L 254.467587 273.268551 
L 255.281258 257.755557 
L 256.094928 280.45373 
L 256.908599 256.914693 
L 257.722269 263.569417 
L 258.53594 272.476032 
L 259.34961 277.535429 
L 260.163281 265.720129 
L 260.976951 275.661731 
L 261.790622 262.200913 
L 262.604293 258.202569 
L 263.417963 262.467053 
L 264.231634 283.929368 
L 265.045304 280.942754 
L 265.858975 264.752873 
L 266.672645 281.518297 
L 267.486316 281.58397 
L 268.299986 272.703439 
L 269.113657 255.865336 
L 269.927327 286.673966 
L 270.740998 264.413414 
L 271.554668 268.270358 
L 272.368339 250.534504 
L 273.18201 262.507107 
L 274.809351 279.437508 
L 275.623021 270.416991 
L 276.436692 278.816238 
L 277.250362 266.175687 
L 278.064033 284.044516 
L 278.877703 268.751952 
L 279.691374 280.462915 
L 280.505044 263.621378 
L 281.318715 255.665771 
L 282.132386 262.28369 
L 282.946056 271.680453 
L 283.759727 264.278312 
L 284.573397 259.466075 
L 285.387068 279.502923 
L 286.200738 278.626838 
L 287.014409 273.613286 
L 287.828079 284.930504 
L 288.64175 279.567754 
L 289.45542 258.742576 
L 290.269091 262.957604 
L 291.082761 270.883319 
L 291.896432 276.978386 
L 292.710103 288.036822 
L 293.523773 260.988312 
L 294.337444 262.285475 
L 295.151114 271.827433 
L 295.964785 265.679693 
L 296.778455 272.480433 
L 297.592126 275.45473 
L 298.405796 260.911356 
L 299.219467 272.138591 
L 300.033137 280.258648 
L 300.846808 260.233704 
L 301.660478 270.925177 
L 302.474149 258.9969 
L 303.28782 270.261541 
L 304.10149 273.558906 
L 304.915161 264.961221 
L 305.728831 276.260205 
L 306.542502 265.250019 
L 307.356172 270.262592 
L 308.169843 266.10482 
L 308.983513 268.087988 
L 309.797184 276.929173 
L 310.610854 282.207024 
L 311.424525 269.817549 
L 312.238195 292.919471 
L 313.051866 250.184859 
L 313.865537 258.214089 
L 314.679207 280.043876 
L 315.492878 270.674408 
L 316.306548 285.300014 
L 317.120219 273.038259 
L 317.933889 268.184997 
L 318.74756 272.585196 
L 319.56123 274.48745 
L 320.374901 279.720408 
L 321.188571 278.372218 
L 322.002242 274.948542 
L 322.815913 282.70146 
L 323.629583 285.435828 
L 324.443254 257.501907 
L 325.256924 274.330311 
L 326.070595 285.298936 
L 326.884265 277.516232 
L 327.697936 267.061312 
L 329.325277 278.575828 
L 330.138947 265.888392 
L 330.952618 288.369565 
L 331.766288 267.984548 
L 332.579959 277.886606 
L 333.39363 276.191646 
L 334.2073 273.506371 
L 335.020971 276.729271 
L 335.834641 276.141652 
L 336.648312 257.371572 
L 337.461982 260.184486 
L 338.275653 264.601868 
L 339.089323 264.005888 
L 339.902994 265.738615 
L 340.716664 275.144454 
L 341.530335 267.094636 
L 342.344005 282.962927 
L 343.157676 280.688752 
L 343.971347 269.223779 
L 344.785017 280.985511 
L 345.598688 273.931791 
L 346.412358 273.805885 
L 347.226029 285.733677 
L 348.039699 264.791548 
L 348.85337 281.968498 
L 349.66704 268.338074 
L 350.480711 265.426542 
L 351.294381 269.775421 
L 352.108052 274.891368 
L 352.921722 269.71006 
L 353.735393 267.350694 
L 354.549064 266.255138 
L 355.362734 265.768003 
L 356.176405 282.19129 
L 356.990075 279.397389 
L 357.803746 258.122521 
L 358.617416 279.934845 
L 359.431087 295.488 
L 360.244757 263.535924 
L 361.058428 283.958867 
L 361.872098 273.540022 
L 362.685769 270.871625 
L 363.49944 274.19251 
L 364.31311 279.957561 
L 365.126781 269.007033 
L 365.940451 283.202024 
L 366.754122 277.758932 
L 367.567792 294.837743 
L 368.381463 272.189538 
L 369.195133 283.295429 
L 370.008804 288.975741 
L 370.822474 272.278418 
L 371.636145 279.943573 
L 372.449815 268.969214 
L 373.263486 269.194423 
L 374.077157 279.938059 
L 374.890827 271.816993 
L 375.704498 271.475456 
L 376.518168 269.810996 
L 377.331839 294.263939 
L 378.145509 271.102732 
L 378.95918 269.657908 
L 379.77285 268.444166 
L 380.586521 273.796177 
L 381.400191 253.694714 
L 382.213862 287.411763 
L 383.027532 270.604871 
L 383.841203 279.128045 
L 384.654874 265.102905 
L 385.468544 284.858687 
L 386.282215 270.969396 
L 387.095885 276.972565 
L 387.909556 277.13534 
L 388.723226 259.197811 
L 390.350567 289.833022 
L 391.164238 268.414297 
L 391.977908 275.036698 
L 392.791579 284.595298 
L 393.605249 265.979027 
L 394.41892 270.07078 
L 395.232591 291.091841 
L 396.859932 273.13158 
L 397.673602 263.417772 
L 398.487273 268.245702 
L 398.487273 268.245702 
" style="fill:none;stroke:#1f77b4;stroke-linecap:square;stroke-width:1.5;"/>
   </g>
   <g id="line2d_17">
    <path clip-path="url(#pc8212309a1)" d="M 73.832727 53.568 
L 74.646398 110.811893 
L 75.460068 123.17848 
L 76.273739 125.243549 
L 77.087409 134.095411 
L 77.90108 158.499152 
L 78.714751 144.566698 
L 79.528421 154.958776 
L 80.342092 163.313726 
L 81.155762 163.825632 
L 81.969433 174.178156 
L 82.783103 164.712823 
L 83.596774 181.219626 
L 84.410444 182.966937 
L 85.224115 182.065119 
L 86.037785 182.626198 
L 86.851456 186.43253 
L 87.665126 208.651544 
L 88.478797 198.547146 
L 89.292468 194.267581 
L 90.106138 210.617993 
L 90.919809 206.443631 
L 92.54715 216.240015 
L 93.36082 209.453027 
L 94.174491 207.267736 
L 94.988161 210.553138 
L 95.801832 224.8063 
L 96.615502 220.273404 
L 97.429173 223.142117 
L 98.242843 222.291752 
L 99.056514 234.300983 
L 99.870185 217.463628 
L 100.683855 246.383711 
L 101.497526 241.114954 
L 102.311196 226.199962 
L 103.124867 232.018075 
L 103.938537 240.093753 
L 104.752208 231.777913 
L 105.565878 233.65145 
L 106.379549 238.015588 
L 107.193219 224.523253 
L 108.00689 225.251461 
L 108.82056 248.623921 
L 109.634231 241.618914 
L 110.447902 239.929301 
L 111.261572 232.479445 
L 112.075243 243.112516 
L 112.888913 228.539828 
L 113.702584 229.849453 
L 114.516254 239.490505 
L 115.329925 244.31429 
L 116.143595 239.206891 
L 116.957266 232.804284 
L 117.770936 243.801024 
L 118.584607 236.994386 
L 119.398278 237.566279 
L 120.211948 222.761892 
L 121.025619 244.682894 
L 121.839289 232.231642 
L 122.65296 230.214606 
L 123.46663 246.065802 
L 124.280301 245.428362 
L 125.093971 252.355595 
L 125.907642 240.656347 
L 126.721312 234.79149 
L 127.534983 238.944914 
L 128.348653 237.201339 
L 129.162324 241.920603 
L 129.975995 250.914827 
L 130.789665 239.526826 
L 131.603336 238.991911 
L 132.417006 246.617236 
L 133.230677 239.123877 
L 134.044347 253.808351 
L 134.858018 233.681537 
L 135.671688 252.552617 
L 136.485359 232.815441 
L 137.299029 231.6831 
L 138.1127 229.592331 
L 138.92637 231.296149 
L 139.740041 228.150372 
L 140.553712 234.006589 
L 141.367382 242.980314 
L 142.181053 246.735156 
L 142.994723 242.13202 
L 143.808394 243.886262 
L 144.622064 238.613857 
L 145.435735 240.960061 
L 146.249405 245.048772 
L 147.063076 237.451471 
L 147.876746 245.028536 
L 148.690417 247.335131 
L 149.504087 248.540854 
L 150.317758 245.82676 
L 151.945099 237.331372 
L 152.75877 235.033532 
L 153.57244 247.351942 
L 154.386111 230.794756 
L 155.199781 257.24462 
L 156.013452 253.675311 
L 156.827122 232.445923 
L 157.640793 249.18422 
L 158.454463 239.083509 
L 159.268134 233.560625 
L 160.081805 254.625596 
L 160.895475 244.304038 
L 161.709146 237.181943 
L 163.336487 246.043882 
L 164.150157 240.755514 
L 164.963828 253.134473 
L 165.777498 240.356029 
L 166.591169 236.453068 
L 167.404839 253.308076 
L 168.21851 253.679218 
L 169.03218 257.203325 
L 169.845851 252.433015 
L 170.659522 253.111803 
L 171.473192 258.270417 
L 172.286863 244.307263 
L 173.100533 266.052722 
L 173.914204 241.209823 
L 174.727874 242.115501 
L 175.541545 245.480523 
L 176.355215 259.167821 
L 177.168886 269.669881 
L 177.982556 248.222674 
L 178.796227 243.796494 
L 179.609897 245.561898 
L 180.423568 256.59142 
L 181.237239 255.492223 
L 182.050909 233.712451 
L 182.86458 256.975331 
L 183.67825 239.750318 
L 184.491921 236.979204 
L 185.305591 252.780745 
L 186.119262 253.390027 
L 186.932932 242.750757 
L 188.560273 255.065168 
L 189.373944 246.065418 
L 190.187614 255.657577 
L 191.814956 241.102609 
L 192.628626 234.831972 
L 193.442297 249.323067 
L 194.255967 250.236633 
L 195.069638 236.580749 
L 195.883308 248.358858 
L 196.696979 247.075056 
L 197.510649 255.134767 
L 198.32432 249.861077 
L 199.13799 261.015292 
L 199.951661 252.363471 
L 200.765332 256.744698 
L 201.579002 257.721422 
L 202.392673 255.235608 
L 203.206343 256.273629 
L 204.020014 262.117214 
L 205.647355 241.956941 
L 206.461025 254.984149 
L 207.274696 259.793804 
L 208.088366 258.223373 
L 209.715707 244.226704 
L 210.529378 248.093424 
L 211.343049 250.817865 
L 212.156719 252.782974 
L 212.97039 251.631802 
L 213.78406 264.475161 
L 214.597731 252.974054 
L 215.411401 258.820706 
L 216.225072 246.826639 
L 217.038742 262.279319 
L 217.852413 262.149221 
L 218.666083 254.314676 
L 219.479754 249.45621 
L 220.293424 262.326205 
L 221.107095 264.019887 
L 221.920766 258.482487 
L 222.734436 255.832928 
L 223.548107 252.463162 
L 224.361777 253.012776 
L 225.989118 256.030856 
L 226.802789 266.352519 
L 227.616459 245.387873 
L 228.43013 256.446866 
L 229.2438 262.182117 
L 230.057471 257.171982 
L 230.871141 258.754533 
L 231.684812 255.248451 
L 232.498483 246.682852 
L 233.312153 261.093781 
L 234.125824 256.19704 
L 234.939494 267.460921 
L 235.753165 257.578004 
L 236.566835 269.159609 
L 237.380506 259.498177 
L 238.194176 264.10259 
L 239.007847 256.187472 
L 239.821517 279.76182 
L 240.635188 263.325352 
L 241.448859 253.725502 
L 242.262529 268.375698 
L 243.0762 264.670613 
L 243.88987 262.809566 
L 244.703541 257.364931 
L 245.517211 266.795178 
L 246.330882 264.373094 
L 247.144552 243.469335 
L 247.958223 273.984466 
L 248.771893 257.380188 
L 249.585564 247.240996 
L 250.399234 257.075689 
L 251.212905 269.3745 
L 252.026576 249.427333 
L 252.840246 268.967251 
L 253.653917 256.521191 
L 254.467587 249.741881 
L 255.281258 274.570664 
L 256.094928 257.462016 
L 256.908599 247.445243 
L 257.722269 254.576253 
L 258.53594 251.249401 
L 259.34961 259.58657 
L 260.976951 263.784268 
L 261.790622 253.365345 
L 262.604293 266.217976 
L 263.417963 265.99981 
L 264.231634 271.815633 
L 265.045304 265.428891 
L 265.858975 250.048483 
L 266.672645 260.206844 
L 267.486316 258.616304 
L 269.113657 265.091402 
L 269.927327 265.477657 
L 270.740998 253.067306 
L 271.554668 264.3701 
L 272.368339 265.761842 
L 273.18201 263.767391 
L 273.99568 255.409341 
L 274.809351 269.159782 
L 275.623021 271.38589 
L 276.436692 267.311743 
L 277.250362 251.804095 
L 278.064033 256.819152 
L 278.877703 279.156609 
L 279.691374 250.355344 
L 280.505044 279.007133 
L 281.318715 277.590836 
L 282.132386 270.673925 
L 282.946056 272.132385 
L 283.759727 247.340198 
L 284.573397 255.48449 
L 285.387068 270.878564 
L 286.200738 263.772009 
L 287.014409 272.256964 
L 287.828079 268.394512 
L 288.64175 271.377649 
L 289.45542 259.941939 
L 290.269091 253.522378 
L 291.896432 272.169574 
L 292.710103 264.506001 
L 293.523773 268.072548 
L 294.337444 259.47943 
L 295.151114 258.421283 
L 295.964785 261.496919 
L 296.778455 262.072012 
L 297.592126 274.347935 
L 298.405796 270.297537 
L 299.219467 268.018026 
L 300.033137 263.707479 
L 300.846808 261.065791 
L 301.660478 267.224283 
L 302.474149 271.180515 
L 303.28782 264.846048 
L 304.10149 266.706524 
L 304.915161 261.845099 
L 305.728831 269.075706 
L 306.542502 261.329169 
L 307.356172 270.006087 
L 308.169843 263.253784 
L 308.983513 265.192652 
L 309.797184 277.78751 
L 310.610854 261.660131 
L 311.424525 252.433503 
L 312.238195 268.626381 
L 313.051866 263.346418 
L 313.865537 254.960867 
L 314.679207 249.34054 
L 315.492878 271.009098 
L 316.306548 271.822725 
L 317.120219 278.226057 
L 317.933889 281.740637 
L 318.74756 271.152538 
L 319.56123 269.684402 
L 320.374901 283.758538 
L 321.188571 261.211913 
L 322.002242 261.537246 
L 322.815913 262.351889 
L 323.629583 266.574721 
L 324.443254 254.761515 
L 325.256924 273.933696 
L 326.070595 257.387213 
L 326.884265 248.432811 
L 327.697936 259.523349 
L 328.511606 274.114688 
L 329.325277 271.018373 
L 330.138947 270.487172 
L 331.766288 258.085737 
L 332.579959 264.451901 
L 333.39363 273.721061 
L 334.2073 256.851816 
L 335.020971 265.876889 
L 335.834641 262.001895 
L 336.648312 261.346636 
L 338.275653 264.90694 
L 339.089323 257.593916 
L 339.902994 265.572715 
L 340.716664 269.000086 
L 341.530335 274.854234 
L 342.344005 271.482779 
L 343.157676 266.970201 
L 343.971347 281.689465 
L 345.598688 267.397514 
L 346.412358 267.288972 
L 347.226029 276.099685 
L 348.039699 267.371968 
L 348.85337 280.633001 
L 349.66704 254.955523 
L 350.480711 260.987196 
L 351.294381 274.631166 
L 352.108052 271.693459 
L 352.921722 279.963464 
L 353.735393 267.708797 
L 354.549064 261.454562 
L 355.362734 266.964114 
L 356.176405 261.798901 
L 356.990075 263.440488 
L 357.803746 280.74078 
L 358.617416 279.684853 
L 359.431087 264.121858 
L 360.244757 276.66407 
L 361.058428 262.227716 
L 361.872098 264.676733 
L 362.685769 275.452812 
L 363.49944 261.159511 
L 364.31311 270.327471 
L 365.126781 277.580033 
L 365.940451 277.454731 
L 366.754122 254.058221 
L 367.567792 262.835348 
L 368.381463 261.639693 
L 370.008804 274.770696 
L 370.822474 250.076599 
L 371.636145 267.876051 
L 372.449815 274.505844 
L 374.077157 263.829057 
L 374.890827 277.673824 
L 375.704498 265.852089 
L 376.518168 279.294745 
L 377.331839 252.211954 
L 378.145509 276.170997 
L 378.95918 271.333033 
L 379.77285 255.315722 
L 380.586521 277.714143 
L 381.400191 259.489604 
L 382.213862 281.519881 
L 383.027532 278.29897 
L 383.841203 262.632423 
L 384.654874 276.825762 
L 385.468544 265.944716 
L 386.282215 266.047371 
L 387.095885 264.413109 
L 388.723226 267.41901 
L 389.536897 273.949621 
L 390.350567 270.221836 
L 391.164238 284.0441 
L 391.977908 256.166559 
L 392.791579 269.667248 
L 393.605249 266.197153 
L 394.41892 258.239861 
L 395.232591 268.436784 
L 396.046261 269.978288 
L 396.859932 245.150342 
L 397.673602 252.598776 
L 398.487273 276.192409 
L 398.487273 276.192409 
" style="fill:none;stroke:#ff7f0e;stroke-linecap:square;stroke-width:1.5;"/>
   </g>
   <g id="patch_3">
    <path d="M 57.6 307.584 
L 57.6 41.472 
" style="fill:none;stroke:#000000;stroke-linecap:square;stroke-linejoin:miter;stroke-width:0.8;"/>
   </g>
   <g id="patch_4">
    <path d="M 414.72 307.584 
L 414.72 41.472 
" style="fill:none;stroke:#000000;stroke-linecap:square;stroke-linejoin:miter;stroke-width:0.8;"/>
   </g>
   <g id="patch_5">
    <path d="M 57.6 307.584 
L 414.72 307.584 
" style="fill:none;stroke:#000000;stroke-linecap:square;stroke-linejoin:miter;stroke-width:0.8;"/>
   </g>
   <g id="patch_6">
    <path d="M 57.6 41.472 
L 414.72 41.472 
" style="fill:none;stroke:#000000;stroke-linecap:square;stroke-linejoin:miter;stroke-width:0.8;"/>
   </g>
   <g id="legend_1">
    <g id="patch_7">
     <path d="M 281.854375 78.82825 
L 407.72 78.82825 
Q 409.72 78.82825 409.72 76.82825 
L 409.72 48.472 
Q 409.72 46.472 407.72 46.472 
L 281.854375 46.472 
Q 279.854375 46.472 279.854375 48.472 
L 279.854375 76.82825 
Q 279.854375 78.82825 281.854375 78.82825 
z
" style="fill:#ffffff;opacity:0.8;stroke:#cccccc;stroke-linejoin:miter;"/>
    </g>
    <g id="line2d_18">
     <path d="M 283.854375 54.570437 
L 303.854375 54.570437 
" style="fill:none;stroke:#1f77b4;stroke-linecap:square;stroke-width:1.5;"/>
    </g>
    <g id="line2d_19"/>
    <g id="text_18">
     <!-- Without GradNorm -->
     <g transform="translate(311.854375 58.070437)scale(0.1 -0.1)">
      <defs>
       <path d="M 213 4666 
L 850 4666 
L 1831 722 
L 2809 4666 
L 3519 4666 
L 4500 722 
L 5478 4666 
L 6119 4666 
L 4947 0 
L 4153 0 
L 3169 4050 
L 2175 0 
L 1381 0 
L 213 4666 
z
" id="DejaVuSans-57" transform="scale(0.015625)"/>
       <path d="M 603 3500 
L 1178 3500 
L 1178 0 
L 603 0 
L 603 3500 
z
M 603 4863 
L 1178 4863 
L 1178 4134 
L 603 4134 
L 603 4863 
z
" id="DejaVuSans-69" transform="scale(0.015625)"/>
       <path d="M 1172 4494 
L 1172 3500 
L 2356 3500 
L 2356 3053 
L 1172 3053 
L 1172 1153 
Q 1172 725 1289 603 
Q 1406 481 1766 481 
L 2356 481 
L 2356 0 
L 1766 0 
Q 1100 0 847 248 
Q 594 497 594 1153 
L 594 3053 
L 172 3053 
L 172 3500 
L 594 3500 
L 594 4494 
L 1172 4494 
z
" id="DejaVuSans-74" transform="scale(0.015625)"/>
       <path d="M 544 1381 
L 544 3500 
L 1119 3500 
L 1119 1403 
Q 1119 906 1312 657 
Q 1506 409 1894 409 
Q 2359 409 2629 706 
Q 2900 1003 2900 1516 
L 2900 3500 
L 3475 3500 
L 3475 0 
L 2900 0 
L 2900 538 
Q 2691 219 2414 64 
Q 2138 -91 1772 -91 
Q 1169 -91 856 284 
Q 544 659 544 1381 
z
M 1991 3584 
L 1991 3584 
z
" id="DejaVuSans-75" transform="scale(0.015625)"/>
       <path id="DejaVuSans-20" transform="scale(0.015625)"/>
       <path d="M 3809 666 
L 3809 1919 
L 2778 1919 
L 2778 2438 
L 4434 2438 
L 4434 434 
Q 4069 175 3628 42 
Q 3188 -91 2688 -91 
Q 1594 -91 976 548 
Q 359 1188 359 2328 
Q 359 3472 976 4111 
Q 1594 4750 2688 4750 
Q 3144 4750 3555 4637 
Q 3966 4525 4313 4306 
L 4313 3634 
Q 3963 3931 3569 4081 
Q 3175 4231 2741 4231 
Q 1884 4231 1454 3753 
Q 1025 3275 1025 2328 
Q 1025 1384 1454 906 
Q 1884 428 2741 428 
Q 3075 428 3337 486 
Q 3600 544 3809 666 
z
" id="DejaVuSans-47" transform="scale(0.015625)"/>
       <path d="M 2631 2963 
Q 2534 3019 2420 3045 
Q 2306 3072 2169 3072 
Q 1681 3072 1420 2755 
Q 1159 2438 1159 1844 
L 1159 0 
L 581 0 
L 581 3500 
L 1159 3500 
L 1159 2956 
Q 1341 3275 1631 3429 
Q 1922 3584 2338 3584 
Q 2397 3584 2469 3576 
Q 2541 3569 2628 3553 
L 2631 2963 
z
" id="DejaVuSans-72" transform="scale(0.015625)"/>
       <path d="M 2194 1759 
Q 1497 1759 1228 1600 
Q 959 1441 959 1056 
Q 959 750 1161 570 
Q 1363 391 1709 391 
Q 2188 391 2477 730 
Q 2766 1069 2766 1631 
L 2766 1759 
L 2194 1759 
z
M 3341 1997 
L 3341 0 
L 2766 0 
L 2766 531 
Q 2569 213 2275 61 
Q 1981 -91 1556 -91 
Q 1019 -91 701 211 
Q 384 513 384 1019 
Q 384 1609 779 1909 
Q 1175 2209 1959 2209 
L 2766 2209 
L 2766 2266 
Q 2766 2663 2505 2880 
Q 2244 3097 1772 3097 
Q 1472 3097 1187 3025 
Q 903 2953 641 2809 
L 641 3341 
Q 956 3463 1253 3523 
Q 1550 3584 1831 3584 
Q 2591 3584 2966 3190 
Q 3341 2797 3341 1997 
z
" id="DejaVuSans-61" transform="scale(0.015625)"/>
       <path d="M 2906 2969 
L 2906 4863 
L 3481 4863 
L 3481 0 
L 2906 0 
L 2906 525 
Q 2725 213 2448 61 
Q 2172 -91 1784 -91 
Q 1150 -91 751 415 
Q 353 922 353 1747 
Q 353 2572 751 3078 
Q 1150 3584 1784 3584 
Q 2172 3584 2448 3432 
Q 2725 3281 2906 2969 
z
M 947 1747 
Q 947 1113 1208 752 
Q 1469 391 1925 391 
Q 2381 391 2643 752 
Q 2906 1113 2906 1747 
Q 2906 2381 2643 2742 
Q 2381 3103 1925 3103 
Q 1469 3103 1208 2742 
Q 947 2381 947 1747 
z
" id="DejaVuSans-64" transform="scale(0.015625)"/>
       <path d="M 628 4666 
L 1478 4666 
L 3547 763 
L 3547 4666 
L 4159 4666 
L 4159 0 
L 3309 0 
L 1241 3903 
L 1241 0 
L 628 0 
L 628 4666 
z
" id="DejaVuSans-4e" transform="scale(0.015625)"/>
       <path d="M 3328 2828 
Q 3544 3216 3844 3400 
Q 4144 3584 4550 3584 
Q 5097 3584 5394 3201 
Q 5691 2819 5691 2113 
L 5691 0 
L 5113 0 
L 5113 2094 
Q 5113 2597 4934 2840 
Q 4756 3084 4391 3084 
Q 3944 3084 3684 2787 
Q 3425 2491 3425 1978 
L 3425 0 
L 2847 0 
L 2847 2094 
Q 2847 2600 2669 2842 
Q 2491 3084 2119 3084 
Q 1678 3084 1418 2786 
Q 1159 2488 1159 1978 
L 1159 0 
L 581 0 
L 581 3500 
L 1159 3500 
L 1159 2956 
Q 1356 3278 1631 3431 
Q 1906 3584 2284 3584 
Q 2666 3584 2933 3390 
Q 3200 3197 3328 2828 
z
" id="DejaVuSans-6d" transform="scale(0.015625)"/>
      </defs>
      <use xlink:href="#DejaVuSans-57"/>
      <use x="96.626953" xlink:href="#DejaVuSans-69"/>
      <use x="124.410156" xlink:href="#DejaVuSans-74"/>
      <use x="163.619141" xlink:href="#DejaVuSans-68"/>
      <use x="226.998047" xlink:href="#DejaVuSans-6f"/>
      <use x="288.179688" xlink:href="#DejaVuSans-75"/>
      <use x="351.558594" xlink:href="#DejaVuSans-74"/>
      <use x="390.767578" xlink:href="#DejaVuSans-20"/>
      <use x="422.554688" xlink:href="#DejaVuSans-47"/>
      <use x="500.044922" xlink:href="#DejaVuSans-72"/>
      <use x="541.158203" xlink:href="#DejaVuSans-61"/>
      <use x="602.4375" xlink:href="#DejaVuSans-64"/>
      <use x="665.914062" xlink:href="#DejaVuSans-4e"/>
      <use x="740.71875" xlink:href="#DejaVuSans-6f"/>
      <use x="801.900391" xlink:href="#DejaVuSans-72"/>
      <use x="841.263672" xlink:href="#DejaVuSans-6d"/>
     </g>
    </g>
    <g id="line2d_20">
     <path d="M 283.854375 69.248562 
L 303.854375 69.248562 
" style="fill:none;stroke:#ff7f0e;stroke-linecap:square;stroke-width:1.5;"/>
    </g>
    <g id="line2d_21"/>
    <g id="text_19">
     <!-- With GradNorm -->
     <g transform="translate(311.854375 72.748562)scale(0.1 -0.1)">
      <use xlink:href="#DejaVuSans-57"/>
      <use x="96.626953" xlink:href="#DejaVuSans-69"/>
      <use x="124.410156" xlink:href="#DejaVuSans-74"/>
      <use x="163.619141" xlink:href="#DejaVuSans-68"/>
      <use x="226.998047" xlink:href="#DejaVuSans-20"/>
      <use x="258.785156" xlink:href="#DejaVuSans-47"/>
      <use x="336.275391" xlink:href="#DejaVuSans-72"/>
      <use x="377.388672" xlink:href="#DejaVuSans-61"/>
      <use x="438.667969" xlink:href="#DejaVuSans-64"/>
      <use x="502.144531" xlink:href="#DejaVuSans-4e"/>
      <use x="576.949219" xlink:href="#DejaVuSans-6f"/>
      <use x="638.130859" xlink:href="#DejaVuSans-72"/>
      <use x="677.494141" xlink:href="#DejaVuSans-6d"/>
     </g>
    </g>
   </g>
  </g>
 </g>
 <defs>
  <clipPath id="pc8212309a1">
   <rect height="266.112" width="357.12" x="57.6" y="41.472"/>
  </clipPath>
 </defs>
</svg>
