<?xml version="1.0" encoding="utf-8" standalone="no"?>
<!DOCTYPE svg PUBLIC "-//W3C//DTD SVG 1.1//EN"
  "http://www.w3.org/Graphics/SVG/1.1/DTD/svg11.dtd">
<svg height="345.6pt" version="1.1" viewBox="0 0 460.8 345.6" width="460.8pt" xmlns="http://www.w3.org/2000/svg" xmlns:xlink="http://www.w3.org/1999/xlink">
 <metadata>
  <rdf:RDF xmlns:cc="http://creativecommons.org/ns#" xmlns:dc="http://purl.org/dc/elements/1.1/" xmlns:rdf="http://www.w3.org/1999/02/22-rdf-syntax-ns#">
   <cc:Work>
    <dc:type rdf:resource="http://purl.org/dc/dcmitype/StillImage"/>
    <dc:date>2021-07-16T20:15:59.139627</dc:date>
    <dc:format>image/svg+xml</dc:format>
    <dc:creator>
     <cc:Agent>
      <dc:title>Matplotlib v3.4.2, https://matplotlib.org/</dc:title>
     </cc:Agent>
    </dc:creator>
   </cc:Work>
  </rdf:RDF>
 </metadata>
 <defs>
  <style type="text/css">*{stroke-linecap:butt;stroke-linejoin:round;}</style>
 </defs>
 <g id="figure_1">
  <g id="patch_1">
   <path d="M 0 345.6 
L 460.8 345.6 
L 460.8 0 
L 0 0 
z
" style="fill:#ffffff;"/>
  </g>
  <g id="axes_1">
   <g id="patch_2">
    <path d="M 57.6 307.584 
L 414.72 307.584 
L 414.72 41.472 
L 57.6 41.472 
z
" style="fill:#ffffff;"/>
   </g>
   <g id="matplotlib.axis_1">
    <g id="xtick_1">
     <g id="line2d_1">
      <defs>
       <path d="M 0 0 
L 0 3.5 
" id="m704b1cc498" style="stroke:#000000;stroke-width:0.8;"/>
      </defs>
      <g>
       <use style="stroke:#000000;stroke-width:0.8;" x="73.019057" xlink:href="#m704b1cc498" y="307.584"/>
      </g>
     </g>
     <g id="text_1">
      <!-- 0 -->
      <g transform="translate(69.837807 322.182437)scale(0.1 -0.1)">
       <defs>
        <path d="M 2034 4250 
Q 1547 4250 1301 3770 
Q 1056 3291 1056 2328 
Q 1056 1369 1301 889 
Q 1547 409 2034 409 
Q 2525 409 2770 889 
Q 3016 1369 3016 2328 
Q 3016 3291 2770 3770 
Q 2525 4250 2034 4250 
z
M 2034 4750 
Q 2819 4750 3233 4129 
Q 3647 3509 3647 2328 
Q 3647 1150 3233 529 
Q 2819 -91 2034 -91 
Q 1250 -91 836 529 
Q 422 1150 422 2328 
Q 422 3509 836 4129 
Q 1250 4750 2034 4750 
z
" id="DejaVuSans-30" transform="scale(0.015625)"/>
       </defs>
       <use xlink:href="#DejaVuSans-30"/>
      </g>
     </g>
    </g>
    <g id="xtick_2">
     <g id="line2d_2">
      <g>
       <use style="stroke:#000000;stroke-width:0.8;" x="113.702584" xlink:href="#m704b1cc498" y="307.584"/>
      </g>
     </g>
     <g id="text_2">
      <!-- 50 -->
      <g transform="translate(107.340084 322.182437)scale(0.1 -0.1)">
       <defs>
        <path d="M 691 4666 
L 3169 4666 
L 3169 4134 
L 1269 4134 
L 1269 2991 
Q 1406 3038 1543 3061 
Q 1681 3084 1819 3084 
Q 2600 3084 3056 2656 
Q 3513 2228 3513 1497 
Q 3513 744 3044 326 
Q 2575 -91 1722 -91 
Q 1428 -91 1123 -41 
Q 819 9 494 109 
L 494 744 
Q 775 591 1075 516 
Q 1375 441 1709 441 
Q 2250 441 2565 725 
Q 2881 1009 2881 1497 
Q 2881 1984 2565 2268 
Q 2250 2553 1709 2553 
Q 1456 2553 1204 2497 
Q 953 2441 691 2322 
L 691 4666 
z
" id="DejaVuSans-35" transform="scale(0.015625)"/>
       </defs>
       <use xlink:href="#DejaVuSans-35"/>
       <use x="63.623047" xlink:href="#DejaVuSans-30"/>
      </g>
     </g>
    </g>
    <g id="xtick_3">
     <g id="line2d_3">
      <g>
       <use style="stroke:#000000;stroke-width:0.8;" x="154.386111" xlink:href="#m704b1cc498" y="307.584"/>
      </g>
     </g>
     <g id="text_3">
      <!-- 100 -->
      <g transform="translate(144.842361 322.182437)scale(0.1 -0.1)">
       <defs>
        <path d="M 794 531 
L 1825 531 
L 1825 4091 
L 703 3866 
L 703 4441 
L 1819 4666 
L 2450 4666 
L 2450 531 
L 3481 531 
L 3481 0 
L 794 0 
L 794 531 
z
" id="DejaVuSans-31" transform="scale(0.015625)"/>
       </defs>
       <use xlink:href="#DejaVuSans-31"/>
       <use x="63.623047" xlink:href="#DejaVuSans-30"/>
       <use x="127.246094" xlink:href="#DejaVuSans-30"/>
      </g>
     </g>
    </g>
    <g id="xtick_4">
     <g id="line2d_4">
      <g>
       <use style="stroke:#000000;stroke-width:0.8;" x="195.069638" xlink:href="#m704b1cc498" y="307.584"/>
      </g>
     </g>
     <g id="text_4">
      <!-- 150 -->
      <g transform="translate(185.525888 322.182437)scale(0.1 -0.1)">
       <use xlink:href="#DejaVuSans-31"/>
       <use x="63.623047" xlink:href="#DejaVuSans-35"/>
       <use x="127.246094" xlink:href="#DejaVuSans-30"/>
      </g>
     </g>
    </g>
    <g id="xtick_5">
     <g id="line2d_5">
      <g>
       <use style="stroke:#000000;stroke-width:0.8;" x="235.753165" xlink:href="#m704b1cc498" y="307.584"/>
      </g>
     </g>
     <g id="text_5">
      <!-- 200 -->
      <g transform="translate(226.209415 322.182437)scale(0.1 -0.1)">
       <defs>
        <path d="M 1228 531 
L 3431 531 
L 3431 0 
L 469 0 
L 469 531 
Q 828 903 1448 1529 
Q 2069 2156 2228 2338 
Q 2531 2678 2651 2914 
Q 2772 3150 2772 3378 
Q 2772 3750 2511 3984 
Q 2250 4219 1831 4219 
Q 1534 4219 1204 4116 
Q 875 4013 500 3803 
L 500 4441 
Q 881 4594 1212 4672 
Q 1544 4750 1819 4750 
Q 2544 4750 2975 4387 
Q 3406 4025 3406 3419 
Q 3406 3131 3298 2873 
Q 3191 2616 2906 2266 
Q 2828 2175 2409 1742 
Q 1991 1309 1228 531 
z
" id="DejaVuSans-32" transform="scale(0.015625)"/>
       </defs>
       <use xlink:href="#DejaVuSans-32"/>
       <use x="63.623047" xlink:href="#DejaVuSans-30"/>
       <use x="127.246094" xlink:href="#DejaVuSans-30"/>
      </g>
     </g>
    </g>
    <g id="xtick_6">
     <g id="line2d_6">
      <g>
       <use style="stroke:#000000;stroke-width:0.8;" x="276.436692" xlink:href="#m704b1cc498" y="307.584"/>
      </g>
     </g>
     <g id="text_6">
      <!-- 250 -->
      <g transform="translate(266.892942 322.182437)scale(0.1 -0.1)">
       <use xlink:href="#DejaVuSans-32"/>
       <use x="63.623047" xlink:href="#DejaVuSans-35"/>
       <use x="127.246094" xlink:href="#DejaVuSans-30"/>
      </g>
     </g>
    </g>
    <g id="xtick_7">
     <g id="line2d_7">
      <g>
       <use style="stroke:#000000;stroke-width:0.8;" x="317.120219" xlink:href="#m704b1cc498" y="307.584"/>
      </g>
     </g>
     <g id="text_7">
      <!-- 300 -->
      <g transform="translate(307.576469 322.182437)scale(0.1 -0.1)">
       <defs>
        <path d="M 2597 2516 
Q 3050 2419 3304 2112 
Q 3559 1806 3559 1356 
Q 3559 666 3084 287 
Q 2609 -91 1734 -91 
Q 1441 -91 1130 -33 
Q 819 25 488 141 
L 488 750 
Q 750 597 1062 519 
Q 1375 441 1716 441 
Q 2309 441 2620 675 
Q 2931 909 2931 1356 
Q 2931 1769 2642 2001 
Q 2353 2234 1838 2234 
L 1294 2234 
L 1294 2753 
L 1863 2753 
Q 2328 2753 2575 2939 
Q 2822 3125 2822 3475 
Q 2822 3834 2567 4026 
Q 2313 4219 1838 4219 
Q 1578 4219 1281 4162 
Q 984 4106 628 3988 
L 628 4550 
Q 988 4650 1302 4700 
Q 1616 4750 1894 4750 
Q 2613 4750 3031 4423 
Q 3450 4097 3450 3541 
Q 3450 3153 3228 2886 
Q 3006 2619 2597 2516 
z
" id="DejaVuSans-33" transform="scale(0.015625)"/>
       </defs>
       <use xlink:href="#DejaVuSans-33"/>
       <use x="63.623047" xlink:href="#DejaVuSans-30"/>
       <use x="127.246094" xlink:href="#DejaVuSans-30"/>
      </g>
     </g>
    </g>
    <g id="xtick_8">
     <g id="line2d_8">
      <g>
       <use style="stroke:#000000;stroke-width:0.8;" x="357.803746" xlink:href="#m704b1cc498" y="307.584"/>
      </g>
     </g>
     <g id="text_8">
      <!-- 350 -->
      <g transform="translate(348.259996 322.182437)scale(0.1 -0.1)">
       <use xlink:href="#DejaVuSans-33"/>
       <use x="63.623047" xlink:href="#DejaVuSans-35"/>
       <use x="127.246094" xlink:href="#DejaVuSans-30"/>
      </g>
     </g>
    </g>
    <g id="xtick_9">
     <g id="line2d_9">
      <g>
       <use style="stroke:#000000;stroke-width:0.8;" x="398.487273" xlink:href="#m704b1cc498" y="307.584"/>
      </g>
     </g>
     <g id="text_9">
      <!-- 400 -->
      <g transform="translate(388.943523 322.182437)scale(0.1 -0.1)">
       <defs>
        <path d="M 2419 4116 
L 825 1625 
L 2419 1625 
L 2419 4116 
z
M 2253 4666 
L 3047 4666 
L 3047 1625 
L 3713 1625 
L 3713 1100 
L 3047 1100 
L 3047 0 
L 2419 0 
L 2419 1100 
L 313 1100 
L 313 1709 
L 2253 4666 
z
" id="DejaVuSans-34" transform="scale(0.015625)"/>
       </defs>
       <use xlink:href="#DejaVuSans-34"/>
       <use x="63.623047" xlink:href="#DejaVuSans-30"/>
       <use x="127.246094" xlink:href="#DejaVuSans-30"/>
      </g>
     </g>
    </g>
    <g id="text_10">
     <!-- Epoch -->
     <g transform="translate(213.193594 339.659781)scale(0.15 -0.15)">
      <defs>
       <path d="M 628 4666 
L 3578 4666 
L 3578 4134 
L 1259 4134 
L 1259 2753 
L 3481 2753 
L 3481 2222 
L 1259 2222 
L 1259 531 
L 3634 531 
L 3634 0 
L 628 0 
L 628 4666 
z
" id="DejaVuSans-45" transform="scale(0.015625)"/>
       <path d="M 1159 525 
L 1159 -1331 
L 581 -1331 
L 581 3500 
L 1159 3500 
L 1159 2969 
Q 1341 3281 1617 3432 
Q 1894 3584 2278 3584 
Q 2916 3584 3314 3078 
Q 3713 2572 3713 1747 
Q 3713 922 3314 415 
Q 2916 -91 2278 -91 
Q 1894 -91 1617 61 
Q 1341 213 1159 525 
z
M 3116 1747 
Q 3116 2381 2855 2742 
Q 2594 3103 2138 3103 
Q 1681 3103 1420 2742 
Q 1159 2381 1159 1747 
Q 1159 1113 1420 752 
Q 1681 391 2138 391 
Q 2594 391 2855 752 
Q 3116 1113 3116 1747 
z
" id="DejaVuSans-70" transform="scale(0.015625)"/>
       <path d="M 1959 3097 
Q 1497 3097 1228 2736 
Q 959 2375 959 1747 
Q 959 1119 1226 758 
Q 1494 397 1959 397 
Q 2419 397 2687 759 
Q 2956 1122 2956 1747 
Q 2956 2369 2687 2733 
Q 2419 3097 1959 3097 
z
M 1959 3584 
Q 2709 3584 3137 3096 
Q 3566 2609 3566 1747 
Q 3566 888 3137 398 
Q 2709 -91 1959 -91 
Q 1206 -91 779 398 
Q 353 888 353 1747 
Q 353 2609 779 3096 
Q 1206 3584 1959 3584 
z
" id="DejaVuSans-6f" transform="scale(0.015625)"/>
       <path d="M 3122 3366 
L 3122 2828 
Q 2878 2963 2633 3030 
Q 2388 3097 2138 3097 
Q 1578 3097 1268 2742 
Q 959 2388 959 1747 
Q 959 1106 1268 751 
Q 1578 397 2138 397 
Q 2388 397 2633 464 
Q 2878 531 3122 666 
L 3122 134 
Q 2881 22 2623 -34 
Q 2366 -91 2075 -91 
Q 1284 -91 818 406 
Q 353 903 353 1747 
Q 353 2603 823 3093 
Q 1294 3584 2113 3584 
Q 2378 3584 2631 3529 
Q 2884 3475 3122 3366 
z
" id="DejaVuSans-63" transform="scale(0.015625)"/>
       <path d="M 3513 2113 
L 3513 0 
L 2938 0 
L 2938 2094 
Q 2938 2591 2744 2837 
Q 2550 3084 2163 3084 
Q 1697 3084 1428 2787 
Q 1159 2491 1159 1978 
L 1159 0 
L 581 0 
L 581 4863 
L 1159 4863 
L 1159 2956 
Q 1366 3272 1645 3428 
Q 1925 3584 2291 3584 
Q 2894 3584 3203 3211 
Q 3513 2838 3513 2113 
z
" id="DejaVuSans-68" transform="scale(0.015625)"/>
      </defs>
      <use xlink:href="#DejaVuSans-45"/>
      <use x="63.183594" xlink:href="#DejaVuSans-70"/>
      <use x="126.660156" xlink:href="#DejaVuSans-6f"/>
      <use x="187.841797" xlink:href="#DejaVuSans-63"/>
      <use x="242.822266" xlink:href="#DejaVuSans-68"/>
     </g>
    </g>
   </g>
   <g id="matplotlib.axis_2">
    <g id="ytick_1">
     <g id="line2d_10">
      <defs>
       <path d="M 0 0 
L -3.5 0 
" id="m3b22db6aad" style="stroke:#000000;stroke-width:0.8;"/>
      </defs>
      <g>
       <use style="stroke:#000000;stroke-width:0.8;" x="57.6" xlink:href="#m3b22db6aad" y="301.332384"/>
      </g>
     </g>
     <g id="text_11">
      <!-- −1200 -->
      <g transform="translate(16.770313 305.131603)scale(0.1 -0.1)">
       <defs>
        <path d="M 678 2272 
L 4684 2272 
L 4684 1741 
L 678 1741 
L 678 2272 
z
" id="DejaVuSans-2212" transform="scale(0.015625)"/>
       </defs>
       <use xlink:href="#DejaVuSans-2212"/>
       <use x="83.789062" xlink:href="#DejaVuSans-31"/>
       <use x="147.412109" xlink:href="#DejaVuSans-32"/>
       <use x="211.035156" xlink:href="#DejaVuSans-30"/>
       <use x="274.658203" xlink:href="#DejaVuSans-30"/>
      </g>
     </g>
    </g>
    <g id="ytick_2">
     <g id="line2d_11">
      <g>
       <use style="stroke:#000000;stroke-width:0.8;" x="57.6" xlink:href="#m3b22db6aad" y="257.887278"/>
      </g>
     </g>
     <g id="text_12">
      <!-- −1000 -->
      <g transform="translate(16.770313 261.686497)scale(0.1 -0.1)">
       <use xlink:href="#DejaVuSans-2212"/>
       <use x="83.789062" xlink:href="#DejaVuSans-31"/>
       <use x="147.412109" xlink:href="#DejaVuSans-30"/>
       <use x="211.035156" xlink:href="#DejaVuSans-30"/>
       <use x="274.658203" xlink:href="#DejaVuSans-30"/>
      </g>
     </g>
    </g>
    <g id="ytick_3">
     <g id="line2d_12">
      <g>
       <use style="stroke:#000000;stroke-width:0.8;" x="57.6" xlink:href="#m3b22db6aad" y="214.442171"/>
      </g>
     </g>
     <g id="text_13">
      <!-- −800 -->
      <g transform="translate(23.132812 218.24139)scale(0.1 -0.1)">
       <defs>
        <path d="M 2034 2216 
Q 1584 2216 1326 1975 
Q 1069 1734 1069 1313 
Q 1069 891 1326 650 
Q 1584 409 2034 409 
Q 2484 409 2743 651 
Q 3003 894 3003 1313 
Q 3003 1734 2745 1975 
Q 2488 2216 2034 2216 
z
M 1403 2484 
Q 997 2584 770 2862 
Q 544 3141 544 3541 
Q 544 4100 942 4425 
Q 1341 4750 2034 4750 
Q 2731 4750 3128 4425 
Q 3525 4100 3525 3541 
Q 3525 3141 3298 2862 
Q 3072 2584 2669 2484 
Q 3125 2378 3379 2068 
Q 3634 1759 3634 1313 
Q 3634 634 3220 271 
Q 2806 -91 2034 -91 
Q 1263 -91 848 271 
Q 434 634 434 1313 
Q 434 1759 690 2068 
Q 947 2378 1403 2484 
z
M 1172 3481 
Q 1172 3119 1398 2916 
Q 1625 2713 2034 2713 
Q 2441 2713 2670 2916 
Q 2900 3119 2900 3481 
Q 2900 3844 2670 4047 
Q 2441 4250 2034 4250 
Q 1625 4250 1398 4047 
Q 1172 3844 1172 3481 
z
" id="DejaVuSans-38" transform="scale(0.015625)"/>
       </defs>
       <use xlink:href="#DejaVuSans-2212"/>
       <use x="83.789062" xlink:href="#DejaVuSans-38"/>
       <use x="147.412109" xlink:href="#DejaVuSans-30"/>
       <use x="211.035156" xlink:href="#DejaVuSans-30"/>
      </g>
     </g>
    </g>
    <g id="ytick_4">
     <g id="line2d_13">
      <g>
       <use style="stroke:#000000;stroke-width:0.8;" x="57.6" xlink:href="#m3b22db6aad" y="170.997065"/>
      </g>
     </g>
     <g id="text_14">
      <!-- −600 -->
      <g transform="translate(23.132812 174.796284)scale(0.1 -0.1)">
       <defs>
        <path d="M 2113 2584 
Q 1688 2584 1439 2293 
Q 1191 2003 1191 1497 
Q 1191 994 1439 701 
Q 1688 409 2113 409 
Q 2538 409 2786 701 
Q 3034 994 3034 1497 
Q 3034 2003 2786 2293 
Q 2538 2584 2113 2584 
z
M 3366 4563 
L 3366 3988 
Q 3128 4100 2886 4159 
Q 2644 4219 2406 4219 
Q 1781 4219 1451 3797 
Q 1122 3375 1075 2522 
Q 1259 2794 1537 2939 
Q 1816 3084 2150 3084 
Q 2853 3084 3261 2657 
Q 3669 2231 3669 1497 
Q 3669 778 3244 343 
Q 2819 -91 2113 -91 
Q 1303 -91 875 529 
Q 447 1150 447 2328 
Q 447 3434 972 4092 
Q 1497 4750 2381 4750 
Q 2619 4750 2861 4703 
Q 3103 4656 3366 4563 
z
" id="DejaVuSans-36" transform="scale(0.015625)"/>
       </defs>
       <use xlink:href="#DejaVuSans-2212"/>
       <use x="83.789062" xlink:href="#DejaVuSans-36"/>
       <use x="147.412109" xlink:href="#DejaVuSans-30"/>
       <use x="211.035156" xlink:href="#DejaVuSans-30"/>
      </g>
     </g>
    </g>
    <g id="ytick_5">
     <g id="line2d_14">
      <g>
       <use style="stroke:#000000;stroke-width:0.8;" x="57.6" xlink:href="#m3b22db6aad" y="127.551959"/>
      </g>
     </g>
     <g id="text_15">
      <!-- −400 -->
      <g transform="translate(23.132812 131.351177)scale(0.1 -0.1)">
       <use xlink:href="#DejaVuSans-2212"/>
       <use x="83.789062" xlink:href="#DejaVuSans-34"/>
       <use x="147.412109" xlink:href="#DejaVuSans-30"/>
       <use x="211.035156" xlink:href="#DejaVuSans-30"/>
      </g>
     </g>
    </g>
    <g id="ytick_6">
     <g id="line2d_15">
      <g>
       <use style="stroke:#000000;stroke-width:0.8;" x="57.6" xlink:href="#m3b22db6aad" y="84.106852"/>
      </g>
     </g>
     <g id="text_16">
      <!-- −200 -->
      <g transform="translate(23.132812 87.906071)scale(0.1 -0.1)">
       <use xlink:href="#DejaVuSans-2212"/>
       <use x="83.789062" xlink:href="#DejaVuSans-32"/>
       <use x="147.412109" xlink:href="#DejaVuSans-30"/>
       <use x="211.035156" xlink:href="#DejaVuSans-30"/>
      </g>
     </g>
    </g>
    <g id="text_17">
     <!-- Loss -->
     <g transform="translate(9.650781 190.978781)rotate(-90)scale(0.15 -0.15)">
      <defs>
       <path d="M 628 4666 
L 1259 4666 
L 1259 531 
L 3531 531 
L 3531 0 
L 628 0 
L 628 4666 
z
" id="DejaVuSans-4c" transform="scale(0.015625)"/>
       <path d="M 2834 3397 
L 2834 2853 
Q 2591 2978 2328 3040 
Q 2066 3103 1784 3103 
Q 1356 3103 1142 2972 
Q 928 2841 928 2578 
Q 928 2378 1081 2264 
Q 1234 2150 1697 2047 
L 1894 2003 
Q 2506 1872 2764 1633 
Q 3022 1394 3022 966 
Q 3022 478 2636 193 
Q 2250 -91 1575 -91 
Q 1294 -91 989 -36 
Q 684 19 347 128 
L 347 722 
Q 666 556 975 473 
Q 1284 391 1588 391 
Q 1994 391 2212 530 
Q 2431 669 2431 922 
Q 2431 1156 2273 1281 
Q 2116 1406 1581 1522 
L 1381 1569 
Q 847 1681 609 1914 
Q 372 2147 372 2553 
Q 372 3047 722 3315 
Q 1072 3584 1716 3584 
Q 2034 3584 2315 3537 
Q 2597 3491 2834 3397 
z
" id="DejaVuSans-73" transform="scale(0.015625)"/>
      </defs>
      <use xlink:href="#DejaVuSans-4c"/>
      <use x="53.962891" xlink:href="#DejaVuSans-6f"/>
      <use x="115.144531" xlink:href="#DejaVuSans-73"/>
      <use x="167.244141" xlink:href="#DejaVuSans-73"/>
     </g>
    </g>
   </g>
   <g id="line2d_16">
    <path clip-path="url(#p62f0ee4bf2)" d="M 73.832727 53.568 
L 74.646398 92.739298 
L 75.460068 121.405766 
L 76.273739 117.929574 
L 77.087409 130.21027 
L 77.90108 102.942447 
L 78.714751 150.869069 
L 79.528421 161.208675 
L 80.342092 176.207463 
L 81.155762 173.455726 
L 81.969433 188.507261 
L 82.783103 187.471477 
L 83.596774 194.686635 
L 84.410444 182.534699 
L 85.224115 200.742343 
L 86.037785 206.871081 
L 86.851456 199.757366 
L 87.665126 193.942057 
L 88.478797 212.260876 
L 89.292468 209.325357 
L 90.106138 216.42951 
L 90.919809 211.312366 
L 91.733479 214.793408 
L 93.36082 225.575579 
L 94.174491 210.747004 
L 94.988161 222.880161 
L 95.801832 211.221897 
L 96.615502 215.676358 
L 97.429173 216.080005 
L 99.056514 226.174193 
L 99.870185 219.63556 
L 100.683855 225.129958 
L 101.497526 220.642712 
L 102.311196 214.084058 
L 103.938537 231.444854 
L 104.752208 234.340565 
L 105.565878 241.980912 
L 106.379549 238.612123 
L 107.193219 227.150188 
L 108.00689 233.132691 
L 108.82056 240.933512 
L 109.634231 235.717205 
L 110.447902 232.483859 
L 111.261572 230.272523 
L 112.075243 247.397481 
L 112.888913 247.218186 
L 113.702584 233.71399 
L 114.516254 238.715227 
L 115.329925 242.644693 
L 116.143595 247.549727 
L 116.957266 233.90249 
L 117.770936 248.500123 
L 118.584607 239.466531 
L 119.398278 239.896141 
L 120.211948 238.770426 
L 121.025619 239.507512 
L 121.839289 244.102115 
L 122.65296 243.326905 
L 123.46663 245.40217 
L 124.280301 239.196602 
L 125.093971 244.555187 
L 125.907642 243.129472 
L 126.721312 239.256042 
L 127.534983 240.571837 
L 128.348653 236.471328 
L 129.162324 245.033452 
L 129.975995 240.980232 
L 130.789665 238.306284 
L 131.603336 236.331008 
L 132.417006 245.871079 
L 133.230677 236.023954 
L 134.044347 238.582203 
L 134.858018 251.189416 
L 135.671688 236.290287 
L 136.485359 244.558784 
L 137.299029 247.725432 
L 138.1127 245.693061 
L 138.92637 248.235809 
L 139.740041 252.931328 
L 140.553712 233.276823 
L 141.367382 249.272994 
L 142.181053 250.431215 
L 142.994723 244.731603 
L 143.808394 251.478688 
L 144.622064 240.450982 
L 145.435735 256.392768 
L 146.249405 235.474074 
L 147.063076 232.356947 
L 147.876746 246.997687 
L 148.690417 241.06514 
L 149.504087 244.456494 
L 150.317758 250.260308 
L 151.131429 247.375581 
L 151.945099 259.874429 
L 152.75877 238.805583 
L 153.57244 249.53384 
L 154.386111 245.483291 
L 155.199781 234.996011 
L 156.013452 241.897432 
L 156.827122 251.175361 
L 157.640793 248.010142 
L 158.454463 238.685693 
L 159.268134 244.713651 
L 160.081805 258.033536 
L 160.895475 253.425888 
L 161.709146 264.026929 
L 162.522816 252.490156 
L 163.336487 253.149059 
L 164.150157 253.056851 
L 164.963828 273.254104 
L 165.777498 230.016629 
L 166.591169 258.099606 
L 167.404839 250.816607 
L 168.21851 245.642294 
L 169.03218 261.142192 
L 169.845851 257.295771 
L 170.659522 251.002364 
L 171.473192 256.178387 
L 172.286863 248.512179 
L 173.100533 263.223247 
L 173.914204 252.106399 
L 174.727874 244.859486 
L 175.541545 252.948697 
L 176.355215 262.444906 
L 177.168886 260.719567 
L 177.982556 250.84956 
L 178.796227 256.487887 
L 179.609897 242.640112 
L 180.423568 258.778228 
L 181.237239 250.762795 
L 182.050909 265.418726 
L 182.86458 249.660728 
L 183.67825 243.940138 
L 185.305591 255.797582 
L 186.119262 247.746988 
L 186.932932 255.582086 
L 187.746603 257.046921 
L 188.560273 248.948428 
L 189.373944 255.022889 
L 190.187614 258.983923 
L 191.001285 259.598476 
L 191.814956 262.613113 
L 192.628626 257.53168 
L 193.442297 269.616021 
L 194.255967 252.169139 
L 195.069638 250.431139 
L 195.883308 251.236868 
L 196.696979 261.745013 
L 197.510649 258.618961 
L 198.32432 252.829517 
L 199.13799 238.346548 
L 199.951661 256.750293 
L 200.765332 268.138642 
L 201.579002 264.958002 
L 202.392673 255.46394 
L 203.206343 265.172946 
L 204.020014 273.397151 
L 204.833684 266.739013 
L 205.647355 257.50915 
L 206.461025 268.666815 
L 207.274696 264.353983 
L 208.088366 263.696234 
L 208.902037 260.462552 
L 209.715707 256.17128 
L 210.529378 256.712822 
L 211.343049 264.227407 
L 212.156719 261.116443 
L 212.97039 265.154938 
L 213.78406 254.3719 
L 214.597731 268.758924 
L 215.411401 271.487265 
L 216.225072 254.576463 
L 217.038742 263.989473 
L 217.852413 264.001115 
L 218.666083 260.969999 
L 219.479754 268.284438 
L 220.293424 260.854427 
L 221.107095 257.709609 
L 221.920766 253.158659 
L 222.734436 269.280779 
L 223.548107 269.071975 
L 224.361777 274.021614 
L 225.175448 260.998919 
L 225.989118 254.572902 
L 226.802789 259.328659 
L 227.616459 274.962464 
L 228.43013 263.165313 
L 229.2438 259.676199 
L 230.057471 255.375733 
L 230.871141 257.8706 
L 231.684812 273.851252 
L 232.498483 279.602226 
L 233.312153 272.147802 
L 234.125824 271.347942 
L 234.939494 268.262308 
L 235.753165 277.087496 
L 236.566835 273.428667 
L 237.380506 263.301042 
L 238.194176 280.090354 
L 239.007847 274.479604 
L 239.821517 269.836033 
L 240.635188 268.748618 
L 241.448859 269.266432 
L 242.262529 274.32197 
L 243.0762 273.17321 
L 243.88987 267.317554 
L 244.703541 265.636288 
L 245.517211 269.267205 
L 246.330882 282.948767 
L 247.144552 262.194043 
L 247.958223 261.30238 
L 248.771893 281.228118 
L 249.585564 249.799144 
L 250.399234 262.43096 
L 251.212905 268.046206 
L 252.026576 254.552944 
L 252.840246 272.013062 
L 253.653917 285.51455 
L 254.467587 276.651577 
L 255.281258 292.476387 
L 256.094928 257.355298 
L 256.908599 266.174289 
L 257.722269 270.397551 
L 258.53594 260.389957 
L 259.34961 278.211307 
L 260.163281 267.210797 
L 260.976951 274.632532 
L 261.790622 264.780607 
L 262.604293 279.857401 
L 263.417963 288.267699 
L 264.231634 272.221241 
L 265.045304 266.606692 
L 265.858975 273.892555 
L 266.672645 263.387695 
L 267.486316 266.805978 
L 268.299986 260.36944 
L 269.113657 273.499079 
L 269.927327 267.372446 
L 270.740998 275.413473 
L 271.554668 277.728901 
L 272.368339 274.806093 
L 273.18201 277.409885 
L 273.99568 266.743411 
L 274.809351 263.889687 
L 275.623021 274.354719 
L 276.436692 271.11396 
L 277.250362 273.420713 
L 278.064033 270.209102 
L 278.877703 263.190408 
L 279.691374 272.755313 
L 280.505044 274.742404 
L 281.318715 273.141533 
L 282.132386 279.19601 
L 283.759727 257.737199 
L 284.573397 276.022289 
L 285.387068 266.797742 
L 286.200738 260.301785 
L 287.014409 276.2722 
L 287.828079 266.388964 
L 288.64175 261.498373 
L 289.45542 279.168404 
L 290.269091 270.679012 
L 291.082761 268.642053 
L 291.896432 283.47321 
L 292.710103 285.215121 
L 293.523773 269.378906 
L 294.337444 276.191052 
L 295.151114 276.67668 
L 295.964785 275.635236 
L 296.778455 266.861183 
L 298.405796 269.789698 
L 299.219467 278.702227 
L 300.033137 281.947605 
L 300.846808 275.53967 
L 301.660478 285.960608 
L 302.474149 273.325239 
L 303.28782 282.708251 
L 304.10149 257.485141 
L 304.915161 276.782959 
L 305.728831 262.731409 
L 306.542502 264.185719 
L 307.356172 284.6457 
L 308.169843 295.488 
L 308.983513 278.136952 
L 309.797184 273.321815 
L 310.610854 276.882482 
L 311.424525 269.197947 
L 312.238195 284.848374 
L 313.051866 273.55053 
L 313.865537 260.183264 
L 314.679207 268.84363 
L 315.492878 261.967594 
L 316.306548 282.368623 
L 317.120219 290.533929 
L 317.933889 270.459699 
L 318.74756 272.280894 
L 319.56123 282.958066 
L 320.374901 270.458335 
L 321.188571 276.853387 
L 322.002242 269.544012 
L 322.815913 260.97358 
L 323.629583 281.687797 
L 324.443254 275.816079 
L 325.256924 236.144274 
L 326.070595 258.918336 
L 326.884265 259.342065 
L 327.697936 272.547702 
L 328.511606 275.725086 
L 330.138947 272.507074 
L 330.952618 275.068164 
L 331.766288 266.524834 
L 332.579959 272.142672 
L 333.39363 275.44491 
L 334.2073 285.092405 
L 335.020971 266.941772 
L 335.834641 285.274808 
L 336.648312 274.781954 
L 337.461982 281.021058 
L 338.275653 263.281807 
L 339.089323 272.595484 
L 339.902994 274.024313 
L 340.716664 268.998412 
L 341.530335 275.266249 
L 342.344005 268.371172 
L 343.157676 287.313564 
L 343.971347 284.193498 
L 344.785017 282.769775 
L 345.598688 272.315915 
L 346.412358 270.388571 
L 347.226029 264.847463 
L 348.039699 266.736287 
L 348.85337 282.867238 
L 349.66704 267.943326 
L 350.480711 280.995839 
L 351.294381 277.728007 
L 352.108052 286.996573 
L 352.921722 282.629942 
L 353.735393 268.488027 
L 354.549064 269.793007 
L 355.362734 271.923676 
L 356.176405 281.314805 
L 356.990075 277.754976 
L 357.803746 281.705846 
L 358.617416 271.360489 
L 359.431087 284.427123 
L 360.244757 271.969843 
L 361.058428 276.208214 
L 361.872098 292.710977 
L 362.685769 274.53437 
L 363.49944 284.422436 
L 364.31311 282.52394 
L 365.126781 273.878992 
L 365.940451 283.160981 
L 366.754122 271.812081 
L 367.567792 269.488251 
L 368.381463 266.038928 
L 369.195133 289.852039 
L 370.008804 289.114826 
L 370.822474 269.464146 
L 371.636145 276.006692 
L 372.449815 292.293497 
L 373.263486 276.283288 
L 374.077157 286.056665 
L 374.890827 278.100054 
L 375.704498 267.247183 
L 376.518168 274.938254 
L 377.331839 285.426792 
L 378.145509 290.285591 
L 378.95918 281.730171 
L 379.77285 295.207804 
L 380.586521 262.922509 
L 381.400191 280.835728 
L 382.213862 289.615793 
L 383.027532 270.00887 
L 383.841203 272.69556 
L 384.654874 277.699103 
L 385.468544 287.944438 
L 386.282215 276.743497 
L 387.095885 285.527378 
L 387.909556 277.924693 
L 388.723226 281.587373 
L 389.536897 279.669888 
L 390.350567 273.878712 
L 391.164238 272.40708 
L 391.977908 277.623742 
L 392.791579 278.8569 
L 393.605249 280.754402 
L 394.41892 271.146007 
L 395.232591 268.303712 
L 396.046261 278.551677 
L 396.859932 276.644158 
L 397.673602 280.823253 
L 398.487273 291.628076 
L 398.487273 291.628076 
" style="fill:none;stroke:#1f77b4;stroke-linecap:square;stroke-width:1.5;"/>
   </g>
   <g id="line2d_17">
    <path clip-path="url(#p62f0ee4bf2)" d="M 73.832727 55.951976 
L 74.646398 106.630664 
L 75.460068 130.010448 
L 76.273739 62.211755 
L 77.087409 150.176232 
L 77.90108 140.634304 
L 78.714751 157.17879 
L 79.528421 176.378211 
L 80.342092 181.63578 
L 81.155762 181.245579 
L 81.969433 190.730179 
L 82.783103 195.379756 
L 83.596774 191.703888 
L 84.410444 128.955589 
L 85.224115 205.036025 
L 86.037785 183.860997 
L 86.851456 203.61584 
L 87.665126 206.065524 
L 88.478797 220.632565 
L 89.292468 210.080305 
L 90.106138 220.882838 
L 90.919809 223.348202 
L 91.733479 213.001776 
L 92.54715 228.619262 
L 93.36082 200.376782 
L 94.174491 218.121879 
L 94.988161 231.372057 
L 95.801832 187.298233 
L 96.615502 232.378434 
L 97.429173 233.705296 
L 98.242843 233.578805 
L 99.056514 227.900099 
L 99.870185 239.390963 
L 100.683855 208.309547 
L 101.497526 234.550214 
L 102.311196 226.82905 
L 103.124867 230.901035 
L 103.938537 237.358794 
L 105.565878 226.247148 
L 106.379549 231.805916 
L 107.193219 238.322063 
L 108.00689 245.970171 
L 108.82056 229.879953 
L 109.634231 228.981829 
L 110.447902 235.684196 
L 111.261572 232.791857 
L 112.075243 230.737228 
L 112.888913 236.369112 
L 113.702584 237.540402 
L 114.516254 238.939873 
L 115.329925 238.632828 
L 116.143595 242.877646 
L 116.957266 230.073736 
L 117.770936 241.21884 
L 118.584607 245.795117 
L 119.398278 239.722993 
L 121.025619 243.245467 
L 121.839289 242.041007 
L 122.65296 246.760461 
L 123.46663 238.525682 
L 124.280301 250.696636 
L 125.093971 242.568265 
L 125.907642 243.198276 
L 126.721312 246.883917 
L 127.534983 244.184299 
L 128.348653 248.793005 
L 129.162324 248.663156 
L 129.975995 241.494969 
L 130.789665 241.654806 
L 131.603336 249.021215 
L 132.417006 245.94726 
L 133.230677 242.132908 
L 134.044347 242.869033 
L 134.858018 247.339258 
L 135.671688 250.221681 
L 136.485359 238.547754 
L 137.299029 245.505366 
L 138.1127 237.671581 
L 138.92637 245.777067 
L 139.740041 256.784883 
L 140.553712 245.450371 
L 141.367382 248.744444 
L 142.181053 236.807553 
L 142.994723 244.376727 
L 143.808394 245.581373 
L 144.622064 242.8678 
L 145.435735 237.733843 
L 146.249405 249.883035 
L 147.063076 252.020588 
L 147.876746 243.868586 
L 148.690417 247.511746 
L 149.504087 245.9105 
L 150.317758 242.06161 
L 151.131429 242.475557 
L 151.945099 254.52624 
L 152.75877 246.360555 
L 153.57244 247.298206 
L 154.386111 239.503137 
L 155.199781 257.560321 
L 156.013452 248.263808 
L 156.827122 255.332711 
L 157.640793 243.344684 
L 158.454463 247.388771 
L 159.268134 248.388037 
L 160.081805 248.964189 
L 160.895475 254.462075 
L 161.709146 250.466044 
L 162.522816 249.557124 
L 163.336487 261.114897 
L 164.150157 254.53453 
L 164.963828 256.91649 
L 165.777498 246.161387 
L 166.591169 237.725004 
L 167.404839 257.530205 
L 168.21851 257.478586 
L 169.03218 243.559289 
L 169.845851 250.953073 
L 170.659522 255.159815 
L 171.473192 253.756875 
L 172.286863 256.492307 
L 173.100533 248.126413 
L 173.914204 259.702583 
L 174.727874 243.260043 
L 175.541545 254.940545 
L 176.355215 252.589575 
L 177.168886 237.281213 
L 177.982556 253.264774 
L 178.796227 258.290512 
L 179.609897 260.642504 
L 180.423568 236.856456 
L 181.237239 248.682688 
L 182.050909 239.676009 
L 182.86458 266.812117 
L 183.67825 249.877363 
L 184.491921 258.0897 
L 185.305591 257.147585 
L 186.119262 256.460157 
L 186.932932 259.81021 
L 187.746603 249.200202 
L 188.560273 247.200764 
L 189.373944 261.171153 
L 190.187614 258.35159 
L 191.001285 262.87539 
L 191.814956 264.058725 
L 192.628626 269.872564 
L 193.442297 259.985621 
L 194.255967 253.498839 
L 195.069638 260.856574 
L 195.883308 255.673315 
L 196.696979 265.639901 
L 198.32432 255.497966 
L 199.13799 260.079951 
L 199.951661 258.099465 
L 200.765332 253.539114 
L 201.579002 256.639734 
L 202.392673 255.775755 
L 203.206343 257.593392 
L 204.020014 253.83244 
L 204.833684 247.847385 
L 205.647355 265.255784 
L 206.461025 260.0653 
L 207.274696 258.554012 
L 208.088366 270.133762 
L 208.902037 270.625512 
L 209.715707 256.522058 
L 210.529378 263.759565 
L 211.343049 269.529819 
L 212.156719 257.616528 
L 212.97039 263.604116 
L 213.78406 266.549793 
L 214.597731 263.951139 
L 215.411401 269.122872 
L 216.225072 267.575297 
L 217.038742 261.491413 
L 217.852413 253.37305 
L 218.666083 261.67823 
L 219.479754 268.420927 
L 220.293424 255.939248 
L 221.107095 256.377831 
L 221.920766 256.404284 
L 222.734436 270.32784 
L 223.548107 262.465917 
L 224.361777 273.460617 
L 225.175448 255.948678 
L 225.989118 264.784326 
L 226.802789 271.945939 
L 227.616459 264.641233 
L 228.43013 267.521228 
L 229.2438 278.637262 
L 230.057471 270.748991 
L 230.871141 267.391785 
L 231.684812 276.909444 
L 233.312153 256.124849 
L 234.125824 272.226243 
L 234.939494 260.071105 
L 235.753165 271.185986 
L 236.566835 277.473334 
L 237.380506 265.999625 
L 238.194176 270.330693 
L 239.007847 269.573857 
L 239.821517 268.282576 
L 240.635188 277.920997 
L 241.448859 267.380537 
L 242.262529 271.236359 
L 243.0762 274.234428 
L 243.88987 273.333912 
L 244.703541 268.386661 
L 245.517211 273.403173 
L 246.330882 266.343122 
L 247.144552 274.838606 
L 247.958223 272.485829 
L 248.771893 263.673425 
L 249.585564 268.145967 
L 250.399234 261.724929 
L 251.212905 267.920243 
L 252.026576 266.557985 
L 252.840246 271.536989 
L 253.653917 266.629199 
L 254.467587 266.310117 
L 255.281258 277.943319 
L 256.094928 263.867215 
L 256.908599 270.2232 
L 257.722269 271.15765 
L 258.53594 270.276151 
L 259.34961 255.726858 
L 260.163281 275.944414 
L 260.976951 269.588088 
L 261.790622 278.329799 
L 262.604293 272.547969 
L 263.417963 263.247331 
L 264.231634 276.358205 
L 265.045304 263.950398 
L 265.858975 286.805508 
L 266.672645 277.045694 
L 267.486316 275.806551 
L 268.299986 263.696581 
L 269.113657 272.058784 
L 269.927327 273.767921 
L 270.740998 270.352927 
L 271.554668 273.746778 
L 272.368339 270.088181 
L 273.18201 268.994882 
L 273.99568 269.675907 
L 275.623021 270.063093 
L 276.436692 266.162429 
L 277.250362 274.771154 
L 278.064033 256.031414 
L 278.877703 278.376019 
L 279.691374 253.016049 
L 280.505044 273.572609 
L 281.318715 273.225693 
L 282.132386 274.222265 
L 283.759727 275.737145 
L 284.573397 270.288166 
L 285.387068 266.152218 
L 286.200738 271.218849 
L 287.014409 269.39909 
L 287.828079 268.455966 
L 288.64175 268.97769 
L 289.45542 276.840385 
L 290.269091 283.55954 
L 291.896432 270.692206 
L 292.710103 285.636164 
L 293.523773 256.819918 
L 294.337444 260.795235 
L 295.151114 273.41794 
L 295.964785 271.418945 
L 296.778455 274.199181 
L 297.592126 264.554826 
L 298.405796 257.215189 
L 299.219467 267.330902 
L 300.033137 269.1836 
L 300.846808 278.157243 
L 301.660478 273.394143 
L 302.474149 271.280961 
L 303.28782 277.252863 
L 304.10149 275.268531 
L 304.915161 274.630243 
L 305.728831 271.372601 
L 306.542502 276.819904 
L 307.356172 273.328004 
L 308.169843 274.516621 
L 308.983513 277.895163 
L 310.610854 262.272996 
L 311.424525 274.946061 
L 312.238195 271.275603 
L 313.051866 274.366064 
L 313.865537 281.809728 
L 314.679207 283.48478 
L 315.492878 273.579639 
L 316.306548 274.535123 
L 317.120219 262.255092 
L 317.933889 277.090717 
L 318.74756 282.851677 
L 319.56123 279.907793 
L 320.374901 268.166306 
L 321.188571 270.856134 
L 322.002242 261.317325 
L 322.815913 268.969389 
L 323.629583 272.488448 
L 324.443254 275.504612 
L 325.256924 256.610389 
L 326.070595 262.802502 
L 327.697936 263.600049 
L 328.511606 254.12975 
L 329.325277 270.688074 
L 330.138947 260.084464 
L 330.952618 269.497163 
L 331.766288 276.940123 
L 332.579959 278.423249 
L 333.39363 270.07276 
L 334.2073 276.396603 
L 335.020971 273.663821 
L 335.834641 271.830805 
L 336.648312 275.432992 
L 337.461982 276.34274 
L 338.275653 271.54801 
L 339.089323 272.721528 
L 339.902994 281.999911 
L 340.716664 273.316127 
L 341.530335 276.249875 
L 342.344005 263.131257 
L 343.157676 277.166554 
L 343.971347 271.447868 
L 344.785017 275.575591 
L 345.598688 266.701333 
L 346.412358 271.094013 
L 347.226029 271.230706 
L 348.039699 272.122908 
L 348.85337 271.746789 
L 349.66704 278.368968 
L 350.480711 266.391467 
L 351.294381 272.89834 
L 352.108052 270.824457 
L 352.921722 270.188737 
L 353.735393 268.257212 
L 354.549064 276.902454 
L 355.362734 269.66299 
L 356.176405 266.907936 
L 356.990075 266.820795 
L 357.803746 281.672555 
L 358.617416 265.806062 
L 359.431087 270.794107 
L 360.244757 263.705578 
L 361.058428 260.188999 
L 361.872098 261.27827 
L 362.685769 263.478591 
L 363.49944 259.922699 
L 364.31311 273.132605 
L 365.126781 275.007702 
L 365.940451 277.255356 
L 366.754122 269.621815 
L 367.567792 267.319861 
L 368.381463 269.633027 
L 369.195133 270.415569 
L 370.008804 282.546857 
L 370.822474 272.754069 
L 371.636145 271.776758 
L 372.449815 284.921377 
L 373.263486 276.535993 
L 374.077157 272.683958 
L 374.890827 261.728048 
L 375.704498 276.182631 
L 376.518168 268.58707 
L 377.331839 276.907703 
L 378.145509 280.215336 
L 378.95918 275.741822 
L 379.77285 276.041153 
L 380.586521 281.820106 
L 381.400191 277.316762 
L 382.213862 277.471328 
L 383.027532 272.508212 
L 383.841203 258.322321 
L 384.654874 279.630854 
L 385.468544 280.284379 
L 386.282215 272.059333 
L 387.095885 273.118984 
L 387.909556 264.48969 
L 388.723226 262.843286 
L 390.350567 282.779777 
L 391.164238 273.000211 
L 391.977908 279.728194 
L 392.791579 278.340765 
L 393.605249 267.444134 
L 394.41892 279.579582 
L 395.232591 262.730648 
L 396.046261 282.034547 
L 396.859932 276.159766 
L 397.673602 280.754354 
L 398.487273 276.604853 
L 398.487273 276.604853 
" style="fill:none;stroke:#ff7f0e;stroke-linecap:square;stroke-width:1.5;"/>
   </g>
   <g id="patch_3">
    <path d="M 57.6 307.584 
L 57.6 41.472 
" style="fill:none;stroke:#000000;stroke-linecap:square;stroke-linejoin:miter;stroke-width:0.8;"/>
   </g>
   <g id="patch_4">
    <path d="M 414.72 307.584 
L 414.72 41.472 
" style="fill:none;stroke:#000000;stroke-linecap:square;stroke-linejoin:miter;stroke-width:0.8;"/>
   </g>
   <g id="patch_5">
    <path d="M 57.6 307.584 
L 414.72 307.584 
" style="fill:none;stroke:#000000;stroke-linecap:square;stroke-linejoin:miter;stroke-width:0.8;"/>
   </g>
   <g id="patch_6">
    <path d="M 57.6 41.472 
L 414.72 41.472 
" style="fill:none;stroke:#000000;stroke-linecap:square;stroke-linejoin:miter;stroke-width:0.8;"/>
   </g>
   <g id="legend_1">
    <g id="patch_7">
     <path d="M 303.845 78.82825 
L 407.72 78.82825 
Q 409.72 78.82825 409.72 76.82825 
L 409.72 48.472 
Q 409.72 46.472 407.72 46.472 
L 303.845 46.472 
Q 301.845 46.472 301.845 48.472 
L 301.845 76.82825 
Q 301.845 78.82825 303.845 78.82825 
z
" style="fill:#ffffff;opacity:0.8;stroke:#cccccc;stroke-linejoin:miter;"/>
    </g>
    <g id="line2d_18">
     <path d="M 305.845 54.570437 
L 325.845 54.570437 
" style="fill:none;stroke:#1f77b4;stroke-linecap:square;stroke-width:1.5;"/>
    </g>
    <g id="line2d_19"/>
    <g id="text_18">
     <!-- Train loss -->
     <g transform="translate(333.845 58.070437)scale(0.1 -0.1)">
      <defs>
       <path d="M -19 4666 
L 3928 4666 
L 3928 4134 
L 2272 4134 
L 2272 0 
L 1638 0 
L 1638 4134 
L -19 4134 
L -19 4666 
z
" id="DejaVuSans-54" transform="scale(0.015625)"/>
       <path d="M 2631 2963 
Q 2534 3019 2420 3045 
Q 2306 3072 2169 3072 
Q 1681 3072 1420 2755 
Q 1159 2438 1159 1844 
L 1159 0 
L 581 0 
L 581 3500 
L 1159 3500 
L 1159 2956 
Q 1341 3275 1631 3429 
Q 1922 3584 2338 3584 
Q 2397 3584 2469 3576 
Q 2541 3569 2628 3553 
L 2631 2963 
z
" id="DejaVuSans-72" transform="scale(0.015625)"/>
       <path d="M 2194 1759 
Q 1497 1759 1228 1600 
Q 959 1441 959 1056 
Q 959 750 1161 570 
Q 1363 391 1709 391 
Q 2188 391 2477 730 
Q 2766 1069 2766 1631 
L 2766 1759 
L 2194 1759 
z
M 3341 1997 
L 3341 0 
L 2766 0 
L 2766 531 
Q 2569 213 2275 61 
Q 1981 -91 1556 -91 
Q 1019 -91 701 211 
Q 384 513 384 1019 
Q 384 1609 779 1909 
Q 1175 2209 1959 2209 
L 2766 2209 
L 2766 2266 
Q 2766 2663 2505 2880 
Q 2244 3097 1772 3097 
Q 1472 3097 1187 3025 
Q 903 2953 641 2809 
L 641 3341 
Q 956 3463 1253 3523 
Q 1550 3584 1831 3584 
Q 2591 3584 2966 3190 
Q 3341 2797 3341 1997 
z
" id="DejaVuSans-61" transform="scale(0.015625)"/>
       <path d="M 603 3500 
L 1178 3500 
L 1178 0 
L 603 0 
L 603 3500 
z
M 603 4863 
L 1178 4863 
L 1178 4134 
L 603 4134 
L 603 4863 
z
" id="DejaVuSans-69" transform="scale(0.015625)"/>
       <path d="M 3513 2113 
L 3513 0 
L 2938 0 
L 2938 2094 
Q 2938 2591 2744 2837 
Q 2550 3084 2163 3084 
Q 1697 3084 1428 2787 
Q 1159 2491 1159 1978 
L 1159 0 
L 581 0 
L 581 3500 
L 1159 3500 
L 1159 2956 
Q 1366 3272 1645 3428 
Q 1925 3584 2291 3584 
Q 2894 3584 3203 3211 
Q 3513 2838 3513 2113 
z
" id="DejaVuSans-6e" transform="scale(0.015625)"/>
       <path id="DejaVuSans-20" transform="scale(0.015625)"/>
       <path d="M 603 4863 
L 1178 4863 
L 1178 0 
L 603 0 
L 603 4863 
z
" id="DejaVuSans-6c" transform="scale(0.015625)"/>
      </defs>
      <use xlink:href="#DejaVuSans-54"/>
      <use x="46.333984" xlink:href="#DejaVuSans-72"/>
      <use x="87.447266" xlink:href="#DejaVuSans-61"/>
      <use x="148.726562" xlink:href="#DejaVuSans-69"/>
      <use x="176.509766" xlink:href="#DejaVuSans-6e"/>
      <use x="239.888672" xlink:href="#DejaVuSans-20"/>
      <use x="271.675781" xlink:href="#DejaVuSans-6c"/>
      <use x="299.458984" xlink:href="#DejaVuSans-6f"/>
      <use x="360.640625" xlink:href="#DejaVuSans-73"/>
      <use x="412.740234" xlink:href="#DejaVuSans-73"/>
     </g>
    </g>
    <g id="line2d_20">
     <path d="M 305.845 69.248562 
L 325.845 69.248562 
" style="fill:none;stroke:#ff7f0e;stroke-linecap:square;stroke-width:1.5;"/>
    </g>
    <g id="line2d_21"/>
    <g id="text_19">
     <!-- Validation loss -->
     <g transform="translate(333.845 72.748562)scale(0.1 -0.1)">
      <defs>
       <path d="M 1831 0 
L 50 4666 
L 709 4666 
L 2188 738 
L 3669 4666 
L 4325 4666 
L 2547 0 
L 1831 0 
z
" id="DejaVuSans-56" transform="scale(0.015625)"/>
       <path d="M 2906 2969 
L 2906 4863 
L 3481 4863 
L 3481 0 
L 2906 0 
L 2906 525 
Q 2725 213 2448 61 
Q 2172 -91 1784 -91 
Q 1150 -91 751 415 
Q 353 922 353 1747 
Q 353 2572 751 3078 
Q 1150 3584 1784 3584 
Q 2172 3584 2448 3432 
Q 2725 3281 2906 2969 
z
M 947 1747 
Q 947 1113 1208 752 
Q 1469 391 1925 391 
Q 2381 391 2643 752 
Q 2906 1113 2906 1747 
Q 2906 2381 2643 2742 
Q 2381 3103 1925 3103 
Q 1469 3103 1208 2742 
Q 947 2381 947 1747 
z
" id="DejaVuSans-64" transform="scale(0.015625)"/>
       <path d="M 1172 4494 
L 1172 3500 
L 2356 3500 
L 2356 3053 
L 1172 3053 
L 1172 1153 
Q 1172 725 1289 603 
Q 1406 481 1766 481 
L 2356 481 
L 2356 0 
L 1766 0 
Q 1100 0 847 248 
Q 594 497 594 1153 
L 594 3053 
L 172 3053 
L 172 3500 
L 594 3500 
L 594 4494 
L 1172 4494 
z
" id="DejaVuSans-74" transform="scale(0.015625)"/>
      </defs>
      <use xlink:href="#DejaVuSans-56"/>
      <use x="60.658203" xlink:href="#DejaVuSans-61"/>
      <use x="121.9375" xlink:href="#DejaVuSans-6c"/>
      <use x="149.720703" xlink:href="#DejaVuSans-69"/>
      <use x="177.503906" xlink:href="#DejaVuSans-64"/>
      <use x="240.980469" xlink:href="#DejaVuSans-61"/>
      <use x="302.259766" xlink:href="#DejaVuSans-74"/>
      <use x="341.46875" xlink:href="#DejaVuSans-69"/>
      <use x="369.251953" xlink:href="#DejaVuSans-6f"/>
      <use x="430.433594" xlink:href="#DejaVuSans-6e"/>
      <use x="493.8125" xlink:href="#DejaVuSans-20"/>
      <use x="525.599609" xlink:href="#DejaVuSans-6c"/>
      <use x="553.382812" xlink:href="#DejaVuSans-6f"/>
      <use x="614.564453" xlink:href="#DejaVuSans-73"/>
      <use x="666.664062" xlink:href="#DejaVuSans-73"/>
     </g>
    </g>
   </g>
  </g>
 </g>
 <defs>
  <clipPath id="p62f0ee4bf2">
   <rect height="266.112" width="357.12" x="57.6" y="41.472"/>
  </clipPath>
 </defs>
</svg>
