<?xml version="1.0" encoding="utf-8" standalone="no"?>
<!DOCTYPE svg PUBLIC "-//W3C//DTD SVG 1.1//EN"
  "http://www.w3.org/Graphics/SVG/1.1/DTD/svg11.dtd">
<svg height="345.6pt" version="1.1" viewBox="0 0 460.8 345.6" width="460.8pt" xmlns="http://www.w3.org/2000/svg" xmlns:xlink="http://www.w3.org/1999/xlink">
 <metadata>
  <rdf:RDF xmlns:cc="http://creativecommons.org/ns#" xmlns:dc="http://purl.org/dc/elements/1.1/" xmlns:rdf="http://www.w3.org/1999/02/22-rdf-syntax-ns#">
   <cc:Work>
    <dc:type rdf:resource="http://purl.org/dc/dcmitype/StillImage"/>
    <dc:date>2021-07-29T23:42:36.367674</dc:date>
    <dc:format>image/svg+xml</dc:format>
    <dc:creator>
     <cc:Agent>
      <dc:title>Matplotlib v3.4.1, https://matplotlib.org/</dc:title>
     </cc:Agent>
    </dc:creator>
   </cc:Work>
  </rdf:RDF>
 </metadata>
 <defs>
  <style type="text/css">*{stroke-linecap:butt;stroke-linejoin:round;}</style>
 </defs>
 <g id="figure_1">
  <g id="patch_1">
   <path d="M 0 345.6 
L 460.8 345.6 
L 460.8 0 
L 0 0 
z
" style="fill:#ffffff;"/>
  </g>
  <g id="axes_1">
   <g id="patch_2">
    <path d="M 57.6 307.584 
L 414.72 307.584 
L 414.72 41.472 
L 57.6 41.472 
z
" style="fill:#ffffff;"/>
   </g>
   <g id="matplotlib.axis_1">
    <g id="xtick_1">
     <g id="line2d_1">
      <defs>
       <path d="M 0 0 
L 0 3.5 
" id="m68398d37a7" style="stroke:#000000;stroke-width:0.8;"/>
      </defs>
      <g>
       <use style="stroke:#000000;stroke-width:0.8;" x="73.629691" xlink:href="#m68398d37a7" y="307.584"/>
      </g>
     </g>
     <g id="text_1">
      <!-- 0 -->
      <g transform="translate(70.448441 322.182437)scale(0.1 -0.1)">
       <defs>
        <path d="M 2034 4250 
Q 1547 4250 1301 3770 
Q 1056 3291 1056 2328 
Q 1056 1369 1301 889 
Q 1547 409 2034 409 
Q 2525 409 2770 889 
Q 3016 1369 3016 2328 
Q 3016 3291 2770 3770 
Q 2525 4250 2034 4250 
z
M 2034 4750 
Q 2819 4750 3233 4129 
Q 3647 3509 3647 2328 
Q 3647 1150 3233 529 
Q 2819 -91 2034 -91 
Q 1250 -91 836 529 
Q 422 1150 422 2328 
Q 422 3509 836 4129 
Q 1250 4750 2034 4750 
z
" id="DejaVuSans-30" transform="scale(0.015625)"/>
       </defs>
       <use xlink:href="#DejaVuSans-30"/>
      </g>
     </g>
    </g>
    <g id="xtick_2">
     <g id="line2d_2">
      <g>
       <use style="stroke:#000000;stroke-width:0.8;" x="114.236889" xlink:href="#m68398d37a7" y="307.584"/>
      </g>
     </g>
     <g id="text_2">
      <!-- 200 -->
      <g transform="translate(104.693139 322.182437)scale(0.1 -0.1)">
       <defs>
        <path d="M 1228 531 
L 3431 531 
L 3431 0 
L 469 0 
L 469 531 
Q 828 903 1448 1529 
Q 2069 2156 2228 2338 
Q 2531 2678 2651 2914 
Q 2772 3150 2772 3378 
Q 2772 3750 2511 3984 
Q 2250 4219 1831 4219 
Q 1534 4219 1204 4116 
Q 875 4013 500 3803 
L 500 4441 
Q 881 4594 1212 4672 
Q 1544 4750 1819 4750 
Q 2544 4750 2975 4387 
Q 3406 4025 3406 3419 
Q 3406 3131 3298 2873 
Q 3191 2616 2906 2266 
Q 2828 2175 2409 1742 
Q 1991 1309 1228 531 
z
" id="DejaVuSans-32" transform="scale(0.015625)"/>
       </defs>
       <use xlink:href="#DejaVuSans-32"/>
       <use x="63.623047" xlink:href="#DejaVuSans-30"/>
       <use x="127.246094" xlink:href="#DejaVuSans-30"/>
      </g>
     </g>
    </g>
    <g id="xtick_3">
     <g id="line2d_3">
      <g>
       <use style="stroke:#000000;stroke-width:0.8;" x="154.844087" xlink:href="#m68398d37a7" y="307.584"/>
      </g>
     </g>
     <g id="text_3">
      <!-- 400 -->
      <g transform="translate(145.300337 322.182437)scale(0.1 -0.1)">
       <defs>
        <path d="M 2419 4116 
L 825 1625 
L 2419 1625 
L 2419 4116 
z
M 2253 4666 
L 3047 4666 
L 3047 1625 
L 3713 1625 
L 3713 1100 
L 3047 1100 
L 3047 0 
L 2419 0 
L 2419 1100 
L 313 1100 
L 313 1709 
L 2253 4666 
z
" id="DejaVuSans-34" transform="scale(0.015625)"/>
       </defs>
       <use xlink:href="#DejaVuSans-34"/>
       <use x="63.623047" xlink:href="#DejaVuSans-30"/>
       <use x="127.246094" xlink:href="#DejaVuSans-30"/>
      </g>
     </g>
    </g>
    <g id="xtick_4">
     <g id="line2d_4">
      <g>
       <use style="stroke:#000000;stroke-width:0.8;" x="195.451284" xlink:href="#m68398d37a7" y="307.584"/>
      </g>
     </g>
     <g id="text_4">
      <!-- 600 -->
      <g transform="translate(185.907534 322.182437)scale(0.1 -0.1)">
       <defs>
        <path d="M 2113 2584 
Q 1688 2584 1439 2293 
Q 1191 2003 1191 1497 
Q 1191 994 1439 701 
Q 1688 409 2113 409 
Q 2538 409 2786 701 
Q 3034 994 3034 1497 
Q 3034 2003 2786 2293 
Q 2538 2584 2113 2584 
z
M 3366 4563 
L 3366 3988 
Q 3128 4100 2886 4159 
Q 2644 4219 2406 4219 
Q 1781 4219 1451 3797 
Q 1122 3375 1075 2522 
Q 1259 2794 1537 2939 
Q 1816 3084 2150 3084 
Q 2853 3084 3261 2657 
Q 3669 2231 3669 1497 
Q 3669 778 3244 343 
Q 2819 -91 2113 -91 
Q 1303 -91 875 529 
Q 447 1150 447 2328 
Q 447 3434 972 4092 
Q 1497 4750 2381 4750 
Q 2619 4750 2861 4703 
Q 3103 4656 3366 4563 
z
" id="DejaVuSans-36" transform="scale(0.015625)"/>
       </defs>
       <use xlink:href="#DejaVuSans-36"/>
       <use x="63.623047" xlink:href="#DejaVuSans-30"/>
       <use x="127.246094" xlink:href="#DejaVuSans-30"/>
      </g>
     </g>
    </g>
    <g id="xtick_5">
     <g id="line2d_5">
      <g>
       <use style="stroke:#000000;stroke-width:0.8;" x="236.058482" xlink:href="#m68398d37a7" y="307.584"/>
      </g>
     </g>
     <g id="text_5">
      <!-- 800 -->
      <g transform="translate(226.514732 322.182437)scale(0.1 -0.1)">
       <defs>
        <path d="M 2034 2216 
Q 1584 2216 1326 1975 
Q 1069 1734 1069 1313 
Q 1069 891 1326 650 
Q 1584 409 2034 409 
Q 2484 409 2743 651 
Q 3003 894 3003 1313 
Q 3003 1734 2745 1975 
Q 2488 2216 2034 2216 
z
M 1403 2484 
Q 997 2584 770 2862 
Q 544 3141 544 3541 
Q 544 4100 942 4425 
Q 1341 4750 2034 4750 
Q 2731 4750 3128 4425 
Q 3525 4100 3525 3541 
Q 3525 3141 3298 2862 
Q 3072 2584 2669 2484 
Q 3125 2378 3379 2068 
Q 3634 1759 3634 1313 
Q 3634 634 3220 271 
Q 2806 -91 2034 -91 
Q 1263 -91 848 271 
Q 434 634 434 1313 
Q 434 1759 690 2068 
Q 947 2378 1403 2484 
z
M 1172 3481 
Q 1172 3119 1398 2916 
Q 1625 2713 2034 2713 
Q 2441 2713 2670 2916 
Q 2900 3119 2900 3481 
Q 2900 3844 2670 4047 
Q 2441 4250 2034 4250 
Q 1625 4250 1398 4047 
Q 1172 3844 1172 3481 
z
" id="DejaVuSans-38" transform="scale(0.015625)"/>
       </defs>
       <use xlink:href="#DejaVuSans-38"/>
       <use x="63.623047" xlink:href="#DejaVuSans-30"/>
       <use x="127.246094" xlink:href="#DejaVuSans-30"/>
      </g>
     </g>
    </g>
    <g id="xtick_6">
     <g id="line2d_6">
      <g>
       <use style="stroke:#000000;stroke-width:0.8;" x="276.66568" xlink:href="#m68398d37a7" y="307.584"/>
      </g>
     </g>
     <g id="text_6">
      <!-- 1000 -->
      <g transform="translate(263.94068 322.182437)scale(0.1 -0.1)">
       <defs>
        <path d="M 794 531 
L 1825 531 
L 1825 4091 
L 703 3866 
L 703 4441 
L 1819 4666 
L 2450 4666 
L 2450 531 
L 3481 531 
L 3481 0 
L 794 0 
L 794 531 
z
" id="DejaVuSans-31" transform="scale(0.015625)"/>
       </defs>
       <use xlink:href="#DejaVuSans-31"/>
       <use x="63.623047" xlink:href="#DejaVuSans-30"/>
       <use x="127.246094" xlink:href="#DejaVuSans-30"/>
       <use x="190.869141" xlink:href="#DejaVuSans-30"/>
      </g>
     </g>
    </g>
    <g id="xtick_7">
     <g id="line2d_7">
      <g>
       <use style="stroke:#000000;stroke-width:0.8;" x="317.272877" xlink:href="#m68398d37a7" y="307.584"/>
      </g>
     </g>
     <g id="text_7">
      <!-- 1200 -->
      <g transform="translate(304.547877 322.182437)scale(0.1 -0.1)">
       <use xlink:href="#DejaVuSans-31"/>
       <use x="63.623047" xlink:href="#DejaVuSans-32"/>
       <use x="127.246094" xlink:href="#DejaVuSans-30"/>
       <use x="190.869141" xlink:href="#DejaVuSans-30"/>
      </g>
     </g>
    </g>
    <g id="xtick_8">
     <g id="line2d_8">
      <g>
       <use style="stroke:#000000;stroke-width:0.8;" x="357.880075" xlink:href="#m68398d37a7" y="307.584"/>
      </g>
     </g>
     <g id="text_8">
      <!-- 1400 -->
      <g transform="translate(345.155075 322.182437)scale(0.1 -0.1)">
       <use xlink:href="#DejaVuSans-31"/>
       <use x="63.623047" xlink:href="#DejaVuSans-34"/>
       <use x="127.246094" xlink:href="#DejaVuSans-30"/>
       <use x="190.869141" xlink:href="#DejaVuSans-30"/>
      </g>
     </g>
    </g>
    <g id="xtick_9">
     <g id="line2d_9">
      <g>
       <use style="stroke:#000000;stroke-width:0.8;" x="398.487273" xlink:href="#m68398d37a7" y="307.584"/>
      </g>
     </g>
     <g id="text_9">
      <!-- 1600 -->
      <g transform="translate(385.762273 322.182437)scale(0.1 -0.1)">
       <use xlink:href="#DejaVuSans-31"/>
       <use x="63.623047" xlink:href="#DejaVuSans-36"/>
       <use x="127.246094" xlink:href="#DejaVuSans-30"/>
       <use x="190.869141" xlink:href="#DejaVuSans-30"/>
      </g>
     </g>
    </g>
    <g id="text_10">
     <!-- Epoch -->
     <g transform="translate(213.193594 339.659781)scale(0.15 -0.15)">
      <defs>
       <path d="M 628 4666 
L 3578 4666 
L 3578 4134 
L 1259 4134 
L 1259 2753 
L 3481 2753 
L 3481 2222 
L 1259 2222 
L 1259 531 
L 3634 531 
L 3634 0 
L 628 0 
L 628 4666 
z
" id="DejaVuSans-45" transform="scale(0.015625)"/>
       <path d="M 1159 525 
L 1159 -1331 
L 581 -1331 
L 581 3500 
L 1159 3500 
L 1159 2969 
Q 1341 3281 1617 3432 
Q 1894 3584 2278 3584 
Q 2916 3584 3314 3078 
Q 3713 2572 3713 1747 
Q 3713 922 3314 415 
Q 2916 -91 2278 -91 
Q 1894 -91 1617 61 
Q 1341 213 1159 525 
z
M 3116 1747 
Q 3116 2381 2855 2742 
Q 2594 3103 2138 3103 
Q 1681 3103 1420 2742 
Q 1159 2381 1159 1747 
Q 1159 1113 1420 752 
Q 1681 391 2138 391 
Q 2594 391 2855 752 
Q 3116 1113 3116 1747 
z
" id="DejaVuSans-70" transform="scale(0.015625)"/>
       <path d="M 1959 3097 
Q 1497 3097 1228 2736 
Q 959 2375 959 1747 
Q 959 1119 1226 758 
Q 1494 397 1959 397 
Q 2419 397 2687 759 
Q 2956 1122 2956 1747 
Q 2956 2369 2687 2733 
Q 2419 3097 1959 3097 
z
M 1959 3584 
Q 2709 3584 3137 3096 
Q 3566 2609 3566 1747 
Q 3566 888 3137 398 
Q 2709 -91 1959 -91 
Q 1206 -91 779 398 
Q 353 888 353 1747 
Q 353 2609 779 3096 
Q 1206 3584 1959 3584 
z
" id="DejaVuSans-6f" transform="scale(0.015625)"/>
       <path d="M 3122 3366 
L 3122 2828 
Q 2878 2963 2633 3030 
Q 2388 3097 2138 3097 
Q 1578 3097 1268 2742 
Q 959 2388 959 1747 
Q 959 1106 1268 751 
Q 1578 397 2138 397 
Q 2388 397 2633 464 
Q 2878 531 3122 666 
L 3122 134 
Q 2881 22 2623 -34 
Q 2366 -91 2075 -91 
Q 1284 -91 818 406 
Q 353 903 353 1747 
Q 353 2603 823 3093 
Q 1294 3584 2113 3584 
Q 2378 3584 2631 3529 
Q 2884 3475 3122 3366 
z
" id="DejaVuSans-63" transform="scale(0.015625)"/>
       <path d="M 3513 2113 
L 3513 0 
L 2938 0 
L 2938 2094 
Q 2938 2591 2744 2837 
Q 2550 3084 2163 3084 
Q 1697 3084 1428 2787 
Q 1159 2491 1159 1978 
L 1159 0 
L 581 0 
L 581 4863 
L 1159 4863 
L 1159 2956 
Q 1366 3272 1645 3428 
Q 1925 3584 2291 3584 
Q 2894 3584 3203 3211 
Q 3513 2838 3513 2113 
z
" id="DejaVuSans-68" transform="scale(0.015625)"/>
      </defs>
      <use xlink:href="#DejaVuSans-45"/>
      <use x="63.183594" xlink:href="#DejaVuSans-70"/>
      <use x="126.660156" xlink:href="#DejaVuSans-6f"/>
      <use x="187.841797" xlink:href="#DejaVuSans-63"/>
      <use x="242.822266" xlink:href="#DejaVuSans-68"/>
     </g>
    </g>
   </g>
   <g id="matplotlib.axis_2">
    <g id="ytick_1">
     <g id="line2d_10">
      <defs>
       <path d="M 0 0 
L -3.5 0 
" id="m2210fae133" style="stroke:#000000;stroke-width:0.8;"/>
      </defs>
      <g>
       <use style="stroke:#000000;stroke-width:0.8;" x="57.6" xlink:href="#m2210fae133" y="306.374804"/>
      </g>
     </g>
     <g id="text_11">
      <!-- −0.25 -->
      <g transform="translate(19.954687 310.174023)scale(0.1 -0.1)">
       <defs>
        <path d="M 678 2272 
L 4684 2272 
L 4684 1741 
L 678 1741 
L 678 2272 
z
" id="DejaVuSans-2212" transform="scale(0.015625)"/>
        <path d="M 684 794 
L 1344 794 
L 1344 0 
L 684 0 
L 684 794 
z
" id="DejaVuSans-2e" transform="scale(0.015625)"/>
        <path d="M 691 4666 
L 3169 4666 
L 3169 4134 
L 1269 4134 
L 1269 2991 
Q 1406 3038 1543 3061 
Q 1681 3084 1819 3084 
Q 2600 3084 3056 2656 
Q 3513 2228 3513 1497 
Q 3513 744 3044 326 
Q 2575 -91 1722 -91 
Q 1428 -91 1123 -41 
Q 819 9 494 109 
L 494 744 
Q 775 591 1075 516 
Q 1375 441 1709 441 
Q 2250 441 2565 725 
Q 2881 1009 2881 1497 
Q 2881 1984 2565 2268 
Q 2250 2553 1709 2553 
Q 1456 2553 1204 2497 
Q 953 2441 691 2322 
L 691 4666 
z
" id="DejaVuSans-35" transform="scale(0.015625)"/>
       </defs>
       <use xlink:href="#DejaVuSans-2212"/>
       <use x="83.789062" xlink:href="#DejaVuSans-30"/>
       <use x="147.412109" xlink:href="#DejaVuSans-2e"/>
       <use x="179.199219" xlink:href="#DejaVuSans-32"/>
       <use x="242.822266" xlink:href="#DejaVuSans-35"/>
      </g>
     </g>
    </g>
    <g id="ytick_2">
     <g id="line2d_11">
      <g>
       <use style="stroke:#000000;stroke-width:0.8;" x="57.6" xlink:href="#m2210fae133" y="271.194236"/>
      </g>
     </g>
     <g id="text_12">
      <!-- 0.00 -->
      <g transform="translate(28.334375 274.993455)scale(0.1 -0.1)">
       <use xlink:href="#DejaVuSans-30"/>
       <use x="63.623047" xlink:href="#DejaVuSans-2e"/>
       <use x="95.410156" xlink:href="#DejaVuSans-30"/>
       <use x="159.033203" xlink:href="#DejaVuSans-30"/>
      </g>
     </g>
    </g>
    <g id="ytick_3">
     <g id="line2d_12">
      <g>
       <use style="stroke:#000000;stroke-width:0.8;" x="57.6" xlink:href="#m2210fae133" y="236.013669"/>
      </g>
     </g>
     <g id="text_13">
      <!-- 0.25 -->
      <g transform="translate(28.334375 239.812888)scale(0.1 -0.1)">
       <use xlink:href="#DejaVuSans-30"/>
       <use x="63.623047" xlink:href="#DejaVuSans-2e"/>
       <use x="95.410156" xlink:href="#DejaVuSans-32"/>
       <use x="159.033203" xlink:href="#DejaVuSans-35"/>
      </g>
     </g>
    </g>
    <g id="ytick_4">
     <g id="line2d_13">
      <g>
       <use style="stroke:#000000;stroke-width:0.8;" x="57.6" xlink:href="#m2210fae133" y="200.833101"/>
      </g>
     </g>
     <g id="text_14">
      <!-- 0.50 -->
      <g transform="translate(28.334375 204.63232)scale(0.1 -0.1)">
       <use xlink:href="#DejaVuSans-30"/>
       <use x="63.623047" xlink:href="#DejaVuSans-2e"/>
       <use x="95.410156" xlink:href="#DejaVuSans-35"/>
       <use x="159.033203" xlink:href="#DejaVuSans-30"/>
      </g>
     </g>
    </g>
    <g id="ytick_5">
     <g id="line2d_14">
      <g>
       <use style="stroke:#000000;stroke-width:0.8;" x="57.6" xlink:href="#m2210fae133" y="165.652534"/>
      </g>
     </g>
     <g id="text_15">
      <!-- 0.75 -->
      <g transform="translate(28.334375 169.451753)scale(0.1 -0.1)">
       <defs>
        <path d="M 525 4666 
L 3525 4666 
L 3525 4397 
L 1831 0 
L 1172 0 
L 2766 4134 
L 525 4134 
L 525 4666 
z
" id="DejaVuSans-37" transform="scale(0.015625)"/>
       </defs>
       <use xlink:href="#DejaVuSans-30"/>
       <use x="63.623047" xlink:href="#DejaVuSans-2e"/>
       <use x="95.410156" xlink:href="#DejaVuSans-37"/>
       <use x="159.033203" xlink:href="#DejaVuSans-35"/>
      </g>
     </g>
    </g>
    <g id="ytick_6">
     <g id="line2d_15">
      <g>
       <use style="stroke:#000000;stroke-width:0.8;" x="57.6" xlink:href="#m2210fae133" y="130.471966"/>
      </g>
     </g>
     <g id="text_16">
      <!-- 1.00 -->
      <g transform="translate(28.334375 134.271185)scale(0.1 -0.1)">
       <use xlink:href="#DejaVuSans-31"/>
       <use x="63.623047" xlink:href="#DejaVuSans-2e"/>
       <use x="95.410156" xlink:href="#DejaVuSans-30"/>
       <use x="159.033203" xlink:href="#DejaVuSans-30"/>
      </g>
     </g>
    </g>
    <g id="ytick_7">
     <g id="line2d_16">
      <g>
       <use style="stroke:#000000;stroke-width:0.8;" x="57.6" xlink:href="#m2210fae133" y="95.291399"/>
      </g>
     </g>
     <g id="text_17">
      <!-- 1.25 -->
      <g transform="translate(28.334375 99.090618)scale(0.1 -0.1)">
       <use xlink:href="#DejaVuSans-31"/>
       <use x="63.623047" xlink:href="#DejaVuSans-2e"/>
       <use x="95.410156" xlink:href="#DejaVuSans-32"/>
       <use x="159.033203" xlink:href="#DejaVuSans-35"/>
      </g>
     </g>
    </g>
    <g id="ytick_8">
     <g id="line2d_17">
      <g>
       <use style="stroke:#000000;stroke-width:0.8;" x="57.6" xlink:href="#m2210fae133" y="60.110831"/>
      </g>
     </g>
     <g id="text_18">
      <!-- 1.50 -->
      <g transform="translate(28.334375 63.91005)scale(0.1 -0.1)">
       <use xlink:href="#DejaVuSans-31"/>
       <use x="63.623047" xlink:href="#DejaVuSans-2e"/>
       <use x="95.410156" xlink:href="#DejaVuSans-35"/>
       <use x="159.033203" xlink:href="#DejaVuSans-30"/>
      </g>
     </g>
    </g>
   </g>
   <g id="line2d_18">
    <path clip-path="url(#p0e1a061842)" d="M 73.832727 89.899149 
L 74.238799 77.020785 
L 74.441835 128.200229 
L 74.644871 92.289755 
L 74.847907 95.61761 
L 75.253979 135.800576 
L 75.457015 119.538772 
L 75.660051 137.321482 
L 75.863087 122.863016 
L 76.066123 92.785289 
L 76.269159 112.54881 
L 76.472195 95.345963 
L 76.878267 111.790515 
L 77.081303 131.869603 
L 77.690411 87.728594 
L 77.893447 119.256953 
L 78.096483 122.858784 
L 78.502555 84.755829 
L 78.705591 96.07159 
L 78.908627 100.67254 
L 79.111663 63.42577 
L 79.314699 124.209325 
L 79.517735 77.005287 
L 79.720771 116.404845 
L 80.126843 90.651647 
L 80.329879 89.64593 
L 80.735951 123.849232 
L 81.142023 83.844023 
L 81.345059 131.916024 
L 81.548095 102.354006 
L 81.751131 104.009175 
L 81.954167 115.469546 
L 82.157203 114.034732 
L 82.360239 88.661389 
L 82.563275 149.115613 
L 82.766311 103.847426 
L 82.969347 105.064854 
L 83.172383 123.216522 
L 83.375419 96.419718 
L 83.578455 90.577567 
L 83.781491 76.911012 
L 83.984527 143.258208 
L 84.187563 118.220082 
L 84.593635 105.171752 
L 84.796671 87.472333 
L 84.999707 136.739345 
L 85.202743 116.983526 
L 85.405779 118.651575 
L 85.608815 128.883681 
L 85.811851 88.822063 
L 86.014887 86.376428 
L 86.217923 99.688205 
L 86.623995 135.455736 
L 86.827031 127.604113 
L 87.233103 77.939206 
L 87.436138 116.433225 
L 87.84221 81.993757 
L 88.045246 129.523301 
L 88.248282 142.707593 
L 88.451318 102.764046 
L 88.654354 125.144786 
L 88.85739 93.607399 
L 89.060426 121.294547 
L 89.263462 73.044997 
L 89.466498 117.692764 
L 90.075606 133.955275 
L 90.278642 82.020854 
L 90.481678 96.704419 
L 90.684714 137.041814 
L 90.88775 98.342264 
L 91.090786 125.318528 
L 91.293822 81.371351 
L 91.496858 119.003272 
L 91.699894 129.101122 
L 91.90293 123.412644 
L 92.105966 108.961297 
L 92.309002 119.09698 
L 92.512038 104.290348 
L 92.715074 114.294446 
L 92.91811 55.161428 
L 93.121146 91.43851 
L 93.324182 100.061344 
L 93.527218 117.959613 
L 93.93329 104.989314 
L 94.136326 57.701607 
L 94.339362 80.207685 
L 94.542398 89.2688 
L 94.745434 117.992716 
L 94.94847 91.386313 
L 95.151506 110.796744 
L 95.354542 145.529614 
L 95.760614 73.52624 
L 95.96365 90.339187 
L 96.166686 95.916553 
L 96.369722 55.418354 
L 96.775794 142.783104 
L 96.97883 78.203582 
L 97.181866 76.41596 
L 97.384902 77.807671 
L 97.587938 112.663171 
L 97.790974 76.241241 
L 97.99401 97.994313 
L 98.197046 153.860389 
L 98.400082 53.568 
L 98.603118 70.315504 
L 98.806154 124.739743 
L 99.212226 105.722329 
L 99.415262 118.559375 
L 99.618298 111.523809 
L 99.821334 137.813815 
L 100.227406 101.125668 
L 100.430442 141.291919 
L 100.633478 150.203746 
L 100.836514 95.351401 
L 101.03955 112.931438 
L 101.242586 66.590362 
L 101.445622 138.801042 
L 101.648658 112.293668 
L 101.851694 117.35193 
L 102.05473 72.084766 
L 102.257766 130.972574 
L 102.460802 104.343562 
L 102.663838 97.814653 
L 103.06991 140.314753 
L 103.272946 102.658573 
L 103.475982 89.551882 
L 103.679018 123.713258 
L 103.882054 106.206503 
L 104.08509 107.706248 
L 104.288126 131.299403 
L 104.491162 97.289949 
L 104.694198 101.462892 
L 104.897233 120.657267 
L 105.100269 127.845815 
L 105.303305 114.199971 
L 105.506341 120.478228 
L 105.709377 114.056939 
L 105.912413 125.207397 
L 106.115449 126.097969 
L 106.521521 91.324223 
L 106.724557 136.87462 
L 106.927593 94.165408 
L 107.130629 116.474464 
L 107.333665 87.300254 
L 107.536701 152.898684 
L 107.739737 97.622832 
L 107.942773 87.219365 
L 108.145809 113.810538 
L 108.348845 125.215812 
L 108.754917 72.944898 
L 108.957953 113.364144 
L 109.160989 128.343851 
L 109.364025 118.767905 
L 109.567061 79.53288 
L 109.770097 85.449394 
L 109.973133 108.886731 
L 110.176169 108.175968 
L 110.379205 113.213801 
L 110.582241 99.764995 
L 110.785277 106.305221 
L 110.988313 129.216472 
L 111.191349 91.001931 
L 111.597421 148.252655 
L 112.003493 101.503324 
L 112.206529 86.362688 
L 112.409565 124.624248 
L 112.612601 110.199864 
L 112.815637 138.243209 
L 113.018673 124.267359 
L 113.221709 123.509131 
L 113.424745 106.398228 
L 114.033853 159.438583 
L 114.236889 139.78892 
L 114.439925 83.610471 
L 114.845997 158.22704 
L 115.049033 118.083031 
L 115.252069 155.031401 
L 115.658141 114.555886 
L 115.861177 155.914912 
L 116.267249 105.862172 
L 116.470285 93.70843 
L 116.673321 147.229804 
L 116.876357 148.754773 
L 117.079393 141.192363 
L 117.282429 144.086343 
L 117.485465 108.401967 
L 117.688501 101.132722 
L 117.891537 121.407593 
L 118.500645 134.218329 
L 118.703681 111.527641 
L 119.109753 134.102999 
L 119.312789 105.090354 
L 119.515825 116.907903 
L 119.718861 137.979824 
L 119.921897 132.394103 
L 120.124933 115.968535 
L 120.327969 123.591267 
L 120.531005 126.76315 
L 120.734041 138.163988 
L 120.937077 162.045933 
L 121.140113 138.375406 
L 121.343149 132.395093 
L 121.749221 151.776644 
L 121.952257 141.346909 
L 122.155293 160.125087 
L 122.358329 130.310413 
L 122.561364 150.89238 
L 122.7644 116.249309 
L 122.967436 130.320765 
L 123.170472 119.993474 
L 123.373508 136.729004 
L 123.576544 127.593977 
L 123.77958 134.873815 
L 124.591724 118.39338 
L 124.79476 163.103315 
L 125.200832 129.901655 
L 125.403868 126.430318 
L 125.606904 132.428905 
L 125.80994 158.448604 
L 126.012976 140.98349 
L 126.216012 149.168733 
L 126.419048 135.221362 
L 126.622084 161.297931 
L 127.231192 130.938644 
L 127.434228 138.128953 
L 127.637264 152.626409 
L 128.043336 132.196293 
L 128.246372 149.506283 
L 128.449408 131.841803 
L 128.652444 147.963329 
L 128.85548 142.29898 
L 129.058516 143.088903 
L 129.261552 150.94692 
L 129.464588 142.6739 
L 129.667624 119.708472 
L 130.073696 184.500411 
L 130.276732 117.329561 
L 130.682804 160.636083 
L 130.88584 160.796859 
L 131.088876 126.006563 
L 131.291912 122.781221 
L 131.494948 144.687556 
L 131.697984 146.891966 
L 131.90102 177.226713 
L 132.307092 125.663753 
L 132.510128 169.339496 
L 132.713164 135.740164 
L 132.9162 153.718773 
L 133.119236 138.097093 
L 133.322272 137.41929 
L 133.525308 175.279215 
L 133.728344 140.448628 
L 133.93138 140.347666 
L 134.134416 168.437721 
L 134.337452 137.187784 
L 134.540488 170.905326 
L 134.743524 172.806406 
L 134.94656 180.742486 
L 135.149596 161.589231 
L 135.352632 181.780052 
L 135.555668 111.06186 
L 135.758704 142.894793 
L 135.96174 131.479979 
L 136.164776 142.886837 
L 136.367812 127.239585 
L 136.570848 133.905725 
L 136.773884 118.679931 
L 136.97692 160.493485 
L 137.179956 150.961164 
L 137.382992 148.747128 
L 137.586028 102.052708 
L 137.789064 140.443808 
L 137.9921 133.236033 
L 138.195136 154.43279 
L 138.398172 145.248221 
L 138.601208 124.684115 
L 138.804244 122.322432 
L 139.00728 134.132695 
L 139.210316 138.096136 
L 139.413352 182.93881 
L 139.616388 123.100931 
L 139.819424 163.180202 
L 140.022459 157.120189 
L 140.225495 125.770787 
L 140.428531 130.650324 
L 140.631567 153.364755 
L 140.834603 154.595962 
L 141.037639 136.753647 
L 141.443711 175.498055 
L 141.646747 148.505864 
L 142.052819 204.57064 
L 142.255855 148.459098 
L 142.458891 164.486541 
L 142.661927 159.270919 
L 142.864963 161.227065 
L 143.067999 170.686955 
L 143.271035 168.488766 
L 144.083179 189.623418 
L 144.286215 160.101794 
L 144.489251 172.020954 
L 144.692287 175.189133 
L 144.895323 144.897855 
L 145.098359 189.994849 
L 145.301395 150.196702 
L 145.504431 132.463329 
L 145.707467 175.375667 
L 145.910503 154.769097 
L 146.113539 169.987467 
L 146.316575 171.355638 
L 146.519611 164.849173 
L 146.722647 186.377254 
L 146.925683 147.45855 
L 147.128719 171.737583 
L 147.331755 167.40717 
L 147.737827 178.469971 
L 147.940863 167.865365 
L 148.143899 201.706933 
L 148.346935 160.968323 
L 148.549971 177.643894 
L 148.753007 159.197702 
L 148.956043 175.091949 
L 149.159079 167.432532 
L 149.362115 192.588402 
L 149.768187 197.509243 
L 149.971223 191.990436 
L 150.174259 168.699284 
L 150.377295 166.221523 
L 150.580331 150.906061 
L 150.783367 178.88013 
L 150.986403 172.120987 
L 151.189439 179.040837 
L 151.392475 176.777703 
L 151.595511 183.906928 
L 151.798547 164.949923 
L 152.001583 170.500859 
L 152.204619 179.746952 
L 152.407655 166.120231 
L 152.610691 160.101163 
L 152.813727 172.898842 
L 153.016763 166.873145 
L 153.219799 181.14046 
L 153.422835 158.710675 
L 153.625871 200.188765 
L 153.828907 199.651132 
L 154.031943 170.475124 
L 154.234979 197.861301 
L 154.438015 187.41912 
L 154.641051 188.25288 
L 154.844087 182.753295 
L 155.047123 172.576937 
L 155.250159 170.769009 
L 155.453195 186.779694 
L 155.656231 189.204025 
L 155.859267 208.034208 
L 156.062303 200.769167 
L 156.468375 178.069275 
L 156.671411 194.332969 
L 156.874447 181.673252 
L 157.280519 203.772962 
L 157.483554 202.969982 
L 157.68659 172.82297 
L 158.092662 201.972613 
L 158.295698 172.070946 
L 158.498734 163.768403 
L 159.107842 200.597968 
L 159.310878 197.151612 
L 159.513914 185.165989 
L 159.71695 220.45005 
L 159.919986 198.250615 
L 160.123022 190.105295 
L 160.326058 206.904654 
L 160.529094 213.864919 
L 160.73213 196.144171 
L 160.935166 197.455912 
L 161.138202 176.335736 
L 161.544274 219.165432 
L 162.153382 193.799329 
L 162.356418 204.928718 
L 162.559454 200.593771 
L 162.76249 199.091908 
L 162.965526 200.33277 
L 163.371598 192.182495 
L 163.574634 211.289158 
L 163.77767 185.501472 
L 164.183742 204.054722 
L 164.386778 208.842802 
L 164.589814 216.680865 
L 164.79285 186.48802 
L 164.995886 212.920078 
L 165.198922 196.485431 
L 165.401958 209.060365 
L 165.604994 212.914566 
L 165.80803 186.345638 
L 166.214102 194.241022 
L 166.417138 221.328625 
L 166.620174 205.478761 
L 166.82321 206.46134 
L 167.026246 200.253296 
L 167.229282 222.389932 
L 167.432318 214.70484 
L 167.635354 184.438002 
L 167.83839 208.911956 
L 168.041426 201.658122 
L 168.244462 217.410446 
L 168.447498 210.861061 
L 168.650534 232.07395 
L 169.056606 203.545289 
L 169.259642 201.462851 
L 169.462678 201.932169 
L 169.665714 218.693794 
L 169.86875 203.458763 
L 170.274822 207.507673 
L 170.477858 219.868611 
L 170.680894 201.820207 
L 170.88393 194.697269 
L 171.086966 213.141734 
L 171.290002 198.840691 
L 171.493038 230.950642 
L 171.696074 179.144554 
L 171.89911 216.918453 
L 172.102146 214.133961 
L 172.305182 209.6606 
L 172.508218 194.496932 
L 172.711254 210.749841 
L 172.91429 193.159797 
L 173.117326 214.520002 
L 173.320362 203.134278 
L 173.523398 198.172826 
L 173.726434 211.968759 
L 173.92947 206.229996 
L 174.132506 208.329258 
L 174.335542 212.007853 
L 174.538578 221.239888 
L 174.741614 205.377795 
L 174.944649 222.657406 
L 175.147685 210.278089 
L 175.350721 225.78268 
L 175.553757 200.498513 
L 175.756793 221.751077 
L 175.959829 210.063993 
L 176.162865 213.988573 
L 176.365901 204.532921 
L 176.568937 208.935177 
L 176.771973 216.058 
L 176.975009 200.956751 
L 177.381081 214.955017 
L 177.584117 212.42913 
L 177.787153 216.414215 
L 177.990189 233.302926 
L 178.193225 219.308223 
L 178.396261 222.575522 
L 178.599297 215.74927 
L 178.802333 179.703811 
L 179.005369 202.461009 
L 179.208405 211.261091 
L 179.411441 206.166483 
L 179.614477 229.612323 
L 179.817513 208.450553 
L 180.020549 214.847945 
L 180.223585 212.431815 
L 180.426621 204.958815 
L 180.629657 209.596681 
L 180.832693 227.883823 
L 181.238765 209.403507 
L 181.441801 233.088795 
L 181.644837 216.466376 
L 181.847873 218.637485 
L 182.253945 232.356351 
L 182.456981 222.130373 
L 182.660017 221.497463 
L 182.863053 215.478608 
L 183.066089 232.946057 
L 183.269125 220.152925 
L 183.472161 215.011663 
L 183.675197 214.336289 
L 183.878233 224.360185 
L 184.081269 221.065502 
L 184.284305 214.350466 
L 184.487341 215.669969 
L 184.690377 227.94895 
L 184.893413 227.130651 
L 185.096449 215.638807 
L 185.299485 232.172952 
L 185.502521 211.381387 
L 185.705557 231.73908 
L 185.908593 233.2755 
L 186.111629 213.15042 
L 186.517701 236.567356 
L 186.720737 223.779614 
L 186.923773 226.679315 
L 187.126809 226.301806 
L 187.329845 235.080096 
L 187.532881 235.395702 
L 187.938953 221.140531 
L 188.141989 227.485445 
L 188.345025 239.482165 
L 188.548061 235.684104 
L 188.751097 225.662893 
L 188.954133 233.77568 
L 189.157169 233.841999 
L 189.360205 234.606287 
L 189.563241 232.283317 
L 189.766277 231.296693 
L 189.969313 227.185919 
L 190.172349 204.877608 
L 190.375385 235.662675 
L 190.578421 226.764664 
L 190.781457 231.36602 
L 190.984493 231.711595 
L 191.187529 211.443112 
L 191.390565 230.201566 
L 191.593601 229.147154 
L 191.796637 202.525655 
L 191.999673 241.332784 
L 192.202709 226.17828 
L 192.405744 224.241107 
L 192.60878 242.787794 
L 193.014852 224.036939 
L 193.217888 220.645088 
L 193.420924 249.799135 
L 193.62396 246.168262 
L 193.826996 225.004946 
L 194.030032 224.064632 
L 194.233068 216.631382 
L 194.63914 242.753371 
L 195.045212 225.247715 
L 195.248248 243.90321 
L 195.451284 227.877436 
L 195.65432 234.134827 
L 195.857356 227.531983 
L 196.263428 239.78485 
L 196.466464 223.019415 
L 196.6695 224.581072 
L 196.872536 242.358637 
L 197.075572 232.057863 
L 197.278608 229.608967 
L 197.481644 228.588863 
L 197.887716 224.389998 
L 198.090752 242.427632 
L 198.293788 236.613167 
L 198.69986 221.247583 
L 198.902896 237.451586 
L 199.105932 235.297431 
L 199.308968 235.074815 
L 199.512004 239.0788 
L 199.918076 232.89228 
L 200.121112 226.197414 
L 200.324148 224.967123 
L 200.527184 236.844871 
L 200.73022 223.187529 
L 200.933256 243.760719 
L 201.339328 224.286255 
L 201.542364 222.194729 
L 201.7454 232.787014 
L 201.948436 229.840885 
L 202.151472 241.175709 
L 202.354508 235.861595 
L 202.557544 245.766616 
L 202.76058 233.033192 
L 202.963616 244.850854 
L 203.369688 230.557837 
L 203.572724 241.079041 
L 203.77576 233.490176 
L 203.978796 242.461036 
L 204.181832 237.785107 
L 204.384868 244.781735 
L 204.587904 243.525221 
L 204.79094 245.829192 
L 204.993976 237.772952 
L 205.197012 242.362943 
L 205.400048 243.773697 
L 205.603084 233.177322 
L 206.009156 245.903152 
L 206.212192 238.181522 
L 206.415228 262.274306 
L 206.618264 233.258391 
L 206.8213 245.501681 
L 207.024336 244.313951 
L 207.227372 232.183176 
L 207.430408 237.809332 
L 207.633444 234.16741 
L 207.83648 250.764641 
L 208.039516 239.987858 
L 208.242552 238.607664 
L 208.445588 250.509599 
L 208.648624 229.557001 
L 208.85166 242.711963 
L 209.054696 241.363679 
L 209.257732 248.45073 
L 209.460768 244.185628 
L 209.663804 229.223097 
L 209.86684 259.607141 
L 210.069875 243.469653 
L 210.272911 243.894592 
L 210.475947 251.475857 
L 210.678983 239.590686 
L 210.882019 262.124825 
L 211.085055 254.959641 
L 211.288091 226.81926 
L 211.491127 240.586516 
L 211.694163 235.750077 
L 211.897199 243.406728 
L 212.100235 244.078222 
L 212.303271 245.745231 
L 212.506307 238.937859 
L 212.709343 238.35637 
L 212.912379 225.680072 
L 213.115415 251.544445 
L 213.318451 249.19943 
L 213.521487 233.680308 
L 213.724523 248.463627 
L 213.927559 229.780872 
L 214.130595 258.717543 
L 214.333631 246.767675 
L 214.536667 243.513405 
L 214.739703 243.611734 
L 214.942739 241.776047 
L 215.348811 234.685482 
L 215.551847 253.00961 
L 215.754883 250.656633 
L 215.957919 236.307066 
L 216.160955 235.499377 
L 216.567027 255.21391 
L 216.770063 246.551907 
L 216.973099 247.118062 
L 217.176135 247.163606 
L 217.379171 252.100304 
L 217.582207 246.284138 
L 217.785243 254.112942 
L 217.988279 246.332062 
L 218.191315 245.193022 
L 218.394351 237.306611 
L 218.597387 241.911087 
L 218.800423 257.764052 
L 219.206495 246.412967 
L 219.409531 249.043161 
L 219.612567 244.725812 
L 219.815603 249.886449 
L 220.221675 237.936681 
L 220.424711 254.195055 
L 220.627747 234.778618 
L 220.830783 255.941154 
L 221.033819 255.255957 
L 221.236855 244.632517 
L 221.439891 247.522465 
L 221.642927 240.747842 
L 221.845963 238.541009 
L 222.252035 253.122951 
L 222.455071 227.425966 
L 222.658107 246.185675 
L 222.861143 230.030425 
L 223.064179 254.708165 
L 223.267215 251.396663 
L 223.470251 258.163682 
L 223.673287 252.923261 
L 223.876323 237.876244 
L 224.079359 254.050499 
L 224.282395 256.130998 
L 224.485431 245.141097 
L 224.891503 252.634663 
L 225.094539 232.926009 
L 225.297575 242.528938 
L 225.500611 242.21954 
L 225.703647 246.131815 
L 225.906683 257.454301 
L 226.109719 250.996959 
L 226.312755 257.017679 
L 226.718827 244.765934 
L 226.921863 252.195333 
L 227.124899 253.320758 
L 227.327935 249.403804 
L 227.53097 256.483511 
L 227.734006 256.882844 
L 227.937042 251.638119 
L 228.140078 260.229459 
L 228.343114 250.311419 
L 228.54615 259.611964 
L 228.952222 248.028378 
L 229.155258 248.662701 
L 229.358294 243.492284 
L 229.56133 251.030915 
L 229.764366 244.634434 
L 229.967402 242.103993 
L 230.170438 241.765195 
L 230.373474 240.972628 
L 230.57651 255.862702 
L 230.779546 255.0359 
L 231.185618 246.500336 
L 231.388654 230.291263 
L 231.794726 261.863335 
L 231.997762 258.68928 
L 232.200798 260.614709 
L 232.403834 247.811077 
L 232.809906 255.38131 
L 233.012942 256.035283 
L 233.215978 257.296276 
L 233.419014 269.01079 
L 233.62205 257.67188 
L 233.825086 261.330149 
L 234.028122 255.475449 
L 234.231158 254.575225 
L 234.434194 267.659378 
L 234.63723 252.079717 
L 234.840266 246.16182 
L 235.246338 242.728203 
L 235.449374 239.286257 
L 235.855446 261.57818 
L 236.058482 249.075106 
L 236.261518 262.442863 
L 236.464554 253.953933 
L 236.66759 251.327094 
L 236.870626 242.651945 
L 237.073662 243.795593 
L 237.276698 235.569179 
L 237.479734 237.186698 
L 237.68277 255.137727 
L 237.885806 252.251185 
L 238.088842 262.260894 
L 238.494914 246.659803 
L 238.900986 267.058801 
L 239.104022 251.462775 
L 239.307058 251.233567 
L 239.510094 248.125237 
L 239.71313 261.003361 
L 239.916166 255.56335 
L 240.119202 240.050475 
L 240.322238 265.793641 
L 240.72831 246.210473 
L 240.931346 254.911291 
L 241.134382 254.143745 
L 241.337418 249.455075 
L 241.74349 265.018685 
L 241.946526 250.396809 
L 242.149562 267.755681 
L 242.555634 254.515156 
L 242.75867 261.571703 
L 242.961706 256.91332 
L 243.164742 264.611755 
L 243.367778 261.973026 
L 243.570814 262.864208 
L 243.77385 254.366079 
L 243.976886 250.683284 
L 244.179922 261.467912 
L 244.382958 257.967259 
L 244.585994 262.525662 
L 244.78903 251.783018 
L 244.992065 261.783723 
L 245.195101 262.358979 
L 245.398137 253.12899 
L 245.601173 251.646347 
L 245.804209 260.160106 
L 246.007245 274.449262 
L 246.210281 260.662638 
L 246.616353 251.041515 
L 246.819389 265.322392 
L 247.022425 255.371374 
L 247.225461 261.567866 
L 247.428497 239.021727 
L 247.631533 255.590553 
L 247.834569 247.519242 
L 248.037605 271.712364 
L 248.240641 260.863145 
L 248.443677 265.367118 
L 248.849749 257.093008 
L 249.255821 262.02422 
L 249.458857 261.313155 
L 249.864929 257.525729 
L 250.271001 273.764508 
L 250.474037 275.005361 
L 250.880109 249.240383 
L 251.083145 254.083271 
L 251.286181 255.751633 
L 251.489217 266.124534 
L 251.692253 255.501496 
L 251.895289 267.546725 
L 252.098325 257.546878 
L 252.301361 265.274144 
L 252.504397 263.114136 
L 252.707433 262.925767 
L 252.910469 256.612497 
L 253.113505 270.482994 
L 253.519577 251.548594 
L 253.925649 260.085083 
L 254.128685 272.350979 
L 254.331721 258.727015 
L 254.534757 272.867627 
L 254.737793 261.997838 
L 254.940829 259.939517 
L 255.143865 268.820347 
L 255.346901 265.085886 
L 255.549937 252.407094 
L 255.752973 254.972035 
L 255.956009 265.310134 
L 256.159045 266.273111 
L 256.362081 263.924172 
L 256.565117 268.476293 
L 256.768153 256.750734 
L 256.971189 270.903371 
L 257.174225 259.391898 
L 257.377261 257.785601 
L 257.580297 262.195114 
L 257.986369 275.312282 
L 258.189405 260.450742 
L 258.392441 271.178687 
L 258.595477 273.280563 
L 259.001549 262.020231 
L 259.204585 272.064826 
L 259.407621 263.991065 
L 259.610657 220.551262 
L 260.016729 263.511155 
L 260.219765 244.348832 
L 260.625837 264.330813 
L 260.828873 258.888473 
L 261.031909 263.172961 
L 261.234945 263.923343 
L 261.437981 259.715934 
L 261.641017 267.68554 
L 261.844053 252.612591 
L 262.047089 270.467018 
L 262.250125 266.758726 
L 262.45316 274.364841 
L 262.656196 256.754057 
L 262.859232 266.494376 
L 263.062268 261.027259 
L 263.265304 248.948852 
L 263.46834 263.468944 
L 263.671376 265.377261 
L 263.874412 273.429866 
L 264.077448 274.363332 
L 264.280484 274.002538 
L 264.48352 259.337469 
L 264.686556 269.398061 
L 264.889592 257.739037 
L 265.092628 261.798378 
L 265.295664 274.332303 
L 265.4987 276.39967 
L 265.701736 274.804848 
L 266.107808 259.852549 
L 266.310844 257.332409 
L 266.51388 258.44385 
L 266.716916 245.528533 
L 266.919952 262.013353 
L 267.122988 260.890057 
L 267.326024 257.711847 
L 267.52906 260.052364 
L 267.732096 266.868788 
L 267.935132 261.375005 
L 268.138168 261.073103 
L 268.341204 264.552589 
L 268.54424 257.545069 
L 268.747276 273.262334 
L 268.950312 264.127369 
L 269.153348 270.954963 
L 269.356384 273.411618 
L 269.55942 256.90522 
L 269.762456 254.687582 
L 269.965492 266.919716 
L 270.168528 265.148176 
L 270.371564 260.944167 
L 270.5746 264.613187 
L 270.777636 271.54193 
L 270.980672 267.000066 
L 271.183708 276.222898 
L 271.386744 265.508113 
L 271.58978 269.143279 
L 272.198888 253.039773 
L 272.401924 258.451563 
L 272.60496 251.615445 
L 272.807996 269.900093 
L 273.011032 262.634683 
L 273.214068 266.79423 
L 273.417104 268.221408 
L 273.62014 268.784369 
L 273.823176 257.572626 
L 274.026212 268.706225 
L 274.229248 266.061307 
L 274.432284 260.483341 
L 274.63532 272.65893 
L 274.838356 261.838117 
L 275.041392 266.913222 
L 275.244428 281.935453 
L 275.6505 253.485746 
L 275.853536 246.172338 
L 276.259608 252.487631 
L 276.462644 265.67872 
L 276.66568 258.610335 
L 276.868716 268.789184 
L 277.071752 265.00636 
L 277.274788 276.767521 
L 277.477824 258.306339 
L 277.68086 277.135256 
L 277.883896 274.797532 
L 278.086932 270.968638 
L 278.289968 279.284116 
L 278.69604 261.788591 
L 278.899076 285.752458 
L 279.102112 253.33873 
L 279.305148 272.091441 
L 279.71122 266.485904 
L 279.914256 269.841116 
L 280.117291 271.260148 
L 280.523363 265.433188 
L 280.726399 269.283389 
L 280.929435 265.704785 
L 281.132471 254.758665 
L 281.335507 260.761379 
L 281.538543 249.332733 
L 281.741579 265.604404 
L 281.944615 257.347898 
L 282.147651 267.93176 
L 282.350687 270.120066 
L 282.553723 279.437285 
L 282.756759 263.773892 
L 283.162831 281.375841 
L 283.365867 269.938321 
L 283.568903 269.695438 
L 283.771939 264.238664 
L 283.974975 263.450668 
L 284.178011 263.580042 
L 284.584083 257.82154 
L 284.787119 274.924143 
L 284.990155 264.641955 
L 285.396227 271.164047 
L 285.599263 267.186925 
L 285.802299 270.122221 
L 286.208371 264.773534 
L 286.411407 265.990321 
L 286.614443 261.767298 
L 286.817479 275.323393 
L 287.020515 278.279709 
L 287.223551 267.639179 
L 287.426587 268.886989 
L 287.629623 268.976688 
L 287.832659 269.777382 
L 288.035695 265.797621 
L 288.238731 266.847976 
L 288.441767 274.496449 
L 288.644803 270.699652 
L 288.847839 273.573056 
L 289.050875 272.810274 
L 289.253911 273.821109 
L 289.456947 272.595375 
L 289.659983 258.962048 
L 289.863019 258.150577 
L 290.066055 273.880707 
L 290.269091 266.445476 
L 290.472127 284.123587 
L 290.675163 275.185857 
L 290.878199 278.423521 
L 291.081235 259.508848 
L 291.284271 268.893251 
L 291.487307 272.522765 
L 291.690343 278.733103 
L 291.893379 277.334079 
L 292.299451 247.370156 
L 292.502487 251.965868 
L 292.705523 266.817851 
L 292.908559 273.260617 
L 293.111595 272.363652 
L 293.314631 269.687519 
L 293.517667 272.957218 
L 293.720703 247.643178 
L 293.923739 243.78762 
L 294.126775 277.305867 
L 294.532847 265.346611 
L 294.938919 281.233548 
L 295.344991 265.19114 
L 295.548027 272.31634 
L 295.751063 269.029341 
L 295.954099 280.983637 
L 296.157135 279.416884 
L 296.360171 265.019444 
L 296.563207 266.077491 
L 296.766243 286.416781 
L 296.969279 283.329629 
L 297.172315 272.542349 
L 297.375351 282.00052 
L 297.578386 278.717123 
L 297.781422 267.692075 
L 297.984458 274.22019 
L 298.39053 271.801315 
L 298.796602 275.028229 
L 298.999638 264.054503 
L 299.202674 267.716594 
L 299.40571 262.445298 
L 299.608746 262.914485 
L 299.811782 275.034352 
L 300.014818 271.895101 
L 300.217854 275.874757 
L 300.42089 264.312059 
L 300.623926 261.992589 
L 300.826962 271.501788 
L 301.029998 274.346946 
L 301.233034 269.155729 
L 301.43607 269.16004 
L 301.639106 274.339315 
L 301.842142 267.665121 
L 302.045178 267.770526 
L 302.248214 279.05079 
L 302.45125 272.981982 
L 302.654286 286.968832 
L 302.857322 277.294135 
L 303.060358 284.6495 
L 303.46643 258.32589 
L 303.669466 263.117689 
L 303.872502 274.178987 
L 304.075538 257.051246 
L 304.48161 280.347288 
L 304.887682 264.917457 
L 305.293754 284.36477 
L 305.49679 275.232935 
L 305.699826 281.62417 
L 306.105898 268.777196 
L 306.308934 274.537129 
L 306.51197 272.878837 
L 306.715006 270.20124 
L 306.918042 274.238065 
L 307.121078 288.110195 
L 307.933222 265.328177 
L 308.136258 270.301749 
L 308.339294 259.339028 
L 308.54233 283.876798 
L 308.745366 284.579273 
L 308.948402 268.178104 
L 309.354474 277.394911 
L 309.55751 273.185441 
L 309.760546 277.871292 
L 309.963582 262.446397 
L 310.166618 278.433411 
L 310.369654 270.985391 
L 310.57269 271.856862 
L 310.775726 275.391277 
L 310.978762 265.25708 
L 311.181798 281.855435 
L 311.384834 275.068245 
L 311.58787 272.090749 
L 311.790906 258.341048 
L 311.993942 258.886581 
L 312.196978 256.912239 
L 312.60305 280.972767 
L 312.806086 266.210771 
L 313.009122 276.730215 
L 313.212158 270.732474 
L 313.415194 275.52045 
L 313.61823 277.445657 
L 313.821266 278.096328 
L 314.024302 264.395179 
L 314.227338 272.43557 
L 314.430374 265.383913 
L 314.63341 272.838773 
L 314.836446 272.782493 
L 315.039481 268.501307 
L 315.242517 284.812629 
L 315.445553 271.412577 
L 315.648589 273.055429 
L 315.851625 260.818203 
L 316.257697 282.800395 
L 316.460733 273.610448 
L 316.663769 283.693964 
L 316.866805 273.361976 
L 317.069841 276.343318 
L 317.272877 274.525683 
L 317.475913 265.26961 
L 317.678949 279.705788 
L 317.881985 273.326742 
L 318.085021 262.294272 
L 318.288057 263.125225 
L 318.491093 260.372214 
L 318.694129 277.549754 
L 318.897165 277.498688 
L 319.100201 284.91824 
L 319.506273 266.132871 
L 319.709309 263.754672 
L 319.912345 279.103695 
L 320.115381 277.281944 
L 320.318417 277.786865 
L 320.521453 267.731251 
L 320.724489 265.997257 
L 320.927525 278.686144 
L 321.130561 275.559137 
L 321.333597 265.413348 
L 321.536633 276.965286 
L 321.942705 267.951753 
L 322.348777 276.491193 
L 322.551813 277.76121 
L 322.754849 265.828186 
L 323.160921 275.571854 
L 323.363957 276.982626 
L 323.566993 265.617903 
L 323.770029 268.976001 
L 323.973065 260.033982 
L 324.176101 276.681606 
L 324.379137 276.984179 
L 324.582173 269.253428 
L 324.785209 268.266103 
L 324.988245 264.9612 
L 325.191281 275.080066 
L 325.597353 270.428189 
L 325.800389 274.815785 
L 326.003425 275.206967 
L 326.612533 286.213335 
L 326.815569 267.761607 
L 327.018605 273.012127 
L 327.221641 286.598076 
L 327.424677 280.627919 
L 327.627713 290.135467 
L 327.830749 283.460554 
L 328.033785 272.426264 
L 328.439857 274.97297 
L 328.642893 288.183729 
L 328.845929 263.57631 
L 329.048965 280.164391 
L 329.252001 280.452383 
L 329.455037 275.695867 
L 329.658073 267.964699 
L 329.861109 281.914859 
L 330.267181 265.660153 
L 330.470217 276.467266 
L 330.673253 272.036366 
L 330.876289 280.376318 
L 331.079325 267.070159 
L 331.282361 283.437079 
L 331.485397 264.641073 
L 331.688433 278.190074 
L 332.094505 273.993661 
L 332.297541 285.563136 
L 332.500576 290.671361 
L 332.703612 274.679483 
L 332.906648 277.830665 
L 333.109684 288.613042 
L 333.515756 272.225991 
L 333.718792 276.303764 
L 333.921828 271.80227 
L 334.3279 275.109625 
L 334.530936 281.313461 
L 334.733972 267.686657 
L 334.937008 284.044133 
L 335.140044 270.353668 
L 335.34308 278.105377 
L 335.546116 266.052962 
L 335.952188 273.155345 
L 336.155224 264.959547 
L 336.35826 278.50327 
L 336.561296 264.490931 
L 336.764332 280.93764 
L 336.967368 261.686149 
L 337.170404 276.900732 
L 337.37344 271.409003 
L 337.779512 283.402114 
L 337.982548 280.093106 
L 338.185584 265.909907 
L 338.38862 284.456366 
L 338.591656 278.735833 
L 338.794692 277.112741 
L 338.997728 278.711201 
L 339.200764 272.022048 
L 339.4038 277.635049 
L 339.606836 271.434034 
L 339.809872 281.697579 
L 340.012908 279.138202 
L 340.215944 281.659282 
L 340.41898 278.441471 
L 340.622016 268.338436 
L 340.825052 267.95382 
L 341.231124 277.643952 
L 341.43416 278.581497 
L 341.840232 266.003136 
L 342.043268 282.458524 
L 342.246304 283.526984 
L 342.652376 279.421464 
L 342.855412 274.20134 
L 343.058448 272.256129 
L 343.261484 268.077769 
L 343.46452 268.738773 
L 343.667556 272.764552 
L 343.870592 281.17887 
L 344.073628 284.580455 
L 344.4797 270.692462 
L 344.682736 278.543122 
L 344.885772 269.96845 
L 345.088808 282.252635 
L 345.291844 275.93202 
L 345.49488 284.089759 
L 345.697916 285.243124 
L 345.900952 267.686515 
L 346.103988 279.311068 
L 346.307024 272.002749 
L 346.51006 279.081338 
L 346.713096 276.212934 
L 346.916132 275.470794 
L 347.119168 286.462094 
L 347.322204 272.579133 
L 347.52524 279.363505 
L 347.728276 276.62215 
L 347.931312 285.504234 
L 348.134348 283.468996 
L 348.337384 260.096696 
L 348.743456 288.413978 
L 348.946492 271.576954 
L 349.149528 290.974569 
L 349.352564 279.461413 
L 349.5556 284.341916 
L 349.758636 284.788295 
L 349.961671 281.903825 
L 350.164707 265.009222 
L 350.367743 283.00991 
L 350.570779 282.840161 
L 350.773815 286.290933 
L 350.976851 266.993131 
L 351.179887 277.946046 
L 351.382923 267.275315 
L 351.585959 275.991234 
L 351.788995 269.545146 
L 351.992031 269.686977 
L 352.195067 280.187826 
L 352.601139 282.26192 
L 352.804175 281.515867 
L 353.007211 263.973559 
L 353.210247 274.994206 
L 353.413283 267.567651 
L 353.616319 266.544611 
L 353.819355 282.696286 
L 354.022391 278.115223 
L 354.225427 276.17232 
L 354.631499 277.975874 
L 354.834535 270.26686 
L 355.037571 285.162353 
L 355.240607 277.916412 
L 355.443643 277.402839 
L 355.646679 279.722757 
L 355.849715 286.567382 
L 356.052751 285.206692 
L 356.255787 276.588062 
L 356.661859 285.728621 
L 356.864895 279.890978 
L 357.067931 281.402583 
L 357.474003 269.73233 
L 357.880075 279.192207 
L 358.083111 280.212887 
L 358.286147 280.423657 
L 358.489183 275.25528 
L 358.692219 283.751562 
L 358.895255 275.140302 
L 359.098291 274.091861 
L 359.301327 280.950839 
L 359.707399 267.678334 
L 359.910435 284.760137 
L 360.113471 273.778799 
L 360.316507 278.551242 
L 360.519543 270.91602 
L 360.722579 288.545797 
L 360.925615 278.845916 
L 361.128651 285.175417 
L 361.331687 286.286814 
L 361.534723 263.328855 
L 361.737759 274.082428 
L 361.940795 277.211436 
L 362.143831 258.400287 
L 362.346867 285.286299 
L 362.549903 263.42272 
L 362.752939 279.133313 
L 362.955975 263.608779 
L 363.362047 278.889739 
L 363.565083 277.688491 
L 363.768119 280.135388 
L 363.971155 277.293378 
L 364.174191 287.900392 
L 364.377227 279.094488 
L 364.580263 276.274511 
L 364.783299 275.049364 
L 364.986335 280.696136 
L 365.189371 280.434337 
L 365.392407 274.354851 
L 365.595443 278.528154 
L 365.798479 286.078973 
L 366.001515 285.261077 
L 366.204551 283.629438 
L 366.407587 265.90873 
L 366.610623 288.97516 
L 366.813659 276.29807 
L 367.016695 283.872041 
L 367.219731 285.575761 
L 367.828838 264.148013 
L 368.437946 282.984302 
L 368.640982 278.029593 
L 368.844018 286.487876 
L 369.047054 276.785702 
L 369.25009 285.405963 
L 369.453126 282.368617 
L 369.656162 281.874961 
L 369.859198 281.806908 
L 370.062234 287.08455 
L 370.26527 286.337945 
L 370.468306 279.312065 
L 370.671342 279.104542 
L 371.077414 266.362083 
L 371.483486 280.760515 
L 371.686522 271.671247 
L 372.092594 288.992302 
L 372.29563 282.225666 
L 372.498666 280.557389 
L 372.904738 275.129647 
L 373.107774 276.241255 
L 373.513846 283.646089 
L 373.716882 257.786009 
L 373.919918 271.143045 
L 374.32599 274.347062 
L 374.529026 288.415494 
L 374.732062 281.918339 
L 374.935098 280.28994 
L 375.138134 283.654987 
L 375.34117 276.697062 
L 375.544206 283.041487 
L 375.747242 278.111006 
L 375.950278 276.507211 
L 376.153314 282.972742 
L 376.35635 277.500813 
L 376.559386 277.643294 
L 376.762422 263.733221 
L 376.965458 285.061534 
L 377.168494 268.475753 
L 377.37153 283.786516 
L 377.574566 278.134715 
L 377.777602 276.836699 
L 377.980638 261.038691 
L 378.183674 287.335253 
L 378.38671 276.387039 
L 378.589746 274.310944 
L 378.792782 268.943175 
L 378.995818 285.058025 
L 379.198854 277.253235 
L 379.40189 288.120319 
L 379.604926 291.899262 
L 379.807962 281.935961 
L 380.010998 280.224477 
L 380.214034 280.00376 
L 380.41707 270.818558 
L 380.620106 282.374305 
L 380.823142 281.371109 
L 381.026178 283.550237 
L 381.229214 281.650714 
L 381.43225 269.839561 
L 381.838322 285.121546 
L 382.041358 279.267074 
L 382.244394 281.686052 
L 382.44743 280.462737 
L 382.650466 280.309519 
L 382.853502 292.898955 
L 383.056538 260.230533 
L 383.259574 268.876338 
L 383.46261 286.086046 
L 383.868682 276.121953 
L 384.071718 280.23786 
L 384.274754 274.076321 
L 384.47779 273.573819 
L 384.680826 281.320082 
L 384.883862 260.096155 
L 385.086897 265.30641 
L 385.289933 285.683718 
L 385.492969 285.535637 
L 385.696005 280.263039 
L 385.899041 280.824266 
L 386.102077 275.728752 
L 386.305113 281.296846 
L 386.508149 272.890347 
L 386.711185 271.438496 
L 386.914221 275.691749 
L 387.117257 285.377646 
L 387.320293 283.500771 
L 387.523329 284.38885 
L 387.726365 268.484269 
L 388.335473 287.993909 
L 388.538509 274.386339 
L 388.741545 285.176946 
L 388.944581 274.966741 
L 389.147617 285.07657 
L 389.350653 282.358246 
L 389.553689 275.452757 
L 389.756725 285.432076 
L 389.959761 284.208354 
L 390.162797 286.34753 
L 390.365833 269.68306 
L 390.568869 286.73771 
L 390.771905 275.432918 
L 390.974941 276.923798 
L 391.177977 295.488 
L 391.381013 281.697817 
L 391.584049 278.768156 
L 391.787085 294.695094 
L 391.990121 284.299904 
L 392.193157 290.694105 
L 392.396193 283.680634 
L 392.599229 283.708182 
L 392.802265 284.311326 
L 393.005301 283.109944 
L 393.208337 293.648979 
L 393.411373 288.336977 
L 393.614409 292.016362 
L 393.817445 290.414602 
L 394.426553 272.764427 
L 394.629589 283.094329 
L 394.832625 276.230423 
L 395.035661 284.894023 
L 395.238697 277.925807 
L 395.441733 287.130857 
L 395.644769 264.426548 
L 395.847805 278.407914 
L 396.050841 270.139583 
L 396.456913 274.796503 
L 396.659949 274.39714 
L 397.066021 285.336927 
L 397.269057 272.830278 
L 397.472093 292.180835 
L 397.675129 274.1222 
L 397.878165 284.356515 
L 398.081201 285.745492 
L 398.284237 278.620165 
L 398.487273 294.037146 
L 398.487273 294.037146 
" style="fill:none;stroke:#1f77b4;stroke-linecap:square;stroke-width:1.5;"/>
   </g>
   <g id="line2d_19">
    <path clip-path="url(#p0e1a061842)" d="M 73.832727 98.985645 
L 74.035763 86.620339 
L 74.238799 121.841491 
L 74.441835 109.524004 
L 74.644871 109.463089 
L 74.847907 116.908246 
L 75.050943 116.231541 
L 75.253979 113.130088 
L 75.457015 111.839325 
L 75.660051 101.534307 
L 75.863087 79.483631 
L 76.066123 127.726838 
L 76.269159 102.976576 
L 76.472195 107.951791 
L 76.675231 92.380442 
L 76.878267 110.281558 
L 77.081303 117.426245 
L 77.284339 91.963514 
L 77.487375 90.893487 
L 77.690411 119.10195 
L 77.893447 104.517858 
L 78.096483 120.030069 
L 78.299519 119.006863 
L 78.502555 95.225168 
L 78.705591 119.595694 
L 78.908627 105.288298 
L 79.314699 117.573612 
L 79.517735 123.917622 
L 79.923807 77.714593 
L 80.532915 146.16346 
L 80.735951 94.939525 
L 80.938987 114.400775 
L 81.345059 108.916674 
L 81.751131 145.074681 
L 81.954167 95.043856 
L 82.157203 89.692695 
L 82.360239 117.679305 
L 82.563275 95.212882 
L 82.766311 124.754608 
L 82.969347 99.475753 
L 83.375419 119.176656 
L 83.578455 116.550574 
L 83.781491 133.959467 
L 83.984527 103.982103 
L 84.187563 101.617157 
L 84.390599 112.420971 
L 84.593635 88.681163 
L 84.796671 92.494878 
L 84.999707 119.642871 
L 85.202743 81.80748 
L 85.405779 118.774761 
L 85.608815 110.287683 
L 85.811851 69.975631 
L 86.014887 109.992254 
L 86.217923 104.489842 
L 86.420959 129.889097 
L 86.623995 82.461993 
L 86.827031 83.765324 
L 87.030067 103.690292 
L 87.233103 109.162054 
L 87.436138 80.744615 
L 87.639174 114.887261 
L 87.84221 96.164285 
L 88.045246 124.788791 
L 88.248282 96.453403 
L 88.451318 118.973222 
L 88.654354 95.276485 
L 88.85739 101.694582 
L 89.060426 92.467197 
L 89.263462 92.869869 
L 89.466498 110.78504 
L 89.669534 88.49115 
L 89.87257 89.285668 
L 90.075606 114.173583 
L 90.278642 85.971733 
L 90.481678 118.592361 
L 90.684714 77.479703 
L 90.88775 89.988553 
L 91.090786 151.09611 
L 91.293822 107.117572 
L 91.496858 87.585928 
L 91.699894 86.761387 
L 91.90293 94.510566 
L 92.105966 108.373651 
L 92.309002 95.594821 
L 92.512038 99.545237 
L 92.715074 112.649518 
L 92.91811 146.149467 
L 93.121146 113.687754 
L 93.324182 117.559295 
L 93.527218 124.586664 
L 93.730254 93.244334 
L 93.93329 82.229495 
L 94.136326 105.499073 
L 94.339362 106.585002 
L 94.542398 142.512766 
L 94.745434 99.507121 
L 94.94847 113.386877 
L 95.151506 93.534756 
L 95.354542 103.938143 
L 95.557578 100.052312 
L 95.760614 119.12521 
L 95.96365 97.548718 
L 96.166686 126.517459 
L 96.369722 85.92074 
L 96.572758 118.66134 
L 96.775794 106.009171 
L 97.181866 123.354567 
L 97.384902 98.78027 
L 97.587938 94.573243 
L 97.99401 109.426953 
L 98.197046 140.288951 
L 98.603118 119.944751 
L 98.806154 104.189478 
L 99.00919 114.549877 
L 99.212226 97.084282 
L 99.415262 104.716711 
L 99.618298 107.74501 
L 100.02437 68.659009 
L 100.227406 99.929293 
L 100.430442 109.046306 
L 100.633478 103.955034 
L 100.836514 91.701045 
L 101.03955 118.723335 
L 101.242586 99.027483 
L 101.445622 130.807937 
L 101.648658 117.81394 
L 101.851694 86.15045 
L 102.05473 102.582281 
L 102.257766 108.968745 
L 102.460802 95.340975 
L 102.663838 94.070805 
L 102.866874 84.484981 
L 103.06991 112.8372 
L 103.272946 114.67498 
L 103.475982 118.239094 
L 103.679018 118.776766 
L 103.882054 122.501766 
L 104.08509 88.716923 
L 104.288126 90.771206 
L 104.491162 107.007653 
L 104.694198 110.258731 
L 104.897233 79.180401 
L 105.100269 111.230203 
L 105.303305 119.066905 
L 105.709377 95.897084 
L 105.912413 112.278221 
L 106.318485 97.75809 
L 106.521521 124.752389 
L 106.724557 121.002345 
L 106.927593 97.700355 
L 107.130629 105.710413 
L 107.333665 124.344829 
L 107.739737 111.86168 
L 107.942773 121.363109 
L 108.145809 115.810029 
L 108.348845 88.289348 
L 108.551881 106.426074 
L 108.754917 108.587848 
L 108.957953 109.215234 
L 109.160989 101.338923 
L 109.364025 103.415496 
L 109.567061 114.435083 
L 109.770097 114.814394 
L 109.973133 107.142316 
L 110.176169 115.544721 
L 110.379205 90.12204 
L 110.582241 99.93327 
L 110.785277 103.112229 
L 110.988313 81.951745 
L 111.191349 109.802971 
L 111.394385 108.348239 
L 111.597421 76.637991 
L 112.003493 118.184672 
L 112.206529 124.127635 
L 112.409565 104.049289 
L 112.612601 139.206418 
L 112.815637 92.352693 
L 113.018673 127.671637 
L 113.221709 103.943331 
L 113.424745 122.113699 
L 113.627781 106.253789 
L 113.830817 162.226138 
L 114.033853 103.815268 
L 114.236889 116.66507 
L 114.439925 94.172538 
L 114.642961 100.279562 
L 114.845997 111.575853 
L 115.049033 99.414201 
L 115.252069 113.57048 
L 115.455105 138.655072 
L 115.658141 140.311713 
L 115.861177 125.13316 
L 116.064213 158.809998 
L 116.267249 113.055011 
L 116.470285 134.401858 
L 116.673321 117.009021 
L 116.876357 126.980291 
L 117.282429 112.502792 
L 117.485465 142.111748 
L 117.891537 114.156912 
L 118.094573 143.69493 
L 118.297609 126.045215 
L 118.500645 149.603644 
L 118.703681 105.80652 
L 118.906717 126.290895 
L 119.109753 114.503148 
L 119.312789 134.068433 
L 119.515825 134.55358 
L 119.718861 131.695243 
L 119.921897 116.43305 
L 120.124933 136.916777 
L 120.327969 110.573916 
L 120.531005 106.210987 
L 120.937077 142.422396 
L 121.140113 136.452161 
L 121.343149 115.573071 
L 121.546185 141.583725 
L 121.749221 102.937157 
L 121.952257 144.647925 
L 122.155293 121.452629 
L 122.561364 156.932232 
L 122.7644 101.45449 
L 122.967436 129.158733 
L 123.170472 131.936102 
L 123.373508 139.370405 
L 123.576544 132.345847 
L 123.77958 112.895141 
L 123.982616 115.237149 
L 124.185652 123.485533 
L 124.388688 123.879058 
L 124.591724 140.637418 
L 124.997796 125.801942 
L 125.200832 105.937752 
L 125.403868 142.554874 
L 126.012976 133.552062 
L 126.216012 140.00369 
L 126.419048 140.163046 
L 126.622084 121.752133 
L 127.028156 139.984415 
L 127.231192 125.818562 
L 127.434228 144.480388 
L 127.637264 133.549168 
L 127.8403 139.258336 
L 128.043336 122.87567 
L 128.246372 154.802229 
L 128.449408 134.502759 
L 128.652444 131.315428 
L 128.85548 160.350924 
L 129.058516 146.416646 
L 129.261552 163.329925 
L 129.464588 135.835326 
L 129.667624 131.278163 
L 129.87066 116.821968 
L 130.073696 145.814866 
L 130.276732 134.891923 
L 130.479768 141.014043 
L 130.682804 136.545644 
L 130.88584 135.453831 
L 131.088876 165.530788 
L 131.291912 137.949832 
L 131.494948 148.973 
L 131.697984 124.74836 
L 132.104056 145.607119 
L 132.307092 132.396471 
L 132.510128 144.419965 
L 132.713164 166.668297 
L 132.9162 141.454091 
L 133.119236 143.350214 
L 133.322272 146.334798 
L 133.525308 140.418418 
L 133.728344 161.39013 
L 134.134416 138.993873 
L 134.540488 148.858209 
L 134.743524 151.388429 
L 134.94656 140.344814 
L 135.149596 147.319313 
L 135.555668 118.848025 
L 135.758704 142.400973 
L 135.96174 107.261248 
L 136.164776 123.154166 
L 136.367812 121.449346 
L 136.570848 145.421725 
L 136.773884 114.445632 
L 136.97692 109.079793 
L 137.179956 126.240402 
L 137.382992 133.518838 
L 137.586028 129.132502 
L 137.789064 114.567128 
L 138.195136 124.903365 
L 138.601208 143.098948 
L 138.804244 137.962722 
L 139.00728 146.081746 
L 139.210316 141.007918 
L 139.413352 129.892152 
L 139.616388 112.636705 
L 139.819424 117.638493 
L 140.022459 148.627954 
L 140.225495 160.315936 
L 140.428531 140.441671 
L 140.631567 151.737999 
L 140.834603 175.500609 
L 141.037639 130.118228 
L 141.240675 125.513415 
L 141.443711 141.968747 
L 141.646747 137.933489 
L 141.849783 140.426837 
L 142.052819 146.006614 
L 142.458891 132.384255 
L 142.661927 146.005401 
L 142.864963 138.432071 
L 143.067999 136.526578 
L 143.474071 159.889539 
L 143.677107 157.449569 
L 143.880143 151.119041 
L 144.286215 149.710681 
L 144.489251 151.07107 
L 144.692287 154.703534 
L 144.895323 149.352522 
L 145.098359 169.597585 
L 145.301395 148.965766 
L 145.504431 159.431975 
L 145.707467 139.479762 
L 145.910503 160.251373 
L 146.316575 136.808448 
L 146.722647 172.969574 
L 146.925683 158.038427 
L 147.128719 155.855298 
L 147.331755 146.300152 
L 147.534791 158.814316 
L 147.737827 147.851612 
L 147.940863 160.526512 
L 148.143899 157.220797 
L 148.346935 147.93907 
L 148.549971 164.747512 
L 148.753007 168.383837 
L 148.956043 147.25864 
L 149.159079 161.250661 
L 149.362115 157.261174 
L 149.565151 164.690521 
L 149.768187 145.184508 
L 149.971223 146.769131 
L 150.174259 149.828078 
L 150.580331 175.967351 
L 150.783367 166.519689 
L 150.986403 168.911074 
L 151.189439 151.21065 
L 151.392475 157.014479 
L 151.595511 139.204673 
L 151.798547 178.824837 
L 152.001583 164.87634 
L 152.204619 165.121037 
L 152.407655 148.962271 
L 152.610691 153.38688 
L 152.813727 146.563335 
L 153.016763 154.576743 
L 153.219799 179.756549 
L 153.828907 142.200042 
L 154.031943 175.601856 
L 154.234979 170.499212 
L 154.641051 142.404436 
L 154.844087 163.776676 
L 155.047123 151.230328 
L 155.250159 169.430687 
L 155.453195 171.159702 
L 155.656231 151.243123 
L 155.859267 173.777828 
L 156.265339 160.306111 
L 156.468375 167.759161 
L 156.671411 155.567465 
L 157.280519 169.387467 
L 157.889626 159.411626 
L 158.092662 175.671254 
L 158.295698 182.236856 
L 158.498734 168.138586 
L 158.70177 168.366576 
L 158.904806 161.098759 
L 159.107842 159.416453 
L 159.310878 165.925722 
L 159.513914 158.771407 
L 159.71695 165.457231 
L 159.919986 154.578445 
L 160.123022 162.092451 
L 160.326058 176.782282 
L 160.529094 156.933178 
L 160.73213 174.011253 
L 160.935166 154.879493 
L 161.341238 172.476524 
L 161.544274 176.951063 
L 161.74731 155.162872 
L 161.950346 178.425665 
L 162.153382 179.854079 
L 162.356418 168.224231 
L 162.559454 144.866909 
L 162.76249 173.988559 
L 162.965526 177.776044 
L 163.168562 158.660536 
L 163.574634 169.40037 
L 163.77767 188.57868 
L 163.980706 186.079237 
L 164.183742 158.3641 
L 164.386778 163.486265 
L 164.589814 174.287744 
L 164.79285 160.608106 
L 164.995886 185.724172 
L 165.198922 169.060622 
L 165.401958 169.184144 
L 165.604994 189.547891 
L 165.80803 163.041685 
L 166.011066 173.161913 
L 166.214102 161.01244 
L 166.417138 171.609078 
L 166.620174 166.758808 
L 166.82321 166.603665 
L 167.026246 180.970221 
L 167.229282 181.779136 
L 167.432318 170.532402 
L 167.635354 166.455028 
L 167.83839 180.828394 
L 168.041426 150.625217 
L 168.244462 173.809351 
L 168.650534 159.784012 
L 168.85357 183.267816 
L 169.056606 172.793725 
L 169.259642 170.397759 
L 169.462678 153.507212 
L 169.665714 162.880359 
L 169.86875 179.359046 
L 170.071786 172.337845 
L 170.274822 178.390581 
L 170.680894 164.583194 
L 170.88393 186.1638 
L 171.086966 168.156611 
L 171.493038 179.801258 
L 171.696074 176.69734 
L 171.89911 176.85453 
L 172.305182 184.520133 
L 172.508218 134.851345 
L 172.711254 168.422561 
L 172.91429 170.775967 
L 173.117326 166.699472 
L 173.523398 185.965706 
L 173.92947 161.203976 
L 174.132506 171.77351 
L 174.335542 193.974214 
L 174.538578 162.987757 
L 174.741614 192.081296 
L 174.944649 150.053744 
L 175.350721 194.269486 
L 175.553757 177.843342 
L 175.756793 185.748123 
L 175.959829 182.144099 
L 176.162865 166.88351 
L 176.365901 164.424602 
L 176.568937 171.017083 
L 176.771973 166.60675 
L 176.975009 173.922578 
L 177.178045 171.196196 
L 177.584117 177.506492 
L 177.787153 177.031809 
L 177.990189 186.323482 
L 178.193225 183.14518 
L 178.396261 174.678123 
L 178.599297 160.031198 
L 178.802333 158.024348 
L 179.208405 176.953747 
L 179.411441 169.841061 
L 179.614477 154.760358 
L 179.817513 183.706684 
L 180.020549 170.407148 
L 180.223585 184.942649 
L 180.426621 185.36578 
L 180.629657 185.156849 
L 180.832693 197.498817 
L 181.035729 153.572365 
L 181.441801 192.783182 
L 181.644837 171.936979 
L 181.847873 171.957725 
L 182.050909 177.621528 
L 182.253945 190.486255 
L 182.456981 173.426654 
L 182.660017 181.001885 
L 182.863053 167.202589 
L 183.066089 183.007673 
L 183.269125 178.47269 
L 183.472161 190.627994 
L 183.675197 188.784925 
L 183.878233 139.247008 
L 184.081269 172.051052 
L 184.284305 176.392306 
L 184.487341 190.128703 
L 184.893413 193.754748 
L 185.096449 194.391599 
L 185.299485 162.760938 
L 185.502521 165.3359 
L 185.705557 181.341573 
L 185.908593 166.576622 
L 186.111629 169.497658 
L 186.314665 175.610074 
L 186.517701 160.50218 
L 186.720737 165.259694 
L 186.923773 182.643452 
L 187.126809 182.760928 
L 187.329845 174.254349 
L 187.532881 126.347473 
L 187.735917 181.115922 
L 187.938953 180.184113 
L 188.141989 167.810816 
L 188.345025 189.340711 
L 188.548061 164.951998 
L 188.954133 188.3337 
L 189.157169 174.976382 
L 189.360205 169.0824 
L 189.563241 149.635469 
L 189.766277 178.044856 
L 189.969313 161.339246 
L 190.172349 182.102653 
L 190.375385 176.813924 
L 190.578421 181.975403 
L 190.781457 196.804559 
L 190.984493 179.945062 
L 191.187529 177.416203 
L 191.390565 168.676215 
L 191.593601 149.992507 
L 191.999673 183.081049 
L 192.202709 181.126043 
L 192.405744 174.859185 
L 192.60878 186.862989 
L 192.811816 181.28299 
L 193.014852 195.143782 
L 193.420924 164.66515 
L 193.62396 167.298787 
L 193.826996 178.56531 
L 194.030032 178.379605 
L 194.436104 168.613492 
L 194.63914 159.796717 
L 194.842176 174.236407 
L 195.045212 175.579597 
L 195.248248 177.997392 
L 195.451284 168.70973 
L 195.65432 171.076085 
L 195.857356 197.321874 
L 196.060392 183.441506 
L 196.263428 186.776381 
L 196.466464 156.70572 
L 196.6695 179.322456 
L 196.872536 175.493438 
L 197.075572 179.399296 
L 197.278608 181.043072 
L 197.481644 190.980283 
L 197.887716 175.606103 
L 198.090752 186.625922 
L 198.293788 173.211065 
L 198.496824 174.595529 
L 198.69986 160.235046 
L 199.105932 190.390579 
L 199.308968 177.53939 
L 199.512004 176.689938 
L 199.71504 180.340422 
L 199.918076 166.310021 
L 200.121112 182.614954 
L 200.324148 181.766572 
L 200.527184 172.332726 
L 200.933256 178.244735 
L 201.136292 170.278815 
L 201.339328 173.14418 
L 201.542364 171.019543 
L 201.7454 185.292658 
L 201.948436 171.138597 
L 202.151472 184.862932 
L 202.354508 174.470065 
L 202.557544 174.71136 
L 202.76058 164.638903 
L 202.963616 177.300633 
L 203.166652 166.051594 
L 203.369688 190.577969 
L 203.572724 174.212681 
L 203.77576 168.456122 
L 203.978796 169.539404 
L 204.181832 171.769283 
L 204.384868 160.499143 
L 204.587904 182.42508 
L 204.79094 183.756186 
L 204.993976 176.348344 
L 205.197012 158.750458 
L 205.400048 166.772328 
L 205.80612 155.352164 
L 206.009156 181.749758 
L 206.212192 173.614882 
L 206.415228 144.618933 
L 206.618264 171.201117 
L 206.8213 177.846511 
L 207.024336 190.524298 
L 207.633444 160.707 
L 208.039516 175.217731 
L 208.242552 173.028204 
L 208.445588 164.610131 
L 208.648624 178.683332 
L 208.85166 166.30113 
L 209.054696 165.035321 
L 209.257732 196.325327 
L 209.460768 193.14613 
L 209.663804 181.10982 
L 209.86684 187.210988 
L 210.069875 153.481164 
L 210.272911 190.795015 
L 210.475947 171.683223 
L 210.678983 183.760326 
L 210.882019 176.450696 
L 211.288091 153.369885 
L 211.694163 166.866134 
L 211.897199 178.690858 
L 212.100235 162.04543 
L 212.303271 180.151935 
L 212.506307 174.128501 
L 212.709343 182.351666 
L 212.912379 180.619133 
L 213.115415 182.648966 
L 213.318451 171.702766 
L 213.521487 169.095439 
L 213.724523 154.070756 
L 213.927559 179.267896 
L 214.130595 185.855877 
L 214.333631 201.45463 
L 214.739703 178.100462 
L 214.942739 138.72592 
L 215.145775 178.804048 
L 215.348811 170.959851 
L 215.551847 175.844953 
L 215.754883 194.636256 
L 215.957919 188.430394 
L 216.160955 169.332842 
L 216.363991 174.605099 
L 216.567027 160.565198 
L 216.770063 186.193401 
L 216.973099 165.553233 
L 217.176135 170.051483 
L 217.379171 187.498723 
L 217.582207 194.493199 
L 217.988279 184.20927 
L 218.191315 181.609255 
L 218.394351 169.585614 
L 218.597387 189.729555 
L 218.800423 161.019434 
L 219.003459 163.37187 
L 219.206495 162.840944 
L 219.409531 165.230511 
L 219.612567 172.575919 
L 219.815603 174.412963 
L 220.018639 166.052775 
L 220.221675 169.188146 
L 220.424711 177.549775 
L 220.627747 180.282084 
L 220.830783 177.665182 
L 221.033819 180.90986 
L 221.236855 178.863805 
L 221.439891 180.906773 
L 221.642927 169.898173 
L 221.845963 192.367636 
L 222.048999 161.65699 
L 222.252035 194.453032 
L 222.658107 164.739013 
L 222.861143 190.501006 
L 223.267215 184.708462 
L 223.470251 164.646772 
L 223.673287 173.697996 
L 223.876323 194.157737 
L 224.079359 179.670316 
L 224.282395 175.419011 
L 224.485431 183.985817 
L 224.688467 175.626142 
L 224.891503 172.817957 
L 225.500611 186.836517 
L 225.703647 180.409687 
L 225.906683 160.411317 
L 226.109719 178.860166 
L 226.312755 175.596183 
L 226.515791 175.077139 
L 226.718827 168.826346 
L 226.921863 166.09629 
L 227.124899 158.770533 
L 227.327935 215.208026 
L 227.53097 150.838562 
L 227.937042 181.748317 
L 228.140078 169.003031 
L 228.343114 178.814344 
L 228.54615 173.857989 
L 228.749186 205.2919 
L 228.952222 155.122389 
L 229.967402 187.303237 
L 230.170438 187.750456 
L 230.373474 179.213748 
L 230.57651 182.124448 
L 230.779546 190.206427 
L 230.982582 179.063243 
L 231.185618 188.341842 
L 231.388654 174.081704 
L 231.59169 178.57822 
L 231.794726 151.224026 
L 231.997762 172.185335 
L 232.200798 177.1046 
L 232.403834 174.041806 
L 232.60687 195.821634 
L 232.809906 181.984652 
L 233.012942 159.220779 
L 233.215978 160.661756 
L 233.419014 151.620262 
L 233.62205 174.665832 
L 233.825086 166.144671 
L 234.028122 176.499428 
L 234.231158 167.413206 
L 234.434194 142.754837 
L 234.63723 178.449429 
L 234.840266 173.565738 
L 235.043302 164.985556 
L 235.246338 170.772782 
L 235.449374 182.587083 
L 235.65241 178.607618 
L 235.855446 185.028759 
L 236.058482 159.320827 
L 236.261518 175.713507 
L 236.464554 174.423046 
L 236.66759 144.54001 
L 236.870626 180.252287 
L 237.073662 190.084155 
L 237.276698 155.302547 
L 237.68277 196.609544 
L 238.291878 173.092836 
L 238.494914 173.222038 
L 238.69795 168.731839 
L 238.900986 170.113805 
L 239.104022 188.961597 
L 239.307058 182.945981 
L 239.510094 165.57651 
L 239.71313 187.31002 
L 239.916166 175.393917 
L 240.119202 177.80575 
L 240.322238 183.210481 
L 240.525274 153.058752 
L 240.72831 185.242412 
L 240.931346 194.833628 
L 241.134382 161.378523 
L 241.337418 185.061773 
L 241.540454 182.764126 
L 241.74349 160.672782 
L 241.946526 176.990073 
L 242.149562 178.902972 
L 242.352598 178.935435 
L 242.555634 163.762495 
L 242.75867 187.859489 
L 243.164742 136.017446 
L 243.367778 167.735782 
L 243.570814 153.752057 
L 243.976886 174.570894 
L 244.179922 165.801692 
L 244.382958 170.923031 
L 244.585994 185.33385 
L 244.78903 188.344224 
L 244.992065 164.998545 
L 245.195101 166.11216 
L 245.398137 163.689501 
L 245.601173 147.631642 
L 245.804209 191.195669 
L 246.007245 160.273707 
L 246.210281 186.88763 
L 246.413317 157.055228 
L 246.616353 145.539478 
L 246.819389 173.848948 
L 247.022425 163.344011 
L 247.225461 190.532628 
L 247.428497 160.017055 
L 247.631533 157.218813 
L 247.834569 175.558899 
L 248.037605 181.498433 
L 248.240641 165.164523 
L 248.443677 165.784119 
L 248.849749 145.772718 
L 249.052785 187.026183 
L 249.255821 156.126689 
L 249.458857 172.394142 
L 249.661893 173.641296 
L 249.864929 187.05983 
L 250.067965 172.854203 
L 250.271001 147.565091 
L 250.474037 170.38434 
L 250.677073 171.507603 
L 250.880109 182.867714 
L 251.083145 187.127089 
L 251.286181 167.133451 
L 251.489217 189.109987 
L 251.692253 182.866899 
L 251.895289 156.179938 
L 252.301361 143.788395 
L 252.504397 150.221762 
L 252.707433 152.191463 
L 252.910469 164.118429 
L 253.113505 192.582296 
L 253.519577 160.418997 
L 253.722613 161.468751 
L 253.925649 177.976826 
L 254.128685 176.489661 
L 254.331721 178.38273 
L 254.534757 169.756059 
L 254.940829 171.260984 
L 255.143865 186.901477 
L 255.346901 162.835827 
L 255.549937 171.798236 
L 255.752973 138.107375 
L 255.956009 176.241868 
L 256.159045 180.109482 
L 256.362081 162.733925 
L 256.565117 175.629736 
L 256.768153 181.014457 
L 256.971189 178.336066 
L 257.174225 177.65507 
L 257.377261 182.823785 
L 257.580297 173.952752 
L 257.783333 153.366306 
L 257.986369 177.471753 
L 258.189405 178.098107 
L 258.392441 133.961924 
L 258.595477 193.759955 
L 259.001549 144.326306 
L 259.204585 192.578316 
L 259.407621 163.588504 
L 259.610657 158.655257 
L 259.813693 173.777407 
L 260.016729 200.879105 
L 260.625837 165.043841 
L 260.828873 182.796705 
L 261.031909 177.125605 
L 261.234945 184.215542 
L 261.641017 142.042712 
L 262.047089 162.370527 
L 262.250125 184.769205 
L 262.45316 164.957537 
L 262.859232 175.303478 
L 263.062268 193.172045 
L 263.265304 180.991708 
L 263.46834 159.774359 
L 263.671376 182.3102 
L 263.874412 150.354392 
L 264.077448 186.609072 
L 264.280484 176.699714 
L 264.48352 176.031102 
L 264.686556 163.855286 
L 264.889592 169.384748 
L 265.092628 150.956673 
L 265.295664 186.171462 
L 265.4987 168.200186 
L 265.701736 170.426318 
L 265.904772 148.165856 
L 266.107808 165.279015 
L 266.310844 127.209766 
L 266.716916 176.772356 
L 266.919952 164.588505 
L 267.122988 195.868546 
L 267.326024 163.155537 
L 267.52906 188.63615 
L 267.732096 171.796816 
L 267.935132 166.38909 
L 268.138168 180.116636 
L 268.341204 161.601537 
L 268.747276 195.386337 
L 268.950312 192.830912 
L 269.153348 150.993775 
L 269.356384 176.167752 
L 269.55942 165.48469 
L 269.762456 176.638666 
L 269.965492 162.352718 
L 270.168528 168.139066 
L 270.371564 161.491412 
L 270.5746 187.921228 
L 270.777636 187.757417 
L 270.980672 173.306427 
L 271.183708 188.143595 
L 271.386744 166.882004 
L 271.58978 175.466563 
L 271.792816 166.85838 
L 271.995852 171.834941 
L 272.401924 160.650183 
L 272.60496 202.849833 
L 272.807996 168.413121 
L 273.011032 179.813414 
L 273.214068 205.156105 
L 273.417104 183.17311 
L 273.62014 181.934982 
L 273.823176 163.112801 
L 274.026212 165.929142 
L 274.229248 179.073031 
L 274.432284 162.886973 
L 274.63532 104.512428 
L 274.838356 180.141587 
L 275.041392 151.566655 
L 275.244428 185.405584 
L 275.447464 150.108946 
L 275.6505 175.49957 
L 275.853536 182.323921 
L 276.056572 181.203221 
L 276.259608 155.497015 
L 276.66568 166.828276 
L 276.868716 183.575619 
L 277.071752 183.225068 
L 277.274788 178.478963 
L 277.477824 178.170135 
L 277.68086 179.001393 
L 277.883896 155.172219 
L 278.086932 177.512392 
L 278.289968 166.170551 
L 278.493004 173.96859 
L 278.69604 165.851468 
L 278.899076 150.808799 
L 279.102112 157.034773 
L 279.305148 159.589058 
L 279.71122 189.836271 
L 279.914256 187.151393 
L 280.117291 149.441745 
L 280.320327 149.236099 
L 280.523363 167.995414 
L 280.726399 171.308475 
L 280.929435 193.233248 
L 281.132471 160.838695 
L 281.335507 183.541754 
L 281.538543 137.00124 
L 281.741579 151.296261 
L 281.944615 181.842578 
L 282.147651 177.705768 
L 282.350687 165.44138 
L 282.553723 163.89581 
L 282.756759 186.252783 
L 282.959795 182.906661 
L 283.162831 169.981441 
L 283.365867 187.893669 
L 283.568903 165.515818 
L 283.974975 156.241213 
L 284.178011 149.030286 
L 284.381047 156.917463 
L 284.584083 177.044406 
L 284.787119 169.929144 
L 284.990155 188.863502 
L 285.193191 156.371156 
L 285.396227 166.211096 
L 285.599263 161.94428 
L 285.802299 149.43225 
L 286.005335 191.853258 
L 286.208371 163.436709 
L 286.411407 167.138311 
L 286.614443 189.408719 
L 286.817479 168.240552 
L 287.020515 161.082505 
L 287.223551 181.252113 
L 287.426587 160.791848 
L 287.629623 158.558553 
L 287.832659 192.982671 
L 288.035695 183.579336 
L 288.238731 199.35099 
L 288.441767 194.010333 
L 288.644803 179.103019 
L 288.847839 193.069923 
L 289.050875 150.472508 
L 289.253911 164.323599 
L 289.659983 160.768374 
L 289.863019 184.952926 
L 290.066055 176.379207 
L 290.269091 176.917546 
L 290.472127 160.247962 
L 290.675163 160.385033 
L 290.878199 160.142572 
L 291.081235 161.719285 
L 291.487307 152.224264 
L 291.690343 183.151597 
L 291.893379 170.062935 
L 292.096415 144.885871 
L 292.299451 170.216475 
L 292.502487 158.846607 
L 292.908559 187.534269 
L 293.314631 164.151125 
L 293.517667 164.251295 
L 293.720703 156.35481 
L 294.126775 174.001865 
L 294.329811 158.095436 
L 294.532847 184.94926 
L 294.735883 175.438824 
L 295.344991 163.799244 
L 295.548027 171.144955 
L 295.751063 146.442673 
L 296.157135 178.458933 
L 296.360171 163.539904 
L 296.563207 165.333504 
L 296.766243 154.057869 
L 296.969279 175.193143 
L 297.172315 144.189672 
L 297.375351 164.273569 
L 297.781422 141.02753 
L 297.984458 157.399405 
L 298.187494 158.626502 
L 298.39053 173.869357 
L 298.593566 178.438263 
L 298.796602 188.589875 
L 299.202674 170.328634 
L 299.40571 189.888663 
L 299.608746 184.139576 
L 299.811782 153.524564 
L 300.014818 210.378196 
L 300.217854 164.093092 
L 300.42089 157.942705 
L 300.623926 145.528111 
L 300.826962 173.654798 
L 301.029998 167.011562 
L 301.43607 185.948844 
L 301.842142 146.303446 
L 302.045178 153.00192 
L 302.248214 179.419625 
L 302.45125 152.398567 
L 302.654286 140.73668 
L 302.857322 199.443433 
L 303.060358 171.067208 
L 303.263394 203.629889 
L 303.46643 180.830866 
L 303.669466 175.050129 
L 303.872502 159.267551 
L 304.075538 187.904013 
L 304.278574 156.956037 
L 304.48161 149.532401 
L 304.684646 177.033182 
L 304.887682 187.164074 
L 305.090718 161.66385 
L 305.293754 161.925208 
L 305.49679 155.197063 
L 305.699826 165.624216 
L 305.902862 120.042517 
L 306.105898 101.035116 
L 306.308934 167.605348 
L 306.51197 178.320627 
L 306.715006 176.835575 
L 306.918042 168.2555 
L 307.121078 152.253958 
L 307.324114 146.091346 
L 307.52715 153.738518 
L 307.933222 186.731027 
L 308.136258 189.41973 
L 308.339294 151.502393 
L 309.151438 186.647893 
L 309.55751 126.241495 
L 309.760546 164.535903 
L 310.166618 139.634665 
L 310.369654 193.377714 
L 310.57269 164.448191 
L 310.775726 193.998892 
L 311.181798 139.249163 
L 311.384834 168.12222 
L 311.58787 163.710726 
L 311.790906 110.712217 
L 311.993942 168.704449 
L 312.196978 121.868649 
L 312.60305 178.770382 
L 312.806086 185.173198 
L 313.009122 181.506029 
L 313.212158 175.588099 
L 313.415194 151.357245 
L 313.821266 173.920475 
L 314.024302 174.762458 
L 314.227338 177.955913 
L 314.430374 149.718133 
L 314.836446 191.850147 
L 315.039481 167.757922 
L 315.242517 166.375544 
L 315.445553 163.757508 
L 315.648589 165.781157 
L 315.851625 164.789425 
L 316.054661 164.46087 
L 316.257697 163.38403 
L 316.460733 151.207489 
L 316.866805 166.738275 
L 317.069841 156.585985 
L 317.272877 179.65967 
L 317.475913 152.716158 
L 317.678949 168.520925 
L 317.881985 144.763262 
L 318.085021 147.486472 
L 318.288057 147.480643 
L 318.491093 154.74751 
L 318.694129 146.386845 
L 318.897165 151.800127 
L 319.100201 186.029309 
L 319.303237 156.798615 
L 319.506273 145.10614 
L 319.709309 196.269259 
L 320.115381 147.833696 
L 320.318417 145.329214 
L 320.521453 193.388553 
L 320.724489 145.713583 
L 321.130561 187.045328 
L 321.333597 158.385469 
L 321.536633 172.932194 
L 321.739669 170.576814 
L 321.942705 188.001968 
L 322.145741 178.879327 
L 322.348777 143.191736 
L 322.551813 154.360549 
L 322.754849 188.210396 
L 323.160921 137.634578 
L 323.363957 156.45657 
L 323.566993 151.081909 
L 323.770029 153.527429 
L 323.973065 140.904598 
L 324.176101 172.254924 
L 324.379137 178.462473 
L 324.582173 147.431167 
L 324.785209 140.293897 
L 325.191281 186.834246 
L 325.394317 149.669714 
L 325.597353 194.095374 
L 325.800389 171.818597 
L 326.206461 166.723641 
L 326.409497 138.107168 
L 326.612533 129.966185 
L 327.018605 184.210797 
L 327.221641 154.798424 
L 327.424677 152.342651 
L 327.627713 158.464426 
L 327.830749 159.225081 
L 328.033785 137.75667 
L 328.236821 146.970746 
L 328.439857 165.093392 
L 328.642893 156.321466 
L 328.845929 135.827156 
L 329.048965 152.458126 
L 329.252001 135.139663 
L 329.455037 172.552142 
L 329.658073 179.810503 
L 329.861109 127.44977 
L 330.064145 107.439232 
L 330.267181 186.223754 
L 330.470217 176.474503 
L 330.673253 144.603139 
L 331.282361 172.439585 
L 331.485397 137.724688 
L 331.688433 170.901737 
L 331.891469 168.177648 
L 332.094505 176.505435 
L 332.297541 173.565061 
L 332.500576 158.714222 
L 332.703612 181.232778 
L 332.906648 181.330994 
L 333.109684 177.753407 
L 333.31272 153.605275 
L 333.515756 179.681143 
L 333.718792 164.086219 
L 333.921828 173.08079 
L 334.124864 168.526075 
L 334.3279 161.236456 
L 334.530936 144.365207 
L 334.733972 144.016384 
L 334.937008 171.948642 
L 335.140044 142.984453 
L 335.34308 177.936308 
L 335.546116 180.743329 
L 335.749152 168.458971 
L 335.952188 147.412031 
L 336.155224 180.97987 
L 336.35826 169.475071 
L 336.561296 144.900262 
L 336.764332 176.231232 
L 336.967368 148.622122 
L 337.170404 144.356308 
L 337.37344 167.044496 
L 337.576476 162.391286 
L 337.779512 142.199144 
L 337.982548 179.724255 
L 338.38862 147.782119 
L 338.591656 162.524414 
L 338.794692 149.203456 
L 338.997728 179.845569 
L 339.200764 165.143772 
L 339.4038 159.162484 
L 339.606836 178.475711 
L 339.809872 151.01728 
L 340.012908 162.649248 
L 340.215944 158.413184 
L 340.41898 157.649726 
L 340.825052 182.599359 
L 341.028088 165.069727 
L 341.231124 163.143794 
L 341.43416 151.469001 
L 341.637196 167.176749 
L 341.840232 173.166804 
L 342.043268 154.118388 
L 342.246304 159.588838 
L 342.44934 109.311343 
L 342.652376 171.524568 
L 342.855412 152.3202 
L 343.058448 176.053613 
L 343.261484 172.609811 
L 343.46452 140.695237 
L 343.667556 168.350413 
L 343.870592 124.420687 
L 344.073628 132.99789 
L 344.4797 190.53746 
L 344.682736 171.04466 
L 344.885772 175.64232 
L 345.088808 138.499118 
L 345.291844 175.963318 
L 345.49488 187.923569 
L 345.697916 157.646538 
L 345.900952 149.727819 
L 346.103988 104.258964 
L 346.307024 192.572885 
L 346.713096 145.397054 
L 346.916132 162.781429 
L 347.119168 143.522492 
L 347.322204 163.473868 
L 347.52524 120.804142 
L 347.728276 122.856318 
L 347.931312 148.460026 
L 348.134348 148.570627 
L 348.337384 172.579867 
L 348.54042 145.335188 
L 348.743456 188.661974 
L 348.946492 179.633064 
L 349.149528 158.479063 
L 349.352564 178.962769 
L 349.5556 142.145913 
L 349.758636 146.336216 
L 349.961671 157.609512 
L 350.164707 182.415959 
L 350.367743 166.919655 
L 350.570779 177.031267 
L 350.773815 171.986385 
L 350.976851 177.607315 
L 351.179887 174.165432 
L 351.382923 115.675555 
L 351.585959 167.705714 
L 351.788995 177.167354 
L 351.992031 151.700556 
L 352.195067 190.923001 
L 352.398103 138.936916 
L 352.601139 161.254612 
L 352.804175 168.379316 
L 353.007211 170.651668 
L 353.210247 168.818285 
L 353.413283 145.948954 
L 354.022391 176.278531 
L 354.428463 151.342015 
L 354.631499 179.733017 
L 354.834535 179.505198 
L 355.240607 162.548455 
L 355.443643 163.544462 
L 355.646679 120.259827 
L 355.849715 138.823199 
L 356.255787 147.49671 
L 356.458823 194.443469 
L 356.661859 178.785815 
L 356.864895 177.062295 
L 357.067931 166.947684 
L 357.270967 169.794367 
L 357.474003 151.820914 
L 357.677039 184.784076 
L 357.880075 154.91218 
L 358.083111 145.739393 
L 358.286147 175.315707 
L 358.489183 150.896826 
L 358.692219 185.007216 
L 359.098291 131.905389 
L 359.301327 172.512393 
L 359.504363 157.749303 
L 359.707399 154.299621 
L 359.910435 108.639378 
L 360.113471 139.8425 
L 360.316507 150.897698 
L 360.519543 149.798987 
L 360.722579 188.297602 
L 360.925615 139.362991 
L 361.128651 144.720035 
L 361.331687 135.24262 
L 361.534723 179.680048 
L 361.737759 170.814996 
L 361.940795 156.358572 
L 362.143831 162.829496 
L 362.549903 131.22655 
L 362.752939 168.079017 
L 362.955975 158.909857 
L 363.159011 161.735782 
L 363.362047 149.368449 
L 363.565083 163.350942 
L 363.768119 151.26162 
L 363.971155 154.755014 
L 364.377227 184.112762 
L 364.580263 157.916307 
L 364.783299 182.767621 
L 364.986335 167.969825 
L 365.189371 141.497363 
L 365.392407 189.353149 
L 365.595443 165.352623 
L 365.798479 176.129428 
L 366.001515 149.139943 
L 366.204551 138.467902 
L 366.407587 153.781652 
L 366.610623 114.663231 
L 366.813659 161.942309 
L 367.016695 98.121056 
L 367.219731 137.240756 
L 367.422767 154.460658 
L 367.625802 156.656071 
L 368.031874 168.321111 
L 368.23491 149.271212 
L 368.437946 174.040885 
L 368.640982 152.219917 
L 368.844018 157.419149 
L 369.047054 146.059996 
L 369.25009 145.273849 
L 369.453126 158.081364 
L 369.656162 159.94323 
L 369.859198 192.53642 
L 370.062234 123.996248 
L 370.26527 202.440948 
L 370.671342 154.496938 
L 370.874378 119.339662 
L 371.077414 139.819077 
L 371.28045 143.954606 
L 371.686522 170.317132 
L 371.889558 167.43115 
L 372.092594 170.206899 
L 372.29563 142.155783 
L 372.498666 139.778494 
L 372.701702 148.014019 
L 372.904738 123.124064 
L 373.107774 165.067693 
L 373.31081 151.651864 
L 373.513846 125.496873 
L 373.716882 156.933405 
L 373.919918 140.927631 
L 374.122954 155.681903 
L 374.32599 143.841176 
L 374.529026 151.988323 
L 374.732062 185.290211 
L 374.935098 149.756465 
L 375.138134 169.906555 
L 375.34117 172.186704 
L 375.544206 155.159973 
L 375.747242 148.074619 
L 375.950278 151.251899 
L 376.153314 152.257534 
L 376.35635 137.437518 
L 376.559386 153.749189 
L 376.762422 145.444528 
L 376.965458 181.166345 
L 377.168494 129.271359 
L 377.574566 159.680377 
L 377.777602 149.036389 
L 377.980638 173.464037 
L 378.38671 135.143241 
L 378.589746 114.625928 
L 378.792782 154.313585 
L 378.995818 160.80806 
L 379.198854 161.660621 
L 379.604926 129.38279 
L 379.807962 117.778462 
L 380.010998 151.023535 
L 380.214034 161.366389 
L 380.41707 155.335702 
L 380.620106 158.520362 
L 380.823142 112.243944 
L 381.026178 143.406974 
L 381.229214 154.9309 
L 381.43225 144.602908 
L 381.635286 163.453429 
L 381.838322 110.655067 
L 382.041358 165.831964 
L 382.244394 155.861205 
L 382.44743 189.029118 
L 382.650466 133.428614 
L 382.853502 168.310033 
L 383.056538 119.15601 
L 383.259574 128.452249 
L 383.46261 155.707909 
L 383.665646 159.798134 
L 383.868682 131.892471 
L 384.071718 165.201446 
L 384.274754 144.857283 
L 384.47779 163.126929 
L 384.680826 125.725695 
L 384.883862 166.854158 
L 385.086897 152.446327 
L 385.289933 170.229841 
L 385.492969 177.33838 
L 385.696005 176.613946 
L 385.899041 182.037866 
L 386.305113 153.522063 
L 386.508149 129.559611 
L 386.914221 182.720801 
L 387.320293 127.162974 
L 387.523329 160.894451 
L 387.929401 143.413091 
L 388.132437 156.103612 
L 388.335473 109.499083 
L 388.538509 163.860808 
L 388.741545 162.361268 
L 388.944581 170.286039 
L 389.147617 188.786634 
L 389.350653 175.601037 
L 389.553689 151.76775 
L 389.756725 174.230145 
L 389.959761 149.794544 
L 390.162797 148.887307 
L 390.365833 153.615305 
L 390.568869 103.882138 
L 390.974941 178.195969 
L 391.177977 109.018628 
L 391.381013 179.985384 
L 391.584049 134.149275 
L 391.787085 169.250871 
L 391.990121 148.310492 
L 392.193157 171.160869 
L 392.396193 155.694945 
L 392.599229 169.903622 
L 392.802265 131.475081 
L 393.005301 144.246037 
L 393.208337 149.119357 
L 393.411373 162.385212 
L 393.614409 135.950104 
L 393.817445 156.907825 
L 394.020481 122.911357 
L 394.223517 138.150265 
L 394.426553 139.982576 
L 394.629589 166.859951 
L 394.832625 157.263057 
L 395.035661 130.912628 
L 395.238697 141.26628 
L 395.441733 181.316712 
L 395.644769 141.93863 
L 395.847805 151.226835 
L 396.050841 122.097726 
L 396.253877 148.614244 
L 396.456913 133.407206 
L 396.862985 170.066316 
L 397.066021 176.118328 
L 397.269057 178.269781 
L 397.472093 102.978899 
L 397.675129 155.775232 
L 397.878165 127.177048 
L 398.081201 172.707854 
L 398.284237 187.647986 
L 398.487273 177.874845 
L 398.487273 177.874845 
" style="fill:none;stroke:#ff7f0e;stroke-linecap:square;stroke-width:1.5;"/>
   </g>
   <g id="patch_3">
    <path d="M 57.6 307.584 
L 57.6 41.472 
" style="fill:none;stroke:#000000;stroke-linecap:square;stroke-linejoin:miter;stroke-width:0.8;"/>
   </g>
   <g id="patch_4">
    <path d="M 414.72 307.584 
L 414.72 41.472 
" style="fill:none;stroke:#000000;stroke-linecap:square;stroke-linejoin:miter;stroke-width:0.8;"/>
   </g>
   <g id="patch_5">
    <path d="M 57.6 307.584 
L 414.72 307.584 
" style="fill:none;stroke:#000000;stroke-linecap:square;stroke-linejoin:miter;stroke-width:0.8;"/>
   </g>
   <g id="patch_6">
    <path d="M 57.6 41.472 
L 414.72 41.472 
" style="fill:none;stroke:#000000;stroke-linecap:square;stroke-linejoin:miter;stroke-width:0.8;"/>
   </g>
   <g id="legend_1">
    <g id="patch_7">
     <path d="M 303.845 78.82825 
L 407.72 78.82825 
Q 409.72 78.82825 409.72 76.82825 
L 409.72 48.472 
Q 409.72 46.472 407.72 46.472 
L 303.845 46.472 
Q 301.845 46.472 301.845 48.472 
L 301.845 76.82825 
Q 301.845 78.82825 303.845 78.82825 
z
" style="fill:#ffffff;opacity:0.8;stroke:#cccccc;stroke-linejoin:miter;"/>
    </g>
    <g id="line2d_20">
     <path d="M 305.845 54.570437 
L 325.845 54.570437 
" style="fill:none;stroke:#1f77b4;stroke-linecap:square;stroke-width:1.5;"/>
    </g>
    <g id="line2d_21"/>
    <g id="text_19">
     <!-- Train loss -->
     <g transform="translate(333.845 58.070437)scale(0.1 -0.1)">
      <defs>
       <path d="M -19 4666 
L 3928 4666 
L 3928 4134 
L 2272 4134 
L 2272 0 
L 1638 0 
L 1638 4134 
L -19 4134 
L -19 4666 
z
" id="DejaVuSans-54" transform="scale(0.015625)"/>
       <path d="M 2631 2963 
Q 2534 3019 2420 3045 
Q 2306 3072 2169 3072 
Q 1681 3072 1420 2755 
Q 1159 2438 1159 1844 
L 1159 0 
L 581 0 
L 581 3500 
L 1159 3500 
L 1159 2956 
Q 1341 3275 1631 3429 
Q 1922 3584 2338 3584 
Q 2397 3584 2469 3576 
Q 2541 3569 2628 3553 
L 2631 2963 
z
" id="DejaVuSans-72" transform="scale(0.015625)"/>
       <path d="M 2194 1759 
Q 1497 1759 1228 1600 
Q 959 1441 959 1056 
Q 959 750 1161 570 
Q 1363 391 1709 391 
Q 2188 391 2477 730 
Q 2766 1069 2766 1631 
L 2766 1759 
L 2194 1759 
z
M 3341 1997 
L 3341 0 
L 2766 0 
L 2766 531 
Q 2569 213 2275 61 
Q 1981 -91 1556 -91 
Q 1019 -91 701 211 
Q 384 513 384 1019 
Q 384 1609 779 1909 
Q 1175 2209 1959 2209 
L 2766 2209 
L 2766 2266 
Q 2766 2663 2505 2880 
Q 2244 3097 1772 3097 
Q 1472 3097 1187 3025 
Q 903 2953 641 2809 
L 641 3341 
Q 956 3463 1253 3523 
Q 1550 3584 1831 3584 
Q 2591 3584 2966 3190 
Q 3341 2797 3341 1997 
z
" id="DejaVuSans-61" transform="scale(0.015625)"/>
       <path d="M 603 3500 
L 1178 3500 
L 1178 0 
L 603 0 
L 603 3500 
z
M 603 4863 
L 1178 4863 
L 1178 4134 
L 603 4134 
L 603 4863 
z
" id="DejaVuSans-69" transform="scale(0.015625)"/>
       <path d="M 3513 2113 
L 3513 0 
L 2938 0 
L 2938 2094 
Q 2938 2591 2744 2837 
Q 2550 3084 2163 3084 
Q 1697 3084 1428 2787 
Q 1159 2491 1159 1978 
L 1159 0 
L 581 0 
L 581 3500 
L 1159 3500 
L 1159 2956 
Q 1366 3272 1645 3428 
Q 1925 3584 2291 3584 
Q 2894 3584 3203 3211 
Q 3513 2838 3513 2113 
z
" id="DejaVuSans-6e" transform="scale(0.015625)"/>
       <path id="DejaVuSans-20" transform="scale(0.015625)"/>
       <path d="M 603 4863 
L 1178 4863 
L 1178 0 
L 603 0 
L 603 4863 
z
" id="DejaVuSans-6c" transform="scale(0.015625)"/>
       <path d="M 2834 3397 
L 2834 2853 
Q 2591 2978 2328 3040 
Q 2066 3103 1784 3103 
Q 1356 3103 1142 2972 
Q 928 2841 928 2578 
Q 928 2378 1081 2264 
Q 1234 2150 1697 2047 
L 1894 2003 
Q 2506 1872 2764 1633 
Q 3022 1394 3022 966 
Q 3022 478 2636 193 
Q 2250 -91 1575 -91 
Q 1294 -91 989 -36 
Q 684 19 347 128 
L 347 722 
Q 666 556 975 473 
Q 1284 391 1588 391 
Q 1994 391 2212 530 
Q 2431 669 2431 922 
Q 2431 1156 2273 1281 
Q 2116 1406 1581 1522 
L 1381 1569 
Q 847 1681 609 1914 
Q 372 2147 372 2553 
Q 372 3047 722 3315 
Q 1072 3584 1716 3584 
Q 2034 3584 2315 3537 
Q 2597 3491 2834 3397 
z
" id="DejaVuSans-73" transform="scale(0.015625)"/>
      </defs>
      <use xlink:href="#DejaVuSans-54"/>
      <use x="46.333984" xlink:href="#DejaVuSans-72"/>
      <use x="87.447266" xlink:href="#DejaVuSans-61"/>
      <use x="148.726562" xlink:href="#DejaVuSans-69"/>
      <use x="176.509766" xlink:href="#DejaVuSans-6e"/>
      <use x="239.888672" xlink:href="#DejaVuSans-20"/>
      <use x="271.675781" xlink:href="#DejaVuSans-6c"/>
      <use x="299.458984" xlink:href="#DejaVuSans-6f"/>
      <use x="360.640625" xlink:href="#DejaVuSans-73"/>
      <use x="412.740234" xlink:href="#DejaVuSans-73"/>
     </g>
    </g>
    <g id="line2d_22">
     <path d="M 305.845 69.248562 
L 325.845 69.248562 
" style="fill:none;stroke:#ff7f0e;stroke-linecap:square;stroke-width:1.5;"/>
    </g>
    <g id="line2d_23"/>
    <g id="text_20">
     <!-- Validation loss -->
     <g transform="translate(333.845 72.748562)scale(0.1 -0.1)">
      <defs>
       <path d="M 1831 0 
L 50 4666 
L 709 4666 
L 2188 738 
L 3669 4666 
L 4325 4666 
L 2547 0 
L 1831 0 
z
" id="DejaVuSans-56" transform="scale(0.015625)"/>
       <path d="M 2906 2969 
L 2906 4863 
L 3481 4863 
L 3481 0 
L 2906 0 
L 2906 525 
Q 2725 213 2448 61 
Q 2172 -91 1784 -91 
Q 1150 -91 751 415 
Q 353 922 353 1747 
Q 353 2572 751 3078 
Q 1150 3584 1784 3584 
Q 2172 3584 2448 3432 
Q 2725 3281 2906 2969 
z
M 947 1747 
Q 947 1113 1208 752 
Q 1469 391 1925 391 
Q 2381 391 2643 752 
Q 2906 1113 2906 1747 
Q 2906 2381 2643 2742 
Q 2381 3103 1925 3103 
Q 1469 3103 1208 2742 
Q 947 2381 947 1747 
z
" id="DejaVuSans-64" transform="scale(0.015625)"/>
       <path d="M 1172 4494 
L 1172 3500 
L 2356 3500 
L 2356 3053 
L 1172 3053 
L 1172 1153 
Q 1172 725 1289 603 
Q 1406 481 1766 481 
L 2356 481 
L 2356 0 
L 1766 0 
Q 1100 0 847 248 
Q 594 497 594 1153 
L 594 3053 
L 172 3053 
L 172 3500 
L 594 3500 
L 594 4494 
L 1172 4494 
z
" id="DejaVuSans-74" transform="scale(0.015625)"/>
      </defs>
      <use xlink:href="#DejaVuSans-56"/>
      <use x="60.658203" xlink:href="#DejaVuSans-61"/>
      <use x="121.9375" xlink:href="#DejaVuSans-6c"/>
      <use x="149.720703" xlink:href="#DejaVuSans-69"/>
      <use x="177.503906" xlink:href="#DejaVuSans-64"/>
      <use x="240.980469" xlink:href="#DejaVuSans-61"/>
      <use x="302.259766" xlink:href="#DejaVuSans-74"/>
      <use x="341.46875" xlink:href="#DejaVuSans-69"/>
      <use x="369.251953" xlink:href="#DejaVuSans-6f"/>
      <use x="430.433594" xlink:href="#DejaVuSans-6e"/>
      <use x="493.8125" xlink:href="#DejaVuSans-20"/>
      <use x="525.599609" xlink:href="#DejaVuSans-6c"/>
      <use x="553.382812" xlink:href="#DejaVuSans-6f"/>
      <use x="614.564453" xlink:href="#DejaVuSans-73"/>
      <use x="666.664062" xlink:href="#DejaVuSans-73"/>
     </g>
    </g>
   </g>
  </g>
 </g>
 <defs>
  <clipPath id="p0e1a061842">
   <rect height="266.112" width="357.12" x="57.6" y="41.472"/>
  </clipPath>
 </defs>
</svg>
