<?xml version="1.0" encoding="utf-8" standalone="no"?>
<!DOCTYPE svg PUBLIC "-//W3C//DTD SVG 1.1//EN"
  "http://www.w3.org/Graphics/SVG/1.1/DTD/svg11.dtd">
<svg height="345.6pt" version="1.1" viewBox="0 0 460.8 345.6" width="460.8pt" xmlns="http://www.w3.org/2000/svg" xmlns:xlink="http://www.w3.org/1999/xlink">
 <metadata>
  <rdf:RDF xmlns:cc="http://creativecommons.org/ns#" xmlns:dc="http://purl.org/dc/elements/1.1/" xmlns:rdf="http://www.w3.org/1999/02/22-rdf-syntax-ns#">
   <cc:Work>
    <dc:type rdf:resource="http://purl.org/dc/dcmitype/StillImage"/>
    <dc:date>2021-07-16T16:52:59.238570</dc:date>
    <dc:format>image/svg+xml</dc:format>
    <dc:creator>
     <cc:Agent>
      <dc:title>Matplotlib v3.4.2, https://matplotlib.org/</dc:title>
     </cc:Agent>
    </dc:creator>
   </cc:Work>
  </rdf:RDF>
 </metadata>
 <defs>
  <style type="text/css">*{stroke-linecap:butt;stroke-linejoin:round;}</style>
 </defs>
 <g id="figure_1">
  <g id="patch_1">
   <path d="M 0 345.6 
L 460.8 345.6 
L 460.8 0 
L 0 0 
z
" style="fill:#ffffff;"/>
  </g>
  <g id="axes_1">
   <g id="patch_2">
    <path d="M 57.6 307.584 
L 414.72 307.584 
L 414.72 41.472 
L 57.6 41.472 
z
" style="fill:#ffffff;"/>
   </g>
   <g id="matplotlib.axis_1">
    <g id="xtick_1">
     <g id="line2d_1">
      <defs>
       <path d="M 0 0 
L 0 3.5 
" id="mdc3163cee0" style="stroke:#000000;stroke-width:0.8;"/>
      </defs>
      <g>
       <use style="stroke:#000000;stroke-width:0.8;" x="73.019057" xlink:href="#mdc3163cee0" y="307.584"/>
      </g>
     </g>
     <g id="text_1">
      <!-- 0 -->
      <g transform="translate(69.837807 322.182437)scale(0.1 -0.1)">
       <defs>
        <path d="M 2034 4250 
Q 1547 4250 1301 3770 
Q 1056 3291 1056 2328 
Q 1056 1369 1301 889 
Q 1547 409 2034 409 
Q 2525 409 2770 889 
Q 3016 1369 3016 2328 
Q 3016 3291 2770 3770 
Q 2525 4250 2034 4250 
z
M 2034 4750 
Q 2819 4750 3233 4129 
Q 3647 3509 3647 2328 
Q 3647 1150 3233 529 
Q 2819 -91 2034 -91 
Q 1250 -91 836 529 
Q 422 1150 422 2328 
Q 422 3509 836 4129 
Q 1250 4750 2034 4750 
z
" id="DejaVuSans-30" transform="scale(0.015625)"/>
       </defs>
       <use xlink:href="#DejaVuSans-30"/>
      </g>
     </g>
    </g>
    <g id="xtick_2">
     <g id="line2d_2">
      <g>
       <use style="stroke:#000000;stroke-width:0.8;" x="113.702584" xlink:href="#mdc3163cee0" y="307.584"/>
      </g>
     </g>
     <g id="text_2">
      <!-- 50 -->
      <g transform="translate(107.340084 322.182437)scale(0.1 -0.1)">
       <defs>
        <path d="M 691 4666 
L 3169 4666 
L 3169 4134 
L 1269 4134 
L 1269 2991 
Q 1406 3038 1543 3061 
Q 1681 3084 1819 3084 
Q 2600 3084 3056 2656 
Q 3513 2228 3513 1497 
Q 3513 744 3044 326 
Q 2575 -91 1722 -91 
Q 1428 -91 1123 -41 
Q 819 9 494 109 
L 494 744 
Q 775 591 1075 516 
Q 1375 441 1709 441 
Q 2250 441 2565 725 
Q 2881 1009 2881 1497 
Q 2881 1984 2565 2268 
Q 2250 2553 1709 2553 
Q 1456 2553 1204 2497 
Q 953 2441 691 2322 
L 691 4666 
z
" id="DejaVuSans-35" transform="scale(0.015625)"/>
       </defs>
       <use xlink:href="#DejaVuSans-35"/>
       <use x="63.623047" xlink:href="#DejaVuSans-30"/>
      </g>
     </g>
    </g>
    <g id="xtick_3">
     <g id="line2d_3">
      <g>
       <use style="stroke:#000000;stroke-width:0.8;" x="154.386111" xlink:href="#mdc3163cee0" y="307.584"/>
      </g>
     </g>
     <g id="text_3">
      <!-- 100 -->
      <g transform="translate(144.842361 322.182437)scale(0.1 -0.1)">
       <defs>
        <path d="M 794 531 
L 1825 531 
L 1825 4091 
L 703 3866 
L 703 4441 
L 1819 4666 
L 2450 4666 
L 2450 531 
L 3481 531 
L 3481 0 
L 794 0 
L 794 531 
z
" id="DejaVuSans-31" transform="scale(0.015625)"/>
       </defs>
       <use xlink:href="#DejaVuSans-31"/>
       <use x="63.623047" xlink:href="#DejaVuSans-30"/>
       <use x="127.246094" xlink:href="#DejaVuSans-30"/>
      </g>
     </g>
    </g>
    <g id="xtick_4">
     <g id="line2d_4">
      <g>
       <use style="stroke:#000000;stroke-width:0.8;" x="195.069638" xlink:href="#mdc3163cee0" y="307.584"/>
      </g>
     </g>
     <g id="text_4">
      <!-- 150 -->
      <g transform="translate(185.525888 322.182437)scale(0.1 -0.1)">
       <use xlink:href="#DejaVuSans-31"/>
       <use x="63.623047" xlink:href="#DejaVuSans-35"/>
       <use x="127.246094" xlink:href="#DejaVuSans-30"/>
      </g>
     </g>
    </g>
    <g id="xtick_5">
     <g id="line2d_5">
      <g>
       <use style="stroke:#000000;stroke-width:0.8;" x="235.753165" xlink:href="#mdc3163cee0" y="307.584"/>
      </g>
     </g>
     <g id="text_5">
      <!-- 200 -->
      <g transform="translate(226.209415 322.182437)scale(0.1 -0.1)">
       <defs>
        <path d="M 1228 531 
L 3431 531 
L 3431 0 
L 469 0 
L 469 531 
Q 828 903 1448 1529 
Q 2069 2156 2228 2338 
Q 2531 2678 2651 2914 
Q 2772 3150 2772 3378 
Q 2772 3750 2511 3984 
Q 2250 4219 1831 4219 
Q 1534 4219 1204 4116 
Q 875 4013 500 3803 
L 500 4441 
Q 881 4594 1212 4672 
Q 1544 4750 1819 4750 
Q 2544 4750 2975 4387 
Q 3406 4025 3406 3419 
Q 3406 3131 3298 2873 
Q 3191 2616 2906 2266 
Q 2828 2175 2409 1742 
Q 1991 1309 1228 531 
z
" id="DejaVuSans-32" transform="scale(0.015625)"/>
       </defs>
       <use xlink:href="#DejaVuSans-32"/>
       <use x="63.623047" xlink:href="#DejaVuSans-30"/>
       <use x="127.246094" xlink:href="#DejaVuSans-30"/>
      </g>
     </g>
    </g>
    <g id="xtick_6">
     <g id="line2d_6">
      <g>
       <use style="stroke:#000000;stroke-width:0.8;" x="276.436692" xlink:href="#mdc3163cee0" y="307.584"/>
      </g>
     </g>
     <g id="text_6">
      <!-- 250 -->
      <g transform="translate(266.892942 322.182437)scale(0.1 -0.1)">
       <use xlink:href="#DejaVuSans-32"/>
       <use x="63.623047" xlink:href="#DejaVuSans-35"/>
       <use x="127.246094" xlink:href="#DejaVuSans-30"/>
      </g>
     </g>
    </g>
    <g id="xtick_7">
     <g id="line2d_7">
      <g>
       <use style="stroke:#000000;stroke-width:0.8;" x="317.120219" xlink:href="#mdc3163cee0" y="307.584"/>
      </g>
     </g>
     <g id="text_7">
      <!-- 300 -->
      <g transform="translate(307.576469 322.182437)scale(0.1 -0.1)">
       <defs>
        <path d="M 2597 2516 
Q 3050 2419 3304 2112 
Q 3559 1806 3559 1356 
Q 3559 666 3084 287 
Q 2609 -91 1734 -91 
Q 1441 -91 1130 -33 
Q 819 25 488 141 
L 488 750 
Q 750 597 1062 519 
Q 1375 441 1716 441 
Q 2309 441 2620 675 
Q 2931 909 2931 1356 
Q 2931 1769 2642 2001 
Q 2353 2234 1838 2234 
L 1294 2234 
L 1294 2753 
L 1863 2753 
Q 2328 2753 2575 2939 
Q 2822 3125 2822 3475 
Q 2822 3834 2567 4026 
Q 2313 4219 1838 4219 
Q 1578 4219 1281 4162 
Q 984 4106 628 3988 
L 628 4550 
Q 988 4650 1302 4700 
Q 1616 4750 1894 4750 
Q 2613 4750 3031 4423 
Q 3450 4097 3450 3541 
Q 3450 3153 3228 2886 
Q 3006 2619 2597 2516 
z
" id="DejaVuSans-33" transform="scale(0.015625)"/>
       </defs>
       <use xlink:href="#DejaVuSans-33"/>
       <use x="63.623047" xlink:href="#DejaVuSans-30"/>
       <use x="127.246094" xlink:href="#DejaVuSans-30"/>
      </g>
     </g>
    </g>
    <g id="xtick_8">
     <g id="line2d_8">
      <g>
       <use style="stroke:#000000;stroke-width:0.8;" x="357.803746" xlink:href="#mdc3163cee0" y="307.584"/>
      </g>
     </g>
     <g id="text_8">
      <!-- 350 -->
      <g transform="translate(348.259996 322.182437)scale(0.1 -0.1)">
       <use xlink:href="#DejaVuSans-33"/>
       <use x="63.623047" xlink:href="#DejaVuSans-35"/>
       <use x="127.246094" xlink:href="#DejaVuSans-30"/>
      </g>
     </g>
    </g>
    <g id="xtick_9">
     <g id="line2d_9">
      <g>
       <use style="stroke:#000000;stroke-width:0.8;" x="398.487273" xlink:href="#mdc3163cee0" y="307.584"/>
      </g>
     </g>
     <g id="text_9">
      <!-- 400 -->
      <g transform="translate(388.943523 322.182437)scale(0.1 -0.1)">
       <defs>
        <path d="M 2419 4116 
L 825 1625 
L 2419 1625 
L 2419 4116 
z
M 2253 4666 
L 3047 4666 
L 3047 1625 
L 3713 1625 
L 3713 1100 
L 3047 1100 
L 3047 0 
L 2419 0 
L 2419 1100 
L 313 1100 
L 313 1709 
L 2253 4666 
z
" id="DejaVuSans-34" transform="scale(0.015625)"/>
       </defs>
       <use xlink:href="#DejaVuSans-34"/>
       <use x="63.623047" xlink:href="#DejaVuSans-30"/>
       <use x="127.246094" xlink:href="#DejaVuSans-30"/>
      </g>
     </g>
    </g>
    <g id="text_10">
     <!-- Epoch -->
     <g transform="translate(213.193594 339.659781)scale(0.15 -0.15)">
      <defs>
       <path d="M 628 4666 
L 3578 4666 
L 3578 4134 
L 1259 4134 
L 1259 2753 
L 3481 2753 
L 3481 2222 
L 1259 2222 
L 1259 531 
L 3634 531 
L 3634 0 
L 628 0 
L 628 4666 
z
" id="DejaVuSans-45" transform="scale(0.015625)"/>
       <path d="M 1159 525 
L 1159 -1331 
L 581 -1331 
L 581 3500 
L 1159 3500 
L 1159 2969 
Q 1341 3281 1617 3432 
Q 1894 3584 2278 3584 
Q 2916 3584 3314 3078 
Q 3713 2572 3713 1747 
Q 3713 922 3314 415 
Q 2916 -91 2278 -91 
Q 1894 -91 1617 61 
Q 1341 213 1159 525 
z
M 3116 1747 
Q 3116 2381 2855 2742 
Q 2594 3103 2138 3103 
Q 1681 3103 1420 2742 
Q 1159 2381 1159 1747 
Q 1159 1113 1420 752 
Q 1681 391 2138 391 
Q 2594 391 2855 752 
Q 3116 1113 3116 1747 
z
" id="DejaVuSans-70" transform="scale(0.015625)"/>
       <path d="M 1959 3097 
Q 1497 3097 1228 2736 
Q 959 2375 959 1747 
Q 959 1119 1226 758 
Q 1494 397 1959 397 
Q 2419 397 2687 759 
Q 2956 1122 2956 1747 
Q 2956 2369 2687 2733 
Q 2419 3097 1959 3097 
z
M 1959 3584 
Q 2709 3584 3137 3096 
Q 3566 2609 3566 1747 
Q 3566 888 3137 398 
Q 2709 -91 1959 -91 
Q 1206 -91 779 398 
Q 353 888 353 1747 
Q 353 2609 779 3096 
Q 1206 3584 1959 3584 
z
" id="DejaVuSans-6f" transform="scale(0.015625)"/>
       <path d="M 3122 3366 
L 3122 2828 
Q 2878 2963 2633 3030 
Q 2388 3097 2138 3097 
Q 1578 3097 1268 2742 
Q 959 2388 959 1747 
Q 959 1106 1268 751 
Q 1578 397 2138 397 
Q 2388 397 2633 464 
Q 2878 531 3122 666 
L 3122 134 
Q 2881 22 2623 -34 
Q 2366 -91 2075 -91 
Q 1284 -91 818 406 
Q 353 903 353 1747 
Q 353 2603 823 3093 
Q 1294 3584 2113 3584 
Q 2378 3584 2631 3529 
Q 2884 3475 3122 3366 
z
" id="DejaVuSans-63" transform="scale(0.015625)"/>
       <path d="M 3513 2113 
L 3513 0 
L 2938 0 
L 2938 2094 
Q 2938 2591 2744 2837 
Q 2550 3084 2163 3084 
Q 1697 3084 1428 2787 
Q 1159 2491 1159 1978 
L 1159 0 
L 581 0 
L 581 4863 
L 1159 4863 
L 1159 2956 
Q 1366 3272 1645 3428 
Q 1925 3584 2291 3584 
Q 2894 3584 3203 3211 
Q 3513 2838 3513 2113 
z
" id="DejaVuSans-68" transform="scale(0.015625)"/>
      </defs>
      <use xlink:href="#DejaVuSans-45"/>
      <use x="63.183594" xlink:href="#DejaVuSans-70"/>
      <use x="126.660156" xlink:href="#DejaVuSans-6f"/>
      <use x="187.841797" xlink:href="#DejaVuSans-63"/>
      <use x="242.822266" xlink:href="#DejaVuSans-68"/>
     </g>
    </g>
   </g>
   <g id="matplotlib.axis_2">
    <g id="ytick_1">
     <g id="line2d_10">
      <defs>
       <path d="M 0 0 
L -3.5 0 
" id="m2cf713d1ac" style="stroke:#000000;stroke-width:0.8;"/>
      </defs>
      <g>
       <use style="stroke:#000000;stroke-width:0.8;" x="57.6" xlink:href="#m2cf713d1ac" y="291.573626"/>
      </g>
     </g>
     <g id="text_11">
      <!-- 0 -->
      <g transform="translate(44.2375 295.372844)scale(0.1 -0.1)">
       <use xlink:href="#DejaVuSans-30"/>
      </g>
     </g>
    </g>
    <g id="ytick_2">
     <g id="line2d_11">
      <g>
       <use style="stroke:#000000;stroke-width:0.8;" x="57.6" xlink:href="#m2cf713d1ac" y="256.905407"/>
      </g>
     </g>
     <g id="text_12">
      <!-- 10000 -->
      <g transform="translate(18.7875 260.704626)scale(0.1 -0.1)">
       <use xlink:href="#DejaVuSans-31"/>
       <use x="63.623047" xlink:href="#DejaVuSans-30"/>
       <use x="127.246094" xlink:href="#DejaVuSans-30"/>
       <use x="190.869141" xlink:href="#DejaVuSans-30"/>
       <use x="254.492188" xlink:href="#DejaVuSans-30"/>
      </g>
     </g>
    </g>
    <g id="ytick_3">
     <g id="line2d_12">
      <g>
       <use style="stroke:#000000;stroke-width:0.8;" x="57.6" xlink:href="#m2cf713d1ac" y="222.237188"/>
      </g>
     </g>
     <g id="text_13">
      <!-- 20000 -->
      <g transform="translate(18.7875 226.036407)scale(0.1 -0.1)">
       <use xlink:href="#DejaVuSans-32"/>
       <use x="63.623047" xlink:href="#DejaVuSans-30"/>
       <use x="127.246094" xlink:href="#DejaVuSans-30"/>
       <use x="190.869141" xlink:href="#DejaVuSans-30"/>
       <use x="254.492188" xlink:href="#DejaVuSans-30"/>
      </g>
     </g>
    </g>
    <g id="ytick_4">
     <g id="line2d_13">
      <g>
       <use style="stroke:#000000;stroke-width:0.8;" x="57.6" xlink:href="#m2cf713d1ac" y="187.568969"/>
      </g>
     </g>
     <g id="text_14">
      <!-- 30000 -->
      <g transform="translate(18.7875 191.368188)scale(0.1 -0.1)">
       <use xlink:href="#DejaVuSans-33"/>
       <use x="63.623047" xlink:href="#DejaVuSans-30"/>
       <use x="127.246094" xlink:href="#DejaVuSans-30"/>
       <use x="190.869141" xlink:href="#DejaVuSans-30"/>
       <use x="254.492188" xlink:href="#DejaVuSans-30"/>
      </g>
     </g>
    </g>
    <g id="ytick_5">
     <g id="line2d_14">
      <g>
       <use style="stroke:#000000;stroke-width:0.8;" x="57.6" xlink:href="#m2cf713d1ac" y="152.900751"/>
      </g>
     </g>
     <g id="text_15">
      <!-- 40000 -->
      <g transform="translate(18.7875 156.699969)scale(0.1 -0.1)">
       <use xlink:href="#DejaVuSans-34"/>
       <use x="63.623047" xlink:href="#DejaVuSans-30"/>
       <use x="127.246094" xlink:href="#DejaVuSans-30"/>
       <use x="190.869141" xlink:href="#DejaVuSans-30"/>
       <use x="254.492188" xlink:href="#DejaVuSans-30"/>
      </g>
     </g>
    </g>
    <g id="ytick_6">
     <g id="line2d_15">
      <g>
       <use style="stroke:#000000;stroke-width:0.8;" x="57.6" xlink:href="#m2cf713d1ac" y="118.232532"/>
      </g>
     </g>
     <g id="text_16">
      <!-- 50000 -->
      <g transform="translate(18.7875 122.031751)scale(0.1 -0.1)">
       <use xlink:href="#DejaVuSans-35"/>
       <use x="63.623047" xlink:href="#DejaVuSans-30"/>
       <use x="127.246094" xlink:href="#DejaVuSans-30"/>
       <use x="190.869141" xlink:href="#DejaVuSans-30"/>
       <use x="254.492188" xlink:href="#DejaVuSans-30"/>
      </g>
     </g>
    </g>
    <g id="ytick_7">
     <g id="line2d_16">
      <g>
       <use style="stroke:#000000;stroke-width:0.8;" x="57.6" xlink:href="#m2cf713d1ac" y="83.564313"/>
      </g>
     </g>
     <g id="text_17">
      <!-- 60000 -->
      <g transform="translate(18.7875 87.363532)scale(0.1 -0.1)">
       <defs>
        <path d="M 2113 2584 
Q 1688 2584 1439 2293 
Q 1191 2003 1191 1497 
Q 1191 994 1439 701 
Q 1688 409 2113 409 
Q 2538 409 2786 701 
Q 3034 994 3034 1497 
Q 3034 2003 2786 2293 
Q 2538 2584 2113 2584 
z
M 3366 4563 
L 3366 3988 
Q 3128 4100 2886 4159 
Q 2644 4219 2406 4219 
Q 1781 4219 1451 3797 
Q 1122 3375 1075 2522 
Q 1259 2794 1537 2939 
Q 1816 3084 2150 3084 
Q 2853 3084 3261 2657 
Q 3669 2231 3669 1497 
Q 3669 778 3244 343 
Q 2819 -91 2113 -91 
Q 1303 -91 875 529 
Q 447 1150 447 2328 
Q 447 3434 972 4092 
Q 1497 4750 2381 4750 
Q 2619 4750 2861 4703 
Q 3103 4656 3366 4563 
z
" id="DejaVuSans-36" transform="scale(0.015625)"/>
       </defs>
       <use xlink:href="#DejaVuSans-36"/>
       <use x="63.623047" xlink:href="#DejaVuSans-30"/>
       <use x="127.246094" xlink:href="#DejaVuSans-30"/>
       <use x="190.869141" xlink:href="#DejaVuSans-30"/>
       <use x="254.492188" xlink:href="#DejaVuSans-30"/>
      </g>
     </g>
    </g>
    <g id="ytick_8">
     <g id="line2d_17">
      <g>
       <use style="stroke:#000000;stroke-width:0.8;" x="57.6" xlink:href="#m2cf713d1ac" y="48.896094"/>
      </g>
     </g>
     <g id="text_18">
      <!-- 70000 -->
      <g transform="translate(18.7875 52.695313)scale(0.1 -0.1)">
       <defs>
        <path d="M 525 4666 
L 3525 4666 
L 3525 4397 
L 1831 0 
L 1172 0 
L 2766 4134 
L 525 4134 
L 525 4666 
z
" id="DejaVuSans-37" transform="scale(0.015625)"/>
       </defs>
       <use xlink:href="#DejaVuSans-37"/>
       <use x="63.623047" xlink:href="#DejaVuSans-30"/>
       <use x="127.246094" xlink:href="#DejaVuSans-30"/>
       <use x="190.869141" xlink:href="#DejaVuSans-30"/>
       <use x="254.492188" xlink:href="#DejaVuSans-30"/>
      </g>
     </g>
    </g>
    <g id="text_19">
     <!-- Loss -->
     <g transform="translate(11.667969 190.978781)rotate(-90)scale(0.15 -0.15)">
      <defs>
       <path d="M 628 4666 
L 1259 4666 
L 1259 531 
L 3531 531 
L 3531 0 
L 628 0 
L 628 4666 
z
" id="DejaVuSans-4c" transform="scale(0.015625)"/>
       <path d="M 2834 3397 
L 2834 2853 
Q 2591 2978 2328 3040 
Q 2066 3103 1784 3103 
Q 1356 3103 1142 2972 
Q 928 2841 928 2578 
Q 928 2378 1081 2264 
Q 1234 2150 1697 2047 
L 1894 2003 
Q 2506 1872 2764 1633 
Q 3022 1394 3022 966 
Q 3022 478 2636 193 
Q 2250 -91 1575 -91 
Q 1294 -91 989 -36 
Q 684 19 347 128 
L 347 722 
Q 666 556 975 473 
Q 1284 391 1588 391 
Q 1994 391 2212 530 
Q 2431 669 2431 922 
Q 2431 1156 2273 1281 
Q 2116 1406 1581 1522 
L 1381 1569 
Q 847 1681 609 1914 
Q 372 2147 372 2553 
Q 372 3047 722 3315 
Q 1072 3584 1716 3584 
Q 2034 3584 2315 3537 
Q 2597 3491 2834 3397 
z
" id="DejaVuSans-73" transform="scale(0.015625)"/>
      </defs>
      <use xlink:href="#DejaVuSans-4c"/>
      <use x="53.962891" xlink:href="#DejaVuSans-6f"/>
      <use x="115.144531" xlink:href="#DejaVuSans-73"/>
      <use x="167.244141" xlink:href="#DejaVuSans-73"/>
     </g>
    </g>
   </g>
   <g id="line2d_18">
    <path clip-path="url(#p797d0dc57a)" d="M 73.832727 291.95095 
L 74.646398 292.711742 
L 78.714751 293.242396 
L 79.528421 293.47696 
L 80.342092 293.412015 
L 82.783103 293.766596 
L 84.410444 293.86861 
L 85.224115 293.969648 
L 86.851456 293.866398 
L 87.665126 294.03187 
L 88.478797 293.867276 
L 90.106138 294.086137 
L 90.919809 294.062085 
L 91.733479 294.224729 
L 93.36082 294.407089 
L 94.174491 294.194662 
L 95.801832 294.386208 
L 97.429173 294.222985 
L 100.683855 294.614149 
L 102.311196 294.354916 
L 103.938537 294.735498 
L 104.752208 294.611759 
L 105.565878 294.710116 
L 108.00689 294.673228 
L 110.447902 294.613299 
L 111.261572 294.577983 
L 112.075243 294.66242 
L 112.888913 294.561822 
L 113.702584 294.789961 
L 114.516254 294.814137 
L 115.329925 294.715206 
L 116.143595 294.873884 
L 116.957266 294.776518 
L 118.584607 294.766808 
L 119.398278 294.646496 
L 120.211948 294.785138 
L 121.839289 294.745106 
L 123.46663 294.657013 
L 124.280301 294.736133 
L 125.093971 294.468148 
L 125.907642 294.757539 
L 126.721312 294.866365 
L 127.534983 294.630229 
L 131.603336 294.911074 
L 132.417006 294.620297 
L 133.230677 294.811945 
L 134.858018 294.719969 
L 135.671688 294.740884 
L 136.485359 294.485234 
L 137.299029 294.769551 
L 141.367382 294.843106 
L 142.181053 294.634504 
L 142.994723 294.67346 
L 143.808394 294.523325 
L 144.622064 294.729501 
L 147.063076 294.632755 
L 147.876746 294.763479 
L 148.690417 294.73911 
L 150.317758 295.097203 
L 151.131429 294.57486 
L 151.945099 295.026578 
L 152.75877 294.734528 
L 153.57244 294.883981 
L 154.386111 294.728431 
L 155.199781 295.047865 
L 156.013452 294.715666 
L 156.827122 294.97661 
L 157.640793 294.758602 
L 158.454463 294.980868 
L 160.081805 294.871358 
L 160.895475 294.611248 
L 161.709146 294.921831 
L 162.522816 294.880721 
L 163.336487 294.985297 
L 164.150157 294.635818 
L 164.963828 295.093559 
L 166.591169 294.908151 
L 167.404839 294.989671 
L 168.21851 294.674104 
L 169.845851 295.020491 
L 172.286863 294.731559 
L 173.100533 294.791085 
L 173.914204 295.034344 
L 174.727874 294.753923 
L 175.541545 294.839968 
L 177.168886 294.807833 
L 177.982556 295.040416 
L 178.796227 294.715846 
L 179.609897 295.004213 
L 180.423568 294.892286 
L 184.491921 294.869758 
L 185.305591 294.777339 
L 186.119262 294.804757 
L 186.932932 295.031193 
L 187.746603 294.688335 
L 188.560273 295.014234 
L 189.373944 294.719993 
L 190.187614 294.730116 
L 191.001285 294.970041 
L 193.442297 294.944849 
L 194.255967 294.716114 
L 195.069638 295.045104 
L 196.696979 295.001278 
L 197.510649 294.947989 
L 198.32432 295.269712 
L 199.13799 294.994089 
L 202.392673 294.907532 
L 203.206343 295.124942 
L 204.020014 294.986206 
L 204.833684 295.049484 
L 205.647355 294.832079 
L 206.461025 294.765069 
L 208.088366 294.957139 
L 209.715707 294.768634 
L 210.529378 295.152491 
L 211.343049 295.112789 
L 212.156719 294.953597 
L 213.78406 295.033205 
L 215.411401 295.172206 
L 216.225072 295.042948 
L 219.479754 294.919226 
L 220.293424 295.14786 
L 221.107095 295.009503 
L 222.734436 295.104532 
L 225.175448 295.136672 
L 225.989118 294.997709 
L 226.802789 295.221637 
L 230.057471 295.121419 
L 231.684812 295.179969 
L 232.498483 295.072451 
L 233.312153 295.133309 
L 234.125824 295.008578 
L 234.939494 295.081931 
L 235.753165 295.307184 
L 236.566835 295.208238 
L 237.380506 294.923225 
L 238.194176 295.142284 
L 239.007847 294.981797 
L 241.448859 295.202186 
L 242.262529 295.007006 
L 243.0762 295.008718 
L 244.703541 295.244535 
L 246.330882 295.058324 
L 247.144552 295.228059 
L 247.958223 294.939372 
L 248.771893 295.240464 
L 249.585564 294.963034 
L 250.399234 295.266194 
L 252.026576 294.993407 
L 253.653917 295.055004 
L 254.467587 295.26103 
L 255.281258 295.062726 
L 256.094928 295.07346 
L 256.908599 294.934423 
L 258.53594 295.155796 
L 259.34961 295.322369 
L 260.163281 294.98111 
L 260.976951 295.135311 
L 261.790622 295.096692 
L 262.604293 295.247246 
L 263.417963 295.034041 
L 265.045304 295.219596 
L 265.858975 294.908112 
L 266.672645 295.130654 
L 267.486316 295.202704 
L 268.299986 295.031103 
L 269.927327 295.119868 
L 270.740998 295.258046 
L 271.554668 294.992814 
L 273.18201 295.185993 
L 273.99568 295.086474 
L 274.809351 295.161171 
L 275.623021 295.048064 
L 276.436692 295.286061 
L 277.250362 295.303816 
L 278.064033 295.189637 
L 278.877703 295.203392 
L 279.691374 295.348235 
L 282.132386 295.071158 
L 282.946056 295.269165 
L 283.759727 295.25393 
L 284.573397 295.103911 
L 285.387068 295.20125 
L 286.200738 295.053435 
L 287.014409 295.233713 
L 288.64175 295.269182 
L 289.45542 295.391508 
L 290.269091 295.008176 
L 291.082761 295.287831 
L 291.896432 295.397301 
L 292.710103 295.392707 
L 293.523773 295.27139 
L 296.778455 295.281856 
L 298.405796 295.051062 
L 299.219467 295.399007 
L 301.660478 295.275097 
L 302.474149 295.113529 
L 304.10149 295.273562 
L 305.728831 295.16813 
L 308.169843 295.227116 
L 308.983513 295.030731 
L 309.797184 295.286519 
L 310.610854 295.155305 
L 311.424525 295.230516 
L 312.238195 295.105063 
L 313.051866 295.151829 
L 313.865537 295.051838 
L 314.679207 295.224257 
L 315.492878 295.085227 
L 316.306548 295.344667 
L 317.120219 295.082555 
L 319.56123 295.210266 
L 320.374901 295.16577 
L 322.002242 295.367895 
L 324.443254 295.056599 
L 325.256924 295.113002 
L 326.070595 295.05493 
L 327.697936 295.324386 
L 328.511606 295.156282 
L 330.138947 295.349863 
L 331.766288 295.11909 
L 334.2073 295.26538 
L 335.020971 295.067063 
L 336.648312 295.170431 
L 338.275653 295.231065 
L 339.089323 295.203248 
L 339.902994 295.47059 
L 340.716664 295.212619 
L 341.530335 295.184345 
L 342.344005 295.363496 
L 343.157676 295.229954 
L 343.971347 295.345862 
L 344.785017 295.061177 
L 348.85337 295.164884 
L 350.480711 295.036932 
L 351.294381 295.347886 
L 352.108052 295.181753 
L 352.921722 295.488 
L 353.735393 295.274062 
L 354.549064 295.233143 
L 355.362734 295.376518 
L 356.176405 295.060325 
L 357.803746 295.42108 
L 358.617416 295.451976 
L 359.431087 295.17163 
L 360.244757 295.362299 
L 361.058428 295.395563 
L 361.872098 295.039537 
L 365.940451 295.332308 
L 366.754122 295.083784 
L 368.381463 295.165195 
L 369.195133 295.243124 
L 372.449815 295.1888 
L 373.263486 295.294574 
L 374.077157 295.253879 
L 374.890827 294.887359 
L 375.704498 295.258875 
L 378.95918 295.339365 
L 380.586521 295.465547 
L 381.400191 295.214131 
L 382.213862 295.304226 
L 383.027532 294.992033 
L 387.095885 295.382564 
L 387.909556 295.197482 
L 390.350567 295.45632 
L 391.164238 295.305224 
L 391.977908 295.031196 
L 394.41892 295.362986 
L 396.046261 295.210636 
L 396.859932 295.318921 
L 397.673602 295.260406 
L 398.487273 295.317452 
L 398.487273 295.317452 
" style="fill:none;stroke:#1f77b4;stroke-linecap:square;stroke-width:1.5;"/>
   </g>
   <g id="line2d_19">
    <path clip-path="url(#p797d0dc57a)" d="M 73.832727 292.576977 
L 74.646398 292.655665 
L 75.460068 292.28975 
L 76.273739 292.076627 
L 77.087409 291.347524 
L 77.90108 290.800441 
L 80.342092 278.483666 
L 81.155762 270.069925 
L 81.969433 270.736095 
L 82.783103 268.24898 
L 83.596774 264.181888 
L 84.410444 264.118671 
L 85.224115 271.369898 
L 86.037785 255.233759 
L 86.851456 268.555561 
L 87.665126 256.733711 
L 88.478797 285.290613 
L 89.292468 250.730087 
L 90.106138 240.064626 
L 90.919809 233.68711 
L 91.733479 244.883138 
L 92.54715 229.92696 
L 93.36082 222.513492 
L 94.174491 229.026995 
L 94.988161 208.831676 
L 95.801832 221.467009 
L 96.615502 214.591925 
L 97.429173 222.681663 
L 98.242843 220.955905 
L 99.056514 217.913367 
L 99.870185 207.248794 
L 100.683855 200.495495 
L 101.497526 258.790448 
L 102.311196 219.681541 
L 103.124867 228.713607 
L 103.938537 198.83431 
L 105.565878 190.276491 
L 106.379549 198.765499 
L 107.193219 192.829776 
L 108.00689 185.228647 
L 108.82056 201.417951 
L 109.634231 202.891215 
L 110.447902 205.414606 
L 111.261572 199.571053 
L 112.075243 186.343706 
L 112.888913 189.371141 
L 113.702584 179.92793 
L 114.516254 175.801983 
L 115.329925 174.752865 
L 116.143595 179.822992 
L 116.957266 181.318609 
L 117.770936 170.888246 
L 118.584607 179.629195 
L 119.398278 183.107736 
L 120.211948 179.290897 
L 121.025619 177.733687 
L 121.839289 171.727577 
L 122.65296 179.109083 
L 123.46663 172.670128 
L 124.280301 176.231903 
L 125.093971 186.165168 
L 125.907642 186.586944 
L 126.721312 165.257356 
L 127.534983 174.399917 
L 128.348653 175.828879 
L 129.162324 184.239773 
L 129.975995 179.748715 
L 130.789665 185.800478 
L 131.603336 163.557757 
L 132.417006 183.426987 
L 134.044347 162.715343 
L 134.858018 171.363011 
L 135.671688 182.794141 
L 136.485359 173.473466 
L 137.299029 174.537706 
L 138.1127 186.02156 
L 138.92637 164.205367 
L 139.740041 179.284502 
L 140.553712 174.713628 
L 141.367382 183.303876 
L 142.181053 176.409131 
L 142.994723 181.888327 
L 143.808394 188.575851 
L 144.622064 164.194338 
L 145.435735 210.55504 
L 146.249405 166.928583 
L 147.063076 175.775661 
L 147.876746 159.563946 
L 148.690417 175.992577 
L 149.504087 168.966745 
L 150.317758 171.707277 
L 151.131429 162.02669 
L 151.945099 167.36991 
L 152.75877 159.500657 
L 153.57244 162.034416 
L 154.386111 168.174215 
L 155.199781 159.281876 
L 156.013452 174.535862 
L 156.827122 153.814295 
L 157.640793 172.341394 
L 158.454463 158.448405 
L 159.268134 177.293409 
L 160.081805 167.597295 
L 160.895475 182.957733 
L 161.709146 158.802092 
L 162.522816 153.129893 
L 163.336487 166.271034 
L 164.150157 156.963099 
L 164.963828 148.950067 
L 165.777498 155.639229 
L 166.591169 143.455233 
L 167.404839 154.524482 
L 168.21851 154.664704 
L 169.03218 170.324701 
L 169.845851 167.428971 
L 170.659522 163.007272 
L 171.473192 156.247022 
L 172.286863 139.886566 
L 173.100533 162.881497 
L 173.914204 161.675061 
L 174.727874 144.392402 
L 175.541545 148.647675 
L 176.355215 147.537082 
L 177.168886 144.580044 
L 177.982556 158.156317 
L 178.796227 141.327057 
L 179.609897 144.758337 
L 180.423568 131.92835 
L 181.237239 144.707937 
L 182.050909 138.564969 
L 182.86458 134.872197 
L 183.67825 133.290157 
L 184.491921 135.20232 
L 185.305591 150.555977 
L 186.119262 141.278936 
L 186.932932 156.481539 
L 187.746603 144.033102 
L 188.560273 139.032256 
L 189.373944 127.148943 
L 190.187614 159.10209 
L 191.001285 146.487753 
L 191.814956 146.099021 
L 192.628626 146.517067 
L 193.442297 124.759654 
L 194.255967 141.855799 
L 195.069638 129.854273 
L 195.883308 171.799759 
L 196.696979 143.916235 
L 197.510649 146.030182 
L 198.32432 152.243482 
L 199.13799 129.015806 
L 200.765332 149.443178 
L 201.579002 152.51203 
L 203.206343 115.133721 
L 204.020014 128.551826 
L 204.833684 126.298833 
L 205.647355 128.208049 
L 206.461025 142.97455 
L 207.274696 144.357768 
L 208.088366 137.574944 
L 208.902037 127.366395 
L 209.715707 161.004303 
L 210.529378 140.043616 
L 211.343049 134.765848 
L 212.156719 120.992248 
L 212.97039 137.43929 
L 213.78406 132.353419 
L 215.411401 120.107976 
L 216.225072 133.908472 
L 217.038742 130.409876 
L 217.852413 123.798984 
L 218.666083 126.249128 
L 219.479754 127.273164 
L 220.293424 152.564345 
L 221.107095 115.802933 
L 221.920766 130.932936 
L 222.734436 114.818778 
L 223.548107 120.667698 
L 224.361777 132.827059 
L 225.175448 98.275164 
L 225.989118 114.128909 
L 226.802789 112.916111 
L 227.616459 115.148619 
L 229.2438 127.145885 
L 230.057471 129.740353 
L 230.871141 116.367065 
L 231.684812 119.332143 
L 232.498483 123.921687 
L 233.312153 105.487909 
L 234.125824 109.902653 
L 234.939494 112.771438 
L 235.753165 112.685029 
L 236.566835 135.033397 
L 237.380506 134.328795 
L 238.194176 129.860422 
L 239.007847 119.822631 
L 239.821517 124.443542 
L 240.635188 116.247196 
L 241.448859 99.097872 
L 242.262529 105.288318 
L 243.0762 113.703237 
L 243.88987 104.219969 
L 244.703541 98.77851 
L 245.517211 97.086581 
L 246.330882 112.034144 
L 247.144552 115.988494 
L 247.958223 122.558948 
L 248.771893 104.272254 
L 250.399234 126.011785 
L 251.212905 108.463245 
L 252.026576 110.001824 
L 252.840246 134.826984 
L 253.653917 118.28993 
L 254.467587 87.695554 
L 255.281258 123.299295 
L 256.094928 104.02224 
L 256.908599 114.180418 
L 257.722269 75.811867 
L 258.53594 107.739184 
L 259.34961 102.170323 
L 260.163281 114.688129 
L 260.976951 94.557952 
L 261.790622 125.130189 
L 262.604293 87.105221 
L 263.417963 101.129605 
L 264.231634 121.587348 
L 265.045304 102.685822 
L 265.858975 103.819092 
L 266.672645 97.879459 
L 267.486316 99.213495 
L 268.299986 125.367019 
L 269.113657 89.314898 
L 269.927327 96.935367 
L 270.740998 101.486912 
L 271.554668 111.158939 
L 272.368339 105.12803 
L 273.18201 97.869197 
L 273.99568 105.114026 
L 274.809351 92.842399 
L 275.623021 102.829579 
L 276.436692 97.621047 
L 277.250362 96.394875 
L 278.064033 102.561573 
L 278.877703 88.20263 
L 279.691374 90.678891 
L 280.505044 85.331626 
L 281.318715 77.235043 
L 282.132386 87.260564 
L 282.946056 93.961674 
L 283.759727 96.863658 
L 284.573397 70.532051 
L 285.387068 101.784379 
L 286.200738 112.046733 
L 287.014409 92.448617 
L 287.828079 89.721977 
L 288.64175 109.042921 
L 289.45542 66.385432 
L 291.082761 95.81852 
L 291.896432 93.524967 
L 292.710103 88.912315 
L 293.523773 98.915905 
L 294.337444 91.64249 
L 295.151114 75.512856 
L 295.964785 97.889424 
L 296.778455 92.940653 
L 297.592126 84.492862 
L 298.405796 73.91269 
L 299.219467 93.731078 
L 300.033137 104.999987 
L 300.846808 85.533362 
L 301.660478 86.213408 
L 303.28782 81.090352 
L 304.10149 94.914069 
L 304.915161 95.750134 
L 305.728831 99.136264 
L 306.542502 75.759 
L 308.169843 92.428858 
L 308.983513 99.569113 
L 309.797184 88.827447 
L 310.610854 81.488095 
L 311.424525 92.677311 
L 312.238195 61.154951 
L 313.051866 110.055887 
L 313.865537 73.088431 
L 314.679207 77.474663 
L 315.492878 84.4935 
L 316.306548 83.183664 
L 317.120219 75.821825 
L 317.933889 84.819935 
L 318.74756 84.377812 
L 319.56123 90.219981 
L 321.188571 115.008099 
L 322.002242 78.969473 
L 322.815913 77.187806 
L 323.629583 90.312713 
L 324.443254 73.691041 
L 325.256924 83.509771 
L 326.070595 71.299166 
L 326.884265 71.499154 
L 327.697936 78.12949 
L 328.511606 88.068255 
L 329.325277 55.503992 
L 330.138947 80.240398 
L 330.952618 90.399779 
L 331.766288 70.748757 
L 332.579959 79.165737 
L 333.39363 82.8275 
L 334.2073 53.568 
L 335.020971 97.551506 
L 335.834641 78.173261 
L 336.648312 71.56386 
L 337.461982 70.484217 
L 338.275653 73.655764 
L 339.089323 67.686348 
L 339.902994 76.719116 
L 340.716664 88.423991 
L 341.530335 73.941449 
L 342.344005 77.359937 
L 343.157676 79.444219 
L 343.971347 89.83633 
L 344.785017 81.3773 
L 345.598688 69.180174 
L 346.412358 144.972806 
L 347.226029 90.308092 
L 348.039699 83.254901 
L 348.85337 70.451397 
L 349.66704 80.793757 
L 350.480711 79.371595 
L 351.294381 62.447975 
L 352.108052 78.043428 
L 352.921722 97.086414 
L 353.735393 63.494657 
L 354.549064 65.415649 
L 355.362734 125.958294 
L 356.176405 81.770905 
L 356.990075 91.529976 
L 357.803746 64.112259 
L 358.617416 90.196993 
L 359.431087 98.206953 
L 360.244757 67.723556 
L 361.058428 79.67588 
L 361.872098 86.355445 
L 362.685769 95.800798 
L 363.49944 84.491121 
L 364.31311 75.560038 
L 365.126781 79.615483 
L 365.940451 73.609673 
L 366.754122 73.390982 
L 367.567792 76.729966 
L 368.381463 72.675002 
L 369.195133 69.868153 
L 370.008804 81.435604 
L 370.822474 73.603889 
L 371.636145 71.124226 
L 372.449815 80.171036 
L 373.263486 79.85038 
L 374.077157 70.283063 
L 374.890827 90.979015 
L 375.704498 84.165373 
L 376.518168 81.117183 
L 377.331839 87.928467 
L 378.145509 62.824749 
L 378.95918 59.718431 
L 379.77285 87.526716 
L 380.586521 76.155317 
L 381.400191 60.291827 
L 382.213862 67.442382 
L 383.027532 67.515355 
L 383.841203 84.90306 
L 384.654874 69.924834 
L 385.468544 63.35377 
L 386.282215 78.894908 
L 387.095885 55.17204 
L 387.909556 80.264476 
L 388.723226 98.3247 
L 389.536897 62.83617 
L 390.350567 57.472506 
L 391.164238 76.624027 
L 391.977908 70.076385 
L 392.791579 75.558119 
L 393.605249 60.051583 
L 394.41892 78.816184 
L 395.232591 69.616194 
L 396.046261 109.264198 
L 396.859932 71.328616 
L 397.673602 66.87571 
L 398.487273 78.986053 
L 398.487273 78.986053 
" style="fill:none;stroke:#ff7f0e;stroke-linecap:square;stroke-width:1.5;"/>
   </g>
   <g id="patch_3">
    <path d="M 57.6 307.584 
L 57.6 41.472 
" style="fill:none;stroke:#000000;stroke-linecap:square;stroke-linejoin:miter;stroke-width:0.8;"/>
   </g>
   <g id="patch_4">
    <path d="M 414.72 307.584 
L 414.72 41.472 
" style="fill:none;stroke:#000000;stroke-linecap:square;stroke-linejoin:miter;stroke-width:0.8;"/>
   </g>
   <g id="patch_5">
    <path d="M 57.6 307.584 
L 414.72 307.584 
" style="fill:none;stroke:#000000;stroke-linecap:square;stroke-linejoin:miter;stroke-width:0.8;"/>
   </g>
   <g id="patch_6">
    <path d="M 57.6 41.472 
L 414.72 41.472 
" style="fill:none;stroke:#000000;stroke-linecap:square;stroke-linejoin:miter;stroke-width:0.8;"/>
   </g>
   <g id="legend_1">
    <g id="patch_7">
     <path d="M 64.6 78.82825 
L 168.475 78.82825 
Q 170.475 78.82825 170.475 76.82825 
L 170.475 48.472 
Q 170.475 46.472 168.475 46.472 
L 64.6 46.472 
Q 62.6 46.472 62.6 48.472 
L 62.6 76.82825 
Q 62.6 78.82825 64.6 78.82825 
z
" style="fill:#ffffff;opacity:0.8;stroke:#cccccc;stroke-linejoin:miter;"/>
    </g>
    <g id="line2d_20">
     <path d="M 66.6 54.570437 
L 86.6 54.570437 
" style="fill:none;stroke:#1f77b4;stroke-linecap:square;stroke-width:1.5;"/>
    </g>
    <g id="line2d_21"/>
    <g id="text_20">
     <!-- Train loss -->
     <g transform="translate(94.6 58.070437)scale(0.1 -0.1)">
      <defs>
       <path d="M -19 4666 
L 3928 4666 
L 3928 4134 
L 2272 4134 
L 2272 0 
L 1638 0 
L 1638 4134 
L -19 4134 
L -19 4666 
z
" id="DejaVuSans-54" transform="scale(0.015625)"/>
       <path d="M 2631 2963 
Q 2534 3019 2420 3045 
Q 2306 3072 2169 3072 
Q 1681 3072 1420 2755 
Q 1159 2438 1159 1844 
L 1159 0 
L 581 0 
L 581 3500 
L 1159 3500 
L 1159 2956 
Q 1341 3275 1631 3429 
Q 1922 3584 2338 3584 
Q 2397 3584 2469 3576 
Q 2541 3569 2628 3553 
L 2631 2963 
z
" id="DejaVuSans-72" transform="scale(0.015625)"/>
       <path d="M 2194 1759 
Q 1497 1759 1228 1600 
Q 959 1441 959 1056 
Q 959 750 1161 570 
Q 1363 391 1709 391 
Q 2188 391 2477 730 
Q 2766 1069 2766 1631 
L 2766 1759 
L 2194 1759 
z
M 3341 1997 
L 3341 0 
L 2766 0 
L 2766 531 
Q 2569 213 2275 61 
Q 1981 -91 1556 -91 
Q 1019 -91 701 211 
Q 384 513 384 1019 
Q 384 1609 779 1909 
Q 1175 2209 1959 2209 
L 2766 2209 
L 2766 2266 
Q 2766 2663 2505 2880 
Q 2244 3097 1772 3097 
Q 1472 3097 1187 3025 
Q 903 2953 641 2809 
L 641 3341 
Q 956 3463 1253 3523 
Q 1550 3584 1831 3584 
Q 2591 3584 2966 3190 
Q 3341 2797 3341 1997 
z
" id="DejaVuSans-61" transform="scale(0.015625)"/>
       <path d="M 603 3500 
L 1178 3500 
L 1178 0 
L 603 0 
L 603 3500 
z
M 603 4863 
L 1178 4863 
L 1178 4134 
L 603 4134 
L 603 4863 
z
" id="DejaVuSans-69" transform="scale(0.015625)"/>
       <path d="M 3513 2113 
L 3513 0 
L 2938 0 
L 2938 2094 
Q 2938 2591 2744 2837 
Q 2550 3084 2163 3084 
Q 1697 3084 1428 2787 
Q 1159 2491 1159 1978 
L 1159 0 
L 581 0 
L 581 3500 
L 1159 3500 
L 1159 2956 
Q 1366 3272 1645 3428 
Q 1925 3584 2291 3584 
Q 2894 3584 3203 3211 
Q 3513 2838 3513 2113 
z
" id="DejaVuSans-6e" transform="scale(0.015625)"/>
       <path id="DejaVuSans-20" transform="scale(0.015625)"/>
       <path d="M 603 4863 
L 1178 4863 
L 1178 0 
L 603 0 
L 603 4863 
z
" id="DejaVuSans-6c" transform="scale(0.015625)"/>
      </defs>
      <use xlink:href="#DejaVuSans-54"/>
      <use x="46.333984" xlink:href="#DejaVuSans-72"/>
      <use x="87.447266" xlink:href="#DejaVuSans-61"/>
      <use x="148.726562" xlink:href="#DejaVuSans-69"/>
      <use x="176.509766" xlink:href="#DejaVuSans-6e"/>
      <use x="239.888672" xlink:href="#DejaVuSans-20"/>
      <use x="271.675781" xlink:href="#DejaVuSans-6c"/>
      <use x="299.458984" xlink:href="#DejaVuSans-6f"/>
      <use x="360.640625" xlink:href="#DejaVuSans-73"/>
      <use x="412.740234" xlink:href="#DejaVuSans-73"/>
     </g>
    </g>
    <g id="line2d_22">
     <path d="M 66.6 69.248562 
L 86.6 69.248562 
" style="fill:none;stroke:#ff7f0e;stroke-linecap:square;stroke-width:1.5;"/>
    </g>
    <g id="line2d_23"/>
    <g id="text_21">
     <!-- Validation loss -->
     <g transform="translate(94.6 72.748562)scale(0.1 -0.1)">
      <defs>
       <path d="M 1831 0 
L 50 4666 
L 709 4666 
L 2188 738 
L 3669 4666 
L 4325 4666 
L 2547 0 
L 1831 0 
z
" id="DejaVuSans-56" transform="scale(0.015625)"/>
       <path d="M 2906 2969 
L 2906 4863 
L 3481 4863 
L 3481 0 
L 2906 0 
L 2906 525 
Q 2725 213 2448 61 
Q 2172 -91 1784 -91 
Q 1150 -91 751 415 
Q 353 922 353 1747 
Q 353 2572 751 3078 
Q 1150 3584 1784 3584 
Q 2172 3584 2448 3432 
Q 2725 3281 2906 2969 
z
M 947 1747 
Q 947 1113 1208 752 
Q 1469 391 1925 391 
Q 2381 391 2643 752 
Q 2906 1113 2906 1747 
Q 2906 2381 2643 2742 
Q 2381 3103 1925 3103 
Q 1469 3103 1208 2742 
Q 947 2381 947 1747 
z
" id="DejaVuSans-64" transform="scale(0.015625)"/>
       <path d="M 1172 4494 
L 1172 3500 
L 2356 3500 
L 2356 3053 
L 1172 3053 
L 1172 1153 
Q 1172 725 1289 603 
Q 1406 481 1766 481 
L 2356 481 
L 2356 0 
L 1766 0 
Q 1100 0 847 248 
Q 594 497 594 1153 
L 594 3053 
L 172 3053 
L 172 3500 
L 594 3500 
L 594 4494 
L 1172 4494 
z
" id="DejaVuSans-74" transform="scale(0.015625)"/>
      </defs>
      <use xlink:href="#DejaVuSans-56"/>
      <use x="60.658203" xlink:href="#DejaVuSans-61"/>
      <use x="121.9375" xlink:href="#DejaVuSans-6c"/>
      <use x="149.720703" xlink:href="#DejaVuSans-69"/>
      <use x="177.503906" xlink:href="#DejaVuSans-64"/>
      <use x="240.980469" xlink:href="#DejaVuSans-61"/>
      <use x="302.259766" xlink:href="#DejaVuSans-74"/>
      <use x="341.46875" xlink:href="#DejaVuSans-69"/>
      <use x="369.251953" xlink:href="#DejaVuSans-6f"/>
      <use x="430.433594" xlink:href="#DejaVuSans-6e"/>
      <use x="493.8125" xlink:href="#DejaVuSans-20"/>
      <use x="525.599609" xlink:href="#DejaVuSans-6c"/>
      <use x="553.382812" xlink:href="#DejaVuSans-6f"/>
      <use x="614.564453" xlink:href="#DejaVuSans-73"/>
      <use x="666.664062" xlink:href="#DejaVuSans-73"/>
     </g>
    </g>
   </g>
  </g>
 </g>
 <defs>
  <clipPath id="p797d0dc57a">
   <rect height="266.112" width="357.12" x="57.6" y="41.472"/>
  </clipPath>
 </defs>
</svg>
