<?xml version="1.0" encoding="utf-8" standalone="no"?>
<!DOCTYPE svg PUBLIC "-//W3C//DTD SVG 1.1//EN"
  "http://www.w3.org/Graphics/SVG/1.1/DTD/svg11.dtd">
<svg height="345.6pt" version="1.1" viewBox="0 0 460.8 345.6" width="460.8pt" xmlns="http://www.w3.org/2000/svg" xmlns:xlink="http://www.w3.org/1999/xlink">
 <metadata>
  <rdf:RDF xmlns:cc="http://creativecommons.org/ns#" xmlns:dc="http://purl.org/dc/elements/1.1/" xmlns:rdf="http://www.w3.org/1999/02/22-rdf-syntax-ns#">
   <cc:Work>
    <dc:type rdf:resource="http://purl.org/dc/dcmitype/StillImage"/>
    <dc:date>2021-07-15T18:32:47.885118</dc:date>
    <dc:format>image/svg+xml</dc:format>
    <dc:creator>
     <cc:Agent>
      <dc:title>Matplotlib v3.4.2, https://matplotlib.org/</dc:title>
     </cc:Agent>
    </dc:creator>
   </cc:Work>
  </rdf:RDF>
 </metadata>
 <defs>
  <style type="text/css">*{stroke-linecap:butt;stroke-linejoin:round;}</style>
 </defs>
 <g id="figure_1">
  <g id="patch_1">
   <path d="M 0 345.6 
L 460.8 345.6 
L 460.8 0 
L 0 0 
z
" style="fill:#ffffff;"/>
  </g>
  <g id="axes_1">
   <g id="patch_2">
    <path d="M 57.6 307.584 
L 414.72 307.584 
L 414.72 41.472 
L 57.6 41.472 
z
" style="fill:#ffffff;"/>
   </g>
   <g id="matplotlib.axis_1">
    <g id="xtick_1">
     <g id="line2d_1">
      <defs>
       <path d="M 0 0 
L 0 3.5 
" id="m51434f501d" style="stroke:#000000;stroke-width:0.8;"/>
      </defs>
      <g>
       <use style="stroke:#000000;stroke-width:0.8;" x="73.019057" xlink:href="#m51434f501d" y="307.584"/>
      </g>
     </g>
     <g id="text_1">
      <!-- 0 -->
      <g transform="translate(69.837807 322.182437)scale(0.1 -0.1)">
       <defs>
        <path d="M 2034 4250 
Q 1547 4250 1301 3770 
Q 1056 3291 1056 2328 
Q 1056 1369 1301 889 
Q 1547 409 2034 409 
Q 2525 409 2770 889 
Q 3016 1369 3016 2328 
Q 3016 3291 2770 3770 
Q 2525 4250 2034 4250 
z
M 2034 4750 
Q 2819 4750 3233 4129 
Q 3647 3509 3647 2328 
Q 3647 1150 3233 529 
Q 2819 -91 2034 -91 
Q 1250 -91 836 529 
Q 422 1150 422 2328 
Q 422 3509 836 4129 
Q 1250 4750 2034 4750 
z
" id="DejaVuSans-30" transform="scale(0.015625)"/>
       </defs>
       <use xlink:href="#DejaVuSans-30"/>
      </g>
     </g>
    </g>
    <g id="xtick_2">
     <g id="line2d_2">
      <g>
       <use style="stroke:#000000;stroke-width:0.8;" x="113.702584" xlink:href="#m51434f501d" y="307.584"/>
      </g>
     </g>
     <g id="text_2">
      <!-- 50 -->
      <g transform="translate(107.340084 322.182437)scale(0.1 -0.1)">
       <defs>
        <path d="M 691 4666 
L 3169 4666 
L 3169 4134 
L 1269 4134 
L 1269 2991 
Q 1406 3038 1543 3061 
Q 1681 3084 1819 3084 
Q 2600 3084 3056 2656 
Q 3513 2228 3513 1497 
Q 3513 744 3044 326 
Q 2575 -91 1722 -91 
Q 1428 -91 1123 -41 
Q 819 9 494 109 
L 494 744 
Q 775 591 1075 516 
Q 1375 441 1709 441 
Q 2250 441 2565 725 
Q 2881 1009 2881 1497 
Q 2881 1984 2565 2268 
Q 2250 2553 1709 2553 
Q 1456 2553 1204 2497 
Q 953 2441 691 2322 
L 691 4666 
z
" id="DejaVuSans-35" transform="scale(0.015625)"/>
       </defs>
       <use xlink:href="#DejaVuSans-35"/>
       <use x="63.623047" xlink:href="#DejaVuSans-30"/>
      </g>
     </g>
    </g>
    <g id="xtick_3">
     <g id="line2d_3">
      <g>
       <use style="stroke:#000000;stroke-width:0.8;" x="154.386111" xlink:href="#m51434f501d" y="307.584"/>
      </g>
     </g>
     <g id="text_3">
      <!-- 100 -->
      <g transform="translate(144.842361 322.182437)scale(0.1 -0.1)">
       <defs>
        <path d="M 794 531 
L 1825 531 
L 1825 4091 
L 703 3866 
L 703 4441 
L 1819 4666 
L 2450 4666 
L 2450 531 
L 3481 531 
L 3481 0 
L 794 0 
L 794 531 
z
" id="DejaVuSans-31" transform="scale(0.015625)"/>
       </defs>
       <use xlink:href="#DejaVuSans-31"/>
       <use x="63.623047" xlink:href="#DejaVuSans-30"/>
       <use x="127.246094" xlink:href="#DejaVuSans-30"/>
      </g>
     </g>
    </g>
    <g id="xtick_4">
     <g id="line2d_4">
      <g>
       <use style="stroke:#000000;stroke-width:0.8;" x="195.069638" xlink:href="#m51434f501d" y="307.584"/>
      </g>
     </g>
     <g id="text_4">
      <!-- 150 -->
      <g transform="translate(185.525888 322.182437)scale(0.1 -0.1)">
       <use xlink:href="#DejaVuSans-31"/>
       <use x="63.623047" xlink:href="#DejaVuSans-35"/>
       <use x="127.246094" xlink:href="#DejaVuSans-30"/>
      </g>
     </g>
    </g>
    <g id="xtick_5">
     <g id="line2d_5">
      <g>
       <use style="stroke:#000000;stroke-width:0.8;" x="235.753165" xlink:href="#m51434f501d" y="307.584"/>
      </g>
     </g>
     <g id="text_5">
      <!-- 200 -->
      <g transform="translate(226.209415 322.182437)scale(0.1 -0.1)">
       <defs>
        <path d="M 1228 531 
L 3431 531 
L 3431 0 
L 469 0 
L 469 531 
Q 828 903 1448 1529 
Q 2069 2156 2228 2338 
Q 2531 2678 2651 2914 
Q 2772 3150 2772 3378 
Q 2772 3750 2511 3984 
Q 2250 4219 1831 4219 
Q 1534 4219 1204 4116 
Q 875 4013 500 3803 
L 500 4441 
Q 881 4594 1212 4672 
Q 1544 4750 1819 4750 
Q 2544 4750 2975 4387 
Q 3406 4025 3406 3419 
Q 3406 3131 3298 2873 
Q 3191 2616 2906 2266 
Q 2828 2175 2409 1742 
Q 1991 1309 1228 531 
z
" id="DejaVuSans-32" transform="scale(0.015625)"/>
       </defs>
       <use xlink:href="#DejaVuSans-32"/>
       <use x="63.623047" xlink:href="#DejaVuSans-30"/>
       <use x="127.246094" xlink:href="#DejaVuSans-30"/>
      </g>
     </g>
    </g>
    <g id="xtick_6">
     <g id="line2d_6">
      <g>
       <use style="stroke:#000000;stroke-width:0.8;" x="276.436692" xlink:href="#m51434f501d" y="307.584"/>
      </g>
     </g>
     <g id="text_6">
      <!-- 250 -->
      <g transform="translate(266.892942 322.182437)scale(0.1 -0.1)">
       <use xlink:href="#DejaVuSans-32"/>
       <use x="63.623047" xlink:href="#DejaVuSans-35"/>
       <use x="127.246094" xlink:href="#DejaVuSans-30"/>
      </g>
     </g>
    </g>
    <g id="xtick_7">
     <g id="line2d_7">
      <g>
       <use style="stroke:#000000;stroke-width:0.8;" x="317.120219" xlink:href="#m51434f501d" y="307.584"/>
      </g>
     </g>
     <g id="text_7">
      <!-- 300 -->
      <g transform="translate(307.576469 322.182437)scale(0.1 -0.1)">
       <defs>
        <path d="M 2597 2516 
Q 3050 2419 3304 2112 
Q 3559 1806 3559 1356 
Q 3559 666 3084 287 
Q 2609 -91 1734 -91 
Q 1441 -91 1130 -33 
Q 819 25 488 141 
L 488 750 
Q 750 597 1062 519 
Q 1375 441 1716 441 
Q 2309 441 2620 675 
Q 2931 909 2931 1356 
Q 2931 1769 2642 2001 
Q 2353 2234 1838 2234 
L 1294 2234 
L 1294 2753 
L 1863 2753 
Q 2328 2753 2575 2939 
Q 2822 3125 2822 3475 
Q 2822 3834 2567 4026 
Q 2313 4219 1838 4219 
Q 1578 4219 1281 4162 
Q 984 4106 628 3988 
L 628 4550 
Q 988 4650 1302 4700 
Q 1616 4750 1894 4750 
Q 2613 4750 3031 4423 
Q 3450 4097 3450 3541 
Q 3450 3153 3228 2886 
Q 3006 2619 2597 2516 
z
" id="DejaVuSans-33" transform="scale(0.015625)"/>
       </defs>
       <use xlink:href="#DejaVuSans-33"/>
       <use x="63.623047" xlink:href="#DejaVuSans-30"/>
       <use x="127.246094" xlink:href="#DejaVuSans-30"/>
      </g>
     </g>
    </g>
    <g id="xtick_8">
     <g id="line2d_8">
      <g>
       <use style="stroke:#000000;stroke-width:0.8;" x="357.803746" xlink:href="#m51434f501d" y="307.584"/>
      </g>
     </g>
     <g id="text_8">
      <!-- 350 -->
      <g transform="translate(348.259996 322.182437)scale(0.1 -0.1)">
       <use xlink:href="#DejaVuSans-33"/>
       <use x="63.623047" xlink:href="#DejaVuSans-35"/>
       <use x="127.246094" xlink:href="#DejaVuSans-30"/>
      </g>
     </g>
    </g>
    <g id="xtick_9">
     <g id="line2d_9">
      <g>
       <use style="stroke:#000000;stroke-width:0.8;" x="398.487273" xlink:href="#m51434f501d" y="307.584"/>
      </g>
     </g>
     <g id="text_9">
      <!-- 400 -->
      <g transform="translate(388.943523 322.182437)scale(0.1 -0.1)">
       <defs>
        <path d="M 2419 4116 
L 825 1625 
L 2419 1625 
L 2419 4116 
z
M 2253 4666 
L 3047 4666 
L 3047 1625 
L 3713 1625 
L 3713 1100 
L 3047 1100 
L 3047 0 
L 2419 0 
L 2419 1100 
L 313 1100 
L 313 1709 
L 2253 4666 
z
" id="DejaVuSans-34" transform="scale(0.015625)"/>
       </defs>
       <use xlink:href="#DejaVuSans-34"/>
       <use x="63.623047" xlink:href="#DejaVuSans-30"/>
       <use x="127.246094" xlink:href="#DejaVuSans-30"/>
      </g>
     </g>
    </g>
    <g id="text_10">
     <!-- Epoch -->
     <g transform="translate(213.193594 339.659781)scale(0.15 -0.15)">
      <defs>
       <path d="M 628 4666 
L 3578 4666 
L 3578 4134 
L 1259 4134 
L 1259 2753 
L 3481 2753 
L 3481 2222 
L 1259 2222 
L 1259 531 
L 3634 531 
L 3634 0 
L 628 0 
L 628 4666 
z
" id="DejaVuSans-45" transform="scale(0.015625)"/>
       <path d="M 1159 525 
L 1159 -1331 
L 581 -1331 
L 581 3500 
L 1159 3500 
L 1159 2969 
Q 1341 3281 1617 3432 
Q 1894 3584 2278 3584 
Q 2916 3584 3314 3078 
Q 3713 2572 3713 1747 
Q 3713 922 3314 415 
Q 2916 -91 2278 -91 
Q 1894 -91 1617 61 
Q 1341 213 1159 525 
z
M 3116 1747 
Q 3116 2381 2855 2742 
Q 2594 3103 2138 3103 
Q 1681 3103 1420 2742 
Q 1159 2381 1159 1747 
Q 1159 1113 1420 752 
Q 1681 391 2138 391 
Q 2594 391 2855 752 
Q 3116 1113 3116 1747 
z
" id="DejaVuSans-70" transform="scale(0.015625)"/>
       <path d="M 1959 3097 
Q 1497 3097 1228 2736 
Q 959 2375 959 1747 
Q 959 1119 1226 758 
Q 1494 397 1959 397 
Q 2419 397 2687 759 
Q 2956 1122 2956 1747 
Q 2956 2369 2687 2733 
Q 2419 3097 1959 3097 
z
M 1959 3584 
Q 2709 3584 3137 3096 
Q 3566 2609 3566 1747 
Q 3566 888 3137 398 
Q 2709 -91 1959 -91 
Q 1206 -91 779 398 
Q 353 888 353 1747 
Q 353 2609 779 3096 
Q 1206 3584 1959 3584 
z
" id="DejaVuSans-6f" transform="scale(0.015625)"/>
       <path d="M 3122 3366 
L 3122 2828 
Q 2878 2963 2633 3030 
Q 2388 3097 2138 3097 
Q 1578 3097 1268 2742 
Q 959 2388 959 1747 
Q 959 1106 1268 751 
Q 1578 397 2138 397 
Q 2388 397 2633 464 
Q 2878 531 3122 666 
L 3122 134 
Q 2881 22 2623 -34 
Q 2366 -91 2075 -91 
Q 1284 -91 818 406 
Q 353 903 353 1747 
Q 353 2603 823 3093 
Q 1294 3584 2113 3584 
Q 2378 3584 2631 3529 
Q 2884 3475 3122 3366 
z
" id="DejaVuSans-63" transform="scale(0.015625)"/>
       <path d="M 3513 2113 
L 3513 0 
L 2938 0 
L 2938 2094 
Q 2938 2591 2744 2837 
Q 2550 3084 2163 3084 
Q 1697 3084 1428 2787 
Q 1159 2491 1159 1978 
L 1159 0 
L 581 0 
L 581 4863 
L 1159 4863 
L 1159 2956 
Q 1366 3272 1645 3428 
Q 1925 3584 2291 3584 
Q 2894 3584 3203 3211 
Q 3513 2838 3513 2113 
z
" id="DejaVuSans-68" transform="scale(0.015625)"/>
      </defs>
      <use xlink:href="#DejaVuSans-45"/>
      <use x="63.183594" xlink:href="#DejaVuSans-70"/>
      <use x="126.660156" xlink:href="#DejaVuSans-6f"/>
      <use x="187.841797" xlink:href="#DejaVuSans-63"/>
      <use x="242.822266" xlink:href="#DejaVuSans-68"/>
     </g>
    </g>
   </g>
   <g id="matplotlib.axis_2">
    <g id="ytick_1">
     <g id="line2d_10">
      <defs>
       <path d="M 0 0 
L -3.5 0 
" id="md4bee5130c" style="stroke:#000000;stroke-width:0.8;"/>
      </defs>
      <g>
       <use style="stroke:#000000;stroke-width:0.8;" x="57.6" xlink:href="#md4bee5130c" y="305.19525"/>
      </g>
     </g>
     <g id="text_11">
      <!-- 0.0 -->
      <g transform="translate(34.696875 308.994469)scale(0.1 -0.1)">
       <defs>
        <path d="M 684 794 
L 1344 794 
L 1344 0 
L 684 0 
L 684 794 
z
" id="DejaVuSans-2e" transform="scale(0.015625)"/>
       </defs>
       <use xlink:href="#DejaVuSans-30"/>
       <use x="63.623047" xlink:href="#DejaVuSans-2e"/>
       <use x="95.410156" xlink:href="#DejaVuSans-30"/>
      </g>
     </g>
    </g>
    <g id="ytick_2">
     <g id="line2d_11">
      <g>
       <use style="stroke:#000000;stroke-width:0.8;" x="57.6" xlink:href="#md4bee5130c" y="263.879134"/>
      </g>
     </g>
     <g id="text_12">
      <!-- 0.2 -->
      <g transform="translate(34.696875 267.678352)scale(0.1 -0.1)">
       <use xlink:href="#DejaVuSans-30"/>
       <use x="63.623047" xlink:href="#DejaVuSans-2e"/>
       <use x="95.410156" xlink:href="#DejaVuSans-32"/>
      </g>
     </g>
    </g>
    <g id="ytick_3">
     <g id="line2d_12">
      <g>
       <use style="stroke:#000000;stroke-width:0.8;" x="57.6" xlink:href="#md4bee5130c" y="222.563017"/>
      </g>
     </g>
     <g id="text_13">
      <!-- 0.4 -->
      <g transform="translate(34.696875 226.362236)scale(0.1 -0.1)">
       <use xlink:href="#DejaVuSans-30"/>
       <use x="63.623047" xlink:href="#DejaVuSans-2e"/>
       <use x="95.410156" xlink:href="#DejaVuSans-34"/>
      </g>
     </g>
    </g>
    <g id="ytick_4">
     <g id="line2d_13">
      <g>
       <use style="stroke:#000000;stroke-width:0.8;" x="57.6" xlink:href="#md4bee5130c" y="181.246901"/>
      </g>
     </g>
     <g id="text_14">
      <!-- 0.6 -->
      <g transform="translate(34.696875 185.046119)scale(0.1 -0.1)">
       <defs>
        <path d="M 2113 2584 
Q 1688 2584 1439 2293 
Q 1191 2003 1191 1497 
Q 1191 994 1439 701 
Q 1688 409 2113 409 
Q 2538 409 2786 701 
Q 3034 994 3034 1497 
Q 3034 2003 2786 2293 
Q 2538 2584 2113 2584 
z
M 3366 4563 
L 3366 3988 
Q 3128 4100 2886 4159 
Q 2644 4219 2406 4219 
Q 1781 4219 1451 3797 
Q 1122 3375 1075 2522 
Q 1259 2794 1537 2939 
Q 1816 3084 2150 3084 
Q 2853 3084 3261 2657 
Q 3669 2231 3669 1497 
Q 3669 778 3244 343 
Q 2819 -91 2113 -91 
Q 1303 -91 875 529 
Q 447 1150 447 2328 
Q 447 3434 972 4092 
Q 1497 4750 2381 4750 
Q 2619 4750 2861 4703 
Q 3103 4656 3366 4563 
z
" id="DejaVuSans-36" transform="scale(0.015625)"/>
       </defs>
       <use xlink:href="#DejaVuSans-30"/>
       <use x="63.623047" xlink:href="#DejaVuSans-2e"/>
       <use x="95.410156" xlink:href="#DejaVuSans-36"/>
      </g>
     </g>
    </g>
    <g id="ytick_5">
     <g id="line2d_14">
      <g>
       <use style="stroke:#000000;stroke-width:0.8;" x="57.6" xlink:href="#md4bee5130c" y="139.930784"/>
      </g>
     </g>
     <g id="text_15">
      <!-- 0.8 -->
      <g transform="translate(34.696875 143.730003)scale(0.1 -0.1)">
       <defs>
        <path d="M 2034 2216 
Q 1584 2216 1326 1975 
Q 1069 1734 1069 1313 
Q 1069 891 1326 650 
Q 1584 409 2034 409 
Q 2484 409 2743 651 
Q 3003 894 3003 1313 
Q 3003 1734 2745 1975 
Q 2488 2216 2034 2216 
z
M 1403 2484 
Q 997 2584 770 2862 
Q 544 3141 544 3541 
Q 544 4100 942 4425 
Q 1341 4750 2034 4750 
Q 2731 4750 3128 4425 
Q 3525 4100 3525 3541 
Q 3525 3141 3298 2862 
Q 3072 2584 2669 2484 
Q 3125 2378 3379 2068 
Q 3634 1759 3634 1313 
Q 3634 634 3220 271 
Q 2806 -91 2034 -91 
Q 1263 -91 848 271 
Q 434 634 434 1313 
Q 434 1759 690 2068 
Q 947 2378 1403 2484 
z
M 1172 3481 
Q 1172 3119 1398 2916 
Q 1625 2713 2034 2713 
Q 2441 2713 2670 2916 
Q 2900 3119 2900 3481 
Q 2900 3844 2670 4047 
Q 2441 4250 2034 4250 
Q 1625 4250 1398 4047 
Q 1172 3844 1172 3481 
z
" id="DejaVuSans-38" transform="scale(0.015625)"/>
       </defs>
       <use xlink:href="#DejaVuSans-30"/>
       <use x="63.623047" xlink:href="#DejaVuSans-2e"/>
       <use x="95.410156" xlink:href="#DejaVuSans-38"/>
      </g>
     </g>
    </g>
    <g id="ytick_6">
     <g id="line2d_15">
      <g>
       <use style="stroke:#000000;stroke-width:0.8;" x="57.6" xlink:href="#md4bee5130c" y="98.614668"/>
      </g>
     </g>
     <g id="text_16">
      <!-- 1.0 -->
      <g transform="translate(34.696875 102.413886)scale(0.1 -0.1)">
       <use xlink:href="#DejaVuSans-31"/>
       <use x="63.623047" xlink:href="#DejaVuSans-2e"/>
       <use x="95.410156" xlink:href="#DejaVuSans-30"/>
      </g>
     </g>
    </g>
    <g id="ytick_7">
     <g id="line2d_16">
      <g>
       <use style="stroke:#000000;stroke-width:0.8;" x="57.6" xlink:href="#md4bee5130c" y="57.298551"/>
      </g>
     </g>
     <g id="text_17">
      <!-- 1.2 -->
      <g transform="translate(34.696875 61.09777)scale(0.1 -0.1)">
       <use xlink:href="#DejaVuSans-31"/>
       <use x="63.623047" xlink:href="#DejaVuSans-2e"/>
       <use x="95.410156" xlink:href="#DejaVuSans-32"/>
      </g>
     </g>
    </g>
    <g id="text_18">
     <!-- Loss -->
     <g transform="translate(27.577344 190.978781)rotate(-90)scale(0.15 -0.15)">
      <defs>
       <path d="M 628 4666 
L 1259 4666 
L 1259 531 
L 3531 531 
L 3531 0 
L 628 0 
L 628 4666 
z
" id="DejaVuSans-4c" transform="scale(0.015625)"/>
       <path d="M 2834 3397 
L 2834 2853 
Q 2591 2978 2328 3040 
Q 2066 3103 1784 3103 
Q 1356 3103 1142 2972 
Q 928 2841 928 2578 
Q 928 2378 1081 2264 
Q 1234 2150 1697 2047 
L 1894 2003 
Q 2506 1872 2764 1633 
Q 3022 1394 3022 966 
Q 3022 478 2636 193 
Q 2250 -91 1575 -91 
Q 1294 -91 989 -36 
Q 684 19 347 128 
L 347 722 
Q 666 556 975 473 
Q 1284 391 1588 391 
Q 1994 391 2212 530 
Q 2431 669 2431 922 
Q 2431 1156 2273 1281 
Q 2116 1406 1581 1522 
L 1381 1569 
Q 847 1681 609 1914 
Q 372 2147 372 2553 
Q 372 3047 722 3315 
Q 1072 3584 1716 3584 
Q 2034 3584 2315 3537 
Q 2597 3491 2834 3397 
z
" id="DejaVuSans-73" transform="scale(0.015625)"/>
      </defs>
      <use xlink:href="#DejaVuSans-4c"/>
      <use x="53.962891" xlink:href="#DejaVuSans-6f"/>
      <use x="115.144531" xlink:href="#DejaVuSans-73"/>
      <use x="167.244141" xlink:href="#DejaVuSans-73"/>
     </g>
    </g>
   </g>
   <g id="line2d_17">
    <path clip-path="url(#pbc266841f1)" d="M 73.832727 216.341728 
L 74.646398 211.068422 
L 75.460068 215.652253 
L 76.273739 205.981794 
L 77.087409 214.689773 
L 77.90108 204.586793 
L 78.714751 208.906974 
L 79.528421 224.353158 
L 80.342092 219.89045 
L 81.155762 212.875327 
L 81.969433 207.372389 
L 82.783103 211.684128 
L 83.596774 214.82798 
L 84.410444 205.375019 
L 85.224115 211.741744 
L 86.037785 224.018141 
L 86.851456 207.777265 
L 87.665126 219.728899 
L 88.478797 215.7368 
L 89.292468 223.755052 
L 90.106138 215.192536 
L 90.919809 218.174419 
L 91.733479 208.413348 
L 93.36082 226.717201 
L 94.174491 224.959559 
L 94.988161 205.775661 
L 95.801832 219.948215 
L 96.615502 207.786001 
L 97.429173 215.847334 
L 98.242843 222.232659 
L 99.056514 211.038987 
L 99.870185 214.090839 
L 100.683855 211.948184 
L 101.497526 219.541674 
L 102.311196 231.122768 
L 103.124867 220.440025 
L 103.938537 216.98965 
L 104.752208 218.784056 
L 105.565878 215.673415 
L 106.379549 211.243413 
L 107.193219 202.170273 
L 108.00689 220.761911 
L 108.82056 214.161683 
L 110.447902 218.821851 
L 111.261572 220.569211 
L 112.075243 215.237198 
L 112.888913 211.157184 
L 113.702584 209.876582 
L 114.516254 217.732618 
L 115.329925 208.061576 
L 116.143595 217.172604 
L 116.957266 217.086787 
L 117.770936 212.840152 
L 118.584607 212.850557 
L 119.398278 236.0819 
L 120.211948 223.026363 
L 121.025619 224.450831 
L 121.839289 229.310096 
L 122.65296 221.143892 
L 123.46663 217.494143 
L 124.280301 217.34862 
L 125.093971 221.187823 
L 125.907642 221.217842 
L 126.721312 234.547352 
L 127.534983 224.185309 
L 128.348653 221.488844 
L 129.162324 215.110477 
L 129.975995 227.540626 
L 130.789665 236.11215 
L 131.603336 222.435095 
L 132.417006 232.424866 
L 133.230677 217.265499 
L 134.044347 226.63508 
L 134.858018 218.119971 
L 135.671688 227.592214 
L 136.485359 233.120063 
L 137.299029 220.991087 
L 138.1127 238.867362 
L 138.92637 236.072007 
L 139.740041 235.196411 
L 140.553712 236.926895 
L 141.367382 232.111335 
L 142.994723 239.584933 
L 143.808394 227.47307 
L 144.622064 236.858973 
L 145.435735 237.228445 
L 146.249405 235.968991 
L 147.063076 242.811689 
L 147.876746 232.238366 
L 148.690417 235.428787 
L 149.504087 244.541834 
L 150.317758 240.806624 
L 151.131429 231.331133 
L 151.945099 244.195924 
L 152.75877 244.558914 
L 153.57244 241.719844 
L 154.386111 246.136875 
L 155.199781 236.374434 
L 156.013452 253.204993 
L 156.827122 238.664593 
L 157.640793 233.878114 
L 158.454463 238.670042 
L 159.268134 245.767042 
L 160.081805 246.185314 
L 160.895475 242.531241 
L 161.709146 241.956529 
L 162.522816 243.360684 
L 163.336487 248.593754 
L 164.150157 250.2085 
L 164.963828 248.706261 
L 165.777498 249.946443 
L 166.591169 237.752821 
L 167.404839 252.953199 
L 168.21851 242.561318 
L 169.03218 238.110802 
L 169.845851 246.859514 
L 170.659522 245.011627 
L 171.473192 253.59633 
L 172.286863 251.236758 
L 173.100533 253.055979 
L 173.914204 244.63774 
L 174.727874 243.19335 
L 175.541545 247.370526 
L 176.355215 243.061395 
L 177.168886 249.028346 
L 177.982556 249.910923 
L 178.796227 244.772362 
L 179.609897 253.010793 
L 180.423568 254.240031 
L 181.237239 258.857313 
L 182.050909 246.332154 
L 182.86458 254.875584 
L 183.67825 260.719132 
L 184.491921 252.518719 
L 185.305591 255.415861 
L 186.119262 248.762599 
L 186.932932 257.734646 
L 187.746603 257.636501 
L 188.560273 258.135338 
L 189.373944 253.723283 
L 190.187614 257.652163 
L 191.001285 249.622959 
L 191.814956 252.175187 
L 192.628626 256.281989 
L 193.442297 255.743021 
L 194.255967 254.538435 
L 195.069638 257.748851 
L 195.883308 256.320536 
L 196.696979 259.233765 
L 197.510649 255.189591 
L 198.32432 249.56926 
L 199.13799 259.172942 
L 199.951661 262.743537 
L 200.765332 257.034554 
L 201.579002 258.670311 
L 202.392673 263.736563 
L 203.206343 258.245239 
L 204.020014 258.213207 
L 204.833684 259.834697 
L 205.647355 250.51922 
L 206.461025 262.986364 
L 207.274696 254.849388 
L 208.088366 258.329482 
L 208.902037 258.934106 
L 209.715707 261.341244 
L 210.529378 258.018068 
L 211.343049 256.081956 
L 212.156719 257.53716 
L 212.97039 252.877381 
L 213.78406 252.873063 
L 214.597731 270.442269 
L 215.411401 260.325791 
L 216.225072 256.849225 
L 217.038742 264.662691 
L 217.852413 261.177509 
L 218.666083 266.289879 
L 219.479754 258.200458 
L 220.293424 272.359026 
L 221.107095 252.781945 
L 221.920766 262.171019 
L 222.734436 263.793374 
L 223.548107 260.4522 
L 224.361777 258.395323 
L 225.175448 264.925786 
L 225.989118 260.220194 
L 226.802789 265.203707 
L 227.616459 255.526496 
L 228.43013 265.03815 
L 229.2438 270.240443 
L 230.057471 266.087442 
L 230.871141 273.239355 
L 231.684812 258.546385 
L 232.498483 272.134843 
L 233.312153 268.759553 
L 234.125824 267.079603 
L 234.939494 268.377247 
L 235.753165 259.197007 
L 236.566835 265.999943 
L 237.380506 269.293702 
L 238.194176 262.581734 
L 239.007847 269.164604 
L 239.821517 262.797612 
L 240.635188 266.979708 
L 241.448859 268.027251 
L 242.262529 264.834306 
L 243.0762 265.980418 
L 243.88987 269.687544 
L 244.703541 272.020553 
L 245.517211 280.631814 
L 246.330882 279.753717 
L 247.144552 269.264967 
L 247.958223 270.491761 
L 248.771893 260.145431 
L 249.585564 274.356868 
L 251.212905 269.020443 
L 252.026576 272.055816 
L 252.840246 265.28541 
L 253.653917 267.322022 
L 254.467587 268.293349 
L 255.281258 269.599416 
L 256.094928 273.178127 
L 256.908599 266.377671 
L 257.722269 279.785643 
L 258.53594 279.517513 
L 259.34961 281.013101 
L 260.163281 272.784641 
L 260.976951 274.046416 
L 261.790622 271.834295 
L 262.604293 281.123777 
L 263.417963 274.234525 
L 264.231634 279.141059 
L 265.045304 272.62988 
L 265.858975 278.616189 
L 266.672645 278.024541 
L 267.486316 278.505217 
L 268.299986 273.638772 
L 269.113657 284.367761 
L 269.927327 277.355498 
L 270.740998 271.71265 
L 271.554668 280.250434 
L 272.368339 275.087356 
L 273.18201 279.272714 
L 273.99568 275.931273 
L 274.809351 281.864536 
L 275.623021 273.642285 
L 276.436692 272.309216 
L 277.250362 273.970733 
L 278.064033 277.888239 
L 278.877703 271.152136 
L 279.691374 278.046683 
L 280.505044 276.039971 
L 281.318715 271.985259 
L 282.132386 278.494525 
L 282.946056 288.457399 
L 283.759727 277.637248 
L 284.573397 276.694597 
L 285.387068 277.541891 
L 286.200738 281.487006 
L 287.014409 283.729852 
L 287.828079 279.368552 
L 288.64175 274.177602 
L 289.45542 274.490557 
L 290.269091 279.431254 
L 291.082761 281.603779 
L 291.896432 277.651113 
L 293.523773 282.056327 
L 294.337444 284.828646 
L 295.151114 282.412214 
L 295.964785 280.833915 
L 296.778455 286.618071 
L 297.592126 280.718113 
L 298.405796 287.481165 
L 299.219467 280.864564 
L 300.033137 284.277701 
L 300.846808 282.363382 
L 301.660478 277.216709 
L 302.474149 277.46546 
L 303.28782 279.355898 
L 304.10149 286.125491 
L 304.915161 283.499919 
L 305.728831 281.367455 
L 306.542502 282.216427 
L 307.356172 285.17737 
L 308.169843 282.340066 
L 308.983513 283.031481 
L 309.797184 287.452786 
L 310.610854 279.973057 
L 311.424525 280.634187 
L 312.238195 278.141548 
L 313.051866 278.479457 
L 313.865537 278.968746 
L 314.679207 285.840512 
L 315.492878 283.299511 
L 316.306548 287.822583 
L 317.120219 278.60491 
L 317.933889 282.298897 
L 318.74756 285.471601 
L 319.56123 276.011941 
L 320.374901 286.328795 
L 321.188571 287.878843 
L 322.002242 280.413169 
L 322.815913 280.704153 
L 323.629583 281.232666 
L 324.443254 280.344926 
L 325.256924 284.763127 
L 326.070595 284.998572 
L 326.884265 284.260618 
L 327.697936 291.530146 
L 328.511606 287.176218 
L 329.325277 285.809006 
L 330.138947 286.714191 
L 330.952618 282.449819 
L 331.766288 287.803313 
L 332.579959 284.966741 
L 333.39363 284.997707 
L 334.2073 282.657576 
L 335.020971 279.770213 
L 335.834641 279.393609 
L 336.648312 288.555477 
L 337.461982 289.321994 
L 338.275653 280.591375 
L 339.089323 282.698492 
L 339.902994 282.090903 
L 340.716664 285.356662 
L 341.530335 287.859416 
L 342.344005 289.923711 
L 343.157676 286.600431 
L 343.971347 286.290258 
L 344.785017 283.794139 
L 345.598688 287.181789 
L 346.412358 285.313958 
L 347.226029 286.398139 
L 348.039699 281.95735 
L 348.85337 281.786103 
L 350.480711 290.514865 
L 351.294381 287.969979 
L 352.108052 283.583973 
L 352.921722 284.075481 
L 353.735393 288.335038 
L 354.549064 294.722937 
L 355.362734 292.254203 
L 356.176405 280.09321 
L 356.990075 284.860338 
L 357.803746 283.812225 
L 358.617416 285.084168 
L 359.431087 287.085708 
L 360.244757 279.38573 
L 361.058428 289.544224 
L 361.872098 285.465706 
L 362.685769 290.081658 
L 363.49944 284.350229 
L 364.31311 292.652475 
L 365.126781 285.218878 
L 365.940451 281.737248 
L 366.754122 287.116711 
L 367.567792 289.220026 
L 368.381463 281.271395 
L 369.195133 287.830672 
L 370.008804 287.02431 
L 370.822474 282.949859 
L 371.636145 286.292677 
L 372.449815 293.779666 
L 373.263486 287.903212 
L 374.077157 288.506243 
L 374.890827 287.813946 
L 375.704498 288.354703 
L 376.518168 288.463826 
L 377.331839 272.656223 
L 378.145509 288.577889 
L 378.95918 284.751672 
L 379.77285 295.488 
L 380.586521 288.223186 
L 381.400191 287.647041 
L 382.213862 277.222158 
L 383.027532 288.0566 
L 383.841203 284.564146 
L 384.654874 284.208576 
L 385.468544 288.806576 
L 386.282215 287.689479 
L 387.095885 277.928028 
L 387.909556 289.329883 
L 388.723226 294.746888 
L 389.536897 289.293662 
L 390.350567 279.52527 
L 391.164238 291.268325 
L 391.977908 282.348219 
L 392.791579 292.846185 
L 393.605249 287.056766 
L 395.232591 291.942035 
L 396.046261 286.184664 
L 396.859932 293.474001 
L 397.673602 288.867737 
L 398.487273 287.139474 
L 398.487273 287.139474 
" style="fill:none;stroke:#1f77b4;stroke-linecap:square;stroke-width:1.5;"/>
   </g>
   <g id="line2d_18">
    <path clip-path="url(#pbc266841f1)" d="M 73.832727 70.787751 
L 74.646398 68.707072 
L 75.460068 63.048895 
L 76.273739 59.974389 
L 77.087409 53.568 
L 77.90108 64.887034 
L 78.714751 56.474409 
L 79.528421 64.051494 
L 80.342092 68.766689 
L 81.155762 65.948158 
L 81.969433 65.734106 
L 82.783103 60.183673 
L 83.596774 68.745775 
L 85.224115 59.003995 
L 86.037785 62.812581 
L 86.851456 70.698164 
L 87.665126 69.490826 
L 88.478797 66.131069 
L 89.292468 65.737761 
L 90.106138 67.253005 
L 90.919809 68.231098 
L 91.733479 67.782941 
L 92.54715 72.693474 
L 93.36082 70.322562 
L 94.174491 64.670539 
L 94.988161 77.493874 
L 95.801832 71.785681 
L 96.615502 65.07977 
L 97.429173 65.337705 
L 98.242843 63.471625 
L 99.056514 76.619192 
L 99.870185 76.908197 
L 100.683855 60.377875 
L 101.497526 72.525635 
L 102.311196 66.982829 
L 103.124867 57.357383 
L 103.938537 61.610119 
L 104.752208 69.560551 
L 105.565878 61.511743 
L 106.379549 62.390754 
L 107.193219 61.194657 
L 108.00689 71.585323 
L 108.82056 68.639326 
L 109.634231 59.257414 
L 110.447902 62.738543 
L 111.261572 63.379149 
L 112.888913 72.871099 
L 113.702584 66.632501 
L 114.516254 57.919739 
L 115.329925 65.894627 
L 116.143595 72.124618 
L 116.957266 67.865296 
L 117.770936 64.612801 
L 118.584607 77.466892 
L 119.398278 75.879714 
L 120.211948 72.36445 
L 121.025619 80.653994 
L 121.839289 64.381196 
L 122.65296 79.373926 
L 123.46663 78.787127 
L 124.280301 80.591965 
L 125.093971 74.749184 
L 125.907642 79.052884 
L 126.721312 75.576062 
L 127.534983 82.37104 
L 128.348653 94.238821 
L 129.162324 78.624694 
L 129.975995 77.451127 
L 130.789665 84.798956 
L 131.603336 85.094489 
L 132.417006 87.332821 
L 133.230677 83.265391 
L 134.044347 91.685841 
L 134.858018 88.37828 
L 135.671688 92.797012 
L 136.485359 88.043523 
L 137.299029 90.054622 
L 138.1127 96.260071 
L 138.92637 95.200946 
L 139.740041 94.578309 
L 140.553712 89.599062 
L 141.367382 98.851272 
L 142.181053 93.453251 
L 142.994723 83.780276 
L 143.808394 94.929543 
L 144.622064 85.888461 
L 145.435735 88.000369 
L 146.249405 104.741434 
L 147.063076 101.603534 
L 147.876746 89.501491 
L 148.690417 98.337571 
L 149.504087 99.405602 
L 150.317758 101.963338 
L 151.131429 122.443638 
L 151.945099 107.601548 
L 152.75877 105.863333 
L 153.57244 75.492577 
L 154.386111 106.968888 
L 155.199781 110.167611 
L 156.013452 112.45062 
L 156.827122 115.700811 
L 157.640793 112.00836 
L 158.454463 110.658753 
L 159.268134 88.441118 
L 160.081805 93.724701 
L 160.895475 104.860766 
L 161.709146 110.812348 
L 162.522816 113.973862 
L 163.336487 109.974939 
L 164.150157 109.447318 
L 164.963828 106.157843 
L 165.777498 106.306463 
L 166.591169 103.397435 
L 167.404839 109.086536 
L 168.21851 98.899251 
L 169.03218 113.724414 
L 169.845851 114.500862 
L 170.659522 107.713654 
L 171.473192 104.151509 
L 172.286863 112.941079 
L 173.100533 115.536636 
L 173.914204 111.198674 
L 174.727874 119.034215 
L 175.541545 120.691192 
L 176.355215 120.241261 
L 177.168886 117.667829 
L 177.982556 116.195283 
L 178.796227 98.753626 
L 179.609897 115.700252 
L 180.423568 122.542397 
L 181.237239 116.330482 
L 182.050909 119.439001 
L 182.86458 108.62539 
L 183.67825 106.302978 
L 184.491921 123.377369 
L 185.305591 110.168572 
L 186.119262 125.631625 
L 186.932932 107.956469 
L 187.746603 121.844115 
L 188.560273 115.573678 
L 189.373944 119.783652 
L 190.187614 105.359143 
L 191.001285 118.897138 
L 191.814956 123.53686 
L 192.628626 126.25828 
L 193.442297 115.755512 
L 194.255967 120.626176 
L 195.069638 123.698591 
L 195.883308 134.954702 
L 196.696979 117.255083 
L 197.510649 127.045741 
L 198.32432 120.831637 
L 199.13799 118.035537 
L 199.951661 121.703072 
L 200.765332 118.314036 
L 201.579002 123.270391 
L 202.392673 97.677538 
L 203.206343 135.978703 
L 204.020014 127.293108 
L 204.833684 126.032733 
L 205.647355 137.445556 
L 207.274696 111.897987 
L 208.088366 119.933412 
L 209.715707 121.741153 
L 210.529378 123.285831 
L 211.343049 130.039301 
L 212.156719 122.570332 
L 212.97039 132.386941 
L 213.78406 123.869878 
L 214.597731 123.1814 
L 215.411401 132.481206 
L 216.225072 138.884482 
L 217.038742 109.059051 
L 217.852413 140.084228 
L 218.666083 119.774741 
L 219.479754 134.640339 
L 220.293424 125.68589 
L 221.107095 131.928408 
L 221.920766 136.308378 
L 222.734436 131.49042 
L 223.548107 131.811995 
L 224.361777 128.413057 
L 225.175448 143.931529 
L 225.989118 135.231264 
L 226.802789 133.220522 
L 227.616459 127.560006 
L 228.43013 137.513513 
L 229.2438 142.596288 
L 230.057471 122.750444 
L 230.871141 140.753982 
L 231.684812 121.851077 
L 232.498483 145.011287 
L 233.312153 141.812991 
L 234.939494 126.224324 
L 235.753165 123.447856 
L 236.566835 139.346499 
L 237.380506 124.413538 
L 238.194176 137.468964 
L 239.007847 140.942094 
L 239.821517 158.568761 
L 241.448859 131.777416 
L 242.262529 132.662375 
L 243.0762 162.67203 
L 243.88987 147.874227 
L 244.703541 130.472929 
L 245.517211 143.83558 
L 246.330882 137.26053 
L 247.144552 144.84751 
L 247.958223 134.331147 
L 248.771893 165.086308 
L 249.585564 145.940859 
L 250.399234 153.150354 
L 251.212905 144.434177 
L 252.026576 155.054247 
L 252.840246 150.366398 
L 253.653917 144.776835 
L 254.467587 148.22602 
L 255.281258 152.641165 
L 256.094928 160.938313 
L 256.908599 152.443056 
L 257.722269 147.620759 
L 259.34961 136.53765 
L 260.163281 155.170045 
L 260.976951 159.512268 
L 261.790622 138.919874 
L 262.604293 147.636025 
L 263.417963 141.57012 
L 264.231634 145.062384 
L 265.045304 121.208191 
L 265.858975 149.808853 
L 266.672645 139.545232 
L 267.486316 141.179068 
L 268.299986 161.324974 
L 269.113657 163.416668 
L 269.927327 155.084073 
L 270.740998 143.253283 
L 271.554668 162.992758 
L 272.368339 166.887132 
L 273.18201 156.193296 
L 273.99568 160.772511 
L 274.809351 131.801838 
L 275.623021 146.039661 
L 276.436692 165.996549 
L 277.250362 142.222942 
L 278.064033 154.787937 
L 278.877703 155.431017 
L 279.691374 139.738161 
L 281.318715 167.534122 
L 282.946056 145.845727 
L 283.759727 135.790865 
L 284.573397 138.612635 
L 285.387068 150.162998 
L 286.200738 153.697337 
L 287.014409 109.588737 
L 287.828079 139.126374 
L 288.64175 161.896677 
L 289.45542 147.889737 
L 290.269091 142.467673 
L 291.082761 149.85591 
L 291.896432 143.807209 
L 292.710103 156.067675 
L 293.523773 136.519989 
L 294.337444 145.574798 
L 295.151114 141.160476 
L 295.964785 159.574043 
L 296.778455 121.203692 
L 297.592126 150.12649 
L 298.405796 135.643046 
L 299.219467 152.395291 
L 300.033137 128.85323 
L 300.846808 148.472922 
L 301.660478 146.035348 
L 302.474149 164.39034 
L 304.10149 143.749025 
L 304.915161 139.696757 
L 305.728831 136.384675 
L 306.542502 148.942174 
L 307.356172 151.758498 
L 308.169843 140.545441 
L 308.983513 145.235617 
L 309.797184 151.215948 
L 310.610854 151.225128 
L 312.238195 166.568142 
L 313.051866 167.138416 
L 313.865537 134.815719 
L 314.679207 135.385611 
L 315.492878 141.962659 
L 316.306548 152.532476 
L 317.120219 149.526932 
L 317.933889 138.723228 
L 318.74756 161.266244 
L 319.56123 125.48853 
L 320.374901 129.416343 
L 321.188571 134.435312 
L 322.002242 147.679371 
L 322.815913 153.166504 
L 323.629583 149.328533 
L 324.443254 160.739037 
L 325.256924 152.486411 
L 326.070595 141.737342 
L 326.884265 139.356637 
L 327.697936 140.684627 
L 328.511606 147.010423 
L 329.325277 131.88063 
L 330.138947 133.070808 
L 330.952618 125.499714 
L 331.766288 139.370267 
L 332.579959 147.586851 
L 333.39363 143.864312 
L 334.2073 152.43753 
L 335.020971 128.458724 
L 335.834641 157.408326 
L 336.648312 160.188807 
L 338.275653 142.642185 
L 339.089323 139.124323 
L 339.902994 153.297663 
L 340.716664 146.047139 
L 341.530335 140.958723 
L 342.344005 161.486472 
L 343.157676 154.626397 
L 343.971347 142.83105 
L 344.785017 159.728023 
L 345.598688 144.116216 
L 346.412358 133.690092 
L 347.226029 152.476352 
L 348.039699 131.46331 
L 348.85337 147.457779 
L 349.66704 152.430949 
L 350.480711 124.99316 
L 351.294381 129.969564 
L 352.108052 151.355343 
L 352.921722 152.967932 
L 353.735393 162.285975 
L 354.549064 142.194382 
L 355.362734 138.776311 
L 356.176405 140.923904 
L 356.990075 168.789907 
L 357.803746 150.088791 
L 358.617416 143.662635 
L 359.431087 157.637976 
L 360.244757 148.952804 
L 361.058428 134.485857 
L 361.872098 154.406876 
L 362.685769 138.267428 
L 363.49944 114.640253 
L 364.31311 145.603353 
L 365.126781 147.042932 
L 365.940451 156.787079 
L 366.754122 142.902243 
L 367.567792 123.294575 
L 368.381463 152.005104 
L 369.195133 127.352764 
L 370.008804 132.976321 
L 370.822474 127.084823 
L 371.636145 134.198631 
L 372.449815 126.14643 
L 373.263486 129.28766 
L 374.890827 145.25472 
L 375.704498 150.621698 
L 376.518168 163.378973 
L 378.145509 125.987359 
L 378.95918 135.099926 
L 379.77285 122.891609 
L 380.586521 143.757626 
L 381.400191 124.087353 
L 382.213862 101.137801 
L 383.027532 150.036601 
L 383.841203 155.751486 
L 384.654874 117.581044 
L 385.468544 144.318294 
L 386.282215 144.007215 
L 387.095885 148.755274 
L 387.909556 159.127404 
L 388.723226 152.04417 
L 389.536897 124.777567 
L 390.350567 86.816109 
L 391.164238 154.104313 
L 391.977908 139.420805 
L 392.791579 145.494483 
L 393.605249 141.927658 
L 394.41892 129.658653 
L 395.232591 151.081288 
L 396.046261 141.322677 
L 396.859932 143.338267 
L 397.673602 141.150818 
L 398.487273 142.020522 
L 398.487273 142.020522 
" style="fill:none;stroke:#ff7f0e;stroke-linecap:square;stroke-width:1.5;"/>
   </g>
   <g id="patch_3">
    <path d="M 57.6 307.584 
L 57.6 41.472 
" style="fill:none;stroke:#000000;stroke-linecap:square;stroke-linejoin:miter;stroke-width:0.8;"/>
   </g>
   <g id="patch_4">
    <path d="M 414.72 307.584 
L 414.72 41.472 
" style="fill:none;stroke:#000000;stroke-linecap:square;stroke-linejoin:miter;stroke-width:0.8;"/>
   </g>
   <g id="patch_5">
    <path d="M 57.6 307.584 
L 414.72 307.584 
" style="fill:none;stroke:#000000;stroke-linecap:square;stroke-linejoin:miter;stroke-width:0.8;"/>
   </g>
   <g id="patch_6">
    <path d="M 57.6 41.472 
L 414.72 41.472 
" style="fill:none;stroke:#000000;stroke-linecap:square;stroke-linejoin:miter;stroke-width:0.8;"/>
   </g>
   <g id="legend_1">
    <g id="patch_7">
     <path d="M 303.845 78.82825 
L 407.72 78.82825 
Q 409.72 78.82825 409.72 76.82825 
L 409.72 48.472 
Q 409.72 46.472 407.72 46.472 
L 303.845 46.472 
Q 301.845 46.472 301.845 48.472 
L 301.845 76.82825 
Q 301.845 78.82825 303.845 78.82825 
z
" style="fill:#ffffff;opacity:0.8;stroke:#cccccc;stroke-linejoin:miter;"/>
    </g>
    <g id="line2d_19">
     <path d="M 305.845 54.570437 
L 325.845 54.570437 
" style="fill:none;stroke:#1f77b4;stroke-linecap:square;stroke-width:1.5;"/>
    </g>
    <g id="line2d_20"/>
    <g id="text_19">
     <!-- Train loss -->
     <g transform="translate(333.845 58.070437)scale(0.1 -0.1)">
      <defs>
       <path d="M -19 4666 
L 3928 4666 
L 3928 4134 
L 2272 4134 
L 2272 0 
L 1638 0 
L 1638 4134 
L -19 4134 
L -19 4666 
z
" id="DejaVuSans-54" transform="scale(0.015625)"/>
       <path d="M 2631 2963 
Q 2534 3019 2420 3045 
Q 2306 3072 2169 3072 
Q 1681 3072 1420 2755 
Q 1159 2438 1159 1844 
L 1159 0 
L 581 0 
L 581 3500 
L 1159 3500 
L 1159 2956 
Q 1341 3275 1631 3429 
Q 1922 3584 2338 3584 
Q 2397 3584 2469 3576 
Q 2541 3569 2628 3553 
L 2631 2963 
z
" id="DejaVuSans-72" transform="scale(0.015625)"/>
       <path d="M 2194 1759 
Q 1497 1759 1228 1600 
Q 959 1441 959 1056 
Q 959 750 1161 570 
Q 1363 391 1709 391 
Q 2188 391 2477 730 
Q 2766 1069 2766 1631 
L 2766 1759 
L 2194 1759 
z
M 3341 1997 
L 3341 0 
L 2766 0 
L 2766 531 
Q 2569 213 2275 61 
Q 1981 -91 1556 -91 
Q 1019 -91 701 211 
Q 384 513 384 1019 
Q 384 1609 779 1909 
Q 1175 2209 1959 2209 
L 2766 2209 
L 2766 2266 
Q 2766 2663 2505 2880 
Q 2244 3097 1772 3097 
Q 1472 3097 1187 3025 
Q 903 2953 641 2809 
L 641 3341 
Q 956 3463 1253 3523 
Q 1550 3584 1831 3584 
Q 2591 3584 2966 3190 
Q 3341 2797 3341 1997 
z
" id="DejaVuSans-61" transform="scale(0.015625)"/>
       <path d="M 603 3500 
L 1178 3500 
L 1178 0 
L 603 0 
L 603 3500 
z
M 603 4863 
L 1178 4863 
L 1178 4134 
L 603 4134 
L 603 4863 
z
" id="DejaVuSans-69" transform="scale(0.015625)"/>
       <path d="M 3513 2113 
L 3513 0 
L 2938 0 
L 2938 2094 
Q 2938 2591 2744 2837 
Q 2550 3084 2163 3084 
Q 1697 3084 1428 2787 
Q 1159 2491 1159 1978 
L 1159 0 
L 581 0 
L 581 3500 
L 1159 3500 
L 1159 2956 
Q 1366 3272 1645 3428 
Q 1925 3584 2291 3584 
Q 2894 3584 3203 3211 
Q 3513 2838 3513 2113 
z
" id="DejaVuSans-6e" transform="scale(0.015625)"/>
       <path id="DejaVuSans-20" transform="scale(0.015625)"/>
       <path d="M 603 4863 
L 1178 4863 
L 1178 0 
L 603 0 
L 603 4863 
z
" id="DejaVuSans-6c" transform="scale(0.015625)"/>
      </defs>
      <use xlink:href="#DejaVuSans-54"/>
      <use x="46.333984" xlink:href="#DejaVuSans-72"/>
      <use x="87.447266" xlink:href="#DejaVuSans-61"/>
      <use x="148.726562" xlink:href="#DejaVuSans-69"/>
      <use x="176.509766" xlink:href="#DejaVuSans-6e"/>
      <use x="239.888672" xlink:href="#DejaVuSans-20"/>
      <use x="271.675781" xlink:href="#DejaVuSans-6c"/>
      <use x="299.458984" xlink:href="#DejaVuSans-6f"/>
      <use x="360.640625" xlink:href="#DejaVuSans-73"/>
      <use x="412.740234" xlink:href="#DejaVuSans-73"/>
     </g>
    </g>
    <g id="line2d_21">
     <path d="M 305.845 69.248562 
L 325.845 69.248562 
" style="fill:none;stroke:#ff7f0e;stroke-linecap:square;stroke-width:1.5;"/>
    </g>
    <g id="line2d_22"/>
    <g id="text_20">
     <!-- Validation loss -->
     <g transform="translate(333.845 72.748562)scale(0.1 -0.1)">
      <defs>
       <path d="M 1831 0 
L 50 4666 
L 709 4666 
L 2188 738 
L 3669 4666 
L 4325 4666 
L 2547 0 
L 1831 0 
z
" id="DejaVuSans-56" transform="scale(0.015625)"/>
       <path d="M 2906 2969 
L 2906 4863 
L 3481 4863 
L 3481 0 
L 2906 0 
L 2906 525 
Q 2725 213 2448 61 
Q 2172 -91 1784 -91 
Q 1150 -91 751 415 
Q 353 922 353 1747 
Q 353 2572 751 3078 
Q 1150 3584 1784 3584 
Q 2172 3584 2448 3432 
Q 2725 3281 2906 2969 
z
M 947 1747 
Q 947 1113 1208 752 
Q 1469 391 1925 391 
Q 2381 391 2643 752 
Q 2906 1113 2906 1747 
Q 2906 2381 2643 2742 
Q 2381 3103 1925 3103 
Q 1469 3103 1208 2742 
Q 947 2381 947 1747 
z
" id="DejaVuSans-64" transform="scale(0.015625)"/>
       <path d="M 1172 4494 
L 1172 3500 
L 2356 3500 
L 2356 3053 
L 1172 3053 
L 1172 1153 
Q 1172 725 1289 603 
Q 1406 481 1766 481 
L 2356 481 
L 2356 0 
L 1766 0 
Q 1100 0 847 248 
Q 594 497 594 1153 
L 594 3053 
L 172 3053 
L 172 3500 
L 594 3500 
L 594 4494 
L 1172 4494 
z
" id="DejaVuSans-74" transform="scale(0.015625)"/>
      </defs>
      <use xlink:href="#DejaVuSans-56"/>
      <use x="60.658203" xlink:href="#DejaVuSans-61"/>
      <use x="121.9375" xlink:href="#DejaVuSans-6c"/>
      <use x="149.720703" xlink:href="#DejaVuSans-69"/>
      <use x="177.503906" xlink:href="#DejaVuSans-64"/>
      <use x="240.980469" xlink:href="#DejaVuSans-61"/>
      <use x="302.259766" xlink:href="#DejaVuSans-74"/>
      <use x="341.46875" xlink:href="#DejaVuSans-69"/>
      <use x="369.251953" xlink:href="#DejaVuSans-6f"/>
      <use x="430.433594" xlink:href="#DejaVuSans-6e"/>
      <use x="493.8125" xlink:href="#DejaVuSans-20"/>
      <use x="525.599609" xlink:href="#DejaVuSans-6c"/>
      <use x="553.382812" xlink:href="#DejaVuSans-6f"/>
      <use x="614.564453" xlink:href="#DejaVuSans-73"/>
      <use x="666.664062" xlink:href="#DejaVuSans-73"/>
     </g>
    </g>
   </g>
  </g>
 </g>
 <defs>
  <clipPath id="pbc266841f1">
   <rect height="266.112" width="357.12" x="57.6" y="41.472"/>
  </clipPath>
 </defs>
</svg>
