<?xml version="1.0" encoding="utf-8" standalone="no"?>
<!DOCTYPE svg PUBLIC "-//W3C//DTD SVG 1.1//EN"
  "http://www.w3.org/Graphics/SVG/1.1/DTD/svg11.dtd">
<svg height="345.6pt" version="1.1" viewBox="0 0 460.8 345.6" width="460.8pt" xmlns="http://www.w3.org/2000/svg" xmlns:xlink="http://www.w3.org/1999/xlink">
 <metadata>
  <rdf:RDF xmlns:cc="http://creativecommons.org/ns#" xmlns:dc="http://purl.org/dc/elements/1.1/" xmlns:rdf="http://www.w3.org/1999/02/22-rdf-syntax-ns#">
   <cc:Work>
    <dc:type rdf:resource="http://purl.org/dc/dcmitype/StillImage"/>
    <dc:date>2021-07-11T04:06:57.872116</dc:date>
    <dc:format>image/svg+xml</dc:format>
    <dc:creator>
     <cc:Agent>
      <dc:title>Matplotlib v3.4.2, https://matplotlib.org/</dc:title>
     </cc:Agent>
    </dc:creator>
   </cc:Work>
  </rdf:RDF>
 </metadata>
 <defs>
  <style type="text/css">*{stroke-linecap:butt;stroke-linejoin:round;}</style>
 </defs>
 <g id="figure_1">
  <g id="patch_1">
   <path d="M 0 345.6 
L 460.8 345.6 
L 460.8 0 
L 0 0 
z
" style="fill:#ffffff;"/>
  </g>
  <g id="axes_1">
   <g id="patch_2">
    <path d="M 57.6 307.584 
L 414.72 307.584 
L 414.72 41.472 
L 57.6 41.472 
z
" style="fill:#ffffff;"/>
   </g>
   <g id="matplotlib.axis_1">
    <g id="xtick_1">
     <g id="line2d_1">
      <defs>
       <path d="M 0 0 
L 0 3.5 
" id="m854efe2fa6" style="stroke:#000000;stroke-width:0.8;"/>
      </defs>
      <g>
       <use style="stroke:#000000;stroke-width:0.8;" x="73.019057" xlink:href="#m854efe2fa6" y="307.584"/>
      </g>
     </g>
     <g id="text_1">
      <!-- 0 -->
      <g transform="translate(69.837807 322.182437)scale(0.1 -0.1)">
       <defs>
        <path d="M 2034 4250 
Q 1547 4250 1301 3770 
Q 1056 3291 1056 2328 
Q 1056 1369 1301 889 
Q 1547 409 2034 409 
Q 2525 409 2770 889 
Q 3016 1369 3016 2328 
Q 3016 3291 2770 3770 
Q 2525 4250 2034 4250 
z
M 2034 4750 
Q 2819 4750 3233 4129 
Q 3647 3509 3647 2328 
Q 3647 1150 3233 529 
Q 2819 -91 2034 -91 
Q 1250 -91 836 529 
Q 422 1150 422 2328 
Q 422 3509 836 4129 
Q 1250 4750 2034 4750 
z
" id="DejaVuSans-30" transform="scale(0.015625)"/>
       </defs>
       <use xlink:href="#DejaVuSans-30"/>
      </g>
     </g>
    </g>
    <g id="xtick_2">
     <g id="line2d_2">
      <g>
       <use style="stroke:#000000;stroke-width:0.8;" x="113.702584" xlink:href="#m854efe2fa6" y="307.584"/>
      </g>
     </g>
     <g id="text_2">
      <!-- 50 -->
      <g transform="translate(107.340084 322.182437)scale(0.1 -0.1)">
       <defs>
        <path d="M 691 4666 
L 3169 4666 
L 3169 4134 
L 1269 4134 
L 1269 2991 
Q 1406 3038 1543 3061 
Q 1681 3084 1819 3084 
Q 2600 3084 3056 2656 
Q 3513 2228 3513 1497 
Q 3513 744 3044 326 
Q 2575 -91 1722 -91 
Q 1428 -91 1123 -41 
Q 819 9 494 109 
L 494 744 
Q 775 591 1075 516 
Q 1375 441 1709 441 
Q 2250 441 2565 725 
Q 2881 1009 2881 1497 
Q 2881 1984 2565 2268 
Q 2250 2553 1709 2553 
Q 1456 2553 1204 2497 
Q 953 2441 691 2322 
L 691 4666 
z
" id="DejaVuSans-35" transform="scale(0.015625)"/>
       </defs>
       <use xlink:href="#DejaVuSans-35"/>
       <use x="63.623047" xlink:href="#DejaVuSans-30"/>
      </g>
     </g>
    </g>
    <g id="xtick_3">
     <g id="line2d_3">
      <g>
       <use style="stroke:#000000;stroke-width:0.8;" x="154.386111" xlink:href="#m854efe2fa6" y="307.584"/>
      </g>
     </g>
     <g id="text_3">
      <!-- 100 -->
      <g transform="translate(144.842361 322.182437)scale(0.1 -0.1)">
       <defs>
        <path d="M 794 531 
L 1825 531 
L 1825 4091 
L 703 3866 
L 703 4441 
L 1819 4666 
L 2450 4666 
L 2450 531 
L 3481 531 
L 3481 0 
L 794 0 
L 794 531 
z
" id="DejaVuSans-31" transform="scale(0.015625)"/>
       </defs>
       <use xlink:href="#DejaVuSans-31"/>
       <use x="63.623047" xlink:href="#DejaVuSans-30"/>
       <use x="127.246094" xlink:href="#DejaVuSans-30"/>
      </g>
     </g>
    </g>
    <g id="xtick_4">
     <g id="line2d_4">
      <g>
       <use style="stroke:#000000;stroke-width:0.8;" x="195.069638" xlink:href="#m854efe2fa6" y="307.584"/>
      </g>
     </g>
     <g id="text_4">
      <!-- 150 -->
      <g transform="translate(185.525888 322.182437)scale(0.1 -0.1)">
       <use xlink:href="#DejaVuSans-31"/>
       <use x="63.623047" xlink:href="#DejaVuSans-35"/>
       <use x="127.246094" xlink:href="#DejaVuSans-30"/>
      </g>
     </g>
    </g>
    <g id="xtick_5">
     <g id="line2d_5">
      <g>
       <use style="stroke:#000000;stroke-width:0.8;" x="235.753165" xlink:href="#m854efe2fa6" y="307.584"/>
      </g>
     </g>
     <g id="text_5">
      <!-- 200 -->
      <g transform="translate(226.209415 322.182437)scale(0.1 -0.1)">
       <defs>
        <path d="M 1228 531 
L 3431 531 
L 3431 0 
L 469 0 
L 469 531 
Q 828 903 1448 1529 
Q 2069 2156 2228 2338 
Q 2531 2678 2651 2914 
Q 2772 3150 2772 3378 
Q 2772 3750 2511 3984 
Q 2250 4219 1831 4219 
Q 1534 4219 1204 4116 
Q 875 4013 500 3803 
L 500 4441 
Q 881 4594 1212 4672 
Q 1544 4750 1819 4750 
Q 2544 4750 2975 4387 
Q 3406 4025 3406 3419 
Q 3406 3131 3298 2873 
Q 3191 2616 2906 2266 
Q 2828 2175 2409 1742 
Q 1991 1309 1228 531 
z
" id="DejaVuSans-32" transform="scale(0.015625)"/>
       </defs>
       <use xlink:href="#DejaVuSans-32"/>
       <use x="63.623047" xlink:href="#DejaVuSans-30"/>
       <use x="127.246094" xlink:href="#DejaVuSans-30"/>
      </g>
     </g>
    </g>
    <g id="xtick_6">
     <g id="line2d_6">
      <g>
       <use style="stroke:#000000;stroke-width:0.8;" x="276.436692" xlink:href="#m854efe2fa6" y="307.584"/>
      </g>
     </g>
     <g id="text_6">
      <!-- 250 -->
      <g transform="translate(266.892942 322.182437)scale(0.1 -0.1)">
       <use xlink:href="#DejaVuSans-32"/>
       <use x="63.623047" xlink:href="#DejaVuSans-35"/>
       <use x="127.246094" xlink:href="#DejaVuSans-30"/>
      </g>
     </g>
    </g>
    <g id="xtick_7">
     <g id="line2d_7">
      <g>
       <use style="stroke:#000000;stroke-width:0.8;" x="317.120219" xlink:href="#m854efe2fa6" y="307.584"/>
      </g>
     </g>
     <g id="text_7">
      <!-- 300 -->
      <g transform="translate(307.576469 322.182437)scale(0.1 -0.1)">
       <defs>
        <path d="M 2597 2516 
Q 3050 2419 3304 2112 
Q 3559 1806 3559 1356 
Q 3559 666 3084 287 
Q 2609 -91 1734 -91 
Q 1441 -91 1130 -33 
Q 819 25 488 141 
L 488 750 
Q 750 597 1062 519 
Q 1375 441 1716 441 
Q 2309 441 2620 675 
Q 2931 909 2931 1356 
Q 2931 1769 2642 2001 
Q 2353 2234 1838 2234 
L 1294 2234 
L 1294 2753 
L 1863 2753 
Q 2328 2753 2575 2939 
Q 2822 3125 2822 3475 
Q 2822 3834 2567 4026 
Q 2313 4219 1838 4219 
Q 1578 4219 1281 4162 
Q 984 4106 628 3988 
L 628 4550 
Q 988 4650 1302 4700 
Q 1616 4750 1894 4750 
Q 2613 4750 3031 4423 
Q 3450 4097 3450 3541 
Q 3450 3153 3228 2886 
Q 3006 2619 2597 2516 
z
" id="DejaVuSans-33" transform="scale(0.015625)"/>
       </defs>
       <use xlink:href="#DejaVuSans-33"/>
       <use x="63.623047" xlink:href="#DejaVuSans-30"/>
       <use x="127.246094" xlink:href="#DejaVuSans-30"/>
      </g>
     </g>
    </g>
    <g id="xtick_8">
     <g id="line2d_8">
      <g>
       <use style="stroke:#000000;stroke-width:0.8;" x="357.803746" xlink:href="#m854efe2fa6" y="307.584"/>
      </g>
     </g>
     <g id="text_8">
      <!-- 350 -->
      <g transform="translate(348.259996 322.182437)scale(0.1 -0.1)">
       <use xlink:href="#DejaVuSans-33"/>
       <use x="63.623047" xlink:href="#DejaVuSans-35"/>
       <use x="127.246094" xlink:href="#DejaVuSans-30"/>
      </g>
     </g>
    </g>
    <g id="xtick_9">
     <g id="line2d_9">
      <g>
       <use style="stroke:#000000;stroke-width:0.8;" x="398.487273" xlink:href="#m854efe2fa6" y="307.584"/>
      </g>
     </g>
     <g id="text_9">
      <!-- 400 -->
      <g transform="translate(388.943523 322.182437)scale(0.1 -0.1)">
       <defs>
        <path d="M 2419 4116 
L 825 1625 
L 2419 1625 
L 2419 4116 
z
M 2253 4666 
L 3047 4666 
L 3047 1625 
L 3713 1625 
L 3713 1100 
L 3047 1100 
L 3047 0 
L 2419 0 
L 2419 1100 
L 313 1100 
L 313 1709 
L 2253 4666 
z
" id="DejaVuSans-34" transform="scale(0.015625)"/>
       </defs>
       <use xlink:href="#DejaVuSans-34"/>
       <use x="63.623047" xlink:href="#DejaVuSans-30"/>
       <use x="127.246094" xlink:href="#DejaVuSans-30"/>
      </g>
     </g>
    </g>
    <g id="text_10">
     <!-- Epoch -->
     <g transform="translate(213.193594 339.659781)scale(0.15 -0.15)">
      <defs>
       <path d="M 628 4666 
L 3578 4666 
L 3578 4134 
L 1259 4134 
L 1259 2753 
L 3481 2753 
L 3481 2222 
L 1259 2222 
L 1259 531 
L 3634 531 
L 3634 0 
L 628 0 
L 628 4666 
z
" id="DejaVuSans-45" transform="scale(0.015625)"/>
       <path d="M 1159 525 
L 1159 -1331 
L 581 -1331 
L 581 3500 
L 1159 3500 
L 1159 2969 
Q 1341 3281 1617 3432 
Q 1894 3584 2278 3584 
Q 2916 3584 3314 3078 
Q 3713 2572 3713 1747 
Q 3713 922 3314 415 
Q 2916 -91 2278 -91 
Q 1894 -91 1617 61 
Q 1341 213 1159 525 
z
M 3116 1747 
Q 3116 2381 2855 2742 
Q 2594 3103 2138 3103 
Q 1681 3103 1420 2742 
Q 1159 2381 1159 1747 
Q 1159 1113 1420 752 
Q 1681 391 2138 391 
Q 2594 391 2855 752 
Q 3116 1113 3116 1747 
z
" id="DejaVuSans-70" transform="scale(0.015625)"/>
       <path d="M 1959 3097 
Q 1497 3097 1228 2736 
Q 959 2375 959 1747 
Q 959 1119 1226 758 
Q 1494 397 1959 397 
Q 2419 397 2687 759 
Q 2956 1122 2956 1747 
Q 2956 2369 2687 2733 
Q 2419 3097 1959 3097 
z
M 1959 3584 
Q 2709 3584 3137 3096 
Q 3566 2609 3566 1747 
Q 3566 888 3137 398 
Q 2709 -91 1959 -91 
Q 1206 -91 779 398 
Q 353 888 353 1747 
Q 353 2609 779 3096 
Q 1206 3584 1959 3584 
z
" id="DejaVuSans-6f" transform="scale(0.015625)"/>
       <path d="M 3122 3366 
L 3122 2828 
Q 2878 2963 2633 3030 
Q 2388 3097 2138 3097 
Q 1578 3097 1268 2742 
Q 959 2388 959 1747 
Q 959 1106 1268 751 
Q 1578 397 2138 397 
Q 2388 397 2633 464 
Q 2878 531 3122 666 
L 3122 134 
Q 2881 22 2623 -34 
Q 2366 -91 2075 -91 
Q 1284 -91 818 406 
Q 353 903 353 1747 
Q 353 2603 823 3093 
Q 1294 3584 2113 3584 
Q 2378 3584 2631 3529 
Q 2884 3475 3122 3366 
z
" id="DejaVuSans-63" transform="scale(0.015625)"/>
       <path d="M 3513 2113 
L 3513 0 
L 2938 0 
L 2938 2094 
Q 2938 2591 2744 2837 
Q 2550 3084 2163 3084 
Q 1697 3084 1428 2787 
Q 1159 2491 1159 1978 
L 1159 0 
L 581 0 
L 581 4863 
L 1159 4863 
L 1159 2956 
Q 1366 3272 1645 3428 
Q 1925 3584 2291 3584 
Q 2894 3584 3203 3211 
Q 3513 2838 3513 2113 
z
" id="DejaVuSans-68" transform="scale(0.015625)"/>
      </defs>
      <use xlink:href="#DejaVuSans-45"/>
      <use x="63.183594" xlink:href="#DejaVuSans-70"/>
      <use x="126.660156" xlink:href="#DejaVuSans-6f"/>
      <use x="187.841797" xlink:href="#DejaVuSans-63"/>
      <use x="242.822266" xlink:href="#DejaVuSans-68"/>
     </g>
    </g>
   </g>
   <g id="matplotlib.axis_2">
    <g id="ytick_1">
     <g id="line2d_10">
      <defs>
       <path d="M 0 0 
L -3.5 0 
" id="mad6260f387" style="stroke:#000000;stroke-width:0.8;"/>
      </defs>
      <g>
       <use style="stroke:#000000;stroke-width:0.8;" x="57.6" xlink:href="#mad6260f387" y="296.195557"/>
      </g>
     </g>
     <g id="text_11">
      <!-- 0.0 -->
      <g transform="translate(34.696875 299.994776)scale(0.1 -0.1)">
       <defs>
        <path d="M 684 794 
L 1344 794 
L 1344 0 
L 684 0 
L 684 794 
z
" id="DejaVuSans-2e" transform="scale(0.015625)"/>
       </defs>
       <use xlink:href="#DejaVuSans-30"/>
       <use x="63.623047" xlink:href="#DejaVuSans-2e"/>
       <use x="95.410156" xlink:href="#DejaVuSans-30"/>
      </g>
     </g>
    </g>
    <g id="ytick_2">
     <g id="line2d_11">
      <g>
       <use style="stroke:#000000;stroke-width:0.8;" x="57.6" xlink:href="#mad6260f387" y="238.423711"/>
      </g>
     </g>
     <g id="text_12">
      <!-- 0.5 -->
      <g transform="translate(34.696875 242.22293)scale(0.1 -0.1)">
       <use xlink:href="#DejaVuSans-30"/>
       <use x="63.623047" xlink:href="#DejaVuSans-2e"/>
       <use x="95.410156" xlink:href="#DejaVuSans-35"/>
      </g>
     </g>
    </g>
    <g id="ytick_3">
     <g id="line2d_12">
      <g>
       <use style="stroke:#000000;stroke-width:0.8;" x="57.6" xlink:href="#mad6260f387" y="180.651866"/>
      </g>
     </g>
     <g id="text_13">
      <!-- 1.0 -->
      <g transform="translate(34.696875 184.451084)scale(0.1 -0.1)">
       <use xlink:href="#DejaVuSans-31"/>
       <use x="63.623047" xlink:href="#DejaVuSans-2e"/>
       <use x="95.410156" xlink:href="#DejaVuSans-30"/>
      </g>
     </g>
    </g>
    <g id="ytick_4">
     <g id="line2d_13">
      <g>
       <use style="stroke:#000000;stroke-width:0.8;" x="57.6" xlink:href="#mad6260f387" y="122.88002"/>
      </g>
     </g>
     <g id="text_14">
      <!-- 1.5 -->
      <g transform="translate(34.696875 126.679239)scale(0.1 -0.1)">
       <use xlink:href="#DejaVuSans-31"/>
       <use x="63.623047" xlink:href="#DejaVuSans-2e"/>
       <use x="95.410156" xlink:href="#DejaVuSans-35"/>
      </g>
     </g>
    </g>
    <g id="ytick_5">
     <g id="line2d_14">
      <g>
       <use style="stroke:#000000;stroke-width:0.8;" x="57.6" xlink:href="#mad6260f387" y="65.108174"/>
      </g>
     </g>
     <g id="text_15">
      <!-- 2.0 -->
      <g transform="translate(34.696875 68.907393)scale(0.1 -0.1)">
       <use xlink:href="#DejaVuSans-32"/>
       <use x="63.623047" xlink:href="#DejaVuSans-2e"/>
       <use x="95.410156" xlink:href="#DejaVuSans-30"/>
      </g>
     </g>
    </g>
    <g id="text_16">
     <!-- Loss -->
     <g transform="translate(27.577344 190.978781)rotate(-90)scale(0.15 -0.15)">
      <defs>
       <path d="M 628 4666 
L 1259 4666 
L 1259 531 
L 3531 531 
L 3531 0 
L 628 0 
L 628 4666 
z
" id="DejaVuSans-4c" transform="scale(0.015625)"/>
       <path d="M 2834 3397 
L 2834 2853 
Q 2591 2978 2328 3040 
Q 2066 3103 1784 3103 
Q 1356 3103 1142 2972 
Q 928 2841 928 2578 
Q 928 2378 1081 2264 
Q 1234 2150 1697 2047 
L 1894 2003 
Q 2506 1872 2764 1633 
Q 3022 1394 3022 966 
Q 3022 478 2636 193 
Q 2250 -91 1575 -91 
Q 1294 -91 989 -36 
Q 684 19 347 128 
L 347 722 
Q 666 556 975 473 
Q 1284 391 1588 391 
Q 1994 391 2212 530 
Q 2431 669 2431 922 
Q 2431 1156 2273 1281 
Q 2116 1406 1581 1522 
L 1381 1569 
Q 847 1681 609 1914 
Q 372 2147 372 2553 
Q 372 3047 722 3315 
Q 1072 3584 1716 3584 
Q 2034 3584 2315 3537 
Q 2597 3491 2834 3397 
z
" id="DejaVuSans-73" transform="scale(0.015625)"/>
      </defs>
      <use xlink:href="#DejaVuSans-4c"/>
      <use x="53.962891" xlink:href="#DejaVuSans-6f"/>
      <use x="115.144531" xlink:href="#DejaVuSans-73"/>
      <use x="167.244141" xlink:href="#DejaVuSans-73"/>
     </g>
    </g>
   </g>
   <g id="line2d_15">
    <path clip-path="url(#pdded9cd330)" d="M 73.832727 244.120973 
L 74.646398 246.702693 
L 75.460068 246.52938 
L 76.273739 249.411729 
L 77.087409 244.833265 
L 77.90108 249.170326 
L 78.714751 241.480374 
L 79.528421 245.379523 
L 80.342092 244.735188 
L 81.155762 248.401895 
L 81.969433 246.208359 
L 82.783103 246.430639 
L 83.596774 248.020435 
L 84.410444 241.81581 
L 85.224115 245.992269 
L 86.037785 242.452458 
L 86.851456 248.522888 
L 87.665126 243.782207 
L 88.478797 245.38789 
L 89.292468 248.879355 
L 90.106138 237.983119 
L 90.919809 239.72844 
L 91.733479 248.292992 
L 92.54715 245.033569 
L 93.36082 244.780144 
L 94.174491 248.177512 
L 94.988161 249.161369 
L 95.801832 249.86388 
L 96.615502 247.566914 
L 97.429173 249.821975 
L 98.242843 243.950276 
L 99.056514 247.242299 
L 99.870185 251.897271 
L 100.683855 241.011853 
L 101.497526 249.587824 
L 102.311196 242.556113 
L 103.124867 252.077219 
L 103.938537 244.218742 
L 104.752208 245.364565 
L 105.565878 247.346998 
L 106.379549 247.442726 
L 107.193219 255.627629 
L 108.00689 256.112829 
L 108.82056 253.827558 
L 109.634231 243.482552 
L 110.447902 246.617651 
L 111.261572 254.292156 
L 112.075243 248.417587 
L 112.888913 254.378506 
L 113.702584 249.138384 
L 114.516254 258.868277 
L 115.329925 251.50023 
L 116.143595 256.785672 
L 116.957266 252.22786 
L 117.770936 252.649073 
L 118.584607 259.383117 
L 119.398278 255.63191 
L 120.211948 256.719202 
L 121.025619 258.468161 
L 121.839289 259.832059 
L 122.65296 258.945248 
L 123.46663 252.691422 
L 124.280301 253.402272 
L 125.093971 258.36041 
L 125.907642 261.9059 
L 126.721312 259.82833 
L 127.534983 255.622965 
L 128.348653 262.164308 
L 129.162324 262.857728 
L 129.975995 262.629532 
L 130.789665 260.116571 
L 131.603336 260.009908 
L 133.230677 263.49179 
L 134.044347 261.650018 
L 134.858018 265.148606 
L 135.671688 261.460807 
L 136.485359 265.703294 
L 137.299029 259.987908 
L 138.1127 262.025324 
L 138.92637 263.423112 
L 140.553712 265.438275 
L 141.367382 264.868099 
L 142.181053 263.150487 
L 142.994723 270.219986 
L 143.808394 269.111957 
L 144.622064 267.545825 
L 145.435735 263.749124 
L 146.249405 268.861459 
L 147.063076 266.509841 
L 147.876746 265.372742 
L 148.690417 271.862852 
L 149.504087 268.970118 
L 150.317758 271.994982 
L 151.131429 268.533288 
L 151.945099 268.284253 
L 152.75877 267.39375 
L 153.57244 268.850324 
L 154.386111 266.755308 
L 155.199781 268.479862 
L 156.013452 269.750781 
L 156.827122 268.105422 
L 157.640793 267.859839 
L 158.454463 272.884672 
L 159.268134 273.818565 
L 160.081805 271.075353 
L 160.895475 270.644633 
L 161.709146 271.721913 
L 162.522816 274.699883 
L 163.336487 274.806233 
L 164.150157 274.595877 
L 164.963828 271.972362 
L 165.777498 275.415518 
L 166.591169 273.931357 
L 167.404839 276.676392 
L 168.21851 273.089883 
L 169.03218 273.806797 
L 169.845851 275.680023 
L 170.659522 276.124783 
L 171.473192 272.76172 
L 172.286863 276.961354 
L 173.100533 279.349874 
L 173.914204 279.571398 
L 174.727874 274.20392 
L 175.541545 283.111016 
L 176.355215 278.551562 
L 177.168886 276.942205 
L 177.982556 281.02197 
L 178.796227 277.116175 
L 179.609897 277.839875 
L 180.423568 281.275999 
L 181.237239 281.47902 
L 182.050909 282.170516 
L 182.86458 279.128374 
L 183.67825 285.138707 
L 184.491921 280.314359 
L 185.305591 277.692103 
L 186.119262 279.405355 
L 186.932932 282.045199 
L 187.746603 281.179706 
L 188.560273 277.934654 
L 189.373944 280.594611 
L 190.187614 278.59185 
L 191.001285 284.452066 
L 191.814956 286.518454 
L 192.628626 285.712491 
L 193.442297 282.672719 
L 194.255967 286.039785 
L 195.069638 285.314107 
L 195.883308 283.225733 
L 196.696979 283.764725 
L 197.510649 283.57872 
L 199.13799 286.546051 
L 199.951661 286.634207 
L 200.765332 286.986237 
L 201.579002 286.837361 
L 202.392673 283.94076 
L 203.206343 288.877967 
L 204.020014 286.071685 
L 204.833684 286.675788 
L 205.647355 285.33147 
L 206.461025 283.422629 
L 207.274696 283.347032 
L 208.088366 285.220011 
L 208.902037 285.178078 
L 209.715707 283.95325 
L 210.529378 286.244622 
L 211.343049 287.617378 
L 212.97039 288.040074 
L 213.78406 285.281406 
L 214.597731 288.739188 
L 215.411401 289.615232 
L 216.225072 287.967434 
L 217.038742 287.164849 
L 217.852413 287.663012 
L 218.666083 288.433426 
L 219.479754 288.676775 
L 220.293424 289.663583 
L 221.107095 288.234294 
L 221.920766 282.556096 
L 222.734436 281.439332 
L 223.548107 287.929055 
L 224.361777 289.000593 
L 225.175448 287.522185 
L 225.989118 288.457127 
L 226.802789 288.916141 
L 227.616459 291.91929 
L 228.43013 288.841006 
L 229.2438 291.669115 
L 230.057471 289.290949 
L 230.871141 287.747602 
L 231.684812 291.21147 
L 232.498483 291.587819 
L 233.312153 291.747085 
L 234.125824 292.460829 
L 234.939494 288.965234 
L 235.753165 286.045135 
L 236.566835 285.927031 
L 237.380506 289.708252 
L 238.194176 288.840388 
L 239.821517 290.179153 
L 240.635188 287.224763 
L 241.448859 290.785786 
L 242.262529 291.150355 
L 243.0762 290.241616 
L 243.88987 290.108535 
L 244.703541 291.488273 
L 245.517211 291.679039 
L 246.330882 291.291045 
L 247.144552 289.983091 
L 248.771893 289.386062 
L 249.585564 291.189488 
L 250.399234 291.348975 
L 251.212905 292.662537 
L 252.026576 290.007951 
L 252.840246 291.096299 
L 253.653917 290.895442 
L 254.467587 292.752324 
L 255.281258 290.642156 
L 256.094928 288.036451 
L 256.908599 293.196263 
L 257.722269 288.57566 
L 258.53594 288.7029 
L 259.34961 291.23267 
L 260.163281 289.314468 
L 260.976951 290.098282 
L 261.790622 289.714391 
L 262.604293 292.232554 
L 263.417963 291.296965 
L 264.231634 291.662318 
L 265.045304 292.52499 
L 265.858975 293.607504 
L 266.672645 291.192437 
L 267.486316 292.586411 
L 268.299986 292.66318 
L 269.113657 293.198607 
L 269.927327 289.09446 
L 270.740998 290.844371 
L 271.554668 291.799684 
L 272.368339 290.620917 
L 273.18201 291.227545 
L 273.99568 292.947288 
L 274.809351 293.162448 
L 275.623021 293.054225 
L 276.436692 292.735651 
L 278.064033 290.292484 
L 278.877703 290.218038 
L 279.691374 292.024474 
L 280.505044 294.819609 
L 281.318715 293.370585 
L 282.132386 290.206534 
L 282.946056 285.423485 
L 283.759727 292.30277 
L 284.573397 287.151749 
L 285.387068 292.521385 
L 286.200738 290.377158 
L 287.014409 293.367321 
L 287.828079 291.286665 
L 288.64175 293.347867 
L 289.45542 292.158039 
L 290.269091 290.707784 
L 291.082761 293.468143 
L 291.896432 294.118619 
L 292.710103 292.193438 
L 293.523773 291.729852 
L 294.337444 289.777223 
L 295.151114 289.91993 
L 295.964785 294.080966 
L 296.778455 294.035336 
L 297.592126 294.231094 
L 298.405796 292.882829 
L 299.219467 291.869684 
L 300.033137 289.768916 
L 300.846808 293.374359 
L 301.660478 291.73908 
L 303.28782 294.487169 
L 304.915161 291.701614 
L 305.728831 294.169336 
L 306.542502 290.296761 
L 307.356172 288.354863 
L 308.169843 293.70089 
L 308.983513 294.365461 
L 309.797184 291.193114 
L 310.610854 293.114017 
L 311.424525 293.288784 
L 312.238195 291.638173 
L 313.051866 286.573293 
L 313.865537 293.944467 
L 314.679207 293.694322 
L 315.492878 294.059401 
L 316.306548 294.572822 
L 317.120219 291.969299 
L 317.933889 291.145738 
L 318.74756 293.146314 
L 319.56123 294.225295 
L 320.374901 295.111979 
L 321.188571 295.320384 
L 322.002242 292.924678 
L 322.815913 292.022516 
L 323.629583 293.493501 
L 324.443254 293.247202 
L 325.256924 293.151607 
L 326.070595 295.21944 
L 328.511606 292.177533 
L 329.325277 293.744257 
L 330.138947 292.802479 
L 330.952618 292.384504 
L 331.766288 290.211771 
L 332.579959 293.253705 
L 333.39363 292.214802 
L 334.2073 294.792015 
L 335.020971 292.372517 
L 335.834641 294.243514 
L 336.648312 293.423391 
L 337.461982 294.322287 
L 339.089323 290.090294 
L 339.902994 291.764955 
L 340.716664 294.49976 
L 341.530335 294.286201 
L 342.344005 294.52094 
L 343.157676 291.691668 
L 343.971347 292.205153 
L 344.785017 294.126307 
L 345.598688 293.049165 
L 346.412358 292.841939 
L 347.226029 293.844741 
L 348.039699 291.811576 
L 348.85337 293.174894 
L 349.66704 293.048154 
L 351.294381 293.118819 
L 352.921722 292.945155 
L 353.735393 291.171699 
L 354.549064 294.006732 
L 355.362734 294.517423 
L 356.176405 294.256014 
L 356.990075 294.885327 
L 357.803746 293.685181 
L 358.617416 293.207603 
L 359.431087 294.135072 
L 360.244757 292.727098 
L 361.058428 292.940683 
L 361.872098 291.324801 
L 362.685769 294.444942 
L 363.49944 293.700138 
L 364.31311 295.052308 
L 365.126781 292.978069 
L 365.940451 294.194191 
L 366.754122 294.716417 
L 367.567792 290.00131 
L 368.381463 289.877628 
L 369.195133 292.942225 
L 370.008804 294.810907 
L 370.822474 294.968616 
L 371.636145 293.901672 
L 372.449815 292.323086 
L 373.263486 292.02134 
L 374.077157 291.874005 
L 374.890827 292.492499 
L 375.704498 293.87114 
L 376.518168 293.606788 
L 377.331839 294.959852 
L 378.145509 293.884927 
L 378.95918 294.251301 
L 379.77285 293.300896 
L 380.586521 294.446874 
L 381.400191 294.484173 
L 382.213862 293.865992 
L 383.027532 292.425375 
L 383.841203 293.735651 
L 384.654874 294.33053 
L 386.282215 290.465764 
L 387.095885 292.319378 
L 387.909556 289.112284 
L 388.723226 292.168978 
L 389.536897 293.684413 
L 390.350567 293.355653 
L 391.164238 294.364208 
L 392.791579 292.542645 
L 393.605249 293.134397 
L 394.41892 294.193669 
L 396.046261 293.456091 
L 396.859932 295.488 
L 397.673602 291.565573 
L 398.487273 290.421042 
L 398.487273 290.421042 
" style="fill:none;stroke:#1f77b4;stroke-linecap:square;stroke-width:1.5;"/>
   </g>
   <g id="line2d_16">
    <path clip-path="url(#pdded9cd330)" d="M 73.832727 272.197021 
L 74.646398 162.431746 
L 75.460068 278.149863 
L 76.273739 195.917665 
L 77.087409 162.777557 
L 77.90108 162.983927 
L 78.714751 129.755142 
L 79.528421 108.623122 
L 80.342092 162.903503 
L 81.155762 129.657832 
L 81.969433 163.000855 
L 82.783103 79.706839 
L 83.596774 70.521322 
L 84.410444 163.019523 
L 85.224115 63.069436 
L 86.037785 229.642501 
L 88.478797 129.438228 
L 89.292468 233.024829 
L 90.106138 163.064884 
L 91.733479 96.586763 
L 92.54715 190.589 
L 93.36082 163.055797 
L 94.174491 93.798436 
L 94.988161 213.028821 
L 95.801832 127.860917 
L 96.615502 196.491635 
L 97.429173 146.775195 
L 98.242843 163.469347 
L 99.056514 196.854383 
L 99.870185 163.925448 
L 100.683855 164.880722 
L 101.497526 148.4999 
L 102.311196 67.627692 
L 103.124867 101.824898 
L 103.938537 237.709886 
L 105.565878 106.46913 
L 106.379549 168.38874 
L 107.193219 212.03199 
L 108.00689 82.838066 
L 108.82056 53.568 
L 109.634231 274.086631 
L 110.447902 177.08827 
L 111.261572 176.505573 
L 112.075243 132.618854 
L 112.888913 111.249215 
L 113.702584 196.166715 
L 114.516254 211.430305 
L 115.329925 184.213258 
L 116.143595 185.276317 
L 116.957266 186.119257 
L 117.770936 185.884993 
L 118.584607 186.61325 
L 119.398278 241.26917 
L 120.211948 104.325873 
L 121.025619 241.097773 
L 122.65296 241.087991 
L 123.46663 269.779479 
L 124.280301 228.90103 
L 125.093971 143.429783 
L 125.907642 187.341384 
L 126.721312 190.090712 
L 127.534983 188.307731 
L 128.348653 180.469759 
L 129.162324 231.808788 
L 129.975995 91.473246 
L 130.789665 191.984235 
L 131.603336 168.620755 
L 132.417006 170.207685 
L 133.230677 190.225738 
L 134.044347 117.729314 
L 134.858018 141.344085 
L 135.671688 121.542859 
L 136.485359 194.460975 
L 137.299029 206.121258 
L 138.1127 137.308174 
L 138.92637 281.35869 
L 139.740041 199.948916 
L 140.553712 198.259739 
L 141.367382 239.78388 
L 142.181053 271.390842 
L 142.994723 143.343589 
L 143.808394 239.680406 
L 144.622064 99.70665 
L 145.435735 235.478033 
L 146.249405 141.887782 
L 147.063076 181.224446 
L 147.876746 202.744163 
L 148.690417 200.702647 
L 149.504087 135.203222 
L 151.131429 171.327499 
L 151.945099 273.213848 
L 152.75877 257.117054 
L 153.57244 121.025819 
L 154.386111 202.434636 
L 155.199781 271.789146 
L 156.013452 172.651967 
L 156.827122 135.105622 
L 157.640793 199.326446 
L 158.454463 203.94757 
L 159.268134 177.923267 
L 160.081805 205.43572 
L 160.895475 215.860183 
L 161.709146 206.48776 
L 162.522816 294.660846 
L 163.336487 213.795075 
L 164.150157 248.553544 
L 164.963828 252.183786 
L 165.777498 228.310655 
L 166.591169 240.254786 
L 167.404839 257.093113 
L 168.21851 260.137181 
L 169.03218 204.650682 
L 169.845851 186.965071 
L 170.659522 258.487357 
L 171.473192 210.342159 
L 172.286863 130.934836 
L 173.100533 201.784383 
L 173.914204 262.140993 
L 174.727874 141.363156 
L 175.541545 140.185216 
L 176.355215 272.357001 
L 177.168886 263.009328 
L 177.982556 289.845905 
L 178.796227 253.434733 
L 179.609897 229.844596 
L 180.423568 102.752293 
L 181.237239 173.208188 
L 182.050909 177.225144 
L 182.86458 211.32425 
L 183.67825 199.833259 
L 184.491921 268.628224 
L 185.305591 163.358476 
L 186.119262 181.995842 
L 186.932932 107.281149 
L 187.746603 204.583205 
L 188.560273 234.160238 
L 189.373944 252.043428 
L 190.187614 116.856444 
L 191.001285 282.341648 
L 191.814956 155.593195 
L 192.628626 137.230096 
L 193.442297 187.938083 
L 194.255967 165.849884 
L 195.069638 179.221077 
L 195.883308 162.999154 
L 196.696979 279.434465 
L 197.510649 176.490354 
L 199.13799 272.984144 
L 199.951661 240.326437 
L 200.765332 197.896531 
L 201.579002 132.217944 
L 202.392673 175.652241 
L 203.206343 206.425765 
L 204.020014 179.800974 
L 204.833684 192.317377 
L 205.647355 187.893573 
L 206.461025 186.1923 
L 207.274696 207.326109 
L 208.088366 289.042471 
L 208.902037 208.796872 
L 209.715707 250.229627 
L 210.529378 212.340198 
L 211.343049 100.375698 
L 212.156719 136.384279 
L 212.97039 213.166962 
L 213.78406 189.924414 
L 214.597731 157.80421 
L 215.411401 265.235084 
L 216.225072 220.156678 
L 217.038742 207.291057 
L 217.852413 208.240158 
L 218.666083 205.558619 
L 219.479754 142.46877 
L 220.293424 186.831549 
L 221.107095 209.652132 
L 221.920766 195.175049 
L 222.734436 279.629261 
L 223.548107 175.78406 
L 224.361777 244.234248 
L 225.175448 247.803544 
L 225.989118 197.903022 
L 226.802789 211.626483 
L 227.616459 212.01321 
L 228.43013 127.710488 
L 229.2438 201.908047 
L 230.057471 208.357803 
L 230.871141 122.439198 
L 231.684812 205.767535 
L 232.498483 185.533054 
L 233.312153 274.637378 
L 234.125824 174.733693 
L 234.939494 155.902709 
L 235.753165 246.544065 
L 236.566835 213.094938 
L 237.380506 123.184871 
L 238.194176 198.427904 
L 239.007847 207.509287 
L 239.821517 273.06023 
L 240.635188 238.123993 
L 241.448859 229.38995 
L 242.262529 251.879471 
L 243.0762 270.224101 
L 243.88987 247.857512 
L 244.703541 113.5825 
L 245.517211 224.91821 
L 246.330882 249.248747 
L 247.144552 141.500944 
L 247.958223 148.176459 
L 248.771893 213.279178 
L 249.585564 207.230871 
L 250.399234 210.408638 
L 251.212905 185.263693 
L 252.840246 273.863611 
L 253.653917 120.758526 
L 254.467587 202.155366 
L 255.281258 199.423328 
L 256.094928 209.34816 
L 256.908599 152.568828 
L 257.722269 208.018559 
L 258.53594 203.505876 
L 260.163281 266.228716 
L 260.976951 212.352774 
L 261.790622 216.348637 
L 262.604293 146.039785 
L 263.417963 201.342598 
L 264.231634 208.669946 
L 265.045304 206.151559 
L 265.858975 186.058239 
L 266.672645 237.987963 
L 267.486316 259.140665 
L 268.299986 235.486562 
L 269.113657 197.14296 
L 269.927327 232.411991 
L 270.740998 212.083451 
L 271.554668 147.849013 
L 272.368339 150.982957 
L 273.18201 131.593278 
L 273.99568 248.000798 
L 274.809351 175.037376 
L 275.623021 152.244341 
L 276.436692 174.062982 
L 277.250362 186.038069 
L 278.064033 252.228621 
L 278.877703 256.00483 
L 279.691374 218.391159 
L 280.505044 274.2623 
L 281.318715 232.127593 
L 282.132386 272.185962 
L 282.946056 251.557086 
L 283.759727 245.421393 
L 284.573397 217.641548 
L 285.387068 264.476589 
L 286.200738 206.101001 
L 287.014409 238.912824 
L 287.828079 210.076033 
L 288.64175 210.702229 
L 289.45542 214.806409 
L 290.269091 163.823962 
L 291.082761 249.472392 
L 291.896432 212.770093 
L 292.710103 209.243774 
L 293.523773 190.669202 
L 294.337444 251.357097 
L 295.151114 243.418881 
L 295.964785 158.329475 
L 297.592126 252.83324 
L 298.405796 200.625533 
L 299.219467 217.532116 
L 300.033137 216.615615 
L 300.846808 174.603649 
L 301.660478 283.898547 
L 302.474149 206.545351 
L 303.28782 255.048708 
L 304.10149 237.943409 
L 304.915161 224.23747 
L 305.728831 201.231334 
L 306.542502 213.798304 
L 307.356172 237.193857 
L 308.169843 193.875459 
L 308.983513 143.775622 
L 309.797184 143.243404 
L 310.610854 283.373348 
L 311.424525 180.571336 
L 312.238195 229.507198 
L 313.051866 198.923623 
L 313.865537 210.593384 
L 314.679207 263.802587 
L 315.492878 188.565827 
L 316.306548 198.038962 
L 317.120219 215.520057 
L 317.933889 215.918761 
L 318.74756 267.369854 
L 319.56123 210.866318 
L 320.374901 135.900916 
L 321.188571 258.776372 
L 322.002242 155.53222 
L 322.815913 216.556805 
L 323.629583 137.029119 
L 324.443254 254.780259 
L 325.256924 203.5378 
L 326.070595 206.289356 
L 326.884265 238.309087 
L 327.697936 237.903149 
L 328.511606 251.510328 
L 330.138947 155.523234 
L 330.952618 239.324997 
L 331.766288 142.844111 
L 332.579959 215.192763 
L 333.39363 118.401423 
L 334.2073 141.465656 
L 335.020971 216.330213 
L 335.834641 262.081836 
L 336.648312 223.965317 
L 337.461982 191.756963 
L 338.275653 177.223518 
L 339.089323 169.488993 
L 339.902994 225.376765 
L 340.716664 163.049874 
L 341.530335 120.597826 
L 342.344005 284.988649 
L 343.157676 144.194417 
L 343.971347 115.808104 
L 344.785017 204.725739 
L 345.598688 216.399944 
L 346.412358 198.872713 
L 347.226029 208.42192 
L 348.039699 202.873936 
L 348.85337 138.404512 
L 349.66704 195.493978 
L 350.480711 234.885419 
L 351.294381 193.249273 
L 352.108052 205.90677 
L 352.921722 133.949638 
L 353.735393 204.839721 
L 354.549064 164.39813 
L 355.362734 162.298745 
L 356.176405 185.555505 
L 356.990075 214.062677 
L 357.803746 213.352428 
L 358.617416 282.250553 
L 359.431087 115.55333 
L 360.244757 255.710746 
L 361.058428 196.442892 
L 361.872098 180.435428 
L 362.685769 211.671458 
L 363.49944 143.344271 
L 364.31311 289.098653 
L 365.126781 189.460169 
L 365.940451 215.156222 
L 366.754122 133.69613 
L 367.567792 201.380456 
L 368.381463 198.913587 
L 370.008804 250.084141 
L 370.822474 255.112302 
L 371.636145 138.623709 
L 372.449815 161.471102 
L 373.263486 247.334267 
L 374.077157 233.947699 
L 374.890827 171.443209 
L 375.704498 204.795937 
L 376.518168 219.980546 
L 377.331839 164.504358 
L 378.145509 155.595595 
L 378.95918 165.510102 
L 379.77285 236.672119 
L 380.586521 288.919105 
L 381.400191 172.457713 
L 382.213862 204.648111 
L 383.027532 195.661812 
L 383.841203 275.320125 
L 384.654874 178.329336 
L 385.468544 182.666839 
L 386.282215 199.591983 
L 387.095885 222.396359 
L 387.909556 173.573582 
L 389.536897 269.639479 
L 390.350567 172.702186 
L 391.164238 269.372391 
L 391.977908 218.62229 
L 392.791579 257.958342 
L 393.605249 245.183373 
L 394.41892 214.433256 
L 395.232591 231.299809 
L 396.046261 152.900144 
L 396.859932 263.002126 
L 397.673602 210.614463 
L 398.487273 231.783217 
L 398.487273 231.783217 
" style="fill:none;stroke:#ff7f0e;stroke-linecap:square;stroke-width:1.5;"/>
   </g>
   <g id="patch_3">
    <path d="M 57.6 307.584 
L 57.6 41.472 
" style="fill:none;stroke:#000000;stroke-linecap:square;stroke-linejoin:miter;stroke-width:0.8;"/>
   </g>
   <g id="patch_4">
    <path d="M 414.72 307.584 
L 414.72 41.472 
" style="fill:none;stroke:#000000;stroke-linecap:square;stroke-linejoin:miter;stroke-width:0.8;"/>
   </g>
   <g id="patch_5">
    <path d="M 57.6 307.584 
L 414.72 307.584 
" style="fill:none;stroke:#000000;stroke-linecap:square;stroke-linejoin:miter;stroke-width:0.8;"/>
   </g>
   <g id="patch_6">
    <path d="M 57.6 41.472 
L 414.72 41.472 
" style="fill:none;stroke:#000000;stroke-linecap:square;stroke-linejoin:miter;stroke-width:0.8;"/>
   </g>
   <g id="legend_1">
    <g id="patch_7">
     <path d="M 303.845 78.82825 
L 407.72 78.82825 
Q 409.72 78.82825 409.72 76.82825 
L 409.72 48.472 
Q 409.72 46.472 407.72 46.472 
L 303.845 46.472 
Q 301.845 46.472 301.845 48.472 
L 301.845 76.82825 
Q 301.845 78.82825 303.845 78.82825 
z
" style="fill:#ffffff;opacity:0.8;stroke:#cccccc;stroke-linejoin:miter;"/>
    </g>
    <g id="line2d_17">
     <path d="M 305.845 54.570437 
L 325.845 54.570437 
" style="fill:none;stroke:#1f77b4;stroke-linecap:square;stroke-width:1.5;"/>
    </g>
    <g id="line2d_18"/>
    <g id="text_17">
     <!-- Train loss -->
     <g transform="translate(333.845 58.070437)scale(0.1 -0.1)">
      <defs>
       <path d="M -19 4666 
L 3928 4666 
L 3928 4134 
L 2272 4134 
L 2272 0 
L 1638 0 
L 1638 4134 
L -19 4134 
L -19 4666 
z
" id="DejaVuSans-54" transform="scale(0.015625)"/>
       <path d="M 2631 2963 
Q 2534 3019 2420 3045 
Q 2306 3072 2169 3072 
Q 1681 3072 1420 2755 
Q 1159 2438 1159 1844 
L 1159 0 
L 581 0 
L 581 3500 
L 1159 3500 
L 1159 2956 
Q 1341 3275 1631 3429 
Q 1922 3584 2338 3584 
Q 2397 3584 2469 3576 
Q 2541 3569 2628 3553 
L 2631 2963 
z
" id="DejaVuSans-72" transform="scale(0.015625)"/>
       <path d="M 2194 1759 
Q 1497 1759 1228 1600 
Q 959 1441 959 1056 
Q 959 750 1161 570 
Q 1363 391 1709 391 
Q 2188 391 2477 730 
Q 2766 1069 2766 1631 
L 2766 1759 
L 2194 1759 
z
M 3341 1997 
L 3341 0 
L 2766 0 
L 2766 531 
Q 2569 213 2275 61 
Q 1981 -91 1556 -91 
Q 1019 -91 701 211 
Q 384 513 384 1019 
Q 384 1609 779 1909 
Q 1175 2209 1959 2209 
L 2766 2209 
L 2766 2266 
Q 2766 2663 2505 2880 
Q 2244 3097 1772 3097 
Q 1472 3097 1187 3025 
Q 903 2953 641 2809 
L 641 3341 
Q 956 3463 1253 3523 
Q 1550 3584 1831 3584 
Q 2591 3584 2966 3190 
Q 3341 2797 3341 1997 
z
" id="DejaVuSans-61" transform="scale(0.015625)"/>
       <path d="M 603 3500 
L 1178 3500 
L 1178 0 
L 603 0 
L 603 3500 
z
M 603 4863 
L 1178 4863 
L 1178 4134 
L 603 4134 
L 603 4863 
z
" id="DejaVuSans-69" transform="scale(0.015625)"/>
       <path d="M 3513 2113 
L 3513 0 
L 2938 0 
L 2938 2094 
Q 2938 2591 2744 2837 
Q 2550 3084 2163 3084 
Q 1697 3084 1428 2787 
Q 1159 2491 1159 1978 
L 1159 0 
L 581 0 
L 581 3500 
L 1159 3500 
L 1159 2956 
Q 1366 3272 1645 3428 
Q 1925 3584 2291 3584 
Q 2894 3584 3203 3211 
Q 3513 2838 3513 2113 
z
" id="DejaVuSans-6e" transform="scale(0.015625)"/>
       <path id="DejaVuSans-20" transform="scale(0.015625)"/>
       <path d="M 603 4863 
L 1178 4863 
L 1178 0 
L 603 0 
L 603 4863 
z
" id="DejaVuSans-6c" transform="scale(0.015625)"/>
      </defs>
      <use xlink:href="#DejaVuSans-54"/>
      <use x="46.333984" xlink:href="#DejaVuSans-72"/>
      <use x="87.447266" xlink:href="#DejaVuSans-61"/>
      <use x="148.726562" xlink:href="#DejaVuSans-69"/>
      <use x="176.509766" xlink:href="#DejaVuSans-6e"/>
      <use x="239.888672" xlink:href="#DejaVuSans-20"/>
      <use x="271.675781" xlink:href="#DejaVuSans-6c"/>
      <use x="299.458984" xlink:href="#DejaVuSans-6f"/>
      <use x="360.640625" xlink:href="#DejaVuSans-73"/>
      <use x="412.740234" xlink:href="#DejaVuSans-73"/>
     </g>
    </g>
    <g id="line2d_19">
     <path d="M 305.845 69.248562 
L 325.845 69.248562 
" style="fill:none;stroke:#ff7f0e;stroke-linecap:square;stroke-width:1.5;"/>
    </g>
    <g id="line2d_20"/>
    <g id="text_18">
     <!-- Validation loss -->
     <g transform="translate(333.845 72.748562)scale(0.1 -0.1)">
      <defs>
       <path d="M 1831 0 
L 50 4666 
L 709 4666 
L 2188 738 
L 3669 4666 
L 4325 4666 
L 2547 0 
L 1831 0 
z
" id="DejaVuSans-56" transform="scale(0.015625)"/>
       <path d="M 2906 2969 
L 2906 4863 
L 3481 4863 
L 3481 0 
L 2906 0 
L 2906 525 
Q 2725 213 2448 61 
Q 2172 -91 1784 -91 
Q 1150 -91 751 415 
Q 353 922 353 1747 
Q 353 2572 751 3078 
Q 1150 3584 1784 3584 
Q 2172 3584 2448 3432 
Q 2725 3281 2906 2969 
z
M 947 1747 
Q 947 1113 1208 752 
Q 1469 391 1925 391 
Q 2381 391 2643 752 
Q 2906 1113 2906 1747 
Q 2906 2381 2643 2742 
Q 2381 3103 1925 3103 
Q 1469 3103 1208 2742 
Q 947 2381 947 1747 
z
" id="DejaVuSans-64" transform="scale(0.015625)"/>
       <path d="M 1172 4494 
L 1172 3500 
L 2356 3500 
L 2356 3053 
L 1172 3053 
L 1172 1153 
Q 1172 725 1289 603 
Q 1406 481 1766 481 
L 2356 481 
L 2356 0 
L 1766 0 
Q 1100 0 847 248 
Q 594 497 594 1153 
L 594 3053 
L 172 3053 
L 172 3500 
L 594 3500 
L 594 4494 
L 1172 4494 
z
" id="DejaVuSans-74" transform="scale(0.015625)"/>
      </defs>
      <use xlink:href="#DejaVuSans-56"/>
      <use x="60.658203" xlink:href="#DejaVuSans-61"/>
      <use x="121.9375" xlink:href="#DejaVuSans-6c"/>
      <use x="149.720703" xlink:href="#DejaVuSans-69"/>
      <use x="177.503906" xlink:href="#DejaVuSans-64"/>
      <use x="240.980469" xlink:href="#DejaVuSans-61"/>
      <use x="302.259766" xlink:href="#DejaVuSans-74"/>
      <use x="341.46875" xlink:href="#DejaVuSans-69"/>
      <use x="369.251953" xlink:href="#DejaVuSans-6f"/>
      <use x="430.433594" xlink:href="#DejaVuSans-6e"/>
      <use x="493.8125" xlink:href="#DejaVuSans-20"/>
      <use x="525.599609" xlink:href="#DejaVuSans-6c"/>
      <use x="553.382812" xlink:href="#DejaVuSans-6f"/>
      <use x="614.564453" xlink:href="#DejaVuSans-73"/>
      <use x="666.664062" xlink:href="#DejaVuSans-73"/>
     </g>
    </g>
   </g>
  </g>
 </g>
 <defs>
  <clipPath id="pdded9cd330">
   <rect height="266.112" width="357.12" x="57.6" y="41.472"/>
  </clipPath>
 </defs>
</svg>
