<?xml version="1.0" encoding="utf-8" standalone="no"?>
<!DOCTYPE svg PUBLIC "-//W3C//DTD SVG 1.1//EN"
  "http://www.w3.org/Graphics/SVG/1.1/DTD/svg11.dtd">
<svg height="345.6pt" version="1.1" viewBox="0 0 460.8 345.6" width="460.8pt" xmlns="http://www.w3.org/2000/svg" xmlns:xlink="http://www.w3.org/1999/xlink">
 <metadata>
  <rdf:RDF xmlns:cc="http://creativecommons.org/ns#" xmlns:dc="http://purl.org/dc/elements/1.1/" xmlns:rdf="http://www.w3.org/1999/02/22-rdf-syntax-ns#">
   <cc:Work>
    <dc:type rdf:resource="http://purl.org/dc/dcmitype/StillImage"/>
    <dc:date>2021-07-19T13:00:31.121776</dc:date>
    <dc:format>image/svg+xml</dc:format>
    <dc:creator>
     <cc:Agent>
      <dc:title>Matplotlib v3.4.2, https://matplotlib.org/</dc:title>
     </cc:Agent>
    </dc:creator>
   </cc:Work>
  </rdf:RDF>
 </metadata>
 <defs>
  <style type="text/css">*{stroke-linecap:butt;stroke-linejoin:round;}</style>
 </defs>
 <g id="figure_1">
  <g id="patch_1">
   <path d="M 0 345.6 
L 460.8 345.6 
L 460.8 0 
L 0 0 
z
" style="fill:#ffffff;"/>
  </g>
  <g id="axes_1">
   <g id="patch_2">
    <path d="M 57.6 307.584 
L 414.72 307.584 
L 414.72 41.472 
L 57.6 41.472 
z
" style="fill:#ffffff;"/>
   </g>
   <g id="matplotlib.axis_1">
    <g id="xtick_1">
     <g id="line2d_1">
      <defs>
       <path d="M 0 0 
L 0 3.5 
" id="md2b92e0163" style="stroke:#000000;stroke-width:0.8;"/>
      </defs>
      <g>
       <use style="stroke:#000000;stroke-width:0.8;" x="73.507748" xlink:href="#md2b92e0163" y="307.584"/>
      </g>
     </g>
     <g id="text_1">
      <!-- 0 -->
      <g transform="translate(70.326498 322.182437)scale(0.1 -0.1)">
       <defs>
        <path d="M 2034 4250 
Q 1547 4250 1301 3770 
Q 1056 3291 1056 2328 
Q 1056 1369 1301 889 
Q 1547 409 2034 409 
Q 2525 409 2770 889 
Q 3016 1369 3016 2328 
Q 3016 3291 2770 3770 
Q 2525 4250 2034 4250 
z
M 2034 4750 
Q 2819 4750 3233 4129 
Q 3647 3509 3647 2328 
Q 3647 1150 3233 529 
Q 2819 -91 2034 -91 
Q 1250 -91 836 529 
Q 422 1150 422 2328 
Q 422 3509 836 4129 
Q 1250 4750 2034 4750 
z
" id="DejaVuSans-30" transform="scale(0.015625)"/>
       </defs>
       <use xlink:href="#DejaVuSans-30"/>
      </g>
     </g>
    </g>
    <g id="xtick_2">
     <g id="line2d_2">
      <g>
       <use style="stroke:#000000;stroke-width:0.8;" x="138.503653" xlink:href="#md2b92e0163" y="307.584"/>
      </g>
     </g>
     <g id="text_2">
      <!-- 200 -->
      <g transform="translate(128.959903 322.182437)scale(0.1 -0.1)">
       <defs>
        <path d="M 1228 531 
L 3431 531 
L 3431 0 
L 469 0 
L 469 531 
Q 828 903 1448 1529 
Q 2069 2156 2228 2338 
Q 2531 2678 2651 2914 
Q 2772 3150 2772 3378 
Q 2772 3750 2511 3984 
Q 2250 4219 1831 4219 
Q 1534 4219 1204 4116 
Q 875 4013 500 3803 
L 500 4441 
Q 881 4594 1212 4672 
Q 1544 4750 1819 4750 
Q 2544 4750 2975 4387 
Q 3406 4025 3406 3419 
Q 3406 3131 3298 2873 
Q 3191 2616 2906 2266 
Q 2828 2175 2409 1742 
Q 1991 1309 1228 531 
z
" id="DejaVuSans-32" transform="scale(0.015625)"/>
       </defs>
       <use xlink:href="#DejaVuSans-32"/>
       <use x="63.623047" xlink:href="#DejaVuSans-30"/>
       <use x="127.246094" xlink:href="#DejaVuSans-30"/>
      </g>
     </g>
    </g>
    <g id="xtick_3">
     <g id="line2d_3">
      <g>
       <use style="stroke:#000000;stroke-width:0.8;" x="203.499558" xlink:href="#md2b92e0163" y="307.584"/>
      </g>
     </g>
     <g id="text_3">
      <!-- 400 -->
      <g transform="translate(193.955808 322.182437)scale(0.1 -0.1)">
       <defs>
        <path d="M 2419 4116 
L 825 1625 
L 2419 1625 
L 2419 4116 
z
M 2253 4666 
L 3047 4666 
L 3047 1625 
L 3713 1625 
L 3713 1100 
L 3047 1100 
L 3047 0 
L 2419 0 
L 2419 1100 
L 313 1100 
L 313 1709 
L 2253 4666 
z
" id="DejaVuSans-34" transform="scale(0.015625)"/>
       </defs>
       <use xlink:href="#DejaVuSans-34"/>
       <use x="63.623047" xlink:href="#DejaVuSans-30"/>
       <use x="127.246094" xlink:href="#DejaVuSans-30"/>
      </g>
     </g>
    </g>
    <g id="xtick_4">
     <g id="line2d_4">
      <g>
       <use style="stroke:#000000;stroke-width:0.8;" x="268.495463" xlink:href="#md2b92e0163" y="307.584"/>
      </g>
     </g>
     <g id="text_4">
      <!-- 600 -->
      <g transform="translate(258.951713 322.182437)scale(0.1 -0.1)">
       <defs>
        <path d="M 2113 2584 
Q 1688 2584 1439 2293 
Q 1191 2003 1191 1497 
Q 1191 994 1439 701 
Q 1688 409 2113 409 
Q 2538 409 2786 701 
Q 3034 994 3034 1497 
Q 3034 2003 2786 2293 
Q 2538 2584 2113 2584 
z
M 3366 4563 
L 3366 3988 
Q 3128 4100 2886 4159 
Q 2644 4219 2406 4219 
Q 1781 4219 1451 3797 
Q 1122 3375 1075 2522 
Q 1259 2794 1537 2939 
Q 1816 3084 2150 3084 
Q 2853 3084 3261 2657 
Q 3669 2231 3669 1497 
Q 3669 778 3244 343 
Q 2819 -91 2113 -91 
Q 1303 -91 875 529 
Q 447 1150 447 2328 
Q 447 3434 972 4092 
Q 1497 4750 2381 4750 
Q 2619 4750 2861 4703 
Q 3103 4656 3366 4563 
z
" id="DejaVuSans-36" transform="scale(0.015625)"/>
       </defs>
       <use xlink:href="#DejaVuSans-36"/>
       <use x="63.623047" xlink:href="#DejaVuSans-30"/>
       <use x="127.246094" xlink:href="#DejaVuSans-30"/>
      </g>
     </g>
    </g>
    <g id="xtick_5">
     <g id="line2d_5">
      <g>
       <use style="stroke:#000000;stroke-width:0.8;" x="333.491368" xlink:href="#md2b92e0163" y="307.584"/>
      </g>
     </g>
     <g id="text_5">
      <!-- 800 -->
      <g transform="translate(323.947618 322.182437)scale(0.1 -0.1)">
       <defs>
        <path d="M 2034 2216 
Q 1584 2216 1326 1975 
Q 1069 1734 1069 1313 
Q 1069 891 1326 650 
Q 1584 409 2034 409 
Q 2484 409 2743 651 
Q 3003 894 3003 1313 
Q 3003 1734 2745 1975 
Q 2488 2216 2034 2216 
z
M 1403 2484 
Q 997 2584 770 2862 
Q 544 3141 544 3541 
Q 544 4100 942 4425 
Q 1341 4750 2034 4750 
Q 2731 4750 3128 4425 
Q 3525 4100 3525 3541 
Q 3525 3141 3298 2862 
Q 3072 2584 2669 2484 
Q 3125 2378 3379 2068 
Q 3634 1759 3634 1313 
Q 3634 634 3220 271 
Q 2806 -91 2034 -91 
Q 1263 -91 848 271 
Q 434 634 434 1313 
Q 434 1759 690 2068 
Q 947 2378 1403 2484 
z
M 1172 3481 
Q 1172 3119 1398 2916 
Q 1625 2713 2034 2713 
Q 2441 2713 2670 2916 
Q 2900 3119 2900 3481 
Q 2900 3844 2670 4047 
Q 2441 4250 2034 4250 
Q 1625 4250 1398 4047 
Q 1172 3844 1172 3481 
z
" id="DejaVuSans-38" transform="scale(0.015625)"/>
       </defs>
       <use xlink:href="#DejaVuSans-38"/>
       <use x="63.623047" xlink:href="#DejaVuSans-30"/>
       <use x="127.246094" xlink:href="#DejaVuSans-30"/>
      </g>
     </g>
    </g>
    <g id="xtick_6">
     <g id="line2d_6">
      <g>
       <use style="stroke:#000000;stroke-width:0.8;" x="398.487273" xlink:href="#md2b92e0163" y="307.584"/>
      </g>
     </g>
     <g id="text_6">
      <!-- 1000 -->
      <g transform="translate(385.762273 322.182437)scale(0.1 -0.1)">
       <defs>
        <path d="M 794 531 
L 1825 531 
L 1825 4091 
L 703 3866 
L 703 4441 
L 1819 4666 
L 2450 4666 
L 2450 531 
L 3481 531 
L 3481 0 
L 794 0 
L 794 531 
z
" id="DejaVuSans-31" transform="scale(0.015625)"/>
       </defs>
       <use xlink:href="#DejaVuSans-31"/>
       <use x="63.623047" xlink:href="#DejaVuSans-30"/>
       <use x="127.246094" xlink:href="#DejaVuSans-30"/>
       <use x="190.869141" xlink:href="#DejaVuSans-30"/>
      </g>
     </g>
    </g>
    <g id="text_7">
     <!-- Epoch -->
     <g transform="translate(213.193594 339.659781)scale(0.15 -0.15)">
      <defs>
       <path d="M 628 4666 
L 3578 4666 
L 3578 4134 
L 1259 4134 
L 1259 2753 
L 3481 2753 
L 3481 2222 
L 1259 2222 
L 1259 531 
L 3634 531 
L 3634 0 
L 628 0 
L 628 4666 
z
" id="DejaVuSans-45" transform="scale(0.015625)"/>
       <path d="M 1159 525 
L 1159 -1331 
L 581 -1331 
L 581 3500 
L 1159 3500 
L 1159 2969 
Q 1341 3281 1617 3432 
Q 1894 3584 2278 3584 
Q 2916 3584 3314 3078 
Q 3713 2572 3713 1747 
Q 3713 922 3314 415 
Q 2916 -91 2278 -91 
Q 1894 -91 1617 61 
Q 1341 213 1159 525 
z
M 3116 1747 
Q 3116 2381 2855 2742 
Q 2594 3103 2138 3103 
Q 1681 3103 1420 2742 
Q 1159 2381 1159 1747 
Q 1159 1113 1420 752 
Q 1681 391 2138 391 
Q 2594 391 2855 752 
Q 3116 1113 3116 1747 
z
" id="DejaVuSans-70" transform="scale(0.015625)"/>
       <path d="M 1959 3097 
Q 1497 3097 1228 2736 
Q 959 2375 959 1747 
Q 959 1119 1226 758 
Q 1494 397 1959 397 
Q 2419 397 2687 759 
Q 2956 1122 2956 1747 
Q 2956 2369 2687 2733 
Q 2419 3097 1959 3097 
z
M 1959 3584 
Q 2709 3584 3137 3096 
Q 3566 2609 3566 1747 
Q 3566 888 3137 398 
Q 2709 -91 1959 -91 
Q 1206 -91 779 398 
Q 353 888 353 1747 
Q 353 2609 779 3096 
Q 1206 3584 1959 3584 
z
" id="DejaVuSans-6f" transform="scale(0.015625)"/>
       <path d="M 3122 3366 
L 3122 2828 
Q 2878 2963 2633 3030 
Q 2388 3097 2138 3097 
Q 1578 3097 1268 2742 
Q 959 2388 959 1747 
Q 959 1106 1268 751 
Q 1578 397 2138 397 
Q 2388 397 2633 464 
Q 2878 531 3122 666 
L 3122 134 
Q 2881 22 2623 -34 
Q 2366 -91 2075 -91 
Q 1284 -91 818 406 
Q 353 903 353 1747 
Q 353 2603 823 3093 
Q 1294 3584 2113 3584 
Q 2378 3584 2631 3529 
Q 2884 3475 3122 3366 
z
" id="DejaVuSans-63" transform="scale(0.015625)"/>
       <path d="M 3513 2113 
L 3513 0 
L 2938 0 
L 2938 2094 
Q 2938 2591 2744 2837 
Q 2550 3084 2163 3084 
Q 1697 3084 1428 2787 
Q 1159 2491 1159 1978 
L 1159 0 
L 581 0 
L 581 4863 
L 1159 4863 
L 1159 2956 
Q 1366 3272 1645 3428 
Q 1925 3584 2291 3584 
Q 2894 3584 3203 3211 
Q 3513 2838 3513 2113 
z
" id="DejaVuSans-68" transform="scale(0.015625)"/>
      </defs>
      <use xlink:href="#DejaVuSans-45"/>
      <use x="63.183594" xlink:href="#DejaVuSans-70"/>
      <use x="126.660156" xlink:href="#DejaVuSans-6f"/>
      <use x="187.841797" xlink:href="#DejaVuSans-63"/>
      <use x="242.822266" xlink:href="#DejaVuSans-68"/>
     </g>
    </g>
   </g>
   <g id="matplotlib.axis_2">
    <g id="ytick_1">
     <g id="line2d_7">
      <defs>
       <path d="M 0 0 
L -3.5 0 
" id="mc39456c1d1" style="stroke:#000000;stroke-width:0.8;"/>
      </defs>
      <g>
       <use style="stroke:#000000;stroke-width:0.8;" x="57.6" xlink:href="#mc39456c1d1" y="269.967426"/>
      </g>
     </g>
     <g id="text_8">
      <!-- −1000 -->
      <g transform="translate(16.770313 273.766644)scale(0.1 -0.1)">
       <defs>
        <path d="M 678 2272 
L 4684 2272 
L 4684 1741 
L 678 1741 
L 678 2272 
z
" id="DejaVuSans-2212" transform="scale(0.015625)"/>
       </defs>
       <use xlink:href="#DejaVuSans-2212"/>
       <use x="83.789062" xlink:href="#DejaVuSans-31"/>
       <use x="147.412109" xlink:href="#DejaVuSans-30"/>
       <use x="211.035156" xlink:href="#DejaVuSans-30"/>
       <use x="274.658203" xlink:href="#DejaVuSans-30"/>
      </g>
     </g>
    </g>
    <g id="ytick_2">
     <g id="line2d_8">
      <g>
       <use style="stroke:#000000;stroke-width:0.8;" x="57.6" xlink:href="#mc39456c1d1" y="220.59432"/>
      </g>
     </g>
     <g id="text_9">
      <!-- −800 -->
      <g transform="translate(23.132812 224.393538)scale(0.1 -0.1)">
       <use xlink:href="#DejaVuSans-2212"/>
       <use x="83.789062" xlink:href="#DejaVuSans-38"/>
       <use x="147.412109" xlink:href="#DejaVuSans-30"/>
       <use x="211.035156" xlink:href="#DejaVuSans-30"/>
      </g>
     </g>
    </g>
    <g id="ytick_3">
     <g id="line2d_9">
      <g>
       <use style="stroke:#000000;stroke-width:0.8;" x="57.6" xlink:href="#mc39456c1d1" y="171.221214"/>
      </g>
     </g>
     <g id="text_10">
      <!-- −600 -->
      <g transform="translate(23.132812 175.020433)scale(0.1 -0.1)">
       <use xlink:href="#DejaVuSans-2212"/>
       <use x="83.789062" xlink:href="#DejaVuSans-36"/>
       <use x="147.412109" xlink:href="#DejaVuSans-30"/>
       <use x="211.035156" xlink:href="#DejaVuSans-30"/>
      </g>
     </g>
    </g>
    <g id="ytick_4">
     <g id="line2d_10">
      <g>
       <use style="stroke:#000000;stroke-width:0.8;" x="57.6" xlink:href="#mc39456c1d1" y="121.848108"/>
      </g>
     </g>
     <g id="text_11">
      <!-- −400 -->
      <g transform="translate(23.132812 125.647327)scale(0.1 -0.1)">
       <use xlink:href="#DejaVuSans-2212"/>
       <use x="83.789062" xlink:href="#DejaVuSans-34"/>
       <use x="147.412109" xlink:href="#DejaVuSans-30"/>
       <use x="211.035156" xlink:href="#DejaVuSans-30"/>
      </g>
     </g>
    </g>
    <g id="ytick_5">
     <g id="line2d_11">
      <g>
       <use style="stroke:#000000;stroke-width:0.8;" x="57.6" xlink:href="#mc39456c1d1" y="72.475002"/>
      </g>
     </g>
     <g id="text_12">
      <!-- −200 -->
      <g transform="translate(23.132812 76.274221)scale(0.1 -0.1)">
       <use xlink:href="#DejaVuSans-2212"/>
       <use x="83.789062" xlink:href="#DejaVuSans-32"/>
       <use x="147.412109" xlink:href="#DejaVuSans-30"/>
       <use x="211.035156" xlink:href="#DejaVuSans-30"/>
      </g>
     </g>
    </g>
   </g>
   <g id="line2d_12">
    <path clip-path="url(#p394994e32b)" d="M 73.832727 53.568 
L 74.157707 100.929682 
L 74.482686 118.521991 
L 74.807666 118.840671 
L 75.457625 133.48221 
L 75.782604 137.60691 
L 76.107584 135.636794 
L 76.432563 141.652269 
L 76.757543 143.331095 
L 77.082523 143.520239 
L 77.407502 162.117926 
L 77.732482 161.92917 
L 78.057461 155.120142 
L 78.382441 165.189971 
L 78.70742 168.605946 
L 79.0324 173.313998 
L 79.357379 166.194534 
L 79.682359 178.877638 
L 80.332318 176.361965 
L 80.657297 180.193106 
L 80.982277 161.329228 
L 81.307256 192.099286 
L 81.632236 189.210047 
L 81.957215 181.959645 
L 82.282195 199.026919 
L 82.607174 195.59631 
L 82.932154 197.846763 
L 83.257133 186.480879 
L 83.582113 193.846432 
L 83.907093 193.029059 
L 84.232072 201.294874 
L 84.557052 206.554964 
L 84.882031 208.314679 
L 85.207011 199.256391 
L 85.53199 206.663697 
L 85.85697 202.377539 
L 86.181949 211.878951 
L 86.506929 196.910694 
L 86.831908 211.010725 
L 87.156888 198.397534 
L 87.481867 209.017572 
L 87.806847 204.235475 
L 88.131826 209.814758 
L 88.456806 205.991551 
L 88.781785 221.045913 
L 89.106765 208.383177 
L 89.431744 208.579433 
L 89.756724 211.121733 
L 90.081704 226.369519 
L 90.406683 227.255404 
L 90.731663 221.813675 
L 91.056642 225.260236 
L 91.381622 218.921831 
L 91.706601 219.38468 
L 92.031581 225.252972 
L 92.35656 205.344925 
L 92.68154 225.64071 
L 93.656478 232.198918 
L 93.981458 223.247005 
L 94.306437 226.401581 
L 94.631417 217.157963 
L 94.956396 224.137868 
L 95.281376 222.698309 
L 95.606355 224.298064 
L 95.931335 231.032426 
L 96.256314 220.691375 
L 96.581294 233.014554 
L 96.906274 227.853469 
L 97.231253 238.863219 
L 97.556233 216.088216 
L 97.881212 222.421627 
L 98.206192 237.237618 
L 98.531171 224.317205 
L 98.856151 224.546019 
L 99.18113 235.913559 
L 99.831089 219.056037 
L 100.156069 232.129794 
L 100.481048 220.787891 
L 100.806028 236.707425 
L 101.131007 225.532569 
L 101.455987 228.624103 
L 101.780966 237.014243 
L 102.105946 233.481303 
L 102.430925 227.124579 
L 102.755905 232.765498 
L 103.080885 236.44841 
L 103.405864 236.571803 
L 103.730844 221.989619 
L 104.055823 223.474162 
L 104.705782 237.993232 
L 105.030762 231.398242 
L 105.680721 237.058077 
L 106.0057 229.672077 
L 106.655659 247.892658 
L 106.980639 243.902479 
L 107.305618 244.343446 
L 107.630598 238.287245 
L 107.955577 237.328907 
L 108.280557 244.931176 
L 108.605536 239.34201 
L 108.930516 236.119519 
L 109.255495 240.751696 
L 109.580475 238.792844 
L 109.905455 241.926283 
L 110.230434 242.67068 
L 110.555414 233.315028 
L 110.880393 245.411746 
L 111.205373 231.975023 
L 111.530352 245.493739 
L 111.855332 230.464022 
L 112.180311 243.260646 
L 112.505291 236.34264 
L 112.83027 238.485201 
L 113.15525 243.047997 
L 113.480229 239.982137 
L 114.130188 230.143809 
L 114.455168 242.237703 
L 114.780147 243.627676 
L 115.105127 226.51793 
L 115.430106 229.878097 
L 115.755086 240.043528 
L 116.080066 230.35114 
L 116.405045 238.147376 
L 116.730025 227.95038 
L 117.055004 244.541329 
L 117.379984 232.184825 
L 117.704963 244.041594 
L 118.029943 240.231485 
L 118.354922 233.529437 
L 118.679902 234.509405 
L 119.329861 246.513812 
L 119.65484 245.594247 
L 119.97982 232.027985 
L 120.304799 239.134944 
L 120.629779 236.517885 
L 120.954758 238.766684 
L 121.279738 244.295566 
L 121.604717 239.688494 
L 121.929697 244.93824 
L 122.254676 242.222951 
L 122.579656 237.486022 
L 122.904636 249.180996 
L 123.229615 237.671349 
L 123.879574 250.643983 
L 124.204554 254.339983 
L 124.529533 242.142816 
L 124.854513 239.969334 
L 125.179492 250.115607 
L 125.829451 232.12918 
L 126.154431 242.495569 
L 126.47941 245.466227 
L 126.80439 242.902769 
L 127.129369 252.001059 
L 127.454349 234.078297 
L 127.779328 253.858153 
L 128.104308 229.715178 
L 128.429287 244.159577 
L 128.754267 250.027419 
L 129.079247 253.309457 
L 129.404226 237.597198 
L 129.729206 245.272501 
L 130.054185 249.209312 
L 130.379165 241.123712 
L 130.704144 251.437374 
L 131.029124 245.97324 
L 131.354103 249.468314 
L 131.679083 240.812672 
L 132.004062 241.472377 
L 132.329042 243.840239 
L 132.654021 249.06794 
L 132.979001 236.964268 
L 133.30398 254.227003 
L 133.62896 247.214779 
L 133.953939 248.41345 
L 134.278919 234.301943 
L 134.603898 247.178491 
L 134.928878 241.358895 
L 135.253857 239.964102 
L 135.578837 247.278865 
L 135.903817 249.410617 
L 136.553776 237.624437 
L 136.878755 243.10062 
L 137.203735 246.081866 
L 137.528714 251.55781 
L 137.853694 235.279044 
L 138.178673 249.517256 
L 138.828632 253.946331 
L 139.153612 253.567088 
L 139.478591 249.652599 
L 139.803571 249.398427 
L 140.12855 251.705523 
L 140.45353 245.095298 
L 140.778509 242.299994 
L 141.428468 245.184356 
L 141.753448 238.775894 
L 142.078428 247.230569 
L 142.403407 248.221156 
L 142.728387 243.736937 
L 143.053366 242.622883 
L 143.378346 249.710852 
L 144.028305 251.518708 
L 144.353284 242.694347 
L 144.678264 250.935449 
L 145.003243 255.366945 
L 145.328223 242.33581 
L 145.653202 243.038582 
L 145.978182 245.479552 
L 146.303161 250.225638 
L 146.628141 247.776246 
L 146.95312 257.175703 
L 147.603079 245.544722 
L 147.928059 252.714514 
L 148.253038 249.786716 
L 148.578018 259.414408 
L 148.902998 255.795249 
L 149.227977 247.555169 
L 149.552957 249.935865 
L 149.877936 249.870695 
L 150.202916 252.121849 
L 150.527895 258.293796 
L 150.852875 255.716447 
L 151.177854 254.908375 
L 151.502834 238.363668 
L 152.152793 258.125475 
L 152.477772 247.646049 
L 152.802752 261.877239 
L 153.127731 261.556744 
L 153.452711 270.622093 
L 153.77769 253.848185 
L 154.10267 251.829834 
L 154.427649 233.950291 
L 154.752629 248.19535 
L 155.077609 253.547471 
L 155.402588 248.98185 
L 155.727568 248.132588 
L 156.052547 250.391691 
L 156.377527 250.980653 
L 156.702506 262.556449 
L 157.027486 259.997718 
L 157.352465 248.610693 
L 157.677445 256.517437 
L 158.002424 256.800649 
L 158.327404 244.762913 
L 158.652383 250.270588 
L 158.977363 242.17907 
L 159.627322 258.940784 
L 159.952301 250.833073 
L 160.277281 253.571361 
L 160.60226 258.312827 
L 160.92724 253.40848 
L 161.252219 243.602601 
L 161.577199 253.709945 
L 161.902179 256.345714 
L 162.227158 248.337396 
L 162.552138 250.833266 
L 162.877117 251.955746 
L 163.202097 251.397095 
L 163.527076 261.896161 
L 163.852056 260.064408 
L 164.177035 260.703846 
L 164.502015 269.516334 
L 164.826994 255.208421 
L 165.151974 249.738448 
L 165.476953 256.420608 
L 165.801933 257.03913 
L 166.126912 256.003897 
L 166.451892 247.337465 
L 166.776871 255.441587 
L 167.101851 253.2963 
L 167.42683 247.662828 
L 167.75181 256.543493 
L 168.07679 249.038753 
L 168.401769 255.214052 
L 168.726749 254.032046 
L 169.051728 263.412914 
L 169.376708 246.878002 
L 169.701687 249.248276 
L 170.026667 254.487325 
L 170.351646 261.802457 
L 170.676626 255.122874 
L 171.001605 257.446823 
L 171.326585 248.841207 
L 171.976544 263.510382 
L 172.301523 262.027111 
L 172.626503 252.19303 
L 172.951482 249.698831 
L 173.276462 259.231327 
L 173.601441 256.39145 
L 173.926421 254.944338 
L 174.2514 252.766146 
L 174.57638 254.046976 
L 174.90136 264.538861 
L 175.226339 260.126824 
L 175.551319 264.284743 
L 175.876298 254.209092 
L 176.201278 266.755983 
L 176.526257 251.749817 
L 176.851237 256.226047 
L 177.176216 269.349738 
L 177.501196 255.94786 
L 177.826175 256.99675 
L 178.151155 256.655446 
L 178.476134 262.360722 
L 179.126093 256.621188 
L 179.451073 275.744564 
L 179.776052 266.589922 
L 180.101032 266.645755 
L 180.426011 269.811674 
L 180.750991 271.364173 
L 181.075971 248.611623 
L 181.40095 265.596058 
L 181.72593 262.73155 
L 182.050909 252.830586 
L 182.375889 260.848172 
L 182.700868 259.080551 
L 183.025848 253.972135 
L 183.350827 266.314054 
L 183.675807 255.130902 
L 184.000786 260.303268 
L 184.325766 256.998446 
L 184.650745 261.11569 
L 184.975725 251.139184 
L 185.300704 247.827992 
L 185.625684 260.081934 
L 185.950663 267.831441 
L 186.275643 268.170671 
L 186.600622 256.990382 
L 186.925602 255.837053 
L 187.250581 256.426853 
L 187.575561 257.540357 
L 187.900541 266.045833 
L 188.22552 265.673024 
L 188.5505 254.41428 
L 188.875479 248.383143 
L 189.200459 263.065501 
L 189.525438 255.896432 
L 189.850418 257.156581 
L 190.175397 268.3758 
L 190.500377 266.039904 
L 190.825356 272.21077 
L 191.150336 260.492284 
L 191.475315 257.620486 
L 191.800295 259.758885 
L 192.450254 273.652124 
L 192.775233 271.654629 
L 193.100213 273.775758 
L 193.425192 259.813158 
L 193.750172 260.277794 
L 194.075152 266.399952 
L 194.400131 257.755934 
L 194.725111 266.056082 
L 195.05009 245.593907 
L 195.37507 260.06592 
L 195.700049 262.62208 
L 196.025029 272.73109 
L 196.350008 277.41164 
L 196.674988 264.838726 
L 196.999967 266.058205 
L 197.324947 256.077282 
L 197.649926 273.496923 
L 197.974906 268.609791 
L 198.299885 270.808388 
L 198.624865 274.32061 
L 198.949844 259.120303 
L 199.274824 255.195783 
L 199.599803 266.846424 
L 199.924783 267.656354 
L 200.249762 262.200287 
L 200.574742 270.904201 
L 201.224701 257.76292 
L 201.549681 258.30746 
L 201.87466 256.90079 
L 202.19964 260.687217 
L 202.524619 257.010271 
L 202.849599 262.605763 
L 203.174578 257.922429 
L 203.499558 271.231638 
L 203.824537 267.590412 
L 204.149517 256.593663 
L 204.474496 275.393581 
L 204.799476 254.683746 
L 205.124455 261.520904 
L 205.449435 254.015992 
L 205.774414 255.079237 
L 206.099394 260.737802 
L 206.424373 270.624687 
L 206.749353 258.559335 
L 207.074333 260.548428 
L 207.399312 264.322196 
L 207.724292 275.234855 
L 208.049271 260.644064 
L 208.374251 269.223767 
L 208.69923 270.179393 
L 209.02421 264.369608 
L 209.349189 248.481749 
L 209.674169 262.556481 
L 209.999148 264.082071 
L 210.324128 260.510811 
L 210.649107 261.06197 
L 210.974087 258.394903 
L 211.299066 277.568643 
L 211.624046 255.780764 
L 211.949025 266.163166 
L 212.274005 253.530874 
L 212.598984 258.976993 
L 212.923964 254.401398 
L 213.248943 274.286388 
L 213.573923 261.530971 
L 213.898903 253.650436 
L 214.223882 255.065447 
L 214.548862 255.428299 
L 214.873841 265.513363 
L 215.198821 268.455427 
L 215.5238 273.361525 
L 216.173759 275.496365 
L 216.498739 273.152066 
L 216.823718 266.320369 
L 217.148698 273.461612 
L 217.473677 269.169431 
L 217.798657 257.865779 
L 218.123636 266.13492 
L 218.448616 271.565177 
L 218.773595 259.884869 
L 219.098575 273.182937 
L 219.423554 248.598523 
L 219.748534 269.934603 
L 220.073514 268.044145 
L 220.398493 263.877279 
L 220.723473 257.623324 
L 221.048452 267.394988 
L 221.373432 254.505701 
L 221.698411 269.837438 
L 222.023391 268.44507 
L 222.34837 255.869206 
L 222.67335 266.929926 
L 222.998329 266.384071 
L 223.323309 269.673227 
L 223.648288 262.523463 
L 223.973268 271.93634 
L 224.298247 259.431218 
L 224.948206 281.428109 
L 225.273186 259.478593 
L 225.598165 259.273041 
L 225.923145 281.197333 
L 226.248124 255.654483 
L 226.573104 281.395778 
L 226.898084 282.728847 
L 227.223063 268.130554 
L 227.548043 268.949594 
L 227.873022 261.688661 
L 228.522981 259.812565 
L 228.847961 250.814318 
L 229.17294 266.654499 
L 229.49792 257.494917 
L 229.822899 277.832842 
L 230.147879 257.632577 
L 230.472858 276.487237 
L 230.797838 273.771198 
L 231.122817 274.047643 
L 231.447797 268.120748 
L 231.772776 278.627451 
L 232.097756 269.679277 
L 232.422735 272.43515 
L 232.747715 272.276737 
L 233.072695 264.99401 
L 233.397674 262.506104 
L 233.722654 271.748446 
L 234.372613 260.311641 
L 234.697592 275.998423 
L 235.022572 271.123905 
L 235.347551 273.362091 
L 235.672531 262.22558 
L 235.99751 266.501331 
L 236.32249 266.542618 
L 236.647469 273.345608 
L 236.972449 265.497915 
L 237.297428 263.241146 
L 237.622408 257.965616 
L 237.947387 268.492995 
L 238.272367 265.470914 
L 238.597346 256.236412 
L 238.922326 264.534336 
L 239.247305 257.649693 
L 239.897265 278.609376 
L 240.222244 271.352947 
L 240.547224 277.647951 
L 240.872203 268.13853 
L 241.197183 254.488359 
L 241.522162 277.095722 
L 242.172121 260.498843 
L 242.497101 260.263269 
L 242.82208 266.151434 
L 243.472039 259.944193 
L 243.797019 270.270553 
L 244.121998 259.494948 
L 244.446978 277.000137 
L 244.771957 264.170832 
L 245.096937 274.913338 
L 245.421916 273.871329 
L 245.746896 263.507722 
L 246.396855 280.902573 
L 246.721835 266.644551 
L 247.046814 272.428316 
L 247.371794 263.225048 
L 247.696773 274.700434 
L 248.021753 281.540681 
L 248.671712 253.983718 
L 248.996691 269.081625 
L 249.321671 275.206228 
L 249.64665 274.207372 
L 249.97163 270.032903 
L 250.296609 261.476823 
L 250.621589 258.61404 
L 250.946568 260.036603 
L 251.271548 273.924205 
L 251.921507 260.207722 
L 252.246486 260.450203 
L 252.571466 267.566738 
L 252.896446 259.707266 
L 253.221425 268.800368 
L 253.546405 267.263791 
L 253.871384 275.716369 
L 254.196364 258.875759 
L 254.521343 284.636818 
L 254.846323 267.680996 
L 255.171302 275.925282 
L 255.821261 265.958285 
L 256.146241 266.090858 
L 256.47122 267.903978 
L 256.7962 266.3078 
L 257.121179 262.501103 
L 257.446159 283.95006 
L 257.771138 266.858612 
L 258.096118 267.129633 
L 258.421097 274.550015 
L 258.746077 265.951356 
L 259.071057 265.987397 
L 259.396036 268.323014 
L 259.721016 278.921442 
L 260.045995 269.109558 
L 260.370975 277.728044 
L 260.695954 270.252275 
L 261.020934 283.136165 
L 261.345913 273.480498 
L 261.670893 279.274154 
L 261.995872 256.187464 
L 262.320852 269.870253 
L 262.645831 275.847511 
L 263.29579 281.012772 
L 263.62077 274.958508 
L 264.270729 260.743369 
L 264.595708 262.120509 
L 264.920688 269.889451 
L 265.245667 274.827044 
L 265.570647 273.534056 
L 265.895627 277.356062 
L 266.220606 265.598052 
L 266.545586 263.422929 
L 266.870565 274.01393 
L 267.195545 272.478907 
L 267.520524 278.203571 
L 267.845504 273.747578 
L 268.170483 274.37564 
L 268.495463 269.71036 
L 268.820442 272.281525 
L 269.145422 275.758863 
L 269.470401 277.973167 
L 269.795381 278.56609 
L 270.12036 268.617246 
L 270.44534 283.419718 
L 270.770319 265.559482 
L 271.095299 273.125387 
L 271.420278 273.42869 
L 271.745258 271.362982 
L 272.070238 277.880814 
L 272.395217 278.506305 
L 272.720197 283.305585 
L 273.045176 275.573871 
L 273.370156 279.919541 
L 273.695135 272.129992 
L 274.020115 272.37181 
L 274.345094 286.38583 
L 274.670074 277.524033 
L 274.995053 276.234561 
L 275.320033 283.782517 
L 275.645012 266.036999 
L 275.969992 262.005611 
L 276.294971 264.947435 
L 276.619951 277.486542 
L 276.94493 263.280441 
L 277.26991 271.140339 
L 277.594889 261.669777 
L 277.919869 271.813111 
L 278.244848 270.810074 
L 278.569828 269.194776 
L 278.894808 260.708742 
L 279.219787 278.62488 
L 279.544767 259.012876 
L 279.869746 284.365069 
L 280.194726 262.293313 
L 280.519705 261.680396 
L 281.169664 276.981867 
L 281.494644 264.115372 
L 282.144603 275.007456 
L 282.469582 263.59554 
L 282.794562 257.005053 
L 283.119541 277.11208 
L 283.444521 268.311261 
L 283.7695 270.13452 
L 284.09448 268.225128 
L 284.419459 269.140925 
L 284.744439 281.567559 
L 285.069419 272.803859 
L 285.719378 264.022339 
L 286.044357 274.300737 
L 286.369337 264.408561 
L 286.694316 273.818331 
L 287.019296 277.1195 
L 287.344275 268.401141 
L 287.669255 277.1357 
L 287.994234 266.859376 
L 288.319214 260.830577 
L 288.644193 262.881271 
L 288.969173 263.065579 
L 289.294152 276.172884 
L 289.619132 256.449898 
L 289.944111 276.534906 
L 290.269091 286.847834 
L 290.59407 263.036536 
L 290.91905 271.195713 
L 291.244029 243.614902 
L 291.569009 264.135301 
L 292.218968 287.117943 
L 292.543948 270.808721 
L 292.868927 265.923081 
L 293.193907 271.74169 
L 293.518886 257.222104 
L 293.843866 272.064667 
L 294.168845 273.519809 
L 294.493825 270.452446 
L 294.818804 276.611041 
L 295.143784 278.827516 
L 295.468763 257.945201 
L 295.793743 271.289338 
L 296.118722 271.83104 
L 296.443702 269.146113 
L 296.768681 269.820659 
L 297.093661 273.204209 
L 297.41864 278.068356 
L 298.0686 268.428556 
L 298.393579 266.135496 
L 298.718559 261.24625 
L 299.043538 277.921154 
L 299.368518 255.626358 
L 299.693497 269.165759 
L 300.018477 269.948233 
L 300.343456 284.342183 
L 300.668436 279.351395 
L 300.993415 266.370564 
L 301.318395 262.516167 
L 301.643374 269.749539 
L 301.968354 262.308652 
L 302.618313 276.9088 
L 302.943292 261.25378 
L 303.268272 274.817546 
L 303.593251 280.756523 
L 303.918231 275.553366 
L 304.24321 265.270789 
L 304.56819 275.656715 
L 304.89317 274.388408 
L 305.543129 259.250932 
L 305.868108 258.542266 
L 306.193088 259.094663 
L 306.518067 287.052491 
L 306.843047 265.694523 
L 307.168026 273.664922 
L 307.493006 274.27032 
L 307.817985 263.765906 
L 308.142965 271.644294 
L 308.467944 275.553722 
L 308.792924 283.999259 
L 309.117903 258.200374 
L 309.442883 257.455014 
L 309.767862 274.811074 
L 310.092842 271.346983 
L 310.417821 264.203487 
L 310.742801 276.383155 
L 311.39276 272.618444 
L 311.71774 264.208584 
L 312.042719 270.657456 
L 312.367699 273.477244 
L 312.692678 256.901027 
L 313.342637 285.46072 
L 313.667617 264.187391 
L 313.992596 266.339833 
L 314.317576 274.252966 
L 314.967535 268.219859 
L 315.292514 276.666062 
L 315.617494 270.329973 
L 315.942473 273.216847 
L 316.267453 265.545254 
L 316.592432 273.516742 
L 316.917412 274.176761 
L 317.242391 267.30257 
L 317.567371 276.557258 
L 317.892351 270.125762 
L 318.21733 271.453653 
L 318.54231 270.508356 
L 318.867289 281.709734 
L 319.192269 276.339422 
L 319.517248 276.230477 
L 319.842228 263.808711 
L 320.167207 265.87677 
L 320.492187 258.565147 
L 320.817166 262.17893 
L 321.142146 274.140845 
L 321.467125 265.898319 
L 321.792105 267.348736 
L 322.117084 262.287746 
L 322.442064 295.488 
L 322.767043 272.5097 
L 323.092023 270.274556 
L 323.417002 259.598273 
L 323.741982 273.842237 
L 324.391941 266.360583 
L 324.716921 266.739363 
L 325.0419 276.433873 
L 325.36688 280.899012 
L 325.691859 282.567925 
L 326.016839 281.367397 
L 326.666798 268.872601 
L 326.991777 276.214792 
L 327.316757 263.806068 
L 327.641736 263.888131 
L 327.966716 270.093494 
L 328.291695 269.910037 
L 328.616675 263.949543 
L 328.941654 274.60666 
L 329.266634 272.986619 
L 329.591613 282.453424 
L 329.916593 267.223772 
L 330.241572 269.180913 
L 330.566552 278.539081 
L 330.891532 273.082968 
L 331.216511 275.380131 
L 331.541491 276.262707 
L 331.86647 264.178583 
L 332.19145 277.886361 
L 332.516429 274.952822 
L 332.841409 270.274389 
L 333.166388 285.964864 
L 333.491368 271.548506 
L 333.816347 272.236071 
L 334.141327 270.454019 
L 334.466306 280.278008 
L 334.791286 275.994361 
L 335.116265 280.932842 
L 335.441245 276.192951 
L 335.766224 257.881288 
L 336.091204 273.984198 
L 336.416183 271.195809 
L 336.741163 270.815453 
L 337.066143 267.714625 
L 337.391122 266.206715 
L 337.716102 273.766651 
L 338.041081 271.660392 
L 338.69104 285.487907 
L 339.01602 277.538357 
L 339.340999 265.879819 
L 339.665979 281.373878 
L 339.990958 272.682156 
L 340.315938 272.77034 
L 340.640917 255.207653 
L 340.965897 276.70408 
L 341.290876 263.241506 
L 341.615856 285.260381 
L 341.940835 271.674301 
L 342.265815 265.324872 
L 342.590794 263.392393 
L 342.915774 279.710563 
L 343.240753 276.27435 
L 343.565733 259.429149 
L 343.890713 256.427715 
L 344.215692 273.925471 
L 344.540672 263.122019 
L 344.865651 279.378001 
L 345.190631 260.810018 
L 345.84059 270.8014 
L 346.165569 271.183185 
L 346.490549 277.876993 
L 346.815528 266.792495 
L 347.140508 284.595022 
L 347.465487 253.208024 
L 347.790467 267.601034 
L 348.115446 270.271578 
L 348.440426 278.170572 
L 348.765405 269.134958 
L 349.090385 271.59966 
L 349.415364 256.585397 
L 349.740344 277.111842 
L 350.065324 279.250977 
L 350.390303 276.745172 
L 350.715283 268.880807 
L 351.040262 277.029859 
L 351.365242 269.473006 
L 351.690221 266.370175 
L 352.015201 270.749878 
L 352.34018 270.856795 
L 352.990139 267.023431 
L 353.315119 281.676174 
L 353.640098 265.969735 
L 354.290057 277.424585 
L 354.615037 279.924818 
L 354.940016 273.274924 
L 355.264996 279.996466 
L 355.589975 273.934946 
L 355.914955 273.21397 
L 356.564914 288.00846 
L 356.889894 280.603116 
L 357.539853 263.653179 
L 357.864832 286.263401 
L 358.189812 269.862754 
L 358.514791 263.324232 
L 358.839771 285.994578 
L 359.16475 277.276206 
L 359.48973 279.546576 
L 359.814709 284.695773 
L 360.139689 284.300174 
L 360.464668 261.335147 
L 361.114627 271.445289 
L 361.439607 281.932858 
L 361.764586 278.400681 
L 362.089566 279.772277 
L 362.414545 262.880029 
L 362.739525 285.904073 
L 363.064505 269.137471 
L 363.389484 261.172708 
L 363.714464 269.040162 
L 364.039443 270.324791 
L 364.364423 279.15781 
L 364.689402 269.457106 
L 365.014382 269.543301 
L 365.339361 277.872944 
L 365.664341 271.337315 
L 365.98932 280.442944 
L 366.3143 268.912723 
L 366.639279 281.721645 
L 366.964259 277.821206 
L 367.289238 269.526062 
L 367.614218 271.660772 
L 367.939197 269.897544 
L 368.264177 275.582277 
L 368.589156 263.916995 
L 368.914136 278.866498 
L 369.239115 278.778992 
L 369.564095 265.648619 
L 369.889075 283.871881 
L 370.214054 266.407363 
L 370.539034 268.112362 
L 370.864013 272.145033 
L 371.188993 278.079414 
L 371.513972 261.15011 
L 371.838952 274.592077 
L 372.163931 266.029793 
L 372.488911 274.569481 
L 372.81389 262.499773 
L 373.13887 277.920137 
L 373.463849 279.156724 
L 373.788829 272.28844 
L 374.113808 268.614709 
L 374.438788 271.640728 
L 374.763767 262.519431 
L 375.088747 279.210178 
L 375.413726 279.748095 
L 375.738706 276.039914 
L 376.063686 279.489542 
L 376.388665 261.856065 
L 376.713645 270.810342 
L 377.038624 273.608114 
L 377.363604 269.79899 
L 377.688583 268.910143 
L 378.013563 277.318181 
L 378.338542 263.645951 
L 378.988501 283.127467 
L 379.313481 274.964844 
L 379.63846 284.466387 
L 379.96344 272.944179 
L 380.288419 276.691805 
L 380.613399 274.210148 
L 380.938378 274.790122 
L 381.263358 273.681484 
L 381.588337 270.236901 
L 381.913317 287.35043 
L 382.238296 273.282266 
L 382.563276 269.127432 
L 382.888256 267.608012 
L 383.213235 270.657696 
L 383.538215 278.503197 
L 384.188174 267.207607 
L 384.513153 269.35428 
L 384.838133 268.983827 
L 385.163112 267.490227 
L 385.488092 274.25623 
L 385.813071 257.841395 
L 386.46303 276.742302 
L 386.78801 272.315583 
L 387.112989 277.708234 
L 387.437969 265.289371 
L 387.762948 275.572356 
L 388.087928 270.103917 
L 388.412907 283.96639 
L 388.737887 283.417577 
L 389.062867 270.116387 
L 389.387846 280.302214 
L 389.712826 280.857638 
L 390.037805 275.176558 
L 390.362785 277.243545 
L 390.687764 275.006008 
L 391.012744 276.32616 
L 391.337723 267.963404 
L 391.662703 272.413217 
L 391.987682 270.699546 
L 392.312662 283.21281 
L 392.637641 276.455679 
L 392.962621 278.305347 
L 393.2876 272.837647 
L 393.61258 279.954591 
L 393.937559 284.183143 
L 394.262539 281.411403 
L 394.587518 271.04859 
L 394.912498 271.302203 
L 395.237477 267.744034 
L 395.562457 274.482582 
L 395.887437 285.613321 
L 396.212416 274.770922 
L 396.537396 269.563963 
L 396.862375 269.894213 
L 397.187355 261.045087 
L 397.512334 276.203577 
L 397.837314 271.238056 
L 398.162293 285.053275 
L 398.487273 277.139571 
L 398.487273 277.139571 
" style="fill:none;stroke:#1f77b4;stroke-linecap:square;stroke-width:1.5;"/>
   </g>
   <g id="line2d_13">
    <path clip-path="url(#p394994e32b)" d="M 73.832727 104.424037 
L 74.157707 104.812625 
L 74.807666 128.183436 
L 75.132645 136.462216 
L 75.457625 135.570086 
L 75.782604 113.590773 
L 76.432563 149.86655 
L 76.757543 148.311382 
L 77.407502 167.396547 
L 77.732482 160.357935 
L 78.057461 167.945086 
L 78.382441 168.99251 
L 78.70742 176.019825 
L 79.0324 175.592984 
L 79.357379 153.313638 
L 79.682359 172.755637 
L 80.007338 176.026595 
L 80.332318 182.904255 
L 80.982277 189.771587 
L 81.632236 184.6022 
L 81.957215 196.124931 
L 82.282195 195.10526 
L 82.607174 192.583354 
L 82.932154 191.872127 
L 83.257133 198.285533 
L 83.582113 198.012868 
L 83.907093 202.513132 
L 84.232072 204.300952 
L 84.557052 207.142839 
L 84.882031 212.290689 
L 85.53199 206.817088 
L 85.85697 207.93862 
L 86.181949 208.198899 
L 86.506929 205.309318 
L 86.831908 207.960538 
L 87.156888 198.12531 
L 87.481867 215.844619 
L 87.806847 215.5308 
L 88.131826 211.596549 
L 88.456806 218.349458 
L 88.781785 199.136933 
L 89.106765 214.375885 
L 89.431744 222.060689 
L 89.756724 208.8594 
L 90.081704 215.770649 
L 90.731663 223.528762 
L 91.056642 216.836336 
L 91.381622 224.861454 
L 92.031581 214.024696 
L 92.35656 224.901536 
L 92.68154 225.803344 
L 93.006519 228.855161 
L 93.331499 224.553354 
L 93.656478 222.102091 
L 94.306437 227.978199 
L 94.631417 225.12112 
L 94.956396 216.550638 
L 95.281376 231.68233 
L 95.606355 226.754535 
L 95.931335 223.733442 
L 96.256314 228.891896 
L 96.581294 220.356063 
L 96.906274 230.931161 
L 97.231253 224.019882 
L 97.556233 223.476341 
L 97.881212 228.102293 
L 98.206192 228.290192 
L 98.531171 229.512738 
L 98.856151 232.956512 
L 99.18113 230.535326 
L 99.50611 236.729134 
L 99.831089 229.152573 
L 100.156069 236.576188 
L 100.481048 227.658534 
L 100.806028 215.476948 
L 101.131007 235.721642 
L 101.455987 233.117233 
L 101.780966 236.397348 
L 102.105946 233.675421 
L 102.430925 237.946665 
L 102.755905 234.550536 
L 103.080885 217.247638 
L 103.405864 237.303479 
L 103.730844 223.864981 
L 104.055823 227.029199 
L 104.380803 237.54925 
L 104.705782 228.163836 
L 105.030762 243.152202 
L 105.355741 232.36626 
L 106.0057 224.388194 
L 106.33068 239.579741 
L 106.655659 239.529198 
L 106.980639 235.528718 
L 107.305618 239.792162 
L 107.630598 238.773834 
L 107.955577 234.384289 
L 108.280557 232.612998 
L 108.605536 239.298872 
L 108.930516 237.388835 
L 109.255495 249.817392 
L 109.580475 243.820772 
L 109.905455 244.309357 
L 110.230434 238.57771 
L 110.555414 246.635995 
L 110.880393 236.948162 
L 111.205373 245.145576 
L 111.530352 233.984452 
L 111.855332 236.727622 
L 112.505291 246.663792 
L 112.83027 232.792681 
L 113.15525 246.469074 
L 113.480229 229.843814 
L 113.805209 240.310466 
L 114.130188 230.718315 
L 114.455168 247.598579 
L 114.780147 237.424178 
L 115.430106 229.496349 
L 115.755086 240.513729 
L 116.080066 229.601476 
L 116.405045 238.824392 
L 116.730025 242.081721 
L 117.055004 237.472109 
L 117.379984 246.296361 
L 117.704963 241.693168 
L 118.029943 235.167106 
L 118.354922 239.802196 
L 118.679902 234.872241 
L 119.004881 241.517011 
L 119.329861 245.811876 
L 119.65484 241.2027 
L 120.304799 244.607387 
L 120.629779 241.925233 
L 120.954758 235.454099 
L 121.279738 243.319416 
L 121.604717 244.204878 
L 121.929697 234.452434 
L 122.254676 239.235845 
L 122.579656 239.203508 
L 122.904636 240.369767 
L 123.229615 245.226435 
L 123.554595 236.075176 
L 123.879574 251.298766 
L 124.529533 241.875518 
L 124.854513 240.400897 
L 125.179492 248.071037 
L 125.504472 229.848328 
L 126.154431 244.15031 
L 126.47941 243.281831 
L 126.80439 237.565585 
L 127.129369 242.984806 
L 127.454349 243.799152 
L 127.779328 248.028344 
L 128.104308 239.792282 
L 128.429287 242.695123 
L 128.754267 237.492012 
L 129.079247 248.373854 
L 129.404226 240.197508 
L 129.729206 248.532972 
L 130.054185 251.778067 
L 130.379165 243.425126 
L 130.704144 246.363227 
L 131.029124 242.297426 
L 131.354103 245.411636 
L 131.679083 242.052592 
L 132.004062 236.015967 
L 132.329042 243.888398 
L 132.654021 234.574326 
L 132.979001 239.570444 
L 133.30398 252.723061 
L 133.62896 238.040596 
L 133.953939 245.053247 
L 134.278919 235.112703 
L 134.603898 243.141166 
L 134.928878 242.134111 
L 135.253857 243.091323 
L 135.578837 225.337241 
L 135.903817 253.074146 
L 136.228796 242.767252 
L 136.553776 237.861109 
L 136.878755 237.196292 
L 137.203735 251.102941 
L 137.528714 246.022949 
L 137.853694 243.400822 
L 138.503653 249.952635 
L 138.828632 242.575229 
L 139.153612 232.123079 
L 139.478591 243.416459 
L 139.803571 247.054308 
L 140.12855 240.561436 
L 140.45353 237.760786 
L 140.778509 244.922733 
L 141.103489 254.565973 
L 141.428468 255.95504 
L 141.753448 241.189444 
L 142.078428 254.272438 
L 142.403407 239.929365 
L 142.728387 242.588131 
L 143.053366 234.827739 
L 143.378346 255.134063 
L 144.028305 241.906366 
L 144.353284 253.966939 
L 145.003243 245.735612 
L 145.328223 246.347467 
L 145.653202 244.043036 
L 145.978182 246.976914 
L 146.303161 241.154882 
L 146.628141 243.37224 
L 146.95312 256.13215 
L 147.2781 243.570428 
L 147.603079 241.016774 
L 147.928059 256.930102 
L 148.253038 250.984293 
L 148.578018 258.183383 
L 149.227977 247.523248 
L 149.552957 253.387845 
L 149.877936 236.426607 
L 150.202916 249.963955 
L 150.527895 255.568179 
L 150.852875 249.957361 
L 151.177854 247.757446 
L 151.502834 253.161921 
L 152.152793 256.87281 
L 152.477772 235.730605 
L 152.802752 248.099579 
L 153.127731 253.440126 
L 153.452711 244.172991 
L 153.77769 250.518483 
L 154.10267 253.809521 
L 154.427649 230.966734 
L 155.077609 249.978561 
L 155.727568 235.842855 
L 156.052547 249.476538 
L 156.377527 256.2481 
L 156.702506 258.804317 
L 157.027486 251.47312 
L 157.677445 257.870872 
L 158.652383 244.052644 
L 158.977363 253.425278 
L 159.302342 249.525852 
L 159.627322 250.999082 
L 160.277281 248.656856 
L 160.60226 243.275788 
L 161.252219 255.926647 
L 161.577199 254.083901 
L 161.902179 253.297948 
L 162.227158 258.407408 
L 162.877117 250.435715 
L 163.202097 245.914625 
L 163.527076 254.039355 
L 163.852056 253.232723 
L 164.177035 250.730145 
L 164.502015 256.198081 
L 164.826994 253.708497 
L 165.151974 246.780223 
L 165.476953 248.230757 
L 165.801933 254.179727 
L 166.126912 250.442353 
L 166.451892 250.092168 
L 166.776871 254.731587 
L 167.101851 245.456523 
L 168.07679 258.691094 
L 168.401769 251.769243 
L 168.726749 250.993417 
L 169.051728 245.895222 
L 169.376708 254.347561 
L 169.701687 252.168403 
L 170.351646 259.090161 
L 170.676626 252.652289 
L 171.001605 249.719761 
L 171.326585 258.298766 
L 171.651564 251.976704 
L 171.976544 255.146942 
L 172.301523 248.615507 
L 172.626503 244.919265 
L 172.951482 254.002447 
L 173.276462 252.099842 
L 173.601441 253.750517 
L 173.926421 254.000323 
L 174.2514 255.989028 
L 174.57638 252.009943 
L 174.90136 250.812779 
L 175.226339 253.182831 
L 175.551319 258.298402 
L 175.876298 252.530812 
L 176.201278 255.843476 
L 176.526257 254.092868 
L 176.851237 254.873809 
L 177.176216 249.781997 
L 177.501196 256.83812 
L 177.826175 251.767742 
L 178.151155 251.840136 
L 178.476134 256.759288 
L 178.801114 255.812227 
L 179.126093 265.67269 
L 179.451073 253.513767 
L 179.776052 264.662137 
L 180.101032 266.678134 
L 180.426011 259.960936 
L 180.750991 260.959524 
L 181.075971 257.630035 
L 181.40095 261.240975 
L 181.72593 256.564649 
L 182.050909 258.370707 
L 182.375889 258.008747 
L 182.700868 258.998017 
L 183.025848 245.917372 
L 183.350827 259.426626 
L 183.675807 256.669172 
L 184.000786 255.810333 
L 184.325766 244.447051 
L 184.650745 252.736724 
L 184.975725 251.29583 
L 185.300704 258.027673 
L 185.625684 255.811994 
L 185.950663 258.836823 
L 186.275643 266.200323 
L 186.600622 249.312362 
L 186.925602 262.38084 
L 187.250581 264.814684 
L 187.575561 252.063788 
L 187.900541 261.556606 
L 188.22552 258.482204 
L 188.5505 229.089593 
L 188.875479 253.891108 
L 189.200459 248.872387 
L 189.525438 259.618857 
L 189.850418 259.071608 
L 190.175397 264.807784 
L 190.500377 256.279004 
L 190.825356 259.955602 
L 191.150336 259.163644 
L 191.475315 258.895646 
L 191.800295 248.364357 
L 192.125274 257.382327 
L 192.450254 255.73708 
L 192.775233 255.881321 
L 193.100213 275.608268 
L 193.425192 259.432221 
L 193.750172 250.824598 
L 194.075152 261.852193 
L 194.400131 259.007636 
L 194.725111 268.484426 
L 195.05009 263.48904 
L 195.37507 265.225321 
L 195.700049 257.705196 
L 196.025029 253.527888 
L 196.350008 265.25745 
L 196.674988 256.115044 
L 196.999967 260.868498 
L 197.324947 249.821519 
L 197.649926 259.014065 
L 197.974906 254.301246 
L 198.299885 251.947635 
L 198.624865 258.322863 
L 199.274824 254.328087 
L 199.599803 254.979055 
L 199.924783 259.818365 
L 200.249762 252.81832 
L 200.574742 256.355354 
L 200.899722 272.034618 
L 201.224701 261.362661 
L 201.549681 261.471184 
L 201.87466 259.808782 
L 202.19964 261.083107 
L 202.524619 250.029991 
L 202.849599 261.356751 
L 203.174578 249.938428 
L 203.499558 252.39225 
L 203.824537 262.708286 
L 204.149517 261.543725 
L 204.474496 255.615646 
L 205.124455 260.645099 
L 205.774414 257.627763 
L 206.099394 268.403807 
L 206.424373 261.772336 
L 206.749353 258.657502 
L 207.074333 250.920836 
L 207.399312 261.032138 
L 207.724292 261.446077 
L 208.049271 252.004382 
L 208.374251 257.984814 
L 208.69923 260.939453 
L 209.02421 272.840898 
L 209.349189 269.108439 
L 209.674169 259.426852 
L 209.999148 242.951928 
L 210.974087 266.993771 
L 211.299066 262.403904 
L 211.624046 253.138656 
L 211.949025 261.512834 
L 212.274005 255.922265 
L 212.598984 259.390323 
L 212.923964 255.204553 
L 213.248943 264.696524 
L 213.573923 257.898624 
L 213.898903 236.221496 
L 214.223882 259.513997 
L 214.548862 258.76876 
L 214.873841 268.214528 
L 215.198821 265.837035 
L 215.5238 258.121026 
L 215.84878 256.968912 
L 216.173759 267.019996 
L 216.498739 264.556155 
L 216.823718 258.611485 
L 217.148698 262.762908 
L 217.473677 249.908772 
L 217.798657 258.687119 
L 218.123636 247.922671 
L 218.448616 267.251442 
L 218.773595 264.448761 
L 219.098575 258.652157 
L 219.423554 271.487837 
L 219.748534 270.031909 
L 220.073514 267.590067 
L 220.398493 269.513405 
L 220.723473 266.76229 
L 221.048452 267.838829 
L 221.373432 262.805037 
L 221.698411 264.831576 
L 222.023391 255.375661 
L 222.34837 254.652451 
L 222.67335 261.213643 
L 222.998329 263.710501 
L 223.323309 254.868696 
L 223.648288 257.947134 
L 223.973268 256.991077 
L 224.298247 257.387354 
L 224.623227 269.027225 
L 224.948206 264.234912 
L 225.273186 263.306992 
L 225.598165 263.261756 
L 225.923145 257.162851 
L 226.573104 262.406701 
L 226.898084 261.57516 
L 227.223063 254.259888 
L 227.548043 259.170879 
L 227.873022 257.378191 
L 228.522981 252.72628 
L 228.847961 263.125017 
L 229.17294 265.690675 
L 229.49792 258.757197 
L 229.822899 260.54145 
L 230.147879 267.042267 
L 230.472858 260.233175 
L 230.797838 263.187838 
L 231.122817 248.538275 
L 231.447797 265.817918 
L 231.772776 270.486158 
L 232.097756 263.334837 
L 232.422735 261.846183 
L 232.747715 266.415092 
L 233.072695 261.967145 
L 233.397674 265.546151 
L 233.722654 256.638698 
L 234.047633 227.074885 
L 234.372613 252.053838 
L 235.022572 264.821056 
L 235.347551 260.896424 
L 235.672531 266.74429 
L 235.99751 265.232395 
L 236.32249 257.825658 
L 236.647469 258.434127 
L 236.972449 261.818163 
L 237.297428 255.379169 
L 237.622408 259.17418 
L 237.947387 260.266054 
L 238.272367 271.072487 
L 238.597346 245.874338 
L 238.922326 255.164958 
L 239.247305 254.320895 
L 239.572285 267.056355 
L 239.897265 268.536347 
L 240.222244 253.871784 
L 240.547224 265.963045 
L 240.872203 264.063378 
L 241.847142 254.705521 
L 242.172121 267.780468 
L 242.497101 257.165379 
L 242.82208 258.024054 
L 243.14706 262.05087 
L 243.472039 262.576385 
L 243.797019 265.827348 
L 244.446978 256.252115 
L 244.771957 254.92822 
L 245.096937 272.114314 
L 245.421916 258.679561 
L 245.746896 259.07875 
L 246.071876 256.123468 
L 246.396855 265.538037 
L 246.721835 263.044819 
L 247.371794 253.373557 
L 247.696773 255.283804 
L 248.021753 259.313348 
L 248.346732 261.743259 
L 248.671712 255.336535 
L 248.996691 260.571514 
L 249.321671 256.597871 
L 249.97163 267.305334 
L 250.296609 266.801969 
L 250.621589 267.206379 
L 250.946568 260.508467 
L 251.271548 269.0463 
L 251.596527 259.936573 
L 251.921507 270.09936 
L 252.246486 258.529925 
L 252.571466 268.54301 
L 252.896446 262.26502 
L 253.221425 263.459823 
L 253.546405 260.550563 
L 253.871384 265.73499 
L 254.196364 253.2432 
L 254.521343 265.088277 
L 254.846323 256.845978 
L 255.171302 256.595266 
L 255.496282 256.80881 
L 255.821261 275.650317 
L 256.146241 262.460424 
L 256.47122 266.797668 
L 256.7962 256.025429 
L 257.121179 264.562681 
L 257.446159 259.395579 
L 257.771138 262.494966 
L 258.096118 256.220896 
L 258.421097 265.911889 
L 258.746077 258.151726 
L 259.071057 264.077957 
L 259.396036 259.575087 
L 259.721016 243.045303 
L 260.045995 268.525259 
L 260.370975 257.291596 
L 260.695954 260.339789 
L 261.020934 266.88299 
L 261.345913 267.950353 
L 261.670893 262.856332 
L 261.995872 263.749983 
L 262.320852 266.389376 
L 262.645831 254.136261 
L 263.29579 265.486643 
L 263.62077 264.674051 
L 263.945749 272.247817 
L 264.270729 267.854336 
L 264.595708 254.771795 
L 264.920688 269.844928 
L 265.245667 266.418277 
L 265.570647 268.73125 
L 265.895627 261.222373 
L 266.220606 257.705419 
L 266.545586 249.76359 
L 267.195545 268.230502 
L 267.520524 264.005397 
L 267.845504 270.581624 
L 268.170483 252.439381 
L 268.495463 267.725773 
L 268.820442 269.307669 
L 269.145422 269.574208 
L 269.470401 261.617695 
L 269.795381 265.068852 
L 270.12036 265.280576 
L 270.44534 256.143853 
L 271.095299 269.427853 
L 271.420278 268.386245 
L 271.745258 263.535273 
L 272.070238 270.280728 
L 272.395217 266.257883 
L 272.720197 269.752717 
L 273.045176 275.86575 
L 273.370156 265.485744 
L 273.695135 265.442183 
L 274.020115 270.294933 
L 274.670074 264.005549 
L 274.995053 263.058211 
L 275.320033 267.681406 
L 275.645012 268.671934 
L 275.969992 264.026574 
L 276.294971 267.308237 
L 276.619951 266.158688 
L 276.94493 258.224095 
L 277.26991 257.133224 
L 277.594889 273.533853 
L 277.919869 268.768125 
L 278.244848 262.132998 
L 278.569828 263.345904 
L 278.894808 257.317429 
L 279.219787 255.465952 
L 279.544767 260.189495 
L 279.869746 269.088002 
L 280.194726 256.660969 
L 280.519705 266.333079 
L 280.844685 260.571196 
L 281.169664 270.822945 
L 281.494644 267.053817 
L 281.819623 267.87328 
L 282.144603 266.504376 
L 282.794562 260.375245 
L 283.119541 251.325013 
L 283.444521 267.522731 
L 283.7695 261.766538 
L 284.419459 268.083413 
L 284.744439 268.494745 
L 285.069419 260.840141 
L 285.394398 267.442658 
L 285.719378 277.833575 
L 286.044357 258.987384 
L 286.369337 263.309296 
L 286.694316 264.319999 
L 287.019296 266.445865 
L 287.344275 255.472751 
L 287.669255 265.836694 
L 287.994234 265.596242 
L 288.319214 269.046669 
L 288.644193 252.798286 
L 288.969173 262.886976 
L 289.294152 255.419131 
L 289.944111 268.591901 
L 290.269091 256.885984 
L 290.59407 261.330632 
L 290.91905 273.875869 
L 291.244029 275.985927 
L 291.569009 263.073197 
L 291.893989 260.809546 
L 292.218968 265.775515 
L 292.543948 258.79386 
L 293.193907 273.658053 
L 293.518886 240.847526 
L 293.843866 260.420947 
L 294.168845 256.397304 
L 294.493825 275.547711 
L 294.818804 258.951322 
L 295.143784 265.39775 
L 295.468763 263.083885 
L 295.793743 262.644766 
L 296.118722 261.763942 
L 296.443702 269.967932 
L 296.768681 254.842414 
L 297.093661 270.29263 
L 297.41864 266.142209 
L 297.74362 264.230877 
L 298.0686 255.858675 
L 298.393579 258.56436 
L 298.718559 262.382352 
L 299.043538 256.763638 
L 299.368518 264.355724 
L 299.693497 267.672834 
L 300.018477 264.9845 
L 300.343456 258.206681 
L 300.993415 271.012958 
L 301.318395 251.720315 
L 301.643374 260.393056 
L 301.968354 260.350974 
L 302.293333 258.58622 
L 302.618313 258.606019 
L 302.943292 263.91203 
L 303.268272 256.058762 
L 303.593251 264.679317 
L 303.918231 268.674874 
L 304.24321 259.842563 
L 304.56819 266.733847 
L 304.89317 253.093919 
L 305.218149 264.591958 
L 305.543129 251.743961 
L 305.868108 258.230405 
L 306.193088 258.271147 
L 306.518067 258.425151 
L 306.843047 262.542463 
L 307.168026 272.544683 
L 307.493006 276.187865 
L 307.817985 259.551161 
L 308.142965 265.870811 
L 308.467944 267.539134 
L 308.792924 266.884897 
L 309.117903 261.510403 
L 309.442883 260.284274 
L 309.767862 261.868324 
L 310.092842 270.134022 
L 310.417821 269.551625 
L 310.742801 267.306094 
L 311.067781 266.422887 
L 311.39276 260.814487 
L 311.71774 258.432137 
L 312.367699 267.06296 
L 312.692678 241.544743 
L 313.017658 260.341771 
L 313.342637 263.787441 
L 313.667617 263.736778 
L 314.317576 256.316638 
L 314.642555 262.848095 
L 314.967535 259.768282 
L 315.292514 262.298297 
L 315.617494 269.475726 
L 315.942473 258.061869 
L 316.267453 264.432677 
L 316.592432 257.368378 
L 316.917412 271.438463 
L 317.242391 272.231215 
L 317.567371 258.931659 
L 318.21733 265.596506 
L 318.54231 263.80833 
L 318.867289 257.915753 
L 319.192269 261.311249 
L 319.517248 266.47443 
L 319.842228 269.651371 
L 320.167207 268.169369 
L 320.492187 268.79312 
L 320.817166 268.24966 
L 321.142146 259.33096 
L 321.467125 265.036499 
L 322.117084 251.218265 
L 322.442064 269.072028 
L 322.767043 259.970394 
L 323.092023 270.349111 
L 323.417002 263.463479 
L 323.741982 267.712195 
L 324.066962 262.809937 
L 324.391941 264.124723 
L 324.716921 273.985297 
L 325.0419 271.799715 
L 325.36688 262.897038 
L 325.691859 270.704271 
L 326.341818 253.423655 
L 326.666798 261.128758 
L 326.991777 249.26417 
L 327.641736 266.395971 
L 327.966716 271.507584 
L 328.291695 255.314594 
L 328.616675 265.892122 
L 328.941654 256.968688 
L 329.266634 267.767268 
L 329.591613 265.78626 
L 329.916593 266.39216 
L 330.241572 262.062448 
L 330.566552 267.200198 
L 330.891532 274.757367 
L 331.216511 267.130885 
L 331.541491 265.38516 
L 331.86647 262.419614 
L 332.19145 254.047275 
L 332.516429 265.222214 
L 332.841409 248.65646 
L 333.166388 264.896974 
L 333.491368 241.30552 
L 333.816347 265.733539 
L 334.141327 268.606635 
L 334.466306 266.878084 
L 334.791286 267.915831 
L 335.116265 271.978937 
L 335.441245 259.326932 
L 335.766224 274.089612 
L 336.091204 259.288639 
L 336.416183 263.828875 
L 336.741163 258.733272 
L 337.066143 258.555839 
L 337.391122 260.381345 
L 337.716102 267.309477 
L 338.041081 263.299977 
L 338.366061 265.993485 
L 338.69104 264.961642 
L 339.340999 259.396468 
L 339.665979 266.237364 
L 339.990958 257.944996 
L 340.315938 275.565739 
L 340.640917 261.867808 
L 340.965897 266.729214 
L 341.290876 260.190822 
L 341.615856 270.129745 
L 341.940835 268.358508 
L 342.265815 271.338475 
L 342.915774 257.560006 
L 343.240753 269.841279 
L 343.565733 265.209862 
L 343.890713 264.969364 
L 344.215692 259.424179 
L 344.865651 264.246455 
L 345.190631 261.084983 
L 345.51561 268.301568 
L 345.84059 262.038487 
L 346.165569 269.959567 
L 346.490549 261.519621 
L 346.815528 274.374986 
L 347.140508 260.21613 
L 347.465487 268.396319 
L 347.790467 254.200918 
L 348.115446 266.014186 
L 348.440426 258.463822 
L 348.765405 270.634601 
L 349.090385 267.187726 
L 349.415364 261.196636 
L 349.740344 265.506195 
L 350.065324 259.406533 
L 350.390303 262.276027 
L 351.040262 264.956382 
L 351.365242 258.598243 
L 351.690221 265.903719 
L 352.015201 268.209338 
L 352.34018 268.752795 
L 352.66516 268.318933 
L 352.990139 256.569085 
L 353.315119 251.245376 
L 353.640098 270.984687 
L 353.965078 259.301776 
L 354.290057 262.30035 
L 354.615037 270.440978 
L 354.940016 263.644715 
L 355.264996 274.815672 
L 355.589975 252.167972 
L 355.914955 273.240267 
L 356.239934 247.524971 
L 356.564914 257.981539 
L 357.214873 254.067417 
L 357.539853 269.121521 
L 357.864832 255.104175 
L 358.189812 271.753533 
L 359.16475 258.079339 
L 359.48973 267.938483 
L 359.814709 266.155444 
L 360.139689 258.289463 
L 360.464668 263.065529 
L 360.789648 270.446927 
L 361.114627 268.966671 
L 361.764586 263.11277 
L 362.089566 264.46556 
L 362.414545 262.947067 
L 362.739525 252.505506 
L 363.064505 256.331757 
L 363.389484 256.850306 
L 363.714464 260.04027 
L 364.039443 268.197087 
L 364.364423 261.502238 
L 364.689402 257.211496 
L 365.014382 269.62947 
L 365.98932 260.258595 
L 366.3143 265.108828 
L 366.639279 265.893017 
L 366.964259 262.60292 
L 367.289238 268.345329 
L 367.614218 257.426958 
L 368.264177 260.454819 
L 368.589156 258.025787 
L 368.914136 258.245419 
L 369.239115 253.056508 
L 369.564095 276.697919 
L 369.889075 262.895184 
L 370.214054 257.309264 
L 370.539034 269.965468 
L 370.864013 261.387584 
L 371.188993 260.160541 
L 371.513972 263.035015 
L 371.838952 260.754833 
L 372.163931 254.472578 
L 372.488911 270.419203 
L 372.81389 264.221479 
L 373.13887 266.588638 
L 373.463849 265.629691 
L 373.788829 266.561796 
L 374.113808 258.868625 
L 374.438788 261.249696 
L 374.763767 253.263462 
L 375.088747 268.643436 
L 375.413726 261.445244 
L 376.063686 253.549007 
L 376.388665 260.601617 
L 376.713645 259.858645 
L 377.038624 274.474685 
L 377.363604 259.297904 
L 377.688583 260.786741 
L 378.013563 258.196153 
L 378.338542 263.34757 
L 378.663522 261.8694 
L 378.988501 279.487513 
L 379.313481 259.903934 
L 379.96344 270.035885 
L 380.288419 258.604056 
L 380.613399 255.440922 
L 380.938378 273.070892 
L 381.263358 263.943247 
L 381.588337 264.377781 
L 381.913317 253.957505 
L 382.238296 262.316217 
L 382.563276 267.667113 
L 382.888256 259.785515 
L 383.213235 263.222626 
L 383.863194 252.324967 
L 384.188174 262.987363 
L 384.513153 263.478459 
L 384.838133 264.960894 
L 385.163112 268.715504 
L 385.488092 258.402913 
L 385.813071 265.434062 
L 386.138051 265.950628 
L 386.46303 256.127667 
L 386.78801 272.247891 
L 387.112989 259.687782 
L 387.437969 253.637209 
L 387.762948 254.822099 
L 388.087928 263.051743 
L 388.412907 261.233835 
L 388.737887 253.961972 
L 389.062867 264.648272 
L 389.387846 261.908842 
L 389.712826 254.291422 
L 390.037805 271.002876 
L 390.362785 266.144459 
L 390.687764 264.687452 
L 391.012744 268.829134 
L 391.337723 260.481703 
L 391.662703 266.529837 
L 391.987682 265.784041 
L 392.312662 264.594988 
L 392.637641 270.852082 
L 392.962621 254.720716 
L 393.2876 255.795237 
L 393.61258 255.600016 
L 393.937559 270.198694 
L 394.262539 260.683625 
L 394.587518 258.037393 
L 394.912498 262.632376 
L 395.562457 267.763831 
L 395.887437 265.573017 
L 396.212416 259.000977 
L 396.537396 269.531304 
L 396.862375 257.158517 
L 397.187355 270.694905 
L 397.512334 260.655238 
L 397.837314 263.852594 
L 398.162293 254.863585 
L 398.487273 269.406824 
L 398.487273 269.406824 
" style="fill:none;stroke:#ff7f0e;stroke-linecap:square;stroke-width:1.5;"/>
   </g>
   <g id="patch_3">
    <path d="M 57.6 307.584 
L 57.6 41.472 
" style="fill:none;stroke:#000000;stroke-linecap:square;stroke-linejoin:miter;stroke-width:0.8;"/>
   </g>
   <g id="patch_4">
    <path d="M 414.72 307.584 
L 414.72 41.472 
" style="fill:none;stroke:#000000;stroke-linecap:square;stroke-linejoin:miter;stroke-width:0.8;"/>
   </g>
   <g id="patch_5">
    <path d="M 57.6 307.584 
L 414.72 307.584 
" style="fill:none;stroke:#000000;stroke-linecap:square;stroke-linejoin:miter;stroke-width:0.8;"/>
   </g>
   <g id="patch_6">
    <path d="M 57.6 41.472 
L 414.72 41.472 
" style="fill:none;stroke:#000000;stroke-linecap:square;stroke-linejoin:miter;stroke-width:0.8;"/>
   </g>
   <g id="legend_1">
    <g id="patch_7">
     <path d="M 303.845 78.82825 
L 407.72 78.82825 
Q 409.72 78.82825 409.72 76.82825 
L 409.72 48.472 
Q 409.72 46.472 407.72 46.472 
L 303.845 46.472 
Q 301.845 46.472 301.845 48.472 
L 301.845 76.82825 
Q 301.845 78.82825 303.845 78.82825 
z
" style="fill:#ffffff;opacity:0.8;stroke:#cccccc;stroke-linejoin:miter;"/>
    </g>
    <g id="line2d_14">
     <path d="M 305.845 54.570437 
L 325.845 54.570437 
" style="fill:none;stroke:#1f77b4;stroke-linecap:square;stroke-width:1.5;"/>
    </g>
    <g id="line2d_15"/>
    <g id="text_13">
     <!-- Train loss -->
     <g transform="translate(333.845 58.070437)scale(0.1 -0.1)">
      <defs>
       <path d="M -19 4666 
L 3928 4666 
L 3928 4134 
L 2272 4134 
L 2272 0 
L 1638 0 
L 1638 4134 
L -19 4134 
L -19 4666 
z
" id="DejaVuSans-54" transform="scale(0.015625)"/>
       <path d="M 2631 2963 
Q 2534 3019 2420 3045 
Q 2306 3072 2169 3072 
Q 1681 3072 1420 2755 
Q 1159 2438 1159 1844 
L 1159 0 
L 581 0 
L 581 3500 
L 1159 3500 
L 1159 2956 
Q 1341 3275 1631 3429 
Q 1922 3584 2338 3584 
Q 2397 3584 2469 3576 
Q 2541 3569 2628 3553 
L 2631 2963 
z
" id="DejaVuSans-72" transform="scale(0.015625)"/>
       <path d="M 2194 1759 
Q 1497 1759 1228 1600 
Q 959 1441 959 1056 
Q 959 750 1161 570 
Q 1363 391 1709 391 
Q 2188 391 2477 730 
Q 2766 1069 2766 1631 
L 2766 1759 
L 2194 1759 
z
M 3341 1997 
L 3341 0 
L 2766 0 
L 2766 531 
Q 2569 213 2275 61 
Q 1981 -91 1556 -91 
Q 1019 -91 701 211 
Q 384 513 384 1019 
Q 384 1609 779 1909 
Q 1175 2209 1959 2209 
L 2766 2209 
L 2766 2266 
Q 2766 2663 2505 2880 
Q 2244 3097 1772 3097 
Q 1472 3097 1187 3025 
Q 903 2953 641 2809 
L 641 3341 
Q 956 3463 1253 3523 
Q 1550 3584 1831 3584 
Q 2591 3584 2966 3190 
Q 3341 2797 3341 1997 
z
" id="DejaVuSans-61" transform="scale(0.015625)"/>
       <path d="M 603 3500 
L 1178 3500 
L 1178 0 
L 603 0 
L 603 3500 
z
M 603 4863 
L 1178 4863 
L 1178 4134 
L 603 4134 
L 603 4863 
z
" id="DejaVuSans-69" transform="scale(0.015625)"/>
       <path d="M 3513 2113 
L 3513 0 
L 2938 0 
L 2938 2094 
Q 2938 2591 2744 2837 
Q 2550 3084 2163 3084 
Q 1697 3084 1428 2787 
Q 1159 2491 1159 1978 
L 1159 0 
L 581 0 
L 581 3500 
L 1159 3500 
L 1159 2956 
Q 1366 3272 1645 3428 
Q 1925 3584 2291 3584 
Q 2894 3584 3203 3211 
Q 3513 2838 3513 2113 
z
" id="DejaVuSans-6e" transform="scale(0.015625)"/>
       <path id="DejaVuSans-20" transform="scale(0.015625)"/>
       <path d="M 603 4863 
L 1178 4863 
L 1178 0 
L 603 0 
L 603 4863 
z
" id="DejaVuSans-6c" transform="scale(0.015625)"/>
       <path d="M 2834 3397 
L 2834 2853 
Q 2591 2978 2328 3040 
Q 2066 3103 1784 3103 
Q 1356 3103 1142 2972 
Q 928 2841 928 2578 
Q 928 2378 1081 2264 
Q 1234 2150 1697 2047 
L 1894 2003 
Q 2506 1872 2764 1633 
Q 3022 1394 3022 966 
Q 3022 478 2636 193 
Q 2250 -91 1575 -91 
Q 1294 -91 989 -36 
Q 684 19 347 128 
L 347 722 
Q 666 556 975 473 
Q 1284 391 1588 391 
Q 1994 391 2212 530 
Q 2431 669 2431 922 
Q 2431 1156 2273 1281 
Q 2116 1406 1581 1522 
L 1381 1569 
Q 847 1681 609 1914 
Q 372 2147 372 2553 
Q 372 3047 722 3315 
Q 1072 3584 1716 3584 
Q 2034 3584 2315 3537 
Q 2597 3491 2834 3397 
z
" id="DejaVuSans-73" transform="scale(0.015625)"/>
      </defs>
      <use xlink:href="#DejaVuSans-54"/>
      <use x="46.333984" xlink:href="#DejaVuSans-72"/>
      <use x="87.447266" xlink:href="#DejaVuSans-61"/>
      <use x="148.726562" xlink:href="#DejaVuSans-69"/>
      <use x="176.509766" xlink:href="#DejaVuSans-6e"/>
      <use x="239.888672" xlink:href="#DejaVuSans-20"/>
      <use x="271.675781" xlink:href="#DejaVuSans-6c"/>
      <use x="299.458984" xlink:href="#DejaVuSans-6f"/>
      <use x="360.640625" xlink:href="#DejaVuSans-73"/>
      <use x="412.740234" xlink:href="#DejaVuSans-73"/>
     </g>
    </g>
    <g id="line2d_16">
     <path d="M 305.845 69.248562 
L 325.845 69.248562 
" style="fill:none;stroke:#ff7f0e;stroke-linecap:square;stroke-width:1.5;"/>
    </g>
    <g id="line2d_17"/>
    <g id="text_14">
     <!-- Validation loss -->
     <g transform="translate(333.845 72.748562)scale(0.1 -0.1)">
      <defs>
       <path d="M 1831 0 
L 50 4666 
L 709 4666 
L 2188 738 
L 3669 4666 
L 4325 4666 
L 2547 0 
L 1831 0 
z
" id="DejaVuSans-56" transform="scale(0.015625)"/>
       <path d="M 2906 2969 
L 2906 4863 
L 3481 4863 
L 3481 0 
L 2906 0 
L 2906 525 
Q 2725 213 2448 61 
Q 2172 -91 1784 -91 
Q 1150 -91 751 415 
Q 353 922 353 1747 
Q 353 2572 751 3078 
Q 1150 3584 1784 3584 
Q 2172 3584 2448 3432 
Q 2725 3281 2906 2969 
z
M 947 1747 
Q 947 1113 1208 752 
Q 1469 391 1925 391 
Q 2381 391 2643 752 
Q 2906 1113 2906 1747 
Q 2906 2381 2643 2742 
Q 2381 3103 1925 3103 
Q 1469 3103 1208 2742 
Q 947 2381 947 1747 
z
" id="DejaVuSans-64" transform="scale(0.015625)"/>
       <path d="M 1172 4494 
L 1172 3500 
L 2356 3500 
L 2356 3053 
L 1172 3053 
L 1172 1153 
Q 1172 725 1289 603 
Q 1406 481 1766 481 
L 2356 481 
L 2356 0 
L 1766 0 
Q 1100 0 847 248 
Q 594 497 594 1153 
L 594 3053 
L 172 3053 
L 172 3500 
L 594 3500 
L 594 4494 
L 1172 4494 
z
" id="DejaVuSans-74" transform="scale(0.015625)"/>
      </defs>
      <use xlink:href="#DejaVuSans-56"/>
      <use x="60.658203" xlink:href="#DejaVuSans-61"/>
      <use x="121.9375" xlink:href="#DejaVuSans-6c"/>
      <use x="149.720703" xlink:href="#DejaVuSans-69"/>
      <use x="177.503906" xlink:href="#DejaVuSans-64"/>
      <use x="240.980469" xlink:href="#DejaVuSans-61"/>
      <use x="302.259766" xlink:href="#DejaVuSans-74"/>
      <use x="341.46875" xlink:href="#DejaVuSans-69"/>
      <use x="369.251953" xlink:href="#DejaVuSans-6f"/>
      <use x="430.433594" xlink:href="#DejaVuSans-6e"/>
      <use x="493.8125" xlink:href="#DejaVuSans-20"/>
      <use x="525.599609" xlink:href="#DejaVuSans-6c"/>
      <use x="553.382812" xlink:href="#DejaVuSans-6f"/>
      <use x="614.564453" xlink:href="#DejaVuSans-73"/>
      <use x="666.664062" xlink:href="#DejaVuSans-73"/>
     </g>
    </g>
   </g>
  </g>
 </g>
 <defs>
  <clipPath id="p394994e32b">
   <rect height="266.112" width="357.12" x="57.6" y="41.472"/>
  </clipPath>
 </defs>
</svg>
