<?xml version="1.0" encoding="utf-8" standalone="no"?>
<!DOCTYPE svg PUBLIC "-//W3C//DTD SVG 1.1//EN"
  "http://www.w3.org/Graphics/SVG/1.1/DTD/svg11.dtd">
<svg height="345.6pt" version="1.1" viewBox="0 0 460.8 345.6" width="460.8pt" xmlns="http://www.w3.org/2000/svg" xmlns:xlink="http://www.w3.org/1999/xlink">
 <metadata>
  <rdf:RDF xmlns:cc="http://creativecommons.org/ns#" xmlns:dc="http://purl.org/dc/elements/1.1/" xmlns:rdf="http://www.w3.org/1999/02/22-rdf-syntax-ns#">
   <cc:Work>
    <dc:type rdf:resource="http://purl.org/dc/dcmitype/StillImage"/>
    <dc:date>2021-07-19T13:00:31.548393</dc:date>
    <dc:format>image/svg+xml</dc:format>
    <dc:creator>
     <cc:Agent>
      <dc:title>Matplotlib v3.4.2, https://matplotlib.org/</dc:title>
     </cc:Agent>
    </dc:creator>
   </cc:Work>
  </rdf:RDF>
 </metadata>
 <defs>
  <style type="text/css">*{stroke-linecap:butt;stroke-linejoin:round;}</style>
 </defs>
 <g id="figure_1">
  <g id="patch_1">
   <path d="M 0 345.6 
L 460.8 345.6 
L 460.8 0 
L 0 0 
z
" style="fill:#ffffff;"/>
  </g>
  <g id="axes_1">
   <g id="patch_2">
    <path d="M 57.6 307.584 
L 414.72 307.584 
L 414.72 41.472 
L 57.6 41.472 
z
" style="fill:#ffffff;"/>
   </g>
   <g id="matplotlib.axis_1">
    <g id="xtick_1">
     <g id="line2d_1">
      <defs>
       <path d="M 0 0 
L 0 3.5 
" id="m4390b3bdd3" style="stroke:#000000;stroke-width:0.8;"/>
      </defs>
      <g>
       <use style="stroke:#000000;stroke-width:0.8;" x="73.507748" xlink:href="#m4390b3bdd3" y="307.584"/>
      </g>
     </g>
     <g id="text_1">
      <!-- 0 -->
      <g transform="translate(70.326498 322.182437)scale(0.1 -0.1)">
       <defs>
        <path d="M 2034 4250 
Q 1547 4250 1301 3770 
Q 1056 3291 1056 2328 
Q 1056 1369 1301 889 
Q 1547 409 2034 409 
Q 2525 409 2770 889 
Q 3016 1369 3016 2328 
Q 3016 3291 2770 3770 
Q 2525 4250 2034 4250 
z
M 2034 4750 
Q 2819 4750 3233 4129 
Q 3647 3509 3647 2328 
Q 3647 1150 3233 529 
Q 2819 -91 2034 -91 
Q 1250 -91 836 529 
Q 422 1150 422 2328 
Q 422 3509 836 4129 
Q 1250 4750 2034 4750 
z
" id="DejaVuSans-30" transform="scale(0.015625)"/>
       </defs>
       <use xlink:href="#DejaVuSans-30"/>
      </g>
     </g>
    </g>
    <g id="xtick_2">
     <g id="line2d_2">
      <g>
       <use style="stroke:#000000;stroke-width:0.8;" x="138.503653" xlink:href="#m4390b3bdd3" y="307.584"/>
      </g>
     </g>
     <g id="text_2">
      <!-- 200 -->
      <g transform="translate(128.959903 322.182437)scale(0.1 -0.1)">
       <defs>
        <path d="M 1228 531 
L 3431 531 
L 3431 0 
L 469 0 
L 469 531 
Q 828 903 1448 1529 
Q 2069 2156 2228 2338 
Q 2531 2678 2651 2914 
Q 2772 3150 2772 3378 
Q 2772 3750 2511 3984 
Q 2250 4219 1831 4219 
Q 1534 4219 1204 4116 
Q 875 4013 500 3803 
L 500 4441 
Q 881 4594 1212 4672 
Q 1544 4750 1819 4750 
Q 2544 4750 2975 4387 
Q 3406 4025 3406 3419 
Q 3406 3131 3298 2873 
Q 3191 2616 2906 2266 
Q 2828 2175 2409 1742 
Q 1991 1309 1228 531 
z
" id="DejaVuSans-32" transform="scale(0.015625)"/>
       </defs>
       <use xlink:href="#DejaVuSans-32"/>
       <use x="63.623047" xlink:href="#DejaVuSans-30"/>
       <use x="127.246094" xlink:href="#DejaVuSans-30"/>
      </g>
     </g>
    </g>
    <g id="xtick_3">
     <g id="line2d_3">
      <g>
       <use style="stroke:#000000;stroke-width:0.8;" x="203.499558" xlink:href="#m4390b3bdd3" y="307.584"/>
      </g>
     </g>
     <g id="text_3">
      <!-- 400 -->
      <g transform="translate(193.955808 322.182437)scale(0.1 -0.1)">
       <defs>
        <path d="M 2419 4116 
L 825 1625 
L 2419 1625 
L 2419 4116 
z
M 2253 4666 
L 3047 4666 
L 3047 1625 
L 3713 1625 
L 3713 1100 
L 3047 1100 
L 3047 0 
L 2419 0 
L 2419 1100 
L 313 1100 
L 313 1709 
L 2253 4666 
z
" id="DejaVuSans-34" transform="scale(0.015625)"/>
       </defs>
       <use xlink:href="#DejaVuSans-34"/>
       <use x="63.623047" xlink:href="#DejaVuSans-30"/>
       <use x="127.246094" xlink:href="#DejaVuSans-30"/>
      </g>
     </g>
    </g>
    <g id="xtick_4">
     <g id="line2d_4">
      <g>
       <use style="stroke:#000000;stroke-width:0.8;" x="268.495463" xlink:href="#m4390b3bdd3" y="307.584"/>
      </g>
     </g>
     <g id="text_4">
      <!-- 600 -->
      <g transform="translate(258.951713 322.182437)scale(0.1 -0.1)">
       <defs>
        <path d="M 2113 2584 
Q 1688 2584 1439 2293 
Q 1191 2003 1191 1497 
Q 1191 994 1439 701 
Q 1688 409 2113 409 
Q 2538 409 2786 701 
Q 3034 994 3034 1497 
Q 3034 2003 2786 2293 
Q 2538 2584 2113 2584 
z
M 3366 4563 
L 3366 3988 
Q 3128 4100 2886 4159 
Q 2644 4219 2406 4219 
Q 1781 4219 1451 3797 
Q 1122 3375 1075 2522 
Q 1259 2794 1537 2939 
Q 1816 3084 2150 3084 
Q 2853 3084 3261 2657 
Q 3669 2231 3669 1497 
Q 3669 778 3244 343 
Q 2819 -91 2113 -91 
Q 1303 -91 875 529 
Q 447 1150 447 2328 
Q 447 3434 972 4092 
Q 1497 4750 2381 4750 
Q 2619 4750 2861 4703 
Q 3103 4656 3366 4563 
z
" id="DejaVuSans-36" transform="scale(0.015625)"/>
       </defs>
       <use xlink:href="#DejaVuSans-36"/>
       <use x="63.623047" xlink:href="#DejaVuSans-30"/>
       <use x="127.246094" xlink:href="#DejaVuSans-30"/>
      </g>
     </g>
    </g>
    <g id="xtick_5">
     <g id="line2d_5">
      <g>
       <use style="stroke:#000000;stroke-width:0.8;" x="333.491368" xlink:href="#m4390b3bdd3" y="307.584"/>
      </g>
     </g>
     <g id="text_5">
      <!-- 800 -->
      <g transform="translate(323.947618 322.182437)scale(0.1 -0.1)">
       <defs>
        <path d="M 2034 2216 
Q 1584 2216 1326 1975 
Q 1069 1734 1069 1313 
Q 1069 891 1326 650 
Q 1584 409 2034 409 
Q 2484 409 2743 651 
Q 3003 894 3003 1313 
Q 3003 1734 2745 1975 
Q 2488 2216 2034 2216 
z
M 1403 2484 
Q 997 2584 770 2862 
Q 544 3141 544 3541 
Q 544 4100 942 4425 
Q 1341 4750 2034 4750 
Q 2731 4750 3128 4425 
Q 3525 4100 3525 3541 
Q 3525 3141 3298 2862 
Q 3072 2584 2669 2484 
Q 3125 2378 3379 2068 
Q 3634 1759 3634 1313 
Q 3634 634 3220 271 
Q 2806 -91 2034 -91 
Q 1263 -91 848 271 
Q 434 634 434 1313 
Q 434 1759 690 2068 
Q 947 2378 1403 2484 
z
M 1172 3481 
Q 1172 3119 1398 2916 
Q 1625 2713 2034 2713 
Q 2441 2713 2670 2916 
Q 2900 3119 2900 3481 
Q 2900 3844 2670 4047 
Q 2441 4250 2034 4250 
Q 1625 4250 1398 4047 
Q 1172 3844 1172 3481 
z
" id="DejaVuSans-38" transform="scale(0.015625)"/>
       </defs>
       <use xlink:href="#DejaVuSans-38"/>
       <use x="63.623047" xlink:href="#DejaVuSans-30"/>
       <use x="127.246094" xlink:href="#DejaVuSans-30"/>
      </g>
     </g>
    </g>
    <g id="xtick_6">
     <g id="line2d_6">
      <g>
       <use style="stroke:#000000;stroke-width:0.8;" x="398.487273" xlink:href="#m4390b3bdd3" y="307.584"/>
      </g>
     </g>
     <g id="text_6">
      <!-- 1000 -->
      <g transform="translate(385.762273 322.182437)scale(0.1 -0.1)">
       <defs>
        <path d="M 794 531 
L 1825 531 
L 1825 4091 
L 703 3866 
L 703 4441 
L 1819 4666 
L 2450 4666 
L 2450 531 
L 3481 531 
L 3481 0 
L 794 0 
L 794 531 
z
" id="DejaVuSans-31" transform="scale(0.015625)"/>
       </defs>
       <use xlink:href="#DejaVuSans-31"/>
       <use x="63.623047" xlink:href="#DejaVuSans-30"/>
       <use x="127.246094" xlink:href="#DejaVuSans-30"/>
       <use x="190.869141" xlink:href="#DejaVuSans-30"/>
      </g>
     </g>
    </g>
    <g id="text_7">
     <!-- Epoch -->
     <g transform="translate(213.193594 339.659781)scale(0.15 -0.15)">
      <defs>
       <path d="M 628 4666 
L 3578 4666 
L 3578 4134 
L 1259 4134 
L 1259 2753 
L 3481 2753 
L 3481 2222 
L 1259 2222 
L 1259 531 
L 3634 531 
L 3634 0 
L 628 0 
L 628 4666 
z
" id="DejaVuSans-45" transform="scale(0.015625)"/>
       <path d="M 1159 525 
L 1159 -1331 
L 581 -1331 
L 581 3500 
L 1159 3500 
L 1159 2969 
Q 1341 3281 1617 3432 
Q 1894 3584 2278 3584 
Q 2916 3584 3314 3078 
Q 3713 2572 3713 1747 
Q 3713 922 3314 415 
Q 2916 -91 2278 -91 
Q 1894 -91 1617 61 
Q 1341 213 1159 525 
z
M 3116 1747 
Q 3116 2381 2855 2742 
Q 2594 3103 2138 3103 
Q 1681 3103 1420 2742 
Q 1159 2381 1159 1747 
Q 1159 1113 1420 752 
Q 1681 391 2138 391 
Q 2594 391 2855 752 
Q 3116 1113 3116 1747 
z
" id="DejaVuSans-70" transform="scale(0.015625)"/>
       <path d="M 1959 3097 
Q 1497 3097 1228 2736 
Q 959 2375 959 1747 
Q 959 1119 1226 758 
Q 1494 397 1959 397 
Q 2419 397 2687 759 
Q 2956 1122 2956 1747 
Q 2956 2369 2687 2733 
Q 2419 3097 1959 3097 
z
M 1959 3584 
Q 2709 3584 3137 3096 
Q 3566 2609 3566 1747 
Q 3566 888 3137 398 
Q 2709 -91 1959 -91 
Q 1206 -91 779 398 
Q 353 888 353 1747 
Q 353 2609 779 3096 
Q 1206 3584 1959 3584 
z
" id="DejaVuSans-6f" transform="scale(0.015625)"/>
       <path d="M 3122 3366 
L 3122 2828 
Q 2878 2963 2633 3030 
Q 2388 3097 2138 3097 
Q 1578 3097 1268 2742 
Q 959 2388 959 1747 
Q 959 1106 1268 751 
Q 1578 397 2138 397 
Q 2388 397 2633 464 
Q 2878 531 3122 666 
L 3122 134 
Q 2881 22 2623 -34 
Q 2366 -91 2075 -91 
Q 1284 -91 818 406 
Q 353 903 353 1747 
Q 353 2603 823 3093 
Q 1294 3584 2113 3584 
Q 2378 3584 2631 3529 
Q 2884 3475 3122 3366 
z
" id="DejaVuSans-63" transform="scale(0.015625)"/>
       <path d="M 3513 2113 
L 3513 0 
L 2938 0 
L 2938 2094 
Q 2938 2591 2744 2837 
Q 2550 3084 2163 3084 
Q 1697 3084 1428 2787 
Q 1159 2491 1159 1978 
L 1159 0 
L 581 0 
L 581 4863 
L 1159 4863 
L 1159 2956 
Q 1366 3272 1645 3428 
Q 1925 3584 2291 3584 
Q 2894 3584 3203 3211 
Q 3513 2838 3513 2113 
z
" id="DejaVuSans-68" transform="scale(0.015625)"/>
      </defs>
      <use xlink:href="#DejaVuSans-45"/>
      <use x="63.183594" xlink:href="#DejaVuSans-70"/>
      <use x="126.660156" xlink:href="#DejaVuSans-6f"/>
      <use x="187.841797" xlink:href="#DejaVuSans-63"/>
      <use x="242.822266" xlink:href="#DejaVuSans-68"/>
     </g>
    </g>
   </g>
   <g id="matplotlib.axis_2">
    <g id="ytick_1">
     <g id="line2d_7">
      <defs>
       <path d="M 0 0 
L -3.5 0 
" id="m75efbaa279" style="stroke:#000000;stroke-width:0.8;"/>
      </defs>
      <g>
       <use style="stroke:#000000;stroke-width:0.8;" x="57.6" xlink:href="#m75efbaa279" y="307.584"/>
      </g>
     </g>
     <g id="text_8">
      <!-- 0.0 -->
      <g transform="translate(34.696875 311.383219)scale(0.1 -0.1)">
       <defs>
        <path d="M 684 794 
L 1344 794 
L 1344 0 
L 684 0 
L 684 794 
z
" id="DejaVuSans-2e" transform="scale(0.015625)"/>
       </defs>
       <use xlink:href="#DejaVuSans-30"/>
       <use x="63.623047" xlink:href="#DejaVuSans-2e"/>
       <use x="95.410156" xlink:href="#DejaVuSans-30"/>
      </g>
     </g>
    </g>
    <g id="ytick_2">
     <g id="line2d_8">
      <g>
       <use style="stroke:#000000;stroke-width:0.8;" x="57.6" xlink:href="#m75efbaa279" y="254.3616"/>
      </g>
     </g>
     <g id="text_9">
      <!-- 0.2 -->
      <g transform="translate(34.696875 258.160819)scale(0.1 -0.1)">
       <use xlink:href="#DejaVuSans-30"/>
       <use x="63.623047" xlink:href="#DejaVuSans-2e"/>
       <use x="95.410156" xlink:href="#DejaVuSans-32"/>
      </g>
     </g>
    </g>
    <g id="ytick_3">
     <g id="line2d_9">
      <g>
       <use style="stroke:#000000;stroke-width:0.8;" x="57.6" xlink:href="#m75efbaa279" y="201.1392"/>
      </g>
     </g>
     <g id="text_10">
      <!-- 0.4 -->
      <g transform="translate(34.696875 204.938419)scale(0.1 -0.1)">
       <use xlink:href="#DejaVuSans-30"/>
       <use x="63.623047" xlink:href="#DejaVuSans-2e"/>
       <use x="95.410156" xlink:href="#DejaVuSans-34"/>
      </g>
     </g>
    </g>
    <g id="ytick_4">
     <g id="line2d_10">
      <g>
       <use style="stroke:#000000;stroke-width:0.8;" x="57.6" xlink:href="#m75efbaa279" y="147.9168"/>
      </g>
     </g>
     <g id="text_11">
      <!-- 0.6 -->
      <g transform="translate(34.696875 151.716019)scale(0.1 -0.1)">
       <use xlink:href="#DejaVuSans-30"/>
       <use x="63.623047" xlink:href="#DejaVuSans-2e"/>
       <use x="95.410156" xlink:href="#DejaVuSans-36"/>
      </g>
     </g>
    </g>
    <g id="ytick_5">
     <g id="line2d_11">
      <g>
       <use style="stroke:#000000;stroke-width:0.8;" x="57.6" xlink:href="#m75efbaa279" y="94.6944"/>
      </g>
     </g>
     <g id="text_12">
      <!-- 0.8 -->
      <g transform="translate(34.696875 98.493619)scale(0.1 -0.1)">
       <use xlink:href="#DejaVuSans-30"/>
       <use x="63.623047" xlink:href="#DejaVuSans-2e"/>
       <use x="95.410156" xlink:href="#DejaVuSans-38"/>
      </g>
     </g>
    </g>
    <g id="ytick_6">
     <g id="line2d_12">
      <g>
       <use style="stroke:#000000;stroke-width:0.8;" x="57.6" xlink:href="#m75efbaa279" y="41.472"/>
      </g>
     </g>
     <g id="text_13">
      <!-- 1.0 -->
      <g transform="translate(34.696875 45.271219)scale(0.1 -0.1)">
       <use xlink:href="#DejaVuSans-31"/>
       <use x="63.623047" xlink:href="#DejaVuSans-2e"/>
       <use x="95.410156" xlink:href="#DejaVuSans-30"/>
      </g>
     </g>
    </g>
    <g id="text_14">
     <!-- Accuracy -->
     <g transform="translate(27.577344 208.770187)rotate(-90)scale(0.15 -0.15)">
      <defs>
       <path d="M 2188 4044 
L 1331 1722 
L 3047 1722 
L 2188 4044 
z
M 1831 4666 
L 2547 4666 
L 4325 0 
L 3669 0 
L 3244 1197 
L 1141 1197 
L 716 0 
L 50 0 
L 1831 4666 
z
" id="DejaVuSans-41" transform="scale(0.015625)"/>
       <path d="M 544 1381 
L 544 3500 
L 1119 3500 
L 1119 1403 
Q 1119 906 1312 657 
Q 1506 409 1894 409 
Q 2359 409 2629 706 
Q 2900 1003 2900 1516 
L 2900 3500 
L 3475 3500 
L 3475 0 
L 2900 0 
L 2900 538 
Q 2691 219 2414 64 
Q 2138 -91 1772 -91 
Q 1169 -91 856 284 
Q 544 659 544 1381 
z
M 1991 3584 
L 1991 3584 
z
" id="DejaVuSans-75" transform="scale(0.015625)"/>
       <path d="M 2631 2963 
Q 2534 3019 2420 3045 
Q 2306 3072 2169 3072 
Q 1681 3072 1420 2755 
Q 1159 2438 1159 1844 
L 1159 0 
L 581 0 
L 581 3500 
L 1159 3500 
L 1159 2956 
Q 1341 3275 1631 3429 
Q 1922 3584 2338 3584 
Q 2397 3584 2469 3576 
Q 2541 3569 2628 3553 
L 2631 2963 
z
" id="DejaVuSans-72" transform="scale(0.015625)"/>
       <path d="M 2194 1759 
Q 1497 1759 1228 1600 
Q 959 1441 959 1056 
Q 959 750 1161 570 
Q 1363 391 1709 391 
Q 2188 391 2477 730 
Q 2766 1069 2766 1631 
L 2766 1759 
L 2194 1759 
z
M 3341 1997 
L 3341 0 
L 2766 0 
L 2766 531 
Q 2569 213 2275 61 
Q 1981 -91 1556 -91 
Q 1019 -91 701 211 
Q 384 513 384 1019 
Q 384 1609 779 1909 
Q 1175 2209 1959 2209 
L 2766 2209 
L 2766 2266 
Q 2766 2663 2505 2880 
Q 2244 3097 1772 3097 
Q 1472 3097 1187 3025 
Q 903 2953 641 2809 
L 641 3341 
Q 956 3463 1253 3523 
Q 1550 3584 1831 3584 
Q 2591 3584 2966 3190 
Q 3341 2797 3341 1997 
z
" id="DejaVuSans-61" transform="scale(0.015625)"/>
       <path d="M 2059 -325 
Q 1816 -950 1584 -1140 
Q 1353 -1331 966 -1331 
L 506 -1331 
L 506 -850 
L 844 -850 
Q 1081 -850 1212 -737 
Q 1344 -625 1503 -206 
L 1606 56 
L 191 3500 
L 800 3500 
L 1894 763 
L 2988 3500 
L 3597 3500 
L 2059 -325 
z
" id="DejaVuSans-79" transform="scale(0.015625)"/>
      </defs>
      <use xlink:href="#DejaVuSans-41"/>
      <use x="66.658203" xlink:href="#DejaVuSans-63"/>
      <use x="121.638672" xlink:href="#DejaVuSans-63"/>
      <use x="176.619141" xlink:href="#DejaVuSans-75"/>
      <use x="239.998047" xlink:href="#DejaVuSans-72"/>
      <use x="281.111328" xlink:href="#DejaVuSans-61"/>
      <use x="342.390625" xlink:href="#DejaVuSans-63"/>
      <use x="397.371094" xlink:href="#DejaVuSans-79"/>
     </g>
    </g>
   </g>
   <g id="line2d_13">
    <path clip-path="url(#p984e33bb4a)" d="M 73.832727 275.65056 
L 74.157707 280.9728 
L 74.482686 280.9728 
L 74.807666 284.96448 
L 75.132645 283.63392 
L 75.457625 283.63392 
L 76.107584 280.9728 
L 76.432563 292.94784 
L 76.757543 282.30336 
L 77.082523 288.95616 
L 77.407502 287.6256 
L 77.732482 280.9728 
L 78.057461 282.30336 
L 78.382441 284.96448 
L 78.70742 279.64224 
L 79.0324 278.31168 
L 79.357379 282.30336 
L 79.682359 288.95616 
L 80.007338 280.9728 
L 80.332318 279.64224 
L 80.657297 284.96448 
L 80.982277 284.96448 
L 81.307256 278.31168 
L 81.632236 286.29504 
L 81.957215 287.6256 
L 82.282195 283.63392 
L 82.607174 291.61728 
L 82.932154 288.95616 
L 83.582113 278.31168 
L 83.907093 279.64224 
L 84.232072 294.2784 
L 84.557052 280.9728 
L 84.882031 276.98112 
L 85.207011 276.98112 
L 85.53199 283.63392 
L 85.85697 276.98112 
L 86.181949 286.29504 
L 86.506929 280.9728 
L 86.831908 280.9728 
L 87.156888 283.63392 
L 87.481867 272.98944 
L 87.806847 290.28672 
L 88.131826 279.64224 
L 88.781785 282.30336 
L 89.106765 275.65056 
L 89.431744 288.95616 
L 89.756724 290.28672 
L 90.081704 276.98112 
L 90.731663 287.6256 
L 91.381622 278.31168 
L 92.031581 280.9728 
L 92.35656 275.65056 
L 93.006519 292.94784 
L 93.331499 278.31168 
L 93.656478 272.98944 
L 93.981458 270.32832 
L 94.306437 276.98112 
L 94.631417 270.32832 
L 94.956396 282.30336 
L 95.281376 270.32832 
L 95.606355 270.32832 
L 95.931335 258.35328 
L 96.256314 267.6672 
L 96.581294 266.33664 
L 96.906274 262.34496 
L 97.231253 254.3616 
L 97.556233 262.34496 
L 97.881212 251.70048 
L 98.206192 261.0144 
L 98.531171 261.0144 
L 98.856151 254.3616 
L 99.18113 255.69216 
L 99.50611 265.00608 
L 99.831089 253.03104 
L 100.156069 254.3616 
L 100.481048 258.35328 
L 100.806028 253.03104 
L 101.131007 255.69216 
L 101.455987 259.68384 
L 101.780966 251.70048 
L 102.105946 249.03936 
L 102.430925 250.36992 
L 102.755905 259.68384 
L 103.080885 254.3616 
L 103.405864 253.03104 
L 103.730844 255.69216 
L 104.055823 247.7088 
L 104.380803 250.36992 
L 104.705782 255.69216 
L 105.355741 242.38656 
L 106.0057 250.36992 
L 106.33068 239.72544 
L 106.655659 243.71712 
L 106.980639 242.38656 
L 107.305618 243.71712 
L 107.630598 250.36992 
L 108.280557 241.056 
L 108.605536 246.37824 
L 108.930516 234.4032 
L 109.255495 249.03936 
L 109.580475 245.04768 
L 110.230434 253.03104 
L 110.555414 242.38656 
L 111.205373 233.07264 
L 111.530352 238.39488 
L 111.855332 241.056 
L 112.180311 238.39488 
L 112.505291 226.41984 
L 112.83027 242.38656 
L 113.15525 229.08096 
L 113.480229 246.37824 
L 114.130188 237.06432 
L 114.455168 238.39488 
L 114.780147 226.41984 
L 115.105127 246.37824 
L 116.405045 230.41152 
L 116.730025 231.74208 
L 117.055004 231.74208 
L 117.379984 213.11424 
L 117.704963 230.41152 
L 118.029943 231.74208 
L 118.354922 214.4448 
L 118.679902 235.73376 
L 119.004881 218.43648 
L 119.329861 233.07264 
L 119.65484 230.41152 
L 119.97982 223.75872 
L 120.304799 227.7504 
L 120.629779 214.4448 
L 120.954758 217.10592 
L 121.279738 218.43648 
L 121.604717 214.4448 
L 121.929697 214.4448 
L 122.254676 205.13088 
L 122.579656 219.76704 
L 122.904636 206.46144 
L 123.229615 206.46144 
L 123.554595 214.4448 
L 123.879574 209.12256 
L 124.204554 221.0976 
L 124.529533 210.45312 
L 124.854513 217.10592 
L 125.179492 210.45312 
L 125.504472 206.46144 
L 125.829451 198.47808 
L 126.154431 210.45312 
L 126.47941 205.13088 
L 126.80439 203.80032 
L 127.129369 195.81696 
L 127.454349 211.78368 
L 127.779328 197.14752 
L 128.104308 205.13088 
L 128.429287 207.792 
L 128.754267 198.47808 
L 129.079247 201.1392 
L 129.404226 206.46144 
L 129.729206 193.15584 
L 130.054185 209.12256 
L 130.379165 183.84192 
L 131.029124 202.46976 
L 131.679083 199.80864 
L 132.004062 201.1392 
L 132.329042 201.1392 
L 132.654021 210.45312 
L 132.979001 193.15584 
L 133.30398 186.50304 
L 133.62896 201.1392 
L 133.953939 201.1392 
L 134.278919 209.12256 
L 134.603898 195.81696 
L 134.928878 189.16416 
L 135.253857 185.17248 
L 135.578837 198.47808 
L 135.903817 194.4864 
L 136.228796 186.50304 
L 136.553776 193.15584 
L 136.878755 187.8336 
L 137.203735 190.49472 
L 137.528714 194.4864 
L 137.853694 181.1808 
L 138.178673 197.14752 
L 138.503653 182.51136 
L 138.828632 189.16416 
L 139.153612 185.17248 
L 139.478591 194.4864 
L 139.803571 175.85856 
L 140.12855 194.4864 
L 140.45353 175.85856 
L 140.778509 174.528 
L 141.103489 177.18912 
L 141.428468 159.89184 
L 141.753448 174.528 
L 142.078428 183.84192 
L 142.403407 182.51136 
L 143.053366 159.89184 
L 143.378346 186.50304 
L 143.703325 165.21408 
L 144.028305 183.84192 
L 144.353284 163.88352 
L 144.678264 173.19744 
L 145.003243 158.56128 
L 145.328223 158.56128 
L 145.653202 173.19744 
L 145.978182 161.2224 
L 146.303161 143.92512 
L 146.628141 185.17248 
L 146.95312 173.19744 
L 147.2781 170.53632 
L 147.603079 158.56128 
L 147.928059 159.89184 
L 148.253038 175.85856 
L 148.578018 169.20576 
L 148.902998 166.54464 
L 149.227977 149.24736 
L 149.552957 149.24736 
L 149.877936 158.56128 
L 150.202916 147.9168 
L 150.527895 159.89184 
L 150.852875 155.90016 
L 151.177854 139.93344 
L 151.502834 178.51968 
L 151.827813 146.58624 
L 152.152793 169.20576 
L 152.477772 149.24736 
L 152.802752 139.93344 
L 153.127731 163.88352 
L 153.452711 162.55296 
L 153.77769 153.23904 
L 154.10267 153.23904 
L 154.427649 162.55296 
L 154.752629 166.54464 
L 155.077609 165.21408 
L 155.402588 153.23904 
L 155.727568 163.88352 
L 156.052547 150.57792 
L 156.377527 154.5696 
L 156.702506 151.90848 
L 157.027486 145.25568 
L 157.352465 134.6112 
L 157.677445 131.95008 
L 158.002424 159.89184 
L 158.327404 146.58624 
L 158.652383 145.25568 
L 158.977363 133.28064 
L 159.302342 155.90016 
L 159.952301 133.28064 
L 160.277281 129.28896 
L 160.60226 135.94176 
L 160.92724 139.93344 
L 161.252219 151.90848 
L 161.577199 139.93344 
L 161.902179 139.93344 
L 162.552138 129.28896 
L 163.202097 131.95008 
L 163.527076 135.94176 
L 163.852056 151.90848 
L 164.177035 149.24736 
L 164.502015 149.24736 
L 164.826994 125.29728 
L 165.151974 142.59456 
L 165.476953 145.25568 
L 165.801933 138.60288 
L 166.126912 139.93344 
L 166.451892 139.93344 
L 166.776871 137.27232 
L 167.101851 135.94176 
L 167.42683 130.61952 
L 167.75181 138.60288 
L 168.07679 105.33888 
L 168.401769 145.25568 
L 168.726749 121.3056 
L 169.051728 133.28064 
L 169.701687 118.64448 
L 170.026667 134.6112 
L 170.351646 121.3056 
L 170.676626 139.93344 
L 171.001605 130.61952 
L 171.326585 138.60288 
L 171.651564 114.6528 
L 172.301523 130.61952 
L 172.626503 111.99168 
L 172.951482 123.96672 
L 173.276462 117.31392 
L 173.601441 117.31392 
L 173.926421 131.95008 
L 174.2514 123.96672 
L 174.57638 119.97504 
L 174.90136 127.9584 
L 175.226339 111.99168 
L 175.551319 121.3056 
L 175.876298 125.29728 
L 176.201278 106.66944 
L 176.526257 118.64448 
L 176.851237 108 
L 177.501196 129.28896 
L 177.826175 111.99168 
L 178.151155 118.64448 
L 178.476134 104.00832 
L 178.801114 115.98336 
L 179.126093 122.63616 
L 179.451073 97.35552 
L 179.776052 119.97504 
L 180.101032 105.33888 
L 180.426011 123.96672 
L 180.750991 111.99168 
L 181.075971 105.33888 
L 181.40095 126.62784 
L 181.72593 111.99168 
L 182.050909 117.31392 
L 182.700868 108 
L 183.025848 114.6528 
L 183.350827 113.32224 
L 183.675807 92.03328 
L 184.000786 114.6528 
L 184.650745 114.6528 
L 184.975725 126.62784 
L 185.300704 106.66944 
L 185.625684 104.00832 
L 185.950663 96.02496 
L 186.275643 111.99168 
L 186.600622 109.33056 
L 186.925602 104.00832 
L 187.250581 102.67776 
L 187.575561 104.00832 
L 187.900541 118.64448 
L 188.22552 102.67776 
L 188.5505 106.66944 
L 188.875479 123.96672 
L 189.200459 98.68608 
L 189.525438 111.99168 
L 189.850418 104.00832 
L 190.175397 100.01664 
L 190.500377 104.00832 
L 191.150336 90.70272 
L 191.475315 93.36384 
L 191.800295 78.72768 
L 192.125274 105.33888 
L 192.450254 104.00832 
L 192.775233 98.68608 
L 193.100213 88.0416 
L 193.425192 108 
L 194.400131 77.39712 
L 194.725111 92.03328 
L 195.05009 97.35552 
L 195.37507 81.3888 
L 195.700049 100.01664 
L 196.350008 85.38048 
L 196.674988 90.70272 
L 196.999967 92.03328 
L 197.324947 74.736 
L 197.649926 82.71936 
L 197.974906 114.6528 
L 198.299885 89.37216 
L 198.624865 92.03328 
L 198.949844 89.37216 
L 199.274824 85.38048 
L 199.599803 93.36384 
L 199.924783 96.02496 
L 200.249762 101.3472 
L 200.574742 78.72768 
L 200.899722 84.04992 
L 201.224701 111.99168 
L 201.549681 80.05824 
L 201.87466 90.70272 
L 202.19964 96.02496 
L 202.524619 106.66944 
L 202.849599 100.01664 
L 203.499558 81.3888 
L 203.824537 77.39712 
L 204.149517 78.72768 
L 204.474496 93.36384 
L 204.799476 76.06656 
L 205.124455 90.70272 
L 205.449435 82.71936 
L 205.774414 93.36384 
L 206.099394 80.05824 
L 206.424373 92.03328 
L 206.749353 85.38048 
L 207.074333 84.04992 
L 207.399312 80.05824 
L 207.724292 96.02496 
L 208.049271 102.67776 
L 208.374251 93.36384 
L 209.674169 72.07488 
L 209.999148 72.07488 
L 210.324128 100.01664 
L 210.974087 80.05824 
L 211.624046 93.36384 
L 211.949025 84.04992 
L 212.274005 89.37216 
L 212.598984 76.06656 
L 212.923964 81.3888 
L 213.248943 74.736 
L 213.573923 96.02496 
L 213.898903 94.6944 
L 214.223882 90.70272 
L 214.548862 96.02496 
L 214.873841 89.37216 
L 215.198821 90.70272 
L 215.5238 85.38048 
L 215.84878 84.04992 
L 216.173759 74.736 
L 216.498739 73.40544 
L 216.823718 88.0416 
L 217.148698 90.70272 
L 217.473677 74.736 
L 217.798657 74.736 
L 218.448616 88.0416 
L 218.773595 78.72768 
L 219.423554 84.04992 
L 219.748534 76.06656 
L 220.398493 88.0416 
L 220.723473 82.71936 
L 221.048452 68.0832 
L 221.373432 73.40544 
L 221.698411 73.40544 
L 222.023391 82.71936 
L 222.34837 97.35552 
L 222.67335 76.06656 
L 222.998329 73.40544 
L 223.323309 74.736 
L 223.648288 78.72768 
L 223.973268 96.02496 
L 224.298247 76.06656 
L 224.623227 85.38048 
L 224.948206 84.04992 
L 225.273186 92.03328 
L 225.598165 64.09152 
L 225.923145 69.41376 
L 226.248124 70.74432 
L 226.898084 93.36384 
L 227.223063 93.36384 
L 227.873022 84.04992 
L 228.198002 92.03328 
L 228.522981 72.07488 
L 228.847961 81.3888 
L 229.17294 81.3888 
L 229.49792 89.37216 
L 229.822899 78.72768 
L 230.147879 72.07488 
L 230.472858 73.40544 
L 230.797838 97.35552 
L 231.122817 93.36384 
L 231.447797 76.06656 
L 231.772776 84.04992 
L 232.422735 84.04992 
L 232.747715 80.05824 
L 233.072695 84.04992 
L 233.397674 85.38048 
L 233.722654 81.3888 
L 234.047633 84.04992 
L 234.372613 93.36384 
L 234.697592 94.6944 
L 235.022572 66.75264 
L 235.347551 81.3888 
L 235.99751 88.0416 
L 236.32249 81.3888 
L 236.647469 98.68608 
L 237.297428 72.07488 
L 237.622408 70.74432 
L 237.947387 89.37216 
L 238.272367 85.38048 
L 238.597346 68.0832 
L 238.922326 77.39712 
L 239.247305 74.736 
L 239.572285 89.37216 
L 239.897265 84.04992 
L 240.222244 84.04992 
L 240.547224 68.0832 
L 241.197183 100.01664 
L 241.847142 72.07488 
L 242.172121 64.09152 
L 242.497101 73.40544 
L 243.14706 76.06656 
L 243.472039 88.0416 
L 243.797019 70.74432 
L 244.121998 76.06656 
L 244.446978 77.39712 
L 244.771957 70.74432 
L 245.096937 92.03328 
L 245.421916 93.36384 
L 245.746896 82.71936 
L 246.071876 88.0416 
L 246.396855 82.71936 
L 246.721835 69.41376 
L 247.046814 66.75264 
L 247.371794 82.71936 
L 247.696773 85.38048 
L 248.021753 73.40544 
L 248.346732 92.03328 
L 248.671712 93.36384 
L 248.996691 73.40544 
L 249.321671 74.736 
L 249.64665 88.0416 
L 249.97163 77.39712 
L 250.296609 72.07488 
L 250.621589 64.09152 
L 251.271548 84.04992 
L 251.596527 89.37216 
L 251.921507 66.75264 
L 252.246486 72.07488 
L 252.571466 89.37216 
L 252.896446 80.05824 
L 253.221425 64.09152 
L 253.871384 88.0416 
L 254.196364 70.74432 
L 254.521343 65.42208 
L 254.846323 77.39712 
L 255.171302 73.40544 
L 255.496282 101.3472 
L 255.821261 68.0832 
L 256.146241 76.06656 
L 256.7962 66.75264 
L 257.121179 86.71104 
L 257.446159 78.72768 
L 257.771138 76.06656 
L 258.421097 81.3888 
L 258.746077 69.41376 
L 259.071057 72.07488 
L 259.396036 69.41376 
L 259.721016 85.38048 
L 260.045995 64.09152 
L 260.370975 82.71936 
L 260.695954 81.3888 
L 261.020934 84.04992 
L 261.345913 72.07488 
L 261.670893 85.38048 
L 261.995872 72.07488 
L 262.320852 74.736 
L 262.645831 73.40544 
L 262.970811 90.70272 
L 263.29579 76.06656 
L 263.62077 73.40544 
L 263.945749 54.7776 
L 264.270729 76.06656 
L 264.595708 88.0416 
L 264.920688 80.05824 
L 265.245667 68.0832 
L 265.570647 76.06656 
L 265.895627 70.74432 
L 266.220606 89.37216 
L 266.870565 70.74432 
L 267.195545 72.07488 
L 267.520524 78.72768 
L 267.845504 81.3888 
L 268.170483 69.41376 
L 268.495463 77.39712 
L 268.820442 70.74432 
L 269.145422 66.75264 
L 269.470401 76.06656 
L 269.795381 69.41376 
L 270.44534 62.76096 
L 270.770319 70.74432 
L 271.095299 65.42208 
L 271.420278 76.06656 
L 271.745258 65.42208 
L 272.070238 72.07488 
L 272.720197 54.7776 
L 273.045176 62.76096 
L 273.370156 60.09984 
L 273.695135 73.40544 
L 274.020115 69.41376 
L 274.345094 70.74432 
L 274.670074 62.76096 
L 274.995053 72.07488 
L 275.320033 66.75264 
L 275.645012 84.04992 
L 275.969992 73.40544 
L 276.294971 69.41376 
L 276.94493 81.3888 
L 277.26991 77.39712 
L 277.594889 66.75264 
L 277.919869 73.40544 
L 278.244848 66.75264 
L 278.569828 66.75264 
L 278.894808 68.0832 
L 279.219787 82.71936 
L 279.544767 60.09984 
L 279.869746 78.72768 
L 280.194726 56.10816 
L 280.519705 64.09152 
L 280.844685 61.4304 
L 281.169664 65.42208 
L 281.494644 64.09152 
L 281.819623 96.02496 
L 282.144603 62.76096 
L 282.469582 88.0416 
L 282.794562 70.74432 
L 283.119541 68.0832 
L 283.444521 69.41376 
L 283.7695 56.10816 
L 284.09448 68.0832 
L 284.419459 68.0832 
L 284.744439 84.04992 
L 285.069419 68.0832 
L 285.394398 69.41376 
L 285.719378 73.40544 
L 286.044357 69.41376 
L 286.694316 77.39712 
L 287.019296 62.76096 
L 287.344275 74.736 
L 287.669255 66.75264 
L 287.994234 80.05824 
L 288.319214 68.0832 
L 288.644193 88.0416 
L 289.294152 73.40544 
L 289.619132 78.72768 
L 289.944111 88.0416 
L 290.269091 77.39712 
L 290.59407 85.38048 
L 291.244029 61.4304 
L 291.569009 68.0832 
L 291.893989 84.04992 
L 292.218968 78.72768 
L 292.543948 68.0832 
L 292.868927 77.39712 
L 293.193907 69.41376 
L 293.518886 78.72768 
L 293.843866 60.09984 
L 294.168845 69.41376 
L 294.493825 82.71936 
L 294.818804 69.41376 
L 295.143784 69.41376 
L 295.468763 70.74432 
L 295.793743 76.06656 
L 296.118722 61.4304 
L 296.443702 96.02496 
L 296.768681 78.72768 
L 297.093661 68.0832 
L 297.41864 76.06656 
L 297.74362 64.09152 
L 298.0686 80.05824 
L 298.393579 70.74432 
L 298.718559 68.0832 
L 299.043538 77.39712 
L 299.368518 66.75264 
L 299.693497 66.75264 
L 300.018477 70.74432 
L 300.343456 70.74432 
L 300.668436 88.0416 
L 300.993415 65.42208 
L 301.318395 73.40544 
L 301.643374 69.41376 
L 301.968354 73.40544 
L 302.293333 68.0832 
L 302.618313 85.38048 
L 302.943292 72.07488 
L 303.268272 89.37216 
L 303.918231 66.75264 
L 304.24321 64.09152 
L 304.56819 73.40544 
L 304.89317 62.76096 
L 305.218149 70.74432 
L 305.543129 68.0832 
L 305.868108 89.37216 
L 306.193088 68.0832 
L 306.518067 81.3888 
L 306.843047 80.05824 
L 307.493006 58.76928 
L 307.817985 66.75264 
L 308.142965 66.75264 
L 308.467944 88.0416 
L 308.792924 76.06656 
L 309.117903 70.74432 
L 309.442883 73.40544 
L 309.767862 80.05824 
L 310.092842 76.06656 
L 310.417821 66.75264 
L 311.067781 76.06656 
L 311.39276 57.43872 
L 311.71774 76.06656 
L 312.367699 76.06656 
L 312.692678 73.40544 
L 313.017658 78.72768 
L 313.342637 77.39712 
L 313.667617 74.736 
L 313.992596 68.0832 
L 314.317576 65.42208 
L 314.642555 58.76928 
L 314.967535 58.76928 
L 315.292514 69.41376 
L 315.617494 69.41376 
L 315.942473 64.09152 
L 316.267453 78.72768 
L 316.592432 76.06656 
L 316.917412 70.74432 
L 317.242391 70.74432 
L 317.567371 73.40544 
L 317.892351 68.0832 
L 318.21733 69.41376 
L 318.54231 66.75264 
L 319.192269 85.38048 
L 319.517248 68.0832 
L 319.842228 74.736 
L 320.167207 84.04992 
L 320.492187 65.42208 
L 320.817166 77.39712 
L 321.142146 68.0832 
L 321.792105 70.74432 
L 322.117084 65.42208 
L 322.442064 73.40544 
L 322.767043 68.0832 
L 323.092023 66.75264 
L 323.417002 53.44704 
L 323.741982 69.41376 
L 324.066962 57.43872 
L 324.391941 62.76096 
L 324.716921 65.42208 
L 325.36688 77.39712 
L 325.691859 60.09984 
L 326.341818 69.41376 
L 326.666798 61.4304 
L 326.991777 66.75264 
L 327.316757 68.0832 
L 327.641736 62.76096 
L 327.966716 81.3888 
L 328.291695 62.76096 
L 328.616675 76.06656 
L 328.941654 77.39712 
L 329.266634 70.74432 
L 329.591613 74.736 
L 329.916593 60.09984 
L 330.241572 77.39712 
L 330.566552 73.40544 
L 330.891532 66.75264 
L 331.216511 70.74432 
L 331.541491 61.4304 
L 331.86647 86.71104 
L 332.19145 60.09984 
L 332.516429 56.10816 
L 332.841409 78.72768 
L 333.166388 73.40544 
L 333.491368 73.40544 
L 333.816347 65.42208 
L 334.141327 62.76096 
L 334.466306 56.10816 
L 335.116265 84.04992 
L 335.441245 70.74432 
L 335.766224 82.71936 
L 336.091204 48.1248 
L 336.416183 56.10816 
L 336.741163 84.04992 
L 337.066143 86.71104 
L 337.391122 69.41376 
L 337.716102 72.07488 
L 338.041081 69.41376 
L 338.366061 65.42208 
L 339.01602 76.06656 
L 339.340999 61.4304 
L 339.665979 65.42208 
L 339.990958 72.07488 
L 340.315938 62.76096 
L 340.965897 72.07488 
L 341.290876 70.74432 
L 341.615856 57.43872 
L 341.940835 77.39712 
L 342.265815 73.40544 
L 342.590794 77.39712 
L 342.915774 64.09152 
L 343.240753 60.09984 
L 343.565733 89.37216 
L 343.890713 80.05824 
L 344.215692 62.76096 
L 344.540672 70.74432 
L 344.865651 74.736 
L 345.190631 74.736 
L 345.51561 70.74432 
L 345.84059 74.736 
L 346.165569 73.40544 
L 346.490549 74.736 
L 346.815528 68.0832 
L 347.140508 57.43872 
L 347.465487 72.07488 
L 348.115446 66.75264 
L 348.440426 69.41376 
L 348.765405 69.41376 
L 349.090385 77.39712 
L 349.415364 69.41376 
L 349.740344 65.42208 
L 350.390303 73.40544 
L 350.715283 72.07488 
L 351.040262 73.40544 
L 351.365242 78.72768 
L 351.690221 78.72768 
L 352.015201 60.09984 
L 352.34018 74.736 
L 352.66516 68.0832 
L 352.990139 69.41376 
L 353.315119 58.76928 
L 353.640098 68.0832 
L 353.965078 62.76096 
L 354.290057 77.39712 
L 354.615037 80.05824 
L 354.940016 60.09984 
L 355.264996 77.39712 
L 355.589975 66.75264 
L 355.914955 66.75264 
L 356.239934 74.736 
L 356.564914 73.40544 
L 356.889894 62.76096 
L 357.214873 65.42208 
L 357.539853 65.42208 
L 357.864832 74.736 
L 358.189812 65.42208 
L 358.514791 72.07488 
L 358.839771 69.41376 
L 359.16475 64.09152 
L 359.48973 64.09152 
L 359.814709 72.07488 
L 360.139689 68.0832 
L 360.789648 84.04992 
L 361.114627 68.0832 
L 361.439607 64.09152 
L 361.764586 74.736 
L 362.089566 69.41376 
L 362.414545 61.4304 
L 362.739525 69.41376 
L 363.389484 72.07488 
L 363.714464 56.10816 
L 364.039443 58.76928 
L 364.364423 65.42208 
L 364.689402 64.09152 
L 365.014382 76.06656 
L 365.339361 80.05824 
L 365.664341 72.07488 
L 365.98932 76.06656 
L 366.3143 66.75264 
L 366.639279 61.4304 
L 366.964259 53.44704 
L 367.289238 52.11648 
L 367.939197 72.07488 
L 368.264177 78.72768 
L 368.589156 68.0832 
L 368.914136 73.40544 
L 369.564095 68.0832 
L 369.889075 73.40544 
L 370.214054 76.06656 
L 370.864013 54.7776 
L 371.513972 68.0832 
L 371.838952 62.76096 
L 372.163931 66.75264 
L 372.488911 53.44704 
L 372.81389 64.09152 
L 373.13887 80.05824 
L 373.463849 68.0832 
L 373.788829 72.07488 
L 374.113808 72.07488 
L 374.438788 68.0832 
L 374.763767 58.76928 
L 375.088747 62.76096 
L 375.413726 54.7776 
L 375.738706 58.76928 
L 376.063686 73.40544 
L 376.388665 68.0832 
L 376.713645 78.72768 
L 377.038624 65.42208 
L 377.363604 65.42208 
L 377.688583 68.0832 
L 378.013563 65.42208 
L 378.338542 74.736 
L 378.663522 64.09152 
L 378.988501 65.42208 
L 379.96344 61.4304 
L 380.288419 68.0832 
L 380.613399 70.74432 
L 380.938378 57.43872 
L 381.263358 58.76928 
L 381.588337 70.74432 
L 381.913317 76.06656 
L 382.238296 73.40544 
L 382.888256 52.11648 
L 383.213235 58.76928 
L 383.538215 61.4304 
L 383.863194 65.42208 
L 384.188174 80.05824 
L 384.513153 73.40544 
L 384.838133 72.07488 
L 385.163112 60.09984 
L 385.488092 66.75264 
L 385.813071 81.3888 
L 386.138051 69.41376 
L 386.46303 74.736 
L 387.437969 56.10816 
L 387.762948 81.3888 
L 388.087928 68.0832 
L 388.412907 61.4304 
L 388.737887 73.40544 
L 389.062867 72.07488 
L 389.387846 66.75264 
L 389.712826 70.74432 
L 390.037805 72.07488 
L 390.362785 74.736 
L 390.687764 68.0832 
L 391.012744 66.75264 
L 391.337723 78.72768 
L 391.662703 68.0832 
L 391.987682 70.74432 
L 392.312662 64.09152 
L 392.637641 76.06656 
L 392.962621 65.42208 
L 393.2876 74.736 
L 393.61258 61.4304 
L 393.937559 65.42208 
L 394.262539 66.75264 
L 394.587518 76.06656 
L 394.912498 58.76928 
L 395.237477 60.09984 
L 395.562457 70.74432 
L 396.212416 64.09152 
L 396.537396 65.42208 
L 396.862375 53.44704 
L 397.187355 57.43872 
L 397.512334 70.74432 
L 397.837314 62.76096 
L 398.162293 64.09152 
L 398.487273 69.41376 
L 398.487273 69.41376 
" style="fill:none;stroke:#1f77b4;stroke-linecap:square;stroke-width:1.5;"/>
   </g>
   <g id="line2d_14">
    <path clip-path="url(#p984e33bb4a)" d="M 73.832727 280.884096 
L 74.482686 282.680352 
L 74.807666 281.74896 
L 75.132645 282.170304 
L 75.457625 282.96864 
L 75.782604 282.96864 
L 76.107584 280.950624 
L 76.432563 282.015072 
L 76.757543 281.815488 
L 77.732482 282.702528 
L 78.057461 281.593728 
L 78.382441 282.96864 
L 78.70742 282.680352 
L 79.0324 281.904192 
L 79.357379 282.791232 
L 79.682359 281.837664 
L 80.007338 282.436416 
L 80.332318 280.662336 
L 80.657297 282.125952 
L 80.982277 282.436416 
L 81.307256 283.279104 
L 81.632236 282.547296 
L 81.957215 282.369888 
L 82.282195 282.96864 
L 82.607174 282.480768 
L 82.932154 282.769056 
L 83.257133 282.214656 
L 83.582113 281.017152 
L 83.907093 282.103776 
L 84.557052 280.174464 
L 84.882031 282.214656 
L 85.207011 281.105856 
L 85.53199 282.791232 
L 86.181949 281.039328 
L 86.506929 282.613824 
L 86.831908 280.4184 
L 87.156888 282.702528 
L 87.481867 282.74688 
L 87.806847 282.19248 
L 88.131826 280.706688 
L 88.456806 282.835584 
L 88.781785 281.85984 
L 89.106765 283.345632 
L 89.431744 280.706688 
L 89.756724 282.125952 
L 90.081704 282.902112 
L 90.406683 281.85984 
L 90.731663 281.926368 
L 91.056642 282.125952 
L 91.381622 281.505024 
L 91.706601 282.613824 
L 92.031581 281.771136 
L 92.35656 279.398304 
L 92.68154 278.622144 
L 93.006519 276.581952 
L 93.331499 275.362272 
L 93.656478 275.09616 
L 93.981458 272.590272 
L 94.631417 270.77184 
L 94.956396 269.796096 
L 95.281376 270.77184 
L 95.606355 269.352576 
L 95.931335 266.292288 
L 96.256314 265.516128 
L 96.581294 262.23408 
L 96.906274 255.847392 
L 97.231253 257.089248 
L 97.556233 255.603456 
L 97.881212 258.863328 
L 98.206192 255.847392 
L 98.531171 257.998464 
L 98.856151 254.494656 
L 99.50611 250.902144 
L 99.831089 252.742752 
L 100.156069 257.931936 
L 100.481048 251.545248 
L 100.806028 255.91392 
L 101.131007 256.956192 
L 101.455987 252.410112 
L 101.780966 254.405952 
L 102.105946 254.716416 
L 102.430925 253.274976 
L 102.755905 250.125984 
L 103.080885 257.444064 
L 103.405864 254.69424 
L 103.730844 249.882048 
L 104.055823 248.728896 
L 104.380803 248.529312 
L 104.705782 248.019264 
L 105.030762 246.82176 
L 105.355741 246.555648 
L 105.680721 247.087872 
L 106.0057 253.319328 
L 106.33068 247.553568 
L 106.655659 247.509216 
L 106.980639 246.555648 
L 107.305618 246.356064 
L 107.955577 245.291616 
L 108.280557 244.737216 
L 108.605536 245.025504 
L 108.930516 244.249344 
L 109.255495 247.398336 
L 109.580475 243.118368 
L 110.230434 244.559808 
L 110.555414 242.697024 
L 110.880393 242.475264 
L 111.205373 240.679008 
L 111.530352 241.144704 
L 111.855332 239.459328 
L 112.180311 240.568128 
L 112.505291 239.592384 
L 112.83027 239.17104 
L 113.15525 243.694944 
L 113.480229 238.860576 
L 113.805209 238.195296 
L 114.130188 237.1752 
L 114.455168 238.794048 
L 114.780147 235.245888 
L 115.105127 239.437152 
L 115.430106 235.268064 
L 116.080066 233.782272 
L 116.405045 234.381024 
L 116.730025 233.139168 
L 117.055004 240.679008 
L 117.379984 241.078176 
L 117.704963 231.919488 
L 118.029943 232.873056 
L 118.354922 231.365088 
L 118.679902 233.139168 
L 119.004881 227.839104 
L 119.329861 229.391424 
L 119.65484 227.617344 
L 119.97982 224.911872 
L 120.304799 230.699808 
L 120.629779 226.264608 
L 120.954758 229.790592 
L 121.279738 222.805152 
L 121.604717 223.115616 
L 121.929697 223.159968 
L 122.579656 220.676256 
L 122.904636 221.652 
L 123.229615 223.026912 
L 123.554595 219.855744 
L 123.879574 221.518944 
L 124.204554 218.902176 
L 124.529533 220.698432 
L 124.854513 218.99088 
L 125.179492 216.241056 
L 125.504472 219.256992 
L 125.829451 218.791296 
L 126.154431 215.33184 
L 126.47941 220.720608 
L 126.80439 219.54528 
L 127.129369 215.021376 
L 127.454349 213.136416 
L 127.779328 214.089984 
L 128.104308 209.610432 
L 128.429287 210.497472 
L 129.079247 207.326304 
L 129.404226 211.34016 
L 129.729206 209.056032 
L 130.379165 206.505792 
L 131.029124 207.814176 
L 131.354103 206.084448 
L 131.679083 207.636768 
L 132.004062 213.269472 
L 132.329042 206.90496 
L 132.654021 209.521728 
L 132.979001 217.460736 
L 133.30398 207.503712 
L 133.62896 203.090688 
L 134.278919 221.31936 
L 134.603898 203.844672 
L 134.928878 201.649248 
L 135.253857 211.650624 
L 135.578837 204.221664 
L 135.903817 202.8024 
L 136.228796 199.387296 
L 136.553776 198.455904 
L 136.878755 200.296512 
L 137.203735 199.91952 
L 137.528714 200.961792 
L 137.853694 205.24176 
L 138.178673 196.37136 
L 138.503653 195.085152 
L 138.828632 195.284736 
L 139.153612 222.383808 
L 139.478591 196.681824 
L 139.803571 194.175936 
L 140.12855 198.58896 
L 140.45353 194.242464 
L 140.778509 194.774688 
L 141.103489 195.018624 
L 141.428468 192.024864 
L 141.753448 194.131584 
L 142.078428 189.474624 
L 142.403407 189.031104 
L 142.728387 187.035264 
L 143.053366 193.887648 
L 143.378346 187.8336 
L 143.703325 187.767072 
L 144.028305 189.4968 
L 144.353284 187.123968 
L 144.678264 186.347808 
L 145.003243 189.27504 
L 145.328223 189.851616 
L 145.653202 188.60976 
L 145.978182 199.498176 
L 146.303161 182.62224 
L 146.628141 187.035264 
L 146.95312 186.436512 
L 147.2781 183.62016 
L 147.603079 185.305536 
L 147.928059 190.16208 
L 148.253038 189.208512 
L 148.578018 184.573728 
L 148.902998 182.045664 
L 149.227977 178.18704 
L 149.552957 181.047744 
L 149.877936 188.476704 
L 150.202916 176.767776 
L 150.527895 177.499584 
L 150.852875 179.828064 
L 151.177854 180.870336 
L 151.502834 179.384544 
L 151.827813 179.096256 
L 152.152793 183.243168 
L 152.802752 177.033888 
L 153.127731 177.721344 
L 153.452711 176.235552 
L 153.77769 173.64096 
L 154.10267 176.346432 
L 154.427649 219.855744 
L 154.752629 184.640256 
L 155.402588 176.612544 
L 155.727568 180.360288 
L 156.052547 180.18288 
L 156.377527 181.29168 
L 156.702506 180.803808 
L 157.352465 171.822528 
L 158.002424 180.604224 
L 158.327404 167.032512 
L 158.652383 173.352672 
L 158.977363 172.820448 
L 159.302342 176.257728 
L 159.627322 172.598688 
L 159.952301 173.130912 
L 160.277281 169.494048 
L 160.60226 177.721344 
L 160.92724 176.878656 
L 161.252219 169.627104 
L 161.577199 178.918848 
L 162.227158 170.602848 
L 162.552138 171.999936 
L 162.877117 170.558496 
L 163.202097 172.288224 
L 163.527076 171.379008 
L 163.852056 167.697792 
L 164.177035 167.586912 
L 164.502015 173.663136 
L 164.826994 172.465632 
L 165.476953 167.365152 
L 165.801933 169.582752 
L 166.126912 166.145472 
L 166.451892 171.268128 
L 166.776871 162.686016 
L 167.101851 165.591072 
L 167.42683 165.87936 
L 167.75181 168.673536 
L 168.07679 164.016576 
L 168.401769 168.252192 
L 168.726749 160.867584 
L 169.376708 163.794816 
L 169.701687 158.827392 
L 170.026667 166.943808 
L 170.351646 160.047072 
L 170.676626 162.175968 
L 171.001605 157.363776 
L 171.326585 157.142016 
L 171.651564 157.385952 
L 171.976544 156.654144 
L 172.301523 169.20576 
L 172.626503 158.4504 
L 172.951482 160.1136 
L 173.276462 154.503072 
L 173.601441 167.808672 
L 174.2514 159.5592 
L 174.57638 158.317344 
L 174.90136 159.026976 
L 175.226339 153.882144 
L 175.551319 159.315264 
L 175.876298 150.666624 
L 176.201278 161.643744 
L 176.526257 155.367936 
L 176.851237 157.851648 
L 177.176216 152.041536 
L 177.501196 159.980544 
L 177.826175 148.91472 
L 178.151155 158.250816 
L 178.476134 156.410208 
L 178.801114 156.055392 
L 179.126093 156.410208 
L 179.451073 157.541184 
L 179.776052 149.535648 
L 180.101032 150.999264 
L 180.426011 149.513472 
L 180.750991 149.846112 
L 181.075971 144.279936 
L 181.40095 148.626432 
L 181.72593 148.69296 
L 182.050909 146.564064 
L 182.375889 147.606336 
L 183.025848 163.750464 
L 183.350827 147.02976 
L 183.675807 147.384576 
L 184.000786 143.348544 
L 184.325766 145.743552 
L 184.975725 141.130944 
L 185.300704 142.394976 
L 185.625684 145.876608 
L 185.950663 140.022144 
L 186.275643 141.197472 
L 186.600622 143.747712 
L 186.925602 148.981248 
L 187.250581 140.221728 
L 187.575561 142.572384 
L 187.900541 138.735936 
L 188.22552 142.683264 
L 188.5505 158.272992 
L 188.875479 136.540512 
L 189.200459 139.82256 
L 189.525438 139.135104 
L 189.850418 138.846816 
L 190.175397 136.984032 
L 190.500377 137.538432 
L 190.825356 135.808704 
L 191.150336 140.354784 
L 191.800295 133.546752 
L 192.125274 147.384576 
L 192.450254 135.209952 
L 192.775233 136.318752 
L 193.100213 140.243904 
L 193.425192 133.125408 
L 193.750172 130.419936 
L 194.075152 125.097696 
L 194.400131 129.555072 
L 194.725111 128.224512 
L 195.05009 129.28896 
L 195.37507 128.534976 
L 195.700049 134.478144 
L 196.025029 131.905728 
L 196.350008 131.240448 
L 196.674988 131.639616 
L 196.999967 127.426176 
L 197.649926 132.127488 
L 197.974906 133.968096 
L 198.299885 128.468448 
L 198.624865 134.101152 
L 198.949844 135.631296 
L 199.274824 128.601504 
L 199.599803 133.147584 
L 199.924783 127.270944 
L 200.249762 131.151744 
L 200.574742 129.17808 
L 200.899722 124.476768 
L 201.224701 127.581408 
L 201.549681 132.371424 
L 201.87466 129.39984 
L 202.19964 124.920288 
L 202.524619 130.176 
L 202.849599 127.803168 
L 203.174578 135.143424 
L 203.824537 122.613984 
L 204.149517 131.528736 
L 204.474496 131.040864 
L 204.799476 123.07968 
L 205.774414 130.686048 
L 206.099394 127.559232 
L 206.424373 128.62368 
L 206.749353 128.5128 
L 207.074333 124.277184 
L 207.399312 122.990976 
L 207.724292 124.898112 
L 208.049271 123.922368 
L 208.374251 124.099776 
L 208.69923 126.383904 
L 209.02421 126.339552 
L 209.349189 123.5232 
L 209.674169 127.204416 
L 210.324128 123.63408 
L 210.649107 128.579328 
L 211.299066 125.29728 
L 211.624046 122.880096 
L 211.949025 127.248768 
L 212.274005 125.696448 
L 212.598984 122.902272 
L 212.923964 123.146208 
L 213.248943 127.603584 
L 213.573923 120.884256 
L 213.898903 154.281312 
L 214.223882 123.478848 
L 214.548862 133.05888 
L 214.873841 123.057504 
L 215.198821 127.780992 
L 215.5238 120.884256 
L 215.84878 119.708928 
L 216.173759 125.319456 
L 216.498739 124.85376 
L 217.148698 120.241152 
L 217.473677 125.031168 
L 217.798657 122.613984 
L 218.123636 121.261248 
L 218.448616 129.311136 
L 218.773595 124.099776 
L 219.098575 124.52112 
L 219.423554 125.51904 
L 219.748534 123.035328 
L 220.073514 124.52112 
L 220.398493 125.385984 
L 220.723473 123.611904 
L 221.048452 123.345792 
L 221.373432 125.829504 
L 221.698411 122.103936 
L 222.023391 121.372128 
L 222.34837 121.52736 
L 222.67335 122.613984 
L 222.998329 121.19472 
L 223.323309 117.602208 
L 223.648288 121.239072 
L 223.973268 123.07968 
L 224.298247 116.64864 
L 224.623227 120.7512 
L 224.948206 120.241152 
L 225.273186 118.932768 
L 225.598165 115.98336 
L 226.248124 120.52944 
L 226.573104 117.64656 
L 226.898084 120.906432 
L 227.223063 118.711008 
L 227.548043 118.733184 
L 227.873022 125.873856 
L 228.198002 117.491328 
L 228.522981 120.97296 
L 228.847961 116.64864 
L 229.17294 117.336096 
L 229.49792 120.374208 
L 229.822899 119.110176 
L 230.147879 122.547456 
L 230.472858 118.600128 
L 230.797838 116.53776 
L 231.122817 118.622304 
L 231.447797 116.75952 
L 231.772776 119.731104 
L 232.097756 116.338176 
L 232.422735 117.047808 
L 232.747715 116.20512 
L 233.072695 112.812192 
L 233.397674 115.562016 
L 233.722654 114.20928 
L 234.047633 115.783776 
L 234.372613 119.620224 
L 234.697592 118.622304 
L 235.022572 110.32848 
L 235.347551 113.544 
L 235.672531 124.787232 
L 235.99751 115.695072 
L 236.32249 120.684672 
L 236.647469 118.31184 
L 236.972449 118.711008 
L 237.297428 115.406784 
L 237.622408 126.07344 
L 237.947387 116.316 
L 238.272367 115.98336 
L 238.597346 117.957024 
L 238.922326 110.616768 
L 239.247305 114.741504 
L 239.572285 114.475392 
L 239.897265 111.925152 
L 240.222244 114.164928 
L 240.547224 110.927232 
L 240.872203 112.235616 
L 241.197183 120.573792 
L 241.522162 112.4352 
L 241.847142 115.717248 
L 242.172121 116.604288 
L 242.497101 119.86416 
L 242.82208 114.43104 
L 243.14706 115.783776 
L 243.472039 113.144832 
L 243.797019 116.249472 
L 244.121998 113.21136 
L 244.446978 111.415104 
L 244.771957 110.905056 
L 245.096937 114.608448 
L 245.421916 110.128896 
L 245.746896 112.900896 
L 246.071876 112.790016 
L 246.396855 113.255712 
L 246.721835 110.372832 
L 247.371794 114.608448 
L 247.696773 109.530144 
L 248.021753 123.367968 
L 248.346732 111.814272 
L 248.671712 117.890496 
L 248.996691 113.189184 
L 249.321671 111.193344 
L 249.64665 113.455296 
L 249.97163 114.20928 
L 250.296609 118.600128 
L 250.621589 115.229376 
L 250.946568 116.249472 
L 251.271548 119.19888 
L 251.596527 115.451136 
L 251.921507 113.455296 
L 252.246486 118.156608 
L 252.571466 112.87872 
L 252.896446 112.457376 
L 253.221425 113.011776 
L 253.546405 111.459456 
L 253.871384 113.43312 
L 254.196364 110.261952 
L 254.521343 111.947328 
L 254.846323 111.3264 
L 255.496282 117.114336 
L 255.821261 114.43104 
L 256.146241 108.155232 
L 256.47122 113.677056 
L 256.7962 111.282048 
L 257.121179 111.570336 
L 257.446159 111.459456 
L 257.771138 113.233536 
L 258.096118 107.955648 
L 258.421097 109.308384 
L 258.746077 112.257792 
L 259.071057 109.44144 
L 259.396036 112.612608 
L 259.721016 109.88496 
L 260.045995 108.33264 
L 260.370975 111.481632 
L 260.695954 116.98128 
L 261.020934 112.191264 
L 261.345913 110.306304 
L 261.670893 109.485792 
L 261.995872 114.896736 
L 262.320852 114.031872 
L 262.970811 109.352736 
L 263.29579 108.33264 
L 263.62077 112.812192 
L 263.945749 107.689536 
L 264.595708 114.519744 
L 264.920688 106.647264 
L 265.245667 108.310464 
L 265.570647 111.925152 
L 265.895627 108.44352 
L 266.220606 109.818432 
L 266.545586 106.713792 
L 266.870565 110.32848 
L 267.195545 107.157312 
L 267.520524 112.368672 
L 267.845504 109.374912 
L 268.170483 111.082464 
L 268.495463 109.907136 
L 268.820442 110.128896 
L 269.145422 107.66736 
L 269.470401 110.594592 
L 270.12036 107.77824 
L 270.44534 109.175328 
L 270.770319 105.959808 
L 271.095299 108.510048 
L 271.420278 108.5544 
L 271.745258 108.44352 
L 272.070238 106.292448 
L 272.395217 107.22384 
L 272.720197 106.957728 
L 273.045176 107.090784 
L 273.370156 107.933472 
L 273.695135 105.228 
L 274.020115 109.55232 
L 274.345094 107.135136 
L 274.670074 105.693696 
L 275.320033 106.869024 
L 275.645012 109.6632 
L 275.969992 107.179488 
L 276.294971 109.840608 
L 276.619951 110.284128 
L 276.94493 107.024256 
L 277.26991 105.981984 
L 277.594889 109.6632 
L 277.919869 108.931392 
L 278.244848 114.630624 
L 278.569828 110.88288 
L 278.894808 114.87456 
L 279.219787 105.848928 
L 279.544767 106.11504 
L 279.869746 110.062368 
L 280.519705 106.869024 
L 280.844685 108.44352 
L 281.169664 106.159392 
L 281.494644 113.65488 
L 281.819623 107.645184 
L 282.144603 113.033952 
L 282.469582 113.787936 
L 282.794562 108.709632 
L 283.119541 111.148992 
L 283.444521 107.046432 
L 283.7695 106.292448 
L 284.09448 107.11296 
L 284.419459 107.578656 
L 284.744439 104.030496 
L 285.069419 112.812192 
L 285.394398 106.625088 
L 285.719378 107.4456 
L 286.044357 101.56896 
L 286.369337 109.729728 
L 286.694316 107.911296 
L 287.019296 105.427584 
L 287.344275 109.1088 
L 287.669255 108.909216 
L 288.319214 104.740128 
L 288.644193 105.804576 
L 288.969173 108.820512 
L 289.294152 106.203744 
L 289.619132 113.122656 
L 289.944111 104.45184 
L 290.269091 99.417888 
L 290.59407 105.715872 
L 290.91905 107.423424 
L 291.244029 108.421344 
L 291.569009 104.429664 
L 291.893989 108.243936 
L 292.543948 105.67152 
L 292.868927 106.802496 
L 293.193907 99.994464 
L 293.518886 103.209984 
L 293.843866 104.274432 
L 294.168845 100.637568 
L 294.493825 105.139296 
L 294.818804 114.054048 
L 295.468763 104.740128 
L 295.793743 107.689536 
L 296.118722 107.977824 
L 296.443702 106.492032 
L 296.768681 106.957728 
L 297.093661 104.56272 
L 297.41864 106.935552 
L 297.74362 108.465696 
L 298.0686 107.955648 
L 298.393579 107.733888 
L 298.718559 104.097024 
L 299.043538 109.6632 
L 299.368518 106.602912 
L 299.693497 109.796256 
L 300.018477 111.10464 
L 300.343456 109.929312 
L 300.993415 100.948032 
L 301.643374 109.99584 
L 301.968354 106.625088 
L 302.293333 109.751904 
L 302.618313 111.481632 
L 302.943292 106.536384 
L 303.593251 108.620928 
L 303.918231 102.67776 
L 304.24321 103.076928 
L 304.56819 102.433824 
L 304.89317 104.651424 
L 305.218149 102.01248 
L 305.543129 111.43728 
L 305.868108 102.189888 
L 306.193088 100.970208 
L 306.518067 104.917536 
L 307.168026 102.256416 
L 307.493006 106.979904 
L 307.817985 104.274432 
L 308.142965 105.139296 
L 308.467944 107.090784 
L 308.792924 107.157312 
L 309.117903 105.804576 
L 309.442883 105.760224 
L 309.767862 99.57312 
L 310.092842 115.118496 
L 310.417821 106.00416 
L 310.742801 107.090784 
L 311.067781 105.139296 
L 311.39276 101.480256 
L 311.71774 107.467776 
L 312.042719 108.820512 
L 312.367699 107.733888 
L 312.692678 106.070688 
L 313.017658 107.00208 
L 313.342637 104.540544 
L 313.667617 108.088704 
L 313.992596 103.89744 
L 314.317576 103.320864 
L 314.642555 104.740128 
L 314.967535 98.819136 
L 315.292514 104.23008 
L 315.617494 105.33888 
L 315.942473 103.387392 
L 316.267453 105.516288 
L 316.592432 101.480256 
L 316.917412 101.369376 
L 317.242391 105.427584 
L 317.567371 105.959808 
L 317.892351 103.254336 
L 318.21733 104.6736 
L 318.54231 104.984064 
L 318.867289 106.425504 
L 319.192269 103.609152 
L 319.517248 103.631328 
L 319.842228 102.589056 
L 320.167207 106.381152 
L 320.492187 103.586976 
L 320.817166 107.55648 
L 321.142146 105.250176 
L 321.467125 107.733888 
L 321.792105 103.720032 
L 322.117084 102.12336 
L 322.442064 108.199584 
L 322.767043 101.546784 
L 323.092023 106.11504 
L 323.417002 99.883584 
L 324.391941 108.155232 
L 325.0419 101.01456 
L 325.36688 103.653504 
L 325.691859 104.695776 
L 326.016839 102.411648 
L 326.341818 101.524608 
L 326.666798 104.740128 
L 326.991777 115.2072 
L 327.641736 103.476096 
L 327.966716 103.720032 
L 328.291695 100.327104 
L 328.616675 101.56896 
L 328.941654 101.302848 
L 329.266634 104.274432 
L 329.591613 100.46016 
L 329.916593 108.687456 
L 330.241572 105.316704 
L 330.566552 108.11088 
L 330.891532 104.540544 
L 331.216511 97.776864 
L 331.541491 103.099104 
L 332.19145 100.726272 
L 332.516429 104.584896 
L 332.841409 101.768544 
L 333.491368 104.518368 
L 333.816347 100.925856 
L 334.141327 100.948032 
L 334.466306 104.474016 
L 334.791286 103.697856 
L 335.116265 107.201664 
L 335.766224 101.524608 
L 336.091204 100.814976 
L 336.416183 99.79488 
L 336.741163 103.143456 
L 337.066143 97.555104 
L 337.391122 106.758144 
L 337.716102 103.12128 
L 338.041081 105.738048 
L 338.366061 104.318784 
L 339.01602 98.397792 
L 339.340999 102.278592 
L 339.665979 104.474016 
L 339.990958 101.945952 
L 340.315938 100.34928 
L 340.640917 102.78864 
L 341.290876 103.653504 
L 341.615856 105.094944 
L 341.940835 104.23008 
L 342.265815 99.994464 
L 342.590794 100.593216 
L 342.915774 96.446304 
L 343.565733 110.971584 
L 343.890713 105.538464 
L 344.215692 105.715872 
L 344.540672 103.631328 
L 344.865651 104.45184 
L 345.190631 99.972288 
L 345.51561 107.600832 
L 345.84059 101.103264 
L 346.165569 101.01456 
L 346.490549 102.478176 
L 346.815528 102.855168 
L 347.140508 98.309088 
L 347.465487 97.665984 
L 347.790467 99.484416 
L 348.115446 97.333344 
L 348.440426 100.548864 
L 348.765405 102.034656 
L 349.090385 98.819136 
L 349.415364 105.848928 
L 349.740344 101.657664 
L 350.390303 101.191968 
L 350.715283 102.478176 
L 351.040262 98.774784 
L 351.365242 103.875264 
L 351.690221 98.663904 
L 352.015201 99.728352 
L 352.34018 104.56272 
L 352.66516 99.417888 
L 352.990139 99.950112 
L 353.315119 93.851712 
L 353.640098 98.419968 
L 353.965078 100.194048 
L 354.615037 101.214144 
L 354.940016 95.936256 
L 355.264996 99.595296 
L 355.589975 99.196128 
L 355.914955 99.706176 
L 356.239934 96.712416 
L 356.564914 101.391552 
L 356.889894 103.23216 
L 357.214873 99.484416 
L 357.539853 103.609152 
L 357.864832 97.732512 
L 358.514791 103.276512 
L 358.839771 97.90992 
L 359.16475 99.262656 
L 359.48973 98.974368 
L 359.814709 102.367296 
L 360.139689 98.90784 
L 360.464668 100.194048 
L 360.789648 98.752608 
L 361.114627 98.553024 
L 361.439607 97.79904 
L 361.764586 101.746368 
L 362.089566 100.34928 
L 362.414545 99.772704 
L 362.739525 100.34928 
L 363.064505 97.444224 
L 363.389484 100.282752 
L 363.714464 105.405408 
L 364.039443 102.655584 
L 364.364423 98.79696 
L 364.689402 97.68816 
L 365.014382 100.637568 
L 365.339361 97.954272 
L 365.664341 100.194048 
L 365.98932 98.885664 
L 366.3143 98.619552 
L 366.639279 99.728352 
L 366.964259 98.752608 
L 367.289238 98.819136 
L 367.614218 108.310464 
L 367.939197 97.155936 
L 368.264177 96.46848 
L 368.589156 98.397792 
L 368.914136 98.752608 
L 369.239115 95.47056 
L 369.564095 101.923776 
L 369.889075 98.619552 
L 370.214054 103.409568 
L 370.539034 100.925856 
L 370.864013 94.982688 
L 371.513972 99.040896 
L 371.838952 96.047136 
L 372.163931 101.546784 
L 372.488911 98.198208 
L 372.81389 100.814976 
L 373.463849 91.944576 
L 373.788829 99.484416 
L 374.113808 97.643808 
L 374.438788 102.034656 
L 374.763767 101.879424 
L 375.088747 99.839232 
L 375.413726 102.145536 
L 375.738706 101.702016 
L 376.063686 110.128896 
L 376.388665 96.69024 
L 376.713645 104.23008 
L 377.038624 107.423424 
L 377.363604 99.24048 
L 377.688583 98.90784 
L 378.013563 97.821216 
L 378.338542 98.24256 
L 378.663522 99.173952 
L 378.988501 103.919616 
L 379.313481 100.2384 
L 379.63846 98.309088 
L 379.96344 99.639648 
L 380.288419 94.206528 
L 380.613399 98.176032 
L 380.938378 96.158016 
L 381.263358 96.756768 
L 381.588337 101.480256 
L 381.913317 96.379776 
L 382.238296 95.315328 
L 382.563276 96.845472 
L 382.888256 95.47056 
L 383.538215 100.216224 
L 383.863194 100.526688 
L 384.188174 99.595296 
L 384.513153 99.772704 
L 384.838133 99.550944 
L 385.163112 102.367296 
L 385.488092 97.35552 
L 386.138051 101.524608 
L 386.46303 99.550944 
L 386.78801 95.980608 
L 387.112989 95.869728 
L 387.437969 97.422048 
L 387.762948 96.823296 
L 388.087928 98.397792 
L 388.412907 93.496896 
L 388.737887 99.57312 
L 389.062867 97.377696 
L 389.387846 100.083168 
L 389.712826 94.051296 
L 390.037805 96.867648 
L 390.687764 98.042976 
L 391.012744 95.758848 
L 391.337723 99.417888 
L 391.662703 93.873888 
L 391.987682 96.02496 
L 392.312662 97.200288 
L 392.637641 99.79488 
L 392.962621 96.623712 
L 393.2876 99.440064 
L 393.61258 94.051296 
L 393.937559 101.325024 
L 394.262539 95.381856 
L 394.912498 102.810816 
L 395.237477 98.996544 
L 395.562457 103.23216 
L 395.887437 98.065152 
L 396.212416 97.710336 
L 396.537396 98.264736 
L 396.862375 108.88704 
L 397.187355 100.437984 
L 397.512334 100.194048 
L 397.837314 98.109504 
L 398.487273 102.23424 
L 398.487273 102.23424 
" style="fill:none;stroke:#ff7f0e;stroke-linecap:square;stroke-width:1.5;"/>
   </g>
   <g id="patch_3">
    <path d="M 57.6 307.584 
L 57.6 41.472 
" style="fill:none;stroke:#000000;stroke-linecap:square;stroke-linejoin:miter;stroke-width:0.8;"/>
   </g>
   <g id="patch_4">
    <path d="M 414.72 307.584 
L 414.72 41.472 
" style="fill:none;stroke:#000000;stroke-linecap:square;stroke-linejoin:miter;stroke-width:0.8;"/>
   </g>
   <g id="patch_5">
    <path d="M 57.6 307.584 
L 414.72 307.584 
" style="fill:none;stroke:#000000;stroke-linecap:square;stroke-linejoin:miter;stroke-width:0.8;"/>
   </g>
   <g id="patch_6">
    <path d="M 57.6 41.472 
L 414.72 41.472 
" style="fill:none;stroke:#000000;stroke-linecap:square;stroke-linejoin:miter;stroke-width:0.8;"/>
   </g>
   <g id="legend_1">
    <g id="patch_7">
     <path d="M 64.6 78.82825 
L 168.475 78.82825 
Q 170.475 78.82825 170.475 76.82825 
L 170.475 48.472 
Q 170.475 46.472 168.475 46.472 
L 64.6 46.472 
Q 62.6 46.472 62.6 48.472 
L 62.6 76.82825 
Q 62.6 78.82825 64.6 78.82825 
z
" style="fill:#ffffff;opacity:0.8;stroke:#cccccc;stroke-linejoin:miter;"/>
    </g>
    <g id="line2d_15">
     <path d="M 66.6 54.570437 
L 86.6 54.570437 
" style="fill:none;stroke:#1f77b4;stroke-linecap:square;stroke-width:1.5;"/>
    </g>
    <g id="line2d_16"/>
    <g id="text_15">
     <!-- Train loss -->
     <g transform="translate(94.6 58.070437)scale(0.1 -0.1)">
      <defs>
       <path d="M -19 4666 
L 3928 4666 
L 3928 4134 
L 2272 4134 
L 2272 0 
L 1638 0 
L 1638 4134 
L -19 4134 
L -19 4666 
z
" id="DejaVuSans-54" transform="scale(0.015625)"/>
       <path d="M 603 3500 
L 1178 3500 
L 1178 0 
L 603 0 
L 603 3500 
z
M 603 4863 
L 1178 4863 
L 1178 4134 
L 603 4134 
L 603 4863 
z
" id="DejaVuSans-69" transform="scale(0.015625)"/>
       <path d="M 3513 2113 
L 3513 0 
L 2938 0 
L 2938 2094 
Q 2938 2591 2744 2837 
Q 2550 3084 2163 3084 
Q 1697 3084 1428 2787 
Q 1159 2491 1159 1978 
L 1159 0 
L 581 0 
L 581 3500 
L 1159 3500 
L 1159 2956 
Q 1366 3272 1645 3428 
Q 1925 3584 2291 3584 
Q 2894 3584 3203 3211 
Q 3513 2838 3513 2113 
z
" id="DejaVuSans-6e" transform="scale(0.015625)"/>
       <path id="DejaVuSans-20" transform="scale(0.015625)"/>
       <path d="M 603 4863 
L 1178 4863 
L 1178 0 
L 603 0 
L 603 4863 
z
" id="DejaVuSans-6c" transform="scale(0.015625)"/>
       <path d="M 2834 3397 
L 2834 2853 
Q 2591 2978 2328 3040 
Q 2066 3103 1784 3103 
Q 1356 3103 1142 2972 
Q 928 2841 928 2578 
Q 928 2378 1081 2264 
Q 1234 2150 1697 2047 
L 1894 2003 
Q 2506 1872 2764 1633 
Q 3022 1394 3022 966 
Q 3022 478 2636 193 
Q 2250 -91 1575 -91 
Q 1294 -91 989 -36 
Q 684 19 347 128 
L 347 722 
Q 666 556 975 473 
Q 1284 391 1588 391 
Q 1994 391 2212 530 
Q 2431 669 2431 922 
Q 2431 1156 2273 1281 
Q 2116 1406 1581 1522 
L 1381 1569 
Q 847 1681 609 1914 
Q 372 2147 372 2553 
Q 372 3047 722 3315 
Q 1072 3584 1716 3584 
Q 2034 3584 2315 3537 
Q 2597 3491 2834 3397 
z
" id="DejaVuSans-73" transform="scale(0.015625)"/>
      </defs>
      <use xlink:href="#DejaVuSans-54"/>
      <use x="46.333984" xlink:href="#DejaVuSans-72"/>
      <use x="87.447266" xlink:href="#DejaVuSans-61"/>
      <use x="148.726562" xlink:href="#DejaVuSans-69"/>
      <use x="176.509766" xlink:href="#DejaVuSans-6e"/>
      <use x="239.888672" xlink:href="#DejaVuSans-20"/>
      <use x="271.675781" xlink:href="#DejaVuSans-6c"/>
      <use x="299.458984" xlink:href="#DejaVuSans-6f"/>
      <use x="360.640625" xlink:href="#DejaVuSans-73"/>
      <use x="412.740234" xlink:href="#DejaVuSans-73"/>
     </g>
    </g>
    <g id="line2d_17">
     <path d="M 66.6 69.248562 
L 86.6 69.248562 
" style="fill:none;stroke:#ff7f0e;stroke-linecap:square;stroke-width:1.5;"/>
    </g>
    <g id="line2d_18"/>
    <g id="text_16">
     <!-- Validation loss -->
     <g transform="translate(94.6 72.748562)scale(0.1 -0.1)">
      <defs>
       <path d="M 1831 0 
L 50 4666 
L 709 4666 
L 2188 738 
L 3669 4666 
L 4325 4666 
L 2547 0 
L 1831 0 
z
" id="DejaVuSans-56" transform="scale(0.015625)"/>
       <path d="M 2906 2969 
L 2906 4863 
L 3481 4863 
L 3481 0 
L 2906 0 
L 2906 525 
Q 2725 213 2448 61 
Q 2172 -91 1784 -91 
Q 1150 -91 751 415 
Q 353 922 353 1747 
Q 353 2572 751 3078 
Q 1150 3584 1784 3584 
Q 2172 3584 2448 3432 
Q 2725 3281 2906 2969 
z
M 947 1747 
Q 947 1113 1208 752 
Q 1469 391 1925 391 
Q 2381 391 2643 752 
Q 2906 1113 2906 1747 
Q 2906 2381 2643 2742 
Q 2381 3103 1925 3103 
Q 1469 3103 1208 2742 
Q 947 2381 947 1747 
z
" id="DejaVuSans-64" transform="scale(0.015625)"/>
       <path d="M 1172 4494 
L 1172 3500 
L 2356 3500 
L 2356 3053 
L 1172 3053 
L 1172 1153 
Q 1172 725 1289 603 
Q 1406 481 1766 481 
L 2356 481 
L 2356 0 
L 1766 0 
Q 1100 0 847 248 
Q 594 497 594 1153 
L 594 3053 
L 172 3053 
L 172 3500 
L 594 3500 
L 594 4494 
L 1172 4494 
z
" id="DejaVuSans-74" transform="scale(0.015625)"/>
      </defs>
      <use xlink:href="#DejaVuSans-56"/>
      <use x="60.658203" xlink:href="#DejaVuSans-61"/>
      <use x="121.9375" xlink:href="#DejaVuSans-6c"/>
      <use x="149.720703" xlink:href="#DejaVuSans-69"/>
      <use x="177.503906" xlink:href="#DejaVuSans-64"/>
      <use x="240.980469" xlink:href="#DejaVuSans-61"/>
      <use x="302.259766" xlink:href="#DejaVuSans-74"/>
      <use x="341.46875" xlink:href="#DejaVuSans-69"/>
      <use x="369.251953" xlink:href="#DejaVuSans-6f"/>
      <use x="430.433594" xlink:href="#DejaVuSans-6e"/>
      <use x="493.8125" xlink:href="#DejaVuSans-20"/>
      <use x="525.599609" xlink:href="#DejaVuSans-6c"/>
      <use x="553.382812" xlink:href="#DejaVuSans-6f"/>
      <use x="614.564453" xlink:href="#DejaVuSans-73"/>
      <use x="666.664062" xlink:href="#DejaVuSans-73"/>
     </g>
    </g>
   </g>
  </g>
 </g>
 <defs>
  <clipPath id="p984e33bb4a">
   <rect height="266.112" width="357.12" x="57.6" y="41.472"/>
  </clipPath>
 </defs>
</svg>
