<?xml version="1.0" encoding="utf-8" standalone="no"?>
<!DOCTYPE svg PUBLIC "-//W3C//DTD SVG 1.1//EN"
  "http://www.w3.org/Graphics/SVG/1.1/DTD/svg11.dtd">
<svg height="360pt" version="1.1" viewBox="0 0 1440 360" width="1440pt" xmlns="http://www.w3.org/2000/svg" xmlns:xlink="http://www.w3.org/1999/xlink">
 <metadata>
  <rdf:RDF xmlns:cc="http://creativecommons.org/ns#" xmlns:dc="http://purl.org/dc/elements/1.1/" xmlns:rdf="http://www.w3.org/1999/02/22-rdf-syntax-ns#">
   <cc:Work>
    <dc:type rdf:resource="http://purl.org/dc/dcmitype/StillImage"/>
    <dc:date>2021-07-18T09:31:18.850478</dc:date>
    <dc:format>image/svg+xml</dc:format>
    <dc:creator>
     <cc:Agent>
      <dc:title>Matplotlib v3.4.2, https://matplotlib.org/</dc:title>
     </cc:Agent>
    </dc:creator>
   </cc:Work>
  </rdf:RDF>
 </metadata>
 <defs>
  <style type="text/css">*{stroke-linecap:butt;stroke-linejoin:round;}</style>
 </defs>
 <g id="figure_1">
  <g id="patch_1">
   <path d="M 0 360 
L 1440 360 
L 1440 0 
L 0 0 
z
" style="fill:#ffffff;"/>
  </g>
  <g id="axes_1">
   <g id="patch_2">
    <path d="M 180 320.4 
L 508.235294 320.4 
L 508.235294 43.2 
L 180 43.2 
z
" style="fill:#ffffff;"/>
   </g>
   <g id="matplotlib.axis_1">
    <g id="xtick_1">
     <g id="line2d_1">
      <defs>
       <path d="M 0 0 
L 0 3.5 
" id="m0f6963aec1" style="stroke:#000000;stroke-width:0.8;"/>
      </defs>
      <g>
       <use style="stroke:#000000;stroke-width:0.8;" x="191.905688" xlink:href="#m0f6963aec1" y="320.4"/>
      </g>
     </g>
     <g id="text_1">
      <!-- 0 -->
      <g transform="translate(188.724438 334.998438)scale(0.1 -0.1)">
       <defs>
        <path d="M 2034 4250 
Q 1547 4250 1301 3770 
Q 1056 3291 1056 2328 
Q 1056 1369 1301 889 
Q 1547 409 2034 409 
Q 2525 409 2770 889 
Q 3016 1369 3016 2328 
Q 3016 3291 2770 3770 
Q 2525 4250 2034 4250 
z
M 2034 4750 
Q 2819 4750 3233 4129 
Q 3647 3509 3647 2328 
Q 3647 1150 3233 529 
Q 2819 -91 2034 -91 
Q 1250 -91 836 529 
Q 422 1150 422 2328 
Q 422 3509 836 4129 
Q 1250 4750 2034 4750 
z
" id="DejaVuSans-30" transform="scale(0.015625)"/>
       </defs>
       <use xlink:href="#DejaVuSans-30"/>
      </g>
     </g>
    </g>
    <g id="xtick_2">
     <g id="line2d_2">
      <g>
       <use style="stroke:#000000;stroke-width:0.8;" x="252.187652" xlink:href="#m0f6963aec1" y="320.4"/>
      </g>
     </g>
     <g id="text_2">
      <!-- 20 -->
      <g transform="translate(245.825152 334.998438)scale(0.1 -0.1)">
       <defs>
        <path d="M 1228 531 
L 3431 531 
L 3431 0 
L 469 0 
L 469 531 
Q 828 903 1448 1529 
Q 2069 2156 2228 2338 
Q 2531 2678 2651 2914 
Q 2772 3150 2772 3378 
Q 2772 3750 2511 3984 
Q 2250 4219 1831 4219 
Q 1534 4219 1204 4116 
Q 875 4013 500 3803 
L 500 4441 
Q 881 4594 1212 4672 
Q 1544 4750 1819 4750 
Q 2544 4750 2975 4387 
Q 3406 4025 3406 3419 
Q 3406 3131 3298 2873 
Q 3191 2616 2906 2266 
Q 2828 2175 2409 1742 
Q 1991 1309 1228 531 
z
" id="DejaVuSans-32" transform="scale(0.015625)"/>
       </defs>
       <use xlink:href="#DejaVuSans-32"/>
       <use x="63.623047" xlink:href="#DejaVuSans-30"/>
      </g>
     </g>
    </g>
    <g id="xtick_3">
     <g id="line2d_3">
      <g>
       <use style="stroke:#000000;stroke-width:0.8;" x="312.469616" xlink:href="#m0f6963aec1" y="320.4"/>
      </g>
     </g>
     <g id="text_3">
      <!-- 40 -->
      <g transform="translate(306.107116 334.998438)scale(0.1 -0.1)">
       <defs>
        <path d="M 2419 4116 
L 825 1625 
L 2419 1625 
L 2419 4116 
z
M 2253 4666 
L 3047 4666 
L 3047 1625 
L 3713 1625 
L 3713 1100 
L 3047 1100 
L 3047 0 
L 2419 0 
L 2419 1100 
L 313 1100 
L 313 1709 
L 2253 4666 
z
" id="DejaVuSans-34" transform="scale(0.015625)"/>
       </defs>
       <use xlink:href="#DejaVuSans-34"/>
       <use x="63.623047" xlink:href="#DejaVuSans-30"/>
      </g>
     </g>
    </g>
    <g id="xtick_4">
     <g id="line2d_4">
      <g>
       <use style="stroke:#000000;stroke-width:0.8;" x="372.75158" xlink:href="#m0f6963aec1" y="320.4"/>
      </g>
     </g>
     <g id="text_4">
      <!-- 60 -->
      <g transform="translate(366.38908 334.998438)scale(0.1 -0.1)">
       <defs>
        <path d="M 2113 2584 
Q 1688 2584 1439 2293 
Q 1191 2003 1191 1497 
Q 1191 994 1439 701 
Q 1688 409 2113 409 
Q 2538 409 2786 701 
Q 3034 994 3034 1497 
Q 3034 2003 2786 2293 
Q 2538 2584 2113 2584 
z
M 3366 4563 
L 3366 3988 
Q 3128 4100 2886 4159 
Q 2644 4219 2406 4219 
Q 1781 4219 1451 3797 
Q 1122 3375 1075 2522 
Q 1259 2794 1537 2939 
Q 1816 3084 2150 3084 
Q 2853 3084 3261 2657 
Q 3669 2231 3669 1497 
Q 3669 778 3244 343 
Q 2819 -91 2113 -91 
Q 1303 -91 875 529 
Q 447 1150 447 2328 
Q 447 3434 972 4092 
Q 1497 4750 2381 4750 
Q 2619 4750 2861 4703 
Q 3103 4656 3366 4563 
z
" id="DejaVuSans-36" transform="scale(0.015625)"/>
       </defs>
       <use xlink:href="#DejaVuSans-36"/>
       <use x="63.623047" xlink:href="#DejaVuSans-30"/>
      </g>
     </g>
    </g>
    <g id="xtick_5">
     <g id="line2d_5">
      <g>
       <use style="stroke:#000000;stroke-width:0.8;" x="433.033544" xlink:href="#m0f6963aec1" y="320.4"/>
      </g>
     </g>
     <g id="text_5">
      <!-- 80 -->
      <g transform="translate(426.671044 334.998438)scale(0.1 -0.1)">
       <defs>
        <path d="M 2034 2216 
Q 1584 2216 1326 1975 
Q 1069 1734 1069 1313 
Q 1069 891 1326 650 
Q 1584 409 2034 409 
Q 2484 409 2743 651 
Q 3003 894 3003 1313 
Q 3003 1734 2745 1975 
Q 2488 2216 2034 2216 
z
M 1403 2484 
Q 997 2584 770 2862 
Q 544 3141 544 3541 
Q 544 4100 942 4425 
Q 1341 4750 2034 4750 
Q 2731 4750 3128 4425 
Q 3525 4100 3525 3541 
Q 3525 3141 3298 2862 
Q 3072 2584 2669 2484 
Q 3125 2378 3379 2068 
Q 3634 1759 3634 1313 
Q 3634 634 3220 271 
Q 2806 -91 2034 -91 
Q 1263 -91 848 271 
Q 434 634 434 1313 
Q 434 1759 690 2068 
Q 947 2378 1403 2484 
z
M 1172 3481 
Q 1172 3119 1398 2916 
Q 1625 2713 2034 2713 
Q 2441 2713 2670 2916 
Q 2900 3119 2900 3481 
Q 2900 3844 2670 4047 
Q 2441 4250 2034 4250 
Q 1625 4250 1398 4047 
Q 1172 3844 1172 3481 
z
" id="DejaVuSans-38" transform="scale(0.015625)"/>
       </defs>
       <use xlink:href="#DejaVuSans-38"/>
       <use x="63.623047" xlink:href="#DejaVuSans-30"/>
      </g>
     </g>
    </g>
    <g id="xtick_6">
     <g id="line2d_6">
      <g>
       <use style="stroke:#000000;stroke-width:0.8;" x="493.315508" xlink:href="#m0f6963aec1" y="320.4"/>
      </g>
     </g>
     <g id="text_6">
      <!-- 100 -->
      <g transform="translate(483.771758 334.998438)scale(0.1 -0.1)">
       <defs>
        <path d="M 794 531 
L 1825 531 
L 1825 4091 
L 703 3866 
L 703 4441 
L 1819 4666 
L 2450 4666 
L 2450 531 
L 3481 531 
L 3481 0 
L 794 0 
L 794 531 
z
" id="DejaVuSans-31" transform="scale(0.015625)"/>
       </defs>
       <use xlink:href="#DejaVuSans-31"/>
       <use x="63.623047" xlink:href="#DejaVuSans-30"/>
       <use x="127.246094" xlink:href="#DejaVuSans-30"/>
      </g>
     </g>
    </g>
    <g id="text_7">
     <!-- Epoch -->
     <g transform="translate(321.151241 352.475781)scale(0.15 -0.15)">
      <defs>
       <path d="M 628 4666 
L 3578 4666 
L 3578 4134 
L 1259 4134 
L 1259 2753 
L 3481 2753 
L 3481 2222 
L 1259 2222 
L 1259 531 
L 3634 531 
L 3634 0 
L 628 0 
L 628 4666 
z
" id="DejaVuSans-45" transform="scale(0.015625)"/>
       <path d="M 1159 525 
L 1159 -1331 
L 581 -1331 
L 581 3500 
L 1159 3500 
L 1159 2969 
Q 1341 3281 1617 3432 
Q 1894 3584 2278 3584 
Q 2916 3584 3314 3078 
Q 3713 2572 3713 1747 
Q 3713 922 3314 415 
Q 2916 -91 2278 -91 
Q 1894 -91 1617 61 
Q 1341 213 1159 525 
z
M 3116 1747 
Q 3116 2381 2855 2742 
Q 2594 3103 2138 3103 
Q 1681 3103 1420 2742 
Q 1159 2381 1159 1747 
Q 1159 1113 1420 752 
Q 1681 391 2138 391 
Q 2594 391 2855 752 
Q 3116 1113 3116 1747 
z
" id="DejaVuSans-70" transform="scale(0.015625)"/>
       <path d="M 1959 3097 
Q 1497 3097 1228 2736 
Q 959 2375 959 1747 
Q 959 1119 1226 758 
Q 1494 397 1959 397 
Q 2419 397 2687 759 
Q 2956 1122 2956 1747 
Q 2956 2369 2687 2733 
Q 2419 3097 1959 3097 
z
M 1959 3584 
Q 2709 3584 3137 3096 
Q 3566 2609 3566 1747 
Q 3566 888 3137 398 
Q 2709 -91 1959 -91 
Q 1206 -91 779 398 
Q 353 888 353 1747 
Q 353 2609 779 3096 
Q 1206 3584 1959 3584 
z
" id="DejaVuSans-6f" transform="scale(0.015625)"/>
       <path d="M 3122 3366 
L 3122 2828 
Q 2878 2963 2633 3030 
Q 2388 3097 2138 3097 
Q 1578 3097 1268 2742 
Q 959 2388 959 1747 
Q 959 1106 1268 751 
Q 1578 397 2138 397 
Q 2388 397 2633 464 
Q 2878 531 3122 666 
L 3122 134 
Q 2881 22 2623 -34 
Q 2366 -91 2075 -91 
Q 1284 -91 818 406 
Q 353 903 353 1747 
Q 353 2603 823 3093 
Q 1294 3584 2113 3584 
Q 2378 3584 2631 3529 
Q 2884 3475 3122 3366 
z
" id="DejaVuSans-63" transform="scale(0.015625)"/>
       <path d="M 3513 2113 
L 3513 0 
L 2938 0 
L 2938 2094 
Q 2938 2591 2744 2837 
Q 2550 3084 2163 3084 
Q 1697 3084 1428 2787 
Q 1159 2491 1159 1978 
L 1159 0 
L 581 0 
L 581 4863 
L 1159 4863 
L 1159 2956 
Q 1366 3272 1645 3428 
Q 1925 3584 2291 3584 
Q 2894 3584 3203 3211 
Q 3513 2838 3513 2113 
z
" id="DejaVuSans-68" transform="scale(0.015625)"/>
      </defs>
      <use xlink:href="#DejaVuSans-45"/>
      <use x="63.183594" xlink:href="#DejaVuSans-70"/>
      <use x="126.660156" xlink:href="#DejaVuSans-6f"/>
      <use x="187.841797" xlink:href="#DejaVuSans-63"/>
      <use x="242.822266" xlink:href="#DejaVuSans-68"/>
     </g>
    </g>
   </g>
   <g id="matplotlib.axis_2">
    <g id="ytick_1">
     <g id="line2d_7">
      <defs>
       <path d="M 0 0 
L -3.5 0 
" id="m563863fbec" style="stroke:#000000;stroke-width:0.8;"/>
      </defs>
      <g>
       <use style="stroke:#000000;stroke-width:0.8;" x="180" xlink:href="#m563863fbec" y="308.089518"/>
      </g>
     </g>
     <g id="text_8">
      <!-- −900 -->
      <g transform="translate(145.532813 311.888737)scale(0.1 -0.1)">
       <defs>
        <path d="M 678 2272 
L 4684 2272 
L 4684 1741 
L 678 1741 
L 678 2272 
z
" id="DejaVuSans-2212" transform="scale(0.015625)"/>
        <path d="M 703 97 
L 703 672 
Q 941 559 1184 500 
Q 1428 441 1663 441 
Q 2288 441 2617 861 
Q 2947 1281 2994 2138 
Q 2813 1869 2534 1725 
Q 2256 1581 1919 1581 
Q 1219 1581 811 2004 
Q 403 2428 403 3163 
Q 403 3881 828 4315 
Q 1253 4750 1959 4750 
Q 2769 4750 3195 4129 
Q 3622 3509 3622 2328 
Q 3622 1225 3098 567 
Q 2575 -91 1691 -91 
Q 1453 -91 1209 -44 
Q 966 3 703 97 
z
M 1959 2075 
Q 2384 2075 2632 2365 
Q 2881 2656 2881 3163 
Q 2881 3666 2632 3958 
Q 2384 4250 1959 4250 
Q 1534 4250 1286 3958 
Q 1038 3666 1038 3163 
Q 1038 2656 1286 2365 
Q 1534 2075 1959 2075 
z
" id="DejaVuSans-39" transform="scale(0.015625)"/>
       </defs>
       <use xlink:href="#DejaVuSans-2212"/>
       <use x="83.789062" xlink:href="#DejaVuSans-39"/>
       <use x="147.412109" xlink:href="#DejaVuSans-30"/>
       <use x="211.035156" xlink:href="#DejaVuSans-30"/>
      </g>
     </g>
    </g>
    <g id="ytick_2">
     <g id="line2d_8">
      <g>
       <use style="stroke:#000000;stroke-width:0.8;" x="180" xlink:href="#m563863fbec" y="276.587983"/>
      </g>
     </g>
     <g id="text_9">
      <!-- −800 -->
      <g transform="translate(145.532813 280.387202)scale(0.1 -0.1)">
       <use xlink:href="#DejaVuSans-2212"/>
       <use x="83.789062" xlink:href="#DejaVuSans-38"/>
       <use x="147.412109" xlink:href="#DejaVuSans-30"/>
       <use x="211.035156" xlink:href="#DejaVuSans-30"/>
      </g>
     </g>
    </g>
    <g id="ytick_3">
     <g id="line2d_9">
      <g>
       <use style="stroke:#000000;stroke-width:0.8;" x="180" xlink:href="#m563863fbec" y="245.086448"/>
      </g>
     </g>
     <g id="text_10">
      <!-- −700 -->
      <g transform="translate(145.532813 248.885667)scale(0.1 -0.1)">
       <defs>
        <path d="M 525 4666 
L 3525 4666 
L 3525 4397 
L 1831 0 
L 1172 0 
L 2766 4134 
L 525 4134 
L 525 4666 
z
" id="DejaVuSans-37" transform="scale(0.015625)"/>
       </defs>
       <use xlink:href="#DejaVuSans-2212"/>
       <use x="83.789062" xlink:href="#DejaVuSans-37"/>
       <use x="147.412109" xlink:href="#DejaVuSans-30"/>
       <use x="211.035156" xlink:href="#DejaVuSans-30"/>
      </g>
     </g>
    </g>
    <g id="ytick_4">
     <g id="line2d_10">
      <g>
       <use style="stroke:#000000;stroke-width:0.8;" x="180" xlink:href="#m563863fbec" y="213.584913"/>
      </g>
     </g>
     <g id="text_11">
      <!-- −600 -->
      <g transform="translate(145.532813 217.384132)scale(0.1 -0.1)">
       <use xlink:href="#DejaVuSans-2212"/>
       <use x="83.789062" xlink:href="#DejaVuSans-36"/>
       <use x="147.412109" xlink:href="#DejaVuSans-30"/>
       <use x="211.035156" xlink:href="#DejaVuSans-30"/>
      </g>
     </g>
    </g>
    <g id="ytick_5">
     <g id="line2d_11">
      <g>
       <use style="stroke:#000000;stroke-width:0.8;" x="180" xlink:href="#m563863fbec" y="182.083378"/>
      </g>
     </g>
     <g id="text_12">
      <!-- −500 -->
      <g transform="translate(145.532813 185.882597)scale(0.1 -0.1)">
       <defs>
        <path d="M 691 4666 
L 3169 4666 
L 3169 4134 
L 1269 4134 
L 1269 2991 
Q 1406 3038 1543 3061 
Q 1681 3084 1819 3084 
Q 2600 3084 3056 2656 
Q 3513 2228 3513 1497 
Q 3513 744 3044 326 
Q 2575 -91 1722 -91 
Q 1428 -91 1123 -41 
Q 819 9 494 109 
L 494 744 
Q 775 591 1075 516 
Q 1375 441 1709 441 
Q 2250 441 2565 725 
Q 2881 1009 2881 1497 
Q 2881 1984 2565 2268 
Q 2250 2553 1709 2553 
Q 1456 2553 1204 2497 
Q 953 2441 691 2322 
L 691 4666 
z
" id="DejaVuSans-35" transform="scale(0.015625)"/>
       </defs>
       <use xlink:href="#DejaVuSans-2212"/>
       <use x="83.789062" xlink:href="#DejaVuSans-35"/>
       <use x="147.412109" xlink:href="#DejaVuSans-30"/>
       <use x="211.035156" xlink:href="#DejaVuSans-30"/>
      </g>
     </g>
    </g>
    <g id="ytick_6">
     <g id="line2d_12">
      <g>
       <use style="stroke:#000000;stroke-width:0.8;" x="180" xlink:href="#m563863fbec" y="150.581843"/>
      </g>
     </g>
     <g id="text_13">
      <!-- −400 -->
      <g transform="translate(145.532813 154.381062)scale(0.1 -0.1)">
       <use xlink:href="#DejaVuSans-2212"/>
       <use x="83.789062" xlink:href="#DejaVuSans-34"/>
       <use x="147.412109" xlink:href="#DejaVuSans-30"/>
       <use x="211.035156" xlink:href="#DejaVuSans-30"/>
      </g>
     </g>
    </g>
    <g id="ytick_7">
     <g id="line2d_13">
      <g>
       <use style="stroke:#000000;stroke-width:0.8;" x="180" xlink:href="#m563863fbec" y="119.080308"/>
      </g>
     </g>
     <g id="text_14">
      <!-- −300 -->
      <g transform="translate(145.532813 122.879527)scale(0.1 -0.1)">
       <defs>
        <path d="M 2597 2516 
Q 3050 2419 3304 2112 
Q 3559 1806 3559 1356 
Q 3559 666 3084 287 
Q 2609 -91 1734 -91 
Q 1441 -91 1130 -33 
Q 819 25 488 141 
L 488 750 
Q 750 597 1062 519 
Q 1375 441 1716 441 
Q 2309 441 2620 675 
Q 2931 909 2931 1356 
Q 2931 1769 2642 2001 
Q 2353 2234 1838 2234 
L 1294 2234 
L 1294 2753 
L 1863 2753 
Q 2328 2753 2575 2939 
Q 2822 3125 2822 3475 
Q 2822 3834 2567 4026 
Q 2313 4219 1838 4219 
Q 1578 4219 1281 4162 
Q 984 4106 628 3988 
L 628 4550 
Q 988 4650 1302 4700 
Q 1616 4750 1894 4750 
Q 2613 4750 3031 4423 
Q 3450 4097 3450 3541 
Q 3450 3153 3228 2886 
Q 3006 2619 2597 2516 
z
" id="DejaVuSans-33" transform="scale(0.015625)"/>
       </defs>
       <use xlink:href="#DejaVuSans-2212"/>
       <use x="83.789062" xlink:href="#DejaVuSans-33"/>
       <use x="147.412109" xlink:href="#DejaVuSans-30"/>
       <use x="211.035156" xlink:href="#DejaVuSans-30"/>
      </g>
     </g>
    </g>
    <g id="ytick_8">
     <g id="line2d_14">
      <g>
       <use style="stroke:#000000;stroke-width:0.8;" x="180" xlink:href="#m563863fbec" y="87.578773"/>
      </g>
     </g>
     <g id="text_15">
      <!-- −200 -->
      <g transform="translate(145.532813 91.377992)scale(0.1 -0.1)">
       <use xlink:href="#DejaVuSans-2212"/>
       <use x="83.789062" xlink:href="#DejaVuSans-32"/>
       <use x="147.412109" xlink:href="#DejaVuSans-30"/>
       <use x="211.035156" xlink:href="#DejaVuSans-30"/>
      </g>
     </g>
    </g>
    <g id="ytick_9">
     <g id="line2d_15">
      <g>
       <use style="stroke:#000000;stroke-width:0.8;" x="180" xlink:href="#m563863fbec" y="56.077238"/>
      </g>
     </g>
     <g id="text_16">
      <!-- −100 -->
      <g transform="translate(145.532813 59.876457)scale(0.1 -0.1)">
       <use xlink:href="#DejaVuSans-2212"/>
       <use x="83.789062" xlink:href="#DejaVuSans-31"/>
       <use x="147.412109" xlink:href="#DejaVuSans-30"/>
       <use x="211.035156" xlink:href="#DejaVuSans-30"/>
      </g>
     </g>
    </g>
   </g>
   <g id="line2d_16">
    <path clip-path="url(#p191c1768c1)" d="M 194.919786 55.8 
L 197.933884 120.070492 
L 200.947982 125.56823 
L 203.962081 157.973121 
L 206.976179 154.407401 
L 209.990277 169.421209 
L 213.004375 180.746194 
L 216.018474 186.229797 
L 219.032572 183.324253 
L 222.04667 194.879748 
L 225.060768 191.009094 
L 228.074866 211.203402 
L 231.088965 219.847127 
L 234.103063 194.055268 
L 237.117161 206.578094 
L 240.131259 226.098897 
L 243.145357 222.892571 
L 246.159456 235.827202 
L 249.173554 220.419966 
L 252.187652 234.960684 
L 255.20175 237.399376 
L 258.215848 225.414443 
L 261.229947 242.61245 
L 264.244045 255.386517 
L 267.258143 242.171166 
L 270.272241 240.986258 
L 273.286339 247.132958 
L 276.300438 253.568441 
L 279.314536 240.3691 
L 282.328634 262.32084 
L 285.342732 267.954225 
L 288.35683 253.527851 
L 291.370929 269.138372 
L 294.385027 259.824338 
L 297.399125 254.819794 
L 300.413223 267.549425 
L 303.427321 268.341213 
L 306.44142 266.89839 
L 309.455518 260.389379 
L 312.469616 277.76312 
L 315.483714 270.525727 
L 318.497812 263.104635 
L 321.511911 264.217484 
L 324.526009 275.211932 
L 327.540107 266.47595 
L 330.554205 276.101146 
L 333.568303 269.198217 
L 336.582402 282.770983 
L 339.5965 272.842434 
L 342.610598 270.159315 
L 345.624696 263.118901 
L 348.638794 287.106321 
L 351.652893 282.418089 
L 354.666991 280.123964 
L 357.681089 262.282907 
L 360.695187 279.788749 
L 363.709285 283.031762 
L 366.723384 279.987199 
L 369.737482 279.346572 
L 372.75158 286.099432 
L 375.765678 283.174158 
L 378.779776 276.188878 
L 381.793875 300.994104 
L 384.807973 280.767299 
L 387.822071 279.806124 
L 390.836169 297.707655 
L 393.850267 285.87278 
L 396.864366 282.459532 
L 399.878464 291.889715 
L 402.892562 291.807086 
L 405.90666 291.500387 
L 408.920758 289.140281 
L 411.934857 283.821112 
L 414.948955 297.456454 
L 417.963053 292.18366 
L 420.977151 284.614182 
L 423.991249 291.044681 
L 427.005348 272.29271 
L 430.019446 294.910301 
L 433.033544 278.352593 
L 436.047642 279.21508 
L 439.06174 297.996563 
L 442.075839 290.339445 
L 445.089937 297.094196 
L 448.104035 283.585125 
L 451.118133 295.653789 
L 454.132231 300.151018 
L 457.14633 293.637798 
L 460.160428 284.937166 
L 463.174526 268.564381 
L 466.188624 304.698021 
L 469.202722 307.8 
L 472.216821 284.152424 
L 475.230919 290.160255 
L 478.245017 296.293641 
L 481.259115 301.741127 
L 484.273213 298.80395 
L 487.287312 299.48968 
L 490.30141 296.877465 
L 493.315508 292.094871 
" style="fill:none;stroke:#1f77b4;stroke-linecap:square;stroke-width:1.5;"/>
   </g>
   <g id="line2d_17">
    <path clip-path="url(#p191c1768c1)" d="M 194.919786 133.822819 
L 197.933884 146.184688 
L 200.947982 150.269678 
L 203.962081 160.56558 
L 206.976179 168.659904 
L 209.990277 180.411941 
L 213.004375 191.647417 
L 216.018474 189.080354 
L 219.032572 201.319442 
L 222.04667 199.501474 
L 225.060768 213.242792 
L 228.074866 211.046517 
L 231.088965 212.931395 
L 234.103063 213.216207 
L 237.117161 218.283188 
L 240.131259 222.268879 
L 243.145357 230.478813 
L 246.159456 227.294498 
L 249.173554 234.838073 
L 252.187652 197.855422 
L 255.20175 246.71895 
L 258.215848 246.800707 
L 261.229947 237.73445 
L 264.244045 246.948558 
L 267.258143 251.354249 
L 270.272241 254.614244 
L 273.286339 252.734072 
L 276.300438 257.239651 
L 279.314536 245.440453 
L 282.328634 250.923072 
L 285.342732 251.50109 
L 288.35683 265.472819 
L 291.370929 246.529194 
L 294.385027 242.746944 
L 297.399125 261.062432 
L 300.413223 257.413983 
L 303.427321 269.122639 
L 306.44142 270.437591 
L 309.455518 264.865805 
L 312.469616 257.606528 
L 315.483714 269.035389 
L 318.497812 274.075635 
L 321.511911 271.224355 
L 324.526009 263.213807 
L 327.540107 258.186833 
L 330.554205 280.762946 
L 333.568303 266.919381 
L 336.582402 283.645824 
L 339.5965 254.116418 
L 342.610598 279.641991 
L 345.624696 273.399054 
L 348.638794 272.405399 
L 351.652893 291.071061 
L 354.666991 277.808728 
L 357.681089 280.189339 
L 360.695187 272.562084 
L 363.709285 282.169836 
L 366.723384 283.015754 
L 369.737482 285.950997 
L 372.75158 274.533633 
L 375.765678 284.617005 
L 378.779776 275.933849 
L 381.793875 280.996276 
L 384.807973 287.658895 
L 387.822071 290.296921 
L 390.836169 290.906419 
L 393.850267 288.534856 
L 396.864366 287.39058 
L 399.878464 286.612706 
L 402.892562 294.018735 
L 405.90666 284.135562 
L 408.920758 292.946344 
L 411.934857 282.189861 
L 414.948955 280.562513 
L 417.963053 286.785115 
L 420.977151 285.107776 
L 423.991249 286.575168 
L 427.005348 292.273186 
L 430.019446 275.893078 
L 433.033544 296.790653 
L 436.047642 291.963918 
L 439.06174 287.870277 
L 442.075839 292.611671 
L 445.089937 296.999863 
L 448.104035 300.310002 
L 451.118133 296.954239 
L 454.132231 301.290914 
L 457.14633 294.350271 
L 460.160428 281.38788 
L 463.174526 295.369607 
L 466.188624 293.963389 
L 469.202722 291.040888 
L 472.216821 299.478623 
L 475.230919 295.542262 
L 478.245017 294.936148 
L 481.259115 287.691539 
L 484.273213 250.055512 
L 487.287312 301.606724 
L 490.30141 299.801693 
L 493.315508 302.198545 
" style="fill:none;stroke:#ff7f0e;stroke-linecap:square;stroke-width:1.5;"/>
   </g>
   <g id="patch_3">
    <path d="M 180 320.4 
L 180 43.2 
" style="fill:none;stroke:#000000;stroke-linecap:square;stroke-linejoin:miter;stroke-width:0.8;"/>
   </g>
   <g id="patch_4">
    <path d="M 508.235294 320.4 
L 508.235294 43.2 
" style="fill:none;stroke:#000000;stroke-linecap:square;stroke-linejoin:miter;stroke-width:0.8;"/>
   </g>
   <g id="patch_5">
    <path d="M 180 320.4 
L 508.235294 320.4 
" style="fill:none;stroke:#000000;stroke-linecap:square;stroke-linejoin:miter;stroke-width:0.8;"/>
   </g>
   <g id="patch_6">
    <path d="M 180 43.2 
L 508.235294 43.2 
" style="fill:none;stroke:#000000;stroke-linecap:square;stroke-linejoin:miter;stroke-width:0.8;"/>
   </g>
   <g id="legend_1">
    <g id="patch_7">
     <path d="M 397.360294 80.55625 
L 501.235294 80.55625 
Q 503.235294 80.55625 503.235294 78.55625 
L 503.235294 50.2 
Q 503.235294 48.2 501.235294 48.2 
L 397.360294 48.2 
Q 395.360294 48.2 395.360294 50.2 
L 395.360294 78.55625 
Q 395.360294 80.55625 397.360294 80.55625 
z
" style="fill:#ffffff;opacity:0.8;stroke:#cccccc;stroke-linejoin:miter;"/>
    </g>
    <g id="line2d_18">
     <path d="M 399.360294 56.298437 
L 419.360294 56.298437 
" style="fill:none;stroke:#1f77b4;stroke-linecap:square;stroke-width:1.5;"/>
    </g>
    <g id="line2d_19"/>
    <g id="text_17">
     <!-- Train loss -->
     <g transform="translate(427.360294 59.798437)scale(0.1 -0.1)">
      <defs>
       <path d="M -19 4666 
L 3928 4666 
L 3928 4134 
L 2272 4134 
L 2272 0 
L 1638 0 
L 1638 4134 
L -19 4134 
L -19 4666 
z
" id="DejaVuSans-54" transform="scale(0.015625)"/>
       <path d="M 2631 2963 
Q 2534 3019 2420 3045 
Q 2306 3072 2169 3072 
Q 1681 3072 1420 2755 
Q 1159 2438 1159 1844 
L 1159 0 
L 581 0 
L 581 3500 
L 1159 3500 
L 1159 2956 
Q 1341 3275 1631 3429 
Q 1922 3584 2338 3584 
Q 2397 3584 2469 3576 
Q 2541 3569 2628 3553 
L 2631 2963 
z
" id="DejaVuSans-72" transform="scale(0.015625)"/>
       <path d="M 2194 1759 
Q 1497 1759 1228 1600 
Q 959 1441 959 1056 
Q 959 750 1161 570 
Q 1363 391 1709 391 
Q 2188 391 2477 730 
Q 2766 1069 2766 1631 
L 2766 1759 
L 2194 1759 
z
M 3341 1997 
L 3341 0 
L 2766 0 
L 2766 531 
Q 2569 213 2275 61 
Q 1981 -91 1556 -91 
Q 1019 -91 701 211 
Q 384 513 384 1019 
Q 384 1609 779 1909 
Q 1175 2209 1959 2209 
L 2766 2209 
L 2766 2266 
Q 2766 2663 2505 2880 
Q 2244 3097 1772 3097 
Q 1472 3097 1187 3025 
Q 903 2953 641 2809 
L 641 3341 
Q 956 3463 1253 3523 
Q 1550 3584 1831 3584 
Q 2591 3584 2966 3190 
Q 3341 2797 3341 1997 
z
" id="DejaVuSans-61" transform="scale(0.015625)"/>
       <path d="M 603 3500 
L 1178 3500 
L 1178 0 
L 603 0 
L 603 3500 
z
M 603 4863 
L 1178 4863 
L 1178 4134 
L 603 4134 
L 603 4863 
z
" id="DejaVuSans-69" transform="scale(0.015625)"/>
       <path d="M 3513 2113 
L 3513 0 
L 2938 0 
L 2938 2094 
Q 2938 2591 2744 2837 
Q 2550 3084 2163 3084 
Q 1697 3084 1428 2787 
Q 1159 2491 1159 1978 
L 1159 0 
L 581 0 
L 581 3500 
L 1159 3500 
L 1159 2956 
Q 1366 3272 1645 3428 
Q 1925 3584 2291 3584 
Q 2894 3584 3203 3211 
Q 3513 2838 3513 2113 
z
" id="DejaVuSans-6e" transform="scale(0.015625)"/>
       <path id="DejaVuSans-20" transform="scale(0.015625)"/>
       <path d="M 603 4863 
L 1178 4863 
L 1178 0 
L 603 0 
L 603 4863 
z
" id="DejaVuSans-6c" transform="scale(0.015625)"/>
       <path d="M 2834 3397 
L 2834 2853 
Q 2591 2978 2328 3040 
Q 2066 3103 1784 3103 
Q 1356 3103 1142 2972 
Q 928 2841 928 2578 
Q 928 2378 1081 2264 
Q 1234 2150 1697 2047 
L 1894 2003 
Q 2506 1872 2764 1633 
Q 3022 1394 3022 966 
Q 3022 478 2636 193 
Q 2250 -91 1575 -91 
Q 1294 -91 989 -36 
Q 684 19 347 128 
L 347 722 
Q 666 556 975 473 
Q 1284 391 1588 391 
Q 1994 391 2212 530 
Q 2431 669 2431 922 
Q 2431 1156 2273 1281 
Q 2116 1406 1581 1522 
L 1381 1569 
Q 847 1681 609 1914 
Q 372 2147 372 2553 
Q 372 3047 722 3315 
Q 1072 3584 1716 3584 
Q 2034 3584 2315 3537 
Q 2597 3491 2834 3397 
z
" id="DejaVuSans-73" transform="scale(0.015625)"/>
      </defs>
      <use xlink:href="#DejaVuSans-54"/>
      <use x="46.333984" xlink:href="#DejaVuSans-72"/>
      <use x="87.447266" xlink:href="#DejaVuSans-61"/>
      <use x="148.726562" xlink:href="#DejaVuSans-69"/>
      <use x="176.509766" xlink:href="#DejaVuSans-6e"/>
      <use x="239.888672" xlink:href="#DejaVuSans-20"/>
      <use x="271.675781" xlink:href="#DejaVuSans-6c"/>
      <use x="299.458984" xlink:href="#DejaVuSans-6f"/>
      <use x="360.640625" xlink:href="#DejaVuSans-73"/>
      <use x="412.740234" xlink:href="#DejaVuSans-73"/>
     </g>
    </g>
    <g id="line2d_20">
     <path d="M 399.360294 70.976562 
L 419.360294 70.976562 
" style="fill:none;stroke:#ff7f0e;stroke-linecap:square;stroke-width:1.5;"/>
    </g>
    <g id="line2d_21"/>
    <g id="text_18">
     <!-- Validation loss -->
     <g transform="translate(427.360294 74.476562)scale(0.1 -0.1)">
      <defs>
       <path d="M 1831 0 
L 50 4666 
L 709 4666 
L 2188 738 
L 3669 4666 
L 4325 4666 
L 2547 0 
L 1831 0 
z
" id="DejaVuSans-56" transform="scale(0.015625)"/>
       <path d="M 2906 2969 
L 2906 4863 
L 3481 4863 
L 3481 0 
L 2906 0 
L 2906 525 
Q 2725 213 2448 61 
Q 2172 -91 1784 -91 
Q 1150 -91 751 415 
Q 353 922 353 1747 
Q 353 2572 751 3078 
Q 1150 3584 1784 3584 
Q 2172 3584 2448 3432 
Q 2725 3281 2906 2969 
z
M 947 1747 
Q 947 1113 1208 752 
Q 1469 391 1925 391 
Q 2381 391 2643 752 
Q 2906 1113 2906 1747 
Q 2906 2381 2643 2742 
Q 2381 3103 1925 3103 
Q 1469 3103 1208 2742 
Q 947 2381 947 1747 
z
" id="DejaVuSans-64" transform="scale(0.015625)"/>
       <path d="M 1172 4494 
L 1172 3500 
L 2356 3500 
L 2356 3053 
L 1172 3053 
L 1172 1153 
Q 1172 725 1289 603 
Q 1406 481 1766 481 
L 2356 481 
L 2356 0 
L 1766 0 
Q 1100 0 847 248 
Q 594 497 594 1153 
L 594 3053 
L 172 3053 
L 172 3500 
L 594 3500 
L 594 4494 
L 1172 4494 
z
" id="DejaVuSans-74" transform="scale(0.015625)"/>
      </defs>
      <use xlink:href="#DejaVuSans-56"/>
      <use x="60.658203" xlink:href="#DejaVuSans-61"/>
      <use x="121.9375" xlink:href="#DejaVuSans-6c"/>
      <use x="149.720703" xlink:href="#DejaVuSans-69"/>
      <use x="177.503906" xlink:href="#DejaVuSans-64"/>
      <use x="240.980469" xlink:href="#DejaVuSans-61"/>
      <use x="302.259766" xlink:href="#DejaVuSans-74"/>
      <use x="341.46875" xlink:href="#DejaVuSans-69"/>
      <use x="369.251953" xlink:href="#DejaVuSans-6f"/>
      <use x="430.433594" xlink:href="#DejaVuSans-6e"/>
      <use x="493.8125" xlink:href="#DejaVuSans-20"/>
      <use x="525.599609" xlink:href="#DejaVuSans-6c"/>
      <use x="553.382812" xlink:href="#DejaVuSans-6f"/>
      <use x="614.564453" xlink:href="#DejaVuSans-73"/>
      <use x="666.664062" xlink:href="#DejaVuSans-73"/>
     </g>
    </g>
   </g>
  </g>
  <g id="axes_2">
   <g id="patch_8">
    <path d="M 573.882353 320.4 
L 902.117647 320.4 
L 902.117647 43.2 
L 573.882353 43.2 
z
" style="fill:#ffffff;"/>
   </g>
   <g id="matplotlib.axis_3">
    <g id="xtick_7">
     <g id="line2d_22">
      <g>
       <use style="stroke:#000000;stroke-width:0.8;" x="585.788041" xlink:href="#m0f6963aec1" y="320.4"/>
      </g>
     </g>
     <g id="text_19">
      <!-- 0 -->
      <g transform="translate(582.606791 334.998438)scale(0.1 -0.1)">
       <use xlink:href="#DejaVuSans-30"/>
      </g>
     </g>
    </g>
    <g id="xtick_8">
     <g id="line2d_23">
      <g>
       <use style="stroke:#000000;stroke-width:0.8;" x="646.070005" xlink:href="#m0f6963aec1" y="320.4"/>
      </g>
     </g>
     <g id="text_20">
      <!-- 20 -->
      <g transform="translate(639.707505 334.998438)scale(0.1 -0.1)">
       <use xlink:href="#DejaVuSans-32"/>
       <use x="63.623047" xlink:href="#DejaVuSans-30"/>
      </g>
     </g>
    </g>
    <g id="xtick_9">
     <g id="line2d_24">
      <g>
       <use style="stroke:#000000;stroke-width:0.8;" x="706.351969" xlink:href="#m0f6963aec1" y="320.4"/>
      </g>
     </g>
     <g id="text_21">
      <!-- 40 -->
      <g transform="translate(699.989469 334.998438)scale(0.1 -0.1)">
       <use xlink:href="#DejaVuSans-34"/>
       <use x="63.623047" xlink:href="#DejaVuSans-30"/>
      </g>
     </g>
    </g>
    <g id="xtick_10">
     <g id="line2d_25">
      <g>
       <use style="stroke:#000000;stroke-width:0.8;" x="766.633933" xlink:href="#m0f6963aec1" y="320.4"/>
      </g>
     </g>
     <g id="text_22">
      <!-- 60 -->
      <g transform="translate(760.271433 334.998438)scale(0.1 -0.1)">
       <use xlink:href="#DejaVuSans-36"/>
       <use x="63.623047" xlink:href="#DejaVuSans-30"/>
      </g>
     </g>
    </g>
    <g id="xtick_11">
     <g id="line2d_26">
      <g>
       <use style="stroke:#000000;stroke-width:0.8;" x="826.915897" xlink:href="#m0f6963aec1" y="320.4"/>
      </g>
     </g>
     <g id="text_23">
      <!-- 80 -->
      <g transform="translate(820.553397 334.998438)scale(0.1 -0.1)">
       <use xlink:href="#DejaVuSans-38"/>
       <use x="63.623047" xlink:href="#DejaVuSans-30"/>
      </g>
     </g>
    </g>
    <g id="xtick_12">
     <g id="line2d_27">
      <g>
       <use style="stroke:#000000;stroke-width:0.8;" x="887.197861" xlink:href="#m0f6963aec1" y="320.4"/>
      </g>
     </g>
     <g id="text_24">
      <!-- 100 -->
      <g transform="translate(877.654111 334.998438)scale(0.1 -0.1)">
       <use xlink:href="#DejaVuSans-31"/>
       <use x="63.623047" xlink:href="#DejaVuSans-30"/>
       <use x="127.246094" xlink:href="#DejaVuSans-30"/>
      </g>
     </g>
    </g>
    <g id="text_25">
     <!-- Epoch -->
     <g transform="translate(715.033594 352.475781)scale(0.15 -0.15)">
      <use xlink:href="#DejaVuSans-45"/>
      <use x="63.183594" xlink:href="#DejaVuSans-70"/>
      <use x="126.660156" xlink:href="#DejaVuSans-6f"/>
      <use x="187.841797" xlink:href="#DejaVuSans-63"/>
      <use x="242.822266" xlink:href="#DejaVuSans-68"/>
     </g>
    </g>
   </g>
   <g id="matplotlib.axis_4">
    <g id="ytick_10">
     <g id="line2d_28">
      <g>
       <use style="stroke:#000000;stroke-width:0.8;" x="573.882353" xlink:href="#m563863fbec" y="320.4"/>
      </g>
     </g>
     <g id="text_26">
      <!-- 0.0 -->
      <g transform="translate(550.979228 324.199219)scale(0.1 -0.1)">
       <defs>
        <path d="M 684 794 
L 1344 794 
L 1344 0 
L 684 0 
L 684 794 
z
" id="DejaVuSans-2e" transform="scale(0.015625)"/>
       </defs>
       <use xlink:href="#DejaVuSans-30"/>
       <use x="63.623047" xlink:href="#DejaVuSans-2e"/>
       <use x="95.410156" xlink:href="#DejaVuSans-30"/>
      </g>
     </g>
    </g>
    <g id="ytick_11">
     <g id="line2d_29">
      <g>
       <use style="stroke:#000000;stroke-width:0.8;" x="573.882353" xlink:href="#m563863fbec" y="264.96"/>
      </g>
     </g>
     <g id="text_27">
      <!-- 0.2 -->
      <g transform="translate(550.979228 268.759219)scale(0.1 -0.1)">
       <use xlink:href="#DejaVuSans-30"/>
       <use x="63.623047" xlink:href="#DejaVuSans-2e"/>
       <use x="95.410156" xlink:href="#DejaVuSans-32"/>
      </g>
     </g>
    </g>
    <g id="ytick_12">
     <g id="line2d_30">
      <g>
       <use style="stroke:#000000;stroke-width:0.8;" x="573.882353" xlink:href="#m563863fbec" y="209.52"/>
      </g>
     </g>
     <g id="text_28">
      <!-- 0.4 -->
      <g transform="translate(550.979228 213.319219)scale(0.1 -0.1)">
       <use xlink:href="#DejaVuSans-30"/>
       <use x="63.623047" xlink:href="#DejaVuSans-2e"/>
       <use x="95.410156" xlink:href="#DejaVuSans-34"/>
      </g>
     </g>
    </g>
    <g id="ytick_13">
     <g id="line2d_31">
      <g>
       <use style="stroke:#000000;stroke-width:0.8;" x="573.882353" xlink:href="#m563863fbec" y="154.08"/>
      </g>
     </g>
     <g id="text_29">
      <!-- 0.6 -->
      <g transform="translate(550.979228 157.879219)scale(0.1 -0.1)">
       <use xlink:href="#DejaVuSans-30"/>
       <use x="63.623047" xlink:href="#DejaVuSans-2e"/>
       <use x="95.410156" xlink:href="#DejaVuSans-36"/>
      </g>
     </g>
    </g>
    <g id="ytick_14">
     <g id="line2d_32">
      <g>
       <use style="stroke:#000000;stroke-width:0.8;" x="573.882353" xlink:href="#m563863fbec" y="98.64"/>
      </g>
     </g>
     <g id="text_30">
      <!-- 0.8 -->
      <g transform="translate(550.979228 102.439219)scale(0.1 -0.1)">
       <use xlink:href="#DejaVuSans-30"/>
       <use x="63.623047" xlink:href="#DejaVuSans-2e"/>
       <use x="95.410156" xlink:href="#DejaVuSans-38"/>
      </g>
     </g>
    </g>
    <g id="ytick_15">
     <g id="line2d_33">
      <g>
       <use style="stroke:#000000;stroke-width:0.8;" x="573.882353" xlink:href="#m563863fbec" y="43.2"/>
      </g>
     </g>
     <g id="text_31">
      <!-- 1.0 -->
      <g transform="translate(550.979228 46.999219)scale(0.1 -0.1)">
       <use xlink:href="#DejaVuSans-31"/>
       <use x="63.623047" xlink:href="#DejaVuSans-2e"/>
       <use x="95.410156" xlink:href="#DejaVuSans-30"/>
      </g>
     </g>
    </g>
    <g id="text_32">
     <!-- Accuracy -->
     <g transform="translate(543.859697 216.042187)rotate(-90)scale(0.15 -0.15)">
      <defs>
       <path d="M 2188 4044 
L 1331 1722 
L 3047 1722 
L 2188 4044 
z
M 1831 4666 
L 2547 4666 
L 4325 0 
L 3669 0 
L 3244 1197 
L 1141 1197 
L 716 0 
L 50 0 
L 1831 4666 
z
" id="DejaVuSans-41" transform="scale(0.015625)"/>
       <path d="M 544 1381 
L 544 3500 
L 1119 3500 
L 1119 1403 
Q 1119 906 1312 657 
Q 1506 409 1894 409 
Q 2359 409 2629 706 
Q 2900 1003 2900 1516 
L 2900 3500 
L 3475 3500 
L 3475 0 
L 2900 0 
L 2900 538 
Q 2691 219 2414 64 
Q 2138 -91 1772 -91 
Q 1169 -91 856 284 
Q 544 659 544 1381 
z
M 1991 3584 
L 1991 3584 
z
" id="DejaVuSans-75" transform="scale(0.015625)"/>
       <path d="M 2059 -325 
Q 1816 -950 1584 -1140 
Q 1353 -1331 966 -1331 
L 506 -1331 
L 506 -850 
L 844 -850 
Q 1081 -850 1212 -737 
Q 1344 -625 1503 -206 
L 1606 56 
L 191 3500 
L 800 3500 
L 1894 763 
L 2988 3500 
L 3597 3500 
L 2059 -325 
z
" id="DejaVuSans-79" transform="scale(0.015625)"/>
      </defs>
      <use xlink:href="#DejaVuSans-41"/>
      <use x="66.658203" xlink:href="#DejaVuSans-63"/>
      <use x="121.638672" xlink:href="#DejaVuSans-63"/>
      <use x="176.619141" xlink:href="#DejaVuSans-75"/>
      <use x="239.998047" xlink:href="#DejaVuSans-72"/>
      <use x="281.111328" xlink:href="#DejaVuSans-61"/>
      <use x="342.390625" xlink:href="#DejaVuSans-63"/>
      <use x="397.371094" xlink:href="#DejaVuSans-79"/>
     </g>
    </g>
   </g>
   <g id="line2d_34">
    <path clip-path="url(#pa85f80309b)" d="M 588.802139 295.452 
L 591.816237 292.68 
L 594.830335 296.838 
L 597.844434 292.68 
L 600.858532 291.294 
L 603.87263 294.066 
L 606.886728 294.066 
L 609.900826 299.61 
L 612.914925 291.294 
L 615.929023 296.838 
L 618.943121 296.838 
L 621.957219 289.908 
L 624.971317 303.768 
L 627.985416 296.838 
L 630.999514 287.136 
L 634.013612 294.066 
L 637.02771 295.452 
L 640.041808 298.224 
L 643.055907 294.066 
L 646.070005 289.908 
L 649.084103 288.522 
L 652.098201 300.996 
L 655.112299 291.294 
L 658.126398 288.522 
L 661.140496 281.592 
L 664.154594 291.294 
L 667.168692 300.996 
L 670.18279 302.382 
L 673.196889 285.75 
L 676.210987 296.838 
L 679.225085 296.838 
L 682.239183 292.68 
L 685.253281 294.066 
L 688.26738 298.224 
L 691.281478 289.908 
L 694.295576 292.68 
L 697.309674 287.136 
L 700.323772 276.048 
L 703.337871 270.504 
L 706.351969 276.048 
L 709.366067 264.96 
L 712.380165 263.574 
L 715.394263 262.188 
L 718.408362 259.416 
L 721.42246 263.574 
L 724.436558 266.346 
L 727.450656 262.188 
L 730.464754 259.416 
L 733.478853 262.188 
L 736.492951 263.574 
L 739.507049 249.714 
L 742.521147 260.802 
L 745.535246 248.328 
L 748.549344 253.872 
L 751.563442 248.328 
L 754.57754 240.012 
L 757.591638 246.942 
L 760.605737 248.328 
L 763.619835 237.24 
L 766.633933 245.556 
L 769.648031 260.802 
L 772.662129 259.416 
L 775.676228 241.398 
L 778.690326 238.626 
L 781.704424 255.258 
L 784.718522 245.556 
L 787.73262 233.082 
L 790.746719 244.17 
L 793.760817 237.24 
L 796.774915 249.714 
L 799.789013 252.486 
L 802.803111 234.468 
L 805.81721 221.994 
L 808.831308 233.082 
L 811.845406 235.854 
L 814.859504 234.468 
L 817.873602 237.24 
L 820.887701 220.608 
L 823.901799 226.152 
L 826.915897 230.31 
L 829.929995 219.222 
L 832.944093 227.538 
L 835.958192 224.766 
L 838.97229 230.31 
L 841.986388 212.292 
L 845.000486 238.626 
L 848.014584 221.994 
L 851.028683 212.292 
L 854.042781 215.064 
L 857.056879 209.52 
L 860.070977 197.046 
L 863.085075 212.292 
L 866.099174 234.468 
L 869.113272 192.888 
L 872.12737 209.52 
L 875.141468 213.678 
L 878.155566 190.116 
L 881.169665 195.66 
L 884.183763 206.748 
L 887.197861 212.292 
" style="fill:none;stroke:#1f77b4;stroke-linecap:square;stroke-width:1.5;"/>
   </g>
   <g id="line2d_35">
    <path clip-path="url(#pa85f80309b)" d="M 588.802139 292.218 
L 591.816237 293.4423 
L 594.830335 293.2806 
L 597.844434 293.8119 
L 600.858532 293.604 
L 603.87263 293.0265 
L 606.886728 293.5347 
L 609.900826 291.8946 
L 612.914925 292.9341 
L 615.929023 293.373 
L 618.943121 293.3037 
L 621.957219 292.5645 
L 624.971317 293.8119 
L 627.985416 292.0332 
L 630.999514 291.2016 
L 634.013612 292.3104 
L 637.02771 294.1353 
L 640.041808 291.4557 
L 643.055907 292.0794 
L 646.070005 292.8186 
L 649.084103 292.7493 
L 652.098201 292.6338 
L 655.112299 292.5645 
L 658.126398 293.2344 
L 661.140496 293.9505 
L 664.154594 293.0034 
L 667.168692 293.6502 
L 670.18279 293.0034 
L 673.196889 295.4289 
L 676.210987 294.8976 
L 679.225085 293.9505 
L 682.239183 294.1584 
L 685.253281 292.7031 
L 688.26738 292.2873 
L 691.281478 292.6338 
L 694.295576 289.1688 
L 697.309674 286.7664 
L 700.323772 277.0413 
L 703.337871 272.6523 
L 706.351969 268.1016 
L 709.366067 269.9265 
L 712.380165 262.4652 
L 715.394263 258.5613 
L 718.408362 261.8415 
L 721.42246 258.3072 
L 724.436558 259.5315 
L 727.450656 256.1127 
L 730.464754 259.3467 
L 733.478853 252.486 
L 736.492951 253.1559 
L 739.507049 250.176 
L 742.521147 253.7565 
L 745.535246 249.8295 
L 748.549344 253.7334 
L 751.563442 255.3735 
L 754.57754 249.8295 
L 757.591638 245.6715 
L 760.605737 246.9651 
L 763.619835 250.8921 
L 766.633933 246.1104 
L 769.648031 245.1171 
L 772.662129 242.3913 
L 775.676228 240.6126 
L 778.690326 252.3936 
L 781.704424 246.1104 
L 784.718522 237.8175 
L 787.73262 248.7207 
L 790.746719 239.3883 
L 793.760817 243.0381 
L 796.774915 242.8995 
L 799.789013 239.2959 
L 802.803111 237.9561 
L 805.81721 237.7944 
L 808.831308 241.5135 
L 811.845406 238.2102 
L 814.859504 239.8734 
L 817.873602 234.4911 
L 820.887701 240.5433 
L 823.901799 233.4054 
L 826.915897 243.8928 
L 829.929995 231.003 
L 832.944093 233.1513 
L 835.958192 231.0261 
L 838.97229 228.8316 
L 841.986388 229.7787 
L 845.000486 233.8212 
L 848.014584 232.2504 
L 851.028683 225.0432 
L 854.042781 225.0894 
L 857.056879 222.1557 
L 860.070977 221.0931 
L 863.085075 219.9612 
L 866.099174 230.4024 
L 869.113272 217.836 
L 872.12737 214.0245 
L 875.141468 216.1728 
L 878.155566 220.0305 
L 881.169665 214.8792 
L 884.183763 210.0744 
L 887.197861 210.0744 
" style="fill:none;stroke:#ff7f0e;stroke-linecap:square;stroke-width:1.5;"/>
   </g>
   <g id="patch_9">
    <path d="M 573.882353 320.4 
L 573.882353 43.2 
" style="fill:none;stroke:#000000;stroke-linecap:square;stroke-linejoin:miter;stroke-width:0.8;"/>
   </g>
   <g id="patch_10">
    <path d="M 902.117647 320.4 
L 902.117647 43.2 
" style="fill:none;stroke:#000000;stroke-linecap:square;stroke-linejoin:miter;stroke-width:0.8;"/>
   </g>
   <g id="patch_11">
    <path d="M 573.882353 320.4 
L 902.117647 320.4 
" style="fill:none;stroke:#000000;stroke-linecap:square;stroke-linejoin:miter;stroke-width:0.8;"/>
   </g>
   <g id="patch_12">
    <path d="M 573.882353 43.2 
L 902.117647 43.2 
" style="fill:none;stroke:#000000;stroke-linecap:square;stroke-linejoin:miter;stroke-width:0.8;"/>
   </g>
   <g id="legend_2">
    <g id="patch_13">
     <path d="M 791.242647 80.55625 
L 895.117647 80.55625 
Q 897.117647 80.55625 897.117647 78.55625 
L 897.117647 50.2 
Q 897.117647 48.2 895.117647 48.2 
L 791.242647 48.2 
Q 789.242647 48.2 789.242647 50.2 
L 789.242647 78.55625 
Q 789.242647 80.55625 791.242647 80.55625 
z
" style="fill:#ffffff;opacity:0.8;stroke:#cccccc;stroke-linejoin:miter;"/>
    </g>
    <g id="line2d_36">
     <path d="M 793.242647 56.298437 
L 813.242647 56.298437 
" style="fill:none;stroke:#1f77b4;stroke-linecap:square;stroke-width:1.5;"/>
    </g>
    <g id="line2d_37"/>
    <g id="text_33">
     <!-- Train loss -->
     <g transform="translate(821.242647 59.798437)scale(0.1 -0.1)">
      <use xlink:href="#DejaVuSans-54"/>
      <use x="46.333984" xlink:href="#DejaVuSans-72"/>
      <use x="87.447266" xlink:href="#DejaVuSans-61"/>
      <use x="148.726562" xlink:href="#DejaVuSans-69"/>
      <use x="176.509766" xlink:href="#DejaVuSans-6e"/>
      <use x="239.888672" xlink:href="#DejaVuSans-20"/>
      <use x="271.675781" xlink:href="#DejaVuSans-6c"/>
      <use x="299.458984" xlink:href="#DejaVuSans-6f"/>
      <use x="360.640625" xlink:href="#DejaVuSans-73"/>
      <use x="412.740234" xlink:href="#DejaVuSans-73"/>
     </g>
    </g>
    <g id="line2d_38">
     <path d="M 793.242647 70.976562 
L 813.242647 70.976562 
" style="fill:none;stroke:#ff7f0e;stroke-linecap:square;stroke-width:1.5;"/>
    </g>
    <g id="line2d_39"/>
    <g id="text_34">
     <!-- Validation loss -->
     <g transform="translate(821.242647 74.476562)scale(0.1 -0.1)">
      <use xlink:href="#DejaVuSans-56"/>
      <use x="60.658203" xlink:href="#DejaVuSans-61"/>
      <use x="121.9375" xlink:href="#DejaVuSans-6c"/>
      <use x="149.720703" xlink:href="#DejaVuSans-69"/>
      <use x="177.503906" xlink:href="#DejaVuSans-64"/>
      <use x="240.980469" xlink:href="#DejaVuSans-61"/>
      <use x="302.259766" xlink:href="#DejaVuSans-74"/>
      <use x="341.46875" xlink:href="#DejaVuSans-69"/>
      <use x="369.251953" xlink:href="#DejaVuSans-6f"/>
      <use x="430.433594" xlink:href="#DejaVuSans-6e"/>
      <use x="493.8125" xlink:href="#DejaVuSans-20"/>
      <use x="525.599609" xlink:href="#DejaVuSans-6c"/>
      <use x="553.382812" xlink:href="#DejaVuSans-6f"/>
      <use x="614.564453" xlink:href="#DejaVuSans-73"/>
      <use x="666.664062" xlink:href="#DejaVuSans-73"/>
     </g>
    </g>
   </g>
  </g>
  <g id="axes_3">
   <g id="patch_14">
    <path d="M 967.764706 320.4 
L 1296 320.4 
L 1296 43.2 
L 967.764706 43.2 
z
" style="fill:#ffffff;"/>
   </g>
   <g id="matplotlib.axis_5">
    <g id="xtick_13">
     <g id="line2d_40">
      <g>
       <use style="stroke:#000000;stroke-width:0.8;" x="979.670394" xlink:href="#m0f6963aec1" y="320.4"/>
      </g>
     </g>
     <g id="text_35">
      <!-- 0 -->
      <g transform="translate(976.489144 334.998438)scale(0.1 -0.1)">
       <use xlink:href="#DejaVuSans-30"/>
      </g>
     </g>
    </g>
    <g id="xtick_14">
     <g id="line2d_41">
      <g>
       <use style="stroke:#000000;stroke-width:0.8;" x="1039.952358" xlink:href="#m0f6963aec1" y="320.4"/>
      </g>
     </g>
     <g id="text_36">
      <!-- 20 -->
      <g transform="translate(1033.589858 334.998438)scale(0.1 -0.1)">
       <use xlink:href="#DejaVuSans-32"/>
       <use x="63.623047" xlink:href="#DejaVuSans-30"/>
      </g>
     </g>
    </g>
    <g id="xtick_15">
     <g id="line2d_42">
      <g>
       <use style="stroke:#000000;stroke-width:0.8;" x="1100.234322" xlink:href="#m0f6963aec1" y="320.4"/>
      </g>
     </g>
     <g id="text_37">
      <!-- 40 -->
      <g transform="translate(1093.871822 334.998438)scale(0.1 -0.1)">
       <use xlink:href="#DejaVuSans-34"/>
       <use x="63.623047" xlink:href="#DejaVuSans-30"/>
      </g>
     </g>
    </g>
    <g id="xtick_16">
     <g id="line2d_43">
      <g>
       <use style="stroke:#000000;stroke-width:0.8;" x="1160.516286" xlink:href="#m0f6963aec1" y="320.4"/>
      </g>
     </g>
     <g id="text_38">
      <!-- 60 -->
      <g transform="translate(1154.153786 334.998438)scale(0.1 -0.1)">
       <use xlink:href="#DejaVuSans-36"/>
       <use x="63.623047" xlink:href="#DejaVuSans-30"/>
      </g>
     </g>
    </g>
    <g id="xtick_17">
     <g id="line2d_44">
      <g>
       <use style="stroke:#000000;stroke-width:0.8;" x="1220.79825" xlink:href="#m0f6963aec1" y="320.4"/>
      </g>
     </g>
     <g id="text_39">
      <!-- 80 -->
      <g transform="translate(1214.43575 334.998438)scale(0.1 -0.1)">
       <use xlink:href="#DejaVuSans-38"/>
       <use x="63.623047" xlink:href="#DejaVuSans-30"/>
      </g>
     </g>
    </g>
    <g id="xtick_18">
     <g id="line2d_45">
      <g>
       <use style="stroke:#000000;stroke-width:0.8;" x="1281.080214" xlink:href="#m0f6963aec1" y="320.4"/>
      </g>
     </g>
     <g id="text_40">
      <!-- 100 -->
      <g transform="translate(1271.536464 334.998438)scale(0.1 -0.1)">
       <use xlink:href="#DejaVuSans-31"/>
       <use x="63.623047" xlink:href="#DejaVuSans-30"/>
       <use x="127.246094" xlink:href="#DejaVuSans-30"/>
      </g>
     </g>
    </g>
    <g id="text_41">
     <!-- Epoch -->
     <g transform="translate(1108.915947 352.475781)scale(0.15 -0.15)">
      <use xlink:href="#DejaVuSans-45"/>
      <use x="63.183594" xlink:href="#DejaVuSans-70"/>
      <use x="126.660156" xlink:href="#DejaVuSans-6f"/>
      <use x="187.841797" xlink:href="#DejaVuSans-63"/>
      <use x="242.822266" xlink:href="#DejaVuSans-68"/>
     </g>
    </g>
   </g>
   <g id="matplotlib.axis_6">
    <g id="ytick_16">
     <g id="line2d_46">
      <g>
       <use style="stroke:#000000;stroke-width:0.8;" x="967.764706" xlink:href="#m563863fbec" y="311.077049"/>
      </g>
     </g>
     <g id="text_42">
      <!-- −0.10 -->
      <g transform="translate(930.119393 314.876268)scale(0.1 -0.1)">
       <use xlink:href="#DejaVuSans-2212"/>
       <use x="83.789062" xlink:href="#DejaVuSans-30"/>
       <use x="147.412109" xlink:href="#DejaVuSans-2e"/>
       <use x="179.199219" xlink:href="#DejaVuSans-31"/>
       <use x="242.822266" xlink:href="#DejaVuSans-30"/>
      </g>
     </g>
    </g>
    <g id="ytick_17">
     <g id="line2d_47">
      <g>
       <use style="stroke:#000000;stroke-width:0.8;" x="967.764706" xlink:href="#m563863fbec" y="260.035447"/>
      </g>
     </g>
     <g id="text_43">
      <!-- −0.08 -->
      <g transform="translate(930.119393 263.834666)scale(0.1 -0.1)">
       <use xlink:href="#DejaVuSans-2212"/>
       <use x="83.789062" xlink:href="#DejaVuSans-30"/>
       <use x="147.412109" xlink:href="#DejaVuSans-2e"/>
       <use x="179.199219" xlink:href="#DejaVuSans-30"/>
       <use x="242.822266" xlink:href="#DejaVuSans-38"/>
      </g>
     </g>
    </g>
    <g id="ytick_18">
     <g id="line2d_48">
      <g>
       <use style="stroke:#000000;stroke-width:0.8;" x="967.764706" xlink:href="#m563863fbec" y="208.993845"/>
      </g>
     </g>
     <g id="text_44">
      <!-- −0.06 -->
      <g transform="translate(930.119393 212.793063)scale(0.1 -0.1)">
       <use xlink:href="#DejaVuSans-2212"/>
       <use x="83.789062" xlink:href="#DejaVuSans-30"/>
       <use x="147.412109" xlink:href="#DejaVuSans-2e"/>
       <use x="179.199219" xlink:href="#DejaVuSans-30"/>
       <use x="242.822266" xlink:href="#DejaVuSans-36"/>
      </g>
     </g>
    </g>
    <g id="ytick_19">
     <g id="line2d_49">
      <g>
       <use style="stroke:#000000;stroke-width:0.8;" x="967.764706" xlink:href="#m563863fbec" y="157.952242"/>
      </g>
     </g>
     <g id="text_45">
      <!-- −0.04 -->
      <g transform="translate(930.119393 161.751461)scale(0.1 -0.1)">
       <use xlink:href="#DejaVuSans-2212"/>
       <use x="83.789062" xlink:href="#DejaVuSans-30"/>
       <use x="147.412109" xlink:href="#DejaVuSans-2e"/>
       <use x="179.199219" xlink:href="#DejaVuSans-30"/>
       <use x="242.822266" xlink:href="#DejaVuSans-34"/>
      </g>
     </g>
    </g>
    <g id="ytick_20">
     <g id="line2d_50">
      <g>
       <use style="stroke:#000000;stroke-width:0.8;" x="967.764706" xlink:href="#m563863fbec" y="106.91064"/>
      </g>
     </g>
     <g id="text_46">
      <!-- −0.02 -->
      <g transform="translate(930.119393 110.709859)scale(0.1 -0.1)">
       <use xlink:href="#DejaVuSans-2212"/>
       <use x="83.789062" xlink:href="#DejaVuSans-30"/>
       <use x="147.412109" xlink:href="#DejaVuSans-2e"/>
       <use x="179.199219" xlink:href="#DejaVuSans-30"/>
       <use x="242.822266" xlink:href="#DejaVuSans-32"/>
      </g>
     </g>
    </g>
    <g id="ytick_21">
     <g id="line2d_51">
      <g>
       <use style="stroke:#000000;stroke-width:0.8;" x="967.764706" xlink:href="#m563863fbec" y="55.869038"/>
      </g>
     </g>
     <g id="text_47">
      <!-- 0.00 -->
      <g transform="translate(938.499081 59.668257)scale(0.1 -0.1)">
       <use xlink:href="#DejaVuSans-30"/>
       <use x="63.623047" xlink:href="#DejaVuSans-2e"/>
       <use x="95.410156" xlink:href="#DejaVuSans-30"/>
       <use x="159.033203" xlink:href="#DejaVuSans-30"/>
      </g>
     </g>
    </g>
   </g>
   <g id="line2d_52">
    <path clip-path="url(#p8e0500e9fb)" d="M 982.684492 56.136928 
L 985.69859 55.851756 
L 988.712688 55.856506 
L 991.726787 55.892266 
L 994.740885 55.879591 
L 997.754983 55.8581 
L 1000.769081 55.861582 
L 1003.783179 55.869269 
L 1006.797278 55.865761 
L 1009.811376 55.869246 
L 1012.825474 55.871947 
L 1015.839572 55.862297 
L 1018.85367 55.872152 
L 1021.867769 55.8716 
L 1024.881867 55.867781 
L 1027.895965 55.86476 
L 1030.910063 55.87274 
L 1033.924161 55.87038 
L 1036.93826 55.863876 
L 1039.952358 55.871025 
L 1042.966456 55.866193 
L 1045.980554 55.867873 
L 1048.994652 55.863439 
L 1052.008751 55.872557 
L 1055.022849 55.868634 
L 1058.036947 55.870863 
L 1061.051045 55.870861 
L 1064.065143 55.869686 
L 1067.079242 55.874556 
L 1070.09334 55.882216 
L 1073.107438 55.876597 
L 1076.121536 55.877781 
L 1079.135634 55.890694 
L 1082.149733 55.916862 
L 1085.163831 55.934276 
L 1088.177929 55.999753 
L 1091.192027 56.111429 
L 1094.206125 56.191643 
L 1097.220224 56.444801 
L 1100.234322 56.979781 
L 1103.24842 58.292208 
L 1106.262518 60.63553 
L 1109.276616 66.684037 
L 1112.290715 68.044594 
L 1115.304813 75.891761 
L 1118.318911 78.741524 
L 1121.333009 91.681932 
L 1124.347107 103.457619 
L 1127.361206 100.272457 
L 1130.375304 110.01564 
L 1133.389402 110.313339 
L 1136.4035 114.799085 
L 1139.417598 125.365131 
L 1142.431697 123.054247 
L 1145.445795 127.231019 
L 1148.459893 130.525459 
L 1151.473991 142.072949 
L 1154.488089 138.797679 
L 1157.502188 143.132701 
L 1160.516286 151.976695 
L 1163.530384 141.564363 
L 1166.544482 139.608451 
L 1169.55858 179.568127 
L 1172.572679 164.271832 
L 1175.586777 159.260958 
L 1178.600875 170.623012 
L 1181.614973 156.307868 
L 1184.629071 175.676376 
L 1187.64317 177.01033 
L 1190.657268 198.535016 
L 1193.671366 186.890631 
L 1196.685464 194.686298 
L 1199.699562 194.541429 
L 1202.713661 208.490564 
L 1205.727759 214.039799 
L 1208.741857 214.041266 
L 1211.755955 216.773415 
L 1214.770053 220.509072 
L 1217.784152 229.326142 
L 1220.79825 213.215199 
L 1223.812348 196.524713 
L 1226.826446 231.014998 
L 1229.840544 229.74572 
L 1232.854643 226.478102 
L 1235.868741 236.524609 
L 1238.882839 240.195136 
L 1241.896937 268.503698 
L 1244.911035 241.903362 
L 1247.925134 273.921519 
L 1250.939232 243.633998 
L 1253.95333 283.274742 
L 1256.967428 300.417571 
L 1259.981526 228.236925 
L 1262.995625 258.660008 
L 1266.009723 256.303993 
L 1269.023821 278.731493 
L 1272.037919 271.642507 
L 1275.052018 289.717703 
L 1278.066116 298.494905 
L 1281.080214 270.513582 
" style="fill:none;stroke:#1f77b4;stroke-linecap:square;stroke-width:1.5;"/>
   </g>
   <g id="line2d_53">
    <path clip-path="url(#p8e0500e9fb)" d="M 982.684492 55.942748 
L 985.69859 55.8 
L 988.712688 55.858507 
L 991.726787 55.867081 
L 994.740885 55.874039 
L 997.754983 55.868244 
L 1000.769081 55.871606 
L 1003.783179 55.868561 
L 1006.797278 55.867062 
L 1009.811376 55.8685 
L 1012.825474 55.866629 
L 1015.839572 55.86811 
L 1018.85367 55.867292 
L 1021.867769 55.870846 
L 1024.881867 55.869479 
L 1027.895965 55.871682 
L 1030.910063 55.866882 
L 1033.924161 55.865313 
L 1036.93826 55.870258 
L 1039.952358 55.871287 
L 1042.966456 55.867904 
L 1045.980554 55.871927 
L 1048.994652 55.869445 
L 1052.008751 55.873819 
L 1055.022849 55.868291 
L 1058.036947 55.871897 
L 1061.051045 55.870193 
L 1064.065143 55.870275 
L 1067.079242 55.865643 
L 1070.09334 55.873854 
L 1073.107438 55.87656 
L 1076.121536 55.877381 
L 1079.135634 55.918726 
L 1082.149733 55.917008 
L 1085.163831 55.957411 
L 1088.177929 56.032525 
L 1091.192027 56.153838 
L 1094.206125 56.311197 
L 1097.220224 56.685918 
L 1100.234322 57.453554 
L 1103.24842 59.687881 
L 1106.262518 64.764855 
L 1109.276616 69.974025 
L 1112.290715 71.575975 
L 1115.304813 73.089107 
L 1118.318911 87.426734 
L 1121.333009 97.077416 
L 1124.347107 103.827099 
L 1127.361206 107.967684 
L 1130.375304 124.616186 
L 1133.389402 111.969896 
L 1136.4035 101.682172 
L 1139.417598 136.536832 
L 1142.431697 116.223274 
L 1145.445795 176.887806 
L 1148.459893 145.037013 
L 1151.473991 132.688438 
L 1154.488089 153.766251 
L 1157.502188 141.586013 
L 1160.516286 130.6898 
L 1163.530384 165.004877 
L 1166.544482 146.925171 
L 1169.55858 180.479746 
L 1172.572679 140.508557 
L 1175.586777 190.775178 
L 1178.600875 169.276164 
L 1181.614973 159.001712 
L 1184.629071 170.257574 
L 1187.64317 182.151441 
L 1190.657268 194.845162 
L 1193.671366 186.525388 
L 1196.685464 204.75991 
L 1199.699562 205.392638 
L 1202.713661 230.80683 
L 1205.727759 239.360173 
L 1208.741857 203.627197 
L 1211.755955 226.91281 
L 1214.770053 198.628977 
L 1217.784152 235.892715 
L 1220.79825 205.249704 
L 1223.812348 208.174297 
L 1226.826446 219.691593 
L 1229.840544 232.202115 
L 1232.854643 220.350184 
L 1235.868741 269.553891 
L 1238.882839 249.39676 
L 1241.896937 299.117133 
L 1244.911035 274.603783 
L 1247.925134 269.311476 
L 1250.939232 265.411837 
L 1253.95333 274.304803 
L 1256.967428 292.473919 
L 1259.981526 205.441468 
L 1262.995625 307.8 
L 1266.009723 264.144991 
L 1269.023821 270.473915 
L 1272.037919 231.809842 
L 1275.052018 273.761785 
L 1278.066116 284.777768 
L 1281.080214 306.937803 
" style="fill:none;stroke:#ff7f0e;stroke-linecap:square;stroke-width:1.5;"/>
   </g>
   <g id="patch_15">
    <path d="M 967.764706 320.4 
L 967.764706 43.2 
" style="fill:none;stroke:#000000;stroke-linecap:square;stroke-linejoin:miter;stroke-width:0.8;"/>
   </g>
   <g id="patch_16">
    <path d="M 1296 320.4 
L 1296 43.2 
" style="fill:none;stroke:#000000;stroke-linecap:square;stroke-linejoin:miter;stroke-width:0.8;"/>
   </g>
   <g id="patch_17">
    <path d="M 967.764706 320.4 
L 1296 320.4 
" style="fill:none;stroke:#000000;stroke-linecap:square;stroke-linejoin:miter;stroke-width:0.8;"/>
   </g>
   <g id="patch_18">
    <path d="M 967.764706 43.2 
L 1296 43.2 
" style="fill:none;stroke:#000000;stroke-linecap:square;stroke-linejoin:miter;stroke-width:0.8;"/>
   </g>
   <g id="legend_3">
    <g id="patch_19">
     <path d="M 1185.125 80.55625 
L 1289 80.55625 
Q 1291 80.55625 1291 78.55625 
L 1291 50.2 
Q 1291 48.2 1289 48.2 
L 1185.125 48.2 
Q 1183.125 48.2 1183.125 50.2 
L 1183.125 78.55625 
Q 1183.125 80.55625 1185.125 80.55625 
z
" style="fill:#ffffff;opacity:0.8;stroke:#cccccc;stroke-linejoin:miter;"/>
    </g>
    <g id="line2d_54">
     <path d="M 1187.125 56.298437 
L 1207.125 56.298437 
" style="fill:none;stroke:#1f77b4;stroke-linecap:square;stroke-width:1.5;"/>
    </g>
    <g id="line2d_55"/>
    <g id="text_48">
     <!-- Train loss -->
     <g transform="translate(1215.125 59.798437)scale(0.1 -0.1)">
      <use xlink:href="#DejaVuSans-54"/>
      <use x="46.333984" xlink:href="#DejaVuSans-72"/>
      <use x="87.447266" xlink:href="#DejaVuSans-61"/>
      <use x="148.726562" xlink:href="#DejaVuSans-69"/>
      <use x="176.509766" xlink:href="#DejaVuSans-6e"/>
      <use x="239.888672" xlink:href="#DejaVuSans-20"/>
      <use x="271.675781" xlink:href="#DejaVuSans-6c"/>
      <use x="299.458984" xlink:href="#DejaVuSans-6f"/>
      <use x="360.640625" xlink:href="#DejaVuSans-73"/>
      <use x="412.740234" xlink:href="#DejaVuSans-73"/>
     </g>
    </g>
    <g id="line2d_56">
     <path d="M 1187.125 70.976562 
L 1207.125 70.976562 
" style="fill:none;stroke:#ff7f0e;stroke-linecap:square;stroke-width:1.5;"/>
    </g>
    <g id="line2d_57"/>
    <g id="text_49">
     <!-- Validation loss -->
     <g transform="translate(1215.125 74.476562)scale(0.1 -0.1)">
      <use xlink:href="#DejaVuSans-56"/>
      <use x="60.658203" xlink:href="#DejaVuSans-61"/>
      <use x="121.9375" xlink:href="#DejaVuSans-6c"/>
      <use x="149.720703" xlink:href="#DejaVuSans-69"/>
      <use x="177.503906" xlink:href="#DejaVuSans-64"/>
      <use x="240.980469" xlink:href="#DejaVuSans-61"/>
      <use x="302.259766" xlink:href="#DejaVuSans-74"/>
      <use x="341.46875" xlink:href="#DejaVuSans-69"/>
      <use x="369.251953" xlink:href="#DejaVuSans-6f"/>
      <use x="430.433594" xlink:href="#DejaVuSans-6e"/>
      <use x="493.8125" xlink:href="#DejaVuSans-20"/>
      <use x="525.599609" xlink:href="#DejaVuSans-6c"/>
      <use x="553.382812" xlink:href="#DejaVuSans-6f"/>
      <use x="614.564453" xlink:href="#DejaVuSans-73"/>
      <use x="666.664062" xlink:href="#DejaVuSans-73"/>
     </g>
    </g>
   </g>
  </g>
 </g>
 <defs>
  <clipPath id="p191c1768c1">
   <rect height="277.2" width="328.235294" x="180" y="43.2"/>
  </clipPath>
  <clipPath id="pa85f80309b">
   <rect height="277.2" width="328.235294" x="573.882353" y="43.2"/>
  </clipPath>
  <clipPath id="p8e0500e9fb">
   <rect height="277.2" width="328.235294" x="967.764706" y="43.2"/>
  </clipPath>
 </defs>
</svg>
