<?xml version="1.0" encoding="utf-8" standalone="no"?>
<!DOCTYPE svg PUBLIC "-//W3C//DTD SVG 1.1//EN"
  "http://www.w3.org/Graphics/SVG/1.1/DTD/svg11.dtd">
<svg height="345.6pt" version="1.1" viewBox="0 0 460.8 345.6" width="460.8pt" xmlns="http://www.w3.org/2000/svg" xmlns:xlink="http://www.w3.org/1999/xlink">
 <metadata>
  <rdf:RDF xmlns:cc="http://creativecommons.org/ns#" xmlns:dc="http://purl.org/dc/elements/1.1/" xmlns:rdf="http://www.w3.org/1999/02/22-rdf-syntax-ns#">
   <cc:Work>
    <dc:type rdf:resource="http://purl.org/dc/dcmitype/StillImage"/>
    <dc:date>2021-07-16T17:37:56.579944</dc:date>
    <dc:format>image/svg+xml</dc:format>
    <dc:creator>
     <cc:Agent>
      <dc:title>Matplotlib v3.4.2, https://matplotlib.org/</dc:title>
     </cc:Agent>
    </dc:creator>
   </cc:Work>
  </rdf:RDF>
 </metadata>
 <defs>
  <style type="text/css">*{stroke-linecap:butt;stroke-linejoin:round;}</style>
 </defs>
 <g id="figure_1">
  <g id="patch_1">
   <path d="M 0 345.6 
L 460.8 345.6 
L 460.8 0 
L 0 0 
z
" style="fill:#ffffff;"/>
  </g>
  <g id="axes_1">
   <g id="patch_2">
    <path d="M 57.6 307.584 
L 414.72 307.584 
L 414.72 41.472 
L 57.6 41.472 
z
" style="fill:#ffffff;"/>
   </g>
   <g id="matplotlib.axis_1">
    <g id="xtick_1">
     <g id="line2d_1">
      <defs>
       <path d="M 0 0 
L 0 3.5 
" id="m29ec4c2a65" style="stroke:#000000;stroke-width:0.8;"/>
      </defs>
      <g>
       <use style="stroke:#000000;stroke-width:0.8;" x="73.019057" xlink:href="#m29ec4c2a65" y="307.584"/>
      </g>
     </g>
     <g id="text_1">
      <!-- 0 -->
      <g transform="translate(69.837807 322.182437)scale(0.1 -0.1)">
       <defs>
        <path d="M 2034 4250 
Q 1547 4250 1301 3770 
Q 1056 3291 1056 2328 
Q 1056 1369 1301 889 
Q 1547 409 2034 409 
Q 2525 409 2770 889 
Q 3016 1369 3016 2328 
Q 3016 3291 2770 3770 
Q 2525 4250 2034 4250 
z
M 2034 4750 
Q 2819 4750 3233 4129 
Q 3647 3509 3647 2328 
Q 3647 1150 3233 529 
Q 2819 -91 2034 -91 
Q 1250 -91 836 529 
Q 422 1150 422 2328 
Q 422 3509 836 4129 
Q 1250 4750 2034 4750 
z
" id="DejaVuSans-30" transform="scale(0.015625)"/>
       </defs>
       <use xlink:href="#DejaVuSans-30"/>
      </g>
     </g>
    </g>
    <g id="xtick_2">
     <g id="line2d_2">
      <g>
       <use style="stroke:#000000;stroke-width:0.8;" x="113.702584" xlink:href="#m29ec4c2a65" y="307.584"/>
      </g>
     </g>
     <g id="text_2">
      <!-- 50 -->
      <g transform="translate(107.340084 322.182437)scale(0.1 -0.1)">
       <defs>
        <path d="M 691 4666 
L 3169 4666 
L 3169 4134 
L 1269 4134 
L 1269 2991 
Q 1406 3038 1543 3061 
Q 1681 3084 1819 3084 
Q 2600 3084 3056 2656 
Q 3513 2228 3513 1497 
Q 3513 744 3044 326 
Q 2575 -91 1722 -91 
Q 1428 -91 1123 -41 
Q 819 9 494 109 
L 494 744 
Q 775 591 1075 516 
Q 1375 441 1709 441 
Q 2250 441 2565 725 
Q 2881 1009 2881 1497 
Q 2881 1984 2565 2268 
Q 2250 2553 1709 2553 
Q 1456 2553 1204 2497 
Q 953 2441 691 2322 
L 691 4666 
z
" id="DejaVuSans-35" transform="scale(0.015625)"/>
       </defs>
       <use xlink:href="#DejaVuSans-35"/>
       <use x="63.623047" xlink:href="#DejaVuSans-30"/>
      </g>
     </g>
    </g>
    <g id="xtick_3">
     <g id="line2d_3">
      <g>
       <use style="stroke:#000000;stroke-width:0.8;" x="154.386111" xlink:href="#m29ec4c2a65" y="307.584"/>
      </g>
     </g>
     <g id="text_3">
      <!-- 100 -->
      <g transform="translate(144.842361 322.182437)scale(0.1 -0.1)">
       <defs>
        <path d="M 794 531 
L 1825 531 
L 1825 4091 
L 703 3866 
L 703 4441 
L 1819 4666 
L 2450 4666 
L 2450 531 
L 3481 531 
L 3481 0 
L 794 0 
L 794 531 
z
" id="DejaVuSans-31" transform="scale(0.015625)"/>
       </defs>
       <use xlink:href="#DejaVuSans-31"/>
       <use x="63.623047" xlink:href="#DejaVuSans-30"/>
       <use x="127.246094" xlink:href="#DejaVuSans-30"/>
      </g>
     </g>
    </g>
    <g id="xtick_4">
     <g id="line2d_4">
      <g>
       <use style="stroke:#000000;stroke-width:0.8;" x="195.069638" xlink:href="#m29ec4c2a65" y="307.584"/>
      </g>
     </g>
     <g id="text_4">
      <!-- 150 -->
      <g transform="translate(185.525888 322.182437)scale(0.1 -0.1)">
       <use xlink:href="#DejaVuSans-31"/>
       <use x="63.623047" xlink:href="#DejaVuSans-35"/>
       <use x="127.246094" xlink:href="#DejaVuSans-30"/>
      </g>
     </g>
    </g>
    <g id="xtick_5">
     <g id="line2d_5">
      <g>
       <use style="stroke:#000000;stroke-width:0.8;" x="235.753165" xlink:href="#m29ec4c2a65" y="307.584"/>
      </g>
     </g>
     <g id="text_5">
      <!-- 200 -->
      <g transform="translate(226.209415 322.182437)scale(0.1 -0.1)">
       <defs>
        <path d="M 1228 531 
L 3431 531 
L 3431 0 
L 469 0 
L 469 531 
Q 828 903 1448 1529 
Q 2069 2156 2228 2338 
Q 2531 2678 2651 2914 
Q 2772 3150 2772 3378 
Q 2772 3750 2511 3984 
Q 2250 4219 1831 4219 
Q 1534 4219 1204 4116 
Q 875 4013 500 3803 
L 500 4441 
Q 881 4594 1212 4672 
Q 1544 4750 1819 4750 
Q 2544 4750 2975 4387 
Q 3406 4025 3406 3419 
Q 3406 3131 3298 2873 
Q 3191 2616 2906 2266 
Q 2828 2175 2409 1742 
Q 1991 1309 1228 531 
z
" id="DejaVuSans-32" transform="scale(0.015625)"/>
       </defs>
       <use xlink:href="#DejaVuSans-32"/>
       <use x="63.623047" xlink:href="#DejaVuSans-30"/>
       <use x="127.246094" xlink:href="#DejaVuSans-30"/>
      </g>
     </g>
    </g>
    <g id="xtick_6">
     <g id="line2d_6">
      <g>
       <use style="stroke:#000000;stroke-width:0.8;" x="276.436692" xlink:href="#m29ec4c2a65" y="307.584"/>
      </g>
     </g>
     <g id="text_6">
      <!-- 250 -->
      <g transform="translate(266.892942 322.182437)scale(0.1 -0.1)">
       <use xlink:href="#DejaVuSans-32"/>
       <use x="63.623047" xlink:href="#DejaVuSans-35"/>
       <use x="127.246094" xlink:href="#DejaVuSans-30"/>
      </g>
     </g>
    </g>
    <g id="xtick_7">
     <g id="line2d_7">
      <g>
       <use style="stroke:#000000;stroke-width:0.8;" x="317.120219" xlink:href="#m29ec4c2a65" y="307.584"/>
      </g>
     </g>
     <g id="text_7">
      <!-- 300 -->
      <g transform="translate(307.576469 322.182437)scale(0.1 -0.1)">
       <defs>
        <path d="M 2597 2516 
Q 3050 2419 3304 2112 
Q 3559 1806 3559 1356 
Q 3559 666 3084 287 
Q 2609 -91 1734 -91 
Q 1441 -91 1130 -33 
Q 819 25 488 141 
L 488 750 
Q 750 597 1062 519 
Q 1375 441 1716 441 
Q 2309 441 2620 675 
Q 2931 909 2931 1356 
Q 2931 1769 2642 2001 
Q 2353 2234 1838 2234 
L 1294 2234 
L 1294 2753 
L 1863 2753 
Q 2328 2753 2575 2939 
Q 2822 3125 2822 3475 
Q 2822 3834 2567 4026 
Q 2313 4219 1838 4219 
Q 1578 4219 1281 4162 
Q 984 4106 628 3988 
L 628 4550 
Q 988 4650 1302 4700 
Q 1616 4750 1894 4750 
Q 2613 4750 3031 4423 
Q 3450 4097 3450 3541 
Q 3450 3153 3228 2886 
Q 3006 2619 2597 2516 
z
" id="DejaVuSans-33" transform="scale(0.015625)"/>
       </defs>
       <use xlink:href="#DejaVuSans-33"/>
       <use x="63.623047" xlink:href="#DejaVuSans-30"/>
       <use x="127.246094" xlink:href="#DejaVuSans-30"/>
      </g>
     </g>
    </g>
    <g id="xtick_8">
     <g id="line2d_8">
      <g>
       <use style="stroke:#000000;stroke-width:0.8;" x="357.803746" xlink:href="#m29ec4c2a65" y="307.584"/>
      </g>
     </g>
     <g id="text_8">
      <!-- 350 -->
      <g transform="translate(348.259996 322.182437)scale(0.1 -0.1)">
       <use xlink:href="#DejaVuSans-33"/>
       <use x="63.623047" xlink:href="#DejaVuSans-35"/>
       <use x="127.246094" xlink:href="#DejaVuSans-30"/>
      </g>
     </g>
    </g>
    <g id="xtick_9">
     <g id="line2d_9">
      <g>
       <use style="stroke:#000000;stroke-width:0.8;" x="398.487273" xlink:href="#m29ec4c2a65" y="307.584"/>
      </g>
     </g>
     <g id="text_9">
      <!-- 400 -->
      <g transform="translate(388.943523 322.182437)scale(0.1 -0.1)">
       <defs>
        <path d="M 2419 4116 
L 825 1625 
L 2419 1625 
L 2419 4116 
z
M 2253 4666 
L 3047 4666 
L 3047 1625 
L 3713 1625 
L 3713 1100 
L 3047 1100 
L 3047 0 
L 2419 0 
L 2419 1100 
L 313 1100 
L 313 1709 
L 2253 4666 
z
" id="DejaVuSans-34" transform="scale(0.015625)"/>
       </defs>
       <use xlink:href="#DejaVuSans-34"/>
       <use x="63.623047" xlink:href="#DejaVuSans-30"/>
       <use x="127.246094" xlink:href="#DejaVuSans-30"/>
      </g>
     </g>
    </g>
    <g id="text_10">
     <!-- Epoch -->
     <g transform="translate(213.193594 339.659781)scale(0.15 -0.15)">
      <defs>
       <path d="M 628 4666 
L 3578 4666 
L 3578 4134 
L 1259 4134 
L 1259 2753 
L 3481 2753 
L 3481 2222 
L 1259 2222 
L 1259 531 
L 3634 531 
L 3634 0 
L 628 0 
L 628 4666 
z
" id="DejaVuSans-45" transform="scale(0.015625)"/>
       <path d="M 1159 525 
L 1159 -1331 
L 581 -1331 
L 581 3500 
L 1159 3500 
L 1159 2969 
Q 1341 3281 1617 3432 
Q 1894 3584 2278 3584 
Q 2916 3584 3314 3078 
Q 3713 2572 3713 1747 
Q 3713 922 3314 415 
Q 2916 -91 2278 -91 
Q 1894 -91 1617 61 
Q 1341 213 1159 525 
z
M 3116 1747 
Q 3116 2381 2855 2742 
Q 2594 3103 2138 3103 
Q 1681 3103 1420 2742 
Q 1159 2381 1159 1747 
Q 1159 1113 1420 752 
Q 1681 391 2138 391 
Q 2594 391 2855 752 
Q 3116 1113 3116 1747 
z
" id="DejaVuSans-70" transform="scale(0.015625)"/>
       <path d="M 1959 3097 
Q 1497 3097 1228 2736 
Q 959 2375 959 1747 
Q 959 1119 1226 758 
Q 1494 397 1959 397 
Q 2419 397 2687 759 
Q 2956 1122 2956 1747 
Q 2956 2369 2687 2733 
Q 2419 3097 1959 3097 
z
M 1959 3584 
Q 2709 3584 3137 3096 
Q 3566 2609 3566 1747 
Q 3566 888 3137 398 
Q 2709 -91 1959 -91 
Q 1206 -91 779 398 
Q 353 888 353 1747 
Q 353 2609 779 3096 
Q 1206 3584 1959 3584 
z
" id="DejaVuSans-6f" transform="scale(0.015625)"/>
       <path d="M 3122 3366 
L 3122 2828 
Q 2878 2963 2633 3030 
Q 2388 3097 2138 3097 
Q 1578 3097 1268 2742 
Q 959 2388 959 1747 
Q 959 1106 1268 751 
Q 1578 397 2138 397 
Q 2388 397 2633 464 
Q 2878 531 3122 666 
L 3122 134 
Q 2881 22 2623 -34 
Q 2366 -91 2075 -91 
Q 1284 -91 818 406 
Q 353 903 353 1747 
Q 353 2603 823 3093 
Q 1294 3584 2113 3584 
Q 2378 3584 2631 3529 
Q 2884 3475 3122 3366 
z
" id="DejaVuSans-63" transform="scale(0.015625)"/>
       <path d="M 3513 2113 
L 3513 0 
L 2938 0 
L 2938 2094 
Q 2938 2591 2744 2837 
Q 2550 3084 2163 3084 
Q 1697 3084 1428 2787 
Q 1159 2491 1159 1978 
L 1159 0 
L 581 0 
L 581 4863 
L 1159 4863 
L 1159 2956 
Q 1366 3272 1645 3428 
Q 1925 3584 2291 3584 
Q 2894 3584 3203 3211 
Q 3513 2838 3513 2113 
z
" id="DejaVuSans-68" transform="scale(0.015625)"/>
      </defs>
      <use xlink:href="#DejaVuSans-45"/>
      <use x="63.183594" xlink:href="#DejaVuSans-70"/>
      <use x="126.660156" xlink:href="#DejaVuSans-6f"/>
      <use x="187.841797" xlink:href="#DejaVuSans-63"/>
      <use x="242.822266" xlink:href="#DejaVuSans-68"/>
     </g>
    </g>
   </g>
   <g id="matplotlib.axis_2">
    <g id="ytick_1">
     <g id="line2d_10">
      <defs>
       <path d="M 0 0 
L -3.5 0 
" id="md1b78c02ff" style="stroke:#000000;stroke-width:0.8;"/>
      </defs>
      <g>
       <use style="stroke:#000000;stroke-width:0.8;" x="57.6" xlink:href="#md1b78c02ff" y="256.044522"/>
      </g>
     </g>
     <g id="text_11">
      <!-- 0.2 -->
      <g transform="translate(34.696875 259.84374)scale(0.1 -0.1)">
       <defs>
        <path d="M 684 794 
L 1344 794 
L 1344 0 
L 684 0 
L 684 794 
z
" id="DejaVuSans-2e" transform="scale(0.015625)"/>
       </defs>
       <use xlink:href="#DejaVuSans-30"/>
       <use x="63.623047" xlink:href="#DejaVuSans-2e"/>
       <use x="95.410156" xlink:href="#DejaVuSans-32"/>
      </g>
     </g>
    </g>
    <g id="ytick_2">
     <g id="line2d_11">
      <g>
       <use style="stroke:#000000;stroke-width:0.8;" x="57.6" xlink:href="#md1b78c02ff" y="203.453217"/>
      </g>
     </g>
     <g id="text_12">
      <!-- 0.4 -->
      <g transform="translate(34.696875 207.252436)scale(0.1 -0.1)">
       <use xlink:href="#DejaVuSans-30"/>
       <use x="63.623047" xlink:href="#DejaVuSans-2e"/>
       <use x="95.410156" xlink:href="#DejaVuSans-34"/>
      </g>
     </g>
    </g>
    <g id="ytick_3">
     <g id="line2d_12">
      <g>
       <use style="stroke:#000000;stroke-width:0.8;" x="57.6" xlink:href="#md1b78c02ff" y="150.861913"/>
      </g>
     </g>
     <g id="text_13">
      <!-- 0.6 -->
      <g transform="translate(34.696875 154.661132)scale(0.1 -0.1)">
       <defs>
        <path d="M 2113 2584 
Q 1688 2584 1439 2293 
Q 1191 2003 1191 1497 
Q 1191 994 1439 701 
Q 1688 409 2113 409 
Q 2538 409 2786 701 
Q 3034 994 3034 1497 
Q 3034 2003 2786 2293 
Q 2538 2584 2113 2584 
z
M 3366 4563 
L 3366 3988 
Q 3128 4100 2886 4159 
Q 2644 4219 2406 4219 
Q 1781 4219 1451 3797 
Q 1122 3375 1075 2522 
Q 1259 2794 1537 2939 
Q 1816 3084 2150 3084 
Q 2853 3084 3261 2657 
Q 3669 2231 3669 1497 
Q 3669 778 3244 343 
Q 2819 -91 2113 -91 
Q 1303 -91 875 529 
Q 447 1150 447 2328 
Q 447 3434 972 4092 
Q 1497 4750 2381 4750 
Q 2619 4750 2861 4703 
Q 3103 4656 3366 4563 
z
" id="DejaVuSans-36" transform="scale(0.015625)"/>
       </defs>
       <use xlink:href="#DejaVuSans-30"/>
       <use x="63.623047" xlink:href="#DejaVuSans-2e"/>
       <use x="95.410156" xlink:href="#DejaVuSans-36"/>
      </g>
     </g>
    </g>
    <g id="ytick_4">
     <g id="line2d_13">
      <g>
       <use style="stroke:#000000;stroke-width:0.8;" x="57.6" xlink:href="#md1b78c02ff" y="98.270609"/>
      </g>
     </g>
     <g id="text_14">
      <!-- 0.8 -->
      <g transform="translate(34.696875 102.069827)scale(0.1 -0.1)">
       <defs>
        <path d="M 2034 2216 
Q 1584 2216 1326 1975 
Q 1069 1734 1069 1313 
Q 1069 891 1326 650 
Q 1584 409 2034 409 
Q 2484 409 2743 651 
Q 3003 894 3003 1313 
Q 3003 1734 2745 1975 
Q 2488 2216 2034 2216 
z
M 1403 2484 
Q 997 2584 770 2862 
Q 544 3141 544 3541 
Q 544 4100 942 4425 
Q 1341 4750 2034 4750 
Q 2731 4750 3128 4425 
Q 3525 4100 3525 3541 
Q 3525 3141 3298 2862 
Q 3072 2584 2669 2484 
Q 3125 2378 3379 2068 
Q 3634 1759 3634 1313 
Q 3634 634 3220 271 
Q 2806 -91 2034 -91 
Q 1263 -91 848 271 
Q 434 634 434 1313 
Q 434 1759 690 2068 
Q 947 2378 1403 2484 
z
M 1172 3481 
Q 1172 3119 1398 2916 
Q 1625 2713 2034 2713 
Q 2441 2713 2670 2916 
Q 2900 3119 2900 3481 
Q 2900 3844 2670 4047 
Q 2441 4250 2034 4250 
Q 1625 4250 1398 4047 
Q 1172 3844 1172 3481 
z
" id="DejaVuSans-38" transform="scale(0.015625)"/>
       </defs>
       <use xlink:href="#DejaVuSans-30"/>
       <use x="63.623047" xlink:href="#DejaVuSans-2e"/>
       <use x="95.410156" xlink:href="#DejaVuSans-38"/>
      </g>
     </g>
    </g>
    <g id="ytick_5">
     <g id="line2d_14">
      <g>
       <use style="stroke:#000000;stroke-width:0.8;" x="57.6" xlink:href="#md1b78c02ff" y="45.679304"/>
      </g>
     </g>
     <g id="text_15">
      <!-- 1.0 -->
      <g transform="translate(34.696875 49.478523)scale(0.1 -0.1)">
       <use xlink:href="#DejaVuSans-31"/>
       <use x="63.623047" xlink:href="#DejaVuSans-2e"/>
       <use x="95.410156" xlink:href="#DejaVuSans-30"/>
      </g>
     </g>
    </g>
    <g id="text_16">
     <!-- Loss -->
     <g transform="translate(27.577344 190.978781)rotate(-90)scale(0.15 -0.15)">
      <defs>
       <path d="M 628 4666 
L 1259 4666 
L 1259 531 
L 3531 531 
L 3531 0 
L 628 0 
L 628 4666 
z
" id="DejaVuSans-4c" transform="scale(0.015625)"/>
       <path d="M 2834 3397 
L 2834 2853 
Q 2591 2978 2328 3040 
Q 2066 3103 1784 3103 
Q 1356 3103 1142 2972 
Q 928 2841 928 2578 
Q 928 2378 1081 2264 
Q 1234 2150 1697 2047 
L 1894 2003 
Q 2506 1872 2764 1633 
Q 3022 1394 3022 966 
Q 3022 478 2636 193 
Q 2250 -91 1575 -91 
Q 1294 -91 989 -36 
Q 684 19 347 128 
L 347 722 
Q 666 556 975 473 
Q 1284 391 1588 391 
Q 1994 391 2212 530 
Q 2431 669 2431 922 
Q 2431 1156 2273 1281 
Q 2116 1406 1581 1522 
L 1381 1569 
Q 847 1681 609 1914 
Q 372 2147 372 2553 
Q 372 3047 722 3315 
Q 1072 3584 1716 3584 
Q 2034 3584 2315 3537 
Q 2597 3491 2834 3397 
z
" id="DejaVuSans-73" transform="scale(0.015625)"/>
      </defs>
      <use xlink:href="#DejaVuSans-4c"/>
      <use x="53.962891" xlink:href="#DejaVuSans-6f"/>
      <use x="115.144531" xlink:href="#DejaVuSans-73"/>
      <use x="167.244141" xlink:href="#DejaVuSans-73"/>
     </g>
    </g>
   </g>
   <g id="line2d_15">
    <path clip-path="url(#p1a668a1ec5)" d="M 73.832727 275.766261 
L 74.646398 287.599304 
L 75.460068 287.599304 
L 76.273739 288.914087 
L 77.087409 282.340174 
L 77.90108 287.599304 
L 78.714751 283.654957 
L 79.528421 282.340174 
L 80.342092 288.914087 
L 81.155762 279.710609 
L 81.969433 288.914087 
L 82.783103 281.025391 
L 83.596774 279.710609 
L 84.410444 287.599304 
L 85.224115 277.081043 
L 86.037785 283.654957 
L 86.851456 283.654957 
L 87.665126 277.081043 
L 88.478797 281.025391 
L 89.292468 295.488 
L 90.106138 283.654957 
L 90.919809 281.025391 
L 91.733479 291.543652 
L 92.54715 275.766261 
L 93.36082 287.599304 
L 94.174491 291.543652 
L 94.988161 267.877565 
L 95.801832 292.858435 
L 96.615502 278.395826 
L 98.242843 281.025391 
L 99.056514 277.081043 
L 99.870185 290.22887 
L 100.683855 286.284522 
L 101.497526 291.543652 
L 102.311196 290.22887 
L 103.124867 287.599304 
L 103.938537 275.766261 
L 104.752208 279.710609 
L 105.565878 275.766261 
L 106.379549 275.766261 
L 107.193219 270.50713 
L 108.00689 266.562783 
L 108.82056 266.562783 
L 109.634231 254.729739 
L 110.447902 266.562783 
L 111.261572 261.303652 
L 112.075243 259.98887 
L 112.888913 262.618435 
L 113.702584 257.359304 
L 114.516254 265.248 
L 115.329925 254.729739 
L 116.143595 249.470609 
L 116.957266 262.618435 
L 117.770936 244.211478 
L 119.398278 259.98887 
L 120.211948 263.933217 
L 121.025619 254.729739 
L 121.839289 252.100174 
L 122.65296 254.729739 
L 123.46663 248.155826 
L 124.280301 254.729739 
L 125.093971 253.414957 
L 125.907642 246.841043 
L 126.721312 252.100174 
L 127.534983 249.470609 
L 128.348653 256.044522 
L 129.162324 250.785391 
L 129.975995 242.896696 
L 130.789665 242.896696 
L 131.603336 244.211478 
L 132.417006 240.26713 
L 133.230677 242.896696 
L 134.044347 236.322783 
L 134.858018 249.470609 
L 135.671688 240.26713 
L 136.485359 246.841043 
L 137.299029 246.841043 
L 138.1127 237.637565 
L 138.92637 232.378435 
L 139.740041 237.637565 
L 140.553712 254.729739 
L 141.367382 231.063652 
L 142.181053 220.545391 
L 142.994723 237.637565 
L 143.808394 235.008 
L 144.622064 223.174957 
L 146.249405 228.434087 
L 147.063076 229.74887 
L 147.876746 211.341913 
L 148.690417 233.693217 
L 149.504087 213.971478 
L 150.317758 211.341913 
L 151.131429 232.378435 
L 151.945099 217.915826 
L 152.75877 221.860174 
L 153.57244 211.341913 
L 154.386111 223.174957 
L 155.199781 223.174957 
L 156.013452 220.545391 
L 156.827122 216.601043 
L 157.640793 213.971478 
L 158.454463 215.286261 
L 159.268134 224.489739 
L 160.081805 187.675826 
L 160.895475 208.712348 
L 161.709146 203.453217 
L 162.522816 202.138435 
L 163.336487 199.50887 
L 164.150157 204.768 
L 164.963828 198.194087 
L 165.777498 202.138435 
L 166.591169 203.453217 
L 167.404839 196.879304 
L 168.21851 196.879304 
L 169.03218 191.620174 
L 169.845851 179.78713 
L 170.659522 206.082783 
L 171.473192 195.564522 
L 172.286863 192.934957 
L 173.100533 188.990609 
L 173.914204 204.768 
L 174.727874 175.842783 
L 175.541545 162.694957 
L 176.355215 173.213217 
L 177.168886 170.583652 
L 177.982556 165.324522 
L 178.796227 182.416696 
L 179.609897 177.157565 
L 180.423568 156.121043 
L 181.237239 171.898435 
L 182.050909 148.232348 
L 182.86458 153.491478 
L 183.67825 165.324522 
L 184.491921 165.324522 
L 185.305591 164.009739 
L 186.119262 154.806261 
L 186.932932 160.065391 
L 187.746603 137.714087 
L 188.560273 144.288 
L 189.373944 156.121043 
L 190.187614 128.510609 
L 191.001285 135.084522 
L 191.814956 131.140174 
L 192.628626 135.084522 
L 193.442297 131.140174 
L 194.255967 139.02887 
L 195.069638 137.714087 
L 196.696979 119.30713 
L 197.510649 128.510609 
L 198.32432 114.048 
L 199.13799 116.677565 
L 199.951661 139.02887 
L 200.765332 117.992348 
L 201.579002 117.992348 
L 202.392673 124.566261 
L 203.206343 107.474087 
L 204.020014 120.621913 
L 204.833684 112.733217 
L 205.647355 124.566261 
L 206.461025 98.270609 
L 207.274696 110.103652 
L 208.088366 108.78887 
L 208.902037 123.251478 
L 209.715707 107.474087 
L 210.529378 103.529739 
L 211.343049 133.769739 
L 212.156719 99.585391 
L 212.97039 95.641043 
L 213.78406 125.881043 
L 214.597731 103.529739 
L 215.411401 106.159304 
L 216.225072 106.159304 
L 217.038742 110.103652 
L 217.852413 90.381913 
L 218.666083 95.641043 
L 219.479754 112.733217 
L 220.293424 103.529739 
L 221.107095 129.825391 
L 221.920766 103.529739 
L 222.734436 102.214957 
L 223.548107 83.808 
L 224.361777 112.733217 
L 225.175448 94.326261 
L 225.989118 91.696696 
L 226.802789 107.474087 
L 227.616459 107.474087 
L 228.43013 91.696696 
L 229.2438 86.437565 
L 230.057471 114.048 
L 230.871141 90.381913 
L 231.684812 95.641043 
L 232.498483 129.825391 
L 233.312153 91.696696 
L 234.125824 86.437565 
L 234.939494 95.641043 
L 235.753165 83.808 
L 236.566835 98.270609 
L 237.380506 103.529739 
L 238.194176 81.178435 
L 239.007847 93.011478 
L 239.821517 83.808 
L 240.635188 90.381913 
L 241.448859 87.752348 
L 242.262529 90.381913 
L 243.0762 86.437565 
L 243.88987 87.752348 
L 244.703541 99.585391 
L 245.517211 87.752348 
L 246.330882 98.270609 
L 247.144552 91.696696 
L 247.958223 77.234087 
L 248.771893 90.381913 
L 249.585564 90.381913 
L 250.399234 91.696696 
L 251.212905 91.696696 
L 252.026576 79.863652 
L 252.840246 79.863652 
L 253.653917 98.270609 
L 254.467587 89.06713 
L 255.281258 82.493217 
L 256.094928 81.178435 
L 256.908599 87.752348 
L 257.722269 90.381913 
L 258.53594 89.06713 
L 259.34961 93.011478 
L 260.163281 75.919304 
L 260.976951 75.919304 
L 261.790622 83.808 
L 262.604293 83.808 
L 263.417963 70.660174 
L 264.231634 82.493217 
L 265.045304 70.660174 
L 265.858975 90.381913 
L 266.672645 98.270609 
L 267.486316 94.326261 
L 268.299986 75.919304 
L 269.113657 75.919304 
L 269.927327 81.178435 
L 270.740998 82.493217 
L 273.18201 94.326261 
L 273.99568 75.919304 
L 274.809351 89.06713 
L 275.623021 94.326261 
L 276.436692 82.493217 
L 277.250362 91.696696 
L 278.064033 77.234087 
L 278.877703 75.919304 
L 279.691374 75.919304 
L 280.505044 73.289739 
L 281.318715 87.752348 
L 282.132386 75.919304 
L 282.946056 68.030609 
L 284.573397 81.178435 
L 285.387068 66.715826 
L 286.200738 85.122783 
L 287.828079 74.604522 
L 288.64175 79.863652 
L 289.45542 71.974957 
L 290.269091 66.715826 
L 291.082761 91.696696 
L 291.896432 75.919304 
L 292.710103 62.771478 
L 293.523773 82.493217 
L 294.337444 82.493217 
L 295.151114 77.234087 
L 295.964785 79.863652 
L 296.778455 89.06713 
L 297.592126 69.345391 
L 298.405796 82.493217 
L 299.219467 87.752348 
L 300.033137 82.493217 
L 300.846808 74.604522 
L 301.660478 77.234087 
L 302.474149 75.919304 
L 303.28782 93.011478 
L 304.10149 62.771478 
L 304.915161 71.974957 
L 305.728831 74.604522 
L 306.542502 91.696696 
L 307.356172 77.234087 
L 308.169843 69.345391 
L 308.983513 69.345391 
L 309.797184 89.06713 
L 310.610854 70.660174 
L 311.424525 85.122783 
L 312.238195 69.345391 
L 313.051866 70.660174 
L 313.865537 74.604522 
L 314.679207 66.715826 
L 315.492878 74.604522 
L 316.306548 94.326261 
L 317.120219 74.604522 
L 317.933889 77.234087 
L 318.74756 75.919304 
L 319.56123 70.660174 
L 320.374901 89.06713 
L 321.188571 71.974957 
L 322.002242 77.234087 
L 322.815913 75.919304 
L 323.629583 62.771478 
L 324.443254 77.234087 
L 325.256924 77.234087 
L 326.070595 78.54887 
L 326.884265 69.345391 
L 327.697936 90.381913 
L 328.511606 68.030609 
L 329.325277 81.178435 
L 330.138947 74.604522 
L 330.952618 74.604522 
L 331.766288 78.54887 
L 333.39363 81.178435 
L 334.2073 79.863652 
L 335.020971 61.456696 
L 335.834641 73.289739 
L 336.648312 75.919304 
L 337.461982 62.771478 
L 338.275653 70.660174 
L 339.089323 93.011478 
L 340.716664 73.289739 
L 341.530335 78.54887 
L 342.344005 61.456696 
L 343.157676 68.030609 
L 343.971347 64.086261 
L 344.785017 74.604522 
L 345.598688 66.715826 
L 346.412358 62.771478 
L 347.226029 81.178435 
L 348.039699 58.82713 
L 348.85337 78.54887 
L 349.66704 66.715826 
L 350.480711 89.06713 
L 351.294381 90.381913 
L 352.108052 86.437565 
L 352.921722 68.030609 
L 353.735393 69.345391 
L 354.549064 75.919304 
L 355.362734 77.234087 
L 356.176405 77.234087 
L 356.990075 83.808 
L 357.803746 68.030609 
L 358.617416 74.604522 
L 359.431087 66.715826 
L 360.244757 73.289739 
L 361.058428 69.345391 
L 361.872098 62.771478 
L 362.685769 64.086261 
L 363.49944 58.82713 
L 364.31311 77.234087 
L 365.126781 66.715826 
L 365.940451 69.345391 
L 366.754122 56.197565 
L 367.567792 68.030609 
L 368.381463 71.974957 
L 369.195133 69.345391 
L 370.008804 61.456696 
L 370.822474 62.771478 
L 371.636145 78.54887 
L 372.449815 77.234087 
L 373.263486 61.456696 
L 374.077157 89.06713 
L 374.890827 78.54887 
L 375.704498 60.141913 
L 376.518168 65.401043 
L 377.331839 65.401043 
L 378.145509 58.82713 
L 378.95918 70.660174 
L 379.77285 68.030609 
L 380.586521 69.345391 
L 381.400191 61.456696 
L 382.213862 62.771478 
L 383.027532 53.568 
L 383.841203 65.401043 
L 384.654874 66.715826 
L 385.468544 71.974957 
L 386.282215 79.863652 
L 387.095885 82.493217 
L 387.909556 61.456696 
L 388.723226 62.771478 
L 389.536897 82.493217 
L 390.350567 69.345391 
L 391.164238 71.974957 
L 391.977908 73.289739 
L 392.791579 75.919304 
L 393.605249 71.974957 
L 394.41892 65.401043 
L 395.232591 65.401043 
L 396.046261 83.808 
L 396.859932 95.641043 
L 397.673602 69.345391 
L 398.487273 70.660174 
L 398.487273 70.660174 
" style="fill:none;stroke:#1f77b4;stroke-linecap:square;stroke-width:1.5;"/>
   </g>
   <g id="line2d_16">
    <path clip-path="url(#p1a668a1ec5)" d="M 73.832727 281.770435 
L 74.646398 282.625043 
L 75.460068 281.397913 
L 76.273739 283.216696 
L 77.087409 282.778435 
L 77.90108 283.720696 
L 78.714751 283.764522 
L 79.528421 283.961739 
L 80.342092 284.882087 
L 81.155762 283.983652 
L 81.969433 284.334261 
L 82.783103 284.005565 
L 83.596774 282.186783 
L 84.410444 283.786435 
L 85.224115 284.334261 
L 86.037785 283.983652 
L 86.851456 283.041391 
L 87.665126 283.17287 
L 88.478797 283.501565 
L 89.292468 283.479652 
L 90.919809 283.852174 
L 91.733479 282.033391 
L 92.54715 283.764522 
L 93.36082 282.493565 
L 94.988161 282.493565 
L 95.801832 283.238609 
L 96.615502 281.025391 
L 98.242843 281.09113 
L 99.056514 282.208696 
L 99.870185 281.967652 
L 100.683855 280.017391 
L 101.497526 279.57913 
L 102.311196 279.995478 
L 103.124867 280.872 
L 103.938537 274.824 
L 104.752208 271.317913 
L 105.565878 261.150261 
L 106.379549 262.94713 
L 107.193219 265.708174 
L 108.00689 267.965217 
L 108.82056 261.763826 
L 109.634231 259.068522 
L 110.447902 261.084522 
L 111.261572 258.367304 
L 112.075243 257.863304 
L 112.888913 258.783652 
L 113.702584 257.929043 
L 114.516254 258.827478 
L 115.329925 257.337391 
L 116.143595 256.942957 
L 116.957266 257.118261 
L 117.770936 256.438957 
L 118.584607 256.044522 
L 119.398278 256.570435 
L 120.211948 255.474783 
L 121.025619 253.239652 
L 121.839289 250.610087 
L 123.46663 252.604174 
L 124.280301 251.574261 
L 125.093971 250.259478 
L 125.907642 248.681739 
L 126.721312 254.335304 
L 127.534983 247.805217 
L 128.348653 246.687652 
L 129.162324 248.550261 
L 129.975995 246.928696 
L 130.789665 253.568348 
L 131.603336 240.858783 
L 132.417006 241.034087 
L 133.230677 240.946435 
L 134.044347 238.996174 
L 134.858018 240.201391 
L 135.671688 238.536 
L 136.485359 237.81287 
L 137.299029 234.876522 
L 138.1127 244.759304 
L 138.92637 242.568 
L 139.740041 236.344696 
L 140.553712 234.21913 
L 141.367382 237.374609 
L 142.181053 234.547826 
L 142.994723 235.512 
L 143.808394 234.153391 
L 144.622064 233.978087 
L 145.435735 232.77287 
L 146.249405 234.898435 
L 147.063076 229.529739 
L 147.876746 228.565565 
L 148.690417 228.587478 
L 149.504087 229.464 
L 150.317758 228.346435 
L 151.131429 238.010087 
L 151.945099 224.818435 
L 152.75877 232.77287 
L 153.57244 227.798609 
L 154.386111 224.752696 
L 155.199781 227.22887 
L 156.013452 222.824348 
L 156.827122 220.326261 
L 157.640793 220.063304 
L 158.454463 226.483826 
L 159.268134 217.58713 
L 160.081805 216.995478 
L 160.895475 221.68487 
L 161.709146 218.463652 
L 162.522816 215.921739 
L 164.150157 212.525217 
L 164.963828 214.826087 
L 165.777498 210.049043 
L 166.591169 215.812174 
L 167.404839 210.574957 
L 168.21851 208.843826 
L 169.03218 210.903652 
L 169.845851 204.110609 
L 170.659522 203.409391 
L 171.473192 201.744 
L 172.286863 201.52487 
L 173.100533 198.457043 
L 173.914204 200.626435 
L 174.727874 200.648348 
L 175.541545 192.803478 
L 176.355215 192.628174 
L 177.168886 196.813565 
L 177.982556 192.650087 
L 178.796227 185.966609 
L 179.609897 187.763478 
L 180.423568 194.797565 
L 181.237239 186.361043 
L 182.050909 182.679652 
L 182.86458 181.934609 
L 183.67825 200.582609 
L 184.491921 179.085913 
L 185.305591 179.984348 
L 186.119262 185.769391 
L 186.932932 181.825043 
L 187.746603 175.777043 
L 188.560273 176.653565 
L 189.373944 178.121739 
L 190.187614 172.840696 
L 191.001285 169.685217 
L 191.814956 177.990261 
L 192.628626 169.838609 
L 193.442297 177.749217 
L 194.255967 167.165217 
L 195.069638 165.631304 
L 196.696979 161.774609 
L 197.510649 159.868174 
L 198.32432 171.241043 
L 199.13799 156.734609 
L 199.951661 169.115478 
L 201.579002 162.892174 
L 202.392673 160.854261 
L 203.206343 151.365913 
L 204.020014 156.384 
L 204.833684 157.917913 
L 205.647355 163.374261 
L 206.461025 154.959652 
L 207.274696 168.326609 
L 208.088366 149.04313 
L 208.902037 156.581217 
L 209.715707 147.53113 
L 210.529378 160.240696 
L 211.343049 148.933565 
L 212.156719 153.885913 
L 212.97039 152.286261 
L 213.78406 154.58713 
L 214.597731 149.021217 
L 215.411401 151.387826 
L 216.225072 148.736348 
L 217.038742 149.985391 
L 217.852413 150.861913 
L 218.666083 149.393739 
L 219.479754 145.953391 
L 220.293424 156.756522 
L 221.107095 151.519304 
L 221.920766 142.754087 
L 222.734436 149.722435 
L 223.548107 138.568696 
L 224.361777 143.367652 
L 225.175448 141.088696 
L 225.989118 142.206261 
L 227.616459 142.49113 
L 228.43013 143.674435 
L 229.2438 147.09287 
L 230.057471 144.441391 
L 230.871141 148.122783 
L 231.684812 143.367652 
L 232.498483 140.124522 
L 233.312153 144.266087 
L 234.125824 140.146435 
L 234.939494 137.538783 
L 235.753165 137.714087 
L 237.380506 142.118609 
L 238.194176 134.032696 
L 239.007847 133.638261 
L 239.821517 135.785739 
L 240.635188 135.106435 
L 241.448859 137.407304 
L 242.262529 131.008696 
L 243.0762 134.295652 
L 243.88987 135.106435 
L 244.703541 132.871304 
L 245.517211 135.369391 
L 246.330882 139.116522 
L 247.144552 134.953043 
L 247.958223 147.09287 
L 248.771893 137.078609 
L 249.585564 130.701913 
L 250.399234 131.227826 
L 251.212905 135.676174 
L 252.026576 133.747826 
L 252.840246 131.162087 
L 253.653917 142.228174 
L 254.467587 137.977043 
L 255.281258 129.124174 
L 256.094928 132.47687 
L 256.908599 131.97287 
L 257.722269 131.753739 
L 258.53594 133.616348 
L 259.34961 130.504696 
L 260.163281 133.945043 
L 260.976951 135.982957 
L 261.790622 126.056348 
L 262.604293 126.165913 
L 263.417963 129.146087 
L 264.231634 130.921043 
L 265.045304 133.287652 
L 265.858975 157.085217 
L 266.672645 132.126261 
L 267.486316 131.030609 
L 268.299986 128.203826 
L 269.113657 127.349217 
L 269.927327 130.636174 
L 270.740998 133.441043 
L 271.554668 130.351304 
L 272.368339 129.343304 
L 273.18201 125.333217 
L 273.99568 128.16 
L 274.809351 124.106087 
L 275.623021 124.675826 
L 276.436692 135.216 
L 277.250362 127.634087 
L 278.064033 125.552348 
L 278.877703 140.76 
L 279.691374 126.450783 
L 280.505044 124.215652 
L 281.318715 132.739826 
L 282.132386 131.863304 
L 282.946056 120.797217 
L 283.759727 120.227478 
L 284.573397 120.490435 
L 285.387068 124.456696 
L 286.200738 125.114087 
L 287.014409 127.064348 
L 287.828079 130.658087 
L 288.64175 122.572174 
L 289.45542 122.725565 
L 290.269091 122.265391 
L 291.082761 130.570435 
L 291.896432 128.773565 
L 292.710103 122.39687 
L 293.523773 124.434783 
L 294.337444 119.526261 
L 295.151114 120.88487 
L 295.964785 123.010435 
L 296.778455 119.109913 
L 297.592126 120.161739 
L 298.405796 122.813217 
L 299.219467 122.221565 
L 300.033137 120.424696 
L 300.846808 116.655652 
L 301.660478 133.506783 
L 302.474149 120.293217 
L 303.28782 123.141913 
L 304.10149 122.90087 
L 304.915161 121.805217 
L 305.728831 123.667826 
L 306.542502 123.163826 
L 307.356172 117.992348 
L 308.169843 114.135652 
L 308.983513 118.605913 
L 309.797184 129.211826 
L 311.424525 119.920696 
L 312.238195 120.074087 
L 313.051866 122.221565 
L 313.865537 118.036174 
L 314.679207 116.918609 
L 315.492878 124.259478 
L 316.306548 121.849043 
L 317.120219 120.512348 
L 318.74756 114.552 
L 319.56123 124.171826 
L 320.374901 115.735304 
L 321.188571 121.257391 
L 322.002242 118.627826 
L 322.815913 115.472348 
L 323.629583 118.627826 
L 324.443254 118.430609 
L 325.256924 120.293217 
L 326.070595 110.016 
L 326.884265 117.817043 
L 327.697936 121.980522 
L 328.511606 116.721391 
L 329.325277 116.699478 
L 330.138947 116.502261 
L 330.952618 117.904696 
L 331.766288 115.822957 
L 332.579959 116.962435 
L 333.39363 117.488348 
L 334.2073 115.450435 
L 335.020971 120.862957 
L 335.834641 116.217391 
L 336.648312 129.650087 
L 337.461982 120.753391 
L 338.275653 113.982261 
L 339.089323 126.779478 
L 339.902994 119.044174 
L 340.716664 115.472348 
L 341.530335 121.651826 
L 342.344005 116.830957 
L 343.971347 118.386783 
L 344.785017 113.127652 
L 345.598688 119.175652 
L 346.412358 110.23513 
L 347.226029 112.689391 
L 348.039699 112.229217 
L 348.85337 113.894609 
L 349.66704 114.990261 
L 350.480711 111.30887 
L 351.294381 114.398609 
L 352.108052 113.149565 
L 352.921722 114.376696 
L 353.735393 115.888696 
L 354.549064 125.968696 
L 355.362734 114.069913 
L 356.176405 109.161391 
L 356.990075 114.902609 
L 357.803746 116.436522 
L 358.617416 113.565913 
L 359.431087 115.450435 
L 360.244757 118.934609 
L 361.058428 113.171478 
L 361.872098 113.456348 
L 362.685769 106.77287 
L 363.49944 108.547826 
L 364.31311 109.79687 
L 365.126781 110.673391 
L 365.940451 113.916522 
L 366.754122 116.151652 
L 367.567792 115.034087 
L 368.381463 110.651478 
L 369.195133 113.587826 
L 370.008804 114.354783 
L 370.822474 113.302957 
L 371.636145 113.083826 
L 372.449815 112.273043 
L 373.263486 113.412522 
L 374.077157 109.884522 
L 374.890827 120.556174 
L 375.704498 113.456348 
L 376.518168 111.111652 
L 377.331839 112.82087 
L 378.145509 110.958261 
L 379.77285 109.599652 
L 380.586521 109.139478 
L 381.400191 110.782957 
L 382.213862 111.615652 
L 383.027532 112.864696 
L 383.841203 108.21913 
L 384.654874 120.753391 
L 385.468544 110.695304 
L 386.282215 111.286957 
L 387.095885 110.432348 
L 387.909556 111.856696 
L 388.723226 113.82887 
L 389.536897 111.900522 
L 391.164238 117.685565 
L 391.977908 115.056 
L 392.791579 110.30087 
L 393.605249 109.709217 
L 394.41892 108.482087 
L 395.232591 111.922435 
L 396.046261 130.482783 
L 396.859932 111.725217 
L 397.673602 109.994087 
L 398.487273 111.506087 
L 398.487273 111.506087 
" style="fill:none;stroke:#ff7f0e;stroke-linecap:square;stroke-width:1.5;"/>
   </g>
   <g id="patch_3">
    <path d="M 57.6 307.584 
L 57.6 41.472 
" style="fill:none;stroke:#000000;stroke-linecap:square;stroke-linejoin:miter;stroke-width:0.8;"/>
   </g>
   <g id="patch_4">
    <path d="M 414.72 307.584 
L 414.72 41.472 
" style="fill:none;stroke:#000000;stroke-linecap:square;stroke-linejoin:miter;stroke-width:0.8;"/>
   </g>
   <g id="patch_5">
    <path d="M 57.6 307.584 
L 414.72 307.584 
" style="fill:none;stroke:#000000;stroke-linecap:square;stroke-linejoin:miter;stroke-width:0.8;"/>
   </g>
   <g id="patch_6">
    <path d="M 57.6 41.472 
L 414.72 41.472 
" style="fill:none;stroke:#000000;stroke-linecap:square;stroke-linejoin:miter;stroke-width:0.8;"/>
   </g>
   <g id="legend_1">
    <g id="patch_7">
     <path d="M 64.6 78.82825 
L 168.475 78.82825 
Q 170.475 78.82825 170.475 76.82825 
L 170.475 48.472 
Q 170.475 46.472 168.475 46.472 
L 64.6 46.472 
Q 62.6 46.472 62.6 48.472 
L 62.6 76.82825 
Q 62.6 78.82825 64.6 78.82825 
z
" style="fill:#ffffff;opacity:0.8;stroke:#cccccc;stroke-linejoin:miter;"/>
    </g>
    <g id="line2d_17">
     <path d="M 66.6 54.570437 
L 86.6 54.570437 
" style="fill:none;stroke:#1f77b4;stroke-linecap:square;stroke-width:1.5;"/>
    </g>
    <g id="line2d_18"/>
    <g id="text_17">
     <!-- Train loss -->
     <g transform="translate(94.6 58.070437)scale(0.1 -0.1)">
      <defs>
       <path d="M -19 4666 
L 3928 4666 
L 3928 4134 
L 2272 4134 
L 2272 0 
L 1638 0 
L 1638 4134 
L -19 4134 
L -19 4666 
z
" id="DejaVuSans-54" transform="scale(0.015625)"/>
       <path d="M 2631 2963 
Q 2534 3019 2420 3045 
Q 2306 3072 2169 3072 
Q 1681 3072 1420 2755 
Q 1159 2438 1159 1844 
L 1159 0 
L 581 0 
L 581 3500 
L 1159 3500 
L 1159 2956 
Q 1341 3275 1631 3429 
Q 1922 3584 2338 3584 
Q 2397 3584 2469 3576 
Q 2541 3569 2628 3553 
L 2631 2963 
z
" id="DejaVuSans-72" transform="scale(0.015625)"/>
       <path d="M 2194 1759 
Q 1497 1759 1228 1600 
Q 959 1441 959 1056 
Q 959 750 1161 570 
Q 1363 391 1709 391 
Q 2188 391 2477 730 
Q 2766 1069 2766 1631 
L 2766 1759 
L 2194 1759 
z
M 3341 1997 
L 3341 0 
L 2766 0 
L 2766 531 
Q 2569 213 2275 61 
Q 1981 -91 1556 -91 
Q 1019 -91 701 211 
Q 384 513 384 1019 
Q 384 1609 779 1909 
Q 1175 2209 1959 2209 
L 2766 2209 
L 2766 2266 
Q 2766 2663 2505 2880 
Q 2244 3097 1772 3097 
Q 1472 3097 1187 3025 
Q 903 2953 641 2809 
L 641 3341 
Q 956 3463 1253 3523 
Q 1550 3584 1831 3584 
Q 2591 3584 2966 3190 
Q 3341 2797 3341 1997 
z
" id="DejaVuSans-61" transform="scale(0.015625)"/>
       <path d="M 603 3500 
L 1178 3500 
L 1178 0 
L 603 0 
L 603 3500 
z
M 603 4863 
L 1178 4863 
L 1178 4134 
L 603 4134 
L 603 4863 
z
" id="DejaVuSans-69" transform="scale(0.015625)"/>
       <path d="M 3513 2113 
L 3513 0 
L 2938 0 
L 2938 2094 
Q 2938 2591 2744 2837 
Q 2550 3084 2163 3084 
Q 1697 3084 1428 2787 
Q 1159 2491 1159 1978 
L 1159 0 
L 581 0 
L 581 3500 
L 1159 3500 
L 1159 2956 
Q 1366 3272 1645 3428 
Q 1925 3584 2291 3584 
Q 2894 3584 3203 3211 
Q 3513 2838 3513 2113 
z
" id="DejaVuSans-6e" transform="scale(0.015625)"/>
       <path id="DejaVuSans-20" transform="scale(0.015625)"/>
       <path d="M 603 4863 
L 1178 4863 
L 1178 0 
L 603 0 
L 603 4863 
z
" id="DejaVuSans-6c" transform="scale(0.015625)"/>
      </defs>
      <use xlink:href="#DejaVuSans-54"/>
      <use x="46.333984" xlink:href="#DejaVuSans-72"/>
      <use x="87.447266" xlink:href="#DejaVuSans-61"/>
      <use x="148.726562" xlink:href="#DejaVuSans-69"/>
      <use x="176.509766" xlink:href="#DejaVuSans-6e"/>
      <use x="239.888672" xlink:href="#DejaVuSans-20"/>
      <use x="271.675781" xlink:href="#DejaVuSans-6c"/>
      <use x="299.458984" xlink:href="#DejaVuSans-6f"/>
      <use x="360.640625" xlink:href="#DejaVuSans-73"/>
      <use x="412.740234" xlink:href="#DejaVuSans-73"/>
     </g>
    </g>
    <g id="line2d_19">
     <path d="M 66.6 69.248562 
L 86.6 69.248562 
" style="fill:none;stroke:#ff7f0e;stroke-linecap:square;stroke-width:1.5;"/>
    </g>
    <g id="line2d_20"/>
    <g id="text_18">
     <!-- Validation loss -->
     <g transform="translate(94.6 72.748562)scale(0.1 -0.1)">
      <defs>
       <path d="M 1831 0 
L 50 4666 
L 709 4666 
L 2188 738 
L 3669 4666 
L 4325 4666 
L 2547 0 
L 1831 0 
z
" id="DejaVuSans-56" transform="scale(0.015625)"/>
       <path d="M 2906 2969 
L 2906 4863 
L 3481 4863 
L 3481 0 
L 2906 0 
L 2906 525 
Q 2725 213 2448 61 
Q 2172 -91 1784 -91 
Q 1150 -91 751 415 
Q 353 922 353 1747 
Q 353 2572 751 3078 
Q 1150 3584 1784 3584 
Q 2172 3584 2448 3432 
Q 2725 3281 2906 2969 
z
M 947 1747 
Q 947 1113 1208 752 
Q 1469 391 1925 391 
Q 2381 391 2643 752 
Q 2906 1113 2906 1747 
Q 2906 2381 2643 2742 
Q 2381 3103 1925 3103 
Q 1469 3103 1208 2742 
Q 947 2381 947 1747 
z
" id="DejaVuSans-64" transform="scale(0.015625)"/>
       <path d="M 1172 4494 
L 1172 3500 
L 2356 3500 
L 2356 3053 
L 1172 3053 
L 1172 1153 
Q 1172 725 1289 603 
Q 1406 481 1766 481 
L 2356 481 
L 2356 0 
L 1766 0 
Q 1100 0 847 248 
Q 594 497 594 1153 
L 594 3053 
L 172 3053 
L 172 3500 
L 594 3500 
L 594 4494 
L 1172 4494 
z
" id="DejaVuSans-74" transform="scale(0.015625)"/>
      </defs>
      <use xlink:href="#DejaVuSans-56"/>
      <use x="60.658203" xlink:href="#DejaVuSans-61"/>
      <use x="121.9375" xlink:href="#DejaVuSans-6c"/>
      <use x="149.720703" xlink:href="#DejaVuSans-69"/>
      <use x="177.503906" xlink:href="#DejaVuSans-64"/>
      <use x="240.980469" xlink:href="#DejaVuSans-61"/>
      <use x="302.259766" xlink:href="#DejaVuSans-74"/>
      <use x="341.46875" xlink:href="#DejaVuSans-69"/>
      <use x="369.251953" xlink:href="#DejaVuSans-6f"/>
      <use x="430.433594" xlink:href="#DejaVuSans-6e"/>
      <use x="493.8125" xlink:href="#DejaVuSans-20"/>
      <use x="525.599609" xlink:href="#DejaVuSans-6c"/>
      <use x="553.382812" xlink:href="#DejaVuSans-6f"/>
      <use x="614.564453" xlink:href="#DejaVuSans-73"/>
      <use x="666.664062" xlink:href="#DejaVuSans-73"/>
     </g>
    </g>
   </g>
  </g>
 </g>
 <defs>
  <clipPath id="p1a668a1ec5">
   <rect height="266.112" width="357.12" x="57.6" y="41.472"/>
  </clipPath>
 </defs>
</svg>
