<?xml version="1.0" encoding="utf-8" standalone="no"?>
<!DOCTYPE svg PUBLIC "-//W3C//DTD SVG 1.1//EN"
  "http://www.w3.org/Graphics/SVG/1.1/DTD/svg11.dtd">
<svg height="345.6pt" version="1.1" viewBox="0 0 460.8 345.6" width="460.8pt" xmlns="http://www.w3.org/2000/svg" xmlns:xlink="http://www.w3.org/1999/xlink">
 <metadata>
  <rdf:RDF xmlns:cc="http://creativecommons.org/ns#" xmlns:dc="http://purl.org/dc/elements/1.1/" xmlns:rdf="http://www.w3.org/1999/02/22-rdf-syntax-ns#">
   <cc:Work>
    <dc:type rdf:resource="http://purl.org/dc/dcmitype/StillImage"/>
    <dc:date>2021-07-11T04:02:05.470799</dc:date>
    <dc:format>image/svg+xml</dc:format>
    <dc:creator>
     <cc:Agent>
      <dc:title>Matplotlib v3.4.2, https://matplotlib.org/</dc:title>
     </cc:Agent>
    </dc:creator>
   </cc:Work>
  </rdf:RDF>
 </metadata>
 <defs>
  <style type="text/css">*{stroke-linecap:butt;stroke-linejoin:round;}</style>
 </defs>
 <g id="figure_1">
  <g id="patch_1">
   <path d="M 0 345.6 
L 460.8 345.6 
L 460.8 0 
L 0 0 
z
" style="fill:#ffffff;"/>
  </g>
  <g id="axes_1">
   <g id="patch_2">
    <path d="M 57.6 307.584 
L 414.72 307.584 
L 414.72 41.472 
L 57.6 41.472 
z
" style="fill:#ffffff;"/>
   </g>
   <g id="matplotlib.axis_1">
    <g id="xtick_1">
     <g id="line2d_1">
      <defs>
       <path d="M 0 0 
L 0 3.5 
" id="m9782a3c36e" style="stroke:#000000;stroke-width:0.8;"/>
      </defs>
      <g>
       <use style="stroke:#000000;stroke-width:0.8;" x="73.019057" xlink:href="#m9782a3c36e" y="307.584"/>
      </g>
     </g>
     <g id="text_1">
      <!-- 0 -->
      <g transform="translate(69.837807 322.182437)scale(0.1 -0.1)">
       <defs>
        <path d="M 2034 4250 
Q 1547 4250 1301 3770 
Q 1056 3291 1056 2328 
Q 1056 1369 1301 889 
Q 1547 409 2034 409 
Q 2525 409 2770 889 
Q 3016 1369 3016 2328 
Q 3016 3291 2770 3770 
Q 2525 4250 2034 4250 
z
M 2034 4750 
Q 2819 4750 3233 4129 
Q 3647 3509 3647 2328 
Q 3647 1150 3233 529 
Q 2819 -91 2034 -91 
Q 1250 -91 836 529 
Q 422 1150 422 2328 
Q 422 3509 836 4129 
Q 1250 4750 2034 4750 
z
" id="DejaVuSans-30" transform="scale(0.015625)"/>
       </defs>
       <use xlink:href="#DejaVuSans-30"/>
      </g>
     </g>
    </g>
    <g id="xtick_2">
     <g id="line2d_2">
      <g>
       <use style="stroke:#000000;stroke-width:0.8;" x="113.702584" xlink:href="#m9782a3c36e" y="307.584"/>
      </g>
     </g>
     <g id="text_2">
      <!-- 50 -->
      <g transform="translate(107.340084 322.182437)scale(0.1 -0.1)">
       <defs>
        <path d="M 691 4666 
L 3169 4666 
L 3169 4134 
L 1269 4134 
L 1269 2991 
Q 1406 3038 1543 3061 
Q 1681 3084 1819 3084 
Q 2600 3084 3056 2656 
Q 3513 2228 3513 1497 
Q 3513 744 3044 326 
Q 2575 -91 1722 -91 
Q 1428 -91 1123 -41 
Q 819 9 494 109 
L 494 744 
Q 775 591 1075 516 
Q 1375 441 1709 441 
Q 2250 441 2565 725 
Q 2881 1009 2881 1497 
Q 2881 1984 2565 2268 
Q 2250 2553 1709 2553 
Q 1456 2553 1204 2497 
Q 953 2441 691 2322 
L 691 4666 
z
" id="DejaVuSans-35" transform="scale(0.015625)"/>
       </defs>
       <use xlink:href="#DejaVuSans-35"/>
       <use x="63.623047" xlink:href="#DejaVuSans-30"/>
      </g>
     </g>
    </g>
    <g id="xtick_3">
     <g id="line2d_3">
      <g>
       <use style="stroke:#000000;stroke-width:0.8;" x="154.386111" xlink:href="#m9782a3c36e" y="307.584"/>
      </g>
     </g>
     <g id="text_3">
      <!-- 100 -->
      <g transform="translate(144.842361 322.182437)scale(0.1 -0.1)">
       <defs>
        <path d="M 794 531 
L 1825 531 
L 1825 4091 
L 703 3866 
L 703 4441 
L 1819 4666 
L 2450 4666 
L 2450 531 
L 3481 531 
L 3481 0 
L 794 0 
L 794 531 
z
" id="DejaVuSans-31" transform="scale(0.015625)"/>
       </defs>
       <use xlink:href="#DejaVuSans-31"/>
       <use x="63.623047" xlink:href="#DejaVuSans-30"/>
       <use x="127.246094" xlink:href="#DejaVuSans-30"/>
      </g>
     </g>
    </g>
    <g id="xtick_4">
     <g id="line2d_4">
      <g>
       <use style="stroke:#000000;stroke-width:0.8;" x="195.069638" xlink:href="#m9782a3c36e" y="307.584"/>
      </g>
     </g>
     <g id="text_4">
      <!-- 150 -->
      <g transform="translate(185.525888 322.182437)scale(0.1 -0.1)">
       <use xlink:href="#DejaVuSans-31"/>
       <use x="63.623047" xlink:href="#DejaVuSans-35"/>
       <use x="127.246094" xlink:href="#DejaVuSans-30"/>
      </g>
     </g>
    </g>
    <g id="xtick_5">
     <g id="line2d_5">
      <g>
       <use style="stroke:#000000;stroke-width:0.8;" x="235.753165" xlink:href="#m9782a3c36e" y="307.584"/>
      </g>
     </g>
     <g id="text_5">
      <!-- 200 -->
      <g transform="translate(226.209415 322.182437)scale(0.1 -0.1)">
       <defs>
        <path d="M 1228 531 
L 3431 531 
L 3431 0 
L 469 0 
L 469 531 
Q 828 903 1448 1529 
Q 2069 2156 2228 2338 
Q 2531 2678 2651 2914 
Q 2772 3150 2772 3378 
Q 2772 3750 2511 3984 
Q 2250 4219 1831 4219 
Q 1534 4219 1204 4116 
Q 875 4013 500 3803 
L 500 4441 
Q 881 4594 1212 4672 
Q 1544 4750 1819 4750 
Q 2544 4750 2975 4387 
Q 3406 4025 3406 3419 
Q 3406 3131 3298 2873 
Q 3191 2616 2906 2266 
Q 2828 2175 2409 1742 
Q 1991 1309 1228 531 
z
" id="DejaVuSans-32" transform="scale(0.015625)"/>
       </defs>
       <use xlink:href="#DejaVuSans-32"/>
       <use x="63.623047" xlink:href="#DejaVuSans-30"/>
       <use x="127.246094" xlink:href="#DejaVuSans-30"/>
      </g>
     </g>
    </g>
    <g id="xtick_6">
     <g id="line2d_6">
      <g>
       <use style="stroke:#000000;stroke-width:0.8;" x="276.436692" xlink:href="#m9782a3c36e" y="307.584"/>
      </g>
     </g>
     <g id="text_6">
      <!-- 250 -->
      <g transform="translate(266.892942 322.182437)scale(0.1 -0.1)">
       <use xlink:href="#DejaVuSans-32"/>
       <use x="63.623047" xlink:href="#DejaVuSans-35"/>
       <use x="127.246094" xlink:href="#DejaVuSans-30"/>
      </g>
     </g>
    </g>
    <g id="xtick_7">
     <g id="line2d_7">
      <g>
       <use style="stroke:#000000;stroke-width:0.8;" x="317.120219" xlink:href="#m9782a3c36e" y="307.584"/>
      </g>
     </g>
     <g id="text_7">
      <!-- 300 -->
      <g transform="translate(307.576469 322.182437)scale(0.1 -0.1)">
       <defs>
        <path d="M 2597 2516 
Q 3050 2419 3304 2112 
Q 3559 1806 3559 1356 
Q 3559 666 3084 287 
Q 2609 -91 1734 -91 
Q 1441 -91 1130 -33 
Q 819 25 488 141 
L 488 750 
Q 750 597 1062 519 
Q 1375 441 1716 441 
Q 2309 441 2620 675 
Q 2931 909 2931 1356 
Q 2931 1769 2642 2001 
Q 2353 2234 1838 2234 
L 1294 2234 
L 1294 2753 
L 1863 2753 
Q 2328 2753 2575 2939 
Q 2822 3125 2822 3475 
Q 2822 3834 2567 4026 
Q 2313 4219 1838 4219 
Q 1578 4219 1281 4162 
Q 984 4106 628 3988 
L 628 4550 
Q 988 4650 1302 4700 
Q 1616 4750 1894 4750 
Q 2613 4750 3031 4423 
Q 3450 4097 3450 3541 
Q 3450 3153 3228 2886 
Q 3006 2619 2597 2516 
z
" id="DejaVuSans-33" transform="scale(0.015625)"/>
       </defs>
       <use xlink:href="#DejaVuSans-33"/>
       <use x="63.623047" xlink:href="#DejaVuSans-30"/>
       <use x="127.246094" xlink:href="#DejaVuSans-30"/>
      </g>
     </g>
    </g>
    <g id="xtick_8">
     <g id="line2d_8">
      <g>
       <use style="stroke:#000000;stroke-width:0.8;" x="357.803746" xlink:href="#m9782a3c36e" y="307.584"/>
      </g>
     </g>
     <g id="text_8">
      <!-- 350 -->
      <g transform="translate(348.259996 322.182437)scale(0.1 -0.1)">
       <use xlink:href="#DejaVuSans-33"/>
       <use x="63.623047" xlink:href="#DejaVuSans-35"/>
       <use x="127.246094" xlink:href="#DejaVuSans-30"/>
      </g>
     </g>
    </g>
    <g id="xtick_9">
     <g id="line2d_9">
      <g>
       <use style="stroke:#000000;stroke-width:0.8;" x="398.487273" xlink:href="#m9782a3c36e" y="307.584"/>
      </g>
     </g>
     <g id="text_9">
      <!-- 400 -->
      <g transform="translate(388.943523 322.182437)scale(0.1 -0.1)">
       <defs>
        <path d="M 2419 4116 
L 825 1625 
L 2419 1625 
L 2419 4116 
z
M 2253 4666 
L 3047 4666 
L 3047 1625 
L 3713 1625 
L 3713 1100 
L 3047 1100 
L 3047 0 
L 2419 0 
L 2419 1100 
L 313 1100 
L 313 1709 
L 2253 4666 
z
" id="DejaVuSans-34" transform="scale(0.015625)"/>
       </defs>
       <use xlink:href="#DejaVuSans-34"/>
       <use x="63.623047" xlink:href="#DejaVuSans-30"/>
       <use x="127.246094" xlink:href="#DejaVuSans-30"/>
      </g>
     </g>
    </g>
    <g id="text_10">
     <!-- Epoch -->
     <g transform="translate(213.193594 339.659781)scale(0.15 -0.15)">
      <defs>
       <path d="M 628 4666 
L 3578 4666 
L 3578 4134 
L 1259 4134 
L 1259 2753 
L 3481 2753 
L 3481 2222 
L 1259 2222 
L 1259 531 
L 3634 531 
L 3634 0 
L 628 0 
L 628 4666 
z
" id="DejaVuSans-45" transform="scale(0.015625)"/>
       <path d="M 1159 525 
L 1159 -1331 
L 581 -1331 
L 581 3500 
L 1159 3500 
L 1159 2969 
Q 1341 3281 1617 3432 
Q 1894 3584 2278 3584 
Q 2916 3584 3314 3078 
Q 3713 2572 3713 1747 
Q 3713 922 3314 415 
Q 2916 -91 2278 -91 
Q 1894 -91 1617 61 
Q 1341 213 1159 525 
z
M 3116 1747 
Q 3116 2381 2855 2742 
Q 2594 3103 2138 3103 
Q 1681 3103 1420 2742 
Q 1159 2381 1159 1747 
Q 1159 1113 1420 752 
Q 1681 391 2138 391 
Q 2594 391 2855 752 
Q 3116 1113 3116 1747 
z
" id="DejaVuSans-70" transform="scale(0.015625)"/>
       <path d="M 1959 3097 
Q 1497 3097 1228 2736 
Q 959 2375 959 1747 
Q 959 1119 1226 758 
Q 1494 397 1959 397 
Q 2419 397 2687 759 
Q 2956 1122 2956 1747 
Q 2956 2369 2687 2733 
Q 2419 3097 1959 3097 
z
M 1959 3584 
Q 2709 3584 3137 3096 
Q 3566 2609 3566 1747 
Q 3566 888 3137 398 
Q 2709 -91 1959 -91 
Q 1206 -91 779 398 
Q 353 888 353 1747 
Q 353 2609 779 3096 
Q 1206 3584 1959 3584 
z
" id="DejaVuSans-6f" transform="scale(0.015625)"/>
       <path d="M 3122 3366 
L 3122 2828 
Q 2878 2963 2633 3030 
Q 2388 3097 2138 3097 
Q 1578 3097 1268 2742 
Q 959 2388 959 1747 
Q 959 1106 1268 751 
Q 1578 397 2138 397 
Q 2388 397 2633 464 
Q 2878 531 3122 666 
L 3122 134 
Q 2881 22 2623 -34 
Q 2366 -91 2075 -91 
Q 1284 -91 818 406 
Q 353 903 353 1747 
Q 353 2603 823 3093 
Q 1294 3584 2113 3584 
Q 2378 3584 2631 3529 
Q 2884 3475 3122 3366 
z
" id="DejaVuSans-63" transform="scale(0.015625)"/>
       <path d="M 3513 2113 
L 3513 0 
L 2938 0 
L 2938 2094 
Q 2938 2591 2744 2837 
Q 2550 3084 2163 3084 
Q 1697 3084 1428 2787 
Q 1159 2491 1159 1978 
L 1159 0 
L 581 0 
L 581 4863 
L 1159 4863 
L 1159 2956 
Q 1366 3272 1645 3428 
Q 1925 3584 2291 3584 
Q 2894 3584 3203 3211 
Q 3513 2838 3513 2113 
z
" id="DejaVuSans-68" transform="scale(0.015625)"/>
      </defs>
      <use xlink:href="#DejaVuSans-45"/>
      <use x="63.183594" xlink:href="#DejaVuSans-70"/>
      <use x="126.660156" xlink:href="#DejaVuSans-6f"/>
      <use x="187.841797" xlink:href="#DejaVuSans-63"/>
      <use x="242.822266" xlink:href="#DejaVuSans-68"/>
     </g>
    </g>
   </g>
   <g id="matplotlib.axis_2">
    <g id="ytick_1">
     <g id="line2d_10">
      <defs>
       <path d="M 0 0 
L -3.5 0 
" id="mbfb70652e9" style="stroke:#000000;stroke-width:0.8;"/>
      </defs>
      <g>
       <use style="stroke:#000000;stroke-width:0.8;" x="57.6" xlink:href="#mbfb70652e9" y="295.488"/>
      </g>
     </g>
     <g id="text_11">
      <!-- 0.0 -->
      <g transform="translate(34.696875 299.287219)scale(0.1 -0.1)">
       <defs>
        <path d="M 684 794 
L 1344 794 
L 1344 0 
L 684 0 
L 684 794 
z
" id="DejaVuSans-2e" transform="scale(0.015625)"/>
       </defs>
       <use xlink:href="#DejaVuSans-30"/>
       <use x="63.623047" xlink:href="#DejaVuSans-2e"/>
       <use x="95.410156" xlink:href="#DejaVuSans-30"/>
      </g>
     </g>
    </g>
    <g id="ytick_2">
     <g id="line2d_11">
      <g>
       <use style="stroke:#000000;stroke-width:0.8;" x="57.6" xlink:href="#mbfb70652e9" y="258.816984"/>
      </g>
     </g>
     <g id="text_12">
      <!-- 0.1 -->
      <g transform="translate(34.696875 262.616203)scale(0.1 -0.1)">
       <use xlink:href="#DejaVuSans-30"/>
       <use x="63.623047" xlink:href="#DejaVuSans-2e"/>
       <use x="95.410156" xlink:href="#DejaVuSans-31"/>
      </g>
     </g>
    </g>
    <g id="ytick_3">
     <g id="line2d_12">
      <g>
       <use style="stroke:#000000;stroke-width:0.8;" x="57.6" xlink:href="#mbfb70652e9" y="222.145968"/>
      </g>
     </g>
     <g id="text_13">
      <!-- 0.2 -->
      <g transform="translate(34.696875 225.945187)scale(0.1 -0.1)">
       <use xlink:href="#DejaVuSans-30"/>
       <use x="63.623047" xlink:href="#DejaVuSans-2e"/>
       <use x="95.410156" xlink:href="#DejaVuSans-32"/>
      </g>
     </g>
    </g>
    <g id="ytick_4">
     <g id="line2d_13">
      <g>
       <use style="stroke:#000000;stroke-width:0.8;" x="57.6" xlink:href="#mbfb70652e9" y="185.474952"/>
      </g>
     </g>
     <g id="text_14">
      <!-- 0.3 -->
      <g transform="translate(34.696875 189.274171)scale(0.1 -0.1)">
       <use xlink:href="#DejaVuSans-30"/>
       <use x="63.623047" xlink:href="#DejaVuSans-2e"/>
       <use x="95.410156" xlink:href="#DejaVuSans-33"/>
      </g>
     </g>
    </g>
    <g id="ytick_5">
     <g id="line2d_14">
      <g>
       <use style="stroke:#000000;stroke-width:0.8;" x="57.6" xlink:href="#mbfb70652e9" y="148.803937"/>
      </g>
     </g>
     <g id="text_15">
      <!-- 0.4 -->
      <g transform="translate(34.696875 152.603155)scale(0.1 -0.1)">
       <use xlink:href="#DejaVuSans-30"/>
       <use x="63.623047" xlink:href="#DejaVuSans-2e"/>
       <use x="95.410156" xlink:href="#DejaVuSans-34"/>
      </g>
     </g>
    </g>
    <g id="ytick_6">
     <g id="line2d_15">
      <g>
       <use style="stroke:#000000;stroke-width:0.8;" x="57.6" xlink:href="#mbfb70652e9" y="112.132921"/>
      </g>
     </g>
     <g id="text_16">
      <!-- 0.5 -->
      <g transform="translate(34.696875 115.932139)scale(0.1 -0.1)">
       <use xlink:href="#DejaVuSans-30"/>
       <use x="63.623047" xlink:href="#DejaVuSans-2e"/>
       <use x="95.410156" xlink:href="#DejaVuSans-35"/>
      </g>
     </g>
    </g>
    <g id="ytick_7">
     <g id="line2d_16">
      <g>
       <use style="stroke:#000000;stroke-width:0.8;" x="57.6" xlink:href="#mbfb70652e9" y="75.461905"/>
      </g>
     </g>
     <g id="text_17">
      <!-- 0.6 -->
      <g transform="translate(34.696875 79.261124)scale(0.1 -0.1)">
       <defs>
        <path d="M 2113 2584 
Q 1688 2584 1439 2293 
Q 1191 2003 1191 1497 
Q 1191 994 1439 701 
Q 1688 409 2113 409 
Q 2538 409 2786 701 
Q 3034 994 3034 1497 
Q 3034 2003 2786 2293 
Q 2538 2584 2113 2584 
z
M 3366 4563 
L 3366 3988 
Q 3128 4100 2886 4159 
Q 2644 4219 2406 4219 
Q 1781 4219 1451 3797 
Q 1122 3375 1075 2522 
Q 1259 2794 1537 2939 
Q 1816 3084 2150 3084 
Q 2853 3084 3261 2657 
Q 3669 2231 3669 1497 
Q 3669 778 3244 343 
Q 2819 -91 2113 -91 
Q 1303 -91 875 529 
Q 447 1150 447 2328 
Q 447 3434 972 4092 
Q 1497 4750 2381 4750 
Q 2619 4750 2861 4703 
Q 3103 4656 3366 4563 
z
" id="DejaVuSans-36" transform="scale(0.015625)"/>
       </defs>
       <use xlink:href="#DejaVuSans-30"/>
       <use x="63.623047" xlink:href="#DejaVuSans-2e"/>
       <use x="95.410156" xlink:href="#DejaVuSans-36"/>
      </g>
     </g>
    </g>
    <g id="text_18">
     <!-- Loss -->
     <g transform="translate(27.577344 190.978781)rotate(-90)scale(0.15 -0.15)">
      <defs>
       <path d="M 628 4666 
L 1259 4666 
L 1259 531 
L 3531 531 
L 3531 0 
L 628 0 
L 628 4666 
z
" id="DejaVuSans-4c" transform="scale(0.015625)"/>
       <path d="M 2834 3397 
L 2834 2853 
Q 2591 2978 2328 3040 
Q 2066 3103 1784 3103 
Q 1356 3103 1142 2972 
Q 928 2841 928 2578 
Q 928 2378 1081 2264 
Q 1234 2150 1697 2047 
L 1894 2003 
Q 2506 1872 2764 1633 
Q 3022 1394 3022 966 
Q 3022 478 2636 193 
Q 2250 -91 1575 -91 
Q 1294 -91 989 -36 
Q 684 19 347 128 
L 347 722 
Q 666 556 975 473 
Q 1284 391 1588 391 
Q 1994 391 2212 530 
Q 2431 669 2431 922 
Q 2431 1156 2273 1281 
Q 2116 1406 1581 1522 
L 1381 1569 
Q 847 1681 609 1914 
Q 372 2147 372 2553 
Q 372 3047 722 3315 
Q 1072 3584 1716 3584 
Q 2034 3584 2315 3537 
Q 2597 3491 2834 3397 
z
" id="DejaVuSans-73" transform="scale(0.015625)"/>
      </defs>
      <use xlink:href="#DejaVuSans-4c"/>
      <use x="53.962891" xlink:href="#DejaVuSans-6f"/>
      <use x="115.144531" xlink:href="#DejaVuSans-73"/>
      <use x="167.244141" xlink:href="#DejaVuSans-73"/>
     </g>
    </g>
   </g>
   <g id="line2d_17">
    <path clip-path="url(#p6108685963)" d="M 73.832727 168.568772 
L 74.646398 174.353018 
L 75.460068 163.777731 
L 76.273739 165.24251 
L 77.087409 167.890134 
L 77.90108 162.19005 
L 78.714751 174.676313 
L 79.528421 169.138875 
L 80.342092 167.043929 
L 81.155762 173.813334 
L 81.969433 173.538674 
L 82.783103 171.874638 
L 83.596774 172.330237 
L 84.410444 176.340721 
L 85.224115 177.968152 
L 86.037785 167.536619 
L 86.851456 176.082663 
L 87.665126 167.234018 
L 88.478797 174.057746 
L 89.292468 174.878136 
L 90.106138 163.256462 
L 90.919809 168.617358 
L 91.733479 170.174773 
L 92.54715 165.290007 
L 93.36082 172.059854 
L 94.174491 158.889154 
L 94.988161 173.240902 
L 95.801832 167.813816 
L 96.615502 167.64117 
L 97.429173 164.848203 
L 99.056514 168.575262 
L 99.870185 176.904028 
L 100.683855 166.566374 
L 101.497526 170.841957 
L 102.311196 166.683704 
L 103.938537 168.980117 
L 104.752208 179.122179 
L 105.565878 170.829591 
L 106.379549 172.99719 
L 108.00689 171.801389 
L 108.82056 175.059753 
L 109.634231 175.98254 
L 110.447902 167.824644 
L 111.261572 178.177537 
L 112.075243 176.978699 
L 112.888913 169.244021 
L 113.702584 169.531487 
L 114.516254 179.154899 
L 115.329925 176.664452 
L 116.143595 175.911888 
L 116.957266 172.143782 
L 117.770936 181.447436 
L 118.584607 177.491833 
L 119.398278 172.585603 
L 120.211948 176.805327 
L 121.025619 172.530251 
L 121.839289 171.475051 
L 122.65296 179.808867 
L 123.46663 184.53714 
L 124.280301 181.765096 
L 125.093971 172.986453 
L 125.907642 171.516765 
L 126.721312 177.077227 
L 127.534983 172.880267 
L 128.348653 174.692686 
L 129.162324 174.979536 
L 129.975995 181.551667 
L 130.789665 174.371582 
L 131.603336 173.580865 
L 132.417006 180.72304 
L 133.230677 175.25076 
L 134.044347 171.385673 
L 134.858018 178.616446 
L 135.671688 178.171004 
L 136.485359 180.13115 
L 137.299029 177.454387 
L 138.1127 179.791326 
L 138.92637 173.924514 
L 139.740041 172.795641 
L 140.553712 177.336859 
L 141.367382 178.372077 
L 142.181053 174.674126 
L 142.994723 177.445702 
L 143.808394 177.986057 
L 144.622064 179.292162 
L 145.435735 184.382949 
L 146.249405 177.140764 
L 147.063076 187.859777 
L 147.876746 177.877796 
L 148.690417 176.727247 
L 149.504087 172.018121 
L 150.317758 184.526457 
L 151.131429 177.071939 
L 151.945099 180.450645 
L 152.75877 173.505935 
L 153.57244 178.113332 
L 155.199781 172.949373 
L 156.013452 181.105629 
L 156.827122 176.6639 
L 157.640793 182.2417 
L 158.454463 178.99687 
L 159.268134 184.256114 
L 160.081805 175.074611 
L 160.895475 186.83487 
L 161.709146 183.323255 
L 162.522816 183.21487 
L 163.336487 181.388442 
L 164.150157 176.808458 
L 164.963828 180.01421 
L 165.777498 177.761115 
L 166.591169 174.934964 
L 167.404839 176.174202 
L 168.21851 185.759113 
L 169.03218 185.054887 
L 169.845851 183.293351 
L 170.659522 183.946122 
L 171.473192 178.500079 
L 172.286863 184.482921 
L 173.100533 188.237856 
L 173.914204 178.227585 
L 174.727874 187.825784 
L 175.541545 183.349333 
L 176.355215 188.754044 
L 177.168886 181.434857 
L 177.982556 188.767495 
L 178.796227 184.166754 
L 179.609897 182.785451 
L 180.423568 187.313993 
L 181.237239 182.834576 
L 182.050909 188.122797 
L 182.86458 181.982555 
L 183.67825 182.916335 
L 184.491921 189.678796 
L 185.305591 189.014531 
L 186.932932 186.787071 
L 187.746603 190.766269 
L 188.560273 190.02289 
L 189.373944 187.802654 
L 190.187614 181.12891 
L 191.001285 187.111267 
L 191.814956 189.904059 
L 192.628626 181.407266 
L 194.255967 188.73656 
L 195.069638 192.958388 
L 195.883308 192.506393 
L 196.696979 194.055903 
L 197.510649 190.533175 
L 198.32432 189.71429 
L 199.13799 191.295087 
L 199.951661 185.993501 
L 200.765332 192.873701 
L 201.579002 195.731224 
L 202.392673 191.011407 
L 203.206343 192.911148 
L 204.020014 189.580692 
L 204.833684 188.149565 
L 205.647355 190.671328 
L 206.461025 186.900807 
L 207.274696 187.75359 
L 208.088366 188.014608 
L 208.902037 193.273995 
L 209.715707 194.250899 
L 210.529378 192.857344 
L 211.343049 193.726703 
L 212.156719 193.938445 
L 212.97039 191.534962 
L 213.78406 202.923996 
L 214.597731 188.13742 
L 215.411401 199.38767 
L 216.225072 196.749633 
L 217.038742 197.520811 
L 217.852413 188.771802 
L 218.666083 189.861042 
L 219.479754 196.037305 
L 220.293424 190.738113 
L 221.107095 195.7904 
L 221.920766 198.851665 
L 222.734436 193.843299 
L 223.548107 198.186947 
L 224.361777 197.690698 
L 225.175448 194.423132 
L 225.989118 187.36359 
L 226.802789 190.085963 
L 228.43013 199.497181 
L 229.2438 197.945802 
L 230.057471 197.59341 
L 230.871141 197.753032 
L 231.684812 196.421156 
L 232.498483 196.634392 
L 233.312153 193.205846 
L 234.125824 202.059304 
L 234.939494 192.945118 
L 235.753165 197.078848 
L 236.566835 196.346911 
L 237.380506 198.988528 
L 238.194176 191.827013 
L 239.007847 208.447333 
L 239.821517 197.717797 
L 240.635188 200.71119 
L 241.448859 194.076395 
L 242.262529 193.795248 
L 243.0762 200.753837 
L 243.88987 202.391001 
L 244.703541 194.548862 
L 245.517211 199.344814 
L 246.330882 199.961303 
L 247.144552 204.337064 
L 247.958223 198.007547 
L 248.771893 202.848747 
L 249.585564 203.626557 
L 250.399234 201.863159 
L 251.212905 203.140538 
L 252.026576 200.770962 
L 252.840246 197.527404 
L 253.653917 203.374583 
L 254.467587 190.917935 
L 255.281258 202.161481 
L 256.094928 203.695877 
L 256.908599 200.143696 
L 257.722269 197.751262 
L 258.53594 205.797869 
L 259.34961 201.925503 
L 260.163281 204.703587 
L 260.976951 200.910575 
L 261.790622 205.488045 
L 262.604293 203.832713 
L 263.417963 203.956283 
L 264.231634 199.566747 
L 265.045304 197.855887 
L 265.858975 201.720648 
L 266.672645 197.504708 
L 267.486316 204.773529 
L 268.299986 205.290015 
L 269.113657 202.277399 
L 269.927327 202.698095 
L 270.740998 197.944487 
L 271.554668 205.655347 
L 272.368339 205.178167 
L 273.18201 200.124578 
L 273.99568 205.857743 
L 274.809351 201.658313 
L 275.623021 207.50992 
L 276.436692 200.086347 
L 277.250362 199.9855 
L 278.064033 209.324937 
L 278.877703 204.010939 
L 279.691374 201.139166 
L 280.505044 201.871681 
L 281.318715 201.128478 
L 282.132386 206.358446 
L 282.946056 201.469417 
L 283.759727 204.460468 
L 284.573397 201.162538 
L 285.387068 206.276965 
L 286.200738 197.235464 
L 287.014409 200.707714 
L 287.828079 202.963584 
L 288.64175 208.606894 
L 289.45542 203.422427 
L 290.269091 204.932868 
L 291.082761 210.069672 
L 291.896432 204.066946 
L 293.523773 206.455103 
L 294.337444 208.185388 
L 295.151114 203.305928 
L 295.964785 208.251106 
L 296.778455 204.126674 
L 297.592126 206.774092 
L 298.405796 208.241939 
L 299.219467 203.270736 
L 300.033137 203.838262 
L 300.846808 205.608392 
L 301.660478 200.847625 
L 302.474149 205.714376 
L 303.28782 208.3368 
L 304.10149 209.126766 
L 304.915161 201.523253 
L 305.728831 208.312226 
L 306.542502 207.854155 
L 307.356172 214.335147 
L 308.169843 207.094845 
L 308.983513 205.539568 
L 309.797184 206.198296 
L 310.610854 207.759088 
L 311.424525 206.760479 
L 312.238195 208.334389 
L 313.051866 210.311477 
L 313.865537 212.605235 
L 314.679207 206.5058 
L 315.492878 205.01052 
L 316.306548 208.221725 
L 317.120219 209.41494 
L 317.933889 207.363859 
L 318.74756 213.480826 
L 319.56123 210.466735 
L 320.374901 208.579954 
L 321.188571 209.337874 
L 322.002242 219.060897 
L 322.815913 206.27911 
L 323.629583 205.114432 
L 324.443254 209.769493 
L 325.256924 210.164891 
L 326.070595 208.015413 
L 326.884265 210.111259 
L 327.697936 207.992201 
L 328.511606 212.179004 
L 329.325277 211.482782 
L 330.138947 211.104271 
L 330.952618 205.695773 
L 331.766288 210.24529 
L 332.579959 207.238431 
L 333.39363 205.52531 
L 334.2073 208.893619 
L 335.020971 209.489773 
L 335.834641 210.345662 
L 336.648312 206.851718 
L 337.461982 212.351799 
L 338.275653 206.079846 
L 339.089323 208.938954 
L 339.902994 205.800782 
L 340.716664 205.749942 
L 341.530335 209.913567 
L 342.344005 205.685775 
L 343.157676 216.722227 
L 343.971347 216.076891 
L 344.785017 208.993014 
L 345.598688 214.320622 
L 346.412358 207.935877 
L 347.226029 207.049598 
L 348.039699 209.453886 
L 348.85337 209.930966 
L 349.66704 212.762038 
L 350.480711 212.835667 
L 351.294381 211.420927 
L 352.108052 211.40813 
L 352.921722 211.124888 
L 353.735393 211.896384 
L 354.549064 207.97977 
L 355.362734 207.83237 
L 356.176405 213.416756 
L 356.990075 213.768674 
L 357.803746 213.362784 
L 358.617416 208.43231 
L 359.431087 215.741375 
L 360.244757 211.398537 
L 361.058428 211.527379 
L 361.872098 207.336141 
L 362.685769 217.697172 
L 363.49944 216.348524 
L 364.31311 218.053523 
L 365.126781 208.846495 
L 365.940451 218.560884 
L 366.754122 211.491517 
L 367.567792 211.438136 
L 368.381463 205.702123 
L 369.195133 204.934978 
L 370.008804 211.901662 
L 370.822474 211.326032 
L 371.636145 205.873116 
L 373.263486 213.789676 
L 374.077157 208.156832 
L 374.890827 212.054205 
L 375.704498 208.094653 
L 376.518168 209.801951 
L 377.331839 208.325273 
L 378.145509 217.256824 
L 378.95918 215.729396 
L 379.77285 208.747813 
L 380.586521 209.049219 
L 381.400191 218.441104 
L 382.213862 213.708059 
L 383.027532 211.688529 
L 383.841203 212.166686 
L 384.654874 217.779096 
L 385.468544 205.454903 
L 386.282215 211.074909 
L 387.095885 213.549897 
L 387.909556 218.912248 
L 388.723226 211.284571 
L 389.536897 211.141169 
L 390.350567 215.667412 
L 391.164238 216.330285 
L 391.977908 209.310892 
L 392.791579 213.715485 
L 393.605249 214.66571 
L 394.41892 217.121742 
L 395.232591 209.394829 
L 396.859932 216.246096 
L 397.673602 211.120984 
L 398.487273 215.363971 
L 398.487273 215.363971 
" style="fill:none;stroke:#1f77b4;stroke-linecap:square;stroke-width:1.5;"/>
   </g>
   <g id="line2d_18">
    <path clip-path="url(#p6108685963)" d="M 73.832727 263.390681 
L 74.646398 147.903092 
L 75.460068 249.444458 
L 76.273739 63.233063 
L 77.087409 136.570037 
L 78.714751 53.568 
L 79.528421 136.603532 
L 80.342092 168.303163 
L 81.155762 168.3651 
L 81.969433 237.758022 
L 82.783103 184.275859 
L 83.596774 168.383952 
L 84.410444 169.681083 
L 85.224115 168.392923 
L 86.037785 133.069579 
L 86.851456 168.393877 
L 87.665126 263.715868 
L 88.478797 104.849855 
L 89.292468 120.735501 
L 90.106138 168.390617 
L 90.919809 168.388922 
L 91.733479 136.584935 
L 92.54715 168.402976 
L 93.36082 104.826274 
L 94.174491 120.735586 
L 94.988161 247.825384 
L 95.801832 136.600876 
L 96.615502 168.382744 
L 97.429173 168.397241 
L 98.242843 263.716531 
L 99.056514 168.430632 
L 99.870185 279.60093 
L 100.683855 168.54412 
L 101.497526 200.39599 
L 102.311196 266.375786 
L 103.124867 169.19546 
L 103.938537 169.580495 
L 104.752208 169.209758 
L 105.565878 169.303201 
L 106.379549 248.689171 
L 107.193219 248.859655 
L 108.00689 80.681554 
L 108.82056 78.014626 
L 109.634231 140.750343 
L 110.447902 187.183982 
L 111.261572 264.395181 
L 112.075243 172.577571 
L 112.888913 142.532104 
L 113.702584 203.648914 
L 114.516254 234.069641 
L 115.329925 173.145227 
L 116.143595 173.673099 
L 116.957266 265.02557 
L 117.770936 173.61884 
L 118.584607 130.264531 
L 119.398278 114.705488 
L 120.211948 158.786223 
L 121.025619 174.119567 
L 121.839289 173.428205 
L 123.46663 174.716703 
L 124.280301 145.590707 
L 125.093971 145.295309 
L 125.907642 84.568789 
L 126.721312 115.169004 
L 127.534983 160.339126 
L 128.348653 143.697263 
L 129.162324 244.034952 
L 130.789665 99.132545 
L 131.603336 100.070936 
L 132.417006 239.182073 
L 133.230677 176.048662 
L 134.044347 175.524922 
L 134.858018 173.045424 
L 135.671688 87.434051 
L 136.485359 93.898023 
L 137.299029 251.064475 
L 138.1127 161.102417 
L 138.92637 176.097774 
L 139.740041 182.933287 
L 140.553712 129.023518 
L 141.367382 176.552949 
L 142.181053 177.393663 
L 142.994723 235.424864 
L 143.808394 145.492419 
L 144.622064 205.650887 
L 145.435735 235.592802 
L 146.249405 174.759175 
L 147.063076 191.163571 
L 147.876746 176.911931 
L 148.690417 102.652252 
L 149.504087 85.12351 
L 150.317758 112.69116 
L 151.131429 177.061345 
L 152.75877 62.53383 
L 153.57244 104.798243 
L 154.386111 85.830917 
L 155.199781 163.520436 
L 156.013452 159.905809 
L 156.827122 295.488 
L 157.640793 178.455653 
L 158.454463 86.054218 
L 159.268134 246.030321 
L 160.081805 134.333669 
L 160.895475 89.096676 
L 161.709146 236.468751 
L 162.522816 181.968804 
L 163.336487 179.464896 
L 164.150157 97.539823 
L 164.963828 120.432693 
L 166.591169 290.223807 
L 167.404839 67.704265 
L 168.21851 212.555246 
L 169.03218 266.538452 
L 169.845851 92.367889 
L 170.659522 84.463391 
L 171.473192 238.743659 
L 172.286863 281.318008 
L 173.100533 170.897386 
L 174.727874 193.758474 
L 175.541545 149.687512 
L 176.355215 182.677947 
L 177.168886 281.619978 
L 177.982556 79.76961 
L 178.796227 239.069472 
L 179.609897 182.622956 
L 180.423568 269.136883 
L 181.237239 181.813847 
L 182.050909 182.373896 
L 182.86458 182.478107 
L 183.67825 267.554709 
L 184.491921 267.055357 
L 185.305591 295.488 
L 186.119262 104.924853 
L 186.932932 212.199663 
L 187.746603 253.894814 
L 188.560273 239.364794 
L 189.373944 187.49329 
L 190.187614 79.824784 
L 191.001285 102.182026 
L 191.814956 186.867244 
L 192.628626 72.787057 
L 193.442297 186.989498 
L 194.255967 186.10945 
L 195.069638 187.640621 
L 195.883308 185.304341 
L 196.696979 185.912666 
L 197.510649 184.91305 
L 198.32432 186.479561 
L 199.13799 186.457991 
L 199.951661 225.662519 
L 200.765332 118.996586 
L 201.579002 188.425359 
L 202.392673 188.38743 
L 203.206343 184.521331 
L 204.020014 208.400194 
L 204.833684 288.293963 
L 205.647355 110.70074 
L 206.461025 205.698701 
L 207.274696 149.385751 
L 208.088366 255.890452 
L 208.902037 160.63914 
L 209.715707 192.907321 
L 210.529378 118.305555 
L 211.343049 185.242104 
L 212.156719 216.779172 
L 212.97039 111.101804 
L 213.78406 191.078057 
L 214.597731 236.564613 
L 215.411401 191.06917 
L 216.225072 131.281955 
L 217.038742 198.223461 
L 217.852413 137.703299 
L 218.666083 142.451276 
L 219.479754 269.767755 
L 220.293424 194.01141 
L 221.107095 190.76978 
L 221.920766 191.046433 
L 222.734436 188.700329 
L 223.548107 116.421312 
L 224.361777 187.699135 
L 225.175448 216.308944 
L 225.989118 146.617217 
L 226.802789 194.39466 
L 227.616459 194.535019 
L 228.43013 177.768827 
L 229.2438 295.488 
L 230.057471 97.721473 
L 230.871141 242.016582 
L 231.684812 195.306319 
L 232.498483 192.603123 
L 233.312153 144.774705 
L 234.125824 193.173663 
L 234.939494 137.584835 
L 235.753165 255.752315 
L 236.566835 145.035859 
L 237.380506 144.721872 
L 238.194176 196.808273 
L 239.007847 158.070996 
L 239.821517 127.143659 
L 240.635188 218.685602 
L 241.448859 203.301415 
L 242.262529 194.387061 
L 243.0762 163.514331 
L 243.88987 245.199538 
L 244.703541 197.108988 
L 245.517211 224.685016 
L 246.330882 195.501006 
L 247.144552 245.25236 
L 247.958223 218.445304 
L 248.771893 158.584157 
L 249.585564 199.290938 
L 250.399234 145.81738 
L 251.212905 102.71131 
L 252.026576 194.042312 
L 252.840246 142.622293 
L 253.653917 219.849002 
L 254.467587 151.0092 
L 255.281258 223.10064 
L 256.094928 154.336511 
L 256.908599 196.985842 
L 258.53594 147.77237 
L 259.34961 271.702469 
L 260.163281 174.085901 
L 260.976951 271.643205 
L 261.790622 248.052691 
L 262.604293 201.907682 
L 263.417963 194.052248 
L 264.231634 183.148716 
L 265.045304 201.092103 
L 265.858975 122.670957 
L 266.672645 128.294353 
L 267.486316 202.004099 
L 268.299986 208.136763 
L 269.113657 199.085536 
L 269.927327 259.99293 
L 270.740998 107.634542 
L 272.368339 198.606294 
L 273.18201 222.091218 
L 273.99568 199.031624 
L 274.809351 143.520088 
L 276.436692 259.59407 
L 277.250362 199.700356 
L 278.064033 200.087797 
L 278.877703 196.437519 
L 279.691374 178.56321 
L 280.505044 202.374659 
L 281.318715 200.49943 
L 282.132386 151.923152 
L 282.946056 216.908749 
L 283.759727 190.613711 
L 284.573397 199.277487 
L 285.387068 222.186201 
L 286.200738 189.956464 
L 287.014409 171.079608 
L 287.828079 272.281989 
L 288.64175 202.544177 
L 289.45542 198.993802 
L 290.269091 206.162106 
L 291.082761 177.962413 
L 291.896432 202.594937 
L 292.710103 262.109388 
L 293.523773 175.863124 
L 294.337444 295.488 
L 295.151114 220.141757 
L 295.964785 200.561547 
L 296.778455 111.718935 
L 297.592126 271.904069 
L 298.405796 226.568526 
L 299.219467 130.836855 
L 300.033137 202.225097 
L 300.846808 259.033686 
L 302.474149 151.42042 
L 303.28782 155.041213 
L 304.10149 153.29017 
L 304.915161 154.237251 
L 305.728831 156.174263 
L 306.542502 252.485323 
L 307.356172 249.068678 
L 308.169843 202.541449 
L 308.983513 295.488 
L 309.797184 168.919561 
L 310.610854 224.807965 
L 311.424525 132.921234 
L 312.238195 191.919338 
L 313.051866 157.693504 
L 313.865537 135.880319 
L 314.679207 129.517025 
L 315.492878 182.193533 
L 316.306548 120.767289 
L 317.120219 295.488 
L 317.933889 215.385612 
L 318.74756 260.09546 
L 319.56123 198.411665 
L 320.374901 151.114408 
L 321.188571 295.488 
L 322.002242 208.250607 
L 322.815913 227.853902 
L 323.629583 198.545618 
L 324.443254 193.716488 
L 325.256924 205.651927 
L 326.070595 176.829807 
L 326.884265 166.850124 
L 327.697936 226.505709 
L 329.325277 109.806135 
L 330.138947 141.346504 
L 330.952618 203.160338 
L 331.766288 215.983609 
L 332.579959 272.837374 
L 333.39363 272.481944 
L 334.2073 161.77043 
L 335.020971 252.37497 
L 335.834641 272.202817 
L 336.648312 205.304482 
L 337.461982 156.400003 
L 338.275653 262.260635 
L 339.089323 182.167581 
L 339.902994 205.313315 
L 340.716664 209.390516 
L 341.530335 129.2339 
L 342.344005 189.657536 
L 343.157676 203.541994 
L 343.971347 140.376915 
L 344.785017 259.247531 
L 345.598688 152.853179 
L 346.412358 230.852864 
L 347.226029 186.230357 
L 348.039699 209.367516 
L 348.85337 277.44795 
L 349.66704 205.574371 
L 350.480711 284.500874 
L 351.294381 148.966632 
L 352.108052 239.039824 
L 352.921722 210.498424 
L 353.735393 128.062538 
L 354.549064 189.461864 
L 355.362734 209.660135 
L 356.176405 204.193795 
L 356.990075 284.685804 
L 357.803746 273.323304 
L 358.617416 212.885148 
L 359.431087 209.533219 
L 360.244757 203.627076 
L 361.058428 199.594794 
L 361.872098 276.638348 
L 362.685769 149.863092 
L 363.49944 295.488 
L 364.31311 295.488 
L 365.126781 273.086049 
L 365.940451 273.613957 
L 366.754122 271.985466 
L 367.567792 283.249009 
L 368.381463 208.88459 
L 369.195133 230.674774 
L 370.008804 206.122618 
L 370.822474 161.476467 
L 371.636145 284.764832 
L 372.449815 252.050961 
L 373.263486 208.232135 
L 374.077157 210.526276 
L 374.890827 253.34022 
L 375.704498 208.998356 
L 376.518168 205.2257 
L 377.331839 252.139025 
L 378.145509 230.831508 
L 378.95918 160.160537 
L 379.77285 208.072089 
L 380.586521 140.957111 
L 381.400191 144.27689 
L 382.213862 269.069182 
L 383.027532 144.084333 
L 383.841203 274.372251 
L 384.654874 205.973146 
L 385.468544 205.621796 
L 386.282215 230.519655 
L 387.095885 169.348091 
L 387.909556 228.918112 
L 389.536897 273.996918 
L 390.350567 228.680467 
L 391.164238 205.230217 
L 391.977908 154.753204 
L 392.791579 284.608253 
L 394.41892 196.519333 
L 395.232591 263.187021 
L 396.046261 174.195096 
L 396.859932 249.476988 
L 397.673602 189.349549 
L 398.487273 211.999613 
L 398.487273 211.999613 
" style="fill:none;stroke:#ff7f0e;stroke-linecap:square;stroke-width:1.5;"/>
   </g>
   <g id="patch_3">
    <path d="M 57.6 307.584 
L 57.6 41.472 
" style="fill:none;stroke:#000000;stroke-linecap:square;stroke-linejoin:miter;stroke-width:0.8;"/>
   </g>
   <g id="patch_4">
    <path d="M 414.72 307.584 
L 414.72 41.472 
" style="fill:none;stroke:#000000;stroke-linecap:square;stroke-linejoin:miter;stroke-width:0.8;"/>
   </g>
   <g id="patch_5">
    <path d="M 57.6 307.584 
L 414.72 307.584 
" style="fill:none;stroke:#000000;stroke-linecap:square;stroke-linejoin:miter;stroke-width:0.8;"/>
   </g>
   <g id="patch_6">
    <path d="M 57.6 41.472 
L 414.72 41.472 
" style="fill:none;stroke:#000000;stroke-linecap:square;stroke-linejoin:miter;stroke-width:0.8;"/>
   </g>
   <g id="legend_1">
    <g id="patch_7">
     <path d="M 303.845 78.82825 
L 407.72 78.82825 
Q 409.72 78.82825 409.72 76.82825 
L 409.72 48.472 
Q 409.72 46.472 407.72 46.472 
L 303.845 46.472 
Q 301.845 46.472 301.845 48.472 
L 301.845 76.82825 
Q 301.845 78.82825 303.845 78.82825 
z
" style="fill:#ffffff;opacity:0.8;stroke:#cccccc;stroke-linejoin:miter;"/>
    </g>
    <g id="line2d_19">
     <path d="M 305.845 54.570437 
L 325.845 54.570437 
" style="fill:none;stroke:#1f77b4;stroke-linecap:square;stroke-width:1.5;"/>
    </g>
    <g id="line2d_20"/>
    <g id="text_19">
     <!-- Train loss -->
     <g transform="translate(333.845 58.070437)scale(0.1 -0.1)">
      <defs>
       <path d="M -19 4666 
L 3928 4666 
L 3928 4134 
L 2272 4134 
L 2272 0 
L 1638 0 
L 1638 4134 
L -19 4134 
L -19 4666 
z
" id="DejaVuSans-54" transform="scale(0.015625)"/>
       <path d="M 2631 2963 
Q 2534 3019 2420 3045 
Q 2306 3072 2169 3072 
Q 1681 3072 1420 2755 
Q 1159 2438 1159 1844 
L 1159 0 
L 581 0 
L 581 3500 
L 1159 3500 
L 1159 2956 
Q 1341 3275 1631 3429 
Q 1922 3584 2338 3584 
Q 2397 3584 2469 3576 
Q 2541 3569 2628 3553 
L 2631 2963 
z
" id="DejaVuSans-72" transform="scale(0.015625)"/>
       <path d="M 2194 1759 
Q 1497 1759 1228 1600 
Q 959 1441 959 1056 
Q 959 750 1161 570 
Q 1363 391 1709 391 
Q 2188 391 2477 730 
Q 2766 1069 2766 1631 
L 2766 1759 
L 2194 1759 
z
M 3341 1997 
L 3341 0 
L 2766 0 
L 2766 531 
Q 2569 213 2275 61 
Q 1981 -91 1556 -91 
Q 1019 -91 701 211 
Q 384 513 384 1019 
Q 384 1609 779 1909 
Q 1175 2209 1959 2209 
L 2766 2209 
L 2766 2266 
Q 2766 2663 2505 2880 
Q 2244 3097 1772 3097 
Q 1472 3097 1187 3025 
Q 903 2953 641 2809 
L 641 3341 
Q 956 3463 1253 3523 
Q 1550 3584 1831 3584 
Q 2591 3584 2966 3190 
Q 3341 2797 3341 1997 
z
" id="DejaVuSans-61" transform="scale(0.015625)"/>
       <path d="M 603 3500 
L 1178 3500 
L 1178 0 
L 603 0 
L 603 3500 
z
M 603 4863 
L 1178 4863 
L 1178 4134 
L 603 4134 
L 603 4863 
z
" id="DejaVuSans-69" transform="scale(0.015625)"/>
       <path d="M 3513 2113 
L 3513 0 
L 2938 0 
L 2938 2094 
Q 2938 2591 2744 2837 
Q 2550 3084 2163 3084 
Q 1697 3084 1428 2787 
Q 1159 2491 1159 1978 
L 1159 0 
L 581 0 
L 581 3500 
L 1159 3500 
L 1159 2956 
Q 1366 3272 1645 3428 
Q 1925 3584 2291 3584 
Q 2894 3584 3203 3211 
Q 3513 2838 3513 2113 
z
" id="DejaVuSans-6e" transform="scale(0.015625)"/>
       <path id="DejaVuSans-20" transform="scale(0.015625)"/>
       <path d="M 603 4863 
L 1178 4863 
L 1178 0 
L 603 0 
L 603 4863 
z
" id="DejaVuSans-6c" transform="scale(0.015625)"/>
      </defs>
      <use xlink:href="#DejaVuSans-54"/>
      <use x="46.333984" xlink:href="#DejaVuSans-72"/>
      <use x="87.447266" xlink:href="#DejaVuSans-61"/>
      <use x="148.726562" xlink:href="#DejaVuSans-69"/>
      <use x="176.509766" xlink:href="#DejaVuSans-6e"/>
      <use x="239.888672" xlink:href="#DejaVuSans-20"/>
      <use x="271.675781" xlink:href="#DejaVuSans-6c"/>
      <use x="299.458984" xlink:href="#DejaVuSans-6f"/>
      <use x="360.640625" xlink:href="#DejaVuSans-73"/>
      <use x="412.740234" xlink:href="#DejaVuSans-73"/>
     </g>
    </g>
    <g id="line2d_21">
     <path d="M 305.845 69.248562 
L 325.845 69.248562 
" style="fill:none;stroke:#ff7f0e;stroke-linecap:square;stroke-width:1.5;"/>
    </g>
    <g id="line2d_22"/>
    <g id="text_20">
     <!-- Validation loss -->
     <g transform="translate(333.845 72.748562)scale(0.1 -0.1)">
      <defs>
       <path d="M 1831 0 
L 50 4666 
L 709 4666 
L 2188 738 
L 3669 4666 
L 4325 4666 
L 2547 0 
L 1831 0 
z
" id="DejaVuSans-56" transform="scale(0.015625)"/>
       <path d="M 2906 2969 
L 2906 4863 
L 3481 4863 
L 3481 0 
L 2906 0 
L 2906 525 
Q 2725 213 2448 61 
Q 2172 -91 1784 -91 
Q 1150 -91 751 415 
Q 353 922 353 1747 
Q 353 2572 751 3078 
Q 1150 3584 1784 3584 
Q 2172 3584 2448 3432 
Q 2725 3281 2906 2969 
z
M 947 1747 
Q 947 1113 1208 752 
Q 1469 391 1925 391 
Q 2381 391 2643 752 
Q 2906 1113 2906 1747 
Q 2906 2381 2643 2742 
Q 2381 3103 1925 3103 
Q 1469 3103 1208 2742 
Q 947 2381 947 1747 
z
" id="DejaVuSans-64" transform="scale(0.015625)"/>
       <path d="M 1172 4494 
L 1172 3500 
L 2356 3500 
L 2356 3053 
L 1172 3053 
L 1172 1153 
Q 1172 725 1289 603 
Q 1406 481 1766 481 
L 2356 481 
L 2356 0 
L 1766 0 
Q 1100 0 847 248 
Q 594 497 594 1153 
L 594 3053 
L 172 3053 
L 172 3500 
L 594 3500 
L 594 4494 
L 1172 4494 
z
" id="DejaVuSans-74" transform="scale(0.015625)"/>
      </defs>
      <use xlink:href="#DejaVuSans-56"/>
      <use x="60.658203" xlink:href="#DejaVuSans-61"/>
      <use x="121.9375" xlink:href="#DejaVuSans-6c"/>
      <use x="149.720703" xlink:href="#DejaVuSans-69"/>
      <use x="177.503906" xlink:href="#DejaVuSans-64"/>
      <use x="240.980469" xlink:href="#DejaVuSans-61"/>
      <use x="302.259766" xlink:href="#DejaVuSans-74"/>
      <use x="341.46875" xlink:href="#DejaVuSans-69"/>
      <use x="369.251953" xlink:href="#DejaVuSans-6f"/>
      <use x="430.433594" xlink:href="#DejaVuSans-6e"/>
      <use x="493.8125" xlink:href="#DejaVuSans-20"/>
      <use x="525.599609" xlink:href="#DejaVuSans-6c"/>
      <use x="553.382812" xlink:href="#DejaVuSans-6f"/>
      <use x="614.564453" xlink:href="#DejaVuSans-73"/>
      <use x="666.664062" xlink:href="#DejaVuSans-73"/>
     </g>
    </g>
   </g>
  </g>
 </g>
 <defs>
  <clipPath id="p6108685963">
   <rect height="266.112" width="357.12" x="57.6" y="41.472"/>
  </clipPath>
 </defs>
</svg>
