<?xml version="1.0" encoding="utf-8" standalone="no"?>
<!DOCTYPE svg PUBLIC "-//W3C//DTD SVG 1.1//EN"
  "http://www.w3.org/Graphics/SVG/1.1/DTD/svg11.dtd">
<svg height="345.6pt" version="1.1" viewBox="0 0 460.8 345.6" width="460.8pt" xmlns="http://www.w3.org/2000/svg" xmlns:xlink="http://www.w3.org/1999/xlink">
 <metadata>
  <rdf:RDF xmlns:cc="http://creativecommons.org/ns#" xmlns:dc="http://purl.org/dc/elements/1.1/" xmlns:rdf="http://www.w3.org/1999/02/22-rdf-syntax-ns#">
   <cc:Work>
    <dc:type rdf:resource="http://purl.org/dc/dcmitype/StillImage"/>
    <dc:date>2021-07-16T02:48:13.530996</dc:date>
    <dc:format>image/svg+xml</dc:format>
    <dc:creator>
     <cc:Agent>
      <dc:title>Matplotlib v3.4.2, https://matplotlib.org/</dc:title>
     </cc:Agent>
    </dc:creator>
   </cc:Work>
  </rdf:RDF>
 </metadata>
 <defs>
  <style type="text/css">*{stroke-linecap:butt;stroke-linejoin:round;}</style>
 </defs>
 <g id="figure_1">
  <g id="patch_1">
   <path d="M 0 345.6 
L 460.8 345.6 
L 460.8 0 
L 0 0 
z
" style="fill:#ffffff;"/>
  </g>
  <g id="axes_1">
   <g id="patch_2">
    <path d="M 57.6 307.584 
L 414.72 307.584 
L 414.72 41.472 
L 57.6 41.472 
z
" style="fill:#ffffff;"/>
   </g>
   <g id="matplotlib.axis_1">
    <g id="xtick_1">
     <g id="line2d_1">
      <defs>
       <path d="M 0 0 
L 0 3.5 
" id="m7be5fd39b9" style="stroke:#000000;stroke-width:0.8;"/>
      </defs>
      <g>
       <use style="stroke:#000000;stroke-width:0.8;" x="73.019057" xlink:href="#m7be5fd39b9" y="307.584"/>
      </g>
     </g>
     <g id="text_1">
      <!-- 0 -->
      <g transform="translate(69.837807 322.182437)scale(0.1 -0.1)">
       <defs>
        <path d="M 2034 4250 
Q 1547 4250 1301 3770 
Q 1056 3291 1056 2328 
Q 1056 1369 1301 889 
Q 1547 409 2034 409 
Q 2525 409 2770 889 
Q 3016 1369 3016 2328 
Q 3016 3291 2770 3770 
Q 2525 4250 2034 4250 
z
M 2034 4750 
Q 2819 4750 3233 4129 
Q 3647 3509 3647 2328 
Q 3647 1150 3233 529 
Q 2819 -91 2034 -91 
Q 1250 -91 836 529 
Q 422 1150 422 2328 
Q 422 3509 836 4129 
Q 1250 4750 2034 4750 
z
" id="DejaVuSans-30" transform="scale(0.015625)"/>
       </defs>
       <use xlink:href="#DejaVuSans-30"/>
      </g>
     </g>
    </g>
    <g id="xtick_2">
     <g id="line2d_2">
      <g>
       <use style="stroke:#000000;stroke-width:0.8;" x="113.702584" xlink:href="#m7be5fd39b9" y="307.584"/>
      </g>
     </g>
     <g id="text_2">
      <!-- 50 -->
      <g transform="translate(107.340084 322.182437)scale(0.1 -0.1)">
       <defs>
        <path d="M 691 4666 
L 3169 4666 
L 3169 4134 
L 1269 4134 
L 1269 2991 
Q 1406 3038 1543 3061 
Q 1681 3084 1819 3084 
Q 2600 3084 3056 2656 
Q 3513 2228 3513 1497 
Q 3513 744 3044 326 
Q 2575 -91 1722 -91 
Q 1428 -91 1123 -41 
Q 819 9 494 109 
L 494 744 
Q 775 591 1075 516 
Q 1375 441 1709 441 
Q 2250 441 2565 725 
Q 2881 1009 2881 1497 
Q 2881 1984 2565 2268 
Q 2250 2553 1709 2553 
Q 1456 2553 1204 2497 
Q 953 2441 691 2322 
L 691 4666 
z
" id="DejaVuSans-35" transform="scale(0.015625)"/>
       </defs>
       <use xlink:href="#DejaVuSans-35"/>
       <use x="63.623047" xlink:href="#DejaVuSans-30"/>
      </g>
     </g>
    </g>
    <g id="xtick_3">
     <g id="line2d_3">
      <g>
       <use style="stroke:#000000;stroke-width:0.8;" x="154.386111" xlink:href="#m7be5fd39b9" y="307.584"/>
      </g>
     </g>
     <g id="text_3">
      <!-- 100 -->
      <g transform="translate(144.842361 322.182437)scale(0.1 -0.1)">
       <defs>
        <path d="M 794 531 
L 1825 531 
L 1825 4091 
L 703 3866 
L 703 4441 
L 1819 4666 
L 2450 4666 
L 2450 531 
L 3481 531 
L 3481 0 
L 794 0 
L 794 531 
z
" id="DejaVuSans-31" transform="scale(0.015625)"/>
       </defs>
       <use xlink:href="#DejaVuSans-31"/>
       <use x="63.623047" xlink:href="#DejaVuSans-30"/>
       <use x="127.246094" xlink:href="#DejaVuSans-30"/>
      </g>
     </g>
    </g>
    <g id="xtick_4">
     <g id="line2d_4">
      <g>
       <use style="stroke:#000000;stroke-width:0.8;" x="195.069638" xlink:href="#m7be5fd39b9" y="307.584"/>
      </g>
     </g>
     <g id="text_4">
      <!-- 150 -->
      <g transform="translate(185.525888 322.182437)scale(0.1 -0.1)">
       <use xlink:href="#DejaVuSans-31"/>
       <use x="63.623047" xlink:href="#DejaVuSans-35"/>
       <use x="127.246094" xlink:href="#DejaVuSans-30"/>
      </g>
     </g>
    </g>
    <g id="xtick_5">
     <g id="line2d_5">
      <g>
       <use style="stroke:#000000;stroke-width:0.8;" x="235.753165" xlink:href="#m7be5fd39b9" y="307.584"/>
      </g>
     </g>
     <g id="text_5">
      <!-- 200 -->
      <g transform="translate(226.209415 322.182437)scale(0.1 -0.1)">
       <defs>
        <path d="M 1228 531 
L 3431 531 
L 3431 0 
L 469 0 
L 469 531 
Q 828 903 1448 1529 
Q 2069 2156 2228 2338 
Q 2531 2678 2651 2914 
Q 2772 3150 2772 3378 
Q 2772 3750 2511 3984 
Q 2250 4219 1831 4219 
Q 1534 4219 1204 4116 
Q 875 4013 500 3803 
L 500 4441 
Q 881 4594 1212 4672 
Q 1544 4750 1819 4750 
Q 2544 4750 2975 4387 
Q 3406 4025 3406 3419 
Q 3406 3131 3298 2873 
Q 3191 2616 2906 2266 
Q 2828 2175 2409 1742 
Q 1991 1309 1228 531 
z
" id="DejaVuSans-32" transform="scale(0.015625)"/>
       </defs>
       <use xlink:href="#DejaVuSans-32"/>
       <use x="63.623047" xlink:href="#DejaVuSans-30"/>
       <use x="127.246094" xlink:href="#DejaVuSans-30"/>
      </g>
     </g>
    </g>
    <g id="xtick_6">
     <g id="line2d_6">
      <g>
       <use style="stroke:#000000;stroke-width:0.8;" x="276.436692" xlink:href="#m7be5fd39b9" y="307.584"/>
      </g>
     </g>
     <g id="text_6">
      <!-- 250 -->
      <g transform="translate(266.892942 322.182437)scale(0.1 -0.1)">
       <use xlink:href="#DejaVuSans-32"/>
       <use x="63.623047" xlink:href="#DejaVuSans-35"/>
       <use x="127.246094" xlink:href="#DejaVuSans-30"/>
      </g>
     </g>
    </g>
    <g id="xtick_7">
     <g id="line2d_7">
      <g>
       <use style="stroke:#000000;stroke-width:0.8;" x="317.120219" xlink:href="#m7be5fd39b9" y="307.584"/>
      </g>
     </g>
     <g id="text_7">
      <!-- 300 -->
      <g transform="translate(307.576469 322.182437)scale(0.1 -0.1)">
       <defs>
        <path d="M 2597 2516 
Q 3050 2419 3304 2112 
Q 3559 1806 3559 1356 
Q 3559 666 3084 287 
Q 2609 -91 1734 -91 
Q 1441 -91 1130 -33 
Q 819 25 488 141 
L 488 750 
Q 750 597 1062 519 
Q 1375 441 1716 441 
Q 2309 441 2620 675 
Q 2931 909 2931 1356 
Q 2931 1769 2642 2001 
Q 2353 2234 1838 2234 
L 1294 2234 
L 1294 2753 
L 1863 2753 
Q 2328 2753 2575 2939 
Q 2822 3125 2822 3475 
Q 2822 3834 2567 4026 
Q 2313 4219 1838 4219 
Q 1578 4219 1281 4162 
Q 984 4106 628 3988 
L 628 4550 
Q 988 4650 1302 4700 
Q 1616 4750 1894 4750 
Q 2613 4750 3031 4423 
Q 3450 4097 3450 3541 
Q 3450 3153 3228 2886 
Q 3006 2619 2597 2516 
z
" id="DejaVuSans-33" transform="scale(0.015625)"/>
       </defs>
       <use xlink:href="#DejaVuSans-33"/>
       <use x="63.623047" xlink:href="#DejaVuSans-30"/>
       <use x="127.246094" xlink:href="#DejaVuSans-30"/>
      </g>
     </g>
    </g>
    <g id="xtick_8">
     <g id="line2d_8">
      <g>
       <use style="stroke:#000000;stroke-width:0.8;" x="357.803746" xlink:href="#m7be5fd39b9" y="307.584"/>
      </g>
     </g>
     <g id="text_8">
      <!-- 350 -->
      <g transform="translate(348.259996 322.182437)scale(0.1 -0.1)">
       <use xlink:href="#DejaVuSans-33"/>
       <use x="63.623047" xlink:href="#DejaVuSans-35"/>
       <use x="127.246094" xlink:href="#DejaVuSans-30"/>
      </g>
     </g>
    </g>
    <g id="xtick_9">
     <g id="line2d_9">
      <g>
       <use style="stroke:#000000;stroke-width:0.8;" x="398.487273" xlink:href="#m7be5fd39b9" y="307.584"/>
      </g>
     </g>
     <g id="text_9">
      <!-- 400 -->
      <g transform="translate(388.943523 322.182437)scale(0.1 -0.1)">
       <defs>
        <path d="M 2419 4116 
L 825 1625 
L 2419 1625 
L 2419 4116 
z
M 2253 4666 
L 3047 4666 
L 3047 1625 
L 3713 1625 
L 3713 1100 
L 3047 1100 
L 3047 0 
L 2419 0 
L 2419 1100 
L 313 1100 
L 313 1709 
L 2253 4666 
z
" id="DejaVuSans-34" transform="scale(0.015625)"/>
       </defs>
       <use xlink:href="#DejaVuSans-34"/>
       <use x="63.623047" xlink:href="#DejaVuSans-30"/>
       <use x="127.246094" xlink:href="#DejaVuSans-30"/>
      </g>
     </g>
    </g>
    <g id="text_10">
     <!-- Epoch -->
     <g transform="translate(213.193594 339.659781)scale(0.15 -0.15)">
      <defs>
       <path d="M 628 4666 
L 3578 4666 
L 3578 4134 
L 1259 4134 
L 1259 2753 
L 3481 2753 
L 3481 2222 
L 1259 2222 
L 1259 531 
L 3634 531 
L 3634 0 
L 628 0 
L 628 4666 
z
" id="DejaVuSans-45" transform="scale(0.015625)"/>
       <path d="M 1159 525 
L 1159 -1331 
L 581 -1331 
L 581 3500 
L 1159 3500 
L 1159 2969 
Q 1341 3281 1617 3432 
Q 1894 3584 2278 3584 
Q 2916 3584 3314 3078 
Q 3713 2572 3713 1747 
Q 3713 922 3314 415 
Q 2916 -91 2278 -91 
Q 1894 -91 1617 61 
Q 1341 213 1159 525 
z
M 3116 1747 
Q 3116 2381 2855 2742 
Q 2594 3103 2138 3103 
Q 1681 3103 1420 2742 
Q 1159 2381 1159 1747 
Q 1159 1113 1420 752 
Q 1681 391 2138 391 
Q 2594 391 2855 752 
Q 3116 1113 3116 1747 
z
" id="DejaVuSans-70" transform="scale(0.015625)"/>
       <path d="M 1959 3097 
Q 1497 3097 1228 2736 
Q 959 2375 959 1747 
Q 959 1119 1226 758 
Q 1494 397 1959 397 
Q 2419 397 2687 759 
Q 2956 1122 2956 1747 
Q 2956 2369 2687 2733 
Q 2419 3097 1959 3097 
z
M 1959 3584 
Q 2709 3584 3137 3096 
Q 3566 2609 3566 1747 
Q 3566 888 3137 398 
Q 2709 -91 1959 -91 
Q 1206 -91 779 398 
Q 353 888 353 1747 
Q 353 2609 779 3096 
Q 1206 3584 1959 3584 
z
" id="DejaVuSans-6f" transform="scale(0.015625)"/>
       <path d="M 3122 3366 
L 3122 2828 
Q 2878 2963 2633 3030 
Q 2388 3097 2138 3097 
Q 1578 3097 1268 2742 
Q 959 2388 959 1747 
Q 959 1106 1268 751 
Q 1578 397 2138 397 
Q 2388 397 2633 464 
Q 2878 531 3122 666 
L 3122 134 
Q 2881 22 2623 -34 
Q 2366 -91 2075 -91 
Q 1284 -91 818 406 
Q 353 903 353 1747 
Q 353 2603 823 3093 
Q 1294 3584 2113 3584 
Q 2378 3584 2631 3529 
Q 2884 3475 3122 3366 
z
" id="DejaVuSans-63" transform="scale(0.015625)"/>
       <path d="M 3513 2113 
L 3513 0 
L 2938 0 
L 2938 2094 
Q 2938 2591 2744 2837 
Q 2550 3084 2163 3084 
Q 1697 3084 1428 2787 
Q 1159 2491 1159 1978 
L 1159 0 
L 581 0 
L 581 4863 
L 1159 4863 
L 1159 2956 
Q 1366 3272 1645 3428 
Q 1925 3584 2291 3584 
Q 2894 3584 3203 3211 
Q 3513 2838 3513 2113 
z
" id="DejaVuSans-68" transform="scale(0.015625)"/>
      </defs>
      <use xlink:href="#DejaVuSans-45"/>
      <use x="63.183594" xlink:href="#DejaVuSans-70"/>
      <use x="126.660156" xlink:href="#DejaVuSans-6f"/>
      <use x="187.841797" xlink:href="#DejaVuSans-63"/>
      <use x="242.822266" xlink:href="#DejaVuSans-68"/>
     </g>
    </g>
   </g>
   <g id="matplotlib.axis_2">
    <g id="ytick_1">
     <g id="line2d_10">
      <defs>
       <path d="M 0 0 
L -3.5 0 
" id="m0ee9e5289b" style="stroke:#000000;stroke-width:0.8;"/>
      </defs>
      <g>
       <use style="stroke:#000000;stroke-width:0.8;" x="57.6" xlink:href="#m0ee9e5289b" y="305.230904"/>
      </g>
     </g>
     <g id="text_11">
      <!-- −1200 -->
      <g transform="translate(16.770313 309.030123)scale(0.1 -0.1)">
       <defs>
        <path d="M 678 2272 
L 4684 2272 
L 4684 1741 
L 678 1741 
L 678 2272 
z
" id="DejaVuSans-2212" transform="scale(0.015625)"/>
       </defs>
       <use xlink:href="#DejaVuSans-2212"/>
       <use x="83.789062" xlink:href="#DejaVuSans-31"/>
       <use x="147.412109" xlink:href="#DejaVuSans-32"/>
       <use x="211.035156" xlink:href="#DejaVuSans-30"/>
       <use x="274.658203" xlink:href="#DejaVuSans-30"/>
      </g>
     </g>
    </g>
    <g id="ytick_2">
     <g id="line2d_11">
      <g>
       <use style="stroke:#000000;stroke-width:0.8;" x="57.6" xlink:href="#m0ee9e5289b" y="258.865949"/>
      </g>
     </g>
     <g id="text_12">
      <!-- −1000 -->
      <g transform="translate(16.770313 262.665168)scale(0.1 -0.1)">
       <use xlink:href="#DejaVuSans-2212"/>
       <use x="83.789062" xlink:href="#DejaVuSans-31"/>
       <use x="147.412109" xlink:href="#DejaVuSans-30"/>
       <use x="211.035156" xlink:href="#DejaVuSans-30"/>
       <use x="274.658203" xlink:href="#DejaVuSans-30"/>
      </g>
     </g>
    </g>
    <g id="ytick_3">
     <g id="line2d_12">
      <g>
       <use style="stroke:#000000;stroke-width:0.8;" x="57.6" xlink:href="#m0ee9e5289b" y="212.500995"/>
      </g>
     </g>
     <g id="text_13">
      <!-- −800 -->
      <g transform="translate(23.132812 216.300213)scale(0.1 -0.1)">
       <defs>
        <path d="M 2034 2216 
Q 1584 2216 1326 1975 
Q 1069 1734 1069 1313 
Q 1069 891 1326 650 
Q 1584 409 2034 409 
Q 2484 409 2743 651 
Q 3003 894 3003 1313 
Q 3003 1734 2745 1975 
Q 2488 2216 2034 2216 
z
M 1403 2484 
Q 997 2584 770 2862 
Q 544 3141 544 3541 
Q 544 4100 942 4425 
Q 1341 4750 2034 4750 
Q 2731 4750 3128 4425 
Q 3525 4100 3525 3541 
Q 3525 3141 3298 2862 
Q 3072 2584 2669 2484 
Q 3125 2378 3379 2068 
Q 3634 1759 3634 1313 
Q 3634 634 3220 271 
Q 2806 -91 2034 -91 
Q 1263 -91 848 271 
Q 434 634 434 1313 
Q 434 1759 690 2068 
Q 947 2378 1403 2484 
z
M 1172 3481 
Q 1172 3119 1398 2916 
Q 1625 2713 2034 2713 
Q 2441 2713 2670 2916 
Q 2900 3119 2900 3481 
Q 2900 3844 2670 4047 
Q 2441 4250 2034 4250 
Q 1625 4250 1398 4047 
Q 1172 3844 1172 3481 
z
" id="DejaVuSans-38" transform="scale(0.015625)"/>
       </defs>
       <use xlink:href="#DejaVuSans-2212"/>
       <use x="83.789062" xlink:href="#DejaVuSans-38"/>
       <use x="147.412109" xlink:href="#DejaVuSans-30"/>
       <use x="211.035156" xlink:href="#DejaVuSans-30"/>
      </g>
     </g>
    </g>
    <g id="ytick_4">
     <g id="line2d_13">
      <g>
       <use style="stroke:#000000;stroke-width:0.8;" x="57.6" xlink:href="#m0ee9e5289b" y="166.13604"/>
      </g>
     </g>
     <g id="text_14">
      <!-- −600 -->
      <g transform="translate(23.132812 169.935259)scale(0.1 -0.1)">
       <defs>
        <path d="M 2113 2584 
Q 1688 2584 1439 2293 
Q 1191 2003 1191 1497 
Q 1191 994 1439 701 
Q 1688 409 2113 409 
Q 2538 409 2786 701 
Q 3034 994 3034 1497 
Q 3034 2003 2786 2293 
Q 2538 2584 2113 2584 
z
M 3366 4563 
L 3366 3988 
Q 3128 4100 2886 4159 
Q 2644 4219 2406 4219 
Q 1781 4219 1451 3797 
Q 1122 3375 1075 2522 
Q 1259 2794 1537 2939 
Q 1816 3084 2150 3084 
Q 2853 3084 3261 2657 
Q 3669 2231 3669 1497 
Q 3669 778 3244 343 
Q 2819 -91 2113 -91 
Q 1303 -91 875 529 
Q 447 1150 447 2328 
Q 447 3434 972 4092 
Q 1497 4750 2381 4750 
Q 2619 4750 2861 4703 
Q 3103 4656 3366 4563 
z
" id="DejaVuSans-36" transform="scale(0.015625)"/>
       </defs>
       <use xlink:href="#DejaVuSans-2212"/>
       <use x="83.789062" xlink:href="#DejaVuSans-36"/>
       <use x="147.412109" xlink:href="#DejaVuSans-30"/>
       <use x="211.035156" xlink:href="#DejaVuSans-30"/>
      </g>
     </g>
    </g>
    <g id="ytick_5">
     <g id="line2d_14">
      <g>
       <use style="stroke:#000000;stroke-width:0.8;" x="57.6" xlink:href="#m0ee9e5289b" y="119.771085"/>
      </g>
     </g>
     <g id="text_15">
      <!-- −400 -->
      <g transform="translate(23.132812 123.570304)scale(0.1 -0.1)">
       <use xlink:href="#DejaVuSans-2212"/>
       <use x="83.789062" xlink:href="#DejaVuSans-34"/>
       <use x="147.412109" xlink:href="#DejaVuSans-30"/>
       <use x="211.035156" xlink:href="#DejaVuSans-30"/>
      </g>
     </g>
    </g>
    <g id="ytick_6">
     <g id="line2d_15">
      <g>
       <use style="stroke:#000000;stroke-width:0.8;" x="57.6" xlink:href="#m0ee9e5289b" y="73.40613"/>
      </g>
     </g>
     <g id="text_16">
      <!-- −200 -->
      <g transform="translate(23.132812 77.205349)scale(0.1 -0.1)">
       <use xlink:href="#DejaVuSans-2212"/>
       <use x="83.789062" xlink:href="#DejaVuSans-32"/>
       <use x="147.412109" xlink:href="#DejaVuSans-30"/>
       <use x="211.035156" xlink:href="#DejaVuSans-30"/>
      </g>
     </g>
    </g>
    <g id="text_17">
     <!-- Loss -->
     <g transform="translate(9.650781 190.978781)rotate(-90)scale(0.15 -0.15)">
      <defs>
       <path d="M 628 4666 
L 1259 4666 
L 1259 531 
L 3531 531 
L 3531 0 
L 628 0 
L 628 4666 
z
" id="DejaVuSans-4c" transform="scale(0.015625)"/>
       <path d="M 2834 3397 
L 2834 2853 
Q 2591 2978 2328 3040 
Q 2066 3103 1784 3103 
Q 1356 3103 1142 2972 
Q 928 2841 928 2578 
Q 928 2378 1081 2264 
Q 1234 2150 1697 2047 
L 1894 2003 
Q 2506 1872 2764 1633 
Q 3022 1394 3022 966 
Q 3022 478 2636 193 
Q 2250 -91 1575 -91 
Q 1294 -91 989 -36 
Q 684 19 347 128 
L 347 722 
Q 666 556 975 473 
Q 1284 391 1588 391 
Q 1994 391 2212 530 
Q 2431 669 2431 922 
Q 2431 1156 2273 1281 
Q 2116 1406 1581 1522 
L 1381 1569 
Q 847 1681 609 1914 
Q 372 2147 372 2553 
Q 372 3047 722 3315 
Q 1072 3584 1716 3584 
Q 2034 3584 2315 3537 
Q 2597 3491 2834 3397 
z
" id="DejaVuSans-73" transform="scale(0.015625)"/>
      </defs>
      <use xlink:href="#DejaVuSans-4c"/>
      <use x="53.962891" xlink:href="#DejaVuSans-6f"/>
      <use x="115.144531" xlink:href="#DejaVuSans-73"/>
      <use x="167.244141" xlink:href="#DejaVuSans-73"/>
     </g>
    </g>
   </g>
   <g id="line2d_16">
    <path clip-path="url(#pb960c8cec8)" d="M 73.832727 53.568 
L 74.646398 105.268861 
L 75.460068 122.113273 
L 76.273739 124.771203 
L 77.087409 133.823072 
L 77.90108 151.950089 
L 78.714751 161.905952 
L 79.528421 160.496416 
L 80.342092 164.522213 
L 81.155762 182.838342 
L 81.969433 166.721362 
L 82.783103 180.148539 
L 83.596774 200.659114 
L 84.410444 198.940688 
L 85.224115 207.482132 
L 86.037785 200.790563 
L 86.851456 202.647034 
L 87.665126 211.918433 
L 88.478797 211.871776 
L 89.292468 214.229265 
L 90.106138 206.426218 
L 90.919809 219.44699 
L 91.733479 207.950874 
L 92.54715 217.750045 
L 93.36082 216.915188 
L 94.174491 228.100919 
L 94.988161 220.165389 
L 96.615502 230.792921 
L 97.429173 217.241349 
L 98.242843 229.383478 
L 99.056514 220.842467 
L 99.870185 215.682198 
L 100.683855 226.785602 
L 101.497526 228.07557 
L 102.311196 229.130562 
L 103.124867 229.456645 
L 103.938537 219.732516 
L 104.752208 237.279245 
L 105.565878 228.412511 
L 106.379549 225.752824 
L 107.193219 230.22741 
L 108.00689 232.255038 
L 108.82056 232.418367 
L 109.634231 215.122193 
L 110.447902 245.34703 
L 111.261572 243.062602 
L 112.075243 235.038063 
L 112.888913 235.074552 
L 113.702584 233.212026 
L 114.516254 244.56418 
L 115.329925 238.606685 
L 116.143595 245.594031 
L 116.957266 243.319436 
L 117.770936 246.425603 
L 118.584607 240.225371 
L 119.398278 247.975475 
L 120.211948 240.601708 
L 121.025619 244.566659 
L 121.839289 238.487949 
L 122.65296 246.224905 
L 123.46663 258.309186 
L 124.280301 246.497174 
L 125.093971 247.573332 
L 125.907642 247.59929 
L 126.721312 224.367276 
L 127.534983 240.238567 
L 128.348653 245.449449 
L 129.162324 249.064074 
L 129.975995 250.835074 
L 130.789665 230.513033 
L 131.603336 233.012579 
L 132.417006 238.16086 
L 133.230677 244.133492 
L 134.044347 242.197977 
L 134.858018 239.866462 
L 135.671688 240.821276 
L 136.485359 230.028815 
L 137.299029 244.658453 
L 138.1127 252.162039 
L 138.92637 244.76777 
L 139.740041 235.525373 
L 140.553712 244.153129 
L 141.367382 245.536406 
L 142.181053 244.878226 
L 143.808394 232.124835 
L 144.622064 238.41317 
L 145.435735 233.99997 
L 146.249405 247.690706 
L 147.063076 247.961439 
L 147.876746 242.446399 
L 148.690417 246.863716 
L 149.504087 237.822084 
L 150.317758 260.603175 
L 151.131429 238.118002 
L 151.945099 254.883217 
L 152.75877 264.357928 
L 154.386111 246.835942 
L 155.199781 268.174114 
L 156.013452 244.050251 
L 156.827122 244.276623 
L 157.640793 242.156182 
L 158.454463 250.324749 
L 159.268134 242.350326 
L 160.081805 243.113692 
L 160.895475 272.464824 
L 161.709146 260.593154 
L 162.522816 252.978137 
L 163.336487 254.645361 
L 164.150157 252.779911 
L 164.963828 256.6538 
L 165.777498 257.235982 
L 166.591169 254.075994 
L 167.404839 252.86493 
L 168.21851 240.78482 
L 169.03218 245.681236 
L 169.845851 259.654452 
L 170.659522 259.875964 
L 171.473192 248.101938 
L 172.286863 258.838265 
L 173.100533 247.932486 
L 173.914204 246.127019 
L 174.727874 263.720084 
L 175.541545 249.032269 
L 176.355215 252.482818 
L 177.168886 259.816949 
L 177.982556 281.099593 
L 178.796227 263.051131 
L 179.609897 248.930583 
L 180.423568 259.733538 
L 181.237239 253.070657 
L 182.050909 254.123185 
L 182.86458 244.451476 
L 183.67825 247.79957 
L 184.491921 270.162902 
L 185.305591 256.499652 
L 186.119262 267.294928 
L 186.932932 266.494291 
L 187.746603 254.305461 
L 188.560273 258.520585 
L 189.373944 247.69425 
L 190.187614 259.098694 
L 191.001285 272.36176 
L 191.814956 254.3348 
L 192.628626 256.821237 
L 193.442297 245.685725 
L 194.255967 263.701527 
L 195.069638 263.029908 
L 195.883308 266.051661 
L 196.696979 273.505912 
L 197.510649 252.819114 
L 198.32432 243.05818 
L 199.13799 250.684443 
L 199.951661 262.995282 
L 200.765332 269.112058 
L 201.579002 283.104262 
L 202.392673 261.171802 
L 203.206343 261.270494 
L 204.020014 257.529824 
L 204.833684 251.658501 
L 205.647355 256.446614 
L 206.461025 254.1134 
L 207.274696 258.035912 
L 208.088366 254.178407 
L 208.902037 270.279912 
L 209.715707 268.583031 
L 210.529378 269.692094 
L 211.343049 257.038697 
L 212.156719 260.824145 
L 212.97039 261.25068 
L 213.78406 250.935462 
L 214.597731 249.388347 
L 216.225072 271.475606 
L 217.038742 279.133306 
L 217.852413 250.173571 
L 218.666083 261.311429 
L 219.479754 269.718695 
L 221.107095 262.921723 
L 221.920766 248.123222 
L 223.548107 275.686781 
L 224.361777 267.056104 
L 225.175448 260.064871 
L 225.989118 251.550508 
L 226.802789 257.699949 
L 227.616459 257.043493 
L 228.43013 275.264827 
L 229.2438 272.974357 
L 230.057471 267.358268 
L 230.871141 275.000794 
L 231.684812 265.402084 
L 232.498483 270.309814 
L 233.312153 256.887369 
L 234.125824 267.567846 
L 234.939494 272.65323 
L 235.753165 258.896007 
L 236.566835 280.827261 
L 237.380506 270.386386 
L 238.194176 240.939276 
L 239.007847 262.786254 
L 239.821517 263.369873 
L 240.635188 268.454926 
L 241.448859 265.169876 
L 242.262529 263.493858 
L 243.0762 262.921831 
L 243.88987 251.575394 
L 244.703541 268.744275 
L 245.517211 270.936417 
L 246.330882 266.035147 
L 247.144552 249.106946 
L 247.958223 277.861766 
L 248.771893 258.05958 
L 249.585564 270.650242 
L 250.399234 251.083441 
L 251.212905 262.796166 
L 252.026576 260.279417 
L 252.840246 266.067785 
L 253.653917 273.150622 
L 254.467587 268.235187 
L 255.281258 276.28716 
L 256.094928 260.817692 
L 256.908599 264.708065 
L 257.722269 266.751586 
L 258.53594 249.819056 
L 259.34961 264.135218 
L 260.163281 276.207574 
L 260.976951 249.487287 
L 261.790622 281.987738 
L 262.604293 274.582578 
L 263.417963 285.310602 
L 264.231634 258.224795 
L 265.045304 268.161524 
L 265.858975 275.083889 
L 266.672645 259.1417 
L 267.486316 268.015153 
L 268.299986 260.510563 
L 269.113657 271.191875 
L 269.927327 275.171859 
L 270.740998 264.053602 
L 271.554668 272.618134 
L 272.368339 254.326351 
L 273.18201 274.072628 
L 273.99568 257.687162 
L 274.809351 277.611212 
L 275.623021 257.329953 
L 276.436692 275.226817 
L 277.250362 273.303502 
L 278.064033 284.203424 
L 278.877703 276.003935 
L 279.691374 260.738205 
L 280.505044 279.017707 
L 281.318715 269.774991 
L 282.132386 263.667504 
L 282.946056 271.580777 
L 283.759727 273.999789 
L 284.573397 273.139069 
L 285.387068 274.367846 
L 286.200738 252.217018 
L 287.014409 273.229639 
L 287.828079 260.344103 
L 288.64175 271.836172 
L 289.45542 271.036519 
L 290.269091 277.380302 
L 291.082761 267.13278 
L 291.896432 254.336953 
L 292.710103 292.738866 
L 293.523773 277.809281 
L 294.337444 271.901158 
L 295.151114 283.756911 
L 295.964785 270.502544 
L 296.778455 264.685791 
L 297.592126 275.623074 
L 298.405796 266.283439 
L 299.219467 274.749578 
L 300.033137 278.597478 
L 300.846808 255.327242 
L 301.660478 274.418434 
L 302.474149 256.609444 
L 303.28782 277.359605 
L 304.10149 276.631186 
L 304.915161 283.338304 
L 305.728831 272.09226 
L 306.542502 264.65251 
L 307.356172 278.564425 
L 308.169843 279.56188 
L 308.983513 266.522722 
L 309.797184 268.762955 
L 310.610854 281.407393 
L 311.424525 257.965968 
L 312.238195 273.730725 
L 313.051866 263.52491 
L 314.679207 280.43431 
L 315.492878 288.169253 
L 316.306548 245.0734 
L 317.120219 254.909857 
L 317.933889 274.527689 
L 318.74756 278.161656 
L 319.56123 262.67412 
L 320.374901 254.835456 
L 321.188571 256.263735 
L 322.002242 268.992578 
L 322.815913 269.961726 
L 323.629583 262.746438 
L 324.443254 284.383167 
L 325.256924 276.67185 
L 326.070595 280.1656 
L 326.884265 276.782361 
L 327.697936 265.683481 
L 328.511606 265.932869 
L 329.325277 270.242695 
L 330.138947 261.517025 
L 330.952618 280.339869 
L 331.766288 274.983187 
L 332.579959 278.878225 
L 333.39363 270.555412 
L 334.2073 270.132175 
L 335.020971 275.219033 
L 335.834641 264.168667 
L 336.648312 273.593492 
L 337.461982 265.22211 
L 338.275653 267.469257 
L 339.089323 268.257532 
L 340.716664 286.560394 
L 341.530335 272.93922 
L 342.344005 276.153939 
L 343.157676 272.22829 
L 343.971347 286.47387 
L 344.785017 259.605673 
L 345.598688 277.030015 
L 346.412358 278.236276 
L 347.226029 270.02293 
L 348.039699 277.574313 
L 349.66704 274.478566 
L 350.480711 270.027738 
L 351.294381 260.137468 
L 352.108052 273.816525 
L 352.921722 269.020405 
L 353.735393 272.919063 
L 354.549064 275.667118 
L 355.362734 273.833947 
L 356.176405 278.572735 
L 356.990075 276.781629 
L 357.803746 285.160367 
L 358.617416 274.512012 
L 359.431087 271.475623 
L 360.244757 282.490637 
L 361.058428 282.914387 
L 361.872098 280.808602 
L 362.685769 272.287971 
L 363.49944 273.201323 
L 364.31311 270.292937 
L 365.126781 262.337897 
L 365.940451 279.220917 
L 367.567792 269.532224 
L 368.381463 276.819566 
L 369.195133 265.651823 
L 370.008804 281.00283 
L 370.822474 283.604324 
L 371.636145 288.005279 
L 372.449815 268.078933 
L 373.263486 271.948588 
L 374.077157 274.944138 
L 374.890827 285.761244 
L 375.704498 262.549863 
L 376.518168 275.497462 
L 377.331839 260.033056 
L 378.145509 277.478812 
L 378.95918 284.724376 
L 379.77285 264.239426 
L 380.586521 286.912018 
L 381.400191 264.645038 
L 382.213862 275.354629 
L 383.027532 295.488 
L 383.841203 275.396542 
L 384.654874 284.58725 
L 385.468544 278.413379 
L 386.282215 271.181538 
L 387.095885 289.612439 
L 387.909556 262.998507 
L 388.723226 267.859647 
L 389.536897 284.354152 
L 390.350567 267.939438 
L 391.164238 254.594502 
L 391.977908 263.853897 
L 392.791579 279.979859 
L 393.605249 277.838476 
L 394.41892 272.163391 
L 395.232591 290.083148 
L 396.046261 279.626169 
L 396.859932 281.004681 
L 397.673602 273.418664 
L 398.487273 280.881583 
L 398.487273 280.881583 
" style="fill:none;stroke:#1f77b4;stroke-linecap:square;stroke-width:1.5;"/>
   </g>
   <g id="line2d_17">
    <path clip-path="url(#pb960c8cec8)" d="M 73.832727 94.1114 
L 74.646398 109.528183 
L 75.460068 89.460703 
L 76.273739 125.401455 
L 77.087409 121.202626 
L 77.90108 151.458737 
L 78.714751 153.326077 
L 79.528421 163.393077 
L 80.342092 155.297913 
L 81.155762 176.246827 
L 81.969433 183.904877 
L 82.783103 197.244883 
L 83.596774 202.500438 
L 84.410444 198.388273 
L 85.224115 202.256901 
L 86.037785 204.777496 
L 86.851456 220.276061 
L 87.665126 216.506432 
L 88.478797 221.349171 
L 89.292468 210.01687 
L 90.106138 204.813014 
L 90.919809 224.768744 
L 91.733479 199.141292 
L 92.54715 222.169308 
L 93.36082 221.098453 
L 94.174491 201.627092 
L 94.988161 207.920968 
L 95.801832 239.701182 
L 96.615502 219.75787 
L 97.429173 218.782629 
L 98.242843 232.280303 
L 99.056514 221.611341 
L 99.870185 238.341166 
L 100.683855 223.50486 
L 101.497526 233.264695 
L 102.311196 204.077852 
L 103.124867 242.932784 
L 103.938537 240.956962 
L 104.752208 243.926343 
L 105.565878 226.736123 
L 106.379549 240.02913 
L 107.193219 234.501027 
L 108.00689 225.99519 
L 108.82056 234.407966 
L 109.634231 238.899576 
L 110.447902 240.63366 
L 111.261572 236.271455 
L 112.075243 235.871981 
L 112.888913 236.643075 
L 113.702584 242.614535 
L 114.516254 233.156308 
L 115.329925 235.57562 
L 116.143595 244.401088 
L 116.957266 245.800767 
L 117.770936 242.898182 
L 118.584607 242.930172 
L 119.398278 244.006938 
L 120.211948 234.069804 
L 121.025619 248.080482 
L 121.839289 241.379348 
L 122.65296 242.810775 
L 123.46663 244.749292 
L 124.280301 247.340572 
L 125.093971 242.517693 
L 125.907642 240.233475 
L 126.721312 241.845829 
L 127.534983 246.87388 
L 128.348653 244.464573 
L 129.162324 248.092738 
L 129.975995 248.462405 
L 130.789665 249.216517 
L 131.603336 244.241295 
L 132.417006 247.774644 
L 133.230677 250.144489 
L 134.044347 240.715399 
L 134.858018 234.7198 
L 135.671688 250.548651 
L 137.299029 236.36129 
L 138.1127 234.157721 
L 138.92637 257.420975 
L 139.740041 237.84592 
L 140.553712 244.310898 
L 141.367382 232.727107 
L 142.181053 243.869884 
L 143.808394 249.430924 
L 144.622064 249.219281 
L 145.435735 242.427249 
L 146.249405 246.309944 
L 147.063076 246.784427 
L 147.876746 241.851314 
L 148.690417 238.512307 
L 149.504087 241.493361 
L 150.317758 251.512962 
L 151.131429 234.997902 
L 151.945099 245.057428 
L 152.75877 239.581348 
L 153.57244 244.549472 
L 154.386111 250.651296 
L 155.199781 250.26773 
L 156.013452 254.748155 
L 156.827122 249.874467 
L 157.640793 249.311846 
L 158.454463 258.686149 
L 159.268134 254.883156 
L 160.081805 260.881658 
L 160.895475 251.157743 
L 161.709146 252.804322 
L 162.522816 254.795675 
L 163.336487 251.736104 
L 164.150157 253.168483 
L 164.963828 256.308278 
L 165.777498 256.283471 
L 166.591169 245.497345 
L 167.404839 263.592331 
L 168.21851 236.463192 
L 169.03218 255.061724 
L 169.845851 256.558505 
L 170.659522 257.402054 
L 171.473192 250.80889 
L 172.286863 251.483791 
L 173.100533 251.351133 
L 173.914204 253.071071 
L 174.727874 258.312192 
L 175.541545 251.613658 
L 176.355215 256.216444 
L 177.168886 258.319076 
L 177.982556 243.222803 
L 178.796227 257.453379 
L 179.609897 252.470722 
L 180.423568 251.372149 
L 181.237239 261.754595 
L 182.050909 253.607561 
L 182.86458 248.102752 
L 183.67825 256.428367 
L 184.491921 254.172572 
L 185.305591 261.922664 
L 186.119262 251.847022 
L 186.932932 254.380846 
L 187.746603 263.387862 
L 188.560273 257.597247 
L 189.373944 257.104328 
L 190.187614 253.023758 
L 191.001285 251.937863 
L 191.814956 259.030249 
L 192.628626 253.770229 
L 193.442297 253.035613 
L 194.255967 269.159354 
L 195.069638 263.017739 
L 195.883308 259.824372 
L 196.696979 257.543938 
L 197.510649 271.903604 
L 198.32432 259.069126 
L 199.13799 242.833668 
L 199.951661 261.086137 
L 200.765332 269.999625 
L 201.579002 258.967213 
L 202.392673 260.879811 
L 203.206343 255.585059 
L 204.020014 265.298385 
L 204.833684 253.612353 
L 206.461025 271.959526 
L 207.274696 260.301586 
L 208.088366 261.306114 
L 208.902037 268.28499 
L 209.715707 256.884925 
L 210.529378 257.588335 
L 211.343049 263.687234 
L 212.156719 262.060355 
L 212.97039 257.578751 
L 213.78406 254.769087 
L 214.597731 255.811167 
L 215.411401 255.87476 
L 216.225072 273.014008 
L 217.038742 268.780344 
L 217.852413 262.941441 
L 218.666083 271.474766 
L 219.479754 258.872865 
L 220.293424 260.903311 
L 221.107095 267.364843 
L 221.920766 252.198884 
L 222.734436 260.345603 
L 223.548107 254.217321 
L 224.361777 257.241213 
L 225.175448 247.386575 
L 225.989118 267.460414 
L 226.802789 258.555949 
L 227.616459 244.739526 
L 228.43013 275.768432 
L 229.2438 263.162106 
L 230.057471 267.1824 
L 230.871141 249.290471 
L 231.684812 268.195734 
L 232.498483 261.174559 
L 233.312153 251.918565 
L 234.125824 259.574732 
L 234.939494 252.722601 
L 235.753165 270.351581 
L 236.566835 261.241561 
L 237.380506 267.181482 
L 238.194176 244.620111 
L 239.007847 253.46262 
L 239.821517 269.123912 
L 240.635188 265.994855 
L 241.448859 256.065937 
L 242.262529 261.444968 
L 243.0762 264.362937 
L 243.88987 257.848666 
L 244.703541 259.932906 
L 245.517211 265.879688 
L 246.330882 245.313252 
L 247.144552 262.983866 
L 247.958223 240.678316 
L 248.771893 260.455933 
L 249.585564 268.135928 
L 250.399234 264.795425 
L 251.212905 250.563587 
L 252.026576 262.180219 
L 252.840246 267.44948 
L 253.653917 269.921149 
L 254.467587 278.578815 
L 255.281258 266.59406 
L 256.094928 268.25023 
L 256.908599 272.235442 
L 257.722269 251.612909 
L 258.53594 264.606829 
L 259.34961 262.39537 
L 260.163281 248.802885 
L 260.976951 256.025866 
L 261.790622 270.404717 
L 262.604293 259.06322 
L 263.417963 256.385116 
L 264.231634 265.758784 
L 265.045304 277.130154 
L 265.858975 265.157312 
L 266.672645 256.777837 
L 267.486316 262.475217 
L 268.299986 253.497044 
L 269.113657 261.566919 
L 269.927327 266.626094 
L 270.740998 258.873375 
L 271.554668 261.805135 
L 272.368339 258.678954 
L 273.18201 262.520723 
L 273.99568 260.055228 
L 274.809351 276.189418 
L 275.623021 263.916369 
L 276.436692 272.251508 
L 277.250362 279.359322 
L 278.064033 268.604157 
L 278.877703 259.421299 
L 279.691374 257.544166 
L 280.505044 267.642718 
L 281.318715 260.75979 
L 282.132386 257.705161 
L 282.946056 265.940429 
L 283.759727 270.92792 
L 284.573397 262.779937 
L 285.387068 268.737867 
L 286.200738 252.275716 
L 287.014409 262.158652 
L 287.828079 275.792248 
L 288.64175 263.430591 
L 289.45542 261.135505 
L 290.269091 273.533172 
L 291.082761 273.504 
L 291.896432 263.530761 
L 292.710103 265.516667 
L 293.523773 274.298527 
L 294.337444 269.725369 
L 295.151114 261.288857 
L 295.964785 267.968466 
L 296.778455 260.89539 
L 297.592126 263.464029 
L 298.405796 264.087754 
L 299.219467 258.454019 
L 300.033137 248.746349 
L 300.846808 267.563165 
L 301.660478 263.47561 
L 303.28782 260.943867 
L 304.10149 279.377874 
L 304.915161 273.365664 
L 305.728831 265.022162 
L 306.542502 265.992421 
L 307.356172 256.657532 
L 308.169843 266.541345 
L 308.983513 265.474438 
L 309.797184 276.672522 
L 310.610854 258.950125 
L 311.424525 270.759512 
L 312.238195 269.146789 
L 313.051866 284.028089 
L 313.865537 276.91209 
L 314.679207 274.678195 
L 315.492878 263.290406 
L 316.306548 260.792321 
L 317.120219 270.558729 
L 317.933889 265.089928 
L 318.74756 250.856113 
L 319.56123 260.852917 
L 320.374901 269.404528 
L 321.188571 258.082206 
L 322.002242 254.359644 
L 322.815913 264.185055 
L 324.443254 276.653499 
L 325.256924 274.937032 
L 326.070595 259.694929 
L 326.884265 259.903744 
L 327.697936 257.253793 
L 328.511606 261.911566 
L 329.325277 263.991866 
L 330.138947 269.881556 
L 330.952618 272.427027 
L 331.766288 274.399407 
L 332.579959 263.579396 
L 333.39363 267.023952 
L 334.2073 263.390107 
L 335.020971 270.482587 
L 335.834641 271.007808 
L 336.648312 276.177202 
L 337.461982 278.559464 
L 338.275653 268.534851 
L 339.089323 269.78926 
L 339.902994 271.477563 
L 340.716664 270.33486 
L 341.530335 271.807385 
L 342.344005 263.993339 
L 343.157676 268.120397 
L 343.971347 275.565501 
L 344.785017 269.400222 
L 345.598688 278.578975 
L 347.226029 262.285333 
L 348.039699 266.666159 
L 348.85337 267.839807 
L 349.66704 259.959359 
L 350.480711 268.167231 
L 351.294381 259.443745 
L 352.108052 260.180423 
L 352.921722 257.54228 
L 353.735393 278.239519 
L 354.549064 277.496726 
L 355.362734 271.27846 
L 356.176405 284.436973 
L 356.990075 263.147169 
L 357.803746 276.704804 
L 358.617416 246.756954 
L 360.244757 272.054328 
L 361.058428 281.25706 
L 361.872098 271.288596 
L 362.685769 272.485125 
L 363.49944 271.122913 
L 364.31311 273.763604 
L 365.126781 268.019974 
L 365.940451 273.590447 
L 366.754122 268.58539 
L 367.567792 270.775507 
L 368.381463 266.2508 
L 369.195133 266.281956 
L 370.008804 266.91714 
L 370.822474 266.393353 
L 371.636145 261.164185 
L 372.449815 266.320971 
L 373.263486 252.547529 
L 374.077157 277.538133 
L 374.890827 263.773301 
L 375.704498 267.102099 
L 376.518168 268.463272 
L 377.331839 268.226309 
L 378.145509 270.874695 
L 378.95918 266.721315 
L 379.77285 267.512293 
L 380.586521 267.420765 
L 381.400191 279.170529 
L 382.213862 274.51321 
L 383.027532 264.907613 
L 383.841203 258.82744 
L 384.654874 268.082222 
L 385.468544 265.492677 
L 386.282215 272.15598 
L 387.095885 262.824179 
L 387.909556 263.408991 
L 388.723226 271.773063 
L 389.536897 275.074569 
L 390.350567 270.112818 
L 391.164238 272.141654 
L 391.977908 266.996032 
L 392.791579 274.993421 
L 393.605249 261.659481 
L 394.41892 269.391384 
L 395.232591 260.760267 
L 396.046261 270.830263 
L 396.859932 272.587023 
L 397.673602 275.665216 
L 398.487273 273.457123 
L 398.487273 273.457123 
" style="fill:none;stroke:#ff7f0e;stroke-linecap:square;stroke-width:1.5;"/>
   </g>
   <g id="patch_3">
    <path d="M 57.6 307.584 
L 57.6 41.472 
" style="fill:none;stroke:#000000;stroke-linecap:square;stroke-linejoin:miter;stroke-width:0.8;"/>
   </g>
   <g id="patch_4">
    <path d="M 414.72 307.584 
L 414.72 41.472 
" style="fill:none;stroke:#000000;stroke-linecap:square;stroke-linejoin:miter;stroke-width:0.8;"/>
   </g>
   <g id="patch_5">
    <path d="M 57.6 307.584 
L 414.72 307.584 
" style="fill:none;stroke:#000000;stroke-linecap:square;stroke-linejoin:miter;stroke-width:0.8;"/>
   </g>
   <g id="patch_6">
    <path d="M 57.6 41.472 
L 414.72 41.472 
" style="fill:none;stroke:#000000;stroke-linecap:square;stroke-linejoin:miter;stroke-width:0.8;"/>
   </g>
   <g id="legend_1">
    <g id="patch_7">
     <path d="M 303.845 78.82825 
L 407.72 78.82825 
Q 409.72 78.82825 409.72 76.82825 
L 409.72 48.472 
Q 409.72 46.472 407.72 46.472 
L 303.845 46.472 
Q 301.845 46.472 301.845 48.472 
L 301.845 76.82825 
Q 301.845 78.82825 303.845 78.82825 
z
" style="fill:#ffffff;opacity:0.8;stroke:#cccccc;stroke-linejoin:miter;"/>
    </g>
    <g id="line2d_18">
     <path d="M 305.845 54.570437 
L 325.845 54.570437 
" style="fill:none;stroke:#1f77b4;stroke-linecap:square;stroke-width:1.5;"/>
    </g>
    <g id="line2d_19"/>
    <g id="text_18">
     <!-- Train loss -->
     <g transform="translate(333.845 58.070437)scale(0.1 -0.1)">
      <defs>
       <path d="M -19 4666 
L 3928 4666 
L 3928 4134 
L 2272 4134 
L 2272 0 
L 1638 0 
L 1638 4134 
L -19 4134 
L -19 4666 
z
" id="DejaVuSans-54" transform="scale(0.015625)"/>
       <path d="M 2631 2963 
Q 2534 3019 2420 3045 
Q 2306 3072 2169 3072 
Q 1681 3072 1420 2755 
Q 1159 2438 1159 1844 
L 1159 0 
L 581 0 
L 581 3500 
L 1159 3500 
L 1159 2956 
Q 1341 3275 1631 3429 
Q 1922 3584 2338 3584 
Q 2397 3584 2469 3576 
Q 2541 3569 2628 3553 
L 2631 2963 
z
" id="DejaVuSans-72" transform="scale(0.015625)"/>
       <path d="M 2194 1759 
Q 1497 1759 1228 1600 
Q 959 1441 959 1056 
Q 959 750 1161 570 
Q 1363 391 1709 391 
Q 2188 391 2477 730 
Q 2766 1069 2766 1631 
L 2766 1759 
L 2194 1759 
z
M 3341 1997 
L 3341 0 
L 2766 0 
L 2766 531 
Q 2569 213 2275 61 
Q 1981 -91 1556 -91 
Q 1019 -91 701 211 
Q 384 513 384 1019 
Q 384 1609 779 1909 
Q 1175 2209 1959 2209 
L 2766 2209 
L 2766 2266 
Q 2766 2663 2505 2880 
Q 2244 3097 1772 3097 
Q 1472 3097 1187 3025 
Q 903 2953 641 2809 
L 641 3341 
Q 956 3463 1253 3523 
Q 1550 3584 1831 3584 
Q 2591 3584 2966 3190 
Q 3341 2797 3341 1997 
z
" id="DejaVuSans-61" transform="scale(0.015625)"/>
       <path d="M 603 3500 
L 1178 3500 
L 1178 0 
L 603 0 
L 603 3500 
z
M 603 4863 
L 1178 4863 
L 1178 4134 
L 603 4134 
L 603 4863 
z
" id="DejaVuSans-69" transform="scale(0.015625)"/>
       <path d="M 3513 2113 
L 3513 0 
L 2938 0 
L 2938 2094 
Q 2938 2591 2744 2837 
Q 2550 3084 2163 3084 
Q 1697 3084 1428 2787 
Q 1159 2491 1159 1978 
L 1159 0 
L 581 0 
L 581 3500 
L 1159 3500 
L 1159 2956 
Q 1366 3272 1645 3428 
Q 1925 3584 2291 3584 
Q 2894 3584 3203 3211 
Q 3513 2838 3513 2113 
z
" id="DejaVuSans-6e" transform="scale(0.015625)"/>
       <path id="DejaVuSans-20" transform="scale(0.015625)"/>
       <path d="M 603 4863 
L 1178 4863 
L 1178 0 
L 603 0 
L 603 4863 
z
" id="DejaVuSans-6c" transform="scale(0.015625)"/>
      </defs>
      <use xlink:href="#DejaVuSans-54"/>
      <use x="46.333984" xlink:href="#DejaVuSans-72"/>
      <use x="87.447266" xlink:href="#DejaVuSans-61"/>
      <use x="148.726562" xlink:href="#DejaVuSans-69"/>
      <use x="176.509766" xlink:href="#DejaVuSans-6e"/>
      <use x="239.888672" xlink:href="#DejaVuSans-20"/>
      <use x="271.675781" xlink:href="#DejaVuSans-6c"/>
      <use x="299.458984" xlink:href="#DejaVuSans-6f"/>
      <use x="360.640625" xlink:href="#DejaVuSans-73"/>
      <use x="412.740234" xlink:href="#DejaVuSans-73"/>
     </g>
    </g>
    <g id="line2d_20">
     <path d="M 305.845 69.248562 
L 325.845 69.248562 
" style="fill:none;stroke:#ff7f0e;stroke-linecap:square;stroke-width:1.5;"/>
    </g>
    <g id="line2d_21"/>
    <g id="text_19">
     <!-- Validation loss -->
     <g transform="translate(333.845 72.748562)scale(0.1 -0.1)">
      <defs>
       <path d="M 1831 0 
L 50 4666 
L 709 4666 
L 2188 738 
L 3669 4666 
L 4325 4666 
L 2547 0 
L 1831 0 
z
" id="DejaVuSans-56" transform="scale(0.015625)"/>
       <path d="M 2906 2969 
L 2906 4863 
L 3481 4863 
L 3481 0 
L 2906 0 
L 2906 525 
Q 2725 213 2448 61 
Q 2172 -91 1784 -91 
Q 1150 -91 751 415 
Q 353 922 353 1747 
Q 353 2572 751 3078 
Q 1150 3584 1784 3584 
Q 2172 3584 2448 3432 
Q 2725 3281 2906 2969 
z
M 947 1747 
Q 947 1113 1208 752 
Q 1469 391 1925 391 
Q 2381 391 2643 752 
Q 2906 1113 2906 1747 
Q 2906 2381 2643 2742 
Q 2381 3103 1925 3103 
Q 1469 3103 1208 2742 
Q 947 2381 947 1747 
z
" id="DejaVuSans-64" transform="scale(0.015625)"/>
       <path d="M 1172 4494 
L 1172 3500 
L 2356 3500 
L 2356 3053 
L 1172 3053 
L 1172 1153 
Q 1172 725 1289 603 
Q 1406 481 1766 481 
L 2356 481 
L 2356 0 
L 1766 0 
Q 1100 0 847 248 
Q 594 497 594 1153 
L 594 3053 
L 172 3053 
L 172 3500 
L 594 3500 
L 594 4494 
L 1172 4494 
z
" id="DejaVuSans-74" transform="scale(0.015625)"/>
      </defs>
      <use xlink:href="#DejaVuSans-56"/>
      <use x="60.658203" xlink:href="#DejaVuSans-61"/>
      <use x="121.9375" xlink:href="#DejaVuSans-6c"/>
      <use x="149.720703" xlink:href="#DejaVuSans-69"/>
      <use x="177.503906" xlink:href="#DejaVuSans-64"/>
      <use x="240.980469" xlink:href="#DejaVuSans-61"/>
      <use x="302.259766" xlink:href="#DejaVuSans-74"/>
      <use x="341.46875" xlink:href="#DejaVuSans-69"/>
      <use x="369.251953" xlink:href="#DejaVuSans-6f"/>
      <use x="430.433594" xlink:href="#DejaVuSans-6e"/>
      <use x="493.8125" xlink:href="#DejaVuSans-20"/>
      <use x="525.599609" xlink:href="#DejaVuSans-6c"/>
      <use x="553.382812" xlink:href="#DejaVuSans-6f"/>
      <use x="614.564453" xlink:href="#DejaVuSans-73"/>
      <use x="666.664062" xlink:href="#DejaVuSans-73"/>
     </g>
    </g>
   </g>
  </g>
 </g>
 <defs>
  <clipPath id="pb960c8cec8">
   <rect height="266.112" width="357.12" x="57.6" y="41.472"/>
  </clipPath>
 </defs>
</svg>
