<?xml version="1.0" encoding="utf-8" standalone="no"?>
<!DOCTYPE svg PUBLIC "-//W3C//DTD SVG 1.1//EN"
  "http://www.w3.org/Graphics/SVG/1.1/DTD/svg11.dtd">
<svg height="345.6pt" version="1.1" viewBox="0 0 460.8 345.6" width="460.8pt" xmlns="http://www.w3.org/2000/svg" xmlns:xlink="http://www.w3.org/1999/xlink">
 <metadata>
  <rdf:RDF xmlns:cc="http://creativecommons.org/ns#" xmlns:dc="http://purl.org/dc/elements/1.1/" xmlns:rdf="http://www.w3.org/1999/02/22-rdf-syntax-ns#">
   <cc:Work>
    <dc:type rdf:resource="http://purl.org/dc/dcmitype/StillImage"/>
    <dc:date>2021-07-31T15:08:10.436678</dc:date>
    <dc:format>image/svg+xml</dc:format>
    <dc:creator>
     <cc:Agent>
      <dc:title>Matplotlib v3.4.1, https://matplotlib.org/</dc:title>
     </cc:Agent>
    </dc:creator>
   </cc:Work>
  </rdf:RDF>
 </metadata>
 <defs>
  <style type="text/css">*{stroke-linecap:butt;stroke-linejoin:round;}</style>
 </defs>
 <g id="figure_1">
  <g id="patch_1">
   <path d="M 0 345.6 
L 460.8 345.6 
L 460.8 0 
L 0 0 
z
" style="fill:#ffffff;"/>
  </g>
  <g id="axes_1">
   <g id="patch_2">
    <path d="M 57.6 307.584 
L 414.72 307.584 
L 414.72 41.472 
L 57.6 41.472 
z
" style="fill:#ffffff;"/>
   </g>
   <g id="matplotlib.axis_1">
    <g id="xtick_1">
     <g id="line2d_1">
      <defs>
       <path d="M 0 0 
L 0 3.5 
" id="m2fae6b33bc" style="stroke:#000000;stroke-width:0.8;"/>
      </defs>
      <g>
       <use style="stroke:#000000;stroke-width:0.8;" x="73.629691" xlink:href="#m2fae6b33bc" y="307.584"/>
      </g>
     </g>
     <g id="text_1">
      <!-- 0 -->
      <g transform="translate(70.448441 322.182437)scale(0.1 -0.1)">
       <defs>
        <path d="M 2034 4250 
Q 1547 4250 1301 3770 
Q 1056 3291 1056 2328 
Q 1056 1369 1301 889 
Q 1547 409 2034 409 
Q 2525 409 2770 889 
Q 3016 1369 3016 2328 
Q 3016 3291 2770 3770 
Q 2525 4250 2034 4250 
z
M 2034 4750 
Q 2819 4750 3233 4129 
Q 3647 3509 3647 2328 
Q 3647 1150 3233 529 
Q 2819 -91 2034 -91 
Q 1250 -91 836 529 
Q 422 1150 422 2328 
Q 422 3509 836 4129 
Q 1250 4750 2034 4750 
z
" id="DejaVuSans-30" transform="scale(0.015625)"/>
       </defs>
       <use xlink:href="#DejaVuSans-30"/>
      </g>
     </g>
    </g>
    <g id="xtick_2">
     <g id="line2d_2">
      <g>
       <use style="stroke:#000000;stroke-width:0.8;" x="114.236889" xlink:href="#m2fae6b33bc" y="307.584"/>
      </g>
     </g>
     <g id="text_2">
      <!-- 200 -->
      <g transform="translate(104.693139 322.182437)scale(0.1 -0.1)">
       <defs>
        <path d="M 1228 531 
L 3431 531 
L 3431 0 
L 469 0 
L 469 531 
Q 828 903 1448 1529 
Q 2069 2156 2228 2338 
Q 2531 2678 2651 2914 
Q 2772 3150 2772 3378 
Q 2772 3750 2511 3984 
Q 2250 4219 1831 4219 
Q 1534 4219 1204 4116 
Q 875 4013 500 3803 
L 500 4441 
Q 881 4594 1212 4672 
Q 1544 4750 1819 4750 
Q 2544 4750 2975 4387 
Q 3406 4025 3406 3419 
Q 3406 3131 3298 2873 
Q 3191 2616 2906 2266 
Q 2828 2175 2409 1742 
Q 1991 1309 1228 531 
z
" id="DejaVuSans-32" transform="scale(0.015625)"/>
       </defs>
       <use xlink:href="#DejaVuSans-32"/>
       <use x="63.623047" xlink:href="#DejaVuSans-30"/>
       <use x="127.246094" xlink:href="#DejaVuSans-30"/>
      </g>
     </g>
    </g>
    <g id="xtick_3">
     <g id="line2d_3">
      <g>
       <use style="stroke:#000000;stroke-width:0.8;" x="154.844087" xlink:href="#m2fae6b33bc" y="307.584"/>
      </g>
     </g>
     <g id="text_3">
      <!-- 400 -->
      <g transform="translate(145.300337 322.182437)scale(0.1 -0.1)">
       <defs>
        <path d="M 2419 4116 
L 825 1625 
L 2419 1625 
L 2419 4116 
z
M 2253 4666 
L 3047 4666 
L 3047 1625 
L 3713 1625 
L 3713 1100 
L 3047 1100 
L 3047 0 
L 2419 0 
L 2419 1100 
L 313 1100 
L 313 1709 
L 2253 4666 
z
" id="DejaVuSans-34" transform="scale(0.015625)"/>
       </defs>
       <use xlink:href="#DejaVuSans-34"/>
       <use x="63.623047" xlink:href="#DejaVuSans-30"/>
       <use x="127.246094" xlink:href="#DejaVuSans-30"/>
      </g>
     </g>
    </g>
    <g id="xtick_4">
     <g id="line2d_4">
      <g>
       <use style="stroke:#000000;stroke-width:0.8;" x="195.451284" xlink:href="#m2fae6b33bc" y="307.584"/>
      </g>
     </g>
     <g id="text_4">
      <!-- 600 -->
      <g transform="translate(185.907534 322.182437)scale(0.1 -0.1)">
       <defs>
        <path d="M 2113 2584 
Q 1688 2584 1439 2293 
Q 1191 2003 1191 1497 
Q 1191 994 1439 701 
Q 1688 409 2113 409 
Q 2538 409 2786 701 
Q 3034 994 3034 1497 
Q 3034 2003 2786 2293 
Q 2538 2584 2113 2584 
z
M 3366 4563 
L 3366 3988 
Q 3128 4100 2886 4159 
Q 2644 4219 2406 4219 
Q 1781 4219 1451 3797 
Q 1122 3375 1075 2522 
Q 1259 2794 1537 2939 
Q 1816 3084 2150 3084 
Q 2853 3084 3261 2657 
Q 3669 2231 3669 1497 
Q 3669 778 3244 343 
Q 2819 -91 2113 -91 
Q 1303 -91 875 529 
Q 447 1150 447 2328 
Q 447 3434 972 4092 
Q 1497 4750 2381 4750 
Q 2619 4750 2861 4703 
Q 3103 4656 3366 4563 
z
" id="DejaVuSans-36" transform="scale(0.015625)"/>
       </defs>
       <use xlink:href="#DejaVuSans-36"/>
       <use x="63.623047" xlink:href="#DejaVuSans-30"/>
       <use x="127.246094" xlink:href="#DejaVuSans-30"/>
      </g>
     </g>
    </g>
    <g id="xtick_5">
     <g id="line2d_5">
      <g>
       <use style="stroke:#000000;stroke-width:0.8;" x="236.058482" xlink:href="#m2fae6b33bc" y="307.584"/>
      </g>
     </g>
     <g id="text_5">
      <!-- 800 -->
      <g transform="translate(226.514732 322.182437)scale(0.1 -0.1)">
       <defs>
        <path d="M 2034 2216 
Q 1584 2216 1326 1975 
Q 1069 1734 1069 1313 
Q 1069 891 1326 650 
Q 1584 409 2034 409 
Q 2484 409 2743 651 
Q 3003 894 3003 1313 
Q 3003 1734 2745 1975 
Q 2488 2216 2034 2216 
z
M 1403 2484 
Q 997 2584 770 2862 
Q 544 3141 544 3541 
Q 544 4100 942 4425 
Q 1341 4750 2034 4750 
Q 2731 4750 3128 4425 
Q 3525 4100 3525 3541 
Q 3525 3141 3298 2862 
Q 3072 2584 2669 2484 
Q 3125 2378 3379 2068 
Q 3634 1759 3634 1313 
Q 3634 634 3220 271 
Q 2806 -91 2034 -91 
Q 1263 -91 848 271 
Q 434 634 434 1313 
Q 434 1759 690 2068 
Q 947 2378 1403 2484 
z
M 1172 3481 
Q 1172 3119 1398 2916 
Q 1625 2713 2034 2713 
Q 2441 2713 2670 2916 
Q 2900 3119 2900 3481 
Q 2900 3844 2670 4047 
Q 2441 4250 2034 4250 
Q 1625 4250 1398 4047 
Q 1172 3844 1172 3481 
z
" id="DejaVuSans-38" transform="scale(0.015625)"/>
       </defs>
       <use xlink:href="#DejaVuSans-38"/>
       <use x="63.623047" xlink:href="#DejaVuSans-30"/>
       <use x="127.246094" xlink:href="#DejaVuSans-30"/>
      </g>
     </g>
    </g>
    <g id="xtick_6">
     <g id="line2d_6">
      <g>
       <use style="stroke:#000000;stroke-width:0.8;" x="276.66568" xlink:href="#m2fae6b33bc" y="307.584"/>
      </g>
     </g>
     <g id="text_6">
      <!-- 1000 -->
      <g transform="translate(263.94068 322.182437)scale(0.1 -0.1)">
       <defs>
        <path d="M 794 531 
L 1825 531 
L 1825 4091 
L 703 3866 
L 703 4441 
L 1819 4666 
L 2450 4666 
L 2450 531 
L 3481 531 
L 3481 0 
L 794 0 
L 794 531 
z
" id="DejaVuSans-31" transform="scale(0.015625)"/>
       </defs>
       <use xlink:href="#DejaVuSans-31"/>
       <use x="63.623047" xlink:href="#DejaVuSans-30"/>
       <use x="127.246094" xlink:href="#DejaVuSans-30"/>
       <use x="190.869141" xlink:href="#DejaVuSans-30"/>
      </g>
     </g>
    </g>
    <g id="xtick_7">
     <g id="line2d_7">
      <g>
       <use style="stroke:#000000;stroke-width:0.8;" x="317.272877" xlink:href="#m2fae6b33bc" y="307.584"/>
      </g>
     </g>
     <g id="text_7">
      <!-- 1200 -->
      <g transform="translate(304.547877 322.182437)scale(0.1 -0.1)">
       <use xlink:href="#DejaVuSans-31"/>
       <use x="63.623047" xlink:href="#DejaVuSans-32"/>
       <use x="127.246094" xlink:href="#DejaVuSans-30"/>
       <use x="190.869141" xlink:href="#DejaVuSans-30"/>
      </g>
     </g>
    </g>
    <g id="xtick_8">
     <g id="line2d_8">
      <g>
       <use style="stroke:#000000;stroke-width:0.8;" x="357.880075" xlink:href="#m2fae6b33bc" y="307.584"/>
      </g>
     </g>
     <g id="text_8">
      <!-- 1400 -->
      <g transform="translate(345.155075 322.182437)scale(0.1 -0.1)">
       <use xlink:href="#DejaVuSans-31"/>
       <use x="63.623047" xlink:href="#DejaVuSans-34"/>
       <use x="127.246094" xlink:href="#DejaVuSans-30"/>
       <use x="190.869141" xlink:href="#DejaVuSans-30"/>
      </g>
     </g>
    </g>
    <g id="xtick_9">
     <g id="line2d_9">
      <g>
       <use style="stroke:#000000;stroke-width:0.8;" x="398.487273" xlink:href="#m2fae6b33bc" y="307.584"/>
      </g>
     </g>
     <g id="text_9">
      <!-- 1600 -->
      <g transform="translate(385.762273 322.182437)scale(0.1 -0.1)">
       <use xlink:href="#DejaVuSans-31"/>
       <use x="63.623047" xlink:href="#DejaVuSans-36"/>
       <use x="127.246094" xlink:href="#DejaVuSans-30"/>
       <use x="190.869141" xlink:href="#DejaVuSans-30"/>
      </g>
     </g>
    </g>
    <g id="text_10">
     <!-- Epoch -->
     <g transform="translate(213.193594 339.659781)scale(0.15 -0.15)">
      <defs>
       <path d="M 628 4666 
L 3578 4666 
L 3578 4134 
L 1259 4134 
L 1259 2753 
L 3481 2753 
L 3481 2222 
L 1259 2222 
L 1259 531 
L 3634 531 
L 3634 0 
L 628 0 
L 628 4666 
z
" id="DejaVuSans-45" transform="scale(0.015625)"/>
       <path d="M 1159 525 
L 1159 -1331 
L 581 -1331 
L 581 3500 
L 1159 3500 
L 1159 2969 
Q 1341 3281 1617 3432 
Q 1894 3584 2278 3584 
Q 2916 3584 3314 3078 
Q 3713 2572 3713 1747 
Q 3713 922 3314 415 
Q 2916 -91 2278 -91 
Q 1894 -91 1617 61 
Q 1341 213 1159 525 
z
M 3116 1747 
Q 3116 2381 2855 2742 
Q 2594 3103 2138 3103 
Q 1681 3103 1420 2742 
Q 1159 2381 1159 1747 
Q 1159 1113 1420 752 
Q 1681 391 2138 391 
Q 2594 391 2855 752 
Q 3116 1113 3116 1747 
z
" id="DejaVuSans-70" transform="scale(0.015625)"/>
       <path d="M 1959 3097 
Q 1497 3097 1228 2736 
Q 959 2375 959 1747 
Q 959 1119 1226 758 
Q 1494 397 1959 397 
Q 2419 397 2687 759 
Q 2956 1122 2956 1747 
Q 2956 2369 2687 2733 
Q 2419 3097 1959 3097 
z
M 1959 3584 
Q 2709 3584 3137 3096 
Q 3566 2609 3566 1747 
Q 3566 888 3137 398 
Q 2709 -91 1959 -91 
Q 1206 -91 779 398 
Q 353 888 353 1747 
Q 353 2609 779 3096 
Q 1206 3584 1959 3584 
z
" id="DejaVuSans-6f" transform="scale(0.015625)"/>
       <path d="M 3122 3366 
L 3122 2828 
Q 2878 2963 2633 3030 
Q 2388 3097 2138 3097 
Q 1578 3097 1268 2742 
Q 959 2388 959 1747 
Q 959 1106 1268 751 
Q 1578 397 2138 397 
Q 2388 397 2633 464 
Q 2878 531 3122 666 
L 3122 134 
Q 2881 22 2623 -34 
Q 2366 -91 2075 -91 
Q 1284 -91 818 406 
Q 353 903 353 1747 
Q 353 2603 823 3093 
Q 1294 3584 2113 3584 
Q 2378 3584 2631 3529 
Q 2884 3475 3122 3366 
z
" id="DejaVuSans-63" transform="scale(0.015625)"/>
       <path d="M 3513 2113 
L 3513 0 
L 2938 0 
L 2938 2094 
Q 2938 2591 2744 2837 
Q 2550 3084 2163 3084 
Q 1697 3084 1428 2787 
Q 1159 2491 1159 1978 
L 1159 0 
L 581 0 
L 581 4863 
L 1159 4863 
L 1159 2956 
Q 1366 3272 1645 3428 
Q 1925 3584 2291 3584 
Q 2894 3584 3203 3211 
Q 3513 2838 3513 2113 
z
" id="DejaVuSans-68" transform="scale(0.015625)"/>
      </defs>
      <use xlink:href="#DejaVuSans-45"/>
      <use x="63.183594" xlink:href="#DejaVuSans-70"/>
      <use x="126.660156" xlink:href="#DejaVuSans-6f"/>
      <use x="187.841797" xlink:href="#DejaVuSans-63"/>
      <use x="242.822266" xlink:href="#DejaVuSans-68"/>
     </g>
    </g>
   </g>
   <g id="matplotlib.axis_2">
    <g id="ytick_1">
     <g id="line2d_10">
      <defs>
       <path d="M 0 0 
L -3.5 0 
" id="m248697534a" style="stroke:#000000;stroke-width:0.8;"/>
      </defs>
      <g>
       <use style="stroke:#000000;stroke-width:0.8;" x="57.6" xlink:href="#m248697534a" y="299.213319"/>
      </g>
     </g>
     <g id="text_11">
      <!-- 0.0 -->
      <g transform="translate(34.696875 303.012538)scale(0.1 -0.1)">
       <defs>
        <path d="M 684 794 
L 1344 794 
L 1344 0 
L 684 0 
L 684 794 
z
" id="DejaVuSans-2e" transform="scale(0.015625)"/>
       </defs>
       <use xlink:href="#DejaVuSans-30"/>
       <use x="63.623047" xlink:href="#DejaVuSans-2e"/>
       <use x="95.410156" xlink:href="#DejaVuSans-30"/>
      </g>
     </g>
    </g>
    <g id="ytick_2">
     <g id="line2d_11">
      <g>
       <use style="stroke:#000000;stroke-width:0.8;" x="57.6" xlink:href="#m248697534a" y="268.439143"/>
      </g>
     </g>
     <g id="text_12">
      <!-- 0.2 -->
      <g transform="translate(34.696875 272.238362)scale(0.1 -0.1)">
       <use xlink:href="#DejaVuSans-30"/>
       <use x="63.623047" xlink:href="#DejaVuSans-2e"/>
       <use x="95.410156" xlink:href="#DejaVuSans-32"/>
      </g>
     </g>
    </g>
    <g id="ytick_3">
     <g id="line2d_12">
      <g>
       <use style="stroke:#000000;stroke-width:0.8;" x="57.6" xlink:href="#m248697534a" y="237.664967"/>
      </g>
     </g>
     <g id="text_13">
      <!-- 0.4 -->
      <g transform="translate(34.696875 241.464186)scale(0.1 -0.1)">
       <use xlink:href="#DejaVuSans-30"/>
       <use x="63.623047" xlink:href="#DejaVuSans-2e"/>
       <use x="95.410156" xlink:href="#DejaVuSans-34"/>
      </g>
     </g>
    </g>
    <g id="ytick_4">
     <g id="line2d_13">
      <g>
       <use style="stroke:#000000;stroke-width:0.8;" x="57.6" xlink:href="#m248697534a" y="206.890792"/>
      </g>
     </g>
     <g id="text_14">
      <!-- 0.6 -->
      <g transform="translate(34.696875 210.69001)scale(0.1 -0.1)">
       <use xlink:href="#DejaVuSans-30"/>
       <use x="63.623047" xlink:href="#DejaVuSans-2e"/>
       <use x="95.410156" xlink:href="#DejaVuSans-36"/>
      </g>
     </g>
    </g>
    <g id="ytick_5">
     <g id="line2d_14">
      <g>
       <use style="stroke:#000000;stroke-width:0.8;" x="57.6" xlink:href="#m248697534a" y="176.116616"/>
      </g>
     </g>
     <g id="text_15">
      <!-- 0.8 -->
      <g transform="translate(34.696875 179.915834)scale(0.1 -0.1)">
       <use xlink:href="#DejaVuSans-30"/>
       <use x="63.623047" xlink:href="#DejaVuSans-2e"/>
       <use x="95.410156" xlink:href="#DejaVuSans-38"/>
      </g>
     </g>
    </g>
    <g id="ytick_6">
     <g id="line2d_15">
      <g>
       <use style="stroke:#000000;stroke-width:0.8;" x="57.6" xlink:href="#m248697534a" y="145.34244"/>
      </g>
     </g>
     <g id="text_16">
      <!-- 1.0 -->
      <g transform="translate(34.696875 149.141658)scale(0.1 -0.1)">
       <use xlink:href="#DejaVuSans-31"/>
       <use x="63.623047" xlink:href="#DejaVuSans-2e"/>
       <use x="95.410156" xlink:href="#DejaVuSans-30"/>
      </g>
     </g>
    </g>
    <g id="ytick_7">
     <g id="line2d_16">
      <g>
       <use style="stroke:#000000;stroke-width:0.8;" x="57.6" xlink:href="#m248697534a" y="114.568264"/>
      </g>
     </g>
     <g id="text_17">
      <!-- 1.2 -->
      <g transform="translate(34.696875 118.367482)scale(0.1 -0.1)">
       <use xlink:href="#DejaVuSans-31"/>
       <use x="63.623047" xlink:href="#DejaVuSans-2e"/>
       <use x="95.410156" xlink:href="#DejaVuSans-32"/>
      </g>
     </g>
    </g>
    <g id="ytick_8">
     <g id="line2d_17">
      <g>
       <use style="stroke:#000000;stroke-width:0.8;" x="57.6" xlink:href="#m248697534a" y="83.794088"/>
      </g>
     </g>
     <g id="text_18">
      <!-- 1.4 -->
      <g transform="translate(34.696875 87.593306)scale(0.1 -0.1)">
       <use xlink:href="#DejaVuSans-31"/>
       <use x="63.623047" xlink:href="#DejaVuSans-2e"/>
       <use x="95.410156" xlink:href="#DejaVuSans-34"/>
      </g>
     </g>
    </g>
    <g id="ytick_9">
     <g id="line2d_18">
      <g>
       <use style="stroke:#000000;stroke-width:0.8;" x="57.6" xlink:href="#m248697534a" y="53.019912"/>
      </g>
     </g>
     <g id="text_19">
      <!-- 1.6 -->
      <g transform="translate(34.696875 56.819131)scale(0.1 -0.1)">
       <use xlink:href="#DejaVuSans-31"/>
       <use x="63.623047" xlink:href="#DejaVuSans-2e"/>
       <use x="95.410156" xlink:href="#DejaVuSans-36"/>
      </g>
     </g>
    </g>
   </g>
   <g id="line2d_19">
    <path clip-path="url(#p5d9277b272)" d="M 73.832727 82.870403 
L 74.035763 106.752636 
L 74.238799 151.600743 
L 74.441835 134.915125 
L 74.847907 123.532869 
L 75.050943 95.873997 
L 75.253979 113.683422 
L 75.457015 82.587745 
L 75.660051 93.013997 
L 75.863087 96.328624 
L 76.066123 118.661339 
L 76.269159 53.568 
L 76.472195 116.839217 
L 76.675231 109.007678 
L 76.878267 128.499426 
L 77.081303 124.213919 
L 77.284339 113.136661 
L 77.487375 149.718837 
L 77.690411 128.908488 
L 77.893447 84.137046 
L 78.096483 119.723813 
L 78.299519 106.107811 
L 78.502555 109.130576 
L 78.705591 81.312615 
L 78.908627 111.644002 
L 79.111663 83.635787 
L 79.314699 111.442715 
L 79.517735 121.537915 
L 79.720771 118.355451 
L 79.923807 129.740479 
L 80.126843 102.684371 
L 80.532915 135.181404 
L 80.735951 127.846355 
L 80.938987 131.805044 
L 81.142023 94.773628 
L 81.345059 116.2435 
L 81.548095 183.609115 
L 81.751131 111.238777 
L 82.563275 133.81693 
L 82.766311 144.391156 
L 82.969347 125.068052 
L 83.172383 121.726727 
L 83.578455 94.943549 
L 83.781491 140.94686 
L 84.187563 95.305531 
L 84.390599 118.425372 
L 84.593635 119.760517 
L 84.796671 124.533279 
L 84.999707 118.327894 
L 85.202743 106.638801 
L 85.405779 145.615325 
L 85.608815 116.326677 
L 85.811851 148.672647 
L 86.014887 117.700264 
L 86.217923 135.163255 
L 86.420959 102.986434 
L 86.623995 112.331959 
L 86.827031 142.438703 
L 87.030067 148.628716 
L 87.233103 85.913875 
L 87.436138 80.493764 
L 87.639174 112.209501 
L 87.84221 75.48873 
L 88.045246 132.373398 
L 88.248282 135.942186 
L 88.451318 151.532477 
L 88.654354 121.426038 
L 88.85739 120.80539 
L 89.060426 95.164223 
L 89.263462 150.132057 
L 89.466498 137.504113 
L 89.669534 113.063333 
L 89.87257 117.447535 
L 90.075606 108.516939 
L 90.278642 116.723812 
L 90.481678 107.921624 
L 90.684714 115.176741 
L 90.88775 143.951079 
L 91.090786 102.789548 
L 91.293822 112.876629 
L 91.496858 107.34278 
L 91.699894 134.12542 
L 91.90293 99.314346 
L 92.105966 110.947683 
L 92.309002 108.027962 
L 92.512038 119.368136 
L 92.715074 112.840869 
L 92.91811 137.949455 
L 93.121146 125.766348 
L 93.324182 122.025978 
L 93.527218 139.598041 
L 93.730254 137.687583 
L 93.93329 132.964748 
L 94.136326 112.36023 
L 94.339362 116.903794 
L 94.542398 159.660326 
L 94.745434 127.876212 
L 94.94847 157.040702 
L 95.151506 93.413593 
L 95.354542 190.1741 
L 95.557578 151.817272 
L 95.760614 152.554352 
L 95.96365 101.683851 
L 96.166686 100.511652 
L 96.369722 124.183505 
L 96.572758 127.53661 
L 96.775794 145.648231 
L 97.181866 100.188031 
L 97.99401 154.862004 
L 98.197046 98.352935 
L 98.400082 107.556843 
L 98.603118 123.203988 
L 98.806154 124.036234 
L 99.00919 70.067395 
L 99.415262 142.703536 
L 99.618298 126.653359 
L 99.821334 130.236999 
L 100.02437 128.943789 
L 100.227406 135.169064 
L 100.430442 118.849511 
L 100.633478 150.182749 
L 100.836514 106.268082 
L 101.03955 134.387988 
L 101.242586 101.232644 
L 101.445622 148.090346 
L 101.648658 144.521884 
L 101.851694 132.987882 
L 102.05473 147.61227 
L 102.257766 109.80607 
L 102.460802 144.248091 
L 102.663838 132.275795 
L 102.866874 127.970247 
L 103.06991 163.187658 
L 103.272946 153.621668 
L 103.475982 131.005879 
L 103.679018 181.428088 
L 103.882054 85.3709 
L 104.288126 170.080824 
L 104.694198 143.668177 
L 104.897233 150.626086 
L 105.100269 151.294546 
L 105.303305 186.009651 
L 105.506341 125.687116 
L 105.709377 139.319127 
L 106.115449 131.049037 
L 106.521521 157.186997 
L 106.724557 149.659774 
L 106.927593 132.759121 
L 107.130629 170.058745 
L 107.333665 170.468437 
L 107.536701 183.016742 
L 107.739737 152.532951 
L 107.942773 183.965626 
L 108.145809 174.987162 
L 108.348845 129.681793 
L 108.551881 147.187401 
L 108.754917 176.18414 
L 108.957953 171.329203 
L 109.160989 150.380571 
L 109.364025 146.135658 
L 109.567061 162.858906 
L 109.770097 128.527154 
L 109.973133 172.956371 
L 110.176169 142.378947 
L 110.379205 142.829232 
L 110.582241 152.478063 
L 110.785277 129.206934 
L 111.191349 208.920997 
L 111.597421 131.57556 
L 111.800457 148.633357 
L 112.003493 127.313848 
L 112.206529 154.260378 
L 112.409565 165.061324 
L 112.612601 161.196889 
L 112.815637 126.331891 
L 113.221709 161.58476 
L 113.424745 144.590465 
L 113.830817 184.551608 
L 114.033853 168.026404 
L 114.236889 169.340202 
L 114.439925 163.396753 
L 114.642961 136.294523 
L 114.845997 178.521147 
L 115.049033 164.198295 
L 115.252069 159.059096 
L 115.455105 171.946529 
L 115.658141 172.247159 
L 115.861177 141.769565 
L 116.064213 186.328047 
L 116.267249 160.427621 
L 116.470285 172.868597 
L 116.673321 161.410323 
L 116.876357 199.316156 
L 117.282429 163.131005 
L 117.688501 185.010411 
L 117.891537 162.565552 
L 118.094573 159.737637 
L 118.297609 151.285119 
L 118.500645 120.807545 
L 118.703681 131.549892 
L 118.906717 171.402767 
L 119.109753 171.006529 
L 119.312789 154.094915 
L 119.515825 150.738314 
L 119.718861 127.650715 
L 119.921897 147.991148 
L 120.124933 183.943839 
L 120.327969 150.448386 
L 120.734041 186.257207 
L 120.937077 196.791039 
L 121.140113 162.538335 
L 121.343149 161.420794 
L 121.546185 195.657799 
L 121.749221 195.160109 
L 121.952257 158.351273 
L 122.155293 158.008104 
L 122.561364 176.43366 
L 122.967436 148.368248 
L 123.170472 158.112659 
L 123.373508 178.627788 
L 123.576544 161.308265 
L 123.77958 199.672798 
L 124.388688 148.380239 
L 124.591724 178.788668 
L 124.997796 191.647295 
L 125.200832 186.090341 
L 125.403868 184.782514 
L 125.606904 161.792709 
L 125.80994 169.779918 
L 126.012976 169.436136 
L 126.216012 151.47701 
L 126.419048 188.366015 
L 126.622084 194.172699 
L 127.028156 160.416403 
L 127.231192 195.427332 
L 127.434228 195.485095 
L 127.637264 167.082184 
L 127.8403 197.639942 
L 128.043336 207.257558 
L 128.246372 207.478226 
L 128.449408 154.212385 
L 128.652444 158.491852 
L 128.85548 177.859793 
L 129.058516 208.664131 
L 129.464588 166.470761 
L 129.667624 154.522193 
L 129.87066 187.436871 
L 130.073696 192.660123 
L 130.276732 191.859955 
L 130.479768 162.854315 
L 130.682804 186.495294 
L 130.88584 192.475325 
L 131.088876 224.170362 
L 131.291912 188.834505 
L 131.494948 182.864229 
L 131.697984 193.184562 
L 131.90102 170.417568 
L 132.104056 194.501028 
L 132.510128 179.688431 
L 132.713164 173.833126 
L 132.9162 178.525176 
L 133.119236 196.218881 
L 133.322272 196.347054 
L 133.525308 177.30148 
L 133.728344 210.901674 
L 133.93138 186.863459 
L 134.134416 190.139405 
L 134.337452 199.735403 
L 134.540488 177.34221 
L 134.743524 202.344595 
L 135.352632 183.005029 
L 135.555668 180.923169 
L 135.758704 212.63749 
L 135.96174 205.941336 
L 136.164776 205.23372 
L 136.570848 181.33061 
L 136.773884 180.992146 
L 136.97692 201.399933 
L 137.179956 169.285488 
L 137.382992 218.50809 
L 137.586028 182.022111 
L 137.789064 192.455145 
L 137.9921 211.146886 
L 138.195136 202.142338 
L 138.398172 201.903875 
L 138.601208 205.39328 
L 139.00728 216.786793 
L 139.210316 211.428726 
L 139.413352 200.756018 
L 139.616388 210.493574 
L 139.819424 202.252212 
L 140.022459 205.057143 
L 140.225495 184.927123 
L 140.428531 209.563261 
L 140.834603 182.783635 
L 141.037639 198.506833 
L 141.240675 194.241891 
L 141.443711 196.262915 
L 141.646747 175.440446 
L 141.849783 199.13609 
L 142.052819 184.294425 
L 142.255855 188.797207 
L 142.458891 196.177763 
L 142.661927 208.201744 
L 142.864963 190.88075 
L 143.067999 199.113251 
L 143.271035 199.101103 
L 143.474071 208.032115 
L 143.880143 185.506853 
L 144.083179 204.039393 
L 144.286215 203.764691 
L 144.489251 178.416685 
L 144.692287 203.846888 
L 145.098359 199.121825 
L 145.301395 200.328269 
L 145.504431 176.387349 
L 145.707467 204.602298 
L 145.910503 210.682679 
L 146.113539 187.907001 
L 146.316575 189.086714 
L 146.519611 196.428432 
L 146.722647 220.416066 
L 146.925683 202.550253 
L 147.128719 194.752274 
L 147.331755 223.754021 
L 147.534791 199.3833 
L 147.737827 193.59502 
L 148.143899 213.545964 
L 148.346935 184.782126 
L 148.549971 209.386461 
L 148.753007 200.056567 
L 149.159079 219.561188 
L 149.362115 196.515491 
L 149.565151 210.632096 
L 149.768187 189.907419 
L 149.971223 201.429216 
L 150.174259 198.424123 
L 150.377295 212.516239 
L 150.580331 209.767862 
L 150.783367 188.965986 
L 150.986403 193.815803 
L 151.189439 184.47707 
L 151.392475 220.573468 
L 151.595511 217.155795 
L 151.798547 198.369704 
L 152.001583 204.325021 
L 152.204619 202.316899 
L 152.610691 215.240702 
L 152.813727 220.061248 
L 153.016763 194.28536 
L 153.219799 193.727245 
L 153.422835 224.191789 
L 153.625871 202.072704 
L 153.828907 200.794791 
L 154.031943 203.003172 
L 154.234979 217.359696 
L 154.438015 211.574459 
L 154.641051 210.426381 
L 154.844087 193.989151 
L 155.047123 214.972319 
L 155.250159 205.467135 
L 155.453195 217.629109 
L 155.859267 197.857287 
L 156.062303 198.0992 
L 156.265339 218.451983 
L 156.671411 207.066083 
L 157.077483 221.926902 
L 157.280519 204.942843 
L 157.483554 208.691313 
L 157.68659 220.08669 
L 157.889626 208.536616 
L 158.092662 216.019509 
L 158.295698 189.267785 
L 158.498734 217.900351 
L 158.70177 192.766379 
L 159.107842 227.648674 
L 159.310878 224.04849 
L 159.513914 224.44925 
L 159.71695 213.760047 
L 159.919986 191.259831 
L 160.123022 204.989348 
L 160.326058 207.28869 
L 160.529094 229.157795 
L 160.73213 204.731607 
L 160.935166 217.108145 
L 161.138202 202.668076 
L 161.341238 210.116797 
L 161.544274 212.813349 
L 161.74731 208.306216 
L 161.950346 210.571878 
L 162.153382 204.021895 
L 162.356418 222.544567 
L 162.559454 212.488844 
L 162.76249 210.515721 
L 162.965526 212.21711 
L 163.168562 208.755407 
L 163.574634 189.521831 
L 163.77767 217.228866 
L 164.183742 206.133045 
L 164.386778 207.642774 
L 164.79285 217.042854 
L 164.995886 190.494501 
L 165.198922 194.03236 
L 165.401958 208.430805 
L 165.604994 205.699191 
L 165.80803 216.683107 
L 166.214102 208.323296 
L 166.417138 200.659034 
L 166.620174 202.93304 
L 166.82321 219.465242 
L 167.026246 207.784311 
L 167.229282 222.775348 
L 167.432318 215.431708 
L 167.635354 220.974018 
L 167.83839 214.099048 
L 168.041426 213.302065 
L 168.244462 218.124003 
L 168.447498 210.590782 
L 168.650534 210.735574 
L 168.85357 216.547829 
L 169.056606 214.599939 
L 169.259642 216.368115 
L 169.462678 225.719957 
L 169.665714 222.109948 
L 169.86875 209.46357 
L 170.071786 216.625915 
L 170.274822 216.592979 
L 170.477858 203.367051 
L 170.680894 204.693487 
L 170.88393 210.266414 
L 171.086966 229.592077 
L 171.290002 206.962406 
L 171.493038 214.232427 
L 171.696074 211.600776 
L 171.89911 216.24653 
L 172.102146 228.144491 
L 172.305182 223.712648 
L 172.508218 222.488356 
L 172.711254 222.375668 
L 172.91429 224.779577 
L 173.117326 231.478283 
L 173.320362 200.724727 
L 173.523398 228.949941 
L 173.726434 223.970615 
L 173.92947 223.925723 
L 174.132506 196.432441 
L 174.335542 223.986914 
L 174.538578 211.462943 
L 174.741614 212.403712 
L 174.944649 214.653097 
L 175.147685 228.162109 
L 175.350721 187.392759 
L 175.553757 225.040588 
L 175.756793 233.903534 
L 175.959829 213.465484 
L 176.365901 227.981919 
L 176.568937 227.688426 
L 176.771973 222.80172 
L 176.975009 225.612998 
L 177.178045 215.408112 
L 177.584117 222.131731 
L 177.787153 234.193319 
L 177.990189 227.695107 
L 178.193225 230.161258 
L 178.396261 218.897239 
L 178.599297 228.743063 
L 178.802333 229.411561 
L 179.005369 223.536284 
L 179.208405 237.958324 
L 179.411441 222.5315 
L 179.614477 222.87534 
L 179.817513 200.79454 
L 180.020549 233.490581 
L 180.223585 228.6691 
L 180.426621 228.749512 
L 180.629657 218.397059 
L 180.832693 218.790821 
L 181.035729 224.870389 
L 181.238765 238.372994 
L 181.441801 217.464862 
L 181.644837 239.447182 
L 181.847873 206.958177 
L 182.050909 225.875633 
L 182.253945 201.166089 
L 182.456981 228.668958 
L 182.660017 236.582717 
L 182.863053 210.372157 
L 183.269125 226.325122 
L 183.472161 225.690908 
L 183.675197 232.712047 
L 183.878233 234.510631 
L 184.081269 230.360353 
L 184.284305 232.916988 
L 184.487341 227.43548 
L 184.690377 228.421695 
L 184.893413 224.130912 
L 185.096449 231.55663 
L 185.299485 247.629179 
L 185.502521 227.920357 
L 185.705557 237.533908 
L 185.908593 235.612919 
L 186.111629 216.645119 
L 186.314665 213.956567 
L 186.517701 208.733512 
L 186.720737 212.819475 
L 186.923773 223.903038 
L 187.126809 248.600121 
L 187.329845 222.643996 
L 187.532881 216.528298 
L 187.938953 228.612998 
L 188.141989 222.948015 
L 188.345025 231.856382 
L 188.548061 230.365035 
L 188.751097 230.824253 
L 188.954133 225.878477 
L 189.157169 250.198781 
L 189.360205 231.575468 
L 189.766277 233.274852 
L 189.969313 240.202736 
L 190.172349 222.761763 
L 190.781457 233.686802 
L 190.984493 231.947933 
L 191.187529 229.025971 
L 191.390565 220.694633 
L 191.796637 226.628112 
L 192.202709 242.858305 
L 192.405744 230.119136 
L 192.60878 230.950142 
L 192.811816 228.054556 
L 193.014852 216.388388 
L 193.217888 220.947883 
L 193.420924 218.942863 
L 193.62396 230.34684 
L 193.826996 225.784261 
L 194.030032 230.774484 
L 194.233068 226.864475 
L 194.436104 242.082634 
L 194.63914 237.098037 
L 194.842176 224.368447 
L 195.045212 225.279094 
L 195.248248 235.965192 
L 195.451284 228.404213 
L 195.65432 228.933082 
L 195.857356 247.662301 
L 196.060392 234.971552 
L 196.263428 237.733418 
L 196.466464 238.23113 
L 196.6695 226.872777 
L 196.872536 234.452357 
L 197.075572 231.845053 
L 197.278608 209.85757 
L 197.481644 235.370432 
L 197.68468 235.419056 
L 197.887716 250.456678 
L 198.090752 229.429013 
L 198.496824 239.550729 
L 198.69986 238.166439 
L 198.902896 235.390143 
L 199.105932 255.84738 
L 199.308968 215.985135 
L 199.71504 233.978548 
L 199.918076 213.609239 
L 200.324148 240.281436 
L 200.527184 238.703373 
L 200.73022 249.8894 
L 200.933256 231.143909 
L 201.136292 240.70876 
L 201.339328 240.854334 
L 201.542364 237.462535 
L 201.7454 228.44769 
L 201.948436 231.10642 
L 202.151472 229.017145 
L 202.354508 244.220129 
L 202.557544 243.180988 
L 202.76058 237.536001 
L 202.963616 242.963062 
L 203.166652 244.149251 
L 203.369688 225.615062 
L 203.572724 241.294377 
L 203.77576 231.271277 
L 203.978796 239.260959 
L 204.181832 232.93949 
L 204.587904 253.164704 
L 204.79094 220.642029 
L 204.993976 220.786356 
L 205.400048 241.334698 
L 205.603084 220.257389 
L 205.80612 250.394713 
L 206.009156 246.057682 
L 206.212192 247.165458 
L 206.415228 251.073511 
L 206.618264 234.579717 
L 206.8213 236.368874 
L 207.024336 252.761563 
L 207.227372 250.634107 
L 207.430408 247.194015 
L 207.633444 235.786411 
L 207.83648 251.094919 
L 208.039516 249.927935 
L 208.242552 240.228814 
L 208.445588 256.472789 
L 208.648624 242.96 
L 208.85166 238.742541 
L 209.054696 237.104174 
L 209.257732 224.075458 
L 209.460768 252.811339 
L 209.663804 243.728077 
L 209.86684 241.189395 
L 210.069875 234.013637 
L 210.272911 240.373261 
L 210.475947 251.075349 
L 210.678983 233.752262 
L 210.882019 252.412798 
L 211.288091 234.088027 
L 211.491127 252.38901 
L 211.694163 249.460545 
L 212.100235 255.032401 
L 212.303271 249.67753 
L 212.506307 253.705621 
L 212.709343 241.358454 
L 212.912379 236.651552 
L 213.115415 248.689489 
L 213.318451 244.511099 
L 213.521487 223.27228 
L 213.724523 244.438738 
L 214.130595 239.03776 
L 214.333631 230.199754 
L 214.739703 246.115728 
L 214.942739 244.208157 
L 215.145775 253.664915 
L 215.348811 230.68803 
L 215.551847 257.687839 
L 215.957919 244.876035 
L 216.160955 251.691201 
L 216.363991 252.996646 
L 216.770063 236.5899 
L 216.973099 250.67279 
L 217.379171 242.321343 
L 217.582207 244.141157 
L 217.785243 247.45031 
L 217.988279 245.521139 
L 218.191315 238.501565 
L 218.597387 261.868504 
L 218.800423 236.528329 
L 219.003459 242.232087 
L 219.206495 252.81128 
L 219.409531 246.564424 
L 219.612567 246.843652 
L 219.815603 246.78419 
L 220.018639 254.893044 
L 220.221675 251.751943 
L 220.424711 244.083235 
L 220.627747 249.897772 
L 220.830783 230.885405 
L 221.033819 255.498444 
L 221.439891 236.369385 
L 221.845963 260.416249 
L 222.048999 259.623102 
L 222.252035 246.110376 
L 222.455071 247.867788 
L 222.658107 243.294192 
L 222.861143 253.472008 
L 223.064179 254.047529 
L 223.267215 257.080266 
L 223.470251 238.181128 
L 223.673287 254.56407 
L 223.876323 246.69126 
L 224.079359 247.449178 
L 224.282395 251.781963 
L 224.485431 242.537291 
L 224.688467 241.233747 
L 224.891503 224.531562 
L 225.297575 239.34368 
L 225.703647 245.995015 
L 225.906683 249.293773 
L 226.109719 243.954355 
L 226.515791 261.191029 
L 226.718827 248.186195 
L 226.921863 257.731805 
L 227.124899 253.24015 
L 227.327935 245.219611 
L 227.53097 247.886542 
L 227.937042 261.945708 
L 228.343114 246.664363 
L 228.54615 257.347127 
L 228.749186 249.889422 
L 228.952222 252.36151 
L 229.155258 247.535341 
L 229.358294 259.075132 
L 229.56133 254.580345 
L 229.764366 259.717961 
L 229.967402 259.840474 
L 230.170438 260.848564 
L 230.373474 244.511252 
L 230.57651 242.953051 
L 230.779546 248.488524 
L 230.982582 241.753447 
L 231.185618 256.738962 
L 231.388654 250.781805 
L 231.59169 238.49333 
L 231.997762 250.429151 
L 232.403834 258.994248 
L 232.60687 251.545612 
L 232.809906 253.585173 
L 233.215978 244.508242 
L 233.419014 252.408718 
L 233.62205 248.301107 
L 233.825086 259.010779 
L 234.231158 252.74493 
L 234.434194 256.806448 
L 234.63723 264.577004 
L 234.840266 254.932299 
L 235.043302 275.100084 
L 235.246338 256.321385 
L 235.449374 267.496883 
L 235.65241 255.684618 
L 235.855446 259.339223 
L 236.058482 255.358843 
L 236.261518 263.398908 
L 236.464554 250.016666 
L 236.66759 266.286466 
L 237.073662 247.450026 
L 237.276698 255.81776 
L 237.479734 248.837372 
L 237.68277 254.240231 
L 237.885806 252.078463 
L 238.088842 257.683662 
L 238.291878 258.025454 
L 238.494914 246.532403 
L 238.69795 265.432615 
L 239.104022 260.984358 
L 239.307058 255.479132 
L 239.510094 270.63107 
L 239.71313 254.463227 
L 239.916166 251.156644 
L 240.322238 259.602424 
L 240.525274 246.651269 
L 240.72831 260.231449 
L 240.931346 259.371686 
L 241.134382 252.927116 
L 241.337418 267.908867 
L 241.540454 254.586121 
L 241.74349 262.292997 
L 241.946526 260.858096 
L 242.149562 261.668926 
L 242.352598 264.733254 
L 242.555634 266.115252 
L 242.75867 259.340885 
L 242.961706 263.316628 
L 243.164742 261.925534 
L 243.367778 252.672408 
L 243.570814 255.968495 
L 243.77385 248.649832 
L 243.976886 248.545196 
L 244.179922 267.723897 
L 244.382958 261.679711 
L 244.585994 264.510188 
L 244.78903 262.294042 
L 245.195101 273.905555 
L 245.398137 265.042665 
L 245.601173 265.564507 
L 245.804209 259.988172 
L 246.007245 249.294114 
L 246.210281 258.855541 
L 246.413317 260.773362 
L 246.616353 265.611847 
L 246.819389 258.06069 
L 247.022425 263.603873 
L 247.225461 259.47251 
L 247.428497 262.335909 
L 247.631533 269.347437 
L 247.834569 250.117029 
L 248.240641 272.768853 
L 248.443677 255.6983 
L 248.646713 272.668861 
L 248.849749 262.768142 
L 249.052785 267.804363 
L 249.255821 259.321214 
L 249.458857 274.490508 
L 249.661893 272.731205 
L 249.864929 274.150155 
L 250.067965 273.648076 
L 250.271001 260.369135 
L 250.474037 273.753451 
L 250.880109 257.552658 
L 251.083145 272.036652 
L 251.489217 256.182159 
L 251.692253 256.199863 
L 251.895289 262.166453 
L 252.098325 262.139203 
L 252.301361 272.178368 
L 252.504397 274.706219 
L 252.707433 268.988432 
L 252.910469 272.822951 
L 253.113505 269.543143 
L 253.316541 274.90806 
L 253.722613 254.300658 
L 253.925649 258.987766 
L 254.128685 276.003056 
L 254.331721 258.327608 
L 254.534757 254.461233 
L 254.737793 270.824092 
L 255.143865 248.129437 
L 255.346901 245.78811 
L 255.549937 256.303535 
L 255.752973 250.043697 
L 255.956009 263.415964 
L 256.159045 258.573547 
L 256.362081 264.835773 
L 256.565117 262.173223 
L 256.768153 262.867507 
L 256.971189 271.867731 
L 257.174225 264.319566 
L 257.377261 272.809883 
L 257.580297 266.196911 
L 257.783333 267.186638 
L 257.986369 270.121053 
L 258.189405 253.372126 
L 258.392441 267.508147 
L 258.595477 269.665813 
L 259.001549 253.223111 
L 259.204585 273.203146 
L 259.407621 272.489257 
L 259.610657 253.758384 
L 259.813693 269.907522 
L 260.016729 263.917612 
L 260.422801 270.477609 
L 260.625837 270.971943 
L 260.828873 266.4946 
L 261.031909 258.284277 
L 261.234945 276.193538 
L 261.641017 255.03568 
L 261.844053 263.24398 
L 262.047089 259.827258 
L 262.45316 276.266552 
L 262.656196 273.65324 
L 263.062268 253.971339 
L 263.265304 265.596638 
L 263.46834 270.84395 
L 263.671376 260.489682 
L 264.077448 275.297236 
L 264.280484 256.523288 
L 264.48352 262.327719 
L 264.686556 256.503296 
L 264.889592 275.909788 
L 265.092628 273.972843 
L 265.295664 267.37008 
L 265.701736 280.317599 
L 265.904772 270.755519 
L 266.107808 275.689584 
L 266.310844 276.26831 
L 266.51388 266.454172 
L 266.716916 270.538886 
L 266.919952 262.986915 
L 267.122988 266.653894 
L 267.326024 266.890917 
L 267.52906 274.352068 
L 267.732096 261.672282 
L 267.935132 277.468328 
L 268.138168 276.615635 
L 268.341204 276.75001 
L 268.747276 280.075574 
L 268.950312 276.862462 
L 269.153348 278.147887 
L 269.356384 280.935341 
L 269.55942 270.312969 
L 269.762456 270.334815 
L 269.965492 271.983402 
L 270.168528 260.834241 
L 270.371564 276.549127 
L 270.5746 276.660484 
L 270.777636 227.584914 
L 271.183708 265.720849 
L 271.386744 270.358935 
L 271.58978 278.551252 
L 271.792816 262.959748 
L 272.198888 280.208162 
L 272.401924 274.840478 
L 272.60496 275.485108 
L 272.807996 267.686539 
L 273.011032 267.946731 
L 273.214068 253.375493 
L 273.417104 268.507115 
L 273.62014 260.93924 
L 273.823176 263.044715 
L 274.026212 259.262237 
L 274.229248 270.920719 
L 274.432284 271.981663 
L 274.63532 271.728319 
L 274.838356 268.641595 
L 275.041392 272.097844 
L 275.244428 262.956325 
L 275.447464 269.619509 
L 275.853536 274.462951 
L 276.056572 264.386055 
L 276.259608 269.022434 
L 276.462644 261.070341 
L 276.66568 273.370453 
L 277.071752 270.213048 
L 277.274788 267.23607 
L 277.477824 275.031914 
L 277.68086 274.566349 
L 278.086932 265.295112 
L 278.289968 269.21127 
L 278.493004 269.479867 
L 278.899076 281.406695 
L 279.102112 268.848663 
L 279.305148 272.932214 
L 279.508184 266.875018 
L 279.914256 268.819591 
L 280.117291 268.321139 
L 280.320327 271.617827 
L 280.523363 266.298941 
L 280.726399 273.252295 
L 280.929435 266.264644 
L 281.132471 280.728836 
L 281.335507 272.905814 
L 281.538543 270.946867 
L 281.741579 279.107961 
L 281.944615 271.273816 
L 282.147651 277.179828 
L 282.350687 270.146619 
L 282.553723 271.499114 
L 282.756759 280.313725 
L 282.959795 275.649288 
L 283.162831 283.219944 
L 283.365867 272.028284 
L 283.568903 279.290354 
L 283.974975 268.790628 
L 284.178011 281.120346 
L 284.381047 268.731036 
L 284.584083 275.406768 
L 284.787119 269.799431 
L 284.990155 270.515081 
L 285.193191 276.618625 
L 285.396227 271.96211 
L 285.802299 277.747416 
L 286.005335 274.384391 
L 286.208371 278.976243 
L 286.411407 273.106948 
L 286.614443 284.002641 
L 286.817479 261.735873 
L 287.426587 279.276132 
L 287.832659 263.961169 
L 288.035695 275.342063 
L 288.441767 258.894698 
L 288.644803 281.064078 
L 288.847839 272.459158 
L 289.050875 273.149059 
L 289.253911 280.131923 
L 289.456947 276.485317 
L 289.863019 285.958937 
L 290.066055 283.383664 
L 290.269091 274.423964 
L 290.675163 285.927064 
L 290.878199 278.436588 
L 291.081235 282.865087 
L 291.284271 277.485778 
L 291.690343 283.507905 
L 291.893379 266.529712 
L 292.096415 266.11055 
L 292.299451 284.553289 
L 292.502487 277.010594 
L 292.705523 284.647032 
L 292.908559 275.013459 
L 293.111595 281.531125 
L 293.314631 271.378467 
L 293.517667 283.194207 
L 293.720703 273.075204 
L 293.923739 277.753344 
L 294.126775 272.869832 
L 294.329811 274.358258 
L 294.532847 268.744451 
L 294.735883 274.014332 
L 294.938919 285.327956 
L 295.141955 284.133432 
L 295.344991 274.403385 
L 295.548027 276.010141 
L 295.751063 286.417987 
L 295.954099 278.226412 
L 296.157135 277.277622 
L 296.563207 241.361867 
L 296.766243 273.282803 
L 296.969279 272.479913 
L 297.172315 274.732867 
L 297.375351 280.995797 
L 297.578386 268.888128 
L 297.984458 280.50149 
L 298.187494 258.763386 
L 298.39053 273.226689 
L 298.593566 263.450308 
L 298.796602 267.533312 
L 299.202674 278.422557 
L 299.40571 280.143002 
L 299.608746 268.289208 
L 299.811782 276.443438 
L 300.014818 269.389764 
L 300.217854 270.311127 
L 300.42089 273.338506 
L 300.623926 258.71758 
L 300.826962 258.974846 
L 301.029998 274.271198 
L 301.233034 269.296732 
L 301.639106 276.061353 
L 301.842142 271.726826 
L 302.045178 275.850942 
L 302.45125 269.617401 
L 303.060358 287.968927 
L 303.263394 287.077679 
L 303.669466 275.130835 
L 303.872502 273.008855 
L 304.075538 278.253837 
L 304.48161 281.389389 
L 304.684646 280.359434 
L 304.887682 278.325152 
L 305.090718 277.619721 
L 305.293754 267.65196 
L 305.49679 277.294206 
L 305.699826 273.034957 
L 305.902862 277.73373 
L 306.105898 276.057309 
L 306.308934 277.559652 
L 306.51197 286.181407 
L 306.715006 285.335947 
L 306.918042 281.717517 
L 307.121078 269.193656 
L 307.324114 281.827702 
L 307.52715 274.261946 
L 307.730186 278.451841 
L 307.933222 272.707159 
L 308.136258 283.958819 
L 308.339294 280.669671 
L 308.54233 275.078413 
L 308.745366 282.272189 
L 308.948402 271.875123 
L 309.151438 275.669834 
L 309.55751 273.336338 
L 309.760546 274.587201 
L 309.963582 266.958771 
L 310.369654 284.634934 
L 310.57269 277.753909 
L 310.775726 276.865187 
L 310.978762 272.581527 
L 311.181798 283.589716 
L 311.58787 277.530005 
L 311.790906 288.543661 
L 311.993942 262.8334 
L 312.196978 281.255591 
L 312.400014 278.442039 
L 312.60305 286.688001 
L 312.806086 284.064516 
L 313.009122 283.628075 
L 313.212158 278.265615 
L 313.61823 275.752093 
L 313.821266 269.224854 
L 314.024302 276.00357 
L 314.430374 280.794851 
L 314.63341 281.165041 
L 314.836446 282.438446 
L 315.039481 279.559697 
L 315.242517 268.256807 
L 315.445553 276.339332 
L 315.648589 269.82616 
L 315.851625 274.688219 
L 316.054661 287.317891 
L 316.257697 288.310622 
L 316.460733 284.364676 
L 316.663769 275.786644 
L 316.866805 279.146811 
L 317.069841 275.282678 
L 317.272877 282.56444 
L 317.475913 279.09894 
L 317.678949 283.589174 
L 318.085021 263.312878 
L 318.288057 273.081818 
L 318.491093 276.509281 
L 318.694129 287.31921 
L 318.897165 276.572997 
L 319.100201 289.586051 
L 319.303237 276.762693 
L 319.506273 290.277941 
L 319.709309 282.758967 
L 319.912345 287.761738 
L 320.115381 283.956786 
L 320.318417 284.357275 
L 320.724489 284.332517 
L 320.927525 290.717768 
L 321.130561 287.319555 
L 321.333597 280.060915 
L 321.536633 290.493181 
L 321.739669 284.690614 
L 321.942705 274.580937 
L 322.145741 282.317837 
L 322.348777 285.224003 
L 322.551813 276.268836 
L 322.754849 276.947374 
L 322.957885 283.028167 
L 323.160921 270.26296 
L 323.363957 288.3434 
L 323.566993 279.171702 
L 323.770029 276.122148 
L 323.973065 280.747657 
L 324.176101 277.655089 
L 324.379137 278.449538 
L 324.582173 271.681803 
L 324.785209 279.328935 
L 324.988245 278.400628 
L 325.191281 281.592488 
L 325.597353 291.693908 
L 325.800389 294.14286 
L 326.003425 281.879975 
L 326.206461 288.778239 
L 326.409497 274.604133 
L 326.815569 292.953723 
L 327.018605 281.388356 
L 327.424677 293.887881 
L 327.627713 275.065669 
L 328.033785 281.902477 
L 328.236821 290.544086 
L 328.439857 269.438382 
L 328.642893 267.099432 
L 328.845929 263.388412 
L 329.048965 279.032441 
L 329.252001 273.072283 
L 329.455037 273.106413 
L 329.658073 283.730176 
L 329.861109 282.824907 
L 330.064145 270.09848 
L 330.470217 282.917193 
L 330.673253 280.8285 
L 330.876289 283.874525 
L 331.079325 282.096116 
L 331.282361 271.18987 
L 331.688433 286.989953 
L 331.891469 275.450286 
L 332.094505 279.186268 
L 332.297541 285.40078 
L 332.500576 274.591629 
L 332.703612 273.481907 
L 332.906648 282.415711 
L 333.109684 270.496325 
L 333.31272 276.705857 
L 333.515756 286.7283 
L 333.718792 285.90365 
L 333.921828 282.471559 
L 334.124864 282.19621 
L 334.3279 274.428316 
L 334.530936 280.340991 
L 334.733972 269.322855 
L 334.937008 273.112456 
L 335.140044 284.01691 
L 335.34308 284.257288 
L 335.749152 274.397502 
L 335.952188 278.997791 
L 336.35826 274.365252 
L 336.561296 276.432607 
L 336.764332 281.708802 
L 336.967368 281.908338 
L 337.37344 277.870622 
L 337.576476 281.553823 
L 337.779512 290.283538 
L 337.982548 281.466535 
L 338.185584 282.000768 
L 338.38862 288.477273 
L 338.591656 278.237248 
L 338.794692 291.170382 
L 338.997728 281.057208 
L 339.200764 285.441975 
L 339.4038 271.957342 
L 339.606836 279.97373 
L 339.809872 278.250822 
L 340.012908 285.238915 
L 340.215944 286.402776 
L 340.41898 278.522171 
L 340.622016 284.560655 
L 340.825052 282.536934 
L 341.028088 285.540131 
L 341.231124 273.595742 
L 341.43416 287.024631 
L 341.637196 276.922412 
L 341.840232 294.355069 
L 342.043268 286.732832 
L 342.246304 290.657533 
L 342.44934 286.690237 
L 342.652376 292.567939 
L 342.855412 283.913295 
L 343.058448 281.799126 
L 343.261484 270.525552 
L 343.46452 272.206567 
L 343.667556 276.870706 
L 343.870592 285.820453 
L 344.073628 284.491555 
L 344.276664 286.785869 
L 344.682736 275.87558 
L 344.885772 284.979613 
L 345.088808 271.95799 
L 345.291844 280.963063 
L 345.49488 271.208981 
L 345.697916 287.989622 
L 345.900952 281.890584 
L 346.307024 291.633703 
L 346.51006 286.109331 
L 346.713096 275.716859 
L 346.916132 289.188881 
L 347.119168 278.378002 
L 347.322204 286.783609 
L 347.52524 277.268372 
L 347.728276 281.098312 
L 347.931312 276.803493 
L 348.134348 277.369814 
L 348.337384 288.052237 
L 348.54042 284.041641 
L 348.743456 283.795846 
L 348.946492 279.369493 
L 349.149528 289.587849 
L 349.352564 283.378652 
L 349.758636 291.867811 
L 349.961671 281.99405 
L 350.164707 285.270998 
L 350.367743 281.592603 
L 350.570779 290.085134 
L 350.773815 285.676464 
L 350.976851 271.762919 
L 351.179887 287.791614 
L 351.382923 275.518192 
L 351.585959 288.272618 
L 351.788995 287.663604 
L 351.992031 283.804632 
L 352.195067 290.696501 
L 352.601139 285.983232 
L 353.007211 294.539491 
L 353.210247 277.908382 
L 353.413283 284.714489 
L 353.616319 286.126825 
L 354.022391 277.300867 
L 354.225427 287.787013 
L 354.428463 282.023333 
L 354.631499 290.038306 
L 354.834535 283.847085 
L 355.037571 270.731913 
L 355.240607 290.578411 
L 355.443643 268.446962 
L 355.646679 286.058221 
L 355.849715 284.062972 
L 356.052751 278.761617 
L 356.255787 267.86935 
L 356.458823 285.135296 
L 356.661859 278.039614 
L 356.864895 290.145874 
L 357.067931 279.97371 
L 357.474003 289.351518 
L 357.880075 287.08624 
L 358.286147 284.219551 
L 358.489183 284.947446 
L 358.895255 292.712527 
L 359.098291 286.940171 
L 359.301327 290.297647 
L 359.504363 288.438765 
L 359.707399 290.013944 
L 359.910435 285.76838 
L 360.113471 288.560553 
L 360.316507 288.182388 
L 360.519543 288.46747 
L 360.722579 289.56162 
L 360.925615 288.413482 
L 361.128651 276.705297 
L 361.534723 283.308217 
L 361.737759 278.203674 
L 362.143831 285.637542 
L 362.346867 288.149282 
L 362.549903 287.632047 
L 362.752939 272.105623 
L 362.955975 290.421809 
L 363.159011 267.597357 
L 363.362047 279.084028 
L 363.768119 272.438882 
L 364.174191 280.943962 
L 364.377227 276.268348 
L 364.580263 290.14585 
L 364.783299 276.21802 
L 364.986335 282.901749 
L 365.392407 285.13676 
L 365.595443 275.702763 
L 365.798479 274.418668 
L 366.001515 284.781942 
L 366.204551 281.345623 
L 366.407587 293.228287 
L 366.610623 278.43234 
L 366.813659 287.531159 
L 367.219731 284.571782 
L 367.422767 285.695217 
L 367.625802 281.945029 
L 367.828838 291.699418 
L 368.031874 286.075805 
L 368.23491 288.527006 
L 368.437946 277.512578 
L 368.640982 282.284777 
L 368.844018 275.503312 
L 369.047054 288.147554 
L 369.25009 283.365011 
L 369.453126 287.25826 
L 369.859198 275.304805 
L 370.062234 285.656175 
L 370.26527 273.173211 
L 370.468306 290.378457 
L 370.671342 285.837254 
L 370.874378 287.031093 
L 371.077414 291.135771 
L 371.28045 279.428953 
L 371.483486 290.227314 
L 371.686522 288.236729 
L 371.889558 279.010207 
L 372.092594 292.599361 
L 372.29563 283.714133 
L 372.498666 290.329414 
L 372.701702 289.571555 
L 372.904738 287.525041 
L 373.107774 284.050544 
L 373.31081 290.282651 
L 373.513846 290.693698 
L 373.716882 279.400796 
L 373.919918 277.898033 
L 374.122954 284.411684 
L 374.32599 274.043041 
L 374.529026 280.610228 
L 374.732062 282.075623 
L 374.935098 290.697662 
L 375.138134 277.67921 
L 375.34117 285.999361 
L 375.544206 283.734581 
L 375.747242 288.918643 
L 375.950278 290.700823 
L 376.153314 286.94785 
L 376.35635 292.991824 
L 376.559386 288.603836 
L 376.762422 274.81559 
L 377.168494 291.058168 
L 377.37153 281.590405 
L 377.574566 282.528676 
L 377.777602 291.132551 
L 377.980638 271.201373 
L 378.183674 268.322122 
L 378.38671 280.812828 
L 378.589746 282.483174 
L 378.792782 288.30962 
L 378.995818 285.02732 
L 379.198854 293.795624 
L 379.40189 266.795107 
L 379.604926 280.456965 
L 379.807962 275.542537 
L 380.010998 274.340561 
L 380.214034 266.003293 
L 380.620106 287.504678 
L 380.823142 291.993893 
L 381.026178 281.727978 
L 381.229214 291.31827 
L 381.43225 281.178431 
L 381.838322 284.468529 
L 382.041358 266.969131 
L 382.244394 284.498892 
L 382.650466 292.671692 
L 382.853502 283.356632 
L 383.056538 291.764431 
L 383.259574 292.235331 
L 383.46261 288.459549 
L 383.868682 285.83608 
L 384.071718 278.610129 
L 384.274754 288.045049 
L 384.47779 288.530275 
L 384.680826 284.859739 
L 384.883862 290.241083 
L 385.086897 289.491613 
L 385.289933 289.468243 
L 385.492969 272.755817 
L 385.696005 289.16063 
L 385.899041 276.102709 
L 386.102077 276.058746 
L 386.305113 278.721896 
L 386.508149 275.311096 
L 386.711185 275.198266 
L 386.914221 287.054571 
L 387.117257 291.38484 
L 387.320293 291.886154 
L 387.523329 288.367135 
L 387.726365 272.630883 
L 387.929401 289.313579 
L 388.132437 278.360301 
L 388.538509 295.488 
L 388.741545 292.808223 
L 388.944581 285.80965 
L 389.147617 288.23743 
L 389.350653 283.261224 
L 389.553689 292.127307 
L 389.756725 282.777826 
L 389.959761 294.022213 
L 390.162797 294.279989 
L 390.365833 286.718164 
L 390.974941 276.341618 
L 391.177977 284.308559 
L 391.381013 281.449058 
L 391.584049 289.586671 
L 391.990121 283.929651 
L 392.193157 281.967361 
L 392.396193 288.102287 
L 392.599229 287.484236 
L 392.802265 293.286151 
L 393.005301 279.074178 
L 393.411373 288.682373 
L 393.614409 287.968529 
L 393.817445 294.291639 
L 394.020481 288.691232 
L 394.223517 286.471213 
L 394.426553 288.169969 
L 394.629589 271.28495 
L 394.832625 278.242026 
L 395.035661 280.086397 
L 395.238697 286.464835 
L 395.441733 284.521632 
L 395.644769 285.217934 
L 395.847805 284.097249 
L 396.050841 281.090745 
L 396.253877 286.353672 
L 396.456913 287.810674 
L 396.659949 291.662239 
L 396.862985 287.583843 
L 397.066021 287.130624 
L 397.269057 288.14849 
L 397.472093 287.504638 
L 397.675129 286.343366 
L 397.878165 281.131472 
L 398.081201 288.189844 
L 398.487273 281.523431 
L 398.487273 281.523431 
" style="fill:none;stroke:#1f77b4;stroke-linecap:square;stroke-width:1.5;"/>
   </g>
   <g id="line2d_20">
    <path clip-path="url(#p5d9277b272)" d="M 73.832727 109.51628 
L 74.035763 103.741992 
L 74.847907 121.454654 
L 75.050943 97.548812 
L 75.253979 106.549024 
L 75.457015 86.646965 
L 76.066123 132.118105 
L 76.269159 96.214115 
L 76.472195 150.923762 
L 76.675231 96.168966 
L 76.878267 107.134047 
L 77.081303 134.850971 
L 77.284339 132.921012 
L 77.487375 142.018192 
L 77.690411 107.02204 
L 77.893447 115.718678 
L 78.096483 103.647042 
L 78.502555 162.228116 
L 78.705591 115.719037 
L 78.908627 131.320655 
L 79.111663 124.352467 
L 79.314699 105.243248 
L 79.517735 133.413116 
L 79.720771 128.840153 
L 79.923807 127.532589 
L 80.126843 135.22784 
L 80.329879 113.547082 
L 80.532915 114.520184 
L 80.735951 100.577677 
L 80.938987 130.317024 
L 81.142023 109.281924 
L 81.345059 122.340737 
L 81.751131 98.947268 
L 81.954167 120.594983 
L 82.157203 104.08851 
L 82.563275 135.277961 
L 82.969347 115.69833 
L 83.172383 148.516147 
L 83.375419 106.459673 
L 83.578455 111.132467 
L 83.781491 93.361741 
L 83.984527 113.620758 
L 84.187563 105.161914 
L 84.390599 123.693708 
L 84.796671 126.244074 
L 84.999707 134.410655 
L 85.202743 160.24769 
L 85.405779 108.611228 
L 85.608815 95.727469 
L 86.014887 132.664399 
L 86.217923 105.688659 
L 86.420959 100.020887 
L 86.623995 142.045144 
L 87.233103 107.786887 
L 87.639174 131.506904 
L 87.84221 163.148836 
L 88.045246 109.964765 
L 88.248282 111.848401 
L 88.451318 165.543414 
L 88.654354 153.163229 
L 88.85739 152.483607 
L 89.060426 125.945064 
L 89.263462 129.822663 
L 89.466498 137.570821 
L 89.669534 92.632074 
L 89.87257 95.554294 
L 90.075606 141.877117 
L 90.278642 96.533041 
L 90.481678 94.308463 
L 90.684714 103.34089 
L 91.090786 139.038618 
L 91.293822 81.607461 
L 91.496858 125.340777 
L 91.699894 107.24223 
L 92.105966 118.47497 
L 92.309002 114.562494 
L 92.512038 138.542706 
L 92.715074 135.399966 
L 92.91811 146.771948 
L 93.121146 106.664514 
L 93.324182 115.526578 
L 93.527218 119.376712 
L 93.730254 135.103283 
L 93.93329 111.434434 
L 94.136326 123.875424 
L 94.339362 119.178977 
L 94.542398 117.265654 
L 94.745434 121.418185 
L 94.94847 129.308193 
L 95.151506 164.984306 
L 95.354542 147.800643 
L 95.557578 89.193763 
L 95.760614 88.787751 
L 95.96365 147.81555 
L 96.369722 99.236051 
L 96.572758 129.738679 
L 96.775794 141.542932 
L 96.97883 106.035302 
L 97.181866 156.866129 
L 97.384902 115.714335 
L 97.587938 138.671325 
L 97.99401 104.087188 
L 98.197046 131.658912 
L 98.400082 115.426989 
L 98.603118 130.482225 
L 99.00919 89.01505 
L 99.415262 143.360086 
L 99.618298 104.899837 
L 99.821334 134.31703 
L 100.02437 88.988843 
L 100.227406 151.356072 
L 100.430442 122.508664 
L 100.633478 139.670393 
L 100.836514 90.797757 
L 101.03955 144.408256 
L 101.242586 126.999422 
L 101.445622 156.869553 
L 101.648658 156.581289 
L 101.851694 166.987479 
L 102.05473 130.119798 
L 102.257766 147.54868 
L 102.460802 143.847586 
L 102.663838 130.518554 
L 103.06991 133.624789 
L 103.272946 152.404231 
L 103.475982 98.955871 
L 103.679018 161.858041 
L 103.882054 142.419644 
L 104.491162 135.532564 
L 104.694198 139.539311 
L 104.897233 151.537951 
L 105.100269 145.939904 
L 105.303305 123.156631 
L 105.506341 144.407946 
L 105.709377 151.952631 
L 105.912413 140.978165 
L 106.115449 137.4883 
L 106.318485 142.469271 
L 106.521521 166.454739 
L 106.724557 171.207457 
L 107.130629 96.837632 
L 107.536701 161.662451 
L 107.739737 144.882745 
L 107.942773 169.536202 
L 108.145809 120.796741 
L 108.348845 112.890381 
L 108.551881 98.044363 
L 108.754917 167.574841 
L 109.160989 133.544906 
L 109.364025 135.98965 
L 109.567061 166.060252 
L 109.770097 157.574225 
L 109.973133 130.488487 
L 110.176169 152.863063 
L 110.379205 115.76895 
L 110.785277 142.19491 
L 110.988313 136.016518 
L 111.191349 166.677823 
L 111.394385 154.533162 
L 111.597421 164.689203 
L 111.800457 164.140835 
L 112.003493 148.880692 
L 112.206529 151.103753 
L 112.409565 143.6071 
L 112.612601 140.332205 
L 112.815637 161.76917 
L 113.018673 156.485314 
L 113.221709 122.9146 
L 113.424745 130.325782 
L 113.627781 169.231285 
L 113.830817 152.443232 
L 114.033853 154.484971 
L 114.439925 172.209254 
L 114.642961 139.80347 
L 114.845997 143.206664 
L 115.049033 140.655087 
L 115.252069 147.958258 
L 115.455105 146.699865 
L 115.658141 155.075237 
L 115.861177 186.319429 
L 116.064213 135.780818 
L 116.267249 150.057435 
L 116.470285 149.79016 
L 116.673321 155.85926 
L 116.876357 158.216543 
L 117.079393 125.398029 
L 117.282429 162.744238 
L 117.485465 165.823232 
L 117.688501 140.771842 
L 117.891537 149.169472 
L 118.094573 169.084873 
L 118.297609 167.044568 
L 118.500645 148.668145 
L 118.703681 174.149206 
L 118.906717 131.269624 
L 119.109753 157.348739 
L 119.312789 156.989494 
L 119.515825 142.663028 
L 119.718861 146.99297 
L 119.921897 196.2297 
L 120.124933 150.674885 
L 120.327969 166.799865 
L 120.531005 160.204281 
L 120.734041 144.310026 
L 120.937077 165.569153 
L 121.140113 165.189096 
L 121.343149 149.98878 
L 121.546185 178.623093 
L 121.952257 152.511084 
L 122.358329 176.730779 
L 122.561364 152.628863 
L 122.7644 159.896484 
L 122.967436 150.32465 
L 123.170472 149.498071 
L 123.373508 190.602321 
L 123.576544 152.268434 
L 123.77958 144.516913 
L 123.982616 169.291858 
L 124.185652 150.35574 
L 124.388688 155.960634 
L 124.591724 138.563198 
L 124.79476 166.363659 
L 124.997796 130.444343 
L 125.403868 167.489215 
L 125.80994 184.313231 
L 126.012976 152.415339 
L 126.216012 148.41086 
L 126.419048 182.888152 
L 126.622084 157.015092 
L 126.82512 154.299511 
L 127.028156 154.381847 
L 127.231192 181.950617 
L 127.434228 152.610055 
L 127.637264 168.719893 
L 127.8403 143.102475 
L 128.043336 146.837871 
L 128.246372 153.136658 
L 128.449408 138.115159 
L 128.652444 151.042524 
L 128.85548 177.235924 
L 129.261552 150.997538 
L 129.464588 178.607744 
L 129.667624 161.451822 
L 129.87066 163.376708 
L 130.073696 158.418056 
L 130.276732 177.014243 
L 130.479768 150.774872 
L 130.682804 161.708014 
L 130.88584 157.107527 
L 131.088876 164.723737 
L 131.291912 147.965081 
L 131.494948 143.291237 
L 131.697984 132.967406 
L 131.90102 175.277984 
L 132.104056 157.272326 
L 132.307092 157.383421 
L 132.510128 169.566542 
L 132.713164 172.056906 
L 133.119236 152.077298 
L 133.322272 150.366796 
L 133.728344 175.812129 
L 133.93138 156.604414 
L 134.134416 157.664452 
L 134.337452 173.422648 
L 134.540488 161.438032 
L 134.743524 174.230689 
L 134.94656 173.973613 
L 135.149596 183.676719 
L 135.352632 167.983073 
L 135.555668 177.003946 
L 135.758704 173.315803 
L 135.96174 161.239213 
L 136.164776 161.989231 
L 136.367812 179.311995 
L 136.570848 161.84236 
L 136.773884 164.863107 
L 136.97692 177.657365 
L 137.179956 164.306548 
L 137.382992 181.148697 
L 137.586028 180.352966 
L 137.789064 180.742584 
L 137.9921 165.178421 
L 138.195136 177.704788 
L 138.398172 164.797606 
L 138.601208 177.960516 
L 138.804244 179.084954 
L 139.00728 179.436514 
L 139.210316 189.068899 
L 139.413352 157.126198 
L 139.616388 174.617502 
L 139.819424 160.97693 
L 140.022459 159.595033 
L 140.225495 188.786541 
L 140.631567 154.92355 
L 140.834603 176.640929 
L 141.037639 171.769678 
L 141.240675 164.103636 
L 141.443711 184.318554 
L 141.646747 166.606264 
L 141.849783 187.206815 
L 142.052819 167.346466 
L 142.255855 166.989573 
L 142.458891 154.33126 
L 142.661927 163.832831 
L 143.067999 174.08342 
L 143.271035 168.856119 
L 143.677107 174.946156 
L 143.880143 187.866984 
L 144.083179 164.365551 
L 144.286215 172.180426 
L 144.489251 155.72876 
L 144.692287 182.393964 
L 144.895323 173.450182 
L 145.098359 158.190606 
L 145.301395 172.038529 
L 145.707467 158.667483 
L 145.910503 175.000883 
L 146.113539 167.509537 
L 146.316575 170.566431 
L 146.519611 168.570721 
L 146.722647 169.971051 
L 146.925683 176.509339 
L 147.128719 171.619601 
L 147.331755 160.041027 
L 147.534791 177.621464 
L 147.737827 177.170257 
L 147.940863 177.299941 
L 148.143899 185.249788 
L 148.346935 175.866609 
L 148.549971 159.741665 
L 148.753007 167.091513 
L 148.956043 192.751086 
L 149.159079 185.107808 
L 149.362115 182.931341 
L 149.565151 170.877452 
L 149.768187 150.340319 
L 150.174259 191.247366 
L 150.377295 163.397495 
L 150.580331 172.759235 
L 150.783367 166.324592 
L 150.986403 174.040919 
L 151.189439 162.865926 
L 151.392475 165.172407 
L 151.595511 163.285813 
L 151.798547 162.853386 
L 152.204619 180.723662 
L 152.813727 153.702988 
L 153.016763 185.708924 
L 153.219799 175.01328 
L 153.625871 189.253002 
L 154.031943 162.169966 
L 154.234979 152.660107 
L 154.438015 178.190593 
L 154.641051 184.261518 
L 154.844087 172.892142 
L 155.047123 174.576097 
L 155.250159 167.024017 
L 155.453195 179.839202 
L 155.656231 180.163129 
L 155.859267 174.422687 
L 156.062303 163.192336 
L 156.265339 172.57584 
L 156.468375 176.474113 
L 156.671411 148.792334 
L 157.077483 186.843509 
L 157.280519 176.372645 
L 157.483554 180.416413 
L 157.68659 181.836564 
L 157.889626 157.115973 
L 158.092662 164.556638 
L 158.295698 179.728048 
L 158.70177 161.345568 
L 158.904806 151.160055 
L 159.107842 184.840824 
L 159.310878 167.123473 
L 159.513914 164.032909 
L 159.71695 170.735061 
L 159.919986 159.362273 
L 160.123022 168.204514 
L 160.326058 197.893838 
L 160.529094 160.878571 
L 160.73213 167.374919 
L 160.935166 163.699276 
L 161.138202 168.91912 
L 161.341238 165.716279 
L 161.544274 166.026699 
L 161.74731 177.94463 
L 161.950346 174.818643 
L 162.153382 184.200218 
L 162.356418 169.695953 
L 162.559454 172.515948 
L 162.76249 179.394153 
L 163.168562 173.083445 
L 163.371598 164.227037 
L 163.574634 179.977518 
L 163.77767 169.334402 
L 163.980706 146.663206 
L 164.183742 195.237074 
L 164.386778 174.629798 
L 164.589814 177.656478 
L 164.79285 164.930563 
L 164.995886 173.811642 
L 165.198922 169.757143 
L 165.401958 176.028886 
L 165.604994 165.280878 
L 165.80803 171.42028 
L 166.011066 169.809699 
L 166.417138 184.711956 
L 166.620174 177.747887 
L 166.82321 165.133779 
L 167.026246 187.341219 
L 167.229282 165.483048 
L 167.432318 162.849748 
L 167.635354 175.725164 
L 167.83839 179.661615 
L 168.244462 156.442786 
L 168.650534 180.234595 
L 168.85357 161.813403 
L 169.056606 160.94746 
L 169.462678 182.77507 
L 169.665714 166.875137 
L 170.071786 189.270604 
L 170.274822 174.429043 
L 170.477858 181.321003 
L 170.680894 176.349178 
L 170.88393 175.251431 
L 171.086966 177.697659 
L 171.493038 168.667463 
L 171.696074 168.857734 
L 171.89911 177.240717 
L 172.102146 163.35337 
L 172.508218 191.242092 
L 172.711254 172.632156 
L 172.91429 173.440583 
L 173.117326 172.329435 
L 173.523398 194.969714 
L 173.726434 164.495458 
L 173.92947 159.338508 
L 174.132506 165.435591 
L 174.335542 155.678529 
L 174.741614 174.35788 
L 174.944649 179.240075 
L 175.147685 168.989276 
L 175.350721 183.711395 
L 175.553757 185.208549 
L 175.756793 189.676096 
L 175.959829 171.169666 
L 176.162865 172.230599 
L 176.365901 167.379721 
L 176.568937 165.678772 
L 176.771973 186.218717 
L 176.975009 180.638824 
L 177.178045 171.816494 
L 177.584117 180.591806 
L 177.787153 156.787578 
L 177.990189 173.738079 
L 178.193225 176.60276 
L 178.396261 172.898587 
L 178.599297 177.690494 
L 178.802333 189.333214 
L 179.208405 158.512698 
L 179.411441 171.427663 
L 179.614477 195.468883 
L 180.223585 177.660386 
L 180.426621 153.741049 
L 180.629657 176.388195 
L 180.832693 180.321682 
L 181.035729 152.260783 
L 181.441801 177.829292 
L 181.644837 159.780845 
L 181.847873 169.263362 
L 182.050909 157.753822 
L 182.253945 166.740912 
L 182.456981 163.386667 
L 182.660017 184.162385 
L 182.863053 172.836789 
L 183.066089 180.940407 
L 183.269125 169.402376 
L 183.472161 173.65731 
L 183.675197 173.817429 
L 183.878233 163.015305 
L 184.081269 165.024766 
L 184.487341 147.944614 
L 184.690377 169.684766 
L 184.893413 170.154761 
L 185.299485 155.465513 
L 185.502521 169.880634 
L 185.705557 168.137576 
L 185.908593 169.723967 
L 186.111629 142.233468 
L 186.314665 178.155962 
L 186.517701 153.961173 
L 186.720737 162.3017 
L 186.923773 165.305922 
L 187.126809 185.953967 
L 187.329845 182.013592 
L 187.735917 160.752746 
L 187.938953 185.041731 
L 188.141989 172.853789 
L 188.345025 191.261944 
L 188.751097 163.653159 
L 188.954133 182.873493 
L 189.157169 152.977683 
L 189.360205 180.513357 
L 189.563241 162.46499 
L 189.766277 191.74206 
L 189.969313 175.140324 
L 190.172349 186.53831 
L 190.781457 138.694584 
L 191.187529 185.252359 
L 191.390565 160.1371 
L 191.593601 175.72737 
L 191.999673 185.004193 
L 192.202709 162.064955 
L 192.60878 187.921299 
L 192.811816 155.479997 
L 193.217888 186.291156 
L 193.420924 172.538267 
L 193.62396 171.919985 
L 193.826996 169.531756 
L 194.030032 173.933168 
L 194.233068 187.627749 
L 194.436104 177.765771 
L 194.63914 157.88633 
L 194.842176 182.419881 
L 195.045212 153.330526 
L 195.451284 180.078525 
L 195.65432 175.564628 
L 195.857356 175.547907 
L 196.060392 171.962567 
L 196.263428 182.302066 
L 196.466464 185.128188 
L 196.6695 172.134079 
L 196.872536 187.780359 
L 197.075572 171.128392 
L 197.278608 184.023313 
L 197.481644 164.991776 
L 197.68468 188.022955 
L 198.090752 176.827075 
L 198.293788 175.979004 
L 198.69986 163.030338 
L 198.902896 177.781217 
L 199.105932 178.223455 
L 199.308968 170.289143 
L 199.512004 185.614671 
L 199.71504 181.682122 
L 199.918076 171.770912 
L 200.121112 167.775951 
L 200.324148 160.751626 
L 200.527184 164.070107 
L 200.73022 165.315298 
L 200.933256 177.199227 
L 201.136292 180.350371 
L 201.542364 149.311728 
L 201.7454 175.735039 
L 201.948436 178.555087 
L 202.151472 166.610213 
L 202.354508 192.524954 
L 202.557544 154.15807 
L 202.76058 158.783103 
L 202.963616 174.631985 
L 203.166652 179.708505 
L 203.369688 180.723978 
L 203.572724 162.398869 
L 203.77576 163.372552 
L 204.181832 181.610361 
L 204.384868 171.422771 
L 204.587904 185.088363 
L 204.79094 161.970066 
L 204.993976 193.952002 
L 205.197012 174.015948 
L 205.400048 172.200493 
L 205.603084 184.230252 
L 205.80612 156.281219 
L 206.009156 150.928668 
L 206.212192 182.496904 
L 206.415228 144.337041 
L 206.618264 148.623093 
L 206.8213 184.754902 
L 207.024336 167.300537 
L 207.227372 171.952216 
L 207.633444 168.878357 
L 207.83648 180.129579 
L 208.039516 182.772567 
L 208.242552 166.44769 
L 208.445588 187.379175 
L 208.85166 162.846002 
L 209.054696 170.578858 
L 209.257732 170.231763 
L 209.460768 178.741555 
L 209.663804 163.369596 
L 209.86684 209.607222 
L 210.069875 167.651964 
L 210.272911 171.4907 
L 210.475947 163.961794 
L 210.678983 162.451628 
L 210.882019 184.493463 
L 211.085055 170.823318 
L 211.288091 173.251113 
L 211.491127 153.468658 
L 211.694163 161.599541 
L 211.897199 178.20005 
L 212.100235 179.481025 
L 212.303271 163.390219 
L 212.506307 174.357254 
L 212.709343 157.048327 
L 212.912379 168.996638 
L 213.318451 152.341607 
L 213.521487 169.363287 
L 213.724523 166.220993 
L 214.130595 179.938586 
L 214.333631 161.031439 
L 214.536667 187.419251 
L 214.739703 190.673259 
L 214.942739 166.284594 
L 215.145775 171.103474 
L 215.348811 185.917985 
L 215.551847 169.383026 
L 215.754883 178.745308 
L 215.957919 172.726188 
L 216.160955 183.884902 
L 216.363991 186.378248 
L 216.567027 180.338575 
L 216.770063 177.802407 
L 216.973099 195.520019 
L 217.176135 177.369842 
L 217.379171 175.785599 
L 217.582207 154.212067 
L 217.785243 185.186701 
L 217.988279 167.758891 
L 218.191315 178.365608 
L 218.394351 172.63409 
L 218.597387 177.290257 
L 218.800423 172.841722 
L 219.003459 165.121096 
L 219.206495 170.001005 
L 219.409531 192.592552 
L 219.612567 191.255092 
L 219.815603 152.771842 
L 220.018639 175.001637 
L 220.221675 169.591323 
L 220.424711 191.36687 
L 220.627747 164.907088 
L 220.830783 170.443373 
L 221.033819 179.96125 
L 221.439891 168.935918 
L 221.642927 169.578486 
L 221.845963 196.225637 
L 222.048999 179.097487 
L 222.252035 188.618772 
L 222.455071 182.399277 
L 222.658107 166.672098 
L 222.861143 182.076492 
L 223.064179 186.149495 
L 223.267215 184.850296 
L 223.673287 168.400543 
L 223.876323 170.466838 
L 224.079359 168.265083 
L 224.282395 179.82487 
L 224.485431 159.993008 
L 224.688467 166.332615 
L 224.891503 148.510504 
L 225.094539 186.235592 
L 225.297575 189.879769 
L 225.500611 171.474685 
L 225.703647 178.260597 
L 225.906683 193.821465 
L 226.109719 187.154557 
L 226.312755 189.407071 
L 226.515791 176.196131 
L 226.718827 178.233978 
L 226.921863 191.559768 
L 227.124899 178.169147 
L 227.327935 180.689739 
L 227.53097 166.489515 
L 227.734006 184.046417 
L 227.937042 185.788272 
L 228.140078 159.025717 
L 228.54615 186.207841 
L 228.749186 170.728436 
L 228.952222 177.320751 
L 229.155258 157.494768 
L 229.358294 203.155195 
L 229.56133 160.489179 
L 229.764366 165.523123 
L 229.967402 162.259308 
L 230.170438 156.01037 
L 230.373474 175.332117 
L 230.57651 163.634404 
L 230.779546 144.520504 
L 230.982582 181.912562 
L 231.185618 174.558364 
L 231.388654 197.058337 
L 231.794726 176.37202 
L 231.997762 198.457504 
L 232.200798 179.336976 
L 232.403834 178.289243 
L 232.60687 179.051538 
L 232.809906 182.130091 
L 233.012942 165.879811 
L 233.215978 183.884858 
L 233.419014 183.76868 
L 233.62205 191.161815 
L 233.825086 173.487299 
L 234.028122 187.573652 
L 234.231158 185.444823 
L 234.434194 168.644197 
L 234.63723 197.26302 
L 234.840266 173.455435 
L 235.043302 166.009701 
L 235.246338 183.249659 
L 235.449374 179.33558 
L 235.65241 171.70321 
L 235.855446 144.282801 
L 236.058482 160.577615 
L 236.261518 166.043221 
L 236.464554 182.970895 
L 236.66759 181.801002 
L 236.870626 157.242742 
L 237.073662 166.657142 
L 237.276698 160.738238 
L 237.479734 186.837462 
L 237.68277 176.815401 
L 237.885806 193.405684 
L 238.088842 193.630101 
L 238.291878 183.01585 
L 238.494914 181.325634 
L 238.69795 186.656491 
L 238.900986 195.616676 
L 239.104022 180.882954 
L 239.307058 181.744427 
L 239.510094 158.630343 
L 239.71313 185.769598 
L 239.916166 186.277825 
L 240.119202 171.032523 
L 240.322238 170.285464 
L 240.525274 178.06634 
L 240.72831 171.169431 
L 240.931346 179.322337 
L 241.134382 192.188886 
L 241.337418 169.601496 
L 241.540454 187.845598 
L 241.74349 167.255175 
L 241.946526 172.598158 
L 242.149562 169.233252 
L 242.352598 146.30512 
L 242.555634 180.093145 
L 242.75867 169.077467 
L 242.961706 168.627598 
L 243.164742 181.961793 
L 243.367778 183.35721 
L 243.570814 188.991285 
L 243.976886 181.280829 
L 244.179922 166.905871 
L 244.382958 184.097384 
L 244.585994 180.521262 
L 244.78903 164.930668 
L 245.398137 178.725225 
L 245.601173 177.009355 
L 245.804209 163.39806 
L 246.007245 161.343632 
L 246.210281 177.759521 
L 246.413317 168.478025 
L 246.819389 177.426787 
L 247.022425 168.392918 
L 247.225461 168.824518 
L 247.428497 174.673526 
L 247.631533 196.367169 
L 247.834569 197.346676 
L 248.037605 162.565789 
L 248.443677 181.301882 
L 248.646713 158.117271 
L 248.849749 182.620724 
L 249.052785 190.139619 
L 249.255821 170.298991 
L 249.458857 162.87018 
L 249.661893 178.300216 
L 249.864929 150.652468 
L 250.271001 186.468412 
L 250.474037 156.064428 
L 250.677073 174.744141 
L 250.880109 149.771638 
L 251.286181 181.054005 
L 251.489217 171.415909 
L 251.692253 173.633676 
L 251.895289 197.96738 
L 252.098325 173.033232 
L 252.301361 199.826711 
L 252.707433 173.80833 
L 252.910469 170.34312 
L 253.113505 155.760544 
L 253.316541 153.260527 
L 253.519577 175.005138 
L 253.722613 144.281712 
L 254.128685 173.21308 
L 254.331721 153.567845 
L 254.534757 170.240648 
L 254.737793 172.313526 
L 254.940829 150.539772 
L 255.752973 203.781997 
L 255.956009 190.266636 
L 256.159045 184.874633 
L 256.362081 187.083543 
L 256.565117 168.467062 
L 256.768153 186.086664 
L 256.971189 170.927583 
L 257.174225 169.464848 
L 257.580297 164.07559 
L 257.986369 149.569601 
L 258.189405 173.936656 
L 258.392441 176.922053 
L 258.595477 189.088421 
L 258.798513 190.025795 
L 259.001549 193.536434 
L 259.204585 167.5956 
L 259.407621 157.591381 
L 259.610657 174.661267 
L 259.813693 168.380188 
L 260.016729 176.49324 
L 260.219765 162.675821 
L 260.422801 165.856732 
L 260.625837 187.482058 
L 260.828873 164.744233 
L 261.031909 185.679041 
L 261.234945 155.388455 
L 261.437981 177.003741 
L 261.641017 166.941684 
L 261.844053 173.307827 
L 262.047089 185.238903 
L 262.250125 184.008643 
L 262.45316 176.075586 
L 262.656196 163.44273 
L 263.062268 191.523215 
L 263.265304 154.586075 
L 263.46834 187.137618 
L 263.874412 164.20046 
L 264.077448 179.132702 
L 264.280484 174.80674 
L 264.48352 181.644024 
L 264.686556 179.449541 
L 264.889592 192.07785 
L 265.092628 187.813781 
L 265.295664 175.305383 
L 265.4987 185.875685 
L 265.701736 164.23123 
L 266.107808 176.231064 
L 266.51388 143.379295 
L 266.716916 153.335923 
L 266.919952 175.311302 
L 267.122988 176.758823 
L 267.326024 181.367913 
L 267.732096 165.181837 
L 267.935132 188.504777 
L 268.138168 159.128243 
L 268.341204 179.251854 
L 268.54424 184.485562 
L 269.153348 140.709752 
L 269.356384 172.441364 
L 269.762456 160.099964 
L 269.965492 141.57516 
L 270.168528 154.03815 
L 270.371564 158.606355 
L 270.5746 148.704643 
L 270.777636 166.94304 
L 271.183708 178.253188 
L 271.386744 172.67536 
L 271.58978 191.997078 
L 271.792816 145.609137 
L 271.995852 173.201904 
L 272.198888 174.969449 
L 272.401924 162.604237 
L 272.60496 169.873018 
L 272.807996 160.462539 
L 273.011032 172.704165 
L 273.214068 165.487244 
L 273.417104 178.994189 
L 273.62014 177.985393 
L 273.823176 147.227137 
L 274.026212 186.771964 
L 274.229248 163.880562 
L 274.432284 171.118584 
L 274.63532 185.642877 
L 274.838356 149.477873 
L 275.041392 171.239238 
L 275.244428 171.391008 
L 275.447464 186.043032 
L 275.6505 161.589575 
L 275.853536 177.679012 
L 276.056572 178.862379 
L 276.259608 158.87225 
L 276.462644 183.773894 
L 276.66568 174.923921 
L 276.868716 182.491572 
L 277.071752 165.559589 
L 277.274788 179.811536 
L 277.477824 157.532387 
L 277.68086 187.332535 
L 277.883896 178.01146 
L 278.086932 183.241001 
L 278.289968 184.323264 
L 278.493004 159.234333 
L 278.69604 202.714427 
L 279.102112 176.333856 
L 279.305148 169.422631 
L 279.508184 168.945939 
L 279.71122 168.860657 
L 279.914256 189.776097 
L 280.320327 160.033541 
L 280.523363 201.792677 
L 280.726399 190.519764 
L 280.929435 155.783196 
L 281.132471 166.980088 
L 281.335507 157.161623 
L 281.538543 193.025995 
L 281.741579 159.219737 
L 281.944615 170.326373 
L 282.147651 167.557677 
L 282.350687 159.286174 
L 282.553723 177.181832 
L 282.959795 155.835709 
L 283.162831 166.504956 
L 283.568903 159.090287 
L 283.771939 161.991969 
L 283.974975 149.150086 
L 284.178011 165.937047 
L 284.584083 132.169082 
L 284.787119 174.802224 
L 284.990155 186.003226 
L 285.193191 168.819391 
L 285.396227 161.106363 
L 285.599263 142.336362 
L 285.802299 179.681015 
L 286.005335 162.332842 
L 286.208371 163.503175 
L 286.411407 160.073239 
L 286.817479 180.697257 
L 287.020515 147.499954 
L 287.223551 157.980732 
L 287.426587 186.304917 
L 287.629623 153.197073 
L 288.035695 203.707952 
L 288.238731 161.030483 
L 288.441767 193.687083 
L 288.847839 157.512271 
L 289.050875 185.007269 
L 289.456947 161.122308 
L 289.659983 172.250535 
L 289.863019 175.929926 
L 290.066055 160.225342 
L 290.269091 167.437621 
L 290.472127 153.489018 
L 290.675163 168.268035 
L 290.878199 156.354983 
L 291.081235 167.036765 
L 291.284271 156.737125 
L 291.487307 158.590118 
L 291.690343 156.043575 
L 291.893379 181.943803 
L 292.096415 157.620013 
L 292.299451 175.744303 
L 292.502487 172.665185 
L 292.705523 156.201202 
L 293.111595 184.810119 
L 293.314631 166.908195 
L 293.517667 178.382762 
L 293.720703 147.143978 
L 293.923739 174.967467 
L 294.126775 168.04787 
L 294.329811 175.66834 
L 294.532847 173.110411 
L 294.938919 164.267388 
L 295.141955 153.694528 
L 295.344991 169.271202 
L 295.548027 174.319466 
L 295.751063 152.955953 
L 295.954099 158.630131 
L 296.157135 177.139865 
L 296.360171 129.685876 
L 296.563207 172.369581 
L 296.766243 179.284476 
L 296.969279 151.485192 
L 297.172315 176.079685 
L 297.375351 173.81972 
L 297.578386 176.782149 
L 297.781422 182.078246 
L 297.984458 178.478931 
L 298.187494 212.83766 
L 298.39053 172.554681 
L 298.593566 184.242328 
L 298.796602 180.034204 
L 298.999638 192.458532 
L 299.202674 185.478752 
L 299.608746 136.794766 
L 300.014818 182.07218 
L 300.217854 176.670255 
L 300.42089 181.366929 
L 300.623926 143.220307 
L 300.826962 161.725616 
L 301.029998 146.655295 
L 301.233034 167.912004 
L 301.43607 153.736973 
L 301.639106 161.04721 
L 301.842142 147.1071 
L 302.248214 176.683804 
L 302.45125 159.904389 
L 302.654286 162.031615 
L 302.857322 185.926617 
L 303.060358 173.673885 
L 303.263394 176.429661 
L 303.46643 182.25254 
L 303.669466 154.561181 
L 303.872502 180.248925 
L 304.278574 176.508551 
L 304.48161 156.431194 
L 304.684646 170.592452 
L 304.887682 168.215294 
L 305.090718 158.144439 
L 305.293754 161.890494 
L 305.49679 178.027941 
L 305.699826 128.942606 
L 305.902862 187.953487 
L 306.105898 198.600789 
L 306.51197 148.503125 
L 306.715006 160.050485 
L 306.918042 163.623187 
L 307.121078 171.038344 
L 307.324114 184.204706 
L 307.52715 161.180977 
L 307.730186 164.977263 
L 308.136258 167.077702 
L 308.339294 174.540457 
L 308.54233 174.13767 
L 308.745366 166.395901 
L 308.948402 176.642503 
L 309.151438 176.226242 
L 309.354474 197.424374 
L 309.55751 174.756217 
L 309.760546 169.041874 
L 309.963582 186.682416 
L 310.369654 169.52673 
L 310.57269 167.695151 
L 310.775726 190.905713 
L 310.978762 187.647955 
L 311.181798 168.760696 
L 311.384834 193.859105 
L 311.790906 182.108313 
L 311.993942 170.432391 
L 312.196978 148.283494 
L 312.400014 157.555662 
L 312.60305 190.392527 
L 312.806086 180.27161 
L 313.009122 179.570079 
L 313.212158 186.635603 
L 313.415194 160.174545 
L 313.61823 182.616681 
L 313.821266 160.918355 
L 314.024302 169.598434 
L 314.227338 155.496095 
L 314.63341 180.547161 
L 314.836446 159.759941 
L 315.039481 161.076556 
L 315.242517 160.704924 
L 315.445553 151.694028 
L 315.648589 123.696857 
L 315.851625 176.687133 
L 316.054661 163.656174 
L 316.257697 164.352302 
L 316.460733 174.930355 
L 316.663769 135.607708 
L 317.069841 186.687215 
L 317.272877 140.952781 
L 317.475913 152.499479 
L 317.678949 180.125462 
L 317.881985 168.319488 
L 318.085021 172.46176 
L 318.288057 163.693005 
L 318.694129 185.015945 
L 318.897165 160.300778 
L 319.100201 177.667983 
L 319.303237 158.62428 
L 319.506273 176.615408 
L 319.912345 151.682121 
L 320.115381 164.014782 
L 320.318417 154.975532 
L 320.521453 134.353733 
L 320.724489 165.308078 
L 320.927525 171.321038 
L 321.130561 171.600402 
L 321.333597 154.215997 
L 321.536633 172.815382 
L 321.942705 137.406375 
L 322.145741 142.027178 
L 322.348777 166.724643 
L 322.754849 152.365765 
L 323.160921 163.57364 
L 323.363957 164.149955 
L 323.566993 124.14707 
L 323.770029 166.079395 
L 323.973065 158.734243 
L 324.176101 161.928388 
L 324.582173 173.353965 
L 324.785209 166.164033 
L 324.988245 175.328015 
L 325.191281 166.845008 
L 325.394317 173.074347 
L 325.597353 169.384854 
L 325.800389 174.523789 
L 326.003425 161.793855 
L 326.206461 174.416831 
L 326.409497 162.954829 
L 326.612533 180.368307 
L 326.815569 150.342566 
L 327.018605 165.303502 
L 327.221641 152.090868 
L 327.424677 148.320552 
L 327.627713 158.53067 
L 327.830749 154.839456 
L 328.033785 155.535847 
L 328.236821 172.956693 
L 328.439857 154.060979 
L 328.642893 147.948028 
L 328.845929 184.175523 
L 329.048965 163.146116 
L 329.658073 185.24852 
L 329.861109 134.051574 
L 330.064145 177.48537 
L 330.267181 189.891359 
L 330.470217 162.824147 
L 330.673253 189.325956 
L 330.876289 167.834997 
L 331.282361 197.99728 
L 331.485397 143.045551 
L 331.891469 189.346412 
L 332.094505 178.113617 
L 332.297541 159.1548 
L 332.500576 160.802864 
L 332.703612 150.417018 
L 332.906648 164.385636 
L 333.109684 189.181911 
L 333.31272 176.273138 
L 333.515756 156.035082 
L 333.718792 182.162983 
L 333.921828 184.090171 
L 334.124864 161.761258 
L 334.3279 173.694395 
L 334.530936 166.099869 
L 334.733972 183.816485 
L 334.937008 138.811747 
L 335.140044 144.616019 
L 335.546116 196.384696 
L 335.952188 168.787451 
L 336.155224 190.282404 
L 336.35826 161.354396 
L 336.561296 173.41391 
L 336.764332 171.815792 
L 336.967368 161.730195 
L 337.170404 177.001465 
L 337.37344 163.171127 
L 337.576476 172.45077 
L 337.779512 173.752456 
L 337.982548 181.500323 
L 338.185584 161.685175 
L 338.38862 186.398415 
L 338.591656 166.207732 
L 338.794692 180.201688 
L 338.997728 159.157149 
L 339.200764 170.451368 
L 339.4038 165.074263 
L 339.606836 168.51335 
L 339.809872 167.381735 
L 340.012908 173.954454 
L 340.215944 172.908413 
L 340.41898 164.196746 
L 340.622016 170.391987 
L 340.825052 170.608294 
L 341.028088 135.193682 
L 341.231124 156.917291 
L 341.43416 154.58484 
L 341.637196 173.989275 
L 341.840232 163.316839 
L 342.043268 168.849043 
L 342.246304 163.576425 
L 342.44934 167.12084 
L 342.652376 180.509149 
L 342.855412 164.212773 
L 343.058448 164.018364 
L 343.261484 162.435493 
L 343.46452 179.659676 
L 343.667556 172.334111 
L 343.870592 178.865614 
L 344.073628 142.582199 
L 344.276664 198.84873 
L 344.4797 167.296102 
L 344.885772 185.806086 
L 345.088808 177.447025 
L 345.291844 147.827194 
L 345.49488 177.831122 
L 345.697916 159.834018 
L 345.900952 186.596907 
L 346.103988 164.922127 
L 346.307024 182.078677 
L 346.51006 186.31726 
L 346.916132 204.213602 
L 347.119168 164.999536 
L 347.322204 166.627121 
L 347.52524 157.511128 
L 347.728276 167.202419 
L 348.134348 189.837025 
L 348.337384 144.077627 
L 348.743456 192.454955 
L 348.946492 180.407811 
L 349.149528 143.624722 
L 349.352564 165.144256 
L 349.5556 151.170402 
L 349.758636 154.365266 
L 349.961671 186.376269 
L 350.164707 158.704995 
L 350.367743 174.344301 
L 350.570779 141.880144 
L 350.773815 164.001389 
L 350.976851 156.202188 
L 351.382923 177.577134 
L 351.585959 185.372919 
L 351.992031 171.974999 
L 352.195067 181.697919 
L 352.398103 165.441295 
L 352.804175 180.222324 
L 353.007211 156.261661 
L 353.210247 175.037697 
L 353.413283 173.314924 
L 353.616319 150.890771 
L 353.819355 154.223384 
L 354.022391 145.426054 
L 354.225427 157.055234 
L 354.428463 189.201371 
L 354.631499 195.269197 
L 354.834535 170.354717 
L 355.037571 177.84725 
L 355.240607 166.911786 
L 355.443643 178.090364 
L 355.646679 179.236425 
L 356.052751 166.799145 
L 356.255787 195.339885 
L 356.864895 161.888948 
L 357.270967 182.339442 
L 357.474003 152.095789 
L 357.677039 177.636219 
L 357.880075 158.649109 
L 358.083111 159.398617 
L 358.286147 170.242082 
L 358.895255 124.069277 
L 359.098291 178.317742 
L 359.301327 172.970937 
L 359.504363 144.92941 
L 359.707399 154.331929 
L 359.910435 169.043993 
L 360.113471 165.367341 
L 360.316507 157.443166 
L 360.519543 184.62076 
L 360.925615 139.450655 
L 361.128651 178.86361 
L 361.331687 177.756514 
L 361.534723 151.243812 
L 361.737759 163.860223 
L 361.940795 150.514885 
L 362.346867 198.190827 
L 362.549903 145.273919 
L 362.752939 144.343247 
L 362.955975 164.742651 
L 363.159011 173.277758 
L 363.565083 159.995315 
L 363.768119 129.556194 
L 363.971155 170.477874 
L 364.174191 162.425459 
L 364.377227 171.677543 
L 364.580263 162.755072 
L 364.783299 139.770977 
L 364.986335 180.15175 
L 365.189371 162.540828 
L 365.392407 162.424115 
L 365.595443 175.539038 
L 365.798479 161.942696 
L 366.001515 182.576018 
L 366.204551 182.397558 
L 366.407587 172.889935 
L 366.813659 171.741158 
L 367.016695 174.298798 
L 367.219731 171.390656 
L 367.625802 186.092934 
L 367.828838 171.126792 
L 368.031874 183.398072 
L 368.23491 163.556393 
L 368.437946 167.77905 
L 368.640982 194.329201 
L 368.844018 131.767972 
L 369.047054 181.303594 
L 369.656162 173.773993 
L 369.859198 188.794191 
L 370.062234 173.8267 
L 370.26527 194.749501 
L 370.671342 158.120473 
L 370.874378 185.321394 
L 371.077414 185.191235 
L 371.28045 176.934269 
L 371.483486 158.910807 
L 371.686522 165.159785 
L 372.29563 151.928989 
L 372.498666 162.470973 
L 372.701702 164.397337 
L 372.904738 144.311542 
L 373.107774 169.075687 
L 373.31081 160.213792 
L 373.513846 159.52795 
L 373.716882 169.651913 
L 373.919918 139.894136 
L 374.122954 163.299291 
L 374.32599 136.252007 
L 374.529026 148.854808 
L 374.935098 207.589332 
L 375.138134 220.702122 
L 375.34117 160.761334 
L 375.544206 182.526144 
L 375.747242 167.201818 
L 375.950278 167.341618 
L 376.153314 171.612458 
L 376.559386 160.033473 
L 376.762422 130.619153 
L 376.965458 195.917446 
L 377.168494 196.041939 
L 377.37153 165.448362 
L 377.574566 163.587669 
L 377.777602 158.804695 
L 377.980638 164.081622 
L 378.183674 185.466616 
L 378.38671 188.028979 
L 378.589746 196.833885 
L 378.792782 178.849044 
L 378.995818 191.441247 
L 379.198854 173.46597 
L 379.40189 174.462432 
L 379.604926 159.472293 
L 379.807962 188.07066 
L 380.010998 194.338703 
L 380.620106 169.993645 
L 380.823142 178.61417 
L 381.026178 171.467602 
L 381.229214 195.657812 
L 381.43225 180.888348 
L 381.635286 155.874022 
L 381.838322 189.687974 
L 382.041358 175.037455 
L 382.244394 170.84025 
L 382.650466 182.557894 
L 382.853502 168.134613 
L 383.056538 162.530421 
L 383.259574 190.29068 
L 383.46261 170.520663 
L 383.665646 182.965321 
L 383.868682 154.765093 
L 384.071718 187.042302 
L 384.274754 175.65704 
L 384.47779 178.506481 
L 384.680826 176.575592 
L 384.883862 176.777214 
L 385.086897 162.139198 
L 385.492969 151.284827 
L 385.696005 183.39498 
L 385.899041 182.941593 
L 386.305113 171.229866 
L 386.508149 169.748941 
L 386.711185 181.80235 
L 386.914221 204.531378 
L 387.117257 174.025559 
L 387.320293 170.820516 
L 387.523329 180.738387 
L 387.726365 160.68291 
L 387.929401 195.467743 
L 388.132437 169.785073 
L 388.335473 189.811638 
L 388.538509 164.736482 
L 388.944581 151.887115 
L 389.147617 177.358097 
L 389.553689 152.41863 
L 389.756725 161.214492 
L 389.959761 142.894657 
L 390.162797 168.020971 
L 390.365833 154.719916 
L 390.568869 164.38056 
L 390.771905 152.509628 
L 390.974941 180.141533 
L 391.177977 150.373474 
L 391.381013 183.137959 
L 391.584049 165.155322 
L 391.787085 178.332035 
L 391.990121 172.411762 
L 392.193157 176.941221 
L 392.396193 167.244673 
L 392.802265 182.323097 
L 393.005301 167.535969 
L 393.208337 168.260067 
L 393.411373 152.778463 
L 393.614409 162.737193 
L 393.817445 164.411668 
L 394.020481 138.640626 
L 394.223517 173.204818 
L 394.426553 175.167706 
L 394.832625 157.662366 
L 395.035661 184.522875 
L 395.238697 192.705367 
L 395.441733 158.188871 
L 395.644769 153.622381 
L 395.847805 127.373308 
L 396.050841 166.963141 
L 396.253877 174.136226 
L 396.456913 170.353469 
L 396.659949 171.669807 
L 397.066021 152.790285 
L 397.269057 176.369004 
L 397.472093 169.957418 
L 397.675129 138.422796 
L 397.878165 170.957711 
L 398.081201 166.178588 
L 398.284237 191.725986 
L 398.487273 159.116061 
L 398.487273 159.116061 
" style="fill:none;stroke:#ff7f0e;stroke-linecap:square;stroke-width:1.5;"/>
   </g>
   <g id="patch_3">
    <path d="M 57.6 307.584 
L 57.6 41.472 
" style="fill:none;stroke:#000000;stroke-linecap:square;stroke-linejoin:miter;stroke-width:0.8;"/>
   </g>
   <g id="patch_4">
    <path d="M 414.72 307.584 
L 414.72 41.472 
" style="fill:none;stroke:#000000;stroke-linecap:square;stroke-linejoin:miter;stroke-width:0.8;"/>
   </g>
   <g id="patch_5">
    <path d="M 57.6 307.584 
L 414.72 307.584 
" style="fill:none;stroke:#000000;stroke-linecap:square;stroke-linejoin:miter;stroke-width:0.8;"/>
   </g>
   <g id="patch_6">
    <path d="M 57.6 41.472 
L 414.72 41.472 
" style="fill:none;stroke:#000000;stroke-linecap:square;stroke-linejoin:miter;stroke-width:0.8;"/>
   </g>
   <g id="legend_1">
    <g id="patch_7">
     <path d="M 303.845 78.82825 
L 407.72 78.82825 
Q 409.72 78.82825 409.72 76.82825 
L 409.72 48.472 
Q 409.72 46.472 407.72 46.472 
L 303.845 46.472 
Q 301.845 46.472 301.845 48.472 
L 301.845 76.82825 
Q 301.845 78.82825 303.845 78.82825 
z
" style="fill:#ffffff;opacity:0.8;stroke:#cccccc;stroke-linejoin:miter;"/>
    </g>
    <g id="line2d_21">
     <path d="M 305.845 54.570437 
L 325.845 54.570437 
" style="fill:none;stroke:#1f77b4;stroke-linecap:square;stroke-width:1.5;"/>
    </g>
    <g id="line2d_22"/>
    <g id="text_20">
     <!-- Train loss -->
     <g transform="translate(333.845 58.070437)scale(0.1 -0.1)">
      <defs>
       <path d="M -19 4666 
L 3928 4666 
L 3928 4134 
L 2272 4134 
L 2272 0 
L 1638 0 
L 1638 4134 
L -19 4134 
L -19 4666 
z
" id="DejaVuSans-54" transform="scale(0.015625)"/>
       <path d="M 2631 2963 
Q 2534 3019 2420 3045 
Q 2306 3072 2169 3072 
Q 1681 3072 1420 2755 
Q 1159 2438 1159 1844 
L 1159 0 
L 581 0 
L 581 3500 
L 1159 3500 
L 1159 2956 
Q 1341 3275 1631 3429 
Q 1922 3584 2338 3584 
Q 2397 3584 2469 3576 
Q 2541 3569 2628 3553 
L 2631 2963 
z
" id="DejaVuSans-72" transform="scale(0.015625)"/>
       <path d="M 2194 1759 
Q 1497 1759 1228 1600 
Q 959 1441 959 1056 
Q 959 750 1161 570 
Q 1363 391 1709 391 
Q 2188 391 2477 730 
Q 2766 1069 2766 1631 
L 2766 1759 
L 2194 1759 
z
M 3341 1997 
L 3341 0 
L 2766 0 
L 2766 531 
Q 2569 213 2275 61 
Q 1981 -91 1556 -91 
Q 1019 -91 701 211 
Q 384 513 384 1019 
Q 384 1609 779 1909 
Q 1175 2209 1959 2209 
L 2766 2209 
L 2766 2266 
Q 2766 2663 2505 2880 
Q 2244 3097 1772 3097 
Q 1472 3097 1187 3025 
Q 903 2953 641 2809 
L 641 3341 
Q 956 3463 1253 3523 
Q 1550 3584 1831 3584 
Q 2591 3584 2966 3190 
Q 3341 2797 3341 1997 
z
" id="DejaVuSans-61" transform="scale(0.015625)"/>
       <path d="M 603 3500 
L 1178 3500 
L 1178 0 
L 603 0 
L 603 3500 
z
M 603 4863 
L 1178 4863 
L 1178 4134 
L 603 4134 
L 603 4863 
z
" id="DejaVuSans-69" transform="scale(0.015625)"/>
       <path d="M 3513 2113 
L 3513 0 
L 2938 0 
L 2938 2094 
Q 2938 2591 2744 2837 
Q 2550 3084 2163 3084 
Q 1697 3084 1428 2787 
Q 1159 2491 1159 1978 
L 1159 0 
L 581 0 
L 581 3500 
L 1159 3500 
L 1159 2956 
Q 1366 3272 1645 3428 
Q 1925 3584 2291 3584 
Q 2894 3584 3203 3211 
Q 3513 2838 3513 2113 
z
" id="DejaVuSans-6e" transform="scale(0.015625)"/>
       <path id="DejaVuSans-20" transform="scale(0.015625)"/>
       <path d="M 603 4863 
L 1178 4863 
L 1178 0 
L 603 0 
L 603 4863 
z
" id="DejaVuSans-6c" transform="scale(0.015625)"/>
       <path d="M 2834 3397 
L 2834 2853 
Q 2591 2978 2328 3040 
Q 2066 3103 1784 3103 
Q 1356 3103 1142 2972 
Q 928 2841 928 2578 
Q 928 2378 1081 2264 
Q 1234 2150 1697 2047 
L 1894 2003 
Q 2506 1872 2764 1633 
Q 3022 1394 3022 966 
Q 3022 478 2636 193 
Q 2250 -91 1575 -91 
Q 1294 -91 989 -36 
Q 684 19 347 128 
L 347 722 
Q 666 556 975 473 
Q 1284 391 1588 391 
Q 1994 391 2212 530 
Q 2431 669 2431 922 
Q 2431 1156 2273 1281 
Q 2116 1406 1581 1522 
L 1381 1569 
Q 847 1681 609 1914 
Q 372 2147 372 2553 
Q 372 3047 722 3315 
Q 1072 3584 1716 3584 
Q 2034 3584 2315 3537 
Q 2597 3491 2834 3397 
z
" id="DejaVuSans-73" transform="scale(0.015625)"/>
      </defs>
      <use xlink:href="#DejaVuSans-54"/>
      <use x="46.333984" xlink:href="#DejaVuSans-72"/>
      <use x="87.447266" xlink:href="#DejaVuSans-61"/>
      <use x="148.726562" xlink:href="#DejaVuSans-69"/>
      <use x="176.509766" xlink:href="#DejaVuSans-6e"/>
      <use x="239.888672" xlink:href="#DejaVuSans-20"/>
      <use x="271.675781" xlink:href="#DejaVuSans-6c"/>
      <use x="299.458984" xlink:href="#DejaVuSans-6f"/>
      <use x="360.640625" xlink:href="#DejaVuSans-73"/>
      <use x="412.740234" xlink:href="#DejaVuSans-73"/>
     </g>
    </g>
    <g id="line2d_23">
     <path d="M 305.845 69.248562 
L 325.845 69.248562 
" style="fill:none;stroke:#ff7f0e;stroke-linecap:square;stroke-width:1.5;"/>
    </g>
    <g id="line2d_24"/>
    <g id="text_21">
     <!-- Validation loss -->
     <g transform="translate(333.845 72.748562)scale(0.1 -0.1)">
      <defs>
       <path d="M 1831 0 
L 50 4666 
L 709 4666 
L 2188 738 
L 3669 4666 
L 4325 4666 
L 2547 0 
L 1831 0 
z
" id="DejaVuSans-56" transform="scale(0.015625)"/>
       <path d="M 2906 2969 
L 2906 4863 
L 3481 4863 
L 3481 0 
L 2906 0 
L 2906 525 
Q 2725 213 2448 61 
Q 2172 -91 1784 -91 
Q 1150 -91 751 415 
Q 353 922 353 1747 
Q 353 2572 751 3078 
Q 1150 3584 1784 3584 
Q 2172 3584 2448 3432 
Q 2725 3281 2906 2969 
z
M 947 1747 
Q 947 1113 1208 752 
Q 1469 391 1925 391 
Q 2381 391 2643 752 
Q 2906 1113 2906 1747 
Q 2906 2381 2643 2742 
Q 2381 3103 1925 3103 
Q 1469 3103 1208 2742 
Q 947 2381 947 1747 
z
" id="DejaVuSans-64" transform="scale(0.015625)"/>
       <path d="M 1172 4494 
L 1172 3500 
L 2356 3500 
L 2356 3053 
L 1172 3053 
L 1172 1153 
Q 1172 725 1289 603 
Q 1406 481 1766 481 
L 2356 481 
L 2356 0 
L 1766 0 
Q 1100 0 847 248 
Q 594 497 594 1153 
L 594 3053 
L 172 3053 
L 172 3500 
L 594 3500 
L 594 4494 
L 1172 4494 
z
" id="DejaVuSans-74" transform="scale(0.015625)"/>
      </defs>
      <use xlink:href="#DejaVuSans-56"/>
      <use x="60.658203" xlink:href="#DejaVuSans-61"/>
      <use x="121.9375" xlink:href="#DejaVuSans-6c"/>
      <use x="149.720703" xlink:href="#DejaVuSans-69"/>
      <use x="177.503906" xlink:href="#DejaVuSans-64"/>
      <use x="240.980469" xlink:href="#DejaVuSans-61"/>
      <use x="302.259766" xlink:href="#DejaVuSans-74"/>
      <use x="341.46875" xlink:href="#DejaVuSans-69"/>
      <use x="369.251953" xlink:href="#DejaVuSans-6f"/>
      <use x="430.433594" xlink:href="#DejaVuSans-6e"/>
      <use x="493.8125" xlink:href="#DejaVuSans-20"/>
      <use x="525.599609" xlink:href="#DejaVuSans-6c"/>
      <use x="553.382812" xlink:href="#DejaVuSans-6f"/>
      <use x="614.564453" xlink:href="#DejaVuSans-73"/>
      <use x="666.664062" xlink:href="#DejaVuSans-73"/>
     </g>
    </g>
   </g>
  </g>
 </g>
 <defs>
  <clipPath id="p5d9277b272">
   <rect height="266.112" width="357.12" x="57.6" y="41.472"/>
  </clipPath>
 </defs>
</svg>
