<?xml version="1.0" encoding="utf-8" standalone="no"?>
<!DOCTYPE svg PUBLIC "-//W3C//DTD SVG 1.1//EN"
  "http://www.w3.org/Graphics/SVG/1.1/DTD/svg11.dtd">
<svg height="345.6pt" version="1.1" viewBox="0 0 460.8 345.6" width="460.8pt" xmlns="http://www.w3.org/2000/svg" xmlns:xlink="http://www.w3.org/1999/xlink">
 <metadata>
  <rdf:RDF xmlns:cc="http://creativecommons.org/ns#" xmlns:dc="http://purl.org/dc/elements/1.1/" xmlns:rdf="http://www.w3.org/1999/02/22-rdf-syntax-ns#">
   <cc:Work>
    <dc:type rdf:resource="http://purl.org/dc/dcmitype/StillImage"/>
    <dc:date>2021-07-31T09:33:46.595826</dc:date>
    <dc:format>image/svg+xml</dc:format>
    <dc:creator>
     <cc:Agent>
      <dc:title>Matplotlib v3.4.1, https://matplotlib.org/</dc:title>
     </cc:Agent>
    </dc:creator>
   </cc:Work>
  </rdf:RDF>
 </metadata>
 <defs>
  <style type="text/css">*{stroke-linecap:butt;stroke-linejoin:round;}</style>
 </defs>
 <g id="figure_1">
  <g id="patch_1">
   <path d="M 0 345.6 
L 460.8 345.6 
L 460.8 0 
L 0 0 
z
" style="fill:#ffffff;"/>
  </g>
  <g id="axes_1">
   <g id="patch_2">
    <path d="M 57.6 307.584 
L 414.72 307.584 
L 414.72 41.472 
L 57.6 41.472 
z
" style="fill:#ffffff;"/>
   </g>
   <g id="matplotlib.axis_1">
    <g id="xtick_1">
     <g id="line2d_1">
      <defs>
       <path d="M 0 0 
L 0 3.5 
" id="mc30c95aeba" style="stroke:#000000;stroke-width:0.8;"/>
      </defs>
      <g>
       <use style="stroke:#000000;stroke-width:0.8;" x="72.350286" xlink:href="#mc30c95aeba" y="307.584"/>
      </g>
     </g>
     <g id="text_1">
      <!-- 0 -->
      <g transform="translate(69.169036 322.182437)scale(0.1 -0.1)">
       <defs>
        <path d="M 2034 4250 
Q 1547 4250 1301 3770 
Q 1056 3291 1056 2328 
Q 1056 1369 1301 889 
Q 1547 409 2034 409 
Q 2525 409 2770 889 
Q 3016 1369 3016 2328 
Q 3016 3291 2770 3770 
Q 2525 4250 2034 4250 
z
M 2034 4750 
Q 2819 4750 3233 4129 
Q 3647 3509 3647 2328 
Q 3647 1150 3233 529 
Q 2819 -91 2034 -91 
Q 1250 -91 836 529 
Q 422 1150 422 2328 
Q 422 3509 836 4129 
Q 1250 4750 2034 4750 
z
" id="DejaVuSans-30" transform="scale(0.015625)"/>
       </defs>
       <use xlink:href="#DejaVuSans-30"/>
      </g>
     </g>
    </g>
    <g id="xtick_2">
     <g id="line2d_2">
      <g>
       <use style="stroke:#000000;stroke-width:0.8;" x="146.472329" xlink:href="#mc30c95aeba" y="307.584"/>
      </g>
     </g>
     <g id="text_2">
      <!-- 50 -->
      <g transform="translate(140.109829 322.182437)scale(0.1 -0.1)">
       <defs>
        <path d="M 691 4666 
L 3169 4666 
L 3169 4134 
L 1269 4134 
L 1269 2991 
Q 1406 3038 1543 3061 
Q 1681 3084 1819 3084 
Q 2600 3084 3056 2656 
Q 3513 2228 3513 1497 
Q 3513 744 3044 326 
Q 2575 -91 1722 -91 
Q 1428 -91 1123 -41 
Q 819 9 494 109 
L 494 744 
Q 775 591 1075 516 
Q 1375 441 1709 441 
Q 2250 441 2565 725 
Q 2881 1009 2881 1497 
Q 2881 1984 2565 2268 
Q 2250 2553 1709 2553 
Q 1456 2553 1204 2497 
Q 953 2441 691 2322 
L 691 4666 
z
" id="DejaVuSans-35" transform="scale(0.015625)"/>
       </defs>
       <use xlink:href="#DejaVuSans-35"/>
       <use x="63.623047" xlink:href="#DejaVuSans-30"/>
      </g>
     </g>
    </g>
    <g id="xtick_3">
     <g id="line2d_3">
      <g>
       <use style="stroke:#000000;stroke-width:0.8;" x="220.594371" xlink:href="#mc30c95aeba" y="307.584"/>
      </g>
     </g>
     <g id="text_3">
      <!-- 100 -->
      <g transform="translate(211.050621 322.182437)scale(0.1 -0.1)">
       <defs>
        <path d="M 794 531 
L 1825 531 
L 1825 4091 
L 703 3866 
L 703 4441 
L 1819 4666 
L 2450 4666 
L 2450 531 
L 3481 531 
L 3481 0 
L 794 0 
L 794 531 
z
" id="DejaVuSans-31" transform="scale(0.015625)"/>
       </defs>
       <use xlink:href="#DejaVuSans-31"/>
       <use x="63.623047" xlink:href="#DejaVuSans-30"/>
       <use x="127.246094" xlink:href="#DejaVuSans-30"/>
      </g>
     </g>
    </g>
    <g id="xtick_4">
     <g id="line2d_4">
      <g>
       <use style="stroke:#000000;stroke-width:0.8;" x="294.716413" xlink:href="#mc30c95aeba" y="307.584"/>
      </g>
     </g>
     <g id="text_4">
      <!-- 150 -->
      <g transform="translate(285.172663 322.182437)scale(0.1 -0.1)">
       <use xlink:href="#DejaVuSans-31"/>
       <use x="63.623047" xlink:href="#DejaVuSans-35"/>
       <use x="127.246094" xlink:href="#DejaVuSans-30"/>
      </g>
     </g>
    </g>
    <g id="xtick_5">
     <g id="line2d_5">
      <g>
       <use style="stroke:#000000;stroke-width:0.8;" x="368.838456" xlink:href="#mc30c95aeba" y="307.584"/>
      </g>
     </g>
     <g id="text_5">
      <!-- 200 -->
      <g transform="translate(359.294706 322.182437)scale(0.1 -0.1)">
       <defs>
        <path d="M 1228 531 
L 3431 531 
L 3431 0 
L 469 0 
L 469 531 
Q 828 903 1448 1529 
Q 2069 2156 2228 2338 
Q 2531 2678 2651 2914 
Q 2772 3150 2772 3378 
Q 2772 3750 2511 3984 
Q 2250 4219 1831 4219 
Q 1534 4219 1204 4116 
Q 875 4013 500 3803 
L 500 4441 
Q 881 4594 1212 4672 
Q 1544 4750 1819 4750 
Q 2544 4750 2975 4387 
Q 3406 4025 3406 3419 
Q 3406 3131 3298 2873 
Q 3191 2616 2906 2266 
Q 2828 2175 2409 1742 
Q 1991 1309 1228 531 
z
" id="DejaVuSans-32" transform="scale(0.015625)"/>
       </defs>
       <use xlink:href="#DejaVuSans-32"/>
       <use x="63.623047" xlink:href="#DejaVuSans-30"/>
       <use x="127.246094" xlink:href="#DejaVuSans-30"/>
      </g>
     </g>
    </g>
    <g id="text_6">
     <!-- Epoch -->
     <g transform="translate(213.193594 339.659781)scale(0.15 -0.15)">
      <defs>
       <path d="M 628 4666 
L 3578 4666 
L 3578 4134 
L 1259 4134 
L 1259 2753 
L 3481 2753 
L 3481 2222 
L 1259 2222 
L 1259 531 
L 3634 531 
L 3634 0 
L 628 0 
L 628 4666 
z
" id="DejaVuSans-45" transform="scale(0.015625)"/>
       <path d="M 1159 525 
L 1159 -1331 
L 581 -1331 
L 581 3500 
L 1159 3500 
L 1159 2969 
Q 1341 3281 1617 3432 
Q 1894 3584 2278 3584 
Q 2916 3584 3314 3078 
Q 3713 2572 3713 1747 
Q 3713 922 3314 415 
Q 2916 -91 2278 -91 
Q 1894 -91 1617 61 
Q 1341 213 1159 525 
z
M 3116 1747 
Q 3116 2381 2855 2742 
Q 2594 3103 2138 3103 
Q 1681 3103 1420 2742 
Q 1159 2381 1159 1747 
Q 1159 1113 1420 752 
Q 1681 391 2138 391 
Q 2594 391 2855 752 
Q 3116 1113 3116 1747 
z
" id="DejaVuSans-70" transform="scale(0.015625)"/>
       <path d="M 1959 3097 
Q 1497 3097 1228 2736 
Q 959 2375 959 1747 
Q 959 1119 1226 758 
Q 1494 397 1959 397 
Q 2419 397 2687 759 
Q 2956 1122 2956 1747 
Q 2956 2369 2687 2733 
Q 2419 3097 1959 3097 
z
M 1959 3584 
Q 2709 3584 3137 3096 
Q 3566 2609 3566 1747 
Q 3566 888 3137 398 
Q 2709 -91 1959 -91 
Q 1206 -91 779 398 
Q 353 888 353 1747 
Q 353 2609 779 3096 
Q 1206 3584 1959 3584 
z
" id="DejaVuSans-6f" transform="scale(0.015625)"/>
       <path d="M 3122 3366 
L 3122 2828 
Q 2878 2963 2633 3030 
Q 2388 3097 2138 3097 
Q 1578 3097 1268 2742 
Q 959 2388 959 1747 
Q 959 1106 1268 751 
Q 1578 397 2138 397 
Q 2388 397 2633 464 
Q 2878 531 3122 666 
L 3122 134 
Q 2881 22 2623 -34 
Q 2366 -91 2075 -91 
Q 1284 -91 818 406 
Q 353 903 353 1747 
Q 353 2603 823 3093 
Q 1294 3584 2113 3584 
Q 2378 3584 2631 3529 
Q 2884 3475 3122 3366 
z
" id="DejaVuSans-63" transform="scale(0.015625)"/>
       <path d="M 3513 2113 
L 3513 0 
L 2938 0 
L 2938 2094 
Q 2938 2591 2744 2837 
Q 2550 3084 2163 3084 
Q 1697 3084 1428 2787 
Q 1159 2491 1159 1978 
L 1159 0 
L 581 0 
L 581 4863 
L 1159 4863 
L 1159 2956 
Q 1366 3272 1645 3428 
Q 1925 3584 2291 3584 
Q 2894 3584 3203 3211 
Q 3513 2838 3513 2113 
z
" id="DejaVuSans-68" transform="scale(0.015625)"/>
      </defs>
      <use xlink:href="#DejaVuSans-45"/>
      <use x="63.183594" xlink:href="#DejaVuSans-70"/>
      <use x="126.660156" xlink:href="#DejaVuSans-6f"/>
      <use x="187.841797" xlink:href="#DejaVuSans-63"/>
      <use x="242.822266" xlink:href="#DejaVuSans-68"/>
     </g>
    </g>
   </g>
   <g id="matplotlib.axis_2">
    <g id="ytick_1">
     <g id="line2d_6">
      <defs>
       <path d="M 0 0 
L -3.5 0 
" id="m9d3f1dc9f9" style="stroke:#000000;stroke-width:0.8;"/>
      </defs>
      <g>
       <use style="stroke:#000000;stroke-width:0.8;" x="57.6" xlink:href="#m9d3f1dc9f9" y="307.584"/>
      </g>
     </g>
     <g id="text_7">
      <!-- 0.0 -->
      <g transform="translate(34.696875 311.383219)scale(0.1 -0.1)">
       <defs>
        <path d="M 684 794 
L 1344 794 
L 1344 0 
L 684 0 
L 684 794 
z
" id="DejaVuSans-2e" transform="scale(0.015625)"/>
       </defs>
       <use xlink:href="#DejaVuSans-30"/>
       <use x="63.623047" xlink:href="#DejaVuSans-2e"/>
       <use x="95.410156" xlink:href="#DejaVuSans-30"/>
      </g>
     </g>
    </g>
    <g id="ytick_2">
     <g id="line2d_7">
      <g>
       <use style="stroke:#000000;stroke-width:0.8;" x="57.6" xlink:href="#m9d3f1dc9f9" y="254.3616"/>
      </g>
     </g>
     <g id="text_8">
      <!-- 0.2 -->
      <g transform="translate(34.696875 258.160819)scale(0.1 -0.1)">
       <use xlink:href="#DejaVuSans-30"/>
       <use x="63.623047" xlink:href="#DejaVuSans-2e"/>
       <use x="95.410156" xlink:href="#DejaVuSans-32"/>
      </g>
     </g>
    </g>
    <g id="ytick_3">
     <g id="line2d_8">
      <g>
       <use style="stroke:#000000;stroke-width:0.8;" x="57.6" xlink:href="#m9d3f1dc9f9" y="201.1392"/>
      </g>
     </g>
     <g id="text_9">
      <!-- 0.4 -->
      <g transform="translate(34.696875 204.938419)scale(0.1 -0.1)">
       <defs>
        <path d="M 2419 4116 
L 825 1625 
L 2419 1625 
L 2419 4116 
z
M 2253 4666 
L 3047 4666 
L 3047 1625 
L 3713 1625 
L 3713 1100 
L 3047 1100 
L 3047 0 
L 2419 0 
L 2419 1100 
L 313 1100 
L 313 1709 
L 2253 4666 
z
" id="DejaVuSans-34" transform="scale(0.015625)"/>
       </defs>
       <use xlink:href="#DejaVuSans-30"/>
       <use x="63.623047" xlink:href="#DejaVuSans-2e"/>
       <use x="95.410156" xlink:href="#DejaVuSans-34"/>
      </g>
     </g>
    </g>
    <g id="ytick_4">
     <g id="line2d_9">
      <g>
       <use style="stroke:#000000;stroke-width:0.8;" x="57.6" xlink:href="#m9d3f1dc9f9" y="147.9168"/>
      </g>
     </g>
     <g id="text_10">
      <!-- 0.6 -->
      <g transform="translate(34.696875 151.716019)scale(0.1 -0.1)">
       <defs>
        <path d="M 2113 2584 
Q 1688 2584 1439 2293 
Q 1191 2003 1191 1497 
Q 1191 994 1439 701 
Q 1688 409 2113 409 
Q 2538 409 2786 701 
Q 3034 994 3034 1497 
Q 3034 2003 2786 2293 
Q 2538 2584 2113 2584 
z
M 3366 4563 
L 3366 3988 
Q 3128 4100 2886 4159 
Q 2644 4219 2406 4219 
Q 1781 4219 1451 3797 
Q 1122 3375 1075 2522 
Q 1259 2794 1537 2939 
Q 1816 3084 2150 3084 
Q 2853 3084 3261 2657 
Q 3669 2231 3669 1497 
Q 3669 778 3244 343 
Q 2819 -91 2113 -91 
Q 1303 -91 875 529 
Q 447 1150 447 2328 
Q 447 3434 972 4092 
Q 1497 4750 2381 4750 
Q 2619 4750 2861 4703 
Q 3103 4656 3366 4563 
z
" id="DejaVuSans-36" transform="scale(0.015625)"/>
       </defs>
       <use xlink:href="#DejaVuSans-30"/>
       <use x="63.623047" xlink:href="#DejaVuSans-2e"/>
       <use x="95.410156" xlink:href="#DejaVuSans-36"/>
      </g>
     </g>
    </g>
    <g id="ytick_5">
     <g id="line2d_10">
      <g>
       <use style="stroke:#000000;stroke-width:0.8;" x="57.6" xlink:href="#m9d3f1dc9f9" y="94.6944"/>
      </g>
     </g>
     <g id="text_11">
      <!-- 0.8 -->
      <g transform="translate(34.696875 98.493619)scale(0.1 -0.1)">
       <defs>
        <path d="M 2034 2216 
Q 1584 2216 1326 1975 
Q 1069 1734 1069 1313 
Q 1069 891 1326 650 
Q 1584 409 2034 409 
Q 2484 409 2743 651 
Q 3003 894 3003 1313 
Q 3003 1734 2745 1975 
Q 2488 2216 2034 2216 
z
M 1403 2484 
Q 997 2584 770 2862 
Q 544 3141 544 3541 
Q 544 4100 942 4425 
Q 1341 4750 2034 4750 
Q 2731 4750 3128 4425 
Q 3525 4100 3525 3541 
Q 3525 3141 3298 2862 
Q 3072 2584 2669 2484 
Q 3125 2378 3379 2068 
Q 3634 1759 3634 1313 
Q 3634 634 3220 271 
Q 2806 -91 2034 -91 
Q 1263 -91 848 271 
Q 434 634 434 1313 
Q 434 1759 690 2068 
Q 947 2378 1403 2484 
z
M 1172 3481 
Q 1172 3119 1398 2916 
Q 1625 2713 2034 2713 
Q 2441 2713 2670 2916 
Q 2900 3119 2900 3481 
Q 2900 3844 2670 4047 
Q 2441 4250 2034 4250 
Q 1625 4250 1398 4047 
Q 1172 3844 1172 3481 
z
" id="DejaVuSans-38" transform="scale(0.015625)"/>
       </defs>
       <use xlink:href="#DejaVuSans-30"/>
       <use x="63.623047" xlink:href="#DejaVuSans-2e"/>
       <use x="95.410156" xlink:href="#DejaVuSans-38"/>
      </g>
     </g>
    </g>
    <g id="ytick_6">
     <g id="line2d_11">
      <g>
       <use style="stroke:#000000;stroke-width:0.8;" x="57.6" xlink:href="#m9d3f1dc9f9" y="41.472"/>
      </g>
     </g>
     <g id="text_12">
      <!-- 1.0 -->
      <g transform="translate(34.696875 45.271219)scale(0.1 -0.1)">
       <use xlink:href="#DejaVuSans-31"/>
       <use x="63.623047" xlink:href="#DejaVuSans-2e"/>
       <use x="95.410156" xlink:href="#DejaVuSans-30"/>
      </g>
     </g>
    </g>
    <g id="text_13">
     <!-- Accuracy -->
     <g transform="translate(27.577344 208.770187)rotate(-90)scale(0.15 -0.15)">
      <defs>
       <path d="M 2188 4044 
L 1331 1722 
L 3047 1722 
L 2188 4044 
z
M 1831 4666 
L 2547 4666 
L 4325 0 
L 3669 0 
L 3244 1197 
L 1141 1197 
L 716 0 
L 50 0 
L 1831 4666 
z
" id="DejaVuSans-41" transform="scale(0.015625)"/>
       <path d="M 544 1381 
L 544 3500 
L 1119 3500 
L 1119 1403 
Q 1119 906 1312 657 
Q 1506 409 1894 409 
Q 2359 409 2629 706 
Q 2900 1003 2900 1516 
L 2900 3500 
L 3475 3500 
L 3475 0 
L 2900 0 
L 2900 538 
Q 2691 219 2414 64 
Q 2138 -91 1772 -91 
Q 1169 -91 856 284 
Q 544 659 544 1381 
z
M 1991 3584 
L 1991 3584 
z
" id="DejaVuSans-75" transform="scale(0.015625)"/>
       <path d="M 2631 2963 
Q 2534 3019 2420 3045 
Q 2306 3072 2169 3072 
Q 1681 3072 1420 2755 
Q 1159 2438 1159 1844 
L 1159 0 
L 581 0 
L 581 3500 
L 1159 3500 
L 1159 2956 
Q 1341 3275 1631 3429 
Q 1922 3584 2338 3584 
Q 2397 3584 2469 3576 
Q 2541 3569 2628 3553 
L 2631 2963 
z
" id="DejaVuSans-72" transform="scale(0.015625)"/>
       <path d="M 2194 1759 
Q 1497 1759 1228 1600 
Q 959 1441 959 1056 
Q 959 750 1161 570 
Q 1363 391 1709 391 
Q 2188 391 2477 730 
Q 2766 1069 2766 1631 
L 2766 1759 
L 2194 1759 
z
M 3341 1997 
L 3341 0 
L 2766 0 
L 2766 531 
Q 2569 213 2275 61 
Q 1981 -91 1556 -91 
Q 1019 -91 701 211 
Q 384 513 384 1019 
Q 384 1609 779 1909 
Q 1175 2209 1959 2209 
L 2766 2209 
L 2766 2266 
Q 2766 2663 2505 2880 
Q 2244 3097 1772 3097 
Q 1472 3097 1187 3025 
Q 903 2953 641 2809 
L 641 3341 
Q 956 3463 1253 3523 
Q 1550 3584 1831 3584 
Q 2591 3584 2966 3190 
Q 3341 2797 3341 1997 
z
" id="DejaVuSans-61" transform="scale(0.015625)"/>
       <path d="M 2059 -325 
Q 1816 -950 1584 -1140 
Q 1353 -1331 966 -1331 
L 506 -1331 
L 506 -850 
L 844 -850 
Q 1081 -850 1212 -737 
Q 1344 -625 1503 -206 
L 1606 56 
L 191 3500 
L 800 3500 
L 1894 763 
L 2988 3500 
L 3597 3500 
L 2059 -325 
z
" id="DejaVuSans-79" transform="scale(0.015625)"/>
      </defs>
      <use xlink:href="#DejaVuSans-41"/>
      <use x="66.658203" xlink:href="#DejaVuSans-63"/>
      <use x="121.638672" xlink:href="#DejaVuSans-63"/>
      <use x="176.619141" xlink:href="#DejaVuSans-75"/>
      <use x="239.998047" xlink:href="#DejaVuSans-72"/>
      <use x="281.111328" xlink:href="#DejaVuSans-61"/>
      <use x="342.390625" xlink:href="#DejaVuSans-63"/>
      <use x="397.371094" xlink:href="#DejaVuSans-79"/>
     </g>
    </g>
   </g>
   <g id="line2d_12">
    <path clip-path="url(#p9d731db3c6)" d="M 73.832727 279.64224 
L 75.315168 280.9728 
L 76.797609 283.63392 
L 79.762491 280.9728 
L 81.244932 282.30336 
L 82.727372 279.64224 
L 84.209813 279.64224 
L 85.692254 282.30336 
L 87.174695 286.29504 
L 88.657136 280.9728 
L 90.139577 279.64224 
L 91.622017 282.30336 
L 93.104458 283.63392 
L 94.586899 279.64224 
L 96.06934 286.29504 
L 97.551781 280.9728 
L 99.034222 288.95616 
L 100.516663 276.98112 
L 101.999103 284.96448 
L 103.481544 283.63392 
L 104.963985 280.9728 
L 106.446426 283.63392 
L 107.928867 287.6256 
L 109.411308 283.63392 
L 110.893748 274.32 
L 112.376189 287.6256 
L 113.85863 286.29504 
L 115.341071 276.98112 
L 116.823512 275.65056 
L 118.305953 286.29504 
L 119.788394 278.31168 
L 121.270834 279.64224 
L 122.753275 283.63392 
L 124.235716 283.63392 
L 125.718157 287.6256 
L 127.200598 279.64224 
L 128.683039 284.96448 
L 130.165479 274.32 
L 131.64792 274.32 
L 133.130361 291.61728 
L 134.612802 279.64224 
L 136.095243 280.9728 
L 137.577684 279.64224 
L 139.060125 291.61728 
L 142.025006 275.65056 
L 143.507447 280.9728 
L 144.989888 287.6256 
L 146.472329 276.98112 
L 147.95477 274.32 
L 149.43721 282.30336 
L 150.919651 284.96448 
L 152.402092 284.96448 
L 153.884533 282.30336 
L 155.366974 278.31168 
L 156.849415 280.9728 
L 158.331856 290.28672 
L 159.814296 282.30336 
L 161.296737 278.31168 
L 162.779178 284.96448 
L 164.261619 280.9728 
L 165.74406 274.32 
L 167.226501 279.64224 
L 168.708941 283.63392 
L 170.191382 278.31168 
L 171.673823 286.29504 
L 173.156264 283.63392 
L 174.638705 282.30336 
L 176.121146 283.63392 
L 177.603587 286.29504 
L 179.086027 276.98112 
L 180.568468 279.64224 
L 182.050909 284.96448 
L 183.53335 283.63392 
L 185.015791 278.31168 
L 186.498232 280.9728 
L 187.980672 287.6256 
L 189.463113 282.30336 
L 190.945554 284.96448 
L 192.427995 274.32 
L 193.910436 278.31168 
L 195.392877 276.98112 
L 196.875318 271.65888 
L 198.357758 272.98944 
L 199.840199 279.64224 
L 201.32264 291.61728 
L 202.805081 275.65056 
L 204.287522 278.31168 
L 205.769963 290.28672 
L 207.252403 278.31168 
L 208.734844 284.96448 
L 210.217285 284.96448 
L 211.699726 282.30336 
L 213.182167 280.9728 
L 216.147049 272.98944 
L 217.629489 280.9728 
L 219.11193 284.96448 
L 220.594371 282.30336 
L 222.076812 276.98112 
L 223.559253 282.30336 
L 225.041694 283.63392 
L 226.524134 274.32 
L 228.006575 280.9728 
L 229.489016 278.31168 
L 230.971457 282.30336 
L 232.453898 282.30336 
L 233.936339 280.9728 
L 235.41878 267.6672 
L 236.90122 270.32832 
L 238.383661 282.30336 
L 239.866102 274.32 
L 241.348543 282.30336 
L 242.830984 276.98112 
L 244.313425 276.98112 
L 245.795866 280.9728 
L 247.278306 265.00608 
L 248.760747 276.98112 
L 250.243188 267.6672 
L 251.725629 276.98112 
L 253.20807 272.98944 
L 254.690511 271.65888 
L 256.172951 272.98944 
L 257.655392 266.33664 
L 259.137833 262.34496 
L 260.620274 272.98944 
L 263.585156 270.32832 
L 265.067597 276.98112 
L 266.550037 266.33664 
L 268.032478 259.68384 
L 269.514919 263.67552 
L 270.99736 276.98112 
L 272.479801 262.34496 
L 275.444682 259.68384 
L 276.927123 268.99776 
L 278.409564 254.3616 
L 279.892005 267.6672 
L 281.374446 251.70048 
L 282.856887 257.02272 
L 284.339328 254.3616 
L 285.821768 261.0144 
L 287.304209 257.02272 
L 288.78665 245.04768 
L 290.269091 253.03104 
L 291.751532 255.69216 
L 293.233973 249.03936 
L 294.716413 249.03936 
L 296.198854 247.7088 
L 297.681295 250.36992 
L 299.163736 245.04768 
L 302.128618 255.69216 
L 303.611059 247.7088 
L 305.093499 219.76704 
L 306.57594 257.02272 
L 308.058381 242.38656 
L 309.540822 238.39488 
L 311.023263 239.72544 
L 312.505704 258.35328 
L 313.988144 250.36992 
L 315.470585 239.72544 
L 316.953026 249.03936 
L 318.435467 250.36992 
L 319.917908 241.056 
L 321.400349 237.06432 
L 322.88279 245.04768 
L 324.36523 246.37824 
L 325.847671 255.69216 
L 327.330112 243.71712 
L 328.812553 243.71712 
L 330.294994 245.04768 
L 331.777435 254.3616 
L 333.259875 241.056 
L 334.742316 235.73376 
L 337.707198 222.42816 
L 339.189639 239.72544 
L 340.67208 230.41152 
L 342.154521 231.74208 
L 343.636961 241.056 
L 345.119402 239.72544 
L 346.601843 237.06432 
L 348.084284 225.08928 
L 349.566725 231.74208 
L 351.049166 229.08096 
L 352.531606 234.4032 
L 354.014047 219.76704 
L 355.496488 218.43648 
L 356.978929 234.4032 
L 358.46137 225.08928 
L 359.943811 227.7504 
L 361.426252 227.7504 
L 362.908692 215.77536 
L 364.391133 225.08928 
L 365.873574 230.41152 
L 367.356015 241.056 
L 370.320897 219.76704 
L 371.803337 227.7504 
L 373.285778 219.76704 
L 374.768219 230.41152 
L 376.25066 221.0976 
L 377.733101 225.08928 
L 379.215542 223.75872 
L 380.697983 221.0976 
L 382.180423 238.39488 
L 383.662864 219.76704 
L 385.145305 225.08928 
L 386.627746 210.45312 
L 388.110187 215.77536 
L 389.592628 210.45312 
L 391.075068 213.11424 
L 392.557509 221.0976 
L 394.03995 223.75872 
L 395.522391 218.43648 
L 397.004832 210.45312 
L 398.487273 217.10592 
L 398.487273 217.10592 
" style="fill:none;stroke:#1f77b4;stroke-linecap:square;stroke-width:1.5;"/>
   </g>
   <g id="line2d_13">
    <path clip-path="url(#p9d731db3c6)" d="M 73.832727 279.930528 
L 75.315168 281.039328 
L 76.797609 281.460672 
L 78.28005 280.329696 
L 79.762491 281.08368 
L 81.244932 281.682432 
L 84.209813 281.30544 
L 85.692254 281.615904 
L 87.174695 280.152288 
L 88.657136 279.886176 
L 90.139577 280.063584 
L 91.622017 279.509184 
L 93.104458 280.595808 
L 94.586899 280.329696 
L 96.06934 278.999136 
L 97.551781 279.75312 
L 99.034222 279.53136 
L 100.516663 280.462752 
L 101.999103 280.507104 
L 103.481544 279.464832 
L 104.963985 278.577792 
L 106.446426 279.952704 
L 107.928867 280.662336 
L 109.411308 281.039328 
L 110.893748 280.684512 
L 112.376189 282.037248 
L 113.85863 279.53136 
L 115.341071 280.52928 
L 116.823512 278.7552 
L 119.788394 279.64224 
L 121.270834 281.371968 
L 122.753275 280.107936 
L 124.235716 279.597888 
L 125.718157 280.174464 
L 127.200598 280.041408 
L 128.683039 281.150208 
L 130.165479 280.240992 
L 133.130361 280.9728 
L 134.612802 280.063584 
L 136.095243 280.75104 
L 137.577684 280.329696 
L 139.060125 280.174464 
L 140.542565 280.595808 
L 142.025006 281.238912 
L 143.507447 280.218816 
L 146.472329 279.243072 
L 147.95477 280.063584 
L 149.43721 279.154368 
L 150.919651 279.509184 
L 152.402092 280.329696 
L 153.884533 279.819648 
L 155.366974 279.775296 
L 156.849415 279.353952 
L 158.331856 281.172384 
L 159.814296 279.154368 
L 161.296737 280.396224 
L 162.779178 280.839744 
L 164.261619 279.176544 
L 165.74406 279.176544 
L 167.226501 280.30752 
L 168.708941 279.287424 
L 171.673823 278.888256 
L 173.156264 279.42048 
L 174.638705 279.597888 
L 176.121146 281.017152 
L 177.603587 280.4184 
L 179.086027 279.287424 
L 180.568468 280.041408 
L 182.050909 281.105856 
L 183.53335 280.130112 
L 185.015791 280.440576 
L 186.498232 280.08576 
L 187.980672 279.864 
L 189.463113 280.4184 
L 190.945554 281.150208 
L 192.427995 280.595808 
L 193.910436 281.283264 
L 195.392877 280.906272 
L 196.875318 280.285344 
L 199.840199 281.128032 
L 201.32264 280.263168 
L 202.805081 280.75104 
L 204.287522 281.615904 
L 205.769963 279.841824 
L 207.252403 279.97488 
L 208.734844 280.773216 
L 210.217285 279.597888 
L 211.699726 279.864 
L 213.182167 281.105856 
L 214.664608 279.75312 
L 216.147049 280.595808 
L 220.594371 278.7552 
L 222.076812 280.462752 
L 223.559253 279.708768 
L 225.041694 280.551456 
L 226.524134 279.19872 
L 228.006575 278.799552 
L 229.489016 279.464832 
L 230.971457 278.289504 
L 232.453898 279.886176 
L 233.936339 280.396224 
L 235.41878 280.75104 
L 236.90122 279.353952 
L 239.866102 277.890336 
L 241.348543 278.599968 
L 242.830984 276.138432 
L 244.313425 277.75728 
L 245.795866 278.511264 
L 247.278306 276.116256 
L 248.760747 275.450976 
L 250.243188 273.43296 
L 251.725629 277.602048 
L 253.20807 275.694912 
L 254.690511 272.058048 
L 256.172951 270.55008 
L 257.655392 269.485632 
L 259.137833 266.5584 
L 260.620274 276.892416 
L 262.102715 274.696992 
L 263.585156 273.521664 
L 265.067597 271.592352 
L 266.550037 269.463456 
L 268.032478 271.392768 
L 269.514919 274.164768 
L 270.99736 271.348416 
L 272.479801 263.7864 
L 273.962242 266.358816 
L 275.444682 264.496032 
L 276.927123 266.868864 
L 278.409564 263.631168 
L 279.892005 260.925696 
L 281.374446 263.56464 
L 282.856887 258.818976 
L 284.339328 261.524448 
L 285.821768 254.58336 
L 287.304209 255.825216 
L 288.78665 258.708096 
L 290.269091 250.081632 
L 291.751532 260.615232 
L 293.233973 252.25488 
L 294.716413 253.2528 
L 296.198854 249.438528 
L 297.681295 249.859872 
L 299.163736 249.970752 
L 300.646177 256.601376 
L 302.128618 253.341504 
L 303.611059 250.59168 
L 305.093499 251.70048 
L 306.57594 249.394176 
L 308.058381 249.061536 
L 309.540822 247.997088 
L 312.505704 254.893824 
L 313.988144 256.202208 
L 315.470585 251.323488 
L 316.953026 244.914624 
L 318.435467 248.507136 
L 319.917908 252.520992 
L 321.400349 246.733056 
L 322.88279 250.547328 
L 324.36523 248.351904 
L 325.847671 243.983232 
L 327.330112 243.295776 
L 328.812553 248.085792 
L 330.294994 246.112128 
L 331.777435 241.588224 
L 333.259875 242.453088 
L 334.742316 244.9368 
L 336.224757 244.071936 
L 337.707198 242.253504 
L 339.189639 244.914624 
L 340.67208 236.243808 
L 342.154521 241.078176 
L 343.636961 245.003328 
L 345.119402 237.907008 
L 346.601843 245.092032 
L 348.084284 245.358144 
L 349.566725 246.910464 
L 351.049166 242.453088 
L 352.531606 240.102432 
L 354.014047 239.548032 
L 355.496488 238.705344 
L 356.978929 238.572288 
L 358.46137 238.660992 
L 359.943811 235.245888 
L 361.426252 233.671392 
L 362.908692 234.447552 
L 364.391133 242.142624 
L 365.873574 241.410816 
L 367.356015 237.419136 
L 368.838456 237.84048 
L 370.320897 235.888992 
L 371.803337 228.97008 
L 373.285778 233.981856 
L 374.768219 235.40112 
L 376.25066 232.85088 
L 377.733101 236.022048 
L 379.215542 244.648512 
L 380.697983 238.550112 
L 382.180423 230.500224 
L 383.662864 231.098976 
L 385.145305 231.919488 
L 386.627746 234.491904 
L 388.110187 230.101056 
L 389.592628 227.927808 
L 391.075068 230.677632 
L 392.557509 234.9576 
L 394.03995 228.570912 
L 395.522391 229.435776 
L 397.004832 231.276384 
L 398.487273 225.75456 
L 398.487273 225.75456 
" style="fill:none;stroke:#ff7f0e;stroke-linecap:square;stroke-width:1.5;"/>
   </g>
   <g id="patch_3">
    <path d="M 57.6 307.584 
L 57.6 41.472 
" style="fill:none;stroke:#000000;stroke-linecap:square;stroke-linejoin:miter;stroke-width:0.8;"/>
   </g>
   <g id="patch_4">
    <path d="M 414.72 307.584 
L 414.72 41.472 
" style="fill:none;stroke:#000000;stroke-linecap:square;stroke-linejoin:miter;stroke-width:0.8;"/>
   </g>
   <g id="patch_5">
    <path d="M 57.6 307.584 
L 414.72 307.584 
" style="fill:none;stroke:#000000;stroke-linecap:square;stroke-linejoin:miter;stroke-width:0.8;"/>
   </g>
   <g id="patch_6">
    <path d="M 57.6 41.472 
L 414.72 41.472 
" style="fill:none;stroke:#000000;stroke-linecap:square;stroke-linejoin:miter;stroke-width:0.8;"/>
   </g>
   <g id="legend_1">
    <g id="patch_7">
     <path d="M 303.845 78.82825 
L 407.72 78.82825 
Q 409.72 78.82825 409.72 76.82825 
L 409.72 48.472 
Q 409.72 46.472 407.72 46.472 
L 303.845 46.472 
Q 301.845 46.472 301.845 48.472 
L 301.845 76.82825 
Q 301.845 78.82825 303.845 78.82825 
z
" style="fill:#ffffff;opacity:0.8;stroke:#cccccc;stroke-linejoin:miter;"/>
    </g>
    <g id="line2d_14">
     <path d="M 305.845 54.570437 
L 325.845 54.570437 
" style="fill:none;stroke:#1f77b4;stroke-linecap:square;stroke-width:1.5;"/>
    </g>
    <g id="line2d_15"/>
    <g id="text_14">
     <!-- Train loss -->
     <g transform="translate(333.845 58.070437)scale(0.1 -0.1)">
      <defs>
       <path d="M -19 4666 
L 3928 4666 
L 3928 4134 
L 2272 4134 
L 2272 0 
L 1638 0 
L 1638 4134 
L -19 4134 
L -19 4666 
z
" id="DejaVuSans-54" transform="scale(0.015625)"/>
       <path d="M 603 3500 
L 1178 3500 
L 1178 0 
L 603 0 
L 603 3500 
z
M 603 4863 
L 1178 4863 
L 1178 4134 
L 603 4134 
L 603 4863 
z
" id="DejaVuSans-69" transform="scale(0.015625)"/>
       <path d="M 3513 2113 
L 3513 0 
L 2938 0 
L 2938 2094 
Q 2938 2591 2744 2837 
Q 2550 3084 2163 3084 
Q 1697 3084 1428 2787 
Q 1159 2491 1159 1978 
L 1159 0 
L 581 0 
L 581 3500 
L 1159 3500 
L 1159 2956 
Q 1366 3272 1645 3428 
Q 1925 3584 2291 3584 
Q 2894 3584 3203 3211 
Q 3513 2838 3513 2113 
z
" id="DejaVuSans-6e" transform="scale(0.015625)"/>
       <path id="DejaVuSans-20" transform="scale(0.015625)"/>
       <path d="M 603 4863 
L 1178 4863 
L 1178 0 
L 603 0 
L 603 4863 
z
" id="DejaVuSans-6c" transform="scale(0.015625)"/>
       <path d="M 2834 3397 
L 2834 2853 
Q 2591 2978 2328 3040 
Q 2066 3103 1784 3103 
Q 1356 3103 1142 2972 
Q 928 2841 928 2578 
Q 928 2378 1081 2264 
Q 1234 2150 1697 2047 
L 1894 2003 
Q 2506 1872 2764 1633 
Q 3022 1394 3022 966 
Q 3022 478 2636 193 
Q 2250 -91 1575 -91 
Q 1294 -91 989 -36 
Q 684 19 347 128 
L 347 722 
Q 666 556 975 473 
Q 1284 391 1588 391 
Q 1994 391 2212 530 
Q 2431 669 2431 922 
Q 2431 1156 2273 1281 
Q 2116 1406 1581 1522 
L 1381 1569 
Q 847 1681 609 1914 
Q 372 2147 372 2553 
Q 372 3047 722 3315 
Q 1072 3584 1716 3584 
Q 2034 3584 2315 3537 
Q 2597 3491 2834 3397 
z
" id="DejaVuSans-73" transform="scale(0.015625)"/>
      </defs>
      <use xlink:href="#DejaVuSans-54"/>
      <use x="46.333984" xlink:href="#DejaVuSans-72"/>
      <use x="87.447266" xlink:href="#DejaVuSans-61"/>
      <use x="148.726562" xlink:href="#DejaVuSans-69"/>
      <use x="176.509766" xlink:href="#DejaVuSans-6e"/>
      <use x="239.888672" xlink:href="#DejaVuSans-20"/>
      <use x="271.675781" xlink:href="#DejaVuSans-6c"/>
      <use x="299.458984" xlink:href="#DejaVuSans-6f"/>
      <use x="360.640625" xlink:href="#DejaVuSans-73"/>
      <use x="412.740234" xlink:href="#DejaVuSans-73"/>
     </g>
    </g>
    <g id="line2d_16">
     <path d="M 305.845 69.248562 
L 325.845 69.248562 
" style="fill:none;stroke:#ff7f0e;stroke-linecap:square;stroke-width:1.5;"/>
    </g>
    <g id="line2d_17"/>
    <g id="text_15">
     <!-- Validation loss -->
     <g transform="translate(333.845 72.748562)scale(0.1 -0.1)">
      <defs>
       <path d="M 1831 0 
L 50 4666 
L 709 4666 
L 2188 738 
L 3669 4666 
L 4325 4666 
L 2547 0 
L 1831 0 
z
" id="DejaVuSans-56" transform="scale(0.015625)"/>
       <path d="M 2906 2969 
L 2906 4863 
L 3481 4863 
L 3481 0 
L 2906 0 
L 2906 525 
Q 2725 213 2448 61 
Q 2172 -91 1784 -91 
Q 1150 -91 751 415 
Q 353 922 353 1747 
Q 353 2572 751 3078 
Q 1150 3584 1784 3584 
Q 2172 3584 2448 3432 
Q 2725 3281 2906 2969 
z
M 947 1747 
Q 947 1113 1208 752 
Q 1469 391 1925 391 
Q 2381 391 2643 752 
Q 2906 1113 2906 1747 
Q 2906 2381 2643 2742 
Q 2381 3103 1925 3103 
Q 1469 3103 1208 2742 
Q 947 2381 947 1747 
z
" id="DejaVuSans-64" transform="scale(0.015625)"/>
       <path d="M 1172 4494 
L 1172 3500 
L 2356 3500 
L 2356 3053 
L 1172 3053 
L 1172 1153 
Q 1172 725 1289 603 
Q 1406 481 1766 481 
L 2356 481 
L 2356 0 
L 1766 0 
Q 1100 0 847 248 
Q 594 497 594 1153 
L 594 3053 
L 172 3053 
L 172 3500 
L 594 3500 
L 594 4494 
L 1172 4494 
z
" id="DejaVuSans-74" transform="scale(0.015625)"/>
      </defs>
      <use xlink:href="#DejaVuSans-56"/>
      <use x="60.658203" xlink:href="#DejaVuSans-61"/>
      <use x="121.9375" xlink:href="#DejaVuSans-6c"/>
      <use x="149.720703" xlink:href="#DejaVuSans-69"/>
      <use x="177.503906" xlink:href="#DejaVuSans-64"/>
      <use x="240.980469" xlink:href="#DejaVuSans-61"/>
      <use x="302.259766" xlink:href="#DejaVuSans-74"/>
      <use x="341.46875" xlink:href="#DejaVuSans-69"/>
      <use x="369.251953" xlink:href="#DejaVuSans-6f"/>
      <use x="430.433594" xlink:href="#DejaVuSans-6e"/>
      <use x="493.8125" xlink:href="#DejaVuSans-20"/>
      <use x="525.599609" xlink:href="#DejaVuSans-6c"/>
      <use x="553.382812" xlink:href="#DejaVuSans-6f"/>
      <use x="614.564453" xlink:href="#DejaVuSans-73"/>
      <use x="666.664062" xlink:href="#DejaVuSans-73"/>
     </g>
    </g>
   </g>
  </g>
 </g>
 <defs>
  <clipPath id="p9d731db3c6">
   <rect height="266.112" width="357.12" x="57.6" y="41.472"/>
  </clipPath>
 </defs>
</svg>
