<?xml version="1.0" encoding="utf-8" standalone="no"?>
<!DOCTYPE svg PUBLIC "-//W3C//DTD SVG 1.1//EN"
  "http://www.w3.org/Graphics/SVG/1.1/DTD/svg11.dtd">
<svg height="345.6pt" version="1.1" viewBox="0 0 460.8 345.6" width="460.8pt" xmlns="http://www.w3.org/2000/svg" xmlns:xlink="http://www.w3.org/1999/xlink">
 <metadata>
  <rdf:RDF xmlns:cc="http://creativecommons.org/ns#" xmlns:dc="http://purl.org/dc/elements/1.1/" xmlns:rdf="http://www.w3.org/1999/02/22-rdf-syntax-ns#">
   <cc:Work>
    <dc:type rdf:resource="http://purl.org/dc/dcmitype/StillImage"/>
    <dc:date>2021-07-31T09:38:41.019434</dc:date>
    <dc:format>image/svg+xml</dc:format>
    <dc:creator>
     <cc:Agent>
      <dc:title>Matplotlib v3.4.1, https://matplotlib.org/</dc:title>
     </cc:Agent>
    </dc:creator>
   </cc:Work>
  </rdf:RDF>
 </metadata>
 <defs>
  <style type="text/css">*{stroke-linecap:butt;stroke-linejoin:round;}</style>
 </defs>
 <g id="figure_1">
  <g id="patch_1">
   <path d="M 0 345.6 
L 460.8 345.6 
L 460.8 0 
L 0 0 
z
" style="fill:#ffffff;"/>
  </g>
  <g id="axes_1">
   <g id="patch_2">
    <path d="M 57.6 307.584 
L 414.72 307.584 
L 414.72 41.472 
L 57.6 41.472 
z
" style="fill:#ffffff;"/>
   </g>
   <g id="matplotlib.axis_1">
    <g id="xtick_1">
     <g id="line2d_1">
      <defs>
       <path d="M 0 0 
L 0 3.5 
" id="m267ca130ab" style="stroke:#000000;stroke-width:0.8;"/>
      </defs>
      <g>
       <use style="stroke:#000000;stroke-width:0.8;" x="72.47434" xlink:href="#m267ca130ab" y="307.584"/>
      </g>
     </g>
     <g id="text_1">
      <!-- 0 -->
      <g transform="translate(69.29309 322.182437)scale(0.1 -0.1)">
       <defs>
        <path d="M 2034 4250 
Q 1547 4250 1301 3770 
Q 1056 3291 1056 2328 
Q 1056 1369 1301 889 
Q 1547 409 2034 409 
Q 2525 409 2770 889 
Q 3016 1369 3016 2328 
Q 3016 3291 2770 3770 
Q 2525 4250 2034 4250 
z
M 2034 4750 
Q 2819 4750 3233 4129 
Q 3647 3509 3647 2328 
Q 3647 1150 3233 529 
Q 2819 -91 2034 -91 
Q 1250 -91 836 529 
Q 422 1150 422 2328 
Q 422 3509 836 4129 
Q 1250 4750 2034 4750 
z
" id="DejaVuSans-30" transform="scale(0.015625)"/>
       </defs>
       <use xlink:href="#DejaVuSans-30"/>
      </g>
     </g>
    </g>
    <g id="xtick_2">
     <g id="line2d_2">
      <g>
       <use style="stroke:#000000;stroke-width:0.8;" x="140.393701" xlink:href="#m267ca130ab" y="307.584"/>
      </g>
     </g>
     <g id="text_2">
      <!-- 50 -->
      <g transform="translate(134.031201 322.182437)scale(0.1 -0.1)">
       <defs>
        <path d="M 691 4666 
L 3169 4666 
L 3169 4134 
L 1269 4134 
L 1269 2991 
Q 1406 3038 1543 3061 
Q 1681 3084 1819 3084 
Q 2600 3084 3056 2656 
Q 3513 2228 3513 1497 
Q 3513 744 3044 326 
Q 2575 -91 1722 -91 
Q 1428 -91 1123 -41 
Q 819 9 494 109 
L 494 744 
Q 775 591 1075 516 
Q 1375 441 1709 441 
Q 2250 441 2565 725 
Q 2881 1009 2881 1497 
Q 2881 1984 2565 2268 
Q 2250 2553 1709 2553 
Q 1456 2553 1204 2497 
Q 953 2441 691 2322 
L 691 4666 
z
" id="DejaVuSans-35" transform="scale(0.015625)"/>
       </defs>
       <use xlink:href="#DejaVuSans-35"/>
       <use x="63.623047" xlink:href="#DejaVuSans-30"/>
      </g>
     </g>
    </g>
    <g id="xtick_3">
     <g id="line2d_3">
      <g>
       <use style="stroke:#000000;stroke-width:0.8;" x="208.313062" xlink:href="#m267ca130ab" y="307.584"/>
      </g>
     </g>
     <g id="text_3">
      <!-- 100 -->
      <g transform="translate(198.769312 322.182437)scale(0.1 -0.1)">
       <defs>
        <path d="M 794 531 
L 1825 531 
L 1825 4091 
L 703 3866 
L 703 4441 
L 1819 4666 
L 2450 4666 
L 2450 531 
L 3481 531 
L 3481 0 
L 794 0 
L 794 531 
z
" id="DejaVuSans-31" transform="scale(0.015625)"/>
       </defs>
       <use xlink:href="#DejaVuSans-31"/>
       <use x="63.623047" xlink:href="#DejaVuSans-30"/>
       <use x="127.246094" xlink:href="#DejaVuSans-30"/>
      </g>
     </g>
    </g>
    <g id="xtick_4">
     <g id="line2d_4">
      <g>
       <use style="stroke:#000000;stroke-width:0.8;" x="276.232423" xlink:href="#m267ca130ab" y="307.584"/>
      </g>
     </g>
     <g id="text_4">
      <!-- 150 -->
      <g transform="translate(266.688673 322.182437)scale(0.1 -0.1)">
       <use xlink:href="#DejaVuSans-31"/>
       <use x="63.623047" xlink:href="#DejaVuSans-35"/>
       <use x="127.246094" xlink:href="#DejaVuSans-30"/>
      </g>
     </g>
    </g>
    <g id="xtick_5">
     <g id="line2d_5">
      <g>
       <use style="stroke:#000000;stroke-width:0.8;" x="344.151784" xlink:href="#m267ca130ab" y="307.584"/>
      </g>
     </g>
     <g id="text_5">
      <!-- 200 -->
      <g transform="translate(334.608034 322.182437)scale(0.1 -0.1)">
       <defs>
        <path d="M 1228 531 
L 3431 531 
L 3431 0 
L 469 0 
L 469 531 
Q 828 903 1448 1529 
Q 2069 2156 2228 2338 
Q 2531 2678 2651 2914 
Q 2772 3150 2772 3378 
Q 2772 3750 2511 3984 
Q 2250 4219 1831 4219 
Q 1534 4219 1204 4116 
Q 875 4013 500 3803 
L 500 4441 
Q 881 4594 1212 4672 
Q 1544 4750 1819 4750 
Q 2544 4750 2975 4387 
Q 3406 4025 3406 3419 
Q 3406 3131 3298 2873 
Q 3191 2616 2906 2266 
Q 2828 2175 2409 1742 
Q 1991 1309 1228 531 
z
" id="DejaVuSans-32" transform="scale(0.015625)"/>
       </defs>
       <use xlink:href="#DejaVuSans-32"/>
       <use x="63.623047" xlink:href="#DejaVuSans-30"/>
       <use x="127.246094" xlink:href="#DejaVuSans-30"/>
      </g>
     </g>
    </g>
    <g id="xtick_6">
     <g id="line2d_6">
      <g>
       <use style="stroke:#000000;stroke-width:0.8;" x="412.071145" xlink:href="#m267ca130ab" y="307.584"/>
      </g>
     </g>
     <g id="text_6">
      <!-- 250 -->
      <g transform="translate(402.527395 322.182437)scale(0.1 -0.1)">
       <use xlink:href="#DejaVuSans-32"/>
       <use x="63.623047" xlink:href="#DejaVuSans-35"/>
       <use x="127.246094" xlink:href="#DejaVuSans-30"/>
      </g>
     </g>
    </g>
    <g id="text_7">
     <!-- Epoch -->
     <g transform="translate(213.193594 339.659781)scale(0.15 -0.15)">
      <defs>
       <path d="M 628 4666 
L 3578 4666 
L 3578 4134 
L 1259 4134 
L 1259 2753 
L 3481 2753 
L 3481 2222 
L 1259 2222 
L 1259 531 
L 3634 531 
L 3634 0 
L 628 0 
L 628 4666 
z
" id="DejaVuSans-45" transform="scale(0.015625)"/>
       <path d="M 1159 525 
L 1159 -1331 
L 581 -1331 
L 581 3500 
L 1159 3500 
L 1159 2969 
Q 1341 3281 1617 3432 
Q 1894 3584 2278 3584 
Q 2916 3584 3314 3078 
Q 3713 2572 3713 1747 
Q 3713 922 3314 415 
Q 2916 -91 2278 -91 
Q 1894 -91 1617 61 
Q 1341 213 1159 525 
z
M 3116 1747 
Q 3116 2381 2855 2742 
Q 2594 3103 2138 3103 
Q 1681 3103 1420 2742 
Q 1159 2381 1159 1747 
Q 1159 1113 1420 752 
Q 1681 391 2138 391 
Q 2594 391 2855 752 
Q 3116 1113 3116 1747 
z
" id="DejaVuSans-70" transform="scale(0.015625)"/>
       <path d="M 1959 3097 
Q 1497 3097 1228 2736 
Q 959 2375 959 1747 
Q 959 1119 1226 758 
Q 1494 397 1959 397 
Q 2419 397 2687 759 
Q 2956 1122 2956 1747 
Q 2956 2369 2687 2733 
Q 2419 3097 1959 3097 
z
M 1959 3584 
Q 2709 3584 3137 3096 
Q 3566 2609 3566 1747 
Q 3566 888 3137 398 
Q 2709 -91 1959 -91 
Q 1206 -91 779 398 
Q 353 888 353 1747 
Q 353 2609 779 3096 
Q 1206 3584 1959 3584 
z
" id="DejaVuSans-6f" transform="scale(0.015625)"/>
       <path d="M 3122 3366 
L 3122 2828 
Q 2878 2963 2633 3030 
Q 2388 3097 2138 3097 
Q 1578 3097 1268 2742 
Q 959 2388 959 1747 
Q 959 1106 1268 751 
Q 1578 397 2138 397 
Q 2388 397 2633 464 
Q 2878 531 3122 666 
L 3122 134 
Q 2881 22 2623 -34 
Q 2366 -91 2075 -91 
Q 1284 -91 818 406 
Q 353 903 353 1747 
Q 353 2603 823 3093 
Q 1294 3584 2113 3584 
Q 2378 3584 2631 3529 
Q 2884 3475 3122 3366 
z
" id="DejaVuSans-63" transform="scale(0.015625)"/>
       <path d="M 3513 2113 
L 3513 0 
L 2938 0 
L 2938 2094 
Q 2938 2591 2744 2837 
Q 2550 3084 2163 3084 
Q 1697 3084 1428 2787 
Q 1159 2491 1159 1978 
L 1159 0 
L 581 0 
L 581 4863 
L 1159 4863 
L 1159 2956 
Q 1366 3272 1645 3428 
Q 1925 3584 2291 3584 
Q 2894 3584 3203 3211 
Q 3513 2838 3513 2113 
z
" id="DejaVuSans-68" transform="scale(0.015625)"/>
      </defs>
      <use xlink:href="#DejaVuSans-45"/>
      <use x="63.183594" xlink:href="#DejaVuSans-70"/>
      <use x="126.660156" xlink:href="#DejaVuSans-6f"/>
      <use x="187.841797" xlink:href="#DejaVuSans-63"/>
      <use x="242.822266" xlink:href="#DejaVuSans-68"/>
     </g>
    </g>
   </g>
   <g id="matplotlib.axis_2">
    <g id="ytick_1">
     <g id="line2d_7">
      <defs>
       <path d="M 0 0 
L -3.5 0 
" id="m34bae30994" style="stroke:#000000;stroke-width:0.8;"/>
      </defs>
      <g>
       <use style="stroke:#000000;stroke-width:0.8;" x="57.6" xlink:href="#m34bae30994" y="280.177965"/>
      </g>
     </g>
     <g id="text_8">
      <!-- 0.6 -->
      <g transform="translate(34.696875 283.977184)scale(0.1 -0.1)">
       <defs>
        <path d="M 684 794 
L 1344 794 
L 1344 0 
L 684 0 
L 684 794 
z
" id="DejaVuSans-2e" transform="scale(0.015625)"/>
        <path d="M 2113 2584 
Q 1688 2584 1439 2293 
Q 1191 2003 1191 1497 
Q 1191 994 1439 701 
Q 1688 409 2113 409 
Q 2538 409 2786 701 
Q 3034 994 3034 1497 
Q 3034 2003 2786 2293 
Q 2538 2584 2113 2584 
z
M 3366 4563 
L 3366 3988 
Q 3128 4100 2886 4159 
Q 2644 4219 2406 4219 
Q 1781 4219 1451 3797 
Q 1122 3375 1075 2522 
Q 1259 2794 1537 2939 
Q 1816 3084 2150 3084 
Q 2853 3084 3261 2657 
Q 3669 2231 3669 1497 
Q 3669 778 3244 343 
Q 2819 -91 2113 -91 
Q 1303 -91 875 529 
Q 447 1150 447 2328 
Q 447 3434 972 4092 
Q 1497 4750 2381 4750 
Q 2619 4750 2861 4703 
Q 3103 4656 3366 4563 
z
" id="DejaVuSans-36" transform="scale(0.015625)"/>
       </defs>
       <use xlink:href="#DejaVuSans-30"/>
       <use x="63.623047" xlink:href="#DejaVuSans-2e"/>
       <use x="95.410156" xlink:href="#DejaVuSans-36"/>
      </g>
     </g>
    </g>
    <g id="ytick_2">
     <g id="line2d_8">
      <g>
       <use style="stroke:#000000;stroke-width:0.8;" x="57.6" xlink:href="#m34bae30994" y="234.694004"/>
      </g>
     </g>
     <g id="text_9">
      <!-- 0.8 -->
      <g transform="translate(34.696875 238.493222)scale(0.1 -0.1)">
       <defs>
        <path d="M 2034 2216 
Q 1584 2216 1326 1975 
Q 1069 1734 1069 1313 
Q 1069 891 1326 650 
Q 1584 409 2034 409 
Q 2484 409 2743 651 
Q 3003 894 3003 1313 
Q 3003 1734 2745 1975 
Q 2488 2216 2034 2216 
z
M 1403 2484 
Q 997 2584 770 2862 
Q 544 3141 544 3541 
Q 544 4100 942 4425 
Q 1341 4750 2034 4750 
Q 2731 4750 3128 4425 
Q 3525 4100 3525 3541 
Q 3525 3141 3298 2862 
Q 3072 2584 2669 2484 
Q 3125 2378 3379 2068 
Q 3634 1759 3634 1313 
Q 3634 634 3220 271 
Q 2806 -91 2034 -91 
Q 1263 -91 848 271 
Q 434 634 434 1313 
Q 434 1759 690 2068 
Q 947 2378 1403 2484 
z
M 1172 3481 
Q 1172 3119 1398 2916 
Q 1625 2713 2034 2713 
Q 2441 2713 2670 2916 
Q 2900 3119 2900 3481 
Q 2900 3844 2670 4047 
Q 2441 4250 2034 4250 
Q 1625 4250 1398 4047 
Q 1172 3844 1172 3481 
z
" id="DejaVuSans-38" transform="scale(0.015625)"/>
       </defs>
       <use xlink:href="#DejaVuSans-30"/>
       <use x="63.623047" xlink:href="#DejaVuSans-2e"/>
       <use x="95.410156" xlink:href="#DejaVuSans-38"/>
      </g>
     </g>
    </g>
    <g id="ytick_3">
     <g id="line2d_9">
      <g>
       <use style="stroke:#000000;stroke-width:0.8;" x="57.6" xlink:href="#m34bae30994" y="189.210042"/>
      </g>
     </g>
     <g id="text_10">
      <!-- 1.0 -->
      <g transform="translate(34.696875 193.00926)scale(0.1 -0.1)">
       <use xlink:href="#DejaVuSans-31"/>
       <use x="63.623047" xlink:href="#DejaVuSans-2e"/>
       <use x="95.410156" xlink:href="#DejaVuSans-30"/>
      </g>
     </g>
    </g>
    <g id="ytick_4">
     <g id="line2d_10">
      <g>
       <use style="stroke:#000000;stroke-width:0.8;" x="57.6" xlink:href="#m34bae30994" y="143.72608"/>
      </g>
     </g>
     <g id="text_11">
      <!-- 1.2 -->
      <g transform="translate(34.696875 147.525299)scale(0.1 -0.1)">
       <use xlink:href="#DejaVuSans-31"/>
       <use x="63.623047" xlink:href="#DejaVuSans-2e"/>
       <use x="95.410156" xlink:href="#DejaVuSans-32"/>
      </g>
     </g>
    </g>
    <g id="ytick_5">
     <g id="line2d_11">
      <g>
       <use style="stroke:#000000;stroke-width:0.8;" x="57.6" xlink:href="#m34bae30994" y="98.242118"/>
      </g>
     </g>
     <g id="text_12">
      <!-- 1.4 -->
      <g transform="translate(34.696875 102.041337)scale(0.1 -0.1)">
       <defs>
        <path d="M 2419 4116 
L 825 1625 
L 2419 1625 
L 2419 4116 
z
M 2253 4666 
L 3047 4666 
L 3047 1625 
L 3713 1625 
L 3713 1100 
L 3047 1100 
L 3047 0 
L 2419 0 
L 2419 1100 
L 313 1100 
L 313 1709 
L 2253 4666 
z
" id="DejaVuSans-34" transform="scale(0.015625)"/>
       </defs>
       <use xlink:href="#DejaVuSans-31"/>
       <use x="63.623047" xlink:href="#DejaVuSans-2e"/>
       <use x="95.410156" xlink:href="#DejaVuSans-34"/>
      </g>
     </g>
    </g>
    <g id="ytick_6">
     <g id="line2d_12">
      <g>
       <use style="stroke:#000000;stroke-width:0.8;" x="57.6" xlink:href="#m34bae30994" y="52.758156"/>
      </g>
     </g>
     <g id="text_13">
      <!-- 1.6 -->
      <g transform="translate(34.696875 56.557375)scale(0.1 -0.1)">
       <use xlink:href="#DejaVuSans-31"/>
       <use x="63.623047" xlink:href="#DejaVuSans-2e"/>
       <use x="95.410156" xlink:href="#DejaVuSans-36"/>
      </g>
     </g>
    </g>
   </g>
   <g id="line2d_13">
    <path clip-path="url(#p4d4f958496)" d="M 73.832727 96.876877 
L 75.191114 132.174737 
L 76.549502 198.459916 
L 77.907889 173.798577 
L 79.266276 165.997545 
L 80.624663 156.975955 
L 81.983051 116.096222 
L 83.341438 142.418422 
L 84.699825 96.459176 
L 86.058212 111.869094 
L 87.416599 116.76796 
L 88.774987 149.775625 
L 90.133374 53.568 
L 91.491761 147.082468 
L 92.850148 135.507781 
L 94.208536 164.315967 
L 95.566923 157.982244 
L 96.92531 141.610339 
L 98.283697 195.67858 
L 99.642084 164.920877 
L 101.000472 98.748941 
L 102.358859 151.345926 
L 103.717246 131.221539 
L 105.075633 135.688757 
L 106.434021 94.574613 
L 107.792408 139.404278 
L 109.150795 98.00836 
L 110.509182 139.106191 
L 111.867569 154.026595 
L 113.225957 149.323444 
L 114.584344 166.150345 
L 115.942731 126.16159 
L 117.301118 151.513245 
L 118.659506 174.192085 
L 120.017893 163.35071 
L 121.37628 169.20197 
L 122.734667 114.469765 
L 124.093054 146.202124 
L 125.451442 245.767466 
L 126.809829 138.805266 
L 129.526603 155.747713 
L 130.88499 159.272941 
L 132.243378 172.175343 
L 133.601765 187.803832 
L 134.960152 159.244603 
L 136.318539 154.306286 
L 139.035314 114.720778 
L 140.393701 182.713323 
L 141.752088 136.816068 
L 143.110475 115.256146 
L 144.468863 149.426924 
L 145.82725 151.400588 
L 147.185637 158.454533 
L 148.544024 149.282943 
L 149.902412 132.006049 
L 151.260799 189.612863 
L 152.619186 146.325805 
L 153.977573 194.132256 
L 155.33596 148.355492 
L 156.694348 174.165735 
L 158.052735 126.608473 
L 159.411122 140.420418 
L 160.769509 184.917709 
L 162.127897 194.067738 
L 163.486284 101.375861 
L 164.844671 93.363738 
L 166.203058 140.238746 
L 167.561445 85.966959 
L 168.919833 170.041507 
L 170.27822 175.317249 
L 171.636607 198.358844 
L 172.994994 153.860765 
L 174.353382 152.944867 
L 175.711769 115.046233 
L 177.070156 196.289553 
L 178.428543 177.624943 
L 179.78693 141.501394 
L 181.145318 147.981729 
L 182.503705 134.781776 
L 183.862092 146.911394 
L 185.220479 133.901758 
L 186.578866 144.624896 
L 187.937254 187.152361 
L 189.295641 126.317269 
L 190.654028 141.225043 
L 192.012415 133.046792 
L 193.370803 172.631576 
L 194.72919 121.181226 
L 196.087577 138.374489 
L 197.445964 134.059954 
L 198.804351 150.820687 
L 200.162739 141.173268 
L 201.521126 178.283631 
L 202.879513 160.276833 
L 204.2379 154.748845 
L 205.596288 180.719577 
L 206.954675 177.895694 
L 208.313062 170.916571 
L 209.671449 140.461457 
L 211.029836 147.178182 
L 212.388224 210.371646 
L 213.746611 163.394611 
L 215.104998 206.500731 
L 216.463385 112.459263 
L 217.821773 255.469778 
L 219.18016 198.78073 
L 220.538547 199.869594 
L 221.896934 124.683366 
L 223.255321 122.949612 
L 224.613709 157.936154 
L 225.972096 162.893923 
L 227.330483 189.662024 
L 228.68887 161.263906 
L 230.047258 122.474236 
L 231.405645 144.562807 
L 232.764032 160.498434 
L 234.122419 179.597529 
L 235.480806 203.287267 
L 236.839194 119.779795 
L 238.197581 133.382991 
L 239.555968 156.497741 
L 240.914355 157.7322 
L 242.272742 77.980608 
L 244.989517 185.455907 
L 246.347904 161.725465 
L 247.706291 167.14757 
L 249.064679 165.164148 
L 250.423066 174.473422 
L 251.781453 150.573556 
L 253.13984 196.955674 
L 254.498227 131.556884 
L 255.856615 173.240416 
L 257.215002 124.637667 
L 258.573389 194.161859 
L 259.931776 189.501496 
L 261.290164 172.758808 
L 262.648551 194.859933 
L 264.006938 139.710875 
L 265.365325 189.994014 
L 266.723712 173.78039 
L 268.0821 167.635744 
L 269.440487 218.855501 
L 270.798874 206.002029 
L 272.157261 170.79456 
L 273.515649 247.30752 
L 274.874036 104.296863 
L 276.232423 176.855933 
L 277.59081 232.658036 
L 280.307585 192.006635 
L 281.665972 204.00942 
L 283.024359 205.175127 
L 284.382746 256.214651 
L 285.741134 167.318658 
L 287.099521 188.046105 
L 288.457908 180.661969 
L 289.816295 175.954127 
L 291.174682 200.449859 
L 292.53307 214.481318 
L 293.891457 201.452774 
L 295.249844 176.131369 
L 296.608231 234.833986 
L 297.966618 233.597153 
L 299.325006 252.867389 
L 300.683393 209.911508 
L 302.04178 253.776722 
L 303.400167 239.775243 
L 304.758555 172.050378 
L 306.116942 200.448355 
L 307.475329 245.078618 
L 308.833716 235.743925 
L 310.192103 204.556578 
L 311.550491 198.360515 
L 312.908878 226.640645 
L 314.267265 174.949126 
L 315.625652 239.625963 
L 316.98404 193.576621 
L 318.342427 194.480383 
L 319.700814 212.647386 
L 321.059201 174.424189 
L 323.775976 295.488 
L 325.134363 221.093758 
L 326.49275 177.218501 
L 327.851137 203.218897 
L 329.209525 171.275918 
L 330.567912 212.651946 
L 331.926299 231.925737 
L 333.284686 224.566267 
L 334.643073 172.716012 
L 336.001461 202.209143 
L 337.359848 225.06531 
L 338.718235 200.095162 
L 340.076622 226.83918 
L 341.43501 257.37985 
L 342.793397 234.265413 
L 344.151784 235.66483 
L 345.510171 224.92523 
L 346.868558 186.938881 
L 348.226946 251.902655 
L 349.585333 230.25448 
L 350.94372 221.261786 
L 352.302107 240.160866 
L 353.660494 241.624066 
L 355.018882 193.992075 
L 356.377269 263.328092 
L 357.735656 224.380733 
L 359.094043 244.028176 
L 360.452431 226.461566 
L 361.810818 284.272768 
L 363.169205 248.496041 
L 364.527592 227.25417 
L 365.885979 244.723992 
L 367.244367 260.128279 
L 368.602754 227.668365 
L 369.961141 223.266754 
L 371.319528 210.671058 
L 372.677916 164.852354 
L 374.036303 181.998305 
L 375.39469 240.991257 
L 376.753077 241.107057 
L 378.111464 213.318874 
L 379.469852 211.084367 
L 380.828239 173.448091 
L 382.186626 204.570735 
L 383.545013 262.088099 
L 384.903401 212.307829 
L 386.261788 243.808588 
L 387.620175 264.709481 
L 388.978562 280.882058 
L 390.336949 230.439046 
L 391.695337 228.116063 
L 393.053724 279.164185 
L 394.412111 276.935152 
L 395.770498 223.158442 
L 397.128886 221.730977 
L 398.487273 238.115609 
L 398.487273 238.115609 
" style="fill:none;stroke:#1f77b4;stroke-linecap:square;stroke-width:1.5;"/>
   </g>
   <g id="line2d_14">
    <path clip-path="url(#p4d4f958496)" d="M 73.832727 136.259179 
L 75.191114 127.725103 
L 76.549502 135.052563 
L 77.907889 138.523728 
L 79.266276 150.454992 
L 80.624663 153.904128 
L 81.983051 118.571457 
L 83.341438 131.873653 
L 84.699825 102.458731 
L 86.058212 128.737444 
L 87.416599 164.73829 
L 88.774987 169.664557 
L 90.133374 116.59887 
L 91.491761 197.459318 
L 92.850148 116.532125 
L 94.208536 132.738288 
L 95.566923 173.704008 
L 96.92531 170.851149 
L 98.283697 184.296906 
L 99.642084 132.572499 
L 101.000472 145.426521 
L 102.358859 127.584701 
L 103.717246 162.213714 
L 105.075633 214.167089 
L 106.434021 145.426942 
L 107.792408 168.485728 
L 109.150795 158.186849 
L 110.509182 129.943499 
L 111.867569 171.578652 
L 113.225957 164.820095 
L 114.584344 162.887053 
L 115.942731 174.260775 
L 117.301118 142.216832 
L 118.659506 143.654879 
L 120.017893 123.047862 
L 121.37628 167.00284 
L 122.734667 135.91268 
L 124.093054 155.21349 
L 126.809829 120.638552 
L 128.168216 152.633518 
L 129.526603 128.23709 
L 130.88499 154.879937 
L 132.243378 174.334787 
L 133.601765 155.885512 
L 134.960152 145.396295 
L 136.318539 193.9008 
L 137.676927 131.741808 
L 139.035314 138.64782 
L 140.393701 112.383001 
L 141.752088 142.325822 
L 143.110475 129.823619 
L 144.468863 157.213658 
L 145.82725 158.86512 
L 147.185637 160.982464 
L 148.544024 173.052914 
L 149.902412 211.240409 
L 151.260799 134.921571 
L 152.619186 115.879576 
L 153.977573 149.378452 
L 155.33596 170.47257 
L 156.694348 130.602254 
L 158.052735 122.225275 
L 159.411122 184.335931 
L 160.769509 168.967353 
L 162.127897 147.418131 
L 163.486284 133.703457 
L 164.844671 154.535957 
L 166.203058 168.761467 
L 167.561445 215.527855 
L 168.919833 136.922035 
L 170.27822 139.706805 
L 171.636607 219.066106 
L 172.994994 200.771223 
L 174.353382 199.76445 
L 175.711769 160.540952 
L 177.070156 166.271108 
L 178.428543 177.722942 
L 179.78693 111.30448 
L 181.145318 115.624853 
L 182.503705 184.087987 
L 183.862092 117.070085 
L 185.220479 113.781934 
L 186.578866 127.132196 
L 187.937254 162.380993 
L 189.295641 179.893337 
L 190.654028 95.010452 
L 192.012415 159.647946 
L 193.370803 132.898001 
L 194.72919 143.068872 
L 196.087577 149.500229 
L 197.445964 143.717464 
L 198.804351 179.159814 
L 200.162739 174.515605 
L 201.521126 191.323045 
L 202.879513 132.044175 
L 204.2379 145.142578 
L 205.596288 150.833078 
L 206.954675 174.076973 
L 208.313062 139.094061 
L 209.671449 157.482305 
L 211.029836 150.540289 
L 212.388224 147.712722 
L 213.746611 153.850115 
L 215.104998 165.512221 
L 216.463385 218.239911 
L 217.821773 192.844234 
L 219.18016 106.22309 
L 220.538547 105.622737 
L 221.896934 192.866743 
L 223.255321 149.705343 
L 224.613709 121.065457 
L 225.972096 166.147922 
L 227.330483 183.595228 
L 228.68887 131.115201 
L 230.047258 206.24342 
L 231.405645 145.42493 
L 232.764032 179.353504 
L 234.122419 151.257433 
L 235.480806 128.242298 
L 236.839194 169.013946 
L 238.197581 144.999374 
L 239.555968 167.254985 
L 240.914355 130.052471 
L 242.272742 106.005002 
L 244.989517 186.393966 
L 246.347904 129.530792 
L 247.706291 173.084611 
L 249.064679 106.046186 
L 250.423066 198.575268 
L 251.781453 155.818633 
L 253.13984 181.172281 
L 254.498227 108.751736 
L 255.856615 188.178571 
L 257.215002 163.071365 
L 258.573389 207.728431 
L 259.931776 207.39099 
L 261.290164 223.707661 
L 262.648551 168.65861 
L 264.006938 195.007887 
L 265.365325 190.556104 
L 266.723712 170.736379 
L 268.0821 172.7087 
L 269.440487 176.923274 
L 270.798874 202.510176 
L 272.157261 123.353812 
L 273.515649 219.004813 
L 274.874036 189.949325 
L 276.232423 187.811315 
L 277.59081 185.021593 
L 278.949197 180.631451 
L 280.307585 187.325561 
L 281.665972 206.273841 
L 283.024359 197.254055 
L 284.382746 163.77724 
L 285.741134 195.081878 
L 287.099521 207.00602 
L 288.457908 190.39073 
L 289.816295 184.147395 
L 291.174682 191.380646 
L 292.53307 228.445453 
L 293.891457 233.45888 
L 295.249844 189.896777 
L 296.608231 124.077593 
L 297.966618 182.849055 
L 299.325006 222.051537 
L 300.683393 199.009608 
L 302.04178 233.786682 
L 303.400167 160.524212 
L 304.758555 148.37799 
L 306.116942 125.972377 
L 307.475329 230.727288 
L 308.833716 197.846941 
L 310.192103 180.592428 
L 311.550491 183.751209 
L 312.908878 231.350756 
L 314.267265 218.021573 
L 315.625652 175.846327 
L 316.98404 209.14068 
L 318.342427 154.095464 
L 319.700814 177.151983 
L 321.059201 192.638012 
L 322.417588 185.204644 
L 323.775976 229.977273 
L 325.134363 212.667843 
L 326.49275 226.876763 
L 327.851137 227.491913 
L 329.209525 204.386821 
L 330.567912 207.387494 
L 331.926299 196.892621 
L 333.284686 192.974712 
L 334.643073 226.636244 
L 336.001461 218.655324 
L 337.359848 169.122107 
L 338.718235 179.59814 
L 340.076622 235.676371 
L 341.43501 210.807555 
L 342.793397 212.735901 
L 344.151784 225.583911 
L 345.510171 242.765849 
L 346.868558 193.764258 
L 348.226946 196.950127 
L 349.585333 192.541772 
L 350.94372 203.603712 
L 352.302107 202.310162 
L 353.660494 215.279916 
L 355.018882 264.952579 
L 356.377269 188.264002 
L 357.735656 209.119013 
L 359.094043 208.507399 
L 360.452431 217.331696 
L 361.810818 222.003249 
L 363.169205 171.539393 
L 364.527592 230.80494 
L 365.885979 235.065191 
L 367.244367 195.107446 
L 368.602754 207.864972 
L 369.961141 237.542741 
L 371.319528 236.258678 
L 372.677916 208.323911 
L 374.036303 244.651072 
L 375.39469 182.459749 
L 376.753077 221.007183 
L 378.111464 220.515832 
L 379.469852 201.723241 
L 380.828239 204.594131 
L 382.186626 278.90207 
L 383.545013 211.549748 
L 384.903401 237.18919 
L 386.261788 223.477973 
L 387.620175 200.815074 
L 388.978562 235.034403 
L 390.336949 235.462276 
L 391.695337 210.033191 
L 393.053724 253.811184 
L 395.770498 211.324012 
L 398.487273 252.39993 
L 398.487273 252.39993 
" style="fill:none;stroke:#ff7f0e;stroke-linecap:square;stroke-width:1.5;"/>
   </g>
   <g id="patch_3">
    <path d="M 57.6 307.584 
L 57.6 41.472 
" style="fill:none;stroke:#000000;stroke-linecap:square;stroke-linejoin:miter;stroke-width:0.8;"/>
   </g>
   <g id="patch_4">
    <path d="M 414.72 307.584 
L 414.72 41.472 
" style="fill:none;stroke:#000000;stroke-linecap:square;stroke-linejoin:miter;stroke-width:0.8;"/>
   </g>
   <g id="patch_5">
    <path d="M 57.6 307.584 
L 414.72 307.584 
" style="fill:none;stroke:#000000;stroke-linecap:square;stroke-linejoin:miter;stroke-width:0.8;"/>
   </g>
   <g id="patch_6">
    <path d="M 57.6 41.472 
L 414.72 41.472 
" style="fill:none;stroke:#000000;stroke-linecap:square;stroke-linejoin:miter;stroke-width:0.8;"/>
   </g>
   <g id="legend_1">
    <g id="patch_7">
     <path d="M 303.845 78.82825 
L 407.72 78.82825 
Q 409.72 78.82825 409.72 76.82825 
L 409.72 48.472 
Q 409.72 46.472 407.72 46.472 
L 303.845 46.472 
Q 301.845 46.472 301.845 48.472 
L 301.845 76.82825 
Q 301.845 78.82825 303.845 78.82825 
z
" style="fill:#ffffff;opacity:0.8;stroke:#cccccc;stroke-linejoin:miter;"/>
    </g>
    <g id="line2d_15">
     <path d="M 305.845 54.570437 
L 325.845 54.570437 
" style="fill:none;stroke:#1f77b4;stroke-linecap:square;stroke-width:1.5;"/>
    </g>
    <g id="line2d_16"/>
    <g id="text_14">
     <!-- Train loss -->
     <g transform="translate(333.845 58.070437)scale(0.1 -0.1)">
      <defs>
       <path d="M -19 4666 
L 3928 4666 
L 3928 4134 
L 2272 4134 
L 2272 0 
L 1638 0 
L 1638 4134 
L -19 4134 
L -19 4666 
z
" id="DejaVuSans-54" transform="scale(0.015625)"/>
       <path d="M 2631 2963 
Q 2534 3019 2420 3045 
Q 2306 3072 2169 3072 
Q 1681 3072 1420 2755 
Q 1159 2438 1159 1844 
L 1159 0 
L 581 0 
L 581 3500 
L 1159 3500 
L 1159 2956 
Q 1341 3275 1631 3429 
Q 1922 3584 2338 3584 
Q 2397 3584 2469 3576 
Q 2541 3569 2628 3553 
L 2631 2963 
z
" id="DejaVuSans-72" transform="scale(0.015625)"/>
       <path d="M 2194 1759 
Q 1497 1759 1228 1600 
Q 959 1441 959 1056 
Q 959 750 1161 570 
Q 1363 391 1709 391 
Q 2188 391 2477 730 
Q 2766 1069 2766 1631 
L 2766 1759 
L 2194 1759 
z
M 3341 1997 
L 3341 0 
L 2766 0 
L 2766 531 
Q 2569 213 2275 61 
Q 1981 -91 1556 -91 
Q 1019 -91 701 211 
Q 384 513 384 1019 
Q 384 1609 779 1909 
Q 1175 2209 1959 2209 
L 2766 2209 
L 2766 2266 
Q 2766 2663 2505 2880 
Q 2244 3097 1772 3097 
Q 1472 3097 1187 3025 
Q 903 2953 641 2809 
L 641 3341 
Q 956 3463 1253 3523 
Q 1550 3584 1831 3584 
Q 2591 3584 2966 3190 
Q 3341 2797 3341 1997 
z
" id="DejaVuSans-61" transform="scale(0.015625)"/>
       <path d="M 603 3500 
L 1178 3500 
L 1178 0 
L 603 0 
L 603 3500 
z
M 603 4863 
L 1178 4863 
L 1178 4134 
L 603 4134 
L 603 4863 
z
" id="DejaVuSans-69" transform="scale(0.015625)"/>
       <path d="M 3513 2113 
L 3513 0 
L 2938 0 
L 2938 2094 
Q 2938 2591 2744 2837 
Q 2550 3084 2163 3084 
Q 1697 3084 1428 2787 
Q 1159 2491 1159 1978 
L 1159 0 
L 581 0 
L 581 3500 
L 1159 3500 
L 1159 2956 
Q 1366 3272 1645 3428 
Q 1925 3584 2291 3584 
Q 2894 3584 3203 3211 
Q 3513 2838 3513 2113 
z
" id="DejaVuSans-6e" transform="scale(0.015625)"/>
       <path id="DejaVuSans-20" transform="scale(0.015625)"/>
       <path d="M 603 4863 
L 1178 4863 
L 1178 0 
L 603 0 
L 603 4863 
z
" id="DejaVuSans-6c" transform="scale(0.015625)"/>
       <path d="M 2834 3397 
L 2834 2853 
Q 2591 2978 2328 3040 
Q 2066 3103 1784 3103 
Q 1356 3103 1142 2972 
Q 928 2841 928 2578 
Q 928 2378 1081 2264 
Q 1234 2150 1697 2047 
L 1894 2003 
Q 2506 1872 2764 1633 
Q 3022 1394 3022 966 
Q 3022 478 2636 193 
Q 2250 -91 1575 -91 
Q 1294 -91 989 -36 
Q 684 19 347 128 
L 347 722 
Q 666 556 975 473 
Q 1284 391 1588 391 
Q 1994 391 2212 530 
Q 2431 669 2431 922 
Q 2431 1156 2273 1281 
Q 2116 1406 1581 1522 
L 1381 1569 
Q 847 1681 609 1914 
Q 372 2147 372 2553 
Q 372 3047 722 3315 
Q 1072 3584 1716 3584 
Q 2034 3584 2315 3537 
Q 2597 3491 2834 3397 
z
" id="DejaVuSans-73" transform="scale(0.015625)"/>
      </defs>
      <use xlink:href="#DejaVuSans-54"/>
      <use x="46.333984" xlink:href="#DejaVuSans-72"/>
      <use x="87.447266" xlink:href="#DejaVuSans-61"/>
      <use x="148.726562" xlink:href="#DejaVuSans-69"/>
      <use x="176.509766" xlink:href="#DejaVuSans-6e"/>
      <use x="239.888672" xlink:href="#DejaVuSans-20"/>
      <use x="271.675781" xlink:href="#DejaVuSans-6c"/>
      <use x="299.458984" xlink:href="#DejaVuSans-6f"/>
      <use x="360.640625" xlink:href="#DejaVuSans-73"/>
      <use x="412.740234" xlink:href="#DejaVuSans-73"/>
     </g>
    </g>
    <g id="line2d_17">
     <path d="M 305.845 69.248562 
L 325.845 69.248562 
" style="fill:none;stroke:#ff7f0e;stroke-linecap:square;stroke-width:1.5;"/>
    </g>
    <g id="line2d_18"/>
    <g id="text_15">
     <!-- Validation loss -->
     <g transform="translate(333.845 72.748562)scale(0.1 -0.1)">
      <defs>
       <path d="M 1831 0 
L 50 4666 
L 709 4666 
L 2188 738 
L 3669 4666 
L 4325 4666 
L 2547 0 
L 1831 0 
z
" id="DejaVuSans-56" transform="scale(0.015625)"/>
       <path d="M 2906 2969 
L 2906 4863 
L 3481 4863 
L 3481 0 
L 2906 0 
L 2906 525 
Q 2725 213 2448 61 
Q 2172 -91 1784 -91 
Q 1150 -91 751 415 
Q 353 922 353 1747 
Q 353 2572 751 3078 
Q 1150 3584 1784 3584 
Q 2172 3584 2448 3432 
Q 2725 3281 2906 2969 
z
M 947 1747 
Q 947 1113 1208 752 
Q 1469 391 1925 391 
Q 2381 391 2643 752 
Q 2906 1113 2906 1747 
Q 2906 2381 2643 2742 
Q 2381 3103 1925 3103 
Q 1469 3103 1208 2742 
Q 947 2381 947 1747 
z
" id="DejaVuSans-64" transform="scale(0.015625)"/>
       <path d="M 1172 4494 
L 1172 3500 
L 2356 3500 
L 2356 3053 
L 1172 3053 
L 1172 1153 
Q 1172 725 1289 603 
Q 1406 481 1766 481 
L 2356 481 
L 2356 0 
L 1766 0 
Q 1100 0 847 248 
Q 594 497 594 1153 
L 594 3053 
L 172 3053 
L 172 3500 
L 594 3500 
L 594 4494 
L 1172 4494 
z
" id="DejaVuSans-74" transform="scale(0.015625)"/>
      </defs>
      <use xlink:href="#DejaVuSans-56"/>
      <use x="60.658203" xlink:href="#DejaVuSans-61"/>
      <use x="121.9375" xlink:href="#DejaVuSans-6c"/>
      <use x="149.720703" xlink:href="#DejaVuSans-69"/>
      <use x="177.503906" xlink:href="#DejaVuSans-64"/>
      <use x="240.980469" xlink:href="#DejaVuSans-61"/>
      <use x="302.259766" xlink:href="#DejaVuSans-74"/>
      <use x="341.46875" xlink:href="#DejaVuSans-69"/>
      <use x="369.251953" xlink:href="#DejaVuSans-6f"/>
      <use x="430.433594" xlink:href="#DejaVuSans-6e"/>
      <use x="493.8125" xlink:href="#DejaVuSans-20"/>
      <use x="525.599609" xlink:href="#DejaVuSans-6c"/>
      <use x="553.382812" xlink:href="#DejaVuSans-6f"/>
      <use x="614.564453" xlink:href="#DejaVuSans-73"/>
      <use x="666.664062" xlink:href="#DejaVuSans-73"/>
     </g>
    </g>
   </g>
  </g>
 </g>
 <defs>
  <clipPath id="p4d4f958496">
   <rect height="266.112" width="357.12" x="57.6" y="41.472"/>
  </clipPath>
 </defs>
</svg>
