<?xml version="1.0" encoding="utf-8" standalone="no"?>
<!DOCTYPE svg PUBLIC "-//W3C//DTD SVG 1.1//EN"
  "http://www.w3.org/Graphics/SVG/1.1/DTD/svg11.dtd">
<svg height="345.6pt" version="1.1" viewBox="0 0 460.8 345.6" width="460.8pt" xmlns="http://www.w3.org/2000/svg" xmlns:xlink="http://www.w3.org/1999/xlink">
 <metadata>
  <rdf:RDF xmlns:cc="http://creativecommons.org/ns#" xmlns:dc="http://purl.org/dc/elements/1.1/" xmlns:rdf="http://www.w3.org/1999/02/22-rdf-syntax-ns#">
   <cc:Work>
    <dc:type rdf:resource="http://purl.org/dc/dcmitype/StillImage"/>
    <dc:date>2021-08-07T09:23:41.060092</dc:date>
    <dc:format>image/svg+xml</dc:format>
    <dc:creator>
     <cc:Agent>
      <dc:title>Matplotlib v3.4.1, https://matplotlib.org/</dc:title>
     </cc:Agent>
    </dc:creator>
   </cc:Work>
  </rdf:RDF>
 </metadata>
 <defs>
  <style type="text/css">*{stroke-linecap:butt;stroke-linejoin:round;}</style>
 </defs>
 <g id="figure_1">
  <g id="patch_1">
   <path d="M 0 345.6 
L 460.8 345.6 
L 460.8 0 
L 0 0 
z
" style="fill:#ffffff;"/>
  </g>
  <g id="axes_1">
   <g id="patch_2">
    <path d="M 57.6 307.584 
L 414.72 307.584 
L 414.72 41.472 
L 57.6 41.472 
z
" style="fill:#ffffff;"/>
   </g>
   <g id="matplotlib.axis_1">
    <g id="xtick_1">
     <g id="line2d_1">
      <defs>
       <path d="M 0 0 
L 0 3.5 
" id="m14b9fb51c3" style="stroke:#000000;stroke-width:0.8;"/>
      </defs>
      <g>
       <use style="stroke:#000000;stroke-width:0.8;" x="72.350286" xlink:href="#m14b9fb51c3" y="307.584"/>
      </g>
     </g>
     <g id="text_1">
      <!-- 0 -->
      <g transform="translate(69.169036 322.182437)scale(0.1 -0.1)">
       <defs>
        <path d="M 2034 4250 
Q 1547 4250 1301 3770 
Q 1056 3291 1056 2328 
Q 1056 1369 1301 889 
Q 1547 409 2034 409 
Q 2525 409 2770 889 
Q 3016 1369 3016 2328 
Q 3016 3291 2770 3770 
Q 2525 4250 2034 4250 
z
M 2034 4750 
Q 2819 4750 3233 4129 
Q 3647 3509 3647 2328 
Q 3647 1150 3233 529 
Q 2819 -91 2034 -91 
Q 1250 -91 836 529 
Q 422 1150 422 2328 
Q 422 3509 836 4129 
Q 1250 4750 2034 4750 
z
" id="DejaVuSans-30" transform="scale(0.015625)"/>
       </defs>
       <use xlink:href="#DejaVuSans-30"/>
      </g>
     </g>
    </g>
    <g id="xtick_2">
     <g id="line2d_2">
      <g>
       <use style="stroke:#000000;stroke-width:0.8;" x="146.472329" xlink:href="#m14b9fb51c3" y="307.584"/>
      </g>
     </g>
     <g id="text_2">
      <!-- 50 -->
      <g transform="translate(140.109829 322.182437)scale(0.1 -0.1)">
       <defs>
        <path d="M 691 4666 
L 3169 4666 
L 3169 4134 
L 1269 4134 
L 1269 2991 
Q 1406 3038 1543 3061 
Q 1681 3084 1819 3084 
Q 2600 3084 3056 2656 
Q 3513 2228 3513 1497 
Q 3513 744 3044 326 
Q 2575 -91 1722 -91 
Q 1428 -91 1123 -41 
Q 819 9 494 109 
L 494 744 
Q 775 591 1075 516 
Q 1375 441 1709 441 
Q 2250 441 2565 725 
Q 2881 1009 2881 1497 
Q 2881 1984 2565 2268 
Q 2250 2553 1709 2553 
Q 1456 2553 1204 2497 
Q 953 2441 691 2322 
L 691 4666 
z
" id="DejaVuSans-35" transform="scale(0.015625)"/>
       </defs>
       <use xlink:href="#DejaVuSans-35"/>
       <use x="63.623047" xlink:href="#DejaVuSans-30"/>
      </g>
     </g>
    </g>
    <g id="xtick_3">
     <g id="line2d_3">
      <g>
       <use style="stroke:#000000;stroke-width:0.8;" x="220.594371" xlink:href="#m14b9fb51c3" y="307.584"/>
      </g>
     </g>
     <g id="text_3">
      <!-- 100 -->
      <g transform="translate(211.050621 322.182437)scale(0.1 -0.1)">
       <defs>
        <path d="M 794 531 
L 1825 531 
L 1825 4091 
L 703 3866 
L 703 4441 
L 1819 4666 
L 2450 4666 
L 2450 531 
L 3481 531 
L 3481 0 
L 794 0 
L 794 531 
z
" id="DejaVuSans-31" transform="scale(0.015625)"/>
       </defs>
       <use xlink:href="#DejaVuSans-31"/>
       <use x="63.623047" xlink:href="#DejaVuSans-30"/>
       <use x="127.246094" xlink:href="#DejaVuSans-30"/>
      </g>
     </g>
    </g>
    <g id="xtick_4">
     <g id="line2d_4">
      <g>
       <use style="stroke:#000000;stroke-width:0.8;" x="294.716413" xlink:href="#m14b9fb51c3" y="307.584"/>
      </g>
     </g>
     <g id="text_4">
      <!-- 150 -->
      <g transform="translate(285.172663 322.182437)scale(0.1 -0.1)">
       <use xlink:href="#DejaVuSans-31"/>
       <use x="63.623047" xlink:href="#DejaVuSans-35"/>
       <use x="127.246094" xlink:href="#DejaVuSans-30"/>
      </g>
     </g>
    </g>
    <g id="xtick_5">
     <g id="line2d_5">
      <g>
       <use style="stroke:#000000;stroke-width:0.8;" x="368.838456" xlink:href="#m14b9fb51c3" y="307.584"/>
      </g>
     </g>
     <g id="text_5">
      <!-- 200 -->
      <g transform="translate(359.294706 322.182437)scale(0.1 -0.1)">
       <defs>
        <path d="M 1228 531 
L 3431 531 
L 3431 0 
L 469 0 
L 469 531 
Q 828 903 1448 1529 
Q 2069 2156 2228 2338 
Q 2531 2678 2651 2914 
Q 2772 3150 2772 3378 
Q 2772 3750 2511 3984 
Q 2250 4219 1831 4219 
Q 1534 4219 1204 4116 
Q 875 4013 500 3803 
L 500 4441 
Q 881 4594 1212 4672 
Q 1544 4750 1819 4750 
Q 2544 4750 2975 4387 
Q 3406 4025 3406 3419 
Q 3406 3131 3298 2873 
Q 3191 2616 2906 2266 
Q 2828 2175 2409 1742 
Q 1991 1309 1228 531 
z
" id="DejaVuSans-32" transform="scale(0.015625)"/>
       </defs>
       <use xlink:href="#DejaVuSans-32"/>
       <use x="63.623047" xlink:href="#DejaVuSans-30"/>
       <use x="127.246094" xlink:href="#DejaVuSans-30"/>
      </g>
     </g>
    </g>
    <g id="text_6">
     <!-- Epoch -->
     <g transform="translate(213.193594 339.659781)scale(0.15 -0.15)">
      <defs>
       <path d="M 628 4666 
L 3578 4666 
L 3578 4134 
L 1259 4134 
L 1259 2753 
L 3481 2753 
L 3481 2222 
L 1259 2222 
L 1259 531 
L 3634 531 
L 3634 0 
L 628 0 
L 628 4666 
z
" id="DejaVuSans-45" transform="scale(0.015625)"/>
       <path d="M 1159 525 
L 1159 -1331 
L 581 -1331 
L 581 3500 
L 1159 3500 
L 1159 2969 
Q 1341 3281 1617 3432 
Q 1894 3584 2278 3584 
Q 2916 3584 3314 3078 
Q 3713 2572 3713 1747 
Q 3713 922 3314 415 
Q 2916 -91 2278 -91 
Q 1894 -91 1617 61 
Q 1341 213 1159 525 
z
M 3116 1747 
Q 3116 2381 2855 2742 
Q 2594 3103 2138 3103 
Q 1681 3103 1420 2742 
Q 1159 2381 1159 1747 
Q 1159 1113 1420 752 
Q 1681 391 2138 391 
Q 2594 391 2855 752 
Q 3116 1113 3116 1747 
z
" id="DejaVuSans-70" transform="scale(0.015625)"/>
       <path d="M 1959 3097 
Q 1497 3097 1228 2736 
Q 959 2375 959 1747 
Q 959 1119 1226 758 
Q 1494 397 1959 397 
Q 2419 397 2687 759 
Q 2956 1122 2956 1747 
Q 2956 2369 2687 2733 
Q 2419 3097 1959 3097 
z
M 1959 3584 
Q 2709 3584 3137 3096 
Q 3566 2609 3566 1747 
Q 3566 888 3137 398 
Q 2709 -91 1959 -91 
Q 1206 -91 779 398 
Q 353 888 353 1747 
Q 353 2609 779 3096 
Q 1206 3584 1959 3584 
z
" id="DejaVuSans-6f" transform="scale(0.015625)"/>
       <path d="M 3122 3366 
L 3122 2828 
Q 2878 2963 2633 3030 
Q 2388 3097 2138 3097 
Q 1578 3097 1268 2742 
Q 959 2388 959 1747 
Q 959 1106 1268 751 
Q 1578 397 2138 397 
Q 2388 397 2633 464 
Q 2878 531 3122 666 
L 3122 134 
Q 2881 22 2623 -34 
Q 2366 -91 2075 -91 
Q 1284 -91 818 406 
Q 353 903 353 1747 
Q 353 2603 823 3093 
Q 1294 3584 2113 3584 
Q 2378 3584 2631 3529 
Q 2884 3475 3122 3366 
z
" id="DejaVuSans-63" transform="scale(0.015625)"/>
       <path d="M 3513 2113 
L 3513 0 
L 2938 0 
L 2938 2094 
Q 2938 2591 2744 2837 
Q 2550 3084 2163 3084 
Q 1697 3084 1428 2787 
Q 1159 2491 1159 1978 
L 1159 0 
L 581 0 
L 581 4863 
L 1159 4863 
L 1159 2956 
Q 1366 3272 1645 3428 
Q 1925 3584 2291 3584 
Q 2894 3584 3203 3211 
Q 3513 2838 3513 2113 
z
" id="DejaVuSans-68" transform="scale(0.015625)"/>
      </defs>
      <use xlink:href="#DejaVuSans-45"/>
      <use x="63.183594" xlink:href="#DejaVuSans-70"/>
      <use x="126.660156" xlink:href="#DejaVuSans-6f"/>
      <use x="187.841797" xlink:href="#DejaVuSans-63"/>
      <use x="242.822266" xlink:href="#DejaVuSans-68"/>
     </g>
    </g>
   </g>
   <g id="matplotlib.axis_2">
    <g id="ytick_1">
     <g id="line2d_6">
      <defs>
       <path d="M 0 0 
L -3.5 0 
" id="m35b153117d" style="stroke:#000000;stroke-width:0.8;"/>
      </defs>
      <g>
       <use style="stroke:#000000;stroke-width:0.8;" x="57.6" xlink:href="#m35b153117d" y="286.351518"/>
      </g>
     </g>
     <g id="text_7">
      <!-- −1000 -->
      <g transform="translate(16.770313 290.150737)scale(0.1 -0.1)">
       <defs>
        <path d="M 678 2272 
L 4684 2272 
L 4684 1741 
L 678 1741 
L 678 2272 
z
" id="DejaVuSans-2212" transform="scale(0.015625)"/>
       </defs>
       <use xlink:href="#DejaVuSans-2212"/>
       <use x="83.789062" xlink:href="#DejaVuSans-31"/>
       <use x="147.412109" xlink:href="#DejaVuSans-30"/>
       <use x="211.035156" xlink:href="#DejaVuSans-30"/>
       <use x="274.658203" xlink:href="#DejaVuSans-30"/>
      </g>
     </g>
    </g>
    <g id="ytick_2">
     <g id="line2d_7">
      <g>
       <use style="stroke:#000000;stroke-width:0.8;" x="57.6" xlink:href="#m35b153117d" y="245.928913"/>
      </g>
     </g>
     <g id="text_8">
      <!-- −800 -->
      <g transform="translate(23.132812 249.728132)scale(0.1 -0.1)">
       <defs>
        <path d="M 2034 2216 
Q 1584 2216 1326 1975 
Q 1069 1734 1069 1313 
Q 1069 891 1326 650 
Q 1584 409 2034 409 
Q 2484 409 2743 651 
Q 3003 894 3003 1313 
Q 3003 1734 2745 1975 
Q 2488 2216 2034 2216 
z
M 1403 2484 
Q 997 2584 770 2862 
Q 544 3141 544 3541 
Q 544 4100 942 4425 
Q 1341 4750 2034 4750 
Q 2731 4750 3128 4425 
Q 3525 4100 3525 3541 
Q 3525 3141 3298 2862 
Q 3072 2584 2669 2484 
Q 3125 2378 3379 2068 
Q 3634 1759 3634 1313 
Q 3634 634 3220 271 
Q 2806 -91 2034 -91 
Q 1263 -91 848 271 
Q 434 634 434 1313 
Q 434 1759 690 2068 
Q 947 2378 1403 2484 
z
M 1172 3481 
Q 1172 3119 1398 2916 
Q 1625 2713 2034 2713 
Q 2441 2713 2670 2916 
Q 2900 3119 2900 3481 
Q 2900 3844 2670 4047 
Q 2441 4250 2034 4250 
Q 1625 4250 1398 4047 
Q 1172 3844 1172 3481 
z
" id="DejaVuSans-38" transform="scale(0.015625)"/>
       </defs>
       <use xlink:href="#DejaVuSans-2212"/>
       <use x="83.789062" xlink:href="#DejaVuSans-38"/>
       <use x="147.412109" xlink:href="#DejaVuSans-30"/>
       <use x="211.035156" xlink:href="#DejaVuSans-30"/>
      </g>
     </g>
    </g>
    <g id="ytick_3">
     <g id="line2d_8">
      <g>
       <use style="stroke:#000000;stroke-width:0.8;" x="57.6" xlink:href="#m35b153117d" y="205.506307"/>
      </g>
     </g>
     <g id="text_9">
      <!-- −600 -->
      <g transform="translate(23.132812 209.305526)scale(0.1 -0.1)">
       <defs>
        <path d="M 2113 2584 
Q 1688 2584 1439 2293 
Q 1191 2003 1191 1497 
Q 1191 994 1439 701 
Q 1688 409 2113 409 
Q 2538 409 2786 701 
Q 3034 994 3034 1497 
Q 3034 2003 2786 2293 
Q 2538 2584 2113 2584 
z
M 3366 4563 
L 3366 3988 
Q 3128 4100 2886 4159 
Q 2644 4219 2406 4219 
Q 1781 4219 1451 3797 
Q 1122 3375 1075 2522 
Q 1259 2794 1537 2939 
Q 1816 3084 2150 3084 
Q 2853 3084 3261 2657 
Q 3669 2231 3669 1497 
Q 3669 778 3244 343 
Q 2819 -91 2113 -91 
Q 1303 -91 875 529 
Q 447 1150 447 2328 
Q 447 3434 972 4092 
Q 1497 4750 2381 4750 
Q 2619 4750 2861 4703 
Q 3103 4656 3366 4563 
z
" id="DejaVuSans-36" transform="scale(0.015625)"/>
       </defs>
       <use xlink:href="#DejaVuSans-2212"/>
       <use x="83.789062" xlink:href="#DejaVuSans-36"/>
       <use x="147.412109" xlink:href="#DejaVuSans-30"/>
       <use x="211.035156" xlink:href="#DejaVuSans-30"/>
      </g>
     </g>
    </g>
    <g id="ytick_4">
     <g id="line2d_9">
      <g>
       <use style="stroke:#000000;stroke-width:0.8;" x="57.6" xlink:href="#m35b153117d" y="165.083702"/>
      </g>
     </g>
     <g id="text_10">
      <!-- −400 -->
      <g transform="translate(23.132812 168.882921)scale(0.1 -0.1)">
       <defs>
        <path d="M 2419 4116 
L 825 1625 
L 2419 1625 
L 2419 4116 
z
M 2253 4666 
L 3047 4666 
L 3047 1625 
L 3713 1625 
L 3713 1100 
L 3047 1100 
L 3047 0 
L 2419 0 
L 2419 1100 
L 313 1100 
L 313 1709 
L 2253 4666 
z
" id="DejaVuSans-34" transform="scale(0.015625)"/>
       </defs>
       <use xlink:href="#DejaVuSans-2212"/>
       <use x="83.789062" xlink:href="#DejaVuSans-34"/>
       <use x="147.412109" xlink:href="#DejaVuSans-30"/>
       <use x="211.035156" xlink:href="#DejaVuSans-30"/>
      </g>
     </g>
    </g>
    <g id="ytick_5">
     <g id="line2d_10">
      <g>
       <use style="stroke:#000000;stroke-width:0.8;" x="57.6" xlink:href="#m35b153117d" y="124.661097"/>
      </g>
     </g>
     <g id="text_11">
      <!-- −200 -->
      <g transform="translate(23.132812 128.460315)scale(0.1 -0.1)">
       <use xlink:href="#DejaVuSans-2212"/>
       <use x="83.789062" xlink:href="#DejaVuSans-32"/>
       <use x="147.412109" xlink:href="#DejaVuSans-30"/>
       <use x="211.035156" xlink:href="#DejaVuSans-30"/>
      </g>
     </g>
    </g>
    <g id="ytick_6">
     <g id="line2d_11">
      <g>
       <use style="stroke:#000000;stroke-width:0.8;" x="57.6" xlink:href="#m35b153117d" y="84.238491"/>
      </g>
     </g>
     <g id="text_12">
      <!-- 0 -->
      <g transform="translate(44.2375 88.03771)scale(0.1 -0.1)">
       <use xlink:href="#DejaVuSans-30"/>
      </g>
     </g>
    </g>
    <g id="ytick_7">
     <g id="line2d_12">
      <g>
       <use style="stroke:#000000;stroke-width:0.8;" x="57.6" xlink:href="#m35b153117d" y="43.815886"/>
      </g>
     </g>
     <g id="text_13">
      <!-- 200 -->
      <g transform="translate(31.5125 47.615104)scale(0.1 -0.1)">
       <use xlink:href="#DejaVuSans-32"/>
       <use x="63.623047" xlink:href="#DejaVuSans-30"/>
       <use x="127.246094" xlink:href="#DejaVuSans-30"/>
      </g>
     </g>
    </g>
   </g>
   <g id="line2d_13">
    <path clip-path="url(#p7d59fa9eb4)" d="M 73.832727 53.568 
L 75.315168 153.07225 
L 76.797609 164.062229 
L 78.28005 165.798092 
L 81.244932 167.070938 
L 82.727372 171.94989 
L 87.174695 199.917015 
L 88.657136 205.827453 
L 90.139577 209.118988 
L 91.622017 213.193914 
L 93.104458 212.87163 
L 94.586899 218.630242 
L 96.06934 220.738474 
L 97.551781 223.578097 
L 99.034222 228.358014 
L 100.516663 228.734893 
L 101.999103 234.639986 
L 103.481544 236.176782 
L 104.963985 239.268386 
L 106.446426 241.189618 
L 107.928867 243.911501 
L 109.411308 245.456934 
L 110.893748 245.929867 
L 112.376189 248.063595 
L 113.85863 249.794693 
L 115.341071 249.917046 
L 116.823512 251.741257 
L 118.305953 252.557816 
L 119.788394 253.74716 
L 121.270834 255.376909 
L 122.753275 255.540742 
L 124.235716 255.125169 
L 125.718157 258.636184 
L 127.200598 258.612827 
L 128.683039 249.043588 
L 130.165479 260.227182 
L 133.130361 261.820784 
L 134.612802 262.429842 
L 136.095243 263.855263 
L 137.577684 262.45748 
L 139.060125 262.518869 
L 140.542565 265.122972 
L 142.025006 266.054411 
L 143.507447 265.432491 
L 144.989888 267.376997 
L 147.95477 268.541987 
L 149.43721 268.795416 
L 152.402092 270.065993 
L 153.884533 269.806537 
L 155.366974 271.277044 
L 156.849415 272.340805 
L 158.331856 271.844494 
L 159.814296 272.588313 
L 162.779178 273.234978 
L 164.261619 273.813894 
L 165.74406 274.689883 
L 167.226501 274.491106 
L 168.708941 275.284822 
L 170.191382 275.833487 
L 171.673823 275.434631 
L 173.156264 276.066066 
L 174.638705 277.412956 
L 176.121146 277.149574 
L 177.603587 277.786007 
L 180.568468 278.606866 
L 182.050909 278.098994 
L 186.498232 279.864508 
L 187.980672 279.910056 
L 189.463113 280.23137 
L 190.945554 280.937993 
L 192.427995 280.843475 
L 193.910436 281.709611 
L 195.392877 281.725402 
L 196.875318 281.55854 
L 198.357758 281.545916 
L 201.32264 283.130778 
L 202.805081 282.359515 
L 204.287522 282.54847 
L 205.769963 283.858835 
L 207.252403 282.844426 
L 208.734844 283.940478 
L 210.217285 284.54754 
L 211.699726 284.006833 
L 213.182167 281.910937 
L 214.664608 285.315582 
L 216.147049 285.490739 
L 217.629489 285.181388 
L 219.11193 286.150528 
L 220.594371 286.205673 
L 222.076812 285.154389 
L 223.559253 282.650393 
L 225.041694 287.170567 
L 226.524134 288.002055 
L 228.006575 288.310341 
L 229.489016 288.987622 
L 232.453898 288.942757 
L 233.936339 288.758966 
L 239.866102 289.150828 
L 245.795866 289.393216 
L 248.760747 289.142652 
L 250.243188 288.47795 
L 251.725629 288.908875 
L 254.690511 288.655008 
L 256.172951 288.561519 
L 257.655392 289.013269 
L 259.137833 288.977737 
L 260.620274 288.790497 
L 262.102715 289.130164 
L 263.585156 288.775323 
L 265.067597 288.775864 
L 266.550037 289.051826 
L 270.99736 288.422487 
L 272.479801 288.944696 
L 273.962242 288.415799 
L 275.444682 288.821656 
L 276.927123 288.121632 
L 278.409564 288.773249 
L 279.892005 288.482663 
L 281.374446 288.788298 
L 282.856887 287.738898 
L 284.339328 287.907536 
L 285.821768 288.218844 
L 287.304209 288.071914 
L 288.78665 286.766574 
L 290.269091 286.753825 
L 291.751532 286.276481 
L 293.233973 286.624204 
L 294.716413 287.694275 
L 296.198854 286.881776 
L 297.681295 287.883162 
L 299.163736 287.821498 
L 300.646177 286.648903 
L 302.128618 287.381625 
L 303.611059 284.738954 
L 305.093499 274.969407 
L 306.57594 286.656405 
L 308.058381 286.585113 
L 309.540822 285.545861 
L 311.023263 280.37832 
L 312.505704 286.84166 
L 313.988144 286.89066 
L 315.470585 287.981117 
L 316.953026 287.363036 
L 318.435467 287.50092 
L 321.400349 285.914901 
L 322.88279 288.053319 
L 324.36523 288.821002 
L 325.847671 289.408303 
L 327.330112 287.569515 
L 328.812553 288.413043 
L 330.294994 288.600457 
L 331.777435 289.036245 
L 334.742316 287.36243 
L 336.224757 289.910714 
L 337.707198 286.961952 
L 339.189639 288.245383 
L 340.67208 285.190327 
L 342.154521 288.692836 
L 343.636961 287.97042 
L 345.119402 288.915396 
L 348.084284 290.465565 
L 349.566725 290.407694 
L 351.049166 289.750362 
L 352.531606 290.762169 
L 354.014047 291.123422 
L 356.978929 290.980367 
L 358.46137 291.661091 
L 359.943811 292.079669 
L 361.426252 292.285125 
L 362.908692 290.10136 
L 364.391133 291.294987 
L 365.873574 292.744509 
L 367.356015 292.260465 
L 368.838456 293.174923 
L 370.320897 292.933328 
L 371.803337 290.067168 
L 373.285778 292.856631 
L 374.768219 291.799055 
L 376.25066 292.418294 
L 377.733101 292.619309 
L 379.215542 293.876001 
L 380.697983 294.218605 
L 382.180423 286.231021 
L 383.662864 292.053719 
L 385.145305 293.785944 
L 386.627746 294.109457 
L 388.110187 293.115183 
L 389.592628 295.185202 
L 391.075068 294.391703 
L 392.557509 293.415274 
L 394.03995 295.107897 
L 395.522391 295.201776 
L 397.004832 294.829047 
L 398.487273 295.488 
L 398.487273 295.488 
" style="fill:none;stroke:#1f77b4;stroke-linecap:square;stroke-width:1.5;"/>
   </g>
   <g id="line2d_14">
    <path clip-path="url(#p7d59fa9eb4)" d="M 73.832727 111.958406 
L 75.315168 165.562328 
L 76.797609 164.297681 
L 78.28005 167.08854 
L 79.762491 164.622062 
L 81.244932 169.24339 
L 82.727372 177.951696 
L 84.209813 184.732123 
L 85.692254 199.238324 
L 87.174695 204.177575 
L 88.657136 210.317887 
L 90.139577 209.212932 
L 91.622017 216.381961 
L 94.586899 219.99992 
L 97.551781 227.650216 
L 99.034222 230.119735 
L 100.516663 234.053906 
L 101.999103 229.186296 
L 103.481544 236.176192 
L 104.963985 240.716955 
L 106.446426 243.243389 
L 107.928867 243.478282 
L 109.411308 241.704163 
L 110.893748 247.200778 
L 112.376189 241.84079 
L 113.85863 240.497807 
L 115.341071 249.489612 
L 116.823512 251.351435 
L 118.305953 253.893847 
L 119.788394 252.730306 
L 121.270834 254.692368 
L 122.753275 248.957913 
L 124.235716 256.260582 
L 125.718157 254.520622 
L 127.200598 233.767627 
L 128.683039 255.924763 
L 130.165479 258.706028 
L 131.64792 257.012998 
L 133.130361 257.748872 
L 134.612802 262.263278 
L 136.095243 256.424036 
L 137.577684 260.561591 
L 139.060125 254.849305 
L 140.542565 263.817056 
L 142.025006 265.170023 
L 143.507447 255.222393 
L 144.989888 264.030918 
L 146.472329 263.61751 
L 147.95477 265.059193 
L 149.43721 266.053814 
L 150.919651 267.499398 
L 152.402092 268.28835 
L 153.884533 267.507078 
L 155.366974 268.750143 
L 156.849415 268.456647 
L 158.331856 267.671356 
L 159.814296 267.460227 
L 161.296737 264.603315 
L 162.779178 271.156605 
L 164.261619 269.095557 
L 167.226501 270.449064 
L 168.708941 271.776622 
L 170.191382 267.658597 
L 171.673823 270.830726 
L 173.156264 269.976772 
L 174.638705 270.975656 
L 176.121146 273.746724 
L 177.603587 274.787617 
L 179.086027 275.15921 
L 180.568468 270.704767 
L 182.050909 272.951723 
L 185.015791 276.137699 
L 186.498232 274.722394 
L 187.980672 272.483834 
L 189.463113 275.579346 
L 190.945554 277.38555 
L 192.427995 273.625524 
L 193.910436 277.609 
L 195.392877 279.138395 
L 196.875318 273.926899 
L 198.357758 277.887489 
L 199.840199 276.988042 
L 201.32264 279.221815 
L 202.805081 278.866532 
L 204.287522 279.398482 
L 205.769963 276.246025 
L 207.252403 278.29836 
L 208.734844 279.164976 
L 210.217285 279.51919 
L 211.699726 267.143123 
L 213.182167 280.543062 
L 214.664608 281.027663 
L 216.147049 281.152359 
L 219.11193 281.004065 
L 220.594371 279.08426 
L 222.076812 280.959858 
L 223.559253 281.594997 
L 225.041694 281.34352 
L 226.524134 281.921037 
L 229.489016 282.583344 
L 230.971457 282.766737 
L 233.936339 282.068731 
L 235.41878 281.570433 
L 238.383661 282.57124 
L 239.866102 282.375589 
L 241.348543 282.443592 
L 242.830984 283.14507 
L 244.313425 282.370562 
L 245.795866 282.82157 
L 247.278306 283.069015 
L 248.760747 282.649555 
L 250.243188 281.615579 
L 251.725629 282.815925 
L 253.20807 282.459115 
L 254.690511 282.46234 
L 256.172951 281.762161 
L 257.655392 283.396546 
L 263.585156 281.088498 
L 265.067597 283.623417 
L 266.550037 283.023929 
L 268.032478 282.156914 
L 269.514919 282.869122 
L 270.99736 283.298719 
L 272.479801 282.562646 
L 273.962242 282.481409 
L 275.444682 279.483363 
L 276.927123 283.169683 
L 278.409564 283.141133 
L 279.892005 281.897982 
L 281.374446 279.527876 
L 282.856887 283.339855 
L 284.339328 282.167691 
L 285.821768 282.620554 
L 287.304209 282.025771 
L 288.78665 281.208312 
L 290.269091 282.992616 
L 291.751532 279.227756 
L 293.233973 281.342308 
L 294.716413 281.564118 
L 296.198854 280.18105 
L 297.681295 280.702481 
L 299.163736 283.053972 
L 300.646177 283.20556 
L 302.128618 282.954066 
L 303.611059 277.776152 
L 305.093499 279.580964 
L 306.57594 282.384836 
L 308.058381 284.412115 
L 309.540822 281.572044 
L 311.023263 277.541196 
L 312.505704 282.376459 
L 313.988144 282.486788 
L 315.470585 278.869516 
L 316.953026 282.929817 
L 318.435467 280.491294 
L 319.917908 280.879781 
L 321.400349 281.430342 
L 322.88279 283.386776 
L 324.36523 281.797485 
L 325.847671 284.391805 
L 327.330112 284.052239 
L 328.812553 284.927357 
L 330.294994 282.544425 
L 331.777435 281.560923 
L 333.259875 282.56873 
L 334.742316 282.342267 
L 336.224757 281.786473 
L 337.707198 282.346804 
L 339.189639 284.644963 
L 340.67208 284.330656 
L 342.154521 281.883194 
L 343.636961 284.120007 
L 345.119402 281.215476 
L 346.601843 285.127609 
L 348.084284 284.849268 
L 349.566725 285.32806 
L 352.531606 283.549046 
L 354.014047 284.590457 
L 355.496488 284.062958 
L 356.978929 284.86208 
L 358.46137 287.054405 
L 359.943811 286.459781 
L 361.426252 283.437743 
L 362.908692 286.070488 
L 364.391133 285.401452 
L 365.873574 285.519318 
L 367.356015 285.176529 
L 368.838456 286.12243 
L 370.320897 285.363959 
L 373.285778 285.042959 
L 374.768219 282.676286 
L 376.25066 284.901697 
L 377.733101 285.885607 
L 379.215542 287.213817 
L 380.697983 282.076062 
L 382.180423 282.914185 
L 383.662864 288.163852 
L 385.145305 285.38107 
L 386.627746 286.162382 
L 388.110187 288.157183 
L 389.592628 289.046895 
L 391.075068 286.089808 
L 392.557509 287.106599 
L 394.03995 288.895653 
L 395.522391 286.118714 
L 397.004832 288.643329 
L 398.487273 287.406497 
L 398.487273 287.406497 
" style="fill:none;stroke:#ff7f0e;stroke-linecap:square;stroke-width:1.5;"/>
   </g>
   <g id="patch_3">
    <path d="M 57.6 307.584 
L 57.6 41.472 
" style="fill:none;stroke:#000000;stroke-linecap:square;stroke-linejoin:miter;stroke-width:0.8;"/>
   </g>
   <g id="patch_4">
    <path d="M 414.72 307.584 
L 414.72 41.472 
" style="fill:none;stroke:#000000;stroke-linecap:square;stroke-linejoin:miter;stroke-width:0.8;"/>
   </g>
   <g id="patch_5">
    <path d="M 57.6 307.584 
L 414.72 307.584 
" style="fill:none;stroke:#000000;stroke-linecap:square;stroke-linejoin:miter;stroke-width:0.8;"/>
   </g>
   <g id="patch_6">
    <path d="M 57.6 41.472 
L 414.72 41.472 
" style="fill:none;stroke:#000000;stroke-linecap:square;stroke-linejoin:miter;stroke-width:0.8;"/>
   </g>
   <g id="legend_1">
    <g id="patch_7">
     <path d="M 303.845 78.82825 
L 407.72 78.82825 
Q 409.72 78.82825 409.72 76.82825 
L 409.72 48.472 
Q 409.72 46.472 407.72 46.472 
L 303.845 46.472 
Q 301.845 46.472 301.845 48.472 
L 301.845 76.82825 
Q 301.845 78.82825 303.845 78.82825 
z
" style="fill:#ffffff;opacity:0.8;stroke:#cccccc;stroke-linejoin:miter;"/>
    </g>
    <g id="line2d_15">
     <path d="M 305.845 54.570437 
L 325.845 54.570437 
" style="fill:none;stroke:#1f77b4;stroke-linecap:square;stroke-width:1.5;"/>
    </g>
    <g id="line2d_16"/>
    <g id="text_14">
     <!-- Train loss -->
     <g transform="translate(333.845 58.070437)scale(0.1 -0.1)">
      <defs>
       <path d="M -19 4666 
L 3928 4666 
L 3928 4134 
L 2272 4134 
L 2272 0 
L 1638 0 
L 1638 4134 
L -19 4134 
L -19 4666 
z
" id="DejaVuSans-54" transform="scale(0.015625)"/>
       <path d="M 2631 2963 
Q 2534 3019 2420 3045 
Q 2306 3072 2169 3072 
Q 1681 3072 1420 2755 
Q 1159 2438 1159 1844 
L 1159 0 
L 581 0 
L 581 3500 
L 1159 3500 
L 1159 2956 
Q 1341 3275 1631 3429 
Q 1922 3584 2338 3584 
Q 2397 3584 2469 3576 
Q 2541 3569 2628 3553 
L 2631 2963 
z
" id="DejaVuSans-72" transform="scale(0.015625)"/>
       <path d="M 2194 1759 
Q 1497 1759 1228 1600 
Q 959 1441 959 1056 
Q 959 750 1161 570 
Q 1363 391 1709 391 
Q 2188 391 2477 730 
Q 2766 1069 2766 1631 
L 2766 1759 
L 2194 1759 
z
M 3341 1997 
L 3341 0 
L 2766 0 
L 2766 531 
Q 2569 213 2275 61 
Q 1981 -91 1556 -91 
Q 1019 -91 701 211 
Q 384 513 384 1019 
Q 384 1609 779 1909 
Q 1175 2209 1959 2209 
L 2766 2209 
L 2766 2266 
Q 2766 2663 2505 2880 
Q 2244 3097 1772 3097 
Q 1472 3097 1187 3025 
Q 903 2953 641 2809 
L 641 3341 
Q 956 3463 1253 3523 
Q 1550 3584 1831 3584 
Q 2591 3584 2966 3190 
Q 3341 2797 3341 1997 
z
" id="DejaVuSans-61" transform="scale(0.015625)"/>
       <path d="M 603 3500 
L 1178 3500 
L 1178 0 
L 603 0 
L 603 3500 
z
M 603 4863 
L 1178 4863 
L 1178 4134 
L 603 4134 
L 603 4863 
z
" id="DejaVuSans-69" transform="scale(0.015625)"/>
       <path d="M 3513 2113 
L 3513 0 
L 2938 0 
L 2938 2094 
Q 2938 2591 2744 2837 
Q 2550 3084 2163 3084 
Q 1697 3084 1428 2787 
Q 1159 2491 1159 1978 
L 1159 0 
L 581 0 
L 581 3500 
L 1159 3500 
L 1159 2956 
Q 1366 3272 1645 3428 
Q 1925 3584 2291 3584 
Q 2894 3584 3203 3211 
Q 3513 2838 3513 2113 
z
" id="DejaVuSans-6e" transform="scale(0.015625)"/>
       <path id="DejaVuSans-20" transform="scale(0.015625)"/>
       <path d="M 603 4863 
L 1178 4863 
L 1178 0 
L 603 0 
L 603 4863 
z
" id="DejaVuSans-6c" transform="scale(0.015625)"/>
       <path d="M 2834 3397 
L 2834 2853 
Q 2591 2978 2328 3040 
Q 2066 3103 1784 3103 
Q 1356 3103 1142 2972 
Q 928 2841 928 2578 
Q 928 2378 1081 2264 
Q 1234 2150 1697 2047 
L 1894 2003 
Q 2506 1872 2764 1633 
Q 3022 1394 3022 966 
Q 3022 478 2636 193 
Q 2250 -91 1575 -91 
Q 1294 -91 989 -36 
Q 684 19 347 128 
L 347 722 
Q 666 556 975 473 
Q 1284 391 1588 391 
Q 1994 391 2212 530 
Q 2431 669 2431 922 
Q 2431 1156 2273 1281 
Q 2116 1406 1581 1522 
L 1381 1569 
Q 847 1681 609 1914 
Q 372 2147 372 2553 
Q 372 3047 722 3315 
Q 1072 3584 1716 3584 
Q 2034 3584 2315 3537 
Q 2597 3491 2834 3397 
z
" id="DejaVuSans-73" transform="scale(0.015625)"/>
      </defs>
      <use xlink:href="#DejaVuSans-54"/>
      <use x="46.333984" xlink:href="#DejaVuSans-72"/>
      <use x="87.447266" xlink:href="#DejaVuSans-61"/>
      <use x="148.726562" xlink:href="#DejaVuSans-69"/>
      <use x="176.509766" xlink:href="#DejaVuSans-6e"/>
      <use x="239.888672" xlink:href="#DejaVuSans-20"/>
      <use x="271.675781" xlink:href="#DejaVuSans-6c"/>
      <use x="299.458984" xlink:href="#DejaVuSans-6f"/>
      <use x="360.640625" xlink:href="#DejaVuSans-73"/>
      <use x="412.740234" xlink:href="#DejaVuSans-73"/>
     </g>
    </g>
    <g id="line2d_17">
     <path d="M 305.845 69.248562 
L 325.845 69.248562 
" style="fill:none;stroke:#ff7f0e;stroke-linecap:square;stroke-width:1.5;"/>
    </g>
    <g id="line2d_18"/>
    <g id="text_15">
     <!-- Validation loss -->
     <g transform="translate(333.845 72.748562)scale(0.1 -0.1)">
      <defs>
       <path d="M 1831 0 
L 50 4666 
L 709 4666 
L 2188 738 
L 3669 4666 
L 4325 4666 
L 2547 0 
L 1831 0 
z
" id="DejaVuSans-56" transform="scale(0.015625)"/>
       <path d="M 2906 2969 
L 2906 4863 
L 3481 4863 
L 3481 0 
L 2906 0 
L 2906 525 
Q 2725 213 2448 61 
Q 2172 -91 1784 -91 
Q 1150 -91 751 415 
Q 353 922 353 1747 
Q 353 2572 751 3078 
Q 1150 3584 1784 3584 
Q 2172 3584 2448 3432 
Q 2725 3281 2906 2969 
z
M 947 1747 
Q 947 1113 1208 752 
Q 1469 391 1925 391 
Q 2381 391 2643 752 
Q 2906 1113 2906 1747 
Q 2906 2381 2643 2742 
Q 2381 3103 1925 3103 
Q 1469 3103 1208 2742 
Q 947 2381 947 1747 
z
" id="DejaVuSans-64" transform="scale(0.015625)"/>
       <path d="M 1172 4494 
L 1172 3500 
L 2356 3500 
L 2356 3053 
L 1172 3053 
L 1172 1153 
Q 1172 725 1289 603 
Q 1406 481 1766 481 
L 2356 481 
L 2356 0 
L 1766 0 
Q 1100 0 847 248 
Q 594 497 594 1153 
L 594 3053 
L 172 3053 
L 172 3500 
L 594 3500 
L 594 4494 
L 1172 4494 
z
" id="DejaVuSans-74" transform="scale(0.015625)"/>
      </defs>
      <use xlink:href="#DejaVuSans-56"/>
      <use x="60.658203" xlink:href="#DejaVuSans-61"/>
      <use x="121.9375" xlink:href="#DejaVuSans-6c"/>
      <use x="149.720703" xlink:href="#DejaVuSans-69"/>
      <use x="177.503906" xlink:href="#DejaVuSans-64"/>
      <use x="240.980469" xlink:href="#DejaVuSans-61"/>
      <use x="302.259766" xlink:href="#DejaVuSans-74"/>
      <use x="341.46875" xlink:href="#DejaVuSans-69"/>
      <use x="369.251953" xlink:href="#DejaVuSans-6f"/>
      <use x="430.433594" xlink:href="#DejaVuSans-6e"/>
      <use x="493.8125" xlink:href="#DejaVuSans-20"/>
      <use x="525.599609" xlink:href="#DejaVuSans-6c"/>
      <use x="553.382812" xlink:href="#DejaVuSans-6f"/>
      <use x="614.564453" xlink:href="#DejaVuSans-73"/>
      <use x="666.664062" xlink:href="#DejaVuSans-73"/>
     </g>
    </g>
   </g>
  </g>
 </g>
 <defs>
  <clipPath id="p7d59fa9eb4">
   <rect height="266.112" width="357.12" x="57.6" y="41.472"/>
  </clipPath>
 </defs>
</svg>
