<?xml version="1.0" encoding="utf-8" standalone="no"?>
<!DOCTYPE svg PUBLIC "-//W3C//DTD SVG 1.1//EN"
  "http://www.w3.org/Graphics/SVG/1.1/DTD/svg11.dtd">
<svg height="345.6pt" version="1.1" viewBox="0 0 460.8 345.6" width="460.8pt" xmlns="http://www.w3.org/2000/svg" xmlns:xlink="http://www.w3.org/1999/xlink">
 <metadata>
  <rdf:RDF xmlns:cc="http://creativecommons.org/ns#" xmlns:dc="http://purl.org/dc/elements/1.1/" xmlns:rdf="http://www.w3.org/1999/02/22-rdf-syntax-ns#">
   <cc:Work>
    <dc:type rdf:resource="http://purl.org/dc/dcmitype/StillImage"/>
    <dc:date>2021-05-09T13:00:27.143007</dc:date>
    <dc:format>image/svg+xml</dc:format>
    <dc:creator>
     <cc:Agent>
      <dc:title>Matplotlib v3.4.1, https://matplotlib.org/</dc:title>
     </cc:Agent>
    </dc:creator>
   </cc:Work>
  </rdf:RDF>
 </metadata>
 <defs>
  <style type="text/css">*{stroke-linecap:butt;stroke-linejoin:round;}</style>
 </defs>
 <g id="figure_1">
  <g id="patch_1">
   <path d="M 0 345.6 
L 460.8 345.6 
L 460.8 0 
L 0 0 
z
" style="fill:#ffffff;"/>
  </g>
  <g id="axes_1">
   <g id="patch_2">
    <path d="M 57.6 307.584 
L 414.72 307.584 
L 414.72 41.472 
L 57.6 41.472 
z
" style="fill:#ffffff;"/>
   </g>
   <g id="matplotlib.axis_1">
    <g id="xtick_1">
     <g id="line2d_1">
      <defs>
       <path d="M 0 0 
L 0 3.5 
" id="md08110b622" style="stroke:#000000;stroke-width:0.8;"/>
      </defs>
      <g>
       <use style="stroke:#000000;stroke-width:0.8;" x="72.201297" xlink:href="#md08110b622" y="307.584"/>
      </g>
     </g>
     <g id="text_1">
      <!-- 0 -->
      <g transform="translate(69.020047 322.182437)scale(0.1 -0.1)">
       <defs>
        <path d="M 2034 4250 
Q 1547 4250 1301 3770 
Q 1056 3291 1056 2328 
Q 1056 1369 1301 889 
Q 1547 409 2034 409 
Q 2525 409 2770 889 
Q 3016 1369 3016 2328 
Q 3016 3291 2770 3770 
Q 2525 4250 2034 4250 
z
M 2034 4750 
Q 2819 4750 3233 4129 
Q 3647 3509 3647 2328 
Q 3647 1150 3233 529 
Q 2819 -91 2034 -91 
Q 1250 -91 836 529 
Q 422 1150 422 2328 
Q 422 3509 836 4129 
Q 1250 4750 2034 4750 
z
" id="DejaVuSans-30" transform="scale(0.015625)"/>
       </defs>
       <use xlink:href="#DejaVuSans-30"/>
      </g>
     </g>
    </g>
    <g id="xtick_2">
     <g id="line2d_2">
      <g>
       <use style="stroke:#000000;stroke-width:0.8;" x="112.987044" xlink:href="#md08110b622" y="307.584"/>
      </g>
     </g>
     <g id="text_2">
      <!-- 25 -->
      <g transform="translate(106.624544 322.182437)scale(0.1 -0.1)">
       <defs>
        <path d="M 1228 531 
L 3431 531 
L 3431 0 
L 469 0 
L 469 531 
Q 828 903 1448 1529 
Q 2069 2156 2228 2338 
Q 2531 2678 2651 2914 
Q 2772 3150 2772 3378 
Q 2772 3750 2511 3984 
Q 2250 4219 1831 4219 
Q 1534 4219 1204 4116 
Q 875 4013 500 3803 
L 500 4441 
Q 881 4594 1212 4672 
Q 1544 4750 1819 4750 
Q 2544 4750 2975 4387 
Q 3406 4025 3406 3419 
Q 3406 3131 3298 2873 
Q 3191 2616 2906 2266 
Q 2828 2175 2409 1742 
Q 1991 1309 1228 531 
z
" id="DejaVuSans-32" transform="scale(0.015625)"/>
        <path d="M 691 4666 
L 3169 4666 
L 3169 4134 
L 1269 4134 
L 1269 2991 
Q 1406 3038 1543 3061 
Q 1681 3084 1819 3084 
Q 2600 3084 3056 2656 
Q 3513 2228 3513 1497 
Q 3513 744 3044 326 
Q 2575 -91 1722 -91 
Q 1428 -91 1123 -41 
Q 819 9 494 109 
L 494 744 
Q 775 591 1075 516 
Q 1375 441 1709 441 
Q 2250 441 2565 725 
Q 2881 1009 2881 1497 
Q 2881 1984 2565 2268 
Q 2250 2553 1709 2553 
Q 1456 2553 1204 2497 
Q 953 2441 691 2322 
L 691 4666 
z
" id="DejaVuSans-35" transform="scale(0.015625)"/>
       </defs>
       <use xlink:href="#DejaVuSans-32"/>
       <use x="63.623047" xlink:href="#DejaVuSans-35"/>
      </g>
     </g>
    </g>
    <g id="xtick_3">
     <g id="line2d_3">
      <g>
       <use style="stroke:#000000;stroke-width:0.8;" x="153.772791" xlink:href="#md08110b622" y="307.584"/>
      </g>
     </g>
     <g id="text_3">
      <!-- 50 -->
      <g transform="translate(147.410291 322.182437)scale(0.1 -0.1)">
       <use xlink:href="#DejaVuSans-35"/>
       <use x="63.623047" xlink:href="#DejaVuSans-30"/>
      </g>
     </g>
    </g>
    <g id="xtick_4">
     <g id="line2d_4">
      <g>
       <use style="stroke:#000000;stroke-width:0.8;" x="194.558538" xlink:href="#md08110b622" y="307.584"/>
      </g>
     </g>
     <g id="text_4">
      <!-- 75 -->
      <g transform="translate(188.196038 322.182437)scale(0.1 -0.1)">
       <defs>
        <path d="M 525 4666 
L 3525 4666 
L 3525 4397 
L 1831 0 
L 1172 0 
L 2766 4134 
L 525 4134 
L 525 4666 
z
" id="DejaVuSans-37" transform="scale(0.015625)"/>
       </defs>
       <use xlink:href="#DejaVuSans-37"/>
       <use x="63.623047" xlink:href="#DejaVuSans-35"/>
      </g>
     </g>
    </g>
    <g id="xtick_5">
     <g id="line2d_5">
      <g>
       <use style="stroke:#000000;stroke-width:0.8;" x="235.344285" xlink:href="#md08110b622" y="307.584"/>
      </g>
     </g>
     <g id="text_5">
      <!-- 100 -->
      <g transform="translate(225.800535 322.182437)scale(0.1 -0.1)">
       <defs>
        <path d="M 794 531 
L 1825 531 
L 1825 4091 
L 703 3866 
L 703 4441 
L 1819 4666 
L 2450 4666 
L 2450 531 
L 3481 531 
L 3481 0 
L 794 0 
L 794 531 
z
" id="DejaVuSans-31" transform="scale(0.015625)"/>
       </defs>
       <use xlink:href="#DejaVuSans-31"/>
       <use x="63.623047" xlink:href="#DejaVuSans-30"/>
       <use x="127.246094" xlink:href="#DejaVuSans-30"/>
      </g>
     </g>
    </g>
    <g id="xtick_6">
     <g id="line2d_6">
      <g>
       <use style="stroke:#000000;stroke-width:0.8;" x="276.130032" xlink:href="#md08110b622" y="307.584"/>
      </g>
     </g>
     <g id="text_6">
      <!-- 125 -->
      <g transform="translate(266.586282 322.182437)scale(0.1 -0.1)">
       <use xlink:href="#DejaVuSans-31"/>
       <use x="63.623047" xlink:href="#DejaVuSans-32"/>
       <use x="127.246094" xlink:href="#DejaVuSans-35"/>
      </g>
     </g>
    </g>
    <g id="xtick_7">
     <g id="line2d_7">
      <g>
       <use style="stroke:#000000;stroke-width:0.8;" x="316.915779" xlink:href="#md08110b622" y="307.584"/>
      </g>
     </g>
     <g id="text_7">
      <!-- 150 -->
      <g transform="translate(307.372029 322.182437)scale(0.1 -0.1)">
       <use xlink:href="#DejaVuSans-31"/>
       <use x="63.623047" xlink:href="#DejaVuSans-35"/>
       <use x="127.246094" xlink:href="#DejaVuSans-30"/>
      </g>
     </g>
    </g>
    <g id="xtick_8">
     <g id="line2d_8">
      <g>
       <use style="stroke:#000000;stroke-width:0.8;" x="357.701526" xlink:href="#md08110b622" y="307.584"/>
      </g>
     </g>
     <g id="text_8">
      <!-- 175 -->
      <g transform="translate(348.157776 322.182437)scale(0.1 -0.1)">
       <use xlink:href="#DejaVuSans-31"/>
       <use x="63.623047" xlink:href="#DejaVuSans-37"/>
       <use x="127.246094" xlink:href="#DejaVuSans-35"/>
      </g>
     </g>
    </g>
    <g id="xtick_9">
     <g id="line2d_9">
      <g>
       <use style="stroke:#000000;stroke-width:0.8;" x="398.487273" xlink:href="#md08110b622" y="307.584"/>
      </g>
     </g>
     <g id="text_9">
      <!-- 200 -->
      <g transform="translate(388.943523 322.182437)scale(0.1 -0.1)">
       <use xlink:href="#DejaVuSans-32"/>
       <use x="63.623047" xlink:href="#DejaVuSans-30"/>
       <use x="127.246094" xlink:href="#DejaVuSans-30"/>
      </g>
     </g>
    </g>
    <g id="text_10">
     <!-- Epoch -->
     <g transform="translate(213.193594 339.659781)scale(0.15 -0.15)">
      <defs>
       <path d="M 628 4666 
L 3578 4666 
L 3578 4134 
L 1259 4134 
L 1259 2753 
L 3481 2753 
L 3481 2222 
L 1259 2222 
L 1259 531 
L 3634 531 
L 3634 0 
L 628 0 
L 628 4666 
z
" id="DejaVuSans-45" transform="scale(0.015625)"/>
       <path d="M 1159 525 
L 1159 -1331 
L 581 -1331 
L 581 3500 
L 1159 3500 
L 1159 2969 
Q 1341 3281 1617 3432 
Q 1894 3584 2278 3584 
Q 2916 3584 3314 3078 
Q 3713 2572 3713 1747 
Q 3713 922 3314 415 
Q 2916 -91 2278 -91 
Q 1894 -91 1617 61 
Q 1341 213 1159 525 
z
M 3116 1747 
Q 3116 2381 2855 2742 
Q 2594 3103 2138 3103 
Q 1681 3103 1420 2742 
Q 1159 2381 1159 1747 
Q 1159 1113 1420 752 
Q 1681 391 2138 391 
Q 2594 391 2855 752 
Q 3116 1113 3116 1747 
z
" id="DejaVuSans-70" transform="scale(0.015625)"/>
       <path d="M 1959 3097 
Q 1497 3097 1228 2736 
Q 959 2375 959 1747 
Q 959 1119 1226 758 
Q 1494 397 1959 397 
Q 2419 397 2687 759 
Q 2956 1122 2956 1747 
Q 2956 2369 2687 2733 
Q 2419 3097 1959 3097 
z
M 1959 3584 
Q 2709 3584 3137 3096 
Q 3566 2609 3566 1747 
Q 3566 888 3137 398 
Q 2709 -91 1959 -91 
Q 1206 -91 779 398 
Q 353 888 353 1747 
Q 353 2609 779 3096 
Q 1206 3584 1959 3584 
z
" id="DejaVuSans-6f" transform="scale(0.015625)"/>
       <path d="M 3122 3366 
L 3122 2828 
Q 2878 2963 2633 3030 
Q 2388 3097 2138 3097 
Q 1578 3097 1268 2742 
Q 959 2388 959 1747 
Q 959 1106 1268 751 
Q 1578 397 2138 397 
Q 2388 397 2633 464 
Q 2878 531 3122 666 
L 3122 134 
Q 2881 22 2623 -34 
Q 2366 -91 2075 -91 
Q 1284 -91 818 406 
Q 353 903 353 1747 
Q 353 2603 823 3093 
Q 1294 3584 2113 3584 
Q 2378 3584 2631 3529 
Q 2884 3475 3122 3366 
z
" id="DejaVuSans-63" transform="scale(0.015625)"/>
       <path d="M 3513 2113 
L 3513 0 
L 2938 0 
L 2938 2094 
Q 2938 2591 2744 2837 
Q 2550 3084 2163 3084 
Q 1697 3084 1428 2787 
Q 1159 2491 1159 1978 
L 1159 0 
L 581 0 
L 581 4863 
L 1159 4863 
L 1159 2956 
Q 1366 3272 1645 3428 
Q 1925 3584 2291 3584 
Q 2894 3584 3203 3211 
Q 3513 2838 3513 2113 
z
" id="DejaVuSans-68" transform="scale(0.015625)"/>
      </defs>
      <use xlink:href="#DejaVuSans-45"/>
      <use x="63.183594" xlink:href="#DejaVuSans-70"/>
      <use x="126.660156" xlink:href="#DejaVuSans-6f"/>
      <use x="187.841797" xlink:href="#DejaVuSans-63"/>
      <use x="242.822266" xlink:href="#DejaVuSans-68"/>
     </g>
    </g>
   </g>
   <g id="matplotlib.axis_2">
    <g id="ytick_1">
     <g id="line2d_10">
      <defs>
       <path d="M 0 0 
L -3.5 0 
" id="maf77f29ef6" style="stroke:#000000;stroke-width:0.8;"/>
      </defs>
      <g>
       <use style="stroke:#000000;stroke-width:0.8;" x="57.6" xlink:href="#maf77f29ef6" y="264.219544"/>
      </g>
     </g>
     <g id="text_11">
      <!-- 1.0 -->
      <g transform="translate(34.696875 268.018763)scale(0.1 -0.1)">
       <defs>
        <path d="M 684 794 
L 1344 794 
L 1344 0 
L 684 0 
L 684 794 
z
" id="DejaVuSans-2e" transform="scale(0.015625)"/>
       </defs>
       <use xlink:href="#DejaVuSans-31"/>
       <use x="63.623047" xlink:href="#DejaVuSans-2e"/>
       <use x="95.410156" xlink:href="#DejaVuSans-30"/>
      </g>
     </g>
    </g>
    <g id="ytick_2">
     <g id="line2d_11">
      <g>
       <use style="stroke:#000000;stroke-width:0.8;" x="57.6" xlink:href="#maf77f29ef6" y="211.760861"/>
      </g>
     </g>
     <g id="text_12">
      <!-- 1.5 -->
      <g transform="translate(34.696875 215.56008)scale(0.1 -0.1)">
       <use xlink:href="#DejaVuSans-31"/>
       <use x="63.623047" xlink:href="#DejaVuSans-2e"/>
       <use x="95.410156" xlink:href="#DejaVuSans-35"/>
      </g>
     </g>
    </g>
    <g id="ytick_3">
     <g id="line2d_12">
      <g>
       <use style="stroke:#000000;stroke-width:0.8;" x="57.6" xlink:href="#maf77f29ef6" y="159.302179"/>
      </g>
     </g>
     <g id="text_13">
      <!-- 2.0 -->
      <g transform="translate(34.696875 163.101397)scale(0.1 -0.1)">
       <use xlink:href="#DejaVuSans-32"/>
       <use x="63.623047" xlink:href="#DejaVuSans-2e"/>
       <use x="95.410156" xlink:href="#DejaVuSans-30"/>
      </g>
     </g>
    </g>
    <g id="ytick_4">
     <g id="line2d_13">
      <g>
       <use style="stroke:#000000;stroke-width:0.8;" x="57.6" xlink:href="#maf77f29ef6" y="106.843496"/>
      </g>
     </g>
     <g id="text_14">
      <!-- 2.5 -->
      <g transform="translate(34.696875 110.642714)scale(0.1 -0.1)">
       <use xlink:href="#DejaVuSans-32"/>
       <use x="63.623047" xlink:href="#DejaVuSans-2e"/>
       <use x="95.410156" xlink:href="#DejaVuSans-35"/>
      </g>
     </g>
    </g>
    <g id="ytick_5">
     <g id="line2d_14">
      <g>
       <use style="stroke:#000000;stroke-width:0.8;" x="57.6" xlink:href="#maf77f29ef6" y="54.384813"/>
      </g>
     </g>
     <g id="text_15">
      <!-- 3.0 -->
      <g transform="translate(34.696875 58.184032)scale(0.1 -0.1)">
       <defs>
        <path d="M 2597 2516 
Q 3050 2419 3304 2112 
Q 3559 1806 3559 1356 
Q 3559 666 3084 287 
Q 2609 -91 1734 -91 
Q 1441 -91 1130 -33 
Q 819 25 488 141 
L 488 750 
Q 750 597 1062 519 
Q 1375 441 1716 441 
Q 2309 441 2620 675 
Q 2931 909 2931 1356 
Q 2931 1769 2642 2001 
Q 2353 2234 1838 2234 
L 1294 2234 
L 1294 2753 
L 1863 2753 
Q 2328 2753 2575 2939 
Q 2822 3125 2822 3475 
Q 2822 3834 2567 4026 
Q 2313 4219 1838 4219 
Q 1578 4219 1281 4162 
Q 984 4106 628 3988 
L 628 4550 
Q 988 4650 1302 4700 
Q 1616 4750 1894 4750 
Q 2613 4750 3031 4423 
Q 3450 4097 3450 3541 
Q 3450 3153 3228 2886 
Q 3006 2619 2597 2516 
z
" id="DejaVuSans-33" transform="scale(0.015625)"/>
       </defs>
       <use xlink:href="#DejaVuSans-33"/>
       <use x="63.623047" xlink:href="#DejaVuSans-2e"/>
       <use x="95.410156" xlink:href="#DejaVuSans-30"/>
      </g>
     </g>
    </g>
    <g id="text_16">
     <!-- Loss -->
     <g transform="translate(27.577344 190.978781)rotate(-90)scale(0.15 -0.15)">
      <defs>
       <path d="M 628 4666 
L 1259 4666 
L 1259 531 
L 3531 531 
L 3531 0 
L 628 0 
L 628 4666 
z
" id="DejaVuSans-4c" transform="scale(0.015625)"/>
       <path d="M 2834 3397 
L 2834 2853 
Q 2591 2978 2328 3040 
Q 2066 3103 1784 3103 
Q 1356 3103 1142 2972 
Q 928 2841 928 2578 
Q 928 2378 1081 2264 
Q 1234 2150 1697 2047 
L 1894 2003 
Q 2506 1872 2764 1633 
Q 3022 1394 3022 966 
Q 3022 478 2636 193 
Q 2250 -91 1575 -91 
Q 1294 -91 989 -36 
Q 684 19 347 128 
L 347 722 
Q 666 556 975 473 
Q 1284 391 1588 391 
Q 1994 391 2212 530 
Q 2431 669 2431 922 
Q 2431 1156 2273 1281 
Q 2116 1406 1581 1522 
L 1381 1569 
Q 847 1681 609 1914 
Q 372 2147 372 2553 
Q 372 3047 722 3315 
Q 1072 3584 1716 3584 
Q 2034 3584 2315 3537 
Q 2597 3491 2834 3397 
z
" id="DejaVuSans-73" transform="scale(0.015625)"/>
      </defs>
      <use xlink:href="#DejaVuSans-4c"/>
      <use x="53.962891" xlink:href="#DejaVuSans-6f"/>
      <use x="115.144531" xlink:href="#DejaVuSans-73"/>
      <use x="167.244141" xlink:href="#DejaVuSans-73"/>
     </g>
    </g>
   </g>
   <g id="line2d_15">
    <path clip-path="url(#pb016cc8f94)" d="M 73.832727 53.568 
L 75.464157 117.52467 
L 77.095587 124.317342 
L 78.727017 125.729864 
L 80.358447 131.045167 
L 81.989877 133.760461 
L 83.621307 135.121834 
L 85.252736 138.238129 
L 86.884166 140.18275 
L 88.515596 141.385067 
L 90.147026 144.783188 
L 91.778456 146.238224 
L 93.409886 147.015451 
L 95.041316 149.930795 
L 96.672746 152.523885 
L 98.304175 151.85335 
L 99.935605 155.343262 
L 101.567035 157.40489 
L 103.198465 156.9828 
L 104.829895 157.368563 
L 106.461325 160.156879 
L 108.092755 162.535652 
L 109.724185 163.504567 
L 111.355614 162.613702 
L 112.987044 165.014959 
L 114.618474 163.888968 
L 116.249904 161.049867 
L 117.881334 166.303252 
L 119.512764 166.305579 
L 121.144194 170.17301 
L 122.775624 171.661291 
L 124.407053 169.873497 
L 126.038483 175.437826 
L 127.669913 177.637738 
L 129.301343 178.506527 
L 130.932773 178.906915 
L 132.564203 180.59436 
L 134.195633 182.607245 
L 135.827063 182.307336 
L 137.458492 179.433201 
L 139.089922 175.600079 
L 140.721352 184.560089 
L 142.352782 185.020388 
L 143.984212 189.938974 
L 145.615642 188.166276 
L 147.247072 193.949063 
L 148.878502 198.425808 
L 150.509931 194.447012 
L 152.141361 195.193488 
L 153.772791 196.359766 
L 155.404221 199.177221 
L 157.035651 201.270805 
L 158.667081 200.753725 
L 160.298511 204.07293 
L 161.929941 206.845838 
L 163.56137 206.558952 
L 165.1928 209.417979 
L 166.82423 208.66197 
L 168.45566 212.54465 
L 170.08709 212.555599 
L 171.71852 215.815993 
L 173.34995 215.320412 
L 174.98138 216.113936 
L 176.61281 217.228161 
L 179.875669 212.36409 
L 181.507099 212.61122 
L 183.138529 221.711107 
L 184.769959 220.400099 
L 186.401389 224.608775 
L 188.032819 221.6771 
L 189.664249 225.288105 
L 191.295678 227.878035 
L 192.927108 227.185711 
L 194.558538 225.80179 
L 196.189968 225.939226 
L 197.821398 230.287037 
L 199.452828 229.838696 
L 201.084258 231.334112 
L 202.715688 229.866927 
L 204.347117 233.611165 
L 205.978547 235.158831 
L 207.609977 221.740114 
L 209.241407 225.202606 
L 210.872837 233.391591 
L 212.504267 237.062639 
L 214.135697 235.891211 
L 215.767127 235.771318 
L 217.398556 234.536515 
L 219.029986 235.465907 
L 220.661416 237.798557 
L 222.292846 242.309161 
L 223.924276 239.257961 
L 227.187136 243.186681 
L 228.818566 241.566394 
L 230.449995 240.77641 
L 232.081425 237.108324 
L 233.712855 241.511663 
L 235.344285 240.876182 
L 236.975715 241.474943 
L 238.607145 245.68481 
L 240.238575 239.808819 
L 241.870005 246.693263 
L 243.501434 241.974809 
L 245.132864 242.974765 
L 246.764294 248.345856 
L 248.395724 251.693826 
L 250.027154 249.074479 
L 253.290014 244.789795 
L 254.921444 244.399597 
L 256.552873 247.700022 
L 258.184303 246.15988 
L 259.815733 254.136191 
L 261.447163 255.017798 
L 263.078593 251.960219 
L 264.710023 252.534414 
L 266.341453 255.675489 
L 267.972883 256.131316 
L 269.604312 253.780678 
L 271.235742 259.125204 
L 272.867172 260.261148 
L 274.498602 255.462092 
L 276.130032 260.35239 
L 277.761462 254.493229 
L 279.392892 254.886038 
L 281.024322 256.509584 
L 282.655751 260.83841 
L 284.287181 262.512099 
L 285.918611 260.35029 
L 287.550041 263.449011 
L 289.181471 261.29475 
L 290.812901 262.489852 
L 292.444331 262.317248 
L 294.075761 254.649705 
L 295.70719 257.229104 
L 297.33862 259.094318 
L 298.97005 262.05128 
L 300.60148 263.5342 
L 302.23291 265.168121 
L 303.86434 257.441862 
L 305.49577 265.868696 
L 307.1272 263.140187 
L 308.75863 265.815663 
L 310.390059 261.763889 
L 312.021489 268.759187 
L 313.652919 272.140583 
L 315.284349 266.247935 
L 316.915779 264.286069 
L 318.547209 263.971777 
L 320.178639 271.231225 
L 321.810069 267.960856 
L 323.441498 267.221416 
L 325.072928 274.672616 
L 326.704358 274.001285 
L 328.335788 276.037725 
L 329.967218 274.179294 
L 331.598648 275.538905 
L 333.230078 279.402429 
L 336.492937 269.071638 
L 338.124367 271.745344 
L 339.755797 279.646673 
L 341.387227 274.147447 
L 343.018657 278.85008 
L 344.650087 279.934803 
L 346.281517 268.710929 
L 347.912947 276.024598 
L 349.544376 278.803583 
L 351.175806 274.07833 
L 352.807236 281.278013 
L 354.438666 275.173726 
L 356.070096 273.401086 
L 357.701526 279.914897 
L 359.332956 280.741208 
L 360.964386 282.196095 
L 362.595815 279.913844 
L 364.227245 285.630901 
L 365.858675 287.286917 
L 367.490105 287.21656 
L 369.121535 286.519854 
L 370.752965 285.343194 
L 372.384395 289.574766 
L 374.015825 290.318493 
L 375.647254 286.874191 
L 377.278684 283.695318 
L 378.910114 286.649107 
L 380.541544 282.618687 
L 382.172974 285.624197 
L 383.804404 282.613403 
L 385.435834 279.96086 
L 387.067264 280.281995 
L 388.698693 285.355706 
L 390.330123 285.9944 
L 391.961553 290.182992 
L 395.224413 281.942432 
L 396.855843 290.875038 
L 398.487273 290.928968 
L 398.487273 290.928968 
" style="fill:none;stroke:#1f77b4;stroke-linecap:square;stroke-width:1.5;"/>
   </g>
   <g id="line2d_16">
    <path clip-path="url(#pb016cc8f94)" d="M 73.832727 107.081856 
L 75.464157 122.049658 
L 77.095587 127.245117 
L 78.727017 130.73413 
L 80.358447 133.521218 
L 81.989877 133.363102 
L 83.621307 137.295618 
L 85.252736 139.091115 
L 88.515596 143.55851 
L 90.147026 143.554108 
L 91.778456 146.98126 
L 93.409886 148.054346 
L 95.041316 150.802312 
L 96.672746 150.592792 
L 98.304175 151.1336 
L 99.935605 155.286791 
L 103.198465 153.510955 
L 106.461325 158.005815 
L 108.092755 159.232214 
L 109.724185 158.10157 
L 111.355614 162.830714 
L 112.987044 159.398471 
L 114.618474 163.078655 
L 116.249904 162.459314 
L 117.881334 167.051143 
L 119.512764 167.253833 
L 121.144194 169.15668 
L 122.775624 167.37489 
L 124.407053 172.496857 
L 126.038483 174.430909 
L 127.669913 175.99021 
L 130.932773 178.882332 
L 132.564203 179.477271 
L 134.195633 177.66215 
L 135.827063 179.544434 
L 137.458492 175.93733 
L 139.089922 183.323637 
L 140.721352 182.010914 
L 142.352782 187.090433 
L 143.984212 190.866484 
L 145.615642 179.248966 
L 147.247072 192.430325 
L 148.878502 195.158529 
L 150.509931 190.518848 
L 152.141361 198.221536 
L 155.404221 200.372512 
L 157.035651 199.755835 
L 158.667081 195.517271 
L 160.298511 203.136799 
L 163.56137 208.522954 
L 165.1928 208.633542 
L 166.82423 211.161995 
L 168.45566 212.768786 
L 170.08709 214.732016 
L 171.71852 214.336466 
L 173.34995 215.205774 
L 174.98138 217.429966 
L 176.61281 213.542539 
L 178.244239 215.372994 
L 179.875669 201.56798 
L 181.507099 221.138466 
L 183.138529 223.292693 
L 184.769959 218.796869 
L 186.401389 217.931176 
L 188.032819 227.143999 
L 189.664249 225.753382 
L 191.295678 225.331342 
L 192.927108 222.612993 
L 194.558538 217.730174 
L 196.189968 230.090153 
L 197.821398 221.097893 
L 199.452828 232.14361 
L 201.084258 232.960188 
L 202.715688 233.120979 
L 204.347117 234.622822 
L 205.978547 232.559935 
L 207.609977 227.472049 
L 209.241407 234.425922 
L 210.872837 235.912082 
L 212.504267 232.109641 
L 214.135697 232.365386 
L 215.767127 216.695085 
L 217.398556 237.857953 
L 219.029986 236.939167 
L 220.661416 239.855003 
L 222.292846 241.536736 
L 223.924276 242.828484 
L 225.555706 242.116503 
L 227.187136 236.869352 
L 228.818566 241.551256 
L 230.449995 229.53775 
L 232.081425 238.777514 
L 233.712855 241.332382 
L 235.344285 245.885425 
L 236.975715 242.609809 
L 238.607145 246.701553 
L 240.238575 241.242768 
L 241.870005 245.303381 
L 243.501434 229.510723 
L 245.132864 250.184124 
L 246.764294 248.82465 
L 248.395724 244.818955 
L 250.027154 245.291037 
L 251.658584 239.118633 
L 253.290014 243.972048 
L 254.921444 245.235868 
L 256.552873 246.150902 
L 258.184303 249.366408 
L 259.815733 253.378031 
L 261.447163 252.611319 
L 263.078593 241.344726 
L 264.710023 253.246256 
L 266.341453 256.320607 
L 267.972883 256.536968 
L 269.604312 252.882611 
L 271.235742 258.285151 
L 272.867172 245.663561 
L 274.498602 257.361838 
L 277.761462 257.934076 
L 279.392892 243.84889 
L 281.024322 255.161522 
L 282.655751 261.480309 
L 284.287181 254.77155 
L 285.918611 251.278222 
L 287.550041 262.71166 
L 289.181471 262.204471 
L 290.812901 255.950972 
L 292.444331 258.198439 
L 294.075761 264.594133 
L 295.70719 242.57529 
L 297.33862 262.852891 
L 298.97005 257.081503 
L 300.60148 268.704524 
L 302.23291 242.68908 
L 303.86434 269.008228 
L 305.49577 265.121295 
L 307.1272 268.292502 
L 308.75863 248.087292 
L 310.390059 251.829749 
L 312.021489 261.92585 
L 313.652919 266.09308 
L 315.284349 259.614096 
L 316.915779 263.649607 
L 318.547209 270.359673 
L 320.178639 270.796047 
L 321.810069 261.400714 
L 323.441498 274.522526 
L 325.072928 263.333852 
L 326.704358 273.828018 
L 328.335788 261.241998 
L 329.967218 273.868097 
L 331.598648 276.679648 
L 333.230078 262.030285 
L 334.861508 269.476439 
L 336.492937 267.925049 
L 338.124367 274.354918 
L 339.755797 274.668303 
L 341.387227 275.902606 
L 343.018657 280.802522 
L 344.650087 267.999204 
L 346.281517 273.362459 
L 347.912947 277.800068 
L 349.544376 268.823629 
L 351.175806 282.788284 
L 352.807236 266.748929 
L 354.438666 268.420737 
L 356.070096 275.028795 
L 357.701526 277.231281 
L 359.332956 281.74504 
L 360.964386 280.905037 
L 362.595815 279.225205 
L 364.227245 283.289088 
L 365.858675 286.571321 
L 367.490105 286.167422 
L 369.121535 282.364168 
L 370.752965 283.6605 
L 372.384395 286.820875 
L 374.015825 284.732692 
L 375.647254 287.264728 
L 377.278684 270.558987 
L 378.910114 269.466808 
L 380.541544 265.64525 
L 382.172974 289.189543 
L 383.804404 289.21851 
L 385.435834 281.423732 
L 387.067264 279.861486 
L 388.698693 277.517363 
L 390.330123 287.341291 
L 391.961553 287.734658 
L 393.592983 275.902468 
L 395.224413 283.698722 
L 396.855843 295.488 
L 398.487273 283.367614 
L 398.487273 283.367614 
" style="fill:none;stroke:#ff7f0e;stroke-linecap:square;stroke-width:1.5;"/>
   </g>
   <g id="patch_3">
    <path d="M 57.6 307.584 
L 57.6 41.472 
" style="fill:none;stroke:#000000;stroke-linecap:square;stroke-linejoin:miter;stroke-width:0.8;"/>
   </g>
   <g id="patch_4">
    <path d="M 414.72 307.584 
L 414.72 41.472 
" style="fill:none;stroke:#000000;stroke-linecap:square;stroke-linejoin:miter;stroke-width:0.8;"/>
   </g>
   <g id="patch_5">
    <path d="M 57.6 307.584 
L 414.72 307.584 
" style="fill:none;stroke:#000000;stroke-linecap:square;stroke-linejoin:miter;stroke-width:0.8;"/>
   </g>
   <g id="patch_6">
    <path d="M 57.6 41.472 
L 414.72 41.472 
" style="fill:none;stroke:#000000;stroke-linecap:square;stroke-linejoin:miter;stroke-width:0.8;"/>
   </g>
   <g id="legend_1">
    <g id="patch_7">
     <path d="M 303.845 78.82825 
L 407.72 78.82825 
Q 409.72 78.82825 409.72 76.82825 
L 409.72 48.472 
Q 409.72 46.472 407.72 46.472 
L 303.845 46.472 
Q 301.845 46.472 301.845 48.472 
L 301.845 76.82825 
Q 301.845 78.82825 303.845 78.82825 
z
" style="fill:#ffffff;opacity:0.8;stroke:#cccccc;stroke-linejoin:miter;"/>
    </g>
    <g id="line2d_17">
     <path d="M 305.845 54.570437 
L 325.845 54.570437 
" style="fill:none;stroke:#1f77b4;stroke-linecap:square;stroke-width:1.5;"/>
    </g>
    <g id="line2d_18"/>
    <g id="text_17">
     <!-- Train loss -->
     <g transform="translate(333.845 58.070437)scale(0.1 -0.1)">
      <defs>
       <path d="M -19 4666 
L 3928 4666 
L 3928 4134 
L 2272 4134 
L 2272 0 
L 1638 0 
L 1638 4134 
L -19 4134 
L -19 4666 
z
" id="DejaVuSans-54" transform="scale(0.015625)"/>
       <path d="M 2631 2963 
Q 2534 3019 2420 3045 
Q 2306 3072 2169 3072 
Q 1681 3072 1420 2755 
Q 1159 2438 1159 1844 
L 1159 0 
L 581 0 
L 581 3500 
L 1159 3500 
L 1159 2956 
Q 1341 3275 1631 3429 
Q 1922 3584 2338 3584 
Q 2397 3584 2469 3576 
Q 2541 3569 2628 3553 
L 2631 2963 
z
" id="DejaVuSans-72" transform="scale(0.015625)"/>
       <path d="M 2194 1759 
Q 1497 1759 1228 1600 
Q 959 1441 959 1056 
Q 959 750 1161 570 
Q 1363 391 1709 391 
Q 2188 391 2477 730 
Q 2766 1069 2766 1631 
L 2766 1759 
L 2194 1759 
z
M 3341 1997 
L 3341 0 
L 2766 0 
L 2766 531 
Q 2569 213 2275 61 
Q 1981 -91 1556 -91 
Q 1019 -91 701 211 
Q 384 513 384 1019 
Q 384 1609 779 1909 
Q 1175 2209 1959 2209 
L 2766 2209 
L 2766 2266 
Q 2766 2663 2505 2880 
Q 2244 3097 1772 3097 
Q 1472 3097 1187 3025 
Q 903 2953 641 2809 
L 641 3341 
Q 956 3463 1253 3523 
Q 1550 3584 1831 3584 
Q 2591 3584 2966 3190 
Q 3341 2797 3341 1997 
z
" id="DejaVuSans-61" transform="scale(0.015625)"/>
       <path d="M 603 3500 
L 1178 3500 
L 1178 0 
L 603 0 
L 603 3500 
z
M 603 4863 
L 1178 4863 
L 1178 4134 
L 603 4134 
L 603 4863 
z
" id="DejaVuSans-69" transform="scale(0.015625)"/>
       <path d="M 3513 2113 
L 3513 0 
L 2938 0 
L 2938 2094 
Q 2938 2591 2744 2837 
Q 2550 3084 2163 3084 
Q 1697 3084 1428 2787 
Q 1159 2491 1159 1978 
L 1159 0 
L 581 0 
L 581 3500 
L 1159 3500 
L 1159 2956 
Q 1366 3272 1645 3428 
Q 1925 3584 2291 3584 
Q 2894 3584 3203 3211 
Q 3513 2838 3513 2113 
z
" id="DejaVuSans-6e" transform="scale(0.015625)"/>
       <path id="DejaVuSans-20" transform="scale(0.015625)"/>
       <path d="M 603 4863 
L 1178 4863 
L 1178 0 
L 603 0 
L 603 4863 
z
" id="DejaVuSans-6c" transform="scale(0.015625)"/>
      </defs>
      <use xlink:href="#DejaVuSans-54"/>
      <use x="46.333984" xlink:href="#DejaVuSans-72"/>
      <use x="87.447266" xlink:href="#DejaVuSans-61"/>
      <use x="148.726562" xlink:href="#DejaVuSans-69"/>
      <use x="176.509766" xlink:href="#DejaVuSans-6e"/>
      <use x="239.888672" xlink:href="#DejaVuSans-20"/>
      <use x="271.675781" xlink:href="#DejaVuSans-6c"/>
      <use x="299.458984" xlink:href="#DejaVuSans-6f"/>
      <use x="360.640625" xlink:href="#DejaVuSans-73"/>
      <use x="412.740234" xlink:href="#DejaVuSans-73"/>
     </g>
    </g>
    <g id="line2d_19">
     <path d="M 305.845 69.248562 
L 325.845 69.248562 
" style="fill:none;stroke:#ff7f0e;stroke-linecap:square;stroke-width:1.5;"/>
    </g>
    <g id="line2d_20"/>
    <g id="text_18">
     <!-- Validation loss -->
     <g transform="translate(333.845 72.748562)scale(0.1 -0.1)">
      <defs>
       <path d="M 1831 0 
L 50 4666 
L 709 4666 
L 2188 738 
L 3669 4666 
L 4325 4666 
L 2547 0 
L 1831 0 
z
" id="DejaVuSans-56" transform="scale(0.015625)"/>
       <path d="M 2906 2969 
L 2906 4863 
L 3481 4863 
L 3481 0 
L 2906 0 
L 2906 525 
Q 2725 213 2448 61 
Q 2172 -91 1784 -91 
Q 1150 -91 751 415 
Q 353 922 353 1747 
Q 353 2572 751 3078 
Q 1150 3584 1784 3584 
Q 2172 3584 2448 3432 
Q 2725 3281 2906 2969 
z
M 947 1747 
Q 947 1113 1208 752 
Q 1469 391 1925 391 
Q 2381 391 2643 752 
Q 2906 1113 2906 1747 
Q 2906 2381 2643 2742 
Q 2381 3103 1925 3103 
Q 1469 3103 1208 2742 
Q 947 2381 947 1747 
z
" id="DejaVuSans-64" transform="scale(0.015625)"/>
       <path d="M 1172 4494 
L 1172 3500 
L 2356 3500 
L 2356 3053 
L 1172 3053 
L 1172 1153 
Q 1172 725 1289 603 
Q 1406 481 1766 481 
L 2356 481 
L 2356 0 
L 1766 0 
Q 1100 0 847 248 
Q 594 497 594 1153 
L 594 3053 
L 172 3053 
L 172 3500 
L 594 3500 
L 594 4494 
L 1172 4494 
z
" id="DejaVuSans-74" transform="scale(0.015625)"/>
      </defs>
      <use xlink:href="#DejaVuSans-56"/>
      <use x="60.658203" xlink:href="#DejaVuSans-61"/>
      <use x="121.9375" xlink:href="#DejaVuSans-6c"/>
      <use x="149.720703" xlink:href="#DejaVuSans-69"/>
      <use x="177.503906" xlink:href="#DejaVuSans-64"/>
      <use x="240.980469" xlink:href="#DejaVuSans-61"/>
      <use x="302.259766" xlink:href="#DejaVuSans-74"/>
      <use x="341.46875" xlink:href="#DejaVuSans-69"/>
      <use x="369.251953" xlink:href="#DejaVuSans-6f"/>
      <use x="430.433594" xlink:href="#DejaVuSans-6e"/>
      <use x="493.8125" xlink:href="#DejaVuSans-20"/>
      <use x="525.599609" xlink:href="#DejaVuSans-6c"/>
      <use x="553.382812" xlink:href="#DejaVuSans-6f"/>
      <use x="614.564453" xlink:href="#DejaVuSans-73"/>
      <use x="666.664062" xlink:href="#DejaVuSans-73"/>
     </g>
    </g>
   </g>
  </g>
 </g>
 <defs>
  <clipPath id="pb016cc8f94">
   <rect height="266.112" width="357.12" x="57.6" y="41.472"/>
  </clipPath>
 </defs>
</svg>
