<?xml version="1.0" encoding="utf-8" standalone="no"?>
<!DOCTYPE svg PUBLIC "-//W3C//DTD SVG 1.1//EN"
  "http://www.w3.org/Graphics/SVG/1.1/DTD/svg11.dtd">
<svg height="345.6pt" version="1.1" viewBox="0 0 460.8 345.6" width="460.8pt" xmlns="http://www.w3.org/2000/svg" xmlns:xlink="http://www.w3.org/1999/xlink">
 <metadata>
  <rdf:RDF xmlns:cc="http://creativecommons.org/ns#" xmlns:dc="http://purl.org/dc/elements/1.1/" xmlns:rdf="http://www.w3.org/1999/02/22-rdf-syntax-ns#">
   <cc:Work>
    <dc:type rdf:resource="http://purl.org/dc/dcmitype/StillImage"/>
    <dc:date>2021-07-15T18:58:24.851436</dc:date>
    <dc:format>image/svg+xml</dc:format>
    <dc:creator>
     <cc:Agent>
      <dc:title>Matplotlib v3.4.2, https://matplotlib.org/</dc:title>
     </cc:Agent>
    </dc:creator>
   </cc:Work>
  </rdf:RDF>
 </metadata>
 <defs>
  <style type="text/css">*{stroke-linecap:butt;stroke-linejoin:round;}</style>
 </defs>
 <g id="figure_1">
  <g id="patch_1">
   <path d="M 0 345.6 
L 460.8 345.6 
L 460.8 0 
L 0 0 
z
" style="fill:#ffffff;"/>
  </g>
  <g id="axes_1">
   <g id="patch_2">
    <path d="M 57.6 307.584 
L 414.72 307.584 
L 414.72 41.472 
L 57.6 41.472 
z
" style="fill:#ffffff;"/>
   </g>
   <g id="matplotlib.axis_1">
    <g id="xtick_1">
     <g id="line2d_1">
      <defs>
       <path d="M 0 0 
L 0 3.5 
" id="m5f07941af3" style="stroke:#000000;stroke-width:0.8;"/>
      </defs>
      <g>
       <use style="stroke:#000000;stroke-width:0.8;" x="73.019057" xlink:href="#m5f07941af3" y="307.584"/>
      </g>
     </g>
     <g id="text_1">
      <!-- 0 -->
      <g transform="translate(69.837807 322.182437)scale(0.1 -0.1)">
       <defs>
        <path d="M 2034 4250 
Q 1547 4250 1301 3770 
Q 1056 3291 1056 2328 
Q 1056 1369 1301 889 
Q 1547 409 2034 409 
Q 2525 409 2770 889 
Q 3016 1369 3016 2328 
Q 3016 3291 2770 3770 
Q 2525 4250 2034 4250 
z
M 2034 4750 
Q 2819 4750 3233 4129 
Q 3647 3509 3647 2328 
Q 3647 1150 3233 529 
Q 2819 -91 2034 -91 
Q 1250 -91 836 529 
Q 422 1150 422 2328 
Q 422 3509 836 4129 
Q 1250 4750 2034 4750 
z
" id="DejaVuSans-30" transform="scale(0.015625)"/>
       </defs>
       <use xlink:href="#DejaVuSans-30"/>
      </g>
     </g>
    </g>
    <g id="xtick_2">
     <g id="line2d_2">
      <g>
       <use style="stroke:#000000;stroke-width:0.8;" x="113.702584" xlink:href="#m5f07941af3" y="307.584"/>
      </g>
     </g>
     <g id="text_2">
      <!-- 50 -->
      <g transform="translate(107.340084 322.182437)scale(0.1 -0.1)">
       <defs>
        <path d="M 691 4666 
L 3169 4666 
L 3169 4134 
L 1269 4134 
L 1269 2991 
Q 1406 3038 1543 3061 
Q 1681 3084 1819 3084 
Q 2600 3084 3056 2656 
Q 3513 2228 3513 1497 
Q 3513 744 3044 326 
Q 2575 -91 1722 -91 
Q 1428 -91 1123 -41 
Q 819 9 494 109 
L 494 744 
Q 775 591 1075 516 
Q 1375 441 1709 441 
Q 2250 441 2565 725 
Q 2881 1009 2881 1497 
Q 2881 1984 2565 2268 
Q 2250 2553 1709 2553 
Q 1456 2553 1204 2497 
Q 953 2441 691 2322 
L 691 4666 
z
" id="DejaVuSans-35" transform="scale(0.015625)"/>
       </defs>
       <use xlink:href="#DejaVuSans-35"/>
       <use x="63.623047" xlink:href="#DejaVuSans-30"/>
      </g>
     </g>
    </g>
    <g id="xtick_3">
     <g id="line2d_3">
      <g>
       <use style="stroke:#000000;stroke-width:0.8;" x="154.386111" xlink:href="#m5f07941af3" y="307.584"/>
      </g>
     </g>
     <g id="text_3">
      <!-- 100 -->
      <g transform="translate(144.842361 322.182437)scale(0.1 -0.1)">
       <defs>
        <path d="M 794 531 
L 1825 531 
L 1825 4091 
L 703 3866 
L 703 4441 
L 1819 4666 
L 2450 4666 
L 2450 531 
L 3481 531 
L 3481 0 
L 794 0 
L 794 531 
z
" id="DejaVuSans-31" transform="scale(0.015625)"/>
       </defs>
       <use xlink:href="#DejaVuSans-31"/>
       <use x="63.623047" xlink:href="#DejaVuSans-30"/>
       <use x="127.246094" xlink:href="#DejaVuSans-30"/>
      </g>
     </g>
    </g>
    <g id="xtick_4">
     <g id="line2d_4">
      <g>
       <use style="stroke:#000000;stroke-width:0.8;" x="195.069638" xlink:href="#m5f07941af3" y="307.584"/>
      </g>
     </g>
     <g id="text_4">
      <!-- 150 -->
      <g transform="translate(185.525888 322.182437)scale(0.1 -0.1)">
       <use xlink:href="#DejaVuSans-31"/>
       <use x="63.623047" xlink:href="#DejaVuSans-35"/>
       <use x="127.246094" xlink:href="#DejaVuSans-30"/>
      </g>
     </g>
    </g>
    <g id="xtick_5">
     <g id="line2d_5">
      <g>
       <use style="stroke:#000000;stroke-width:0.8;" x="235.753165" xlink:href="#m5f07941af3" y="307.584"/>
      </g>
     </g>
     <g id="text_5">
      <!-- 200 -->
      <g transform="translate(226.209415 322.182437)scale(0.1 -0.1)">
       <defs>
        <path d="M 1228 531 
L 3431 531 
L 3431 0 
L 469 0 
L 469 531 
Q 828 903 1448 1529 
Q 2069 2156 2228 2338 
Q 2531 2678 2651 2914 
Q 2772 3150 2772 3378 
Q 2772 3750 2511 3984 
Q 2250 4219 1831 4219 
Q 1534 4219 1204 4116 
Q 875 4013 500 3803 
L 500 4441 
Q 881 4594 1212 4672 
Q 1544 4750 1819 4750 
Q 2544 4750 2975 4387 
Q 3406 4025 3406 3419 
Q 3406 3131 3298 2873 
Q 3191 2616 2906 2266 
Q 2828 2175 2409 1742 
Q 1991 1309 1228 531 
z
" id="DejaVuSans-32" transform="scale(0.015625)"/>
       </defs>
       <use xlink:href="#DejaVuSans-32"/>
       <use x="63.623047" xlink:href="#DejaVuSans-30"/>
       <use x="127.246094" xlink:href="#DejaVuSans-30"/>
      </g>
     </g>
    </g>
    <g id="xtick_6">
     <g id="line2d_6">
      <g>
       <use style="stroke:#000000;stroke-width:0.8;" x="276.436692" xlink:href="#m5f07941af3" y="307.584"/>
      </g>
     </g>
     <g id="text_6">
      <!-- 250 -->
      <g transform="translate(266.892942 322.182437)scale(0.1 -0.1)">
       <use xlink:href="#DejaVuSans-32"/>
       <use x="63.623047" xlink:href="#DejaVuSans-35"/>
       <use x="127.246094" xlink:href="#DejaVuSans-30"/>
      </g>
     </g>
    </g>
    <g id="xtick_7">
     <g id="line2d_7">
      <g>
       <use style="stroke:#000000;stroke-width:0.8;" x="317.120219" xlink:href="#m5f07941af3" y="307.584"/>
      </g>
     </g>
     <g id="text_7">
      <!-- 300 -->
      <g transform="translate(307.576469 322.182437)scale(0.1 -0.1)">
       <defs>
        <path d="M 2597 2516 
Q 3050 2419 3304 2112 
Q 3559 1806 3559 1356 
Q 3559 666 3084 287 
Q 2609 -91 1734 -91 
Q 1441 -91 1130 -33 
Q 819 25 488 141 
L 488 750 
Q 750 597 1062 519 
Q 1375 441 1716 441 
Q 2309 441 2620 675 
Q 2931 909 2931 1356 
Q 2931 1769 2642 2001 
Q 2353 2234 1838 2234 
L 1294 2234 
L 1294 2753 
L 1863 2753 
Q 2328 2753 2575 2939 
Q 2822 3125 2822 3475 
Q 2822 3834 2567 4026 
Q 2313 4219 1838 4219 
Q 1578 4219 1281 4162 
Q 984 4106 628 3988 
L 628 4550 
Q 988 4650 1302 4700 
Q 1616 4750 1894 4750 
Q 2613 4750 3031 4423 
Q 3450 4097 3450 3541 
Q 3450 3153 3228 2886 
Q 3006 2619 2597 2516 
z
" id="DejaVuSans-33" transform="scale(0.015625)"/>
       </defs>
       <use xlink:href="#DejaVuSans-33"/>
       <use x="63.623047" xlink:href="#DejaVuSans-30"/>
       <use x="127.246094" xlink:href="#DejaVuSans-30"/>
      </g>
     </g>
    </g>
    <g id="xtick_8">
     <g id="line2d_8">
      <g>
       <use style="stroke:#000000;stroke-width:0.8;" x="357.803746" xlink:href="#m5f07941af3" y="307.584"/>
      </g>
     </g>
     <g id="text_8">
      <!-- 350 -->
      <g transform="translate(348.259996 322.182437)scale(0.1 -0.1)">
       <use xlink:href="#DejaVuSans-33"/>
       <use x="63.623047" xlink:href="#DejaVuSans-35"/>
       <use x="127.246094" xlink:href="#DejaVuSans-30"/>
      </g>
     </g>
    </g>
    <g id="xtick_9">
     <g id="line2d_9">
      <g>
       <use style="stroke:#000000;stroke-width:0.8;" x="398.487273" xlink:href="#m5f07941af3" y="307.584"/>
      </g>
     </g>
     <g id="text_9">
      <!-- 400 -->
      <g transform="translate(388.943523 322.182437)scale(0.1 -0.1)">
       <defs>
        <path d="M 2419 4116 
L 825 1625 
L 2419 1625 
L 2419 4116 
z
M 2253 4666 
L 3047 4666 
L 3047 1625 
L 3713 1625 
L 3713 1100 
L 3047 1100 
L 3047 0 
L 2419 0 
L 2419 1100 
L 313 1100 
L 313 1709 
L 2253 4666 
z
" id="DejaVuSans-34" transform="scale(0.015625)"/>
       </defs>
       <use xlink:href="#DejaVuSans-34"/>
       <use x="63.623047" xlink:href="#DejaVuSans-30"/>
       <use x="127.246094" xlink:href="#DejaVuSans-30"/>
      </g>
     </g>
    </g>
    <g id="text_10">
     <!-- Epoch -->
     <g transform="translate(213.193594 339.659781)scale(0.15 -0.15)">
      <defs>
       <path d="M 628 4666 
L 3578 4666 
L 3578 4134 
L 1259 4134 
L 1259 2753 
L 3481 2753 
L 3481 2222 
L 1259 2222 
L 1259 531 
L 3634 531 
L 3634 0 
L 628 0 
L 628 4666 
z
" id="DejaVuSans-45" transform="scale(0.015625)"/>
       <path d="M 1159 525 
L 1159 -1331 
L 581 -1331 
L 581 3500 
L 1159 3500 
L 1159 2969 
Q 1341 3281 1617 3432 
Q 1894 3584 2278 3584 
Q 2916 3584 3314 3078 
Q 3713 2572 3713 1747 
Q 3713 922 3314 415 
Q 2916 -91 2278 -91 
Q 1894 -91 1617 61 
Q 1341 213 1159 525 
z
M 3116 1747 
Q 3116 2381 2855 2742 
Q 2594 3103 2138 3103 
Q 1681 3103 1420 2742 
Q 1159 2381 1159 1747 
Q 1159 1113 1420 752 
Q 1681 391 2138 391 
Q 2594 391 2855 752 
Q 3116 1113 3116 1747 
z
" id="DejaVuSans-70" transform="scale(0.015625)"/>
       <path d="M 1959 3097 
Q 1497 3097 1228 2736 
Q 959 2375 959 1747 
Q 959 1119 1226 758 
Q 1494 397 1959 397 
Q 2419 397 2687 759 
Q 2956 1122 2956 1747 
Q 2956 2369 2687 2733 
Q 2419 3097 1959 3097 
z
M 1959 3584 
Q 2709 3584 3137 3096 
Q 3566 2609 3566 1747 
Q 3566 888 3137 398 
Q 2709 -91 1959 -91 
Q 1206 -91 779 398 
Q 353 888 353 1747 
Q 353 2609 779 3096 
Q 1206 3584 1959 3584 
z
" id="DejaVuSans-6f" transform="scale(0.015625)"/>
       <path d="M 3122 3366 
L 3122 2828 
Q 2878 2963 2633 3030 
Q 2388 3097 2138 3097 
Q 1578 3097 1268 2742 
Q 959 2388 959 1747 
Q 959 1106 1268 751 
Q 1578 397 2138 397 
Q 2388 397 2633 464 
Q 2878 531 3122 666 
L 3122 134 
Q 2881 22 2623 -34 
Q 2366 -91 2075 -91 
Q 1284 -91 818 406 
Q 353 903 353 1747 
Q 353 2603 823 3093 
Q 1294 3584 2113 3584 
Q 2378 3584 2631 3529 
Q 2884 3475 3122 3366 
z
" id="DejaVuSans-63" transform="scale(0.015625)"/>
       <path d="M 3513 2113 
L 3513 0 
L 2938 0 
L 2938 2094 
Q 2938 2591 2744 2837 
Q 2550 3084 2163 3084 
Q 1697 3084 1428 2787 
Q 1159 2491 1159 1978 
L 1159 0 
L 581 0 
L 581 4863 
L 1159 4863 
L 1159 2956 
Q 1366 3272 1645 3428 
Q 1925 3584 2291 3584 
Q 2894 3584 3203 3211 
Q 3513 2838 3513 2113 
z
" id="DejaVuSans-68" transform="scale(0.015625)"/>
      </defs>
      <use xlink:href="#DejaVuSans-45"/>
      <use x="63.183594" xlink:href="#DejaVuSans-70"/>
      <use x="126.660156" xlink:href="#DejaVuSans-6f"/>
      <use x="187.841797" xlink:href="#DejaVuSans-63"/>
      <use x="242.822266" xlink:href="#DejaVuSans-68"/>
     </g>
    </g>
   </g>
   <g id="matplotlib.axis_2">
    <g id="ytick_1">
     <g id="line2d_10">
      <defs>
       <path d="M 0 0 
L -3.5 0 
" id="m873e9da8bf" style="stroke:#000000;stroke-width:0.8;"/>
      </defs>
      <g>
       <use style="stroke:#000000;stroke-width:0.8;" x="57.6" xlink:href="#m873e9da8bf" y="287.36489"/>
      </g>
     </g>
     <g id="text_11">
      <!-- −1000 -->
      <g transform="translate(16.770313 291.164109)scale(0.1 -0.1)">
       <defs>
        <path d="M 678 2272 
L 4684 2272 
L 4684 1741 
L 678 1741 
L 678 2272 
z
" id="DejaVuSans-2212" transform="scale(0.015625)"/>
       </defs>
       <use xlink:href="#DejaVuSans-2212"/>
       <use x="83.789062" xlink:href="#DejaVuSans-31"/>
       <use x="147.412109" xlink:href="#DejaVuSans-30"/>
       <use x="211.035156" xlink:href="#DejaVuSans-30"/>
       <use x="274.658203" xlink:href="#DejaVuSans-30"/>
      </g>
     </g>
    </g>
    <g id="ytick_2">
     <g id="line2d_11">
      <g>
       <use style="stroke:#000000;stroke-width:0.8;" x="57.6" xlink:href="#m873e9da8bf" y="244.448562"/>
      </g>
     </g>
     <g id="text_12">
      <!-- −800 -->
      <g transform="translate(23.132812 248.247781)scale(0.1 -0.1)">
       <defs>
        <path d="M 2034 2216 
Q 1584 2216 1326 1975 
Q 1069 1734 1069 1313 
Q 1069 891 1326 650 
Q 1584 409 2034 409 
Q 2484 409 2743 651 
Q 3003 894 3003 1313 
Q 3003 1734 2745 1975 
Q 2488 2216 2034 2216 
z
M 1403 2484 
Q 997 2584 770 2862 
Q 544 3141 544 3541 
Q 544 4100 942 4425 
Q 1341 4750 2034 4750 
Q 2731 4750 3128 4425 
Q 3525 4100 3525 3541 
Q 3525 3141 3298 2862 
Q 3072 2584 2669 2484 
Q 3125 2378 3379 2068 
Q 3634 1759 3634 1313 
Q 3634 634 3220 271 
Q 2806 -91 2034 -91 
Q 1263 -91 848 271 
Q 434 634 434 1313 
Q 434 1759 690 2068 
Q 947 2378 1403 2484 
z
M 1172 3481 
Q 1172 3119 1398 2916 
Q 1625 2713 2034 2713 
Q 2441 2713 2670 2916 
Q 2900 3119 2900 3481 
Q 2900 3844 2670 4047 
Q 2441 4250 2034 4250 
Q 1625 4250 1398 4047 
Q 1172 3844 1172 3481 
z
" id="DejaVuSans-38" transform="scale(0.015625)"/>
       </defs>
       <use xlink:href="#DejaVuSans-2212"/>
       <use x="83.789062" xlink:href="#DejaVuSans-38"/>
       <use x="147.412109" xlink:href="#DejaVuSans-30"/>
       <use x="211.035156" xlink:href="#DejaVuSans-30"/>
      </g>
     </g>
    </g>
    <g id="ytick_3">
     <g id="line2d_12">
      <g>
       <use style="stroke:#000000;stroke-width:0.8;" x="57.6" xlink:href="#m873e9da8bf" y="201.532234"/>
      </g>
     </g>
     <g id="text_13">
      <!-- −600 -->
      <g transform="translate(23.132812 205.331452)scale(0.1 -0.1)">
       <defs>
        <path d="M 2113 2584 
Q 1688 2584 1439 2293 
Q 1191 2003 1191 1497 
Q 1191 994 1439 701 
Q 1688 409 2113 409 
Q 2538 409 2786 701 
Q 3034 994 3034 1497 
Q 3034 2003 2786 2293 
Q 2538 2584 2113 2584 
z
M 3366 4563 
L 3366 3988 
Q 3128 4100 2886 4159 
Q 2644 4219 2406 4219 
Q 1781 4219 1451 3797 
Q 1122 3375 1075 2522 
Q 1259 2794 1537 2939 
Q 1816 3084 2150 3084 
Q 2853 3084 3261 2657 
Q 3669 2231 3669 1497 
Q 3669 778 3244 343 
Q 2819 -91 2113 -91 
Q 1303 -91 875 529 
Q 447 1150 447 2328 
Q 447 3434 972 4092 
Q 1497 4750 2381 4750 
Q 2619 4750 2861 4703 
Q 3103 4656 3366 4563 
z
" id="DejaVuSans-36" transform="scale(0.015625)"/>
       </defs>
       <use xlink:href="#DejaVuSans-2212"/>
       <use x="83.789062" xlink:href="#DejaVuSans-36"/>
       <use x="147.412109" xlink:href="#DejaVuSans-30"/>
       <use x="211.035156" xlink:href="#DejaVuSans-30"/>
      </g>
     </g>
    </g>
    <g id="ytick_4">
     <g id="line2d_13">
      <g>
       <use style="stroke:#000000;stroke-width:0.8;" x="57.6" xlink:href="#m873e9da8bf" y="158.615905"/>
      </g>
     </g>
     <g id="text_14">
      <!-- −400 -->
      <g transform="translate(23.132812 162.415124)scale(0.1 -0.1)">
       <use xlink:href="#DejaVuSans-2212"/>
       <use x="83.789062" xlink:href="#DejaVuSans-34"/>
       <use x="147.412109" xlink:href="#DejaVuSans-30"/>
       <use x="211.035156" xlink:href="#DejaVuSans-30"/>
      </g>
     </g>
    </g>
    <g id="ytick_5">
     <g id="line2d_14">
      <g>
       <use style="stroke:#000000;stroke-width:0.8;" x="57.6" xlink:href="#m873e9da8bf" y="115.699577"/>
      </g>
     </g>
     <g id="text_15">
      <!-- −200 -->
      <g transform="translate(23.132812 119.498796)scale(0.1 -0.1)">
       <use xlink:href="#DejaVuSans-2212"/>
       <use x="83.789062" xlink:href="#DejaVuSans-32"/>
       <use x="147.412109" xlink:href="#DejaVuSans-30"/>
       <use x="211.035156" xlink:href="#DejaVuSans-30"/>
      </g>
     </g>
    </g>
    <g id="ytick_6">
     <g id="line2d_15">
      <g>
       <use style="stroke:#000000;stroke-width:0.8;" x="57.6" xlink:href="#m873e9da8bf" y="72.783249"/>
      </g>
     </g>
     <g id="text_16">
      <!-- 0 -->
      <g transform="translate(44.2375 76.582468)scale(0.1 -0.1)">
       <use xlink:href="#DejaVuSans-30"/>
      </g>
     </g>
    </g>
    <g id="text_17">
     <!-- Loss -->
     <g transform="translate(9.650781 190.978781)rotate(-90)scale(0.15 -0.15)">
      <defs>
       <path d="M 628 4666 
L 1259 4666 
L 1259 531 
L 3531 531 
L 3531 0 
L 628 0 
L 628 4666 
z
" id="DejaVuSans-4c" transform="scale(0.015625)"/>
       <path d="M 2834 3397 
L 2834 2853 
Q 2591 2978 2328 3040 
Q 2066 3103 1784 3103 
Q 1356 3103 1142 2972 
Q 928 2841 928 2578 
Q 928 2378 1081 2264 
Q 1234 2150 1697 2047 
L 1894 2003 
Q 2506 1872 2764 1633 
Q 3022 1394 3022 966 
Q 3022 478 2636 193 
Q 2250 -91 1575 -91 
Q 1294 -91 989 -36 
Q 684 19 347 128 
L 347 722 
Q 666 556 975 473 
Q 1284 391 1588 391 
Q 1994 391 2212 530 
Q 2431 669 2431 922 
Q 2431 1156 2273 1281 
Q 2116 1406 1581 1522 
L 1381 1569 
Q 847 1681 609 1914 
Q 372 2147 372 2553 
Q 372 3047 722 3315 
Q 1072 3584 1716 3584 
Q 2034 3584 2315 3537 
Q 2597 3491 2834 3397 
z
" id="DejaVuSans-73" transform="scale(0.015625)"/>
      </defs>
      <use xlink:href="#DejaVuSans-4c"/>
      <use x="53.962891" xlink:href="#DejaVuSans-6f"/>
      <use x="115.144531" xlink:href="#DejaVuSans-73"/>
      <use x="167.244141" xlink:href="#DejaVuSans-73"/>
     </g>
    </g>
   </g>
   <g id="line2d_16">
    <path clip-path="url(#pd3a56308d6)" d="M 73.832727 86.894083 
L 74.646398 144.518946 
L 75.460068 152.612726 
L 76.273739 155.178182 
L 77.087409 169.856496 
L 77.90108 157.271842 
L 78.714751 182.195493 
L 79.528421 183.566917 
L 80.342092 184.097326 
L 81.155762 178.774767 
L 81.969433 186.930169 
L 82.783103 189.847431 
L 83.596774 198.482084 
L 84.410444 199.186295 
L 85.224115 201.08047 
L 86.037785 201.852438 
L 86.851456 206.250364 
L 87.665126 208.281672 
L 88.478797 209.123956 
L 89.292468 211.620089 
L 90.106138 211.939891 
L 90.919809 211.585733 
L 92.54715 224.455843 
L 93.36082 207.177978 
L 94.174491 222.378149 
L 94.988161 213.297116 
L 95.801832 228.607945 
L 96.615502 221.636542 
L 97.429173 217.218944 
L 98.242843 227.720423 
L 99.056514 223.21425 
L 99.870185 234.503967 
L 100.683855 219.306079 
L 101.497526 215.234065 
L 102.311196 234.454314 
L 103.124867 231.513339 
L 103.938537 237.695114 
L 104.752208 228.648853 
L 105.565878 228.081386 
L 106.379549 236.180467 
L 107.193219 228.050641 
L 108.00689 238.850434 
L 108.82056 232.534239 
L 109.634231 232.039818 
L 110.447902 229.345173 
L 111.261572 239.572674 
L 112.075243 229.411344 
L 112.888913 245.35185 
L 113.702584 239.970338 
L 114.516254 238.451902 
L 115.329925 217.258852 
L 116.143595 236.538943 
L 116.957266 245.182215 
L 117.770936 242.438098 
L 118.584607 240.863073 
L 119.398278 242.637259 
L 120.211948 248.986483 
L 121.025619 242.097174 
L 121.839289 244.897599 
L 122.65296 245.252601 
L 123.46663 249.713036 
L 124.280301 243.50331 
L 125.093971 244.518587 
L 125.907642 248.398099 
L 126.721312 249.647526 
L 127.534983 248.161567 
L 128.348653 242.847307 
L 129.162324 242.882388 
L 129.975995 240.115988 
L 130.789665 255.46076 
L 131.603336 253.498583 
L 132.417006 250.858027 
L 133.230677 257.308931 
L 134.044347 252.661429 
L 134.858018 252.526007 
L 135.671688 254.944867 
L 136.485359 244.437132 
L 137.299029 253.709357 
L 138.1127 255.51977 
L 138.92637 250.321285 
L 139.740041 259.332126 
L 140.553712 252.324269 
L 141.367382 259.00397 
L 142.181053 259.548915 
L 142.994723 239.724445 
L 143.808394 257.940285 
L 144.622064 240.752211 
L 145.435735 252.957848 
L 146.249405 254.155133 
L 147.063076 255.737768 
L 147.876746 260.142953 
L 148.690417 247.75554 
L 149.504087 258.800963 
L 150.317758 267.045533 
L 151.131429 263.400294 
L 151.945099 258.437824 
L 152.75877 248.224162 
L 153.57244 255.841153 
L 154.386111 258.553754 
L 155.199781 263.884961 
L 156.013452 256.110577 
L 156.827122 255.946336 
L 157.640793 252.932809 
L 158.454463 259.608434 
L 159.268134 260.429267 
L 160.081805 252.567651 
L 161.709146 261.646965 
L 162.522816 252.386642 
L 163.336487 266.850583 
L 164.150157 255.785117 
L 164.963828 261.342391 
L 165.777498 260.207103 
L 166.591169 255.112427 
L 168.21851 264.480856 
L 169.03218 261.606112 
L 169.845851 260.861885 
L 170.659522 256.082038 
L 171.473192 255.203798 
L 172.286863 253.761219 
L 173.100533 254.656941 
L 173.914204 254.073574 
L 174.727874 260.560752 
L 175.541545 253.54237 
L 176.355215 264.225457 
L 177.168886 259.456213 
L 177.982556 252.270737 
L 178.796227 263.381921 
L 179.609897 263.081416 
L 180.423568 264.867361 
L 181.237239 265.622881 
L 182.050909 266.762421 
L 182.86458 272.69656 
L 183.67825 269.818586 
L 184.491921 258.372492 
L 185.305591 253.574841 
L 186.119262 260.679158 
L 186.932932 262.939815 
L 187.746603 262.608336 
L 188.560273 269.874692 
L 189.373944 255.261688 
L 190.187614 268.451466 
L 191.001285 270.202987 
L 191.814956 264.791564 
L 192.628626 262.805977 
L 193.442297 258.904597 
L 194.255967 261.571151 
L 195.069638 270.13475 
L 195.883308 267.95963 
L 196.696979 257.805754 
L 197.510649 261.799184 
L 198.32432 272.02947 
L 199.13799 266.88754 
L 199.951661 258.787899 
L 200.765332 271.933464 
L 201.579002 266.542977 
L 202.392673 260.041061 
L 203.206343 269.440733 
L 204.020014 275.777042 
L 204.833684 267.117429 
L 205.647355 268.267545 
L 206.461025 264.021609 
L 207.274696 264.277915 
L 208.088366 257.83202 
L 208.902037 272.259308 
L 209.715707 265.312252 
L 210.529378 267.43509 
L 211.343049 277.341952 
L 212.156719 255.510461 
L 212.97039 267.36658 
L 213.78406 268.919756 
L 214.597731 264.597366 
L 215.411401 261.882625 
L 216.225072 266.142021 
L 217.038742 265.160633 
L 217.852413 274.541116 
L 218.666083 272.267317 
L 219.479754 267.05416 
L 220.293424 257.644545 
L 221.107095 266.435753 
L 221.920766 272.597356 
L 223.548107 260.153996 
L 224.361777 270.722372 
L 225.175448 257.699356 
L 225.989118 277.985099 
L 226.802789 265.156641 
L 227.616459 265.76886 
L 228.43013 269.931396 
L 229.2438 266.65614 
L 230.057471 275.066707 
L 230.871141 273.12007 
L 231.684812 263.938267 
L 232.498483 259.907474 
L 233.312153 269.306277 
L 234.125824 270.818454 
L 234.939494 273.422487 
L 235.753165 273.374843 
L 236.566835 272.909564 
L 237.380506 267.112404 
L 238.194176 280.749645 
L 239.007847 276.636476 
L 239.821517 275.062732 
L 240.635188 271.209313 
L 241.448859 262.335648 
L 242.262529 275.088877 
L 243.0762 270.520826 
L 243.88987 276.77255 
L 244.703541 269.995201 
L 245.517211 270.246407 
L 246.330882 278.13824 
L 247.144552 277.06993 
L 247.958223 270.819663 
L 248.771893 269.99783 
L 249.585564 276.164349 
L 250.399234 266.596732 
L 251.212905 279.10736 
L 252.026576 264.581612 
L 252.840246 265.767977 
L 253.653917 276.739737 
L 254.467587 280.460327 
L 255.281258 269.300181 
L 256.094928 271.138549 
L 256.908599 282.045738 
L 257.722269 266.125065 
L 258.53594 274.551243 
L 259.34961 273.835123 
L 260.163281 255.556776 
L 260.976951 266.2504 
L 261.790622 280.541231 
L 262.604293 279.426893 
L 263.417963 267.547524 
L 264.231634 273.669829 
L 265.045304 275.270891 
L 265.858975 268.556943 
L 266.672645 271.289937 
L 267.486316 271.417769 
L 268.299986 265.208353 
L 269.113657 274.399222 
L 269.927327 269.914606 
L 270.740998 284.626994 
L 271.554668 283.279184 
L 272.368339 273.544908 
L 273.18201 278.554995 
L 273.99568 277.274632 
L 274.809351 281.233706 
L 275.623021 276.72506 
L 276.436692 273.319777 
L 277.250362 271.829643 
L 278.064033 266.881641 
L 278.877703 279.162946 
L 279.691374 270.049194 
L 280.505044 283.247945 
L 281.318715 284.273837 
L 282.132386 276.999726 
L 282.946056 275.994395 
L 283.759727 282.618519 
L 284.573397 266.083953 
L 285.387068 273.912689 
L 286.200738 276.590017 
L 287.014409 276.779216 
L 287.828079 275.20359 
L 288.64175 280.012607 
L 289.45542 270.535922 
L 290.269091 291.55148 
L 291.082761 277.221223 
L 291.896432 270.892929 
L 292.710103 283.405373 
L 293.523773 275.058253 
L 294.337444 274.843562 
L 295.151114 282.454456 
L 295.964785 271.930474 
L 296.778455 277.979185 
L 297.592126 277.186034 
L 298.405796 283.894251 
L 299.219467 266.622377 
L 300.033137 282.419293 
L 300.846808 282.569419 
L 301.660478 268.534085 
L 302.474149 271.394671 
L 303.28782 271.460932 
L 304.10149 271.660695 
L 304.915161 277.192327 
L 305.728831 274.584403 
L 307.356172 280.954333 
L 308.169843 279.94074 
L 308.983513 284.106101 
L 309.797184 271.524854 
L 310.610854 286.857758 
L 311.424525 274.927577 
L 312.238195 276.037121 
L 313.051866 282.171871 
L 313.865537 265.063428 
L 314.679207 277.097398 
L 315.492878 272.228152 
L 316.306548 281.589276 
L 317.120219 269.698876 
L 317.933889 264.800636 
L 318.74756 284.054946 
L 319.56123 279.837216 
L 320.374901 291.103834 
L 321.188571 276.18598 
L 322.002242 279.609829 
L 322.815913 285.052981 
L 323.629583 276.779682 
L 324.443254 281.512187 
L 325.256924 279.656436 
L 326.070595 268.081575 
L 326.884265 280.779404 
L 327.697936 270.708119 
L 328.511606 284.042061 
L 329.325277 270.457301 
L 330.138947 290.458689 
L 330.952618 279.540815 
L 331.766288 281.077178 
L 332.579959 275.213013 
L 333.39363 287.066685 
L 334.2073 278.122716 
L 335.020971 295.488 
L 335.834641 267.134629 
L 336.648312 277.77873 
L 337.461982 284.913014 
L 338.275653 278.44963 
L 339.089323 274.372011 
L 339.902994 285.627243 
L 340.716664 281.222214 
L 341.530335 267.668248 
L 342.344005 281.087199 
L 343.157676 279.287371 
L 343.971347 292.596921 
L 344.785017 275.525199 
L 345.598688 279.913982 
L 347.226029 274.391522 
L 348.039699 281.433858 
L 348.85337 292.401436 
L 349.66704 265.258047 
L 350.480711 284.83234 
L 351.294381 275.81784 
L 352.108052 269.368599 
L 352.921722 274.031622 
L 353.735393 286.028333 
L 354.549064 294.02349 
L 355.362734 288.896191 
L 356.176405 274.901144 
L 356.990075 280.668848 
L 357.803746 288.071305 
L 358.617416 276.427765 
L 359.431087 287.487164 
L 360.244757 280.072045 
L 361.058428 281.644808 
L 361.872098 280.055707 
L 362.685769 277.475447 
L 363.49944 275.53433 
L 364.31311 279.373967 
L 365.126781 280.739933 
L 365.940451 276.295713 
L 366.754122 278.478478 
L 367.567792 274.697963 
L 368.381463 276.754663 
L 369.195133 273.394163 
L 370.008804 281.723562 
L 370.822474 279.413363 
L 371.636145 281.808366 
L 372.449815 290.707096 
L 373.263486 281.794621 
L 374.077157 286.700121 
L 374.890827 288.529281 
L 375.704498 284.371936 
L 376.518168 273.036398 
L 377.331839 283.097797 
L 378.145509 287.074445 
L 378.95918 275.466731 
L 379.77285 279.492586 
L 380.586521 290.329805 
L 381.400191 278.685302 
L 382.213862 285.82588 
L 383.841203 279.442937 
L 384.654874 292.795013 
L 385.468544 284.965977 
L 386.282215 291.905484 
L 387.095885 282.681668 
L 387.909556 284.097214 
L 388.723226 280.614357 
L 389.536897 286.489405 
L 390.350567 278.037121 
L 391.164238 285.503893 
L 391.977908 286.166681 
L 392.791579 268.737716 
L 393.605249 278.766414 
L 394.41892 279.856267 
L 395.232591 274.800671 
L 396.046261 283.99838 
L 396.859932 282.397568 
L 397.673602 283.34033 
L 398.487273 277.680789 
L 398.487273 277.680789 
" style="fill:none;stroke:#1f77b4;stroke-linecap:square;stroke-width:1.5;"/>
   </g>
   <g id="line2d_17">
    <path clip-path="url(#pd3a56308d6)" d="M 73.832727 141.337275 
L 74.646398 154.348663 
L 75.460068 105.949806 
L 76.273739 169.568013 
L 77.087409 146.109236 
L 77.90108 174.783836 
L 78.714751 162.817914 
L 79.528421 187.889462 
L 80.342092 180.282109 
L 81.155762 191.742374 
L 81.969433 191.422134 
L 82.783103 193.794912 
L 83.596774 200.788773 
L 84.410444 204.769782 
L 85.224115 195.659016 
L 86.037785 204.238645 
L 86.851456 211.047194 
L 88.478797 206.399761 
L 89.292468 203.090631 
L 90.106138 207.778428 
L 90.919809 211.75176 
L 91.733479 214.219767 
L 92.54715 214.499354 
L 93.36082 222.735645 
L 94.174491 226.091172 
L 94.988161 215.834586 
L 95.801832 213.633742 
L 96.615502 219.255778 
L 97.429173 217.519881 
L 98.242843 226.604706 
L 99.056514 228.848295 
L 99.870185 234.582301 
L 100.683855 228.560381 
L 101.497526 224.006962 
L 102.311196 223.001469 
L 103.124867 223.627608 
L 103.938537 211.872568 
L 104.752208 231.315009 
L 105.565878 235.436823 
L 106.379549 234.400138 
L 107.193219 227.833303 
L 108.00689 237.265622 
L 108.82056 227.573184 
L 109.634231 53.568 
L 110.447902 226.934687 
L 111.261572 237.849804 
L 112.075243 246.860578 
L 112.888913 240.256721 
L 113.702584 217.640161 
L 114.516254 239.600291 
L 115.329925 242.873235 
L 116.143595 243.389287 
L 116.957266 245.736746 
L 117.770936 251.768017 
L 118.584607 242.557854 
L 119.398278 240.392704 
L 120.211948 245.847078 
L 121.025619 248.496896 
L 121.839289 231.84399 
L 122.65296 246.228038 
L 123.46663 238.817089 
L 124.280301 245.988379 
L 125.093971 246.690672 
L 125.907642 246.202952 
L 126.721312 254.686313 
L 127.534983 236.990237 
L 128.348653 223.660973 
L 129.162324 251.232995 
L 129.975995 248.640465 
L 130.789665 248.249568 
L 131.603336 250.897582 
L 132.417006 251.725762 
L 133.230677 240.766524 
L 134.044347 249.789967 
L 134.858018 242.624647 
L 135.671688 251.598707 
L 136.485359 247.212572 
L 137.299029 245.447058 
L 138.1127 254.162456 
L 138.92637 251.375992 
L 139.740041 264.183213 
L 140.553712 260.019048 
L 141.367382 246.765032 
L 142.181053 250.445718 
L 142.994723 257.844257 
L 143.808394 258.413714 
L 144.622064 251.711503 
L 145.435735 252.552807 
L 146.249405 258.02626 
L 147.063076 260.423654 
L 147.876746 250.439459 
L 148.690417 259.204512 
L 149.504087 260.5528 
L 150.317758 253.291742 
L 151.131429 258.41467 
L 151.945099 258.472029 
L 152.75877 254.959618 
L 153.57244 257.950977 
L 154.386111 265.591797 
L 155.199781 254.860857 
L 156.013452 260.035909 
L 156.827122 259.55915 
L 157.640793 258.819292 
L 158.454463 261.472313 
L 159.268134 260.968846 
L 160.081805 255.360308 
L 160.895475 259.703912 
L 161.709146 265.777673 
L 162.522816 259.441747 
L 163.336487 259.715122 
L 164.150157 220.856357 
L 164.963828 259.453738 
L 165.777498 262.318347 
L 167.404839 251.62538 
L 168.21851 257.619362 
L 169.03218 258.63865 
L 169.845851 250.246492 
L 170.659522 264.170868 
L 171.473192 264.263519 
L 172.286863 255.642663 
L 173.100533 265.570735 
L 173.914204 254.595056 
L 174.727874 257.327153 
L 175.541545 263.629302 
L 176.355215 267.254765 
L 177.168886 255.415347 
L 177.982556 265.707748 
L 178.796227 269.925903 
L 179.609897 265.357932 
L 180.423568 269.50847 
L 182.050909 262.106797 
L 182.86458 262.956415 
L 183.67825 261.444794 
L 184.491921 265.557046 
L 185.305591 263.638565 
L 186.119262 255.936588 
L 186.932932 264.549063 
L 187.746603 263.658497 
L 188.560273 262.530864 
L 189.373944 261.999691 
L 190.187614 267.131549 
L 191.001285 267.048686 
L 191.814956 265.067045 
L 192.628626 259.216328 
L 193.442297 199.328354 
L 194.255967 261.602651 
L 195.069638 265.947719 
L 195.883308 263.085141 
L 196.696979 251.429462 
L 197.510649 259.537952 
L 198.32432 259.150368 
L 199.13799 266.80489 
L 199.951661 270.525774 
L 200.765332 257.945151 
L 202.392673 271.819787 
L 203.206343 259.173737 
L 204.020014 266.243425 
L 204.833684 263.866127 
L 205.647355 262.729148 
L 206.461025 258.884685 
L 207.274696 270.522011 
L 208.088366 270.09687 
L 208.902037 263.785412 
L 209.715707 269.608895 
L 210.529378 260.068987 
L 211.343049 269.436777 
L 212.156719 258.983243 
L 212.97039 262.216622 
L 213.78406 258.822774 
L 214.597731 259.912475 
L 215.411401 264.502423 
L 216.225072 264.318633 
L 217.038742 269.296716 
L 217.852413 269.813938 
L 218.666083 263.155347 
L 219.479754 260.417803 
L 220.293424 258.731393 
L 221.107095 270.350031 
L 221.920766 268.510092 
L 222.734436 265.38511 
L 223.548107 263.466068 
L 224.361777 268.63468 
L 225.175448 267.000979 
L 225.989118 263.794567 
L 226.802789 264.025338 
L 227.616459 263.530317 
L 228.43013 268.891861 
L 229.2438 261.149627 
L 230.057471 262.914841 
L 230.871141 260.844052 
L 231.684812 262.992587 
L 232.498483 262.086466 
L 233.312153 268.779404 
L 234.125824 271.342154 
L 234.939494 263.041819 
L 235.753165 268.198399 
L 236.566835 269.913982 
L 237.380506 266.577843 
L 238.194176 265.476698 
L 239.007847 269.160916 
L 239.821517 260.830059 
L 240.635188 270.432174 
L 241.448859 267.802494 
L 242.262529 269.804079 
L 243.0762 270.843613 
L 243.88987 268.690843 
L 244.703541 263.52599 
L 245.517211 264.843081 
L 246.330882 275.041314 
L 247.144552 263.958557 
L 247.958223 264.123885 
L 248.771893 269.820283 
L 249.585564 269.980947 
L 250.399234 262.692828 
L 251.212905 269.900168 
L 252.026576 266.345652 
L 252.840246 267.032129 
L 253.653917 265.793393 
L 254.467587 261.663117 
L 255.281258 260.594128 
L 256.094928 269.113623 
L 256.908599 263.907549 
L 257.722269 264.013204 
L 258.53594 269.709645 
L 259.34961 272.123446 
L 260.163281 270.2459 
L 260.976951 258.551065 
L 261.790622 272.621251 
L 262.604293 272.247298 
L 263.417963 271.528483 
L 264.231634 268.425341 
L 265.045304 266.252567 
L 265.858975 271.302552 
L 266.672645 264.568612 
L 267.486316 266.42415 
L 268.299986 271.264059 
L 269.113657 270.514973 
L 269.927327 267.055605 
L 270.740998 276.970625 
L 271.554668 270.371391 
L 272.368339 272.309659 
L 273.99568 265.802768 
L 274.809351 276.202704 
L 276.436692 267.695491 
L 277.250362 275.531783 
L 278.064033 271.308063 
L 279.691374 266.041419 
L 280.505044 270.901892 
L 281.318715 271.090071 
L 282.132386 271.43153 
L 282.946056 273.907681 
L 283.759727 270.285184 
L 284.573397 271.151925 
L 285.387068 278.229122 
L 286.200738 266.171066 
L 287.014409 265.197693 
L 287.828079 273.725972 
L 288.64175 265.95502 
L 289.45542 278.535334 
L 290.269091 269.42115 
L 291.082761 274.081089 
L 291.896432 274.847448 
L 292.710103 264.193236 
L 293.523773 270.337415 
L 294.337444 270.639147 
L 295.151114 277.667502 
L 295.964785 272.342775 
L 296.778455 270.247073 
L 297.592126 270.310479 
L 298.405796 271.866622 
L 299.219467 264.767959 
L 300.033137 272.07838 
L 300.846808 274.731259 
L 301.660478 269.516794 
L 302.474149 272.43679 
L 303.28782 268.522019 
L 304.10149 269.013222 
L 304.915161 277.235208 
L 305.728831 276.739566 
L 306.542502 270.414772 
L 307.356172 276.094604 
L 308.169843 270.674777 
L 308.983513 268.874309 
L 309.797184 272.156552 
L 310.610854 273.558834 
L 311.424525 277.548471 
L 312.238195 280.508332 
L 313.051866 268.358959 
L 313.865537 269.509011 
L 314.679207 274.337023 
L 315.492878 275.21452 
L 316.306548 275.119225 
L 317.120219 271.787035 
L 317.933889 271.738161 
L 318.74756 272.509645 
L 319.56123 273.982948 
L 320.374901 270.370582 
L 321.188571 275.712714 
L 322.002242 273.016259 
L 322.815913 268.759712 
L 323.629583 275.562036 
L 324.443254 278.590112 
L 325.256924 270.75338 
L 326.070595 269.395446 
L 327.697936 278.776091 
L 328.511606 271.618599 
L 329.325277 279.325754 
L 330.138947 280.725093 
L 330.952618 283.656223 
L 331.766288 275.16981 
L 332.579959 277.227465 
L 333.39363 268.794357 
L 334.2073 276.192739 
L 335.020971 277.07688 
L 335.834641 282.583331 
L 336.648312 281.407032 
L 337.461982 264.263196 
L 339.089323 269.639111 
L 339.902994 266.43098 
L 340.716664 277.802527 
L 341.530335 273.772646 
L 342.344005 276.35912 
L 343.157676 267.982363 
L 343.971347 280.288401 
L 344.785017 276.36781 
L 345.598688 274.3198 
L 346.412358 270.671239 
L 347.226029 279.64248 
L 348.039699 274.19332 
L 348.85337 275.124872 
L 349.66704 277.784047 
L 350.480711 272.260222 
L 351.294381 268.974464 
L 352.921722 280.509051 
L 353.735393 273.117993 
L 354.549064 282.35472 
L 355.362734 281.206599 
L 356.176405 271.43456 
L 356.990075 268.671826 
L 357.803746 269.888838 
L 358.617416 266.590321 
L 359.431087 278.931231 
L 360.244757 270.812918 
L 361.058428 279.161688 
L 361.872098 274.45945 
L 362.685769 278.422559 
L 363.49944 280.022109 
L 364.31311 278.164284 
L 365.126781 282.838823 
L 365.940451 265.729107 
L 366.754122 275.004223 
L 367.567792 280.962617 
L 368.381463 278.438863 
L 369.195133 284.814466 
L 370.008804 271.182814 
L 370.822474 274.250268 
L 372.449815 276.829879 
L 373.263486 276.822344 
L 374.077157 270.731825 
L 374.890827 272.142923 
L 375.704498 272.491598 
L 376.518168 278.97254 
L 377.331839 267.775855 
L 378.145509 275.80003 
L 378.95918 272.376875 
L 379.77285 275.052453 
L 380.586521 274.915831 
L 381.400191 273.883632 
L 382.213862 270.677366 
L 383.027532 271.539218 
L 383.841203 272.595317 
L 384.654874 278.551115 
L 385.468544 276.506253 
L 386.282215 267.747204 
L 387.095885 275.247024 
L 387.909556 274.078819 
L 388.723226 266.341219 
L 389.536897 279.645866 
L 390.350567 278.04478 
L 391.164238 277.313084 
L 391.977908 257.49398 
L 392.791579 273.367312 
L 393.605249 271.91323 
L 394.41892 273.971664 
L 395.232591 271.967914 
L 396.046261 273.374545 
L 396.859932 270.931734 
L 397.673602 279.22708 
L 398.487273 279.94674 
L 398.487273 279.94674 
" style="fill:none;stroke:#ff7f0e;stroke-linecap:square;stroke-width:1.5;"/>
   </g>
   <g id="patch_3">
    <path d="M 57.6 307.584 
L 57.6 41.472 
" style="fill:none;stroke:#000000;stroke-linecap:square;stroke-linejoin:miter;stroke-width:0.8;"/>
   </g>
   <g id="patch_4">
    <path d="M 414.72 307.584 
L 414.72 41.472 
" style="fill:none;stroke:#000000;stroke-linecap:square;stroke-linejoin:miter;stroke-width:0.8;"/>
   </g>
   <g id="patch_5">
    <path d="M 57.6 307.584 
L 414.72 307.584 
" style="fill:none;stroke:#000000;stroke-linecap:square;stroke-linejoin:miter;stroke-width:0.8;"/>
   </g>
   <g id="patch_6">
    <path d="M 57.6 41.472 
L 414.72 41.472 
" style="fill:none;stroke:#000000;stroke-linecap:square;stroke-linejoin:miter;stroke-width:0.8;"/>
   </g>
   <g id="legend_1">
    <g id="patch_7">
     <path d="M 303.845 78.82825 
L 407.72 78.82825 
Q 409.72 78.82825 409.72 76.82825 
L 409.72 48.472 
Q 409.72 46.472 407.72 46.472 
L 303.845 46.472 
Q 301.845 46.472 301.845 48.472 
L 301.845 76.82825 
Q 301.845 78.82825 303.845 78.82825 
z
" style="fill:#ffffff;opacity:0.8;stroke:#cccccc;stroke-linejoin:miter;"/>
    </g>
    <g id="line2d_18">
     <path d="M 305.845 54.570437 
L 325.845 54.570437 
" style="fill:none;stroke:#1f77b4;stroke-linecap:square;stroke-width:1.5;"/>
    </g>
    <g id="line2d_19"/>
    <g id="text_18">
     <!-- Train loss -->
     <g transform="translate(333.845 58.070437)scale(0.1 -0.1)">
      <defs>
       <path d="M -19 4666 
L 3928 4666 
L 3928 4134 
L 2272 4134 
L 2272 0 
L 1638 0 
L 1638 4134 
L -19 4134 
L -19 4666 
z
" id="DejaVuSans-54" transform="scale(0.015625)"/>
       <path d="M 2631 2963 
Q 2534 3019 2420 3045 
Q 2306 3072 2169 3072 
Q 1681 3072 1420 2755 
Q 1159 2438 1159 1844 
L 1159 0 
L 581 0 
L 581 3500 
L 1159 3500 
L 1159 2956 
Q 1341 3275 1631 3429 
Q 1922 3584 2338 3584 
Q 2397 3584 2469 3576 
Q 2541 3569 2628 3553 
L 2631 2963 
z
" id="DejaVuSans-72" transform="scale(0.015625)"/>
       <path d="M 2194 1759 
Q 1497 1759 1228 1600 
Q 959 1441 959 1056 
Q 959 750 1161 570 
Q 1363 391 1709 391 
Q 2188 391 2477 730 
Q 2766 1069 2766 1631 
L 2766 1759 
L 2194 1759 
z
M 3341 1997 
L 3341 0 
L 2766 0 
L 2766 531 
Q 2569 213 2275 61 
Q 1981 -91 1556 -91 
Q 1019 -91 701 211 
Q 384 513 384 1019 
Q 384 1609 779 1909 
Q 1175 2209 1959 2209 
L 2766 2209 
L 2766 2266 
Q 2766 2663 2505 2880 
Q 2244 3097 1772 3097 
Q 1472 3097 1187 3025 
Q 903 2953 641 2809 
L 641 3341 
Q 956 3463 1253 3523 
Q 1550 3584 1831 3584 
Q 2591 3584 2966 3190 
Q 3341 2797 3341 1997 
z
" id="DejaVuSans-61" transform="scale(0.015625)"/>
       <path d="M 603 3500 
L 1178 3500 
L 1178 0 
L 603 0 
L 603 3500 
z
M 603 4863 
L 1178 4863 
L 1178 4134 
L 603 4134 
L 603 4863 
z
" id="DejaVuSans-69" transform="scale(0.015625)"/>
       <path d="M 3513 2113 
L 3513 0 
L 2938 0 
L 2938 2094 
Q 2938 2591 2744 2837 
Q 2550 3084 2163 3084 
Q 1697 3084 1428 2787 
Q 1159 2491 1159 1978 
L 1159 0 
L 581 0 
L 581 3500 
L 1159 3500 
L 1159 2956 
Q 1366 3272 1645 3428 
Q 1925 3584 2291 3584 
Q 2894 3584 3203 3211 
Q 3513 2838 3513 2113 
z
" id="DejaVuSans-6e" transform="scale(0.015625)"/>
       <path id="DejaVuSans-20" transform="scale(0.015625)"/>
       <path d="M 603 4863 
L 1178 4863 
L 1178 0 
L 603 0 
L 603 4863 
z
" id="DejaVuSans-6c" transform="scale(0.015625)"/>
      </defs>
      <use xlink:href="#DejaVuSans-54"/>
      <use x="46.333984" xlink:href="#DejaVuSans-72"/>
      <use x="87.447266" xlink:href="#DejaVuSans-61"/>
      <use x="148.726562" xlink:href="#DejaVuSans-69"/>
      <use x="176.509766" xlink:href="#DejaVuSans-6e"/>
      <use x="239.888672" xlink:href="#DejaVuSans-20"/>
      <use x="271.675781" xlink:href="#DejaVuSans-6c"/>
      <use x="299.458984" xlink:href="#DejaVuSans-6f"/>
      <use x="360.640625" xlink:href="#DejaVuSans-73"/>
      <use x="412.740234" xlink:href="#DejaVuSans-73"/>
     </g>
    </g>
    <g id="line2d_20">
     <path d="M 305.845 69.248562 
L 325.845 69.248562 
" style="fill:none;stroke:#ff7f0e;stroke-linecap:square;stroke-width:1.5;"/>
    </g>
    <g id="line2d_21"/>
    <g id="text_19">
     <!-- Validation loss -->
     <g transform="translate(333.845 72.748562)scale(0.1 -0.1)">
      <defs>
       <path d="M 1831 0 
L 50 4666 
L 709 4666 
L 2188 738 
L 3669 4666 
L 4325 4666 
L 2547 0 
L 1831 0 
z
" id="DejaVuSans-56" transform="scale(0.015625)"/>
       <path d="M 2906 2969 
L 2906 4863 
L 3481 4863 
L 3481 0 
L 2906 0 
L 2906 525 
Q 2725 213 2448 61 
Q 2172 -91 1784 -91 
Q 1150 -91 751 415 
Q 353 922 353 1747 
Q 353 2572 751 3078 
Q 1150 3584 1784 3584 
Q 2172 3584 2448 3432 
Q 2725 3281 2906 2969 
z
M 947 1747 
Q 947 1113 1208 752 
Q 1469 391 1925 391 
Q 2381 391 2643 752 
Q 2906 1113 2906 1747 
Q 2906 2381 2643 2742 
Q 2381 3103 1925 3103 
Q 1469 3103 1208 2742 
Q 947 2381 947 1747 
z
" id="DejaVuSans-64" transform="scale(0.015625)"/>
       <path d="M 1172 4494 
L 1172 3500 
L 2356 3500 
L 2356 3053 
L 1172 3053 
L 1172 1153 
Q 1172 725 1289 603 
Q 1406 481 1766 481 
L 2356 481 
L 2356 0 
L 1766 0 
Q 1100 0 847 248 
Q 594 497 594 1153 
L 594 3053 
L 172 3053 
L 172 3500 
L 594 3500 
L 594 4494 
L 1172 4494 
z
" id="DejaVuSans-74" transform="scale(0.015625)"/>
      </defs>
      <use xlink:href="#DejaVuSans-56"/>
      <use x="60.658203" xlink:href="#DejaVuSans-61"/>
      <use x="121.9375" xlink:href="#DejaVuSans-6c"/>
      <use x="149.720703" xlink:href="#DejaVuSans-69"/>
      <use x="177.503906" xlink:href="#DejaVuSans-64"/>
      <use x="240.980469" xlink:href="#DejaVuSans-61"/>
      <use x="302.259766" xlink:href="#DejaVuSans-74"/>
      <use x="341.46875" xlink:href="#DejaVuSans-69"/>
      <use x="369.251953" xlink:href="#DejaVuSans-6f"/>
      <use x="430.433594" xlink:href="#DejaVuSans-6e"/>
      <use x="493.8125" xlink:href="#DejaVuSans-20"/>
      <use x="525.599609" xlink:href="#DejaVuSans-6c"/>
      <use x="553.382812" xlink:href="#DejaVuSans-6f"/>
      <use x="614.564453" xlink:href="#DejaVuSans-73"/>
      <use x="666.664062" xlink:href="#DejaVuSans-73"/>
     </g>
    </g>
   </g>
  </g>
 </g>
 <defs>
  <clipPath id="pd3a56308d6">
   <rect height="266.112" width="357.12" x="57.6" y="41.472"/>
  </clipPath>
 </defs>
</svg>
