<?xml version="1.0" encoding="utf-8" standalone="no"?>
<!DOCTYPE svg PUBLIC "-//W3C//DTD SVG 1.1//EN"
  "http://www.w3.org/Graphics/SVG/1.1/DTD/svg11.dtd">
<svg height="345.6pt" version="1.1" viewBox="0 0 460.8 345.6" width="460.8pt" xmlns="http://www.w3.org/2000/svg" xmlns:xlink="http://www.w3.org/1999/xlink">
 <metadata>
  <rdf:RDF xmlns:cc="http://creativecommons.org/ns#" xmlns:dc="http://purl.org/dc/elements/1.1/" xmlns:rdf="http://www.w3.org/1999/02/22-rdf-syntax-ns#">
   <cc:Work>
    <dc:type rdf:resource="http://purl.org/dc/dcmitype/StillImage"/>
    <dc:date>2021-07-29T23:06:21.423051</dc:date>
    <dc:format>image/svg+xml</dc:format>
    <dc:creator>
     <cc:Agent>
      <dc:title>Matplotlib v3.4.1, https://matplotlib.org/</dc:title>
     </cc:Agent>
    </dc:creator>
   </cc:Work>
  </rdf:RDF>
 </metadata>
 <defs>
  <style type="text/css">*{stroke-linecap:butt;stroke-linejoin:round;}</style>
 </defs>
 <g id="figure_1">
  <g id="patch_1">
   <path d="M 0 345.6 
L 460.8 345.6 
L 460.8 0 
L 0 0 
z
" style="fill:#ffffff;"/>
  </g>
  <g id="axes_1">
   <g id="patch_2">
    <path d="M 57.6 307.584 
L 414.72 307.584 
L 414.72 41.472 
L 57.6 41.472 
z
" style="fill:#ffffff;"/>
   </g>
   <g id="matplotlib.axis_1">
    <g id="xtick_1">
     <g id="line2d_1">
      <defs>
       <path d="M 0 0 
L 0 3.5 
" id="mb5183aa9aa" style="stroke:#000000;stroke-width:0.8;"/>
      </defs>
      <g>
       <use style="stroke:#000000;stroke-width:0.8;" x="73.643865" xlink:href="#mb5183aa9aa" y="307.584"/>
      </g>
     </g>
     <g id="text_1">
      <!-- 0 -->
      <g transform="translate(70.462615 322.182437)scale(0.1 -0.1)">
       <defs>
        <path d="M 2034 4250 
Q 1547 4250 1301 3770 
Q 1056 3291 1056 2328 
Q 1056 1369 1301 889 
Q 1547 409 2034 409 
Q 2525 409 2770 889 
Q 3016 1369 3016 2328 
Q 3016 3291 2770 3770 
Q 2525 4250 2034 4250 
z
M 2034 4750 
Q 2819 4750 3233 4129 
Q 3647 3509 3647 2328 
Q 3647 1150 3233 529 
Q 2819 -91 2034 -91 
Q 1250 -91 836 529 
Q 422 1150 422 2328 
Q 422 3509 836 4129 
Q 1250 4750 2034 4750 
z
" id="DejaVuSans-30" transform="scale(0.015625)"/>
       </defs>
       <use xlink:href="#DejaVuSans-30"/>
      </g>
     </g>
    </g>
    <g id="xtick_2">
     <g id="line2d_2">
      <g>
       <use style="stroke:#000000;stroke-width:0.8;" x="120.859476" xlink:href="#mb5183aa9aa" y="307.584"/>
      </g>
     </g>
     <g id="text_2">
      <!-- 250 -->
      <g transform="translate(111.315726 322.182437)scale(0.1 -0.1)">
       <defs>
        <path d="M 1228 531 
L 3431 531 
L 3431 0 
L 469 0 
L 469 531 
Q 828 903 1448 1529 
Q 2069 2156 2228 2338 
Q 2531 2678 2651 2914 
Q 2772 3150 2772 3378 
Q 2772 3750 2511 3984 
Q 2250 4219 1831 4219 
Q 1534 4219 1204 4116 
Q 875 4013 500 3803 
L 500 4441 
Q 881 4594 1212 4672 
Q 1544 4750 1819 4750 
Q 2544 4750 2975 4387 
Q 3406 4025 3406 3419 
Q 3406 3131 3298 2873 
Q 3191 2616 2906 2266 
Q 2828 2175 2409 1742 
Q 1991 1309 1228 531 
z
" id="DejaVuSans-32" transform="scale(0.015625)"/>
        <path d="M 691 4666 
L 3169 4666 
L 3169 4134 
L 1269 4134 
L 1269 2991 
Q 1406 3038 1543 3061 
Q 1681 3084 1819 3084 
Q 2600 3084 3056 2656 
Q 3513 2228 3513 1497 
Q 3513 744 3044 326 
Q 2575 -91 1722 -91 
Q 1428 -91 1123 -41 
Q 819 9 494 109 
L 494 744 
Q 775 591 1075 516 
Q 1375 441 1709 441 
Q 2250 441 2565 725 
Q 2881 1009 2881 1497 
Q 2881 1984 2565 2268 
Q 2250 2553 1709 2553 
Q 1456 2553 1204 2497 
Q 953 2441 691 2322 
L 691 4666 
z
" id="DejaVuSans-35" transform="scale(0.015625)"/>
       </defs>
       <use xlink:href="#DejaVuSans-32"/>
       <use x="63.623047" xlink:href="#DejaVuSans-35"/>
       <use x="127.246094" xlink:href="#DejaVuSans-30"/>
      </g>
     </g>
    </g>
    <g id="xtick_3">
     <g id="line2d_3">
      <g>
       <use style="stroke:#000000;stroke-width:0.8;" x="168.075088" xlink:href="#mb5183aa9aa" y="307.584"/>
      </g>
     </g>
     <g id="text_3">
      <!-- 500 -->
      <g transform="translate(158.531338 322.182437)scale(0.1 -0.1)">
       <use xlink:href="#DejaVuSans-35"/>
       <use x="63.623047" xlink:href="#DejaVuSans-30"/>
       <use x="127.246094" xlink:href="#DejaVuSans-30"/>
      </g>
     </g>
    </g>
    <g id="xtick_4">
     <g id="line2d_4">
      <g>
       <use style="stroke:#000000;stroke-width:0.8;" x="215.2907" xlink:href="#mb5183aa9aa" y="307.584"/>
      </g>
     </g>
     <g id="text_4">
      <!-- 750 -->
      <g transform="translate(205.74695 322.182437)scale(0.1 -0.1)">
       <defs>
        <path d="M 525 4666 
L 3525 4666 
L 3525 4397 
L 1831 0 
L 1172 0 
L 2766 4134 
L 525 4134 
L 525 4666 
z
" id="DejaVuSans-37" transform="scale(0.015625)"/>
       </defs>
       <use xlink:href="#DejaVuSans-37"/>
       <use x="63.623047" xlink:href="#DejaVuSans-35"/>
       <use x="127.246094" xlink:href="#DejaVuSans-30"/>
      </g>
     </g>
    </g>
    <g id="xtick_5">
     <g id="line2d_5">
      <g>
       <use style="stroke:#000000;stroke-width:0.8;" x="262.506311" xlink:href="#mb5183aa9aa" y="307.584"/>
      </g>
     </g>
     <g id="text_5">
      <!-- 1000 -->
      <g transform="translate(249.781311 322.182437)scale(0.1 -0.1)">
       <defs>
        <path d="M 794 531 
L 1825 531 
L 1825 4091 
L 703 3866 
L 703 4441 
L 1819 4666 
L 2450 4666 
L 2450 531 
L 3481 531 
L 3481 0 
L 794 0 
L 794 531 
z
" id="DejaVuSans-31" transform="scale(0.015625)"/>
       </defs>
       <use xlink:href="#DejaVuSans-31"/>
       <use x="63.623047" xlink:href="#DejaVuSans-30"/>
       <use x="127.246094" xlink:href="#DejaVuSans-30"/>
       <use x="190.869141" xlink:href="#DejaVuSans-30"/>
      </g>
     </g>
    </g>
    <g id="xtick_6">
     <g id="line2d_6">
      <g>
       <use style="stroke:#000000;stroke-width:0.8;" x="309.721923" xlink:href="#mb5183aa9aa" y="307.584"/>
      </g>
     </g>
     <g id="text_6">
      <!-- 1250 -->
      <g transform="translate(296.996923 322.182437)scale(0.1 -0.1)">
       <use xlink:href="#DejaVuSans-31"/>
       <use x="63.623047" xlink:href="#DejaVuSans-32"/>
       <use x="127.246094" xlink:href="#DejaVuSans-35"/>
       <use x="190.869141" xlink:href="#DejaVuSans-30"/>
      </g>
     </g>
    </g>
    <g id="xtick_7">
     <g id="line2d_7">
      <g>
       <use style="stroke:#000000;stroke-width:0.8;" x="356.937535" xlink:href="#mb5183aa9aa" y="307.584"/>
      </g>
     </g>
     <g id="text_7">
      <!-- 1500 -->
      <g transform="translate(344.212535 322.182437)scale(0.1 -0.1)">
       <use xlink:href="#DejaVuSans-31"/>
       <use x="63.623047" xlink:href="#DejaVuSans-35"/>
       <use x="127.246094" xlink:href="#DejaVuSans-30"/>
       <use x="190.869141" xlink:href="#DejaVuSans-30"/>
      </g>
     </g>
    </g>
    <g id="xtick_8">
     <g id="line2d_8">
      <g>
       <use style="stroke:#000000;stroke-width:0.8;" x="404.153146" xlink:href="#mb5183aa9aa" y="307.584"/>
      </g>
     </g>
     <g id="text_8">
      <!-- 1750 -->
      <g transform="translate(391.428146 322.182437)scale(0.1 -0.1)">
       <use xlink:href="#DejaVuSans-31"/>
       <use x="63.623047" xlink:href="#DejaVuSans-37"/>
       <use x="127.246094" xlink:href="#DejaVuSans-35"/>
       <use x="190.869141" xlink:href="#DejaVuSans-30"/>
      </g>
     </g>
    </g>
    <g id="text_9">
     <!-- Epoch -->
     <g transform="translate(213.193594 339.659781)scale(0.15 -0.15)">
      <defs>
       <path d="M 628 4666 
L 3578 4666 
L 3578 4134 
L 1259 4134 
L 1259 2753 
L 3481 2753 
L 3481 2222 
L 1259 2222 
L 1259 531 
L 3634 531 
L 3634 0 
L 628 0 
L 628 4666 
z
" id="DejaVuSans-45" transform="scale(0.015625)"/>
       <path d="M 1159 525 
L 1159 -1331 
L 581 -1331 
L 581 3500 
L 1159 3500 
L 1159 2969 
Q 1341 3281 1617 3432 
Q 1894 3584 2278 3584 
Q 2916 3584 3314 3078 
Q 3713 2572 3713 1747 
Q 3713 922 3314 415 
Q 2916 -91 2278 -91 
Q 1894 -91 1617 61 
Q 1341 213 1159 525 
z
M 3116 1747 
Q 3116 2381 2855 2742 
Q 2594 3103 2138 3103 
Q 1681 3103 1420 2742 
Q 1159 2381 1159 1747 
Q 1159 1113 1420 752 
Q 1681 391 2138 391 
Q 2594 391 2855 752 
Q 3116 1113 3116 1747 
z
" id="DejaVuSans-70" transform="scale(0.015625)"/>
       <path d="M 1959 3097 
Q 1497 3097 1228 2736 
Q 959 2375 959 1747 
Q 959 1119 1226 758 
Q 1494 397 1959 397 
Q 2419 397 2687 759 
Q 2956 1122 2956 1747 
Q 2956 2369 2687 2733 
Q 2419 3097 1959 3097 
z
M 1959 3584 
Q 2709 3584 3137 3096 
Q 3566 2609 3566 1747 
Q 3566 888 3137 398 
Q 2709 -91 1959 -91 
Q 1206 -91 779 398 
Q 353 888 353 1747 
Q 353 2609 779 3096 
Q 1206 3584 1959 3584 
z
" id="DejaVuSans-6f" transform="scale(0.015625)"/>
       <path d="M 3122 3366 
L 3122 2828 
Q 2878 2963 2633 3030 
Q 2388 3097 2138 3097 
Q 1578 3097 1268 2742 
Q 959 2388 959 1747 
Q 959 1106 1268 751 
Q 1578 397 2138 397 
Q 2388 397 2633 464 
Q 2878 531 3122 666 
L 3122 134 
Q 2881 22 2623 -34 
Q 2366 -91 2075 -91 
Q 1284 -91 818 406 
Q 353 903 353 1747 
Q 353 2603 823 3093 
Q 1294 3584 2113 3584 
Q 2378 3584 2631 3529 
Q 2884 3475 3122 3366 
z
" id="DejaVuSans-63" transform="scale(0.015625)"/>
       <path d="M 3513 2113 
L 3513 0 
L 2938 0 
L 2938 2094 
Q 2938 2591 2744 2837 
Q 2550 3084 2163 3084 
Q 1697 3084 1428 2787 
Q 1159 2491 1159 1978 
L 1159 0 
L 581 0 
L 581 4863 
L 1159 4863 
L 1159 2956 
Q 1366 3272 1645 3428 
Q 1925 3584 2291 3584 
Q 2894 3584 3203 3211 
Q 3513 2838 3513 2113 
z
" id="DejaVuSans-68" transform="scale(0.015625)"/>
      </defs>
      <use xlink:href="#DejaVuSans-45"/>
      <use x="63.183594" xlink:href="#DejaVuSans-70"/>
      <use x="126.660156" xlink:href="#DejaVuSans-6f"/>
      <use x="187.841797" xlink:href="#DejaVuSans-63"/>
      <use x="242.822266" xlink:href="#DejaVuSans-68"/>
     </g>
    </g>
   </g>
   <g id="matplotlib.axis_2">
    <g id="ytick_1">
     <g id="line2d_9">
      <defs>
       <path d="M 0 0 
L -3.5 0 
" id="m2d7c4c2ce6" style="stroke:#000000;stroke-width:0.8;"/>
      </defs>
      <g>
       <use style="stroke:#000000;stroke-width:0.8;" x="57.6" xlink:href="#m2d7c4c2ce6" y="294.188679"/>
      </g>
     </g>
     <g id="text_10">
      <!-- −0.25 -->
      <g transform="translate(19.954687 297.987898)scale(0.1 -0.1)">
       <defs>
        <path d="M 678 2272 
L 4684 2272 
L 4684 1741 
L 678 1741 
L 678 2272 
z
" id="DejaVuSans-2212" transform="scale(0.015625)"/>
        <path d="M 684 794 
L 1344 794 
L 1344 0 
L 684 0 
L 684 794 
z
" id="DejaVuSans-2e" transform="scale(0.015625)"/>
       </defs>
       <use xlink:href="#DejaVuSans-2212"/>
       <use x="83.789062" xlink:href="#DejaVuSans-30"/>
       <use x="147.412109" xlink:href="#DejaVuSans-2e"/>
       <use x="179.199219" xlink:href="#DejaVuSans-32"/>
       <use x="242.822266" xlink:href="#DejaVuSans-35"/>
      </g>
     </g>
    </g>
    <g id="ytick_2">
     <g id="line2d_10">
      <g>
       <use style="stroke:#000000;stroke-width:0.8;" x="57.6" xlink:href="#m2d7c4c2ce6" y="246.064882"/>
      </g>
     </g>
     <g id="text_11">
      <!-- −0.20 -->
      <g transform="translate(19.954687 249.864101)scale(0.1 -0.1)">
       <use xlink:href="#DejaVuSans-2212"/>
       <use x="83.789062" xlink:href="#DejaVuSans-30"/>
       <use x="147.412109" xlink:href="#DejaVuSans-2e"/>
       <use x="179.199219" xlink:href="#DejaVuSans-32"/>
       <use x="242.822266" xlink:href="#DejaVuSans-30"/>
      </g>
     </g>
    </g>
    <g id="ytick_3">
     <g id="line2d_11">
      <g>
       <use style="stroke:#000000;stroke-width:0.8;" x="57.6" xlink:href="#m2d7c4c2ce6" y="197.941085"/>
      </g>
     </g>
     <g id="text_12">
      <!-- −0.15 -->
      <g transform="translate(19.954687 201.740304)scale(0.1 -0.1)">
       <use xlink:href="#DejaVuSans-2212"/>
       <use x="83.789062" xlink:href="#DejaVuSans-30"/>
       <use x="147.412109" xlink:href="#DejaVuSans-2e"/>
       <use x="179.199219" xlink:href="#DejaVuSans-31"/>
       <use x="242.822266" xlink:href="#DejaVuSans-35"/>
      </g>
     </g>
    </g>
    <g id="ytick_4">
     <g id="line2d_12">
      <g>
       <use style="stroke:#000000;stroke-width:0.8;" x="57.6" xlink:href="#m2d7c4c2ce6" y="149.817289"/>
      </g>
     </g>
     <g id="text_13">
      <!-- −0.10 -->
      <g transform="translate(19.954687 153.616507)scale(0.1 -0.1)">
       <use xlink:href="#DejaVuSans-2212"/>
       <use x="83.789062" xlink:href="#DejaVuSans-30"/>
       <use x="147.412109" xlink:href="#DejaVuSans-2e"/>
       <use x="179.199219" xlink:href="#DejaVuSans-31"/>
       <use x="242.822266" xlink:href="#DejaVuSans-30"/>
      </g>
     </g>
    </g>
    <g id="ytick_5">
     <g id="line2d_13">
      <g>
       <use style="stroke:#000000;stroke-width:0.8;" x="57.6" xlink:href="#m2d7c4c2ce6" y="101.693492"/>
      </g>
     </g>
     <g id="text_14">
      <!-- −0.05 -->
      <g transform="translate(19.954687 105.49271)scale(0.1 -0.1)">
       <use xlink:href="#DejaVuSans-2212"/>
       <use x="83.789062" xlink:href="#DejaVuSans-30"/>
       <use x="147.412109" xlink:href="#DejaVuSans-2e"/>
       <use x="179.199219" xlink:href="#DejaVuSans-30"/>
       <use x="242.822266" xlink:href="#DejaVuSans-35"/>
      </g>
     </g>
    </g>
    <g id="ytick_6">
     <g id="line2d_14">
      <g>
       <use style="stroke:#000000;stroke-width:0.8;" x="57.6" xlink:href="#m2d7c4c2ce6" y="53.569695"/>
      </g>
     </g>
     <g id="text_15">
      <!-- 0.00 -->
      <g transform="translate(28.334375 57.368914)scale(0.1 -0.1)">
       <use xlink:href="#DejaVuSans-30"/>
       <use x="63.623047" xlink:href="#DejaVuSans-2e"/>
       <use x="95.410156" xlink:href="#DejaVuSans-30"/>
       <use x="159.033203" xlink:href="#DejaVuSans-30"/>
      </g>
     </g>
    </g>
   </g>
   <g id="line2d_15">
    <path clip-path="url(#p680db28b8b)" d="M 73.832727 53.568 
L 76.099077 53.692659 
L 76.287939 54.178425 
L 76.665664 58.768268 
L 76.854526 63.039427 
L 77.043389 63.758876 
L 77.232251 63.461838 
L 77.798839 69.054717 
L 77.987701 74.577044 
L 78.176564 75.144845 
L 78.365426 73.543275 
L 78.743151 76.020801 
L 78.932013 77.464233 
L 79.120876 74.55473 
L 79.498601 80.683932 
L 79.687463 80.183979 
L 79.876326 81.669302 
L 80.065188 88.558335 
L 80.442913 94.507641 
L 80.820638 105.06553 
L 81.0095 107.401679 
L 81.198363 104.915615 
L 81.576088 109.59034 
L 81.76495 114.694172 
L 81.953812 116.441905 
L 82.142675 113.972582 
L 82.5204 120.01671 
L 82.709262 119.530849 
L 82.898125 112.71443 
L 83.086987 116.123241 
L 83.464712 124.996943 
L 83.842437 131.669193 
L 84.031299 122.789574 
L 84.220162 129.061899 
L 84.409024 130.288659 
L 84.597887 129.772029 
L 84.786749 128.573047 
L 85.542199 138.201234 
L 85.731061 131.087259 
L 85.919924 130.593425 
L 86.108786 139.830283 
L 86.297649 138.105891 
L 86.486511 132.340252 
L 86.675374 134.91848 
L 86.864236 144.776884 
L 87.241961 138.199087 
L 87.430823 140.916313 
L 87.619686 137.52186 
L 87.808548 142.019641 
L 87.997411 143.135121 
L 88.186273 134.621244 
L 88.375136 145.748915 
L 88.563998 146.610079 
L 88.752861 134.613401 
L 88.941723 144.901619 
L 89.319448 139.764872 
L 89.50831 150.485013 
L 89.697173 140.720119 
L 89.886035 152.280021 
L 90.074898 144.286361 
L 90.26376 149.776917 
L 90.452623 145.929823 
L 90.641485 146.905033 
L 90.830347 143.743296 
L 91.01921 147.21358 
L 91.208072 145.066561 
L 91.396935 153.777498 
L 92.152385 143.712641 
L 92.530109 157.503985 
L 92.718972 148.448419 
L 92.907834 176.686621 
L 93.285559 190.434279 
L 93.663284 191.50514 
L 93.852147 193.17056 
L 94.041009 195.942855 
L 94.229871 207.234073 
L 94.418734 194.835923 
L 94.607596 191.359883 
L 94.796459 200.20449 
L 94.985321 189.028186 
L 95.174184 194.5702 
L 95.363046 190.928445 
L 95.740771 205.659503 
L 95.929634 191.198446 
L 96.118496 187.757086 
L 96.307358 197.603426 
L 96.496221 193.274012 
L 96.685083 199.952641 
L 96.873946 194.92131 
L 97.062808 209.871856 
L 97.251671 195.732805 
L 97.440533 205.2292 
L 97.629396 195.350626 
L 97.818258 203.121102 
L 98.00712 204.303519 
L 98.195983 199.372148 
L 98.384845 203.692563 
L 98.573708 201.492271 
L 98.76257 204.299124 
L 98.951433 202.575719 
L 99.140295 211.939332 
L 99.706882 205.466726 
L 99.895745 211.212471 
L 100.084607 201.278059 
L 100.27347 208.162238 
L 100.462332 205.665194 
L 100.651195 213.302524 
L 101.02892 200.464807 
L 101.217782 219.411415 
L 101.406644 206.721626 
L 101.595507 214.745003 
L 101.784369 212.247607 
L 101.973232 222.245669 
L 102.350957 211.771002 
L 102.539819 215.525082 
L 102.728682 211.697755 
L 103.106406 215.144123 
L 103.295269 205.947087 
L 103.484131 207.49931 
L 103.672994 215.189192 
L 103.861856 213.204618 
L 104.050719 222.19219 
L 104.239581 221.57142 
L 104.428444 226.096507 
L 104.617306 218.170984 
L 104.806168 227.640879 
L 104.995031 221.58146 
L 105.183893 224.445534 
L 105.372756 223.896323 
L 105.561618 224.804884 
L 105.750481 228.03376 
L 105.939343 211.067964 
L 106.128206 220.283832 
L 106.317068 222.39333 
L 106.505931 221.050954 
L 106.883655 220.942869 
L 107.072518 232.708935 
L 107.26138 222.234461 
L 107.450243 234.708526 
L 107.639105 221.795995 
L 107.827968 220.478426 
L 108.01683 215.10854 
L 108.205693 232.989417 
L 108.394555 225.470724 
L 108.583417 224.392855 
L 108.77228 220.086099 
L 108.961142 228.22413 
L 109.150005 226.678668 
L 109.338867 229.15753 
L 109.52773 223.790516 
L 109.716592 225.966776 
L 109.905455 219.691763 
L 110.094317 226.002695 
L 110.283179 222.507722 
L 110.472042 229.427421 
L 110.660904 227.187018 
L 110.849767 223.503689 
L 111.038629 222.686525 
L 111.416354 238.686889 
L 111.605217 234.95988 
L 111.794079 222.343327 
L 111.982941 225.037375 
L 112.360666 238.240657 
L 112.549529 231.927124 
L 112.738391 233.245971 
L 112.927254 227.190873 
L 113.116116 234.777149 
L 113.304979 234.583846 
L 113.682703 222.39458 
L 113.871566 226.312913 
L 114.060428 225.26983 
L 114.249291 235.714208 
L 114.438153 236.939051 
L 114.627016 236.139726 
L 114.815878 233.90613 
L 115.004741 233.296049 
L 115.193603 242.97349 
L 115.382465 231.024728 
L 115.571328 243.163822 
L 115.949053 224.121102 
L 116.137915 228.640446 
L 116.326778 242.749389 
L 116.51564 229.645096 
L 116.704503 236.577867 
L 116.893365 236.038302 
L 117.082228 232.441096 
L 117.459952 244.629151 
L 117.648815 238.052696 
L 117.837677 236.716199 
L 118.02654 232.015372 
L 118.215402 241.114113 
L 118.404265 238.117315 
L 118.593127 239.333502 
L 118.78199 237.281753 
L 118.970852 231.217365 
L 119.159714 231.702913 
L 119.348577 240.005741 
L 119.537439 237.238605 
L 119.726302 237.427112 
L 119.915164 240.412709 
L 120.104027 225.831479 
L 120.481752 238.60817 
L 120.670614 250.736167 
L 120.859476 234.935465 
L 121.048339 240.847678 
L 121.237201 242.442361 
L 121.426064 241.459178 
L 121.614926 236.629487 
L 121.803789 239.7852 
L 121.992651 238.698368 
L 122.181514 238.378045 
L 122.559238 239.651532 
L 122.748101 245.078052 
L 122.936963 242.765386 
L 123.314688 232.800631 
L 123.503551 250.626852 
L 123.881276 239.463495 
L 124.070138 232.757923 
L 124.259 233.986042 
L 124.447863 247.905075 
L 124.636725 239.81372 
L 124.825588 240.934362 
L 125.01445 234.479074 
L 125.203313 240.30743 
L 125.392175 237.03928 
L 125.581038 238.116953 
L 125.958762 245.876298 
L 126.147625 241.304466 
L 126.336487 241.971528 
L 126.52535 243.281497 
L 126.714212 245.974227 
L 126.903075 241.74244 
L 127.2808 246.626155 
L 127.469662 238.994284 
L 127.658525 241.685114 
L 127.847387 249.501395 
L 128.225112 245.387053 
L 128.602837 254.557588 
L 128.791699 248.017583 
L 128.980562 236.619789 
L 129.169424 255.438553 
L 129.736011 239.487344 
L 129.924874 249.885765 
L 130.113736 241.92663 
L 130.302599 239.667126 
L 130.491461 245.144976 
L 130.680324 239.038728 
L 130.869186 249.197286 
L 131.058049 243.935924 
L 131.246911 251.331256 
L 131.435773 242.736336 
L 131.624636 250.728354 
L 131.813498 252.304572 
L 132.002361 249.416084 
L 132.191223 268.344789 
L 132.568948 232.326828 
L 132.946673 252.41385 
L 133.135535 252.519121 
L 133.324398 238.938972 
L 133.51326 239.846853 
L 133.702123 251.538314 
L 133.890985 244.162688 
L 134.26871 253.944753 
L 134.457573 235.537568 
L 134.646435 241.578684 
L 134.835297 253.881164 
L 135.02416 244.436903 
L 135.213022 252.284779 
L 135.401885 243.709456 
L 135.77961 252.131266 
L 135.968472 248.450196 
L 136.157335 255.704553 
L 136.346197 244.849564 
L 136.535059 250.491864 
L 136.723922 242.57707 
L 136.912784 247.702544 
L 137.101647 247.590632 
L 137.290509 253.248642 
L 137.479372 262.638341 
L 137.857097 245.314474 
L 138.045959 256.774932 
L 138.234822 238.992391 
L 138.423684 256.019994 
L 138.801409 243.212367 
L 138.990271 251.123554 
L 139.179134 252.251594 
L 139.367996 248.587069 
L 139.745721 245.542234 
L 139.934584 249.093077 
L 140.123446 258.257755 
L 140.312308 254.714267 
L 140.501171 253.581205 
L 140.690033 258.428812 
L 141.067758 244.582095 
L 141.445483 256.54809 
L 141.634346 247.364579 
L 141.823208 245.360961 
L 142.200933 253.169381 
L 142.389795 251.068515 
L 142.76752 254.380175 
L 142.956383 249.18902 
L 143.145245 252.016113 
L 143.334108 244.07149 
L 143.52297 255.068851 
L 143.711832 250.219553 
L 143.900695 251.049517 
L 144.089557 250.198988 
L 144.27842 247.319761 
L 144.467282 251.502988 
L 144.656145 260.165634 
L 144.845007 255.700926 
L 145.03387 263.142472 
L 145.222732 247.266061 
L 145.411594 258.235617 
L 145.600457 251.989067 
L 145.789319 252.027473 
L 145.978182 248.431688 
L 146.167044 254.432821 
L 146.355907 248.558547 
L 146.544769 254.933327 
L 146.733632 252.012234 
L 146.922494 257.420411 
L 147.111356 257.346027 
L 147.300219 247.485369 
L 147.489081 262.122068 
L 147.677944 243.077371 
L 147.866806 248.24332 
L 148.055669 262.819762 
L 148.244531 252.71563 
L 148.433394 253.732305 
L 148.622256 248.168515 
L 148.999981 258.52916 
L 149.188843 247.596848 
L 149.566568 254.782143 
L 149.755431 263.905255 
L 149.944293 256.276202 
L 150.133156 257.944752 
L 150.322018 266.27736 
L 150.510881 261.139767 
L 150.699743 246.842867 
L 150.888605 252.612239 
L 151.077468 254.256594 
L 151.26633 249.558669 
L 151.455193 255.230896 
L 151.644055 251.236576 
L 152.02178 262.596239 
L 152.210643 253.763549 
L 152.588367 262.834578 
L 152.77723 260.92441 
L 152.966092 253.702684 
L 153.154955 255.407358 
L 153.343817 251.447626 
L 153.53268 274.619098 
L 153.721542 256.366992 
L 153.910405 259.920509 
L 154.099267 256.69337 
L 154.288129 259.569312 
L 154.476992 266.378672 
L 154.665854 246.033728 
L 154.854717 261.294104 
L 155.043579 259.638129 
L 155.232442 264.585907 
L 155.421304 261.11078 
L 155.799029 250.373778 
L 155.987891 266.151979 
L 156.176754 261.322379 
L 156.365616 267.300554 
L 156.554479 261.884035 
L 156.743341 249.356903 
L 156.932204 264.536321 
L 157.121066 262.326305 
L 157.309929 257.696137 
L 157.498791 264.579325 
L 157.687653 253.975012 
L 158.065378 260.170719 
L 158.254241 257.932788 
L 158.443103 252.057943 
L 158.631966 257.0059 
L 158.820828 251.986298 
L 159.009691 258.732018 
L 159.198553 254.615047 
L 159.387416 248.022079 
L 159.576278 266.790297 
L 159.76514 252.492242 
L 159.954003 248.896524 
L 160.142865 261.956525 
L 160.331728 252.131001 
L 160.52059 258.316744 
L 160.709453 259.171734 
L 160.898315 257.576809 
L 161.087178 259.322613 
L 161.27604 257.013849 
L 161.464902 264.34284 
L 161.653765 251.949737 
L 161.842627 259.418259 
L 162.03149 249.780582 
L 162.220352 269.336179 
L 162.409215 258.476496 
L 162.598077 254.599498 
L 162.975802 258.831422 
L 163.164664 259.269855 
L 163.353527 243.802401 
L 163.731252 273.352838 
L 163.920114 250.350412 
L 164.108977 251.030519 
L 164.486702 261.532908 
L 164.675564 265.989928 
L 165.431014 252.482165 
L 165.808739 268.018059 
L 165.997601 264.532749 
L 166.186464 268.759827 
L 166.375326 258.203766 
L 166.564188 265.157278 
L 166.753051 264.154032 
L 166.941913 266.140274 
L 167.130776 256.678159 
L 167.508501 265.755731 
L 167.697363 273.086539 
L 167.886226 260.698534 
L 168.075088 258.975595 
L 168.26395 260.646854 
L 168.452813 258.282217 
L 168.641675 253.899813 
L 168.830538 266.333523 
L 169.0194 267.216699 
L 169.397125 259.485475 
L 169.585988 259.614173 
L 169.77485 266.008542 
L 169.963713 249.861583 
L 170.152575 254.599653 
L 170.341437 254.101274 
L 170.5303 262.715409 
L 170.719162 265.501791 
L 170.908025 251.872581 
L 171.096887 264.372991 
L 171.28575 264.588279 
L 171.474612 253.917722 
L 171.663475 258.437102 
L 171.852337 271.003514 
L 172.041199 258.578434 
L 172.230062 262.696118 
L 172.418924 271.646981 
L 172.607787 256.739493 
L 172.796649 262.153761 
L 172.985512 254.056078 
L 173.174374 261.237731 
L 173.363237 263.394729 
L 173.552099 267.970942 
L 173.740961 264.972706 
L 173.929824 277.523956 
L 174.118686 258.661589 
L 174.307549 270.111681 
L 174.496411 265.07577 
L 174.685274 265.878218 
L 174.874136 265.521249 
L 175.062999 242.357049 
L 175.251861 263.44788 
L 175.629586 254.492805 
L 175.818448 258.555963 
L 176.007311 265.778564 
L 176.385036 255.273548 
L 176.573898 255.519634 
L 176.951623 257.069405 
L 177.140485 272.70157 
L 177.329348 266.538476 
L 177.51821 266.723228 
L 177.707073 270.413968 
L 177.895935 258.027924 
L 178.084798 273.199486 
L 178.462523 257.218356 
L 178.651385 264.768225 
L 178.840248 261.043883 
L 179.02911 254.959714 
L 179.217972 273.168033 
L 179.406835 257.058724 
L 179.595697 268.334056 
L 179.78456 258.030454 
L 179.973422 266.588622 
L 180.162285 264.238047 
L 180.54001 275.293552 
L 180.728872 254.697305 
L 180.917734 270.012501 
L 181.106597 264.285658 
L 181.295459 267.020542 
L 181.484322 266.168911 
L 181.673184 259.55642 
L 181.862047 268.57591 
L 182.050909 258.087082 
L 182.428634 269.306986 
L 182.617496 262.214032 
L 182.806359 265.820966 
L 182.995221 265.688637 
L 183.184084 260.821926 
L 183.372946 268.48876 
L 183.561809 261.021903 
L 183.750671 261.099584 
L 183.939534 261.921662 
L 184.128396 266.81892 
L 184.317258 275.983901 
L 184.694983 250.913234 
L 184.883846 277.930471 
L 185.072708 257.435755 
L 185.261571 273.198578 
L 185.450433 263.724091 
L 185.639296 271.625715 
L 185.828158 260.901335 
L 186.01702 260.946239 
L 186.205883 265.817743 
L 186.394745 264.196844 
L 186.583608 260.321543 
L 186.77247 262.650964 
L 186.961333 259.934886 
L 187.150195 260.210453 
L 187.339058 262.391784 
L 187.52792 268.629559 
L 187.716782 262.183694 
L 187.905645 261.075087 
L 188.094507 266.690079 
L 188.28337 278.096441 
L 188.472232 264.631943 
L 188.661095 264.12791 
L 188.849957 258.715821 
L 189.03882 258.433791 
L 189.227682 259.799929 
L 189.416545 268.195049 
L 189.605407 269.209741 
L 189.794269 264.687173 
L 189.983132 268.362738 
L 190.171994 265.873751 
L 190.360857 255.867568 
L 190.549719 253.166679 
L 190.738582 271.917188 
L 191.116307 269.021922 
L 191.305169 256.213435 
L 191.494031 264.005841 
L 191.682894 261.846373 
L 191.871756 262.476197 
L 192.060619 265.10451 
L 192.249481 271.712551 
L 192.438344 262.83334 
L 192.627206 278.00605 
L 192.816069 266.653269 
L 193.004931 262.759541 
L 193.193793 265.37773 
L 193.382656 262.331342 
L 193.571518 268.941759 
L 193.760381 256.468925 
L 194.138106 261.130787 
L 194.326968 259.093322 
L 194.515831 263.288335 
L 194.704693 263.036505 
L 195.082418 273.475712 
L 195.27128 261.234937 
L 195.460143 274.542345 
L 195.837868 275.474741 
L 196.02673 271.724502 
L 196.404455 254.255027 
L 196.593317 266.010655 
L 196.78218 264.311659 
L 196.971042 272.710933 
L 197.159905 262.932441 
L 197.53763 271.652002 
L 197.726492 275.343942 
L 197.915355 260.120703 
L 198.104217 269.503155 
L 198.293079 267.437569 
L 198.481942 262.890717 
L 198.670804 265.058207 
L 198.859667 261.276456 
L 199.048529 264.142977 
L 199.237392 261.676842 
L 199.426254 271.637882 
L 199.803979 263.510887 
L 199.992842 264.823469 
L 200.181704 271.302223 
L 200.370566 269.745561 
L 200.559429 259.995758 
L 200.748291 259.455749 
L 200.937154 251.231858 
L 201.126016 271.919906 
L 201.314879 258.769557 
L 201.503741 267.011388 
L 201.692604 259.842262 
L 201.881466 270.35339 
L 202.259191 264.118156 
L 202.448053 260.870754 
L 202.825778 265.837854 
L 203.014641 263.930261 
L 203.203503 265.485111 
L 203.392366 263.318833 
L 203.581228 262.907844 
L 203.77009 265.15836 
L 203.958953 273.489178 
L 204.147815 270.554846 
L 204.336678 273.772121 
L 204.52554 267.338835 
L 204.714403 272.23244 
L 204.903265 265.626703 
L 205.092128 266.50845 
L 205.28099 264.991984 
L 205.469852 255.871916 
L 205.847577 274.26962 
L 206.03644 263.153315 
L 206.225302 272.205458 
L 206.603027 268.110858 
L 206.79189 269.279562 
L 206.980752 260.142762 
L 207.169614 257.181761 
L 207.547339 277.494715 
L 207.736202 260.049574 
L 208.302789 273.440034 
L 208.491652 264.80454 
L 208.680514 267.442041 
L 208.869376 265.059633 
L 209.058239 268.746982 
L 209.247101 262.978023 
L 209.435964 270.318381 
L 209.624826 270.62004 
L 209.813689 267.340915 
L 210.002551 267.669511 
L 210.191414 272.891664 
L 210.380276 263.008651 
L 210.569139 262.714483 
L 210.758001 276.079133 
L 210.946863 274.834286 
L 211.135726 270.56147 
L 211.324588 274.157333 
L 211.702313 261.160139 
L 211.891176 267.838055 
L 212.080038 269.826487 
L 212.268901 273.30348 
L 212.457763 271.12387 
L 212.646625 264.559219 
L 212.835488 270.48894 
L 213.02435 264.83844 
L 213.213213 273.797029 
L 213.402075 267.942183 
L 213.590938 270.202608 
L 213.7798 274.708587 
L 213.968663 269.707523 
L 214.157525 267.728159 
L 214.346387 279.354831 
L 214.53525 265.185773 
L 214.724112 276.785557 
L 214.912975 266.106188 
L 215.101837 264.6633 
L 215.2907 276.083681 
L 215.479562 264.811652 
L 215.668425 273.515893 
L 215.857287 262.908797 
L 216.235012 272.718033 
L 216.423874 267.92305 
L 216.612737 271.99942 
L 216.990462 261.010342 
L 217.179324 265.289513 
L 217.368187 277.214207 
L 217.557049 273.903346 
L 217.745911 268.448608 
L 217.934774 268.968808 
L 218.123636 265.631998 
L 218.312499 272.420867 
L 218.501361 263.564614 
L 218.690224 272.640009 
L 218.879086 255.838762 
L 219.067949 272.667126 
L 219.256811 269.000531 
L 219.445673 272.06817 
L 219.634536 284.283066 
L 219.823398 257.989856 
L 220.012261 272.462593 
L 220.201123 265.3506 
L 220.389986 263.830589 
L 220.767711 272.775263 
L 220.956573 274.093825 
L 221.145436 264.792713 
L 221.334298 268.614038 
L 221.52316 258.709776 
L 221.900885 278.856762 
L 222.27861 261.512615 
L 222.467473 269.659489 
L 222.656335 269.310487 
L 222.845198 270.001692 
L 223.03406 269.464241 
L 223.222922 257.617175 
L 223.600647 278.665301 
L 223.78951 271.897683 
L 223.978372 271.907319 
L 224.167235 273.540035 
L 224.356097 268.669339 
L 224.54496 277.816048 
L 224.733822 270.813254 
L 224.922684 269.057819 
L 225.111547 269.377592 
L 225.300409 263.940496 
L 225.489272 263.453071 
L 225.678134 271.281866 
L 225.866997 267.54778 
L 226.055859 275.333075 
L 226.433584 263.560491 
L 226.622446 274.232341 
L 226.811309 268.616156 
L 227.000171 280.929213 
L 227.377896 264.635623 
L 227.566759 265.432486 
L 227.755621 276.035977 
L 227.944484 270.437211 
L 228.133346 272.480347 
L 228.322208 264.513342 
L 228.511071 271.219416 
L 228.699933 255.281127 
L 228.888796 265.141205 
L 229.077658 264.978189 
L 229.266521 274.15823 
L 229.455383 271.438629 
L 229.644246 258.728842 
L 229.833108 276.206992 
L 230.02197 267.306864 
L 230.588558 276.696724 
L 230.77742 260.185228 
L 230.966283 275.415187 
L 231.155145 267.214011 
L 231.344008 271.513873 
L 231.53287 270.58383 
L 231.721733 263.013865 
L 231.910595 268.36692 
L 232.099457 260.383615 
L 232.28832 273.845926 
L 232.477182 255.248986 
L 232.666045 266.163608 
L 232.854907 259.666045 
L 233.04377 277.454996 
L 233.232632 273.794056 
L 233.421495 272.929406 
L 233.610357 264.832937 
L 233.799219 265.164729 
L 233.988082 274.939924 
L 234.176944 266.165878 
L 234.365807 273.009883 
L 234.554669 270.482953 
L 234.743532 282.225464 
L 234.932394 276.826631 
L 235.121257 280.883613 
L 235.310119 272.320533 
L 235.498981 269.169225 
L 235.687844 278.961026 
L 235.876706 267.11983 
L 236.065569 273.692229 
L 236.254431 272.457 
L 236.443294 269.913952 
L 236.632156 271.042842 
L 236.821019 271.224929 
L 237.009881 265.298839 
L 237.198743 272.221258 
L 237.387606 270.65574 
L 237.576468 276.281818 
L 237.765331 274.578128 
L 238.143056 263.299151 
L 238.331918 285.915193 
L 238.709643 264.96291 
L 239.465093 274.327758 
L 239.653955 269.901019 
L 239.842818 268.441405 
L 240.03168 277.953828 
L 240.220543 274.40381 
L 240.598267 277.251274 
L 240.78713 259.778082 
L 240.975992 274.83619 
L 241.164855 274.190352 
L 241.353717 271.270075 
L 241.54258 264.5306 
L 241.731442 276.399973 
L 241.920305 269.233276 
L 242.109167 266.947865 
L 242.29803 273.812066 
L 242.486892 274.629851 
L 242.675754 268.739812 
L 242.864617 270.628076 
L 243.053479 281.891894 
L 243.242342 275.27433 
L 243.431204 276.150423 
L 243.620067 271.329741 
L 243.808929 286.655449 
L 243.997792 268.106511 
L 244.375516 277.751318 
L 244.564379 280.429959 
L 244.753241 267.493833 
L 244.942104 280.965841 
L 245.130966 269.892943 
L 245.319829 269.481606 
L 245.508691 263.286033 
L 245.697554 272.023092 
L 245.886416 270.413065 
L 246.075278 276.934511 
L 246.264141 277.40268 
L 246.453003 273.662664 
L 246.641866 267.418541 
L 246.830728 273.39154 
L 247.208453 261.898344 
L 247.397316 272.744801 
L 247.586178 276.665603 
L 247.77504 267.294808 
L 247.963903 263.902929 
L 248.152765 276.366814 
L 248.341628 279.143977 
L 248.719353 269.258893 
L 248.908215 286.759925 
L 249.28594 276.837297 
L 249.474802 273.0895 
L 249.663665 276.329278 
L 249.852527 270.407339 
L 250.04139 270.692019 
L 250.230252 277.005198 
L 250.419115 275.024547 
L 250.607977 268.703214 
L 250.79684 266.168184 
L 250.985702 274.784508 
L 251.174564 271.629086 
L 251.363427 261.692831 
L 251.552289 259.462153 
L 251.930014 271.824737 
L 252.118877 267.792774 
L 252.307739 273.818749 
L 252.496602 269.658987 
L 252.685464 280.663314 
L 252.874327 281.91294 
L 253.063189 272.140023 
L 253.252051 269.12307 
L 253.440914 275.131619 
L 253.629776 265.700191 
L 254.007501 273.274864 
L 254.196364 267.698816 
L 254.385226 271.213617 
L 254.574089 277.798504 
L 254.762951 266.806513 
L 254.951813 278.755783 
L 255.329538 270.210594 
L 255.518401 275.554507 
L 255.707263 266.767312 
L 255.896126 267.814983 
L 256.084988 267.617388 
L 256.273851 270.005143 
L 256.651575 280.4676 
L 256.840438 276.658853 
L 257.0293 268.281456 
L 257.218163 278.900592 
L 257.407025 278.112786 
L 257.595888 269.018523 
L 257.78475 276.859184 
L 257.973613 278.438244 
L 258.162475 273.738521 
L 258.351337 263.952534 
L 258.729062 278.988288 
L 258.917925 276.679121 
L 259.106787 265.646338 
L 259.29565 278.25147 
L 259.484512 262.200104 
L 259.673375 266.959589 
L 259.862237 263.186719 
L 260.428824 278.322721 
L 260.617687 268.195875 
L 260.995412 283.934729 
L 261.184274 283.229177 
L 261.373137 270.525694 
L 261.750861 284.919082 
L 261.939724 269.128804 
L 262.128586 271.186928 
L 262.317449 259.801619 
L 262.506311 265.270853 
L 262.695174 265.398862 
L 262.884036 277.229757 
L 263.072899 278.262786 
L 263.261761 276.477058 
L 263.450624 276.088939 
L 263.639486 285.002293 
L 263.828348 274.104421 
L 264.017211 278.071395 
L 264.206073 266.833845 
L 264.394936 280.700873 
L 264.583798 270.73253 
L 264.772661 275.417281 
L 264.961523 287.107666 
L 265.339248 269.556597 
L 265.52811 268.678939 
L 265.716973 274.55029 
L 265.905835 275.410091 
L 266.094698 278.180317 
L 266.472423 272.975323 
L 266.661285 265.616897 
L 266.850148 275.448301 
L 267.03901 276.970295 
L 267.416735 270.91821 
L 267.605597 269.63025 
L 267.79446 274.990416 
L 267.983322 265.131772 
L 268.172185 281.874379 
L 268.361047 276.167642 
L 268.738772 279.175956 
L 269.116497 273.823941 
L 269.305359 282.427084 
L 269.683084 272.754412 
L 269.871947 285.603113 
L 270.060809 263.200261 
L 270.249672 267.018277 
L 270.438534 285.970956 
L 271.005121 267.187684 
L 271.382846 277.118039 
L 271.760571 267.187747 
L 271.949434 271.70629 
L 272.138296 279.56506 
L 272.327158 268.033181 
L 272.516021 268.06325 
L 272.704883 270.971321 
L 272.893746 280.240274 
L 273.082608 278.766661 
L 273.271471 280.563202 
L 273.460333 286.132339 
L 273.649196 275.613022 
L 273.838058 284.613812 
L 274.026921 278.603965 
L 274.215783 279.130281 
L 274.404645 262.928854 
L 274.593508 281.97941 
L 274.971233 276.551047 
L 275.160095 266.11453 
L 275.348958 272.762456 
L 275.53782 269.569058 
L 275.726683 284.306015 
L 275.915545 282.44496 
L 276.104407 281.862578 
L 276.29327 275.888946 
L 276.670995 279.529175 
L 276.859857 266.766672 
L 277.04872 276.834985 
L 277.237582 274.041925 
L 277.426445 273.781743 
L 277.615307 273.275578 
L 277.804169 281.015668 
L 277.993032 273.962305 
L 278.181894 273.06898 
L 278.370757 275.960143 
L 278.559619 282.890881 
L 278.748482 265.575052 
L 278.937344 273.560901 
L 279.126207 275.117818 
L 279.315069 277.718584 
L 279.503931 275.109316 
L 279.692794 268.170478 
L 279.881656 284.294951 
L 280.259381 269.28254 
L 280.448244 277.004357 
L 280.637106 278.475594 
L 280.825969 267.360613 
L 281.014831 267.374072 
L 281.203693 270.988935 
L 281.392556 267.779895 
L 281.581418 271.860064 
L 281.770281 269.46489 
L 281.959143 282.260058 
L 282.525731 268.483084 
L 282.714593 273.565475 
L 282.903455 272.761968 
L 283.092318 278.866001 
L 283.28118 270.227724 
L 283.470043 279.994576 
L 283.658905 275.836466 
L 283.847768 282.048843 
L 284.225493 276.10521 
L 284.414355 278.668671 
L 284.603218 276.44953 
L 284.79208 267.143572 
L 285.358667 279.807968 
L 285.54753 277.508377 
L 285.736392 283.047446 
L 285.925255 271.863892 
L 286.30298 265.694509 
L 286.491842 288.950407 
L 286.869567 272.38991 
L 287.058429 272.53976 
L 287.436154 266.127295 
L 287.813879 280.638308 
L 288.002742 275.48907 
L 288.191604 281.070049 
L 288.380466 269.373322 
L 288.569329 276.002326 
L 288.758191 272.116887 
L 288.947054 275.594363 
L 289.135916 276.58262 
L 289.324779 276.618684 
L 289.513641 273.719155 
L 289.702504 282.453713 
L 289.891366 277.323086 
L 290.080228 280.126356 
L 290.269091 273.546237 
L 290.457953 275.278354 
L 290.646816 274.132172 
L 290.835678 282.656898 
L 291.213403 278.417304 
L 291.402266 281.002844 
L 291.591128 279.419424 
L 291.77999 264.553916 
L 291.968853 276.124995 
L 292.157715 271.032049 
L 292.346578 278.414674 
L 292.53544 280.884017 
L 292.724303 271.306054 
L 292.913165 281.883461 
L 293.102028 286.086895 
L 293.29089 275.964905 
L 293.479752 275.168987 
L 293.668615 265.944006 
L 294.04634 284.553088 
L 294.235202 272.227411 
L 294.424065 284.556794 
L 294.612927 274.200728 
L 294.80179 281.783835 
L 294.990652 283.234642 
L 295.179515 269.155982 
L 295.368377 276.53571 
L 295.557239 272.40946 
L 295.746102 281.146954 
L 295.934964 269.859099 
L 296.123827 282.183057 
L 296.312689 278.771372 
L 296.501552 279.972507 
L 296.690414 279.558336 
L 296.879277 280.523136 
L 297.068139 273.77711 
L 297.257001 279.592434 
L 297.445864 264.652027 
L 297.634726 272.355294 
L 297.823589 261.876586 
L 298.012451 284.15494 
L 298.201314 289.103549 
L 298.390176 273.869817 
L 298.579039 276.702045 
L 298.767901 271.134418 
L 298.956763 286.5366 
L 299.145626 286.096718 
L 299.334488 277.590623 
L 299.523351 282.690987 
L 299.712213 272.548028 
L 299.901076 285.206032 
L 300.089938 271.801109 
L 300.278801 283.221711 
L 300.656525 275.335699 
L 300.845388 276.609958 
L 301.03425 275.301166 
L 301.223113 286.238851 
L 301.411975 283.335263 
L 301.600838 276.198784 
L 301.7897 284.123589 
L 301.978563 271.111261 
L 302.356287 276.329743 
L 302.54515 266.018677 
L 302.922875 282.024103 
L 303.111737 277.96796 
L 303.3006 278.480403 
L 303.489462 275.930922 
L 303.678325 282.23297 
L 303.867187 272.413343 
L 304.05605 280.58186 
L 304.244912 281.196692 
L 304.433774 277.37856 
L 304.622637 285.699617 
L 304.811499 279.803291 
L 305.000362 283.254974 
L 305.189224 274.548144 
L 305.378087 284.568635 
L 305.566949 278.188935 
L 305.755812 279.071287 
L 305.944674 292.896474 
L 306.133536 283.965652 
L 306.322399 281.941053 
L 306.700124 285.207276 
L 306.888986 269.996085 
L 307.266711 280.209582 
L 307.455574 270.541587 
L 307.644436 279.705182 
L 307.833298 278.22739 
L 308.022161 275.858798 
L 308.211023 277.684842 
L 308.399886 285.55152 
L 308.588748 278.386326 
L 308.777611 280.628756 
L 308.966473 278.4417 
L 309.155336 273.26733 
L 309.344198 271.503696 
L 309.53306 283.859044 
L 309.721923 273.050865 
L 309.910785 274.225718 
L 310.099648 278.82717 
L 310.28851 272.019998 
L 310.666235 281.29231 
L 310.855098 274.907216 
L 311.04396 274.119384 
L 311.232822 283.980899 
L 311.421685 266.478061 
L 311.610547 280.572335 
L 311.988272 276.058192 
L 312.177135 278.433241 
L 312.365997 267.683075 
L 312.55486 284.376426 
L 312.743722 268.829417 
L 312.932584 278.795452 
L 313.121447 273.626917 
L 313.310309 280.579965 
L 313.499172 283.34633 
L 313.688034 278.137463 
L 313.876897 277.70981 
L 314.065759 283.052635 
L 314.254622 273.365834 
L 314.632347 275.154123 
L 314.821209 263.01681 
L 315.010071 276.878788 
L 315.198934 269.534537 
L 315.576659 278.207704 
L 315.765521 277.655876 
L 315.954384 270.081471 
L 316.143246 275.286482 
L 316.332109 270.616058 
L 316.520971 287.412944 
L 316.709833 277.106578 
L 316.898696 276.095926 
L 317.087558 286.38563 
L 317.465283 281.35507 
L 317.654146 282.868575 
L 317.843008 270.911371 
L 318.031871 276.114328 
L 318.220733 277.175472 
L 318.409595 265.18409 
L 318.598458 271.924796 
L 318.78732 271.034157 
L 318.976183 265.689566 
L 319.165045 280.719084 
L 319.353908 268.986997 
L 319.54277 279.250217 
L 319.731633 272.589482 
L 319.920495 271.42409 
L 320.109357 284.692834 
L 320.29822 269.910161 
L 320.487082 277.480061 
L 320.675945 274.686122 
L 320.864807 275.419539 
L 321.05367 281.78871 
L 321.242532 279.354315 
L 321.431395 275.366037 
L 321.620257 288.985223 
L 321.809119 267.372 
L 321.997982 276.149814 
L 322.375707 271.304531 
L 322.564569 273.732615 
L 322.942294 280.33051 
L 323.131157 277.127499 
L 323.320019 286.216811 
L 323.508881 277.287515 
L 323.697744 286.902206 
L 323.886606 271.088643 
L 324.075469 279.066243 
L 324.264331 270.188496 
L 324.453194 272.598299 
L 324.642056 271.381849 
L 324.830919 266.250458 
L 325.397506 288.183967 
L 325.586368 272.010843 
L 325.964093 264.771108 
L 326.152956 283.184782 
L 326.341818 276.796776 
L 326.530681 278.914576 
L 326.719543 283.26797 
L 326.908406 282.061744 
L 327.097268 272.64704 
L 327.474993 280.657511 
L 327.663855 271.267443 
L 327.852718 277.831854 
L 328.04158 270.22002 
L 328.419305 287.169891 
L 328.79703 283.802225 
L 328.985892 278.109195 
L 329.174755 276.270233 
L 329.363617 257.896165 
L 329.741342 283.443986 
L 329.930205 274.376384 
L 330.119067 281.034786 
L 330.30793 268.410951 
L 330.496792 272.174899 
L 330.685654 270.566539 
L 330.874517 295.488 
L 331.063379 280.972006 
L 331.252242 285.548828 
L 331.441104 280.237657 
L 331.629967 271.693461 
L 331.818829 280.902496 
L 332.007692 275.342707 
L 332.196554 264.663646 
L 332.385416 277.901237 
L 332.574279 273.126745 
L 332.952004 282.837308 
L 333.329729 286.813803 
L 333.518591 278.493162 
L 333.707454 275.636016 
L 333.896316 282.964069 
L 334.085178 284.38689 
L 334.274041 270.686208 
L 334.651766 288.36358 
L 334.840628 273.517344 
L 335.029491 272.59587 
L 335.407216 285.403711 
L 335.596078 272.698256 
L 335.784941 280.208995 
L 335.973803 277.376645 
L 336.162665 277.28859 
L 336.351528 276.832018 
L 336.54039 276.027374 
L 336.729253 277.466512 
L 336.918115 283.759782 
L 337.106978 284.692118 
L 337.484703 272.35395 
L 337.673565 276.052958 
L 337.862427 269.966397 
L 338.05129 279.733775 
L 338.240152 280.316632 
L 338.429015 282.197186 
L 338.80674 270.439804 
L 338.995602 276.245023 
L 339.184465 287.132116 
L 339.373327 282.975873 
L 339.562189 275.886681 
L 339.751052 278.612043 
L 339.939914 275.0828 
L 340.128777 280.437192 
L 340.506502 274.982105 
L 340.695364 278.304704 
L 340.884227 286.279046 
L 341.073089 272.727666 
L 341.261951 275.147665 
L 341.450814 270.080483 
L 341.639676 286.195638 
L 341.828539 279.516047 
L 342.017401 285.25935 
L 342.206264 271.071814 
L 342.395126 276.894559 
L 342.583989 268.484268 
L 342.772851 274.171888 
L 342.961713 285.85042 
L 343.339438 275.569258 
L 343.528301 278.347335 
L 343.717163 275.891835 
L 343.906026 279.140253 
L 344.094888 277.480109 
L 344.283751 273.402192 
L 344.661475 285.009639 
L 344.850338 278.54226 
L 345.0392 283.80467 
L 345.228063 279.381903 
L 345.605788 285.633122 
L 345.79465 279.835039 
L 345.983513 283.682621 
L 346.172375 273.394021 
L 346.361238 275.766733 
L 346.5501 265.064514 
L 346.927825 279.701747 
L 347.116687 269.680912 
L 347.30555 279.422247 
L 347.494412 283.098702 
L 347.683275 284.027849 
L 347.872137 288.204909 
L 348.061 289.897618 
L 348.438724 280.941317 
L 348.627587 282.436063 
L 348.816449 271.159134 
L 349.194174 282.047701 
L 349.383037 269.468787 
L 349.571899 274.998061 
L 349.760762 284.347561 
L 349.949624 276.223943 
L 350.138486 276.849846 
L 350.327349 286.593569 
L 350.516211 272.756834 
L 350.705074 282.397369 
L 350.893936 279.337959 
L 351.082799 271.725842 
L 351.460524 279.511962 
L 351.649386 282.119157 
L 351.838248 289.74477 
L 352.027111 272.94194 
L 352.215973 275.183117 
L 352.404836 273.515636 
L 352.782561 283.02782 
L 352.971423 282.400575 
L 353.349148 269.122674 
L 353.53801 273.853953 
L 353.726873 285.558965 
L 353.915735 268.140468 
L 354.104598 269.557517 
L 354.29346 276.28882 
L 354.482323 278.318769 
L 354.671185 276.890935 
L 354.860048 278.067497 
L 355.04891 287.301722 
L 355.426635 282.35045 
L 355.615497 283.592902 
L 355.80436 279.967905 
L 355.993222 283.995837 
L 356.182085 285.091575 
L 356.370947 271.436669 
L 356.748672 282.890138 
L 356.937535 286.5915 
L 357.126397 275.497143 
L 357.315259 281.233005 
L 357.504122 279.179674 
L 357.692984 290.326608 
L 357.881847 286.425502 
L 358.070709 272.739588 
L 358.259572 275.815124 
L 358.448434 280.886166 
L 358.637297 279.946518 
L 358.826159 282.588048 
L 359.015021 275.945628 
L 359.581609 280.451303 
L 359.770471 287.214626 
L 360.148196 269.868047 
L 360.337059 284.972327 
L 360.525921 279.366875 
L 360.714783 281.934135 
L 360.903646 274.968834 
L 361.092508 279.021737 
L 361.281371 280.672959 
L 361.470233 280.24059 
L 361.659096 284.07219 
L 361.847958 269.367033 
L 362.036821 266.986565 
L 362.225683 278.869991 
L 362.414545 280.83436 
L 362.603408 289.822229 
L 362.79227 276.225236 
L 362.981133 282.803426 
L 363.169995 267.288819 
L 363.358858 272.117899 
L 363.54772 267.538353 
L 363.736583 268.9818 
L 363.925445 284.252836 
L 364.114307 278.087605 
L 364.680895 281.608936 
L 364.869757 286.676884 
L 365.05862 278.328256 
L 365.247482 276.560083 
L 365.436345 267.625704 
L 365.625207 283.473962 
L 365.814069 275.87662 
L 366.002932 277.36321 
L 366.380657 288.775294 
L 366.758382 277.125051 
L 366.947244 279.522774 
L 367.136107 272.543907 
L 367.324969 281.858085 
L 367.513832 283.514097 
L 367.702694 279.03355 
L 367.891556 282.293405 
L 368.080419 291.917322 
L 368.269281 276.469908 
L 368.458144 282.892032 
L 368.647006 271.181438 
L 369.024731 282.716809 
L 369.213594 281.725621 
L 369.402456 275.003798 
L 369.591318 278.446796 
L 369.780181 291.422376 
L 369.969043 280.17308 
L 370.157906 282.779934 
L 370.346768 287.845408 
L 370.535631 274.143991 
L 370.724493 270.348869 
L 370.913356 285.434258 
L 371.102218 291.005119 
L 371.29108 275.523999 
L 371.668805 289.85693 
L 372.04653 274.512898 
L 372.235393 281.75508 
L 372.424255 277.726779 
L 372.613118 284.002181 
L 372.80198 283.887847 
L 372.990842 277.412219 
L 373.179705 279.509423 
L 373.55743 280.461186 
L 373.746292 275.852353 
L 373.935155 277.30568 
L 374.124017 282.377846 
L 374.31288 282.485048 
L 374.501742 290.821402 
L 374.690604 276.847006 
L 374.879467 273.668443 
L 375.068329 285.463092 
L 375.257192 280.637594 
L 375.446054 283.349105 
L 375.634917 269.024166 
L 375.823779 266.183157 
L 376.012642 275.724288 
L 376.201504 277.659026 
L 376.390366 283.904128 
L 376.579229 286.28021 
L 376.768091 281.898915 
L 376.956954 283.59112 
L 377.145816 278.069016 
L 377.334679 280.555588 
L 377.523541 285.960772 
L 377.712404 275.749898 
L 377.901266 286.921145 
L 378.090129 272.828708 
L 378.278991 279.128149 
L 378.467853 278.669096 
L 378.656716 278.513607 
L 378.845578 275.310999 
L 379.034441 283.763954 
L 379.223303 282.04204 
L 379.412166 277.657044 
L 379.601028 282.651757 
L 379.789891 280.091332 
L 379.978753 287.187226 
L 380.167615 282.400149 
L 380.54534 284.119151 
L 380.734203 270.01272 
L 380.923065 277.792904 
L 381.111928 273.204709 
L 381.489653 281.172454 
L 381.678515 281.812654 
L 381.867377 285.512982 
L 382.05624 278.64896 
L 382.245102 280.116656 
L 382.433965 278.04956 
L 382.622827 269.209054 
L 382.81169 280.3316 
L 383.000552 279.580488 
L 383.189415 281.570501 
L 383.378277 264.06039 
L 383.567139 281.485744 
L 383.756002 281.684788 
L 383.944864 278.86268 
L 384.133727 284.642626 
L 384.322589 277.026563 
L 384.511452 286.631078 
L 384.700314 281.1618 
L 384.889177 266.266523 
L 385.266901 286.672457 
L 385.455764 290.016251 
L 385.644626 273.417519 
L 386.022351 286.182397 
L 386.211214 285.674299 
L 386.400076 275.23718 
L 386.588939 287.776523 
L 386.777801 278.445604 
L 386.966663 282.078641 
L 387.155526 277.710123 
L 387.533251 281.427679 
L 387.910976 271.75989 
L 388.099838 285.070325 
L 388.288701 273.582932 
L 388.666426 288.623457 
L 388.855288 280.275343 
L 389.04415 276.895396 
L 389.233013 294.665654 
L 389.421875 270.512267 
L 389.610738 281.152233 
L 389.7996 284.014003 
L 389.988463 274.671622 
L 390.177325 278.41024 
L 390.366188 287.963661 
L 390.743912 275.313574 
L 390.932775 281.84553 
L 391.3105 271.652476 
L 391.688225 274.960904 
L 391.877087 280.3853 
L 392.06595 294.749508 
L 392.254812 283.553528 
L 392.443674 290.82102 
L 392.821399 272.769822 
L 393.010262 279.048176 
L 393.199124 275.739224 
L 393.387987 277.642032 
L 393.576849 281.35644 
L 393.765712 294.113168 
L 393.954574 290.036481 
L 394.143436 274.490905 
L 394.332299 281.511735 
L 394.521161 280.437092 
L 394.710024 280.454395 
L 394.898886 278.819827 
L 395.087749 274.233961 
L 395.276611 286.323275 
L 395.465474 268.454545 
L 395.654336 277.164937 
L 395.843198 275.848584 
L 396.220923 283.51853 
L 396.409786 278.083946 
L 396.598648 280.917956 
L 396.787511 287.926791 
L 396.976373 276.90469 
L 397.165236 284.170038 
L 397.354098 284.437586 
L 397.54296 283.527768 
L 397.731823 278.964141 
L 397.920685 286.686002 
L 398.109548 278.385293 
L 398.29841 275.785999 
L 398.487273 279.526234 
L 398.487273 279.526234 
" style="fill:none;stroke:#1f77b4;stroke-linecap:square;stroke-width:1.5;"/>
   </g>
   <g id="line2d_16">
    <path clip-path="url(#p680db28b8b)" d="M 73.832727 53.569824 
L 75.910214 53.61086 
L 76.099077 53.806866 
L 76.287939 54.706206 
L 76.665664 60.207853 
L 76.854526 64.641242 
L 77.043389 60.843016 
L 77.609976 68.100418 
L 78.176564 72.412114 
L 78.365426 75.192568 
L 78.554288 75.15889 
L 78.743151 78.814312 
L 78.932013 76.092672 
L 79.120876 80.448849 
L 79.309738 79.621487 
L 79.498601 87.715754 
L 79.687463 84.43132 
L 79.876326 84.465405 
L 80.065188 95.885299 
L 80.25405 91.806561 
L 80.631775 98.401836 
L 80.820638 95.816587 
L 81.0095 112.940823 
L 81.198363 106.100778 
L 81.387225 106.50428 
L 81.576088 108.38187 
L 81.76495 117.84386 
L 81.953812 104.891043 
L 82.142675 119.501146 
L 82.331537 117.62642 
L 82.5204 126.088344 
L 82.898125 116.438487 
L 83.086987 118.193726 
L 83.464712 126.312836 
L 83.653574 123.805504 
L 83.842437 129.623937 
L 84.031299 114.108801 
L 84.597887 138.954893 
L 84.786749 133.50028 
L 84.975612 136.72768 
L 85.164474 132.082055 
L 85.353337 137.614833 
L 85.542199 128.993249 
L 85.731061 135.599341 
L 85.919924 129.868545 
L 86.108786 130.706388 
L 86.297649 147.920804 
L 86.486511 133.164744 
L 86.864236 141.23525 
L 87.053099 134.148444 
L 87.241961 143.865867 
L 87.430823 142.727337 
L 87.619686 142.568102 
L 87.808548 143.043008 
L 87.997411 142.545795 
L 88.186273 138.865818 
L 88.375136 140.374377 
L 88.563998 142.843222 
L 88.752861 139.069128 
L 88.941723 149.195872 
L 89.130585 147.580467 
L 89.319448 149.669254 
L 89.50831 149.376141 
L 89.697173 154.195251 
L 89.886035 145.012754 
L 90.074898 148.251303 
L 90.26376 148.930354 
L 90.452623 141.611427 
L 90.641485 145.288635 
L 91.01921 158.100526 
L 91.208072 146.705516 
L 91.77466 153.322878 
L 91.963522 149.174865 
L 92.152385 154.421988 
L 92.341247 150.547223 
L 92.530109 149.261766 
L 92.718972 149.63786 
L 92.907834 181.934589 
L 93.096697 188.173639 
L 93.285559 184.566708 
L 93.474422 188.656186 
L 93.663284 183.77138 
L 93.852147 183.699502 
L 94.041009 186.220841 
L 94.229871 202.274537 
L 94.418734 196.684438 
L 94.607596 197.614424 
L 94.796459 194.293368 
L 94.985321 193.969829 
L 95.174184 193.386272 
L 95.363046 189.500746 
L 95.740771 201.505761 
L 95.929634 200.951969 
L 96.118496 198.699062 
L 96.307358 198.963091 
L 96.496221 196.734041 
L 96.685083 201.345819 
L 96.873946 202.831063 
L 97.062808 210.344439 
L 97.251671 204.327207 
L 97.440533 192.604389 
L 97.629396 199.540803 
L 97.818258 214.186481 
L 98.00712 200.021037 
L 98.195983 200.893519 
L 98.384845 212.516886 
L 98.573708 213.172694 
L 98.76257 191.120942 
L 98.951433 208.371339 
L 99.140295 209.836043 
L 99.329158 205.678217 
L 99.51802 214.427114 
L 99.895745 203.342411 
L 100.084607 205.135828 
L 100.27347 215.216522 
L 100.462332 217.754532 
L 100.651195 209.325418 
L 100.840057 219.599854 
L 101.02892 200.289693 
L 101.217782 207.091964 
L 101.406644 206.288151 
L 101.595507 221.61942 
L 101.784369 214.843726 
L 101.973232 227.609806 
L 102.162094 195.668481 
L 102.539819 221.847164 
L 102.728682 216.257107 
L 102.917544 204.152131 
L 103.106406 212.844401 
L 103.295269 199.05872 
L 103.484131 214.686072 
L 103.672994 220.205476 
L 103.861856 220.84779 
L 104.050719 220.814323 
L 104.239581 214.982231 
L 104.617306 235.521032 
L 104.806168 217.281647 
L 104.995031 238.360738 
L 105.183893 212.64188 
L 105.372756 203.213581 
L 105.561618 220.079983 
L 105.750481 205.126729 
L 105.939343 225.970696 
L 106.128206 214.226422 
L 106.317068 219.974189 
L 106.505931 213.136058 
L 106.694793 239.898033 
L 106.883655 216.353781 
L 107.072518 224.892195 
L 107.26138 210.166831 
L 107.639105 228.213956 
L 107.827968 230.260727 
L 108.01683 227.076892 
L 108.205693 230.957449 
L 108.394555 221.750469 
L 108.583417 224.240267 
L 108.77228 230.531579 
L 108.961142 229.697499 
L 109.338867 217.031394 
L 109.52773 214.7713 
L 109.716592 207.037058 
L 109.905455 223.103213 
L 110.094317 226.266514 
L 110.283179 234.85304 
L 110.472042 222.935973 
L 110.660904 235.811877 
L 110.849767 233.049593 
L 111.038629 238.843461 
L 111.227492 223.859856 
L 111.416354 226.410792 
L 111.605217 245.250569 
L 111.982941 227.361344 
L 112.171804 230.543868 
L 112.360666 238.088986 
L 112.549529 228.654423 
L 112.738391 226.352386 
L 112.927254 240.104848 
L 113.116116 225.315267 
L 113.304979 232.88294 
L 113.493841 232.730835 
L 113.682703 227.619083 
L 113.871566 237.06496 
L 114.060428 239.59835 
L 114.249291 225.625256 
L 114.438153 224.56411 
L 114.627016 234.217271 
L 114.815878 234.759484 
L 115.004741 230.284318 
L 115.193603 243.905478 
L 115.382465 216.244395 
L 115.76019 239.429754 
L 115.949053 229.866554 
L 116.137915 232.260441 
L 116.326778 225.681978 
L 116.51564 232.976234 
L 116.704503 228.084227 
L 116.893365 234.197985 
L 117.082228 229.908919 
L 117.27109 221.831933 
L 117.459952 238.322185 
L 117.648815 240.800793 
L 117.837677 222.14308 
L 118.02654 224.783979 
L 118.215402 233.117397 
L 118.593127 228.784801 
L 118.78199 229.153629 
L 118.970852 228.487103 
L 119.348577 247.615964 
L 119.537439 235.535857 
L 119.726302 237.430743 
L 119.915164 229.147955 
L 120.292889 243.429381 
L 120.481752 218.913141 
L 120.670614 236.767364 
L 120.859476 232.938169 
L 121.048339 235.739282 
L 121.237201 248.706331 
L 121.426064 232.272422 
L 121.614926 231.251774 
L 121.803789 236.311952 
L 121.992651 237.603514 
L 122.181514 237.382089 
L 122.370376 241.23434 
L 122.559238 239.559231 
L 122.748101 236.887973 
L 122.936963 231.518036 
L 123.125826 245.383529 
L 123.314688 238.151236 
L 123.503551 241.031399 
L 123.881276 231.900507 
L 124.070138 240.791221 
L 124.259 238.150424 
L 124.447863 240.480826 
L 124.636725 237.174474 
L 124.825588 231.545976 
L 125.01445 239.263437 
L 125.203313 229.032468 
L 125.392175 233.417072 
L 125.581038 233.640732 
L 125.7699 226.63708 
L 125.958762 240.518128 
L 126.147625 233.818962 
L 126.336487 232.11726 
L 126.52535 234.913159 
L 126.714212 232.628918 
L 126.903075 235.084108 
L 127.091937 245.35272 
L 127.469662 242.312399 
L 127.658525 227.421439 
L 127.847387 237.275654 
L 128.225112 243.113402 
L 128.413974 249.122693 
L 128.602837 231.290034 
L 128.791699 251.192107 
L 128.980562 236.232044 
L 129.169424 244.883792 
L 129.358287 238.115195 
L 129.547149 237.452671 
L 129.736011 245.94523 
L 129.924874 230.80873 
L 130.113736 238.15886 
L 130.491461 241.914805 
L 130.680324 239.549217 
L 130.869186 249.536082 
L 131.058049 243.770908 
L 131.246911 233.076327 
L 131.624636 243.060141 
L 131.813498 231.249762 
L 132.002361 245.935708 
L 132.191223 234.988533 
L 132.380086 244.774215 
L 132.568948 230.348739 
L 132.757811 238.431156 
L 132.946673 234.340918 
L 133.135535 243.29708 
L 133.324398 236.758508 
L 133.51326 250.791704 
L 133.702123 240.483517 
L 133.890985 241.893205 
L 134.079848 252.674184 
L 134.26871 245.485477 
L 134.457573 229.925197 
L 134.646435 253.029111 
L 134.835297 236.007151 
L 135.02416 248.411429 
L 135.213022 237.065555 
L 135.401885 246.27173 
L 135.590747 239.279707 
L 135.968472 244.462556 
L 136.157335 235.935281 
L 136.346197 248.811121 
L 136.535059 229.599484 
L 136.723922 233.498749 
L 136.912784 242.602365 
L 137.101647 240.72897 
L 137.479372 254.588529 
L 137.668234 242.792392 
L 137.857097 245.586142 
L 138.045959 228.790248 
L 138.612546 252.641676 
L 138.801409 238.555415 
L 138.990271 249.188278 
L 139.179134 248.861923 
L 139.367996 246.28049 
L 139.934584 231.027979 
L 140.123446 249.696581 
L 140.312308 233.725108 
L 140.501171 242.153119 
L 140.690033 242.638274 
L 140.878896 234.07813 
L 141.067758 253.717635 
L 141.256621 242.551042 
L 141.445483 242.44642 
L 141.634346 261.982073 
L 142.01207 237.985432 
L 142.200933 243.270205 
L 142.578658 232.495412 
L 142.76752 251.585172 
L 143.145245 239.321931 
L 143.334108 237.667299 
L 143.52297 246.188284 
L 143.711832 236.390892 
L 143.900695 252.318554 
L 144.089557 234.979129 
L 144.27842 241.632453 
L 144.467282 242.91511 
L 144.845007 251.15219 
L 145.222732 232.910338 
L 145.411594 251.075075 
L 145.600457 248.790366 
L 145.789319 254.490315 
L 145.978182 244.467596 
L 146.355907 252.120337 
L 146.733632 241.826379 
L 146.922494 234.776369 
L 147.111356 256.86042 
L 147.300219 246.833562 
L 147.489081 254.322886 
L 147.677944 247.542344 
L 147.866806 235.570552 
L 148.055669 237.36907 
L 148.244531 236.533242 
L 148.433394 249.888588 
L 148.622256 238.253043 
L 148.811119 234.836789 
L 148.999981 250.646364 
L 149.188843 237.593981 
L 149.566568 256.203089 
L 149.755431 238.946982 
L 149.944293 242.635543 
L 150.133156 242.483997 
L 150.322018 243.760659 
L 150.510881 248.791962 
L 150.699743 244.920278 
L 150.888605 255.445739 
L 151.077468 243.159682 
L 151.26633 242.550776 
L 151.455193 257.18376 
L 151.832918 238.091457 
L 152.210643 255.217479 
L 152.399505 255.994012 
L 152.588367 255.024248 
L 152.966092 248.238413 
L 153.154955 252.095397 
L 153.343817 244.667448 
L 153.53268 242.810746 
L 153.721542 243.538452 
L 153.910405 240.402856 
L 154.099267 249.936447 
L 154.288129 239.267928 
L 154.476992 247.621152 
L 154.665854 244.949415 
L 154.854717 235.481846 
L 155.232442 251.899283 
L 155.421304 246.511642 
L 155.610167 245.004216 
L 155.799029 247.486957 
L 155.987891 252.81399 
L 156.176754 252.435045 
L 156.554479 261.201955 
L 156.743341 247.133856 
L 157.309929 252.629957 
L 157.498791 247.098176 
L 157.687653 253.574046 
L 157.876516 251.822685 
L 158.065378 251.31653 
L 158.254241 240.107701 
L 158.443103 250.782432 
L 158.631966 243.888817 
L 158.820828 245.340156 
L 159.009691 248.472782 
L 159.387416 244.652144 
L 159.576278 241.281118 
L 159.954003 255.673869 
L 160.142865 250.046147 
L 160.331728 235.960108 
L 160.52059 240.99138 
L 160.709453 235.770783 
L 161.087178 256.773388 
L 161.27604 245.110033 
L 161.464902 254.933017 
L 161.653765 240.136854 
L 162.03149 262.657422 
L 162.598077 244.670144 
L 162.78694 255.194992 
L 163.164664 247.978565 
L 163.353527 255.458104 
L 163.542389 243.666289 
L 163.731252 273.047723 
L 163.920114 239.939082 
L 164.108977 241.898427 
L 164.297839 234.489752 
L 164.486702 260.051627 
L 164.675564 240.042621 
L 164.864426 260.757917 
L 165.053289 254.039926 
L 165.242151 240.142904 
L 165.431014 257.75095 
L 165.619876 251.691438 
L 165.808739 266.450059 
L 165.997601 260.826558 
L 166.186464 234.872286 
L 166.375326 250.819415 
L 166.564188 249.632433 
L 166.753051 263.570852 
L 166.941913 237.422412 
L 167.319638 248.915865 
L 167.508501 236.596012 
L 167.697363 255.674502 
L 167.886226 258.45227 
L 168.26395 254.475687 
L 168.452813 251.585886 
L 168.641675 261.971314 
L 168.830538 251.715615 
L 169.0194 247.784616 
L 169.208263 253.315538 
L 169.397125 246.214291 
L 169.585988 251.816525 
L 169.77485 247.49627 
L 169.963713 249.913404 
L 170.341437 266.142409 
L 170.5303 245.313929 
L 170.719162 246.994336 
L 171.096887 258.176749 
L 171.28575 245.416319 
L 171.474612 241.589171 
L 171.663475 266.438991 
L 171.852337 249.935982 
L 172.041199 265.131327 
L 172.418924 238.070016 
L 172.607787 257.680944 
L 172.796649 244.958139 
L 172.985512 261.270535 
L 173.174374 250.529459 
L 173.363237 247.159068 
L 173.552099 255.191234 
L 173.740961 240.982176 
L 173.929824 247.945449 
L 174.118686 249.811151 
L 174.307549 240.267253 
L 174.496411 258.207712 
L 174.685274 257.266237 
L 174.874136 254.929977 
L 175.062999 238.220848 
L 175.251861 251.908825 
L 175.440723 250.591689 
L 175.629586 244.996027 
L 175.818448 256.957029 
L 176.007311 248.074718 
L 176.196173 258.202925 
L 176.762761 245.681329 
L 176.951623 231.486963 
L 177.140485 252.571101 
L 177.329348 253.502367 
L 177.51821 253.765089 
L 177.707073 255.349647 
L 177.895935 248.863713 
L 178.084798 257.737157 
L 178.27366 248.239551 
L 178.651385 269.142312 
L 178.840248 255.075387 
L 179.02911 252.321485 
L 179.217972 257.217908 
L 179.406835 257.854858 
L 179.595697 251.031664 
L 179.78456 238.50786 
L 180.162285 251.073959 
L 180.351147 249.874382 
L 180.54001 242.841232 
L 180.728872 251.903405 
L 180.917734 246.894231 
L 181.106597 246.498063 
L 181.484322 250.926679 
L 181.673184 256.831458 
L 181.862047 251.155947 
L 182.050909 257.178645 
L 182.239772 254.700341 
L 182.428634 258.73182 
L 182.617496 239.892697 
L 182.806359 262.533565 
L 182.995221 264.049764 
L 183.184084 254.030866 
L 183.372946 256.707076 
L 183.561809 256.760755 
L 183.750671 253.61345 
L 183.939534 244.218305 
L 184.128396 252.637575 
L 184.317258 271.914051 
L 184.506121 244.735303 
L 184.694983 242.744779 
L 184.883846 246.948178 
L 185.072708 256.89559 
L 185.261571 247.08257 
L 185.450433 250.977671 
L 185.639296 247.421587 
L 185.828158 248.785273 
L 186.01702 240.629715 
L 186.205883 263.413828 
L 186.394745 249.017861 
L 186.583608 255.886205 
L 186.77247 243.791277 
L 186.961333 254.131053 
L 187.150195 242.995519 
L 187.339058 258.322475 
L 187.52792 251.654527 
L 187.716782 260.069681 
L 187.905645 240.239148 
L 188.094507 256.908842 
L 188.472232 244.193252 
L 188.661095 240.255711 
L 188.849957 241.200866 
L 189.227682 263.484311 
L 189.416545 263.550021 
L 189.605407 250.664128 
L 189.794269 250.35096 
L 189.983132 255.098 
L 190.171994 248.290745 
L 190.549719 257.196784 
L 190.738582 248.324045 
L 190.927444 249.917247 
L 191.116307 238.499002 
L 191.305169 234.85401 
L 191.494031 240.070799 
L 191.682894 257.37692 
L 191.871756 251.246211 
L 192.249481 258.994455 
L 192.438344 254.933877 
L 192.816069 257.287655 
L 193.004931 258.188288 
L 193.193793 261.25272 
L 193.382656 243.561175 
L 193.571518 262.541094 
L 193.760381 248.23566 
L 193.949243 249.196784 
L 194.138106 265.367424 
L 194.326968 252.898268 
L 194.515831 249.273964 
L 194.704693 255.787146 
L 194.893555 268.569197 
L 195.082418 245.677544 
L 195.27128 255.79938 
L 195.460143 257.101798 
L 195.649005 250.777257 
L 195.837868 258.759681 
L 196.02673 238.50785 
L 196.215593 252.673343 
L 196.404455 252.680932 
L 196.78218 243.648183 
L 197.159905 260.45803 
L 197.348767 249.636328 
L 197.53763 253.595817 
L 197.726492 254.742136 
L 197.915355 240.596792 
L 198.104217 262.747729 
L 198.293079 251.644729 
L 198.481942 249.808418 
L 198.670804 253.545482 
L 198.859667 260.692347 
L 199.048529 255.863051 
L 199.237392 247.174011 
L 199.426254 247.138929 
L 199.803979 261.585205 
L 199.992842 244.338152 
L 200.181704 250.512065 
L 200.370566 239.557841 
L 200.559429 250.205133 
L 200.748291 243.035391 
L 200.937154 263.531564 
L 201.126016 246.349662 
L 201.314879 250.500256 
L 201.503741 251.643187 
L 201.692604 254.388193 
L 201.881466 246.579938 
L 202.070328 256.161174 
L 202.259191 259.642863 
L 202.448053 247.23798 
L 202.636916 259.462899 
L 202.825778 235.597883 
L 203.014641 252.686153 
L 203.203503 259.251184 
L 203.581228 242.321711 
L 203.958953 255.545993 
L 204.147815 250.535305 
L 204.336678 250.451046 
L 204.52554 258.390027 
L 204.714403 247.130106 
L 204.903265 262.10458 
L 205.092128 248.665924 
L 205.28099 255.459192 
L 205.658715 244.891661 
L 205.847577 251.316758 
L 206.03644 244.892541 
L 206.225302 261.509977 
L 206.414165 250.564822 
L 206.79189 247.687656 
L 206.980752 254.700673 
L 207.169614 257.004773 
L 207.358477 250.130078 
L 207.547339 248.939939 
L 207.925064 258.61307 
L 208.113927 249.823681 
L 208.302789 249.05292 
L 208.491652 250.422862 
L 208.680514 248.773163 
L 208.869376 256.661088 
L 209.058239 256.910371 
L 209.247101 238.914332 
L 209.435964 249.556293 
L 209.624826 251.314224 
L 209.813689 259.539633 
L 210.002551 249.693238 
L 210.191414 260.786515 
L 210.380276 256.354418 
L 210.569139 254.791636 
L 210.758001 254.84758 
L 210.946863 260.414717 
L 211.135726 261.026757 
L 211.324588 258.078872 
L 211.513451 260.41792 
L 211.891176 249.82987 
L 212.080038 250.83355 
L 212.268901 253.389971 
L 212.457763 262.423407 
L 212.646625 251.977131 
L 212.835488 250.698792 
L 213.02435 248.048464 
L 213.213213 257.020783 
L 213.402075 247.80499 
L 213.590938 258.880392 
L 213.7798 257.583588 
L 213.968663 259.271843 
L 214.157525 241.437234 
L 214.346387 253.275127 
L 214.53525 252.19701 
L 214.724112 258.727437 
L 214.912975 249.410799 
L 215.101837 251.13537 
L 215.2907 250.15043 
L 215.479562 240.717707 
L 215.668425 247.361763 
L 215.857287 244.61775 
L 216.235012 266.109798 
L 216.801599 247.208255 
L 216.990462 248.083267 
L 217.179324 265.151113 
L 217.368187 251.002254 
L 217.557049 250.284431 
L 217.934774 244.126562 
L 218.123636 254.743701 
L 218.312499 252.173957 
L 218.501361 253.41717 
L 218.690224 257.39197 
L 218.879086 248.811694 
L 219.067949 262.76436 
L 219.256811 265.330982 
L 219.445673 249.523518 
L 219.634536 244.62959 
L 219.823398 244.084613 
L 220.012261 259.037464 
L 220.201123 245.266098 
L 220.389986 253.178737 
L 220.578848 247.763015 
L 220.767711 264.964113 
L 220.956573 259.015066 
L 221.145436 247.514366 
L 221.334298 253.154908 
L 221.52316 254.302977 
L 221.712023 239.535135 
L 221.900885 252.591169 
L 222.089748 236.504944 
L 222.27861 259.135712 
L 222.656335 244.988563 
L 223.222922 259.548927 
L 223.600647 252.377728 
L 223.78951 249.370179 
L 223.978372 253.899508 
L 224.167235 245.038079 
L 224.54496 260.438147 
L 224.733822 260.443558 
L 224.922684 257.505571 
L 225.111547 249.026176 
L 225.300409 255.054672 
L 225.489272 251.169862 
L 225.678134 244.478502 
L 225.866997 245.965902 
L 226.055859 249.930728 
L 226.244722 257.077837 
L 226.433584 258.711176 
L 226.622446 252.72699 
L 227.000171 262.44865 
L 227.377896 244.424398 
L 227.566759 240.273678 
L 227.755621 261.835264 
L 227.944484 253.703445 
L 228.133346 256.978658 
L 228.322208 256.182264 
L 228.511071 260.126107 
L 228.699933 245.414439 
L 228.888796 258.397789 
L 229.266521 254.759579 
L 229.455383 256.267626 
L 229.644246 241.937963 
L 229.833108 262.036807 
L 230.210833 248.18442 
L 230.399695 253.262546 
L 230.588558 261.899388 
L 230.966283 243.522366 
L 231.155145 262.725237 
L 231.344008 268.893729 
L 231.53287 261.727059 
L 231.721733 260.611437 
L 231.910595 249.836318 
L 232.099457 254.806821 
L 232.28832 246.782741 
L 232.854907 253.757275 
L 233.04377 253.486904 
L 233.232632 245.907155 
L 233.421495 264.341505 
L 233.610357 254.270908 
L 233.799219 254.004977 
L 234.176944 247.563083 
L 234.365807 252.126184 
L 234.554669 243.328946 
L 234.743532 265.123006 
L 234.932394 249.374526 
L 235.121257 261.165546 
L 235.310119 254.667747 
L 235.498981 263.27722 
L 235.687844 254.066052 
L 235.876706 256.250963 
L 236.065569 248.318938 
L 236.254431 258.549926 
L 236.443294 258.745075 
L 236.632156 258.657629 
L 236.821019 240.236061 
L 237.198743 252.621731 
L 237.387606 254.124207 
L 237.765331 251.075923 
L 237.954193 260.74167 
L 238.143056 249.949861 
L 238.331918 253.807215 
L 238.520781 250.602437 
L 238.709643 265.178095 
L 238.898505 268.112538 
L 239.27623 245.643077 
L 239.465093 257.563971 
L 239.842818 248.759867 
L 240.03168 259.989351 
L 240.220543 245.207647 
L 240.409405 258.646719 
L 240.78713 246.082103 
L 240.975992 248.926028 
L 241.164855 243.757218 
L 241.353717 255.646166 
L 241.54258 252.113018 
L 241.731442 261.11549 
L 241.920305 251.931512 
L 242.109167 257.538548 
L 242.29803 256.06166 
L 242.486892 245.69047 
L 242.675754 257.359579 
L 242.864617 259.544816 
L 243.053479 250.728938 
L 243.242342 258.741447 
L 243.431204 261.908228 
L 243.620067 252.042996 
L 243.808929 254.191548 
L 243.997792 249.227839 
L 244.186654 256.116937 
L 244.375516 257.051621 
L 244.564379 249.453058 
L 244.753241 267.829002 
L 244.942104 250.881774 
L 245.130966 250.593817 
L 245.319829 244.056772 
L 245.508691 247.777319 
L 245.697554 245.325512 
L 246.075278 258.326478 
L 246.453003 243.27728 
L 246.641866 258.165423 
L 246.830728 254.755691 
L 247.019591 257.128421 
L 247.208453 254.701427 
L 247.586178 247.049884 
L 247.77504 263.367267 
L 247.963903 251.5002 
L 248.152765 270.909775 
L 248.341628 251.671365 
L 248.53049 254.695219 
L 248.719353 254.805013 
L 248.908215 235.318269 
L 249.28594 259.225697 
L 249.474802 261.075733 
L 249.852527 253.032129 
L 250.04139 253.236565 
L 250.230252 260.661508 
L 250.419115 253.024274 
L 250.607977 251.081036 
L 250.79684 256.857267 
L 250.985702 251.927743 
L 251.174564 243.664082 
L 251.363427 244.033905 
L 251.552289 266.081128 
L 251.741152 247.867453 
L 251.930014 254.803725 
L 252.118877 252.768438 
L 252.307739 254.250688 
L 252.496602 253.132698 
L 252.685464 254.867009 
L 252.874327 255.396101 
L 253.063189 250.757775 
L 253.440914 258.839339 
L 253.629776 251.549904 
L 253.818639 253.775489 
L 254.007501 252.786723 
L 254.196364 247.997661 
L 254.385226 261.239862 
L 254.574089 249.225648 
L 254.762951 258.828432 
L 254.951813 253.754111 
L 255.140676 252.093045 
L 255.329538 246.953373 
L 255.518401 246.683475 
L 255.707263 254.416553 
L 255.896126 255.083326 
L 256.273851 241.89887 
L 256.462713 255.801653 
L 256.651575 254.560583 
L 256.840438 256.442373 
L 257.0293 262.017552 
L 257.218163 248.635485 
L 257.407025 264.13631 
L 257.595888 254.48735 
L 257.78475 259.209773 
L 257.973613 256.441126 
L 258.162475 259.539456 
L 258.351337 246.721957 
L 258.5402 254.010745 
L 258.729062 249.986077 
L 258.917925 263.938175 
L 259.106787 258.882801 
L 259.29565 250.835437 
L 259.484512 248.263352 
L 259.673375 251.975773 
L 259.862237 265.421389 
L 260.051099 251.205116 
L 260.239962 258.151934 
L 260.428824 253.673392 
L 260.806549 264.839653 
L 260.995412 258.723765 
L 261.184274 245.369186 
L 261.373137 255.94272 
L 261.750861 257.16577 
L 262.128586 241.661317 
L 262.695174 257.409919 
L 262.884036 257.967189 
L 263.072899 264.23252 
L 263.261761 244.452149 
L 263.450624 256.863607 
L 263.639486 258.49626 
L 263.828348 248.30454 
L 264.206073 258.873668 
L 264.394936 248.974989 
L 264.583798 266.451639 
L 264.772661 255.223704 
L 264.961523 267.125911 
L 265.150386 253.220857 
L 265.339248 248.461926 
L 265.52811 258.354955 
L 265.716973 261.397412 
L 265.905835 257.00471 
L 266.094698 259.169573 
L 266.28356 252.931822 
L 266.472423 253.196997 
L 266.661285 262.410325 
L 266.850148 256.325585 
L 267.03901 259.962934 
L 267.227872 243.914098 
L 267.605597 256.899089 
L 267.79446 247.859824 
L 267.983322 259.367747 
L 268.172185 253.239111 
L 268.361047 261.509346 
L 268.54991 252.771213 
L 268.738772 251.474066 
L 269.116497 259.787797 
L 269.305359 248.306267 
L 269.494222 261.211205 
L 269.683084 253.831152 
L 269.871947 254.830549 
L 270.060809 275.759353 
L 270.249672 270.601773 
L 270.627396 247.090571 
L 270.816259 246.507962 
L 271.005121 259.59329 
L 271.193984 256.49829 
L 271.382846 276.220308 
L 271.571709 265.521363 
L 271.760571 247.614011 
L 271.949434 254.024209 
L 272.327158 249.175082 
L 272.516021 264.209666 
L 272.704883 251.505056 
L 272.893746 254.623012 
L 273.082608 253.573985 
L 273.271471 253.644778 
L 273.460333 258.946728 
L 273.649196 251.262526 
L 273.838058 265.802498 
L 274.026921 245.408007 
L 274.215783 259.576417 
L 274.404645 258.689363 
L 274.593508 264.937316 
L 274.78237 254.103582 
L 275.160095 250.310469 
L 275.348958 254.375349 
L 275.53782 263.93279 
L 275.726683 257.951605 
L 275.915545 261.786986 
L 276.29327 251.860365 
L 276.482132 263.235122 
L 276.670995 248.226976 
L 276.859857 243.143775 
L 277.04872 263.957133 
L 277.237582 245.308543 
L 277.426445 265.489625 
L 277.615307 260.655513 
L 277.804169 261.45875 
L 277.993032 253.237716 
L 278.181894 265.494157 
L 278.370757 264.458319 
L 278.559619 247.359374 
L 278.748482 252.300169 
L 278.937344 252.751289 
L 279.126207 247.197274 
L 279.315069 273.647161 
L 279.503931 250.22114 
L 279.692794 248.811299 
L 279.881656 254.678164 
L 280.070519 250.845911 
L 280.259381 259.378107 
L 280.448244 273.700019 
L 280.637106 248.423339 
L 280.825969 267.152471 
L 281.014831 241.47088 
L 281.203693 250.183315 
L 281.392556 246.982121 
L 281.581418 257.897125 
L 281.959143 249.676488 
L 282.148006 249.629667 
L 282.336868 258.220228 
L 282.525731 247.423157 
L 282.903455 252.544259 
L 283.092318 246.556454 
L 283.28118 245.304191 
L 283.470043 259.780101 
L 283.658905 247.560319 
L 283.847768 271.715845 
L 284.03663 255.490286 
L 284.225493 260.132424 
L 284.414355 255.63838 
L 284.603218 254.359166 
L 284.79208 254.789631 
L 285.169805 250.807672 
L 285.358667 239.887836 
L 285.54753 246.404856 
L 285.736392 259.528428 
L 285.925255 251.473571 
L 286.114117 254.03135 
L 286.30298 258.247773 
L 286.491842 244.728458 
L 286.680704 255.850991 
L 286.869567 254.356253 
L 287.058429 262.276098 
L 287.247292 248.310836 
L 287.436154 258.971386 
L 287.625017 251.971489 
L 287.813879 263.224958 
L 288.002742 267.303526 
L 288.191604 260.619256 
L 288.380466 262.894291 
L 288.569329 255.817265 
L 288.758191 243.368083 
L 289.135916 261.873677 
L 289.324779 250.450585 
L 289.513641 258.524962 
L 289.702504 252.174524 
L 289.891366 260.910438 
L 290.080228 258.093092 
L 290.269091 248.858924 
L 290.457953 246.779455 
L 290.835678 261.881873 
L 291.024541 251.180728 
L 291.402266 258.990065 
L 291.591128 253.56297 
L 291.968853 266.040258 
L 292.157715 251.250096 
L 292.53544 253.699975 
L 292.724303 243.223985 
L 292.913165 257.798111 
L 293.102028 242.059652 
L 293.29089 254.541549 
L 293.479752 256.352142 
L 293.668615 256.432617 
L 293.857477 257.293263 
L 294.04634 262.558427 
L 294.424065 251.804686 
L 294.612927 252.782527 
L 294.80179 265.564797 
L 294.990652 251.545526 
L 295.179515 252.950434 
L 295.368377 256.844252 
L 295.557239 250.239668 
L 295.746102 262.67788 
L 296.123827 255.063872 
L 296.312689 239.73636 
L 296.501552 261.517705 
L 296.690414 255.2643 
L 297.068139 251.317771 
L 297.445864 253.252656 
L 297.634726 266.632694 
L 298.012451 250.518365 
L 298.201314 244.471577 
L 298.390176 264.883607 
L 298.579039 259.37621 
L 298.767901 272.048375 
L 298.956763 250.810634 
L 299.145626 248.599102 
L 299.334488 262.698982 
L 299.523351 258.545366 
L 299.712213 246.414172 
L 300.089938 256.296555 
L 300.278801 263.949463 
L 300.467663 255.396439 
L 300.656525 266.262864 
L 300.845388 268.077659 
L 301.03425 255.006039 
L 301.223113 263.564176 
L 301.411975 255.445 
L 301.600838 257.256915 
L 301.7897 252.623885 
L 301.978563 258.315477 
L 302.167425 255.515213 
L 302.356287 257.541907 
L 302.54515 248.613129 
L 302.734012 258.4789 
L 302.922875 254.175535 
L 303.111737 265.533838 
L 303.3006 255.187554 
L 303.489462 252.540555 
L 303.678325 258.10644 
L 303.867187 252.084754 
L 304.05605 260.284358 
L 304.244912 243.94831 
L 304.433774 243.867953 
L 304.622637 246.478193 
L 304.811499 263.558947 
L 305.000362 248.986931 
L 305.189224 248.931009 
L 305.566949 262.051781 
L 305.755812 253.332994 
L 305.944674 264.340192 
L 306.133536 256.887308 
L 306.322399 266.593888 
L 306.700124 247.798339 
L 306.888986 265.115255 
L 307.266711 249.68728 
L 307.455574 254.516717 
L 307.833298 249.814532 
L 308.022161 260.135077 
L 308.211023 250.502477 
L 308.399886 246.942666 
L 308.777611 255.449317 
L 308.966473 252.182036 
L 309.155336 253.122828 
L 309.344198 252.52887 
L 309.53306 259.602032 
L 309.721923 257.515819 
L 309.910785 249.634647 
L 310.099648 251.109511 
L 310.28851 261.883259 
L 310.477373 255.660636 
L 310.855098 262.151731 
L 311.04396 269.430951 
L 311.421685 238.225007 
L 311.610547 257.769948 
L 311.79941 262.687844 
L 311.988272 259.807133 
L 312.177135 259.052431 
L 312.365997 255.327084 
L 312.55486 254.683862 
L 312.743722 260.029732 
L 312.932584 257.703017 
L 313.121447 262.547664 
L 313.310309 248.47699 
L 313.499172 254.358068 
L 313.688034 253.944349 
L 313.876897 246.496813 
L 314.254622 255.744909 
L 314.443484 259.423518 
L 314.632347 245.411322 
L 314.821209 252.163886 
L 315.010071 245.923311 
L 315.198934 263.313765 
L 315.387796 259.651338 
L 315.576659 260.566748 
L 315.765521 265.357234 
L 315.954384 262.747354 
L 316.332109 239.183855 
L 316.520971 254.189689 
L 316.709833 253.693527 
L 316.898696 261.006357 
L 317.087558 250.627402 
L 317.276421 249.533205 
L 317.465283 256.989783 
L 317.654146 255.488398 
L 317.843008 256.268049 
L 318.031871 253.428823 
L 318.220733 242.520866 
L 318.598458 258.971186 
L 318.78732 257.660797 
L 318.976183 246.317244 
L 319.165045 248.455164 
L 319.54277 260.496051 
L 319.731633 256.440283 
L 319.920495 261.557102 
L 320.109357 257.28353 
L 320.29822 258.278417 
L 320.487082 263.938281 
L 320.675945 257.580452 
L 320.864807 256.665532 
L 321.05367 262.528029 
L 321.242532 246.128105 
L 321.431395 248.959276 
L 321.809119 258.083847 
L 321.997982 260.790232 
L 322.186844 251.700174 
L 322.375707 261.289498 
L 322.564569 256.140949 
L 322.753432 257.426244 
L 322.942294 237.738389 
L 323.131157 263.696711 
L 323.320019 258.572812 
L 323.508881 260.206446 
L 323.886606 255.816563 
L 324.075469 257.96167 
L 324.264331 248.567436 
L 324.453194 260.149719 
L 324.642056 251.833187 
L 324.830919 260.881644 
L 325.208644 244.429077 
L 325.397506 260.573999 
L 325.775231 248.903995 
L 325.964093 266.949692 
L 326.152956 255.058595 
L 326.341818 260.520764 
L 326.530681 258.29698 
L 326.719543 250.16028 
L 326.908406 249.465199 
L 327.097268 260.749292 
L 327.28613 257.94682 
L 327.474993 256.807048 
L 327.663855 249.750213 
L 327.852718 253.496123 
L 328.04158 265.174259 
L 328.230443 248.14611 
L 328.419305 262.19056 
L 328.608168 239.847408 
L 328.985892 264.485547 
L 329.174755 248.737761 
L 329.363617 246.229035 
L 329.55248 246.434782 
L 329.741342 259.278979 
L 329.930205 255.982076 
L 330.119067 263.313406 
L 330.30793 253.180252 
L 330.496792 256.762901 
L 330.685654 257.286679 
L 330.874517 256.545507 
L 331.063379 258.032733 
L 331.252242 247.019686 
L 331.629967 259.474883 
L 331.818829 256.373272 
L 332.007692 245.701301 
L 332.196554 260.193673 
L 332.385416 252.971316 
L 332.574279 256.709176 
L 332.763141 266.362765 
L 332.952004 255.875153 
L 333.140866 257.375203 
L 333.329729 248.601442 
L 333.518591 250.885292 
L 333.707454 260.432925 
L 333.896316 247.881353 
L 334.085178 259.564451 
L 334.274041 249.76146 
L 334.462903 254.340903 
L 334.651766 249.177247 
L 334.840628 251.022951 
L 335.029491 247.201383 
L 335.218353 257.046901 
L 335.407216 244.357053 
L 335.784941 251.958154 
L 335.973803 263.093569 
L 336.162665 265.723851 
L 336.54039 247.446218 
L 336.918115 261.61983 
L 337.106978 254.76563 
L 337.29584 262.156914 
L 337.673565 255.864962 
L 337.862427 266.906026 
L 338.05129 256.834538 
L 338.240152 240.021512 
L 338.429015 274.447861 
L 338.617877 254.770242 
L 338.80674 255.781343 
L 338.995602 261.06569 
L 339.373327 247.83649 
L 339.562189 265.031026 
L 339.751052 251.847183 
L 339.939914 253.707847 
L 340.128777 253.13799 
L 340.695364 260.027297 
L 341.261951 249.477683 
L 341.639676 261.892941 
L 341.828539 245.197212 
L 342.017401 255.100324 
L 342.583989 266.886671 
L 342.772851 276.540113 
L 342.961713 271.129163 
L 343.150576 251.186274 
L 343.339438 243.139269 
L 343.528301 259.058382 
L 343.717163 256.706832 
L 343.906026 261.172461 
L 344.094888 243.660245 
L 344.283751 264.428456 
L 344.472613 248.916547 
L 344.661475 262.20234 
L 344.850338 243.617472 
L 345.0392 250.501204 
L 345.228063 250.54127 
L 345.416925 264.964794 
L 345.605788 267.604716 
L 345.79465 242.532382 
L 345.983513 247.414564 
L 346.172375 257.421528 
L 346.361238 255.667391 
L 346.5501 255.653558 
L 346.738962 261.413505 
L 346.927825 262.543645 
L 347.116687 256.276015 
L 347.30555 264.458032 
L 347.494412 256.622713 
L 347.683275 256.949711 
L 347.872137 260.055114 
L 348.061 257.681887 
L 348.249862 259.569279 
L 348.438724 254.070511 
L 348.627587 260.606312 
L 348.816449 257.600497 
L 349.005312 258.687935 
L 349.194174 249.625381 
L 349.383037 252.744238 
L 349.571899 251.433054 
L 349.760762 254.176745 
L 349.949624 263.238043 
L 350.138486 251.487837 
L 350.327349 250.792205 
L 350.516211 241.542151 
L 350.705074 259.027336 
L 350.893936 253.852098 
L 351.271661 269.799289 
L 351.649386 253.207066 
L 351.838248 254.714884 
L 352.027111 241.243961 
L 352.215973 258.257925 
L 352.404836 249.430633 
L 352.593698 253.946512 
L 352.782561 248.135826 
L 353.160286 264.089847 
L 353.349148 262.414008 
L 353.53801 262.543119 
L 353.915735 246.69754 
L 354.104598 246.854732 
L 354.29346 256.557565 
L 354.671185 249.594173 
L 354.860048 260.819207 
L 355.04891 260.607871 
L 355.426635 267.581342 
L 355.80436 256.19286 
L 355.993222 258.187196 
L 356.182085 253.54307 
L 356.370947 267.672762 
L 356.55981 246.508646 
L 356.748672 264.457464 
L 356.937535 250.477928 
L 357.315259 263.950898 
L 357.692984 247.784026 
L 357.881847 256.192064 
L 358.070709 255.48745 
L 358.259572 271.400821 
L 358.637297 252.211263 
L 358.826159 254.685928 
L 359.015021 261.367424 
L 359.203884 239.827194 
L 359.392746 256.907603 
L 359.581609 250.122068 
L 359.770471 253.18413 
L 359.959334 238.29471 
L 360.148196 263.078574 
L 360.337059 270.121331 
L 360.525921 251.401244 
L 360.714783 255.436584 
L 360.903646 256.577841 
L 361.281371 264.308536 
L 361.470233 247.228016 
L 361.847958 260.817682 
L 362.036821 252.782445 
L 362.225683 258.984471 
L 362.414545 259.25731 
L 362.603408 255.904886 
L 362.79227 245.978631 
L 362.981133 264.2061 
L 363.169995 251.526788 
L 363.358858 256.834039 
L 363.736583 249.491857 
L 363.925445 256.281414 
L 364.114307 254.324096 
L 364.492032 245.299746 
L 364.680895 257.716003 
L 364.869757 254.823549 
L 365.05862 257.416838 
L 365.247482 253.005489 
L 365.436345 259.426268 
L 365.625207 255.473336 
L 365.814069 248.747506 
L 366.002932 265.463352 
L 366.191794 262.729969 
L 366.380657 242.644067 
L 366.569519 245.483518 
L 366.758382 255.831894 
L 366.947244 251.006945 
L 367.136107 254.679965 
L 367.324969 252.399674 
L 367.513832 258.235598 
L 367.702694 255.691354 
L 367.891556 255.887253 
L 368.080419 260.347612 
L 368.269281 259.850838 
L 368.647006 263.302246 
L 368.835869 262.067837 
L 369.024731 252.267457 
L 369.213594 258.918101 
L 369.402456 248.792557 
L 369.780181 256.95681 
L 369.969043 247.702558 
L 370.346768 258.931765 
L 370.535631 251.427402 
L 370.724493 252.834129 
L 370.913356 261.405352 
L 371.479943 252.078754 
L 371.668805 255.137585 
L 371.857668 242.854439 
L 372.04653 259.198273 
L 372.235393 247.873222 
L 372.424255 257.773906 
L 372.613118 248.541195 
L 372.80198 246.350091 
L 372.990842 265.83299 
L 373.368567 248.629376 
L 373.55743 248.719315 
L 373.746292 247.739162 
L 373.935155 255.477426 
L 374.124017 248.682941 
L 374.31288 261.919352 
L 374.501742 250.740107 
L 374.690604 255.797307 
L 374.879467 256.226289 
L 375.068329 271.73593 
L 375.446054 248.311526 
L 375.634917 261.426828 
L 375.823779 257.949692 
L 376.012642 264.650169 
L 376.201504 253.047164 
L 376.579229 260.477858 
L 376.768091 254.407119 
L 376.956954 256.415224 
L 377.145816 249.121989 
L 377.334679 263.273048 
L 377.523541 251.814036 
L 377.901266 266.023381 
L 378.090129 251.794931 
L 378.278991 266.558413 
L 378.467853 254.287971 
L 378.656716 254.74007 
L 378.845578 251.667496 
L 379.034441 252.615905 
L 379.789891 261.530737 
L 379.978753 247.815121 
L 380.167615 256.532843 
L 380.356478 254.900217 
L 380.54534 258.157611 
L 380.734203 253.965023 
L 380.923065 243.244727 
L 381.111928 257.732627 
L 381.489653 250.000899 
L 381.678515 264.586142 
L 381.867377 266.799523 
L 382.05624 257.440118 
L 382.245102 255.821445 
L 382.433965 257.391248 
L 382.622827 250.265512 
L 382.81169 250.121081 
L 383.000552 259.019868 
L 383.189415 250.634576 
L 383.567139 257.616625 
L 383.756002 264.211846 
L 383.944864 248.298521 
L 384.133727 266.879456 
L 384.511452 256.862817 
L 384.889177 264.528408 
L 385.078039 260.316846 
L 385.266901 252.118361 
L 385.455764 250.306902 
L 385.833489 262.843364 
L 386.022351 258.956584 
L 386.211214 257.798062 
L 386.400076 254.157205 
L 386.588939 264.086388 
L 386.966663 254.243182 
L 387.155526 243.621752 
L 387.344388 259.31791 
L 387.533251 249.248376 
L 388.099838 259.367743 
L 388.477563 249.997496 
L 388.666426 253.015633 
L 388.855288 244.203955 
L 389.04415 260.220059 
L 389.421875 246.855008 
L 389.610738 263.504148 
L 389.7996 270.296781 
L 390.177325 251.437617 
L 390.366188 245.802439 
L 390.55505 251.044075 
L 390.743912 251.697497 
L 390.932775 255.780041 
L 391.121637 253.806981 
L 391.3105 254.152476 
L 391.688225 262.469608 
L 392.06595 259.12747 
L 392.254812 253.847909 
L 392.443674 255.837372 
L 392.632537 250.420072 
L 393.010262 255.643492 
L 393.199124 252.446597 
L 393.387987 245.904587 
L 393.576849 249.600567 
L 393.765712 248.484849 
L 393.954574 250.280469 
L 394.143436 260.329446 
L 394.332299 247.350543 
L 394.521161 269.148517 
L 394.710024 247.958739 
L 395.087749 263.209573 
L 395.276611 254.934469 
L 395.465474 252.693421 
L 395.654336 248.301346 
L 396.220923 264.853761 
L 396.409786 247.254441 
L 396.598648 258.211375 
L 396.787511 259.31398 
L 396.976373 253.481868 
L 397.165236 255.7055 
L 397.354098 256.385975 
L 397.54296 249.525132 
L 397.731823 260.499501 
L 397.920685 262.426767 
L 398.109548 239.208875 
L 398.29841 257.127167 
L 398.487273 255.357968 
L 398.487273 255.357968 
" style="fill:none;stroke:#ff7f0e;stroke-linecap:square;stroke-width:1.5;"/>
   </g>
   <g id="patch_3">
    <path d="M 57.6 307.584 
L 57.6 41.472 
" style="fill:none;stroke:#000000;stroke-linecap:square;stroke-linejoin:miter;stroke-width:0.8;"/>
   </g>
   <g id="patch_4">
    <path d="M 414.72 307.584 
L 414.72 41.472 
" style="fill:none;stroke:#000000;stroke-linecap:square;stroke-linejoin:miter;stroke-width:0.8;"/>
   </g>
   <g id="patch_5">
    <path d="M 57.6 307.584 
L 414.72 307.584 
" style="fill:none;stroke:#000000;stroke-linecap:square;stroke-linejoin:miter;stroke-width:0.8;"/>
   </g>
   <g id="patch_6">
    <path d="M 57.6 41.472 
L 414.72 41.472 
" style="fill:none;stroke:#000000;stroke-linecap:square;stroke-linejoin:miter;stroke-width:0.8;"/>
   </g>
   <g id="legend_1">
    <g id="patch_7">
     <path d="M 303.845 78.82825 
L 407.72 78.82825 
Q 409.72 78.82825 409.72 76.82825 
L 409.72 48.472 
Q 409.72 46.472 407.72 46.472 
L 303.845 46.472 
Q 301.845 46.472 301.845 48.472 
L 301.845 76.82825 
Q 301.845 78.82825 303.845 78.82825 
z
" style="fill:#ffffff;opacity:0.8;stroke:#cccccc;stroke-linejoin:miter;"/>
    </g>
    <g id="line2d_17">
     <path d="M 305.845 54.570437 
L 325.845 54.570437 
" style="fill:none;stroke:#1f77b4;stroke-linecap:square;stroke-width:1.5;"/>
    </g>
    <g id="line2d_18"/>
    <g id="text_16">
     <!-- Train loss -->
     <g transform="translate(333.845 58.070437)scale(0.1 -0.1)">
      <defs>
       <path d="M -19 4666 
L 3928 4666 
L 3928 4134 
L 2272 4134 
L 2272 0 
L 1638 0 
L 1638 4134 
L -19 4134 
L -19 4666 
z
" id="DejaVuSans-54" transform="scale(0.015625)"/>
       <path d="M 2631 2963 
Q 2534 3019 2420 3045 
Q 2306 3072 2169 3072 
Q 1681 3072 1420 2755 
Q 1159 2438 1159 1844 
L 1159 0 
L 581 0 
L 581 3500 
L 1159 3500 
L 1159 2956 
Q 1341 3275 1631 3429 
Q 1922 3584 2338 3584 
Q 2397 3584 2469 3576 
Q 2541 3569 2628 3553 
L 2631 2963 
z
" id="DejaVuSans-72" transform="scale(0.015625)"/>
       <path d="M 2194 1759 
Q 1497 1759 1228 1600 
Q 959 1441 959 1056 
Q 959 750 1161 570 
Q 1363 391 1709 391 
Q 2188 391 2477 730 
Q 2766 1069 2766 1631 
L 2766 1759 
L 2194 1759 
z
M 3341 1997 
L 3341 0 
L 2766 0 
L 2766 531 
Q 2569 213 2275 61 
Q 1981 -91 1556 -91 
Q 1019 -91 701 211 
Q 384 513 384 1019 
Q 384 1609 779 1909 
Q 1175 2209 1959 2209 
L 2766 2209 
L 2766 2266 
Q 2766 2663 2505 2880 
Q 2244 3097 1772 3097 
Q 1472 3097 1187 3025 
Q 903 2953 641 2809 
L 641 3341 
Q 956 3463 1253 3523 
Q 1550 3584 1831 3584 
Q 2591 3584 2966 3190 
Q 3341 2797 3341 1997 
z
" id="DejaVuSans-61" transform="scale(0.015625)"/>
       <path d="M 603 3500 
L 1178 3500 
L 1178 0 
L 603 0 
L 603 3500 
z
M 603 4863 
L 1178 4863 
L 1178 4134 
L 603 4134 
L 603 4863 
z
" id="DejaVuSans-69" transform="scale(0.015625)"/>
       <path d="M 3513 2113 
L 3513 0 
L 2938 0 
L 2938 2094 
Q 2938 2591 2744 2837 
Q 2550 3084 2163 3084 
Q 1697 3084 1428 2787 
Q 1159 2491 1159 1978 
L 1159 0 
L 581 0 
L 581 3500 
L 1159 3500 
L 1159 2956 
Q 1366 3272 1645 3428 
Q 1925 3584 2291 3584 
Q 2894 3584 3203 3211 
Q 3513 2838 3513 2113 
z
" id="DejaVuSans-6e" transform="scale(0.015625)"/>
       <path id="DejaVuSans-20" transform="scale(0.015625)"/>
       <path d="M 603 4863 
L 1178 4863 
L 1178 0 
L 603 0 
L 603 4863 
z
" id="DejaVuSans-6c" transform="scale(0.015625)"/>
       <path d="M 2834 3397 
L 2834 2853 
Q 2591 2978 2328 3040 
Q 2066 3103 1784 3103 
Q 1356 3103 1142 2972 
Q 928 2841 928 2578 
Q 928 2378 1081 2264 
Q 1234 2150 1697 2047 
L 1894 2003 
Q 2506 1872 2764 1633 
Q 3022 1394 3022 966 
Q 3022 478 2636 193 
Q 2250 -91 1575 -91 
Q 1294 -91 989 -36 
Q 684 19 347 128 
L 347 722 
Q 666 556 975 473 
Q 1284 391 1588 391 
Q 1994 391 2212 530 
Q 2431 669 2431 922 
Q 2431 1156 2273 1281 
Q 2116 1406 1581 1522 
L 1381 1569 
Q 847 1681 609 1914 
Q 372 2147 372 2553 
Q 372 3047 722 3315 
Q 1072 3584 1716 3584 
Q 2034 3584 2315 3537 
Q 2597 3491 2834 3397 
z
" id="DejaVuSans-73" transform="scale(0.015625)"/>
      </defs>
      <use xlink:href="#DejaVuSans-54"/>
      <use x="46.333984" xlink:href="#DejaVuSans-72"/>
      <use x="87.447266" xlink:href="#DejaVuSans-61"/>
      <use x="148.726562" xlink:href="#DejaVuSans-69"/>
      <use x="176.509766" xlink:href="#DejaVuSans-6e"/>
      <use x="239.888672" xlink:href="#DejaVuSans-20"/>
      <use x="271.675781" xlink:href="#DejaVuSans-6c"/>
      <use x="299.458984" xlink:href="#DejaVuSans-6f"/>
      <use x="360.640625" xlink:href="#DejaVuSans-73"/>
      <use x="412.740234" xlink:href="#DejaVuSans-73"/>
     </g>
    </g>
    <g id="line2d_19">
     <path d="M 305.845 69.248562 
L 325.845 69.248562 
" style="fill:none;stroke:#ff7f0e;stroke-linecap:square;stroke-width:1.5;"/>
    </g>
    <g id="line2d_20"/>
    <g id="text_17">
     <!-- Validation loss -->
     <g transform="translate(333.845 72.748562)scale(0.1 -0.1)">
      <defs>
       <path d="M 1831 0 
L 50 4666 
L 709 4666 
L 2188 738 
L 3669 4666 
L 4325 4666 
L 2547 0 
L 1831 0 
z
" id="DejaVuSans-56" transform="scale(0.015625)"/>
       <path d="M 2906 2969 
L 2906 4863 
L 3481 4863 
L 3481 0 
L 2906 0 
L 2906 525 
Q 2725 213 2448 61 
Q 2172 -91 1784 -91 
Q 1150 -91 751 415 
Q 353 922 353 1747 
Q 353 2572 751 3078 
Q 1150 3584 1784 3584 
Q 2172 3584 2448 3432 
Q 2725 3281 2906 2969 
z
M 947 1747 
Q 947 1113 1208 752 
Q 1469 391 1925 391 
Q 2381 391 2643 752 
Q 2906 1113 2906 1747 
Q 2906 2381 2643 2742 
Q 2381 3103 1925 3103 
Q 1469 3103 1208 2742 
Q 947 2381 947 1747 
z
" id="DejaVuSans-64" transform="scale(0.015625)"/>
       <path d="M 1172 4494 
L 1172 3500 
L 2356 3500 
L 2356 3053 
L 1172 3053 
L 1172 1153 
Q 1172 725 1289 603 
Q 1406 481 1766 481 
L 2356 481 
L 2356 0 
L 1766 0 
Q 1100 0 847 248 
Q 594 497 594 1153 
L 594 3053 
L 172 3053 
L 172 3500 
L 594 3500 
L 594 4494 
L 1172 4494 
z
" id="DejaVuSans-74" transform="scale(0.015625)"/>
      </defs>
      <use xlink:href="#DejaVuSans-56"/>
      <use x="60.658203" xlink:href="#DejaVuSans-61"/>
      <use x="121.9375" xlink:href="#DejaVuSans-6c"/>
      <use x="149.720703" xlink:href="#DejaVuSans-69"/>
      <use x="177.503906" xlink:href="#DejaVuSans-64"/>
      <use x="240.980469" xlink:href="#DejaVuSans-61"/>
      <use x="302.259766" xlink:href="#DejaVuSans-74"/>
      <use x="341.46875" xlink:href="#DejaVuSans-69"/>
      <use x="369.251953" xlink:href="#DejaVuSans-6f"/>
      <use x="430.433594" xlink:href="#DejaVuSans-6e"/>
      <use x="493.8125" xlink:href="#DejaVuSans-20"/>
      <use x="525.599609" xlink:href="#DejaVuSans-6c"/>
      <use x="553.382812" xlink:href="#DejaVuSans-6f"/>
      <use x="614.564453" xlink:href="#DejaVuSans-73"/>
      <use x="666.664062" xlink:href="#DejaVuSans-73"/>
     </g>
    </g>
   </g>
  </g>
 </g>
 <defs>
  <clipPath id="p680db28b8b">
   <rect height="266.112" width="357.12" x="57.6" y="41.472"/>
  </clipPath>
 </defs>
</svg>
