<?xml version="1.0" encoding="utf-8" standalone="no"?>
<!DOCTYPE svg PUBLIC "-//W3C//DTD SVG 1.1//EN"
  "http://www.w3.org/Graphics/SVG/1.1/DTD/svg11.dtd">
<svg height="345.6pt" version="1.1" viewBox="0 0 460.8 345.6" width="460.8pt" xmlns="http://www.w3.org/2000/svg" xmlns:xlink="http://www.w3.org/1999/xlink">
 <metadata>
  <rdf:RDF xmlns:cc="http://creativecommons.org/ns#" xmlns:dc="http://purl.org/dc/elements/1.1/" xmlns:rdf="http://www.w3.org/1999/02/22-rdf-syntax-ns#">
   <cc:Work>
    <dc:type rdf:resource="http://purl.org/dc/dcmitype/StillImage"/>
    <dc:date>2021-07-28T22:53:53.517175</dc:date>
    <dc:format>image/svg+xml</dc:format>
    <dc:creator>
     <cc:Agent>
      <dc:title>Matplotlib v3.4.1, https://matplotlib.org/</dc:title>
     </cc:Agent>
    </dc:creator>
   </cc:Work>
  </rdf:RDF>
 </metadata>
 <defs>
  <style type="text/css">*{stroke-linecap:butt;stroke-linejoin:round;}</style>
 </defs>
 <g id="figure_1">
  <g id="patch_1">
   <path d="M 0 345.6 
L 460.8 345.6 
L 460.8 0 
L 0 0 
z
" style="fill:#ffffff;"/>
  </g>
  <g id="axes_1">
   <g id="patch_2">
    <path d="M 57.6 307.584 
L 414.72 307.584 
L 414.72 41.472 
L 57.6 41.472 
z
" style="fill:#ffffff;"/>
   </g>
   <g id="matplotlib.axis_1">
    <g id="xtick_1">
     <g id="line2d_1">
      <defs>
       <path d="M 0 0 
L 0 3.5 
" id="m8074ac2316" style="stroke:#000000;stroke-width:0.8;"/>
      </defs>
      <g>
       <use style="stroke:#000000;stroke-width:0.8;" x="73.582801" xlink:href="#m8074ac2316" y="307.584"/>
      </g>
     </g>
     <g id="text_1">
      <!-- 0 -->
      <g transform="translate(70.401551 322.182437)scale(0.1 -0.1)">
       <defs>
        <path d="M 2034 4250 
Q 1547 4250 1301 3770 
Q 1056 3291 1056 2328 
Q 1056 1369 1301 889 
Q 1547 409 2034 409 
Q 2525 409 2770 889 
Q 3016 1369 3016 2328 
Q 3016 3291 2770 3770 
Q 2525 4250 2034 4250 
z
M 2034 4750 
Q 2819 4750 3233 4129 
Q 3647 3509 3647 2328 
Q 3647 1150 3233 529 
Q 2819 -91 2034 -91 
Q 1250 -91 836 529 
Q 422 1150 422 2328 
Q 422 3509 836 4129 
Q 1250 4750 2034 4750 
z
" id="DejaVuSans-30" transform="scale(0.015625)"/>
       </defs>
       <use xlink:href="#DejaVuSans-30"/>
      </g>
     </g>
    </g>
    <g id="xtick_2">
     <g id="line2d_2">
      <g>
       <use style="stroke:#000000;stroke-width:0.8;" x="123.568104" xlink:href="#m8074ac2316" y="307.584"/>
      </g>
     </g>
     <g id="text_2">
      <!-- 200 -->
      <g transform="translate(114.024354 322.182437)scale(0.1 -0.1)">
       <defs>
        <path d="M 1228 531 
L 3431 531 
L 3431 0 
L 469 0 
L 469 531 
Q 828 903 1448 1529 
Q 2069 2156 2228 2338 
Q 2531 2678 2651 2914 
Q 2772 3150 2772 3378 
Q 2772 3750 2511 3984 
Q 2250 4219 1831 4219 
Q 1534 4219 1204 4116 
Q 875 4013 500 3803 
L 500 4441 
Q 881 4594 1212 4672 
Q 1544 4750 1819 4750 
Q 2544 4750 2975 4387 
Q 3406 4025 3406 3419 
Q 3406 3131 3298 2873 
Q 3191 2616 2906 2266 
Q 2828 2175 2409 1742 
Q 1991 1309 1228 531 
z
" id="DejaVuSans-32" transform="scale(0.015625)"/>
       </defs>
       <use xlink:href="#DejaVuSans-32"/>
       <use x="63.623047" xlink:href="#DejaVuSans-30"/>
       <use x="127.246094" xlink:href="#DejaVuSans-30"/>
      </g>
     </g>
    </g>
    <g id="xtick_3">
     <g id="line2d_3">
      <g>
       <use style="stroke:#000000;stroke-width:0.8;" x="173.553408" xlink:href="#m8074ac2316" y="307.584"/>
      </g>
     </g>
     <g id="text_3">
      <!-- 400 -->
      <g transform="translate(164.009658 322.182437)scale(0.1 -0.1)">
       <defs>
        <path d="M 2419 4116 
L 825 1625 
L 2419 1625 
L 2419 4116 
z
M 2253 4666 
L 3047 4666 
L 3047 1625 
L 3713 1625 
L 3713 1100 
L 3047 1100 
L 3047 0 
L 2419 0 
L 2419 1100 
L 313 1100 
L 313 1709 
L 2253 4666 
z
" id="DejaVuSans-34" transform="scale(0.015625)"/>
       </defs>
       <use xlink:href="#DejaVuSans-34"/>
       <use x="63.623047" xlink:href="#DejaVuSans-30"/>
       <use x="127.246094" xlink:href="#DejaVuSans-30"/>
      </g>
     </g>
    </g>
    <g id="xtick_4">
     <g id="line2d_4">
      <g>
       <use style="stroke:#000000;stroke-width:0.8;" x="223.538711" xlink:href="#m8074ac2316" y="307.584"/>
      </g>
     </g>
     <g id="text_4">
      <!-- 600 -->
      <g transform="translate(213.994961 322.182437)scale(0.1 -0.1)">
       <defs>
        <path d="M 2113 2584 
Q 1688 2584 1439 2293 
Q 1191 2003 1191 1497 
Q 1191 994 1439 701 
Q 1688 409 2113 409 
Q 2538 409 2786 701 
Q 3034 994 3034 1497 
Q 3034 2003 2786 2293 
Q 2538 2584 2113 2584 
z
M 3366 4563 
L 3366 3988 
Q 3128 4100 2886 4159 
Q 2644 4219 2406 4219 
Q 1781 4219 1451 3797 
Q 1122 3375 1075 2522 
Q 1259 2794 1537 2939 
Q 1816 3084 2150 3084 
Q 2853 3084 3261 2657 
Q 3669 2231 3669 1497 
Q 3669 778 3244 343 
Q 2819 -91 2113 -91 
Q 1303 -91 875 529 
Q 447 1150 447 2328 
Q 447 3434 972 4092 
Q 1497 4750 2381 4750 
Q 2619 4750 2861 4703 
Q 3103 4656 3366 4563 
z
" id="DejaVuSans-36" transform="scale(0.015625)"/>
       </defs>
       <use xlink:href="#DejaVuSans-36"/>
       <use x="63.623047" xlink:href="#DejaVuSans-30"/>
       <use x="127.246094" xlink:href="#DejaVuSans-30"/>
      </g>
     </g>
    </g>
    <g id="xtick_5">
     <g id="line2d_5">
      <g>
       <use style="stroke:#000000;stroke-width:0.8;" x="273.524014" xlink:href="#m8074ac2316" y="307.584"/>
      </g>
     </g>
     <g id="text_5">
      <!-- 800 -->
      <g transform="translate(263.980264 322.182437)scale(0.1 -0.1)">
       <defs>
        <path d="M 2034 2216 
Q 1584 2216 1326 1975 
Q 1069 1734 1069 1313 
Q 1069 891 1326 650 
Q 1584 409 2034 409 
Q 2484 409 2743 651 
Q 3003 894 3003 1313 
Q 3003 1734 2745 1975 
Q 2488 2216 2034 2216 
z
M 1403 2484 
Q 997 2584 770 2862 
Q 544 3141 544 3541 
Q 544 4100 942 4425 
Q 1341 4750 2034 4750 
Q 2731 4750 3128 4425 
Q 3525 4100 3525 3541 
Q 3525 3141 3298 2862 
Q 3072 2584 2669 2484 
Q 3125 2378 3379 2068 
Q 3634 1759 3634 1313 
Q 3634 634 3220 271 
Q 2806 -91 2034 -91 
Q 1263 -91 848 271 
Q 434 634 434 1313 
Q 434 1759 690 2068 
Q 947 2378 1403 2484 
z
M 1172 3481 
Q 1172 3119 1398 2916 
Q 1625 2713 2034 2713 
Q 2441 2713 2670 2916 
Q 2900 3119 2900 3481 
Q 2900 3844 2670 4047 
Q 2441 4250 2034 4250 
Q 1625 4250 1398 4047 
Q 1172 3844 1172 3481 
z
" id="DejaVuSans-38" transform="scale(0.015625)"/>
       </defs>
       <use xlink:href="#DejaVuSans-38"/>
       <use x="63.623047" xlink:href="#DejaVuSans-30"/>
       <use x="127.246094" xlink:href="#DejaVuSans-30"/>
      </g>
     </g>
    </g>
    <g id="xtick_6">
     <g id="line2d_6">
      <g>
       <use style="stroke:#000000;stroke-width:0.8;" x="323.509318" xlink:href="#m8074ac2316" y="307.584"/>
      </g>
     </g>
     <g id="text_6">
      <!-- 1000 -->
      <g transform="translate(310.784318 322.182437)scale(0.1 -0.1)">
       <defs>
        <path d="M 794 531 
L 1825 531 
L 1825 4091 
L 703 3866 
L 703 4441 
L 1819 4666 
L 2450 4666 
L 2450 531 
L 3481 531 
L 3481 0 
L 794 0 
L 794 531 
z
" id="DejaVuSans-31" transform="scale(0.015625)"/>
       </defs>
       <use xlink:href="#DejaVuSans-31"/>
       <use x="63.623047" xlink:href="#DejaVuSans-30"/>
       <use x="127.246094" xlink:href="#DejaVuSans-30"/>
       <use x="190.869141" xlink:href="#DejaVuSans-30"/>
      </g>
     </g>
    </g>
    <g id="xtick_7">
     <g id="line2d_7">
      <g>
       <use style="stroke:#000000;stroke-width:0.8;" x="373.494621" xlink:href="#m8074ac2316" y="307.584"/>
      </g>
     </g>
     <g id="text_7">
      <!-- 1200 -->
      <g transform="translate(360.769621 322.182437)scale(0.1 -0.1)">
       <use xlink:href="#DejaVuSans-31"/>
       <use x="63.623047" xlink:href="#DejaVuSans-32"/>
       <use x="127.246094" xlink:href="#DejaVuSans-30"/>
       <use x="190.869141" xlink:href="#DejaVuSans-30"/>
      </g>
     </g>
    </g>
    <g id="text_8">
     <!-- Epoch -->
     <g transform="translate(213.193594 339.659781)scale(0.15 -0.15)">
      <defs>
       <path d="M 628 4666 
L 3578 4666 
L 3578 4134 
L 1259 4134 
L 1259 2753 
L 3481 2753 
L 3481 2222 
L 1259 2222 
L 1259 531 
L 3634 531 
L 3634 0 
L 628 0 
L 628 4666 
z
" id="DejaVuSans-45" transform="scale(0.015625)"/>
       <path d="M 1159 525 
L 1159 -1331 
L 581 -1331 
L 581 3500 
L 1159 3500 
L 1159 2969 
Q 1341 3281 1617 3432 
Q 1894 3584 2278 3584 
Q 2916 3584 3314 3078 
Q 3713 2572 3713 1747 
Q 3713 922 3314 415 
Q 2916 -91 2278 -91 
Q 1894 -91 1617 61 
Q 1341 213 1159 525 
z
M 3116 1747 
Q 3116 2381 2855 2742 
Q 2594 3103 2138 3103 
Q 1681 3103 1420 2742 
Q 1159 2381 1159 1747 
Q 1159 1113 1420 752 
Q 1681 391 2138 391 
Q 2594 391 2855 752 
Q 3116 1113 3116 1747 
z
" id="DejaVuSans-70" transform="scale(0.015625)"/>
       <path d="M 1959 3097 
Q 1497 3097 1228 2736 
Q 959 2375 959 1747 
Q 959 1119 1226 758 
Q 1494 397 1959 397 
Q 2419 397 2687 759 
Q 2956 1122 2956 1747 
Q 2956 2369 2687 2733 
Q 2419 3097 1959 3097 
z
M 1959 3584 
Q 2709 3584 3137 3096 
Q 3566 2609 3566 1747 
Q 3566 888 3137 398 
Q 2709 -91 1959 -91 
Q 1206 -91 779 398 
Q 353 888 353 1747 
Q 353 2609 779 3096 
Q 1206 3584 1959 3584 
z
" id="DejaVuSans-6f" transform="scale(0.015625)"/>
       <path d="M 3122 3366 
L 3122 2828 
Q 2878 2963 2633 3030 
Q 2388 3097 2138 3097 
Q 1578 3097 1268 2742 
Q 959 2388 959 1747 
Q 959 1106 1268 751 
Q 1578 397 2138 397 
Q 2388 397 2633 464 
Q 2878 531 3122 666 
L 3122 134 
Q 2881 22 2623 -34 
Q 2366 -91 2075 -91 
Q 1284 -91 818 406 
Q 353 903 353 1747 
Q 353 2603 823 3093 
Q 1294 3584 2113 3584 
Q 2378 3584 2631 3529 
Q 2884 3475 3122 3366 
z
" id="DejaVuSans-63" transform="scale(0.015625)"/>
       <path d="M 3513 2113 
L 3513 0 
L 2938 0 
L 2938 2094 
Q 2938 2591 2744 2837 
Q 2550 3084 2163 3084 
Q 1697 3084 1428 2787 
Q 1159 2491 1159 1978 
L 1159 0 
L 581 0 
L 581 4863 
L 1159 4863 
L 1159 2956 
Q 1366 3272 1645 3428 
Q 1925 3584 2291 3584 
Q 2894 3584 3203 3211 
Q 3513 2838 3513 2113 
z
" id="DejaVuSans-68" transform="scale(0.015625)"/>
      </defs>
      <use xlink:href="#DejaVuSans-45"/>
      <use x="63.183594" xlink:href="#DejaVuSans-70"/>
      <use x="126.660156" xlink:href="#DejaVuSans-6f"/>
      <use x="187.841797" xlink:href="#DejaVuSans-63"/>
      <use x="242.822266" xlink:href="#DejaVuSans-68"/>
     </g>
    </g>
   </g>
   <g id="matplotlib.axis_2">
    <g id="ytick_1">
     <g id="line2d_8">
      <defs>
       <path d="M 0 0 
L -3.5 0 
" id="m3c1584b132" style="stroke:#000000;stroke-width:0.8;"/>
      </defs>
      <g>
       <use style="stroke:#000000;stroke-width:0.8;" x="57.6" xlink:href="#m3c1584b132" y="287.608956"/>
      </g>
     </g>
     <g id="text_9">
      <!-- −3000 -->
      <g transform="translate(16.770313 291.408175)scale(0.1 -0.1)">
       <defs>
        <path d="M 678 2272 
L 4684 2272 
L 4684 1741 
L 678 1741 
L 678 2272 
z
" id="DejaVuSans-2212" transform="scale(0.015625)"/>
        <path d="M 2597 2516 
Q 3050 2419 3304 2112 
Q 3559 1806 3559 1356 
Q 3559 666 3084 287 
Q 2609 -91 1734 -91 
Q 1441 -91 1130 -33 
Q 819 25 488 141 
L 488 750 
Q 750 597 1062 519 
Q 1375 441 1716 441 
Q 2309 441 2620 675 
Q 2931 909 2931 1356 
Q 2931 1769 2642 2001 
Q 2353 2234 1838 2234 
L 1294 2234 
L 1294 2753 
L 1863 2753 
Q 2328 2753 2575 2939 
Q 2822 3125 2822 3475 
Q 2822 3834 2567 4026 
Q 2313 4219 1838 4219 
Q 1578 4219 1281 4162 
Q 984 4106 628 3988 
L 628 4550 
Q 988 4650 1302 4700 
Q 1616 4750 1894 4750 
Q 2613 4750 3031 4423 
Q 3450 4097 3450 3541 
Q 3450 3153 3228 2886 
Q 3006 2619 2597 2516 
z
" id="DejaVuSans-33" transform="scale(0.015625)"/>
       </defs>
       <use xlink:href="#DejaVuSans-2212"/>
       <use x="83.789062" xlink:href="#DejaVuSans-33"/>
       <use x="147.412109" xlink:href="#DejaVuSans-30"/>
       <use x="211.035156" xlink:href="#DejaVuSans-30"/>
       <use x="274.658203" xlink:href="#DejaVuSans-30"/>
      </g>
     </g>
    </g>
    <g id="ytick_2">
     <g id="line2d_9">
      <g>
       <use style="stroke:#000000;stroke-width:0.8;" x="57.6" xlink:href="#m3c1584b132" y="251.65897"/>
      </g>
     </g>
     <g id="text_10">
      <!-- −2500 -->
      <g transform="translate(16.770313 255.458189)scale(0.1 -0.1)">
       <defs>
        <path d="M 691 4666 
L 3169 4666 
L 3169 4134 
L 1269 4134 
L 1269 2991 
Q 1406 3038 1543 3061 
Q 1681 3084 1819 3084 
Q 2600 3084 3056 2656 
Q 3513 2228 3513 1497 
Q 3513 744 3044 326 
Q 2575 -91 1722 -91 
Q 1428 -91 1123 -41 
Q 819 9 494 109 
L 494 744 
Q 775 591 1075 516 
Q 1375 441 1709 441 
Q 2250 441 2565 725 
Q 2881 1009 2881 1497 
Q 2881 1984 2565 2268 
Q 2250 2553 1709 2553 
Q 1456 2553 1204 2497 
Q 953 2441 691 2322 
L 691 4666 
z
" id="DejaVuSans-35" transform="scale(0.015625)"/>
       </defs>
       <use xlink:href="#DejaVuSans-2212"/>
       <use x="83.789062" xlink:href="#DejaVuSans-32"/>
       <use x="147.412109" xlink:href="#DejaVuSans-35"/>
       <use x="211.035156" xlink:href="#DejaVuSans-30"/>
       <use x="274.658203" xlink:href="#DejaVuSans-30"/>
      </g>
     </g>
    </g>
    <g id="ytick_3">
     <g id="line2d_10">
      <g>
       <use style="stroke:#000000;stroke-width:0.8;" x="57.6" xlink:href="#m3c1584b132" y="215.708985"/>
      </g>
     </g>
     <g id="text_11">
      <!-- −2000 -->
      <g transform="translate(16.770313 219.508203)scale(0.1 -0.1)">
       <use xlink:href="#DejaVuSans-2212"/>
       <use x="83.789062" xlink:href="#DejaVuSans-32"/>
       <use x="147.412109" xlink:href="#DejaVuSans-30"/>
       <use x="211.035156" xlink:href="#DejaVuSans-30"/>
       <use x="274.658203" xlink:href="#DejaVuSans-30"/>
      </g>
     </g>
    </g>
    <g id="ytick_4">
     <g id="line2d_11">
      <g>
       <use style="stroke:#000000;stroke-width:0.8;" x="57.6" xlink:href="#m3c1584b132" y="179.758999"/>
      </g>
     </g>
     <g id="text_12">
      <!-- −1500 -->
      <g transform="translate(16.770313 183.558218)scale(0.1 -0.1)">
       <use xlink:href="#DejaVuSans-2212"/>
       <use x="83.789062" xlink:href="#DejaVuSans-31"/>
       <use x="147.412109" xlink:href="#DejaVuSans-35"/>
       <use x="211.035156" xlink:href="#DejaVuSans-30"/>
       <use x="274.658203" xlink:href="#DejaVuSans-30"/>
      </g>
     </g>
    </g>
    <g id="ytick_5">
     <g id="line2d_12">
      <g>
       <use style="stroke:#000000;stroke-width:0.8;" x="57.6" xlink:href="#m3c1584b132" y="143.809013"/>
      </g>
     </g>
     <g id="text_13">
      <!-- −1000 -->
      <g transform="translate(16.770313 147.608232)scale(0.1 -0.1)">
       <use xlink:href="#DejaVuSans-2212"/>
       <use x="83.789062" xlink:href="#DejaVuSans-31"/>
       <use x="147.412109" xlink:href="#DejaVuSans-30"/>
       <use x="211.035156" xlink:href="#DejaVuSans-30"/>
       <use x="274.658203" xlink:href="#DejaVuSans-30"/>
      </g>
     </g>
    </g>
    <g id="ytick_6">
     <g id="line2d_13">
      <g>
       <use style="stroke:#000000;stroke-width:0.8;" x="57.6" xlink:href="#m3c1584b132" y="107.859027"/>
      </g>
     </g>
     <g id="text_14">
      <!-- −500 -->
      <g transform="translate(23.132812 111.658246)scale(0.1 -0.1)">
       <use xlink:href="#DejaVuSans-2212"/>
       <use x="83.789062" xlink:href="#DejaVuSans-35"/>
       <use x="147.412109" xlink:href="#DejaVuSans-30"/>
       <use x="211.035156" xlink:href="#DejaVuSans-30"/>
      </g>
     </g>
    </g>
    <g id="ytick_7">
     <g id="line2d_14">
      <g>
       <use style="stroke:#000000;stroke-width:0.8;" x="57.6" xlink:href="#m3c1584b132" y="71.909042"/>
      </g>
     </g>
     <g id="text_15">
      <!-- 0 -->
      <g transform="translate(44.2375 75.708261)scale(0.1 -0.1)">
       <use xlink:href="#DejaVuSans-30"/>
      </g>
     </g>
    </g>
   </g>
   <g id="line2d_15">
    <path clip-path="url(#pbdc7247db9)" d="M 73.832727 53.568 
L 74.082654 88.677231 
L 74.582507 108.239887 
L 74.832433 109.757058 
L 75.08236 113.743441 
L 75.332286 113.566151 
L 75.582213 120.324815 
L 75.832139 119.392448 
L 76.082066 120.93505 
L 76.581919 127.337293 
L 77.081772 124.422824 
L 77.331699 131.436767 
L 77.581625 130.524217 
L 77.831552 134.193872 
L 78.081478 133.111972 
L 78.331405 138.136374 
L 78.581331 140.275408 
L 78.831258 146.784471 
L 79.081184 146.460796 
L 79.331111 155.747938 
L 79.581037 159.496753 
L 79.830964 154.563714 
L 80.08089 159.841701 
L 80.330817 162.267419 
L 80.580743 163.134938 
L 80.83067 158.339548 
L 81.080596 163.902365 
L 81.330523 165.78031 
L 81.580449 163.947657 
L 82.080302 174.326734 
L 82.330229 171.130454 
L 82.580155 171.136401 
L 82.830082 176.516947 
L 83.080008 172.518646 
L 83.329935 179.705973 
L 83.579861 176.089521 
L 84.079714 181.832518 
L 84.329641 179.169155 
L 84.829494 182.825059 
L 85.079421 182.280176 
L 85.329347 180.401157 
L 85.579274 187.985023 
L 85.8292 178.613298 
L 86.079127 182.357731 
L 86.329053 183.747534 
L 86.828906 192.040617 
L 87.078833 192.188354 
L 87.328759 185.200258 
L 87.578686 187.583436 
L 87.828612 193.105481 
L 88.078539 193.818835 
L 88.328465 192.605385 
L 88.578392 195.916403 
L 88.828318 193.336124 
L 89.078245 199.395157 
L 89.328171 198.890117 
L 89.578098 195.925076 
L 89.828024 198.276236 
L 90.077951 208.489709 
L 90.327877 204.011971 
L 90.577804 201.842776 
L 90.82773 211.776929 
L 91.077657 215.69103 
L 91.327583 214.942327 
L 91.57751 215.171357 
L 91.827436 215.574396 
L 92.077363 214.328205 
L 92.32729 215.634871 
L 92.577216 217.763839 
L 92.827143 215.283002 
L 93.077069 223.738578 
L 93.326996 223.539301 
L 93.576922 209.251283 
L 93.826849 224.394032 
L 94.076775 225.300361 
L 94.326702 222.143685 
L 94.826555 225.007937 
L 95.076481 234.43554 
L 95.326408 227.284917 
L 95.576334 226.26591 
L 95.826261 226.398056 
L 96.076187 232.496377 
L 96.326114 232.699961 
L 96.57604 224.215748 
L 96.825967 227.703987 
L 97.075893 234.978148 
L 97.32582 233.181299 
L 97.825673 231.452127 
L 98.075599 222.271493 
L 98.325526 235.816667 
L 98.575452 241.094582 
L 98.825379 233.773357 
L 99.075305 220.416328 
L 99.325232 241.444295 
L 99.575159 243.178738 
L 99.825085 243.638548 
L 100.075012 240.7829 
L 100.324938 244.905178 
L 100.574865 243.131699 
L 100.824791 253.282507 
L 101.074718 242.64277 
L 101.324644 240.992372 
L 101.574571 248.294158 
L 101.824497 239.638795 
L 102.32435 247.462814 
L 102.574277 242.15886 
L 102.824203 250.668349 
L 103.07413 241.700931 
L 103.324056 240.434493 
L 103.573983 245.81394 
L 103.823909 236.910784 
L 104.073836 243.093533 
L 104.323762 243.92573 
L 104.573689 246.411024 
L 104.823615 237.283757 
L 105.073542 240.384086 
L 105.323468 237.826923 
L 105.573395 237.957187 
L 105.823321 243.46486 
L 106.073248 238.829895 
L 106.323174 237.685063 
L 106.573101 244.620483 
L 106.823028 237.071368 
L 107.072954 245.383875 
L 107.322881 243.307439 
L 107.572807 248.64202 
L 107.822734 250.406343 
L 108.07266 243.394004 
L 108.322587 245.454056 
L 108.572513 236.965864 
L 109.072366 244.256811 
L 109.322293 246.067414 
L 109.572219 245.772571 
L 109.822146 239.619176 
L 110.072072 250.833846 
L 110.321999 246.51643 
L 110.571925 251.593139 
L 110.821852 249.838284 
L 111.071778 253.476696 
L 111.571631 240.202723 
L 111.821558 246.241442 
L 112.071484 247.464359 
L 112.321411 251.017518 
L 112.571337 250.933715 
L 112.821264 243.875912 
L 113.07119 248.694567 
L 113.321117 248.986288 
L 113.571043 249.498268 
L 113.82097 259.742109 
L 114.070896 251.655036 
L 114.320823 257.224527 
L 114.57075 256.901947 
L 114.820676 255.410937 
L 115.070603 250.837511 
L 115.320529 256.291566 
L 115.570456 247.055131 
L 115.820382 261.0305 
L 116.070309 246.77099 
L 116.320235 254.296673 
L 116.570162 253.695742 
L 116.820088 255.668921 
L 117.070015 243.1555 
L 117.319941 260.435002 
L 117.569868 262.903637 
L 117.819794 260.351933 
L 118.069721 250.578987 
L 118.319647 261.825894 
L 118.569574 251.429697 
L 118.8195 247.709553 
L 119.069427 254.230274 
L 119.319353 253.368507 
L 119.56928 260.544794 
L 120.069133 259.258273 
L 120.319059 266.547274 
L 120.568986 262.330495 
L 120.818912 261.177882 
L 121.068839 256.671486 
L 121.318765 257.029704 
L 121.568692 256.638768 
L 121.818619 254.721394 
L 122.068545 259.766044 
L 122.318472 261.563059 
L 122.568398 260.14618 
L 122.818325 255.30046 
L 123.068251 260.416582 
L 123.568104 256.838952 
L 123.818031 262.839122 
L 124.067957 253.162926 
L 124.317884 260.030099 
L 124.56781 254.658299 
L 124.817737 266.108943 
L 125.067663 263.763946 
L 125.31759 256.866265 
L 125.567516 256.244699 
L 125.817443 258.109181 
L 126.067369 261.725447 
L 126.317296 262.340099 
L 126.567222 257.370285 
L 126.817149 255.010647 
L 127.067075 249.999312 
L 127.317002 264.174884 
L 127.566928 261.091835 
L 127.816855 261.591008 
L 128.066781 262.385703 
L 128.316708 260.449922 
L 128.566634 265.659134 
L 128.816561 259.661163 
L 129.066488 268.956439 
L 129.316414 259.313751 
L 129.566341 258.091975 
L 129.816267 258.930212 
L 130.066194 264.798864 
L 130.31612 264.258785 
L 130.566047 260.879398 
L 130.815973 269.11329 
L 131.0659 259.767786 
L 131.315826 267.323344 
L 131.565753 262.523235 
L 131.815679 268.338721 
L 132.065606 265.798534 
L 132.315532 257.801503 
L 132.565459 268.548597 
L 132.815385 269.8085 
L 133.065312 266.292952 
L 133.315238 264.875844 
L 133.565165 254.193417 
L 133.815091 260.936745 
L 134.065018 260.243768 
L 134.314944 258.715882 
L 134.564871 269.824619 
L 134.814797 258.494029 
L 135.064724 266.165636 
L 135.31465 262.951366 
L 135.564577 263.459774 
L 135.814503 267.923723 
L 136.06443 265.39426 
L 136.314356 269.121511 
L 136.564283 269.33829 
L 137.314063 260.937155 
L 137.563989 267.670612 
L 137.813916 266.956937 
L 138.063842 261.591375 
L 138.313769 268.28027 
L 138.563695 261.409404 
L 138.813622 264.927909 
L 139.063548 260.502954 
L 139.313475 259.478184 
L 139.563401 273.305907 
L 139.813328 259.643159 
L 140.063254 269.988284 
L 140.313181 264.045325 
L 140.563107 265.82773 
L 140.813034 268.908374 
L 141.06296 262.846235 
L 141.312887 264.850377 
L 141.562813 252.841907 
L 141.81274 270.639551 
L 142.062666 261.350701 
L 142.312593 268.062244 
L 142.562519 263.042192 
L 142.812446 265.662743 
L 143.062372 269.697157 
L 143.312299 269.788634 
L 143.562225 267.600463 
L 143.812152 271.448556 
L 144.062079 271.922431 
L 144.312005 264.703561 
L 144.561932 273.09785 
L 144.811858 264.084431 
L 145.061785 269.351829 
L 145.311711 266.731298 
L 145.561638 266.965752 
L 145.811564 267.655594 
L 146.061491 275.021883 
L 146.311417 273.322054 
L 146.81127 258.260982 
L 147.061197 271.538254 
L 147.810976 262.958838 
L 148.060903 274.51772 
L 148.310829 261.622763 
L 148.560756 265.97622 
L 148.810682 265.126905 
L 149.060609 261.361978 
L 149.310535 268.435409 
L 149.560462 261.756887 
L 149.810388 276.033448 
L 150.060315 267.887907 
L 150.310241 265.012813 
L 150.560168 271.680908 
L 150.810094 269.582263 
L 151.060021 269.562801 
L 151.309948 274.666596 
L 151.809801 260.285978 
L 152.059727 268.145538 
L 152.309654 266.358135 
L 152.55958 263.186772 
L 152.809507 264.84419 
L 153.059433 269.187604 
L 153.559286 261.228679 
L 153.809213 275.878531 
L 154.059139 263.904993 
L 154.309066 269.834812 
L 154.558992 258.538792 
L 155.058845 274.935327 
L 155.308772 267.377175 
L 155.558698 269.91048 
L 155.808625 275.452417 
L 156.058551 272.117669 
L 156.308478 270.922292 
L 156.558404 270.504051 
L 156.808331 273.8118 
L 157.058257 268.759815 
L 157.308184 266.791747 
L 157.55811 271.023358 
L 157.808037 269.638165 
L 158.057963 276.564664 
L 158.557817 267.235023 
L 158.807743 277.177371 
L 159.05767 264.657803 
L 159.307596 271.537525 
L 159.557523 267.840593 
L 159.807449 272.622215 
L 160.307302 261.337248 
L 160.807155 271.451401 
L 161.057082 267.781495 
L 161.307008 270.572586 
L 161.556935 278.770752 
L 161.806861 270.848429 
L 162.306714 268.055156 
L 162.806567 273.782774 
L 163.056494 269.739918 
L 163.30642 269.427898 
L 163.556347 271.15757 
L 163.806273 271.216452 
L 164.306126 274.566514 
L 164.556053 268.333929 
L 164.805979 275.773245 
L 165.055906 272.905336 
L 165.305832 266.616518 
L 165.555759 267.766016 
L 165.805685 265.258215 
L 166.055612 274.9552 
L 166.305539 270.371708 
L 166.555465 270.27855 
L 166.805392 252.709579 
L 167.055318 272.130324 
L 167.305245 272.107186 
L 167.555171 278.19676 
L 167.805098 272.092069 
L 168.055024 273.310741 
L 168.304951 271.341075 
L 168.554877 271.532582 
L 168.804804 273.125626 
L 169.05473 269.373574 
L 169.304657 269.823647 
L 169.554583 275.426976 
L 169.80451 270.839169 
L 170.054436 268.761994 
L 170.304363 268.587516 
L 170.554289 271.248087 
L 170.804216 277.645288 
L 171.054142 271.59057 
L 171.304069 277.462843 
L 171.553995 261.176282 
L 171.803922 266.428237 
L 172.053848 277.069774 
L 172.303775 269.317487 
L 172.553701 271.875438 
L 172.803628 271.381758 
L 173.053554 272.144607 
L 173.303481 270.202692 
L 173.553408 269.28364 
L 173.803334 271.894271 
L 174.053261 259.30115 
L 174.303187 274.068032 
L 174.553114 277.779213 
L 174.80304 278.524204 
L 175.052967 278.01932 
L 175.302893 267.843161 
L 175.55282 267.04289 
L 175.802746 273.857847 
L 176.052673 272.126552 
L 176.302599 273.411702 
L 176.552526 277.050342 
L 176.802452 269.428544 
L 177.302305 278.420555 
L 177.552232 270.911825 
L 177.802158 271.777938 
L 178.052085 279.2197 
L 178.302011 273.279285 
L 178.551938 275.064306 
L 178.801864 271.616351 
L 179.051791 270.209707 
L 179.301717 271.604119 
L 179.551644 276.328162 
L 179.80157 265.854227 
L 180.051497 277.257395 
L 180.301423 269.537266 
L 180.55135 275.996463 
L 180.801277 268.46194 
L 181.051203 272.956311 
L 181.30113 272.936504 
L 181.551056 280.184865 
L 181.800983 277.415281 
L 182.050909 272.948026 
L 182.300836 271.209943 
L 182.550762 275.638164 
L 182.800689 278.082952 
L 183.050615 277.659935 
L 183.300542 276.258712 
L 183.550468 265.894496 
L 184.050321 272.020044 
L 184.300248 271.270921 
L 184.550174 281.217724 
L 184.800101 272.548153 
L 185.54988 276.275166 
L 185.799807 274.327485 
L 186.049733 277.169306 
L 186.29966 274.953313 
L 186.549586 276.666107 
L 186.799513 272.062689 
L 187.049439 264.595055 
L 187.299366 278.091749 
L 187.549292 268.870278 
L 187.799219 267.715083 
L 188.049145 277.839774 
L 188.299072 269.582747 
L 188.548999 269.788825 
L 188.798925 270.686183 
L 189.048852 275.893459 
L 189.298778 277.562447 
L 189.548705 275.304766 
L 189.798631 263.84624 
L 190.298484 283.291175 
L 190.548411 276.985692 
L 190.798337 280.173259 
L 191.048264 274.459301 
L 191.29819 274.688684 
L 191.548117 268.525983 
L 192.04797 276.350846 
L 192.297896 268.171835 
L 192.797749 283.266626 
L 193.047676 273.994545 
L 193.297602 273.333395 
L 193.547529 277.920207 
L 193.797455 271.95868 
L 194.047382 269.539757 
L 194.297308 279.268309 
L 194.547235 276.446344 
L 194.797161 276.138166 
L 195.047088 273.615451 
L 195.297014 275.768232 
L 195.546941 272.974981 
L 195.796868 274.682546 
L 196.046794 282.297649 
L 196.296721 275.472344 
L 196.546647 274.359799 
L 196.796574 274.02332 
L 197.0465 280.543363 
L 197.296427 274.044831 
L 197.546353 275.631352 
L 197.79628 274.911628 
L 198.046206 278.771018 
L 198.296133 275.320004 
L 198.546059 269.400757 
L 199.045912 265.341752 
L 199.545765 279.478579 
L 199.795692 276.067333 
L 200.045618 280.679569 
L 200.295545 273.361585 
L 200.545471 273.25369 
L 200.795398 283.353254 
L 201.045324 269.246582 
L 201.295251 274.698327 
L 201.545177 273.973183 
L 201.795104 271.898891 
L 202.04503 277.872144 
L 202.294957 267.840647 
L 202.544883 278.594269 
L 202.79481 275.490688 
L 203.044737 276.181061 
L 203.294663 272.970959 
L 203.54459 273.967556 
L 203.794516 272.750594 
L 204.044443 279.255101 
L 204.544296 270.981981 
L 204.794222 273.179334 
L 205.044149 269.459224 
L 205.294075 270.728392 
L 205.544002 278.473495 
L 205.793928 279.360863 
L 206.043855 270.867776 
L 206.293781 279.542284 
L 206.543708 272.614775 
L 206.793634 280.397971 
L 207.043561 279.479749 
L 207.293487 274.474059 
L 207.543414 275.70387 
L 207.79334 268.120424 
L 208.043267 282.137076 
L 208.293193 272.542658 
L 208.54312 271.408604 
L 208.793046 269.071502 
L 209.042973 279.310515 
L 209.292899 275.525494 
L 209.542826 278.046731 
L 209.792752 274.207488 
L 210.042679 274.24343 
L 210.292606 276.248908 
L 210.542532 267.662223 
L 210.792459 284.341987 
L 211.292312 277.625783 
L 211.542238 271.956445 
L 211.792165 277.820174 
L 212.042091 279.673757 
L 212.292018 275.426654 
L 212.541944 282.827141 
L 212.791871 272.418714 
L 213.041797 274.897138 
L 213.291724 279.600717 
L 213.54165 275.837273 
L 213.791577 276.571966 
L 214.29143 273.893734 
L 214.541356 274.961087 
L 214.791283 281.403514 
L 215.041209 282.672052 
L 215.291136 264.497957 
L 215.541062 278.059373 
L 215.790989 279.67974 
L 216.290842 276.578974 
L 216.540768 275.404455 
L 216.790695 273.339652 
L 217.040621 274.395055 
L 217.290548 276.996795 
L 217.790401 266.731892 
L 218.040328 277.914059 
L 218.290254 276.687654 
L 218.540181 277.753769 
L 219.040034 275.384281 
L 219.28996 275.704914 
L 219.539887 274.888653 
L 220.03974 282.21156 
L 220.289666 280.333765 
L 220.539593 269.487965 
L 220.789519 280.21803 
L 221.039446 271.369877 
L 221.539299 278.695555 
L 221.789225 281.903919 
L 222.039152 274.371796 
L 222.289078 272.120779 
L 222.539005 281.502927 
L 222.788931 272.07378 
L 223.038858 273.408652 
L 223.288784 276.473917 
L 223.538711 273.671842 
L 223.788637 272.994867 
L 224.038564 274.914966 
L 224.28849 279.67478 
L 224.788343 271.95315 
L 225.03827 273.638777 
L 225.288197 283.369826 
L 225.538123 280.834116 
L 225.78805 275.144733 
L 226.037976 274.006003 
L 226.537829 273.536337 
L 226.787756 276.521224 
L 227.037682 276.869591 
L 227.287609 275.783161 
L 227.537535 273.429881 
L 227.787462 277.649582 
L 228.037388 272.952422 
L 228.287315 271.709214 
L 228.537241 280.287349 
L 228.787168 280.447413 
L 229.037094 274.193221 
L 229.287021 260.079513 
L 229.786874 276.401393 
L 230.0368 274.889304 
L 230.286727 279.883419 
L 230.536653 277.506151 
L 230.78658 279.433652 
L 231.036506 285.008355 
L 231.286433 273.760742 
L 231.536359 270.214498 
L 231.786286 277.286315 
L 232.036212 273.394482 
L 232.286139 280.85148 
L 232.536066 272.57456 
L 232.785992 253.71209 
L 233.035919 285.278408 
L 233.285845 270.994225 
L 233.785698 278.375036 
L 234.035625 275.364697 
L 234.285551 278.207662 
L 234.535478 274.188135 
L 234.785404 277.442727 
L 235.035331 277.043997 
L 235.285257 280.810419 
L 235.535184 277.177038 
L 235.78511 276.96581 
L 236.035037 280.900109 
L 236.284963 279.206511 
L 236.53489 279.90292 
L 236.784816 280.03537 
L 237.034743 267.925679 
L 237.284669 280.034442 
L 237.534596 284.501464 
L 237.784522 284.394009 
L 238.034449 278.072764 
L 238.284375 276.161117 
L 238.534302 275.36941 
L 238.784228 276.50887 
L 239.034155 274.899244 
L 239.284081 275.798583 
L 239.534008 279.893488 
L 239.783934 280.228841 
L 240.033861 284.593734 
L 240.283788 277.33096 
L 240.533714 278.069 
L 240.783641 282.101387 
L 241.033567 282.484796 
L 241.283494 280.799962 
L 241.53342 277.870855 
L 241.783347 245.309387 
L 242.2832 271.76504 
L 242.533126 270.377746 
L 242.783053 280.393526 
L 243.032979 279.971906 
L 243.282906 278.026511 
L 243.532832 274.589609 
L 243.782759 279.269848 
L 244.032685 276.111901 
L 244.532538 278.46691 
L 244.782465 270.824518 
L 245.032391 278.868219 
L 245.282318 276.638862 
L 245.532244 268.119904 
L 246.032097 283.094747 
L 246.282024 274.825486 
L 246.53195 270.872106 
L 246.781877 279.184768 
L 247.031803 282.409239 
L 247.28173 275.753432 
L 247.531657 272.808719 
L 247.781583 280.691296 
L 248.03151 272.785911 
L 248.531363 283.411769 
L 248.781289 273.087442 
L 249.031216 275.533819 
L 249.281142 276.235208 
L 249.531069 280.008304 
L 249.780995 280.190194 
L 250.030922 274.059204 
L 250.280848 274.719774 
L 250.530775 281.523695 
L 250.780701 279.068453 
L 251.030628 270.255448 
L 251.280554 271.078497 
L 251.780407 282.212231 
L 252.030334 266.419102 
L 252.28026 282.02748 
L 252.530187 277.621424 
L 252.780113 279.893395 
L 253.03004 274.458152 
L 253.279966 281.818656 
L 253.529893 269.111593 
L 253.779819 281.916923 
L 254.029746 278.067834 
L 254.279672 284.271985 
L 254.529599 273.256981 
L 254.779526 283.512647 
L 255.029452 281.072087 
L 255.279379 276.812408 
L 255.529305 280.547708 
L 255.779232 280.375442 
L 256.029158 283.142528 
L 256.279085 271.400616 
L 256.529011 281.432964 
L 256.778938 281.766784 
L 257.028864 279.927239 
L 257.528717 272.863866 
L 257.778644 281.771915 
L 258.02857 273.439776 
L 258.278497 282.746343 
L 258.528423 281.523715 
L 258.77835 282.182855 
L 259.028276 285.663998 
L 259.278203 273.422531 
L 259.528129 273.661211 
L 259.778056 281.042904 
L 260.027982 281.774602 
L 260.277909 284.087228 
L 260.527835 278.01231 
L 260.777762 275.626773 
L 261.027688 277.618773 
L 261.527541 273.720956 
L 261.777468 279.228992 
L 262.027394 274.687905 
L 262.277321 282.681353 
L 262.527248 278.312141 
L 262.777174 278.676849 
L 263.027101 279.757524 
L 263.277027 272.234474 
L 263.77688 286.105929 
L 264.52666 276.123922 
L 264.776586 280.696638 
L 265.026513 280.305575 
L 265.276439 270.286571 
L 265.526366 281.555723 
L 265.776292 277.882194 
L 266.026219 280.338714 
L 266.276145 279.822083 
L 266.526072 283.346074 
L 266.775998 289.871556 
L 267.025925 282.121158 
L 267.275851 281.481685 
L 267.525778 275.555016 
L 267.775704 273.89018 
L 268.025631 283.182333 
L 268.275557 273.752709 
L 268.525484 281.75217 
L 268.77541 275.176376 
L 269.025337 284.606767 
L 269.275263 276.040396 
L 269.52519 278.144751 
L 269.775117 282.400625 
L 270.025043 279.107444 
L 270.524896 277.213338 
L 271.024749 282.161822 
L 271.274676 276.045297 
L 271.524602 274.690051 
L 272.024455 284.096628 
L 272.274382 278.714959 
L 272.524308 277.747426 
L 272.774235 281.840758 
L 273.024161 278.436234 
L 273.274088 277.318016 
L 273.524014 279.686402 
L 273.773941 278.123384 
L 274.023867 274.659109 
L 274.273794 278.3506 
L 274.52372 276.539329 
L 274.773647 281.528013 
L 275.023573 278.258468 
L 275.2735 280.629715 
L 275.523426 270.284503 
L 276.023279 281.370369 
L 276.273206 282.648242 
L 276.523132 278.515165 
L 276.773059 280.440979 
L 277.022986 275.39025 
L 277.272912 277.637521 
L 277.522839 284.840907 
L 278.022692 278.115275 
L 278.272618 279.098204 
L 278.522545 280.905024 
L 278.772471 271.327435 
L 279.022398 279.481167 
L 279.272324 276.115007 
L 279.522251 285.761407 
L 279.772177 277.379356 
L 280.022104 272.982805 
L 280.27203 283.637277 
L 280.521957 284.085903 
L 280.771883 274.161729 
L 281.02181 281.345158 
L 281.271736 282.161393 
L 281.521663 269.610777 
L 281.771589 283.256041 
L 282.021516 276.474072 
L 282.271442 276.845216 
L 282.521369 278.409499 
L 282.771295 267.903414 
L 283.021222 284.613756 
L 283.521075 275.159166 
L 283.771001 272.377983 
L 284.020928 278.028494 
L 284.270855 274.411502 
L 284.770708 284.400353 
L 285.270561 276.504227 
L 285.520487 275.45768 
L 285.770414 284.316385 
L 286.02034 279.360253 
L 286.270267 284.033241 
L 286.520193 282.182972 
L 286.77012 290.263911 
L 287.020046 286.95145 
L 287.269973 278.50529 
L 287.519899 284.123387 
L 287.769826 279.009669 
L 288.019752 283.4969 
L 288.269679 272.635567 
L 288.519605 285.935229 
L 288.769532 279.071255 
L 289.019458 278.940881 
L 289.269385 277.905887 
L 289.519311 276.103036 
L 289.769238 281.115783 
L 290.019164 278.077193 
L 290.269091 280.395695 
L 290.519017 279.697408 
L 290.768944 284.419653 
L 291.268797 271.218061 
L 291.518723 286.229303 
L 292.018577 274.969752 
L 292.51843 282.525484 
L 292.768356 282.687416 
L 293.018283 281.811493 
L 293.268209 281.740778 
L 293.518136 276.150441 
L 293.768062 279.522565 
L 294.017989 280.638279 
L 294.267915 282.940966 
L 294.517842 277.41431 
L 294.767768 280.216917 
L 295.017695 284.500119 
L 295.267621 278.77803 
L 295.517548 283.783956 
L 295.767474 269.419335 
L 296.017401 279.307935 
L 296.267327 276.246687 
L 296.517254 281.246608 
L 296.76718 280.201343 
L 297.017107 284.579927 
L 297.267033 283.285308 
L 297.51696 280.210903 
L 297.766886 284.401994 
L 298.016813 285.414637 
L 298.266739 280.384387 
L 298.516666 277.972744 
L 298.766592 286.730756 
L 299.266446 276.686861 
L 299.516372 285.596997 
L 300.016225 275.411096 
L 300.266152 282.162046 
L 300.516078 281.793438 
L 300.766005 280.051301 
L 301.015931 272.382497 
L 301.265858 284.565897 
L 301.515784 279.4397 
L 301.765711 283.74948 
L 302.015637 280.894063 
L 302.265564 281.392591 
L 302.51549 276.812556 
L 302.765417 282.14312 
L 303.26527 276.101073 
L 303.765123 288.357944 
L 304.015049 283.863134 
L 304.264976 274.611066 
L 304.514902 285.780503 
L 305.264682 278.371961 
L 305.514608 287.414993 
L 306.014461 282.073687 
L 306.264388 284.961818 
L 306.514315 284.914999 
L 306.764241 273.994727 
L 307.014168 281.008007 
L 307.264094 282.040194 
L 307.514021 284.057365 
L 307.763947 278.841465 
L 308.013874 280.40032 
L 308.2638 284.005342 
L 308.513727 283.837238 
L 308.763653 277.863514 
L 309.01358 280.210999 
L 309.263506 275.638445 
L 309.763359 279.147648 
L 310.013286 284.210697 
L 310.263212 280.569962 
L 310.513139 283.69039 
L 310.763065 281.220096 
L 311.012992 282.424303 
L 311.262918 282.718183 
L 311.512845 285.68034 
L 311.762771 276.291642 
L 312.012698 277.311719 
L 312.262624 280.812174 
L 312.512551 281.012146 
L 312.762477 282.690941 
L 313.012404 279.503758 
L 313.26233 278.819975 
L 313.512257 282.559626 
L 313.762183 283.612404 
L 314.01211 274.354232 
L 314.262037 283.729116 
L 314.511963 270.834731 
L 315.261743 285.412889 
L 315.511669 285.636387 
L 315.761596 281.405677 
L 316.011522 283.956479 
L 316.261449 279.1677 
L 316.511375 283.079596 
L 316.761302 285.046865 
L 317.011228 279.649266 
L 317.261155 285.586254 
L 317.511081 282.512293 
L 317.761008 276.992485 
L 318.260861 279.869204 
L 318.510787 287.190733 
L 318.760714 279.175112 
L 319.01064 280.466004 
L 319.260567 278.873064 
L 319.510493 273.696472 
L 320.010346 279.86442 
L 320.260273 284.497953 
L 320.760126 278.943815 
L 321.010052 281.601967 
L 321.259979 280.288207 
L 321.509906 283.18987 
L 321.759832 281.20401 
L 322.009759 281.02319 
L 322.259685 286.34965 
L 322.509612 288.794007 
L 322.759538 281.49854 
L 323.259391 275.815125 
L 323.509318 279.681036 
L 323.759244 274.938658 
L 324.009171 280.581851 
L 324.259097 280.122498 
L 324.509024 281.692249 
L 324.75895 279.355075 
L 325.008877 283.694466 
L 325.258803 280.662464 
L 325.50873 283.31885 
L 325.758656 274.416384 
L 326.008583 281.307587 
L 326.258509 284.018843 
L 326.508436 288.307959 
L 326.758362 289.096051 
L 327.258215 280.612637 
L 327.508142 280.550603 
L 327.758068 282.201015 
L 328.007995 277.337688 
L 328.257921 279.355517 
L 328.507848 286.871398 
L 328.757775 284.780029 
L 329.007701 279.239115 
L 329.507554 287.069833 
L 329.757481 281.955449 
L 330.007407 282.284705 
L 330.257334 281.09535 
L 330.50726 281.446558 
L 330.757187 274.23573 
L 331.007113 288.867025 
L 331.25704 281.540192 
L 331.506966 281.589943 
L 331.756893 284.403319 
L 332.006819 283.55259 
L 332.256746 284.412183 
L 332.506672 287.712367 
L 332.756599 278.973022 
L 333.256452 286.789807 
L 333.506378 274.896942 
L 333.756305 277.670368 
L 334.006231 284.837489 
L 334.256158 283.813765 
L 334.506084 283.722395 
L 335.005937 278.268025 
L 335.255864 284.81953 
L 335.50579 275.484664 
L 336.005644 282.225429 
L 336.25557 280.432899 
L 336.505497 274.708595 
L 336.755423 277.45558 
L 337.00535 278.411631 
L 337.255276 286.122115 
L 337.505203 285.960104 
L 338.005056 288.637118 
L 338.254982 275.203721 
L 338.504909 289.708109 
L 338.754835 280.563507 
L 339.004762 282.965078 
L 339.254688 273.962655 
L 339.504615 284.901413 
L 339.754541 287.038776 
L 340.004468 284.440971 
L 340.254394 278.116679 
L 340.754247 279.258707 
L 341.004174 286.778453 
L 341.2541 284.37796 
L 341.504027 285.866281 
L 341.753953 282.760957 
L 342.00388 281.779558 
L 342.253806 283.364594 
L 342.503733 272.674256 
L 342.753659 287.337032 
L 343.003586 280.699993 
L 343.253512 283.692421 
L 343.503439 282.748605 
L 343.753366 283.771091 
L 344.003292 278.318644 
L 344.253219 283.746618 
L 344.503145 282.302915 
L 344.753072 287.193508 
L 345.002998 276.382019 
L 345.252925 281.186437 
L 345.502851 274.874849 
L 345.752778 274.913841 
L 346.002704 283.7073 
L 346.252631 277.570177 
L 346.502557 283.72318 
L 346.752484 283.904669 
L 347.00241 278.238783 
L 347.502263 284.943944 
L 347.75219 277.885597 
L 348.002116 280.548302 
L 348.252043 276.989442 
L 348.501969 281.648252 
L 348.751896 282.302194 
L 349.001822 275.960634 
L 349.251749 289.249911 
L 349.501675 279.873859 
L 349.751602 279.74738 
L 350.001528 279.071161 
L 350.501381 276.846192 
L 350.751308 283.47886 
L 351.001235 278.237444 
L 351.251161 289.904634 
L 351.751014 279.077961 
L 352.000941 283.023469 
L 352.250867 283.361392 
L 352.500794 285.755838 
L 353.000647 275.379875 
L 353.250573 281.136292 
L 353.5005 280.405862 
L 353.750426 288.723205 
L 354.000353 272.390033 
L 354.250279 287.319413 
L 354.500206 281.660748 
L 354.750132 282.77736 
L 355.000059 279.035923 
L 355.249985 286.218673 
L 355.499912 279.564497 
L 355.749838 278.382653 
L 355.999765 279.725446 
L 356.249691 282.257414 
L 356.499618 281.734982 
L 356.749544 277.179464 
L 356.999471 284.515564 
L 357.249397 282.243902 
L 357.499324 289.795657 
L 357.74925 274.956896 
L 357.999177 282.97458 
L 358.249104 277.521319 
L 358.748957 286.515716 
L 358.998883 285.15095 
L 359.24881 281.509725 
L 359.498736 286.121327 
L 359.748663 285.910977 
L 359.998589 286.255535 
L 360.248516 282.070931 
L 360.498442 284.423226 
L 360.748369 277.369121 
L 360.998295 286.694533 
L 361.248222 280.347561 
L 361.498148 289.619282 
L 361.748075 282.355717 
L 361.998001 286.343249 
L 362.247928 275.71616 
L 362.497854 281.40904 
L 362.747781 278.922461 
L 362.997707 282.282228 
L 363.247634 287.9874 
L 363.49756 280.056309 
L 363.747487 281.478253 
L 363.997413 290.785879 
L 364.24734 282.797943 
L 364.497266 283.366732 
L 364.747193 279.787797 
L 364.997119 279.575366 
L 365.247046 281.910749 
L 365.496972 275.354573 
L 365.746899 283.872745 
L 365.996826 267.282627 
L 366.246752 291.205945 
L 366.496679 288.183589 
L 366.746605 279.65704 
L 366.996532 282.687297 
L 367.246458 279.775762 
L 367.496385 286.315597 
L 367.746311 280.828067 
L 367.996238 289.589853 
L 368.246164 282.522217 
L 368.496091 282.162713 
L 368.746017 284.673189 
L 368.995944 282.939827 
L 369.24587 279.303551 
L 369.495797 288.020296 
L 369.745723 280.008745 
L 369.99565 279.320291 
L 370.245576 276.736892 
L 370.745429 287.872157 
L 370.995356 280.098366 
L 371.245282 284.578184 
L 371.495209 276.62809 
L 371.745135 287.47874 
L 371.995062 287.922567 
L 372.244988 285.957293 
L 372.494915 279.530398 
L 372.744841 281.817583 
L 372.994768 289.180288 
L 373.244695 279.712533 
L 373.494621 284.445993 
L 373.744548 281.960718 
L 373.994474 284.55575 
L 374.244401 279.936785 
L 374.744254 288.291019 
L 374.99418 290.832586 
L 375.244107 275.360836 
L 375.494033 281.072462 
L 375.74396 280.223896 
L 375.993886 282.240339 
L 376.243813 282.06635 
L 376.493739 275.061912 
L 376.743666 283.886785 
L 376.993592 285.574714 
L 377.243519 283.062742 
L 377.743372 276.039679 
L 377.993298 286.099358 
L 378.243225 281.688889 
L 378.493151 279.245288 
L 378.743078 282.092008 
L 378.993004 283.05404 
L 379.242931 280.304911 
L 379.492857 285.277591 
L 379.742784 283.667725 
L 379.99271 277.116082 
L 380.242637 281.535293 
L 380.492564 273.9008 
L 380.74249 282.696732 
L 380.992417 295.488 
L 381.242343 285.67088 
L 381.49227 287.0477 
L 381.742196 285.552938 
L 381.992123 285.265783 
L 382.491976 281.234819 
L 382.741902 284.585066 
L 382.991829 280.834347 
L 383.241755 282.3794 
L 383.491682 281.597735 
L 383.741608 289.45903 
L 383.991535 281.555378 
L 384.241461 286.692452 
L 384.491388 269.786713 
L 384.741314 284.497022 
L 384.991241 285.490635 
L 385.241167 281.386912 
L 385.491094 280.434988 
L 385.74102 278.323724 
L 385.990947 283.674138 
L 386.4908 280.055092 
L 386.740726 279.200863 
L 386.990653 282.963596 
L 387.240579 282.384904 
L 387.490506 287.253756 
L 387.740433 277.977313 
L 387.990359 289.742383 
L 388.240286 276.551131 
L 388.490212 287.078557 
L 388.740139 283.30043 
L 388.990065 274.957139 
L 389.239992 284.748523 
L 389.489918 271.227171 
L 389.739845 282.205919 
L 389.989771 281.438957 
L 390.239698 285.232031 
L 390.489624 278.348982 
L 390.739551 285.410116 
L 390.989477 287.202417 
L 391.239404 285.313587 
L 391.48933 279.752335 
L 391.739257 287.038022 
L 391.989183 285.587478 
L 392.489036 275.159581 
L 392.738963 279.014722 
L 392.988889 285.33776 
L 393.238816 272.960189 
L 393.488742 282.442157 
L 393.738669 281.155593 
L 393.988595 285.196209 
L 394.238522 284.734561 
L 394.488448 278.492617 
L 394.738375 278.156858 
L 394.988301 291.061743 
L 395.238228 285.122694 
L 395.488155 282.809918 
L 395.738081 286.975049 
L 395.988008 285.029664 
L 396.237934 281.995834 
L 396.487861 288.742564 
L 396.737787 284.571622 
L 396.987714 284.616668 
L 397.23764 285.153656 
L 397.487567 275.458252 
L 397.737493 280.847363 
L 397.98742 277.005285 
L 398.237346 278.05318 
L 398.487273 282.428369 
L 398.487273 282.428369 
" style="fill:none;stroke:#1f77b4;stroke-linecap:square;stroke-width:1.5;"/>
   </g>
   <g id="line2d_16">
    <path clip-path="url(#pbdc7247db9)" d="M 73.832727 75.124822 
L 74.082654 95.512472 
L 74.33258 96.676242 
L 74.582507 105.00817 
L 74.832433 97.332643 
L 75.08236 114.066506 
L 75.332286 113.099721 
L 75.582213 121.965086 
L 75.832139 121.620411 
L 76.082066 120.532124 
L 76.331992 125.530276 
L 76.581919 125.550647 
L 76.831845 131.078417 
L 77.081772 126.620281 
L 77.331699 130.233775 
L 77.581625 128.40475 
L 77.831552 131.737023 
L 78.081478 132.273874 
L 78.331405 140.930295 
L 78.581331 143.134728 
L 78.831258 150.048175 
L 79.081184 142.442233 
L 79.331111 139.962171 
L 79.581037 154.412742 
L 79.830964 155.393927 
L 80.08089 159.537409 
L 80.330817 156.366624 
L 80.580743 150.828313 
L 80.83067 165.116552 
L 81.080596 161.256393 
L 81.330523 168.551809 
L 81.580449 169.367159 
L 81.830376 170.897106 
L 82.080302 171.719867 
L 82.330229 166.491207 
L 82.830082 176.29084 
L 83.080008 174.93193 
L 83.329935 171.165758 
L 83.579861 177.228347 
L 83.829788 180.289685 
L 84.079714 180.109842 
L 84.329641 175.190138 
L 84.579567 177.197141 
L 84.829494 183.117457 
L 85.079421 182.007519 
L 85.329347 186.043796 
L 86.079127 181.554036 
L 86.57898 191.829276 
L 86.828906 175.193788 
L 87.078833 189.157065 
L 87.328759 185.379498 
L 87.578686 196.078284 
L 87.828612 186.961337 
L 88.328465 199.548864 
L 88.578392 189.870295 
L 88.828318 186.633648 
L 89.078245 200.702091 
L 89.328171 196.549949 
L 89.828024 205.636437 
L 90.077951 204.976466 
L 90.327877 210.792272 
L 90.577804 210.653701 
L 90.82773 208.673501 
L 91.077657 199.731853 
L 91.327583 211.096121 
L 91.827436 220.375957 
L 92.077363 211.627418 
L 92.32729 222.556858 
L 92.577216 210.899806 
L 92.827143 214.693636 
L 93.326996 228.666631 
L 93.576922 219.776004 
L 93.826849 227.784215 
L 94.326702 233.160998 
L 94.576628 228.970283 
L 94.826555 234.3406 
L 95.076481 222.986085 
L 95.326408 231.780047 
L 95.576334 228.497306 
L 95.826261 230.472215 
L 96.076187 223.650828 
L 96.326114 234.399831 
L 96.57604 230.131424 
L 96.825967 234.51955 
L 97.075893 235.440057 
L 97.32582 226.786651 
L 97.575746 226.440053 
L 97.825673 240.533435 
L 98.075599 240.111701 
L 98.325526 237.425704 
L 98.575452 242.889808 
L 98.825379 229.02046 
L 99.075305 238.288108 
L 99.325232 240.028047 
L 99.575159 244.618908 
L 99.825085 245.779975 
L 100.075012 240.486343 
L 100.324938 239.935052 
L 100.574865 242.265476 
L 100.824791 246.017155 
L 101.074718 236.950922 
L 101.324644 244.016988 
L 101.574571 242.082776 
L 101.824497 244.215926 
L 102.074424 249.615695 
L 102.32435 241.504822 
L 102.574277 243.311908 
L 102.824203 248.890672 
L 103.07413 240.233494 
L 103.324056 243.126905 
L 103.573983 244.138047 
L 103.823909 236.897087 
L 104.073836 251.15947 
L 104.323762 242.039828 
L 104.573689 237.12565 
L 104.823615 238.18565 
L 105.073542 236.806434 
L 105.323468 251.924877 
L 105.573395 248.10395 
L 105.823321 239.546253 
L 106.073248 206.083815 
L 106.323174 236.890038 
L 106.573101 246.200777 
L 106.823028 248.236949 
L 107.322881 238.838125 
L 107.572807 244.151316 
L 107.822734 243.627152 
L 108.07266 245.81331 
L 108.322587 249.76701 
L 108.572513 237.226013 
L 108.82244 245.005108 
L 109.072366 231.628309 
L 109.572219 250.368132 
L 109.822146 249.828358 
L 110.072072 239.228818 
L 110.321999 223.562521 
L 110.571925 251.922324 
L 110.821852 243.355251 
L 111.071778 255.365859 
L 111.321705 244.768541 
L 111.571631 242.688675 
L 111.821558 255.149034 
L 112.071484 247.865161 
L 112.321411 245.066455 
L 112.571337 252.471849 
L 112.821264 245.585721 
L 113.07119 252.064955 
L 113.321117 253.356853 
L 113.571043 251.452645 
L 113.82097 251.050461 
L 114.070896 247.758261 
L 114.320823 253.739184 
L 114.57075 256.959462 
L 114.820676 257.835475 
L 115.070603 265.897549 
L 115.320529 255.314579 
L 115.570456 183.161006 
L 115.820382 252.261581 
L 116.070309 248.905576 
L 116.320235 257.245892 
L 116.570162 252.341483 
L 116.820088 260.905529 
L 117.070015 249.183042 
L 117.319941 266.541793 
L 117.569868 254.390309 
L 117.819794 253.061353 
L 118.069721 256.103213 
L 118.319647 254.728117 
L 118.569574 268.883121 
L 118.8195 267.056087 
L 119.069427 260.093019 
L 119.319353 262.065414 
L 119.56928 262.224338 
L 119.819206 259.546914 
L 120.069133 262.767586 
L 120.319059 261.469933 
L 120.568986 258.985033 
L 120.818912 248.586084 
L 121.068839 262.293636 
L 121.318765 197.586385 
L 121.568692 263.227448 
L 121.818619 263.581153 
L 122.068545 264.463319 
L 122.318472 255.765334 
L 122.568398 260.241754 
L 122.818325 260.222154 
L 123.068251 263.115838 
L 123.318178 257.630698 
L 123.568104 262.297139 
L 123.818031 262.416402 
L 124.067957 264.213461 
L 124.317884 268.362097 
L 124.56781 264.441314 
L 124.817737 276.978463 
L 125.067663 257.009783 
L 125.31759 263.113238 
L 125.567516 260.186914 
L 125.817443 266.316803 
L 126.067369 254.1176 
L 126.317296 265.549498 
L 126.567222 235.205278 
L 126.817149 265.897273 
L 127.067075 268.029143 
L 127.317002 252.683514 
L 127.816855 268.212278 
L 128.066781 269.746196 
L 128.316708 263.010139 
L 128.566634 265.226985 
L 128.816561 240.325214 
L 129.066488 260.488896 
L 129.316414 264.243637 
L 129.566341 261.655559 
L 129.816267 268.078778 
L 130.31612 262.40353 
L 130.566047 265.107431 
L 130.815973 264.783057 
L 131.0659 263.775193 
L 131.315826 196.161145 
L 131.565753 248.818248 
L 131.815679 263.964754 
L 132.065606 260.789876 
L 132.315532 261.121232 
L 132.565459 259.831345 
L 132.815385 257.024103 
L 133.065312 263.434935 
L 133.565165 268.530304 
L 133.815091 269.105569 
L 134.065018 266.849149 
L 134.314944 262.844761 
L 134.564871 266.828188 
L 134.814797 253.844771 
L 135.31465 269.429994 
L 135.564577 256.382098 
L 135.814503 267.447262 
L 136.06443 267.895589 
L 136.314356 263.604257 
L 136.564283 227.708954 
L 136.81421 267.156026 
L 137.064136 263.178992 
L 137.314063 269.692302 
L 137.563989 270.056558 
L 137.813916 266.182229 
L 138.063842 264.944807 
L 138.313769 258.894761 
L 138.563695 262.686487 
L 138.813622 269.605472 
L 139.063548 268.229628 
L 139.313475 262.387904 
L 139.563401 272.90574 
L 139.813328 263.936027 
L 140.063254 260.066541 
L 140.313181 269.622563 
L 140.563107 254.149844 
L 140.813034 274.298224 
L 141.312887 263.777085 
L 141.562813 270.98235 
L 142.062666 261.594161 
L 142.312593 267.129607 
L 142.562519 263.230129 
L 143.062372 269.648154 
L 143.312299 264.263936 
L 143.562225 263.302705 
L 143.812152 274.425439 
L 144.062079 268.583351 
L 144.312005 266.571288 
L 144.561932 268.666203 
L 144.811858 269.344081 
L 145.061785 265.996945 
L 145.311711 265.94784 
L 145.811564 268.417896 
L 146.061491 252.116551 
L 146.311417 265.546061 
L 146.561344 269.177541 
L 146.81127 264.56478 
L 147.061197 263.422591 
L 147.311123 272.507602 
L 147.56105 264.666917 
L 147.810976 271.013523 
L 148.060903 263.25367 
L 148.310829 243.58889 
L 148.560756 268.740296 
L 148.810682 250.369231 
L 149.310535 273.173952 
L 149.560462 263.714012 
L 149.810388 265.708265 
L 150.060315 265.257161 
L 150.310241 270.135814 
L 150.560168 261.903963 
L 150.810094 263.586384 
L 151.060021 270.000647 
L 151.309948 273.129541 
L 151.559874 263.852972 
L 152.059727 268.791856 
L 152.309654 253.873666 
L 152.55958 265.997036 
L 152.809507 263.519408 
L 153.30936 275.041574 
L 153.559286 270.801266 
L 153.809213 269.623756 
L 154.059139 265.851937 
L 154.309066 274.365648 
L 154.558992 264.088639 
L 154.808919 279.712063 
L 155.058845 264.52108 
L 155.558698 269.913871 
L 155.808625 270.12541 
L 156.058551 256.224707 
L 156.308478 259.395029 
L 156.558404 276.20136 
L 156.808331 251.117713 
L 157.308184 273.319888 
L 157.55811 267.249589 
L 157.808037 268.474659 
L 158.057963 275.968702 
L 158.30789 252.784862 
L 158.557817 271.215253 
L 158.807743 250.223588 
L 159.05767 265.347817 
L 159.307596 272.143915 
L 159.557523 272.388031 
L 159.807449 268.184708 
L 160.057376 270.541135 
L 160.307302 269.073745 
L 160.557229 269.216593 
L 160.807155 270.713217 
L 161.057082 276.568446 
L 161.307008 266.463336 
L 161.556935 276.802962 
L 161.806861 264.756707 
L 162.056788 268.253844 
L 162.306714 269.362902 
L 162.556641 268.560732 
L 162.806567 272.62586 
L 163.056494 270.444274 
L 163.30642 265.670416 
L 163.556347 274.731696 
L 163.806273 271.871708 
L 164.0562 272.678291 
L 164.306126 269.543229 
L 164.556053 261.057324 
L 164.805979 268.610595 
L 165.055906 272.05955 
L 165.305832 265.451591 
L 165.805685 261.859601 
L 166.055612 274.278944 
L 166.305539 270.237367 
L 166.555465 273.641823 
L 166.805392 265.257114 
L 167.055318 261.832409 
L 167.305245 271.852862 
L 167.555171 270.004546 
L 167.805098 271.060647 
L 168.055024 266.942183 
L 168.304951 267.685245 
L 168.554877 260.2929 
L 168.804804 273.755674 
L 169.05473 278.320069 
L 169.304657 270.754773 
L 169.554583 272.275868 
L 169.80451 265.220228 
L 170.054436 270.687602 
L 170.304363 263.634835 
L 170.554289 264.272794 
L 170.804216 271.528498 
L 171.054142 270.796454 
L 171.304069 275.716549 
L 171.553995 275.580779 
L 171.803922 272.784573 
L 172.053848 252.336114 
L 172.303775 253.173176 
L 172.553701 281.939039 
L 172.803628 263.759789 
L 173.053554 267.838096 
L 173.303481 268.66696 
L 173.553408 266.721969 
L 173.803334 274.831186 
L 174.053261 258.16578 
L 174.553114 272.363237 
L 174.80304 275.582465 
L 175.052967 265.141312 
L 175.302893 274.803522 
L 175.55282 274.427646 
L 175.802746 275.021558 
L 176.052673 266.507616 
L 176.302599 273.631303 
L 176.552526 274.554338 
L 176.802452 275.951519 
L 177.052379 255.872675 
L 177.552232 281.662685 
L 177.802158 272.151628 
L 178.052085 271.098595 
L 178.302011 278.846413 
L 178.551938 260.104677 
L 178.801864 273.498835 
L 179.051791 270.845767 
L 179.301717 277.29801 
L 180.051497 263.884715 
L 180.301423 269.219734 
L 180.801277 271.745497 
L 181.051203 261.894806 
L 181.30113 272.557532 
L 181.551056 269.484955 
L 181.800983 253.571463 
L 182.300836 274.055012 
L 182.550762 274.723809 
L 182.800689 268.066344 
L 183.050615 277.62935 
L 183.300542 276.466531 
L 183.800395 262.020456 
L 184.050321 273.991779 
L 184.300248 263.806842 
L 184.800101 279.533562 
L 185.050027 279.067605 
L 185.299954 272.964747 
L 185.54988 263.875892 
L 185.799807 270.203623 
L 186.049733 272.008232 
L 186.29966 263.444767 
L 186.549586 261.450962 
L 186.799513 273.624175 
L 187.049439 273.521732 
L 187.299366 272.170421 
L 187.549292 272.334747 
L 187.799219 276.609577 
L 188.049145 265.526072 
L 188.299072 264.36666 
L 188.548999 240.536827 
L 188.798925 269.25665 
L 189.048852 276.086782 
L 189.548705 270.472449 
L 189.798631 254.617534 
L 190.548411 280.74576 
L 190.798337 282.584939 
L 191.048264 272.84325 
L 191.29819 267.812145 
L 191.548117 281.530069 
L 191.798043 276.280985 
L 192.04797 274.55123 
L 192.297896 265.934222 
L 192.797749 283.198335 
L 193.047676 267.97439 
L 193.297602 272.44367 
L 193.547529 266.489174 
L 193.797455 270.509925 
L 194.047382 260.426202 
L 194.297308 275.284248 
L 194.797161 273.415606 
L 195.047088 285.154694 
L 195.297014 276.278413 
L 195.546941 275.408207 
L 195.796868 277.841098 
L 196.046794 270.965561 
L 196.296721 270.467443 
L 196.546647 272.446776 
L 196.796574 277.518762 
L 197.0465 267.240188 
L 197.296427 274.276038 
L 197.546353 271.86047 
L 197.79628 265.642687 
L 198.046206 278.280414 
L 198.296133 272.571457 
L 198.546059 278.376099 
L 198.795986 266.968113 
L 199.045912 272.068957 
L 199.295839 283.257432 
L 199.545765 273.242152 
L 199.795692 278.226464 
L 200.045618 269.585594 
L 200.295545 273.118143 
L 200.545471 274.009866 
L 200.795398 267.229353 
L 201.045324 271.089188 
L 201.295251 280.170189 
L 201.795104 265.752135 
L 202.04503 273.197736 
L 202.294957 270.217562 
L 202.544883 280.929166 
L 202.79481 268.814653 
L 203.044737 269.544379 
L 203.294663 279.501376 
L 203.54459 270.495449 
L 203.794516 273.883556 
L 204.044443 274.374608 
L 204.294369 256.480931 
L 204.544296 273.27915 
L 204.794222 273.15352 
L 205.044149 261.223864 
L 205.294075 273.394047 
L 205.544002 272.493151 
L 205.793928 248.960756 
L 206.293781 273.090691 
L 206.543708 274.010759 
L 206.793634 266.751686 
L 207.043561 267.377921 
L 207.293487 276.322557 
L 207.543414 276.407873 
L 207.79334 263.269085 
L 208.043267 271.756354 
L 208.293193 270.142813 
L 208.793046 273.118855 
L 209.042973 272.620739 
L 209.292899 269.882122 
L 209.542826 273.755971 
L 209.792752 271.618492 
L 210.292606 270.300795 
L 210.542532 273.638025 
L 210.792459 274.06407 
L 211.042385 281.022326 
L 211.292312 270.740817 
L 211.792165 274.880029 
L 212.042091 268.485881 
L 212.541944 281.969472 
L 212.791871 268.15209 
L 213.041797 273.458609 
L 213.291724 258.668922 
L 213.54165 276.805846 
L 213.791577 271.062575 
L 214.041503 272.547574 
L 214.29143 262.984999 
L 214.541356 274.980725 
L 214.791283 274.529131 
L 215.041209 269.707227 
L 215.291136 276.470661 
L 215.541062 275.943329 
L 215.790989 280.805679 
L 216.290842 273.063955 
L 216.540768 277.6511 
L 216.790695 276.278259 
L 217.040621 277.910032 
L 217.290548 276.658941 
L 217.540474 278.644765 
L 217.790401 266.316518 
L 218.040328 280.345824 
L 218.540181 271.466494 
L 218.790107 283.898768 
L 219.040034 281.940524 
L 219.28996 275.958806 
L 219.539887 265.734457 
L 219.789813 276.988278 
L 220.03974 276.401358 
L 220.289666 259.213579 
L 220.539593 271.782265 
L 220.789519 264.842882 
L 221.039446 273.651869 
L 221.289372 269.212763 
L 221.539299 275.595939 
L 222.039152 266.830563 
L 222.289078 272.070149 
L 222.539005 285.272022 
L 222.788931 271.71461 
L 223.288784 272.949355 
L 223.538711 272.153424 
L 223.788637 268.866504 
L 224.038564 276.46809 
L 224.28849 271.292031 
L 224.538417 276.484189 
L 224.788343 267.798431 
L 225.03827 272.669036 
L 225.288197 280.502927 
L 225.538123 268.345662 
L 225.78805 261.990938 
L 226.537829 281.277925 
L 226.787756 284.744284 
L 227.037682 276.469712 
L 227.287609 272.531126 
L 227.537535 272.43884 
L 227.787462 269.865343 
L 228.037388 278.188629 
L 228.537241 270.142562 
L 228.787168 271.514439 
L 229.037094 263.914582 
L 229.287021 231.392831 
L 229.536947 263.760861 
L 229.786874 275.208192 
L 230.0368 272.037836 
L 230.286727 265.268928 
L 230.536653 280.503618 
L 230.78658 271.050073 
L 231.036506 272.499242 
L 231.286433 277.688906 
L 231.536359 274.698954 
L 231.786286 273.353301 
L 232.036212 266.41853 
L 232.286139 280.466715 
L 232.536066 273.106844 
L 232.785992 271.310499 
L 233.035919 272.502515 
L 233.285845 267.667001 
L 233.535772 271.590339 
L 234.035625 269.232239 
L 234.285551 266.151594 
L 234.535478 277.339199 
L 235.035331 272.492508 
L 235.285257 274.561993 
L 235.535184 266.339228 
L 235.78511 280.765588 
L 236.284963 267.700102 
L 236.53489 269.191983 
L 236.784816 275.865472 
L 237.034743 268.948153 
L 237.284669 269.52869 
L 237.534596 274.609961 
L 237.784522 275.727141 
L 238.034449 263.779963 
L 238.284375 280.313418 
L 238.534302 267.866066 
L 239.034155 278.24804 
L 239.284081 273.700101 
L 239.534008 277.351774 
L 239.783934 275.902434 
L 240.033861 269.119099 
L 240.283788 280.548936 
L 240.533714 273.648582 
L 240.783641 256.881463 
L 241.033567 274.143408 
L 241.53342 270.349692 
L 241.783347 213.97317 
L 242.033273 268.358065 
L 242.2832 269.268406 
L 242.533126 269.500933 
L 242.783053 271.28293 
L 243.032979 266.048177 
L 243.282906 263.675945 
L 243.532832 272.83497 
L 243.782759 276.303686 
L 244.032685 272.075094 
L 244.282612 276.326108 
L 244.532538 262.763452 
L 244.782465 271.067233 
L 245.032391 272.043702 
L 245.532244 263.505538 
L 245.782171 276.558506 
L 246.032097 276.373253 
L 246.282024 274.085893 
L 246.53195 269.53825 
L 246.781877 271.334734 
L 247.031803 269.150097 
L 247.28173 281.674583 
L 247.781583 274.490071 
L 248.03151 273.619391 
L 248.531363 251.857619 
L 249.031216 269.644205 
L 249.281142 268.056429 
L 249.531069 274.780157 
L 249.780995 273.540053 
L 250.030922 267.356914 
L 250.280848 273.865143 
L 250.780701 270.476225 
L 251.030628 276.179104 
L 251.280554 275.280019 
L 251.530481 267.010282 
L 251.780407 238.536306 
L 252.030334 270.860771 
L 252.28026 272.588677 
L 252.530187 269.938681 
L 252.780113 274.342897 
L 253.03004 266.789971 
L 253.279966 275.848282 
L 253.529893 268.494314 
L 253.779819 273.000389 
L 254.029746 273.241163 
L 254.279672 280.808534 
L 254.529599 272.706684 
L 254.779526 272.28798 
L 255.029452 272.3764 
L 255.279379 272.052141 
L 255.529305 266.382977 
L 255.779232 278.243879 
L 256.029158 276.349644 
L 256.279085 271.012182 
L 256.529011 272.653106 
L 256.778938 277.189863 
L 257.028864 272.501351 
L 257.278791 275.876455 
L 257.778644 268.628545 
L 258.02857 276.175033 
L 258.278497 274.195098 
L 258.528423 265.13927 
L 258.77835 274.623762 
L 259.028276 278.444448 
L 259.278203 270.334192 
L 259.528129 269.350064 
L 259.778056 273.333735 
L 260.027982 268.623235 
L 260.277909 266.812099 
L 260.527835 271.247469 
L 260.777762 282.720225 
L 261.027688 271.635588 
L 261.277615 268.633449 
L 261.527541 267.370659 
L 261.777468 255.051541 
L 262.027394 275.339078 
L 262.277321 282.323873 
L 262.527248 269.982784 
L 262.777174 272.273671 
L 263.027101 267.459634 
L 263.277027 251.750933 
L 263.526954 275.292699 
L 263.77688 268.751148 
L 264.026807 271.842684 
L 264.276733 269.061562 
L 264.52666 268.424274 
L 265.276439 276.539393 
L 265.526366 269.108128 
L 265.776292 271.717928 
L 266.026219 284.03637 
L 266.276145 275.117597 
L 266.526072 273.241677 
L 267.275851 265.269165 
L 267.525778 269.285532 
L 267.775704 265.603201 
L 268.025631 267.913552 
L 268.275557 282.065354 
L 268.77541 272.093764 
L 269.025337 271.608682 
L 269.275263 274.058623 
L 269.52519 266.458811 
L 269.775117 271.390382 
L 270.025043 262.541867 
L 270.524896 278.890471 
L 270.774823 274.51344 
L 271.024749 276.32826 
L 271.274676 268.51228 
L 271.524602 271.005874 
L 271.774529 274.858271 
L 272.024455 275.844511 
L 272.274382 270.284536 
L 272.524308 274.337147 
L 272.774235 271.500363 
L 273.024161 278.026258 
L 273.274088 281.02354 
L 273.524014 274.913945 
L 273.773941 275.889081 
L 274.023867 271.718459 
L 274.273794 274.687811 
L 274.52372 272.272626 
L 274.773647 271.306764 
L 275.023573 267.444894 
L 275.2735 268.002046 
L 275.523426 266.662952 
L 275.773353 281.918373 
L 276.023279 273.220943 
L 276.273206 277.332397 
L 276.523132 274.951499 
L 276.773059 258.846479 
L 277.022986 268.271392 
L 277.272912 269.36621 
L 277.522839 277.583254 
L 277.772765 271.854413 
L 278.022692 270.421831 
L 278.272618 275.520062 
L 278.522545 274.493905 
L 279.022398 268.265428 
L 279.272324 279.880087 
L 279.522251 275.279138 
L 279.772177 275.11711 
L 280.022104 270.289858 
L 280.27203 275.221177 
L 280.521957 268.194559 
L 280.771883 275.178373 
L 281.02181 275.535171 
L 281.271736 270.370962 
L 281.521663 269.851541 
L 281.771589 264.426028 
L 282.271442 281.745765 
L 282.521369 271.347711 
L 282.771295 276.613149 
L 283.021222 278.015065 
L 283.271148 268.585593 
L 283.771001 271.519954 
L 284.020928 272.74605 
L 284.270855 273.381787 
L 284.520781 278.897913 
L 284.770708 263.444909 
L 285.020634 286.302623 
L 285.270561 267.672325 
L 285.520487 277.853166 
L 285.770414 271.010104 
L 286.02034 274.546475 
L 286.270267 272.044533 
L 286.520193 264.634127 
L 286.77012 273.529216 
L 287.020046 271.118907 
L 287.269973 271.601973 
L 287.519899 255.427179 
L 287.769826 271.09476 
L 288.019752 275.187312 
L 288.269679 272.343811 
L 288.519605 262.200261 
L 288.769532 275.237396 
L 289.019458 272.018085 
L 289.269385 273.117908 
L 289.519311 263.244674 
L 289.769238 273.851414 
L 290.019164 274.672283 
L 290.269091 272.752308 
L 290.519017 276.041419 
L 290.768944 276.792993 
L 291.01887 274.527865 
L 291.268797 270.767283 
L 291.518723 278.222562 
L 291.76865 268.486894 
L 292.018577 275.504217 
L 292.268503 278.80193 
L 292.51843 278.45051 
L 292.768356 275.217602 
L 293.018283 268.186713 
L 293.268209 273.637447 
L 293.518136 272.090809 
L 293.768062 275.254341 
L 294.017989 269.597283 
L 294.267915 276.937424 
L 294.517842 271.15621 
L 294.767768 268.106058 
L 295.017695 266.557444 
L 295.267621 271.493561 
L 295.517548 273.285497 
L 295.767474 269.038745 
L 296.017401 274.377067 
L 296.267327 274.710597 
L 296.517254 268.07652 
L 297.017107 272.950694 
L 297.267033 278.579908 
L 297.766886 272.806614 
L 298.266739 278.256221 
L 298.516666 263.618094 
L 299.016519 274.115277 
L 299.266446 271.69132 
L 299.766299 275.911057 
L 300.016225 271.541044 
L 300.266152 271.443795 
L 300.516078 270.873312 
L 300.766005 272.926745 
L 301.015931 265.035343 
L 301.265858 271.26645 
L 301.515784 271.997656 
L 302.015637 260.092353 
L 302.265564 270.036587 
L 302.51549 269.521766 
L 302.765417 270.73277 
L 303.015343 273.761359 
L 303.26527 273.688655 
L 303.515196 272.058704 
L 303.765123 265.370037 
L 304.015049 276.489397 
L 304.264976 267.383965 
L 304.514902 280.985727 
L 305.014755 265.734697 
L 305.264682 267.839159 
L 305.514608 264.864385 
L 306.014461 277.77377 
L 306.264388 271.949913 
L 306.514315 272.121623 
L 306.764241 268.893819 
L 307.014168 270.881809 
L 307.264094 275.06537 
L 307.514021 269.849964 
L 307.763947 271.250402 
L 308.013874 275.239347 
L 308.513727 263.241349 
L 308.763653 262.047135 
L 309.01358 265.888738 
L 309.263506 267.530093 
L 309.513433 274.257629 
L 309.763359 269.174841 
L 310.013286 273.046813 
L 310.263212 266.56413 
L 310.513139 274.659266 
L 310.763065 274.90528 
L 311.012992 269.913749 
L 311.262918 259.951104 
L 311.512845 274.884102 
L 311.762771 270.986555 
L 312.012698 272.036746 
L 312.262624 269.371082 
L 312.512551 265.339861 
L 312.762477 277.487586 
L 313.26233 265.29827 
L 313.512257 268.636719 
L 313.762183 268.478921 
L 314.262037 265.942892 
L 314.511963 278.20133 
L 314.76189 272.316536 
L 315.011816 271.536078 
L 315.261743 265.551535 
L 315.511669 273.886738 
L 315.761596 274.652856 
L 316.011522 270.742007 
L 316.261449 273.715956 
L 316.511375 261.313795 
L 316.761302 281.576329 
L 317.011228 257.331916 
L 317.261155 274.472937 
L 317.511081 273.970328 
L 317.761008 277.932932 
L 318.010934 266.386337 
L 318.260861 266.332025 
L 318.510787 275.287097 
L 318.760714 272.607303 
L 319.01064 272.36106 
L 319.260567 268.628856 
L 319.510493 273.908224 
L 319.76042 273.801593 
L 320.010346 276.143328 
L 320.260273 269.380884 
L 320.510199 276.090198 
L 320.760126 271.761253 
L 321.010052 277.858844 
L 321.259979 272.279464 
L 321.509906 274.488301 
L 321.759832 265.352701 
L 322.009759 270.733189 
L 322.259685 272.726804 
L 322.509612 275.960152 
L 323.009465 252.813303 
L 323.259391 269.074206 
L 323.509318 268.795998 
L 324.009171 274.846431 
L 324.259097 276.030919 
L 324.509024 266.06507 
L 324.75895 273.420301 
L 325.008877 272.316817 
L 325.258803 268.891555 
L 325.50873 273.443636 
L 325.758656 273.598419 
L 326.008583 273.569793 
L 326.258509 275.132338 
L 326.508436 269.997457 
L 326.758362 279.527323 
L 327.008289 268.024719 
L 327.258215 275.615388 
L 327.508142 273.227588 
L 327.758068 277.706419 
L 328.007995 275.142506 
L 328.257921 260.432781 
L 328.507848 264.885058 
L 328.757775 277.878022 
L 329.007701 280.365676 
L 329.257628 276.981683 
L 329.507554 278.286235 
L 329.757481 267.057898 
L 330.007407 268.893973 
L 330.257334 272.863446 
L 330.50726 269.860475 
L 330.757187 282.800027 
L 331.007113 257.457675 
L 331.25704 275.018958 
L 331.506966 274.344957 
L 331.756893 250.00927 
L 332.006819 277.82854 
L 332.756599 263.544538 
L 333.006525 272.34589 
L 333.256452 271.677194 
L 333.506378 284.783872 
L 333.756305 279.965573 
L 334.006231 267.610009 
L 334.256158 267.029679 
L 334.506084 267.317089 
L 334.756011 272.342291 
L 335.005937 267.199788 
L 335.255864 285.514219 
L 335.50579 279.867998 
L 335.755717 269.85613 
L 336.005644 267.300818 
L 336.25557 269.708638 
L 336.505497 241.549136 
L 336.755423 279.551075 
L 337.00535 268.565357 
L 337.255276 273.360464 
L 337.505203 261.030446 
L 337.755129 273.261278 
L 338.005056 273.725915 
L 338.254982 269.157409 
L 338.504909 274.331718 
L 338.754835 270.426018 
L 339.004762 269.787135 
L 339.254688 280.815827 
L 339.504615 271.742924 
L 339.754541 270.479129 
L 340.004468 273.576334 
L 340.254394 269.728626 
L 340.504321 269.336397 
L 340.754247 279.099436 
L 341.004174 273.613509 
L 341.2541 275.774565 
L 341.504027 273.542613 
L 341.753953 266.334417 
L 342.00388 278.823731 
L 342.253806 270.522893 
L 342.503733 271.125297 
L 342.753659 281.746755 
L 343.003586 266.207113 
L 343.253512 280.85647 
L 343.503439 274.982773 
L 343.753366 272.443314 
L 344.003292 274.075216 
L 344.253219 269.058424 
L 344.503145 278.588211 
L 344.753072 274.952877 
L 345.002998 267.16889 
L 345.252925 271.351281 
L 345.502851 273.501651 
L 345.752778 285.512671 
L 346.002704 263.568768 
L 346.252631 272.186655 
L 346.752484 279.399481 
L 347.00241 275.082364 
L 347.252337 275.708852 
L 347.502263 273.356927 
L 347.75219 277.729258 
L 348.002116 265.744326 
L 348.252043 267.943807 
L 348.501969 260.633713 
L 348.751896 274.701716 
L 349.251749 268.392942 
L 349.501675 276.870081 
L 349.751602 274.154145 
L 350.001528 272.907737 
L 350.251455 267.950117 
L 350.501381 265.24537 
L 350.751308 267.990519 
L 351.001235 265.247218 
L 351.251161 271.529555 
L 351.501088 268.222986 
L 351.751014 286.219929 
L 352.000941 263.672738 
L 352.250867 278.440548 
L 352.500794 276.174126 
L 352.75072 277.308113 
L 353.000647 271.33925 
L 353.250573 270.561353 
L 353.5005 272.036267 
L 353.750426 271.847886 
L 354.000353 272.0286 
L 354.250279 271.793679 
L 354.500206 281.407883 
L 354.750132 270.939156 
L 355.249985 268.560074 
L 355.499912 266.156511 
L 355.749838 276.755771 
L 355.999765 278.626603 
L 356.249691 266.879877 
L 356.499618 275.975797 
L 356.749544 272.271478 
L 356.999471 272.164867 
L 357.499324 284.87649 
L 357.74925 274.142578 
L 357.999177 273.446561 
L 358.249104 267.441955 
L 358.49903 272.431486 
L 358.748957 265.621862 
L 359.24881 272.253086 
L 359.748663 277.838049 
L 359.998589 278.958289 
L 360.248516 269.921403 
L 360.498442 266.441427 
L 360.748369 279.225496 
L 360.998295 264.18059 
L 361.248222 265.997627 
L 361.498148 279.774622 
L 361.748075 275.928438 
L 361.998001 263.681261 
L 362.247928 277.919169 
L 362.497854 277.399843 
L 362.747781 267.538263 
L 362.997707 266.647671 
L 363.747487 276.083775 
L 363.997413 261.428456 
L 364.497266 272.836452 
L 364.747193 272.435742 
L 364.997119 272.954362 
L 365.247046 275.902015 
L 365.496972 270.040223 
L 365.746899 270.871172 
L 365.996826 273.559988 
L 366.246752 273.853311 
L 366.496679 269.133145 
L 366.746605 274.467259 
L 366.996532 272.180908 
L 367.246458 267.913717 
L 367.746311 279.512768 
L 367.996238 276.22261 
L 368.246164 262.887036 
L 368.496091 279.39757 
L 368.746017 272.304014 
L 368.995944 273.224059 
L 369.24587 268.308847 
L 369.495797 266.990786 
L 369.745723 268.195547 
L 369.99565 279.996829 
L 370.245576 236.454938 
L 370.495503 264.476956 
L 370.745429 268.205828 
L 370.995356 273.968164 
L 371.245282 254.985844 
L 371.495209 276.377102 
L 371.745135 274.829007 
L 371.995062 262.890166 
L 372.244988 273.456345 
L 372.494915 268.087037 
L 372.744841 266.909623 
L 372.994768 268.58858 
L 373.244695 277.116507 
L 373.494621 273.086444 
L 373.744548 274.932578 
L 373.994474 279.6512 
L 374.494327 272.669936 
L 374.744254 279.108797 
L 374.99418 269.04949 
L 375.244107 272.375738 
L 375.494033 267.939521 
L 375.74396 273.120132 
L 375.993886 270.660799 
L 376.243813 274.449539 
L 376.493739 250.120601 
L 376.743666 275.296468 
L 376.993592 277.354407 
L 377.243519 270.380366 
L 377.493445 280.004523 
L 377.743372 268.230064 
L 377.993298 271.792051 
L 378.243225 271.132752 
L 378.493151 276.035012 
L 378.743078 269.058908 
L 378.993004 268.641456 
L 379.242931 266.672557 
L 379.492857 276.969137 
L 379.742784 274.182478 
L 379.99271 274.474945 
L 380.242637 272.091003 
L 380.492564 276.24893 
L 380.74249 270.41737 
L 380.992417 279.384288 
L 381.242343 268.102126 
L 381.49227 277.323775 
L 381.992123 265.698911 
L 382.242049 277.336519 
L 382.741902 273.442849 
L 382.991829 275.23402 
L 383.241755 264.008765 
L 383.491682 274.220287 
L 383.741608 274.14124 
L 383.991535 263.907221 
L 384.241461 262.06712 
L 384.491388 273.770297 
L 384.741314 268.631054 
L 384.991241 279.19044 
L 385.241167 269.21399 
L 385.491094 273.657289 
L 385.74102 267.717848 
L 385.990947 273.937163 
L 386.240873 267.544619 
L 386.4908 268.243688 
L 386.740726 271.146361 
L 386.990653 277.224438 
L 387.240579 276.901957 
L 387.490506 271.402223 
L 387.740433 279.044861 
L 387.990359 273.300806 
L 388.240286 262.288724 
L 388.490212 275.042205 
L 388.740139 268.062455 
L 388.990065 280.528682 
L 389.239992 271.121089 
L 389.489918 273.235934 
L 389.739845 267.460847 
L 389.989771 275.045013 
L 390.239698 276.506492 
L 390.489624 276.816212 
L 390.739551 267.103611 
L 390.989477 269.362725 
L 391.239404 262.373235 
L 391.739257 271.96369 
L 391.989183 268.252895 
L 392.23911 275.049744 
L 392.489036 264.60824 
L 392.738963 269.016428 
L 392.988889 264.348776 
L 393.238816 272.100417 
L 393.488742 272.112723 
L 393.738669 276.754467 
L 393.988595 272.369194 
L 394.238522 272.217653 
L 394.488448 266.466223 
L 394.738375 267.054242 
L 394.988301 273.281217 
L 395.238228 266.229849 
L 395.488155 277.918311 
L 395.738081 268.492021 
L 395.988008 270.087658 
L 396.237934 276.728316 
L 396.487861 273.241901 
L 396.737787 280.464699 
L 396.987714 267.876312 
L 397.23764 269.366246 
L 397.487567 270.122031 
L 397.737493 274.885576 
L 397.98742 274.999601 
L 398.487273 259.577104 
L 398.487273 259.577104 
" style="fill:none;stroke:#ff7f0e;stroke-linecap:square;stroke-width:1.5;"/>
   </g>
   <g id="patch_3">
    <path d="M 57.6 307.584 
L 57.6 41.472 
" style="fill:none;stroke:#000000;stroke-linecap:square;stroke-linejoin:miter;stroke-width:0.8;"/>
   </g>
   <g id="patch_4">
    <path d="M 414.72 307.584 
L 414.72 41.472 
" style="fill:none;stroke:#000000;stroke-linecap:square;stroke-linejoin:miter;stroke-width:0.8;"/>
   </g>
   <g id="patch_5">
    <path d="M 57.6 307.584 
L 414.72 307.584 
" style="fill:none;stroke:#000000;stroke-linecap:square;stroke-linejoin:miter;stroke-width:0.8;"/>
   </g>
   <g id="patch_6">
    <path d="M 57.6 41.472 
L 414.72 41.472 
" style="fill:none;stroke:#000000;stroke-linecap:square;stroke-linejoin:miter;stroke-width:0.8;"/>
   </g>
   <g id="legend_1">
    <g id="patch_7">
     <path d="M 303.845 78.82825 
L 407.72 78.82825 
Q 409.72 78.82825 409.72 76.82825 
L 409.72 48.472 
Q 409.72 46.472 407.72 46.472 
L 303.845 46.472 
Q 301.845 46.472 301.845 48.472 
L 301.845 76.82825 
Q 301.845 78.82825 303.845 78.82825 
z
" style="fill:#ffffff;opacity:0.8;stroke:#cccccc;stroke-linejoin:miter;"/>
    </g>
    <g id="line2d_17">
     <path d="M 305.845 54.570437 
L 325.845 54.570437 
" style="fill:none;stroke:#1f77b4;stroke-linecap:square;stroke-width:1.5;"/>
    </g>
    <g id="line2d_18"/>
    <g id="text_16">
     <!-- Train loss -->
     <g transform="translate(333.845 58.070437)scale(0.1 -0.1)">
      <defs>
       <path d="M -19 4666 
L 3928 4666 
L 3928 4134 
L 2272 4134 
L 2272 0 
L 1638 0 
L 1638 4134 
L -19 4134 
L -19 4666 
z
" id="DejaVuSans-54" transform="scale(0.015625)"/>
       <path d="M 2631 2963 
Q 2534 3019 2420 3045 
Q 2306 3072 2169 3072 
Q 1681 3072 1420 2755 
Q 1159 2438 1159 1844 
L 1159 0 
L 581 0 
L 581 3500 
L 1159 3500 
L 1159 2956 
Q 1341 3275 1631 3429 
Q 1922 3584 2338 3584 
Q 2397 3584 2469 3576 
Q 2541 3569 2628 3553 
L 2631 2963 
z
" id="DejaVuSans-72" transform="scale(0.015625)"/>
       <path d="M 2194 1759 
Q 1497 1759 1228 1600 
Q 959 1441 959 1056 
Q 959 750 1161 570 
Q 1363 391 1709 391 
Q 2188 391 2477 730 
Q 2766 1069 2766 1631 
L 2766 1759 
L 2194 1759 
z
M 3341 1997 
L 3341 0 
L 2766 0 
L 2766 531 
Q 2569 213 2275 61 
Q 1981 -91 1556 -91 
Q 1019 -91 701 211 
Q 384 513 384 1019 
Q 384 1609 779 1909 
Q 1175 2209 1959 2209 
L 2766 2209 
L 2766 2266 
Q 2766 2663 2505 2880 
Q 2244 3097 1772 3097 
Q 1472 3097 1187 3025 
Q 903 2953 641 2809 
L 641 3341 
Q 956 3463 1253 3523 
Q 1550 3584 1831 3584 
Q 2591 3584 2966 3190 
Q 3341 2797 3341 1997 
z
" id="DejaVuSans-61" transform="scale(0.015625)"/>
       <path d="M 603 3500 
L 1178 3500 
L 1178 0 
L 603 0 
L 603 3500 
z
M 603 4863 
L 1178 4863 
L 1178 4134 
L 603 4134 
L 603 4863 
z
" id="DejaVuSans-69" transform="scale(0.015625)"/>
       <path d="M 3513 2113 
L 3513 0 
L 2938 0 
L 2938 2094 
Q 2938 2591 2744 2837 
Q 2550 3084 2163 3084 
Q 1697 3084 1428 2787 
Q 1159 2491 1159 1978 
L 1159 0 
L 581 0 
L 581 3500 
L 1159 3500 
L 1159 2956 
Q 1366 3272 1645 3428 
Q 1925 3584 2291 3584 
Q 2894 3584 3203 3211 
Q 3513 2838 3513 2113 
z
" id="DejaVuSans-6e" transform="scale(0.015625)"/>
       <path id="DejaVuSans-20" transform="scale(0.015625)"/>
       <path d="M 603 4863 
L 1178 4863 
L 1178 0 
L 603 0 
L 603 4863 
z
" id="DejaVuSans-6c" transform="scale(0.015625)"/>
       <path d="M 2834 3397 
L 2834 2853 
Q 2591 2978 2328 3040 
Q 2066 3103 1784 3103 
Q 1356 3103 1142 2972 
Q 928 2841 928 2578 
Q 928 2378 1081 2264 
Q 1234 2150 1697 2047 
L 1894 2003 
Q 2506 1872 2764 1633 
Q 3022 1394 3022 966 
Q 3022 478 2636 193 
Q 2250 -91 1575 -91 
Q 1294 -91 989 -36 
Q 684 19 347 128 
L 347 722 
Q 666 556 975 473 
Q 1284 391 1588 391 
Q 1994 391 2212 530 
Q 2431 669 2431 922 
Q 2431 1156 2273 1281 
Q 2116 1406 1581 1522 
L 1381 1569 
Q 847 1681 609 1914 
Q 372 2147 372 2553 
Q 372 3047 722 3315 
Q 1072 3584 1716 3584 
Q 2034 3584 2315 3537 
Q 2597 3491 2834 3397 
z
" id="DejaVuSans-73" transform="scale(0.015625)"/>
      </defs>
      <use xlink:href="#DejaVuSans-54"/>
      <use x="46.333984" xlink:href="#DejaVuSans-72"/>
      <use x="87.447266" xlink:href="#DejaVuSans-61"/>
      <use x="148.726562" xlink:href="#DejaVuSans-69"/>
      <use x="176.509766" xlink:href="#DejaVuSans-6e"/>
      <use x="239.888672" xlink:href="#DejaVuSans-20"/>
      <use x="271.675781" xlink:href="#DejaVuSans-6c"/>
      <use x="299.458984" xlink:href="#DejaVuSans-6f"/>
      <use x="360.640625" xlink:href="#DejaVuSans-73"/>
      <use x="412.740234" xlink:href="#DejaVuSans-73"/>
     </g>
    </g>
    <g id="line2d_19">
     <path d="M 305.845 69.248562 
L 325.845 69.248562 
" style="fill:none;stroke:#ff7f0e;stroke-linecap:square;stroke-width:1.5;"/>
    </g>
    <g id="line2d_20"/>
    <g id="text_17">
     <!-- Validation loss -->
     <g transform="translate(333.845 72.748562)scale(0.1 -0.1)">
      <defs>
       <path d="M 1831 0 
L 50 4666 
L 709 4666 
L 2188 738 
L 3669 4666 
L 4325 4666 
L 2547 0 
L 1831 0 
z
" id="DejaVuSans-56" transform="scale(0.015625)"/>
       <path d="M 2906 2969 
L 2906 4863 
L 3481 4863 
L 3481 0 
L 2906 0 
L 2906 525 
Q 2725 213 2448 61 
Q 2172 -91 1784 -91 
Q 1150 -91 751 415 
Q 353 922 353 1747 
Q 353 2572 751 3078 
Q 1150 3584 1784 3584 
Q 2172 3584 2448 3432 
Q 2725 3281 2906 2969 
z
M 947 1747 
Q 947 1113 1208 752 
Q 1469 391 1925 391 
Q 2381 391 2643 752 
Q 2906 1113 2906 1747 
Q 2906 2381 2643 2742 
Q 2381 3103 1925 3103 
Q 1469 3103 1208 2742 
Q 947 2381 947 1747 
z
" id="DejaVuSans-64" transform="scale(0.015625)"/>
       <path d="M 1172 4494 
L 1172 3500 
L 2356 3500 
L 2356 3053 
L 1172 3053 
L 1172 1153 
Q 1172 725 1289 603 
Q 1406 481 1766 481 
L 2356 481 
L 2356 0 
L 1766 0 
Q 1100 0 847 248 
Q 594 497 594 1153 
L 594 3053 
L 172 3053 
L 172 3500 
L 594 3500 
L 594 4494 
L 1172 4494 
z
" id="DejaVuSans-74" transform="scale(0.015625)"/>
      </defs>
      <use xlink:href="#DejaVuSans-56"/>
      <use x="60.658203" xlink:href="#DejaVuSans-61"/>
      <use x="121.9375" xlink:href="#DejaVuSans-6c"/>
      <use x="149.720703" xlink:href="#DejaVuSans-69"/>
      <use x="177.503906" xlink:href="#DejaVuSans-64"/>
      <use x="240.980469" xlink:href="#DejaVuSans-61"/>
      <use x="302.259766" xlink:href="#DejaVuSans-74"/>
      <use x="341.46875" xlink:href="#DejaVuSans-69"/>
      <use x="369.251953" xlink:href="#DejaVuSans-6f"/>
      <use x="430.433594" xlink:href="#DejaVuSans-6e"/>
      <use x="493.8125" xlink:href="#DejaVuSans-20"/>
      <use x="525.599609" xlink:href="#DejaVuSans-6c"/>
      <use x="553.382812" xlink:href="#DejaVuSans-6f"/>
      <use x="614.564453" xlink:href="#DejaVuSans-73"/>
      <use x="666.664062" xlink:href="#DejaVuSans-73"/>
     </g>
    </g>
   </g>
  </g>
 </g>
 <defs>
  <clipPath id="pbdc7247db9">
   <rect height="266.112" width="357.12" x="57.6" y="41.472"/>
  </clipPath>
 </defs>
</svg>
