<?xml version="1.0" encoding="utf-8" standalone="no"?>
<!DOCTYPE svg PUBLIC "-//W3C//DTD SVG 1.1//EN"
  "http://www.w3.org/Graphics/SVG/1.1/DTD/svg11.dtd">
<svg height="345.6pt" version="1.1" viewBox="0 0 460.8 345.6" width="460.8pt" xmlns="http://www.w3.org/2000/svg" xmlns:xlink="http://www.w3.org/1999/xlink">
 <metadata>
  <rdf:RDF xmlns:cc="http://creativecommons.org/ns#" xmlns:dc="http://purl.org/dc/elements/1.1/" xmlns:rdf="http://www.w3.org/1999/02/22-rdf-syntax-ns#">
   <cc:Work>
    <dc:type rdf:resource="http://purl.org/dc/dcmitype/StillImage"/>
    <dc:date>2021-07-16T18:36:28.389612</dc:date>
    <dc:format>image/svg+xml</dc:format>
    <dc:creator>
     <cc:Agent>
      <dc:title>Matplotlib v3.4.2, https://matplotlib.org/</dc:title>
     </cc:Agent>
    </dc:creator>
   </cc:Work>
  </rdf:RDF>
 </metadata>
 <defs>
  <style type="text/css">*{stroke-linecap:butt;stroke-linejoin:round;}</style>
 </defs>
 <g id="figure_1">
  <g id="patch_1">
   <path d="M 0 345.6 
L 460.8 345.6 
L 460.8 0 
L 0 0 
z
" style="fill:#ffffff;"/>
  </g>
  <g id="axes_1">
   <g id="patch_2">
    <path d="M 57.6 307.584 
L 414.72 307.584 
L 414.72 41.472 
L 57.6 41.472 
z
" style="fill:#ffffff;"/>
   </g>
   <g id="matplotlib.axis_1">
    <g id="xtick_1">
     <g id="line2d_1">
      <defs>
       <path d="M 0 0 
L 0 3.5 
" id="me301bfe8bd" style="stroke:#000000;stroke-width:0.8;"/>
      </defs>
      <g>
       <use style="stroke:#000000;stroke-width:0.8;" x="73.019057" xlink:href="#me301bfe8bd" y="307.584"/>
      </g>
     </g>
     <g id="text_1">
      <!-- 0 -->
      <g transform="translate(69.837807 322.182437)scale(0.1 -0.1)">
       <defs>
        <path d="M 2034 4250 
Q 1547 4250 1301 3770 
Q 1056 3291 1056 2328 
Q 1056 1369 1301 889 
Q 1547 409 2034 409 
Q 2525 409 2770 889 
Q 3016 1369 3016 2328 
Q 3016 3291 2770 3770 
Q 2525 4250 2034 4250 
z
M 2034 4750 
Q 2819 4750 3233 4129 
Q 3647 3509 3647 2328 
Q 3647 1150 3233 529 
Q 2819 -91 2034 -91 
Q 1250 -91 836 529 
Q 422 1150 422 2328 
Q 422 3509 836 4129 
Q 1250 4750 2034 4750 
z
" id="DejaVuSans-30" transform="scale(0.015625)"/>
       </defs>
       <use xlink:href="#DejaVuSans-30"/>
      </g>
     </g>
    </g>
    <g id="xtick_2">
     <g id="line2d_2">
      <g>
       <use style="stroke:#000000;stroke-width:0.8;" x="113.702584" xlink:href="#me301bfe8bd" y="307.584"/>
      </g>
     </g>
     <g id="text_2">
      <!-- 50 -->
      <g transform="translate(107.340084 322.182437)scale(0.1 -0.1)">
       <defs>
        <path d="M 691 4666 
L 3169 4666 
L 3169 4134 
L 1269 4134 
L 1269 2991 
Q 1406 3038 1543 3061 
Q 1681 3084 1819 3084 
Q 2600 3084 3056 2656 
Q 3513 2228 3513 1497 
Q 3513 744 3044 326 
Q 2575 -91 1722 -91 
Q 1428 -91 1123 -41 
Q 819 9 494 109 
L 494 744 
Q 775 591 1075 516 
Q 1375 441 1709 441 
Q 2250 441 2565 725 
Q 2881 1009 2881 1497 
Q 2881 1984 2565 2268 
Q 2250 2553 1709 2553 
Q 1456 2553 1204 2497 
Q 953 2441 691 2322 
L 691 4666 
z
" id="DejaVuSans-35" transform="scale(0.015625)"/>
       </defs>
       <use xlink:href="#DejaVuSans-35"/>
       <use x="63.623047" xlink:href="#DejaVuSans-30"/>
      </g>
     </g>
    </g>
    <g id="xtick_3">
     <g id="line2d_3">
      <g>
       <use style="stroke:#000000;stroke-width:0.8;" x="154.386111" xlink:href="#me301bfe8bd" y="307.584"/>
      </g>
     </g>
     <g id="text_3">
      <!-- 100 -->
      <g transform="translate(144.842361 322.182437)scale(0.1 -0.1)">
       <defs>
        <path d="M 794 531 
L 1825 531 
L 1825 4091 
L 703 3866 
L 703 4441 
L 1819 4666 
L 2450 4666 
L 2450 531 
L 3481 531 
L 3481 0 
L 794 0 
L 794 531 
z
" id="DejaVuSans-31" transform="scale(0.015625)"/>
       </defs>
       <use xlink:href="#DejaVuSans-31"/>
       <use x="63.623047" xlink:href="#DejaVuSans-30"/>
       <use x="127.246094" xlink:href="#DejaVuSans-30"/>
      </g>
     </g>
    </g>
    <g id="xtick_4">
     <g id="line2d_4">
      <g>
       <use style="stroke:#000000;stroke-width:0.8;" x="195.069638" xlink:href="#me301bfe8bd" y="307.584"/>
      </g>
     </g>
     <g id="text_4">
      <!-- 150 -->
      <g transform="translate(185.525888 322.182437)scale(0.1 -0.1)">
       <use xlink:href="#DejaVuSans-31"/>
       <use x="63.623047" xlink:href="#DejaVuSans-35"/>
       <use x="127.246094" xlink:href="#DejaVuSans-30"/>
      </g>
     </g>
    </g>
    <g id="xtick_5">
     <g id="line2d_5">
      <g>
       <use style="stroke:#000000;stroke-width:0.8;" x="235.753165" xlink:href="#me301bfe8bd" y="307.584"/>
      </g>
     </g>
     <g id="text_5">
      <!-- 200 -->
      <g transform="translate(226.209415 322.182437)scale(0.1 -0.1)">
       <defs>
        <path d="M 1228 531 
L 3431 531 
L 3431 0 
L 469 0 
L 469 531 
Q 828 903 1448 1529 
Q 2069 2156 2228 2338 
Q 2531 2678 2651 2914 
Q 2772 3150 2772 3378 
Q 2772 3750 2511 3984 
Q 2250 4219 1831 4219 
Q 1534 4219 1204 4116 
Q 875 4013 500 3803 
L 500 4441 
Q 881 4594 1212 4672 
Q 1544 4750 1819 4750 
Q 2544 4750 2975 4387 
Q 3406 4025 3406 3419 
Q 3406 3131 3298 2873 
Q 3191 2616 2906 2266 
Q 2828 2175 2409 1742 
Q 1991 1309 1228 531 
z
" id="DejaVuSans-32" transform="scale(0.015625)"/>
       </defs>
       <use xlink:href="#DejaVuSans-32"/>
       <use x="63.623047" xlink:href="#DejaVuSans-30"/>
       <use x="127.246094" xlink:href="#DejaVuSans-30"/>
      </g>
     </g>
    </g>
    <g id="xtick_6">
     <g id="line2d_6">
      <g>
       <use style="stroke:#000000;stroke-width:0.8;" x="276.436692" xlink:href="#me301bfe8bd" y="307.584"/>
      </g>
     </g>
     <g id="text_6">
      <!-- 250 -->
      <g transform="translate(266.892942 322.182437)scale(0.1 -0.1)">
       <use xlink:href="#DejaVuSans-32"/>
       <use x="63.623047" xlink:href="#DejaVuSans-35"/>
       <use x="127.246094" xlink:href="#DejaVuSans-30"/>
      </g>
     </g>
    </g>
    <g id="xtick_7">
     <g id="line2d_7">
      <g>
       <use style="stroke:#000000;stroke-width:0.8;" x="317.120219" xlink:href="#me301bfe8bd" y="307.584"/>
      </g>
     </g>
     <g id="text_7">
      <!-- 300 -->
      <g transform="translate(307.576469 322.182437)scale(0.1 -0.1)">
       <defs>
        <path d="M 2597 2516 
Q 3050 2419 3304 2112 
Q 3559 1806 3559 1356 
Q 3559 666 3084 287 
Q 2609 -91 1734 -91 
Q 1441 -91 1130 -33 
Q 819 25 488 141 
L 488 750 
Q 750 597 1062 519 
Q 1375 441 1716 441 
Q 2309 441 2620 675 
Q 2931 909 2931 1356 
Q 2931 1769 2642 2001 
Q 2353 2234 1838 2234 
L 1294 2234 
L 1294 2753 
L 1863 2753 
Q 2328 2753 2575 2939 
Q 2822 3125 2822 3475 
Q 2822 3834 2567 4026 
Q 2313 4219 1838 4219 
Q 1578 4219 1281 4162 
Q 984 4106 628 3988 
L 628 4550 
Q 988 4650 1302 4700 
Q 1616 4750 1894 4750 
Q 2613 4750 3031 4423 
Q 3450 4097 3450 3541 
Q 3450 3153 3228 2886 
Q 3006 2619 2597 2516 
z
" id="DejaVuSans-33" transform="scale(0.015625)"/>
       </defs>
       <use xlink:href="#DejaVuSans-33"/>
       <use x="63.623047" xlink:href="#DejaVuSans-30"/>
       <use x="127.246094" xlink:href="#DejaVuSans-30"/>
      </g>
     </g>
    </g>
    <g id="xtick_8">
     <g id="line2d_8">
      <g>
       <use style="stroke:#000000;stroke-width:0.8;" x="357.803746" xlink:href="#me301bfe8bd" y="307.584"/>
      </g>
     </g>
     <g id="text_8">
      <!-- 350 -->
      <g transform="translate(348.259996 322.182437)scale(0.1 -0.1)">
       <use xlink:href="#DejaVuSans-33"/>
       <use x="63.623047" xlink:href="#DejaVuSans-35"/>
       <use x="127.246094" xlink:href="#DejaVuSans-30"/>
      </g>
     </g>
    </g>
    <g id="xtick_9">
     <g id="line2d_9">
      <g>
       <use style="stroke:#000000;stroke-width:0.8;" x="398.487273" xlink:href="#me301bfe8bd" y="307.584"/>
      </g>
     </g>
     <g id="text_9">
      <!-- 400 -->
      <g transform="translate(388.943523 322.182437)scale(0.1 -0.1)">
       <defs>
        <path d="M 2419 4116 
L 825 1625 
L 2419 1625 
L 2419 4116 
z
M 2253 4666 
L 3047 4666 
L 3047 1625 
L 3713 1625 
L 3713 1100 
L 3047 1100 
L 3047 0 
L 2419 0 
L 2419 1100 
L 313 1100 
L 313 1709 
L 2253 4666 
z
" id="DejaVuSans-34" transform="scale(0.015625)"/>
       </defs>
       <use xlink:href="#DejaVuSans-34"/>
       <use x="63.623047" xlink:href="#DejaVuSans-30"/>
       <use x="127.246094" xlink:href="#DejaVuSans-30"/>
      </g>
     </g>
    </g>
    <g id="text_10">
     <!-- Epoch -->
     <g transform="translate(213.193594 339.659781)scale(0.15 -0.15)">
      <defs>
       <path d="M 628 4666 
L 3578 4666 
L 3578 4134 
L 1259 4134 
L 1259 2753 
L 3481 2753 
L 3481 2222 
L 1259 2222 
L 1259 531 
L 3634 531 
L 3634 0 
L 628 0 
L 628 4666 
z
" id="DejaVuSans-45" transform="scale(0.015625)"/>
       <path d="M 1159 525 
L 1159 -1331 
L 581 -1331 
L 581 3500 
L 1159 3500 
L 1159 2969 
Q 1341 3281 1617 3432 
Q 1894 3584 2278 3584 
Q 2916 3584 3314 3078 
Q 3713 2572 3713 1747 
Q 3713 922 3314 415 
Q 2916 -91 2278 -91 
Q 1894 -91 1617 61 
Q 1341 213 1159 525 
z
M 3116 1747 
Q 3116 2381 2855 2742 
Q 2594 3103 2138 3103 
Q 1681 3103 1420 2742 
Q 1159 2381 1159 1747 
Q 1159 1113 1420 752 
Q 1681 391 2138 391 
Q 2594 391 2855 752 
Q 3116 1113 3116 1747 
z
" id="DejaVuSans-70" transform="scale(0.015625)"/>
       <path d="M 1959 3097 
Q 1497 3097 1228 2736 
Q 959 2375 959 1747 
Q 959 1119 1226 758 
Q 1494 397 1959 397 
Q 2419 397 2687 759 
Q 2956 1122 2956 1747 
Q 2956 2369 2687 2733 
Q 2419 3097 1959 3097 
z
M 1959 3584 
Q 2709 3584 3137 3096 
Q 3566 2609 3566 1747 
Q 3566 888 3137 398 
Q 2709 -91 1959 -91 
Q 1206 -91 779 398 
Q 353 888 353 1747 
Q 353 2609 779 3096 
Q 1206 3584 1959 3584 
z
" id="DejaVuSans-6f" transform="scale(0.015625)"/>
       <path d="M 3122 3366 
L 3122 2828 
Q 2878 2963 2633 3030 
Q 2388 3097 2138 3097 
Q 1578 3097 1268 2742 
Q 959 2388 959 1747 
Q 959 1106 1268 751 
Q 1578 397 2138 397 
Q 2388 397 2633 464 
Q 2878 531 3122 666 
L 3122 134 
Q 2881 22 2623 -34 
Q 2366 -91 2075 -91 
Q 1284 -91 818 406 
Q 353 903 353 1747 
Q 353 2603 823 3093 
Q 1294 3584 2113 3584 
Q 2378 3584 2631 3529 
Q 2884 3475 3122 3366 
z
" id="DejaVuSans-63" transform="scale(0.015625)"/>
       <path d="M 3513 2113 
L 3513 0 
L 2938 0 
L 2938 2094 
Q 2938 2591 2744 2837 
Q 2550 3084 2163 3084 
Q 1697 3084 1428 2787 
Q 1159 2491 1159 1978 
L 1159 0 
L 581 0 
L 581 4863 
L 1159 4863 
L 1159 2956 
Q 1366 3272 1645 3428 
Q 1925 3584 2291 3584 
Q 2894 3584 3203 3211 
Q 3513 2838 3513 2113 
z
" id="DejaVuSans-68" transform="scale(0.015625)"/>
      </defs>
      <use xlink:href="#DejaVuSans-45"/>
      <use x="63.183594" xlink:href="#DejaVuSans-70"/>
      <use x="126.660156" xlink:href="#DejaVuSans-6f"/>
      <use x="187.841797" xlink:href="#DejaVuSans-63"/>
      <use x="242.822266" xlink:href="#DejaVuSans-68"/>
     </g>
    </g>
   </g>
   <g id="matplotlib.axis_2">
    <g id="ytick_1">
     <g id="line2d_10">
      <defs>
       <path d="M 0 0 
L -3.5 0 
" id="mc84dab7e42" style="stroke:#000000;stroke-width:0.8;"/>
      </defs>
      <g>
       <use style="stroke:#000000;stroke-width:0.8;" x="57.6" xlink:href="#mc84dab7e42" y="301.631147"/>
      </g>
     </g>
     <g id="text_11">
      <!-- 0.0 -->
      <g transform="translate(34.696875 305.430366)scale(0.1 -0.1)">
       <defs>
        <path d="M 684 794 
L 1344 794 
L 1344 0 
L 684 0 
L 684 794 
z
" id="DejaVuSans-2e" transform="scale(0.015625)"/>
       </defs>
       <use xlink:href="#DejaVuSans-30"/>
       <use x="63.623047" xlink:href="#DejaVuSans-2e"/>
       <use x="95.410156" xlink:href="#DejaVuSans-30"/>
      </g>
     </g>
    </g>
    <g id="ytick_2">
     <g id="line2d_11">
      <g>
       <use style="stroke:#000000;stroke-width:0.8;" x="57.6" xlink:href="#mc84dab7e42" y="262.123964"/>
      </g>
     </g>
     <g id="text_12">
      <!-- 0.2 -->
      <g transform="translate(34.696875 265.923182)scale(0.1 -0.1)">
       <use xlink:href="#DejaVuSans-30"/>
       <use x="63.623047" xlink:href="#DejaVuSans-2e"/>
       <use x="95.410156" xlink:href="#DejaVuSans-32"/>
      </g>
     </g>
    </g>
    <g id="ytick_3">
     <g id="line2d_12">
      <g>
       <use style="stroke:#000000;stroke-width:0.8;" x="57.6" xlink:href="#mc84dab7e42" y="222.61678"/>
      </g>
     </g>
     <g id="text_13">
      <!-- 0.4 -->
      <g transform="translate(34.696875 226.415999)scale(0.1 -0.1)">
       <use xlink:href="#DejaVuSans-30"/>
       <use x="63.623047" xlink:href="#DejaVuSans-2e"/>
       <use x="95.410156" xlink:href="#DejaVuSans-34"/>
      </g>
     </g>
    </g>
    <g id="ytick_4">
     <g id="line2d_13">
      <g>
       <use style="stroke:#000000;stroke-width:0.8;" x="57.6" xlink:href="#mc84dab7e42" y="183.109597"/>
      </g>
     </g>
     <g id="text_14">
      <!-- 0.6 -->
      <g transform="translate(34.696875 186.908816)scale(0.1 -0.1)">
       <defs>
        <path d="M 2113 2584 
Q 1688 2584 1439 2293 
Q 1191 2003 1191 1497 
Q 1191 994 1439 701 
Q 1688 409 2113 409 
Q 2538 409 2786 701 
Q 3034 994 3034 1497 
Q 3034 2003 2786 2293 
Q 2538 2584 2113 2584 
z
M 3366 4563 
L 3366 3988 
Q 3128 4100 2886 4159 
Q 2644 4219 2406 4219 
Q 1781 4219 1451 3797 
Q 1122 3375 1075 2522 
Q 1259 2794 1537 2939 
Q 1816 3084 2150 3084 
Q 2853 3084 3261 2657 
Q 3669 2231 3669 1497 
Q 3669 778 3244 343 
Q 2819 -91 2113 -91 
Q 1303 -91 875 529 
Q 447 1150 447 2328 
Q 447 3434 972 4092 
Q 1497 4750 2381 4750 
Q 2619 4750 2861 4703 
Q 3103 4656 3366 4563 
z
" id="DejaVuSans-36" transform="scale(0.015625)"/>
       </defs>
       <use xlink:href="#DejaVuSans-30"/>
       <use x="63.623047" xlink:href="#DejaVuSans-2e"/>
       <use x="95.410156" xlink:href="#DejaVuSans-36"/>
      </g>
     </g>
    </g>
    <g id="ytick_5">
     <g id="line2d_14">
      <g>
       <use style="stroke:#000000;stroke-width:0.8;" x="57.6" xlink:href="#mc84dab7e42" y="143.602414"/>
      </g>
     </g>
     <g id="text_15">
      <!-- 0.8 -->
      <g transform="translate(34.696875 147.401633)scale(0.1 -0.1)">
       <defs>
        <path d="M 2034 2216 
Q 1584 2216 1326 1975 
Q 1069 1734 1069 1313 
Q 1069 891 1326 650 
Q 1584 409 2034 409 
Q 2484 409 2743 651 
Q 3003 894 3003 1313 
Q 3003 1734 2745 1975 
Q 2488 2216 2034 2216 
z
M 1403 2484 
Q 997 2584 770 2862 
Q 544 3141 544 3541 
Q 544 4100 942 4425 
Q 1341 4750 2034 4750 
Q 2731 4750 3128 4425 
Q 3525 4100 3525 3541 
Q 3525 3141 3298 2862 
Q 3072 2584 2669 2484 
Q 3125 2378 3379 2068 
Q 3634 1759 3634 1313 
Q 3634 634 3220 271 
Q 2806 -91 2034 -91 
Q 1263 -91 848 271 
Q 434 634 434 1313 
Q 434 1759 690 2068 
Q 947 2378 1403 2484 
z
M 1172 3481 
Q 1172 3119 1398 2916 
Q 1625 2713 2034 2713 
Q 2441 2713 2670 2916 
Q 2900 3119 2900 3481 
Q 2900 3844 2670 4047 
Q 2441 4250 2034 4250 
Q 1625 4250 1398 4047 
Q 1172 3844 1172 3481 
z
" id="DejaVuSans-38" transform="scale(0.015625)"/>
       </defs>
       <use xlink:href="#DejaVuSans-30"/>
       <use x="63.623047" xlink:href="#DejaVuSans-2e"/>
       <use x="95.410156" xlink:href="#DejaVuSans-38"/>
      </g>
     </g>
    </g>
    <g id="ytick_6">
     <g id="line2d_15">
      <g>
       <use style="stroke:#000000;stroke-width:0.8;" x="57.6" xlink:href="#mc84dab7e42" y="104.09523"/>
      </g>
     </g>
     <g id="text_16">
      <!-- 1.0 -->
      <g transform="translate(34.696875 107.894449)scale(0.1 -0.1)">
       <use xlink:href="#DejaVuSans-31"/>
       <use x="63.623047" xlink:href="#DejaVuSans-2e"/>
       <use x="95.410156" xlink:href="#DejaVuSans-30"/>
      </g>
     </g>
    </g>
    <g id="ytick_7">
     <g id="line2d_16">
      <g>
       <use style="stroke:#000000;stroke-width:0.8;" x="57.6" xlink:href="#mc84dab7e42" y="64.588047"/>
      </g>
     </g>
     <g id="text_17">
      <!-- 1.2 -->
      <g transform="translate(34.696875 68.387266)scale(0.1 -0.1)">
       <use xlink:href="#DejaVuSans-31"/>
       <use x="63.623047" xlink:href="#DejaVuSans-2e"/>
       <use x="95.410156" xlink:href="#DejaVuSans-32"/>
      </g>
     </g>
    </g>
    <g id="text_18">
     <!-- Loss -->
     <g transform="translate(27.577344 190.978781)rotate(-90)scale(0.15 -0.15)">
      <defs>
       <path d="M 628 4666 
L 1259 4666 
L 1259 531 
L 3531 531 
L 3531 0 
L 628 0 
L 628 4666 
z
" id="DejaVuSans-4c" transform="scale(0.015625)"/>
       <path d="M 2834 3397 
L 2834 2853 
Q 2591 2978 2328 3040 
Q 2066 3103 1784 3103 
Q 1356 3103 1142 2972 
Q 928 2841 928 2578 
Q 928 2378 1081 2264 
Q 1234 2150 1697 2047 
L 1894 2003 
Q 2506 1872 2764 1633 
Q 3022 1394 3022 966 
Q 3022 478 2636 193 
Q 2250 -91 1575 -91 
Q 1294 -91 989 -36 
Q 684 19 347 128 
L 347 722 
Q 666 556 975 473 
Q 1284 391 1588 391 
Q 1994 391 2212 530 
Q 2431 669 2431 922 
Q 2431 1156 2273 1281 
Q 2116 1406 1581 1522 
L 1381 1569 
Q 847 1681 609 1914 
Q 372 2147 372 2553 
Q 372 3047 722 3315 
Q 1072 3584 1716 3584 
Q 2034 3584 2315 3537 
Q 2597 3491 2834 3397 
z
" id="DejaVuSans-73" transform="scale(0.015625)"/>
      </defs>
      <use xlink:href="#DejaVuSans-4c"/>
      <use x="53.962891" xlink:href="#DejaVuSans-6f"/>
      <use x="115.144531" xlink:href="#DejaVuSans-73"/>
      <use x="167.244141" xlink:href="#DejaVuSans-73"/>
     </g>
    </g>
   </g>
   <g id="line2d_17">
    <path clip-path="url(#pca7c58f2ae)" d="M 73.832727 218.11342 
L 74.646398 214.793631 
L 75.460068 211.966125 
L 76.273739 225.00653 
L 77.087409 224.54036 
L 77.90108 217.03627 
L 78.714751 217.748293 
L 79.528421 210.389148 
L 80.342092 217.09715 
L 81.155762 212.656801 
L 81.969433 219.652676 
L 83.596774 205.327614 
L 84.410444 221.882232 
L 85.224115 206.622034 
L 86.037785 231.211991 
L 86.851456 216.032143 
L 87.665126 219.074266 
L 88.478797 230.155875 
L 89.292468 217.553435 
L 90.106138 214.482629 
L 90.919809 217.713175 
L 91.733479 215.928392 
L 92.54715 214.900465 
L 93.36082 216.324301 
L 94.174491 211.962403 
L 94.988161 215.619565 
L 95.801832 210.749762 
L 96.615502 204.254061 
L 97.429173 216.177557 
L 98.242843 213.14798 
L 99.056514 211.408376 
L 99.870185 219.066015 
L 100.683855 218.499312 
L 101.497526 209.190916 
L 102.311196 217.444819 
L 103.124867 215.880655 
L 103.938537 221.085129 
L 104.752208 207.722817 
L 105.565878 209.463533 
L 106.379549 225.563929 
L 107.193219 218.270737 
L 108.00689 215.843461 
L 108.82056 206.722083 
L 109.634231 219.475398 
L 110.447902 216.728143 
L 111.261572 213.473437 
L 112.075243 220.515422 
L 112.888913 212.696277 
L 113.702584 233.162745 
L 114.516254 224.621867 
L 115.329925 219.794903 
L 116.143595 224.556815 
L 116.957266 212.69265 
L 117.770936 218.220017 
L 118.584607 208.171234 
L 119.398278 224.831398 
L 120.211948 224.694972 
L 121.025619 208.346336 
L 121.839289 210.41353 
L 122.65296 214.968584 
L 123.46663 216.468407 
L 125.093971 223.681419 
L 125.907642 215.617547 
L 126.721312 221.516222 
L 127.534983 209.449765 
L 128.348653 226.815934 
L 129.162324 221.439425 
L 129.975995 219.607147 
L 130.789665 234.312561 
L 131.603336 231.347759 
L 132.417006 226.058982 
L 133.230677 210.493016 
L 134.044347 229.608235 
L 134.858018 228.486605 
L 135.671688 225.577112 
L 136.485359 232.839745 
L 137.299029 227.984084 
L 138.1127 226.631983 
L 138.92637 236.48318 
L 139.740041 227.61363 
L 140.553712 225.65098 
L 141.367382 234.362795 
L 142.181053 223.703701 
L 142.994723 232.984198 
L 143.808394 219.978726 
L 144.622064 236.250561 
L 146.249405 233.844753 
L 147.063076 237.137216 
L 147.876746 239.247135 
L 149.504087 235.07266 
L 150.317758 226.9047 
L 151.131429 226.507765 
L 151.945099 232.973731 
L 152.75877 236.883276 
L 153.57244 226.791114 
L 154.386111 234.952734 
L 155.199781 224.800878 
L 156.013452 227.370954 
L 157.640793 234.993057 
L 158.454463 234.788371 
L 159.268134 239.591026 
L 160.081805 238.074579 
L 160.895475 242.821559 
L 161.709146 233.909269 
L 162.522816 232.859474 
L 163.336487 246.391343 
L 164.150157 230.139212 
L 164.963828 236.936817 
L 165.777498 241.007673 
L 166.591169 243.670425 
L 167.404839 240.785331 
L 168.21851 235.816087 
L 169.03218 239.778746 
L 169.845851 237.864412 
L 170.659522 246.12793 
L 172.286863 234.475086 
L 173.100533 237.571323 
L 173.914204 245.221791 
L 174.727874 235.418622 
L 175.541545 245.450524 
L 176.355215 234.04369 
L 177.168886 243.351223 
L 177.982556 244.147403 
L 178.796227 242.740822 
L 179.609897 242.694692 
L 180.423568 247.771909 
L 181.237239 247.006891 
L 182.050909 242.927542 
L 182.86458 253.840502 
L 183.67825 259.734177 
L 184.491921 235.751866 
L 185.305591 245.87185 
L 186.119262 248.060542 
L 186.932932 247.684229 
L 187.746603 248.754337 
L 188.560273 247.873493 
L 189.373944 236.686804 
L 190.187614 248.152425 
L 191.001285 255.122027 
L 191.814956 254.531913 
L 192.628626 251.867611 
L 193.442297 241.878382 
L 194.255967 253.04114 
L 195.069638 250.711406 
L 195.883308 254.785556 
L 196.696979 261.025594 
L 197.510649 244.548433 
L 198.32432 244.983074 
L 199.13799 256.773172 
L 199.951661 257.384803 
L 200.765332 253.083618 
L 201.579002 255.061462 
L 202.392673 257.453969 
L 203.206343 249.511191 
L 204.020014 259.336569 
L 204.833684 255.638061 
L 205.647355 254.61675 
L 206.461025 254.287555 
L 207.274696 257.97992 
L 208.088366 267.002662 
L 208.902037 265.499513 
L 209.715707 257.288382 
L 210.529378 262.669491 
L 211.343049 252.821891 
L 212.156719 263.126003 
L 212.97039 256.469172 
L 213.78406 261.756794 
L 214.597731 256.185225 
L 215.411401 261.179434 
L 216.225072 260.43595 
L 217.038742 263.910512 
L 217.852413 263.812888 
L 218.666083 257.518573 
L 219.479754 263.848125 
L 220.293424 257.563488 
L 221.107095 265.878276 
L 221.920766 258.249104 
L 222.734436 258.559056 
L 223.548107 261.620718 
L 224.361777 265.665656 
L 225.175448 266.85826 
L 225.989118 259.060918 
L 226.802789 267.919461 
L 227.616459 262.173957 
L 228.43013 264.652433 
L 229.2438 259.834276 
L 230.057471 257.851368 
L 230.871141 271.603444 
L 231.684812 262.990339 
L 232.498483 266.373802 
L 233.312153 268.175413 
L 234.125824 264.859677 
L 234.939494 268.89469 
L 235.753165 267.124632 
L 236.566835 273.41426 
L 237.380506 273.199888 
L 238.194176 263.052985 
L 239.007847 265.211639 
L 240.635188 266.416262 
L 241.448859 272.615157 
L 242.262529 271.966068 
L 243.0762 271.517287 
L 243.88987 266.718513 
L 244.703541 269.542383 
L 245.517211 262.782768 
L 246.330882 272.860731 
L 247.144552 274.385334 
L 247.958223 260.296048 
L 249.585564 273.693697 
L 250.399234 276.888453 
L 251.212905 265.457516 
L 252.026576 269.284271 
L 252.840246 275.547053 
L 253.653917 275.406176 
L 254.467587 276.607141 
L 255.281258 278.395871 
L 256.908599 268.021348 
L 257.722269 271.547491 
L 258.53594 277.421014 
L 259.34961 278.488979 
L 260.163281 267.023734 
L 260.976951 274.078111 
L 261.790622 278.731284 
L 262.604293 275.970887 
L 263.417963 275.395986 
L 264.231634 275.378957 
L 265.045304 275.832733 
L 265.858975 276.681855 
L 266.672645 281.852739 
L 267.486316 278.646259 
L 268.299986 277.85957 
L 269.113657 275.644928 
L 269.927327 282.095143 
L 270.740998 274.215486 
L 272.368339 278.340576 
L 273.18201 279.7251 
L 273.99568 278.696784 
L 274.809351 280.060673 
L 275.623021 282.314497 
L 276.436692 275.432456 
L 277.250362 282.186555 
L 278.064033 277.097429 
L 278.877703 278.235102 
L 279.691374 280.144486 
L 280.505044 284.084285 
L 281.318715 281.319964 
L 282.132386 286.188733 
L 282.946056 286.901289 
L 283.759727 285.641564 
L 284.573397 282.072557 
L 285.387068 283.781702 
L 286.200738 277.504416 
L 287.014409 282.874327 
L 287.828079 281.195007 
L 288.64175 281.956953 
L 289.45542 281.241236 
L 290.269091 284.95109 
L 291.082761 285.678216 
L 291.896432 283.575045 
L 292.710103 285.99905 
L 293.523773 284.133218 
L 294.337444 279.946478 
L 295.151114 281.243032 
L 295.964785 286.507333 
L 296.778455 279.178305 
L 297.592126 278.782318 
L 298.405796 284.007434 
L 299.219467 286.785085 
L 300.033137 286.053124 
L 300.846808 281.291609 
L 301.660478 280.068731 
L 302.474149 290.386784 
L 303.28782 279.576952 
L 304.10149 284.183306 
L 304.915161 284.623339 
L 305.728831 283.585365 
L 306.542502 287.589695 
L 307.356172 286.635986 
L 308.169843 286.568047 
L 308.983513 279.275406 
L 309.797184 285.963327 
L 311.424525 288.187497 
L 312.238195 281.973195 
L 313.865537 287.973585 
L 314.679207 283.975156 
L 315.492878 282.450392 
L 317.120219 285.057143 
L 317.933889 285.042765 
L 318.74756 286.559269 
L 319.56123 231.009684 
L 320.374901 244.707265 
L 321.188571 265.201033 
L 322.002242 270.786884 
L 322.815913 272.452691 
L 323.629583 275.721618 
L 324.443254 267.878978 
L 325.256924 279.825029 
L 326.070595 275.786549 
L 326.884265 281.624098 
L 327.697936 288.646817 
L 328.511606 284.189072 
L 330.138947 283.424214 
L 330.952618 284.868514 
L 331.766288 279.012921 
L 332.579959 289.317226 
L 333.39363 292.67042 
L 334.2073 276.239027 
L 335.020971 286.082809 
L 335.834641 282.2676 
L 336.648312 286.437355 
L 337.461982 293.295954 
L 338.275653 289.839599 
L 339.089323 286.871797 
L 339.902994 286.42148 
L 340.716664 284.731977 
L 341.530335 289.275885 
L 342.344005 282.696193 
L 343.157676 292.310454 
L 343.971347 287.923016 
L 344.785017 279.688757 
L 345.598688 290.2688 
L 346.412358 288.534039 
L 347.226029 282.519167 
L 348.039699 287.028943 
L 348.85337 292.854663 
L 349.66704 291.698405 
L 350.480711 282.317291 
L 351.294381 290.199253 
L 352.108052 278.414027 
L 352.921722 289.754814 
L 353.735393 285.348834 
L 354.549064 289.937176 
L 355.362734 291.40069 
L 356.176405 295.488 
L 356.990075 287.809915 
L 357.803746 289.041921 
L 358.617416 288.738479 
L 359.431087 284.671642 
L 360.244757 284.919257 
L 361.058428 291.841327 
L 361.872098 290.05112 
L 362.685769 283.867599 
L 363.49944 288.971187 
L 364.31311 283.114762 
L 365.126781 288.252089 
L 365.940451 287.058276 
L 366.754122 287.044695 
L 367.567792 293.553632 
L 368.381463 281.700904 
L 369.195133 293.298081 
L 370.008804 284.406279 
L 370.822474 288.901586 
L 371.636145 291.072179 
L 372.449815 286.306753 
L 373.263486 289.764066 
L 374.077157 289.841865 
L 374.890827 289.60772 
L 375.704498 291.961979 
L 376.518168 292.482994 
L 377.331839 289.96583 
L 378.145509 291.283883 
L 378.95918 289.831479 
L 379.77285 291.77104 
L 380.586521 282.028108 
L 381.400191 290.799599 
L 382.213862 285.858931 
L 383.027532 294.260674 
L 383.841203 289.920259 
L 384.654874 292.812769 
L 385.468544 293.771935 
L 386.282215 290.048113 
L 387.095885 294.187561 
L 387.909556 286.640041 
L 388.723226 292.186517 
L 389.536897 289.771415 
L 390.350567 293.276869 
L 391.164238 292.219725 
L 391.977908 287.851279 
L 392.791579 293.918195 
L 393.605249 292.705091 
L 394.41892 287.147187 
L 395.232591 294.413154 
L 396.046261 291.710361 
L 396.859932 291.898911 
L 397.673602 289.378999 
L 398.487273 287.635392 
L 398.487273 287.635392 
" style="fill:none;stroke:#1f77b4;stroke-linecap:square;stroke-width:1.5;"/>
   </g>
   <g id="line2d_18">
    <path clip-path="url(#pca7c58f2ae)" d="M 73.832727 67.263183 
L 74.646398 78.663021 
L 75.460068 64.362162 
L 76.273739 70.164728 
L 77.087409 74.840011 
L 77.90108 71.910605 
L 78.714751 69.946549 
L 79.528421 69.016067 
L 80.342092 76.068712 
L 81.155762 79.640947 
L 81.969433 81.352367 
L 82.783103 68.344744 
L 83.596774 73.967319 
L 84.410444 78.650196 
L 85.224115 65.405481 
L 86.037785 71.304825 
L 86.851456 65.110556 
L 87.665126 72.807663 
L 88.478797 68.546188 
L 89.292468 61.253785 
L 90.106138 71.835662 
L 90.919809 78.334228 
L 91.733479 70.512439 
L 92.54715 69.588325 
L 93.36082 81.037768 
L 94.174491 65.206227 
L 94.988161 62.486436 
L 95.801832 72.527831 
L 97.429173 78.616184 
L 98.242843 85.891075 
L 99.056514 79.965055 
L 99.870185 71.399993 
L 100.683855 73.412831 
L 101.497526 69.121158 
L 102.311196 83.447872 
L 103.124867 71.311293 
L 103.938537 70.059086 
L 104.752208 78.995066 
L 105.565878 68.553362 
L 106.379549 74.526254 
L 107.193219 69.438239 
L 108.00689 66.676335 
L 108.82056 73.577904 
L 109.634231 65.669603 
L 110.447902 68.82103 
L 111.261572 74.601457 
L 112.075243 71.061464 
L 112.888913 69.385402 
L 113.702584 55.746846 
L 114.516254 80.857596 
L 115.329925 75.22904 
L 116.143595 72.345518 
L 116.957266 70.337742 
L 117.770936 71.771386 
L 118.584607 68.607641 
L 119.398278 68.045453 
L 120.211948 53.568 
L 121.025619 78.38809 
L 121.839289 76.048718 
L 122.65296 75.395157 
L 123.46663 81.270606 
L 124.280301 84.012996 
L 125.093971 81.760389 
L 125.907642 82.069793 
L 126.721312 86.504614 
L 127.534983 82.668881 
L 128.348653 86.536172 
L 129.162324 96.108947 
L 129.975995 92.980861 
L 130.789665 91.129084 
L 131.603336 97.393788 
L 132.417006 107.485001 
L 133.230677 85.530839 
L 134.044347 94.095412 
L 134.858018 83.149843 
L 135.671688 100.583256 
L 136.485359 96.50639 
L 137.299029 100.006686 
L 138.1127 94.689417 
L 138.92637 101.958943 
L 139.740041 95.376769 
L 140.553712 106.66942 
L 141.367382 95.78061 
L 142.181053 103.391858 
L 142.994723 107.92223 
L 143.808394 95.898145 
L 144.622064 103.446753 
L 145.435735 107.205171 
L 146.249405 112.241207 
L 147.063076 99.672062 
L 147.876746 98.86876 
L 148.690417 116.004041 
L 149.504087 115.471808 
L 150.317758 112.58114 
L 151.131429 103.056301 
L 151.945099 110.370126 
L 152.75877 120.525901 
L 153.57244 96.130459 
L 154.386111 95.573094 
L 155.199781 116.170874 
L 156.013452 101.296811 
L 156.827122 110.878492 
L 157.640793 114.106002 
L 158.454463 113.144794 
L 159.268134 110.695349 
L 160.081805 110.494566 
L 160.895475 122.631099 
L 161.709146 118.428979 
L 162.522816 110.929612 
L 163.336487 118.162625 
L 164.150157 121.330032 
L 164.963828 95.985292 
L 165.777498 117.92316 
L 166.591169 116.40875 
L 167.404839 117.689935 
L 168.21851 123.72892 
L 169.03218 113.933997 
L 169.845851 127.202072 
L 170.659522 124.509477 
L 171.473192 107.835838 
L 172.286863 116.410215 
L 173.100533 113.792323 
L 173.914204 131.985199 
L 174.727874 132.700238 
L 175.541545 129.319881 
L 176.355215 132.556743 
L 177.168886 119.829102 
L 177.982556 122.160764 
L 178.796227 133.331264 
L 179.609897 130.537455 
L 180.423568 135.145513 
L 181.237239 109.537586 
L 182.050909 135.70312 
L 182.86458 131.474093 
L 183.67825 121.134798 
L 184.491921 131.33514 
L 185.305591 133.564507 
L 186.119262 130.510779 
L 187.746603 136.212874 
L 188.560273 133.80013 
L 189.373944 142.081531 
L 190.187614 119.523478 
L 191.001285 143.42089 
L 191.814956 138.819773 
L 192.628626 147.306751 
L 193.442297 134.892953 
L 194.255967 145.08893 
L 195.069638 137.125094 
L 195.883308 136.585745 
L 196.696979 145.040311 
L 197.510649 136.150939 
L 198.32432 141.640678 
L 199.13799 138.735632 
L 199.951661 138.219749 
L 200.765332 138.784827 
L 201.579002 140.755629 
L 202.392673 132.726947 
L 203.206343 148.080539 
L 204.020014 153.776792 
L 204.833684 160.294253 
L 205.647355 156.986958 
L 206.461025 146.030333 
L 207.274696 150.701665 
L 208.088366 134.246141 
L 208.902037 140.19594 
L 209.715707 134.785773 
L 210.529378 145.134602 
L 211.343049 138.537757 
L 212.156719 144.058119 
L 212.97039 151.629362 
L 213.78406 149.134495 
L 214.597731 153.815046 
L 215.411401 154.228274 
L 216.225072 153.835894 
L 217.038742 159.607493 
L 217.852413 156.455349 
L 218.666083 154.696997 
L 219.479754 152.250241 
L 220.293424 161.065137 
L 221.107095 155.763584 
L 222.734436 154.288025 
L 223.548107 148.071295 
L 224.361777 158.54203 
L 225.175448 152.278198 
L 225.989118 161.170092 
L 226.802789 158.412198 
L 227.616459 153.937479 
L 228.43013 160.416752 
L 229.2438 159.007357 
L 230.057471 160.689795 
L 230.871141 166.791815 
L 231.684812 160.149493 
L 232.498483 159.282692 
L 233.312153 162.892336 
L 234.125824 158.984748 
L 234.939494 137.193739 
L 235.753165 149.765252 
L 236.566835 164.458663 
L 237.380506 150.223277 
L 238.194176 113.005181 
L 239.821517 162.31407 
L 240.635188 166.222267 
L 241.448859 160.171483 
L 242.262529 149.195719 
L 243.0762 155.687642 
L 244.703541 159.492684 
L 245.517211 170.425227 
L 246.330882 170.288054 
L 247.144552 168.468889 
L 247.958223 177.877315 
L 248.771893 151.84936 
L 249.585564 170.025911 
L 250.399234 165.33933 
L 251.212905 159.455569 
L 252.026576 172.873404 
L 252.840246 171.048219 
L 253.653917 133.360346 
L 254.467587 144.647463 
L 255.281258 161.660597 
L 256.094928 150.832649 
L 256.908599 172.103069 
L 257.722269 171.427325 
L 258.53594 175.790974 
L 259.34961 154.070833 
L 260.163281 167.601272 
L 260.976951 160.280227 
L 261.790622 151.148183 
L 262.604293 176.081473 
L 263.417963 163.077579 
L 264.231634 168.846519 
L 265.045304 167.281321 
L 265.858975 166.793784 
L 266.672645 144.385605 
L 267.486316 143.388347 
L 268.299986 159.585622 
L 269.113657 161.546395 
L 269.927327 157.877836 
L 270.740998 159.763637 
L 271.554668 157.223274 
L 272.368339 162.647419 
L 273.18201 149.900324 
L 273.99568 146.039887 
L 274.809351 168.903412 
L 275.623021 167.152337 
L 276.436692 171.484193 
L 277.250362 166.227915 
L 278.064033 175.011119 
L 278.877703 155.475346 
L 279.691374 151.784534 
L 280.505044 169.080183 
L 281.318715 189.274888 
L 282.132386 187.493607 
L 282.946056 175.533438 
L 283.759727 148.373153 
L 284.573397 161.2346 
L 285.387068 162.387806 
L 286.200738 177.071039 
L 287.014409 174.031241 
L 287.828079 171.772973 
L 288.64175 173.154494 
L 289.45542 154.081972 
L 290.269091 159.080315 
L 291.082761 173.547702 
L 291.896432 165.601379 
L 292.710103 168.389463 
L 293.523773 169.179588 
L 294.337444 174.600355 
L 295.151114 136.690609 
L 295.964785 179.602033 
L 296.778455 153.903412 
L 297.592126 178.909967 
L 298.405796 169.02415 
L 299.219467 164.126064 
L 300.033137 164.546235 
L 300.846808 172.835475 
L 301.660478 165.49313 
L 302.474149 165.598604 
L 303.28782 185.56928 
L 304.10149 176.20625 
L 304.915161 173.69702 
L 305.728831 179.147244 
L 306.542502 159.694907 
L 307.356172 167.51442 
L 308.169843 171.01168 
L 308.983513 161.458488 
L 309.797184 159.859998 
L 310.610854 175.394687 
L 311.424525 164.85213 
L 312.238195 172.770969 
L 313.051866 170.144919 
L 313.865537 104.497567 
L 314.679207 169.027274 
L 315.492878 173.813695 
L 316.306548 172.793116 
L 317.120219 178.466533 
L 318.74756 159.709908 
L 319.56123 119.711423 
L 321.188571 173.613646 
L 322.002242 168.054196 
L 322.815913 173.702483 
L 323.629583 162.30168 
L 324.443254 172.90371 
L 325.256924 179.048104 
L 326.070595 170.956019 
L 326.884265 180.170935 
L 327.697936 159.875629 
L 328.511606 177.656496 
L 330.138947 159.008831 
L 330.952618 171.581023 
L 331.766288 178.982492 
L 332.579959 168.241983 
L 333.39363 172.10568 
L 334.2073 165.435578 
L 335.020971 172.574951 
L 335.834641 174.524629 
L 336.648312 180.67018 
L 337.461982 176.940754 
L 338.275653 162.813291 
L 339.089323 171.197443 
L 339.902994 170.055109 
L 340.716664 176.296391 
L 341.530335 173.758825 
L 342.344005 184.535729 
L 343.157676 172.670631 
L 343.971347 135.073758 
L 344.785017 173.36251 
L 345.598688 183.956509 
L 346.412358 180.245216 
L 347.226029 187.332518 
L 348.039699 193.394479 
L 348.85337 180.163101 
L 349.66704 126.109223 
L 350.480711 177.231311 
L 351.294381 170.927017 
L 352.108052 178.675952 
L 352.921722 166.488452 
L 353.735393 180.823724 
L 354.549064 163.632587 
L 355.362734 172.375014 
L 356.176405 170.450454 
L 356.990075 156.088863 
L 357.803746 156.933377 
L 358.617416 150.792983 
L 359.431087 171.755482 
L 360.244757 169.277268 
L 361.058428 172.39237 
L 361.872098 150.687465 
L 362.685769 157.909999 
L 363.49944 161.385573 
L 364.31311 158.093926 
L 365.126781 172.03224 
L 365.940451 163.894451 
L 366.754122 169.187575 
L 367.567792 169.874112 
L 368.381463 180.394547 
L 369.195133 176.663534 
L 370.008804 197.808144 
L 370.822474 181.758359 
L 371.636145 172.769409 
L 372.449815 180.249657 
L 373.263486 170.87353 
L 374.077157 177.189661 
L 374.890827 173.970211 
L 375.704498 177.180505 
L 376.518168 166.600327 
L 377.331839 171.510543 
L 378.145509 162.574024 
L 378.95918 168.072967 
L 379.77285 157.126289 
L 380.586521 182.733535 
L 381.400191 174.959224 
L 382.213862 190.077411 
L 383.027532 177.635737 
L 383.841203 188.289542 
L 384.654874 164.348606 
L 385.468544 169.118165 
L 386.282215 176.302624 
L 387.095885 166.656486 
L 387.909556 163.342407 
L 388.723226 165.45904 
L 389.536897 184.858348 
L 390.350567 169.108817 
L 391.164238 159.344382 
L 391.977908 179.548241 
L 392.791579 175.814496 
L 393.605249 175.637315 
L 394.41892 173.2317 
L 395.232591 154.439881 
L 396.046261 172.36015 
L 396.859932 141.740918 
L 397.673602 151.365581 
L 398.487273 153.325284 
L 398.487273 153.325284 
" style="fill:none;stroke:#ff7f0e;stroke-linecap:square;stroke-width:1.5;"/>
   </g>
   <g id="patch_3">
    <path d="M 57.6 307.584 
L 57.6 41.472 
" style="fill:none;stroke:#000000;stroke-linecap:square;stroke-linejoin:miter;stroke-width:0.8;"/>
   </g>
   <g id="patch_4">
    <path d="M 414.72 307.584 
L 414.72 41.472 
" style="fill:none;stroke:#000000;stroke-linecap:square;stroke-linejoin:miter;stroke-width:0.8;"/>
   </g>
   <g id="patch_5">
    <path d="M 57.6 307.584 
L 414.72 307.584 
" style="fill:none;stroke:#000000;stroke-linecap:square;stroke-linejoin:miter;stroke-width:0.8;"/>
   </g>
   <g id="patch_6">
    <path d="M 57.6 41.472 
L 414.72 41.472 
" style="fill:none;stroke:#000000;stroke-linecap:square;stroke-linejoin:miter;stroke-width:0.8;"/>
   </g>
   <g id="legend_1">
    <g id="patch_7">
     <path d="M 303.845 78.82825 
L 407.72 78.82825 
Q 409.72 78.82825 409.72 76.82825 
L 409.72 48.472 
Q 409.72 46.472 407.72 46.472 
L 303.845 46.472 
Q 301.845 46.472 301.845 48.472 
L 301.845 76.82825 
Q 301.845 78.82825 303.845 78.82825 
z
" style="fill:#ffffff;opacity:0.8;stroke:#cccccc;stroke-linejoin:miter;"/>
    </g>
    <g id="line2d_19">
     <path d="M 305.845 54.570437 
L 325.845 54.570437 
" style="fill:none;stroke:#1f77b4;stroke-linecap:square;stroke-width:1.5;"/>
    </g>
    <g id="line2d_20"/>
    <g id="text_19">
     <!-- Train loss -->
     <g transform="translate(333.845 58.070437)scale(0.1 -0.1)">
      <defs>
       <path d="M -19 4666 
L 3928 4666 
L 3928 4134 
L 2272 4134 
L 2272 0 
L 1638 0 
L 1638 4134 
L -19 4134 
L -19 4666 
z
" id="DejaVuSans-54" transform="scale(0.015625)"/>
       <path d="M 2631 2963 
Q 2534 3019 2420 3045 
Q 2306 3072 2169 3072 
Q 1681 3072 1420 2755 
Q 1159 2438 1159 1844 
L 1159 0 
L 581 0 
L 581 3500 
L 1159 3500 
L 1159 2956 
Q 1341 3275 1631 3429 
Q 1922 3584 2338 3584 
Q 2397 3584 2469 3576 
Q 2541 3569 2628 3553 
L 2631 2963 
z
" id="DejaVuSans-72" transform="scale(0.015625)"/>
       <path d="M 2194 1759 
Q 1497 1759 1228 1600 
Q 959 1441 959 1056 
Q 959 750 1161 570 
Q 1363 391 1709 391 
Q 2188 391 2477 730 
Q 2766 1069 2766 1631 
L 2766 1759 
L 2194 1759 
z
M 3341 1997 
L 3341 0 
L 2766 0 
L 2766 531 
Q 2569 213 2275 61 
Q 1981 -91 1556 -91 
Q 1019 -91 701 211 
Q 384 513 384 1019 
Q 384 1609 779 1909 
Q 1175 2209 1959 2209 
L 2766 2209 
L 2766 2266 
Q 2766 2663 2505 2880 
Q 2244 3097 1772 3097 
Q 1472 3097 1187 3025 
Q 903 2953 641 2809 
L 641 3341 
Q 956 3463 1253 3523 
Q 1550 3584 1831 3584 
Q 2591 3584 2966 3190 
Q 3341 2797 3341 1997 
z
" id="DejaVuSans-61" transform="scale(0.015625)"/>
       <path d="M 603 3500 
L 1178 3500 
L 1178 0 
L 603 0 
L 603 3500 
z
M 603 4863 
L 1178 4863 
L 1178 4134 
L 603 4134 
L 603 4863 
z
" id="DejaVuSans-69" transform="scale(0.015625)"/>
       <path d="M 3513 2113 
L 3513 0 
L 2938 0 
L 2938 2094 
Q 2938 2591 2744 2837 
Q 2550 3084 2163 3084 
Q 1697 3084 1428 2787 
Q 1159 2491 1159 1978 
L 1159 0 
L 581 0 
L 581 3500 
L 1159 3500 
L 1159 2956 
Q 1366 3272 1645 3428 
Q 1925 3584 2291 3584 
Q 2894 3584 3203 3211 
Q 3513 2838 3513 2113 
z
" id="DejaVuSans-6e" transform="scale(0.015625)"/>
       <path id="DejaVuSans-20" transform="scale(0.015625)"/>
       <path d="M 603 4863 
L 1178 4863 
L 1178 0 
L 603 0 
L 603 4863 
z
" id="DejaVuSans-6c" transform="scale(0.015625)"/>
      </defs>
      <use xlink:href="#DejaVuSans-54"/>
      <use x="46.333984" xlink:href="#DejaVuSans-72"/>
      <use x="87.447266" xlink:href="#DejaVuSans-61"/>
      <use x="148.726562" xlink:href="#DejaVuSans-69"/>
      <use x="176.509766" xlink:href="#DejaVuSans-6e"/>
      <use x="239.888672" xlink:href="#DejaVuSans-20"/>
      <use x="271.675781" xlink:href="#DejaVuSans-6c"/>
      <use x="299.458984" xlink:href="#DejaVuSans-6f"/>
      <use x="360.640625" xlink:href="#DejaVuSans-73"/>
      <use x="412.740234" xlink:href="#DejaVuSans-73"/>
     </g>
    </g>
    <g id="line2d_21">
     <path d="M 305.845 69.248562 
L 325.845 69.248562 
" style="fill:none;stroke:#ff7f0e;stroke-linecap:square;stroke-width:1.5;"/>
    </g>
    <g id="line2d_22"/>
    <g id="text_20">
     <!-- Validation loss -->
     <g transform="translate(333.845 72.748562)scale(0.1 -0.1)">
      <defs>
       <path d="M 1831 0 
L 50 4666 
L 709 4666 
L 2188 738 
L 3669 4666 
L 4325 4666 
L 2547 0 
L 1831 0 
z
" id="DejaVuSans-56" transform="scale(0.015625)"/>
       <path d="M 2906 2969 
L 2906 4863 
L 3481 4863 
L 3481 0 
L 2906 0 
L 2906 525 
Q 2725 213 2448 61 
Q 2172 -91 1784 -91 
Q 1150 -91 751 415 
Q 353 922 353 1747 
Q 353 2572 751 3078 
Q 1150 3584 1784 3584 
Q 2172 3584 2448 3432 
Q 2725 3281 2906 2969 
z
M 947 1747 
Q 947 1113 1208 752 
Q 1469 391 1925 391 
Q 2381 391 2643 752 
Q 2906 1113 2906 1747 
Q 2906 2381 2643 2742 
Q 2381 3103 1925 3103 
Q 1469 3103 1208 2742 
Q 947 2381 947 1747 
z
" id="DejaVuSans-64" transform="scale(0.015625)"/>
       <path d="M 1172 4494 
L 1172 3500 
L 2356 3500 
L 2356 3053 
L 1172 3053 
L 1172 1153 
Q 1172 725 1289 603 
Q 1406 481 1766 481 
L 2356 481 
L 2356 0 
L 1766 0 
Q 1100 0 847 248 
Q 594 497 594 1153 
L 594 3053 
L 172 3053 
L 172 3500 
L 594 3500 
L 594 4494 
L 1172 4494 
z
" id="DejaVuSans-74" transform="scale(0.015625)"/>
      </defs>
      <use xlink:href="#DejaVuSans-56"/>
      <use x="60.658203" xlink:href="#DejaVuSans-61"/>
      <use x="121.9375" xlink:href="#DejaVuSans-6c"/>
      <use x="149.720703" xlink:href="#DejaVuSans-69"/>
      <use x="177.503906" xlink:href="#DejaVuSans-64"/>
      <use x="240.980469" xlink:href="#DejaVuSans-61"/>
      <use x="302.259766" xlink:href="#DejaVuSans-74"/>
      <use x="341.46875" xlink:href="#DejaVuSans-69"/>
      <use x="369.251953" xlink:href="#DejaVuSans-6f"/>
      <use x="430.433594" xlink:href="#DejaVuSans-6e"/>
      <use x="493.8125" xlink:href="#DejaVuSans-20"/>
      <use x="525.599609" xlink:href="#DejaVuSans-6c"/>
      <use x="553.382812" xlink:href="#DejaVuSans-6f"/>
      <use x="614.564453" xlink:href="#DejaVuSans-73"/>
      <use x="666.664062" xlink:href="#DejaVuSans-73"/>
     </g>
    </g>
   </g>
  </g>
 </g>
 <defs>
  <clipPath id="pca7c58f2ae">
   <rect height="266.112" width="357.12" x="57.6" y="41.472"/>
  </clipPath>
 </defs>
</svg>
