<?xml version="1.0" encoding="utf-8" standalone="no"?>
<!DOCTYPE svg PUBLIC "-//W3C//DTD SVG 1.1//EN"
  "http://www.w3.org/Graphics/SVG/1.1/DTD/svg11.dtd">
<svg height="345.6pt" version="1.1" viewBox="0 0 460.8 345.6" width="460.8pt" xmlns="http://www.w3.org/2000/svg" xmlns:xlink="http://www.w3.org/1999/xlink">
 <metadata>
  <rdf:RDF xmlns:cc="http://creativecommons.org/ns#" xmlns:dc="http://purl.org/dc/elements/1.1/" xmlns:rdf="http://www.w3.org/1999/02/22-rdf-syntax-ns#">
   <cc:Work>
    <dc:type rdf:resource="http://purl.org/dc/dcmitype/StillImage"/>
    <dc:date>2021-07-15T02:56:23.309538</dc:date>
    <dc:format>image/svg+xml</dc:format>
    <dc:creator>
     <cc:Agent>
      <dc:title>Matplotlib v3.4.2, https://matplotlib.org/</dc:title>
     </cc:Agent>
    </dc:creator>
   </cc:Work>
  </rdf:RDF>
 </metadata>
 <defs>
  <style type="text/css">*{stroke-linecap:butt;stroke-linejoin:round;}</style>
 </defs>
 <g id="figure_1">
  <g id="patch_1">
   <path d="M 0 345.6 
L 460.8 345.6 
L 460.8 0 
L 0 0 
z
" style="fill:#ffffff;"/>
  </g>
  <g id="axes_1">
   <g id="patch_2">
    <path d="M 57.6 307.584 
L 414.72 307.584 
L 414.72 41.472 
L 57.6 41.472 
z
" style="fill:#ffffff;"/>
   </g>
   <g id="matplotlib.axis_1">
    <g id="xtick_1">
     <g id="line2d_1">
      <defs>
       <path d="M 0 0 
L 0 3.5 
" id="m4b2bae8c14" style="stroke:#000000;stroke-width:0.8;"/>
      </defs>
      <g>
       <use style="stroke:#000000;stroke-width:0.8;" x="73.019057" xlink:href="#m4b2bae8c14" y="307.584"/>
      </g>
     </g>
     <g id="text_1">
      <!-- 0 -->
      <g transform="translate(69.837807 322.182437)scale(0.1 -0.1)">
       <defs>
        <path d="M 2034 4250 
Q 1547 4250 1301 3770 
Q 1056 3291 1056 2328 
Q 1056 1369 1301 889 
Q 1547 409 2034 409 
Q 2525 409 2770 889 
Q 3016 1369 3016 2328 
Q 3016 3291 2770 3770 
Q 2525 4250 2034 4250 
z
M 2034 4750 
Q 2819 4750 3233 4129 
Q 3647 3509 3647 2328 
Q 3647 1150 3233 529 
Q 2819 -91 2034 -91 
Q 1250 -91 836 529 
Q 422 1150 422 2328 
Q 422 3509 836 4129 
Q 1250 4750 2034 4750 
z
" id="DejaVuSans-30" transform="scale(0.015625)"/>
       </defs>
       <use xlink:href="#DejaVuSans-30"/>
      </g>
     </g>
    </g>
    <g id="xtick_2">
     <g id="line2d_2">
      <g>
       <use style="stroke:#000000;stroke-width:0.8;" x="113.702584" xlink:href="#m4b2bae8c14" y="307.584"/>
      </g>
     </g>
     <g id="text_2">
      <!-- 50 -->
      <g transform="translate(107.340084 322.182437)scale(0.1 -0.1)">
       <defs>
        <path d="M 691 4666 
L 3169 4666 
L 3169 4134 
L 1269 4134 
L 1269 2991 
Q 1406 3038 1543 3061 
Q 1681 3084 1819 3084 
Q 2600 3084 3056 2656 
Q 3513 2228 3513 1497 
Q 3513 744 3044 326 
Q 2575 -91 1722 -91 
Q 1428 -91 1123 -41 
Q 819 9 494 109 
L 494 744 
Q 775 591 1075 516 
Q 1375 441 1709 441 
Q 2250 441 2565 725 
Q 2881 1009 2881 1497 
Q 2881 1984 2565 2268 
Q 2250 2553 1709 2553 
Q 1456 2553 1204 2497 
Q 953 2441 691 2322 
L 691 4666 
z
" id="DejaVuSans-35" transform="scale(0.015625)"/>
       </defs>
       <use xlink:href="#DejaVuSans-35"/>
       <use x="63.623047" xlink:href="#DejaVuSans-30"/>
      </g>
     </g>
    </g>
    <g id="xtick_3">
     <g id="line2d_3">
      <g>
       <use style="stroke:#000000;stroke-width:0.8;" x="154.386111" xlink:href="#m4b2bae8c14" y="307.584"/>
      </g>
     </g>
     <g id="text_3">
      <!-- 100 -->
      <g transform="translate(144.842361 322.182437)scale(0.1 -0.1)">
       <defs>
        <path d="M 794 531 
L 1825 531 
L 1825 4091 
L 703 3866 
L 703 4441 
L 1819 4666 
L 2450 4666 
L 2450 531 
L 3481 531 
L 3481 0 
L 794 0 
L 794 531 
z
" id="DejaVuSans-31" transform="scale(0.015625)"/>
       </defs>
       <use xlink:href="#DejaVuSans-31"/>
       <use x="63.623047" xlink:href="#DejaVuSans-30"/>
       <use x="127.246094" xlink:href="#DejaVuSans-30"/>
      </g>
     </g>
    </g>
    <g id="xtick_4">
     <g id="line2d_4">
      <g>
       <use style="stroke:#000000;stroke-width:0.8;" x="195.069638" xlink:href="#m4b2bae8c14" y="307.584"/>
      </g>
     </g>
     <g id="text_4">
      <!-- 150 -->
      <g transform="translate(185.525888 322.182437)scale(0.1 -0.1)">
       <use xlink:href="#DejaVuSans-31"/>
       <use x="63.623047" xlink:href="#DejaVuSans-35"/>
       <use x="127.246094" xlink:href="#DejaVuSans-30"/>
      </g>
     </g>
    </g>
    <g id="xtick_5">
     <g id="line2d_5">
      <g>
       <use style="stroke:#000000;stroke-width:0.8;" x="235.753165" xlink:href="#m4b2bae8c14" y="307.584"/>
      </g>
     </g>
     <g id="text_5">
      <!-- 200 -->
      <g transform="translate(226.209415 322.182437)scale(0.1 -0.1)">
       <defs>
        <path d="M 1228 531 
L 3431 531 
L 3431 0 
L 469 0 
L 469 531 
Q 828 903 1448 1529 
Q 2069 2156 2228 2338 
Q 2531 2678 2651 2914 
Q 2772 3150 2772 3378 
Q 2772 3750 2511 3984 
Q 2250 4219 1831 4219 
Q 1534 4219 1204 4116 
Q 875 4013 500 3803 
L 500 4441 
Q 881 4594 1212 4672 
Q 1544 4750 1819 4750 
Q 2544 4750 2975 4387 
Q 3406 4025 3406 3419 
Q 3406 3131 3298 2873 
Q 3191 2616 2906 2266 
Q 2828 2175 2409 1742 
Q 1991 1309 1228 531 
z
" id="DejaVuSans-32" transform="scale(0.015625)"/>
       </defs>
       <use xlink:href="#DejaVuSans-32"/>
       <use x="63.623047" xlink:href="#DejaVuSans-30"/>
       <use x="127.246094" xlink:href="#DejaVuSans-30"/>
      </g>
     </g>
    </g>
    <g id="xtick_6">
     <g id="line2d_6">
      <g>
       <use style="stroke:#000000;stroke-width:0.8;" x="276.436692" xlink:href="#m4b2bae8c14" y="307.584"/>
      </g>
     </g>
     <g id="text_6">
      <!-- 250 -->
      <g transform="translate(266.892942 322.182437)scale(0.1 -0.1)">
       <use xlink:href="#DejaVuSans-32"/>
       <use x="63.623047" xlink:href="#DejaVuSans-35"/>
       <use x="127.246094" xlink:href="#DejaVuSans-30"/>
      </g>
     </g>
    </g>
    <g id="xtick_7">
     <g id="line2d_7">
      <g>
       <use style="stroke:#000000;stroke-width:0.8;" x="317.120219" xlink:href="#m4b2bae8c14" y="307.584"/>
      </g>
     </g>
     <g id="text_7">
      <!-- 300 -->
      <g transform="translate(307.576469 322.182437)scale(0.1 -0.1)">
       <defs>
        <path d="M 2597 2516 
Q 3050 2419 3304 2112 
Q 3559 1806 3559 1356 
Q 3559 666 3084 287 
Q 2609 -91 1734 -91 
Q 1441 -91 1130 -33 
Q 819 25 488 141 
L 488 750 
Q 750 597 1062 519 
Q 1375 441 1716 441 
Q 2309 441 2620 675 
Q 2931 909 2931 1356 
Q 2931 1769 2642 2001 
Q 2353 2234 1838 2234 
L 1294 2234 
L 1294 2753 
L 1863 2753 
Q 2328 2753 2575 2939 
Q 2822 3125 2822 3475 
Q 2822 3834 2567 4026 
Q 2313 4219 1838 4219 
Q 1578 4219 1281 4162 
Q 984 4106 628 3988 
L 628 4550 
Q 988 4650 1302 4700 
Q 1616 4750 1894 4750 
Q 2613 4750 3031 4423 
Q 3450 4097 3450 3541 
Q 3450 3153 3228 2886 
Q 3006 2619 2597 2516 
z
" id="DejaVuSans-33" transform="scale(0.015625)"/>
       </defs>
       <use xlink:href="#DejaVuSans-33"/>
       <use x="63.623047" xlink:href="#DejaVuSans-30"/>
       <use x="127.246094" xlink:href="#DejaVuSans-30"/>
      </g>
     </g>
    </g>
    <g id="xtick_8">
     <g id="line2d_8">
      <g>
       <use style="stroke:#000000;stroke-width:0.8;" x="357.803746" xlink:href="#m4b2bae8c14" y="307.584"/>
      </g>
     </g>
     <g id="text_8">
      <!-- 350 -->
      <g transform="translate(348.259996 322.182437)scale(0.1 -0.1)">
       <use xlink:href="#DejaVuSans-33"/>
       <use x="63.623047" xlink:href="#DejaVuSans-35"/>
       <use x="127.246094" xlink:href="#DejaVuSans-30"/>
      </g>
     </g>
    </g>
    <g id="xtick_9">
     <g id="line2d_9">
      <g>
       <use style="stroke:#000000;stroke-width:0.8;" x="398.487273" xlink:href="#m4b2bae8c14" y="307.584"/>
      </g>
     </g>
     <g id="text_9">
      <!-- 400 -->
      <g transform="translate(388.943523 322.182437)scale(0.1 -0.1)">
       <defs>
        <path d="M 2419 4116 
L 825 1625 
L 2419 1625 
L 2419 4116 
z
M 2253 4666 
L 3047 4666 
L 3047 1625 
L 3713 1625 
L 3713 1100 
L 3047 1100 
L 3047 0 
L 2419 0 
L 2419 1100 
L 313 1100 
L 313 1709 
L 2253 4666 
z
" id="DejaVuSans-34" transform="scale(0.015625)"/>
       </defs>
       <use xlink:href="#DejaVuSans-34"/>
       <use x="63.623047" xlink:href="#DejaVuSans-30"/>
       <use x="127.246094" xlink:href="#DejaVuSans-30"/>
      </g>
     </g>
    </g>
    <g id="text_10">
     <!-- Epoch -->
     <g transform="translate(213.193594 339.659781)scale(0.15 -0.15)">
      <defs>
       <path d="M 628 4666 
L 3578 4666 
L 3578 4134 
L 1259 4134 
L 1259 2753 
L 3481 2753 
L 3481 2222 
L 1259 2222 
L 1259 531 
L 3634 531 
L 3634 0 
L 628 0 
L 628 4666 
z
" id="DejaVuSans-45" transform="scale(0.015625)"/>
       <path d="M 1159 525 
L 1159 -1331 
L 581 -1331 
L 581 3500 
L 1159 3500 
L 1159 2969 
Q 1341 3281 1617 3432 
Q 1894 3584 2278 3584 
Q 2916 3584 3314 3078 
Q 3713 2572 3713 1747 
Q 3713 922 3314 415 
Q 2916 -91 2278 -91 
Q 1894 -91 1617 61 
Q 1341 213 1159 525 
z
M 3116 1747 
Q 3116 2381 2855 2742 
Q 2594 3103 2138 3103 
Q 1681 3103 1420 2742 
Q 1159 2381 1159 1747 
Q 1159 1113 1420 752 
Q 1681 391 2138 391 
Q 2594 391 2855 752 
Q 3116 1113 3116 1747 
z
" id="DejaVuSans-70" transform="scale(0.015625)"/>
       <path d="M 1959 3097 
Q 1497 3097 1228 2736 
Q 959 2375 959 1747 
Q 959 1119 1226 758 
Q 1494 397 1959 397 
Q 2419 397 2687 759 
Q 2956 1122 2956 1747 
Q 2956 2369 2687 2733 
Q 2419 3097 1959 3097 
z
M 1959 3584 
Q 2709 3584 3137 3096 
Q 3566 2609 3566 1747 
Q 3566 888 3137 398 
Q 2709 -91 1959 -91 
Q 1206 -91 779 398 
Q 353 888 353 1747 
Q 353 2609 779 3096 
Q 1206 3584 1959 3584 
z
" id="DejaVuSans-6f" transform="scale(0.015625)"/>
       <path d="M 3122 3366 
L 3122 2828 
Q 2878 2963 2633 3030 
Q 2388 3097 2138 3097 
Q 1578 3097 1268 2742 
Q 959 2388 959 1747 
Q 959 1106 1268 751 
Q 1578 397 2138 397 
Q 2388 397 2633 464 
Q 2878 531 3122 666 
L 3122 134 
Q 2881 22 2623 -34 
Q 2366 -91 2075 -91 
Q 1284 -91 818 406 
Q 353 903 353 1747 
Q 353 2603 823 3093 
Q 1294 3584 2113 3584 
Q 2378 3584 2631 3529 
Q 2884 3475 3122 3366 
z
" id="DejaVuSans-63" transform="scale(0.015625)"/>
       <path d="M 3513 2113 
L 3513 0 
L 2938 0 
L 2938 2094 
Q 2938 2591 2744 2837 
Q 2550 3084 2163 3084 
Q 1697 3084 1428 2787 
Q 1159 2491 1159 1978 
L 1159 0 
L 581 0 
L 581 4863 
L 1159 4863 
L 1159 2956 
Q 1366 3272 1645 3428 
Q 1925 3584 2291 3584 
Q 2894 3584 3203 3211 
Q 3513 2838 3513 2113 
z
" id="DejaVuSans-68" transform="scale(0.015625)"/>
      </defs>
      <use xlink:href="#DejaVuSans-45"/>
      <use x="63.183594" xlink:href="#DejaVuSans-70"/>
      <use x="126.660156" xlink:href="#DejaVuSans-6f"/>
      <use x="187.841797" xlink:href="#DejaVuSans-63"/>
      <use x="242.822266" xlink:href="#DejaVuSans-68"/>
     </g>
    </g>
   </g>
   <g id="matplotlib.axis_2">
    <g id="ytick_1">
     <g id="line2d_10">
      <defs>
       <path d="M 0 0 
L -3.5 0 
" id="mf90f862a3b" style="stroke:#000000;stroke-width:0.8;"/>
      </defs>
      <g>
       <use style="stroke:#000000;stroke-width:0.8;" x="57.6" xlink:href="#mf90f862a3b" y="303.235908"/>
      </g>
     </g>
     <g id="text_11">
      <!-- −1200 -->
      <g transform="translate(16.770313 307.035126)scale(0.1 -0.1)">
       <defs>
        <path d="M 678 2272 
L 4684 2272 
L 4684 1741 
L 678 1741 
L 678 2272 
z
" id="DejaVuSans-2212" transform="scale(0.015625)"/>
       </defs>
       <use xlink:href="#DejaVuSans-2212"/>
       <use x="83.789062" xlink:href="#DejaVuSans-31"/>
       <use x="147.412109" xlink:href="#DejaVuSans-32"/>
       <use x="211.035156" xlink:href="#DejaVuSans-30"/>
       <use x="274.658203" xlink:href="#DejaVuSans-30"/>
      </g>
     </g>
    </g>
    <g id="ytick_2">
     <g id="line2d_11">
      <g>
       <use style="stroke:#000000;stroke-width:0.8;" x="57.6" xlink:href="#mf90f862a3b" y="263.719342"/>
      </g>
     </g>
     <g id="text_12">
      <!-- −1000 -->
      <g transform="translate(16.770313 267.518561)scale(0.1 -0.1)">
       <use xlink:href="#DejaVuSans-2212"/>
       <use x="83.789062" xlink:href="#DejaVuSans-31"/>
       <use x="147.412109" xlink:href="#DejaVuSans-30"/>
       <use x="211.035156" xlink:href="#DejaVuSans-30"/>
       <use x="274.658203" xlink:href="#DejaVuSans-30"/>
      </g>
     </g>
    </g>
    <g id="ytick_3">
     <g id="line2d_12">
      <g>
       <use style="stroke:#000000;stroke-width:0.8;" x="57.6" xlink:href="#mf90f862a3b" y="224.202777"/>
      </g>
     </g>
     <g id="text_13">
      <!-- −800 -->
      <g transform="translate(23.132812 228.001996)scale(0.1 -0.1)">
       <defs>
        <path d="M 2034 2216 
Q 1584 2216 1326 1975 
Q 1069 1734 1069 1313 
Q 1069 891 1326 650 
Q 1584 409 2034 409 
Q 2484 409 2743 651 
Q 3003 894 3003 1313 
Q 3003 1734 2745 1975 
Q 2488 2216 2034 2216 
z
M 1403 2484 
Q 997 2584 770 2862 
Q 544 3141 544 3541 
Q 544 4100 942 4425 
Q 1341 4750 2034 4750 
Q 2731 4750 3128 4425 
Q 3525 4100 3525 3541 
Q 3525 3141 3298 2862 
Q 3072 2584 2669 2484 
Q 3125 2378 3379 2068 
Q 3634 1759 3634 1313 
Q 3634 634 3220 271 
Q 2806 -91 2034 -91 
Q 1263 -91 848 271 
Q 434 634 434 1313 
Q 434 1759 690 2068 
Q 947 2378 1403 2484 
z
M 1172 3481 
Q 1172 3119 1398 2916 
Q 1625 2713 2034 2713 
Q 2441 2713 2670 2916 
Q 2900 3119 2900 3481 
Q 2900 3844 2670 4047 
Q 2441 4250 2034 4250 
Q 1625 4250 1398 4047 
Q 1172 3844 1172 3481 
z
" id="DejaVuSans-38" transform="scale(0.015625)"/>
       </defs>
       <use xlink:href="#DejaVuSans-2212"/>
       <use x="83.789062" xlink:href="#DejaVuSans-38"/>
       <use x="147.412109" xlink:href="#DejaVuSans-30"/>
       <use x="211.035156" xlink:href="#DejaVuSans-30"/>
      </g>
     </g>
    </g>
    <g id="ytick_4">
     <g id="line2d_13">
      <g>
       <use style="stroke:#000000;stroke-width:0.8;" x="57.6" xlink:href="#mf90f862a3b" y="184.686212"/>
      </g>
     </g>
     <g id="text_14">
      <!-- −600 -->
      <g transform="translate(23.132812 188.485431)scale(0.1 -0.1)">
       <defs>
        <path d="M 2113 2584 
Q 1688 2584 1439 2293 
Q 1191 2003 1191 1497 
Q 1191 994 1439 701 
Q 1688 409 2113 409 
Q 2538 409 2786 701 
Q 3034 994 3034 1497 
Q 3034 2003 2786 2293 
Q 2538 2584 2113 2584 
z
M 3366 4563 
L 3366 3988 
Q 3128 4100 2886 4159 
Q 2644 4219 2406 4219 
Q 1781 4219 1451 3797 
Q 1122 3375 1075 2522 
Q 1259 2794 1537 2939 
Q 1816 3084 2150 3084 
Q 2853 3084 3261 2657 
Q 3669 2231 3669 1497 
Q 3669 778 3244 343 
Q 2819 -91 2113 -91 
Q 1303 -91 875 529 
Q 447 1150 447 2328 
Q 447 3434 972 4092 
Q 1497 4750 2381 4750 
Q 2619 4750 2861 4703 
Q 3103 4656 3366 4563 
z
" id="DejaVuSans-36" transform="scale(0.015625)"/>
       </defs>
       <use xlink:href="#DejaVuSans-2212"/>
       <use x="83.789062" xlink:href="#DejaVuSans-36"/>
       <use x="147.412109" xlink:href="#DejaVuSans-30"/>
       <use x="211.035156" xlink:href="#DejaVuSans-30"/>
      </g>
     </g>
    </g>
    <g id="ytick_5">
     <g id="line2d_14">
      <g>
       <use style="stroke:#000000;stroke-width:0.8;" x="57.6" xlink:href="#mf90f862a3b" y="145.169647"/>
      </g>
     </g>
     <g id="text_15">
      <!-- −400 -->
      <g transform="translate(23.132812 148.968865)scale(0.1 -0.1)">
       <use xlink:href="#DejaVuSans-2212"/>
       <use x="83.789062" xlink:href="#DejaVuSans-34"/>
       <use x="147.412109" xlink:href="#DejaVuSans-30"/>
       <use x="211.035156" xlink:href="#DejaVuSans-30"/>
      </g>
     </g>
    </g>
    <g id="ytick_6">
     <g id="line2d_15">
      <g>
       <use style="stroke:#000000;stroke-width:0.8;" x="57.6" xlink:href="#mf90f862a3b" y="105.653081"/>
      </g>
     </g>
     <g id="text_16">
      <!-- −200 -->
      <g transform="translate(23.132812 109.4523)scale(0.1 -0.1)">
       <use xlink:href="#DejaVuSans-2212"/>
       <use x="83.789062" xlink:href="#DejaVuSans-32"/>
       <use x="147.412109" xlink:href="#DejaVuSans-30"/>
       <use x="211.035156" xlink:href="#DejaVuSans-30"/>
      </g>
     </g>
    </g>
    <g id="ytick_7">
     <g id="line2d_16">
      <g>
       <use style="stroke:#000000;stroke-width:0.8;" x="57.6" xlink:href="#mf90f862a3b" y="66.136516"/>
      </g>
     </g>
     <g id="text_17">
      <!-- 0 -->
      <g transform="translate(44.2375 69.935735)scale(0.1 -0.1)">
       <use xlink:href="#DejaVuSans-30"/>
      </g>
     </g>
    </g>
    <g id="text_18">
     <!-- Loss -->
     <g transform="translate(9.650781 190.978781)rotate(-90)scale(0.15 -0.15)">
      <defs>
       <path d="M 628 4666 
L 1259 4666 
L 1259 531 
L 3531 531 
L 3531 0 
L 628 0 
L 628 4666 
z
" id="DejaVuSans-4c" transform="scale(0.015625)"/>
       <path d="M 2834 3397 
L 2834 2853 
Q 2591 2978 2328 3040 
Q 2066 3103 1784 3103 
Q 1356 3103 1142 2972 
Q 928 2841 928 2578 
Q 928 2378 1081 2264 
Q 1234 2150 1697 2047 
L 1894 2003 
Q 2506 1872 2764 1633 
Q 3022 1394 3022 966 
Q 3022 478 2636 193 
Q 2250 -91 1575 -91 
Q 1294 -91 989 -36 
Q 684 19 347 128 
L 347 722 
Q 666 556 975 473 
Q 1284 391 1588 391 
Q 1994 391 2212 530 
Q 2431 669 2431 922 
Q 2431 1156 2273 1281 
Q 2116 1406 1581 1522 
L 1381 1569 
Q 847 1681 609 1914 
Q 372 2147 372 2553 
Q 372 3047 722 3315 
Q 1072 3584 1716 3584 
Q 2034 3584 2315 3537 
Q 2597 3491 2834 3397 
z
" id="DejaVuSans-73" transform="scale(0.015625)"/>
      </defs>
      <use xlink:href="#DejaVuSans-4c"/>
      <use x="53.962891" xlink:href="#DejaVuSans-6f"/>
      <use x="115.144531" xlink:href="#DejaVuSans-73"/>
      <use x="167.244141" xlink:href="#DejaVuSans-73"/>
     </g>
    </g>
   </g>
   <g id="line2d_17">
    <path clip-path="url(#pc0a7b99c1b)" d="M 73.832727 92.318551 
L 74.646398 125.756503 
L 75.460068 138.86468 
L 77.90108 170.046924 
L 78.714751 166.090243 
L 79.528421 181.083347 
L 80.342092 176.216081 
L 81.969433 197.18979 
L 82.783103 189.267412 
L 84.410444 214.490809 
L 85.224115 207.749289 
L 86.037785 212.837867 
L 86.851456 219.76565 
L 87.665126 229.175526 
L 88.478797 216.58813 
L 89.292468 223.326891 
L 90.106138 221.360925 
L 90.919809 214.140082 
L 91.733479 231.750094 
L 92.54715 240.301712 
L 93.36082 214.126919 
L 94.174491 226.355961 
L 94.988161 215.456233 
L 95.801832 230.983425 
L 96.615502 232.117451 
L 97.429173 227.721898 
L 98.242843 249.060538 
L 99.056514 237.573734 
L 99.870185 232.461573 
L 100.683855 233.596308 
L 101.497526 215.776528 
L 102.311196 236.095697 
L 103.124867 229.008143 
L 103.938537 234.207595 
L 104.752208 248.265367 
L 105.565878 237.930963 
L 106.379549 244.330227 
L 107.193219 242.538065 
L 108.00689 239.351869 
L 108.82056 242.216504 
L 109.634231 241.261082 
L 110.447902 257.667304 
L 111.261572 239.369026 
L 112.075243 249.884987 
L 112.888913 237.855559 
L 114.516254 245.126858 
L 115.329925 240.825462 
L 116.143595 248.465688 
L 116.957266 249.938032 
L 117.770936 251.911564 
L 118.584607 248.227365 
L 119.398278 240.126603 
L 120.211948 250.484608 
L 121.025619 248.230058 
L 121.839289 243.64227 
L 122.65296 244.529247 
L 123.46663 255.903026 
L 124.280301 244.668118 
L 125.093971 249.337056 
L 125.907642 259.185482 
L 126.721312 250.351539 
L 127.534983 247.123212 
L 128.348653 253.806418 
L 129.162324 249.515293 
L 129.975995 251.871413 
L 130.789665 260.278706 
L 131.603336 236.410335 
L 132.417006 246.191733 
L 134.044347 253.40759 
L 134.858018 248.414206 
L 135.671688 254.847832 
L 136.485359 256.82473 
L 137.299029 244.677069 
L 138.1127 250.67715 
L 138.92637 250.149304 
L 139.740041 248.407002 
L 140.553712 244.012465 
L 141.367382 250.795568 
L 142.181053 254.214087 
L 142.994723 255.082451 
L 143.808394 251.260043 
L 144.622064 258.604868 
L 145.435735 253.756485 
L 146.249405 247.616078 
L 147.063076 265.972248 
L 147.876746 253.702765 
L 148.690417 252.075482 
L 149.504087 252.15967 
L 150.317758 257.893132 
L 151.131429 255.056222 
L 151.945099 264.632018 
L 152.75877 253.233418 
L 153.57244 266.098453 
L 154.386111 266.8872 
L 155.199781 254.202533 
L 156.013452 260.571413 
L 156.827122 261.169492 
L 157.640793 255.84374 
L 158.454463 253.819353 
L 159.268134 256.15285 
L 160.081805 245.832511 
L 160.895475 260.03744 
L 161.709146 261.634559 
L 162.522816 247.196083 
L 163.336487 256.231973 
L 164.150157 258.616361 
L 164.963828 252.610326 
L 165.777498 254.224591 
L 166.591169 270.894287 
L 167.404839 267.443332 
L 168.21851 254.473591 
L 169.03218 258.200032 
L 169.845851 251.577636 
L 170.659522 262.185923 
L 172.286863 266.753151 
L 173.100533 256.884331 
L 173.914204 250.863668 
L 174.727874 257.632513 
L 175.541545 248.976897 
L 176.355215 257.688257 
L 177.168886 264.559796 
L 177.982556 261.870798 
L 178.796227 258.670327 
L 179.609897 260.121371 
L 180.423568 264.213373 
L 181.237239 269.469952 
L 182.050909 265.443705 
L 182.86458 271.746775 
L 183.67825 257.488079 
L 184.491921 262.655416 
L 185.305591 260.239189 
L 186.119262 273.083222 
L 186.932932 256.068855 
L 187.746603 255.469408 
L 188.560273 263.311689 
L 189.373944 264.379747 
L 190.187614 263.714237 
L 191.001285 262.240693 
L 191.814956 262.184591 
L 192.628626 258.643215 
L 193.442297 263.82205 
L 194.255967 267.778092 
L 195.069638 258.184439 
L 195.883308 264.862507 
L 196.696979 274.803972 
L 197.510649 273.130461 
L 198.32432 276.559511 
L 199.13799 267.779526 
L 199.951661 271.262223 
L 200.765332 266.551911 
L 201.579002 261.182448 
L 202.392673 269.19313 
L 203.206343 252.565665 
L 204.020014 271.420298 
L 204.833684 253.565864 
L 205.647355 278.136195 
L 206.461025 268.704854 
L 207.274696 267.768515 
L 208.088366 278.349998 
L 208.902037 262.122714 
L 209.715707 259.376809 
L 210.529378 259.568312 
L 211.343049 258.580739 
L 212.156719 263.023595 
L 212.97039 271.152098 
L 213.78406 261.150432 
L 214.597731 267.296672 
L 215.411401 256.688948 
L 216.225072 273.176625 
L 217.038742 263.554878 
L 217.852413 267.060232 
L 218.666083 259.699086 
L 219.479754 265.462375 
L 220.293424 259.259324 
L 221.107095 261.668191 
L 221.920766 265.307999 
L 222.734436 267.799788 
L 223.548107 265.44138 
L 224.361777 261.133559 
L 225.175448 272.938304 
L 225.989118 268.013005 
L 226.802789 265.479575 
L 227.616459 260.748031 
L 228.43013 254.723328 
L 229.2438 268.159502 
L 230.057471 267.070872 
L 230.871141 266.40921 
L 231.684812 272.942183 
L 232.498483 275.861913 
L 233.312153 280.509444 
L 234.125824 272.128544 
L 234.939494 274.342517 
L 235.753165 274.364666 
L 236.566835 281.01966 
L 237.380506 273.406732 
L 238.194176 269.942137 
L 239.007847 271.744557 
L 239.821517 277.905597 
L 240.635188 268.181219 
L 241.448859 269.86971 
L 242.262529 260.516006 
L 243.0762 271.259127 
L 243.88987 274.547575 
L 244.703541 268.853359 
L 245.517211 260.03628 
L 246.330882 260.078875 
L 247.144552 255.251354 
L 247.958223 280.534555 
L 248.771893 267.376976 
L 249.585564 265.750117 
L 251.212905 281.20498 
L 252.026576 275.787138 
L 252.840246 269.428361 
L 253.653917 266.628962 
L 254.467587 271.181601 
L 255.281258 269.756098 
L 256.094928 270.687856 
L 256.908599 261.057837 
L 257.722269 266.318439 
L 258.53594 261.120764 
L 259.34961 273.292563 
L 260.163281 271.978484 
L 260.976951 278.944474 
L 261.790622 262.838965 
L 262.604293 267.358792 
L 263.417963 278.245361 
L 264.231634 274.472906 
L 265.045304 271.85457 
L 265.858975 268.073792 
L 266.672645 268.087725 
L 267.486316 258.611525 
L 268.299986 266.687636 
L 269.113657 271.76526 
L 269.927327 275.745689 
L 270.740998 266.437325 
L 271.554668 265.050596 
L 272.368339 268.430322 
L 273.18201 278.695863 
L 273.99568 282.33436 
L 274.809351 262.74079 
L 275.623021 259.341161 
L 276.436692 260.813664 
L 277.250362 275.570553 
L 278.064033 270.393527 
L 278.877703 271.875962 
L 279.691374 264.995035 
L 280.505044 271.107303 
L 281.318715 269.751426 
L 282.132386 280.169135 
L 282.946056 267.651003 
L 283.759727 276.460306 
L 284.573397 276.346903 
L 285.387068 262.117476 
L 286.200738 283.280482 
L 287.014409 267.697799 
L 287.828079 277.094755 
L 288.64175 282.313485 
L 289.45542 273.634539 
L 290.269091 276.567319 
L 291.082761 272.83481 
L 291.896432 282.297186 
L 292.710103 276.619619 
L 293.523773 262.371694 
L 294.337444 272.699718 
L 295.151114 271.014842 
L 295.964785 273.57335 
L 296.778455 275.467952 
L 297.592126 280.143597 
L 298.405796 266.871889 
L 299.219467 281.261142 
L 300.033137 268.622007 
L 300.846808 280.377703 
L 301.660478 277.38221 
L 302.474149 271.436186 
L 303.28782 275.586737 
L 304.10149 277.231808 
L 304.915161 277.562125 
L 305.728831 274.735877 
L 306.542502 274.0538 
L 307.356172 286.055647 
L 308.169843 265.214829 
L 308.983513 268.101562 
L 309.797184 268.215051 
L 310.610854 268.970637 
L 311.424525 282.562305 
L 312.238195 267.374992 
L 313.051866 269.903931 
L 313.865537 266.305623 
L 314.679207 282.468316 
L 315.492878 275.362116 
L 316.306548 269.42561 
L 317.120219 280.483 
L 317.933889 281.115212 
L 318.74756 272.420578 
L 319.56123 273.531921 
L 320.374901 277.445619 
L 321.188571 268.595023 
L 322.002242 269.660993 
L 322.815913 261.535035 
L 323.629583 278.97777 
L 324.443254 273.713003 
L 325.256924 273.820744 
L 326.070595 283.143575 
L 326.884265 281.573944 
L 327.697936 285.196864 
L 328.511606 293.815784 
L 329.325277 277.915409 
L 330.138947 268.741557 
L 330.952618 270.122101 
L 331.766288 279.096979 
L 332.579959 267.458075 
L 333.39363 268.811654 
L 334.2073 263.833914 
L 335.020971 276.497875 
L 335.834641 278.051913 
L 336.648312 261.329201 
L 337.461982 277.271109 
L 338.275653 289.43536 
L 339.089323 276.412089 
L 339.902994 276.430973 
L 340.716664 279.424993 
L 341.530335 276.486582 
L 342.344005 277.45396 
L 343.157676 281.155353 
L 343.971347 270.642523 
L 344.785017 287.332152 
L 345.598688 265.164059 
L 346.412358 279.771599 
L 347.226029 263.508229 
L 348.039699 262.890733 
L 348.85337 272.318739 
L 349.66704 284.813538 
L 350.480711 263.807568 
L 351.294381 278.108465 
L 352.921722 282.951915 
L 353.735393 268.345035 
L 354.549064 286.141289 
L 355.362734 285.060931 
L 356.176405 269.1323 
L 356.990075 270.312845 
L 357.803746 264.325678 
L 358.617416 282.33301 
L 359.431087 276.837752 
L 360.244757 280.67358 
L 361.058428 275.657581 
L 361.872098 294.751524 
L 362.685769 278.995242 
L 363.49944 280.661327 
L 364.31311 264.92418 
L 365.126781 281.006331 
L 365.940451 277.361139 
L 366.754122 280.519894 
L 367.567792 284.677302 
L 368.381463 279.878539 
L 369.195133 281.10774 
L 370.008804 276.311544 
L 370.822474 282.891278 
L 371.636145 268.904701 
L 372.449815 275.272868 
L 373.263486 286.675066 
L 374.077157 269.241293 
L 374.890827 282.927609 
L 375.704498 284.707478 
L 376.518168 273.615815 
L 377.331839 273.32521 
L 378.145509 273.608476 
L 378.95918 274.252756 
L 379.77285 281.170347 
L 381.400191 274.332216 
L 382.213862 276.505635 
L 383.027532 281.09 
L 383.841203 277.112871 
L 384.654874 284.635355 
L 385.468544 271.596494 
L 386.282215 274.039546 
L 387.095885 269.233592 
L 387.909556 266.177371 
L 388.723226 282.13309 
L 389.536897 263.47142 
L 390.350567 277.763794 
L 391.164238 271.191921 
L 391.977908 295.488 
L 392.791579 282.854503 
L 393.605249 274.164229 
L 394.41892 277.070541 
L 395.232591 287.537504 
L 396.046261 274.059926 
L 396.859932 273.833806 
L 397.673602 282.469345 
L 398.487273 276.51269 
L 398.487273 276.51269 
" style="fill:none;stroke:#1f77b4;stroke-linecap:square;stroke-width:1.5;"/>
   </g>
   <g id="line2d_18">
    <path clip-path="url(#pc0a7b99c1b)" d="M 73.832727 77.10829 
L 74.646398 148.993893 
L 75.460068 146.789968 
L 76.273739 125.4033 
L 77.087409 170.036248 
L 77.90108 185.337244 
L 78.714751 188.405966 
L 79.528421 150.573093 
L 80.342092 160.234376 
L 81.155762 196.516958 
L 81.969433 202.755347 
L 83.596774 219.263727 
L 84.410444 195.923904 
L 85.224115 53.568 
L 86.037785 215.928018 
L 86.851456 217.731187 
L 87.665126 232.545536 
L 88.478797 224.075354 
L 89.292468 221.469174 
L 90.106138 234.92616 
L 90.919809 225.122425 
L 91.733479 232.589829 
L 92.54715 233.403557 
L 93.36082 224.046139 
L 94.174491 231.01249 
L 94.988161 208.055083 
L 95.801832 227.377313 
L 96.615502 235.153946 
L 97.429173 228.955804 
L 98.242843 242.61177 
L 99.056514 240.633576 
L 99.870185 250.980121 
L 100.683855 242.080866 
L 101.497526 235.692582 
L 102.311196 233.098446 
L 103.124867 244.548904 
L 103.938537 240.671222 
L 104.752208 247.832507 
L 105.565878 238.81505 
L 106.379549 243.759653 
L 107.193219 237.148105 
L 108.00689 246.383637 
L 108.82056 235.54341 
L 109.634231 241.085797 
L 110.447902 244.315814 
L 111.261572 240.069361 
L 112.075243 245.349291 
L 112.888913 244.023009 
L 113.702584 241.998408 
L 114.516254 247.239376 
L 115.329925 249.713193 
L 116.143595 247.519654 
L 116.957266 241.251664 
L 117.770936 258.314702 
L 118.584607 248.808805 
L 119.398278 242.051393 
L 120.211948 244.679654 
L 121.025619 254.754174 
L 121.839289 252.992355 
L 122.65296 243.797943 
L 123.46663 251.288652 
L 124.280301 232.830946 
L 125.093971 252.348603 
L 125.907642 240.61736 
L 126.721312 258.308208 
L 127.534983 255.114298 
L 128.348653 248.736603 
L 129.162324 254.113584 
L 129.975995 243.208822 
L 130.789665 254.003084 
L 131.603336 247.557753 
L 132.417006 256.722119 
L 133.230677 248.190206 
L 134.044347 235.760603 
L 134.858018 255.907031 
L 135.671688 259.68324 
L 136.485359 242.973025 
L 137.299029 245.936752 
L 138.1127 240.79406 
L 138.92637 249.719161 
L 139.740041 251.336145 
L 140.553712 261.969237 
L 141.367382 254.553456 
L 142.181053 251.146878 
L 142.994723 258.012704 
L 143.808394 244.823463 
L 144.622064 256.384991 
L 145.435735 260.870813 
L 146.249405 250.755854 
L 147.063076 252.500132 
L 147.876746 261.831845 
L 148.690417 264.236232 
L 149.504087 254.505231 
L 150.317758 249.746402 
L 151.131429 253.957773 
L 151.945099 261.519931 
L 152.75877 250.436787 
L 153.57244 262.54147 
L 154.386111 255.426455 
L 156.013452 263.575742 
L 156.827122 245.579863 
L 157.640793 256.223011 
L 158.454463 251.611825 
L 159.268134 257.562204 
L 160.081805 264.615231 
L 160.895475 252.911995 
L 161.709146 244.175906 
L 162.522816 258.778367 
L 163.336487 258.073462 
L 164.150157 266.497412 
L 164.963828 262.916223 
L 165.777498 268.899413 
L 166.591169 259.709468 
L 167.404839 262.801401 
L 168.21851 261.724603 
L 169.03218 247.184314 
L 169.845851 257.512879 
L 170.659522 258.921747 
L 171.473192 258.671106 
L 172.286863 264.35081 
L 173.100533 257.538404 
L 173.914204 245.079201 
L 174.727874 258.584274 
L 175.541545 261.344641 
L 176.355215 266.690802 
L 177.982556 252.610661 
L 178.796227 253.173031 
L 179.609897 253.032287 
L 180.423568 266.115015 
L 181.237239 261.395863 
L 182.050909 263.176369 
L 182.86458 253.471199 
L 183.67825 265.801083 
L 184.491921 271.711582 
L 186.119262 249.082938 
L 186.932932 258.139147 
L 187.746603 248.106703 
L 188.560273 261.071413 
L 189.373944 259.328748 
L 190.187614 261.955481 
L 191.001285 259.032472 
L 191.814956 266.035452 
L 192.628626 262.005279 
L 193.442297 261.972914 
L 194.255967 256.654621 
L 195.069638 264.552294 
L 195.883308 261.909233 
L 196.696979 267.872282 
L 197.510649 266.34588 
L 198.32432 258.629206 
L 199.13799 258.343055 
L 199.951661 258.876711 
L 200.765332 261.907722 
L 201.579002 266.83324 
L 202.392673 263.769746 
L 203.206343 273.392781 
L 204.020014 271.958278 
L 204.833684 265.288474 
L 205.647355 279.842803 
L 206.461025 262.050476 
L 207.274696 269.06083 
L 208.088366 256.765437 
L 208.902037 274.135329 
L 209.715707 256.539614 
L 210.529378 258.648477 
L 211.343049 266.804069 
L 212.156719 263.288598 
L 212.97039 270.92343 
L 213.78406 259.38536 
L 214.597731 261.769452 
L 215.411401 259.010993 
L 216.225072 270.821938 
L 217.038742 260.289987 
L 217.852413 271.842579 
L 218.666083 265.583322 
L 219.479754 262.484605 
L 220.293424 273.032516 
L 221.107095 266.790074 
L 221.920766 268.865386 
L 222.734436 263.521535 
L 223.548107 274.885218 
L 224.361777 269.516558 
L 225.175448 270.846192 
L 225.989118 273.000312 
L 226.802789 258.67186 
L 227.616459 275.008974 
L 228.43013 283.38994 
L 229.2438 262.999973 
L 230.057471 269.229684 
L 230.871141 265.113138 
L 231.684812 266.984345 
L 232.498483 275.001328 
L 233.312153 254.743276 
L 234.125824 273.508267 
L 234.939494 256.47332 
L 235.753165 274.02884 
L 236.566835 271.520216 
L 237.380506 267.681712 
L 238.194176 258.413752 
L 239.007847 268.020233 
L 239.821517 260.435368 
L 240.635188 278.380186 
L 241.448859 260.733918 
L 243.0762 277.238978 
L 243.88987 271.858108 
L 244.703541 268.543188 
L 245.517211 271.859745 
L 246.330882 274.47396 
L 247.144552 273.342817 
L 247.958223 274.960514 
L 248.771893 268.974919 
L 249.585564 266.411151 
L 250.399234 272.1549 
L 251.212905 274.970991 
L 252.026576 269.545815 
L 252.840246 276.804259 
L 253.653917 267.149929 
L 254.467587 270.904773 
L 255.281258 268.808168 
L 256.094928 279.055363 
L 256.908599 259.449589 
L 258.53594 277.231161 
L 259.34961 257.162337 
L 260.163281 268.721092 
L 260.976951 266.266551 
L 261.790622 267.541802 
L 262.604293 268.257274 
L 263.417963 270.783868 
L 264.231634 264.298822 
L 265.045304 269.319672 
L 265.858975 270.334848 
L 266.672645 269.845195 
L 267.486316 259.830128 
L 268.299986 264.051823 
L 269.113657 275.767875 
L 269.927327 279.324458 
L 270.740998 270.90496 
L 271.554668 271.482744 
L 272.368339 276.573059 
L 273.18201 261.222292 
L 273.99568 273.748593 
L 274.809351 281.224622 
L 275.623021 262.328241 
L 276.436692 277.595788 
L 277.250362 272.557733 
L 278.064033 266.662018 
L 278.877703 267.702836 
L 279.691374 267.571998 
L 280.505044 271.25861 
L 281.318715 274.337675 
L 282.132386 274.069927 
L 282.946056 281.20056 
L 283.759727 265.411422 
L 284.573397 265.745148 
L 285.387068 277.549204 
L 286.200738 271.320087 
L 287.014409 273.777434 
L 287.828079 271.547023 
L 288.64175 257.74006 
L 289.45542 261.448662 
L 290.269091 278.500594 
L 291.082761 265.208826 
L 292.710103 282.804477 
L 293.523773 270.522117 
L 294.337444 265.518165 
L 295.151114 264.708658 
L 295.964785 269.720487 
L 296.778455 276.301745 
L 297.592126 269.283107 
L 298.405796 274.038484 
L 299.219467 272.216008 
L 300.033137 263.672894 
L 300.846808 268.948701 
L 301.660478 264.423963 
L 302.474149 276.043025 
L 303.28782 272.277249 
L 304.10149 273.303696 
L 304.915161 270.775084 
L 305.728831 271.192206 
L 306.542502 272.79978 
L 307.356172 264.049982 
L 308.169843 263.682148 
L 308.983513 277.523253 
L 309.797184 273.675971 
L 310.610854 264.819435 
L 311.424525 272.150118 
L 312.238195 268.987524 
L 313.051866 277.001279 
L 313.865537 270.218141 
L 314.679207 277.845682 
L 315.492878 261.281416 
L 316.306548 281.276108 
L 317.120219 261.316188 
L 317.933889 265.349176 
L 318.74756 278.24004 
L 319.56123 273.499917 
L 320.374901 265.004246 
L 321.188571 278.702891 
L 322.002242 286.802319 
L 322.815913 274.373167 
L 323.629583 269.938817 
L 324.443254 274.067879 
L 325.256924 273.72416 
L 326.070595 268.469939 
L 326.884265 282.469588 
L 327.697936 275.893204 
L 328.511606 275.989103 
L 330.138947 263.008055 
L 330.952618 280.872252 
L 331.766288 272.07799 
L 332.579959 279.630135 
L 333.39363 273.022424 
L 334.2073 284.95282 
L 335.020971 272.678304 
L 335.834641 270.109136 
L 336.648312 270.880102 
L 337.461982 260.734156 
L 338.275653 272.33821 
L 339.089323 277.804886 
L 339.902994 280.568627 
L 340.716664 279.944237 
L 341.530335 261.32018 
L 342.344005 274.582397 
L 343.157676 285.892342 
L 343.971347 271.852958 
L 344.785017 265.566004 
L 345.598688 275.60269 
L 346.412358 257.48434 
L 347.226029 279.729799 
L 348.039699 275.853091 
L 348.85337 277.876282 
L 349.66704 268.258774 
L 350.480711 276.201649 
L 351.294381 270.958647 
L 352.108052 274.453136 
L 352.921722 267.612778 
L 353.735393 271.439404 
L 354.549064 270.219025 
L 355.362734 272.501203 
L 356.176405 276.852996 
L 356.990075 275.322036 
L 357.803746 275.863711 
L 358.617416 267.999502 
L 359.431087 281.317474 
L 360.244757 268.351152 
L 361.058428 276.791141 
L 361.872098 265.808558 
L 362.685769 279.641649 
L 363.49944 267.047222 
L 364.31311 259.936471 
L 365.126781 277.51611 
L 365.940451 265.105378 
L 366.754122 261.657284 
L 367.567792 271.203532 
L 368.381463 269.901684 
L 369.195133 274.429877 
L 370.008804 267.731178 
L 370.822474 272.48272 
L 371.636145 266.260666 
L 372.449815 266.767413 
L 373.263486 274.034997 
L 374.077157 270.102589 
L 374.890827 272.017124 
L 375.704498 272.956878 
L 376.518168 262.961915 
L 377.331839 268.450495 
L 378.145509 282.880294 
L 378.95918 269.256139 
L 379.77285 272.948802 
L 380.586521 268.92921 
L 381.400191 274.211495 
L 382.213862 266.154314 
L 383.027532 275.07911 
L 383.841203 267.595372 
L 384.654874 277.330118 
L 385.468544 275.86595 
L 386.282215 271.888285 
L 387.095885 270.669403 
L 387.909556 266.379143 
L 388.723226 261.219255 
L 389.536897 274.951628 
L 390.350567 281.555816 
L 391.164238 263.220766 
L 391.977908 278.447216 
L 392.791579 276.429943 
L 393.605249 276.939925 
L 395.232591 275.16832 
L 396.046261 275.002303 
L 396.859932 267.475933 
L 397.673602 283.123121 
L 398.487273 263.103313 
L 398.487273 263.103313 
" style="fill:none;stroke:#ff7f0e;stroke-linecap:square;stroke-width:1.5;"/>
   </g>
   <g id="patch_3">
    <path d="M 57.6 307.584 
L 57.6 41.472 
" style="fill:none;stroke:#000000;stroke-linecap:square;stroke-linejoin:miter;stroke-width:0.8;"/>
   </g>
   <g id="patch_4">
    <path d="M 414.72 307.584 
L 414.72 41.472 
" style="fill:none;stroke:#000000;stroke-linecap:square;stroke-linejoin:miter;stroke-width:0.8;"/>
   </g>
   <g id="patch_5">
    <path d="M 57.6 307.584 
L 414.72 307.584 
" style="fill:none;stroke:#000000;stroke-linecap:square;stroke-linejoin:miter;stroke-width:0.8;"/>
   </g>
   <g id="patch_6">
    <path d="M 57.6 41.472 
L 414.72 41.472 
" style="fill:none;stroke:#000000;stroke-linecap:square;stroke-linejoin:miter;stroke-width:0.8;"/>
   </g>
   <g id="legend_1">
    <g id="patch_7">
     <path d="M 303.845 78.82825 
L 407.72 78.82825 
Q 409.72 78.82825 409.72 76.82825 
L 409.72 48.472 
Q 409.72 46.472 407.72 46.472 
L 303.845 46.472 
Q 301.845 46.472 301.845 48.472 
L 301.845 76.82825 
Q 301.845 78.82825 303.845 78.82825 
z
" style="fill:#ffffff;opacity:0.8;stroke:#cccccc;stroke-linejoin:miter;"/>
    </g>
    <g id="line2d_19">
     <path d="M 305.845 54.570437 
L 325.845 54.570437 
" style="fill:none;stroke:#1f77b4;stroke-linecap:square;stroke-width:1.5;"/>
    </g>
    <g id="line2d_20"/>
    <g id="text_19">
     <!-- Train loss -->
     <g transform="translate(333.845 58.070437)scale(0.1 -0.1)">
      <defs>
       <path d="M -19 4666 
L 3928 4666 
L 3928 4134 
L 2272 4134 
L 2272 0 
L 1638 0 
L 1638 4134 
L -19 4134 
L -19 4666 
z
" id="DejaVuSans-54" transform="scale(0.015625)"/>
       <path d="M 2631 2963 
Q 2534 3019 2420 3045 
Q 2306 3072 2169 3072 
Q 1681 3072 1420 2755 
Q 1159 2438 1159 1844 
L 1159 0 
L 581 0 
L 581 3500 
L 1159 3500 
L 1159 2956 
Q 1341 3275 1631 3429 
Q 1922 3584 2338 3584 
Q 2397 3584 2469 3576 
Q 2541 3569 2628 3553 
L 2631 2963 
z
" id="DejaVuSans-72" transform="scale(0.015625)"/>
       <path d="M 2194 1759 
Q 1497 1759 1228 1600 
Q 959 1441 959 1056 
Q 959 750 1161 570 
Q 1363 391 1709 391 
Q 2188 391 2477 730 
Q 2766 1069 2766 1631 
L 2766 1759 
L 2194 1759 
z
M 3341 1997 
L 3341 0 
L 2766 0 
L 2766 531 
Q 2569 213 2275 61 
Q 1981 -91 1556 -91 
Q 1019 -91 701 211 
Q 384 513 384 1019 
Q 384 1609 779 1909 
Q 1175 2209 1959 2209 
L 2766 2209 
L 2766 2266 
Q 2766 2663 2505 2880 
Q 2244 3097 1772 3097 
Q 1472 3097 1187 3025 
Q 903 2953 641 2809 
L 641 3341 
Q 956 3463 1253 3523 
Q 1550 3584 1831 3584 
Q 2591 3584 2966 3190 
Q 3341 2797 3341 1997 
z
" id="DejaVuSans-61" transform="scale(0.015625)"/>
       <path d="M 603 3500 
L 1178 3500 
L 1178 0 
L 603 0 
L 603 3500 
z
M 603 4863 
L 1178 4863 
L 1178 4134 
L 603 4134 
L 603 4863 
z
" id="DejaVuSans-69" transform="scale(0.015625)"/>
       <path d="M 3513 2113 
L 3513 0 
L 2938 0 
L 2938 2094 
Q 2938 2591 2744 2837 
Q 2550 3084 2163 3084 
Q 1697 3084 1428 2787 
Q 1159 2491 1159 1978 
L 1159 0 
L 581 0 
L 581 3500 
L 1159 3500 
L 1159 2956 
Q 1366 3272 1645 3428 
Q 1925 3584 2291 3584 
Q 2894 3584 3203 3211 
Q 3513 2838 3513 2113 
z
" id="DejaVuSans-6e" transform="scale(0.015625)"/>
       <path id="DejaVuSans-20" transform="scale(0.015625)"/>
       <path d="M 603 4863 
L 1178 4863 
L 1178 0 
L 603 0 
L 603 4863 
z
" id="DejaVuSans-6c" transform="scale(0.015625)"/>
      </defs>
      <use xlink:href="#DejaVuSans-54"/>
      <use x="46.333984" xlink:href="#DejaVuSans-72"/>
      <use x="87.447266" xlink:href="#DejaVuSans-61"/>
      <use x="148.726562" xlink:href="#DejaVuSans-69"/>
      <use x="176.509766" xlink:href="#DejaVuSans-6e"/>
      <use x="239.888672" xlink:href="#DejaVuSans-20"/>
      <use x="271.675781" xlink:href="#DejaVuSans-6c"/>
      <use x="299.458984" xlink:href="#DejaVuSans-6f"/>
      <use x="360.640625" xlink:href="#DejaVuSans-73"/>
      <use x="412.740234" xlink:href="#DejaVuSans-73"/>
     </g>
    </g>
    <g id="line2d_21">
     <path d="M 305.845 69.248562 
L 325.845 69.248562 
" style="fill:none;stroke:#ff7f0e;stroke-linecap:square;stroke-width:1.5;"/>
    </g>
    <g id="line2d_22"/>
    <g id="text_20">
     <!-- Validation loss -->
     <g transform="translate(333.845 72.748562)scale(0.1 -0.1)">
      <defs>
       <path d="M 1831 0 
L 50 4666 
L 709 4666 
L 2188 738 
L 3669 4666 
L 4325 4666 
L 2547 0 
L 1831 0 
z
" id="DejaVuSans-56" transform="scale(0.015625)"/>
       <path d="M 2906 2969 
L 2906 4863 
L 3481 4863 
L 3481 0 
L 2906 0 
L 2906 525 
Q 2725 213 2448 61 
Q 2172 -91 1784 -91 
Q 1150 -91 751 415 
Q 353 922 353 1747 
Q 353 2572 751 3078 
Q 1150 3584 1784 3584 
Q 2172 3584 2448 3432 
Q 2725 3281 2906 2969 
z
M 947 1747 
Q 947 1113 1208 752 
Q 1469 391 1925 391 
Q 2381 391 2643 752 
Q 2906 1113 2906 1747 
Q 2906 2381 2643 2742 
Q 2381 3103 1925 3103 
Q 1469 3103 1208 2742 
Q 947 2381 947 1747 
z
" id="DejaVuSans-64" transform="scale(0.015625)"/>
       <path d="M 1172 4494 
L 1172 3500 
L 2356 3500 
L 2356 3053 
L 1172 3053 
L 1172 1153 
Q 1172 725 1289 603 
Q 1406 481 1766 481 
L 2356 481 
L 2356 0 
L 1766 0 
Q 1100 0 847 248 
Q 594 497 594 1153 
L 594 3053 
L 172 3053 
L 172 3500 
L 594 3500 
L 594 4494 
L 1172 4494 
z
" id="DejaVuSans-74" transform="scale(0.015625)"/>
      </defs>
      <use xlink:href="#DejaVuSans-56"/>
      <use x="60.658203" xlink:href="#DejaVuSans-61"/>
      <use x="121.9375" xlink:href="#DejaVuSans-6c"/>
      <use x="149.720703" xlink:href="#DejaVuSans-69"/>
      <use x="177.503906" xlink:href="#DejaVuSans-64"/>
      <use x="240.980469" xlink:href="#DejaVuSans-61"/>
      <use x="302.259766" xlink:href="#DejaVuSans-74"/>
      <use x="341.46875" xlink:href="#DejaVuSans-69"/>
      <use x="369.251953" xlink:href="#DejaVuSans-6f"/>
      <use x="430.433594" xlink:href="#DejaVuSans-6e"/>
      <use x="493.8125" xlink:href="#DejaVuSans-20"/>
      <use x="525.599609" xlink:href="#DejaVuSans-6c"/>
      <use x="553.382812" xlink:href="#DejaVuSans-6f"/>
      <use x="614.564453" xlink:href="#DejaVuSans-73"/>
      <use x="666.664062" xlink:href="#DejaVuSans-73"/>
     </g>
    </g>
   </g>
  </g>
 </g>
 <defs>
  <clipPath id="pc0a7b99c1b">
   <rect height="266.112" width="357.12" x="57.6" y="41.472"/>
  </clipPath>
 </defs>
</svg>
