<?xml version="1.0" encoding="utf-8" standalone="no"?>
<!DOCTYPE svg PUBLIC "-//W3C//DTD SVG 1.1//EN"
  "http://www.w3.org/Graphics/SVG/1.1/DTD/svg11.dtd">
<svg height="345.6pt" version="1.1" viewBox="0 0 460.8 345.6" width="460.8pt" xmlns="http://www.w3.org/2000/svg" xmlns:xlink="http://www.w3.org/1999/xlink">
 <metadata>
  <rdf:RDF xmlns:cc="http://creativecommons.org/ns#" xmlns:dc="http://purl.org/dc/elements/1.1/" xmlns:rdf="http://www.w3.org/1999/02/22-rdf-syntax-ns#">
   <cc:Work>
    <dc:type rdf:resource="http://purl.org/dc/dcmitype/StillImage"/>
    <dc:date>2021-05-13T23:02:13.424445</dc:date>
    <dc:format>image/svg+xml</dc:format>
    <dc:creator>
     <cc:Agent>
      <dc:title>Matplotlib v3.4.1, https://matplotlib.org/</dc:title>
     </cc:Agent>
    </dc:creator>
   </cc:Work>
  </rdf:RDF>
 </metadata>
 <defs>
  <style type="text/css">*{stroke-linecap:butt;stroke-linejoin:round;}</style>
 </defs>
 <g id="figure_1">
  <g id="patch_1">
   <path d="M 0 345.6 
L 460.8 345.6 
L 460.8 0 
L 0 0 
z
" style="fill:#ffffff;"/>
  </g>
  <g id="axes_1">
   <g id="patch_2">
    <path d="M 57.6 307.584 
L 414.72 307.584 
L 414.72 41.472 
L 57.6 41.472 
z
" style="fill:#ffffff;"/>
   </g>
   <g id="matplotlib.axis_1">
    <g id="xtick_1">
     <g id="line2d_1">
      <defs>
       <path d="M 0 0 
L 0 3.5 
" id="m5cd52fcaf2" style="stroke:#000000;stroke-width:0.8;"/>
      </defs>
      <g>
       <use style="stroke:#000000;stroke-width:0.8;" x="72.201297" xlink:href="#m5cd52fcaf2" y="307.584"/>
      </g>
     </g>
     <g id="text_1">
      <!-- 0 -->
      <g transform="translate(69.020047 322.182437)scale(0.1 -0.1)">
       <defs>
        <path d="M 2034 4250 
Q 1547 4250 1301 3770 
Q 1056 3291 1056 2328 
Q 1056 1369 1301 889 
Q 1547 409 2034 409 
Q 2525 409 2770 889 
Q 3016 1369 3016 2328 
Q 3016 3291 2770 3770 
Q 2525 4250 2034 4250 
z
M 2034 4750 
Q 2819 4750 3233 4129 
Q 3647 3509 3647 2328 
Q 3647 1150 3233 529 
Q 2819 -91 2034 -91 
Q 1250 -91 836 529 
Q 422 1150 422 2328 
Q 422 3509 836 4129 
Q 1250 4750 2034 4750 
z
" id="DejaVuSans-30" transform="scale(0.015625)"/>
       </defs>
       <use xlink:href="#DejaVuSans-30"/>
      </g>
     </g>
    </g>
    <g id="xtick_2">
     <g id="line2d_2">
      <g>
       <use style="stroke:#000000;stroke-width:0.8;" x="112.987044" xlink:href="#m5cd52fcaf2" y="307.584"/>
      </g>
     </g>
     <g id="text_2">
      <!-- 25 -->
      <g transform="translate(106.624544 322.182437)scale(0.1 -0.1)">
       <defs>
        <path d="M 1228 531 
L 3431 531 
L 3431 0 
L 469 0 
L 469 531 
Q 828 903 1448 1529 
Q 2069 2156 2228 2338 
Q 2531 2678 2651 2914 
Q 2772 3150 2772 3378 
Q 2772 3750 2511 3984 
Q 2250 4219 1831 4219 
Q 1534 4219 1204 4116 
Q 875 4013 500 3803 
L 500 4441 
Q 881 4594 1212 4672 
Q 1544 4750 1819 4750 
Q 2544 4750 2975 4387 
Q 3406 4025 3406 3419 
Q 3406 3131 3298 2873 
Q 3191 2616 2906 2266 
Q 2828 2175 2409 1742 
Q 1991 1309 1228 531 
z
" id="DejaVuSans-32" transform="scale(0.015625)"/>
        <path d="M 691 4666 
L 3169 4666 
L 3169 4134 
L 1269 4134 
L 1269 2991 
Q 1406 3038 1543 3061 
Q 1681 3084 1819 3084 
Q 2600 3084 3056 2656 
Q 3513 2228 3513 1497 
Q 3513 744 3044 326 
Q 2575 -91 1722 -91 
Q 1428 -91 1123 -41 
Q 819 9 494 109 
L 494 744 
Q 775 591 1075 516 
Q 1375 441 1709 441 
Q 2250 441 2565 725 
Q 2881 1009 2881 1497 
Q 2881 1984 2565 2268 
Q 2250 2553 1709 2553 
Q 1456 2553 1204 2497 
Q 953 2441 691 2322 
L 691 4666 
z
" id="DejaVuSans-35" transform="scale(0.015625)"/>
       </defs>
       <use xlink:href="#DejaVuSans-32"/>
       <use x="63.623047" xlink:href="#DejaVuSans-35"/>
      </g>
     </g>
    </g>
    <g id="xtick_3">
     <g id="line2d_3">
      <g>
       <use style="stroke:#000000;stroke-width:0.8;" x="153.772791" xlink:href="#m5cd52fcaf2" y="307.584"/>
      </g>
     </g>
     <g id="text_3">
      <!-- 50 -->
      <g transform="translate(147.410291 322.182437)scale(0.1 -0.1)">
       <use xlink:href="#DejaVuSans-35"/>
       <use x="63.623047" xlink:href="#DejaVuSans-30"/>
      </g>
     </g>
    </g>
    <g id="xtick_4">
     <g id="line2d_4">
      <g>
       <use style="stroke:#000000;stroke-width:0.8;" x="194.558538" xlink:href="#m5cd52fcaf2" y="307.584"/>
      </g>
     </g>
     <g id="text_4">
      <!-- 75 -->
      <g transform="translate(188.196038 322.182437)scale(0.1 -0.1)">
       <defs>
        <path d="M 525 4666 
L 3525 4666 
L 3525 4397 
L 1831 0 
L 1172 0 
L 2766 4134 
L 525 4134 
L 525 4666 
z
" id="DejaVuSans-37" transform="scale(0.015625)"/>
       </defs>
       <use xlink:href="#DejaVuSans-37"/>
       <use x="63.623047" xlink:href="#DejaVuSans-35"/>
      </g>
     </g>
    </g>
    <g id="xtick_5">
     <g id="line2d_5">
      <g>
       <use style="stroke:#000000;stroke-width:0.8;" x="235.344285" xlink:href="#m5cd52fcaf2" y="307.584"/>
      </g>
     </g>
     <g id="text_5">
      <!-- 100 -->
      <g transform="translate(225.800535 322.182437)scale(0.1 -0.1)">
       <defs>
        <path d="M 794 531 
L 1825 531 
L 1825 4091 
L 703 3866 
L 703 4441 
L 1819 4666 
L 2450 4666 
L 2450 531 
L 3481 531 
L 3481 0 
L 794 0 
L 794 531 
z
" id="DejaVuSans-31" transform="scale(0.015625)"/>
       </defs>
       <use xlink:href="#DejaVuSans-31"/>
       <use x="63.623047" xlink:href="#DejaVuSans-30"/>
       <use x="127.246094" xlink:href="#DejaVuSans-30"/>
      </g>
     </g>
    </g>
    <g id="xtick_6">
     <g id="line2d_6">
      <g>
       <use style="stroke:#000000;stroke-width:0.8;" x="276.130032" xlink:href="#m5cd52fcaf2" y="307.584"/>
      </g>
     </g>
     <g id="text_6">
      <!-- 125 -->
      <g transform="translate(266.586282 322.182437)scale(0.1 -0.1)">
       <use xlink:href="#DejaVuSans-31"/>
       <use x="63.623047" xlink:href="#DejaVuSans-32"/>
       <use x="127.246094" xlink:href="#DejaVuSans-35"/>
      </g>
     </g>
    </g>
    <g id="xtick_7">
     <g id="line2d_7">
      <g>
       <use style="stroke:#000000;stroke-width:0.8;" x="316.915779" xlink:href="#m5cd52fcaf2" y="307.584"/>
      </g>
     </g>
     <g id="text_7">
      <!-- 150 -->
      <g transform="translate(307.372029 322.182437)scale(0.1 -0.1)">
       <use xlink:href="#DejaVuSans-31"/>
       <use x="63.623047" xlink:href="#DejaVuSans-35"/>
       <use x="127.246094" xlink:href="#DejaVuSans-30"/>
      </g>
     </g>
    </g>
    <g id="xtick_8">
     <g id="line2d_8">
      <g>
       <use style="stroke:#000000;stroke-width:0.8;" x="357.701526" xlink:href="#m5cd52fcaf2" y="307.584"/>
      </g>
     </g>
     <g id="text_8">
      <!-- 175 -->
      <g transform="translate(348.157776 322.182437)scale(0.1 -0.1)">
       <use xlink:href="#DejaVuSans-31"/>
       <use x="63.623047" xlink:href="#DejaVuSans-37"/>
       <use x="127.246094" xlink:href="#DejaVuSans-35"/>
      </g>
     </g>
    </g>
    <g id="xtick_9">
     <g id="line2d_9">
      <g>
       <use style="stroke:#000000;stroke-width:0.8;" x="398.487273" xlink:href="#m5cd52fcaf2" y="307.584"/>
      </g>
     </g>
     <g id="text_9">
      <!-- 200 -->
      <g transform="translate(388.943523 322.182437)scale(0.1 -0.1)">
       <use xlink:href="#DejaVuSans-32"/>
       <use x="63.623047" xlink:href="#DejaVuSans-30"/>
       <use x="127.246094" xlink:href="#DejaVuSans-30"/>
      </g>
     </g>
    </g>
    <g id="text_10">
     <!-- Epoch -->
     <g transform="translate(213.193594 339.659781)scale(0.15 -0.15)">
      <defs>
       <path d="M 628 4666 
L 3578 4666 
L 3578 4134 
L 1259 4134 
L 1259 2753 
L 3481 2753 
L 3481 2222 
L 1259 2222 
L 1259 531 
L 3634 531 
L 3634 0 
L 628 0 
L 628 4666 
z
" id="DejaVuSans-45" transform="scale(0.015625)"/>
       <path d="M 1159 525 
L 1159 -1331 
L 581 -1331 
L 581 3500 
L 1159 3500 
L 1159 2969 
Q 1341 3281 1617 3432 
Q 1894 3584 2278 3584 
Q 2916 3584 3314 3078 
Q 3713 2572 3713 1747 
Q 3713 922 3314 415 
Q 2916 -91 2278 -91 
Q 1894 -91 1617 61 
Q 1341 213 1159 525 
z
M 3116 1747 
Q 3116 2381 2855 2742 
Q 2594 3103 2138 3103 
Q 1681 3103 1420 2742 
Q 1159 2381 1159 1747 
Q 1159 1113 1420 752 
Q 1681 391 2138 391 
Q 2594 391 2855 752 
Q 3116 1113 3116 1747 
z
" id="DejaVuSans-70" transform="scale(0.015625)"/>
       <path d="M 1959 3097 
Q 1497 3097 1228 2736 
Q 959 2375 959 1747 
Q 959 1119 1226 758 
Q 1494 397 1959 397 
Q 2419 397 2687 759 
Q 2956 1122 2956 1747 
Q 2956 2369 2687 2733 
Q 2419 3097 1959 3097 
z
M 1959 3584 
Q 2709 3584 3137 3096 
Q 3566 2609 3566 1747 
Q 3566 888 3137 398 
Q 2709 -91 1959 -91 
Q 1206 -91 779 398 
Q 353 888 353 1747 
Q 353 2609 779 3096 
Q 1206 3584 1959 3584 
z
" id="DejaVuSans-6f" transform="scale(0.015625)"/>
       <path d="M 3122 3366 
L 3122 2828 
Q 2878 2963 2633 3030 
Q 2388 3097 2138 3097 
Q 1578 3097 1268 2742 
Q 959 2388 959 1747 
Q 959 1106 1268 751 
Q 1578 397 2138 397 
Q 2388 397 2633 464 
Q 2878 531 3122 666 
L 3122 134 
Q 2881 22 2623 -34 
Q 2366 -91 2075 -91 
Q 1284 -91 818 406 
Q 353 903 353 1747 
Q 353 2603 823 3093 
Q 1294 3584 2113 3584 
Q 2378 3584 2631 3529 
Q 2884 3475 3122 3366 
z
" id="DejaVuSans-63" transform="scale(0.015625)"/>
       <path d="M 3513 2113 
L 3513 0 
L 2938 0 
L 2938 2094 
Q 2938 2591 2744 2837 
Q 2550 3084 2163 3084 
Q 1697 3084 1428 2787 
Q 1159 2491 1159 1978 
L 1159 0 
L 581 0 
L 581 4863 
L 1159 4863 
L 1159 2956 
Q 1366 3272 1645 3428 
Q 1925 3584 2291 3584 
Q 2894 3584 3203 3211 
Q 3513 2838 3513 2113 
z
" id="DejaVuSans-68" transform="scale(0.015625)"/>
      </defs>
      <use xlink:href="#DejaVuSans-45"/>
      <use x="63.183594" xlink:href="#DejaVuSans-70"/>
      <use x="126.660156" xlink:href="#DejaVuSans-6f"/>
      <use x="187.841797" xlink:href="#DejaVuSans-63"/>
      <use x="242.822266" xlink:href="#DejaVuSans-68"/>
     </g>
    </g>
   </g>
   <g id="matplotlib.axis_2">
    <g id="ytick_1">
     <g id="line2d_10">
      <defs>
       <path d="M 0 0 
L -3.5 0 
" id="mf34aad748a" style="stroke:#000000;stroke-width:0.8;"/>
      </defs>
      <g>
       <use style="stroke:#000000;stroke-width:0.8;" x="57.6" xlink:href="#mf34aad748a" y="265.159076"/>
      </g>
     </g>
     <g id="text_11">
      <!-- 0.5 -->
      <g transform="translate(34.696875 268.958295)scale(0.1 -0.1)">
       <defs>
        <path d="M 684 794 
L 1344 794 
L 1344 0 
L 684 0 
L 684 794 
z
" id="DejaVuSans-2e" transform="scale(0.015625)"/>
       </defs>
       <use xlink:href="#DejaVuSans-30"/>
       <use x="63.623047" xlink:href="#DejaVuSans-2e"/>
       <use x="95.410156" xlink:href="#DejaVuSans-35"/>
      </g>
     </g>
    </g>
    <g id="ytick_2">
     <g id="line2d_11">
      <g>
       <use style="stroke:#000000;stroke-width:0.8;" x="57.6" xlink:href="#mf34aad748a" y="206.544252"/>
      </g>
     </g>
     <g id="text_12">
      <!-- 1.0 -->
      <g transform="translate(34.696875 210.343471)scale(0.1 -0.1)">
       <use xlink:href="#DejaVuSans-31"/>
       <use x="63.623047" xlink:href="#DejaVuSans-2e"/>
       <use x="95.410156" xlink:href="#DejaVuSans-30"/>
      </g>
     </g>
    </g>
    <g id="ytick_3">
     <g id="line2d_12">
      <g>
       <use style="stroke:#000000;stroke-width:0.8;" x="57.6" xlink:href="#mf34aad748a" y="147.929428"/>
      </g>
     </g>
     <g id="text_13">
      <!-- 1.5 -->
      <g transform="translate(34.696875 151.728647)scale(0.1 -0.1)">
       <use xlink:href="#DejaVuSans-31"/>
       <use x="63.623047" xlink:href="#DejaVuSans-2e"/>
       <use x="95.410156" xlink:href="#DejaVuSans-35"/>
      </g>
     </g>
    </g>
    <g id="ytick_4">
     <g id="line2d_13">
      <g>
       <use style="stroke:#000000;stroke-width:0.8;" x="57.6" xlink:href="#mf34aad748a" y="89.314604"/>
      </g>
     </g>
     <g id="text_14">
      <!-- 2.0 -->
      <g transform="translate(34.696875 93.113823)scale(0.1 -0.1)">
       <use xlink:href="#DejaVuSans-32"/>
       <use x="63.623047" xlink:href="#DejaVuSans-2e"/>
       <use x="95.410156" xlink:href="#DejaVuSans-30"/>
      </g>
     </g>
    </g>
    <g id="text_15">
     <!-- Loss -->
     <g transform="translate(27.577344 190.978781)rotate(-90)scale(0.15 -0.15)">
      <defs>
       <path d="M 628 4666 
L 1259 4666 
L 1259 531 
L 3531 531 
L 3531 0 
L 628 0 
L 628 4666 
z
" id="DejaVuSans-4c" transform="scale(0.015625)"/>
       <path d="M 2834 3397 
L 2834 2853 
Q 2591 2978 2328 3040 
Q 2066 3103 1784 3103 
Q 1356 3103 1142 2972 
Q 928 2841 928 2578 
Q 928 2378 1081 2264 
Q 1234 2150 1697 2047 
L 1894 2003 
Q 2506 1872 2764 1633 
Q 3022 1394 3022 966 
Q 3022 478 2636 193 
Q 2250 -91 1575 -91 
Q 1294 -91 989 -36 
Q 684 19 347 128 
L 347 722 
Q 666 556 975 473 
Q 1284 391 1588 391 
Q 1994 391 2212 530 
Q 2431 669 2431 922 
Q 2431 1156 2273 1281 
Q 2116 1406 1581 1522 
L 1381 1569 
Q 847 1681 609 1914 
Q 372 2147 372 2553 
Q 372 3047 722 3315 
Q 1072 3584 1716 3584 
Q 2034 3584 2315 3537 
Q 2597 3491 2834 3397 
z
" id="DejaVuSans-73" transform="scale(0.015625)"/>
      </defs>
      <use xlink:href="#DejaVuSans-4c"/>
      <use x="53.962891" xlink:href="#DejaVuSans-6f"/>
      <use x="115.144531" xlink:href="#DejaVuSans-73"/>
      <use x="167.244141" xlink:href="#DejaVuSans-73"/>
     </g>
    </g>
   </g>
   <g id="line2d_14">
    <path clip-path="url(#pb640248826)" d="M 73.832727 53.568 
L 77.095587 54.068255 
L 78.727017 54.594948 
L 80.358447 56.519418 
L 81.989877 62.382969 
L 83.621307 77.889499 
L 85.252736 94.951888 
L 86.884166 106.322169 
L 88.515596 125.061119 
L 90.147026 145.281496 
L 91.778456 154.414446 
L 93.409886 164.462979 
L 95.041316 166.233426 
L 96.672746 167.213958 
L 98.304175 174.395618 
L 99.935605 176.431369 
L 101.567035 177.181066 
L 103.198465 180.059395 
L 104.829895 177.759978 
L 106.461325 177.906626 
L 108.092755 180.020427 
L 109.724185 179.158677 
L 111.355614 182.22471 
L 112.987044 186.658378 
L 114.618474 187.484446 
L 116.249904 188.056401 
L 117.881334 189.864867 
L 119.512764 189.95416 
L 121.144194 188.840944 
L 122.775624 191.015423 
L 124.407053 192.297114 
L 126.038483 190.109222 
L 127.669913 189.796541 
L 129.301343 189.661828 
L 130.932773 190.921781 
L 132.564203 193.741122 
L 134.195633 189.366125 
L 135.827063 194.852715 
L 137.458492 198.181257 
L 139.089922 197.400584 
L 140.721352 198.533993 
L 142.352782 198.631541 
L 143.984212 201.828005 
L 145.615642 197.527123 
L 147.247072 202.239927 
L 148.878502 199.878255 
L 150.509931 201.147383 
L 152.141361 202.684023 
L 153.772791 204.991149 
L 155.404221 208.738018 
L 157.035651 206.716176 
L 158.667081 207.595947 
L 160.298511 207.621469 
L 161.929941 208.046589 
L 163.56137 210.9516 
L 165.1928 206.850339 
L 166.82423 209.553509 
L 168.45566 211.894461 
L 170.08709 212.229351 
L 171.71852 211.028486 
L 173.34995 213.493501 
L 174.98138 213.084512 
L 176.61281 213.156485 
L 178.244239 214.610197 
L 179.875669 217.15508 
L 181.507099 216.460842 
L 183.138529 211.210274 
L 184.769959 218.844077 
L 186.401389 216.814673 
L 188.032819 217.27483 
L 189.664249 220.289996 
L 191.295678 223.0643 
L 192.927108 220.249702 
L 194.558538 222.808397 
L 196.189968 224.068166 
L 197.821398 224.354822 
L 199.452828 225.291421 
L 201.084258 226.037919 
L 202.715688 228.092769 
L 204.347117 228.404266 
L 205.978547 229.904569 
L 207.609977 228.169538 
L 209.241407 227.36193 
L 210.872837 228.160649 
L 212.504267 227.770868 
L 214.135697 233.424146 
L 215.767127 235.234566 
L 217.398556 232.496232 
L 219.029986 236.146898 
L 220.661416 238.222583 
L 222.292846 239.462134 
L 223.924276 240.414766 
L 225.555706 240.488606 
L 227.187136 237.210573 
L 228.818566 243.749459 
L 230.449995 244.605971 
L 232.081425 243.822391 
L 233.712855 243.869594 
L 235.344285 247.245252 
L 236.975715 248.274854 
L 238.607145 248.088286 
L 240.238575 248.610078 
L 241.870005 245.319163 
L 243.501434 249.627213 
L 245.132864 250.35912 
L 246.764294 249.588916 
L 248.395724 250.340259 
L 250.027154 256.453592 
L 251.658584 253.769509 
L 253.290014 254.103402 
L 254.921444 258.670786 
L 256.552873 256.433277 
L 258.184303 256.468844 
L 259.815733 258.358013 
L 261.447163 258.295834 
L 263.078593 261.158656 
L 264.710023 258.206999 
L 266.341453 259.428308 
L 267.972883 257.382535 
L 271.235742 265.593109 
L 272.867172 260.767013 
L 274.498602 261.191299 
L 276.130032 267.288914 
L 277.761462 264.053855 
L 279.392892 266.628966 
L 281.024322 265.686476 
L 282.655751 265.994322 
L 284.287181 266.065144 
L 285.918611 269.439951 
L 287.550041 268.404561 
L 289.181471 269.022732 
L 290.812901 270.393023 
L 292.444331 269.428257 
L 294.075761 269.03773 
L 295.70719 270.27068 
L 297.33862 273.31101 
L 298.97005 273.22042 
L 300.60148 269.412283 
L 302.23291 273.217063 
L 303.86434 274.227626 
L 305.49577 276.063996 
L 307.1272 276.886809 
L 308.75863 275.309423 
L 310.390059 276.880676 
L 312.021489 276.993493 
L 313.652919 276.765414 
L 315.284349 277.806464 
L 316.915779 276.384495 
L 318.547209 278.847498 
L 320.178639 280.179007 
L 321.810069 277.997839 
L 323.441498 278.219138 
L 325.072928 279.1975 
L 326.704358 280.73601 
L 328.335788 280.195715 
L 329.967218 280.725701 
L 331.598648 282.544852 
L 333.230078 283.87014 
L 336.492937 277.529825 
L 338.124367 282.516269 
L 339.755797 285.42516 
L 341.387227 285.669039 
L 343.018657 286.219536 
L 344.650087 286.087817 
L 346.281517 284.6749 
L 347.912947 286.246115 
L 349.544376 289.024142 
L 351.175806 288.756257 
L 352.807236 287.674711 
L 354.438666 288.428244 
L 356.070096 286.300157 
L 357.701526 288.516368 
L 359.332956 286.751066 
L 362.595815 283.676868 
L 364.227245 287.550587 
L 365.858675 287.785685 
L 367.490105 290.714305 
L 369.121535 291.627874 
L 370.752965 292.409242 
L 372.384395 290.271774 
L 374.015825 290.040089 
L 375.647254 293.727879 
L 377.278684 293.245198 
L 378.910114 292.117735 
L 380.541544 293.37863 
L 382.172974 293.31343 
L 383.804404 295.488 
L 385.435834 292.74825 
L 387.067264 291.212479 
L 388.698693 291.216505 
L 390.330123 294.400828 
L 391.961553 294.325475 
L 393.592983 295.016794 
L 395.224413 292.790267 
L 396.855843 291.754696 
L 398.487273 292.609961 
L 398.487273 292.609961 
" style="fill:none;stroke:#1f77b4;stroke-linecap:square;stroke-width:1.5;"/>
   </g>
   <g id="line2d_15">
    <path clip-path="url(#pb640248826)" d="M 73.832727 53.812555 
L 75.464157 54.002696 
L 77.095587 54.413753 
L 78.727017 55.692705 
L 80.358447 59.559801 
L 81.989877 71.952262 
L 83.621307 94.421229 
L 85.252736 108.152063 
L 86.884166 125.681586 
L 88.515596 144.901019 
L 90.147026 154.845406 
L 91.778456 166.124183 
L 93.409886 173.419788 
L 95.041316 175.049439 
L 96.672746 174.09216 
L 98.304175 176.854418 
L 99.935605 176.150057 
L 101.567035 176.13031 
L 103.198465 181.8133 
L 104.829895 179.223297 
L 106.461325 175.185679 
L 108.092755 181.408868 
L 109.724185 178.829891 
L 112.987044 183.026416 
L 114.618474 182.589115 
L 116.249904 180.395592 
L 117.881334 181.209446 
L 119.512764 181.360403 
L 121.144194 184.236975 
L 122.775624 182.796124 
L 124.407053 181.588095 
L 126.038483 182.893054 
L 127.669913 173.589652 
L 129.301343 179.33845 
L 130.932773 184.54403 
L 132.564203 178.112128 
L 134.195633 183.128167 
L 135.827063 183.931861 
L 137.458492 186.636836 
L 139.089922 186.980604 
L 140.721352 185.126712 
L 142.352782 186.349736 
L 143.984212 183.770326 
L 145.615642 184.257518 
L 147.247072 184.046875 
L 148.878502 184.10037 
L 150.509931 184.589588 
L 152.141361 184.664703 
L 153.772791 187.234024 
L 155.404221 183.956862 
L 157.035651 186.827104 
L 158.667081 184.066397 
L 160.298511 187.321353 
L 163.56137 182.310666 
L 165.1928 184.372601 
L 166.82423 185.48254 
L 168.45566 184.614352 
L 170.08709 185.733794 
L 171.71852 183.796361 
L 173.34995 184.375955 
L 174.98138 188.633467 
L 176.61281 184.815478 
L 178.244239 190.113223 
L 179.875669 185.079827 
L 181.507099 182.928466 
L 183.138529 183.731462 
L 184.769959 189.399065 
L 186.401389 184.68962 
L 188.032819 188.038627 
L 189.664249 187.120995 
L 191.295678 187.470534 
L 192.927108 187.583661 
L 194.558538 190.938816 
L 196.189968 190.583491 
L 197.821398 190.556268 
L 199.452828 193.476497 
L 201.084258 190.781934 
L 202.715688 192.39617 
L 204.347117 193.824583 
L 205.978547 193.782407 
L 207.609977 192.940505 
L 209.241407 197.546774 
L 210.872837 198.632048 
L 212.504267 199.192901 
L 214.135697 197.996471 
L 215.767127 205.61783 
L 217.398556 203.268306 
L 219.029986 205.659573 
L 220.661416 205.67707 
L 222.292846 204.959405 
L 223.924276 204.803138 
L 225.555706 210.237508 
L 227.187136 213.960761 
L 228.818566 210.213338 
L 230.449995 215.302907 
L 232.081425 215.592703 
L 233.712855 210.441296 
L 235.344285 213.907502 
L 236.975715 218.385419 
L 238.607145 217.357568 
L 240.238575 212.415644 
L 241.870005 219.169898 
L 243.501434 223.723914 
L 245.132864 217.261477 
L 246.764294 212.063421 
L 248.395724 220.76292 
L 250.027154 223.265721 
L 251.658584 220.526137 
L 253.290014 221.674012 
L 254.921444 221.089611 
L 256.552873 220.142171 
L 258.184303 218.406158 
L 259.815733 218.149838 
L 261.447163 224.797694 
L 263.078593 221.048706 
L 264.710023 213.206174 
L 266.341453 219.898652 
L 267.972883 221.625631 
L 269.604312 224.454723 
L 271.235742 224.50244 
L 272.867172 218.534873 
L 274.498602 223.392878 
L 276.130032 222.874571 
L 277.761462 221.501709 
L 279.392892 225.527217 
L 281.024322 222.369722 
L 282.655751 223.902611 
L 284.287181 223.244709 
L 285.918611 221.117847 
L 287.550041 213.385653 
L 289.181471 223.30012 
L 290.812901 217.826802 
L 292.444331 219.492584 
L 294.075761 223.916698 
L 295.70719 224.906167 
L 297.33862 222.72576 
L 298.97005 225.532325 
L 300.60148 224.034597 
L 302.23291 220.953454 
L 303.86434 223.633525 
L 305.49577 219.054172 
L 307.1272 217.413782 
L 308.75863 219.877264 
L 310.390059 223.170112 
L 312.021489 222.638333 
L 313.652919 221.406791 
L 315.284349 208.834292 
L 316.915779 219.096062 
L 318.547209 223.777263 
L 320.178639 225.520949 
L 321.810069 224.558612 
L 323.441498 223.114904 
L 325.072928 223.651546 
L 326.704358 224.535959 
L 328.335788 223.19702 
L 329.967218 218.968911 
L 331.598648 223.182493 
L 333.230078 219.353968 
L 334.861508 222.793524 
L 336.492937 221.880043 
L 338.124367 216.341337 
L 339.755797 221.872343 
L 341.387227 221.375425 
L 343.018657 220.525187 
L 344.650087 218.816467 
L 346.281517 218.871737 
L 347.912947 218.597746 
L 349.544376 217.739151 
L 351.175806 217.677033 
L 352.807236 219.220298 
L 354.438666 213.910731 
L 356.070096 219.808046 
L 357.701526 215.062462 
L 359.332956 215.673164 
L 360.964386 214.072462 
L 362.595815 220.994197 
L 364.227245 217.386405 
L 365.858675 218.510564 
L 367.490105 218.409721 
L 369.121535 215.555293 
L 370.752965 216.994012 
L 372.384395 215.093465 
L 374.015825 216.292082 
L 375.647254 214.246309 
L 377.278684 214.736421 
L 378.910114 213.891879 
L 380.541544 216.196851 
L 382.172974 208.915402 
L 383.804404 211.351507 
L 385.435834 210.513959 
L 387.067264 208.720075 
L 388.698693 211.967246 
L 390.330123 212.284099 
L 391.961553 209.831818 
L 393.592983 213.499311 
L 395.224413 213.184974 
L 396.855843 207.68973 
L 398.487273 209.990796 
L 398.487273 209.990796 
" style="fill:none;stroke:#ff7f0e;stroke-linecap:square;stroke-width:1.5;"/>
   </g>
   <g id="patch_3">
    <path d="M 57.6 307.584 
L 57.6 41.472 
" style="fill:none;stroke:#000000;stroke-linecap:square;stroke-linejoin:miter;stroke-width:0.8;"/>
   </g>
   <g id="patch_4">
    <path d="M 414.72 307.584 
L 414.72 41.472 
" style="fill:none;stroke:#000000;stroke-linecap:square;stroke-linejoin:miter;stroke-width:0.8;"/>
   </g>
   <g id="patch_5">
    <path d="M 57.6 307.584 
L 414.72 307.584 
" style="fill:none;stroke:#000000;stroke-linecap:square;stroke-linejoin:miter;stroke-width:0.8;"/>
   </g>
   <g id="patch_6">
    <path d="M 57.6 41.472 
L 414.72 41.472 
" style="fill:none;stroke:#000000;stroke-linecap:square;stroke-linejoin:miter;stroke-width:0.8;"/>
   </g>
   <g id="legend_1">
    <g id="patch_7">
     <path d="M 303.845 78.82825 
L 407.72 78.82825 
Q 409.72 78.82825 409.72 76.82825 
L 409.72 48.472 
Q 409.72 46.472 407.72 46.472 
L 303.845 46.472 
Q 301.845 46.472 301.845 48.472 
L 301.845 76.82825 
Q 301.845 78.82825 303.845 78.82825 
z
" style="fill:#ffffff;opacity:0.8;stroke:#cccccc;stroke-linejoin:miter;"/>
    </g>
    <g id="line2d_16">
     <path d="M 305.845 54.570437 
L 325.845 54.570437 
" style="fill:none;stroke:#1f77b4;stroke-linecap:square;stroke-width:1.5;"/>
    </g>
    <g id="line2d_17"/>
    <g id="text_16">
     <!-- Train loss -->
     <g transform="translate(333.845 58.070437)scale(0.1 -0.1)">
      <defs>
       <path d="M -19 4666 
L 3928 4666 
L 3928 4134 
L 2272 4134 
L 2272 0 
L 1638 0 
L 1638 4134 
L -19 4134 
L -19 4666 
z
" id="DejaVuSans-54" transform="scale(0.015625)"/>
       <path d="M 2631 2963 
Q 2534 3019 2420 3045 
Q 2306 3072 2169 3072 
Q 1681 3072 1420 2755 
Q 1159 2438 1159 1844 
L 1159 0 
L 581 0 
L 581 3500 
L 1159 3500 
L 1159 2956 
Q 1341 3275 1631 3429 
Q 1922 3584 2338 3584 
Q 2397 3584 2469 3576 
Q 2541 3569 2628 3553 
L 2631 2963 
z
" id="DejaVuSans-72" transform="scale(0.015625)"/>
       <path d="M 2194 1759 
Q 1497 1759 1228 1600 
Q 959 1441 959 1056 
Q 959 750 1161 570 
Q 1363 391 1709 391 
Q 2188 391 2477 730 
Q 2766 1069 2766 1631 
L 2766 1759 
L 2194 1759 
z
M 3341 1997 
L 3341 0 
L 2766 0 
L 2766 531 
Q 2569 213 2275 61 
Q 1981 -91 1556 -91 
Q 1019 -91 701 211 
Q 384 513 384 1019 
Q 384 1609 779 1909 
Q 1175 2209 1959 2209 
L 2766 2209 
L 2766 2266 
Q 2766 2663 2505 2880 
Q 2244 3097 1772 3097 
Q 1472 3097 1187 3025 
Q 903 2953 641 2809 
L 641 3341 
Q 956 3463 1253 3523 
Q 1550 3584 1831 3584 
Q 2591 3584 2966 3190 
Q 3341 2797 3341 1997 
z
" id="DejaVuSans-61" transform="scale(0.015625)"/>
       <path d="M 603 3500 
L 1178 3500 
L 1178 0 
L 603 0 
L 603 3500 
z
M 603 4863 
L 1178 4863 
L 1178 4134 
L 603 4134 
L 603 4863 
z
" id="DejaVuSans-69" transform="scale(0.015625)"/>
       <path d="M 3513 2113 
L 3513 0 
L 2938 0 
L 2938 2094 
Q 2938 2591 2744 2837 
Q 2550 3084 2163 3084 
Q 1697 3084 1428 2787 
Q 1159 2491 1159 1978 
L 1159 0 
L 581 0 
L 581 3500 
L 1159 3500 
L 1159 2956 
Q 1366 3272 1645 3428 
Q 1925 3584 2291 3584 
Q 2894 3584 3203 3211 
Q 3513 2838 3513 2113 
z
" id="DejaVuSans-6e" transform="scale(0.015625)"/>
       <path id="DejaVuSans-20" transform="scale(0.015625)"/>
       <path d="M 603 4863 
L 1178 4863 
L 1178 0 
L 603 0 
L 603 4863 
z
" id="DejaVuSans-6c" transform="scale(0.015625)"/>
      </defs>
      <use xlink:href="#DejaVuSans-54"/>
      <use x="46.333984" xlink:href="#DejaVuSans-72"/>
      <use x="87.447266" xlink:href="#DejaVuSans-61"/>
      <use x="148.726562" xlink:href="#DejaVuSans-69"/>
      <use x="176.509766" xlink:href="#DejaVuSans-6e"/>
      <use x="239.888672" xlink:href="#DejaVuSans-20"/>
      <use x="271.675781" xlink:href="#DejaVuSans-6c"/>
      <use x="299.458984" xlink:href="#DejaVuSans-6f"/>
      <use x="360.640625" xlink:href="#DejaVuSans-73"/>
      <use x="412.740234" xlink:href="#DejaVuSans-73"/>
     </g>
    </g>
    <g id="line2d_18">
     <path d="M 305.845 69.248562 
L 325.845 69.248562 
" style="fill:none;stroke:#ff7f0e;stroke-linecap:square;stroke-width:1.5;"/>
    </g>
    <g id="line2d_19"/>
    <g id="text_17">
     <!-- Validation loss -->
     <g transform="translate(333.845 72.748562)scale(0.1 -0.1)">
      <defs>
       <path d="M 1831 0 
L 50 4666 
L 709 4666 
L 2188 738 
L 3669 4666 
L 4325 4666 
L 2547 0 
L 1831 0 
z
" id="DejaVuSans-56" transform="scale(0.015625)"/>
       <path d="M 2906 2969 
L 2906 4863 
L 3481 4863 
L 3481 0 
L 2906 0 
L 2906 525 
Q 2725 213 2448 61 
Q 2172 -91 1784 -91 
Q 1150 -91 751 415 
Q 353 922 353 1747 
Q 353 2572 751 3078 
Q 1150 3584 1784 3584 
Q 2172 3584 2448 3432 
Q 2725 3281 2906 2969 
z
M 947 1747 
Q 947 1113 1208 752 
Q 1469 391 1925 391 
Q 2381 391 2643 752 
Q 2906 1113 2906 1747 
Q 2906 2381 2643 2742 
Q 2381 3103 1925 3103 
Q 1469 3103 1208 2742 
Q 947 2381 947 1747 
z
" id="DejaVuSans-64" transform="scale(0.015625)"/>
       <path d="M 1172 4494 
L 1172 3500 
L 2356 3500 
L 2356 3053 
L 1172 3053 
L 1172 1153 
Q 1172 725 1289 603 
Q 1406 481 1766 481 
L 2356 481 
L 2356 0 
L 1766 0 
Q 1100 0 847 248 
Q 594 497 594 1153 
L 594 3053 
L 172 3053 
L 172 3500 
L 594 3500 
L 594 4494 
L 1172 4494 
z
" id="DejaVuSans-74" transform="scale(0.015625)"/>
      </defs>
      <use xlink:href="#DejaVuSans-56"/>
      <use x="60.658203" xlink:href="#DejaVuSans-61"/>
      <use x="121.9375" xlink:href="#DejaVuSans-6c"/>
      <use x="149.720703" xlink:href="#DejaVuSans-69"/>
      <use x="177.503906" xlink:href="#DejaVuSans-64"/>
      <use x="240.980469" xlink:href="#DejaVuSans-61"/>
      <use x="302.259766" xlink:href="#DejaVuSans-74"/>
      <use x="341.46875" xlink:href="#DejaVuSans-69"/>
      <use x="369.251953" xlink:href="#DejaVuSans-6f"/>
      <use x="430.433594" xlink:href="#DejaVuSans-6e"/>
      <use x="493.8125" xlink:href="#DejaVuSans-20"/>
      <use x="525.599609" xlink:href="#DejaVuSans-6c"/>
      <use x="553.382812" xlink:href="#DejaVuSans-6f"/>
      <use x="614.564453" xlink:href="#DejaVuSans-73"/>
      <use x="666.664062" xlink:href="#DejaVuSans-73"/>
     </g>
    </g>
   </g>
  </g>
 </g>
 <defs>
  <clipPath id="pb640248826">
   <rect height="266.112" width="357.12" x="57.6" y="41.472"/>
  </clipPath>
 </defs>
</svg>
