<?xml version="1.0" encoding="utf-8" standalone="no"?>
<!DOCTYPE svg PUBLIC "-//W3C//DTD SVG 1.1//EN"
  "http://www.w3.org/Graphics/SVG/1.1/DTD/svg11.dtd">
<svg height="345.6pt" version="1.1" viewBox="0 0 460.8 345.6" width="460.8pt" xmlns="http://www.w3.org/2000/svg" xmlns:xlink="http://www.w3.org/1999/xlink">
 <metadata>
  <rdf:RDF xmlns:cc="http://creativecommons.org/ns#" xmlns:dc="http://purl.org/dc/elements/1.1/" xmlns:rdf="http://www.w3.org/1999/02/22-rdf-syntax-ns#">
   <cc:Work>
    <dc:type rdf:resource="http://purl.org/dc/dcmitype/StillImage"/>
    <dc:date>2021-08-09T23:25:34.717802</dc:date>
    <dc:format>image/svg+xml</dc:format>
    <dc:creator>
     <cc:Agent>
      <dc:title>Matplotlib v3.4.2, https://matplotlib.org/</dc:title>
     </cc:Agent>
    </dc:creator>
   </cc:Work>
  </rdf:RDF>
 </metadata>
 <defs>
  <style type="text/css">*{stroke-linecap:butt;stroke-linejoin:round;}</style>
 </defs>
 <g id="figure_1">
  <g id="patch_1">
   <path d="M 0 345.6 
L 460.8 345.6 
L 460.8 0 
L 0 0 
z
" style="fill:#ffffff;"/>
  </g>
  <g id="axes_1">
   <g id="patch_2">
    <path d="M 57.6 307.584 
L 414.72 307.584 
L 414.72 41.472 
L 57.6 41.472 
z
" style="fill:#ffffff;"/>
   </g>
   <g id="matplotlib.axis_1">
    <g id="xtick_1">
     <g id="line2d_1">
      <defs>
       <path d="M 0 0 
L 0 3.5 
" id="ma3969453bf" style="stroke:#000000;stroke-width:0.8;"/>
      </defs>
      <g>
       <use style="stroke:#000000;stroke-width:0.8;" x="73.507748" xlink:href="#ma3969453bf" y="307.584"/>
      </g>
     </g>
     <g id="text_1">
      <!-- 0 -->
      <g transform="translate(70.326498 322.182437)scale(0.1 -0.1)">
       <defs>
        <path d="M 2034 4250 
Q 1547 4250 1301 3770 
Q 1056 3291 1056 2328 
Q 1056 1369 1301 889 
Q 1547 409 2034 409 
Q 2525 409 2770 889 
Q 3016 1369 3016 2328 
Q 3016 3291 2770 3770 
Q 2525 4250 2034 4250 
z
M 2034 4750 
Q 2819 4750 3233 4129 
Q 3647 3509 3647 2328 
Q 3647 1150 3233 529 
Q 2819 -91 2034 -91 
Q 1250 -91 836 529 
Q 422 1150 422 2328 
Q 422 3509 836 4129 
Q 1250 4750 2034 4750 
z
" id="DejaVuSans-30" transform="scale(0.015625)"/>
       </defs>
       <use xlink:href="#DejaVuSans-30"/>
      </g>
     </g>
    </g>
    <g id="xtick_2">
     <g id="line2d_2">
      <g>
       <use style="stroke:#000000;stroke-width:0.8;" x="138.503653" xlink:href="#ma3969453bf" y="307.584"/>
      </g>
     </g>
     <g id="text_2">
      <!-- 200 -->
      <g transform="translate(128.959903 322.182437)scale(0.1 -0.1)">
       <defs>
        <path d="M 1228 531 
L 3431 531 
L 3431 0 
L 469 0 
L 469 531 
Q 828 903 1448 1529 
Q 2069 2156 2228 2338 
Q 2531 2678 2651 2914 
Q 2772 3150 2772 3378 
Q 2772 3750 2511 3984 
Q 2250 4219 1831 4219 
Q 1534 4219 1204 4116 
Q 875 4013 500 3803 
L 500 4441 
Q 881 4594 1212 4672 
Q 1544 4750 1819 4750 
Q 2544 4750 2975 4387 
Q 3406 4025 3406 3419 
Q 3406 3131 3298 2873 
Q 3191 2616 2906 2266 
Q 2828 2175 2409 1742 
Q 1991 1309 1228 531 
z
" id="DejaVuSans-32" transform="scale(0.015625)"/>
       </defs>
       <use xlink:href="#DejaVuSans-32"/>
       <use x="63.623047" xlink:href="#DejaVuSans-30"/>
       <use x="127.246094" xlink:href="#DejaVuSans-30"/>
      </g>
     </g>
    </g>
    <g id="xtick_3">
     <g id="line2d_3">
      <g>
       <use style="stroke:#000000;stroke-width:0.8;" x="203.499558" xlink:href="#ma3969453bf" y="307.584"/>
      </g>
     </g>
     <g id="text_3">
      <!-- 400 -->
      <g transform="translate(193.955808 322.182437)scale(0.1 -0.1)">
       <defs>
        <path d="M 2419 4116 
L 825 1625 
L 2419 1625 
L 2419 4116 
z
M 2253 4666 
L 3047 4666 
L 3047 1625 
L 3713 1625 
L 3713 1100 
L 3047 1100 
L 3047 0 
L 2419 0 
L 2419 1100 
L 313 1100 
L 313 1709 
L 2253 4666 
z
" id="DejaVuSans-34" transform="scale(0.015625)"/>
       </defs>
       <use xlink:href="#DejaVuSans-34"/>
       <use x="63.623047" xlink:href="#DejaVuSans-30"/>
       <use x="127.246094" xlink:href="#DejaVuSans-30"/>
      </g>
     </g>
    </g>
    <g id="xtick_4">
     <g id="line2d_4">
      <g>
       <use style="stroke:#000000;stroke-width:0.8;" x="268.495463" xlink:href="#ma3969453bf" y="307.584"/>
      </g>
     </g>
     <g id="text_4">
      <!-- 600 -->
      <g transform="translate(258.951713 322.182437)scale(0.1 -0.1)">
       <defs>
        <path d="M 2113 2584 
Q 1688 2584 1439 2293 
Q 1191 2003 1191 1497 
Q 1191 994 1439 701 
Q 1688 409 2113 409 
Q 2538 409 2786 701 
Q 3034 994 3034 1497 
Q 3034 2003 2786 2293 
Q 2538 2584 2113 2584 
z
M 3366 4563 
L 3366 3988 
Q 3128 4100 2886 4159 
Q 2644 4219 2406 4219 
Q 1781 4219 1451 3797 
Q 1122 3375 1075 2522 
Q 1259 2794 1537 2939 
Q 1816 3084 2150 3084 
Q 2853 3084 3261 2657 
Q 3669 2231 3669 1497 
Q 3669 778 3244 343 
Q 2819 -91 2113 -91 
Q 1303 -91 875 529 
Q 447 1150 447 2328 
Q 447 3434 972 4092 
Q 1497 4750 2381 4750 
Q 2619 4750 2861 4703 
Q 3103 4656 3366 4563 
z
" id="DejaVuSans-36" transform="scale(0.015625)"/>
       </defs>
       <use xlink:href="#DejaVuSans-36"/>
       <use x="63.623047" xlink:href="#DejaVuSans-30"/>
       <use x="127.246094" xlink:href="#DejaVuSans-30"/>
      </g>
     </g>
    </g>
    <g id="xtick_5">
     <g id="line2d_5">
      <g>
       <use style="stroke:#000000;stroke-width:0.8;" x="333.491368" xlink:href="#ma3969453bf" y="307.584"/>
      </g>
     </g>
     <g id="text_5">
      <!-- 800 -->
      <g transform="translate(323.947618 322.182437)scale(0.1 -0.1)">
       <defs>
        <path d="M 2034 2216 
Q 1584 2216 1326 1975 
Q 1069 1734 1069 1313 
Q 1069 891 1326 650 
Q 1584 409 2034 409 
Q 2484 409 2743 651 
Q 3003 894 3003 1313 
Q 3003 1734 2745 1975 
Q 2488 2216 2034 2216 
z
M 1403 2484 
Q 997 2584 770 2862 
Q 544 3141 544 3541 
Q 544 4100 942 4425 
Q 1341 4750 2034 4750 
Q 2731 4750 3128 4425 
Q 3525 4100 3525 3541 
Q 3525 3141 3298 2862 
Q 3072 2584 2669 2484 
Q 3125 2378 3379 2068 
Q 3634 1759 3634 1313 
Q 3634 634 3220 271 
Q 2806 -91 2034 -91 
Q 1263 -91 848 271 
Q 434 634 434 1313 
Q 434 1759 690 2068 
Q 947 2378 1403 2484 
z
M 1172 3481 
Q 1172 3119 1398 2916 
Q 1625 2713 2034 2713 
Q 2441 2713 2670 2916 
Q 2900 3119 2900 3481 
Q 2900 3844 2670 4047 
Q 2441 4250 2034 4250 
Q 1625 4250 1398 4047 
Q 1172 3844 1172 3481 
z
" id="DejaVuSans-38" transform="scale(0.015625)"/>
       </defs>
       <use xlink:href="#DejaVuSans-38"/>
       <use x="63.623047" xlink:href="#DejaVuSans-30"/>
       <use x="127.246094" xlink:href="#DejaVuSans-30"/>
      </g>
     </g>
    </g>
    <g id="xtick_6">
     <g id="line2d_6">
      <g>
       <use style="stroke:#000000;stroke-width:0.8;" x="398.487273" xlink:href="#ma3969453bf" y="307.584"/>
      </g>
     </g>
     <g id="text_6">
      <!-- 1000 -->
      <g transform="translate(385.762273 322.182437)scale(0.1 -0.1)">
       <defs>
        <path d="M 794 531 
L 1825 531 
L 1825 4091 
L 703 3866 
L 703 4441 
L 1819 4666 
L 2450 4666 
L 2450 531 
L 3481 531 
L 3481 0 
L 794 0 
L 794 531 
z
" id="DejaVuSans-31" transform="scale(0.015625)"/>
       </defs>
       <use xlink:href="#DejaVuSans-31"/>
       <use x="63.623047" xlink:href="#DejaVuSans-30"/>
       <use x="127.246094" xlink:href="#DejaVuSans-30"/>
       <use x="190.869141" xlink:href="#DejaVuSans-30"/>
      </g>
     </g>
    </g>
    <g id="text_7">
     <!-- Epoch -->
     <g transform="translate(213.193594 339.659781)scale(0.15 -0.15)">
      <defs>
       <path d="M 628 4666 
L 3578 4666 
L 3578 4134 
L 1259 4134 
L 1259 2753 
L 3481 2753 
L 3481 2222 
L 1259 2222 
L 1259 531 
L 3634 531 
L 3634 0 
L 628 0 
L 628 4666 
z
" id="DejaVuSans-45" transform="scale(0.015625)"/>
       <path d="M 1159 525 
L 1159 -1331 
L 581 -1331 
L 581 3500 
L 1159 3500 
L 1159 2969 
Q 1341 3281 1617 3432 
Q 1894 3584 2278 3584 
Q 2916 3584 3314 3078 
Q 3713 2572 3713 1747 
Q 3713 922 3314 415 
Q 2916 -91 2278 -91 
Q 1894 -91 1617 61 
Q 1341 213 1159 525 
z
M 3116 1747 
Q 3116 2381 2855 2742 
Q 2594 3103 2138 3103 
Q 1681 3103 1420 2742 
Q 1159 2381 1159 1747 
Q 1159 1113 1420 752 
Q 1681 391 2138 391 
Q 2594 391 2855 752 
Q 3116 1113 3116 1747 
z
" id="DejaVuSans-70" transform="scale(0.015625)"/>
       <path d="M 1959 3097 
Q 1497 3097 1228 2736 
Q 959 2375 959 1747 
Q 959 1119 1226 758 
Q 1494 397 1959 397 
Q 2419 397 2687 759 
Q 2956 1122 2956 1747 
Q 2956 2369 2687 2733 
Q 2419 3097 1959 3097 
z
M 1959 3584 
Q 2709 3584 3137 3096 
Q 3566 2609 3566 1747 
Q 3566 888 3137 398 
Q 2709 -91 1959 -91 
Q 1206 -91 779 398 
Q 353 888 353 1747 
Q 353 2609 779 3096 
Q 1206 3584 1959 3584 
z
" id="DejaVuSans-6f" transform="scale(0.015625)"/>
       <path d="M 3122 3366 
L 3122 2828 
Q 2878 2963 2633 3030 
Q 2388 3097 2138 3097 
Q 1578 3097 1268 2742 
Q 959 2388 959 1747 
Q 959 1106 1268 751 
Q 1578 397 2138 397 
Q 2388 397 2633 464 
Q 2878 531 3122 666 
L 3122 134 
Q 2881 22 2623 -34 
Q 2366 -91 2075 -91 
Q 1284 -91 818 406 
Q 353 903 353 1747 
Q 353 2603 823 3093 
Q 1294 3584 2113 3584 
Q 2378 3584 2631 3529 
Q 2884 3475 3122 3366 
z
" id="DejaVuSans-63" transform="scale(0.015625)"/>
       <path d="M 3513 2113 
L 3513 0 
L 2938 0 
L 2938 2094 
Q 2938 2591 2744 2837 
Q 2550 3084 2163 3084 
Q 1697 3084 1428 2787 
Q 1159 2491 1159 1978 
L 1159 0 
L 581 0 
L 581 4863 
L 1159 4863 
L 1159 2956 
Q 1366 3272 1645 3428 
Q 1925 3584 2291 3584 
Q 2894 3584 3203 3211 
Q 3513 2838 3513 2113 
z
" id="DejaVuSans-68" transform="scale(0.015625)"/>
      </defs>
      <use xlink:href="#DejaVuSans-45"/>
      <use x="63.183594" xlink:href="#DejaVuSans-70"/>
      <use x="126.660156" xlink:href="#DejaVuSans-6f"/>
      <use x="187.841797" xlink:href="#DejaVuSans-63"/>
      <use x="242.822266" xlink:href="#DejaVuSans-68"/>
     </g>
    </g>
   </g>
   <g id="matplotlib.axis_2">
    <g id="ytick_1">
     <g id="line2d_7">
      <defs>
       <path d="M 0 0 
L -3.5 0 
" id="m4d61cca85a" style="stroke:#000000;stroke-width:0.8;"/>
      </defs>
      <g>
       <use style="stroke:#000000;stroke-width:0.8;" x="57.6" xlink:href="#m4d61cca85a" y="306.509722"/>
      </g>
     </g>
     <g id="text_8">
      <!-- −3500 -->
      <g transform="translate(16.770313 310.30894)scale(0.1 -0.1)">
       <defs>
        <path d="M 678 2272 
L 4684 2272 
L 4684 1741 
L 678 1741 
L 678 2272 
z
" id="DejaVuSans-2212" transform="scale(0.015625)"/>
        <path d="M 2597 2516 
Q 3050 2419 3304 2112 
Q 3559 1806 3559 1356 
Q 3559 666 3084 287 
Q 2609 -91 1734 -91 
Q 1441 -91 1130 -33 
Q 819 25 488 141 
L 488 750 
Q 750 597 1062 519 
Q 1375 441 1716 441 
Q 2309 441 2620 675 
Q 2931 909 2931 1356 
Q 2931 1769 2642 2001 
Q 2353 2234 1838 2234 
L 1294 2234 
L 1294 2753 
L 1863 2753 
Q 2328 2753 2575 2939 
Q 2822 3125 2822 3475 
Q 2822 3834 2567 4026 
Q 2313 4219 1838 4219 
Q 1578 4219 1281 4162 
Q 984 4106 628 3988 
L 628 4550 
Q 988 4650 1302 4700 
Q 1616 4750 1894 4750 
Q 2613 4750 3031 4423 
Q 3450 4097 3450 3541 
Q 3450 3153 3228 2886 
Q 3006 2619 2597 2516 
z
" id="DejaVuSans-33" transform="scale(0.015625)"/>
        <path d="M 691 4666 
L 3169 4666 
L 3169 4134 
L 1269 4134 
L 1269 2991 
Q 1406 3038 1543 3061 
Q 1681 3084 1819 3084 
Q 2600 3084 3056 2656 
Q 3513 2228 3513 1497 
Q 3513 744 3044 326 
Q 2575 -91 1722 -91 
Q 1428 -91 1123 -41 
Q 819 9 494 109 
L 494 744 
Q 775 591 1075 516 
Q 1375 441 1709 441 
Q 2250 441 2565 725 
Q 2881 1009 2881 1497 
Q 2881 1984 2565 2268 
Q 2250 2553 1709 2553 
Q 1456 2553 1204 2497 
Q 953 2441 691 2322 
L 691 4666 
z
" id="DejaVuSans-35" transform="scale(0.015625)"/>
       </defs>
       <use xlink:href="#DejaVuSans-2212"/>
       <use x="83.789062" xlink:href="#DejaVuSans-33"/>
       <use x="147.412109" xlink:href="#DejaVuSans-35"/>
       <use x="211.035156" xlink:href="#DejaVuSans-30"/>
       <use x="274.658203" xlink:href="#DejaVuSans-30"/>
      </g>
     </g>
    </g>
    <g id="ytick_2">
     <g id="line2d_8">
      <g>
       <use style="stroke:#000000;stroke-width:0.8;" x="57.6" xlink:href="#m4d61cca85a" y="274.459962"/>
      </g>
     </g>
     <g id="text_9">
      <!-- −3000 -->
      <g transform="translate(16.770313 278.259181)scale(0.1 -0.1)">
       <use xlink:href="#DejaVuSans-2212"/>
       <use x="83.789062" xlink:href="#DejaVuSans-33"/>
       <use x="147.412109" xlink:href="#DejaVuSans-30"/>
       <use x="211.035156" xlink:href="#DejaVuSans-30"/>
       <use x="274.658203" xlink:href="#DejaVuSans-30"/>
      </g>
     </g>
    </g>
    <g id="ytick_3">
     <g id="line2d_9">
      <g>
       <use style="stroke:#000000;stroke-width:0.8;" x="57.6" xlink:href="#m4d61cca85a" y="242.410202"/>
      </g>
     </g>
     <g id="text_10">
      <!-- −2500 -->
      <g transform="translate(16.770313 246.209421)scale(0.1 -0.1)">
       <use xlink:href="#DejaVuSans-2212"/>
       <use x="83.789062" xlink:href="#DejaVuSans-32"/>
       <use x="147.412109" xlink:href="#DejaVuSans-35"/>
       <use x="211.035156" xlink:href="#DejaVuSans-30"/>
       <use x="274.658203" xlink:href="#DejaVuSans-30"/>
      </g>
     </g>
    </g>
    <g id="ytick_4">
     <g id="line2d_10">
      <g>
       <use style="stroke:#000000;stroke-width:0.8;" x="57.6" xlink:href="#m4d61cca85a" y="210.360443"/>
      </g>
     </g>
     <g id="text_11">
      <!-- −2000 -->
      <g transform="translate(16.770313 214.159662)scale(0.1 -0.1)">
       <use xlink:href="#DejaVuSans-2212"/>
       <use x="83.789062" xlink:href="#DejaVuSans-32"/>
       <use x="147.412109" xlink:href="#DejaVuSans-30"/>
       <use x="211.035156" xlink:href="#DejaVuSans-30"/>
       <use x="274.658203" xlink:href="#DejaVuSans-30"/>
      </g>
     </g>
    </g>
    <g id="ytick_5">
     <g id="line2d_11">
      <g>
       <use style="stroke:#000000;stroke-width:0.8;" x="57.6" xlink:href="#m4d61cca85a" y="178.310683"/>
      </g>
     </g>
     <g id="text_12">
      <!-- −1500 -->
      <g transform="translate(16.770313 182.109902)scale(0.1 -0.1)">
       <use xlink:href="#DejaVuSans-2212"/>
       <use x="83.789062" xlink:href="#DejaVuSans-31"/>
       <use x="147.412109" xlink:href="#DejaVuSans-35"/>
       <use x="211.035156" xlink:href="#DejaVuSans-30"/>
       <use x="274.658203" xlink:href="#DejaVuSans-30"/>
      </g>
     </g>
    </g>
    <g id="ytick_6">
     <g id="line2d_12">
      <g>
       <use style="stroke:#000000;stroke-width:0.8;" x="57.6" xlink:href="#m4d61cca85a" y="146.260924"/>
      </g>
     </g>
     <g id="text_13">
      <!-- −1000 -->
      <g transform="translate(16.770313 150.060142)scale(0.1 -0.1)">
       <use xlink:href="#DejaVuSans-2212"/>
       <use x="83.789062" xlink:href="#DejaVuSans-31"/>
       <use x="147.412109" xlink:href="#DejaVuSans-30"/>
       <use x="211.035156" xlink:href="#DejaVuSans-30"/>
       <use x="274.658203" xlink:href="#DejaVuSans-30"/>
      </g>
     </g>
    </g>
    <g id="ytick_7">
     <g id="line2d_13">
      <g>
       <use style="stroke:#000000;stroke-width:0.8;" x="57.6" xlink:href="#m4d61cca85a" y="114.211164"/>
      </g>
     </g>
     <g id="text_14">
      <!-- −500 -->
      <g transform="translate(23.132812 118.010383)scale(0.1 -0.1)">
       <use xlink:href="#DejaVuSans-2212"/>
       <use x="83.789062" xlink:href="#DejaVuSans-35"/>
       <use x="147.412109" xlink:href="#DejaVuSans-30"/>
       <use x="211.035156" xlink:href="#DejaVuSans-30"/>
      </g>
     </g>
    </g>
    <g id="ytick_8">
     <g id="line2d_14">
      <g>
       <use style="stroke:#000000;stroke-width:0.8;" x="57.6" xlink:href="#m4d61cca85a" y="82.161404"/>
      </g>
     </g>
     <g id="text_15">
      <!-- 0 -->
      <g transform="translate(44.2375 85.960623)scale(0.1 -0.1)">
       <use xlink:href="#DejaVuSans-30"/>
      </g>
     </g>
    </g>
    <g id="ytick_9">
     <g id="line2d_15">
      <g>
       <use style="stroke:#000000;stroke-width:0.8;" x="57.6" xlink:href="#m4d61cca85a" y="50.111645"/>
      </g>
     </g>
     <g id="text_16">
      <!-- 500 -->
      <g transform="translate(31.5125 53.910863)scale(0.1 -0.1)">
       <use xlink:href="#DejaVuSans-35"/>
       <use x="63.623047" xlink:href="#DejaVuSans-30"/>
       <use x="127.246094" xlink:href="#DejaVuSans-30"/>
      </g>
     </g>
    </g>
   </g>
   <g id="line2d_16">
    <path clip-path="url(#p274e1ec98a)" d="M 73.832727 53.568 
L 74.157707 89.417339 
L 74.807666 111.745085 
L 75.132645 116.461163 
L 75.457625 119.357379 
L 75.782604 126.484454 
L 76.107584 127.962083 
L 76.432563 132.664571 
L 76.757543 127.577854 
L 77.082523 134.228554 
L 77.407502 133.980323 
L 78.057461 138.300957 
L 78.382441 138.239283 
L 79.0324 139.296108 
L 79.357379 140.156105 
L 79.682359 142.828576 
L 80.007338 140.317031 
L 80.657297 142.476821 
L 80.982277 142.231445 
L 81.307256 146.903073 
L 81.632236 145.506659 
L 82.282195 150.696282 
L 82.607174 147.265213 
L 82.932154 147.112522 
L 83.257133 153.258928 
L 83.582113 152.860895 
L 83.907093 152.127342 
L 84.232072 153.098562 
L 84.557052 155.396005 
L 84.882031 154.9516 
L 85.207011 158.048441 
L 85.53199 158.606231 
L 85.85697 166.415348 
L 86.181949 165.702499 
L 86.506929 167.546741 
L 87.156888 170.342467 
L 87.481867 170.679696 
L 87.806847 171.698236 
L 88.131826 168.451465 
L 88.456806 178.188902 
L 88.781785 173.217984 
L 89.106765 172.918606 
L 89.756724 178.222636 
L 90.081704 176.382526 
L 90.406683 173.046468 
L 90.731663 181.968874 
L 91.056642 176.117844 
L 91.381622 177.5777 
L 91.706601 186.126498 
L 92.031581 186.544148 
L 92.35656 181.991505 
L 92.68154 182.495713 
L 93.006519 176.920442 
L 93.331499 182.120672 
L 93.656478 184.811551 
L 94.306437 184.985851 
L 94.631417 183.979398 
L 94.956396 192.09921 
L 95.281376 190.212253 
L 95.606355 184.983569 
L 95.931335 186.727124 
L 96.256314 185.371374 
L 96.581294 186.942417 
L 96.906274 190.157367 
L 97.231253 187.775286 
L 97.556233 190.72974 
L 97.881212 190.444032 
L 98.206192 185.791929 
L 98.531171 195.801137 
L 98.856151 187.6305 
L 99.18113 190.30615 
L 99.831089 197.608314 
L 100.156069 195.797263 
L 100.481048 194.899207 
L 100.806028 195.765298 
L 101.131007 194.912019 
L 101.455987 195.604861 
L 101.780966 194.406683 
L 102.105946 200.694851 
L 102.430925 196.330274 
L 102.755905 206.489334 
L 103.080885 202.061633 
L 103.405864 201.752871 
L 103.730844 200.507409 
L 104.055823 198.029312 
L 104.705782 206.771338 
L 105.030762 203.691394 
L 105.355741 206.201938 
L 105.680721 202.869742 
L 106.0057 201.697204 
L 106.33068 207.504939 
L 106.655659 208.633332 
L 106.980639 202.691292 
L 107.630598 216.358996 
L 107.955577 213.539539 
L 108.280557 215.488003 
L 108.930516 206.123236 
L 109.255495 219.86414 
L 109.580475 213.342771 
L 109.905455 218.830013 
L 110.230434 212.938163 
L 110.555414 215.672496 
L 110.880393 215.054733 
L 111.205373 221.534217 
L 111.530352 213.984568 
L 111.855332 209.733857 
L 112.180311 213.224722 
L 112.505291 211.039959 
L 112.83027 213.628306 
L 113.15525 212.39108 
L 113.480229 214.302577 
L 113.805209 217.883246 
L 114.130188 219.665827 
L 114.455168 212.575538 
L 114.780147 213.66731 
L 115.105127 211.744596 
L 115.430106 212.827483 
L 116.080066 216.157354 
L 116.405045 215.564505 
L 116.730025 218.675061 
L 117.055004 215.751892 
L 117.379984 214.940528 
L 117.704963 218.094285 
L 118.029943 216.232216 
L 118.354922 221.417989 
L 118.679902 218.026184 
L 119.004881 218.707114 
L 119.329861 213.736658 
L 119.65484 219.154819 
L 119.97982 213.864146 
L 120.304799 219.627553 
L 120.954758 213.700417 
L 121.279738 216.692378 
L 121.604717 214.853475 
L 121.929697 210.254838 
L 122.254676 219.415132 
L 122.579656 215.759825 
L 122.904636 220.52021 
L 123.229615 223.607766 
L 123.554595 216.737924 
L 123.879574 217.306492 
L 124.204554 218.837891 
L 124.529533 225.899661 
L 124.854513 227.514592 
L 125.179492 215.58745 
L 125.504472 224.210477 
L 125.829451 223.96917 
L 126.154431 220.514827 
L 126.47941 219.879985 
L 126.80439 225.475476 
L 127.129369 219.318536 
L 127.454349 225.212379 
L 127.779328 225.597013 
L 128.104308 217.553079 
L 128.429287 225.05647 
L 128.754267 217.243272 
L 129.079247 230.962124 
L 129.404226 232.891767 
L 129.729206 227.176929 
L 130.054185 229.697078 
L 131.029124 221.090057 
L 131.679083 235.219746 
L 132.004062 234.218404 
L 132.329042 227.921837 
L 132.654021 229.453129 
L 132.979001 227.695109 
L 133.30398 228.704136 
L 133.62896 230.764706 
L 133.953939 235.426618 
L 134.278919 234.154592 
L 134.603898 228.917697 
L 134.928878 227.885207 
L 135.253857 233.852945 
L 135.578837 223.006719 
L 135.903817 236.53503 
L 136.228796 226.92002 
L 136.553776 236.213892 
L 136.878755 229.379918 
L 137.203735 231.999894 
L 137.528714 240.704355 
L 137.853694 242.187296 
L 138.503653 230.617882 
L 138.828632 232.786687 
L 139.478591 241.635425 
L 140.12855 235.804561 
L 140.45353 245.757196 
L 141.103489 234.609571 
L 141.428468 237.512487 
L 141.753448 237.340214 
L 142.078428 247.52192 
L 142.403407 234.566393 
L 142.728387 236.350523 
L 143.053366 239.623873 
L 143.378346 241.696066 
L 143.703325 230.780139 
L 144.028305 234.588628 
L 144.353284 250.20388 
L 144.678264 235.209488 
L 145.003243 248.703856 
L 145.328223 241.439048 
L 145.653202 249.419787 
L 146.303161 240.111748 
L 146.628141 238.744183 
L 146.95312 249.387729 
L 147.2781 238.735957 
L 147.603079 236.734761 
L 147.928059 250.27324 
L 148.253038 241.646872 
L 148.902998 243.616661 
L 149.227977 227.933571 
L 149.552957 239.271493 
L 150.202916 253.206056 
L 150.527895 242.99894 
L 150.852875 240.871542 
L 151.177854 237.659286 
L 151.502834 253.741078 
L 151.827813 248.432957 
L 152.152793 251.049357 
L 152.477772 249.595244 
L 152.802752 242.820938 
L 153.127731 246.85097 
L 153.452711 247.703042 
L 153.77769 257.398354 
L 154.10267 248.348414 
L 154.427649 247.573775 
L 154.752629 251.931421 
L 155.077609 250.448919 
L 155.402588 251.762166 
L 155.727568 237.308361 
L 156.052547 246.547309 
L 156.377527 248.176885 
L 156.702506 252.693926 
L 157.027486 246.061536 
L 157.352465 253.84925 
L 157.677445 245.676231 
L 158.002424 252.098876 
L 158.327404 244.96798 
L 158.652383 255.047846 
L 158.977363 250.816702 
L 159.302342 242.249698 
L 159.627322 251.285607 
L 159.952301 251.989033 
L 160.277281 246.838669 
L 160.60226 247.8963 
L 160.92724 247.386113 
L 161.252219 243.316544 
L 161.577199 244.239715 
L 161.902179 252.632892 
L 162.227158 255.253636 
L 162.552138 249.371328 
L 162.877117 251.524163 
L 163.202097 249.553609 
L 163.527076 251.390939 
L 163.852056 248.669728 
L 164.177035 250.656055 
L 164.502015 260.202531 
L 164.826994 247.524043 
L 165.151974 258.103735 
L 165.476953 247.859412 
L 165.801933 252.726359 
L 166.126912 242.039631 
L 166.451892 252.339859 
L 166.776871 249.155296 
L 167.101851 248.844035 
L 167.42683 240.310849 
L 167.75181 258.806422 
L 168.07679 250.424809 
L 168.401769 257.075424 
L 168.726749 253.790056 
L 169.051728 252.479678 
L 169.376708 264.757908 
L 170.026667 253.242739 
L 170.351646 259.561309 
L 170.676626 247.932326 
L 171.001605 258.592002 
L 171.651564 248.438779 
L 171.976544 251.245214 
L 172.301523 262.244831 
L 172.626503 261.197777 
L 172.951482 255.699202 
L 173.276462 253.915599 
L 173.601441 248.897353 
L 173.926421 254.504132 
L 174.2514 257.522431 
L 174.57638 252.082808 
L 174.90136 253.977535 
L 175.226339 265.007431 
L 175.551319 251.465433 
L 175.876298 250.741942 
L 176.201278 259.646205 
L 176.526257 259.397976 
L 176.851237 256.023121 
L 177.176216 257.34261 
L 177.501196 248.595679 
L 177.826175 246.283797 
L 178.476134 260.332638 
L 178.801114 252.513017 
L 179.126093 252.874409 
L 179.451073 258.527509 
L 179.776052 248.00631 
L 180.426011 262.842314 
L 180.750991 252.276702 
L 181.075971 257.240716 
L 181.40095 248.490347 
L 181.72593 254.855957 
L 182.050909 251.41041 
L 182.375889 263.8516 
L 182.700868 260.157818 
L 183.025848 260.946574 
L 183.350827 250.473974 
L 183.675807 250.770712 
L 184.000786 262.078155 
L 184.325766 249.721242 
L 184.650745 250.30432 
L 184.975725 258.64737 
L 185.300704 257.571114 
L 185.625684 258.630074 
L 185.950663 265.36316 
L 186.275643 257.99716 
L 186.600622 262.059731 
L 186.925602 256.274179 
L 187.250581 261.052429 
L 187.575561 258.142068 
L 188.22552 264.888266 
L 188.5505 250.663857 
L 188.875479 257.133955 
L 189.200459 267.319788 
L 189.525438 256.943948 
L 189.850418 263.796763 
L 190.500377 257.059569 
L 190.825356 250.683692 
L 191.150336 261.054144 
L 191.475315 255.675765 
L 191.800295 270.936171 
L 192.125274 260.96959 
L 192.450254 255.257452 
L 192.775233 267.94789 
L 193.100213 253.591208 
L 193.425192 265.374484 
L 193.750172 263.530002 
L 194.075152 260.718579 
L 194.400131 255.20954 
L 194.725111 264.98229 
L 195.05009 252.981047 
L 195.37507 269.048074 
L 195.700049 253.801598 
L 196.025029 262.63379 
L 196.350008 257.137324 
L 196.674988 270.265057 
L 196.999967 260.69504 
L 197.324947 261.439622 
L 197.649926 255.508749 
L 197.974906 259.964152 
L 198.299885 255.426676 
L 198.624865 249.088435 
L 198.949844 257.569808 
L 199.274824 255.324465 
L 199.599803 257.813996 
L 199.924783 264.025393 
L 200.249762 256.832046 
L 200.574742 257.696169 
L 200.899722 268.839546 
L 201.224701 257.796609 
L 201.549681 255.635181 
L 201.87466 261.608593 
L 202.19964 262.47426 
L 202.524619 261.394583 
L 202.849599 265.690497 
L 203.174578 248.782875 
L 203.499558 266.078603 
L 203.824537 256.000288 
L 204.149517 256.793643 
L 204.474496 253.691494 
L 204.799476 268.298889 
L 205.449435 263.445309 
L 205.774414 265.866557 
L 206.099394 261.421189 
L 206.424373 260.568391 
L 206.749353 257.300561 
L 207.074333 258.868009 
L 207.399312 258.893217 
L 207.724292 268.678998 
L 208.049271 266.737778 
L 208.374251 254.481671 
L 208.69923 261.146006 
L 209.02421 258.842772 
L 209.349189 265.05283 
L 209.674169 266.030197 
L 209.999148 263.097224 
L 210.324128 262.196194 
L 210.649107 273.58431 
L 211.299066 258.119209 
L 211.624046 265.068694 
L 211.949025 258.191892 
L 212.274005 263.887709 
L 212.598984 255.035989 
L 212.923964 266.813966 
L 213.248943 253.530012 
L 213.573923 264.024345 
L 213.898903 253.331432 
L 214.223882 267.772914 
L 214.548862 255.039695 
L 214.873841 264.7653 
L 215.198821 269.910585 
L 215.5238 263.284028 
L 215.84878 266.94464 
L 216.173759 262.786106 
L 216.498739 263.908408 
L 216.823718 265.534461 
L 217.148698 259.228836 
L 217.473677 264.306488 
L 217.798657 257.816041 
L 218.123636 259.315281 
L 218.448616 267.904238 
L 218.773595 261.547972 
L 219.098575 264.688282 
L 219.423554 260.522096 
L 219.748534 265.369782 
L 220.073514 264.294757 
L 220.398493 266.425304 
L 220.723473 262.906118 
L 221.048452 265.628582 
L 221.373432 255.394894 
L 221.698411 270.927779 
L 222.023391 262.183864 
L 222.34837 265.438727 
L 222.67335 264.459405 
L 222.998329 268.43118 
L 223.323309 264.905405 
L 223.973268 254.272723 
L 224.298247 272.000031 
L 224.623227 273.973994 
L 224.948206 255.092332 
L 225.273186 265.501484 
L 225.598165 270.750323 
L 225.923145 259.441425 
L 226.248124 267.105668 
L 226.573104 268.669929 
L 226.898084 267.548134 
L 227.223063 242.846987 
L 227.873022 274.44938 
L 228.198002 261.416315 
L 228.522981 258.524253 
L 229.17294 271.560655 
L 229.49792 266.777472 
L 229.822899 268.20094 
L 230.147879 260.932411 
L 230.472858 263.418342 
L 230.797838 253.507407 
L 231.122817 270.29296 
L 231.447797 262.270626 
L 231.772776 262.916447 
L 232.422735 269.683836 
L 232.747715 264.54605 
L 233.072695 271.277214 
L 233.397674 268.887225 
L 233.722654 263.913093 
L 234.047633 264.058581 
L 234.372613 254.270597 
L 234.697592 266.067342 
L 235.022572 272.845224 
L 235.347551 259.496747 
L 235.672531 266.23994 
L 235.99751 261.562616 
L 236.647469 269.105172 
L 236.972449 268.049838 
L 237.297428 253.7957 
L 237.622408 268.241326 
L 237.947387 270.308554 
L 238.272367 261.576751 
L 238.597346 261.844078 
L 238.922326 263.594774 
L 239.247305 253.731642 
L 239.572285 265.748516 
L 239.897265 270.594572 
L 240.222244 259.710742 
L 240.547224 274.016301 
L 241.197183 265.615335 
L 241.522162 267.841603 
L 241.847142 267.354214 
L 242.172121 273.95379 
L 242.497101 263.030902 
L 242.82208 268.552283 
L 243.14706 256.43203 
L 243.472039 277.059137 
L 243.797019 259.820165 
L 244.121998 260.790981 
L 244.771957 264.291464 
L 245.096937 260.473482 
L 245.421916 270.464364 
L 245.746896 256.258341 
L 246.071876 259.561838 
L 246.396855 268.103115 
L 246.721835 265.241578 
L 247.046814 267.97682 
L 247.371794 264.841821 
L 247.696773 270.459466 
L 248.021753 260.907905 
L 248.346732 259.996351 
L 248.671712 266.090334 
L 248.996691 255.584071 
L 249.321671 268.584259 
L 249.64665 271.779613 
L 249.97163 271.494007 
L 250.296609 264.176338 
L 250.621589 270.89927 
L 250.946568 263.50733 
L 251.271548 265.207499 
L 251.596527 262.281012 
L 251.921507 268.424911 
L 252.246486 259.07419 
L 252.571466 270.021285 
L 252.896446 269.51848 
L 253.221425 269.460579 
L 253.546405 255.601058 
L 253.871384 264.655606 
L 254.521343 269.293723 
L 254.846323 266.505697 
L 255.171302 268.477243 
L 255.496282 264.641055 
L 255.821261 267.03383 
L 256.146241 270.675094 
L 256.47122 269.189885 
L 256.7962 266.145712 
L 257.446159 265.297511 
L 257.771138 252.985284 
L 258.096118 266.148376 
L 258.421097 262.266041 
L 258.746077 268.376828 
L 259.071057 263.294638 
L 259.396036 268.369142 
L 259.721016 267.447887 
L 260.045995 259.672372 
L 260.370975 262.008384 
L 261.020934 273.352397 
L 261.345913 269.209503 
L 261.670893 270.51371 
L 261.995872 264.292809 
L 262.320852 277.673864 
L 262.645831 261.321911 
L 262.970811 253.214593 
L 263.29579 271.085932 
L 263.62077 266.927123 
L 263.945749 274.022439 
L 264.270729 263.425936 
L 264.595708 272.996028 
L 264.920688 259.193691 
L 265.245667 274.251492 
L 265.570647 263.727929 
L 265.895627 269.629923 
L 266.220606 269.39795 
L 266.545586 266.410055 
L 266.870565 271.005665 
L 267.195545 266.587984 
L 267.520524 274.289797 
L 267.845504 256.817014 
L 268.170483 259.947195 
L 268.495463 269.881791 
L 268.820442 260.809053 
L 269.145422 263.536842 
L 269.470401 267.534019 
L 269.795381 260.551655 
L 270.12036 273.813918 
L 270.44534 270.766407 
L 270.770319 266.433401 
L 271.095299 277.326331 
L 271.420278 264.877658 
L 271.745258 276.580299 
L 272.070238 259.195777 
L 272.395217 266.066883 
L 272.720197 266.071598 
L 273.045176 257.957349 
L 273.370156 275.982247 
L 274.020115 265.633177 
L 274.345094 268.853787 
L 274.670074 270.79855 
L 274.995053 263.230135 
L 275.320033 261.054152 
L 275.645012 272.515871 
L 275.969992 266.138701 
L 276.619951 270.959673 
L 276.94493 268.138048 
L 277.26991 263.366528 
L 277.594889 263.063316 
L 277.919869 262.531463 
L 278.244848 258.593998 
L 278.569828 271.505137 
L 278.894808 274.670857 
L 279.219787 270.655411 
L 279.544767 272.632967 
L 279.869746 262.79432 
L 280.194726 268.617081 
L 280.519705 266.58568 
L 280.844685 268.230853 
L 281.169664 263.954243 
L 281.494644 269.427694 
L 281.819623 267.798984 
L 282.144603 258.158504 
L 282.469582 266.225652 
L 282.794562 266.111481 
L 283.119541 268.324073 
L 283.444521 263.219434 
L 283.7695 273.586572 
L 284.09448 271.346201 
L 284.419459 273.974366 
L 284.744439 265.844725 
L 285.069419 270.535349 
L 285.394398 261.87622 
L 285.719378 273.095049 
L 286.044357 265.238963 
L 286.369337 267.734057 
L 286.694316 273.555807 
L 287.019296 265.013845 
L 287.344275 261.17229 
L 287.669255 278.359444 
L 287.994234 268.178695 
L 288.319214 269.646366 
L 288.644193 262.758805 
L 288.969173 271.075343 
L 289.294152 261.166345 
L 289.619132 268.832309 
L 289.944111 266.38912 
L 290.269091 270.82408 
L 290.59407 266.923545 
L 290.91905 269.167976 
L 291.244029 266.622926 
L 291.569009 271.360496 
L 291.893989 271.238993 
L 292.218968 259.705024 
L 292.868927 280.814096 
L 293.193907 262.241034 
L 293.518886 277.440443 
L 293.843866 252.847604 
L 294.168845 266.132749 
L 294.493825 270.913752 
L 294.818804 264.048202 
L 295.143784 276.988088 
L 295.468763 263.939571 
L 295.793743 260.354143 
L 296.118722 268.914408 
L 296.443702 266.207377 
L 296.768681 264.640211 
L 297.093661 271.460412 
L 297.41864 256.012916 
L 297.74362 265.688251 
L 298.0686 264.23416 
L 298.393579 264.612493 
L 298.718559 267.858278 
L 299.043538 273.867489 
L 299.368518 270.991858 
L 299.693497 263.903506 
L 300.018477 266.242449 
L 300.343456 258.624861 
L 300.668436 271.083842 
L 300.993415 267.119414 
L 301.318395 271.654532 
L 301.643374 272.644658 
L 301.968354 269.807306 
L 302.293333 271.672956 
L 302.618313 262.65006 
L 302.943292 266.066381 
L 303.268272 273.492636 
L 303.593251 266.57808 
L 303.918231 270.638649 
L 304.24321 261.259 
L 304.56819 271.158996 
L 304.89317 266.776975 
L 305.218149 259.03055 
L 305.868108 279.835966 
L 306.193088 262.313225 
L 306.518067 273.430899 
L 306.843047 268.627441 
L 307.817985 261.919087 
L 308.467944 286.011872 
L 308.792924 272.529925 
L 309.442883 261.498948 
L 309.767862 268.772922 
L 310.092842 278.631596 
L 310.742801 261.451358 
L 311.067781 270.831833 
L 311.39276 269.136873 
L 311.71774 272.14799 
L 312.042719 270.337638 
L 312.367699 279.813642 
L 312.692678 274.913946 
L 313.017658 273.649013 
L 313.342637 273.281585 
L 313.667617 270.303311 
L 313.992596 271.011689 
L 314.317576 263.093594 
L 314.642555 269.792664 
L 314.967535 263.613791 
L 315.292514 262.669904 
L 315.617494 270.187879 
L 315.942473 259.618595 
L 316.267453 256.93981 
L 316.592432 267.048424 
L 316.917412 270.002933 
L 317.242391 271.57476 
L 317.567371 277.166681 
L 317.892351 270.045425 
L 318.21733 265.698696 
L 318.54231 275.114932 
L 318.867289 276.275743 
L 319.192269 270.577593 
L 319.517248 270.558654 
L 319.842228 265.041585 
L 320.167207 269.906336 
L 320.492187 261.593683 
L 320.817166 273.279279 
L 321.142146 272.596017 
L 321.467125 261.783949 
L 321.792105 260.874847 
L 322.442064 270.386233 
L 322.767043 266.854305 
L 323.092023 274.52188 
L 323.417002 270.853622 
L 323.741982 278.62846 
L 324.066962 263.5071 
L 324.391941 275.102665 
L 324.716921 282.219682 
L 325.0419 267.701692 
L 325.36688 274.697375 
L 325.691859 272.890442 
L 326.016839 273.458627 
L 326.341818 277.744204 
L 326.666798 261.88052 
L 326.991777 273.840995 
L 327.316757 271.625195 
L 327.641736 265.611071 
L 327.966716 272.09821 
L 328.291695 270.49603 
L 328.616675 281.275738 
L 328.941654 268.003955 
L 329.266634 273.901027 
L 329.591613 267.011062 
L 329.916593 271.970763 
L 330.241572 271.35238 
L 330.566552 262.868605 
L 330.891532 274.5375 
L 331.216511 269.742012 
L 331.541491 269.474728 
L 331.86647 270.052825 
L 332.19145 275.358813 
L 332.516429 271.230047 
L 332.841409 270.044119 
L 333.166388 265.453558 
L 333.491368 274.399517 
L 333.816347 270.694966 
L 334.141327 259.812735 
L 334.466306 273.205186 
L 334.791286 269.791581 
L 335.116265 267.695545 
L 335.441245 269.587792 
L 335.766224 278.173541 
L 336.091204 272.391099 
L 336.416183 261.859074 
L 336.741163 271.257632 
L 337.391122 266.133993 
L 337.716102 277.772208 
L 338.366061 259.656206 
L 338.69104 271.273105 
L 339.01602 258.335661 
L 339.340999 267.366448 
L 339.665979 268.451922 
L 339.990958 267.821349 
L 340.315938 265.67017 
L 340.640917 272.578524 
L 340.965897 265.900951 
L 341.290876 268.495902 
L 341.615856 272.273356 
L 341.940835 272.765531 
L 342.265815 268.639279 
L 342.590794 279.787023 
L 342.915774 275.827423 
L 343.240753 262.918951 
L 343.890713 281.411799 
L 344.215692 270.361064 
L 344.540672 271.429775 
L 344.865651 271.67984 
L 345.190631 262.636715 
L 345.51561 264.211762 
L 346.165569 274.469496 
L 346.490549 276.249874 
L 346.815528 275.060848 
L 347.140508 278.794239 
L 347.465487 277.594678 
L 347.790467 270.400502 
L 348.115446 270.260273 
L 348.440426 271.248128 
L 348.765405 273.563711 
L 349.090385 265.40932 
L 349.415364 265.75943 
L 349.740344 275.828835 
L 350.390303 268.310899 
L 350.715283 269.853906 
L 351.040262 269.788051 
L 351.365242 273.798939 
L 351.690221 275.065186 
L 352.015201 264.956818 
L 352.34018 277.489727 
L 352.66516 262.430541 
L 352.990139 279.148462 
L 353.315119 264.556624 
L 353.640098 273.152955 
L 353.965078 263.010924 
L 354.615037 277.630879 
L 354.940016 272.959143 
L 355.264996 265.531898 
L 355.589975 277.444896 
L 355.914955 267.429662 
L 356.239934 280.07574 
L 356.564914 272.752116 
L 356.889894 276.933745 
L 357.214873 263.492719 
L 357.539853 269.570574 
L 357.864832 283.670851 
L 358.189812 268.766192 
L 358.514791 278.880122 
L 358.839771 276.623283 
L 359.48973 264.656085 
L 359.814709 275.67341 
L 360.139689 269.929138 
L 360.464668 274.119429 
L 360.789648 273.411696 
L 361.114627 283.340234 
L 361.439607 270.185052 
L 361.764586 276.247791 
L 362.089566 279.684283 
L 362.414545 271.913836 
L 362.739525 268.64318 
L 363.064505 266.531155 
L 363.389484 269.850255 
L 364.039443 261.102108 
L 364.364423 272.08048 
L 364.689402 272.532879 
L 365.014382 278.303071 
L 365.339361 275.04112 
L 365.664341 278.476862 
L 365.98932 258.536928 
L 366.3143 263.170558 
L 366.639279 278.564123 
L 366.964259 266.12823 
L 367.289238 268.814581 
L 367.614218 277.002514 
L 367.939197 271.166973 
L 368.264177 267.639732 
L 368.589156 275.74184 
L 368.914136 269.219325 
L 369.239115 265.993128 
L 369.564095 280.224522 
L 369.889075 270.925326 
L 370.214054 276.878408 
L 370.539034 280.79212 
L 370.864013 264.812861 
L 371.188993 267.618787 
L 371.513972 275.926453 
L 371.838952 265.761183 
L 372.163931 275.057048 
L 372.488911 274.618524 
L 372.81389 272.234825 
L 373.13887 266.426485 
L 373.463849 282.117817 
L 373.788829 272.335997 
L 374.113808 268.776361 
L 374.438788 266.440389 
L 374.763767 265.757252 
L 375.088747 267.565437 
L 375.413726 264.338883 
L 375.738706 279.089758 
L 376.063686 276.304214 
L 376.388665 276.910701 
L 376.713645 276.082346 
L 377.038624 282.122706 
L 377.363604 267.117504 
L 377.688583 271.458486 
L 378.013563 273.112564 
L 378.338542 275.566042 
L 378.663522 269.18115 
L 378.988501 273.93106 
L 379.96344 263.164863 
L 380.288419 275.43645 
L 380.613399 271.665544 
L 380.938378 271.699554 
L 381.263358 269.424593 
L 381.588337 271.749254 
L 381.913317 271.713158 
L 382.238296 275.257169 
L 382.563276 273.203373 
L 382.888256 272.698739 
L 383.213235 267.08773 
L 383.538215 269.662819 
L 383.863194 262.577008 
L 384.188174 274.195849 
L 384.513153 269.981055 
L 384.838133 274.027666 
L 385.163112 272.782323 
L 385.488092 278.100967 
L 385.813071 270.557968 
L 386.138051 269.890667 
L 386.46303 263.146831 
L 386.78801 271.532469 
L 387.112989 267.532492 
L 387.437969 279.318161 
L 387.762948 265.75746 
L 388.087928 278.618383 
L 388.412907 271.946198 
L 388.737887 270.902598 
L 389.062867 272.480944 
L 389.387846 277.531423 
L 389.712826 280.702503 
L 390.037805 271.104243 
L 390.362785 266.644261 
L 390.687764 277.762338 
L 391.012744 267.117471 
L 391.337723 280.247024 
L 391.662703 273.339929 
L 391.987682 277.267257 
L 392.312662 270.567827 
L 392.962621 280.955836 
L 393.2876 265.316101 
L 393.61258 264.853037 
L 393.937559 273.341184 
L 394.262539 274.109061 
L 394.587518 267.617997 
L 394.912498 268.982912 
L 395.237477 275.110821 
L 395.562457 273.151023 
L 395.887437 267.213125 
L 396.537396 268.888268 
L 396.862375 272.751483 
L 397.187355 279.805508 
L 397.512334 264.481088 
L 397.837314 276.742516 
L 398.162293 270.677605 
L 398.487273 281.93145 
L 398.487273 281.93145 
" style="fill:none;stroke:#1f77b4;stroke-linecap:square;stroke-width:1.5;"/>
   </g>
   <g id="line2d_17">
    <path clip-path="url(#p274e1ec98a)" d="M 73.832727 76.345278 
L 74.482686 108.775844 
L 75.132645 119.844986 
L 75.457625 128.987544 
L 75.782604 125.49994 
L 76.107584 117.348172 
L 76.432563 135.412788 
L 76.757543 129.702883 
L 77.082523 128.685402 
L 77.407502 135.183497 
L 77.732482 128.571902 
L 78.057461 141.370383 
L 78.382441 132.156111 
L 78.70742 138.497381 
L 79.357379 141.511916 
L 79.682359 139.914978 
L 80.332318 144.725094 
L 80.657297 145.653874 
L 80.982277 143.8418 
L 81.307256 145.105722 
L 81.632236 148.472282 
L 81.957215 148.849387 
L 82.282195 142.9806 
L 82.607174 142.979092 
L 82.932154 147.928606 
L 83.257133 155.725537 
L 83.582113 150.01169 
L 83.907093 154.695897 
L 84.232072 152.756517 
L 84.557052 161.559783 
L 84.882031 158.504645 
L 85.207011 167.79224 
L 85.53199 173.843841 
L 85.85697 138.462632 
L 86.181949 175.441516 
L 86.506929 159.298972 
L 86.831908 155.213097 
L 87.156888 173.312603 
L 87.806847 167.331421 
L 88.131826 175.011217 
L 88.456806 164.625471 
L 88.781785 172.864743 
L 89.106765 178.148377 
L 89.431744 187.4281 
L 89.756724 172.137094 
L 90.081704 181.223283 
L 90.406683 180.640702 
L 90.731663 180.949527 
L 91.056642 182.237078 
L 91.381622 186.324838 
L 91.706601 177.701074 
L 92.031581 183.765335 
L 92.35656 171.712054 
L 92.68154 178.9014 
L 93.006519 180.841886 
L 93.331499 180.556574 
L 93.656478 170.956739 
L 93.981458 184.635909 
L 94.306437 193.006257 
L 94.631417 184.74135 
L 94.956396 180.631736 
L 95.606355 195.548614 
L 95.931335 188.207302 
L 96.256314 187.825158 
L 96.581294 198.882192 
L 96.906274 194.424051 
L 97.231253 187.773032 
L 97.556233 184.848019 
L 97.881212 198.548416 
L 98.206192 182.968207 
L 98.531171 192.833696 
L 98.856151 196.103572 
L 99.18113 186.750515 
L 99.50611 196.707483 
L 99.831089 197.370481 
L 100.156069 192.231663 
L 100.481048 198.174292 
L 100.806028 208.333823 
L 101.131007 191.516672 
L 101.455987 185.568522 
L 101.780966 191.085347 
L 102.105946 187.126321 
L 102.430925 206.007854 
L 102.755905 206.428262 
L 103.080885 196.247443 
L 103.405864 198.018541 
L 103.730844 204.227203 
L 104.055823 204.765098 
L 104.380803 206.818129 
L 105.030762 192.392113 
L 105.680721 211.449147 
L 106.0057 207.943502 
L 106.33068 210.685219 
L 106.655659 209.436533 
L 106.980639 214.589324 
L 107.305618 229.485962 
L 107.630598 211.356818 
L 107.955577 212.687003 
L 108.280557 213.396729 
L 108.605536 210.182361 
L 108.930516 212.625997 
L 109.255495 205.885846 
L 109.580475 208.798108 
L 109.905455 209.689775 
L 110.230434 212.532424 
L 110.555414 223.216469 
L 110.880393 206.903126 
L 111.205373 207.753656 
L 111.530352 218.940908 
L 111.855332 221.196809 
L 112.180311 208.825622 
L 112.505291 214.718071 
L 112.83027 222.635804 
L 113.15525 214.89627 
L 113.480229 211.525478 
L 113.805209 214.4025 
L 114.130188 209.407279 
L 114.455168 207.56749 
L 114.780147 208.187972 
L 115.105127 209.889953 
L 115.430106 221.486599 
L 115.755086 213.060559 
L 116.080066 215.321617 
L 116.405045 209.440575 
L 116.730025 227.971536 
L 117.055004 213.996384 
L 117.379984 215.939893 
L 117.704963 216.416057 
L 118.029943 210.407063 
L 118.354922 218.246172 
L 118.679902 214.458733 
L 119.004881 206.366774 
L 119.329861 215.576575 
L 119.65484 199.053869 
L 119.97982 217.516771 
L 120.304799 203.39557 
L 120.629779 218.584982 
L 120.954758 218.009984 
L 121.279738 223.656375 
L 121.604717 208.351925 
L 121.929697 203.104216 
L 122.254676 218.581353 
L 122.579656 204.163877 
L 122.904636 220.9206 
L 123.229615 223.8753 
L 123.554595 217.767959 
L 123.879574 224.865949 
L 124.204554 214.08426 
L 124.529533 227.265441 
L 124.854513 216.126737 
L 125.179492 224.217908 
L 125.504472 219.548647 
L 125.829451 219.164799 
L 126.154431 216.503337 
L 126.47941 220.026958 
L 126.80439 214.213311 
L 127.129369 223.380677 
L 127.454349 229.215557 
L 127.779328 228.916505 
L 128.104308 231.130239 
L 128.429287 215.938292 
L 128.754267 219.362696 
L 129.079247 209.688797 
L 129.404226 228.071583 
L 129.729206 235.003566 
L 130.054185 225.853857 
L 130.704144 233.170568 
L 131.029124 220.488102 
L 131.354103 239.919599 
L 131.679083 244.190714 
L 132.004062 221.081121 
L 132.329042 221.270107 
L 132.654021 231.218676 
L 132.979001 227.064678 
L 133.30398 220.544324 
L 133.62896 239.81956 
L 133.953939 242.397533 
L 134.278919 239.116298 
L 134.603898 220.717232 
L 134.928878 223.971642 
L 135.578837 241.353674 
L 135.903817 231.079025 
L 136.228796 240.608881 
L 136.878755 223.769844 
L 137.203735 231.420543 
L 137.528714 248.265676 
L 137.853694 237.334923 
L 138.178673 236.735052 
L 138.503653 224.180483 
L 138.828632 237.017604 
L 139.153612 234.850104 
L 139.478591 236.604744 
L 139.803571 222.267976 
L 140.12855 219.173182 
L 140.45353 239.834415 
L 140.778509 243.565684 
L 141.103489 244.904118 
L 141.428468 251.937568 
L 141.753448 249.640199 
L 142.078428 257.829079 
L 142.403407 248.14831 
L 142.728387 234.894085 
L 143.053366 231.544426 
L 143.378346 243.413593 
L 143.703325 249.645901 
L 144.028305 231.152074 
L 144.353284 238.455194 
L 144.678264 235.344712 
L 145.003243 238.00372 
L 145.328223 241.917319 
L 145.653202 241.501606 
L 145.978182 255.719407 
L 146.303161 232.196481 
L 146.628141 232.150931 
L 146.95312 242.54137 
L 147.603079 251.403682 
L 147.928059 239.24283 
L 148.253038 246.656145 
L 148.902998 238.479502 
L 149.227977 232.678363 
L 149.552957 238.395338 
L 149.877936 253.075139 
L 150.202916 256.208119 
L 150.527895 236.6337 
L 150.852875 245.788399 
L 151.177854 236.576253 
L 151.502834 242.768547 
L 151.827813 258.231953 
L 152.152793 253.952012 
L 152.477772 248.061438 
L 152.802752 251.396238 
L 153.127731 261.27609 
L 153.452711 249.877523 
L 153.77769 258.348689 
L 154.10267 247.739313 
L 154.427649 242.855586 
L 154.752629 250.536971 
L 155.077609 253.078683 
L 155.402588 265.613807 
L 155.727568 250.125293 
L 156.377527 242.97301 
L 156.702506 261.75646 
L 157.352465 249.586797 
L 157.677445 251.452593 
L 158.002424 261.279458 
L 158.327404 258.606502 
L 158.652383 252.050145 
L 158.977363 248.539649 
L 159.302342 255.452742 
L 159.952301 241.826731 
L 160.277281 252.887175 
L 160.60226 257.233643 
L 160.92724 203.942834 
L 161.252219 265.225018 
L 161.577199 256.595793 
L 161.902179 262.038067 
L 162.227158 254.410441 
L 162.552138 239.520142 
L 162.877117 261.333781 
L 163.202097 268.918756 
L 163.527076 262.278188 
L 163.852056 248.180179 
L 164.177035 258.046592 
L 164.502015 257.559012 
L 164.826994 245.649255 
L 165.151974 255.371297 
L 165.476953 261.678125 
L 165.801933 265.488187 
L 166.126912 255.755017 
L 166.776871 257.768923 
L 167.101851 124.810683 
L 167.42683 251.922998 
L 167.75181 263.473155 
L 168.07679 253.352955 
L 168.401769 250.061435 
L 168.726749 234.900149 
L 169.051728 251.552976 
L 169.376708 256.498094 
L 169.701687 254.04959 
L 170.026667 240.082129 
L 170.351646 258.783439 
L 170.676626 252.775995 
L 171.001605 250.202653 
L 171.326585 244.577168 
L 171.651564 260.223947 
L 171.976544 262.518586 
L 172.301523 261.627766 
L 172.626503 249.598136 
L 172.951482 254.34988 
L 173.276462 246.087129 
L 173.601441 261.891933 
L 173.926421 260.821745 
L 174.2514 257.371667 
L 174.57638 263.952677 
L 174.90136 259.456734 
L 175.226339 244.018826 
L 175.551319 264.004721 
L 175.876298 245.483402 
L 176.201278 253.537973 
L 176.526257 255.471809 
L 176.851237 249.600233 
L 177.176216 247.636429 
L 177.501196 262.848136 
L 177.826175 253.797913 
L 178.151155 254.297557 
L 178.476134 260.706952 
L 178.801114 262.379056 
L 179.126093 264.859983 
L 179.451073 250.358685 
L 179.776052 248.581007 
L 180.426011 263.361697 
L 180.750991 258.869516 
L 181.075971 252.750105 
L 181.40095 267.505003 
L 181.72593 225.807577 
L 182.050909 261.020967 
L 182.375889 262.283329 
L 182.700868 252.251105 
L 183.025848 232.368126 
L 183.350827 261.710079 
L 183.675807 251.788849 
L 184.000786 255.25402 
L 184.325766 250.188013 
L 184.650745 259.650253 
L 184.975725 276.036523 
L 185.300704 256.758714 
L 185.625684 269.816278 
L 186.600622 238.628872 
L 186.925602 264.363034 
L 187.250581 268.071007 
L 187.575561 269.646862 
L 188.22552 258.866871 
L 188.5505 268.621945 
L 188.875479 260.261343 
L 189.200459 257.050324 
L 189.525438 250.985246 
L 189.850418 263.391184 
L 190.175397 257.865277 
L 190.500377 260.443283 
L 190.825356 278.813217 
L 191.150336 252.922608 
L 191.475315 267.739333 
L 191.800295 268.046403 
L 192.125274 267.517814 
L 192.450254 245.894968 
L 192.775233 269.87404 
L 193.100213 243.702488 
L 193.425192 256.47738 
L 193.750172 256.022766 
L 194.075152 255.790751 
L 194.400131 264.214724 
L 194.725111 258.873852 
L 195.05009 261.210932 
L 195.37507 262.476369 
L 195.700049 260.094062 
L 196.025029 280.093994 
L 196.350008 258.544433 
L 196.674988 250.484522 
L 196.999967 271.440293 
L 197.324947 253.841311 
L 197.649926 259.004322 
L 197.974906 266.023563 
L 198.299885 247.358873 
L 198.624865 245.700728 
L 198.949844 271.148045 
L 199.274824 263.097166 
L 199.599803 273.066807 
L 199.924783 269.375759 
L 200.249762 261.334747 
L 200.574742 258.893839 
L 200.899722 263.460114 
L 201.224701 256.476863 
L 201.549681 263.013926 
L 201.87466 255.38076 
L 202.19964 258.772342 
L 202.524619 249.754224 
L 202.849599 259.467954 
L 203.174578 259.414899 
L 203.499558 261.182665 
L 203.824537 269.963003 
L 204.149517 266.405149 
L 204.474496 253.520635 
L 204.799476 255.924862 
L 205.124455 263.553083 
L 205.449435 267.829459 
L 205.774414 260.498434 
L 206.099394 258.780911 
L 206.424373 263.563583 
L 206.749353 255.370763 
L 207.074333 267.767228 
L 207.399312 241.047965 
L 207.724292 276.142894 
L 208.374251 265.629225 
L 208.69923 263.370006 
L 209.02421 276.194185 
L 209.349189 245.09498 
L 209.674169 271.426572 
L 209.999148 253.963389 
L 210.324128 255.281304 
L 210.649107 245.620416 
L 211.299066 251.49547 
L 211.624046 252.425849 
L 211.949025 260.883345 
L 212.274005 254.406497 
L 212.923964 265.954183 
L 213.248943 266.590464 
L 213.573923 253.30208 
L 213.898903 253.677598 
L 214.223882 255.207015 
L 214.548862 260.004384 
L 214.873841 258.772996 
L 215.198821 255.868319 
L 215.5238 269.509014 
L 215.84878 269.079387 
L 216.173759 271.940537 
L 216.498739 251.735884 
L 216.823718 270.187741 
L 217.148698 255.06953 
L 217.473677 272.888217 
L 218.123636 257.374584 
L 218.448616 273.504241 
L 218.773595 271.336829 
L 219.098575 232.282627 
L 219.423554 264.588332 
L 219.748534 252.743707 
L 220.073514 269.323161 
L 220.398493 272.557834 
L 220.723473 266.366073 
L 221.048452 255.809136 
L 221.698411 255.518836 
L 222.023391 266.784471 
L 222.34837 254.217893 
L 222.67335 265.923076 
L 222.998329 271.842539 
L 223.323309 266.692735 
L 223.648288 254.353192 
L 223.973268 260.651225 
L 224.298247 275.881673 
L 224.623227 261.578685 
L 224.948206 269.387253 
L 225.273186 266.219333 
L 225.598165 261.569236 
L 226.248124 250.055669 
L 226.573104 272.908428 
L 226.898084 262.613069 
L 227.223063 268.674656 
L 227.548043 260.532555 
L 227.873022 260.805447 
L 228.198002 250.560417 
L 228.522981 272.659018 
L 228.847961 269.136649 
L 229.17294 253.240196 
L 229.49792 273.655243 
L 229.822899 238.745254 
L 230.147879 263.29886 
L 230.472858 264.908115 
L 230.797838 277.445416 
L 231.122817 256.93135 
L 231.447797 264.958579 
L 231.772776 259.897566 
L 232.097756 266.634192 
L 232.422735 267.488071 
L 232.747715 264.452617 
L 233.072695 273.511647 
L 233.397674 257.03907 
L 233.722654 264.96619 
L 234.047633 247.472721 
L 234.372613 264.630463 
L 234.697592 263.770392 
L 235.022572 257.669684 
L 235.347551 271.070122 
L 235.99751 266.454557 
L 236.32249 259.881575 
L 236.647469 267.133277 
L 236.972449 254.030775 
L 237.297428 251.09594 
L 237.622408 268.696231 
L 237.947387 257.362247 
L 238.272367 267.093185 
L 238.597346 258.630864 
L 238.922326 269.49059 
L 239.247305 266.252813 
L 239.572285 272.704625 
L 239.897265 255.468059 
L 240.222244 254.781596 
L 240.547224 261.385212 
L 240.872203 252.835518 
L 241.197183 273.751075 
L 241.522162 256.046487 
L 241.847142 259.828199 
L 242.497101 281.393075 
L 242.82208 267.323442 
L 243.14706 268.386898 
L 243.472039 276.14443 
L 243.797019 266.763757 
L 244.121998 253.470376 
L 244.446978 247.945248 
L 244.771957 268.732403 
L 245.096937 265.641309 
L 245.421916 259.239723 
L 245.746896 260.16107 
L 246.071876 257.05797 
L 246.396855 267.744868 
L 246.721835 225.208567 
L 247.046814 263.001879 
L 247.371794 253.357996 
L 247.696773 275.262876 
L 248.021753 260.012509 
L 248.346732 261.12927 
L 248.671712 263.869228 
L 248.996691 264.806331 
L 249.321671 275.446604 
L 249.97163 265.961215 
L 250.296609 269.733441 
L 250.621589 271.988784 
L 250.946568 258.701847 
L 251.271548 265.016283 
L 251.596527 261.509344 
L 251.921507 261.805894 
L 252.246486 262.726914 
L 252.571466 268.089656 
L 252.896446 266.862538 
L 253.221425 249.211356 
L 253.546405 254.683383 
L 254.196364 278.227998 
L 254.521343 264.239702 
L 254.846323 260.300687 
L 255.171302 259.964716 
L 255.496282 265.526739 
L 255.821261 255.570186 
L 256.146241 260.165275 
L 256.47122 259.265991 
L 256.7962 263.438477 
L 257.121179 256.925548 
L 257.446159 258.66985 
L 257.771138 252.595094 
L 258.096118 259.383464 
L 258.421097 271.927195 
L 258.746077 253.629181 
L 259.071057 261.322724 
L 259.396036 258.424324 
L 259.721016 273.033579 
L 260.045995 266.721037 
L 260.370975 262.696604 
L 260.695954 262.02932 
L 261.020934 264.874236 
L 261.345913 286.256424 
L 261.670893 249.393686 
L 261.995872 266.315073 
L 262.320852 267.29894 
L 262.645831 245.458724 
L 262.970811 266.755491 
L 263.29579 277.675492 
L 263.62077 258.988791 
L 263.945749 265.400693 
L 264.270729 261.477982 
L 264.595708 260.534739 
L 264.920688 254.907389 
L 265.245667 256.317016 
L 265.570647 254.547844 
L 266.220606 270.304972 
L 266.545586 272.373607 
L 266.870565 261.779981 
L 267.195545 266.485886 
L 267.520524 266.800077 
L 267.845504 267.312216 
L 268.170483 272.925948 
L 268.495463 254.568657 
L 268.820442 259.354657 
L 269.145422 275.967385 
L 269.470401 266.141895 
L 269.795381 277.017521 
L 270.12036 266.645505 
L 270.44534 284.364706 
L 270.770319 263.755823 
L 271.095299 271.689761 
L 271.420278 262.368277 
L 271.745258 268.972537 
L 272.070238 268.413118 
L 272.395217 275.01639 
L 272.720197 266.920223 
L 273.045176 269.962656 
L 273.370156 263.848305 
L 273.695135 267.294276 
L 274.020115 266.176045 
L 274.345094 273.950249 
L 274.670074 264.078764 
L 274.995053 259.66097 
L 275.320033 256.999656 
L 275.645012 267.316437 
L 275.969992 256.956273 
L 276.294971 268.516953 
L 276.619951 265.889157 
L 276.94493 279.407853 
L 277.26991 263.472595 
L 277.594889 266.270741 
L 277.919869 257.736012 
L 278.244848 268.156755 
L 278.569828 268.508529 
L 278.894808 273.286514 
L 279.544767 260.366266 
L 279.869746 260.665823 
L 280.194726 263.265648 
L 280.519705 270.436256 
L 280.844685 269.836126 
L 281.169664 255.915291 
L 281.494644 269.20724 
L 281.819623 275.229034 
L 282.144603 262.78702 
L 282.469582 279.838145 
L 282.794562 270.653661 
L 283.119541 253.384168 
L 283.444521 264.242323 
L 283.7695 257.344051 
L 284.09448 261.526559 
L 284.419459 281.717409 
L 284.744439 276.94711 
L 285.069419 274.580729 
L 285.394398 266.237648 
L 285.719378 275.667806 
L 286.044357 235.883609 
L 286.369337 261.922729 
L 286.694316 267.733654 
L 287.019296 275.765207 
L 287.344275 263.165981 
L 287.669255 278.410128 
L 287.994234 268.863152 
L 288.319214 270.02657 
L 288.644193 273.469001 
L 288.969173 260.084224 
L 289.294152 266.448266 
L 289.619132 251.385729 
L 289.944111 271.495302 
L 290.269091 269.41252 
L 290.59407 259.295648 
L 290.91905 271.827298 
L 291.244029 265.746401 
L 291.569009 268.658805 
L 291.893989 252.887306 
L 292.218968 269.027811 
L 292.543948 271.757939 
L 292.868927 265.539471 
L 293.193907 264.990472 
L 293.518886 271.635299 
L 293.843866 274.031607 
L 294.168845 268.094335 
L 294.493825 270.610629 
L 294.818804 265.293273 
L 295.143784 272.079082 
L 295.468763 270.08269 
L 295.793743 264.943026 
L 296.118722 265.573193 
L 296.443702 269.901454 
L 296.768681 271.928726 
L 297.093661 282.421817 
L 297.41864 265.878492 
L 297.74362 276.264097 
L 298.0686 265.583836 
L 298.393579 261.276368 
L 298.718559 266.072829 
L 299.368518 269.311274 
L 299.693497 269.436764 
L 300.343456 258.189356 
L 300.668436 275.211964 
L 300.993415 242.941918 
L 301.318395 269.147329 
L 301.643374 256.831114 
L 301.968354 264.568279 
L 302.293333 265.213673 
L 302.618313 273.293667 
L 302.943292 274.184737 
L 303.268272 267.208181 
L 303.593251 274.415075 
L 303.918231 253.384472 
L 304.56819 271.366017 
L 304.89317 267.724901 
L 305.218149 266.75959 
L 305.543129 259.317426 
L 305.868108 260.14007 
L 306.193088 262.823749 
L 306.518067 275.952745 
L 306.843047 263.288531 
L 307.168026 272.35245 
L 307.493006 259.16786 
L 307.817985 273.19789 
L 308.142965 261.019572 
L 308.467944 255.380104 
L 308.792924 272.435943 
L 309.117903 266.290858 
L 309.442883 278.626253 
L 309.767862 279.52338 
L 310.092842 271.84226 
L 310.417821 278.62414 
L 310.742801 262.6095 
L 311.067781 279.919587 
L 311.39276 276.321826 
L 311.71774 262.79443 
L 312.042719 269.598198 
L 312.367699 285.764002 
L 312.692678 269.009367 
L 313.017658 278.036852 
L 313.342637 264.477073 
L 313.667617 265.161672 
L 313.992596 273.216392 
L 314.317576 264.261709 
L 314.642555 264.110348 
L 314.967535 275.085771 
L 315.292514 267.216043 
L 315.617494 276.217726 
L 315.942473 269.723771 
L 316.267453 255.60796 
L 316.917412 282.319544 
L 317.242391 247.848432 
L 317.567371 268.567023 
L 318.21733 246.493845 
L 318.54231 252.571284 
L 318.867289 276.790595 
L 319.192269 256.204021 
L 319.517248 271.511046 
L 319.842228 264.365829 
L 320.167207 280.343551 
L 320.492187 265.766996 
L 320.817166 269.306275 
L 321.467125 280.568481 
L 321.792105 257.967416 
L 322.117084 295.488 
L 322.442064 261.684834 
L 322.767043 268.3679 
L 323.092023 268.122283 
L 323.417002 272.643844 
L 323.741982 268.696107 
L 324.066962 279.348804 
L 324.391941 256.43466 
L 324.716921 263.080867 
L 325.0419 263.549617 
L 325.36688 268.298175 
L 325.691859 276.669846 
L 326.016839 267.977073 
L 326.341818 266.923692 
L 326.666798 287.555491 
L 326.991777 271.834957 
L 327.316757 268.706145 
L 327.641736 253.505202 
L 327.966716 270.6709 
L 328.291695 272.59322 
L 328.616675 276.121709 
L 328.941654 259.547905 
L 329.266634 280.082848 
L 329.591613 281.599206 
L 329.916593 267.848168 
L 330.241572 266.716051 
L 330.566552 274.324067 
L 330.891532 258.221711 
L 331.541491 279.376823 
L 331.86647 262.559598 
L 332.19145 270.647302 
L 332.516429 281.767195 
L 332.841409 281.338032 
L 333.166388 259.528325 
L 333.491368 276.101517 
L 333.816347 279.874134 
L 334.141327 268.243279 
L 334.791286 284.312291 
L 335.116265 258.902816 
L 335.766224 268.338759 
L 336.091204 269.723109 
L 336.416183 274.146706 
L 336.741163 263.35134 
L 337.066143 270.122347 
L 337.391122 270.52554 
L 337.716102 272.38279 
L 338.041081 264.795214 
L 338.69104 279.566755 
L 339.01602 272.717241 
L 339.340999 270.253188 
L 339.665979 273.55488 
L 339.990958 275.280681 
L 340.315938 274.229284 
L 340.640917 281.927948 
L 340.965897 268.72025 
L 341.290876 271.031386 
L 341.615856 266.599537 
L 341.940835 259.770186 
L 342.265815 271.879577 
L 342.590794 259.578217 
L 343.240753 275.434286 
L 343.565733 279.04177 
L 343.890713 250.384472 
L 344.215692 272.827432 
L 344.540672 273.816327 
L 344.865651 266.537489 
L 345.51561 286.492238 
L 345.84059 279.233179 
L 346.165569 280.994793 
L 346.490549 268.568182 
L 346.815528 274.644787 
L 347.140508 274.604728 
L 347.465487 271.312955 
L 347.790467 273.112106 
L 348.115446 267.520027 
L 348.440426 282.243591 
L 348.765405 275.783875 
L 349.090385 266.252758 
L 349.415364 260.723286 
L 349.740344 261.914747 
L 350.065324 267.084232 
L 350.390303 265.089499 
L 350.715283 254.399616 
L 351.040262 284.624391 
L 351.365242 264.237036 
L 351.690221 272.907755 
L 352.015201 256.730773 
L 352.34018 270.874194 
L 352.66516 265.866353 
L 352.990139 270.846022 
L 353.315119 280.420579 
L 353.640098 271.335941 
L 354.290057 277.33392 
L 354.615037 290.689124 
L 354.940016 264.444871 
L 355.264996 282.446765 
L 355.914955 264.889111 
L 356.239934 270.188885 
L 356.564914 252.315494 
L 356.889894 265.783454 
L 357.214873 261.237283 
L 357.539853 270.825314 
L 357.864832 273.886054 
L 358.189812 270.906353 
L 358.514791 275.251529 
L 358.839771 257.983527 
L 359.16475 279.643796 
L 359.814709 257.280422 
L 360.139689 269.225709 
L 360.464668 291.493519 
L 361.439607 273.083077 
L 361.764586 266.239058 
L 362.089566 229.293344 
L 362.414545 264.899876 
L 362.739525 258.559691 
L 363.064505 269.205632 
L 363.389484 269.063279 
L 363.714464 276.687786 
L 364.039443 262.185683 
L 364.364423 279.166573 
L 365.014382 263.207135 
L 365.339361 277.672274 
L 365.664341 267.061579 
L 365.98932 238.888948 
L 366.3143 282.167832 
L 366.639279 270.457114 
L 366.964259 283.546546 
L 367.289238 262.212019 
L 367.614218 263.642969 
L 368.264177 280.577979 
L 368.589156 282.804894 
L 368.914136 262.412223 
L 369.239115 270.150377 
L 369.564095 281.523666 
L 369.889075 265.983443 
L 370.539034 276.858732 
L 370.864013 262.696306 
L 371.188993 277.003584 
L 371.513972 270.304212 
L 371.838952 269.51763 
L 372.163931 259.707861 
L 372.488911 261.874443 
L 372.81389 289.804745 
L 373.13887 271.559493 
L 373.463849 275.221828 
L 373.788829 264.172623 
L 374.113808 281.919916 
L 374.438788 275.228552 
L 374.763767 281.131576 
L 375.088747 266.090348 
L 375.413726 265.105801 
L 375.738706 276.509404 
L 376.063686 278.634393 
L 376.388665 277.419004 
L 376.713645 268.15657 
L 377.038624 276.012363 
L 377.363604 250.829753 
L 377.688583 281.332728 
L 378.338542 258.426444 
L 378.663522 270.897163 
L 378.988501 275.00043 
L 379.313481 271.268668 
L 379.63846 276.225075 
L 379.96344 277.341715 
L 380.613399 259.477492 
L 380.938378 280.769689 
L 381.263358 263.078384 
L 381.588337 252.858511 
L 382.238296 284.229641 
L 382.563276 272.998021 
L 382.888256 278.373587 
L 383.213235 271.505755 
L 383.538215 278.354078 
L 383.863194 266.399308 
L 384.188174 282.025922 
L 384.513153 252.705106 
L 384.838133 278.089216 
L 385.163112 278.308268 
L 385.488092 273.835203 
L 385.813071 255.898557 
L 386.138051 279.642377 
L 386.46303 265.766267 
L 386.78801 263.625632 
L 387.112989 271.354769 
L 387.437969 262.298837 
L 387.762948 262.288594 
L 388.087928 270.635421 
L 388.412907 259.716143 
L 388.737887 273.877946 
L 389.062867 276.88866 
L 389.387846 281.691947 
L 389.712826 271.044871 
L 390.037805 266.61364 
L 390.362785 273.136203 
L 390.687764 292.130185 
L 391.012744 275.640895 
L 391.337723 294.073401 
L 391.987682 269.496218 
L 392.312662 270.416935 
L 392.637641 275.728374 
L 392.962621 287.035883 
L 393.2876 255.067444 
L 393.61258 277.906867 
L 393.937559 273.003195 
L 394.262539 278.295083 
L 394.587518 280.975341 
L 394.912498 270.909987 
L 395.237477 269.294683 
L 395.562457 268.899802 
L 395.887437 271.707781 
L 396.212416 269.618528 
L 396.862375 271.192391 
L 397.187355 274.852816 
L 397.512334 262.671634 
L 397.837314 270.127603 
L 398.162293 266.708465 
L 398.487273 273.662931 
L 398.487273 273.662931 
" style="fill:none;stroke:#ff7f0e;stroke-linecap:square;stroke-width:1.5;"/>
   </g>
   <g id="patch_3">
    <path d="M 57.6 307.584 
L 57.6 41.472 
" style="fill:none;stroke:#000000;stroke-linecap:square;stroke-linejoin:miter;stroke-width:0.8;"/>
   </g>
   <g id="patch_4">
    <path d="M 414.72 307.584 
L 414.72 41.472 
" style="fill:none;stroke:#000000;stroke-linecap:square;stroke-linejoin:miter;stroke-width:0.8;"/>
   </g>
   <g id="patch_5">
    <path d="M 57.6 307.584 
L 414.72 307.584 
" style="fill:none;stroke:#000000;stroke-linecap:square;stroke-linejoin:miter;stroke-width:0.8;"/>
   </g>
   <g id="patch_6">
    <path d="M 57.6 41.472 
L 414.72 41.472 
" style="fill:none;stroke:#000000;stroke-linecap:square;stroke-linejoin:miter;stroke-width:0.8;"/>
   </g>
   <g id="legend_1">
    <g id="patch_7">
     <path d="M 303.845 78.82825 
L 407.72 78.82825 
Q 409.72 78.82825 409.72 76.82825 
L 409.72 48.472 
Q 409.72 46.472 407.72 46.472 
L 303.845 46.472 
Q 301.845 46.472 301.845 48.472 
L 301.845 76.82825 
Q 301.845 78.82825 303.845 78.82825 
z
" style="fill:#ffffff;opacity:0.8;stroke:#cccccc;stroke-linejoin:miter;"/>
    </g>
    <g id="line2d_18">
     <path d="M 305.845 54.570437 
L 325.845 54.570437 
" style="fill:none;stroke:#1f77b4;stroke-linecap:square;stroke-width:1.5;"/>
    </g>
    <g id="line2d_19"/>
    <g id="text_17">
     <!-- Train loss -->
     <g transform="translate(333.845 58.070437)scale(0.1 -0.1)">
      <defs>
       <path d="M -19 4666 
L 3928 4666 
L 3928 4134 
L 2272 4134 
L 2272 0 
L 1638 0 
L 1638 4134 
L -19 4134 
L -19 4666 
z
" id="DejaVuSans-54" transform="scale(0.015625)"/>
       <path d="M 2631 2963 
Q 2534 3019 2420 3045 
Q 2306 3072 2169 3072 
Q 1681 3072 1420 2755 
Q 1159 2438 1159 1844 
L 1159 0 
L 581 0 
L 581 3500 
L 1159 3500 
L 1159 2956 
Q 1341 3275 1631 3429 
Q 1922 3584 2338 3584 
Q 2397 3584 2469 3576 
Q 2541 3569 2628 3553 
L 2631 2963 
z
" id="DejaVuSans-72" transform="scale(0.015625)"/>
       <path d="M 2194 1759 
Q 1497 1759 1228 1600 
Q 959 1441 959 1056 
Q 959 750 1161 570 
Q 1363 391 1709 391 
Q 2188 391 2477 730 
Q 2766 1069 2766 1631 
L 2766 1759 
L 2194 1759 
z
M 3341 1997 
L 3341 0 
L 2766 0 
L 2766 531 
Q 2569 213 2275 61 
Q 1981 -91 1556 -91 
Q 1019 -91 701 211 
Q 384 513 384 1019 
Q 384 1609 779 1909 
Q 1175 2209 1959 2209 
L 2766 2209 
L 2766 2266 
Q 2766 2663 2505 2880 
Q 2244 3097 1772 3097 
Q 1472 3097 1187 3025 
Q 903 2953 641 2809 
L 641 3341 
Q 956 3463 1253 3523 
Q 1550 3584 1831 3584 
Q 2591 3584 2966 3190 
Q 3341 2797 3341 1997 
z
" id="DejaVuSans-61" transform="scale(0.015625)"/>
       <path d="M 603 3500 
L 1178 3500 
L 1178 0 
L 603 0 
L 603 3500 
z
M 603 4863 
L 1178 4863 
L 1178 4134 
L 603 4134 
L 603 4863 
z
" id="DejaVuSans-69" transform="scale(0.015625)"/>
       <path d="M 3513 2113 
L 3513 0 
L 2938 0 
L 2938 2094 
Q 2938 2591 2744 2837 
Q 2550 3084 2163 3084 
Q 1697 3084 1428 2787 
Q 1159 2491 1159 1978 
L 1159 0 
L 581 0 
L 581 3500 
L 1159 3500 
L 1159 2956 
Q 1366 3272 1645 3428 
Q 1925 3584 2291 3584 
Q 2894 3584 3203 3211 
Q 3513 2838 3513 2113 
z
" id="DejaVuSans-6e" transform="scale(0.015625)"/>
       <path id="DejaVuSans-20" transform="scale(0.015625)"/>
       <path d="M 603 4863 
L 1178 4863 
L 1178 0 
L 603 0 
L 603 4863 
z
" id="DejaVuSans-6c" transform="scale(0.015625)"/>
       <path d="M 2834 3397 
L 2834 2853 
Q 2591 2978 2328 3040 
Q 2066 3103 1784 3103 
Q 1356 3103 1142 2972 
Q 928 2841 928 2578 
Q 928 2378 1081 2264 
Q 1234 2150 1697 2047 
L 1894 2003 
Q 2506 1872 2764 1633 
Q 3022 1394 3022 966 
Q 3022 478 2636 193 
Q 2250 -91 1575 -91 
Q 1294 -91 989 -36 
Q 684 19 347 128 
L 347 722 
Q 666 556 975 473 
Q 1284 391 1588 391 
Q 1994 391 2212 530 
Q 2431 669 2431 922 
Q 2431 1156 2273 1281 
Q 2116 1406 1581 1522 
L 1381 1569 
Q 847 1681 609 1914 
Q 372 2147 372 2553 
Q 372 3047 722 3315 
Q 1072 3584 1716 3584 
Q 2034 3584 2315 3537 
Q 2597 3491 2834 3397 
z
" id="DejaVuSans-73" transform="scale(0.015625)"/>
      </defs>
      <use xlink:href="#DejaVuSans-54"/>
      <use x="46.333984" xlink:href="#DejaVuSans-72"/>
      <use x="87.447266" xlink:href="#DejaVuSans-61"/>
      <use x="148.726562" xlink:href="#DejaVuSans-69"/>
      <use x="176.509766" xlink:href="#DejaVuSans-6e"/>
      <use x="239.888672" xlink:href="#DejaVuSans-20"/>
      <use x="271.675781" xlink:href="#DejaVuSans-6c"/>
      <use x="299.458984" xlink:href="#DejaVuSans-6f"/>
      <use x="360.640625" xlink:href="#DejaVuSans-73"/>
      <use x="412.740234" xlink:href="#DejaVuSans-73"/>
     </g>
    </g>
    <g id="line2d_20">
     <path d="M 305.845 69.248562 
L 325.845 69.248562 
" style="fill:none;stroke:#ff7f0e;stroke-linecap:square;stroke-width:1.5;"/>
    </g>
    <g id="line2d_21"/>
    <g id="text_18">
     <!-- Validation loss -->
     <g transform="translate(333.845 72.748562)scale(0.1 -0.1)">
      <defs>
       <path d="M 1831 0 
L 50 4666 
L 709 4666 
L 2188 738 
L 3669 4666 
L 4325 4666 
L 2547 0 
L 1831 0 
z
" id="DejaVuSans-56" transform="scale(0.015625)"/>
       <path d="M 2906 2969 
L 2906 4863 
L 3481 4863 
L 3481 0 
L 2906 0 
L 2906 525 
Q 2725 213 2448 61 
Q 2172 -91 1784 -91 
Q 1150 -91 751 415 
Q 353 922 353 1747 
Q 353 2572 751 3078 
Q 1150 3584 1784 3584 
Q 2172 3584 2448 3432 
Q 2725 3281 2906 2969 
z
M 947 1747 
Q 947 1113 1208 752 
Q 1469 391 1925 391 
Q 2381 391 2643 752 
Q 2906 1113 2906 1747 
Q 2906 2381 2643 2742 
Q 2381 3103 1925 3103 
Q 1469 3103 1208 2742 
Q 947 2381 947 1747 
z
" id="DejaVuSans-64" transform="scale(0.015625)"/>
       <path d="M 1172 4494 
L 1172 3500 
L 2356 3500 
L 2356 3053 
L 1172 3053 
L 1172 1153 
Q 1172 725 1289 603 
Q 1406 481 1766 481 
L 2356 481 
L 2356 0 
L 1766 0 
Q 1100 0 847 248 
Q 594 497 594 1153 
L 594 3053 
L 172 3053 
L 172 3500 
L 594 3500 
L 594 4494 
L 1172 4494 
z
" id="DejaVuSans-74" transform="scale(0.015625)"/>
      </defs>
      <use xlink:href="#DejaVuSans-56"/>
      <use x="60.658203" xlink:href="#DejaVuSans-61"/>
      <use x="121.9375" xlink:href="#DejaVuSans-6c"/>
      <use x="149.720703" xlink:href="#DejaVuSans-69"/>
      <use x="177.503906" xlink:href="#DejaVuSans-64"/>
      <use x="240.980469" xlink:href="#DejaVuSans-61"/>
      <use x="302.259766" xlink:href="#DejaVuSans-74"/>
      <use x="341.46875" xlink:href="#DejaVuSans-69"/>
      <use x="369.251953" xlink:href="#DejaVuSans-6f"/>
      <use x="430.433594" xlink:href="#DejaVuSans-6e"/>
      <use x="493.8125" xlink:href="#DejaVuSans-20"/>
      <use x="525.599609" xlink:href="#DejaVuSans-6c"/>
      <use x="553.382812" xlink:href="#DejaVuSans-6f"/>
      <use x="614.564453" xlink:href="#DejaVuSans-73"/>
      <use x="666.664062" xlink:href="#DejaVuSans-73"/>
     </g>
    </g>
   </g>
  </g>
 </g>
 <defs>
  <clipPath id="p274e1ec98a">
   <rect height="266.112" width="357.12" x="57.6" y="41.472"/>
  </clipPath>
 </defs>
</svg>
