<?xml version="1.0" encoding="utf-8" standalone="no"?>
<!DOCTYPE svg PUBLIC "-//W3C//DTD SVG 1.1//EN"
  "http://www.w3.org/Graphics/SVG/1.1/DTD/svg11.dtd">
<svg height="345.6pt" version="1.1" viewBox="0 0 460.8 345.6" width="460.8pt" xmlns="http://www.w3.org/2000/svg" xmlns:xlink="http://www.w3.org/1999/xlink">
 <metadata>
  <rdf:RDF xmlns:cc="http://creativecommons.org/ns#" xmlns:dc="http://purl.org/dc/elements/1.1/" xmlns:rdf="http://www.w3.org/1999/02/22-rdf-syntax-ns#">
   <cc:Work>
    <dc:type rdf:resource="http://purl.org/dc/dcmitype/StillImage"/>
    <dc:date>2021-08-09T23:25:34.486202</dc:date>
    <dc:format>image/svg+xml</dc:format>
    <dc:creator>
     <cc:Agent>
      <dc:title>Matplotlib v3.4.2, https://matplotlib.org/</dc:title>
     </cc:Agent>
    </dc:creator>
   </cc:Work>
  </rdf:RDF>
 </metadata>
 <defs>
  <style type="text/css">*{stroke-linecap:butt;stroke-linejoin:round;}</style>
 </defs>
 <g id="figure_1">
  <g id="patch_1">
   <path d="M 0 345.6 
L 460.8 345.6 
L 460.8 0 
L 0 0 
z
" style="fill:#ffffff;"/>
  </g>
  <g id="axes_1">
   <g id="patch_2">
    <path d="M 57.6 307.584 
L 414.72 307.584 
L 414.72 41.472 
L 57.6 41.472 
z
" style="fill:#ffffff;"/>
   </g>
   <g id="matplotlib.axis_1">
    <g id="xtick_1">
     <g id="line2d_1">
      <defs>
       <path d="M 0 0 
L 0 3.5 
" id="m9866d16b42" style="stroke:#000000;stroke-width:0.8;"/>
      </defs>
      <g>
       <use style="stroke:#000000;stroke-width:0.8;" x="73.507748" xlink:href="#m9866d16b42" y="307.584"/>
      </g>
     </g>
     <g id="text_1">
      <!-- 0 -->
      <g transform="translate(70.326498 322.182437)scale(0.1 -0.1)">
       <defs>
        <path d="M 2034 4250 
Q 1547 4250 1301 3770 
Q 1056 3291 1056 2328 
Q 1056 1369 1301 889 
Q 1547 409 2034 409 
Q 2525 409 2770 889 
Q 3016 1369 3016 2328 
Q 3016 3291 2770 3770 
Q 2525 4250 2034 4250 
z
M 2034 4750 
Q 2819 4750 3233 4129 
Q 3647 3509 3647 2328 
Q 3647 1150 3233 529 
Q 2819 -91 2034 -91 
Q 1250 -91 836 529 
Q 422 1150 422 2328 
Q 422 3509 836 4129 
Q 1250 4750 2034 4750 
z
" id="DejaVuSans-30" transform="scale(0.015625)"/>
       </defs>
       <use xlink:href="#DejaVuSans-30"/>
      </g>
     </g>
    </g>
    <g id="xtick_2">
     <g id="line2d_2">
      <g>
       <use style="stroke:#000000;stroke-width:0.8;" x="138.503653" xlink:href="#m9866d16b42" y="307.584"/>
      </g>
     </g>
     <g id="text_2">
      <!-- 200 -->
      <g transform="translate(128.959903 322.182437)scale(0.1 -0.1)">
       <defs>
        <path d="M 1228 531 
L 3431 531 
L 3431 0 
L 469 0 
L 469 531 
Q 828 903 1448 1529 
Q 2069 2156 2228 2338 
Q 2531 2678 2651 2914 
Q 2772 3150 2772 3378 
Q 2772 3750 2511 3984 
Q 2250 4219 1831 4219 
Q 1534 4219 1204 4116 
Q 875 4013 500 3803 
L 500 4441 
Q 881 4594 1212 4672 
Q 1544 4750 1819 4750 
Q 2544 4750 2975 4387 
Q 3406 4025 3406 3419 
Q 3406 3131 3298 2873 
Q 3191 2616 2906 2266 
Q 2828 2175 2409 1742 
Q 1991 1309 1228 531 
z
" id="DejaVuSans-32" transform="scale(0.015625)"/>
       </defs>
       <use xlink:href="#DejaVuSans-32"/>
       <use x="63.623047" xlink:href="#DejaVuSans-30"/>
       <use x="127.246094" xlink:href="#DejaVuSans-30"/>
      </g>
     </g>
    </g>
    <g id="xtick_3">
     <g id="line2d_3">
      <g>
       <use style="stroke:#000000;stroke-width:0.8;" x="203.499558" xlink:href="#m9866d16b42" y="307.584"/>
      </g>
     </g>
     <g id="text_3">
      <!-- 400 -->
      <g transform="translate(193.955808 322.182437)scale(0.1 -0.1)">
       <defs>
        <path d="M 2419 4116 
L 825 1625 
L 2419 1625 
L 2419 4116 
z
M 2253 4666 
L 3047 4666 
L 3047 1625 
L 3713 1625 
L 3713 1100 
L 3047 1100 
L 3047 0 
L 2419 0 
L 2419 1100 
L 313 1100 
L 313 1709 
L 2253 4666 
z
" id="DejaVuSans-34" transform="scale(0.015625)"/>
       </defs>
       <use xlink:href="#DejaVuSans-34"/>
       <use x="63.623047" xlink:href="#DejaVuSans-30"/>
       <use x="127.246094" xlink:href="#DejaVuSans-30"/>
      </g>
     </g>
    </g>
    <g id="xtick_4">
     <g id="line2d_4">
      <g>
       <use style="stroke:#000000;stroke-width:0.8;" x="268.495463" xlink:href="#m9866d16b42" y="307.584"/>
      </g>
     </g>
     <g id="text_4">
      <!-- 600 -->
      <g transform="translate(258.951713 322.182437)scale(0.1 -0.1)">
       <defs>
        <path d="M 2113 2584 
Q 1688 2584 1439 2293 
Q 1191 2003 1191 1497 
Q 1191 994 1439 701 
Q 1688 409 2113 409 
Q 2538 409 2786 701 
Q 3034 994 3034 1497 
Q 3034 2003 2786 2293 
Q 2538 2584 2113 2584 
z
M 3366 4563 
L 3366 3988 
Q 3128 4100 2886 4159 
Q 2644 4219 2406 4219 
Q 1781 4219 1451 3797 
Q 1122 3375 1075 2522 
Q 1259 2794 1537 2939 
Q 1816 3084 2150 3084 
Q 2853 3084 3261 2657 
Q 3669 2231 3669 1497 
Q 3669 778 3244 343 
Q 2819 -91 2113 -91 
Q 1303 -91 875 529 
Q 447 1150 447 2328 
Q 447 3434 972 4092 
Q 1497 4750 2381 4750 
Q 2619 4750 2861 4703 
Q 3103 4656 3366 4563 
z
" id="DejaVuSans-36" transform="scale(0.015625)"/>
       </defs>
       <use xlink:href="#DejaVuSans-36"/>
       <use x="63.623047" xlink:href="#DejaVuSans-30"/>
       <use x="127.246094" xlink:href="#DejaVuSans-30"/>
      </g>
     </g>
    </g>
    <g id="xtick_5">
     <g id="line2d_5">
      <g>
       <use style="stroke:#000000;stroke-width:0.8;" x="333.491368" xlink:href="#m9866d16b42" y="307.584"/>
      </g>
     </g>
     <g id="text_5">
      <!-- 800 -->
      <g transform="translate(323.947618 322.182437)scale(0.1 -0.1)">
       <defs>
        <path d="M 2034 2216 
Q 1584 2216 1326 1975 
Q 1069 1734 1069 1313 
Q 1069 891 1326 650 
Q 1584 409 2034 409 
Q 2484 409 2743 651 
Q 3003 894 3003 1313 
Q 3003 1734 2745 1975 
Q 2488 2216 2034 2216 
z
M 1403 2484 
Q 997 2584 770 2862 
Q 544 3141 544 3541 
Q 544 4100 942 4425 
Q 1341 4750 2034 4750 
Q 2731 4750 3128 4425 
Q 3525 4100 3525 3541 
Q 3525 3141 3298 2862 
Q 3072 2584 2669 2484 
Q 3125 2378 3379 2068 
Q 3634 1759 3634 1313 
Q 3634 634 3220 271 
Q 2806 -91 2034 -91 
Q 1263 -91 848 271 
Q 434 634 434 1313 
Q 434 1759 690 2068 
Q 947 2378 1403 2484 
z
M 1172 3481 
Q 1172 3119 1398 2916 
Q 1625 2713 2034 2713 
Q 2441 2713 2670 2916 
Q 2900 3119 2900 3481 
Q 2900 3844 2670 4047 
Q 2441 4250 2034 4250 
Q 1625 4250 1398 4047 
Q 1172 3844 1172 3481 
z
" id="DejaVuSans-38" transform="scale(0.015625)"/>
       </defs>
       <use xlink:href="#DejaVuSans-38"/>
       <use x="63.623047" xlink:href="#DejaVuSans-30"/>
       <use x="127.246094" xlink:href="#DejaVuSans-30"/>
      </g>
     </g>
    </g>
    <g id="xtick_6">
     <g id="line2d_6">
      <g>
       <use style="stroke:#000000;stroke-width:0.8;" x="398.487273" xlink:href="#m9866d16b42" y="307.584"/>
      </g>
     </g>
     <g id="text_6">
      <!-- 1000 -->
      <g transform="translate(385.762273 322.182437)scale(0.1 -0.1)">
       <defs>
        <path d="M 794 531 
L 1825 531 
L 1825 4091 
L 703 3866 
L 703 4441 
L 1819 4666 
L 2450 4666 
L 2450 531 
L 3481 531 
L 3481 0 
L 794 0 
L 794 531 
z
" id="DejaVuSans-31" transform="scale(0.015625)"/>
       </defs>
       <use xlink:href="#DejaVuSans-31"/>
       <use x="63.623047" xlink:href="#DejaVuSans-30"/>
       <use x="127.246094" xlink:href="#DejaVuSans-30"/>
       <use x="190.869141" xlink:href="#DejaVuSans-30"/>
      </g>
     </g>
    </g>
    <g id="text_7">
     <!-- Epoch -->
     <g transform="translate(213.193594 339.659781)scale(0.15 -0.15)">
      <defs>
       <path d="M 628 4666 
L 3578 4666 
L 3578 4134 
L 1259 4134 
L 1259 2753 
L 3481 2753 
L 3481 2222 
L 1259 2222 
L 1259 531 
L 3634 531 
L 3634 0 
L 628 0 
L 628 4666 
z
" id="DejaVuSans-45" transform="scale(0.015625)"/>
       <path d="M 1159 525 
L 1159 -1331 
L 581 -1331 
L 581 3500 
L 1159 3500 
L 1159 2969 
Q 1341 3281 1617 3432 
Q 1894 3584 2278 3584 
Q 2916 3584 3314 3078 
Q 3713 2572 3713 1747 
Q 3713 922 3314 415 
Q 2916 -91 2278 -91 
Q 1894 -91 1617 61 
Q 1341 213 1159 525 
z
M 3116 1747 
Q 3116 2381 2855 2742 
Q 2594 3103 2138 3103 
Q 1681 3103 1420 2742 
Q 1159 2381 1159 1747 
Q 1159 1113 1420 752 
Q 1681 391 2138 391 
Q 2594 391 2855 752 
Q 3116 1113 3116 1747 
z
" id="DejaVuSans-70" transform="scale(0.015625)"/>
       <path d="M 1959 3097 
Q 1497 3097 1228 2736 
Q 959 2375 959 1747 
Q 959 1119 1226 758 
Q 1494 397 1959 397 
Q 2419 397 2687 759 
Q 2956 1122 2956 1747 
Q 2956 2369 2687 2733 
Q 2419 3097 1959 3097 
z
M 1959 3584 
Q 2709 3584 3137 3096 
Q 3566 2609 3566 1747 
Q 3566 888 3137 398 
Q 2709 -91 1959 -91 
Q 1206 -91 779 398 
Q 353 888 353 1747 
Q 353 2609 779 3096 
Q 1206 3584 1959 3584 
z
" id="DejaVuSans-6f" transform="scale(0.015625)"/>
       <path d="M 3122 3366 
L 3122 2828 
Q 2878 2963 2633 3030 
Q 2388 3097 2138 3097 
Q 1578 3097 1268 2742 
Q 959 2388 959 1747 
Q 959 1106 1268 751 
Q 1578 397 2138 397 
Q 2388 397 2633 464 
Q 2878 531 3122 666 
L 3122 134 
Q 2881 22 2623 -34 
Q 2366 -91 2075 -91 
Q 1284 -91 818 406 
Q 353 903 353 1747 
Q 353 2603 823 3093 
Q 1294 3584 2113 3584 
Q 2378 3584 2631 3529 
Q 2884 3475 3122 3366 
z
" id="DejaVuSans-63" transform="scale(0.015625)"/>
       <path d="M 3513 2113 
L 3513 0 
L 2938 0 
L 2938 2094 
Q 2938 2591 2744 2837 
Q 2550 3084 2163 3084 
Q 1697 3084 1428 2787 
Q 1159 2491 1159 1978 
L 1159 0 
L 581 0 
L 581 4863 
L 1159 4863 
L 1159 2956 
Q 1366 3272 1645 3428 
Q 1925 3584 2291 3584 
Q 2894 3584 3203 3211 
Q 3513 2838 3513 2113 
z
" id="DejaVuSans-68" transform="scale(0.015625)"/>
      </defs>
      <use xlink:href="#DejaVuSans-45"/>
      <use x="63.183594" xlink:href="#DejaVuSans-70"/>
      <use x="126.660156" xlink:href="#DejaVuSans-6f"/>
      <use x="187.841797" xlink:href="#DejaVuSans-63"/>
      <use x="242.822266" xlink:href="#DejaVuSans-68"/>
     </g>
    </g>
   </g>
   <g id="matplotlib.axis_2">
    <g id="ytick_1">
     <g id="line2d_7">
      <defs>
       <path d="M 0 0 
L -3.5 0 
" id="m0edc8207da" style="stroke:#000000;stroke-width:0.8;"/>
      </defs>
      <g>
       <use style="stroke:#000000;stroke-width:0.8;" x="57.6" xlink:href="#m0edc8207da" y="306.578428"/>
      </g>
     </g>
     <g id="text_8">
      <!-- −3500 -->
      <g transform="translate(16.770313 310.377647)scale(0.1 -0.1)">
       <defs>
        <path d="M 678 2272 
L 4684 2272 
L 4684 1741 
L 678 1741 
L 678 2272 
z
" id="DejaVuSans-2212" transform="scale(0.015625)"/>
        <path d="M 2597 2516 
Q 3050 2419 3304 2112 
Q 3559 1806 3559 1356 
Q 3559 666 3084 287 
Q 2609 -91 1734 -91 
Q 1441 -91 1130 -33 
Q 819 25 488 141 
L 488 750 
Q 750 597 1062 519 
Q 1375 441 1716 441 
Q 2309 441 2620 675 
Q 2931 909 2931 1356 
Q 2931 1769 2642 2001 
Q 2353 2234 1838 2234 
L 1294 2234 
L 1294 2753 
L 1863 2753 
Q 2328 2753 2575 2939 
Q 2822 3125 2822 3475 
Q 2822 3834 2567 4026 
Q 2313 4219 1838 4219 
Q 1578 4219 1281 4162 
Q 984 4106 628 3988 
L 628 4550 
Q 988 4650 1302 4700 
Q 1616 4750 1894 4750 
Q 2613 4750 3031 4423 
Q 3450 4097 3450 3541 
Q 3450 3153 3228 2886 
Q 3006 2619 2597 2516 
z
" id="DejaVuSans-33" transform="scale(0.015625)"/>
        <path d="M 691 4666 
L 3169 4666 
L 3169 4134 
L 1269 4134 
L 1269 2991 
Q 1406 3038 1543 3061 
Q 1681 3084 1819 3084 
Q 2600 3084 3056 2656 
Q 3513 2228 3513 1497 
Q 3513 744 3044 326 
Q 2575 -91 1722 -91 
Q 1428 -91 1123 -41 
Q 819 9 494 109 
L 494 744 
Q 775 591 1075 516 
Q 1375 441 1709 441 
Q 2250 441 2565 725 
Q 2881 1009 2881 1497 
Q 2881 1984 2565 2268 
Q 2250 2553 1709 2553 
Q 1456 2553 1204 2497 
Q 953 2441 691 2322 
L 691 4666 
z
" id="DejaVuSans-35" transform="scale(0.015625)"/>
       </defs>
       <use xlink:href="#DejaVuSans-2212"/>
       <use x="83.789062" xlink:href="#DejaVuSans-33"/>
       <use x="147.412109" xlink:href="#DejaVuSans-35"/>
       <use x="211.035156" xlink:href="#DejaVuSans-30"/>
       <use x="274.658203" xlink:href="#DejaVuSans-30"/>
      </g>
     </g>
    </g>
    <g id="ytick_2">
     <g id="line2d_8">
      <g>
       <use style="stroke:#000000;stroke-width:0.8;" x="57.6" xlink:href="#m0edc8207da" y="274.529489"/>
      </g>
     </g>
     <g id="text_9">
      <!-- −3000 -->
      <g transform="translate(16.770313 278.328707)scale(0.1 -0.1)">
       <use xlink:href="#DejaVuSans-2212"/>
       <use x="83.789062" xlink:href="#DejaVuSans-33"/>
       <use x="147.412109" xlink:href="#DejaVuSans-30"/>
       <use x="211.035156" xlink:href="#DejaVuSans-30"/>
       <use x="274.658203" xlink:href="#DejaVuSans-30"/>
      </g>
     </g>
    </g>
    <g id="ytick_3">
     <g id="line2d_9">
      <g>
       <use style="stroke:#000000;stroke-width:0.8;" x="57.6" xlink:href="#m0edc8207da" y="242.480549"/>
      </g>
     </g>
     <g id="text_10">
      <!-- −2500 -->
      <g transform="translate(16.770313 246.279768)scale(0.1 -0.1)">
       <use xlink:href="#DejaVuSans-2212"/>
       <use x="83.789062" xlink:href="#DejaVuSans-32"/>
       <use x="147.412109" xlink:href="#DejaVuSans-35"/>
       <use x="211.035156" xlink:href="#DejaVuSans-30"/>
       <use x="274.658203" xlink:href="#DejaVuSans-30"/>
      </g>
     </g>
    </g>
    <g id="ytick_4">
     <g id="line2d_10">
      <g>
       <use style="stroke:#000000;stroke-width:0.8;" x="57.6" xlink:href="#m0edc8207da" y="210.431609"/>
      </g>
     </g>
     <g id="text_11">
      <!-- −2000 -->
      <g transform="translate(16.770313 214.230828)scale(0.1 -0.1)">
       <use xlink:href="#DejaVuSans-2212"/>
       <use x="83.789062" xlink:href="#DejaVuSans-32"/>
       <use x="147.412109" xlink:href="#DejaVuSans-30"/>
       <use x="211.035156" xlink:href="#DejaVuSans-30"/>
       <use x="274.658203" xlink:href="#DejaVuSans-30"/>
      </g>
     </g>
    </g>
    <g id="ytick_5">
     <g id="line2d_11">
      <g>
       <use style="stroke:#000000;stroke-width:0.8;" x="57.6" xlink:href="#m0edc8207da" y="178.38267"/>
      </g>
     </g>
     <g id="text_12">
      <!-- −1500 -->
      <g transform="translate(16.770313 182.181888)scale(0.1 -0.1)">
       <use xlink:href="#DejaVuSans-2212"/>
       <use x="83.789062" xlink:href="#DejaVuSans-31"/>
       <use x="147.412109" xlink:href="#DejaVuSans-35"/>
       <use x="211.035156" xlink:href="#DejaVuSans-30"/>
       <use x="274.658203" xlink:href="#DejaVuSans-30"/>
      </g>
     </g>
    </g>
    <g id="ytick_6">
     <g id="line2d_12">
      <g>
       <use style="stroke:#000000;stroke-width:0.8;" x="57.6" xlink:href="#m0edc8207da" y="146.33373"/>
      </g>
     </g>
     <g id="text_13">
      <!-- −1000 -->
      <g transform="translate(16.770313 150.132949)scale(0.1 -0.1)">
       <use xlink:href="#DejaVuSans-2212"/>
       <use x="83.789062" xlink:href="#DejaVuSans-31"/>
       <use x="147.412109" xlink:href="#DejaVuSans-30"/>
       <use x="211.035156" xlink:href="#DejaVuSans-30"/>
       <use x="274.658203" xlink:href="#DejaVuSans-30"/>
      </g>
     </g>
    </g>
    <g id="ytick_7">
     <g id="line2d_13">
      <g>
       <use style="stroke:#000000;stroke-width:0.8;" x="57.6" xlink:href="#m0edc8207da" y="114.28479"/>
      </g>
     </g>
     <g id="text_14">
      <!-- −500 -->
      <g transform="translate(23.132812 118.084009)scale(0.1 -0.1)">
       <use xlink:href="#DejaVuSans-2212"/>
       <use x="83.789062" xlink:href="#DejaVuSans-35"/>
       <use x="147.412109" xlink:href="#DejaVuSans-30"/>
       <use x="211.035156" xlink:href="#DejaVuSans-30"/>
      </g>
     </g>
    </g>
    <g id="ytick_8">
     <g id="line2d_14">
      <g>
       <use style="stroke:#000000;stroke-width:0.8;" x="57.6" xlink:href="#m0edc8207da" y="82.235851"/>
      </g>
     </g>
     <g id="text_15">
      <!-- 0 -->
      <g transform="translate(44.2375 86.03507)scale(0.1 -0.1)">
       <use xlink:href="#DejaVuSans-30"/>
      </g>
     </g>
    </g>
    <g id="ytick_9">
     <g id="line2d_15">
      <g>
       <use style="stroke:#000000;stroke-width:0.8;" x="57.6" xlink:href="#m0edc8207da" y="50.186911"/>
      </g>
     </g>
     <g id="text_16">
      <!-- 500 -->
      <g transform="translate(31.5125 53.98613)scale(0.1 -0.1)">
       <use xlink:href="#DejaVuSans-35"/>
       <use x="63.623047" xlink:href="#DejaVuSans-30"/>
       <use x="127.246094" xlink:href="#DejaVuSans-30"/>
      </g>
     </g>
    </g>
   </g>
   <g id="line2d_16">
    <path clip-path="url(#pc9086196c2)" d="M 73.832727 53.568 
L 74.157707 89.416942 
L 74.807666 111.742089 
L 75.132645 116.456682 
L 75.457625 119.357368 
L 75.782604 126.483899 
L 76.107584 127.962776 
L 76.432563 132.665891 
L 76.757543 127.573057 
L 77.082523 134.227681 
L 77.407502 133.978255 
L 78.057461 138.303123 
L 78.382441 138.238744 
L 79.0324 139.294265 
L 79.357379 140.155654 
L 79.682359 142.8285 
L 80.007338 140.315566 
L 80.657297 142.478426 
L 80.982277 142.230957 
L 81.307256 146.905282 
L 81.632236 145.507857 
L 82.282195 150.702109 
L 82.607174 147.264788 
L 82.932154 147.109366 
L 83.257133 153.263446 
L 83.582113 152.862018 
L 83.907093 152.129291 
L 84.232072 153.102186 
L 84.557052 155.399674 
L 84.882031 154.949292 
L 85.207011 158.048403 
L 85.53199 158.605919 
L 85.85697 166.420384 
L 86.181949 165.706456 
L 86.506929 167.550654 
L 86.831908 168.735748 
L 87.156888 170.345511 
L 87.481867 170.68335 
L 87.806847 171.702089 
L 88.131826 168.453287 
L 88.456806 178.194832 
L 88.781785 173.221991 
L 89.106765 172.921655 
L 89.756724 178.228903 
L 90.081704 176.384762 
L 90.406683 173.048744 
L 90.731663 181.972825 
L 91.056642 176.121338 
L 91.381622 177.58151 
L 91.706601 186.132432 
L 92.031581 186.552725 
L 92.35656 181.996491 
L 92.68154 182.502796 
L 93.006519 176.922548 
L 93.331499 182.126701 
L 93.656478 184.818558 
L 94.306437 184.995155 
L 94.631417 183.984756 
L 94.956396 192.109735 
L 95.281376 190.220614 
L 95.606355 184.987219 
L 95.931335 186.736767 
L 96.256314 185.377505 
L 96.581294 186.947811 
L 96.906274 190.163266 
L 97.231253 187.781435 
L 97.556233 190.737169 
L 97.881212 190.44892 
L 98.206192 185.796531 
L 98.531171 195.810574 
L 98.856151 187.634341 
L 99.18113 190.312929 
L 99.831089 197.617611 
L 100.156069 195.804767 
L 100.481048 194.905509 
L 100.806028 195.770657 
L 101.131007 194.920151 
L 101.455987 195.612067 
L 101.780966 194.411381 
L 102.105946 200.70432 
L 102.430925 196.333591 
L 102.755905 206.49847 
L 103.080885 202.068597 
L 103.405864 201.763683 
L 103.730844 200.514771 
L 104.055823 198.035293 
L 104.705782 206.781192 
L 105.030762 203.696904 
L 105.355741 206.212163 
L 105.680721 202.875512 
L 106.0057 201.70663 
L 106.33068 207.511977 
L 106.655659 208.643155 
L 106.980639 202.697713 
L 107.630598 216.368965 
L 107.955577 213.548919 
L 108.280557 215.497567 
L 108.930516 206.128752 
L 109.255495 219.873314 
L 109.580475 213.352201 
L 109.905455 218.840951 
L 110.230434 212.942699 
L 110.555414 215.681621 
L 110.880393 215.0635 
L 111.205373 221.544984 
L 111.530352 213.992452 
L 111.855332 209.741328 
L 112.180311 213.233282 
L 112.505291 211.046987 
L 112.83027 213.636416 
L 113.15525 212.400772 
L 113.480229 214.311272 
L 113.805209 217.892811 
L 114.130188 219.677547 
L 114.455168 212.58246 
L 114.780147 213.675321 
L 115.105127 211.751623 
L 115.430106 212.837481 
L 116.080066 216.166487 
L 116.405045 215.574152 
L 116.730025 218.684577 
L 117.055004 215.760944 
L 117.379984 214.94888 
L 117.704963 218.102559 
L 118.029943 216.243275 
L 118.354922 221.431338 
L 118.679902 218.03775 
L 119.004881 218.719552 
L 119.329861 213.747848 
L 119.65484 219.166524 
L 119.97982 213.876167 
L 120.304799 219.639781 
L 120.954758 213.709234 
L 121.279738 216.703717 
L 121.604717 214.862344 
L 121.929697 210.264964 
L 122.254676 219.430026 
L 122.579656 215.76913 
L 122.904636 220.534559 
L 123.229615 223.621746 
L 123.554595 216.748417 
L 123.879574 217.316696 
L 124.204554 218.85027 
L 124.529533 225.914703 
L 124.854513 227.526945 
L 125.179492 215.599016 
L 125.504472 224.224053 
L 125.829451 223.981972 
L 126.154431 220.527147 
L 126.47941 219.894787 
L 126.80439 225.491301 
L 127.129369 219.332586 
L 127.454349 225.22795 
L 127.779328 225.611675 
L 128.104308 217.568205 
L 128.429287 225.069623 
L 128.754267 217.25583 
L 129.079247 230.979097 
L 129.404226 232.909092 
L 129.729206 227.190286 
L 130.054185 229.712777 
L 131.029124 221.106369 
L 131.679083 235.238109 
L 132.004062 234.235053 
L 132.329042 227.940078 
L 132.654021 229.468098 
L 132.979001 227.710804 
L 133.30398 228.719511 
L 133.62896 230.781318 
L 133.953939 235.444129 
L 134.278919 234.173048 
L 134.603898 228.93736 
L 134.928878 227.903412 
L 135.253857 233.867836 
L 135.578837 223.023269 
L 135.903817 236.553385 
L 136.228796 226.938073 
L 136.553776 236.231203 
L 136.878755 229.396736 
L 137.203735 232.016794 
L 137.528714 240.721803 
L 137.853694 242.206344 
L 138.503653 230.6343 
L 138.828632 232.802971 
L 139.478591 241.655693 
L 140.12855 235.822728 
L 140.45353 245.777569 
L 141.103489 234.628088 
L 141.428468 237.531093 
L 141.753448 237.35952 
L 142.078428 247.543017 
L 142.403407 234.586546 
L 142.728387 236.367795 
L 143.053366 239.64397 
L 143.378346 241.716223 
L 143.703325 230.799262 
L 144.028305 234.609082 
L 144.353284 250.22506 
L 144.678264 235.229062 
L 145.003243 248.723785 
L 145.328223 241.458739 
L 145.653202 249.443426 
L 146.303161 240.132687 
L 146.628141 238.766121 
L 146.95312 249.408823 
L 147.2781 238.757431 
L 147.603079 236.754742 
L 147.928059 250.294702 
L 148.253038 241.667252 
L 148.902998 243.63879 
L 149.227977 227.952521 
L 149.552957 239.292119 
L 150.202916 253.22999 
L 150.527895 243.022919 
L 150.852875 240.892764 
L 151.177854 237.679702 
L 151.502834 253.765871 
L 151.827813 248.45685 
L 152.152793 251.071639 
L 152.477772 249.619661 
L 152.802752 242.844861 
L 153.127731 246.87582 
L 153.452711 247.726215 
L 153.77769 257.422459 
L 154.10267 248.371329 
L 154.427649 247.598544 
L 154.752629 251.955685 
L 155.077609 250.473667 
L 155.402588 251.786136 
L 155.727568 237.332211 
L 156.052547 246.570287 
L 156.377527 248.199976 
L 156.702506 252.719245 
L 157.027486 246.087284 
L 157.352465 253.874231 
L 157.677445 245.699126 
L 158.002424 252.124265 
L 158.327404 244.993355 
L 158.652383 255.07375 
L 158.977363 250.842943 
L 159.302342 242.273658 
L 159.627322 251.310966 
L 159.952301 252.015539 
L 160.277281 246.863669 
L 160.60226 247.919312 
L 160.92724 247.412095 
L 161.252219 243.341392 
L 161.577199 244.265836 
L 161.902179 252.658476 
L 162.227158 255.280374 
L 162.552138 249.398352 
L 162.877117 251.549465 
L 163.202097 249.579894 
L 163.527076 251.418123 
L 163.852056 248.697902 
L 164.177035 250.682822 
L 164.502015 260.229919 
L 164.826994 247.550593 
L 165.151974 258.131385 
L 165.476953 247.886829 
L 165.801933 252.753955 
L 166.126912 242.067821 
L 166.451892 252.36685 
L 166.776871 249.183172 
L 167.101851 248.870695 
L 167.42683 240.335663 
L 167.75181 258.833514 
L 168.07679 250.453285 
L 168.401769 257.103819 
L 168.726749 253.818535 
L 169.051728 252.508867 
L 169.376708 264.788167 
L 170.026667 253.272021 
L 170.351646 259.591768 
L 170.676626 247.960283 
L 171.001605 258.622079 
L 171.651564 248.466784 
L 171.976544 251.273475 
L 172.301523 262.273237 
L 172.626503 261.227522 
L 172.951482 255.729299 
L 173.276462 253.945702 
L 173.601441 248.92624 
L 173.926421 254.534323 
L 174.2514 257.553517 
L 174.57638 252.113389 
L 174.90136 254.00774 
L 175.226339 265.037024 
L 175.551319 251.494517 
L 175.876298 250.772857 
L 176.201278 259.676785 
L 176.526257 259.429733 
L 176.851237 256.052772 
L 177.176216 257.373043 
L 177.501196 248.62598 
L 177.826175 246.313586 
L 178.476134 260.364176 
L 178.801114 252.543869 
L 179.126093 252.904865 
L 179.451073 258.558021 
L 179.776052 248.037105 
L 180.426011 262.874662 
L 180.750991 252.308341 
L 181.075971 257.271835 
L 181.40095 248.521767 
L 181.72593 254.886941 
L 182.050909 251.440762 
L 182.375889 263.883838 
L 182.700868 260.189453 
L 183.025848 260.979756 
L 183.350827 250.504364 
L 183.675807 250.803531 
L 184.000786 262.109572 
L 184.325766 249.752733 
L 184.650745 250.336712 
L 184.975725 258.679606 
L 185.300704 257.605192 
L 185.625684 258.66336 
L 185.950663 265.39646 
L 186.275643 258.029505 
L 186.600622 262.093292 
L 186.925602 256.308036 
L 187.250581 261.085436 
L 187.575561 258.176768 
L 188.22552 264.922096 
L 188.5505 250.697048 
L 188.875479 257.168716 
L 189.200459 267.352912 
L 189.525438 256.976687 
L 189.850418 263.830829 
L 190.500377 257.092383 
L 190.825356 250.717896 
L 191.150336 261.087964 
L 191.475315 255.710525 
L 191.800295 270.971001 
L 192.125274 261.004524 
L 192.450254 255.292583 
L 192.775233 267.98269 
L 193.100213 253.623145 
L 193.425192 265.407857 
L 193.750172 263.565063 
L 194.075152 260.752841 
L 194.400131 255.244154 
L 194.725111 265.016715 
L 195.05009 253.014929 
L 195.37507 269.082508 
L 195.700049 253.837617 
L 196.025029 262.667947 
L 196.350008 257.172636 
L 196.674988 270.300497 
L 196.999967 260.730161 
L 197.324947 261.475053 
L 197.649926 255.544104 
L 197.974906 260.000041 
L 198.299885 255.460396 
L 198.624865 249.121708 
L 198.949844 257.604969 
L 199.274824 255.360181 
L 199.599803 257.848942 
L 199.924783 264.060726 
L 200.249762 256.867747 
L 200.574742 257.731905 
L 200.899722 268.875892 
L 201.224701 257.832298 
L 201.549681 255.672088 
L 201.87466 261.646181 
L 202.19964 262.509955 
L 202.524619 261.430486 
L 202.849599 265.726644 
L 203.174578 248.807061 
L 203.499558 266.113265 
L 203.824537 256.035588 
L 204.149517 256.831457 
L 204.474496 253.726196 
L 204.799476 268.335591 
L 205.449435 263.483726 
L 205.774414 265.905007 
L 206.099394 261.458424 
L 206.424373 260.604763 
L 206.749353 257.336287 
L 207.074333 258.905364 
L 207.399312 258.930203 
L 207.724292 268.716807 
L 208.049271 266.775836 
L 208.374251 254.516153 
L 208.69923 261.184319 
L 209.02421 258.880982 
L 209.349189 265.089578 
L 209.674169 266.066886 
L 209.999148 263.133597 
L 210.324128 262.23536 
L 210.649107 273.621648 
L 211.299066 258.156526 
L 211.624046 265.106644 
L 211.949025 258.230948 
L 212.274005 263.925919 
L 212.598984 255.074045 
L 212.923964 266.852054 
L 213.248943 253.567095 
L 213.573923 264.06202 
L 213.898903 253.367946 
L 214.223882 267.810721 
L 214.548862 255.077858 
L 214.873841 264.804452 
L 215.198821 269.95015 
L 215.5238 263.322889 
L 215.84878 266.984398 
L 216.173759 262.823531 
L 216.498739 263.948035 
L 216.823718 265.572439 
L 217.148698 259.267021 
L 217.473677 264.345603 
L 217.798657 257.854959 
L 218.123636 259.353351 
L 218.448616 267.943346 
L 218.773595 261.586552 
L 219.098575 264.726863 
L 219.423554 260.561442 
L 219.748534 265.408948 
L 220.073514 264.333755 
L 220.398493 266.465355 
L 220.723473 262.945159 
L 221.048452 265.667479 
L 221.373432 255.435011 
L 221.698411 270.966557 
L 222.023391 262.225835 
L 222.34837 265.479038 
L 222.67335 264.499124 
L 222.998329 268.470701 
L 223.323309 264.944986 
L 223.973268 254.312467 
L 224.298247 272.039128 
L 224.623227 274.01548 
L 224.948206 255.131021 
L 225.273186 265.540783 
L 225.598165 270.790645 
L 225.923145 259.48108 
L 226.248124 267.146183 
L 226.573104 268.70973 
L 226.898084 267.588953 
L 227.223063 242.87807 
L 227.873022 274.490732 
L 228.198002 261.455312 
L 228.522981 258.563981 
L 229.17294 271.601404 
L 229.49792 266.81793 
L 229.822899 268.242328 
L 230.147879 260.972883 
L 230.472858 263.456111 
L 230.797838 253.549053 
L 231.122817 270.334417 
L 231.447797 262.310009 
L 231.772776 262.957546 
L 232.422735 269.723813 
L 232.747715 264.587375 
L 233.072695 271.317405 
L 233.397674 268.929276 
L 233.722654 263.95455 
L 234.047633 264.099422 
L 234.372613 254.310274 
L 234.697592 266.108525 
L 235.022572 272.886555 
L 235.347551 259.538247 
L 235.672531 266.281191 
L 235.99751 261.604387 
L 236.647469 269.147028 
L 236.972449 268.091703 
L 237.297428 253.837992 
L 237.622408 268.283291 
L 237.947387 270.349638 
L 238.272367 261.619144 
L 238.597346 261.885388 
L 238.922326 263.63624 
L 239.247305 253.774046 
L 239.572285 265.791388 
L 239.897265 270.637086 
L 240.222244 259.751105 
L 240.547224 274.059745 
L 241.197183 265.656488 
L 241.522162 267.883965 
L 241.847142 267.39585 
L 242.172121 273.993679 
L 242.497101 263.073728 
L 242.82208 268.594736 
L 243.14706 256.473599 
L 243.472039 277.101472 
L 243.797019 259.860308 
L 244.121998 260.834291 
L 244.771957 264.334557 
L 245.096937 260.513744 
L 245.421916 270.506906 
L 245.746896 256.297753 
L 246.071876 259.604048 
L 246.396855 268.146411 
L 246.721835 265.284615 
L 247.046814 268.016591 
L 247.371794 264.884638 
L 247.696773 270.501777 
L 248.021753 260.949971 
L 248.346732 260.039138 
L 248.671712 266.13288 
L 248.996691 255.625789 
L 249.321671 268.625741 
L 249.64665 271.822156 
L 249.97163 271.536275 
L 250.296609 264.219563 
L 250.621589 270.943478 
L 250.946568 263.547527 
L 251.271548 265.250591 
L 251.596527 262.321672 
L 251.921507 268.468023 
L 252.246486 259.11601 
L 252.571466 270.064663 
L 252.896446 269.561987 
L 253.221425 269.505434 
L 253.546405 255.645581 
L 253.871384 264.700333 
L 254.521343 269.33826 
L 254.846323 266.549738 
L 255.171302 268.520769 
L 255.496282 264.685561 
L 255.821261 267.078413 
L 256.146241 270.717786 
L 256.47122 269.233749 
L 256.7962 266.188879 
L 257.446159 265.342387 
L 257.771138 253.030154 
L 258.096118 266.191126 
L 258.421097 262.308505 
L 258.746077 268.420385 
L 259.071057 263.337983 
L 259.396036 268.412754 
L 259.721016 267.493093 
L 260.045995 259.717123 
L 260.370975 262.051631 
L 261.020934 273.396612 
L 261.345913 269.254141 
L 261.670893 270.557999 
L 261.995872 264.336159 
L 262.320852 277.718035 
L 262.645831 261.367144 
L 262.970811 253.256356 
L 263.29579 271.130738 
L 263.62077 266.971851 
L 263.945749 274.067585 
L 264.270729 263.47099 
L 264.595708 273.04055 
L 264.920688 259.238392 
L 265.245667 274.296006 
L 265.570647 263.774087 
L 265.895627 269.674471 
L 266.220606 269.44248 
L 266.545586 266.454329 
L 266.870565 271.051888 
L 267.195545 266.633926 
L 267.520524 274.333655 
L 267.845504 256.861344 
L 268.170483 259.992335 
L 268.495463 269.92738 
L 268.820442 260.854147 
L 269.145422 263.581887 
L 269.470401 267.578622 
L 269.795381 260.597317 
L 270.12036 273.859715 
L 270.44534 270.80836 
L 270.770319 266.478402 
L 271.095299 277.370023 
L 271.420278 264.923236 
L 271.745258 276.624861 
L 272.070238 259.239822 
L 272.395217 266.112612 
L 272.720197 266.117042 
L 273.045176 258.003409 
L 273.370156 276.026973 
L 274.020115 265.67817 
L 274.345094 268.899366 
L 274.670074 270.845251 
L 274.995053 263.275921 
L 275.320033 261.099688 
L 275.645012 272.55919 
L 275.969992 266.184255 
L 276.619951 271.003839 
L 276.94493 268.183935 
L 277.26991 263.413058 
L 277.594889 263.111043 
L 277.919869 262.577363 
L 278.244848 258.639435 
L 278.569828 271.550176 
L 278.894808 274.716017 
L 279.219787 270.701044 
L 279.544767 272.680039 
L 279.869746 262.836655 
L 280.194726 268.663261 
L 280.519705 266.631464 
L 280.844685 268.276597 
L 281.169664 264.000484 
L 281.494644 269.473605 
L 281.819623 267.844297 
L 282.144603 258.20513 
L 282.469582 266.270866 
L 282.794562 266.157799 
L 283.119541 268.369027 
L 283.444521 263.265716 
L 283.7695 273.632135 
L 284.09448 271.392656 
L 284.419459 274.020503 
L 284.744439 265.889755 
L 285.069419 270.581221 
L 285.394398 261.922389 
L 285.719378 273.142 
L 286.044357 265.28615 
L 286.369337 267.780479 
L 286.694316 273.60168 
L 287.019296 265.060997 
L 287.344275 261.217923 
L 287.669255 278.405223 
L 287.994234 268.225092 
L 288.319214 269.693155 
L 288.644193 262.806647 
L 288.969173 271.121772 
L 289.294152 261.214394 
L 289.619132 268.877864 
L 289.944111 266.436397 
L 290.269091 270.871038 
L 290.59407 266.969026 
L 290.91905 269.214908 
L 291.244029 266.668588 
L 291.569009 271.407208 
L 291.893989 271.285079 
L 292.218968 259.752406 
L 292.868927 280.860417 
L 293.193907 262.287485 
L 293.518886 277.486515 
L 293.843866 252.890564 
L 294.168845 266.179225 
L 294.493825 270.95981 
L 294.818804 264.094999 
L 295.143784 277.034789 
L 295.468763 263.984179 
L 295.793743 260.40236 
L 296.118722 268.956334 
L 296.443702 266.253831 
L 296.768681 264.686243 
L 297.093661 271.507492 
L 297.41864 256.055257 
L 297.74362 265.735274 
L 298.0686 264.28143 
L 298.393579 264.660649 
L 298.718559 267.906689 
L 299.043538 273.914122 
L 299.368518 271.038495 
L 299.693497 263.951911 
L 300.018477 266.288292 
L 300.343456 258.6724 
L 300.668436 271.131793 
L 300.993415 267.166487 
L 301.318395 271.70052 
L 301.643374 272.692572 
L 301.968354 269.85346 
L 302.293333 271.719784 
L 302.618313 262.697185 
L 302.943292 266.113259 
L 303.268272 273.540007 
L 303.593251 266.624165 
L 303.918231 270.685897 
L 304.24321 261.305036 
L 304.56819 271.206746 
L 304.89317 266.822975 
L 305.218149 259.078271 
L 305.868108 279.883462 
L 306.193088 262.361873 
L 306.518067 273.476633 
L 306.843047 268.67328 
L 307.817985 261.966909 
L 308.467944 286.058479 
L 308.792924 272.576765 
L 309.442883 261.546373 
L 309.767862 268.820641 
L 310.092842 278.678354 
L 310.742801 261.49837 
L 311.067781 270.880031 
L 311.39276 269.185341 
L 311.71774 272.19584 
L 312.042719 270.385332 
L 312.367699 279.860183 
L 312.692678 274.962169 
L 313.017658 273.694709 
L 313.342637 273.330617 
L 313.667617 270.349447 
L 313.992596 271.059963 
L 314.317576 263.141637 
L 314.642555 269.83995 
L 314.967535 263.660564 
L 315.292514 262.715929 
L 315.617494 270.236033 
L 315.942473 259.664972 
L 316.267453 256.988831 
L 316.592432 267.095691 
L 316.917412 270.05027 
L 317.242391 271.621489 
L 317.567371 277.213578 
L 317.892351 270.093971 
L 318.21733 265.747978 
L 318.54231 275.161994 
L 318.867289 276.323745 
L 319.192269 270.626511 
L 319.517248 270.605741 
L 319.842228 265.090489 
L 320.167207 269.953753 
L 320.492187 261.641326 
L 320.817166 273.327492 
L 321.142146 272.643196 
L 321.467125 261.832162 
L 321.792105 260.922348 
L 322.442064 270.434379 
L 322.767043 266.90059 
L 323.092023 274.568983 
L 323.417002 270.90034 
L 323.741982 278.677669 
L 324.066962 263.556489 
L 324.391941 275.15188 
L 324.716921 282.267818 
L 325.0419 267.751123 
L 325.36688 274.7451 
L 325.691859 272.934665 
L 326.016839 273.509843 
L 326.341818 277.793051 
L 326.666798 261.925849 
L 326.991777 273.888943 
L 327.316757 271.671597 
L 327.641736 265.661022 
L 327.966716 272.146754 
L 328.291695 270.545576 
L 328.616675 281.323611 
L 328.941654 268.053609 
L 329.266634 273.949506 
L 329.591613 267.06015 
L 329.916593 272.020382 
L 330.241572 271.400988 
L 330.566552 262.917032 
L 330.891532 274.585731 
L 331.216511 269.790881 
L 331.541491 269.523799 
L 331.86647 270.101001 
L 332.19145 275.407965 
L 332.516429 271.277307 
L 332.841409 270.093867 
L 333.166388 265.501426 
L 333.491368 274.449358 
L 333.816347 270.742461 
L 334.141327 259.86116 
L 334.466306 273.253669 
L 334.791286 269.841671 
L 335.116265 267.744303 
L 335.441245 269.638426 
L 335.766224 278.22188 
L 336.091204 272.440724 
L 336.416183 261.906886 
L 336.741163 271.306913 
L 337.391122 266.181474 
L 337.716102 277.822258 
L 338.366061 259.705429 
L 338.69104 271.322229 
L 339.01602 258.384492 
L 339.340999 267.416263 
L 339.665979 268.502079 
L 339.990958 267.871239 
L 340.315938 265.717414 
L 340.640917 272.627071 
L 340.965897 265.951332 
L 341.290876 268.546034 
L 341.615856 272.322474 
L 341.940835 272.814507 
L 342.265815 268.688766 
L 342.590794 279.836772 
L 342.915774 275.876319 
L 343.240753 262.969068 
L 343.890713 281.460649 
L 344.215692 270.410535 
L 344.540672 271.479698 
L 344.865651 271.729632 
L 345.190631 262.685878 
L 345.51561 264.262037 
L 346.165569 274.519105 
L 346.490549 276.299534 
L 346.815528 275.109599 
L 347.140508 278.8435 
L 347.465487 277.642785 
L 347.790467 270.44931 
L 348.115446 270.308485 
L 348.440426 271.299107 
L 348.765405 273.613133 
L 349.090385 265.457978 
L 349.415364 265.808211 
L 349.740344 275.879727 
L 350.390303 268.359109 
L 350.715283 269.903191 
L 351.040262 269.838511 
L 351.365242 273.848628 
L 351.690221 275.114064 
L 352.015201 265.007663 
L 352.34018 277.538914 
L 352.66516 262.479099 
L 352.990139 279.197525 
L 353.315119 264.607076 
L 353.640098 273.20115 
L 353.965078 263.059999 
L 354.615037 277.679593 
L 354.940016 273.009906 
L 355.264996 265.580137 
L 355.589975 277.49452 
L 355.914955 267.478754 
L 356.239934 280.125649 
L 356.564914 272.800798 
L 356.889894 276.982049 
L 357.214873 263.541192 
L 357.539853 269.620994 
L 357.864832 283.720989 
L 358.189812 268.813871 
L 358.514791 278.930088 
L 358.839771 276.673045 
L 359.48973 264.707088 
L 359.814709 275.721948 
L 360.139689 269.978666 
L 360.464668 274.169068 
L 360.789648 273.460973 
L 361.114627 283.389652 
L 361.439607 270.233676 
L 361.764586 276.297232 
L 362.089566 279.735117 
L 362.414545 271.964577 
L 362.739525 268.692603 
L 363.064505 266.582126 
L 363.389484 269.902293 
L 364.039443 261.154131 
L 364.364423 272.130926 
L 364.689402 272.57969 
L 365.014382 278.353652 
L 365.339361 275.090958 
L 365.664341 278.52679 
L 365.98932 258.58446 
L 366.3143 263.221543 
L 366.639279 278.613657 
L 366.964259 266.179893 
L 367.289238 268.862838 
L 367.614218 277.053741 
L 367.939197 271.214574 
L 368.264177 267.691126 
L 368.589156 275.792406 
L 368.914136 269.270383 
L 369.239115 266.042382 
L 369.564095 280.27347 
L 369.889075 270.975773 
L 370.214054 276.928791 
L 370.539034 280.842543 
L 370.864013 264.860926 
L 371.188993 267.668926 
L 371.513972 275.978565 
L 371.838952 265.808866 
L 372.163931 275.108193 
L 372.488911 274.669017 
L 372.81389 272.285173 
L 373.13887 266.475347 
L 373.463849 282.167893 
L 373.788829 272.386977 
L 374.113808 268.823674 
L 374.438788 266.491243 
L 374.763767 265.807389 
L 375.088747 267.617055 
L 375.413726 264.388998 
L 375.738706 279.140277 
L 376.063686 276.353583 
L 376.388665 276.962536 
L 376.713645 276.133953 
L 377.038624 282.171859 
L 377.363604 267.167536 
L 377.688583 271.508397 
L 378.013563 273.164109 
L 378.338542 275.615372 
L 378.663522 269.231869 
L 378.988501 273.980265 
L 379.96344 263.214995 
L 380.288419 275.486974 
L 380.613399 271.716988 
L 380.938378 271.750471 
L 381.263358 269.474692 
L 381.588337 271.801375 
L 381.913317 271.756479 
L 382.238296 275.30626 
L 382.563276 273.253825 
L 382.888256 272.750501 
L 383.213235 267.137027 
L 383.538215 269.715963 
L 383.863194 262.62685 
L 384.188174 274.247735 
L 384.513153 270.030419 
L 384.838133 274.078408 
L 385.163112 272.831664 
L 385.488092 278.15228 
L 385.813071 270.60741 
L 386.138051 269.942326 
L 386.46303 263.199652 
L 386.78801 271.583456 
L 387.112989 267.584431 
L 387.437969 279.369175 
L 387.762948 265.806176 
L 388.087928 278.668918 
L 388.412907 271.996116 
L 388.737887 270.954701 
L 389.062867 272.532512 
L 389.387846 277.583152 
L 389.712826 280.753257 
L 390.037805 271.156083 
L 390.362785 266.694945 
L 390.687764 277.813413 
L 391.012744 267.168263 
L 391.337723 280.295901 
L 391.662703 273.393103 
L 391.987682 277.317963 
L 392.312662 270.61867 
L 392.962621 281.005802 
L 393.2876 265.366467 
L 393.61258 264.903891 
L 393.937559 273.391087 
L 394.262539 274.159116 
L 394.587518 267.670573 
L 394.912498 269.034103 
L 395.237477 275.162602 
L 395.562457 273.203525 
L 395.887437 267.263521 
L 396.537396 268.941208 
L 396.862375 272.802537 
L 397.187355 279.85685 
L 397.512334 264.532436 
L 397.837314 276.794508 
L 398.162293 270.727443 
L 398.487273 281.982198 
L 398.487273 281.982198 
" style="fill:none;stroke:#1f77b4;stroke-linecap:square;stroke-width:1.5;"/>
   </g>
   <g id="line2d_17">
    <path clip-path="url(#pc9086196c2)" d="M 73.832727 76.351312 
L 74.482686 108.778159 
L 75.132645 119.845949 
L 75.457625 128.993488 
L 75.782604 125.496291 
L 76.107584 117.343186 
L 76.432563 135.418433 
L 76.757543 129.702828 
L 77.082523 128.6789 
L 77.407502 135.181112 
L 77.732482 128.571834 
L 78.057461 141.376637 
L 78.382441 132.148134 
L 78.70742 138.494093 
L 79.357379 141.510778 
L 79.682359 139.912759 
L 80.332318 144.730922 
L 80.657297 145.655875 
L 80.982277 143.839989 
L 81.307256 145.108187 
L 81.632236 148.474042 
L 81.957215 148.856994 
L 82.282195 142.977308 
L 82.607174 142.975285 
L 82.932154 147.927156 
L 83.257133 155.730785 
L 83.582113 150.01329 
L 83.907093 154.697488 
L 84.232072 152.752907 
L 84.557052 161.564086 
L 84.882031 158.5097 
L 85.207011 167.796395 
L 85.53199 173.854058 
L 85.85697 138.462928 
L 86.181949 175.450558 
L 86.506929 159.30048 
L 86.831908 155.215824 
L 87.156888 173.314674 
L 87.806847 167.330457 
L 88.131826 175.019368 
L 88.456806 164.633341 
L 88.781785 172.871064 
L 89.106765 178.155728 
L 89.431744 187.436463 
L 89.756724 172.14027 
L 90.081704 181.229193 
L 90.406683 180.646198 
L 90.731663 180.953319 
L 91.056642 182.241459 
L 91.381622 186.331746 
L 91.706601 177.705624 
L 92.031581 183.771602 
L 92.35656 171.714646 
L 92.68154 178.908287 
L 93.006519 180.848456 
L 93.331499 180.562925 
L 93.656478 170.957985 
L 93.981458 184.64026 
L 94.306437 193.018259 
L 94.631417 184.746804 
L 94.956396 180.634445 
L 95.606355 195.556982 
L 95.931335 188.214258 
L 96.256314 187.833357 
L 96.581294 198.893587 
L 96.906274 194.432868 
L 97.231253 187.777629 
L 97.556233 184.854578 
L 97.881212 198.557184 
L 98.206192 182.971728 
L 98.531171 192.840214 
L 98.856151 196.113803 
L 99.18113 186.753634 
L 99.50611 196.714424 
L 99.831089 197.377365 
L 100.156069 192.240769 
L 100.481048 198.183017 
L 100.806028 208.346018 
L 101.131007 191.520993 
L 101.455987 185.571812 
L 101.780966 191.089995 
L 102.105946 187.129295 
L 102.430925 206.014117 
L 102.755905 206.441335 
L 103.080885 196.247961 
L 103.405864 198.023764 
L 103.730844 204.236588 
L 104.055823 204.774892 
L 104.380803 206.82852 
L 105.030762 192.402317 
L 105.680721 211.459605 
L 106.0057 207.953031 
L 106.33068 210.699863 
L 106.655659 209.443042 
L 106.980639 214.59722 
L 107.305618 229.500387 
L 107.630598 211.365229 
L 107.955577 212.692856 
L 108.280557 213.40356 
L 108.605536 210.185778 
L 108.930516 212.634488 
L 109.255495 205.88771 
L 109.580475 208.802876 
L 109.905455 209.693151 
L 110.230434 212.535526 
L 110.555414 223.227722 
L 110.880393 206.909874 
L 111.205373 207.755345 
L 111.530352 218.954459 
L 111.855332 221.205041 
L 112.180311 208.831109 
L 112.505291 214.725681 
L 112.83027 222.643372 
L 113.15525 214.901669 
L 113.480229 211.531929 
L 113.805209 214.411882 
L 114.130188 209.411924 
L 114.455168 207.571597 
L 114.780147 208.195581 
L 115.105127 209.891994 
L 115.430106 221.498721 
L 115.755086 213.066416 
L 116.080066 215.330057 
L 116.405045 209.444758 
L 116.730025 227.98119 
L 117.055004 214.005609 
L 117.379984 215.948816 
L 117.704963 216.423948 
L 118.029943 210.413308 
L 118.354922 218.253207 
L 118.679902 214.466627 
L 119.004881 206.37556 
L 119.329861 215.584948 
L 119.65484 199.063656 
L 119.97982 217.523482 
L 120.304799 203.403912 
L 120.629779 218.595515 
L 120.954758 218.020872 
L 121.279738 223.666657 
L 121.604717 208.362995 
L 121.929697 203.110512 
L 122.254676 218.591204 
L 122.579656 204.172298 
L 122.904636 220.928297 
L 123.229615 223.886041 
L 123.554595 217.775024 
L 123.879574 224.875524 
L 124.204554 214.087601 
L 124.529533 227.276303 
L 124.854513 216.135088 
L 125.179492 224.229701 
L 125.504472 219.562637 
L 125.829451 219.173407 
L 126.154431 216.50533 
L 126.47941 220.032687 
L 126.80439 214.222022 
L 127.129369 223.394906 
L 127.454349 229.225055 
L 127.779328 228.930132 
L 128.104308 231.140711 
L 128.429287 215.942177 
L 128.754267 219.375411 
L 129.079247 209.696635 
L 129.404226 228.083008 
L 129.729206 235.018175 
L 130.054185 225.867472 
L 130.704144 233.181615 
L 131.029124 220.50227 
L 131.354103 239.935485 
L 131.679083 244.206672 
L 132.004062 221.092579 
L 132.329042 221.276969 
L 132.654021 231.229845 
L 132.979001 227.075875 
L 133.30398 220.553172 
L 133.62896 239.830242 
L 133.953939 242.414395 
L 134.278919 239.126958 
L 134.603898 220.728902 
L 134.928878 223.984356 
L 135.578837 241.371006 
L 135.903817 231.093431 
L 136.228796 240.625887 
L 136.878755 223.783144 
L 137.203735 231.429404 
L 137.528714 248.282052 
L 137.853694 237.350794 
L 138.178673 236.743093 
L 138.503653 224.189501 
L 138.828632 237.029696 
L 139.153612 234.860849 
L 139.478591 236.618275 
L 139.803571 222.279695 
L 140.12855 219.182175 
L 140.45353 239.849576 
L 140.778509 243.579643 
L 141.103489 244.917293 
L 141.428468 251.948518 
L 141.753448 249.6526 
L 142.078428 257.842628 
L 142.403407 248.161174 
L 142.728387 234.904662 
L 143.053366 231.556371 
L 143.378346 243.423977 
L 143.703325 249.663582 
L 144.028305 231.163263 
L 144.353284 238.466926 
L 144.678264 235.35858 
L 145.003243 238.014933 
L 145.328223 241.930295 
L 145.653202 241.50797 
L 145.978182 255.726958 
L 146.303161 232.206128 
L 146.628141 232.157655 
L 146.95312 242.55005 
L 147.603079 251.416329 
L 147.928059 239.250789 
L 148.253038 246.668859 
L 148.902998 238.495009 
L 149.227977 232.686428 
L 149.552957 238.408535 
L 149.877936 253.093387 
L 150.202916 256.223072 
L 150.527895 236.646699 
L 150.852875 245.800728 
L 151.177854 236.586874 
L 151.502834 242.775899 
L 151.827813 258.246406 
L 152.152793 253.967694 
L 152.477772 248.069541 
L 152.802752 251.408667 
L 153.127731 261.290521 
L 153.452711 249.89069 
L 153.77769 258.364558 
L 154.10267 247.750683 
L 154.427649 242.866345 
L 154.752629 250.54401 
L 155.077609 253.083217 
L 155.402588 265.627529 
L 155.727568 250.1373 
L 156.377527 242.982261 
L 156.702506 261.772935 
L 157.352465 249.594093 
L 157.677445 251.458756 
L 158.002424 261.291478 
L 158.327404 258.61575 
L 158.652383 252.066146 
L 158.977363 248.553095 
L 159.302342 255.465242 
L 159.952301 241.83747 
L 160.277281 252.898466 
L 160.60226 257.249751 
L 160.92724 203.952752 
L 161.252219 265.239851 
L 161.577199 256.611042 
L 161.902179 262.04997 
L 162.227158 254.419649 
L 162.552138 239.533985 
L 162.877117 261.347402 
L 163.202097 268.930866 
L 163.527076 262.287401 
L 163.852056 248.186621 
L 164.177035 258.058625 
L 164.502015 257.568649 
L 164.826994 245.66035 
L 165.151974 255.381679 
L 165.476953 261.693856 
L 165.801933 265.500098 
L 166.126912 255.769578 
L 166.776871 257.77789 
L 167.101851 124.826808 
L 167.42683 251.92915 
L 167.75181 263.482606 
L 168.07679 253.363126 
L 168.401769 250.072651 
L 168.726749 234.900341 
L 169.051728 251.564605 
L 169.376708 256.510323 
L 169.701687 254.059869 
L 170.026667 240.091644 
L 170.351646 258.79836 
L 170.676626 252.784125 
L 171.001605 250.211409 
L 171.326585 244.590461 
L 171.651564 260.23694 
L 171.976544 262.526322 
L 172.301523 261.639505 
L 172.626503 249.603215 
L 172.951482 254.360775 
L 173.276462 246.091199 
L 173.601441 261.905007 
L 173.926421 260.832232 
L 174.2514 257.384968 
L 174.57638 263.962396 
L 174.90136 259.466092 
L 175.226339 244.029162 
L 175.551319 264.014163 
L 175.876298 245.490384 
L 176.201278 253.546514 
L 176.526257 255.484896 
L 176.851237 249.607477 
L 177.176216 247.644681 
L 177.501196 262.857821 
L 177.826175 253.806632 
L 178.151155 254.308927 
L 178.476134 260.712587 
L 178.801114 262.388933 
L 179.126093 264.870429 
L 179.451073 250.36928 
L 179.776052 248.587298 
L 180.426011 263.369539 
L 180.750991 258.877485 
L 181.075971 252.761152 
L 181.40095 267.513434 
L 181.72593 225.814308 
L 182.050909 261.027102 
L 182.375889 262.293164 
L 182.700868 252.256141 
L 183.025848 232.376776 
L 183.350827 261.721061 
L 183.675807 251.796 
L 184.000786 255.263693 
L 184.325766 250.190848 
L 184.650745 259.657046 
L 184.975725 276.048193 
L 185.300704 256.768387 
L 185.625684 269.828664 
L 186.600622 238.632985 
L 186.925602 264.372889 
L 187.250581 268.083641 
L 187.575561 269.659075 
L 188.22552 258.874786 
L 188.5505 268.638747 
L 188.875479 260.270952 
L 189.200459 257.058891 
L 189.525438 250.992234 
L 189.850418 263.401871 
L 190.175397 257.873208 
L 190.500377 260.448151 
L 190.825356 278.825592 
L 191.150336 252.928811 
L 191.475315 267.751846 
L 191.800295 268.05513 
L 192.125274 267.524442 
L 192.450254 245.898139 
L 192.775233 269.881961 
L 193.100213 243.709466 
L 193.425192 256.485987 
L 193.750172 256.030318 
L 194.075152 255.790991 
L 194.400131 264.223741 
L 194.725111 258.881994 
L 195.05009 261.223793 
L 195.37507 262.482776 
L 195.700049 260.100477 
L 196.025029 280.10493 
L 196.350008 258.551529 
L 196.674988 250.488014 
L 196.999967 271.447025 
L 197.324947 253.840435 
L 197.649926 259.008719 
L 197.974906 266.028499 
L 198.299885 247.364652 
L 198.624865 245.701144 
L 198.949844 271.158808 
L 199.274824 263.102357 
L 199.599803 273.078246 
L 199.924783 269.378683 
L 200.249762 261.341359 
L 200.574742 258.899052 
L 200.899722 263.47025 
L 201.224701 256.479346 
L 201.549681 263.017013 
L 201.87466 255.382011 
L 202.19964 258.776092 
L 202.524619 249.756804 
L 202.849599 259.47556 
L 203.174578 259.42388 
L 203.499558 261.190861 
L 203.824537 269.972567 
L 204.149517 266.411399 
L 204.474496 253.523355 
L 204.799476 255.934645 
L 205.124455 263.557594 
L 205.449435 267.836798 
L 205.774414 260.506691 
L 206.099394 258.783302 
L 206.424373 263.567335 
L 206.749353 255.377057 
L 207.074333 267.773237 
L 207.399312 241.046831 
L 207.724292 276.150235 
L 208.374251 265.635222 
L 208.69923 263.37341 
L 209.02421 276.201566 
L 209.349189 245.09529 
L 209.674169 271.432988 
L 209.999148 253.966061 
L 210.324128 255.28484 
L 210.649107 245.622925 
L 211.299066 251.499411 
L 211.624046 252.431654 
L 211.949025 260.88844 
L 212.274005 254.409632 
L 212.923964 265.954962 
L 213.248943 266.593196 
L 213.573923 253.298691 
L 213.898903 253.682004 
L 214.223882 255.210125 
L 214.548862 260.005788 
L 214.873841 258.772698 
L 215.198821 255.873445 
L 215.5238 269.515318 
L 215.84878 269.085159 
L 216.173759 271.943421 
L 216.498739 251.741844 
L 216.823718 270.194798 
L 217.148698 255.069558 
L 217.473677 272.891916 
L 218.123636 257.376296 
L 218.448616 273.508309 
L 218.773595 271.334741 
L 219.098575 232.297761 
L 219.423554 264.59145 
L 219.748534 252.746829 
L 220.073514 269.326008 
L 220.398493 272.568279 
L 220.723473 266.369265 
L 221.048452 255.811415 
L 221.698411 255.520841 
L 222.023391 266.783874 
L 222.34837 254.215916 
L 222.67335 265.925136 
L 222.998329 271.847756 
L 223.323309 266.698496 
L 223.648288 254.355258 
L 223.973268 260.651324 
L 224.298247 275.886245 
L 224.623227 261.579885 
L 224.948206 269.385897 
L 225.273186 266.220224 
L 225.598165 261.565521 
L 226.248124 250.058686 
L 226.573104 272.905167 
L 226.898084 262.618572 
L 227.223063 268.679031 
L 227.548043 260.527077 
L 227.873022 260.802659 
L 228.198002 250.555802 
L 228.522981 272.663139 
L 228.847961 269.142524 
L 229.17294 253.238451 
L 229.49792 273.659062 
L 229.822899 238.743 
L 230.147879 263.297067 
L 230.472858 264.913292 
L 230.797838 277.45054 
L 231.122817 256.926237 
L 231.447797 264.95797 
L 231.772776 259.895707 
L 232.097756 266.628947 
L 232.422735 267.492338 
L 232.747715 264.44577 
L 233.072695 273.51814 
L 233.397674 257.043584 
L 233.722654 264.962018 
L 234.047633 247.467107 
L 234.372613 264.62903 
L 234.697592 263.769359 
L 235.022572 257.670442 
L 235.347551 271.075506 
L 235.99751 266.454903 
L 236.32249 259.887371 
L 236.647469 267.133377 
L 236.972449 254.026178 
L 237.297428 251.090483 
L 237.622408 268.696192 
L 237.947387 257.36547 
L 238.272367 267.092674 
L 238.597346 258.627786 
L 238.922326 269.491954 
L 239.247305 266.257591 
L 239.572285 272.707745 
L 239.897265 255.465947 
L 240.222244 254.783326 
L 240.547224 261.38336 
L 240.872203 252.830309 
L 241.197183 273.751567 
L 241.522162 256.03918 
L 241.847142 259.824887 
L 242.497101 281.396944 
L 242.82208 267.318095 
L 243.14706 268.388683 
L 243.472039 276.153731 
L 243.797019 266.769236 
L 244.121998 253.462011 
L 244.446978 247.939775 
L 244.771957 268.729858 
L 245.096937 265.638486 
L 245.421916 259.240748 
L 245.746896 260.16093 
L 246.071876 257.049752 
L 246.396855 267.749654 
L 246.721835 225.202888 
L 247.046814 263.000913 
L 247.371794 253.352857 
L 247.696773 275.266089 
L 248.021753 260.008093 
L 248.346732 261.123363 
L 248.671712 263.870315 
L 248.996691 264.80953 
L 249.321671 275.448315 
L 249.97163 265.96118 
L 250.296609 269.736899 
L 250.621589 271.985582 
L 250.946568 258.699343 
L 251.271548 265.018521 
L 251.596527 261.504461 
L 251.921507 261.795549 
L 252.246486 262.722854 
L 252.571466 268.083513 
L 252.896446 266.863715 
L 253.221425 249.204232 
L 253.546405 254.675592 
L 254.196364 278.231815 
L 254.521343 264.234992 
L 254.846323 260.296146 
L 255.171302 259.956039 
L 255.496282 265.520416 
L 255.821261 255.562885 
L 256.146241 260.169396 
L 256.47122 259.26167 
L 256.7962 263.433648 
L 257.121179 256.920945 
L 257.446159 258.660081 
L 257.771138 252.585647 
L 258.096118 259.378898 
L 258.421097 271.92984 
L 258.746077 253.620926 
L 259.071057 261.316672 
L 259.396036 258.414247 
L 259.721016 273.03176 
L 260.045995 266.716677 
L 260.370975 262.689308 
L 260.695954 262.016184 
L 261.020934 264.864834 
L 261.345913 286.253411 
L 261.670893 249.394931 
L 261.995872 266.313864 
L 262.320852 267.291428 
L 262.645831 245.451518 
L 262.970811 266.751886 
L 263.29579 277.672906 
L 263.62077 258.986184 
L 263.945749 265.394914 
L 264.270729 261.470946 
L 264.595708 260.532554 
L 264.920688 254.906061 
L 265.245667 256.310593 
L 265.570647 254.532984 
L 266.220606 270.302914 
L 266.545586 272.366414 
L 266.870565 261.775102 
L 267.195545 266.483053 
L 267.520524 266.796569 
L 267.845504 267.30679 
L 268.170483 272.922066 
L 268.495463 254.551904 
L 268.820442 259.330704 
L 269.145422 275.965686 
L 269.470401 266.137018 
L 269.795381 277.010409 
L 270.12036 266.642733 
L 270.44534 284.359668 
L 270.770319 263.746335 
L 271.095299 271.683696 
L 271.420278 262.363838 
L 271.745258 268.969168 
L 272.070238 268.405014 
L 272.395217 275.010242 
L 272.720197 266.911883 
L 273.045176 269.96015 
L 273.370156 263.844002 
L 273.695135 267.283099 
L 274.020115 266.161581 
L 274.345094 273.950119 
L 274.670074 264.08173 
L 274.995053 259.655818 
L 275.320033 256.992914 
L 275.645012 267.311292 
L 275.969992 256.944099 
L 276.294971 268.515606 
L 276.619951 265.871331 
L 276.94493 279.40395 
L 277.26991 263.464385 
L 277.594889 266.262618 
L 277.919869 257.722653 
L 278.244848 268.14435 
L 278.569828 268.495831 
L 278.894808 273.285666 
L 279.544767 260.359614 
L 279.869746 260.66055 
L 280.194726 263.256181 
L 280.519705 270.434854 
L 280.844685 269.83381 
L 281.169664 255.89622 
L 281.494644 269.20433 
L 281.819623 275.225304 
L 282.144603 262.780043 
L 282.469582 279.838401 
L 282.794562 270.645797 
L 283.119541 253.372774 
L 283.444521 264.233459 
L 283.7695 257.33673 
L 284.09448 261.514756 
L 284.419459 281.712097 
L 284.744439 276.93849 
L 285.069419 274.575694 
L 285.394398 266.233661 
L 285.719378 275.658378 
L 286.044357 235.870173 
L 286.369337 261.917675 
L 286.694316 267.728576 
L 287.019296 275.762539 
L 287.344275 263.159412 
L 287.669255 278.409265 
L 287.994234 268.854775 
L 288.319214 270.015173 
L 288.644193 273.466642 
L 288.969173 260.077151 
L 289.294152 266.434836 
L 289.619132 251.373862 
L 289.944111 271.492645 
L 290.269091 269.408789 
L 290.59407 259.285204 
L 290.91905 271.821996 
L 291.244029 265.740355 
L 291.569009 268.647411 
L 291.893989 252.877433 
L 292.218968 269.014368 
L 292.543948 271.747082 
L 292.868927 265.529619 
L 293.193907 264.972832 
L 293.518886 271.633866 
L 293.843866 274.025204 
L 294.168845 268.073978 
L 294.493825 270.605733 
L 294.818804 265.293771 
L 295.143784 272.068613 
L 295.468763 270.076278 
L 295.793743 264.92787 
L 296.118722 265.56696 
L 296.443702 269.893188 
L 296.768681 271.924264 
L 297.093661 282.419435 
L 297.41864 265.875924 
L 297.74362 276.259527 
L 298.0686 265.577963 
L 298.393579 261.272362 
L 298.718559 266.060423 
L 299.368518 269.303976 
L 299.693497 269.427385 
L 300.343456 258.175279 
L 300.668436 275.200705 
L 300.993415 242.920709 
L 301.318395 269.138333 
L 301.643374 256.813507 
L 301.968354 264.565382 
L 302.293333 265.203452 
L 302.618313 273.281338 
L 302.943292 274.172934 
L 303.268272 267.20145 
L 303.593251 274.408875 
L 303.918231 253.380469 
L 304.56819 271.359596 
L 304.89317 267.71658 
L 305.218149 266.74933 
L 305.543129 259.313544 
L 305.868108 260.126753 
L 306.193088 262.810923 
L 306.518067 275.943936 
L 306.843047 263.276561 
L 307.168026 272.345624 
L 307.493006 259.156226 
L 307.817985 273.184779 
L 308.142965 261.007795 
L 308.467944 255.369347 
L 308.792924 272.428985 
L 309.117903 266.27442 
L 309.442883 278.617857 
L 309.767862 279.513272 
L 310.092842 271.833347 
L 310.417821 278.616318 
L 310.742801 262.593447 
L 311.067781 279.915629 
L 311.39276 276.315458 
L 311.71774 262.792648 
L 312.042719 269.585332 
L 312.367699 285.760839 
L 312.692678 268.994492 
L 313.017658 278.034968 
L 313.342637 264.463803 
L 313.667617 265.156263 
L 313.992596 273.208583 
L 314.317576 264.255387 
L 314.642555 264.105304 
L 314.967535 275.082852 
L 315.292514 267.20651 
L 315.617494 276.205067 
L 315.942473 269.713741 
L 316.267453 255.604735 
L 316.917412 282.315195 
L 317.242391 247.846101 
L 317.567371 268.552806 
L 318.21733 246.480016 
L 318.54231 252.556 
L 318.867289 276.781147 
L 319.192269 256.18865 
L 319.517248 271.501625 
L 319.842228 264.356697 
L 320.167207 280.335286 
L 320.492187 265.753806 
L 320.817166 269.294176 
L 321.467125 280.565972 
L 321.792105 257.950392 
L 322.117084 295.488 
L 322.442064 261.669286 
L 322.767043 268.358087 
L 323.092023 268.111489 
L 323.417002 272.63598 
L 323.741982 268.685327 
L 324.066962 279.340966 
L 324.391941 256.415162 
L 324.716921 263.054462 
L 325.0419 263.538161 
L 325.36688 268.286461 
L 325.691859 276.655922 
L 326.016839 267.96051 
L 326.341818 266.906853 
L 326.666798 287.553971 
L 326.991777 271.821253 
L 327.316757 268.691588 
L 327.641736 253.486906 
L 327.966716 270.660989 
L 328.291695 272.584732 
L 328.616675 276.116049 
L 328.941654 259.525985 
L 329.266634 280.076327 
L 329.591613 281.58982 
L 329.916593 267.8344 
L 330.241572 266.696295 
L 330.566552 274.309423 
L 330.891532 258.200983 
L 331.541491 279.370209 
L 331.86647 262.552224 
L 332.19145 270.630917 
L 332.516429 281.76559 
L 332.841409 281.332212 
L 333.166388 259.506357 
L 333.491368 276.087637 
L 333.816347 279.870459 
L 334.141327 268.227987 
L 334.791286 284.304381 
L 335.116265 258.879516 
L 335.766224 268.323617 
L 336.091204 269.702116 
L 336.416183 274.129804 
L 336.741163 263.344666 
L 337.066143 270.108094 
L 337.391122 270.51937 
L 337.716102 272.369168 
L 338.041081 264.776652 
L 338.69104 279.551717 
L 339.01602 272.708702 
L 339.340999 270.246628 
L 339.665979 273.543579 
L 339.990958 275.271565 
L 340.315938 274.214456 
L 340.640917 281.918162 
L 340.965897 268.703769 
L 341.290876 271.012805 
L 341.615856 266.587905 
L 341.940835 259.753534 
L 342.265815 271.871038 
L 342.590794 259.556832 
L 343.240753 275.4244 
L 343.565733 279.032498 
L 343.890713 250.358373 
L 344.215692 272.820781 
L 344.540672 273.809009 
L 344.865651 266.525466 
L 345.51561 286.481535 
L 345.84059 279.222126 
L 346.165569 280.986706 
L 346.490549 268.553964 
L 346.815528 274.626715 
L 347.140508 274.589843 
L 347.465487 271.310294 
L 347.790467 273.101822 
L 348.115446 267.499572 
L 348.440426 282.230396 
L 348.765405 275.772349 
L 349.090385 266.235608 
L 349.415364 260.710387 
L 349.740344 261.906642 
L 350.065324 267.073092 
L 350.390303 265.076472 
L 350.715283 254.383986 
L 351.040262 284.618379 
L 351.365242 264.221835 
L 351.690221 272.895507 
L 352.015201 256.725303 
L 352.34018 270.851152 
L 352.66516 265.851126 
L 352.990139 270.827907 
L 353.315119 280.412935 
L 353.640098 271.321951 
L 354.290057 277.314819 
L 354.615037 290.682875 
L 354.940016 264.424791 
L 355.264996 282.441953 
L 355.914955 264.869232 
L 356.239934 270.176992 
L 356.564914 252.295961 
L 356.889894 265.77329 
L 357.214873 261.227922 
L 357.539853 270.814556 
L 357.864832 273.872027 
L 358.189812 270.898579 
L 358.514791 275.236427 
L 358.839771 257.964292 
L 359.16475 279.638529 
L 359.814709 257.260129 
L 360.139689 269.210807 
L 360.464668 291.483959 
L 361.439607 273.07362 
L 361.764586 266.225122 
L 362.089566 229.27331 
L 362.414545 264.889509 
L 362.739525 258.538368 
L 363.064505 269.195778 
L 363.389484 269.048233 
L 363.714464 276.67594 
L 364.039443 262.168719 
L 364.364423 279.152537 
L 365.014382 263.191406 
L 365.339361 277.65628 
L 365.664341 267.040857 
L 365.98932 238.869027 
L 366.3143 282.154883 
L 366.639279 270.427427 
L 366.964259 283.535835 
L 367.289238 262.198138 
L 367.614218 263.627227 
L 368.264177 280.569478 
L 368.589156 282.793319 
L 368.914136 262.389049 
L 369.239115 270.138707 
L 369.564095 281.514804 
L 369.889075 265.959696 
L 370.539034 276.842504 
L 370.864013 262.683736 
L 371.188993 276.993146 
L 371.513972 270.284922 
L 371.838952 269.502629 
L 372.163931 259.689255 
L 372.488911 261.850185 
L 372.81389 289.792119 
L 373.13887 271.546853 
L 373.463849 275.207284 
L 373.788829 264.15901 
L 374.113808 281.905509 
L 374.438788 275.216654 
L 374.763767 281.121363 
L 375.088747 266.069359 
L 375.413726 265.087283 
L 375.738706 276.494547 
L 376.063686 278.624278 
L 376.388665 277.411589 
L 376.713645 268.142771 
L 377.038624 276.007718 
L 377.363604 250.810002 
L 377.688583 281.323954 
L 378.338542 258.412399 
L 378.663522 270.881394 
L 378.988501 274.984663 
L 379.313481 271.258704 
L 379.63846 276.212326 
L 379.96344 277.327866 
L 380.613399 259.460485 
L 380.938378 280.7581 
L 381.263358 263.05447 
L 381.588337 252.834216 
L 382.238296 284.218269 
L 382.563276 272.988799 
L 382.888256 278.356224 
L 383.213235 271.493728 
L 383.538215 278.344035 
L 383.863194 266.381088 
L 384.188174 282.012998 
L 384.513153 252.690561 
L 384.838133 278.084396 
L 385.163112 278.306714 
L 385.488092 273.816694 
L 385.813071 255.87447 
L 386.138051 279.63458 
L 386.46303 265.746271 
L 386.78801 263.604119 
L 387.112989 271.329342 
L 387.437969 262.28434 
L 387.762948 262.266789 
L 388.087928 270.617419 
L 388.412907 259.695181 
L 388.737887 273.86031 
L 389.062867 276.874727 
L 389.387846 281.686722 
L 389.712826 271.029315 
L 390.037805 266.591584 
L 390.362785 273.128386 
L 390.687764 292.115279 
L 391.012744 275.62423 
L 391.337723 294.067261 
L 391.987682 269.468085 
L 392.312662 270.401909 
L 392.637641 275.718963 
L 392.962621 287.02283 
L 393.2876 255.045275 
L 393.61258 277.900212 
L 393.937559 272.989672 
L 394.262539 278.282455 
L 394.587518 280.964016 
L 394.912498 270.890794 
L 395.237477 269.274377 
L 395.562457 268.880197 
L 395.887437 271.691907 
L 396.212416 269.603145 
L 396.862375 271.184042 
L 397.187355 274.832137 
L 397.512334 262.652889 
L 397.837314 270.101506 
L 398.162293 266.682575 
L 398.487273 273.646994 
L 398.487273 273.646994 
" style="fill:none;stroke:#ff7f0e;stroke-linecap:square;stroke-width:1.5;"/>
   </g>
   <g id="patch_3">
    <path d="M 57.6 307.584 
L 57.6 41.472 
" style="fill:none;stroke:#000000;stroke-linecap:square;stroke-linejoin:miter;stroke-width:0.8;"/>
   </g>
   <g id="patch_4">
    <path d="M 414.72 307.584 
L 414.72 41.472 
" style="fill:none;stroke:#000000;stroke-linecap:square;stroke-linejoin:miter;stroke-width:0.8;"/>
   </g>
   <g id="patch_5">
    <path d="M 57.6 307.584 
L 414.72 307.584 
" style="fill:none;stroke:#000000;stroke-linecap:square;stroke-linejoin:miter;stroke-width:0.8;"/>
   </g>
   <g id="patch_6">
    <path d="M 57.6 41.472 
L 414.72 41.472 
" style="fill:none;stroke:#000000;stroke-linecap:square;stroke-linejoin:miter;stroke-width:0.8;"/>
   </g>
   <g id="legend_1">
    <g id="patch_7">
     <path d="M 303.845 78.82825 
L 407.72 78.82825 
Q 409.72 78.82825 409.72 76.82825 
L 409.72 48.472 
Q 409.72 46.472 407.72 46.472 
L 303.845 46.472 
Q 301.845 46.472 301.845 48.472 
L 301.845 76.82825 
Q 301.845 78.82825 303.845 78.82825 
z
" style="fill:#ffffff;opacity:0.8;stroke:#cccccc;stroke-linejoin:miter;"/>
    </g>
    <g id="line2d_18">
     <path d="M 305.845 54.570437 
L 325.845 54.570437 
" style="fill:none;stroke:#1f77b4;stroke-linecap:square;stroke-width:1.5;"/>
    </g>
    <g id="line2d_19"/>
    <g id="text_17">
     <!-- Train loss -->
     <g transform="translate(333.845 58.070437)scale(0.1 -0.1)">
      <defs>
       <path d="M -19 4666 
L 3928 4666 
L 3928 4134 
L 2272 4134 
L 2272 0 
L 1638 0 
L 1638 4134 
L -19 4134 
L -19 4666 
z
" id="DejaVuSans-54" transform="scale(0.015625)"/>
       <path d="M 2631 2963 
Q 2534 3019 2420 3045 
Q 2306 3072 2169 3072 
Q 1681 3072 1420 2755 
Q 1159 2438 1159 1844 
L 1159 0 
L 581 0 
L 581 3500 
L 1159 3500 
L 1159 2956 
Q 1341 3275 1631 3429 
Q 1922 3584 2338 3584 
Q 2397 3584 2469 3576 
Q 2541 3569 2628 3553 
L 2631 2963 
z
" id="DejaVuSans-72" transform="scale(0.015625)"/>
       <path d="M 2194 1759 
Q 1497 1759 1228 1600 
Q 959 1441 959 1056 
Q 959 750 1161 570 
Q 1363 391 1709 391 
Q 2188 391 2477 730 
Q 2766 1069 2766 1631 
L 2766 1759 
L 2194 1759 
z
M 3341 1997 
L 3341 0 
L 2766 0 
L 2766 531 
Q 2569 213 2275 61 
Q 1981 -91 1556 -91 
Q 1019 -91 701 211 
Q 384 513 384 1019 
Q 384 1609 779 1909 
Q 1175 2209 1959 2209 
L 2766 2209 
L 2766 2266 
Q 2766 2663 2505 2880 
Q 2244 3097 1772 3097 
Q 1472 3097 1187 3025 
Q 903 2953 641 2809 
L 641 3341 
Q 956 3463 1253 3523 
Q 1550 3584 1831 3584 
Q 2591 3584 2966 3190 
Q 3341 2797 3341 1997 
z
" id="DejaVuSans-61" transform="scale(0.015625)"/>
       <path d="M 603 3500 
L 1178 3500 
L 1178 0 
L 603 0 
L 603 3500 
z
M 603 4863 
L 1178 4863 
L 1178 4134 
L 603 4134 
L 603 4863 
z
" id="DejaVuSans-69" transform="scale(0.015625)"/>
       <path d="M 3513 2113 
L 3513 0 
L 2938 0 
L 2938 2094 
Q 2938 2591 2744 2837 
Q 2550 3084 2163 3084 
Q 1697 3084 1428 2787 
Q 1159 2491 1159 1978 
L 1159 0 
L 581 0 
L 581 3500 
L 1159 3500 
L 1159 2956 
Q 1366 3272 1645 3428 
Q 1925 3584 2291 3584 
Q 2894 3584 3203 3211 
Q 3513 2838 3513 2113 
z
" id="DejaVuSans-6e" transform="scale(0.015625)"/>
       <path id="DejaVuSans-20" transform="scale(0.015625)"/>
       <path d="M 603 4863 
L 1178 4863 
L 1178 0 
L 603 0 
L 603 4863 
z
" id="DejaVuSans-6c" transform="scale(0.015625)"/>
       <path d="M 2834 3397 
L 2834 2853 
Q 2591 2978 2328 3040 
Q 2066 3103 1784 3103 
Q 1356 3103 1142 2972 
Q 928 2841 928 2578 
Q 928 2378 1081 2264 
Q 1234 2150 1697 2047 
L 1894 2003 
Q 2506 1872 2764 1633 
Q 3022 1394 3022 966 
Q 3022 478 2636 193 
Q 2250 -91 1575 -91 
Q 1294 -91 989 -36 
Q 684 19 347 128 
L 347 722 
Q 666 556 975 473 
Q 1284 391 1588 391 
Q 1994 391 2212 530 
Q 2431 669 2431 922 
Q 2431 1156 2273 1281 
Q 2116 1406 1581 1522 
L 1381 1569 
Q 847 1681 609 1914 
Q 372 2147 372 2553 
Q 372 3047 722 3315 
Q 1072 3584 1716 3584 
Q 2034 3584 2315 3537 
Q 2597 3491 2834 3397 
z
" id="DejaVuSans-73" transform="scale(0.015625)"/>
      </defs>
      <use xlink:href="#DejaVuSans-54"/>
      <use x="46.333984" xlink:href="#DejaVuSans-72"/>
      <use x="87.447266" xlink:href="#DejaVuSans-61"/>
      <use x="148.726562" xlink:href="#DejaVuSans-69"/>
      <use x="176.509766" xlink:href="#DejaVuSans-6e"/>
      <use x="239.888672" xlink:href="#DejaVuSans-20"/>
      <use x="271.675781" xlink:href="#DejaVuSans-6c"/>
      <use x="299.458984" xlink:href="#DejaVuSans-6f"/>
      <use x="360.640625" xlink:href="#DejaVuSans-73"/>
      <use x="412.740234" xlink:href="#DejaVuSans-73"/>
     </g>
    </g>
    <g id="line2d_20">
     <path d="M 305.845 69.248562 
L 325.845 69.248562 
" style="fill:none;stroke:#ff7f0e;stroke-linecap:square;stroke-width:1.5;"/>
    </g>
    <g id="line2d_21"/>
    <g id="text_18">
     <!-- Validation loss -->
     <g transform="translate(333.845 72.748562)scale(0.1 -0.1)">
      <defs>
       <path d="M 1831 0 
L 50 4666 
L 709 4666 
L 2188 738 
L 3669 4666 
L 4325 4666 
L 2547 0 
L 1831 0 
z
" id="DejaVuSans-56" transform="scale(0.015625)"/>
       <path d="M 2906 2969 
L 2906 4863 
L 3481 4863 
L 3481 0 
L 2906 0 
L 2906 525 
Q 2725 213 2448 61 
Q 2172 -91 1784 -91 
Q 1150 -91 751 415 
Q 353 922 353 1747 
Q 353 2572 751 3078 
Q 1150 3584 1784 3584 
Q 2172 3584 2448 3432 
Q 2725 3281 2906 2969 
z
M 947 1747 
Q 947 1113 1208 752 
Q 1469 391 1925 391 
Q 2381 391 2643 752 
Q 2906 1113 2906 1747 
Q 2906 2381 2643 2742 
Q 2381 3103 1925 3103 
Q 1469 3103 1208 2742 
Q 947 2381 947 1747 
z
" id="DejaVuSans-64" transform="scale(0.015625)"/>
       <path d="M 1172 4494 
L 1172 3500 
L 2356 3500 
L 2356 3053 
L 1172 3053 
L 1172 1153 
Q 1172 725 1289 603 
Q 1406 481 1766 481 
L 2356 481 
L 2356 0 
L 1766 0 
Q 1100 0 847 248 
Q 594 497 594 1153 
L 594 3053 
L 172 3053 
L 172 3500 
L 594 3500 
L 594 4494 
L 1172 4494 
z
" id="DejaVuSans-74" transform="scale(0.015625)"/>
      </defs>
      <use xlink:href="#DejaVuSans-56"/>
      <use x="60.658203" xlink:href="#DejaVuSans-61"/>
      <use x="121.9375" xlink:href="#DejaVuSans-6c"/>
      <use x="149.720703" xlink:href="#DejaVuSans-69"/>
      <use x="177.503906" xlink:href="#DejaVuSans-64"/>
      <use x="240.980469" xlink:href="#DejaVuSans-61"/>
      <use x="302.259766" xlink:href="#DejaVuSans-74"/>
      <use x="341.46875" xlink:href="#DejaVuSans-69"/>
      <use x="369.251953" xlink:href="#DejaVuSans-6f"/>
      <use x="430.433594" xlink:href="#DejaVuSans-6e"/>
      <use x="493.8125" xlink:href="#DejaVuSans-20"/>
      <use x="525.599609" xlink:href="#DejaVuSans-6c"/>
      <use x="553.382812" xlink:href="#DejaVuSans-6f"/>
      <use x="614.564453" xlink:href="#DejaVuSans-73"/>
      <use x="666.664062" xlink:href="#DejaVuSans-73"/>
     </g>
    </g>
   </g>
  </g>
 </g>
 <defs>
  <clipPath id="pc9086196c2">
   <rect height="266.112" width="357.12" x="57.6" y="41.472"/>
  </clipPath>
 </defs>
</svg>
