<?xml version="1.0" encoding="utf-8" standalone="no"?>
<!DOCTYPE svg PUBLIC "-//W3C//DTD SVG 1.1//EN"
  "http://www.w3.org/Graphics/SVG/1.1/DTD/svg11.dtd">
<svg height="345.6pt" version="1.1" viewBox="0 0 460.8 345.6" width="460.8pt" xmlns="http://www.w3.org/2000/svg" xmlns:xlink="http://www.w3.org/1999/xlink">
 <metadata>
  <rdf:RDF xmlns:cc="http://creativecommons.org/ns#" xmlns:dc="http://purl.org/dc/elements/1.1/" xmlns:rdf="http://www.w3.org/1999/02/22-rdf-syntax-ns#">
   <cc:Work>
    <dc:type rdf:resource="http://purl.org/dc/dcmitype/StillImage"/>
    <dc:date>2021-07-14T11:03:07.316482</dc:date>
    <dc:format>image/svg+xml</dc:format>
    <dc:creator>
     <cc:Agent>
      <dc:title>Matplotlib v3.4.1, https://matplotlib.org/</dc:title>
     </cc:Agent>
    </dc:creator>
   </cc:Work>
  </rdf:RDF>
 </metadata>
 <defs>
  <style type="text/css">*{stroke-linecap:butt;stroke-linejoin:round;}</style>
 </defs>
 <g id="figure_1">
  <g id="patch_1">
   <path d="M 0 345.6 
L 460.8 345.6 
L 460.8 0 
L 0 0 
z
" style="fill:#ffffff;"/>
  </g>
  <g id="axes_1">
   <g id="patch_2">
    <path d="M 57.6 307.584 
L 414.72 307.584 
L 414.72 41.472 
L 57.6 41.472 
z
" style="fill:#ffffff;"/>
   </g>
   <g id="matplotlib.axis_1">
    <g id="xtick_1">
     <g id="line2d_1">
      <defs>
       <path d="M 0 0 
L 0 3.5 
" id="mfd93e7a3df" style="stroke:#000000;stroke-width:0.8;"/>
      </defs>
      <g>
       <use style="stroke:#000000;stroke-width:0.8;" x="73.019057" xlink:href="#mfd93e7a3df" y="307.584"/>
      </g>
     </g>
     <g id="text_1">
      <!-- 0 -->
      <g transform="translate(69.837807 322.182437)scale(0.1 -0.1)">
       <defs>
        <path d="M 2034 4250 
Q 1547 4250 1301 3770 
Q 1056 3291 1056 2328 
Q 1056 1369 1301 889 
Q 1547 409 2034 409 
Q 2525 409 2770 889 
Q 3016 1369 3016 2328 
Q 3016 3291 2770 3770 
Q 2525 4250 2034 4250 
z
M 2034 4750 
Q 2819 4750 3233 4129 
Q 3647 3509 3647 2328 
Q 3647 1150 3233 529 
Q 2819 -91 2034 -91 
Q 1250 -91 836 529 
Q 422 1150 422 2328 
Q 422 3509 836 4129 
Q 1250 4750 2034 4750 
z
" id="DejaVuSans-30" transform="scale(0.015625)"/>
       </defs>
       <use xlink:href="#DejaVuSans-30"/>
      </g>
     </g>
    </g>
    <g id="xtick_2">
     <g id="line2d_2">
      <g>
       <use style="stroke:#000000;stroke-width:0.8;" x="113.702584" xlink:href="#mfd93e7a3df" y="307.584"/>
      </g>
     </g>
     <g id="text_2">
      <!-- 50 -->
      <g transform="translate(107.340084 322.182437)scale(0.1 -0.1)">
       <defs>
        <path d="M 691 4666 
L 3169 4666 
L 3169 4134 
L 1269 4134 
L 1269 2991 
Q 1406 3038 1543 3061 
Q 1681 3084 1819 3084 
Q 2600 3084 3056 2656 
Q 3513 2228 3513 1497 
Q 3513 744 3044 326 
Q 2575 -91 1722 -91 
Q 1428 -91 1123 -41 
Q 819 9 494 109 
L 494 744 
Q 775 591 1075 516 
Q 1375 441 1709 441 
Q 2250 441 2565 725 
Q 2881 1009 2881 1497 
Q 2881 1984 2565 2268 
Q 2250 2553 1709 2553 
Q 1456 2553 1204 2497 
Q 953 2441 691 2322 
L 691 4666 
z
" id="DejaVuSans-35" transform="scale(0.015625)"/>
       </defs>
       <use xlink:href="#DejaVuSans-35"/>
       <use x="63.623047" xlink:href="#DejaVuSans-30"/>
      </g>
     </g>
    </g>
    <g id="xtick_3">
     <g id="line2d_3">
      <g>
       <use style="stroke:#000000;stroke-width:0.8;" x="154.386111" xlink:href="#mfd93e7a3df" y="307.584"/>
      </g>
     </g>
     <g id="text_3">
      <!-- 100 -->
      <g transform="translate(144.842361 322.182437)scale(0.1 -0.1)">
       <defs>
        <path d="M 794 531 
L 1825 531 
L 1825 4091 
L 703 3866 
L 703 4441 
L 1819 4666 
L 2450 4666 
L 2450 531 
L 3481 531 
L 3481 0 
L 794 0 
L 794 531 
z
" id="DejaVuSans-31" transform="scale(0.015625)"/>
       </defs>
       <use xlink:href="#DejaVuSans-31"/>
       <use x="63.623047" xlink:href="#DejaVuSans-30"/>
       <use x="127.246094" xlink:href="#DejaVuSans-30"/>
      </g>
     </g>
    </g>
    <g id="xtick_4">
     <g id="line2d_4">
      <g>
       <use style="stroke:#000000;stroke-width:0.8;" x="195.069638" xlink:href="#mfd93e7a3df" y="307.584"/>
      </g>
     </g>
     <g id="text_4">
      <!-- 150 -->
      <g transform="translate(185.525888 322.182437)scale(0.1 -0.1)">
       <use xlink:href="#DejaVuSans-31"/>
       <use x="63.623047" xlink:href="#DejaVuSans-35"/>
       <use x="127.246094" xlink:href="#DejaVuSans-30"/>
      </g>
     </g>
    </g>
    <g id="xtick_5">
     <g id="line2d_5">
      <g>
       <use style="stroke:#000000;stroke-width:0.8;" x="235.753165" xlink:href="#mfd93e7a3df" y="307.584"/>
      </g>
     </g>
     <g id="text_5">
      <!-- 200 -->
      <g transform="translate(226.209415 322.182437)scale(0.1 -0.1)">
       <defs>
        <path d="M 1228 531 
L 3431 531 
L 3431 0 
L 469 0 
L 469 531 
Q 828 903 1448 1529 
Q 2069 2156 2228 2338 
Q 2531 2678 2651 2914 
Q 2772 3150 2772 3378 
Q 2772 3750 2511 3984 
Q 2250 4219 1831 4219 
Q 1534 4219 1204 4116 
Q 875 4013 500 3803 
L 500 4441 
Q 881 4594 1212 4672 
Q 1544 4750 1819 4750 
Q 2544 4750 2975 4387 
Q 3406 4025 3406 3419 
Q 3406 3131 3298 2873 
Q 3191 2616 2906 2266 
Q 2828 2175 2409 1742 
Q 1991 1309 1228 531 
z
" id="DejaVuSans-32" transform="scale(0.015625)"/>
       </defs>
       <use xlink:href="#DejaVuSans-32"/>
       <use x="63.623047" xlink:href="#DejaVuSans-30"/>
       <use x="127.246094" xlink:href="#DejaVuSans-30"/>
      </g>
     </g>
    </g>
    <g id="xtick_6">
     <g id="line2d_6">
      <g>
       <use style="stroke:#000000;stroke-width:0.8;" x="276.436692" xlink:href="#mfd93e7a3df" y="307.584"/>
      </g>
     </g>
     <g id="text_6">
      <!-- 250 -->
      <g transform="translate(266.892942 322.182437)scale(0.1 -0.1)">
       <use xlink:href="#DejaVuSans-32"/>
       <use x="63.623047" xlink:href="#DejaVuSans-35"/>
       <use x="127.246094" xlink:href="#DejaVuSans-30"/>
      </g>
     </g>
    </g>
    <g id="xtick_7">
     <g id="line2d_7">
      <g>
       <use style="stroke:#000000;stroke-width:0.8;" x="317.120219" xlink:href="#mfd93e7a3df" y="307.584"/>
      </g>
     </g>
     <g id="text_7">
      <!-- 300 -->
      <g transform="translate(307.576469 322.182437)scale(0.1 -0.1)">
       <defs>
        <path d="M 2597 2516 
Q 3050 2419 3304 2112 
Q 3559 1806 3559 1356 
Q 3559 666 3084 287 
Q 2609 -91 1734 -91 
Q 1441 -91 1130 -33 
Q 819 25 488 141 
L 488 750 
Q 750 597 1062 519 
Q 1375 441 1716 441 
Q 2309 441 2620 675 
Q 2931 909 2931 1356 
Q 2931 1769 2642 2001 
Q 2353 2234 1838 2234 
L 1294 2234 
L 1294 2753 
L 1863 2753 
Q 2328 2753 2575 2939 
Q 2822 3125 2822 3475 
Q 2822 3834 2567 4026 
Q 2313 4219 1838 4219 
Q 1578 4219 1281 4162 
Q 984 4106 628 3988 
L 628 4550 
Q 988 4650 1302 4700 
Q 1616 4750 1894 4750 
Q 2613 4750 3031 4423 
Q 3450 4097 3450 3541 
Q 3450 3153 3228 2886 
Q 3006 2619 2597 2516 
z
" id="DejaVuSans-33" transform="scale(0.015625)"/>
       </defs>
       <use xlink:href="#DejaVuSans-33"/>
       <use x="63.623047" xlink:href="#DejaVuSans-30"/>
       <use x="127.246094" xlink:href="#DejaVuSans-30"/>
      </g>
     </g>
    </g>
    <g id="xtick_8">
     <g id="line2d_8">
      <g>
       <use style="stroke:#000000;stroke-width:0.8;" x="357.803746" xlink:href="#mfd93e7a3df" y="307.584"/>
      </g>
     </g>
     <g id="text_8">
      <!-- 350 -->
      <g transform="translate(348.259996 322.182437)scale(0.1 -0.1)">
       <use xlink:href="#DejaVuSans-33"/>
       <use x="63.623047" xlink:href="#DejaVuSans-35"/>
       <use x="127.246094" xlink:href="#DejaVuSans-30"/>
      </g>
     </g>
    </g>
    <g id="xtick_9">
     <g id="line2d_9">
      <g>
       <use style="stroke:#000000;stroke-width:0.8;" x="398.487273" xlink:href="#mfd93e7a3df" y="307.584"/>
      </g>
     </g>
     <g id="text_9">
      <!-- 400 -->
      <g transform="translate(388.943523 322.182437)scale(0.1 -0.1)">
       <defs>
        <path d="M 2419 4116 
L 825 1625 
L 2419 1625 
L 2419 4116 
z
M 2253 4666 
L 3047 4666 
L 3047 1625 
L 3713 1625 
L 3713 1100 
L 3047 1100 
L 3047 0 
L 2419 0 
L 2419 1100 
L 313 1100 
L 313 1709 
L 2253 4666 
z
" id="DejaVuSans-34" transform="scale(0.015625)"/>
       </defs>
       <use xlink:href="#DejaVuSans-34"/>
       <use x="63.623047" xlink:href="#DejaVuSans-30"/>
       <use x="127.246094" xlink:href="#DejaVuSans-30"/>
      </g>
     </g>
    </g>
    <g id="text_10">
     <!-- Epoch -->
     <g transform="translate(213.193594 339.659781)scale(0.15 -0.15)">
      <defs>
       <path d="M 628 4666 
L 3578 4666 
L 3578 4134 
L 1259 4134 
L 1259 2753 
L 3481 2753 
L 3481 2222 
L 1259 2222 
L 1259 531 
L 3634 531 
L 3634 0 
L 628 0 
L 628 4666 
z
" id="DejaVuSans-45" transform="scale(0.015625)"/>
       <path d="M 1159 525 
L 1159 -1331 
L 581 -1331 
L 581 3500 
L 1159 3500 
L 1159 2969 
Q 1341 3281 1617 3432 
Q 1894 3584 2278 3584 
Q 2916 3584 3314 3078 
Q 3713 2572 3713 1747 
Q 3713 922 3314 415 
Q 2916 -91 2278 -91 
Q 1894 -91 1617 61 
Q 1341 213 1159 525 
z
M 3116 1747 
Q 3116 2381 2855 2742 
Q 2594 3103 2138 3103 
Q 1681 3103 1420 2742 
Q 1159 2381 1159 1747 
Q 1159 1113 1420 752 
Q 1681 391 2138 391 
Q 2594 391 2855 752 
Q 3116 1113 3116 1747 
z
" id="DejaVuSans-70" transform="scale(0.015625)"/>
       <path d="M 1959 3097 
Q 1497 3097 1228 2736 
Q 959 2375 959 1747 
Q 959 1119 1226 758 
Q 1494 397 1959 397 
Q 2419 397 2687 759 
Q 2956 1122 2956 1747 
Q 2956 2369 2687 2733 
Q 2419 3097 1959 3097 
z
M 1959 3584 
Q 2709 3584 3137 3096 
Q 3566 2609 3566 1747 
Q 3566 888 3137 398 
Q 2709 -91 1959 -91 
Q 1206 -91 779 398 
Q 353 888 353 1747 
Q 353 2609 779 3096 
Q 1206 3584 1959 3584 
z
" id="DejaVuSans-6f" transform="scale(0.015625)"/>
       <path d="M 3122 3366 
L 3122 2828 
Q 2878 2963 2633 3030 
Q 2388 3097 2138 3097 
Q 1578 3097 1268 2742 
Q 959 2388 959 1747 
Q 959 1106 1268 751 
Q 1578 397 2138 397 
Q 2388 397 2633 464 
Q 2878 531 3122 666 
L 3122 134 
Q 2881 22 2623 -34 
Q 2366 -91 2075 -91 
Q 1284 -91 818 406 
Q 353 903 353 1747 
Q 353 2603 823 3093 
Q 1294 3584 2113 3584 
Q 2378 3584 2631 3529 
Q 2884 3475 3122 3366 
z
" id="DejaVuSans-63" transform="scale(0.015625)"/>
       <path d="M 3513 2113 
L 3513 0 
L 2938 0 
L 2938 2094 
Q 2938 2591 2744 2837 
Q 2550 3084 2163 3084 
Q 1697 3084 1428 2787 
Q 1159 2491 1159 1978 
L 1159 0 
L 581 0 
L 581 4863 
L 1159 4863 
L 1159 2956 
Q 1366 3272 1645 3428 
Q 1925 3584 2291 3584 
Q 2894 3584 3203 3211 
Q 3513 2838 3513 2113 
z
" id="DejaVuSans-68" transform="scale(0.015625)"/>
      </defs>
      <use xlink:href="#DejaVuSans-45"/>
      <use x="63.183594" xlink:href="#DejaVuSans-70"/>
      <use x="126.660156" xlink:href="#DejaVuSans-6f"/>
      <use x="187.841797" xlink:href="#DejaVuSans-63"/>
      <use x="242.822266" xlink:href="#DejaVuSans-68"/>
     </g>
    </g>
   </g>
   <g id="matplotlib.axis_2">
    <g id="ytick_1">
     <g id="line2d_10">
      <defs>
       <path d="M 0 0 
L -3.5 0 
" id="m143365f904" style="stroke:#000000;stroke-width:0.8;"/>
      </defs>
      <g>
       <use style="stroke:#000000;stroke-width:0.8;" x="57.6" xlink:href="#m143365f904" y="295.031372"/>
      </g>
     </g>
     <g id="text_11">
      <!-- −1200 -->
      <g transform="translate(16.770313 298.830591)scale(0.1 -0.1)">
       <defs>
        <path d="M 678 2272 
L 4684 2272 
L 4684 1741 
L 678 1741 
L 678 2272 
z
" id="DejaVuSans-2212" transform="scale(0.015625)"/>
       </defs>
       <use xlink:href="#DejaVuSans-2212"/>
       <use x="83.789062" xlink:href="#DejaVuSans-31"/>
       <use x="147.412109" xlink:href="#DejaVuSans-32"/>
       <use x="211.035156" xlink:href="#DejaVuSans-30"/>
       <use x="274.658203" xlink:href="#DejaVuSans-30"/>
      </g>
     </g>
    </g>
    <g id="ytick_2">
     <g id="line2d_11">
      <g>
       <use style="stroke:#000000;stroke-width:0.8;" x="57.6" xlink:href="#m143365f904" y="253.35081"/>
      </g>
     </g>
     <g id="text_12">
      <!-- −1000 -->
      <g transform="translate(16.770313 257.150029)scale(0.1 -0.1)">
       <use xlink:href="#DejaVuSans-2212"/>
       <use x="83.789062" xlink:href="#DejaVuSans-31"/>
       <use x="147.412109" xlink:href="#DejaVuSans-30"/>
       <use x="211.035156" xlink:href="#DejaVuSans-30"/>
       <use x="274.658203" xlink:href="#DejaVuSans-30"/>
      </g>
     </g>
    </g>
    <g id="ytick_3">
     <g id="line2d_12">
      <g>
       <use style="stroke:#000000;stroke-width:0.8;" x="57.6" xlink:href="#m143365f904" y="211.670248"/>
      </g>
     </g>
     <g id="text_13">
      <!-- −800 -->
      <g transform="translate(23.132812 215.469467)scale(0.1 -0.1)">
       <defs>
        <path d="M 2034 2216 
Q 1584 2216 1326 1975 
Q 1069 1734 1069 1313 
Q 1069 891 1326 650 
Q 1584 409 2034 409 
Q 2484 409 2743 651 
Q 3003 894 3003 1313 
Q 3003 1734 2745 1975 
Q 2488 2216 2034 2216 
z
M 1403 2484 
Q 997 2584 770 2862 
Q 544 3141 544 3541 
Q 544 4100 942 4425 
Q 1341 4750 2034 4750 
Q 2731 4750 3128 4425 
Q 3525 4100 3525 3541 
Q 3525 3141 3298 2862 
Q 3072 2584 2669 2484 
Q 3125 2378 3379 2068 
Q 3634 1759 3634 1313 
Q 3634 634 3220 271 
Q 2806 -91 2034 -91 
Q 1263 -91 848 271 
Q 434 634 434 1313 
Q 434 1759 690 2068 
Q 947 2378 1403 2484 
z
M 1172 3481 
Q 1172 3119 1398 2916 
Q 1625 2713 2034 2713 
Q 2441 2713 2670 2916 
Q 2900 3119 2900 3481 
Q 2900 3844 2670 4047 
Q 2441 4250 2034 4250 
Q 1625 4250 1398 4047 
Q 1172 3844 1172 3481 
z
" id="DejaVuSans-38" transform="scale(0.015625)"/>
       </defs>
       <use xlink:href="#DejaVuSans-2212"/>
       <use x="83.789062" xlink:href="#DejaVuSans-38"/>
       <use x="147.412109" xlink:href="#DejaVuSans-30"/>
       <use x="211.035156" xlink:href="#DejaVuSans-30"/>
      </g>
     </g>
    </g>
    <g id="ytick_4">
     <g id="line2d_13">
      <g>
       <use style="stroke:#000000;stroke-width:0.8;" x="57.6" xlink:href="#m143365f904" y="169.989687"/>
      </g>
     </g>
     <g id="text_14">
      <!-- −600 -->
      <g transform="translate(23.132812 173.788905)scale(0.1 -0.1)">
       <defs>
        <path d="M 2113 2584 
Q 1688 2584 1439 2293 
Q 1191 2003 1191 1497 
Q 1191 994 1439 701 
Q 1688 409 2113 409 
Q 2538 409 2786 701 
Q 3034 994 3034 1497 
Q 3034 2003 2786 2293 
Q 2538 2584 2113 2584 
z
M 3366 4563 
L 3366 3988 
Q 3128 4100 2886 4159 
Q 2644 4219 2406 4219 
Q 1781 4219 1451 3797 
Q 1122 3375 1075 2522 
Q 1259 2794 1537 2939 
Q 1816 3084 2150 3084 
Q 2853 3084 3261 2657 
Q 3669 2231 3669 1497 
Q 3669 778 3244 343 
Q 2819 -91 2113 -91 
Q 1303 -91 875 529 
Q 447 1150 447 2328 
Q 447 3434 972 4092 
Q 1497 4750 2381 4750 
Q 2619 4750 2861 4703 
Q 3103 4656 3366 4563 
z
" id="DejaVuSans-36" transform="scale(0.015625)"/>
       </defs>
       <use xlink:href="#DejaVuSans-2212"/>
       <use x="83.789062" xlink:href="#DejaVuSans-36"/>
       <use x="147.412109" xlink:href="#DejaVuSans-30"/>
       <use x="211.035156" xlink:href="#DejaVuSans-30"/>
      </g>
     </g>
    </g>
    <g id="ytick_5">
     <g id="line2d_14">
      <g>
       <use style="stroke:#000000;stroke-width:0.8;" x="57.6" xlink:href="#m143365f904" y="128.309125"/>
      </g>
     </g>
     <g id="text_15">
      <!-- −400 -->
      <g transform="translate(23.132812 132.108344)scale(0.1 -0.1)">
       <use xlink:href="#DejaVuSans-2212"/>
       <use x="83.789062" xlink:href="#DejaVuSans-34"/>
       <use x="147.412109" xlink:href="#DejaVuSans-30"/>
       <use x="211.035156" xlink:href="#DejaVuSans-30"/>
      </g>
     </g>
    </g>
    <g id="ytick_6">
     <g id="line2d_15">
      <g>
       <use style="stroke:#000000;stroke-width:0.8;" x="57.6" xlink:href="#m143365f904" y="86.628563"/>
      </g>
     </g>
     <g id="text_16">
      <!-- −200 -->
      <g transform="translate(23.132812 90.427782)scale(0.1 -0.1)">
       <use xlink:href="#DejaVuSans-2212"/>
       <use x="83.789062" xlink:href="#DejaVuSans-32"/>
       <use x="147.412109" xlink:href="#DejaVuSans-30"/>
       <use x="211.035156" xlink:href="#DejaVuSans-30"/>
      </g>
     </g>
    </g>
    <g id="ytick_7">
     <g id="line2d_16">
      <g>
       <use style="stroke:#000000;stroke-width:0.8;" x="57.6" xlink:href="#m143365f904" y="44.948001"/>
      </g>
     </g>
     <g id="text_17">
      <!-- 0 -->
      <g transform="translate(44.2375 48.74722)scale(0.1 -0.1)">
       <use xlink:href="#DejaVuSans-30"/>
      </g>
     </g>
    </g>
    <g id="text_18">
     <!-- Loss -->
     <g transform="translate(9.650781 190.978781)rotate(-90)scale(0.15 -0.15)">
      <defs>
       <path d="M 628 4666 
L 1259 4666 
L 1259 531 
L 3531 531 
L 3531 0 
L 628 0 
L 628 4666 
z
" id="DejaVuSans-4c" transform="scale(0.015625)"/>
       <path d="M 2834 3397 
L 2834 2853 
Q 2591 2978 2328 3040 
Q 2066 3103 1784 3103 
Q 1356 3103 1142 2972 
Q 928 2841 928 2578 
Q 928 2378 1081 2264 
Q 1234 2150 1697 2047 
L 1894 2003 
Q 2506 1872 2764 1633 
Q 3022 1394 3022 966 
Q 3022 478 2636 193 
Q 2250 -91 1575 -91 
Q 1294 -91 989 -36 
Q 684 19 347 128 
L 347 722 
Q 666 556 975 473 
Q 1284 391 1588 391 
Q 1994 391 2212 530 
Q 2431 669 2431 922 
Q 2431 1156 2273 1281 
Q 2116 1406 1581 1522 
L 1381 1569 
Q 847 1681 609 1914 
Q 372 2147 372 2553 
Q 372 3047 722 3315 
Q 1072 3584 1716 3584 
Q 2034 3584 2315 3537 
Q 2597 3491 2834 3397 
z
" id="DejaVuSans-73" transform="scale(0.015625)"/>
      </defs>
      <use xlink:href="#DejaVuSans-4c"/>
      <use x="53.962891" xlink:href="#DejaVuSans-6f"/>
      <use x="115.144531" xlink:href="#DejaVuSans-73"/>
      <use x="167.244141" xlink:href="#DejaVuSans-73"/>
     </g>
    </g>
   </g>
   <g id="line2d_17">
    <path clip-path="url(#p4797b0e3c0)" d="M 73.832727 53.568 
L 74.646398 113.49344 
L 75.460068 134.228868 
L 76.273739 125.782218 
L 77.087409 148.638527 
L 77.90108 138.296249 
L 78.714751 154.377645 
L 79.528421 148.787352 
L 80.342092 155.33466 
L 81.155762 156.903924 
L 81.969433 164.206707 
L 82.783103 166.470448 
L 83.596774 171.169136 
L 84.410444 174.735899 
L 85.224115 174.694875 
L 86.037785 173.07172 
L 86.851456 164.111189 
L 87.665126 175.389621 
L 88.478797 180.165787 
L 89.292468 174.096231 
L 90.106138 191.442872 
L 90.919809 173.82038 
L 91.733479 193.26686 
L 92.54715 191.154998 
L 93.36082 191.258095 
L 94.174491 179.472867 
L 94.988161 197.069892 
L 95.801832 192.761821 
L 96.615502 200.077107 
L 97.429173 190.660938 
L 99.056514 202.226627 
L 99.870185 200.525858 
L 100.683855 205.585942 
L 101.497526 194.232537 
L 102.311196 203.735958 
L 103.124867 201.627542 
L 103.938537 202.821603 
L 104.752208 206.208852 
L 105.565878 203.931544 
L 106.379549 207.711272 
L 107.193219 210.944649 
L 108.00689 203.288388 
L 108.82056 202.378269 
L 109.634231 206.395298 
L 110.447902 209.733927 
L 111.261572 202.322117 
L 112.075243 202.717595 
L 112.888913 213.223148 
L 113.702584 214.315714 
L 114.516254 214.087385 
L 115.329925 206.975852 
L 116.143595 215.974383 
L 116.957266 211.678149 
L 117.770936 215.714439 
L 118.584607 217.473456 
L 119.398278 217.454433 
L 120.211948 217.278712 
L 121.025619 215.46094 
L 122.65296 215.057605 
L 124.280301 226.991539 
L 125.093971 219.119995 
L 125.907642 212.969646 
L 126.721312 228.791098 
L 127.534983 215.584894 
L 128.348653 221.814236 
L 129.162324 218.204025 
L 129.975995 232.162531 
L 130.789665 220.817799 
L 131.603336 217.542049 
L 132.417006 224.373123 
L 133.230677 220.993389 
L 134.044347 221.166391 
L 134.858018 231.024098 
L 135.671688 220.670013 
L 136.485359 217.993562 
L 137.299029 227.345027 
L 138.1127 230.935464 
L 138.92637 215.44494 
L 139.740041 216.046506 
L 140.553712 222.897886 
L 141.367382 228.683251 
L 142.181053 225.358177 
L 142.994723 223.191964 
L 143.808394 219.277121 
L 144.622064 220.864412 
L 145.435735 221.716496 
L 146.249405 225.344295 
L 147.063076 230.319749 
L 147.876746 226.37606 
L 148.690417 224.433312 
L 149.504087 219.974353 
L 150.317758 229.790512 
L 151.131429 232.697755 
L 151.945099 226.201118 
L 152.75877 233.782219 
L 153.57244 224.313133 
L 154.386111 228.733578 
L 155.199781 228.75776 
L 156.013452 220.554348 
L 157.640793 240.348154 
L 158.454463 223.462034 
L 159.268134 240.685087 
L 160.081805 229.490298 
L 160.895475 234.07167 
L 161.709146 234.777404 
L 162.522816 227.450985 
L 163.336487 223.703984 
L 164.150157 232.013794 
L 164.963828 226.858821 
L 165.777498 231.295338 
L 166.591169 224.499534 
L 167.404839 234.358664 
L 168.21851 237.110733 
L 169.03218 240.961825 
L 169.845851 239.861498 
L 170.659522 242.957321 
L 171.473192 231.847828 
L 172.286863 227.752434 
L 173.100533 236.055279 
L 173.914204 243.138934 
L 174.727874 234.296958 
L 175.541545 245.480268 
L 176.355215 239.251511 
L 177.168886 230.784889 
L 177.982556 233.227236 
L 178.796227 234.213489 
L 179.609897 233.861727 
L 180.423568 234.437764 
L 181.237239 235.797184 
L 182.050909 230.524292 
L 182.86458 227.384928 
L 183.67825 234.889877 
L 184.491921 230.717338 
L 185.305591 218.529609 
L 186.119262 242.122485 
L 186.932932 230.094687 
L 187.746603 236.695437 
L 188.560273 237.585001 
L 189.373944 244.203099 
L 190.187614 236.228368 
L 191.001285 233.186819 
L 191.814956 236.609328 
L 192.628626 237.862488 
L 193.442297 235.86128 
L 194.255967 235.451222 
L 195.069638 234.43333 
L 195.883308 229.390944 
L 196.696979 245.550119 
L 197.510649 240.96889 
L 198.32432 233.882949 
L 199.13799 239.88786 
L 199.951661 234.763039 
L 200.765332 235.670268 
L 201.579002 247.716797 
L 202.392673 243.916985 
L 203.206343 237.348172 
L 204.020014 237.837368 
L 204.833684 237.007964 
L 205.647355 238.941234 
L 206.461025 248.497467 
L 207.274696 243.218515 
L 208.088366 241.097304 
L 208.902037 228.660522 
L 209.715707 244.512222 
L 210.529378 233.716028 
L 211.343049 236.719181 
L 212.156719 227.77681 
L 212.97039 244.489736 
L 213.78406 238.530905 
L 214.597731 243.874815 
L 215.411401 236.665988 
L 216.225072 238.500892 
L 217.038742 245.823414 
L 217.852413 234.733005 
L 218.666083 237.713021 
L 219.479754 237.205577 
L 220.293424 243.751091 
L 221.107095 248.888613 
L 222.734436 229.599798 
L 223.548107 241.23933 
L 224.361777 241.362312 
L 225.175448 237.965758 
L 225.989118 242.996281 
L 226.802789 240.372257 
L 227.616459 241.05975 
L 228.43013 241.926285 
L 229.2438 244.516525 
L 230.057471 239.33144 
L 230.871141 244.482288 
L 231.684812 248.036362 
L 232.498483 245.286565 
L 233.312153 240.480921 
L 234.125824 247.814581 
L 234.939494 245.53743 
L 235.753165 239.403814 
L 236.566835 238.806723 
L 237.380506 240.801334 
L 238.194176 241.37254 
L 239.007847 238.235116 
L 239.821517 248.776931 
L 240.635188 241.774258 
L 241.448859 243.573364 
L 242.262529 244.470708 
L 243.0762 246.640341 
L 243.88987 245.656354 
L 244.703541 240.503827 
L 245.517211 245.654986 
L 246.330882 241.546571 
L 247.144552 256.530738 
L 247.958223 243.627993 
L 248.771893 251.747991 
L 249.585564 250.38835 
L 250.399234 248.409417 
L 251.212905 251.562261 
L 252.026576 244.509928 
L 252.840246 257.628407 
L 253.653917 245.095465 
L 254.467587 253.126425 
L 255.281258 246.678427 
L 256.094928 248.257732 
L 256.908599 254.205605 
L 257.722269 246.758237 
L 258.53594 244.404896 
L 259.34961 240.72719 
L 260.976951 252.561489 
L 261.790622 248.376604 
L 262.604293 246.082545 
L 263.417963 231.923123 
L 264.231634 242.893293 
L 265.045304 245.559449 
L 265.858975 238.049926 
L 266.672645 253.368304 
L 267.486316 235.523432 
L 268.299986 253.905359 
L 269.113657 241.577381 
L 269.927327 238.835409 
L 270.740998 245.529023 
L 271.554668 246.785281 
L 272.368339 234.682349 
L 273.18201 251.086478 
L 273.99568 252.639377 
L 274.809351 247.992263 
L 275.623021 249.272759 
L 277.250362 248.961444 
L 278.064033 240.462907 
L 278.877703 257.065754 
L 279.691374 251.944435 
L 280.505044 243.163926 
L 281.318715 240.069585 
L 282.132386 249.146018 
L 282.946056 247.80903 
L 283.759727 243.429799 
L 284.573397 246.857306 
L 285.387068 236.227367 
L 286.200738 246.068603 
L 287.014409 247.752235 
L 287.828079 250.27299 
L 288.64175 246.029143 
L 289.45542 236.55653 
L 290.269091 258.424961 
L 291.082761 245.552553 
L 291.896432 251.011043 
L 292.710103 252.504654 
L 293.523773 250.68542 
L 294.337444 251.007176 
L 295.151114 254.415149 
L 295.964785 245.843909 
L 296.778455 245.043679 
L 297.592126 248.961714 
L 298.405796 243.699122 
L 299.219467 253.435183 
L 300.033137 248.486783 
L 300.846808 245.667933 
L 301.660478 254.797301 
L 302.474149 250.99869 
L 303.28782 251.102626 
L 304.10149 248.739034 
L 304.915161 244.778277 
L 305.728831 249.669816 
L 306.542502 253.44553 
L 307.356172 249.155088 
L 308.169843 256.903646 
L 308.983513 254.404374 
L 309.797184 251.214117 
L 310.610854 245.06298 
L 311.424525 240.913428 
L 312.238195 252.678304 
L 313.051866 262.14247 
L 313.865537 255.782278 
L 314.679207 242.3455 
L 315.492878 251.545557 
L 316.306548 240.371485 
L 317.120219 244.113594 
L 317.933889 254.595924 
L 318.74756 258.195216 
L 320.374901 253.225267 
L 322.002242 249.613468 
L 322.815913 252.701836 
L 323.629583 255.031116 
L 324.443254 265.887224 
L 325.256924 257.02568 
L 326.070595 257.997039 
L 326.884265 247.812481 
L 327.697936 251.982559 
L 328.511606 257.642905 
L 329.325277 248.732161 
L 330.138947 251.100288 
L 330.952618 254.555155 
L 331.766288 256.36814 
L 332.579959 259.364378 
L 333.39363 252.319213 
L 334.2073 256.980572 
L 335.020971 251.385757 
L 335.834641 252.707292 
L 336.648312 249.666814 
L 337.461982 244.873277 
L 338.275653 260.25843 
L 339.089323 262.499089 
L 339.902994 261.894428 
L 340.716664 255.76309 
L 341.530335 254.256568 
L 342.344005 248.939857 
L 343.157676 251.98875 
L 343.971347 260.620881 
L 344.785017 248.417223 
L 345.598688 255.200247 
L 346.412358 243.382445 
L 347.226029 251.455132 
L 348.039699 258.376861 
L 348.85337 255.044989 
L 349.66704 245.69406 
L 350.480711 257.839865 
L 351.294381 252.590868 
L 352.108052 264.435449 
L 352.921722 258.479264 
L 353.735393 240.161207 
L 354.549064 258.131433 
L 355.362734 255.617555 
L 356.176405 256.501818 
L 356.990075 253.957046 
L 357.803746 256.618394 
L 358.617416 256.201835 
L 359.431087 254.604501 
L 360.244757 254.585705 
L 361.058428 245.871114 
L 361.872098 253.48037 
L 362.685769 255.925893 
L 363.49944 256.264051 
L 364.31311 253.866662 
L 365.126781 256.018514 
L 365.940451 258.663218 
L 366.754122 238.883355 
L 368.381463 258.036608 
L 369.195133 251.544994 
L 370.008804 258.018763 
L 370.822474 252.5914 
L 371.636145 253.487786 
L 372.449815 239.857733 
L 373.263486 254.760855 
L 374.077157 255.199802 
L 374.890827 262.629704 
L 375.704498 259.911189 
L 376.518168 258.650152 
L 377.331839 252.986878 
L 378.145509 252.0837 
L 378.95918 255.816815 
L 379.77285 251.039031 
L 380.586521 252.569629 
L 381.400191 258.170079 
L 382.213862 259.203953 
L 383.027532 251.544713 
L 383.841203 248.372514 
L 384.654874 254.036232 
L 385.468544 256.283797 
L 386.282215 255.059846 
L 387.095885 264.695755 
L 387.909556 253.57042 
L 388.723226 255.022972 
L 389.536897 267.269979 
L 390.350567 269.633298 
L 391.164238 253.047703 
L 391.977908 258.042274 
L 392.791579 250.982768 
L 393.605249 250.458725 
L 394.41892 256.429057 
L 395.232591 257.342511 
L 396.046261 251.003836 
L 396.859932 258.28609 
L 397.673602 252.38903 
L 398.487273 255.92413 
L 398.487273 255.92413 
" style="fill:none;stroke:#1f77b4;stroke-linecap:square;stroke-width:1.5;"/>
   </g>
   <g id="line2d_18">
    <path clip-path="url(#p4797b0e3c0)" d="M 73.832727 70.859233 
L 74.646398 125.323217 
L 75.460068 148.552565 
L 76.273739 145.57127 
L 77.087409 134.497631 
L 77.90108 162.926442 
L 78.714751 152.216051 
L 79.528421 182.934299 
L 80.342092 187.700474 
L 81.155762 178.368903 
L 81.969433 195.310658 
L 82.783103 189.851636 
L 84.410444 203.807778 
L 85.224115 209.772065 
L 86.037785 204.327398 
L 86.851456 227.574608 
L 87.665126 218.316786 
L 88.478797 221.952128 
L 89.292468 229.915706 
L 90.106138 218.446879 
L 90.919809 228.140271 
L 91.733479 224.607255 
L 92.54715 224.077289 
L 93.36082 235.993918 
L 94.174491 235.25444 
L 94.988161 223.924311 
L 95.801832 222.279721 
L 96.615502 224.404788 
L 97.429173 244.42075 
L 98.242843 230.133371 
L 99.056514 231.195655 
L 99.870185 231.961445 
L 100.683855 229.345696 
L 101.497526 236.526661 
L 102.311196 238.618792 
L 103.124867 234.566262 
L 103.938537 233.816259 
L 104.752208 230.784271 
L 105.565878 238.890706 
L 106.379549 241.11965 
L 107.193219 241.3451 
L 108.82056 237.627967 
L 109.634231 234.779906 
L 110.447902 250.159207 
L 111.261572 238.409618 
L 112.075243 243.582344 
L 112.888913 253.013631 
L 113.702584 237.531163 
L 114.516254 251.597963 
L 115.329925 241.234835 
L 116.143595 243.268076 
L 116.957266 244.250392 
L 117.770936 242.395357 
L 118.584607 247.810313 
L 119.398278 239.889006 
L 120.211948 250.311698 
L 121.025619 243.24694 
L 121.839289 249.793114 
L 122.65296 239.728018 
L 123.46663 240.458359 
L 124.280301 248.119139 
L 125.093971 247.060432 
L 125.907642 245.115594 
L 126.721312 232.855389 
L 127.534983 240.638573 
L 128.348653 251.867501 
L 129.162324 235.404516 
L 129.975995 255.626566 
L 130.789665 257.518945 
L 131.603336 244.897449 
L 132.417006 256.284814 
L 134.044347 249.037204 
L 134.858018 244.007039 
L 135.671688 252.328756 
L 136.485359 239.197701 
L 137.299029 256.200733 
L 138.1127 263.317383 
L 138.92637 246.973492 
L 139.740041 233.632522 
L 140.553712 249.628402 
L 141.367382 240.453681 
L 142.181053 243.209682 
L 142.994723 261.562548 
L 143.808394 247.255963 
L 144.622064 253.339948 
L 145.435735 246.383825 
L 146.249405 248.857143 
L 147.063076 244.043511 
L 147.876746 258.978562 
L 149.504087 238.607757 
L 150.317758 265.422306 
L 151.131429 248.232072 
L 151.945099 242.21867 
L 152.75877 242.412499 
L 153.57244 253.40272 
L 154.386111 261.176466 
L 155.199781 258.353751 
L 156.013452 251.700599 
L 156.827122 250.461819 
L 157.640793 258.19911 
L 158.454463 244.508672 
L 159.268134 255.64168 
L 160.081805 250.747701 
L 160.895475 262.828339 
L 161.709146 265.049068 
L 162.522816 252.414069 
L 163.336487 255.251143 
L 164.150157 249.475112 
L 164.963828 253.382185 
L 165.777498 244.861685 
L 166.591169 242.872893 
L 167.404839 247.497734 
L 168.21851 249.149029 
L 169.03218 262.308165 
L 169.845851 267.772256 
L 170.659522 265.314645 
L 172.286863 251.975345 
L 173.100533 268.404715 
L 173.914204 246.715602 
L 174.727874 253.045159 
L 175.541545 257.397047 
L 176.355215 262.787702 
L 177.168886 259.354488 
L 177.982556 269.625782 
L 178.796227 271.799547 
L 179.609897 256.731996 
L 180.423568 261.895933 
L 181.237239 262.903833 
L 182.050909 266.80087 
L 182.86458 251.270229 
L 183.67825 260.98034 
L 184.491921 268.645259 
L 185.305591 242.829856 
L 186.119262 261.057177 
L 186.932932 257.099275 
L 187.746603 272.287566 
L 188.560273 266.042043 
L 189.373944 265.241979 
L 190.187614 263.389413 
L 191.001285 257.181734 
L 191.814956 265.907547 
L 192.628626 260.261479 
L 193.442297 261.370409 
L 194.255967 270.570689 
L 195.069638 257.024433 
L 195.883308 262.338084 
L 196.696979 260.762583 
L 197.510649 275.984301 
L 198.32432 274.113249 
L 199.13799 265.854141 
L 199.951661 270.714075 
L 200.765332 262.769359 
L 201.579002 261.152485 
L 202.392673 258.416182 
L 203.206343 267.754999 
L 204.020014 245.521661 
L 204.833684 260.123814 
L 205.647355 267.635885 
L 206.461025 258.749159 
L 207.274696 261.997465 
L 208.088366 263.461471 
L 208.902037 265.210109 
L 209.715707 280.383307 
L 210.529378 254.682257 
L 211.343049 261.71953 
L 212.156719 270.241759 
L 212.97039 266.752476 
L 213.78406 269.950738 
L 214.597731 275.597387 
L 215.411401 280.434122 
L 216.225072 283.248182 
L 217.038742 280.746787 
L 217.852413 250.809969 
L 218.666083 273.32605 
L 219.479754 274.37435 
L 220.293424 253.053965 
L 221.107095 268.033101 
L 221.920766 259.81611 
L 222.734436 275.280338 
L 223.548107 270.615739 
L 224.361777 258.062349 
L 225.175448 262.815938 
L 225.989118 266.860946 
L 226.802789 261.785581 
L 227.616459 276.310425 
L 228.43013 274.781195 
L 229.2438 271.688619 
L 230.057471 270.289138 
L 230.871141 260.717013 
L 231.684812 259.330811 
L 232.498483 268.553957 
L 233.312153 271.18829 
L 234.125824 272.188961 
L 234.939494 264.760095 
L 235.753165 250.63771 
L 236.566835 268.677521 
L 237.380506 271.770291 
L 238.194176 261.019358 
L 239.821517 291.550384 
L 240.635188 256.611225 
L 241.448859 281.311434 
L 242.262529 269.544121 
L 243.0762 274.133567 
L 243.88987 263.838757 
L 244.703541 262.537325 
L 245.517211 266.970384 
L 246.330882 261.16004 
L 247.144552 265.010453 
L 247.958223 292.523495 
L 248.771893 268.449233 
L 249.585564 269.322874 
L 250.399234 264.178955 
L 251.212905 261.378925 
L 252.026576 249.700001 
L 252.840246 279.795822 
L 253.653917 265.585367 
L 254.467587 274.287619 
L 255.281258 259.487827 
L 256.094928 281.150976 
L 256.908599 258.683584 
L 257.722269 265.029361 
L 258.53594 273.532875 
L 259.34961 278.361873 
L 260.163281 267.086094 
L 260.976951 276.569566 
L 261.790622 263.723673 
L 262.604293 259.902816 
L 263.417963 263.976039 
L 264.231634 284.460072 
L 265.045304 281.61011 
L 265.858975 266.166036 
L 266.672645 282.165008 
L 267.486316 282.218665 
L 268.299986 273.745252 
L 269.113657 257.678702 
L 269.927327 287.077543 
L 270.740998 265.840036 
L 271.554668 269.515228 
L 272.368339 252.59155 
L 273.18201 264.029204 
L 274.809351 280.1668 
L 275.623021 271.565633 
L 276.436692 279.583702 
L 277.250362 267.515521 
L 278.064033 284.568922 
L 278.877703 269.980202 
L 279.691374 281.154163 
L 280.505044 265.085451 
L 281.318715 257.488681 
L 282.132386 263.801557 
L 282.946056 272.766432 
L 283.759727 265.710042 
L 284.573397 261.109706 
L 285.387068 280.232546 
L 286.200738 279.400388 
L 287.014409 274.616796 
L 287.828079 285.417997 
L 288.64175 280.295331 
L 289.45542 260.426974 
L 290.269091 264.443664 
L 291.082761 272.011813 
L 291.896432 277.823971 
L 292.710103 288.375731 
L 293.523773 262.55856 
L 294.337444 263.801253 
L 295.151114 272.909017 
L 295.964785 267.040993 
L 296.778455 273.53264 
L 297.592126 276.374986 
L 298.405796 262.497518 
L 299.219467 273.206134 
L 300.033137 280.956248 
L 300.846808 261.845327 
L 301.660478 272.055361 
L 302.474149 260.662258 
L 303.28782 271.419804 
L 304.10149 274.558076 
L 304.915161 266.353488 
L 305.728831 277.138907 
L 306.542502 266.6272 
L 307.356172 271.421004 
L 308.169843 267.445941 
L 308.983513 269.34525 
L 309.797184 277.775129 
L 310.610854 282.815085 
L 311.424525 270.995589 
L 312.238195 293.034374 
L 313.051866 252.25392 
L 313.865537 259.923642 
L 314.679207 280.748076 
L 315.492878 271.803496 
L 316.306548 285.769477 
L 317.120219 274.06989 
L 317.933889 269.438941 
L 318.74756 273.639051 
L 319.56123 275.448817 
L 320.374901 280.44135 
L 321.188571 279.153193 
L 322.002242 275.887562 
L 322.815913 283.285071 
L 323.629583 285.891189 
L 324.443254 259.235461 
L 325.256924 275.297495 
L 326.070595 285.764453 
L 326.884265 278.337709 
L 327.697936 268.365021 
L 329.325277 279.344824 
L 330.138947 267.251274 
L 330.952618 288.698834 
L 331.766288 269.240966 
L 332.579959 278.693589 
L 333.39363 277.071681 
L 334.2073 274.507603 
L 335.020971 277.581004 
L 335.834641 277.029965 
L 336.648312 259.117443 
L 337.461982 261.799243 
L 338.275653 266.012733 
L 339.089323 265.441638 
L 339.902994 267.096602 
L 340.716664 276.078282 
L 341.530335 268.402318 
L 342.344005 283.53434 
L 343.157676 281.367329 
L 343.971347 270.4203 
L 344.785017 281.649377 
L 345.598688 274.917918 
L 346.412358 274.791386 
L 347.226029 286.179341 
L 348.039699 266.202084 
L 348.85337 282.586093 
L 349.66704 269.576974 
L 350.480711 266.799588 
L 351.294381 270.956798 
L 352.108052 275.831143 
L 352.921722 270.889504 
L 353.735393 268.636379 
L 354.549064 267.591896 
L 355.362734 267.124138 
L 356.176405 282.796691 
L 356.990075 280.131793 
L 357.803746 259.832463 
L 358.617416 280.646968 
L 359.431087 295.488 
L 360.244757 264.99924 
L 361.058428 284.4814 
L 361.872098 274.54537 
L 362.685769 271.998388 
L 363.49944 275.166646 
L 364.31311 280.672153 
L 365.126781 270.218491 
L 365.940451 283.761608 
L 366.754122 278.56697 
L 367.567792 294.868828 
L 368.381463 273.253903 
L 369.195133 283.848859 
L 370.008804 289.270841 
L 370.822474 273.333331 
L 371.636145 280.651016 
L 372.449815 270.179048 
L 373.263486 270.397464 
L 374.077157 280.642257 
L 374.890827 272.895845 
L 375.704498 272.566614 
L 376.518168 270.981102 
L 377.331839 294.315397 
L 378.145509 272.21695 
L 378.95918 270.835517 
L 379.77285 269.683687 
L 380.586521 274.784253 
L 381.400191 255.602212 
L 382.213862 287.779794 
L 383.027532 271.745268 
L 383.841203 279.882193 
L 384.654874 266.49511 
L 385.468544 285.341765 
L 386.282215 272.090553 
L 387.095885 277.813315 
L 387.909556 277.970947 
L 388.723226 260.853837 
L 390.350567 290.095068 
L 391.164238 269.651804 
L 391.977908 275.96999 
L 392.791579 285.088293 
L 393.605249 267.324922 
L 394.41892 271.233515 
L 395.232591 291.289463 
L 396.859932 274.157181 
L 397.673602 264.887853 
L 398.487273 269.49248 
L 398.487273 269.49248 
" style="fill:none;stroke:#ff7f0e;stroke-linecap:square;stroke-width:1.5;"/>
   </g>
   <g id="line2d_19">
    <path clip-path="url(#p4797b0e3c0)" d="M 73.832727 69.79401 
L 74.646398 98.989838 
L 75.460068 115.376397 
L 76.273739 121.664646 
L 77.087409 134.55926 
L 77.90108 138.533042 
L 78.714751 139.268339 
L 79.528421 140.325714 
L 80.342092 137.896863 
L 81.155762 155.836904 
L 81.969433 148.918596 
L 83.596774 172.015288 
L 84.410444 154.04097 
L 85.224115 170.795333 
L 86.037785 156.627034 
L 86.851456 170.119512 
L 87.665126 171.571624 
L 88.478797 175.661779 
L 89.292468 177.590991 
L 90.106138 178.897207 
L 90.919809 180.817824 
L 91.733479 161.754051 
L 92.54715 188.528802 
L 93.36082 188.300472 
L 94.174491 196.177718 
L 94.988161 193.203122 
L 95.801832 191.802724 
L 96.615502 202.245213 
L 97.429173 197.23014 
L 98.242843 197.243423 
L 99.056514 200.800239 
L 99.870185 195.449063 
L 100.683855 199.317096 
L 101.497526 199.511708 
L 103.124867 218.02091 
L 103.938537 198.041445 
L 104.752208 216.910695 
L 105.565878 211.705683 
L 106.379549 213.367758 
L 107.193219 208.920884 
L 108.00689 219.905252 
L 108.82056 218.430043 
L 109.634231 211.218339 
L 110.447902 200.46981 
L 111.261572 212.67253 
L 112.075243 216.61776 
L 112.888913 212.039617 
L 113.702584 219.658678 
L 114.516254 211.069501 
L 115.329925 203.805419 
L 116.143595 208.795521 
L 116.957266 219.049141 
L 117.770936 221.424983 
L 118.584607 220.780098 
L 119.398278 217.068396 
L 120.211948 216.586433 
L 121.025619 229.894408 
L 121.839289 217.662772 
L 122.65296 214.237125 
L 123.46663 218.369594 
L 124.280301 213.375239 
L 125.093971 227.62951 
L 125.907642 217.973707 
L 126.721312 217.788354 
L 127.534983 216.972282 
L 128.348653 228.250548 
L 129.162324 224.03882 
L 129.975995 228.113553 
L 130.789665 224.87396 
L 131.603336 226.386943 
L 132.417006 226.796685 
L 133.230677 232.242043 
L 134.044347 221.265684 
L 134.858018 223.493931 
L 135.671688 234.322694 
L 136.485359 226.368866 
L 137.299029 229.514321 
L 138.1127 211.735834 
L 138.92637 231.854423 
L 139.740041 233.953394 
L 140.553712 223.393838 
L 142.181053 232.925619 
L 142.994723 227.231646 
L 143.808394 234.453961 
L 144.622064 228.517612 
L 145.435735 221.002996 
L 146.249405 229.964976 
L 147.063076 231.244023 
L 147.876746 232.227072 
L 148.690417 238.901301 
L 149.504087 230.773549 
L 150.317758 229.229714 
L 151.131429 234.262238 
L 151.945099 225.769947 
L 152.75877 230.560978 
L 153.57244 227.352079 
L 154.386111 231.809501 
L 155.199781 227.689012 
L 156.013452 235.44627 
L 156.827122 234.763628 
L 157.640793 239.914842 
L 158.454463 228.12093 
L 159.268134 230.791362 
L 160.081805 234.83606 
L 160.895475 236.960266 
L 161.709146 242.804151 
L 162.522816 227.410712 
L 163.336487 238.175069 
L 164.150157 230.864008 
L 164.963828 232.62375 
L 165.777498 236.164607 
L 166.591169 227.949574 
L 167.404839 234.746552 
L 168.21851 234.529809 
L 169.03218 237.179929 
L 169.845851 240.298292 
L 170.659522 241.480316 
L 171.473192 230.230775 
L 172.286863 231.817743 
L 173.100533 228.669634 
L 173.914204 237.462361 
L 174.727874 241.711846 
L 175.541545 234.609806 
L 176.355215 242.18745 
L 177.168886 236.800177 
L 177.982556 240.611725 
L 178.796227 232.191819 
L 179.609897 241.737222 
L 180.423568 242.919204 
L 181.237239 239.030688 
L 182.050909 227.916473 
L 182.86458 237.590574 
L 183.67825 234.919119 
L 184.491921 247.072738 
L 185.305591 244.372063 
L 186.119262 237.863057 
L 186.932932 233.829423 
L 187.746603 233.994378 
L 188.560273 231.42993 
L 189.373944 234.808003 
L 190.187614 232.282277 
L 191.001285 247.828762 
L 191.814956 249.942417 
L 192.628626 237.900722 
L 193.442297 239.774564 
L 194.255967 247.667851 
L 195.069638 241.856112 
L 195.883308 239.2334 
L 196.696979 235.301285 
L 197.510649 241.227448 
L 198.32432 235.835991 
L 199.13799 237.043476 
L 199.951661 233.014494 
L 200.765332 243.222516 
L 201.579002 245.125786 
L 202.392673 245.745956 
L 203.206343 238.532341 
L 204.020014 245.709408 
L 204.833684 230.25522 
L 205.647355 240.491088 
L 206.461025 241.632614 
L 207.274696 238.666453 
L 208.088366 243.551069 
L 208.902037 247.139868 
L 209.715707 246.781109 
L 210.529378 238.830479 
L 211.343049 243.091402 
L 212.156719 236.301698 
L 212.97039 243.950578 
L 213.78406 241.376831 
L 214.597731 239.743183 
L 215.411401 239.957231 
L 216.225072 233.554849 
L 217.038742 231.00199 
L 217.852413 242.068713 
L 218.666083 233.883495 
L 219.479754 241.092372 
L 220.293424 239.968403 
L 221.107095 232.539324 
L 221.920766 241.133643 
L 222.734436 240.34009 
L 223.548107 246.561946 
L 224.361777 237.6848 
L 225.175448 238.256166 
L 225.989118 238.067897 
L 226.802789 246.502789 
L 227.616459 237.84096 
L 228.43013 240.885395 
L 229.2438 236.368005 
L 230.057471 246.58759 
L 230.871141 243.774623 
L 231.684812 240.175947 
L 232.498483 240.182374 
L 233.312153 239.597512 
L 234.125824 239.248806 
L 234.939494 240.25761 
L 235.753165 235.446753 
L 236.566835 245.729202 
L 237.380506 239.58879 
L 238.194176 242.708636 
L 239.007847 240.420001 
L 239.821517 251.469375 
L 240.635188 249.801013 
L 241.448859 232.156941 
L 242.262529 248.981005 
L 243.0762 251.856246 
L 243.88987 236.308055 
L 244.703541 246.514638 
L 245.517211 237.857119 
L 246.330882 248.804773 
L 247.144552 254.090501 
L 247.958223 245.94313 
L 248.771893 249.179927 
L 249.585564 246.745671 
L 250.399234 243.862652 
L 251.212905 252.062912 
L 252.026576 247.877342 
L 252.840246 246.706048 
L 253.653917 253.319152 
L 254.467587 250.333811 
L 255.281258 244.371114 
L 256.094928 243.489571 
L 256.908599 242.130801 
L 257.722269 246.692298 
L 258.53594 254.408075 
L 259.34961 241.130474 
L 260.163281 248.622725 
L 260.976951 252.374348 
L 261.790622 249.890895 
L 262.604293 249.698874 
L 263.417963 240.798964 
L 264.231634 253.418824 
L 265.045304 252.03352 
L 265.858975 252.711867 
L 266.672645 246.500958 
L 267.486316 254.124921 
L 268.299986 250.612805 
L 269.113657 250.137102 
L 269.927327 256.310558 
L 270.740998 251.255129 
L 271.554668 252.495825 
L 272.368339 250.633627 
L 273.18201 243.292551 
L 273.99568 243.778284 
L 274.809351 249.878425 
L 275.623021 254.378045 
L 276.436692 246.548624 
L 277.250362 256.609493 
L 278.064033 246.296558 
L 278.877703 250.108727 
L 279.691374 244.741243 
L 280.505044 252.822631 
L 281.318715 247.412334 
L 282.132386 252.523736 
L 282.946056 255.716973 
L 283.759727 262.025831 
L 284.573397 248.543916 
L 285.387068 247.953724 
L 286.200738 258.104928 
L 287.014409 252.058759 
L 287.828079 249.822039 
L 288.64175 252.842173 
L 289.45542 259.328917 
L 290.269091 246.137143 
L 291.082761 254.631592 
L 291.896432 253.279559 
L 292.710103 254.088796 
L 293.523773 253.991071 
L 294.337444 245.502728 
L 295.964785 249.503261 
L 296.778455 249.986595 
L 297.592126 254.342833 
L 298.405796 248.980785 
L 299.219467 253.238803 
L 300.033137 256.20175 
L 300.846808 251.883531 
L 301.660478 249.325278 
L 302.474149 254.870923 
L 303.28782 255.949376 
L 304.10149 255.744177 
L 304.915161 247.381204 
L 305.728831 253.753792 
L 306.542502 246.320541 
L 307.356172 253.85182 
L 308.169843 249.489454 
L 308.983513 259.564666 
L 309.797184 255.214511 
L 310.610854 250.022874 
L 311.424525 257.517671 
L 312.238195 257.739632 
L 313.051866 258.6731 
L 313.865537 257.667963 
L 314.679207 240.668964 
L 315.492878 256.021284 
L 316.306548 266.791747 
L 317.120219 261.801673 
L 317.933889 243.837882 
L 318.74756 256.252001 
L 319.56123 248.476198 
L 320.374901 248.174411 
L 321.188571 252.926105 
L 322.002242 253.795647 
L 322.815913 249.981321 
L 323.629583 252.608357 
L 324.443254 254.650225 
L 325.256924 250.134138 
L 326.070595 249.384642 
L 326.884265 253.354658 
L 327.697936 245.65824 
L 328.511606 264.255039 
L 329.325277 249.818226 
L 330.138947 254.394484 
L 330.952618 259.948996 
L 331.766288 253.674181 
L 332.579959 254.394813 
L 333.39363 254.865422 
L 334.2073 262.474236 
L 335.020971 255.662938 
L 335.834641 251.352086 
L 336.648312 253.07112 
L 337.461982 252.421381 
L 338.275653 258.207198 
L 339.089323 250.950204 
L 339.902994 247.537154 
L 341.530335 261.438226 
L 342.344005 255.663517 
L 343.157676 256.335133 
L 343.971347 251.771578 
L 344.785017 253.319642 
L 345.598688 242.648006 
L 346.412358 255.905869 
L 347.226029 255.009614 
L 348.039699 246.14246 
L 348.85337 254.530392 
L 349.66704 264.568749 
L 350.480711 264.036524 
L 351.294381 249.715766 
L 352.108052 257.515975 
L 352.921722 259.450018 
L 353.735393 256.750412 
L 354.549064 258.85172 
L 355.362734 257.450887 
L 356.176405 257.422909 
L 356.990075 258.431389 
L 357.803746 251.292184 
L 358.617416 258.298751 
L 359.431087 259.042706 
L 360.244757 249.451738 
L 361.058428 263.12158 
L 361.872098 253.684415 
L 362.685769 254.95608 
L 363.49944 269.828734 
L 364.31311 255.43591 
L 365.126781 264.003624 
L 365.940451 266.457491 
L 366.754122 247.635287 
L 367.567792 253.285431 
L 368.381463 257.486993 
L 369.195133 263.435167 
L 370.008804 249.533859 
L 370.822474 260.591945 
L 371.636145 260.095833 
L 372.449815 253.443325 
L 373.263486 255.802989 
L 374.077157 254.946641 
L 374.890827 249.369784 
L 375.704498 255.465484 
L 376.518168 255.474084 
L 377.331839 254.967113 
L 378.145509 259.701339 
L 378.95918 255.585239 
L 379.77285 256.919985 
L 380.586521 258.658886 
L 381.400191 261.917304 
L 382.213862 252.070525 
L 383.027532 256.981456 
L 383.841203 255.800343 
L 384.654874 260.872597 
L 385.468544 253.118053 
L 386.282215 254.15793 
L 387.095885 251.213876 
L 387.909556 252.066617 
L 388.723226 253.859428 
L 389.536897 252.893432 
L 390.350567 259.885938 
L 391.164238 255.277991 
L 391.977908 265.42143 
L 392.791579 253.937548 
L 393.605249 258.764741 
L 394.41892 259.936587 
L 395.232591 267.229772 
L 396.046261 263.022327 
L 396.859932 250.488591 
L 397.673602 250.474341 
L 398.487273 248.678763 
L 398.487273 248.678763 
" style="fill:none;stroke:#2ca02c;stroke-linecap:square;stroke-width:1.5;"/>
   </g>
   <g id="line2d_20">
    <path clip-path="url(#p4797b0e3c0)" d="M 73.832727 67.991227 
L 74.646398 110.610486 
L 75.460068 113.380796 
L 76.273739 125.996103 
L 77.087409 130.336623 
L 77.90108 139.109155 
L 78.714751 139.187318 
L 79.528421 163.218561 
L 80.342092 166.707573 
L 81.155762 176.41438 
L 81.969433 168.098456 
L 82.783103 187.838111 
L 83.596774 186.541097 
L 84.410444 205.059116 
L 85.224115 208.101799 
L 86.037785 209.111242 
L 86.851456 202.967427 
L 87.665126 210.129113 
L 88.478797 211.75558 
L 89.292468 207.106403 
L 90.106138 207.15566 
L 91.733479 228.835588 
L 92.54715 214.111163 
L 93.36082 226.172014 
L 94.174491 213.81912 
L 94.988161 235.736878 
L 95.801832 234.358303 
L 96.615502 227.838649 
L 97.429173 219.084001 
L 98.242843 232.304875 
L 99.056514 236.598612 
L 99.870185 219.100009 
L 100.683855 224.523952 
L 101.497526 226.764198 
L 102.311196 226.319483 
L 103.124867 240.529358 
L 103.938537 229.387288 
L 104.752208 234.437569 
L 105.565878 228.149726 
L 106.379549 240.982031 
L 107.193219 229.211576 
L 108.00689 231.940639 
L 108.82056 245.973203 
L 109.634231 238.679839 
L 110.447902 238.862026 
L 111.261572 233.079994 
L 112.075243 238.131163 
L 112.888913 246.699073 
L 113.702584 237.936368 
L 114.516254 247.947086 
L 115.329925 239.50696 
L 116.143595 248.54727 
L 116.957266 236.222565 
L 117.770936 235.844845 
L 118.584607 223.194639 
L 119.398278 231.467669 
L 120.211948 244.032323 
L 121.025619 234.281626 
L 121.839289 237.586478 
L 122.65296 248.78667 
L 123.46663 243.812354 
L 124.280301 226.716804 
L 125.093971 244.96525 
L 125.907642 231.976578 
L 126.721312 241.129887 
L 127.534983 241.110679 
L 128.348653 246.221519 
L 129.162324 268.127793 
L 129.975995 251.244007 
L 130.789665 252.477573 
L 131.603336 229.857019 
L 132.417006 244.091722 
L 133.230677 254.004069 
L 134.044347 242.318729 
L 134.858018 250.808187 
L 135.671688 244.122428 
L 137.299029 256.174466 
L 138.1127 239.769536 
L 138.92637 260.896582 
L 139.740041 251.232395 
L 140.553712 238.203986 
L 141.367382 247.31262 
L 142.181053 260.770808 
L 142.994723 257.605542 
L 143.808394 247.590429 
L 144.622064 255.028185 
L 145.435735 248.717022 
L 146.249405 255.858475 
L 147.063076 242.475082 
L 147.876746 259.465952 
L 148.690417 240.126015 
L 149.504087 252.828154 
L 150.317758 253.261848 
L 151.945099 263.290437 
L 152.75877 248.110668 
L 155.199781 256.07181 
L 156.013452 248.021501 
L 156.827122 261.881421 
L 157.640793 262.420628 
L 158.454463 260.665283 
L 159.268134 261.211452 
L 160.081805 270.855085 
L 160.895475 253.350993 
L 161.709146 259.178775 
L 162.522816 262.90054 
L 163.336487 265.631692 
L 164.150157 255.331096 
L 164.963828 254.794417 
L 165.777498 267.623432 
L 166.591169 264.474357 
L 167.404839 265.095263 
L 168.21851 259.632259 
L 169.03218 250.969633 
L 169.845851 248.213913 
L 170.659522 256.706408 
L 171.473192 266.625559 
L 172.286863 243.704148 
L 173.914204 267.942888 
L 175.541545 263.243468 
L 176.355215 258.843524 
L 177.168886 266.434517 
L 177.982556 261.01259 
L 178.796227 261.973507 
L 179.609897 255.937077 
L 180.423568 250.773662 
L 181.237239 277.266983 
L 182.050909 273.253586 
L 182.86458 278.085362 
L 183.67825 267.024438 
L 184.491921 269.552055 
L 185.305591 264.220498 
L 186.119262 267.997516 
L 186.932932 258.587355 
L 187.746603 255.622118 
L 188.560273 261.101461 
L 189.373944 257.3925 
L 190.187614 249.410137 
L 191.001285 252.461425 
L 191.814956 266.120439 
L 192.628626 256.033846 
L 193.442297 253.828193 
L 194.255967 251.208663 
L 195.069638 263.160759 
L 195.883308 265.358775 
L 196.696979 262.993261 
L 197.510649 266.303602 
L 198.32432 263.777092 
L 199.13799 268.557524 
L 199.951661 270.650341 
L 200.765332 270.263174 
L 201.579002 266.156709 
L 202.392673 262.659382 
L 203.206343 266.483292 
L 204.020014 259.770697 
L 204.833684 274.892045 
L 205.647355 260.599659 
L 206.461025 252.989688 
L 207.274696 262.439671 
L 208.088366 258.956491 
L 208.902037 280.043167 
L 209.715707 260.247743 
L 210.529378 267.226807 
L 211.343049 269.784429 
L 212.156719 265.349261 
L 212.97039 265.798095 
L 213.78406 261.292225 
L 214.597731 255.787155 
L 215.411401 275.232335 
L 216.225072 257.813565 
L 217.038742 267.390439 
L 217.852413 263.572214 
L 218.666083 263.507275 
L 219.479754 268.651661 
L 220.293424 257.845957 
L 221.107095 257.973259 
L 221.920766 268.453321 
L 222.734436 271.176303 
L 223.548107 259.237739 
L 224.361777 264.048028 
L 225.175448 268.024732 
L 225.989118 253.710634 
L 226.802789 255.114196 
L 227.616459 270.63307 
L 228.43013 272.271864 
L 229.2438 257.886503 
L 230.057471 272.57035 
L 230.871141 269.194616 
L 231.684812 267.174533 
L 232.498483 271.033405 
L 233.312153 263.489601 
L 234.125824 259.135052 
L 234.939494 263.295838 
L 235.753165 266.07512 
L 236.566835 266.332309 
L 237.380506 273.964468 
L 238.194176 266.65102 
L 239.007847 266.843802 
L 239.821517 269.857637 
L 240.635188 258.945388 
L 241.448859 268.186807 
L 242.262529 275.727 
L 243.0762 259.766619 
L 243.88987 263.699029 
L 244.703541 270.656069 
L 245.517211 269.728586 
L 246.330882 259.390263 
L 247.144552 271.391613 
L 247.958223 254.985691 
L 248.771893 272.222355 
L 249.585564 259.983126 
L 250.399234 264.19721 
L 251.212905 270.106804 
L 252.026576 279.688887 
L 252.840246 260.335376 
L 253.653917 252.920655 
L 254.467587 271.602038 
L 255.281258 281.847862 
L 256.094928 276.942193 
L 256.908599 277.368078 
L 257.722269 279.807814 
L 258.53594 256.310332 
L 259.34961 258.762969 
L 260.163281 265.390219 
L 260.976951 261.541045 
L 261.790622 263.136735 
L 262.604293 259.097751 
L 263.417963 278.125573 
L 264.231634 262.420802 
L 265.045304 267.47178 
L 265.858975 278.222306 
L 266.672645 278.684229 
L 267.486316 271.748742 
L 268.299986 257.697322 
L 269.113657 262.167662 
L 269.927327 278.103251 
L 270.740998 257.483264 
L 271.554668 268.064719 
L 272.368339 267.095366 
L 273.18201 282.013608 
L 273.99568 261.982705 
L 274.809351 272.114125 
L 275.623021 269.423347 
L 276.436692 267.477228 
L 277.250362 267.101445 
L 278.064033 266.568488 
L 278.877703 254.480316 
L 279.691374 282.004088 
L 280.505044 267.26902 
L 281.318715 269.636173 
L 282.132386 263.916073 
L 282.946056 279.513782 
L 284.573397 251.725457 
L 285.387068 272.004563 
L 286.200738 270.651101 
L 287.014409 273.792386 
L 288.64175 264.63249 
L 289.45542 280.28246 
L 290.269091 258.11797 
L 291.082761 281.426336 
L 291.896432 268.133499 
L 292.710103 276.932444 
L 293.523773 271.054221 
L 294.337444 276.52603 
L 295.151114 266.05572 
L 295.964785 272.908127 
L 296.778455 273.312478 
L 297.592126 266.100885 
L 298.405796 278.976197 
L 299.219467 260.774347 
L 300.033137 251.619016 
L 300.846808 265.271245 
L 301.660478 271.32648 
L 302.474149 260.579379 
L 303.28782 265.983287 
L 304.10149 261.430092 
L 304.915161 271.582833 
L 305.728831 256.32737 
L 306.542502 269.723775 
L 307.356172 256.764403 
L 308.169843 259.538243 
L 308.983513 282.05447 
L 309.797184 252.495946 
L 310.610854 255.541858 
L 311.424525 254.816718 
L 312.238195 257.068676 
L 313.051866 268.070449 
L 313.865537 275.055225 
L 314.679207 276.504513 
L 315.492878 272.11679 
L 316.306548 265.15733 
L 317.120219 268.363253 
L 317.933889 282.665911 
L 318.74756 270.913178 
L 319.56123 275.934849 
L 320.374901 275.942302 
L 321.188571 262.228872 
L 322.002242 286.207461 
L 322.815913 266.128549 
L 323.629583 256.640536 
L 324.443254 265.910377 
L 325.256924 272.729264 
L 326.070595 250.441687 
L 326.884265 263.842859 
L 327.697936 264.534128 
L 328.511606 285.647523 
L 329.325277 265.197831 
L 330.138947 264.672935 
L 330.952618 278.322025 
L 331.766288 285.79014 
L 332.579959 275.882553 
L 333.39363 270.490769 
L 334.2073 261.040396 
L 335.020971 269.510972 
L 335.834641 266.020423 
L 336.648312 256.458555 
L 337.461982 279.284806 
L 338.275653 274.316892 
L 339.089323 273.779079 
L 339.902994 263.210064 
L 340.716664 266.178383 
L 341.530335 275.559052 
L 342.344005 254.332165 
L 343.157676 266.927516 
L 343.971347 273.760207 
L 344.785017 276.08677 
L 345.598688 265.724525 
L 346.412358 262.541156 
L 347.226029 272.248628 
L 348.039699 266.944458 
L 348.85337 263.901207 
L 349.66704 272.006728 
L 350.480711 263.068216 
L 351.294381 262.565056 
L 352.108052 253.847266 
L 353.735393 274.315744 
L 354.549064 276.110135 
L 355.362734 279.424214 
L 356.176405 271.575246 
L 356.990075 292.491774 
L 357.803746 270.15274 
L 358.617416 282.65061 
L 359.431087 283.831563 
L 360.244757 275.105514 
L 361.058428 283.894721 
L 361.872098 278.24116 
L 362.685769 275.967917 
L 363.49944 279.767486 
L 364.31311 273.209452 
L 365.126781 273.28927 
L 365.940451 271.334991 
L 366.754122 276.402981 
L 367.567792 270.314653 
L 368.381463 274.641482 
L 369.195133 258.984394 
L 370.008804 275.880839 
L 370.822474 278.00606 
L 371.636145 259.951851 
L 372.449815 263.052909 
L 373.263486 256.843635 
L 374.077157 278.716703 
L 374.890827 262.794132 
L 375.704498 257.656116 
L 376.518168 269.799026 
L 377.331839 252.511305 
L 378.145509 258.926603 
L 378.95918 273.279587 
L 379.77285 272.654504 
L 380.586521 281.760842 
L 381.400191 264.475839 
L 382.213862 278.605844 
L 383.027532 280.137247 
L 383.841203 265.711096 
L 384.654874 276.471088 
L 385.468544 264.925226 
L 386.282215 261.971776 
L 387.909556 275.525443 
L 388.723226 255.883537 
L 389.536897 255.235091 
L 390.350567 267.36095 
L 391.164238 267.243926 
L 391.977908 287.00821 
L 392.791579 269.264565 
L 393.605249 269.626395 
L 394.41892 273.243582 
L 395.232591 274.128433 
L 396.046261 262.614503 
L 396.859932 265.689594 
L 397.673602 281.532653 
L 398.487273 289.213546 
L 398.487273 289.213546 
" style="fill:none;stroke:#d62728;stroke-linecap:square;stroke-width:1.5;"/>
   </g>
   <g id="patch_3">
    <path d="M 57.6 307.584 
L 57.6 41.472 
" style="fill:none;stroke:#000000;stroke-linecap:square;stroke-linejoin:miter;stroke-width:0.8;"/>
   </g>
   <g id="patch_4">
    <path d="M 414.72 307.584 
L 414.72 41.472 
" style="fill:none;stroke:#000000;stroke-linecap:square;stroke-linejoin:miter;stroke-width:0.8;"/>
   </g>
   <g id="patch_5">
    <path d="M 57.6 307.584 
L 414.72 307.584 
" style="fill:none;stroke:#000000;stroke-linecap:square;stroke-linejoin:miter;stroke-width:0.8;"/>
   </g>
   <g id="patch_6">
    <path d="M 57.6 41.472 
L 414.72 41.472 
" style="fill:none;stroke:#000000;stroke-linecap:square;stroke-linejoin:miter;stroke-width:0.8;"/>
   </g>
   <g id="legend_1">
    <g id="patch_7">
     <path d="M 305.1825 108.1845 
L 407.72 108.1845 
Q 409.72 108.1845 409.72 106.1845 
L 409.72 48.472 
Q 409.72 46.472 407.72 46.472 
L 305.1825 46.472 
Q 303.1825 46.472 303.1825 48.472 
L 303.1825 106.1845 
Q 303.1825 108.1845 305.1825 108.1845 
z
" style="fill:#ffffff;opacity:0.8;stroke:#cccccc;stroke-linejoin:miter;"/>
    </g>
    <g id="line2d_21">
     <path d="M 307.1825 54.570438 
L 327.1825 54.570438 
" style="fill:none;stroke:#1f77b4;stroke-linecap:square;stroke-width:1.5;"/>
    </g>
    <g id="line2d_22"/>
    <g id="text_19">
     <!-- UNetCNP -->
     <g transform="translate(335.1825 58.070438)scale(0.1 -0.1)">
      <defs>
       <path d="M 556 4666 
L 1191 4666 
L 1191 1831 
Q 1191 1081 1462 751 
Q 1734 422 2344 422 
Q 2950 422 3222 751 
Q 3494 1081 3494 1831 
L 3494 4666 
L 4128 4666 
L 4128 1753 
Q 4128 841 3676 375 
Q 3225 -91 2344 -91 
Q 1459 -91 1007 375 
Q 556 841 556 1753 
L 556 4666 
z
" id="DejaVuSans-55" transform="scale(0.015625)"/>
       <path d="M 628 4666 
L 1478 4666 
L 3547 763 
L 3547 4666 
L 4159 4666 
L 4159 0 
L 3309 0 
L 1241 3903 
L 1241 0 
L 628 0 
L 628 4666 
z
" id="DejaVuSans-4e" transform="scale(0.015625)"/>
       <path d="M 3597 1894 
L 3597 1613 
L 953 1613 
Q 991 1019 1311 708 
Q 1631 397 2203 397 
Q 2534 397 2845 478 
Q 3156 559 3463 722 
L 3463 178 
Q 3153 47 2828 -22 
Q 2503 -91 2169 -91 
Q 1331 -91 842 396 
Q 353 884 353 1716 
Q 353 2575 817 3079 
Q 1281 3584 2069 3584 
Q 2775 3584 3186 3129 
Q 3597 2675 3597 1894 
z
M 3022 2063 
Q 3016 2534 2758 2815 
Q 2500 3097 2075 3097 
Q 1594 3097 1305 2825 
Q 1016 2553 972 2059 
L 3022 2063 
z
" id="DejaVuSans-65" transform="scale(0.015625)"/>
       <path d="M 1172 4494 
L 1172 3500 
L 2356 3500 
L 2356 3053 
L 1172 3053 
L 1172 1153 
Q 1172 725 1289 603 
Q 1406 481 1766 481 
L 2356 481 
L 2356 0 
L 1766 0 
Q 1100 0 847 248 
Q 594 497 594 1153 
L 594 3053 
L 172 3053 
L 172 3500 
L 594 3500 
L 594 4494 
L 1172 4494 
z
" id="DejaVuSans-74" transform="scale(0.015625)"/>
       <path d="M 4122 4306 
L 4122 3641 
Q 3803 3938 3442 4084 
Q 3081 4231 2675 4231 
Q 1875 4231 1450 3742 
Q 1025 3253 1025 2328 
Q 1025 1406 1450 917 
Q 1875 428 2675 428 
Q 3081 428 3442 575 
Q 3803 722 4122 1019 
L 4122 359 
Q 3791 134 3420 21 
Q 3050 -91 2638 -91 
Q 1578 -91 968 557 
Q 359 1206 359 2328 
Q 359 3453 968 4101 
Q 1578 4750 2638 4750 
Q 3056 4750 3426 4639 
Q 3797 4528 4122 4306 
z
" id="DejaVuSans-43" transform="scale(0.015625)"/>
       <path d="M 1259 4147 
L 1259 2394 
L 2053 2394 
Q 2494 2394 2734 2622 
Q 2975 2850 2975 3272 
Q 2975 3691 2734 3919 
Q 2494 4147 2053 4147 
L 1259 4147 
z
M 628 4666 
L 2053 4666 
Q 2838 4666 3239 4311 
Q 3641 3956 3641 3272 
Q 3641 2581 3239 2228 
Q 2838 1875 2053 1875 
L 1259 1875 
L 1259 0 
L 628 0 
L 628 4666 
z
" id="DejaVuSans-50" transform="scale(0.015625)"/>
      </defs>
      <use xlink:href="#DejaVuSans-55"/>
      <use x="73.193359" xlink:href="#DejaVuSans-4e"/>
      <use x="147.998047" xlink:href="#DejaVuSans-65"/>
      <use x="209.521484" xlink:href="#DejaVuSans-74"/>
      <use x="248.730469" xlink:href="#DejaVuSans-43"/>
      <use x="318.554688" xlink:href="#DejaVuSans-4e"/>
      <use x="393.359375" xlink:href="#DejaVuSans-50"/>
     </g>
    </g>
    <g id="line2d_23">
     <path d="M 307.1825 69.248563 
L 327.1825 69.248563 
" style="fill:none;stroke:#ff7f0e;stroke-linecap:square;stroke-width:1.5;"/>
    </g>
    <g id="line2d_24"/>
    <g id="text_20">
     <!-- + consistency -->
     <g transform="translate(335.1825 72.748563)scale(0.1 -0.1)">
      <defs>
       <path d="M 2944 4013 
L 2944 2272 
L 4684 2272 
L 4684 1741 
L 2944 1741 
L 2944 0 
L 2419 0 
L 2419 1741 
L 678 1741 
L 678 2272 
L 2419 2272 
L 2419 4013 
L 2944 4013 
z
" id="DejaVuSans-2b" transform="scale(0.015625)"/>
       <path id="DejaVuSans-20" transform="scale(0.015625)"/>
       <path d="M 3513 2113 
L 3513 0 
L 2938 0 
L 2938 2094 
Q 2938 2591 2744 2837 
Q 2550 3084 2163 3084 
Q 1697 3084 1428 2787 
Q 1159 2491 1159 1978 
L 1159 0 
L 581 0 
L 581 3500 
L 1159 3500 
L 1159 2956 
Q 1366 3272 1645 3428 
Q 1925 3584 2291 3584 
Q 2894 3584 3203 3211 
Q 3513 2838 3513 2113 
z
" id="DejaVuSans-6e" transform="scale(0.015625)"/>
       <path d="M 603 3500 
L 1178 3500 
L 1178 0 
L 603 0 
L 603 3500 
z
M 603 4863 
L 1178 4863 
L 1178 4134 
L 603 4134 
L 603 4863 
z
" id="DejaVuSans-69" transform="scale(0.015625)"/>
       <path d="M 2059 -325 
Q 1816 -950 1584 -1140 
Q 1353 -1331 966 -1331 
L 506 -1331 
L 506 -850 
L 844 -850 
Q 1081 -850 1212 -737 
Q 1344 -625 1503 -206 
L 1606 56 
L 191 3500 
L 800 3500 
L 1894 763 
L 2988 3500 
L 3597 3500 
L 2059 -325 
z
" id="DejaVuSans-79" transform="scale(0.015625)"/>
      </defs>
      <use xlink:href="#DejaVuSans-2b"/>
      <use x="83.789062" xlink:href="#DejaVuSans-20"/>
      <use x="115.576172" xlink:href="#DejaVuSans-63"/>
      <use x="170.556641" xlink:href="#DejaVuSans-6f"/>
      <use x="231.738281" xlink:href="#DejaVuSans-6e"/>
      <use x="295.117188" xlink:href="#DejaVuSans-73"/>
      <use x="347.216797" xlink:href="#DejaVuSans-69"/>
      <use x="375" xlink:href="#DejaVuSans-73"/>
      <use x="427.099609" xlink:href="#DejaVuSans-74"/>
      <use x="466.308594" xlink:href="#DejaVuSans-65"/>
      <use x="527.832031" xlink:href="#DejaVuSans-6e"/>
      <use x="591.210938" xlink:href="#DejaVuSans-63"/>
      <use x="646.191406" xlink:href="#DejaVuSans-79"/>
     </g>
    </g>
    <g id="line2d_25">
     <path d="M 307.1825 83.926688 
L 327.1825 83.926688 
" style="fill:none;stroke:#2ca02c;stroke-linecap:square;stroke-width:1.5;"/>
    </g>
    <g id="line2d_26"/>
    <g id="text_21">
     <!-- + extra task -->
     <g transform="translate(335.1825 87.426688)scale(0.1 -0.1)">
      <defs>
       <path d="M 3513 3500 
L 2247 1797 
L 3578 0 
L 2900 0 
L 1881 1375 
L 863 0 
L 184 0 
L 1544 1831 
L 300 3500 
L 978 3500 
L 1906 2253 
L 2834 3500 
L 3513 3500 
z
" id="DejaVuSans-78" transform="scale(0.015625)"/>
       <path d="M 2631 2963 
Q 2534 3019 2420 3045 
Q 2306 3072 2169 3072 
Q 1681 3072 1420 2755 
Q 1159 2438 1159 1844 
L 1159 0 
L 581 0 
L 581 3500 
L 1159 3500 
L 1159 2956 
Q 1341 3275 1631 3429 
Q 1922 3584 2338 3584 
Q 2397 3584 2469 3576 
Q 2541 3569 2628 3553 
L 2631 2963 
z
" id="DejaVuSans-72" transform="scale(0.015625)"/>
       <path d="M 2194 1759 
Q 1497 1759 1228 1600 
Q 959 1441 959 1056 
Q 959 750 1161 570 
Q 1363 391 1709 391 
Q 2188 391 2477 730 
Q 2766 1069 2766 1631 
L 2766 1759 
L 2194 1759 
z
M 3341 1997 
L 3341 0 
L 2766 0 
L 2766 531 
Q 2569 213 2275 61 
Q 1981 -91 1556 -91 
Q 1019 -91 701 211 
Q 384 513 384 1019 
Q 384 1609 779 1909 
Q 1175 2209 1959 2209 
L 2766 2209 
L 2766 2266 
Q 2766 2663 2505 2880 
Q 2244 3097 1772 3097 
Q 1472 3097 1187 3025 
Q 903 2953 641 2809 
L 641 3341 
Q 956 3463 1253 3523 
Q 1550 3584 1831 3584 
Q 2591 3584 2966 3190 
Q 3341 2797 3341 1997 
z
" id="DejaVuSans-61" transform="scale(0.015625)"/>
       <path d="M 581 4863 
L 1159 4863 
L 1159 1991 
L 2875 3500 
L 3609 3500 
L 1753 1863 
L 3688 0 
L 2938 0 
L 1159 1709 
L 1159 0 
L 581 0 
L 581 4863 
z
" id="DejaVuSans-6b" transform="scale(0.015625)"/>
      </defs>
      <use xlink:href="#DejaVuSans-2b"/>
      <use x="83.789062" xlink:href="#DejaVuSans-20"/>
      <use x="115.576172" xlink:href="#DejaVuSans-65"/>
      <use x="175.349609" xlink:href="#DejaVuSans-78"/>
      <use x="234.529297" xlink:href="#DejaVuSans-74"/>
      <use x="273.738281" xlink:href="#DejaVuSans-72"/>
      <use x="314.851562" xlink:href="#DejaVuSans-61"/>
      <use x="376.130859" xlink:href="#DejaVuSans-20"/>
      <use x="407.917969" xlink:href="#DejaVuSans-74"/>
      <use x="447.126953" xlink:href="#DejaVuSans-61"/>
      <use x="508.40625" xlink:href="#DejaVuSans-73"/>
      <use x="560.505859" xlink:href="#DejaVuSans-6b"/>
     </g>
    </g>
    <g id="line2d_27">
     <path d="M 307.1825 98.604813 
L 327.1825 98.604813 
" style="fill:none;stroke:#d62728;stroke-linecap:square;stroke-width:1.5;"/>
    </g>
    <g id="line2d_28"/>
    <g id="text_22">
     <!-- + both -->
     <g transform="translate(335.1825 102.104813)scale(0.1 -0.1)">
      <defs>
       <path d="M 3116 1747 
Q 3116 2381 2855 2742 
Q 2594 3103 2138 3103 
Q 1681 3103 1420 2742 
Q 1159 2381 1159 1747 
Q 1159 1113 1420 752 
Q 1681 391 2138 391 
Q 2594 391 2855 752 
Q 3116 1113 3116 1747 
z
M 1159 2969 
Q 1341 3281 1617 3432 
Q 1894 3584 2278 3584 
Q 2916 3584 3314 3078 
Q 3713 2572 3713 1747 
Q 3713 922 3314 415 
Q 2916 -91 2278 -91 
Q 1894 -91 1617 61 
Q 1341 213 1159 525 
L 1159 0 
L 581 0 
L 581 4863 
L 1159 4863 
L 1159 2969 
z
" id="DejaVuSans-62" transform="scale(0.015625)"/>
      </defs>
      <use xlink:href="#DejaVuSans-2b"/>
      <use x="83.789062" xlink:href="#DejaVuSans-20"/>
      <use x="115.576172" xlink:href="#DejaVuSans-62"/>
      <use x="179.052734" xlink:href="#DejaVuSans-6f"/>
      <use x="240.234375" xlink:href="#DejaVuSans-74"/>
      <use x="279.443359" xlink:href="#DejaVuSans-68"/>
     </g>
    </g>
   </g>
  </g>
 </g>
 <defs>
  <clipPath id="p4797b0e3c0">
   <rect height="266.112" width="357.12" x="57.6" y="41.472"/>
  </clipPath>
 </defs>
</svg>
