<?xml version="1.0" encoding="utf-8" standalone="no"?>
<!DOCTYPE svg PUBLIC "-//W3C//DTD SVG 1.1//EN"
  "http://www.w3.org/Graphics/SVG/1.1/DTD/svg11.dtd">
<svg height="345.6pt" version="1.1" viewBox="0 0 460.8 345.6" width="460.8pt" xmlns="http://www.w3.org/2000/svg" xmlns:xlink="http://www.w3.org/1999/xlink">
 <metadata>
  <rdf:RDF xmlns:cc="http://creativecommons.org/ns#" xmlns:dc="http://purl.org/dc/elements/1.1/" xmlns:rdf="http://www.w3.org/1999/02/22-rdf-syntax-ns#">
   <cc:Work>
    <dc:type rdf:resource="http://purl.org/dc/dcmitype/StillImage"/>
    <dc:date>2021-07-16T12:31:03.472108</dc:date>
    <dc:format>image/svg+xml</dc:format>
    <dc:creator>
     <cc:Agent>
      <dc:title>Matplotlib v3.4.1, https://matplotlib.org/</dc:title>
     </cc:Agent>
    </dc:creator>
   </cc:Work>
  </rdf:RDF>
 </metadata>
 <defs>
  <style type="text/css">*{stroke-linecap:butt;stroke-linejoin:round;}</style>
 </defs>
 <g id="figure_1">
  <g id="patch_1">
   <path d="M 0 345.6 
L 460.8 345.6 
L 460.8 0 
L 0 0 
z
" style="fill:#ffffff;"/>
  </g>
  <g id="axes_1">
   <g id="patch_2">
    <path d="M 57.6 307.584 
L 414.72 307.584 
L 414.72 41.472 
L 57.6 41.472 
z
" style="fill:#ffffff;"/>
   </g>
   <g id="matplotlib.axis_1">
    <g id="xtick_1">
     <g id="line2d_1">
      <defs>
       <path d="M 0 0 
L 0 3.5 
" id="m9ceb98b3fe" style="stroke:#000000;stroke-width:0.8;"/>
      </defs>
      <g>
       <use style="stroke:#000000;stroke-width:0.8;" x="73.019057" xlink:href="#m9ceb98b3fe" y="307.584"/>
      </g>
     </g>
     <g id="text_1">
      <!-- 0 -->
      <g transform="translate(69.837807 322.182437)scale(0.1 -0.1)">
       <defs>
        <path d="M 2034 4250 
Q 1547 4250 1301 3770 
Q 1056 3291 1056 2328 
Q 1056 1369 1301 889 
Q 1547 409 2034 409 
Q 2525 409 2770 889 
Q 3016 1369 3016 2328 
Q 3016 3291 2770 3770 
Q 2525 4250 2034 4250 
z
M 2034 4750 
Q 2819 4750 3233 4129 
Q 3647 3509 3647 2328 
Q 3647 1150 3233 529 
Q 2819 -91 2034 -91 
Q 1250 -91 836 529 
Q 422 1150 422 2328 
Q 422 3509 836 4129 
Q 1250 4750 2034 4750 
z
" id="DejaVuSans-30" transform="scale(0.015625)"/>
       </defs>
       <use xlink:href="#DejaVuSans-30"/>
      </g>
     </g>
    </g>
    <g id="xtick_2">
     <g id="line2d_2">
      <g>
       <use style="stroke:#000000;stroke-width:0.8;" x="113.702584" xlink:href="#m9ceb98b3fe" y="307.584"/>
      </g>
     </g>
     <g id="text_2">
      <!-- 50 -->
      <g transform="translate(107.340084 322.182437)scale(0.1 -0.1)">
       <defs>
        <path d="M 691 4666 
L 3169 4666 
L 3169 4134 
L 1269 4134 
L 1269 2991 
Q 1406 3038 1543 3061 
Q 1681 3084 1819 3084 
Q 2600 3084 3056 2656 
Q 3513 2228 3513 1497 
Q 3513 744 3044 326 
Q 2575 -91 1722 -91 
Q 1428 -91 1123 -41 
Q 819 9 494 109 
L 494 744 
Q 775 591 1075 516 
Q 1375 441 1709 441 
Q 2250 441 2565 725 
Q 2881 1009 2881 1497 
Q 2881 1984 2565 2268 
Q 2250 2553 1709 2553 
Q 1456 2553 1204 2497 
Q 953 2441 691 2322 
L 691 4666 
z
" id="DejaVuSans-35" transform="scale(0.015625)"/>
       </defs>
       <use xlink:href="#DejaVuSans-35"/>
       <use x="63.623047" xlink:href="#DejaVuSans-30"/>
      </g>
     </g>
    </g>
    <g id="xtick_3">
     <g id="line2d_3">
      <g>
       <use style="stroke:#000000;stroke-width:0.8;" x="154.386111" xlink:href="#m9ceb98b3fe" y="307.584"/>
      </g>
     </g>
     <g id="text_3">
      <!-- 100 -->
      <g transform="translate(144.842361 322.182437)scale(0.1 -0.1)">
       <defs>
        <path d="M 794 531 
L 1825 531 
L 1825 4091 
L 703 3866 
L 703 4441 
L 1819 4666 
L 2450 4666 
L 2450 531 
L 3481 531 
L 3481 0 
L 794 0 
L 794 531 
z
" id="DejaVuSans-31" transform="scale(0.015625)"/>
       </defs>
       <use xlink:href="#DejaVuSans-31"/>
       <use x="63.623047" xlink:href="#DejaVuSans-30"/>
       <use x="127.246094" xlink:href="#DejaVuSans-30"/>
      </g>
     </g>
    </g>
    <g id="xtick_4">
     <g id="line2d_4">
      <g>
       <use style="stroke:#000000;stroke-width:0.8;" x="195.069638" xlink:href="#m9ceb98b3fe" y="307.584"/>
      </g>
     </g>
     <g id="text_4">
      <!-- 150 -->
      <g transform="translate(185.525888 322.182437)scale(0.1 -0.1)">
       <use xlink:href="#DejaVuSans-31"/>
       <use x="63.623047" xlink:href="#DejaVuSans-35"/>
       <use x="127.246094" xlink:href="#DejaVuSans-30"/>
      </g>
     </g>
    </g>
    <g id="xtick_5">
     <g id="line2d_5">
      <g>
       <use style="stroke:#000000;stroke-width:0.8;" x="235.753165" xlink:href="#m9ceb98b3fe" y="307.584"/>
      </g>
     </g>
     <g id="text_5">
      <!-- 200 -->
      <g transform="translate(226.209415 322.182437)scale(0.1 -0.1)">
       <defs>
        <path d="M 1228 531 
L 3431 531 
L 3431 0 
L 469 0 
L 469 531 
Q 828 903 1448 1529 
Q 2069 2156 2228 2338 
Q 2531 2678 2651 2914 
Q 2772 3150 2772 3378 
Q 2772 3750 2511 3984 
Q 2250 4219 1831 4219 
Q 1534 4219 1204 4116 
Q 875 4013 500 3803 
L 500 4441 
Q 881 4594 1212 4672 
Q 1544 4750 1819 4750 
Q 2544 4750 2975 4387 
Q 3406 4025 3406 3419 
Q 3406 3131 3298 2873 
Q 3191 2616 2906 2266 
Q 2828 2175 2409 1742 
Q 1991 1309 1228 531 
z
" id="DejaVuSans-32" transform="scale(0.015625)"/>
       </defs>
       <use xlink:href="#DejaVuSans-32"/>
       <use x="63.623047" xlink:href="#DejaVuSans-30"/>
       <use x="127.246094" xlink:href="#DejaVuSans-30"/>
      </g>
     </g>
    </g>
    <g id="xtick_6">
     <g id="line2d_6">
      <g>
       <use style="stroke:#000000;stroke-width:0.8;" x="276.436692" xlink:href="#m9ceb98b3fe" y="307.584"/>
      </g>
     </g>
     <g id="text_6">
      <!-- 250 -->
      <g transform="translate(266.892942 322.182437)scale(0.1 -0.1)">
       <use xlink:href="#DejaVuSans-32"/>
       <use x="63.623047" xlink:href="#DejaVuSans-35"/>
       <use x="127.246094" xlink:href="#DejaVuSans-30"/>
      </g>
     </g>
    </g>
    <g id="xtick_7">
     <g id="line2d_7">
      <g>
       <use style="stroke:#000000;stroke-width:0.8;" x="317.120219" xlink:href="#m9ceb98b3fe" y="307.584"/>
      </g>
     </g>
     <g id="text_7">
      <!-- 300 -->
      <g transform="translate(307.576469 322.182437)scale(0.1 -0.1)">
       <defs>
        <path d="M 2597 2516 
Q 3050 2419 3304 2112 
Q 3559 1806 3559 1356 
Q 3559 666 3084 287 
Q 2609 -91 1734 -91 
Q 1441 -91 1130 -33 
Q 819 25 488 141 
L 488 750 
Q 750 597 1062 519 
Q 1375 441 1716 441 
Q 2309 441 2620 675 
Q 2931 909 2931 1356 
Q 2931 1769 2642 2001 
Q 2353 2234 1838 2234 
L 1294 2234 
L 1294 2753 
L 1863 2753 
Q 2328 2753 2575 2939 
Q 2822 3125 2822 3475 
Q 2822 3834 2567 4026 
Q 2313 4219 1838 4219 
Q 1578 4219 1281 4162 
Q 984 4106 628 3988 
L 628 4550 
Q 988 4650 1302 4700 
Q 1616 4750 1894 4750 
Q 2613 4750 3031 4423 
Q 3450 4097 3450 3541 
Q 3450 3153 3228 2886 
Q 3006 2619 2597 2516 
z
" id="DejaVuSans-33" transform="scale(0.015625)"/>
       </defs>
       <use xlink:href="#DejaVuSans-33"/>
       <use x="63.623047" xlink:href="#DejaVuSans-30"/>
       <use x="127.246094" xlink:href="#DejaVuSans-30"/>
      </g>
     </g>
    </g>
    <g id="xtick_8">
     <g id="line2d_8">
      <g>
       <use style="stroke:#000000;stroke-width:0.8;" x="357.803746" xlink:href="#m9ceb98b3fe" y="307.584"/>
      </g>
     </g>
     <g id="text_8">
      <!-- 350 -->
      <g transform="translate(348.259996 322.182437)scale(0.1 -0.1)">
       <use xlink:href="#DejaVuSans-33"/>
       <use x="63.623047" xlink:href="#DejaVuSans-35"/>
       <use x="127.246094" xlink:href="#DejaVuSans-30"/>
      </g>
     </g>
    </g>
    <g id="xtick_9">
     <g id="line2d_9">
      <g>
       <use style="stroke:#000000;stroke-width:0.8;" x="398.487273" xlink:href="#m9ceb98b3fe" y="307.584"/>
      </g>
     </g>
     <g id="text_9">
      <!-- 400 -->
      <g transform="translate(388.943523 322.182437)scale(0.1 -0.1)">
       <defs>
        <path d="M 2419 4116 
L 825 1625 
L 2419 1625 
L 2419 4116 
z
M 2253 4666 
L 3047 4666 
L 3047 1625 
L 3713 1625 
L 3713 1100 
L 3047 1100 
L 3047 0 
L 2419 0 
L 2419 1100 
L 313 1100 
L 313 1709 
L 2253 4666 
z
" id="DejaVuSans-34" transform="scale(0.015625)"/>
       </defs>
       <use xlink:href="#DejaVuSans-34"/>
       <use x="63.623047" xlink:href="#DejaVuSans-30"/>
       <use x="127.246094" xlink:href="#DejaVuSans-30"/>
      </g>
     </g>
    </g>
    <g id="text_10">
     <!-- Epoch -->
     <g transform="translate(213.193594 339.659781)scale(0.15 -0.15)">
      <defs>
       <path d="M 628 4666 
L 3578 4666 
L 3578 4134 
L 1259 4134 
L 1259 2753 
L 3481 2753 
L 3481 2222 
L 1259 2222 
L 1259 531 
L 3634 531 
L 3634 0 
L 628 0 
L 628 4666 
z
" id="DejaVuSans-45" transform="scale(0.015625)"/>
       <path d="M 1159 525 
L 1159 -1331 
L 581 -1331 
L 581 3500 
L 1159 3500 
L 1159 2969 
Q 1341 3281 1617 3432 
Q 1894 3584 2278 3584 
Q 2916 3584 3314 3078 
Q 3713 2572 3713 1747 
Q 3713 922 3314 415 
Q 2916 -91 2278 -91 
Q 1894 -91 1617 61 
Q 1341 213 1159 525 
z
M 3116 1747 
Q 3116 2381 2855 2742 
Q 2594 3103 2138 3103 
Q 1681 3103 1420 2742 
Q 1159 2381 1159 1747 
Q 1159 1113 1420 752 
Q 1681 391 2138 391 
Q 2594 391 2855 752 
Q 3116 1113 3116 1747 
z
" id="DejaVuSans-70" transform="scale(0.015625)"/>
       <path d="M 1959 3097 
Q 1497 3097 1228 2736 
Q 959 2375 959 1747 
Q 959 1119 1226 758 
Q 1494 397 1959 397 
Q 2419 397 2687 759 
Q 2956 1122 2956 1747 
Q 2956 2369 2687 2733 
Q 2419 3097 1959 3097 
z
M 1959 3584 
Q 2709 3584 3137 3096 
Q 3566 2609 3566 1747 
Q 3566 888 3137 398 
Q 2709 -91 1959 -91 
Q 1206 -91 779 398 
Q 353 888 353 1747 
Q 353 2609 779 3096 
Q 1206 3584 1959 3584 
z
" id="DejaVuSans-6f" transform="scale(0.015625)"/>
       <path d="M 3122 3366 
L 3122 2828 
Q 2878 2963 2633 3030 
Q 2388 3097 2138 3097 
Q 1578 3097 1268 2742 
Q 959 2388 959 1747 
Q 959 1106 1268 751 
Q 1578 397 2138 397 
Q 2388 397 2633 464 
Q 2878 531 3122 666 
L 3122 134 
Q 2881 22 2623 -34 
Q 2366 -91 2075 -91 
Q 1284 -91 818 406 
Q 353 903 353 1747 
Q 353 2603 823 3093 
Q 1294 3584 2113 3584 
Q 2378 3584 2631 3529 
Q 2884 3475 3122 3366 
z
" id="DejaVuSans-63" transform="scale(0.015625)"/>
       <path d="M 3513 2113 
L 3513 0 
L 2938 0 
L 2938 2094 
Q 2938 2591 2744 2837 
Q 2550 3084 2163 3084 
Q 1697 3084 1428 2787 
Q 1159 2491 1159 1978 
L 1159 0 
L 581 0 
L 581 4863 
L 1159 4863 
L 1159 2956 
Q 1366 3272 1645 3428 
Q 1925 3584 2291 3584 
Q 2894 3584 3203 3211 
Q 3513 2838 3513 2113 
z
" id="DejaVuSans-68" transform="scale(0.015625)"/>
      </defs>
      <use xlink:href="#DejaVuSans-45"/>
      <use x="63.183594" xlink:href="#DejaVuSans-70"/>
      <use x="126.660156" xlink:href="#DejaVuSans-6f"/>
      <use x="187.841797" xlink:href="#DejaVuSans-63"/>
      <use x="242.822266" xlink:href="#DejaVuSans-68"/>
     </g>
    </g>
   </g>
   <g id="matplotlib.axis_2">
    <g id="ytick_1">
     <g id="line2d_10">
      <defs>
       <path d="M 0 0 
L -3.5 0 
" id="m5103862055" style="stroke:#000000;stroke-width:0.8;"/>
      </defs>
      <g>
       <use style="stroke:#000000;stroke-width:0.8;" x="57.6" xlink:href="#m5103862055" y="295.044158"/>
      </g>
     </g>
     <g id="text_11">
      <!-- −1200 -->
      <g transform="translate(16.770313 298.843377)scale(0.1 -0.1)">
       <defs>
        <path d="M 678 2272 
L 4684 2272 
L 4684 1741 
L 678 1741 
L 678 2272 
z
" id="DejaVuSans-2212" transform="scale(0.015625)"/>
       </defs>
       <use xlink:href="#DejaVuSans-2212"/>
       <use x="83.789062" xlink:href="#DejaVuSans-31"/>
       <use x="147.412109" xlink:href="#DejaVuSans-32"/>
       <use x="211.035156" xlink:href="#DejaVuSans-30"/>
       <use x="274.658203" xlink:href="#DejaVuSans-30"/>
      </g>
     </g>
    </g>
    <g id="ytick_2">
     <g id="line2d_11">
      <g>
       <use style="stroke:#000000;stroke-width:0.8;" x="57.6" xlink:href="#m5103862055" y="253.378067"/>
      </g>
     </g>
     <g id="text_12">
      <!-- −1000 -->
      <g transform="translate(16.770313 257.177286)scale(0.1 -0.1)">
       <use xlink:href="#DejaVuSans-2212"/>
       <use x="83.789062" xlink:href="#DejaVuSans-31"/>
       <use x="147.412109" xlink:href="#DejaVuSans-30"/>
       <use x="211.035156" xlink:href="#DejaVuSans-30"/>
       <use x="274.658203" xlink:href="#DejaVuSans-30"/>
      </g>
     </g>
    </g>
    <g id="ytick_3">
     <g id="line2d_12">
      <g>
       <use style="stroke:#000000;stroke-width:0.8;" x="57.6" xlink:href="#m5103862055" y="211.711976"/>
      </g>
     </g>
     <g id="text_13">
      <!-- −800 -->
      <g transform="translate(23.132812 215.511195)scale(0.1 -0.1)">
       <defs>
        <path d="M 2034 2216 
Q 1584 2216 1326 1975 
Q 1069 1734 1069 1313 
Q 1069 891 1326 650 
Q 1584 409 2034 409 
Q 2484 409 2743 651 
Q 3003 894 3003 1313 
Q 3003 1734 2745 1975 
Q 2488 2216 2034 2216 
z
M 1403 2484 
Q 997 2584 770 2862 
Q 544 3141 544 3541 
Q 544 4100 942 4425 
Q 1341 4750 2034 4750 
Q 2731 4750 3128 4425 
Q 3525 4100 3525 3541 
Q 3525 3141 3298 2862 
Q 3072 2584 2669 2484 
Q 3125 2378 3379 2068 
Q 3634 1759 3634 1313 
Q 3634 634 3220 271 
Q 2806 -91 2034 -91 
Q 1263 -91 848 271 
Q 434 634 434 1313 
Q 434 1759 690 2068 
Q 947 2378 1403 2484 
z
M 1172 3481 
Q 1172 3119 1398 2916 
Q 1625 2713 2034 2713 
Q 2441 2713 2670 2916 
Q 2900 3119 2900 3481 
Q 2900 3844 2670 4047 
Q 2441 4250 2034 4250 
Q 1625 4250 1398 4047 
Q 1172 3844 1172 3481 
z
" id="DejaVuSans-38" transform="scale(0.015625)"/>
       </defs>
       <use xlink:href="#DejaVuSans-2212"/>
       <use x="83.789062" xlink:href="#DejaVuSans-38"/>
       <use x="147.412109" xlink:href="#DejaVuSans-30"/>
       <use x="211.035156" xlink:href="#DejaVuSans-30"/>
      </g>
     </g>
    </g>
    <g id="ytick_4">
     <g id="line2d_13">
      <g>
       <use style="stroke:#000000;stroke-width:0.8;" x="57.6" xlink:href="#m5103862055" y="170.045885"/>
      </g>
     </g>
     <g id="text_14">
      <!-- −600 -->
      <g transform="translate(23.132812 173.845104)scale(0.1 -0.1)">
       <defs>
        <path d="M 2113 2584 
Q 1688 2584 1439 2293 
Q 1191 2003 1191 1497 
Q 1191 994 1439 701 
Q 1688 409 2113 409 
Q 2538 409 2786 701 
Q 3034 994 3034 1497 
Q 3034 2003 2786 2293 
Q 2538 2584 2113 2584 
z
M 3366 4563 
L 3366 3988 
Q 3128 4100 2886 4159 
Q 2644 4219 2406 4219 
Q 1781 4219 1451 3797 
Q 1122 3375 1075 2522 
Q 1259 2794 1537 2939 
Q 1816 3084 2150 3084 
Q 2853 3084 3261 2657 
Q 3669 2231 3669 1497 
Q 3669 778 3244 343 
Q 2819 -91 2113 -91 
Q 1303 -91 875 529 
Q 447 1150 447 2328 
Q 447 3434 972 4092 
Q 1497 4750 2381 4750 
Q 2619 4750 2861 4703 
Q 3103 4656 3366 4563 
z
" id="DejaVuSans-36" transform="scale(0.015625)"/>
       </defs>
       <use xlink:href="#DejaVuSans-2212"/>
       <use x="83.789062" xlink:href="#DejaVuSans-36"/>
       <use x="147.412109" xlink:href="#DejaVuSans-30"/>
       <use x="211.035156" xlink:href="#DejaVuSans-30"/>
      </g>
     </g>
    </g>
    <g id="ytick_5">
     <g id="line2d_14">
      <g>
       <use style="stroke:#000000;stroke-width:0.8;" x="57.6" xlink:href="#m5103862055" y="128.379794"/>
      </g>
     </g>
     <g id="text_15">
      <!-- −400 -->
      <g transform="translate(23.132812 132.179013)scale(0.1 -0.1)">
       <use xlink:href="#DejaVuSans-2212"/>
       <use x="83.789062" xlink:href="#DejaVuSans-34"/>
       <use x="147.412109" xlink:href="#DejaVuSans-30"/>
       <use x="211.035156" xlink:href="#DejaVuSans-30"/>
      </g>
     </g>
    </g>
    <g id="ytick_6">
     <g id="line2d_15">
      <g>
       <use style="stroke:#000000;stroke-width:0.8;" x="57.6" xlink:href="#m5103862055" y="86.713703"/>
      </g>
     </g>
     <g id="text_16">
      <!-- −200 -->
      <g transform="translate(23.132812 90.512922)scale(0.1 -0.1)">
       <use xlink:href="#DejaVuSans-2212"/>
       <use x="83.789062" xlink:href="#DejaVuSans-32"/>
       <use x="147.412109" xlink:href="#DejaVuSans-30"/>
       <use x="211.035156" xlink:href="#DejaVuSans-30"/>
      </g>
     </g>
    </g>
    <g id="ytick_7">
     <g id="line2d_16">
      <g>
       <use style="stroke:#000000;stroke-width:0.8;" x="57.6" xlink:href="#m5103862055" y="45.047613"/>
      </g>
     </g>
     <g id="text_17">
      <!-- 0 -->
      <g transform="translate(44.2375 48.846831)scale(0.1 -0.1)">
       <use xlink:href="#DejaVuSans-30"/>
      </g>
     </g>
    </g>
    <g id="text_18">
     <!-- Loss -->
     <g transform="translate(9.650781 190.978781)rotate(-90)scale(0.15 -0.15)">
      <defs>
       <path d="M 628 4666 
L 1259 4666 
L 1259 531 
L 3531 531 
L 3531 0 
L 628 0 
L 628 4666 
z
" id="DejaVuSans-4c" transform="scale(0.015625)"/>
       <path d="M 2834 3397 
L 2834 2853 
Q 2591 2978 2328 3040 
Q 2066 3103 1784 3103 
Q 1356 3103 1142 2972 
Q 928 2841 928 2578 
Q 928 2378 1081 2264 
Q 1234 2150 1697 2047 
L 1894 2003 
Q 2506 1872 2764 1633 
Q 3022 1394 3022 966 
Q 3022 478 2636 193 
Q 2250 -91 1575 -91 
Q 1294 -91 989 -36 
Q 684 19 347 128 
L 347 722 
Q 666 556 975 473 
Q 1284 391 1588 391 
Q 1994 391 2212 530 
Q 2431 669 2431 922 
Q 2431 1156 2273 1281 
Q 2116 1406 1581 1522 
L 1381 1569 
Q 847 1681 609 1914 
Q 372 2147 372 2553 
Q 372 3047 722 3315 
Q 1072 3584 1716 3584 
Q 2034 3584 2315 3537 
Q 2597 3491 2834 3397 
z
" id="DejaVuSans-73" transform="scale(0.015625)"/>
      </defs>
      <use xlink:href="#DejaVuSans-4c"/>
      <use x="53.962891" xlink:href="#DejaVuSans-6f"/>
      <use x="115.144531" xlink:href="#DejaVuSans-73"/>
      <use x="167.244141" xlink:href="#DejaVuSans-73"/>
     </g>
    </g>
   </g>
   <g id="line2d_17">
    <path clip-path="url(#p94f366e180)" d="M 73.832727 53.568 
L 74.646398 113.48665 
L 75.460068 134.216739 
L 76.273739 125.764401 
L 77.087409 148.610757 
L 77.90108 138.267459 
L 78.714751 154.350012 
L 79.528421 148.762845 
L 80.342092 155.304392 
L 81.155762 156.880932 
L 81.969433 164.175708 
L 82.783103 166.430417 
L 83.596774 171.129013 
L 84.410444 174.706364 
L 85.224115 174.665016 
L 86.037785 173.03755 
L 86.851456 164.072911 
L 87.665126 175.356437 
L 88.478797 180.133171 
L 89.292468 174.052958 
L 90.106138 191.409497 
L 90.919809 173.77698 
L 91.733479 193.235278 
L 92.54715 191.115979 
L 93.36082 191.210203 
L 94.174491 179.41443 
L 94.988161 197.027645 
L 95.801832 192.723011 
L 96.615502 200.024145 
L 97.429173 190.622293 
L 99.056514 202.18199 
L 99.870185 200.490284 
L 100.683855 205.550212 
L 101.497526 194.1936 
L 102.311196 203.700336 
L 103.124867 201.590995 
L 103.938537 202.784189 
L 104.752208 206.175883 
L 105.565878 203.899271 
L 106.379549 207.675272 
L 107.193219 210.912181 
L 108.00689 203.253458 
L 108.82056 202.349088 
L 109.634231 206.365887 
L 110.447902 209.696995 
L 111.261572 202.286818 
L 112.075243 202.690133 
L 112.888913 213.192158 
L 113.702584 214.288361 
L 114.516254 214.054639 
L 115.329925 206.945786 
L 116.143595 215.940371 
L 116.957266 211.651071 
L 117.770936 215.691087 
L 118.584607 217.446608 
L 119.398278 217.431595 
L 120.211948 217.251988 
L 121.025619 215.436583 
L 122.65296 215.037499 
L 124.280301 226.960667 
L 125.093971 219.093061 
L 125.907642 212.945944 
L 126.721312 228.772681 
L 127.534983 215.561099 
L 128.348653 221.802934 
L 129.162324 218.186241 
L 129.975995 232.143306 
L 130.789665 220.802424 
L 131.603336 217.533285 
L 132.417006 224.355367 
L 133.230677 220.982264 
L 134.044347 221.149575 
L 134.858018 231.000869 
L 135.671688 220.661216 
L 136.485359 217.978985 
L 137.299029 227.329801 
L 138.1127 230.917704 
L 138.92637 215.439517 
L 139.740041 216.036149 
L 140.553712 222.886689 
L 141.367382 228.664216 
L 142.181053 225.335114 
L 142.994723 223.172284 
L 143.808394 219.268526 
L 144.622064 220.855123 
L 145.435735 221.699539 
L 146.249405 225.335977 
L 147.063076 230.305516 
L 147.876746 226.369273 
L 148.690417 224.423257 
L 149.504087 219.961684 
L 150.317758 229.781928 
L 151.131429 232.69143 
L 151.945099 226.194954 
L 152.75877 233.76589 
L 153.57244 224.304296 
L 154.386111 228.729244 
L 155.199781 228.755168 
L 156.013452 220.55508 
L 157.640793 240.337016 
L 158.454463 223.45288 
L 159.268134 240.670156 
L 160.081805 229.47917 
L 160.895475 234.070025 
L 161.709146 234.77135 
L 162.522816 227.44941 
L 163.336487 223.70703 
L 164.150157 232.017614 
L 164.963828 226.859425 
L 165.777498 231.289982 
L 166.591169 224.503418 
L 167.404839 234.362596 
L 168.21851 237.105901 
L 169.03218 240.953008 
L 169.845851 239.867367 
L 170.659522 242.961295 
L 171.473192 231.850464 
L 172.286863 227.754075 
L 173.100533 236.055235 
L 173.914204 243.137911 
L 174.727874 234.303153 
L 175.541545 245.483998 
L 176.355215 239.249586 
L 177.168886 230.784821 
L 177.982556 233.230505 
L 178.796227 234.219719 
L 179.609897 233.873363 
L 180.423568 234.447167 
L 181.237239 235.797623 
L 182.050909 230.53383 
L 182.86458 227.394722 
L 183.67825 234.895245 
L 184.491921 230.730463 
L 185.305591 218.54055 
L 186.119262 242.129451 
L 186.932932 230.108281 
L 187.746603 236.700658 
L 188.560273 237.587743 
L 189.373944 244.200754 
L 190.187614 236.241899 
L 191.001285 233.202004 
L 191.814956 236.619122 
L 192.628626 237.866602 
L 193.442297 235.863767 
L 194.255967 235.46225 
L 195.069638 234.445274 
L 195.883308 229.41112 
L 196.696979 245.548073 
L 197.510649 240.977624 
L 198.32432 233.896112 
L 199.13799 239.898284 
L 199.951661 234.766431 
L 200.765332 235.686257 
L 201.579002 247.724967 
L 202.392673 243.922505 
L 203.206343 237.363321 
L 204.020014 237.849369 
L 204.833684 237.021609 
L 205.647355 238.95119 
L 206.461025 248.511798 
L 207.274696 243.225876 
L 208.088366 241.106751 
L 208.902037 228.676803 
L 209.715707 244.528595 
L 210.529378 233.723711 
L 211.343049 236.737377 
L 212.156719 227.798915 
L 212.97039 244.49837 
L 213.78406 238.539642 
L 214.597731 243.890055 
L 215.411401 236.681511 
L 216.225072 238.516212 
L 217.038742 245.835119 
L 217.852413 234.74102 
L 218.666083 237.725169 
L 219.479754 237.216449 
L 220.293424 243.763163 
L 221.107095 248.906052 
L 222.734436 229.623058 
L 223.548107 241.258976 
L 224.361777 241.374884 
L 225.175448 237.980073 
L 225.989118 243.015123 
L 226.802789 240.387376 
L 227.616459 241.078314 
L 228.43013 241.934172 
L 229.2438 244.523397 
L 230.057471 239.3485 
L 230.871141 244.499771 
L 231.684812 248.04899 
L 232.498483 245.293462 
L 233.312153 240.497075 
L 234.125824 247.828164 
L 234.939494 245.554954 
L 235.753165 239.420647 
L 236.566835 238.819809 
L 237.380506 240.819793 
L 238.194176 241.386902 
L 239.007847 238.255652 
L 239.821517 248.79144 
L 240.635188 241.787435 
L 241.448859 243.587742 
L 242.262529 244.488628 
L 243.0762 246.654652 
L 243.88987 245.671596 
L 244.703541 240.524636 
L 245.517211 245.671641 
L 246.330882 241.566186 
L 247.144552 256.546674 
L 247.958223 243.638187 
L 248.771893 251.763815 
L 249.585564 250.406699 
L 250.399234 248.427684 
L 251.212905 251.574864 
L 252.026576 244.529797 
L 252.840246 257.639247 
L 253.653917 245.111394 
L 254.467587 253.145514 
L 255.281258 246.702555 
L 256.094928 248.278091 
L 256.908599 254.223748 
L 257.722269 246.776176 
L 258.53594 244.416517 
L 259.34961 240.751613 
L 260.976951 252.573387 
L 261.790622 248.395221 
L 262.604293 246.095072 
L 263.417963 231.942539 
L 264.231634 242.901749 
L 265.045304 245.580434 
L 265.858975 238.076858 
L 266.672645 253.379033 
L 267.486316 235.548991 
L 268.299986 253.924022 
L 269.113657 241.591859 
L 269.927327 238.854663 
L 270.740998 245.545873 
L 271.554668 246.799003 
L 272.368339 234.706182 
L 273.18201 251.102984 
L 273.99568 252.654767 
L 274.809351 248.014644 
L 275.623021 249.295996 
L 277.250362 248.980346 
L 278.064033 240.484424 
L 278.877703 257.085912 
L 279.691374 251.957466 
L 280.505044 243.178363 
L 281.318715 240.092398 
L 282.132386 249.166446 
L 282.946056 247.828367 
L 283.759727 243.445888 
L 284.573397 246.873509 
L 285.387068 236.253957 
L 286.200738 246.092176 
L 287.014409 247.776113 
L 287.828079 250.2903 
L 288.64175 246.050846 
L 289.45542 236.58372 
L 290.269091 258.439437 
L 291.082761 245.575322 
L 291.896432 251.030776 
L 292.710103 252.522594 
L 293.523773 250.707295 
L 294.337444 251.025649 
L 295.151114 254.434362 
L 295.964785 245.862121 
L 296.778455 245.061662 
L 297.592126 248.977324 
L 298.405796 243.720086 
L 299.219467 253.452178 
L 300.033137 248.501148 
L 300.846808 245.68783 
L 301.660478 254.816077 
L 302.474149 251.018983 
L 303.28782 251.123997 
L 304.10149 248.763264 
L 304.915161 244.803197 
L 305.728831 249.69087 
L 306.542502 253.461273 
L 307.356172 249.17414 
L 308.169843 256.921266 
L 308.983513 254.425999 
L 309.797184 251.234259 
L 310.610854 245.088352 
L 311.424525 240.938766 
L 312.238195 252.695504 
L 313.051866 262.159226 
L 313.865537 255.798966 
L 314.679207 242.36718 
L 315.492878 251.561801 
L 316.306548 240.389092 
L 317.120219 244.134879 
L 317.933889 254.612167 
L 318.74756 258.213467 
L 320.374901 253.244559 
L 322.002242 249.636109 
L 322.815913 252.721877 
L 323.629583 255.050825 
L 324.443254 265.89515 
L 325.256924 257.039777 
L 326.070595 258.010628 
L 326.884265 247.837271 
L 327.697936 252.006185 
L 328.511606 257.6652 
L 329.325277 248.752873 
L 330.138947 251.113742 
L 330.952618 254.574433 
L 331.766288 256.383666 
L 332.579959 259.376851 
L 333.39363 252.34118 
L 334.2073 256.999864 
L 335.020971 251.409858 
L 335.834641 252.720943 
L 336.648312 249.690634 
L 337.461982 244.895909 
L 338.275653 260.278382 
L 339.089323 262.517651 
L 339.902994 261.915473 
L 340.716664 255.779957 
L 341.530335 254.276263 
L 342.344005 248.963724 
L 343.157676 252.010633 
L 343.971347 260.641785 
L 344.785017 248.443567 
L 345.598688 255.222998 
L 346.412358 243.388001 
L 347.226029 251.476189 
L 348.039699 258.398251 
L 348.85337 255.065836 
L 349.66704 245.718722 
L 350.480711 257.861565 
L 351.294381 252.61374 
L 352.108052 264.453062 
L 352.921722 258.49703 
L 353.735393 240.179392 
L 354.549064 258.145657 
L 355.362734 255.635014 
L 356.176405 256.521724 
L 356.990075 253.978516 
L 357.803746 256.637447 
L 358.617416 256.224771 
L 359.431087 254.625672 
L 360.244757 254.605869 
L 361.058428 245.889299 
L 361.872098 253.501587 
L 362.685769 255.945557 
L 363.49944 256.278582 
L 364.31311 253.885937 
L 365.126781 256.037854 
L 365.940451 258.680053 
L 366.754122 238.909816 
L 368.381463 258.054299 
L 369.195133 251.564089 
L 370.008804 258.040268 
L 370.822474 252.614661 
L 371.636145 253.511264 
L 372.449815 239.871796 
L 373.263486 254.779217 
L 374.077157 255.221825 
L 374.890827 262.648478 
L 375.704498 259.928207 
L 376.518168 258.667187 
L 377.331839 252.99523 
L 378.145509 252.104761 
L 378.95918 255.836635 
L 379.77285 251.058696 
L 380.586521 252.587046 
L 381.400191 258.193058 
L 382.213862 259.22652 
L 383.027532 251.564276 
L 383.841203 248.395523 
L 384.654874 254.056983 
L 385.468544 256.302326 
L 386.282215 255.079356 
L 387.095885 264.713647 
L 387.909556 253.592953 
L 388.723226 255.045489 
L 389.536897 267.288468 
L 390.350567 269.649644 
L 391.164238 253.069979 
L 391.977908 258.059261 
L 392.791579 251.005262 
L 393.605249 250.480795 
L 394.41892 256.452587 
L 395.232591 257.359871 
L 396.046261 251.025125 
L 396.859932 258.303692 
L 397.673602 252.411688 
L 398.487273 255.945378 
L 398.487273 255.945378 
" style="fill:none;stroke:#1f77b4;stroke-linecap:square;stroke-width:1.5;"/>
   </g>
   <g id="line2d_18">
    <path clip-path="url(#p94f366e180)" d="M 73.832727 69.803081 
L 74.646398 98.971217 
L 75.460068 115.362007 
L 76.273739 121.644301 
L 77.087409 134.544507 
L 77.90108 138.525418 
L 78.714751 139.245892 
L 79.528421 140.302271 
L 80.342092 137.878261 
L 81.155762 155.806002 
L 81.969433 148.901073 
L 83.596774 171.992464 
L 84.410444 153.998591 
L 85.224115 170.762582 
L 86.037785 156.586565 
L 86.851456 170.089464 
L 87.665126 171.549912 
L 88.478797 175.619817 
L 89.292468 177.556934 
L 90.106138 178.876327 
L 90.919809 180.784145 
L 91.733479 161.71088 
L 92.54715 188.478672 
L 93.36082 188.25572 
L 94.174491 196.142925 
L 94.988161 193.162934 
L 95.801832 191.771679 
L 96.615502 202.196858 
L 97.429173 197.181831 
L 98.242843 197.201745 
L 99.056514 200.763408 
L 99.870185 195.41139 
L 100.683855 199.2709 
L 101.497526 199.474296 
L 103.124867 217.987292 
L 103.938537 197.999531 
L 104.752208 216.870955 
L 105.565878 211.668769 
L 106.379549 213.334931 
L 107.193219 208.875465 
L 108.00689 219.865205 
L 108.82056 218.394144 
L 109.634231 211.170734 
L 110.447902 200.422867 
L 111.261572 212.634407 
L 112.075243 216.577509 
L 112.888913 211.995216 
L 113.702584 219.620812 
L 114.516254 211.042563 
L 115.329925 203.771936 
L 116.143595 208.77534 
L 116.957266 219.021395 
L 117.770936 221.397374 
L 118.584607 220.757306 
L 119.398278 217.043078 
L 120.211948 216.555532 
L 121.025619 229.86101 
L 121.839289 217.641768 
L 122.65296 214.210811 
L 123.46663 218.342086 
L 124.280301 213.353987 
L 125.093971 227.604241 
L 125.907642 217.948013 
L 126.721312 217.763383 
L 127.534983 216.954988 
L 128.348653 228.229933 
L 129.162324 224.022864 
L 129.975995 228.095673 
L 130.789665 224.860107 
L 131.603336 226.372024 
L 132.417006 226.782368 
L 133.230677 232.219297 
L 134.044347 221.252402 
L 134.858018 223.481694 
L 135.671688 234.30274 
L 136.485359 226.356265 
L 137.299029 229.504248 
L 138.1127 211.729065 
L 138.92637 231.837288 
L 139.740041 233.944717 
L 140.553712 223.384861 
L 142.181053 232.911646 
L 142.994723 227.229974 
L 143.808394 234.446739 
L 144.622064 228.51972 
L 145.435735 221.003788 
L 146.249405 229.962418 
L 147.063076 231.24042 
L 147.876746 232.222433 
L 148.690417 238.889646 
L 149.504087 230.767977 
L 150.317758 229.227614 
L 151.131429 234.257234 
L 151.945099 225.771224 
L 152.75877 230.55627 
L 153.57244 227.348882 
L 154.386111 231.809737 
L 155.199781 227.687589 
L 156.013452 235.447559 
L 156.827122 234.765469 
L 157.640793 239.908295 
L 158.454463 228.11978 
L 159.268134 230.79662 
L 160.081805 234.833238 
L 160.895475 236.965334 
L 161.709146 242.808461 
L 162.522816 227.415705 
L 163.336487 238.177247 
L 164.150157 230.870133 
L 164.963828 232.632954 
L 165.777498 236.171247 
L 166.591169 227.957807 
L 167.404839 234.752192 
L 168.21851 234.5349 
L 169.03218 237.187513 
L 169.845851 240.307913 
L 170.659522 241.490533 
L 171.473192 230.238304 
L 172.286863 231.828127 
L 173.100533 228.678759 
L 173.914204 237.47087 
L 174.727874 241.720339 
L 175.541545 234.618738 
L 176.355215 242.198933 
L 177.168886 236.810878 
L 177.982556 240.624679 
L 178.796227 232.209623 
L 179.609897 241.745634 
L 180.423568 242.928876 
L 181.237239 239.041821 
L 182.050909 227.939583 
L 182.86458 237.605853 
L 183.67825 234.936436 
L 184.491921 247.080258 
L 185.305591 244.384225 
L 186.119262 237.87404 
L 186.932932 233.846952 
L 187.746603 234.018188 
L 188.560273 231.454178 
L 189.373944 234.821598 
L 190.187614 232.298289 
L 191.001285 247.839095 
L 191.814956 249.958339 
L 192.628626 237.917284 
L 193.442297 239.791031 
L 194.255967 247.68097 
L 195.069638 241.870074 
L 195.883308 239.248663 
L 196.696979 235.318832 
L 197.510649 241.234523 
L 198.32432 235.854155 
L 199.13799 237.058878 
L 199.951661 233.036327 
L 200.765332 243.240061 
L 201.579002 245.142904 
L 202.392673 245.767775 
L 203.206343 238.554055 
L 204.020014 245.726136 
L 204.833684 230.28149 
L 205.647355 240.506973 
L 206.461025 241.655091 
L 207.274696 238.686776 
L 208.088366 243.567389 
L 208.902037 247.157398 
L 209.715707 246.794142 
L 210.529378 238.848624 
L 211.343049 243.113732 
L 212.156719 236.321872 
L 212.97039 243.971753 
L 213.78406 241.397716 
L 214.597731 239.767555 
L 215.411401 239.980633 
L 216.225072 233.579055 
L 217.038742 231.02749 
L 217.852413 242.090626 
L 218.666083 233.906371 
L 219.479754 241.112772 
L 220.293424 239.98605 
L 221.107095 232.564291 
L 221.920766 241.151164 
L 222.734436 240.363557 
L 223.548107 246.584409 
L 224.361777 237.710071 
L 225.175448 238.279814 
L 225.989118 238.093412 
L 226.802789 246.52116 
L 227.616459 237.864274 
L 228.43013 240.909408 
L 229.2438 236.386447 
L 230.057471 246.606015 
L 230.871141 243.796439 
L 231.684812 240.200453 
L 232.498483 240.207819 
L 233.312153 239.621628 
L 234.125824 239.269966 
L 234.939494 240.280161 
L 235.753165 235.473682 
L 236.566835 245.74948 
L 237.380506 239.611786 
L 238.194176 242.729017 
L 239.007847 240.4465 
L 239.821517 251.486831 
L 240.635188 249.824512 
L 241.448859 232.180806 
L 242.262529 249.003527 
L 243.0762 251.875628 
L 243.88987 236.335728 
L 244.703541 246.535762 
L 245.517211 237.885975 
L 246.330882 248.828578 
L 247.144552 254.107366 
L 247.958223 245.966805 
L 248.771893 249.205424 
L 249.585564 246.766255 
L 250.399234 243.885076 
L 251.212905 252.080813 
L 252.026576 247.897819 
L 252.840246 246.732991 
L 253.653917 253.331817 
L 254.467587 250.355501 
L 255.281258 244.396284 
L 256.094928 243.515665 
L 256.908599 242.154258 
L 257.722269 246.715838 
L 258.53594 254.429985 
L 259.34961 241.156212 
L 260.163281 248.643442 
L 260.976951 252.39303 
L 261.790622 249.907155 
L 262.604293 249.720225 
L 263.417963 240.822378 
L 264.231634 253.438246 
L 265.045304 252.054901 
L 265.858975 252.733856 
L 266.672645 246.526643 
L 267.486316 254.145667 
L 268.299986 250.631306 
L 269.113657 250.160447 
L 269.927327 256.328152 
L 270.740998 251.276857 
L 271.554668 252.518433 
L 272.368339 250.655634 
L 273.18201 243.316431 
L 273.99568 243.803337 
L 274.809351 249.904023 
L 275.623021 254.400798 
L 276.436692 246.572751 
L 277.250362 256.625164 
L 278.064033 246.320278 
L 278.877703 250.130743 
L 279.691374 244.76688 
L 280.505044 252.840227 
L 281.318715 247.437032 
L 282.132386 252.546721 
L 282.946056 255.738662 
L 283.759727 262.040343 
L 284.573397 248.567418 
L 285.387068 247.978186 
L 286.200738 258.125045 
L 287.014409 252.083633 
L 287.828079 249.839657 
L 288.64175 252.863806 
L 289.45542 259.348008 
L 290.269091 246.162249 
L 291.082761 254.654071 
L 291.896432 253.301509 
L 292.710103 254.110154 
L 293.523773 254.012906 
L 294.337444 245.524163 
L 295.964785 249.527535 
L 296.778455 250.00699 
L 297.592126 254.364234 
L 298.405796 249.004969 
L 299.219467 253.262751 
L 300.033137 256.223197 
L 300.846808 251.903893 
L 301.660478 249.34718 
L 302.474149 254.894793 
L 303.28782 255.969472 
L 304.10149 255.764968 
L 304.915161 247.404697 
L 305.728831 253.774093 
L 306.542502 246.346931 
L 307.356172 253.874093 
L 308.169843 249.512558 
L 308.983513 259.587738 
L 309.797184 255.237039 
L 310.610854 250.041933 
L 311.424525 257.538148 
L 312.238195 257.757734 
L 313.051866 258.694778 
L 313.865537 257.685003 
L 314.679207 240.697711 
L 315.492878 256.042226 
L 316.306548 266.806966 
L 317.120219 261.822588 
L 317.933889 243.863252 
L 318.74756 256.272901 
L 319.56123 248.494577 
L 320.374901 248.19733 
L 321.188571 252.94703 
L 322.002242 253.818851 
L 322.815913 250.004999 
L 323.629583 252.628527 
L 324.443254 254.673654 
L 325.256924 250.155828 
L 326.070595 249.409994 
L 326.884265 253.378637 
L 327.697936 245.683503 
L 328.511606 264.273064 
L 329.325277 249.842771 
L 330.138947 254.416302 
L 330.952618 259.968702 
L 331.766288 253.69375 
L 332.579959 254.416307 
L 333.39363 254.888824 
L 334.2073 262.497064 
L 335.020971 255.686592 
L 335.834641 251.374842 
L 336.648312 253.091615 
L 337.461982 252.442112 
L 338.275653 258.227112 
L 339.089323 250.971868 
L 339.902994 247.56172 
L 341.530335 261.455277 
L 342.344005 255.686072 
L 343.157676 256.357864 
L 343.971347 251.790439 
L 344.785017 253.34103 
L 345.598688 242.674621 
L 346.412358 255.928008 
L 347.226029 255.033428 
L 348.039699 246.169054 
L 348.85337 254.553712 
L 349.66704 264.587918 
L 350.480711 264.056299 
L 351.294381 249.739897 
L 352.108052 257.536852 
L 352.921722 259.469747 
L 353.735393 256.772264 
L 354.549064 258.870519 
L 355.362734 257.46983 
L 356.176405 257.444263 
L 356.990075 258.448734 
L 357.803746 251.314831 
L 358.617416 258.320003 
L 359.431087 259.064209 
L 360.244757 249.478602 
L 361.058428 263.134953 
L 361.872098 253.702727 
L 362.685769 254.97897 
L 363.49944 269.845676 
L 364.31311 255.459185 
L 365.126781 264.02225 
L 365.940451 266.47202 
L 366.754122 247.656973 
L 367.567792 253.308436 
L 368.381463 257.510507 
L 369.195133 263.452442 
L 370.008804 249.56 
L 370.822474 260.610656 
L 371.636145 260.117779 
L 372.449815 253.464935 
L 373.263486 255.826571 
L 374.077157 254.963813 
L 374.890827 249.395654 
L 375.704498 255.487635 
L 376.518168 255.496936 
L 377.331839 254.989941 
L 378.145509 259.720704 
L 378.95918 255.608237 
L 379.77285 256.941338 
L 380.586521 258.680423 
L 381.400191 261.934054 
L 382.213862 252.095914 
L 383.027532 257.00448 
L 383.841203 255.821781 
L 384.654874 260.891372 
L 385.468544 253.14228 
L 386.282215 254.181893 
L 387.095885 251.24026 
L 387.909556 252.090771 
L 388.723226 253.884957 
L 389.536897 252.907257 
L 390.350567 259.905196 
L 391.164238 255.298607 
L 391.977908 265.441956 
L 392.791579 253.962659 
L 393.605249 258.786396 
L 394.41892 259.955722 
L 395.232591 267.246926 
L 396.046261 263.042115 
L 396.859932 250.514996 
L 397.673602 250.500244 
L 398.487273 248.705033 
L 398.487273 248.705033 
" style="fill:none;stroke:#ff7f0e;stroke-dasharray:5.55,2.4;stroke-dashoffset:0;stroke-width:1.5;"/>
   </g>
   <g id="line2d_19">
    <path clip-path="url(#p94f366e180)" d="M 73.832727 70.85247 
L 74.646398 125.300464 
L 75.460068 148.52148 
L 76.273739 145.5396 
L 77.087409 134.458121 
L 77.90108 162.88192 
L 78.714751 152.188828 
L 79.528421 182.887433 
L 80.342092 187.6495 
L 81.155762 178.327788 
L 81.969433 195.270822 
L 82.783103 189.812181 
L 84.410444 203.755236 
L 85.224115 209.725179 
L 86.037785 204.275613 
L 86.851456 227.530819 
L 87.665126 218.264883 
L 88.478797 221.905036 
L 89.292468 229.863723 
L 90.106138 218.388534 
L 90.919809 228.088025 
L 91.733479 224.550879 
L 92.54715 224.027688 
L 93.36082 235.942569 
L 94.174491 235.200696 
L 94.988161 223.866493 
L 95.801832 222.221957 
L 96.615502 224.344304 
L 97.429173 244.368011 
L 98.242843 230.083545 
L 99.056514 231.133353 
L 99.870185 231.908653 
L 100.683855 229.297929 
L 101.497526 236.473408 
L 102.311196 238.572602 
L 103.124867 234.509884 
L 103.938537 233.771065 
L 104.752208 230.73142 
L 105.565878 238.837161 
L 106.379549 241.08157 
L 107.193219 241.298426 
L 108.82056 237.572304 
L 109.634231 234.730096 
L 110.447902 250.122303 
L 111.261572 238.363221 
L 112.075243 243.537 
L 112.888913 252.968888 
L 113.702584 237.491441 
L 114.516254 251.547538 
L 115.329925 241.199131 
L 116.143595 243.227776 
L 116.957266 244.207052 
L 117.770936 242.354721 
L 118.584607 247.768108 
L 119.398278 239.850338 
L 120.211948 250.277362 
L 121.025619 243.218509 
L 121.839289 249.760209 
L 122.65296 239.698161 
L 123.46663 240.427123 
L 124.280301 248.092646 
L 125.093971 247.021751 
L 125.907642 245.088227 
L 126.721312 232.820942 
L 127.534983 240.607182 
L 128.348653 251.838075 
L 129.162324 235.373777 
L 129.975995 255.598938 
L 130.789665 257.482019 
L 131.603336 244.872528 
L 132.417006 256.250155 
L 134.044347 249.00845 
L 134.858018 243.982951 
L 135.671688 252.300848 
L 136.485359 239.174234 
L 137.299029 256.174903 
L 138.1127 263.298971 
L 138.92637 246.947351 
L 139.740041 233.616138 
L 140.553712 249.597818 
L 141.367382 240.434404 
L 142.181053 243.19032 
L 142.994723 261.536779 
L 143.808394 247.237286 
L 144.622064 253.327456 
L 145.435735 246.366196 
L 146.249405 248.835279 
L 147.063076 244.024665 
L 147.876746 258.961021 
L 149.504087 238.586456 
L 150.317758 265.407338 
L 151.131429 248.215529 
L 151.945099 242.211402 
L 152.75877 242.401462 
L 153.57244 253.386134 
L 154.386111 261.166464 
L 155.199781 258.342009 
L 156.013452 251.689702 
L 156.827122 250.44964 
L 157.640793 258.179266 
L 158.454463 244.493541 
L 159.268134 255.634518 
L 160.081805 250.737902 
L 160.895475 262.81615 
L 161.709146 265.033497 
L 162.522816 252.406109 
L 163.336487 255.233564 
L 164.150157 249.468016 
L 164.963828 253.363554 
L 165.777498 244.847188 
L 166.591169 242.863007 
L 167.404839 247.493078 
L 168.21851 249.141757 
L 169.03218 262.294765 
L 169.845851 267.764566 
L 170.659522 265.306609 
L 172.286863 251.970012 
L 173.100533 268.392643 
L 173.914204 246.710201 
L 174.727874 253.046859 
L 175.541545 257.390625 
L 176.355215 262.781913 
L 177.168886 259.351062 
L 177.982556 269.617377 
L 178.796227 271.785412 
L 179.609897 256.732145 
L 180.423568 261.890026 
L 181.237239 262.896222 
L 182.050909 266.799095 
L 182.86458 251.261412 
L 183.67825 260.978832 
L 184.491921 268.643277 
L 185.305591 242.833285 
L 186.119262 261.05138 
L 186.932932 257.098655 
L 187.746603 272.28255 
L 188.560273 266.042325 
L 189.373944 265.227713 
L 190.187614 263.381236 
L 191.001285 257.175962 
L 191.814956 265.901263 
L 192.628626 260.253483 
L 193.442297 261.365494 
L 194.255967 270.568048 
L 195.069638 257.018404 
L 195.883308 262.33586 
L 196.696979 260.759955 
L 197.510649 275.98558 
L 198.32432 274.102877 
L 199.13799 265.85607 
L 199.951661 270.715184 
L 200.765332 262.769024 
L 201.579002 261.150678 
L 202.392673 258.40908 
L 203.206343 267.753802 
L 204.020014 245.522422 
L 204.833684 260.118386 
L 205.647355 267.633826 
L 206.461025 258.755114 
L 207.274696 261.993869 
L 208.088366 263.456698 
L 208.902037 265.208984 
L 209.715707 280.381099 
L 210.529378 254.679318 
L 211.343049 261.709778 
L 212.156719 270.243832 
L 212.97039 266.749152 
L 213.78406 269.95055 
L 214.597731 275.593627 
L 215.411401 280.439403 
L 216.225072 283.247472 
L 217.038742 280.743433 
L 217.852413 250.813918 
L 218.666083 273.324868 
L 219.479754 274.375185 
L 220.293424 253.063367 
L 221.107095 268.034628 
L 221.920766 259.820734 
L 222.734436 275.2805 
L 223.548107 270.617209 
L 224.361777 258.059486 
L 225.175448 262.819702 
L 225.989118 266.857634 
L 226.802789 261.793322 
L 227.616459 276.31091 
L 228.43013 274.788382 
L 229.2438 271.68659 
L 230.057471 270.295052 
L 230.871141 260.719659 
L 231.684812 259.33579 
L 232.498483 268.563297 
L 233.312153 271.191583 
L 234.125824 272.194346 
L 234.939494 264.757926 
L 235.753165 250.647176 
L 236.566835 268.685114 
L 237.380506 271.76966 
L 238.194176 261.025106 
L 239.821517 291.548089 
L 240.635188 256.614014 
L 241.448859 281.311972 
L 242.262529 269.547474 
L 243.0762 274.138334 
L 243.88987 263.839309 
L 244.703541 262.545436 
L 245.517211 266.979656 
L 246.330882 261.170919 
L 247.144552 265.018195 
L 247.958223 292.520425 
L 248.771893 268.454481 
L 249.585564 269.32449 
L 250.399234 264.180965 
L 251.212905 261.386041 
L 252.026576 249.709535 
L 252.840246 279.797447 
L 253.653917 265.59142 
L 254.467587 274.290189 
L 255.281258 259.490474 
L 256.094928 281.144997 
L 256.908599 258.688272 
L 257.722269 265.037016 
L 258.53594 273.53411 
L 259.34961 278.360878 
L 260.163281 267.088839 
L 260.976951 276.573332 
L 261.790622 263.731435 
L 262.604293 259.916933 
L 263.417963 263.985338 
L 264.231634 284.460828 
L 265.045304 281.611536 
L 265.858975 266.166058 
L 266.672645 282.160616 
L 267.486316 282.223269 
L 268.299986 273.75106 
L 269.113657 257.687164 
L 269.927327 287.07923 
L 270.740998 265.842206 
L 271.554668 269.52181 
L 272.368339 252.601441 
L 273.18201 264.02355 
L 274.809351 280.175501 
L 275.623021 271.569742 
L 276.436692 279.582796 
L 277.250362 267.523451 
L 278.064033 284.570681 
L 278.877703 269.98126 
L 279.691374 281.15376 
L 280.505044 265.086588 
L 281.318715 257.496775 
L 282.132386 263.810406 
L 282.946056 272.775111 
L 283.759727 265.713316 
L 284.573397 261.122344 
L 285.387068 280.237908 
L 286.200738 279.402105 
L 287.014409 274.619073 
L 287.828079 285.415932 
L 288.64175 280.299758 
L 289.45542 260.43211 
L 290.269091 264.453333 
L 291.082761 272.014629 
L 291.896432 277.829448 
L 292.710103 288.379423 
L 293.523773 262.574589 
L 294.337444 263.812109 
L 295.151114 272.915333 
L 295.964785 267.050262 
L 296.778455 273.538308 
L 297.592126 276.375849 
L 298.405796 262.501171 
L 299.219467 273.212184 
L 300.033137 280.958886 
L 300.846808 261.854677 
L 301.660478 272.054562 
L 302.474149 260.67474 
L 303.28782 271.42144 
L 304.10149 274.567194 
L 304.915161 266.364825 
L 305.728831 277.144288 
L 306.542502 266.640345 
L 307.356172 271.422442 
L 308.169843 267.455842 
L 308.983513 269.347825 
L 309.797184 277.782498 
L 310.610854 282.817676 
L 311.424525 270.997863 
L 312.238195 293.037571 
L 313.051866 252.267873 
L 313.865537 259.927923 
L 314.679207 280.753988 
L 315.492878 271.815324 
L 316.306548 285.768452 
L 317.120219 274.070486 
L 317.933889 269.440374 
L 318.74756 273.638255 
L 319.56123 275.453044 
L 320.374901 280.445394 
L 321.188571 279.159192 
L 322.002242 275.892935 
L 322.815913 283.289378 
L 323.629583 285.898022 
L 324.443254 259.248487 
L 325.256924 275.30313 
L 326.070595 285.767424 
L 326.884265 278.342564 
L 327.697936 268.368355 
L 329.325277 279.35344 
L 330.138947 267.249365 
L 330.952618 288.696867 
L 331.766288 269.249142 
L 332.579959 278.695908 
L 333.39363 277.078882 
L 334.2073 274.517074 
L 335.020971 277.591787 
L 335.834641 277.031186 
L 336.648312 259.124144 
L 337.461982 261.807722 
L 338.275653 266.021995 
L 339.089323 265.453418 
L 339.902994 267.106475 
L 340.716664 276.079839 
L 341.530335 268.400148 
L 342.344005 283.538823 
L 343.157676 281.369213 
L 343.971347 270.431393 
L 344.785017 281.652327 
L 345.598688 274.922934 
L 346.412358 274.802816 
L 347.226029 286.182175 
L 348.039699 266.202954 
L 348.85337 282.590118 
L 349.66704 269.586412 
L 350.480711 266.808751 
L 351.294381 270.957672 
L 352.108052 275.83839 
L 352.921722 270.895315 
L 353.735393 268.644432 
L 354.549064 267.599249 
L 355.362734 267.134512 
L 356.176405 282.802665 
L 356.990075 280.137227 
L 357.803746 259.840565 
L 358.617416 280.649971 
L 359.431087 295.488 
L 360.244757 265.005063 
L 361.058428 284.48897 
L 361.872098 274.549178 
L 362.685769 272.003473 
L 363.49944 275.171665 
L 364.31311 280.671642 
L 365.126781 270.224613 
L 365.940451 283.766926 
L 366.754122 278.574104 
L 367.567792 294.867641 
L 368.381463 273.260788 
L 369.195133 283.856037 
L 370.008804 289.275171 
L 370.822474 273.345582 
L 371.636145 280.658297 
L 372.449815 270.188533 
L 373.263486 270.403387 
L 374.077157 280.653037 
L 374.890827 272.905373 
L 375.704498 272.57954 
L 376.518168 270.991611 
L 377.331839 294.320221 
L 378.145509 272.223953 
L 378.95918 270.845561 
L 379.77285 269.687627 
L 380.586521 274.793555 
L 381.400191 255.616346 
L 382.213862 287.783104 
L 383.027532 271.748983 
L 383.841203 279.880266 
L 384.654874 266.499995 
L 385.468544 285.347417 
L 386.282215 272.096748 
L 387.095885 277.823894 
L 387.909556 277.979185 
L 388.723226 260.866414 
L 390.350567 290.093035 
L 391.164238 269.659131 
L 391.977908 275.977038 
L 392.791579 285.096138 
L 393.605249 267.335833 
L 394.41892 271.23945 
L 395.232591 291.293974 
L 396.859932 274.159516 
L 397.673602 264.892343 
L 398.487273 269.498288 
L 398.487273 269.498288 
" style="fill:none;stroke:#2ca02c;stroke-dasharray:9.6,2.4,1.5,2.4;stroke-dashoffset:0;stroke-width:1.5;"/>
   </g>
   <g id="line2d_20">
    <path clip-path="url(#p94f366e180)" d="M 73.832727 67.985121 
L 74.646398 110.597138 
L 75.460068 113.368057 
L 76.273739 125.976107 
L 77.087409 130.306293 
L 77.90108 139.087235 
L 78.714751 139.166586 
L 79.528421 163.182389 
L 80.342092 166.680575 
L 81.155762 176.381488 
L 81.969433 168.058224 
L 82.783103 187.804485 
L 83.596774 186.512666 
L 84.410444 205.027398 
L 85.224115 208.048472 
L 86.037785 209.06855 
L 86.851456 202.925096 
L 87.665126 210.080304 
L 88.478797 211.71017 
L 89.292468 207.049127 
L 90.106138 207.107707 
L 91.733479 228.771419 
L 92.54715 214.060873 
L 93.36082 226.12274 
L 94.174491 213.756122 
L 94.988161 235.679513 
L 95.801832 234.307971 
L 96.615502 227.799598 
L 97.429173 219.026775 
L 98.242843 232.250727 
L 99.056514 236.545303 
L 99.870185 219.054828 
L 100.683855 224.488158 
L 101.497526 226.722539 
L 102.311196 226.275218 
L 103.124867 240.4834 
L 103.938537 229.347595 
L 104.752208 234.399135 
L 105.565878 228.107048 
L 106.379549 240.949758 
L 107.193219 229.181218 
L 108.00689 231.912947 
L 108.82056 245.944078 
L 109.634231 238.652247 
L 110.447902 238.825466 
L 111.261572 233.048499 
L 112.075243 238.098268 
L 112.888913 246.675207 
L 113.702584 237.910074 
L 114.516254 247.919308 
L 115.329925 239.476401 
L 116.143595 248.514325 
L 116.957266 236.193277 
L 117.770936 235.817427 
L 118.584607 223.166189 
L 119.398278 231.438002 
L 120.211948 244.011817 
L 121.025619 234.256479 
L 121.839289 237.561085 
L 122.65296 248.770024 
L 123.46663 243.786958 
L 124.280301 226.698543 
L 125.093971 244.938359 
L 125.907642 231.955614 
L 126.721312 241.111364 
L 127.534983 241.087276 
L 128.348653 246.20279 
L 129.162324 268.104501 
L 129.975995 251.226027 
L 130.789665 252.454846 
L 131.603336 229.833978 
L 132.417006 244.086015 
L 133.230677 253.98276 
L 134.044347 242.297233 
L 134.858018 250.794097 
L 135.671688 244.110393 
L 137.299029 256.160861 
L 138.1127 239.761778 
L 138.92637 260.877813 
L 139.740041 251.210223 
L 140.553712 238.19152 
L 141.367382 247.294243 
L 142.181053 260.760222 
L 142.994723 257.590372 
L 143.808394 247.572359 
L 144.622064 255.012983 
L 145.435735 248.709828 
L 146.249405 255.850094 
L 147.063076 242.4634 
L 147.876746 259.453074 
L 148.690417 240.119089 
L 149.504087 252.813695 
L 150.317758 253.24764 
L 151.945099 263.28064 
L 152.75877 248.097537 
L 155.199781 256.064161 
L 156.013452 248.007139 
L 156.827122 261.871641 
L 157.640793 262.413663 
L 158.454463 260.655711 
L 159.268134 261.201876 
L 160.081805 270.846364 
L 160.895475 253.349909 
L 161.709146 259.169327 
L 162.522816 262.895341 
L 163.336487 265.625552 
L 164.150157 255.324279 
L 164.963828 254.791579 
L 165.777498 267.611248 
L 166.591169 264.46984 
L 167.404839 265.089211 
L 168.21851 259.631669 
L 169.03218 250.964058 
L 169.845851 248.1962 
L 170.659522 256.700241 
L 171.473192 266.623407 
L 172.286863 243.704496 
L 173.914204 267.934852 
L 175.541545 263.243547 
L 176.355215 258.841214 
L 177.168886 266.431985 
L 177.982556 261.010915 
L 178.796227 261.961852 
L 179.609897 255.937022 
L 180.423568 250.771226 
L 181.237239 277.262155 
L 182.050909 273.246269 
L 182.86458 278.078953 
L 183.67825 267.027911 
L 184.491921 269.55652 
L 185.305591 264.224944 
L 186.119262 267.995338 
L 186.932932 258.588126 
L 187.746603 255.618204 
L 188.560273 261.101417 
L 189.373944 257.393966 
L 190.187614 249.409053 
L 191.001285 252.460437 
L 191.814956 266.12095 
L 192.628626 256.029315 
L 193.442297 253.832349 
L 194.255967 251.204703 
L 195.069638 263.167565 
L 195.883308 265.365377 
L 196.696979 262.988407 
L 197.510649 266.305758 
L 198.32432 263.772384 
L 199.13799 268.552384 
L 199.951661 270.651439 
L 200.765332 270.268021 
L 201.579002 266.162955 
L 202.392673 262.662457 
L 203.206343 266.485543 
L 204.020014 259.779862 
L 204.833684 274.888552 
L 205.647355 260.603008 
L 206.461025 252.99862 
L 207.274696 262.445343 
L 208.088366 258.96043 
L 208.902037 280.043904 
L 209.715707 260.25857 
L 210.529378 267.233158 
L 211.343049 269.788447 
L 212.156719 265.355121 
L 212.97039 265.801065 
L 213.78406 261.294271 
L 214.597731 255.797317 
L 215.411401 275.239924 
L 216.225072 257.815568 
L 217.038742 267.391408 
L 217.852413 263.574212 
L 218.666083 263.508946 
L 219.479754 268.652517 
L 220.293424 257.8495 
L 221.107095 257.97563 
L 221.920766 268.461876 
L 222.734436 271.176806 
L 223.548107 259.244045 
L 224.361777 264.054248 
L 225.175448 268.035921 
L 225.989118 253.724125 
L 226.802789 255.114741 
L 227.616459 270.638586 
L 228.43013 272.274025 
L 229.2438 257.892942 
L 230.057471 272.57729 
L 230.871141 269.206941 
L 231.684812 267.174073 
L 232.498483 271.031192 
L 233.312153 263.495117 
L 234.125824 259.137828 
L 234.939494 263.304355 
L 235.753165 266.07689 
L 236.566835 266.338027 
L 237.380506 273.96741 
L 238.194176 266.651454 
L 239.007847 266.852798 
L 239.821517 269.858886 
L 240.635188 258.954353 
L 241.448859 268.193295 
L 242.262529 275.73501 
L 243.0762 259.776445 
L 243.88987 263.706393 
L 244.703541 270.664815 
L 245.517211 269.734259 
L 246.330882 259.397507 
L 247.144552 271.396845 
L 247.958223 254.998882 
L 248.771893 272.221934 
L 249.585564 259.99254 
L 250.399234 264.19896 
L 251.212905 270.110876 
L 252.026576 279.695134 
L 252.840246 260.347799 
L 253.653917 252.92418 
L 254.467587 271.604391 
L 255.281258 281.854863 
L 256.094928 276.943933 
L 256.908599 277.37301 
L 257.722269 279.812199 
L 258.53594 256.317016 
L 259.34961 258.776338 
L 260.163281 265.397409 
L 260.976951 261.548377 
L 261.790622 263.144665 
L 262.604293 259.105346 
L 263.417963 278.127165 
L 264.231634 262.426908 
L 265.045304 267.473149 
L 265.858975 278.227703 
L 266.672645 278.689984 
L 267.486316 271.757894 
L 268.299986 257.705057 
L 269.113657 262.173986 
L 269.927327 278.107282 
L 270.740998 257.492859 
L 271.554668 268.068185 
L 272.368339 267.100533 
L 273.18201 282.015725 
L 273.99568 261.989245 
L 274.809351 272.120143 
L 275.623021 269.433955 
L 276.436692 267.484491 
L 277.250362 267.103891 
L 278.064033 266.570227 
L 278.877703 254.49621 
L 279.691374 282.007489 
L 280.505044 267.274187 
L 281.318715 269.640929 
L 282.132386 263.919285 
L 282.946056 279.513344 
L 284.573397 251.736066 
L 285.387068 272.00981 
L 286.200738 270.662604 
L 287.014409 273.796555 
L 288.64175 264.640202 
L 289.45542 280.288128 
L 290.269091 258.130529 
L 291.082761 281.429699 
L 291.896432 268.137129 
L 292.710103 276.940661 
L 293.523773 271.066149 
L 294.337444 276.528042 
L 295.151114 266.064354 
L 295.964785 272.914484 
L 296.778455 273.313228 
L 297.592126 266.113521 
L 298.405796 278.977502 
L 299.219467 260.783861 
L 300.033137 251.631282 
L 300.846808 265.281826 
L 301.660478 271.336404 
L 302.474149 260.589861 
L 303.28782 265.989819 
L 304.10149 261.437847 
L 304.915161 271.591506 
L 305.728831 256.333301 
L 306.542502 269.732346 
L 307.356172 256.780724 
L 308.169843 259.547493 
L 308.983513 282.05924 
L 309.797184 252.505517 
L 310.610854 255.546421 
L 311.424525 254.825755 
L 312.238195 257.076243 
L 313.051866 268.074831 
L 313.865537 275.061656 
L 314.679207 276.513756 
L 315.492878 272.126415 
L 316.306548 265.171749 
L 317.120219 268.366238 
L 317.933889 282.669204 
L 318.74756 270.926261 
L 319.56123 275.942186 
L 320.374901 275.947487 
L 321.188571 262.241354 
L 322.002242 286.211769 
L 322.815913 266.135353 
L 323.629583 256.65028 
L 324.443254 265.917976 
L 325.256924 272.735675 
L 326.070595 250.454126 
L 326.884265 263.8547 
L 327.697936 264.541484 
L 328.511606 285.651899 
L 329.325277 265.205585 
L 330.138947 264.677513 
L 330.952618 278.326401 
L 331.766288 285.788437 
L 332.579959 275.891239 
L 333.39363 270.499479 
L 334.2073 261.052102 
L 335.020971 269.514193 
L 335.834641 266.026998 
L 336.648312 256.468149 
L 337.461982 279.287372 
L 338.275653 274.326805 
L 339.089323 273.789454 
L 339.902994 263.217637 
L 340.716664 266.182451 
L 341.530335 275.569064 
L 342.344005 254.339838 
L 343.157676 266.933894 
L 343.971347 273.760188 
L 344.785017 276.093065 
L 345.598688 265.729645 
L 346.412358 262.547881 
L 347.226029 272.256701 
L 348.039699 266.954308 
L 348.85337 263.909329 
L 349.66704 272.011093 
L 350.480711 263.079782 
L 351.294381 262.576899 
L 352.108052 253.856389 
L 353.735393 274.322865 
L 354.549064 276.119042 
L 355.362734 279.433644 
L 356.176405 271.585687 
L 356.990075 292.489967 
L 357.803746 270.157837 
L 358.617416 282.657836 
L 359.431087 283.833848 
L 360.244757 275.114227 
L 361.058428 283.902485 
L 361.872098 278.251755 
L 362.685769 275.975661 
L 363.49944 279.77786 
L 364.31311 273.224375 
L 365.126781 273.300352 
L 365.940451 271.341348 
L 366.754122 276.411485 
L 367.567792 270.319993 
L 368.381463 274.647137 
L 369.195133 258.991693 
L 370.008804 275.888234 
L 370.822474 278.009927 
L 371.636145 259.963497 
L 372.449815 263.060248 
L 373.263486 256.852494 
L 374.077157 278.725393 
L 374.890827 262.802117 
L 375.704498 257.664616 
L 376.518168 269.803181 
L 377.331839 252.525599 
L 378.145509 258.934844 
L 378.95918 273.29052 
L 379.77285 272.665266 
L 380.586521 281.761488 
L 381.400191 264.484771 
L 382.213862 278.611766 
L 383.027532 280.146502 
L 383.841203 265.719306 
L 384.654874 276.482768 
L 385.468544 264.926849 
L 386.282215 261.98587 
L 387.909556 275.532193 
L 388.723226 255.898476 
L 389.536897 255.244218 
L 390.350567 267.372214 
L 391.164238 267.249835 
L 391.977908 287.009904 
L 392.791579 269.268686 
L 393.605249 269.632792 
L 394.41892 273.250753 
L 395.232591 274.138874 
L 396.046261 262.620327 
L 396.859932 265.698004 
L 397.673602 281.542532 
L 398.487273 289.218505 
L 398.487273 289.218505 
" style="fill:none;stroke:#d62728;stroke-dasharray:1.5,2.475;stroke-dashoffset:0;stroke-width:1.5;"/>
   </g>
   <g id="patch_3">
    <path d="M 57.6 307.584 
L 57.6 41.472 
" style="fill:none;stroke:#000000;stroke-linecap:square;stroke-linejoin:miter;stroke-width:0.8;"/>
   </g>
   <g id="patch_4">
    <path d="M 414.72 307.584 
L 414.72 41.472 
" style="fill:none;stroke:#000000;stroke-linecap:square;stroke-linejoin:miter;stroke-width:0.8;"/>
   </g>
   <g id="patch_5">
    <path d="M 57.6 307.584 
L 414.72 307.584 
" style="fill:none;stroke:#000000;stroke-linecap:square;stroke-linejoin:miter;stroke-width:0.8;"/>
   </g>
   <g id="patch_6">
    <path d="M 57.6 41.472 
L 414.72 41.472 
" style="fill:none;stroke:#000000;stroke-linecap:square;stroke-linejoin:miter;stroke-width:0.8;"/>
   </g>
   <g id="legend_1">
    <g id="patch_7">
     <path d="M 305.1825 108.1845 
L 407.72 108.1845 
Q 409.72 108.1845 409.72 106.1845 
L 409.72 48.472 
Q 409.72 46.472 407.72 46.472 
L 305.1825 46.472 
Q 303.1825 46.472 303.1825 48.472 
L 303.1825 106.1845 
Q 303.1825 108.1845 305.1825 108.1845 
z
" style="fill:#ffffff;opacity:0.8;stroke:#cccccc;stroke-linejoin:miter;"/>
    </g>
    <g id="line2d_21">
     <path d="M 307.1825 54.570438 
L 327.1825 54.570438 
" style="fill:none;stroke:#1f77b4;stroke-linecap:square;stroke-width:1.5;"/>
    </g>
    <g id="line2d_22"/>
    <g id="text_19">
     <!-- UNetCNP -->
     <g transform="translate(335.1825 58.070438)scale(0.1 -0.1)">
      <defs>
       <path d="M 556 4666 
L 1191 4666 
L 1191 1831 
Q 1191 1081 1462 751 
Q 1734 422 2344 422 
Q 2950 422 3222 751 
Q 3494 1081 3494 1831 
L 3494 4666 
L 4128 4666 
L 4128 1753 
Q 4128 841 3676 375 
Q 3225 -91 2344 -91 
Q 1459 -91 1007 375 
Q 556 841 556 1753 
L 556 4666 
z
" id="DejaVuSans-55" transform="scale(0.015625)"/>
       <path d="M 628 4666 
L 1478 4666 
L 3547 763 
L 3547 4666 
L 4159 4666 
L 4159 0 
L 3309 0 
L 1241 3903 
L 1241 0 
L 628 0 
L 628 4666 
z
" id="DejaVuSans-4e" transform="scale(0.015625)"/>
       <path d="M 3597 1894 
L 3597 1613 
L 953 1613 
Q 991 1019 1311 708 
Q 1631 397 2203 397 
Q 2534 397 2845 478 
Q 3156 559 3463 722 
L 3463 178 
Q 3153 47 2828 -22 
Q 2503 -91 2169 -91 
Q 1331 -91 842 396 
Q 353 884 353 1716 
Q 353 2575 817 3079 
Q 1281 3584 2069 3584 
Q 2775 3584 3186 3129 
Q 3597 2675 3597 1894 
z
M 3022 2063 
Q 3016 2534 2758 2815 
Q 2500 3097 2075 3097 
Q 1594 3097 1305 2825 
Q 1016 2553 972 2059 
L 3022 2063 
z
" id="DejaVuSans-65" transform="scale(0.015625)"/>
       <path d="M 1172 4494 
L 1172 3500 
L 2356 3500 
L 2356 3053 
L 1172 3053 
L 1172 1153 
Q 1172 725 1289 603 
Q 1406 481 1766 481 
L 2356 481 
L 2356 0 
L 1766 0 
Q 1100 0 847 248 
Q 594 497 594 1153 
L 594 3053 
L 172 3053 
L 172 3500 
L 594 3500 
L 594 4494 
L 1172 4494 
z
" id="DejaVuSans-74" transform="scale(0.015625)"/>
       <path d="M 4122 4306 
L 4122 3641 
Q 3803 3938 3442 4084 
Q 3081 4231 2675 4231 
Q 1875 4231 1450 3742 
Q 1025 3253 1025 2328 
Q 1025 1406 1450 917 
Q 1875 428 2675 428 
Q 3081 428 3442 575 
Q 3803 722 4122 1019 
L 4122 359 
Q 3791 134 3420 21 
Q 3050 -91 2638 -91 
Q 1578 -91 968 557 
Q 359 1206 359 2328 
Q 359 3453 968 4101 
Q 1578 4750 2638 4750 
Q 3056 4750 3426 4639 
Q 3797 4528 4122 4306 
z
" id="DejaVuSans-43" transform="scale(0.015625)"/>
       <path d="M 1259 4147 
L 1259 2394 
L 2053 2394 
Q 2494 2394 2734 2622 
Q 2975 2850 2975 3272 
Q 2975 3691 2734 3919 
Q 2494 4147 2053 4147 
L 1259 4147 
z
M 628 4666 
L 2053 4666 
Q 2838 4666 3239 4311 
Q 3641 3956 3641 3272 
Q 3641 2581 3239 2228 
Q 2838 1875 2053 1875 
L 1259 1875 
L 1259 0 
L 628 0 
L 628 4666 
z
" id="DejaVuSans-50" transform="scale(0.015625)"/>
      </defs>
      <use xlink:href="#DejaVuSans-55"/>
      <use x="73.193359" xlink:href="#DejaVuSans-4e"/>
      <use x="147.998047" xlink:href="#DejaVuSans-65"/>
      <use x="209.521484" xlink:href="#DejaVuSans-74"/>
      <use x="248.730469" xlink:href="#DejaVuSans-43"/>
      <use x="318.554688" xlink:href="#DejaVuSans-4e"/>
      <use x="393.359375" xlink:href="#DejaVuSans-50"/>
     </g>
    </g>
    <g id="line2d_23">
     <path d="M 307.1825 69.248563 
L 327.1825 69.248563 
" style="fill:none;stroke:#ff7f0e;stroke-dasharray:5.55,2.4;stroke-dashoffset:0;stroke-width:1.5;"/>
    </g>
    <g id="line2d_24"/>
    <g id="text_20">
     <!-- + consistency -->
     <g transform="translate(335.1825 72.748563)scale(0.1 -0.1)">
      <defs>
       <path d="M 2944 4013 
L 2944 2272 
L 4684 2272 
L 4684 1741 
L 2944 1741 
L 2944 0 
L 2419 0 
L 2419 1741 
L 678 1741 
L 678 2272 
L 2419 2272 
L 2419 4013 
L 2944 4013 
z
" id="DejaVuSans-2b" transform="scale(0.015625)"/>
       <path id="DejaVuSans-20" transform="scale(0.015625)"/>
       <path d="M 3513 2113 
L 3513 0 
L 2938 0 
L 2938 2094 
Q 2938 2591 2744 2837 
Q 2550 3084 2163 3084 
Q 1697 3084 1428 2787 
Q 1159 2491 1159 1978 
L 1159 0 
L 581 0 
L 581 3500 
L 1159 3500 
L 1159 2956 
Q 1366 3272 1645 3428 
Q 1925 3584 2291 3584 
Q 2894 3584 3203 3211 
Q 3513 2838 3513 2113 
z
" id="DejaVuSans-6e" transform="scale(0.015625)"/>
       <path d="M 603 3500 
L 1178 3500 
L 1178 0 
L 603 0 
L 603 3500 
z
M 603 4863 
L 1178 4863 
L 1178 4134 
L 603 4134 
L 603 4863 
z
" id="DejaVuSans-69" transform="scale(0.015625)"/>
       <path d="M 2059 -325 
Q 1816 -950 1584 -1140 
Q 1353 -1331 966 -1331 
L 506 -1331 
L 506 -850 
L 844 -850 
Q 1081 -850 1212 -737 
Q 1344 -625 1503 -206 
L 1606 56 
L 191 3500 
L 800 3500 
L 1894 763 
L 2988 3500 
L 3597 3500 
L 2059 -325 
z
" id="DejaVuSans-79" transform="scale(0.015625)"/>
      </defs>
      <use xlink:href="#DejaVuSans-2b"/>
      <use x="83.789062" xlink:href="#DejaVuSans-20"/>
      <use x="115.576172" xlink:href="#DejaVuSans-63"/>
      <use x="170.556641" xlink:href="#DejaVuSans-6f"/>
      <use x="231.738281" xlink:href="#DejaVuSans-6e"/>
      <use x="295.117188" xlink:href="#DejaVuSans-73"/>
      <use x="347.216797" xlink:href="#DejaVuSans-69"/>
      <use x="375" xlink:href="#DejaVuSans-73"/>
      <use x="427.099609" xlink:href="#DejaVuSans-74"/>
      <use x="466.308594" xlink:href="#DejaVuSans-65"/>
      <use x="527.832031" xlink:href="#DejaVuSans-6e"/>
      <use x="591.210938" xlink:href="#DejaVuSans-63"/>
      <use x="646.191406" xlink:href="#DejaVuSans-79"/>
     </g>
    </g>
    <g id="line2d_25">
     <path d="M 307.1825 83.926688 
L 327.1825 83.926688 
" style="fill:none;stroke:#2ca02c;stroke-dasharray:9.6,2.4,1.5,2.4;stroke-dashoffset:0;stroke-width:1.5;"/>
    </g>
    <g id="line2d_26"/>
    <g id="text_21">
     <!-- + extra task -->
     <g transform="translate(335.1825 87.426688)scale(0.1 -0.1)">
      <defs>
       <path d="M 3513 3500 
L 2247 1797 
L 3578 0 
L 2900 0 
L 1881 1375 
L 863 0 
L 184 0 
L 1544 1831 
L 300 3500 
L 978 3500 
L 1906 2253 
L 2834 3500 
L 3513 3500 
z
" id="DejaVuSans-78" transform="scale(0.015625)"/>
       <path d="M 2631 2963 
Q 2534 3019 2420 3045 
Q 2306 3072 2169 3072 
Q 1681 3072 1420 2755 
Q 1159 2438 1159 1844 
L 1159 0 
L 581 0 
L 581 3500 
L 1159 3500 
L 1159 2956 
Q 1341 3275 1631 3429 
Q 1922 3584 2338 3584 
Q 2397 3584 2469 3576 
Q 2541 3569 2628 3553 
L 2631 2963 
z
" id="DejaVuSans-72" transform="scale(0.015625)"/>
       <path d="M 2194 1759 
Q 1497 1759 1228 1600 
Q 959 1441 959 1056 
Q 959 750 1161 570 
Q 1363 391 1709 391 
Q 2188 391 2477 730 
Q 2766 1069 2766 1631 
L 2766 1759 
L 2194 1759 
z
M 3341 1997 
L 3341 0 
L 2766 0 
L 2766 531 
Q 2569 213 2275 61 
Q 1981 -91 1556 -91 
Q 1019 -91 701 211 
Q 384 513 384 1019 
Q 384 1609 779 1909 
Q 1175 2209 1959 2209 
L 2766 2209 
L 2766 2266 
Q 2766 2663 2505 2880 
Q 2244 3097 1772 3097 
Q 1472 3097 1187 3025 
Q 903 2953 641 2809 
L 641 3341 
Q 956 3463 1253 3523 
Q 1550 3584 1831 3584 
Q 2591 3584 2966 3190 
Q 3341 2797 3341 1997 
z
" id="DejaVuSans-61" transform="scale(0.015625)"/>
       <path d="M 581 4863 
L 1159 4863 
L 1159 1991 
L 2875 3500 
L 3609 3500 
L 1753 1863 
L 3688 0 
L 2938 0 
L 1159 1709 
L 1159 0 
L 581 0 
L 581 4863 
z
" id="DejaVuSans-6b" transform="scale(0.015625)"/>
      </defs>
      <use xlink:href="#DejaVuSans-2b"/>
      <use x="83.789062" xlink:href="#DejaVuSans-20"/>
      <use x="115.576172" xlink:href="#DejaVuSans-65"/>
      <use x="175.349609" xlink:href="#DejaVuSans-78"/>
      <use x="234.529297" xlink:href="#DejaVuSans-74"/>
      <use x="273.738281" xlink:href="#DejaVuSans-72"/>
      <use x="314.851562" xlink:href="#DejaVuSans-61"/>
      <use x="376.130859" xlink:href="#DejaVuSans-20"/>
      <use x="407.917969" xlink:href="#DejaVuSans-74"/>
      <use x="447.126953" xlink:href="#DejaVuSans-61"/>
      <use x="508.40625" xlink:href="#DejaVuSans-73"/>
      <use x="560.505859" xlink:href="#DejaVuSans-6b"/>
     </g>
    </g>
    <g id="line2d_27">
     <path d="M 307.1825 98.604813 
L 327.1825 98.604813 
" style="fill:none;stroke:#d62728;stroke-dasharray:1.5,2.475;stroke-dashoffset:0;stroke-width:1.5;"/>
    </g>
    <g id="line2d_28"/>
    <g id="text_22">
     <!-- + both -->
     <g transform="translate(335.1825 102.104813)scale(0.1 -0.1)">
      <defs>
       <path d="M 3116 1747 
Q 3116 2381 2855 2742 
Q 2594 3103 2138 3103 
Q 1681 3103 1420 2742 
Q 1159 2381 1159 1747 
Q 1159 1113 1420 752 
Q 1681 391 2138 391 
Q 2594 391 2855 752 
Q 3116 1113 3116 1747 
z
M 1159 2969 
Q 1341 3281 1617 3432 
Q 1894 3584 2278 3584 
Q 2916 3584 3314 3078 
Q 3713 2572 3713 1747 
Q 3713 922 3314 415 
Q 2916 -91 2278 -91 
Q 1894 -91 1617 61 
Q 1341 213 1159 525 
L 1159 0 
L 581 0 
L 581 4863 
L 1159 4863 
L 1159 2969 
z
" id="DejaVuSans-62" transform="scale(0.015625)"/>
      </defs>
      <use xlink:href="#DejaVuSans-2b"/>
      <use x="83.789062" xlink:href="#DejaVuSans-20"/>
      <use x="115.576172" xlink:href="#DejaVuSans-62"/>
      <use x="179.052734" xlink:href="#DejaVuSans-6f"/>
      <use x="240.234375" xlink:href="#DejaVuSans-74"/>
      <use x="279.443359" xlink:href="#DejaVuSans-68"/>
     </g>
    </g>
   </g>
  </g>
 </g>
 <defs>
  <clipPath id="p94f366e180">
   <rect height="266.112" width="357.12" x="57.6" y="41.472"/>
  </clipPath>
 </defs>
</svg>
