<?xml version="1.0" encoding="utf-8" standalone="no"?>
<!DOCTYPE svg PUBLIC "-//W3C//DTD SVG 1.1//EN"
  "http://www.w3.org/Graphics/SVG/1.1/DTD/svg11.dtd">
<svg height="345.6pt" version="1.1" viewBox="0 0 460.8 345.6" width="460.8pt" xmlns="http://www.w3.org/2000/svg" xmlns:xlink="http://www.w3.org/1999/xlink">
 <metadata>
  <rdf:RDF xmlns:cc="http://creativecommons.org/ns#" xmlns:dc="http://purl.org/dc/elements/1.1/" xmlns:rdf="http://www.w3.org/1999/02/22-rdf-syntax-ns#">
   <cc:Work>
    <dc:type rdf:resource="http://purl.org/dc/dcmitype/StillImage"/>
    <dc:date>2021-07-01T14:36:14.616882</dc:date>
    <dc:format>image/svg+xml</dc:format>
    <dc:creator>
     <cc:Agent>
      <dc:title>Matplotlib v3.4.1, https://matplotlib.org/</dc:title>
     </cc:Agent>
    </dc:creator>
   </cc:Work>
  </rdf:RDF>
 </metadata>
 <defs>
  <style type="text/css">*{stroke-linecap:butt;stroke-linejoin:round;}</style>
 </defs>
 <g id="figure_1">
  <g id="patch_1">
   <path d="M 0 345.6 
L 460.8 345.6 
L 460.8 0 
L 0 0 
z
" style="fill:#ffffff;"/>
  </g>
  <g id="axes_1">
   <g id="patch_2">
    <path d="M 57.6 307.584 
L 414.72 307.584 
L 414.72 41.472 
L 57.6 41.472 
z
" style="fill:#ffffff;"/>
   </g>
   <g id="matplotlib.axis_1">
    <g id="xtick_1">
     <g id="line2d_1">
      <defs>
       <path d="M 0 0 
L 0 3.5 
" id="m5b682486ff" style="stroke:#000000;stroke-width:0.8;"/>
      </defs>
      <g>
       <use style="stroke:#000000;stroke-width:0.8;" x="72.201297" xlink:href="#m5b682486ff" y="307.584"/>
      </g>
     </g>
     <g id="text_1">
      <!-- 0 -->
      <g transform="translate(69.020047 322.182437)scale(0.1 -0.1)">
       <defs>
        <path d="M 2034 4250 
Q 1547 4250 1301 3770 
Q 1056 3291 1056 2328 
Q 1056 1369 1301 889 
Q 1547 409 2034 409 
Q 2525 409 2770 889 
Q 3016 1369 3016 2328 
Q 3016 3291 2770 3770 
Q 2525 4250 2034 4250 
z
M 2034 4750 
Q 2819 4750 3233 4129 
Q 3647 3509 3647 2328 
Q 3647 1150 3233 529 
Q 2819 -91 2034 -91 
Q 1250 -91 836 529 
Q 422 1150 422 2328 
Q 422 3509 836 4129 
Q 1250 4750 2034 4750 
z
" id="DejaVuSans-30" transform="scale(0.015625)"/>
       </defs>
       <use xlink:href="#DejaVuSans-30"/>
      </g>
     </g>
    </g>
    <g id="xtick_2">
     <g id="line2d_2">
      <g>
       <use style="stroke:#000000;stroke-width:0.8;" x="112.987044" xlink:href="#m5b682486ff" y="307.584"/>
      </g>
     </g>
     <g id="text_2">
      <!-- 25 -->
      <g transform="translate(106.624544 322.182437)scale(0.1 -0.1)">
       <defs>
        <path d="M 1228 531 
L 3431 531 
L 3431 0 
L 469 0 
L 469 531 
Q 828 903 1448 1529 
Q 2069 2156 2228 2338 
Q 2531 2678 2651 2914 
Q 2772 3150 2772 3378 
Q 2772 3750 2511 3984 
Q 2250 4219 1831 4219 
Q 1534 4219 1204 4116 
Q 875 4013 500 3803 
L 500 4441 
Q 881 4594 1212 4672 
Q 1544 4750 1819 4750 
Q 2544 4750 2975 4387 
Q 3406 4025 3406 3419 
Q 3406 3131 3298 2873 
Q 3191 2616 2906 2266 
Q 2828 2175 2409 1742 
Q 1991 1309 1228 531 
z
" id="DejaVuSans-32" transform="scale(0.015625)"/>
        <path d="M 691 4666 
L 3169 4666 
L 3169 4134 
L 1269 4134 
L 1269 2991 
Q 1406 3038 1543 3061 
Q 1681 3084 1819 3084 
Q 2600 3084 3056 2656 
Q 3513 2228 3513 1497 
Q 3513 744 3044 326 
Q 2575 -91 1722 -91 
Q 1428 -91 1123 -41 
Q 819 9 494 109 
L 494 744 
Q 775 591 1075 516 
Q 1375 441 1709 441 
Q 2250 441 2565 725 
Q 2881 1009 2881 1497 
Q 2881 1984 2565 2268 
Q 2250 2553 1709 2553 
Q 1456 2553 1204 2497 
Q 953 2441 691 2322 
L 691 4666 
z
" id="DejaVuSans-35" transform="scale(0.015625)"/>
       </defs>
       <use xlink:href="#DejaVuSans-32"/>
       <use x="63.623047" xlink:href="#DejaVuSans-35"/>
      </g>
     </g>
    </g>
    <g id="xtick_3">
     <g id="line2d_3">
      <g>
       <use style="stroke:#000000;stroke-width:0.8;" x="153.772791" xlink:href="#m5b682486ff" y="307.584"/>
      </g>
     </g>
     <g id="text_3">
      <!-- 50 -->
      <g transform="translate(147.410291 322.182437)scale(0.1 -0.1)">
       <use xlink:href="#DejaVuSans-35"/>
       <use x="63.623047" xlink:href="#DejaVuSans-30"/>
      </g>
     </g>
    </g>
    <g id="xtick_4">
     <g id="line2d_4">
      <g>
       <use style="stroke:#000000;stroke-width:0.8;" x="194.558538" xlink:href="#m5b682486ff" y="307.584"/>
      </g>
     </g>
     <g id="text_4">
      <!-- 75 -->
      <g transform="translate(188.196038 322.182437)scale(0.1 -0.1)">
       <defs>
        <path d="M 525 4666 
L 3525 4666 
L 3525 4397 
L 1831 0 
L 1172 0 
L 2766 4134 
L 525 4134 
L 525 4666 
z
" id="DejaVuSans-37" transform="scale(0.015625)"/>
       </defs>
       <use xlink:href="#DejaVuSans-37"/>
       <use x="63.623047" xlink:href="#DejaVuSans-35"/>
      </g>
     </g>
    </g>
    <g id="xtick_5">
     <g id="line2d_5">
      <g>
       <use style="stroke:#000000;stroke-width:0.8;" x="235.344285" xlink:href="#m5b682486ff" y="307.584"/>
      </g>
     </g>
     <g id="text_5">
      <!-- 100 -->
      <g transform="translate(225.800535 322.182437)scale(0.1 -0.1)">
       <defs>
        <path d="M 794 531 
L 1825 531 
L 1825 4091 
L 703 3866 
L 703 4441 
L 1819 4666 
L 2450 4666 
L 2450 531 
L 3481 531 
L 3481 0 
L 794 0 
L 794 531 
z
" id="DejaVuSans-31" transform="scale(0.015625)"/>
       </defs>
       <use xlink:href="#DejaVuSans-31"/>
       <use x="63.623047" xlink:href="#DejaVuSans-30"/>
       <use x="127.246094" xlink:href="#DejaVuSans-30"/>
      </g>
     </g>
    </g>
    <g id="xtick_6">
     <g id="line2d_6">
      <g>
       <use style="stroke:#000000;stroke-width:0.8;" x="276.130032" xlink:href="#m5b682486ff" y="307.584"/>
      </g>
     </g>
     <g id="text_6">
      <!-- 125 -->
      <g transform="translate(266.586282 322.182437)scale(0.1 -0.1)">
       <use xlink:href="#DejaVuSans-31"/>
       <use x="63.623047" xlink:href="#DejaVuSans-32"/>
       <use x="127.246094" xlink:href="#DejaVuSans-35"/>
      </g>
     </g>
    </g>
    <g id="xtick_7">
     <g id="line2d_7">
      <g>
       <use style="stroke:#000000;stroke-width:0.8;" x="316.915779" xlink:href="#m5b682486ff" y="307.584"/>
      </g>
     </g>
     <g id="text_7">
      <!-- 150 -->
      <g transform="translate(307.372029 322.182437)scale(0.1 -0.1)">
       <use xlink:href="#DejaVuSans-31"/>
       <use x="63.623047" xlink:href="#DejaVuSans-35"/>
       <use x="127.246094" xlink:href="#DejaVuSans-30"/>
      </g>
     </g>
    </g>
    <g id="xtick_8">
     <g id="line2d_8">
      <g>
       <use style="stroke:#000000;stroke-width:0.8;" x="357.701526" xlink:href="#m5b682486ff" y="307.584"/>
      </g>
     </g>
     <g id="text_8">
      <!-- 175 -->
      <g transform="translate(348.157776 322.182437)scale(0.1 -0.1)">
       <use xlink:href="#DejaVuSans-31"/>
       <use x="63.623047" xlink:href="#DejaVuSans-37"/>
       <use x="127.246094" xlink:href="#DejaVuSans-35"/>
      </g>
     </g>
    </g>
    <g id="xtick_9">
     <g id="line2d_9">
      <g>
       <use style="stroke:#000000;stroke-width:0.8;" x="398.487273" xlink:href="#m5b682486ff" y="307.584"/>
      </g>
     </g>
     <g id="text_9">
      <!-- 200 -->
      <g transform="translate(388.943523 322.182437)scale(0.1 -0.1)">
       <use xlink:href="#DejaVuSans-32"/>
       <use x="63.623047" xlink:href="#DejaVuSans-30"/>
       <use x="127.246094" xlink:href="#DejaVuSans-30"/>
      </g>
     </g>
    </g>
    <g id="text_10">
     <!-- Epoch -->
     <g transform="translate(213.193594 339.659781)scale(0.15 -0.15)">
      <defs>
       <path d="M 628 4666 
L 3578 4666 
L 3578 4134 
L 1259 4134 
L 1259 2753 
L 3481 2753 
L 3481 2222 
L 1259 2222 
L 1259 531 
L 3634 531 
L 3634 0 
L 628 0 
L 628 4666 
z
" id="DejaVuSans-45" transform="scale(0.015625)"/>
       <path d="M 1159 525 
L 1159 -1331 
L 581 -1331 
L 581 3500 
L 1159 3500 
L 1159 2969 
Q 1341 3281 1617 3432 
Q 1894 3584 2278 3584 
Q 2916 3584 3314 3078 
Q 3713 2572 3713 1747 
Q 3713 922 3314 415 
Q 2916 -91 2278 -91 
Q 1894 -91 1617 61 
Q 1341 213 1159 525 
z
M 3116 1747 
Q 3116 2381 2855 2742 
Q 2594 3103 2138 3103 
Q 1681 3103 1420 2742 
Q 1159 2381 1159 1747 
Q 1159 1113 1420 752 
Q 1681 391 2138 391 
Q 2594 391 2855 752 
Q 3116 1113 3116 1747 
z
" id="DejaVuSans-70" transform="scale(0.015625)"/>
       <path d="M 1959 3097 
Q 1497 3097 1228 2736 
Q 959 2375 959 1747 
Q 959 1119 1226 758 
Q 1494 397 1959 397 
Q 2419 397 2687 759 
Q 2956 1122 2956 1747 
Q 2956 2369 2687 2733 
Q 2419 3097 1959 3097 
z
M 1959 3584 
Q 2709 3584 3137 3096 
Q 3566 2609 3566 1747 
Q 3566 888 3137 398 
Q 2709 -91 1959 -91 
Q 1206 -91 779 398 
Q 353 888 353 1747 
Q 353 2609 779 3096 
Q 1206 3584 1959 3584 
z
" id="DejaVuSans-6f" transform="scale(0.015625)"/>
       <path d="M 3122 3366 
L 3122 2828 
Q 2878 2963 2633 3030 
Q 2388 3097 2138 3097 
Q 1578 3097 1268 2742 
Q 959 2388 959 1747 
Q 959 1106 1268 751 
Q 1578 397 2138 397 
Q 2388 397 2633 464 
Q 2878 531 3122 666 
L 3122 134 
Q 2881 22 2623 -34 
Q 2366 -91 2075 -91 
Q 1284 -91 818 406 
Q 353 903 353 1747 
Q 353 2603 823 3093 
Q 1294 3584 2113 3584 
Q 2378 3584 2631 3529 
Q 2884 3475 3122 3366 
z
" id="DejaVuSans-63" transform="scale(0.015625)"/>
       <path d="M 3513 2113 
L 3513 0 
L 2938 0 
L 2938 2094 
Q 2938 2591 2744 2837 
Q 2550 3084 2163 3084 
Q 1697 3084 1428 2787 
Q 1159 2491 1159 1978 
L 1159 0 
L 581 0 
L 581 4863 
L 1159 4863 
L 1159 2956 
Q 1366 3272 1645 3428 
Q 1925 3584 2291 3584 
Q 2894 3584 3203 3211 
Q 3513 2838 3513 2113 
z
" id="DejaVuSans-68" transform="scale(0.015625)"/>
      </defs>
      <use xlink:href="#DejaVuSans-45"/>
      <use x="63.183594" xlink:href="#DejaVuSans-70"/>
      <use x="126.660156" xlink:href="#DejaVuSans-6f"/>
      <use x="187.841797" xlink:href="#DejaVuSans-63"/>
      <use x="242.822266" xlink:href="#DejaVuSans-68"/>
     </g>
    </g>
   </g>
   <g id="matplotlib.axis_2">
    <g id="ytick_1">
     <g id="line2d_10">
      <defs>
       <path d="M 0 0 
L -3.5 0 
" id="m53ae75b601" style="stroke:#000000;stroke-width:0.8;"/>
      </defs>
      <g>
       <use style="stroke:#000000;stroke-width:0.8;" x="57.6" xlink:href="#m53ae75b601" y="304.168478"/>
      </g>
     </g>
     <g id="text_11">
      <!-- 0 -->
      <g transform="translate(44.2375 307.967697)scale(0.1 -0.1)">
       <use xlink:href="#DejaVuSans-30"/>
      </g>
     </g>
    </g>
    <g id="ytick_2">
     <g id="line2d_11">
      <g>
       <use style="stroke:#000000;stroke-width:0.8;" x="57.6" xlink:href="#m53ae75b601" y="248.412852"/>
      </g>
     </g>
     <g id="text_12">
      <!-- 2 -->
      <g transform="translate(44.2375 252.21207)scale(0.1 -0.1)">
       <use xlink:href="#DejaVuSans-32"/>
      </g>
     </g>
    </g>
    <g id="ytick_3">
     <g id="line2d_12">
      <g>
       <use style="stroke:#000000;stroke-width:0.8;" x="57.6" xlink:href="#m53ae75b601" y="192.657225"/>
      </g>
     </g>
     <g id="text_13">
      <!-- 4 -->
      <g transform="translate(44.2375 196.456444)scale(0.1 -0.1)">
       <defs>
        <path d="M 2419 4116 
L 825 1625 
L 2419 1625 
L 2419 4116 
z
M 2253 4666 
L 3047 4666 
L 3047 1625 
L 3713 1625 
L 3713 1100 
L 3047 1100 
L 3047 0 
L 2419 0 
L 2419 1100 
L 313 1100 
L 313 1709 
L 2253 4666 
z
" id="DejaVuSans-34" transform="scale(0.015625)"/>
       </defs>
       <use xlink:href="#DejaVuSans-34"/>
      </g>
     </g>
    </g>
    <g id="ytick_4">
     <g id="line2d_13">
      <g>
       <use style="stroke:#000000;stroke-width:0.8;" x="57.6" xlink:href="#m53ae75b601" y="136.901599"/>
      </g>
     </g>
     <g id="text_14">
      <!-- 6 -->
      <g transform="translate(44.2375 140.700817)scale(0.1 -0.1)">
       <defs>
        <path d="M 2113 2584 
Q 1688 2584 1439 2293 
Q 1191 2003 1191 1497 
Q 1191 994 1439 701 
Q 1688 409 2113 409 
Q 2538 409 2786 701 
Q 3034 994 3034 1497 
Q 3034 2003 2786 2293 
Q 2538 2584 2113 2584 
z
M 3366 4563 
L 3366 3988 
Q 3128 4100 2886 4159 
Q 2644 4219 2406 4219 
Q 1781 4219 1451 3797 
Q 1122 3375 1075 2522 
Q 1259 2794 1537 2939 
Q 1816 3084 2150 3084 
Q 2853 3084 3261 2657 
Q 3669 2231 3669 1497 
Q 3669 778 3244 343 
Q 2819 -91 2113 -91 
Q 1303 -91 875 529 
Q 447 1150 447 2328 
Q 447 3434 972 4092 
Q 1497 4750 2381 4750 
Q 2619 4750 2861 4703 
Q 3103 4656 3366 4563 
z
" id="DejaVuSans-36" transform="scale(0.015625)"/>
       </defs>
       <use xlink:href="#DejaVuSans-36"/>
      </g>
     </g>
    </g>
    <g id="ytick_5">
     <g id="line2d_14">
      <g>
       <use style="stroke:#000000;stroke-width:0.8;" x="57.6" xlink:href="#m53ae75b601" y="81.145972"/>
      </g>
     </g>
     <g id="text_15">
      <!-- 8 -->
      <g transform="translate(44.2375 84.945191)scale(0.1 -0.1)">
       <defs>
        <path d="M 2034 2216 
Q 1584 2216 1326 1975 
Q 1069 1734 1069 1313 
Q 1069 891 1326 650 
Q 1584 409 2034 409 
Q 2484 409 2743 651 
Q 3003 894 3003 1313 
Q 3003 1734 2745 1975 
Q 2488 2216 2034 2216 
z
M 1403 2484 
Q 997 2584 770 2862 
Q 544 3141 544 3541 
Q 544 4100 942 4425 
Q 1341 4750 2034 4750 
Q 2731 4750 3128 4425 
Q 3525 4100 3525 3541 
Q 3525 3141 3298 2862 
Q 3072 2584 2669 2484 
Q 3125 2378 3379 2068 
Q 3634 1759 3634 1313 
Q 3634 634 3220 271 
Q 2806 -91 2034 -91 
Q 1263 -91 848 271 
Q 434 634 434 1313 
Q 434 1759 690 2068 
Q 947 2378 1403 2484 
z
M 1172 3481 
Q 1172 3119 1398 2916 
Q 1625 2713 2034 2713 
Q 2441 2713 2670 2916 
Q 2900 3119 2900 3481 
Q 2900 3844 2670 4047 
Q 2441 4250 2034 4250 
Q 1625 4250 1398 4047 
Q 1172 3844 1172 3481 
z
" id="DejaVuSans-38" transform="scale(0.015625)"/>
       </defs>
       <use xlink:href="#DejaVuSans-38"/>
      </g>
     </g>
    </g>
    <g id="text_16">
     <!-- Loss -->
     <g transform="translate(37.117969 190.978781)rotate(-90)scale(0.15 -0.15)">
      <defs>
       <path d="M 628 4666 
L 1259 4666 
L 1259 531 
L 3531 531 
L 3531 0 
L 628 0 
L 628 4666 
z
" id="DejaVuSans-4c" transform="scale(0.015625)"/>
       <path d="M 2834 3397 
L 2834 2853 
Q 2591 2978 2328 3040 
Q 2066 3103 1784 3103 
Q 1356 3103 1142 2972 
Q 928 2841 928 2578 
Q 928 2378 1081 2264 
Q 1234 2150 1697 2047 
L 1894 2003 
Q 2506 1872 2764 1633 
Q 3022 1394 3022 966 
Q 3022 478 2636 193 
Q 2250 -91 1575 -91 
Q 1294 -91 989 -36 
Q 684 19 347 128 
L 347 722 
Q 666 556 975 473 
Q 1284 391 1588 391 
Q 1994 391 2212 530 
Q 2431 669 2431 922 
Q 2431 1156 2273 1281 
Q 2116 1406 1581 1522 
L 1381 1569 
Q 847 1681 609 1914 
Q 372 2147 372 2553 
Q 372 3047 722 3315 
Q 1072 3584 1716 3584 
Q 2034 3584 2315 3537 
Q 2597 3491 2834 3397 
z
" id="DejaVuSans-73" transform="scale(0.015625)"/>
      </defs>
      <use xlink:href="#DejaVuSans-4c"/>
      <use x="53.962891" xlink:href="#DejaVuSans-6f"/>
      <use x="115.144531" xlink:href="#DejaVuSans-73"/>
      <use x="167.244141" xlink:href="#DejaVuSans-73"/>
     </g>
    </g>
   </g>
   <g id="line2d_15">
    <path clip-path="url(#pf3e1457177)" d="M 73.832727 239.611824 
L 75.464157 239.712553 
L 77.095587 239.403972 
L 78.727017 239.605297 
L 88.515596 240.016296 
L 90.147026 240.492265 
L 93.409886 240.333591 
L 95.041316 240.752671 
L 96.672746 239.910376 
L 98.304175 241.251558 
L 99.935605 240.526448 
L 101.567035 241.986012 
L 103.198465 241.313484 
L 104.829895 242.536277 
L 108.092755 243.705864 
L 109.724185 242.740068 
L 111.355614 245.370389 
L 112.987044 243.992903 
L 114.618474 245.900268 
L 116.249904 246.47448 
L 117.881334 248.448647 
L 119.512764 251.070626 
L 121.144194 247.270376 
L 122.775624 252.757477 
L 124.407053 252.556807 
L 126.038483 252.243945 
L 127.669913 254.797166 
L 129.301343 255.364871 
L 130.932773 255.53848 
L 132.564203 254.912035 
L 134.195633 258.050638 
L 135.827063 257.701273 
L 137.458492 257.766835 
L 139.089922 260.684548 
L 140.721352 262.178093 
L 142.352782 261.892113 
L 143.984212 268.169524 
L 145.615642 264.462173 
L 147.247072 265.867445 
L 148.878502 265.867116 
L 150.509931 262.535191 
L 152.141361 270.532187 
L 155.404221 265.928032 
L 157.035651 275.197364 
L 158.667081 267.714605 
L 160.298511 272.706897 
L 161.929941 275.044742 
L 163.56137 273.007247 
L 165.1928 270.707633 
L 166.82423 274.496584 
L 168.45566 265.230266 
L 170.08709 281.893255 
L 171.71852 272.222095 
L 173.34995 275.22846 
L 174.98138 282.035632 
L 176.61281 283.044519 
L 178.244239 261.096257 
L 179.875669 273.949504 
L 181.507099 281.297625 
L 183.138529 274.289284 
L 184.769959 272.823419 
L 186.401389 282.427837 
L 188.032819 281.236125 
L 189.664249 274.013922 
L 191.295678 280.873365 
L 192.927108 281.754524 
L 194.558538 266.536716 
L 196.189968 281.976193 
L 197.821398 282.572482 
L 199.452828 270.119919 
L 201.084258 273.989523 
L 202.715688 280.750871 
L 204.347117 277.701154 
L 205.978547 283.365676 
L 207.609977 275.825277 
L 209.241407 270.063104 
L 212.504267 282.89971 
L 214.135697 273.291385 
L 215.767127 279.517168 
L 217.398556 282.301956 
L 219.029986 285.98014 
L 220.661416 286.003262 
L 222.292846 282.905793 
L 223.924276 278.205228 
L 225.555706 284.754806 
L 227.187136 282.01077 
L 228.818566 269.474485 
L 230.449995 280.126042 
L 232.081425 285.335881 
L 233.712855 281.584357 
L 235.344285 289.04064 
L 236.975715 275.726 
L 238.607145 286.351699 
L 240.238575 276.548326 
L 241.870005 281.769165 
L 243.501434 275.237357 
L 245.132864 282.665114 
L 246.764294 280.860947 
L 248.395724 274.160476 
L 250.027154 280.505913 
L 251.658584 282.455999 
L 253.290014 276.73801 
L 254.921444 278.077736 
L 256.552873 278.940184 
L 258.184303 277.785891 
L 259.815733 284.944819 
L 261.447163 277.145394 
L 263.078593 281.007553 
L 264.710023 287.320713 
L 267.972883 285.821416 
L 269.604312 283.221292 
L 271.235742 282.825248 
L 272.867172 276.927572 
L 274.498602 274.426363 
L 276.130032 277.852807 
L 277.761462 285.823726 
L 279.392892 283.94205 
L 281.024322 287.143276 
L 282.655751 294.688056 
L 284.287181 284.997957 
L 285.918611 277.077358 
L 287.550041 286.879608 
L 289.181471 286.835061 
L 290.812901 283.003352 
L 292.444331 280.808793 
L 294.075761 287.869398 
L 295.70719 282.943312 
L 297.33862 289.047936 
L 298.97005 275.733584 
L 300.60148 284.38512 
L 302.23291 285.995969 
L 303.86434 288.689974 
L 305.49577 283.985929 
L 307.1272 288.710939 
L 308.75863 281.775656 
L 310.390059 290.038484 
L 312.021489 289.902619 
L 313.652919 287.31792 
L 315.284349 295.488 
L 316.915779 283.938811 
L 318.547209 284.863018 
L 320.178639 289.671133 
L 321.810069 283.963551 
L 323.441498 291.200866 
L 325.072928 281.05041 
L 326.704358 293.341376 
L 328.335788 289.36655 
L 329.967218 285.880238 
L 331.598648 276.102935 
L 333.230078 282.732736 
L 334.861508 286.337013 
L 336.492937 279.552335 
L 338.124367 282.111129 
L 339.755797 288.098075 
L 341.387227 285.049596 
L 343.018657 284.446805 
L 344.650087 281.24017 
L 346.281517 289.008191 
L 347.912947 284.046765 
L 349.544376 284.687114 
L 351.175806 278.825245 
L 352.807236 289.569622 
L 354.438666 289.01061 
L 356.070096 279.550408 
L 357.701526 285.556657 
L 359.332956 285.606133 
L 360.964386 286.736841 
L 362.595815 286.499464 
L 364.227245 289.367039 
L 365.858675 277.705152 
L 367.490105 287.774328 
L 369.121535 284.50033 
L 370.752965 289.272868 
L 372.384395 287.940046 
L 374.015825 289.413201 
L 375.647254 277.588837 
L 377.278684 288.801264 
L 378.910114 283.705901 
L 380.541544 289.646669 
L 382.172974 287.926646 
L 383.804404 280.910039 
L 385.435834 292.944748 
L 387.067264 277.504842 
L 388.698693 282.76066 
L 390.330123 279.965675 
L 391.961553 288.697489 
L 393.592983 290.832882 
L 395.224413 279.441493 
L 396.855843 283.599443 
L 398.487273 285.022996 
L 398.487273 285.022996 
" style="fill:none;stroke:#1f77b4;stroke-linecap:square;stroke-width:1.5;"/>
   </g>
   <g id="line2d_16">
    <path clip-path="url(#pf3e1457177)" d="M 73.832727 239.43553 
L 75.464157 239.651897 
L 77.095587 239.436634 
L 78.727017 239.438714 
L 80.358447 239.988759 
L 81.989877 239.919216 
L 83.621307 240.249924 
L 85.252736 239.882606 
L 86.884166 240.39129 
L 88.515596 239.911114 
L 90.147026 239.574185 
L 91.778456 239.634635 
L 93.409886 240.565264 
L 95.041316 240.28959 
L 96.672746 240.861921 
L 98.304175 240.252256 
L 99.935605 240.346831 
L 101.567035 241.157867 
L 103.198465 240.895221 
L 104.829895 241.737271 
L 106.461325 241.163617 
L 108.092755 241.942251 
L 109.724185 241.855174 
L 111.355614 241.288048 
L 112.987044 241.017631 
L 114.618474 238.608429 
L 116.249904 238.317328 
L 117.881334 242.452071 
L 119.512764 235.053833 
L 121.144194 242.699976 
L 122.775624 244.468261 
L 124.407053 240.491035 
L 126.038483 236.942714 
L 127.669913 232.531493 
L 129.301343 244.414909 
L 130.932773 228.707132 
L 132.564203 238.561477 
L 134.195633 238.002998 
L 135.827063 239.531221 
L 137.458492 240.451993 
L 139.089922 222.00967 
L 140.721352 235.484891 
L 142.352782 234.112251 
L 143.984212 228.145622 
L 145.615642 225.855639 
L 147.247072 245.156734 
L 148.878502 206.270941 
L 150.509931 220.470068 
L 152.141361 199.68691 
L 153.772791 198.843019 
L 155.404221 217.320981 
L 157.035651 216.249072 
L 158.667081 234.997031 
L 160.298511 220.332869 
L 161.929941 250.59942 
L 163.56137 217.326657 
L 165.1928 188.718483 
L 166.82423 235.711786 
L 168.45566 204.947565 
L 170.08709 176.420766 
L 171.71852 204.736489 
L 173.34995 192.16801 
L 174.98138 193.133513 
L 176.61281 232.807845 
L 178.244239 194.516017 
L 179.875669 195.63713 
L 181.507099 207.387946 
L 183.138529 187.034384 
L 184.769959 181.842228 
L 186.401389 166.222094 
L 188.032819 182.139371 
L 189.664249 186.466885 
L 191.295678 178.899877 
L 192.927108 199.616596 
L 194.558538 175.119031 
L 196.189968 188.305531 
L 197.821398 173.7082 
L 199.452828 170.999635 
L 201.084258 206.402603 
L 202.715688 164.004725 
L 204.347117 192.502413 
L 205.978547 185.820026 
L 207.609977 190.791209 
L 209.241407 197.726804 
L 210.872837 201.578157 
L 212.504267 218.039125 
L 214.135697 208.478977 
L 215.767127 175.785684 
L 217.398556 197.375505 
L 219.029986 210.705671 
L 220.661416 148.49733 
L 222.292846 200.611982 
L 223.924276 157.21816 
L 225.555706 180.753265 
L 227.187136 200.095323 
L 228.818566 164.044153 
L 230.449995 185.516144 
L 232.081425 184.509438 
L 233.712855 224.975279 
L 235.344285 216.68445 
L 236.975715 148.438415 
L 238.607145 197.118542 
L 240.238575 144.215651 
L 241.870005 187.199871 
L 243.501434 162.423834 
L 245.132864 199.641766 
L 246.764294 209.20636 
L 248.395724 187.858614 
L 250.027154 213.025723 
L 251.658584 145.043683 
L 253.290014 160.077721 
L 254.921444 129.561851 
L 256.552873 226.833306 
L 258.184303 210.626902 
L 259.815733 187.665079 
L 261.447163 159.817002 
L 263.078593 223.252024 
L 264.710023 136.187024 
L 266.341453 220.768068 
L 267.972883 186.642049 
L 269.604312 159.553891 
L 271.235742 172.264135 
L 272.867172 158.213579 
L 274.498602 169.1419 
L 276.130032 170.267739 
L 277.761462 159.107984 
L 279.392892 195.788706 
L 281.024322 136.127989 
L 282.655751 143.569829 
L 284.287181 148.764151 
L 285.918611 122.443487 
L 287.550041 90.47882 
L 289.181471 117.607802 
L 290.812901 165.437717 
L 292.444331 182.968107 
L 294.075761 163.267406 
L 295.70719 139.747668 
L 297.33862 168.74599 
L 298.97005 102.938129 
L 300.60148 138.287412 
L 302.23291 104.957801 
L 303.86434 55.278087 
L 305.49577 109.414286 
L 307.1272 198.841477 
L 308.75863 158.916616 
L 310.390059 99.964459 
L 312.021489 132.975339 
L 313.652919 114.656291 
L 315.284349 186.384467 
L 316.915779 138.488485 
L 318.547209 154.132534 
L 320.178639 205.216047 
L 321.810069 144.950857 
L 323.441498 94.843794 
L 325.072928 207.713005 
L 326.704358 105.566855 
L 328.335788 119.78432 
L 329.967218 61.432377 
L 331.598648 162.792228 
L 333.230078 56.810286 
L 336.492937 138.224961 
L 338.124367 109.183835 
L 339.755797 191.755163 
L 341.387227 204.628688 
L 343.018657 83.651298 
L 344.650087 126.849723 
L 346.281517 164.18526 
L 347.912947 221.568889 
L 349.544376 179.481347 
L 351.175806 144.046203 
L 352.807236 129.242575 
L 354.438666 176.025905 
L 356.070096 76.48799 
L 357.701526 146.81791 
L 359.332956 109.156717 
L 360.964386 103.186299 
L 362.595815 158.80712 
L 364.227245 156.681168 
L 365.858675 134.525802 
L 367.490105 145.118058 
L 369.121535 90.490159 
L 370.752965 71.203181 
L 372.384395 111.642183 
L 374.015825 127.723617 
L 375.647254 162.240176 
L 377.278684 192.45243 
L 378.910114 112.26647 
L 380.541544 155.826284 
L 382.172974 161.626988 
L 383.804404 71.200336 
L 385.435834 135.090403 
L 387.067264 170.038047 
L 388.698693 97.967558 
L 390.330123 148.139784 
L 391.961553 106.179365 
L 393.592983 85.604996 
L 395.224413 132.687316 
L 396.855843 112.403948 
L 398.487273 53.568 
L 398.487273 53.568 
" style="fill:none;stroke:#ff7f0e;stroke-linecap:square;stroke-width:1.5;"/>
   </g>
   <g id="patch_3">
    <path d="M 57.6 307.584 
L 57.6 41.472 
" style="fill:none;stroke:#000000;stroke-linecap:square;stroke-linejoin:miter;stroke-width:0.8;"/>
   </g>
   <g id="patch_4">
    <path d="M 414.72 307.584 
L 414.72 41.472 
" style="fill:none;stroke:#000000;stroke-linecap:square;stroke-linejoin:miter;stroke-width:0.8;"/>
   </g>
   <g id="patch_5">
    <path d="M 57.6 307.584 
L 414.72 307.584 
" style="fill:none;stroke:#000000;stroke-linecap:square;stroke-linejoin:miter;stroke-width:0.8;"/>
   </g>
   <g id="patch_6">
    <path d="M 57.6 41.472 
L 414.72 41.472 
" style="fill:none;stroke:#000000;stroke-linecap:square;stroke-linejoin:miter;stroke-width:0.8;"/>
   </g>
   <g id="legend_1">
    <g id="patch_7">
     <path d="M 64.6 78.82825 
L 168.475 78.82825 
Q 170.475 78.82825 170.475 76.82825 
L 170.475 48.472 
Q 170.475 46.472 168.475 46.472 
L 64.6 46.472 
Q 62.6 46.472 62.6 48.472 
L 62.6 76.82825 
Q 62.6 78.82825 64.6 78.82825 
z
" style="fill:#ffffff;opacity:0.8;stroke:#cccccc;stroke-linejoin:miter;"/>
    </g>
    <g id="line2d_17">
     <path d="M 66.6 54.570437 
L 86.6 54.570437 
" style="fill:none;stroke:#1f77b4;stroke-linecap:square;stroke-width:1.5;"/>
    </g>
    <g id="line2d_18"/>
    <g id="text_17">
     <!-- Train loss -->
     <g transform="translate(94.6 58.070437)scale(0.1 -0.1)">
      <defs>
       <path d="M -19 4666 
L 3928 4666 
L 3928 4134 
L 2272 4134 
L 2272 0 
L 1638 0 
L 1638 4134 
L -19 4134 
L -19 4666 
z
" id="DejaVuSans-54" transform="scale(0.015625)"/>
       <path d="M 2631 2963 
Q 2534 3019 2420 3045 
Q 2306 3072 2169 3072 
Q 1681 3072 1420 2755 
Q 1159 2438 1159 1844 
L 1159 0 
L 581 0 
L 581 3500 
L 1159 3500 
L 1159 2956 
Q 1341 3275 1631 3429 
Q 1922 3584 2338 3584 
Q 2397 3584 2469 3576 
Q 2541 3569 2628 3553 
L 2631 2963 
z
" id="DejaVuSans-72" transform="scale(0.015625)"/>
       <path d="M 2194 1759 
Q 1497 1759 1228 1600 
Q 959 1441 959 1056 
Q 959 750 1161 570 
Q 1363 391 1709 391 
Q 2188 391 2477 730 
Q 2766 1069 2766 1631 
L 2766 1759 
L 2194 1759 
z
M 3341 1997 
L 3341 0 
L 2766 0 
L 2766 531 
Q 2569 213 2275 61 
Q 1981 -91 1556 -91 
Q 1019 -91 701 211 
Q 384 513 384 1019 
Q 384 1609 779 1909 
Q 1175 2209 1959 2209 
L 2766 2209 
L 2766 2266 
Q 2766 2663 2505 2880 
Q 2244 3097 1772 3097 
Q 1472 3097 1187 3025 
Q 903 2953 641 2809 
L 641 3341 
Q 956 3463 1253 3523 
Q 1550 3584 1831 3584 
Q 2591 3584 2966 3190 
Q 3341 2797 3341 1997 
z
" id="DejaVuSans-61" transform="scale(0.015625)"/>
       <path d="M 603 3500 
L 1178 3500 
L 1178 0 
L 603 0 
L 603 3500 
z
M 603 4863 
L 1178 4863 
L 1178 4134 
L 603 4134 
L 603 4863 
z
" id="DejaVuSans-69" transform="scale(0.015625)"/>
       <path d="M 3513 2113 
L 3513 0 
L 2938 0 
L 2938 2094 
Q 2938 2591 2744 2837 
Q 2550 3084 2163 3084 
Q 1697 3084 1428 2787 
Q 1159 2491 1159 1978 
L 1159 0 
L 581 0 
L 581 3500 
L 1159 3500 
L 1159 2956 
Q 1366 3272 1645 3428 
Q 1925 3584 2291 3584 
Q 2894 3584 3203 3211 
Q 3513 2838 3513 2113 
z
" id="DejaVuSans-6e" transform="scale(0.015625)"/>
       <path id="DejaVuSans-20" transform="scale(0.015625)"/>
       <path d="M 603 4863 
L 1178 4863 
L 1178 0 
L 603 0 
L 603 4863 
z
" id="DejaVuSans-6c" transform="scale(0.015625)"/>
      </defs>
      <use xlink:href="#DejaVuSans-54"/>
      <use x="46.333984" xlink:href="#DejaVuSans-72"/>
      <use x="87.447266" xlink:href="#DejaVuSans-61"/>
      <use x="148.726562" xlink:href="#DejaVuSans-69"/>
      <use x="176.509766" xlink:href="#DejaVuSans-6e"/>
      <use x="239.888672" xlink:href="#DejaVuSans-20"/>
      <use x="271.675781" xlink:href="#DejaVuSans-6c"/>
      <use x="299.458984" xlink:href="#DejaVuSans-6f"/>
      <use x="360.640625" xlink:href="#DejaVuSans-73"/>
      <use x="412.740234" xlink:href="#DejaVuSans-73"/>
     </g>
    </g>
    <g id="line2d_19">
     <path d="M 66.6 69.248562 
L 86.6 69.248562 
" style="fill:none;stroke:#ff7f0e;stroke-linecap:square;stroke-width:1.5;"/>
    </g>
    <g id="line2d_20"/>
    <g id="text_18">
     <!-- Validation loss -->
     <g transform="translate(94.6 72.748562)scale(0.1 -0.1)">
      <defs>
       <path d="M 1831 0 
L 50 4666 
L 709 4666 
L 2188 738 
L 3669 4666 
L 4325 4666 
L 2547 0 
L 1831 0 
z
" id="DejaVuSans-56" transform="scale(0.015625)"/>
       <path d="M 2906 2969 
L 2906 4863 
L 3481 4863 
L 3481 0 
L 2906 0 
L 2906 525 
Q 2725 213 2448 61 
Q 2172 -91 1784 -91 
Q 1150 -91 751 415 
Q 353 922 353 1747 
Q 353 2572 751 3078 
Q 1150 3584 1784 3584 
Q 2172 3584 2448 3432 
Q 2725 3281 2906 2969 
z
M 947 1747 
Q 947 1113 1208 752 
Q 1469 391 1925 391 
Q 2381 391 2643 752 
Q 2906 1113 2906 1747 
Q 2906 2381 2643 2742 
Q 2381 3103 1925 3103 
Q 1469 3103 1208 2742 
Q 947 2381 947 1747 
z
" id="DejaVuSans-64" transform="scale(0.015625)"/>
       <path d="M 1172 4494 
L 1172 3500 
L 2356 3500 
L 2356 3053 
L 1172 3053 
L 1172 1153 
Q 1172 725 1289 603 
Q 1406 481 1766 481 
L 2356 481 
L 2356 0 
L 1766 0 
Q 1100 0 847 248 
Q 594 497 594 1153 
L 594 3053 
L 172 3053 
L 172 3500 
L 594 3500 
L 594 4494 
L 1172 4494 
z
" id="DejaVuSans-74" transform="scale(0.015625)"/>
      </defs>
      <use xlink:href="#DejaVuSans-56"/>
      <use x="60.658203" xlink:href="#DejaVuSans-61"/>
      <use x="121.9375" xlink:href="#DejaVuSans-6c"/>
      <use x="149.720703" xlink:href="#DejaVuSans-69"/>
      <use x="177.503906" xlink:href="#DejaVuSans-64"/>
      <use x="240.980469" xlink:href="#DejaVuSans-61"/>
      <use x="302.259766" xlink:href="#DejaVuSans-74"/>
      <use x="341.46875" xlink:href="#DejaVuSans-69"/>
      <use x="369.251953" xlink:href="#DejaVuSans-6f"/>
      <use x="430.433594" xlink:href="#DejaVuSans-6e"/>
      <use x="493.8125" xlink:href="#DejaVuSans-20"/>
      <use x="525.599609" xlink:href="#DejaVuSans-6c"/>
      <use x="553.382812" xlink:href="#DejaVuSans-6f"/>
      <use x="614.564453" xlink:href="#DejaVuSans-73"/>
      <use x="666.664062" xlink:href="#DejaVuSans-73"/>
     </g>
    </g>
   </g>
  </g>
 </g>
 <defs>
  <clipPath id="pf3e1457177">
   <rect height="266.112" width="357.12" x="57.6" y="41.472"/>
  </clipPath>
 </defs>
</svg>
