<?xml version="1.0" encoding="utf-8" standalone="no"?>
<!DOCTYPE svg PUBLIC "-//W3C//DTD SVG 1.1//EN"
  "http://www.w3.org/Graphics/SVG/1.1/DTD/svg11.dtd">
<svg height="345.6pt" version="1.1" viewBox="0 0 460.8 345.6" width="460.8pt" xmlns="http://www.w3.org/2000/svg" xmlns:xlink="http://www.w3.org/1999/xlink">
 <metadata>
  <rdf:RDF xmlns:cc="http://creativecommons.org/ns#" xmlns:dc="http://purl.org/dc/elements/1.1/" xmlns:rdf="http://www.w3.org/1999/02/22-rdf-syntax-ns#">
   <cc:Work>
    <dc:type rdf:resource="http://purl.org/dc/dcmitype/StillImage"/>
    <dc:date>2021-07-27T10:52:18.914904</dc:date>
    <dc:format>image/svg+xml</dc:format>
    <dc:creator>
     <cc:Agent>
      <dc:title>Matplotlib v3.4.1, https://matplotlib.org/</dc:title>
     </cc:Agent>
    </dc:creator>
   </cc:Work>
  </rdf:RDF>
 </metadata>
 <defs>
  <style type="text/css">*{stroke-linecap:butt;stroke-linejoin:round;}</style>
 </defs>
 <g id="figure_1">
  <g id="patch_1">
   <path d="M 0 345.6 
L 460.8 345.6 
L 460.8 0 
L 0 0 
z
" style="fill:#ffffff;"/>
  </g>
  <g id="axes_1">
   <g id="patch_2">
    <path d="M 57.6 307.584 
L 414.72 307.584 
L 414.72 41.472 
L 57.6 41.472 
z
" style="fill:#ffffff;"/>
   </g>
   <g id="matplotlib.axis_1">
    <g id="xtick_1">
     <g id="line2d_1">
      <defs>
       <path d="M 0 0 
L 0 3.5 
" id="m4a2c5c128c" style="stroke:#000000;stroke-width:0.8;"/>
      </defs>
      <g>
       <use style="stroke:#000000;stroke-width:0.8;" x="73.673505" xlink:href="#m4a2c5c128c" y="307.584"/>
      </g>
     </g>
     <g id="text_1">
      <!-- 0 -->
      <g transform="translate(70.492255 322.182437)scale(0.1 -0.1)">
       <defs>
        <path d="M 2034 4250 
Q 1547 4250 1301 3770 
Q 1056 3291 1056 2328 
Q 1056 1369 1301 889 
Q 1547 409 2034 409 
Q 2525 409 2770 889 
Q 3016 1369 3016 2328 
Q 3016 3291 2770 3770 
Q 2525 4250 2034 4250 
z
M 2034 4750 
Q 2819 4750 3233 4129 
Q 3647 3509 3647 2328 
Q 3647 1150 3233 529 
Q 2819 -91 2034 -91 
Q 1250 -91 836 529 
Q 422 1150 422 2328 
Q 422 3509 836 4129 
Q 1250 4750 2034 4750 
z
" id="DejaVuSans-30" transform="scale(0.015625)"/>
       </defs>
       <use xlink:href="#DejaVuSans-30"/>
      </g>
     </g>
    </g>
    <g id="xtick_2">
     <g id="line2d_2">
      <g>
       <use style="stroke:#000000;stroke-width:0.8;" x="113.479114" xlink:href="#m4a2c5c128c" y="307.584"/>
      </g>
     </g>
     <g id="text_2">
      <!-- 250 -->
      <g transform="translate(103.935364 322.182437)scale(0.1 -0.1)">
       <defs>
        <path d="M 1228 531 
L 3431 531 
L 3431 0 
L 469 0 
L 469 531 
Q 828 903 1448 1529 
Q 2069 2156 2228 2338 
Q 2531 2678 2651 2914 
Q 2772 3150 2772 3378 
Q 2772 3750 2511 3984 
Q 2250 4219 1831 4219 
Q 1534 4219 1204 4116 
Q 875 4013 500 3803 
L 500 4441 
Q 881 4594 1212 4672 
Q 1544 4750 1819 4750 
Q 2544 4750 2975 4387 
Q 3406 4025 3406 3419 
Q 3406 3131 3298 2873 
Q 3191 2616 2906 2266 
Q 2828 2175 2409 1742 
Q 1991 1309 1228 531 
z
" id="DejaVuSans-32" transform="scale(0.015625)"/>
        <path d="M 691 4666 
L 3169 4666 
L 3169 4134 
L 1269 4134 
L 1269 2991 
Q 1406 3038 1543 3061 
Q 1681 3084 1819 3084 
Q 2600 3084 3056 2656 
Q 3513 2228 3513 1497 
Q 3513 744 3044 326 
Q 2575 -91 1722 -91 
Q 1428 -91 1123 -41 
Q 819 9 494 109 
L 494 744 
Q 775 591 1075 516 
Q 1375 441 1709 441 
Q 2250 441 2565 725 
Q 2881 1009 2881 1497 
Q 2881 1984 2565 2268 
Q 2250 2553 1709 2553 
Q 1456 2553 1204 2497 
Q 953 2441 691 2322 
L 691 4666 
z
" id="DejaVuSans-35" transform="scale(0.015625)"/>
       </defs>
       <use xlink:href="#DejaVuSans-32"/>
       <use x="63.623047" xlink:href="#DejaVuSans-35"/>
       <use x="127.246094" xlink:href="#DejaVuSans-30"/>
      </g>
     </g>
    </g>
    <g id="xtick_3">
     <g id="line2d_3">
      <g>
       <use style="stroke:#000000;stroke-width:0.8;" x="153.284722" xlink:href="#m4a2c5c128c" y="307.584"/>
      </g>
     </g>
     <g id="text_3">
      <!-- 500 -->
      <g transform="translate(143.740972 322.182437)scale(0.1 -0.1)">
       <use xlink:href="#DejaVuSans-35"/>
       <use x="63.623047" xlink:href="#DejaVuSans-30"/>
       <use x="127.246094" xlink:href="#DejaVuSans-30"/>
      </g>
     </g>
    </g>
    <g id="xtick_4">
     <g id="line2d_4">
      <g>
       <use style="stroke:#000000;stroke-width:0.8;" x="193.090331" xlink:href="#m4a2c5c128c" y="307.584"/>
      </g>
     </g>
     <g id="text_4">
      <!-- 750 -->
      <g transform="translate(183.546581 322.182437)scale(0.1 -0.1)">
       <defs>
        <path d="M 525 4666 
L 3525 4666 
L 3525 4397 
L 1831 0 
L 1172 0 
L 2766 4134 
L 525 4134 
L 525 4666 
z
" id="DejaVuSans-37" transform="scale(0.015625)"/>
       </defs>
       <use xlink:href="#DejaVuSans-37"/>
       <use x="63.623047" xlink:href="#DejaVuSans-35"/>
       <use x="127.246094" xlink:href="#DejaVuSans-30"/>
      </g>
     </g>
    </g>
    <g id="xtick_5">
     <g id="line2d_5">
      <g>
       <use style="stroke:#000000;stroke-width:0.8;" x="232.89594" xlink:href="#m4a2c5c128c" y="307.584"/>
      </g>
     </g>
     <g id="text_5">
      <!-- 1000 -->
      <g transform="translate(220.17094 322.182437)scale(0.1 -0.1)">
       <defs>
        <path d="M 794 531 
L 1825 531 
L 1825 4091 
L 703 3866 
L 703 4441 
L 1819 4666 
L 2450 4666 
L 2450 531 
L 3481 531 
L 3481 0 
L 794 0 
L 794 531 
z
" id="DejaVuSans-31" transform="scale(0.015625)"/>
       </defs>
       <use xlink:href="#DejaVuSans-31"/>
       <use x="63.623047" xlink:href="#DejaVuSans-30"/>
       <use x="127.246094" xlink:href="#DejaVuSans-30"/>
       <use x="190.869141" xlink:href="#DejaVuSans-30"/>
      </g>
     </g>
    </g>
    <g id="xtick_6">
     <g id="line2d_6">
      <g>
       <use style="stroke:#000000;stroke-width:0.8;" x="272.701549" xlink:href="#m4a2c5c128c" y="307.584"/>
      </g>
     </g>
     <g id="text_6">
      <!-- 1250 -->
      <g transform="translate(259.976549 322.182437)scale(0.1 -0.1)">
       <use xlink:href="#DejaVuSans-31"/>
       <use x="63.623047" xlink:href="#DejaVuSans-32"/>
       <use x="127.246094" xlink:href="#DejaVuSans-35"/>
       <use x="190.869141" xlink:href="#DejaVuSans-30"/>
      </g>
     </g>
    </g>
    <g id="xtick_7">
     <g id="line2d_7">
      <g>
       <use style="stroke:#000000;stroke-width:0.8;" x="312.507158" xlink:href="#m4a2c5c128c" y="307.584"/>
      </g>
     </g>
     <g id="text_7">
      <!-- 1500 -->
      <g transform="translate(299.782158 322.182437)scale(0.1 -0.1)">
       <use xlink:href="#DejaVuSans-31"/>
       <use x="63.623047" xlink:href="#DejaVuSans-35"/>
       <use x="127.246094" xlink:href="#DejaVuSans-30"/>
       <use x="190.869141" xlink:href="#DejaVuSans-30"/>
      </g>
     </g>
    </g>
    <g id="xtick_8">
     <g id="line2d_8">
      <g>
       <use style="stroke:#000000;stroke-width:0.8;" x="352.312767" xlink:href="#m4a2c5c128c" y="307.584"/>
      </g>
     </g>
     <g id="text_8">
      <!-- 1750 -->
      <g transform="translate(339.587767 322.182437)scale(0.1 -0.1)">
       <use xlink:href="#DejaVuSans-31"/>
       <use x="63.623047" xlink:href="#DejaVuSans-37"/>
       <use x="127.246094" xlink:href="#DejaVuSans-35"/>
       <use x="190.869141" xlink:href="#DejaVuSans-30"/>
      </g>
     </g>
    </g>
    <g id="xtick_9">
     <g id="line2d_9">
      <g>
       <use style="stroke:#000000;stroke-width:0.8;" x="392.118375" xlink:href="#m4a2c5c128c" y="307.584"/>
      </g>
     </g>
     <g id="text_9">
      <!-- 2000 -->
      <g transform="translate(379.393375 322.182437)scale(0.1 -0.1)">
       <use xlink:href="#DejaVuSans-32"/>
       <use x="63.623047" xlink:href="#DejaVuSans-30"/>
       <use x="127.246094" xlink:href="#DejaVuSans-30"/>
       <use x="190.869141" xlink:href="#DejaVuSans-30"/>
      </g>
     </g>
    </g>
    <g id="text_10">
     <!-- Epoch -->
     <g transform="translate(213.193594 339.659781)scale(0.15 -0.15)">
      <defs>
       <path d="M 628 4666 
L 3578 4666 
L 3578 4134 
L 1259 4134 
L 1259 2753 
L 3481 2753 
L 3481 2222 
L 1259 2222 
L 1259 531 
L 3634 531 
L 3634 0 
L 628 0 
L 628 4666 
z
" id="DejaVuSans-45" transform="scale(0.015625)"/>
       <path d="M 1159 525 
L 1159 -1331 
L 581 -1331 
L 581 3500 
L 1159 3500 
L 1159 2969 
Q 1341 3281 1617 3432 
Q 1894 3584 2278 3584 
Q 2916 3584 3314 3078 
Q 3713 2572 3713 1747 
Q 3713 922 3314 415 
Q 2916 -91 2278 -91 
Q 1894 -91 1617 61 
Q 1341 213 1159 525 
z
M 3116 1747 
Q 3116 2381 2855 2742 
Q 2594 3103 2138 3103 
Q 1681 3103 1420 2742 
Q 1159 2381 1159 1747 
Q 1159 1113 1420 752 
Q 1681 391 2138 391 
Q 2594 391 2855 752 
Q 3116 1113 3116 1747 
z
" id="DejaVuSans-70" transform="scale(0.015625)"/>
       <path d="M 1959 3097 
Q 1497 3097 1228 2736 
Q 959 2375 959 1747 
Q 959 1119 1226 758 
Q 1494 397 1959 397 
Q 2419 397 2687 759 
Q 2956 1122 2956 1747 
Q 2956 2369 2687 2733 
Q 2419 3097 1959 3097 
z
M 1959 3584 
Q 2709 3584 3137 3096 
Q 3566 2609 3566 1747 
Q 3566 888 3137 398 
Q 2709 -91 1959 -91 
Q 1206 -91 779 398 
Q 353 888 353 1747 
Q 353 2609 779 3096 
Q 1206 3584 1959 3584 
z
" id="DejaVuSans-6f" transform="scale(0.015625)"/>
       <path d="M 3122 3366 
L 3122 2828 
Q 2878 2963 2633 3030 
Q 2388 3097 2138 3097 
Q 1578 3097 1268 2742 
Q 959 2388 959 1747 
Q 959 1106 1268 751 
Q 1578 397 2138 397 
Q 2388 397 2633 464 
Q 2878 531 3122 666 
L 3122 134 
Q 2881 22 2623 -34 
Q 2366 -91 2075 -91 
Q 1284 -91 818 406 
Q 353 903 353 1747 
Q 353 2603 823 3093 
Q 1294 3584 2113 3584 
Q 2378 3584 2631 3529 
Q 2884 3475 3122 3366 
z
" id="DejaVuSans-63" transform="scale(0.015625)"/>
       <path d="M 3513 2113 
L 3513 0 
L 2938 0 
L 2938 2094 
Q 2938 2591 2744 2837 
Q 2550 3084 2163 3084 
Q 1697 3084 1428 2787 
Q 1159 2491 1159 1978 
L 1159 0 
L 581 0 
L 581 4863 
L 1159 4863 
L 1159 2956 
Q 1366 3272 1645 3428 
Q 1925 3584 2291 3584 
Q 2894 3584 3203 3211 
Q 3513 2838 3513 2113 
z
" id="DejaVuSans-68" transform="scale(0.015625)"/>
      </defs>
      <use xlink:href="#DejaVuSans-45"/>
      <use x="63.183594" xlink:href="#DejaVuSans-70"/>
      <use x="126.660156" xlink:href="#DejaVuSans-6f"/>
      <use x="187.841797" xlink:href="#DejaVuSans-63"/>
      <use x="242.822266" xlink:href="#DejaVuSans-68"/>
     </g>
    </g>
   </g>
   <g id="matplotlib.axis_2">
    <g id="ytick_1">
     <g id="line2d_10">
      <defs>
       <path d="M 0 0 
L -3.5 0 
" id="m56047e341f" style="stroke:#000000;stroke-width:0.8;"/>
      </defs>
      <g>
       <use style="stroke:#000000;stroke-width:0.8;" x="57.6" xlink:href="#m56047e341f" y="294.746678"/>
      </g>
     </g>
     <g id="text_11">
      <!-- −0.30 -->
      <g transform="translate(19.954687 298.545897)scale(0.1 -0.1)">
       <defs>
        <path d="M 678 2272 
L 4684 2272 
L 4684 1741 
L 678 1741 
L 678 2272 
z
" id="DejaVuSans-2212" transform="scale(0.015625)"/>
        <path d="M 684 794 
L 1344 794 
L 1344 0 
L 684 0 
L 684 794 
z
" id="DejaVuSans-2e" transform="scale(0.015625)"/>
        <path d="M 2597 2516 
Q 3050 2419 3304 2112 
Q 3559 1806 3559 1356 
Q 3559 666 3084 287 
Q 2609 -91 1734 -91 
Q 1441 -91 1130 -33 
Q 819 25 488 141 
L 488 750 
Q 750 597 1062 519 
Q 1375 441 1716 441 
Q 2309 441 2620 675 
Q 2931 909 2931 1356 
Q 2931 1769 2642 2001 
Q 2353 2234 1838 2234 
L 1294 2234 
L 1294 2753 
L 1863 2753 
Q 2328 2753 2575 2939 
Q 2822 3125 2822 3475 
Q 2822 3834 2567 4026 
Q 2313 4219 1838 4219 
Q 1578 4219 1281 4162 
Q 984 4106 628 3988 
L 628 4550 
Q 988 4650 1302 4700 
Q 1616 4750 1894 4750 
Q 2613 4750 3031 4423 
Q 3450 4097 3450 3541 
Q 3450 3153 3228 2886 
Q 3006 2619 2597 2516 
z
" id="DejaVuSans-33" transform="scale(0.015625)"/>
       </defs>
       <use xlink:href="#DejaVuSans-2212"/>
       <use x="83.789062" xlink:href="#DejaVuSans-30"/>
       <use x="147.412109" xlink:href="#DejaVuSans-2e"/>
       <use x="179.199219" xlink:href="#DejaVuSans-33"/>
       <use x="242.822266" xlink:href="#DejaVuSans-30"/>
      </g>
     </g>
    </g>
    <g id="ytick_2">
     <g id="line2d_11">
      <g>
       <use style="stroke:#000000;stroke-width:0.8;" x="57.6" xlink:href="#m56047e341f" y="254.55049"/>
      </g>
     </g>
     <g id="text_12">
      <!-- −0.25 -->
      <g transform="translate(19.954687 258.349709)scale(0.1 -0.1)">
       <use xlink:href="#DejaVuSans-2212"/>
       <use x="83.789062" xlink:href="#DejaVuSans-30"/>
       <use x="147.412109" xlink:href="#DejaVuSans-2e"/>
       <use x="179.199219" xlink:href="#DejaVuSans-32"/>
       <use x="242.822266" xlink:href="#DejaVuSans-35"/>
      </g>
     </g>
    </g>
    <g id="ytick_3">
     <g id="line2d_12">
      <g>
       <use style="stroke:#000000;stroke-width:0.8;" x="57.6" xlink:href="#m56047e341f" y="214.354302"/>
      </g>
     </g>
     <g id="text_13">
      <!-- −0.20 -->
      <g transform="translate(19.954687 218.153521)scale(0.1 -0.1)">
       <use xlink:href="#DejaVuSans-2212"/>
       <use x="83.789062" xlink:href="#DejaVuSans-30"/>
       <use x="147.412109" xlink:href="#DejaVuSans-2e"/>
       <use x="179.199219" xlink:href="#DejaVuSans-32"/>
       <use x="242.822266" xlink:href="#DejaVuSans-30"/>
      </g>
     </g>
    </g>
    <g id="ytick_4">
     <g id="line2d_13">
      <g>
       <use style="stroke:#000000;stroke-width:0.8;" x="57.6" xlink:href="#m56047e341f" y="174.158114"/>
      </g>
     </g>
     <g id="text_14">
      <!-- −0.15 -->
      <g transform="translate(19.954687 177.957333)scale(0.1 -0.1)">
       <use xlink:href="#DejaVuSans-2212"/>
       <use x="83.789062" xlink:href="#DejaVuSans-30"/>
       <use x="147.412109" xlink:href="#DejaVuSans-2e"/>
       <use x="179.199219" xlink:href="#DejaVuSans-31"/>
       <use x="242.822266" xlink:href="#DejaVuSans-35"/>
      </g>
     </g>
    </g>
    <g id="ytick_5">
     <g id="line2d_14">
      <g>
       <use style="stroke:#000000;stroke-width:0.8;" x="57.6" xlink:href="#m56047e341f" y="133.961926"/>
      </g>
     </g>
     <g id="text_15">
      <!-- −0.10 -->
      <g transform="translate(19.954687 137.761145)scale(0.1 -0.1)">
       <use xlink:href="#DejaVuSans-2212"/>
       <use x="83.789062" xlink:href="#DejaVuSans-30"/>
       <use x="147.412109" xlink:href="#DejaVuSans-2e"/>
       <use x="179.199219" xlink:href="#DejaVuSans-31"/>
       <use x="242.822266" xlink:href="#DejaVuSans-30"/>
      </g>
     </g>
    </g>
    <g id="ytick_6">
     <g id="line2d_15">
      <g>
       <use style="stroke:#000000;stroke-width:0.8;" x="57.6" xlink:href="#m56047e341f" y="93.765738"/>
      </g>
     </g>
     <g id="text_16">
      <!-- −0.05 -->
      <g transform="translate(19.954687 97.564957)scale(0.1 -0.1)">
       <use xlink:href="#DejaVuSans-2212"/>
       <use x="83.789062" xlink:href="#DejaVuSans-30"/>
       <use x="147.412109" xlink:href="#DejaVuSans-2e"/>
       <use x="179.199219" xlink:href="#DejaVuSans-30"/>
       <use x="242.822266" xlink:href="#DejaVuSans-35"/>
      </g>
     </g>
    </g>
    <g id="ytick_7">
     <g id="line2d_16">
      <g>
       <use style="stroke:#000000;stroke-width:0.8;" x="57.6" xlink:href="#m56047e341f" y="53.56955"/>
      </g>
     </g>
     <g id="text_17">
      <!-- 0.00 -->
      <g transform="translate(28.334375 57.368769)scale(0.1 -0.1)">
       <use xlink:href="#DejaVuSans-30"/>
       <use x="63.623047" xlink:href="#DejaVuSans-2e"/>
       <use x="95.410156" xlink:href="#DejaVuSans-30"/>
       <use x="159.033203" xlink:href="#DejaVuSans-30"/>
      </g>
     </g>
    </g>
   </g>
   <g id="line2d_17">
    <path clip-path="url(#pde240b1826)" d="M 73.832727 53.56941 
L 116.345117 53.643958 
L 116.663562 54.021354 
L 116.822785 55.391052 
L 117.300452 63.104397 
L 117.618897 59.07714 
L 117.778119 67.608968 
L 117.937342 65.864436 
L 118.255787 71.108643 
L 118.415009 62.99171 
L 118.574232 69.678607 
L 118.733454 61.821206 
L 118.892676 68.985308 
L 119.370344 75.481721 
L 119.529566 81.907396 
L 119.688789 78.039774 
L 119.848011 77.079723 
L 120.007233 74.018111 
L 120.166456 81.126946 
L 120.484901 69.951954 
L 120.644123 77.745553 
L 120.803346 72.769611 
L 120.962568 74.925861 
L 121.121791 75.504691 
L 121.440235 88.644965 
L 121.75868 70.797619 
L 121.917903 68.13059 
L 122.077125 75.417121 
L 122.236348 76.74172 
L 122.39557 79.460477 
L 122.554792 78.279029 
L 122.873237 79.740058 
L 123.03246 75.76912 
L 123.191682 77.10467 
L 123.510127 87.217596 
L 123.66935 85.202704 
L 123.828572 80.234425 
L 123.987794 88.499424 
L 124.147017 85.274952 
L 124.306239 86.706712 
L 124.465462 84.810901 
L 124.624684 90.463379 
L 124.783907 86.117909 
L 125.261574 94.024911 
L 125.580019 84.278275 
L 125.739241 97.259192 
L 126.057686 82.985142 
L 126.216908 91.532162 
L 126.376131 85.498698 
L 126.535353 85.226109 
L 126.694576 86.229512 
L 126.853798 85.933245 
L 127.013021 95.671488 
L 127.172243 88.873883 
L 127.331466 91.004422 
L 127.490688 88.144626 
L 127.809133 94.603197 
L 127.968355 86.993942 
L 128.127578 97.369215 
L 128.446023 83.650031 
L 128.605245 97.114952 
L 128.764467 94.215666 
L 128.92369 102.695003 
L 129.082912 92.677006 
L 129.242135 99.173848 
L 129.401357 95.089573 
L 129.56058 97.148142 
L 129.719802 97.082889 
L 130.038247 88.699549 
L 130.197469 93.351691 
L 130.356692 102.02022 
L 130.515914 91.880779 
L 130.993582 106.740826 
L 131.152804 102.585103 
L 131.312026 102.222865 
L 131.471249 91.640361 
L 131.789694 96.908153 
L 131.948916 98.9911 
L 132.108139 97.613756 
L 132.267361 98.575697 
L 132.426583 105.722878 
L 132.585806 89.173755 
L 133.222696 98.456297 
L 133.381918 91.292789 
L 133.54114 99.375791 
L 133.700363 92.452582 
L 133.859585 94.410657 
L 134.018808 114.67281 
L 134.17803 112.076475 
L 134.337253 112.609178 
L 134.496475 109.909477 
L 134.655698 109.826889 
L 134.81492 116.866357 
L 134.974142 98.325141 
L 135.292587 115.504804 
L 135.45181 111.758739 
L 135.611032 102.171151 
L 135.770255 108.798792 
L 135.929477 104.849075 
L 136.088699 104.991217 
L 136.247922 101.072584 
L 136.407144 108.514756 
L 136.566367 101.67572 
L 136.884812 109.547017 
L 137.044034 96.148406 
L 137.203256 118.442231 
L 137.521701 100.490255 
L 137.680924 110.259133 
L 137.840146 102.875444 
L 137.999369 111.707443 
L 138.158591 105.361448 
L 138.317814 94.576448 
L 138.477036 108.514925 
L 138.636258 100.687053 
L 138.795481 102.861846 
L 138.954703 111.263151 
L 139.113926 111.398219 
L 139.273148 109.24517 
L 139.591593 120.51569 
L 139.750815 119.980417 
L 139.910038 115.147767 
L 140.06926 118.051223 
L 140.228483 112.605901 
L 140.387705 111.390909 
L 140.546928 115.287934 
L 140.70615 107.179817 
L 140.865373 115.163888 
L 141.024595 104.320982 
L 141.183817 116.344853 
L 141.502262 110.928375 
L 141.661485 117.329884 
L 141.820707 114.29509 
L 141.97993 118.965237 
L 142.139152 107.399336 
L 142.298374 106.73142 
L 142.457597 117.385047 
L 142.616819 101.171269 
L 142.776042 118.565126 
L 142.935264 108.99692 
L 143.094487 127.448617 
L 143.253709 115.165121 
L 143.412931 118.940483 
L 143.572154 125.393387 
L 143.731376 108.136827 
L 143.890599 106.874795 
L 144.049821 108.287353 
L 144.209044 110.930479 
L 144.368266 121.58662 
L 144.527489 120.369405 
L 144.686711 122.255904 
L 144.845933 100.268067 
L 145.005156 105.227132 
L 145.164378 135.452221 
L 145.323601 121.39024 
L 145.482823 120.136024 
L 145.801268 99.840321 
L 146.119713 110.295422 
L 146.278935 121.92019 
L 146.438158 117.415736 
L 146.756603 130.100357 
L 146.915825 127.016164 
L 147.23427 111.239796 
L 147.552715 125.397259 
L 147.711937 124.099689 
L 148.030382 115.671169 
L 148.189605 130.376722 
L 148.348827 115.085348 
L 148.508049 115.101553 
L 148.667272 123.457246 
L 148.826494 110.471255 
L 149.144939 123.621354 
L 149.304162 124.539471 
L 149.463384 119.777173 
L 149.622606 122.359914 
L 149.941051 117.482543 
L 150.418719 125.38091 
L 150.577941 135.148492 
L 150.737163 121.146123 
L 150.896386 137.463275 
L 151.055608 130.842084 
L 151.214831 134.662283 
L 151.374053 114.514939 
L 151.533276 108.81765 
L 151.851721 130.867728 
L 152.010943 121.828035 
L 152.170165 144.464342 
L 152.329388 123.38074 
L 152.48861 119.869627 
L 152.647833 125.224453 
L 152.807055 116.054754 
L 152.966278 115.869257 
L 153.1255 129.172877 
L 153.443945 120.599444 
L 153.76239 134.061006 
L 153.921612 123.433464 
L 154.080835 136.103264 
L 154.39928 119.326955 
L 154.558502 120.522284 
L 154.717724 124.467217 
L 154.876947 125.616471 
L 155.036169 147.199084 
L 155.195392 125.085122 
L 155.354614 128.098864 
L 155.513837 127.635438 
L 155.673059 134.315735 
L 155.832281 130.806798 
L 155.991504 149.058137 
L 156.150726 130.863706 
L 156.309949 127.839322 
L 156.469171 113.543842 
L 156.628394 140.741453 
L 156.787616 136.682103 
L 156.946838 114.676285 
L 157.106061 132.176633 
L 157.265283 137.051286 
L 157.424506 126.138503 
L 157.583728 130.410559 
L 157.742951 120.988328 
L 157.902173 125.321433 
L 158.061396 114.383131 
L 158.37984 148.481589 
L 158.539063 124.639812 
L 158.698285 140.668705 
L 158.857508 134.029208 
L 159.01673 135.68322 
L 159.335175 123.717618 
L 159.494397 137.292391 
L 159.65362 133.877751 
L 159.812842 157.600654 
L 159.972065 153.875999 
L 160.131287 141.851004 
L 160.29051 143.045287 
L 160.449732 139.722068 
L 160.608954 173.212454 
L 160.768177 120.667051 
L 161.086622 146.357604 
L 161.245844 130.409534 
L 161.405067 145.402026 
L 161.564289 147.455548 
L 161.723512 148.057761 
L 161.882734 131.246159 
L 162.041956 155.702078 
L 162.201179 134.784216 
L 162.360401 142.753804 
L 162.519624 137.602031 
L 162.678846 151.953543 
L 162.838069 149.712415 
L 162.997291 156.108954 
L 163.156513 127.517578 
L 163.315736 140.439052 
L 163.474958 136.938736 
L 163.634181 127.425162 
L 163.793403 132.357388 
L 163.952626 168.428597 
L 164.111848 145.042106 
L 164.27107 155.858554 
L 164.430293 123.028251 
L 164.748738 171.140742 
L 165.067183 137.150991 
L 165.226405 147.210088 
L 165.385628 139.664267 
L 165.54485 151.456466 
L 165.704072 146.665711 
L 165.863295 159.013373 
L 166.18174 128.412242 
L 166.340962 151.411429 
L 166.500185 151.233743 
L 166.818629 130.713397 
L 167.137074 145.442234 
L 167.296297 146.189316 
L 167.455519 164.363893 
L 167.614742 154.049309 
L 167.773964 156.136201 
L 168.092409 133.455385 
L 168.251631 176.485899 
L 168.410854 146.056665 
L 168.570076 183.197021 
L 168.729299 152.470834 
L 168.888521 152.815363 
L 169.047744 192.10185 
L 169.366188 146.32441 
L 169.525411 152.124146 
L 169.684633 152.114771 
L 169.843856 153.956713 
L 170.003078 185.767088 
L 170.162301 158.141628 
L 170.321523 151.463653 
L 170.480745 159.975687 
L 170.639968 148.706788 
L 170.79919 171.66129 
L 170.958413 154.191802 
L 171.117635 167.099691 
L 171.276858 140.440207 
L 171.43608 158.183353 
L 171.595303 158.550733 
L 171.754525 154.848609 
L 171.913747 153.742997 
L 172.07297 146.561405 
L 172.232192 186.448579 
L 172.550637 153.672564 
L 172.70986 171.507804 
L 172.869082 153.974814 
L 173.028304 156.163592 
L 173.187527 146.701692 
L 173.346749 147.199182 
L 173.505972 166.222496 
L 173.665194 156.354101 
L 173.824417 156.246957 
L 173.983639 147.66385 
L 174.142861 157.67868 
L 174.302084 150.081108 
L 174.461306 165.714439 
L 174.620529 195.68094 
L 174.938974 177.860682 
L 175.098196 144.543122 
L 175.257419 166.633227 
L 175.416641 137.444413 
L 175.735086 175.230443 
L 175.894308 171.866295 
L 176.053531 135.532732 
L 176.531198 183.291008 
L 176.849643 164.378785 
L 177.008865 177.969235 
L 177.168088 166.586931 
L 177.32731 144.710974 
L 177.486533 181.319571 
L 177.645755 188.582298 
L 177.804977 150.3005 
L 177.9642 167.82763 
L 178.123422 170.265312 
L 178.282645 166.66026 
L 178.441867 147.519145 
L 178.60109 167.925481 
L 178.919535 144.027464 
L 179.237979 179.015213 
L 179.397202 162.537826 
L 179.556424 163.300742 
L 179.715647 156.928 
L 179.874869 167.215367 
L 180.034092 164.222879 
L 180.193314 145.015038 
L 180.352536 173.305582 
L 180.511759 170.388768 
L 180.830204 148.355545 
L 180.989426 149.520263 
L 181.467093 175.455734 
L 181.626316 180.142093 
L 181.785538 169.299801 
L 181.944761 124.378943 
L 182.103983 145.671434 
L 182.263206 144.27218 
L 182.422428 148.179018 
L 182.581651 175.013503 
L 182.740873 167.439988 
L 182.900095 150.979928 
L 183.059318 164.448021 
L 183.21854 146.044757 
L 183.377763 199.20169 
L 183.536985 155.175688 
L 183.696208 178.738229 
L 183.85543 153.300177 
L 184.014652 161.746 
L 184.173875 186.58719 
L 184.333097 170.094792 
L 184.49232 165.375366 
L 184.651542 180.88705 
L 184.969987 165.160379 
L 185.12921 160.749748 
L 185.288432 150.381689 
L 185.606877 217.106037 
L 185.766099 160.700728 
L 185.925322 154.801355 
L 186.243767 191.364686 
L 186.402989 181.112536 
L 186.562211 182.069162 
L 186.721434 158.031354 
L 186.880656 190.597728 
L 187.039879 153.486589 
L 187.199101 171.000033 
L 187.358324 137.427849 
L 187.517546 148.25762 
L 187.676768 169.194715 
L 187.835991 140.268684 
L 187.995213 144.316721 
L 188.154436 142.677113 
L 188.472881 176.969094 
L 188.632103 163.484448 
L 188.791326 161.757599 
L 188.950548 170.959247 
L 189.10977 164.628981 
L 189.428215 173.356683 
L 189.587438 155.438769 
L 189.74666 171.005111 
L 189.905883 153.690058 
L 190.065105 181.897684 
L 190.38355 150.675483 
L 190.542772 150.369188 
L 190.861217 181.169579 
L 191.02044 157.94661 
L 191.179662 180.207415 
L 191.498107 152.076596 
L 191.657329 157.926193 
L 191.816552 174.529662 
L 191.975774 152.052676 
L 192.134997 152.932237 
L 192.294219 180.932442 
L 192.612664 155.93903 
L 192.771886 158.940284 
L 192.931109 138.418317 
L 193.090331 172.916257 
L 193.249554 165.589892 
L 193.408776 172.163966 
L 193.567999 191.611412 
L 193.886443 157.539943 
L 194.045666 159.892352 
L 194.204888 146.809271 
L 194.523333 172.147728 
L 194.682556 138.950176 
L 194.841778 205.854365 
L 195.001 182.017925 
L 195.160223 179.827509 
L 195.478668 193.782591 
L 195.63789 160.069056 
L 195.797113 177.476447 
L 195.956335 173.16299 
L 196.115558 156.120361 
L 196.27478 176.197737 
L 196.593225 156.849993 
L 196.752447 179.373141 
L 196.91167 180.630954 
L 197.070892 192.900915 
L 197.230115 194.509875 
L 197.389337 151.110981 
L 197.548559 179.009867 
L 197.707782 158.958443 
L 197.867004 172.031278 
L 198.026227 134.192163 
L 198.344672 183.358556 
L 198.663117 162.114689 
L 198.822339 175.79281 
L 198.981561 166.333113 
L 199.140784 131.619988 
L 199.459229 174.305072 
L 199.618451 165.087524 
L 199.777674 165.39017 
L 199.936896 193.941859 
L 200.096118 115.305355 
L 200.255341 160.26935 
L 200.573786 179.291178 
L 200.733008 170.422433 
L 200.892231 140.444761 
L 201.210675 197.566461 
L 201.369898 185.060057 
L 201.688343 207.913721 
L 201.847565 157.24913 
L 202.006788 188.662885 
L 202.16601 164.81228 
L 202.484455 192.042163 
L 202.643677 153.229817 
L 202.8029 190.328559 
L 202.962122 192.318149 
L 203.280567 146.677089 
L 203.43979 188.25619 
L 203.758234 155.919233 
L 203.917457 202.117235 
L 204.235902 168.210489 
L 204.554347 187.913506 
L 204.713569 181.229164 
L 204.872791 184.118283 
L 205.032014 150.177509 
L 205.191236 191.891121 
L 205.350459 172.528858 
L 205.668904 197.29445 
L 205.828126 195.023321 
L 205.987349 194.850706 
L 206.146571 199.528859 
L 206.305793 197.51582 
L 206.624238 189.646752 
L 206.783461 191.40476 
L 206.942683 187.964708 
L 207.101906 179.361479 
L 207.261128 198.987892 
L 207.42035 195.960112 
L 207.738795 165.852309 
L 207.898018 162.823651 
L 208.05724 169.078795 
L 208.216463 184.476139 
L 208.375685 178.083539 
L 208.534907 197.343272 
L 208.69413 172.54816 
L 208.853352 210.430247 
L 209.012575 167.567834 
L 209.171797 186.127299 
L 209.33102 176.236599 
L 209.490242 200.772433 
L 209.649465 184.143744 
L 209.808687 201.642521 
L 209.967909 170.512902 
L 210.127132 165.888635 
L 210.286354 155.014172 
L 210.445577 194.909692 
L 210.604799 158.407103 
L 210.764022 175.280385 
L 210.923244 177.161486 
L 211.082466 196.597716 
L 211.241689 168.043428 
L 211.400911 202.6051 
L 211.560134 199.928113 
L 211.719356 187.388338 
L 211.878579 204.892175 
L 212.037801 138.803826 
L 212.197023 171.824853 
L 212.356246 160.166228 
L 212.674691 175.985475 
L 212.833913 210.35458 
L 213.311581 146.701037 
L 213.470803 188.441036 
L 213.630025 165.505044 
L 213.789248 194.16412 
L 213.94847 195.090303 
L 214.107693 173.753785 
L 214.266915 168.083268 
L 214.58536 182.406856 
L 214.744582 144.484526 
L 214.903805 170.903549 
L 215.063027 224.74097 
L 215.22225 176.620687 
L 215.381472 191.211296 
L 215.540695 184.31747 
L 215.699917 232.299131 
L 215.85914 161.008902 
L 216.018362 209.913729 
L 216.177584 177.887832 
L 216.336807 180.833461 
L 216.496029 177.884018 
L 216.655252 196.184227 
L 216.814474 193.608328 
L 216.973697 201.718345 
L 217.132919 164.275666 
L 217.292141 173.715355 
L 217.451364 139.184024 
L 217.610586 171.635008 
L 217.929031 187.747211 
L 218.088254 208.955329 
L 218.247476 174.805797 
L 218.406698 196.284826 
L 218.565921 187.572105 
L 218.725143 195.26224 
L 218.884366 172.503904 
L 219.043588 205.10392 
L 219.202811 163.395763 
L 219.362033 170.116137 
L 219.521256 206.178954 
L 219.680478 165.937059 
L 219.8397 158.223834 
L 219.998923 177.670163 
L 220.158145 224.063418 
L 220.317368 162.378451 
L 220.47659 160.540999 
L 220.635813 150.075815 
L 220.795035 217.568203 
L 220.954257 233.984891 
L 221.11348 213.089055 
L 221.272702 171.064795 
L 221.431925 168.546942 
L 221.591147 194.207256 
L 221.75037 201.280571 
L 221.909592 168.917356 
L 222.068814 183.055769 
L 222.228037 221.119014 
L 222.546482 168.458014 
L 222.705704 159.16365 
L 222.864927 167.483268 
L 223.183372 196.578705 
L 223.342594 199.098141 
L 223.501816 221.888295 
L 223.661039 171.086636 
L 223.820261 176.158937 
L 223.979484 185.302007 
L 224.138706 201.358186 
L 224.297929 185.413718 
L 224.457151 201.632716 
L 224.616373 173.083299 
L 224.934818 211.06851 
L 225.094041 189.118708 
L 225.253263 196.075066 
L 225.412486 172.904827 
L 225.571708 197.151534 
L 225.73093 199.106988 
L 225.890153 199.236029 
L 226.049375 227.321911 
L 226.208598 223.37377 
L 226.527043 164.16149 
L 226.845488 229.052178 
L 227.00471 168.953604 
L 227.163932 193.626649 
L 227.323155 167.53713 
L 227.482377 242.808899 
L 227.6416 193.021383 
L 227.800822 181.748025 
L 227.960045 179.439607 
L 228.119267 209.030503 
L 228.278489 199.569397 
L 228.437712 214.772447 
L 228.756157 151.708001 
L 228.915379 186.284474 
L 229.233824 174.859646 
L 229.552269 229.130808 
L 229.711491 191.798333 
L 229.870714 205.418708 
L 230.029936 165.398855 
L 230.189159 191.687196 
L 230.348381 255.4255 
L 230.507604 177.694063 
L 230.666826 229.551928 
L 230.826048 197.534209 
L 230.985271 201.12576 
L 231.144493 156.785301 
L 231.303716 177.900166 
L 231.462938 151.151261 
L 231.622161 157.786568 
L 231.781383 208.37574 
L 231.940605 170.219808 
L 232.099828 213.987079 
L 232.25905 184.707376 
L 232.418273 234.973892 
L 232.577495 165.625138 
L 232.736718 217.51185 
L 232.89594 171.882538 
L 233.055163 178.762875 
L 233.214385 217.045675 
L 233.851275 163.853082 
L 234.010497 177.336272 
L 234.16972 174.596221 
L 234.328942 180.142007 
L 234.488164 167.77089 
L 234.647387 193.74911 
L 234.806609 192.994093 
L 234.965832 198.139031 
L 235.125054 207.748946 
L 235.284277 228.942515 
L 235.602721 187.168723 
L 235.761944 151.813671 
L 236.080389 226.116236 
L 236.239611 172.832663 
L 236.398834 213.624022 
L 236.558056 172.772725 
L 236.717279 240.432827 
L 236.876501 173.920283 
L 237.035723 188.276859 
L 237.194946 190.602815 
L 237.354168 183.351903 
L 237.513391 226.039878 
L 237.672613 174.468246 
L 237.831836 212.453194 
L 238.15028 191.340444 
L 238.309503 197.416469 
L 238.468725 181.718421 
L 238.627948 186.866648 
L 238.78717 241.002506 
L 238.946393 177.225158 
L 239.105615 165.761159 
L 239.264837 212.420196 
L 239.42406 220.76653 
L 239.583282 187.605178 
L 239.742505 228.394468 
L 240.06095 174.317657 
L 240.220172 175.616659 
L 240.379395 231.167356 
L 240.538617 238.609285 
L 240.697839 172.712897 
L 240.857062 208.905886 
L 241.016284 196.311662 
L 241.175507 195.849863 
L 241.334729 192.950107 
L 241.493952 135.713835 
L 241.971619 244.351086 
L 242.290064 172.855095 
L 242.449286 177.261122 
L 242.608509 166.400041 
L 242.767731 201.266388 
L 242.926953 153.141433 
L 243.086176 224.708129 
L 243.245398 188.515117 
L 243.404621 195.587597 
L 243.563843 193.428179 
L 243.723066 213.267353 
L 243.882288 204.457457 
L 244.041511 216.612992 
L 244.200733 192.6053 
L 244.359955 215.848401 
L 244.6784 195.220286 
L 244.996845 213.872277 
L 245.156068 175.736024 
L 245.31529 174.70408 
L 245.474512 214.487398 
L 245.633735 169.919765 
L 245.792957 236.824036 
L 246.111402 178.118095 
L 246.270625 205.064203 
L 246.58907 173.092284 
L 246.748292 213.156531 
L 247.066737 183.978141 
L 247.225959 222.268514 
L 247.544404 186.253166 
L 247.862849 170.765489 
L 248.022071 214.880776 
L 248.340516 199.272382 
L 248.499739 213.569935 
L 248.658961 199.154327 
L 248.818184 208.936958 
L 248.977406 234.849311 
L 249.773518 164.737853 
L 249.932741 193.313684 
L 250.091963 286.411569 
L 250.410408 200.276167 
L 250.56963 289.316516 
L 250.728853 212.656471 
L 250.888075 233.763844 
L 251.047298 196.375618 
L 251.20652 199.756106 
L 251.365743 222.086528 
L 251.684187 185.346687 
L 252.002632 211.168829 
L 252.161855 196.387893 
L 252.321077 211.670614 
L 252.4803 184.147176 
L 252.639522 213.149599 
L 252.798744 283.64806 
L 252.957967 210.444217 
L 253.117189 189.89916 
L 253.435634 217.108184 
L 253.594857 216.214207 
L 253.913302 173.155 
L 254.072524 173.171038 
L 254.231746 181.342733 
L 254.390969 175.604049 
L 254.550191 164.995368 
L 254.709414 178.582345 
L 254.868636 173.153314 
L 255.027859 236.511546 
L 255.187081 226.150384 
L 255.346303 166.810518 
L 255.664748 245.386181 
L 255.983193 177.919053 
L 256.142416 188.936732 
L 256.301638 187.626403 
L 256.46086 178.692872 
L 256.620083 188.585999 
L 256.779305 189.844653 
L 256.938528 219.623193 
L 257.09775 213.475526 
L 257.575418 178.731227 
L 257.893862 211.914707 
L 258.053085 216.510547 
L 258.212307 173.76749 
L 258.37153 224.609733 
L 258.530752 223.828694 
L 258.689975 203.313829 
L 258.849197 222.693105 
L 259.008419 211.61143 
L 259.167642 231.877021 
L 259.326864 182.225149 
L 259.486087 194.773407 
L 259.645309 197.445124 
L 259.804532 208.444 
L 259.963754 237.1367 
L 260.282199 179.348514 
L 260.441421 201.324515 
L 260.759866 181.61059 
L 260.919089 204.826615 
L 261.237534 155.467973 
L 261.396756 187.899088 
L 261.555978 195.964787 
L 261.715201 211.394724 
L 261.874423 187.554934 
L 262.033646 185.396947 
L 262.192868 202.547208 
L 262.352091 173.980936 
L 262.670535 216.8772 
L 262.829758 179.155145 
L 262.98898 168.602812 
L 263.148203 205.726612 
L 263.307425 212.949315 
L 263.466648 200.736017 
L 263.62587 240.532862 
L 263.785093 217.49703 
L 263.944315 172.706341 
L 264.103537 206.306148 
L 264.26276 201.342857 
L 264.421982 181.794103 
L 264.581205 228.627262 
L 264.740427 211.228576 
L 264.89965 222.592919 
L 265.058872 174.161832 
L 265.218094 224.090476 
L 265.377317 199.392033 
L 265.536539 202.157025 
L 265.695762 209.340505 
L 265.854984 176.011434 
L 266.014207 232.308699 
L 266.173429 219.453327 
L 266.332651 183.822768 
L 266.491874 233.046968 
L 266.810319 192.864517 
L 266.969541 221.04858 
L 267.128764 196.817937 
L 267.287986 206.699034 
L 267.447209 267.597838 
L 267.606431 171.721089 
L 267.924876 189.619257 
L 268.084098 183.089515 
L 268.402543 209.831844 
L 268.561766 219.473217 
L 268.720988 214.269924 
L 268.88021 192.245483 
L 269.039433 256.033729 
L 269.198655 169.725872 
L 269.357878 215.148954 
L 269.676323 210.607532 
L 269.835545 188.564107 
L 269.994767 215.830635 
L 270.15399 222.268295 
L 270.313212 152.063447 
L 270.472435 227.2036 
L 270.631657 219.98866 
L 270.79088 206.111397 
L 270.950102 182.192573 
L 271.109325 186.380643 
L 271.268547 248.538227 
L 271.427769 193.703706 
L 271.586992 188.33428 
L 271.746214 238.345596 
L 271.905437 199.762374 
L 272.064659 191.449921 
L 272.223882 223.250703 
L 272.542326 205.135164 
L 272.701549 224.949993 
L 272.860771 216.129631 
L 273.019994 226.465698 
L 273.179216 165.545343 
L 273.338439 208.818972 
L 273.656883 196.590591 
L 273.816106 167.391093 
L 273.975328 216.57521 
L 274.293773 177.163552 
L 274.452996 234.941714 
L 274.612218 183.9473 
L 274.771441 231.199353 
L 275.089885 204.603183 
L 275.249108 248.343014 
L 275.40833 187.827151 
L 275.567553 192.760325 
L 275.726775 229.012876 
L 275.885998 209.239468 
L 276.04522 169.479095 
L 276.363665 208.958419 
L 276.522887 207.280496 
L 276.68211 210.804843 
L 276.841332 245.894192 
L 277.159777 157.701027 
L 277.319 187.291625 
L 277.478222 237.756142 
L 277.637444 233.755489 
L 277.796667 185.08225 
L 278.115112 226.972428 
L 278.274334 185.602631 
L 278.433557 256.684012 
L 278.592779 185.812691 
L 278.752001 243.548245 
L 278.911224 184.763293 
L 279.070446 265.480764 
L 279.388891 176.756555 
L 279.548114 178.236263 
L 279.707336 234.052496 
L 279.866558 248.271178 
L 280.025781 213.831009 
L 280.185003 228.300736 
L 280.344226 200.067749 
L 280.503448 216.603889 
L 280.662671 218.372323 
L 280.821893 211.453504 
L 280.981116 245.50384 
L 281.140338 239.626622 
L 281.29956 228.034795 
L 281.458783 231.3846 
L 281.618005 213.533121 
L 281.777228 213.695308 
L 281.93645 186.414786 
L 282.095673 239.759018 
L 282.254895 229.062394 
L 282.414117 191.194652 
L 282.57334 208.826571 
L 282.732562 243.628955 
L 282.891785 179.815462 
L 283.051007 193.912044 
L 283.21023 169.402458 
L 283.369452 241.991191 
L 283.528674 218.06701 
L 283.687897 161.551846 
L 283.847119 239.558494 
L 284.006342 187.267681 
L 284.165564 185.523381 
L 284.324787 217.474389 
L 284.484009 176.987995 
L 284.643232 183.45646 
L 284.802454 201.192511 
L 284.961676 191.003973 
L 285.280121 233.796047 
L 285.439344 189.66588 
L 285.598566 195.921671 
L 285.757789 235.061098 
L 285.917011 200.979424 
L 286.076233 197.779306 
L 286.235456 198.621171 
L 286.394678 222.460185 
L 286.553901 218.916221 
L 286.713123 209.077142 
L 286.872346 162.544678 
L 287.19079 197.935554 
L 287.350013 203.419495 
L 287.509235 220.41541 
L 287.668458 184.466123 
L 287.82768 185.135496 
L 287.986903 191.687966 
L 288.146125 185.455055 
L 288.305348 186.985226 
L 288.46457 201.779463 
L 288.623792 195.329054 
L 288.783015 225.055818 
L 288.942237 204.219696 
L 289.260682 234.806865 
L 289.419905 268.345852 
L 289.579127 203.296873 
L 289.738349 223.132573 
L 289.897572 178.859528 
L 290.056794 255.807534 
L 290.216017 185.080131 
L 290.375239 189.162485 
L 290.534462 201.480306 
L 290.693684 191.677351 
L 290.852907 193.873462 
L 291.012129 178.698511 
L 291.171351 193.185152 
L 291.330574 243.79276 
L 291.489796 220.758743 
L 291.649019 181.414285 
L 291.808241 201.559006 
L 292.126686 172.383279 
L 292.285908 190.088809 
L 292.445131 178.918331 
L 292.604353 201.081639 
L 292.763576 201.155489 
L 293.082021 223.598968 
L 293.241243 248.309093 
L 293.400465 203.573849 
L 293.559688 250.189344 
L 293.71891 241.424153 
L 293.878133 206.255632 
L 294.037355 223.831851 
L 294.196578 220.25111 
L 294.3558 194.761202 
L 294.515023 288.669239 
L 294.833467 205.999838 
L 294.99269 209.492937 
L 295.151912 195.98899 
L 295.311135 204.138147 
L 295.62958 253.178823 
L 295.788802 194.065141 
L 295.948024 209.205126 
L 296.107247 237.19599 
L 296.266469 235.290508 
L 296.744137 179.427514 
L 296.903359 234.891461 
L 297.062581 245.72937 
L 297.221804 242.194057 
L 297.381026 212.080642 
L 297.540249 210.226494 
L 297.699471 235.358829 
L 297.858694 213.284341 
L 298.177139 226.930037 
L 298.336361 199.86068 
L 298.495583 212.593881 
L 298.654806 236.093704 
L 298.814028 241.36234 
L 298.973251 201.926692 
L 299.132473 231.695449 
L 299.291696 192.248147 
L 299.450918 206.641275 
L 299.61014 207.587654 
L 299.769363 251.408083 
L 299.928585 211.991326 
L 300.087808 206.924618 
L 300.24703 245.111032 
L 300.406253 184.581189 
L 300.565475 252.555256 
L 300.88392 185.10735 
L 301.043142 222.087502 
L 301.202365 216.256818 
L 301.361587 223.159914 
L 301.52081 218.967874 
L 301.680032 207.871006 
L 301.839255 227.70078 
L 301.998477 197.616858 
L 302.157699 257.819864 
L 302.316922 210.888251 
L 302.476144 248.830718 
L 302.635367 189.085942 
L 302.794589 230.197171 
L 302.953812 202.830722 
L 303.113034 276.084259 
L 303.272256 198.746012 
L 303.431479 191.007405 
L 303.590701 222.648249 
L 303.749924 219.064576 
L 303.909146 182.749645 
L 304.068369 212.415224 
L 304.227591 202.662842 
L 304.386814 228.134809 
L 304.546036 232.943447 
L 304.705258 230.204431 
L 305.023703 189.692045 
L 305.182926 225.930465 
L 305.501371 160.753906 
L 305.660593 211.344659 
L 305.819815 193.156624 
L 305.979038 258.469703 
L 306.13826 215.15574 
L 306.297483 222.341346 
L 306.615928 192.515065 
L 306.77515 219.416654 
L 306.934372 209.296487 
L 307.093595 228.644672 
L 307.252817 178.676659 
L 307.41204 275.971701 
L 307.571262 195.012044 
L 307.889707 214.351804 
L 308.04893 213.024319 
L 308.208152 242.559342 
L 308.526597 202.145999 
L 308.685819 231.365937 
L 308.845042 197.17622 
L 309.163487 229.265354 
L 309.322709 219.415092 
L 309.481931 265.876816 
L 309.641154 175.834917 
L 309.800376 190.214869 
L 309.959599 188.478215 
L 310.118821 217.014289 
L 310.278044 214.196505 
L 310.596488 253.871393 
L 310.755711 202.19574 
L 310.914933 198.160098 
L 311.074156 249.509847 
L 311.233378 189.554383 
L 311.392601 251.372447 
L 311.551823 190.885422 
L 311.711046 228.418624 
L 311.870268 228.838631 
L 312.02949 234.94177 
L 312.188713 230.122286 
L 312.347935 194.441251 
L 312.507158 220.063251 
L 312.66638 210.352534 
L 312.825603 266.890514 
L 312.984825 201.700201 
L 313.144047 194.608655 
L 313.30327 204.720986 
L 313.462492 207.201346 
L 313.621715 193.219478 
L 313.780937 232.575541 
L 313.94016 172.985989 
L 314.099382 227.377661 
L 314.258604 210.498606 
L 314.417827 241.326064 
L 314.577049 202.771411 
L 314.736272 223.026597 
L 314.895494 171.595568 
L 315.054717 187.596145 
L 315.213939 249.106025 
L 315.373162 181.655824 
L 315.691606 242.130534 
L 316.010051 222.78953 
L 316.487719 181.166341 
L 316.806163 245.760194 
L 316.965386 184.928782 
L 317.124608 200.581433 
L 317.283831 202.613459 
L 317.443053 223.303861 
L 317.602276 193.349279 
L 317.92072 257.610547 
L 318.079943 218.747966 
L 318.398388 201.659585 
L 318.55761 183.366454 
L 318.876055 255.418552 
L 319.035278 201.257111 
L 319.1945 204.527043 
L 319.353722 220.666535 
L 319.512945 207.736193 
L 319.672167 207.796717 
L 319.83139 182.323663 
L 320.149835 265.615696 
L 320.309057 175.421788 
L 320.468279 231.735288 
L 320.627502 222.375961 
L 320.786724 238.979841 
L 320.945947 220.601173 
L 321.105169 185.451872 
L 321.423614 196.61106 
L 321.582837 232.185195 
L 321.742059 239.774579 
L 321.901281 220.956542 
L 322.060504 217.296387 
L 322.219726 190.69649 
L 322.378949 210.252133 
L 322.538171 198.111967 
L 322.697394 175.579577 
L 322.856616 234.720734 
L 323.015838 201.787589 
L 323.175061 217.655367 
L 323.334283 261.410472 
L 323.493506 232.016521 
L 323.652728 230.572097 
L 323.811951 182.801129 
L 323.971173 216.02609 
L 324.130395 214.980983 
L 324.289618 222.223417 
L 324.44884 200.767445 
L 324.767285 264.669468 
L 324.926508 180.784536 
L 325.08573 256.11046 
L 325.404175 188.802587 
L 325.563397 223.71755 
L 325.72262 172.428723 
L 325.881842 191.303048 
L 326.041065 192.692178 
L 326.200287 172.163863 
L 326.35951 190.763048 
L 326.677954 201.189204 
L 326.837177 214.484432 
L 326.996399 244.771903 
L 327.155622 183.079693 
L 327.314844 239.065306 
L 327.633289 227.012002 
L 327.792511 193.413614 
L 328.110956 273.148376 
L 328.429401 194.650791 
L 328.588624 211.283421 
L 328.747846 206.50396 
L 328.907069 211.70707 
L 329.066291 264.262692 
L 329.225513 221.659616 
L 329.384736 218.891144 
L 329.543958 200.769821 
L 329.703181 235.693372 
L 329.862403 200.546763 
L 330.180848 269.700825 
L 330.499293 176.328259 
L 330.658515 227.352203 
L 330.817738 217.983102 
L 330.97696 221.166848 
L 331.136183 210.642371 
L 331.295405 220.485723 
L 331.454627 249.376304 
L 331.773072 218.229222 
L 331.932295 227.517306 
L 332.091517 225.212199 
L 332.25074 247.358072 
L 332.409962 169.975186 
L 332.569185 235.205465 
L 332.728407 237.671887 
L 332.887629 241.981029 
L 333.046852 240.916929 
L 333.206074 216.147485 
L 333.365297 231.216634 
L 333.524519 260.61716 
L 333.683742 221.196313 
L 333.842964 267.344472 
L 334.002186 257.135487 
L 334.161409 263.19431 
L 334.479854 221.242124 
L 334.639076 242.255555 
L 334.798299 214.421259 
L 334.957521 229.952167 
L 335.116744 203.430261 
L 335.275966 239.063362 
L 335.435188 241.720185 
L 335.594411 189.483162 
L 335.753633 218.986718 
L 335.912856 171.082889 
L 336.072078 234.491174 
L 336.231301 201.451369 
L 336.390523 224.509179 
L 336.549745 209.743091 
L 336.86819 230.373991 
L 337.027413 225.478767 
L 337.186635 241.199277 
L 337.345858 199.934744 
L 337.50508 268.832997 
L 337.664302 193.29784 
L 337.823525 263.382911 
L 337.982747 218.833607 
L 338.14197 228.038599 
L 338.301192 226.100074 
L 338.460415 217.129112 
L 338.619637 253.01955 
L 338.77886 203.225077 
L 339.097304 226.960921 
L 339.256527 185.955624 
L 339.415749 249.964381 
L 339.574972 209.631053 
L 339.734194 246.136108 
L 339.893417 237.339812 
L 340.052639 249.887195 
L 340.211861 193.448301 
L 340.371084 226.586206 
L 340.689529 191.448098 
L 341.007974 236.027377 
L 341.167196 245.382313 
L 341.326418 192.572577 
L 341.485641 232.529494 
L 341.644863 207.84152 
L 341.804086 202.937248 
L 341.963308 248.34314 
L 342.122531 235.067802 
L 342.281753 194.338746 
L 342.600198 220.095861 
L 342.75942 213.652134 
L 342.918643 280.24916 
L 343.077865 219.381229 
L 343.237088 224.516239 
L 343.39631 241.87907 
L 343.555533 234.391311 
L 343.714755 249.164335 
L 343.873977 182.636506 
L 344.0332 187.594944 
L 344.192422 278.142475 
L 344.351645 195.436115 
L 344.510867 248.608869 
L 344.67009 217.635882 
L 344.829312 229.926733 
L 344.988534 262.596797 
L 345.147757 231.783891 
L 345.466202 227.0143 
L 345.625424 213.739433 
L 345.943869 245.328061 
L 346.262314 197.575783 
L 346.421536 206.815895 
L 346.580759 225.522829 
L 346.739981 195.475115 
L 346.899204 252.898662 
L 347.058426 239.948602 
L 347.217649 201.948739 
L 347.376871 200.929245 
L 347.536093 191.521133 
L 347.854538 218.247819 
L 348.013761 238.299523 
L 348.332206 170.174585 
L 348.65065 220.147678 
L 348.809873 238.293252 
L 349.128318 192.828627 
L 349.28754 242.956554 
L 349.446763 224.707387 
L 349.605985 220.748851 
L 349.765208 248.647874 
L 350.083652 194.971003 
L 350.242875 271.714344 
L 350.56132 208.321971 
L 350.720542 266.903599 
L 350.879765 183.229498 
L 351.038987 229.905492 
L 351.198209 203.342439 
L 351.357432 247.50793 
L 351.516654 193.716501 
L 351.675877 204.751352 
L 351.835099 234.4363 
L 351.994322 218.22819 
L 352.153544 279.422297 
L 352.312767 168.335386 
L 352.471989 177.923034 
L 352.631211 250.488534 
L 352.790434 217.806322 
L 352.949656 231.536135 
L 353.108879 186.135995 
L 353.268101 246.672398 
L 353.427324 200.088743 
L 353.586546 238.819959 
L 353.745768 223.933107 
L 353.904991 232.055806 
L 354.064213 209.36733 
L 354.223436 223.566563 
L 354.382658 258.274392 
L 354.541881 245.931165 
L 354.701103 213.468054 
L 354.860325 205.662134 
L 355.17877 285.802851 
L 355.337993 217.003897 
L 355.497215 201.232003 
L 355.656438 225.492999 
L 355.81566 197.1927 
L 355.974883 198.603805 
L 356.134105 193.35688 
L 356.45255 225.313912 
L 356.770995 207.092808 
L 356.930217 233.130544 
L 357.248662 214.977322 
L 357.407884 253.346966 
L 357.567107 207.914712 
L 357.726329 227.549742 
L 357.885552 209.222385 
L 358.044774 216.696718 
L 358.363219 206.461448 
L 358.522441 224.745424 
L 358.681664 203.231556 
L 359.000109 255.453126 
L 359.318554 224.4686 
L 359.477776 224.095332 
L 359.636999 225.55498 
L 359.955443 189.322898 
L 360.114666 193.774785 
L 360.273888 233.047026 
L 360.433111 225.045891 
L 360.592333 241.887922 
L 360.751556 227.491583 
L 360.910778 245.549027 
L 361.07 248.231769 
L 361.229223 194.822527 
L 361.388445 197.890231 
L 361.866113 248.462226 
L 362.025335 228.648579 
L 362.184557 256.600257 
L 362.34378 233.047324 
L 362.503002 233.975777 
L 362.662225 199.661394 
L 362.821447 230.889055 
L 362.98067 209.876333 
L 363.139892 224.425565 
L 363.299115 212.727448 
L 363.458337 259.149101 
L 363.617559 208.256117 
L 363.936004 279.065385 
L 364.095227 231.002084 
L 364.254449 235.710157 
L 364.413672 218.602119 
L 364.572894 229.457424 
L 364.732116 176.588891 
L 364.891339 225.657197 
L 365.209784 213.595789 
L 365.369006 232.160739 
L 365.528229 189.83318 
L 365.687451 257.694005 
L 365.846674 223.814808 
L 366.005896 214.737028 
L 366.165118 179.66224 
L 366.324341 221.452923 
L 366.483563 193.064357 
L 366.802008 207.539522 
L 366.961231 260.42211 
L 367.120453 211.451597 
L 367.279675 265.591417 
L 367.438898 207.141518 
L 367.59812 237.11099 
L 367.757343 206.916353 
L 367.916565 241.92562 
L 368.075788 237.166649 
L 368.23501 243.725075 
L 368.394232 231.144062 
L 368.553455 194.213073 
L 368.712677 232.623501 
L 369.031122 156.489 
L 369.190345 201.94664 
L 369.349567 214.341493 
L 369.50879 211.435234 
L 369.668012 243.115768 
L 369.827234 220.428441 
L 369.986457 242.697743 
L 370.145679 203.731901 
L 370.304902 209.875484 
L 370.464124 242.231008 
L 370.623347 249.92216 
L 370.782569 220.553211 
L 370.941791 215.884176 
L 371.101014 276.515687 
L 371.260236 254.795264 
L 371.419459 277.387635 
L 371.578681 272.973599 
L 371.737904 249.311182 
L 372.056348 238.712794 
L 372.215571 232.600181 
L 372.374793 212.226287 
L 372.534016 256.329522 
L 372.693238 221.115503 
L 372.852461 212.572312 
L 373.330128 249.756561 
L 373.648573 211.967915 
L 373.807795 219.039517 
L 373.967018 210.387223 
L 374.12624 235.821074 
L 374.285463 193.538705 
L 374.444685 237.022562 
L 374.603907 180.77018 
L 374.76313 172.027811 
L 374.922352 251.329075 
L 375.081575 242.06597 
L 375.240797 207.627025 
L 375.40002 204.681082 
L 375.559242 197.884092 
L 375.718464 264.548307 
L 376.036909 204.691233 
L 376.196132 244.240236 
L 376.355354 243.438692 
L 376.514577 229.099776 
L 376.673799 237.941102 
L 376.992244 214.546893 
L 377.151466 244.163475 
L 377.310689 219.10757 
L 377.469911 213.937192 
L 377.629134 235.615314 
L 377.788356 186.163511 
L 377.947579 180.819874 
L 378.266023 229.997903 
L 378.425246 230.830622 
L 378.584468 199.403101 
L 378.902913 214.891781 
L 379.062136 270.21016 
L 379.38058 202.630104 
L 379.539803 215.616304 
L 379.699025 248.95731 
L 379.858248 224.720609 
L 380.176693 258.050412 
L 380.335915 251.583817 
L 380.495138 234.829515 
L 380.65436 241.118579 
L 380.813582 239.842874 
L 380.972805 248.972589 
L 381.132027 239.64218 
L 381.29125 251.980592 
L 381.450472 233.678627 
L 381.609695 252.606185 
L 381.768917 217.589429 
L 381.928139 264.376521 
L 382.087362 208.252851 
L 382.246584 227.291141 
L 382.565029 210.763018 
L 382.724252 268.766249 
L 382.883474 282.844831 
L 383.042697 197.068708 
L 383.201919 223.02918 
L 383.361141 220.99372 
L 383.520364 239.701059 
L 383.679586 206.164959 
L 383.838809 254.756002 
L 383.998031 212.413829 
L 384.157254 209.245047 
L 384.634921 236.689753 
L 384.794143 186.574101 
L 385.112588 262.752546 
L 385.271811 259.251337 
L 385.431033 212.530505 
L 385.590255 242.053559 
L 385.9087 212.770507 
L 386.067923 253.850896 
L 386.227145 198.501458 
L 386.386368 232.880151 
L 386.54559 234.95188 
L 386.704813 278.522928 
L 387.341702 225.616192 
L 387.500925 263.70489 
L 387.660147 228.055001 
L 387.81937 267.920482 
L 387.978592 200.166635 
L 388.137814 222.611228 
L 388.615482 189.179198 
L 388.933927 250.424997 
L 389.093149 252.85101 
L 389.411594 237.964803 
L 389.570816 246.368871 
L 389.730039 238.625293 
L 389.889261 217.14256 
L 390.048484 213.733998 
L 390.207706 261.440907 
L 390.366929 259.913841 
L 390.526151 214.730128 
L 390.685373 295.488 
L 390.844596 215.015364 
L 391.003818 222.719739 
L 391.163041 183.593245 
L 391.322263 214.645473 
L 391.481486 217.709625 
L 391.640708 280.47558 
L 391.79993 205.281003 
L 391.959153 264.961197 
L 392.118375 191.889952 
L 392.277598 263.599214 
L 392.596043 210.510581 
L 392.755265 228.52165 
L 392.914487 185.912438 
L 393.07371 216.638787 
L 393.232932 193.938477 
L 393.392155 236.823972 
L 393.551377 237.440067 
L 393.7106 240.850536 
L 394.029045 221.792047 
L 394.188267 212.147805 
L 394.347489 218.905275 
L 394.506712 214.923501 
L 394.665934 225.880145 
L 394.984379 178.621225 
L 395.143602 208.048275 
L 395.302824 180.661121 
L 395.621269 238.302282 
L 395.780491 201.307254 
L 395.939714 195.094461 
L 396.098936 283.620475 
L 396.258159 282.678794 
L 396.417381 215.029023 
L 396.576604 213.512115 
L 396.735826 209.765584 
L 396.895048 245.666959 
L 397.054271 227.836141 
L 397.213493 239.770339 
L 397.531938 181.993883 
L 397.691161 208.493592 
L 397.850383 207.981108 
L 398.009605 252.669004 
L 398.32805 222.399717 
L 398.487273 248.586253 
L 398.487273 248.586253 
" style="fill:none;stroke:#1f77b4;stroke-linecap:square;stroke-width:1.5;"/>
   </g>
   <g id="line2d_18">
    <path clip-path="url(#pde240b1826)" d="M 73.832727 53.57014 
L 100.422874 53.569749 
L 116.185895 53.618711 
L 116.50434 53.861293 
L 116.663562 54.377943 
L 116.822785 57.181715 
L 116.982007 64.98204 
L 117.14123 62.402172 
L 117.300452 62.733429 
L 117.459675 57.289488 
L 117.618897 64.241545 
L 117.778119 60.684337 
L 117.937342 67.428641 
L 118.096564 68.20213 
L 118.255787 65.226392 
L 118.415009 67.039018 
L 118.574232 71.17703 
L 118.733454 65.869115 
L 118.892676 73.428272 
L 119.051899 70.447371 
L 119.211121 75.288396 
L 119.370344 74.449631 
L 119.688789 85.870661 
L 119.848011 78.398674 
L 120.007233 76.193315 
L 120.166456 80.385969 
L 120.325678 68.448335 
L 120.484901 78.066726 
L 120.644123 76.393337 
L 120.803346 73.537073 
L 120.962568 80.389588 
L 121.121791 78.31392 
L 121.281013 79.286265 
L 121.599458 78.315108 
L 121.75868 72.02555 
L 121.917903 72.594058 
L 122.39557 82.689317 
L 122.554792 78.954468 
L 122.714015 81.187304 
L 122.873237 79.670582 
L 123.191682 88.916086 
L 123.510127 85.375845 
L 123.66935 84.113641 
L 123.828572 92.171453 
L 123.987794 84.583298 
L 124.147017 92.087168 
L 124.306239 89.170673 
L 124.465462 88.40527 
L 124.624684 89.607282 
L 124.783907 85.111817 
L 124.943129 102.751954 
L 125.102351 88.688711 
L 125.261574 96.018073 
L 125.580019 88.937411 
L 126.057686 94.459398 
L 126.216908 94.075217 
L 126.376131 94.837336 
L 126.694576 91.494897 
L 127.013021 91.538316 
L 127.172243 94.012237 
L 127.331466 92.907209 
L 127.490688 102.706197 
L 127.64991 92.260345 
L 127.809133 95.551334 
L 127.968355 91.965087 
L 128.127578 96.497439 
L 128.446023 86.199565 
L 128.605245 96.059019 
L 128.764467 97.048131 
L 128.92369 95.162098 
L 129.082912 97.571108 
L 129.242135 87.2921 
L 129.401357 101.097199 
L 129.879024 95.588017 
L 130.038247 95.840467 
L 130.197469 94.285151 
L 130.515914 102.964501 
L 130.834359 96.446389 
L 130.993582 98.121185 
L 131.152804 94.765959 
L 131.312026 97.529158 
L 131.471249 102.234768 
L 131.630471 102.460524 
L 131.789694 110.720735 
L 131.948916 98.048103 
L 132.108139 101.558193 
L 132.426583 96.199595 
L 132.585806 104.915923 
L 132.745028 99.019953 
L 133.063473 111.118905 
L 133.381918 89.17587 
L 133.54114 110.536358 
L 133.700363 108.907972 
L 133.859585 101.41969 
L 134.018808 111.387029 
L 134.337253 107.451257 
L 134.496475 111.202053 
L 134.655698 97.583137 
L 134.974142 106.068643 
L 135.133365 102.220059 
L 135.292587 112.243812 
L 135.611032 101.923704 
L 135.770255 101.722441 
L 135.929477 104.891977 
L 136.088699 103.902632 
L 136.247922 93.35371 
L 136.407144 91.552696 
L 136.566367 104.534102 
L 136.725589 105.460875 
L 136.884812 115.874677 
L 137.044034 100.797631 
L 137.203256 112.896134 
L 137.362479 111.368437 
L 137.521701 105.352709 
L 137.680924 105.099774 
L 137.840146 104.265432 
L 137.999369 99.37726 
L 138.317814 108.24109 
L 138.477036 102.181401 
L 138.954703 114.808425 
L 139.113926 108.55209 
L 139.273148 114.099839 
L 139.432371 107.254785 
L 139.591593 108.527315 
L 139.750815 121.630241 
L 139.910038 119.766426 
L 140.06926 116.339079 
L 140.228483 118.311579 
L 140.387705 112.221303 
L 140.546928 114.078074 
L 140.70615 113.052399 
L 140.865373 101.576474 
L 141.024595 123.822359 
L 141.183817 106.549131 
L 141.34304 106.195511 
L 141.502262 105.019255 
L 141.661485 116.318641 
L 141.97993 110.832963 
L 142.139152 111.175632 
L 142.298374 107.190924 
L 142.457597 123.477949 
L 142.616819 113.565378 
L 142.776042 111.43719 
L 142.935264 120.172208 
L 143.094487 116.323493 
L 143.253709 115.97657 
L 143.412931 122.262215 
L 143.572154 118.051092 
L 143.731376 124.148119 
L 143.890599 110.837149 
L 144.209044 120.150723 
L 144.368266 116.301628 
L 144.527489 116.464627 
L 144.686711 119.957749 
L 144.845933 120.544109 
L 145.005156 127.961023 
L 145.164378 117.865106 
L 145.323601 134.166784 
L 145.482823 110.800307 
L 145.642046 109.497427 
L 145.801268 110.346387 
L 145.96049 102.226838 
L 146.119713 99.979796 
L 146.278935 123.296305 
L 146.438158 104.157779 
L 146.59738 137.943653 
L 146.756603 121.835455 
L 147.075047 126.970135 
L 147.23427 108.002004 
L 147.393492 120.083924 
L 147.552715 117.240117 
L 147.711937 125.179229 
L 147.87116 114.976862 
L 148.030382 117.796903 
L 148.189605 116.758933 
L 148.348827 114.914507 
L 148.667272 126.752137 
L 148.826494 124.438729 
L 148.985717 132.582967 
L 149.144939 122.640564 
L 149.304162 122.449901 
L 149.463384 129.035509 
L 149.622606 125.000005 
L 149.781829 125.124675 
L 149.941051 128.916728 
L 150.100274 106.461369 
L 150.259496 126.665045 
L 150.418719 120.879412 
L 150.577941 145.185836 
L 150.896386 112.515021 
L 151.055608 140.907206 
L 151.214831 139.021212 
L 151.374053 124.403698 
L 151.533276 124.806995 
L 151.692498 120.546912 
L 151.851721 140.83978 
L 152.010943 127.334683 
L 152.170165 131.059132 
L 152.48861 132.059818 
L 152.647833 134.358939 
L 152.807055 130.409709 
L 153.1255 114.62292 
L 153.284722 139.867347 
L 153.603167 120.429553 
L 153.921612 138.989382 
L 154.240057 117.962012 
L 154.39928 138.331294 
L 154.558502 128.298746 
L 154.717724 136.073046 
L 154.876947 131.794132 
L 155.036169 132.092698 
L 155.195392 135.990761 
L 155.354614 125.568107 
L 155.513837 130.807625 
L 155.673059 128.845114 
L 155.832281 141.625578 
L 155.991504 142.207223 
L 156.150726 129.196966 
L 156.309949 135.474328 
L 156.469171 135.242263 
L 156.628394 145.251193 
L 156.946838 122.27289 
L 157.265283 138.677168 
L 157.424506 137.634126 
L 157.583728 144.821805 
L 157.742951 128.090837 
L 158.061396 141.299848 
L 158.220618 141.60717 
L 158.37984 149.880601 
L 158.539063 142.9758 
L 158.698285 142.699298 
L 158.857508 133.077747 
L 159.01673 131.746249 
L 159.175953 127.343728 
L 159.335175 132.63716 
L 159.494397 149.470136 
L 159.65362 140.931751 
L 159.812842 138.993254 
L 159.972065 140.735635 
L 160.131287 148.943 
L 160.29051 134.767502 
L 160.449732 134.893529 
L 160.608954 146.53303 
L 160.768177 137.868784 
L 161.086622 157.478003 
L 161.245844 145.36619 
L 161.405067 124.584761 
L 161.564289 135.206392 
L 161.723512 136.803487 
L 162.041956 150.932393 
L 162.201179 147.762552 
L 162.360401 135.818793 
L 162.519624 136.943033 
L 162.678846 149.016544 
L 162.838069 123.598699 
L 163.156513 134.073991 
L 163.474958 161.970014 
L 163.634181 141.598664 
L 163.793403 140.735162 
L 163.952626 152.241152 
L 164.111848 150.500191 
L 164.27107 171.065984 
L 164.430293 143.546058 
L 164.589515 160.456833 
L 164.748738 140.810346 
L 164.90796 148.835731 
L 165.067183 144.552389 
L 165.226405 115.896124 
L 165.704072 172.898327 
L 165.863295 149.674048 
L 166.022517 143.975174 
L 166.18174 156.139539 
L 166.340962 148.692402 
L 166.500185 165.098045 
L 166.659407 133.505826 
L 166.818629 149.060769 
L 166.977852 143.635322 
L 167.137074 130.093283 
L 167.296297 153.445867 
L 167.614742 140.44594 
L 167.773964 131.613007 
L 167.933186 160.583867 
L 168.092409 141.470473 
L 168.251631 143.756472 
L 168.410854 149.109189 
L 168.570076 146.810823 
L 168.729299 159.61463 
L 168.888521 161.986289 
L 169.047744 143.861148 
L 169.206966 157.669461 
L 169.366188 147.571188 
L 169.525411 158.564386 
L 169.684633 149.776885 
L 170.003078 157.941158 
L 170.162301 145.043669 
L 170.321523 146.990725 
L 170.480745 138.091649 
L 170.639968 169.600073 
L 170.79919 158.133043 
L 170.958413 165.988604 
L 171.117635 151.920756 
L 171.276858 152.753796 
L 171.595303 168.824195 
L 171.754525 140.039264 
L 171.913747 169.081335 
L 172.07297 171.329648 
L 172.232192 143.913094 
L 172.550637 160.663875 
L 172.70986 137.606376 
L 172.869082 135.367436 
L 173.028304 159.24319 
L 173.187527 157.497292 
L 173.346749 164.506434 
L 173.505972 155.323324 
L 173.665194 173.298954 
L 173.983639 148.927154 
L 174.142861 135.648038 
L 174.302084 174.022093 
L 174.461306 150.697218 
L 174.620529 157.284828 
L 174.779751 184.057102 
L 174.938974 148.240656 
L 175.098196 148.012613 
L 175.257419 145.582281 
L 175.416641 162.507227 
L 175.575863 145.285248 
L 175.735086 163.821189 
L 176.053531 145.65534 
L 176.212753 159.932448 
L 176.371976 155.810233 
L 176.531198 158.73482 
L 176.69042 157.902856 
L 176.849643 171.969182 
L 177.168088 157.697744 
L 177.32731 167.612982 
L 177.486533 162.180344 
L 177.645755 137.767182 
L 177.9642 165.636827 
L 178.123422 142.781733 
L 178.441867 162.991853 
L 178.60109 164.48278 
L 178.760312 157.733254 
L 178.919535 173.653516 
L 179.078757 155.278912 
L 179.237979 155.922411 
L 179.397202 146.908742 
L 179.556424 187.345623 
L 179.715647 145.823823 
L 179.874869 189.744723 
L 180.193314 153.088417 
L 180.352536 163.996517 
L 180.511759 162.925697 
L 180.670981 150.141648 
L 180.989426 182.16468 
L 181.148649 176.336434 
L 181.307871 162.279757 
L 181.467093 160.977714 
L 181.626316 168.038563 
L 181.785538 159.817161 
L 181.944761 163.004214 
L 182.103983 149.585994 
L 182.263206 153.876894 
L 182.581651 168.329972 
L 182.900095 154.624425 
L 183.059318 155.002301 
L 183.21854 159.533605 
L 183.377763 171.455618 
L 183.536985 151.608518 
L 184.014652 170.777797 
L 184.173875 159.239208 
L 184.333097 179.603873 
L 184.49232 152.938939 
L 184.810765 170.368466 
L 184.969987 153.581433 
L 185.12921 175.151302 
L 185.288432 172.950601 
L 185.606877 159.117044 
L 185.925322 166.045969 
L 186.084544 168.780213 
L 186.243767 154.432012 
L 186.402989 186.186708 
L 186.562211 186.668538 
L 186.721434 157.86873 
L 186.880656 164.912855 
L 187.039879 141.617552 
L 187.358324 158.670231 
L 187.517546 195.163123 
L 187.676768 162.058499 
L 187.835991 166.221661 
L 187.995213 174.708577 
L 188.313658 158.130245 
L 188.472881 176.712117 
L 188.791326 150.372442 
L 188.950548 169.281906 
L 189.10977 158.286697 
L 189.268993 181.892058 
L 189.428215 165.545669 
L 189.74666 195.694033 
L 190.065105 155.569415 
L 190.38355 179.62517 
L 190.542772 167.388838 
L 190.701995 170.153115 
L 190.861217 144.420183 
L 191.338884 188.454194 
L 191.498107 161.634432 
L 191.657329 156.310424 
L 191.816552 168.112566 
L 191.975774 165.103125 
L 192.134997 201.363898 
L 192.294219 139.288237 
L 192.612664 170.065295 
L 192.771886 173.858492 
L 192.931109 189.137263 
L 193.249554 160.215933 
L 193.408776 163.640638 
L 193.567999 173.344473 
L 193.727221 163.738392 
L 193.886443 191.340846 
L 194.045666 183.927979 
L 194.523333 177.601516 
L 194.682556 155.797402 
L 194.841778 187.391489 
L 195.001 185.743091 
L 195.160223 190.651042 
L 195.319445 179.29785 
L 195.478668 150.043882 
L 195.63789 180.736738 
L 195.797113 180.635486 
L 195.956335 163.937437 
L 196.27478 194.604195 
L 196.434002 180.601949 
L 196.593225 144.333435 
L 196.752447 192.418338 
L 196.91167 166.629425 
L 197.230115 180.67139 
L 197.389337 166.637599 
L 197.548559 166.115636 
L 197.707782 185.924728 
L 197.867004 167.954959 
L 198.026227 202.76839 
L 198.344672 164.335093 
L 198.503894 155.728364 
L 198.663117 158.620974 
L 198.822339 146.210012 
L 199.140784 173.67371 
L 199.300006 157.207075 
L 199.459229 157.310642 
L 199.618451 163.895471 
L 199.936896 197.460046 
L 200.096118 172.640194 
L 200.255341 171.953244 
L 200.414563 164.240242 
L 200.573786 191.025501 
L 200.733008 173.239397 
L 200.892231 192.378802 
L 201.051453 164.308327 
L 201.210675 173.422077 
L 201.369898 173.597967 
L 201.52912 149.858437 
L 201.688343 173.660667 
L 201.847565 169.649076 
L 202.16601 180.450181 
L 202.325233 203.60897 
L 202.8029 167.709585 
L 202.962122 175.690839 
L 203.121345 175.719027 
L 203.280567 173.262579 
L 203.43979 188.800178 
L 203.599012 181.281798 
L 203.758234 162.443521 
L 203.917457 164.980726 
L 204.076679 169.946067 
L 204.235902 192.867448 
L 204.395124 149.892294 
L 204.713569 213.072887 
L 204.872791 176.040824 
L 205.032014 182.015068 
L 205.350459 168.985088 
L 205.509681 175.532141 
L 205.668904 206.130049 
L 205.828126 164.616644 
L 205.987349 196.922867 
L 206.146571 153.701367 
L 206.465016 190.853518 
L 206.624238 182.63203 
L 206.783461 181.848949 
L 206.942683 194.825377 
L 207.101906 165.07149 
L 207.261128 186.793333 
L 207.579573 162.717396 
L 207.738795 193.40646 
L 207.898018 166.28143 
L 208.05724 193.953735 
L 208.216463 175.596137 
L 208.534907 180.655194 
L 208.69413 177.818439 
L 208.853352 162.462986 
L 209.012575 211.365832 
L 209.171797 169.615525 
L 209.33102 170.399837 
L 209.490242 167.205987 
L 209.649465 216.260816 
L 209.808687 175.695602 
L 209.967909 169.976908 
L 210.127132 189.194378 
L 210.604799 161.417979 
L 210.764022 202.605637 
L 210.923244 164.13487 
L 211.082466 168.264345 
L 211.241689 178.863392 
L 211.400911 160.423998 
L 211.560134 176.220645 
L 211.719356 176.614408 
L 211.878579 198.7723 
L 212.037801 160.054499 
L 212.356246 191.071564 
L 212.515468 159.671287 
L 212.674691 165.843188 
L 212.833913 211.428712 
L 212.993136 183.137933 
L 213.152358 190.25215 
L 213.311581 212.358736 
L 213.470803 199.55627 
L 213.630025 167.258825 
L 213.94847 199.505301 
L 214.107693 160.8935 
L 214.266915 196.677217 
L 214.58536 160.332131 
L 214.744582 183.855408 
L 214.903805 148.126768 
L 215.22225 218.340988 
L 215.381472 207.181447 
L 215.540695 179.976697 
L 215.699917 191.295366 
L 215.85914 169.47673 
L 216.018362 194.851687 
L 216.177584 178.71398 
L 216.336807 205.816735 
L 216.496029 185.162893 
L 216.655252 182.717229 
L 216.814474 199.830192 
L 216.973697 196.550156 
L 217.132919 174.600817 
L 217.292141 182.326177 
L 217.451364 179.700864 
L 217.610586 187.511306 
L 217.769809 177.801974 
L 218.088254 191.862696 
L 218.247476 191.090921 
L 218.725143 219.534039 
L 218.884366 166.860864 
L 219.043588 206.594016 
L 219.202811 178.838378 
L 219.521256 167.253759 
L 219.680478 188.976478 
L 219.8397 148.624224 
L 220.158145 192.462865 
L 220.317368 190.876897 
L 220.47659 171.833119 
L 220.795035 183.057242 
L 220.954257 168.295806 
L 221.272702 211.081154 
L 221.431925 178.025778 
L 221.75037 197.284344 
L 221.909592 190.677434 
L 222.068814 168.370131 
L 222.228037 195.328761 
L 222.387259 195.807147 
L 222.546482 175.381805 
L 222.705704 216.244035 
L 222.864927 163.747125 
L 223.024149 189.423185 
L 223.183372 179.141574 
L 223.342594 202.659617 
L 223.501816 182.492432 
L 223.661039 213.535361 
L 223.820261 181.843169 
L 223.979484 198.156799 
L 224.138706 170.058235 
L 224.297929 192.275194 
L 224.457151 176.508531 
L 224.775596 200.307343 
L 224.934818 187.752197 
L 225.094041 192.233305 
L 225.253263 203.799927 
L 225.412486 204.346281 
L 225.571708 180.984024 
L 225.73093 193.631126 
L 225.890153 168.812603 
L 226.049375 180.489002 
L 226.208598 206.63287 
L 226.36782 166.124563 
L 226.527043 171.837065 
L 226.686265 196.069793 
L 226.845488 187.300437 
L 227.00471 216.416267 
L 227.163932 210.673878 
L 227.323155 215.878853 
L 227.482377 172.971142 
L 227.6416 172.028483 
L 227.800822 174.737773 
L 228.119267 182.041789 
L 228.278489 178.321307 
L 228.437712 184.984371 
L 228.756157 178.444354 
L 228.915379 183.295926 
L 229.074602 199.286468 
L 229.393047 207.439341 
L 229.552269 168.982218 
L 229.711491 175.607103 
L 229.870714 211.625159 
L 230.029936 197.183542 
L 230.189159 222.042411 
L 230.507604 179.365492 
L 230.826048 208.23766 
L 230.985271 188.157146 
L 231.144493 194.472509 
L 231.462938 179.863266 
L 231.781383 199.532896 
L 231.940605 181.821037 
L 232.099828 202.001196 
L 232.418273 188.535444 
L 232.577495 210.663696 
L 232.736718 195.440649 
L 232.89594 211.530404 
L 233.055163 203.586357 
L 233.373607 167.460017 
L 233.53283 201.810681 
L 233.851275 176.861075 
L 234.010497 228.959525 
L 234.16972 166.592785 
L 234.488164 225.854244 
L 234.647387 195.196092 
L 234.806609 191.089502 
L 234.965832 214.747174 
L 235.284277 171.3633 
L 235.443499 192.079793 
L 235.602721 183.219729 
L 235.761944 184.707518 
L 235.921166 175.739857 
L 236.080389 178.737938 
L 236.239611 195.604628 
L 236.398834 200.026583 
L 236.558056 183.63609 
L 236.717279 187.186631 
L 236.876501 199.408351 
L 237.035723 179.847879 
L 237.194946 192.525306 
L 237.354168 194.90646 
L 237.513391 183.71598 
L 237.672613 191.281225 
L 238.15028 172.549466 
L 238.309503 205.729247 
L 238.627948 181.841568 
L 238.78717 199.337825 
L 238.946393 199.945022 
L 239.264837 178.287431 
L 239.42406 200.122162 
L 239.583282 197.754203 
L 239.742505 175.695544 
L 239.901727 180.986748 
L 240.06095 156.334231 
L 240.220172 175.850985 
L 240.379395 214.695921 
L 240.538617 204.424862 
L 240.697839 201.745375 
L 240.857062 209.692477 
L 241.016284 207.380942 
L 241.334729 179.752303 
L 241.493952 223.541272 
L 241.653174 186.524297 
L 241.812396 176.563336 
L 241.971619 210.853355 
L 242.130841 199.508051 
L 242.290064 209.986745 
L 242.449286 205.851237 
L 242.608509 170.633966 
L 242.767731 186.820612 
L 242.926953 223.429078 
L 243.086176 172.885372 
L 243.563843 207.806228 
L 243.723066 211.598088 
L 243.882288 219.021153 
L 244.041511 193.484308 
L 244.200733 219.733352 
L 244.359955 183.894253 
L 244.519178 196.177298 
L 244.6784 220.183678 
L 244.996845 175.440165 
L 245.156068 208.069307 
L 245.31529 210.75519 
L 245.474512 208.539454 
L 245.792957 220.104081 
L 245.95218 185.145062 
L 246.270625 204.238775 
L 246.429847 206.889564 
L 246.58907 193.059973 
L 246.748292 205.852238 
L 246.907514 188.33006 
L 247.225959 222.920942 
L 247.385182 206.374391 
L 247.544404 214.973657 
L 247.703627 180.416159 
L 247.862849 175.255481 
L 248.022071 178.337101 
L 248.181294 219.367234 
L 248.340516 231.729433 
L 248.499739 199.318779 
L 248.818184 215.529478 
L 248.977406 213.616216 
L 249.136628 180.835164 
L 249.295851 203.503945 
L 249.455073 144.061043 
L 249.932741 216.971752 
L 250.091963 179.777833 
L 250.251186 230.022282 
L 250.410408 194.196318 
L 250.56963 198.72262 
L 250.728853 229.273517 
L 250.888075 187.670234 
L 251.20652 197.032491 
L 251.365743 190.591392 
L 251.524965 174.859566 
L 251.684187 199.922504 
L 251.84341 181.421654 
L 252.002632 184.600269 
L 252.161855 223.080864 
L 252.321077 214.580525 
L 252.4803 195.966896 
L 252.639522 204.618958 
L 252.798744 222.268753 
L 252.957967 178.775616 
L 253.117189 215.786665 
L 253.276412 185.901286 
L 253.435634 182.474938 
L 253.594857 176.583541 
L 253.754079 203.455432 
L 253.913302 179.448599 
L 254.072524 202.085372 
L 254.231746 192.575519 
L 254.390969 208.628808 
L 254.550191 202.114069 
L 254.709414 203.783166 
L 254.868636 198.486104 
L 255.027859 175.853589 
L 255.346303 213.000238 
L 255.505526 147.21193 
L 255.664748 212.136247 
L 255.983193 187.899387 
L 256.142416 179.982164 
L 256.46086 202.33506 
L 256.620083 193.219158 
L 256.779305 170.805471 
L 256.938528 215.530876 
L 257.09775 224.703657 
L 257.256973 159.120634 
L 257.575418 187.422177 
L 257.73464 187.689934 
L 257.893862 184.390908 
L 258.053085 188.253257 
L 258.212307 183.781195 
L 258.530752 204.444875 
L 258.689975 203.172513 
L 258.849197 212.858554 
L 259.008419 203.767333 
L 259.167642 217.370651 
L 259.486087 182.32565 
L 259.804532 216.648426 
L 259.963754 191.861868 
L 260.282199 204.520424 
L 260.441421 199.427779 
L 260.600644 225.47203 
L 260.919089 176.780363 
L 261.237534 201.23811 
L 261.396756 179.975401 
L 261.555978 207.99072 
L 261.715201 212.823496 
L 261.874423 208.06953 
L 262.192868 186.010889 
L 262.352091 195.364053 
L 262.511313 187.302633 
L 262.670535 198.686597 
L 262.829758 188.018617 
L 263.148203 221.9413 
L 263.307425 210.647764 
L 263.466648 189.364793 
L 263.785093 224.791135 
L 263.944315 214.402969 
L 264.103537 239.637308 
L 264.26276 178.762594 
L 264.421982 210.432165 
L 264.581205 205.749619 
L 264.89965 213.307363 
L 265.058872 193.278462 
L 265.377317 208.922241 
L 265.536539 236.442418 
L 265.695762 180.172269 
L 266.014207 234.719046 
L 266.173429 196.133418 
L 266.651096 234.922356 
L 266.810319 179.46746 
L 266.969541 225.801885 
L 267.128764 194.9259 
L 267.287986 198.329119 
L 267.447209 198.185556 
L 267.606431 169.345615 
L 267.765653 214.281877 
L 267.924876 197.01485 
L 268.084098 198.839084 
L 268.243321 226.622342 
L 268.402543 209.404442 
L 268.561766 211.022621 
L 268.720988 202.302606 
L 268.88021 207.646052 
L 269.039433 222.849124 
L 269.198655 226.22968 
L 269.357878 200.828452 
L 269.5171 205.117894 
L 269.676323 181.120941 
L 270.15399 213.045583 
L 270.313212 168.285614 
L 270.472435 192.655018 
L 270.631657 196.955328 
L 270.79088 215.803198 
L 270.950102 194.154774 
L 271.109325 204.476739 
L 271.268547 189.360847 
L 271.427769 222.017708 
L 271.586992 181.17898 
L 271.746214 193.21806 
L 271.905437 215.371301 
L 272.064659 192.08374 
L 272.223882 192.097393 
L 272.383104 221.879922 
L 272.701549 200.792043 
L 272.860771 188.045388 
L 273.019994 195.281491 
L 273.179216 180.333852 
L 273.497661 209.634015 
L 273.656883 198.796619 
L 273.816106 168.563503 
L 273.975328 200.141406 
L 274.134551 188.840466 
L 274.293773 230.879982 
L 274.452996 239.133581 
L 274.612218 202.091983 
L 274.771441 209.200617 
L 274.930663 229.266796 
L 275.089885 228.926228 
L 275.249108 199.864481 
L 275.40833 201.401164 
L 275.567553 200.150156 
L 275.726775 207.222603 
L 275.885998 206.604046 
L 276.04522 208.674075 
L 276.204442 206.671631 
L 276.363665 212.180363 
L 276.522887 191.62939 
L 276.68211 237.482944 
L 276.841332 207.532031 
L 277.000555 207.844854 
L 277.159777 212.000442 
L 277.319 222.795166 
L 277.478222 214.230164 
L 277.637444 171.423934 
L 277.796667 224.46036 
L 277.955889 186.224306 
L 278.115112 230.091546 
L 278.274334 221.570696 
L 278.433557 205.352904 
L 278.592779 231.388471 
L 278.752001 178.559022 
L 278.911224 182.516635 
L 279.070446 191.391178 
L 279.388891 233.072179 
L 279.707336 188.635478 
L 279.866558 191.774785 
L 280.025781 197.988883 
L 280.185003 189.3127 
L 280.344226 197.531499 
L 280.503448 212.519002 
L 280.662671 175.255722 
L 280.821893 209.144819 
L 281.29956 186.893446 
L 281.458783 213.012281 
L 281.618005 175.297473 
L 281.777228 198.661296 
L 281.93645 190.163503 
L 282.095673 203.658611 
L 282.254895 207.332805 
L 282.414117 223.096678 
L 282.57334 208.262542 
L 282.732562 179.840292 
L 283.051007 231.915451 
L 283.21023 223.074754 
L 283.369452 202.370722 
L 283.528674 242.694209 
L 283.687897 195.822062 
L 283.847119 190.065295 
L 284.006342 210.472149 
L 284.165564 212.011978 
L 284.324787 220.005283 
L 284.484009 184.267472 
L 284.643232 207.257888 
L 284.802454 178.321911 
L 285.120899 214.056189 
L 285.439344 222.301026 
L 285.598566 195.104667 
L 286.076233 274.636782 
L 286.235456 209.962099 
L 286.394678 220.107614 
L 286.553901 182.240145 
L 286.713123 192.17788 
L 286.872346 189.773516 
L 287.031568 229.88941 
L 287.350013 197.166918 
L 287.509235 218.015027 
L 287.82768 188.413304 
L 287.986903 192.50181 
L 288.146125 215.461444 
L 288.305348 199.988434 
L 288.46457 210.664798 
L 288.783015 178.58207 
L 289.10146 233.006343 
L 289.260682 247.648305 
L 289.419905 200.751379 
L 289.579127 218.963843 
L 289.738349 199.076435 
L 289.897572 230.339933 
L 290.216017 201.74647 
L 290.375239 207.066813 
L 290.534462 176.690267 
L 290.693684 229.596244 
L 290.852907 219.590953 
L 291.012129 238.05193 
L 291.171351 193.981062 
L 291.330574 222.123369 
L 291.489796 183.541404 
L 291.808241 229.554046 
L 291.967464 193.822432 
L 292.126686 211.262506 
L 292.285908 175.176773 
L 292.445131 191.934374 
L 292.604353 189.298195 
L 292.763576 237.360656 
L 293.082021 201.563174 
L 293.241243 213.879254 
L 293.400465 259.201361 
L 293.71891 193.528915 
L 294.037355 231.226375 
L 294.196578 204.618569 
L 294.3558 225.102376 
L 294.515023 205.091852 
L 294.674245 213.58678 
L 294.833467 203.723925 
L 294.99269 208.073038 
L 295.151912 237.742871 
L 295.311135 213.661564 
L 295.470357 168.594448 
L 295.62958 197.372301 
L 295.788802 168.129544 
L 295.948024 215.370907 
L 296.107247 191.889882 
L 296.266469 194.688806 
L 296.425692 207.535646 
L 296.584914 194.670201 
L 296.744137 237.51569 
L 297.062581 211.329181 
L 297.221804 211.192801 
L 297.381026 213.763441 
L 297.540249 219.995074 
L 297.699471 231.352886 
L 297.858694 216.52631 
L 298.017916 230.171647 
L 298.177139 203.329585 
L 298.336361 231.915527 
L 298.495583 219.866419 
L 298.814028 213.164338 
L 298.973251 206.186801 
L 299.132473 217.961618 
L 299.291696 192.049915 
L 299.450918 233.030855 
L 299.61014 202.291725 
L 299.769363 196.270069 
L 299.928585 222.391017 
L 300.087808 228.870964 
L 300.406253 192.555559 
L 300.565475 229.107084 
L 300.724697 204.247206 
L 300.88392 201.531877 
L 301.043142 172.287357 
L 301.202365 232.211649 
L 301.52081 192.789014 
L 301.680032 193.045989 
L 301.839255 228.402831 
L 301.998477 219.302001 
L 302.157699 245.019426 
L 302.316922 210.677298 
L 302.476144 218.832775 
L 302.635367 217.057781 
L 302.794589 183.280893 
L 302.953812 201.540457 
L 303.113034 238.669969 
L 303.272256 223.808479 
L 303.431479 239.237234 
L 303.590701 204.420286 
L 303.749924 195.30931 
L 303.909146 219.853274 
L 304.068369 221.171779 
L 304.227591 203.547688 
L 304.386814 225.561499 
L 304.546036 216.19191 
L 304.705258 220.580427 
L 304.864481 204.151417 
L 305.023703 214.389759 
L 305.182926 189.67176 
L 305.342148 197.157031 
L 305.501371 213.314442 
L 305.660593 198.742581 
L 305.979038 220.321885 
L 306.13826 190.193452 
L 306.297483 210.139652 
L 306.456705 247.004638 
L 306.615928 253.334123 
L 306.934372 197.518518 
L 307.093595 193.965874 
L 307.252817 247.056169 
L 307.41204 201.20234 
L 307.571262 195.483764 
L 307.730485 215.694441 
L 307.889707 216.413309 
L 308.208152 242.208266 
L 308.367374 193.84912 
L 308.526597 206.30354 
L 308.685819 236.321521 
L 308.845042 236.92972 
L 309.004264 226.980253 
L 309.163487 205.670136 
L 309.322709 229.954453 
L 309.481931 228.810841 
L 309.641154 224.339248 
L 309.959599 209.194394 
L 310.118821 217.784621 
L 310.437266 241.188325 
L 310.596488 195.729577 
L 310.755711 230.691756 
L 310.914933 201.97826 
L 311.233378 236.120857 
L 311.392601 227.854039 
L 311.551823 207.678524 
L 311.711046 261.96023 
L 312.02949 207.861108 
L 312.347935 238.825487 
L 312.66638 213.395928 
L 312.825603 232.67554 
L 312.984825 199.128141 
L 313.144047 212.49483 
L 313.621715 224.844287 
L 313.780937 225.556031 
L 314.258604 180.224943 
L 314.417827 201.155414 
L 314.577049 236.941625 
L 314.736272 200.490443 
L 315.054717 226.229831 
L 315.213939 191.265117 
L 315.373162 206.301448 
L 315.532384 199.364785 
L 315.691606 235.609237 
L 315.850829 222.887947 
L 316.010051 227.121652 
L 316.169274 221.344638 
L 316.487719 176.869218 
L 316.646941 203.018745 
L 316.806163 253.61582 
L 316.965386 182.577101 
L 317.283831 247.424739 
L 317.443053 231.876405 
L 317.602276 230.260517 
L 317.761498 254.699834 
L 317.92072 214.647974 
L 318.079943 209.476884 
L 318.239165 253.748938 
L 318.398388 209.428755 
L 318.55761 219.032156 
L 318.716833 219.603854 
L 318.876055 171.216773 
L 319.035278 239.319994 
L 319.1945 206.116912 
L 319.353722 207.389912 
L 319.512945 207.746311 
L 319.672167 206.47308 
L 319.83139 230.583899 
L 320.309057 210.710309 
L 320.468279 238.278101 
L 320.786724 201.942619 
L 320.945947 218.694603 
L 321.105169 222.060622 
L 321.264392 206.043515 
L 321.423614 213.951171 
L 321.582837 189.591215 
L 321.742059 229.834747 
L 321.901281 211.022054 
L 322.060504 207.870609 
L 322.219726 212.348033 
L 322.378949 193.820625 
L 322.697394 220.705085 
L 322.856616 221.675228 
L 323.015838 239.393562 
L 323.175061 236.934931 
L 323.334283 209.040044 
L 323.493506 229.69529 
L 323.652728 228.129014 
L 323.811951 197.645322 
L 324.130395 233.577553 
L 324.289618 215.172755 
L 324.44884 227.506976 
L 324.608063 207.818853 
L 324.767285 217.928565 
L 324.926508 252.001733 
L 325.08573 228.077441 
L 325.244953 238.385865 
L 325.404175 229.70505 
L 325.563397 260.04336 
L 325.881842 216.097293 
L 326.041065 216.470645 
L 326.200287 206.027153 
L 326.35951 231.852486 
L 326.518732 208.16726 
L 326.677954 208.000565 
L 326.837177 205.79249 
L 326.996399 221.298711 
L 327.155622 205.829094 
L 327.314844 243.433174 
L 327.792511 216.112683 
L 327.951734 183.83121 
L 328.270179 197.332462 
L 328.429401 218.956508 
L 328.588624 222.70804 
L 328.907069 237.778922 
L 329.066291 190.774804 
L 329.543958 271.180014 
L 329.703181 217.634342 
L 329.862403 232.131236 
L 330.180848 194.528643 
L 330.34007 224.295312 
L 330.499293 205.021145 
L 330.658515 210.715525 
L 330.817738 170.299927 
L 330.97696 239.362774 
L 331.136183 220.283167 
L 331.295405 227.872469 
L 331.454627 208.842512 
L 331.61385 204.614822 
L 331.773072 204.31243 
L 332.091517 172.805772 
L 332.25074 232.032769 
L 332.409962 196.355004 
L 332.569185 201.264216 
L 332.728407 192.769555 
L 332.887629 236.859783 
L 333.206074 204.26717 
L 333.365297 207.61111 
L 333.524519 226.29709 
L 333.683742 216.154843 
L 333.842964 197.32987 
L 334.161409 245.991314 
L 334.479854 202.226025 
L 334.639076 233.415536 
L 334.798299 211.529365 
L 334.957521 211.879135 
L 335.116744 238.558647 
L 335.275966 222.043469 
L 335.435188 226.956279 
L 335.594411 218.82146 
L 335.753633 243.833475 
L 335.912856 237.919922 
L 336.072078 206.982375 
L 336.231301 244.314411 
L 336.390523 196.282644 
L 336.549745 243.23582 
L 336.708968 206.44136 
L 336.86819 204.497064 
L 337.186635 232.812537 
L 337.345858 211.705666 
L 337.50508 209.609825 
L 337.664302 196.894303 
L 337.823525 238.322977 
L 337.982747 212.078503 
L 338.14197 225.475835 
L 338.301192 203.95614 
L 338.460415 221.98049 
L 338.619637 224.102441 
L 338.77886 242.432393 
L 338.938082 242.232496 
L 339.097304 217.356877 
L 339.256527 230.421937 
L 339.415749 205.914584 
L 339.734194 226.43022 
L 339.893417 221.798823 
L 340.052639 251.89427 
L 340.211861 217.804475 
L 340.371084 226.423094 
L 340.530306 261.171993 
L 340.689529 214.812434 
L 341.007974 234.428372 
L 341.167196 215.737626 
L 341.326418 239.762666 
L 341.485641 223.296958 
L 341.644863 232.391134 
L 341.804086 234.608192 
L 341.963308 218.034913 
L 342.122531 264.875732 
L 342.281753 205.277552 
L 342.440976 206.43295 
L 342.600198 233.697204 
L 342.75942 186.640103 
L 342.918643 240.647307 
L 343.237088 201.527649 
L 343.39631 232.261982 
L 343.555533 213.984396 
L 343.714755 216.687042 
L 343.873977 184.681386 
L 344.0332 217.263646 
L 344.192422 199.522682 
L 344.351645 228.629421 
L 344.510867 185.580589 
L 344.829312 220.078276 
L 344.988534 242.939632 
L 345.147757 209.785204 
L 345.306979 205.24954 
L 345.466202 220.559135 
L 345.625424 196.226613 
L 345.784647 196.778743 
L 345.943869 215.97506 
L 346.103092 188.485371 
L 346.262314 205.795745 
L 346.421536 198.165161 
L 346.580759 255.491112 
L 346.739981 260.006283 
L 346.899204 241.320381 
L 347.217649 267.773375 
L 347.376871 230.675607 
L 347.536093 226.756067 
L 347.854538 252.88468 
L 348.013761 216.771976 
L 348.172983 249.393704 
L 348.332206 203.750058 
L 348.65065 268.734766 
L 348.809873 211.222592 
L 348.969095 196.44432 
L 349.128318 222.758725 
L 349.28754 198.357943 
L 349.446763 224.595397 
L 349.605985 213.87646 
L 349.765208 235.230926 
L 349.92443 217.567056 
L 350.083652 217.801443 
L 350.242875 200.172963 
L 350.56132 239.021003 
L 350.720542 208.153306 
L 350.879765 235.288479 
L 351.038987 188.879045 
L 351.198209 202.446824 
L 351.357432 233.763685 
L 351.675877 205.748288 
L 351.835099 254.402999 
L 351.994322 225.785385 
L 352.153544 225.754976 
L 352.312767 225.056563 
L 352.471989 204.533282 
L 352.790434 226.240296 
L 352.949656 252.529547 
L 353.108879 210.423186 
L 353.268101 245.333183 
L 353.427324 227.651949 
L 353.586546 233.695899 
L 353.745768 202.622106 
L 353.904991 223.060737 
L 354.064213 218.698885 
L 354.382658 245.955037 
L 354.541881 210.76023 
L 354.701103 220.017289 
L 354.860325 202.339804 
L 355.019548 203.430201 
L 355.17877 199.344857 
L 355.337993 213.35734 
L 355.497215 242.41979 
L 355.656438 208.582954 
L 355.81566 198.930176 
L 355.974883 203.555216 
L 356.134105 219.928747 
L 356.293327 219.512352 
L 356.45255 232.088039 
L 356.611772 217.288821 
L 356.770995 254.108744 
L 357.08944 204.215414 
L 357.248662 213.240626 
L 357.726329 274.606712 
L 357.885552 208.294736 
L 358.203997 255.039568 
L 358.363219 210.897869 
L 358.522441 212.354423 
L 358.681664 243.81946 
L 358.840886 202.928011 
L 359.000109 252.165175 
L 359.159331 254.33228 
L 359.318554 265.09364 
L 359.477776 204.530715 
L 359.636999 245.195774 
L 359.796221 220.399845 
L 359.955443 217.80497 
L 360.114666 212.850983 
L 360.273888 236.655022 
L 360.433111 225.52844 
L 360.592333 252.79948 
L 360.751556 238.879613 
L 360.910778 205.325049 
L 361.388445 254.791419 
L 361.547668 209.824267 
L 361.70689 225.766027 
L 361.866113 206.869633 
L 362.025335 224.771995 
L 362.184557 223.381229 
L 362.503002 191.014222 
L 362.662225 253.577237 
L 362.821447 243.432612 
L 362.98067 200.55354 
L 363.139892 207.142585 
L 363.299115 225.49914 
L 363.458337 195.898875 
L 363.776782 237.295145 
L 363.936004 204.097418 
L 364.095227 248.584562 
L 364.254449 208.432473 
L 364.572894 267.56295 
L 364.732116 233.330435 
L 364.891339 252.416483 
L 365.050561 210.299335 
L 365.209784 234.879097 
L 365.369006 228.584021 
L 365.528229 227.694704 
L 365.687451 220.4933 
L 365.846674 269.472573 
L 366.005896 224.221893 
L 366.165118 231.533116 
L 366.324341 183.705555 
L 366.483563 215.962918 
L 366.642786 187.980248 
L 366.802008 234.735756 
L 366.961231 234.113553 
L 367.120453 214.050552 
L 367.279675 217.434835 
L 367.438898 215.577748 
L 367.59812 191.729053 
L 367.757343 243.357327 
L 368.075788 212.71983 
L 368.23501 200.131177 
L 368.553455 213.050269 
L 368.712677 182.695823 
L 369.190345 238.743261 
L 369.349567 205.929099 
L 369.50879 221.659594 
L 369.827234 196.487993 
L 369.986457 223.656221 
L 370.145679 167.904402 
L 370.304902 265.630999 
L 370.464124 210.335522 
L 370.623347 239.700652 
L 370.782569 244.523767 
L 370.941791 221.15319 
L 371.101014 218.833638 
L 371.419459 231.655702 
L 371.578681 197.162532 
L 371.737904 219.645883 
L 371.897126 201.659067 
L 372.056348 235.714601 
L 372.215571 222.99854 
L 372.374793 238.888309 
L 372.693238 200.916415 
L 372.852461 223.703626 
L 373.011683 220.522944 
L 373.170906 229.065637 
L 373.330128 223.156719 
L 373.48935 201.443487 
L 373.648573 236.025409 
L 373.807795 237.239524 
L 373.967018 210.870959 
L 374.12624 257.306626 
L 374.444685 202.258735 
L 374.603907 208.001042 
L 374.76313 209.265369 
L 374.922352 226.789747 
L 375.081575 222.959832 
L 375.240797 196.352372 
L 375.40002 249.338052 
L 375.559242 205.422517 
L 375.877687 242.024061 
L 376.196132 229.461165 
L 376.355354 204.608264 
L 376.514577 237.396533 
L 376.673799 203.65378 
L 376.992244 221.07205 
L 377.310689 192.85043 
L 377.629134 208.055219 
L 377.788356 175.397894 
L 377.947579 232.958935 
L 378.106801 239.48947 
L 378.266023 200.762341 
L 378.425246 216.419316 
L 378.584468 199.889333 
L 378.902913 210.053828 
L 379.062136 189.79012 
L 379.221358 264.941313 
L 379.38058 247.232821 
L 379.539803 208.495762 
L 379.699025 254.34432 
L 379.858248 205.041169 
L 380.01747 238.698585 
L 380.176693 239.106606 
L 380.335915 207.251684 
L 380.495138 209.592155 
L 380.65436 259.475005 
L 380.813582 230.165503 
L 380.972805 253.85854 
L 381.29125 212.211572 
L 381.609695 246.215956 
L 381.768917 208.667788 
L 381.928139 226.638904 
L 382.087362 230.465791 
L 382.246584 220.618142 
L 382.405807 232.974819 
L 382.565029 261.233443 
L 382.724252 263.143472 
L 382.883474 188.718052 
L 383.042697 258.64177 
L 383.201919 258.196611 
L 383.361141 213.614839 
L 383.520364 250.300767 
L 383.679586 206.156745 
L 383.838809 205.489336 
L 383.998031 209.563032 
L 384.157254 208.121725 
L 384.316476 198.616836 
L 384.475698 229.274851 
L 384.634921 233.088743 
L 384.794143 212.614695 
L 384.953366 261.964365 
L 385.112588 203.095356 
L 385.271811 250.118816 
L 385.431033 198.477782 
L 385.590255 188.018765 
L 385.749478 242.042782 
L 385.9087 238.202401 
L 386.067923 204.761936 
L 386.386368 255.050574 
L 386.54559 226.319192 
L 386.704813 235.34883 
L 386.864035 220.777611 
L 387.023257 235.760905 
L 387.18248 214.444271 
L 387.341702 215.42292 
L 387.500925 230.166275 
L 387.660147 231.671086 
L 387.81937 237.075932 
L 387.978592 235.831202 
L 388.137814 241.780778 
L 388.297037 275.25578 
L 388.615482 188.563481 
L 388.774704 260.863388 
L 388.933927 226.713544 
L 389.093149 220.973072 
L 389.252371 232.930848 
L 389.411594 213.993158 
L 389.570816 243.046691 
L 389.889261 201.655795 
L 390.048484 226.992825 
L 390.207706 208.467922 
L 390.366929 236.55743 
L 390.526151 212.555953 
L 390.685373 247.832641 
L 390.844596 200.178426 
L 391.003818 219.861121 
L 391.640708 237.73217 
L 391.79993 260.258624 
L 391.959153 203.933357 
L 392.118375 231.618887 
L 392.277598 219.773119 
L 392.43682 197.699215 
L 392.596043 249.587197 
L 392.755265 207.748551 
L 392.914487 246.203243 
L 393.07371 223.222805 
L 393.232932 246.667489 
L 393.392155 219.205509 
L 393.551377 250.6505 
L 393.7106 196.88517 
L 394.029045 234.522424 
L 394.188267 236.517989 
L 394.347489 218.174558 
L 394.506712 215.866972 
L 394.665934 225.610061 
L 394.825157 207.324026 
L 394.984379 212.829685 
L 395.143602 245.771746 
L 395.302824 227.741895 
L 395.462046 224.279472 
L 395.621269 257.179474 
L 395.780491 247.113206 
L 395.939714 256.162896 
L 396.098936 245.543059 
L 396.258159 224.72084 
L 396.417381 251.912487 
L 396.576604 198.77066 
L 396.735826 220.17649 
L 396.895048 198.535443 
L 397.054271 256.856272 
L 397.213493 225.695877 
L 397.372716 228.390622 
L 397.691161 202.324106 
L 397.850383 203.736284 
L 398.009605 207.636219 
L 398.168828 242.863674 
L 398.487273 219.847016 
L 398.487273 219.847016 
" style="fill:none;stroke:#ff7f0e;stroke-linecap:square;stroke-width:1.5;"/>
   </g>
   <g id="patch_3">
    <path d="M 57.6 307.584 
L 57.6 41.472 
" style="fill:none;stroke:#000000;stroke-linecap:square;stroke-linejoin:miter;stroke-width:0.8;"/>
   </g>
   <g id="patch_4">
    <path d="M 414.72 307.584 
L 414.72 41.472 
" style="fill:none;stroke:#000000;stroke-linecap:square;stroke-linejoin:miter;stroke-width:0.8;"/>
   </g>
   <g id="patch_5">
    <path d="M 57.6 307.584 
L 414.72 307.584 
" style="fill:none;stroke:#000000;stroke-linecap:square;stroke-linejoin:miter;stroke-width:0.8;"/>
   </g>
   <g id="patch_6">
    <path d="M 57.6 41.472 
L 414.72 41.472 
" style="fill:none;stroke:#000000;stroke-linecap:square;stroke-linejoin:miter;stroke-width:0.8;"/>
   </g>
   <g id="legend_1">
    <g id="patch_7">
     <path d="M 303.845 78.82825 
L 407.72 78.82825 
Q 409.72 78.82825 409.72 76.82825 
L 409.72 48.472 
Q 409.72 46.472 407.72 46.472 
L 303.845 46.472 
Q 301.845 46.472 301.845 48.472 
L 301.845 76.82825 
Q 301.845 78.82825 303.845 78.82825 
z
" style="fill:#ffffff;opacity:0.8;stroke:#cccccc;stroke-linejoin:miter;"/>
    </g>
    <g id="line2d_19">
     <path d="M 305.845 54.570437 
L 325.845 54.570437 
" style="fill:none;stroke:#1f77b4;stroke-linecap:square;stroke-width:1.5;"/>
    </g>
    <g id="line2d_20"/>
    <g id="text_18">
     <!-- Train loss -->
     <g transform="translate(333.845 58.070437)scale(0.1 -0.1)">
      <defs>
       <path d="M -19 4666 
L 3928 4666 
L 3928 4134 
L 2272 4134 
L 2272 0 
L 1638 0 
L 1638 4134 
L -19 4134 
L -19 4666 
z
" id="DejaVuSans-54" transform="scale(0.015625)"/>
       <path d="M 2631 2963 
Q 2534 3019 2420 3045 
Q 2306 3072 2169 3072 
Q 1681 3072 1420 2755 
Q 1159 2438 1159 1844 
L 1159 0 
L 581 0 
L 581 3500 
L 1159 3500 
L 1159 2956 
Q 1341 3275 1631 3429 
Q 1922 3584 2338 3584 
Q 2397 3584 2469 3576 
Q 2541 3569 2628 3553 
L 2631 2963 
z
" id="DejaVuSans-72" transform="scale(0.015625)"/>
       <path d="M 2194 1759 
Q 1497 1759 1228 1600 
Q 959 1441 959 1056 
Q 959 750 1161 570 
Q 1363 391 1709 391 
Q 2188 391 2477 730 
Q 2766 1069 2766 1631 
L 2766 1759 
L 2194 1759 
z
M 3341 1997 
L 3341 0 
L 2766 0 
L 2766 531 
Q 2569 213 2275 61 
Q 1981 -91 1556 -91 
Q 1019 -91 701 211 
Q 384 513 384 1019 
Q 384 1609 779 1909 
Q 1175 2209 1959 2209 
L 2766 2209 
L 2766 2266 
Q 2766 2663 2505 2880 
Q 2244 3097 1772 3097 
Q 1472 3097 1187 3025 
Q 903 2953 641 2809 
L 641 3341 
Q 956 3463 1253 3523 
Q 1550 3584 1831 3584 
Q 2591 3584 2966 3190 
Q 3341 2797 3341 1997 
z
" id="DejaVuSans-61" transform="scale(0.015625)"/>
       <path d="M 603 3500 
L 1178 3500 
L 1178 0 
L 603 0 
L 603 3500 
z
M 603 4863 
L 1178 4863 
L 1178 4134 
L 603 4134 
L 603 4863 
z
" id="DejaVuSans-69" transform="scale(0.015625)"/>
       <path d="M 3513 2113 
L 3513 0 
L 2938 0 
L 2938 2094 
Q 2938 2591 2744 2837 
Q 2550 3084 2163 3084 
Q 1697 3084 1428 2787 
Q 1159 2491 1159 1978 
L 1159 0 
L 581 0 
L 581 3500 
L 1159 3500 
L 1159 2956 
Q 1366 3272 1645 3428 
Q 1925 3584 2291 3584 
Q 2894 3584 3203 3211 
Q 3513 2838 3513 2113 
z
" id="DejaVuSans-6e" transform="scale(0.015625)"/>
       <path id="DejaVuSans-20" transform="scale(0.015625)"/>
       <path d="M 603 4863 
L 1178 4863 
L 1178 0 
L 603 0 
L 603 4863 
z
" id="DejaVuSans-6c" transform="scale(0.015625)"/>
       <path d="M 2834 3397 
L 2834 2853 
Q 2591 2978 2328 3040 
Q 2066 3103 1784 3103 
Q 1356 3103 1142 2972 
Q 928 2841 928 2578 
Q 928 2378 1081 2264 
Q 1234 2150 1697 2047 
L 1894 2003 
Q 2506 1872 2764 1633 
Q 3022 1394 3022 966 
Q 3022 478 2636 193 
Q 2250 -91 1575 -91 
Q 1294 -91 989 -36 
Q 684 19 347 128 
L 347 722 
Q 666 556 975 473 
Q 1284 391 1588 391 
Q 1994 391 2212 530 
Q 2431 669 2431 922 
Q 2431 1156 2273 1281 
Q 2116 1406 1581 1522 
L 1381 1569 
Q 847 1681 609 1914 
Q 372 2147 372 2553 
Q 372 3047 722 3315 
Q 1072 3584 1716 3584 
Q 2034 3584 2315 3537 
Q 2597 3491 2834 3397 
z
" id="DejaVuSans-73" transform="scale(0.015625)"/>
      </defs>
      <use xlink:href="#DejaVuSans-54"/>
      <use x="46.333984" xlink:href="#DejaVuSans-72"/>
      <use x="87.447266" xlink:href="#DejaVuSans-61"/>
      <use x="148.726562" xlink:href="#DejaVuSans-69"/>
      <use x="176.509766" xlink:href="#DejaVuSans-6e"/>
      <use x="239.888672" xlink:href="#DejaVuSans-20"/>
      <use x="271.675781" xlink:href="#DejaVuSans-6c"/>
      <use x="299.458984" xlink:href="#DejaVuSans-6f"/>
      <use x="360.640625" xlink:href="#DejaVuSans-73"/>
      <use x="412.740234" xlink:href="#DejaVuSans-73"/>
     </g>
    </g>
    <g id="line2d_21">
     <path d="M 305.845 69.248562 
L 325.845 69.248562 
" style="fill:none;stroke:#ff7f0e;stroke-linecap:square;stroke-width:1.5;"/>
    </g>
    <g id="line2d_22"/>
    <g id="text_19">
     <!-- Validation loss -->
     <g transform="translate(333.845 72.748562)scale(0.1 -0.1)">
      <defs>
       <path d="M 1831 0 
L 50 4666 
L 709 4666 
L 2188 738 
L 3669 4666 
L 4325 4666 
L 2547 0 
L 1831 0 
z
" id="DejaVuSans-56" transform="scale(0.015625)"/>
       <path d="M 2906 2969 
L 2906 4863 
L 3481 4863 
L 3481 0 
L 2906 0 
L 2906 525 
Q 2725 213 2448 61 
Q 2172 -91 1784 -91 
Q 1150 -91 751 415 
Q 353 922 353 1747 
Q 353 2572 751 3078 
Q 1150 3584 1784 3584 
Q 2172 3584 2448 3432 
Q 2725 3281 2906 2969 
z
M 947 1747 
Q 947 1113 1208 752 
Q 1469 391 1925 391 
Q 2381 391 2643 752 
Q 2906 1113 2906 1747 
Q 2906 2381 2643 2742 
Q 2381 3103 1925 3103 
Q 1469 3103 1208 2742 
Q 947 2381 947 1747 
z
" id="DejaVuSans-64" transform="scale(0.015625)"/>
       <path d="M 1172 4494 
L 1172 3500 
L 2356 3500 
L 2356 3053 
L 1172 3053 
L 1172 1153 
Q 1172 725 1289 603 
Q 1406 481 1766 481 
L 2356 481 
L 2356 0 
L 1766 0 
Q 1100 0 847 248 
Q 594 497 594 1153 
L 594 3053 
L 172 3053 
L 172 3500 
L 594 3500 
L 594 4494 
L 1172 4494 
z
" id="DejaVuSans-74" transform="scale(0.015625)"/>
      </defs>
      <use xlink:href="#DejaVuSans-56"/>
      <use x="60.658203" xlink:href="#DejaVuSans-61"/>
      <use x="121.9375" xlink:href="#DejaVuSans-6c"/>
      <use x="149.720703" xlink:href="#DejaVuSans-69"/>
      <use x="177.503906" xlink:href="#DejaVuSans-64"/>
      <use x="240.980469" xlink:href="#DejaVuSans-61"/>
      <use x="302.259766" xlink:href="#DejaVuSans-74"/>
      <use x="341.46875" xlink:href="#DejaVuSans-69"/>
      <use x="369.251953" xlink:href="#DejaVuSans-6f"/>
      <use x="430.433594" xlink:href="#DejaVuSans-6e"/>
      <use x="493.8125" xlink:href="#DejaVuSans-20"/>
      <use x="525.599609" xlink:href="#DejaVuSans-6c"/>
      <use x="553.382812" xlink:href="#DejaVuSans-6f"/>
      <use x="614.564453" xlink:href="#DejaVuSans-73"/>
      <use x="666.664062" xlink:href="#DejaVuSans-73"/>
     </g>
    </g>
   </g>
  </g>
 </g>
 <defs>
  <clipPath id="pde240b1826">
   <rect height="266.112" width="357.12" x="57.6" y="41.472"/>
  </clipPath>
 </defs>
</svg>
