<?xml version="1.0" encoding="utf-8" standalone="no"?>
<!DOCTYPE svg PUBLIC "-//W3C//DTD SVG 1.1//EN"
  "http://www.w3.org/Graphics/SVG/1.1/DTD/svg11.dtd">
<svg height="345.6pt" version="1.1" viewBox="0 0 460.8 345.6" width="460.8pt" xmlns="http://www.w3.org/2000/svg" xmlns:xlink="http://www.w3.org/1999/xlink">
 <metadata>
  <rdf:RDF xmlns:cc="http://creativecommons.org/ns#" xmlns:dc="http://purl.org/dc/elements/1.1/" xmlns:rdf="http://www.w3.org/1999/02/22-rdf-syntax-ns#">
   <cc:Work>
    <dc:type rdf:resource="http://purl.org/dc/dcmitype/StillImage"/>
    <dc:date>2021-05-14T00:57:43.346283</dc:date>
    <dc:format>image/svg+xml</dc:format>
    <dc:creator>
     <cc:Agent>
      <dc:title>Matplotlib v3.4.1, https://matplotlib.org/</dc:title>
     </cc:Agent>
    </dc:creator>
   </cc:Work>
  </rdf:RDF>
 </metadata>
 <defs>
  <style type="text/css">*{stroke-linecap:butt;stroke-linejoin:round;}</style>
 </defs>
 <g id="figure_1">
  <g id="patch_1">
   <path d="M 0 345.6 
L 460.8 345.6 
L 460.8 0 
L 0 0 
z
" style="fill:#ffffff;"/>
  </g>
  <g id="axes_1">
   <g id="patch_2">
    <path d="M 57.6 307.584 
L 414.72 307.584 
L 414.72 41.472 
L 57.6 41.472 
z
" style="fill:#ffffff;"/>
   </g>
   <g id="matplotlib.axis_1">
    <g id="xtick_1">
     <g id="line2d_1">
      <defs>
       <path d="M 0 0 
L 0 3.5 
" id="m312819b081" style="stroke:#000000;stroke-width:0.8;"/>
      </defs>
      <g>
       <use style="stroke:#000000;stroke-width:0.8;" x="72.201297" xlink:href="#m312819b081" y="307.584"/>
      </g>
     </g>
     <g id="text_1">
      <!-- 0 -->
      <g transform="translate(69.020047 322.182437)scale(0.1 -0.1)">
       <defs>
        <path d="M 2034 4250 
Q 1547 4250 1301 3770 
Q 1056 3291 1056 2328 
Q 1056 1369 1301 889 
Q 1547 409 2034 409 
Q 2525 409 2770 889 
Q 3016 1369 3016 2328 
Q 3016 3291 2770 3770 
Q 2525 4250 2034 4250 
z
M 2034 4750 
Q 2819 4750 3233 4129 
Q 3647 3509 3647 2328 
Q 3647 1150 3233 529 
Q 2819 -91 2034 -91 
Q 1250 -91 836 529 
Q 422 1150 422 2328 
Q 422 3509 836 4129 
Q 1250 4750 2034 4750 
z
" id="DejaVuSans-30" transform="scale(0.015625)"/>
       </defs>
       <use xlink:href="#DejaVuSans-30"/>
      </g>
     </g>
    </g>
    <g id="xtick_2">
     <g id="line2d_2">
      <g>
       <use style="stroke:#000000;stroke-width:0.8;" x="112.987044" xlink:href="#m312819b081" y="307.584"/>
      </g>
     </g>
     <g id="text_2">
      <!-- 25 -->
      <g transform="translate(106.624544 322.182437)scale(0.1 -0.1)">
       <defs>
        <path d="M 1228 531 
L 3431 531 
L 3431 0 
L 469 0 
L 469 531 
Q 828 903 1448 1529 
Q 2069 2156 2228 2338 
Q 2531 2678 2651 2914 
Q 2772 3150 2772 3378 
Q 2772 3750 2511 3984 
Q 2250 4219 1831 4219 
Q 1534 4219 1204 4116 
Q 875 4013 500 3803 
L 500 4441 
Q 881 4594 1212 4672 
Q 1544 4750 1819 4750 
Q 2544 4750 2975 4387 
Q 3406 4025 3406 3419 
Q 3406 3131 3298 2873 
Q 3191 2616 2906 2266 
Q 2828 2175 2409 1742 
Q 1991 1309 1228 531 
z
" id="DejaVuSans-32" transform="scale(0.015625)"/>
        <path d="M 691 4666 
L 3169 4666 
L 3169 4134 
L 1269 4134 
L 1269 2991 
Q 1406 3038 1543 3061 
Q 1681 3084 1819 3084 
Q 2600 3084 3056 2656 
Q 3513 2228 3513 1497 
Q 3513 744 3044 326 
Q 2575 -91 1722 -91 
Q 1428 -91 1123 -41 
Q 819 9 494 109 
L 494 744 
Q 775 591 1075 516 
Q 1375 441 1709 441 
Q 2250 441 2565 725 
Q 2881 1009 2881 1497 
Q 2881 1984 2565 2268 
Q 2250 2553 1709 2553 
Q 1456 2553 1204 2497 
Q 953 2441 691 2322 
L 691 4666 
z
" id="DejaVuSans-35" transform="scale(0.015625)"/>
       </defs>
       <use xlink:href="#DejaVuSans-32"/>
       <use x="63.623047" xlink:href="#DejaVuSans-35"/>
      </g>
     </g>
    </g>
    <g id="xtick_3">
     <g id="line2d_3">
      <g>
       <use style="stroke:#000000;stroke-width:0.8;" x="153.772791" xlink:href="#m312819b081" y="307.584"/>
      </g>
     </g>
     <g id="text_3">
      <!-- 50 -->
      <g transform="translate(147.410291 322.182437)scale(0.1 -0.1)">
       <use xlink:href="#DejaVuSans-35"/>
       <use x="63.623047" xlink:href="#DejaVuSans-30"/>
      </g>
     </g>
    </g>
    <g id="xtick_4">
     <g id="line2d_4">
      <g>
       <use style="stroke:#000000;stroke-width:0.8;" x="194.558538" xlink:href="#m312819b081" y="307.584"/>
      </g>
     </g>
     <g id="text_4">
      <!-- 75 -->
      <g transform="translate(188.196038 322.182437)scale(0.1 -0.1)">
       <defs>
        <path d="M 525 4666 
L 3525 4666 
L 3525 4397 
L 1831 0 
L 1172 0 
L 2766 4134 
L 525 4134 
L 525 4666 
z
" id="DejaVuSans-37" transform="scale(0.015625)"/>
       </defs>
       <use xlink:href="#DejaVuSans-37"/>
       <use x="63.623047" xlink:href="#DejaVuSans-35"/>
      </g>
     </g>
    </g>
    <g id="xtick_5">
     <g id="line2d_5">
      <g>
       <use style="stroke:#000000;stroke-width:0.8;" x="235.344285" xlink:href="#m312819b081" y="307.584"/>
      </g>
     </g>
     <g id="text_5">
      <!-- 100 -->
      <g transform="translate(225.800535 322.182437)scale(0.1 -0.1)">
       <defs>
        <path d="M 794 531 
L 1825 531 
L 1825 4091 
L 703 3866 
L 703 4441 
L 1819 4666 
L 2450 4666 
L 2450 531 
L 3481 531 
L 3481 0 
L 794 0 
L 794 531 
z
" id="DejaVuSans-31" transform="scale(0.015625)"/>
       </defs>
       <use xlink:href="#DejaVuSans-31"/>
       <use x="63.623047" xlink:href="#DejaVuSans-30"/>
       <use x="127.246094" xlink:href="#DejaVuSans-30"/>
      </g>
     </g>
    </g>
    <g id="xtick_6">
     <g id="line2d_6">
      <g>
       <use style="stroke:#000000;stroke-width:0.8;" x="276.130032" xlink:href="#m312819b081" y="307.584"/>
      </g>
     </g>
     <g id="text_6">
      <!-- 125 -->
      <g transform="translate(266.586282 322.182437)scale(0.1 -0.1)">
       <use xlink:href="#DejaVuSans-31"/>
       <use x="63.623047" xlink:href="#DejaVuSans-32"/>
       <use x="127.246094" xlink:href="#DejaVuSans-35"/>
      </g>
     </g>
    </g>
    <g id="xtick_7">
     <g id="line2d_7">
      <g>
       <use style="stroke:#000000;stroke-width:0.8;" x="316.915779" xlink:href="#m312819b081" y="307.584"/>
      </g>
     </g>
     <g id="text_7">
      <!-- 150 -->
      <g transform="translate(307.372029 322.182437)scale(0.1 -0.1)">
       <use xlink:href="#DejaVuSans-31"/>
       <use x="63.623047" xlink:href="#DejaVuSans-35"/>
       <use x="127.246094" xlink:href="#DejaVuSans-30"/>
      </g>
     </g>
    </g>
    <g id="xtick_8">
     <g id="line2d_8">
      <g>
       <use style="stroke:#000000;stroke-width:0.8;" x="357.701526" xlink:href="#m312819b081" y="307.584"/>
      </g>
     </g>
     <g id="text_8">
      <!-- 175 -->
      <g transform="translate(348.157776 322.182437)scale(0.1 -0.1)">
       <use xlink:href="#DejaVuSans-31"/>
       <use x="63.623047" xlink:href="#DejaVuSans-37"/>
       <use x="127.246094" xlink:href="#DejaVuSans-35"/>
      </g>
     </g>
    </g>
    <g id="xtick_9">
     <g id="line2d_9">
      <g>
       <use style="stroke:#000000;stroke-width:0.8;" x="398.487273" xlink:href="#m312819b081" y="307.584"/>
      </g>
     </g>
     <g id="text_9">
      <!-- 200 -->
      <g transform="translate(388.943523 322.182437)scale(0.1 -0.1)">
       <use xlink:href="#DejaVuSans-32"/>
       <use x="63.623047" xlink:href="#DejaVuSans-30"/>
       <use x="127.246094" xlink:href="#DejaVuSans-30"/>
      </g>
     </g>
    </g>
    <g id="text_10">
     <!-- Epoch -->
     <g transform="translate(213.193594 339.659781)scale(0.15 -0.15)">
      <defs>
       <path d="M 628 4666 
L 3578 4666 
L 3578 4134 
L 1259 4134 
L 1259 2753 
L 3481 2753 
L 3481 2222 
L 1259 2222 
L 1259 531 
L 3634 531 
L 3634 0 
L 628 0 
L 628 4666 
z
" id="DejaVuSans-45" transform="scale(0.015625)"/>
       <path d="M 1159 525 
L 1159 -1331 
L 581 -1331 
L 581 3500 
L 1159 3500 
L 1159 2969 
Q 1341 3281 1617 3432 
Q 1894 3584 2278 3584 
Q 2916 3584 3314 3078 
Q 3713 2572 3713 1747 
Q 3713 922 3314 415 
Q 2916 -91 2278 -91 
Q 1894 -91 1617 61 
Q 1341 213 1159 525 
z
M 3116 1747 
Q 3116 2381 2855 2742 
Q 2594 3103 2138 3103 
Q 1681 3103 1420 2742 
Q 1159 2381 1159 1747 
Q 1159 1113 1420 752 
Q 1681 391 2138 391 
Q 2594 391 2855 752 
Q 3116 1113 3116 1747 
z
" id="DejaVuSans-70" transform="scale(0.015625)"/>
       <path d="M 1959 3097 
Q 1497 3097 1228 2736 
Q 959 2375 959 1747 
Q 959 1119 1226 758 
Q 1494 397 1959 397 
Q 2419 397 2687 759 
Q 2956 1122 2956 1747 
Q 2956 2369 2687 2733 
Q 2419 3097 1959 3097 
z
M 1959 3584 
Q 2709 3584 3137 3096 
Q 3566 2609 3566 1747 
Q 3566 888 3137 398 
Q 2709 -91 1959 -91 
Q 1206 -91 779 398 
Q 353 888 353 1747 
Q 353 2609 779 3096 
Q 1206 3584 1959 3584 
z
" id="DejaVuSans-6f" transform="scale(0.015625)"/>
       <path d="M 3122 3366 
L 3122 2828 
Q 2878 2963 2633 3030 
Q 2388 3097 2138 3097 
Q 1578 3097 1268 2742 
Q 959 2388 959 1747 
Q 959 1106 1268 751 
Q 1578 397 2138 397 
Q 2388 397 2633 464 
Q 2878 531 3122 666 
L 3122 134 
Q 2881 22 2623 -34 
Q 2366 -91 2075 -91 
Q 1284 -91 818 406 
Q 353 903 353 1747 
Q 353 2603 823 3093 
Q 1294 3584 2113 3584 
Q 2378 3584 2631 3529 
Q 2884 3475 3122 3366 
z
" id="DejaVuSans-63" transform="scale(0.015625)"/>
       <path d="M 3513 2113 
L 3513 0 
L 2938 0 
L 2938 2094 
Q 2938 2591 2744 2837 
Q 2550 3084 2163 3084 
Q 1697 3084 1428 2787 
Q 1159 2491 1159 1978 
L 1159 0 
L 581 0 
L 581 4863 
L 1159 4863 
L 1159 2956 
Q 1366 3272 1645 3428 
Q 1925 3584 2291 3584 
Q 2894 3584 3203 3211 
Q 3513 2838 3513 2113 
z
" id="DejaVuSans-68" transform="scale(0.015625)"/>
      </defs>
      <use xlink:href="#DejaVuSans-45"/>
      <use x="63.183594" xlink:href="#DejaVuSans-70"/>
      <use x="126.660156" xlink:href="#DejaVuSans-6f"/>
      <use x="187.841797" xlink:href="#DejaVuSans-63"/>
      <use x="242.822266" xlink:href="#DejaVuSans-68"/>
     </g>
    </g>
   </g>
   <g id="matplotlib.axis_2">
    <g id="ytick_1">
     <g id="line2d_10">
      <defs>
       <path d="M 0 0 
L -3.5 0 
" id="m45baac103c" style="stroke:#000000;stroke-width:0.8;"/>
      </defs>
      <g>
       <use style="stroke:#000000;stroke-width:0.8;" x="57.6" xlink:href="#m45baac103c" y="283.798616"/>
      </g>
     </g>
     <g id="text_11">
      <!-- 0.50 -->
      <g transform="translate(28.334375 287.597835)scale(0.1 -0.1)">
       <defs>
        <path d="M 684 794 
L 1344 794 
L 1344 0 
L 684 0 
L 684 794 
z
" id="DejaVuSans-2e" transform="scale(0.015625)"/>
       </defs>
       <use xlink:href="#DejaVuSans-30"/>
       <use x="63.623047" xlink:href="#DejaVuSans-2e"/>
       <use x="95.410156" xlink:href="#DejaVuSans-35"/>
       <use x="159.033203" xlink:href="#DejaVuSans-30"/>
      </g>
     </g>
    </g>
    <g id="ytick_2">
     <g id="line2d_11">
      <g>
       <use style="stroke:#000000;stroke-width:0.8;" x="57.6" xlink:href="#m45baac103c" y="251.821064"/>
      </g>
     </g>
     <g id="text_12">
      <!-- 0.75 -->
      <g transform="translate(28.334375 255.620283)scale(0.1 -0.1)">
       <use xlink:href="#DejaVuSans-30"/>
       <use x="63.623047" xlink:href="#DejaVuSans-2e"/>
       <use x="95.410156" xlink:href="#DejaVuSans-37"/>
       <use x="159.033203" xlink:href="#DejaVuSans-35"/>
      </g>
     </g>
    </g>
    <g id="ytick_3">
     <g id="line2d_12">
      <g>
       <use style="stroke:#000000;stroke-width:0.8;" x="57.6" xlink:href="#m45baac103c" y="219.843512"/>
      </g>
     </g>
     <g id="text_13">
      <!-- 1.00 -->
      <g transform="translate(28.334375 223.642731)scale(0.1 -0.1)">
       <use xlink:href="#DejaVuSans-31"/>
       <use x="63.623047" xlink:href="#DejaVuSans-2e"/>
       <use x="95.410156" xlink:href="#DejaVuSans-30"/>
       <use x="159.033203" xlink:href="#DejaVuSans-30"/>
      </g>
     </g>
    </g>
    <g id="ytick_4">
     <g id="line2d_13">
      <g>
       <use style="stroke:#000000;stroke-width:0.8;" x="57.6" xlink:href="#m45baac103c" y="187.86596"/>
      </g>
     </g>
     <g id="text_14">
      <!-- 1.25 -->
      <g transform="translate(28.334375 191.665179)scale(0.1 -0.1)">
       <use xlink:href="#DejaVuSans-31"/>
       <use x="63.623047" xlink:href="#DejaVuSans-2e"/>
       <use x="95.410156" xlink:href="#DejaVuSans-32"/>
       <use x="159.033203" xlink:href="#DejaVuSans-35"/>
      </g>
     </g>
    </g>
    <g id="ytick_5">
     <g id="line2d_14">
      <g>
       <use style="stroke:#000000;stroke-width:0.8;" x="57.6" xlink:href="#m45baac103c" y="155.888408"/>
      </g>
     </g>
     <g id="text_15">
      <!-- 1.50 -->
      <g transform="translate(28.334375 159.687627)scale(0.1 -0.1)">
       <use xlink:href="#DejaVuSans-31"/>
       <use x="63.623047" xlink:href="#DejaVuSans-2e"/>
       <use x="95.410156" xlink:href="#DejaVuSans-35"/>
       <use x="159.033203" xlink:href="#DejaVuSans-30"/>
      </g>
     </g>
    </g>
    <g id="ytick_6">
     <g id="line2d_15">
      <g>
       <use style="stroke:#000000;stroke-width:0.8;" x="57.6" xlink:href="#m45baac103c" y="123.910856"/>
      </g>
     </g>
     <g id="text_16">
      <!-- 1.75 -->
      <g transform="translate(28.334375 127.710075)scale(0.1 -0.1)">
       <use xlink:href="#DejaVuSans-31"/>
       <use x="63.623047" xlink:href="#DejaVuSans-2e"/>
       <use x="95.410156" xlink:href="#DejaVuSans-37"/>
       <use x="159.033203" xlink:href="#DejaVuSans-35"/>
      </g>
     </g>
    </g>
    <g id="ytick_7">
     <g id="line2d_16">
      <g>
       <use style="stroke:#000000;stroke-width:0.8;" x="57.6" xlink:href="#m45baac103c" y="91.933304"/>
      </g>
     </g>
     <g id="text_17">
      <!-- 2.00 -->
      <g transform="translate(28.334375 95.732523)scale(0.1 -0.1)">
       <use xlink:href="#DejaVuSans-32"/>
       <use x="63.623047" xlink:href="#DejaVuSans-2e"/>
       <use x="95.410156" xlink:href="#DejaVuSans-30"/>
       <use x="159.033203" xlink:href="#DejaVuSans-30"/>
      </g>
     </g>
    </g>
    <g id="ytick_8">
     <g id="line2d_17">
      <g>
       <use style="stroke:#000000;stroke-width:0.8;" x="57.6" xlink:href="#m45baac103c" y="59.955753"/>
      </g>
     </g>
     <g id="text_18">
      <!-- 2.25 -->
      <g transform="translate(28.334375 63.754971)scale(0.1 -0.1)">
       <use xlink:href="#DejaVuSans-32"/>
       <use x="63.623047" xlink:href="#DejaVuSans-2e"/>
       <use x="95.410156" xlink:href="#DejaVuSans-32"/>
       <use x="159.033203" xlink:href="#DejaVuSans-35"/>
      </g>
     </g>
    </g>
    <g id="text_19">
     <!-- Loss -->
     <g transform="translate(21.214844 190.978781)rotate(-90)scale(0.15 -0.15)">
      <defs>
       <path d="M 628 4666 
L 1259 4666 
L 1259 531 
L 3531 531 
L 3531 0 
L 628 0 
L 628 4666 
z
" id="DejaVuSans-4c" transform="scale(0.015625)"/>
       <path d="M 2834 3397 
L 2834 2853 
Q 2591 2978 2328 3040 
Q 2066 3103 1784 3103 
Q 1356 3103 1142 2972 
Q 928 2841 928 2578 
Q 928 2378 1081 2264 
Q 1234 2150 1697 2047 
L 1894 2003 
Q 2506 1872 2764 1633 
Q 3022 1394 3022 966 
Q 3022 478 2636 193 
Q 2250 -91 1575 -91 
Q 1294 -91 989 -36 
Q 684 19 347 128 
L 347 722 
Q 666 556 975 473 
Q 1284 391 1588 391 
Q 1994 391 2212 530 
Q 2431 669 2431 922 
Q 2431 1156 2273 1281 
Q 2116 1406 1581 1522 
L 1381 1569 
Q 847 1681 609 1914 
Q 372 2147 372 2553 
Q 372 3047 722 3315 
Q 1072 3584 1716 3584 
Q 2034 3584 2315 3537 
Q 2597 3491 2834 3397 
z
" id="DejaVuSans-73" transform="scale(0.015625)"/>
      </defs>
      <use xlink:href="#DejaVuSans-4c"/>
      <use x="53.962891" xlink:href="#DejaVuSans-6f"/>
      <use x="115.144531" xlink:href="#DejaVuSans-73"/>
      <use x="167.244141" xlink:href="#DejaVuSans-73"/>
     </g>
    </g>
   </g>
   <g id="line2d_18">
    <path clip-path="url(#pf98204d880)" d="M 73.832727 53.568 
L 75.464157 64.670413 
L 77.095587 79.832955 
L 78.727017 82.7392 
L 80.358447 85.030048 
L 81.989877 85.581582 
L 83.621307 90.090616 
L 85.252736 91.841927 
L 86.884166 96.519857 
L 88.515596 97.468509 
L 90.147026 102.881182 
L 91.778456 106.082847 
L 93.409886 87.624186 
L 95.041316 106.211022 
L 96.672746 116.505021 
L 98.304175 118.22521 
L 99.935605 117.768394 
L 101.567035 127.91161 
L 103.198465 131.923209 
L 104.829895 131.984768 
L 106.461325 132.867886 
L 108.092755 128.635395 
L 109.724185 130.031896 
L 111.355614 144.487013 
L 112.987044 147.583185 
L 114.618474 144.486791 
L 116.249904 143.506463 
L 117.881334 155.16109 
L 119.512764 159.763843 
L 121.144194 151.055648 
L 122.775624 161.28518 
L 124.407053 165.422387 
L 126.038483 165.544834 
L 127.669913 160.861531 
L 129.301343 154.013273 
L 130.932773 157.140186 
L 132.564203 162.171795 
L 135.827063 178.019188 
L 137.458492 179.192475 
L 139.089922 178.474275 
L 140.721352 175.624217 
L 142.352782 181.338907 
L 143.984212 166.665676 
L 145.615642 169.471082 
L 147.247072 179.122113 
L 148.878502 180.369671 
L 150.509931 173.478596 
L 152.141361 176.613022 
L 153.772791 191.43509 
L 155.404221 190.831469 
L 157.035651 191.578184 
L 158.667081 188.345047 
L 160.298511 184.094205 
L 161.929941 177.21844 
L 163.56137 190.777667 
L 165.1928 196.424066 
L 166.82423 185.133401 
L 168.45566 199.366665 
L 170.08709 189.377061 
L 171.71852 188.540583 
L 173.34995 198.975619 
L 174.98138 178.723425 
L 176.61281 182.176218 
L 178.244239 204.357192 
L 179.875669 208.10741 
L 181.507099 187.954333 
L 183.138529 202.755447 
L 184.769959 192.334109 
L 186.401389 204.005893 
L 188.032819 213.727312 
L 189.664249 209.054601 
L 191.295678 211.869503 
L 192.927108 194.8309 
L 194.558538 212.695429 
L 196.189968 221.241735 
L 197.821398 216.569733 
L 199.452828 216.784498 
L 201.084258 207.537123 
L 202.715688 220.95466 
L 204.347117 228.900712 
L 205.978547 217.383441 
L 207.609977 204.29429 
L 209.241407 223.17531 
L 210.872837 221.643244 
L 212.504267 215.992179 
L 214.135697 231.109868 
L 215.767127 227.933406 
L 217.398556 229.803021 
L 219.029986 236.785427 
L 220.661416 237.303915 
L 222.292846 188.566995 
L 223.924276 191.351548 
L 225.555706 192.950947 
L 227.187136 227.138055 
L 228.818566 233.265732 
L 230.449995 230.86443 
L 232.081425 239.315387 
L 233.712855 238.963186 
L 235.344285 236.448472 
L 236.975715 228.689354 
L 238.607145 238.261495 
L 240.238575 236.184347 
L 241.870005 247.112868 
L 243.501434 243.742162 
L 245.132864 226.753556 
L 246.764294 204.071143 
L 248.395724 224.744064 
L 250.027154 243.580271 
L 251.658584 242.18291 
L 253.290014 231.877204 
L 254.921444 248.767241 
L 258.184303 224.664715 
L 259.815733 245.068731 
L 261.447163 252.658242 
L 263.078593 253.414827 
L 264.710023 249.846261 
L 266.341453 249.344448 
L 267.972883 235.113978 
L 269.604312 240.953928 
L 271.235742 231.936424 
L 272.867172 237.433321 
L 274.498602 245.344422 
L 276.130032 216.062005 
L 277.761462 244.319083 
L 279.392892 252.741463 
L 281.024322 249.276805 
L 282.655751 250.888571 
L 284.287181 248.314997 
L 285.918611 226.748269 
L 287.550041 250.495739 
L 289.181471 258.127981 
L 290.812901 254.946073 
L 292.444331 242.698379 
L 294.075761 250.219307 
L 295.70719 262.836139 
L 297.33862 249.62746 
L 298.97005 249.115397 
L 300.60148 265.229208 
L 302.23291 262.434229 
L 303.86434 256.241169 
L 305.49577 233.838026 
L 307.1272 256.08524 
L 308.75863 260.215636 
L 310.390059 268.843011 
L 312.021489 269.191874 
L 313.652919 262.537476 
L 315.284349 259.640974 
L 316.915779 261.992355 
L 318.547209 260.827448 
L 320.178639 269.313402 
L 321.810069 258.39184 
L 323.441498 261.414658 
L 325.072928 248.326344 
L 326.704358 259.578056 
L 328.335788 261.436247 
L 329.967218 268.217804 
L 331.598648 275.908689 
L 333.230078 271.478053 
L 334.861508 270.731514 
L 336.492937 255.597242 
L 338.124367 259.411738 
L 339.755797 258.388024 
L 341.387227 262.742845 
L 343.018657 260.196017 
L 344.650087 264.054655 
L 346.281517 279.878997 
L 347.912947 276.540014 
L 349.544376 278.720305 
L 351.175806 277.683934 
L 352.807236 283.350591 
L 354.438666 276.483651 
L 356.070096 270.166716 
L 357.701526 273.706639 
L 359.332956 282.465499 
L 360.964386 278.512785 
L 362.595815 274.22172 
L 364.227245 272.798561 
L 365.858675 282.889741 
L 367.490105 274.250667 
L 369.121535 280.502105 
L 370.752965 283.682286 
L 372.384395 276.998405 
L 374.015825 273.078642 
L 375.647254 281.807031 
L 377.278684 284.48311 
L 378.910114 295.488 
L 380.541544 291.894966 
L 382.172974 282.592778 
L 383.804404 288.274268 
L 385.435834 285.056761 
L 387.067264 274.327618 
L 388.698693 252.153352 
L 390.330123 283.814727 
L 391.961553 285.656528 
L 393.592983 281.165602 
L 395.224413 278.833621 
L 396.855843 285.457088 
L 398.487273 288.803809 
L 398.487273 288.803809 
" style="fill:none;stroke:#1f77b4;stroke-linecap:square;stroke-width:1.5;"/>
   </g>
   <g id="line2d_19">
    <path clip-path="url(#pf98204d880)" d="M 73.832727 58.209008 
L 75.464157 73.95046 
L 77.095587 84.438131 
L 80.358447 79.848663 
L 81.989877 89.466408 
L 83.621307 86.7775 
L 85.252736 90.175734 
L 86.884166 91.76296 
L 88.515596 96.205383 
L 90.147026 94.843851 
L 91.778456 93.035306 
L 93.409886 91.612012 
L 95.041316 108.278138 
L 96.672746 94.497743 
L 98.304175 115.51658 
L 99.935605 107.556043 
L 101.567035 113.564604 
L 103.198465 111.505792 
L 104.829895 97.813423 
L 106.461325 114.716208 
L 108.092755 92.460926 
L 109.724185 125.406061 
L 111.355614 115.320634 
L 112.987044 113.962655 
L 114.618474 121.331971 
L 116.249904 135.181509 
L 117.881334 137.27825 
L 119.512764 131.564823 
L 121.144194 129.773394 
L 122.775624 145.867253 
L 124.407053 138.779813 
L 126.038483 124.366568 
L 127.669913 149.949943 
L 129.301343 142.306199 
L 130.932773 140.705936 
L 132.564203 109.652662 
L 134.195633 136.616476 
L 135.827063 148.03954 
L 137.458492 136.07093 
L 139.089922 150.522378 
L 140.721352 146.93256 
L 142.352782 120.323645 
L 143.984212 134.851129 
L 145.615642 147.261743 
L 147.247072 122.811347 
L 148.878502 158.213566 
L 150.509931 128.481249 
L 152.141361 150.067902 
L 155.404221 164.006946 
L 157.035651 158.679768 
L 158.667081 143.18468 
L 160.298511 152.11097 
L 161.929941 159.422907 
L 163.56137 154.002823 
L 165.1928 150.714215 
L 166.82423 167.504887 
L 168.45566 167.744107 
L 170.08709 150.920232 
L 171.71852 165.337608 
L 173.34995 136.526253 
L 174.98138 122.778861 
L 176.61281 179.865984 
L 178.244239 176.817846 
L 179.875669 157.835734 
L 181.507099 174.039218 
L 183.138529 152.577889 
L 184.769959 177.545385 
L 186.401389 178.292808 
L 188.032819 187.515056 
L 189.664249 179.572969 
L 191.295678 155.756733 
L 192.927108 181.27294 
L 194.558538 197.469463 
L 196.189968 187.169123 
L 197.821398 185.678821 
L 199.452828 179.565619 
L 201.084258 182.513036 
L 202.715688 194.189143 
L 204.347117 190.733805 
L 205.978547 139.482529 
L 207.609977 170.832302 
L 209.241407 196.350201 
L 210.872837 194.446492 
L 212.504267 188.320277 
L 214.135697 189.052623 
L 215.767127 198.379675 
L 217.398556 205.242777 
L 219.029986 196.686932 
L 220.661416 163.726305 
L 222.292846 171.524062 
L 223.924276 173.040606 
L 225.555706 154.918958 
L 227.187136 195.214112 
L 228.818566 178.786557 
L 230.449995 198.869832 
L 232.081425 209.655889 
L 233.712855 188.537684 
L 235.344285 179.334519 
L 236.975715 208.286573 
L 238.607145 203.607344 
L 240.238575 206.825856 
L 241.870005 207.022255 
L 243.501434 213.479282 
L 245.132864 199.395251 
L 246.764294 209.496482 
L 248.395724 213.80609 
L 250.027154 217.761333 
L 251.658584 202.211016 
L 253.290014 194.272474 
L 254.921444 224.24138 
L 256.552873 133.433979 
L 258.184303 195.688426 
L 259.815733 212.278274 
L 261.447163 211.771637 
L 263.078593 213.987882 
L 264.710023 206.292737 
L 266.341453 225.113247 
L 267.972883 184.336791 
L 269.604312 171.429173 
L 271.235742 203.17827 
L 272.867172 219.314449 
L 274.498602 201.481265 
L 276.130032 218.993599 
L 277.761462 215.591896 
L 279.392892 217.213904 
L 281.024322 215.509335 
L 282.655751 221.459176 
L 284.287181 166.241561 
L 285.918611 201.882061 
L 287.550041 220.289572 
L 289.181471 233.807689 
L 290.812901 227.489013 
L 292.444331 169.543068 
L 294.075761 227.472991 
L 295.70719 216.773017 
L 297.33862 224.365 
L 298.97005 228.71688 
L 300.60148 223.485033 
L 302.23291 227.775532 
L 303.86434 148.087961 
L 305.49577 230.893837 
L 307.1272 235.974473 
L 308.75863 240.473561 
L 310.390059 237.582124 
L 312.021489 240.088021 
L 313.652919 219.337912 
L 315.284349 240.694468 
L 316.915779 207.122378 
L 318.547209 245.838848 
L 320.178639 195.368658 
L 321.810069 232.580847 
L 323.441498 235.155304 
L 325.072928 209.810692 
L 326.704358 251.023227 
L 328.335788 211.042009 
L 329.967218 237.551148 
L 331.598648 208.178903 
L 333.230078 253.597634 
L 334.861508 213.92294 
L 336.492937 232.491139 
L 338.124367 230.58453 
L 339.755797 233.430051 
L 341.387227 188.568096 
L 343.018657 227.741208 
L 344.650087 245.368311 
L 346.281517 251.519564 
L 347.912947 235.13826 
L 349.544376 245.414276 
L 351.175806 243.623938 
L 352.807236 247.198847 
L 354.438666 246.184743 
L 356.070096 218.273722 
L 357.701526 243.726149 
L 359.332956 228.893758 
L 360.964386 238.281371 
L 362.595815 228.372414 
L 364.227245 235.417243 
L 365.858675 236.279991 
L 367.490105 223.59496 
L 369.121535 252.789779 
L 370.752965 243.132557 
L 372.384395 199.565408 
L 374.015825 225.139256 
L 375.647254 217.454884 
L 377.278684 260.175414 
L 378.910114 265.983798 
L 380.541544 235.651286 
L 382.172974 234.063175 
L 383.804404 255.526558 
L 385.435834 257.796846 
L 387.067264 187.456176 
L 388.698693 231.373127 
L 390.330123 253.588264 
L 391.961553 254.390157 
L 393.592983 252.200406 
L 395.224413 235.766496 
L 396.855843 250.569204 
L 398.487273 253.515355 
L 398.487273 253.515355 
" style="fill:none;stroke:#ff7f0e;stroke-linecap:square;stroke-width:1.5;"/>
   </g>
   <g id="patch_3">
    <path d="M 57.6 307.584 
L 57.6 41.472 
" style="fill:none;stroke:#000000;stroke-linecap:square;stroke-linejoin:miter;stroke-width:0.8;"/>
   </g>
   <g id="patch_4">
    <path d="M 414.72 307.584 
L 414.72 41.472 
" style="fill:none;stroke:#000000;stroke-linecap:square;stroke-linejoin:miter;stroke-width:0.8;"/>
   </g>
   <g id="patch_5">
    <path d="M 57.6 307.584 
L 414.72 307.584 
" style="fill:none;stroke:#000000;stroke-linecap:square;stroke-linejoin:miter;stroke-width:0.8;"/>
   </g>
   <g id="patch_6">
    <path d="M 57.6 41.472 
L 414.72 41.472 
" style="fill:none;stroke:#000000;stroke-linecap:square;stroke-linejoin:miter;stroke-width:0.8;"/>
   </g>
   <g id="legend_1">
    <g id="patch_7">
     <path d="M 303.845 78.82825 
L 407.72 78.82825 
Q 409.72 78.82825 409.72 76.82825 
L 409.72 48.472 
Q 409.72 46.472 407.72 46.472 
L 303.845 46.472 
Q 301.845 46.472 301.845 48.472 
L 301.845 76.82825 
Q 301.845 78.82825 303.845 78.82825 
z
" style="fill:#ffffff;opacity:0.8;stroke:#cccccc;stroke-linejoin:miter;"/>
    </g>
    <g id="line2d_20">
     <path d="M 305.845 54.570437 
L 325.845 54.570437 
" style="fill:none;stroke:#1f77b4;stroke-linecap:square;stroke-width:1.5;"/>
    </g>
    <g id="line2d_21"/>
    <g id="text_20">
     <!-- Train loss -->
     <g transform="translate(333.845 58.070437)scale(0.1 -0.1)">
      <defs>
       <path d="M -19 4666 
L 3928 4666 
L 3928 4134 
L 2272 4134 
L 2272 0 
L 1638 0 
L 1638 4134 
L -19 4134 
L -19 4666 
z
" id="DejaVuSans-54" transform="scale(0.015625)"/>
       <path d="M 2631 2963 
Q 2534 3019 2420 3045 
Q 2306 3072 2169 3072 
Q 1681 3072 1420 2755 
Q 1159 2438 1159 1844 
L 1159 0 
L 581 0 
L 581 3500 
L 1159 3500 
L 1159 2956 
Q 1341 3275 1631 3429 
Q 1922 3584 2338 3584 
Q 2397 3584 2469 3576 
Q 2541 3569 2628 3553 
L 2631 2963 
z
" id="DejaVuSans-72" transform="scale(0.015625)"/>
       <path d="M 2194 1759 
Q 1497 1759 1228 1600 
Q 959 1441 959 1056 
Q 959 750 1161 570 
Q 1363 391 1709 391 
Q 2188 391 2477 730 
Q 2766 1069 2766 1631 
L 2766 1759 
L 2194 1759 
z
M 3341 1997 
L 3341 0 
L 2766 0 
L 2766 531 
Q 2569 213 2275 61 
Q 1981 -91 1556 -91 
Q 1019 -91 701 211 
Q 384 513 384 1019 
Q 384 1609 779 1909 
Q 1175 2209 1959 2209 
L 2766 2209 
L 2766 2266 
Q 2766 2663 2505 2880 
Q 2244 3097 1772 3097 
Q 1472 3097 1187 3025 
Q 903 2953 641 2809 
L 641 3341 
Q 956 3463 1253 3523 
Q 1550 3584 1831 3584 
Q 2591 3584 2966 3190 
Q 3341 2797 3341 1997 
z
" id="DejaVuSans-61" transform="scale(0.015625)"/>
       <path d="M 603 3500 
L 1178 3500 
L 1178 0 
L 603 0 
L 603 3500 
z
M 603 4863 
L 1178 4863 
L 1178 4134 
L 603 4134 
L 603 4863 
z
" id="DejaVuSans-69" transform="scale(0.015625)"/>
       <path d="M 3513 2113 
L 3513 0 
L 2938 0 
L 2938 2094 
Q 2938 2591 2744 2837 
Q 2550 3084 2163 3084 
Q 1697 3084 1428 2787 
Q 1159 2491 1159 1978 
L 1159 0 
L 581 0 
L 581 3500 
L 1159 3500 
L 1159 2956 
Q 1366 3272 1645 3428 
Q 1925 3584 2291 3584 
Q 2894 3584 3203 3211 
Q 3513 2838 3513 2113 
z
" id="DejaVuSans-6e" transform="scale(0.015625)"/>
       <path id="DejaVuSans-20" transform="scale(0.015625)"/>
       <path d="M 603 4863 
L 1178 4863 
L 1178 0 
L 603 0 
L 603 4863 
z
" id="DejaVuSans-6c" transform="scale(0.015625)"/>
      </defs>
      <use xlink:href="#DejaVuSans-54"/>
      <use x="46.333984" xlink:href="#DejaVuSans-72"/>
      <use x="87.447266" xlink:href="#DejaVuSans-61"/>
      <use x="148.726562" xlink:href="#DejaVuSans-69"/>
      <use x="176.509766" xlink:href="#DejaVuSans-6e"/>
      <use x="239.888672" xlink:href="#DejaVuSans-20"/>
      <use x="271.675781" xlink:href="#DejaVuSans-6c"/>
      <use x="299.458984" xlink:href="#DejaVuSans-6f"/>
      <use x="360.640625" xlink:href="#DejaVuSans-73"/>
      <use x="412.740234" xlink:href="#DejaVuSans-73"/>
     </g>
    </g>
    <g id="line2d_22">
     <path d="M 305.845 69.248562 
L 325.845 69.248562 
" style="fill:none;stroke:#ff7f0e;stroke-linecap:square;stroke-width:1.5;"/>
    </g>
    <g id="line2d_23"/>
    <g id="text_21">
     <!-- Validation loss -->
     <g transform="translate(333.845 72.748562)scale(0.1 -0.1)">
      <defs>
       <path d="M 1831 0 
L 50 4666 
L 709 4666 
L 2188 738 
L 3669 4666 
L 4325 4666 
L 2547 0 
L 1831 0 
z
" id="DejaVuSans-56" transform="scale(0.015625)"/>
       <path d="M 2906 2969 
L 2906 4863 
L 3481 4863 
L 3481 0 
L 2906 0 
L 2906 525 
Q 2725 213 2448 61 
Q 2172 -91 1784 -91 
Q 1150 -91 751 415 
Q 353 922 353 1747 
Q 353 2572 751 3078 
Q 1150 3584 1784 3584 
Q 2172 3584 2448 3432 
Q 2725 3281 2906 2969 
z
M 947 1747 
Q 947 1113 1208 752 
Q 1469 391 1925 391 
Q 2381 391 2643 752 
Q 2906 1113 2906 1747 
Q 2906 2381 2643 2742 
Q 2381 3103 1925 3103 
Q 1469 3103 1208 2742 
Q 947 2381 947 1747 
z
" id="DejaVuSans-64" transform="scale(0.015625)"/>
       <path d="M 1172 4494 
L 1172 3500 
L 2356 3500 
L 2356 3053 
L 1172 3053 
L 1172 1153 
Q 1172 725 1289 603 
Q 1406 481 1766 481 
L 2356 481 
L 2356 0 
L 1766 0 
Q 1100 0 847 248 
Q 594 497 594 1153 
L 594 3053 
L 172 3053 
L 172 3500 
L 594 3500 
L 594 4494 
L 1172 4494 
z
" id="DejaVuSans-74" transform="scale(0.015625)"/>
      </defs>
      <use xlink:href="#DejaVuSans-56"/>
      <use x="60.658203" xlink:href="#DejaVuSans-61"/>
      <use x="121.9375" xlink:href="#DejaVuSans-6c"/>
      <use x="149.720703" xlink:href="#DejaVuSans-69"/>
      <use x="177.503906" xlink:href="#DejaVuSans-64"/>
      <use x="240.980469" xlink:href="#DejaVuSans-61"/>
      <use x="302.259766" xlink:href="#DejaVuSans-74"/>
      <use x="341.46875" xlink:href="#DejaVuSans-69"/>
      <use x="369.251953" xlink:href="#DejaVuSans-6f"/>
      <use x="430.433594" xlink:href="#DejaVuSans-6e"/>
      <use x="493.8125" xlink:href="#DejaVuSans-20"/>
      <use x="525.599609" xlink:href="#DejaVuSans-6c"/>
      <use x="553.382812" xlink:href="#DejaVuSans-6f"/>
      <use x="614.564453" xlink:href="#DejaVuSans-73"/>
      <use x="666.664062" xlink:href="#DejaVuSans-73"/>
     </g>
    </g>
   </g>
  </g>
 </g>
 <defs>
  <clipPath id="pf98204d880">
   <rect height="266.112" width="357.12" x="57.6" y="41.472"/>
  </clipPath>
 </defs>
</svg>
