<?xml version="1.0" encoding="utf-8" standalone="no"?>
<!DOCTYPE svg PUBLIC "-//W3C//DTD SVG 1.1//EN"
  "http://www.w3.org/Graphics/SVG/1.1/DTD/svg11.dtd">
<svg height="345.6pt" version="1.1" viewBox="0 0 460.8 345.6" width="460.8pt" xmlns="http://www.w3.org/2000/svg" xmlns:xlink="http://www.w3.org/1999/xlink">
 <metadata>
  <rdf:RDF xmlns:cc="http://creativecommons.org/ns#" xmlns:dc="http://purl.org/dc/elements/1.1/" xmlns:rdf="http://www.w3.org/1999/02/22-rdf-syntax-ns#">
   <cc:Work>
    <dc:type rdf:resource="http://purl.org/dc/dcmitype/StillImage"/>
    <dc:date>2021-08-08T20:24:18.784871</dc:date>
    <dc:format>image/svg+xml</dc:format>
    <dc:creator>
     <cc:Agent>
      <dc:title>Matplotlib v3.4.2, https://matplotlib.org/</dc:title>
     </cc:Agent>
    </dc:creator>
   </cc:Work>
  </rdf:RDF>
 </metadata>
 <defs>
  <style type="text/css">*{stroke-linecap:butt;stroke-linejoin:round;}</style>
 </defs>
 <g id="figure_1">
  <g id="patch_1">
   <path d="M 0 345.6 
L 460.8 345.6 
L 460.8 0 
L 0 0 
z
" style="fill:#ffffff;"/>
  </g>
  <g id="axes_1">
   <g id="patch_2">
    <path d="M 57.6 307.584 
L 414.72 307.584 
L 414.72 41.472 
L 57.6 41.472 
z
" style="fill:#ffffff;"/>
   </g>
   <g id="matplotlib.axis_1">
    <g id="xtick_1">
     <g id="line2d_1">
      <defs>
       <path d="M 0 0 
L 0 3.5 
" id="m34626189d2" style="stroke:#000000;stroke-width:0.8;"/>
      </defs>
      <g>
       <use style="stroke:#000000;stroke-width:0.8;" x="73.368272" xlink:href="#m34626189d2" y="307.584"/>
      </g>
     </g>
     <g id="text_1">
      <!-- 0 -->
      <g transform="translate(70.187022 322.182437)scale(0.1 -0.1)">
       <defs>
        <path d="M 2034 4250 
Q 1547 4250 1301 3770 
Q 1056 3291 1056 2328 
Q 1056 1369 1301 889 
Q 1547 409 2034 409 
Q 2525 409 2770 889 
Q 3016 1369 3016 2328 
Q 3016 3291 2770 3770 
Q 2525 4250 2034 4250 
z
M 2034 4750 
Q 2819 4750 3233 4129 
Q 3647 3509 3647 2328 
Q 3647 1150 3233 529 
Q 2819 -91 2034 -91 
Q 1250 -91 836 529 
Q 422 1150 422 2328 
Q 422 3509 836 4129 
Q 1250 4750 2034 4750 
z
" id="DejaVuSans-30" transform="scale(0.015625)"/>
       </defs>
       <use xlink:href="#DejaVuSans-30"/>
      </g>
     </g>
    </g>
    <g id="xtick_2">
     <g id="line2d_2">
      <g>
       <use style="stroke:#000000;stroke-width:0.8;" x="119.813843" xlink:href="#m34626189d2" y="307.584"/>
      </g>
     </g>
     <g id="text_2">
      <!-- 100 -->
      <g transform="translate(110.270093 322.182437)scale(0.1 -0.1)">
       <defs>
        <path d="M 794 531 
L 1825 531 
L 1825 4091 
L 703 3866 
L 703 4441 
L 1819 4666 
L 2450 4666 
L 2450 531 
L 3481 531 
L 3481 0 
L 794 0 
L 794 531 
z
" id="DejaVuSans-31" transform="scale(0.015625)"/>
       </defs>
       <use xlink:href="#DejaVuSans-31"/>
       <use x="63.623047" xlink:href="#DejaVuSans-30"/>
       <use x="127.246094" xlink:href="#DejaVuSans-30"/>
      </g>
     </g>
    </g>
    <g id="xtick_3">
     <g id="line2d_3">
      <g>
       <use style="stroke:#000000;stroke-width:0.8;" x="166.259415" xlink:href="#m34626189d2" y="307.584"/>
      </g>
     </g>
     <g id="text_3">
      <!-- 200 -->
      <g transform="translate(156.715665 322.182437)scale(0.1 -0.1)">
       <defs>
        <path d="M 1228 531 
L 3431 531 
L 3431 0 
L 469 0 
L 469 531 
Q 828 903 1448 1529 
Q 2069 2156 2228 2338 
Q 2531 2678 2651 2914 
Q 2772 3150 2772 3378 
Q 2772 3750 2511 3984 
Q 2250 4219 1831 4219 
Q 1534 4219 1204 4116 
Q 875 4013 500 3803 
L 500 4441 
Q 881 4594 1212 4672 
Q 1544 4750 1819 4750 
Q 2544 4750 2975 4387 
Q 3406 4025 3406 3419 
Q 3406 3131 3298 2873 
Q 3191 2616 2906 2266 
Q 2828 2175 2409 1742 
Q 1991 1309 1228 531 
z
" id="DejaVuSans-32" transform="scale(0.015625)"/>
       </defs>
       <use xlink:href="#DejaVuSans-32"/>
       <use x="63.623047" xlink:href="#DejaVuSans-30"/>
       <use x="127.246094" xlink:href="#DejaVuSans-30"/>
      </g>
     </g>
    </g>
    <g id="xtick_4">
     <g id="line2d_4">
      <g>
       <use style="stroke:#000000;stroke-width:0.8;" x="212.704986" xlink:href="#m34626189d2" y="307.584"/>
      </g>
     </g>
     <g id="text_4">
      <!-- 300 -->
      <g transform="translate(203.161236 322.182437)scale(0.1 -0.1)">
       <defs>
        <path d="M 2597 2516 
Q 3050 2419 3304 2112 
Q 3559 1806 3559 1356 
Q 3559 666 3084 287 
Q 2609 -91 1734 -91 
Q 1441 -91 1130 -33 
Q 819 25 488 141 
L 488 750 
Q 750 597 1062 519 
Q 1375 441 1716 441 
Q 2309 441 2620 675 
Q 2931 909 2931 1356 
Q 2931 1769 2642 2001 
Q 2353 2234 1838 2234 
L 1294 2234 
L 1294 2753 
L 1863 2753 
Q 2328 2753 2575 2939 
Q 2822 3125 2822 3475 
Q 2822 3834 2567 4026 
Q 2313 4219 1838 4219 
Q 1578 4219 1281 4162 
Q 984 4106 628 3988 
L 628 4550 
Q 988 4650 1302 4700 
Q 1616 4750 1894 4750 
Q 2613 4750 3031 4423 
Q 3450 4097 3450 3541 
Q 3450 3153 3228 2886 
Q 3006 2619 2597 2516 
z
" id="DejaVuSans-33" transform="scale(0.015625)"/>
       </defs>
       <use xlink:href="#DejaVuSans-33"/>
       <use x="63.623047" xlink:href="#DejaVuSans-30"/>
       <use x="127.246094" xlink:href="#DejaVuSans-30"/>
      </g>
     </g>
    </g>
    <g id="xtick_5">
     <g id="line2d_5">
      <g>
       <use style="stroke:#000000;stroke-width:0.8;" x="259.150558" xlink:href="#m34626189d2" y="307.584"/>
      </g>
     </g>
     <g id="text_5">
      <!-- 400 -->
      <g transform="translate(249.606808 322.182437)scale(0.1 -0.1)">
       <defs>
        <path d="M 2419 4116 
L 825 1625 
L 2419 1625 
L 2419 4116 
z
M 2253 4666 
L 3047 4666 
L 3047 1625 
L 3713 1625 
L 3713 1100 
L 3047 1100 
L 3047 0 
L 2419 0 
L 2419 1100 
L 313 1100 
L 313 1709 
L 2253 4666 
z
" id="DejaVuSans-34" transform="scale(0.015625)"/>
       </defs>
       <use xlink:href="#DejaVuSans-34"/>
       <use x="63.623047" xlink:href="#DejaVuSans-30"/>
       <use x="127.246094" xlink:href="#DejaVuSans-30"/>
      </g>
     </g>
    </g>
    <g id="xtick_6">
     <g id="line2d_6">
      <g>
       <use style="stroke:#000000;stroke-width:0.8;" x="305.59613" xlink:href="#m34626189d2" y="307.584"/>
      </g>
     </g>
     <g id="text_6">
      <!-- 500 -->
      <g transform="translate(296.05238 322.182437)scale(0.1 -0.1)">
       <defs>
        <path d="M 691 4666 
L 3169 4666 
L 3169 4134 
L 1269 4134 
L 1269 2991 
Q 1406 3038 1543 3061 
Q 1681 3084 1819 3084 
Q 2600 3084 3056 2656 
Q 3513 2228 3513 1497 
Q 3513 744 3044 326 
Q 2575 -91 1722 -91 
Q 1428 -91 1123 -41 
Q 819 9 494 109 
L 494 744 
Q 775 591 1075 516 
Q 1375 441 1709 441 
Q 2250 441 2565 725 
Q 2881 1009 2881 1497 
Q 2881 1984 2565 2268 
Q 2250 2553 1709 2553 
Q 1456 2553 1204 2497 
Q 953 2441 691 2322 
L 691 4666 
z
" id="DejaVuSans-35" transform="scale(0.015625)"/>
       </defs>
       <use xlink:href="#DejaVuSans-35"/>
       <use x="63.623047" xlink:href="#DejaVuSans-30"/>
       <use x="127.246094" xlink:href="#DejaVuSans-30"/>
      </g>
     </g>
    </g>
    <g id="xtick_7">
     <g id="line2d_7">
      <g>
       <use style="stroke:#000000;stroke-width:0.8;" x="352.041701" xlink:href="#m34626189d2" y="307.584"/>
      </g>
     </g>
     <g id="text_7">
      <!-- 600 -->
      <g transform="translate(342.497951 322.182437)scale(0.1 -0.1)">
       <defs>
        <path d="M 2113 2584 
Q 1688 2584 1439 2293 
Q 1191 2003 1191 1497 
Q 1191 994 1439 701 
Q 1688 409 2113 409 
Q 2538 409 2786 701 
Q 3034 994 3034 1497 
Q 3034 2003 2786 2293 
Q 2538 2584 2113 2584 
z
M 3366 4563 
L 3366 3988 
Q 3128 4100 2886 4159 
Q 2644 4219 2406 4219 
Q 1781 4219 1451 3797 
Q 1122 3375 1075 2522 
Q 1259 2794 1537 2939 
Q 1816 3084 2150 3084 
Q 2853 3084 3261 2657 
Q 3669 2231 3669 1497 
Q 3669 778 3244 343 
Q 2819 -91 2113 -91 
Q 1303 -91 875 529 
Q 447 1150 447 2328 
Q 447 3434 972 4092 
Q 1497 4750 2381 4750 
Q 2619 4750 2861 4703 
Q 3103 4656 3366 4563 
z
" id="DejaVuSans-36" transform="scale(0.015625)"/>
       </defs>
       <use xlink:href="#DejaVuSans-36"/>
       <use x="63.623047" xlink:href="#DejaVuSans-30"/>
       <use x="127.246094" xlink:href="#DejaVuSans-30"/>
      </g>
     </g>
    </g>
    <g id="xtick_8">
     <g id="line2d_8">
      <g>
       <use style="stroke:#000000;stroke-width:0.8;" x="398.487273" xlink:href="#m34626189d2" y="307.584"/>
      </g>
     </g>
     <g id="text_8">
      <!-- 700 -->
      <g transform="translate(388.943523 322.182437)scale(0.1 -0.1)">
       <defs>
        <path d="M 525 4666 
L 3525 4666 
L 3525 4397 
L 1831 0 
L 1172 0 
L 2766 4134 
L 525 4134 
L 525 4666 
z
" id="DejaVuSans-37" transform="scale(0.015625)"/>
       </defs>
       <use xlink:href="#DejaVuSans-37"/>
       <use x="63.623047" xlink:href="#DejaVuSans-30"/>
       <use x="127.246094" xlink:href="#DejaVuSans-30"/>
      </g>
     </g>
    </g>
    <g id="text_9">
     <!-- Epoch -->
     <g transform="translate(213.193594 339.659781)scale(0.15 -0.15)">
      <defs>
       <path d="M 628 4666 
L 3578 4666 
L 3578 4134 
L 1259 4134 
L 1259 2753 
L 3481 2753 
L 3481 2222 
L 1259 2222 
L 1259 531 
L 3634 531 
L 3634 0 
L 628 0 
L 628 4666 
z
" id="DejaVuSans-45" transform="scale(0.015625)"/>
       <path d="M 1159 525 
L 1159 -1331 
L 581 -1331 
L 581 3500 
L 1159 3500 
L 1159 2969 
Q 1341 3281 1617 3432 
Q 1894 3584 2278 3584 
Q 2916 3584 3314 3078 
Q 3713 2572 3713 1747 
Q 3713 922 3314 415 
Q 2916 -91 2278 -91 
Q 1894 -91 1617 61 
Q 1341 213 1159 525 
z
M 3116 1747 
Q 3116 2381 2855 2742 
Q 2594 3103 2138 3103 
Q 1681 3103 1420 2742 
Q 1159 2381 1159 1747 
Q 1159 1113 1420 752 
Q 1681 391 2138 391 
Q 2594 391 2855 752 
Q 3116 1113 3116 1747 
z
" id="DejaVuSans-70" transform="scale(0.015625)"/>
       <path d="M 1959 3097 
Q 1497 3097 1228 2736 
Q 959 2375 959 1747 
Q 959 1119 1226 758 
Q 1494 397 1959 397 
Q 2419 397 2687 759 
Q 2956 1122 2956 1747 
Q 2956 2369 2687 2733 
Q 2419 3097 1959 3097 
z
M 1959 3584 
Q 2709 3584 3137 3096 
Q 3566 2609 3566 1747 
Q 3566 888 3137 398 
Q 2709 -91 1959 -91 
Q 1206 -91 779 398 
Q 353 888 353 1747 
Q 353 2609 779 3096 
Q 1206 3584 1959 3584 
z
" id="DejaVuSans-6f" transform="scale(0.015625)"/>
       <path d="M 3122 3366 
L 3122 2828 
Q 2878 2963 2633 3030 
Q 2388 3097 2138 3097 
Q 1578 3097 1268 2742 
Q 959 2388 959 1747 
Q 959 1106 1268 751 
Q 1578 397 2138 397 
Q 2388 397 2633 464 
Q 2878 531 3122 666 
L 3122 134 
Q 2881 22 2623 -34 
Q 2366 -91 2075 -91 
Q 1284 -91 818 406 
Q 353 903 353 1747 
Q 353 2603 823 3093 
Q 1294 3584 2113 3584 
Q 2378 3584 2631 3529 
Q 2884 3475 3122 3366 
z
" id="DejaVuSans-63" transform="scale(0.015625)"/>
       <path d="M 3513 2113 
L 3513 0 
L 2938 0 
L 2938 2094 
Q 2938 2591 2744 2837 
Q 2550 3084 2163 3084 
Q 1697 3084 1428 2787 
Q 1159 2491 1159 1978 
L 1159 0 
L 581 0 
L 581 4863 
L 1159 4863 
L 1159 2956 
Q 1366 3272 1645 3428 
Q 1925 3584 2291 3584 
Q 2894 3584 3203 3211 
Q 3513 2838 3513 2113 
z
" id="DejaVuSans-68" transform="scale(0.015625)"/>
      </defs>
      <use xlink:href="#DejaVuSans-45"/>
      <use x="63.183594" xlink:href="#DejaVuSans-70"/>
      <use x="126.660156" xlink:href="#DejaVuSans-6f"/>
      <use x="187.841797" xlink:href="#DejaVuSans-63"/>
      <use x="242.822266" xlink:href="#DejaVuSans-68"/>
     </g>
    </g>
   </g>
   <g id="matplotlib.axis_2">
    <g id="ytick_1">
     <g id="line2d_9">
      <defs>
       <path d="M 0 0 
L -3.5 0 
" id="m27998ce8eb" style="stroke:#000000;stroke-width:0.8;"/>
      </defs>
      <g>
       <use style="stroke:#000000;stroke-width:0.8;" x="57.6" xlink:href="#m27998ce8eb" y="307.584"/>
      </g>
     </g>
     <g id="text_10">
      <!-- 0.0 -->
      <g transform="translate(34.696875 311.383219)scale(0.1 -0.1)">
       <defs>
        <path d="M 684 794 
L 1344 794 
L 1344 0 
L 684 0 
L 684 794 
z
" id="DejaVuSans-2e" transform="scale(0.015625)"/>
       </defs>
       <use xlink:href="#DejaVuSans-30"/>
       <use x="63.623047" xlink:href="#DejaVuSans-2e"/>
       <use x="95.410156" xlink:href="#DejaVuSans-30"/>
      </g>
     </g>
    </g>
    <g id="ytick_2">
     <g id="line2d_10">
      <g>
       <use style="stroke:#000000;stroke-width:0.8;" x="57.6" xlink:href="#m27998ce8eb" y="254.3616"/>
      </g>
     </g>
     <g id="text_11">
      <!-- 0.2 -->
      <g transform="translate(34.696875 258.160819)scale(0.1 -0.1)">
       <use xlink:href="#DejaVuSans-30"/>
       <use x="63.623047" xlink:href="#DejaVuSans-2e"/>
       <use x="95.410156" xlink:href="#DejaVuSans-32"/>
      </g>
     </g>
    </g>
    <g id="ytick_3">
     <g id="line2d_11">
      <g>
       <use style="stroke:#000000;stroke-width:0.8;" x="57.6" xlink:href="#m27998ce8eb" y="201.1392"/>
      </g>
     </g>
     <g id="text_12">
      <!-- 0.4 -->
      <g transform="translate(34.696875 204.938419)scale(0.1 -0.1)">
       <use xlink:href="#DejaVuSans-30"/>
       <use x="63.623047" xlink:href="#DejaVuSans-2e"/>
       <use x="95.410156" xlink:href="#DejaVuSans-34"/>
      </g>
     </g>
    </g>
    <g id="ytick_4">
     <g id="line2d_12">
      <g>
       <use style="stroke:#000000;stroke-width:0.8;" x="57.6" xlink:href="#m27998ce8eb" y="147.9168"/>
      </g>
     </g>
     <g id="text_13">
      <!-- 0.6 -->
      <g transform="translate(34.696875 151.716019)scale(0.1 -0.1)">
       <use xlink:href="#DejaVuSans-30"/>
       <use x="63.623047" xlink:href="#DejaVuSans-2e"/>
       <use x="95.410156" xlink:href="#DejaVuSans-36"/>
      </g>
     </g>
    </g>
    <g id="ytick_5">
     <g id="line2d_13">
      <g>
       <use style="stroke:#000000;stroke-width:0.8;" x="57.6" xlink:href="#m27998ce8eb" y="94.6944"/>
      </g>
     </g>
     <g id="text_14">
      <!-- 0.8 -->
      <g transform="translate(34.696875 98.493619)scale(0.1 -0.1)">
       <defs>
        <path d="M 2034 2216 
Q 1584 2216 1326 1975 
Q 1069 1734 1069 1313 
Q 1069 891 1326 650 
Q 1584 409 2034 409 
Q 2484 409 2743 651 
Q 3003 894 3003 1313 
Q 3003 1734 2745 1975 
Q 2488 2216 2034 2216 
z
M 1403 2484 
Q 997 2584 770 2862 
Q 544 3141 544 3541 
Q 544 4100 942 4425 
Q 1341 4750 2034 4750 
Q 2731 4750 3128 4425 
Q 3525 4100 3525 3541 
Q 3525 3141 3298 2862 
Q 3072 2584 2669 2484 
Q 3125 2378 3379 2068 
Q 3634 1759 3634 1313 
Q 3634 634 3220 271 
Q 2806 -91 2034 -91 
Q 1263 -91 848 271 
Q 434 634 434 1313 
Q 434 1759 690 2068 
Q 947 2378 1403 2484 
z
M 1172 3481 
Q 1172 3119 1398 2916 
Q 1625 2713 2034 2713 
Q 2441 2713 2670 2916 
Q 2900 3119 2900 3481 
Q 2900 3844 2670 4047 
Q 2441 4250 2034 4250 
Q 1625 4250 1398 4047 
Q 1172 3844 1172 3481 
z
" id="DejaVuSans-38" transform="scale(0.015625)"/>
       </defs>
       <use xlink:href="#DejaVuSans-30"/>
       <use x="63.623047" xlink:href="#DejaVuSans-2e"/>
       <use x="95.410156" xlink:href="#DejaVuSans-38"/>
      </g>
     </g>
    </g>
    <g id="ytick_6">
     <g id="line2d_14">
      <g>
       <use style="stroke:#000000;stroke-width:0.8;" x="57.6" xlink:href="#m27998ce8eb" y="41.472"/>
      </g>
     </g>
     <g id="text_15">
      <!-- 1.0 -->
      <g transform="translate(34.696875 45.271219)scale(0.1 -0.1)">
       <use xlink:href="#DejaVuSans-31"/>
       <use x="63.623047" xlink:href="#DejaVuSans-2e"/>
       <use x="95.410156" xlink:href="#DejaVuSans-30"/>
      </g>
     </g>
    </g>
    <g id="text_16">
     <!-- Accuracy -->
     <g transform="translate(27.577344 208.770187)rotate(-90)scale(0.15 -0.15)">
      <defs>
       <path d="M 2188 4044 
L 1331 1722 
L 3047 1722 
L 2188 4044 
z
M 1831 4666 
L 2547 4666 
L 4325 0 
L 3669 0 
L 3244 1197 
L 1141 1197 
L 716 0 
L 50 0 
L 1831 4666 
z
" id="DejaVuSans-41" transform="scale(0.015625)"/>
       <path d="M 544 1381 
L 544 3500 
L 1119 3500 
L 1119 1403 
Q 1119 906 1312 657 
Q 1506 409 1894 409 
Q 2359 409 2629 706 
Q 2900 1003 2900 1516 
L 2900 3500 
L 3475 3500 
L 3475 0 
L 2900 0 
L 2900 538 
Q 2691 219 2414 64 
Q 2138 -91 1772 -91 
Q 1169 -91 856 284 
Q 544 659 544 1381 
z
M 1991 3584 
L 1991 3584 
z
" id="DejaVuSans-75" transform="scale(0.015625)"/>
       <path d="M 2631 2963 
Q 2534 3019 2420 3045 
Q 2306 3072 2169 3072 
Q 1681 3072 1420 2755 
Q 1159 2438 1159 1844 
L 1159 0 
L 581 0 
L 581 3500 
L 1159 3500 
L 1159 2956 
Q 1341 3275 1631 3429 
Q 1922 3584 2338 3584 
Q 2397 3584 2469 3576 
Q 2541 3569 2628 3553 
L 2631 2963 
z
" id="DejaVuSans-72" transform="scale(0.015625)"/>
       <path d="M 2194 1759 
Q 1497 1759 1228 1600 
Q 959 1441 959 1056 
Q 959 750 1161 570 
Q 1363 391 1709 391 
Q 2188 391 2477 730 
Q 2766 1069 2766 1631 
L 2766 1759 
L 2194 1759 
z
M 3341 1997 
L 3341 0 
L 2766 0 
L 2766 531 
Q 2569 213 2275 61 
Q 1981 -91 1556 -91 
Q 1019 -91 701 211 
Q 384 513 384 1019 
Q 384 1609 779 1909 
Q 1175 2209 1959 2209 
L 2766 2209 
L 2766 2266 
Q 2766 2663 2505 2880 
Q 2244 3097 1772 3097 
Q 1472 3097 1187 3025 
Q 903 2953 641 2809 
L 641 3341 
Q 956 3463 1253 3523 
Q 1550 3584 1831 3584 
Q 2591 3584 2966 3190 
Q 3341 2797 3341 1997 
z
" id="DejaVuSans-61" transform="scale(0.015625)"/>
       <path d="M 2059 -325 
Q 1816 -950 1584 -1140 
Q 1353 -1331 966 -1331 
L 506 -1331 
L 506 -850 
L 844 -850 
Q 1081 -850 1212 -737 
Q 1344 -625 1503 -206 
L 1606 56 
L 191 3500 
L 800 3500 
L 1894 763 
L 2988 3500 
L 3597 3500 
L 2059 -325 
z
" id="DejaVuSans-79" transform="scale(0.015625)"/>
      </defs>
      <use xlink:href="#DejaVuSans-41"/>
      <use x="66.658203" xlink:href="#DejaVuSans-63"/>
      <use x="121.638672" xlink:href="#DejaVuSans-63"/>
      <use x="176.619141" xlink:href="#DejaVuSans-75"/>
      <use x="239.998047" xlink:href="#DejaVuSans-72"/>
      <use x="281.111328" xlink:href="#DejaVuSans-61"/>
      <use x="342.390625" xlink:href="#DejaVuSans-63"/>
      <use x="397.371094" xlink:href="#DejaVuSans-79"/>
     </g>
    </g>
   </g>
   <g id="line2d_15">
    <path clip-path="url(#p05ec0df7d6)" d="M 73.832727 281.904192 
L 74.297183 280.9728 
L 74.761639 280.9728 
L 75.226094 280.839744 
L 75.69055 282.037248 
L 76.155006 281.238912 
L 76.619462 281.371968 
L 77.083917 281.371968 
L 77.548373 282.569472 
L 78.012829 282.436416 
L 78.477284 280.440576 
L 78.94174 277.779456 
L 79.406196 279.110016 
L 79.870652 279.908352 
L 80.335107 278.843904 
L 80.799563 282.037248 
L 81.264019 279.110016 
L 81.728474 280.440576 
L 82.657386 276.31584 
L 83.121842 279.243072 
L 83.586297 277.6464 
L 84.050753 276.448896 
L 84.515209 278.444736 
L 84.979664 276.31584 
L 85.44412 277.114176 
L 85.908576 279.64224 
L 86.373032 277.380288 
L 86.837487 278.178624 
L 87.301943 277.247232 
L 87.766399 275.783616 
L 88.230854 274.98528 
L 88.69531 276.182784 
L 89.159766 277.779456 
L 90.088677 278.843904 
L 91.017589 275.251392 
L 91.482044 276.182784 
L 91.9465 275.384448 
L 92.410956 276.31584 
L 92.875412 276.715008 
L 93.339867 274.719168 
L 93.804323 276.581952 
L 94.733234 273.920832 
L 95.19769 276.182784 
L 95.662146 274.586112 
L 96.126602 273.787776 
L 96.591057 275.65056 
L 97.055513 274.186944 
L 97.519969 273.920832 
L 97.984425 272.32416 
L 98.44888 274.852224 
L 98.913336 272.32416 
L 99.377792 274.053888 
L 99.842247 271.259712 
L 100.306703 272.32416 
L 100.771159 274.586112 
L 101.235615 271.392768 
L 101.70007 272.058048 
L 102.164526 271.392768 
L 102.628982 268.864704 
L 103.093437 269.66304 
L 103.557893 268.33248 
L 104.022349 270.727488 
L 104.486805 268.066368 
L 104.95126 268.598592 
L 105.415716 267.401088 
L 105.880172 266.868864 
L 106.344627 266.868864 
L 106.809083 265.67136 
L 107.273539 266.33664 
L 107.737995 264.606912 
L 108.20245 264.3408 
L 109.131362 261.812736 
L 109.595817 264.074688 
L 110.524729 261.945792 
L 110.989185 262.611072 
L 111.45364 264.3408 
L 111.918096 259.284672 
L 112.382552 259.949952 
L 112.847007 261.280512 
L 113.311463 259.151616 
L 113.775919 259.01856 
L 114.70483 259.01856 
L 115.169286 259.949952 
L 115.633742 256.490496 
L 116.098197 260.615232 
L 116.562653 257.155776 
L 117.027109 256.889664 
L 117.491565 254.3616 
L 117.95602 256.623552 
L 118.420476 256.091328 
L 118.884932 258.35328 
L 119.349387 257.554944 
L 119.813843 254.228544 
L 120.278299 256.091328 
L 120.742755 254.627712 
L 121.20721 254.893824 
L 121.671666 251.567424 
L 122.136122 253.03104 
L 122.600577 256.091328 
L 123.065033 253.69632 
L 123.529489 254.3616 
L 123.993945 258.087168 
L 124.4584 252.498816 
L 124.922856 254.3616 
L 125.387312 253.430208 
L 125.851767 256.224384 
L 126.316223 250.636032 
L 126.780679 252.232704 
L 127.245135 253.03104 
L 127.70959 249.837696 
L 128.174046 252.232704 
L 128.638502 250.236864 
L 129.102957 249.172416 
L 129.567413 249.438528 
L 130.031869 253.962432 
L 130.496325 251.833536 
L 131.425236 244.515456 
L 131.889692 243.983232 
L 132.354147 244.116288 
L 132.818603 243.983232 
L 133.283059 237.330432 
L 133.747515 237.330432 
L 134.21197 238.128768 
L 134.676426 237.7296 
L 135.140882 236.39904 
L 135.605337 233.338752 
L 136.069793 235.866816 
L 136.534249 231.609024 
L 136.998705 233.73792 
L 137.46316 227.883456 
L 137.927616 229.879296 
L 138.392072 226.952064 
L 138.856528 229.74624 
L 139.320983 228.149568 
L 140.249895 220.698432 
L 140.71435 216.307584 
L 141.178806 213.77952 
L 141.643262 218.702592 
L 142.107718 211.251456 
L 142.572173 214.710912 
L 143.501085 211.384512 
L 143.96554 205.929216 
L 144.429996 205.530048 
L 144.894452 210.985344 
L 145.358908 202.868928 
L 145.823363 203.667264 
L 146.287819 199.409472 
L 146.752275 198.744192 
L 147.21673 198.744192 
L 148.145642 191.958336 
L 148.610098 194.4864 
L 149.074553 191.958336 
L 149.539009 194.353344 
L 150.003465 193.288896 
L 150.932376 183.17664 
L 151.396832 182.910528 
L 151.861288 182.51136 
L 152.790199 179.318016 
L 153.254655 173.330496 
L 153.71911 176.789952 
L 154.183566 178.386624 
L 154.648022 173.463552 
L 155.112478 173.064384 
L 155.576933 177.322176 
L 156.041389 171.068544 
L 156.505845 163.21824 
L 156.9703 162.819072 
L 157.434756 171.068544 
L 157.899212 169.072704 
L 158.363668 163.085184 
L 158.828123 169.338816 
L 159.292579 156.964608 
L 159.757035 168.54048 
L 160.22149 159.093504 
L 160.685946 162.153792 
L 161.614858 158.827392 
L 162.079313 160.291008 
L 162.543769 160.024896 
L 163.008225 150.311808 
L 163.47268 157.23072 
L 163.937136 149.646528 
L 164.401592 148.981248 
L 164.866048 147.25152 
L 165.330503 153.23904 
L 165.794959 150.178752 
L 166.259415 152.839872 
L 166.72387 152.706816 
L 167.188326 151.642368 
L 167.652782 145.92096 
L 168.117238 151.509312 
L 168.581693 145.787904 
L 169.046149 152.174592 
L 169.510605 142.993728 
L 169.97506 139.667328 
L 170.439516 152.972928 
L 170.903972 140.997888 
L 171.368428 143.25984 
L 171.832883 142.062336 
L 172.297339 140.332608 
L 172.761795 135.542592 
L 173.22625 146.852352 
L 174.155162 124.232832 
L 174.619618 138.868992 
L 175.084073 137.405376 
L 175.548529 137.405376 
L 176.012985 133.812864 
L 176.47744 134.345088 
L 176.941896 135.27648 
L 177.406352 132.61536 
L 177.870808 128.091456 
L 178.335263 126.760896 
L 178.799719 131.683968 
L 179.264175 134.877312 
L 179.728631 131.2848 
L 180.193086 125.164224 
L 180.657542 132.482304 
L 181.121998 125.829504 
L 181.586453 127.9584 
L 182.050909 127.29312 
L 182.515365 123.833664 
L 182.979821 130.752576 
L 183.444276 130.752576 
L 183.908732 131.95008 
L 184.373188 119.442816 
L 184.837643 124.765056 
L 185.302099 121.571712 
L 185.766555 125.696448 
L 186.231011 115.451136 
L 186.695466 125.031168 
L 187.159922 121.837824 
L 187.624378 119.442816 
L 188.088833 123.035328 
L 188.553289 124.765056 
L 189.017745 120.906432 
L 189.482201 126.095616 
L 190.411112 117.047808 
L 190.875568 112.790016 
L 191.340023 116.249472 
L 191.804479 122.503104 
L 192.268935 118.511424 
L 192.733391 121.438656 
L 193.197846 117.047808 
L 193.662302 122.236992 
L 194.126758 115.051968 
L 194.591213 120.108096 
L 195.055669 115.850304 
L 195.520125 114.519744 
L 195.984581 114.785856 
L 196.449036 121.571712 
L 196.913492 108.532224 
L 197.842403 117.31392 
L 198.306859 111.99168 
L 198.771315 110.927232 
L 199.235771 114.785856 
L 199.700226 114.6528 
L 200.164682 113.854464 
L 200.629138 116.515584 
L 201.093593 112.124736 
L 201.558049 108.798336 
L 202.022505 109.463616 
L 202.486961 107.733888 
L 202.951416 111.060288 
L 203.415872 115.717248 
L 203.880328 109.729728 
L 204.344783 111.858624 
L 204.809239 113.189184 
L 205.273695 109.862784 
L 205.738151 105.471936 
L 206.202606 108.133056 
L 207.131518 109.99584 
L 207.595973 109.99584 
L 208.060429 96.956352 
L 208.524885 102.411648 
L 208.989341 106.00416 
L 209.453796 110.794176 
L 209.918252 110.261952 
L 210.382708 103.209984 
L 210.847163 113.056128 
L 211.311619 111.592512 
L 211.776075 104.806656 
L 212.240531 111.459456 
L 212.704986 103.209984 
L 213.169442 111.193344 
L 213.633898 113.588352 
L 214.098353 102.544704 
L 214.562809 105.738048 
L 215.027265 104.806656 
L 215.491721 104.806656 
L 215.956176 103.34304 
L 216.420632 103.742208 
L 216.885088 103.209984 
L 217.349544 108.532224 
L 217.813999 97.488576 
L 218.278455 99.750528 
L 218.742911 104.6736 
L 219.207366 100.68192 
L 219.671822 104.141376 
L 220.136278 103.742208 
L 220.600734 99.750528 
L 221.065189 104.806656 
L 221.529645 94.561344 
L 221.994101 100.149696 
L 222.923012 103.875264 
L 223.387468 108 
L 223.851924 104.939712 
L 224.316379 103.742208 
L 224.780835 99.35136 
L 225.245291 97.35552 
L 225.709746 99.750528 
L 226.174202 92.69856 
L 226.638658 98.0208 
L 227.103114 106.00416 
L 227.567569 108.532224 
L 228.496481 97.222464 
L 228.960936 100.01664 
L 229.425392 105.738048 
L 229.889848 101.480256 
L 230.354304 100.282752 
L 230.818759 97.35552 
L 231.283215 97.222464 
L 231.747671 101.480256 
L 232.212126 98.952192 
L 232.676582 94.162176 
L 233.141038 98.419968 
L 233.605494 97.488576 
L 234.069949 96.823296 
L 234.534405 98.819136 
L 234.998861 101.3472 
L 235.463316 88.573824 
L 235.927772 96.956352 
L 236.392228 94.6944 
L 236.856684 108.931392 
L 237.321139 95.093568 
L 237.785595 92.831616 
L 238.250051 98.0208 
L 238.714506 92.964672 
L 239.178962 95.758848 
L 239.643418 96.557184 
L 240.572329 98.68608 
L 241.036785 93.763008 
L 241.501241 95.35968 
L 242.430152 88.174656 
L 242.894608 96.956352 
L 243.359064 91.634112 
L 243.823519 103.076928 
L 244.287975 92.166336 
L 244.752431 93.36384 
L 245.216886 92.432448 
L 245.681342 94.561344 
L 246.145798 95.625792 
L 246.610254 90.70272 
L 247.539165 89.771328 
L 248.003621 99.085248 
L 248.468076 93.36384 
L 248.932532 91.501056 
L 249.396988 92.166336 
L 249.861444 91.767168 
L 250.325899 97.35552 
L 250.790355 89.638272 
L 251.254811 101.879424 
L 251.719266 104.00832 
L 252.183722 96.69024 
L 252.648178 93.629952 
L 253.112634 88.573824 
L 253.577089 99.617472 
L 254.041545 94.428288 
L 254.506001 92.432448 
L 254.970456 88.307712 
L 255.434912 92.432448 
L 255.899368 93.496896 
L 256.363824 88.440768 
L 256.828279 90.03744 
L 257.292735 86.444928 
L 257.757191 85.646592 
L 258.221647 93.496896 
L 258.686102 92.964672 
L 259.150558 94.02912 
L 259.615014 91.501056 
L 260.079469 86.04576 
L 260.543925 89.106048 
L 261.008381 84.182976 
L 261.472837 96.424128 
L 261.937292 89.505216 
L 262.401748 86.444928 
L 262.866204 90.03744 
L 263.330659 84.582144 
L 263.795115 89.106048 
L 264.259571 95.093568 
L 264.724027 82.985472 
L 265.188482 83.650752 
L 266.117394 92.831616 
L 266.581849 90.70272 
L 267.046305 88.0416 
L 267.510761 93.097728 
L 267.975217 84.981312 
L 268.439672 85.646592 
L 269.833039 86.844096 
L 270.297495 95.625792 
L 270.761951 86.444928 
L 271.226407 90.569664 
L 271.690862 88.972992 
L 272.155318 80.05824 
L 272.619774 85.38048 
L 273.084229 87.243264 
L 273.548685 91.634112 
L 274.013141 97.089408 
L 274.477597 89.638272 
L 274.942052 89.239104 
L 275.870964 79.39296 
L 276.335419 79.259904 
L 276.799875 89.771328 
L 277.264331 96.02496 
L 277.728787 92.964672 
L 278.193242 87.37632 
L 278.657698 92.565504 
L 279.122154 85.646592 
L 279.586609 86.444928 
L 280.051065 91.900224 
L 280.515521 93.230784 
L 280.979977 86.844096 
L 281.444432 93.496896 
L 281.908888 92.831616 
L 282.373344 84.316032 
L 282.837799 89.239104 
L 283.302255 87.775488 
L 283.766711 83.38464 
L 284.231167 85.646592 
L 284.695622 84.582144 
L 285.160078 84.449088 
L 285.624534 84.182976 
L 286.088989 88.839936 
L 286.553445 84.582144 
L 287.017901 86.444928 
L 287.482357 87.37632 
L 287.946812 89.239104 
L 288.411268 85.247424 
L 288.875724 87.37632 
L 289.340179 80.856576 
L 289.804635 91.101888 
L 290.269091 88.70688 
L 290.733547 83.783808 
L 291.198002 81.921024 
L 291.662458 81.521856 
L 292.126914 89.904384 
L 292.591369 90.70272 
L 293.520281 83.118528 
L 293.984737 91.634112 
L 294.449192 89.638272 
L 294.913648 84.182976 
L 295.378104 90.569664 
L 295.84256 84.182976 
L 296.307015 84.981312 
L 296.771471 84.848256 
L 297.235927 89.505216 
L 297.700382 79.792128 
L 298.164838 80.324352 
L 298.629294 85.646592 
L 299.09375 84.7152 
L 299.558205 84.848256 
L 300.022661 87.110208 
L 300.487117 85.38048 
L 300.951572 89.37216 
L 301.880484 90.170496 
L 302.34494 85.247424 
L 302.809395 88.839936 
L 303.738307 82.05408 
L 304.202762 85.38048 
L 304.667218 83.251584 
L 305.131674 93.097728 
L 305.59613 83.650752 
L 306.060585 88.972992 
L 306.525041 84.449088 
L 306.989497 78.72768 
L 307.453952 85.38048 
L 307.918408 80.989632 
L 308.382864 74.736 
L 308.84732 82.453248 
L 309.311775 81.255744 
L 309.776231 83.783808 
L 310.240687 87.37632 
L 310.705142 85.38048 
L 311.169598 79.925184 
L 311.634054 83.118528 
L 312.09851 80.989632 
L 312.562965 88.174656 
L 313.027421 88.0416 
L 313.491877 83.38464 
L 313.956332 80.05824 
L 314.420788 86.71104 
L 314.885244 85.114368 
L 315.3497 79.792128 
L 315.814155 87.775488 
L 316.743067 86.178816 
L 317.207522 86.04576 
L 317.671978 83.916864 
L 318.136434 78.993792 
L 318.60089 87.110208 
L 319.065345 84.848256 
L 319.529801 78.0624 
L 319.994257 86.311872 
L 320.458712 84.582144 
L 320.923168 83.650752 
L 321.387624 87.908544 
L 321.85208 87.110208 
L 322.316535 84.7152 
L 322.780991 83.783808 
L 323.245447 77.663232 
L 323.709902 82.453248 
L 324.174358 82.852416 
L 324.638814 81.787968 
L 325.10327 78.461568 
L 325.567725 86.178816 
L 326.032181 85.646592 
L 326.496637 80.989632 
L 326.961092 81.3888 
L 327.425548 82.320192 
L 328.35446 74.602944 
L 328.818915 81.921024 
L 329.283371 80.457408 
L 329.747827 76.864896 
L 330.212282 82.187136 
L 330.676738 81.255744 
L 331.141194 77.39712 
L 331.60565 87.37632 
L 332.070105 85.779648 
L 332.534561 75.268224 
L 332.999017 80.856576 
L 333.463472 75.933504 
L 333.927928 85.912704 
L 334.392384 79.526016 
L 334.85684 80.856576 
L 335.321295 77.264064 
L 335.785751 79.925184 
L 336.250207 77.530176 
L 337.179118 84.316032 
L 337.643574 80.856576 
L 338.10803 83.38464 
L 338.572485 74.07072 
L 339.036941 76.997952 
L 339.501397 76.598784 
L 339.965853 79.526016 
L 340.430308 79.792128 
L 340.894764 75.933504 
L 341.35922 76.73184 
L 341.823675 83.38464 
L 342.288131 80.457408 
L 342.752587 76.73184 
L 343.217043 77.39712 
L 343.681498 79.925184 
L 344.145954 88.70688 
L 344.61041 80.05824 
L 345.074865 76.864896 
L 345.539321 76.465728 
L 346.003777 87.642432 
L 346.468233 82.71936 
L 346.932688 80.989632 
L 347.397144 85.247424 
L 347.8616 72.207936 
L 348.326055 78.328512 
L 348.790511 79.925184 
L 349.254967 85.779648 
L 349.719423 81.255744 
L 350.183878 82.05408 
L 350.648334 80.191296 
L 351.11279 82.71936 
L 351.577245 77.929344 
L 352.041701 78.461568 
L 352.506157 86.04576 
L 352.970613 85.247424 
L 353.435068 80.324352 
L 353.899524 85.513536 
L 354.36398 77.264064 
L 354.828435 82.71936 
L 355.292891 74.869056 
L 355.757347 85.779648 
L 356.221803 79.39296 
L 356.686258 82.852416 
L 357.150714 79.526016 
L 357.61517 82.320192 
L 358.079625 77.929344 
L 358.544081 76.199616 
L 359.008537 80.457408 
L 359.472993 79.126848 
L 359.937448 77.131008 
L 360.401904 80.05824 
L 360.86636 78.328512 
L 361.330815 81.3888 
L 361.795271 72.207936 
L 362.259727 80.457408 
L 362.724183 82.71936 
L 363.188638 78.72768 
L 363.653094 79.925184 
L 364.11755 78.72768 
L 364.582005 79.526016 
L 365.046461 79.259904 
L 365.510917 81.122688 
L 365.975373 81.3888 
L 366.439828 81.3888 
L 366.904284 80.457408 
L 367.36874 73.538496 
L 367.833195 89.106048 
L 368.297651 78.860736 
L 368.762107 78.0624 
L 369.226563 84.582144 
L 369.691018 77.39712 
L 370.155474 75.268224 
L 371.084385 82.320192 
L 371.548841 82.985472 
L 372.013297 80.457408 
L 372.477753 86.444928 
L 372.942208 80.324352 
L 373.406664 84.04992 
L 373.87112 85.114368 
L 374.335575 81.921024 
L 374.800031 73.804608 
L 375.264487 75.268224 
L 375.728943 82.187136 
L 376.193398 83.517696 
L 376.657854 84.316032 
L 377.12231 75.534336 
L 378.051221 75.268224 
L 378.515677 75.667392 
L 378.980133 82.852416 
L 379.444588 74.07072 
L 379.909044 77.929344 
L 380.3735 80.457408 
L 380.837956 80.191296 
L 381.302411 72.873216 
L 381.766867 83.251584 
L 382.695778 69.41376 
L 383.160234 75.534336 
L 383.62469 75.933504 
L 384.089146 74.602944 
L 384.553601 69.945984 
L 385.018057 72.474048 
L 385.482513 76.864896 
L 385.946968 84.316032 
L 386.87588 75.002112 
L 387.340336 82.453248 
L 387.804791 78.72768 
L 388.269247 76.73184 
L 388.733703 78.461568 
L 389.198158 79.126848 
L 389.662614 82.852416 
L 390.12707 78.72768 
L 390.591526 72.873216 
L 391.055981 78.0624 
L 391.520437 81.521856 
L 391.984893 74.869056 
L 392.449348 86.844096 
L 392.913804 78.461568 
L 393.37826 73.272384 
L 393.842716 76.864896 
L 394.307171 72.207936 
L 394.771627 74.336832 
L 395.236083 81.255744 
L 395.700538 80.457408 
L 396.164994 77.264064 
L 396.62945 83.650752 
L 397.093906 80.989632 
L 397.558361 83.118528 
L 398.022817 80.324352 
L 398.487273 78.860736 
L 398.487273 78.860736 
" style="fill:none;stroke:#1f77b4;stroke-linecap:square;stroke-width:1.5;"/>
   </g>
   <g id="line2d_16">
    <path clip-path="url(#p05ec0df7d6)" d="M 73.832727 289.458162 
L 74.761639 289.476324 
L 75.226094 288.840649 
L 75.69055 289.058595 
L 76.155006 288.731676 
L 76.619462 284.409081 
L 77.083917 284.100324 
L 77.548373 285.389838 
L 78.012829 282.647351 
L 78.477284 283.373838 
L 78.94174 282.502054 
L 79.406196 281.993514 
L 79.870652 281.103568 
L 80.335107 280.722162 
L 80.799563 278.94227 
L 81.264019 278.379243 
L 81.728474 274.855784 
L 82.19293 268.644324 
L 82.657386 269.152865 
L 83.121842 270.060973 
L 83.586297 268.499027 
L 84.050753 272.004324 
L 84.515209 268.517189 
L 84.979664 274.528865 
L 85.44412 273.05773 
L 85.908576 270.860108 
L 86.373032 275.146378 
L 86.837487 274.692324 
L 87.301943 268.371892 
L 88.230854 280.486054 
L 88.69531 279.033081 
L 89.159766 273.439135 
L 89.624222 273.420973 
L 90.553133 265.50227 
L 91.017589 265.647568 
L 91.482044 265.302486 
L 91.9465 268.317405 
L 92.410956 266.537514 
L 92.875412 268.753297 
L 93.804323 266.156108 
L 94.268779 272.276757 
L 94.733234 271.223351 
L 95.19769 269.28 
L 95.662146 266.84627 
L 96.126602 270.805622 
L 96.591057 266.991568 
L 97.055513 267.027892 
L 97.519969 270.496865 
L 97.984425 270.387892 
L 98.44888 268.989405 
L 98.913336 263.522595 
L 99.377792 263.577081 
L 100.306703 272.531027 
L 100.771159 269.388973 
L 101.70007 274.310919 
L 102.164526 271.786378 
L 102.628982 270.151784 
L 103.093437 264.775784 
L 103.557893 264.121946 
L 104.022349 265.50227 
L 104.486805 263.522595 
L 104.95126 264.012973 
L 105.415716 262.941405 
L 105.880172 264.721297 
L 106.344627 269.643243 
L 106.809083 263.286486 
L 107.273539 262.015135 
L 107.737995 264.249081 
L 108.20245 258.237405 
L 108.666906 260.562162 
L 109.131362 261.452108 
L 109.595817 259.926486 
L 110.060273 259.45427 
L 110.524729 262.051459 
L 110.989185 257.529081 
L 111.45364 259.872 
L 111.918096 259.508757 
L 112.382552 261.960649 
L 112.847007 262.81427 
L 113.311463 260.671135 
L 113.775919 262.741622 
L 114.240375 258.219243 
L 114.70483 265.266162 
L 115.169286 257.892324 
L 115.633742 256.657297 
L 116.098197 253.678703 
L 116.562653 257.038703 
L 117.027109 254.732108 
L 117.491565 261.869838 
L 118.420476 254.387027 
L 118.884932 258.291892 
L 119.349387 257.983135 
L 119.813843 255.967135 
L 120.278299 254.532324 
L 120.742755 256.312216 
L 121.20721 255.694703 
L 121.671666 253.497081 
L 122.136122 257.238486 
L 122.600577 256.130595 
L 123.065033 251.916973 
L 123.529489 253.478919 
L 123.993945 252.153081 
L 124.4584 251.699027 
L 124.922856 262.160432 
L 125.387312 254.314378 
L 125.851767 249.519568 
L 126.316223 257.002378 
L 126.780679 254.804757 
L 127.245135 251.753514 
L 127.70959 251.771676 
L 128.174046 259.526919 
L 128.638502 252.262054 
L 129.102957 252.407351 
L 129.567413 250.427676 
L 130.031869 253.206486 
L 130.496325 246.377514 
L 130.96078 249.846486 
L 131.425236 246.17773 
L 131.889692 244.252541 
L 132.818603 248.647784 
L 133.283059 244.960865 
L 133.747515 247.085838 
L 134.21197 245.033514 
L 134.676426 243.889297 
L 135.140882 246.01427 
L 135.605337 241.909622 
L 136.069793 242.527135 
L 136.534249 243.562378 
L 136.998705 241.709838 
L 137.46316 239.003676 
L 137.927616 240.747243 
L 138.392072 244.488649 
L 138.856528 241.146811 
L 139.320983 242.981189 
L 139.785439 246.577297 
L 140.249895 235.734486 
L 140.71435 239.603027 
L 141.178806 242.272865 
L 141.643262 236.025081 
L 142.107718 231.430054 
L 142.572173 236.442811 
L 143.501085 226.253838 
L 143.96554 227.579676 
L 144.429996 233.100973 
L 144.894452 228.923676 
L 145.358908 226.126703 
L 145.823363 226.144865 
L 146.287819 222.058378 
L 146.752275 225.200432 
L 147.21673 222.330811 
L 147.681186 218.298811 
L 148.610098 226.707892 
L 149.074553 222.585081 
L 149.539009 227.089297 
L 150.003465 217.79027 
L 150.46792 217.517838 
L 150.932376 222.167351 
L 151.396832 220.332973 
L 151.861288 214.248649 
L 152.325743 221.604324 
L 152.790199 221.059459 
L 153.254655 210.779676 
L 153.71911 221.113946 
L 154.183566 222.984649 
L 154.648022 214.448432 
L 155.112478 213.504 
L 156.041389 205.766919 
L 156.505845 206.075676 
L 156.9703 214.248649 
L 157.434756 209.798919 
L 157.899212 215.483676 
L 158.363668 222.766703 
L 158.828123 213.812757 
L 159.292579 210.743351 
L 159.757035 210.144 
L 160.22149 214.212324 
L 160.685946 213.885405 
L 161.150402 204.023351 
L 161.614858 213.213405 
L 162.079313 208.164324 
L 162.543769 213.376865 
L 163.008225 211.015784 
L 163.47268 205.476324 
L 163.937136 207.964541 
L 164.401592 213.485838 
L 164.866048 211.705946 
L 165.330503 211.379027 
L 165.794959 210.816 
L 166.259415 203.351351 
L 166.72387 201.807568 
L 167.188326 211.142919 
L 167.652782 203.823568 
L 168.117238 208.200649 
L 168.581693 208.509405 
L 169.046149 202.515892 
L 169.510605 203.460324 
L 169.97506 206.929297 
L 170.439516 205.167568 
L 170.903972 209.817081 
L 171.368428 200.027676 
L 171.832883 200.972108 
L 172.297339 202.661189 
L 172.761795 212.686703 
L 173.22625 200.191135 
L 173.690706 209.798919 
L 174.155162 199.337514 
L 174.619618 215.211243 
L 175.084073 210.361946 
L 175.548529 202.661189 
L 176.012985 209.254054 
L 176.47744 198.792649 
L 176.941896 209.036108 
L 177.406352 201.208216 
L 177.870808 214.176 
L 178.335263 204.077838 
L 178.799719 199.246703 
L 179.264175 201.353514 
L 179.728631 200.445405 
L 180.193086 206.348108 
L 180.657542 207.474162 
L 181.121998 203.950703 
L 181.586453 196.722162 
L 182.050909 198.97427 
L 182.515365 199.628108 
L 182.979821 204.204973 
L 183.444276 213.376865 
L 183.908732 196.812973 
L 184.373188 198.647351 
L 184.837643 198.647351 
L 185.302099 197.884541 
L 186.231011 204.150486 
L 186.695466 196.140973 
L 187.159922 193.216865 
L 187.624378 201.262703 
L 188.088833 207.165405 
L 188.553289 201.934703 
L 189.017745 204.077838 
L 189.482201 197.721081 
L 189.946656 207.165405 
L 190.411112 197.12173 
L 190.875568 195.287351 
L 191.340023 197.030919 
L 191.804479 200.826811 
L 192.268935 200.499892 
L 192.733391 197.339676 
L 193.197846 195.523459 
L 193.662302 195.014919 
L 194.591213 208.055351 
L 195.055669 197.63027 
L 195.520125 198.97427 
L 195.984581 201.971027 
L 196.449036 198.919784 
L 196.913492 198.374919 
L 197.377948 191.509622 
L 197.842403 196.885622 
L 198.306859 195.832216 
L 198.771315 200.209297 
L 199.235771 197.539459 
L 199.700226 198.30227 
L 200.164682 202.406919 
L 200.629138 195.632432 
L 201.093593 190.91027 
L 202.022505 199.991351 
L 202.486961 196.776649 
L 202.951416 194.633514 
L 203.415872 196.722162 
L 203.880328 200.953946 
L 204.344783 196.704 
L 204.809239 197.975351 
L 205.273695 192 
L 205.738151 197.357838 
L 206.202606 195.069405 
L 206.667062 196.685838 
L 207.131518 193.344 
L 207.595973 197.811892 
L 208.060429 191.545946 
L 208.524885 191.509622 
L 208.989341 195.650595 
L 209.453796 196.140973 
L 209.918252 197.975351 
L 210.382708 186.787459 
L 210.847163 193.107892 
L 211.311619 194.633514 
L 211.776075 188.422054 
L 212.240531 188.058811 
L 212.704986 197.521297 
L 213.169442 191.564108 
L 213.633898 198.374919 
L 214.098353 198.102486 
L 214.562809 195.178378 
L 215.027265 200.917622 
L 215.491721 198.611027 
L 215.956176 198.247784 
L 216.420632 196.613189 
L 216.885088 190.710486 
L 217.349544 187.423135 
L 217.813999 193.652757 
L 218.278455 188.422054 
L 218.742911 198.30227 
L 219.671822 188.313081 
L 220.136278 186.660324 
L 220.600734 189.875027 
L 221.065189 188.185946 
L 221.529645 185.661405 
L 221.994101 194.034162 
L 222.458556 193.144216 
L 222.923012 193.325838 
L 223.387468 191.909189 
L 223.851924 191.473297 
L 224.316379 192.92627 
L 224.780835 196.304432 
L 225.245291 191.328 
L 225.709746 189.675243 
L 226.174202 190.220108 
L 226.638658 193.525622 
L 227.103114 192.399568 
L 227.567569 190.928432 
L 228.032025 193.271351 
L 228.496481 192.708324 
L 228.960936 191.909189 
L 229.425392 188.167784 
L 229.889848 198.556541 
L 230.354304 188.058811 
L 231.283215 195.959351 
L 231.747671 186.969081 
L 232.212126 190.873946 
L 232.676582 187.895351 
L 233.141038 191.219027 
L 233.605494 191.418811 
L 234.069949 196.249946 
L 234.534405 195.959351 
L 234.998861 194.579027 
L 235.463316 183.027892 
L 235.927772 180.957405 
L 236.392228 189.003243 
L 236.856684 192.799135 
L 237.321139 194.052324 
L 237.785595 185.843027 
L 238.250051 184.281081 
L 238.714506 188.004324 
L 239.178962 189.711568 
L 239.643418 187.641081 
L 240.107874 184.099459 
L 240.572329 188.531027 
L 241.036785 186.36973 
L 241.501241 190.129297 
L 241.965696 189.457297 
L 242.430152 187.223351 
L 242.894608 186.278919 
L 243.823519 194.778811 
L 244.287975 186.769297 
L 244.752431 189.402811 
L 245.216886 185.643243 
L 245.681342 192.199784 
L 246.145798 193.616432 
L 246.610254 188.258595 
L 247.074709 189.529946 
L 247.539165 188.258595 
L 248.003621 192.345081 
L 248.468076 192.018162 
L 248.932532 190.111135 
L 249.396988 185.28 
L 249.861444 182.501189 
L 250.325899 192 
L 250.790355 184.898595 
L 251.254811 187.332324 
L 251.719266 184.680649 
L 252.183722 191.691243 
L 253.112634 187.441297 
L 253.577089 190.746811 
L 254.041545 188.113297 
L 254.506001 188.331243 
L 254.970456 195.123892 
L 255.434912 183.118703 
L 255.899368 186.024649 
L 256.363824 185.425297 
L 256.828279 188.531027 
L 257.292735 186.805622 
L 257.757191 188.095135 
L 258.221647 188.531027 
L 258.686102 183.808865 
L 259.150558 184.698811 
L 259.615014 190.274595 
L 260.079469 188.712649 
L 260.543925 179.758703 
L 261.008381 181.865514 
L 261.472837 179.976649 
L 261.937292 185.970162 
L 262.401748 188.440216 
L 262.866204 182.991568 
L 263.330659 184.208432 
L 263.795115 190.565189 
L 264.259571 187.949838 
L 264.724027 186.024649 
L 265.188482 185.734054 
L 265.652938 187.078054 
L 266.117394 181.193514 
L 266.581849 179.540757 
L 267.046305 183.282162 
L 267.510761 190.764973 
L 267.975217 187.332324 
L 268.439672 181.393297 
L 268.904128 185.497946 
L 269.368584 181.266162 
L 269.833039 188.985081 
L 270.297495 182.646486 
L 270.761951 181.938162 
L 271.226407 188.658162 
L 271.690862 184.517189 
L 272.155318 181.774703 
L 272.619774 181.756541 
L 273.084229 187.096216 
L 273.548685 181.393297 
L 274.013141 183.572757 
L 274.477597 183.845189 
L 274.942052 181.011892 
L 275.406508 180.775784 
L 276.335419 191.091892 
L 276.799875 184.571676 
L 277.264331 185.752216 
L 277.728787 178.087784 
L 278.193242 179.558919 
L 278.657698 179.686054 
L 279.122154 182.374054 
L 279.586609 186.060973 
L 280.051065 181.829189 
L 280.515521 183.917838 
L 280.979977 184.971243 
L 281.444432 183.754378 
L 281.908888 181.938162 
L 282.373344 178.886919 
L 282.837799 178.832432 
L 283.302255 179.068541 
L 283.766711 184.371892 
L 284.231167 183.863351 
L 284.695622 179.558919 
L 285.160078 178.578162 
L 285.624534 184.426378 
L 286.088989 176.344216 
L 286.553445 188.531027 
L 287.017901 180.085622 
L 287.482357 186.787459 
L 287.946812 180.067459 
L 288.411268 189.366486 
L 288.875724 177.615568 
L 289.340179 185.588757 
L 289.804635 180.775784 
L 290.269091 180.83027 
L 290.733547 183.463784 
L 291.198002 180.957405 
L 291.662458 186.696649 
L 292.126914 182.283243 
L 292.591369 185.643243 
L 293.055825 185.788541 
L 293.520281 176.834595 
L 293.984737 184.063135 
L 294.449192 181.484108 
L 294.913648 184.19027 
L 295.378104 180.394378 
L 295.84256 184.19027 
L 296.307015 182.301405 
L 296.771471 179.268324 
L 297.235927 182.573838 
L 297.700382 178.650811 
L 298.164838 186.424216 
L 299.09375 181.520432 
L 299.558205 189.366486 
L 300.022661 173.892324 
L 300.487117 176.743784 
L 300.951572 176.28973 
L 301.416028 180.612324 
L 301.880484 187.441297 
L 302.34494 177.651892 
L 302.809395 180.721297 
L 303.273851 181.738378 
L 303.738307 186.714811 
L 304.202762 181.011892 
L 304.667218 178.796108 
L 305.131674 178.668973 
L 305.59613 182.137946 
L 306.060585 181.556757 
L 306.525041 192.871784 
L 306.989497 178.414703 
L 307.453952 177.125189 
L 307.918408 180.793946 
L 308.382864 176.743784 
L 309.311775 180.83027 
L 309.776231 180.485189 
L 310.240687 177.670054 
L 310.705142 178.087784 
L 311.169598 175.000216 
L 311.634054 180.339892 
L 312.09851 175.218162 
L 312.562965 181.193514 
L 313.027421 175.708541 
L 313.491877 178.868757 
L 313.956332 175.399784 
L 314.420788 179.032216 
L 314.885244 183.645405 
L 315.814155 175.763027 
L 316.278611 183.827027 
L 316.743067 181.647568 
L 317.207522 182.083459 
L 317.671978 181.702054 
L 318.136434 177.506595 
L 318.60089 189.856865 
L 319.065345 180.376216 
L 319.529801 182.301405 
L 320.458712 185.062054 
L 320.923168 175.962811 
L 321.387624 183.409297 
L 321.85208 178.868757 
L 322.316535 187.695568 
L 322.780991 176.943568 
L 323.245447 172.893405 
L 323.709902 180.467027 
L 324.174358 176.707459 
L 324.638814 182.33773 
L 325.10327 180.085622 
L 325.567725 176.162595 
L 326.032181 179.468108 
L 326.496637 180.194595 
L 326.961092 172.039784 
L 327.425548 176.162595 
L 327.890004 178.051459 
L 328.35446 173.347459 
L 328.818915 175.672216 
L 329.283371 177.088865 
L 329.747827 176.471351 
L 330.212282 176.12627 
L 330.676738 173.856 
L 331.141194 173.347459 
L 331.60565 175.799351 
L 332.070105 179.522595 
L 332.534561 176.870919 
L 332.999017 177.63373 
L 333.463472 179.431784 
L 333.927928 175.417946 
L 334.392384 174.400865 
L 334.85684 177.034378 
L 335.321295 173.964973 
L 335.785751 172.439351 
L 336.250207 175.163676 
L 336.714663 180.83027 
L 337.179118 178.105946 
L 337.643574 174.073946 
L 338.10803 176.053622 
L 338.572485 179.922162 
L 339.036941 174.636973 
L 339.501397 178.233081 
L 339.965853 187.495784 
L 340.430308 186.987243 
L 340.894764 175.581405 
L 341.35922 180.448865 
L 341.823675 176.925405 
L 342.288131 169.932973 
L 342.752587 179.159351 
L 343.217043 172.457514 
L 343.681498 173.928649 
L 344.145954 179.522595 
L 344.61041 174.727784 
L 345.074865 167.244973 
L 345.539321 183.699892 
L 346.003777 175.744865 
L 346.468233 176.96173 
L 346.932688 179.613405 
L 347.397144 178.941405 
L 347.8616 183.136865 
L 348.326055 176.344216 
L 348.790511 172.893405 
L 349.254967 178.56 
L 349.719423 178.777946 
L 350.183878 171.059027 
L 350.648334 173.202162 
L 351.11279 178.850595 
L 351.577245 175.908324 
L 352.041701 174.219243 
L 352.506157 177.379459 
L 352.970613 170.205405 
L 353.435068 177.706378 
L 353.899524 176.180757 
L 354.36398 177.978811 
L 354.828435 175.417946 
L 355.292891 177.978811 
L 355.757347 173.002378 
L 356.221803 173.674378 
L 356.686258 175.399784 
L 357.150714 181.320649 
L 357.61517 175.145514 
L 358.079625 176.180757 
L 358.544081 171.894486 
L 359.008537 173.492757 
L 359.472993 173.256649 
L 359.937448 177.869838 
L 360.401904 173.765189 
L 360.86636 178.196757 
L 361.330815 175.472432 
L 361.795271 179.268324 
L 362.259727 176.180757 
L 362.724183 172.203243 
L 363.653094 177.397622 
L 364.11755 182.809946 
L 364.582005 177.670054 
L 365.046461 170.114595 
L 365.510917 175.999135 
L 365.975373 174.128432 
L 366.439828 178.451027 
L 366.904284 172.639135 
L 367.36874 175.181838 
L 367.833195 176.780108 
L 368.297651 174.037622 
L 368.762107 176.907243 
L 369.226563 173.583568 
L 369.691018 173.383784 
L 370.155474 172.947892 
L 370.61993 174.27373 
L 371.084385 172.185081 
L 371.548841 171.42227 
L 372.013297 175.508757 
L 372.477753 174.164757 
L 372.942208 173.892324 
L 373.406664 175.726703 
L 373.87112 179.032216 
L 374.335575 172.984216 
L 374.800031 172.620973 
L 375.264487 175.399784 
L 375.728943 170.205405 
L 376.657854 179.776865 
L 377.12231 174.473514 
L 377.586766 175.054703 
L 378.051221 176.525838 
L 378.515677 174.382703 
L 378.980133 170.07827 
L 379.444588 174.818595 
L 379.909044 173.238486 
L 380.3735 169.642378 
L 381.302411 173.783351 
L 381.766867 179.776865 
L 382.231323 170.278054 
L 382.695778 178.214919 
L 383.160234 171.894486 
L 383.62469 180.358054 
L 384.089146 174.219243 
L 384.553601 174.073946 
L 385.018057 172.166919 
L 385.946968 174.891243 
L 386.411424 172.421189 
L 386.87588 181.338811 
L 387.340336 169.715027 
L 387.804791 171.404108 
L 388.269247 170.187243 
L 388.733703 174.582486 
L 389.198158 182.682811 
L 389.662614 172.294054 
L 390.12707 170.023784 
L 390.591526 180.539676 
L 391.055981 172.675459 
L 391.520437 176.017297 
L 391.984893 176.217081 
L 392.449348 170.441514 
L 393.37826 170.586811 
L 394.307171 179.268324 
L 394.771627 172.475676 
L 395.236083 175.817514 
L 395.700538 180.485189 
L 396.164994 179.522595 
L 396.62945 177.869838 
L 397.093906 177.869838 
L 397.558361 178.342054 
L 398.022817 183.064216 
L 398.487273 175.654054 
L 398.487273 175.654054 
" style="fill:none;stroke:#ff7f0e;stroke-linecap:square;stroke-width:1.5;"/>
   </g>
   <g id="patch_3">
    <path d="M 57.6 307.584 
L 57.6 41.472 
" style="fill:none;stroke:#000000;stroke-linecap:square;stroke-linejoin:miter;stroke-width:0.8;"/>
   </g>
   <g id="patch_4">
    <path d="M 414.72 307.584 
L 414.72 41.472 
" style="fill:none;stroke:#000000;stroke-linecap:square;stroke-linejoin:miter;stroke-width:0.8;"/>
   </g>
   <g id="patch_5">
    <path d="M 57.6 307.584 
L 414.72 307.584 
" style="fill:none;stroke:#000000;stroke-linecap:square;stroke-linejoin:miter;stroke-width:0.8;"/>
   </g>
   <g id="patch_6">
    <path d="M 57.6 41.472 
L 414.72 41.472 
" style="fill:none;stroke:#000000;stroke-linecap:square;stroke-linejoin:miter;stroke-width:0.8;"/>
   </g>
   <g id="legend_1">
    <g id="patch_7">
     <path d="M 64.6 78.82825 
L 168.475 78.82825 
Q 170.475 78.82825 170.475 76.82825 
L 170.475 48.472 
Q 170.475 46.472 168.475 46.472 
L 64.6 46.472 
Q 62.6 46.472 62.6 48.472 
L 62.6 76.82825 
Q 62.6 78.82825 64.6 78.82825 
z
" style="fill:#ffffff;opacity:0.8;stroke:#cccccc;stroke-linejoin:miter;"/>
    </g>
    <g id="line2d_17">
     <path d="M 66.6 54.570437 
L 86.6 54.570437 
" style="fill:none;stroke:#1f77b4;stroke-linecap:square;stroke-width:1.5;"/>
    </g>
    <g id="line2d_18"/>
    <g id="text_17">
     <!-- Train loss -->
     <g transform="translate(94.6 58.070437)scale(0.1 -0.1)">
      <defs>
       <path d="M -19 4666 
L 3928 4666 
L 3928 4134 
L 2272 4134 
L 2272 0 
L 1638 0 
L 1638 4134 
L -19 4134 
L -19 4666 
z
" id="DejaVuSans-54" transform="scale(0.015625)"/>
       <path d="M 603 3500 
L 1178 3500 
L 1178 0 
L 603 0 
L 603 3500 
z
M 603 4863 
L 1178 4863 
L 1178 4134 
L 603 4134 
L 603 4863 
z
" id="DejaVuSans-69" transform="scale(0.015625)"/>
       <path d="M 3513 2113 
L 3513 0 
L 2938 0 
L 2938 2094 
Q 2938 2591 2744 2837 
Q 2550 3084 2163 3084 
Q 1697 3084 1428 2787 
Q 1159 2491 1159 1978 
L 1159 0 
L 581 0 
L 581 3500 
L 1159 3500 
L 1159 2956 
Q 1366 3272 1645 3428 
Q 1925 3584 2291 3584 
Q 2894 3584 3203 3211 
Q 3513 2838 3513 2113 
z
" id="DejaVuSans-6e" transform="scale(0.015625)"/>
       <path id="DejaVuSans-20" transform="scale(0.015625)"/>
       <path d="M 603 4863 
L 1178 4863 
L 1178 0 
L 603 0 
L 603 4863 
z
" id="DejaVuSans-6c" transform="scale(0.015625)"/>
       <path d="M 2834 3397 
L 2834 2853 
Q 2591 2978 2328 3040 
Q 2066 3103 1784 3103 
Q 1356 3103 1142 2972 
Q 928 2841 928 2578 
Q 928 2378 1081 2264 
Q 1234 2150 1697 2047 
L 1894 2003 
Q 2506 1872 2764 1633 
Q 3022 1394 3022 966 
Q 3022 478 2636 193 
Q 2250 -91 1575 -91 
Q 1294 -91 989 -36 
Q 684 19 347 128 
L 347 722 
Q 666 556 975 473 
Q 1284 391 1588 391 
Q 1994 391 2212 530 
Q 2431 669 2431 922 
Q 2431 1156 2273 1281 
Q 2116 1406 1581 1522 
L 1381 1569 
Q 847 1681 609 1914 
Q 372 2147 372 2553 
Q 372 3047 722 3315 
Q 1072 3584 1716 3584 
Q 2034 3584 2315 3537 
Q 2597 3491 2834 3397 
z
" id="DejaVuSans-73" transform="scale(0.015625)"/>
      </defs>
      <use xlink:href="#DejaVuSans-54"/>
      <use x="46.333984" xlink:href="#DejaVuSans-72"/>
      <use x="87.447266" xlink:href="#DejaVuSans-61"/>
      <use x="148.726562" xlink:href="#DejaVuSans-69"/>
      <use x="176.509766" xlink:href="#DejaVuSans-6e"/>
      <use x="239.888672" xlink:href="#DejaVuSans-20"/>
      <use x="271.675781" xlink:href="#DejaVuSans-6c"/>
      <use x="299.458984" xlink:href="#DejaVuSans-6f"/>
      <use x="360.640625" xlink:href="#DejaVuSans-73"/>
      <use x="412.740234" xlink:href="#DejaVuSans-73"/>
     </g>
    </g>
    <g id="line2d_19">
     <path d="M 66.6 69.248562 
L 86.6 69.248562 
" style="fill:none;stroke:#ff7f0e;stroke-linecap:square;stroke-width:1.5;"/>
    </g>
    <g id="line2d_20"/>
    <g id="text_18">
     <!-- Validation loss -->
     <g transform="translate(94.6 72.748562)scale(0.1 -0.1)">
      <defs>
       <path d="M 1831 0 
L 50 4666 
L 709 4666 
L 2188 738 
L 3669 4666 
L 4325 4666 
L 2547 0 
L 1831 0 
z
" id="DejaVuSans-56" transform="scale(0.015625)"/>
       <path d="M 2906 2969 
L 2906 4863 
L 3481 4863 
L 3481 0 
L 2906 0 
L 2906 525 
Q 2725 213 2448 61 
Q 2172 -91 1784 -91 
Q 1150 -91 751 415 
Q 353 922 353 1747 
Q 353 2572 751 3078 
Q 1150 3584 1784 3584 
Q 2172 3584 2448 3432 
Q 2725 3281 2906 2969 
z
M 947 1747 
Q 947 1113 1208 752 
Q 1469 391 1925 391 
Q 2381 391 2643 752 
Q 2906 1113 2906 1747 
Q 2906 2381 2643 2742 
Q 2381 3103 1925 3103 
Q 1469 3103 1208 2742 
Q 947 2381 947 1747 
z
" id="DejaVuSans-64" transform="scale(0.015625)"/>
       <path d="M 1172 4494 
L 1172 3500 
L 2356 3500 
L 2356 3053 
L 1172 3053 
L 1172 1153 
Q 1172 725 1289 603 
Q 1406 481 1766 481 
L 2356 481 
L 2356 0 
L 1766 0 
Q 1100 0 847 248 
Q 594 497 594 1153 
L 594 3053 
L 172 3053 
L 172 3500 
L 594 3500 
L 594 4494 
L 1172 4494 
z
" id="DejaVuSans-74" transform="scale(0.015625)"/>
      </defs>
      <use xlink:href="#DejaVuSans-56"/>
      <use x="60.658203" xlink:href="#DejaVuSans-61"/>
      <use x="121.9375" xlink:href="#DejaVuSans-6c"/>
      <use x="149.720703" xlink:href="#DejaVuSans-69"/>
      <use x="177.503906" xlink:href="#DejaVuSans-64"/>
      <use x="240.980469" xlink:href="#DejaVuSans-61"/>
      <use x="302.259766" xlink:href="#DejaVuSans-74"/>
      <use x="341.46875" xlink:href="#DejaVuSans-69"/>
      <use x="369.251953" xlink:href="#DejaVuSans-6f"/>
      <use x="430.433594" xlink:href="#DejaVuSans-6e"/>
      <use x="493.8125" xlink:href="#DejaVuSans-20"/>
      <use x="525.599609" xlink:href="#DejaVuSans-6c"/>
      <use x="553.382812" xlink:href="#DejaVuSans-6f"/>
      <use x="614.564453" xlink:href="#DejaVuSans-73"/>
      <use x="666.664062" xlink:href="#DejaVuSans-73"/>
     </g>
    </g>
   </g>
  </g>
 </g>
 <defs>
  <clipPath id="p05ec0df7d6">
   <rect height="266.112" width="357.12" x="57.6" y="41.472"/>
  </clipPath>
 </defs>
</svg>
