<?xml version="1.0" encoding="utf-8" standalone="no"?>
<!DOCTYPE svg PUBLIC "-//W3C//DTD SVG 1.1//EN"
  "http://www.w3.org/Graphics/SVG/1.1/DTD/svg11.dtd">
<svg height="345.6pt" version="1.1" viewBox="0 0 460.8 345.6" width="460.8pt" xmlns="http://www.w3.org/2000/svg" xmlns:xlink="http://www.w3.org/1999/xlink">
 <metadata>
  <rdf:RDF xmlns:cc="http://creativecommons.org/ns#" xmlns:dc="http://purl.org/dc/elements/1.1/" xmlns:rdf="http://www.w3.org/1999/02/22-rdf-syntax-ns#">
   <cc:Work>
    <dc:type rdf:resource="http://purl.org/dc/dcmitype/StillImage"/>
    <dc:date>2021-08-08T20:24:18.669668</dc:date>
    <dc:format>image/svg+xml</dc:format>
    <dc:creator>
     <cc:Agent>
      <dc:title>Matplotlib v3.4.2, https://matplotlib.org/</dc:title>
     </cc:Agent>
    </dc:creator>
   </cc:Work>
  </rdf:RDF>
 </metadata>
 <defs>
  <style type="text/css">*{stroke-linecap:butt;stroke-linejoin:round;}</style>
 </defs>
 <g id="figure_1">
  <g id="patch_1">
   <path d="M 0 345.6 
L 460.8 345.6 
L 460.8 0 
L 0 0 
z
" style="fill:#ffffff;"/>
  </g>
  <g id="axes_1">
   <g id="patch_2">
    <path d="M 57.6 307.584 
L 414.72 307.584 
L 414.72 41.472 
L 57.6 41.472 
z
" style="fill:#ffffff;"/>
   </g>
   <g id="matplotlib.axis_1">
    <g id="xtick_1">
     <g id="line2d_1">
      <defs>
       <path d="M 0 0 
L 0 3.5 
" id="m855982331d" style="stroke:#000000;stroke-width:0.8;"/>
      </defs>
      <g>
       <use style="stroke:#000000;stroke-width:0.8;" x="73.368272" xlink:href="#m855982331d" y="307.584"/>
      </g>
     </g>
     <g id="text_1">
      <!-- 0 -->
      <g transform="translate(70.187022 322.182437)scale(0.1 -0.1)">
       <defs>
        <path d="M 2034 4250 
Q 1547 4250 1301 3770 
Q 1056 3291 1056 2328 
Q 1056 1369 1301 889 
Q 1547 409 2034 409 
Q 2525 409 2770 889 
Q 3016 1369 3016 2328 
Q 3016 3291 2770 3770 
Q 2525 4250 2034 4250 
z
M 2034 4750 
Q 2819 4750 3233 4129 
Q 3647 3509 3647 2328 
Q 3647 1150 3233 529 
Q 2819 -91 2034 -91 
Q 1250 -91 836 529 
Q 422 1150 422 2328 
Q 422 3509 836 4129 
Q 1250 4750 2034 4750 
z
" id="DejaVuSans-30" transform="scale(0.015625)"/>
       </defs>
       <use xlink:href="#DejaVuSans-30"/>
      </g>
     </g>
    </g>
    <g id="xtick_2">
     <g id="line2d_2">
      <g>
       <use style="stroke:#000000;stroke-width:0.8;" x="119.813843" xlink:href="#m855982331d" y="307.584"/>
      </g>
     </g>
     <g id="text_2">
      <!-- 100 -->
      <g transform="translate(110.270093 322.182437)scale(0.1 -0.1)">
       <defs>
        <path d="M 794 531 
L 1825 531 
L 1825 4091 
L 703 3866 
L 703 4441 
L 1819 4666 
L 2450 4666 
L 2450 531 
L 3481 531 
L 3481 0 
L 794 0 
L 794 531 
z
" id="DejaVuSans-31" transform="scale(0.015625)"/>
       </defs>
       <use xlink:href="#DejaVuSans-31"/>
       <use x="63.623047" xlink:href="#DejaVuSans-30"/>
       <use x="127.246094" xlink:href="#DejaVuSans-30"/>
      </g>
     </g>
    </g>
    <g id="xtick_3">
     <g id="line2d_3">
      <g>
       <use style="stroke:#000000;stroke-width:0.8;" x="166.259415" xlink:href="#m855982331d" y="307.584"/>
      </g>
     </g>
     <g id="text_3">
      <!-- 200 -->
      <g transform="translate(156.715665 322.182437)scale(0.1 -0.1)">
       <defs>
        <path d="M 1228 531 
L 3431 531 
L 3431 0 
L 469 0 
L 469 531 
Q 828 903 1448 1529 
Q 2069 2156 2228 2338 
Q 2531 2678 2651 2914 
Q 2772 3150 2772 3378 
Q 2772 3750 2511 3984 
Q 2250 4219 1831 4219 
Q 1534 4219 1204 4116 
Q 875 4013 500 3803 
L 500 4441 
Q 881 4594 1212 4672 
Q 1544 4750 1819 4750 
Q 2544 4750 2975 4387 
Q 3406 4025 3406 3419 
Q 3406 3131 3298 2873 
Q 3191 2616 2906 2266 
Q 2828 2175 2409 1742 
Q 1991 1309 1228 531 
z
" id="DejaVuSans-32" transform="scale(0.015625)"/>
       </defs>
       <use xlink:href="#DejaVuSans-32"/>
       <use x="63.623047" xlink:href="#DejaVuSans-30"/>
       <use x="127.246094" xlink:href="#DejaVuSans-30"/>
      </g>
     </g>
    </g>
    <g id="xtick_4">
     <g id="line2d_4">
      <g>
       <use style="stroke:#000000;stroke-width:0.8;" x="212.704986" xlink:href="#m855982331d" y="307.584"/>
      </g>
     </g>
     <g id="text_4">
      <!-- 300 -->
      <g transform="translate(203.161236 322.182437)scale(0.1 -0.1)">
       <defs>
        <path d="M 2597 2516 
Q 3050 2419 3304 2112 
Q 3559 1806 3559 1356 
Q 3559 666 3084 287 
Q 2609 -91 1734 -91 
Q 1441 -91 1130 -33 
Q 819 25 488 141 
L 488 750 
Q 750 597 1062 519 
Q 1375 441 1716 441 
Q 2309 441 2620 675 
Q 2931 909 2931 1356 
Q 2931 1769 2642 2001 
Q 2353 2234 1838 2234 
L 1294 2234 
L 1294 2753 
L 1863 2753 
Q 2328 2753 2575 2939 
Q 2822 3125 2822 3475 
Q 2822 3834 2567 4026 
Q 2313 4219 1838 4219 
Q 1578 4219 1281 4162 
Q 984 4106 628 3988 
L 628 4550 
Q 988 4650 1302 4700 
Q 1616 4750 1894 4750 
Q 2613 4750 3031 4423 
Q 3450 4097 3450 3541 
Q 3450 3153 3228 2886 
Q 3006 2619 2597 2516 
z
" id="DejaVuSans-33" transform="scale(0.015625)"/>
       </defs>
       <use xlink:href="#DejaVuSans-33"/>
       <use x="63.623047" xlink:href="#DejaVuSans-30"/>
       <use x="127.246094" xlink:href="#DejaVuSans-30"/>
      </g>
     </g>
    </g>
    <g id="xtick_5">
     <g id="line2d_5">
      <g>
       <use style="stroke:#000000;stroke-width:0.8;" x="259.150558" xlink:href="#m855982331d" y="307.584"/>
      </g>
     </g>
     <g id="text_5">
      <!-- 400 -->
      <g transform="translate(249.606808 322.182437)scale(0.1 -0.1)">
       <defs>
        <path d="M 2419 4116 
L 825 1625 
L 2419 1625 
L 2419 4116 
z
M 2253 4666 
L 3047 4666 
L 3047 1625 
L 3713 1625 
L 3713 1100 
L 3047 1100 
L 3047 0 
L 2419 0 
L 2419 1100 
L 313 1100 
L 313 1709 
L 2253 4666 
z
" id="DejaVuSans-34" transform="scale(0.015625)"/>
       </defs>
       <use xlink:href="#DejaVuSans-34"/>
       <use x="63.623047" xlink:href="#DejaVuSans-30"/>
       <use x="127.246094" xlink:href="#DejaVuSans-30"/>
      </g>
     </g>
    </g>
    <g id="xtick_6">
     <g id="line2d_6">
      <g>
       <use style="stroke:#000000;stroke-width:0.8;" x="305.59613" xlink:href="#m855982331d" y="307.584"/>
      </g>
     </g>
     <g id="text_6">
      <!-- 500 -->
      <g transform="translate(296.05238 322.182437)scale(0.1 -0.1)">
       <defs>
        <path d="M 691 4666 
L 3169 4666 
L 3169 4134 
L 1269 4134 
L 1269 2991 
Q 1406 3038 1543 3061 
Q 1681 3084 1819 3084 
Q 2600 3084 3056 2656 
Q 3513 2228 3513 1497 
Q 3513 744 3044 326 
Q 2575 -91 1722 -91 
Q 1428 -91 1123 -41 
Q 819 9 494 109 
L 494 744 
Q 775 591 1075 516 
Q 1375 441 1709 441 
Q 2250 441 2565 725 
Q 2881 1009 2881 1497 
Q 2881 1984 2565 2268 
Q 2250 2553 1709 2553 
Q 1456 2553 1204 2497 
Q 953 2441 691 2322 
L 691 4666 
z
" id="DejaVuSans-35" transform="scale(0.015625)"/>
       </defs>
       <use xlink:href="#DejaVuSans-35"/>
       <use x="63.623047" xlink:href="#DejaVuSans-30"/>
       <use x="127.246094" xlink:href="#DejaVuSans-30"/>
      </g>
     </g>
    </g>
    <g id="xtick_7">
     <g id="line2d_7">
      <g>
       <use style="stroke:#000000;stroke-width:0.8;" x="352.041701" xlink:href="#m855982331d" y="307.584"/>
      </g>
     </g>
     <g id="text_7">
      <!-- 600 -->
      <g transform="translate(342.497951 322.182437)scale(0.1 -0.1)">
       <defs>
        <path d="M 2113 2584 
Q 1688 2584 1439 2293 
Q 1191 2003 1191 1497 
Q 1191 994 1439 701 
Q 1688 409 2113 409 
Q 2538 409 2786 701 
Q 3034 994 3034 1497 
Q 3034 2003 2786 2293 
Q 2538 2584 2113 2584 
z
M 3366 4563 
L 3366 3988 
Q 3128 4100 2886 4159 
Q 2644 4219 2406 4219 
Q 1781 4219 1451 3797 
Q 1122 3375 1075 2522 
Q 1259 2794 1537 2939 
Q 1816 3084 2150 3084 
Q 2853 3084 3261 2657 
Q 3669 2231 3669 1497 
Q 3669 778 3244 343 
Q 2819 -91 2113 -91 
Q 1303 -91 875 529 
Q 447 1150 447 2328 
Q 447 3434 972 4092 
Q 1497 4750 2381 4750 
Q 2619 4750 2861 4703 
Q 3103 4656 3366 4563 
z
" id="DejaVuSans-36" transform="scale(0.015625)"/>
       </defs>
       <use xlink:href="#DejaVuSans-36"/>
       <use x="63.623047" xlink:href="#DejaVuSans-30"/>
       <use x="127.246094" xlink:href="#DejaVuSans-30"/>
      </g>
     </g>
    </g>
    <g id="xtick_8">
     <g id="line2d_8">
      <g>
       <use style="stroke:#000000;stroke-width:0.8;" x="398.487273" xlink:href="#m855982331d" y="307.584"/>
      </g>
     </g>
     <g id="text_8">
      <!-- 700 -->
      <g transform="translate(388.943523 322.182437)scale(0.1 -0.1)">
       <defs>
        <path d="M 525 4666 
L 3525 4666 
L 3525 4397 
L 1831 0 
L 1172 0 
L 2766 4134 
L 525 4134 
L 525 4666 
z
" id="DejaVuSans-37" transform="scale(0.015625)"/>
       </defs>
       <use xlink:href="#DejaVuSans-37"/>
       <use x="63.623047" xlink:href="#DejaVuSans-30"/>
       <use x="127.246094" xlink:href="#DejaVuSans-30"/>
      </g>
     </g>
    </g>
    <g id="text_9">
     <!-- Epoch -->
     <g transform="translate(213.193594 339.659781)scale(0.15 -0.15)">
      <defs>
       <path d="M 628 4666 
L 3578 4666 
L 3578 4134 
L 1259 4134 
L 1259 2753 
L 3481 2753 
L 3481 2222 
L 1259 2222 
L 1259 531 
L 3634 531 
L 3634 0 
L 628 0 
L 628 4666 
z
" id="DejaVuSans-45" transform="scale(0.015625)"/>
       <path d="M 1159 525 
L 1159 -1331 
L 581 -1331 
L 581 3500 
L 1159 3500 
L 1159 2969 
Q 1341 3281 1617 3432 
Q 1894 3584 2278 3584 
Q 2916 3584 3314 3078 
Q 3713 2572 3713 1747 
Q 3713 922 3314 415 
Q 2916 -91 2278 -91 
Q 1894 -91 1617 61 
Q 1341 213 1159 525 
z
M 3116 1747 
Q 3116 2381 2855 2742 
Q 2594 3103 2138 3103 
Q 1681 3103 1420 2742 
Q 1159 2381 1159 1747 
Q 1159 1113 1420 752 
Q 1681 391 2138 391 
Q 2594 391 2855 752 
Q 3116 1113 3116 1747 
z
" id="DejaVuSans-70" transform="scale(0.015625)"/>
       <path d="M 1959 3097 
Q 1497 3097 1228 2736 
Q 959 2375 959 1747 
Q 959 1119 1226 758 
Q 1494 397 1959 397 
Q 2419 397 2687 759 
Q 2956 1122 2956 1747 
Q 2956 2369 2687 2733 
Q 2419 3097 1959 3097 
z
M 1959 3584 
Q 2709 3584 3137 3096 
Q 3566 2609 3566 1747 
Q 3566 888 3137 398 
Q 2709 -91 1959 -91 
Q 1206 -91 779 398 
Q 353 888 353 1747 
Q 353 2609 779 3096 
Q 1206 3584 1959 3584 
z
" id="DejaVuSans-6f" transform="scale(0.015625)"/>
       <path d="M 3122 3366 
L 3122 2828 
Q 2878 2963 2633 3030 
Q 2388 3097 2138 3097 
Q 1578 3097 1268 2742 
Q 959 2388 959 1747 
Q 959 1106 1268 751 
Q 1578 397 2138 397 
Q 2388 397 2633 464 
Q 2878 531 3122 666 
L 3122 134 
Q 2881 22 2623 -34 
Q 2366 -91 2075 -91 
Q 1284 -91 818 406 
Q 353 903 353 1747 
Q 353 2603 823 3093 
Q 1294 3584 2113 3584 
Q 2378 3584 2631 3529 
Q 2884 3475 3122 3366 
z
" id="DejaVuSans-63" transform="scale(0.015625)"/>
       <path d="M 3513 2113 
L 3513 0 
L 2938 0 
L 2938 2094 
Q 2938 2591 2744 2837 
Q 2550 3084 2163 3084 
Q 1697 3084 1428 2787 
Q 1159 2491 1159 1978 
L 1159 0 
L 581 0 
L 581 4863 
L 1159 4863 
L 1159 2956 
Q 1366 3272 1645 3428 
Q 1925 3584 2291 3584 
Q 2894 3584 3203 3211 
Q 3513 2838 3513 2113 
z
" id="DejaVuSans-68" transform="scale(0.015625)"/>
      </defs>
      <use xlink:href="#DejaVuSans-45"/>
      <use x="63.183594" xlink:href="#DejaVuSans-70"/>
      <use x="126.660156" xlink:href="#DejaVuSans-6f"/>
      <use x="187.841797" xlink:href="#DejaVuSans-63"/>
      <use x="242.822266" xlink:href="#DejaVuSans-68"/>
     </g>
    </g>
   </g>
   <g id="matplotlib.axis_2">
    <g id="ytick_1">
     <g id="line2d_9">
      <defs>
       <path d="M 0 0 
L -3.5 0 
" id="m16aeafad20" style="stroke:#000000;stroke-width:0.8;"/>
      </defs>
      <g>
       <use style="stroke:#000000;stroke-width:0.8;" x="57.6" xlink:href="#m16aeafad20" y="292.662313"/>
      </g>
     </g>
     <g id="text_10">
      <!-- −4000 -->
      <g transform="translate(16.770313 296.461532)scale(0.1 -0.1)">
       <defs>
        <path d="M 678 2272 
L 4684 2272 
L 4684 1741 
L 678 1741 
L 678 2272 
z
" id="DejaVuSans-2212" transform="scale(0.015625)"/>
       </defs>
       <use xlink:href="#DejaVuSans-2212"/>
       <use x="83.789062" xlink:href="#DejaVuSans-34"/>
       <use x="147.412109" xlink:href="#DejaVuSans-30"/>
       <use x="211.035156" xlink:href="#DejaVuSans-30"/>
       <use x="274.658203" xlink:href="#DejaVuSans-30"/>
      </g>
     </g>
    </g>
    <g id="ytick_2">
     <g id="line2d_10">
      <g>
       <use style="stroke:#000000;stroke-width:0.8;" x="57.6" xlink:href="#m16aeafad20" y="261.025183"/>
      </g>
     </g>
     <g id="text_11">
      <!-- −3500 -->
      <g transform="translate(16.770313 264.824402)scale(0.1 -0.1)">
       <use xlink:href="#DejaVuSans-2212"/>
       <use x="83.789062" xlink:href="#DejaVuSans-33"/>
       <use x="147.412109" xlink:href="#DejaVuSans-35"/>
       <use x="211.035156" xlink:href="#DejaVuSans-30"/>
       <use x="274.658203" xlink:href="#DejaVuSans-30"/>
      </g>
     </g>
    </g>
    <g id="ytick_3">
     <g id="line2d_11">
      <g>
       <use style="stroke:#000000;stroke-width:0.8;" x="57.6" xlink:href="#m16aeafad20" y="229.388053"/>
      </g>
     </g>
     <g id="text_12">
      <!-- −3000 -->
      <g transform="translate(16.770313 233.187272)scale(0.1 -0.1)">
       <use xlink:href="#DejaVuSans-2212"/>
       <use x="83.789062" xlink:href="#DejaVuSans-33"/>
       <use x="147.412109" xlink:href="#DejaVuSans-30"/>
       <use x="211.035156" xlink:href="#DejaVuSans-30"/>
       <use x="274.658203" xlink:href="#DejaVuSans-30"/>
      </g>
     </g>
    </g>
    <g id="ytick_4">
     <g id="line2d_12">
      <g>
       <use style="stroke:#000000;stroke-width:0.8;" x="57.6" xlink:href="#m16aeafad20" y="197.750923"/>
      </g>
     </g>
     <g id="text_13">
      <!-- −2500 -->
      <g transform="translate(16.770313 201.550142)scale(0.1 -0.1)">
       <use xlink:href="#DejaVuSans-2212"/>
       <use x="83.789062" xlink:href="#DejaVuSans-32"/>
       <use x="147.412109" xlink:href="#DejaVuSans-35"/>
       <use x="211.035156" xlink:href="#DejaVuSans-30"/>
       <use x="274.658203" xlink:href="#DejaVuSans-30"/>
      </g>
     </g>
    </g>
    <g id="ytick_5">
     <g id="line2d_13">
      <g>
       <use style="stroke:#000000;stroke-width:0.8;" x="57.6" xlink:href="#m16aeafad20" y="166.113793"/>
      </g>
     </g>
     <g id="text_14">
      <!-- −2000 -->
      <g transform="translate(16.770313 169.913012)scale(0.1 -0.1)">
       <use xlink:href="#DejaVuSans-2212"/>
       <use x="83.789062" xlink:href="#DejaVuSans-32"/>
       <use x="147.412109" xlink:href="#DejaVuSans-30"/>
       <use x="211.035156" xlink:href="#DejaVuSans-30"/>
       <use x="274.658203" xlink:href="#DejaVuSans-30"/>
      </g>
     </g>
    </g>
    <g id="ytick_6">
     <g id="line2d_14">
      <g>
       <use style="stroke:#000000;stroke-width:0.8;" x="57.6" xlink:href="#m16aeafad20" y="134.476663"/>
      </g>
     </g>
     <g id="text_15">
      <!-- −1500 -->
      <g transform="translate(16.770313 138.275882)scale(0.1 -0.1)">
       <use xlink:href="#DejaVuSans-2212"/>
       <use x="83.789062" xlink:href="#DejaVuSans-31"/>
       <use x="147.412109" xlink:href="#DejaVuSans-35"/>
       <use x="211.035156" xlink:href="#DejaVuSans-30"/>
       <use x="274.658203" xlink:href="#DejaVuSans-30"/>
      </g>
     </g>
    </g>
    <g id="ytick_7">
     <g id="line2d_15">
      <g>
       <use style="stroke:#000000;stroke-width:0.8;" x="57.6" xlink:href="#m16aeafad20" y="102.839534"/>
      </g>
     </g>
     <g id="text_16">
      <!-- −1000 -->
      <g transform="translate(16.770313 106.638752)scale(0.1 -0.1)">
       <use xlink:href="#DejaVuSans-2212"/>
       <use x="83.789062" xlink:href="#DejaVuSans-31"/>
       <use x="147.412109" xlink:href="#DejaVuSans-30"/>
       <use x="211.035156" xlink:href="#DejaVuSans-30"/>
       <use x="274.658203" xlink:href="#DejaVuSans-30"/>
      </g>
     </g>
    </g>
    <g id="ytick_8">
     <g id="line2d_16">
      <g>
       <use style="stroke:#000000;stroke-width:0.8;" x="57.6" xlink:href="#m16aeafad20" y="71.202404"/>
      </g>
     </g>
     <g id="text_17">
      <!-- −500 -->
      <g transform="translate(23.132812 75.001622)scale(0.1 -0.1)">
       <use xlink:href="#DejaVuSans-2212"/>
       <use x="83.789062" xlink:href="#DejaVuSans-35"/>
       <use x="147.412109" xlink:href="#DejaVuSans-30"/>
       <use x="211.035156" xlink:href="#DejaVuSans-30"/>
      </g>
     </g>
    </g>
   </g>
   <g id="line2d_17">
    <path clip-path="url(#p07bf476727)" d="M 73.832727 53.568 
L 74.297183 108.735108 
L 74.761639 119.968012 
L 75.226094 128.114407 
L 75.69055 129.122227 
L 76.619462 141.370049 
L 77.083917 143.601685 
L 77.548373 152.078864 
L 78.012829 154.940364 
L 78.477284 156.632739 
L 78.94174 164.489926 
L 79.406196 164.695493 
L 79.870652 165.928648 
L 80.335107 168.525084 
L 81.264019 176.410589 
L 81.728474 175.899667 
L 82.19293 176.063759 
L 82.657386 182.035464 
L 83.121842 180.031919 
L 84.050753 184.591586 
L 84.515209 183.814202 
L 84.979664 188.941496 
L 85.44412 188.113879 
L 85.908576 191.668785 
L 86.373032 191.47123 
L 86.837487 192.271671 
L 87.301943 197.387646 
L 87.766399 193.890274 
L 88.230854 193.179023 
L 88.69531 194.426805 
L 89.624222 202.564166 
L 90.088677 203.881455 
L 90.553133 194.307929 
L 91.017589 205.450897 
L 91.482044 205.330903 
L 91.9465 202.185632 
L 92.410956 206.925438 
L 92.875412 206.744808 
L 93.339867 205.356912 
L 93.804323 205.693035 
L 94.268779 203.762093 
L 95.19769 210.282367 
L 95.662146 208.946156 
L 96.126602 209.256112 
L 96.591057 217.030439 
L 97.055513 218.233787 
L 97.519969 214.27175 
L 97.984425 212.599004 
L 98.44888 216.347574 
L 98.913336 211.679841 
L 99.377792 217.832177 
L 99.842247 220.007397 
L 100.306703 221.286665 
L 100.771159 221.07214 
L 101.235615 221.27185 
L 101.70007 219.666018 
L 102.164526 224.867079 
L 102.628982 221.961878 
L 103.093437 224.145935 
L 103.557893 225.040236 
L 104.022349 218.926105 
L 104.486805 224.475109 
L 104.95126 223.808924 
L 105.415716 226.704644 
L 105.880172 227.269936 
L 106.344627 222.688599 
L 106.809083 224.61762 
L 107.737995 233.899876 
L 108.20245 230.160387 
L 108.666906 228.753746 
L 109.131362 224.896387 
L 109.595817 226.881817 
L 110.060273 227.099794 
L 110.524729 231.218552 
L 110.989185 229.50329 
L 111.45364 228.869768 
L 111.918096 228.953711 
L 112.382552 231.453663 
L 112.847007 235.166492 
L 113.311463 233.845478 
L 113.775919 229.38611 
L 114.240375 235.17012 
L 114.70483 231.654119 
L 115.169286 232.671686 
L 115.633742 232.636537 
L 116.098197 235.065131 
L 116.562653 234.555636 
L 117.027109 234.827614 
L 117.491565 232.790487 
L 117.95602 234.335411 
L 118.420476 239.544107 
L 118.884932 237.835284 
L 119.349387 239.546246 
L 120.278299 230.812826 
L 120.742755 190.839923 
L 121.20721 237.386727 
L 121.671666 239.879891 
L 122.136122 241.104278 
L 122.600577 246.531352 
L 123.065033 242.239054 
L 123.529489 249.481589 
L 123.993945 243.412026 
L 124.4584 246.501515 
L 124.922856 245.147564 
L 125.387312 244.545134 
L 126.316223 239.088707 
L 126.780679 240.737387 
L 127.245135 243.595241 
L 127.70959 244.888921 
L 128.174046 237.292192 
L 128.638502 241.777206 
L 129.102957 243.557549 
L 130.031869 244.063464 
L 130.496325 247.240741 
L 130.96078 237.284417 
L 131.425236 237.731102 
L 131.889692 245.515419 
L 132.354147 238.676229 
L 132.818603 244.435592 
L 133.283059 243.089141 
L 133.747515 236.445044 
L 134.21197 237.685613 
L 134.676426 244.72553 
L 135.140882 243.324827 
L 135.605337 241.250349 
L 136.069793 248.967576 
L 136.534249 238.182146 
L 136.998705 245.563089 
L 137.46316 242.319991 
L 137.927616 240.274995 
L 138.392072 245.318052 
L 138.856528 241.609449 
L 139.320983 250.202972 
L 139.785439 251.771588 
L 140.249895 248.774585 
L 140.71435 249.127227 
L 141.643262 243.486473 
L 142.107718 242.216783 
L 142.572173 252.068476 
L 143.036629 249.392834 
L 143.501085 242.205494 
L 144.429996 257.446009 
L 144.894452 240.337537 
L 145.358908 256.848305 
L 145.823363 251.173492 
L 146.287819 252.601452 
L 146.752275 252.854074 
L 147.21673 256.509726 
L 147.681186 252.100234 
L 148.145642 257.879885 
L 149.074553 248.814613 
L 149.539009 247.959787 
L 150.003465 256.249248 
L 150.46792 255.853724 
L 150.932376 249.502453 
L 151.396832 247.642851 
L 151.861288 265.475036 
L 152.325743 254.84327 
L 152.790199 257.817621 
L 153.254655 254.788801 
L 154.183566 258.897488 
L 154.648022 250.68631 
L 155.112478 252.404975 
L 155.576933 243.554119 
L 156.041389 256.772454 
L 156.505845 253.169531 
L 156.9703 256.170569 
L 157.899212 263.81031 
L 158.363668 254.021195 
L 158.828123 254.350234 
L 159.292579 259.563415 
L 159.757035 256.952516 
L 160.22149 265.14296 
L 160.685946 258.651303 
L 161.150402 261.981438 
L 161.614858 250.537679 
L 162.079313 261.493233 
L 162.543769 256.972436 
L 163.008225 254.319509 
L 163.47268 259.298186 
L 163.937136 256.073458 
L 164.401592 261.010496 
L 164.866048 255.432475 
L 165.330503 259.983178 
L 165.794959 268.496002 
L 166.259415 262.579613 
L 166.72387 260.275554 
L 167.188326 256.965044 
L 167.652782 266.008117 
L 168.117238 254.416529 
L 168.581693 258.17706 
L 169.046149 263.92902 
L 169.510605 271.703405 
L 169.97506 258.559484 
L 170.439516 256.216047 
L 170.903972 259.918971 
L 171.368428 259.8535 
L 171.832883 259.432758 
L 172.297339 264.746953 
L 172.761795 253.381575 
L 173.22625 271.842883 
L 173.690706 249.603634 
L 174.155162 261.165419 
L 174.619618 255.836946 
L 175.084073 261.119704 
L 175.548529 263.586925 
L 176.012985 263.831323 
L 176.941896 250.147713 
L 177.406352 262.061601 
L 177.870808 263.157741 
L 178.335263 256.854633 
L 178.799719 266.567797 
L 179.264175 266.3692 
L 179.728631 262.458563 
L 180.193086 270.581263 
L 180.657542 259.19452 
L 181.121998 260.367963 
L 181.586453 264.57925 
L 182.050909 258.448207 
L 182.515365 262.906434 
L 182.979821 260.662613 
L 183.444276 260.194483 
L 183.908732 269.874631 
L 184.373188 256.250138 
L 184.837643 258.037736 
L 185.302099 266.379804 
L 185.766555 261.925821 
L 186.231011 268.085003 
L 186.695466 266.085053 
L 187.159922 266.530909 
L 187.624378 267.582955 
L 188.088833 257.359601 
L 188.553289 273.42003 
L 189.017745 266.536985 
L 189.482201 264.98853 
L 189.946656 262.991006 
L 190.411112 266.26927 
L 190.875568 261.112846 
L 191.340023 265.899244 
L 191.804479 265.146539 
L 192.268935 261.894299 
L 193.197846 267.153174 
L 194.126758 263.003895 
L 194.591213 261.272737 
L 195.055669 266.039335 
L 195.520125 265.842374 
L 195.984581 270.243135 
L 196.449036 261.496486 
L 196.913492 261.78619 
L 197.377948 272.273519 
L 197.842403 263.320569 
L 198.306859 271.738294 
L 198.771315 262.951645 
L 199.235771 268.801013 
L 199.700226 272.217344 
L 200.164682 269.363615 
L 200.629138 268.056718 
L 201.093593 268.620969 
L 201.558049 262.60619 
L 202.022505 271.871836 
L 202.486961 259.038249 
L 202.951416 272.131447 
L 203.415872 262.143812 
L 203.880328 270.183599 
L 204.344783 266.799093 
L 204.809239 268.359674 
L 205.273695 269.238233 
L 205.738151 264.147534 
L 206.202606 262.621825 
L 206.667062 262.344908 
L 207.131518 266.008779 
L 207.595973 272.036354 
L 208.060429 255.293627 
L 208.524885 271.687942 
L 208.989341 265.92631 
L 209.453796 273.263909 
L 209.918252 258.051712 
L 210.382708 270.304129 
L 210.847163 267.094814 
L 211.311619 265.845773 
L 211.776075 264.95691 
L 212.240531 267.747522 
L 212.704986 263.034456 
L 213.169442 269.180044 
L 213.633898 269.025429 
L 214.098353 275.414762 
L 214.562809 268.697139 
L 215.027265 271.195735 
L 215.491721 268.862749 
L 215.956176 267.592516 
L 216.420632 261.464727 
L 216.885088 269.92705 
L 217.349544 266.534086 
L 217.813999 264.153726 
L 218.278455 264.739135 
L 218.742911 266.973354 
L 219.207366 282.21857 
L 219.671822 270.597445 
L 220.136278 266.622122 
L 220.600734 269.929369 
L 221.065189 262.001895 
L 221.529645 263.354348 
L 221.994101 273.120533 
L 222.458556 269.217569 
L 222.923012 269.226733 
L 223.387468 274.397054 
L 223.851924 272.404681 
L 224.316379 275.951311 
L 224.780835 273.408828 
L 225.245291 267.892815 
L 225.709746 277.335803 
L 226.174202 267.975721 
L 226.638658 267.742784 
L 227.103114 264.692487 
L 227.567569 268.134823 
L 228.032025 280.40033 
L 228.496481 266.600343 
L 228.960936 272.562497 
L 229.425392 270.381448 
L 229.889848 270.959972 
L 230.354304 276.803116 
L 230.818759 270.228752 
L 231.747671 272.56709 
L 232.212126 267.749464 
L 232.676582 269.084623 
L 233.141038 262.308501 
L 233.605494 267.678549 
L 234.069949 269.175336 
L 234.534405 271.544684 
L 234.998861 265.410399 
L 235.463316 268.786396 
L 235.927772 276.238896 
L 236.392228 272.350078 
L 236.856684 274.096181 
L 237.321139 271.930737 
L 237.785595 268.059025 
L 238.250051 266.148567 
L 238.714506 272.623724 
L 239.178962 269.224135 
L 239.643418 271.889621 
L 240.107874 275.867283 
L 240.572329 265.48215 
L 241.036785 274.385659 
L 241.501241 277.79433 
L 241.965696 266.270917 
L 242.430152 272.69596 
L 242.894608 275.567817 
L 243.359064 268.651879 
L 243.823519 270.290371 
L 244.287975 266.223459 
L 244.752431 271.094456 
L 245.216886 271.394139 
L 245.681342 275.345621 
L 246.145798 271.558384 
L 246.610254 273.623499 
L 247.074709 265.659112 
L 247.539165 271.416312 
L 248.003621 269.326963 
L 248.468076 274.639538 
L 248.932532 268.82147 
L 249.396988 272.134097 
L 249.861444 274.078486 
L 250.325899 276.848937 
L 250.790355 267.826866 
L 251.719266 277.201968 
L 252.183722 267.866695 
L 252.648178 271.648157 
L 253.112634 271.09503 
L 253.577089 268.229311 
L 254.041545 276.078722 
L 254.506001 274.346368 
L 254.970456 271.51206 
L 255.434912 266.480238 
L 255.899368 277.918218 
L 256.363824 271.824517 
L 256.828279 274.912639 
L 257.292735 281.770567 
L 257.757191 272.951381 
L 258.221647 278.02968 
L 258.686102 268.850017 
L 259.150558 269.289078 
L 259.615014 274.73679 
L 260.079469 262.480343 
L 260.543925 267.846888 
L 261.008381 270.55668 
L 261.472837 275.286765 
L 261.937292 274.178913 
L 262.401748 275.797609 
L 262.866204 270.994791 
L 263.330659 274.055594 
L 263.795115 276.276804 
L 264.259571 272.580106 
L 264.724027 264.558582 
L 265.188482 272.41202 
L 266.117394 269.758347 
L 266.581849 276.560819 
L 267.046305 276.865014 
L 267.510761 267.00976 
L 267.975217 274.626254 
L 268.439672 278.856596 
L 268.904128 280.057803 
L 269.368584 269.996723 
L 269.833039 273.873291 
L 270.297495 274.628927 
L 270.761951 275.804574 
L 271.226407 273.999043 
L 271.690862 277.233889 
L 272.155318 278.20312 
L 272.619774 276.485433 
L 273.084229 272.358078 
L 273.548685 277.978315 
L 274.013141 266.651336 
L 274.942052 276.171663 
L 275.406508 271.508772 
L 276.335419 276.648999 
L 276.799875 271.18028 
L 277.264331 274.593761 
L 277.728787 274.156552 
L 278.193242 275.428037 
L 278.657698 264.880856 
L 279.122154 265.214485 
L 279.586609 267.267721 
L 280.515521 278.020651 
L 280.979977 270.414416 
L 281.444432 272.533354 
L 281.908888 268.499792 
L 282.373344 272.66117 
L 282.837799 273.176407 
L 283.302255 279.099531 
L 283.766711 278.086552 
L 284.231167 273.11618 
L 284.695622 277.45283 
L 285.160078 275.484202 
L 285.624534 271.021808 
L 286.088989 284.048474 
L 286.553445 270.647313 
L 287.482357 278.174784 
L 287.946812 278.642239 
L 288.411268 274.658161 
L 288.875724 281.150986 
L 289.340179 271.625491 
L 289.804635 281.782605 
L 290.269091 278.259726 
L 290.733547 266.615982 
L 291.198002 265.032504 
L 292.126914 278.140354 
L 292.591369 276.350589 
L 293.055825 276.576296 
L 293.520281 278.04148 
L 293.984737 274.317094 
L 294.449192 280.10841 
L 294.913648 275.381962 
L 295.378104 275.251758 
L 295.84256 272.298826 
L 296.307015 273.795035 
L 296.771471 277.35733 
L 297.235927 272.045876 
L 297.700382 272.41806 
L 298.164838 269.588229 
L 298.629294 275.250402 
L 299.09375 276.150978 
L 299.558205 276.086007 
L 300.022661 283.349196 
L 300.487117 276.241942 
L 300.951572 275.403825 
L 301.416028 284.231372 
L 301.880484 276.744153 
L 302.34494 276.136458 
L 302.809395 273.552458 
L 303.273851 275.182967 
L 303.738307 280.174903 
L 304.202762 273.258171 
L 304.667218 275.704819 
L 305.131674 280.888085 
L 305.59613 270.92544 
L 306.060585 275.90297 
L 306.525041 273.044788 
L 306.989497 276.394226 
L 307.453952 276.181793 
L 307.918408 273.225019 
L 308.382864 280.0731 
L 308.84732 277.021225 
L 309.311775 275.745302 
L 309.776231 278.765213 
L 310.240687 271.507412 
L 310.705142 279.406587 
L 311.169598 274.811637 
L 311.634054 268.624545 
L 312.09851 279.076326 
L 312.562965 277.831664 
L 313.027421 286.501257 
L 313.491877 279.250704 
L 313.956332 275.308981 
L 314.420788 279.091328 
L 314.885244 279.09106 
L 315.3497 272.060176 
L 315.814155 276.824974 
L 316.278611 278.668253 
L 316.743067 274.005348 
L 317.207522 284.158708 
L 317.671978 272.490986 
L 318.136434 267.893793 
L 318.60089 284.9218 
L 319.065345 278.698775 
L 319.529801 265.925579 
L 319.994257 278.499776 
L 320.458712 271.152098 
L 320.923168 278.668065 
L 321.387624 266.525919 
L 321.85208 281.168692 
L 322.316535 279.659047 
L 322.780991 282.465109 
L 323.245447 275.443749 
L 323.709902 274.86126 
L 324.174358 276.259389 
L 324.638814 268.766783 
L 325.10327 276.454405 
L 325.567725 276.418823 
L 326.032181 278.558301 
L 326.961092 279.046669 
L 327.425548 276.402643 
L 327.890004 285.980882 
L 328.35446 277.333149 
L 328.818915 274.54448 
L 329.283371 276.824528 
L 329.747827 265.051253 
L 330.212282 270.786346 
L 330.676738 271.18369 
L 331.141194 272.924302 
L 331.60565 280.982565 
L 332.070105 270.200499 
L 332.534561 279.069332 
L 332.999017 278.119596 
L 333.463472 279.593614 
L 334.392384 273.568776 
L 334.85684 276.224944 
L 335.321295 276.972907 
L 335.785751 280.356859 
L 336.250207 282.362757 
L 336.714663 271.428678 
L 337.179118 274.387388 
L 337.643574 278.712213 
L 338.10803 271.580976 
L 338.572485 272.629273 
L 339.036941 277.005457 
L 339.501397 271.904288 
L 339.965853 272.699327 
L 340.430308 276.100122 
L 340.894764 274.933203 
L 341.35922 279.719179 
L 341.823675 279.286584 
L 342.288131 270.204298 
L 342.752587 276.475466 
L 343.217043 277.697932 
L 343.681498 279.41483 
L 344.145954 284.44651 
L 344.61041 277.588405 
L 345.074865 278.824098 
L 345.539321 276.379648 
L 346.003777 275.643487 
L 346.468233 283.788505 
L 346.932688 281.081797 
L 347.397144 276.020614 
L 347.8616 277.189214 
L 348.326055 278.797817 
L 348.790511 272.77442 
L 349.254967 281.555981 
L 349.719423 274.195127 
L 350.183878 280.289023 
L 350.648334 269.950906 
L 351.11279 277.170804 
L 351.577245 278.241191 
L 352.041701 278.476942 
L 352.506157 275.149774 
L 352.970613 279.126159 
L 353.435068 276.851656 
L 353.899524 282.239461 
L 354.36398 283.01049 
L 354.828435 282.148258 
L 355.292891 273.979384 
L 355.757347 277.777031 
L 356.221803 278.127594 
L 356.686258 281.577916 
L 357.150714 278.440381 
L 357.61517 278.061343 
L 358.079625 279.897281 
L 358.544081 274.793812 
L 359.008537 280.142614 
L 359.472993 271.377776 
L 359.937448 274.858107 
L 360.401904 282.492971 
L 360.86636 276.653164 
L 361.330815 278.919946 
L 361.795271 282.513645 
L 362.259727 272.50573 
L 362.724183 281.947933 
L 363.188638 278.436348 
L 363.653094 273.987649 
L 364.11755 276.45565 
L 364.582005 277.629993 
L 365.046461 279.693942 
L 365.510917 277.780773 
L 365.975373 284.300823 
L 366.439828 279.05928 
L 366.904284 282.790086 
L 367.36874 274.978695 
L 367.833195 278.846487 
L 368.297651 281.130404 
L 368.762107 277.233236 
L 369.226563 274.676573 
L 369.691018 281.767788 
L 370.155474 276.358857 
L 370.61993 281.550501 
L 371.084385 275.445137 
L 371.548841 277.709835 
L 372.013297 275.039885 
L 372.477753 282.045282 
L 372.942208 281.056396 
L 373.406664 274.760602 
L 373.87112 277.83833 
L 374.335575 286.948523 
L 374.800031 272.831521 
L 375.264487 283.195548 
L 375.728943 278.225464 
L 376.193398 285.033388 
L 376.657854 283.175877 
L 377.12231 282.539072 
L 377.586766 271.517803 
L 378.051221 279.734324 
L 378.515677 274.091492 
L 378.980133 276.943024 
L 379.444588 280.735881 
L 379.909044 277.939561 
L 380.3735 282.526206 
L 380.837956 277.691264 
L 381.302411 276.706856 
L 381.766867 280.459293 
L 382.231323 277.582322 
L 382.695778 277.802365 
L 383.160234 274.738131 
L 383.62469 272.788151 
L 384.089146 283.542353 
L 384.553601 286.716324 
L 385.482513 271.629437 
L 385.946968 276.209046 
L 386.411424 271.106965 
L 386.87588 281.663845 
L 387.340336 283.695764 
L 387.804791 286.356748 
L 388.733703 271.756788 
L 389.198158 274.676196 
L 389.662614 281.007939 
L 390.12707 275.59453 
L 390.591526 281.281106 
L 391.055981 269.508714 
L 391.520437 283.738479 
L 391.984893 283.331824 
L 392.449348 274.621807 
L 392.913804 291.97981 
L 393.37826 270.433275 
L 394.307171 279.061669 
L 394.771627 281.278767 
L 395.236083 274.888095 
L 395.700538 280.395912 
L 396.164994 269.695624 
L 396.62945 285.867845 
L 397.093906 274.224086 
L 397.558361 276.586683 
L 398.022817 279.868395 
L 398.487273 281.510793 
L 398.487273 281.510793 
" style="fill:none;stroke:#1f77b4;stroke-linecap:square;stroke-width:1.5;"/>
   </g>
   <g id="line2d_18">
    <path clip-path="url(#p07bf476727)" d="M 73.832727 84.830159 
L 74.297183 116.226779 
L 74.761639 110.491596 
L 75.226094 130.474491 
L 75.69055 132.737436 
L 76.155006 132.514424 
L 76.619462 143.018513 
L 78.012829 165.725107 
L 78.94174 159.137953 
L 79.406196 167.75659 
L 79.870652 172.147338 
L 80.335107 166.993288 
L 80.799563 167.604381 
L 81.264019 169.747362 
L 81.728474 179.635829 
L 82.19293 181.221968 
L 82.657386 166.647538 
L 83.121842 176.424152 
L 84.515209 187.305527 
L 84.979664 186.987874 
L 85.44412 190.264274 
L 85.908576 185.637318 
L 86.373032 193.515407 
L 87.301943 189.710382 
L 87.766399 197.306113 
L 88.230854 200.754409 
L 88.69531 195.101134 
L 89.159766 197.015317 
L 89.624222 201.222068 
L 90.088677 207.307617 
L 90.553133 210.845687 
L 91.017589 202.113575 
L 91.482044 206.743006 
L 91.9465 201.768096 
L 92.410956 206.582023 
L 92.875412 203.466309 
L 93.339867 205.509851 
L 93.804323 204.243999 
L 94.268779 199.295056 
L 94.733234 218.775261 
L 95.19769 215.28618 
L 95.662146 218.592177 
L 96.126602 212.875248 
L 96.591057 216.63218 
L 97.055513 213.047216 
L 97.519969 221.477628 
L 97.984425 218.176917 
L 98.44888 212.976688 
L 98.913336 226.020152 
L 99.377792 214.149572 
L 99.842247 228.962917 
L 100.306703 208.977392 
L 101.235615 226.245452 
L 101.70007 214.307797 
L 102.164526 225.610714 
L 102.628982 226.767579 
L 103.093437 220.812759 
L 103.557893 223.679134 
L 104.022349 202.520236 
L 104.486805 221.484176 
L 104.95126 220.722677 
L 105.415716 216.93686 
L 105.880172 205.078717 
L 106.344627 226.218995 
L 106.809083 223.439379 
L 107.273539 219.235973 
L 107.737995 231.810619 
L 108.20245 236.721155 
L 108.666906 224.413986 
L 109.131362 229.510683 
L 109.595817 230.99203 
L 110.060273 230.631032 
L 110.524729 224.677709 
L 110.989185 229.77927 
L 111.45364 228.943421 
L 111.918096 231.655627 
L 112.382552 224.564363 
L 112.847007 228.00468 
L 113.311463 235.715401 
L 113.775919 235.29866 
L 114.240375 235.963293 
L 114.70483 241.828917 
L 115.169286 230.60068 
L 115.633742 239.48221 
L 116.098197 242.575527 
L 116.562653 234.448859 
L 117.027109 240.17649 
L 117.491565 228.655981 
L 117.95602 232.604338 
L 118.420476 241.270717 
L 118.884932 223.069088 
L 119.349387 241.207743 
L 119.813843 240.460185 
L 120.278299 229.644195 
L 120.742755 230.623415 
L 121.20721 232.239074 
L 122.136122 245.41047 
L 122.600577 237.71365 
L 123.065033 239.380632 
L 123.529489 244.508742 
L 123.993945 243.164184 
L 124.4584 239.901131 
L 124.922856 242.772678 
L 125.387312 241.519469 
L 125.851767 230.210686 
L 126.316223 246.538935 
L 126.780679 242.830285 
L 127.245135 252.661981 
L 127.70959 247.356521 
L 128.174046 245.834216 
L 128.638502 237.938343 
L 129.102957 246.413894 
L 129.567413 245.992588 
L 130.031869 244.613198 
L 130.496325 246.601495 
L 130.96078 240.192366 
L 131.425236 249.495243 
L 131.889692 237.518035 
L 132.354147 233.772278 
L 132.818603 233.820034 
L 133.283059 241.04329 
L 133.747515 235.585382 
L 134.21197 234.376768 
L 134.676426 243.566785 
L 135.140882 241.135135 
L 135.605337 237.575203 
L 136.069793 235.384566 
L 136.534249 247.252623 
L 136.998705 241.449146 
L 137.46316 242.435963 
L 137.927616 252.985941 
L 138.392072 252.448538 
L 138.856528 239.493625 
L 139.320983 247.116334 
L 139.785439 252.413472 
L 140.249895 248.420254 
L 140.71435 233.57927 
L 141.178806 243.232805 
L 141.643262 239.624658 
L 142.107718 244.001163 
L 142.572173 263.907235 
L 143.036629 255.207646 
L 143.501085 253.083553 
L 143.96554 244.999063 
L 144.429996 253.518017 
L 144.894452 249.590242 
L 145.358908 251.56931 
L 145.823363 251.28008 
L 146.287819 239.873733 
L 146.752275 261.292968 
L 147.21673 255.555532 
L 147.681186 248.023869 
L 148.145642 254.665349 
L 148.610098 267.521135 
L 149.074553 265.169591 
L 150.003465 257.756937 
L 150.46792 258.205187 
L 150.932376 249.965851 
L 151.396832 248.990712 
L 151.861288 245.9478 
L 152.325743 251.014496 
L 152.790199 248.808272 
L 153.254655 232.930024 
L 153.71911 264.060928 
L 154.183566 252.902214 
L 154.648022 255.651086 
L 155.112478 251.072236 
L 155.576933 243.833048 
L 156.041389 251.552707 
L 156.505845 245.466654 
L 156.9703 258.762502 
L 157.434756 262.868172 
L 158.363668 255.055804 
L 158.828123 262.364429 
L 159.292579 265.076384 
L 159.757035 262.1872 
L 160.22149 257.358563 
L 160.685946 256.264602 
L 161.150402 248.479647 
L 161.614858 254.293552 
L 162.079313 254.914112 
L 162.543769 261.910868 
L 163.008225 273.283538 
L 163.47268 268.5301 
L 163.937136 256.208014 
L 164.401592 262.874439 
L 164.866048 266.620466 
L 165.330503 256.227218 
L 165.794959 264.73154 
L 166.259415 261.787425 
L 166.72387 261.167834 
L 167.652782 253.230479 
L 168.117238 254.950444 
L 168.581693 258.968854 
L 169.510605 262.897057 
L 169.97506 263.529102 
L 170.439516 266.017212 
L 170.903972 269.912544 
L 171.368428 266.640196 
L 171.832883 266.159843 
L 172.297339 257.608625 
L 172.761795 258.419931 
L 173.22625 264.959343 
L 173.690706 256.726044 
L 174.155162 258.818333 
L 174.619618 250.703656 
L 175.084073 263.675985 
L 175.548529 260.735428 
L 176.012985 265.340051 
L 176.47744 257.142352 
L 176.941896 265.662122 
L 177.406352 265.261551 
L 177.870808 267.301185 
L 178.335263 271.688546 
L 178.799719 251.507292 
L 179.264175 259.866393 
L 179.728631 264.231396 
L 180.193086 263.265629 
L 180.657542 269.073874 
L 181.121998 267.440673 
L 181.586453 262.881109 
L 182.050909 272.125903 
L 182.979821 253.539026 
L 183.908732 271.135204 
L 184.373188 261.544785 
L 184.837643 263.679883 
L 185.302099 257.351792 
L 186.231011 266.593427 
L 186.695466 260.117795 
L 187.159922 255.524987 
L 187.624378 270.220887 
L 188.088833 269.423393 
L 188.553289 260.572851 
L 189.017745 260.068837 
L 189.482201 260.363618 
L 189.946656 271.513234 
L 190.411112 254.594192 
L 190.875568 262.675796 
L 191.340023 272.87804 
L 191.804479 268.919358 
L 192.268935 262.759237 
L 192.733391 263.644092 
L 193.197846 268.693607 
L 193.662302 262.851669 
L 194.126758 261.817428 
L 194.591213 275.493764 
L 195.055669 271.256422 
L 195.520125 272.587283 
L 195.984581 272.298183 
L 196.449036 267.285802 
L 196.913492 265.400512 
L 197.377948 270.090818 
L 197.842403 265.664508 
L 198.306859 273.613234 
L 198.771315 258.665104 
L 199.700226 278.47167 
L 200.164682 265.921835 
L 200.629138 277.970611 
L 201.093593 264.218119 
L 201.558049 259.468922 
L 202.022505 258.671368 
L 202.486961 268.654498 
L 202.951416 262.364124 
L 203.415872 276.328026 
L 203.880328 271.44406 
L 204.344783 269.71325 
L 204.809239 253.957313 
L 205.273695 265.044116 
L 205.738151 266.410102 
L 206.202606 266.941072 
L 206.667062 250.819253 
L 207.131518 259.18363 
L 207.595973 270.69024 
L 208.060429 260.279939 
L 208.524885 280.982346 
L 208.989341 254.854803 
L 209.453796 271.877664 
L 209.918252 276.636433 
L 210.382708 264.151329 
L 210.847163 265.806343 
L 211.311619 269.14242 
L 211.776075 260.173267 
L 212.240531 246.835951 
L 212.704986 271.857894 
L 213.169442 271.528214 
L 214.098353 257.433743 
L 214.562809 262.381583 
L 215.027265 262.860932 
L 215.956176 269.11329 
L 216.420632 270.706972 
L 216.885088 269.340285 
L 217.349544 260.728901 
L 217.813999 265.225786 
L 218.278455 264.267644 
L 218.742911 287.331188 
L 219.207366 269.227169 
L 219.671822 280.870193 
L 220.136278 271.860162 
L 220.600734 271.18727 
L 221.065189 276.041165 
L 221.529645 294.80426 
L 221.994101 237.042906 
L 222.458556 278.931796 
L 222.923012 267.171423 
L 223.387468 279.872118 
L 223.851924 269.184541 
L 224.316379 269.419974 
L 224.780835 254.12422 
L 225.245291 275.3296 
L 225.709746 262.434196 
L 226.174202 262.488702 
L 226.638658 264.712786 
L 227.103114 270.437815 
L 227.567569 269.558395 
L 228.032025 280.588861 
L 228.496481 269.153274 
L 228.960936 280.601226 
L 229.425392 277.523501 
L 229.889848 264.525575 
L 230.354304 261.552167 
L 230.818759 274.330207 
L 231.283215 261.230306 
L 231.747671 277.059325 
L 232.676582 262.244763 
L 233.141038 267.761854 
L 233.605494 276.144636 
L 234.069949 269.020701 
L 234.534405 275.051094 
L 234.998861 263.333383 
L 235.463316 274.479528 
L 235.927772 269.118293 
L 236.392228 269.994259 
L 236.856684 278.665515 
L 237.321139 275.217888 
L 237.785595 262.317016 
L 238.250051 261.792818 
L 238.714506 262.609948 
L 239.178962 273.622111 
L 239.643418 266.442244 
L 240.107874 277.219475 
L 240.572329 277.591525 
L 241.036785 257.262671 
L 241.501241 267.227507 
L 241.965696 272.563048 
L 242.430152 281.404495 
L 242.894608 268.810352 
L 243.359064 265.35828 
L 243.823519 285.517859 
L 244.287975 272.591156 
L 244.752431 266.428221 
L 245.216886 272.706175 
L 245.681342 262.209781 
L 246.145798 271.452332 
L 246.610254 250.99237 
L 247.074709 259.878732 
L 247.539165 273.340457 
L 248.003621 270.148274 
L 248.468076 277.717944 
L 248.932532 274.326841 
L 249.396988 272.865247 
L 249.861444 268.192886 
L 250.325899 265.249053 
L 250.790355 274.287967 
L 251.254811 268.72042 
L 251.719266 276.319805 
L 252.183722 263.800154 
L 252.648178 266.781702 
L 253.112634 270.510656 
L 253.577089 280.926367 
L 254.041545 275.922881 
L 254.506001 266.868398 
L 254.970456 274.936674 
L 255.434912 268.723802 
L 255.899368 275.394309 
L 256.363824 264.804631 
L 257.292735 278.784741 
L 257.757191 280.262438 
L 258.221647 278.096575 
L 258.686102 274.15766 
L 259.150558 267.828443 
L 259.615014 275.246516 
L 260.079469 261.232947 
L 260.543925 263.375085 
L 261.008381 280.419837 
L 261.472837 275.508921 
L 261.937292 266.665164 
L 262.401748 260.353912 
L 262.866204 259.948468 
L 263.330659 263.745958 
L 263.795115 278.108164 
L 264.724027 261.379537 
L 265.188482 283.120416 
L 265.652938 276.085533 
L 266.117394 272.353307 
L 266.581849 260.31702 
L 267.046305 268.05964 
L 267.510761 264.684873 
L 267.975217 279.811981 
L 268.439672 268.332195 
L 268.904128 277.476594 
L 269.368584 279.592535 
L 270.297495 270.557189 
L 270.761951 281.2296 
L 271.226407 281.42068 
L 271.690862 267.143465 
L 272.155318 272.484462 
L 272.619774 270.646449 
L 273.084229 277.684489 
L 273.548685 272.281232 
L 274.013141 274.688354 
L 274.477597 266.791183 
L 274.942052 268.604307 
L 275.406508 276.957727 
L 275.870964 266.187423 
L 276.335419 274.986953 
L 276.799875 260.626934 
L 277.264331 278.15313 
L 277.728787 264.998357 
L 278.193242 264.184164 
L 278.657698 276.628184 
L 279.122154 268.270395 
L 279.586609 269.518412 
L 280.051065 269.713327 
L 280.515521 270.689196 
L 280.979977 272.075397 
L 281.444432 275.292349 
L 281.908888 273.333033 
L 282.373344 275.384477 
L 282.837799 284.754437 
L 283.302255 287.689337 
L 283.766711 272.771346 
L 284.231167 274.826637 
L 284.695622 269.118813 
L 285.160078 267.889622 
L 285.624534 293.269303 
L 286.088989 272.068139 
L 286.553445 274.206935 
L 287.017901 268.697455 
L 287.482357 285.037315 
L 287.946812 278.011637 
L 288.411268 268.21996 
L 288.875724 263.427626 
L 289.804635 287.117815 
L 290.269091 280.514328 
L 290.733547 286.062792 
L 291.198002 284.319306 
L 291.662458 284.884657 
L 292.126914 272.892119 
L 292.591369 281.169847 
L 293.055825 266.944508 
L 293.520281 266.274267 
L 293.984737 270.624297 
L 294.449192 263.882747 
L 294.913648 270.204432 
L 295.378104 281.555821 
L 295.84256 281.835392 
L 296.307015 278.384978 
L 296.771471 265.774779 
L 297.235927 282.28966 
L 297.700382 280.968132 
L 298.164838 274.555743 
L 298.629294 274.641668 
L 299.09375 267.951991 
L 299.558205 295.488 
L 300.022661 271.794186 
L 300.487117 277.982088 
L 300.951572 272.914559 
L 301.416028 274.673933 
L 301.880484 255.852605 
L 302.34494 276.942237 
L 302.809395 269.942952 
L 303.273851 272.972735 
L 303.738307 274.793335 
L 304.202762 284.941379 
L 304.667218 259.344163 
L 305.131674 278.932295 
L 305.59613 265.626687 
L 306.060585 282.470925 
L 306.525041 280.489111 
L 306.989497 276.113316 
L 307.453952 277.007069 
L 307.918408 266.821755 
L 308.382864 272.075282 
L 308.84732 263.191995 
L 309.311775 265.903989 
L 309.776231 272.263656 
L 310.240687 276.780176 
L 310.705142 285.469858 
L 311.169598 277.317241 
L 311.634054 280.934575 
L 312.09851 278.918033 
L 312.562965 270.606212 
L 313.027421 284.348909 
L 313.491877 280.662299 
L 313.956332 278.10284 
L 314.420788 278.028773 
L 314.885244 264.625173 
L 315.3497 273.44614 
L 315.814155 259.959683 
L 316.278611 286.255539 
L 316.743067 279.948893 
L 317.207522 281.764729 
L 317.671978 267.877093 
L 318.136434 271.198457 
L 318.60089 278.151336 
L 319.065345 277.974612 
L 319.529801 281.467885 
L 319.994257 281.948505 
L 320.458712 281.679256 
L 320.923168 273.136091 
L 321.387624 272.117945 
L 321.85208 278.456642 
L 322.780991 287.354703 
L 323.245447 272.082472 
L 323.709902 279.513161 
L 324.174358 277.901527 
L 324.638814 294.056744 
L 325.10327 280.008588 
L 325.567725 280.442623 
L 326.032181 261.213231 
L 326.496637 273.363641 
L 326.961092 276.756145 
L 327.425548 267.721383 
L 327.890004 267.451107 
L 328.35446 278.109103 
L 328.818915 264.031241 
L 329.283371 278.307632 
L 329.747827 280.678584 
L 330.212282 265.009452 
L 330.676738 280.817546 
L 331.60565 271.476165 
L 332.070105 268.589246 
L 332.534561 276.591407 
L 332.999017 274.544151 
L 333.463472 275.363184 
L 333.927928 267.721715 
L 334.392384 278.85756 
L 334.85684 286.394492 
L 335.321295 268.684583 
L 335.785751 277.880322 
L 336.250207 265.584616 
L 336.714663 266.499642 
L 337.179118 259.324691 
L 337.643574 284.013337 
L 338.572485 270.5144 
L 339.036941 281.355253 
L 339.501397 280.929102 
L 339.965853 280.780961 
L 340.430308 269.310733 
L 340.894764 277.040027 
L 341.35922 282.171494 
L 341.823675 265.88506 
L 342.288131 265.352519 
L 342.752587 278.32497 
L 343.217043 274.645332 
L 343.681498 274.925389 
L 344.145954 267.733795 
L 344.61041 278.270974 
L 345.074865 281.83182 
L 345.539321 288.359335 
L 346.003777 283.627118 
L 346.468233 269.369547 
L 346.932688 284.436491 
L 347.397144 268.593332 
L 347.8616 282.717965 
L 348.326055 260.039821 
L 348.790511 279.016107 
L 349.254967 271.686276 
L 349.719423 276.012712 
L 350.183878 268.845462 
L 351.11279 283.36914 
L 351.577245 270.733615 
L 352.041701 285.56669 
L 352.506157 269.033254 
L 352.970613 282.219698 
L 353.435068 278.053902 
L 353.899524 278.810011 
L 354.36398 293.196455 
L 354.828435 274.082083 
L 355.292891 278.465972 
L 355.757347 278.808983 
L 356.221803 274.899006 
L 356.686258 274.268431 
L 357.150714 274.88883 
L 357.61517 276.315522 
L 358.079625 281.375248 
L 358.544081 272.851211 
L 359.008537 290.1313 
L 359.472993 271.476155 
L 360.401904 279.949671 
L 360.86636 276.080718 
L 361.330815 278.985483 
L 361.795271 275.953364 
L 362.259727 284.435465 
L 362.724183 270.391973 
L 363.188638 277.791766 
L 363.653094 282.316318 
L 364.11755 279.765007 
L 364.582005 269.725991 
L 365.046461 270.454245 
L 365.510917 271.671941 
L 365.975373 277.895763 
L 366.439828 278.663527 
L 366.904284 269.822547 
L 367.36874 266.418058 
L 367.833195 283.773801 
L 368.762107 261.639092 
L 369.226563 272.97771 
L 369.691018 272.45716 
L 370.155474 269.923616 
L 370.61993 271.444298 
L 371.084385 272.146329 
L 371.548841 283.997388 
L 372.013297 277.888393 
L 372.477753 274.237688 
L 372.942208 281.460826 
L 373.406664 260.822006 
L 373.87112 274.909186 
L 374.335575 282.070339 
L 374.800031 264.796977 
L 375.264487 279.303721 
L 375.728943 275.702818 
L 376.193398 281.515289 
L 376.657854 271.669496 
L 377.12231 280.587088 
L 377.586766 285.891465 
L 378.051221 274.399244 
L 378.515677 274.962485 
L 378.980133 284.18946 
L 379.444588 285.43521 
L 380.3735 274.785748 
L 380.837956 277.689744 
L 381.302411 277.609071 
L 381.766867 271.147754 
L 382.231323 272.732363 
L 382.695778 276.366388 
L 383.160234 282.270534 
L 383.62469 281.10763 
L 384.089146 282.25325 
L 384.553601 269.16509 
L 385.018057 273.410238 
L 385.482513 271.335903 
L 385.946968 278.445953 
L 386.411424 282.491797 
L 386.87588 273.584927 
L 387.340336 280.001776 
L 387.804791 268.239919 
L 388.269247 277.530743 
L 388.733703 282.874135 
L 389.198158 272.616131 
L 389.662614 273.618732 
L 390.12707 276.963635 
L 390.591526 269.840958 
L 391.055981 278.08388 
L 391.520437 272.132091 
L 391.984893 279.142217 
L 392.449348 276.791785 
L 392.913804 284.649245 
L 393.37826 277.549083 
L 393.842716 268.746532 
L 394.307171 273.326561 
L 394.771627 279.663145 
L 395.236083 272.597725 
L 395.700538 289.687986 
L 396.164994 287.657189 
L 396.62945 266.751269 
L 397.093906 270.123366 
L 397.558361 269.899448 
L 398.022817 286.869587 
L 398.487273 279.658554 
L 398.487273 279.658554 
" style="fill:none;stroke:#ff7f0e;stroke-linecap:square;stroke-width:1.5;"/>
   </g>
   <g id="patch_3">
    <path d="M 57.6 307.584 
L 57.6 41.472 
" style="fill:none;stroke:#000000;stroke-linecap:square;stroke-linejoin:miter;stroke-width:0.8;"/>
   </g>
   <g id="patch_4">
    <path d="M 414.72 307.584 
L 414.72 41.472 
" style="fill:none;stroke:#000000;stroke-linecap:square;stroke-linejoin:miter;stroke-width:0.8;"/>
   </g>
   <g id="patch_5">
    <path d="M 57.6 307.584 
L 414.72 307.584 
" style="fill:none;stroke:#000000;stroke-linecap:square;stroke-linejoin:miter;stroke-width:0.8;"/>
   </g>
   <g id="patch_6">
    <path d="M 57.6 41.472 
L 414.72 41.472 
" style="fill:none;stroke:#000000;stroke-linecap:square;stroke-linejoin:miter;stroke-width:0.8;"/>
   </g>
   <g id="legend_1">
    <g id="patch_7">
     <path d="M 303.845 78.82825 
L 407.72 78.82825 
Q 409.72 78.82825 409.72 76.82825 
L 409.72 48.472 
Q 409.72 46.472 407.72 46.472 
L 303.845 46.472 
Q 301.845 46.472 301.845 48.472 
L 301.845 76.82825 
Q 301.845 78.82825 303.845 78.82825 
z
" style="fill:#ffffff;opacity:0.8;stroke:#cccccc;stroke-linejoin:miter;"/>
    </g>
    <g id="line2d_19">
     <path d="M 305.845 54.570437 
L 325.845 54.570437 
" style="fill:none;stroke:#1f77b4;stroke-linecap:square;stroke-width:1.5;"/>
    </g>
    <g id="line2d_20"/>
    <g id="text_18">
     <!-- Train loss -->
     <g transform="translate(333.845 58.070437)scale(0.1 -0.1)">
      <defs>
       <path d="M -19 4666 
L 3928 4666 
L 3928 4134 
L 2272 4134 
L 2272 0 
L 1638 0 
L 1638 4134 
L -19 4134 
L -19 4666 
z
" id="DejaVuSans-54" transform="scale(0.015625)"/>
       <path d="M 2631 2963 
Q 2534 3019 2420 3045 
Q 2306 3072 2169 3072 
Q 1681 3072 1420 2755 
Q 1159 2438 1159 1844 
L 1159 0 
L 581 0 
L 581 3500 
L 1159 3500 
L 1159 2956 
Q 1341 3275 1631 3429 
Q 1922 3584 2338 3584 
Q 2397 3584 2469 3576 
Q 2541 3569 2628 3553 
L 2631 2963 
z
" id="DejaVuSans-72" transform="scale(0.015625)"/>
       <path d="M 2194 1759 
Q 1497 1759 1228 1600 
Q 959 1441 959 1056 
Q 959 750 1161 570 
Q 1363 391 1709 391 
Q 2188 391 2477 730 
Q 2766 1069 2766 1631 
L 2766 1759 
L 2194 1759 
z
M 3341 1997 
L 3341 0 
L 2766 0 
L 2766 531 
Q 2569 213 2275 61 
Q 1981 -91 1556 -91 
Q 1019 -91 701 211 
Q 384 513 384 1019 
Q 384 1609 779 1909 
Q 1175 2209 1959 2209 
L 2766 2209 
L 2766 2266 
Q 2766 2663 2505 2880 
Q 2244 3097 1772 3097 
Q 1472 3097 1187 3025 
Q 903 2953 641 2809 
L 641 3341 
Q 956 3463 1253 3523 
Q 1550 3584 1831 3584 
Q 2591 3584 2966 3190 
Q 3341 2797 3341 1997 
z
" id="DejaVuSans-61" transform="scale(0.015625)"/>
       <path d="M 603 3500 
L 1178 3500 
L 1178 0 
L 603 0 
L 603 3500 
z
M 603 4863 
L 1178 4863 
L 1178 4134 
L 603 4134 
L 603 4863 
z
" id="DejaVuSans-69" transform="scale(0.015625)"/>
       <path d="M 3513 2113 
L 3513 0 
L 2938 0 
L 2938 2094 
Q 2938 2591 2744 2837 
Q 2550 3084 2163 3084 
Q 1697 3084 1428 2787 
Q 1159 2491 1159 1978 
L 1159 0 
L 581 0 
L 581 3500 
L 1159 3500 
L 1159 2956 
Q 1366 3272 1645 3428 
Q 1925 3584 2291 3584 
Q 2894 3584 3203 3211 
Q 3513 2838 3513 2113 
z
" id="DejaVuSans-6e" transform="scale(0.015625)"/>
       <path id="DejaVuSans-20" transform="scale(0.015625)"/>
       <path d="M 603 4863 
L 1178 4863 
L 1178 0 
L 603 0 
L 603 4863 
z
" id="DejaVuSans-6c" transform="scale(0.015625)"/>
       <path d="M 2834 3397 
L 2834 2853 
Q 2591 2978 2328 3040 
Q 2066 3103 1784 3103 
Q 1356 3103 1142 2972 
Q 928 2841 928 2578 
Q 928 2378 1081 2264 
Q 1234 2150 1697 2047 
L 1894 2003 
Q 2506 1872 2764 1633 
Q 3022 1394 3022 966 
Q 3022 478 2636 193 
Q 2250 -91 1575 -91 
Q 1294 -91 989 -36 
Q 684 19 347 128 
L 347 722 
Q 666 556 975 473 
Q 1284 391 1588 391 
Q 1994 391 2212 530 
Q 2431 669 2431 922 
Q 2431 1156 2273 1281 
Q 2116 1406 1581 1522 
L 1381 1569 
Q 847 1681 609 1914 
Q 372 2147 372 2553 
Q 372 3047 722 3315 
Q 1072 3584 1716 3584 
Q 2034 3584 2315 3537 
Q 2597 3491 2834 3397 
z
" id="DejaVuSans-73" transform="scale(0.015625)"/>
      </defs>
      <use xlink:href="#DejaVuSans-54"/>
      <use x="46.333984" xlink:href="#DejaVuSans-72"/>
      <use x="87.447266" xlink:href="#DejaVuSans-61"/>
      <use x="148.726562" xlink:href="#DejaVuSans-69"/>
      <use x="176.509766" xlink:href="#DejaVuSans-6e"/>
      <use x="239.888672" xlink:href="#DejaVuSans-20"/>
      <use x="271.675781" xlink:href="#DejaVuSans-6c"/>
      <use x="299.458984" xlink:href="#DejaVuSans-6f"/>
      <use x="360.640625" xlink:href="#DejaVuSans-73"/>
      <use x="412.740234" xlink:href="#DejaVuSans-73"/>
     </g>
    </g>
    <g id="line2d_21">
     <path d="M 305.845 69.248562 
L 325.845 69.248562 
" style="fill:none;stroke:#ff7f0e;stroke-linecap:square;stroke-width:1.5;"/>
    </g>
    <g id="line2d_22"/>
    <g id="text_19">
     <!-- Validation loss -->
     <g transform="translate(333.845 72.748562)scale(0.1 -0.1)">
      <defs>
       <path d="M 1831 0 
L 50 4666 
L 709 4666 
L 2188 738 
L 3669 4666 
L 4325 4666 
L 2547 0 
L 1831 0 
z
" id="DejaVuSans-56" transform="scale(0.015625)"/>
       <path d="M 2906 2969 
L 2906 4863 
L 3481 4863 
L 3481 0 
L 2906 0 
L 2906 525 
Q 2725 213 2448 61 
Q 2172 -91 1784 -91 
Q 1150 -91 751 415 
Q 353 922 353 1747 
Q 353 2572 751 3078 
Q 1150 3584 1784 3584 
Q 2172 3584 2448 3432 
Q 2725 3281 2906 2969 
z
M 947 1747 
Q 947 1113 1208 752 
Q 1469 391 1925 391 
Q 2381 391 2643 752 
Q 2906 1113 2906 1747 
Q 2906 2381 2643 2742 
Q 2381 3103 1925 3103 
Q 1469 3103 1208 2742 
Q 947 2381 947 1747 
z
" id="DejaVuSans-64" transform="scale(0.015625)"/>
       <path d="M 1172 4494 
L 1172 3500 
L 2356 3500 
L 2356 3053 
L 1172 3053 
L 1172 1153 
Q 1172 725 1289 603 
Q 1406 481 1766 481 
L 2356 481 
L 2356 0 
L 1766 0 
Q 1100 0 847 248 
Q 594 497 594 1153 
L 594 3053 
L 172 3053 
L 172 3500 
L 594 3500 
L 594 4494 
L 1172 4494 
z
" id="DejaVuSans-74" transform="scale(0.015625)"/>
      </defs>
      <use xlink:href="#DejaVuSans-56"/>
      <use x="60.658203" xlink:href="#DejaVuSans-61"/>
      <use x="121.9375" xlink:href="#DejaVuSans-6c"/>
      <use x="149.720703" xlink:href="#DejaVuSans-69"/>
      <use x="177.503906" xlink:href="#DejaVuSans-64"/>
      <use x="240.980469" xlink:href="#DejaVuSans-61"/>
      <use x="302.259766" xlink:href="#DejaVuSans-74"/>
      <use x="341.46875" xlink:href="#DejaVuSans-69"/>
      <use x="369.251953" xlink:href="#DejaVuSans-6f"/>
      <use x="430.433594" xlink:href="#DejaVuSans-6e"/>
      <use x="493.8125" xlink:href="#DejaVuSans-20"/>
      <use x="525.599609" xlink:href="#DejaVuSans-6c"/>
      <use x="553.382812" xlink:href="#DejaVuSans-6f"/>
      <use x="614.564453" xlink:href="#DejaVuSans-73"/>
      <use x="666.664062" xlink:href="#DejaVuSans-73"/>
     </g>
    </g>
   </g>
  </g>
 </g>
 <defs>
  <clipPath id="p07bf476727">
   <rect height="266.112" width="357.12" x="57.6" y="41.472"/>
  </clipPath>
 </defs>
</svg>
