<?xml version="1.0" encoding="utf-8" standalone="no"?>
<!DOCTYPE svg PUBLIC "-//W3C//DTD SVG 1.1//EN"
  "http://www.w3.org/Graphics/SVG/1.1/DTD/svg11.dtd">
<svg height="345.6pt" version="1.1" viewBox="0 0 460.8 345.6" width="460.8pt" xmlns="http://www.w3.org/2000/svg" xmlns:xlink="http://www.w3.org/1999/xlink">
 <metadata>
  <rdf:RDF xmlns:cc="http://creativecommons.org/ns#" xmlns:dc="http://purl.org/dc/elements/1.1/" xmlns:rdf="http://www.w3.org/1999/02/22-rdf-syntax-ns#">
   <cc:Work>
    <dc:type rdf:resource="http://purl.org/dc/dcmitype/StillImage"/>
    <dc:date>2021-07-14T02:39:20.702294</dc:date>
    <dc:format>image/svg+xml</dc:format>
    <dc:creator>
     <cc:Agent>
      <dc:title>Matplotlib v3.4.2, https://matplotlib.org/</dc:title>
     </cc:Agent>
    </dc:creator>
   </cc:Work>
  </rdf:RDF>
 </metadata>
 <defs>
  <style type="text/css">*{stroke-linecap:butt;stroke-linejoin:round;}</style>
 </defs>
 <g id="figure_1">
  <g id="patch_1">
   <path d="M 0 345.6 
L 460.8 345.6 
L 460.8 0 
L 0 0 
z
" style="fill:#ffffff;"/>
  </g>
  <g id="axes_1">
   <g id="patch_2">
    <path d="M 57.6 307.584 
L 414.72 307.584 
L 414.72 41.472 
L 57.6 41.472 
z
" style="fill:#ffffff;"/>
   </g>
   <g id="matplotlib.axis_1">
    <g id="xtick_1">
     <g id="line2d_1">
      <defs>
       <path d="M 0 0 
L 0 3.5 
" id="m03f62f59bb" style="stroke:#000000;stroke-width:0.8;"/>
      </defs>
      <g>
       <use style="stroke:#000000;stroke-width:0.8;" x="73.019057" xlink:href="#m03f62f59bb" y="307.584"/>
      </g>
     </g>
     <g id="text_1">
      <!-- 0 -->
      <g transform="translate(69.837807 322.182437)scale(0.1 -0.1)">
       <defs>
        <path d="M 2034 4250 
Q 1547 4250 1301 3770 
Q 1056 3291 1056 2328 
Q 1056 1369 1301 889 
Q 1547 409 2034 409 
Q 2525 409 2770 889 
Q 3016 1369 3016 2328 
Q 3016 3291 2770 3770 
Q 2525 4250 2034 4250 
z
M 2034 4750 
Q 2819 4750 3233 4129 
Q 3647 3509 3647 2328 
Q 3647 1150 3233 529 
Q 2819 -91 2034 -91 
Q 1250 -91 836 529 
Q 422 1150 422 2328 
Q 422 3509 836 4129 
Q 1250 4750 2034 4750 
z
" id="DejaVuSans-30" transform="scale(0.015625)"/>
       </defs>
       <use xlink:href="#DejaVuSans-30"/>
      </g>
     </g>
    </g>
    <g id="xtick_2">
     <g id="line2d_2">
      <g>
       <use style="stroke:#000000;stroke-width:0.8;" x="113.702584" xlink:href="#m03f62f59bb" y="307.584"/>
      </g>
     </g>
     <g id="text_2">
      <!-- 50 -->
      <g transform="translate(107.340084 322.182437)scale(0.1 -0.1)">
       <defs>
        <path d="M 691 4666 
L 3169 4666 
L 3169 4134 
L 1269 4134 
L 1269 2991 
Q 1406 3038 1543 3061 
Q 1681 3084 1819 3084 
Q 2600 3084 3056 2656 
Q 3513 2228 3513 1497 
Q 3513 744 3044 326 
Q 2575 -91 1722 -91 
Q 1428 -91 1123 -41 
Q 819 9 494 109 
L 494 744 
Q 775 591 1075 516 
Q 1375 441 1709 441 
Q 2250 441 2565 725 
Q 2881 1009 2881 1497 
Q 2881 1984 2565 2268 
Q 2250 2553 1709 2553 
Q 1456 2553 1204 2497 
Q 953 2441 691 2322 
L 691 4666 
z
" id="DejaVuSans-35" transform="scale(0.015625)"/>
       </defs>
       <use xlink:href="#DejaVuSans-35"/>
       <use x="63.623047" xlink:href="#DejaVuSans-30"/>
      </g>
     </g>
    </g>
    <g id="xtick_3">
     <g id="line2d_3">
      <g>
       <use style="stroke:#000000;stroke-width:0.8;" x="154.386111" xlink:href="#m03f62f59bb" y="307.584"/>
      </g>
     </g>
     <g id="text_3">
      <!-- 100 -->
      <g transform="translate(144.842361 322.182437)scale(0.1 -0.1)">
       <defs>
        <path d="M 794 531 
L 1825 531 
L 1825 4091 
L 703 3866 
L 703 4441 
L 1819 4666 
L 2450 4666 
L 2450 531 
L 3481 531 
L 3481 0 
L 794 0 
L 794 531 
z
" id="DejaVuSans-31" transform="scale(0.015625)"/>
       </defs>
       <use xlink:href="#DejaVuSans-31"/>
       <use x="63.623047" xlink:href="#DejaVuSans-30"/>
       <use x="127.246094" xlink:href="#DejaVuSans-30"/>
      </g>
     </g>
    </g>
    <g id="xtick_4">
     <g id="line2d_4">
      <g>
       <use style="stroke:#000000;stroke-width:0.8;" x="195.069638" xlink:href="#m03f62f59bb" y="307.584"/>
      </g>
     </g>
     <g id="text_4">
      <!-- 150 -->
      <g transform="translate(185.525888 322.182437)scale(0.1 -0.1)">
       <use xlink:href="#DejaVuSans-31"/>
       <use x="63.623047" xlink:href="#DejaVuSans-35"/>
       <use x="127.246094" xlink:href="#DejaVuSans-30"/>
      </g>
     </g>
    </g>
    <g id="xtick_5">
     <g id="line2d_5">
      <g>
       <use style="stroke:#000000;stroke-width:0.8;" x="235.753165" xlink:href="#m03f62f59bb" y="307.584"/>
      </g>
     </g>
     <g id="text_5">
      <!-- 200 -->
      <g transform="translate(226.209415 322.182437)scale(0.1 -0.1)">
       <defs>
        <path d="M 1228 531 
L 3431 531 
L 3431 0 
L 469 0 
L 469 531 
Q 828 903 1448 1529 
Q 2069 2156 2228 2338 
Q 2531 2678 2651 2914 
Q 2772 3150 2772 3378 
Q 2772 3750 2511 3984 
Q 2250 4219 1831 4219 
Q 1534 4219 1204 4116 
Q 875 4013 500 3803 
L 500 4441 
Q 881 4594 1212 4672 
Q 1544 4750 1819 4750 
Q 2544 4750 2975 4387 
Q 3406 4025 3406 3419 
Q 3406 3131 3298 2873 
Q 3191 2616 2906 2266 
Q 2828 2175 2409 1742 
Q 1991 1309 1228 531 
z
" id="DejaVuSans-32" transform="scale(0.015625)"/>
       </defs>
       <use xlink:href="#DejaVuSans-32"/>
       <use x="63.623047" xlink:href="#DejaVuSans-30"/>
       <use x="127.246094" xlink:href="#DejaVuSans-30"/>
      </g>
     </g>
    </g>
    <g id="xtick_6">
     <g id="line2d_6">
      <g>
       <use style="stroke:#000000;stroke-width:0.8;" x="276.436692" xlink:href="#m03f62f59bb" y="307.584"/>
      </g>
     </g>
     <g id="text_6">
      <!-- 250 -->
      <g transform="translate(266.892942 322.182437)scale(0.1 -0.1)">
       <use xlink:href="#DejaVuSans-32"/>
       <use x="63.623047" xlink:href="#DejaVuSans-35"/>
       <use x="127.246094" xlink:href="#DejaVuSans-30"/>
      </g>
     </g>
    </g>
    <g id="xtick_7">
     <g id="line2d_7">
      <g>
       <use style="stroke:#000000;stroke-width:0.8;" x="317.120219" xlink:href="#m03f62f59bb" y="307.584"/>
      </g>
     </g>
     <g id="text_7">
      <!-- 300 -->
      <g transform="translate(307.576469 322.182437)scale(0.1 -0.1)">
       <defs>
        <path d="M 2597 2516 
Q 3050 2419 3304 2112 
Q 3559 1806 3559 1356 
Q 3559 666 3084 287 
Q 2609 -91 1734 -91 
Q 1441 -91 1130 -33 
Q 819 25 488 141 
L 488 750 
Q 750 597 1062 519 
Q 1375 441 1716 441 
Q 2309 441 2620 675 
Q 2931 909 2931 1356 
Q 2931 1769 2642 2001 
Q 2353 2234 1838 2234 
L 1294 2234 
L 1294 2753 
L 1863 2753 
Q 2328 2753 2575 2939 
Q 2822 3125 2822 3475 
Q 2822 3834 2567 4026 
Q 2313 4219 1838 4219 
Q 1578 4219 1281 4162 
Q 984 4106 628 3988 
L 628 4550 
Q 988 4650 1302 4700 
Q 1616 4750 1894 4750 
Q 2613 4750 3031 4423 
Q 3450 4097 3450 3541 
Q 3450 3153 3228 2886 
Q 3006 2619 2597 2516 
z
" id="DejaVuSans-33" transform="scale(0.015625)"/>
       </defs>
       <use xlink:href="#DejaVuSans-33"/>
       <use x="63.623047" xlink:href="#DejaVuSans-30"/>
       <use x="127.246094" xlink:href="#DejaVuSans-30"/>
      </g>
     </g>
    </g>
    <g id="xtick_8">
     <g id="line2d_8">
      <g>
       <use style="stroke:#000000;stroke-width:0.8;" x="357.803746" xlink:href="#m03f62f59bb" y="307.584"/>
      </g>
     </g>
     <g id="text_8">
      <!-- 350 -->
      <g transform="translate(348.259996 322.182437)scale(0.1 -0.1)">
       <use xlink:href="#DejaVuSans-33"/>
       <use x="63.623047" xlink:href="#DejaVuSans-35"/>
       <use x="127.246094" xlink:href="#DejaVuSans-30"/>
      </g>
     </g>
    </g>
    <g id="xtick_9">
     <g id="line2d_9">
      <g>
       <use style="stroke:#000000;stroke-width:0.8;" x="398.487273" xlink:href="#m03f62f59bb" y="307.584"/>
      </g>
     </g>
     <g id="text_9">
      <!-- 400 -->
      <g transform="translate(388.943523 322.182437)scale(0.1 -0.1)">
       <defs>
        <path d="M 2419 4116 
L 825 1625 
L 2419 1625 
L 2419 4116 
z
M 2253 4666 
L 3047 4666 
L 3047 1625 
L 3713 1625 
L 3713 1100 
L 3047 1100 
L 3047 0 
L 2419 0 
L 2419 1100 
L 313 1100 
L 313 1709 
L 2253 4666 
z
" id="DejaVuSans-34" transform="scale(0.015625)"/>
       </defs>
       <use xlink:href="#DejaVuSans-34"/>
       <use x="63.623047" xlink:href="#DejaVuSans-30"/>
       <use x="127.246094" xlink:href="#DejaVuSans-30"/>
      </g>
     </g>
    </g>
    <g id="text_10">
     <!-- Epoch -->
     <g transform="translate(213.193594 339.659781)scale(0.15 -0.15)">
      <defs>
       <path d="M 628 4666 
L 3578 4666 
L 3578 4134 
L 1259 4134 
L 1259 2753 
L 3481 2753 
L 3481 2222 
L 1259 2222 
L 1259 531 
L 3634 531 
L 3634 0 
L 628 0 
L 628 4666 
z
" id="DejaVuSans-45" transform="scale(0.015625)"/>
       <path d="M 1159 525 
L 1159 -1331 
L 581 -1331 
L 581 3500 
L 1159 3500 
L 1159 2969 
Q 1341 3281 1617 3432 
Q 1894 3584 2278 3584 
Q 2916 3584 3314 3078 
Q 3713 2572 3713 1747 
Q 3713 922 3314 415 
Q 2916 -91 2278 -91 
Q 1894 -91 1617 61 
Q 1341 213 1159 525 
z
M 3116 1747 
Q 3116 2381 2855 2742 
Q 2594 3103 2138 3103 
Q 1681 3103 1420 2742 
Q 1159 2381 1159 1747 
Q 1159 1113 1420 752 
Q 1681 391 2138 391 
Q 2594 391 2855 752 
Q 3116 1113 3116 1747 
z
" id="DejaVuSans-70" transform="scale(0.015625)"/>
       <path d="M 1959 3097 
Q 1497 3097 1228 2736 
Q 959 2375 959 1747 
Q 959 1119 1226 758 
Q 1494 397 1959 397 
Q 2419 397 2687 759 
Q 2956 1122 2956 1747 
Q 2956 2369 2687 2733 
Q 2419 3097 1959 3097 
z
M 1959 3584 
Q 2709 3584 3137 3096 
Q 3566 2609 3566 1747 
Q 3566 888 3137 398 
Q 2709 -91 1959 -91 
Q 1206 -91 779 398 
Q 353 888 353 1747 
Q 353 2609 779 3096 
Q 1206 3584 1959 3584 
z
" id="DejaVuSans-6f" transform="scale(0.015625)"/>
       <path d="M 3122 3366 
L 3122 2828 
Q 2878 2963 2633 3030 
Q 2388 3097 2138 3097 
Q 1578 3097 1268 2742 
Q 959 2388 959 1747 
Q 959 1106 1268 751 
Q 1578 397 2138 397 
Q 2388 397 2633 464 
Q 2878 531 3122 666 
L 3122 134 
Q 2881 22 2623 -34 
Q 2366 -91 2075 -91 
Q 1284 -91 818 406 
Q 353 903 353 1747 
Q 353 2603 823 3093 
Q 1294 3584 2113 3584 
Q 2378 3584 2631 3529 
Q 2884 3475 3122 3366 
z
" id="DejaVuSans-63" transform="scale(0.015625)"/>
       <path d="M 3513 2113 
L 3513 0 
L 2938 0 
L 2938 2094 
Q 2938 2591 2744 2837 
Q 2550 3084 2163 3084 
Q 1697 3084 1428 2787 
Q 1159 2491 1159 1978 
L 1159 0 
L 581 0 
L 581 4863 
L 1159 4863 
L 1159 2956 
Q 1366 3272 1645 3428 
Q 1925 3584 2291 3584 
Q 2894 3584 3203 3211 
Q 3513 2838 3513 2113 
z
" id="DejaVuSans-68" transform="scale(0.015625)"/>
      </defs>
      <use xlink:href="#DejaVuSans-45"/>
      <use x="63.183594" xlink:href="#DejaVuSans-70"/>
      <use x="126.660156" xlink:href="#DejaVuSans-6f"/>
      <use x="187.841797" xlink:href="#DejaVuSans-63"/>
      <use x="242.822266" xlink:href="#DejaVuSans-68"/>
     </g>
    </g>
   </g>
   <g id="matplotlib.axis_2">
    <g id="ytick_1">
     <g id="line2d_10">
      <defs>
       <path d="M 0 0 
L -3.5 0 
" id="m468d8fe1ac" style="stroke:#000000;stroke-width:0.8;"/>
      </defs>
      <g>
       <use style="stroke:#000000;stroke-width:0.8;" x="57.6" xlink:href="#m468d8fe1ac" y="292.411366"/>
      </g>
     </g>
     <g id="text_11">
      <!-- 0 -->
      <g transform="translate(44.2375 296.210585)scale(0.1 -0.1)">
       <use xlink:href="#DejaVuSans-30"/>
      </g>
     </g>
    </g>
    <g id="ytick_2">
     <g id="line2d_11">
      <g>
       <use style="stroke:#000000;stroke-width:0.8;" x="57.6" xlink:href="#m468d8fe1ac" y="238.894108"/>
      </g>
     </g>
     <g id="text_12">
      <!-- 20000 -->
      <g transform="translate(18.7875 242.693327)scale(0.1 -0.1)">
       <use xlink:href="#DejaVuSans-32"/>
       <use x="63.623047" xlink:href="#DejaVuSans-30"/>
       <use x="127.246094" xlink:href="#DejaVuSans-30"/>
       <use x="190.869141" xlink:href="#DejaVuSans-30"/>
       <use x="254.492188" xlink:href="#DejaVuSans-30"/>
      </g>
     </g>
    </g>
    <g id="ytick_3">
     <g id="line2d_12">
      <g>
       <use style="stroke:#000000;stroke-width:0.8;" x="57.6" xlink:href="#m468d8fe1ac" y="185.37685"/>
      </g>
     </g>
     <g id="text_13">
      <!-- 40000 -->
      <g transform="translate(18.7875 189.176069)scale(0.1 -0.1)">
       <use xlink:href="#DejaVuSans-34"/>
       <use x="63.623047" xlink:href="#DejaVuSans-30"/>
       <use x="127.246094" xlink:href="#DejaVuSans-30"/>
       <use x="190.869141" xlink:href="#DejaVuSans-30"/>
       <use x="254.492188" xlink:href="#DejaVuSans-30"/>
      </g>
     </g>
    </g>
    <g id="ytick_4">
     <g id="line2d_13">
      <g>
       <use style="stroke:#000000;stroke-width:0.8;" x="57.6" xlink:href="#m468d8fe1ac" y="131.859592"/>
      </g>
     </g>
     <g id="text_14">
      <!-- 60000 -->
      <g transform="translate(18.7875 135.658811)scale(0.1 -0.1)">
       <defs>
        <path d="M 2113 2584 
Q 1688 2584 1439 2293 
Q 1191 2003 1191 1497 
Q 1191 994 1439 701 
Q 1688 409 2113 409 
Q 2538 409 2786 701 
Q 3034 994 3034 1497 
Q 3034 2003 2786 2293 
Q 2538 2584 2113 2584 
z
M 3366 4563 
L 3366 3988 
Q 3128 4100 2886 4159 
Q 2644 4219 2406 4219 
Q 1781 4219 1451 3797 
Q 1122 3375 1075 2522 
Q 1259 2794 1537 2939 
Q 1816 3084 2150 3084 
Q 2853 3084 3261 2657 
Q 3669 2231 3669 1497 
Q 3669 778 3244 343 
Q 2819 -91 2113 -91 
Q 1303 -91 875 529 
Q 447 1150 447 2328 
Q 447 3434 972 4092 
Q 1497 4750 2381 4750 
Q 2619 4750 2861 4703 
Q 3103 4656 3366 4563 
z
" id="DejaVuSans-36" transform="scale(0.015625)"/>
       </defs>
       <use xlink:href="#DejaVuSans-36"/>
       <use x="63.623047" xlink:href="#DejaVuSans-30"/>
       <use x="127.246094" xlink:href="#DejaVuSans-30"/>
       <use x="190.869141" xlink:href="#DejaVuSans-30"/>
       <use x="254.492188" xlink:href="#DejaVuSans-30"/>
      </g>
     </g>
    </g>
    <g id="ytick_5">
     <g id="line2d_14">
      <g>
       <use style="stroke:#000000;stroke-width:0.8;" x="57.6" xlink:href="#m468d8fe1ac" y="78.342335"/>
      </g>
     </g>
     <g id="text_15">
      <!-- 80000 -->
      <g transform="translate(18.7875 82.141553)scale(0.1 -0.1)">
       <defs>
        <path d="M 2034 2216 
Q 1584 2216 1326 1975 
Q 1069 1734 1069 1313 
Q 1069 891 1326 650 
Q 1584 409 2034 409 
Q 2484 409 2743 651 
Q 3003 894 3003 1313 
Q 3003 1734 2745 1975 
Q 2488 2216 2034 2216 
z
M 1403 2484 
Q 997 2584 770 2862 
Q 544 3141 544 3541 
Q 544 4100 942 4425 
Q 1341 4750 2034 4750 
Q 2731 4750 3128 4425 
Q 3525 4100 3525 3541 
Q 3525 3141 3298 2862 
Q 3072 2584 2669 2484 
Q 3125 2378 3379 2068 
Q 3634 1759 3634 1313 
Q 3634 634 3220 271 
Q 2806 -91 2034 -91 
Q 1263 -91 848 271 
Q 434 634 434 1313 
Q 434 1759 690 2068 
Q 947 2378 1403 2484 
z
M 1172 3481 
Q 1172 3119 1398 2916 
Q 1625 2713 2034 2713 
Q 2441 2713 2670 2916 
Q 2900 3119 2900 3481 
Q 2900 3844 2670 4047 
Q 2441 4250 2034 4250 
Q 1625 4250 1398 4047 
Q 1172 3844 1172 3481 
z
" id="DejaVuSans-38" transform="scale(0.015625)"/>
       </defs>
       <use xlink:href="#DejaVuSans-38"/>
       <use x="63.623047" xlink:href="#DejaVuSans-30"/>
       <use x="127.246094" xlink:href="#DejaVuSans-30"/>
       <use x="190.869141" xlink:href="#DejaVuSans-30"/>
       <use x="254.492188" xlink:href="#DejaVuSans-30"/>
      </g>
     </g>
    </g>
    <g id="text_16">
     <!-- Loss -->
     <g transform="translate(11.667969 190.978781)rotate(-90)scale(0.15 -0.15)">
      <defs>
       <path d="M 628 4666 
L 1259 4666 
L 1259 531 
L 3531 531 
L 3531 0 
L 628 0 
L 628 4666 
z
" id="DejaVuSans-4c" transform="scale(0.015625)"/>
       <path d="M 2834 3397 
L 2834 2853 
Q 2591 2978 2328 3040 
Q 2066 3103 1784 3103 
Q 1356 3103 1142 2972 
Q 928 2841 928 2578 
Q 928 2378 1081 2264 
Q 1234 2150 1697 2047 
L 1894 2003 
Q 2506 1872 2764 1633 
Q 3022 1394 3022 966 
Q 3022 478 2636 193 
Q 2250 -91 1575 -91 
Q 1294 -91 989 -36 
Q 684 19 347 128 
L 347 722 
Q 666 556 975 473 
Q 1284 391 1588 391 
Q 1994 391 2212 530 
Q 2431 669 2431 922 
Q 2431 1156 2273 1281 
Q 2116 1406 1581 1522 
L 1381 1569 
Q 847 1681 609 1914 
Q 372 2147 372 2553 
Q 372 3047 722 3315 
Q 1072 3584 1716 3584 
Q 2034 3584 2315 3537 
Q 2597 3491 2834 3397 
z
" id="DejaVuSans-73" transform="scale(0.015625)"/>
      </defs>
      <use xlink:href="#DejaVuSans-4c"/>
      <use x="53.962891" xlink:href="#DejaVuSans-6f"/>
      <use x="115.144531" xlink:href="#DejaVuSans-73"/>
      <use x="167.244141" xlink:href="#DejaVuSans-73"/>
     </g>
    </g>
   </g>
   <g id="line2d_15">
    <path clip-path="url(#p4cb53c78b6)" d="M 73.832727 292.664844 
L 74.646398 293.366295 
L 75.460068 293.517865 
L 77.087409 293.65159 
L 77.90108 293.950536 
L 78.714751 293.780098 
L 80.342092 294.009667 
L 81.155762 294.015934 
L 81.969433 294.142772 
L 82.783103 294.026782 
L 83.596774 294.228962 
L 86.851456 294.292953 
L 87.665126 294.565121 
L 89.292468 294.388973 
L 90.106138 294.589392 
L 90.919809 294.538235 
L 92.54715 294.658256 
L 94.174491 294.548354 
L 94.988161 294.588534 
L 95.801832 294.763078 
L 97.429173 294.742775 
L 98.242843 294.732322 
L 99.056514 294.879417 
L 99.870185 294.673132 
L 100.683855 295.027424 
L 101.497526 294.962843 
L 102.311196 294.780172 
L 103.938537 294.950464 
L 104.752208 294.848654 
L 106.379549 294.92486 
L 107.193219 294.75968 
L 108.00689 294.768521 
L 108.82056 295.054844 
L 111.261572 294.857202 
L 112.075243 294.98735 
L 112.888913 294.80884 
L 114.516254 294.942893 
L 115.329925 295.00204 
L 116.957266 294.860992 
L 117.770936 294.995743 
L 120.211948 294.738057 
L 121.025619 295.006495 
L 121.839289 294.854035 
L 122.65296 294.829227 
L 123.46663 295.023546 
L 129.162324 294.9727 
L 129.975995 295.082911 
L 130.789665 294.943307 
L 133.230677 294.938438 
L 134.044347 295.118312 
L 134.858018 294.871636 
L 135.671688 295.102988 
L 136.485359 294.861179 
L 140.553712 294.87573 
L 142.181053 295.031582 
L 144.622064 294.932044 
L 149.504087 295.053729 
L 152.75877 294.88825 
L 153.57244 295.039171 
L 154.386111 294.836235 
L 155.199781 295.160241 
L 156.013452 295.116559 
L 156.827122 294.856491 
L 157.640793 295.061508 
L 159.268134 294.870071 
L 160.081805 295.128141 
L 161.709146 294.914441 
L 163.336487 295.022853 
L 164.150157 294.958188 
L 164.963828 295.109834 
L 166.591169 294.905501 
L 167.404839 295.11184 
L 171.473192 295.172721 
L 172.286863 295.001616 
L 173.100533 295.267898 
L 173.914204 294.963725 
L 175.541545 295.016023 
L 177.168886 295.312346 
L 177.982556 295.049611 
L 179.609897 295.016916 
L 180.423568 295.152009 
L 181.237239 295.138615 
L 182.050909 294.871767 
L 182.86458 295.156726 
L 183.67825 294.945728 
L 184.491921 294.911785 
L 185.305591 295.105279 
L 186.119262 295.112905 
L 186.932932 294.982411 
L 188.560273 295.133234 
L 189.373944 295.023026 
L 190.187614 295.140536 
L 192.628626 294.885429 
L 193.442297 295.06286 
L 194.255967 295.07407 
L 195.069638 294.906893 
L 195.883308 295.051045 
L 196.696979 295.035458 
L 197.510649 295.134023 
L 198.32432 295.069363 
L 199.13799 295.206078 
L 199.951661 295.100149 
L 201.579002 295.165887 
L 203.206343 295.1481 
L 204.020014 295.219643 
L 205.647355 294.972618 
L 207.274696 295.191062 
L 208.902037 295.081858 
L 209.715707 295.000471 
L 213.78406 295.248481 
L 214.597731 295.107609 
L 215.411401 295.179124 
L 216.225072 295.032222 
L 217.038742 295.221552 
L 218.666083 295.124008 
L 219.479754 295.064413 
L 220.293424 295.222072 
L 221.920766 295.17505 
L 225.175448 295.126096 
L 226.802789 295.271388 
L 227.616459 295.014554 
L 229.2438 295.22038 
L 232.498483 295.030461 
L 233.312153 295.2069 
L 234.125824 295.146957 
L 234.939494 295.284942 
L 235.753165 295.16391 
L 236.566835 295.305821 
L 237.380506 295.187328 
L 238.194176 295.243876 
L 239.007847 295.146881 
L 239.821517 295.435696 
L 241.448859 295.116732 
L 242.262529 295.296178 
L 244.703541 295.161379 
L 245.517211 295.27684 
L 246.330882 295.247155 
L 247.144552 294.991069 
L 247.958223 295.364906 
L 249.585564 295.037323 
L 251.212905 295.308524 
L 252.026576 295.064052 
L 252.840246 295.303349 
L 254.467587 295.067906 
L 255.281258 295.372023 
L 256.908599 295.039657 
L 257.722269 295.126999 
L 258.53594 295.086254 
L 260.163281 295.213774 
L 260.976951 295.239862 
L 261.790622 295.112212 
L 262.604293 295.269674 
L 265.045304 295.260098 
L 265.858975 295.071556 
L 266.672645 295.196108 
L 268.299986 295.213748 
L 269.927327 295.26062 
L 270.740998 295.108672 
L 271.554668 295.247043 
L 273.18201 295.239644 
L 273.99568 295.137295 
L 274.809351 295.305754 
L 276.436692 295.283103 
L 277.250362 295.093098 
L 278.064033 295.154595 
L 278.877703 295.428256 
L 279.691374 295.075413 
L 280.505044 295.426363 
L 282.946056 295.342116 
L 283.759727 295.038481 
L 287.014409 295.343758 
L 290.269091 295.114265 
L 291.896432 295.342548 
L 292.710103 295.248778 
L 293.523773 295.292354 
L 295.151114 295.174078 
L 299.219467 295.291812 
L 300.846808 295.206569 
L 302.474149 295.330443 
L 304.10149 295.275683 
L 304.915161 295.216015 
L 305.728831 295.304675 
L 306.542502 295.209759 
L 307.356172 295.316129 
L 308.983513 295.257144 
L 309.797184 295.411432 
L 311.424525 295.100743 
L 312.238195 295.299113 
L 314.679207 295.062826 
L 315.492878 295.328353 
L 320.374901 295.484533 
L 321.188571 295.208284 
L 324.443254 295.129287 
L 325.256924 295.364179 
L 326.884265 295.051828 
L 328.511606 295.366343 
L 332.579959 295.248085 
L 333.39363 295.36158 
L 334.2073 295.154843 
L 335.020971 295.265432 
L 337.461982 295.233427 
L 344.785017 295.372873 
L 346.412358 295.282796 
L 347.226029 295.390686 
L 348.039699 295.283815 
L 348.85337 295.446312 
L 349.66704 295.131685 
L 352.921722 295.438003 
L 354.549064 295.211235 
L 355.362734 295.278812 
L 356.990075 295.235594 
L 357.803746 295.447586 
L 358.617416 295.434599 
L 359.431087 295.243993 
L 360.244757 295.397662 
L 361.058428 295.220761 
L 365.940451 295.407332 
L 366.754122 295.120657 
L 367.567792 295.228248 
L 369.195133 295.291555 
L 370.008804 295.374349 
L 370.822474 295.071801 
L 371.636145 295.289906 
L 372.449815 295.37126 
L 374.077157 295.240348 
L 374.890827 295.410041 
L 375.704498 295.265092 
L 376.518168 295.429837 
L 377.331839 295.097958 
L 378.145509 295.391543 
L 378.95918 295.332268 
L 379.77285 295.136017 
L 380.586521 295.410464 
L 381.400191 295.187144 
L 382.213862 295.45717 
L 383.027532 295.417691 
L 383.841203 295.225696 
L 384.654874 295.39954 
L 385.468544 295.266348 
L 390.350567 295.318629 
L 391.164238 295.488 
L 391.977908 295.14641 
L 392.791579 295.311866 
L 394.41892 295.171934 
L 396.046261 295.315729 
L 396.859932 295.011525 
L 397.673602 295.102819 
L 398.487273 295.391785 
L 398.487273 295.391785 
" style="fill:none;stroke:#1f77b4;stroke-linecap:square;stroke-width:1.5;"/>
   </g>
   <g id="line2d_16">
    <path clip-path="url(#p4cb53c78b6)" d="M 73.832727 293.115717 
L 74.646398 292.756927 
L 75.460068 291.983228 
L 76.273739 291.800503 
L 77.90108 284.11203 
L 78.714751 282.122731 
L 79.528421 280.605213 
L 80.342092 274.146744 
L 81.155762 275.418815 
L 81.969433 277.382282 
L 83.596774 263.540147 
L 84.410444 260.523776 
L 85.224115 255.489341 
L 86.037785 249.064166 
L 86.851456 257.302708 
L 87.665126 248.172793 
L 88.478797 234.876621 
L 89.292468 242.025216 
L 90.106138 243.015832 
L 90.919809 226.519533 
L 91.733479 224.55732 
L 92.54715 235.320961 
L 93.36082 219.080021 
L 94.174491 256.654731 
L 94.988161 205.290707 
L 95.801832 226.496758 
L 96.615502 218.484083 
L 97.429173 222.553555 
L 99.056514 217.845246 
L 99.870185 216.221061 
L 100.683855 205.711869 
L 101.497526 217.52726 
L 102.311196 223.31443 
L 103.124867 210.622993 
L 103.938537 204.460031 
L 104.752208 209.154268 
L 105.565878 203.577691 
L 106.379549 192.216845 
L 107.193219 202.198478 
L 108.00689 207.31613 
L 108.82056 181.785541 
L 109.634231 198.624365 
L 110.447902 200.992082 
L 111.261572 205.736305 
L 112.888913 192.204998 
L 113.702584 201.911104 
L 114.516254 201.77025 
L 115.329925 189.746739 
L 116.143595 199.752554 
L 116.957266 196.598817 
L 117.770936 194.573976 
L 118.584607 185.134329 
L 119.398278 188.001803 
L 120.211948 192.047958 
L 121.025619 197.394271 
L 121.839289 189.456161 
L 122.65296 186.918103 
L 123.46663 177.449529 
L 124.280301 174.391307 
L 125.093971 195.853364 
L 125.907642 177.747905 
L 126.721312 193.541305 
L 127.534983 177.807457 
L 128.348653 181.382634 
L 129.162324 164.855778 
L 129.975995 191.43724 
L 130.789665 191.264564 
L 131.603336 194.292762 
L 132.417006 198.72439 
L 133.230677 178.212186 
L 134.044347 179.949733 
L 134.858018 172.792704 
L 135.671688 170.65886 
L 136.485359 193.661629 
L 137.299029 190.328693 
L 138.1127 188.425476 
L 138.92637 166.050001 
L 139.740041 188.066616 
L 140.553712 200.982545 
L 141.367382 170.377192 
L 142.181053 174.342348 
L 142.994723 182.013176 
L 143.808394 182.848812 
L 144.622064 199.851388 
L 145.435735 189.912028 
L 146.249405 159.476138 
L 147.063076 166.987487 
L 147.876746 188.355026 
L 148.690417 182.947756 
L 149.504087 185.831996 
L 150.317758 178.184775 
L 151.131429 184.265842 
L 151.945099 194.354829 
L 152.75877 205.893194 
L 153.57244 198.496635 
L 154.386111 177.867009 
L 155.199781 194.015672 
L 156.013452 177.416296 
L 156.827122 190.864927 
L 157.640793 161.531266 
L 158.454463 179.975791 
L 159.268134 194.347421 
L 160.081805 175.87553 
L 160.895475 170.402493 
L 161.709146 197.022448 
L 162.522816 163.410281 
L 163.336487 175.251475 
L 164.150157 153.402974 
L 164.963828 175.528571 
L 165.777498 182.851905 
L 166.591169 184.834218 
L 167.404839 162.625031 
L 168.21851 172.556252 
L 169.03218 152.471678 
L 169.845851 160.740432 
L 170.659522 173.182704 
L 171.473192 174.877667 
L 172.286863 156.800379 
L 173.100533 180.619873 
L 173.914204 179.506494 
L 174.727874 166.744053 
L 175.541545 167.033316 
L 176.355215 185.755856 
L 177.168886 180.075988 
L 177.982556 177.651818 
L 178.796227 171.054899 
L 179.609897 147.931998 
L 180.423568 168.173443 
L 181.237239 160.638282 
L 182.050909 172.31206 
L 182.86458 165.837611 
L 183.67825 161.354898 
L 184.491921 165.153115 
L 185.305591 174.374536 
L 186.119262 169.93764 
L 186.932932 161.49194 
L 187.746603 171.709993 
L 188.560273 189.16889 
L 189.373944 151.112685 
L 190.187614 162.28507 
L 191.001285 163.658097 
L 191.814956 172.766355 
L 192.628626 152.160833 
L 193.442297 169.765592 
L 194.255967 159.222658 
L 195.069638 180.44218 
L 195.883308 181.222872 
L 196.696979 169.282497 
L 197.510649 169.880705 
L 198.32432 157.545817 
L 199.13799 156.496433 
L 199.951661 146.996578 
L 200.765332 164.693095 
L 201.579002 175.074223 
L 202.392673 163.271693 
L 203.206343 158.547505 
L 204.020014 161.45368 
L 204.833684 140.935105 
L 206.461025 172.113957 
L 207.274696 142.547461 
L 208.088366 163.155738 
L 208.902037 150.086743 
L 209.715707 158.95955 
L 210.529378 132.98361 
L 211.343049 172.707885 
L 212.156719 153.501272 
L 212.97039 153.089874 
L 213.78406 123.483402 
L 214.597731 133.075686 
L 215.411401 159.86061 
L 216.225072 158.529199 
L 217.038742 146.946893 
L 217.852413 141.847791 
L 218.666083 143.033946 
L 219.479754 162.10893 
L 220.293424 146.330367 
L 221.107095 135.995546 
L 221.920766 154.50486 
L 222.734436 166.398203 
L 223.548107 151.648749 
L 224.361777 189.147827 
L 225.175448 138.627063 
L 225.989118 163.687265 
L 226.802789 163.142627 
L 227.616459 147.269508 
L 228.43013 167.680975 
L 229.2438 129.989502 
L 230.057471 139.171596 
L 230.871141 141.249519 
L 231.684812 135.555321 
L 232.498483 128.489351 
L 233.312153 151.950033 
L 234.125824 138.941883 
L 234.939494 133.777649 
L 235.753165 136.625725 
L 236.566835 94.047815 
L 237.380506 143.557293 
L 238.194176 110.437226 
L 239.007847 125.54046 
L 239.821517 147.522847 
L 240.635188 123.348848 
L 241.448859 152.322033 
L 242.262529 160.691872 
L 243.0762 141.783999 
L 243.88987 147.692083 
L 244.703541 123.054404 
L 245.517211 137.343705 
L 246.330882 145.301649 
L 247.144552 144.502657 
L 247.958223 144.117372 
L 248.771893 123.706365 
L 250.399234 139.800131 
L 251.212905 144.699313 
L 252.026576 185.964281 
L 252.840246 119.03689 
L 253.653917 127.483286 
L 254.467587 139.342604 
L 255.281258 132.881758 
L 256.094928 107.27615 
L 256.908599 152.907548 
L 257.722269 135.806536 
L 258.53594 185.987036 
L 259.34961 141.962351 
L 260.163281 144.116261 
L 260.976951 121.530241 
L 261.790622 118.553036 
L 262.604293 139.883179 
L 263.417963 126.962294 
L 264.231634 129.145292 
L 265.045304 123.542163 
L 265.858975 127.358294 
L 266.672645 129.305968 
L 267.486316 103.243181 
L 268.299986 115.208368 
L 269.113657 107.360308 
L 269.927327 118.479943 
L 270.740998 132.846416 
L 271.554668 113.364644 
L 272.368339 132.419819 
L 273.18201 102.991397 
L 273.99568 145.307663 
L 274.809351 117.766548 
L 275.623021 125.435886 
L 276.436692 120.089643 
L 277.250362 111.26173 
L 278.064033 115.993789 
L 278.877703 138.598964 
L 279.691374 104.210183 
L 280.505044 106.01599 
L 282.132386 129.536461 
L 282.946056 99.340487 
L 283.759727 105.595843 
L 284.573397 104.688218 
L 285.387068 123.369706 
L 286.200738 108.166108 
L 287.014409 76.3695 
L 287.828079 120.454904 
L 288.64175 89.119481 
L 289.45542 118.692512 
L 290.269091 99.648523 
L 291.082761 65.759077 
L 291.896432 118.253783 
L 292.710103 80.251819 
L 294.337444 102.254439 
L 295.151114 95.673835 
L 295.964785 85.680367 
L 296.778455 129.694766 
L 297.592126 102.564851 
L 298.405796 107.236426 
L 299.219467 130.433565 
L 300.033137 113.314765 
L 300.846808 118.930263 
L 301.660478 120.273928 
L 302.474149 113.913314 
L 303.28782 98.81717 
L 304.10149 95.613057 
L 304.915161 126.461502 
L 305.728831 123.772713 
L 306.542502 138.418569 
L 307.356172 100.85179 
L 308.169843 111.223959 
L 308.983513 133.583196 
L 309.797184 98.000432 
L 310.610854 98.103625 
L 311.424525 103.254577 
L 312.238195 118.462924 
L 313.051866 107.902009 
L 313.865537 118.409805 
L 314.679207 107.064451 
L 315.492878 134.853551 
L 316.306548 116.884851 
L 317.120219 116.354067 
L 317.933889 127.022116 
L 318.74756 114.054332 
L 319.56123 114.768574 
L 320.374901 98.840183 
L 321.188571 93.83641 
L 322.002242 113.592293 
L 322.815913 162.96549 
L 323.629583 136.737615 
L 324.443254 103.436366 
L 325.256924 116.573068 
L 326.070595 104.50203 
L 326.884265 118.854952 
L 327.697936 98.863834 
L 328.511606 121.369841 
L 329.325277 100.955371 
L 330.138947 114.186433 
L 330.952618 114.962125 
L 331.766288 74.966503 
L 332.579959 103.118768 
L 333.39363 75.452645 
L 334.2073 136.329313 
L 335.020971 97.329274 
L 335.834641 106.449658 
L 336.648312 120.568276 
L 337.461982 96.147353 
L 338.275653 95.684953 
L 339.089323 133.520704 
L 339.902994 120.195 
L 340.716664 92.494009 
L 341.530335 108.148733 
L 342.344005 76.146391 
L 343.157676 119.938707 
L 343.971347 106.75582 
L 344.785017 105.545066 
L 345.598688 113.590593 
L 346.412358 117.413639 
L 347.226029 89.532099 
L 348.039699 83.116061 
L 348.85337 114.030953 
L 349.66704 119.410694 
L 350.480711 131.548113 
L 351.294381 135.090009 
L 352.108052 108.634959 
L 352.921722 122.629893 
L 353.735393 120.030914 
L 354.549064 53.568 
L 355.362734 116.842137 
L 356.176405 108.676736 
L 356.990075 107.059429 
L 357.803746 97.723031 
L 358.617416 115.993574 
L 359.431087 121.249276 
L 360.244757 96.200047 
L 361.058428 91.143478 
L 361.872098 89.342175 
L 362.685769 59.265425 
L 363.49944 129.998269 
L 364.31311 111.562072 
L 365.126781 118.347308 
L 365.940451 103.910009 
L 366.754122 103.904908 
L 367.567792 85.5934 
L 368.381463 97.490421 
L 369.195133 84.610873 
L 370.008804 104.491798 
L 370.822474 71.396037 
L 371.636145 103.09443 
L 372.449815 112.974752 
L 373.263486 113.537798 
L 374.077157 113.694463 
L 374.890827 104.372813 
L 375.704498 69.497221 
L 376.518168 99.111039 
L 377.331839 93.862534 
L 378.145509 84.707555 
L 378.95918 81.445822 
L 379.77285 114.989403 
L 380.586521 98.403084 
L 381.400191 76.975079 
L 382.213862 118.395202 
L 383.027532 89.868468 
L 383.841203 89.545234 
L 384.654874 116.287198 
L 385.468544 114.544731 
L 386.282215 114.15653 
L 387.095885 96.769196 
L 387.909556 115.651362 
L 388.723226 78.024207 
L 389.536897 102.404989 
L 390.350567 97.327834 
L 391.164238 98.263212 
L 391.977908 80.835561 
L 392.791579 83.650055 
L 393.605249 105.471919 
L 394.41892 104.905692 
L 395.232591 96.866404 
L 396.046261 129.352417 
L 396.859932 90.535573 
L 397.673602 100.97535 
L 398.487273 95.261143 
L 398.487273 95.261143 
" style="fill:none;stroke:#ff7f0e;stroke-linecap:square;stroke-width:1.5;"/>
   </g>
   <g id="patch_3">
    <path d="M 57.6 307.584 
L 57.6 41.472 
" style="fill:none;stroke:#000000;stroke-linecap:square;stroke-linejoin:miter;stroke-width:0.8;"/>
   </g>
   <g id="patch_4">
    <path d="M 414.72 307.584 
L 414.72 41.472 
" style="fill:none;stroke:#000000;stroke-linecap:square;stroke-linejoin:miter;stroke-width:0.8;"/>
   </g>
   <g id="patch_5">
    <path d="M 57.6 307.584 
L 414.72 307.584 
" style="fill:none;stroke:#000000;stroke-linecap:square;stroke-linejoin:miter;stroke-width:0.8;"/>
   </g>
   <g id="patch_6">
    <path d="M 57.6 41.472 
L 414.72 41.472 
" style="fill:none;stroke:#000000;stroke-linecap:square;stroke-linejoin:miter;stroke-width:0.8;"/>
   </g>
   <g id="legend_1">
    <g id="patch_7">
     <path d="M 64.6 78.82825 
L 168.475 78.82825 
Q 170.475 78.82825 170.475 76.82825 
L 170.475 48.472 
Q 170.475 46.472 168.475 46.472 
L 64.6 46.472 
Q 62.6 46.472 62.6 48.472 
L 62.6 76.82825 
Q 62.6 78.82825 64.6 78.82825 
z
" style="fill:#ffffff;opacity:0.8;stroke:#cccccc;stroke-linejoin:miter;"/>
    </g>
    <g id="line2d_17">
     <path d="M 66.6 54.570437 
L 86.6 54.570437 
" style="fill:none;stroke:#1f77b4;stroke-linecap:square;stroke-width:1.5;"/>
    </g>
    <g id="line2d_18"/>
    <g id="text_17">
     <!-- Train loss -->
     <g transform="translate(94.6 58.070437)scale(0.1 -0.1)">
      <defs>
       <path d="M -19 4666 
L 3928 4666 
L 3928 4134 
L 2272 4134 
L 2272 0 
L 1638 0 
L 1638 4134 
L -19 4134 
L -19 4666 
z
" id="DejaVuSans-54" transform="scale(0.015625)"/>
       <path d="M 2631 2963 
Q 2534 3019 2420 3045 
Q 2306 3072 2169 3072 
Q 1681 3072 1420 2755 
Q 1159 2438 1159 1844 
L 1159 0 
L 581 0 
L 581 3500 
L 1159 3500 
L 1159 2956 
Q 1341 3275 1631 3429 
Q 1922 3584 2338 3584 
Q 2397 3584 2469 3576 
Q 2541 3569 2628 3553 
L 2631 2963 
z
" id="DejaVuSans-72" transform="scale(0.015625)"/>
       <path d="M 2194 1759 
Q 1497 1759 1228 1600 
Q 959 1441 959 1056 
Q 959 750 1161 570 
Q 1363 391 1709 391 
Q 2188 391 2477 730 
Q 2766 1069 2766 1631 
L 2766 1759 
L 2194 1759 
z
M 3341 1997 
L 3341 0 
L 2766 0 
L 2766 531 
Q 2569 213 2275 61 
Q 1981 -91 1556 -91 
Q 1019 -91 701 211 
Q 384 513 384 1019 
Q 384 1609 779 1909 
Q 1175 2209 1959 2209 
L 2766 2209 
L 2766 2266 
Q 2766 2663 2505 2880 
Q 2244 3097 1772 3097 
Q 1472 3097 1187 3025 
Q 903 2953 641 2809 
L 641 3341 
Q 956 3463 1253 3523 
Q 1550 3584 1831 3584 
Q 2591 3584 2966 3190 
Q 3341 2797 3341 1997 
z
" id="DejaVuSans-61" transform="scale(0.015625)"/>
       <path d="M 603 3500 
L 1178 3500 
L 1178 0 
L 603 0 
L 603 3500 
z
M 603 4863 
L 1178 4863 
L 1178 4134 
L 603 4134 
L 603 4863 
z
" id="DejaVuSans-69" transform="scale(0.015625)"/>
       <path d="M 3513 2113 
L 3513 0 
L 2938 0 
L 2938 2094 
Q 2938 2591 2744 2837 
Q 2550 3084 2163 3084 
Q 1697 3084 1428 2787 
Q 1159 2491 1159 1978 
L 1159 0 
L 581 0 
L 581 3500 
L 1159 3500 
L 1159 2956 
Q 1366 3272 1645 3428 
Q 1925 3584 2291 3584 
Q 2894 3584 3203 3211 
Q 3513 2838 3513 2113 
z
" id="DejaVuSans-6e" transform="scale(0.015625)"/>
       <path id="DejaVuSans-20" transform="scale(0.015625)"/>
       <path d="M 603 4863 
L 1178 4863 
L 1178 0 
L 603 0 
L 603 4863 
z
" id="DejaVuSans-6c" transform="scale(0.015625)"/>
      </defs>
      <use xlink:href="#DejaVuSans-54"/>
      <use x="46.333984" xlink:href="#DejaVuSans-72"/>
      <use x="87.447266" xlink:href="#DejaVuSans-61"/>
      <use x="148.726562" xlink:href="#DejaVuSans-69"/>
      <use x="176.509766" xlink:href="#DejaVuSans-6e"/>
      <use x="239.888672" xlink:href="#DejaVuSans-20"/>
      <use x="271.675781" xlink:href="#DejaVuSans-6c"/>
      <use x="299.458984" xlink:href="#DejaVuSans-6f"/>
      <use x="360.640625" xlink:href="#DejaVuSans-73"/>
      <use x="412.740234" xlink:href="#DejaVuSans-73"/>
     </g>
    </g>
    <g id="line2d_19">
     <path d="M 66.6 69.248562 
L 86.6 69.248562 
" style="fill:none;stroke:#ff7f0e;stroke-linecap:square;stroke-width:1.5;"/>
    </g>
    <g id="line2d_20"/>
    <g id="text_18">
     <!-- Validation loss -->
     <g transform="translate(94.6 72.748562)scale(0.1 -0.1)">
      <defs>
       <path d="M 1831 0 
L 50 4666 
L 709 4666 
L 2188 738 
L 3669 4666 
L 4325 4666 
L 2547 0 
L 1831 0 
z
" id="DejaVuSans-56" transform="scale(0.015625)"/>
       <path d="M 2906 2969 
L 2906 4863 
L 3481 4863 
L 3481 0 
L 2906 0 
L 2906 525 
Q 2725 213 2448 61 
Q 2172 -91 1784 -91 
Q 1150 -91 751 415 
Q 353 922 353 1747 
Q 353 2572 751 3078 
Q 1150 3584 1784 3584 
Q 2172 3584 2448 3432 
Q 2725 3281 2906 2969 
z
M 947 1747 
Q 947 1113 1208 752 
Q 1469 391 1925 391 
Q 2381 391 2643 752 
Q 2906 1113 2906 1747 
Q 2906 2381 2643 2742 
Q 2381 3103 1925 3103 
Q 1469 3103 1208 2742 
Q 947 2381 947 1747 
z
" id="DejaVuSans-64" transform="scale(0.015625)"/>
       <path d="M 1172 4494 
L 1172 3500 
L 2356 3500 
L 2356 3053 
L 1172 3053 
L 1172 1153 
Q 1172 725 1289 603 
Q 1406 481 1766 481 
L 2356 481 
L 2356 0 
L 1766 0 
Q 1100 0 847 248 
Q 594 497 594 1153 
L 594 3053 
L 172 3053 
L 172 3500 
L 594 3500 
L 594 4494 
L 1172 4494 
z
" id="DejaVuSans-74" transform="scale(0.015625)"/>
      </defs>
      <use xlink:href="#DejaVuSans-56"/>
      <use x="60.658203" xlink:href="#DejaVuSans-61"/>
      <use x="121.9375" xlink:href="#DejaVuSans-6c"/>
      <use x="149.720703" xlink:href="#DejaVuSans-69"/>
      <use x="177.503906" xlink:href="#DejaVuSans-64"/>
      <use x="240.980469" xlink:href="#DejaVuSans-61"/>
      <use x="302.259766" xlink:href="#DejaVuSans-74"/>
      <use x="341.46875" xlink:href="#DejaVuSans-69"/>
      <use x="369.251953" xlink:href="#DejaVuSans-6f"/>
      <use x="430.433594" xlink:href="#DejaVuSans-6e"/>
      <use x="493.8125" xlink:href="#DejaVuSans-20"/>
      <use x="525.599609" xlink:href="#DejaVuSans-6c"/>
      <use x="553.382812" xlink:href="#DejaVuSans-6f"/>
      <use x="614.564453" xlink:href="#DejaVuSans-73"/>
      <use x="666.664062" xlink:href="#DejaVuSans-73"/>
     </g>
    </g>
   </g>
  </g>
 </g>
 <defs>
  <clipPath id="p4cb53c78b6">
   <rect height="266.112" width="357.12" x="57.6" y="41.472"/>
  </clipPath>
 </defs>
</svg>
