<?xml version="1.0" encoding="utf-8" standalone="no"?>
<!DOCTYPE svg PUBLIC "-//W3C//DTD SVG 1.1//EN"
  "http://www.w3.org/Graphics/SVG/1.1/DTD/svg11.dtd">
<svg height="345.6pt" version="1.1" viewBox="0 0 460.8 345.6" width="460.8pt" xmlns="http://www.w3.org/2000/svg" xmlns:xlink="http://www.w3.org/1999/xlink">
 <metadata>
  <rdf:RDF xmlns:cc="http://creativecommons.org/ns#" xmlns:dc="http://purl.org/dc/elements/1.1/" xmlns:rdf="http://www.w3.org/1999/02/22-rdf-syntax-ns#">
   <cc:Work>
    <dc:type rdf:resource="http://purl.org/dc/dcmitype/StillImage"/>
    <dc:date>2021-08-01T13:45:26.344078</dc:date>
    <dc:format>image/svg+xml</dc:format>
    <dc:creator>
     <cc:Agent>
      <dc:title>Matplotlib v3.4.2, https://matplotlib.org/</dc:title>
     </cc:Agent>
    </dc:creator>
   </cc:Work>
  </rdf:RDF>
 </metadata>
 <defs>
  <style type="text/css">*{stroke-linecap:butt;stroke-linejoin:round;}</style>
 </defs>
 <g id="figure_1">
  <g id="patch_1">
   <path d="M 0 345.6 
L 460.8 345.6 
L 460.8 0 
L 0 0 
z
" style="fill:#ffffff;"/>
  </g>
  <g id="axes_1">
   <g id="patch_2">
    <path d="M 57.6 307.584 
L 414.72 307.584 
L 414.72 41.472 
L 57.6 41.472 
z
" style="fill:#ffffff;"/>
   </g>
   <g id="matplotlib.axis_1">
    <g id="xtick_1">
     <g id="line2d_1">
      <defs>
       <path d="M 0 0 
L 0 3.5 
" id="mbccedaf010" style="stroke:#000000;stroke-width:0.8;"/>
      </defs>
      <g>
       <use style="stroke:#000000;stroke-width:0.8;" x="73.600665" xlink:href="#mbccedaf010" y="307.584"/>
      </g>
     </g>
     <g id="text_1">
      <!-- 0 -->
      <g transform="translate(70.419415 322.182437)scale(0.1 -0.1)">
       <defs>
        <path d="M 2034 4250 
Q 1547 4250 1301 3770 
Q 1056 3291 1056 2328 
Q 1056 1369 1301 889 
Q 1547 409 2034 409 
Q 2525 409 2770 889 
Q 3016 1369 3016 2328 
Q 3016 3291 2770 3770 
Q 2525 4250 2034 4250 
z
M 2034 4750 
Q 2819 4750 3233 4129 
Q 3647 3509 3647 2328 
Q 3647 1150 3233 529 
Q 2819 -91 2034 -91 
Q 1250 -91 836 529 
Q 422 1150 422 2328 
Q 422 3509 836 4129 
Q 1250 4750 2034 4750 
z
" id="DejaVuSans-30" transform="scale(0.015625)"/>
       </defs>
       <use xlink:href="#DejaVuSans-30"/>
      </g>
     </g>
    </g>
    <g id="xtick_2">
     <g id="line2d_2">
      <g>
       <use style="stroke:#000000;stroke-width:0.8;" x="120.013038" xlink:href="#mbccedaf010" y="307.584"/>
      </g>
     </g>
     <g id="text_2">
      <!-- 200 -->
      <g transform="translate(110.469288 322.182437)scale(0.1 -0.1)">
       <defs>
        <path d="M 1228 531 
L 3431 531 
L 3431 0 
L 469 0 
L 469 531 
Q 828 903 1448 1529 
Q 2069 2156 2228 2338 
Q 2531 2678 2651 2914 
Q 2772 3150 2772 3378 
Q 2772 3750 2511 3984 
Q 2250 4219 1831 4219 
Q 1534 4219 1204 4116 
Q 875 4013 500 3803 
L 500 4441 
Q 881 4594 1212 4672 
Q 1544 4750 1819 4750 
Q 2544 4750 2975 4387 
Q 3406 4025 3406 3419 
Q 3406 3131 3298 2873 
Q 3191 2616 2906 2266 
Q 2828 2175 2409 1742 
Q 1991 1309 1228 531 
z
" id="DejaVuSans-32" transform="scale(0.015625)"/>
       </defs>
       <use xlink:href="#DejaVuSans-32"/>
       <use x="63.623047" xlink:href="#DejaVuSans-30"/>
       <use x="127.246094" xlink:href="#DejaVuSans-30"/>
      </g>
     </g>
    </g>
    <g id="xtick_3">
     <g id="line2d_3">
      <g>
       <use style="stroke:#000000;stroke-width:0.8;" x="166.42541" xlink:href="#mbccedaf010" y="307.584"/>
      </g>
     </g>
     <g id="text_3">
      <!-- 400 -->
      <g transform="translate(156.88166 322.182437)scale(0.1 -0.1)">
       <defs>
        <path d="M 2419 4116 
L 825 1625 
L 2419 1625 
L 2419 4116 
z
M 2253 4666 
L 3047 4666 
L 3047 1625 
L 3713 1625 
L 3713 1100 
L 3047 1100 
L 3047 0 
L 2419 0 
L 2419 1100 
L 313 1100 
L 313 1709 
L 2253 4666 
z
" id="DejaVuSans-34" transform="scale(0.015625)"/>
       </defs>
       <use xlink:href="#DejaVuSans-34"/>
       <use x="63.623047" xlink:href="#DejaVuSans-30"/>
       <use x="127.246094" xlink:href="#DejaVuSans-30"/>
      </g>
     </g>
    </g>
    <g id="xtick_4">
     <g id="line2d_4">
      <g>
       <use style="stroke:#000000;stroke-width:0.8;" x="212.837783" xlink:href="#mbccedaf010" y="307.584"/>
      </g>
     </g>
     <g id="text_4">
      <!-- 600 -->
      <g transform="translate(203.294033 322.182437)scale(0.1 -0.1)">
       <defs>
        <path d="M 2113 2584 
Q 1688 2584 1439 2293 
Q 1191 2003 1191 1497 
Q 1191 994 1439 701 
Q 1688 409 2113 409 
Q 2538 409 2786 701 
Q 3034 994 3034 1497 
Q 3034 2003 2786 2293 
Q 2538 2584 2113 2584 
z
M 3366 4563 
L 3366 3988 
Q 3128 4100 2886 4159 
Q 2644 4219 2406 4219 
Q 1781 4219 1451 3797 
Q 1122 3375 1075 2522 
Q 1259 2794 1537 2939 
Q 1816 3084 2150 3084 
Q 2853 3084 3261 2657 
Q 3669 2231 3669 1497 
Q 3669 778 3244 343 
Q 2819 -91 2113 -91 
Q 1303 -91 875 529 
Q 447 1150 447 2328 
Q 447 3434 972 4092 
Q 1497 4750 2381 4750 
Q 2619 4750 2861 4703 
Q 3103 4656 3366 4563 
z
" id="DejaVuSans-36" transform="scale(0.015625)"/>
       </defs>
       <use xlink:href="#DejaVuSans-36"/>
       <use x="63.623047" xlink:href="#DejaVuSans-30"/>
       <use x="127.246094" xlink:href="#DejaVuSans-30"/>
      </g>
     </g>
    </g>
    <g id="xtick_5">
     <g id="line2d_5">
      <g>
       <use style="stroke:#000000;stroke-width:0.8;" x="259.250155" xlink:href="#mbccedaf010" y="307.584"/>
      </g>
     </g>
     <g id="text_5">
      <!-- 800 -->
      <g transform="translate(249.706405 322.182437)scale(0.1 -0.1)">
       <defs>
        <path d="M 2034 2216 
Q 1584 2216 1326 1975 
Q 1069 1734 1069 1313 
Q 1069 891 1326 650 
Q 1584 409 2034 409 
Q 2484 409 2743 651 
Q 3003 894 3003 1313 
Q 3003 1734 2745 1975 
Q 2488 2216 2034 2216 
z
M 1403 2484 
Q 997 2584 770 2862 
Q 544 3141 544 3541 
Q 544 4100 942 4425 
Q 1341 4750 2034 4750 
Q 2731 4750 3128 4425 
Q 3525 4100 3525 3541 
Q 3525 3141 3298 2862 
Q 3072 2584 2669 2484 
Q 3125 2378 3379 2068 
Q 3634 1759 3634 1313 
Q 3634 634 3220 271 
Q 2806 -91 2034 -91 
Q 1263 -91 848 271 
Q 434 634 434 1313 
Q 434 1759 690 2068 
Q 947 2378 1403 2484 
z
M 1172 3481 
Q 1172 3119 1398 2916 
Q 1625 2713 2034 2713 
Q 2441 2713 2670 2916 
Q 2900 3119 2900 3481 
Q 2900 3844 2670 4047 
Q 2441 4250 2034 4250 
Q 1625 4250 1398 4047 
Q 1172 3844 1172 3481 
z
" id="DejaVuSans-38" transform="scale(0.015625)"/>
       </defs>
       <use xlink:href="#DejaVuSans-38"/>
       <use x="63.623047" xlink:href="#DejaVuSans-30"/>
       <use x="127.246094" xlink:href="#DejaVuSans-30"/>
      </g>
     </g>
    </g>
    <g id="xtick_6">
     <g id="line2d_6">
      <g>
       <use style="stroke:#000000;stroke-width:0.8;" x="305.662528" xlink:href="#mbccedaf010" y="307.584"/>
      </g>
     </g>
     <g id="text_6">
      <!-- 1000 -->
      <g transform="translate(292.937528 322.182437)scale(0.1 -0.1)">
       <defs>
        <path d="M 794 531 
L 1825 531 
L 1825 4091 
L 703 3866 
L 703 4441 
L 1819 4666 
L 2450 4666 
L 2450 531 
L 3481 531 
L 3481 0 
L 794 0 
L 794 531 
z
" id="DejaVuSans-31" transform="scale(0.015625)"/>
       </defs>
       <use xlink:href="#DejaVuSans-31"/>
       <use x="63.623047" xlink:href="#DejaVuSans-30"/>
       <use x="127.246094" xlink:href="#DejaVuSans-30"/>
       <use x="190.869141" xlink:href="#DejaVuSans-30"/>
      </g>
     </g>
    </g>
    <g id="xtick_7">
     <g id="line2d_7">
      <g>
       <use style="stroke:#000000;stroke-width:0.8;" x="352.0749" xlink:href="#mbccedaf010" y="307.584"/>
      </g>
     </g>
     <g id="text_7">
      <!-- 1200 -->
      <g transform="translate(339.3499 322.182437)scale(0.1 -0.1)">
       <use xlink:href="#DejaVuSans-31"/>
       <use x="63.623047" xlink:href="#DejaVuSans-32"/>
       <use x="127.246094" xlink:href="#DejaVuSans-30"/>
       <use x="190.869141" xlink:href="#DejaVuSans-30"/>
      </g>
     </g>
    </g>
    <g id="xtick_8">
     <g id="line2d_8">
      <g>
       <use style="stroke:#000000;stroke-width:0.8;" x="398.487273" xlink:href="#mbccedaf010" y="307.584"/>
      </g>
     </g>
     <g id="text_8">
      <!-- 1400 -->
      <g transform="translate(385.762273 322.182437)scale(0.1 -0.1)">
       <use xlink:href="#DejaVuSans-31"/>
       <use x="63.623047" xlink:href="#DejaVuSans-34"/>
       <use x="127.246094" xlink:href="#DejaVuSans-30"/>
       <use x="190.869141" xlink:href="#DejaVuSans-30"/>
      </g>
     </g>
    </g>
    <g id="text_9">
     <!-- Epoch -->
     <g transform="translate(213.193594 339.659781)scale(0.15 -0.15)">
      <defs>
       <path d="M 628 4666 
L 3578 4666 
L 3578 4134 
L 1259 4134 
L 1259 2753 
L 3481 2753 
L 3481 2222 
L 1259 2222 
L 1259 531 
L 3634 531 
L 3634 0 
L 628 0 
L 628 4666 
z
" id="DejaVuSans-45" transform="scale(0.015625)"/>
       <path d="M 1159 525 
L 1159 -1331 
L 581 -1331 
L 581 3500 
L 1159 3500 
L 1159 2969 
Q 1341 3281 1617 3432 
Q 1894 3584 2278 3584 
Q 2916 3584 3314 3078 
Q 3713 2572 3713 1747 
Q 3713 922 3314 415 
Q 2916 -91 2278 -91 
Q 1894 -91 1617 61 
Q 1341 213 1159 525 
z
M 3116 1747 
Q 3116 2381 2855 2742 
Q 2594 3103 2138 3103 
Q 1681 3103 1420 2742 
Q 1159 2381 1159 1747 
Q 1159 1113 1420 752 
Q 1681 391 2138 391 
Q 2594 391 2855 752 
Q 3116 1113 3116 1747 
z
" id="DejaVuSans-70" transform="scale(0.015625)"/>
       <path d="M 1959 3097 
Q 1497 3097 1228 2736 
Q 959 2375 959 1747 
Q 959 1119 1226 758 
Q 1494 397 1959 397 
Q 2419 397 2687 759 
Q 2956 1122 2956 1747 
Q 2956 2369 2687 2733 
Q 2419 3097 1959 3097 
z
M 1959 3584 
Q 2709 3584 3137 3096 
Q 3566 2609 3566 1747 
Q 3566 888 3137 398 
Q 2709 -91 1959 -91 
Q 1206 -91 779 398 
Q 353 888 353 1747 
Q 353 2609 779 3096 
Q 1206 3584 1959 3584 
z
" id="DejaVuSans-6f" transform="scale(0.015625)"/>
       <path d="M 3122 3366 
L 3122 2828 
Q 2878 2963 2633 3030 
Q 2388 3097 2138 3097 
Q 1578 3097 1268 2742 
Q 959 2388 959 1747 
Q 959 1106 1268 751 
Q 1578 397 2138 397 
Q 2388 397 2633 464 
Q 2878 531 3122 666 
L 3122 134 
Q 2881 22 2623 -34 
Q 2366 -91 2075 -91 
Q 1284 -91 818 406 
Q 353 903 353 1747 
Q 353 2603 823 3093 
Q 1294 3584 2113 3584 
Q 2378 3584 2631 3529 
Q 2884 3475 3122 3366 
z
" id="DejaVuSans-63" transform="scale(0.015625)"/>
       <path d="M 3513 2113 
L 3513 0 
L 2938 0 
L 2938 2094 
Q 2938 2591 2744 2837 
Q 2550 3084 2163 3084 
Q 1697 3084 1428 2787 
Q 1159 2491 1159 1978 
L 1159 0 
L 581 0 
L 581 4863 
L 1159 4863 
L 1159 2956 
Q 1366 3272 1645 3428 
Q 1925 3584 2291 3584 
Q 2894 3584 3203 3211 
Q 3513 2838 3513 2113 
z
" id="DejaVuSans-68" transform="scale(0.015625)"/>
      </defs>
      <use xlink:href="#DejaVuSans-45"/>
      <use x="63.183594" xlink:href="#DejaVuSans-70"/>
      <use x="126.660156" xlink:href="#DejaVuSans-6f"/>
      <use x="187.841797" xlink:href="#DejaVuSans-63"/>
      <use x="242.822266" xlink:href="#DejaVuSans-68"/>
     </g>
    </g>
   </g>
   <g id="matplotlib.axis_2">
    <g id="ytick_1">
     <g id="line2d_9">
      <defs>
       <path d="M 0 0 
L -3.5 0 
" id="mfe97317386" style="stroke:#000000;stroke-width:0.8;"/>
      </defs>
      <g>
       <use style="stroke:#000000;stroke-width:0.8;" x="57.6" xlink:href="#mfe97317386" y="270.23435"/>
      </g>
     </g>
     <g id="text_10">
      <!-- −1000 -->
      <g transform="translate(16.770313 274.033569)scale(0.1 -0.1)">
       <defs>
        <path d="M 678 2272 
L 4684 2272 
L 4684 1741 
L 678 1741 
L 678 2272 
z
" id="DejaVuSans-2212" transform="scale(0.015625)"/>
       </defs>
       <use xlink:href="#DejaVuSans-2212"/>
       <use x="83.789062" xlink:href="#DejaVuSans-31"/>
       <use x="147.412109" xlink:href="#DejaVuSans-30"/>
       <use x="211.035156" xlink:href="#DejaVuSans-30"/>
       <use x="274.658203" xlink:href="#DejaVuSans-30"/>
      </g>
     </g>
    </g>
    <g id="ytick_2">
     <g id="line2d_10">
      <g>
       <use style="stroke:#000000;stroke-width:0.8;" x="57.6" xlink:href="#mfe97317386" y="220.910475"/>
      </g>
     </g>
     <g id="text_11">
      <!-- −800 -->
      <g transform="translate(23.132812 224.709694)scale(0.1 -0.1)">
       <use xlink:href="#DejaVuSans-2212"/>
       <use x="83.789062" xlink:href="#DejaVuSans-38"/>
       <use x="147.412109" xlink:href="#DejaVuSans-30"/>
       <use x="211.035156" xlink:href="#DejaVuSans-30"/>
      </g>
     </g>
    </g>
    <g id="ytick_3">
     <g id="line2d_11">
      <g>
       <use style="stroke:#000000;stroke-width:0.8;" x="57.6" xlink:href="#mfe97317386" y="171.586601"/>
      </g>
     </g>
     <g id="text_12">
      <!-- −600 -->
      <g transform="translate(23.132812 175.38582)scale(0.1 -0.1)">
       <use xlink:href="#DejaVuSans-2212"/>
       <use x="83.789062" xlink:href="#DejaVuSans-36"/>
       <use x="147.412109" xlink:href="#DejaVuSans-30"/>
       <use x="211.035156" xlink:href="#DejaVuSans-30"/>
      </g>
     </g>
    </g>
    <g id="ytick_4">
     <g id="line2d_12">
      <g>
       <use style="stroke:#000000;stroke-width:0.8;" x="57.6" xlink:href="#mfe97317386" y="122.262726"/>
      </g>
     </g>
     <g id="text_13">
      <!-- −400 -->
      <g transform="translate(23.132812 126.061945)scale(0.1 -0.1)">
       <use xlink:href="#DejaVuSans-2212"/>
       <use x="83.789062" xlink:href="#DejaVuSans-34"/>
       <use x="147.412109" xlink:href="#DejaVuSans-30"/>
       <use x="211.035156" xlink:href="#DejaVuSans-30"/>
      </g>
     </g>
    </g>
    <g id="ytick_5">
     <g id="line2d_13">
      <g>
       <use style="stroke:#000000;stroke-width:0.8;" x="57.6" xlink:href="#mfe97317386" y="72.938852"/>
      </g>
     </g>
     <g id="text_14">
      <!-- −200 -->
      <g transform="translate(23.132812 76.73807)scale(0.1 -0.1)">
       <use xlink:href="#DejaVuSans-2212"/>
       <use x="83.789062" xlink:href="#DejaVuSans-32"/>
       <use x="147.412109" xlink:href="#DejaVuSans-30"/>
       <use x="211.035156" xlink:href="#DejaVuSans-30"/>
      </g>
     </g>
    </g>
   </g>
   <g id="line2d_14">
    <path clip-path="url(#p902127b4e0)" d="M 73.832727 53.568 
L 74.064789 99.502976 
L 74.296851 119.568159 
L 74.528913 118.067075 
L 74.760975 143.542244 
L 74.993037 136.67063 
L 75.225098 142.757326 
L 75.45716 163.20429 
L 75.689222 160.777512 
L 75.921284 169.560005 
L 76.153346 164.707654 
L 76.385408 172.10024 
L 76.61747 186.556063 
L 76.849531 190.287962 
L 77.081593 186.431312 
L 77.313655 195.501956 
L 77.545717 178.358705 
L 77.777779 196.112949 
L 78.009841 189.749041 
L 78.241903 201.221478 
L 78.473965 195.123995 
L 78.706026 202.281175 
L 78.938088 194.748267 
L 79.17015 197.857809 
L 79.402212 212.206779 
L 79.634274 211.200486 
L 79.866336 204.312307 
L 80.098398 207.629364 
L 80.330459 198.313483 
L 80.562521 215.024828 
L 81.026645 208.119949 
L 81.258707 213.222616 
L 81.490769 214.459548 
L 81.722831 208.039785 
L 81.954892 217.081442 
L 82.186954 214.66701 
L 82.419016 216.687788 
L 82.651078 216.155002 
L 82.88314 220.388131 
L 83.115202 209.852783 
L 83.347264 219.41757 
L 83.579325 215.637719 
L 83.811387 221.262797 
L 84.043449 219.041155 
L 84.275511 222.72448 
L 84.507573 219.308679 
L 84.739635 218.201506 
L 84.971697 219.256189 
L 85.203759 229.758532 
L 85.43582 229.165603 
L 85.667882 222.45421 
L 85.899944 227.292718 
L 86.132006 218.951427 
L 86.364068 229.213349 
L 86.59613 221.537085 
L 86.828192 223.411475 
L 87.060253 232.270417 
L 87.292315 225.277554 
L 87.524377 229.828876 
L 87.756439 231.907634 
L 87.988501 227.158252 
L 88.220563 225.248109 
L 88.452625 229.377556 
L 88.684686 221.826683 
L 88.916748 228.75879 
L 89.14881 230.751436 
L 89.380872 224.85883 
L 89.612934 222.700141 
L 89.844996 231.270745 
L 90.077058 229.441228 
L 90.30912 225.622471 
L 90.773243 242.436646 
L 91.237367 237.890804 
L 91.469429 229.072961 
L 91.933553 240.959184 
L 92.165614 236.571605 
L 92.397676 244.026935 
L 92.629738 235.967059 
L 93.093862 235.27917 
L 93.325924 227.228815 
L 93.557986 235.952235 
L 93.790047 233.461828 
L 94.022109 229.000238 
L 94.486233 246.364495 
L 94.718295 230.781688 
L 94.950357 235.450316 
L 95.182419 236.566391 
L 95.41448 237.066626 
L 95.646542 238.525179 
L 95.878604 241.048343 
L 96.110666 240.782524 
L 96.342728 244.893233 
L 96.57479 245.752735 
L 96.806852 237.260304 
L 97.038914 237.154436 
L 97.270975 237.920418 
L 97.503037 247.930868 
L 97.735099 248.894768 
L 97.967161 239.784226 
L 98.199223 256.729333 
L 98.431285 242.382135 
L 98.663347 244.600688 
L 98.895408 244.452354 
L 99.12747 242.614085 
L 99.359532 251.111067 
L 99.591594 240.338223 
L 99.823656 253.35046 
L 100.055718 244.138035 
L 100.28778 247.544043 
L 100.519841 254.631238 
L 100.751903 242.840647 
L 100.983965 237.614737 
L 101.216027 239.849508 
L 101.448089 248.689263 
L 101.912213 242.305802 
L 102.144274 241.891238 
L 102.376336 244.681259 
L 102.608398 242.758031 
L 102.84046 245.670211 
L 103.072522 250.877824 
L 103.304584 240.360632 
L 103.536646 240.140126 
L 103.768708 253.195404 
L 104.000769 244.397402 
L 104.232831 240.406957 
L 104.464893 238.477281 
L 104.696955 237.918944 
L 104.929017 247.105039 
L 105.161079 243.899579 
L 105.393141 243.962888 
L 105.625202 237.012972 
L 105.857264 243.199383 
L 106.089326 245.114824 
L 106.321388 251.694643 
L 106.55345 239.274491 
L 106.785512 241.772193 
L 107.017574 241.742874 
L 107.249635 249.910554 
L 107.481697 241.963921 
L 107.713759 245.006853 
L 107.945821 239.733864 
L 108.177883 241.488514 
L 108.409945 254.102875 
L 108.642007 254.770438 
L 109.10613 239.574193 
L 109.338192 248.474581 
L 109.570254 247.502823 
L 109.802316 253.608174 
L 110.034378 256.683168 
L 110.26644 247.150035 
L 110.498502 255.266561 
L 110.730563 247.201009 
L 110.962625 245.771489 
L 111.194687 242.794351 
L 111.426749 249.59557 
L 111.658811 247.067414 
L 111.890873 241.786925 
L 112.354996 247.332797 
L 112.587058 256.995282 
L 112.81912 255.465369 
L 113.051182 256.387093 
L 113.283244 251.730077 
L 113.515306 250.104325 
L 113.747368 254.991551 
L 113.979429 245.152152 
L 114.211491 257.043308 
L 114.443553 254.254506 
L 114.675615 252.872345 
L 114.907677 258.949465 
L 115.139739 255.09936 
L 115.371801 254.968065 
L 115.603862 261.709197 
L 115.835924 248.181999 
L 116.067986 257.024433 
L 116.300048 246.942974 
L 116.53211 250.148984 
L 116.764172 249.505165 
L 116.996234 255.101548 
L 117.228296 254.34191 
L 117.460357 248.946836 
L 117.924481 249.812953 
L 118.156543 256.68382 
L 118.388605 257.832661 
L 118.620667 260.44874 
L 118.852729 260.005766 
L 119.08479 263.181771 
L 119.316852 257.225739 
L 119.548914 254.189423 
L 119.780976 256.032997 
L 120.013038 255.859647 
L 120.2451 248.915767 
L 120.477162 251.170506 
L 120.941285 266.782668 
L 121.173347 255.672493 
L 121.637471 264.394034 
L 121.869533 248.637614 
L 122.101595 261.524692 
L 122.333657 239.377586 
L 122.79778 266.673597 
L 123.029842 260.037424 
L 123.261904 260.213807 
L 123.493966 259.181457 
L 123.95809 254.509104 
L 124.190151 266.965824 
L 124.422213 251.365458 
L 124.886337 257.759269 
L 125.118399 252.653278 
L 125.582523 269.045574 
L 125.814584 258.394472 
L 126.046646 260.5787 
L 126.278708 258.836163 
L 126.51077 269.027778 
L 126.742832 265.817479 
L 126.974894 253.547888 
L 127.206956 271.553753 
L 127.439017 268.608258 
L 127.671079 268.949306 
L 127.903141 253.407202 
L 128.135203 263.280915 
L 128.367265 262.99859 
L 128.599327 251.782557 
L 128.831389 268.940429 
L 129.063451 261.460718 
L 129.295512 262.008139 
L 129.527574 262.162664 
L 129.759636 256.486822 
L 130.22376 270.337685 
L 130.455822 257.430458 
L 130.687884 268.757545 
L 130.919945 254.804783 
L 131.152007 264.064401 
L 131.384069 262.33249 
L 131.616131 265.066853 
L 131.848193 263.088289 
L 132.080255 275.079871 
L 132.312317 256.016132 
L 132.544378 263.766093 
L 132.77644 276.142964 
L 133.008502 261.480653 
L 133.240564 261.156756 
L 133.472626 258.005475 
L 133.704688 268.289694 
L 133.93675 261.849715 
L 134.168811 264.890855 
L 134.400873 264.681422 
L 134.632935 267.743465 
L 134.864997 263.022738 
L 135.097059 272.971908 
L 135.329121 266.972871 
L 135.561183 267.922631 
L 135.793245 266.614033 
L 136.025306 275.180156 
L 136.257368 273.562137 
L 136.48943 266.16323 
L 136.721492 263.961898 
L 136.953554 274.389886 
L 137.185616 260.831264 
L 137.649739 278.192627 
L 137.881801 265.641952 
L 138.113863 275.735733 
L 138.345925 264.956253 
L 138.577987 274.752151 
L 138.810049 265.514933 
L 139.042111 270.47683 
L 139.274172 267.216032 
L 139.506234 255.201407 
L 139.738296 269.574223 
L 139.970358 262.743787 
L 140.20242 262.779287 
L 140.434482 255.220876 
L 140.666544 268.780261 
L 140.898605 270.018197 
L 141.130667 279.219261 
L 141.594791 252.387559 
L 141.826853 254.173524 
L 142.058915 276.496572 
L 142.523039 260.578561 
L 142.7551 271.057199 
L 142.987162 266.912664 
L 143.219224 268.797394 
L 143.451286 264.869572 
L 143.683348 276.780908 
L 144.147472 264.210023 
L 144.379533 262.88563 
L 144.611595 266.414971 
L 144.843657 280.62553 
L 145.075719 272.347074 
L 145.307781 279.024711 
L 145.539843 264.872647 
L 146.003966 269.769313 
L 146.236028 239.879722 
L 146.46809 261.970125 
L 146.700152 248.216493 
L 146.932214 251.586937 
L 147.164276 259.355161 
L 147.6284 265.423645 
L 147.860461 274.684684 
L 148.092523 269.146084 
L 148.324585 270.01858 
L 148.788709 260.081984 
L 149.020771 270.210753 
L 149.252833 268.005248 
L 149.484894 272.84636 
L 149.716956 267.10065 
L 149.949018 276.451806 
L 150.18108 271.658927 
L 150.413142 259.888198 
L 150.645204 269.338193 
L 150.877266 265.596748 
L 151.109327 267.024827 
L 151.341389 266.808972 
L 151.573451 273.876403 
L 151.805513 268.497293 
L 152.037575 267.553696 
L 152.269637 274.629437 
L 152.501699 269.081856 
L 152.73376 271.309049 
L 152.965822 272.457074 
L 153.197884 277.036722 
L 153.429946 271.299267 
L 153.662008 274.699192 
L 153.89407 257.659311 
L 154.126132 277.085053 
L 154.358194 256.233894 
L 154.590255 257.924662 
L 155.054379 269.467267 
L 155.286441 270.707806 
L 155.518503 272.943274 
L 156.214688 264.674093 
L 156.678812 261.887014 
L 156.910874 271.391155 
L 157.142936 271.942688 
L 157.374998 264.908427 
L 157.60706 280.82048 
L 157.839121 266.287415 
L 158.071183 260.227019 
L 158.303245 271.560031 
L 158.535307 273.936887 
L 158.767369 267.2799 
L 158.999431 278.00299 
L 159.231493 266.697683 
L 159.463554 280.030809 
L 159.695616 269.450207 
L 159.927678 274.817362 
L 160.15974 274.86244 
L 160.391802 265.339779 
L 160.623864 270.112928 
L 160.855926 284.901049 
L 161.087988 268.318868 
L 161.552111 271.580081 
L 161.784173 255.123603 
L 162.016235 280.540711 
L 162.480359 268.503529 
L 162.712421 274.87157 
L 162.944482 276.054061 
L 163.176544 274.246989 
L 163.408606 262.188633 
L 163.640668 283.018781 
L 163.87273 268.585352 
L 164.104792 279.186666 
L 164.568915 271.617425 
L 164.800977 270.987796 
L 165.033039 275.742872 
L 165.265101 271.399887 
L 165.497163 277.986015 
L 165.729225 269.291984 
L 165.961287 264.941684 
L 166.42541 280.44943 
L 166.657472 262.318269 
L 166.889534 263.612862 
L 167.121596 270.706421 
L 167.353658 263.487352 
L 167.58572 276.40623 
L 167.817782 272.61718 
L 168.049843 271.304547 
L 168.281905 269.260363 
L 168.746029 287.691212 
L 168.978091 284.22841 
L 169.210153 236.529385 
L 169.442215 261.858736 
L 169.906338 269.958225 
L 170.1384 270.976066 
L 170.370462 276.324165 
L 170.602524 262.225466 
L 170.834586 274.97482 
L 171.066648 263.720719 
L 171.298709 268.91609 
L 171.530771 269.310314 
L 171.762833 269.133652 
L 171.994895 271.286122 
L 172.226957 269.56299 
L 172.459019 270.785181 
L 172.691081 282.321528 
L 172.923143 272.984976 
L 173.155204 281.202896 
L 173.387266 277.04904 
L 173.619328 266.350858 
L 173.85139 278.040255 
L 174.083452 264.658059 
L 174.315514 266.094153 
L 174.547576 278.584774 
L 174.779637 276.519014 
L 175.011699 276.815727 
L 175.243761 277.853565 
L 175.475823 272.746731 
L 175.707885 278.313579 
L 176.172009 262.713917 
L 176.40407 264.470222 
L 176.636132 272.606324 
L 177.100256 281.783908 
L 177.332318 276.219932 
L 177.56438 281.195593 
L 177.796442 281.225405 
L 178.028503 269.707897 
L 178.260565 268.49984 
L 178.724689 273.659848 
L 178.956751 272.362975 
L 179.188813 272.579366 
L 179.420875 260.977254 
L 179.884998 276.539724 
L 180.11706 242.576673 
L 180.349122 271.864315 
L 180.581184 268.37454 
L 181.045308 274.379199 
L 181.27737 280.889685 
L 181.509431 270.092238 
L 181.741493 283.452806 
L 181.973555 270.920516 
L 182.205617 269.756063 
L 182.437679 280.967972 
L 182.669741 266.451858 
L 182.901803 277.967633 
L 183.133864 275.953808 
L 183.365926 275.067212 
L 183.597988 279.266657 
L 184.062112 267.581728 
L 184.294174 273.741343 
L 184.526236 272.911368 
L 184.758297 279.575472 
L 184.990359 276.565741 
L 185.222421 277.018812 
L 185.454483 266.20386 
L 185.686545 263.984465 
L 185.918607 276.394776 
L 186.150669 263.935087 
L 186.382731 282.291077 
L 186.614792 274.568815 
L 186.846854 276.023357 
L 187.078916 282.320639 
L 187.310978 265.735874 
L 187.54304 279.729362 
L 187.775102 270.799242 
L 188.007164 278.282184 
L 188.239225 279.388627 
L 188.471287 282.303704 
L 188.703349 271.10023 
L 188.935411 269.997207 
L 189.167473 283.764948 
L 189.399535 275.542425 
L 189.631597 281.317155 
L 189.863658 273.388575 
L 190.09572 274.554338 
L 190.327782 287.778601 
L 190.559844 263.715835 
L 191.023968 283.775402 
L 191.25603 254.664889 
L 191.488091 276.711932 
L 191.720153 270.635728 
L 191.952215 269.203164 
L 192.184277 272.479299 
L 192.416339 268.677036 
L 192.648401 223.627643 
L 192.880463 259.381824 
L 193.112525 272.850297 
L 193.344586 269.467677 
L 193.576648 272.800928 
L 193.80871 264.65605 
L 194.272834 279.38472 
L 194.504896 278.400537 
L 194.736958 279.115062 
L 194.969019 277.139064 
L 195.201081 267.495661 
L 195.433143 276.817792 
L 195.897267 273.492251 
L 196.129329 270.405028 
L 196.361391 261.069472 
L 196.593452 274.286522 
L 196.825514 271.376527 
L 197.057576 279.819778 
L 197.289638 283.339007 
L 197.5217 282.627498 
L 197.753762 278.287181 
L 197.985824 277.085079 
L 198.217886 270.237954 
L 198.682009 280.689424 
L 198.914071 277.031866 
L 199.146133 276.896292 
L 199.378195 275.746103 
L 199.610257 269.815833 
L 199.842319 272.266811 
L 200.07438 266.938928 
L 200.538504 282.130531 
L 201.002628 263.08466 
L 201.23469 281.334369 
L 201.466752 285.16425 
L 201.698813 282.547273 
L 201.930875 277.510347 
L 202.162937 284.434844 
L 202.394999 274.113886 
L 202.627061 277.304759 
L 202.859123 290.988095 
L 203.323246 272.025026 
L 203.555308 270.359771 
L 203.78737 276.160868 
L 204.019432 271.016278 
L 204.251494 261.822955 
L 204.483556 275.876636 
L 204.715618 265.752837 
L 204.94768 273.781495 
L 205.179741 285.736631 
L 205.411803 269.978633 
L 205.643865 281.416142 
L 205.875927 266.78001 
L 206.107989 283.169953 
L 206.340051 283.988181 
L 206.572113 271.709626 
L 206.804174 279.634667 
L 207.036236 274.046005 
L 207.268298 280.154575 
L 207.50036 276.609228 
L 207.732422 280.858416 
L 207.964484 268.620897 
L 208.196546 287.024747 
L 208.428607 269.796692 
L 208.660669 268.460647 
L 208.892731 286.578164 
L 209.124793 274.418117 
L 209.356855 277.576628 
L 209.588917 274.186342 
L 209.820979 276.506298 
L 210.05304 273.514041 
L 210.285102 269.077559 
L 210.517164 270.998705 
L 210.749226 268.5082 
L 210.981288 279.442211 
L 211.21335 280.171008 
L 211.445412 277.27049 
L 211.677474 280.421695 
L 211.909535 272.049428 
L 212.141597 269.296969 
L 212.373659 274.699258 
L 212.605721 270.246364 
L 213.069845 280.797106 
L 213.301907 278.928123 
L 213.533968 269.697106 
L 213.998092 289.747292 
L 214.230154 274.830299 
L 214.462216 276.755344 
L 214.694278 271.494656 
L 214.92634 279.612583 
L 215.158401 266.278662 
L 215.390463 264.169539 
L 215.622525 274.65307 
L 215.854587 276.900548 
L 216.086649 277.783231 
L 216.318711 283.081013 
L 216.550773 264.094885 
L 217.014896 278.368855 
L 217.246958 276.618949 
L 217.47902 273.909826 
L 217.943144 277.272347 
L 218.175206 269.763315 
L 218.407268 281.881766 
L 218.639329 276.086933 
L 218.871391 284.530857 
L 219.103453 266.693722 
L 219.335515 283.904503 
L 219.567577 281.249729 
L 219.799639 274.749581 
L 220.031701 280.143026 
L 220.263762 275.815961 
L 220.495824 280.353091 
L 220.727886 264.371932 
L 220.959948 273.634214 
L 221.19201 276.126116 
L 221.424072 270.310062 
L 221.656134 282.309982 
L 221.888195 280.881602 
L 222.120257 269.862006 
L 222.352319 267.864719 
L 222.584381 276.936037 
L 222.816443 281.325159 
L 223.048505 276.738677 
L 223.280567 281.203126 
L 223.512629 272.492649 
L 223.74469 283.594433 
L 223.976752 273.01888 
L 224.208814 275.217938 
L 224.440876 253.249108 
L 224.672938 276.47761 
L 224.905 280.935657 
L 225.137062 279.00376 
L 225.369123 283.189211 
L 225.601185 270.721521 
L 225.833247 280.057181 
L 226.065309 274.565573 
L 226.297371 280.231328 
L 226.761495 272.801833 
L 226.993556 272.634672 
L 227.225618 283.051116 
L 227.45768 277.800642 
L 227.689742 269.78486 
L 227.921804 283.948022 
L 228.153866 285.538463 
L 228.385928 276.511827 
L 228.617989 282.820784 
L 228.850051 275.795409 
L 229.082113 283.656126 
L 229.314175 277.112465 
L 229.546237 263.588312 
L 229.778299 283.148443 
L 230.010361 278.977104 
L 230.242423 285.786261 
L 230.706546 273.040899 
L 230.938608 275.48235 
L 231.17067 271.156363 
L 231.402732 263.909399 
L 231.634794 272.250448 
L 231.866856 275.12359 
L 232.563041 288.827553 
L 232.795103 276.289103 
L 233.027165 278.617012 
L 233.259227 275.883003 
L 233.491289 263.190352 
L 233.955412 281.71045 
L 234.187474 269.370918 
L 234.651598 277.326613 
L 234.88366 276.98758 
L 235.115722 284.374218 
L 235.347783 274.759845 
L 235.579845 273.291979 
L 235.811907 275.796241 
L 236.043969 287.095437 
L 236.276031 277.378246 
L 236.508093 273.196194 
L 236.740155 279.940376 
L 237.204278 277.902736 
L 237.43634 286.299012 
L 237.668402 276.634337 
L 237.900464 287.891353 
L 238.364588 280.280852 
L 238.59665 270.615058 
L 238.828711 277.40539 
L 239.060773 295.123617 
L 239.292835 283.359979 
L 239.524897 282.558187 
L 239.756959 271.839955 
L 239.989021 295.488 
L 240.221083 291.390469 
L 240.453144 290.456558 
L 240.685206 270.134104 
L 240.917268 283.404567 
L 241.14933 280.510312 
L 241.381392 290.20502 
L 241.613454 281.345509 
L 241.845516 278.905136 
L 242.077577 283.611837 
L 242.309639 280.526243 
L 242.541701 274.563718 
L 242.773763 276.649213 
L 243.005825 270.185229 
L 243.237887 289.348563 
L 243.469949 277.436604 
L 243.702011 277.986488 
L 243.934072 276.88277 
L 244.166134 277.198227 
L 244.398196 270.979536 
L 244.630258 279.824179 
L 245.094382 273.054833 
L 245.326444 278.702297 
L 245.558505 280.505352 
L 245.790567 279.512791 
L 246.022629 276.901825 
L 246.254691 275.784733 
L 246.486753 283.501876 
L 246.718815 273.137856 
L 246.950877 284.611637 
L 247.182938 282.816773 
L 247.415 287.230933 
L 247.647062 282.538603 
L 247.879124 268.55204 
L 248.343248 273.642011 
L 248.57531 274.944781 
L 248.807371 273.77958 
L 249.039433 277.271557 
L 249.271495 272.04182 
L 249.503557 276.871208 
L 249.735619 268.074488 
L 249.967681 264.837105 
L 250.199743 277.579117 
L 250.663866 271.619945 
L 250.895928 279.20321 
L 251.12799 267.568659 
L 251.592114 280.653806 
L 251.824176 280.671857 
L 252.056238 275.692743 
L 252.288299 279.240908 
L 252.520361 270.149896 
L 252.752423 271.196466 
L 252.984485 286.122095 
L 253.216547 285.879853 
L 253.448609 269.412271 
L 253.680671 282.415168 
L 253.912732 276.899 
L 254.144794 281.670718 
L 254.376856 274.724365 
L 254.608918 285.71451 
L 254.84098 270.332853 
L 255.073042 269.480496 
L 255.305104 287.112208 
L 255.537166 278.014699 
L 255.769227 279.572431 
L 256.001289 266.549899 
L 256.233351 284.020499 
L 256.465413 273.101105 
L 256.697475 277.18838 
L 256.929537 274.413631 
L 257.161599 274.205987 
L 257.39366 287.537452 
L 257.625722 285.05015 
L 257.857784 274.272746 
L 258.089846 274.9993 
L 258.321908 282.904169 
L 258.55397 282.91966 
L 258.786032 269.533433 
L 259.018093 280.568134 
L 259.250155 274.907863 
L 259.482217 284.784879 
L 259.714279 276.897914 
L 259.946341 279.820389 
L 260.178403 294.171108 
L 260.642526 280.342647 
L 260.874588 278.425218 
L 261.10665 282.558414 
L 261.338712 281.0762 
L 261.570774 270.736625 
L 261.802836 279.750778 
L 262.034898 280.292157 
L 262.26696 277.764714 
L 262.499021 272.371474 
L 262.731083 285.839501 
L 262.963145 271.958522 
L 263.195207 274.914274 
L 263.427269 273.445739 
L 263.659331 273.017317 
L 263.891393 277.804005 
L 264.123454 280.014471 
L 264.355516 269.298862 
L 264.587578 276.18539 
L 264.81964 269.618978 
L 265.051702 268.44459 
L 265.283764 271.375138 
L 265.515826 272.875458 
L 265.747887 272.382979 
L 266.212011 285.962746 
L 266.444073 275.055187 
L 266.676135 275.547334 
L 266.908197 274.562179 
L 267.140259 263.18994 
L 267.604382 289.835769 
L 267.836444 273.539379 
L 268.068506 286.468419 
L 268.300568 286.217399 
L 268.53263 278.892544 
L 268.764692 283.691422 
L 268.996754 280.031308 
L 269.228815 269.251739 
L 269.692939 288.909078 
L 269.925001 272.630452 
L 270.157063 287.195824 
L 270.389125 275.925176 
L 270.621187 275.144279 
L 270.853248 280.707967 
L 271.08531 276.420416 
L 271.317372 281.988483 
L 271.549434 264.798636 
L 271.781496 274.756352 
L 272.013558 277.678984 
L 272.24562 283.086415 
L 272.477681 276.03004 
L 272.709743 276.934364 
L 272.941805 281.097333 
L 273.173867 274.880704 
L 273.405929 279.558614 
L 273.637991 287.871926 
L 273.870053 267.90577 
L 274.102114 279.831547 
L 274.334176 278.874877 
L 274.566238 275.115048 
L 274.7983 275.896825 
L 275.030362 278.524714 
L 275.262424 282.709882 
L 275.494486 278.544335 
L 275.726548 281.21439 
L 275.958609 265.167552 
L 276.190671 278.484512 
L 276.422733 278.787664 
L 276.654795 281.31903 
L 276.886857 281.117061 
L 277.118919 279.036399 
L 277.350981 288.930483 
L 277.583042 278.443187 
L 277.815104 280.891152 
L 278.047166 271.374673 
L 278.279228 269.052289 
L 278.51129 281.601807 
L 278.743352 265.329535 
L 278.975414 285.203195 
L 279.207475 283.110048 
L 279.671599 274.189569 
L 279.903661 274.674742 
L 280.135723 278.333797 
L 280.367785 289.355365 
L 280.599847 275.860463 
L 280.831909 283.141146 
L 281.06397 272.426348 
L 281.296032 267.844278 
L 281.528094 268.431701 
L 281.992218 280.742627 
L 282.22428 272.998934 
L 282.456342 280.491859 
L 282.688403 273.939927 
L 282.920465 280.965418 
L 283.152527 283.627079 
L 283.616651 280.006084 
L 283.848713 289.8479 
L 284.080775 276.119395 
L 284.312836 283.121884 
L 284.544898 265.524466 
L 284.77696 277.957574 
L 285.009022 274.50407 
L 285.241084 275.716996 
L 285.473146 280.701086 
L 285.705208 274.357912 
L 285.937269 277.080954 
L 286.169331 276.664737 
L 286.401393 285.764328 
L 286.633455 277.096225 
L 286.865517 280.074287 
L 287.329641 270.322534 
L 287.561703 273.906906 
L 287.793764 252.142838 
L 288.257888 267.080075 
L 288.48995 268.532087 
L 288.954074 286.617274 
L 289.186136 275.970672 
L 289.418197 276.440137 
L 289.650259 278.329295 
L 289.882321 281.769284 
L 290.114383 275.027603 
L 290.346445 275.418588 
L 290.578507 289.324568 
L 290.810569 270.713747 
L 291.04263 267.944146 
L 291.274692 284.394883 
L 291.506754 268.364056 
L 291.738816 280.281662 
L 291.970878 272.59384 
L 292.20294 281.230743 
L 292.435002 280.653281 
L 292.899125 269.060315 
L 293.131187 273.896296 
L 293.363249 274.665928 
L 293.595311 272.86642 
L 294.059435 286.849219 
L 294.291497 280.244062 
L 294.523558 290.503269 
L 294.75562 279.921234 
L 295.219744 285.415957 
L 295.451806 276.447474 
L 295.683868 275.612645 
L 295.91593 276.436046 
L 296.147991 282.010114 
L 296.380053 277.284644 
L 296.612115 276.321647 
L 296.844177 288.733193 
L 297.076239 279.874588 
L 297.308301 285.730847 
L 297.540363 281.099316 
L 297.772424 271.467459 
L 298.004486 270.634099 
L 298.236548 272.967357 
L 298.46861 281.399443 
L 298.700672 275.368943 
L 298.932734 274.392614 
L 299.164796 283.166034 
L 299.396857 280.325411 
L 299.628919 280.295986 
L 299.860981 284.949959 
L 300.093043 278.070254 
L 300.325105 279.712496 
L 300.557167 275.90655 
L 300.789229 268.493698 
L 301.021291 275.606053 
L 301.253352 273.270342 
L 301.485414 260.798777 
L 301.949538 279.207606 
L 302.1816 272.245465 
L 302.413662 268.971883 
L 302.877785 283.03846 
L 303.109847 294.187979 
L 303.341909 275.373915 
L 303.573971 280.774222 
L 303.806033 290.227399 
L 304.038095 267.185318 
L 304.270157 275.918082 
L 304.502218 274.545982 
L 304.73428 282.690887 
L 304.966342 275.050191 
L 305.198404 278.686626 
L 305.430466 279.212052 
L 305.662528 278.942115 
L 305.89459 280.276756 
L 306.126652 271.174778 
L 306.358713 277.89297 
L 306.590775 260.357139 
L 306.822837 276.845046 
L 307.054899 279.760357 
L 307.286961 268.113075 
L 307.519023 280.294995 
L 307.751085 273.048609 
L 307.983146 282.734291 
L 308.215208 279.939522 
L 308.44727 288.668657 
L 308.679332 270.105802 
L 308.911394 287.742081 
L 309.375518 278.092055 
L 309.607579 279.219322 
L 310.071703 285.921268 
L 310.303765 284.886582 
L 310.535827 278.365357 
L 310.767889 280.283441 
L 310.999951 271.98744 
L 311.232012 273.964525 
L 311.464074 288.726898 
L 311.696136 280.54704 
L 311.928198 285.555758 
L 312.392322 279.456676 
L 312.624384 275.269472 
L 313.088507 280.553154 
L 313.320569 288.988379 
L 313.552631 278.035983 
L 313.784693 278.144408 
L 314.016755 274.67094 
L 314.248817 274.82646 
L 314.480879 273.639132 
L 314.71294 277.495031 
L 314.945002 274.704558 
L 315.177064 282.817025 
L 315.409126 276.983225 
L 315.641188 274.871555 
L 315.87325 278.063127 
L 316.105312 277.869532 
L 316.337373 260.390538 
L 316.569435 273.795861 
L 316.801497 267.203238 
L 317.033559 278.404114 
L 317.497683 286.391589 
L 317.729745 286.352154 
L 317.961806 260.375898 
L 318.42593 273.997099 
L 318.657992 267.692028 
L 319.122116 282.250899 
L 319.354178 262.790204 
L 319.58624 282.500664 
L 319.818301 283.41908 
L 320.050363 269.114461 
L 320.282425 288.140292 
L 320.514487 282.347086 
L 320.746549 266.291945 
L 321.210673 289.309705 
L 321.442734 275.499037 
L 321.674796 283.375759 
L 321.906858 274.934397 
L 322.13892 275.688048 
L 322.370982 280.781528 
L 322.603044 278.920504 
L 322.835106 269.389946 
L 323.067167 281.283838 
L 323.299229 278.318868 
L 323.531291 285.267108 
L 323.763353 266.948859 
L 323.995415 275.929584 
L 324.227477 276.999409 
L 324.6916 275.108903 
L 324.923662 267.723453 
L 325.155724 275.609872 
L 325.387786 275.049142 
L 325.619848 295.023979 
L 325.85191 282.523034 
L 326.316034 268.389416 
L 326.780157 283.475055 
L 327.012219 285.163475 
L 327.244281 274.165981 
L 327.476343 276.427874 
L 327.708405 280.19517 
L 327.940467 280.151959 
L 328.172528 276.579301 
L 328.40459 278.843287 
L 328.636652 268.616876 
L 328.868714 280.012931 
L 329.100776 279.449654 
L 329.332838 279.980113 
L 329.5649 259.72309 
L 329.796961 277.024915 
L 330.029023 267.483959 
L 330.261085 280.395434 
L 330.493147 272.929875 
L 330.725209 282.495447 
L 330.957271 278.142225 
L 331.189333 276.902068 
L 331.421395 277.558927 
L 331.653456 276.653405 
L 331.885518 281.701273 
L 332.11758 290.976117 
L 332.349642 284.053713 
L 332.581704 269.478341 
L 332.813766 281.074502 
L 333.045828 277.4408 
L 333.277889 285.498417 
L 333.509951 275.668845 
L 333.742013 272.966683 
L 333.974075 278.431984 
L 334.206137 279.547224 
L 334.438199 278.59226 
L 334.670261 284.953462 
L 334.902322 284.004188 
L 335.366446 270.027571 
L 335.598508 268.942634 
L 335.83057 284.710695 
L 336.062632 276.466517 
L 336.526755 271.619481 
L 336.990879 285.397134 
L 337.222941 286.240932 
L 337.455003 277.983451 
L 337.687065 276.341303 
L 337.919127 284.463086 
L 338.151189 273.17511 
L 338.38325 269.951934 
L 338.615312 284.36392 
L 338.847374 286.481561 
L 339.079436 290.457719 
L 339.311498 272.621641 
L 339.54356 285.773875 
L 339.775622 283.797229 
L 340.007683 268.118016 
L 340.239745 281.221171 
L 340.471807 263.111211 
L 340.703869 283.30934 
L 340.935931 276.384273 
L 341.167993 283.555741 
L 341.400055 280.591748 
L 341.632116 279.922078 
L 341.864178 277.524828 
L 342.09624 273.622165 
L 342.328302 283.046968 
L 342.560364 276.917144 
L 342.792426 290.851383 
L 343.024488 278.237698 
L 343.256549 281.487877 
L 343.488611 286.95836 
L 343.952735 272.101491 
L 344.184797 289.65453 
L 344.416859 276.470681 
L 344.648921 269.961521 
L 344.880983 281.848569 
L 345.113044 276.576622 
L 345.345106 276.013843 
L 345.577168 277.133519 
L 345.80923 287.737495 
L 346.041292 276.273025 
L 346.273354 285.914459 
L 346.505416 285.822746 
L 346.737477 276.047599 
L 346.969539 279.04473 
L 347.433663 269.787978 
L 347.665725 281.32757 
L 347.897787 283.40311 
L 348.129849 276.117739 
L 348.36191 286.184197 
L 348.593972 282.372017 
L 348.826034 290.404693 
L 349.058096 272.949459 
L 349.290158 285.11166 
L 349.52222 281.134248 
L 349.754282 290.2213 
L 349.986343 285.383444 
L 350.218405 270.426667 
L 350.450467 287.735042 
L 350.914591 267.512091 
L 351.378715 277.30456 
L 351.610777 282.51809 
L 351.842838 273.874834 
L 352.0749 273.322989 
L 352.306962 270.692674 
L 352.771086 280.951279 
L 353.003148 269.439321 
L 353.23521 270.135857 
L 353.467271 281.386729 
L 353.699333 281.389204 
L 353.931395 277.755802 
L 354.163457 293.389445 
L 354.395519 279.421308 
L 354.627581 281.954645 
L 354.859643 257.854208 
L 355.091704 278.874957 
L 355.323766 267.574326 
L 355.555828 275.029278 
L 355.78789 286.062231 
L 356.019952 274.524506 
L 356.252014 290.768523 
L 356.484076 284.715363 
L 356.716138 282.82544 
L 356.948199 274.576097 
L 357.180261 290.766105 
L 357.412323 276.478681 
L 357.644385 284.844213 
L 357.876447 271.649096 
L 358.108509 285.607035 
L 358.340571 272.705373 
L 358.572632 293.547728 
L 358.804694 292.520537 
L 359.036756 276.255685 
L 359.50088 278.144354 
L 359.732942 266.570534 
L 360.197065 290.189631 
L 360.429127 271.809264 
L 361.357375 290.161797 
L 361.589437 282.954721 
L 361.821498 284.855747 
L 362.05356 283.263048 
L 362.285622 282.818225 
L 362.517684 291.854435 
L 362.749746 264.17738 
L 362.981808 279.140446 
L 363.21387 273.94426 
L 363.445932 288.114731 
L 363.677993 272.416107 
L 363.910055 270.217765 
L 364.142117 271.053755 
L 364.374179 279.091194 
L 364.606241 276.655547 
L 364.838303 280.980808 
L 365.070365 279.630834 
L 365.302426 294.601686 
L 365.76655 284.233424 
L 365.998612 264.795697 
L 366.230674 276.6897 
L 366.462736 274.700089 
L 366.694798 285.007322 
L 366.926859 276.860887 
L 367.158921 275.268169 
L 367.390983 288.770913 
L 367.623045 276.659154 
L 367.855107 291.612896 
L 368.087169 278.169041 
L 368.319231 275.173722 
L 368.551292 286.418938 
L 368.783354 283.528187 
L 369.015416 273.829393 
L 369.247478 281.100713 
L 369.47954 256.374449 
L 369.943664 279.65437 
L 370.175726 276.247736 
L 370.407787 285.314564 
L 370.871911 270.996149 
L 371.103973 280.635056 
L 371.336035 274.6363 
L 371.800159 281.56967 
L 372.03222 273.433707 
L 372.264282 271.975219 
L 372.496344 283.849182 
L 372.728406 285.635394 
L 372.960468 286.231765 
L 373.19253 276.793254 
L 373.424592 282.523744 
L 373.888715 274.314916 
L 374.120777 286.291948 
L 374.584901 274.346182 
L 375.049025 277.795787 
L 375.281086 289.185247 
L 375.513148 274.520157 
L 375.74521 278.815317 
L 375.977272 269.714062 
L 376.209334 281.239217 
L 376.441396 277.46429 
L 376.90552 294.226126 
L 377.369643 266.466424 
L 377.601705 276.400722 
L 377.833767 270.686943 
L 378.065829 287.890097 
L 378.297891 272.904278 
L 378.529953 277.532981 
L 378.762014 277.645772 
L 378.994076 293.408074 
L 379.226138 285.134477 
L 379.4582 286.67656 
L 379.690262 276.58901 
L 379.922324 282.209009 
L 380.154386 278.90615 
L 380.386447 286.24527 
L 380.618509 268.029088 
L 380.850571 273.35129 
L 381.082633 274.532249 
L 381.314695 290.053923 
L 381.546757 281.165732 
L 381.778819 280.558457 
L 382.01088 285.832751 
L 382.242942 280.816707 
L 382.475004 289.818075 
L 382.707066 287.489803 
L 382.939128 276.616222 
L 383.17119 283.932462 
L 383.403252 285.538257 
L 383.635314 289.549587 
L 383.867375 278.143346 
L 384.099437 281.729947 
L 384.563561 268.370496 
L 384.795623 279.485632 
L 385.027685 282.442546 
L 385.491808 273.944784 
L 385.72387 288.418239 
L 385.955932 272.794047 
L 386.187994 283.627052 
L 386.420056 277.6221 
L 386.652118 287.736598 
L 386.88418 278.119416 
L 387.116241 275.324016 
L 387.348303 279.807156 
L 387.580365 281.857065 
L 387.812427 278.02646 
L 388.044489 284.82168 
L 388.276551 284.877753 
L 388.740675 278.254968 
L 388.972736 291.232594 
L 389.204798 278.277857 
L 389.43686 280.144988 
L 389.668922 283.814891 
L 389.900984 263.937876 
L 390.597169 286.794761 
L 390.829231 277.085752 
L 391.061293 281.468458 
L 391.293355 274.468295 
L 391.525417 284.447497 
L 391.757479 271.018578 
L 391.989541 287.484638 
L 392.453664 281.110736 
L 392.685726 281.076631 
L 392.917788 284.859734 
L 393.14985 282.885019 
L 393.381912 274.503241 
L 393.613974 291.005069 
L 393.846035 277.860919 
L 394.078097 271.666311 
L 394.310159 286.220261 
L 394.542221 278.173243 
L 394.774283 280.003067 
L 395.006345 276.188293 
L 395.238407 276.034448 
L 395.470469 268.292102 
L 395.934592 278.517285 
L 396.166654 271.629026 
L 396.398716 281.92924 
L 396.630778 277.157251 
L 396.86284 275.544753 
L 397.094902 273.049219 
L 397.559025 288.206154 
L 398.023149 284.26739 
L 398.255211 291.038438 
L 398.487273 282.844274 
L 398.487273 282.844274 
" style="fill:none;stroke:#1f77b4;stroke-linecap:square;stroke-width:1.5;"/>
   </g>
   <g id="line2d_15">
    <path clip-path="url(#p902127b4e0)" d="M 73.832727 102.592657 
L 74.528913 136.883254 
L 74.760975 139.168078 
L 74.993037 148.052016 
L 75.225098 145.559541 
L 75.45716 168.144318 
L 75.689222 174.258095 
L 75.921284 167.254544 
L 76.153346 179.481871 
L 76.61747 187.961084 
L 76.849531 186.013742 
L 77.081593 189.193218 
L 77.313655 187.835296 
L 77.777779 193.454281 
L 78.009841 206.023495 
L 78.241903 201.709575 
L 78.473965 201.533014 
L 78.706026 201.628986 
L 78.938088 205.38505 
L 79.17015 196.346386 
L 79.402212 208.651768 
L 79.634274 206.515429 
L 79.866336 205.78456 
L 80.330459 211.197224 
L 80.562521 217.698357 
L 81.026645 200.710362 
L 81.258707 214.334394 
L 81.490769 215.519047 
L 81.722831 203.052535 
L 81.954892 215.771657 
L 82.186954 202.260719 
L 82.651078 219.580464 
L 82.88314 212.597949 
L 83.115202 200.181217 
L 83.347264 224.696528 
L 83.579325 193.532889 
L 83.811387 217.984053 
L 84.043449 217.67983 
L 84.275511 218.896578 
L 84.507573 220.780494 
L 84.739635 220.546631 
L 84.971697 223.753372 
L 85.203759 222.413974 
L 85.43582 211.876958 
L 85.667882 224.084234 
L 86.132006 219.608497 
L 86.59613 228.014373 
L 86.828192 217.815133 
L 87.060253 236.072169 
L 87.292315 221.606436 
L 87.524377 223.521333 
L 87.756439 230.721782 
L 87.988501 222.344557 
L 88.220563 221.200414 
L 88.452625 228.826192 
L 88.684686 230.131381 
L 88.916748 230.776494 
L 89.14881 218.532197 
L 89.380872 231.557973 
L 89.612934 230.81927 
L 90.077058 237.078447 
L 90.30912 227.26918 
L 90.541181 235.368353 
L 91.005305 231.589203 
L 91.469429 238.108466 
L 91.701491 226.281019 
L 92.165614 235.640132 
L 92.397676 236.65784 
L 92.629738 229.825524 
L 92.8618 237.9373 
L 93.325924 235.447907 
L 93.790047 224.566349 
L 94.022109 236.39674 
L 94.254171 231.520294 
L 94.486233 237.180634 
L 94.718295 229.029476 
L 94.950357 245.058872 
L 95.182419 233.254444 
L 95.41448 239.832984 
L 95.646542 242.272815 
L 95.878604 242.900909 
L 96.110666 234.407521 
L 96.342728 237.938115 
L 96.57479 207.060013 
L 97.038914 248.464173 
L 97.503037 238.561939 
L 97.735099 239.582698 
L 97.967161 245.973665 
L 98.199223 246.001402 
L 98.431285 240.635436 
L 98.663347 239.563152 
L 98.895408 250.947202 
L 99.12747 242.429699 
L 99.359532 243.387279 
L 99.591594 250.13093 
L 99.823656 249.990866 
L 100.055718 251.738579 
L 100.28778 239.944868 
L 100.519841 240.965884 
L 100.751903 236.424829 
L 100.983965 247.217325 
L 101.216027 240.336597 
L 101.448089 244.651203 
L 101.680151 236.898192 
L 101.912213 244.471645 
L 102.144274 247.144214 
L 102.608398 235.115035 
L 102.84046 249.010904 
L 103.072522 247.686706 
L 103.304584 238.700385 
L 103.536646 247.628425 
L 103.768708 238.934098 
L 104.000769 237.109067 
L 104.464893 248.446104 
L 104.696955 246.195823 
L 105.161079 239.809209 
L 105.393141 247.736953 
L 105.857264 242.063904 
L 106.089326 252.196819 
L 106.321388 244.018066 
L 106.55345 245.064251 
L 106.785512 241.147514 
L 107.017574 246.970835 
L 107.249635 240.050489 
L 107.481697 242.876553 
L 107.945821 250.062491 
L 108.177883 223.678957 
L 108.409945 252.514966 
L 108.642007 250.018537 
L 108.874068 229.531029 
L 109.338192 247.176728 
L 109.570254 247.485546 
L 109.802316 241.241647 
L 110.034378 243.003196 
L 110.26644 241.848145 
L 110.498502 243.284227 
L 110.730563 246.558571 
L 110.962625 246.77995 
L 111.194687 241.975172 
L 111.426749 258.795161 
L 111.658811 242.911683 
L 111.890873 253.927547 
L 112.122935 252.294646 
L 112.587058 244.833469 
L 112.81912 256.39905 
L 113.051182 248.1504 
L 113.283244 249.544218 
L 113.515306 243.068744 
L 113.747368 228.152193 
L 113.979429 248.217996 
L 114.211491 250.02736 
L 114.443553 254.664086 
L 114.675615 246.213371 
L 114.907677 247.171996 
L 115.139739 249.033867 
L 115.371801 258.251029 
L 115.603862 241.269826 
L 115.835924 244.66009 
L 116.067986 254.411395 
L 116.300048 244.992408 
L 116.53211 245.540022 
L 116.996234 253.819702 
L 117.228296 257.953723 
L 117.460357 250.864229 
L 117.692419 239.197258 
L 117.924481 243.273464 
L 118.156543 258.552618 
L 118.388605 248.021692 
L 118.620667 248.232143 
L 118.852729 253.003208 
L 119.08479 254.392467 
L 119.316852 251.572247 
L 119.780976 261.09963 
L 120.013038 257.02835 
L 120.2451 257.015855 
L 120.477162 252.137861 
L 120.709223 261.367445 
L 120.941285 252.61725 
L 121.173347 254.333355 
L 121.405409 258.700547 
L 121.637471 258.581006 
L 121.869533 253.195086 
L 122.101595 256.362434 
L 122.333657 253.102128 
L 122.565718 261.441166 
L 122.79778 259.773752 
L 123.029842 250.966933 
L 123.261904 264.695616 
L 123.493966 256.581387 
L 123.726028 260.199567 
L 123.95809 260.475505 
L 124.190151 256.352265 
L 124.422213 254.456389 
L 124.654275 261.978259 
L 124.886337 257.517142 
L 125.118399 257.524897 
L 125.350461 263.20332 
L 125.582523 258.493691 
L 125.814584 264.445363 
L 126.046646 259.061952 
L 126.278708 260.560326 
L 126.51077 259.636368 
L 126.742832 242.458629 
L 126.974894 258.717252 
L 127.206956 261.553793 
L 127.439017 259.829808 
L 127.671079 259.63464 
L 127.903141 260.428007 
L 128.135203 260.155744 
L 128.367265 270.781517 
L 128.599327 257.950606 
L 128.831389 258.116186 
L 129.063451 251.600781 
L 129.295512 268.166928 
L 129.527574 264.708564 
L 129.759636 264.401305 
L 129.991698 268.301827 
L 130.22376 253.735545 
L 130.455822 265.335668 
L 130.687884 262.572345 
L 130.919945 257.522828 
L 131.152007 273.296754 
L 131.384069 244.872149 
L 131.616131 261.941229 
L 131.848193 262.766218 
L 132.080255 265.040266 
L 132.312317 259.523705 
L 132.77644 265.668992 
L 133.008502 267.750445 
L 133.240564 256.207516 
L 133.472626 263.522635 
L 133.704688 253.977099 
L 133.93675 269.995989 
L 134.168811 257.754393 
L 134.400873 273.508576 
L 134.632935 235.19491 
L 134.864997 270.670524 
L 135.097059 265.567569 
L 135.329121 269.789344 
L 135.793245 258.421801 
L 136.025306 263.36466 
L 136.257368 262.275849 
L 136.48943 262.499225 
L 136.721492 261.316388 
L 136.953554 265.629921 
L 137.185616 266.275388 
L 137.417678 260.789927 
L 137.649739 261.292431 
L 137.881801 265.649579 
L 138.113863 260.026159 
L 138.577987 265.790527 
L 138.810049 262.628844 
L 139.042111 261.985979 
L 139.274172 264.330213 
L 139.506234 263.533099 
L 139.738296 260.079376 
L 139.970358 243.358873 
L 140.20242 273.501017 
L 140.434482 261.661185 
L 140.666544 270.667913 
L 140.898605 257.557083 
L 141.362729 276.052479 
L 141.594791 254.950695 
L 141.826853 264.469413 
L 142.058915 261.921041 
L 142.290977 263.374445 
L 142.523039 256.246088 
L 142.7551 267.324447 
L 142.987162 266.151991 
L 143.219224 269.152675 
L 143.451286 263.943839 
L 143.683348 266.353623 
L 143.91541 264.647031 
L 144.147472 264.851142 
L 144.379533 263.113308 
L 144.611595 263.581731 
L 144.843657 269.018741 
L 145.075719 265.964447 
L 145.539843 271.774432 
L 145.771905 269.416104 
L 146.003966 264.404079 
L 146.236028 244.081176 
L 146.46809 250.360712 
L 146.700152 260.568823 
L 146.932214 265.020773 
L 147.164276 257.294238 
L 147.396338 264.074648 
L 147.6284 257.712826 
L 147.860461 259.194954 
L 148.092523 255.605329 
L 148.324585 267.314239 
L 148.556647 266.863322 
L 148.788709 262.404292 
L 149.020771 273.492232 
L 149.252833 275.592019 
L 149.484894 252.222412 
L 149.716956 267.035015 
L 149.949018 269.961507 
L 150.18108 265.909504 
L 150.877266 261.160284 
L 151.109327 250.335842 
L 151.341389 266.111595 
L 151.573451 267.429572 
L 151.805513 267.116127 
L 152.037575 260.988951 
L 152.269637 272.048552 
L 152.73376 260.631296 
L 153.197884 272.031284 
L 153.429946 266.361896 
L 153.662008 256.662153 
L 154.126132 267.684993 
L 154.358194 267.044107 
L 154.590255 262.672855 
L 154.822317 253.583748 
L 155.054379 266.236348 
L 155.286441 264.738845 
L 155.518503 258.723075 
L 155.750565 258.858652 
L 155.982627 268.347528 
L 156.214688 262.2717 
L 156.44675 267.965489 
L 156.678812 265.474223 
L 156.910874 240.111307 
L 157.142936 264.251255 
L 157.374998 266.499625 
L 157.60706 267.587614 
L 157.839121 244.991526 
L 158.071183 266.015585 
L 158.303245 259.07003 
L 158.535307 264.355583 
L 158.767369 238.744268 
L 158.999431 262.91885 
L 159.231493 273.263373 
L 159.463554 258.617984 
L 159.927678 266.900143 
L 160.15974 269.028891 
L 160.391802 268.28052 
L 160.855926 272.869705 
L 161.087988 264.946418 
L 161.320049 267.792946 
L 161.552111 268.964316 
L 161.784173 268.88529 
L 162.016235 267.277486 
L 162.248297 255.746932 
L 162.480359 266.071141 
L 162.712421 261.76947 
L 162.944482 263.206086 
L 163.176544 266.899124 
L 163.408606 261.241659 
L 163.87273 264.736894 
L 164.104792 251.200921 
L 164.336854 256.337218 
L 164.568915 267.744515 
L 164.800977 263.577828 
L 165.033039 278.103749 
L 165.265101 270.922756 
L 165.497163 270.968489 
L 165.961287 263.101193 
L 166.193348 275.787652 
L 166.657472 258.578583 
L 166.889534 269.585006 
L 167.121596 270.099827 
L 167.353658 265.177289 
L 167.58572 257.162864 
L 167.817782 270.686697 
L 168.049843 267.824502 
L 168.513967 275.1033 
L 168.746029 262.261294 
L 168.978091 271.175478 
L 169.210153 253.750404 
L 169.442215 262.72939 
L 169.674276 255.882163 
L 170.370462 275.294804 
L 170.602524 268.059683 
L 170.834586 265.636681 
L 171.066648 260.400658 
L 171.298709 274.520087 
L 171.530771 280.387 
L 171.762833 265.678192 
L 171.994895 260.488761 
L 172.226957 267.44492 
L 172.459019 269.436912 
L 172.691081 272.65474 
L 172.923143 267.424441 
L 173.155204 270.161982 
L 173.387266 276.591114 
L 173.619328 263.722075 
L 173.85139 269.42664 
L 174.083452 260.311042 
L 174.315514 262.630956 
L 174.547576 257.406202 
L 174.779637 265.352077 
L 175.011699 265.795513 
L 175.243761 264.935454 
L 175.475823 277.054241 
L 175.707885 261.267597 
L 176.172009 272.240357 
L 176.40407 268.931898 
L 176.636132 255.745254 
L 176.868194 280.761847 
L 177.100256 269.421766 
L 177.332318 266.617766 
L 177.56438 266.057857 
L 177.796442 268.232453 
L 178.028503 265.903403 
L 178.260565 262.353615 
L 178.492627 268.719811 
L 178.724689 269.098238 
L 178.956751 266.388971 
L 179.188813 267.399807 
L 179.420875 263.675455 
L 179.652937 255.407562 
L 179.884998 265.374612 
L 180.11706 259.396323 
L 180.349122 265.920283 
L 180.581184 263.580856 
L 180.813246 266.860899 
L 181.045308 264.79321 
L 181.27737 269.626642 
L 181.509431 262.430733 
L 181.741493 274.218846 
L 181.973555 271.565132 
L 182.205617 270.361929 
L 182.437679 266.703945 
L 182.669741 268.773912 
L 182.901803 262.044195 
L 183.133864 274.049007 
L 183.597988 264.867032 
L 183.83005 273.708111 
L 184.062112 264.794954 
L 184.294174 265.439353 
L 184.526236 259.819621 
L 184.758297 264.434435 
L 184.990359 259.888651 
L 185.222421 263.844576 
L 185.454483 271.507637 
L 185.686545 270.686307 
L 185.918607 267.850146 
L 186.150669 282.382919 
L 186.382731 259.969429 
L 186.614792 263.112663 
L 186.846854 269.683549 
L 187.078916 270.265479 
L 187.310978 270.111778 
L 187.54304 266.639356 
L 188.007164 269.349615 
L 188.239225 252.079914 
L 188.471287 267.079919 
L 188.703349 273.385512 
L 188.935411 266.116101 
L 189.167473 254.605275 
L 189.399535 263.019619 
L 189.863658 259.086326 
L 190.09572 264.263087 
L 190.327782 272.264637 
L 190.559844 269.134085 
L 190.791906 269.728585 
L 191.023968 265.350758 
L 191.25603 274.109976 
L 191.488091 263.551304 
L 191.720153 266.455157 
L 191.952215 265.6509 
L 192.184277 266.369687 
L 192.416339 276.402962 
L 192.648401 236.620041 
L 192.880463 253.010694 
L 193.112525 261.323789 
L 193.344586 274.329097 
L 193.576648 266.980643 
L 193.80871 263.618017 
L 194.040772 273.010158 
L 194.272834 275.151545 
L 194.504896 268.808413 
L 194.736958 272.783259 
L 195.201081 256.035995 
L 195.665205 264.783085 
L 195.897267 264.757447 
L 196.129329 260.159055 
L 196.361391 257.964943 
L 196.593452 265.236597 
L 196.825514 265.078238 
L 197.057576 261.371073 
L 197.289638 261.916056 
L 197.5217 265.584576 
L 197.753762 272.805742 
L 197.985824 264.516974 
L 198.449947 270.692235 
L 198.682009 268.20969 
L 199.146133 277.358706 
L 199.378195 269.119802 
L 199.610257 276.04941 
L 199.842319 258.124434 
L 200.07438 268.982617 
L 200.306442 271.636303 
L 200.538504 271.576347 
L 200.770566 267.620255 
L 201.002628 266.166668 
L 201.23469 274.205676 
L 201.466752 274.665188 
L 201.698813 266.89022 
L 201.930875 265.834474 
L 202.162937 261.930575 
L 202.394999 269.17877 
L 202.627061 265.766705 
L 202.859123 266.555011 
L 203.091185 270.739117 
L 203.323246 268.407263 
L 203.555308 273.838867 
L 203.78737 268.863278 
L 204.019432 260.364852 
L 204.251494 269.909322 
L 204.483556 264.422808 
L 204.715618 253.826992 
L 205.179741 272.943991 
L 205.411803 273.660541 
L 205.875927 261.416274 
L 206.107989 269.935736 
L 206.340051 267.093916 
L 206.572113 262.824526 
L 206.804174 261.899997 
L 207.036236 268.525367 
L 207.268298 267.13793 
L 207.50036 268.752048 
L 207.732422 262.841292 
L 207.964484 269.550498 
L 208.196546 268.745449 
L 208.428607 266.792716 
L 208.660669 280.708534 
L 208.892731 269.883238 
L 209.124793 273.487689 
L 209.356855 268.666579 
L 209.588917 269.055586 
L 209.820979 268.768125 
L 210.05304 268.665586 
L 210.285102 265.067521 
L 210.517164 265.635713 
L 210.749226 265.500623 
L 210.981288 265.810994 
L 211.21335 272.319652 
L 211.445412 269.988734 
L 211.677474 261.043344 
L 212.141597 258.28896 
L 212.373659 269.631822 
L 212.605721 265.181337 
L 212.837783 270.472287 
L 213.069845 270.422893 
L 213.301907 268.23181 
L 213.533968 273.101402 
L 213.76603 267.535139 
L 213.998092 270.375421 
L 214.230154 252.790085 
L 214.462216 270.654617 
L 214.694278 265.530222 
L 214.92634 256.908661 
L 215.622525 282.599224 
L 215.854587 268.508542 
L 216.086649 273.129993 
L 216.318711 271.630534 
L 216.550773 259.056115 
L 216.782834 269.52156 
L 217.014896 264.304717 
L 217.246958 268.959609 
L 217.47902 263.306746 
L 217.711082 266.43566 
L 217.943144 266.26231 
L 218.175206 264.594177 
L 218.407268 270.377131 
L 218.639329 264.502267 
L 218.871391 266.920227 
L 219.103453 259.384318 
L 219.335515 272.624094 
L 219.567577 268.212271 
L 219.799639 268.388897 
L 220.031701 270.631697 
L 220.263762 263.982645 
L 220.495824 267.720126 
L 220.727886 266.555597 
L 220.959948 279.073351 
L 221.19201 267.195583 
L 221.424072 267.047433 
L 221.656134 263.032563 
L 221.888195 263.383956 
L 222.120257 267.262868 
L 222.352319 266.046169 
L 222.584381 261.045702 
L 222.816443 264.697882 
L 223.048505 260.126351 
L 223.280567 266.905952 
L 223.512629 265.885908 
L 223.74469 261.417078 
L 223.976752 260.92075 
L 224.208814 270.65878 
L 224.440876 259.99974 
L 224.672938 264.948161 
L 224.905 265.384011 
L 225.137062 267.366265 
L 225.369123 266.006755 
L 225.601185 267.15533 
L 225.833247 267.454232 
L 226.065309 267.00247 
L 226.297371 265.553704 
L 226.529433 262.975248 
L 226.761495 270.939158 
L 226.993556 271.045555 
L 227.225618 260.555244 
L 227.45768 275.007535 
L 227.689742 254.740037 
L 227.921804 266.198575 
L 228.153866 270.071387 
L 228.385928 271.211648 
L 228.617989 266.684154 
L 229.082113 276.091679 
L 229.314175 266.890153 
L 229.546237 264.788123 
L 230.010361 270.77604 
L 230.242423 267.564649 
L 230.474484 266.841594 
L 230.706546 265.648462 
L 230.938608 272.446107 
L 231.17067 208.240053 
L 231.402732 263.958715 
L 231.634794 260.37871 
L 231.866856 269.037289 
L 232.098917 270.530776 
L 232.330979 259.325363 
L 232.563041 272.716985 
L 232.795103 255.654601 
L 233.027165 276.10872 
L 233.259227 266.466992 
L 233.491289 245.885123 
L 233.72335 260.87253 
L 233.955412 267.539165 
L 234.187474 267.320722 
L 234.419536 272.756162 
L 234.88366 268.178223 
L 235.115722 266.094086 
L 235.347783 268.577307 
L 235.579845 261.506952 
L 235.811907 262.768252 
L 236.043969 271.891365 
L 236.276031 260.847842 
L 236.508093 260.283754 
L 237.204278 272.109464 
L 237.43634 272.131066 
L 237.668402 270.683283 
L 237.900464 276.85095 
L 238.132526 255.516517 
L 238.364588 274.189757 
L 238.59665 270.10446 
L 238.828711 270.626421 
L 239.292835 276.388573 
L 239.524897 256.043683 
L 239.756959 258.408616 
L 239.989021 266.990482 
L 240.221083 266.84571 
L 240.453144 271.418785 
L 240.685206 263.048936 
L 240.917268 269.346938 
L 241.14933 271.730558 
L 241.381392 267.730127 
L 241.613454 266.049854 
L 241.845516 278.186944 
L 242.077577 262.80354 
L 242.309639 268.980727 
L 242.541701 259.974029 
L 242.773763 276.07069 
L 243.005825 269.31468 
L 243.237887 268.15117 
L 243.469949 270.17364 
L 243.702011 266.092905 
L 243.934072 269.599536 
L 244.166134 275.805012 
L 244.398196 267.398234 
L 244.630258 271.473201 
L 244.86232 262.932681 
L 245.094382 273.520614 
L 245.326444 266.989777 
L 245.558505 276.974442 
L 246.022629 265.917855 
L 246.254691 273.709723 
L 246.486753 268.254679 
L 246.718815 259.533467 
L 246.950877 272.845919 
L 247.182938 262.994953 
L 247.415 274.05322 
L 247.647062 265.352624 
L 247.879124 274.669309 
L 248.111186 265.183562 
L 248.343248 263.962274 
L 248.57531 273.009837 
L 249.039433 263.984309 
L 249.271495 274.031473 
L 249.503557 269.185338 
L 249.735619 273.462748 
L 249.967681 271.475806 
L 250.199743 275.599743 
L 250.431805 270.20944 
L 250.663866 269.125226 
L 250.895928 268.602468 
L 251.12799 270.749046 
L 251.360052 268.117578 
L 251.592114 263.918133 
L 251.824176 270.60156 
L 252.056238 272.96754 
L 252.520361 266.617423 
L 252.752423 273.383604 
L 252.984485 263.014638 
L 253.216547 267.41096 
L 253.680671 266.622363 
L 253.912732 273.333127 
L 254.144794 261.00079 
L 254.376856 268.152692 
L 254.608918 263.662444 
L 254.84098 276.57817 
L 255.073042 266.40832 
L 255.305104 263.257058 
L 255.537166 262.0389 
L 255.769227 270.827577 
L 256.001289 271.919872 
L 256.233351 258.534885 
L 256.465413 273.095366 
L 256.697475 249.164494 
L 256.929537 269.154349 
L 257.161599 264.384425 
L 257.39366 271.385208 
L 257.625722 269.850563 
L 257.857784 267.546246 
L 258.089846 269.427551 
L 258.321908 264.931323 
L 258.55397 270.894692 
L 258.786032 270.661751 
L 259.018093 258.07287 
L 259.250155 265.477916 
L 259.482217 267.357744 
L 259.714279 262.766062 
L 259.946341 269.736136 
L 260.178403 263.873816 
L 260.410465 274.46524 
L 260.642526 268.287369 
L 260.874588 267.43392 
L 261.10665 274.681166 
L 261.570774 269.840681 
L 261.802836 281.099846 
L 262.034898 265.486398 
L 262.26696 262.548762 
L 262.731083 271.774838 
L 262.963145 272.250899 
L 263.195207 274.194118 
L 263.427269 270.909788 
L 263.891393 278.400657 
L 264.123454 261.001645 
L 264.587578 270.187363 
L 264.81964 265.030865 
L 265.051702 271.206451 
L 265.283764 260.348046 
L 265.515826 264.258782 
L 265.747887 262.485157 
L 265.979949 257.85123 
L 266.212011 258.693641 
L 266.444073 281.903585 
L 266.676135 266.568554 
L 267.140259 272.613937 
L 267.37232 277.724477 
L 267.604382 267.640567 
L 268.068506 259.391992 
L 268.300568 268.665619 
L 268.53263 262.251768 
L 268.764692 273.440967 
L 268.996754 266.631131 
L 269.228815 266.645596 
L 269.460877 277.92627 
L 269.692939 266.785795 
L 269.925001 277.017425 
L 270.157063 263.638857 
L 270.389125 268.273922 
L 270.621187 268.188404 
L 270.853248 258.836948 
L 271.08531 260.65654 
L 271.317372 265.993076 
L 271.549434 262.688999 
L 271.781496 255.526588 
L 272.013558 267.984994 
L 272.24562 270.758503 
L 272.477681 262.309081 
L 272.709743 268.16148 
L 272.941805 268.719273 
L 273.173867 262.182581 
L 273.405929 258.846679 
L 273.637991 270.816613 
L 273.870053 260.260057 
L 274.102114 266.591706 
L 274.334176 260.214467 
L 274.566238 267.320515 
L 274.7983 264.329505 
L 275.030362 265.472194 
L 275.262424 276.130971 
L 275.494486 268.099445 
L 275.726548 243.945935 
L 275.958609 271.73828 
L 276.190671 265.732886 
L 276.422733 280.561701 
L 276.654795 248.735051 
L 276.886857 266.10357 
L 277.118919 270.023694 
L 277.350981 268.342198 
L 277.583042 263.372172 
L 277.815104 262.351588 
L 278.51129 279.662058 
L 278.743352 264.792785 
L 278.975414 274.710977 
L 279.207475 274.419107 
L 279.439537 275.724762 
L 279.671599 265.720118 
L 279.903661 269.103606 
L 280.135723 267.791819 
L 280.599847 274.928912 
L 280.831909 259.326885 
L 281.06397 268.095327 
L 281.296032 271.616122 
L 281.528094 270.972643 
L 281.760156 274.115318 
L 281.992218 268.532839 
L 282.22428 267.815168 
L 282.456342 272.543936 
L 282.688403 265.287417 
L 282.920465 263.777952 
L 283.152527 271.879747 
L 283.384589 261.80794 
L 283.616651 272.513454 
L 283.848713 265.386501 
L 284.080775 274.41238 
L 284.312836 271.904037 
L 284.544898 267.042022 
L 284.77696 258.08705 
L 285.473146 265.077208 
L 285.705208 271.135121 
L 285.937269 266.378069 
L 286.169331 272.398168 
L 286.401393 266.615705 
L 286.633455 271.040865 
L 287.097579 271.995243 
L 287.329641 274.441892 
L 287.561703 260.295622 
L 287.793764 159.112183 
L 288.025826 262.709162 
L 288.257888 260.950947 
L 288.48995 271.709538 
L 288.722012 255.341182 
L 288.954074 255.568802 
L 289.418197 270.276743 
L 289.650259 269.80821 
L 289.882321 259.788737 
L 290.346445 270.234268 
L 290.578507 253.093194 
L 291.04263 272.805332 
L 291.274692 266.626034 
L 291.506754 256.692924 
L 291.738816 262.526355 
L 291.970878 278.18739 
L 292.20294 276.346958 
L 292.435002 262.105892 
L 292.667063 270.907139 
L 292.899125 271.591551 
L 293.131187 256.049085 
L 293.363249 262.991122 
L 293.595311 265.3193 
L 293.827373 244.448965 
L 294.059435 271.432903 
L 294.291497 259.504426 
L 294.523558 261.919014 
L 294.987682 268.563137 
L 295.219744 266.690912 
L 295.451806 261.954406 
L 295.683868 275.328338 
L 295.91593 245.809644 
L 296.380053 270.594423 
L 296.612115 258.36672 
L 296.844177 271.810208 
L 297.076239 262.901861 
L 297.540363 268.063729 
L 297.772424 269.388 
L 298.004486 267.126504 
L 298.236548 269.704681 
L 298.46861 255.274824 
L 298.700672 268.362407 
L 298.932734 270.773639 
L 299.164796 261.09584 
L 299.396857 267.549522 
L 299.628919 261.638167 
L 299.860981 268.072822 
L 300.093043 268.078101 
L 300.325105 273.607474 
L 300.557167 263.870874 
L 300.789229 270.487389 
L 301.021291 272.468667 
L 301.253352 272.147471 
L 301.717476 261.747372 
L 301.949538 268.297563 
L 302.1816 264.442209 
L 302.645724 263.709741 
L 302.877785 266.831829 
L 303.109847 260.299703 
L 303.573971 266.926864 
L 303.806033 266.507992 
L 304.038095 264.083781 
L 304.270157 264.716317 
L 304.502218 258.942267 
L 304.73428 261.200402 
L 304.966342 253.259653 
L 305.198404 258.483692 
L 305.430466 258.356154 
L 305.89459 271.407566 
L 306.126652 263.664153 
L 306.358713 268.248422 
L 306.590775 262.080098 
L 306.822837 270.938962 
L 307.054899 271.923811 
L 307.286961 271.325222 
L 307.519023 265.988667 
L 307.751085 274.238031 
L 307.983146 254.693491 
L 308.215208 273.738985 
L 308.44727 263.106029 
L 308.679332 270.988404 
L 308.911394 257.781822 
L 309.143456 257.067243 
L 309.375518 266.018077 
L 309.607579 265.421775 
L 309.839641 271.560587 
L 310.071703 256.980221 
L 310.303765 270.095597 
L 310.535827 255.690089 
L 310.767889 268.68427 
L 311.232012 262.889578 
L 311.696136 273.389061 
L 311.928198 266.603909 
L 312.16026 265.769132 
L 312.392322 276.57638 
L 312.624384 252.927834 
L 312.856446 268.903663 
L 313.088507 266.271949 
L 313.552631 267.165248 
L 313.784693 266.918388 
L 314.016755 270.919657 
L 314.248817 258.923425 
L 314.480879 262.210129 
L 314.71294 267.223918 
L 314.945002 258.01573 
L 315.177064 273.22181 
L 315.409126 269.248965 
L 315.641188 276.480392 
L 315.87325 272.677949 
L 316.105312 266.481108 
L 316.337373 265.78212 
L 316.569435 270.885341 
L 316.801497 265.922269 
L 317.033559 267.652043 
L 317.265621 274.354551 
L 317.497683 268.519885 
L 317.729745 273.981959 
L 317.961806 244.028243 
L 318.193868 265.232441 
L 318.42593 265.975193 
L 318.657992 262.916777 
L 318.890054 263.67252 
L 319.122116 268.426482 
L 319.354178 265.886723 
L 319.58624 277.111256 
L 319.818301 261.956919 
L 320.050363 267.464004 
L 320.282425 252.310073 
L 320.746549 276.348692 
L 320.978611 269.320607 
L 321.210673 271.085349 
L 321.442734 274.5174 
L 321.674796 272.489767 
L 321.906858 272.201708 
L 322.13892 264.39125 
L 322.370982 273.787388 
L 322.603044 266.729131 
L 322.835106 267.409414 
L 323.067167 273.777957 
L 323.299229 261.508084 
L 323.531291 271.878435 
L 323.763353 259.218557 
L 323.995415 259.243137 
L 324.227477 265.614006 
L 324.459539 259.991611 
L 324.6916 258.495903 
L 324.923662 272.950205 
L 325.155724 269.374944 
L 325.619848 256.575051 
L 326.083972 273.933041 
L 326.316034 272.623024 
L 326.548095 263.692183 
L 326.780157 276.04619 
L 327.012219 261.505694 
L 327.476343 280.263745 
L 327.708405 273.081664 
L 328.172528 269.19256 
L 328.40459 258.913016 
L 328.636652 264.341911 
L 329.100776 255.338394 
L 329.332838 266.5729 
L 329.5649 269.877159 
L 329.796961 264.987084 
L 330.029023 265.529847 
L 330.261085 261.596236 
L 330.493147 272.672251 
L 330.725209 271.664235 
L 330.957271 267.289902 
L 331.189333 271.927883 
L 331.421395 263.47241 
L 331.653456 265.976362 
L 332.11758 264.680029 
L 332.349642 248.311361 
L 332.581704 268.629396 
L 332.813766 269.932882 
L 333.045828 267.243621 
L 333.277889 252.536808 
L 333.509951 274.40827 
L 333.742013 263.716999 
L 333.974075 265.198141 
L 334.206137 273.669462 
L 334.438199 257.968449 
L 334.670261 264.993431 
L 334.902322 251.751904 
L 335.134384 268.581498 
L 335.366446 270.965477 
L 335.598508 261.531868 
L 335.83057 245.391556 
L 336.062632 273.335446 
L 336.294694 263.700754 
L 336.526755 261.134381 
L 336.758817 276.247737 
L 336.990879 266.773403 
L 337.222941 269.867913 
L 337.455003 254.228365 
L 337.687065 271.521662 
L 337.919127 262.227408 
L 338.151189 273.75049 
L 338.38325 274.7111 
L 338.615312 272.130497 
L 338.847374 264.802082 
L 339.079436 272.67708 
L 339.311498 256.772639 
L 339.54356 272.368064 
L 339.775622 263.858723 
L 340.007683 266.828408 
L 340.239745 264.901104 
L 340.471807 270.213872 
L 340.935931 265.236378 
L 341.167993 266.133798 
L 341.632116 257.997176 
L 342.09624 271.212304 
L 342.328302 267.013604 
L 342.560364 266.885352 
L 342.792426 260.855808 
L 343.024488 267.519726 
L 343.256549 266.157479 
L 343.488611 269.237592 
L 343.720673 269.497381 
L 343.952735 267.80686 
L 344.184797 270.686245 
L 344.416859 256.625411 
L 344.648921 269.473023 
L 344.880983 262.224247 
L 345.113044 273.783226 
L 345.345106 262.158035 
L 345.577168 274.436043 
L 345.80923 268.446794 
L 346.273354 265.235123 
L 346.505416 261.728187 
L 346.737477 271.859624 
L 346.969539 264.470463 
L 347.201601 271.186701 
L 347.433663 263.680459 
L 347.665725 280.734281 
L 347.897787 267.428629 
L 348.129849 262.083578 
L 348.36191 271.826665 
L 348.593972 272.085378 
L 348.826034 263.307258 
L 349.058096 267.645717 
L 349.290158 274.630699 
L 349.52222 265.329678 
L 349.754282 265.527808 
L 349.986343 267.205481 
L 350.218405 267.812162 
L 350.450467 270.630004 
L 350.682529 263.671059 
L 351.146653 260.695883 
L 351.378715 274.877525 
L 351.610777 271.13219 
L 351.842838 273.40593 
L 352.0749 269.095651 
L 352.306962 271.746891 
L 352.539024 272.31212 
L 352.771086 267.544193 
L 353.003148 248.87573 
L 353.23521 264.46898 
L 353.699333 268.541152 
L 353.931395 278.517274 
L 354.163457 264.053731 
L 354.395519 276.11317 
L 354.627581 273.382927 
L 354.859643 264.128119 
L 355.091704 262.913507 
L 355.323766 260.33111 
L 355.555828 262.475465 
L 356.019952 274.466707 
L 356.252014 261.74771 
L 356.484076 273.277657 
L 356.716138 271.988362 
L 356.948199 263.416826 
L 357.180261 263.685673 
L 357.412323 265.650793 
L 357.644385 271.543729 
L 357.876447 263.36729 
L 358.108509 263.770968 
L 358.340571 260.239533 
L 358.572632 269.9872 
L 358.804694 261.61878 
L 359.036756 263.322596 
L 359.268818 261.479954 
L 359.732942 274.688323 
L 359.965004 272.559499 
L 360.197065 251.847674 
L 360.429127 272.273271 
L 360.661189 264.749598 
L 360.893251 278.249774 
L 361.125313 270.846638 
L 361.357375 268.040029 
L 361.589437 258.753441 
L 361.821498 264.893509 
L 362.285622 261.480105 
L 362.517684 261.558055 
L 362.749746 269.395783 
L 362.981808 263.010057 
L 363.21387 267.53519 
L 363.445932 262.299565 
L 363.677993 274.035982 
L 363.910055 272.629573 
L 364.142117 270.031722 
L 364.374179 275.048294 
L 364.606241 264.483509 
L 364.838303 265.048115 
L 365.070365 268.825827 
L 365.534488 264.686941 
L 365.76655 268.074425 
L 365.998612 267.461175 
L 366.230674 274.746956 
L 366.462736 272.40569 
L 366.694798 263.462993 
L 366.926859 268.113553 
L 367.158921 261.666388 
L 367.623045 272.228362 
L 367.855107 263.483598 
L 368.087169 264.394009 
L 368.319231 267.246568 
L 368.783354 276.169672 
L 369.015416 260.749894 
L 369.247478 258.833317 
L 369.47954 261.922506 
L 369.711602 261.555268 
L 369.943664 255.711556 
L 370.639849 267.73917 
L 370.871911 264.750279 
L 371.103973 269.448098 
L 371.336035 261.736933 
L 371.568097 260.09305 
L 371.800159 276.424222 
L 372.264282 256.998116 
L 372.496344 258.579473 
L 372.728406 270.356815 
L 372.960468 267.679219 
L 373.19253 266.767634 
L 373.424592 274.949798 
L 373.656653 265.066797 
L 373.888715 275.347438 
L 374.120777 272.454371 
L 374.352839 273.472113 
L 374.584901 267.206879 
L 374.816963 253.539245 
L 375.281086 272.579691 
L 375.513148 269.834991 
L 375.74521 262.040879 
L 375.977272 260.58989 
L 376.209334 255.260485 
L 376.441396 268.357887 
L 376.673458 258.403151 
L 376.90552 266.031165 
L 377.137581 265.653105 
L 377.369643 262.300874 
L 377.601705 272.473888 
L 377.833767 262.778096 
L 378.065829 271.220421 
L 378.297891 270.197843 
L 378.529953 270.63145 
L 378.762014 271.586137 
L 378.994076 262.897403 
L 379.226138 266.364894 
L 379.4582 256.101223 
L 379.690262 276.80536 
L 380.154386 258.922515 
L 380.618509 274.40059 
L 380.850571 273.303876 
L 381.082633 269.867544 
L 381.314695 268.374024 
L 381.546757 259.788689 
L 381.778819 257.57637 
L 382.01088 271.333317 
L 382.242942 265.622006 
L 382.475004 263.4087 
L 382.707066 269.850086 
L 382.939128 262.927925 
L 383.17119 263.789096 
L 383.403252 266.088436 
L 383.635314 257.537174 
L 383.867375 259.976587 
L 384.099437 270.042713 
L 384.331499 270.119449 
L 384.563561 267.923465 
L 384.795623 267.565058 
L 385.027685 264.235856 
L 385.491808 269.255529 
L 385.72387 266.346974 
L 385.955932 259.411869 
L 386.187994 263.609277 
L 386.420056 274.333089 
L 386.652118 267.916092 
L 386.88418 269.534164 
L 387.116241 270.351098 
L 387.348303 266.194769 
L 387.580365 265.152941 
L 387.812427 270.27859 
L 388.044489 269.032733 
L 388.276551 266.269734 
L 388.508613 267.016668 
L 388.740675 258.857136 
L 388.972736 262.046569 
L 389.204798 250.867545 
L 389.43686 263.289608 
L 389.668922 259.182482 
L 389.900984 260.630878 
L 390.133046 257.831385 
L 390.365108 264.43287 
L 390.597169 258.382986 
L 390.829231 269.161563 
L 391.061293 267.148855 
L 391.293355 255.424275 
L 391.757479 267.679296 
L 391.989541 249.034323 
L 392.221602 257.783262 
L 392.453664 271.522049 
L 392.685726 259.067562 
L 392.917788 260.800847 
L 393.14985 258.557053 
L 393.381912 264.41646 
L 393.613974 276.119547 
L 393.846035 261.982392 
L 394.078097 264.977568 
L 394.310159 265.85599 
L 394.542221 263.081788 
L 394.774283 270.546602 
L 395.006345 269.534561 
L 395.238407 271.959226 
L 395.470469 267.738879 
L 395.934592 277.093635 
L 396.398716 263.309674 
L 396.86284 276.29856 
L 397.094902 262.506315 
L 397.326963 265.531396 
L 397.559025 273.791602 
L 398.023149 257.832692 
L 398.255211 271.012427 
L 398.487273 261.70455 
L 398.487273 261.70455 
" style="fill:none;stroke:#ff7f0e;stroke-linecap:square;stroke-width:1.5;"/>
   </g>
   <g id="patch_3">
    <path d="M 57.6 307.584 
L 57.6 41.472 
" style="fill:none;stroke:#000000;stroke-linecap:square;stroke-linejoin:miter;stroke-width:0.8;"/>
   </g>
   <g id="patch_4">
    <path d="M 414.72 307.584 
L 414.72 41.472 
" style="fill:none;stroke:#000000;stroke-linecap:square;stroke-linejoin:miter;stroke-width:0.8;"/>
   </g>
   <g id="patch_5">
    <path d="M 57.6 307.584 
L 414.72 307.584 
" style="fill:none;stroke:#000000;stroke-linecap:square;stroke-linejoin:miter;stroke-width:0.8;"/>
   </g>
   <g id="patch_6">
    <path d="M 57.6 41.472 
L 414.72 41.472 
" style="fill:none;stroke:#000000;stroke-linecap:square;stroke-linejoin:miter;stroke-width:0.8;"/>
   </g>
   <g id="legend_1">
    <g id="patch_7">
     <path d="M 303.845 78.82825 
L 407.72 78.82825 
Q 409.72 78.82825 409.72 76.82825 
L 409.72 48.472 
Q 409.72 46.472 407.72 46.472 
L 303.845 46.472 
Q 301.845 46.472 301.845 48.472 
L 301.845 76.82825 
Q 301.845 78.82825 303.845 78.82825 
z
" style="fill:#ffffff;opacity:0.8;stroke:#cccccc;stroke-linejoin:miter;"/>
    </g>
    <g id="line2d_16">
     <path d="M 305.845 54.570437 
L 325.845 54.570437 
" style="fill:none;stroke:#1f77b4;stroke-linecap:square;stroke-width:1.5;"/>
    </g>
    <g id="line2d_17"/>
    <g id="text_15">
     <!-- Train loss -->
     <g transform="translate(333.845 58.070437)scale(0.1 -0.1)">
      <defs>
       <path d="M -19 4666 
L 3928 4666 
L 3928 4134 
L 2272 4134 
L 2272 0 
L 1638 0 
L 1638 4134 
L -19 4134 
L -19 4666 
z
" id="DejaVuSans-54" transform="scale(0.015625)"/>
       <path d="M 2631 2963 
Q 2534 3019 2420 3045 
Q 2306 3072 2169 3072 
Q 1681 3072 1420 2755 
Q 1159 2438 1159 1844 
L 1159 0 
L 581 0 
L 581 3500 
L 1159 3500 
L 1159 2956 
Q 1341 3275 1631 3429 
Q 1922 3584 2338 3584 
Q 2397 3584 2469 3576 
Q 2541 3569 2628 3553 
L 2631 2963 
z
" id="DejaVuSans-72" transform="scale(0.015625)"/>
       <path d="M 2194 1759 
Q 1497 1759 1228 1600 
Q 959 1441 959 1056 
Q 959 750 1161 570 
Q 1363 391 1709 391 
Q 2188 391 2477 730 
Q 2766 1069 2766 1631 
L 2766 1759 
L 2194 1759 
z
M 3341 1997 
L 3341 0 
L 2766 0 
L 2766 531 
Q 2569 213 2275 61 
Q 1981 -91 1556 -91 
Q 1019 -91 701 211 
Q 384 513 384 1019 
Q 384 1609 779 1909 
Q 1175 2209 1959 2209 
L 2766 2209 
L 2766 2266 
Q 2766 2663 2505 2880 
Q 2244 3097 1772 3097 
Q 1472 3097 1187 3025 
Q 903 2953 641 2809 
L 641 3341 
Q 956 3463 1253 3523 
Q 1550 3584 1831 3584 
Q 2591 3584 2966 3190 
Q 3341 2797 3341 1997 
z
" id="DejaVuSans-61" transform="scale(0.015625)"/>
       <path d="M 603 3500 
L 1178 3500 
L 1178 0 
L 603 0 
L 603 3500 
z
M 603 4863 
L 1178 4863 
L 1178 4134 
L 603 4134 
L 603 4863 
z
" id="DejaVuSans-69" transform="scale(0.015625)"/>
       <path d="M 3513 2113 
L 3513 0 
L 2938 0 
L 2938 2094 
Q 2938 2591 2744 2837 
Q 2550 3084 2163 3084 
Q 1697 3084 1428 2787 
Q 1159 2491 1159 1978 
L 1159 0 
L 581 0 
L 581 3500 
L 1159 3500 
L 1159 2956 
Q 1366 3272 1645 3428 
Q 1925 3584 2291 3584 
Q 2894 3584 3203 3211 
Q 3513 2838 3513 2113 
z
" id="DejaVuSans-6e" transform="scale(0.015625)"/>
       <path id="DejaVuSans-20" transform="scale(0.015625)"/>
       <path d="M 603 4863 
L 1178 4863 
L 1178 0 
L 603 0 
L 603 4863 
z
" id="DejaVuSans-6c" transform="scale(0.015625)"/>
       <path d="M 2834 3397 
L 2834 2853 
Q 2591 2978 2328 3040 
Q 2066 3103 1784 3103 
Q 1356 3103 1142 2972 
Q 928 2841 928 2578 
Q 928 2378 1081 2264 
Q 1234 2150 1697 2047 
L 1894 2003 
Q 2506 1872 2764 1633 
Q 3022 1394 3022 966 
Q 3022 478 2636 193 
Q 2250 -91 1575 -91 
Q 1294 -91 989 -36 
Q 684 19 347 128 
L 347 722 
Q 666 556 975 473 
Q 1284 391 1588 391 
Q 1994 391 2212 530 
Q 2431 669 2431 922 
Q 2431 1156 2273 1281 
Q 2116 1406 1581 1522 
L 1381 1569 
Q 847 1681 609 1914 
Q 372 2147 372 2553 
Q 372 3047 722 3315 
Q 1072 3584 1716 3584 
Q 2034 3584 2315 3537 
Q 2597 3491 2834 3397 
z
" id="DejaVuSans-73" transform="scale(0.015625)"/>
      </defs>
      <use xlink:href="#DejaVuSans-54"/>
      <use x="46.333984" xlink:href="#DejaVuSans-72"/>
      <use x="87.447266" xlink:href="#DejaVuSans-61"/>
      <use x="148.726562" xlink:href="#DejaVuSans-69"/>
      <use x="176.509766" xlink:href="#DejaVuSans-6e"/>
      <use x="239.888672" xlink:href="#DejaVuSans-20"/>
      <use x="271.675781" xlink:href="#DejaVuSans-6c"/>
      <use x="299.458984" xlink:href="#DejaVuSans-6f"/>
      <use x="360.640625" xlink:href="#DejaVuSans-73"/>
      <use x="412.740234" xlink:href="#DejaVuSans-73"/>
     </g>
    </g>
    <g id="line2d_18">
     <path d="M 305.845 69.248562 
L 325.845 69.248562 
" style="fill:none;stroke:#ff7f0e;stroke-linecap:square;stroke-width:1.5;"/>
    </g>
    <g id="line2d_19"/>
    <g id="text_16">
     <!-- Validation loss -->
     <g transform="translate(333.845 72.748562)scale(0.1 -0.1)">
      <defs>
       <path d="M 1831 0 
L 50 4666 
L 709 4666 
L 2188 738 
L 3669 4666 
L 4325 4666 
L 2547 0 
L 1831 0 
z
" id="DejaVuSans-56" transform="scale(0.015625)"/>
       <path d="M 2906 2969 
L 2906 4863 
L 3481 4863 
L 3481 0 
L 2906 0 
L 2906 525 
Q 2725 213 2448 61 
Q 2172 -91 1784 -91 
Q 1150 -91 751 415 
Q 353 922 353 1747 
Q 353 2572 751 3078 
Q 1150 3584 1784 3584 
Q 2172 3584 2448 3432 
Q 2725 3281 2906 2969 
z
M 947 1747 
Q 947 1113 1208 752 
Q 1469 391 1925 391 
Q 2381 391 2643 752 
Q 2906 1113 2906 1747 
Q 2906 2381 2643 2742 
Q 2381 3103 1925 3103 
Q 1469 3103 1208 2742 
Q 947 2381 947 1747 
z
" id="DejaVuSans-64" transform="scale(0.015625)"/>
       <path d="M 1172 4494 
L 1172 3500 
L 2356 3500 
L 2356 3053 
L 1172 3053 
L 1172 1153 
Q 1172 725 1289 603 
Q 1406 481 1766 481 
L 2356 481 
L 2356 0 
L 1766 0 
Q 1100 0 847 248 
Q 594 497 594 1153 
L 594 3053 
L 172 3053 
L 172 3500 
L 594 3500 
L 594 4494 
L 1172 4494 
z
" id="DejaVuSans-74" transform="scale(0.015625)"/>
      </defs>
      <use xlink:href="#DejaVuSans-56"/>
      <use x="60.658203" xlink:href="#DejaVuSans-61"/>
      <use x="121.9375" xlink:href="#DejaVuSans-6c"/>
      <use x="149.720703" xlink:href="#DejaVuSans-69"/>
      <use x="177.503906" xlink:href="#DejaVuSans-64"/>
      <use x="240.980469" xlink:href="#DejaVuSans-61"/>
      <use x="302.259766" xlink:href="#DejaVuSans-74"/>
      <use x="341.46875" xlink:href="#DejaVuSans-69"/>
      <use x="369.251953" xlink:href="#DejaVuSans-6f"/>
      <use x="430.433594" xlink:href="#DejaVuSans-6e"/>
      <use x="493.8125" xlink:href="#DejaVuSans-20"/>
      <use x="525.599609" xlink:href="#DejaVuSans-6c"/>
      <use x="553.382812" xlink:href="#DejaVuSans-6f"/>
      <use x="614.564453" xlink:href="#DejaVuSans-73"/>
      <use x="666.664062" xlink:href="#DejaVuSans-73"/>
     </g>
    </g>
   </g>
  </g>
 </g>
 <defs>
  <clipPath id="p902127b4e0">
   <rect height="266.112" width="357.12" x="57.6" y="41.472"/>
  </clipPath>
 </defs>
</svg>
