<?xml version="1.0" encoding="utf-8" standalone="no"?>
<!DOCTYPE svg PUBLIC "-//W3C//DTD SVG 1.1//EN"
  "http://www.w3.org/Graphics/SVG/1.1/DTD/svg11.dtd">
<svg height="345.6pt" version="1.1" viewBox="0 0 460.8 345.6" width="460.8pt" xmlns="http://www.w3.org/2000/svg" xmlns:xlink="http://www.w3.org/1999/xlink">
 <metadata>
  <rdf:RDF xmlns:cc="http://creativecommons.org/ns#" xmlns:dc="http://purl.org/dc/elements/1.1/" xmlns:rdf="http://www.w3.org/1999/02/22-rdf-syntax-ns#">
   <cc:Work>
    <dc:type rdf:resource="http://purl.org/dc/dcmitype/StillImage"/>
    <dc:date>2021-07-31T19:21:17.745099</dc:date>
    <dc:format>image/svg+xml</dc:format>
    <dc:creator>
     <cc:Agent>
      <dc:title>Matplotlib v3.4.1, https://matplotlib.org/</dc:title>
     </cc:Agent>
    </dc:creator>
   </cc:Work>
  </rdf:RDF>
 </metadata>
 <defs>
  <style type="text/css">*{stroke-linecap:butt;stroke-linejoin:round;}</style>
 </defs>
 <g id="figure_1">
  <g id="patch_1">
   <path d="M 0 345.6 
L 460.8 345.6 
L 460.8 0 
L 0 0 
z
" style="fill:#ffffff;"/>
  </g>
  <g id="axes_1">
   <g id="patch_2">
    <path d="M 57.6 307.584 
L 414.72 307.584 
L 414.72 41.472 
L 57.6 41.472 
z
" style="fill:#ffffff;"/>
   </g>
   <g id="matplotlib.axis_1">
    <g id="xtick_1">
     <g id="line2d_1">
      <defs>
       <path d="M 0 0 
L 0 3.5 
" id="mf43ba37998" style="stroke:#000000;stroke-width:0.8;"/>
      </defs>
      <g>
       <use style="stroke:#000000;stroke-width:0.8;" x="73.629691" xlink:href="#mf43ba37998" y="307.584"/>
      </g>
     </g>
     <g id="text_1">
      <!-- 0 -->
      <g transform="translate(70.448441 322.182437)scale(0.1 -0.1)">
       <defs>
        <path d="M 2034 4250 
Q 1547 4250 1301 3770 
Q 1056 3291 1056 2328 
Q 1056 1369 1301 889 
Q 1547 409 2034 409 
Q 2525 409 2770 889 
Q 3016 1369 3016 2328 
Q 3016 3291 2770 3770 
Q 2525 4250 2034 4250 
z
M 2034 4750 
Q 2819 4750 3233 4129 
Q 3647 3509 3647 2328 
Q 3647 1150 3233 529 
Q 2819 -91 2034 -91 
Q 1250 -91 836 529 
Q 422 1150 422 2328 
Q 422 3509 836 4129 
Q 1250 4750 2034 4750 
z
" id="DejaVuSans-30" transform="scale(0.015625)"/>
       </defs>
       <use xlink:href="#DejaVuSans-30"/>
      </g>
     </g>
    </g>
    <g id="xtick_2">
     <g id="line2d_2">
      <g>
       <use style="stroke:#000000;stroke-width:0.8;" x="114.236889" xlink:href="#mf43ba37998" y="307.584"/>
      </g>
     </g>
     <g id="text_2">
      <!-- 200 -->
      <g transform="translate(104.693139 322.182437)scale(0.1 -0.1)">
       <defs>
        <path d="M 1228 531 
L 3431 531 
L 3431 0 
L 469 0 
L 469 531 
Q 828 903 1448 1529 
Q 2069 2156 2228 2338 
Q 2531 2678 2651 2914 
Q 2772 3150 2772 3378 
Q 2772 3750 2511 3984 
Q 2250 4219 1831 4219 
Q 1534 4219 1204 4116 
Q 875 4013 500 3803 
L 500 4441 
Q 881 4594 1212 4672 
Q 1544 4750 1819 4750 
Q 2544 4750 2975 4387 
Q 3406 4025 3406 3419 
Q 3406 3131 3298 2873 
Q 3191 2616 2906 2266 
Q 2828 2175 2409 1742 
Q 1991 1309 1228 531 
z
" id="DejaVuSans-32" transform="scale(0.015625)"/>
       </defs>
       <use xlink:href="#DejaVuSans-32"/>
       <use x="63.623047" xlink:href="#DejaVuSans-30"/>
       <use x="127.246094" xlink:href="#DejaVuSans-30"/>
      </g>
     </g>
    </g>
    <g id="xtick_3">
     <g id="line2d_3">
      <g>
       <use style="stroke:#000000;stroke-width:0.8;" x="154.844087" xlink:href="#mf43ba37998" y="307.584"/>
      </g>
     </g>
     <g id="text_3">
      <!-- 400 -->
      <g transform="translate(145.300337 322.182437)scale(0.1 -0.1)">
       <defs>
        <path d="M 2419 4116 
L 825 1625 
L 2419 1625 
L 2419 4116 
z
M 2253 4666 
L 3047 4666 
L 3047 1625 
L 3713 1625 
L 3713 1100 
L 3047 1100 
L 3047 0 
L 2419 0 
L 2419 1100 
L 313 1100 
L 313 1709 
L 2253 4666 
z
" id="DejaVuSans-34" transform="scale(0.015625)"/>
       </defs>
       <use xlink:href="#DejaVuSans-34"/>
       <use x="63.623047" xlink:href="#DejaVuSans-30"/>
       <use x="127.246094" xlink:href="#DejaVuSans-30"/>
      </g>
     </g>
    </g>
    <g id="xtick_4">
     <g id="line2d_4">
      <g>
       <use style="stroke:#000000;stroke-width:0.8;" x="195.451284" xlink:href="#mf43ba37998" y="307.584"/>
      </g>
     </g>
     <g id="text_4">
      <!-- 600 -->
      <g transform="translate(185.907534 322.182437)scale(0.1 -0.1)">
       <defs>
        <path d="M 2113 2584 
Q 1688 2584 1439 2293 
Q 1191 2003 1191 1497 
Q 1191 994 1439 701 
Q 1688 409 2113 409 
Q 2538 409 2786 701 
Q 3034 994 3034 1497 
Q 3034 2003 2786 2293 
Q 2538 2584 2113 2584 
z
M 3366 4563 
L 3366 3988 
Q 3128 4100 2886 4159 
Q 2644 4219 2406 4219 
Q 1781 4219 1451 3797 
Q 1122 3375 1075 2522 
Q 1259 2794 1537 2939 
Q 1816 3084 2150 3084 
Q 2853 3084 3261 2657 
Q 3669 2231 3669 1497 
Q 3669 778 3244 343 
Q 2819 -91 2113 -91 
Q 1303 -91 875 529 
Q 447 1150 447 2328 
Q 447 3434 972 4092 
Q 1497 4750 2381 4750 
Q 2619 4750 2861 4703 
Q 3103 4656 3366 4563 
z
" id="DejaVuSans-36" transform="scale(0.015625)"/>
       </defs>
       <use xlink:href="#DejaVuSans-36"/>
       <use x="63.623047" xlink:href="#DejaVuSans-30"/>
       <use x="127.246094" xlink:href="#DejaVuSans-30"/>
      </g>
     </g>
    </g>
    <g id="xtick_5">
     <g id="line2d_5">
      <g>
       <use style="stroke:#000000;stroke-width:0.8;" x="236.058482" xlink:href="#mf43ba37998" y="307.584"/>
      </g>
     </g>
     <g id="text_5">
      <!-- 800 -->
      <g transform="translate(226.514732 322.182437)scale(0.1 -0.1)">
       <defs>
        <path d="M 2034 2216 
Q 1584 2216 1326 1975 
Q 1069 1734 1069 1313 
Q 1069 891 1326 650 
Q 1584 409 2034 409 
Q 2484 409 2743 651 
Q 3003 894 3003 1313 
Q 3003 1734 2745 1975 
Q 2488 2216 2034 2216 
z
M 1403 2484 
Q 997 2584 770 2862 
Q 544 3141 544 3541 
Q 544 4100 942 4425 
Q 1341 4750 2034 4750 
Q 2731 4750 3128 4425 
Q 3525 4100 3525 3541 
Q 3525 3141 3298 2862 
Q 3072 2584 2669 2484 
Q 3125 2378 3379 2068 
Q 3634 1759 3634 1313 
Q 3634 634 3220 271 
Q 2806 -91 2034 -91 
Q 1263 -91 848 271 
Q 434 634 434 1313 
Q 434 1759 690 2068 
Q 947 2378 1403 2484 
z
M 1172 3481 
Q 1172 3119 1398 2916 
Q 1625 2713 2034 2713 
Q 2441 2713 2670 2916 
Q 2900 3119 2900 3481 
Q 2900 3844 2670 4047 
Q 2441 4250 2034 4250 
Q 1625 4250 1398 4047 
Q 1172 3844 1172 3481 
z
" id="DejaVuSans-38" transform="scale(0.015625)"/>
       </defs>
       <use xlink:href="#DejaVuSans-38"/>
       <use x="63.623047" xlink:href="#DejaVuSans-30"/>
       <use x="127.246094" xlink:href="#DejaVuSans-30"/>
      </g>
     </g>
    </g>
    <g id="xtick_6">
     <g id="line2d_6">
      <g>
       <use style="stroke:#000000;stroke-width:0.8;" x="276.66568" xlink:href="#mf43ba37998" y="307.584"/>
      </g>
     </g>
     <g id="text_6">
      <!-- 1000 -->
      <g transform="translate(263.94068 322.182437)scale(0.1 -0.1)">
       <defs>
        <path d="M 794 531 
L 1825 531 
L 1825 4091 
L 703 3866 
L 703 4441 
L 1819 4666 
L 2450 4666 
L 2450 531 
L 3481 531 
L 3481 0 
L 794 0 
L 794 531 
z
" id="DejaVuSans-31" transform="scale(0.015625)"/>
       </defs>
       <use xlink:href="#DejaVuSans-31"/>
       <use x="63.623047" xlink:href="#DejaVuSans-30"/>
       <use x="127.246094" xlink:href="#DejaVuSans-30"/>
       <use x="190.869141" xlink:href="#DejaVuSans-30"/>
      </g>
     </g>
    </g>
    <g id="xtick_7">
     <g id="line2d_7">
      <g>
       <use style="stroke:#000000;stroke-width:0.8;" x="317.272877" xlink:href="#mf43ba37998" y="307.584"/>
      </g>
     </g>
     <g id="text_7">
      <!-- 1200 -->
      <g transform="translate(304.547877 322.182437)scale(0.1 -0.1)">
       <use xlink:href="#DejaVuSans-31"/>
       <use x="63.623047" xlink:href="#DejaVuSans-32"/>
       <use x="127.246094" xlink:href="#DejaVuSans-30"/>
       <use x="190.869141" xlink:href="#DejaVuSans-30"/>
      </g>
     </g>
    </g>
    <g id="xtick_8">
     <g id="line2d_8">
      <g>
       <use style="stroke:#000000;stroke-width:0.8;" x="357.880075" xlink:href="#mf43ba37998" y="307.584"/>
      </g>
     </g>
     <g id="text_8">
      <!-- 1400 -->
      <g transform="translate(345.155075 322.182437)scale(0.1 -0.1)">
       <use xlink:href="#DejaVuSans-31"/>
       <use x="63.623047" xlink:href="#DejaVuSans-34"/>
       <use x="127.246094" xlink:href="#DejaVuSans-30"/>
       <use x="190.869141" xlink:href="#DejaVuSans-30"/>
      </g>
     </g>
    </g>
    <g id="xtick_9">
     <g id="line2d_9">
      <g>
       <use style="stroke:#000000;stroke-width:0.8;" x="398.487273" xlink:href="#mf43ba37998" y="307.584"/>
      </g>
     </g>
     <g id="text_9">
      <!-- 1600 -->
      <g transform="translate(385.762273 322.182437)scale(0.1 -0.1)">
       <use xlink:href="#DejaVuSans-31"/>
       <use x="63.623047" xlink:href="#DejaVuSans-36"/>
       <use x="127.246094" xlink:href="#DejaVuSans-30"/>
       <use x="190.869141" xlink:href="#DejaVuSans-30"/>
      </g>
     </g>
    </g>
    <g id="text_10">
     <!-- Epoch -->
     <g transform="translate(213.193594 339.659781)scale(0.15 -0.15)">
      <defs>
       <path d="M 628 4666 
L 3578 4666 
L 3578 4134 
L 1259 4134 
L 1259 2753 
L 3481 2753 
L 3481 2222 
L 1259 2222 
L 1259 531 
L 3634 531 
L 3634 0 
L 628 0 
L 628 4666 
z
" id="DejaVuSans-45" transform="scale(0.015625)"/>
       <path d="M 1159 525 
L 1159 -1331 
L 581 -1331 
L 581 3500 
L 1159 3500 
L 1159 2969 
Q 1341 3281 1617 3432 
Q 1894 3584 2278 3584 
Q 2916 3584 3314 3078 
Q 3713 2572 3713 1747 
Q 3713 922 3314 415 
Q 2916 -91 2278 -91 
Q 1894 -91 1617 61 
Q 1341 213 1159 525 
z
M 3116 1747 
Q 3116 2381 2855 2742 
Q 2594 3103 2138 3103 
Q 1681 3103 1420 2742 
Q 1159 2381 1159 1747 
Q 1159 1113 1420 752 
Q 1681 391 2138 391 
Q 2594 391 2855 752 
Q 3116 1113 3116 1747 
z
" id="DejaVuSans-70" transform="scale(0.015625)"/>
       <path d="M 1959 3097 
Q 1497 3097 1228 2736 
Q 959 2375 959 1747 
Q 959 1119 1226 758 
Q 1494 397 1959 397 
Q 2419 397 2687 759 
Q 2956 1122 2956 1747 
Q 2956 2369 2687 2733 
Q 2419 3097 1959 3097 
z
M 1959 3584 
Q 2709 3584 3137 3096 
Q 3566 2609 3566 1747 
Q 3566 888 3137 398 
Q 2709 -91 1959 -91 
Q 1206 -91 779 398 
Q 353 888 353 1747 
Q 353 2609 779 3096 
Q 1206 3584 1959 3584 
z
" id="DejaVuSans-6f" transform="scale(0.015625)"/>
       <path d="M 3122 3366 
L 3122 2828 
Q 2878 2963 2633 3030 
Q 2388 3097 2138 3097 
Q 1578 3097 1268 2742 
Q 959 2388 959 1747 
Q 959 1106 1268 751 
Q 1578 397 2138 397 
Q 2388 397 2633 464 
Q 2878 531 3122 666 
L 3122 134 
Q 2881 22 2623 -34 
Q 2366 -91 2075 -91 
Q 1284 -91 818 406 
Q 353 903 353 1747 
Q 353 2603 823 3093 
Q 1294 3584 2113 3584 
Q 2378 3584 2631 3529 
Q 2884 3475 3122 3366 
z
" id="DejaVuSans-63" transform="scale(0.015625)"/>
       <path d="M 3513 2113 
L 3513 0 
L 2938 0 
L 2938 2094 
Q 2938 2591 2744 2837 
Q 2550 3084 2163 3084 
Q 1697 3084 1428 2787 
Q 1159 2491 1159 1978 
L 1159 0 
L 581 0 
L 581 4863 
L 1159 4863 
L 1159 2956 
Q 1366 3272 1645 3428 
Q 1925 3584 2291 3584 
Q 2894 3584 3203 3211 
Q 3513 2838 3513 2113 
z
" id="DejaVuSans-68" transform="scale(0.015625)"/>
      </defs>
      <use xlink:href="#DejaVuSans-45"/>
      <use x="63.183594" xlink:href="#DejaVuSans-70"/>
      <use x="126.660156" xlink:href="#DejaVuSans-6f"/>
      <use x="187.841797" xlink:href="#DejaVuSans-63"/>
      <use x="242.822266" xlink:href="#DejaVuSans-68"/>
     </g>
    </g>
   </g>
   <g id="matplotlib.axis_2">
    <g id="ytick_1">
     <g id="line2d_10">
      <defs>
       <path d="M 0 0 
L -3.5 0 
" id="m52ccddb49e" style="stroke:#000000;stroke-width:0.8;"/>
      </defs>
      <g>
       <use style="stroke:#000000;stroke-width:0.8;" x="57.6" xlink:href="#m52ccddb49e" y="299.089161"/>
      </g>
     </g>
     <g id="text_11">
      <!-- 0.0 -->
      <g transform="translate(34.696875 302.88838)scale(0.1 -0.1)">
       <defs>
        <path d="M 684 794 
L 1344 794 
L 1344 0 
L 684 0 
L 684 794 
z
" id="DejaVuSans-2e" transform="scale(0.015625)"/>
       </defs>
       <use xlink:href="#DejaVuSans-30"/>
       <use x="63.623047" xlink:href="#DejaVuSans-2e"/>
       <use x="95.410156" xlink:href="#DejaVuSans-30"/>
      </g>
     </g>
    </g>
    <g id="ytick_2">
     <g id="line2d_11">
      <g>
       <use style="stroke:#000000;stroke-width:0.8;" x="57.6" xlink:href="#m52ccddb49e" y="268.863374"/>
      </g>
     </g>
     <g id="text_12">
      <!-- 0.2 -->
      <g transform="translate(34.696875 272.662592)scale(0.1 -0.1)">
       <use xlink:href="#DejaVuSans-30"/>
       <use x="63.623047" xlink:href="#DejaVuSans-2e"/>
       <use x="95.410156" xlink:href="#DejaVuSans-32"/>
      </g>
     </g>
    </g>
    <g id="ytick_3">
     <g id="line2d_12">
      <g>
       <use style="stroke:#000000;stroke-width:0.8;" x="57.6" xlink:href="#m52ccddb49e" y="238.637586"/>
      </g>
     </g>
     <g id="text_13">
      <!-- 0.4 -->
      <g transform="translate(34.696875 242.436805)scale(0.1 -0.1)">
       <use xlink:href="#DejaVuSans-30"/>
       <use x="63.623047" xlink:href="#DejaVuSans-2e"/>
       <use x="95.410156" xlink:href="#DejaVuSans-34"/>
      </g>
     </g>
    </g>
    <g id="ytick_4">
     <g id="line2d_13">
      <g>
       <use style="stroke:#000000;stroke-width:0.8;" x="57.6" xlink:href="#m52ccddb49e" y="208.411799"/>
      </g>
     </g>
     <g id="text_14">
      <!-- 0.6 -->
      <g transform="translate(34.696875 212.211018)scale(0.1 -0.1)">
       <use xlink:href="#DejaVuSans-30"/>
       <use x="63.623047" xlink:href="#DejaVuSans-2e"/>
       <use x="95.410156" xlink:href="#DejaVuSans-36"/>
      </g>
     </g>
    </g>
    <g id="ytick_5">
     <g id="line2d_14">
      <g>
       <use style="stroke:#000000;stroke-width:0.8;" x="57.6" xlink:href="#m52ccddb49e" y="178.186011"/>
      </g>
     </g>
     <g id="text_15">
      <!-- 0.8 -->
      <g transform="translate(34.696875 181.98523)scale(0.1 -0.1)">
       <use xlink:href="#DejaVuSans-30"/>
       <use x="63.623047" xlink:href="#DejaVuSans-2e"/>
       <use x="95.410156" xlink:href="#DejaVuSans-38"/>
      </g>
     </g>
    </g>
    <g id="ytick_6">
     <g id="line2d_15">
      <g>
       <use style="stroke:#000000;stroke-width:0.8;" x="57.6" xlink:href="#m52ccddb49e" y="147.960224"/>
      </g>
     </g>
     <g id="text_16">
      <!-- 1.0 -->
      <g transform="translate(34.696875 151.759443)scale(0.1 -0.1)">
       <use xlink:href="#DejaVuSans-31"/>
       <use x="63.623047" xlink:href="#DejaVuSans-2e"/>
       <use x="95.410156" xlink:href="#DejaVuSans-30"/>
      </g>
     </g>
    </g>
    <g id="ytick_7">
     <g id="line2d_16">
      <g>
       <use style="stroke:#000000;stroke-width:0.8;" x="57.6" xlink:href="#m52ccddb49e" y="117.734436"/>
      </g>
     </g>
     <g id="text_17">
      <!-- 1.2 -->
      <g transform="translate(34.696875 121.533655)scale(0.1 -0.1)">
       <use xlink:href="#DejaVuSans-31"/>
       <use x="63.623047" xlink:href="#DejaVuSans-2e"/>
       <use x="95.410156" xlink:href="#DejaVuSans-32"/>
      </g>
     </g>
    </g>
    <g id="ytick_8">
     <g id="line2d_17">
      <g>
       <use style="stroke:#000000;stroke-width:0.8;" x="57.6" xlink:href="#m52ccddb49e" y="87.508649"/>
      </g>
     </g>
     <g id="text_18">
      <!-- 1.4 -->
      <g transform="translate(34.696875 91.307868)scale(0.1 -0.1)">
       <use xlink:href="#DejaVuSans-31"/>
       <use x="63.623047" xlink:href="#DejaVuSans-2e"/>
       <use x="95.410156" xlink:href="#DejaVuSans-34"/>
      </g>
     </g>
    </g>
    <g id="ytick_9">
     <g id="line2d_18">
      <g>
       <use style="stroke:#000000;stroke-width:0.8;" x="57.6" xlink:href="#m52ccddb49e" y="57.282862"/>
      </g>
     </g>
     <g id="text_19">
      <!-- 1.6 -->
      <g transform="translate(34.696875 61.08208)scale(0.1 -0.1)">
       <use xlink:href="#DejaVuSans-31"/>
       <use x="63.623047" xlink:href="#DejaVuSans-2e"/>
       <use x="95.410156" xlink:href="#DejaVuSans-36"/>
      </g>
     </g>
    </g>
   </g>
   <g id="line2d_19">
    <path clip-path="url(#p25abefc0a5)" d="M 73.832727 139.482069 
L 74.035763 163.735339 
L 74.238799 155.581861 
L 74.441835 121.125222 
L 74.847907 158.920449 
L 75.050943 148.703367 
L 75.253979 145.158731 
L 75.457015 113.022612 
L 75.660051 107.235725 
L 75.863087 133.705725 
L 76.066123 110.169087 
L 76.269159 103.647962 
L 76.472195 150.03668 
L 76.675231 105.746125 
L 76.878267 86.257304 
L 77.081303 140.229472 
L 77.284339 157.913417 
L 77.487375 75.80011 
L 77.690411 147.740875 
L 78.096483 99.507605 
L 78.502555 170.127318 
L 78.705591 137.507872 
L 78.908627 152.174415 
L 79.111663 107.840617 
L 79.314699 111.8031 
L 79.517735 108.630585 
L 79.720771 101.353092 
L 79.923807 123.899233 
L 80.126843 64.571951 
L 80.532915 129.327432 
L 80.735951 130.746468 
L 80.938987 107.745519 
L 81.345059 124.545425 
L 81.548095 73.790273 
L 81.751131 120.955103 
L 81.954167 104.694023 
L 82.157203 111.083414 
L 82.360239 129.607265 
L 82.563275 131.99885 
L 82.766311 95.870262 
L 82.969347 118.917581 
L 83.172383 112.803574 
L 83.375419 114.635205 
L 83.578455 144.876337 
L 83.781491 134.602668 
L 83.984527 103.215989 
L 84.187563 106.797359 
L 84.390599 149.873791 
L 84.593635 126.298171 
L 84.796671 129.334139 
L 84.999707 147.292957 
L 85.202743 109.592933 
L 85.405779 136.273399 
L 85.608815 131.384881 
L 85.811851 133.548546 
L 86.014887 100.453842 
L 86.217923 124.351774 
L 86.420959 98.388959 
L 86.623995 118.953902 
L 86.827031 98.738758 
L 87.030067 148.326085 
L 87.233103 121.91599 
L 87.436138 119.332167 
L 87.639174 121.585326 
L 87.84221 127.079233 
L 88.248282 148.424715 
L 88.451318 80.959208 
L 88.654354 116.827695 
L 88.85739 115.467572 
L 89.060426 159.788689 
L 89.466498 94.81823 
L 89.87257 162.433719 
L 90.075606 138.748109 
L 90.481678 147.60659 
L 90.684714 132.631928 
L 90.88775 104.916076 
L 91.090786 142.043187 
L 91.496858 99.211015 
L 91.699894 134.17578 
L 91.90293 105.764334 
L 92.105966 134.612197 
L 92.309002 115.525062 
L 92.512038 130.466522 
L 92.715074 114.340933 
L 92.91811 65.311886 
L 93.121146 133.341131 
L 93.324182 88.088872 
L 93.527218 115.021122 
L 93.730254 126.020599 
L 93.93329 116.900276 
L 94.136326 78.770736 
L 94.339362 158.646338 
L 94.542398 111.477445 
L 94.745434 118.822046 
L 94.94847 106.94533 
L 95.151506 106.268845 
L 95.354542 148.476379 
L 95.557578 118.086233 
L 95.760614 106.683414 
L 95.96365 112.47889 
L 96.166686 152.057713 
L 96.572758 127.123331 
L 96.775794 134.916011 
L 96.97883 71.427362 
L 97.181866 151.441039 
L 97.587938 93.908082 
L 97.99401 116.105074 
L 98.197046 149.715694 
L 98.400082 73.159079 
L 98.603118 122.510006 
L 98.806154 88.981504 
L 99.212226 162.575647 
L 99.415262 95.227915 
L 99.618298 137.711746 
L 99.821334 76.889884 
L 100.02437 132.361091 
L 100.227406 110.263099 
L 100.430442 139.195379 
L 100.633478 114.174405 
L 100.836514 142.307597 
L 101.03955 100.685028 
L 101.242586 130.015014 
L 101.445622 111.254206 
L 101.648658 126.20172 
L 101.851694 125.70594 
L 102.05473 153.55926 
L 102.257766 158.884418 
L 102.460802 123.132698 
L 102.663838 111.781825 
L 102.866874 120.113545 
L 103.06991 139.600226 
L 103.272946 125.571922 
L 103.475982 124.96216 
L 103.679018 152.091575 
L 103.882054 158.488029 
L 104.08509 135.89612 
L 104.288126 134.509788 
L 104.491162 139.973796 
L 104.897233 170.981085 
L 105.100269 171.921667 
L 105.303305 155.564428 
L 105.506341 160.58089 
L 105.709377 126.385811 
L 105.912413 147.753956 
L 106.115449 155.796474 
L 106.318485 124.704609 
L 106.521521 173.263074 
L 106.927593 144.706358 
L 107.130629 142.388172 
L 107.333665 138.35542 
L 107.536701 148.88581 
L 107.739737 185.676233 
L 108.145809 127.381803 
L 108.348845 140.050948 
L 108.551881 142.236408 
L 108.754917 154.578185 
L 108.957953 138.012649 
L 109.160989 183.564336 
L 109.364025 149.733532 
L 109.770097 168.959119 
L 110.176169 141.927078 
L 110.582241 191.405377 
L 110.785277 160.286298 
L 111.191349 175.907139 
L 111.394385 157.28496 
L 111.597421 182.234043 
L 112.003493 140.657559 
L 112.206529 140.355617 
L 112.409565 169.510038 
L 112.612601 159.312015 
L 112.815637 139.866742 
L 113.018673 163.407572 
L 113.221709 166.551335 
L 113.424745 131.752184 
L 113.627781 131.936059 
L 113.830817 154.022523 
L 114.033853 158.975119 
L 114.236889 172.131334 
L 114.439925 129.649197 
L 114.642961 154.411405 
L 114.845997 141.229641 
L 115.049033 168.354246 
L 115.252069 168.88954 
L 115.455105 153.265056 
L 115.658141 128.712235 
L 116.064213 190.04649 
L 116.267249 175.352995 
L 116.470285 177.774814 
L 116.673321 175.520859 
L 116.876357 145.710391 
L 117.079393 183.745305 
L 117.282429 185.015723 
L 117.688501 150.159874 
L 118.094573 177.74299 
L 118.297609 158.809125 
L 118.500645 179.887667 
L 118.703681 155.07817 
L 118.906717 177.071562 
L 119.109753 174.175754 
L 119.312789 168.622503 
L 119.515825 176.258438 
L 119.718861 166.46636 
L 119.921897 173.526806 
L 120.124933 169.463881 
L 120.327969 155.468932 
L 120.531005 175.434485 
L 120.734041 175.800675 
L 120.937077 172.850894 
L 121.140113 189.331232 
L 121.343149 191.382762 
L 121.546185 166.417008 
L 121.749221 207.939948 
L 121.952257 181.883379 
L 122.155293 187.722929 
L 122.358329 197.070381 
L 122.561364 196.477643 
L 122.7644 181.712292 
L 122.967436 207.378524 
L 123.170472 181.652522 
L 123.373508 190.451015 
L 123.576544 191.277436 
L 123.77958 184.503498 
L 123.982616 219.173729 
L 124.185652 184.938859 
L 124.388688 201.584674 
L 124.591724 168.777242 
L 124.79476 210.356407 
L 125.200832 181.490381 
L 125.606904 209.62729 
L 125.80994 189.708829 
L 126.012976 190.301286 
L 126.216012 176.409203 
L 126.419048 184.466024 
L 126.622084 184.472836 
L 126.82512 198.770523 
L 127.028156 188.0328 
L 127.231192 202.307503 
L 127.434228 191.178711 
L 127.637264 193.719222 
L 127.8403 198.385748 
L 128.043336 195.461576 
L 128.246372 207.146684 
L 128.449408 196.775555 
L 128.85548 189.728186 
L 129.058516 214.048606 
L 129.261552 201.648892 
L 129.464588 197.950043 
L 129.667624 200.132831 
L 129.87066 199.894878 
L 130.276732 172.033084 
L 130.479768 194.896691 
L 130.88584 209.772017 
L 131.088876 184.398806 
L 131.291912 193.285901 
L 131.494948 192.430109 
L 131.697984 190.549801 
L 132.104056 217.299993 
L 132.510128 197.434752 
L 132.713164 201.011969 
L 132.9162 215.901528 
L 133.119236 190.75059 
L 133.322272 202.1922 
L 133.525308 201.333076 
L 133.728344 192.120344 
L 133.93138 198.063919 
L 134.134416 198.682384 
L 134.337452 216.601607 
L 134.743524 197.083043 
L 135.149596 202.36575 
L 135.555668 225.291468 
L 135.758704 209.484369 
L 135.96174 204.919742 
L 136.164776 209.234 
L 136.367812 197.203456 
L 136.773884 212.701652 
L 136.97692 225.424457 
L 137.179956 207.256518 
L 137.382992 207.402668 
L 137.586028 222.796793 
L 137.789064 219.151212 
L 137.9921 227.300335 
L 138.195136 230.735068 
L 138.601208 203.694973 
L 139.00728 214.868539 
L 139.210316 229.404537 
L 139.413352 220.326539 
L 139.616388 197.710991 
L 139.819424 201.691586 
L 140.022459 219.151211 
L 140.225495 213.084525 
L 140.428531 226.987669 
L 140.834603 201.302059 
L 141.037639 212.339078 
L 141.240675 207.38036 
L 141.443711 206.433602 
L 141.849783 224.679844 
L 142.052819 205.532856 
L 142.255855 220.786367 
L 142.458891 218.38672 
L 142.661927 213.463274 
L 142.864963 214.002798 
L 143.067999 235.671915 
L 143.271035 193.884829 
L 143.474071 232.700356 
L 143.880143 201.287279 
L 144.083179 218.042976 
L 144.286215 208.0286 
L 144.895323 223.830377 
L 145.098359 212.167797 
L 145.301395 218.349456 
L 145.504431 213.170104 
L 145.707467 195.700796 
L 145.910503 202.598978 
L 146.113539 222.406223 
L 146.316575 190.014438 
L 146.519611 202.378193 
L 146.722647 222.672687 
L 146.925683 216.355131 
L 147.128719 216.500201 
L 147.534791 204.21647 
L 147.737827 215.946421 
L 147.940863 215.561387 
L 148.346935 235.824133 
L 148.549971 218.315391 
L 148.753007 221.003221 
L 148.956043 210.277139 
L 149.159079 216.301827 
L 149.362115 207.818202 
L 149.565151 223.395436 
L 149.768187 213.592459 
L 149.971223 215.371512 
L 150.174259 212.717794 
L 150.377295 203.811866 
L 150.580331 218.508774 
L 150.783367 213.567032 
L 150.986403 226.516508 
L 151.189439 206.980448 
L 151.392475 216.275532 
L 151.595511 213.046198 
L 151.798547 226.657726 
L 152.001583 196.067048 
L 152.204619 211.542536 
L 152.407655 218.255944 
L 152.610691 233.1766 
L 153.016763 214.31494 
L 153.219799 223.033967 
L 153.422835 224.938562 
L 153.828907 211.873687 
L 154.031943 241.006098 
L 154.438015 204.280875 
L 154.641051 233.009942 
L 154.844087 218.846361 
L 155.047123 231.716901 
L 155.250159 229.709491 
L 155.453195 223.086743 
L 155.859267 236.304751 
L 156.062303 238.123556 
L 156.265339 237.500882 
L 156.468375 216.801241 
L 156.671411 219.292515 
L 156.874447 230.624893 
L 157.077483 211.355428 
L 157.280519 208.064451 
L 157.68659 217.916823 
L 158.092662 239.333197 
L 158.295698 228.323627 
L 158.498734 235.967929 
L 158.70177 222.729147 
L 158.904806 218.688925 
L 159.107842 207.390734 
L 159.310878 231.441952 
L 159.513914 224.113532 
L 159.71695 225.171745 
L 159.919986 231.597125 
L 160.123022 225.419347 
L 160.326058 229.6239 
L 160.529094 224.167824 
L 160.73213 223.782944 
L 160.935166 230.779324 
L 161.138202 224.449636 
L 161.341238 225.057457 
L 161.544274 221.983575 
L 161.950346 225.75409 
L 162.153382 231.162631 
L 162.356418 218.570133 
L 162.559454 230.489247 
L 162.76249 221.285108 
L 163.168562 226.573408 
L 163.371598 228.554949 
L 163.574634 225.560816 
L 163.77767 220.920979 
L 163.980706 231.40599 
L 164.183742 227.280694 
L 164.386778 244.487525 
L 164.589814 225.346024 
L 164.79285 242.849384 
L 164.995886 234.37673 
L 165.198922 231.309317 
L 165.401958 225.953091 
L 165.604994 232.341727 
L 165.80803 219.700679 
L 166.011066 236.598032 
L 166.214102 219.607461 
L 166.417138 238.720473 
L 166.620174 232.741018 
L 166.82321 232.825261 
L 167.026246 231.870697 
L 167.229282 223.526896 
L 167.432318 230.639694 
L 167.635354 229.188556 
L 167.83839 220.999985 
L 168.041426 230.060761 
L 168.244462 246.878486 
L 168.85357 224.073334 
L 169.056606 235.728324 
L 169.462678 223.748483 
L 169.665714 226.361815 
L 169.86875 234.724849 
L 170.071786 228.716027 
L 170.477858 237.980382 
L 170.680894 237.894174 
L 170.88393 236.273761 
L 171.086966 227.753416 
L 171.290002 231.256628 
L 171.493038 232.244939 
L 171.89911 247.760886 
L 172.102146 234.211639 
L 172.305182 233.201205 
L 172.508218 219.086737 
L 172.711254 244.842065 
L 172.91429 222.962517 
L 173.117326 230.059956 
L 173.320362 231.06068 
L 173.523398 247.848344 
L 173.92947 240.801145 
L 174.132506 227.407581 
L 174.335542 240.987659 
L 174.538578 240.011065 
L 174.741614 239.843506 
L 174.944649 247.056377 
L 175.147685 246.346887 
L 175.350721 229.895932 
L 175.553757 244.619053 
L 175.756793 231.124856 
L 175.959829 242.055814 
L 176.162865 246.40786 
L 176.365901 239.68784 
L 176.568937 240.173708 
L 176.771973 249.880206 
L 176.975009 238.852811 
L 177.178045 247.886499 
L 177.381081 243.076555 
L 177.584117 242.628526 
L 177.787153 240.944358 
L 177.990189 250.300073 
L 178.193225 226.105955 
L 178.396261 233.17247 
L 178.599297 247.369118 
L 178.802333 239.582256 
L 179.005369 246.98029 
L 179.208405 232.044028 
L 179.411441 242.9844 
L 179.614477 238.955 
L 179.817513 243.867917 
L 180.020549 234.090906 
L 180.223585 253.458134 
L 180.426621 252.15474 
L 180.629657 236.506268 
L 181.035729 248.019378 
L 181.441801 229.366221 
L 181.644837 246.41035 
L 181.847873 232.633689 
L 182.050909 243.439189 
L 182.253945 244.284651 
L 182.456981 237.94344 
L 182.660017 244.240475 
L 182.863053 244.1106 
L 183.066089 231.380482 
L 183.269125 233.151918 
L 183.472161 237.73243 
L 183.675197 250.646781 
L 183.878233 243.878305 
L 184.081269 244.620913 
L 184.487341 249.480112 
L 184.690377 232.134731 
L 184.893413 249.870552 
L 185.096449 243.878541 
L 185.299485 242.839466 
L 185.502521 236.677674 
L 185.705557 235.013016 
L 185.908593 239.125533 
L 186.111629 247.507161 
L 186.314665 245.064521 
L 186.517701 233.991449 
L 186.720737 230.840898 
L 186.923773 240.769656 
L 187.126809 239.630281 
L 187.329845 233.34202 
L 187.532881 235.49589 
L 187.735917 236.06031 
L 187.938953 242.797697 
L 188.345025 230.735256 
L 188.548061 242.778686 
L 188.751097 229.10817 
L 188.954133 251.39716 
L 189.157169 237.863141 
L 189.360205 242.967935 
L 189.563241 243.223248 
L 189.766277 245.729523 
L 189.969313 234.501129 
L 190.172349 240.222682 
L 190.375385 238.956339 
L 190.578421 246.776875 
L 190.984493 239.704982 
L 191.187529 253.942331 
L 191.390565 247.870592 
L 191.593601 249.384321 
L 191.796637 237.80355 
L 191.999673 234.157604 
L 192.202709 261.078954 
L 192.405744 229.035142 
L 192.60878 252.55749 
L 192.811816 242.05419 
L 193.014852 242.122794 
L 193.217888 250.403751 
L 193.826996 223.548709 
L 194.233068 254.03174 
L 194.436104 254.066507 
L 194.63914 251.728552 
L 195.045212 235.552167 
L 195.248248 237.299014 
L 195.451284 246.315486 
L 195.65432 245.904654 
L 195.857356 245.847459 
L 196.060392 253.090306 
L 196.263428 238.837012 
L 196.466464 249.647614 
L 196.6695 250.072759 
L 196.872536 249.818622 
L 197.075572 257.043121 
L 197.278608 252.899023 
L 197.481644 243.32929 
L 197.68468 255.886595 
L 197.887716 240.74887 
L 198.090752 263.351735 
L 198.293788 240.732274 
L 198.496824 243.073848 
L 198.69986 240.58801 
L 198.902896 254.740632 
L 199.105932 251.863014 
L 199.308968 246.12189 
L 199.512004 256.329554 
L 199.71504 249.460837 
L 199.918076 250.55328 
L 200.324148 243.632986 
L 200.527184 228.250824 
L 200.73022 246.70122 
L 200.933256 253.128165 
L 201.136292 250.31792 
L 201.339328 227.077743 
L 201.542364 244.762488 
L 201.7454 244.364479 
L 201.948436 245.135443 
L 202.151472 247.759143 
L 202.354508 256.269935 
L 202.557544 249.883461 
L 202.76058 250.786132 
L 202.963616 255.697212 
L 203.166652 249.278017 
L 203.369688 247.265588 
L 203.77576 252.288577 
L 204.181832 241.401331 
L 204.587904 251.94907 
L 204.79094 252.821916 
L 204.993976 234.074649 
L 205.197012 248.942549 
L 205.400048 250.893524 
L 205.80612 265.076166 
L 206.009156 243.576244 
L 206.212192 251.17163 
L 206.415228 253.718068 
L 206.618264 259.696664 
L 206.8213 252.066685 
L 207.024336 255.654062 
L 207.227372 247.873579 
L 207.430408 253.709102 
L 207.83648 252.402394 
L 208.039516 238.957051 
L 208.242552 250.911786 
L 208.445588 248.008946 
L 208.648624 247.679396 
L 208.85166 254.002895 
L 209.054696 245.441344 
L 209.257732 258.630109 
L 209.460768 250.989385 
L 209.663804 261.345691 
L 209.86684 254.476494 
L 210.069875 241.718751 
L 210.272911 254.128284 
L 210.475947 237.888851 
L 210.678983 246.709496 
L 210.882019 247.244126 
L 211.085055 253.142101 
L 211.288091 264.78625 
L 211.491127 239.199923 
L 211.694163 245.769545 
L 211.897199 243.462299 
L 212.100235 263.223098 
L 212.303271 256.775349 
L 212.506307 264.646749 
L 212.912379 257.473582 
L 213.318451 259.954554 
L 213.521487 248.254075 
L 213.724523 261.993047 
L 214.130595 241.704295 
L 214.333631 254.148346 
L 214.536667 243.942001 
L 214.739703 259.253631 
L 214.942739 255.76441 
L 215.145775 263.814019 
L 215.348811 249.7387 
L 215.551847 250.814326 
L 215.754883 247.398767 
L 215.957919 262.280049 
L 216.160955 247.114458 
L 216.363991 245.257887 
L 216.770063 266.013486 
L 216.973099 255.568944 
L 217.176135 257.095175 
L 217.379171 257.645993 
L 217.785243 247.185955 
L 217.988279 257.322183 
L 218.394351 240.697924 
L 218.597387 241.557177 
L 218.800423 259.499272 
L 219.003459 254.634005 
L 219.206495 257.777185 
L 219.409531 257.493773 
L 219.612567 263.994751 
L 219.815603 258.273269 
L 220.018639 247.778836 
L 220.221675 265.045214 
L 220.627747 247.383159 
L 220.830783 253.413982 
L 221.033819 255.192984 
L 221.236855 252.479622 
L 221.439891 262.724776 
L 221.642927 263.137582 
L 221.845963 261.743172 
L 222.048999 253.511003 
L 222.252035 261.921475 
L 222.455071 246.788604 
L 222.861143 265.657852 
L 223.064179 263.262428 
L 223.267215 244.789031 
L 223.470251 261.688002 
L 223.673287 266.908973 
L 223.876323 257.500587 
L 224.079359 257.92491 
L 224.282395 263.691743 
L 224.688467 254.294828 
L 224.891503 249.25986 
L 225.094539 249.336086 
L 225.297575 257.422261 
L 225.500611 258.080369 
L 225.703647 266.086385 
L 225.906683 262.723581 
L 226.109719 245.327703 
L 226.312755 263.835616 
L 226.515791 251.166088 
L 226.718827 260.303705 
L 226.921863 242.674943 
L 227.124899 257.334268 
L 227.327935 236.795025 
L 227.53097 258.096804 
L 227.734006 260.747534 
L 227.937042 255.872969 
L 228.140078 265.290371 
L 228.343114 252.520928 
L 228.749186 271.137071 
L 228.952222 257.477605 
L 229.358294 268.298088 
L 229.967402 244.972352 
L 230.373474 263.697279 
L 230.57651 259.098759 
L 230.779546 271.376055 
L 230.982582 251.685187 
L 231.185618 266.124387 
L 231.59169 258.807387 
L 231.794726 264.59512 
L 231.997762 264.631674 
L 232.200798 265.542736 
L 232.60687 251.552504 
L 232.809906 274.573668 
L 233.012942 254.798423 
L 233.419014 268.709234 
L 233.62205 265.473869 
L 234.028122 254.078062 
L 234.231158 256.482804 
L 234.434194 261.651329 
L 234.63723 263.125625 
L 234.840266 271.523395 
L 235.043302 267.878389 
L 235.246338 257.696301 
L 235.449374 272.573739 
L 236.058482 245.956332 
L 236.261518 263.471058 
L 236.464554 269.649843 
L 236.66759 249.654138 
L 236.870626 259.208301 
L 237.073662 261.401768 
L 237.276698 265.039706 
L 237.479734 265.782675 
L 237.68277 264.809343 
L 237.885806 253.922355 
L 238.088842 263.517743 
L 238.291878 257.725874 
L 238.494914 259.613129 
L 238.69795 267.558148 
L 238.900986 262.649067 
L 239.104022 264.592511 
L 239.307058 258.939744 
L 239.71313 272.801672 
L 239.916166 260.507222 
L 240.119202 264.933627 
L 240.322238 262.198568 
L 240.525274 269.288462 
L 240.72831 268.345355 
L 240.931346 274.899046 
L 241.134382 268.863571 
L 241.337418 250.614126 
L 241.540454 252.240034 
L 241.74349 261.730081 
L 242.149562 254.886513 
L 242.352598 267.673096 
L 242.555634 270.956467 
L 242.75867 266.168887 
L 242.961706 255.497512 
L 243.164742 265.072015 
L 243.367778 262.626195 
L 243.570814 263.154156 
L 243.77385 252.273912 
L 243.976886 257.437358 
L 244.179922 256.472736 
L 244.382958 261.820521 
L 244.585994 255.320331 
L 244.78903 261.845315 
L 244.992065 262.02688 
L 245.195101 266.826693 
L 245.398137 268.700761 
L 245.601173 266.14447 
L 245.804209 255.455256 
L 246.007245 260.666577 
L 246.210281 260.633508 
L 246.413317 258.184072 
L 246.616353 249.537753 
L 247.022425 276.390486 
L 247.428497 268.343673 
L 247.631533 271.154243 
L 247.834569 267.621913 
L 248.037605 257.827434 
L 248.240641 273.574214 
L 248.443677 261.832446 
L 248.646713 266.02366 
L 248.849749 256.29213 
L 249.052785 263.686701 
L 249.255821 265.798357 
L 249.661893 273.277421 
L 249.864929 259.424689 
L 250.067965 263.489835 
L 250.271001 250.446997 
L 250.677073 275.106932 
L 250.880109 265.311329 
L 251.083145 266.962778 
L 251.286181 261.982534 
L 251.489217 276.020919 
L 251.692253 264.316686 
L 251.895289 271.464255 
L 252.098325 266.049105 
L 252.301361 269.17534 
L 252.504397 258.27103 
L 252.707433 274.977319 
L 252.910469 262.712548 
L 253.113505 280.24734 
L 253.316541 267.687724 
L 253.519577 269.180529 
L 253.722613 262.166998 
L 253.925649 264.641239 
L 254.128685 264.09679 
L 254.331721 262.682748 
L 254.534757 269.381965 
L 254.737793 268.917971 
L 254.940829 256.288723 
L 255.143865 269.006404 
L 255.346901 265.079587 
L 255.549937 267.09996 
L 255.752973 134.787843 
L 255.956009 223.881877 
L 256.159045 239.281274 
L 256.362081 234.756239 
L 256.565117 258.536084 
L 256.768153 252.636136 
L 256.971189 260.435801 
L 257.174225 260.556144 
L 257.377261 256.660626 
L 257.580297 278.056583 
L 257.986369 263.608727 
L 258.189405 262.397032 
L 258.392441 268.636257 
L 258.595477 262.195763 
L 258.798513 275.871589 
L 259.001549 265.176156 
L 259.407621 262.45205 
L 259.610657 267.002207 
L 259.813693 266.006368 
L 260.016729 270.097545 
L 260.219765 268.749365 
L 260.422801 275.315014 
L 260.625837 274.520125 
L 260.828873 269.902452 
L 261.031909 271.254296 
L 261.234945 280.802634 
L 261.437981 258.921264 
L 261.641017 259.804727 
L 261.844053 270.604082 
L 262.047089 264.715045 
L 262.250125 265.543516 
L 262.45316 269.983972 
L 262.656196 265.065473 
L 262.859232 269.389864 
L 263.062268 270.194267 
L 263.46834 278.889411 
L 263.671376 267.618419 
L 263.874412 274.77079 
L 264.077448 266.194771 
L 264.280484 263.080445 
L 264.48352 275.890756 
L 264.686556 268.565828 
L 265.092628 275.591164 
L 265.295664 275.696003 
L 265.701736 279.088897 
L 265.904772 248.291341 
L 266.107808 266.746753 
L 266.310844 270.998108 
L 266.51388 265.969949 
L 266.716916 263.749885 
L 266.919952 257.389792 
L 267.122988 268.803303 
L 267.326024 270.380956 
L 267.52906 264.992761 
L 267.732096 269.777997 
L 267.935132 269.627601 
L 268.138168 275.391684 
L 268.341204 258.64828 
L 268.54424 258.654433 
L 268.747276 267.515686 
L 268.950312 265.609833 
L 269.153348 279.547006 
L 269.356384 262.952256 
L 269.55942 263.887225 
L 269.762456 272.572666 
L 270.168528 264.729734 
L 270.371564 269.990211 
L 270.5746 270.819243 
L 270.777636 269.480996 
L 270.980672 270.122249 
L 271.183708 263.558957 
L 271.386744 278.094236 
L 271.58978 265.982712 
L 271.792816 276.48672 
L 272.198888 278.102838 
L 272.60496 271.080139 
L 272.807996 274.735833 
L 273.011032 282.847327 
L 273.214068 256.866412 
L 273.417104 256.766674 
L 273.62014 261.754075 
L 273.823176 258.596751 
L 274.026212 261.780484 
L 274.229248 268.707433 
L 274.432284 268.053111 
L 274.838356 282.145709 
L 275.041392 277.160857 
L 275.244428 281.095744 
L 275.447464 273.289698 
L 275.6505 270.230569 
L 275.853536 274.537242 
L 276.259608 269.437748 
L 276.462644 268.196448 
L 276.66568 277.305507 
L 276.868716 248.718978 
L 277.071752 264.864554 
L 277.274788 262.931399 
L 277.477824 274.373621 
L 277.68086 272.378814 
L 277.883896 279.68137 
L 278.086932 263.379827 
L 278.289968 266.401858 
L 278.493004 279.317016 
L 278.69604 262.447929 
L 278.899076 273.493785 
L 279.102112 277.784845 
L 279.305148 271.813934 
L 279.508184 270.360806 
L 279.71122 284.244 
L 280.117291 269.606351 
L 280.523363 280.811495 
L 280.929435 259.104928 
L 281.132471 274.182516 
L 281.335507 275.23653 
L 281.538543 266.771836 
L 281.741579 273.585886 
L 281.944615 260.216073 
L 282.147651 266.796059 
L 282.350687 263.981136 
L 282.553723 265.890602 
L 282.756759 276.754783 
L 282.959795 266.263952 
L 283.162831 275.68854 
L 283.365867 273.283454 
L 283.568903 265.604952 
L 283.771939 263.059425 
L 284.178011 272.993142 
L 284.787119 281.337485 
L 284.990155 281.19901 
L 285.193191 278.602258 
L 285.396227 280.730128 
L 285.599263 276.493133 
L 285.802299 278.219514 
L 286.208371 274.027143 
L 286.411407 280.184081 
L 286.614443 268.765017 
L 286.817479 271.516132 
L 287.020515 264.619787 
L 287.223551 273.913714 
L 287.426587 271.825556 
L 287.832659 257.872985 
L 288.035695 279.350517 
L 288.238731 281.532701 
L 288.441767 277.265825 
L 288.644803 279.752554 
L 288.847839 271.414707 
L 289.050875 282.931842 
L 289.253911 267.624982 
L 289.456947 267.611169 
L 289.659983 275.878162 
L 289.863019 275.047856 
L 290.066055 277.609641 
L 290.269091 263.676881 
L 290.472127 267.965499 
L 290.675163 281.027785 
L 290.878199 270.043724 
L 291.081235 266.155588 
L 291.284271 278.90197 
L 291.487307 273.655942 
L 291.690343 279.64831 
L 291.893379 269.85005 
L 292.096415 279.569722 
L 292.299451 271.18536 
L 292.502487 277.188393 
L 292.705523 276.61497 
L 292.908559 274.846981 
L 293.111595 283.449031 
L 293.314631 272.258504 
L 293.517667 275.68214 
L 293.923739 271.033291 
L 294.126775 274.436417 
L 294.329811 284.267105 
L 294.735883 268.994947 
L 294.938919 274.616304 
L 295.344991 268.775811 
L 295.548027 265.61571 
L 295.751063 264.781067 
L 295.954099 273.591 
L 296.157135 272.132047 
L 296.360171 258.3763 
L 296.563207 275.647208 
L 296.766243 279.061713 
L 296.969279 272.793085 
L 297.375351 275.099275 
L 297.781422 260.076059 
L 298.187494 281.080574 
L 298.593566 271.250696 
L 298.796602 285.536433 
L 298.999638 285.185064 
L 299.40571 271.560054 
L 299.811782 281.572373 
L 300.014818 281.9664 
L 300.217854 277.033287 
L 300.42089 264.735349 
L 300.623926 276.720968 
L 300.826962 264.152292 
L 301.029998 271.852025 
L 301.233034 262.871182 
L 301.43607 261.989177 
L 301.639106 276.807926 
L 301.842142 278.442324 
L 302.045178 282.957305 
L 302.857322 272.27569 
L 303.060358 280.762545 
L 303.263394 278.811576 
L 303.46643 280.540887 
L 303.669466 280.106862 
L 303.872502 270.635552 
L 304.075538 279.171659 
L 304.278574 277.144456 
L 304.48161 277.98706 
L 304.684646 274.787074 
L 304.887682 264.563804 
L 305.090718 282.653084 
L 305.293754 281.709225 
L 305.49679 279.073111 
L 305.699826 272.557728 
L 305.902862 272.756988 
L 306.105898 281.045275 
L 306.308934 264.506371 
L 306.51197 282.888166 
L 306.715006 273.441573 
L 306.918042 271.203432 
L 307.121078 276.145998 
L 307.324114 277.16489 
L 307.52715 281.866555 
L 307.730186 281.158001 
L 307.933222 282.886234 
L 308.136258 280.6599 
L 308.339294 270.07863 
L 308.54233 271.67001 
L 308.745366 270.751658 
L 308.948402 272.078627 
L 309.151438 279.19163 
L 309.354474 267.718437 
L 309.55751 277.959229 
L 309.760546 277.922263 
L 309.963582 286.200023 
L 310.166618 281.752812 
L 310.369654 268.128743 
L 310.57269 274.830695 
L 310.775726 286.037413 
L 310.978762 277.894385 
L 311.181798 279.936381 
L 311.384834 269.875717 
L 311.58787 279.523411 
L 311.790906 274.313433 
L 311.993942 274.787257 
L 312.196978 259.986401 
L 312.400014 275.911124 
L 312.60305 275.141152 
L 312.806086 284.550566 
L 313.009122 265.066463 
L 313.212158 279.534441 
L 313.415194 272.327759 
L 313.61823 281.294891 
L 313.821266 277.046256 
L 314.024302 285.430578 
L 314.227338 269.00422 
L 314.430374 279.220533 
L 314.63341 275.747547 
L 314.836446 283.765581 
L 315.039481 284.887163 
L 315.242517 277.78069 
L 315.445553 279.7053 
L 315.648589 271.260519 
L 316.054661 280.276414 
L 316.257697 269.510706 
L 316.663769 285.664296 
L 316.866805 282.849071 
L 317.069841 278.208559 
L 317.272877 269.213379 
L 317.475913 281.441281 
L 317.881985 272.052062 
L 318.085021 276.90015 
L 318.288057 271.232298 
L 318.491093 283.672935 
L 318.694129 281.70954 
L 318.897165 269.394753 
L 319.100201 276.074387 
L 319.303237 272.748974 
L 319.506273 286.398472 
L 319.709309 269.789521 
L 319.912345 269.849491 
L 320.115381 280.592671 
L 320.318417 276.659761 
L 320.521453 282.922969 
L 320.724489 283.226797 
L 320.927525 281.450855 
L 321.130561 270.637001 
L 321.333597 275.894157 
L 321.536633 291.489634 
L 321.942705 273.429399 
L 322.145741 279.615458 
L 322.348777 274.724164 
L 322.551813 274.331345 
L 322.754849 283.26971 
L 322.957885 272.356482 
L 323.363957 275.67296 
L 323.566993 267.314091 
L 323.770029 287.805679 
L 324.176101 278.264723 
L 324.379137 284.582581 
L 324.582173 282.525432 
L 324.785209 278.454234 
L 324.988245 281.81612 
L 325.191281 274.558922 
L 325.597353 286.73088 
L 325.800389 285.017349 
L 326.003425 277.627606 
L 326.206461 281.893674 
L 326.409497 273.675567 
L 326.612533 283.67356 
L 326.815569 279.755689 
L 327.018605 280.149091 
L 327.221641 279.580645 
L 327.424677 279.877362 
L 327.830749 271.500916 
L 328.033785 278.972102 
L 328.439857 281.995572 
L 328.642893 281.120317 
L 328.845929 277.59704 
L 329.048965 280.087929 
L 329.252001 273.635253 
L 329.455037 272.944615 
L 329.658073 281.598401 
L 329.861109 284.954864 
L 330.064145 290.609097 
L 330.267181 286.276345 
L 330.470217 277.599165 
L 330.673253 286.73088 
L 330.876289 285.530116 
L 331.079325 288.019177 
L 331.282361 280.968362 
L 331.485397 280.798398 
L 331.688433 268.493267 
L 331.891469 279.46843 
L 332.297541 283.360948 
L 332.500576 280.670121 
L 332.703612 286.084634 
L 332.906648 282.440397 
L 333.109684 262.427302 
L 333.31272 274.274789 
L 333.515756 277.679297 
L 333.718792 268.793525 
L 333.921828 286.068029 
L 334.124864 282.13426 
L 334.3279 280.822957 
L 334.530936 282.549731 
L 334.733972 280.820412 
L 334.937008 271.584128 
L 335.140044 273.925782 
L 335.34308 284.536359 
L 335.749152 272.912542 
L 335.952188 282.16612 
L 336.35826 276.392258 
L 336.764332 290.209335 
L 336.967368 277.422191 
L 337.170404 277.351307 
L 337.37344 288.036871 
L 337.576476 282.493901 
L 337.779512 286.989275 
L 337.982548 283.076875 
L 338.185584 293.032852 
L 338.38862 285.974331 
L 338.591656 285.843381 
L 338.794692 275.882175 
L 338.997728 281.583412 
L 339.200764 269.771656 
L 339.4038 278.885788 
L 339.606836 279.041554 
L 339.809872 281.470624 
L 340.012908 272.422692 
L 340.215944 286.638154 
L 340.41898 290.839532 
L 340.825052 278.879959 
L 341.028088 277.621598 
L 341.231124 279.127701 
L 341.43416 284.126129 
L 341.637196 281.759183 
L 341.840232 292.663081 
L 342.246304 286.240513 
L 342.44934 280.170063 
L 342.855412 289.457016 
L 343.261484 270.598692 
L 343.46452 275.379811 
L 343.667556 288.184474 
L 343.870592 273.876857 
L 344.073628 284.556053 
L 344.276664 280.203001 
L 344.4797 281.623219 
L 344.885772 270.209622 
L 345.088808 267.569415 
L 345.291844 280.420518 
L 345.49488 284.654818 
L 345.697916 274.148938 
L 345.900952 273.411705 
L 346.103988 260.884163 
L 346.51006 282.74766 
L 346.916132 284.546329 
L 347.119168 283.371357 
L 347.322204 284.306457 
L 347.52524 273.383803 
L 347.728276 285.134516 
L 347.931312 281.182543 
L 348.134348 283.046951 
L 348.337384 280.775755 
L 348.54042 273.995451 
L 348.743456 281.148727 
L 348.946492 277.954427 
L 349.149528 284.676967 
L 349.352564 283.683348 
L 349.5556 277.221361 
L 349.758636 290.61548 
L 349.961671 277.725302 
L 350.164707 280.944017 
L 350.367743 277.773117 
L 350.570779 282.615461 
L 350.773815 283.114832 
L 350.976851 287.206224 
L 351.179887 278.695799 
L 351.382923 287.599824 
L 351.788995 279.735501 
L 351.992031 281.853206 
L 352.195067 280.435901 
L 352.398103 282.019536 
L 352.601139 284.601263 
L 352.804175 280.761558 
L 353.007211 289.720025 
L 353.413283 277.680464 
L 353.616319 275.758876 
L 353.819355 272.335996 
L 354.225427 281.644554 
L 354.428463 279.295085 
L 354.631499 286.497247 
L 354.834535 288.61217 
L 355.037571 277.584275 
L 355.240607 286.073367 
L 355.646679 277.129389 
L 355.849715 287.462354 
L 356.052751 287.169035 
L 356.458823 272.153754 
L 356.661859 289.344392 
L 357.270967 272.034896 
L 357.677039 283.557163 
L 358.083111 284.49315 
L 358.286147 289.393092 
L 358.489183 290.018464 
L 358.692219 277.151215 
L 358.895255 289.27078 
L 359.098291 287.805497 
L 359.301327 288.377162 
L 359.504363 284.812029 
L 359.707399 290.062402 
L 360.113471 282.908334 
L 360.316507 284.714362 
L 360.519543 288.494225 
L 360.722579 284.432436 
L 360.925615 283.78335 
L 361.128651 285.024133 
L 361.331687 279.685454 
L 361.534723 287.694354 
L 361.737759 278.873247 
L 361.940795 277.317604 
L 362.143831 273.589702 
L 362.346867 287.250846 
L 362.549903 276.851325 
L 362.752939 275.444516 
L 362.955975 286.733663 
L 363.159011 289.081508 
L 363.565083 277.134115 
L 363.768119 285.178969 
L 363.971155 286.267447 
L 364.174191 292.221058 
L 364.377227 274.481687 
L 364.580263 285.115622 
L 364.783299 284.511793 
L 364.986335 274.659221 
L 365.189371 284.837188 
L 365.595443 291.569862 
L 365.798479 283.105073 
L 366.001515 281.466117 
L 366.204551 284.361497 
L 366.407587 280.127312 
L 366.610623 292.602225 
L 366.813659 279.015831 
L 367.219731 274.115498 
L 367.422767 276.869585 
L 367.625802 277.893191 
L 367.828838 287.673468 
L 368.031874 282.149418 
L 368.437946 292.24638 
L 368.844018 280.397697 
L 369.047054 278.794965 
L 369.25009 287.045451 
L 369.453126 283.156687 
L 369.656162 276.014217 
L 369.859198 285.51747 
L 370.062234 281.039474 
L 370.26527 284.899288 
L 370.468306 272.802191 
L 370.671342 284.181179 
L 370.874378 282.544756 
L 371.077414 288.564619 
L 371.28045 286.06698 
L 371.483486 289.359651 
L 371.686522 289.278427 
L 371.889558 280.935179 
L 372.092594 277.337311 
L 372.29563 285.30163 
L 372.498666 266.898527 
L 372.701702 282.121032 
L 372.904738 275.543432 
L 373.107774 264.207182 
L 373.31081 284.86789 
L 373.513846 284.4132 
L 373.716882 287.310203 
L 373.919918 280.325411 
L 374.122954 284.581141 
L 374.32599 278.972438 
L 375.138134 291.116815 
L 375.34117 291.528591 
L 375.544206 281.214205 
L 375.747242 284.029255 
L 375.950278 289.363162 
L 376.153314 284.95226 
L 376.35635 274.73991 
L 376.559386 285.26574 
L 376.762422 281.798066 
L 376.965458 291.034799 
L 377.168494 282.269578 
L 377.37153 283.192987 
L 377.574566 288.63251 
L 377.777602 283.238274 
L 377.980638 285.855795 
L 378.183674 283.930942 
L 378.38671 286.239401 
L 378.589746 285.778802 
L 378.792782 284.764577 
L 378.995818 282.778211 
L 379.198854 286.591128 
L 379.604926 281.469083 
L 379.807962 290.824047 
L 380.214034 271.764419 
L 380.41707 289.305858 
L 380.823142 279.5352 
L 381.026178 285.508024 
L 381.229214 286.903991 
L 381.43225 272.79956 
L 381.635286 293.75162 
L 381.838322 284.585479 
L 382.041358 286.878635 
L 382.244394 283.187318 
L 382.44743 285.065888 
L 382.650466 289.953083 
L 383.056538 284.632883 
L 383.259574 289.7767 
L 383.46261 278.469056 
L 383.665646 282.705961 
L 383.868682 277.375126 
L 384.071718 285.293326 
L 384.274754 283.039099 
L 384.47779 282.249136 
L 384.883862 285.597958 
L 385.289933 295.488 
L 385.492969 289.046384 
L 385.696005 286.679154 
L 385.899041 287.31872 
L 386.102077 291.715676 
L 386.305113 277.623579 
L 386.508149 287.505941 
L 386.711185 290.995358 
L 387.117257 284.116337 
L 387.320293 277.072654 
L 387.523329 286.098121 
L 387.726365 282.924752 
L 387.929401 272.095438 
L 388.132437 289.729714 
L 388.538509 283.197377 
L 388.944581 290.047602 
L 389.147617 288.413742 
L 389.350653 287.945264 
L 389.553689 284.946833 
L 389.756725 279.126488 
L 389.959761 280.610733 
L 390.162797 279.650905 
L 390.365833 280.638783 
L 390.568869 280.454552 
L 390.771905 290.298849 
L 390.974941 287.638797 
L 391.177977 283.31189 
L 391.381013 276.496977 
L 391.584049 285.100274 
L 391.787085 285.832687 
L 391.990121 276.491706 
L 392.396193 287.281447 
L 392.599229 287.988139 
L 392.802265 276.684855 
L 393.005301 285.769095 
L 393.208337 289.25758 
L 393.411373 286.388279 
L 393.614409 287.532625 
L 393.817445 287.887654 
L 394.020481 289.766924 
L 394.223517 287.116909 
L 394.426553 277.295394 
L 394.629589 283.334142 
L 394.832625 285.925313 
L 395.035661 290.933109 
L 395.238697 288.9463 
L 395.441733 289.564761 
L 395.847805 274.364039 
L 396.050841 284.169347 
L 396.253877 283.074039 
L 396.659949 286.806425 
L 396.862985 288.720074 
L 397.066021 276.016351 
L 397.269057 277.664167 
L 397.675129 288.891826 
L 397.878165 274.881855 
L 398.081201 274.320616 
L 398.284237 287.048366 
L 398.487273 283.878286 
L 398.487273 283.878286 
" style="fill:none;stroke:#1f77b4;stroke-linecap:square;stroke-width:1.5;"/>
   </g>
   <g id="line2d_20">
    <path clip-path="url(#p25abefc0a5)" d="M 73.832727 106.822202 
L 74.035763 152.470256 
L 74.441835 123.666022 
L 74.644871 142.987586 
L 74.847907 145.931246 
L 75.050943 132.110809 
L 75.253979 127.933747 
L 75.457015 130.07287 
L 75.660051 127.804717 
L 75.863087 126.975847 
L 76.066123 114.34307 
L 76.269159 137.736178 
L 76.472195 134.708325 
L 76.675231 112.629974 
L 76.878267 104.453922 
L 77.081303 66.364361 
L 77.487375 142.359305 
L 77.690411 95.364486 
L 77.893447 127.69848 
L 78.096483 129.229218 
L 78.299519 99.272405 
L 78.705591 127.901682 
L 78.908627 125.602045 
L 79.314699 111.166046 
L 79.517735 132.846632 
L 79.720771 116.833864 
L 79.923807 126.417775 
L 80.126843 113.306186 
L 80.329879 121.030003 
L 80.532915 111.022534 
L 80.735951 126.029722 
L 80.938987 118.552572 
L 81.142023 105.17622 
L 81.345059 149.568377 
L 81.548095 114.550295 
L 81.751131 119.331469 
L 81.954167 136.445498 
L 82.157203 84.455471 
L 82.360239 113.630207 
L 82.563275 122.022317 
L 82.766311 118.141995 
L 82.969347 120.035227 
L 83.172383 123.691145 
L 83.375419 148.158538 
L 83.781491 112.906276 
L 83.984527 129.414246 
L 84.390599 112.548689 
L 84.593635 146.72691 
L 84.796671 109.203959 
L 84.999707 111.457086 
L 85.202743 124.465802 
L 85.405779 129.986106 
L 85.608815 127.237873 
L 85.811851 128.374609 
L 86.014887 136.291874 
L 86.217923 136.412629 
L 86.420959 123.188507 
L 86.623995 97.585456 
L 86.827031 139.184034 
L 87.030067 106.667597 
L 87.233103 106.470973 
L 87.436138 127.46586 
L 87.639174 102.090329 
L 87.84221 122.933152 
L 88.248282 134.909369 
L 88.451318 101.225672 
L 88.654354 93.254782 
L 88.85739 133.102135 
L 89.060426 111.36226 
L 89.263462 127.285461 
L 89.466498 96.845018 
L 89.669534 158.051416 
L 89.87257 111.670447 
L 90.075606 142.331752 
L 90.278642 120.464299 
L 90.481678 135.480756 
L 90.684714 129.223945 
L 90.88775 138.904755 
L 91.090786 121.759417 
L 91.293822 124.065248 
L 91.496858 132.741201 
L 91.699894 156.400717 
L 91.90293 90.084725 
L 92.105966 179.052209 
L 92.309002 121.530365 
L 92.512038 110.620646 
L 92.715074 127.083698 
L 92.91811 128.194103 
L 93.121146 73.975996 
L 93.324182 85.446135 
L 93.527218 128.726337 
L 93.730254 110.223124 
L 93.93329 145.132065 
L 94.136326 126.62368 
L 94.339362 126.886381 
L 94.542398 135.759193 
L 94.745434 152.082298 
L 94.94847 119.769685 
L 95.151506 115.722739 
L 95.354542 137.148046 
L 95.557578 130.772674 
L 95.760614 132.488813 
L 96.166686 107.767198 
L 96.369722 147.75778 
L 96.572758 127.430166 
L 96.775794 126.551844 
L 97.181866 123.282016 
L 97.384902 140.241395 
L 97.587938 99.683274 
L 97.790974 115.119813 
L 97.99401 142.542028 
L 98.197046 116.475438 
L 98.400082 119.464932 
L 98.603118 126.205215 
L 98.806154 119.30153 
L 99.00919 153.021498 
L 99.212226 126.594046 
L 99.415262 139.843843 
L 99.618298 116.679323 
L 99.821334 134.252079 
L 100.02437 106.093385 
L 100.227406 93.690489 
L 100.430442 115.285798 
L 100.633478 110.965294 
L 100.836514 141.564876 
L 101.03955 133.137155 
L 101.242586 145.321443 
L 101.445622 140.025397 
L 101.648658 121.556235 
L 101.851694 127.645812 
L 102.05473 110.138905 
L 102.257766 139.794756 
L 102.663838 120.478852 
L 102.866874 147.478606 
L 103.272946 131.892067 
L 103.475982 103.168022 
L 103.679018 139.609228 
L 103.882054 104.166402 
L 104.08509 135.108361 
L 104.288126 103.112794 
L 104.694198 131.750424 
L 104.897233 106.224445 
L 105.100269 110.5817 
L 105.303305 144.289407 
L 105.709377 114.454673 
L 105.912413 123.299185 
L 106.115449 138.019245 
L 106.318485 136.50139 
L 106.521521 124.486438 
L 106.724557 162.070463 
L 106.927593 131.373094 
L 107.130629 126.462854 
L 107.333665 138.277478 
L 107.536701 142.65588 
L 107.739737 157.174399 
L 107.942773 159.818084 
L 108.145809 120.711029 
L 108.754917 143.836207 
L 109.160989 135.819213 
L 109.364025 144.405704 
L 109.567061 133.91153 
L 109.770097 131.673518 
L 109.973133 112.498791 
L 110.176169 141.067525 
L 110.379205 131.730115 
L 110.785277 156.269782 
L 110.988313 138.23362 
L 111.191349 139.567939 
L 111.394385 123.767802 
L 111.597421 171.438023 
L 111.800457 136.907207 
L 112.003493 155.519548 
L 112.206529 118.679301 
L 112.409565 152.070315 
L 112.612601 124.970175 
L 112.815637 146.844475 
L 113.018673 117.274161 
L 113.221709 131.608649 
L 113.424745 167.829121 
L 113.627781 133.259738 
L 113.830817 146.031853 
L 114.033853 131.656604 
L 114.236889 153.721229 
L 114.439925 124.043326 
L 114.642961 166.422469 
L 114.845997 150.841778 
L 115.049033 159.578023 
L 115.252069 152.023897 
L 115.455105 158.944579 
L 115.658141 155.524758 
L 115.861177 157.965958 
L 116.267249 145.081698 
L 116.673321 158.508256 
L 116.876357 148.764209 
L 117.079393 162.618235 
L 117.282429 139.175502 
L 117.485465 130.799684 
L 117.688501 157.45148 
L 117.891537 141.834041 
L 118.094573 156.376577 
L 118.297609 153.377582 
L 118.500645 114.097126 
L 118.703681 135.970671 
L 118.906717 131.776222 
L 119.109753 157.0537 
L 119.312789 138.574513 
L 119.515825 174.279771 
L 119.718861 144.878272 
L 119.921897 160.39476 
L 120.124933 141.415763 
L 120.327969 174.152924 
L 120.531005 157.064842 
L 120.734041 186.262083 
L 121.140113 155.867287 
L 121.343149 153.193279 
L 121.546185 146.241081 
L 121.749221 157.190467 
L 121.952257 178.24383 
L 122.155293 172.455395 
L 122.358329 157.654228 
L 122.561364 157.930222 
L 122.7644 178.406549 
L 122.967436 153.07214 
L 123.170472 164.541067 
L 123.576544 160.896196 
L 123.77958 150.955599 
L 123.982616 125.044021 
L 124.185652 162.868147 
L 124.388688 154.777247 
L 124.591724 152.567876 
L 124.79476 163.40535 
L 124.997796 161.778304 
L 125.200832 171.597266 
L 125.403868 161.616411 
L 125.606904 168.857605 
L 125.80994 154.852434 
L 126.012976 152.992991 
L 126.216012 155.952067 
L 126.419048 182.188436 
L 126.622084 175.594948 
L 126.82512 164.724974 
L 127.028156 169.372872 
L 127.231192 169.40096 
L 127.434228 156.814685 
L 127.637264 173.123256 
L 128.043336 148.240109 
L 128.246372 178.291954 
L 128.449408 153.126606 
L 128.652444 179.994077 
L 128.85548 179.920788 
L 129.058516 147.763145 
L 129.261552 175.566282 
L 129.464588 159.654045 
L 129.667624 175.769378 
L 129.87066 177.982779 
L 130.276732 166.493921 
L 130.682804 179.481082 
L 130.88584 166.181225 
L 131.088876 175.611564 
L 131.291912 171.25494 
L 131.494948 174.828442 
L 131.697984 166.063414 
L 131.90102 170.447681 
L 132.104056 169.904599 
L 132.307092 168.119543 
L 132.510128 155.463179 
L 132.713164 180.145852 
L 132.9162 172.601317 
L 133.119236 188.020806 
L 133.322272 186.454512 
L 133.525308 183.180449 
L 133.728344 172.765661 
L 133.93138 174.629869 
L 134.134416 188.492094 
L 134.337452 176.440153 
L 134.540488 180.242598 
L 134.743524 198.607022 
L 134.94656 184.77219 
L 135.149596 184.102469 
L 135.352632 179.792538 
L 135.555668 187.427348 
L 136.164776 158.635211 
L 136.570848 187.255231 
L 136.773884 173.066062 
L 136.97692 172.768076 
L 137.179956 176.087435 
L 137.586028 165.677876 
L 137.789064 168.208269 
L 137.9921 191.274828 
L 138.195136 183.099416 
L 138.398172 169.488164 
L 138.601208 184.813636 
L 138.804244 183.441159 
L 139.00728 180.82077 
L 139.210316 164.075527 
L 139.413352 169.20721 
L 139.616388 183.181571 
L 139.819424 151.970372 
L 140.022459 166.578647 
L 140.225495 160.605886 
L 140.428531 176.960496 
L 140.631567 158.629327 
L 140.834603 165.169408 
L 141.037639 166.959793 
L 141.240675 166.002484 
L 141.443711 194.005915 
L 141.849783 159.792564 
L 142.052819 184.642817 
L 142.255855 164.925001 
L 142.458891 168.219476 
L 142.661927 184.716754 
L 142.864963 159.401483 
L 143.067999 167.701126 
L 143.271035 185.696774 
L 143.474071 175.08449 
L 143.677107 173.205625 
L 143.880143 157.76751 
L 144.083179 170.206586 
L 144.286215 168.1756 
L 144.692287 174.74618 
L 144.895323 171.234564 
L 145.098359 165.497801 
L 145.301395 175.720218 
L 145.504431 175.188247 
L 145.707467 171.036361 
L 145.910503 155.005353 
L 146.113539 182.8817 
L 146.316575 183.48565 
L 146.519611 198.933501 
L 146.722647 164.266651 
L 146.925683 150.837093 
L 147.331755 198.506018 
L 147.534791 169.347362 
L 147.737827 177.825537 
L 148.143899 170.927491 
L 148.346935 179.50589 
L 148.549971 181.777489 
L 148.753007 186.066304 
L 149.159079 171.392719 
L 149.565151 186.215661 
L 149.768187 154.793901 
L 149.971223 196.855606 
L 150.377295 170.984338 
L 150.580331 182.786905 
L 150.783367 174.319828 
L 150.986403 187.186084 
L 151.189439 175.601759 
L 151.392475 175.108002 
L 151.595511 184.565191 
L 151.798547 172.246022 
L 152.001583 167.138067 
L 152.204619 185.706946 
L 152.407655 169.249884 
L 152.610691 191.389353 
L 152.813727 171.529031 
L 153.016763 192.188644 
L 153.422835 173.931761 
L 153.828907 180.603743 
L 154.031943 187.052913 
L 154.234979 184.717343 
L 154.438015 186.67676 
L 154.641051 179.444447 
L 154.844087 192.301389 
L 155.047123 166.603993 
L 155.453195 192.306677 
L 155.656231 174.234912 
L 155.859267 208.713099 
L 156.062303 163.285459 
L 156.265339 189.344738 
L 156.468375 163.461865 
L 156.671411 172.138902 
L 156.874447 155.686586 
L 157.077483 185.59998 
L 157.280519 159.091181 
L 157.483554 183.798617 
L 157.68659 153.95647 
L 157.889626 176.037382 
L 158.092662 154.926812 
L 158.498734 183.021506 
L 158.70177 160.749165 
L 158.904806 167.179456 
L 159.107842 155.179142 
L 159.310878 184.041635 
L 159.513914 175.909314 
L 159.71695 178.762365 
L 159.919986 143.537051 
L 160.123022 173.260601 
L 160.326058 178.469389 
L 160.529094 177.128385 
L 160.73213 179.658062 
L 160.935166 158.406032 
L 161.138202 187.084635 
L 161.341238 185.165649 
L 161.544274 163.406079 
L 161.74731 178.706684 
L 161.950346 178.705279 
L 162.153382 189.035029 
L 162.356418 158.930618 
L 162.559454 170.395807 
L 162.76249 160.986241 
L 163.168562 186.970203 
L 163.371598 163.237963 
L 163.574634 186.595719 
L 163.77767 165.094497 
L 163.980706 166.689122 
L 164.183742 170.983922 
L 164.386778 179.456559 
L 164.589814 167.929645 
L 164.79285 173.774172 
L 164.995886 170.456864 
L 165.198922 173.446527 
L 165.401958 168.957358 
L 165.604994 157.347747 
L 165.80803 184.815631 
L 166.011066 162.943622 
L 166.214102 175.924942 
L 166.417138 158.818078 
L 166.82321 193.573705 
L 167.026246 177.488993 
L 167.229282 183.122696 
L 167.432318 182.19685 
L 167.635354 172.172854 
L 167.83839 179.034928 
L 168.041426 162.042639 
L 168.244462 207.118625 
L 168.447498 151.115745 
L 168.650534 173.435173 
L 168.85357 146.890203 
L 169.056606 171.27071 
L 169.259642 177.468868 
L 169.462678 147.412344 
L 169.665714 181.507519 
L 169.86875 183.467271 
L 170.071786 170.552058 
L 170.274822 176.588651 
L 170.477858 193.106076 
L 170.680894 171.673651 
L 170.88393 166.405574 
L 171.086966 181.533091 
L 171.290002 154.704448 
L 171.493038 172.168211 
L 171.696074 170.14084 
L 171.89911 172.322954 
L 172.102146 187.172717 
L 172.305182 190.776342 
L 172.711254 146.401877 
L 173.117326 184.93295 
L 173.320362 189.65581 
L 173.523398 166.761298 
L 173.92947 174.012811 
L 174.132506 158.97842 
L 174.335542 180.148445 
L 174.538578 165.895939 
L 174.741614 163.641122 
L 175.350721 169.0859 
L 175.553757 154.912206 
L 175.756793 175.5633 
L 175.959829 176.825709 
L 176.162865 143.101075 
L 176.365901 174.694895 
L 176.568937 174.90587 
L 176.771973 158.945676 
L 176.975009 162.310315 
L 177.178045 186.803957 
L 177.381081 168.771079 
L 177.584117 164.285343 
L 177.787153 171.186029 
L 177.990189 187.246959 
L 178.193225 185.159401 
L 178.599297 172.696885 
L 178.802333 172.501804 
L 179.005369 159.549136 
L 179.208405 167.460986 
L 179.411441 155.169873 
L 179.614477 164.225214 
L 179.817513 161.639207 
L 180.020549 184.54079 
L 180.223585 150.454568 
L 180.426621 161.591631 
L 180.629657 159.975569 
L 180.832693 161.676725 
L 181.035729 143.571889 
L 181.238765 157.589189 
L 181.441801 159.55904 
L 181.644837 164.694539 
L 181.847873 173.440771 
L 182.050909 175.21996 
L 182.253945 170.402395 
L 182.660017 173.564184 
L 182.863053 183.461496 
L 183.066089 205.041111 
L 183.269125 185.150721 
L 183.472161 198.849202 
L 183.675197 171.666841 
L 183.878233 162.445056 
L 184.284305 158.352046 
L 184.487341 169.937903 
L 184.690377 160.292322 
L 184.893413 168.516632 
L 185.502521 153.537325 
L 185.908593 162.643655 
L 186.111629 169.861937 
L 186.314665 160.573867 
L 186.517701 175.362246 
L 186.720737 175.435064 
L 186.923773 172.634348 
L 187.126809 161.582866 
L 187.329845 139.477777 
L 187.532881 176.324336 
L 187.735917 169.451041 
L 187.938953 189.582818 
L 188.141989 184.999778 
L 188.345025 183.607365 
L 188.548061 157.367274 
L 188.751097 177.260876 
L 188.954133 168.937464 
L 189.157169 182.064146 
L 189.360205 178.024707 
L 189.563241 184.056572 
L 189.766277 147.237893 
L 190.172349 170.777161 
L 190.375385 174.902504 
L 190.578421 159.063324 
L 190.984493 164.039395 
L 191.187529 173.527739 
L 191.390565 161.663719 
L 191.593601 159.410319 
L 191.796637 145.41295 
L 191.999673 171.640652 
L 192.202709 171.288519 
L 192.405744 167.532726 
L 192.60878 150.715921 
L 192.811816 175.491125 
L 193.014852 165.354335 
L 193.217888 177.105705 
L 193.420924 160.714134 
L 193.62396 167.589306 
L 193.826996 168.034413 
L 194.030032 171.59132 
L 194.233068 151.635279 
L 194.436104 168.193308 
L 194.63914 157.701905 
L 194.842176 184.088081 
L 195.045212 195.087737 
L 195.248248 188.201561 
L 195.451284 185.9919 
L 195.65432 168.343283 
L 195.857356 170.80821 
L 196.060392 157.418733 
L 196.263428 177.348401 
L 196.466464 152.244214 
L 196.6695 156.999417 
L 196.872536 166.39897 
L 197.075572 156.62258 
L 197.278608 184.413137 
L 197.481644 156.164113 
L 197.68468 167.175534 
L 197.887716 153.77222 
L 198.090752 161.222566 
L 198.293788 157.659377 
L 198.496824 142.93759 
L 198.69986 190.728032 
L 199.105932 156.9832 
L 199.308968 172.55781 
L 199.512004 147.147707 
L 199.71504 150.465931 
L 199.918076 146.748468 
L 200.121112 152.986022 
L 200.324148 138.920382 
L 200.527184 179.150323 
L 200.73022 173.582293 
L 200.933256 181.432628 
L 201.136292 154.228625 
L 201.339328 178.726302 
L 201.542364 162.092875 
L 201.7454 168.917695 
L 201.948436 184.90411 
L 202.151472 155.273914 
L 202.354508 166.096189 
L 202.557544 168.845925 
L 202.963616 146.302163 
L 203.166652 153.077283 
L 203.369688 169.631253 
L 203.572724 152.117984 
L 203.77576 145.864316 
L 203.978796 169.768404 
L 204.181832 174.982135 
L 204.384868 155.958001 
L 204.587904 180.928708 
L 204.79094 157.711668 
L 205.197012 171.034545 
L 205.400048 152.484518 
L 205.603084 162.42793 
L 205.80612 157.284031 
L 206.009156 160.515307 
L 206.212192 173.448009 
L 206.415228 145.728578 
L 206.618264 186.765594 
L 206.8213 141.172022 
L 207.024336 143.994385 
L 207.227372 136.640697 
L 207.430408 152.725271 
L 207.633444 121.739317 
L 207.83648 133.948329 
L 208.039516 152.918144 
L 208.242552 189.403193 
L 208.445588 188.082075 
L 208.648624 166.260189 
L 208.85166 124.631274 
L 209.257732 173.268841 
L 209.460768 137.686647 
L 209.663804 151.005668 
L 209.86684 180.453819 
L 210.272911 129.348304 
L 210.475947 148.929463 
L 210.678983 133.89739 
L 210.882019 159.642793 
L 211.085055 135.34036 
L 211.288091 161.875103 
L 211.491127 167.086282 
L 211.694163 159.780119 
L 211.897199 169.83179 
L 212.100235 161.221197 
L 212.303271 178.284795 
L 212.506307 176.80322 
L 212.912379 137.363281 
L 213.115415 164.374704 
L 213.318451 154.961385 
L 213.521487 157.083526 
L 213.724523 184.559172 
L 213.927559 148.021116 
L 214.130595 174.099859 
L 214.333631 151.789547 
L 214.536667 173.510061 
L 214.739703 157.359462 
L 214.942739 173.186669 
L 215.145775 167.604464 
L 215.348811 180.835722 
L 215.551847 161.534075 
L 215.754883 161.179345 
L 215.957919 166.907499 
L 216.160955 164.724965 
L 216.567027 171.309821 
L 216.770063 144.853476 
L 216.973099 140.517317 
L 217.176135 163.48094 
L 217.379171 133.555549 
L 217.582207 135.918686 
L 217.785243 168.984052 
L 217.988279 152.153588 
L 218.191315 170.420792 
L 218.394351 170.166486 
L 218.597387 168.083349 
L 218.800423 173.034377 
L 219.003459 192.274204 
L 219.409531 163.138468 
L 219.612567 156.954261 
L 219.815603 180.923207 
L 220.018639 140.324601 
L 220.221675 185.936316 
L 220.424711 131.75768 
L 220.627747 180.464262 
L 221.033819 144.650715 
L 221.236855 183.854968 
L 221.439891 173.363528 
L 221.642927 185.530805 
L 222.048999 157.444494 
L 222.252035 173.878787 
L 222.455071 176.350635 
L 222.861143 155.245905 
L 223.064179 163.71888 
L 223.267215 153.109136 
L 223.470251 175.042425 
L 223.876323 124.996401 
L 224.079359 158.857988 
L 224.282395 155.96135 
L 224.485431 198.093586 
L 224.688467 153.22484 
L 224.891503 161.466718 
L 225.094539 190.127758 
L 225.297575 165.596475 
L 225.500611 163.919585 
L 225.703647 157.349023 
L 225.906683 158.296951 
L 226.109719 132.196622 
L 226.312755 123.639328 
L 226.515791 164.513088 
L 226.718827 119.570329 
L 226.921863 171.351707 
L 227.327935 134.822649 
L 227.53097 162.947272 
L 227.734006 154.563916 
L 227.937042 198.00264 
L 228.140078 135.521688 
L 228.343114 181.41764 
L 228.54615 144.080419 
L 228.749186 147.212419 
L 228.952222 155.550009 
L 229.155258 158.565676 
L 229.358294 173.454869 
L 229.56133 153.908756 
L 229.764366 170.827118 
L 229.967402 170.076414 
L 230.373474 163.285214 
L 230.57651 164.084343 
L 230.779546 156.086577 
L 230.982582 143.197608 
L 231.185618 161.389717 
L 231.388654 132.747296 
L 231.59169 163.635417 
L 231.794726 131.480799 
L 231.997762 161.625853 
L 232.200798 140.525945 
L 232.403834 175.817932 
L 232.60687 125.026374 
L 232.809906 139.785636 
L 233.012942 126.225554 
L 233.215978 156.627307 
L 233.419014 151.316079 
L 233.62205 158.243935 
L 233.825086 148.454512 
L 234.028122 151.577483 
L 234.231158 128.869893 
L 234.434194 146.298804 
L 234.63723 151.990991 
L 234.840266 161.857822 
L 235.043302 154.660829 
L 235.246338 153.615166 
L 235.449374 172.236854 
L 235.65241 150.579631 
L 235.855446 166.014935 
L 236.058482 171.271458 
L 236.261518 127.085423 
L 236.464554 116.628364 
L 236.66759 151.756978 
L 236.870626 156.338707 
L 237.073662 153.331254 
L 237.276698 179.580538 
L 237.479734 138.374873 
L 238.088842 164.465114 
L 238.291878 157.292841 
L 238.494914 155.764039 
L 238.900986 166.116192 
L 239.307058 155.325706 
L 239.510094 154.738468 
L 239.71313 154.66765 
L 239.916166 147.038805 
L 240.119202 158.144501 
L 240.322238 147.343801 
L 240.525274 152.019413 
L 240.72831 132.072899 
L 240.931346 148.412187 
L 241.134382 190.714611 
L 241.337418 143.264216 
L 241.540454 163.584834 
L 241.74349 153.673156 
L 241.946526 138.076349 
L 242.555634 166.117486 
L 242.75867 138.102527 
L 242.961706 166.971378 
L 243.367778 146.42622 
L 243.570814 147.144138 
L 243.77385 169.597667 
L 243.976886 164.0053 
L 244.179922 131.876321 
L 244.382958 172.842728 
L 244.585994 180.711216 
L 244.78903 159.52607 
L 244.992065 180.003719 
L 245.195101 173.015571 
L 245.398137 182.732704 
L 245.601173 153.4574 
L 245.804209 183.671695 
L 246.007245 123.20611 
L 246.210281 153.449407 
L 246.413317 155.31021 
L 246.616353 144.892042 
L 246.819389 163.683519 
L 247.022425 160.048254 
L 247.225461 163.959126 
L 247.428497 172.517148 
L 247.631533 159.258021 
L 247.834569 133.259436 
L 248.240641 125.32715 
L 248.443677 143.887619 
L 248.646713 145.369616 
L 248.849749 136.300204 
L 249.052785 156.253975 
L 249.255821 145.57516 
L 249.458857 158.727554 
L 249.661893 146.24434 
L 249.864929 168.822465 
L 250.067965 173.813539 
L 250.271001 169.126707 
L 250.474037 181.113455 
L 250.677073 180.268014 
L 250.880109 176.019918 
L 251.083145 136.152795 
L 251.286181 138.376371 
L 251.489217 131.953388 
L 251.895289 149.998299 
L 252.098325 178.706923 
L 252.301361 133.362667 
L 252.707433 142.960133 
L 252.910469 175.920803 
L 253.113505 175.880911 
L 253.519577 157.701598 
L 253.722613 127.953335 
L 253.925649 163.241678 
L 254.128685 166.576765 
L 254.331721 164.93068 
L 254.534757 142.374047 
L 254.940829 173.236933 
L 255.143865 121.783633 
L 255.346901 135.438624 
L 255.549937 75.614603 
L 256.159045 184.788173 
L 256.362081 180.76898 
L 256.565117 198.663206 
L 256.768153 168.55523 
L 256.971189 174.807127 
L 257.377261 161.195044 
L 257.580297 166.58739 
L 257.783333 132.382044 
L 257.986369 168.24829 
L 258.189405 161.195337 
L 258.595477 176.960576 
L 258.798513 170.855092 
L 259.001549 190.725938 
L 259.204585 142.088858 
L 259.407621 140.969695 
L 259.610657 154.195385 
L 259.813693 176.671964 
L 260.016729 127.906978 
L 260.422801 164.559569 
L 260.625837 168.593927 
L 260.828873 168.770349 
L 261.234945 107.269201 
L 261.437981 162.434947 
L 261.844053 142.239719 
L 262.047089 176.627812 
L 262.250125 156.013472 
L 262.45316 163.726497 
L 262.656196 150.416539 
L 262.859232 175.913879 
L 263.062268 156.975372 
L 263.671376 148.324923 
L 263.874412 153.519229 
L 264.280484 128.567233 
L 264.48352 152.542763 
L 264.686556 137.905622 
L 264.889592 167.629043 
L 265.092628 157.57466 
L 265.295664 169.516757 
L 265.4987 173.058833 
L 265.701736 141.134343 
L 265.904772 153.627777 
L 266.310844 147.584456 
L 266.716916 137.542479 
L 266.919952 142.774072 
L 267.122988 161.022083 
L 267.326024 164.310025 
L 267.732096 153.693638 
L 267.935132 173.145225 
L 268.341204 135.308344 
L 268.54424 136.431549 
L 268.747276 174.594473 
L 268.950312 175.271311 
L 269.153348 147.930232 
L 269.356384 164.710348 
L 269.55942 134.581474 
L 269.762456 163.861783 
L 269.965492 152.745616 
L 270.168528 169.844999 
L 270.371564 168.091827 
L 270.5746 154.949477 
L 270.777636 151.578807 
L 270.980672 159.162998 
L 271.183708 178.954264 
L 271.386744 142.078067 
L 271.58978 156.392605 
L 271.995852 151.89899 
L 272.198888 178.606986 
L 272.401924 155.733108 
L 272.60496 163.268053 
L 272.807996 129.077224 
L 273.011032 143.948174 
L 273.417104 152.237946 
L 273.62014 129.588987 
L 273.823176 175.091859 
L 274.026212 177.681875 
L 274.229248 156.376934 
L 274.63532 142.540772 
L 274.838356 161.038052 
L 275.041392 121.071681 
L 275.244428 132.846162 
L 275.447464 184.465414 
L 275.6505 142.862966 
L 275.853536 157.496997 
L 276.056572 182.6479 
L 276.462644 132.769807 
L 276.868716 164.840304 
L 277.071752 152.629372 
L 277.274788 170.637866 
L 277.477824 146.283458 
L 277.68086 181.252737 
L 277.883896 138.550278 
L 278.086932 140.828352 
L 278.289968 155.607257 
L 278.69604 146.469601 
L 278.899076 174.867576 
L 279.305148 147.070454 
L 279.508184 144.721792 
L 279.71122 159.283398 
L 280.117291 117.369932 
L 280.320327 156.054501 
L 280.523363 138.827436 
L 280.726399 148.166447 
L 280.929435 165.123424 
L 281.132471 162.672341 
L 281.335507 166.751241 
L 281.538543 146.251659 
L 281.741579 141.387604 
L 282.147651 189.458048 
L 282.350687 133.699974 
L 282.553723 149.365587 
L 282.756759 144.117253 
L 282.959795 176.967684 
L 283.162831 162.088754 
L 283.365867 166.503474 
L 283.568903 177.289779 
L 283.974975 141.871191 
L 284.178011 142.988694 
L 284.381047 165.465198 
L 284.584083 148.181925 
L 284.787119 142.495854 
L 284.990155 150.354386 
L 285.193191 130.461312 
L 285.396227 147.397725 
L 285.599263 147.69016 
L 286.005335 137.075279 
L 286.208371 142.65604 
L 286.411407 166.769632 
L 286.614443 126.669874 
L 286.817479 129.992087 
L 287.020515 154.164022 
L 287.223551 155.408337 
L 287.426587 137.839159 
L 287.832659 152.894187 
L 288.035695 152.396378 
L 288.238731 118.669493 
L 288.441767 144.378631 
L 288.644803 129.605912 
L 288.847839 134.910331 
L 289.050875 118.685673 
L 289.253911 160.383774 
L 289.456947 139.476852 
L 289.863019 149.033119 
L 290.066055 146.91349 
L 290.269091 149.608857 
L 290.472127 190.22341 
L 290.878199 147.656999 
L 291.081235 170.602452 
L 291.284271 163.453405 
L 291.487307 176.446184 
L 291.893379 128.45205 
L 292.096415 144.962357 
L 292.299451 148.619668 
L 292.502487 137.541531 
L 292.705523 174.57661 
L 292.908559 134.813393 
L 293.111595 138.789151 
L 293.314631 149.582889 
L 293.517667 116.309218 
L 293.720703 135.150635 
L 293.923739 124.870305 
L 294.126775 160.60377 
L 294.329811 166.909498 
L 294.532847 159.253447 
L 294.938919 123.099535 
L 295.141955 122.160032 
L 295.344991 140.838994 
L 295.548027 144.804732 
L 295.751063 122.55468 
L 295.954099 144.878108 
L 296.157135 133.783312 
L 296.360171 169.644097 
L 296.563207 139.814828 
L 296.766243 142.700868 
L 296.969279 143.881676 
L 297.375351 150.207325 
L 297.578386 139.535642 
L 297.781422 140.978828 
L 297.984458 174.493958 
L 298.39053 129.113797 
L 298.593566 131.244776 
L 298.796602 157.874733 
L 298.999638 154.179286 
L 299.202674 142.086109 
L 299.40571 160.06099 
L 299.608746 154.765631 
L 299.811782 129.523453 
L 300.014818 83.392348 
L 300.217854 147.484253 
L 300.42089 138.799126 
L 300.623926 100.249745 
L 300.826962 98.181442 
L 301.029998 126.24035 
L 301.233034 138.198416 
L 301.43607 182.303777 
L 301.842142 119.496824 
L 302.045178 136.843064 
L 302.248214 128.433679 
L 302.45125 107.291291 
L 302.654286 164.705909 
L 302.857322 169.92459 
L 303.060358 152.493951 
L 303.263394 149.629826 
L 303.669466 121.301549 
L 303.872502 138.601746 
L 304.075538 165.591047 
L 304.278574 173.654312 
L 304.48161 134.776838 
L 304.684646 155.090118 
L 304.887682 163.51672 
L 305.090718 134.230911 
L 305.293754 140.812117 
L 305.49679 116.539609 
L 305.699826 164.042617 
L 305.902862 141.209909 
L 306.105898 164.392274 
L 306.308934 157.391867 
L 306.51197 126.972618 
L 306.715006 163.11061 
L 306.918042 159.357589 
L 307.324114 139.947327 
L 307.52715 149.935752 
L 307.730186 145.537524 
L 307.933222 156.228621 
L 308.136258 133.932607 
L 308.339294 136.128276 
L 308.54233 156.513208 
L 308.745366 150.411899 
L 308.948402 159.443456 
L 309.151438 159.68152 
L 309.354474 118.876923 
L 309.55751 148.785384 
L 309.760546 149.357255 
L 309.963582 130.924718 
L 310.166618 132.35759 
L 310.57269 150.840354 
L 310.775726 169.318001 
L 310.978762 134.808649 
L 311.181798 165.311983 
L 311.384834 148.326497 
L 311.58787 172.423949 
L 311.790906 163.205736 
L 311.993942 53.568 
L 312.196978 143.414556 
L 312.400014 169.310536 
L 312.60305 155.135261 
L 312.806086 172.740015 
L 313.009122 137.753289 
L 313.212158 179.528415 
L 313.415194 142.550334 
L 313.61823 133.998138 
L 313.821266 132.697987 
L 314.024302 146.881116 
L 314.227338 142.063587 
L 314.430374 169.716505 
L 314.63341 140.910761 
L 314.836446 171.320758 
L 315.039481 131.979878 
L 315.242517 148.107626 
L 315.445553 122.917662 
L 315.648589 170.566677 
L 315.851625 130.583806 
L 316.054661 156.502492 
L 316.257697 164.321885 
L 316.460733 156.623217 
L 316.663769 136.195864 
L 316.866805 140.353384 
L 317.069841 137.883791 
L 317.272877 144.630656 
L 317.475913 147.041694 
L 317.678949 117.233743 
L 317.881985 159.491362 
L 318.085021 145.236798 
L 318.288057 161.891209 
L 318.491093 135.598045 
L 318.694129 136.890584 
L 318.897165 160.522226 
L 319.100201 138.896021 
L 319.506273 143.837298 
L 319.709309 130.620537 
L 319.912345 142.418963 
L 320.115381 130.798088 
L 320.318417 179.976347 
L 320.521453 143.421237 
L 320.724489 171.366071 
L 321.130561 149.255762 
L 321.536633 173.180771 
L 321.739669 166.267635 
L 321.942705 166.245793 
L 322.145741 149.11882 
L 322.348777 166.688812 
L 322.551813 149.92243 
L 322.754849 146.115216 
L 322.957885 163.619189 
L 323.160921 144.686926 
L 323.363957 162.93048 
L 323.566993 128.041131 
L 323.973065 169.613852 
L 324.176101 121.320377 
L 324.379137 125.155766 
L 324.582173 113.417137 
L 324.785209 124.909907 
L 324.988245 158.628558 
L 325.191281 116.474081 
L 325.394317 186.423956 
L 325.800389 141.941798 
L 326.003425 179.76512 
L 326.206461 106.393476 
L 326.409497 146.502907 
L 326.612533 155.521348 
L 326.815569 190.198633 
L 327.018605 132.852631 
L 327.221641 164.200471 
L 327.627713 141.771455 
L 327.830749 154.597016 
L 328.033785 147.013996 
L 328.236821 151.126077 
L 328.439857 122.085845 
L 328.642893 137.532984 
L 328.845929 169.008873 
L 329.048965 119.76627 
L 329.252001 152.765033 
L 329.658073 150.33212 
L 329.861109 140.146712 
L 330.064145 106.71316 
L 330.267181 154.45276 
L 330.470217 167.483262 
L 330.673253 153.542532 
L 330.876289 154.509155 
L 331.079325 159.069934 
L 331.282361 134.270667 
L 331.485397 138.041415 
L 331.688433 139.335009 
L 331.891469 188.740074 
L 332.297541 139.483334 
L 332.500576 157.179062 
L 332.703612 140.248329 
L 333.109684 153.02517 
L 333.31272 154.467786 
L 333.515756 130.426388 
L 333.718792 131.472242 
L 333.921828 175.027879 
L 334.3279 138.119248 
L 334.530936 155.357001 
L 334.733972 132.292201 
L 334.937008 157.545254 
L 335.140044 159.374288 
L 335.34308 146.124969 
L 335.952188 175.537584 
L 336.155224 154.669173 
L 336.35826 166.436434 
L 336.561296 143.299751 
L 336.764332 151.526052 
L 336.967368 143.099641 
L 337.170404 169.856893 
L 337.37344 171.982517 
L 337.779512 153.418243 
L 337.982548 158.998839 
L 338.185584 154.102947 
L 338.38862 163.283353 
L 338.591656 140.392084 
L 338.794692 153.165936 
L 338.997728 141.457502 
L 339.200764 143.347809 
L 339.4038 158.411525 
L 339.606836 162.363255 
L 339.809872 160.488053 
L 340.012908 154.366724 
L 340.41898 124.542611 
L 340.622016 121.356294 
L 340.825052 157.217954 
L 341.028088 129.108785 
L 341.231124 143.789426 
L 341.43416 121.045072 
L 341.637196 133.114957 
L 341.840232 174.459199 
L 342.043268 140.402128 
L 342.246304 133.366288 
L 342.44934 130.503925 
L 342.652376 148.541529 
L 342.855412 150.338694 
L 343.058448 136.237834 
L 343.261484 131.435422 
L 343.46452 167.232537 
L 343.667556 170.447421 
L 344.073628 132.299928 
L 344.4797 148.373017 
L 344.682736 127.371366 
L 344.885772 180.524566 
L 345.291844 121.588449 
L 345.49488 152.287312 
L 345.697916 143.751648 
L 345.900952 151.357729 
L 346.307024 124.953391 
L 346.51006 187.947623 
L 346.713096 134.431389 
L 346.916132 154.369355 
L 347.119168 149.138271 
L 347.322204 135.099509 
L 347.52524 146.123784 
L 347.931312 150.021417 
L 348.134348 171.163657 
L 348.337384 173.095606 
L 348.743456 137.181749 
L 348.946492 168.314253 
L 349.149528 122.118222 
L 349.352564 159.664069 
L 349.5556 164.215981 
L 349.758636 147.74253 
L 349.961671 117.864015 
L 350.164707 150.442558 
L 350.367743 147.790852 
L 350.570779 128.921974 
L 350.773815 144.851829 
L 350.976851 117.650599 
L 351.179887 139.16795 
L 351.382923 129.936158 
L 351.585959 132.19904 
L 351.788995 138.199093 
L 351.992031 163.052976 
L 352.195067 144.917774 
L 352.398103 149.322413 
L 352.601139 137.160793 
L 352.804175 161.26407 
L 353.007211 165.857275 
L 353.210247 126.233533 
L 353.616319 145.831492 
L 353.819355 140.831829 
L 354.022391 164.296147 
L 354.225427 148.062894 
L 354.428463 151.080785 
L 354.631499 125.380432 
L 354.834535 135.700983 
L 355.037571 156.562063 
L 355.443643 102.282641 
L 355.646679 143.774166 
L 355.849715 138.856823 
L 356.052751 179.145877 
L 356.661859 138.887131 
L 356.864895 108.871361 
L 357.270967 166.162578 
L 357.474003 153.517102 
L 357.677039 149.567219 
L 357.880075 128.509124 
L 358.083111 178.417433 
L 358.286147 117.363892 
L 358.692219 177.375437 
L 359.098291 139.547067 
L 359.301327 169.491685 
L 359.504363 120.124798 
L 359.707399 119.227166 
L 359.910435 130.742866 
L 360.113471 121.159424 
L 360.316507 167.429226 
L 360.519543 128.775524 
L 360.722579 146.280508 
L 360.925615 111.764466 
L 361.128651 140.702129 
L 361.331687 150.994848 
L 361.737759 117.569289 
L 361.940795 159.958459 
L 362.346867 169.587441 
L 362.955975 130.237925 
L 363.159011 106.905313 
L 363.362047 105.357663 
L 363.565083 129.723404 
L 363.768119 121.479984 
L 363.971155 162.995113 
L 364.174191 161.219482 
L 364.377227 157.130966 
L 364.580263 157.484483 
L 364.783299 143.192535 
L 364.986335 164.979868 
L 365.189371 147.024615 
L 365.392407 163.381315 
L 365.595443 123.007023 
L 365.798479 120.405427 
L 366.001515 120.707335 
L 366.204551 144.831019 
L 366.407587 106.183953 
L 366.610623 148.389336 
L 366.813659 137.829807 
L 367.016695 145.278438 
L 367.219731 168.070997 
L 367.422767 130.510066 
L 367.625802 136.369178 
L 368.031874 173.718019 
L 368.23491 122.118261 
L 368.437946 115.112866 
L 368.640982 156.234639 
L 368.844018 124.865356 
L 369.047054 138.646463 
L 369.25009 102.269393 
L 369.453126 135.90887 
L 369.859198 108.016341 
L 370.062234 106.497307 
L 370.26527 166.441313 
L 370.468306 134.162946 
L 370.671342 169.82613 
L 370.874378 157.116829 
L 371.077414 164.391816 
L 371.483486 131.70249 
L 371.686522 147.485882 
L 371.889558 111.911206 
L 372.092594 147.967335 
L 372.29563 149.960802 
L 372.498666 148.332559 
L 372.701702 136.588459 
L 372.904738 172.566814 
L 373.31081 153.900258 
L 373.513846 147.535214 
L 373.919918 162.457227 
L 374.122954 157.403266 
L 374.32599 137.165492 
L 374.529026 141.368327 
L 374.732062 181.77464 
L 374.935098 123.253832 
L 375.138134 150.779111 
L 375.34117 121.218376 
L 375.747242 145.66531 
L 375.950278 152.418035 
L 376.35635 130.909403 
L 376.559386 161.517133 
L 376.762422 149.441049 
L 376.965458 153.165604 
L 377.168494 162.862839 
L 377.37153 157.259303 
L 377.574566 130.451116 
L 377.777602 134.870924 
L 377.980638 123.7893 
L 378.183674 119.00089 
L 378.38671 87.669296 
L 378.589746 138.489217 
L 378.792782 148.042023 
L 378.995818 123.244827 
L 379.198854 165.20714 
L 379.40189 174.66616 
L 379.604926 128.602256 
L 379.807962 159.882615 
L 380.010998 153.071301 
L 380.214034 133.825734 
L 380.41707 132.337293 
L 380.620106 110.93098 
L 380.823142 166.098772 
L 381.026178 145.047426 
L 381.229214 136.95478 
L 381.635286 184.045896 
L 381.838322 148.806073 
L 382.041358 156.710663 
L 382.44743 129.779617 
L 382.650466 131.632504 
L 382.853502 118.118261 
L 383.056538 172.094357 
L 383.259574 133.627561 
L 383.665646 146.811875 
L 383.868682 110.133087 
L 384.274754 169.986821 
L 384.680826 133.227882 
L 384.883862 154.582092 
L 385.086897 114.988754 
L 385.492969 166.325889 
L 385.696005 109.794945 
L 386.102077 132.429805 
L 386.305113 128.691164 
L 386.508149 156.495875 
L 386.711185 156.260894 
L 386.914221 158.99447 
L 387.117257 151.154821 
L 387.320293 175.962945 
L 387.726365 150.259842 
L 387.929401 161.678829 
L 388.132437 140.287639 
L 388.335473 176.186951 
L 388.538509 104.104182 
L 388.741545 140.656335 
L 388.944581 149.840257 
L 389.147617 166.293979 
L 389.350653 144.918957 
L 389.553689 152.341064 
L 389.756725 125.104759 
L 389.959761 156.059263 
L 390.365833 136.100591 
L 390.568869 165.777526 
L 390.771905 170.887137 
L 390.974941 155.524081 
L 391.177977 107.464629 
L 391.381013 155.451993 
L 391.584049 157.61233 
L 391.787085 116.561693 
L 392.193157 165.672151 
L 392.599229 144.273474 
L 392.802265 165.151559 
L 393.005301 151.172335 
L 393.208337 160.667343 
L 393.411373 137.19364 
L 393.614409 165.739616 
L 393.817445 173.519582 
L 394.020481 125.926131 
L 394.426553 179.611122 
L 394.629589 140.202921 
L 395.035661 148.247375 
L 395.441733 107.631841 
L 395.644769 129.933572 
L 395.847805 131.286194 
L 396.050841 138.466368 
L 396.253877 171.129925 
L 396.456913 130.799544 
L 396.659949 148.233802 
L 396.862985 137.491513 
L 397.066021 142.878987 
L 397.269057 138.748579 
L 397.472093 171.874718 
L 397.675129 148.10799 
L 397.878165 146.476443 
L 398.081201 163.914386 
L 398.284237 137.488788 
L 398.487273 160.349729 
L 398.487273 160.349729 
" style="fill:none;stroke:#ff7f0e;stroke-linecap:square;stroke-width:1.5;"/>
   </g>
   <g id="patch_3">
    <path d="M 57.6 307.584 
L 57.6 41.472 
" style="fill:none;stroke:#000000;stroke-linecap:square;stroke-linejoin:miter;stroke-width:0.8;"/>
   </g>
   <g id="patch_4">
    <path d="M 414.72 307.584 
L 414.72 41.472 
" style="fill:none;stroke:#000000;stroke-linecap:square;stroke-linejoin:miter;stroke-width:0.8;"/>
   </g>
   <g id="patch_5">
    <path d="M 57.6 307.584 
L 414.72 307.584 
" style="fill:none;stroke:#000000;stroke-linecap:square;stroke-linejoin:miter;stroke-width:0.8;"/>
   </g>
   <g id="patch_6">
    <path d="M 57.6 41.472 
L 414.72 41.472 
" style="fill:none;stroke:#000000;stroke-linecap:square;stroke-linejoin:miter;stroke-width:0.8;"/>
   </g>
   <g id="legend_1">
    <g id="patch_7">
     <path d="M 64.6 302.584 
L 168.475 302.584 
Q 170.475 302.584 170.475 300.584 
L 170.475 272.22775 
Q 170.475 270.22775 168.475 270.22775 
L 64.6 270.22775 
Q 62.6 270.22775 62.6 272.22775 
L 62.6 300.584 
Q 62.6 302.584 64.6 302.584 
z
" style="fill:#ffffff;opacity:0.8;stroke:#cccccc;stroke-linejoin:miter;"/>
    </g>
    <g id="line2d_21">
     <path d="M 66.6 278.326187 
L 86.6 278.326187 
" style="fill:none;stroke:#1f77b4;stroke-linecap:square;stroke-width:1.5;"/>
    </g>
    <g id="line2d_22"/>
    <g id="text_20">
     <!-- Train loss -->
     <g transform="translate(94.6 281.826187)scale(0.1 -0.1)">
      <defs>
       <path d="M -19 4666 
L 3928 4666 
L 3928 4134 
L 2272 4134 
L 2272 0 
L 1638 0 
L 1638 4134 
L -19 4134 
L -19 4666 
z
" id="DejaVuSans-54" transform="scale(0.015625)"/>
       <path d="M 2631 2963 
Q 2534 3019 2420 3045 
Q 2306 3072 2169 3072 
Q 1681 3072 1420 2755 
Q 1159 2438 1159 1844 
L 1159 0 
L 581 0 
L 581 3500 
L 1159 3500 
L 1159 2956 
Q 1341 3275 1631 3429 
Q 1922 3584 2338 3584 
Q 2397 3584 2469 3576 
Q 2541 3569 2628 3553 
L 2631 2963 
z
" id="DejaVuSans-72" transform="scale(0.015625)"/>
       <path d="M 2194 1759 
Q 1497 1759 1228 1600 
Q 959 1441 959 1056 
Q 959 750 1161 570 
Q 1363 391 1709 391 
Q 2188 391 2477 730 
Q 2766 1069 2766 1631 
L 2766 1759 
L 2194 1759 
z
M 3341 1997 
L 3341 0 
L 2766 0 
L 2766 531 
Q 2569 213 2275 61 
Q 1981 -91 1556 -91 
Q 1019 -91 701 211 
Q 384 513 384 1019 
Q 384 1609 779 1909 
Q 1175 2209 1959 2209 
L 2766 2209 
L 2766 2266 
Q 2766 2663 2505 2880 
Q 2244 3097 1772 3097 
Q 1472 3097 1187 3025 
Q 903 2953 641 2809 
L 641 3341 
Q 956 3463 1253 3523 
Q 1550 3584 1831 3584 
Q 2591 3584 2966 3190 
Q 3341 2797 3341 1997 
z
" id="DejaVuSans-61" transform="scale(0.015625)"/>
       <path d="M 603 3500 
L 1178 3500 
L 1178 0 
L 603 0 
L 603 3500 
z
M 603 4863 
L 1178 4863 
L 1178 4134 
L 603 4134 
L 603 4863 
z
" id="DejaVuSans-69" transform="scale(0.015625)"/>
       <path d="M 3513 2113 
L 3513 0 
L 2938 0 
L 2938 2094 
Q 2938 2591 2744 2837 
Q 2550 3084 2163 3084 
Q 1697 3084 1428 2787 
Q 1159 2491 1159 1978 
L 1159 0 
L 581 0 
L 581 3500 
L 1159 3500 
L 1159 2956 
Q 1366 3272 1645 3428 
Q 1925 3584 2291 3584 
Q 2894 3584 3203 3211 
Q 3513 2838 3513 2113 
z
" id="DejaVuSans-6e" transform="scale(0.015625)"/>
       <path id="DejaVuSans-20" transform="scale(0.015625)"/>
       <path d="M 603 4863 
L 1178 4863 
L 1178 0 
L 603 0 
L 603 4863 
z
" id="DejaVuSans-6c" transform="scale(0.015625)"/>
       <path d="M 2834 3397 
L 2834 2853 
Q 2591 2978 2328 3040 
Q 2066 3103 1784 3103 
Q 1356 3103 1142 2972 
Q 928 2841 928 2578 
Q 928 2378 1081 2264 
Q 1234 2150 1697 2047 
L 1894 2003 
Q 2506 1872 2764 1633 
Q 3022 1394 3022 966 
Q 3022 478 2636 193 
Q 2250 -91 1575 -91 
Q 1294 -91 989 -36 
Q 684 19 347 128 
L 347 722 
Q 666 556 975 473 
Q 1284 391 1588 391 
Q 1994 391 2212 530 
Q 2431 669 2431 922 
Q 2431 1156 2273 1281 
Q 2116 1406 1581 1522 
L 1381 1569 
Q 847 1681 609 1914 
Q 372 2147 372 2553 
Q 372 3047 722 3315 
Q 1072 3584 1716 3584 
Q 2034 3584 2315 3537 
Q 2597 3491 2834 3397 
z
" id="DejaVuSans-73" transform="scale(0.015625)"/>
      </defs>
      <use xlink:href="#DejaVuSans-54"/>
      <use x="46.333984" xlink:href="#DejaVuSans-72"/>
      <use x="87.447266" xlink:href="#DejaVuSans-61"/>
      <use x="148.726562" xlink:href="#DejaVuSans-69"/>
      <use x="176.509766" xlink:href="#DejaVuSans-6e"/>
      <use x="239.888672" xlink:href="#DejaVuSans-20"/>
      <use x="271.675781" xlink:href="#DejaVuSans-6c"/>
      <use x="299.458984" xlink:href="#DejaVuSans-6f"/>
      <use x="360.640625" xlink:href="#DejaVuSans-73"/>
      <use x="412.740234" xlink:href="#DejaVuSans-73"/>
     </g>
    </g>
    <g id="line2d_23">
     <path d="M 66.6 293.004312 
L 86.6 293.004312 
" style="fill:none;stroke:#ff7f0e;stroke-linecap:square;stroke-width:1.5;"/>
    </g>
    <g id="line2d_24"/>
    <g id="text_21">
     <!-- Validation loss -->
     <g transform="translate(94.6 296.504312)scale(0.1 -0.1)">
      <defs>
       <path d="M 1831 0 
L 50 4666 
L 709 4666 
L 2188 738 
L 3669 4666 
L 4325 4666 
L 2547 0 
L 1831 0 
z
" id="DejaVuSans-56" transform="scale(0.015625)"/>
       <path d="M 2906 2969 
L 2906 4863 
L 3481 4863 
L 3481 0 
L 2906 0 
L 2906 525 
Q 2725 213 2448 61 
Q 2172 -91 1784 -91 
Q 1150 -91 751 415 
Q 353 922 353 1747 
Q 353 2572 751 3078 
Q 1150 3584 1784 3584 
Q 2172 3584 2448 3432 
Q 2725 3281 2906 2969 
z
M 947 1747 
Q 947 1113 1208 752 
Q 1469 391 1925 391 
Q 2381 391 2643 752 
Q 2906 1113 2906 1747 
Q 2906 2381 2643 2742 
Q 2381 3103 1925 3103 
Q 1469 3103 1208 2742 
Q 947 2381 947 1747 
z
" id="DejaVuSans-64" transform="scale(0.015625)"/>
       <path d="M 1172 4494 
L 1172 3500 
L 2356 3500 
L 2356 3053 
L 1172 3053 
L 1172 1153 
Q 1172 725 1289 603 
Q 1406 481 1766 481 
L 2356 481 
L 2356 0 
L 1766 0 
Q 1100 0 847 248 
Q 594 497 594 1153 
L 594 3053 
L 172 3053 
L 172 3500 
L 594 3500 
L 594 4494 
L 1172 4494 
z
" id="DejaVuSans-74" transform="scale(0.015625)"/>
      </defs>
      <use xlink:href="#DejaVuSans-56"/>
      <use x="60.658203" xlink:href="#DejaVuSans-61"/>
      <use x="121.9375" xlink:href="#DejaVuSans-6c"/>
      <use x="149.720703" xlink:href="#DejaVuSans-69"/>
      <use x="177.503906" xlink:href="#DejaVuSans-64"/>
      <use x="240.980469" xlink:href="#DejaVuSans-61"/>
      <use x="302.259766" xlink:href="#DejaVuSans-74"/>
      <use x="341.46875" xlink:href="#DejaVuSans-69"/>
      <use x="369.251953" xlink:href="#DejaVuSans-6f"/>
      <use x="430.433594" xlink:href="#DejaVuSans-6e"/>
      <use x="493.8125" xlink:href="#DejaVuSans-20"/>
      <use x="525.599609" xlink:href="#DejaVuSans-6c"/>
      <use x="553.382812" xlink:href="#DejaVuSans-6f"/>
      <use x="614.564453" xlink:href="#DejaVuSans-73"/>
      <use x="666.664062" xlink:href="#DejaVuSans-73"/>
     </g>
    </g>
   </g>
  </g>
 </g>
 <defs>
  <clipPath id="p25abefc0a5">
   <rect height="266.112" width="357.12" x="57.6" y="41.472"/>
  </clipPath>
 </defs>
</svg>
