<?xml version="1.0" encoding="utf-8" standalone="no"?>
<!DOCTYPE svg PUBLIC "-//W3C//DTD SVG 1.1//EN"
  "http://www.w3.org/Graphics/SVG/1.1/DTD/svg11.dtd">
<svg height="345.6pt" version="1.1" viewBox="0 0 460.8 345.6" width="460.8pt" xmlns="http://www.w3.org/2000/svg" xmlns:xlink="http://www.w3.org/1999/xlink">
 <metadata>
  <rdf:RDF xmlns:cc="http://creativecommons.org/ns#" xmlns:dc="http://purl.org/dc/elements/1.1/" xmlns:rdf="http://www.w3.org/1999/02/22-rdf-syntax-ns#">
   <cc:Work>
    <dc:type rdf:resource="http://purl.org/dc/dcmitype/StillImage"/>
    <dc:date>2021-08-01T04:16:26.141771</dc:date>
    <dc:format>image/svg+xml</dc:format>
    <dc:creator>
     <cc:Agent>
      <dc:title>Matplotlib v3.4.1, https://matplotlib.org/</dc:title>
     </cc:Agent>
    </dc:creator>
   </cc:Work>
  </rdf:RDF>
 </metadata>
 <defs>
  <style type="text/css">*{stroke-linecap:butt;stroke-linejoin:round;}</style>
 </defs>
 <g id="figure_1">
  <g id="patch_1">
   <path d="M 0 345.6 
L 460.8 345.6 
L 460.8 0 
L 0 0 
z
" style="fill:#ffffff;"/>
  </g>
  <g id="axes_1">
   <g id="patch_2">
    <path d="M 57.6 307.584 
L 414.72 307.584 
L 414.72 41.472 
L 57.6 41.472 
z
" style="fill:#ffffff;"/>
   </g>
   <g id="matplotlib.axis_1">
    <g id="xtick_1">
     <g id="line2d_1">
      <defs>
       <path d="M 0 0 
L 0 3.5 
" id="m5b64d59f64" style="stroke:#000000;stroke-width:0.8;"/>
      </defs>
      <g>
       <use style="stroke:#000000;stroke-width:0.8;" x="73.629691" xlink:href="#m5b64d59f64" y="307.584"/>
      </g>
     </g>
     <g id="text_1">
      <!-- 0 -->
      <g transform="translate(70.448441 322.182437)scale(0.1 -0.1)">
       <defs>
        <path d="M 2034 4250 
Q 1547 4250 1301 3770 
Q 1056 3291 1056 2328 
Q 1056 1369 1301 889 
Q 1547 409 2034 409 
Q 2525 409 2770 889 
Q 3016 1369 3016 2328 
Q 3016 3291 2770 3770 
Q 2525 4250 2034 4250 
z
M 2034 4750 
Q 2819 4750 3233 4129 
Q 3647 3509 3647 2328 
Q 3647 1150 3233 529 
Q 2819 -91 2034 -91 
Q 1250 -91 836 529 
Q 422 1150 422 2328 
Q 422 3509 836 4129 
Q 1250 4750 2034 4750 
z
" id="DejaVuSans-30" transform="scale(0.015625)"/>
       </defs>
       <use xlink:href="#DejaVuSans-30"/>
      </g>
     </g>
    </g>
    <g id="xtick_2">
     <g id="line2d_2">
      <g>
       <use style="stroke:#000000;stroke-width:0.8;" x="114.236889" xlink:href="#m5b64d59f64" y="307.584"/>
      </g>
     </g>
     <g id="text_2">
      <!-- 200 -->
      <g transform="translate(104.693139 322.182437)scale(0.1 -0.1)">
       <defs>
        <path d="M 1228 531 
L 3431 531 
L 3431 0 
L 469 0 
L 469 531 
Q 828 903 1448 1529 
Q 2069 2156 2228 2338 
Q 2531 2678 2651 2914 
Q 2772 3150 2772 3378 
Q 2772 3750 2511 3984 
Q 2250 4219 1831 4219 
Q 1534 4219 1204 4116 
Q 875 4013 500 3803 
L 500 4441 
Q 881 4594 1212 4672 
Q 1544 4750 1819 4750 
Q 2544 4750 2975 4387 
Q 3406 4025 3406 3419 
Q 3406 3131 3298 2873 
Q 3191 2616 2906 2266 
Q 2828 2175 2409 1742 
Q 1991 1309 1228 531 
z
" id="DejaVuSans-32" transform="scale(0.015625)"/>
       </defs>
       <use xlink:href="#DejaVuSans-32"/>
       <use x="63.623047" xlink:href="#DejaVuSans-30"/>
       <use x="127.246094" xlink:href="#DejaVuSans-30"/>
      </g>
     </g>
    </g>
    <g id="xtick_3">
     <g id="line2d_3">
      <g>
       <use style="stroke:#000000;stroke-width:0.8;" x="154.844087" xlink:href="#m5b64d59f64" y="307.584"/>
      </g>
     </g>
     <g id="text_3">
      <!-- 400 -->
      <g transform="translate(145.300337 322.182437)scale(0.1 -0.1)">
       <defs>
        <path d="M 2419 4116 
L 825 1625 
L 2419 1625 
L 2419 4116 
z
M 2253 4666 
L 3047 4666 
L 3047 1625 
L 3713 1625 
L 3713 1100 
L 3047 1100 
L 3047 0 
L 2419 0 
L 2419 1100 
L 313 1100 
L 313 1709 
L 2253 4666 
z
" id="DejaVuSans-34" transform="scale(0.015625)"/>
       </defs>
       <use xlink:href="#DejaVuSans-34"/>
       <use x="63.623047" xlink:href="#DejaVuSans-30"/>
       <use x="127.246094" xlink:href="#DejaVuSans-30"/>
      </g>
     </g>
    </g>
    <g id="xtick_4">
     <g id="line2d_4">
      <g>
       <use style="stroke:#000000;stroke-width:0.8;" x="195.451284" xlink:href="#m5b64d59f64" y="307.584"/>
      </g>
     </g>
     <g id="text_4">
      <!-- 600 -->
      <g transform="translate(185.907534 322.182437)scale(0.1 -0.1)">
       <defs>
        <path d="M 2113 2584 
Q 1688 2584 1439 2293 
Q 1191 2003 1191 1497 
Q 1191 994 1439 701 
Q 1688 409 2113 409 
Q 2538 409 2786 701 
Q 3034 994 3034 1497 
Q 3034 2003 2786 2293 
Q 2538 2584 2113 2584 
z
M 3366 4563 
L 3366 3988 
Q 3128 4100 2886 4159 
Q 2644 4219 2406 4219 
Q 1781 4219 1451 3797 
Q 1122 3375 1075 2522 
Q 1259 2794 1537 2939 
Q 1816 3084 2150 3084 
Q 2853 3084 3261 2657 
Q 3669 2231 3669 1497 
Q 3669 778 3244 343 
Q 2819 -91 2113 -91 
Q 1303 -91 875 529 
Q 447 1150 447 2328 
Q 447 3434 972 4092 
Q 1497 4750 2381 4750 
Q 2619 4750 2861 4703 
Q 3103 4656 3366 4563 
z
" id="DejaVuSans-36" transform="scale(0.015625)"/>
       </defs>
       <use xlink:href="#DejaVuSans-36"/>
       <use x="63.623047" xlink:href="#DejaVuSans-30"/>
       <use x="127.246094" xlink:href="#DejaVuSans-30"/>
      </g>
     </g>
    </g>
    <g id="xtick_5">
     <g id="line2d_5">
      <g>
       <use style="stroke:#000000;stroke-width:0.8;" x="236.058482" xlink:href="#m5b64d59f64" y="307.584"/>
      </g>
     </g>
     <g id="text_5">
      <!-- 800 -->
      <g transform="translate(226.514732 322.182437)scale(0.1 -0.1)">
       <defs>
        <path d="M 2034 2216 
Q 1584 2216 1326 1975 
Q 1069 1734 1069 1313 
Q 1069 891 1326 650 
Q 1584 409 2034 409 
Q 2484 409 2743 651 
Q 3003 894 3003 1313 
Q 3003 1734 2745 1975 
Q 2488 2216 2034 2216 
z
M 1403 2484 
Q 997 2584 770 2862 
Q 544 3141 544 3541 
Q 544 4100 942 4425 
Q 1341 4750 2034 4750 
Q 2731 4750 3128 4425 
Q 3525 4100 3525 3541 
Q 3525 3141 3298 2862 
Q 3072 2584 2669 2484 
Q 3125 2378 3379 2068 
Q 3634 1759 3634 1313 
Q 3634 634 3220 271 
Q 2806 -91 2034 -91 
Q 1263 -91 848 271 
Q 434 634 434 1313 
Q 434 1759 690 2068 
Q 947 2378 1403 2484 
z
M 1172 3481 
Q 1172 3119 1398 2916 
Q 1625 2713 2034 2713 
Q 2441 2713 2670 2916 
Q 2900 3119 2900 3481 
Q 2900 3844 2670 4047 
Q 2441 4250 2034 4250 
Q 1625 4250 1398 4047 
Q 1172 3844 1172 3481 
z
" id="DejaVuSans-38" transform="scale(0.015625)"/>
       </defs>
       <use xlink:href="#DejaVuSans-38"/>
       <use x="63.623047" xlink:href="#DejaVuSans-30"/>
       <use x="127.246094" xlink:href="#DejaVuSans-30"/>
      </g>
     </g>
    </g>
    <g id="xtick_6">
     <g id="line2d_6">
      <g>
       <use style="stroke:#000000;stroke-width:0.8;" x="276.66568" xlink:href="#m5b64d59f64" y="307.584"/>
      </g>
     </g>
     <g id="text_6">
      <!-- 1000 -->
      <g transform="translate(263.94068 322.182437)scale(0.1 -0.1)">
       <defs>
        <path d="M 794 531 
L 1825 531 
L 1825 4091 
L 703 3866 
L 703 4441 
L 1819 4666 
L 2450 4666 
L 2450 531 
L 3481 531 
L 3481 0 
L 794 0 
L 794 531 
z
" id="DejaVuSans-31" transform="scale(0.015625)"/>
       </defs>
       <use xlink:href="#DejaVuSans-31"/>
       <use x="63.623047" xlink:href="#DejaVuSans-30"/>
       <use x="127.246094" xlink:href="#DejaVuSans-30"/>
       <use x="190.869141" xlink:href="#DejaVuSans-30"/>
      </g>
     </g>
    </g>
    <g id="xtick_7">
     <g id="line2d_7">
      <g>
       <use style="stroke:#000000;stroke-width:0.8;" x="317.272877" xlink:href="#m5b64d59f64" y="307.584"/>
      </g>
     </g>
     <g id="text_7">
      <!-- 1200 -->
      <g transform="translate(304.547877 322.182437)scale(0.1 -0.1)">
       <use xlink:href="#DejaVuSans-31"/>
       <use x="63.623047" xlink:href="#DejaVuSans-32"/>
       <use x="127.246094" xlink:href="#DejaVuSans-30"/>
       <use x="190.869141" xlink:href="#DejaVuSans-30"/>
      </g>
     </g>
    </g>
    <g id="xtick_8">
     <g id="line2d_8">
      <g>
       <use style="stroke:#000000;stroke-width:0.8;" x="357.880075" xlink:href="#m5b64d59f64" y="307.584"/>
      </g>
     </g>
     <g id="text_8">
      <!-- 1400 -->
      <g transform="translate(345.155075 322.182437)scale(0.1 -0.1)">
       <use xlink:href="#DejaVuSans-31"/>
       <use x="63.623047" xlink:href="#DejaVuSans-34"/>
       <use x="127.246094" xlink:href="#DejaVuSans-30"/>
       <use x="190.869141" xlink:href="#DejaVuSans-30"/>
      </g>
     </g>
    </g>
    <g id="xtick_9">
     <g id="line2d_9">
      <g>
       <use style="stroke:#000000;stroke-width:0.8;" x="398.487273" xlink:href="#m5b64d59f64" y="307.584"/>
      </g>
     </g>
     <g id="text_9">
      <!-- 1600 -->
      <g transform="translate(385.762273 322.182437)scale(0.1 -0.1)">
       <use xlink:href="#DejaVuSans-31"/>
       <use x="63.623047" xlink:href="#DejaVuSans-36"/>
       <use x="127.246094" xlink:href="#DejaVuSans-30"/>
       <use x="190.869141" xlink:href="#DejaVuSans-30"/>
      </g>
     </g>
    </g>
    <g id="text_10">
     <!-- Epoch -->
     <g transform="translate(213.193594 339.659781)scale(0.15 -0.15)">
      <defs>
       <path d="M 628 4666 
L 3578 4666 
L 3578 4134 
L 1259 4134 
L 1259 2753 
L 3481 2753 
L 3481 2222 
L 1259 2222 
L 1259 531 
L 3634 531 
L 3634 0 
L 628 0 
L 628 4666 
z
" id="DejaVuSans-45" transform="scale(0.015625)"/>
       <path d="M 1159 525 
L 1159 -1331 
L 581 -1331 
L 581 3500 
L 1159 3500 
L 1159 2969 
Q 1341 3281 1617 3432 
Q 1894 3584 2278 3584 
Q 2916 3584 3314 3078 
Q 3713 2572 3713 1747 
Q 3713 922 3314 415 
Q 2916 -91 2278 -91 
Q 1894 -91 1617 61 
Q 1341 213 1159 525 
z
M 3116 1747 
Q 3116 2381 2855 2742 
Q 2594 3103 2138 3103 
Q 1681 3103 1420 2742 
Q 1159 2381 1159 1747 
Q 1159 1113 1420 752 
Q 1681 391 2138 391 
Q 2594 391 2855 752 
Q 3116 1113 3116 1747 
z
" id="DejaVuSans-70" transform="scale(0.015625)"/>
       <path d="M 1959 3097 
Q 1497 3097 1228 2736 
Q 959 2375 959 1747 
Q 959 1119 1226 758 
Q 1494 397 1959 397 
Q 2419 397 2687 759 
Q 2956 1122 2956 1747 
Q 2956 2369 2687 2733 
Q 2419 3097 1959 3097 
z
M 1959 3584 
Q 2709 3584 3137 3096 
Q 3566 2609 3566 1747 
Q 3566 888 3137 398 
Q 2709 -91 1959 -91 
Q 1206 -91 779 398 
Q 353 888 353 1747 
Q 353 2609 779 3096 
Q 1206 3584 1959 3584 
z
" id="DejaVuSans-6f" transform="scale(0.015625)"/>
       <path d="M 3122 3366 
L 3122 2828 
Q 2878 2963 2633 3030 
Q 2388 3097 2138 3097 
Q 1578 3097 1268 2742 
Q 959 2388 959 1747 
Q 959 1106 1268 751 
Q 1578 397 2138 397 
Q 2388 397 2633 464 
Q 2878 531 3122 666 
L 3122 134 
Q 2881 22 2623 -34 
Q 2366 -91 2075 -91 
Q 1284 -91 818 406 
Q 353 903 353 1747 
Q 353 2603 823 3093 
Q 1294 3584 2113 3584 
Q 2378 3584 2631 3529 
Q 2884 3475 3122 3366 
z
" id="DejaVuSans-63" transform="scale(0.015625)"/>
       <path d="M 3513 2113 
L 3513 0 
L 2938 0 
L 2938 2094 
Q 2938 2591 2744 2837 
Q 2550 3084 2163 3084 
Q 1697 3084 1428 2787 
Q 1159 2491 1159 1978 
L 1159 0 
L 581 0 
L 581 4863 
L 1159 4863 
L 1159 2956 
Q 1366 3272 1645 3428 
Q 1925 3584 2291 3584 
Q 2894 3584 3203 3211 
Q 3513 2838 3513 2113 
z
" id="DejaVuSans-68" transform="scale(0.015625)"/>
      </defs>
      <use xlink:href="#DejaVuSans-45"/>
      <use x="63.183594" xlink:href="#DejaVuSans-70"/>
      <use x="126.660156" xlink:href="#DejaVuSans-6f"/>
      <use x="187.841797" xlink:href="#DejaVuSans-63"/>
      <use x="242.822266" xlink:href="#DejaVuSans-68"/>
     </g>
    </g>
   </g>
   <g id="matplotlib.axis_2">
    <g id="ytick_1">
     <g id="line2d_10">
      <defs>
       <path d="M 0 0 
L -3.5 0 
" id="m329f3ac42a" style="stroke:#000000;stroke-width:0.8;"/>
      </defs>
      <g>
       <use style="stroke:#000000;stroke-width:0.8;" x="57.6" xlink:href="#m329f3ac42a" y="269.87064"/>
      </g>
     </g>
     <g id="text_11">
      <!-- −0.25 -->
      <g transform="translate(19.954687 273.669859)scale(0.1 -0.1)">
       <defs>
        <path d="M 678 2272 
L 4684 2272 
L 4684 1741 
L 678 1741 
L 678 2272 
z
" id="DejaVuSans-2212" transform="scale(0.015625)"/>
        <path d="M 684 794 
L 1344 794 
L 1344 0 
L 684 0 
L 684 794 
z
" id="DejaVuSans-2e" transform="scale(0.015625)"/>
        <path d="M 691 4666 
L 3169 4666 
L 3169 4134 
L 1269 4134 
L 1269 2991 
Q 1406 3038 1543 3061 
Q 1681 3084 1819 3084 
Q 2600 3084 3056 2656 
Q 3513 2228 3513 1497 
Q 3513 744 3044 326 
Q 2575 -91 1722 -91 
Q 1428 -91 1123 -41 
Q 819 9 494 109 
L 494 744 
Q 775 591 1075 516 
Q 1375 441 1709 441 
Q 2250 441 2565 725 
Q 2881 1009 2881 1497 
Q 2881 1984 2565 2268 
Q 2250 2553 1709 2553 
Q 1456 2553 1204 2497 
Q 953 2441 691 2322 
L 691 4666 
z
" id="DejaVuSans-35" transform="scale(0.015625)"/>
       </defs>
       <use xlink:href="#DejaVuSans-2212"/>
       <use x="83.789062" xlink:href="#DejaVuSans-30"/>
       <use x="147.412109" xlink:href="#DejaVuSans-2e"/>
       <use x="179.199219" xlink:href="#DejaVuSans-32"/>
       <use x="242.822266" xlink:href="#DejaVuSans-35"/>
      </g>
     </g>
    </g>
    <g id="ytick_2">
     <g id="line2d_11">
      <g>
       <use style="stroke:#000000;stroke-width:0.8;" x="57.6" xlink:href="#m329f3ac42a" y="226.61042"/>
      </g>
     </g>
     <g id="text_12">
      <!-- −0.20 -->
      <g transform="translate(19.954687 230.409639)scale(0.1 -0.1)">
       <use xlink:href="#DejaVuSans-2212"/>
       <use x="83.789062" xlink:href="#DejaVuSans-30"/>
       <use x="147.412109" xlink:href="#DejaVuSans-2e"/>
       <use x="179.199219" xlink:href="#DejaVuSans-32"/>
       <use x="242.822266" xlink:href="#DejaVuSans-30"/>
      </g>
     </g>
    </g>
    <g id="ytick_3">
     <g id="line2d_12">
      <g>
       <use style="stroke:#000000;stroke-width:0.8;" x="57.6" xlink:href="#m329f3ac42a" y="183.3502"/>
      </g>
     </g>
     <g id="text_13">
      <!-- −0.15 -->
      <g transform="translate(19.954687 187.149419)scale(0.1 -0.1)">
       <use xlink:href="#DejaVuSans-2212"/>
       <use x="83.789062" xlink:href="#DejaVuSans-30"/>
       <use x="147.412109" xlink:href="#DejaVuSans-2e"/>
       <use x="179.199219" xlink:href="#DejaVuSans-31"/>
       <use x="242.822266" xlink:href="#DejaVuSans-35"/>
      </g>
     </g>
    </g>
    <g id="ytick_4">
     <g id="line2d_13">
      <g>
       <use style="stroke:#000000;stroke-width:0.8;" x="57.6" xlink:href="#m329f3ac42a" y="140.08998"/>
      </g>
     </g>
     <g id="text_14">
      <!-- −0.10 -->
      <g transform="translate(19.954687 143.889199)scale(0.1 -0.1)">
       <use xlink:href="#DejaVuSans-2212"/>
       <use x="83.789062" xlink:href="#DejaVuSans-30"/>
       <use x="147.412109" xlink:href="#DejaVuSans-2e"/>
       <use x="179.199219" xlink:href="#DejaVuSans-31"/>
       <use x="242.822266" xlink:href="#DejaVuSans-30"/>
      </g>
     </g>
    </g>
    <g id="ytick_5">
     <g id="line2d_14">
      <g>
       <use style="stroke:#000000;stroke-width:0.8;" x="57.6" xlink:href="#m329f3ac42a" y="96.82976"/>
      </g>
     </g>
     <g id="text_15">
      <!-- −0.05 -->
      <g transform="translate(19.954687 100.628979)scale(0.1 -0.1)">
       <use xlink:href="#DejaVuSans-2212"/>
       <use x="83.789062" xlink:href="#DejaVuSans-30"/>
       <use x="147.412109" xlink:href="#DejaVuSans-2e"/>
       <use x="179.199219" xlink:href="#DejaVuSans-30"/>
       <use x="242.822266" xlink:href="#DejaVuSans-35"/>
      </g>
     </g>
    </g>
    <g id="ytick_6">
     <g id="line2d_15">
      <g>
       <use style="stroke:#000000;stroke-width:0.8;" x="57.6" xlink:href="#m329f3ac42a" y="53.56954"/>
      </g>
     </g>
     <g id="text_16">
      <!-- 0.00 -->
      <g transform="translate(28.334375 57.368759)scale(0.1 -0.1)">
       <use xlink:href="#DejaVuSans-30"/>
       <use x="63.623047" xlink:href="#DejaVuSans-2e"/>
       <use x="95.410156" xlink:href="#DejaVuSans-30"/>
       <use x="159.033203" xlink:href="#DejaVuSans-30"/>
      </g>
     </g>
    </g>
   </g>
   <g id="line2d_16">
    <path clip-path="url(#pb4f0608723)" d="M 73.832727 53.569651 
L 109.160989 53.569923 
L 114.439925 53.700255 
L 114.845997 53.844594 
L 115.049033 54.252936 
L 115.252069 54.093921 
L 115.455105 54.176914 
L 115.861177 56.672573 
L 116.064213 60.68282 
L 116.267249 55.268428 
L 116.470285 55.58473 
L 116.673321 60.130143 
L 116.876357 55.576722 
L 117.282429 61.927962 
L 117.485465 63.502159 
L 117.688501 62.651024 
L 117.891537 65.228354 
L 118.094573 66.331847 
L 118.297609 65.367072 
L 118.500645 65.700771 
L 118.703681 62.251622 
L 118.906717 72.060177 
L 119.109753 74.242836 
L 119.312789 70.93253 
L 119.515825 63.587786 
L 119.718861 73.44641 
L 119.921897 69.250871 
L 120.124933 72.812267 
L 120.327969 71.077387 
L 120.531005 71.633848 
L 120.734041 68.569438 
L 120.937077 76.018163 
L 121.140113 71.081619 
L 121.343149 72.204311 
L 121.546185 81.707682 
L 121.952257 71.225296 
L 122.155293 76.937446 
L 122.358329 76.487973 
L 122.561364 78.43525 
L 122.7644 76.791273 
L 122.967436 73.107854 
L 123.170472 73.619435 
L 123.373508 85.168745 
L 123.77958 74.269763 
L 124.185652 85.945654 
L 124.591724 68.823534 
L 124.79476 73.555738 
L 124.997796 73.3339 
L 125.200832 73.602824 
L 125.606904 86.289082 
L 126.012976 80.507077 
L 126.216012 82.582957 
L 126.419048 80.699297 
L 126.622084 80.612167 
L 126.82512 79.869295 
L 127.028156 87.861746 
L 127.231192 86.266456 
L 127.434228 89.491624 
L 127.637264 84.64653 
L 127.8403 89.579687 
L 128.043336 87.666804 
L 128.246372 92.442921 
L 128.449408 92.95484 
L 128.652444 90.260417 
L 128.85548 105.023001 
L 129.058516 99.511991 
L 129.261552 100.059202 
L 129.464588 104.795836 
L 129.667624 97.653885 
L 129.87066 94.774559 
L 130.073696 95.460704 
L 130.276732 88.778044 
L 130.479768 96.564605 
L 130.682804 95.404511 
L 130.88584 107.019201 
L 131.088876 95.818839 
L 131.291912 90.941894 
L 131.494948 103.430553 
L 131.697984 98.146549 
L 131.90102 102.362135 
L 132.104056 102.673851 
L 132.307092 100.857605 
L 132.510128 111.106074 
L 132.713164 100.525641 
L 133.119236 118.205167 
L 133.322272 101.268411 
L 133.525308 106.415377 
L 133.728344 114.531663 
L 133.93138 102.016185 
L 134.134416 106.968121 
L 134.337452 104.838154 
L 134.540488 88.008045 
L 134.743524 98.358223 
L 135.149596 105.429677 
L 135.352632 97.494465 
L 135.555668 107.73318 
L 135.758704 108.616433 
L 135.96174 114.239861 
L 136.164776 113.039773 
L 136.367812 115.270036 
L 136.97692 97.665132 
L 137.179956 113.580066 
L 137.382992 116.050036 
L 137.586028 106.425991 
L 137.9921 115.846403 
L 138.195136 106.478836 
L 138.398172 115.283866 
L 138.804244 102.997563 
L 139.00728 119.729224 
L 139.210316 122.805879 
L 139.413352 105.041101 
L 139.616388 117.958884 
L 139.819424 118.591326 
L 140.022459 107.823595 
L 140.225495 117.772093 
L 140.428531 115.631723 
L 140.631567 121.816905 
L 140.834603 118.878619 
L 141.037639 123.353863 
L 141.240675 136.171316 
L 141.443711 119.478643 
L 141.646747 120.732841 
L 141.849783 113.700306 
L 142.052819 116.265503 
L 142.458891 109.849017 
L 142.661927 124.515741 
L 142.864963 129.853165 
L 143.067999 123.27999 
L 143.271035 109.064229 
L 143.677107 128.958069 
L 143.880143 113.41344 
L 144.083179 115.874186 
L 144.286215 114.488425 
L 144.489251 105.733073 
L 144.692287 114.257311 
L 144.895323 106.51609 
L 145.098359 116.982101 
L 145.301395 95.064765 
L 145.504431 125.096313 
L 145.707467 127.903223 
L 145.910503 115.342412 
L 146.113539 122.768363 
L 146.316575 115.210231 
L 146.519611 118.058976 
L 146.722647 97.502262 
L 146.925683 116.615039 
L 147.128719 113.969369 
L 147.331755 131.267304 
L 147.534791 117.845717 
L 147.737827 126.775602 
L 147.940863 126.940683 
L 148.143899 134.128591 
L 148.346935 129.870084 
L 148.549971 132.500338 
L 148.753007 130.516829 
L 148.956043 127.39142 
L 149.159079 109.765699 
L 149.565151 127.902193 
L 149.768187 113.187014 
L 149.971223 130.196222 
L 150.377295 115.119018 
L 150.580331 127.795554 
L 150.783367 111.835119 
L 151.189439 133.184298 
L 151.392475 113.659402 
L 151.595511 121.340784 
L 151.798547 109.737972 
L 152.001583 119.510488 
L 152.204619 147.388322 
L 152.407655 119.142862 
L 152.610691 124.624007 
L 152.813727 115.878316 
L 153.016763 122.376751 
L 153.422835 120.344088 
L 153.625871 123.890706 
L 154.031943 103.371774 
L 154.438015 130.43362 
L 154.641051 133.049448 
L 154.844087 117.1019 
L 155.047123 126.490678 
L 155.250159 128.602353 
L 155.453195 115.038491 
L 155.859267 140.522707 
L 156.062303 117.714819 
L 156.265339 125.298006 
L 156.468375 117.135541 
L 156.671411 129.039952 
L 156.874447 134.204304 
L 157.077483 135.109941 
L 157.280519 114.526583 
L 157.483554 139.462683 
L 157.68659 117.493049 
L 157.889626 123.658594 
L 158.092662 134.813145 
L 158.295698 126.897601 
L 158.498734 141.376574 
L 158.70177 131.992363 
L 158.904806 137.672964 
L 159.107842 128.746491 
L 159.310878 132.944278 
L 159.513914 146.059582 
L 159.919986 124.103446 
L 160.123022 127.493593 
L 160.326058 123.359552 
L 160.529094 112.828813 
L 160.73213 129.307159 
L 160.935166 122.326527 
L 161.341238 132.92689 
L 161.544274 129.182136 
L 161.74731 131.740027 
L 161.950346 130.333535 
L 162.153382 133.530195 
L 162.356418 139.5497 
L 162.559454 134.896056 
L 162.76249 146.362361 
L 162.965526 148.951456 
L 163.168562 129.800599 
L 163.371598 140.775248 
L 163.77767 113.229397 
L 163.980706 157.487066 
L 164.183742 139.416563 
L 164.386778 132.184946 
L 164.589814 143.86846 
L 164.79285 146.692673 
L 164.995886 134.637168 
L 165.198922 114.215106 
L 165.604994 145.662742 
L 165.80803 136.18462 
L 166.011066 135.536228 
L 166.214102 138.51256 
L 166.417138 123.789654 
L 166.620174 135.472832 
L 166.82321 124.130045 
L 167.026246 140.594673 
L 167.229282 136.92456 
L 167.432318 136.20394 
L 167.635354 124.034349 
L 167.83839 142.980943 
L 168.041426 132.099518 
L 168.447498 147.251851 
L 168.650534 147.754112 
L 168.85357 136.017104 
L 169.056606 131.436022 
L 169.259642 137.71043 
L 169.462678 149.553188 
L 169.665714 142.743967 
L 169.86875 141.443965 
L 170.274822 125.974126 
L 170.477858 124.200626 
L 170.680894 144.140739 
L 170.88393 142.864063 
L 171.086966 124.086236 
L 171.290002 153.492698 
L 171.493038 137.954672 
L 171.696074 144.739707 
L 171.89911 117.113616 
L 172.102146 126.983724 
L 172.305182 129.990699 
L 172.508218 137.093805 
L 172.711254 151.073723 
L 173.117326 132.16715 
L 173.320362 147.2685 
L 173.523398 135.017378 
L 173.726434 139.5009 
L 174.132506 142.030915 
L 174.335542 138.143447 
L 174.538578 148.301547 
L 174.944649 121.910311 
L 175.350721 146.593254 
L 175.756793 118.684654 
L 175.959829 154.200388 
L 176.162865 125.528602 
L 176.365901 126.918915 
L 176.568937 144.467417 
L 176.771973 148.450631 
L 176.975009 137.382663 
L 177.178045 140.415465 
L 177.381081 151.795719 
L 177.584117 119.440017 
L 177.990189 147.182135 
L 178.193225 121.601231 
L 178.396261 127.652902 
L 178.599297 117.938028 
L 178.802333 141.109797 
L 179.005369 138.529146 
L 179.208405 124.415559 
L 179.614477 153.685949 
L 179.817513 135.54367 
L 180.020549 154.026267 
L 180.223585 137.566384 
L 180.426621 153.865694 
L 180.832693 142.126301 
L 181.035729 125.718684 
L 181.238765 137.550611 
L 181.441801 131.850908 
L 181.644837 136.820704 
L 181.847873 132.848149 
L 182.050909 136.469215 
L 182.253945 151.469217 
L 182.456981 131.037496 
L 182.660017 135.531614 
L 182.863053 149.628311 
L 183.066089 182.706171 
L 183.269125 143.86224 
L 183.472161 173.286366 
L 183.675197 151.977287 
L 183.878233 153.592933 
L 184.081269 157.132799 
L 184.284305 135.079107 
L 184.690377 147.764407 
L 184.893413 164.02534 
L 185.096449 141.928034 
L 185.299485 169.234655 
L 185.502521 156.658315 
L 185.705557 131.570861 
L 185.908593 144.181673 
L 186.111629 139.901747 
L 186.314665 150.037668 
L 186.517701 168.220608 
L 186.720737 126.547993 
L 186.923773 170.222589 
L 187.329845 131.584336 
L 187.532881 152.61432 
L 187.735917 160.689947 
L 187.938953 149.997521 
L 188.141989 148.593895 
L 188.345025 127.925889 
L 188.548061 159.228187 
L 188.751097 143.256934 
L 188.954133 155.442732 
L 189.157169 157.486241 
L 189.360205 173.661088 
L 189.563241 123.157342 
L 189.766277 166.659863 
L 189.969313 145.117527 
L 190.172349 142.297457 
L 190.375385 169.726927 
L 190.781457 132.010559 
L 191.187529 171.571136 
L 191.390565 145.13661 
L 191.593601 146.322462 
L 191.999673 169.135527 
L 192.202709 127.116894 
L 192.405744 157.900439 
L 192.60878 136.344941 
L 192.811816 164.271245 
L 193.014852 144.791968 
L 193.217888 136.163869 
L 193.420924 161.595099 
L 193.62396 157.646764 
L 193.826996 141.794813 
L 194.030032 147.726899 
L 194.436104 170.960435 
L 194.63914 150.328886 
L 194.842176 153.701136 
L 195.045212 130.001408 
L 195.248248 159.760604 
L 195.451284 146.67946 
L 195.65432 165.009013 
L 195.857356 164.474933 
L 196.060392 162.30403 
L 196.263428 158.261144 
L 196.466464 148.251227 
L 196.6695 171.876659 
L 196.872536 178.775652 
L 197.278608 140.36945 
L 197.481644 172.826876 
L 197.68468 149.255336 
L 197.887716 160.891882 
L 198.090752 142.552087 
L 198.293788 145.729823 
L 198.496824 153.806372 
L 198.69986 144.083521 
L 198.902896 187.469287 
L 199.105932 155.231409 
L 199.308968 141.309422 
L 199.71504 150.506476 
L 199.918076 152.560558 
L 200.121112 159.492049 
L 200.324148 170.650849 
L 200.527184 172.955238 
L 200.73022 144.1961 
L 200.933256 188.867074 
L 201.136292 135.664361 
L 201.339328 158.75378 
L 201.542364 156.196541 
L 201.7454 178.611701 
L 201.948436 173.083704 
L 202.151472 204.221862 
L 202.557544 155.762822 
L 202.76058 158.635104 
L 202.963616 136.728568 
L 203.369688 170.173038 
L 203.572724 152.414879 
L 203.978796 164.086511 
L 204.181832 131.454284 
L 204.384868 174.776059 
L 204.587904 144.142588 
L 204.79094 143.650607 
L 204.993976 166.751534 
L 205.197012 157.169814 
L 205.400048 169.1623 
L 205.603084 166.118027 
L 206.009156 133.278152 
L 206.415228 147.151021 
L 206.8213 162.33597 
L 207.024336 142.724342 
L 207.227372 145.569887 
L 207.430408 158.061235 
L 207.633444 139.05707 
L 208.039516 171.753545 
L 208.242552 149.402825 
L 208.445588 148.971504 
L 208.85166 190.295507 
L 209.054696 172.720555 
L 209.257732 173.600836 
L 209.460768 163.549666 
L 209.663804 167.965116 
L 209.86684 196.388084 
L 210.069875 161.51643 
L 210.475947 187.384106 
L 210.678983 174.302411 
L 211.085055 161.297562 
L 211.288091 186.238367 
L 211.491127 166.348179 
L 211.694163 194.655881 
L 211.897199 158.860003 
L 212.100235 158.138342 
L 212.506307 178.340615 
L 212.709343 161.676666 
L 212.912379 160.071795 
L 213.115415 152.059882 
L 213.318451 150.075612 
L 213.724523 188.716957 
L 214.130595 156.358652 
L 214.333631 146.388106 
L 214.536667 175.585784 
L 214.739703 178.340811 
L 214.942739 151.537461 
L 215.348811 180.204711 
L 215.551847 150.495543 
L 215.754883 165.32053 
L 215.957919 193.374775 
L 216.160955 161.635642 
L 216.363991 194.422009 
L 216.567027 150.380666 
L 216.770063 152.239168 
L 216.973099 156.6226 
L 217.176135 178.0775 
L 217.379171 168.88045 
L 217.582207 176.394077 
L 217.785243 156.620134 
L 218.191315 170.380909 
L 218.394351 162.871342 
L 218.597387 198.183548 
L 219.003459 128.005658 
L 219.206495 172.796537 
L 219.409531 162.515992 
L 219.815603 182.903396 
L 220.018639 165.66738 
L 220.221675 130.803528 
L 220.424711 139.300078 
L 220.627747 186.556968 
L 220.830783 190.968406 
L 221.033819 213.360269 
L 221.236855 189.425828 
L 221.439891 151.126383 
L 221.642927 170.916595 
L 221.845963 176.888951 
L 222.048999 201.872845 
L 222.252035 162.307059 
L 222.455071 162.249766 
L 222.861143 189.015339 
L 223.267215 141.536283 
L 223.470251 204.82402 
L 223.673287 167.866985 
L 223.876323 158.598122 
L 224.079359 166.516303 
L 224.282395 168.734537 
L 224.485431 195.068056 
L 224.688467 154.004989 
L 224.891503 152.472912 
L 225.094539 189.950122 
L 225.297575 153.66539 
L 225.500611 182.387141 
L 225.703647 159.495535 
L 225.906683 171.098907 
L 226.109719 196.172292 
L 226.312755 190.602379 
L 226.515791 165.553056 
L 226.718827 217.863298 
L 226.921863 158.443824 
L 227.124899 167.489639 
L 227.53097 148.461738 
L 228.140078 179.229425 
L 228.343114 181.78102 
L 228.54615 189.389528 
L 228.952222 187.073483 
L 229.155258 196.713614 
L 229.358294 212.962894 
L 229.764366 182.746762 
L 229.967402 170.552419 
L 230.170438 194.14365 
L 230.373474 177.48082 
L 230.57651 141.430555 
L 230.779546 187.922733 
L 230.982582 204.109046 
L 231.185618 161.291184 
L 231.388654 180.11792 
L 231.59169 177.668474 
L 231.794726 152.848061 
L 231.997762 150.178657 
L 232.200798 180.831136 
L 232.403834 176.351086 
L 232.60687 128.365502 
L 233.012942 172.534895 
L 233.215978 179.366976 
L 233.419014 190.658683 
L 233.62205 152.721394 
L 233.825086 182.116281 
L 234.028122 156.306983 
L 234.231158 183.474096 
L 234.63723 175.626126 
L 234.840266 146.157653 
L 235.043302 155.96788 
L 235.246338 157.227987 
L 235.449374 173.348717 
L 235.65241 204.745363 
L 235.855446 178.057554 
L 236.261518 211.420784 
L 236.464554 167.190572 
L 236.66759 164.609785 
L 236.870626 153.384362 
L 237.073662 222.848223 
L 237.276698 156.798188 
L 237.479734 194.228706 
L 237.68277 168.941067 
L 237.885806 182.421264 
L 238.088842 187.094602 
L 238.291878 184.155936 
L 238.494914 169.340402 
L 238.69795 191.591216 
L 238.900986 183.510863 
L 239.104022 193.004355 
L 239.307058 216.856147 
L 239.510094 191.977337 
L 239.71313 197.591502 
L 239.916166 185.840203 
L 240.119202 157.974875 
L 240.322238 192.348111 
L 240.525274 158.347186 
L 240.72831 188.580679 
L 240.931346 167.941589 
L 241.134382 177.794543 
L 241.337418 174.559276 
L 241.540454 200.022585 
L 241.74349 157.575544 
L 241.946526 183.376636 
L 242.352598 148.357261 
L 242.555634 178.259541 
L 242.75867 190.880661 
L 242.961706 176.898608 
L 243.164742 178.478532 
L 243.367778 210.195541 
L 243.570814 159.162157 
L 243.976886 195.071922 
L 244.179922 174.088432 
L 244.585994 204.405576 
L 244.78903 203.628282 
L 244.992065 197.801788 
L 245.195101 184.754824 
L 245.398137 180.461499 
L 245.601173 183.419182 
L 245.804209 162.783748 
L 246.007245 171.99543 
L 246.210281 148.99609 
L 246.616353 212.735527 
L 247.022425 158.78748 
L 247.428497 219.244553 
L 247.631533 226.599758 
L 247.834569 157.267459 
L 248.037605 202.113463 
L 248.240641 166.983052 
L 248.443677 175.480678 
L 248.849749 205.213392 
L 249.052785 191.419723 
L 249.255821 231.64383 
L 249.458857 185.080253 
L 249.661893 185.564714 
L 249.864929 174.766926 
L 250.067965 211.345737 
L 250.474037 167.52982 
L 250.677073 181.443349 
L 250.880109 184.67955 
L 251.083145 175.970654 
L 251.489217 207.40968 
L 251.895289 185.738031 
L 252.098325 191.614016 
L 252.301361 185.721019 
L 252.504397 193.85622 
L 252.707433 192.059068 
L 252.910469 170.31174 
L 253.113505 188.956475 
L 253.316541 179.394501 
L 253.519577 203.137746 
L 253.722613 199.696366 
L 253.925649 168.89084 
L 254.128685 216.896842 
L 254.331721 185.695069 
L 254.534757 195.874448 
L 254.737793 177.135143 
L 254.940829 193.152289 
L 255.143865 180.483478 
L 255.346901 177.669599 
L 255.549937 150.4765 
L 255.752973 188.055739 
L 255.956009 178.345697 
L 256.362081 258.24036 
L 256.565117 184.432845 
L 256.768153 213.942403 
L 256.971189 180.717331 
L 257.174225 185.680935 
L 257.377261 185.401514 
L 257.580297 191.707771 
L 257.783333 163.388006 
L 257.986369 177.278287 
L 258.189405 233.463759 
L 258.392441 183.812566 
L 258.595477 186.835893 
L 258.798513 185.662263 
L 259.001549 206.177102 
L 259.407621 169.905838 
L 259.610657 174.933329 
L 259.813693 192.276797 
L 260.016729 195.720945 
L 260.422801 161.858159 
L 260.625837 201.66538 
L 260.828873 185.045941 
L 261.234945 216.088919 
L 261.437981 209.169701 
L 261.641017 233.306912 
L 261.844053 183.496197 
L 262.047089 192.260093 
L 262.250125 182.687304 
L 262.45316 211.522655 
L 262.656196 176.930383 
L 262.859232 173.966614 
L 263.062268 186.521279 
L 263.265304 188.888549 
L 263.46834 208.538845 
L 263.671376 191.083954 
L 263.874412 199.354623 
L 264.077448 187.292246 
L 264.280484 182.739245 
L 264.48352 231.459521 
L 264.686556 169.417617 
L 264.889592 171.313844 
L 265.092628 162.799785 
L 265.4987 206.860547 
L 265.701736 172.493336 
L 265.904772 210.95344 
L 266.107808 219.624899 
L 266.51388 177.827904 
L 266.716916 223.601241 
L 266.919952 168.102038 
L 267.122988 207.168173 
L 267.326024 172.68566 
L 267.732096 212.077028 
L 267.935132 166.576033 
L 268.138168 202.576032 
L 268.341204 169.487404 
L 268.54424 175.379897 
L 268.747276 199.153269 
L 268.950312 167.458371 
L 269.356384 210.495863 
L 269.55942 194.68239 
L 269.762456 201.472941 
L 269.965492 147.153009 
L 270.168528 242.600912 
L 270.371564 171.04509 
L 270.5746 144.648272 
L 270.980672 192.884644 
L 271.183708 188.191995 
L 271.386744 221.296993 
L 271.58978 164.054406 
L 271.995852 184.086909 
L 272.198888 216.152376 
L 272.401924 195.85789 
L 272.60496 206.336553 
L 272.807996 241.605871 
L 273.011032 168.212729 
L 273.417104 197.83861 
L 273.62014 196.384278 
L 273.823176 201.579045 
L 274.026212 167.83006 
L 274.229248 220.092984 
L 274.432284 227.999306 
L 274.63532 182.57029 
L 274.838356 191.049794 
L 275.041392 166.346169 
L 275.244428 180.877057 
L 275.6505 172.281481 
L 275.853536 197.000691 
L 276.056572 196.486727 
L 276.259608 157.275409 
L 276.462644 193.918417 
L 276.66568 207.384501 
L 276.868716 177.535145 
L 277.071752 185.872324 
L 277.274788 157.726754 
L 277.477824 160.50228 
L 277.68086 240.938142 
L 277.883896 176.525803 
L 278.086932 181.041976 
L 278.289968 177.136004 
L 278.493004 215.588667 
L 278.69604 169.544245 
L 279.102112 218.504737 
L 279.305148 211.272722 
L 279.508184 186.330028 
L 279.71122 182.887767 
L 279.914256 207.904458 
L 280.117291 183.950894 
L 280.320327 229.822901 
L 280.523363 191.895731 
L 280.726399 212.935281 
L 280.929435 212.594816 
L 281.132471 184.832997 
L 281.335507 195.0499 
L 281.538543 170.804189 
L 281.741579 219.613564 
L 281.944615 197.481587 
L 282.147651 202.929872 
L 282.350687 198.184882 
L 282.553723 199.631699 
L 282.756759 220.068442 
L 283.162831 189.604579 
L 283.365867 205.422234 
L 283.568903 241.311073 
L 283.771939 166.739017 
L 284.178011 208.297411 
L 284.381047 204.035342 
L 284.584083 226.33026 
L 284.787119 204.377505 
L 284.990155 197.528762 
L 285.193191 246.116966 
L 285.396227 200.164503 
L 285.599263 219.725311 
L 285.802299 187.767175 
L 286.005335 232.849765 
L 286.208371 178.751416 
L 286.411407 182.739274 
L 286.614443 199.43064 
L 286.817479 185.958836 
L 287.020515 200.720484 
L 287.223551 206.127577 
L 287.426587 173.728984 
L 287.629623 161.031168 
L 288.238731 217.010362 
L 288.441767 193.692282 
L 288.644803 184.652288 
L 288.847839 200.132796 
L 289.050875 154.832715 
L 289.253911 183.394365 
L 289.456947 174.677329 
L 289.659983 204.81958 
L 289.863019 200.642817 
L 290.066055 202.061145 
L 290.269091 231.773695 
L 290.675163 204.018155 
L 290.878199 169.562391 
L 291.081235 194.969283 
L 291.284271 192.816628 
L 291.487307 244.994881 
L 291.690343 221.524453 
L 291.893379 180.274866 
L 292.096415 214.187495 
L 292.299451 187.283237 
L 292.502487 225.24521 
L 292.908559 181.987177 
L 293.111595 170.697148 
L 293.314631 232.270687 
L 293.517667 192.955001 
L 293.720703 227.000183 
L 293.923739 230.757172 
L 294.126775 201.516274 
L 294.329811 194.245181 
L 294.532847 216.301232 
L 294.735883 212.369051 
L 295.141955 194.723356 
L 295.344991 191.501424 
L 295.548027 159.111006 
L 295.751063 201.207811 
L 295.954099 191.990841 
L 296.157135 232.708862 
L 296.360171 190.600578 
L 296.563207 229.581477 
L 296.969279 192.590765 
L 297.172315 240.675596 
L 297.375351 162.998733 
L 297.578386 205.115544 
L 297.781422 188.839464 
L 297.984458 197.13271 
L 298.187494 195.142147 
L 298.39053 244.979786 
L 298.593566 161.779759 
L 298.796602 202.19247 
L 298.999638 206.875429 
L 299.202674 195.684433 
L 299.40571 197.568183 
L 299.608746 243.960282 
L 299.811782 230.554074 
L 300.014818 197.219052 
L 300.217854 233.538783 
L 300.42089 214.241196 
L 300.623926 249.99987 
L 300.826962 241.142037 
L 301.029998 161.208731 
L 302.045178 255.268244 
L 302.248214 188.24817 
L 302.45125 212.602408 
L 302.857322 229.531898 
L 303.060358 215.695452 
L 303.263394 235.15127 
L 303.46643 197.591959 
L 303.669466 193.541816 
L 303.872502 239.783977 
L 304.075538 245.44236 
L 304.278574 194.053731 
L 304.48161 250.185274 
L 304.887682 172.44063 
L 305.090718 223.953833 
L 305.293754 199.084771 
L 305.49679 208.871738 
L 305.699826 231.255489 
L 305.902862 165.863019 
L 306.308934 223.422165 
L 306.51197 204.07929 
L 306.715006 167.744509 
L 306.918042 212.198699 
L 307.324114 223.549544 
L 307.52715 210.892622 
L 307.730186 207.673001 
L 307.933222 200.343733 
L 308.136258 183.15912 
L 308.339294 229.175797 
L 308.54233 214.3927 
L 308.745366 232.04437 
L 308.948402 199.463386 
L 309.151438 201.512281 
L 309.354474 189.642067 
L 309.55751 206.706855 
L 309.760546 189.706616 
L 310.166618 230.791952 
L 310.369654 234.11201 
L 310.57269 193.643685 
L 310.775726 224.346072 
L 310.978762 190.793619 
L 311.181798 205.392974 
L 311.384834 197.693767 
L 311.58787 214.260189 
L 311.790906 170.178739 
L 311.993942 216.090553 
L 312.196978 212.174003 
L 312.400014 188.304188 
L 312.60305 224.466252 
L 312.806086 175.461446 
L 313.009122 240.403212 
L 313.212158 204.060999 
L 313.415194 254.244131 
L 313.61823 150.016625 
L 313.821266 195.386264 
L 314.024302 180.844092 
L 314.227338 216.720676 
L 314.430374 191.519819 
L 314.63341 200.38208 
L 315.039481 180.693278 
L 315.242517 187.326259 
L 315.648589 254.876107 
L 315.851625 175.524375 
L 316.054661 210.532339 
L 316.257697 192.897724 
L 316.460733 215.955147 
L 316.663769 169.920928 
L 316.866805 172.119751 
L 317.069841 207.413603 
L 317.272877 213.517827 
L 317.475913 201.658708 
L 317.678949 217.937804 
L 317.881985 221.014346 
L 318.085021 206.092261 
L 318.288057 224.346908 
L 318.491093 189.678578 
L 318.694129 229.667665 
L 318.897165 214.452592 
L 319.100201 232.632713 
L 319.303237 225.955621 
L 319.506273 201.046769 
L 319.709309 198.684836 
L 319.912345 185.697679 
L 320.115381 222.493995 
L 320.318417 156.950563 
L 320.521453 241.130967 
L 320.724489 201.577191 
L 320.927525 245.193161 
L 321.130561 242.709522 
L 321.536633 182.046343 
L 321.739669 164.316869 
L 321.942705 211.430191 
L 322.145741 214.104622 
L 322.348777 211.085034 
L 322.551813 151.103544 
L 322.754849 214.604887 
L 322.957885 220.90502 
L 323.160921 244.835954 
L 323.363957 227.594435 
L 323.566993 191.316855 
L 323.770029 201.110088 
L 323.973065 266.679676 
L 324.176101 217.32958 
L 324.379137 207.676239 
L 324.582173 174.831058 
L 324.785209 187.588365 
L 324.988245 178.182174 
L 325.191281 221.739241 
L 325.394317 183.83722 
L 325.597353 227.379806 
L 325.800389 200.919196 
L 326.003425 209.958695 
L 326.206461 231.405198 
L 326.409497 206.423539 
L 326.612533 200.287057 
L 326.815569 176.759998 
L 327.018605 196.365613 
L 327.221641 234.829073 
L 327.424677 161.45156 
L 327.627713 201.696916 
L 327.830749 193.210252 
L 328.033785 240.491411 
L 328.439857 179.814275 
L 328.845929 240.47315 
L 329.048965 268.063604 
L 329.252001 206.556733 
L 329.455037 196.878602 
L 329.658073 231.423037 
L 329.861109 180.853001 
L 330.064145 258.883892 
L 330.267181 198.670853 
L 330.470217 226.438742 
L 330.673253 282.998583 
L 330.876289 198.726238 
L 331.079325 232.01989 
L 331.282361 242.446573 
L 331.485397 200.65806 
L 331.688433 203.390823 
L 331.891469 200.618247 
L 332.094505 181.150922 
L 332.500576 229.314377 
L 332.703612 218.604799 
L 332.906648 185.223184 
L 333.109684 175.716943 
L 333.31272 250.483887 
L 333.515756 193.077113 
L 333.718792 189.530879 
L 333.921828 216.529085 
L 334.124864 264.334442 
L 334.530936 201.559937 
L 334.733972 266.967773 
L 335.34308 184.85711 
L 335.546116 198.24884 
L 335.749152 199.324537 
L 336.155224 209.014236 
L 336.35826 204.995076 
L 336.561296 192.539863 
L 336.764332 213.059231 
L 336.967368 262.308893 
L 337.170404 227.466294 
L 337.37344 216.548517 
L 337.576476 179.169706 
L 337.779512 216.616753 
L 337.982548 210.204841 
L 338.185584 210.453486 
L 338.38862 219.895674 
L 338.591656 277.648727 
L 338.794692 195.696909 
L 338.997728 224.526972 
L 339.200764 200.456902 
L 339.4038 208.614562 
L 339.606836 231.547744 
L 340.012908 198.258365 
L 340.215944 191.526708 
L 340.41898 179.117895 
L 340.622016 192.23161 
L 340.825052 221.873073 
L 341.028088 176.271639 
L 341.43416 247.752229 
L 341.637196 227.614378 
L 341.840232 166.416744 
L 342.043268 244.07167 
L 342.44934 200.223671 
L 342.652376 245.288247 
L 342.855412 216.645798 
L 343.058448 253.912143 
L 343.46452 195.686247 
L 343.667556 242.632498 
L 344.073628 192.299902 
L 344.276664 271.666235 
L 344.4797 258.352158 
L 344.682736 233.803937 
L 344.885772 192.066838 
L 345.088808 213.258047 
L 345.291844 218.479581 
L 345.49488 204.002479 
L 345.697916 220.670325 
L 345.900952 201.719363 
L 346.103988 211.403946 
L 346.307024 203.259136 
L 346.51006 176.460091 
L 346.713096 227.419611 
L 346.916132 167.27782 
L 347.119168 255.29329 
L 347.322204 228.495995 
L 347.52524 218.286984 
L 347.728276 189.081697 
L 347.931312 202.238373 
L 348.134348 234.09293 
L 348.337384 202.304784 
L 348.54042 207.336687 
L 348.743456 264.278656 
L 349.149528 212.629547 
L 349.352564 241.402309 
L 349.5556 202.815641 
L 349.758636 247.114318 
L 349.961671 190.181201 
L 350.164707 182.742523 
L 350.367743 221.698156 
L 350.570779 210.447079 
L 350.773815 216.682255 
L 350.976851 199.817066 
L 351.179887 231.892749 
L 351.382923 215.421752 
L 351.585959 230.626026 
L 351.788995 184.838897 
L 351.992031 223.658379 
L 352.195067 205.035553 
L 352.398103 230.776635 
L 352.601139 217.733561 
L 352.804175 172.586592 
L 353.007211 251.666633 
L 353.210247 217.8231 
L 353.413283 243.580951 
L 353.616319 233.829331 
L 353.819355 211.071227 
L 354.022391 204.752221 
L 354.225427 229.141199 
L 354.428463 203.911521 
L 354.631499 220.608149 
L 354.834535 207.220484 
L 355.037571 216.598727 
L 355.240607 207.507942 
L 355.646679 270.153107 
L 356.052751 194.342799 
L 356.255787 194.173475 
L 356.458823 207.752422 
L 356.661859 194.149631 
L 356.864895 198.757189 
L 357.067931 189.724186 
L 357.474003 264.146953 
L 357.677039 209.948129 
L 357.880075 202.603364 
L 358.083111 173.615441 
L 358.286147 248.125134 
L 358.692219 209.01735 
L 358.895255 157.170422 
L 359.098291 228.208605 
L 359.301327 239.877381 
L 359.504363 213.461988 
L 359.707399 247.833456 
L 359.910435 228.512573 
L 360.113471 240.476346 
L 360.316507 236.606354 
L 360.519543 212.7491 
L 360.722579 233.086773 
L 360.925615 226.598258 
L 361.128651 201.636147 
L 361.534723 228.621421 
L 361.737759 238.279537 
L 361.940795 188.662582 
L 362.143831 250.751321 
L 362.346867 180.147524 
L 362.752939 257.62085 
L 362.955975 196.909612 
L 363.159011 193.952028 
L 363.362047 215.355215 
L 363.565083 202.071191 
L 363.768119 201.021055 
L 363.971155 234.405584 
L 364.174191 176.506569 
L 364.377227 224.386072 
L 364.580263 181.412728 
L 364.783299 246.45698 
L 365.189371 211.938459 
L 365.392407 235.88133 
L 365.595443 241.726723 
L 365.798479 237.102281 
L 366.001515 225.710905 
L 366.204551 230.374613 
L 366.407587 219.769406 
L 366.610623 189.283366 
L 366.813659 188.6397 
L 367.016695 167.202859 
L 367.219731 239.937781 
L 367.422767 218.065388 
L 367.625802 213.065579 
L 367.828838 211.032555 
L 368.031874 230.97077 
L 368.23491 189.310232 
L 368.437946 194.483704 
L 368.640982 209.751812 
L 368.844018 251.775745 
L 369.047054 194.144034 
L 369.25009 217.65438 
L 369.453126 179.901765 
L 369.656162 252.861144 
L 369.859198 223.685047 
L 370.26527 200.110286 
L 370.468306 208.123831 
L 370.671342 210.138401 
L 370.874378 221.136603 
L 371.077414 171.18427 
L 371.28045 226.728544 
L 371.483486 244.230399 
L 371.686522 240.306301 
L 372.092594 218.094511 
L 372.29563 222.95688 
L 372.498666 222.608046 
L 372.701702 262.008122 
L 372.904738 193.654944 
L 373.107774 215.384435 
L 373.31081 205.136199 
L 373.513846 210.62385 
L 373.716882 239.499672 
L 373.919918 197.923756 
L 374.122954 211.224357 
L 374.32599 207.903917 
L 374.529026 238.107336 
L 374.732062 174.443605 
L 374.935098 240.586009 
L 375.138134 201.302372 
L 375.34117 252.232581 
L 375.747242 223.19651 
L 375.950278 263.611115 
L 376.153314 227.269254 
L 376.35635 223.588422 
L 376.559386 176.506231 
L 376.762422 222.553206 
L 376.965458 207.272774 
L 377.168494 235.594335 
L 377.37153 200.412618 
L 377.777602 263.939743 
L 377.980638 191.322755 
L 378.183674 205.902776 
L 378.38671 194.668947 
L 378.589746 215.367047 
L 378.792782 217.650696 
L 378.995818 191.464046 
L 379.198854 219.176956 
L 379.40189 221.633493 
L 379.604926 232.775746 
L 379.807962 214.388518 
L 380.010998 223.030544 
L 380.214034 251.480695 
L 380.41707 198.470301 
L 380.620106 241.118263 
L 380.823142 233.358882 
L 381.026178 201.619824 
L 381.229214 226.884615 
L 381.43225 204.509075 
L 381.635286 210.821239 
L 381.838322 189.01149 
L 382.041358 212.933437 
L 382.244394 198.110024 
L 382.650466 232.33327 
L 383.056538 225.040319 
L 383.259574 178.547648 
L 383.46261 210.167816 
L 383.665646 278.997103 
L 384.071718 220.4694 
L 384.274754 250.131433 
L 384.47779 229.780766 
L 384.680826 186.959733 
L 384.883862 214.422122 
L 385.086897 197.358643 
L 385.289933 198.875937 
L 385.492969 224.49024 
L 385.696005 206.704473 
L 385.899041 203.875361 
L 386.102077 239.385631 
L 386.305113 241.337458 
L 386.508149 295.488 
L 386.711185 251.01517 
L 386.914221 260.888719 
L 387.117257 204.907408 
L 387.320293 222.407955 
L 387.523329 215.992307 
L 387.726365 239.484829 
L 387.929401 237.952989 
L 388.132437 224.592261 
L 388.335473 225.589666 
L 388.538509 245.334649 
L 388.741545 201.533837 
L 388.944581 188.854263 
L 389.147617 211.940871 
L 389.350653 252.826213 
L 389.553689 219.361482 
L 389.756725 241.25637 
L 389.959761 222.180774 
L 390.162797 188.233933 
L 390.365833 218.070304 
L 390.568869 213.381084 
L 390.974941 237.828009 
L 391.177977 206.172082 
L 391.381013 212.159726 
L 391.584049 260.595623 
L 391.787085 213.424855 
L 391.990121 274.30164 
L 392.193157 229.009968 
L 392.396193 239.637388 
L 392.599229 222.686709 
L 392.802265 195.601752 
L 393.208337 242.15895 
L 393.411373 229.028365 
L 393.614409 187.556199 
L 393.817445 184.384919 
L 394.020481 211.099976 
L 394.223517 196.765823 
L 394.426553 211.552582 
L 394.629589 251.801973 
L 394.832625 221.090044 
L 395.035661 279.805398 
L 395.238697 179.937263 
L 395.441733 264.441997 
L 395.644769 214.255448 
L 395.847805 218.180639 
L 396.253877 264.33949 
L 396.456913 253.003206 
L 396.862985 178.591449 
L 397.066021 210.650644 
L 397.269057 205.045427 
L 397.472093 257.283453 
L 397.675129 212.108738 
L 397.878165 239.102212 
L 398.081201 215.289439 
L 398.284237 276.614669 
L 398.487273 228.446898 
L 398.487273 228.446898 
" style="fill:none;stroke:#1f77b4;stroke-linecap:square;stroke-width:1.5;"/>
   </g>
   <g id="line2d_17">
    <path clip-path="url(#pb4f0608723)" d="M 73.832727 53.569647 
L 114.033853 53.666191 
L 114.642961 53.722983 
L 115.049033 54.388089 
L 115.252069 54.079937 
L 115.455105 54.487535 
L 115.658141 56.038372 
L 115.861177 56.137303 
L 116.064213 57.15736 
L 116.267249 54.617709 
L 116.470285 58.936192 
L 116.673321 57.204092 
L 116.876357 56.989316 
L 117.079393 62.381779 
L 117.282429 60.784062 
L 117.485465 64.228606 
L 117.688501 62.280561 
L 117.891537 68.743921 
L 118.094573 63.803495 
L 118.297609 68.173982 
L 118.500645 62.390915 
L 118.703681 64.019443 
L 119.109753 69.687016 
L 119.312789 65.551478 
L 119.515825 66.191219 
L 119.718861 71.650835 
L 119.921897 69.539373 
L 120.124933 72.179079 
L 120.327969 69.875459 
L 120.734041 76.299693 
L 121.140113 67.330982 
L 121.343149 78.59107 
L 121.749221 70.199286 
L 121.952257 74.55056 
L 122.155293 71.107035 
L 122.561364 79.924144 
L 122.7644 71.293614 
L 123.170472 78.734557 
L 123.373508 74.993095 
L 123.576544 73.578276 
L 123.77958 75.446178 
L 123.982616 81.674119 
L 124.185652 80.288631 
L 124.388688 71.842002 
L 124.591724 69.889579 
L 124.79476 75.736342 
L 124.997796 77.024757 
L 125.403868 85.80502 
L 125.606904 85.223891 
L 125.80994 82.75335 
L 126.012976 84.41011 
L 126.216012 88.238633 
L 126.622084 76.813626 
L 126.82512 79.142795 
L 127.028156 87.639892 
L 127.231192 89.850409 
L 127.434228 80.307223 
L 127.637264 86.655825 
L 127.8403 85.565468 
L 128.043336 87.701345 
L 128.246372 94.024479 
L 128.449408 94.037524 
L 128.652444 93.555283 
L 128.85548 98.780031 
L 129.058516 91.559494 
L 129.261552 96.078671 
L 129.464588 96.543926 
L 129.667624 93.405962 
L 129.87066 93.085783 
L 130.073696 90.726905 
L 130.276732 86.620277 
L 130.479768 101.277865 
L 130.682804 85.697336 
L 130.88584 105.199498 
L 131.291912 94.576728 
L 131.494948 107.459985 
L 131.697984 105.818484 
L 131.90102 106.076402 
L 132.104056 94.412204 
L 132.307092 105.652996 
L 132.510128 103.306938 
L 132.713164 105.998657 
L 132.9162 111.031607 
L 133.119236 110.305847 
L 133.322272 100.610405 
L 133.525308 105.004093 
L 133.728344 102.358719 
L 133.93138 102.026913 
L 134.134416 113.760082 
L 134.337452 110.165335 
L 134.540488 111.683152 
L 134.94656 96.300946 
L 135.352632 103.085812 
L 135.555668 101.529412 
L 135.758704 103.031802 
L 135.96174 109.255362 
L 136.164776 109.621057 
L 136.367812 110.271984 
L 136.570848 110.147268 
L 136.773884 105.945613 
L 136.97692 109.134143 
L 137.382992 103.010201 
L 137.789064 110.980653 
L 137.9921 120.670303 
L 138.195136 112.905079 
L 138.398172 115.375256 
L 138.601208 120.33 
L 138.804244 112.965093 
L 139.00728 114.618401 
L 139.413352 104.342127 
L 139.819424 114.781963 
L 140.022459 104.952249 
L 140.225495 115.596068 
L 140.428531 107.959519 
L 140.631567 124.212437 
L 141.037639 106.670698 
L 141.240675 116.955288 
L 141.443711 120.455527 
L 141.646747 110.860625 
L 141.849783 115.832609 
L 142.052819 110.803017 
L 142.255855 115.459725 
L 142.458891 125.08816 
L 142.661927 117.042364 
L 142.864963 118.697016 
L 143.067999 116.42592 
L 143.271035 108.547811 
L 143.474071 123.620924 
L 143.677107 126.622622 
L 143.880143 116.667372 
L 144.083179 119.753106 
L 144.286215 118.363874 
L 144.489251 118.888317 
L 144.692287 118.18624 
L 144.895323 113.277257 
L 145.098359 123.123724 
L 145.301395 112.334813 
L 145.504431 110.159765 
L 145.707467 116.746332 
L 145.910503 115.742311 
L 146.113539 130.749186 
L 146.316575 114.170216 
L 146.722647 127.799867 
L 146.925683 128.765658 
L 147.128719 119.601764 
L 147.331755 123.07203 
L 147.534791 112.496101 
L 147.737827 123.743472 
L 147.940863 125.760622 
L 148.143899 114.596169 
L 148.346935 136.527196 
L 148.753007 110.704909 
L 148.956043 125.868057 
L 149.159079 127.363564 
L 149.362115 121.524083 
L 149.565151 131.049989 
L 150.174259 106.986004 
L 150.377295 111.998246 
L 150.580331 109.112426 
L 150.783367 123.378669 
L 150.986403 111.710014 
L 151.189439 108.949793 
L 151.392475 132.459467 
L 151.595511 120.533229 
L 151.798547 135.957046 
L 152.204619 118.664674 
L 152.407655 124.087972 
L 152.610691 118.016562 
L 152.813727 117.353836 
L 153.016763 126.625719 
L 153.219799 119.782136 
L 153.422835 120.770707 
L 153.625871 120.242743 
L 153.828907 131.952376 
L 154.031943 130.358919 
L 154.234979 132.891309 
L 154.438015 124.055174 
L 154.641051 107.046194 
L 154.844087 118.113473 
L 155.250159 125.086959 
L 155.453195 122.957418 
L 155.656231 133.712104 
L 155.859267 117.485857 
L 156.062303 133.742252 
L 156.671411 121.259092 
L 156.874447 121.37002 
L 157.280519 128.950328 
L 157.483554 125.989321 
L 157.68659 134.489265 
L 157.889626 119.610605 
L 158.092662 122.786775 
L 158.295698 111.932364 
L 158.498734 117.209932 
L 158.70177 127.91251 
L 158.904806 120.889661 
L 159.107842 132.50265 
L 159.310878 118.21948 
L 159.513914 132.699893 
L 159.71695 119.058485 
L 159.919986 125.864231 
L 160.123022 123.255729 
L 160.326058 131.685479 
L 160.529094 127.17978 
L 160.73213 133.127902 
L 160.935166 129.531131 
L 161.138202 137.99451 
L 161.341238 134.118992 
L 161.544274 132.609551 
L 161.74731 126.39307 
L 161.950346 138.436157 
L 162.153382 127.677847 
L 162.356418 136.519372 
L 162.559454 136.816016 
L 162.76249 132.861288 
L 163.168562 143.337891 
L 163.371598 125.547965 
L 163.574634 135.429196 
L 163.77767 134.226341 
L 163.980706 126.773802 
L 164.183742 131.533814 
L 164.386778 131.203161 
L 164.79285 135.726583 
L 164.995886 137.750803 
L 165.198922 142.131021 
L 165.401958 136.661529 
L 165.604994 118.153686 
L 165.80803 136.241425 
L 166.011066 121.933734 
L 166.214102 134.933172 
L 166.417138 131.207573 
L 166.620174 138.960847 
L 166.82321 136.793582 
L 167.026246 139.953985 
L 167.229282 130.23874 
L 167.432318 138.770227 
L 167.635354 126.008303 
L 167.83839 129.577989 
L 168.041426 130.914865 
L 168.244462 142.416332 
L 168.447498 125.639975 
L 168.650534 133.614536 
L 168.85357 124.598022 
L 169.056606 137.534856 
L 169.259642 125.156001 
L 169.462678 130.355641 
L 169.665714 128.257953 
L 169.86875 119.209967 
L 170.071786 131.094091 
L 170.274822 134.516219 
L 170.477858 130.522442 
L 170.680894 132.060842 
L 171.086966 147.563867 
L 171.290002 140.86616 
L 171.493038 142.009794 
L 171.89911 128.823671 
L 172.102146 127.501766 
L 172.305182 131.161082 
L 172.508218 141.494474 
L 172.711254 136.199956 
L 172.91429 154.252473 
L 173.117326 137.75658 
L 173.523398 136.058384 
L 173.726434 144.21412 
L 173.92947 136.305839 
L 174.132506 147.079692 
L 174.335542 148.736463 
L 174.538578 132.202553 
L 174.741614 153.932076 
L 175.147685 127.438625 
L 175.350721 139.248599 
L 175.553757 126.286169 
L 175.756793 130.412494 
L 175.959829 139.273705 
L 176.162865 142.897692 
L 176.365901 149.65202 
L 176.568937 132.171234 
L 176.771973 164.898217 
L 176.975009 150.357791 
L 177.381081 148.948312 
L 177.584117 130.277176 
L 177.787153 139.121039 
L 177.990189 141.771554 
L 178.193225 117.902977 
L 178.396261 129.40446 
L 178.599297 155.659788 
L 178.802333 133.649428 
L 179.005369 133.550448 
L 179.208405 144.771737 
L 179.411441 113.371543 
L 179.614477 113.006067 
L 179.817513 138.104758 
L 180.020549 130.347022 
L 180.223585 132.044527 
L 180.426621 150.460791 
L 180.832693 130.896362 
L 181.035729 148.469398 
L 181.238765 152.085945 
L 181.441801 131.419063 
L 181.644837 145.178906 
L 181.847873 145.497325 
L 182.050909 134.44587 
L 182.456981 145.565518 
L 182.660017 161.063885 
L 182.863053 133.928412 
L 183.066089 134.503668 
L 183.269125 142.034621 
L 183.472161 155.600256 
L 183.675197 146.830109 
L 184.081269 138.311203 
L 184.284305 155.335251 
L 184.487341 157.641252 
L 184.690377 146.452196 
L 184.893413 153.968325 
L 185.299485 144.718314 
L 185.502521 143.1823 
L 185.705557 147.069261 
L 185.908593 132.274718 
L 186.111629 128.102468 
L 186.314665 133.973322 
L 186.517701 150.773722 
L 186.720737 143.89875 
L 186.923773 163.323955 
L 187.126809 139.146104 
L 187.329845 147.627668 
L 187.532881 147.632321 
L 187.735917 148.735863 
L 187.938953 152.17906 
L 188.141989 128.812738 
L 188.345025 155.030702 
L 188.548061 147.746587 
L 188.751097 160.113459 
L 188.954133 149.639308 
L 189.157169 151.550154 
L 189.360205 166.591373 
L 189.563241 149.572548 
L 189.766277 167.769598 
L 189.969313 133.129681 
L 190.172349 163.780693 
L 190.375385 145.396444 
L 190.578421 166.823431 
L 190.781457 156.536694 
L 190.984493 139.145817 
L 191.187529 136.59675 
L 191.390565 129.299735 
L 191.593601 128.363592 
L 191.796637 152.700357 
L 191.999673 150.327247 
L 192.202709 158.802216 
L 192.405744 147.88544 
L 192.60878 157.304216 
L 192.811816 148.453109 
L 193.014852 153.64239 
L 193.217888 155.451341 
L 193.420924 136.091336 
L 193.62396 163.584711 
L 194.030032 141.244031 
L 194.233068 153.750112 
L 194.436104 137.651752 
L 194.63914 135.520797 
L 195.045212 175.033788 
L 195.248248 144.637701 
L 195.451284 149.647297 
L 195.65432 140.462477 
L 195.857356 140.001918 
L 196.060392 146.879183 
L 196.263428 165.403216 
L 196.466464 161.020018 
L 196.872536 164.510867 
L 197.075572 154.489889 
L 197.278608 170.414136 
L 197.481644 144.033824 
L 197.68468 142.777259 
L 197.887716 145.567957 
L 198.090752 154.172696 
L 198.293788 142.140309 
L 198.69986 157.390702 
L 198.902896 134.261708 
L 199.308968 155.152262 
L 199.512004 154.59678 
L 199.71504 165.792964 
L 199.918076 148.370395 
L 200.121112 157.506097 
L 200.324148 158.1884 
L 200.527184 146.710615 
L 200.73022 163.362964 
L 200.933256 158.576035 
L 201.136292 163.528377 
L 201.339328 151.953043 
L 201.542364 178.17582 
L 201.7454 146.006274 
L 201.948436 154.807493 
L 202.151472 140.544755 
L 202.354508 176.429228 
L 202.557544 171.714364 
L 202.76058 155.341666 
L 202.963616 159.340999 
L 203.166652 157.474671 
L 203.369688 146.198869 
L 203.77576 175.547754 
L 203.978796 146.510089 
L 204.181832 170.905742 
L 204.384868 144.58357 
L 204.587904 172.333058 
L 204.79094 173.948334 
L 204.993976 157.811159 
L 205.197012 157.056083 
L 205.400048 155.218716 
L 205.603084 143.964412 
L 205.80612 142.913615 
L 206.009156 184.444256 
L 206.415228 139.343466 
L 206.618264 143.10147 
L 206.8213 164.166021 
L 207.024336 142.171838 
L 207.227372 155.280381 
L 207.430408 151.718683 
L 207.633444 140.452756 
L 207.83648 161.638713 
L 208.039516 152.679968 
L 208.242552 135.392092 
L 208.85166 158.277859 
L 209.054696 171.823688 
L 209.257732 146.091747 
L 209.460768 175.475365 
L 209.663804 144.608594 
L 210.069875 165.626273 
L 210.272911 154.982191 
L 210.475947 172.206313 
L 210.678983 155.742323 
L 210.882019 153.890434 
L 211.085055 147.548184 
L 211.288091 163.320626 
L 211.491127 153.710368 
L 211.694163 166.046831 
L 211.897199 151.537186 
L 212.100235 164.795671 
L 212.303271 142.706753 
L 212.506307 169.494072 
L 212.709343 156.009897 
L 212.912379 155.29379 
L 213.115415 178.069241 
L 213.318451 178.129247 
L 213.521487 173.949919 
L 213.724523 172.254619 
L 213.927559 179.447675 
L 214.130595 156.088146 
L 214.333631 161.684605 
L 214.536667 175.662464 
L 214.739703 157.292032 
L 214.942739 177.36416 
L 215.145775 180.111952 
L 215.348811 146.061785 
L 215.551847 157.403302 
L 215.754883 190.446399 
L 215.957919 162.237928 
L 216.160955 173.011242 
L 216.363991 155.010934 
L 216.567027 165.181712 
L 216.770063 157.646417 
L 216.973099 171.875698 
L 217.176135 175.675568 
L 217.379171 174.082849 
L 217.582207 179.632986 
L 217.988279 156.895703 
L 218.191315 164.933774 
L 218.394351 160.057299 
L 218.597387 137.97774 
L 218.800423 188.766759 
L 219.003459 155.137289 
L 219.206495 161.033816 
L 219.409531 154.892654 
L 219.612567 143.738725 
L 219.815603 171.960151 
L 220.018639 149.756134 
L 220.221675 164.931629 
L 220.424711 163.746421 
L 220.627747 136.185132 
L 220.830783 170.005523 
L 221.033819 168.308084 
L 221.236855 173.807986 
L 221.439891 173.093993 
L 221.642927 167.629019 
L 221.845963 173.856957 
L 222.048999 156.922564 
L 222.252035 154.337436 
L 222.455071 191.404565 
L 223.064179 165.416464 
L 223.267215 193.960714 
L 223.470251 183.710841 
L 223.673287 166.258174 
L 223.876323 175.511188 
L 224.079359 179.42812 
L 224.282395 159.851207 
L 224.485431 155.231709 
L 224.891503 180.086468 
L 225.094539 151.650144 
L 225.500611 179.118487 
L 225.703647 146.33925 
L 225.906683 142.376258 
L 226.109719 166.672381 
L 226.515791 155.183981 
L 226.718827 171.654436 
L 226.921863 154.419246 
L 227.124899 179.906748 
L 227.327935 152.267998 
L 227.53097 153.974719 
L 227.734006 162.354618 
L 227.937042 162.650085 
L 228.140078 184.869252 
L 228.343114 189.712085 
L 228.749186 162.577509 
L 228.952222 164.855783 
L 229.155258 160.125142 
L 229.358294 167.876756 
L 229.56133 153.62557 
L 229.764366 153.54131 
L 229.967402 175.045946 
L 230.170438 173.251222 
L 230.373474 153.257311 
L 230.57651 185.731162 
L 230.779546 179.206487 
L 230.982582 157.436317 
L 231.185618 175.306502 
L 231.388654 155.505307 
L 231.59169 202.397109 
L 231.794726 168.249925 
L 231.997762 162.358433 
L 232.200798 148.218033 
L 232.403834 181.482688 
L 232.60687 195.718935 
L 232.809906 176.795885 
L 233.012942 175.207065 
L 233.215978 182.384974 
L 233.419014 178.328418 
L 233.62205 183.141458 
L 233.825086 163.535193 
L 234.231158 192.103849 
L 234.434194 158.40055 
L 234.63723 197.443173 
L 234.840266 163.751512 
L 235.043302 167.097341 
L 235.246338 148.002283 
L 235.449374 202.113227 
L 235.65241 184.333331 
L 235.855446 180.529243 
L 236.058482 167.183608 
L 236.261518 192.932083 
L 236.464554 160.540451 
L 236.66759 174.95909 
L 236.870626 198.308247 
L 237.276698 161.415707 
L 237.479734 158.950128 
L 237.68277 165.67015 
L 237.885806 167.849485 
L 238.088842 147.130931 
L 238.291878 153.350824 
L 238.494914 166.889331 
L 238.69795 207.086402 
L 239.104022 175.391632 
L 239.307058 196.42115 
L 239.510094 202.243507 
L 239.71313 198.088815 
L 239.916166 166.52274 
L 240.119202 189.831605 
L 240.322238 188.966566 
L 240.525274 200.920359 
L 240.72831 186.565941 
L 240.931346 154.290015 
L 241.337418 164.793125 
L 241.540454 165.072182 
L 241.946526 180.315204 
L 242.149562 181.608053 
L 242.352598 193.001123 
L 242.555634 178.010129 
L 242.75867 198.141011 
L 242.961706 173.189527 
L 243.164742 202.964341 
L 243.367778 165.983099 
L 243.570814 169.118624 
L 243.77385 176.358805 
L 243.976886 167.364509 
L 244.179922 184.841418 
L 244.382958 186.956681 
L 244.585994 172.187454 
L 244.78903 172.134574 
L 244.992065 176.799874 
L 245.195101 175.130374 
L 245.398137 177.467533 
L 245.601173 185.438933 
L 245.804209 174.637578 
L 246.007245 171.978787 
L 246.413317 182.529377 
L 246.616353 183.330384 
L 246.819389 180.345632 
L 247.022425 185.354658 
L 247.225461 185.19698 
L 247.428497 194.418248 
L 247.631533 175.682927 
L 247.834569 195.463312 
L 248.240641 166.428359 
L 248.443677 203.036571 
L 248.646713 177.706727 
L 248.849749 171.564092 
L 249.052785 208.35339 
L 249.255821 172.606872 
L 249.458857 199.560692 
L 249.661893 189.372041 
L 249.864929 160.700582 
L 250.067965 180.830823 
L 250.271001 187.591286 
L 250.474037 184.142811 
L 250.677073 206.713179 
L 250.880109 181.139143 
L 251.083145 189.169002 
L 251.286181 171.368271 
L 251.489217 167.872276 
L 251.692253 183.46674 
L 251.895289 171.12432 
L 252.098325 193.609606 
L 252.301361 201.939868 
L 252.504397 167.106313 
L 252.707433 190.21658 
L 252.910469 180.72681 
L 253.113505 190.646576 
L 253.316541 174.709855 
L 253.519577 203.002838 
L 253.722613 178.302366 
L 253.925649 196.604893 
L 254.128685 147.035294 
L 254.331721 197.249147 
L 254.534757 163.221614 
L 254.737793 193.361559 
L 254.940829 171.525656 
L 255.143865 180.257983 
L 255.346901 211.964927 
L 255.549937 175.483601 
L 255.752973 209.547156 
L 255.956009 182.72071 
L 256.159045 178.901935 
L 256.362081 169.966905 
L 256.565117 192.141449 
L 256.768153 187.607157 
L 256.971189 204.132502 
L 257.174225 199.784923 
L 257.377261 182.298188 
L 257.580297 179.81962 
L 257.783333 170.585839 
L 257.986369 172.090067 
L 258.189405 179.986037 
L 258.392441 168.919507 
L 258.595477 210.377375 
L 258.798513 158.704677 
L 259.001549 196.059115 
L 259.204585 201.062198 
L 259.407621 181.918462 
L 259.813693 206.658483 
L 260.016729 183.010959 
L 260.219765 197.726996 
L 260.422801 188.826471 
L 260.625837 190.704701 
L 260.828873 211.618231 
L 261.031909 177.775692 
L 261.234945 171.671358 
L 261.437981 200.059863 
L 261.641017 191.976556 
L 261.844053 199.65039 
L 262.047089 186.836243 
L 262.250125 189.725672 
L 262.45316 166.123096 
L 262.656196 208.353441 
L 262.859232 178.190466 
L 263.062268 164.554257 
L 263.265304 205.827971 
L 263.46834 190.610604 
L 263.671376 193.426081 
L 263.874412 202.605898 
L 264.077448 180.598432 
L 264.280484 192.890013 
L 264.48352 188.541014 
L 264.686556 199.339311 
L 264.889592 175.603432 
L 265.092628 194.675158 
L 265.4987 171.382491 
L 265.904772 194.889949 
L 266.107808 172.291898 
L 266.310844 187.370358 
L 266.51388 177.411604 
L 266.716916 186.858566 
L 266.919952 186.591787 
L 267.122988 191.085846 
L 267.326024 175.500022 
L 267.52906 193.441688 
L 267.732096 188.398234 
L 267.935132 199.605276 
L 268.138168 185.877082 
L 268.341204 198.682293 
L 268.54424 189.106054 
L 268.747276 162.182889 
L 268.950312 189.727064 
L 269.153348 183.602216 
L 269.356384 192.266414 
L 269.55942 176.703937 
L 269.762456 176.365192 
L 270.168528 199.190815 
L 270.371564 185.494296 
L 270.5746 195.212279 
L 270.777636 177.697174 
L 270.980672 196.467009 
L 271.183708 197.052717 
L 271.386744 182.688252 
L 271.58978 183.896813 
L 271.792816 204.394307 
L 271.995852 201.758934 
L 272.198888 170.18741 
L 272.401924 208.508564 
L 272.60496 189.039637 
L 272.807996 205.154671 
L 273.011032 210.832798 
L 273.214068 204.764638 
L 273.417104 187.325583 
L 273.62014 186.677917 
L 273.823176 177.337415 
L 274.026212 207.283125 
L 274.229248 189.914441 
L 274.432284 191.631092 
L 274.63532 189.201587 
L 274.838356 190.205529 
L 275.041392 177.225313 
L 275.244428 195.20451 
L 275.447464 189.581367 
L 275.6505 215.512039 
L 275.853536 202.43238 
L 276.056572 212.577112 
L 276.259608 181.592521 
L 276.462644 179.774568 
L 276.66568 180.487259 
L 276.868716 173.164975 
L 277.071752 159.146851 
L 277.274788 188.674369 
L 277.477824 201.480287 
L 277.68086 192.829445 
L 277.883896 172.892833 
L 278.289968 219.554688 
L 278.69604 188.429229 
L 278.899076 210.147445 
L 279.102112 206.714643 
L 279.305148 169.209349 
L 279.508184 161.947544 
L 279.71122 185.902868 
L 279.914256 177.722212 
L 280.117291 201.046939 
L 280.320327 190.854524 
L 280.523363 200.347742 
L 280.726399 194.431014 
L 280.929435 197.43864 
L 281.132471 193.240212 
L 281.335507 181.360713 
L 281.538543 180.554498 
L 281.741579 200.207053 
L 281.944615 203.73813 
L 282.350687 143.458992 
L 282.553723 206.97645 
L 282.756759 202.597699 
L 282.959795 217.875187 
L 283.162831 208.34854 
L 283.365867 178.974565 
L 283.771939 195.125184 
L 283.974975 205.445577 
L 284.178011 199.549057 
L 284.381047 178.444399 
L 284.584083 176.806363 
L 284.787119 178.117159 
L 285.193191 218.451097 
L 285.396227 180.118262 
L 285.599263 207.020448 
L 285.802299 185.827926 
L 286.005335 202.16635 
L 286.208371 198.817692 
L 286.411407 166.707026 
L 286.614443 204.369209 
L 286.817479 206.996421 
L 287.020515 207.367881 
L 287.223551 175.952507 
L 287.629623 209.743062 
L 287.832659 199.170258 
L 288.238731 170.876142 
L 288.644803 216.557321 
L 288.847839 198.273954 
L 289.050875 204.999487 
L 289.253911 192.994233 
L 289.659983 188.389611 
L 289.863019 178.839996 
L 290.066055 196.92609 
L 290.269091 186.828928 
L 290.472127 184.4346 
L 290.675163 191.500754 
L 290.878199 185.425248 
L 291.081235 230.935701 
L 291.284271 205.683869 
L 291.487307 211.684742 
L 291.690343 195.106571 
L 291.893379 162.735527 
L 292.096415 221.818727 
L 292.299451 209.72297 
L 292.502487 183.397695 
L 292.705523 177.370945 
L 292.908559 201.025988 
L 293.111595 204.150652 
L 293.314631 194.296714 
L 293.517667 161.313256 
L 293.923739 204.88484 
L 294.126775 199.161216 
L 294.329811 204.710202 
L 294.532847 175.353641 
L 294.735883 169.797184 
L 294.938919 195.35176 
L 295.141955 180.426162 
L 295.344991 209.356986 
L 295.548027 209.513147 
L 295.751063 186.613824 
L 295.954099 182.941588 
L 296.157135 191.481033 
L 296.360171 205.364505 
L 296.766243 180.907956 
L 296.969279 203.749236 
L 297.172315 199.114064 
L 297.375351 187.978766 
L 297.578386 224.62997 
L 297.781422 227.118271 
L 297.984458 244.81385 
L 298.39053 177.368679 
L 298.593566 204.338249 
L 298.796602 181.985482 
L 298.999638 212.101625 
L 299.202674 155.964395 
L 299.40571 214.346267 
L 299.608746 181.569299 
L 299.811782 200.941218 
L 300.217854 187.922603 
L 300.42089 193.587656 
L 300.623926 212.6551 
L 300.826962 203.451913 
L 301.029998 177.085656 
L 301.233034 214.152129 
L 301.43607 203.543126 
L 301.639106 184.855986 
L 301.842142 200.134329 
L 302.045178 187.661091 
L 302.248214 228.441342 
L 302.45125 162.906874 
L 302.654286 218.275779 
L 303.060358 192.207442 
L 303.46643 204.642772 
L 303.669466 211.939828 
L 303.872502 178.634245 
L 304.075538 207.844772 
L 304.278574 211.805303 
L 304.48161 209.336307 
L 304.887682 200.924454 
L 305.090718 226.64471 
L 305.293754 210.55734 
L 305.49679 215.858559 
L 305.699826 199.595351 
L 305.902862 157.169286 
L 306.105898 207.703532 
L 306.308934 208.172904 
L 306.51197 192.968353 
L 306.918042 201.340486 
L 307.121078 199.138659 
L 307.324114 182.127924 
L 307.52715 184.831617 
L 307.933222 208.817708 
L 308.339294 183.14675 
L 308.54233 179.112246 
L 308.745366 193.718658 
L 308.948402 183.550828 
L 309.151438 211.896506 
L 309.354474 165.493711 
L 309.55751 194.001964 
L 309.760546 196.532317 
L 309.963582 193.277653 
L 310.166618 185.520344 
L 310.369654 239.065657 
L 310.57269 192.617428 
L 310.775726 211.207686 
L 310.978762 190.410115 
L 311.181798 185.886825 
L 311.384834 230.494323 
L 311.58787 211.081534 
L 311.790906 205.78177 
L 311.993942 195.929633 
L 312.196978 214.001205 
L 312.60305 203.630213 
L 312.806086 222.104635 
L 313.009122 211.634336 
L 313.212158 183.386612 
L 313.415194 190.308872 
L 313.61823 243.479578 
L 313.821266 235.095194 
L 314.024302 232.551108 
L 314.227338 192.452653 
L 314.430374 207.104626 
L 314.63341 183.043371 
L 314.836446 205.530337 
L 315.039481 188.812995 
L 315.242517 202.869471 
L 315.445553 186.561124 
L 315.648589 209.386206 
L 315.851625 188.181688 
L 316.054661 196.883482 
L 316.257697 191.105972 
L 316.460733 203.47671 
L 316.663769 167.463855 
L 316.866805 177.873066 
L 317.069841 217.962871 
L 317.272877 191.802643 
L 317.475913 210.604216 
L 317.678949 194.324594 
L 317.881985 229.053449 
L 318.085021 186.827542 
L 318.288057 194.178817 
L 318.491093 194.087455 
L 318.694129 228.619417 
L 318.897165 206.515447 
L 319.100201 208.588703 
L 319.303237 206.938971 
L 319.506273 221.805739 
L 319.709309 222.681759 
L 319.912345 177.849419 
L 320.115381 220.285548 
L 320.318417 231.483107 
L 320.521453 177.454968 
L 320.724489 181.663215 
L 320.927525 217.413534 
L 321.130561 200.351411 
L 321.536633 212.229428 
L 321.739669 201.465709 
L 321.942705 208.72157 
L 322.145741 205.652963 
L 322.348777 177.245042 
L 322.754849 213.643038 
L 322.957885 223.994053 
L 323.363957 194.154586 
L 323.566993 197.817074 
L 323.770029 195.648895 
L 323.973065 218.296415 
L 324.176101 207.722981 
L 324.379137 213.76085 
L 324.988245 190.989479 
L 325.191281 209.736145 
L 325.394317 208.874184 
L 325.597353 194.892733 
L 325.800389 207.898416 
L 326.003425 201.801487 
L 326.206461 212.565415 
L 326.409497 185.290434 
L 326.612533 219.909603 
L 326.815569 212.815599 
L 327.018605 190.280965 
L 327.221641 193.058621 
L 327.424677 219.20724 
L 327.627713 190.504017 
L 327.830749 192.480935 
L 328.033785 200.176405 
L 328.236821 194.194071 
L 328.439857 280.675324 
L 328.642893 203.527305 
L 328.845929 175.087128 
L 329.048965 200.909066 
L 329.252001 209.554005 
L 329.455037 176.433895 
L 329.658073 183.341863 
L 329.861109 185.085671 
L 330.064145 193.639558 
L 330.267181 181.867704 
L 330.470217 231.540774 
L 330.673253 237.250275 
L 330.876289 177.375011 
L 331.079325 186.827329 
L 331.282361 218.56671 
L 331.485397 200.01087 
L 331.688433 160.619167 
L 331.891469 226.548216 
L 332.094505 183.437076 
L 332.297541 185.720795 
L 332.500576 208.183763 
L 332.703612 199.799248 
L 332.906648 199.394926 
L 333.109684 188.450378 
L 333.31272 199.586206 
L 333.515756 226.359729 
L 333.718792 192.723067 
L 333.921828 201.097179 
L 334.3279 169.834949 
L 334.530936 202.219326 
L 334.733972 211.383826 
L 334.937008 192.389913 
L 335.140044 197.069072 
L 335.34308 217.544285 
L 335.546116 258.682784 
L 335.749152 219.331182 
L 335.952188 213.178879 
L 336.561296 231.330989 
L 336.764332 207.453884 
L 336.967368 207.294442 
L 337.170404 211.337606 
L 337.37344 208.48481 
L 337.779512 225.32711 
L 337.982548 250.19722 
L 338.185584 236.198019 
L 338.38862 210.017599 
L 338.591656 228.612115 
L 338.794692 208.116504 
L 338.997728 214.297833 
L 339.200764 231.106702 
L 339.4038 208.612531 
L 339.606836 225.917768 
L 339.809872 203.14152 
L 340.012908 217.45841 
L 340.215944 165.748129 
L 340.41898 210.79935 
L 340.622016 211.65356 
L 340.825052 191.836601 
L 341.028088 220.183811 
L 341.231124 225.423826 
L 341.637196 188.579084 
L 341.840232 223.927252 
L 342.043268 223.483939 
L 342.246304 209.621094 
L 342.44934 215.205097 
L 342.652376 241.746963 
L 342.855412 210.152684 
L 343.058448 196.339227 
L 343.261484 205.274796 
L 343.46452 204.133698 
L 343.667556 205.609041 
L 343.870592 184.237864 
L 344.073628 228.107987 
L 344.276664 223.322774 
L 344.4797 241.044772 
L 344.682736 210.851799 
L 344.885772 238.059006 
L 345.088808 194.220948 
L 345.291844 184.764538 
L 345.49488 222.726255 
L 345.697916 200.644123 
L 345.900952 217.616483 
L 346.103988 212.160728 
L 346.51006 243.075396 
L 346.713096 221.173042 
L 346.916132 219.785312 
L 347.119168 220.904224 
L 347.322204 207.092918 
L 347.52524 252.716249 
L 347.728276 213.45343 
L 347.931312 198.976128 
L 348.134348 207.920573 
L 348.337384 205.788421 
L 348.54042 201.613998 
L 348.743456 211.373274 
L 348.946492 210.387963 
L 349.149528 204.134127 
L 349.352564 212.830194 
L 349.5556 178.524246 
L 349.758636 207.287935 
L 349.961671 197.302769 
L 350.164707 219.066964 
L 350.773815 183.418625 
L 350.976851 227.833317 
L 351.179887 217.107393 
L 351.382923 180.762385 
L 351.585959 232.406349 
L 351.788995 185.774523 
L 351.992031 223.582647 
L 352.195067 180.888253 
L 352.398103 206.668192 
L 352.601139 178.594448 
L 353.007211 224.466537 
L 353.210247 225.478613 
L 353.413283 184.33969 
L 353.616319 217.364185 
L 354.022391 238.535236 
L 354.225427 198.665259 
L 354.428463 226.974142 
L 354.631499 205.861649 
L 354.834535 215.261659 
L 355.037571 211.133679 
L 355.240607 229.00944 
L 355.443643 223.526982 
L 355.646679 225.457897 
L 355.849715 196.177144 
L 356.052751 241.39354 
L 356.255787 184.757001 
L 356.458823 222.306772 
L 356.661859 225.703204 
L 356.864895 210.064226 
L 357.067931 215.179164 
L 357.270967 239.806367 
L 357.474003 246.766244 
L 357.880075 174.99567 
L 358.083111 185.98702 
L 358.489183 235.743529 
L 358.692219 192.077459 
L 358.895255 247.987265 
L 359.098291 215.599812 
L 359.301327 213.300301 
L 359.504363 194.613101 
L 359.707399 195.137875 
L 359.910435 240.690371 
L 360.113471 217.819136 
L 360.316507 237.469548 
L 360.519543 208.128342 
L 360.722579 237.647576 
L 361.128651 199.45558 
L 361.331687 236.222501 
L 361.534723 218.935767 
L 361.940795 230.023112 
L 362.143831 224.275322 
L 362.549903 176.375333 
L 362.752939 213.386545 
L 362.955975 187.610529 
L 363.159011 225.543724 
L 363.362047 231.251162 
L 363.565083 200.681898 
L 363.768119 219.891309 
L 363.971155 194.478183 
L 364.174191 206.271042 
L 364.377227 211.363795 
L 364.580263 209.613437 
L 364.783299 235.181418 
L 364.986335 234.020717 
L 365.189371 228.772895 
L 365.392407 191.026527 
L 365.595443 241.788957 
L 365.798479 192.013572 
L 366.001515 203.735141 
L 366.204551 209.015859 
L 366.407587 205.329154 
L 366.610623 183.307825 
L 366.813659 232.608563 
L 367.016695 201.306313 
L 367.219731 228.293844 
L 367.625802 197.059118 
L 367.828838 204.507043 
L 368.031874 182.217917 
L 368.23491 222.5448 
L 368.437946 196.508563 
L 368.640982 233.393491 
L 368.844018 217.997175 
L 369.047054 222.246872 
L 369.453126 203.275267 
L 369.656162 205.521828 
L 369.859198 236.393735 
L 370.062234 203.510929 
L 370.26527 190.463717 
L 370.468306 234.814584 
L 370.671342 235.408273 
L 370.874378 238.836879 
L 371.077414 214.669879 
L 371.28045 212.887981 
L 371.483486 180.648689 
L 371.686522 191.043205 
L 371.889558 230.69313 
L 372.092594 228.502542 
L 372.29563 236.954123 
L 372.498666 190.28694 
L 372.701702 194.488325 
L 372.904738 176.67247 
L 373.107774 234.224531 
L 373.31081 196.014815 
L 373.513846 244.608605 
L 373.716882 199.204262 
L 373.919918 211.227727 
L 374.122954 197.843023 
L 374.32599 233.89215 
L 374.529026 207.676127 
L 374.732062 245.346384 
L 374.935098 223.047574 
L 375.138134 230.980058 
L 375.34117 233.743083 
L 375.544206 217.578228 
L 375.747242 224.565984 
L 375.950278 215.9411 
L 376.153314 189.8908 
L 376.35635 216.86178 
L 376.559386 228.269012 
L 376.762422 213.056844 
L 377.168494 242.79915 
L 377.37153 206.73662 
L 377.574566 219.492674 
L 377.777602 201.927716 
L 377.980638 247.241444 
L 378.183674 217.988431 
L 378.38671 239.724847 
L 378.589746 197.691145 
L 378.995818 213.865899 
L 379.40189 244.883094 
L 379.604926 237.37026 
L 379.807962 221.896576 
L 380.010998 236.406988 
L 380.214034 220.783834 
L 380.41707 214.743484 
L 380.620106 217.689768 
L 380.823142 215.542836 
L 381.026178 192.300065 
L 381.229214 226.22072 
L 381.43225 226.869034 
L 381.635286 228.477142 
L 381.838322 200.166095 
L 382.041358 228.310357 
L 382.244394 191.066044 
L 382.44743 228.247405 
L 382.650466 234.368043 
L 382.853502 212.536025 
L 383.056538 211.149559 
L 383.259574 205.204823 
L 383.46261 237.551236 
L 383.868682 201.772155 
L 384.071718 215.109776 
L 384.274754 196.87363 
L 384.47779 207.664695 
L 384.680826 204.941353 
L 384.883862 247.882739 
L 385.086897 243.52266 
L 385.289933 249.057941 
L 385.492969 214.070865 
L 385.696005 248.251546 
L 385.899041 246.385134 
L 386.102077 207.180042 
L 386.305113 206.935706 
L 386.508149 219.631368 
L 386.711185 255.247375 
L 386.914221 243.63938 
L 387.117257 197.551461 
L 387.320293 276.028696 
L 387.726365 216.900495 
L 388.132437 229.045691 
L 388.335473 220.243456 
L 388.538509 235.07518 
L 388.944581 215.275555 
L 389.147617 239.08019 
L 389.350653 243.870556 
L 389.553689 193.306587 
L 389.756725 200.808865 
L 389.959761 238.718982 
L 390.365833 187.521235 
L 390.568869 195.255176 
L 390.771905 218.720319 
L 390.974941 200.596396 
L 391.177977 225.061601 
L 391.381013 230.415695 
L 391.584049 199.996193 
L 391.787085 244.76992 
L 391.990121 219.412653 
L 392.193157 293.727858 
L 392.396193 197.521535 
L 392.599229 215.043015 
L 392.802265 185.05613 
L 393.005301 207.477729 
L 393.208337 178.251544 
L 393.411373 184.560724 
L 393.614409 235.741777 
L 393.817445 212.111072 
L 394.020481 237.381814 
L 394.223517 222.658921 
L 394.426553 235.33092 
L 394.629589 180.464528 
L 395.035661 243.273104 
L 395.238697 266.620077 
L 395.644769 204.436439 
L 395.847805 209.809705 
L 396.050841 247.776366 
L 396.456913 201.339906 
L 396.659949 237.559443 
L 396.862985 205.443196 
L 397.066021 250.19848 
L 397.269057 236.866554 
L 397.472093 248.345317 
L 397.675129 172.294891 
L 398.081201 228.376772 
L 398.487273 247.336271 
L 398.487273 247.336271 
" style="fill:none;stroke:#ff7f0e;stroke-linecap:square;stroke-width:1.5;"/>
   </g>
   <g id="patch_3">
    <path d="M 57.6 307.584 
L 57.6 41.472 
" style="fill:none;stroke:#000000;stroke-linecap:square;stroke-linejoin:miter;stroke-width:0.8;"/>
   </g>
   <g id="patch_4">
    <path d="M 414.72 307.584 
L 414.72 41.472 
" style="fill:none;stroke:#000000;stroke-linecap:square;stroke-linejoin:miter;stroke-width:0.8;"/>
   </g>
   <g id="patch_5">
    <path d="M 57.6 307.584 
L 414.72 307.584 
" style="fill:none;stroke:#000000;stroke-linecap:square;stroke-linejoin:miter;stroke-width:0.8;"/>
   </g>
   <g id="patch_6">
    <path d="M 57.6 41.472 
L 414.72 41.472 
" style="fill:none;stroke:#000000;stroke-linecap:square;stroke-linejoin:miter;stroke-width:0.8;"/>
   </g>
   <g id="legend_1">
    <g id="patch_7">
     <path d="M 303.845 78.82825 
L 407.72 78.82825 
Q 409.72 78.82825 409.72 76.82825 
L 409.72 48.472 
Q 409.72 46.472 407.72 46.472 
L 303.845 46.472 
Q 301.845 46.472 301.845 48.472 
L 301.845 76.82825 
Q 301.845 78.82825 303.845 78.82825 
z
" style="fill:#ffffff;opacity:0.8;stroke:#cccccc;stroke-linejoin:miter;"/>
    </g>
    <g id="line2d_18">
     <path d="M 305.845 54.570437 
L 325.845 54.570437 
" style="fill:none;stroke:#1f77b4;stroke-linecap:square;stroke-width:1.5;"/>
    </g>
    <g id="line2d_19"/>
    <g id="text_17">
     <!-- Train loss -->
     <g transform="translate(333.845 58.070437)scale(0.1 -0.1)">
      <defs>
       <path d="M -19 4666 
L 3928 4666 
L 3928 4134 
L 2272 4134 
L 2272 0 
L 1638 0 
L 1638 4134 
L -19 4134 
L -19 4666 
z
" id="DejaVuSans-54" transform="scale(0.015625)"/>
       <path d="M 2631 2963 
Q 2534 3019 2420 3045 
Q 2306 3072 2169 3072 
Q 1681 3072 1420 2755 
Q 1159 2438 1159 1844 
L 1159 0 
L 581 0 
L 581 3500 
L 1159 3500 
L 1159 2956 
Q 1341 3275 1631 3429 
Q 1922 3584 2338 3584 
Q 2397 3584 2469 3576 
Q 2541 3569 2628 3553 
L 2631 2963 
z
" id="DejaVuSans-72" transform="scale(0.015625)"/>
       <path d="M 2194 1759 
Q 1497 1759 1228 1600 
Q 959 1441 959 1056 
Q 959 750 1161 570 
Q 1363 391 1709 391 
Q 2188 391 2477 730 
Q 2766 1069 2766 1631 
L 2766 1759 
L 2194 1759 
z
M 3341 1997 
L 3341 0 
L 2766 0 
L 2766 531 
Q 2569 213 2275 61 
Q 1981 -91 1556 -91 
Q 1019 -91 701 211 
Q 384 513 384 1019 
Q 384 1609 779 1909 
Q 1175 2209 1959 2209 
L 2766 2209 
L 2766 2266 
Q 2766 2663 2505 2880 
Q 2244 3097 1772 3097 
Q 1472 3097 1187 3025 
Q 903 2953 641 2809 
L 641 3341 
Q 956 3463 1253 3523 
Q 1550 3584 1831 3584 
Q 2591 3584 2966 3190 
Q 3341 2797 3341 1997 
z
" id="DejaVuSans-61" transform="scale(0.015625)"/>
       <path d="M 603 3500 
L 1178 3500 
L 1178 0 
L 603 0 
L 603 3500 
z
M 603 4863 
L 1178 4863 
L 1178 4134 
L 603 4134 
L 603 4863 
z
" id="DejaVuSans-69" transform="scale(0.015625)"/>
       <path d="M 3513 2113 
L 3513 0 
L 2938 0 
L 2938 2094 
Q 2938 2591 2744 2837 
Q 2550 3084 2163 3084 
Q 1697 3084 1428 2787 
Q 1159 2491 1159 1978 
L 1159 0 
L 581 0 
L 581 3500 
L 1159 3500 
L 1159 2956 
Q 1366 3272 1645 3428 
Q 1925 3584 2291 3584 
Q 2894 3584 3203 3211 
Q 3513 2838 3513 2113 
z
" id="DejaVuSans-6e" transform="scale(0.015625)"/>
       <path id="DejaVuSans-20" transform="scale(0.015625)"/>
       <path d="M 603 4863 
L 1178 4863 
L 1178 0 
L 603 0 
L 603 4863 
z
" id="DejaVuSans-6c" transform="scale(0.015625)"/>
       <path d="M 2834 3397 
L 2834 2853 
Q 2591 2978 2328 3040 
Q 2066 3103 1784 3103 
Q 1356 3103 1142 2972 
Q 928 2841 928 2578 
Q 928 2378 1081 2264 
Q 1234 2150 1697 2047 
L 1894 2003 
Q 2506 1872 2764 1633 
Q 3022 1394 3022 966 
Q 3022 478 2636 193 
Q 2250 -91 1575 -91 
Q 1294 -91 989 -36 
Q 684 19 347 128 
L 347 722 
Q 666 556 975 473 
Q 1284 391 1588 391 
Q 1994 391 2212 530 
Q 2431 669 2431 922 
Q 2431 1156 2273 1281 
Q 2116 1406 1581 1522 
L 1381 1569 
Q 847 1681 609 1914 
Q 372 2147 372 2553 
Q 372 3047 722 3315 
Q 1072 3584 1716 3584 
Q 2034 3584 2315 3537 
Q 2597 3491 2834 3397 
z
" id="DejaVuSans-73" transform="scale(0.015625)"/>
      </defs>
      <use xlink:href="#DejaVuSans-54"/>
      <use x="46.333984" xlink:href="#DejaVuSans-72"/>
      <use x="87.447266" xlink:href="#DejaVuSans-61"/>
      <use x="148.726562" xlink:href="#DejaVuSans-69"/>
      <use x="176.509766" xlink:href="#DejaVuSans-6e"/>
      <use x="239.888672" xlink:href="#DejaVuSans-20"/>
      <use x="271.675781" xlink:href="#DejaVuSans-6c"/>
      <use x="299.458984" xlink:href="#DejaVuSans-6f"/>
      <use x="360.640625" xlink:href="#DejaVuSans-73"/>
      <use x="412.740234" xlink:href="#DejaVuSans-73"/>
     </g>
    </g>
    <g id="line2d_20">
     <path d="M 305.845 69.248562 
L 325.845 69.248562 
" style="fill:none;stroke:#ff7f0e;stroke-linecap:square;stroke-width:1.5;"/>
    </g>
    <g id="line2d_21"/>
    <g id="text_18">
     <!-- Validation loss -->
     <g transform="translate(333.845 72.748562)scale(0.1 -0.1)">
      <defs>
       <path d="M 1831 0 
L 50 4666 
L 709 4666 
L 2188 738 
L 3669 4666 
L 4325 4666 
L 2547 0 
L 1831 0 
z
" id="DejaVuSans-56" transform="scale(0.015625)"/>
       <path d="M 2906 2969 
L 2906 4863 
L 3481 4863 
L 3481 0 
L 2906 0 
L 2906 525 
Q 2725 213 2448 61 
Q 2172 -91 1784 -91 
Q 1150 -91 751 415 
Q 353 922 353 1747 
Q 353 2572 751 3078 
Q 1150 3584 1784 3584 
Q 2172 3584 2448 3432 
Q 2725 3281 2906 2969 
z
M 947 1747 
Q 947 1113 1208 752 
Q 1469 391 1925 391 
Q 2381 391 2643 752 
Q 2906 1113 2906 1747 
Q 2906 2381 2643 2742 
Q 2381 3103 1925 3103 
Q 1469 3103 1208 2742 
Q 947 2381 947 1747 
z
" id="DejaVuSans-64" transform="scale(0.015625)"/>
       <path d="M 1172 4494 
L 1172 3500 
L 2356 3500 
L 2356 3053 
L 1172 3053 
L 1172 1153 
Q 1172 725 1289 603 
Q 1406 481 1766 481 
L 2356 481 
L 2356 0 
L 1766 0 
Q 1100 0 847 248 
Q 594 497 594 1153 
L 594 3053 
L 172 3053 
L 172 3500 
L 594 3500 
L 594 4494 
L 1172 4494 
z
" id="DejaVuSans-74" transform="scale(0.015625)"/>
      </defs>
      <use xlink:href="#DejaVuSans-56"/>
      <use x="60.658203" xlink:href="#DejaVuSans-61"/>
      <use x="121.9375" xlink:href="#DejaVuSans-6c"/>
      <use x="149.720703" xlink:href="#DejaVuSans-69"/>
      <use x="177.503906" xlink:href="#DejaVuSans-64"/>
      <use x="240.980469" xlink:href="#DejaVuSans-61"/>
      <use x="302.259766" xlink:href="#DejaVuSans-74"/>
      <use x="341.46875" xlink:href="#DejaVuSans-69"/>
      <use x="369.251953" xlink:href="#DejaVuSans-6f"/>
      <use x="430.433594" xlink:href="#DejaVuSans-6e"/>
      <use x="493.8125" xlink:href="#DejaVuSans-20"/>
      <use x="525.599609" xlink:href="#DejaVuSans-6c"/>
      <use x="553.382812" xlink:href="#DejaVuSans-6f"/>
      <use x="614.564453" xlink:href="#DejaVuSans-73"/>
      <use x="666.664062" xlink:href="#DejaVuSans-73"/>
     </g>
    </g>
   </g>
  </g>
 </g>
 <defs>
  <clipPath id="pb4f0608723">
   <rect height="266.112" width="357.12" x="57.6" y="41.472"/>
  </clipPath>
 </defs>
</svg>
