<?xml version="1.0" encoding="utf-8" standalone="no"?>
<!DOCTYPE svg PUBLIC "-//W3C//DTD SVG 1.1//EN"
  "http://www.w3.org/Graphics/SVG/1.1/DTD/svg11.dtd">
<svg height="345.6pt" version="1.1" viewBox="0 0 460.8 345.6" width="460.8pt" xmlns="http://www.w3.org/2000/svg" xmlns:xlink="http://www.w3.org/1999/xlink">
 <metadata>
  <rdf:RDF xmlns:cc="http://creativecommons.org/ns#" xmlns:dc="http://purl.org/dc/elements/1.1/" xmlns:rdf="http://www.w3.org/1999/02/22-rdf-syntax-ns#">
   <cc:Work>
    <dc:type rdf:resource="http://purl.org/dc/dcmitype/StillImage"/>
    <dc:date>2021-07-14T11:02:45.002817</dc:date>
    <dc:format>image/svg+xml</dc:format>
    <dc:creator>
     <cc:Agent>
      <dc:title>Matplotlib v3.4.1, https://matplotlib.org/</dc:title>
     </cc:Agent>
    </dc:creator>
   </cc:Work>
  </rdf:RDF>
 </metadata>
 <defs>
  <style type="text/css">*{stroke-linecap:butt;stroke-linejoin:round;}</style>
 </defs>
 <g id="figure_1">
  <g id="patch_1">
   <path d="M 0 345.6 
L 460.8 345.6 
L 460.8 0 
L 0 0 
z
" style="fill:#ffffff;"/>
  </g>
  <g id="axes_1">
   <g id="patch_2">
    <path d="M 57.6 307.584 
L 414.72 307.584 
L 414.72 41.472 
L 57.6 41.472 
z
" style="fill:#ffffff;"/>
   </g>
   <g id="matplotlib.axis_1">
    <g id="xtick_1">
     <g id="line2d_1">
      <defs>
       <path d="M 0 0 
L 0 3.5 
" id="maad2bffab8" style="stroke:#000000;stroke-width:0.8;"/>
      </defs>
      <g>
       <use style="stroke:#000000;stroke-width:0.8;" x="73.019057" xlink:href="#maad2bffab8" y="307.584"/>
      </g>
     </g>
     <g id="text_1">
      <!-- 0 -->
      <g transform="translate(69.837807 322.182437)scale(0.1 -0.1)">
       <defs>
        <path d="M 2034 4250 
Q 1547 4250 1301 3770 
Q 1056 3291 1056 2328 
Q 1056 1369 1301 889 
Q 1547 409 2034 409 
Q 2525 409 2770 889 
Q 3016 1369 3016 2328 
Q 3016 3291 2770 3770 
Q 2525 4250 2034 4250 
z
M 2034 4750 
Q 2819 4750 3233 4129 
Q 3647 3509 3647 2328 
Q 3647 1150 3233 529 
Q 2819 -91 2034 -91 
Q 1250 -91 836 529 
Q 422 1150 422 2328 
Q 422 3509 836 4129 
Q 1250 4750 2034 4750 
z
" id="DejaVuSans-30" transform="scale(0.015625)"/>
       </defs>
       <use xlink:href="#DejaVuSans-30"/>
      </g>
     </g>
    </g>
    <g id="xtick_2">
     <g id="line2d_2">
      <g>
       <use style="stroke:#000000;stroke-width:0.8;" x="113.702584" xlink:href="#maad2bffab8" y="307.584"/>
      </g>
     </g>
     <g id="text_2">
      <!-- 50 -->
      <g transform="translate(107.340084 322.182437)scale(0.1 -0.1)">
       <defs>
        <path d="M 691 4666 
L 3169 4666 
L 3169 4134 
L 1269 4134 
L 1269 2991 
Q 1406 3038 1543 3061 
Q 1681 3084 1819 3084 
Q 2600 3084 3056 2656 
Q 3513 2228 3513 1497 
Q 3513 744 3044 326 
Q 2575 -91 1722 -91 
Q 1428 -91 1123 -41 
Q 819 9 494 109 
L 494 744 
Q 775 591 1075 516 
Q 1375 441 1709 441 
Q 2250 441 2565 725 
Q 2881 1009 2881 1497 
Q 2881 1984 2565 2268 
Q 2250 2553 1709 2553 
Q 1456 2553 1204 2497 
Q 953 2441 691 2322 
L 691 4666 
z
" id="DejaVuSans-35" transform="scale(0.015625)"/>
       </defs>
       <use xlink:href="#DejaVuSans-35"/>
       <use x="63.623047" xlink:href="#DejaVuSans-30"/>
      </g>
     </g>
    </g>
    <g id="xtick_3">
     <g id="line2d_3">
      <g>
       <use style="stroke:#000000;stroke-width:0.8;" x="154.386111" xlink:href="#maad2bffab8" y="307.584"/>
      </g>
     </g>
     <g id="text_3">
      <!-- 100 -->
      <g transform="translate(144.842361 322.182437)scale(0.1 -0.1)">
       <defs>
        <path d="M 794 531 
L 1825 531 
L 1825 4091 
L 703 3866 
L 703 4441 
L 1819 4666 
L 2450 4666 
L 2450 531 
L 3481 531 
L 3481 0 
L 794 0 
L 794 531 
z
" id="DejaVuSans-31" transform="scale(0.015625)"/>
       </defs>
       <use xlink:href="#DejaVuSans-31"/>
       <use x="63.623047" xlink:href="#DejaVuSans-30"/>
       <use x="127.246094" xlink:href="#DejaVuSans-30"/>
      </g>
     </g>
    </g>
    <g id="xtick_4">
     <g id="line2d_4">
      <g>
       <use style="stroke:#000000;stroke-width:0.8;" x="195.069638" xlink:href="#maad2bffab8" y="307.584"/>
      </g>
     </g>
     <g id="text_4">
      <!-- 150 -->
      <g transform="translate(185.525888 322.182437)scale(0.1 -0.1)">
       <use xlink:href="#DejaVuSans-31"/>
       <use x="63.623047" xlink:href="#DejaVuSans-35"/>
       <use x="127.246094" xlink:href="#DejaVuSans-30"/>
      </g>
     </g>
    </g>
    <g id="xtick_5">
     <g id="line2d_5">
      <g>
       <use style="stroke:#000000;stroke-width:0.8;" x="235.753165" xlink:href="#maad2bffab8" y="307.584"/>
      </g>
     </g>
     <g id="text_5">
      <!-- 200 -->
      <g transform="translate(226.209415 322.182437)scale(0.1 -0.1)">
       <defs>
        <path d="M 1228 531 
L 3431 531 
L 3431 0 
L 469 0 
L 469 531 
Q 828 903 1448 1529 
Q 2069 2156 2228 2338 
Q 2531 2678 2651 2914 
Q 2772 3150 2772 3378 
Q 2772 3750 2511 3984 
Q 2250 4219 1831 4219 
Q 1534 4219 1204 4116 
Q 875 4013 500 3803 
L 500 4441 
Q 881 4594 1212 4672 
Q 1544 4750 1819 4750 
Q 2544 4750 2975 4387 
Q 3406 4025 3406 3419 
Q 3406 3131 3298 2873 
Q 3191 2616 2906 2266 
Q 2828 2175 2409 1742 
Q 1991 1309 1228 531 
z
" id="DejaVuSans-32" transform="scale(0.015625)"/>
       </defs>
       <use xlink:href="#DejaVuSans-32"/>
       <use x="63.623047" xlink:href="#DejaVuSans-30"/>
       <use x="127.246094" xlink:href="#DejaVuSans-30"/>
      </g>
     </g>
    </g>
    <g id="xtick_6">
     <g id="line2d_6">
      <g>
       <use style="stroke:#000000;stroke-width:0.8;" x="276.436692" xlink:href="#maad2bffab8" y="307.584"/>
      </g>
     </g>
     <g id="text_6">
      <!-- 250 -->
      <g transform="translate(266.892942 322.182437)scale(0.1 -0.1)">
       <use xlink:href="#DejaVuSans-32"/>
       <use x="63.623047" xlink:href="#DejaVuSans-35"/>
       <use x="127.246094" xlink:href="#DejaVuSans-30"/>
      </g>
     </g>
    </g>
    <g id="xtick_7">
     <g id="line2d_7">
      <g>
       <use style="stroke:#000000;stroke-width:0.8;" x="317.120219" xlink:href="#maad2bffab8" y="307.584"/>
      </g>
     </g>
     <g id="text_7">
      <!-- 300 -->
      <g transform="translate(307.576469 322.182437)scale(0.1 -0.1)">
       <defs>
        <path d="M 2597 2516 
Q 3050 2419 3304 2112 
Q 3559 1806 3559 1356 
Q 3559 666 3084 287 
Q 2609 -91 1734 -91 
Q 1441 -91 1130 -33 
Q 819 25 488 141 
L 488 750 
Q 750 597 1062 519 
Q 1375 441 1716 441 
Q 2309 441 2620 675 
Q 2931 909 2931 1356 
Q 2931 1769 2642 2001 
Q 2353 2234 1838 2234 
L 1294 2234 
L 1294 2753 
L 1863 2753 
Q 2328 2753 2575 2939 
Q 2822 3125 2822 3475 
Q 2822 3834 2567 4026 
Q 2313 4219 1838 4219 
Q 1578 4219 1281 4162 
Q 984 4106 628 3988 
L 628 4550 
Q 988 4650 1302 4700 
Q 1616 4750 1894 4750 
Q 2613 4750 3031 4423 
Q 3450 4097 3450 3541 
Q 3450 3153 3228 2886 
Q 3006 2619 2597 2516 
z
" id="DejaVuSans-33" transform="scale(0.015625)"/>
       </defs>
       <use xlink:href="#DejaVuSans-33"/>
       <use x="63.623047" xlink:href="#DejaVuSans-30"/>
       <use x="127.246094" xlink:href="#DejaVuSans-30"/>
      </g>
     </g>
    </g>
    <g id="xtick_8">
     <g id="line2d_8">
      <g>
       <use style="stroke:#000000;stroke-width:0.8;" x="357.803746" xlink:href="#maad2bffab8" y="307.584"/>
      </g>
     </g>
     <g id="text_8">
      <!-- 350 -->
      <g transform="translate(348.259996 322.182437)scale(0.1 -0.1)">
       <use xlink:href="#DejaVuSans-33"/>
       <use x="63.623047" xlink:href="#DejaVuSans-35"/>
       <use x="127.246094" xlink:href="#DejaVuSans-30"/>
      </g>
     </g>
    </g>
    <g id="xtick_9">
     <g id="line2d_9">
      <g>
       <use style="stroke:#000000;stroke-width:0.8;" x="398.487273" xlink:href="#maad2bffab8" y="307.584"/>
      </g>
     </g>
     <g id="text_9">
      <!-- 400 -->
      <g transform="translate(388.943523 322.182437)scale(0.1 -0.1)">
       <defs>
        <path d="M 2419 4116 
L 825 1625 
L 2419 1625 
L 2419 4116 
z
M 2253 4666 
L 3047 4666 
L 3047 1625 
L 3713 1625 
L 3713 1100 
L 3047 1100 
L 3047 0 
L 2419 0 
L 2419 1100 
L 313 1100 
L 313 1709 
L 2253 4666 
z
" id="DejaVuSans-34" transform="scale(0.015625)"/>
       </defs>
       <use xlink:href="#DejaVuSans-34"/>
       <use x="63.623047" xlink:href="#DejaVuSans-30"/>
       <use x="127.246094" xlink:href="#DejaVuSans-30"/>
      </g>
     </g>
    </g>
    <g id="text_10">
     <!-- Epoch -->
     <g transform="translate(213.193594 339.659781)scale(0.15 -0.15)">
      <defs>
       <path d="M 628 4666 
L 3578 4666 
L 3578 4134 
L 1259 4134 
L 1259 2753 
L 3481 2753 
L 3481 2222 
L 1259 2222 
L 1259 531 
L 3634 531 
L 3634 0 
L 628 0 
L 628 4666 
z
" id="DejaVuSans-45" transform="scale(0.015625)"/>
       <path d="M 1159 525 
L 1159 -1331 
L 581 -1331 
L 581 3500 
L 1159 3500 
L 1159 2969 
Q 1341 3281 1617 3432 
Q 1894 3584 2278 3584 
Q 2916 3584 3314 3078 
Q 3713 2572 3713 1747 
Q 3713 922 3314 415 
Q 2916 -91 2278 -91 
Q 1894 -91 1617 61 
Q 1341 213 1159 525 
z
M 3116 1747 
Q 3116 2381 2855 2742 
Q 2594 3103 2138 3103 
Q 1681 3103 1420 2742 
Q 1159 2381 1159 1747 
Q 1159 1113 1420 752 
Q 1681 391 2138 391 
Q 2594 391 2855 752 
Q 3116 1113 3116 1747 
z
" id="DejaVuSans-70" transform="scale(0.015625)"/>
       <path d="M 1959 3097 
Q 1497 3097 1228 2736 
Q 959 2375 959 1747 
Q 959 1119 1226 758 
Q 1494 397 1959 397 
Q 2419 397 2687 759 
Q 2956 1122 2956 1747 
Q 2956 2369 2687 2733 
Q 2419 3097 1959 3097 
z
M 1959 3584 
Q 2709 3584 3137 3096 
Q 3566 2609 3566 1747 
Q 3566 888 3137 398 
Q 2709 -91 1959 -91 
Q 1206 -91 779 398 
Q 353 888 353 1747 
Q 353 2609 779 3096 
Q 1206 3584 1959 3584 
z
" id="DejaVuSans-6f" transform="scale(0.015625)"/>
       <path d="M 3122 3366 
L 3122 2828 
Q 2878 2963 2633 3030 
Q 2388 3097 2138 3097 
Q 1578 3097 1268 2742 
Q 959 2388 959 1747 
Q 959 1106 1268 751 
Q 1578 397 2138 397 
Q 2388 397 2633 464 
Q 2878 531 3122 666 
L 3122 134 
Q 2881 22 2623 -34 
Q 2366 -91 2075 -91 
Q 1284 -91 818 406 
Q 353 903 353 1747 
Q 353 2603 823 3093 
Q 1294 3584 2113 3584 
Q 2378 3584 2631 3529 
Q 2884 3475 3122 3366 
z
" id="DejaVuSans-63" transform="scale(0.015625)"/>
       <path d="M 3513 2113 
L 3513 0 
L 2938 0 
L 2938 2094 
Q 2938 2591 2744 2837 
Q 2550 3084 2163 3084 
Q 1697 3084 1428 2787 
Q 1159 2491 1159 1978 
L 1159 0 
L 581 0 
L 581 4863 
L 1159 4863 
L 1159 2956 
Q 1366 3272 1645 3428 
Q 1925 3584 2291 3584 
Q 2894 3584 3203 3211 
Q 3513 2838 3513 2113 
z
" id="DejaVuSans-68" transform="scale(0.015625)"/>
      </defs>
      <use xlink:href="#DejaVuSans-45"/>
      <use x="63.183594" xlink:href="#DejaVuSans-70"/>
      <use x="126.660156" xlink:href="#DejaVuSans-6f"/>
      <use x="187.841797" xlink:href="#DejaVuSans-63"/>
      <use x="242.822266" xlink:href="#DejaVuSans-68"/>
     </g>
    </g>
   </g>
   <g id="matplotlib.axis_2">
    <g id="ytick_1">
     <g id="line2d_10">
      <defs>
       <path d="M 0 0 
L -3.5 0 
" id="ma1756d33a4" style="stroke:#000000;stroke-width:0.8;"/>
      </defs>
      <g>
       <use style="stroke:#000000;stroke-width:0.8;" x="57.6" xlink:href="#ma1756d33a4" y="276.297123"/>
      </g>
     </g>
     <g id="text_11">
      <!-- −1000 -->
      <g transform="translate(16.770313 280.096341)scale(0.1 -0.1)">
       <defs>
        <path d="M 678 2272 
L 4684 2272 
L 4684 1741 
L 678 1741 
L 678 2272 
z
" id="DejaVuSans-2212" transform="scale(0.015625)"/>
       </defs>
       <use xlink:href="#DejaVuSans-2212"/>
       <use x="83.789062" xlink:href="#DejaVuSans-31"/>
       <use x="147.412109" xlink:href="#DejaVuSans-30"/>
       <use x="211.035156" xlink:href="#DejaVuSans-30"/>
       <use x="274.658203" xlink:href="#DejaVuSans-30"/>
      </g>
     </g>
    </g>
    <g id="ytick_2">
     <g id="line2d_11">
      <g>
       <use style="stroke:#000000;stroke-width:0.8;" x="57.6" xlink:href="#ma1756d33a4" y="227.621402"/>
      </g>
     </g>
     <g id="text_12">
      <!-- −800 -->
      <g transform="translate(23.132812 231.420621)scale(0.1 -0.1)">
       <defs>
        <path d="M 2034 2216 
Q 1584 2216 1326 1975 
Q 1069 1734 1069 1313 
Q 1069 891 1326 650 
Q 1584 409 2034 409 
Q 2484 409 2743 651 
Q 3003 894 3003 1313 
Q 3003 1734 2745 1975 
Q 2488 2216 2034 2216 
z
M 1403 2484 
Q 997 2584 770 2862 
Q 544 3141 544 3541 
Q 544 4100 942 4425 
Q 1341 4750 2034 4750 
Q 2731 4750 3128 4425 
Q 3525 4100 3525 3541 
Q 3525 3141 3298 2862 
Q 3072 2584 2669 2484 
Q 3125 2378 3379 2068 
Q 3634 1759 3634 1313 
Q 3634 634 3220 271 
Q 2806 -91 2034 -91 
Q 1263 -91 848 271 
Q 434 634 434 1313 
Q 434 1759 690 2068 
Q 947 2378 1403 2484 
z
M 1172 3481 
Q 1172 3119 1398 2916 
Q 1625 2713 2034 2713 
Q 2441 2713 2670 2916 
Q 2900 3119 2900 3481 
Q 2900 3844 2670 4047 
Q 2441 4250 2034 4250 
Q 1625 4250 1398 4047 
Q 1172 3844 1172 3481 
z
" id="DejaVuSans-38" transform="scale(0.015625)"/>
       </defs>
       <use xlink:href="#DejaVuSans-2212"/>
       <use x="83.789062" xlink:href="#DejaVuSans-38"/>
       <use x="147.412109" xlink:href="#DejaVuSans-30"/>
       <use x="211.035156" xlink:href="#DejaVuSans-30"/>
      </g>
     </g>
    </g>
    <g id="ytick_3">
     <g id="line2d_12">
      <g>
       <use style="stroke:#000000;stroke-width:0.8;" x="57.6" xlink:href="#ma1756d33a4" y="178.945682"/>
      </g>
     </g>
     <g id="text_13">
      <!-- −600 -->
      <g transform="translate(23.132812 182.7449)scale(0.1 -0.1)">
       <defs>
        <path d="M 2113 2584 
Q 1688 2584 1439 2293 
Q 1191 2003 1191 1497 
Q 1191 994 1439 701 
Q 1688 409 2113 409 
Q 2538 409 2786 701 
Q 3034 994 3034 1497 
Q 3034 2003 2786 2293 
Q 2538 2584 2113 2584 
z
M 3366 4563 
L 3366 3988 
Q 3128 4100 2886 4159 
Q 2644 4219 2406 4219 
Q 1781 4219 1451 3797 
Q 1122 3375 1075 2522 
Q 1259 2794 1537 2939 
Q 1816 3084 2150 3084 
Q 2853 3084 3261 2657 
Q 3669 2231 3669 1497 
Q 3669 778 3244 343 
Q 2819 -91 2113 -91 
Q 1303 -91 875 529 
Q 447 1150 447 2328 
Q 447 3434 972 4092 
Q 1497 4750 2381 4750 
Q 2619 4750 2861 4703 
Q 3103 4656 3366 4563 
z
" id="DejaVuSans-36" transform="scale(0.015625)"/>
       </defs>
       <use xlink:href="#DejaVuSans-2212"/>
       <use x="83.789062" xlink:href="#DejaVuSans-36"/>
       <use x="147.412109" xlink:href="#DejaVuSans-30"/>
       <use x="211.035156" xlink:href="#DejaVuSans-30"/>
      </g>
     </g>
    </g>
    <g id="ytick_4">
     <g id="line2d_13">
      <g>
       <use style="stroke:#000000;stroke-width:0.8;" x="57.6" xlink:href="#ma1756d33a4" y="130.269961"/>
      </g>
     </g>
     <g id="text_14">
      <!-- −400 -->
      <g transform="translate(23.132812 134.06918)scale(0.1 -0.1)">
       <use xlink:href="#DejaVuSans-2212"/>
       <use x="83.789062" xlink:href="#DejaVuSans-34"/>
       <use x="147.412109" xlink:href="#DejaVuSans-30"/>
       <use x="211.035156" xlink:href="#DejaVuSans-30"/>
      </g>
     </g>
    </g>
    <g id="ytick_5">
     <g id="line2d_14">
      <g>
       <use style="stroke:#000000;stroke-width:0.8;" x="57.6" xlink:href="#ma1756d33a4" y="81.594241"/>
      </g>
     </g>
     <g id="text_15">
      <!-- −200 -->
      <g transform="translate(23.132812 85.393459)scale(0.1 -0.1)">
       <use xlink:href="#DejaVuSans-2212"/>
       <use x="83.789062" xlink:href="#DejaVuSans-32"/>
       <use x="147.412109" xlink:href="#DejaVuSans-30"/>
       <use x="211.035156" xlink:href="#DejaVuSans-30"/>
      </g>
     </g>
    </g>
    <g id="text_16">
     <!-- Loss -->
     <g transform="translate(9.650781 190.978781)rotate(-90)scale(0.15 -0.15)">
      <defs>
       <path d="M 628 4666 
L 1259 4666 
L 1259 531 
L 3531 531 
L 3531 0 
L 628 0 
L 628 4666 
z
" id="DejaVuSans-4c" transform="scale(0.015625)"/>
       <path d="M 2834 3397 
L 2834 2853 
Q 2591 2978 2328 3040 
Q 2066 3103 1784 3103 
Q 1356 3103 1142 2972 
Q 928 2841 928 2578 
Q 928 2378 1081 2264 
Q 1234 2150 1697 2047 
L 1894 2003 
Q 2506 1872 2764 1633 
Q 3022 1394 3022 966 
Q 3022 478 2636 193 
Q 2250 -91 1575 -91 
Q 1294 -91 989 -36 
Q 684 19 347 128 
L 347 722 
Q 666 556 975 473 
Q 1284 391 1588 391 
Q 1994 391 2212 530 
Q 2431 669 2431 922 
Q 2431 1156 2273 1281 
Q 2116 1406 1581 1522 
L 1381 1569 
Q 847 1681 609 1914 
Q 372 2147 372 2553 
Q 372 3047 722 3315 
Q 1072 3584 1716 3584 
Q 2034 3584 2315 3537 
Q 2597 3491 2834 3397 
z
" id="DejaVuSans-73" transform="scale(0.015625)"/>
      </defs>
      <use xlink:href="#DejaVuSans-4c"/>
      <use x="53.962891" xlink:href="#DejaVuSans-6f"/>
      <use x="115.144531" xlink:href="#DejaVuSans-73"/>
      <use x="167.244141" xlink:href="#DejaVuSans-73"/>
     </g>
    </g>
   </g>
   <g id="line2d_15">
    <path clip-path="url(#p16c37a7ec0)" d="M 73.832727 61.934381 
L 74.646398 96.030082 
L 75.460068 115.166761 
L 76.273739 122.510353 
L 77.087409 137.569043 
L 77.90108 142.209736 
L 78.714751 143.068436 
L 79.528421 144.303269 
L 80.342092 141.466788 
L 81.155762 162.417668 
L 81.969433 154.338275 
L 83.596774 181.311235 
L 84.410444 160.320327 
L 85.224115 179.886538 
L 86.037785 163.340403 
L 86.851456 179.097295 
L 87.665126 180.793112 
L 88.478797 185.569708 
L 89.292468 187.822696 
L 90.106138 189.348132 
L 90.919809 191.591082 
L 91.733479 169.327877 
L 92.54715 200.596176 
L 93.36082 200.329526 
L 94.174491 209.528793 
L 94.988161 206.054977 
L 95.801832 204.419547 
L 96.615502 216.61455 
L 97.429173 210.757772 
L 98.242843 210.773223 
L 99.056514 214.926791 
L 99.870185 208.677451 
L 100.683855 213.193338 
L 101.497526 213.420447 
L 103.124867 235.035526 
L 103.938537 211.702658 
L 104.752208 233.737025 
L 105.565878 227.658433 
L 106.379549 229.599742 
L 107.193219 224.40814 
L 108.00689 237.233857 
L 108.82056 235.510624 
L 109.634231 227.089347 
L 110.447902 214.536217 
L 111.261572 228.784676 
L 112.075243 233.393195 
L 112.888913 228.046319 
L 113.702584 236.943031 
L 114.516254 226.91111 
L 115.329925 218.428148 
L 116.143595 224.254113 
L 116.957266 236.226673 
L 117.770936 239.000636 
L 118.584607 238.247246 
L 119.398278 233.911155 
L 120.211948 233.347655 
L 121.025619 248.888687 
L 121.839289 234.603324 
L 122.65296 230.602568 
L 123.46663 235.427664 
L 124.280301 229.593419 
L 125.093971 246.239313 
L 125.907642 234.965931 
L 126.721312 234.748651 
L 127.534983 233.793357 
L 128.348653 246.962272 
L 129.162324 242.044099 
L 129.975995 246.801571 
L 130.789665 243.017647 
L 131.603336 244.784376 
L 132.417006 245.262858 
L 133.230677 251.622036 
L 134.044347 238.805343 
L 134.858018 241.405582 
L 135.671688 254.051599 
L 136.485359 244.763389 
L 137.299029 248.435435 
L 138.1127 227.67421 
L 138.92637 251.167387 
L 139.740041 253.618572 
L 140.553712 241.286741 
L 142.181053 252.414825 
L 142.994723 245.766188 
L 143.808394 254.19855 
L 144.622064 247.266684 
L 145.435735 238.491196 
L 146.249405 248.956866 
L 147.063076 250.449471 
L 147.876746 251.599404 
L 148.690417 259.393309 
L 149.504087 249.900706 
L 150.317758 248.097884 
L 151.131429 253.972677 
L 151.945099 244.057575 
L 152.75877 249.650609 
L 153.57244 245.904498 
L 154.386111 251.109088 
L 155.199781 246.296354 
L 156.013452 255.353167 
L 156.827122 254.556453 
L 157.640793 260.571005 
L 158.454463 246.799579 
L 159.268134 249.917651 
L 160.081805 254.641321 
L 160.895475 257.121864 
L 161.709146 263.943927 
L 162.522816 245.97014 
L 163.336487 258.540713 
L 164.150157 250.000778 
L 164.963828 252.057145 
L 165.777498 256.190123 
L 166.591169 246.597326 
L 167.404839 254.533051 
L 168.21851 254.281238 
L 169.03218 257.37385 
L 169.845851 261.016085 
L 170.659522 262.394044 
L 171.473192 249.260517 
L 172.286863 251.113793 
L 173.100533 247.436879 
L 173.914204 257.703987 
L 174.727874 262.664481 
L 175.541545 254.372828 
L 176.355215 263.220962 
L 177.168886 256.928963 
L 177.982556 261.378483 
L 178.796227 251.547823 
L 179.609897 262.691286 
L 180.423568 264.073693 
L 181.237239 259.532838 
L 182.050909 246.55488 
L 182.86458 257.850561 
L 183.67825 254.731343 
L 184.491921 268.922077 
L 185.305591 265.768478 
L 186.119262 258.167629 
L 186.932932 253.460106 
L 187.746603 253.649885 
L 188.560273 250.655468 
L 189.373944 254.600306 
L 190.187614 251.653573 
L 191.001285 269.80704 
L 191.814956 272.270635 
L 192.628626 258.212045 
L 193.442297 260.400861 
L 194.255967 269.615132 
L 195.069638 262.831445 
L 195.883308 259.767531 
L 196.696979 255.177291 
L 197.510649 262.099635 
L 198.32432 255.802076 
L 199.13799 257.212181 
L 199.951661 252.504657 
L 200.765332 264.424008 
L 201.579002 266.646964 
L 202.392673 267.369348 
L 203.206343 258.948797 
L 204.020014 267.328951 
L 204.833684 249.284973 
L 205.647355 261.236291 
L 206.461025 262.568757 
L 207.274696 259.10406 
L 208.088366 264.808957 
L 208.902037 268.997904 
L 209.715707 268.580328 
L 210.529378 259.297083 
L 211.343049 264.272009 
L 212.156719 256.343842 
L 212.97039 265.275482 
L 213.78406 262.268806 
L 214.597731 260.361592 
L 215.411401 260.612122 
L 216.225072 253.13578 
L 217.038742 250.154801 
L 217.852413 263.076265 
L 218.666083 253.520438 
L 219.479754 261.936494 
L 220.293424 260.624733 
L 221.107095 251.951144 
L 221.920766 261.987688 
L 222.734436 261.058352 
L 223.548107 268.323664 
L 224.361777 257.958627 
L 225.175448 258.624561 
L 225.989118 258.405095 
L 226.802789 268.255048 
L 227.616459 258.140272 
L 228.43013 261.69501 
L 229.2438 256.420054 
L 230.057471 268.353089 
L 230.871141 265.06872 
L 231.684812 260.867954 
L 232.498483 260.873336 
L 233.312153 260.190013 
L 234.125824 259.784236 
L 234.939494 260.962835 
L 235.753165 255.343577 
L 236.566835 267.350975 
L 237.380506 260.182878 
L 238.194176 263.825911 
L 239.007847 261.151742 
L 239.821517 274.051589 
L 240.635188 272.104827 
L 241.448859 251.506745 
L 242.262529 271.14775 
L 243.0762 274.505027 
L 243.88987 256.349399 
L 244.703541 268.267988 
L 245.517211 258.156123 
L 246.330882 270.939563 
L 247.144552 277.113358 
L 247.958223 267.600499 
L 248.771893 271.378226 
L 249.585564 268.537732 
L 250.399234 265.169209 
L 251.212905 274.747198 
L 252.026576 269.85795 
L 252.840246 268.490719 
L 253.653917 276.212648 
L 254.467587 272.725442 
L 255.281258 265.764898 
L 256.094928 264.73541 
L 256.908599 263.14708 
L 257.722269 268.475047 
L 258.53594 277.482778 
L 259.34961 261.980452 
L 260.163281 270.729125 
L 260.976951 275.106317 
L 261.790622 272.212351 
L 262.604293 271.984651 
L 263.417963 261.593175 
L 264.231634 276.328472 
L 265.045304 274.709157 
L 265.858975 275.504498 
L 266.672645 268.250772 
L 267.486316 277.15287 
L 268.299986 273.05372 
L 269.113657 272.496641 
L 269.927327 279.705431 
L 270.740998 273.802841 
L 271.554668 275.251068 
L 272.368339 273.078 
L 273.18201 264.505993 
L 273.99568 265.071422 
L 274.809351 272.195195 
L 275.623021 277.447469 
L 276.436692 268.305247 
L 277.250362 280.05352 
L 278.064033 268.013759 
L 278.877703 272.463043 
L 279.691374 266.196515 
L 280.505044 275.634398 
L 281.318715 269.31579 
L 282.132386 275.284371 
L 282.946056 279.011492 
L 283.759727 286.379104 
L 284.573397 270.638653 
L 285.387068 269.945557 
L 286.200738 281.799574 
L 287.014409 274.740749 
L 287.828079 272.128623 
L 288.64175 275.655646 
L 289.45542 283.229299 
L 290.269091 267.826565 
L 291.082761 277.745071 
L 291.896432 276.16476 
L 292.710103 277.111443 
L 293.523773 276.997351 
L 294.337444 267.087383 
L 295.964785 271.757378 
L 296.778455 272.321724 
L 297.592126 277.407079 
L 298.405796 271.146893 
L 299.219467 276.117281 
L 300.033137 279.576626 
L 300.846808 274.536472 
L 301.660478 271.548803 
L 302.474149 278.02377 
L 303.28782 279.284454 
L 304.10149 279.043605 
L 304.915161 269.278359 
L 305.728831 276.719365 
L 306.542502 268.041173 
L 307.356172 276.83413 
L 308.169843 271.741649 
L 308.983513 283.5014 
L 309.797184 278.425813 
L 310.610854 272.36332 
L 311.424525 281.115185 
L 312.238195 281.373316 
L 313.051866 282.461652 
L 313.865537 281.290067 
L 314.679207 261.441324 
L 315.492878 279.368088 
L 316.306548 291.943462 
L 317.120219 286.114565 
L 317.933889 265.142785 
L 318.74756 279.636668 
L 319.56123 270.55879 
L 320.374901 270.20685 
L 321.188571 275.753334 
L 322.002242 276.769439 
L 322.815913 272.315863 
L 323.629583 275.38199 
L 324.443254 277.765153 
L 325.256924 272.49364 
L 326.070595 271.62013 
L 326.884265 276.252165 
L 327.697936 267.267132 
L 328.511606 288.981265 
L 329.325277 272.123874 
L 330.138947 277.467136 
L 330.952618 283.953221 
L 331.766288 276.626807 
L 332.579959 277.469269 
L 333.39363 278.014856 
L 334.2073 286.900515 
L 335.020971 278.947893 
L 335.834641 273.913962 
L 336.648312 275.92279 
L 337.461982 275.164417 
L 338.275653 281.91899 
L 339.089323 273.444678 
L 339.902994 269.463785 
L 341.530335 285.692089 
L 342.344005 278.947713 
L 343.157676 279.733157 
L 343.971347 274.404127 
L 344.785017 276.21387 
L 345.598688 263.753786 
L 346.412358 279.232345 
L 347.226029 278.187159 
L 348.039699 267.832151 
L 348.85337 277.624591 
L 349.66704 289.34624 
L 350.480711 288.725203 
L 351.294381 272.004882 
L 352.108052 281.111345 
L 352.921722 283.369481 
L 353.735393 280.218641 
L 354.549064 282.670783 
L 355.362734 281.03566 
L 356.176405 281.002178 
L 356.990075 282.180635 
L 357.803746 273.844879 
L 358.617416 282.027204 
L 359.431087 282.892242 
L 360.244757 271.694648 
L 361.058428 287.656997 
L 361.872098 276.639671 
L 362.685769 278.122284 
L 363.49944 295.488 
L 364.31311 278.682446 
L 365.126781 288.685239 
L 365.940451 291.553439 
L 366.754122 269.578267 
L 367.567792 276.173276 
L 368.381463 281.077956 
L 369.195133 288.025534 
L 370.008804 271.79131 
L 370.822474 284.704437 
L 371.636145 284.12487 
L 372.449815 276.35692 
L 373.263486 279.112507 
L 374.077157 278.113233 
L 374.890827 271.600412 
L 375.704498 278.716135 
L 376.518168 278.727416 
L 377.331839 278.136898 
L 378.145509 283.665116 
L 378.95918 278.857772 
L 379.77285 280.417336 
L 380.586521 282.448607 
L 381.400191 286.251511 
L 382.213862 274.752933 
L 383.027532 280.487378 
L 383.841203 279.110454 
L 384.654874 285.03348 
L 385.468544 275.977373 
L 386.282215 277.190783 
L 387.095885 273.751879 
L 387.909556 274.747544 
L 388.723226 276.842307 
L 389.536897 275.714809 
L 390.350567 283.878073 
L 391.164238 278.498407 
L 391.977908 290.340615 
L 392.791579 276.934001 
L 393.605249 282.57135 
L 394.41892 283.939044 
L 395.232591 292.454817 
L 396.046261 287.540218 
L 396.859932 272.905524 
L 397.673602 272.890244 
L 398.487273 270.794919 
L 398.487273 270.794919 
" style="fill:none;stroke:#1f77b4;stroke-linecap:square;stroke-width:1.5;"/>
   </g>
   <g id="line2d_16">
    <path clip-path="url(#p16c37a7ec0)" d="M 73.832727 53.568 
L 74.646398 99.892065 
L 75.460068 116.394328 
L 76.273739 111.304753 
L 77.087409 143.8528 
L 77.90108 155.021367 
L 78.714751 143.971267 
L 79.528421 147.335675 
L 80.342092 171.839692 
L 81.969433 177.949687 
L 82.783103 201.363957 
L 83.596774 189.892186 
L 84.410444 196.04148 
L 85.224115 207.63085 
L 86.037785 198.849229 
L 86.851456 201.317765 
L 87.665126 198.594174 
L 88.478797 215.482022 
L 89.292468 213.338903 
L 90.106138 198.505113 
L 90.919809 223.330558 
L 91.733479 223.894481 
L 92.54715 216.707154 
L 93.36082 229.452476 
L 94.174491 223.476183 
L 95.801832 228.681202 
L 96.615502 232.467847 
L 97.429173 227.469796 
L 98.242843 244.73443 
L 99.056514 234.203176 
L 99.870185 225.540764 
L 100.683855 238.838699 
L 101.497526 222.644916 
L 102.311196 234.837822 
L 103.124867 226.026313 
L 103.938537 234.286724 
L 104.752208 230.860674 
L 105.565878 219.799797 
L 106.379549 239.875005 
L 107.193219 231.765765 
L 108.00689 244.132328 
L 108.82056 241.828494 
L 109.634231 226.69632 
L 110.447902 219.727663 
L 111.261572 243.753447 
L 112.075243 241.131543 
L 112.888913 234.967508 
L 113.702584 242.281909 
L 114.516254 232.566204 
L 115.329925 237.009628 
L 116.143595 252.357834 
L 116.957266 251.595253 
L 117.770936 253.426188 
L 118.584607 236.752963 
L 119.398278 244.511742 
L 120.211948 247.051154 
L 121.025619 246.545601 
L 121.839289 238.179255 
L 122.65296 251.721755 
L 123.46663 244.090882 
L 124.280301 240.969053 
L 125.093971 246.210783 
L 125.907642 246.60494 
L 126.721312 242.196924 
L 127.534983 254.082717 
L 128.348653 248.021813 
L 129.162324 249.072141 
L 129.975995 247.16411 
L 130.789665 243.716479 
L 131.603336 244.427599 
L 132.417006 250.256499 
L 133.230677 239.262358 
L 134.044347 238.096998 
L 134.858018 236.472376 
L 135.671688 237.372401 
L 136.485359 249.992622 
L 137.299029 247.095899 
L 138.1127 255.50415 
L 138.92637 252.749699 
L 139.740041 247.018411 
L 140.553712 242.488904 
L 141.367382 249.340192 
L 142.181053 236.998747 
L 142.994723 255.641823 
L 143.808394 251.840876 
L 144.622064 257.084579 
L 145.435735 243.087176 
L 146.249405 241.252688 
L 147.063076 231.9672 
L 147.876746 246.587596 
L 148.690417 240.129411 
L 149.504087 252.93408 
L 150.317758 251.572751 
L 151.131429 246.209543 
L 151.945099 247.610975 
L 152.75877 252.224894 
L 153.57244 247.09551 
L 155.199781 240.80251 
L 156.013452 247.774365 
L 156.827122 233.496072 
L 157.640793 255.461028 
L 158.454463 252.897342 
L 159.268134 255.346202 
L 160.081805 254.153057 
L 160.895475 255.931349 
L 161.709146 254.256906 
L 162.522816 246.708668 
L 163.336487 247.769751 
L 164.150157 247.159451 
L 164.963828 251.845246 
L 165.777498 257.954815 
L 166.591169 240.006464 
L 167.404839 253.401439 
L 168.21851 264.506419 
L 169.03218 248.532486 
L 169.845851 243.598574 
L 170.659522 251.866622 
L 171.473192 245.388966 
L 172.286863 255.355492 
L 173.100533 245.167785 
L 173.914204 252.307404 
L 174.727874 255.186665 
L 175.541545 262.89967 
L 176.355215 244.757532 
L 177.168886 256.739431 
L 177.982556 253.19232 
L 178.796227 256.412638 
L 179.609897 263.164829 
L 180.423568 256.279951 
L 181.237239 252.552696 
L 182.050909 261.117984 
L 182.86458 251.071526 
L 184.491921 259.953022 
L 185.305591 259.179709 
L 186.119262 255.974155 
L 186.932932 241.675911 
L 188.560273 253.653965 
L 189.373944 254.759646 
L 190.187614 246.871342 
L 191.001285 255.809708 
L 191.814956 251.749945 
L 192.628626 248.874304 
L 193.442297 263.674495 
L 194.255967 263.005195 
L 195.069638 260.238064 
L 195.883308 267.547259 
L 196.696979 266.345052 
L 197.510649 249.626266 
L 198.32432 254.768273 
L 199.13799 256.808892 
L 199.951661 257.761023 
L 200.765332 262.697109 
L 201.579002 261.530737 
L 202.392673 268.242805 
L 203.206343 266.274565 
L 204.020014 268.910101 
L 204.833684 262.214681 
L 206.461025 252.915824 
L 207.274696 255.376176 
L 208.088366 256.492957 
L 208.902037 250.722939 
L 209.715707 255.201658 
L 210.529378 274.427515 
L 211.343049 257.516335 
L 212.156719 252.300569 
L 212.97039 261.958179 
L 213.78406 266.428843 
L 214.597731 264.065629 
L 215.411401 267.81735 
L 216.225072 270.928816 
L 217.038742 261.834716 
L 217.852413 257.839638 
L 218.666083 271.093681 
L 219.479754 260.610508 
L 220.293424 257.907704 
L 221.107095 273.470448 
L 221.920766 256.131343 
L 222.734436 263.458772 
L 223.548107 260.626272 
L 224.361777 264.71472 
L 225.175448 258.299648 
L 225.989118 276.192481 
L 226.802789 254.557924 
L 227.616459 260.818421 
L 228.43013 262.320035 
L 229.2438 266.319933 
L 230.057471 263.560096 
L 230.871141 263.146344 
L 231.684812 270.276397 
L 232.498483 253.937265 
L 233.312153 268.320467 
L 234.125824 277.348599 
L 235.753165 260.654156 
L 236.566835 257.938635 
L 237.380506 269.870434 
L 238.194176 267.551888 
L 239.007847 262.6191 
L 239.821517 273.46164 
L 240.635188 262.101164 
L 241.448859 264.872359 
L 242.262529 264.032574 
L 243.0762 260.321862 
L 243.88987 258.166705 
L 244.703541 267.31323 
L 245.517211 263.9489 
L 246.330882 256.200039 
L 247.144552 260.949768 
L 247.958223 266.799858 
L 248.771893 265.489173 
L 249.585564 263.037462 
L 250.399234 278.104962 
L 251.212905 271.789807 
L 252.026576 262.027878 
L 252.840246 271.842297 
L 253.653917 259.90889 
L 254.467587 262.345872 
L 255.281258 261.411971 
L 256.094928 274.268393 
L 256.908599 258.582152 
L 257.722269 263.733592 
L 258.53594 267.699374 
L 259.34961 273.379562 
L 260.163281 282.81464 
L 260.976951 268.037482 
L 261.790622 264.722732 
L 262.604293 271.517328 
L 263.417963 265.53763 
L 264.231634 252.747383 
L 265.858975 281.59501 
L 266.672645 274.19378 
L 267.486316 260.182271 
L 268.299986 261.046286 
L 269.113657 259.350315 
L 269.927327 270.58073 
L 270.740998 270.920439 
L 271.554668 278.415662 
L 272.368339 274.066153 
L 273.18201 271.914202 
L 273.99568 268.256258 
L 274.809351 262.021057 
L 275.623021 251.30259 
L 276.436692 281.147335 
L 277.250362 265.84581 
L 278.064033 277.364044 
L 278.877703 270.076924 
L 279.691374 269.807344 
L 280.505044 278.128413 
L 281.318715 269.75466 
L 282.132386 280.143158 
L 282.946056 271.518276 
L 283.759727 271.804864 
L 284.573397 277.422713 
L 285.387068 263.893214 
L 286.200738 269.883465 
L 287.014409 253.34542 
L 287.828079 273.112221 
L 288.64175 281.601544 
L 289.45542 276.540453 
L 290.269091 255.256007 
L 291.082761 272.590541 
L 291.896432 280.28371 
L 292.710103 274.735541 
L 293.523773 281.337514 
L 294.337444 274.671333 
L 295.151114 265.110132 
L 295.964785 279.535189 
L 296.778455 274.793859 
L 297.592126 272.066522 
L 298.405796 273.894838 
L 299.219467 273.651948 
L 300.033137 270.599205 
L 300.846808 272.138703 
L 301.660478 266.069163 
L 302.474149 276.143738 
L 303.28782 269.386815 
L 304.10149 274.2463 
L 304.915161 282.392896 
L 305.728831 273.128776 
L 306.542502 265.826298 
L 307.356172 280.545838 
L 308.169843 274.591415 
L 308.983513 276.821578 
L 309.797184 272.968307 
L 310.610854 266.64331 
L 311.424525 285.482392 
L 312.238195 273.184211 
L 313.051866 280.12189 
L 313.865537 270.061227 
L 314.679207 277.613337 
L 315.492878 282.379652 
L 317.120219 277.331135 
L 317.933889 282.991336 
L 318.74756 262.186517 
L 319.56123 280.381034 
L 320.374901 264.791971 
L 321.188571 261.420988 
L 322.002242 266.649536 
L 322.815913 269.895333 
L 323.629583 272.052592 
L 324.443254 275.401647 
L 325.256924 273.99222 
L 326.070595 274.505634 
L 326.884265 279.745913 
L 327.697936 274.559384 
L 328.511606 259.715468 
L 329.325277 265.602658 
L 330.138947 281.608252 
L 330.952618 266.997105 
L 331.766288 271.276667 
L 332.579959 268.578212 
L 333.39363 261.359347 
L 334.2073 278.203244 
L 335.020971 272.564106 
L 335.834641 269.121397 
L 336.648312 274.850314 
L 337.461982 264.594692 
L 338.275653 282.161236 
L 339.089323 277.337018 
L 339.902994 283.369533 
L 340.716664 269.306653 
L 341.530335 276.397907 
L 342.344005 273.752388 
L 343.157676 286.998401 
L 344.785017 277.762731 
L 345.598688 278.56813 
L 346.412358 274.744043 
L 347.226029 283.887917 
L 348.039699 273.658067 
L 348.85337 282.551501 
L 349.66704 265.47094 
L 350.480711 260.810897 
L 351.294381 269.921834 
L 352.108052 273.81827 
L 352.921722 282.669538 
L 353.735393 281.528435 
L 354.549064 268.313273 
L 355.362734 267.890341 
L 356.176405 275.767599 
L 356.990075 263.978826 
L 357.803746 275.497391 
L 358.617416 257.18445 
L 359.431087 267.270242 
L 360.244757 280.858738 
L 361.058428 276.991077 
L 361.872098 263.875466 
L 362.685769 287.73842 
L 363.49944 275.933972 
L 364.31311 259.97144 
L 365.126781 280.530599 
L 365.940451 275.867823 
L 366.754122 292.930174 
L 367.567792 287.275936 
L 368.381463 277.660763 
L 369.195133 274.567129 
L 370.008804 283.250617 
L 370.822474 264.213309 
L 371.636145 279.195965 
L 372.449815 283.019851 
L 373.263486 285.335096 
L 374.077157 274.266475 
L 374.890827 275.689234 
L 375.704498 268.976659 
L 376.518168 279.711768 
L 377.331839 268.704736 
L 378.145509 284.583071 
L 378.95918 275.690757 
L 379.77285 262.589451 
L 380.586521 268.101955 
L 381.400191 272.267844 
L 382.213862 270.672198 
L 383.027532 277.362621 
L 383.841203 269.597264 
L 384.654874 263.047327 
L 385.468544 259.119645 
L 386.282215 269.726179 
L 387.095885 272.492977 
L 387.909556 291.812818 
L 388.723226 280.92715 
L 389.536897 278.225055 
L 390.350567 281.488583 
L 391.164238 279.023083 
L 391.977908 275.578573 
L 392.791579 275.888019 
L 393.605249 271.547569 
L 394.41892 273.054722 
L 395.232591 271.684329 
L 396.046261 278.885785 
L 396.859932 280.763892 
L 397.673602 270.54487 
L 398.487273 282.456717 
L 398.487273 282.456717 
" style="fill:none;stroke:#ff7f0e;stroke-linecap:square;stroke-width:1.5;"/>
   </g>
   <g id="patch_3">
    <path d="M 57.6 307.584 
L 57.6 41.472 
" style="fill:none;stroke:#000000;stroke-linecap:square;stroke-linejoin:miter;stroke-width:0.8;"/>
   </g>
   <g id="patch_4">
    <path d="M 414.72 307.584 
L 414.72 41.472 
" style="fill:none;stroke:#000000;stroke-linecap:square;stroke-linejoin:miter;stroke-width:0.8;"/>
   </g>
   <g id="patch_5">
    <path d="M 57.6 307.584 
L 414.72 307.584 
" style="fill:none;stroke:#000000;stroke-linecap:square;stroke-linejoin:miter;stroke-width:0.8;"/>
   </g>
   <g id="patch_6">
    <path d="M 57.6 41.472 
L 414.72 41.472 
" style="fill:none;stroke:#000000;stroke-linecap:square;stroke-linejoin:miter;stroke-width:0.8;"/>
   </g>
   <g id="legend_1">
    <g id="patch_7">
     <path d="M 281.854375 78.82825 
L 407.72 78.82825 
Q 409.72 78.82825 409.72 76.82825 
L 409.72 48.472 
Q 409.72 46.472 407.72 46.472 
L 281.854375 46.472 
Q 279.854375 46.472 279.854375 48.472 
L 279.854375 76.82825 
Q 279.854375 78.82825 281.854375 78.82825 
z
" style="fill:#ffffff;opacity:0.8;stroke:#cccccc;stroke-linejoin:miter;"/>
    </g>
    <g id="line2d_17">
     <path d="M 283.854375 54.570437 
L 303.854375 54.570437 
" style="fill:none;stroke:#1f77b4;stroke-linecap:square;stroke-width:1.5;"/>
    </g>
    <g id="line2d_18"/>
    <g id="text_17">
     <!-- Without GradNorm -->
     <g transform="translate(311.854375 58.070437)scale(0.1 -0.1)">
      <defs>
       <path d="M 213 4666 
L 850 4666 
L 1831 722 
L 2809 4666 
L 3519 4666 
L 4500 722 
L 5478 4666 
L 6119 4666 
L 4947 0 
L 4153 0 
L 3169 4050 
L 2175 0 
L 1381 0 
L 213 4666 
z
" id="DejaVuSans-57" transform="scale(0.015625)"/>
       <path d="M 603 3500 
L 1178 3500 
L 1178 0 
L 603 0 
L 603 3500 
z
M 603 4863 
L 1178 4863 
L 1178 4134 
L 603 4134 
L 603 4863 
z
" id="DejaVuSans-69" transform="scale(0.015625)"/>
       <path d="M 1172 4494 
L 1172 3500 
L 2356 3500 
L 2356 3053 
L 1172 3053 
L 1172 1153 
Q 1172 725 1289 603 
Q 1406 481 1766 481 
L 2356 481 
L 2356 0 
L 1766 0 
Q 1100 0 847 248 
Q 594 497 594 1153 
L 594 3053 
L 172 3053 
L 172 3500 
L 594 3500 
L 594 4494 
L 1172 4494 
z
" id="DejaVuSans-74" transform="scale(0.015625)"/>
       <path d="M 544 1381 
L 544 3500 
L 1119 3500 
L 1119 1403 
Q 1119 906 1312 657 
Q 1506 409 1894 409 
Q 2359 409 2629 706 
Q 2900 1003 2900 1516 
L 2900 3500 
L 3475 3500 
L 3475 0 
L 2900 0 
L 2900 538 
Q 2691 219 2414 64 
Q 2138 -91 1772 -91 
Q 1169 -91 856 284 
Q 544 659 544 1381 
z
M 1991 3584 
L 1991 3584 
z
" id="DejaVuSans-75" transform="scale(0.015625)"/>
       <path id="DejaVuSans-20" transform="scale(0.015625)"/>
       <path d="M 3809 666 
L 3809 1919 
L 2778 1919 
L 2778 2438 
L 4434 2438 
L 4434 434 
Q 4069 175 3628 42 
Q 3188 -91 2688 -91 
Q 1594 -91 976 548 
Q 359 1188 359 2328 
Q 359 3472 976 4111 
Q 1594 4750 2688 4750 
Q 3144 4750 3555 4637 
Q 3966 4525 4313 4306 
L 4313 3634 
Q 3963 3931 3569 4081 
Q 3175 4231 2741 4231 
Q 1884 4231 1454 3753 
Q 1025 3275 1025 2328 
Q 1025 1384 1454 906 
Q 1884 428 2741 428 
Q 3075 428 3337 486 
Q 3600 544 3809 666 
z
" id="DejaVuSans-47" transform="scale(0.015625)"/>
       <path d="M 2631 2963 
Q 2534 3019 2420 3045 
Q 2306 3072 2169 3072 
Q 1681 3072 1420 2755 
Q 1159 2438 1159 1844 
L 1159 0 
L 581 0 
L 581 3500 
L 1159 3500 
L 1159 2956 
Q 1341 3275 1631 3429 
Q 1922 3584 2338 3584 
Q 2397 3584 2469 3576 
Q 2541 3569 2628 3553 
L 2631 2963 
z
" id="DejaVuSans-72" transform="scale(0.015625)"/>
       <path d="M 2194 1759 
Q 1497 1759 1228 1600 
Q 959 1441 959 1056 
Q 959 750 1161 570 
Q 1363 391 1709 391 
Q 2188 391 2477 730 
Q 2766 1069 2766 1631 
L 2766 1759 
L 2194 1759 
z
M 3341 1997 
L 3341 0 
L 2766 0 
L 2766 531 
Q 2569 213 2275 61 
Q 1981 -91 1556 -91 
Q 1019 -91 701 211 
Q 384 513 384 1019 
Q 384 1609 779 1909 
Q 1175 2209 1959 2209 
L 2766 2209 
L 2766 2266 
Q 2766 2663 2505 2880 
Q 2244 3097 1772 3097 
Q 1472 3097 1187 3025 
Q 903 2953 641 2809 
L 641 3341 
Q 956 3463 1253 3523 
Q 1550 3584 1831 3584 
Q 2591 3584 2966 3190 
Q 3341 2797 3341 1997 
z
" id="DejaVuSans-61" transform="scale(0.015625)"/>
       <path d="M 2906 2969 
L 2906 4863 
L 3481 4863 
L 3481 0 
L 2906 0 
L 2906 525 
Q 2725 213 2448 61 
Q 2172 -91 1784 -91 
Q 1150 -91 751 415 
Q 353 922 353 1747 
Q 353 2572 751 3078 
Q 1150 3584 1784 3584 
Q 2172 3584 2448 3432 
Q 2725 3281 2906 2969 
z
M 947 1747 
Q 947 1113 1208 752 
Q 1469 391 1925 391 
Q 2381 391 2643 752 
Q 2906 1113 2906 1747 
Q 2906 2381 2643 2742 
Q 2381 3103 1925 3103 
Q 1469 3103 1208 2742 
Q 947 2381 947 1747 
z
" id="DejaVuSans-64" transform="scale(0.015625)"/>
       <path d="M 628 4666 
L 1478 4666 
L 3547 763 
L 3547 4666 
L 4159 4666 
L 4159 0 
L 3309 0 
L 1241 3903 
L 1241 0 
L 628 0 
L 628 4666 
z
" id="DejaVuSans-4e" transform="scale(0.015625)"/>
       <path d="M 3328 2828 
Q 3544 3216 3844 3400 
Q 4144 3584 4550 3584 
Q 5097 3584 5394 3201 
Q 5691 2819 5691 2113 
L 5691 0 
L 5113 0 
L 5113 2094 
Q 5113 2597 4934 2840 
Q 4756 3084 4391 3084 
Q 3944 3084 3684 2787 
Q 3425 2491 3425 1978 
L 3425 0 
L 2847 0 
L 2847 2094 
Q 2847 2600 2669 2842 
Q 2491 3084 2119 3084 
Q 1678 3084 1418 2786 
Q 1159 2488 1159 1978 
L 1159 0 
L 581 0 
L 581 3500 
L 1159 3500 
L 1159 2956 
Q 1356 3278 1631 3431 
Q 1906 3584 2284 3584 
Q 2666 3584 2933 3390 
Q 3200 3197 3328 2828 
z
" id="DejaVuSans-6d" transform="scale(0.015625)"/>
      </defs>
      <use xlink:href="#DejaVuSans-57"/>
      <use x="96.626953" xlink:href="#DejaVuSans-69"/>
      <use x="124.410156" xlink:href="#DejaVuSans-74"/>
      <use x="163.619141" xlink:href="#DejaVuSans-68"/>
      <use x="226.998047" xlink:href="#DejaVuSans-6f"/>
      <use x="288.179688" xlink:href="#DejaVuSans-75"/>
      <use x="351.558594" xlink:href="#DejaVuSans-74"/>
      <use x="390.767578" xlink:href="#DejaVuSans-20"/>
      <use x="422.554688" xlink:href="#DejaVuSans-47"/>
      <use x="500.044922" xlink:href="#DejaVuSans-72"/>
      <use x="541.158203" xlink:href="#DejaVuSans-61"/>
      <use x="602.4375" xlink:href="#DejaVuSans-64"/>
      <use x="665.914062" xlink:href="#DejaVuSans-4e"/>
      <use x="740.71875" xlink:href="#DejaVuSans-6f"/>
      <use x="801.900391" xlink:href="#DejaVuSans-72"/>
      <use x="841.263672" xlink:href="#DejaVuSans-6d"/>
     </g>
    </g>
    <g id="line2d_19">
     <path d="M 283.854375 69.248562 
L 303.854375 69.248562 
" style="fill:none;stroke:#ff7f0e;stroke-linecap:square;stroke-width:1.5;"/>
    </g>
    <g id="line2d_20"/>
    <g id="text_18">
     <!-- With GradNorm -->
     <g transform="translate(311.854375 72.748562)scale(0.1 -0.1)">
      <use xlink:href="#DejaVuSans-57"/>
      <use x="96.626953" xlink:href="#DejaVuSans-69"/>
      <use x="124.410156" xlink:href="#DejaVuSans-74"/>
      <use x="163.619141" xlink:href="#DejaVuSans-68"/>
      <use x="226.998047" xlink:href="#DejaVuSans-20"/>
      <use x="258.785156" xlink:href="#DejaVuSans-47"/>
      <use x="336.275391" xlink:href="#DejaVuSans-72"/>
      <use x="377.388672" xlink:href="#DejaVuSans-61"/>
      <use x="438.667969" xlink:href="#DejaVuSans-64"/>
      <use x="502.144531" xlink:href="#DejaVuSans-4e"/>
      <use x="576.949219" xlink:href="#DejaVuSans-6f"/>
      <use x="638.130859" xlink:href="#DejaVuSans-72"/>
      <use x="677.494141" xlink:href="#DejaVuSans-6d"/>
     </g>
    </g>
   </g>
  </g>
 </g>
 <defs>
  <clipPath id="p16c37a7ec0">
   <rect height="266.112" width="357.12" x="57.6" y="41.472"/>
  </clipPath>
 </defs>
</svg>
