<?xml version="1.0" encoding="utf-8" standalone="no"?>
<!DOCTYPE svg PUBLIC "-//W3C//DTD SVG 1.1//EN"
  "http://www.w3.org/Graphics/SVG/1.1/DTD/svg11.dtd">
<svg height="345.6pt" version="1.1" viewBox="0 0 460.8 345.6" width="460.8pt" xmlns="http://www.w3.org/2000/svg" xmlns:xlink="http://www.w3.org/1999/xlink">
 <metadata>
  <rdf:RDF xmlns:cc="http://creativecommons.org/ns#" xmlns:dc="http://purl.org/dc/elements/1.1/" xmlns:rdf="http://www.w3.org/1999/02/22-rdf-syntax-ns#">
   <cc:Work>
    <dc:type rdf:resource="http://purl.org/dc/dcmitype/StillImage"/>
    <dc:date>2021-07-08T04:32:21.901552</dc:date>
    <dc:format>image/svg+xml</dc:format>
    <dc:creator>
     <cc:Agent>
      <dc:title>Matplotlib v3.4.2, https://matplotlib.org/</dc:title>
     </cc:Agent>
    </dc:creator>
   </cc:Work>
  </rdf:RDF>
 </metadata>
 <defs>
  <style type="text/css">*{stroke-linecap:butt;stroke-linejoin:round;}</style>
 </defs>
 <g id="figure_1">
  <g id="patch_1">
   <path d="M 0 345.6 
L 460.8 345.6 
L 460.8 0 
L 0 0 
z
" style="fill:#ffffff;"/>
  </g>
  <g id="axes_1">
   <g id="patch_2">
    <path d="M 57.6 307.584 
L 414.72 307.584 
L 414.72 41.472 
L 57.6 41.472 
z
" style="fill:#ffffff;"/>
   </g>
   <g id="matplotlib.axis_1">
    <g id="xtick_1">
     <g id="line2d_1">
      <defs>
       <path d="M 0 0 
L 0 3.5 
" id="meb5f0eae7d" style="stroke:#000000;stroke-width:0.8;"/>
      </defs>
      <g>
       <use style="stroke:#000000;stroke-width:0.8;" x="73.019057" xlink:href="#meb5f0eae7d" y="307.584"/>
      </g>
     </g>
     <g id="text_1">
      <!-- 0 -->
      <g transform="translate(69.837807 322.182437)scale(0.1 -0.1)">
       <defs>
        <path d="M 2034 4250 
Q 1547 4250 1301 3770 
Q 1056 3291 1056 2328 
Q 1056 1369 1301 889 
Q 1547 409 2034 409 
Q 2525 409 2770 889 
Q 3016 1369 3016 2328 
Q 3016 3291 2770 3770 
Q 2525 4250 2034 4250 
z
M 2034 4750 
Q 2819 4750 3233 4129 
Q 3647 3509 3647 2328 
Q 3647 1150 3233 529 
Q 2819 -91 2034 -91 
Q 1250 -91 836 529 
Q 422 1150 422 2328 
Q 422 3509 836 4129 
Q 1250 4750 2034 4750 
z
" id="DejaVuSans-30" transform="scale(0.015625)"/>
       </defs>
       <use xlink:href="#DejaVuSans-30"/>
      </g>
     </g>
    </g>
    <g id="xtick_2">
     <g id="line2d_2">
      <g>
       <use style="stroke:#000000;stroke-width:0.8;" x="113.702584" xlink:href="#meb5f0eae7d" y="307.584"/>
      </g>
     </g>
     <g id="text_2">
      <!-- 50 -->
      <g transform="translate(107.340084 322.182437)scale(0.1 -0.1)">
       <defs>
        <path d="M 691 4666 
L 3169 4666 
L 3169 4134 
L 1269 4134 
L 1269 2991 
Q 1406 3038 1543 3061 
Q 1681 3084 1819 3084 
Q 2600 3084 3056 2656 
Q 3513 2228 3513 1497 
Q 3513 744 3044 326 
Q 2575 -91 1722 -91 
Q 1428 -91 1123 -41 
Q 819 9 494 109 
L 494 744 
Q 775 591 1075 516 
Q 1375 441 1709 441 
Q 2250 441 2565 725 
Q 2881 1009 2881 1497 
Q 2881 1984 2565 2268 
Q 2250 2553 1709 2553 
Q 1456 2553 1204 2497 
Q 953 2441 691 2322 
L 691 4666 
z
" id="DejaVuSans-35" transform="scale(0.015625)"/>
       </defs>
       <use xlink:href="#DejaVuSans-35"/>
       <use x="63.623047" xlink:href="#DejaVuSans-30"/>
      </g>
     </g>
    </g>
    <g id="xtick_3">
     <g id="line2d_3">
      <g>
       <use style="stroke:#000000;stroke-width:0.8;" x="154.386111" xlink:href="#meb5f0eae7d" y="307.584"/>
      </g>
     </g>
     <g id="text_3">
      <!-- 100 -->
      <g transform="translate(144.842361 322.182437)scale(0.1 -0.1)">
       <defs>
        <path d="M 794 531 
L 1825 531 
L 1825 4091 
L 703 3866 
L 703 4441 
L 1819 4666 
L 2450 4666 
L 2450 531 
L 3481 531 
L 3481 0 
L 794 0 
L 794 531 
z
" id="DejaVuSans-31" transform="scale(0.015625)"/>
       </defs>
       <use xlink:href="#DejaVuSans-31"/>
       <use x="63.623047" xlink:href="#DejaVuSans-30"/>
       <use x="127.246094" xlink:href="#DejaVuSans-30"/>
      </g>
     </g>
    </g>
    <g id="xtick_4">
     <g id="line2d_4">
      <g>
       <use style="stroke:#000000;stroke-width:0.8;" x="195.069638" xlink:href="#meb5f0eae7d" y="307.584"/>
      </g>
     </g>
     <g id="text_4">
      <!-- 150 -->
      <g transform="translate(185.525888 322.182437)scale(0.1 -0.1)">
       <use xlink:href="#DejaVuSans-31"/>
       <use x="63.623047" xlink:href="#DejaVuSans-35"/>
       <use x="127.246094" xlink:href="#DejaVuSans-30"/>
      </g>
     </g>
    </g>
    <g id="xtick_5">
     <g id="line2d_5">
      <g>
       <use style="stroke:#000000;stroke-width:0.8;" x="235.753165" xlink:href="#meb5f0eae7d" y="307.584"/>
      </g>
     </g>
     <g id="text_5">
      <!-- 200 -->
      <g transform="translate(226.209415 322.182437)scale(0.1 -0.1)">
       <defs>
        <path d="M 1228 531 
L 3431 531 
L 3431 0 
L 469 0 
L 469 531 
Q 828 903 1448 1529 
Q 2069 2156 2228 2338 
Q 2531 2678 2651 2914 
Q 2772 3150 2772 3378 
Q 2772 3750 2511 3984 
Q 2250 4219 1831 4219 
Q 1534 4219 1204 4116 
Q 875 4013 500 3803 
L 500 4441 
Q 881 4594 1212 4672 
Q 1544 4750 1819 4750 
Q 2544 4750 2975 4387 
Q 3406 4025 3406 3419 
Q 3406 3131 3298 2873 
Q 3191 2616 2906 2266 
Q 2828 2175 2409 1742 
Q 1991 1309 1228 531 
z
" id="DejaVuSans-32" transform="scale(0.015625)"/>
       </defs>
       <use xlink:href="#DejaVuSans-32"/>
       <use x="63.623047" xlink:href="#DejaVuSans-30"/>
       <use x="127.246094" xlink:href="#DejaVuSans-30"/>
      </g>
     </g>
    </g>
    <g id="xtick_6">
     <g id="line2d_6">
      <g>
       <use style="stroke:#000000;stroke-width:0.8;" x="276.436692" xlink:href="#meb5f0eae7d" y="307.584"/>
      </g>
     </g>
     <g id="text_6">
      <!-- 250 -->
      <g transform="translate(266.892942 322.182437)scale(0.1 -0.1)">
       <use xlink:href="#DejaVuSans-32"/>
       <use x="63.623047" xlink:href="#DejaVuSans-35"/>
       <use x="127.246094" xlink:href="#DejaVuSans-30"/>
      </g>
     </g>
    </g>
    <g id="xtick_7">
     <g id="line2d_7">
      <g>
       <use style="stroke:#000000;stroke-width:0.8;" x="317.120219" xlink:href="#meb5f0eae7d" y="307.584"/>
      </g>
     </g>
     <g id="text_7">
      <!-- 300 -->
      <g transform="translate(307.576469 322.182437)scale(0.1 -0.1)">
       <defs>
        <path d="M 2597 2516 
Q 3050 2419 3304 2112 
Q 3559 1806 3559 1356 
Q 3559 666 3084 287 
Q 2609 -91 1734 -91 
Q 1441 -91 1130 -33 
Q 819 25 488 141 
L 488 750 
Q 750 597 1062 519 
Q 1375 441 1716 441 
Q 2309 441 2620 675 
Q 2931 909 2931 1356 
Q 2931 1769 2642 2001 
Q 2353 2234 1838 2234 
L 1294 2234 
L 1294 2753 
L 1863 2753 
Q 2328 2753 2575 2939 
Q 2822 3125 2822 3475 
Q 2822 3834 2567 4026 
Q 2313 4219 1838 4219 
Q 1578 4219 1281 4162 
Q 984 4106 628 3988 
L 628 4550 
Q 988 4650 1302 4700 
Q 1616 4750 1894 4750 
Q 2613 4750 3031 4423 
Q 3450 4097 3450 3541 
Q 3450 3153 3228 2886 
Q 3006 2619 2597 2516 
z
" id="DejaVuSans-33" transform="scale(0.015625)"/>
       </defs>
       <use xlink:href="#DejaVuSans-33"/>
       <use x="63.623047" xlink:href="#DejaVuSans-30"/>
       <use x="127.246094" xlink:href="#DejaVuSans-30"/>
      </g>
     </g>
    </g>
    <g id="xtick_8">
     <g id="line2d_8">
      <g>
       <use style="stroke:#000000;stroke-width:0.8;" x="357.803746" xlink:href="#meb5f0eae7d" y="307.584"/>
      </g>
     </g>
     <g id="text_8">
      <!-- 350 -->
      <g transform="translate(348.259996 322.182437)scale(0.1 -0.1)">
       <use xlink:href="#DejaVuSans-33"/>
       <use x="63.623047" xlink:href="#DejaVuSans-35"/>
       <use x="127.246094" xlink:href="#DejaVuSans-30"/>
      </g>
     </g>
    </g>
    <g id="xtick_9">
     <g id="line2d_9">
      <g>
       <use style="stroke:#000000;stroke-width:0.8;" x="398.487273" xlink:href="#meb5f0eae7d" y="307.584"/>
      </g>
     </g>
     <g id="text_9">
      <!-- 400 -->
      <g transform="translate(388.943523 322.182437)scale(0.1 -0.1)">
       <defs>
        <path d="M 2419 4116 
L 825 1625 
L 2419 1625 
L 2419 4116 
z
M 2253 4666 
L 3047 4666 
L 3047 1625 
L 3713 1625 
L 3713 1100 
L 3047 1100 
L 3047 0 
L 2419 0 
L 2419 1100 
L 313 1100 
L 313 1709 
L 2253 4666 
z
" id="DejaVuSans-34" transform="scale(0.015625)"/>
       </defs>
       <use xlink:href="#DejaVuSans-34"/>
       <use x="63.623047" xlink:href="#DejaVuSans-30"/>
       <use x="127.246094" xlink:href="#DejaVuSans-30"/>
      </g>
     </g>
    </g>
    <g id="text_10">
     <!-- Epoch -->
     <g transform="translate(213.193594 339.659781)scale(0.15 -0.15)">
      <defs>
       <path d="M 628 4666 
L 3578 4666 
L 3578 4134 
L 1259 4134 
L 1259 2753 
L 3481 2753 
L 3481 2222 
L 1259 2222 
L 1259 531 
L 3634 531 
L 3634 0 
L 628 0 
L 628 4666 
z
" id="DejaVuSans-45" transform="scale(0.015625)"/>
       <path d="M 1159 525 
L 1159 -1331 
L 581 -1331 
L 581 3500 
L 1159 3500 
L 1159 2969 
Q 1341 3281 1617 3432 
Q 1894 3584 2278 3584 
Q 2916 3584 3314 3078 
Q 3713 2572 3713 1747 
Q 3713 922 3314 415 
Q 2916 -91 2278 -91 
Q 1894 -91 1617 61 
Q 1341 213 1159 525 
z
M 3116 1747 
Q 3116 2381 2855 2742 
Q 2594 3103 2138 3103 
Q 1681 3103 1420 2742 
Q 1159 2381 1159 1747 
Q 1159 1113 1420 752 
Q 1681 391 2138 391 
Q 2594 391 2855 752 
Q 3116 1113 3116 1747 
z
" id="DejaVuSans-70" transform="scale(0.015625)"/>
       <path d="M 1959 3097 
Q 1497 3097 1228 2736 
Q 959 2375 959 1747 
Q 959 1119 1226 758 
Q 1494 397 1959 397 
Q 2419 397 2687 759 
Q 2956 1122 2956 1747 
Q 2956 2369 2687 2733 
Q 2419 3097 1959 3097 
z
M 1959 3584 
Q 2709 3584 3137 3096 
Q 3566 2609 3566 1747 
Q 3566 888 3137 398 
Q 2709 -91 1959 -91 
Q 1206 -91 779 398 
Q 353 888 353 1747 
Q 353 2609 779 3096 
Q 1206 3584 1959 3584 
z
" id="DejaVuSans-6f" transform="scale(0.015625)"/>
       <path d="M 3122 3366 
L 3122 2828 
Q 2878 2963 2633 3030 
Q 2388 3097 2138 3097 
Q 1578 3097 1268 2742 
Q 959 2388 959 1747 
Q 959 1106 1268 751 
Q 1578 397 2138 397 
Q 2388 397 2633 464 
Q 2878 531 3122 666 
L 3122 134 
Q 2881 22 2623 -34 
Q 2366 -91 2075 -91 
Q 1284 -91 818 406 
Q 353 903 353 1747 
Q 353 2603 823 3093 
Q 1294 3584 2113 3584 
Q 2378 3584 2631 3529 
Q 2884 3475 3122 3366 
z
" id="DejaVuSans-63" transform="scale(0.015625)"/>
       <path d="M 3513 2113 
L 3513 0 
L 2938 0 
L 2938 2094 
Q 2938 2591 2744 2837 
Q 2550 3084 2163 3084 
Q 1697 3084 1428 2787 
Q 1159 2491 1159 1978 
L 1159 0 
L 581 0 
L 581 4863 
L 1159 4863 
L 1159 2956 
Q 1366 3272 1645 3428 
Q 1925 3584 2291 3584 
Q 2894 3584 3203 3211 
Q 3513 2838 3513 2113 
z
" id="DejaVuSans-68" transform="scale(0.015625)"/>
      </defs>
      <use xlink:href="#DejaVuSans-45"/>
      <use x="63.183594" xlink:href="#DejaVuSans-70"/>
      <use x="126.660156" xlink:href="#DejaVuSans-6f"/>
      <use x="187.841797" xlink:href="#DejaVuSans-63"/>
      <use x="242.822266" xlink:href="#DejaVuSans-68"/>
     </g>
    </g>
   </g>
   <g id="matplotlib.axis_2">
    <g id="ytick_1">
     <g id="line2d_10">
      <defs>
       <path d="M 0 0 
L -3.5 0 
" id="m9e09c196cd" style="stroke:#000000;stroke-width:0.8;"/>
      </defs>
      <g>
       <use style="stroke:#000000;stroke-width:0.8;" x="57.6" xlink:href="#m9e09c196cd" y="284.32989"/>
      </g>
     </g>
     <g id="text_11">
      <!-- −2000 -->
      <g transform="translate(16.770313 288.129108)scale(0.1 -0.1)">
       <defs>
        <path d="M 678 2272 
L 4684 2272 
L 4684 1741 
L 678 1741 
L 678 2272 
z
" id="DejaVuSans-2212" transform="scale(0.015625)"/>
       </defs>
       <use xlink:href="#DejaVuSans-2212"/>
       <use x="83.789062" xlink:href="#DejaVuSans-32"/>
       <use x="147.412109" xlink:href="#DejaVuSans-30"/>
       <use x="211.035156" xlink:href="#DejaVuSans-30"/>
       <use x="274.658203" xlink:href="#DejaVuSans-30"/>
      </g>
     </g>
    </g>
    <g id="ytick_2">
     <g id="line2d_11">
      <g>
       <use style="stroke:#000000;stroke-width:0.8;" x="57.6" xlink:href="#m9e09c196cd" y="226.697483"/>
      </g>
     </g>
     <g id="text_12">
      <!-- −1500 -->
      <g transform="translate(16.770313 230.496702)scale(0.1 -0.1)">
       <use xlink:href="#DejaVuSans-2212"/>
       <use x="83.789062" xlink:href="#DejaVuSans-31"/>
       <use x="147.412109" xlink:href="#DejaVuSans-35"/>
       <use x="211.035156" xlink:href="#DejaVuSans-30"/>
       <use x="274.658203" xlink:href="#DejaVuSans-30"/>
      </g>
     </g>
    </g>
    <g id="ytick_3">
     <g id="line2d_12">
      <g>
       <use style="stroke:#000000;stroke-width:0.8;" x="57.6" xlink:href="#m9e09c196cd" y="169.065077"/>
      </g>
     </g>
     <g id="text_13">
      <!-- −1000 -->
      <g transform="translate(16.770313 172.864296)scale(0.1 -0.1)">
       <use xlink:href="#DejaVuSans-2212"/>
       <use x="83.789062" xlink:href="#DejaVuSans-31"/>
       <use x="147.412109" xlink:href="#DejaVuSans-30"/>
       <use x="211.035156" xlink:href="#DejaVuSans-30"/>
       <use x="274.658203" xlink:href="#DejaVuSans-30"/>
      </g>
     </g>
    </g>
    <g id="ytick_4">
     <g id="line2d_13">
      <g>
       <use style="stroke:#000000;stroke-width:0.8;" x="57.6" xlink:href="#m9e09c196cd" y="111.43267"/>
      </g>
     </g>
     <g id="text_14">
      <!-- −500 -->
      <g transform="translate(23.132812 115.231889)scale(0.1 -0.1)">
       <use xlink:href="#DejaVuSans-2212"/>
       <use x="83.789062" xlink:href="#DejaVuSans-35"/>
       <use x="147.412109" xlink:href="#DejaVuSans-30"/>
       <use x="211.035156" xlink:href="#DejaVuSans-30"/>
      </g>
     </g>
    </g>
    <g id="ytick_5">
     <g id="line2d_14">
      <g>
       <use style="stroke:#000000;stroke-width:0.8;" x="57.6" xlink:href="#m9e09c196cd" y="53.800264"/>
      </g>
     </g>
     <g id="text_15">
      <!-- 0 -->
      <g transform="translate(44.2375 57.599483)scale(0.1 -0.1)">
       <use xlink:href="#DejaVuSans-30"/>
      </g>
     </g>
    </g>
    <g id="text_16">
     <!-- Loss -->
     <g transform="translate(9.650781 190.978781)rotate(-90)scale(0.15 -0.15)">
      <defs>
       <path d="M 628 4666 
L 1259 4666 
L 1259 531 
L 3531 531 
L 3531 0 
L 628 0 
L 628 4666 
z
" id="DejaVuSans-4c" transform="scale(0.015625)"/>
       <path d="M 2834 3397 
L 2834 2853 
Q 2591 2978 2328 3040 
Q 2066 3103 1784 3103 
Q 1356 3103 1142 2972 
Q 928 2841 928 2578 
Q 928 2378 1081 2264 
Q 1234 2150 1697 2047 
L 1894 2003 
Q 2506 1872 2764 1633 
Q 3022 1394 3022 966 
Q 3022 478 2636 193 
Q 2250 -91 1575 -91 
Q 1294 -91 989 -36 
Q 684 19 347 128 
L 347 722 
Q 666 556 975 473 
Q 1284 391 1588 391 
Q 1994 391 2212 530 
Q 2431 669 2431 922 
Q 2431 1156 2273 1281 
Q 2116 1406 1581 1522 
L 1381 1569 
Q 847 1681 609 1914 
Q 372 2147 372 2553 
Q 372 3047 722 3315 
Q 1072 3584 1716 3584 
Q 2034 3584 2315 3537 
Q 2597 3491 2834 3397 
z
" id="DejaVuSans-73" transform="scale(0.015625)"/>
      </defs>
      <use xlink:href="#DejaVuSans-4c"/>
      <use x="53.962891" xlink:href="#DejaVuSans-6f"/>
      <use x="115.144531" xlink:href="#DejaVuSans-73"/>
      <use x="167.244141" xlink:href="#DejaVuSans-73"/>
     </g>
    </g>
   </g>
   <g id="line2d_15">
    <path clip-path="url(#p9d8f2973da)" d="M 73.832727 87.533906 
L 74.646398 110.547476 
L 75.460068 116.410975 
L 76.273739 134.409491 
L 77.087409 140.187783 
L 77.90108 147.694403 
L 79.528421 154.534268 
L 80.342092 153.840661 
L 81.969433 160.205218 
L 82.783103 158.134717 
L 83.596774 159.699226 
L 84.410444 163.738737 
L 85.224115 164.191981 
L 86.037785 163.341437 
L 86.851456 162.159071 
L 87.665126 165.108304 
L 88.478797 162.238094 
L 89.292468 163.055706 
L 90.106138 163.265664 
L 90.919809 166.745452 
L 91.733479 168.127532 
L 92.54715 168.643189 
L 93.36082 171.30361 
L 94.174491 171.223266 
L 94.988161 167.932563 
L 95.801832 165.970337 
L 97.429173 170.305152 
L 98.242843 168.457573 
L 99.056514 172.369148 
L 99.870185 172.668612 
L 100.683855 171.0296 
L 101.497526 174.76267 
L 102.311196 175.3132 
L 103.124867 175.519083 
L 103.938537 172.569831 
L 104.752208 171.86828 
L 105.565878 170.695204 
L 106.379549 170.491846 
L 107.193219 170.153053 
L 108.00689 172.321905 
L 108.82056 172.164952 
L 109.634231 173.401366 
L 110.447902 170.612606 
L 111.261572 175.595884 
L 112.075243 172.409281 
L 112.888913 174.124707 
L 113.702584 172.140648 
L 114.516254 175.48525 
L 115.329925 176.741889 
L 116.143595 177.779779 
L 116.957266 171.10113 
L 117.770936 177.56859 
L 118.584607 177.107789 
L 119.398278 171.795799 
L 120.211948 171.497651 
L 121.025619 172.573688 
L 121.839289 171.151708 
L 122.65296 175.213939 
L 123.46663 171.948749 
L 124.280301 173.655364 
L 125.907642 171.929566 
L 126.721312 175.421202 
L 127.534983 172.492175 
L 128.348653 172.300416 
L 129.162324 174.887737 
L 129.975995 174.383675 
L 130.789665 174.746359 
L 131.603336 170.563194 
L 132.417006 174.372129 
L 133.230677 176.577152 
L 134.044347 174.390156 
L 134.858018 172.872266 
L 135.671688 170.862869 
L 136.485359 169.763745 
L 137.299029 169.239519 
L 138.1127 170.361236 
L 138.92637 177.655077 
L 140.553712 174.544329 
L 141.367382 171.954579 
L 142.181053 174.44551 
L 142.994723 169.039292 
L 143.808394 173.560745 
L 144.622064 170.763489 
L 145.435735 174.102374 
L 146.249405 172.792988 
L 147.063076 171.762169 
L 147.876746 172.368573 
L 148.690417 175.343533 
L 149.504087 172.289435 
L 150.317758 174.65619 
L 151.131429 173.31418 
L 151.945099 174.382976 
L 152.75877 174.072819 
L 153.57244 174.481393 
L 154.386111 173.326288 
L 155.199781 173.263904 
L 156.013452 175.659737 
L 156.827122 175.628077 
L 157.640793 171.502016 
L 158.454463 172.830164 
L 159.268134 176.947837 
L 160.081805 172.93988 
L 160.895475 176.40873 
L 161.709146 172.552501 
L 162.522816 172.985593 
L 163.336487 179.454909 
L 164.150157 179.717839 
L 164.963828 175.505014 
L 165.777498 172.939832 
L 166.591169 174.783735 
L 167.404839 174.31718 
L 168.21851 174.597293 
L 169.03218 173.323095 
L 169.845851 173.670465 
L 170.659522 166.526586 
L 171.473192 172.012858 
L 172.286863 174.385599 
L 173.100533 172.922327 
L 173.914204 172.139875 
L 174.727874 175.593782 
L 175.541545 174.99584 
L 176.355215 172.594435 
L 177.168886 173.206471 
L 177.982556 175.274007 
L 178.796227 175.889911 
L 179.609897 170.625463 
L 180.423568 169.056082 
L 181.237239 171.296952 
L 182.050909 174.432404 
L 182.86458 176.898587 
L 183.67825 171.303056 
L 184.491921 174.567262 
L 185.305591 171.913995 
L 186.119262 176.430604 
L 186.932932 169.959538 
L 187.746603 176.459905 
L 188.560273 169.946064 
L 189.373944 173.860864 
L 190.187614 172.785775 
L 191.001285 178.089875 
L 191.814956 176.33133 
L 192.628626 173.641288 
L 193.442297 173.112483 
L 194.255967 176.80149 
L 195.069638 178.93713 
L 195.883308 172.75009 
L 197.510649 176.791005 
L 198.32432 176.822969 
L 199.13799 174.625908 
L 199.951661 176.976229 
L 200.765332 175.265014 
L 201.579002 175.843875 
L 202.392673 178.769617 
L 203.206343 177.156032 
L 204.020014 173.62656 
L 204.833684 178.898998 
L 205.647355 178.519228 
L 206.461025 179.31004 
L 207.274696 177.533458 
L 208.088366 178.812718 
L 208.902037 171.766012 
L 209.715707 179.064377 
L 210.529378 172.019444 
L 211.343049 174.83669 
L 212.156719 174.315057 
L 212.97039 178.411476 
L 213.78406 177.207254 
L 214.597731 176.904115 
L 215.411401 174.552914 
L 216.225072 174.754845 
L 217.038742 178.636546 
L 217.852413 175.162211 
L 218.666083 179.583479 
L 219.479754 174.418551 
L 220.293424 180.204653 
L 221.107095 180.529926 
L 221.920766 175.712395 
L 222.734436 177.784008 
L 223.548107 173.744589 
L 224.361777 177.116166 
L 225.175448 174.923807 
L 225.989118 177.594524 
L 226.802789 176.844409 
L 227.616459 174.107133 
L 228.43013 177.609076 
L 229.2438 173.554596 
L 230.057471 175.510499 
L 230.871141 175.279091 
L 231.684812 181.731063 
L 232.498483 174.603898 
L 233.312153 177.648219 
L 234.125824 175.558122 
L 234.939494 178.603248 
L 235.753165 177.31674 
L 236.566835 176.523573 
L 237.380506 176.629994 
L 238.194176 177.20565 
L 239.821517 176.895546 
L 240.635188 176.562053 
L 241.448859 178.375094 
L 242.262529 174.718001 
L 243.0762 177.271747 
L 243.88987 174.919307 
L 244.703541 177.368096 
L 245.517211 177.388889 
L 246.330882 175.778215 
L 247.144552 170.322828 
L 247.958223 174.142769 
L 249.585564 174.912001 
L 250.399234 174.022472 
L 251.212905 176.509132 
L 252.026576 174.701428 
L 252.840246 180.612698 
L 253.653917 176.733311 
L 254.467587 179.247443 
L 255.281258 176.68312 
L 256.094928 178.529383 
L 256.908599 176.050809 
L 257.722269 178.623012 
L 258.53594 176.860124 
L 259.34961 177.457859 
L 260.163281 174.795135 
L 260.976951 175.200023 
L 261.790622 179.197933 
L 262.604293 177.283792 
L 263.417963 178.998469 
L 264.231634 176.215717 
L 265.045304 177.3295 
L 265.858975 177.950409 
L 266.672645 171.979041 
L 267.486316 173.743176 
L 268.299986 178.438354 
L 269.113657 171.321376 
L 269.927327 174.698339 
L 270.740998 173.655907 
L 271.554668 177.943027 
L 272.368339 174.354164 
L 273.18201 176.533241 
L 273.99568 174.626061 
L 274.809351 176.887235 
L 275.623021 182.081065 
L 276.436692 175.222694 
L 278.064033 179.263884 
L 278.877703 176.066927 
L 279.691374 180.953172 
L 280.505044 178.178554 
L 281.318715 179.169758 
L 282.132386 178.663485 
L 282.946056 175.250551 
L 283.759727 178.010998 
L 284.573397 179.60578 
L 285.387068 175.339131 
L 286.200738 176.273642 
L 287.014409 171.938988 
L 287.828079 180.347648 
L 288.64175 175.250588 
L 289.45542 177.4252 
L 290.269091 170.714685 
L 291.082761 178.212246 
L 291.896432 177.806755 
L 292.710103 181.961827 
L 293.523773 177.463722 
L 294.337444 177.510511 
L 295.151114 175.466299 
L 295.964785 179.773511 
L 296.778455 173.257108 
L 298.405796 176.201165 
L 299.219467 173.500907 
L 300.033137 180.060162 
L 300.846808 174.457935 
L 301.660478 179.850575 
L 302.474149 175.467647 
L 303.28782 178.780076 
L 304.10149 175.541297 
L 304.915161 178.934436 
L 305.728831 174.850108 
L 306.542502 178.87409 
L 307.356172 174.853174 
L 308.169843 172.210221 
L 308.983513 175.873671 
L 309.797184 175.26343 
L 310.610854 178.594341 
L 311.424525 174.450961 
L 312.238195 177.588737 
L 313.051866 176.905185 
L 313.865537 176.655314 
L 314.679207 176.852151 
L 315.492878 176.129423 
L 316.306548 178.307767 
L 317.120219 177.676927 
L 317.933889 178.663856 
L 318.74756 174.394059 
L 319.56123 177.519005 
L 321.188571 181.345396 
L 322.002242 181.369007 
L 322.815913 176.581503 
L 323.629583 181.02272 
L 324.443254 174.756281 
L 325.256924 179.20764 
L 326.070595 177.003102 
L 326.884265 179.831269 
L 327.697936 178.86559 
L 328.511606 178.447143 
L 329.325277 179.330984 
L 330.138947 174.846633 
L 330.952618 175.905648 
L 331.766288 179.917664 
L 332.579959 177.015513 
L 333.39363 175.153832 
L 334.2073 175.623457 
L 335.020971 184.381529 
L 335.834641 182.789972 
L 336.648312 182.01488 
L 337.461982 180.427026 
L 338.275653 175.818098 
L 339.089323 176.924995 
L 339.902994 182.281698 
L 340.716664 179.431094 
L 341.530335 180.214459 
L 342.344005 178.931452 
L 343.157676 178.537046 
L 343.971347 179.350627 
L 344.785017 175.450379 
L 345.598688 178.58645 
L 346.412358 180.813776 
L 347.226029 176.872322 
L 348.039699 178.223319 
L 348.85337 183.082609 
L 349.66704 179.327881 
L 350.480711 179.108849 
L 351.294381 178.241896 
L 352.108052 179.603966 
L 352.921722 182.232898 
L 353.735393 180.094923 
L 354.549064 177.327186 
L 355.362734 180.158404 
L 356.176405 179.347902 
L 356.990075 177.349126 
L 357.803746 172.123288 
L 358.617416 180.061553 
L 360.244757 174.75789 
L 361.058428 179.932793 
L 361.872098 182.173562 
L 362.685769 183.15263 
L 363.49944 175.616666 
L 364.31311 181.149901 
L 365.126781 179.7313 
L 365.940451 181.275947 
L 366.754122 181.803119 
L 367.567792 183.242835 
L 368.381463 181.471165 
L 369.195133 180.04193 
L 370.008804 176.368524 
L 370.822474 178.8108 
L 371.636145 178.411487 
L 372.449815 181.22608 
L 374.077157 174.154886 
L 374.890827 182.185306 
L 375.704498 180.930469 
L 376.518168 183.113293 
L 377.331839 175.219503 
L 378.145509 180.18751 
L 378.95918 177.38907 
L 379.77285 176.068617 
L 380.586521 175.0737 
L 381.400191 179.790072 
L 382.213862 177.778852 
L 383.027532 179.337004 
L 383.841203 181.485087 
L 384.654874 180.152705 
L 385.468544 177.500681 
L 386.282215 182.545547 
L 387.095885 177.697953 
L 388.723226 179.113626 
L 389.536897 177.321821 
L 390.350567 180.720298 
L 391.164238 182.753744 
L 391.977908 178.975572 
L 392.791579 178.867518 
L 393.605249 180.694769 
L 394.41892 179.433264 
L 395.232591 179.393848 
L 396.046261 173.853398 
L 396.859932 178.665926 
L 397.673602 181.38511 
L 398.487273 176.300741 
L 398.487273 176.300741 
" style="fill:none;stroke:#1f77b4;stroke-linecap:square;stroke-width:1.5;"/>
   </g>
   <g id="line2d_16">
    <path clip-path="url(#p9d8f2973da)" d="M 73.832727 112.730588 
L 74.646398 125.665111 
L 75.460068 55.711977 
L 77.087409 141.561944 
L 77.90108 134.507063 
L 78.714751 78.789357 
L 79.528421 208.097426 
L 80.342092 211.443152 
L 81.155762 183.112388 
L 81.969433 102.904543 
L 82.783103 161.469809 
L 83.596774 162.835611 
L 84.410444 190.010357 
L 85.224115 122.000661 
L 86.037785 163.901891 
L 86.851456 219.511684 
L 87.665126 165.105553 
L 88.478797 164.843079 
L 89.292468 189.21049 
L 90.106138 53.568 
L 91.733479 233.4297 
L 92.54715 82.263306 
L 93.36082 95.458661 
L 94.174491 110.466694 
L 94.988161 170.518009 
L 95.801832 97.163765 
L 96.615502 185.013215 
L 97.429173 169.684443 
L 98.242843 173.802781 
L 99.056514 270.746713 
L 99.870185 170.627282 
L 100.683855 271.94732 
L 101.497526 124.207049 
L 102.311196 187.355934 
L 103.124867 173.019259 
L 103.938537 167.114928 
L 104.752208 173.933148 
L 105.565878 187.383342 
L 106.379549 174.772253 
L 107.193219 117.579554 
L 108.00689 93.535491 
L 108.82056 83.001668 
L 109.634231 83.852568 
L 110.447902 158.372729 
L 111.261572 179.326916 
L 112.075243 127.420943 
L 112.888913 173.535412 
L 113.702584 248.73259 
L 114.516254 189.97101 
L 115.329925 175.788032 
L 116.143595 176.012335 
L 116.957266 174.762539 
L 117.770936 176.672188 
L 118.584607 129.756826 
L 119.398278 114.73748 
L 120.211948 204.674001 
L 121.025619 265.578016 
L 121.839289 81.281319 
L 122.65296 84.046916 
L 123.46663 259.848339 
L 124.280301 241.92477 
L 125.093971 113.89273 
L 126.721312 234.889272 
L 127.534983 110.811051 
L 128.348653 249.492639 
L 129.162324 171.163436 
L 129.975995 202.946696 
L 130.789665 173.506763 
L 131.603336 173.586835 
L 132.417006 203.270022 
L 133.230677 203.078517 
L 134.858018 257.453645 
L 135.671688 262.183957 
L 136.485359 233.424875 
L 137.299029 194.036083 
L 138.1127 201.797946 
L 138.92637 172.274936 
L 139.740041 172.629891 
L 140.553712 169.155441 
L 141.367382 175.57971 
L 142.181053 239.853319 
L 142.994723 68.708409 
L 143.808394 239.586983 
L 144.622064 264.901576 
L 145.435735 229.968597 
L 146.249405 172.463509 
L 147.063076 216.620909 
L 147.876746 176.221836 
L 148.690417 173.75609 
L 149.504087 272.934401 
L 150.317758 246.977047 
L 151.131429 235.194953 
L 151.945099 225.695904 
L 152.75877 204.127045 
L 154.386111 53.65752 
L 155.199781 174.963867 
L 156.013452 266.347341 
L 156.827122 175.273483 
L 157.640793 174.970121 
L 158.454463 236.763388 
L 159.268134 250.989531 
L 160.081805 173.232222 
L 160.895475 83.318583 
L 161.709146 291.167534 
L 162.522816 174.120309 
L 163.336487 176.459691 
L 164.150157 175.504046 
L 164.963828 68.916621 
L 165.777498 202.251686 
L 166.591169 86.611044 
L 167.404839 146.640517 
L 168.21851 175.265252 
L 169.03218 117.956642 
L 169.845851 235.715296 
L 170.659522 258.066144 
L 171.473192 228.817207 
L 172.286863 216.656323 
L 173.100533 145.089546 
L 173.914204 174.564343 
L 174.727874 173.632036 
L 175.541545 53.670754 
L 176.355215 114.014629 
L 177.168886 201.117412 
L 177.982556 175.043923 
L 178.796227 176.821088 
L 179.609897 56.751816 
L 180.423568 265.710745 
L 182.050909 83.942542 
L 182.86458 276.897036 
L 183.67825 284.213948 
L 184.491921 176.349891 
L 185.305591 175.083819 
L 186.119262 282.017411 
L 186.932932 175.580624 
L 187.746603 176.341063 
L 188.560273 141.144943 
L 189.373944 53.634274 
L 190.187614 204.396146 
L 191.001285 124.544335 
L 191.814956 265.964353 
L 192.628626 253.027866 
L 193.442297 234.180848 
L 194.255967 145.328998 
L 195.069638 176.143585 
L 195.883308 175.141184 
L 196.696979 173.376365 
L 197.510649 56.811223 
L 198.32432 177.105017 
L 199.13799 110.739391 
L 199.951661 205.411601 
L 200.765332 114.407698 
L 201.579002 176.653293 
L 202.392673 173.563416 
L 203.206343 239.53048 
L 204.020014 160.022747 
L 204.833684 206.839428 
L 205.647355 84.449283 
L 206.461025 61.866058 
L 207.274696 207.5972 
L 208.088366 175.868953 
L 208.902037 53.666668 
L 209.715707 176.021461 
L 210.529378 175.811243 
L 211.343049 166.679409 
L 212.156719 53.647978 
L 212.97039 176.695083 
L 213.78406 129.841543 
L 214.597731 173.032639 
L 215.411401 236.090972 
L 216.225072 268.74637 
L 217.038742 173.862105 
L 217.852413 225.159832 
L 218.666083 148.395865 
L 219.479754 177.262882 
L 220.293424 285.443591 
L 221.107095 84.350935 
L 221.920766 130.184185 
L 222.734436 53.664099 
L 223.548107 172.328515 
L 224.361777 84.367205 
L 225.175448 182.880827 
L 225.989118 178.772773 
L 226.802789 295.488 
L 227.616459 99.690723 
L 228.43013 68.7924 
L 229.2438 113.039038 
L 230.057471 175.818419 
L 230.871141 122.307845 
L 231.684812 260.183049 
L 232.498483 190.382191 
L 233.312153 177.930465 
L 234.125824 114.306831 
L 234.939494 208.480997 
L 235.753165 178.716618 
L 236.566835 273.090596 
L 237.380506 84.594775 
L 238.194176 177.560062 
L 239.007847 286.861762 
L 239.821517 179.101266 
L 240.635188 94.655537 
L 241.448859 173.959631 
L 242.262529 177.421748 
L 243.0762 68.595327 
L 243.88987 174.727491 
L 244.703541 114.945897 
L 245.517211 99.623116 
L 246.330882 194.587129 
L 247.144552 179.216957 
L 247.958223 233.571613 
L 248.771893 176.197223 
L 249.585564 176.245527 
L 250.399234 180.698495 
L 251.212905 99.496427 
L 252.026576 207.734117 
L 252.840246 176.123208 
L 253.653917 207.156419 
L 254.467587 176.400361 
L 255.281258 130.762711 
L 256.094928 175.368934 
L 256.908599 253.311153 
L 257.722269 268.933751 
L 258.53594 176.862171 
L 259.34961 129.056749 
L 260.163281 177.678017 
L 260.976951 161.258172 
L 261.790622 177.653758 
L 262.604293 120.780642 
L 263.417963 239.121478 
L 264.231634 53.606801 
L 265.045304 173.680599 
L 265.858975 116.063223 
L 266.672645 174.330677 
L 267.486316 84.390315 
L 268.299986 248.415569 
L 269.113657 176.444824 
L 269.927327 221.241735 
L 270.740998 69.029952 
L 271.554668 192.029627 
L 272.368339 173.388893 
L 273.18201 145.993158 
L 273.99568 177.546902 
L 274.809351 84.844717 
L 275.623021 249.253546 
L 276.436692 176.445622 
L 277.250362 192.795618 
L 278.064033 177.39994 
L 278.877703 144.667248 
L 279.691374 224.835107 
L 280.505044 179.497986 
L 281.318715 175.274301 
L 282.132386 179.344132 
L 282.946056 175.826643 
L 283.759727 263.928852 
L 284.573397 116.408627 
L 285.387068 206.808569 
L 286.200738 148.0435 
L 287.014409 173.476153 
L 287.828079 282.079206 
L 288.64175 192.134481 
L 289.45542 84.65269 
L 290.269091 220.909256 
L 291.082761 269.978093 
L 291.896432 139.20101 
L 292.710103 176.299492 
L 293.523773 179.155499 
L 294.337444 178.105072 
L 295.151114 208.51051 
L 295.964785 84.277929 
L 296.778455 226.237536 
L 297.592126 270.701021 
L 298.405796 177.177533 
L 299.219467 176.860711 
L 300.033137 174.392529 
L 300.846808 176.620166 
L 301.660478 236.955211 
L 302.474149 98.833261 
L 303.28782 84.002554 
L 304.10149 88.895819 
L 304.915161 208.053523 
L 305.728831 68.627631 
L 306.542502 244.047495 
L 307.356172 174.850821 
L 308.169843 271.54047 
L 308.983513 267.43467 
L 309.797184 103.633206 
L 310.610854 236.501982 
L 311.424525 178.251815 
L 312.238195 178.567048 
L 313.051866 177.602779 
L 313.865537 207.610677 
L 314.679207 175.012 
L 315.492878 161.484898 
L 316.306548 119.281377 
L 317.933889 244.564449 
L 318.74756 99.476986 
L 319.56123 192.932985 
L 320.374901 84.780834 
L 321.188571 139.5591 
L 322.002242 175.922906 
L 322.815913 184.271219 
L 323.629583 167.041014 
L 324.443254 120.810022 
L 325.256924 147.927319 
L 326.070595 222.772718 
L 326.884265 115.658509 
L 327.697936 179.494388 
L 328.511606 64.110086 
L 329.325277 69.543019 
L 330.138947 176.258681 
L 330.952618 187.443936 
L 331.766288 149.652863 
L 332.579959 274.347722 
L 333.39363 181.564077 
L 334.2073 178.477872 
L 335.020971 241.633277 
L 336.648312 123.741803 
L 337.461982 182.026538 
L 338.275653 148.755263 
L 339.089323 63.686404 
L 339.902994 242.6061 
L 340.716664 131.126165 
L 341.530335 225.94104 
L 342.344005 195.007797 
L 343.157676 255.206667 
L 343.971347 84.596177 
L 344.785017 179.316773 
L 345.598688 255.182314 
L 346.412358 181.253508 
L 347.226029 177.978348 
L 348.039699 180.942405 
L 348.85337 176.185716 
L 349.66704 164.723372 
L 350.480711 179.722924 
L 351.294381 231.662374 
L 352.108052 211.643649 
L 352.921722 263.199773 
L 353.735393 194.128573 
L 354.549064 243.653669 
L 355.362734 245.206187 
L 356.176405 138.654728 
L 356.990075 180.948343 
L 357.803746 53.651951 
L 358.617416 224.221675 
L 359.431087 177.298663 
L 360.244757 164.334111 
L 361.058428 178.631217 
L 361.872098 210.978878 
L 362.685769 178.105031 
L 363.49944 108.196412 
L 364.31311 53.652371 
L 365.126781 146.207852 
L 365.940451 84.577578 
L 366.754122 257.661241 
L 367.567792 180.176776 
L 368.381463 180.378831 
L 369.195133 234.814901 
L 370.008804 53.645501 
L 370.822474 227.258099 
L 371.636145 116.636102 
L 372.449815 113.467731 
L 373.263486 85.150585 
L 374.077157 255.893762 
L 374.890827 53.624011 
L 375.704498 182.798164 
L 376.518168 84.586312 
L 378.145509 272.556691 
L 378.95918 175.505222 
L 379.77285 98.583648 
L 380.586521 116.483511 
L 381.400191 258.186178 
L 382.213862 275.27175 
L 383.027532 114.856699 
L 383.841203 116.728684 
L 384.654874 117.402286 
L 385.468544 178.28706 
L 386.282215 288.999758 
L 387.095885 85.954732 
L 387.909556 213.144037 
L 388.723226 116.184287 
L 389.536897 271.893142 
L 390.350567 116.992805 
L 391.164238 147.591413 
L 391.977908 133.530469 
L 392.791579 179.990223 
L 393.605249 287.134499 
L 394.41892 115.95864 
L 395.232591 239.282377 
L 396.046261 177.823349 
L 396.859932 179.211194 
L 397.673602 122.549313 
L 398.487273 191.230797 
L 398.487273 191.230797 
" style="fill:none;stroke:#ff7f0e;stroke-linecap:square;stroke-width:1.5;"/>
   </g>
   <g id="patch_3">
    <path d="M 57.6 307.584 
L 57.6 41.472 
" style="fill:none;stroke:#000000;stroke-linecap:square;stroke-linejoin:miter;stroke-width:0.8;"/>
   </g>
   <g id="patch_4">
    <path d="M 414.72 307.584 
L 414.72 41.472 
" style="fill:none;stroke:#000000;stroke-linecap:square;stroke-linejoin:miter;stroke-width:0.8;"/>
   </g>
   <g id="patch_5">
    <path d="M 57.6 307.584 
L 414.72 307.584 
" style="fill:none;stroke:#000000;stroke-linecap:square;stroke-linejoin:miter;stroke-width:0.8;"/>
   </g>
   <g id="patch_6">
    <path d="M 57.6 41.472 
L 414.72 41.472 
" style="fill:none;stroke:#000000;stroke-linecap:square;stroke-linejoin:miter;stroke-width:0.8;"/>
   </g>
   <g id="legend_1">
    <g id="patch_7">
     <path d="M 64.6 302.584 
L 168.475 302.584 
Q 170.475 302.584 170.475 300.584 
L 170.475 272.22775 
Q 170.475 270.22775 168.475 270.22775 
L 64.6 270.22775 
Q 62.6 270.22775 62.6 272.22775 
L 62.6 300.584 
Q 62.6 302.584 64.6 302.584 
z
" style="fill:#ffffff;opacity:0.8;stroke:#cccccc;stroke-linejoin:miter;"/>
    </g>
    <g id="line2d_17">
     <path d="M 66.6 278.326187 
L 86.6 278.326187 
" style="fill:none;stroke:#1f77b4;stroke-linecap:square;stroke-width:1.5;"/>
    </g>
    <g id="line2d_18"/>
    <g id="text_17">
     <!-- Train loss -->
     <g transform="translate(94.6 281.826187)scale(0.1 -0.1)">
      <defs>
       <path d="M -19 4666 
L 3928 4666 
L 3928 4134 
L 2272 4134 
L 2272 0 
L 1638 0 
L 1638 4134 
L -19 4134 
L -19 4666 
z
" id="DejaVuSans-54" transform="scale(0.015625)"/>
       <path d="M 2631 2963 
Q 2534 3019 2420 3045 
Q 2306 3072 2169 3072 
Q 1681 3072 1420 2755 
Q 1159 2438 1159 1844 
L 1159 0 
L 581 0 
L 581 3500 
L 1159 3500 
L 1159 2956 
Q 1341 3275 1631 3429 
Q 1922 3584 2338 3584 
Q 2397 3584 2469 3576 
Q 2541 3569 2628 3553 
L 2631 2963 
z
" id="DejaVuSans-72" transform="scale(0.015625)"/>
       <path d="M 2194 1759 
Q 1497 1759 1228 1600 
Q 959 1441 959 1056 
Q 959 750 1161 570 
Q 1363 391 1709 391 
Q 2188 391 2477 730 
Q 2766 1069 2766 1631 
L 2766 1759 
L 2194 1759 
z
M 3341 1997 
L 3341 0 
L 2766 0 
L 2766 531 
Q 2569 213 2275 61 
Q 1981 -91 1556 -91 
Q 1019 -91 701 211 
Q 384 513 384 1019 
Q 384 1609 779 1909 
Q 1175 2209 1959 2209 
L 2766 2209 
L 2766 2266 
Q 2766 2663 2505 2880 
Q 2244 3097 1772 3097 
Q 1472 3097 1187 3025 
Q 903 2953 641 2809 
L 641 3341 
Q 956 3463 1253 3523 
Q 1550 3584 1831 3584 
Q 2591 3584 2966 3190 
Q 3341 2797 3341 1997 
z
" id="DejaVuSans-61" transform="scale(0.015625)"/>
       <path d="M 603 3500 
L 1178 3500 
L 1178 0 
L 603 0 
L 603 3500 
z
M 603 4863 
L 1178 4863 
L 1178 4134 
L 603 4134 
L 603 4863 
z
" id="DejaVuSans-69" transform="scale(0.015625)"/>
       <path d="M 3513 2113 
L 3513 0 
L 2938 0 
L 2938 2094 
Q 2938 2591 2744 2837 
Q 2550 3084 2163 3084 
Q 1697 3084 1428 2787 
Q 1159 2491 1159 1978 
L 1159 0 
L 581 0 
L 581 3500 
L 1159 3500 
L 1159 2956 
Q 1366 3272 1645 3428 
Q 1925 3584 2291 3584 
Q 2894 3584 3203 3211 
Q 3513 2838 3513 2113 
z
" id="DejaVuSans-6e" transform="scale(0.015625)"/>
       <path id="DejaVuSans-20" transform="scale(0.015625)"/>
       <path d="M 603 4863 
L 1178 4863 
L 1178 0 
L 603 0 
L 603 4863 
z
" id="DejaVuSans-6c" transform="scale(0.015625)"/>
      </defs>
      <use xlink:href="#DejaVuSans-54"/>
      <use x="46.333984" xlink:href="#DejaVuSans-72"/>
      <use x="87.447266" xlink:href="#DejaVuSans-61"/>
      <use x="148.726562" xlink:href="#DejaVuSans-69"/>
      <use x="176.509766" xlink:href="#DejaVuSans-6e"/>
      <use x="239.888672" xlink:href="#DejaVuSans-20"/>
      <use x="271.675781" xlink:href="#DejaVuSans-6c"/>
      <use x="299.458984" xlink:href="#DejaVuSans-6f"/>
      <use x="360.640625" xlink:href="#DejaVuSans-73"/>
      <use x="412.740234" xlink:href="#DejaVuSans-73"/>
     </g>
    </g>
    <g id="line2d_19">
     <path d="M 66.6 293.004312 
L 86.6 293.004312 
" style="fill:none;stroke:#ff7f0e;stroke-linecap:square;stroke-width:1.5;"/>
    </g>
    <g id="line2d_20"/>
    <g id="text_18">
     <!-- Validation loss -->
     <g transform="translate(94.6 296.504312)scale(0.1 -0.1)">
      <defs>
       <path d="M 1831 0 
L 50 4666 
L 709 4666 
L 2188 738 
L 3669 4666 
L 4325 4666 
L 2547 0 
L 1831 0 
z
" id="DejaVuSans-56" transform="scale(0.015625)"/>
       <path d="M 2906 2969 
L 2906 4863 
L 3481 4863 
L 3481 0 
L 2906 0 
L 2906 525 
Q 2725 213 2448 61 
Q 2172 -91 1784 -91 
Q 1150 -91 751 415 
Q 353 922 353 1747 
Q 353 2572 751 3078 
Q 1150 3584 1784 3584 
Q 2172 3584 2448 3432 
Q 2725 3281 2906 2969 
z
M 947 1747 
Q 947 1113 1208 752 
Q 1469 391 1925 391 
Q 2381 391 2643 752 
Q 2906 1113 2906 1747 
Q 2906 2381 2643 2742 
Q 2381 3103 1925 3103 
Q 1469 3103 1208 2742 
Q 947 2381 947 1747 
z
" id="DejaVuSans-64" transform="scale(0.015625)"/>
       <path d="M 1172 4494 
L 1172 3500 
L 2356 3500 
L 2356 3053 
L 1172 3053 
L 1172 1153 
Q 1172 725 1289 603 
Q 1406 481 1766 481 
L 2356 481 
L 2356 0 
L 1766 0 
Q 1100 0 847 248 
Q 594 497 594 1153 
L 594 3053 
L 172 3053 
L 172 3500 
L 594 3500 
L 594 4494 
L 1172 4494 
z
" id="DejaVuSans-74" transform="scale(0.015625)"/>
      </defs>
      <use xlink:href="#DejaVuSans-56"/>
      <use x="60.658203" xlink:href="#DejaVuSans-61"/>
      <use x="121.9375" xlink:href="#DejaVuSans-6c"/>
      <use x="149.720703" xlink:href="#DejaVuSans-69"/>
      <use x="177.503906" xlink:href="#DejaVuSans-64"/>
      <use x="240.980469" xlink:href="#DejaVuSans-61"/>
      <use x="302.259766" xlink:href="#DejaVuSans-74"/>
      <use x="341.46875" xlink:href="#DejaVuSans-69"/>
      <use x="369.251953" xlink:href="#DejaVuSans-6f"/>
      <use x="430.433594" xlink:href="#DejaVuSans-6e"/>
      <use x="493.8125" xlink:href="#DejaVuSans-20"/>
      <use x="525.599609" xlink:href="#DejaVuSans-6c"/>
      <use x="553.382812" xlink:href="#DejaVuSans-6f"/>
      <use x="614.564453" xlink:href="#DejaVuSans-73"/>
      <use x="666.664062" xlink:href="#DejaVuSans-73"/>
     </g>
    </g>
   </g>
  </g>
 </g>
 <defs>
  <clipPath id="p9d8f2973da">
   <rect height="266.112" width="357.12" x="57.6" y="41.472"/>
  </clipPath>
 </defs>
</svg>
