<?xml version="1.0" encoding="utf-8" standalone="no"?>
<!DOCTYPE svg PUBLIC "-//W3C//DTD SVG 1.1//EN"
  "http://www.w3.org/Graphics/SVG/1.1/DTD/svg11.dtd">
<svg height="345.6pt" version="1.1" viewBox="0 0 460.8 345.6" width="460.8pt" xmlns="http://www.w3.org/2000/svg" xmlns:xlink="http://www.w3.org/1999/xlink">
 <metadata>
  <rdf:RDF xmlns:cc="http://creativecommons.org/ns#" xmlns:dc="http://purl.org/dc/elements/1.1/" xmlns:rdf="http://www.w3.org/1999/02/22-rdf-syntax-ns#">
   <cc:Work>
    <dc:type rdf:resource="http://purl.org/dc/dcmitype/StillImage"/>
    <dc:date>2021-07-08T04:32:22.025428</dc:date>
    <dc:format>image/svg+xml</dc:format>
    <dc:creator>
     <cc:Agent>
      <dc:title>Matplotlib v3.4.2, https://matplotlib.org/</dc:title>
     </cc:Agent>
    </dc:creator>
   </cc:Work>
  </rdf:RDF>
 </metadata>
 <defs>
  <style type="text/css">*{stroke-linecap:butt;stroke-linejoin:round;}</style>
 </defs>
 <g id="figure_1">
  <g id="patch_1">
   <path d="M 0 345.6 
L 460.8 345.6 
L 460.8 0 
L 0 0 
z
" style="fill:#ffffff;"/>
  </g>
  <g id="axes_1">
   <g id="patch_2">
    <path d="M 57.6 307.584 
L 414.72 307.584 
L 414.72 41.472 
L 57.6 41.472 
z
" style="fill:#ffffff;"/>
   </g>
   <g id="matplotlib.axis_1">
    <g id="xtick_1">
     <g id="line2d_1">
      <defs>
       <path d="M 0 0 
L 0 3.5 
" id="m7187291a82" style="stroke:#000000;stroke-width:0.8;"/>
      </defs>
      <g>
       <use style="stroke:#000000;stroke-width:0.8;" x="73.019057" xlink:href="#m7187291a82" y="307.584"/>
      </g>
     </g>
     <g id="text_1">
      <!-- 0 -->
      <g transform="translate(69.837807 322.182437)scale(0.1 -0.1)">
       <defs>
        <path d="M 2034 4250 
Q 1547 4250 1301 3770 
Q 1056 3291 1056 2328 
Q 1056 1369 1301 889 
Q 1547 409 2034 409 
Q 2525 409 2770 889 
Q 3016 1369 3016 2328 
Q 3016 3291 2770 3770 
Q 2525 4250 2034 4250 
z
M 2034 4750 
Q 2819 4750 3233 4129 
Q 3647 3509 3647 2328 
Q 3647 1150 3233 529 
Q 2819 -91 2034 -91 
Q 1250 -91 836 529 
Q 422 1150 422 2328 
Q 422 3509 836 4129 
Q 1250 4750 2034 4750 
z
" id="DejaVuSans-30" transform="scale(0.015625)"/>
       </defs>
       <use xlink:href="#DejaVuSans-30"/>
      </g>
     </g>
    </g>
    <g id="xtick_2">
     <g id="line2d_2">
      <g>
       <use style="stroke:#000000;stroke-width:0.8;" x="113.702584" xlink:href="#m7187291a82" y="307.584"/>
      </g>
     </g>
     <g id="text_2">
      <!-- 50 -->
      <g transform="translate(107.340084 322.182437)scale(0.1 -0.1)">
       <defs>
        <path d="M 691 4666 
L 3169 4666 
L 3169 4134 
L 1269 4134 
L 1269 2991 
Q 1406 3038 1543 3061 
Q 1681 3084 1819 3084 
Q 2600 3084 3056 2656 
Q 3513 2228 3513 1497 
Q 3513 744 3044 326 
Q 2575 -91 1722 -91 
Q 1428 -91 1123 -41 
Q 819 9 494 109 
L 494 744 
Q 775 591 1075 516 
Q 1375 441 1709 441 
Q 2250 441 2565 725 
Q 2881 1009 2881 1497 
Q 2881 1984 2565 2268 
Q 2250 2553 1709 2553 
Q 1456 2553 1204 2497 
Q 953 2441 691 2322 
L 691 4666 
z
" id="DejaVuSans-35" transform="scale(0.015625)"/>
       </defs>
       <use xlink:href="#DejaVuSans-35"/>
       <use x="63.623047" xlink:href="#DejaVuSans-30"/>
      </g>
     </g>
    </g>
    <g id="xtick_3">
     <g id="line2d_3">
      <g>
       <use style="stroke:#000000;stroke-width:0.8;" x="154.386111" xlink:href="#m7187291a82" y="307.584"/>
      </g>
     </g>
     <g id="text_3">
      <!-- 100 -->
      <g transform="translate(144.842361 322.182437)scale(0.1 -0.1)">
       <defs>
        <path d="M 794 531 
L 1825 531 
L 1825 4091 
L 703 3866 
L 703 4441 
L 1819 4666 
L 2450 4666 
L 2450 531 
L 3481 531 
L 3481 0 
L 794 0 
L 794 531 
z
" id="DejaVuSans-31" transform="scale(0.015625)"/>
       </defs>
       <use xlink:href="#DejaVuSans-31"/>
       <use x="63.623047" xlink:href="#DejaVuSans-30"/>
       <use x="127.246094" xlink:href="#DejaVuSans-30"/>
      </g>
     </g>
    </g>
    <g id="xtick_4">
     <g id="line2d_4">
      <g>
       <use style="stroke:#000000;stroke-width:0.8;" x="195.069638" xlink:href="#m7187291a82" y="307.584"/>
      </g>
     </g>
     <g id="text_4">
      <!-- 150 -->
      <g transform="translate(185.525888 322.182437)scale(0.1 -0.1)">
       <use xlink:href="#DejaVuSans-31"/>
       <use x="63.623047" xlink:href="#DejaVuSans-35"/>
       <use x="127.246094" xlink:href="#DejaVuSans-30"/>
      </g>
     </g>
    </g>
    <g id="xtick_5">
     <g id="line2d_5">
      <g>
       <use style="stroke:#000000;stroke-width:0.8;" x="235.753165" xlink:href="#m7187291a82" y="307.584"/>
      </g>
     </g>
     <g id="text_5">
      <!-- 200 -->
      <g transform="translate(226.209415 322.182437)scale(0.1 -0.1)">
       <defs>
        <path d="M 1228 531 
L 3431 531 
L 3431 0 
L 469 0 
L 469 531 
Q 828 903 1448 1529 
Q 2069 2156 2228 2338 
Q 2531 2678 2651 2914 
Q 2772 3150 2772 3378 
Q 2772 3750 2511 3984 
Q 2250 4219 1831 4219 
Q 1534 4219 1204 4116 
Q 875 4013 500 3803 
L 500 4441 
Q 881 4594 1212 4672 
Q 1544 4750 1819 4750 
Q 2544 4750 2975 4387 
Q 3406 4025 3406 3419 
Q 3406 3131 3298 2873 
Q 3191 2616 2906 2266 
Q 2828 2175 2409 1742 
Q 1991 1309 1228 531 
z
" id="DejaVuSans-32" transform="scale(0.015625)"/>
       </defs>
       <use xlink:href="#DejaVuSans-32"/>
       <use x="63.623047" xlink:href="#DejaVuSans-30"/>
       <use x="127.246094" xlink:href="#DejaVuSans-30"/>
      </g>
     </g>
    </g>
    <g id="xtick_6">
     <g id="line2d_6">
      <g>
       <use style="stroke:#000000;stroke-width:0.8;" x="276.436692" xlink:href="#m7187291a82" y="307.584"/>
      </g>
     </g>
     <g id="text_6">
      <!-- 250 -->
      <g transform="translate(266.892942 322.182437)scale(0.1 -0.1)">
       <use xlink:href="#DejaVuSans-32"/>
       <use x="63.623047" xlink:href="#DejaVuSans-35"/>
       <use x="127.246094" xlink:href="#DejaVuSans-30"/>
      </g>
     </g>
    </g>
    <g id="xtick_7">
     <g id="line2d_7">
      <g>
       <use style="stroke:#000000;stroke-width:0.8;" x="317.120219" xlink:href="#m7187291a82" y="307.584"/>
      </g>
     </g>
     <g id="text_7">
      <!-- 300 -->
      <g transform="translate(307.576469 322.182437)scale(0.1 -0.1)">
       <defs>
        <path d="M 2597 2516 
Q 3050 2419 3304 2112 
Q 3559 1806 3559 1356 
Q 3559 666 3084 287 
Q 2609 -91 1734 -91 
Q 1441 -91 1130 -33 
Q 819 25 488 141 
L 488 750 
Q 750 597 1062 519 
Q 1375 441 1716 441 
Q 2309 441 2620 675 
Q 2931 909 2931 1356 
Q 2931 1769 2642 2001 
Q 2353 2234 1838 2234 
L 1294 2234 
L 1294 2753 
L 1863 2753 
Q 2328 2753 2575 2939 
Q 2822 3125 2822 3475 
Q 2822 3834 2567 4026 
Q 2313 4219 1838 4219 
Q 1578 4219 1281 4162 
Q 984 4106 628 3988 
L 628 4550 
Q 988 4650 1302 4700 
Q 1616 4750 1894 4750 
Q 2613 4750 3031 4423 
Q 3450 4097 3450 3541 
Q 3450 3153 3228 2886 
Q 3006 2619 2597 2516 
z
" id="DejaVuSans-33" transform="scale(0.015625)"/>
       </defs>
       <use xlink:href="#DejaVuSans-33"/>
       <use x="63.623047" xlink:href="#DejaVuSans-30"/>
       <use x="127.246094" xlink:href="#DejaVuSans-30"/>
      </g>
     </g>
    </g>
    <g id="xtick_8">
     <g id="line2d_8">
      <g>
       <use style="stroke:#000000;stroke-width:0.8;" x="357.803746" xlink:href="#m7187291a82" y="307.584"/>
      </g>
     </g>
     <g id="text_8">
      <!-- 350 -->
      <g transform="translate(348.259996 322.182437)scale(0.1 -0.1)">
       <use xlink:href="#DejaVuSans-33"/>
       <use x="63.623047" xlink:href="#DejaVuSans-35"/>
       <use x="127.246094" xlink:href="#DejaVuSans-30"/>
      </g>
     </g>
    </g>
    <g id="xtick_9">
     <g id="line2d_9">
      <g>
       <use style="stroke:#000000;stroke-width:0.8;" x="398.487273" xlink:href="#m7187291a82" y="307.584"/>
      </g>
     </g>
     <g id="text_9">
      <!-- 400 -->
      <g transform="translate(388.943523 322.182437)scale(0.1 -0.1)">
       <defs>
        <path d="M 2419 4116 
L 825 1625 
L 2419 1625 
L 2419 4116 
z
M 2253 4666 
L 3047 4666 
L 3047 1625 
L 3713 1625 
L 3713 1100 
L 3047 1100 
L 3047 0 
L 2419 0 
L 2419 1100 
L 313 1100 
L 313 1709 
L 2253 4666 
z
" id="DejaVuSans-34" transform="scale(0.015625)"/>
       </defs>
       <use xlink:href="#DejaVuSans-34"/>
       <use x="63.623047" xlink:href="#DejaVuSans-30"/>
       <use x="127.246094" xlink:href="#DejaVuSans-30"/>
      </g>
     </g>
    </g>
    <g id="text_10">
     <!-- Epoch -->
     <g transform="translate(213.193594 339.659781)scale(0.15 -0.15)">
      <defs>
       <path d="M 628 4666 
L 3578 4666 
L 3578 4134 
L 1259 4134 
L 1259 2753 
L 3481 2753 
L 3481 2222 
L 1259 2222 
L 1259 531 
L 3634 531 
L 3634 0 
L 628 0 
L 628 4666 
z
" id="DejaVuSans-45" transform="scale(0.015625)"/>
       <path d="M 1159 525 
L 1159 -1331 
L 581 -1331 
L 581 3500 
L 1159 3500 
L 1159 2969 
Q 1341 3281 1617 3432 
Q 1894 3584 2278 3584 
Q 2916 3584 3314 3078 
Q 3713 2572 3713 1747 
Q 3713 922 3314 415 
Q 2916 -91 2278 -91 
Q 1894 -91 1617 61 
Q 1341 213 1159 525 
z
M 3116 1747 
Q 3116 2381 2855 2742 
Q 2594 3103 2138 3103 
Q 1681 3103 1420 2742 
Q 1159 2381 1159 1747 
Q 1159 1113 1420 752 
Q 1681 391 2138 391 
Q 2594 391 2855 752 
Q 3116 1113 3116 1747 
z
" id="DejaVuSans-70" transform="scale(0.015625)"/>
       <path d="M 1959 3097 
Q 1497 3097 1228 2736 
Q 959 2375 959 1747 
Q 959 1119 1226 758 
Q 1494 397 1959 397 
Q 2419 397 2687 759 
Q 2956 1122 2956 1747 
Q 2956 2369 2687 2733 
Q 2419 3097 1959 3097 
z
M 1959 3584 
Q 2709 3584 3137 3096 
Q 3566 2609 3566 1747 
Q 3566 888 3137 398 
Q 2709 -91 1959 -91 
Q 1206 -91 779 398 
Q 353 888 353 1747 
Q 353 2609 779 3096 
Q 1206 3584 1959 3584 
z
" id="DejaVuSans-6f" transform="scale(0.015625)"/>
       <path d="M 3122 3366 
L 3122 2828 
Q 2878 2963 2633 3030 
Q 2388 3097 2138 3097 
Q 1578 3097 1268 2742 
Q 959 2388 959 1747 
Q 959 1106 1268 751 
Q 1578 397 2138 397 
Q 2388 397 2633 464 
Q 2878 531 3122 666 
L 3122 134 
Q 2881 22 2623 -34 
Q 2366 -91 2075 -91 
Q 1284 -91 818 406 
Q 353 903 353 1747 
Q 353 2603 823 3093 
Q 1294 3584 2113 3584 
Q 2378 3584 2631 3529 
Q 2884 3475 3122 3366 
z
" id="DejaVuSans-63" transform="scale(0.015625)"/>
       <path d="M 3513 2113 
L 3513 0 
L 2938 0 
L 2938 2094 
Q 2938 2591 2744 2837 
Q 2550 3084 2163 3084 
Q 1697 3084 1428 2787 
Q 1159 2491 1159 1978 
L 1159 0 
L 581 0 
L 581 4863 
L 1159 4863 
L 1159 2956 
Q 1366 3272 1645 3428 
Q 1925 3584 2291 3584 
Q 2894 3584 3203 3211 
Q 3513 2838 3513 2113 
z
" id="DejaVuSans-68" transform="scale(0.015625)"/>
      </defs>
      <use xlink:href="#DejaVuSans-45"/>
      <use x="63.183594" xlink:href="#DejaVuSans-70"/>
      <use x="126.660156" xlink:href="#DejaVuSans-6f"/>
      <use x="187.841797" xlink:href="#DejaVuSans-63"/>
      <use x="242.822266" xlink:href="#DejaVuSans-68"/>
     </g>
    </g>
   </g>
   <g id="matplotlib.axis_2">
    <g id="ytick_1">
     <g id="line2d_10">
      <defs>
       <path d="M 0 0 
L -3.5 0 
" id="mfe179d8f46" style="stroke:#000000;stroke-width:0.8;"/>
      </defs>
      <g>
       <use style="stroke:#000000;stroke-width:0.8;" x="57.6" xlink:href="#mfe179d8f46" y="264.900414"/>
      </g>
     </g>
     <g id="text_11">
      <!-- 0.2 -->
      <g transform="translate(34.696875 268.699633)scale(0.1 -0.1)">
       <defs>
        <path d="M 684 794 
L 1344 794 
L 1344 0 
L 684 0 
L 684 794 
z
" id="DejaVuSans-2e" transform="scale(0.015625)"/>
       </defs>
       <use xlink:href="#DejaVuSans-30"/>
       <use x="63.623047" xlink:href="#DejaVuSans-2e"/>
       <use x="95.410156" xlink:href="#DejaVuSans-32"/>
      </g>
     </g>
    </g>
    <g id="ytick_2">
     <g id="line2d_11">
      <g>
       <use style="stroke:#000000;stroke-width:0.8;" x="57.6" xlink:href="#mfe179d8f46" y="209.286621"/>
      </g>
     </g>
     <g id="text_12">
      <!-- 0.4 -->
      <g transform="translate(34.696875 213.085839)scale(0.1 -0.1)">
       <use xlink:href="#DejaVuSans-30"/>
       <use x="63.623047" xlink:href="#DejaVuSans-2e"/>
       <use x="95.410156" xlink:href="#DejaVuSans-34"/>
      </g>
     </g>
    </g>
    <g id="ytick_3">
     <g id="line2d_12">
      <g>
       <use style="stroke:#000000;stroke-width:0.8;" x="57.6" xlink:href="#mfe179d8f46" y="153.672828"/>
      </g>
     </g>
     <g id="text_13">
      <!-- 0.6 -->
      <g transform="translate(34.696875 157.472046)scale(0.1 -0.1)">
       <defs>
        <path d="M 2113 2584 
Q 1688 2584 1439 2293 
Q 1191 2003 1191 1497 
Q 1191 994 1439 701 
Q 1688 409 2113 409 
Q 2538 409 2786 701 
Q 3034 994 3034 1497 
Q 3034 2003 2786 2293 
Q 2538 2584 2113 2584 
z
M 3366 4563 
L 3366 3988 
Q 3128 4100 2886 4159 
Q 2644 4219 2406 4219 
Q 1781 4219 1451 3797 
Q 1122 3375 1075 2522 
Q 1259 2794 1537 2939 
Q 1816 3084 2150 3084 
Q 2853 3084 3261 2657 
Q 3669 2231 3669 1497 
Q 3669 778 3244 343 
Q 2819 -91 2113 -91 
Q 1303 -91 875 529 
Q 447 1150 447 2328 
Q 447 3434 972 4092 
Q 1497 4750 2381 4750 
Q 2619 4750 2861 4703 
Q 3103 4656 3366 4563 
z
" id="DejaVuSans-36" transform="scale(0.015625)"/>
       </defs>
       <use xlink:href="#DejaVuSans-30"/>
       <use x="63.623047" xlink:href="#DejaVuSans-2e"/>
       <use x="95.410156" xlink:href="#DejaVuSans-36"/>
      </g>
     </g>
    </g>
    <g id="ytick_4">
     <g id="line2d_13">
      <g>
       <use style="stroke:#000000;stroke-width:0.8;" x="57.6" xlink:href="#mfe179d8f46" y="98.059034"/>
      </g>
     </g>
     <g id="text_14">
      <!-- 0.8 -->
      <g transform="translate(34.696875 101.858253)scale(0.1 -0.1)">
       <defs>
        <path d="M 2034 2216 
Q 1584 2216 1326 1975 
Q 1069 1734 1069 1313 
Q 1069 891 1326 650 
Q 1584 409 2034 409 
Q 2484 409 2743 651 
Q 3003 894 3003 1313 
Q 3003 1734 2745 1975 
Q 2488 2216 2034 2216 
z
M 1403 2484 
Q 997 2584 770 2862 
Q 544 3141 544 3541 
Q 544 4100 942 4425 
Q 1341 4750 2034 4750 
Q 2731 4750 3128 4425 
Q 3525 4100 3525 3541 
Q 3525 3141 3298 2862 
Q 3072 2584 2669 2484 
Q 3125 2378 3379 2068 
Q 3634 1759 3634 1313 
Q 3634 634 3220 271 
Q 2806 -91 2034 -91 
Q 1263 -91 848 271 
Q 434 634 434 1313 
Q 434 1759 690 2068 
Q 947 2378 1403 2484 
z
M 1172 3481 
Q 1172 3119 1398 2916 
Q 1625 2713 2034 2713 
Q 2441 2713 2670 2916 
Q 2900 3119 2900 3481 
Q 2900 3844 2670 4047 
Q 2441 4250 2034 4250 
Q 1625 4250 1398 4047 
Q 1172 3844 1172 3481 
z
" id="DejaVuSans-38" transform="scale(0.015625)"/>
       </defs>
       <use xlink:href="#DejaVuSans-30"/>
       <use x="63.623047" xlink:href="#DejaVuSans-2e"/>
       <use x="95.410156" xlink:href="#DejaVuSans-38"/>
      </g>
     </g>
    </g>
    <g id="ytick_5">
     <g id="line2d_14">
      <g>
       <use style="stroke:#000000;stroke-width:0.8;" x="57.6" xlink:href="#mfe179d8f46" y="42.445241"/>
      </g>
     </g>
     <g id="text_15">
      <!-- 1.0 -->
      <g transform="translate(34.696875 46.24446)scale(0.1 -0.1)">
       <use xlink:href="#DejaVuSans-31"/>
       <use x="63.623047" xlink:href="#DejaVuSans-2e"/>
       <use x="95.410156" xlink:href="#DejaVuSans-30"/>
      </g>
     </g>
    </g>
    <g id="text_16">
     <!-- Loss -->
     <g transform="translate(27.577344 190.978781)rotate(-90)scale(0.15 -0.15)">
      <defs>
       <path d="M 628 4666 
L 1259 4666 
L 1259 531 
L 3531 531 
L 3531 0 
L 628 0 
L 628 4666 
z
" id="DejaVuSans-4c" transform="scale(0.015625)"/>
       <path d="M 2834 3397 
L 2834 2853 
Q 2591 2978 2328 3040 
Q 2066 3103 1784 3103 
Q 1356 3103 1142 2972 
Q 928 2841 928 2578 
Q 928 2378 1081 2264 
Q 1234 2150 1697 2047 
L 1894 2003 
Q 2506 1872 2764 1633 
Q 3022 1394 3022 966 
Q 3022 478 2636 193 
Q 2250 -91 1575 -91 
Q 1294 -91 989 -36 
Q 684 19 347 128 
L 347 722 
Q 666 556 975 473 
Q 1284 391 1588 391 
Q 1994 391 2212 530 
Q 2431 669 2431 922 
Q 2431 1156 2273 1281 
Q 2116 1406 1581 1522 
L 1381 1569 
Q 847 1681 609 1914 
Q 372 2147 372 2553 
Q 372 3047 722 3315 
Q 1072 3584 1716 3584 
Q 2034 3584 2315 3537 
Q 2597 3491 2834 3397 
z
" id="DejaVuSans-73" transform="scale(0.015625)"/>
      </defs>
      <use xlink:href="#DejaVuSans-4c"/>
      <use x="53.962891" xlink:href="#DejaVuSans-6f"/>
      <use x="115.144531" xlink:href="#DejaVuSans-73"/>
      <use x="167.244141" xlink:href="#DejaVuSans-73"/>
     </g>
    </g>
   </g>
   <g id="line2d_15">
    <path clip-path="url(#p57a012e5e8)" d="M 73.832727 295.488 
L 74.646398 291.316966 
L 75.460068 291.316966 
L 76.273739 288.536276 
L 77.087409 295.488 
L 77.90108 292.70731 
L 78.714751 294.097655 
L 79.528421 285.755586 
L 80.342092 294.097655 
L 81.155762 288.536276 
L 81.969433 291.316966 
L 82.783103 284.365241 
L 84.410444 263.510069 
L 85.224115 289.926621 
L 86.037785 280.194207 
L 86.851456 281.584552 
L 87.665126 274.632828 
L 88.478797 274.632828 
L 89.292468 277.413517 
L 90.106138 273.242483 
L 90.919809 255.168 
L 91.733479 260.729379 
L 92.54715 256.558345 
L 93.36082 256.558345 
L 94.174491 269.071448 
L 94.988161 250.996966 
L 95.801832 269.071448 
L 96.615502 256.558345 
L 97.429173 239.874207 
L 98.242843 256.558345 
L 99.056514 246.825931 
L 99.870185 241.264552 
L 100.683855 248.216276 
L 101.497526 237.093517 
L 102.311196 235.703172 
L 103.124867 242.654897 
L 103.938537 235.703172 
L 104.752208 230.141793 
L 105.565878 202.334897 
L 106.379549 220.409379 
L 107.193219 199.554207 
L 108.00689 207.896276 
L 108.82056 189.821793 
L 109.634231 177.30869 
L 110.447902 148.111448 
L 111.261572 157.843862 
L 112.075243 162.014897 
L 112.888913 159.234207 
L 114.516254 156.453517 
L 115.329925 130.036966 
L 116.143595 113.352828 
L 116.957266 124.475586 
L 117.770936 128.646621 
L 118.584607 123.085241 
L 119.398278 145.330759 
L 120.211948 157.843862 
L 121.025619 166.185931 
L 121.839289 139.769379 
L 122.65296 153.672828 
L 123.46663 138.379034 
L 124.280301 135.598345 
L 125.093971 116.133517 
L 125.907642 130.036966 
L 126.721312 132.817655 
L 127.534983 121.694897 
L 128.348653 124.475586 
L 129.162324 135.598345 
L 129.975995 121.694897 
L 130.789665 120.304552 
L 131.603336 107.791448 
L 132.417006 118.914207 
L 133.230677 121.694897 
L 134.044347 117.523862 
L 134.858018 110.572138 
L 135.671688 100.839724 
L 136.485359 105.010759 
L 137.299029 114.743172 
L 138.1127 106.401103 
L 138.92637 109.181793 
L 139.740041 100.839724 
L 140.553712 99.449379 
L 141.367382 114.743172 
L 142.181053 96.66869 
L 142.994723 99.449379 
L 143.808394 105.010759 
L 145.435735 91.10731 
L 146.249405 93.888 
L 147.063076 93.888 
L 147.876746 107.791448 
L 148.690417 85.545931 
L 149.504087 103.620414 
L 150.317758 95.278345 
L 151.131429 78.594207 
L 151.945099 100.839724 
L 152.75877 118.914207 
L 153.57244 102.230069 
L 154.386111 88.326621 
L 155.199781 100.839724 
L 156.013452 92.497655 
L 156.827122 92.497655 
L 157.640793 106.401103 
L 158.454463 96.66869 
L 159.268134 81.374897 
L 160.081805 79.984552 
L 160.895475 99.449379 
L 161.709146 103.620414 
L 162.522816 91.10731 
L 163.336487 75.813517 
L 164.150157 88.326621 
L 164.963828 84.155586 
L 165.777498 81.374897 
L 166.591169 75.813517 
L 167.404839 85.545931 
L 168.21851 86.936276 
L 169.03218 98.059034 
L 169.845851 81.374897 
L 170.659522 89.716966 
L 171.473192 70.252138 
L 172.286863 84.155586 
L 173.100533 74.423172 
L 173.914204 78.594207 
L 174.727874 79.984552 
L 175.541545 103.620414 
L 176.355215 91.10731 
L 177.168886 91.10731 
L 177.982556 100.839724 
L 178.796227 81.374897 
L 179.609897 96.66869 
L 180.423568 86.936276 
L 181.237239 85.545931 
L 182.050909 77.203862 
L 182.86458 81.374897 
L 183.67825 81.374897 
L 184.491921 84.155586 
L 185.305591 85.545931 
L 186.119262 82.765241 
L 186.932932 84.155586 
L 187.746603 70.252138 
L 188.560273 78.594207 
L 189.373944 79.984552 
L 190.187614 88.326621 
L 191.001285 91.10731 
L 191.814956 77.203862 
L 192.628626 77.203862 
L 193.442297 79.984552 
L 194.255967 84.155586 
L 195.069638 81.374897 
L 195.883308 73.032828 
L 196.696979 82.765241 
L 197.510649 93.888 
L 198.32432 86.936276 
L 199.13799 86.936276 
L 200.765332 89.716966 
L 201.579002 77.203862 
L 202.392673 81.374897 
L 203.206343 75.813517 
L 204.020014 77.203862 
L 204.833684 74.423172 
L 205.647355 75.813517 
L 206.461025 86.936276 
L 207.274696 79.984552 
L 208.088366 59.129379 
L 208.902037 71.642483 
L 209.715707 74.423172 
L 210.529378 81.374897 
L 211.343049 64.690759 
L 212.156719 81.374897 
L 212.97039 82.765241 
L 213.78406 71.642483 
L 214.597731 86.936276 
L 215.411401 81.374897 
L 216.225072 79.984552 
L 217.038742 67.471448 
L 217.852413 68.861793 
L 218.666083 67.471448 
L 219.479754 70.252138 
L 220.293424 79.984552 
L 221.107095 75.813517 
L 221.920766 75.813517 
L 222.734436 70.252138 
L 223.548107 77.203862 
L 224.361777 74.423172 
L 225.175448 82.765241 
L 225.989118 86.936276 
L 226.802789 70.252138 
L 227.616459 77.203862 
L 228.43013 77.203862 
L 229.2438 75.813517 
L 230.057471 77.203862 
L 230.871141 85.545931 
L 231.684812 71.642483 
L 232.498483 78.594207 
L 233.312153 68.861793 
L 234.125824 77.203862 
L 234.939494 77.203862 
L 235.753165 78.594207 
L 236.566835 71.642483 
L 237.380506 82.765241 
L 238.194176 71.642483 
L 239.007847 78.594207 
L 240.635188 75.813517 
L 241.448859 67.471448 
L 242.262529 78.594207 
L 243.0762 61.910069 
L 243.88987 78.594207 
L 244.703541 74.423172 
L 245.517211 78.594207 
L 246.330882 73.032828 
L 247.144552 86.936276 
L 247.958223 66.081103 
L 248.771893 75.813517 
L 249.585564 61.910069 
L 250.399234 78.594207 
L 251.212905 75.813517 
L 252.026576 85.545931 
L 252.840246 77.203862 
L 253.653917 60.519724 
L 254.467587 59.129379 
L 255.281258 64.690759 
L 256.094928 85.545931 
L 256.908599 89.716966 
L 257.722269 82.765241 
L 258.53594 70.252138 
L 259.34961 79.984552 
L 260.163281 78.594207 
L 260.976951 74.423172 
L 261.790622 86.936276 
L 262.604293 73.032828 
L 263.417963 68.861793 
L 264.231634 73.032828 
L 265.045304 75.813517 
L 265.858975 77.203862 
L 266.672645 86.936276 
L 267.486316 79.984552 
L 268.299986 74.423172 
L 269.113657 77.203862 
L 269.927327 67.471448 
L 270.740998 64.690759 
L 271.554668 68.861793 
L 272.368339 79.984552 
L 273.18201 71.642483 
L 273.99568 77.203862 
L 274.809351 73.032828 
L 275.623021 73.032828 
L 276.436692 68.861793 
L 277.250362 82.765241 
L 278.877703 74.423172 
L 279.691374 63.300414 
L 280.505044 77.203862 
L 281.318715 73.032828 
L 282.132386 71.642483 
L 282.946056 81.374897 
L 283.759727 75.813517 
L 284.573397 78.594207 
L 285.387068 77.203862 
L 286.200738 67.471448 
L 287.014409 81.374897 
L 287.828079 78.594207 
L 288.64175 78.594207 
L 289.45542 75.813517 
L 290.269091 79.984552 
L 291.082761 64.690759 
L 291.896432 79.984552 
L 292.710103 66.081103 
L 293.523773 60.519724 
L 294.337444 53.568 
L 295.151114 75.813517 
L 295.964785 82.765241 
L 296.778455 70.252138 
L 297.592126 66.081103 
L 298.405796 74.423172 
L 299.219467 68.861793 
L 300.846808 92.497655 
L 301.660478 78.594207 
L 302.474149 81.374897 
L 303.28782 79.984552 
L 304.10149 77.203862 
L 304.915161 79.984552 
L 305.728831 77.203862 
L 306.542502 73.032828 
L 307.356172 66.081103 
L 308.169843 85.545931 
L 308.983513 74.423172 
L 309.797184 77.203862 
L 310.610854 70.252138 
L 311.424525 85.545931 
L 312.238195 84.155586 
L 313.051866 88.326621 
L 313.865537 73.032828 
L 314.679207 84.155586 
L 315.492878 75.813517 
L 316.306548 77.203862 
L 317.120219 79.984552 
L 318.74756 77.203862 
L 319.56123 78.594207 
L 320.374901 73.032828 
L 321.188571 81.374897 
L 322.002242 70.252138 
L 322.815913 82.765241 
L 323.629583 78.594207 
L 324.443254 85.545931 
L 325.256924 81.374897 
L 326.070595 66.081103 
L 326.884265 82.765241 
L 327.697936 70.252138 
L 328.511606 60.519724 
L 329.325277 74.423172 
L 330.138947 68.861793 
L 330.952618 71.642483 
L 331.766288 75.813517 
L 332.579959 63.300414 
L 333.39363 95.278345 
L 334.2073 79.984552 
L 335.020971 68.861793 
L 335.834641 63.300414 
L 336.648312 63.300414 
L 337.461982 77.203862 
L 338.275653 70.252138 
L 339.089323 74.423172 
L 339.902994 63.300414 
L 340.716664 71.642483 
L 341.530335 74.423172 
L 342.344005 70.252138 
L 343.157676 82.765241 
L 343.971347 81.374897 
L 344.785017 84.155586 
L 346.412358 73.032828 
L 347.226029 63.300414 
L 348.039699 64.690759 
L 348.85337 86.936276 
L 349.66704 66.081103 
L 350.480711 77.203862 
L 351.294381 66.081103 
L 352.108052 75.813517 
L 352.921722 63.300414 
L 353.735393 79.984552 
L 354.549064 84.155586 
L 355.362734 81.374897 
L 356.176405 68.861793 
L 356.990075 63.300414 
L 357.803746 84.155586 
L 358.617416 71.642483 
L 359.431087 81.374897 
L 360.244757 77.203862 
L 361.058428 78.594207 
L 361.872098 81.374897 
L 362.685769 86.936276 
L 363.49944 75.813517 
L 364.31311 78.594207 
L 365.126781 77.203862 
L 365.940451 74.423172 
L 366.754122 63.300414 
L 367.567792 75.813517 
L 368.381463 91.10731 
L 369.195133 74.423172 
L 370.008804 89.716966 
L 370.822474 66.081103 
L 371.636145 67.471448 
L 372.449815 67.471448 
L 373.263486 70.252138 
L 374.077157 78.594207 
L 374.890827 67.471448 
L 375.704498 74.423172 
L 376.518168 68.861793 
L 377.331839 82.765241 
L 378.145509 93.888 
L 379.77285 71.642483 
L 380.586521 70.252138 
L 381.400191 73.032828 
L 382.213862 74.423172 
L 383.027532 70.252138 
L 383.841203 73.032828 
L 384.654874 74.423172 
L 385.468544 70.252138 
L 386.282215 75.813517 
L 387.095885 74.423172 
L 387.909556 81.374897 
L 388.723226 66.081103 
L 389.536897 73.032828 
L 390.350567 54.958345 
L 391.164238 79.984552 
L 391.977908 70.252138 
L 392.791579 74.423172 
L 393.605249 75.813517 
L 394.41892 74.423172 
L 395.232591 75.813517 
L 396.046261 81.374897 
L 396.859932 70.252138 
L 397.673602 73.032828 
L 398.487273 66.081103 
L 398.487273 66.081103 
" style="fill:none;stroke:#1f77b4;stroke-linecap:square;stroke-width:1.5;"/>
   </g>
   <g id="line2d_16">
    <path clip-path="url(#p57a012e5e8)" d="M 73.832727 293.425655 
L 74.646398 293.495172 
L 75.460068 293.008552 
L 76.273739 293.981793 
L 77.087409 294.028138 
L 77.90108 294.746483 
L 78.714751 294.352552 
L 79.528421 292.128 
L 80.342092 290.784 
L 81.155762 290.969379 
L 81.969433 286.358069 
L 82.783103 279.128276 
L 83.596774 274.308414 
L 84.410444 272.014345 
L 85.224115 275.582897 
L 86.037785 279.93931 
L 86.851456 274.493793 
L 87.665126 266.985931 
L 88.478797 266.406621 
L 89.292468 264.691862 
L 90.106138 265.502897 
L 90.919809 270.160552 
L 91.733479 267.704276 
L 92.54715 262.884414 
L 93.36082 264.969931 
L 94.174491 257.114483 
L 94.988161 271.180138 
L 95.801832 260.242759 
L 96.615502 256.280276 
L 97.429173 255.307034 
L 98.242843 249.931034 
L 99.056514 248.35531 
L 99.870185 241.751172 
L 100.683855 242.145103 
L 101.497526 245.597793 
L 102.311196 233.246897 
L 103.124867 236.537379 
L 103.938537 226.619586 
L 104.752208 233.455448 
L 105.565878 215.42731 
L 106.379549 201.431172 
L 107.193219 211.534345 
L 108.00689 191.582897 
L 108.82056 196.866207 
L 109.634231 180.923586 
L 110.447902 175.547586 
L 111.261572 177.146483 
L 112.075243 175.478069 
L 112.888913 164.448 
L 113.702584 178.838069 
L 114.516254 165.467586 
L 115.329925 160.925793 
L 116.143595 160.462345 
L 116.957266 162.33931 
L 117.770936 158.330483 
L 118.584607 157.496276 
L 119.398278 158.956138 
L 120.211948 170.380138 
L 121.025619 158.515862 
L 121.839289 175.431724 
L 122.65296 157.519448 
L 123.46663 157.519448 
L 124.280301 154.646069 
L 125.093971 160.462345 
L 125.907642 174.736552 
L 126.721312 159.257379 
L 127.534983 204.559448 
L 128.348653 154.344828 
L 129.162324 144.125793 
L 129.975995 147.346759 
L 130.789665 163.312552 
L 131.603336 145.145379 
L 132.417006 152.653241 
L 133.230677 151.378759 
L 134.044347 146.535724 
L 134.858018 151.332414 
L 135.671688 152.421517 
L 136.485359 144.102621 
L 137.299029 145.794207 
L 138.1127 138.610759 
L 138.92637 157.82069 
L 139.740041 156.036414 
L 140.553712 137.081379 
L 141.367382 136.224 
L 142.181053 154.414345 
L 142.994723 132.470069 
L 143.808394 136.780138 
L 144.622064 133.582345 
L 145.435735 129.318621 
L 146.249405 138.796138 
L 147.063076 152.189793 
L 147.876746 131.496828 
L 148.690417 124.939034 
L 149.504087 131.867586 
L 150.317758 135.853241 
L 151.131429 131.380966 
L 151.945099 125.448828 
L 152.75877 132.377379 
L 153.57244 132.052966 
L 154.386111 131.010207 
L 155.199781 135.297103 
L 156.013452 130.176 
L 156.827122 127.001379 
L 157.640793 131.705379 
L 158.454463 128.16 
L 159.268134 126.561103 
L 160.081805 133.072552 
L 160.895475 130.732138 
L 161.709146 139.120552 
L 163.336487 123.316966 
L 164.150157 127.905103 
L 164.963828 124.846345 
L 165.777498 133.953103 
L 166.591169 132.910345 
L 167.404839 132.794483 
L 168.21851 126.885517 
L 169.03218 138.471724 
L 169.845851 126.352552 
L 170.659522 137.266759 
L 171.473192 131.960276 
L 172.286863 130.546759 
L 173.100533 121.231448 
L 173.914204 129.643034 
L 174.727874 126.028138 
L 175.541545 130.338207 
L 176.355215 128.646621 
L 177.168886 130.94069 
L 177.982556 124.591448 
L 178.796227 119.956966 
L 179.609897 119.076414 
L 180.423568 150.614069 
L 181.237239 123.896276 
L 182.86458 120.930207 
L 183.67825 132.377379 
L 184.491921 123.015724 
L 185.305591 124.776828 
L 186.932932 121.046069 
L 187.746603 118.612966 
L 188.560273 121.277793 
L 189.373944 124.614621 
L 190.187614 122.274207 
L 191.001285 124.03531 
L 191.814956 123.270621 
L 192.628626 118.937379 
L 193.442297 130.708966 
L 194.255967 121.741241 
L 195.069638 121.277793 
L 195.883308 127.302621 
L 196.696979 160.137931 
L 197.510649 116.782345 
L 198.32432 121.324138 
L 199.13799 118.867862 
L 199.951661 118.914207 
L 200.765332 135.714207 
L 201.579002 115.97131 
L 202.392673 119.377655 
L 203.206343 110.989241 
L 204.020014 127.001379 
L 204.833684 121.53269 
L 205.647355 119.980138 
L 206.461025 113.839448 
L 207.274696 118.728828 
L 208.088366 125.193931 
L 208.902037 112.495448 
L 209.715707 117.292138 
L 210.529378 118.288552 
L 211.343049 126.72331 
L 212.156719 120.67531 
L 212.97039 115.531034 
L 213.78406 117.523862 
L 214.597731 130.569931 
L 215.411401 117.037241 
L 216.225072 114.62731 
L 217.038742 129.874759 
L 217.852413 113.260138 
L 218.666083 110.942897 
L 219.479754 114.024828 
L 220.293424 118.543448 
L 221.107095 108.76469 
L 221.920766 111.892966 
L 222.734436 112.843034 
L 223.548107 119.215448 
L 224.361777 123.571862 
L 225.175448 116.82869 
L 225.989118 108.556138 
L 226.802789 119.771586 
L 227.616459 114.534621 
L 228.43013 123.710897 
L 229.2438 125.773241 
L 230.057471 113.862621 
L 230.871141 109.784276 
L 231.684812 134.462897 
L 232.498483 119.841103 
L 233.312153 111.475862 
L 234.125824 125.587862 
L 234.939494 109.344 
L 235.753165 103.180138 
L 236.566835 109.900138 
L 237.380506 111.93931 
L 238.194176 110.78069 
L 239.007847 113.167448 
L 239.821517 110.873379 
L 240.635188 112.935724 
L 241.448859 139.514483 
L 242.262529 113.121103 
L 243.0762 129.133241 
L 243.88987 121.972966 
L 244.703541 113.445517 
L 245.517211 115.021241 
L 246.330882 107.930483 
L 247.144552 121.903448 
L 247.958223 119.493517 
L 248.771893 113.561379 
L 249.585564 117.686069 
L 250.399234 112.518621 
L 251.212905 119.145931 
L 252.026576 117.848276 
L 252.840246 115.577379 
L 253.653917 116.573793 
L 254.467587 111.869793 
L 255.281258 108.625655 
L 256.094928 133.234759 
L 256.908599 126.72331 
L 257.722269 112.727172 
L 258.53594 121.208276 
L 259.34961 115.322483 
L 260.163281 115.809103 
L 260.976951 112.541793 
L 261.790622 110.734345 
L 262.604293 123.664552 
L 263.417963 110.479448 
L 264.231634 125.495172 
L 265.045304 119.493517 
L 265.858975 103.411862 
L 266.672645 107.490207 
L 267.486316 112.217379 
L 268.299986 130.430897 
L 269.113657 112.61131 
L 269.927327 121.022897 
L 270.740998 113.839448 
L 271.554668 110.966069 
L 272.368339 126.816 
L 273.18201 112.680828 
L 273.99568 112.12469 
L 274.809351 111.730759 
L 275.623021 118.84469 
L 276.436692 117.50069 
L 277.250362 111.336828 
L 278.064033 111.336828 
L 278.877703 126.306207 
L 279.691374 116.504276 
L 280.505044 114.696828 
L 281.318715 119.053241 
L 282.132386 108.347586 
L 282.946056 118.65931 
L 283.759727 114.163862 
L 284.573397 117.153103 
L 285.387068 113.561379 
L 286.200738 109.065931 
L 287.014409 129.619862 
L 287.828079 112.263724 
L 288.64175 121.671724 
L 289.45542 116.921379 
L 290.269091 115.368828 
L 291.082761 111.035586 
L 291.896432 124.336552 
L 293.523773 105.543724 
L 294.337444 105.497379 
L 295.964785 115.021241 
L 296.778455 123.085241 
L 297.592126 110.688 
L 298.405796 107.443862 
L 299.219467 115.276138 
L 300.033137 112.147862 
L 300.846808 113.167448 
L 301.660478 109.181793 
L 302.474149 121.208276 
L 303.28782 117.547034 
L 304.10149 118.010483 
L 304.915161 110.618483 
L 305.728831 107.930483 
L 306.542502 100.955586 
L 307.356172 120.513103 
L 308.169843 107.652414 
L 308.983513 128.646621 
L 309.797184 113.028414 
L 310.610854 110.641655 
L 311.424525 119.794759 
L 312.238195 115.600552 
L 313.051866 109.135448 
L 313.865537 110.479448 
L 314.679207 117.199448 
L 315.492878 117.616552 
L 316.306548 115.646897 
L 317.120219 111.823448 
L 317.933889 116.295724 
L 318.74756 115.531034 
L 319.56123 114.163862 
L 320.374901 111.220966 
L 322.002242 120.119172 
L 322.815913 107.142621 
L 323.629583 122.320552 
L 324.443254 105.705931 
L 325.256924 109.784276 
L 326.070595 111.035586 
L 326.884265 115.160276 
L 327.697936 110.317241 
L 328.511606 113.816276 
L 329.325277 106.841379 
L 330.138947 121.34731 
L 330.952618 119.006897 
L 331.766288 119.030069 
L 332.579959 110.989241 
L 334.2073 118.543448 
L 335.020971 115.948138 
L 335.834641 108.208552 
L 336.648312 112.101517 
L 337.461982 105.427862 
L 338.275653 110.131862 
L 339.089323 112.866207 
L 339.902994 113.074759 
L 340.716664 121.741241 
L 341.530335 116.944552 
L 342.344005 114.789517 
L 343.157676 123.201103 
L 343.971347 119.539862 
L 344.785017 123.618207 
L 345.598688 119.215448 
L 346.412358 108.417103 
L 347.226029 104.64 
L 348.039699 105.566897 
L 348.85337 120.142345 
L 349.66704 113.630897 
L 350.480711 109.598897 
L 351.294381 113.352828 
L 352.108052 110.711172 
L 352.921722 106.841379 
L 353.735393 118.288552 
L 354.549064 109.019586 
L 355.362734 122.320552 
L 356.176405 108.695172 
L 356.990075 112.379586 
L 357.803746 128.275862 
L 358.617416 123.919448 
L 360.244757 113.862621 
L 361.058428 119.493517 
L 361.872098 108.718345 
L 362.685769 115.438345 
L 363.49944 112.217379 
L 364.31311 112.263724 
L 365.126781 124.243862 
L 365.940451 115.392 
L 366.754122 110.085517 
L 367.567792 105.960828 
L 368.381463 113.746759 
L 369.195133 131.195586 
L 370.008804 125.37931 
L 370.822474 113.978483 
L 371.636145 114.488276 
L 372.449815 109.737931 
L 373.263486 115.206621 
L 374.077157 114.835862 
L 374.890827 119.354483 
L 375.704498 110.062345 
L 376.518168 116.573793 
L 377.331839 121.393655 
L 378.145509 133.466483 
L 378.95918 121.254621 
L 379.77285 114.441931 
L 380.586521 115.438345 
L 381.400191 113.306483 
L 382.213862 123.062069 
L 383.841203 111.661241 
L 384.654874 112.356414 
L 385.468544 120.86069 
L 386.282215 108.115862 
L 387.095885 106.887724 
L 387.909556 112.958897 
L 388.723226 110.131862 
L 389.536897 111.290483 
L 390.350567 107.675586 
L 391.164238 112.727172 
L 391.977908 109.668414 
L 392.791579 114.974897 
L 393.605249 110.062345 
L 394.41892 129.179586 
L 395.232591 114.071172 
L 396.046261 118.219034 
L 396.859932 112.588138 
L 397.673602 113.491862 
L 398.487273 141.043862 
L 398.487273 141.043862 
" style="fill:none;stroke:#ff7f0e;stroke-linecap:square;stroke-width:1.5;"/>
   </g>
   <g id="patch_3">
    <path d="M 57.6 307.584 
L 57.6 41.472 
" style="fill:none;stroke:#000000;stroke-linecap:square;stroke-linejoin:miter;stroke-width:0.8;"/>
   </g>
   <g id="patch_4">
    <path d="M 414.72 307.584 
L 414.72 41.472 
" style="fill:none;stroke:#000000;stroke-linecap:square;stroke-linejoin:miter;stroke-width:0.8;"/>
   </g>
   <g id="patch_5">
    <path d="M 57.6 307.584 
L 414.72 307.584 
" style="fill:none;stroke:#000000;stroke-linecap:square;stroke-linejoin:miter;stroke-width:0.8;"/>
   </g>
   <g id="patch_6">
    <path d="M 57.6 41.472 
L 414.72 41.472 
" style="fill:none;stroke:#000000;stroke-linecap:square;stroke-linejoin:miter;stroke-width:0.8;"/>
   </g>
   <g id="legend_1">
    <g id="patch_7">
     <path d="M 303.845 302.584 
L 407.72 302.584 
Q 409.72 302.584 409.72 300.584 
L 409.72 272.22775 
Q 409.72 270.22775 407.72 270.22775 
L 303.845 270.22775 
Q 301.845 270.22775 301.845 272.22775 
L 301.845 300.584 
Q 301.845 302.584 303.845 302.584 
z
" style="fill:#ffffff;opacity:0.8;stroke:#cccccc;stroke-linejoin:miter;"/>
    </g>
    <g id="line2d_17">
     <path d="M 305.845 278.326187 
L 325.845 278.326187 
" style="fill:none;stroke:#1f77b4;stroke-linecap:square;stroke-width:1.5;"/>
    </g>
    <g id="line2d_18"/>
    <g id="text_17">
     <!-- Train loss -->
     <g transform="translate(333.845 281.826187)scale(0.1 -0.1)">
      <defs>
       <path d="M -19 4666 
L 3928 4666 
L 3928 4134 
L 2272 4134 
L 2272 0 
L 1638 0 
L 1638 4134 
L -19 4134 
L -19 4666 
z
" id="DejaVuSans-54" transform="scale(0.015625)"/>
       <path d="M 2631 2963 
Q 2534 3019 2420 3045 
Q 2306 3072 2169 3072 
Q 1681 3072 1420 2755 
Q 1159 2438 1159 1844 
L 1159 0 
L 581 0 
L 581 3500 
L 1159 3500 
L 1159 2956 
Q 1341 3275 1631 3429 
Q 1922 3584 2338 3584 
Q 2397 3584 2469 3576 
Q 2541 3569 2628 3553 
L 2631 2963 
z
" id="DejaVuSans-72" transform="scale(0.015625)"/>
       <path d="M 2194 1759 
Q 1497 1759 1228 1600 
Q 959 1441 959 1056 
Q 959 750 1161 570 
Q 1363 391 1709 391 
Q 2188 391 2477 730 
Q 2766 1069 2766 1631 
L 2766 1759 
L 2194 1759 
z
M 3341 1997 
L 3341 0 
L 2766 0 
L 2766 531 
Q 2569 213 2275 61 
Q 1981 -91 1556 -91 
Q 1019 -91 701 211 
Q 384 513 384 1019 
Q 384 1609 779 1909 
Q 1175 2209 1959 2209 
L 2766 2209 
L 2766 2266 
Q 2766 2663 2505 2880 
Q 2244 3097 1772 3097 
Q 1472 3097 1187 3025 
Q 903 2953 641 2809 
L 641 3341 
Q 956 3463 1253 3523 
Q 1550 3584 1831 3584 
Q 2591 3584 2966 3190 
Q 3341 2797 3341 1997 
z
" id="DejaVuSans-61" transform="scale(0.015625)"/>
       <path d="M 603 3500 
L 1178 3500 
L 1178 0 
L 603 0 
L 603 3500 
z
M 603 4863 
L 1178 4863 
L 1178 4134 
L 603 4134 
L 603 4863 
z
" id="DejaVuSans-69" transform="scale(0.015625)"/>
       <path d="M 3513 2113 
L 3513 0 
L 2938 0 
L 2938 2094 
Q 2938 2591 2744 2837 
Q 2550 3084 2163 3084 
Q 1697 3084 1428 2787 
Q 1159 2491 1159 1978 
L 1159 0 
L 581 0 
L 581 3500 
L 1159 3500 
L 1159 2956 
Q 1366 3272 1645 3428 
Q 1925 3584 2291 3584 
Q 2894 3584 3203 3211 
Q 3513 2838 3513 2113 
z
" id="DejaVuSans-6e" transform="scale(0.015625)"/>
       <path id="DejaVuSans-20" transform="scale(0.015625)"/>
       <path d="M 603 4863 
L 1178 4863 
L 1178 0 
L 603 0 
L 603 4863 
z
" id="DejaVuSans-6c" transform="scale(0.015625)"/>
      </defs>
      <use xlink:href="#DejaVuSans-54"/>
      <use x="46.333984" xlink:href="#DejaVuSans-72"/>
      <use x="87.447266" xlink:href="#DejaVuSans-61"/>
      <use x="148.726562" xlink:href="#DejaVuSans-69"/>
      <use x="176.509766" xlink:href="#DejaVuSans-6e"/>
      <use x="239.888672" xlink:href="#DejaVuSans-20"/>
      <use x="271.675781" xlink:href="#DejaVuSans-6c"/>
      <use x="299.458984" xlink:href="#DejaVuSans-6f"/>
      <use x="360.640625" xlink:href="#DejaVuSans-73"/>
      <use x="412.740234" xlink:href="#DejaVuSans-73"/>
     </g>
    </g>
    <g id="line2d_19">
     <path d="M 305.845 293.004312 
L 325.845 293.004312 
" style="fill:none;stroke:#ff7f0e;stroke-linecap:square;stroke-width:1.5;"/>
    </g>
    <g id="line2d_20"/>
    <g id="text_18">
     <!-- Validation loss -->
     <g transform="translate(333.845 296.504312)scale(0.1 -0.1)">
      <defs>
       <path d="M 1831 0 
L 50 4666 
L 709 4666 
L 2188 738 
L 3669 4666 
L 4325 4666 
L 2547 0 
L 1831 0 
z
" id="DejaVuSans-56" transform="scale(0.015625)"/>
       <path d="M 2906 2969 
L 2906 4863 
L 3481 4863 
L 3481 0 
L 2906 0 
L 2906 525 
Q 2725 213 2448 61 
Q 2172 -91 1784 -91 
Q 1150 -91 751 415 
Q 353 922 353 1747 
Q 353 2572 751 3078 
Q 1150 3584 1784 3584 
Q 2172 3584 2448 3432 
Q 2725 3281 2906 2969 
z
M 947 1747 
Q 947 1113 1208 752 
Q 1469 391 1925 391 
Q 2381 391 2643 752 
Q 2906 1113 2906 1747 
Q 2906 2381 2643 2742 
Q 2381 3103 1925 3103 
Q 1469 3103 1208 2742 
Q 947 2381 947 1747 
z
" id="DejaVuSans-64" transform="scale(0.015625)"/>
       <path d="M 1172 4494 
L 1172 3500 
L 2356 3500 
L 2356 3053 
L 1172 3053 
L 1172 1153 
Q 1172 725 1289 603 
Q 1406 481 1766 481 
L 2356 481 
L 2356 0 
L 1766 0 
Q 1100 0 847 248 
Q 594 497 594 1153 
L 594 3053 
L 172 3053 
L 172 3500 
L 594 3500 
L 594 4494 
L 1172 4494 
z
" id="DejaVuSans-74" transform="scale(0.015625)"/>
      </defs>
      <use xlink:href="#DejaVuSans-56"/>
      <use x="60.658203" xlink:href="#DejaVuSans-61"/>
      <use x="121.9375" xlink:href="#DejaVuSans-6c"/>
      <use x="149.720703" xlink:href="#DejaVuSans-69"/>
      <use x="177.503906" xlink:href="#DejaVuSans-64"/>
      <use x="240.980469" xlink:href="#DejaVuSans-61"/>
      <use x="302.259766" xlink:href="#DejaVuSans-74"/>
      <use x="341.46875" xlink:href="#DejaVuSans-69"/>
      <use x="369.251953" xlink:href="#DejaVuSans-6f"/>
      <use x="430.433594" xlink:href="#DejaVuSans-6e"/>
      <use x="493.8125" xlink:href="#DejaVuSans-20"/>
      <use x="525.599609" xlink:href="#DejaVuSans-6c"/>
      <use x="553.382812" xlink:href="#DejaVuSans-6f"/>
      <use x="614.564453" xlink:href="#DejaVuSans-73"/>
      <use x="666.664062" xlink:href="#DejaVuSans-73"/>
     </g>
    </g>
   </g>
  </g>
 </g>
 <defs>
  <clipPath id="p57a012e5e8">
   <rect height="266.112" width="357.12" x="57.6" y="41.472"/>
  </clipPath>
 </defs>
</svg>
