<?xml version="1.0" encoding="utf-8" standalone="no"?>
<!DOCTYPE svg PUBLIC "-//W3C//DTD SVG 1.1//EN"
  "http://www.w3.org/Graphics/SVG/1.1/DTD/svg11.dtd">
<svg height="345.6pt" version="1.1" viewBox="0 0 460.8 345.6" width="460.8pt" xmlns="http://www.w3.org/2000/svg" xmlns:xlink="http://www.w3.org/1999/xlink">
 <metadata>
  <rdf:RDF xmlns:cc="http://creativecommons.org/ns#" xmlns:dc="http://purl.org/dc/elements/1.1/" xmlns:rdf="http://www.w3.org/1999/02/22-rdf-syntax-ns#">
   <cc:Work>
    <dc:type rdf:resource="http://purl.org/dc/dcmitype/StillImage"/>
    <dc:date>2021-07-29T08:20:04.519231</dc:date>
    <dc:format>image/svg+xml</dc:format>
    <dc:creator>
     <cc:Agent>
      <dc:title>Matplotlib v3.4.2, https://matplotlib.org/</dc:title>
     </cc:Agent>
    </dc:creator>
   </cc:Work>
  </rdf:RDF>
 </metadata>
 <defs>
  <style type="text/css">*{stroke-linecap:butt;stroke-linejoin:round;}</style>
 </defs>
 <g id="figure_1">
  <g id="patch_1">
   <path d="M 0 345.6 
L 460.8 345.6 
L 460.8 0 
L 0 0 
z
" style="fill:#ffffff;"/>
  </g>
  <g id="axes_1">
   <g id="patch_2">
    <path d="M 57.6 307.584 
L 414.72 307.584 
L 414.72 41.472 
L 57.6 41.472 
z
" style="fill:#ffffff;"/>
   </g>
   <g id="matplotlib.axis_1">
    <g id="xtick_1">
     <g id="line2d_1">
      <defs>
       <path d="M 0 0 
L 0 3.5 
" id="m83c5980268" style="stroke:#000000;stroke-width:0.8;"/>
      </defs>
      <g>
       <use style="stroke:#000000;stroke-width:0.8;" x="72.350286" xlink:href="#m83c5980268" y="307.584"/>
      </g>
     </g>
     <g id="text_1">
      <!-- 0 -->
      <g transform="translate(69.169036 322.182437)scale(0.1 -0.1)">
       <defs>
        <path d="M 2034 4250 
Q 1547 4250 1301 3770 
Q 1056 3291 1056 2328 
Q 1056 1369 1301 889 
Q 1547 409 2034 409 
Q 2525 409 2770 889 
Q 3016 1369 3016 2328 
Q 3016 3291 2770 3770 
Q 2525 4250 2034 4250 
z
M 2034 4750 
Q 2819 4750 3233 4129 
Q 3647 3509 3647 2328 
Q 3647 1150 3233 529 
Q 2819 -91 2034 -91 
Q 1250 -91 836 529 
Q 422 1150 422 2328 
Q 422 3509 836 4129 
Q 1250 4750 2034 4750 
z
" id="DejaVuSans-30" transform="scale(0.015625)"/>
       </defs>
       <use xlink:href="#DejaVuSans-30"/>
      </g>
     </g>
    </g>
    <g id="xtick_2">
     <g id="line2d_2">
      <g>
       <use style="stroke:#000000;stroke-width:0.8;" x="146.472329" xlink:href="#m83c5980268" y="307.584"/>
      </g>
     </g>
     <g id="text_2">
      <!-- 50 -->
      <g transform="translate(140.109829 322.182437)scale(0.1 -0.1)">
       <defs>
        <path d="M 691 4666 
L 3169 4666 
L 3169 4134 
L 1269 4134 
L 1269 2991 
Q 1406 3038 1543 3061 
Q 1681 3084 1819 3084 
Q 2600 3084 3056 2656 
Q 3513 2228 3513 1497 
Q 3513 744 3044 326 
Q 2575 -91 1722 -91 
Q 1428 -91 1123 -41 
Q 819 9 494 109 
L 494 744 
Q 775 591 1075 516 
Q 1375 441 1709 441 
Q 2250 441 2565 725 
Q 2881 1009 2881 1497 
Q 2881 1984 2565 2268 
Q 2250 2553 1709 2553 
Q 1456 2553 1204 2497 
Q 953 2441 691 2322 
L 691 4666 
z
" id="DejaVuSans-35" transform="scale(0.015625)"/>
       </defs>
       <use xlink:href="#DejaVuSans-35"/>
       <use x="63.623047" xlink:href="#DejaVuSans-30"/>
      </g>
     </g>
    </g>
    <g id="xtick_3">
     <g id="line2d_3">
      <g>
       <use style="stroke:#000000;stroke-width:0.8;" x="220.594371" xlink:href="#m83c5980268" y="307.584"/>
      </g>
     </g>
     <g id="text_3">
      <!-- 100 -->
      <g transform="translate(211.050621 322.182437)scale(0.1 -0.1)">
       <defs>
        <path d="M 794 531 
L 1825 531 
L 1825 4091 
L 703 3866 
L 703 4441 
L 1819 4666 
L 2450 4666 
L 2450 531 
L 3481 531 
L 3481 0 
L 794 0 
L 794 531 
z
" id="DejaVuSans-31" transform="scale(0.015625)"/>
       </defs>
       <use xlink:href="#DejaVuSans-31"/>
       <use x="63.623047" xlink:href="#DejaVuSans-30"/>
       <use x="127.246094" xlink:href="#DejaVuSans-30"/>
      </g>
     </g>
    </g>
    <g id="xtick_4">
     <g id="line2d_4">
      <g>
       <use style="stroke:#000000;stroke-width:0.8;" x="294.716413" xlink:href="#m83c5980268" y="307.584"/>
      </g>
     </g>
     <g id="text_4">
      <!-- 150 -->
      <g transform="translate(285.172663 322.182437)scale(0.1 -0.1)">
       <use xlink:href="#DejaVuSans-31"/>
       <use x="63.623047" xlink:href="#DejaVuSans-35"/>
       <use x="127.246094" xlink:href="#DejaVuSans-30"/>
      </g>
     </g>
    </g>
    <g id="xtick_5">
     <g id="line2d_5">
      <g>
       <use style="stroke:#000000;stroke-width:0.8;" x="368.838456" xlink:href="#m83c5980268" y="307.584"/>
      </g>
     </g>
     <g id="text_5">
      <!-- 200 -->
      <g transform="translate(359.294706 322.182437)scale(0.1 -0.1)">
       <defs>
        <path d="M 1228 531 
L 3431 531 
L 3431 0 
L 469 0 
L 469 531 
Q 828 903 1448 1529 
Q 2069 2156 2228 2338 
Q 2531 2678 2651 2914 
Q 2772 3150 2772 3378 
Q 2772 3750 2511 3984 
Q 2250 4219 1831 4219 
Q 1534 4219 1204 4116 
Q 875 4013 500 3803 
L 500 4441 
Q 881 4594 1212 4672 
Q 1544 4750 1819 4750 
Q 2544 4750 2975 4387 
Q 3406 4025 3406 3419 
Q 3406 3131 3298 2873 
Q 3191 2616 2906 2266 
Q 2828 2175 2409 1742 
Q 1991 1309 1228 531 
z
" id="DejaVuSans-32" transform="scale(0.015625)"/>
       </defs>
       <use xlink:href="#DejaVuSans-32"/>
       <use x="63.623047" xlink:href="#DejaVuSans-30"/>
       <use x="127.246094" xlink:href="#DejaVuSans-30"/>
      </g>
     </g>
    </g>
    <g id="text_6">
     <!-- Epoch -->
     <g transform="translate(213.193594 339.659781)scale(0.15 -0.15)">
      <defs>
       <path d="M 628 4666 
L 3578 4666 
L 3578 4134 
L 1259 4134 
L 1259 2753 
L 3481 2753 
L 3481 2222 
L 1259 2222 
L 1259 531 
L 3634 531 
L 3634 0 
L 628 0 
L 628 4666 
z
" id="DejaVuSans-45" transform="scale(0.015625)"/>
       <path d="M 1159 525 
L 1159 -1331 
L 581 -1331 
L 581 3500 
L 1159 3500 
L 1159 2969 
Q 1341 3281 1617 3432 
Q 1894 3584 2278 3584 
Q 2916 3584 3314 3078 
Q 3713 2572 3713 1747 
Q 3713 922 3314 415 
Q 2916 -91 2278 -91 
Q 1894 -91 1617 61 
Q 1341 213 1159 525 
z
M 3116 1747 
Q 3116 2381 2855 2742 
Q 2594 3103 2138 3103 
Q 1681 3103 1420 2742 
Q 1159 2381 1159 1747 
Q 1159 1113 1420 752 
Q 1681 391 2138 391 
Q 2594 391 2855 752 
Q 3116 1113 3116 1747 
z
" id="DejaVuSans-70" transform="scale(0.015625)"/>
       <path d="M 1959 3097 
Q 1497 3097 1228 2736 
Q 959 2375 959 1747 
Q 959 1119 1226 758 
Q 1494 397 1959 397 
Q 2419 397 2687 759 
Q 2956 1122 2956 1747 
Q 2956 2369 2687 2733 
Q 2419 3097 1959 3097 
z
M 1959 3584 
Q 2709 3584 3137 3096 
Q 3566 2609 3566 1747 
Q 3566 888 3137 398 
Q 2709 -91 1959 -91 
Q 1206 -91 779 398 
Q 353 888 353 1747 
Q 353 2609 779 3096 
Q 1206 3584 1959 3584 
z
" id="DejaVuSans-6f" transform="scale(0.015625)"/>
       <path d="M 3122 3366 
L 3122 2828 
Q 2878 2963 2633 3030 
Q 2388 3097 2138 3097 
Q 1578 3097 1268 2742 
Q 959 2388 959 1747 
Q 959 1106 1268 751 
Q 1578 397 2138 397 
Q 2388 397 2633 464 
Q 2878 531 3122 666 
L 3122 134 
Q 2881 22 2623 -34 
Q 2366 -91 2075 -91 
Q 1284 -91 818 406 
Q 353 903 353 1747 
Q 353 2603 823 3093 
Q 1294 3584 2113 3584 
Q 2378 3584 2631 3529 
Q 2884 3475 3122 3366 
z
" id="DejaVuSans-63" transform="scale(0.015625)"/>
       <path d="M 3513 2113 
L 3513 0 
L 2938 0 
L 2938 2094 
Q 2938 2591 2744 2837 
Q 2550 3084 2163 3084 
Q 1697 3084 1428 2787 
Q 1159 2491 1159 1978 
L 1159 0 
L 581 0 
L 581 4863 
L 1159 4863 
L 1159 2956 
Q 1366 3272 1645 3428 
Q 1925 3584 2291 3584 
Q 2894 3584 3203 3211 
Q 3513 2838 3513 2113 
z
" id="DejaVuSans-68" transform="scale(0.015625)"/>
      </defs>
      <use xlink:href="#DejaVuSans-45"/>
      <use x="63.183594" xlink:href="#DejaVuSans-70"/>
      <use x="126.660156" xlink:href="#DejaVuSans-6f"/>
      <use x="187.841797" xlink:href="#DejaVuSans-63"/>
      <use x="242.822266" xlink:href="#DejaVuSans-68"/>
     </g>
    </g>
   </g>
   <g id="matplotlib.axis_2">
    <g id="ytick_1">
     <g id="line2d_6">
      <defs>
       <path d="M 0 0 
L -3.5 0 
" id="m5696132731" style="stroke:#000000;stroke-width:0.8;"/>
      </defs>
      <g>
       <use style="stroke:#000000;stroke-width:0.8;" x="57.6" xlink:href="#m5696132731" y="296.034092"/>
      </g>
     </g>
     <g id="text_7">
      <!-- −0.175 -->
      <g transform="translate(13.592188 299.833311)scale(0.1 -0.1)">
       <defs>
        <path d="M 678 2272 
L 4684 2272 
L 4684 1741 
L 678 1741 
L 678 2272 
z
" id="DejaVuSans-2212" transform="scale(0.015625)"/>
        <path d="M 684 794 
L 1344 794 
L 1344 0 
L 684 0 
L 684 794 
z
" id="DejaVuSans-2e" transform="scale(0.015625)"/>
        <path d="M 525 4666 
L 3525 4666 
L 3525 4397 
L 1831 0 
L 1172 0 
L 2766 4134 
L 525 4134 
L 525 4666 
z
" id="DejaVuSans-37" transform="scale(0.015625)"/>
       </defs>
       <use xlink:href="#DejaVuSans-2212"/>
       <use x="83.789062" xlink:href="#DejaVuSans-30"/>
       <use x="147.412109" xlink:href="#DejaVuSans-2e"/>
       <use x="179.199219" xlink:href="#DejaVuSans-31"/>
       <use x="242.822266" xlink:href="#DejaVuSans-37"/>
       <use x="306.445312" xlink:href="#DejaVuSans-35"/>
      </g>
     </g>
    </g>
    <g id="ytick_2">
     <g id="line2d_7">
      <g>
       <use style="stroke:#000000;stroke-width:0.8;" x="57.6" xlink:href="#m5696132731" y="261.396804"/>
      </g>
     </g>
     <g id="text_8">
      <!-- −0.150 -->
      <g transform="translate(13.592188 265.196023)scale(0.1 -0.1)">
       <use xlink:href="#DejaVuSans-2212"/>
       <use x="83.789062" xlink:href="#DejaVuSans-30"/>
       <use x="147.412109" xlink:href="#DejaVuSans-2e"/>
       <use x="179.199219" xlink:href="#DejaVuSans-31"/>
       <use x="242.822266" xlink:href="#DejaVuSans-35"/>
       <use x="306.445312" xlink:href="#DejaVuSans-30"/>
      </g>
     </g>
    </g>
    <g id="ytick_3">
     <g id="line2d_8">
      <g>
       <use style="stroke:#000000;stroke-width:0.8;" x="57.6" xlink:href="#m5696132731" y="226.759516"/>
      </g>
     </g>
     <g id="text_9">
      <!-- −0.125 -->
      <g transform="translate(13.592188 230.558734)scale(0.1 -0.1)">
       <use xlink:href="#DejaVuSans-2212"/>
       <use x="83.789062" xlink:href="#DejaVuSans-30"/>
       <use x="147.412109" xlink:href="#DejaVuSans-2e"/>
       <use x="179.199219" xlink:href="#DejaVuSans-31"/>
       <use x="242.822266" xlink:href="#DejaVuSans-32"/>
       <use x="306.445312" xlink:href="#DejaVuSans-35"/>
      </g>
     </g>
    </g>
    <g id="ytick_4">
     <g id="line2d_9">
      <g>
       <use style="stroke:#000000;stroke-width:0.8;" x="57.6" xlink:href="#m5696132731" y="192.122227"/>
      </g>
     </g>
     <g id="text_10">
      <!-- −0.100 -->
      <g transform="translate(13.592188 195.921446)scale(0.1 -0.1)">
       <use xlink:href="#DejaVuSans-2212"/>
       <use x="83.789062" xlink:href="#DejaVuSans-30"/>
       <use x="147.412109" xlink:href="#DejaVuSans-2e"/>
       <use x="179.199219" xlink:href="#DejaVuSans-31"/>
       <use x="242.822266" xlink:href="#DejaVuSans-30"/>
       <use x="306.445312" xlink:href="#DejaVuSans-30"/>
      </g>
     </g>
    </g>
    <g id="ytick_5">
     <g id="line2d_10">
      <g>
       <use style="stroke:#000000;stroke-width:0.8;" x="57.6" xlink:href="#m5696132731" y="157.484939"/>
      </g>
     </g>
     <g id="text_11">
      <!-- −0.075 -->
      <g transform="translate(13.592188 161.284158)scale(0.1 -0.1)">
       <use xlink:href="#DejaVuSans-2212"/>
       <use x="83.789062" xlink:href="#DejaVuSans-30"/>
       <use x="147.412109" xlink:href="#DejaVuSans-2e"/>
       <use x="179.199219" xlink:href="#DejaVuSans-30"/>
       <use x="242.822266" xlink:href="#DejaVuSans-37"/>
       <use x="306.445312" xlink:href="#DejaVuSans-35"/>
      </g>
     </g>
    </g>
    <g id="ytick_6">
     <g id="line2d_11">
      <g>
       <use style="stroke:#000000;stroke-width:0.8;" x="57.6" xlink:href="#m5696132731" y="122.847651"/>
      </g>
     </g>
     <g id="text_12">
      <!-- −0.050 -->
      <g transform="translate(13.592188 126.64687)scale(0.1 -0.1)">
       <use xlink:href="#DejaVuSans-2212"/>
       <use x="83.789062" xlink:href="#DejaVuSans-30"/>
       <use x="147.412109" xlink:href="#DejaVuSans-2e"/>
       <use x="179.199219" xlink:href="#DejaVuSans-30"/>
       <use x="242.822266" xlink:href="#DejaVuSans-35"/>
       <use x="306.445312" xlink:href="#DejaVuSans-30"/>
      </g>
     </g>
    </g>
    <g id="ytick_7">
     <g id="line2d_12">
      <g>
       <use style="stroke:#000000;stroke-width:0.8;" x="57.6" xlink:href="#m5696132731" y="88.210363"/>
      </g>
     </g>
     <g id="text_13">
      <!-- −0.025 -->
      <g transform="translate(13.592188 92.009581)scale(0.1 -0.1)">
       <use xlink:href="#DejaVuSans-2212"/>
       <use x="83.789062" xlink:href="#DejaVuSans-30"/>
       <use x="147.412109" xlink:href="#DejaVuSans-2e"/>
       <use x="179.199219" xlink:href="#DejaVuSans-30"/>
       <use x="242.822266" xlink:href="#DejaVuSans-32"/>
       <use x="306.445312" xlink:href="#DejaVuSans-35"/>
      </g>
     </g>
    </g>
    <g id="ytick_8">
     <g id="line2d_13">
      <g>
       <use style="stroke:#000000;stroke-width:0.8;" x="57.6" xlink:href="#m5696132731" y="53.573074"/>
      </g>
     </g>
     <g id="text_14">
      <!-- 0.000 -->
      <g transform="translate(21.971875 57.372293)scale(0.1 -0.1)">
       <use xlink:href="#DejaVuSans-30"/>
       <use x="63.623047" xlink:href="#DejaVuSans-2e"/>
       <use x="95.410156" xlink:href="#DejaVuSans-30"/>
       <use x="159.033203" xlink:href="#DejaVuSans-30"/>
       <use x="222.65625" xlink:href="#DejaVuSans-30"/>
      </g>
     </g>
    </g>
   </g>
   <g id="line2d_14">
    <path clip-path="url(#padc53a527f)" d="M 73.832727 53.568 
L 110.893748 53.809275 
L 115.341071 54.402064 
L 116.823512 54.715156 
L 118.305953 54.571838 
L 121.270834 54.908013 
L 122.753275 55.032911 
L 124.235716 55.017437 
L 127.200598 55.720767 
L 128.683039 56.175809 
L 131.64792 57.740062 
L 133.130361 59.622883 
L 134.612802 62.857503 
L 136.095243 63.577717 
L 137.577684 62.457569 
L 139.060125 64.189348 
L 140.542565 66.936169 
L 142.025006 68.447092 
L 144.989888 69.200688 
L 146.472329 71.062255 
L 147.95477 74.516428 
L 149.43721 74.908032 
L 150.919651 76.522105 
L 152.402092 79.132165 
L 153.884533 81.048096 
L 155.366974 82.29784 
L 156.849415 82.743671 
L 158.331856 87.798955 
L 159.814296 89.009307 
L 161.296737 91.511864 
L 162.779178 87.215121 
L 164.261619 92.548454 
L 165.74406 95.11695 
L 167.226501 94.860464 
L 168.708941 93.845083 
L 170.191382 98.641157 
L 171.673823 101.34148 
L 173.156264 98.29665 
L 174.638705 104.374859 
L 176.121146 111.247453 
L 177.603587 105.920484 
L 179.086027 108.875957 
L 180.568468 108.476063 
L 182.050909 110.421633 
L 183.53335 110.649251 
L 185.015791 116.713017 
L 186.498232 120.027014 
L 187.980672 120.75813 
L 189.463113 120.495649 
L 190.945554 122.149653 
L 192.427995 121.383401 
L 193.910436 121.87923 
L 195.392877 118.781523 
L 196.875318 125.870299 
L 198.357758 129.595587 
L 199.840199 136.516265 
L 201.32264 132.540807 
L 202.805081 134.963203 
L 204.287522 134.141422 
L 205.769963 135.976643 
L 207.252403 141.706154 
L 208.734844 137.484777 
L 210.217285 142.847936 
L 211.699726 144.942445 
L 213.182167 142.412759 
L 214.664608 149.07481 
L 216.147049 150.464588 
L 217.629489 149.237351 
L 219.11193 157.115725 
L 220.594371 156.87307 
L 222.076812 156.906236 
L 223.559253 162.486762 
L 225.041694 162.229533 
L 226.524134 169.751871 
L 228.006575 157.453568 
L 229.489016 163.219751 
L 230.971457 159.514593 
L 232.453898 160.37366 
L 233.936339 158.67187 
L 235.41878 158.604246 
L 236.90122 156.456213 
L 238.383661 168.288658 
L 239.866102 162.39139 
L 241.348543 173.906965 
L 242.830984 170.275387 
L 244.313425 169.96629 
L 245.795866 181.21779 
L 247.278306 180.742364 
L 248.760747 178.607742 
L 250.243188 185.63593 
L 251.725629 184.853999 
L 253.20807 191.106138 
L 254.690511 185.622988 
L 256.172951 190.409679 
L 257.655392 190.385978 
L 259.137833 198.992803 
L 260.620274 195.592554 
L 262.102715 202.582562 
L 263.585156 205.293656 
L 265.067597 197.50168 
L 266.550037 201.301966 
L 268.032478 211.794105 
L 269.514919 212.798854 
L 270.99736 214.625871 
L 272.479801 210.414322 
L 273.962242 215.848914 
L 276.927123 223.218378 
L 278.409564 218.358513 
L 279.892005 219.803879 
L 281.374446 226.86988 
L 282.856887 219.9032 
L 284.339328 232.769779 
L 285.821768 223.436815 
L 287.304209 223.322671 
L 288.78665 233.00146 
L 291.751532 233.387904 
L 293.233973 227.154569 
L 294.716413 233.989954 
L 296.198854 242.757496 
L 297.681295 228.07931 
L 299.163736 231.191574 
L 300.646177 245.09912 
L 302.128618 243.062404 
L 303.611059 239.372551 
L 305.093499 236.900109 
L 306.57594 241.58906 
L 308.058381 244.043737 
L 309.540822 242.876396 
L 311.023263 250.396178 
L 312.505704 235.545096 
L 313.988144 248.306442 
L 315.470585 245.138923 
L 316.953026 248.234934 
L 318.435467 244.892327 
L 319.917908 242.445931 
L 321.400349 257.40733 
L 322.88279 259.094382 
L 324.36523 252.379325 
L 325.847671 254.569242 
L 327.330112 254.83646 
L 328.812553 251.478903 
L 330.294994 247.51314 
L 331.777435 255.499373 
L 333.259875 252.752136 
L 334.742316 260.669499 
L 336.224757 259.472794 
L 337.707198 261.791256 
L 339.189639 252.876931 
L 340.67208 263.643502 
L 342.154521 251.672178 
L 343.636961 259.664165 
L 345.119402 259.165193 
L 346.601843 261.042537 
L 348.084284 267.500961 
L 349.566725 260.340454 
L 351.049166 267.769901 
L 352.531606 257.757235 
L 354.014047 257.640738 
L 355.496488 258.153705 
L 356.978929 257.31462 
L 358.46137 261.589525 
L 359.943811 267.622257 
L 361.426252 263.396352 
L 362.908692 262.445272 
L 364.391133 266.622348 
L 365.873574 285.14744 
L 368.838456 267.245998 
L 370.320897 268.857434 
L 371.803337 266.869687 
L 373.285778 267.166647 
L 374.768219 264.108149 
L 376.25066 261.477814 
L 377.733101 271.738064 
L 379.215542 261.966109 
L 380.697983 263.85133 
L 382.180423 270.982717 
L 383.662864 272.220859 
L 385.145305 267.829072 
L 386.627746 268.884261 
L 388.110187 280.75983 
L 389.592628 273.191461 
L 391.075068 279.514019 
L 392.557509 270.190348 
L 394.03995 274.291319 
L 395.522391 283.007591 
L 397.004832 275.437232 
L 398.487273 269.924223 
L 398.487273 269.924223 
" style="fill:none;stroke:#1f77b4;stroke-linecap:square;stroke-width:1.5;"/>
   </g>
   <g id="line2d_15">
    <path clip-path="url(#padc53a527f)" d="M 73.832727 53.614556 
L 78.28005 53.573459 
L 104.963985 53.682863 
L 107.928867 53.792179 
L 112.376189 53.947376 
L 115.341071 54.693434 
L 116.823512 54.694422 
L 118.305953 54.918954 
L 119.788394 54.606679 
L 121.270834 55.235917 
L 122.753275 54.890536 
L 124.235716 55.789509 
L 125.718157 55.45531 
L 127.200598 56.274523 
L 128.683039 56.133072 
L 130.165479 56.838704 
L 131.64792 57.148892 
L 133.130361 60.670843 
L 134.612802 62.091001 
L 136.095243 61.774437 
L 137.577684 61.837269 
L 139.060125 66.261616 
L 140.542565 70.318584 
L 142.025006 69.137264 
L 144.989888 71.321291 
L 146.472329 73.43638 
L 147.95477 77.214192 
L 149.43721 72.272658 
L 150.919651 78.687679 
L 153.884533 81.779687 
L 155.366974 79.576534 
L 156.849415 81.896579 
L 158.331856 87.195905 
L 159.814296 81.455914 
L 161.296737 82.892312 
L 162.779178 90.201931 
L 164.261619 91.13547 
L 165.74406 98.80858 
L 167.226501 91.289778 
L 168.708941 110.835057 
L 170.191382 93.379485 
L 171.673823 97.204913 
L 173.156264 96.912339 
L 174.638705 110.546163 
L 176.121146 116.463305 
L 177.603587 105.181822 
L 179.086027 120.471547 
L 180.568468 104.405867 
L 182.050909 103.728926 
L 183.53335 120.048428 
L 185.015791 111.631356 
L 186.498232 128.534164 
L 187.980672 110.958321 
L 189.463113 127.49683 
L 190.945554 112.053013 
L 192.427995 121.655053 
L 193.910436 108.591092 
L 195.392877 122.792936 
L 196.875318 130.988258 
L 198.357758 130.852541 
L 199.840199 132.369792 
L 201.32264 152.731752 
L 202.805081 134.861981 
L 204.287522 148.232123 
L 205.769963 121.100466 
L 207.252403 134.300881 
L 208.734844 157.512659 
L 210.217285 163.255597 
L 213.182167 126.941621 
L 214.664608 132.171564 
L 216.147049 143.065029 
L 217.629489 133.563851 
L 219.11193 174.454445 
L 220.594371 152.872993 
L 222.076812 156.977944 
L 223.559253 169.055191 
L 225.041694 170.466141 
L 226.524134 155.372663 
L 228.006575 161.976912 
L 229.489016 169.977108 
L 230.971457 163.535944 
L 232.453898 145.482194 
L 233.936339 157.154764 
L 235.41878 151.700034 
L 236.90122 163.302215 
L 238.383661 169.075834 
L 239.866102 167.545122 
L 241.348543 179.214519 
L 242.830984 170.330332 
L 244.313425 174.938622 
L 245.795866 195.715561 
L 247.278306 186.419037 
L 248.760747 196.977292 
L 250.243188 160.512041 
L 251.725629 156.758043 
L 253.20807 194.09229 
L 254.690511 170.732331 
L 256.172951 167.745202 
L 259.137833 198.94268 
L 260.620274 194.767459 
L 262.102715 213.264683 
L 263.585156 203.854414 
L 265.067597 213.711985 
L 266.550037 215.684333 
L 268.032478 222.997538 
L 269.514919 199.660687 
L 270.99736 208.480299 
L 272.479801 194.873208 
L 273.962242 209.796039 
L 275.444682 208.706957 
L 276.927123 224.605403 
L 278.409564 211.926107 
L 279.892005 216.193961 
L 282.856887 218.663107 
L 284.339328 222.562457 
L 285.821768 213.281588 
L 287.304209 213.285369 
L 288.78665 238.477706 
L 290.269091 241.892394 
L 291.751532 244.879745 
L 293.233973 208.345927 
L 294.716413 229.061408 
L 296.198854 215.878573 
L 297.681295 227.35241 
L 299.163736 236.012511 
L 300.646177 235.567539 
L 302.128618 229.003631 
L 303.611059 248.740046 
L 305.093499 237.269426 
L 306.57594 242.635389 
L 308.058381 231.995046 
L 309.540822 238.558849 
L 311.023263 237.354601 
L 312.505704 246.563416 
L 313.988144 245.250364 
L 315.470585 252.600883 
L 319.917908 235.560674 
L 321.400349 255.289571 
L 322.88279 218.347221 
L 324.36523 281.44615 
L 325.847671 257.754648 
L 327.330112 257.43425 
L 328.812553 229.68963 
L 330.294994 235.014102 
L 331.777435 223.93699 
L 333.259875 236.836233 
L 334.742316 261.208729 
L 336.224757 256.374533 
L 337.707198 262.35801 
L 339.189639 257.389782 
L 340.67208 269.953582 
L 342.154521 240.443818 
L 343.636961 250.970175 
L 345.119402 272.905356 
L 346.601843 253.677247 
L 348.084284 264.646493 
L 349.566725 257.895294 
L 351.049166 264.191264 
L 352.531606 242.453956 
L 354.014047 265.679692 
L 355.496488 257.03355 
L 356.978929 254.684814 
L 358.46137 257.054721 
L 359.943811 261.79035 
L 361.426252 267.364543 
L 362.908692 265.319828 
L 364.391133 253.688818 
L 365.873574 269.534476 
L 367.356015 262.708634 
L 368.838456 276.626516 
L 370.320897 250.517233 
L 371.803337 270.096909 
L 373.285778 258.640592 
L 374.768219 276.084046 
L 376.25066 271.354529 
L 377.733101 269.027842 
L 379.215542 278.729218 
L 380.697983 268.596037 
L 382.180423 275.154498 
L 383.662864 264.018034 
L 385.145305 259.197576 
L 386.627746 253.874457 
L 388.110187 287.422066 
L 389.592628 261.215501 
L 391.075068 248.742038 
L 392.557509 275.77676 
L 394.03995 272.124303 
L 395.522391 277.600049 
L 397.004832 271.399305 
L 398.487273 295.488 
L 398.487273 295.488 
" style="fill:none;stroke:#ff7f0e;stroke-linecap:square;stroke-width:1.5;"/>
   </g>
   <g id="patch_3">
    <path d="M 57.6 307.584 
L 57.6 41.472 
" style="fill:none;stroke:#000000;stroke-linecap:square;stroke-linejoin:miter;stroke-width:0.8;"/>
   </g>
   <g id="patch_4">
    <path d="M 414.72 307.584 
L 414.72 41.472 
" style="fill:none;stroke:#000000;stroke-linecap:square;stroke-linejoin:miter;stroke-width:0.8;"/>
   </g>
   <g id="patch_5">
    <path d="M 57.6 307.584 
L 414.72 307.584 
" style="fill:none;stroke:#000000;stroke-linecap:square;stroke-linejoin:miter;stroke-width:0.8;"/>
   </g>
   <g id="patch_6">
    <path d="M 57.6 41.472 
L 414.72 41.472 
" style="fill:none;stroke:#000000;stroke-linecap:square;stroke-linejoin:miter;stroke-width:0.8;"/>
   </g>
   <g id="legend_1">
    <g id="patch_7">
     <path d="M 303.845 78.82825 
L 407.72 78.82825 
Q 409.72 78.82825 409.72 76.82825 
L 409.72 48.472 
Q 409.72 46.472 407.72 46.472 
L 303.845 46.472 
Q 301.845 46.472 301.845 48.472 
L 301.845 76.82825 
Q 301.845 78.82825 303.845 78.82825 
z
" style="fill:#ffffff;opacity:0.8;stroke:#cccccc;stroke-linejoin:miter;"/>
    </g>
    <g id="line2d_16">
     <path d="M 305.845 54.570437 
L 325.845 54.570437 
" style="fill:none;stroke:#1f77b4;stroke-linecap:square;stroke-width:1.5;"/>
    </g>
    <g id="line2d_17"/>
    <g id="text_15">
     <!-- Train loss -->
     <g transform="translate(333.845 58.070437)scale(0.1 -0.1)">
      <defs>
       <path d="M -19 4666 
L 3928 4666 
L 3928 4134 
L 2272 4134 
L 2272 0 
L 1638 0 
L 1638 4134 
L -19 4134 
L -19 4666 
z
" id="DejaVuSans-54" transform="scale(0.015625)"/>
       <path d="M 2631 2963 
Q 2534 3019 2420 3045 
Q 2306 3072 2169 3072 
Q 1681 3072 1420 2755 
Q 1159 2438 1159 1844 
L 1159 0 
L 581 0 
L 581 3500 
L 1159 3500 
L 1159 2956 
Q 1341 3275 1631 3429 
Q 1922 3584 2338 3584 
Q 2397 3584 2469 3576 
Q 2541 3569 2628 3553 
L 2631 2963 
z
" id="DejaVuSans-72" transform="scale(0.015625)"/>
       <path d="M 2194 1759 
Q 1497 1759 1228 1600 
Q 959 1441 959 1056 
Q 959 750 1161 570 
Q 1363 391 1709 391 
Q 2188 391 2477 730 
Q 2766 1069 2766 1631 
L 2766 1759 
L 2194 1759 
z
M 3341 1997 
L 3341 0 
L 2766 0 
L 2766 531 
Q 2569 213 2275 61 
Q 1981 -91 1556 -91 
Q 1019 -91 701 211 
Q 384 513 384 1019 
Q 384 1609 779 1909 
Q 1175 2209 1959 2209 
L 2766 2209 
L 2766 2266 
Q 2766 2663 2505 2880 
Q 2244 3097 1772 3097 
Q 1472 3097 1187 3025 
Q 903 2953 641 2809 
L 641 3341 
Q 956 3463 1253 3523 
Q 1550 3584 1831 3584 
Q 2591 3584 2966 3190 
Q 3341 2797 3341 1997 
z
" id="DejaVuSans-61" transform="scale(0.015625)"/>
       <path d="M 603 3500 
L 1178 3500 
L 1178 0 
L 603 0 
L 603 3500 
z
M 603 4863 
L 1178 4863 
L 1178 4134 
L 603 4134 
L 603 4863 
z
" id="DejaVuSans-69" transform="scale(0.015625)"/>
       <path d="M 3513 2113 
L 3513 0 
L 2938 0 
L 2938 2094 
Q 2938 2591 2744 2837 
Q 2550 3084 2163 3084 
Q 1697 3084 1428 2787 
Q 1159 2491 1159 1978 
L 1159 0 
L 581 0 
L 581 3500 
L 1159 3500 
L 1159 2956 
Q 1366 3272 1645 3428 
Q 1925 3584 2291 3584 
Q 2894 3584 3203 3211 
Q 3513 2838 3513 2113 
z
" id="DejaVuSans-6e" transform="scale(0.015625)"/>
       <path id="DejaVuSans-20" transform="scale(0.015625)"/>
       <path d="M 603 4863 
L 1178 4863 
L 1178 0 
L 603 0 
L 603 4863 
z
" id="DejaVuSans-6c" transform="scale(0.015625)"/>
       <path d="M 2834 3397 
L 2834 2853 
Q 2591 2978 2328 3040 
Q 2066 3103 1784 3103 
Q 1356 3103 1142 2972 
Q 928 2841 928 2578 
Q 928 2378 1081 2264 
Q 1234 2150 1697 2047 
L 1894 2003 
Q 2506 1872 2764 1633 
Q 3022 1394 3022 966 
Q 3022 478 2636 193 
Q 2250 -91 1575 -91 
Q 1294 -91 989 -36 
Q 684 19 347 128 
L 347 722 
Q 666 556 975 473 
Q 1284 391 1588 391 
Q 1994 391 2212 530 
Q 2431 669 2431 922 
Q 2431 1156 2273 1281 
Q 2116 1406 1581 1522 
L 1381 1569 
Q 847 1681 609 1914 
Q 372 2147 372 2553 
Q 372 3047 722 3315 
Q 1072 3584 1716 3584 
Q 2034 3584 2315 3537 
Q 2597 3491 2834 3397 
z
" id="DejaVuSans-73" transform="scale(0.015625)"/>
      </defs>
      <use xlink:href="#DejaVuSans-54"/>
      <use x="46.333984" xlink:href="#DejaVuSans-72"/>
      <use x="87.447266" xlink:href="#DejaVuSans-61"/>
      <use x="148.726562" xlink:href="#DejaVuSans-69"/>
      <use x="176.509766" xlink:href="#DejaVuSans-6e"/>
      <use x="239.888672" xlink:href="#DejaVuSans-20"/>
      <use x="271.675781" xlink:href="#DejaVuSans-6c"/>
      <use x="299.458984" xlink:href="#DejaVuSans-6f"/>
      <use x="360.640625" xlink:href="#DejaVuSans-73"/>
      <use x="412.740234" xlink:href="#DejaVuSans-73"/>
     </g>
    </g>
    <g id="line2d_18">
     <path d="M 305.845 69.248562 
L 325.845 69.248562 
" style="fill:none;stroke:#ff7f0e;stroke-linecap:square;stroke-width:1.5;"/>
    </g>
    <g id="line2d_19"/>
    <g id="text_16">
     <!-- Validation loss -->
     <g transform="translate(333.845 72.748562)scale(0.1 -0.1)">
      <defs>
       <path d="M 1831 0 
L 50 4666 
L 709 4666 
L 2188 738 
L 3669 4666 
L 4325 4666 
L 2547 0 
L 1831 0 
z
" id="DejaVuSans-56" transform="scale(0.015625)"/>
       <path d="M 2906 2969 
L 2906 4863 
L 3481 4863 
L 3481 0 
L 2906 0 
L 2906 525 
Q 2725 213 2448 61 
Q 2172 -91 1784 -91 
Q 1150 -91 751 415 
Q 353 922 353 1747 
Q 353 2572 751 3078 
Q 1150 3584 1784 3584 
Q 2172 3584 2448 3432 
Q 2725 3281 2906 2969 
z
M 947 1747 
Q 947 1113 1208 752 
Q 1469 391 1925 391 
Q 2381 391 2643 752 
Q 2906 1113 2906 1747 
Q 2906 2381 2643 2742 
Q 2381 3103 1925 3103 
Q 1469 3103 1208 2742 
Q 947 2381 947 1747 
z
" id="DejaVuSans-64" transform="scale(0.015625)"/>
       <path d="M 1172 4494 
L 1172 3500 
L 2356 3500 
L 2356 3053 
L 1172 3053 
L 1172 1153 
Q 1172 725 1289 603 
Q 1406 481 1766 481 
L 2356 481 
L 2356 0 
L 1766 0 
Q 1100 0 847 248 
Q 594 497 594 1153 
L 594 3053 
L 172 3053 
L 172 3500 
L 594 3500 
L 594 4494 
L 1172 4494 
z
" id="DejaVuSans-74" transform="scale(0.015625)"/>
      </defs>
      <use xlink:href="#DejaVuSans-56"/>
      <use x="60.658203" xlink:href="#DejaVuSans-61"/>
      <use x="121.9375" xlink:href="#DejaVuSans-6c"/>
      <use x="149.720703" xlink:href="#DejaVuSans-69"/>
      <use x="177.503906" xlink:href="#DejaVuSans-64"/>
      <use x="240.980469" xlink:href="#DejaVuSans-61"/>
      <use x="302.259766" xlink:href="#DejaVuSans-74"/>
      <use x="341.46875" xlink:href="#DejaVuSans-69"/>
      <use x="369.251953" xlink:href="#DejaVuSans-6f"/>
      <use x="430.433594" xlink:href="#DejaVuSans-6e"/>
      <use x="493.8125" xlink:href="#DejaVuSans-20"/>
      <use x="525.599609" xlink:href="#DejaVuSans-6c"/>
      <use x="553.382812" xlink:href="#DejaVuSans-6f"/>
      <use x="614.564453" xlink:href="#DejaVuSans-73"/>
      <use x="666.664062" xlink:href="#DejaVuSans-73"/>
     </g>
    </g>
   </g>
  </g>
 </g>
 <defs>
  <clipPath id="padc53a527f">
   <rect height="266.112" width="357.12" x="57.6" y="41.472"/>
  </clipPath>
 </defs>
</svg>
