<?xml version="1.0" encoding="utf-8" standalone="no"?>
<!DOCTYPE svg PUBLIC "-//W3C//DTD SVG 1.1//EN"
  "http://www.w3.org/Graphics/SVG/1.1/DTD/svg11.dtd">
<svg height="345.6pt" version="1.1" viewBox="0 0 460.8 345.6" width="460.8pt" xmlns="http://www.w3.org/2000/svg" xmlns:xlink="http://www.w3.org/1999/xlink">
 <metadata>
  <rdf:RDF xmlns:cc="http://creativecommons.org/ns#" xmlns:dc="http://purl.org/dc/elements/1.1/" xmlns:rdf="http://www.w3.org/1999/02/22-rdf-syntax-ns#">
   <cc:Work>
    <dc:type rdf:resource="http://purl.org/dc/dcmitype/StillImage"/>
    <dc:date>2021-07-29T14:46:57.243085</dc:date>
    <dc:format>image/svg+xml</dc:format>
    <dc:creator>
     <cc:Agent>
      <dc:title>Matplotlib v3.4.2, https://matplotlib.org/</dc:title>
     </cc:Agent>
    </dc:creator>
   </cc:Work>
  </rdf:RDF>
 </metadata>
 <defs>
  <style type="text/css">*{stroke-linecap:butt;stroke-linejoin:round;}</style>
 </defs>
 <g id="figure_1">
  <g id="patch_1">
   <path d="M 0 345.6 
L 460.8 345.6 
L 460.8 0 
L 0 0 
z
" style="fill:#ffffff;"/>
  </g>
  <g id="axes_1">
   <g id="patch_2">
    <path d="M 57.6 307.584 
L 414.72 307.584 
L 414.72 41.472 
L 57.6 41.472 
z
" style="fill:#ffffff;"/>
   </g>
   <g id="matplotlib.axis_1">
    <g id="xtick_1">
     <g id="line2d_1">
      <defs>
       <path d="M 0 0 
L 0 3.5 
" id="m28126e78ad" style="stroke:#000000;stroke-width:0.8;"/>
      </defs>
      <g>
       <use style="stroke:#000000;stroke-width:0.8;" x="72.928397" xlink:href="#m28126e78ad" y="307.584"/>
      </g>
     </g>
     <g id="text_1">
      <!-- 0 -->
      <g transform="translate(69.747147 322.182437)scale(0.1 -0.1)">
       <defs>
        <path d="M 2034 4250 
Q 1547 4250 1301 3770 
Q 1056 3291 1056 2328 
Q 1056 1369 1301 889 
Q 1547 409 2034 409 
Q 2525 409 2770 889 
Q 3016 1369 3016 2328 
Q 3016 3291 2770 3770 
Q 2525 4250 2034 4250 
z
M 2034 4750 
Q 2819 4750 3233 4129 
Q 3647 3509 3647 2328 
Q 3647 1150 3233 529 
Q 2819 -91 2034 -91 
Q 1250 -91 836 529 
Q 422 1150 422 2328 
Q 422 3509 836 4129 
Q 1250 4750 2034 4750 
z
" id="DejaVuSans-30" transform="scale(0.015625)"/>
       </defs>
       <use xlink:href="#DejaVuSans-30"/>
      </g>
     </g>
    </g>
    <g id="xtick_2">
     <g id="line2d_2">
      <g>
       <use style="stroke:#000000;stroke-width:0.8;" x="118.144908" xlink:href="#m28126e78ad" y="307.584"/>
      </g>
     </g>
     <g id="text_2">
      <!-- 50 -->
      <g transform="translate(111.782408 322.182437)scale(0.1 -0.1)">
       <defs>
        <path d="M 691 4666 
L 3169 4666 
L 3169 4134 
L 1269 4134 
L 1269 2991 
Q 1406 3038 1543 3061 
Q 1681 3084 1819 3084 
Q 2600 3084 3056 2656 
Q 3513 2228 3513 1497 
Q 3513 744 3044 326 
Q 2575 -91 1722 -91 
Q 1428 -91 1123 -41 
Q 819 9 494 109 
L 494 744 
Q 775 591 1075 516 
Q 1375 441 1709 441 
Q 2250 441 2565 725 
Q 2881 1009 2881 1497 
Q 2881 1984 2565 2268 
Q 2250 2553 1709 2553 
Q 1456 2553 1204 2497 
Q 953 2441 691 2322 
L 691 4666 
z
" id="DejaVuSans-35" transform="scale(0.015625)"/>
       </defs>
       <use xlink:href="#DejaVuSans-35"/>
       <use x="63.623047" xlink:href="#DejaVuSans-30"/>
      </g>
     </g>
    </g>
    <g id="xtick_3">
     <g id="line2d_3">
      <g>
       <use style="stroke:#000000;stroke-width:0.8;" x="163.361418" xlink:href="#m28126e78ad" y="307.584"/>
      </g>
     </g>
     <g id="text_3">
      <!-- 100 -->
      <g transform="translate(153.817668 322.182437)scale(0.1 -0.1)">
       <defs>
        <path d="M 794 531 
L 1825 531 
L 1825 4091 
L 703 3866 
L 703 4441 
L 1819 4666 
L 2450 4666 
L 2450 531 
L 3481 531 
L 3481 0 
L 794 0 
L 794 531 
z
" id="DejaVuSans-31" transform="scale(0.015625)"/>
       </defs>
       <use xlink:href="#DejaVuSans-31"/>
       <use x="63.623047" xlink:href="#DejaVuSans-30"/>
       <use x="127.246094" xlink:href="#DejaVuSans-30"/>
      </g>
     </g>
    </g>
    <g id="xtick_4">
     <g id="line2d_4">
      <g>
       <use style="stroke:#000000;stroke-width:0.8;" x="208.577929" xlink:href="#m28126e78ad" y="307.584"/>
      </g>
     </g>
     <g id="text_4">
      <!-- 150 -->
      <g transform="translate(199.034179 322.182437)scale(0.1 -0.1)">
       <use xlink:href="#DejaVuSans-31"/>
       <use x="63.623047" xlink:href="#DejaVuSans-35"/>
       <use x="127.246094" xlink:href="#DejaVuSans-30"/>
      </g>
     </g>
    </g>
    <g id="xtick_5">
     <g id="line2d_5">
      <g>
       <use style="stroke:#000000;stroke-width:0.8;" x="253.794439" xlink:href="#m28126e78ad" y="307.584"/>
      </g>
     </g>
     <g id="text_5">
      <!-- 200 -->
      <g transform="translate(244.250689 322.182437)scale(0.1 -0.1)">
       <defs>
        <path d="M 1228 531 
L 3431 531 
L 3431 0 
L 469 0 
L 469 531 
Q 828 903 1448 1529 
Q 2069 2156 2228 2338 
Q 2531 2678 2651 2914 
Q 2772 3150 2772 3378 
Q 2772 3750 2511 3984 
Q 2250 4219 1831 4219 
Q 1534 4219 1204 4116 
Q 875 4013 500 3803 
L 500 4441 
Q 881 4594 1212 4672 
Q 1544 4750 1819 4750 
Q 2544 4750 2975 4387 
Q 3406 4025 3406 3419 
Q 3406 3131 3298 2873 
Q 3191 2616 2906 2266 
Q 2828 2175 2409 1742 
Q 1991 1309 1228 531 
z
" id="DejaVuSans-32" transform="scale(0.015625)"/>
       </defs>
       <use xlink:href="#DejaVuSans-32"/>
       <use x="63.623047" xlink:href="#DejaVuSans-30"/>
       <use x="127.246094" xlink:href="#DejaVuSans-30"/>
      </g>
     </g>
    </g>
    <g id="xtick_6">
     <g id="line2d_6">
      <g>
       <use style="stroke:#000000;stroke-width:0.8;" x="299.01095" xlink:href="#m28126e78ad" y="307.584"/>
      </g>
     </g>
     <g id="text_6">
      <!-- 250 -->
      <g transform="translate(289.4672 322.182437)scale(0.1 -0.1)">
       <use xlink:href="#DejaVuSans-32"/>
       <use x="63.623047" xlink:href="#DejaVuSans-35"/>
       <use x="127.246094" xlink:href="#DejaVuSans-30"/>
      </g>
     </g>
    </g>
    <g id="xtick_7">
     <g id="line2d_7">
      <g>
       <use style="stroke:#000000;stroke-width:0.8;" x="344.22746" xlink:href="#m28126e78ad" y="307.584"/>
      </g>
     </g>
     <g id="text_7">
      <!-- 300 -->
      <g transform="translate(334.68371 322.182437)scale(0.1 -0.1)">
       <defs>
        <path d="M 2597 2516 
Q 3050 2419 3304 2112 
Q 3559 1806 3559 1356 
Q 3559 666 3084 287 
Q 2609 -91 1734 -91 
Q 1441 -91 1130 -33 
Q 819 25 488 141 
L 488 750 
Q 750 597 1062 519 
Q 1375 441 1716 441 
Q 2309 441 2620 675 
Q 2931 909 2931 1356 
Q 2931 1769 2642 2001 
Q 2353 2234 1838 2234 
L 1294 2234 
L 1294 2753 
L 1863 2753 
Q 2328 2753 2575 2939 
Q 2822 3125 2822 3475 
Q 2822 3834 2567 4026 
Q 2313 4219 1838 4219 
Q 1578 4219 1281 4162 
Q 984 4106 628 3988 
L 628 4550 
Q 988 4650 1302 4700 
Q 1616 4750 1894 4750 
Q 2613 4750 3031 4423 
Q 3450 4097 3450 3541 
Q 3450 3153 3228 2886 
Q 3006 2619 2597 2516 
z
" id="DejaVuSans-33" transform="scale(0.015625)"/>
       </defs>
       <use xlink:href="#DejaVuSans-33"/>
       <use x="63.623047" xlink:href="#DejaVuSans-30"/>
       <use x="127.246094" xlink:href="#DejaVuSans-30"/>
      </g>
     </g>
    </g>
    <g id="xtick_8">
     <g id="line2d_8">
      <g>
       <use style="stroke:#000000;stroke-width:0.8;" x="389.443971" xlink:href="#m28126e78ad" y="307.584"/>
      </g>
     </g>
     <g id="text_8">
      <!-- 350 -->
      <g transform="translate(379.900221 322.182437)scale(0.1 -0.1)">
       <use xlink:href="#DejaVuSans-33"/>
       <use x="63.623047" xlink:href="#DejaVuSans-35"/>
       <use x="127.246094" xlink:href="#DejaVuSans-30"/>
      </g>
     </g>
    </g>
    <g id="text_9">
     <!-- Epoch -->
     <g transform="translate(213.193594 339.659781)scale(0.15 -0.15)">
      <defs>
       <path d="M 628 4666 
L 3578 4666 
L 3578 4134 
L 1259 4134 
L 1259 2753 
L 3481 2753 
L 3481 2222 
L 1259 2222 
L 1259 531 
L 3634 531 
L 3634 0 
L 628 0 
L 628 4666 
z
" id="DejaVuSans-45" transform="scale(0.015625)"/>
       <path d="M 1159 525 
L 1159 -1331 
L 581 -1331 
L 581 3500 
L 1159 3500 
L 1159 2969 
Q 1341 3281 1617 3432 
Q 1894 3584 2278 3584 
Q 2916 3584 3314 3078 
Q 3713 2572 3713 1747 
Q 3713 922 3314 415 
Q 2916 -91 2278 -91 
Q 1894 -91 1617 61 
Q 1341 213 1159 525 
z
M 3116 1747 
Q 3116 2381 2855 2742 
Q 2594 3103 2138 3103 
Q 1681 3103 1420 2742 
Q 1159 2381 1159 1747 
Q 1159 1113 1420 752 
Q 1681 391 2138 391 
Q 2594 391 2855 752 
Q 3116 1113 3116 1747 
z
" id="DejaVuSans-70" transform="scale(0.015625)"/>
       <path d="M 1959 3097 
Q 1497 3097 1228 2736 
Q 959 2375 959 1747 
Q 959 1119 1226 758 
Q 1494 397 1959 397 
Q 2419 397 2687 759 
Q 2956 1122 2956 1747 
Q 2956 2369 2687 2733 
Q 2419 3097 1959 3097 
z
M 1959 3584 
Q 2709 3584 3137 3096 
Q 3566 2609 3566 1747 
Q 3566 888 3137 398 
Q 2709 -91 1959 -91 
Q 1206 -91 779 398 
Q 353 888 353 1747 
Q 353 2609 779 3096 
Q 1206 3584 1959 3584 
z
" id="DejaVuSans-6f" transform="scale(0.015625)"/>
       <path d="M 3122 3366 
L 3122 2828 
Q 2878 2963 2633 3030 
Q 2388 3097 2138 3097 
Q 1578 3097 1268 2742 
Q 959 2388 959 1747 
Q 959 1106 1268 751 
Q 1578 397 2138 397 
Q 2388 397 2633 464 
Q 2878 531 3122 666 
L 3122 134 
Q 2881 22 2623 -34 
Q 2366 -91 2075 -91 
Q 1284 -91 818 406 
Q 353 903 353 1747 
Q 353 2603 823 3093 
Q 1294 3584 2113 3584 
Q 2378 3584 2631 3529 
Q 2884 3475 3122 3366 
z
" id="DejaVuSans-63" transform="scale(0.015625)"/>
       <path d="M 3513 2113 
L 3513 0 
L 2938 0 
L 2938 2094 
Q 2938 2591 2744 2837 
Q 2550 3084 2163 3084 
Q 1697 3084 1428 2787 
Q 1159 2491 1159 1978 
L 1159 0 
L 581 0 
L 581 4863 
L 1159 4863 
L 1159 2956 
Q 1366 3272 1645 3428 
Q 1925 3584 2291 3584 
Q 2894 3584 3203 3211 
Q 3513 2838 3513 2113 
z
" id="DejaVuSans-68" transform="scale(0.015625)"/>
      </defs>
      <use xlink:href="#DejaVuSans-45"/>
      <use x="63.183594" xlink:href="#DejaVuSans-70"/>
      <use x="126.660156" xlink:href="#DejaVuSans-6f"/>
      <use x="187.841797" xlink:href="#DejaVuSans-63"/>
      <use x="242.822266" xlink:href="#DejaVuSans-68"/>
     </g>
    </g>
   </g>
   <g id="matplotlib.axis_2">
    <g id="ytick_1">
     <g id="line2d_9">
      <defs>
       <path d="M 0 0 
L -3.5 0 
" id="ma44ea543cb" style="stroke:#000000;stroke-width:0.8;"/>
      </defs>
      <g>
       <use style="stroke:#000000;stroke-width:0.8;" x="57.6" xlink:href="#ma44ea543cb" y="307.584"/>
      </g>
     </g>
     <g id="text_10">
      <!-- 0.0 -->
      <g transform="translate(34.696875 311.383219)scale(0.1 -0.1)">
       <defs>
        <path d="M 684 794 
L 1344 794 
L 1344 0 
L 684 0 
L 684 794 
z
" id="DejaVuSans-2e" transform="scale(0.015625)"/>
       </defs>
       <use xlink:href="#DejaVuSans-30"/>
       <use x="63.623047" xlink:href="#DejaVuSans-2e"/>
       <use x="95.410156" xlink:href="#DejaVuSans-30"/>
      </g>
     </g>
    </g>
    <g id="ytick_2">
     <g id="line2d_10">
      <g>
       <use style="stroke:#000000;stroke-width:0.8;" x="57.6" xlink:href="#ma44ea543cb" y="254.3616"/>
      </g>
     </g>
     <g id="text_11">
      <!-- 0.2 -->
      <g transform="translate(34.696875 258.160819)scale(0.1 -0.1)">
       <use xlink:href="#DejaVuSans-30"/>
       <use x="63.623047" xlink:href="#DejaVuSans-2e"/>
       <use x="95.410156" xlink:href="#DejaVuSans-32"/>
      </g>
     </g>
    </g>
    <g id="ytick_3">
     <g id="line2d_11">
      <g>
       <use style="stroke:#000000;stroke-width:0.8;" x="57.6" xlink:href="#ma44ea543cb" y="201.1392"/>
      </g>
     </g>
     <g id="text_12">
      <!-- 0.4 -->
      <g transform="translate(34.696875 204.938419)scale(0.1 -0.1)">
       <defs>
        <path d="M 2419 4116 
L 825 1625 
L 2419 1625 
L 2419 4116 
z
M 2253 4666 
L 3047 4666 
L 3047 1625 
L 3713 1625 
L 3713 1100 
L 3047 1100 
L 3047 0 
L 2419 0 
L 2419 1100 
L 313 1100 
L 313 1709 
L 2253 4666 
z
" id="DejaVuSans-34" transform="scale(0.015625)"/>
       </defs>
       <use xlink:href="#DejaVuSans-30"/>
       <use x="63.623047" xlink:href="#DejaVuSans-2e"/>
       <use x="95.410156" xlink:href="#DejaVuSans-34"/>
      </g>
     </g>
    </g>
    <g id="ytick_4">
     <g id="line2d_12">
      <g>
       <use style="stroke:#000000;stroke-width:0.8;" x="57.6" xlink:href="#ma44ea543cb" y="147.9168"/>
      </g>
     </g>
     <g id="text_13">
      <!-- 0.6 -->
      <g transform="translate(34.696875 151.716019)scale(0.1 -0.1)">
       <defs>
        <path d="M 2113 2584 
Q 1688 2584 1439 2293 
Q 1191 2003 1191 1497 
Q 1191 994 1439 701 
Q 1688 409 2113 409 
Q 2538 409 2786 701 
Q 3034 994 3034 1497 
Q 3034 2003 2786 2293 
Q 2538 2584 2113 2584 
z
M 3366 4563 
L 3366 3988 
Q 3128 4100 2886 4159 
Q 2644 4219 2406 4219 
Q 1781 4219 1451 3797 
Q 1122 3375 1075 2522 
Q 1259 2794 1537 2939 
Q 1816 3084 2150 3084 
Q 2853 3084 3261 2657 
Q 3669 2231 3669 1497 
Q 3669 778 3244 343 
Q 2819 -91 2113 -91 
Q 1303 -91 875 529 
Q 447 1150 447 2328 
Q 447 3434 972 4092 
Q 1497 4750 2381 4750 
Q 2619 4750 2861 4703 
Q 3103 4656 3366 4563 
z
" id="DejaVuSans-36" transform="scale(0.015625)"/>
       </defs>
       <use xlink:href="#DejaVuSans-30"/>
       <use x="63.623047" xlink:href="#DejaVuSans-2e"/>
       <use x="95.410156" xlink:href="#DejaVuSans-36"/>
      </g>
     </g>
    </g>
    <g id="ytick_5">
     <g id="line2d_13">
      <g>
       <use style="stroke:#000000;stroke-width:0.8;" x="57.6" xlink:href="#ma44ea543cb" y="94.6944"/>
      </g>
     </g>
     <g id="text_14">
      <!-- 0.8 -->
      <g transform="translate(34.696875 98.493619)scale(0.1 -0.1)">
       <defs>
        <path d="M 2034 2216 
Q 1584 2216 1326 1975 
Q 1069 1734 1069 1313 
Q 1069 891 1326 650 
Q 1584 409 2034 409 
Q 2484 409 2743 651 
Q 3003 894 3003 1313 
Q 3003 1734 2745 1975 
Q 2488 2216 2034 2216 
z
M 1403 2484 
Q 997 2584 770 2862 
Q 544 3141 544 3541 
Q 544 4100 942 4425 
Q 1341 4750 2034 4750 
Q 2731 4750 3128 4425 
Q 3525 4100 3525 3541 
Q 3525 3141 3298 2862 
Q 3072 2584 2669 2484 
Q 3125 2378 3379 2068 
Q 3634 1759 3634 1313 
Q 3634 634 3220 271 
Q 2806 -91 2034 -91 
Q 1263 -91 848 271 
Q 434 634 434 1313 
Q 434 1759 690 2068 
Q 947 2378 1403 2484 
z
M 1172 3481 
Q 1172 3119 1398 2916 
Q 1625 2713 2034 2713 
Q 2441 2713 2670 2916 
Q 2900 3119 2900 3481 
Q 2900 3844 2670 4047 
Q 2441 4250 2034 4250 
Q 1625 4250 1398 4047 
Q 1172 3844 1172 3481 
z
" id="DejaVuSans-38" transform="scale(0.015625)"/>
       </defs>
       <use xlink:href="#DejaVuSans-30"/>
       <use x="63.623047" xlink:href="#DejaVuSans-2e"/>
       <use x="95.410156" xlink:href="#DejaVuSans-38"/>
      </g>
     </g>
    </g>
    <g id="ytick_6">
     <g id="line2d_14">
      <g>
       <use style="stroke:#000000;stroke-width:0.8;" x="57.6" xlink:href="#ma44ea543cb" y="41.472"/>
      </g>
     </g>
     <g id="text_15">
      <!-- 1.0 -->
      <g transform="translate(34.696875 45.271219)scale(0.1 -0.1)">
       <use xlink:href="#DejaVuSans-31"/>
       <use x="63.623047" xlink:href="#DejaVuSans-2e"/>
       <use x="95.410156" xlink:href="#DejaVuSans-30"/>
      </g>
     </g>
    </g>
    <g id="text_16">
     <!-- Accuracy -->
     <g transform="translate(27.577344 208.770187)rotate(-90)scale(0.15 -0.15)">
      <defs>
       <path d="M 2188 4044 
L 1331 1722 
L 3047 1722 
L 2188 4044 
z
M 1831 4666 
L 2547 4666 
L 4325 0 
L 3669 0 
L 3244 1197 
L 1141 1197 
L 716 0 
L 50 0 
L 1831 4666 
z
" id="DejaVuSans-41" transform="scale(0.015625)"/>
       <path d="M 544 1381 
L 544 3500 
L 1119 3500 
L 1119 1403 
Q 1119 906 1312 657 
Q 1506 409 1894 409 
Q 2359 409 2629 706 
Q 2900 1003 2900 1516 
L 2900 3500 
L 3475 3500 
L 3475 0 
L 2900 0 
L 2900 538 
Q 2691 219 2414 64 
Q 2138 -91 1772 -91 
Q 1169 -91 856 284 
Q 544 659 544 1381 
z
M 1991 3584 
L 1991 3584 
z
" id="DejaVuSans-75" transform="scale(0.015625)"/>
       <path d="M 2631 2963 
Q 2534 3019 2420 3045 
Q 2306 3072 2169 3072 
Q 1681 3072 1420 2755 
Q 1159 2438 1159 1844 
L 1159 0 
L 581 0 
L 581 3500 
L 1159 3500 
L 1159 2956 
Q 1341 3275 1631 3429 
Q 1922 3584 2338 3584 
Q 2397 3584 2469 3576 
Q 2541 3569 2628 3553 
L 2631 2963 
z
" id="DejaVuSans-72" transform="scale(0.015625)"/>
       <path d="M 2194 1759 
Q 1497 1759 1228 1600 
Q 959 1441 959 1056 
Q 959 750 1161 570 
Q 1363 391 1709 391 
Q 2188 391 2477 730 
Q 2766 1069 2766 1631 
L 2766 1759 
L 2194 1759 
z
M 3341 1997 
L 3341 0 
L 2766 0 
L 2766 531 
Q 2569 213 2275 61 
Q 1981 -91 1556 -91 
Q 1019 -91 701 211 
Q 384 513 384 1019 
Q 384 1609 779 1909 
Q 1175 2209 1959 2209 
L 2766 2209 
L 2766 2266 
Q 2766 2663 2505 2880 
Q 2244 3097 1772 3097 
Q 1472 3097 1187 3025 
Q 903 2953 641 2809 
L 641 3341 
Q 956 3463 1253 3523 
Q 1550 3584 1831 3584 
Q 2591 3584 2966 3190 
Q 3341 2797 3341 1997 
z
" id="DejaVuSans-61" transform="scale(0.015625)"/>
       <path d="M 2059 -325 
Q 1816 -950 1584 -1140 
Q 1353 -1331 966 -1331 
L 506 -1331 
L 506 -850 
L 844 -850 
Q 1081 -850 1212 -737 
Q 1344 -625 1503 -206 
L 1606 56 
L 191 3500 
L 800 3500 
L 1894 763 
L 2988 3500 
L 3597 3500 
L 2059 -325 
z
" id="DejaVuSans-79" transform="scale(0.015625)"/>
      </defs>
      <use xlink:href="#DejaVuSans-41"/>
      <use x="66.658203" xlink:href="#DejaVuSans-63"/>
      <use x="121.638672" xlink:href="#DejaVuSans-63"/>
      <use x="176.619141" xlink:href="#DejaVuSans-75"/>
      <use x="239.998047" xlink:href="#DejaVuSans-72"/>
      <use x="281.111328" xlink:href="#DejaVuSans-61"/>
      <use x="342.390625" xlink:href="#DejaVuSans-63"/>
      <use x="397.371094" xlink:href="#DejaVuSans-79"/>
     </g>
    </g>
   </g>
   <g id="line2d_15">
    <path clip-path="url(#p99663b910c)" d="M 73.832727 282.436416 
L 74.737057 280.041408 
L 76.545718 285.097536 
L 77.450048 280.573632 
L 78.354378 283.234752 
L 79.258709 281.105856 
L 80.163039 281.771136 
L 81.067369 281.238912 
L 81.971699 280.440576 
L 82.876029 280.30752 
L 83.78036 281.771136 
L 84.68469 283.766976 
L 85.58902 280.573632 
L 86.49335 278.045568 
L 87.39768 277.513344 
L 88.302011 278.577792 
L 89.206341 279.376128 
L 90.110671 281.105856 
L 91.015001 283.766976 
L 91.919331 278.178624 
L 92.823662 282.436416 
L 93.727992 279.64224 
L 94.632322 280.440576 
L 95.536652 277.912512 
L 96.440983 281.63808 
L 97.345313 277.779456 
L 98.249643 278.577792 
L 99.153973 274.852224 
L 100.058303 278.444736 
L 100.962634 278.045568 
L 101.866964 278.710848 
L 102.771294 277.779456 
L 103.675624 272.32416 
L 104.579954 274.053888 
L 105.484285 274.186944 
L 106.388615 272.191104 
L 107.292945 272.191104 
L 108.197275 271.126656 
L 109.101605 271.525824 
L 110.005936 267.268032 
L 110.910266 265.937472 
L 111.814596 270.062208 
L 112.718926 267.534144 
L 113.623257 266.070528 
L 114.527587 263.941632 
L 115.431917 263.143296 
L 116.336247 264.739968 
L 117.240577 262.877184 
L 118.144908 261.945792 
L 119.049238 264.074688 
L 119.953568 262.877184 
L 120.857898 262.078848 
L 121.762228 259.417728 
L 122.666559 260.083008 
L 123.570889 257.554944 
L 124.475219 261.812736 
L 125.379549 256.889664 
L 126.283879 258.220224 
L 127.18821 254.228544 
L 128.09254 258.220224 
L 128.99687 257.02272 
L 129.9012 254.893824 
L 130.805531 253.430208 
L 131.709861 253.69632 
L 132.614191 255.292992 
L 133.518521 251.833536 
L 134.422851 254.893824 
L 136.231512 248.640192 
L 137.135842 249.438528 
L 138.040172 248.107968 
L 138.944502 247.841856 
L 139.848833 243.584064 
L 140.753163 243.184896 
L 141.657493 241.322112 
L 142.561823 240.124608 
L 143.466153 242.38656 
L 144.370484 237.995712 
L 145.274814 240.257664 
L 146.179144 235.06848 
L 147.083474 235.73376 
L 147.987805 237.463488 
L 148.892135 233.07264 
L 149.796465 235.866816 
L 150.700795 231.475968 
L 151.605125 230.012352 
L 152.509456 230.943744 
L 153.413786 228.41568 
L 154.318116 226.286784 
L 155.222446 221.230656 
L 156.126776 224.557056 
L 157.031107 224.690112 
L 157.935437 218.303424 
L 158.839767 222.162048 
L 159.744097 217.505088 
L 160.648427 219.633984 
L 161.552758 217.505088 
L 162.457088 211.517568 
L 163.361418 212.44896 
L 164.265748 207.658944 
L 165.170079 207.658944 
L 166.074409 206.328384 
L 166.978739 210.852288 
L 167.883069 208.989504 
L 168.787399 208.058112 
L 169.69173 211.78368 
L 170.59606 210.586176 
L 171.50039 211.517568 
L 172.40472 207.259776 
L 173.30905 211.384512 
L 174.213381 206.062272 
L 175.117711 207.658944 
L 176.022041 200.207808 
L 176.926371 205.396992 
L 177.830701 203.933376 
L 178.735032 193.82112 
L 179.639362 196.881408 
L 180.543692 195.417792 
L 181.448022 195.81696 
L 182.352352 181.84608 
L 183.256683 182.51136 
L 184.161013 187.8336 
L 185.065343 180.914688 
L 186.874004 176.257728 
L 187.778334 177.8544 
L 189.586994 172.665216 
L 190.491324 167.8752 
L 191.395655 160.823232 
L 192.299985 159.492672 
L 193.204315 162.952128 
L 194.108645 160.424064 
L 195.012975 161.88768 
L 195.917306 158.428224 
L 196.821636 159.22656 
L 197.725966 151.376256 
L 198.630296 158.162112 
L 199.534626 154.436544 
L 200.438957 149.779584 
L 201.343287 152.174592 
L 202.247617 144.856512 
L 203.151947 145.654848 
L 204.056278 150.311808 
L 204.960608 139.534272 
L 205.864938 142.195392 
L 206.769268 135.675648 
L 207.673598 142.727616 
L 208.577929 129.688128 
L 209.482259 139.401216 
L 210.386589 134.877312 
L 211.290919 141.530112 
L 212.195249 129.95424 
L 213.09958 129.422016 
L 214.00391 130.486464 
L 214.90824 124.232832 
L 215.81257 128.224512 
L 216.7169 124.898112 
L 217.621231 126.095616 
L 218.525561 119.176704 
L 219.429891 126.361728 
L 220.334221 125.563392 
L 221.238552 120.507264 
L 222.142882 119.841984 
L 223.047212 119.97504 
L 223.951542 123.035328 
L 224.855872 114.120576 
L 225.760203 115.31808 
L 226.664533 118.64448 
L 227.568863 115.185024 
L 228.473193 121.571712 
L 229.377523 112.257792 
L 230.281854 114.386688 
L 231.186184 115.584192 
L 232.090514 117.9792 
L 232.994844 111.193344 
L 233.899174 110.128896 
L 234.803505 112.257792 
L 235.707835 110.927232 
L 236.612165 106.403328 
L 237.516495 109.729728 
L 238.420826 111.592512 
L 239.325156 108.266112 
L 240.229486 113.721408 
L 241.133816 108.532224 
L 242.038146 104.141376 
L 242.942477 105.33888 
L 243.846807 101.613312 
L 244.751137 107.733888 
L 245.655467 106.66944 
L 246.559797 105.205824 
L 247.464128 106.137216 
L 248.368458 108.133056 
L 249.272788 103.209984 
L 250.177118 105.33888 
L 251.081448 98.553024 
L 251.985779 99.484416 
L 252.890109 98.952192 
L 253.794439 102.810816 
L 254.698769 94.428288 
L 255.6031 94.960512 
L 256.50743 96.823296 
L 257.41176 101.746368 
L 258.31609 104.540544 
L 259.22042 105.072768 
L 261.933411 91.101888 
L 262.837741 95.093568 
L 263.742071 93.097728 
L 264.646402 92.831616 
L 265.550732 85.912704 
L 266.455062 99.35136 
L 267.359392 97.754688 
L 268.263722 91.368 
L 269.168053 94.162176 
L 270.072383 93.896064 
L 270.976713 95.891904 
L 271.881043 97.222464 
L 272.785374 80.590464 
L 273.689704 86.977152 
L 274.594034 84.449088 
L 275.498364 84.449088 
L 276.402694 82.852416 
L 277.307025 85.114368 
L 278.211355 90.436608 
L 279.115685 88.307712 
L 280.020015 92.69856 
L 280.924345 92.166336 
L 281.828676 91.501056 
L 282.733006 86.71104 
L 283.637336 89.771328 
L 284.541666 91.634112 
L 285.445996 88.70688 
L 286.350327 88.174656 
L 287.254657 89.638272 
L 288.158987 86.977152 
L 289.063317 87.243264 
L 289.967648 87.908544 
L 290.871978 94.6944 
L 291.776308 85.912704 
L 292.680638 93.36384 
L 293.584968 87.908544 
L 294.489299 89.106048 
L 295.393629 84.848256 
L 296.297959 90.70272 
L 297.202289 87.509376 
L 298.106619 85.646592 
L 299.01095 86.71104 
L 299.91528 84.7152 
L 300.81961 84.316032 
L 301.72394 86.71104 
L 302.62827 86.04576 
L 303.532601 85.779648 
L 304.436931 86.71104 
L 305.341261 89.239104 
L 306.245591 86.844096 
L 307.149921 85.513536 
L 308.054252 80.72352 
L 308.958582 84.848256 
L 309.862912 79.126848 
L 310.767242 85.38048 
L 311.671573 83.517696 
L 312.575903 83.783808 
L 313.480233 80.590464 
L 314.384563 82.71936 
L 315.288893 77.530176 
L 316.193224 82.586304 
L 317.097554 78.72768 
L 318.001884 77.663232 
L 318.906214 80.457408 
L 319.810544 88.839936 
L 320.714875 79.259904 
L 321.619205 78.72768 
L 322.523535 80.989632 
L 323.427865 85.38048 
L 324.332195 81.255744 
L 325.236526 77.663232 
L 326.140856 79.126848 
L 327.045186 78.195456 
L 327.949516 84.582144 
L 328.853847 80.989632 
L 329.758177 81.255744 
L 330.662507 86.71104 
L 331.566837 87.37632 
L 332.471167 82.187136 
L 333.375498 84.449088 
L 334.279828 75.667392 
L 335.184158 82.05408 
L 336.088488 81.122688 
L 336.992818 75.534336 
L 337.897149 79.259904 
L 338.801479 79.925184 
L 339.705809 78.860736 
L 340.610139 77.131008 
L 341.514469 79.126848 
L 342.4188 84.848256 
L 343.32313 79.792128 
L 344.22746 81.122688 
L 345.13179 73.272384 
L 346.036121 76.465728 
L 346.940451 76.06656 
L 347.844781 82.852416 
L 348.749111 82.586304 
L 349.653441 81.921024 
L 350.557772 75.800448 
L 351.462102 76.598784 
L 352.366432 79.259904 
L 353.270762 77.796288 
L 354.175092 81.654912 
L 355.079423 73.937664 
L 355.983753 84.316032 
L 356.888083 78.195456 
L 357.792413 76.465728 
L 358.696743 82.320192 
L 359.601074 73.272384 
L 360.505404 80.324352 
L 361.409734 78.72768 
L 362.314064 82.320192 
L 363.218395 68.482368 
L 364.122725 78.0624 
L 365.027055 72.340992 
L 365.931385 79.259904 
L 366.835715 77.530176 
L 367.740046 76.465728 
L 368.644376 76.864896 
L 369.548706 74.336832 
L 370.453036 77.796288 
L 371.357366 72.607104 
L 372.261697 75.002112 
L 373.166027 74.869056 
L 374.070357 79.925184 
L 374.974687 80.856576 
L 375.879017 73.139328 
L 376.783348 70.877376 
L 377.687678 74.203776 
L 378.592008 76.997952 
L 379.496338 74.469888 
L 380.400669 73.139328 
L 381.304999 72.207936 
L 382.209329 73.40544 
L 383.113659 69.41376 
L 384.017989 71.675712 
L 384.92232 74.736 
L 385.82665 76.332672 
L 386.73098 74.07072 
L 387.63531 79.259904 
L 388.53964 78.0624 
L 389.443971 72.07488 
L 390.348301 74.736 
L 391.252631 73.139328 
L 392.156961 73.538496 
L 393.061291 74.07072 
L 393.965622 71.808768 
L 394.869952 76.06656 
L 395.774282 73.272384 
L 396.678612 67.284864 
L 397.582943 70.212096 
L 398.487273 75.268224 
L 398.487273 75.268224 
" style="fill:none;stroke:#1f77b4;stroke-linecap:square;stroke-width:1.5;"/>
   </g>
   <g id="line2d_16">
    <path clip-path="url(#p99663b910c)" d="M 73.832727 285.807568 
L 74.737057 285.044757 
L 75.641388 281.920865 
L 76.545718 285.66227 
L 77.450048 281.993514 
L 78.354378 279.014919 
L 79.258709 280.177297 
L 80.163039 281.721081 
L 81.067369 276.544865 
L 81.971699 274.292757 
L 82.876029 277.071568 
L 83.78036 281.63027 
L 84.68469 276.036324 
L 85.58902 278.27027 
L 86.49335 276.92627 
L 87.39768 281.957189 
L 88.302011 284.881297 
L 89.206341 283.609946 
L 90.110671 285.916541 
L 91.015001 283.210378 
L 91.919331 285.807568 
L 92.823662 282.156973 
L 93.727992 281.739243 
L 94.632322 282.683676 
L 95.536652 280.522378 
L 97.345313 281.684757 
L 98.249643 283.210378 
L 99.153973 276.762811 
L 100.058303 280.086486 
L 100.962634 278.924108 
L 101.866964 271.568432 
L 102.771294 274.038486 
L 103.675624 274.292757 
L 104.579954 269.570595 
L 105.484285 275.237189 
L 106.388615 262.414703 
L 107.292945 268.19027 
L 108.197275 266.355892 
L 109.101605 272.022486 
L 110.005936 263.740541 
L 110.910266 268.789622 
L 111.814596 270.515027 
L 113.623257 257.892324 
L 114.527587 260.634811 
L 115.431917 260.089946 
L 116.336247 257.020541 
L 117.240577 255.658378 
L 118.144908 257.075027 
L 119.049238 256.384865 
L 119.953568 258.291892 
L 120.857898 251.680865 
L 121.762228 255.440432 
L 122.666559 255.731027 
L 123.570889 263.64973 
L 124.475219 256.984216 
L 125.379549 253.842162 
L 126.283879 259.000216 
L 127.18821 259.672216 
L 128.09254 249.792 
L 128.99687 255.385946 
L 129.9012 251.916973 
L 130.805531 247.594378 
L 131.709861 252.952216 
L 132.614191 256.966054 
L 133.518521 249.574054 
L 134.422851 251.989622 
L 135.327182 254.931892 
L 136.231512 249.029189 
L 137.135842 245.941622 
L 138.040172 254.804757 
L 138.944502 251.372108 
L 139.848833 267.699892 
L 140.753163 251.953297 
L 141.657493 253.969297 
L 142.561823 243.271784 
L 143.466153 251.081514 
L 144.370484 250.318703 
L 145.274814 246.286703 
L 146.179144 241.47373 
L 147.083474 247.830486 
L 147.987805 246.940541 
L 148.892135 247.739676 
L 149.796465 246.105081 
L 150.700795 245.723676 
L 151.605125 243.580541 
L 152.509456 245.959784 
L 153.413786 238.985514 
L 154.318116 251.699027 
L 155.222446 239.929946 
L 156.126776 234.844541 
L 157.031107 241.401081 
L 157.935437 235.571027 
L 158.839767 237.714162 
L 159.744097 242.454486 
L 160.648427 234.245189 
L 161.552758 235.189622 
L 162.457088 236.751568 
L 163.361418 235.116973 
L 164.265748 237.568865 
L 165.170079 229.613838 
L 166.074409 226.944 
L 166.978739 231.466378 
L 167.883069 229.613838 
L 168.787399 232.102054 
L 169.69173 232.083892 
L 170.59606 234.953514 
L 171.50039 224.800865 
L 172.40472 222.167351 
L 173.30905 226.544432 
L 174.213381 226.744216 
L 175.117711 223.565838 
L 176.022041 233.046486 
L 176.926371 219.261405 
L 177.830701 219.279568 
L 178.735032 216.155676 
L 179.639362 219.769946 
L 180.543692 213.395027 
L 181.448022 228.251676 
L 182.352352 236.642595 
L 183.256683 212.523243 
L 184.161013 214.339459 
L 185.065343 230.013405 
L 185.969673 221.095784 
L 186.874004 209.326703 
L 187.778334 205.276541 
L 188.682664 213.558486 
L 189.586994 208.836324 
L 190.491324 208.999784 
L 191.395655 203.315027 
L 192.299985 203.514811 
L 193.204315 202.915459 
L 194.108645 201.117405 
L 195.917306 222.076541 
L 196.821636 210.053189 
L 197.725966 200.354595 
L 198.630296 200.754162 
L 199.534626 211.270054 
L 200.438957 201.480649 
L 201.343287 203.296865 
L 202.247617 218.825514 
L 203.151947 201.389838 
L 204.056278 223.892757 
L 204.960608 197.79373 
L 205.864938 197.12173 
L 206.769268 203.187892 
L 207.673598 192.599351 
L 208.577929 200.953946 
L 209.482259 210.39827 
L 210.386589 205.785081 
L 211.290919 199.918703 
L 212.195249 218.335135 
L 213.09958 196.540541 
L 214.00391 194.833297 
L 214.90824 198.084324 
L 215.81257 196.722162 
L 216.7169 200.717838 
L 217.621231 193.180541 
L 218.525561 207.347027 
L 219.429891 190.964757 
L 220.334221 190.074811 
L 221.238552 194.633514 
L 222.142882 193.471135 
L 223.047212 196.395243 
L 223.951542 194.905946 
L 224.855872 190.928432 
L 225.760203 204.786162 
L 226.664533 197.975351 
L 227.568863 196.740324 
L 228.473193 186.987243 
L 229.377523 206.402595 
L 230.281854 196.195459 
L 231.186184 195.941189 
L 232.090514 194.342919 
L 232.994844 195.705081 
L 233.899174 188.258595 
L 234.803505 190.928432 
L 235.707835 196.28627 
L 236.612165 187.168865 
L 237.516495 201.15373 
L 238.420826 188.167784 
L 239.325156 199.519135 
L 240.229486 199.482811 
L 241.133816 192.127135 
L 242.038146 186.169946 
L 242.942477 196.159135 
L 243.846807 195.269189 
L 244.751137 186.914595 
L 245.655467 192.326919 
L 246.559797 187.096216 
L 247.464128 185.752216 
L 248.368458 184.844108 
L 249.272788 190.710486 
L 250.177118 188.821622 
L 251.081448 184.299243 
L 251.985779 188.748973 
L 252.890109 179.340973 
L 253.794439 182.900757 
L 254.698769 188.930595 
L 255.6031 186.315243 
L 256.50743 186.515027 
L 257.41176 181.792865 
L 258.31609 187.277838 
L 259.22042 190.728649 
L 260.124751 185.843027 
L 261.029081 188.531027 
L 261.933411 191.763892 
L 262.837741 182.592 
L 263.742071 188.095135 
L 264.646402 187.205189 
L 265.550732 184.426378 
L 266.455062 193.144216 
L 267.359392 190.329081 
L 268.263722 186.769297 
L 269.168053 184.462703 
L 270.072383 180.921081 
L 270.976713 198.919784 
L 271.881043 191.473297 
L 272.785374 176.780108 
L 273.689704 187.532108 
L 274.594034 174.78227 
L 275.498364 185.461622 
L 276.402694 177.615568 
L 277.307025 182.047135 
L 278.211355 178.069622 
L 279.115685 188.131459 
L 280.020015 179.577081 
L 280.924345 183.536432 
L 281.828676 180.067459 
L 282.733006 178.759784 
L 283.637336 180.866595 
L 284.541666 182.33773 
L 285.445996 186.151784 
L 286.350327 181.974486 
L 287.254657 183.173189 
L 288.158987 186.551351 
L 289.063317 183.936 
L 289.967648 182.17427 
L 290.871978 182.755459 
L 291.776308 186.787459 
L 292.680638 177.47027 
L 293.584968 180.067459 
L 294.489299 174.310054 
L 295.393629 175.781189 
L 296.297959 177.742703 
L 297.202289 177.324973 
L 298.106619 173.056865 
L 299.01095 183.827027 
L 299.91528 180.412541 
L 300.81961 172.911568 
L 301.72394 184.825946 
L 302.62827 181.865514 
L 303.532601 177.306811 
L 304.436931 190.928432 
L 305.341261 186.950919 
L 306.245591 183.699892 
L 307.149921 179.068541 
L 308.054252 180.140108 
L 308.958582 181.011892 
L 309.862912 182.228757 
L 310.767242 179.885838 
L 311.671573 175.091027 
L 312.575903 177.833514 
L 313.480233 182.628324 
L 314.384563 177.052541 
L 315.288893 176.035459 
L 316.193224 183.155027 
L 317.097554 173.728865 
L 318.001884 182.791784 
L 318.906214 179.686054 
L 319.810544 182.210595 
L 320.714875 181.356973 
L 321.619205 174.382703 
L 322.523535 176.870919 
L 323.427865 177.088865 
L 324.332195 179.213838 
L 326.140856 178.469189 
L 327.045186 179.994811 
L 327.949516 169.733189 
L 328.853847 174.873081 
L 329.758177 177.651892 
L 330.662507 178.959568 
L 331.566837 176.12627 
L 332.471167 186.060973 
L 333.375498 176.053622 
L 334.279828 169.442595 
L 335.184158 176.089946 
L 336.088488 175.000216 
L 336.992818 171.095351 
L 337.897149 178.97773 
L 338.801479 177.179676 
L 339.705809 166.754595 
L 340.610139 176.634811 
L 341.514469 179.086703 
L 342.4188 176.053622 
L 343.32313 182.646486 
L 344.22746 177.343135 
L 345.13179 168.207568 
L 346.036121 171.113514 
L 346.940451 175.290811 
L 347.844781 175.708541 
L 348.749111 174.94573 
L 349.653441 175.345297 
L 350.557772 180.594162 
L 351.462102 171.040865 
L 352.366432 175.599568 
L 353.270762 166.264216 
L 354.175092 180.866595 
L 355.079423 174.636973 
L 355.983753 171.313297 
L 356.888083 177.978811 
L 357.792413 174.909405 
L 358.696743 171.040865 
L 359.601074 172.548324 
L 360.505404 174.437189 
L 361.409734 173.002378 
L 362.314064 170.441514 
L 363.218395 173.856 
L 364.122725 169.478919 
L 365.027055 168.988541 
L 365.931385 172.893405 
L 366.835715 179.631568 
L 367.740046 173.619892 
L 368.644376 175.599568 
L 369.548706 171.894486 
L 370.453036 173.638054 
L 371.357366 167.608216 
L 372.261697 168.425514 
L 373.166027 166.300541 
L 374.070357 169.533405 
L 374.974687 166.736432 
L 375.879017 168.098595 
L 376.783348 172.021622 
L 377.687678 172.039784 
L 378.592008 167.789838 
L 379.496338 172.203243 
L 380.400669 167.39027 
L 381.304999 166.754595 
L 382.209329 175.672216 
L 383.113659 172.711784 
L 384.017989 166.082595 
L 384.92232 174.055784 
L 385.82665 175.872 
L 386.73098 171.494919 
L 387.63531 163.122162 
L 388.53964 172.584649 
L 389.443971 169.497081 
L 390.348301 164.393514 
L 391.252631 170.023784 
L 392.156961 168.89773 
L 393.061291 168.498162 
L 393.965622 166.118919 
L 394.869952 169.914811 
L 395.774282 172.294054 
L 396.678612 161.50573 
L 397.582943 168.73427 
L 398.487273 167.190486 
L 398.487273 167.190486 
" style="fill:none;stroke:#ff7f0e;stroke-linecap:square;stroke-width:1.5;"/>
   </g>
   <g id="patch_3">
    <path d="M 57.6 307.584 
L 57.6 41.472 
" style="fill:none;stroke:#000000;stroke-linecap:square;stroke-linejoin:miter;stroke-width:0.8;"/>
   </g>
   <g id="patch_4">
    <path d="M 414.72 307.584 
L 414.72 41.472 
" style="fill:none;stroke:#000000;stroke-linecap:square;stroke-linejoin:miter;stroke-width:0.8;"/>
   </g>
   <g id="patch_5">
    <path d="M 57.6 307.584 
L 414.72 307.584 
" style="fill:none;stroke:#000000;stroke-linecap:square;stroke-linejoin:miter;stroke-width:0.8;"/>
   </g>
   <g id="patch_6">
    <path d="M 57.6 41.472 
L 414.72 41.472 
" style="fill:none;stroke:#000000;stroke-linecap:square;stroke-linejoin:miter;stroke-width:0.8;"/>
   </g>
   <g id="legend_1">
    <g id="patch_7">
     <path d="M 64.6 78.82825 
L 168.475 78.82825 
Q 170.475 78.82825 170.475 76.82825 
L 170.475 48.472 
Q 170.475 46.472 168.475 46.472 
L 64.6 46.472 
Q 62.6 46.472 62.6 48.472 
L 62.6 76.82825 
Q 62.6 78.82825 64.6 78.82825 
z
" style="fill:#ffffff;opacity:0.8;stroke:#cccccc;stroke-linejoin:miter;"/>
    </g>
    <g id="line2d_17">
     <path d="M 66.6 54.570437 
L 86.6 54.570437 
" style="fill:none;stroke:#1f77b4;stroke-linecap:square;stroke-width:1.5;"/>
    </g>
    <g id="line2d_18"/>
    <g id="text_17">
     <!-- Train loss -->
     <g transform="translate(94.6 58.070437)scale(0.1 -0.1)">
      <defs>
       <path d="M -19 4666 
L 3928 4666 
L 3928 4134 
L 2272 4134 
L 2272 0 
L 1638 0 
L 1638 4134 
L -19 4134 
L -19 4666 
z
" id="DejaVuSans-54" transform="scale(0.015625)"/>
       <path d="M 603 3500 
L 1178 3500 
L 1178 0 
L 603 0 
L 603 3500 
z
M 603 4863 
L 1178 4863 
L 1178 4134 
L 603 4134 
L 603 4863 
z
" id="DejaVuSans-69" transform="scale(0.015625)"/>
       <path d="M 3513 2113 
L 3513 0 
L 2938 0 
L 2938 2094 
Q 2938 2591 2744 2837 
Q 2550 3084 2163 3084 
Q 1697 3084 1428 2787 
Q 1159 2491 1159 1978 
L 1159 0 
L 581 0 
L 581 3500 
L 1159 3500 
L 1159 2956 
Q 1366 3272 1645 3428 
Q 1925 3584 2291 3584 
Q 2894 3584 3203 3211 
Q 3513 2838 3513 2113 
z
" id="DejaVuSans-6e" transform="scale(0.015625)"/>
       <path id="DejaVuSans-20" transform="scale(0.015625)"/>
       <path d="M 603 4863 
L 1178 4863 
L 1178 0 
L 603 0 
L 603 4863 
z
" id="DejaVuSans-6c" transform="scale(0.015625)"/>
       <path d="M 2834 3397 
L 2834 2853 
Q 2591 2978 2328 3040 
Q 2066 3103 1784 3103 
Q 1356 3103 1142 2972 
Q 928 2841 928 2578 
Q 928 2378 1081 2264 
Q 1234 2150 1697 2047 
L 1894 2003 
Q 2506 1872 2764 1633 
Q 3022 1394 3022 966 
Q 3022 478 2636 193 
Q 2250 -91 1575 -91 
Q 1294 -91 989 -36 
Q 684 19 347 128 
L 347 722 
Q 666 556 975 473 
Q 1284 391 1588 391 
Q 1994 391 2212 530 
Q 2431 669 2431 922 
Q 2431 1156 2273 1281 
Q 2116 1406 1581 1522 
L 1381 1569 
Q 847 1681 609 1914 
Q 372 2147 372 2553 
Q 372 3047 722 3315 
Q 1072 3584 1716 3584 
Q 2034 3584 2315 3537 
Q 2597 3491 2834 3397 
z
" id="DejaVuSans-73" transform="scale(0.015625)"/>
      </defs>
      <use xlink:href="#DejaVuSans-54"/>
      <use x="46.333984" xlink:href="#DejaVuSans-72"/>
      <use x="87.447266" xlink:href="#DejaVuSans-61"/>
      <use x="148.726562" xlink:href="#DejaVuSans-69"/>
      <use x="176.509766" xlink:href="#DejaVuSans-6e"/>
      <use x="239.888672" xlink:href="#DejaVuSans-20"/>
      <use x="271.675781" xlink:href="#DejaVuSans-6c"/>
      <use x="299.458984" xlink:href="#DejaVuSans-6f"/>
      <use x="360.640625" xlink:href="#DejaVuSans-73"/>
      <use x="412.740234" xlink:href="#DejaVuSans-73"/>
     </g>
    </g>
    <g id="line2d_19">
     <path d="M 66.6 69.248562 
L 86.6 69.248562 
" style="fill:none;stroke:#ff7f0e;stroke-linecap:square;stroke-width:1.5;"/>
    </g>
    <g id="line2d_20"/>
    <g id="text_18">
     <!-- Validation loss -->
     <g transform="translate(94.6 72.748562)scale(0.1 -0.1)">
      <defs>
       <path d="M 1831 0 
L 50 4666 
L 709 4666 
L 2188 738 
L 3669 4666 
L 4325 4666 
L 2547 0 
L 1831 0 
z
" id="DejaVuSans-56" transform="scale(0.015625)"/>
       <path d="M 2906 2969 
L 2906 4863 
L 3481 4863 
L 3481 0 
L 2906 0 
L 2906 525 
Q 2725 213 2448 61 
Q 2172 -91 1784 -91 
Q 1150 -91 751 415 
Q 353 922 353 1747 
Q 353 2572 751 3078 
Q 1150 3584 1784 3584 
Q 2172 3584 2448 3432 
Q 2725 3281 2906 2969 
z
M 947 1747 
Q 947 1113 1208 752 
Q 1469 391 1925 391 
Q 2381 391 2643 752 
Q 2906 1113 2906 1747 
Q 2906 2381 2643 2742 
Q 2381 3103 1925 3103 
Q 1469 3103 1208 2742 
Q 947 2381 947 1747 
z
" id="DejaVuSans-64" transform="scale(0.015625)"/>
       <path d="M 1172 4494 
L 1172 3500 
L 2356 3500 
L 2356 3053 
L 1172 3053 
L 1172 1153 
Q 1172 725 1289 603 
Q 1406 481 1766 481 
L 2356 481 
L 2356 0 
L 1766 0 
Q 1100 0 847 248 
Q 594 497 594 1153 
L 594 3053 
L 172 3053 
L 172 3500 
L 594 3500 
L 594 4494 
L 1172 4494 
z
" id="DejaVuSans-74" transform="scale(0.015625)"/>
      </defs>
      <use xlink:href="#DejaVuSans-56"/>
      <use x="60.658203" xlink:href="#DejaVuSans-61"/>
      <use x="121.9375" xlink:href="#DejaVuSans-6c"/>
      <use x="149.720703" xlink:href="#DejaVuSans-69"/>
      <use x="177.503906" xlink:href="#DejaVuSans-64"/>
      <use x="240.980469" xlink:href="#DejaVuSans-61"/>
      <use x="302.259766" xlink:href="#DejaVuSans-74"/>
      <use x="341.46875" xlink:href="#DejaVuSans-69"/>
      <use x="369.251953" xlink:href="#DejaVuSans-6f"/>
      <use x="430.433594" xlink:href="#DejaVuSans-6e"/>
      <use x="493.8125" xlink:href="#DejaVuSans-20"/>
      <use x="525.599609" xlink:href="#DejaVuSans-6c"/>
      <use x="553.382812" xlink:href="#DejaVuSans-6f"/>
      <use x="614.564453" xlink:href="#DejaVuSans-73"/>
      <use x="666.664062" xlink:href="#DejaVuSans-73"/>
     </g>
    </g>
   </g>
  </g>
 </g>
 <defs>
  <clipPath id="p99663b910c">
   <rect height="266.112" width="357.12" x="57.6" y="41.472"/>
  </clipPath>
 </defs>
</svg>
