<?xml version="1.0" encoding="utf-8" standalone="no"?>
<!DOCTYPE svg PUBLIC "-//W3C//DTD SVG 1.1//EN"
  "http://www.w3.org/Graphics/SVG/1.1/DTD/svg11.dtd">
<svg height="345.6pt" version="1.1" viewBox="0 0 460.8 345.6" width="460.8pt" xmlns="http://www.w3.org/2000/svg" xmlns:xlink="http://www.w3.org/1999/xlink">
 <metadata>
  <rdf:RDF xmlns:cc="http://creativecommons.org/ns#" xmlns:dc="http://purl.org/dc/elements/1.1/" xmlns:rdf="http://www.w3.org/1999/02/22-rdf-syntax-ns#">
   <cc:Work>
    <dc:type rdf:resource="http://purl.org/dc/dcmitype/StillImage"/>
    <dc:date>2021-07-29T14:46:57.008276</dc:date>
    <dc:format>image/svg+xml</dc:format>
    <dc:creator>
     <cc:Agent>
      <dc:title>Matplotlib v3.4.2, https://matplotlib.org/</dc:title>
     </cc:Agent>
    </dc:creator>
   </cc:Work>
  </rdf:RDF>
 </metadata>
 <defs>
  <style type="text/css">*{stroke-linecap:butt;stroke-linejoin:round;}</style>
 </defs>
 <g id="figure_1">
  <g id="patch_1">
   <path d="M 0 345.6 
L 460.8 345.6 
L 460.8 0 
L 0 0 
z
" style="fill:#ffffff;"/>
  </g>
  <g id="axes_1">
   <g id="patch_2">
    <path d="M 57.6 307.584 
L 414.72 307.584 
L 414.72 41.472 
L 57.6 41.472 
z
" style="fill:#ffffff;"/>
   </g>
   <g id="matplotlib.axis_1">
    <g id="xtick_1">
     <g id="line2d_1">
      <defs>
       <path d="M 0 0 
L 0 3.5 
" id="m279fb588ed" style="stroke:#000000;stroke-width:0.8;"/>
      </defs>
      <g>
       <use style="stroke:#000000;stroke-width:0.8;" x="72.928397" xlink:href="#m279fb588ed" y="307.584"/>
      </g>
     </g>
     <g id="text_1">
      <!-- 0 -->
      <g transform="translate(69.747147 322.182437)scale(0.1 -0.1)">
       <defs>
        <path d="M 2034 4250 
Q 1547 4250 1301 3770 
Q 1056 3291 1056 2328 
Q 1056 1369 1301 889 
Q 1547 409 2034 409 
Q 2525 409 2770 889 
Q 3016 1369 3016 2328 
Q 3016 3291 2770 3770 
Q 2525 4250 2034 4250 
z
M 2034 4750 
Q 2819 4750 3233 4129 
Q 3647 3509 3647 2328 
Q 3647 1150 3233 529 
Q 2819 -91 2034 -91 
Q 1250 -91 836 529 
Q 422 1150 422 2328 
Q 422 3509 836 4129 
Q 1250 4750 2034 4750 
z
" id="DejaVuSans-30" transform="scale(0.015625)"/>
       </defs>
       <use xlink:href="#DejaVuSans-30"/>
      </g>
     </g>
    </g>
    <g id="xtick_2">
     <g id="line2d_2">
      <g>
       <use style="stroke:#000000;stroke-width:0.8;" x="118.144908" xlink:href="#m279fb588ed" y="307.584"/>
      </g>
     </g>
     <g id="text_2">
      <!-- 50 -->
      <g transform="translate(111.782408 322.182437)scale(0.1 -0.1)">
       <defs>
        <path d="M 691 4666 
L 3169 4666 
L 3169 4134 
L 1269 4134 
L 1269 2991 
Q 1406 3038 1543 3061 
Q 1681 3084 1819 3084 
Q 2600 3084 3056 2656 
Q 3513 2228 3513 1497 
Q 3513 744 3044 326 
Q 2575 -91 1722 -91 
Q 1428 -91 1123 -41 
Q 819 9 494 109 
L 494 744 
Q 775 591 1075 516 
Q 1375 441 1709 441 
Q 2250 441 2565 725 
Q 2881 1009 2881 1497 
Q 2881 1984 2565 2268 
Q 2250 2553 1709 2553 
Q 1456 2553 1204 2497 
Q 953 2441 691 2322 
L 691 4666 
z
" id="DejaVuSans-35" transform="scale(0.015625)"/>
       </defs>
       <use xlink:href="#DejaVuSans-35"/>
       <use x="63.623047" xlink:href="#DejaVuSans-30"/>
      </g>
     </g>
    </g>
    <g id="xtick_3">
     <g id="line2d_3">
      <g>
       <use style="stroke:#000000;stroke-width:0.8;" x="163.361418" xlink:href="#m279fb588ed" y="307.584"/>
      </g>
     </g>
     <g id="text_3">
      <!-- 100 -->
      <g transform="translate(153.817668 322.182437)scale(0.1 -0.1)">
       <defs>
        <path d="M 794 531 
L 1825 531 
L 1825 4091 
L 703 3866 
L 703 4441 
L 1819 4666 
L 2450 4666 
L 2450 531 
L 3481 531 
L 3481 0 
L 794 0 
L 794 531 
z
" id="DejaVuSans-31" transform="scale(0.015625)"/>
       </defs>
       <use xlink:href="#DejaVuSans-31"/>
       <use x="63.623047" xlink:href="#DejaVuSans-30"/>
       <use x="127.246094" xlink:href="#DejaVuSans-30"/>
      </g>
     </g>
    </g>
    <g id="xtick_4">
     <g id="line2d_4">
      <g>
       <use style="stroke:#000000;stroke-width:0.8;" x="208.577929" xlink:href="#m279fb588ed" y="307.584"/>
      </g>
     </g>
     <g id="text_4">
      <!-- 150 -->
      <g transform="translate(199.034179 322.182437)scale(0.1 -0.1)">
       <use xlink:href="#DejaVuSans-31"/>
       <use x="63.623047" xlink:href="#DejaVuSans-35"/>
       <use x="127.246094" xlink:href="#DejaVuSans-30"/>
      </g>
     </g>
    </g>
    <g id="xtick_5">
     <g id="line2d_5">
      <g>
       <use style="stroke:#000000;stroke-width:0.8;" x="253.794439" xlink:href="#m279fb588ed" y="307.584"/>
      </g>
     </g>
     <g id="text_5">
      <!-- 200 -->
      <g transform="translate(244.250689 322.182437)scale(0.1 -0.1)">
       <defs>
        <path d="M 1228 531 
L 3431 531 
L 3431 0 
L 469 0 
L 469 531 
Q 828 903 1448 1529 
Q 2069 2156 2228 2338 
Q 2531 2678 2651 2914 
Q 2772 3150 2772 3378 
Q 2772 3750 2511 3984 
Q 2250 4219 1831 4219 
Q 1534 4219 1204 4116 
Q 875 4013 500 3803 
L 500 4441 
Q 881 4594 1212 4672 
Q 1544 4750 1819 4750 
Q 2544 4750 2975 4387 
Q 3406 4025 3406 3419 
Q 3406 3131 3298 2873 
Q 3191 2616 2906 2266 
Q 2828 2175 2409 1742 
Q 1991 1309 1228 531 
z
" id="DejaVuSans-32" transform="scale(0.015625)"/>
       </defs>
       <use xlink:href="#DejaVuSans-32"/>
       <use x="63.623047" xlink:href="#DejaVuSans-30"/>
       <use x="127.246094" xlink:href="#DejaVuSans-30"/>
      </g>
     </g>
    </g>
    <g id="xtick_6">
     <g id="line2d_6">
      <g>
       <use style="stroke:#000000;stroke-width:0.8;" x="299.01095" xlink:href="#m279fb588ed" y="307.584"/>
      </g>
     </g>
     <g id="text_6">
      <!-- 250 -->
      <g transform="translate(289.4672 322.182437)scale(0.1 -0.1)">
       <use xlink:href="#DejaVuSans-32"/>
       <use x="63.623047" xlink:href="#DejaVuSans-35"/>
       <use x="127.246094" xlink:href="#DejaVuSans-30"/>
      </g>
     </g>
    </g>
    <g id="xtick_7">
     <g id="line2d_7">
      <g>
       <use style="stroke:#000000;stroke-width:0.8;" x="344.22746" xlink:href="#m279fb588ed" y="307.584"/>
      </g>
     </g>
     <g id="text_7">
      <!-- 300 -->
      <g transform="translate(334.68371 322.182437)scale(0.1 -0.1)">
       <defs>
        <path d="M 2597 2516 
Q 3050 2419 3304 2112 
Q 3559 1806 3559 1356 
Q 3559 666 3084 287 
Q 2609 -91 1734 -91 
Q 1441 -91 1130 -33 
Q 819 25 488 141 
L 488 750 
Q 750 597 1062 519 
Q 1375 441 1716 441 
Q 2309 441 2620 675 
Q 2931 909 2931 1356 
Q 2931 1769 2642 2001 
Q 2353 2234 1838 2234 
L 1294 2234 
L 1294 2753 
L 1863 2753 
Q 2328 2753 2575 2939 
Q 2822 3125 2822 3475 
Q 2822 3834 2567 4026 
Q 2313 4219 1838 4219 
Q 1578 4219 1281 4162 
Q 984 4106 628 3988 
L 628 4550 
Q 988 4650 1302 4700 
Q 1616 4750 1894 4750 
Q 2613 4750 3031 4423 
Q 3450 4097 3450 3541 
Q 3450 3153 3228 2886 
Q 3006 2619 2597 2516 
z
" id="DejaVuSans-33" transform="scale(0.015625)"/>
       </defs>
       <use xlink:href="#DejaVuSans-33"/>
       <use x="63.623047" xlink:href="#DejaVuSans-30"/>
       <use x="127.246094" xlink:href="#DejaVuSans-30"/>
      </g>
     </g>
    </g>
    <g id="xtick_8">
     <g id="line2d_8">
      <g>
       <use style="stroke:#000000;stroke-width:0.8;" x="389.443971" xlink:href="#m279fb588ed" y="307.584"/>
      </g>
     </g>
     <g id="text_8">
      <!-- 350 -->
      <g transform="translate(379.900221 322.182437)scale(0.1 -0.1)">
       <use xlink:href="#DejaVuSans-33"/>
       <use x="63.623047" xlink:href="#DejaVuSans-35"/>
       <use x="127.246094" xlink:href="#DejaVuSans-30"/>
      </g>
     </g>
    </g>
    <g id="text_9">
     <!-- Epoch -->
     <g transform="translate(213.193594 339.659781)scale(0.15 -0.15)">
      <defs>
       <path d="M 628 4666 
L 3578 4666 
L 3578 4134 
L 1259 4134 
L 1259 2753 
L 3481 2753 
L 3481 2222 
L 1259 2222 
L 1259 531 
L 3634 531 
L 3634 0 
L 628 0 
L 628 4666 
z
" id="DejaVuSans-45" transform="scale(0.015625)"/>
       <path d="M 1159 525 
L 1159 -1331 
L 581 -1331 
L 581 3500 
L 1159 3500 
L 1159 2969 
Q 1341 3281 1617 3432 
Q 1894 3584 2278 3584 
Q 2916 3584 3314 3078 
Q 3713 2572 3713 1747 
Q 3713 922 3314 415 
Q 2916 -91 2278 -91 
Q 1894 -91 1617 61 
Q 1341 213 1159 525 
z
M 3116 1747 
Q 3116 2381 2855 2742 
Q 2594 3103 2138 3103 
Q 1681 3103 1420 2742 
Q 1159 2381 1159 1747 
Q 1159 1113 1420 752 
Q 1681 391 2138 391 
Q 2594 391 2855 752 
Q 3116 1113 3116 1747 
z
" id="DejaVuSans-70" transform="scale(0.015625)"/>
       <path d="M 1959 3097 
Q 1497 3097 1228 2736 
Q 959 2375 959 1747 
Q 959 1119 1226 758 
Q 1494 397 1959 397 
Q 2419 397 2687 759 
Q 2956 1122 2956 1747 
Q 2956 2369 2687 2733 
Q 2419 3097 1959 3097 
z
M 1959 3584 
Q 2709 3584 3137 3096 
Q 3566 2609 3566 1747 
Q 3566 888 3137 398 
Q 2709 -91 1959 -91 
Q 1206 -91 779 398 
Q 353 888 353 1747 
Q 353 2609 779 3096 
Q 1206 3584 1959 3584 
z
" id="DejaVuSans-6f" transform="scale(0.015625)"/>
       <path d="M 3122 3366 
L 3122 2828 
Q 2878 2963 2633 3030 
Q 2388 3097 2138 3097 
Q 1578 3097 1268 2742 
Q 959 2388 959 1747 
Q 959 1106 1268 751 
Q 1578 397 2138 397 
Q 2388 397 2633 464 
Q 2878 531 3122 666 
L 3122 134 
Q 2881 22 2623 -34 
Q 2366 -91 2075 -91 
Q 1284 -91 818 406 
Q 353 903 353 1747 
Q 353 2603 823 3093 
Q 1294 3584 2113 3584 
Q 2378 3584 2631 3529 
Q 2884 3475 3122 3366 
z
" id="DejaVuSans-63" transform="scale(0.015625)"/>
       <path d="M 3513 2113 
L 3513 0 
L 2938 0 
L 2938 2094 
Q 2938 2591 2744 2837 
Q 2550 3084 2163 3084 
Q 1697 3084 1428 2787 
Q 1159 2491 1159 1978 
L 1159 0 
L 581 0 
L 581 4863 
L 1159 4863 
L 1159 2956 
Q 1366 3272 1645 3428 
Q 1925 3584 2291 3584 
Q 2894 3584 3203 3211 
Q 3513 2838 3513 2113 
z
" id="DejaVuSans-68" transform="scale(0.015625)"/>
      </defs>
      <use xlink:href="#DejaVuSans-45"/>
      <use x="63.183594" xlink:href="#DejaVuSans-70"/>
      <use x="126.660156" xlink:href="#DejaVuSans-6f"/>
      <use x="187.841797" xlink:href="#DejaVuSans-63"/>
      <use x="242.822266" xlink:href="#DejaVuSans-68"/>
     </g>
    </g>
   </g>
   <g id="matplotlib.axis_2">
    <g id="ytick_1">
     <g id="line2d_9">
      <defs>
       <path d="M 0 0 
L -3.5 0 
" id="m331e5c9ba3" style="stroke:#000000;stroke-width:0.8;"/>
      </defs>
      <g>
       <use style="stroke:#000000;stroke-width:0.8;" x="57.6" xlink:href="#m331e5c9ba3" y="293.911229"/>
      </g>
     </g>
     <g id="text_10">
      <!-- −4000 -->
      <g transform="translate(16.770313 297.710448)scale(0.1 -0.1)">
       <defs>
        <path d="M 678 2272 
L 4684 2272 
L 4684 1741 
L 678 1741 
L 678 2272 
z
" id="DejaVuSans-2212" transform="scale(0.015625)"/>
        <path d="M 2419 4116 
L 825 1625 
L 2419 1625 
L 2419 4116 
z
M 2253 4666 
L 3047 4666 
L 3047 1625 
L 3713 1625 
L 3713 1100 
L 3047 1100 
L 3047 0 
L 2419 0 
L 2419 1100 
L 313 1100 
L 313 1709 
L 2253 4666 
z
" id="DejaVuSans-34" transform="scale(0.015625)"/>
       </defs>
       <use xlink:href="#DejaVuSans-2212"/>
       <use x="83.789062" xlink:href="#DejaVuSans-34"/>
       <use x="147.412109" xlink:href="#DejaVuSans-30"/>
       <use x="211.035156" xlink:href="#DejaVuSans-30"/>
       <use x="274.658203" xlink:href="#DejaVuSans-30"/>
      </g>
     </g>
    </g>
    <g id="ytick_2">
     <g id="line2d_10">
      <g>
       <use style="stroke:#000000;stroke-width:0.8;" x="57.6" xlink:href="#m331e5c9ba3" y="260.329027"/>
      </g>
     </g>
     <g id="text_11">
      <!-- −3500 -->
      <g transform="translate(16.770313 264.128246)scale(0.1 -0.1)">
       <use xlink:href="#DejaVuSans-2212"/>
       <use x="83.789062" xlink:href="#DejaVuSans-33"/>
       <use x="147.412109" xlink:href="#DejaVuSans-35"/>
       <use x="211.035156" xlink:href="#DejaVuSans-30"/>
       <use x="274.658203" xlink:href="#DejaVuSans-30"/>
      </g>
     </g>
    </g>
    <g id="ytick_3">
     <g id="line2d_11">
      <g>
       <use style="stroke:#000000;stroke-width:0.8;" x="57.6" xlink:href="#m331e5c9ba3" y="226.746825"/>
      </g>
     </g>
     <g id="text_12">
      <!-- −3000 -->
      <g transform="translate(16.770313 230.546044)scale(0.1 -0.1)">
       <use xlink:href="#DejaVuSans-2212"/>
       <use x="83.789062" xlink:href="#DejaVuSans-33"/>
       <use x="147.412109" xlink:href="#DejaVuSans-30"/>
       <use x="211.035156" xlink:href="#DejaVuSans-30"/>
       <use x="274.658203" xlink:href="#DejaVuSans-30"/>
      </g>
     </g>
    </g>
    <g id="ytick_4">
     <g id="line2d_12">
      <g>
       <use style="stroke:#000000;stroke-width:0.8;" x="57.6" xlink:href="#m331e5c9ba3" y="193.164623"/>
      </g>
     </g>
     <g id="text_13">
      <!-- −2500 -->
      <g transform="translate(16.770313 196.963842)scale(0.1 -0.1)">
       <use xlink:href="#DejaVuSans-2212"/>
       <use x="83.789062" xlink:href="#DejaVuSans-32"/>
       <use x="147.412109" xlink:href="#DejaVuSans-35"/>
       <use x="211.035156" xlink:href="#DejaVuSans-30"/>
       <use x="274.658203" xlink:href="#DejaVuSans-30"/>
      </g>
     </g>
    </g>
    <g id="ytick_5">
     <g id="line2d_13">
      <g>
       <use style="stroke:#000000;stroke-width:0.8;" x="57.6" xlink:href="#m331e5c9ba3" y="159.582421"/>
      </g>
     </g>
     <g id="text_14">
      <!-- −2000 -->
      <g transform="translate(16.770313 163.381639)scale(0.1 -0.1)">
       <use xlink:href="#DejaVuSans-2212"/>
       <use x="83.789062" xlink:href="#DejaVuSans-32"/>
       <use x="147.412109" xlink:href="#DejaVuSans-30"/>
       <use x="211.035156" xlink:href="#DejaVuSans-30"/>
       <use x="274.658203" xlink:href="#DejaVuSans-30"/>
      </g>
     </g>
    </g>
    <g id="ytick_6">
     <g id="line2d_14">
      <g>
       <use style="stroke:#000000;stroke-width:0.8;" x="57.6" xlink:href="#m331e5c9ba3" y="126.000219"/>
      </g>
     </g>
     <g id="text_15">
      <!-- −1500 -->
      <g transform="translate(16.770313 129.799437)scale(0.1 -0.1)">
       <use xlink:href="#DejaVuSans-2212"/>
       <use x="83.789062" xlink:href="#DejaVuSans-31"/>
       <use x="147.412109" xlink:href="#DejaVuSans-35"/>
       <use x="211.035156" xlink:href="#DejaVuSans-30"/>
       <use x="274.658203" xlink:href="#DejaVuSans-30"/>
      </g>
     </g>
    </g>
    <g id="ytick_7">
     <g id="line2d_15">
      <g>
       <use style="stroke:#000000;stroke-width:0.8;" x="57.6" xlink:href="#m331e5c9ba3" y="92.418016"/>
      </g>
     </g>
     <g id="text_16">
      <!-- −1000 -->
      <g transform="translate(16.770313 96.217235)scale(0.1 -0.1)">
       <use xlink:href="#DejaVuSans-2212"/>
       <use x="83.789062" xlink:href="#DejaVuSans-31"/>
       <use x="147.412109" xlink:href="#DejaVuSans-30"/>
       <use x="211.035156" xlink:href="#DejaVuSans-30"/>
       <use x="274.658203" xlink:href="#DejaVuSans-30"/>
      </g>
     </g>
    </g>
    <g id="ytick_8">
     <g id="line2d_16">
      <g>
       <use style="stroke:#000000;stroke-width:0.8;" x="57.6" xlink:href="#m331e5c9ba3" y="58.835814"/>
      </g>
     </g>
     <g id="text_17">
      <!-- −500 -->
      <g transform="translate(23.132812 62.635033)scale(0.1 -0.1)">
       <use xlink:href="#DejaVuSans-2212"/>
       <use x="83.789062" xlink:href="#DejaVuSans-35"/>
       <use x="147.412109" xlink:href="#DejaVuSans-30"/>
       <use x="211.035156" xlink:href="#DejaVuSans-30"/>
      </g>
     </g>
    </g>
   </g>
   <g id="line2d_17">
    <path clip-path="url(#pa640477a43)" d="M 73.832727 53.568 
L 74.737057 89.743532 
L 77.450048 120.724523 
L 78.354378 127.815295 
L 80.163039 139.114983 
L 81.067369 142.021272 
L 81.971699 143.138885 
L 82.876029 151.1573 
L 83.78036 153.895187 
L 84.68469 154.536305 
L 85.58902 156.924325 
L 86.49335 156.598332 
L 87.39768 156.656597 
L 89.206341 162.5204 
L 90.110671 168.403652 
L 91.015001 177.993995 
L 91.919331 185.0491 
L 92.823662 195.931171 
L 93.727992 191.30693 
L 94.632322 195.078996 
L 95.536652 202.730425 
L 96.440983 197.93172 
L 99.153973 201.495557 
L 100.058303 203.316024 
L 100.962634 204.771355 
L 101.866964 204.263335 
L 102.771294 206.742897 
L 103.675624 210.431927 
L 104.579954 210.248427 
L 105.484285 209.161009 
L 106.388615 212.365631 
L 107.292945 220.478905 
L 108.197275 217.816989 
L 109.101605 223.385309 
L 110.005936 224.87315 
L 110.910266 228.090054 
L 111.814596 229.14611 
L 112.718926 229.541411 
L 113.623257 230.355916 
L 114.527587 233.641635 
L 115.431917 231.730069 
L 116.336247 236.399345 
L 117.240577 237.010571 
L 118.144908 240.240393 
L 119.049238 236.155721 
L 119.953568 237.336413 
L 120.857898 237.085446 
L 121.762228 237.769518 
L 122.666559 239.031701 
L 123.570889 232.807592 
L 124.475219 242.035465 
L 125.379549 241.914564 
L 126.283879 240.150391 
L 127.18821 243.914858 
L 128.09254 238.761327 
L 128.99687 240.087471 
L 129.9012 245.964816 
L 130.805531 242.237876 
L 131.709861 242.823692 
L 132.614191 244.855956 
L 133.518521 239.628794 
L 134.422851 241.54333 
L 135.327182 251.55945 
L 136.231512 248.300241 
L 137.135842 249.386978 
L 138.944502 244.802342 
L 139.848833 246.390264 
L 140.753163 247.483487 
L 141.657493 252.02873 
L 142.561823 246.234559 
L 143.466153 253.616109 
L 144.370484 252.548453 
L 145.274814 248.273477 
L 146.179144 247.140838 
L 147.083474 252.554546 
L 147.987805 245.55603 
L 148.892135 251.37379 
L 149.796465 251.290011 
L 150.700795 253.497281 
L 151.605125 253.573384 
L 152.509456 252.088281 
L 153.413786 251.299253 
L 154.318116 252.431266 
L 155.222446 256.612672 
L 156.126776 251.604948 
L 157.031107 250.273582 
L 157.935437 252.54979 
L 158.839767 252.610778 
L 159.744097 254.495912 
L 160.648427 256.665708 
L 161.552758 257.809775 
L 162.457088 254.160368 
L 163.361418 260.40147 
L 164.265748 257.570031 
L 165.170079 258.053948 
L 166.074409 257.822246 
L 166.978739 263.548777 
L 167.883069 257.62921 
L 168.787399 261.894681 
L 169.69173 260.691532 
L 170.59606 256.147956 
L 171.50039 257.836069 
L 172.40472 253.845273 
L 173.30905 252.264252 
L 174.213381 251.429918 
L 175.117711 252.774369 
L 176.022041 255.612994 
L 177.830701 252.907078 
L 178.735032 254.771046 
L 179.639362 260.293045 
L 180.543692 250.979284 
L 181.448022 257.949902 
L 182.352352 255.544179 
L 183.256683 255.9948 
L 184.161013 256.620645 
L 185.065343 249.873778 
L 185.969673 254.154448 
L 186.874004 256.192403 
L 187.778334 253.46469 
L 188.682664 257.434389 
L 189.586994 257.186625 
L 190.491324 254.833898 
L 191.395655 244.954206 
L 192.299985 252.696254 
L 193.204315 255.729385 
L 194.108645 258.333119 
L 195.012975 253.441712 
L 195.917306 256.369274 
L 196.821636 258.013575 
L 197.725966 261.271517 
L 198.630296 256.488707 
L 199.534626 254.227109 
L 200.438957 257.00003 
L 201.343287 257.109642 
L 202.247617 260.721105 
L 203.151947 258.328924 
L 204.056278 254.216416 
L 204.960608 260.650381 
L 205.864938 259.406397 
L 206.769268 256.451287 
L 207.673598 254.654567 
L 208.577929 257.853671 
L 209.482259 264.236599 
L 210.386589 254.796783 
L 213.09958 263.394826 
L 214.00391 257.878955 
L 214.90824 256.275482 
L 215.81257 260.315116 
L 216.7169 258.212759 
L 217.621231 257.822287 
L 218.525561 263.239174 
L 219.429891 255.938233 
L 220.334221 263.034305 
L 221.238552 258.593811 
L 222.142882 260.173231 
L 223.047212 256.507473 
L 223.951542 259.75492 
L 224.855872 266.777254 
L 225.760203 266.968238 
L 226.664533 263.300058 
L 227.568863 261.036232 
L 228.473193 262.89654 
L 229.377523 261.456693 
L 230.281854 253.850301 
L 231.186184 265.976173 
L 232.090514 259.689252 
L 232.994844 263.870754 
L 233.899174 263.169138 
L 234.803505 267.650737 
L 235.707835 258.068723 
L 236.612165 265.424182 
L 237.516495 255.84138 
L 238.420826 265.455006 
L 239.325156 262.170867 
L 240.229486 266.663094 
L 241.133816 268.706365 
L 242.038146 258.67759 
L 242.942477 265.449207 
L 243.846807 260.480797 
L 244.751137 263.034456 
L 245.655467 259.696107 
L 246.559797 260.496242 
L 247.464128 260.587179 
L 248.368458 270.366209 
L 249.272788 260.98968 
L 250.177118 260.072016 
L 251.081448 261.118835 
L 251.985779 269.139376 
L 252.890109 269.239861 
L 254.698769 263.111306 
L 255.6031 264.478681 
L 256.50743 261.881635 
L 257.41176 261.719753 
L 258.31609 260.682008 
L 259.22042 266.640249 
L 260.124751 262.606792 
L 261.029081 260.76761 
L 261.933411 261.648744 
L 262.837741 260.108908 
L 263.742071 260.637504 
L 264.646402 261.412054 
L 265.550732 264.942839 
L 267.359392 269.399496 
L 268.263722 263.326139 
L 269.168053 262.205427 
L 270.072383 269.367422 
L 270.976713 263.174579 
L 271.881043 262.001063 
L 272.785374 266.897824 
L 273.689704 255.852229 
L 274.594034 268.498986 
L 275.498364 269.040399 
L 276.402694 271.015978 
L 277.307025 266.921063 
L 278.211355 265.264384 
L 279.115685 267.051864 
L 280.020015 265.475358 
L 280.924345 270.820686 
L 281.828676 268.376851 
L 282.733006 263.171363 
L 283.637336 270.879077 
L 284.541666 260.139395 
L 285.445996 263.55252 
L 286.350327 263.511559 
L 287.254657 262.910891 
L 288.158987 269.914696 
L 289.063317 265.270463 
L 289.967648 265.5314 
L 290.871978 268.352023 
L 291.776308 267.651526 
L 292.680638 265.52011 
L 293.584968 264.811703 
L 294.489299 258.899899 
L 295.393629 266.824106 
L 296.297959 265.922637 
L 297.202289 264.543547 
L 298.106619 270.911854 
L 299.01095 268.044972 
L 299.91528 267.138824 
L 300.81961 267.37725 
L 301.72394 260.901062 
L 302.62827 264.30802 
L 303.532601 267.036018 
L 304.436931 269.176928 
L 305.341261 263.200299 
L 306.245591 269.670551 
L 307.149921 260.532042 
L 308.054252 261.721885 
L 308.958582 261.18705 
L 309.862912 261.159111 
L 310.767242 258.64693 
L 311.671573 261.407595 
L 312.575903 267.358464 
L 313.480233 263.576738 
L 314.384563 265.452058 
L 315.288893 268.981302 
L 316.193224 267.471627 
L 317.097554 263.533625 
L 318.001884 266.237125 
L 318.906214 269.959564 
L 319.810544 262.935404 
L 320.714875 261.918524 
L 321.619205 263.34417 
L 322.523535 267.003563 
L 323.427865 266.696092 
L 324.332195 267.087258 
L 325.236526 266.104485 
L 326.140856 264.295991 
L 327.045186 268.86332 
L 327.949516 267.715589 
L 328.853847 265.936411 
L 329.758177 261.556763 
L 330.662507 270.43686 
L 331.566837 269.378527 
L 332.471167 266.644939 
L 333.375498 266.655691 
L 334.279828 269.383675 
L 335.184158 269.53348 
L 336.088488 259.892021 
L 336.992818 266.608141 
L 337.897149 267.075457 
L 338.801479 269.697247 
L 339.705809 266.150637 
L 340.610139 265.118522 
L 341.514469 271.105419 
L 342.4188 259.385098 
L 343.32313 269.457188 
L 344.22746 266.849251 
L 345.13179 270.618417 
L 346.036121 268.714395 
L 346.940451 265.460913 
L 347.844781 272.493293 
L 348.749111 269.25132 
L 349.653441 273.878376 
L 350.557772 264.321594 
L 351.462102 273.556321 
L 352.366432 273.843175 
L 353.270762 269.218219 
L 354.175092 273.619546 
L 355.079423 269.878399 
L 355.983753 264.425428 
L 356.888083 269.232743 
L 357.792413 269.284342 
L 358.696743 265.748417 
L 359.601074 267.926203 
L 360.505404 273.335314 
L 361.409734 275.660564 
L 362.314064 275.939151 
L 363.218395 262.853642 
L 364.122725 269.118371 
L 365.027055 265.507484 
L 365.931385 264.444535 
L 366.835715 268.384601 
L 367.740046 274.456366 
L 368.644376 278.103508 
L 369.548706 276.765718 
L 370.453036 269.804812 
L 371.357366 274.430208 
L 372.261697 268.458761 
L 373.166027 273.749628 
L 374.070357 262.185821 
L 374.974687 273.347019 
L 375.879017 267.072084 
L 376.783348 262.62845 
L 377.687678 269.061321 
L 378.592008 271.894225 
L 379.496338 265.806408 
L 380.400669 269.508336 
L 381.304999 271.17123 
L 382.209329 274.534214 
L 383.113659 271.58234 
L 384.017989 267.357993 
L 384.92232 268.034497 
L 385.82665 268.554901 
L 386.73098 269.306996 
L 387.63531 264.224864 
L 388.53964 269.843716 
L 389.443971 277.790892 
L 390.348301 267.646758 
L 391.252631 268.004646 
L 392.156961 266.593201 
L 393.965622 271.186232 
L 394.869952 267.172746 
L 395.774282 268.355816 
L 396.678612 267.747066 
L 397.582943 271.413587 
L 398.487273 267.237853 
L 398.487273 267.237853 
" style="fill:none;stroke:#1f77b4;stroke-linecap:square;stroke-width:1.5;"/>
   </g>
   <g id="line2d_18">
    <path clip-path="url(#pa640477a43)" d="M 73.832727 88.844036 
L 74.737057 87.92491 
L 75.641388 102.42147 
L 76.545718 105.505308 
L 77.450048 125.331348 
L 78.354378 124.61302 
L 79.258709 135.653933 
L 80.163039 142.911878 
L 81.067369 136.981041 
L 81.971699 155.672455 
L 82.876029 158.64648 
L 83.78036 155.820233 
L 84.68469 148.860569 
L 85.58902 162.757626 
L 86.49335 148.627373 
L 87.39768 149.278348 
L 88.302011 165.273093 
L 89.206341 165.123452 
L 91.015001 184.462781 
L 91.919331 177.824055 
L 92.823662 198.526328 
L 93.727992 190.656354 
L 94.632322 190.81707 
L 95.536652 207.527495 
L 96.440983 195.062769 
L 97.345313 204.225408 
L 98.249643 171.877052 
L 99.153973 217.906739 
L 100.058303 196.432492 
L 100.962634 206.015066 
L 101.866964 199.41673 
L 102.771294 211.870738 
L 103.675624 215.192241 
L 104.579954 222.454874 
L 105.484285 219.001518 
L 106.388615 208.007639 
L 107.292945 221.987453 
L 108.197275 213.632952 
L 109.101605 218.126468 
L 110.005936 220.31695 
L 110.910266 218.637778 
L 111.814596 223.543277 
L 112.718926 229.771362 
L 113.623257 227.095636 
L 114.527587 247.143905 
L 115.431917 238.811745 
L 116.336247 226.720967 
L 117.240577 233.381328 
L 118.144908 224.230067 
L 119.049238 240.801742 
L 119.953568 243.383137 
L 120.857898 241.919818 
L 121.762228 247.546078 
L 122.666559 216.629467 
L 123.570889 233.551787 
L 124.475219 239.681009 
L 125.379549 224.221307 
L 126.283879 229.847498 
L 127.18821 227.049001 
L 128.09254 244.31235 
L 128.99687 249.624347 
L 129.9012 246.19668 
L 130.805531 235.161524 
L 131.709861 260.418556 
L 132.614191 252.509714 
L 134.422851 233.116125 
L 135.327182 254.217182 
L 136.231512 239.832368 
L 137.135842 262.249201 
L 138.040172 264.422589 
L 138.944502 242.023309 
L 139.848833 244.19281 
L 140.753163 244.579051 
L 141.657493 259.912233 
L 142.561823 251.816565 
L 143.466153 255.081766 
L 144.370484 266.285689 
L 145.274814 242.458525 
L 146.179144 240.382941 
L 147.083474 198.208494 
L 147.987805 236.07696 
L 148.892135 245.372238 
L 149.796465 218.523644 
L 150.700795 236.701722 
L 151.605125 268.627571 
L 152.509456 243.254371 
L 153.413786 258.773909 
L 154.318116 237.298768 
L 155.222446 258.419252 
L 156.126776 251.997734 
L 157.031107 260.525853 
L 157.935437 257.591589 
L 158.839767 239.078719 
L 159.744097 261.000471 
L 160.648427 263.198161 
L 161.552758 238.735745 
L 162.457088 262.245421 
L 163.361418 243.216458 
L 164.265748 257.164417 
L 165.170079 263.507014 
L 166.074409 253.655723 
L 166.978739 253.142197 
L 167.883069 251.290386 
L 168.787399 267.752908 
L 169.69173 268.235448 
L 170.59606 241.689489 
L 171.50039 257.5909 
L 172.40472 255.873349 
L 173.30905 251.632083 
L 174.213381 251.650324 
L 175.117711 267.589679 
L 176.022041 248.807549 
L 176.926371 258.834853 
L 177.830701 244.495585 
L 178.735032 263.425692 
L 179.639362 265.37982 
L 180.543692 253.130501 
L 181.448022 266.509176 
L 182.352352 235.740092 
L 183.256683 264.622302 
L 184.161013 233.749899 
L 185.065343 262.481493 
L 185.969673 252.91267 
L 186.874004 250.084955 
L 187.778334 247.704251 
L 188.682664 266.642281 
L 189.586994 257.243525 
L 190.491324 263.322789 
L 191.395655 253.84412 
L 192.299985 252.441938 
L 193.204315 242.287623 
L 194.108645 253.582388 
L 195.012975 236.296225 
L 195.917306 253.832005 
L 196.821636 265.745005 
L 197.725966 251.449125 
L 198.630296 254.217842 
L 199.534626 269.323527 
L 200.438957 246.823053 
L 201.343287 248.663777 
L 202.247617 270.935723 
L 203.151947 249.460632 
L 204.056278 255.884639 
L 204.960608 261.355394 
L 205.864938 257.96565 
L 206.769268 270.538898 
L 207.673598 246.596193 
L 208.577929 255.947183 
L 209.482259 260.879851 
L 210.386589 256.626963 
L 211.290919 258.135007 
L 212.195249 264.271848 
L 213.09958 246.786434 
L 214.00391 273.038404 
L 214.90824 253.189901 
L 215.81257 250.72679 
L 216.7169 260.497732 
L 218.525561 245.370714 
L 219.429891 259.309771 
L 220.334221 248.160734 
L 221.238552 263.814698 
L 222.142882 263.764356 
L 223.047212 250.595511 
L 223.951542 260.085563 
L 225.760203 261.923798 
L 226.664533 287.591737 
L 227.568863 259.313702 
L 228.473193 255.536059 
L 229.377523 253.783134 
L 231.186184 244.943568 
L 232.090514 250.915183 
L 232.994844 266.928329 
L 233.899174 272.858564 
L 234.803505 271.82309 
L 235.707835 261.898901 
L 236.612165 275.756017 
L 237.516495 264.050666 
L 238.420826 265.132389 
L 239.325156 271.488018 
L 240.229486 271.205685 
L 241.133816 261.001879 
L 242.038146 259.321452 
L 242.942477 269.464547 
L 243.846807 241.240988 
L 244.751137 267.377911 
L 245.655467 263.028232 
L 247.464128 257.478027 
L 248.368458 249.460324 
L 249.272788 262.648125 
L 250.177118 261.890375 
L 251.081448 250.069277 
L 251.985779 263.652051 
L 252.890109 246.23415 
L 253.794439 265.378657 
L 254.698769 247.029271 
L 255.6031 263.044484 
L 256.50743 247.320316 
L 257.41176 269.106835 
L 258.31609 266.819702 
L 259.22042 266.671924 
L 260.124751 265.806826 
L 261.029081 268.526251 
L 261.933411 258.816042 
L 262.837741 252.314647 
L 263.742071 266.463044 
L 264.646402 246.471003 
L 265.550732 276.46495 
L 266.455062 264.024901 
L 267.359392 248.959948 
L 268.263722 271.622209 
L 269.168053 248.640774 
L 270.976713 274.861928 
L 271.881043 285.541834 
L 272.785374 235.548645 
L 273.689704 276.055256 
L 274.594034 254.49555 
L 275.498364 275.081781 
L 276.402694 264.054325 
L 277.307025 264.020899 
L 278.211355 256.990147 
L 279.115685 266.903309 
L 280.020015 261.498817 
L 280.924345 266.028786 
L 281.828676 272.333375 
L 282.733006 249.889617 
L 283.637336 268.775956 
L 284.541666 275.747336 
L 285.445996 268.94811 
L 286.350327 249.440161 
L 287.254657 263.626018 
L 288.158987 265.879851 
L 289.063317 253.950983 
L 289.967648 256.486867 
L 291.776308 285.848851 
L 292.680638 276.555355 
L 293.584968 258.148999 
L 294.489299 267.110172 
L 295.393629 274.369866 
L 296.297959 274.405436 
L 297.202289 266.545751 
L 298.106619 267.696799 
L 299.01095 259.917369 
L 299.91528 244.846257 
L 300.81961 279.89275 
L 301.72394 265.019472 
L 302.62827 272.418995 
L 303.532601 274.22175 
L 304.436931 275.331836 
L 305.341261 267.261228 
L 306.245591 279.465793 
L 307.149921 280.273108 
L 308.054252 274.547842 
L 308.958582 270.530892 
L 309.862912 278.538734 
L 310.767242 274.975631 
L 311.671573 274.450187 
L 312.575903 265.689569 
L 313.480233 276.179353 
L 314.384563 267.134044 
L 315.288893 239.185498 
L 316.193224 273.559697 
L 317.097554 277.884608 
L 318.001884 278.577742 
L 318.906214 260.650272 
L 319.810544 251.571699 
L 320.714875 263.458468 
L 321.619205 262.195988 
L 322.523535 267.453729 
L 323.427865 264.423201 
L 324.332195 250.360801 
L 325.236526 260.31508 
L 326.140856 262.614113 
L 327.045186 273.613251 
L 327.949516 256.80175 
L 328.853847 265.995037 
L 329.758177 290.281828 
L 330.662507 263.561617 
L 331.566837 266.671892 
L 332.471167 274.362124 
L 333.375498 295.488 
L 334.279828 255.560537 
L 335.184158 270.111638 
L 336.088488 257.84412 
L 336.992818 252.473108 
L 337.897149 259.371843 
L 338.801479 270.202002 
L 339.705809 256.349187 
L 340.610139 263.306132 
L 341.514469 261.556912 
L 342.4188 269.819125 
L 343.32313 258.186427 
L 344.22746 274.70908 
L 345.13179 261.284828 
L 346.036121 253.61246 
L 346.940451 259.90829 
L 347.844781 278.73292 
L 348.749111 270.133594 
L 349.653441 268.115999 
L 350.557772 270.702544 
L 351.462102 254.774203 
L 352.366432 266.396941 
L 353.270762 265.774117 
L 354.175092 267.276276 
L 355.079423 271.929374 
L 355.983753 275.164544 
L 356.888083 276.58978 
L 357.792413 278.641145 
L 358.696743 276.139175 
L 359.601074 253.67416 
L 360.505404 275.425278 
L 361.409734 265.363199 
L 362.314064 293.773799 
L 363.218395 270.24829 
L 364.122725 271.789201 
L 365.027055 262.745433 
L 365.931385 258.170386 
L 366.835715 273.923747 
L 367.740046 272.364198 
L 368.644376 265.604874 
L 369.548706 280.662431 
L 370.453036 247.575543 
L 371.357366 292.241459 
L 372.261697 278.88723 
L 373.166027 283.428188 
L 374.070357 267.552775 
L 374.974687 267.657479 
L 375.879017 268.454138 
L 376.783348 248.027437 
L 377.687678 260.725883 
L 378.592008 265.24219 
L 379.496338 271.248423 
L 380.400669 245.130345 
L 381.304999 258.296035 
L 382.209329 267.16422 
L 383.113659 262.624988 
L 384.017989 274.083964 
L 384.92232 269.777183 
L 385.82665 263.236871 
L 386.73098 266.773915 
L 387.63531 283.177151 
L 388.53964 291.953871 
L 389.443971 262.502168 
L 390.348301 251.329841 
L 391.252631 264.299461 
L 392.156961 283.058016 
L 393.061291 279.603482 
L 393.965622 256.486638 
L 394.869952 270.291971 
L 395.774282 270.779431 
L 396.678612 257.028284 
L 397.582943 254.924392 
L 398.487273 283.394935 
L 398.487273 283.394935 
" style="fill:none;stroke:#ff7f0e;stroke-linecap:square;stroke-width:1.5;"/>
   </g>
   <g id="patch_3">
    <path d="M 57.6 307.584 
L 57.6 41.472 
" style="fill:none;stroke:#000000;stroke-linecap:square;stroke-linejoin:miter;stroke-width:0.8;"/>
   </g>
   <g id="patch_4">
    <path d="M 414.72 307.584 
L 414.72 41.472 
" style="fill:none;stroke:#000000;stroke-linecap:square;stroke-linejoin:miter;stroke-width:0.8;"/>
   </g>
   <g id="patch_5">
    <path d="M 57.6 307.584 
L 414.72 307.584 
" style="fill:none;stroke:#000000;stroke-linecap:square;stroke-linejoin:miter;stroke-width:0.8;"/>
   </g>
   <g id="patch_6">
    <path d="M 57.6 41.472 
L 414.72 41.472 
" style="fill:none;stroke:#000000;stroke-linecap:square;stroke-linejoin:miter;stroke-width:0.8;"/>
   </g>
   <g id="legend_1">
    <g id="patch_7">
     <path d="M 303.845 78.82825 
L 407.72 78.82825 
Q 409.72 78.82825 409.72 76.82825 
L 409.72 48.472 
Q 409.72 46.472 407.72 46.472 
L 303.845 46.472 
Q 301.845 46.472 301.845 48.472 
L 301.845 76.82825 
Q 301.845 78.82825 303.845 78.82825 
z
" style="fill:#ffffff;opacity:0.8;stroke:#cccccc;stroke-linejoin:miter;"/>
    </g>
    <g id="line2d_19">
     <path d="M 305.845 54.570437 
L 325.845 54.570437 
" style="fill:none;stroke:#1f77b4;stroke-linecap:square;stroke-width:1.5;"/>
    </g>
    <g id="line2d_20"/>
    <g id="text_18">
     <!-- Train loss -->
     <g transform="translate(333.845 58.070437)scale(0.1 -0.1)">
      <defs>
       <path d="M -19 4666 
L 3928 4666 
L 3928 4134 
L 2272 4134 
L 2272 0 
L 1638 0 
L 1638 4134 
L -19 4134 
L -19 4666 
z
" id="DejaVuSans-54" transform="scale(0.015625)"/>
       <path d="M 2631 2963 
Q 2534 3019 2420 3045 
Q 2306 3072 2169 3072 
Q 1681 3072 1420 2755 
Q 1159 2438 1159 1844 
L 1159 0 
L 581 0 
L 581 3500 
L 1159 3500 
L 1159 2956 
Q 1341 3275 1631 3429 
Q 1922 3584 2338 3584 
Q 2397 3584 2469 3576 
Q 2541 3569 2628 3553 
L 2631 2963 
z
" id="DejaVuSans-72" transform="scale(0.015625)"/>
       <path d="M 2194 1759 
Q 1497 1759 1228 1600 
Q 959 1441 959 1056 
Q 959 750 1161 570 
Q 1363 391 1709 391 
Q 2188 391 2477 730 
Q 2766 1069 2766 1631 
L 2766 1759 
L 2194 1759 
z
M 3341 1997 
L 3341 0 
L 2766 0 
L 2766 531 
Q 2569 213 2275 61 
Q 1981 -91 1556 -91 
Q 1019 -91 701 211 
Q 384 513 384 1019 
Q 384 1609 779 1909 
Q 1175 2209 1959 2209 
L 2766 2209 
L 2766 2266 
Q 2766 2663 2505 2880 
Q 2244 3097 1772 3097 
Q 1472 3097 1187 3025 
Q 903 2953 641 2809 
L 641 3341 
Q 956 3463 1253 3523 
Q 1550 3584 1831 3584 
Q 2591 3584 2966 3190 
Q 3341 2797 3341 1997 
z
" id="DejaVuSans-61" transform="scale(0.015625)"/>
       <path d="M 603 3500 
L 1178 3500 
L 1178 0 
L 603 0 
L 603 3500 
z
M 603 4863 
L 1178 4863 
L 1178 4134 
L 603 4134 
L 603 4863 
z
" id="DejaVuSans-69" transform="scale(0.015625)"/>
       <path d="M 3513 2113 
L 3513 0 
L 2938 0 
L 2938 2094 
Q 2938 2591 2744 2837 
Q 2550 3084 2163 3084 
Q 1697 3084 1428 2787 
Q 1159 2491 1159 1978 
L 1159 0 
L 581 0 
L 581 3500 
L 1159 3500 
L 1159 2956 
Q 1366 3272 1645 3428 
Q 1925 3584 2291 3584 
Q 2894 3584 3203 3211 
Q 3513 2838 3513 2113 
z
" id="DejaVuSans-6e" transform="scale(0.015625)"/>
       <path id="DejaVuSans-20" transform="scale(0.015625)"/>
       <path d="M 603 4863 
L 1178 4863 
L 1178 0 
L 603 0 
L 603 4863 
z
" id="DejaVuSans-6c" transform="scale(0.015625)"/>
       <path d="M 2834 3397 
L 2834 2853 
Q 2591 2978 2328 3040 
Q 2066 3103 1784 3103 
Q 1356 3103 1142 2972 
Q 928 2841 928 2578 
Q 928 2378 1081 2264 
Q 1234 2150 1697 2047 
L 1894 2003 
Q 2506 1872 2764 1633 
Q 3022 1394 3022 966 
Q 3022 478 2636 193 
Q 2250 -91 1575 -91 
Q 1294 -91 989 -36 
Q 684 19 347 128 
L 347 722 
Q 666 556 975 473 
Q 1284 391 1588 391 
Q 1994 391 2212 530 
Q 2431 669 2431 922 
Q 2431 1156 2273 1281 
Q 2116 1406 1581 1522 
L 1381 1569 
Q 847 1681 609 1914 
Q 372 2147 372 2553 
Q 372 3047 722 3315 
Q 1072 3584 1716 3584 
Q 2034 3584 2315 3537 
Q 2597 3491 2834 3397 
z
" id="DejaVuSans-73" transform="scale(0.015625)"/>
      </defs>
      <use xlink:href="#DejaVuSans-54"/>
      <use x="46.333984" xlink:href="#DejaVuSans-72"/>
      <use x="87.447266" xlink:href="#DejaVuSans-61"/>
      <use x="148.726562" xlink:href="#DejaVuSans-69"/>
      <use x="176.509766" xlink:href="#DejaVuSans-6e"/>
      <use x="239.888672" xlink:href="#DejaVuSans-20"/>
      <use x="271.675781" xlink:href="#DejaVuSans-6c"/>
      <use x="299.458984" xlink:href="#DejaVuSans-6f"/>
      <use x="360.640625" xlink:href="#DejaVuSans-73"/>
      <use x="412.740234" xlink:href="#DejaVuSans-73"/>
     </g>
    </g>
    <g id="line2d_21">
     <path d="M 305.845 69.248562 
L 325.845 69.248562 
" style="fill:none;stroke:#ff7f0e;stroke-linecap:square;stroke-width:1.5;"/>
    </g>
    <g id="line2d_22"/>
    <g id="text_19">
     <!-- Validation loss -->
     <g transform="translate(333.845 72.748562)scale(0.1 -0.1)">
      <defs>
       <path d="M 1831 0 
L 50 4666 
L 709 4666 
L 2188 738 
L 3669 4666 
L 4325 4666 
L 2547 0 
L 1831 0 
z
" id="DejaVuSans-56" transform="scale(0.015625)"/>
       <path d="M 2906 2969 
L 2906 4863 
L 3481 4863 
L 3481 0 
L 2906 0 
L 2906 525 
Q 2725 213 2448 61 
Q 2172 -91 1784 -91 
Q 1150 -91 751 415 
Q 353 922 353 1747 
Q 353 2572 751 3078 
Q 1150 3584 1784 3584 
Q 2172 3584 2448 3432 
Q 2725 3281 2906 2969 
z
M 947 1747 
Q 947 1113 1208 752 
Q 1469 391 1925 391 
Q 2381 391 2643 752 
Q 2906 1113 2906 1747 
Q 2906 2381 2643 2742 
Q 2381 3103 1925 3103 
Q 1469 3103 1208 2742 
Q 947 2381 947 1747 
z
" id="DejaVuSans-64" transform="scale(0.015625)"/>
       <path d="M 1172 4494 
L 1172 3500 
L 2356 3500 
L 2356 3053 
L 1172 3053 
L 1172 1153 
Q 1172 725 1289 603 
Q 1406 481 1766 481 
L 2356 481 
L 2356 0 
L 1766 0 
Q 1100 0 847 248 
Q 594 497 594 1153 
L 594 3053 
L 172 3053 
L 172 3500 
L 594 3500 
L 594 4494 
L 1172 4494 
z
" id="DejaVuSans-74" transform="scale(0.015625)"/>
      </defs>
      <use xlink:href="#DejaVuSans-56"/>
      <use x="60.658203" xlink:href="#DejaVuSans-61"/>
      <use x="121.9375" xlink:href="#DejaVuSans-6c"/>
      <use x="149.720703" xlink:href="#DejaVuSans-69"/>
      <use x="177.503906" xlink:href="#DejaVuSans-64"/>
      <use x="240.980469" xlink:href="#DejaVuSans-61"/>
      <use x="302.259766" xlink:href="#DejaVuSans-74"/>
      <use x="341.46875" xlink:href="#DejaVuSans-69"/>
      <use x="369.251953" xlink:href="#DejaVuSans-6f"/>
      <use x="430.433594" xlink:href="#DejaVuSans-6e"/>
      <use x="493.8125" xlink:href="#DejaVuSans-20"/>
      <use x="525.599609" xlink:href="#DejaVuSans-6c"/>
      <use x="553.382812" xlink:href="#DejaVuSans-6f"/>
      <use x="614.564453" xlink:href="#DejaVuSans-73"/>
      <use x="666.664062" xlink:href="#DejaVuSans-73"/>
     </g>
    </g>
   </g>
  </g>
 </g>
 <defs>
  <clipPath id="pa640477a43">
   <rect height="266.112" width="357.12" x="57.6" y="41.472"/>
  </clipPath>
 </defs>
</svg>
