<?xml version="1.0" encoding="utf-8" standalone="no"?>
<!DOCTYPE svg PUBLIC "-//W3C//DTD SVG 1.1//EN"
  "http://www.w3.org/Graphics/SVG/1.1/DTD/svg11.dtd">
<svg height="345.6pt" version="1.1" viewBox="0 0 460.8 345.6" width="460.8pt" xmlns="http://www.w3.org/2000/svg" xmlns:xlink="http://www.w3.org/1999/xlink">
 <metadata>
  <rdf:RDF xmlns:cc="http://creativecommons.org/ns#" xmlns:dc="http://purl.org/dc/elements/1.1/" xmlns:rdf="http://www.w3.org/1999/02/22-rdf-syntax-ns#">
   <cc:Work>
    <dc:type rdf:resource="http://purl.org/dc/dcmitype/StillImage"/>
    <dc:date>2021-07-29T14:46:57.465188</dc:date>
    <dc:format>image/svg+xml</dc:format>
    <dc:creator>
     <cc:Agent>
      <dc:title>Matplotlib v3.4.2, https://matplotlib.org/</dc:title>
     </cc:Agent>
    </dc:creator>
   </cc:Work>
  </rdf:RDF>
 </metadata>
 <defs>
  <style type="text/css">*{stroke-linecap:butt;stroke-linejoin:round;}</style>
 </defs>
 <g id="figure_1">
  <g id="patch_1">
   <path d="M 0 345.6 
L 460.8 345.6 
L 460.8 0 
L 0 0 
z
" style="fill:#ffffff;"/>
  </g>
  <g id="axes_1">
   <g id="patch_2">
    <path d="M 57.6 307.584 
L 414.72 307.584 
L 414.72 41.472 
L 57.6 41.472 
z
" style="fill:#ffffff;"/>
   </g>
   <g id="matplotlib.axis_1">
    <g id="xtick_1">
     <g id="line2d_1">
      <defs>
       <path d="M 0 0 
L 0 3.5 
" id="mf3d491c4e6" style="stroke:#000000;stroke-width:0.8;"/>
      </defs>
      <g>
       <use style="stroke:#000000;stroke-width:0.8;" x="72.928397" xlink:href="#mf3d491c4e6" y="307.584"/>
      </g>
     </g>
     <g id="text_1">
      <!-- 0 -->
      <g transform="translate(69.747147 322.182437)scale(0.1 -0.1)">
       <defs>
        <path d="M 2034 4250 
Q 1547 4250 1301 3770 
Q 1056 3291 1056 2328 
Q 1056 1369 1301 889 
Q 1547 409 2034 409 
Q 2525 409 2770 889 
Q 3016 1369 3016 2328 
Q 3016 3291 2770 3770 
Q 2525 4250 2034 4250 
z
M 2034 4750 
Q 2819 4750 3233 4129 
Q 3647 3509 3647 2328 
Q 3647 1150 3233 529 
Q 2819 -91 2034 -91 
Q 1250 -91 836 529 
Q 422 1150 422 2328 
Q 422 3509 836 4129 
Q 1250 4750 2034 4750 
z
" id="DejaVuSans-30" transform="scale(0.015625)"/>
       </defs>
       <use xlink:href="#DejaVuSans-30"/>
      </g>
     </g>
    </g>
    <g id="xtick_2">
     <g id="line2d_2">
      <g>
       <use style="stroke:#000000;stroke-width:0.8;" x="118.144908" xlink:href="#mf3d491c4e6" y="307.584"/>
      </g>
     </g>
     <g id="text_2">
      <!-- 50 -->
      <g transform="translate(111.782408 322.182437)scale(0.1 -0.1)">
       <defs>
        <path d="M 691 4666 
L 3169 4666 
L 3169 4134 
L 1269 4134 
L 1269 2991 
Q 1406 3038 1543 3061 
Q 1681 3084 1819 3084 
Q 2600 3084 3056 2656 
Q 3513 2228 3513 1497 
Q 3513 744 3044 326 
Q 2575 -91 1722 -91 
Q 1428 -91 1123 -41 
Q 819 9 494 109 
L 494 744 
Q 775 591 1075 516 
Q 1375 441 1709 441 
Q 2250 441 2565 725 
Q 2881 1009 2881 1497 
Q 2881 1984 2565 2268 
Q 2250 2553 1709 2553 
Q 1456 2553 1204 2497 
Q 953 2441 691 2322 
L 691 4666 
z
" id="DejaVuSans-35" transform="scale(0.015625)"/>
       </defs>
       <use xlink:href="#DejaVuSans-35"/>
       <use x="63.623047" xlink:href="#DejaVuSans-30"/>
      </g>
     </g>
    </g>
    <g id="xtick_3">
     <g id="line2d_3">
      <g>
       <use style="stroke:#000000;stroke-width:0.8;" x="163.361418" xlink:href="#mf3d491c4e6" y="307.584"/>
      </g>
     </g>
     <g id="text_3">
      <!-- 100 -->
      <g transform="translate(153.817668 322.182437)scale(0.1 -0.1)">
       <defs>
        <path d="M 794 531 
L 1825 531 
L 1825 4091 
L 703 3866 
L 703 4441 
L 1819 4666 
L 2450 4666 
L 2450 531 
L 3481 531 
L 3481 0 
L 794 0 
L 794 531 
z
" id="DejaVuSans-31" transform="scale(0.015625)"/>
       </defs>
       <use xlink:href="#DejaVuSans-31"/>
       <use x="63.623047" xlink:href="#DejaVuSans-30"/>
       <use x="127.246094" xlink:href="#DejaVuSans-30"/>
      </g>
     </g>
    </g>
    <g id="xtick_4">
     <g id="line2d_4">
      <g>
       <use style="stroke:#000000;stroke-width:0.8;" x="208.577929" xlink:href="#mf3d491c4e6" y="307.584"/>
      </g>
     </g>
     <g id="text_4">
      <!-- 150 -->
      <g transform="translate(199.034179 322.182437)scale(0.1 -0.1)">
       <use xlink:href="#DejaVuSans-31"/>
       <use x="63.623047" xlink:href="#DejaVuSans-35"/>
       <use x="127.246094" xlink:href="#DejaVuSans-30"/>
      </g>
     </g>
    </g>
    <g id="xtick_5">
     <g id="line2d_5">
      <g>
       <use style="stroke:#000000;stroke-width:0.8;" x="253.794439" xlink:href="#mf3d491c4e6" y="307.584"/>
      </g>
     </g>
     <g id="text_5">
      <!-- 200 -->
      <g transform="translate(244.250689 322.182437)scale(0.1 -0.1)">
       <defs>
        <path d="M 1228 531 
L 3431 531 
L 3431 0 
L 469 0 
L 469 531 
Q 828 903 1448 1529 
Q 2069 2156 2228 2338 
Q 2531 2678 2651 2914 
Q 2772 3150 2772 3378 
Q 2772 3750 2511 3984 
Q 2250 4219 1831 4219 
Q 1534 4219 1204 4116 
Q 875 4013 500 3803 
L 500 4441 
Q 881 4594 1212 4672 
Q 1544 4750 1819 4750 
Q 2544 4750 2975 4387 
Q 3406 4025 3406 3419 
Q 3406 3131 3298 2873 
Q 3191 2616 2906 2266 
Q 2828 2175 2409 1742 
Q 1991 1309 1228 531 
z
" id="DejaVuSans-32" transform="scale(0.015625)"/>
       </defs>
       <use xlink:href="#DejaVuSans-32"/>
       <use x="63.623047" xlink:href="#DejaVuSans-30"/>
       <use x="127.246094" xlink:href="#DejaVuSans-30"/>
      </g>
     </g>
    </g>
    <g id="xtick_6">
     <g id="line2d_6">
      <g>
       <use style="stroke:#000000;stroke-width:0.8;" x="299.01095" xlink:href="#mf3d491c4e6" y="307.584"/>
      </g>
     </g>
     <g id="text_6">
      <!-- 250 -->
      <g transform="translate(289.4672 322.182437)scale(0.1 -0.1)">
       <use xlink:href="#DejaVuSans-32"/>
       <use x="63.623047" xlink:href="#DejaVuSans-35"/>
       <use x="127.246094" xlink:href="#DejaVuSans-30"/>
      </g>
     </g>
    </g>
    <g id="xtick_7">
     <g id="line2d_7">
      <g>
       <use style="stroke:#000000;stroke-width:0.8;" x="344.22746" xlink:href="#mf3d491c4e6" y="307.584"/>
      </g>
     </g>
     <g id="text_7">
      <!-- 300 -->
      <g transform="translate(334.68371 322.182437)scale(0.1 -0.1)">
       <defs>
        <path d="M 2597 2516 
Q 3050 2419 3304 2112 
Q 3559 1806 3559 1356 
Q 3559 666 3084 287 
Q 2609 -91 1734 -91 
Q 1441 -91 1130 -33 
Q 819 25 488 141 
L 488 750 
Q 750 597 1062 519 
Q 1375 441 1716 441 
Q 2309 441 2620 675 
Q 2931 909 2931 1356 
Q 2931 1769 2642 2001 
Q 2353 2234 1838 2234 
L 1294 2234 
L 1294 2753 
L 1863 2753 
Q 2328 2753 2575 2939 
Q 2822 3125 2822 3475 
Q 2822 3834 2567 4026 
Q 2313 4219 1838 4219 
Q 1578 4219 1281 4162 
Q 984 4106 628 3988 
L 628 4550 
Q 988 4650 1302 4700 
Q 1616 4750 1894 4750 
Q 2613 4750 3031 4423 
Q 3450 4097 3450 3541 
Q 3450 3153 3228 2886 
Q 3006 2619 2597 2516 
z
" id="DejaVuSans-33" transform="scale(0.015625)"/>
       </defs>
       <use xlink:href="#DejaVuSans-33"/>
       <use x="63.623047" xlink:href="#DejaVuSans-30"/>
       <use x="127.246094" xlink:href="#DejaVuSans-30"/>
      </g>
     </g>
    </g>
    <g id="xtick_8">
     <g id="line2d_8">
      <g>
       <use style="stroke:#000000;stroke-width:0.8;" x="389.443971" xlink:href="#mf3d491c4e6" y="307.584"/>
      </g>
     </g>
     <g id="text_8">
      <!-- 350 -->
      <g transform="translate(379.900221 322.182437)scale(0.1 -0.1)">
       <use xlink:href="#DejaVuSans-33"/>
       <use x="63.623047" xlink:href="#DejaVuSans-35"/>
       <use x="127.246094" xlink:href="#DejaVuSans-30"/>
      </g>
     </g>
    </g>
    <g id="text_9">
     <!-- Epoch -->
     <g transform="translate(213.193594 339.659781)scale(0.15 -0.15)">
      <defs>
       <path d="M 628 4666 
L 3578 4666 
L 3578 4134 
L 1259 4134 
L 1259 2753 
L 3481 2753 
L 3481 2222 
L 1259 2222 
L 1259 531 
L 3634 531 
L 3634 0 
L 628 0 
L 628 4666 
z
" id="DejaVuSans-45" transform="scale(0.015625)"/>
       <path d="M 1159 525 
L 1159 -1331 
L 581 -1331 
L 581 3500 
L 1159 3500 
L 1159 2969 
Q 1341 3281 1617 3432 
Q 1894 3584 2278 3584 
Q 2916 3584 3314 3078 
Q 3713 2572 3713 1747 
Q 3713 922 3314 415 
Q 2916 -91 2278 -91 
Q 1894 -91 1617 61 
Q 1341 213 1159 525 
z
M 3116 1747 
Q 3116 2381 2855 2742 
Q 2594 3103 2138 3103 
Q 1681 3103 1420 2742 
Q 1159 2381 1159 1747 
Q 1159 1113 1420 752 
Q 1681 391 2138 391 
Q 2594 391 2855 752 
Q 3116 1113 3116 1747 
z
" id="DejaVuSans-70" transform="scale(0.015625)"/>
       <path d="M 1959 3097 
Q 1497 3097 1228 2736 
Q 959 2375 959 1747 
Q 959 1119 1226 758 
Q 1494 397 1959 397 
Q 2419 397 2687 759 
Q 2956 1122 2956 1747 
Q 2956 2369 2687 2733 
Q 2419 3097 1959 3097 
z
M 1959 3584 
Q 2709 3584 3137 3096 
Q 3566 2609 3566 1747 
Q 3566 888 3137 398 
Q 2709 -91 1959 -91 
Q 1206 -91 779 398 
Q 353 888 353 1747 
Q 353 2609 779 3096 
Q 1206 3584 1959 3584 
z
" id="DejaVuSans-6f" transform="scale(0.015625)"/>
       <path d="M 3122 3366 
L 3122 2828 
Q 2878 2963 2633 3030 
Q 2388 3097 2138 3097 
Q 1578 3097 1268 2742 
Q 959 2388 959 1747 
Q 959 1106 1268 751 
Q 1578 397 2138 397 
Q 2388 397 2633 464 
Q 2878 531 3122 666 
L 3122 134 
Q 2881 22 2623 -34 
Q 2366 -91 2075 -91 
Q 1284 -91 818 406 
Q 353 903 353 1747 
Q 353 2603 823 3093 
Q 1294 3584 2113 3584 
Q 2378 3584 2631 3529 
Q 2884 3475 3122 3366 
z
" id="DejaVuSans-63" transform="scale(0.015625)"/>
       <path d="M 3513 2113 
L 3513 0 
L 2938 0 
L 2938 2094 
Q 2938 2591 2744 2837 
Q 2550 3084 2163 3084 
Q 1697 3084 1428 2787 
Q 1159 2491 1159 1978 
L 1159 0 
L 581 0 
L 581 4863 
L 1159 4863 
L 1159 2956 
Q 1366 3272 1645 3428 
Q 1925 3584 2291 3584 
Q 2894 3584 3203 3211 
Q 3513 2838 3513 2113 
z
" id="DejaVuSans-68" transform="scale(0.015625)"/>
      </defs>
      <use xlink:href="#DejaVuSans-45"/>
      <use x="63.183594" xlink:href="#DejaVuSans-70"/>
      <use x="126.660156" xlink:href="#DejaVuSans-6f"/>
      <use x="187.841797" xlink:href="#DejaVuSans-63"/>
      <use x="242.822266" xlink:href="#DejaVuSans-68"/>
     </g>
    </g>
   </g>
   <g id="matplotlib.axis_2">
    <g id="ytick_1">
     <g id="line2d_9">
      <defs>
       <path d="M 0 0 
L -3.5 0 
" id="m96338f05e7" style="stroke:#000000;stroke-width:0.8;"/>
      </defs>
      <g>
       <use style="stroke:#000000;stroke-width:0.8;" x="57.6" xlink:href="#m96338f05e7" y="277.427871"/>
      </g>
     </g>
     <g id="text_10">
      <!-- −0.20 -->
      <g transform="translate(19.954687 281.227089)scale(0.1 -0.1)">
       <defs>
        <path d="M 678 2272 
L 4684 2272 
L 4684 1741 
L 678 1741 
L 678 2272 
z
" id="DejaVuSans-2212" transform="scale(0.015625)"/>
        <path d="M 684 794 
L 1344 794 
L 1344 0 
L 684 0 
L 684 794 
z
" id="DejaVuSans-2e" transform="scale(0.015625)"/>
       </defs>
       <use xlink:href="#DejaVuSans-2212"/>
       <use x="83.789062" xlink:href="#DejaVuSans-30"/>
       <use x="147.412109" xlink:href="#DejaVuSans-2e"/>
       <use x="179.199219" xlink:href="#DejaVuSans-32"/>
       <use x="242.822266" xlink:href="#DejaVuSans-30"/>
      </g>
     </g>
    </g>
    <g id="ytick_2">
     <g id="line2d_10">
      <g>
       <use style="stroke:#000000;stroke-width:0.8;" x="57.6" xlink:href="#m96338f05e7" y="221.463928"/>
      </g>
     </g>
     <g id="text_11">
      <!-- −0.15 -->
      <g transform="translate(19.954687 225.263147)scale(0.1 -0.1)">
       <use xlink:href="#DejaVuSans-2212"/>
       <use x="83.789062" xlink:href="#DejaVuSans-30"/>
       <use x="147.412109" xlink:href="#DejaVuSans-2e"/>
       <use x="179.199219" xlink:href="#DejaVuSans-31"/>
       <use x="242.822266" xlink:href="#DejaVuSans-35"/>
      </g>
     </g>
    </g>
    <g id="ytick_3">
     <g id="line2d_11">
      <g>
       <use style="stroke:#000000;stroke-width:0.8;" x="57.6" xlink:href="#m96338f05e7" y="165.499985"/>
      </g>
     </g>
     <g id="text_12">
      <!-- −0.10 -->
      <g transform="translate(19.954687 169.299204)scale(0.1 -0.1)">
       <use xlink:href="#DejaVuSans-2212"/>
       <use x="83.789062" xlink:href="#DejaVuSans-30"/>
       <use x="147.412109" xlink:href="#DejaVuSans-2e"/>
       <use x="179.199219" xlink:href="#DejaVuSans-31"/>
       <use x="242.822266" xlink:href="#DejaVuSans-30"/>
      </g>
     </g>
    </g>
    <g id="ytick_4">
     <g id="line2d_12">
      <g>
       <use style="stroke:#000000;stroke-width:0.8;" x="57.6" xlink:href="#m96338f05e7" y="109.536042"/>
      </g>
     </g>
     <g id="text_13">
      <!-- −0.05 -->
      <g transform="translate(19.954687 113.335261)scale(0.1 -0.1)">
       <use xlink:href="#DejaVuSans-2212"/>
       <use x="83.789062" xlink:href="#DejaVuSans-30"/>
       <use x="147.412109" xlink:href="#DejaVuSans-2e"/>
       <use x="179.199219" xlink:href="#DejaVuSans-30"/>
       <use x="242.822266" xlink:href="#DejaVuSans-35"/>
      </g>
     </g>
    </g>
    <g id="ytick_5">
     <g id="line2d_13">
      <g>
       <use style="stroke:#000000;stroke-width:0.8;" x="57.6" xlink:href="#m96338f05e7" y="53.572099"/>
      </g>
     </g>
     <g id="text_14">
      <!-- 0.00 -->
      <g transform="translate(28.334375 57.371318)scale(0.1 -0.1)">
       <use xlink:href="#DejaVuSans-30"/>
       <use x="63.623047" xlink:href="#DejaVuSans-2e"/>
       <use x="95.410156" xlink:href="#DejaVuSans-30"/>
       <use x="159.033203" xlink:href="#DejaVuSans-30"/>
      </g>
     </g>
    </g>
   </g>
   <g id="line2d_14">
    <path clip-path="url(#pa04fc004eb)" d="M 73.832727 53.568 
L 96.440983 53.762916 
L 100.058303 54.494738 
L 100.962634 54.378957 
L 102.771294 54.650539 
L 103.675624 54.751438 
L 104.579954 54.738938 
L 107.292945 55.674737 
L 109.101605 56.938429 
L 110.005936 58.459479 
L 110.910266 61.072589 
L 111.814596 61.654418 
L 112.718926 60.749499 
L 113.623257 62.148529 
L 114.527587 64.367567 
L 115.431917 65.588177 
L 117.240577 66.196974 
L 118.144908 67.700854 
L 119.049238 70.491331 
L 119.953568 70.807691 
L 120.857898 72.111631 
L 121.762228 74.220186 
L 122.666559 75.767985 
L 123.570889 76.777598 
L 124.475219 77.137766 
L 125.379549 81.221712 
L 126.283879 82.199503 
L 127.18821 84.221211 
L 128.09254 80.750058 
L 128.99687 85.058628 
L 129.9012 87.133605 
L 130.805531 86.926401 
L 131.709861 86.106119 
L 132.614191 89.98066 
L 133.518521 92.162134 
L 134.422851 89.702347 
L 135.327182 94.61267 
L 136.231512 100.164742 
L 137.135842 95.861314 
L 138.040172 98.248914 
L 138.944502 97.925856 
L 139.848833 99.497598 
L 140.753163 99.681481 
L 141.657493 104.580136 
L 142.561823 107.257371 
L 143.466153 107.848008 
L 144.370484 107.635961 
L 145.274814 108.97216 
L 146.179144 108.353138 
L 147.083474 108.753697 
L 147.987805 106.251193 
L 148.892135 111.97791 
L 149.796465 114.987409 
L 150.700795 120.578326 
L 151.605125 117.366725 
L 152.509456 119.323674 
L 153.413786 118.659793 
L 154.318116 120.142388 
L 155.222446 124.771013 
L 156.126776 121.360745 
L 157.031107 125.69341 
L 157.935437 127.385474 
L 158.839767 125.341849 
L 159.744097 130.723833 
L 160.648427 131.846575 
L 161.552758 130.855142 
L 162.457088 137.219741 
L 163.361418 137.023711 
L 164.265748 137.050504 
L 165.170079 141.558771 
L 166.074409 141.350966 
L 166.978739 147.427939 
L 167.883069 137.49267 
L 168.787399 142.150921 
L 169.69173 139.157683 
L 170.59606 139.851686 
L 171.50039 138.476884 
L 172.40472 138.422254 
L 173.30905 136.68695 
L 174.213381 146.245872 
L 175.117711 141.481723 
L 176.022041 150.78466 
L 176.926371 147.850865 
L 177.830701 147.601159 
L 178.735032 156.69076 
L 179.639362 156.306684 
L 180.543692 154.582215 
L 181.448022 160.259985 
L 182.352352 159.628296 
L 183.256683 164.67913 
L 184.161013 160.24953 
L 185.065343 164.116491 
L 185.969673 164.097344 
L 186.874004 171.050427 
L 187.778334 168.303512 
L 188.682664 173.950438 
L 189.586994 176.140614 
L 190.491324 169.845813 
L 191.395655 172.9159 
L 192.299985 181.392046 
L 193.204315 182.20374 
L 194.108645 183.679708 
L 195.012975 180.27738 
L 195.917306 184.667752 
L 197.725966 190.621224 
L 198.630296 186.695149 
L 199.534626 187.862798 
L 200.438957 193.571115 
L 201.343287 187.943035 
L 202.247617 198.337389 
L 203.151947 190.79769 
L 204.056278 190.705478 
L 204.960608 198.524554 
L 206.769268 198.836746 
L 207.673598 193.801103 
L 208.577929 199.323116 
L 209.482259 206.406035 
L 210.386589 194.548161 
L 211.290919 197.062425 
L 212.195249 208.297732 
L 213.09958 206.652357 
L 214.00391 203.671484 
L 214.90824 201.674105 
L 215.81257 205.462106 
L 216.7169 207.445133 
L 217.621231 206.502089 
L 218.525561 212.576996 
L 219.429891 200.579448 
L 220.334221 210.888789 
L 221.238552 208.329887 
L 222.142882 210.831021 
L 223.047212 208.130672 
L 223.951542 206.154335 
L 224.855872 218.241004 
L 225.760203 219.6039 
L 226.664533 214.179095 
L 227.568863 215.948235 
L 228.473193 216.164109 
L 229.377523 213.451683 
L 230.281854 210.247915 
L 231.186184 216.699648 
L 232.090514 214.480273 
L 232.994844 220.87637 
L 233.899174 219.909603 
L 234.803505 221.782588 
L 235.707835 214.58109 
L 236.612165 223.278938 
L 237.516495 213.607822 
L 238.420826 220.064204 
L 239.325156 219.661106 
L 240.229486 221.177731 
L 241.133816 226.395213 
L 242.038146 220.610548 
L 242.942477 226.612478 
L 243.846807 218.523677 
L 244.751137 218.429564 
L 245.655467 218.843968 
L 246.559797 218.166108 
L 247.464128 221.619619 
L 248.368458 226.493203 
L 249.272788 223.079276 
L 250.177118 222.31094 
L 251.081448 225.685419 
L 251.985779 240.651043 
L 253.794439 226.189239 
L 254.698769 227.491049 
L 255.6031 225.885234 
L 256.50743 226.125135 
L 257.41176 223.654306 
L 258.31609 221.529372 
L 259.22042 229.818186 
L 260.124751 221.923845 
L 261.029081 223.446833 
L 261.933411 229.207973 
L 262.837741 230.208215 
L 263.742071 226.66028 
L 264.646402 227.512721 
L 265.550732 237.106481 
L 266.455062 230.992322 
L 267.359392 236.100044 
L 268.263722 228.567853 
L 269.168053 231.88085 
L 270.072383 238.922351 
L 270.976713 232.806584 
L 271.881043 228.352862 
L 272.785374 241.726697 
L 273.689704 237.690726 
L 274.594034 241.405299 
L 275.498364 237.322703 
L 276.402694 245.359966 
L 277.307025 239.89664 
L 279.115685 236.078792 
L 280.020015 236.477724 
L 280.924345 241.791655 
L 281.828676 241.290791 
L 282.733006 239.585229 
L 283.637336 250.68981 
L 284.541666 236.607971 
L 285.445996 233.6214 
L 286.350327 240.561637 
L 287.254657 238.686736 
L 288.158987 243.580431 
L 289.063317 246.934852 
L 289.967648 238.093149 
L 290.871978 246.491304 
L 291.776308 241.852913 
L 292.680638 240.861706 
L 293.584968 243.12458 
L 294.489299 236.74629 
L 295.393629 247.573744 
L 296.297959 238.640948 
L 297.202289 238.626621 
L 298.106619 248.242422 
L 299.01095 249.384873 
L 299.91528 246.717459 
L 300.81961 248.883813 
L 301.72394 241.321901 
L 302.62827 244.808234 
L 303.532601 247.353232 
L 304.436931 247.847692 
L 305.341261 246.302453 
L 306.245591 248.095038 
L 307.149921 240.714804 
L 308.054252 239.871871 
L 308.958582 239.423888 
L 309.862912 239.876512 
L 310.767242 237.531069 
L 311.671573 249.714821 
L 312.575903 245.983529 
L 313.480233 250.187396 
L 314.384563 241.963251 
L 315.288893 251.664318 
L 316.193224 250.17749 
L 317.097554 243.179468 
L 318.001884 249.044411 
L 318.906214 254.178323 
L 319.810544 243.556532 
L 320.714875 244.675971 
L 321.619205 249.667681 
L 322.523535 252.477951 
L 323.427865 251.899299 
L 324.332195 250.187989 
L 325.236526 254.434062 
L 326.140856 248.155851 
L 327.045186 254.706741 
L 327.949516 248.214154 
L 328.853847 254.020168 
L 329.758177 247.022522 
L 330.662507 256.181511 
L 331.566837 253.666087 
L 332.471167 256.942419 
L 333.375498 252.558297 
L 334.279828 251.995498 
L 335.184158 255.915895 
L 336.088488 247.949931 
L 336.992818 253.69399 
L 337.897149 254.980547 
L 338.801479 258.951731 
L 339.705809 253.818029 
L 340.610139 247.071058 
L 341.514469 258.052781 
L 342.4188 241.701014 
L 343.32313 252.924234 
L 344.22746 249.847997 
L 345.13179 259.200961 
L 346.036121 258.677089 
L 346.940451 254.828747 
L 347.844781 263.103079 
L 348.749111 257.821833 
L 349.653441 255.364888 
L 350.557772 247.316207 
L 351.462102 264.145939 
L 352.366432 257.635022 
L 353.270762 255.947899 
L 354.175092 260.804824 
L 355.983753 250.130731 
L 356.888083 259.181033 
L 357.792413 259.196216 
L 358.696743 254.5934 
L 359.601074 259.315845 
L 360.505404 261.721803 
L 361.409734 263.652499 
L 362.314064 261.124508 
L 363.218395 251.721102 
L 364.122725 260.912241 
L 365.027055 256.075012 
L 365.931385 252.127812 
L 366.835715 257.431481 
L 367.740046 269.386396 
L 368.644376 264.465368 
L 369.548706 266.436519 
L 370.453036 258.072869 
L 371.357366 259.314103 
L 372.261697 258.340985 
L 373.166027 263.925778 
L 374.070357 253.481168 
L 374.974687 260.965189 
L 375.879017 255.562705 
L 376.783348 256.582214 
L 377.687678 262.47308 
L 378.592008 260.610424 
L 379.496338 257.406406 
L 380.400669 260.052795 
L 381.304999 264.122978 
L 382.209329 267.064259 
L 383.113659 264.83837 
L 384.017989 258.239085 
L 384.92232 259.912097 
L 385.82665 258.973637 
L 386.73098 261.029958 
L 387.63531 258.502213 
L 388.53964 262.860059 
L 389.443971 271.209518 
L 390.348301 258.486292 
L 391.252631 263.760343 
L 392.156961 259.200169 
L 393.061291 265.1567 
L 393.965622 266.44691 
L 394.869952 255.68159 
L 395.774282 261.582588 
L 396.678612 259.497179 
L 397.582943 268.028942 
L 398.487273 258.418532 
L 398.487273 258.418532 
" style="fill:none;stroke:#1f77b4;stroke-linecap:square;stroke-width:1.5;"/>
   </g>
   <g id="line2d_15">
    <path clip-path="url(#pa04fc004eb)" d="M 73.832727 53.605611 
L 77.450048 53.572446 
L 93.727992 53.668337 
L 96.440983 53.836821 
L 97.345313 53.874482 
L 99.153973 54.47719 
L 100.058303 54.477988 
L 100.962634 54.659377 
L 101.866964 54.407104 
L 102.771294 54.915438 
L 103.675624 54.63642 
L 104.579954 55.362661 
L 105.484285 55.092677 
L 106.388615 55.754483 
L 107.292945 55.640211 
L 108.197275 56.21026 
L 109.101605 56.460849 
L 110.005936 59.306081 
L 110.910266 60.453365 
L 111.814596 60.197626 
L 112.718926 60.248386 
L 114.527587 67.100074 
L 115.431917 66.145737 
L 117.240577 67.910118 
L 118.144908 69.618808 
L 119.049238 72.670739 
L 119.953568 68.678687 
L 120.857898 73.861105 
L 122.666559 76.359005 
L 123.570889 74.579173 
L 124.475219 76.453437 
L 125.379549 80.734534 
L 126.283879 76.097443 
L 127.18821 77.257847 
L 128.09254 83.162973 
L 128.99687 83.917139 
L 129.9012 90.115914 
L 130.805531 84.041798 
L 131.709861 99.831586 
L 132.614191 85.729982 
L 133.518521 88.82038 
L 134.422851 88.584022 
L 135.327182 99.598201 
L 136.231512 104.378404 
L 137.135842 95.264581 
L 138.040172 107.61649 
L 138.944502 94.63772 
L 139.848833 94.090849 
L 140.753163 107.27467 
L 141.657493 100.474881 
L 142.561823 114.129931 
L 143.466153 99.931165 
L 144.370484 113.291913 
L 145.274814 100.81552 
L 146.179144 108.572594 
L 147.083474 98.018783 
L 147.987805 109.491841 
L 148.892135 116.112487 
L 149.796465 116.002848 
L 150.700795 117.228569 
L 151.605125 133.678118 
L 152.509456 119.241901 
L 153.413786 130.043062 
L 154.318116 108.124567 
L 155.222446 118.788613 
L 156.126776 137.540407 
L 157.031107 142.179879 
L 158.839767 112.843384 
L 159.744097 117.068429 
L 160.648427 125.86879 
L 161.552758 118.193198 
L 162.457088 151.226946 
L 163.361418 133.792221 
L 164.265748 137.108434 
L 165.170079 146.865121 
L 166.074409 148.004966 
L 166.978739 135.811597 
L 167.883069 141.146884 
L 168.787399 147.609898 
L 169.69173 142.406359 
L 170.59606 127.821514 
L 171.50039 137.251279 
L 172.40472 132.844638 
L 173.30905 142.21754 
L 174.213381 146.881797 
L 175.117711 145.645201 
L 176.022041 155.072404 
L 176.926371 147.895253 
L 177.830701 151.618091 
L 178.735032 168.402884 
L 179.639362 160.892624 
L 180.543692 169.422182 
L 181.448022 139.963479 
L 182.352352 136.930785 
L 183.256683 167.091514 
L 184.161013 148.22001 
L 185.065343 145.806837 
L 186.874004 171.009935 
L 187.778334 167.636953 
L 188.682664 182.580063 
L 189.586994 174.977912 
L 190.491324 182.941419 
L 191.395655 184.534794 
L 192.299985 190.442817 
L 193.204315 171.589982 
L 194.108645 178.714966 
L 195.012975 167.722384 
L 195.917306 179.777895 
L 196.821636 178.898073 
L 197.725966 191.741742 
L 198.630296 181.498685 
L 199.534626 184.946501 
L 201.343287 186.941217 
L 202.247617 190.091334 
L 203.151947 182.59372 
L 204.056278 182.596774 
L 204.960608 202.948577 
L 206.769268 208.120508 
L 207.673598 178.606412 
L 208.577929 195.341556 
L 209.482259 184.691712 
L 210.386589 193.96093 
L 211.290919 200.957052 
L 212.195249 200.597579 
L 213.09958 195.29488 
L 214.00391 211.239079 
L 214.90824 201.97246 
L 215.81257 206.30739 
L 216.7169 197.711516 
L 217.621231 203.014129 
L 218.525561 202.041269 
L 219.429891 209.480673 
L 220.334221 208.419915 
L 221.238552 214.358082 
L 223.951542 200.592032 
L 224.855872 216.530158 
L 225.760203 186.686026 
L 226.664533 237.66093 
L 227.568863 218.521587 
L 228.473193 218.262752 
L 229.377523 195.849069 
L 230.281854 200.150481 
L 231.186184 191.201759 
L 232.090514 201.622501 
L 232.994844 221.31199 
L 233.899174 217.406652 
L 234.803505 222.240445 
L 235.707835 218.226827 
L 236.612165 228.37658 
L 237.516495 204.536914 
L 238.420826 213.040704 
L 239.325156 230.76119 
L 240.229486 215.22763 
L 241.133816 224.089212 
L 242.038146 218.635209 
L 242.942477 223.721452 
L 243.846807 206.160818 
L 244.751137 224.923888 
L 245.655467 217.939043 
L 246.559797 216.0416 
L 247.464128 217.956146 
L 248.368458 221.781857 
L 249.272788 226.285007 
L 250.177118 224.63317 
L 251.081448 215.236979 
L 251.985779 228.038002 
L 252.890109 222.523699 
L 253.794439 233.767355 
L 254.698769 212.674792 
L 255.6031 228.492367 
L 256.50743 219.237303 
L 257.41176 233.329117 
L 258.31609 229.508345 
L 259.22042 227.628715 
L 260.124751 235.466037 
L 261.029081 227.279878 
L 261.933411 232.578175 
L 262.837741 223.581506 
L 264.646402 215.386948 
L 265.550732 242.488615 
L 266.455062 221.317461 
L 267.359392 211.240689 
L 268.263722 233.080875 
L 269.168053 230.130211 
L 270.072383 234.553831 
L 270.976713 229.544517 
L 271.881043 249.004735 
L 272.785374 222.636341 
L 273.689704 244.274059 
L 274.594034 230.377015 
L 275.498364 232.312231 
L 276.402694 237.143142 
L 277.307025 229.891691 
L 278.211355 239.88243 
L 279.115685 240.846589 
L 280.020015 234.552396 
L 280.924345 245.344382 
L 281.828676 243.609184 
L 282.733006 227.604974 
L 283.637336 240.790184 
L 284.541666 256.306087 
L 285.445996 241.366378 
L 286.350327 232.139362 
L 287.254657 245.397626 
L 288.158987 236.489104 
L 289.063317 237.666954 
L 289.967648 221.613382 
L 290.871978 251.227582 
L 291.776308 263.372698 
L 292.680638 260.269858 
L 293.584968 234.870688 
L 294.489299 234.246706 
L 295.393629 258.502256 
L 296.297959 255.880177 
L 297.202289 241.145319 
L 298.106619 242.491824 
L 299.01095 243.168911 
L 299.91528 222.823914 
L 300.81961 254.588621 
L 301.72394 238.205743 
L 302.62827 248.111534 
L 303.532601 249.265925 
L 304.436931 251.362743 
L 305.341261 239.253214 
L 306.245591 249.386323 
L 307.149921 260.936718 
L 308.054252 247.083028 
L 308.958582 253.039136 
L 309.862912 253.369735 
L 310.767242 252.036667 
L 311.671573 260.422836 
L 312.575903 246.1233 
L 313.480233 247.49863 
L 314.384563 249.492992 
L 315.288893 244.340662 
L 317.097554 253.247456 
L 318.001884 265.237492 
L 318.906214 245.320855 
L 319.810544 232.723503 
L 320.714875 241.25422 
L 321.619205 238.521034 
L 322.523535 251.515456 
L 323.427865 249.402012 
L 324.332195 236.810519 
L 325.236526 254.062565 
L 326.140856 252.71434 
L 327.045186 252.056263 
L 327.949516 237.314952 
L 328.853847 244.92828 
L 329.758177 280.44197 
L 330.662507 242.145387 
L 331.566837 249.441008 
L 332.471167 268.200816 
L 333.375498 295.488 
L 334.279828 246.156717 
L 335.184158 254.001141 
L 336.088488 243.373322 
L 336.992818 248.610726 
L 337.897149 247.351783 
L 338.801479 271.655876 
L 339.705809 233.211068 
L 340.610139 241.931968 
L 341.514469 252.156039 
L 342.4188 256.193494 
L 343.32313 241.278477 
L 344.22746 259.205296 
L 345.13179 249.757827 
L 346.940451 245.571829 
L 347.844781 256.839154 
L 348.749111 266.621296 
L 349.653441 247.83904 
L 350.557772 253.854959 
L 351.462102 238.104964 
L 352.366432 256.254642 
L 353.270762 259.061322 
L 354.175092 254.756161 
L 355.079423 256.670171 
L 355.983753 266.109729 
L 356.888083 265.858559 
L 357.792413 280.565406 
L 358.696743 262.692172 
L 359.601074 236.056703 
L 360.505404 259.113604 
L 361.409734 251.571609 
L 362.314064 282.946138 
L 363.218395 259.59231 
L 364.122725 249.346558 
L 365.027055 260.570249 
L 365.931385 240.92627 
L 366.835715 258.20893 
L 367.740046 261.250028 
L 368.644376 246.831455 
L 369.548706 260.692301 
L 370.453036 253.819318 
L 371.357366 282.121895 
L 372.261697 269.674841 
L 373.166027 278.211794 
L 374.070357 250.53183 
L 374.974687 260.664201 
L 375.879017 259.428529 
L 376.783348 247.194708 
L 377.687678 253.324685 
L 378.592008 260.24195 
L 379.496338 261.67584 
L 380.400669 230.44767 
L 381.304999 251.807416 
L 382.209329 258.889433 
L 383.113659 267.172271 
L 384.017989 260.826407 
L 384.92232 260.29847 
L 385.82665 243.024255 
L 387.63531 272.42303 
L 388.53964 281.348304 
L 389.443971 251.118635 
L 390.348301 253.865265 
L 391.252631 246.930594 
L 392.156961 271.977603 
L 393.061291 275.912315 
L 393.965622 241.805713 
L 394.869952 270.629444 
L 395.774282 245.395737 
L 396.678612 245.504319 
L 397.582943 273.095884 
L 398.487273 284.753454 
L 398.487273 284.753454 
" style="fill:none;stroke:#ff7f0e;stroke-linecap:square;stroke-width:1.5;"/>
   </g>
   <g id="patch_3">
    <path d="M 57.6 307.584 
L 57.6 41.472 
" style="fill:none;stroke:#000000;stroke-linecap:square;stroke-linejoin:miter;stroke-width:0.8;"/>
   </g>
   <g id="patch_4">
    <path d="M 414.72 307.584 
L 414.72 41.472 
" style="fill:none;stroke:#000000;stroke-linecap:square;stroke-linejoin:miter;stroke-width:0.8;"/>
   </g>
   <g id="patch_5">
    <path d="M 57.6 307.584 
L 414.72 307.584 
" style="fill:none;stroke:#000000;stroke-linecap:square;stroke-linejoin:miter;stroke-width:0.8;"/>
   </g>
   <g id="patch_6">
    <path d="M 57.6 41.472 
L 414.72 41.472 
" style="fill:none;stroke:#000000;stroke-linecap:square;stroke-linejoin:miter;stroke-width:0.8;"/>
   </g>
   <g id="legend_1">
    <g id="patch_7">
     <path d="M 303.845 78.82825 
L 407.72 78.82825 
Q 409.72 78.82825 409.72 76.82825 
L 409.72 48.472 
Q 409.72 46.472 407.72 46.472 
L 303.845 46.472 
Q 301.845 46.472 301.845 48.472 
L 301.845 76.82825 
Q 301.845 78.82825 303.845 78.82825 
z
" style="fill:#ffffff;opacity:0.8;stroke:#cccccc;stroke-linejoin:miter;"/>
    </g>
    <g id="line2d_16">
     <path d="M 305.845 54.570437 
L 325.845 54.570437 
" style="fill:none;stroke:#1f77b4;stroke-linecap:square;stroke-width:1.5;"/>
    </g>
    <g id="line2d_17"/>
    <g id="text_15">
     <!-- Train loss -->
     <g transform="translate(333.845 58.070437)scale(0.1 -0.1)">
      <defs>
       <path d="M -19 4666 
L 3928 4666 
L 3928 4134 
L 2272 4134 
L 2272 0 
L 1638 0 
L 1638 4134 
L -19 4134 
L -19 4666 
z
" id="DejaVuSans-54" transform="scale(0.015625)"/>
       <path d="M 2631 2963 
Q 2534 3019 2420 3045 
Q 2306 3072 2169 3072 
Q 1681 3072 1420 2755 
Q 1159 2438 1159 1844 
L 1159 0 
L 581 0 
L 581 3500 
L 1159 3500 
L 1159 2956 
Q 1341 3275 1631 3429 
Q 1922 3584 2338 3584 
Q 2397 3584 2469 3576 
Q 2541 3569 2628 3553 
L 2631 2963 
z
" id="DejaVuSans-72" transform="scale(0.015625)"/>
       <path d="M 2194 1759 
Q 1497 1759 1228 1600 
Q 959 1441 959 1056 
Q 959 750 1161 570 
Q 1363 391 1709 391 
Q 2188 391 2477 730 
Q 2766 1069 2766 1631 
L 2766 1759 
L 2194 1759 
z
M 3341 1997 
L 3341 0 
L 2766 0 
L 2766 531 
Q 2569 213 2275 61 
Q 1981 -91 1556 -91 
Q 1019 -91 701 211 
Q 384 513 384 1019 
Q 384 1609 779 1909 
Q 1175 2209 1959 2209 
L 2766 2209 
L 2766 2266 
Q 2766 2663 2505 2880 
Q 2244 3097 1772 3097 
Q 1472 3097 1187 3025 
Q 903 2953 641 2809 
L 641 3341 
Q 956 3463 1253 3523 
Q 1550 3584 1831 3584 
Q 2591 3584 2966 3190 
Q 3341 2797 3341 1997 
z
" id="DejaVuSans-61" transform="scale(0.015625)"/>
       <path d="M 603 3500 
L 1178 3500 
L 1178 0 
L 603 0 
L 603 3500 
z
M 603 4863 
L 1178 4863 
L 1178 4134 
L 603 4134 
L 603 4863 
z
" id="DejaVuSans-69" transform="scale(0.015625)"/>
       <path d="M 3513 2113 
L 3513 0 
L 2938 0 
L 2938 2094 
Q 2938 2591 2744 2837 
Q 2550 3084 2163 3084 
Q 1697 3084 1428 2787 
Q 1159 2491 1159 1978 
L 1159 0 
L 581 0 
L 581 3500 
L 1159 3500 
L 1159 2956 
Q 1366 3272 1645 3428 
Q 1925 3584 2291 3584 
Q 2894 3584 3203 3211 
Q 3513 2838 3513 2113 
z
" id="DejaVuSans-6e" transform="scale(0.015625)"/>
       <path id="DejaVuSans-20" transform="scale(0.015625)"/>
       <path d="M 603 4863 
L 1178 4863 
L 1178 0 
L 603 0 
L 603 4863 
z
" id="DejaVuSans-6c" transform="scale(0.015625)"/>
       <path d="M 2834 3397 
L 2834 2853 
Q 2591 2978 2328 3040 
Q 2066 3103 1784 3103 
Q 1356 3103 1142 2972 
Q 928 2841 928 2578 
Q 928 2378 1081 2264 
Q 1234 2150 1697 2047 
L 1894 2003 
Q 2506 1872 2764 1633 
Q 3022 1394 3022 966 
Q 3022 478 2636 193 
Q 2250 -91 1575 -91 
Q 1294 -91 989 -36 
Q 684 19 347 128 
L 347 722 
Q 666 556 975 473 
Q 1284 391 1588 391 
Q 1994 391 2212 530 
Q 2431 669 2431 922 
Q 2431 1156 2273 1281 
Q 2116 1406 1581 1522 
L 1381 1569 
Q 847 1681 609 1914 
Q 372 2147 372 2553 
Q 372 3047 722 3315 
Q 1072 3584 1716 3584 
Q 2034 3584 2315 3537 
Q 2597 3491 2834 3397 
z
" id="DejaVuSans-73" transform="scale(0.015625)"/>
      </defs>
      <use xlink:href="#DejaVuSans-54"/>
      <use x="46.333984" xlink:href="#DejaVuSans-72"/>
      <use x="87.447266" xlink:href="#DejaVuSans-61"/>
      <use x="148.726562" xlink:href="#DejaVuSans-69"/>
      <use x="176.509766" xlink:href="#DejaVuSans-6e"/>
      <use x="239.888672" xlink:href="#DejaVuSans-20"/>
      <use x="271.675781" xlink:href="#DejaVuSans-6c"/>
      <use x="299.458984" xlink:href="#DejaVuSans-6f"/>
      <use x="360.640625" xlink:href="#DejaVuSans-73"/>
      <use x="412.740234" xlink:href="#DejaVuSans-73"/>
     </g>
    </g>
    <g id="line2d_18">
     <path d="M 305.845 69.248562 
L 325.845 69.248562 
" style="fill:none;stroke:#ff7f0e;stroke-linecap:square;stroke-width:1.5;"/>
    </g>
    <g id="line2d_19"/>
    <g id="text_16">
     <!-- Validation loss -->
     <g transform="translate(333.845 72.748562)scale(0.1 -0.1)">
      <defs>
       <path d="M 1831 0 
L 50 4666 
L 709 4666 
L 2188 738 
L 3669 4666 
L 4325 4666 
L 2547 0 
L 1831 0 
z
" id="DejaVuSans-56" transform="scale(0.015625)"/>
       <path d="M 2906 2969 
L 2906 4863 
L 3481 4863 
L 3481 0 
L 2906 0 
L 2906 525 
Q 2725 213 2448 61 
Q 2172 -91 1784 -91 
Q 1150 -91 751 415 
Q 353 922 353 1747 
Q 353 2572 751 3078 
Q 1150 3584 1784 3584 
Q 2172 3584 2448 3432 
Q 2725 3281 2906 2969 
z
M 947 1747 
Q 947 1113 1208 752 
Q 1469 391 1925 391 
Q 2381 391 2643 752 
Q 2906 1113 2906 1747 
Q 2906 2381 2643 2742 
Q 2381 3103 1925 3103 
Q 1469 3103 1208 2742 
Q 947 2381 947 1747 
z
" id="DejaVuSans-64" transform="scale(0.015625)"/>
       <path d="M 1172 4494 
L 1172 3500 
L 2356 3500 
L 2356 3053 
L 1172 3053 
L 1172 1153 
Q 1172 725 1289 603 
Q 1406 481 1766 481 
L 2356 481 
L 2356 0 
L 1766 0 
Q 1100 0 847 248 
Q 594 497 594 1153 
L 594 3053 
L 172 3053 
L 172 3500 
L 594 3500 
L 594 4494 
L 1172 4494 
z
" id="DejaVuSans-74" transform="scale(0.015625)"/>
      </defs>
      <use xlink:href="#DejaVuSans-56"/>
      <use x="60.658203" xlink:href="#DejaVuSans-61"/>
      <use x="121.9375" xlink:href="#DejaVuSans-6c"/>
      <use x="149.720703" xlink:href="#DejaVuSans-69"/>
      <use x="177.503906" xlink:href="#DejaVuSans-64"/>
      <use x="240.980469" xlink:href="#DejaVuSans-61"/>
      <use x="302.259766" xlink:href="#DejaVuSans-74"/>
      <use x="341.46875" xlink:href="#DejaVuSans-69"/>
      <use x="369.251953" xlink:href="#DejaVuSans-6f"/>
      <use x="430.433594" xlink:href="#DejaVuSans-6e"/>
      <use x="493.8125" xlink:href="#DejaVuSans-20"/>
      <use x="525.599609" xlink:href="#DejaVuSans-6c"/>
      <use x="553.382812" xlink:href="#DejaVuSans-6f"/>
      <use x="614.564453" xlink:href="#DejaVuSans-73"/>
      <use x="666.664062" xlink:href="#DejaVuSans-73"/>
     </g>
    </g>
   </g>
  </g>
 </g>
 <defs>
  <clipPath id="pa04fc004eb">
   <rect height="266.112" width="357.12" x="57.6" y="41.472"/>
  </clipPath>
 </defs>
</svg>
