<?xml version="1.0" encoding="utf-8" standalone="no"?>
<!DOCTYPE svg PUBLIC "-//W3C//DTD SVG 1.1//EN"
  "http://www.w3.org/Graphics/SVG/1.1/DTD/svg11.dtd">
<svg height="345.6pt" version="1.1" viewBox="0 0 460.8 345.6" width="460.8pt" xmlns="http://www.w3.org/2000/svg" xmlns:xlink="http://www.w3.org/1999/xlink">
 <metadata>
  <rdf:RDF xmlns:cc="http://creativecommons.org/ns#" xmlns:dc="http://purl.org/dc/elements/1.1/" xmlns:rdf="http://www.w3.org/1999/02/22-rdf-syntax-ns#">
   <cc:Work>
    <dc:type rdf:resource="http://purl.org/dc/dcmitype/StillImage"/>
    <dc:date>2021-07-29T08:20:04.114746</dc:date>
    <dc:format>image/svg+xml</dc:format>
    <dc:creator>
     <cc:Agent>
      <dc:title>Matplotlib v3.4.2, https://matplotlib.org/</dc:title>
     </cc:Agent>
    </dc:creator>
   </cc:Work>
  </rdf:RDF>
 </metadata>
 <defs>
  <style type="text/css">*{stroke-linecap:butt;stroke-linejoin:round;}</style>
 </defs>
 <g id="figure_1">
  <g id="patch_1">
   <path d="M 0 345.6 
L 460.8 345.6 
L 460.8 0 
L 0 0 
z
" style="fill:#ffffff;"/>
  </g>
  <g id="axes_1">
   <g id="patch_2">
    <path d="M 57.6 307.584 
L 414.72 307.584 
L 414.72 41.472 
L 57.6 41.472 
z
" style="fill:#ffffff;"/>
   </g>
   <g id="matplotlib.axis_1">
    <g id="xtick_1">
     <g id="line2d_1">
      <defs>
       <path d="M 0 0 
L 0 3.5 
" id="mbdcf88170f" style="stroke:#000000;stroke-width:0.8;"/>
      </defs>
      <g>
       <use style="stroke:#000000;stroke-width:0.8;" x="72.350286" xlink:href="#mbdcf88170f" y="307.584"/>
      </g>
     </g>
     <g id="text_1">
      <!-- 0 -->
      <g transform="translate(69.169036 322.182437)scale(0.1 -0.1)">
       <defs>
        <path d="M 2034 4250 
Q 1547 4250 1301 3770 
Q 1056 3291 1056 2328 
Q 1056 1369 1301 889 
Q 1547 409 2034 409 
Q 2525 409 2770 889 
Q 3016 1369 3016 2328 
Q 3016 3291 2770 3770 
Q 2525 4250 2034 4250 
z
M 2034 4750 
Q 2819 4750 3233 4129 
Q 3647 3509 3647 2328 
Q 3647 1150 3233 529 
Q 2819 -91 2034 -91 
Q 1250 -91 836 529 
Q 422 1150 422 2328 
Q 422 3509 836 4129 
Q 1250 4750 2034 4750 
z
" id="DejaVuSans-30" transform="scale(0.015625)"/>
       </defs>
       <use xlink:href="#DejaVuSans-30"/>
      </g>
     </g>
    </g>
    <g id="xtick_2">
     <g id="line2d_2">
      <g>
       <use style="stroke:#000000;stroke-width:0.8;" x="146.472329" xlink:href="#mbdcf88170f" y="307.584"/>
      </g>
     </g>
     <g id="text_2">
      <!-- 50 -->
      <g transform="translate(140.109829 322.182437)scale(0.1 -0.1)">
       <defs>
        <path d="M 691 4666 
L 3169 4666 
L 3169 4134 
L 1269 4134 
L 1269 2991 
Q 1406 3038 1543 3061 
Q 1681 3084 1819 3084 
Q 2600 3084 3056 2656 
Q 3513 2228 3513 1497 
Q 3513 744 3044 326 
Q 2575 -91 1722 -91 
Q 1428 -91 1123 -41 
Q 819 9 494 109 
L 494 744 
Q 775 591 1075 516 
Q 1375 441 1709 441 
Q 2250 441 2565 725 
Q 2881 1009 2881 1497 
Q 2881 1984 2565 2268 
Q 2250 2553 1709 2553 
Q 1456 2553 1204 2497 
Q 953 2441 691 2322 
L 691 4666 
z
" id="DejaVuSans-35" transform="scale(0.015625)"/>
       </defs>
       <use xlink:href="#DejaVuSans-35"/>
       <use x="63.623047" xlink:href="#DejaVuSans-30"/>
      </g>
     </g>
    </g>
    <g id="xtick_3">
     <g id="line2d_3">
      <g>
       <use style="stroke:#000000;stroke-width:0.8;" x="220.594371" xlink:href="#mbdcf88170f" y="307.584"/>
      </g>
     </g>
     <g id="text_3">
      <!-- 100 -->
      <g transform="translate(211.050621 322.182437)scale(0.1 -0.1)">
       <defs>
        <path d="M 794 531 
L 1825 531 
L 1825 4091 
L 703 3866 
L 703 4441 
L 1819 4666 
L 2450 4666 
L 2450 531 
L 3481 531 
L 3481 0 
L 794 0 
L 794 531 
z
" id="DejaVuSans-31" transform="scale(0.015625)"/>
       </defs>
       <use xlink:href="#DejaVuSans-31"/>
       <use x="63.623047" xlink:href="#DejaVuSans-30"/>
       <use x="127.246094" xlink:href="#DejaVuSans-30"/>
      </g>
     </g>
    </g>
    <g id="xtick_4">
     <g id="line2d_4">
      <g>
       <use style="stroke:#000000;stroke-width:0.8;" x="294.716413" xlink:href="#mbdcf88170f" y="307.584"/>
      </g>
     </g>
     <g id="text_4">
      <!-- 150 -->
      <g transform="translate(285.172663 322.182437)scale(0.1 -0.1)">
       <use xlink:href="#DejaVuSans-31"/>
       <use x="63.623047" xlink:href="#DejaVuSans-35"/>
       <use x="127.246094" xlink:href="#DejaVuSans-30"/>
      </g>
     </g>
    </g>
    <g id="xtick_5">
     <g id="line2d_5">
      <g>
       <use style="stroke:#000000;stroke-width:0.8;" x="368.838456" xlink:href="#mbdcf88170f" y="307.584"/>
      </g>
     </g>
     <g id="text_5">
      <!-- 200 -->
      <g transform="translate(359.294706 322.182437)scale(0.1 -0.1)">
       <defs>
        <path d="M 1228 531 
L 3431 531 
L 3431 0 
L 469 0 
L 469 531 
Q 828 903 1448 1529 
Q 2069 2156 2228 2338 
Q 2531 2678 2651 2914 
Q 2772 3150 2772 3378 
Q 2772 3750 2511 3984 
Q 2250 4219 1831 4219 
Q 1534 4219 1204 4116 
Q 875 4013 500 3803 
L 500 4441 
Q 881 4594 1212 4672 
Q 1544 4750 1819 4750 
Q 2544 4750 2975 4387 
Q 3406 4025 3406 3419 
Q 3406 3131 3298 2873 
Q 3191 2616 2906 2266 
Q 2828 2175 2409 1742 
Q 1991 1309 1228 531 
z
" id="DejaVuSans-32" transform="scale(0.015625)"/>
       </defs>
       <use xlink:href="#DejaVuSans-32"/>
       <use x="63.623047" xlink:href="#DejaVuSans-30"/>
       <use x="127.246094" xlink:href="#DejaVuSans-30"/>
      </g>
     </g>
    </g>
    <g id="text_6">
     <!-- Epoch -->
     <g transform="translate(213.193594 339.659781)scale(0.15 -0.15)">
      <defs>
       <path d="M 628 4666 
L 3578 4666 
L 3578 4134 
L 1259 4134 
L 1259 2753 
L 3481 2753 
L 3481 2222 
L 1259 2222 
L 1259 531 
L 3634 531 
L 3634 0 
L 628 0 
L 628 4666 
z
" id="DejaVuSans-45" transform="scale(0.015625)"/>
       <path d="M 1159 525 
L 1159 -1331 
L 581 -1331 
L 581 3500 
L 1159 3500 
L 1159 2969 
Q 1341 3281 1617 3432 
Q 1894 3584 2278 3584 
Q 2916 3584 3314 3078 
Q 3713 2572 3713 1747 
Q 3713 922 3314 415 
Q 2916 -91 2278 -91 
Q 1894 -91 1617 61 
Q 1341 213 1159 525 
z
M 3116 1747 
Q 3116 2381 2855 2742 
Q 2594 3103 2138 3103 
Q 1681 3103 1420 2742 
Q 1159 2381 1159 1747 
Q 1159 1113 1420 752 
Q 1681 391 2138 391 
Q 2594 391 2855 752 
Q 3116 1113 3116 1747 
z
" id="DejaVuSans-70" transform="scale(0.015625)"/>
       <path d="M 1959 3097 
Q 1497 3097 1228 2736 
Q 959 2375 959 1747 
Q 959 1119 1226 758 
Q 1494 397 1959 397 
Q 2419 397 2687 759 
Q 2956 1122 2956 1747 
Q 2956 2369 2687 2733 
Q 2419 3097 1959 3097 
z
M 1959 3584 
Q 2709 3584 3137 3096 
Q 3566 2609 3566 1747 
Q 3566 888 3137 398 
Q 2709 -91 1959 -91 
Q 1206 -91 779 398 
Q 353 888 353 1747 
Q 353 2609 779 3096 
Q 1206 3584 1959 3584 
z
" id="DejaVuSans-6f" transform="scale(0.015625)"/>
       <path d="M 3122 3366 
L 3122 2828 
Q 2878 2963 2633 3030 
Q 2388 3097 2138 3097 
Q 1578 3097 1268 2742 
Q 959 2388 959 1747 
Q 959 1106 1268 751 
Q 1578 397 2138 397 
Q 2388 397 2633 464 
Q 2878 531 3122 666 
L 3122 134 
Q 2881 22 2623 -34 
Q 2366 -91 2075 -91 
Q 1284 -91 818 406 
Q 353 903 353 1747 
Q 353 2603 823 3093 
Q 1294 3584 2113 3584 
Q 2378 3584 2631 3529 
Q 2884 3475 3122 3366 
z
" id="DejaVuSans-63" transform="scale(0.015625)"/>
       <path d="M 3513 2113 
L 3513 0 
L 2938 0 
L 2938 2094 
Q 2938 2591 2744 2837 
Q 2550 3084 2163 3084 
Q 1697 3084 1428 2787 
Q 1159 2491 1159 1978 
L 1159 0 
L 581 0 
L 581 4863 
L 1159 4863 
L 1159 2956 
Q 1366 3272 1645 3428 
Q 1925 3584 2291 3584 
Q 2894 3584 3203 3211 
Q 3513 2838 3513 2113 
z
" id="DejaVuSans-68" transform="scale(0.015625)"/>
      </defs>
      <use xlink:href="#DejaVuSans-45"/>
      <use x="63.183594" xlink:href="#DejaVuSans-70"/>
      <use x="126.660156" xlink:href="#DejaVuSans-6f"/>
      <use x="187.841797" xlink:href="#DejaVuSans-63"/>
      <use x="242.822266" xlink:href="#DejaVuSans-68"/>
     </g>
    </g>
   </g>
   <g id="matplotlib.axis_2">
    <g id="ytick_1">
     <g id="line2d_6">
      <defs>
       <path d="M 0 0 
L -3.5 0 
" id="meaf44dbecc" style="stroke:#000000;stroke-width:0.8;"/>
      </defs>
      <g>
       <use style="stroke:#000000;stroke-width:0.8;" x="57.6" xlink:href="#meaf44dbecc" y="302.02072"/>
      </g>
     </g>
     <g id="text_7">
      <!-- −4000 -->
      <g transform="translate(16.770313 305.819939)scale(0.1 -0.1)">
       <defs>
        <path d="M 678 2272 
L 4684 2272 
L 4684 1741 
L 678 1741 
L 678 2272 
z
" id="DejaVuSans-2212" transform="scale(0.015625)"/>
        <path d="M 2419 4116 
L 825 1625 
L 2419 1625 
L 2419 4116 
z
M 2253 4666 
L 3047 4666 
L 3047 1625 
L 3713 1625 
L 3713 1100 
L 3047 1100 
L 3047 0 
L 2419 0 
L 2419 1100 
L 313 1100 
L 313 1709 
L 2253 4666 
z
" id="DejaVuSans-34" transform="scale(0.015625)"/>
       </defs>
       <use xlink:href="#DejaVuSans-2212"/>
       <use x="83.789062" xlink:href="#DejaVuSans-34"/>
       <use x="147.412109" xlink:href="#DejaVuSans-30"/>
       <use x="211.035156" xlink:href="#DejaVuSans-30"/>
       <use x="274.658203" xlink:href="#DejaVuSans-30"/>
      </g>
     </g>
    </g>
    <g id="ytick_2">
     <g id="line2d_7">
      <g>
       <use style="stroke:#000000;stroke-width:0.8;" x="57.6" xlink:href="#meaf44dbecc" y="267.305411"/>
      </g>
     </g>
     <g id="text_8">
      <!-- −3500 -->
      <g transform="translate(16.770313 271.10463)scale(0.1 -0.1)">
       <defs>
        <path d="M 2597 2516 
Q 3050 2419 3304 2112 
Q 3559 1806 3559 1356 
Q 3559 666 3084 287 
Q 2609 -91 1734 -91 
Q 1441 -91 1130 -33 
Q 819 25 488 141 
L 488 750 
Q 750 597 1062 519 
Q 1375 441 1716 441 
Q 2309 441 2620 675 
Q 2931 909 2931 1356 
Q 2931 1769 2642 2001 
Q 2353 2234 1838 2234 
L 1294 2234 
L 1294 2753 
L 1863 2753 
Q 2328 2753 2575 2939 
Q 2822 3125 2822 3475 
Q 2822 3834 2567 4026 
Q 2313 4219 1838 4219 
Q 1578 4219 1281 4162 
Q 984 4106 628 3988 
L 628 4550 
Q 988 4650 1302 4700 
Q 1616 4750 1894 4750 
Q 2613 4750 3031 4423 
Q 3450 4097 3450 3541 
Q 3450 3153 3228 2886 
Q 3006 2619 2597 2516 
z
" id="DejaVuSans-33" transform="scale(0.015625)"/>
       </defs>
       <use xlink:href="#DejaVuSans-2212"/>
       <use x="83.789062" xlink:href="#DejaVuSans-33"/>
       <use x="147.412109" xlink:href="#DejaVuSans-35"/>
       <use x="211.035156" xlink:href="#DejaVuSans-30"/>
       <use x="274.658203" xlink:href="#DejaVuSans-30"/>
      </g>
     </g>
    </g>
    <g id="ytick_3">
     <g id="line2d_8">
      <g>
       <use style="stroke:#000000;stroke-width:0.8;" x="57.6" xlink:href="#meaf44dbecc" y="232.590102"/>
      </g>
     </g>
     <g id="text_9">
      <!-- −3000 -->
      <g transform="translate(16.770313 236.389321)scale(0.1 -0.1)">
       <use xlink:href="#DejaVuSans-2212"/>
       <use x="83.789062" xlink:href="#DejaVuSans-33"/>
       <use x="147.412109" xlink:href="#DejaVuSans-30"/>
       <use x="211.035156" xlink:href="#DejaVuSans-30"/>
       <use x="274.658203" xlink:href="#DejaVuSans-30"/>
      </g>
     </g>
    </g>
    <g id="ytick_4">
     <g id="line2d_9">
      <g>
       <use style="stroke:#000000;stroke-width:0.8;" x="57.6" xlink:href="#meaf44dbecc" y="197.874793"/>
      </g>
     </g>
     <g id="text_10">
      <!-- −2500 -->
      <g transform="translate(16.770313 201.674012)scale(0.1 -0.1)">
       <use xlink:href="#DejaVuSans-2212"/>
       <use x="83.789062" xlink:href="#DejaVuSans-32"/>
       <use x="147.412109" xlink:href="#DejaVuSans-35"/>
       <use x="211.035156" xlink:href="#DejaVuSans-30"/>
       <use x="274.658203" xlink:href="#DejaVuSans-30"/>
      </g>
     </g>
    </g>
    <g id="ytick_5">
     <g id="line2d_10">
      <g>
       <use style="stroke:#000000;stroke-width:0.8;" x="57.6" xlink:href="#meaf44dbecc" y="163.159484"/>
      </g>
     </g>
     <g id="text_11">
      <!-- −2000 -->
      <g transform="translate(16.770313 166.958703)scale(0.1 -0.1)">
       <use xlink:href="#DejaVuSans-2212"/>
       <use x="83.789062" xlink:href="#DejaVuSans-32"/>
       <use x="147.412109" xlink:href="#DejaVuSans-30"/>
       <use x="211.035156" xlink:href="#DejaVuSans-30"/>
       <use x="274.658203" xlink:href="#DejaVuSans-30"/>
      </g>
     </g>
    </g>
    <g id="ytick_6">
     <g id="line2d_11">
      <g>
       <use style="stroke:#000000;stroke-width:0.8;" x="57.6" xlink:href="#meaf44dbecc" y="128.444175"/>
      </g>
     </g>
     <g id="text_12">
      <!-- −1500 -->
      <g transform="translate(16.770313 132.243394)scale(0.1 -0.1)">
       <use xlink:href="#DejaVuSans-2212"/>
       <use x="83.789062" xlink:href="#DejaVuSans-31"/>
       <use x="147.412109" xlink:href="#DejaVuSans-35"/>
       <use x="211.035156" xlink:href="#DejaVuSans-30"/>
       <use x="274.658203" xlink:href="#DejaVuSans-30"/>
      </g>
     </g>
    </g>
    <g id="ytick_7">
     <g id="line2d_12">
      <g>
       <use style="stroke:#000000;stroke-width:0.8;" x="57.6" xlink:href="#meaf44dbecc" y="93.728866"/>
      </g>
     </g>
     <g id="text_13">
      <!-- −1000 -->
      <g transform="translate(16.770313 97.528085)scale(0.1 -0.1)">
       <use xlink:href="#DejaVuSans-2212"/>
       <use x="83.789062" xlink:href="#DejaVuSans-31"/>
       <use x="147.412109" xlink:href="#DejaVuSans-30"/>
       <use x="211.035156" xlink:href="#DejaVuSans-30"/>
       <use x="274.658203" xlink:href="#DejaVuSans-30"/>
      </g>
     </g>
    </g>
    <g id="ytick_8">
     <g id="line2d_13">
      <g>
       <use style="stroke:#000000;stroke-width:0.8;" x="57.6" xlink:href="#meaf44dbecc" y="59.013557"/>
      </g>
     </g>
     <g id="text_14">
      <!-- −500 -->
      <g transform="translate(23.132812 62.812776)scale(0.1 -0.1)">
       <use xlink:href="#DejaVuSans-2212"/>
       <use x="83.789062" xlink:href="#DejaVuSans-35"/>
       <use x="147.412109" xlink:href="#DejaVuSans-30"/>
       <use x="211.035156" xlink:href="#DejaVuSans-30"/>
      </g>
     </g>
    </g>
   </g>
   <g id="line2d_14">
    <path clip-path="url(#p11548ec263)" d="M 73.832727 53.568 
L 75.315168 90.964141 
L 78.28005 111.759838 
L 79.762491 122.99047 
L 81.244932 130.320495 
L 82.727372 135.866542 
L 84.209813 142.001448 
L 85.692254 145.0058 
L 87.174695 146.161122 
L 88.657136 154.450089 
L 90.139577 157.280355 
L 91.622017 157.943106 
L 93.104458 160.411701 
L 94.586899 160.074709 
L 96.06934 160.134939 
L 99.034222 166.196595 
L 100.516663 172.278355 
L 101.999103 182.192289 
L 103.481544 189.485442 
L 104.963985 200.734688 
L 106.446426 195.954419 
L 107.928867 199.85376 
L 109.411308 207.763357 
L 110.893748 202.802739 
L 112.376189 204.002595 
L 113.85863 205.359494 
L 115.341071 206.486824 
L 116.823512 208.368716 
L 118.305953 209.873151 
L 119.788394 209.34799 
L 121.270834 211.911216 
L 122.753275 215.724718 
L 124.235716 215.535026 
L 125.718157 214.410918 
L 127.200598 217.723668 
L 128.683039 226.110694 
L 130.165479 223.358961 
L 131.64792 229.115164 
L 133.130361 230.653207 
L 134.612802 233.978654 
L 136.095243 235.070342 
L 137.577684 235.478981 
L 139.060125 236.320968 
L 140.542565 239.717552 
L 142.025006 237.741488 
L 143.507447 242.568311 
L 144.989888 243.20016 
L 146.472329 246.53896 
L 147.95477 242.316467 
L 149.43721 243.536996 
L 150.919651 243.277562 
L 152.402092 243.984715 
L 153.884533 245.289486 
L 155.366974 238.855368 
L 156.849415 248.3946 
L 158.331856 248.26962 
L 159.814296 246.445922 
L 161.296737 250.337406 
L 162.779178 245.009989 
L 164.261619 246.380879 
L 165.74406 252.456533 
L 167.226501 248.603841 
L 168.708941 249.209423 
L 170.191382 251.310259 
L 171.673823 245.906725 
L 173.156264 247.88586 
L 174.638705 258.239937 
L 176.121146 254.870759 
L 177.603587 255.994163 
L 180.568468 251.254835 
L 182.050909 252.896336 
L 183.53335 254.026446 
L 185.015791 258.725051 
L 186.498232 252.735378 
L 187.980672 260.365991 
L 189.463113 259.262311 
L 190.945554 254.843091 
L 192.427995 253.672235 
L 193.910436 259.268609 
L 195.392877 252.033954 
L 196.875318 258.048013 
L 198.357758 257.961407 
L 199.840199 260.243153 
L 201.32264 260.321824 
L 202.805081 258.786611 
L 204.287522 257.970961 
L 205.769963 259.141169 
L 207.252403 263.463661 
L 208.734844 258.286971 
L 210.217285 256.910682 
L 211.699726 259.263692 
L 213.182167 259.326739 
L 214.664608 261.275479 
L 216.147049 263.518487 
L 217.629489 264.701156 
L 219.11193 260.928613 
L 220.594371 267.380299 
L 222.076812 264.453323 
L 223.559253 264.953568 
L 225.041694 264.714048 
L 226.524134 270.633799 
L 228.006575 264.514499 
L 229.489016 268.923892 
L 230.971457 267.680147 
L 232.453898 262.983265 
L 233.936339 264.728337 
L 235.41878 260.602886 
L 236.90122 258.96852 
L 238.383661 258.106035 
L 239.866102 259.495849 
L 241.348543 262.430252 
L 244.313425 259.633036 
L 245.795866 261.559897 
L 247.278306 267.268215 
L 248.760747 257.640195 
L 250.243188 264.846011 
L 251.725629 262.359116 
L 253.20807 262.824941 
L 254.690511 263.471903 
L 256.172951 256.497388 
L 257.655392 260.922494 
L 259.137833 263.029212 
L 260.620274 260.209463 
L 262.102715 264.313104 
L 263.585156 264.056981 
L 265.067597 261.62487 
L 266.550037 251.411824 
L 268.032478 259.415098 
L 269.514919 262.550571 
L 270.99736 265.242158 
L 272.479801 260.185709 
L 273.962242 263.212051 
L 275.444682 264.911832 
L 276.927123 268.279701 
L 278.409564 263.335513 
L 279.892005 260.997606 
L 281.374446 263.864089 
L 282.856887 263.9774 
L 284.339328 267.710718 
L 285.821768 265.237822 
L 287.304209 260.986552 
L 288.78665 267.637608 
L 290.269091 266.35165 
L 291.751532 263.296831 
L 293.233973 261.439487 
L 294.716413 264.746533 
L 296.198854 271.34483 
L 297.681295 261.586501 
L 302.128618 270.474654 
L 303.611059 264.772671 
L 305.093499 263.115094 
L 306.57594 267.29103 
L 308.058381 265.117737 
L 309.540822 264.71409 
L 311.023263 270.31375 
L 312.505704 262.766466 
L 313.988144 270.101969 
L 315.470585 265.511646 
L 316.953026 267.144358 
L 318.435467 263.354913 
L 319.917908 266.711933 
L 321.400349 273.97121 
L 322.88279 274.168638 
L 324.36523 270.376688 
L 325.847671 268.036478 
L 327.330112 269.959555 
L 328.812553 268.471126 
L 330.294994 260.608085 
L 331.777435 273.143099 
L 333.259875 266.644049 
L 334.742316 270.966641 
L 336.224757 270.241351 
L 337.707198 274.874164 
L 339.189639 264.968842 
L 340.67208 272.572483 
L 342.154521 262.666345 
L 343.636961 272.604347 
L 345.119402 269.209397 
L 346.601843 273.853197 
L 348.084284 275.965411 
L 349.566725 265.598252 
L 351.049166 272.598352 
L 352.531606 267.462302 
L 354.014047 270.102124 
L 355.496488 266.651135 
L 356.978929 267.478268 
L 358.46137 267.572273 
L 359.943811 277.68126 
L 361.426252 267.988355 
L 362.908692 267.039728 
L 364.391133 268.121868 
L 365.873574 276.413032 
L 367.356015 276.516908 
L 370.320897 270.181568 
L 371.803337 271.595079 
L 373.285778 268.910406 
L 374.768219 268.743062 
L 376.25066 267.670302 
L 377.733101 273.829582 
L 379.215542 269.660031 
L 380.697983 267.758792 
L 382.180423 268.669657 
L 383.662864 267.077864 
L 385.145305 267.624296 
L 386.627746 268.424981 
L 388.110187 272.074899 
L 391.075068 276.681929 
L 392.557509 270.403649 
L 394.03995 269.245123 
L 395.522391 276.648773 
L 397.004832 270.246976 
L 398.487273 269.033864 
L 398.487273 269.033864 
" style="fill:none;stroke:#1f77b4;stroke-linecap:square;stroke-width:1.5;"/>
   </g>
   <g id="line2d_15">
    <path clip-path="url(#p11548ec263)" d="M 73.832727 90.034295 
L 75.315168 89.084157 
L 76.797609 104.06985 
L 78.28005 107.25774 
L 79.762491 127.752736 
L 81.244932 127.01017 
L 82.727372 138.423618 
L 84.209813 145.926456 
L 85.692254 139.795504 
L 87.174695 159.117591 
L 88.657136 162.191963 
L 90.139577 159.270356 
L 91.622017 152.075863 
L 93.104458 166.441825 
L 94.586899 151.834799 
L 96.06934 152.507738 
L 97.551781 169.042167 
L 99.034222 168.887477 
L 100.516663 179.427177 
L 101.999103 188.87934 
L 103.481544 182.016615 
L 104.963985 203.417409 
L 106.446426 195.281892 
L 107.928867 195.448031 
L 109.411308 212.722287 
L 110.893748 199.836985 
L 112.376189 209.308783 
L 113.85863 175.868952 
L 115.341071 223.45174 
L 116.823512 201.252925 
L 118.305953 211.158827 
L 119.788394 204.337855 
L 121.270834 217.212076 
L 122.753275 220.645651 
L 124.235716 228.153335 
L 125.718157 224.583459 
L 127.200598 213.218632 
L 128.683039 227.670143 
L 130.165479 219.03375 
L 131.64792 223.678883 
L 133.130361 225.943275 
L 134.612802 224.207446 
L 136.095243 229.278462 
L 137.577684 235.716691 
L 139.060125 232.950683 
L 140.542565 253.675406 
L 142.025006 245.062108 
L 143.507447 232.563372 
L 144.989888 239.448462 
L 146.472329 229.988425 
L 147.95477 247.119251 
L 149.43721 249.787745 
L 150.919651 248.275052 
L 152.402092 254.091149 
L 153.884533 222.131371 
L 155.366974 239.624672 
L 156.849415 245.960702 
L 158.331856 229.97937 
L 159.814296 235.795396 
L 161.296737 232.902474 
L 162.779178 250.74831 
L 164.261619 256.239542 
L 165.74406 252.696221 
L 167.226501 241.288724 
L 168.708941 267.397961 
L 170.191382 259.222265 
L 173.156264 239.174311 
L 174.638705 260.987344 
L 176.121146 246.117168 
L 177.603587 269.290374 
L 179.086027 271.537095 
L 180.568468 248.382035 
L 182.050909 250.624737 
L 183.53335 251.024011 
L 185.015791 266.874553 
L 186.498232 258.505728 
L 187.980672 261.8811 
L 189.463113 273.463058 
L 190.945554 248.831936 
L 192.427995 246.686318 
L 193.910436 203.088851 
L 195.392877 242.235048 
L 196.875318 251.843961 
L 198.357758 224.089461 
L 199.840199 242.88089 
L 201.32264 275.883958 
L 202.805081 249.654634 
L 204.287522 265.697821 
L 205.769963 243.498081 
L 207.252403 265.331198 
L 208.734844 258.69301 
L 210.217285 267.508878 
L 211.699726 264.475608 
L 213.182167 245.33809 
L 214.664608 267.999511 
L 216.147049 270.271353 
L 217.629489 244.983544 
L 219.11193 269.286466 
L 220.594371 249.615442 
L 222.076812 264.034023 
L 223.559253 270.590627 
L 225.041694 260.406941 
L 226.524134 259.876088 
L 228.006575 257.961794 
L 229.489016 274.979783 
L 230.971457 275.478605 
L 232.453898 248.036951 
L 233.936339 264.474896 
L 235.41878 262.699393 
L 236.90122 258.315021 
L 238.383661 258.333877 
L 239.866102 274.811046 
L 241.348543 255.395183 
L 242.830984 265.760822 
L 244.313425 250.937728 
L 245.795866 270.506561 
L 247.278306 272.526624 
L 248.760747 259.863998 
L 250.243188 273.694086 
L 251.725629 241.886814 
L 253.20807 271.743547 
L 254.690511 239.829469 
L 256.172951 269.530504 
L 257.655392 259.638817 
L 259.137833 256.71569 
L 260.620274 254.254659 
L 262.102715 273.831683 
L 263.585156 264.1158 
L 265.067597 270.400186 
L 266.550037 260.601694 
L 268.032478 259.152202 
L 269.514919 248.655267 
L 270.99736 260.331131 
L 272.479801 242.461711 
L 273.962242 260.589172 
L 275.444682 272.904131 
L 276.927123 258.125889 
L 278.409564 260.988027 
L 279.892005 276.603397 
L 281.374446 253.343728 
L 282.856887 255.24656 
L 284.339328 278.269991 
L 285.821768 256.070302 
L 287.304209 262.711063 
L 288.78665 268.366409 
L 290.269091 264.862291 
L 291.751532 277.859777 
L 293.233973 253.109214 
L 294.716413 262.775717 
L 296.198854 267.874821 
L 297.681295 263.478434 
L 299.163736 265.037362 
L 300.646177 271.381268 
L 302.128618 253.305874 
L 303.611059 280.443619 
L 305.093499 259.925402 
L 306.57594 257.379182 
L 308.058381 267.479809 
L 311.023263 251.842385 
L 312.505704 266.251764 
L 313.988144 254.726544 
L 315.470585 270.908693 
L 316.953026 270.856653 
L 318.435467 257.243473 
L 319.917908 267.053732 
L 321.400349 267.936755 
L 322.88279 268.953992 
L 324.36523 295.488 
L 325.847671 266.255827 
L 327.330112 262.350722 
L 328.812553 260.538651 
L 331.777435 251.400827 
L 333.259875 257.573932 
L 334.742316 274.127382 
L 336.224757 280.25771 
L 337.707198 279.187299 
L 339.189639 268.928254 
L 340.67208 283.252928 
L 342.154521 271.152623 
L 343.636961 272.270845 
L 345.119402 278.84092 
L 346.601843 278.549062 
L 348.084284 268.000966 
L 349.566725 266.263839 
L 351.049166 276.749175 
L 352.531606 247.573317 
L 354.014047 274.592134 
L 355.496488 270.09569 
L 358.46137 264.358214 
L 359.943811 256.069983 
L 361.426252 269.702759 
L 362.908692 268.919441 
L 364.391133 256.699484 
L 365.873574 270.740558 
L 367.356015 252.734954 
L 368.838456 272.525422 
L 370.320897 253.556904 
L 371.803337 270.112491 
L 373.285778 253.857769 
L 374.768219 276.379393 
L 376.25066 274.01509 
L 377.733101 273.862326 
L 379.215542 272.968038 
L 380.697983 275.77922 
L 382.180423 265.741376 
L 383.662864 259.020616 
L 385.145305 273.646397 
L 386.627746 252.979799 
L 388.110187 283.985781 
L 389.592628 271.125988 
L 391.075068 255.552725 
L 392.557509 278.97964 
L 394.03995 255.222781 
L 395.522391 269.389969 
L 397.004832 282.328671 
L 398.487273 293.368931 
L 398.487273 293.368931 
" style="fill:none;stroke:#ff7f0e;stroke-linecap:square;stroke-width:1.5;"/>
   </g>
   <g id="patch_3">
    <path d="M 57.6 307.584 
L 57.6 41.472 
" style="fill:none;stroke:#000000;stroke-linecap:square;stroke-linejoin:miter;stroke-width:0.8;"/>
   </g>
   <g id="patch_4">
    <path d="M 414.72 307.584 
L 414.72 41.472 
" style="fill:none;stroke:#000000;stroke-linecap:square;stroke-linejoin:miter;stroke-width:0.8;"/>
   </g>
   <g id="patch_5">
    <path d="M 57.6 307.584 
L 414.72 307.584 
" style="fill:none;stroke:#000000;stroke-linecap:square;stroke-linejoin:miter;stroke-width:0.8;"/>
   </g>
   <g id="patch_6">
    <path d="M 57.6 41.472 
L 414.72 41.472 
" style="fill:none;stroke:#000000;stroke-linecap:square;stroke-linejoin:miter;stroke-width:0.8;"/>
   </g>
   <g id="legend_1">
    <g id="patch_7">
     <path d="M 303.845 78.82825 
L 407.72 78.82825 
Q 409.72 78.82825 409.72 76.82825 
L 409.72 48.472 
Q 409.72 46.472 407.72 46.472 
L 303.845 46.472 
Q 301.845 46.472 301.845 48.472 
L 301.845 76.82825 
Q 301.845 78.82825 303.845 78.82825 
z
" style="fill:#ffffff;opacity:0.8;stroke:#cccccc;stroke-linejoin:miter;"/>
    </g>
    <g id="line2d_16">
     <path d="M 305.845 54.570437 
L 325.845 54.570437 
" style="fill:none;stroke:#1f77b4;stroke-linecap:square;stroke-width:1.5;"/>
    </g>
    <g id="line2d_17"/>
    <g id="text_15">
     <!-- Train loss -->
     <g transform="translate(333.845 58.070437)scale(0.1 -0.1)">
      <defs>
       <path d="M -19 4666 
L 3928 4666 
L 3928 4134 
L 2272 4134 
L 2272 0 
L 1638 0 
L 1638 4134 
L -19 4134 
L -19 4666 
z
" id="DejaVuSans-54" transform="scale(0.015625)"/>
       <path d="M 2631 2963 
Q 2534 3019 2420 3045 
Q 2306 3072 2169 3072 
Q 1681 3072 1420 2755 
Q 1159 2438 1159 1844 
L 1159 0 
L 581 0 
L 581 3500 
L 1159 3500 
L 1159 2956 
Q 1341 3275 1631 3429 
Q 1922 3584 2338 3584 
Q 2397 3584 2469 3576 
Q 2541 3569 2628 3553 
L 2631 2963 
z
" id="DejaVuSans-72" transform="scale(0.015625)"/>
       <path d="M 2194 1759 
Q 1497 1759 1228 1600 
Q 959 1441 959 1056 
Q 959 750 1161 570 
Q 1363 391 1709 391 
Q 2188 391 2477 730 
Q 2766 1069 2766 1631 
L 2766 1759 
L 2194 1759 
z
M 3341 1997 
L 3341 0 
L 2766 0 
L 2766 531 
Q 2569 213 2275 61 
Q 1981 -91 1556 -91 
Q 1019 -91 701 211 
Q 384 513 384 1019 
Q 384 1609 779 1909 
Q 1175 2209 1959 2209 
L 2766 2209 
L 2766 2266 
Q 2766 2663 2505 2880 
Q 2244 3097 1772 3097 
Q 1472 3097 1187 3025 
Q 903 2953 641 2809 
L 641 3341 
Q 956 3463 1253 3523 
Q 1550 3584 1831 3584 
Q 2591 3584 2966 3190 
Q 3341 2797 3341 1997 
z
" id="DejaVuSans-61" transform="scale(0.015625)"/>
       <path d="M 603 3500 
L 1178 3500 
L 1178 0 
L 603 0 
L 603 3500 
z
M 603 4863 
L 1178 4863 
L 1178 4134 
L 603 4134 
L 603 4863 
z
" id="DejaVuSans-69" transform="scale(0.015625)"/>
       <path d="M 3513 2113 
L 3513 0 
L 2938 0 
L 2938 2094 
Q 2938 2591 2744 2837 
Q 2550 3084 2163 3084 
Q 1697 3084 1428 2787 
Q 1159 2491 1159 1978 
L 1159 0 
L 581 0 
L 581 3500 
L 1159 3500 
L 1159 2956 
Q 1366 3272 1645 3428 
Q 1925 3584 2291 3584 
Q 2894 3584 3203 3211 
Q 3513 2838 3513 2113 
z
" id="DejaVuSans-6e" transform="scale(0.015625)"/>
       <path id="DejaVuSans-20" transform="scale(0.015625)"/>
       <path d="M 603 4863 
L 1178 4863 
L 1178 0 
L 603 0 
L 603 4863 
z
" id="DejaVuSans-6c" transform="scale(0.015625)"/>
       <path d="M 2834 3397 
L 2834 2853 
Q 2591 2978 2328 3040 
Q 2066 3103 1784 3103 
Q 1356 3103 1142 2972 
Q 928 2841 928 2578 
Q 928 2378 1081 2264 
Q 1234 2150 1697 2047 
L 1894 2003 
Q 2506 1872 2764 1633 
Q 3022 1394 3022 966 
Q 3022 478 2636 193 
Q 2250 -91 1575 -91 
Q 1294 -91 989 -36 
Q 684 19 347 128 
L 347 722 
Q 666 556 975 473 
Q 1284 391 1588 391 
Q 1994 391 2212 530 
Q 2431 669 2431 922 
Q 2431 1156 2273 1281 
Q 2116 1406 1581 1522 
L 1381 1569 
Q 847 1681 609 1914 
Q 372 2147 372 2553 
Q 372 3047 722 3315 
Q 1072 3584 1716 3584 
Q 2034 3584 2315 3537 
Q 2597 3491 2834 3397 
z
" id="DejaVuSans-73" transform="scale(0.015625)"/>
      </defs>
      <use xlink:href="#DejaVuSans-54"/>
      <use x="46.333984" xlink:href="#DejaVuSans-72"/>
      <use x="87.447266" xlink:href="#DejaVuSans-61"/>
      <use x="148.726562" xlink:href="#DejaVuSans-69"/>
      <use x="176.509766" xlink:href="#DejaVuSans-6e"/>
      <use x="239.888672" xlink:href="#DejaVuSans-20"/>
      <use x="271.675781" xlink:href="#DejaVuSans-6c"/>
      <use x="299.458984" xlink:href="#DejaVuSans-6f"/>
      <use x="360.640625" xlink:href="#DejaVuSans-73"/>
      <use x="412.740234" xlink:href="#DejaVuSans-73"/>
     </g>
    </g>
    <g id="line2d_18">
     <path d="M 305.845 69.248562 
L 325.845 69.248562 
" style="fill:none;stroke:#ff7f0e;stroke-linecap:square;stroke-width:1.5;"/>
    </g>
    <g id="line2d_19"/>
    <g id="text_16">
     <!-- Validation loss -->
     <g transform="translate(333.845 72.748562)scale(0.1 -0.1)">
      <defs>
       <path d="M 1831 0 
L 50 4666 
L 709 4666 
L 2188 738 
L 3669 4666 
L 4325 4666 
L 2547 0 
L 1831 0 
z
" id="DejaVuSans-56" transform="scale(0.015625)"/>
       <path d="M 2906 2969 
L 2906 4863 
L 3481 4863 
L 3481 0 
L 2906 0 
L 2906 525 
Q 2725 213 2448 61 
Q 2172 -91 1784 -91 
Q 1150 -91 751 415 
Q 353 922 353 1747 
Q 353 2572 751 3078 
Q 1150 3584 1784 3584 
Q 2172 3584 2448 3432 
Q 2725 3281 2906 2969 
z
M 947 1747 
Q 947 1113 1208 752 
Q 1469 391 1925 391 
Q 2381 391 2643 752 
Q 2906 1113 2906 1747 
Q 2906 2381 2643 2742 
Q 2381 3103 1925 3103 
Q 1469 3103 1208 2742 
Q 947 2381 947 1747 
z
" id="DejaVuSans-64" transform="scale(0.015625)"/>
       <path d="M 1172 4494 
L 1172 3500 
L 2356 3500 
L 2356 3053 
L 1172 3053 
L 1172 1153 
Q 1172 725 1289 603 
Q 1406 481 1766 481 
L 2356 481 
L 2356 0 
L 1766 0 
Q 1100 0 847 248 
Q 594 497 594 1153 
L 594 3053 
L 172 3053 
L 172 3500 
L 594 3500 
L 594 4494 
L 1172 4494 
z
" id="DejaVuSans-74" transform="scale(0.015625)"/>
      </defs>
      <use xlink:href="#DejaVuSans-56"/>
      <use x="60.658203" xlink:href="#DejaVuSans-61"/>
      <use x="121.9375" xlink:href="#DejaVuSans-6c"/>
      <use x="149.720703" xlink:href="#DejaVuSans-69"/>
      <use x="177.503906" xlink:href="#DejaVuSans-64"/>
      <use x="240.980469" xlink:href="#DejaVuSans-61"/>
      <use x="302.259766" xlink:href="#DejaVuSans-74"/>
      <use x="341.46875" xlink:href="#DejaVuSans-69"/>
      <use x="369.251953" xlink:href="#DejaVuSans-6f"/>
      <use x="430.433594" xlink:href="#DejaVuSans-6e"/>
      <use x="493.8125" xlink:href="#DejaVuSans-20"/>
      <use x="525.599609" xlink:href="#DejaVuSans-6c"/>
      <use x="553.382812" xlink:href="#DejaVuSans-6f"/>
      <use x="614.564453" xlink:href="#DejaVuSans-73"/>
      <use x="666.664062" xlink:href="#DejaVuSans-73"/>
     </g>
    </g>
   </g>
  </g>
 </g>
 <defs>
  <clipPath id="p11548ec263">
   <rect height="266.112" width="357.12" x="57.6" y="41.472"/>
  </clipPath>
 </defs>
</svg>
