<?xml version="1.0" encoding="utf-8" standalone="no"?>
<!DOCTYPE svg PUBLIC "-//W3C//DTD SVG 1.1//EN"
  "http://www.w3.org/Graphics/SVG/1.1/DTD/svg11.dtd">
<svg height="345.6pt" version="1.1" viewBox="0 0 460.8 345.6" width="460.8pt" xmlns="http://www.w3.org/2000/svg" xmlns:xlink="http://www.w3.org/1999/xlink">
 <metadata>
  <rdf:RDF xmlns:cc="http://creativecommons.org/ns#" xmlns:dc="http://purl.org/dc/elements/1.1/" xmlns:rdf="http://www.w3.org/1999/02/22-rdf-syntax-ns#">
   <cc:Work>
    <dc:type rdf:resource="http://purl.org/dc/dcmitype/StillImage"/>
    <dc:date>2021-07-20T07:49:57.098122</dc:date>
    <dc:format>image/svg+xml</dc:format>
    <dc:creator>
     <cc:Agent>
      <dc:title>Matplotlib v3.4.2, https://matplotlib.org/</dc:title>
     </cc:Agent>
    </dc:creator>
   </cc:Work>
  </rdf:RDF>
 </metadata>
 <defs>
  <style type="text/css">*{stroke-linecap:butt;stroke-linejoin:round;}</style>
 </defs>
 <g id="figure_1">
  <g id="patch_1">
   <path d="M 0 345.6 
L 460.8 345.6 
L 460.8 0 
L 0 0 
z
" style="fill:#ffffff;"/>
  </g>
  <g id="axes_1">
   <g id="patch_2">
    <path d="M 57.6 307.584 
L 414.72 307.584 
L 414.72 41.472 
L 57.6 41.472 
z
" style="fill:#ffffff;"/>
   </g>
   <g id="matplotlib.axis_1">
    <g id="xtick_1">
     <g id="line2d_1">
      <defs>
       <path d="M 0 0 
L 0 3.5 
" id="mf451c43dc6" style="stroke:#000000;stroke-width:0.8;"/>
      </defs>
      <g>
       <use style="stroke:#000000;stroke-width:0.8;" x="73.426401" xlink:href="#mf451c43dc6" y="307.584"/>
      </g>
     </g>
     <g id="text_1">
      <!-- 0 -->
      <g transform="translate(70.245151 322.182437)scale(0.1 -0.1)">
       <defs>
        <path d="M 2034 4250 
Q 1547 4250 1301 3770 
Q 1056 3291 1056 2328 
Q 1056 1369 1301 889 
Q 1547 409 2034 409 
Q 2525 409 2770 889 
Q 3016 1369 3016 2328 
Q 3016 3291 2770 3770 
Q 2525 4250 2034 4250 
z
M 2034 4750 
Q 2819 4750 3233 4129 
Q 3647 3509 3647 2328 
Q 3647 1150 3233 529 
Q 2819 -91 2034 -91 
Q 1250 -91 836 529 
Q 422 1150 422 2328 
Q 422 3509 836 4129 
Q 1250 4750 2034 4750 
z
" id="DejaVuSans-30" transform="scale(0.015625)"/>
       </defs>
       <use xlink:href="#DejaVuSans-30"/>
      </g>
     </g>
    </g>
    <g id="xtick_2">
     <g id="line2d_2">
      <g>
       <use style="stroke:#000000;stroke-width:0.8;" x="114.05901" xlink:href="#mf451c43dc6" y="307.584"/>
      </g>
     </g>
     <g id="text_2">
      <!-- 100 -->
      <g transform="translate(104.51526 322.182437)scale(0.1 -0.1)">
       <defs>
        <path d="M 794 531 
L 1825 531 
L 1825 4091 
L 703 3866 
L 703 4441 
L 1819 4666 
L 2450 4666 
L 2450 531 
L 3481 531 
L 3481 0 
L 794 0 
L 794 531 
z
" id="DejaVuSans-31" transform="scale(0.015625)"/>
       </defs>
       <use xlink:href="#DejaVuSans-31"/>
       <use x="63.623047" xlink:href="#DejaVuSans-30"/>
       <use x="127.246094" xlink:href="#DejaVuSans-30"/>
      </g>
     </g>
    </g>
    <g id="xtick_3">
     <g id="line2d_3">
      <g>
       <use style="stroke:#000000;stroke-width:0.8;" x="154.691619" xlink:href="#mf451c43dc6" y="307.584"/>
      </g>
     </g>
     <g id="text_3">
      <!-- 200 -->
      <g transform="translate(145.147869 322.182437)scale(0.1 -0.1)">
       <defs>
        <path d="M 1228 531 
L 3431 531 
L 3431 0 
L 469 0 
L 469 531 
Q 828 903 1448 1529 
Q 2069 2156 2228 2338 
Q 2531 2678 2651 2914 
Q 2772 3150 2772 3378 
Q 2772 3750 2511 3984 
Q 2250 4219 1831 4219 
Q 1534 4219 1204 4116 
Q 875 4013 500 3803 
L 500 4441 
Q 881 4594 1212 4672 
Q 1544 4750 1819 4750 
Q 2544 4750 2975 4387 
Q 3406 4025 3406 3419 
Q 3406 3131 3298 2873 
Q 3191 2616 2906 2266 
Q 2828 2175 2409 1742 
Q 1991 1309 1228 531 
z
" id="DejaVuSans-32" transform="scale(0.015625)"/>
       </defs>
       <use xlink:href="#DejaVuSans-32"/>
       <use x="63.623047" xlink:href="#DejaVuSans-30"/>
       <use x="127.246094" xlink:href="#DejaVuSans-30"/>
      </g>
     </g>
    </g>
    <g id="xtick_4">
     <g id="line2d_4">
      <g>
       <use style="stroke:#000000;stroke-width:0.8;" x="195.324228" xlink:href="#mf451c43dc6" y="307.584"/>
      </g>
     </g>
     <g id="text_4">
      <!-- 300 -->
      <g transform="translate(185.780478 322.182437)scale(0.1 -0.1)">
       <defs>
        <path d="M 2597 2516 
Q 3050 2419 3304 2112 
Q 3559 1806 3559 1356 
Q 3559 666 3084 287 
Q 2609 -91 1734 -91 
Q 1441 -91 1130 -33 
Q 819 25 488 141 
L 488 750 
Q 750 597 1062 519 
Q 1375 441 1716 441 
Q 2309 441 2620 675 
Q 2931 909 2931 1356 
Q 2931 1769 2642 2001 
Q 2353 2234 1838 2234 
L 1294 2234 
L 1294 2753 
L 1863 2753 
Q 2328 2753 2575 2939 
Q 2822 3125 2822 3475 
Q 2822 3834 2567 4026 
Q 2313 4219 1838 4219 
Q 1578 4219 1281 4162 
Q 984 4106 628 3988 
L 628 4550 
Q 988 4650 1302 4700 
Q 1616 4750 1894 4750 
Q 2613 4750 3031 4423 
Q 3450 4097 3450 3541 
Q 3450 3153 3228 2886 
Q 3006 2619 2597 2516 
z
" id="DejaVuSans-33" transform="scale(0.015625)"/>
       </defs>
       <use xlink:href="#DejaVuSans-33"/>
       <use x="63.623047" xlink:href="#DejaVuSans-30"/>
       <use x="127.246094" xlink:href="#DejaVuSans-30"/>
      </g>
     </g>
    </g>
    <g id="xtick_5">
     <g id="line2d_5">
      <g>
       <use style="stroke:#000000;stroke-width:0.8;" x="235.956837" xlink:href="#mf451c43dc6" y="307.584"/>
      </g>
     </g>
     <g id="text_5">
      <!-- 400 -->
      <g transform="translate(226.413087 322.182437)scale(0.1 -0.1)">
       <defs>
        <path d="M 2419 4116 
L 825 1625 
L 2419 1625 
L 2419 4116 
z
M 2253 4666 
L 3047 4666 
L 3047 1625 
L 3713 1625 
L 3713 1100 
L 3047 1100 
L 3047 0 
L 2419 0 
L 2419 1100 
L 313 1100 
L 313 1709 
L 2253 4666 
z
" id="DejaVuSans-34" transform="scale(0.015625)"/>
       </defs>
       <use xlink:href="#DejaVuSans-34"/>
       <use x="63.623047" xlink:href="#DejaVuSans-30"/>
       <use x="127.246094" xlink:href="#DejaVuSans-30"/>
      </g>
     </g>
    </g>
    <g id="xtick_6">
     <g id="line2d_6">
      <g>
       <use style="stroke:#000000;stroke-width:0.8;" x="276.589446" xlink:href="#mf451c43dc6" y="307.584"/>
      </g>
     </g>
     <g id="text_6">
      <!-- 500 -->
      <g transform="translate(267.045696 322.182437)scale(0.1 -0.1)">
       <defs>
        <path d="M 691 4666 
L 3169 4666 
L 3169 4134 
L 1269 4134 
L 1269 2991 
Q 1406 3038 1543 3061 
Q 1681 3084 1819 3084 
Q 2600 3084 3056 2656 
Q 3513 2228 3513 1497 
Q 3513 744 3044 326 
Q 2575 -91 1722 -91 
Q 1428 -91 1123 -41 
Q 819 9 494 109 
L 494 744 
Q 775 591 1075 516 
Q 1375 441 1709 441 
Q 2250 441 2565 725 
Q 2881 1009 2881 1497 
Q 2881 1984 2565 2268 
Q 2250 2553 1709 2553 
Q 1456 2553 1204 2497 
Q 953 2441 691 2322 
L 691 4666 
z
" id="DejaVuSans-35" transform="scale(0.015625)"/>
       </defs>
       <use xlink:href="#DejaVuSans-35"/>
       <use x="63.623047" xlink:href="#DejaVuSans-30"/>
       <use x="127.246094" xlink:href="#DejaVuSans-30"/>
      </g>
     </g>
    </g>
    <g id="xtick_7">
     <g id="line2d_7">
      <g>
       <use style="stroke:#000000;stroke-width:0.8;" x="317.222055" xlink:href="#mf451c43dc6" y="307.584"/>
      </g>
     </g>
     <g id="text_7">
      <!-- 600 -->
      <g transform="translate(307.678305 322.182437)scale(0.1 -0.1)">
       <defs>
        <path d="M 2113 2584 
Q 1688 2584 1439 2293 
Q 1191 2003 1191 1497 
Q 1191 994 1439 701 
Q 1688 409 2113 409 
Q 2538 409 2786 701 
Q 3034 994 3034 1497 
Q 3034 2003 2786 2293 
Q 2538 2584 2113 2584 
z
M 3366 4563 
L 3366 3988 
Q 3128 4100 2886 4159 
Q 2644 4219 2406 4219 
Q 1781 4219 1451 3797 
Q 1122 3375 1075 2522 
Q 1259 2794 1537 2939 
Q 1816 3084 2150 3084 
Q 2853 3084 3261 2657 
Q 3669 2231 3669 1497 
Q 3669 778 3244 343 
Q 2819 -91 2113 -91 
Q 1303 -91 875 529 
Q 447 1150 447 2328 
Q 447 3434 972 4092 
Q 1497 4750 2381 4750 
Q 2619 4750 2861 4703 
Q 3103 4656 3366 4563 
z
" id="DejaVuSans-36" transform="scale(0.015625)"/>
       </defs>
       <use xlink:href="#DejaVuSans-36"/>
       <use x="63.623047" xlink:href="#DejaVuSans-30"/>
       <use x="127.246094" xlink:href="#DejaVuSans-30"/>
      </g>
     </g>
    </g>
    <g id="xtick_8">
     <g id="line2d_8">
      <g>
       <use style="stroke:#000000;stroke-width:0.8;" x="357.854664" xlink:href="#mf451c43dc6" y="307.584"/>
      </g>
     </g>
     <g id="text_8">
      <!-- 700 -->
      <g transform="translate(348.310914 322.182437)scale(0.1 -0.1)">
       <defs>
        <path d="M 525 4666 
L 3525 4666 
L 3525 4397 
L 1831 0 
L 1172 0 
L 2766 4134 
L 525 4134 
L 525 4666 
z
" id="DejaVuSans-37" transform="scale(0.015625)"/>
       </defs>
       <use xlink:href="#DejaVuSans-37"/>
       <use x="63.623047" xlink:href="#DejaVuSans-30"/>
       <use x="127.246094" xlink:href="#DejaVuSans-30"/>
      </g>
     </g>
    </g>
    <g id="xtick_9">
     <g id="line2d_9">
      <g>
       <use style="stroke:#000000;stroke-width:0.8;" x="398.487273" xlink:href="#mf451c43dc6" y="307.584"/>
      </g>
     </g>
     <g id="text_9">
      <!-- 800 -->
      <g transform="translate(388.943523 322.182437)scale(0.1 -0.1)">
       <defs>
        <path d="M 2034 2216 
Q 1584 2216 1326 1975 
Q 1069 1734 1069 1313 
Q 1069 891 1326 650 
Q 1584 409 2034 409 
Q 2484 409 2743 651 
Q 3003 894 3003 1313 
Q 3003 1734 2745 1975 
Q 2488 2216 2034 2216 
z
M 1403 2484 
Q 997 2584 770 2862 
Q 544 3141 544 3541 
Q 544 4100 942 4425 
Q 1341 4750 2034 4750 
Q 2731 4750 3128 4425 
Q 3525 4100 3525 3541 
Q 3525 3141 3298 2862 
Q 3072 2584 2669 2484 
Q 3125 2378 3379 2068 
Q 3634 1759 3634 1313 
Q 3634 634 3220 271 
Q 2806 -91 2034 -91 
Q 1263 -91 848 271 
Q 434 634 434 1313 
Q 434 1759 690 2068 
Q 947 2378 1403 2484 
z
M 1172 3481 
Q 1172 3119 1398 2916 
Q 1625 2713 2034 2713 
Q 2441 2713 2670 2916 
Q 2900 3119 2900 3481 
Q 2900 3844 2670 4047 
Q 2441 4250 2034 4250 
Q 1625 4250 1398 4047 
Q 1172 3844 1172 3481 
z
" id="DejaVuSans-38" transform="scale(0.015625)"/>
       </defs>
       <use xlink:href="#DejaVuSans-38"/>
       <use x="63.623047" xlink:href="#DejaVuSans-30"/>
       <use x="127.246094" xlink:href="#DejaVuSans-30"/>
      </g>
     </g>
    </g>
    <g id="text_10">
     <!-- Epoch -->
     <g transform="translate(213.193594 339.659781)scale(0.15 -0.15)">
      <defs>
       <path d="M 628 4666 
L 3578 4666 
L 3578 4134 
L 1259 4134 
L 1259 2753 
L 3481 2753 
L 3481 2222 
L 1259 2222 
L 1259 531 
L 3634 531 
L 3634 0 
L 628 0 
L 628 4666 
z
" id="DejaVuSans-45" transform="scale(0.015625)"/>
       <path d="M 1159 525 
L 1159 -1331 
L 581 -1331 
L 581 3500 
L 1159 3500 
L 1159 2969 
Q 1341 3281 1617 3432 
Q 1894 3584 2278 3584 
Q 2916 3584 3314 3078 
Q 3713 2572 3713 1747 
Q 3713 922 3314 415 
Q 2916 -91 2278 -91 
Q 1894 -91 1617 61 
Q 1341 213 1159 525 
z
M 3116 1747 
Q 3116 2381 2855 2742 
Q 2594 3103 2138 3103 
Q 1681 3103 1420 2742 
Q 1159 2381 1159 1747 
Q 1159 1113 1420 752 
Q 1681 391 2138 391 
Q 2594 391 2855 752 
Q 3116 1113 3116 1747 
z
" id="DejaVuSans-70" transform="scale(0.015625)"/>
       <path d="M 1959 3097 
Q 1497 3097 1228 2736 
Q 959 2375 959 1747 
Q 959 1119 1226 758 
Q 1494 397 1959 397 
Q 2419 397 2687 759 
Q 2956 1122 2956 1747 
Q 2956 2369 2687 2733 
Q 2419 3097 1959 3097 
z
M 1959 3584 
Q 2709 3584 3137 3096 
Q 3566 2609 3566 1747 
Q 3566 888 3137 398 
Q 2709 -91 1959 -91 
Q 1206 -91 779 398 
Q 353 888 353 1747 
Q 353 2609 779 3096 
Q 1206 3584 1959 3584 
z
" id="DejaVuSans-6f" transform="scale(0.015625)"/>
       <path d="M 3122 3366 
L 3122 2828 
Q 2878 2963 2633 3030 
Q 2388 3097 2138 3097 
Q 1578 3097 1268 2742 
Q 959 2388 959 1747 
Q 959 1106 1268 751 
Q 1578 397 2138 397 
Q 2388 397 2633 464 
Q 2878 531 3122 666 
L 3122 134 
Q 2881 22 2623 -34 
Q 2366 -91 2075 -91 
Q 1284 -91 818 406 
Q 353 903 353 1747 
Q 353 2603 823 3093 
Q 1294 3584 2113 3584 
Q 2378 3584 2631 3529 
Q 2884 3475 3122 3366 
z
" id="DejaVuSans-63" transform="scale(0.015625)"/>
       <path d="M 3513 2113 
L 3513 0 
L 2938 0 
L 2938 2094 
Q 2938 2591 2744 2837 
Q 2550 3084 2163 3084 
Q 1697 3084 1428 2787 
Q 1159 2491 1159 1978 
L 1159 0 
L 581 0 
L 581 4863 
L 1159 4863 
L 1159 2956 
Q 1366 3272 1645 3428 
Q 1925 3584 2291 3584 
Q 2894 3584 3203 3211 
Q 3513 2838 3513 2113 
z
" id="DejaVuSans-68" transform="scale(0.015625)"/>
      </defs>
      <use xlink:href="#DejaVuSans-45"/>
      <use x="63.183594" xlink:href="#DejaVuSans-70"/>
      <use x="126.660156" xlink:href="#DejaVuSans-6f"/>
      <use x="187.841797" xlink:href="#DejaVuSans-63"/>
      <use x="242.822266" xlink:href="#DejaVuSans-68"/>
     </g>
    </g>
   </g>
   <g id="matplotlib.axis_2">
    <g id="ytick_1">
     <g id="line2d_10">
      <defs>
       <path d="M 0 0 
L -3.5 0 
" id="mc6ff23f09b" style="stroke:#000000;stroke-width:0.8;"/>
      </defs>
      <g>
       <use style="stroke:#000000;stroke-width:0.8;" x="57.6" xlink:href="#mc6ff23f09b" y="274.977876"/>
      </g>
     </g>
     <g id="text_11">
      <!-- −1000 -->
      <g transform="translate(16.770313 278.777094)scale(0.1 -0.1)">
       <defs>
        <path d="M 678 2272 
L 4684 2272 
L 4684 1741 
L 678 1741 
L 678 2272 
z
" id="DejaVuSans-2212" transform="scale(0.015625)"/>
       </defs>
       <use xlink:href="#DejaVuSans-2212"/>
       <use x="83.789062" xlink:href="#DejaVuSans-31"/>
       <use x="147.412109" xlink:href="#DejaVuSans-30"/>
       <use x="211.035156" xlink:href="#DejaVuSans-30"/>
       <use x="274.658203" xlink:href="#DejaVuSans-30"/>
      </g>
     </g>
    </g>
    <g id="ytick_2">
     <g id="line2d_11">
      <g>
       <use style="stroke:#000000;stroke-width:0.8;" x="57.6" xlink:href="#mc6ff23f09b" y="233.805015"/>
      </g>
     </g>
     <g id="text_12">
      <!-- −800 -->
      <g transform="translate(23.132812 237.604234)scale(0.1 -0.1)">
       <use xlink:href="#DejaVuSans-2212"/>
       <use x="83.789062" xlink:href="#DejaVuSans-38"/>
       <use x="147.412109" xlink:href="#DejaVuSans-30"/>
       <use x="211.035156" xlink:href="#DejaVuSans-30"/>
      </g>
     </g>
    </g>
    <g id="ytick_3">
     <g id="line2d_12">
      <g>
       <use style="stroke:#000000;stroke-width:0.8;" x="57.6" xlink:href="#mc6ff23f09b" y="192.632155"/>
      </g>
     </g>
     <g id="text_13">
      <!-- −600 -->
      <g transform="translate(23.132812 196.431374)scale(0.1 -0.1)">
       <use xlink:href="#DejaVuSans-2212"/>
       <use x="83.789062" xlink:href="#DejaVuSans-36"/>
       <use x="147.412109" xlink:href="#DejaVuSans-30"/>
       <use x="211.035156" xlink:href="#DejaVuSans-30"/>
      </g>
     </g>
    </g>
    <g id="ytick_4">
     <g id="line2d_13">
      <g>
       <use style="stroke:#000000;stroke-width:0.8;" x="57.6" xlink:href="#mc6ff23f09b" y="151.459295"/>
      </g>
     </g>
     <g id="text_14">
      <!-- −400 -->
      <g transform="translate(23.132812 155.258514)scale(0.1 -0.1)">
       <use xlink:href="#DejaVuSans-2212"/>
       <use x="83.789062" xlink:href="#DejaVuSans-34"/>
       <use x="147.412109" xlink:href="#DejaVuSans-30"/>
       <use x="211.035156" xlink:href="#DejaVuSans-30"/>
      </g>
     </g>
    </g>
    <g id="ytick_5">
     <g id="line2d_14">
      <g>
       <use style="stroke:#000000;stroke-width:0.8;" x="57.6" xlink:href="#mc6ff23f09b" y="110.286435"/>
      </g>
     </g>
     <g id="text_15">
      <!-- −200 -->
      <g transform="translate(23.132812 114.085653)scale(0.1 -0.1)">
       <use xlink:href="#DejaVuSans-2212"/>
       <use x="83.789062" xlink:href="#DejaVuSans-32"/>
       <use x="147.412109" xlink:href="#DejaVuSans-30"/>
       <use x="211.035156" xlink:href="#DejaVuSans-30"/>
      </g>
     </g>
    </g>
    <g id="ytick_6">
     <g id="line2d_15">
      <g>
       <use style="stroke:#000000;stroke-width:0.8;" x="57.6" xlink:href="#mc6ff23f09b" y="69.113574"/>
      </g>
     </g>
     <g id="text_16">
      <!-- 0 -->
      <g transform="translate(44.2375 72.912793)scale(0.1 -0.1)">
       <use xlink:href="#DejaVuSans-30"/>
      </g>
     </g>
    </g>
   </g>
   <g id="line2d_16">
    <path clip-path="url(#pad4d948596)" d="M 73.832727 80.455931 
L 74.239053 113.669504 
L 75.051706 149.659894 
L 75.458032 143.864964 
L 75.864358 165.282996 
L 76.270684 156.818452 
L 76.67701 168.548891 
L 77.083336 173.871601 
L 77.489662 173.70787 
L 77.895988 182.103744 
L 78.302314 162.695017 
L 78.70864 187.516708 
L 79.114966 186.674793 
L 79.521293 183.227015 
L 80.333945 197.586262 
L 80.740271 198.324615 
L 81.146597 208.072675 
L 81.552923 200.15688 
L 81.959249 208.151354 
L 82.365575 193.068911 
L 82.771901 210.571944 
L 83.178227 209.809957 
L 83.584553 206.933088 
L 83.99088 206.536476 
L 84.397206 214.789562 
L 84.803532 209.155216 
L 85.209858 221.264307 
L 85.616184 216.606223 
L 86.02251 219.225821 
L 86.428836 220.310077 
L 86.835162 223.006529 
L 87.241488 210.28671 
L 87.647814 219.341543 
L 88.05414 218.051961 
L 88.460466 228.873837 
L 88.866793 222.889534 
L 89.273119 224.82972 
L 89.679445 222.836028 
L 90.085771 214.978728 
L 90.492097 222.2827 
L 90.898423 234.1861 
L 91.304749 227.740641 
L 91.711075 227.502716 
L 92.117401 211.791661 
L 92.523727 232.361921 
L 92.930053 229.516712 
L 93.33638 233.401243 
L 93.742706 227.053144 
L 94.149032 231.513241 
L 94.555358 234.211614 
L 94.961684 234.158903 
L 95.36801 243.809738 
L 95.774336 234.323094 
L 96.180662 239.847812 
L 96.586988 238.404398 
L 96.993314 234.259064 
L 97.39964 234.121358 
L 97.805967 236.884132 
L 98.212293 233.588533 
L 98.618619 245.98716 
L 99.024945 239.625394 
L 99.431271 239.645639 
L 99.837597 236.372732 
L 100.243923 237.914017 
L 100.650249 236.217225 
L 101.056575 237.362931 
L 101.869227 243.166541 
L 102.275554 227.783149 
L 102.68188 234.553617 
L 103.088206 243.566571 
L 103.494532 229.999792 
L 103.900858 239.923116 
L 104.307184 243.179332 
L 104.71351 244.456086 
L 105.119836 234.975999 
L 105.526162 248.176489 
L 105.932488 238.54634 
L 106.338814 240.157651 
L 106.745141 240.532857 
L 107.151467 246.053196 
L 107.557793 237.702313 
L 107.964119 243.119368 
L 108.370445 242.669896 
L 108.776771 238.620505 
L 109.183097 241.597124 
L 109.589423 242.099267 
L 109.995749 244.680562 
L 110.402075 248.995667 
L 110.808401 250.919152 
L 111.214728 236.6199 
L 112.02738 246.640986 
L 112.840032 248.653371 
L 113.246358 248.835993 
L 113.652684 247.885148 
L 114.05901 245.697645 
L 114.465336 241.682256 
L 114.871662 244.678821 
L 115.277988 244.941528 
L 115.684314 252.573308 
L 116.090641 251.059213 
L 116.496967 239.975489 
L 116.903293 243.113117 
L 117.309619 249.909321 
L 117.715945 248.000548 
L 118.122271 247.416091 
L 118.934923 255.292494 
L 119.341249 253.275008 
L 119.747575 259.810026 
L 120.153901 255.428715 
L 120.560228 244.15214 
L 120.966554 254.895598 
L 121.37288 246.21941 
L 121.779206 240.699339 
L 122.185532 256.823798 
L 122.591858 247.342825 
L 122.998184 251.06919 
L 123.40451 258.186025 
L 123.810836 250.336902 
L 124.623488 253.215987 
L 125.029815 245.206816 
L 125.842467 252.711802 
L 126.248793 251.003072 
L 126.655119 264.70851 
L 127.061445 241.817035 
L 127.467771 249.903605 
L 127.874097 240.068494 
L 128.280423 243.676221 
L 128.686749 254.792742 
L 129.093075 249.396856 
L 129.499402 246.122475 
L 130.312054 257.47462 
L 130.71838 244.792175 
L 131.124706 247.974015 
L 131.531032 254.294551 
L 131.937358 251.152627 
L 132.343684 246.02298 
L 132.75001 253.219858 
L 133.156336 264.932925 
L 133.562662 256.166044 
L 133.968989 253.690352 
L 134.375315 252.112487 
L 134.781641 256.765249 
L 135.187967 256.542733 
L 135.594293 258.303492 
L 136.000619 257.692837 
L 136.406945 245.704653 
L 136.813271 256.820097 
L 137.219597 254.10579 
L 137.625923 258.938922 
L 138.032249 253.537663 
L 138.438575 259.673544 
L 138.844902 255.938382 
L 139.251228 244.501929 
L 139.657554 255.752116 
L 140.06388 241.100502 
L 140.470206 249.717811 
L 140.876532 262.68023 
L 141.282858 257.929433 
L 141.689184 249.970311 
L 142.09551 258.971489 
L 142.501836 260.090461 
L 142.908162 251.341845 
L 143.314489 253.574998 
L 144.127141 253.78109 
L 144.533467 249.820617 
L 144.939793 253.948341 
L 145.346119 252.829006 
L 145.752445 252.572858 
L 146.158771 255.601174 
L 146.565097 254.064049 
L 146.971423 260.579794 
L 147.377749 257.222 
L 147.784076 248.726661 
L 148.190402 255.304002 
L 148.596728 258.779044 
L 149.003054 254.113645 
L 149.40938 255.918197 
L 149.815706 244.378824 
L 150.222032 263.996832 
L 150.628358 258.499825 
L 151.034684 257.760633 
L 151.44101 264.956581 
L 151.847336 251.166114 
L 152.253663 256.167878 
L 152.659989 255.221879 
L 153.066315 257.381114 
L 153.472641 258.106616 
L 153.878967 268.59368 
L 154.285293 262.085639 
L 154.691619 252.251877 
L 155.097945 250.57249 
L 155.504271 255.743948 
L 155.910597 246.56314 
L 156.316923 253.145375 
L 156.72325 268.768096 
L 157.129576 255.741539 
L 157.535902 251.9483 
L 157.942228 255.805363 
L 158.348554 250.765453 
L 158.75488 256.791856 
L 159.161206 251.677474 
L 159.567532 253.222212 
L 159.973858 264.654342 
L 160.380184 258.850967 
L 160.78651 256.347347 
L 161.192837 256.532414 
L 161.599163 258.718701 
L 162.005489 266.810971 
L 162.411815 253.458191 
L 162.818141 255.24441 
L 163.224467 252.851666 
L 163.630793 263.023842 
L 164.037119 241.251357 
L 164.443445 227.647254 
L 164.849771 244.278415 
L 165.256097 242.370575 
L 165.662423 255.552171 
L 166.06875 264.198586 
L 166.475076 260.18653 
L 166.881402 252.428873 
L 167.287728 262.418523 
L 167.694054 251.715883 
L 168.10038 252.889447 
L 168.506706 258.874127 
L 168.913032 261.139421 
L 169.319358 257.103772 
L 169.725684 243.979229 
L 170.13201 255.926113 
L 170.538337 260.306042 
L 171.350989 260.946774 
L 171.757315 259.68022 
L 172.163641 253.795248 
L 172.976293 265.462942 
L 173.382619 253.53897 
L 174.195271 250.365835 
L 174.601597 264.042198 
L 175.007924 254.438086 
L 175.41425 258.273164 
L 175.820576 250.439891 
L 177.039554 261.053275 
L 177.44588 268.138352 
L 177.852206 257.576702 
L 178.258532 255.935759 
L 178.664858 257.812269 
L 179.071184 255.725818 
L 179.477511 258.609879 
L 179.883837 255.037336 
L 180.290163 268.154334 
L 180.696489 260.694184 
L 181.102815 261.780947 
L 181.509141 268.430773 
L 181.915467 257.760126 
L 182.321793 257.61116 
L 182.728119 271.613895 
L 183.134445 254.895088 
L 183.540771 264.779635 
L 183.947098 263.612078 
L 184.353424 245.64011 
L 184.75975 266.567876 
L 185.166076 259.373351 
L 185.572402 259.627426 
L 185.978728 260.920457 
L 186.385054 271.086206 
L 186.79138 257.747651 
L 187.197706 261.139391 
L 187.604032 263.217327 
L 188.010358 261.768353 
L 188.416684 262.005122 
L 188.823011 260.490997 
L 189.229337 261.684377 
L 189.635663 265.145072 
L 190.041989 265.029865 
L 190.448315 258.824634 
L 190.854641 270.67218 
L 191.260967 266.495677 
L 191.667293 257.882495 
L 192.073619 257.495691 
L 192.479945 261.090745 
L 192.886271 265.813526 
L 193.292598 263.874605 
L 193.698924 268.977076 
L 194.10525 267.736133 
L 194.511576 264.569902 
L 195.324228 269.521079 
L 195.730554 257.550546 
L 196.13688 267.494188 
L 196.543206 259.899405 
L 196.949532 266.880199 
L 197.355858 260.993979 
L 197.762185 243.876309 
L 198.168511 263.614851 
L 198.574837 269.063337 
L 198.981163 262.100455 
L 199.387489 259.682766 
L 199.793815 256.464751 
L 200.200141 266.606887 
L 200.606467 260.981356 
L 201.012793 263.396799 
L 201.419119 261.458943 
L 201.825445 265.666341 
L 202.231772 262.131311 
L 202.638098 250.334782 
L 203.044424 263.440429 
L 203.45075 253.494227 
L 203.857076 264.442756 
L 204.263402 267.664128 
L 204.669728 263.491406 
L 205.076054 261.944894 
L 205.48238 256.351719 
L 205.888706 261.989363 
L 206.295032 261.071591 
L 206.701359 241.180335 
L 207.107685 265.835189 
L 207.514011 265.732183 
L 207.920337 270.237517 
L 208.326663 261.720999 
L 208.732989 261.775164 
L 209.545641 267.115949 
L 209.951967 269.454882 
L 210.358293 267.558961 
L 210.764619 267.016273 
L 211.170946 262.77429 
L 211.577272 265.954327 
L 211.983598 270.926872 
L 212.389924 269.879187 
L 213.202576 263.648532 
L 213.608902 267.456537 
L 214.015228 262.959123 
L 214.421554 265.402005 
L 214.82788 272.478341 
L 215.234206 267.577432 
L 215.640532 272.8303 
L 216.046859 252.622933 
L 216.453185 272.056933 
L 216.859511 266.49493 
L 217.265837 266.108205 
L 217.672163 264.269689 
L 218.078489 257.083821 
L 218.484815 272.52892 
L 218.891141 264.833846 
L 219.297467 268.252753 
L 219.703793 258.497122 
L 220.110119 268.382994 
L 220.516446 267.522117 
L 220.922772 261.997894 
L 221.329098 270.604821 
L 221.735424 255.244294 
L 222.14175 273.29083 
L 222.548076 269.80673 
L 222.954402 262.643659 
L 223.360728 271.249904 
L 223.767054 274.283437 
L 224.17338 265.748497 
L 224.579706 260.635976 
L 224.986033 273.788946 
L 225.392359 262.597405 
L 225.798685 273.782717 
L 226.205011 261.61997 
L 226.611337 258.28152 
L 227.017663 266.748593 
L 227.423989 265.572526 
L 227.830315 277.228607 
L 228.236641 260.835896 
L 228.642967 268.776544 
L 229.049293 261.784238 
L 229.45562 264.169203 
L 229.861946 267.824625 
L 230.268272 265.74783 
L 230.674598 273.47553 
L 231.080924 260.322213 
L 231.48725 273.149711 
L 231.893576 276.469984 
L 232.299902 277.436218 
L 232.706228 262.918655 
L 233.112554 265.606084 
L 233.51888 272.096501 
L 233.925207 264.639896 
L 234.331533 272.092631 
L 235.144185 266.404027 
L 235.550511 279.153086 
L 235.956837 270.248233 
L 236.363163 279.389858 
L 236.769489 263.263194 
L 237.175815 269.87218 
L 237.582141 269.97449 
L 237.988467 276.612163 
L 238.394793 269.070241 
L 238.80112 264.409729 
L 239.613772 273.459981 
L 240.020098 274.996844 
L 240.426424 273.987099 
L 240.83275 275.748419 
L 241.239076 264.620589 
L 241.645402 274.188568 
L 242.051728 265.855178 
L 242.458054 269.787977 
L 242.86438 276.967294 
L 243.270707 269.438858 
L 243.677033 258.672731 
L 244.489685 272.38866 
L 244.896011 265.369919 
L 245.302337 266.393804 
L 245.708663 272.262964 
L 246.114989 273.485147 
L 246.521315 282.832048 
L 246.927641 269.303599 
L 247.333967 274.961732 
L 247.740294 271.222641 
L 248.14662 270.603175 
L 248.552946 267.709241 
L 248.959272 272.726869 
L 249.365598 264.413982 
L 249.771924 282.027395 
L 250.17825 268.946724 
L 250.584576 264.176037 
L 250.990902 272.582666 
L 251.397228 275.561255 
L 251.803554 262.893884 
L 252.209881 267.585071 
L 252.616207 270.517546 
L 253.022533 271.012027 
L 253.428859 278.529785 
L 253.835185 273.698564 
L 254.241511 270.426823 
L 254.647837 272.063941 
L 255.054163 277.073114 
L 255.460489 273.305494 
L 255.866815 276.178032 
L 256.273141 270.88344 
L 256.679468 270.217506 
L 257.085794 279.34641 
L 257.49212 282.050203 
L 257.898446 274.574069 
L 258.304772 274.823583 
L 258.711098 269.753328 
L 259.117424 271.462497 
L 259.52375 279.613728 
L 259.930076 278.95011 
L 260.336402 266.826286 
L 261.149054 283.245527 
L 261.555381 257.776494 
L 261.961707 272.893721 
L 262.368033 273.385786 
L 262.774359 281.790819 
L 263.180685 275.677495 
L 264.399663 265.398889 
L 264.805989 266.555195 
L 265.212315 280.468201 
L 266.024968 264.684015 
L 266.431294 265.532862 
L 266.83762 276.548991 
L 267.243946 269.90258 
L 268.86925 278.399924 
L 269.275576 270.132865 
L 269.681902 279.298226 
L 270.494555 273.889596 
L 270.900881 276.813882 
L 271.713533 272.966703 
L 272.119859 284.139568 
L 272.526185 277.880253 
L 272.932511 279.595587 
L 273.338837 280.631788 
L 273.745163 273.307133 
L 274.151489 275.086009 
L 274.557815 273.37761 
L 274.964142 283.476502 
L 275.370468 266.953327 
L 275.776794 275.25086 
L 276.18312 275.137406 
L 276.589446 275.574845 
L 276.995772 275.368712 
L 277.402098 280.082187 
L 277.808424 278.32817 
L 278.21475 275.26358 
L 278.621076 282.635371 
L 279.027402 265.809364 
L 279.433729 261.119564 
L 279.840055 279.48907 
L 280.246381 276.271866 
L 280.652707 276.039316 
L 281.059033 269.635014 
L 281.465359 265.87317 
L 281.871685 267.798785 
L 282.278011 272.399541 
L 282.684337 274.214627 
L 283.090663 287.191699 
L 283.496989 271.69591 
L 283.903316 278.023552 
L 284.309642 273.235782 
L 284.715968 266.433381 
L 285.122294 284.155241 
L 285.52862 273.501217 
L 286.341272 273.554971 
L 286.747598 268.611196 
L 287.153924 275.724416 
L 287.56025 275.203467 
L 287.966576 280.500098 
L 288.372902 275.016988 
L 288.779229 267.622869 
L 289.185555 263.649376 
L 289.591881 280.727718 
L 289.998207 279.218025 
L 290.404533 279.281106 
L 290.810859 278.659791 
L 291.217185 269.02579 
L 291.623511 281.240312 
L 292.029837 281.543851 
L 292.436163 268.509091 
L 293.248816 279.821368 
L 293.655142 273.073341 
L 294.061468 269.871948 
L 294.87412 287.000512 
L 295.280446 275.026973 
L 295.686772 276.309814 
L 296.093098 292.269917 
L 296.499424 281.386677 
L 296.90575 280.236744 
L 297.718403 269.273169 
L 298.124729 283.565426 
L 298.531055 271.867411 
L 298.937381 277.38869 
L 299.343707 278.739373 
L 299.750033 275.726678 
L 300.156359 276.670224 
L 300.562685 272.968927 
L 300.969011 281.871729 
L 301.375337 271.313441 
L 302.18799 282.32422 
L 302.594316 276.270549 
L 303.000642 279.041815 
L 303.406968 274.705809 
L 303.813294 276.943529 
L 304.21962 280.572113 
L 304.625946 276.464784 
L 305.032272 278.389042 
L 305.438598 272.666684 
L 305.844924 273.648945 
L 306.25125 282.825082 
L 306.657577 278.650613 
L 307.063903 277.363699 
L 307.470229 274.088815 
L 307.876555 280.520206 
L 308.282881 278.368067 
L 308.689207 279.998764 
L 309.095533 285.168906 
L 309.501859 271.117042 
L 309.908185 271.076331 
L 310.314511 263.35415 
L 310.720837 281.309058 
L 311.53349 269.979414 
L 312.346142 273.879561 
L 312.752468 283.601469 
L 313.158794 271.524234 
L 313.56512 270.092616 
L 313.971446 286.83226 
L 314.377772 276.022213 
L 314.784098 276.021428 
L 315.190424 272.893372 
L 316.003077 281.095724 
L 316.409403 264.077359 
L 316.815729 271.99334 
L 317.222055 271.509661 
L 317.628381 270.825382 
L 318.034707 273.872737 
L 318.441033 282.958975 
L 318.847359 277.441501 
L 319.253685 278.550672 
L 319.660011 282.860833 
L 320.066337 274.919275 
L 320.472664 284.490082 
L 320.87899 281.726398 
L 321.285316 284.619972 
L 321.691642 277.714559 
L 322.097968 277.79509 
L 322.504294 279.112837 
L 322.91062 270.998516 
L 323.316946 275.428825 
L 323.723272 276.420706 
L 324.129598 270.766678 
L 324.535924 268.687369 
L 324.942251 282.078589 
L 325.348577 280.213221 
L 325.754903 272.806452 
L 326.161229 287.67401 
L 326.567555 284.367977 
L 326.973881 267.887413 
L 327.380207 278.744392 
L 327.786533 282.756654 
L 328.192859 275.301164 
L 328.599185 271.264063 
L 329.005511 289.49729 
L 329.411838 279.463135 
L 329.818164 286.898198 
L 330.22449 278.576269 
L 330.630816 273.877783 
L 331.443468 282.960328 
L 331.849794 274.619314 
L 332.25612 276.883557 
L 332.662446 276.322336 
L 333.068772 278.456324 
L 333.475098 292.902946 
L 333.881425 275.717732 
L 334.287751 273.717912 
L 334.694077 276.360023 
L 335.100403 262.870351 
L 335.506729 279.95523 
L 336.319381 278.392488 
L 336.725707 283.918194 
L 337.132033 281.227111 
L 337.538359 272.827721 
L 337.944685 281.94536 
L 338.351011 279.849908 
L 338.757338 272.187288 
L 339.163664 266.757354 
L 339.56999 277.909355 
L 339.976316 285.569534 
L 340.382642 281.115532 
L 340.788968 287.616185 
L 341.195294 279.203581 
L 341.60162 261.6153 
L 342.007946 269.810856 
L 342.414272 269.623766 
L 342.820598 279.603474 
L 343.226925 280.546581 
L 343.633251 285.845499 
L 344.039577 280.412984 
L 344.445903 270.258081 
L 344.852229 277.294056 
L 345.258555 290.502797 
L 345.664881 269.611446 
L 346.071207 276.585464 
L 346.477533 278.269826 
L 346.883859 278.76289 
L 347.290185 278.849622 
L 347.696512 283.664379 
L 348.102838 283.038516 
L 348.509164 291.268922 
L 348.91549 281.606202 
L 349.321816 285.224758 
L 349.728142 280.787366 
L 350.134468 277.982876 
L 350.540794 286.101845 
L 351.353446 283.880087 
L 351.759772 282.186309 
L 352.166099 281.487172 
L 352.572425 280.416361 
L 352.978751 280.129721 
L 353.385077 280.18712 
L 353.791403 280.667382 
L 354.197729 273.794108 
L 354.604055 287.108803 
L 355.010381 281.477132 
L 355.416707 272.191801 
L 355.823033 286.038366 
L 356.229359 283.888178 
L 356.635686 280.399883 
L 357.042012 271.60444 
L 357.448338 269.706656 
L 357.854664 284.594215 
L 358.26099 284.718163 
L 358.667316 282.228392 
L 359.073642 277.84266 
L 359.479968 288.619376 
L 359.886294 273.556804 
L 360.29262 270.463385 
L 360.698946 274.005881 
L 361.105272 281.472818 
L 361.511599 275.014582 
L 361.917925 276.706259 
L 362.324251 274.615174 
L 362.730577 276.780254 
L 363.136903 277.756051 
L 363.543229 277.749099 
L 363.949555 269.400758 
L 364.355881 274.939654 
L 364.762207 264.435421 
L 365.168533 276.690272 
L 365.574859 273.707855 
L 365.981186 290.533316 
L 366.387512 277.606713 
L 366.793838 272.646794 
L 367.200164 284.121479 
L 367.60649 273.275292 
L 368.012816 284.820792 
L 368.419142 280.845214 
L 368.825468 268.137291 
L 369.231794 274.798661 
L 369.63812 285.182264 
L 370.044446 275.290635 
L 370.450773 272.927212 
L 370.857099 291.890452 
L 371.263425 282.72058 
L 371.669751 285.311485 
L 372.076077 278.618559 
L 372.482403 292.054279 
L 372.888729 288.345378 
L 373.295055 270.315637 
L 373.701381 272.503543 
L 374.107707 286.609067 
L 374.514033 282.970368 
L 374.92036 280.54103 
L 375.326686 289.075819 
L 375.733012 280.471303 
L 376.139338 287.124716 
L 377.358316 279.000488 
L 377.764642 283.523554 
L 378.170968 285.474302 
L 378.577294 275.404194 
L 378.98362 279.382224 
L 379.389947 289.075946 
L 379.796273 290.167812 
L 380.202599 279.673834 
L 380.608925 288.534599 
L 381.015251 280.508189 
L 381.421577 281.789041 
L 381.827903 275.023607 
L 382.234229 282.843823 
L 382.640555 279.790854 
L 383.046881 286.93967 
L 383.453207 282.239473 
L 383.859534 284.959628 
L 384.26586 284.536303 
L 384.672186 275.236802 
L 385.078512 278.27601 
L 385.484838 289.79262 
L 385.891164 273.313727 
L 386.29749 285.533205 
L 386.703816 271.071518 
L 387.110142 283.408478 
L 387.516468 281.04036 
L 387.922794 270.155649 
L 388.32912 295.488 
L 388.735447 280.191231 
L 389.141773 277.233719 
L 389.548099 283.06428 
L 389.954425 266.247906 
L 390.360751 279.987164 
L 390.767077 277.535705 
L 391.173403 289.20277 
L 391.579729 271.640787 
L 391.986055 272.677572 
L 392.392381 281.245879 
L 392.798707 277.093256 
L 393.205034 280.114738 
L 393.61136 274.97296 
L 394.017686 276.107186 
L 394.424012 279.770774 
L 394.830338 274.739355 
L 395.236664 284.17767 
L 395.64299 280.503513 
L 396.049316 283.077443 
L 396.455642 273.677668 
L 396.861968 278.329581 
L 397.268294 286.871768 
L 397.674621 273.853073 
L 398.080947 278.560741 
L 398.487273 272.523068 
L 398.487273 272.523068 
" style="fill:none;stroke:#1f77b4;stroke-linecap:square;stroke-width:1.5;"/>
   </g>
   <g id="line2d_17">
    <path clip-path="url(#pad4d948596)" d="M 73.832727 53.568 
L 74.239053 144.811851 
L 74.645379 122.316841 
L 75.051706 158.73479 
L 75.458032 155.381577 
L 75.864358 160.542576 
L 76.270684 157.546672 
L 76.67701 176.071306 
L 77.083336 178.716302 
L 77.489662 184.002641 
L 77.895988 183.566645 
L 78.302314 184.587478 
L 78.70864 189.052008 
L 79.114966 188.814562 
L 79.521293 192.65205 
L 79.927619 194.068954 
L 80.333945 187.087879 
L 80.740271 210.897568 
L 81.146597 201.28551 
L 81.552923 196.913123 
L 81.959249 211.007167 
L 82.365575 211.394226 
L 82.771901 212.43413 
L 83.178227 209.338082 
L 83.584553 216.905521 
L 83.99088 209.926575 
L 84.397206 210.262359 
L 84.803532 218.195405 
L 85.209858 214.317074 
L 85.616184 212.468617 
L 86.02251 211.578271 
L 86.428836 215.489999 
L 86.835162 222.150586 
L 87.241488 212.513606 
L 87.647814 224.406265 
L 88.05414 221.712623 
L 88.460466 223.864911 
L 88.866793 223.875966 
L 89.273119 234.085955 
L 89.679445 235.855476 
L 90.085771 221.348576 
L 90.492097 230.05002 
L 90.898423 227.565423 
L 91.304749 230.347398 
L 91.711075 227.416059 
L 92.117401 233.970808 
L 92.523727 234.486453 
L 92.930053 227.500634 
L 93.33638 233.229291 
L 93.742706 222.756512 
L 94.149032 237.305286 
L 94.555358 231.63756 
L 94.961684 233.884604 
L 95.36801 238.410323 
L 95.774336 229.351811 
L 96.180662 234.037826 
L 96.586988 237.197877 
L 96.993314 242.183584 
L 97.39964 232.622082 
L 97.805967 231.808764 
L 98.212293 241.427635 
L 98.618619 241.963889 
L 99.024945 235.36099 
L 99.431271 235.846424 
L 99.837597 239.107823 
L 100.243923 239.978818 
L 100.650249 248.473499 
L 101.056575 233.458199 
L 101.462901 241.17915 
L 101.869227 235.989616 
L 102.68188 239.289111 
L 103.088206 238.678747 
L 103.494532 242.863192 
L 103.900858 244.861739 
L 104.307184 242.408351 
L 104.71351 237.808834 
L 105.526162 244.356602 
L 105.932488 243.686095 
L 106.338814 249.385891 
L 107.151467 241.599897 
L 107.964119 237.699886 
L 108.370445 244.465322 
L 108.776771 246.721066 
L 109.183097 244.535467 
L 109.995749 236.126812 
L 110.402075 239.321583 
L 110.808401 245.145528 
L 111.214728 247.055175 
L 111.621054 241.790986 
L 112.02738 250.340233 
L 112.433706 245.645107 
L 112.840032 244.92384 
L 113.246358 243.550891 
L 113.652684 251.574193 
L 114.05901 222.444739 
L 114.465336 245.000579 
L 114.871662 250.156075 
L 115.277988 244.094861 
L 115.684314 249.77296 
L 116.090641 244.437966 
L 116.496967 248.970631 
L 116.903293 251.781526 
L 117.309619 242.678077 
L 117.715945 242.446291 
L 118.122271 248.698341 
L 118.528597 242.512178 
L 118.934923 245.777661 
L 119.341249 251.740553 
L 119.747575 248.472963 
L 120.153901 247.357503 
L 120.560228 244.75458 
L 120.966554 249.486087 
L 121.37288 226.020112 
L 121.779206 248.020394 
L 122.185532 248.469294 
L 122.591858 252.028614 
L 122.998184 246.099866 
L 123.40451 249.348519 
L 123.810836 247.551571 
L 124.217162 248.789025 
L 124.623488 252.839202 
L 125.029815 250.75464 
L 125.436141 253.413752 
L 125.842467 248.798024 
L 126.248793 250.529593 
L 126.655119 253.508613 
L 127.061445 249.632683 
L 127.467771 250.399453 
L 127.874097 241.977532 
L 128.280423 241.140375 
L 128.686749 249.686991 
L 129.093075 248.258986 
L 129.499402 254.686767 
L 129.905728 244.49865 
L 130.312054 252.459999 
L 130.71838 248.630743 
L 131.124706 251.044731 
L 131.531032 247.876221 
L 131.937358 247.434164 
L 132.343684 250.963231 
L 132.75001 246.137725 
L 133.156336 253.023667 
L 133.562662 247.077438 
L 133.968989 253.244786 
L 134.375315 251.009276 
L 134.781641 251.45474 
L 135.187967 254.248582 
L 135.594293 247.771049 
L 136.000619 250.53616 
L 136.406945 251.318935 
L 136.813271 255.380164 
L 137.219597 246.874852 
L 137.625923 247.970833 
L 138.032249 256.584179 
L 138.438575 251.471874 
L 138.844902 249.533752 
L 139.251228 253.060452 
L 140.06388 233.768606 
L 140.470206 255.807809 
L 140.876532 254.025487 
L 141.282858 254.653514 
L 141.689184 250.794609 
L 142.09551 253.190708 
L 142.501836 246.841315 
L 143.314489 253.338253 
L 143.720815 254.274346 
L 144.127141 243.284925 
L 144.533467 253.481427 
L 144.939793 248.887503 
L 145.346119 256.354081 
L 145.752445 252.355471 
L 146.158771 260.533064 
L 146.565097 258.130689 
L 146.971423 253.436345 
L 147.377749 257.829738 
L 147.784076 251.426022 
L 148.190402 251.369607 
L 148.596728 262.896825 
L 149.003054 251.59312 
L 149.40938 258.47127 
L 149.815706 250.974984 
L 150.222032 258.433314 
L 150.628358 251.478545 
L 151.034684 251.847731 
L 151.44101 251.480853 
L 151.847336 252.591354 
L 152.253663 254.040528 
L 152.659989 250.71397 
L 153.066315 259.538707 
L 153.472641 251.479693 
L 153.878967 255.008556 
L 154.285293 260.520592 
L 154.691619 250.662872 
L 155.097945 255.888576 
L 155.504271 258.218582 
L 155.910597 255.69835 
L 156.316923 248.308075 
L 157.129576 264.888678 
L 157.535902 255.208789 
L 157.942228 251.173986 
L 158.348554 256.966975 
L 158.75488 256.342357 
L 159.161206 258.950668 
L 159.567532 257.456244 
L 159.973858 256.890088 
L 160.78651 264.410653 
L 161.192837 254.192967 
L 161.599163 251.393212 
L 162.005489 265.416981 
L 162.411815 259.178197 
L 162.818141 258.299642 
L 163.224467 254.341778 
L 163.630793 259.372279 
L 164.037119 211.152686 
L 164.443445 240.193008 
L 164.849771 249.18601 
L 165.256097 244.34021 
L 165.662423 252.097383 
L 166.06875 256.009825 
L 166.475076 258.446626 
L 166.881402 263.135628 
L 167.287728 259.40326 
L 167.694054 248.523073 
L 168.10038 244.190537 
L 168.506706 254.86635 
L 168.913032 259.400935 
L 169.319358 251.46566 
L 169.725684 256.601927 
L 170.13201 258.491823 
L 170.538337 255.166286 
L 170.944663 260.692069 
L 171.350989 260.679555 
L 172.163641 253.012921 
L 172.569967 253.666189 
L 172.976293 261.918992 
L 173.382619 261.375333 
L 173.788945 221.561606 
L 174.195271 255.186451 
L 174.601597 253.59736 
L 175.007924 254.893722 
L 175.41425 251.701534 
L 175.820576 259.731448 
L 176.226902 254.997052 
L 176.633228 260.360422 
L 177.039554 251.428078 
L 177.44588 257.506829 
L 177.852206 261.206659 
L 178.258532 263.009842 
L 178.664858 257.878096 
L 179.071184 254.548571 
L 179.477511 256.724449 
L 179.883837 265.118077 
L 180.290163 238.925712 
L 181.102815 261.877169 
L 181.509141 265.670223 
L 181.915467 264.740799 
L 182.321793 266.506599 
L 182.728119 255.315293 
L 183.134445 249.79629 
L 183.540771 256.671484 
L 183.947098 257.742804 
L 184.353424 257.584325 
L 184.75975 250.599268 
L 185.166076 255.37965 
L 185.572402 261.756072 
L 185.978728 254.352508 
L 186.385054 253.933277 
L 186.79138 259.534068 
L 187.197706 261.640687 
L 187.604032 258.557151 
L 188.010358 259.015634 
L 188.416684 265.809581 
L 188.823011 253.814549 
L 189.229337 261.124454 
L 189.635663 255.046833 
L 190.041989 259.973472 
L 190.448315 259.116741 
L 190.854641 263.197379 
L 191.260967 257.329994 
L 191.667293 260.405299 
L 192.073619 264.449896 
L 192.479945 256.541852 
L 192.886271 252.028775 
L 193.292598 263.077675 
L 193.698924 256.952063 
L 194.10525 256.069373 
L 194.511576 261.227177 
L 194.917902 255.78691 
L 195.324228 257.507098 
L 195.730554 247.432222 
L 196.13688 258.549727 
L 196.949532 264.849975 
L 197.355858 258.994403 
L 198.574837 263.477725 
L 198.981163 260.323973 
L 199.387489 254.589026 
L 199.793815 261.165394 
L 200.200141 255.322803 
L 200.606467 262.998681 
L 201.012793 262.179187 
L 201.419119 259.607935 
L 201.825445 269.211392 
L 202.231772 265.27663 
L 202.638098 265.598558 
L 203.044424 250.948273 
L 203.45075 265.766348 
L 203.857076 258.214904 
L 204.263402 271.017528 
L 204.669728 253.505879 
L 205.076054 252.822466 
L 205.48238 261.761075 
L 205.888706 264.603322 
L 206.295032 264.022484 
L 206.701359 259.472649 
L 207.107685 260.936672 
L 207.514011 259.16778 
L 207.920337 258.09904 
L 208.326663 254.973902 
L 208.732989 260.252963 
L 209.139315 252.048029 
L 209.545641 262.378332 
L 209.951967 259.687706 
L 210.358293 262.417166 
L 210.764619 262.892972 
L 211.170946 264.056805 
L 211.577272 267.010913 
L 211.983598 258.195965 
L 212.389924 269.539286 
L 212.79625 267.025922 
L 213.202576 256.895893 
L 213.608902 264.323878 
L 214.015228 255.330698 
L 214.421554 266.127883 
L 214.82788 265.395906 
L 215.234206 258.83955 
L 215.640532 261.280679 
L 216.046859 262.661917 
L 216.453185 257.566111 
L 216.859511 258.297719 
L 217.265837 261.847663 
L 217.672163 269.292507 
L 218.078489 254.015844 
L 218.484815 263.794669 
L 218.891141 262.294213 
L 219.297467 258.92559 
L 219.703793 258.43646 
L 220.516446 266.86054 
L 220.922772 257.203142 
L 221.329098 261.358012 
L 221.735424 266.716414 
L 222.14175 264.19104 
L 222.548076 264.173168 
L 222.954402 262.75273 
L 223.360728 264.402069 
L 223.767054 262.464733 
L 224.17338 262.079689 
L 224.579706 257.776316 
L 224.986033 255.940663 
L 225.392359 263.224788 
L 225.798685 255.718624 
L 226.205011 261.076693 
L 226.611337 259.903151 
L 227.017663 261.109744 
L 227.423989 267.159905 
L 227.830315 261.065389 
L 228.236641 264.551935 
L 228.642967 263.260038 
L 229.049293 271.988635 
L 229.45562 261.914537 
L 229.861946 269.587762 
L 230.268272 267.594646 
L 230.674598 263.581844 
L 231.080924 264.992979 
L 231.48725 268.404568 
L 231.893576 265.954136 
L 232.299902 272.659176 
L 232.706228 268.353916 
L 233.112554 266.316818 
L 233.51888 264.853347 
L 233.925207 257.079906 
L 234.331533 259.696978 
L 234.737859 260.070134 
L 235.144185 266.641282 
L 235.550511 269.433827 
L 235.956837 268.802142 
L 236.363163 261.098042 
L 236.769489 262.681882 
L 237.175815 264.747208 
L 237.582141 269.143567 
L 237.988467 265.551788 
L 238.394793 263.432388 
L 238.80112 263.671443 
L 239.207446 263.259581 
L 239.613772 266.25228 
L 240.020098 270.46242 
L 240.83275 263.122947 
L 241.239076 267.240966 
L 241.645402 258.750743 
L 242.051728 268.441388 
L 242.458054 269.253336 
L 242.86438 263.466774 
L 243.270707 260.680965 
L 243.677033 270.829175 
L 244.083359 263.580571 
L 244.489685 253.99864 
L 244.896011 272.607972 
L 245.302337 266.712881 
L 245.708663 270.142743 
L 246.114989 264.125603 
L 246.521315 273.4602 
L 246.927641 265.677068 
L 247.333967 266.296425 
L 247.740294 268.185776 
L 248.14662 270.904732 
L 248.552946 268.722813 
L 248.959272 270.210856 
L 249.365598 266.344712 
L 249.771924 275.721224 
L 250.17825 263.999627 
L 250.584576 269.917222 
L 250.990902 265.746401 
L 251.397228 264.174277 
L 251.803554 277.492969 
L 252.209881 268.11474 
L 252.616207 268.786992 
L 253.022533 267.559958 
L 253.428859 272.198508 
L 254.241511 265.076941 
L 254.647837 274.402995 
L 255.054163 276.240562 
L 255.460489 267.536109 
L 256.273141 267.875119 
L 256.679468 270.313571 
L 257.085794 267.541422 
L 257.49212 271.041995 
L 257.898446 263.877764 
L 258.304772 271.39555 
L 258.711098 272.24646 
L 259.117424 262.986745 
L 259.52375 268.988467 
L 259.930076 271.662908 
L 260.336402 269.298263 
L 260.742728 269.884997 
L 261.149054 257.788988 
L 261.555381 269.647059 
L 261.961707 266.258097 
L 262.368033 267.933927 
L 262.774359 271.196962 
L 263.587011 265.886289 
L 263.993337 258.968107 
L 264.399663 280.188937 
L 264.805989 276.372621 
L 265.212315 267.558643 
L 265.618641 265.918575 
L 266.024968 269.74248 
L 266.431294 277.948444 
L 266.83762 265.668862 
L 267.243946 266.678998 
L 267.650272 270.603824 
L 268.056598 266.261064 
L 268.462924 272.115389 
L 268.86925 259.847546 
L 269.275576 267.846421 
L 269.681902 278.558076 
L 270.088228 271.460614 
L 270.494555 260.160587 
L 270.900881 267.00444 
L 271.307207 269.930656 
L 271.713533 264.589298 
L 272.119859 272.781059 
L 272.526185 274.961026 
L 272.932511 273.632593 
L 273.338837 263.716684 
L 273.745163 262.897481 
L 274.151489 277.220305 
L 274.557815 277.032659 
L 274.964142 264.223605 
L 275.370468 263.50535 
L 275.776794 272.800688 
L 276.18312 274.108714 
L 276.589446 267.920023 
L 276.995772 267.829633 
L 277.402098 272.959874 
L 277.808424 259.437395 
L 278.21475 277.341484 
L 279.027402 261.381624 
L 279.840055 275.460766 
L 280.652707 253.149673 
L 281.059033 264.926629 
L 281.465359 260.383106 
L 281.871685 268.13372 
L 282.278011 271.923524 
L 282.684337 266.45534 
L 283.090663 263.827406 
L 283.496989 256.767635 
L 283.903316 269.966412 
L 284.309642 265.40732 
L 284.715968 264.294379 
L 285.122294 272.412291 
L 285.52862 272.684696 
L 285.934946 277.022393 
L 286.341272 279.531295 
L 286.747598 272.146686 
L 287.153924 277.120947 
L 287.56025 269.345369 
L 287.966576 271.305997 
L 288.372902 271.058857 
L 288.779229 257.686465 
L 289.185555 263.593381 
L 289.591881 271.866634 
L 289.998207 271.492379 
L 290.404533 271.957508 
L 290.810859 269.833309 
L 291.217185 277.507932 
L 291.623511 269.848592 
L 292.029837 270.473494 
L 292.436163 267.428213 
L 292.842489 268.49562 
L 293.248816 267.595636 
L 293.655142 283.372244 
L 294.467794 266.690317 
L 294.87412 272.696587 
L 295.280446 273.942858 
L 295.686772 277.397224 
L 296.093098 279.361484 
L 296.499424 271.428777 
L 296.90575 274.004432 
L 297.312076 275.237654 
L 297.718403 272.611285 
L 298.124729 273.095995 
L 298.531055 266.304792 
L 298.937381 276.567836 
L 299.343707 272.984618 
L 299.750033 266.864896 
L 300.156359 262.745609 
L 300.562685 271.961212 
L 300.969011 269.664385 
L 301.375337 268.475645 
L 301.781663 269.044972 
L 302.18799 270.599648 
L 302.594316 269.420757 
L 303.000642 265.271234 
L 303.406968 271.954985 
L 303.813294 267.169163 
L 304.21962 274.48171 
L 304.625946 256.223706 
L 305.032272 281.814957 
L 305.438598 275.497495 
L 305.844924 275.825786 
L 306.25125 270.217193 
L 306.657577 270.240319 
L 307.063903 269.266578 
L 307.470229 270.049703 
L 307.876555 268.575972 
L 308.282881 260.27598 
L 308.689207 275.20503 
L 309.095533 276.029475 
L 309.501859 270.420739 
L 309.908185 276.765303 
L 310.314511 268.4966 
L 310.720837 267.527316 
L 311.127163 276.453642 
L 311.53349 269.3151 
L 311.939816 269.872666 
L 312.346142 267.662354 
L 312.752468 275.778089 
L 313.158794 274.847781 
L 313.56512 273.047744 
L 313.971446 279.512956 
L 314.377772 276.824152 
L 314.784098 264.607168 
L 315.59675 278.308108 
L 316.003077 269.151367 
L 316.409403 273.583695 
L 316.815729 257.082418 
L 317.222055 274.02708 
L 317.628381 272.570932 
L 318.034707 267.08401 
L 318.847359 275.954265 
L 319.253685 266.81359 
L 319.660011 268.53545 
L 320.066337 277.913409 
L 320.472664 263.182696 
L 320.87899 269.946291 
L 321.285316 262.729897 
L 321.691642 269.924924 
L 322.097968 274.875619 
L 322.504294 271.166233 
L 323.316946 266.125568 
L 323.723272 273.441859 
L 324.129598 263.660696 
L 324.942251 283.018583 
L 325.754903 270.705238 
L 326.161229 270.023699 
L 326.567555 272.521073 
L 326.973881 270.128878 
L 327.380207 270.843154 
L 327.786533 266.767865 
L 328.192859 274.445847 
L 328.599185 272.688345 
L 329.005511 267.478608 
L 329.411838 271.098683 
L 329.818164 275.802187 
L 330.22449 272.431256 
L 330.630816 271.13209 
L 331.037142 262.647925 
L 331.443468 271.913467 
L 331.849794 276.344782 
L 332.25612 265.41218 
L 333.068772 275.770913 
L 333.475098 271.257223 
L 333.881425 272.294815 
L 334.287751 271.8843 
L 334.694077 270.107505 
L 335.506729 268.905694 
L 335.913055 268.773319 
L 336.319381 274.466582 
L 336.725707 277.209552 
L 337.132033 270.44004 
L 337.538359 273.908297 
L 337.944685 278.834204 
L 338.351011 262.770424 
L 338.757338 275.054526 
L 339.163664 276.231541 
L 339.56999 276.834216 
L 339.976316 267.37912 
L 340.382642 273.321537 
L 340.788968 264.608785 
L 341.195294 274.376419 
L 341.60162 250.085149 
L 342.007946 266.976164 
L 342.414272 267.610073 
L 342.820598 261.025859 
L 343.226925 258.371497 
L 343.633251 276.845602 
L 344.039577 264.043152 
L 344.445903 265.286948 
L 344.852229 260.097439 
L 345.258555 272.745327 
L 345.664881 277.080539 
L 346.071207 268.065222 
L 346.477533 270.995242 
L 346.883859 270.595105 
L 347.290185 267.826645 
L 347.696512 263.271783 
L 348.102838 274.041167 
L 348.509164 270.580241 
L 349.321816 267.948785 
L 349.728142 276.357712 
L 350.134468 274.195641 
L 350.540794 267.263152 
L 350.94712 277.771345 
L 351.353446 272.246177 
L 351.759772 271.816462 
L 352.166099 272.449323 
L 352.572425 273.602176 
L 353.385077 268.546458 
L 353.791403 266.963029 
L 354.197729 274.520939 
L 354.604055 278.186025 
L 355.010381 278.382969 
L 355.416707 276.005634 
L 355.823033 266.866449 
L 356.229359 271.25463 
L 356.635686 280.543521 
L 357.042012 262.900324 
L 357.448338 276.070673 
L 357.854664 264.092808 
L 358.26099 273.512575 
L 358.667316 275.962554 
L 359.073642 263.599687 
L 359.479968 268.070659 
L 359.886294 269.614712 
L 360.29262 273.068756 
L 360.698946 270.646134 
L 361.105272 276.373794 
L 361.511599 274.603236 
L 361.917925 276.012443 
L 362.324251 267.666468 
L 362.730577 280.943792 
L 363.136903 270.547281 
L 363.543229 273.675848 
L 363.949555 274.584265 
L 364.355881 268.822092 
L 364.762207 270.776127 
L 365.168533 270.40414 
L 365.574859 270.525133 
L 365.981186 269.345216 
L 366.387512 269.025424 
L 366.793838 274.080223 
L 367.200164 268.55498 
L 367.60649 272.167772 
L 368.012816 268.516248 
L 368.419142 272.339967 
L 368.825468 277.808915 
L 369.231794 277.055611 
L 369.63812 270.00509 
L 370.044446 266.744556 
L 370.450773 271.831847 
L 370.857099 270.309197 
L 371.263425 271.46997 
L 371.669751 282.709641 
L 372.076077 264.77869 
L 372.482403 277.305263 
L 372.888729 269.576095 
L 373.295055 266.696023 
L 373.701381 267.393151 
L 374.107707 273.539866 
L 374.514033 271.361811 
L 374.92036 263.574715 
L 375.326686 274.344032 
L 375.733012 270.799779 
L 376.139338 277.966978 
L 376.545664 271.196037 
L 376.95199 280.769614 
L 377.358316 271.128427 
L 377.764642 270.309826 
L 378.170968 266.73881 
L 378.577294 275.714751 
L 378.98362 265.953494 
L 379.389947 272.418536 
L 379.796273 268.583841 
L 380.202599 269.205502 
L 380.608925 272.764919 
L 381.015251 269.968851 
L 381.421577 266.016364 
L 381.827903 271.620476 
L 382.234229 270.659041 
L 382.640555 270.181125 
L 383.046881 275.099874 
L 383.453207 274.283041 
L 383.859534 274.977049 
L 384.672186 268.671316 
L 385.078512 266.901739 
L 385.484838 280.488244 
L 385.891164 271.869177 
L 386.29749 273.385051 
L 386.703816 268.314206 
L 387.110142 269.413165 
L 387.516468 270.147683 
L 387.922794 281.50361 
L 388.32912 271.874801 
L 388.735447 273.681775 
L 389.141773 278.43745 
L 389.954425 262.245728 
L 390.360751 266.966011 
L 390.767077 265.080093 
L 391.173403 270.936051 
L 391.579729 266.039445 
L 391.986055 275.409621 
L 392.392381 280.933939 
L 393.205034 271.511602 
L 393.61136 265.381242 
L 394.017686 275.134449 
L 394.424012 273.470358 
L 394.830338 272.282818 
L 395.236664 274.068123 
L 395.64299 273.487709 
L 396.049316 269.233947 
L 396.455642 276.608583 
L 396.861968 279.954814 
L 397.268294 269.827039 
L 397.674621 280.421988 
L 398.080947 266.757115 
L 398.487273 272.309855 
L 398.487273 272.309855 
" style="fill:none;stroke:#ff7f0e;stroke-linecap:square;stroke-width:1.5;"/>
   </g>
   <g id="patch_3">
    <path d="M 57.6 307.584 
L 57.6 41.472 
" style="fill:none;stroke:#000000;stroke-linecap:square;stroke-linejoin:miter;stroke-width:0.8;"/>
   </g>
   <g id="patch_4">
    <path d="M 414.72 307.584 
L 414.72 41.472 
" style="fill:none;stroke:#000000;stroke-linecap:square;stroke-linejoin:miter;stroke-width:0.8;"/>
   </g>
   <g id="patch_5">
    <path d="M 57.6 307.584 
L 414.72 307.584 
" style="fill:none;stroke:#000000;stroke-linecap:square;stroke-linejoin:miter;stroke-width:0.8;"/>
   </g>
   <g id="patch_6">
    <path d="M 57.6 41.472 
L 414.72 41.472 
" style="fill:none;stroke:#000000;stroke-linecap:square;stroke-linejoin:miter;stroke-width:0.8;"/>
   </g>
   <g id="legend_1">
    <g id="patch_7">
     <path d="M 303.845 78.82825 
L 407.72 78.82825 
Q 409.72 78.82825 409.72 76.82825 
L 409.72 48.472 
Q 409.72 46.472 407.72 46.472 
L 303.845 46.472 
Q 301.845 46.472 301.845 48.472 
L 301.845 76.82825 
Q 301.845 78.82825 303.845 78.82825 
z
" style="fill:#ffffff;opacity:0.8;stroke:#cccccc;stroke-linejoin:miter;"/>
    </g>
    <g id="line2d_18">
     <path d="M 305.845 54.570437 
L 325.845 54.570437 
" style="fill:none;stroke:#1f77b4;stroke-linecap:square;stroke-width:1.5;"/>
    </g>
    <g id="line2d_19"/>
    <g id="text_17">
     <!-- Train loss -->
     <g transform="translate(333.845 58.070437)scale(0.1 -0.1)">
      <defs>
       <path d="M -19 4666 
L 3928 4666 
L 3928 4134 
L 2272 4134 
L 2272 0 
L 1638 0 
L 1638 4134 
L -19 4134 
L -19 4666 
z
" id="DejaVuSans-54" transform="scale(0.015625)"/>
       <path d="M 2631 2963 
Q 2534 3019 2420 3045 
Q 2306 3072 2169 3072 
Q 1681 3072 1420 2755 
Q 1159 2438 1159 1844 
L 1159 0 
L 581 0 
L 581 3500 
L 1159 3500 
L 1159 2956 
Q 1341 3275 1631 3429 
Q 1922 3584 2338 3584 
Q 2397 3584 2469 3576 
Q 2541 3569 2628 3553 
L 2631 2963 
z
" id="DejaVuSans-72" transform="scale(0.015625)"/>
       <path d="M 2194 1759 
Q 1497 1759 1228 1600 
Q 959 1441 959 1056 
Q 959 750 1161 570 
Q 1363 391 1709 391 
Q 2188 391 2477 730 
Q 2766 1069 2766 1631 
L 2766 1759 
L 2194 1759 
z
M 3341 1997 
L 3341 0 
L 2766 0 
L 2766 531 
Q 2569 213 2275 61 
Q 1981 -91 1556 -91 
Q 1019 -91 701 211 
Q 384 513 384 1019 
Q 384 1609 779 1909 
Q 1175 2209 1959 2209 
L 2766 2209 
L 2766 2266 
Q 2766 2663 2505 2880 
Q 2244 3097 1772 3097 
Q 1472 3097 1187 3025 
Q 903 2953 641 2809 
L 641 3341 
Q 956 3463 1253 3523 
Q 1550 3584 1831 3584 
Q 2591 3584 2966 3190 
Q 3341 2797 3341 1997 
z
" id="DejaVuSans-61" transform="scale(0.015625)"/>
       <path d="M 603 3500 
L 1178 3500 
L 1178 0 
L 603 0 
L 603 3500 
z
M 603 4863 
L 1178 4863 
L 1178 4134 
L 603 4134 
L 603 4863 
z
" id="DejaVuSans-69" transform="scale(0.015625)"/>
       <path d="M 3513 2113 
L 3513 0 
L 2938 0 
L 2938 2094 
Q 2938 2591 2744 2837 
Q 2550 3084 2163 3084 
Q 1697 3084 1428 2787 
Q 1159 2491 1159 1978 
L 1159 0 
L 581 0 
L 581 3500 
L 1159 3500 
L 1159 2956 
Q 1366 3272 1645 3428 
Q 1925 3584 2291 3584 
Q 2894 3584 3203 3211 
Q 3513 2838 3513 2113 
z
" id="DejaVuSans-6e" transform="scale(0.015625)"/>
       <path id="DejaVuSans-20" transform="scale(0.015625)"/>
       <path d="M 603 4863 
L 1178 4863 
L 1178 0 
L 603 0 
L 603 4863 
z
" id="DejaVuSans-6c" transform="scale(0.015625)"/>
       <path d="M 2834 3397 
L 2834 2853 
Q 2591 2978 2328 3040 
Q 2066 3103 1784 3103 
Q 1356 3103 1142 2972 
Q 928 2841 928 2578 
Q 928 2378 1081 2264 
Q 1234 2150 1697 2047 
L 1894 2003 
Q 2506 1872 2764 1633 
Q 3022 1394 3022 966 
Q 3022 478 2636 193 
Q 2250 -91 1575 -91 
Q 1294 -91 989 -36 
Q 684 19 347 128 
L 347 722 
Q 666 556 975 473 
Q 1284 391 1588 391 
Q 1994 391 2212 530 
Q 2431 669 2431 922 
Q 2431 1156 2273 1281 
Q 2116 1406 1581 1522 
L 1381 1569 
Q 847 1681 609 1914 
Q 372 2147 372 2553 
Q 372 3047 722 3315 
Q 1072 3584 1716 3584 
Q 2034 3584 2315 3537 
Q 2597 3491 2834 3397 
z
" id="DejaVuSans-73" transform="scale(0.015625)"/>
      </defs>
      <use xlink:href="#DejaVuSans-54"/>
      <use x="46.333984" xlink:href="#DejaVuSans-72"/>
      <use x="87.447266" xlink:href="#DejaVuSans-61"/>
      <use x="148.726562" xlink:href="#DejaVuSans-69"/>
      <use x="176.509766" xlink:href="#DejaVuSans-6e"/>
      <use x="239.888672" xlink:href="#DejaVuSans-20"/>
      <use x="271.675781" xlink:href="#DejaVuSans-6c"/>
      <use x="299.458984" xlink:href="#DejaVuSans-6f"/>
      <use x="360.640625" xlink:href="#DejaVuSans-73"/>
      <use x="412.740234" xlink:href="#DejaVuSans-73"/>
     </g>
    </g>
    <g id="line2d_20">
     <path d="M 305.845 69.248562 
L 325.845 69.248562 
" style="fill:none;stroke:#ff7f0e;stroke-linecap:square;stroke-width:1.5;"/>
    </g>
    <g id="line2d_21"/>
    <g id="text_18">
     <!-- Validation loss -->
     <g transform="translate(333.845 72.748562)scale(0.1 -0.1)">
      <defs>
       <path d="M 1831 0 
L 50 4666 
L 709 4666 
L 2188 738 
L 3669 4666 
L 4325 4666 
L 2547 0 
L 1831 0 
z
" id="DejaVuSans-56" transform="scale(0.015625)"/>
       <path d="M 2906 2969 
L 2906 4863 
L 3481 4863 
L 3481 0 
L 2906 0 
L 2906 525 
Q 2725 213 2448 61 
Q 2172 -91 1784 -91 
Q 1150 -91 751 415 
Q 353 922 353 1747 
Q 353 2572 751 3078 
Q 1150 3584 1784 3584 
Q 2172 3584 2448 3432 
Q 2725 3281 2906 2969 
z
M 947 1747 
Q 947 1113 1208 752 
Q 1469 391 1925 391 
Q 2381 391 2643 752 
Q 2906 1113 2906 1747 
Q 2906 2381 2643 2742 
Q 2381 3103 1925 3103 
Q 1469 3103 1208 2742 
Q 947 2381 947 1747 
z
" id="DejaVuSans-64" transform="scale(0.015625)"/>
       <path d="M 1172 4494 
L 1172 3500 
L 2356 3500 
L 2356 3053 
L 1172 3053 
L 1172 1153 
Q 1172 725 1289 603 
Q 1406 481 1766 481 
L 2356 481 
L 2356 0 
L 1766 0 
Q 1100 0 847 248 
Q 594 497 594 1153 
L 594 3053 
L 172 3053 
L 172 3500 
L 594 3500 
L 594 4494 
L 1172 4494 
z
" id="DejaVuSans-74" transform="scale(0.015625)"/>
      </defs>
      <use xlink:href="#DejaVuSans-56"/>
      <use x="60.658203" xlink:href="#DejaVuSans-61"/>
      <use x="121.9375" xlink:href="#DejaVuSans-6c"/>
      <use x="149.720703" xlink:href="#DejaVuSans-69"/>
      <use x="177.503906" xlink:href="#DejaVuSans-64"/>
      <use x="240.980469" xlink:href="#DejaVuSans-61"/>
      <use x="302.259766" xlink:href="#DejaVuSans-74"/>
      <use x="341.46875" xlink:href="#DejaVuSans-69"/>
      <use x="369.251953" xlink:href="#DejaVuSans-6f"/>
      <use x="430.433594" xlink:href="#DejaVuSans-6e"/>
      <use x="493.8125" xlink:href="#DejaVuSans-20"/>
      <use x="525.599609" xlink:href="#DejaVuSans-6c"/>
      <use x="553.382812" xlink:href="#DejaVuSans-6f"/>
      <use x="614.564453" xlink:href="#DejaVuSans-73"/>
      <use x="666.664062" xlink:href="#DejaVuSans-73"/>
     </g>
    </g>
   </g>
  </g>
 </g>
 <defs>
  <clipPath id="pad4d948596">
   <rect height="266.112" width="357.12" x="57.6" y="41.472"/>
  </clipPath>
 </defs>
</svg>
