<?xml version="1.0" encoding="utf-8" standalone="no"?>
<!DOCTYPE svg PUBLIC "-//W3C//DTD SVG 1.1//EN"
  "http://www.w3.org/Graphics/SVG/1.1/DTD/svg11.dtd">
<svg height="345.6pt" version="1.1" viewBox="0 0 460.8 345.6" width="460.8pt" xmlns="http://www.w3.org/2000/svg" xmlns:xlink="http://www.w3.org/1999/xlink">
 <metadata>
  <rdf:RDF xmlns:cc="http://creativecommons.org/ns#" xmlns:dc="http://purl.org/dc/elements/1.1/" xmlns:rdf="http://www.w3.org/1999/02/22-rdf-syntax-ns#">
   <cc:Work>
    <dc:type rdf:resource="http://purl.org/dc/dcmitype/StillImage"/>
    <dc:date>2021-07-27T23:09:26.686650</dc:date>
    <dc:format>image/svg+xml</dc:format>
    <dc:creator>
     <cc:Agent>
      <dc:title>Matplotlib v3.4.1, https://matplotlib.org/</dc:title>
     </cc:Agent>
    </dc:creator>
   </cc:Work>
  </rdf:RDF>
 </metadata>
 <defs>
  <style type="text/css">*{stroke-linecap:butt;stroke-linejoin:round;}</style>
 </defs>
 <g id="figure_1">
  <g id="patch_1">
   <path d="M 0 345.6 
L 460.8 345.6 
L 460.8 0 
L 0 0 
z
" style="fill:#ffffff;"/>
  </g>
  <g id="axes_1">
   <g id="patch_2">
    <path d="M 57.6 307.584 
L 414.72 307.584 
L 414.72 41.472 
L 57.6 41.472 
z
" style="fill:#ffffff;"/>
   </g>
   <g id="matplotlib.axis_1">
    <g id="xtick_1">
     <g id="line2d_1">
      <defs>
       <path d="M 0 0 
L 0 3.5 
" id="m5109187210" style="stroke:#000000;stroke-width:0.8;"/>
      </defs>
      <g>
       <use style="stroke:#000000;stroke-width:0.8;" x="73.445773" xlink:href="#m5109187210" y="307.584"/>
      </g>
     </g>
     <g id="text_1">
      <!-- 0 -->
      <g transform="translate(70.264523 322.182437)scale(0.1 -0.1)">
       <defs>
        <path d="M 2034 4250 
Q 1547 4250 1301 3770 
Q 1056 3291 1056 2328 
Q 1056 1369 1301 889 
Q 1547 409 2034 409 
Q 2525 409 2770 889 
Q 3016 1369 3016 2328 
Q 3016 3291 2770 3770 
Q 2525 4250 2034 4250 
z
M 2034 4750 
Q 2819 4750 3233 4129 
Q 3647 3509 3647 2328 
Q 3647 1150 3233 529 
Q 2819 -91 2034 -91 
Q 1250 -91 836 529 
Q 422 1150 422 2328 
Q 422 3509 836 4129 
Q 1250 4750 2034 4750 
z
" id="DejaVuSans-30" transform="scale(0.015625)"/>
       </defs>
       <use xlink:href="#DejaVuSans-30"/>
      </g>
     </g>
    </g>
    <g id="xtick_2">
     <g id="line2d_2">
      <g>
       <use style="stroke:#000000;stroke-width:0.8;" x="150.836606" xlink:href="#m5109187210" y="307.584"/>
      </g>
     </g>
     <g id="text_2">
      <!-- 200 -->
      <g transform="translate(141.292856 322.182437)scale(0.1 -0.1)">
       <defs>
        <path d="M 1228 531 
L 3431 531 
L 3431 0 
L 469 0 
L 469 531 
Q 828 903 1448 1529 
Q 2069 2156 2228 2338 
Q 2531 2678 2651 2914 
Q 2772 3150 2772 3378 
Q 2772 3750 2511 3984 
Q 2250 4219 1831 4219 
Q 1534 4219 1204 4116 
Q 875 4013 500 3803 
L 500 4441 
Q 881 4594 1212 4672 
Q 1544 4750 1819 4750 
Q 2544 4750 2975 4387 
Q 3406 4025 3406 3419 
Q 3406 3131 3298 2873 
Q 3191 2616 2906 2266 
Q 2828 2175 2409 1742 
Q 1991 1309 1228 531 
z
" id="DejaVuSans-32" transform="scale(0.015625)"/>
       </defs>
       <use xlink:href="#DejaVuSans-32"/>
       <use x="63.623047" xlink:href="#DejaVuSans-30"/>
       <use x="127.246094" xlink:href="#DejaVuSans-30"/>
      </g>
     </g>
    </g>
    <g id="xtick_3">
     <g id="line2d_3">
      <g>
       <use style="stroke:#000000;stroke-width:0.8;" x="228.22744" xlink:href="#m5109187210" y="307.584"/>
      </g>
     </g>
     <g id="text_3">
      <!-- 400 -->
      <g transform="translate(218.68369 322.182437)scale(0.1 -0.1)">
       <defs>
        <path d="M 2419 4116 
L 825 1625 
L 2419 1625 
L 2419 4116 
z
M 2253 4666 
L 3047 4666 
L 3047 1625 
L 3713 1625 
L 3713 1100 
L 3047 1100 
L 3047 0 
L 2419 0 
L 2419 1100 
L 313 1100 
L 313 1709 
L 2253 4666 
z
" id="DejaVuSans-34" transform="scale(0.015625)"/>
       </defs>
       <use xlink:href="#DejaVuSans-34"/>
       <use x="63.623047" xlink:href="#DejaVuSans-30"/>
       <use x="127.246094" xlink:href="#DejaVuSans-30"/>
      </g>
     </g>
    </g>
    <g id="xtick_4">
     <g id="line2d_4">
      <g>
       <use style="stroke:#000000;stroke-width:0.8;" x="305.618273" xlink:href="#m5109187210" y="307.584"/>
      </g>
     </g>
     <g id="text_4">
      <!-- 600 -->
      <g transform="translate(296.074523 322.182437)scale(0.1 -0.1)">
       <defs>
        <path d="M 2113 2584 
Q 1688 2584 1439 2293 
Q 1191 2003 1191 1497 
Q 1191 994 1439 701 
Q 1688 409 2113 409 
Q 2538 409 2786 701 
Q 3034 994 3034 1497 
Q 3034 2003 2786 2293 
Q 2538 2584 2113 2584 
z
M 3366 4563 
L 3366 3988 
Q 3128 4100 2886 4159 
Q 2644 4219 2406 4219 
Q 1781 4219 1451 3797 
Q 1122 3375 1075 2522 
Q 1259 2794 1537 2939 
Q 1816 3084 2150 3084 
Q 2853 3084 3261 2657 
Q 3669 2231 3669 1497 
Q 3669 778 3244 343 
Q 2819 -91 2113 -91 
Q 1303 -91 875 529 
Q 447 1150 447 2328 
Q 447 3434 972 4092 
Q 1497 4750 2381 4750 
Q 2619 4750 2861 4703 
Q 3103 4656 3366 4563 
z
" id="DejaVuSans-36" transform="scale(0.015625)"/>
       </defs>
       <use xlink:href="#DejaVuSans-36"/>
       <use x="63.623047" xlink:href="#DejaVuSans-30"/>
       <use x="127.246094" xlink:href="#DejaVuSans-30"/>
      </g>
     </g>
    </g>
    <g id="xtick_5">
     <g id="line2d_5">
      <g>
       <use style="stroke:#000000;stroke-width:0.8;" x="383.009106" xlink:href="#m5109187210" y="307.584"/>
      </g>
     </g>
     <g id="text_5">
      <!-- 800 -->
      <g transform="translate(373.465356 322.182437)scale(0.1 -0.1)">
       <defs>
        <path d="M 2034 2216 
Q 1584 2216 1326 1975 
Q 1069 1734 1069 1313 
Q 1069 891 1326 650 
Q 1584 409 2034 409 
Q 2484 409 2743 651 
Q 3003 894 3003 1313 
Q 3003 1734 2745 1975 
Q 2488 2216 2034 2216 
z
M 1403 2484 
Q 997 2584 770 2862 
Q 544 3141 544 3541 
Q 544 4100 942 4425 
Q 1341 4750 2034 4750 
Q 2731 4750 3128 4425 
Q 3525 4100 3525 3541 
Q 3525 3141 3298 2862 
Q 3072 2584 2669 2484 
Q 3125 2378 3379 2068 
Q 3634 1759 3634 1313 
Q 3634 634 3220 271 
Q 2806 -91 2034 -91 
Q 1263 -91 848 271 
Q 434 634 434 1313 
Q 434 1759 690 2068 
Q 947 2378 1403 2484 
z
M 1172 3481 
Q 1172 3119 1398 2916 
Q 1625 2713 2034 2713 
Q 2441 2713 2670 2916 
Q 2900 3119 2900 3481 
Q 2900 3844 2670 4047 
Q 2441 4250 2034 4250 
Q 1625 4250 1398 4047 
Q 1172 3844 1172 3481 
z
" id="DejaVuSans-38" transform="scale(0.015625)"/>
       </defs>
       <use xlink:href="#DejaVuSans-38"/>
       <use x="63.623047" xlink:href="#DejaVuSans-30"/>
       <use x="127.246094" xlink:href="#DejaVuSans-30"/>
      </g>
     </g>
    </g>
    <g id="text_6">
     <!-- Epoch -->
     <g transform="translate(213.193594 339.659781)scale(0.15 -0.15)">
      <defs>
       <path d="M 628 4666 
L 3578 4666 
L 3578 4134 
L 1259 4134 
L 1259 2753 
L 3481 2753 
L 3481 2222 
L 1259 2222 
L 1259 531 
L 3634 531 
L 3634 0 
L 628 0 
L 628 4666 
z
" id="DejaVuSans-45" transform="scale(0.015625)"/>
       <path d="M 1159 525 
L 1159 -1331 
L 581 -1331 
L 581 3500 
L 1159 3500 
L 1159 2969 
Q 1341 3281 1617 3432 
Q 1894 3584 2278 3584 
Q 2916 3584 3314 3078 
Q 3713 2572 3713 1747 
Q 3713 922 3314 415 
Q 2916 -91 2278 -91 
Q 1894 -91 1617 61 
Q 1341 213 1159 525 
z
M 3116 1747 
Q 3116 2381 2855 2742 
Q 2594 3103 2138 3103 
Q 1681 3103 1420 2742 
Q 1159 2381 1159 1747 
Q 1159 1113 1420 752 
Q 1681 391 2138 391 
Q 2594 391 2855 752 
Q 3116 1113 3116 1747 
z
" id="DejaVuSans-70" transform="scale(0.015625)"/>
       <path d="M 1959 3097 
Q 1497 3097 1228 2736 
Q 959 2375 959 1747 
Q 959 1119 1226 758 
Q 1494 397 1959 397 
Q 2419 397 2687 759 
Q 2956 1122 2956 1747 
Q 2956 2369 2687 2733 
Q 2419 3097 1959 3097 
z
M 1959 3584 
Q 2709 3584 3137 3096 
Q 3566 2609 3566 1747 
Q 3566 888 3137 398 
Q 2709 -91 1959 -91 
Q 1206 -91 779 398 
Q 353 888 353 1747 
Q 353 2609 779 3096 
Q 1206 3584 1959 3584 
z
" id="DejaVuSans-6f" transform="scale(0.015625)"/>
       <path d="M 3122 3366 
L 3122 2828 
Q 2878 2963 2633 3030 
Q 2388 3097 2138 3097 
Q 1578 3097 1268 2742 
Q 959 2388 959 1747 
Q 959 1106 1268 751 
Q 1578 397 2138 397 
Q 2388 397 2633 464 
Q 2878 531 3122 666 
L 3122 134 
Q 2881 22 2623 -34 
Q 2366 -91 2075 -91 
Q 1284 -91 818 406 
Q 353 903 353 1747 
Q 353 2603 823 3093 
Q 1294 3584 2113 3584 
Q 2378 3584 2631 3529 
Q 2884 3475 3122 3366 
z
" id="DejaVuSans-63" transform="scale(0.015625)"/>
       <path d="M 3513 2113 
L 3513 0 
L 2938 0 
L 2938 2094 
Q 2938 2591 2744 2837 
Q 2550 3084 2163 3084 
Q 1697 3084 1428 2787 
Q 1159 2491 1159 1978 
L 1159 0 
L 581 0 
L 581 4863 
L 1159 4863 
L 1159 2956 
Q 1366 3272 1645 3428 
Q 1925 3584 2291 3584 
Q 2894 3584 3203 3211 
Q 3513 2838 3513 2113 
z
" id="DejaVuSans-68" transform="scale(0.015625)"/>
      </defs>
      <use xlink:href="#DejaVuSans-45"/>
      <use x="63.183594" xlink:href="#DejaVuSans-70"/>
      <use x="126.660156" xlink:href="#DejaVuSans-6f"/>
      <use x="187.841797" xlink:href="#DejaVuSans-63"/>
      <use x="242.822266" xlink:href="#DejaVuSans-68"/>
     </g>
    </g>
   </g>
   <g id="matplotlib.axis_2">
    <g id="ytick_1">
     <g id="line2d_6">
      <defs>
       <path d="M 0 0 
L -3.5 0 
" id="m934bc48dbf" style="stroke:#000000;stroke-width:0.8;"/>
      </defs>
      <g>
       <use style="stroke:#000000;stroke-width:0.8;" x="57.6" xlink:href="#m934bc48dbf" y="307.584"/>
      </g>
     </g>
     <g id="text_7">
      <!-- 0.0 -->
      <g transform="translate(34.696875 311.383219)scale(0.1 -0.1)">
       <defs>
        <path d="M 684 794 
L 1344 794 
L 1344 0 
L 684 0 
L 684 794 
z
" id="DejaVuSans-2e" transform="scale(0.015625)"/>
       </defs>
       <use xlink:href="#DejaVuSans-30"/>
       <use x="63.623047" xlink:href="#DejaVuSans-2e"/>
       <use x="95.410156" xlink:href="#DejaVuSans-30"/>
      </g>
     </g>
    </g>
    <g id="ytick_2">
     <g id="line2d_7">
      <g>
       <use style="stroke:#000000;stroke-width:0.8;" x="57.6" xlink:href="#m934bc48dbf" y="254.3616"/>
      </g>
     </g>
     <g id="text_8">
      <!-- 0.2 -->
      <g transform="translate(34.696875 258.160819)scale(0.1 -0.1)">
       <use xlink:href="#DejaVuSans-30"/>
       <use x="63.623047" xlink:href="#DejaVuSans-2e"/>
       <use x="95.410156" xlink:href="#DejaVuSans-32"/>
      </g>
     </g>
    </g>
    <g id="ytick_3">
     <g id="line2d_8">
      <g>
       <use style="stroke:#000000;stroke-width:0.8;" x="57.6" xlink:href="#m934bc48dbf" y="201.1392"/>
      </g>
     </g>
     <g id="text_9">
      <!-- 0.4 -->
      <g transform="translate(34.696875 204.938419)scale(0.1 -0.1)">
       <use xlink:href="#DejaVuSans-30"/>
       <use x="63.623047" xlink:href="#DejaVuSans-2e"/>
       <use x="95.410156" xlink:href="#DejaVuSans-34"/>
      </g>
     </g>
    </g>
    <g id="ytick_4">
     <g id="line2d_9">
      <g>
       <use style="stroke:#000000;stroke-width:0.8;" x="57.6" xlink:href="#m934bc48dbf" y="147.9168"/>
      </g>
     </g>
     <g id="text_10">
      <!-- 0.6 -->
      <g transform="translate(34.696875 151.716019)scale(0.1 -0.1)">
       <use xlink:href="#DejaVuSans-30"/>
       <use x="63.623047" xlink:href="#DejaVuSans-2e"/>
       <use x="95.410156" xlink:href="#DejaVuSans-36"/>
      </g>
     </g>
    </g>
    <g id="ytick_5">
     <g id="line2d_10">
      <g>
       <use style="stroke:#000000;stroke-width:0.8;" x="57.6" xlink:href="#m934bc48dbf" y="94.6944"/>
      </g>
     </g>
     <g id="text_11">
      <!-- 0.8 -->
      <g transform="translate(34.696875 98.493619)scale(0.1 -0.1)">
       <use xlink:href="#DejaVuSans-30"/>
       <use x="63.623047" xlink:href="#DejaVuSans-2e"/>
       <use x="95.410156" xlink:href="#DejaVuSans-38"/>
      </g>
     </g>
    </g>
    <g id="ytick_6">
     <g id="line2d_11">
      <g>
       <use style="stroke:#000000;stroke-width:0.8;" x="57.6" xlink:href="#m934bc48dbf" y="41.472"/>
      </g>
     </g>
     <g id="text_12">
      <!-- 1.0 -->
      <g transform="translate(34.696875 45.271219)scale(0.1 -0.1)">
       <defs>
        <path d="M 794 531 
L 1825 531 
L 1825 4091 
L 703 3866 
L 703 4441 
L 1819 4666 
L 2450 4666 
L 2450 531 
L 3481 531 
L 3481 0 
L 794 0 
L 794 531 
z
" id="DejaVuSans-31" transform="scale(0.015625)"/>
       </defs>
       <use xlink:href="#DejaVuSans-31"/>
       <use x="63.623047" xlink:href="#DejaVuSans-2e"/>
       <use x="95.410156" xlink:href="#DejaVuSans-30"/>
      </g>
     </g>
    </g>
    <g id="text_13">
     <!-- Accuracy -->
     <g transform="translate(27.577344 208.770187)rotate(-90)scale(0.15 -0.15)">
      <defs>
       <path d="M 2188 4044 
L 1331 1722 
L 3047 1722 
L 2188 4044 
z
M 1831 4666 
L 2547 4666 
L 4325 0 
L 3669 0 
L 3244 1197 
L 1141 1197 
L 716 0 
L 50 0 
L 1831 4666 
z
" id="DejaVuSans-41" transform="scale(0.015625)"/>
       <path d="M 544 1381 
L 544 3500 
L 1119 3500 
L 1119 1403 
Q 1119 906 1312 657 
Q 1506 409 1894 409 
Q 2359 409 2629 706 
Q 2900 1003 2900 1516 
L 2900 3500 
L 3475 3500 
L 3475 0 
L 2900 0 
L 2900 538 
Q 2691 219 2414 64 
Q 2138 -91 1772 -91 
Q 1169 -91 856 284 
Q 544 659 544 1381 
z
M 1991 3584 
L 1991 3584 
z
" id="DejaVuSans-75" transform="scale(0.015625)"/>
       <path d="M 2631 2963 
Q 2534 3019 2420 3045 
Q 2306 3072 2169 3072 
Q 1681 3072 1420 2755 
Q 1159 2438 1159 1844 
L 1159 0 
L 581 0 
L 581 3500 
L 1159 3500 
L 1159 2956 
Q 1341 3275 1631 3429 
Q 1922 3584 2338 3584 
Q 2397 3584 2469 3576 
Q 2541 3569 2628 3553 
L 2631 2963 
z
" id="DejaVuSans-72" transform="scale(0.015625)"/>
       <path d="M 2194 1759 
Q 1497 1759 1228 1600 
Q 959 1441 959 1056 
Q 959 750 1161 570 
Q 1363 391 1709 391 
Q 2188 391 2477 730 
Q 2766 1069 2766 1631 
L 2766 1759 
L 2194 1759 
z
M 3341 1997 
L 3341 0 
L 2766 0 
L 2766 531 
Q 2569 213 2275 61 
Q 1981 -91 1556 -91 
Q 1019 -91 701 211 
Q 384 513 384 1019 
Q 384 1609 779 1909 
Q 1175 2209 1959 2209 
L 2766 2209 
L 2766 2266 
Q 2766 2663 2505 2880 
Q 2244 3097 1772 3097 
Q 1472 3097 1187 3025 
Q 903 2953 641 2809 
L 641 3341 
Q 956 3463 1253 3523 
Q 1550 3584 1831 3584 
Q 2591 3584 2966 3190 
Q 3341 2797 3341 1997 
z
" id="DejaVuSans-61" transform="scale(0.015625)"/>
       <path d="M 2059 -325 
Q 1816 -950 1584 -1140 
Q 1353 -1331 966 -1331 
L 506 -1331 
L 506 -850 
L 844 -850 
Q 1081 -850 1212 -737 
Q 1344 -625 1503 -206 
L 1606 56 
L 191 3500 
L 800 3500 
L 1894 763 
L 2988 3500 
L 3597 3500 
L 2059 -325 
z
" id="DejaVuSans-79" transform="scale(0.015625)"/>
      </defs>
      <use xlink:href="#DejaVuSans-41"/>
      <use x="66.658203" xlink:href="#DejaVuSans-63"/>
      <use x="121.638672" xlink:href="#DejaVuSans-63"/>
      <use x="176.619141" xlink:href="#DejaVuSans-75"/>
      <use x="239.998047" xlink:href="#DejaVuSans-72"/>
      <use x="281.111328" xlink:href="#DejaVuSans-61"/>
      <use x="342.390625" xlink:href="#DejaVuSans-63"/>
      <use x="397.371094" xlink:href="#DejaVuSans-79"/>
     </g>
    </g>
   </g>
   <g id="line2d_12">
    <path clip-path="url(#p40b4fd0df5)" d="M 73.832727 279.64224 
L 74.219681 284.96448 
L 74.606636 283.63392 
L 74.99359 294.2784 
L 75.380544 287.6256 
L 75.767498 274.32 
L 76.154452 287.6256 
L 76.541406 290.28672 
L 76.928361 284.96448 
L 77.315315 272.98944 
L 77.702269 287.6256 
L 78.089223 283.63392 
L 78.476177 287.6256 
L 78.863131 284.96448 
L 79.250086 276.98112 
L 79.63704 280.9728 
L 80.023994 278.31168 
L 80.410948 282.30336 
L 80.797902 284.96448 
L 81.184856 271.65888 
L 81.571811 272.98944 
L 81.958765 275.65056 
L 82.345719 267.6672 
L 82.732673 266.33664 
L 83.119627 262.34496 
L 83.506581 267.6672 
L 83.893536 254.3616 
L 84.28049 271.65888 
L 84.667444 261.0144 
L 85.054398 272.98944 
L 85.441352 268.99776 
L 85.828306 266.33664 
L 86.215261 272.98944 
L 86.602215 268.99776 
L 86.989169 267.6672 
L 87.376123 267.6672 
L 87.763077 261.0144 
L 88.150031 268.99776 
L 88.536986 265.00608 
L 88.92394 259.68384 
L 89.310894 259.68384 
L 89.697848 255.69216 
L 90.084802 262.34496 
L 90.471756 265.00608 
L 90.858711 265.00608 
L 91.245665 267.6672 
L 91.632619 261.0144 
L 92.019573 271.65888 
L 92.406527 268.99776 
L 92.793481 263.67552 
L 93.180436 267.6672 
L 93.56739 275.65056 
L 93.954344 257.02272 
L 94.341298 259.68384 
L 94.728252 271.65888 
L 95.115206 257.02272 
L 95.502161 254.3616 
L 95.889115 262.34496 
L 96.276069 255.69216 
L 96.663023 261.0144 
L 97.049977 274.32 
L 97.436931 258.35328 
L 97.823886 259.68384 
L 98.21084 262.34496 
L 98.597794 261.0144 
L 98.984748 254.3616 
L 99.371702 258.35328 
L 99.758656 258.35328 
L 100.145611 251.70048 
L 100.532565 250.36992 
L 100.919519 245.04768 
L 101.693427 259.68384 
L 102.080381 255.69216 
L 102.467336 255.69216 
L 102.85429 261.0144 
L 103.241244 271.65888 
L 103.628198 253.03104 
L 104.015152 251.70048 
L 104.402106 247.7088 
L 104.789061 247.7088 
L 105.176015 239.72544 
L 105.562969 263.67552 
L 105.949923 254.3616 
L 106.336877 255.69216 
L 107.110786 245.04768 
L 107.49774 254.3616 
L 107.884694 254.3616 
L 108.271648 255.69216 
L 108.658602 247.7088 
L 109.045556 249.03936 
L 109.432511 257.02272 
L 109.819465 245.04768 
L 110.206419 246.37824 
L 110.593373 253.03104 
L 110.980327 245.04768 
L 111.367281 251.70048 
L 111.754236 242.38656 
L 112.14119 249.03936 
L 112.528144 250.36992 
L 112.915098 247.7088 
L 113.302052 255.69216 
L 113.689006 243.71712 
L 114.075961 246.37824 
L 114.462915 246.37824 
L 114.849869 239.72544 
L 115.236823 243.71712 
L 115.623777 246.37824 
L 116.010731 235.73376 
L 116.397686 245.04768 
L 116.78464 243.71712 
L 117.171594 246.37824 
L 117.558548 246.37824 
L 117.945502 238.39488 
L 118.719411 254.3616 
L 119.493319 246.37824 
L 119.880273 249.03936 
L 120.267227 235.73376 
L 120.654181 250.36992 
L 121.041136 246.37824 
L 121.42809 225.08928 
L 121.815044 257.02272 
L 122.201998 226.41984 
L 122.588952 245.04768 
L 122.975906 245.04768 
L 123.362861 231.74208 
L 123.749815 250.36992 
L 124.136769 230.41152 
L 124.523723 241.056 
L 124.910677 231.74208 
L 125.297631 238.39488 
L 125.684586 230.41152 
L 126.07154 235.73376 
L 126.458494 247.7088 
L 126.845448 213.11424 
L 127.232402 239.72544 
L 127.619356 231.74208 
L 128.006311 246.37824 
L 128.393265 239.72544 
L 128.780219 238.39488 
L 129.167173 219.76704 
L 129.554127 241.056 
L 129.941081 239.72544 
L 130.328036 237.06432 
L 130.71499 237.06432 
L 131.101944 238.39488 
L 131.488898 219.76704 
L 131.875852 233.07264 
L 132.262806 234.4032 
L 132.649761 227.7504 
L 133.036715 245.04768 
L 133.423669 219.76704 
L 133.810623 227.7504 
L 134.197577 229.08096 
L 134.584531 221.0976 
L 134.971486 239.72544 
L 135.35844 217.10592 
L 135.745394 209.12256 
L 136.132348 219.76704 
L 136.519302 210.45312 
L 136.906256 217.10592 
L 137.293211 233.07264 
L 137.680165 223.75872 
L 138.067119 226.41984 
L 138.841027 209.12256 
L 139.227981 223.75872 
L 139.614936 225.08928 
L 140.00189 202.46976 
L 140.388844 217.10592 
L 140.775798 207.792 
L 141.162752 210.45312 
L 141.549706 206.46144 
L 141.936661 207.792 
L 142.323615 225.08928 
L 142.710569 213.11424 
L 143.097523 214.4448 
L 143.484477 199.80864 
L 143.871431 206.46144 
L 144.258386 198.47808 
L 144.64534 221.0976 
L 145.032294 201.1392 
L 145.419248 198.47808 
L 145.806202 194.4864 
L 146.193156 191.82528 
L 146.580111 214.4448 
L 146.967065 199.80864 
L 147.354019 203.80032 
L 147.740973 185.17248 
L 148.127927 199.80864 
L 148.514881 203.80032 
L 148.901836 190.49472 
L 149.28879 194.4864 
L 149.675744 201.1392 
L 150.062698 190.49472 
L 150.449652 198.47808 
L 150.836606 209.12256 
L 151.223561 198.47808 
L 151.610515 182.51136 
L 152.384423 199.80864 
L 152.771377 186.50304 
L 153.158331 201.1392 
L 153.545286 198.47808 
L 154.319194 181.1808 
L 154.706148 181.1808 
L 155.093102 178.51968 
L 155.480056 181.1808 
L 155.867011 166.54464 
L 156.253965 173.19744 
L 156.640919 173.19744 
L 157.027873 197.14752 
L 157.414827 190.49472 
L 157.801781 163.88352 
L 158.188736 151.90848 
L 158.57569 189.16416 
L 159.349598 163.88352 
L 160.123506 163.88352 
L 160.510461 174.528 
L 160.897415 158.56128 
L 161.284369 171.86688 
L 161.671323 177.18912 
L 162.058277 145.25568 
L 162.832186 169.20576 
L 163.21914 170.53632 
L 163.606094 165.21408 
L 163.993048 155.90016 
L 164.380002 165.21408 
L 164.766956 151.90848 
L 165.15391 161.2224 
L 165.540865 141.264 
L 165.927819 157.23072 
L 167.088681 133.28064 
L 167.475635 146.58624 
L 167.86259 147.9168 
L 168.249544 154.5696 
L 169.023452 143.92512 
L 169.410406 123.96672 
L 169.79736 135.94176 
L 170.184315 135.94176 
L 170.571269 125.29728 
L 170.958223 145.25568 
L 171.345177 123.96672 
L 171.732131 129.28896 
L 172.119085 127.9584 
L 172.50604 119.97504 
L 172.892994 115.98336 
L 173.279948 117.31392 
L 173.666902 113.32224 
L 174.053856 123.96672 
L 174.44081 147.9168 
L 174.827765 131.95008 
L 175.214719 133.28064 
L 175.601673 119.97504 
L 175.988627 122.63616 
L 176.375581 109.33056 
L 176.762535 131.95008 
L 177.14949 122.63616 
L 177.536444 129.28896 
L 177.923398 114.6528 
L 178.310352 114.6528 
L 178.697306 105.33888 
L 179.08426 113.32224 
L 179.471215 100.01664 
L 179.858169 118.64448 
L 180.245123 108 
L 180.632077 115.98336 
L 181.019031 110.66112 
L 181.405985 100.01664 
L 181.79294 108 
L 182.179894 109.33056 
L 182.566848 93.36384 
L 182.953802 105.33888 
L 183.340756 129.28896 
L 183.72771 108 
L 184.114665 125.29728 
L 184.501619 109.33056 
L 184.888573 106.66944 
L 185.275527 98.68608 
L 185.662481 88.0416 
L 186.049435 100.01664 
L 186.43639 104.00832 
L 186.823344 93.36384 
L 187.210298 92.03328 
L 187.597252 111.99168 
L 187.984206 89.37216 
L 188.37116 111.99168 
L 188.758115 105.33888 
L 189.145069 104.00832 
L 189.532023 97.35552 
L 189.918977 119.97504 
L 190.305931 94.6944 
L 190.692885 93.36384 
L 191.07984 89.37216 
L 191.466794 92.03328 
L 191.853748 92.03328 
L 192.240702 77.39712 
L 192.627656 90.70272 
L 193.01461 108 
L 193.401565 118.64448 
L 193.788519 119.97504 
L 194.175473 98.68608 
L 194.562427 86.71104 
L 194.949381 84.04992 
L 195.336335 76.06656 
L 195.72329 98.68608 
L 196.110244 69.41376 
L 196.497198 96.02496 
L 196.884152 76.06656 
L 197.271106 73.40544 
L 197.65806 101.3472 
L 198.045015 98.68608 
L 198.431969 78.72768 
L 198.818923 70.74432 
L 199.205877 84.04992 
L 199.979785 73.40544 
L 200.753694 90.70272 
L 201.140648 90.70272 
L 201.527602 104.00832 
L 201.914556 80.05824 
L 202.30151 89.37216 
L 202.688465 86.71104 
L 203.075419 93.36384 
L 203.462373 84.04992 
L 203.849327 66.75264 
L 204.236281 72.07488 
L 204.623235 72.07488 
L 205.01019 90.70272 
L 205.397144 85.38048 
L 205.784098 82.71936 
L 206.171052 86.71104 
L 206.558006 98.68608 
L 206.94496 98.68608 
L 207.331915 80.05824 
L 207.718869 88.0416 
L 208.492777 80.05824 
L 208.879731 66.75264 
L 209.266685 77.39712 
L 209.65364 81.3888 
L 210.040594 82.71936 
L 210.427548 92.03328 
L 210.814502 77.39712 
L 211.201456 80.05824 
L 211.58841 86.71104 
L 211.975365 77.39712 
L 212.362319 94.6944 
L 212.749273 84.04992 
L 213.136227 68.0832 
L 213.910135 76.06656 
L 214.29709 85.38048 
L 214.684044 80.05824 
L 215.070998 90.70272 
L 215.457952 80.05824 
L 215.844906 64.09152 
L 216.23186 89.37216 
L 216.618815 86.71104 
L 217.005769 77.39712 
L 217.392723 88.0416 
L 217.779677 66.75264 
L 218.553585 78.72768 
L 218.94054 69.41376 
L 219.327494 72.07488 
L 219.714448 84.04992 
L 220.101402 61.4304 
L 220.488356 81.3888 
L 220.87531 88.0416 
L 221.262265 69.41376 
L 221.649219 80.05824 
L 222.036173 85.38048 
L 222.423127 72.07488 
L 222.810081 73.40544 
L 223.197035 66.75264 
L 223.58399 73.40544 
L 223.970944 77.39712 
L 224.357898 85.38048 
L 224.744852 64.09152 
L 225.131806 66.75264 
L 225.51876 68.0832 
L 225.905715 80.05824 
L 226.292669 84.04992 
L 226.679623 76.06656 
L 227.066577 76.06656 
L 227.453531 73.40544 
L 227.840485 84.04992 
L 228.22744 72.07488 
L 228.614394 70.74432 
L 229.001348 77.39712 
L 229.388302 72.07488 
L 229.775256 76.06656 
L 230.16221 70.74432 
L 230.549165 76.06656 
L 230.936119 61.4304 
L 231.323073 72.07488 
L 231.710027 65.42208 
L 232.096981 66.75264 
L 232.483935 58.76928 
L 232.87089 72.07488 
L 233.257844 77.39712 
L 233.644798 78.72768 
L 234.031752 68.0832 
L 234.418706 78.72768 
L 234.80566 73.40544 
L 235.192615 70.74432 
L 235.579569 66.75264 
L 235.966523 64.09152 
L 236.353477 81.3888 
L 236.740431 82.71936 
L 237.127385 88.0416 
L 237.51434 68.0832 
L 237.901294 80.05824 
L 238.288248 77.39712 
L 238.675202 73.40544 
L 239.062156 78.72768 
L 239.44911 70.74432 
L 240.223019 61.4304 
L 240.996927 66.75264 
L 241.383881 64.09152 
L 241.770835 69.41376 
L 242.15779 69.41376 
L 242.544744 77.39712 
L 242.931698 64.09152 
L 243.318652 72.07488 
L 243.705606 68.0832 
L 244.09256 78.72768 
L 244.479515 64.09152 
L 244.866469 69.41376 
L 245.253423 86.71104 
L 245.640377 68.0832 
L 246.027331 77.39712 
L 246.414285 69.41376 
L 246.80124 73.40544 
L 247.188194 85.38048 
L 247.575148 84.04992 
L 247.962102 62.76096 
L 248.349056 84.04992 
L 248.73601 60.09984 
L 249.122965 54.7776 
L 249.509919 61.4304 
L 249.896873 70.74432 
L 250.283827 65.42208 
L 250.670781 92.03328 
L 251.057735 58.76928 
L 251.44469 74.736 
L 251.831644 77.39712 
L 252.218598 64.09152 
L 252.605552 76.06656 
L 252.992506 62.76096 
L 253.37946 61.4304 
L 253.766415 65.42208 
L 254.153369 61.4304 
L 254.540323 60.09984 
L 255.314231 72.07488 
L 255.701185 54.7776 
L 256.08814 73.40544 
L 256.475094 64.09152 
L 257.249002 66.75264 
L 257.635956 74.736 
L 258.02291 56.10816 
L 258.409865 70.74432 
L 258.796819 61.4304 
L 259.183773 57.43872 
L 259.570727 64.09152 
L 259.957681 65.42208 
L 260.344635 68.0832 
L 260.73159 73.40544 
L 261.118544 62.76096 
L 261.505498 64.09152 
L 261.892452 54.7776 
L 262.279406 73.40544 
L 262.66636 57.43872 
L 263.440269 73.40544 
L 263.827223 70.74432 
L 264.214177 62.76096 
L 264.601131 70.74432 
L 264.988085 69.41376 
L 265.37504 57.43872 
L 265.761994 69.41376 
L 266.148948 53.44704 
L 266.535902 78.72768 
L 266.922856 74.736 
L 267.30981 61.4304 
L 267.696765 54.7776 
L 268.083719 74.736 
L 268.470673 52.11648 
L 268.857627 65.42208 
L 269.244581 64.09152 
L 269.631535 54.7776 
L 270.01849 50.78592 
L 270.405444 58.76928 
L 270.792398 70.74432 
L 271.179352 74.736 
L 271.566306 82.71936 
L 271.95326 57.43872 
L 272.340215 80.05824 
L 272.727169 69.41376 
L 273.114123 54.7776 
L 273.501077 65.42208 
L 273.888031 62.76096 
L 274.274985 65.42208 
L 274.66194 84.04992 
L 275.048894 66.75264 
L 275.435848 54.7776 
L 275.822802 60.09984 
L 276.209756 73.40544 
L 276.59671 68.0832 
L 276.983665 66.75264 
L 277.370619 53.44704 
L 277.757573 57.43872 
L 278.144527 62.76096 
L 278.531481 61.4304 
L 278.918435 68.0832 
L 279.30539 64.09152 
L 279.692344 50.78592 
L 280.079298 69.41376 
L 280.466252 53.44704 
L 280.853206 69.41376 
L 281.24016 78.72768 
L 282.014069 60.09984 
L 282.401023 62.76096 
L 282.787977 64.09152 
L 283.174931 70.74432 
L 283.561885 61.4304 
L 283.94884 64.09152 
L 284.335794 64.09152 
L 284.722748 69.41376 
L 285.109702 53.44704 
L 285.496656 81.3888 
L 285.88361 53.44704 
L 286.270565 60.09984 
L 286.657519 58.76928 
L 287.044473 64.09152 
L 287.431427 57.43872 
L 287.818381 74.736 
L 288.59229 46.79424 
L 288.979244 76.06656 
L 289.366198 64.09152 
L 290.140106 64.09152 
L 290.52706 56.10816 
L 290.914015 62.76096 
L 291.300969 58.76928 
L 291.687923 69.41376 
L 292.074877 74.736 
L 292.461831 73.40544 
L 292.848785 56.10816 
L 293.23574 53.44704 
L 293.622694 60.09984 
L 294.009648 62.76096 
L 294.396602 61.4304 
L 294.783556 53.44704 
L 295.17051 72.07488 
L 295.557465 81.3888 
L 295.944419 68.0832 
L 296.331373 61.4304 
L 296.718327 58.76928 
L 297.105281 64.09152 
L 297.492235 60.09984 
L 297.87919 57.43872 
L 298.266144 60.09984 
L 298.653098 60.09984 
L 299.040052 50.78592 
L 299.427006 62.76096 
L 299.81396 54.7776 
L 300.200915 72.07488 
L 300.974823 61.4304 
L 301.361777 68.0832 
L 301.748731 56.10816 
L 302.135685 65.42208 
L 302.52264 60.09984 
L 302.909594 62.76096 
L 303.296548 53.44704 
L 303.683502 70.74432 
L 304.070456 68.0832 
L 304.45741 58.76928 
L 304.844365 56.10816 
L 305.231319 57.43872 
L 305.618273 64.09152 
L 306.005227 77.39712 
L 306.392181 56.10816 
L 306.779135 50.78592 
L 307.16609 61.4304 
L 307.553044 58.76928 
L 307.939998 57.43872 
L 308.326952 64.09152 
L 308.713906 76.06656 
L 309.10086 81.3888 
L 309.874769 61.4304 
L 310.261723 73.40544 
L 311.035631 61.4304 
L 311.422585 56.10816 
L 311.809539 58.76928 
L 312.196494 69.41376 
L 312.583448 73.40544 
L 312.970402 76.06656 
L 313.357356 50.78592 
L 314.131264 62.76096 
L 314.518219 61.4304 
L 315.292127 69.41376 
L 315.679081 62.76096 
L 316.066035 49.45536 
L 316.839944 68.0832 
L 317.613852 52.11648 
L 318.38776 64.09152 
L 318.774714 57.43872 
L 319.548623 76.06656 
L 319.935577 62.76096 
L 320.322531 66.75264 
L 321.096439 64.09152 
L 321.483394 60.09984 
L 321.870348 52.11648 
L 322.644256 69.41376 
L 323.03121 69.41376 
L 323.805119 56.10816 
L 324.192073 73.40544 
L 324.579027 54.7776 
L 324.965981 80.05824 
L 325.352935 53.44704 
L 325.739889 62.76096 
L 326.126844 58.76928 
L 326.513798 70.74432 
L 326.900752 72.07488 
L 327.287706 54.7776 
L 327.67466 66.75264 
L 328.061614 64.09152 
L 328.448569 60.09984 
L 328.835523 84.04992 
L 329.222477 53.44704 
L 329.609431 65.42208 
L 329.996385 66.75264 
L 330.383339 57.43872 
L 330.770294 58.76928 
L 331.157248 52.11648 
L 331.544202 57.43872 
L 331.931156 88.0416 
L 332.31811 62.76096 
L 332.705064 76.06656 
L 333.092019 60.09984 
L 333.478973 66.75264 
L 333.865927 68.0832 
L 334.252881 53.44704 
L 334.639835 54.7776 
L 335.026789 52.11648 
L 335.413744 54.7776 
L 335.800698 69.41376 
L 336.187652 54.7776 
L 336.96156 70.74432 
L 337.348514 68.0832 
L 337.735469 49.45536 
L 338.122423 60.09984 
L 338.509377 52.11648 
L 338.896331 68.0832 
L 339.283285 53.44704 
L 339.670239 62.76096 
L 340.057194 56.10816 
L 340.444148 58.76928 
L 340.831102 58.76928 
L 341.218056 66.75264 
L 341.60501 64.09152 
L 342.378919 72.07488 
L 342.765873 68.0832 
L 343.539781 54.7776 
L 343.926735 64.09152 
L 344.313689 53.44704 
L 344.700644 48.1248 
L 345.087598 69.41376 
L 345.474552 53.44704 
L 345.861506 60.09984 
L 346.24846 58.76928 
L 346.635414 61.4304 
L 347.022369 60.09984 
L 347.409323 50.78592 
L 347.796277 60.09984 
L 348.183231 53.44704 
L 348.570185 66.75264 
L 348.957139 66.75264 
L 349.344094 72.07488 
L 349.731048 53.44704 
L 350.118002 62.76096 
L 350.504956 57.43872 
L 350.89191 58.76928 
L 351.278864 58.76928 
L 351.665819 57.43872 
L 352.439727 78.72768 
L 352.826681 69.41376 
L 353.213635 66.75264 
L 353.600589 57.43872 
L 353.987544 70.74432 
L 354.374498 73.40544 
L 355.148406 45.46368 
L 355.53536 58.76928 
L 355.922314 66.75264 
L 356.309269 65.42208 
L 356.696223 62.76096 
L 357.083177 62.76096 
L 357.470131 57.43872 
L 357.857085 57.43872 
L 358.244039 65.42208 
L 358.630994 64.09152 
L 359.017948 65.42208 
L 359.404902 48.1248 
L 359.791856 52.11648 
L 360.17881 66.75264 
L 360.565764 58.76928 
L 360.952719 68.0832 
L 361.339673 64.09152 
L 361.726627 54.7776 
L 362.113581 62.76096 
L 362.500535 58.76928 
L 362.887489 62.76096 
L 363.274444 65.42208 
L 363.661398 62.76096 
L 364.048352 61.4304 
L 364.435306 72.07488 
L 365.209214 53.44704 
L 365.596169 62.76096 
L 365.983123 66.75264 
L 366.370077 50.78592 
L 366.757031 66.75264 
L 367.143985 60.09984 
L 367.530939 60.09984 
L 367.917894 64.09152 
L 368.304848 76.06656 
L 368.691802 58.76928 
L 369.078756 72.07488 
L 369.46571 61.4304 
L 369.852664 60.09984 
L 370.239619 56.10816 
L 371.013527 61.4304 
L 371.400481 58.76928 
L 371.787435 61.4304 
L 372.174389 70.74432 
L 372.561344 76.06656 
L 372.948298 53.44704 
L 373.335252 54.7776 
L 373.722206 70.74432 
L 374.10916 68.0832 
L 374.496114 57.43872 
L 374.883069 61.4304 
L 375.270023 64.09152 
L 375.656977 49.45536 
L 376.043931 68.0832 
L 376.430885 60.09984 
L 376.817839 60.09984 
L 377.204794 58.76928 
L 377.591748 64.09152 
L 377.978702 57.43872 
L 378.365656 81.3888 
L 378.75261 54.7776 
L 379.139564 68.0832 
L 379.526519 53.44704 
L 379.913473 54.7776 
L 380.300427 52.11648 
L 380.687381 56.10816 
L 381.074335 61.4304 
L 381.461289 53.44704 
L 381.848244 61.4304 
L 382.235198 62.76096 
L 382.622152 62.76096 
L 383.009106 58.76928 
L 383.783014 53.44704 
L 384.169969 64.09152 
L 384.556923 60.09984 
L 385.330831 57.43872 
L 385.717785 50.78592 
L 386.104739 70.74432 
L 386.491694 69.41376 
L 386.878648 50.78592 
L 387.652556 68.0832 
L 388.426464 48.1248 
L 388.813419 54.7776 
L 389.200373 57.43872 
L 389.587327 64.09152 
L 390.361235 66.75264 
L 390.748189 62.76096 
L 391.522098 60.09984 
L 391.909052 66.75264 
L 392.296006 70.74432 
L 393.069914 57.43872 
L 393.456869 54.7776 
L 394.230777 70.74432 
L 394.617731 57.43872 
L 395.004685 53.44704 
L 395.391639 64.09152 
L 395.778594 68.0832 
L 396.165548 61.4304 
L 396.552502 57.43872 
L 396.939456 58.76928 
L 397.32641 61.4304 
L 397.713364 54.7776 
L 398.100319 57.43872 
L 398.487273 61.4304 
L 398.487273 61.4304 
" style="fill:none;stroke:#1f77b4;stroke-linecap:square;stroke-width:1.5;"/>
   </g>
   <g id="line2d_13">
    <path clip-path="url(#p40b4fd0df5)" d="M 73.832727 279.003571 
L 74.219681 279.961574 
L 74.606636 282.356582 
L 74.99359 281.371968 
L 75.380544 278.870515 
L 75.767498 279.801907 
L 76.154452 279.775296 
L 76.541406 279.482573 
L 76.928361 280.892966 
L 77.315315 280.360742 
L 77.702269 281.691302 
L 78.089223 282.276749 
L 78.476177 281.505024 
L 78.863131 281.478413 
L 79.250086 281.717914 
L 79.63704 281.664691 
L 80.023994 277.85929 
L 80.410948 277.247232 
L 80.797902 275.623949 
L 81.184856 272.244326 
L 81.571811 274.240166 
L 81.958765 273.521664 
L 82.345719 274.133722 
L 82.732673 272.217715 
L 83.119627 271.44599 
L 83.506581 272.430605 
L 84.667444 273.574886 
L 85.441352 270.248486 
L 85.828306 272.962829 
L 86.602215 270.647654 
L 86.989169 271.392768 
L 87.376123 270.408154 
L 88.150031 270.621043 
L 88.536986 270.275098 
L 88.92394 270.248486 
L 89.310894 270.434765 
L 89.697848 268.99776 
L 90.084802 270.035597 
L 90.471756 269.317094 
L 90.858711 270.088819 
L 91.245665 268.571981 
L 91.632619 268.625203 
L 92.406527 269.955763 
L 92.793481 268.99776 
L 93.180436 268.811482 
L 93.56739 268.226035 
L 93.954344 270.088819 
L 94.341298 267.906701 
L 94.728252 268.305869 
L 95.115206 270.008986 
L 95.502161 268.971149 
L 95.889115 269.317094 
L 96.276069 268.465536 
L 96.663023 266.576141 
L 97.049977 266.842253 
L 97.436931 269.716262 
L 97.823886 268.651814 
L 98.21084 268.092979 
L 98.597794 265.88425 
L 98.984748 266.735808 
L 99.371702 267.161587 
L 99.758656 268.11959 
L 100.145611 267.560755 
L 100.532565 266.097139 
L 100.919519 268.11959 
L 101.306473 267.268032 
L 101.693427 267.055142 
L 102.080381 267.188198 
L 102.467336 266.735808 
L 103.241244 267.268032 
L 103.628198 266.416474 
L 104.015152 266.762419 
L 104.402106 268.305869 
L 104.789061 268.359091 
L 105.562969 266.12375 
L 105.949923 264.713357 
L 106.336877 264.79319 
L 106.723831 264.660134 
L 107.110786 266.416474 
L 107.884694 265.139136 
L 108.271648 264.660134 
L 108.658602 265.511693 
L 109.045556 265.352026 
L 109.432511 263.702131 
L 109.819465 266.363251 
L 110.206419 267.268032 
L 110.593373 264.3408 
L 110.980327 264.473856 
L 111.367281 262.531238 
L 111.754236 262.371571 
L 112.14119 264.500467 
L 112.528144 262.078848 
L 112.915098 261.520013 
L 113.302052 262.637683 
L 113.689006 262.504627 
L 114.075961 262.823962 
L 114.462915 263.382797 
L 115.236823 261.865958 
L 115.623777 262.611072 
L 116.010731 262.13207 
L 116.397686 262.478016 
L 116.78464 260.615232 
L 117.558548 261.786125 
L 117.945502 263.808576 
L 118.332456 261.67968 
L 118.719411 260.774899 
L 119.106365 264.154522 
L 119.493319 261.573235 
L 120.267227 266.12375 
L 120.654181 261.759514 
L 121.041136 261.253901 
L 121.815044 262.877184 
L 122.201998 258.619392 
L 122.588952 259.391117 
L 122.975906 260.482176 
L 123.362861 260.269286 
L 123.749815 260.455565 
L 124.136769 258.858893 
L 124.523723 259.391117 
L 125.297631 257.980723 
L 125.684586 258.406502 
L 126.07154 257.847667 
L 126.458494 257.075942 
L 126.845448 259.391117 
L 127.232402 265.777805 
L 127.619356 259.923341 
L 128.006311 260.13623 
L 128.393265 262.877184 
L 128.780219 258.379891 
L 129.167173 256.384051 
L 129.554127 257.262221 
L 129.941081 261.067622 
L 130.328036 257.182387 
L 130.71499 258.912115 
L 131.101944 257.90089 
L 131.488898 255.825216 
L 131.875852 257.980723 
L 132.262806 257.315443 
L 132.649761 255.665549 
L 133.036715 255.878438 
L 133.423669 257.741222 
L 133.810623 255.452659 
L 134.197577 257.688 
L 134.584531 255.106714 
L 134.971486 255.958272 
L 135.35844 254.468045 
L 135.745394 254.175322 
L 136.132348 257.342054 
L 136.519302 256.623552 
L 136.906256 258.56617 
L 137.293211 257.23561 
L 137.680165 255.505882 
L 138.067119 254.973658 
L 138.454073 255.745382 
L 138.841027 255.612326 
L 139.227981 255.771994 
L 139.614936 256.836442 
L 140.00189 255.958272 
L 140.388844 256.490496 
L 140.775798 254.414822 
L 141.162752 258.539558 
L 141.549706 254.095488 
L 141.936661 256.064717 
L 142.323615 255.426048 
L 142.710569 256.543718 
L 143.097523 257.23561 
L 143.484477 255.053491 
L 143.871431 256.011494 
L 144.258386 254.920435 
L 144.64534 254.654323 
L 145.032294 254.81399 
L 145.419248 253.084262 
L 145.806202 253.350374 
L 146.193156 255.106714 
L 146.580111 253.722931 
L 146.967065 257.90089 
L 147.354019 254.627712 
L 147.740973 256.783219 
L 148.514881 251.327923 
L 148.901836 250.423142 
L 149.28879 252.57865 
L 149.675744 252.179482 
L 150.062698 253.882598 
L 150.449652 251.806925 
L 150.836606 251.460979 
L 151.223561 252.019814 
L 151.610515 250.955366 
L 151.997469 249.332083 
L 152.384423 253.616486 
L 152.771377 252.259315 
L 153.158331 252.285926 
L 153.545286 249.598195 
L 153.93224 250.769088 
L 154.319194 251.088422 
L 154.706148 252.312538 
L 155.093102 250.396531 
L 155.480056 249.119194 
L 155.867011 250.236864 
L 156.253965 252.871373 
L 156.640919 249.012749 
L 157.027873 252.685094 
L 157.414827 251.381146 
L 157.801781 250.82231 
L 158.188736 252.339149 
L 158.962644 248.560358 
L 159.349598 251.806925 
L 159.736552 249.332083 
L 160.123506 253.004429 
L 160.510461 251.168256 
L 160.897415 252.339149 
L 161.284369 250.423142 
L 161.671323 250.848922 
L 162.058277 248.400691 
L 162.445231 249.119194 
L 162.832186 249.465139 
L 163.21914 249.651418 
L 163.606094 249.358694 
L 163.993048 253.589875 
L 164.380002 248.879693 
L 164.766956 248.799859 
L 165.15391 251.966592 
L 165.540865 246.963686 
L 165.927819 245.846016 
L 166.314773 248.347469 
L 166.701727 246.910464 
L 167.088681 247.49591 
L 167.475635 247.682189 
L 167.86259 246.59113 
L 168.249544 248.37408 
L 168.636498 247.549133 
L 169.023452 248.799859 
L 169.410406 248.640192 
L 169.79736 249.305472 
L 170.184315 248.693414 
L 170.571269 246.910464 
L 170.958223 247.841856 
L 171.732131 248.134579 
L 172.119085 249.544973 
L 172.50604 248.480525 
L 172.892994 250.529587 
L 173.279948 247.655578 
L 173.666902 250.396531 
L 174.053856 247.336243 
L 174.44081 248.693414 
L 174.827765 248.214413 
L 175.214719 250.316698 
L 175.988627 246.112128 
L 176.375581 247.442688 
L 176.762535 252.844762 
L 177.14949 246.325018 
L 177.536444 250.689254 
L 177.923398 246.564518 
L 178.310352 246.644352 
L 178.697306 247.203187 
L 179.08426 246.59113 
L 179.471215 247.203187 
L 180.245123 248.640192 
L 180.632077 247.762022 
L 181.019031 248.932915 
L 181.405985 248.906304 
L 182.179894 248.480525 
L 182.566848 247.283021 
L 182.953802 246.83063 
L 183.340756 247.04352 
L 183.72771 249.278861 
L 184.114665 249.145805 
L 184.888573 247.283021 
L 185.275527 248.400691 
L 185.662481 248.214413 
L 186.049435 247.895078 
L 186.43639 245.766182 
L 187.210298 249.571584 
L 187.597252 250.529587 
L 188.37116 245.50007 
L 188.758115 250.236864 
L 189.145069 247.070131 
L 189.532023 245.50007 
L 189.918977 248.001523 
L 190.305931 246.37824 
L 190.692885 248.58697 
L 191.07984 246.750797 
L 191.466794 243.876787 
L 191.853748 245.846016 
L 192.240702 244.914624 
L 192.627656 247.815245 
L 193.01461 246.138739 
L 193.401565 251.567424 
L 193.788519 245.606515 
L 194.175473 245.686349 
L 194.562427 243.05184 
L 194.949381 244.515456 
L 195.336335 245.180736 
L 195.72329 246.16535 
L 196.110244 244.3824 
L 196.497198 246.16535 
L 196.884152 246.138739 
L 197.271106 244.861402 
L 197.65806 245.021069 
L 198.045015 242.439782 
L 198.431969 245.420237 
L 198.818923 244.808179 
L 199.205877 246.750797 
L 199.592831 245.340403 
L 200.36674 248.959526 
L 200.753694 248.134579 
L 201.140648 246.138739 
L 201.527602 245.50007 
L 201.914556 245.526682 
L 202.30151 247.682189 
L 203.075419 245.04768 
L 203.462373 244.222733 
L 203.849327 243.956621 
L 204.236281 246.085517 
L 204.623235 244.488845 
L 205.01019 245.579904 
L 205.397144 248.400691 
L 205.784098 242.732506 
L 206.171052 245.872627 
L 206.558006 246.112128 
L 206.94496 241.50839 
L 207.331915 243.105062 
L 207.718869 243.610675 
L 208.105823 242.679283 
L 208.492777 243.238118 
L 208.879731 243.317952 
L 209.266685 243.211507 
L 209.65364 247.788634 
L 210.040594 245.233958 
L 210.427548 244.888013 
L 210.814502 245.340403 
L 211.201456 246.005683 
L 211.58841 244.302566 
L 211.975365 245.313792 
L 212.362319 242.945395 
L 212.749273 242.652672 
L 213.136227 244.275955 
L 213.523181 244.063066 
L 213.910135 244.275955 
L 214.29709 242.759117 
L 215.070998 246.431462 
L 215.457952 246.458074 
L 215.844906 245.846016 
L 216.23186 246.191962 
L 216.618815 243.71712 
L 217.005769 243.397786 
L 217.392723 244.888013 
L 217.779677 244.754957 
L 218.166631 245.233958 
L 218.553585 243.131674 
L 218.94054 243.796954 
L 219.327494 246.697574 
L 219.714448 244.59529 
L 220.101402 245.04768 
L 220.488356 244.16951 
L 220.87531 241.72128 
L 221.262265 244.59529 
L 221.649219 242.226893 
L 222.423127 247.149965 
L 222.810081 245.287181 
L 223.197035 245.899238 
L 223.58399 242.812339 
L 223.970944 242.785728 
L 224.357898 244.009843 
L 224.744852 244.16951 
L 225.131806 244.754957 
L 225.51876 241.135834 
L 225.905715 246.617741 
L 226.292669 242.226893 
L 226.679623 246.351629 
L 227.066577 243.131674 
L 227.453531 242.918784 
L 227.840485 240.310886 
L 228.22744 243.610675 
L 228.614394 243.371174 
L 229.001348 240.683443 
L 229.388302 244.036454 
L 229.775256 245.50007 
L 230.16221 241.880947 
L 230.549165 244.781568 
L 230.936119 242.38656 
L 231.323073 245.127514 
L 231.710027 243.584064 
L 232.096981 247.229798 
L 232.483935 246.804019 
L 232.87089 245.340403 
L 233.257844 245.26057 
L 233.644798 242.466394 
L 234.031752 244.488845 
L 234.418706 244.648512 
L 234.80566 243.610675 
L 235.192615 244.302566 
L 235.966523 243.05184 
L 236.353477 243.131674 
L 237.127385 245.154125 
L 237.51434 247.895078 
L 237.901294 244.462234 
L 238.288248 243.344563 
L 238.675202 241.428557 
L 239.062156 243.05184 
L 239.44911 244.089677 
L 239.836065 242.759117 
L 240.223019 243.238118 
L 240.609973 242.333338 
L 240.996927 243.876787 
L 241.383881 243.211507 
L 241.770835 241.561613 
L 242.15779 244.754957 
L 242.544744 242.093837 
L 242.931698 242.785728 
L 243.318652 242.892173 
L 243.705606 245.979072 
L 244.09256 242.014003 
L 244.479515 241.162445 
L 244.866469 242.519616 
L 245.253423 239.432717 
L 245.640377 242.413171 
L 246.027331 240.284275 
L 246.80124 243.93001 
L 247.188194 243.663898 
L 247.575148 240.816499 
L 247.962102 244.355789 
L 248.349056 241.907558 
L 248.73601 243.26473 
L 249.122965 242.998618 
L 249.509919 240.523776 
L 249.896873 242.200282 
L 250.283827 242.493005 
L 250.670781 241.987392 
L 251.057735 243.50423 
L 251.44469 242.226893 
L 251.831644 242.59945 
L 252.218598 242.38656 
L 252.992506 244.781568 
L 253.37946 242.732506 
L 253.766415 241.348723 
L 254.153369 241.189056 
L 254.927277 244.036454 
L 255.314231 239.698829 
L 255.701185 242.812339 
L 256.08814 241.189056 
L 256.475094 241.322112 
L 256.862048 239.964941 
L 257.635956 242.333338 
L 258.02291 241.960781 
L 258.409865 242.626061 
L 258.796819 243.557453 
L 259.183773 241.72128 
L 259.570727 242.014003 
L 259.957681 242.679283 
L 260.344635 239.27305 
L 260.73159 243.05184 
L 261.118544 241.375334 
L 261.505498 238.794048 
L 261.892452 241.561613 
L 262.279406 242.812339 
L 262.66636 239.698829 
L 263.053315 240.470554 
L 263.440269 241.801114 
L 263.827223 242.147059 
L 264.214177 240.443942 
L 264.601131 241.880947 
L 264.988085 239.805274 
L 265.37504 240.337498 
L 265.761994 240.097997 
L 266.148948 241.960781 
L 266.535902 242.280115 
L 266.922856 241.694669 
L 267.696765 240.17783 
L 268.083719 240.17783 
L 268.470673 240.310886 
L 268.857627 239.352883 
L 269.244581 239.51255 
L 269.631535 241.242278 
L 270.01849 240.231053 
L 270.405444 242.759117 
L 270.792398 241.93417 
L 271.179352 240.523776 
L 271.566306 242.17367 
L 271.95326 239.06016 
L 272.340215 241.50839 
L 273.114123 243.637286 
L 273.501077 243.131674 
L 273.888031 239.72544 
L 274.274985 244.089677 
L 274.66194 239.885107 
L 275.048894 242.83895 
L 275.435848 240.683443 
L 275.822802 242.040614 
L 276.209756 241.242278 
L 276.59671 241.668058 
L 276.983665 241.668058 
L 277.370619 242.759117 
L 277.757573 240.976166 
L 278.531481 239.991552 
L 278.918435 239.432717 
L 279.30539 241.880947 
L 279.692344 240.683443 
L 280.079298 243.424397 
L 280.466252 239.964941 
L 280.853206 239.72544 
L 281.627115 243.93001 
L 282.014069 240.869722 
L 282.401023 241.401946 
L 282.787977 242.519616 
L 283.174931 240.257664 
L 283.561885 239.352883 
L 283.94884 242.439782 
L 284.335794 239.06016 
L 284.722748 240.39072 
L 285.109702 239.778662 
L 285.496656 241.641446 
L 285.88361 242.493005 
L 286.270565 241.056 
L 286.657519 241.082611 
L 287.044473 240.257664 
L 287.431427 238.288435 
L 287.818381 240.018163 
L 288.205335 238.208602 
L 288.59229 238.660992 
L 288.979244 241.401946 
L 289.366198 239.139994 
L 289.753152 240.816499 
L 290.140106 239.086771 
L 290.52706 241.189056 
L 290.914015 241.854336 
L 291.300969 240.576998 
L 292.074877 241.295501 
L 292.461831 241.056 
L 292.848785 240.044774 
L 293.23574 240.17783 
L 293.622694 239.991552 
L 294.009648 239.006938 
L 294.396602 241.987392 
L 294.783556 240.337498 
L 295.17051 240.39072 
L 295.557465 239.299661 
L 295.944419 240.550387 
L 296.331373 238.315046 
L 296.718327 237.330432 
L 297.105281 239.831885 
L 297.87919 238.740826 
L 298.266144 239.459328 
L 298.653098 236.85143 
L 299.040052 239.51255 
L 299.427006 241.135834 
L 299.81396 242.014003 
L 300.200915 243.770342 
L 300.587869 238.767437 
L 300.974823 238.873882 
L 301.361777 237.569933 
L 301.748731 241.348723 
L 302.135685 241.641446 
L 302.52264 239.93833 
L 303.296548 238.980326 
L 303.683502 237.250598 
L 304.070456 239.246438 
L 304.45741 237.7296 
L 304.844365 238.128768 
L 305.618273 239.672218 
L 306.005227 239.27305 
L 306.392181 244.089677 
L 306.779135 239.698829 
L 307.16609 239.485939 
L 307.553044 241.002778 
L 307.939998 240.922944 
L 308.326952 239.113382 
L 308.713906 238.128768 
L 309.10086 238.767437 
L 309.487814 241.242278 
L 309.874769 239.858496 
L 310.261723 240.231053 
L 310.648677 240.976166 
L 311.035631 240.417331 
L 311.422585 242.067226 
L 312.196494 241.189056 
L 312.583448 236.452262 
L 313.357356 240.231053 
L 313.74431 237.676378 
L 314.131264 238.368269 
L 314.518219 238.102157 
L 314.905173 240.470554 
L 315.292127 240.071386 
L 315.679081 240.310886 
L 316.066035 238.155379 
L 316.452989 239.033549 
L 316.839944 238.208602 
L 317.226898 238.820659 
L 317.613852 241.322112 
L 318.000806 237.915878 
L 318.38776 239.06016 
L 318.774714 241.26889 
L 319.161669 238.740826 
L 319.548623 239.326272 
L 319.935577 238.554547 
L 320.322531 240.17783 
L 320.709485 240.976166 
L 321.096439 237.915878 
L 321.483394 239.885107 
L 321.870348 241.162445 
L 322.257302 238.687603 
L 322.644256 239.06016 
L 323.03121 241.322112 
L 323.418164 241.029389 
L 323.805119 239.033549 
L 324.192073 239.698829 
L 324.579027 239.539162 
L 324.965981 240.630221 
L 325.352935 238.527936 
L 325.739889 239.326272 
L 326.126844 236.984486 
L 326.513798 239.672218 
L 326.900752 238.501325 
L 327.287706 239.193216 
L 327.67466 241.109222 
L 328.061614 241.162445 
L 328.448569 239.379494 
L 328.835523 241.668058 
L 329.222477 240.284275 
L 329.609431 238.368269 
L 329.996385 237.702989 
L 330.383339 237.27721 
L 330.770294 237.915878 
L 331.157248 239.672218 
L 331.544202 236.85143 
L 331.931156 238.102157 
L 332.31811 236.824819 
L 332.705064 237.303821 
L 333.092019 238.474714 
L 333.478973 237.649766 
L 333.865927 240.337498 
L 334.252881 240.097997 
L 334.639835 239.72544 
L 335.026789 238.794048 
L 335.413744 238.900493 
L 335.800698 237.995712 
L 336.574606 237.170765 
L 336.96156 239.485939 
L 337.348514 240.071386 
L 338.122423 238.075546 
L 338.509377 248.879693 
L 338.896331 237.51671 
L 339.283285 236.372429 
L 339.670239 236.372429 
L 340.057194 235.600704 
L 340.444148 238.235213 
L 340.831102 240.044774 
L 341.218056 238.448102 
L 341.60501 238.155379 
L 341.991964 238.128768 
L 342.378919 239.166605 
L 342.765873 238.527936 
L 343.152827 237.410266 
L 343.539781 238.048934 
L 343.926735 236.239373 
L 344.313689 236.744986 
L 344.700644 237.969101 
L 345.087598 236.345818 
L 345.474552 238.554547 
L 345.861506 239.06016 
L 346.24846 238.767437 
L 346.635414 239.858496 
L 347.022369 237.649766 
L 347.409323 236.718374 
L 347.796277 236.957875 
L 348.183231 238.953715 
L 348.570185 241.641446 
L 348.957139 238.953715 
L 349.344094 239.086771 
L 349.731048 239.432717 
L 350.118002 241.215667 
L 350.504956 240.044774 
L 350.89191 238.048934 
L 351.278864 239.299661 
L 351.665819 237.543322 
L 352.052773 239.219827 
L 352.439727 238.501325 
L 352.826681 239.991552 
L 353.213635 237.836045 
L 353.600589 238.102157 
L 353.987544 238.767437 
L 354.374498 237.702989 
L 354.761452 239.778662 
L 355.148406 237.969101 
L 355.53536 238.102157 
L 355.922314 239.618995 
L 356.309269 236.691763 
L 356.696223 243.105062 
L 357.083177 239.911718 
L 357.470131 238.634381 
L 357.857085 240.443942 
L 358.244039 237.090931 
L 358.630994 236.798208 
L 359.017948 237.197376 
L 359.404902 238.767437 
L 360.17881 238.634381 
L 360.565764 237.623155 
L 360.952719 236.18615 
L 361.339673 238.048934 
L 361.726627 237.649766 
L 362.113581 235.973261 
L 362.500535 238.581158 
L 362.887489 239.51255 
L 363.274444 234.802368 
L 363.661398 236.106317 
L 364.048352 239.086771 
L 364.435306 238.341658 
L 364.82226 235.52087 
L 365.209214 239.166605 
L 365.596169 238.048934 
L 365.983123 237.490099 
L 366.370077 239.246438 
L 366.757031 238.102157 
L 367.143985 238.075546 
L 367.530939 237.357043 
L 367.917894 239.831885 
L 368.304848 235.680538 
L 368.691802 238.155379 
L 369.078756 237.117542 
L 369.46571 235.52087 
L 369.852664 238.022323 
L 370.239619 235.201536 
L 370.626573 237.06432 
L 371.013527 235.999872 
L 371.400481 238.048934 
L 372.174389 237.809434 
L 372.561344 235.999872 
L 372.948298 238.740826 
L 373.335252 237.303821 
L 373.722206 234.669312 
L 374.496114 237.676378 
L 374.883069 235.786982 
L 375.270023 236.39904 
L 375.656977 238.022323 
L 376.043931 235.574093 
L 376.430885 236.026483 
L 376.817839 238.048934 
L 377.204794 237.223987 
L 377.591748 235.307981 
L 377.978702 236.18615 
L 378.365656 237.436877 
L 378.75261 236.691763 
L 379.139564 236.345818 
L 379.526519 237.623155 
L 379.913473 236.984486 
L 380.300427 236.61193 
L 380.687381 238.315046 
L 381.461289 236.265984 
L 381.848244 236.319206 
L 382.235198 237.569933 
L 382.622152 236.85143 
L 383.009106 238.075546 
L 383.39606 237.836045 
L 383.783014 238.048934 
L 384.169969 235.574093 
L 384.556923 236.239373 
L 384.943877 234.376589 
L 385.330831 236.904653 
L 385.717785 236.931264 
L 386.104739 237.330432 
L 386.491694 235.494259 
L 386.878648 234.562867 
L 387.265602 237.7296 
L 387.652556 236.957875 
L 388.03951 236.691763 
L 388.426464 235.494259 
L 388.813419 235.361203 
L 389.200373 238.102157 
L 389.587327 236.85143 
L 389.974281 234.163699 
L 390.361235 237.463488 
L 390.748189 235.254758 
L 391.135144 236.212762 
L 391.522098 236.372429 
L 391.909052 236.744986 
L 392.296006 237.915878 
L 392.68296 236.691763 
L 393.069914 234.749146 
L 393.456869 235.307981 
L 393.843823 238.687603 
L 394.230777 237.7296 
L 394.617731 235.999872 
L 395.004685 235.999872 
L 395.391639 234.483034 
L 395.778594 238.155379 
L 396.165548 235.680538 
L 396.552502 235.06848 
L 396.939456 237.995712 
L 397.32641 236.319206 
L 397.713364 236.079706 
L 398.100319 236.585318 
L 398.487273 238.075546 
L 398.487273 238.075546 
" style="fill:none;stroke:#ff7f0e;stroke-linecap:square;stroke-width:1.5;"/>
   </g>
   <g id="patch_3">
    <path d="M 57.6 307.584 
L 57.6 41.472 
" style="fill:none;stroke:#000000;stroke-linecap:square;stroke-linejoin:miter;stroke-width:0.8;"/>
   </g>
   <g id="patch_4">
    <path d="M 414.72 307.584 
L 414.72 41.472 
" style="fill:none;stroke:#000000;stroke-linecap:square;stroke-linejoin:miter;stroke-width:0.8;"/>
   </g>
   <g id="patch_5">
    <path d="M 57.6 307.584 
L 414.72 307.584 
" style="fill:none;stroke:#000000;stroke-linecap:square;stroke-linejoin:miter;stroke-width:0.8;"/>
   </g>
   <g id="patch_6">
    <path d="M 57.6 41.472 
L 414.72 41.472 
" style="fill:none;stroke:#000000;stroke-linecap:square;stroke-linejoin:miter;stroke-width:0.8;"/>
   </g>
   <g id="legend_1">
    <g id="patch_7">
     <path d="M 64.6 78.82825 
L 168.475 78.82825 
Q 170.475 78.82825 170.475 76.82825 
L 170.475 48.472 
Q 170.475 46.472 168.475 46.472 
L 64.6 46.472 
Q 62.6 46.472 62.6 48.472 
L 62.6 76.82825 
Q 62.6 78.82825 64.6 78.82825 
z
" style="fill:#ffffff;opacity:0.8;stroke:#cccccc;stroke-linejoin:miter;"/>
    </g>
    <g id="line2d_14">
     <path d="M 66.6 54.570437 
L 86.6 54.570437 
" style="fill:none;stroke:#1f77b4;stroke-linecap:square;stroke-width:1.5;"/>
    </g>
    <g id="line2d_15"/>
    <g id="text_14">
     <!-- Train loss -->
     <g transform="translate(94.6 58.070437)scale(0.1 -0.1)">
      <defs>
       <path d="M -19 4666 
L 3928 4666 
L 3928 4134 
L 2272 4134 
L 2272 0 
L 1638 0 
L 1638 4134 
L -19 4134 
L -19 4666 
z
" id="DejaVuSans-54" transform="scale(0.015625)"/>
       <path d="M 603 3500 
L 1178 3500 
L 1178 0 
L 603 0 
L 603 3500 
z
M 603 4863 
L 1178 4863 
L 1178 4134 
L 603 4134 
L 603 4863 
z
" id="DejaVuSans-69" transform="scale(0.015625)"/>
       <path d="M 3513 2113 
L 3513 0 
L 2938 0 
L 2938 2094 
Q 2938 2591 2744 2837 
Q 2550 3084 2163 3084 
Q 1697 3084 1428 2787 
Q 1159 2491 1159 1978 
L 1159 0 
L 581 0 
L 581 3500 
L 1159 3500 
L 1159 2956 
Q 1366 3272 1645 3428 
Q 1925 3584 2291 3584 
Q 2894 3584 3203 3211 
Q 3513 2838 3513 2113 
z
" id="DejaVuSans-6e" transform="scale(0.015625)"/>
       <path id="DejaVuSans-20" transform="scale(0.015625)"/>
       <path d="M 603 4863 
L 1178 4863 
L 1178 0 
L 603 0 
L 603 4863 
z
" id="DejaVuSans-6c" transform="scale(0.015625)"/>
       <path d="M 2834 3397 
L 2834 2853 
Q 2591 2978 2328 3040 
Q 2066 3103 1784 3103 
Q 1356 3103 1142 2972 
Q 928 2841 928 2578 
Q 928 2378 1081 2264 
Q 1234 2150 1697 2047 
L 1894 2003 
Q 2506 1872 2764 1633 
Q 3022 1394 3022 966 
Q 3022 478 2636 193 
Q 2250 -91 1575 -91 
Q 1294 -91 989 -36 
Q 684 19 347 128 
L 347 722 
Q 666 556 975 473 
Q 1284 391 1588 391 
Q 1994 391 2212 530 
Q 2431 669 2431 922 
Q 2431 1156 2273 1281 
Q 2116 1406 1581 1522 
L 1381 1569 
Q 847 1681 609 1914 
Q 372 2147 372 2553 
Q 372 3047 722 3315 
Q 1072 3584 1716 3584 
Q 2034 3584 2315 3537 
Q 2597 3491 2834 3397 
z
" id="DejaVuSans-73" transform="scale(0.015625)"/>
      </defs>
      <use xlink:href="#DejaVuSans-54"/>
      <use x="46.333984" xlink:href="#DejaVuSans-72"/>
      <use x="87.447266" xlink:href="#DejaVuSans-61"/>
      <use x="148.726562" xlink:href="#DejaVuSans-69"/>
      <use x="176.509766" xlink:href="#DejaVuSans-6e"/>
      <use x="239.888672" xlink:href="#DejaVuSans-20"/>
      <use x="271.675781" xlink:href="#DejaVuSans-6c"/>
      <use x="299.458984" xlink:href="#DejaVuSans-6f"/>
      <use x="360.640625" xlink:href="#DejaVuSans-73"/>
      <use x="412.740234" xlink:href="#DejaVuSans-73"/>
     </g>
    </g>
    <g id="line2d_16">
     <path d="M 66.6 69.248562 
L 86.6 69.248562 
" style="fill:none;stroke:#ff7f0e;stroke-linecap:square;stroke-width:1.5;"/>
    </g>
    <g id="line2d_17"/>
    <g id="text_15">
     <!-- Validation loss -->
     <g transform="translate(94.6 72.748562)scale(0.1 -0.1)">
      <defs>
       <path d="M 1831 0 
L 50 4666 
L 709 4666 
L 2188 738 
L 3669 4666 
L 4325 4666 
L 2547 0 
L 1831 0 
z
" id="DejaVuSans-56" transform="scale(0.015625)"/>
       <path d="M 2906 2969 
L 2906 4863 
L 3481 4863 
L 3481 0 
L 2906 0 
L 2906 525 
Q 2725 213 2448 61 
Q 2172 -91 1784 -91 
Q 1150 -91 751 415 
Q 353 922 353 1747 
Q 353 2572 751 3078 
Q 1150 3584 1784 3584 
Q 2172 3584 2448 3432 
Q 2725 3281 2906 2969 
z
M 947 1747 
Q 947 1113 1208 752 
Q 1469 391 1925 391 
Q 2381 391 2643 752 
Q 2906 1113 2906 1747 
Q 2906 2381 2643 2742 
Q 2381 3103 1925 3103 
Q 1469 3103 1208 2742 
Q 947 2381 947 1747 
z
" id="DejaVuSans-64" transform="scale(0.015625)"/>
       <path d="M 1172 4494 
L 1172 3500 
L 2356 3500 
L 2356 3053 
L 1172 3053 
L 1172 1153 
Q 1172 725 1289 603 
Q 1406 481 1766 481 
L 2356 481 
L 2356 0 
L 1766 0 
Q 1100 0 847 248 
Q 594 497 594 1153 
L 594 3053 
L 172 3053 
L 172 3500 
L 594 3500 
L 594 4494 
L 1172 4494 
z
" id="DejaVuSans-74" transform="scale(0.015625)"/>
      </defs>
      <use xlink:href="#DejaVuSans-56"/>
      <use x="60.658203" xlink:href="#DejaVuSans-61"/>
      <use x="121.9375" xlink:href="#DejaVuSans-6c"/>
      <use x="149.720703" xlink:href="#DejaVuSans-69"/>
      <use x="177.503906" xlink:href="#DejaVuSans-64"/>
      <use x="240.980469" xlink:href="#DejaVuSans-61"/>
      <use x="302.259766" xlink:href="#DejaVuSans-74"/>
      <use x="341.46875" xlink:href="#DejaVuSans-69"/>
      <use x="369.251953" xlink:href="#DejaVuSans-6f"/>
      <use x="430.433594" xlink:href="#DejaVuSans-6e"/>
      <use x="493.8125" xlink:href="#DejaVuSans-20"/>
      <use x="525.599609" xlink:href="#DejaVuSans-6c"/>
      <use x="553.382812" xlink:href="#DejaVuSans-6f"/>
      <use x="614.564453" xlink:href="#DejaVuSans-73"/>
      <use x="666.664062" xlink:href="#DejaVuSans-73"/>
     </g>
    </g>
   </g>
  </g>
 </g>
 <defs>
  <clipPath id="p40b4fd0df5">
   <rect height="266.112" width="357.12" x="57.6" y="41.472"/>
  </clipPath>
 </defs>
</svg>
