<?xml version="1.0" encoding="utf-8" standalone="no"?>
<!DOCTYPE svg PUBLIC "-//W3C//DTD SVG 1.1//EN"
  "http://www.w3.org/Graphics/SVG/1.1/DTD/svg11.dtd">
<svg height="345.6pt" version="1.1" viewBox="0 0 460.8 345.6" width="460.8pt" xmlns="http://www.w3.org/2000/svg" xmlns:xlink="http://www.w3.org/1999/xlink">
 <metadata>
  <rdf:RDF xmlns:cc="http://creativecommons.org/ns#" xmlns:dc="http://purl.org/dc/elements/1.1/" xmlns:rdf="http://www.w3.org/1999/02/22-rdf-syntax-ns#">
   <cc:Work>
    <dc:type rdf:resource="http://purl.org/dc/dcmitype/StillImage"/>
    <dc:date>2021-07-20T23:23:18.523049</dc:date>
    <dc:format>image/svg+xml</dc:format>
    <dc:creator>
     <cc:Agent>
      <dc:title>Matplotlib v3.4.2, https://matplotlib.org/</dc:title>
     </cc:Agent>
    </dc:creator>
   </cc:Work>
  </rdf:RDF>
 </metadata>
 <defs>
  <style type="text/css">*{stroke-linecap:butt;stroke-linejoin:round;}</style>
 </defs>
 <g id="figure_1">
  <g id="patch_1">
   <path d="M 0 345.6 
L 460.8 345.6 
L 460.8 0 
L 0 0 
z
" style="fill:#ffffff;"/>
  </g>
  <g id="axes_1">
   <g id="patch_2">
    <path d="M 57.6 307.584 
L 414.72 307.584 
L 414.72 41.472 
L 57.6 41.472 
z
" style="fill:#ffffff;"/>
   </g>
   <g id="matplotlib.axis_1">
    <g id="xtick_1">
     <g id="line2d_1">
      <defs>
       <path d="M 0 0 
L 0 3.5 
" id="mf8ede56b04" style="stroke:#000000;stroke-width:0.8;"/>
      </defs>
      <g>
       <use style="stroke:#000000;stroke-width:0.8;" x="73.646037" xlink:href="#mf8ede56b04" y="307.584"/>
      </g>
     </g>
     <g id="text_1">
      <!-- 0 -->
      <g transform="translate(70.464787 322.182437)scale(0.1 -0.1)">
       <defs>
        <path d="M 2034 4250 
Q 1547 4250 1301 3770 
Q 1056 3291 1056 2328 
Q 1056 1369 1301 889 
Q 1547 409 2034 409 
Q 2525 409 2770 889 
Q 3016 1369 3016 2328 
Q 3016 3291 2770 3770 
Q 2525 4250 2034 4250 
z
M 2034 4750 
Q 2819 4750 3233 4129 
Q 3647 3509 3647 2328 
Q 3647 1150 3233 529 
Q 2819 -91 2034 -91 
Q 1250 -91 836 529 
Q 422 1150 422 2328 
Q 422 3509 836 4129 
Q 1250 4750 2034 4750 
z
" id="DejaVuSans-30" transform="scale(0.015625)"/>
       </defs>
       <use xlink:href="#DejaVuSans-30"/>
      </g>
     </g>
    </g>
    <g id="xtick_2">
     <g id="line2d_2">
      <g>
       <use style="stroke:#000000;stroke-width:0.8;" x="120.318628" xlink:href="#mf8ede56b04" y="307.584"/>
      </g>
     </g>
     <g id="text_2">
      <!-- 250 -->
      <g transform="translate(110.774878 322.182437)scale(0.1 -0.1)">
       <defs>
        <path d="M 1228 531 
L 3431 531 
L 3431 0 
L 469 0 
L 469 531 
Q 828 903 1448 1529 
Q 2069 2156 2228 2338 
Q 2531 2678 2651 2914 
Q 2772 3150 2772 3378 
Q 2772 3750 2511 3984 
Q 2250 4219 1831 4219 
Q 1534 4219 1204 4116 
Q 875 4013 500 3803 
L 500 4441 
Q 881 4594 1212 4672 
Q 1544 4750 1819 4750 
Q 2544 4750 2975 4387 
Q 3406 4025 3406 3419 
Q 3406 3131 3298 2873 
Q 3191 2616 2906 2266 
Q 2828 2175 2409 1742 
Q 1991 1309 1228 531 
z
" id="DejaVuSans-32" transform="scale(0.015625)"/>
        <path d="M 691 4666 
L 3169 4666 
L 3169 4134 
L 1269 4134 
L 1269 2991 
Q 1406 3038 1543 3061 
Q 1681 3084 1819 3084 
Q 2600 3084 3056 2656 
Q 3513 2228 3513 1497 
Q 3513 744 3044 326 
Q 2575 -91 1722 -91 
Q 1428 -91 1123 -41 
Q 819 9 494 109 
L 494 744 
Q 775 591 1075 516 
Q 1375 441 1709 441 
Q 2250 441 2565 725 
Q 2881 1009 2881 1497 
Q 2881 1984 2565 2268 
Q 2250 2553 1709 2553 
Q 1456 2553 1204 2497 
Q 953 2441 691 2322 
L 691 4666 
z
" id="DejaVuSans-35" transform="scale(0.015625)"/>
       </defs>
       <use xlink:href="#DejaVuSans-32"/>
       <use x="63.623047" xlink:href="#DejaVuSans-35"/>
       <use x="127.246094" xlink:href="#DejaVuSans-30"/>
      </g>
     </g>
    </g>
    <g id="xtick_3">
     <g id="line2d_3">
      <g>
       <use style="stroke:#000000;stroke-width:0.8;" x="166.99122" xlink:href="#mf8ede56b04" y="307.584"/>
      </g>
     </g>
     <g id="text_3">
      <!-- 500 -->
      <g transform="translate(157.44747 322.182437)scale(0.1 -0.1)">
       <use xlink:href="#DejaVuSans-35"/>
       <use x="63.623047" xlink:href="#DejaVuSans-30"/>
       <use x="127.246094" xlink:href="#DejaVuSans-30"/>
      </g>
     </g>
    </g>
    <g id="xtick_4">
     <g id="line2d_4">
      <g>
       <use style="stroke:#000000;stroke-width:0.8;" x="213.663811" xlink:href="#mf8ede56b04" y="307.584"/>
      </g>
     </g>
     <g id="text_4">
      <!-- 750 -->
      <g transform="translate(204.120061 322.182437)scale(0.1 -0.1)">
       <defs>
        <path d="M 525 4666 
L 3525 4666 
L 3525 4397 
L 1831 0 
L 1172 0 
L 2766 4134 
L 525 4134 
L 525 4666 
z
" id="DejaVuSans-37" transform="scale(0.015625)"/>
       </defs>
       <use xlink:href="#DejaVuSans-37"/>
       <use x="63.623047" xlink:href="#DejaVuSans-35"/>
       <use x="127.246094" xlink:href="#DejaVuSans-30"/>
      </g>
     </g>
    </g>
    <g id="xtick_5">
     <g id="line2d_5">
      <g>
       <use style="stroke:#000000;stroke-width:0.8;" x="260.336402" xlink:href="#mf8ede56b04" y="307.584"/>
      </g>
     </g>
     <g id="text_5">
      <!-- 1000 -->
      <g transform="translate(247.611402 322.182437)scale(0.1 -0.1)">
       <defs>
        <path d="M 794 531 
L 1825 531 
L 1825 4091 
L 703 3866 
L 703 4441 
L 1819 4666 
L 2450 4666 
L 2450 531 
L 3481 531 
L 3481 0 
L 794 0 
L 794 531 
z
" id="DejaVuSans-31" transform="scale(0.015625)"/>
       </defs>
       <use xlink:href="#DejaVuSans-31"/>
       <use x="63.623047" xlink:href="#DejaVuSans-30"/>
       <use x="127.246094" xlink:href="#DejaVuSans-30"/>
       <use x="190.869141" xlink:href="#DejaVuSans-30"/>
      </g>
     </g>
    </g>
    <g id="xtick_6">
     <g id="line2d_6">
      <g>
       <use style="stroke:#000000;stroke-width:0.8;" x="307.008994" xlink:href="#mf8ede56b04" y="307.584"/>
      </g>
     </g>
     <g id="text_6">
      <!-- 1250 -->
      <g transform="translate(294.283994 322.182437)scale(0.1 -0.1)">
       <use xlink:href="#DejaVuSans-31"/>
       <use x="63.623047" xlink:href="#DejaVuSans-32"/>
       <use x="127.246094" xlink:href="#DejaVuSans-35"/>
       <use x="190.869141" xlink:href="#DejaVuSans-30"/>
      </g>
     </g>
    </g>
    <g id="xtick_7">
     <g id="line2d_7">
      <g>
       <use style="stroke:#000000;stroke-width:0.8;" x="353.681585" xlink:href="#mf8ede56b04" y="307.584"/>
      </g>
     </g>
     <g id="text_7">
      <!-- 1500 -->
      <g transform="translate(340.956585 322.182437)scale(0.1 -0.1)">
       <use xlink:href="#DejaVuSans-31"/>
       <use x="63.623047" xlink:href="#DejaVuSans-35"/>
       <use x="127.246094" xlink:href="#DejaVuSans-30"/>
       <use x="190.869141" xlink:href="#DejaVuSans-30"/>
      </g>
     </g>
    </g>
    <g id="xtick_8">
     <g id="line2d_8">
      <g>
       <use style="stroke:#000000;stroke-width:0.8;" x="400.354176" xlink:href="#mf8ede56b04" y="307.584"/>
      </g>
     </g>
     <g id="text_8">
      <!-- 1750 -->
      <g transform="translate(387.629176 322.182437)scale(0.1 -0.1)">
       <use xlink:href="#DejaVuSans-31"/>
       <use x="63.623047" xlink:href="#DejaVuSans-37"/>
       <use x="127.246094" xlink:href="#DejaVuSans-35"/>
       <use x="190.869141" xlink:href="#DejaVuSans-30"/>
      </g>
     </g>
    </g>
    <g id="text_9">
     <!-- Epoch -->
     <g transform="translate(213.193594 339.659781)scale(0.15 -0.15)">
      <defs>
       <path d="M 628 4666 
L 3578 4666 
L 3578 4134 
L 1259 4134 
L 1259 2753 
L 3481 2753 
L 3481 2222 
L 1259 2222 
L 1259 531 
L 3634 531 
L 3634 0 
L 628 0 
L 628 4666 
z
" id="DejaVuSans-45" transform="scale(0.015625)"/>
       <path d="M 1159 525 
L 1159 -1331 
L 581 -1331 
L 581 3500 
L 1159 3500 
L 1159 2969 
Q 1341 3281 1617 3432 
Q 1894 3584 2278 3584 
Q 2916 3584 3314 3078 
Q 3713 2572 3713 1747 
Q 3713 922 3314 415 
Q 2916 -91 2278 -91 
Q 1894 -91 1617 61 
Q 1341 213 1159 525 
z
M 3116 1747 
Q 3116 2381 2855 2742 
Q 2594 3103 2138 3103 
Q 1681 3103 1420 2742 
Q 1159 2381 1159 1747 
Q 1159 1113 1420 752 
Q 1681 391 2138 391 
Q 2594 391 2855 752 
Q 3116 1113 3116 1747 
z
" id="DejaVuSans-70" transform="scale(0.015625)"/>
       <path d="M 1959 3097 
Q 1497 3097 1228 2736 
Q 959 2375 959 1747 
Q 959 1119 1226 758 
Q 1494 397 1959 397 
Q 2419 397 2687 759 
Q 2956 1122 2956 1747 
Q 2956 2369 2687 2733 
Q 2419 3097 1959 3097 
z
M 1959 3584 
Q 2709 3584 3137 3096 
Q 3566 2609 3566 1747 
Q 3566 888 3137 398 
Q 2709 -91 1959 -91 
Q 1206 -91 779 398 
Q 353 888 353 1747 
Q 353 2609 779 3096 
Q 1206 3584 1959 3584 
z
" id="DejaVuSans-6f" transform="scale(0.015625)"/>
       <path d="M 3122 3366 
L 3122 2828 
Q 2878 2963 2633 3030 
Q 2388 3097 2138 3097 
Q 1578 3097 1268 2742 
Q 959 2388 959 1747 
Q 959 1106 1268 751 
Q 1578 397 2138 397 
Q 2388 397 2633 464 
Q 2878 531 3122 666 
L 3122 134 
Q 2881 22 2623 -34 
Q 2366 -91 2075 -91 
Q 1284 -91 818 406 
Q 353 903 353 1747 
Q 353 2603 823 3093 
Q 1294 3584 2113 3584 
Q 2378 3584 2631 3529 
Q 2884 3475 3122 3366 
z
" id="DejaVuSans-63" transform="scale(0.015625)"/>
       <path d="M 3513 2113 
L 3513 0 
L 2938 0 
L 2938 2094 
Q 2938 2591 2744 2837 
Q 2550 3084 2163 3084 
Q 1697 3084 1428 2787 
Q 1159 2491 1159 1978 
L 1159 0 
L 581 0 
L 581 4863 
L 1159 4863 
L 1159 2956 
Q 1366 3272 1645 3428 
Q 1925 3584 2291 3584 
Q 2894 3584 3203 3211 
Q 3513 2838 3513 2113 
z
" id="DejaVuSans-68" transform="scale(0.015625)"/>
      </defs>
      <use xlink:href="#DejaVuSans-45"/>
      <use x="63.183594" xlink:href="#DejaVuSans-70"/>
      <use x="126.660156" xlink:href="#DejaVuSans-6f"/>
      <use x="187.841797" xlink:href="#DejaVuSans-63"/>
      <use x="242.822266" xlink:href="#DejaVuSans-68"/>
     </g>
    </g>
   </g>
   <g id="matplotlib.axis_2">
    <g id="ytick_1">
     <g id="line2d_9">
      <defs>
       <path d="M 0 0 
L -3.5 0 
" id="m09a0766701" style="stroke:#000000;stroke-width:0.8;"/>
      </defs>
      <g>
       <use style="stroke:#000000;stroke-width:0.8;" x="57.6" xlink:href="#m09a0766701" y="266.266815"/>
      </g>
     </g>
     <g id="text_10">
      <!-- −1000 -->
      <g transform="translate(16.770313 270.066034)scale(0.1 -0.1)">
       <defs>
        <path d="M 678 2272 
L 4684 2272 
L 4684 1741 
L 678 1741 
L 678 2272 
z
" id="DejaVuSans-2212" transform="scale(0.015625)"/>
       </defs>
       <use xlink:href="#DejaVuSans-2212"/>
       <use x="83.789062" xlink:href="#DejaVuSans-31"/>
       <use x="147.412109" xlink:href="#DejaVuSans-30"/>
       <use x="211.035156" xlink:href="#DejaVuSans-30"/>
       <use x="274.658203" xlink:href="#DejaVuSans-30"/>
      </g>
     </g>
    </g>
    <g id="ytick_2">
     <g id="line2d_10">
      <g>
       <use style="stroke:#000000;stroke-width:0.8;" x="57.6" xlink:href="#m09a0766701" y="219.319142"/>
      </g>
     </g>
     <g id="text_11">
      <!-- −800 -->
      <g transform="translate(23.132812 223.118361)scale(0.1 -0.1)">
       <defs>
        <path d="M 2034 2216 
Q 1584 2216 1326 1975 
Q 1069 1734 1069 1313 
Q 1069 891 1326 650 
Q 1584 409 2034 409 
Q 2484 409 2743 651 
Q 3003 894 3003 1313 
Q 3003 1734 2745 1975 
Q 2488 2216 2034 2216 
z
M 1403 2484 
Q 997 2584 770 2862 
Q 544 3141 544 3541 
Q 544 4100 942 4425 
Q 1341 4750 2034 4750 
Q 2731 4750 3128 4425 
Q 3525 4100 3525 3541 
Q 3525 3141 3298 2862 
Q 3072 2584 2669 2484 
Q 3125 2378 3379 2068 
Q 3634 1759 3634 1313 
Q 3634 634 3220 271 
Q 2806 -91 2034 -91 
Q 1263 -91 848 271 
Q 434 634 434 1313 
Q 434 1759 690 2068 
Q 947 2378 1403 2484 
z
M 1172 3481 
Q 1172 3119 1398 2916 
Q 1625 2713 2034 2713 
Q 2441 2713 2670 2916 
Q 2900 3119 2900 3481 
Q 2900 3844 2670 4047 
Q 2441 4250 2034 4250 
Q 1625 4250 1398 4047 
Q 1172 3844 1172 3481 
z
" id="DejaVuSans-38" transform="scale(0.015625)"/>
       </defs>
       <use xlink:href="#DejaVuSans-2212"/>
       <use x="83.789062" xlink:href="#DejaVuSans-38"/>
       <use x="147.412109" xlink:href="#DejaVuSans-30"/>
       <use x="211.035156" xlink:href="#DejaVuSans-30"/>
      </g>
     </g>
    </g>
    <g id="ytick_3">
     <g id="line2d_11">
      <g>
       <use style="stroke:#000000;stroke-width:0.8;" x="57.6" xlink:href="#m09a0766701" y="172.371469"/>
      </g>
     </g>
     <g id="text_12">
      <!-- −600 -->
      <g transform="translate(23.132812 176.170688)scale(0.1 -0.1)">
       <defs>
        <path d="M 2113 2584 
Q 1688 2584 1439 2293 
Q 1191 2003 1191 1497 
Q 1191 994 1439 701 
Q 1688 409 2113 409 
Q 2538 409 2786 701 
Q 3034 994 3034 1497 
Q 3034 2003 2786 2293 
Q 2538 2584 2113 2584 
z
M 3366 4563 
L 3366 3988 
Q 3128 4100 2886 4159 
Q 2644 4219 2406 4219 
Q 1781 4219 1451 3797 
Q 1122 3375 1075 2522 
Q 1259 2794 1537 2939 
Q 1816 3084 2150 3084 
Q 2853 3084 3261 2657 
Q 3669 2231 3669 1497 
Q 3669 778 3244 343 
Q 2819 -91 2113 -91 
Q 1303 -91 875 529 
Q 447 1150 447 2328 
Q 447 3434 972 4092 
Q 1497 4750 2381 4750 
Q 2619 4750 2861 4703 
Q 3103 4656 3366 4563 
z
" id="DejaVuSans-36" transform="scale(0.015625)"/>
       </defs>
       <use xlink:href="#DejaVuSans-2212"/>
       <use x="83.789062" xlink:href="#DejaVuSans-36"/>
       <use x="147.412109" xlink:href="#DejaVuSans-30"/>
       <use x="211.035156" xlink:href="#DejaVuSans-30"/>
      </g>
     </g>
    </g>
    <g id="ytick_4">
     <g id="line2d_12">
      <g>
       <use style="stroke:#000000;stroke-width:0.8;" x="57.6" xlink:href="#m09a0766701" y="125.423796"/>
      </g>
     </g>
     <g id="text_13">
      <!-- −400 -->
      <g transform="translate(23.132812 129.223015)scale(0.1 -0.1)">
       <defs>
        <path d="M 2419 4116 
L 825 1625 
L 2419 1625 
L 2419 4116 
z
M 2253 4666 
L 3047 4666 
L 3047 1625 
L 3713 1625 
L 3713 1100 
L 3047 1100 
L 3047 0 
L 2419 0 
L 2419 1100 
L 313 1100 
L 313 1709 
L 2253 4666 
z
" id="DejaVuSans-34" transform="scale(0.015625)"/>
       </defs>
       <use xlink:href="#DejaVuSans-2212"/>
       <use x="83.789062" xlink:href="#DejaVuSans-34"/>
       <use x="147.412109" xlink:href="#DejaVuSans-30"/>
       <use x="211.035156" xlink:href="#DejaVuSans-30"/>
      </g>
     </g>
    </g>
    <g id="ytick_5">
     <g id="line2d_13">
      <g>
       <use style="stroke:#000000;stroke-width:0.8;" x="57.6" xlink:href="#m09a0766701" y="78.476123"/>
      </g>
     </g>
     <g id="text_14">
      <!-- −200 -->
      <g transform="translate(23.132812 82.275342)scale(0.1 -0.1)">
       <use xlink:href="#DejaVuSans-2212"/>
       <use x="83.789062" xlink:href="#DejaVuSans-32"/>
       <use x="147.412109" xlink:href="#DejaVuSans-30"/>
       <use x="211.035156" xlink:href="#DejaVuSans-30"/>
      </g>
     </g>
    </g>
   </g>
   <g id="line2d_14">
    <path clip-path="url(#p9d7423a758)" d="M 73.832727 56.947148 
L 74.019418 96.483978 
L 74.392798 124.186357 
L 74.579489 118.590716 
L 74.766179 140.468169 
L 74.952869 137.587392 
L 75.13956 143.514941 
L 75.32625 125.984615 
L 75.512941 157.201283 
L 75.699631 162.189194 
L 75.886321 159.708722 
L 76.073012 154.672079 
L 76.259702 174.971337 
L 76.446392 169.360361 
L 76.633083 157.766152 
L 76.819773 180.698367 
L 77.379844 189.290803 
L 77.566535 188.820606 
L 77.753225 185.613349 
L 77.939915 186.348901 
L 78.126606 184.308817 
L 78.686677 210.048178 
L 78.873367 193.641169 
L 79.246748 204.985148 
L 79.433438 195.411909 
L 79.620129 178.320737 
L 79.806819 203.708256 
L 79.993509 205.711775 
L 80.1802 210.683864 
L 80.36689 207.440923 
L 80.55358 207.955958 
L 80.740271 218.126402 
L 80.926961 218.348578 
L 81.113652 203.354068 
L 81.487032 216.622331 
L 81.673723 218.153518 
L 81.860413 214.240398 
L 82.047103 201.04823 
L 82.420484 220.085812 
L 82.607174 218.057688 
L 82.793865 223.065748 
L 82.980555 212.507973 
L 83.167246 216.829255 
L 83.353936 208.522176 
L 83.540626 226.556215 
L 83.727317 218.095709 
L 83.914007 216.132762 
L 84.100697 223.946325 
L 84.287388 222.650878 
L 84.474078 223.23024 
L 84.660768 221.950373 
L 85.034149 230.186349 
L 85.40753 214.588241 
L 85.59422 231.721796 
L 85.780911 223.846157 
L 85.967601 230.653369 
L 86.154291 215.467091 
L 86.340982 234.521461 
L 86.527672 220.262371 
L 86.714362 232.995291 
L 86.901053 222.597472 
L 87.087743 221.506471 
L 87.274434 221.221903 
L 87.461124 224.193457 
L 87.647814 233.675033 
L 87.834505 229.831662 
L 88.207885 229.898458 
L 88.581266 226.791207 
L 88.767957 227.325108 
L 88.954647 229.797592 
L 89.141337 241.051412 
L 89.514718 220.130016 
L 89.888099 236.039141 
L 90.074789 231.878456 
L 90.261479 235.319623 
L 90.44817 224.400255 
L 90.63486 227.317798 
L 90.821551 241.472541 
L 91.008241 228.383009 
L 91.194931 242.274707 
L 91.381622 242.432787 
L 91.568312 224.677028 
L 91.755002 227.299639 
L 92.128383 239.999721 
L 92.315073 238.642615 
L 92.688454 228.597701 
L 92.875145 229.888835 
L 93.061835 238.535044 
L 93.248525 234.664738 
L 93.435216 233.992854 
L 93.621906 227.833414 
L 93.808596 248.111778 
L 93.995287 245.151785 
L 94.181977 240.307238 
L 94.368667 225.944829 
L 94.555358 241.193934 
L 94.742048 235.01848 
L 94.928739 236.140328 
L 95.115429 241.275345 
L 95.302119 242.425474 
L 95.48881 242.779362 
L 95.86219 221.444435 
L 96.235571 243.648765 
L 96.422261 221.753534 
L 96.982333 244.349054 
L 97.169023 246.259515 
L 97.355713 239.187848 
L 97.542404 239.15918 
L 97.729094 232.144701 
L 97.915784 240.067099 
L 98.102475 237.606193 
L 98.289165 231.818491 
L 98.475856 249.949111 
L 98.662546 238.79996 
L 98.849236 234.552904 
L 99.222617 237.611579 
L 99.409307 249.065029 
L 99.595998 245.087675 
L 99.782688 224.848809 
L 99.969378 237.549608 
L 100.156069 228.802753 
L 100.342759 245.475814 
L 100.52945 242.617854 
L 100.71614 252.416096 
L 100.90283 243.312735 
L 101.089521 246.59003 
L 101.462901 236.723789 
L 101.649592 254.694999 
L 102.022972 240.748577 
L 102.209663 247.59665 
L 102.396353 249.254132 
L 102.583044 242.296552 
L 102.769734 248.781756 
L 102.956424 244.702905 
L 103.143115 243.243014 
L 103.329805 251.964951 
L 103.703186 234.002571 
L 103.889876 237.053337 
L 104.263257 250.98507 
L 104.449947 240.297641 
L 104.636638 243.696567 
L 104.823328 239.31647 
L 105.010018 242.132134 
L 105.196709 254.419238 
L 105.383399 249.125536 
L 105.570089 247.636862 
L 105.75678 237.492024 
L 106.13016 245.789965 
L 106.503541 242.845834 
L 106.690232 238.761468 
L 107.063612 249.742407 
L 107.250303 246.001278 
L 107.436993 237.169789 
L 107.623683 239.406099 
L 107.810374 251.925826 
L 107.997064 247.885349 
L 108.183755 249.550708 
L 108.557135 245.862011 
L 108.743826 247.282969 
L 108.930516 245.833597 
L 109.117206 246.793461 
L 109.303897 251.746546 
L 109.490587 245.769381 
L 109.677277 248.971326 
L 109.863968 256.314076 
L 110.237349 236.5551 
L 110.424039 253.52083 
L 110.610729 244.657172 
L 110.79742 241.658956 
L 111.1708 241.309738 
L 111.357491 246.329463 
L 111.544181 237.195169 
L 111.730871 240.672681 
L 111.917562 240.783865 
L 112.104252 241.616583 
L 112.290943 250.673839 
L 112.477633 245.248709 
L 112.664323 244.428553 
L 112.851014 239.012831 
L 113.037704 248.910399 
L 113.224394 247.885511 
L 113.411085 245.430084 
L 113.597775 257.694842 
L 113.784465 246.935962 
L 113.971156 259.249297 
L 114.157846 243.348384 
L 114.344537 253.975347 
L 114.717917 247.074236 
L 114.904608 247.680547 
L 115.464679 252.202165 
L 115.838059 239.098393 
L 116.02475 249.562382 
L 116.21144 250.895958 
L 116.398131 246.708904 
L 116.584821 252.938633 
L 116.771511 247.997961 
L 117.144892 264.628242 
L 117.518273 244.367259 
L 117.704963 244.696522 
L 117.891654 250.560453 
L 118.078344 243.191751 
L 118.265034 242.918916 
L 118.451725 249.881211 
L 118.638415 244.678216 
L 119.011796 256.071829 
L 119.198486 248.682081 
L 119.385176 254.61595 
L 119.571867 251.64639 
L 119.758557 257.666524 
L 119.945248 257.919699 
L 120.318628 246.029455 
L 120.505319 258.466325 
L 120.692009 239.064189 
L 120.878699 262.3484 
L 121.06539 258.859742 
L 121.25208 264.355796 
L 121.43877 258.061544 
L 121.625461 256.123351 
L 121.812151 257.230868 
L 121.998842 256.796079 
L 122.185532 257.68448 
L 122.372222 255.819108 
L 122.558913 250.588506 
L 122.745603 241.331398 
L 122.932293 249.458531 
L 123.492364 255.599325 
L 123.679055 246.132094 
L 123.865745 256.046383 
L 124.052436 247.504438 
L 124.425816 263.998866 
L 124.799197 245.794645 
L 124.985887 256.244282 
L 125.172578 251.674532 
L 125.359268 253.562262 
L 125.732649 249.673731 
L 125.919339 256.874179 
L 126.10603 256.638822 
L 126.29272 254.437488 
L 126.47941 259.767814 
L 126.666101 256.659138 
L 127.039481 259.078024 
L 127.226172 260.512346 
L 127.412862 264.822349 
L 127.599553 259.90875 
L 127.786243 246.946009 
L 127.972933 249.623499 
L 128.159624 263.674592 
L 128.346314 250.3002 
L 128.533004 257.584466 
L 128.719695 257.710806 
L 128.906385 249.77943 
L 129.093075 253.639613 
L 129.279766 267.304531 
L 129.466456 241.697027 
L 129.653147 255.3 
L 129.839837 255.912548 
L 130.026527 260.027787 
L 130.213218 247.576202 
L 130.399908 269.342645 
L 130.586598 255.275491 
L 130.773289 249.908911 
L 130.959979 259.151587 
L 131.146669 260.515731 
L 131.33336 258.14443 
L 131.52005 247.315813 
L 131.706741 264.475893 
L 131.893431 261.381446 
L 132.080121 251.80672 
L 132.266812 251.964501 
L 132.640192 266.116368 
L 132.826883 249.638611 
L 133.013573 259.351737 
L 133.200263 241.712656 
L 133.386954 241.439159 
L 133.573644 254.040751 
L 133.760335 251.773875 
L 133.947025 260.171945 
L 134.133715 258.721396 
L 134.320406 254.534253 
L 134.693786 255.764251 
L 134.880477 249.948971 
L 135.067167 250.308953 
L 135.253857 264.905942 
L 135.440548 254.743168 
L 135.627238 271.970453 
L 135.813929 258.223391 
L 136.000619 256.855191 
L 136.187309 257.05284 
L 136.374 262.442965 
L 136.56069 255.47862 
L 136.74738 259.746028 
L 136.934071 254.532944 
L 137.120761 264.962644 
L 137.307452 259.222436 
L 137.494142 260.888047 
L 137.680832 261.252774 
L 137.867523 270.498677 
L 138.054213 252.122438 
L 138.240903 259.580109 
L 138.427594 262.059517 
L 138.614284 276.350277 
L 138.800974 259.849363 
L 138.987665 259.457342 
L 139.174355 266.687406 
L 139.361046 266.705948 
L 139.547736 250.889588 
L 139.734426 266.188179 
L 139.921117 265.862192 
L 140.107807 278.364786 
L 140.294497 257.923902 
L 140.667878 267.740641 
L 140.854568 254.936075 
L 141.041259 272.434842 
L 141.227949 263.206367 
L 141.41464 266.135898 
L 141.60133 265.118544 
L 141.78802 273.498958 
L 141.974711 259.15063 
L 142.161401 268.606217 
L 142.348091 256.18218 
L 142.534782 273.593703 
L 142.721472 263.779921 
L 142.908162 262.633409 
L 143.094853 267.631279 
L 143.281543 256.493514 
L 143.468234 257.543926 
L 143.654924 264.557156 
L 143.841614 262.23586 
L 144.028305 256.441815 
L 144.214995 256.712159 
L 144.401685 261.588918 
L 144.588376 260.92326 
L 144.775066 267.297765 
L 144.961756 265.463836 
L 145.335137 258.611546 
L 145.521828 264.248379 
L 145.708518 273.359186 
L 145.895208 263.835034 
L 146.081899 262.824672 
L 146.268589 265.060991 
L 146.455279 265.662085 
L 146.64197 263.203202 
L 146.82866 267.462366 
L 147.015351 260.747598 
L 147.202041 266.110755 
L 147.388731 253.189683 
L 147.575422 263.095474 
L 147.762112 265.407316 
L 147.948802 264.580776 
L 148.135493 278.90735 
L 148.322183 258.342354 
L 148.508873 269.989178 
L 148.695564 260.754778 
L 148.882254 274.438909 
L 149.255635 258.831058 
L 149.442325 259.624231 
L 149.629016 266.006542 
L 149.815706 261.468638 
L 150.002396 261.063047 
L 150.189087 255.880684 
L 150.375777 257.333483 
L 150.562467 252.047174 
L 150.749158 269.352776 
L 151.122539 262.706146 
L 151.309229 267.050474 
L 151.495919 249.638753 
L 151.68261 265.52917 
L 151.8693 260.886623 
L 152.05599 266.406196 
L 152.242681 259.044369 
L 152.429371 274.023724 
L 152.616061 276.117105 
L 152.802752 259.020244 
L 152.989442 260.82027 
L 153.176133 270.324546 
L 153.362823 263.799161 
L 153.549513 281.648012 
L 153.922894 264.526863 
L 154.109584 265.520531 
L 154.296275 277.857281 
L 154.482965 261.250956 
L 154.669655 276.226595 
L 154.856346 263.458286 
L 155.043036 271.391504 
L 155.416417 258.895771 
L 155.603107 272.821363 
L 155.976488 252.791943 
L 156.349869 276.061453 
L 156.536559 271.760286 
L 156.72325 261.359497 
L 156.90994 265.925993 
L 157.09663 285.724861 
L 157.470011 262.400182 
L 157.656701 260.992067 
L 158.030082 282.553785 
L 158.216772 267.010203 
L 158.403463 282.764566 
L 158.776844 252.372369 
L 158.963534 275.201993 
L 159.150224 265.329729 
L 159.336915 268.381304 
L 159.523605 261.824652 
L 159.896986 269.41921 
L 160.083676 262.580036 
L 160.270366 273.71281 
L 160.643747 265.458939 
L 160.830438 268.846138 
L 161.017128 267.108879 
L 161.203818 257.30121 
L 161.390509 258.295169 
L 161.577199 268.719172 
L 161.763889 264.850931 
L 161.95058 263.953048 
L 162.13727 259.65634 
L 162.32396 275.769641 
L 162.510651 268.663364 
L 162.697341 256.863017 
L 162.884032 260.650746 
L 163.070722 279.651875 
L 163.257412 255.749261 
L 163.444103 256.704097 
L 163.630793 266.442683 
L 163.817483 257.504099 
L 164.190864 275.157343 
L 164.377554 271.365151 
L 164.564245 260.756113 
L 164.750935 261.977844 
L 164.937626 271.043923 
L 165.124316 267.205277 
L 165.311006 270.086061 
L 165.871077 264.021467 
L 166.057768 272.038525 
L 166.431149 256.620323 
L 166.617839 267.970982 
L 166.804529 269.368842 
L 166.99122 274.426187 
L 167.17791 255.863339 
L 167.3646 267.36319 
L 167.551291 253.635205 
L 167.737981 258.746275 
L 167.924671 271.04882 
L 168.111362 252.448175 
L 168.298052 264.566393 
L 168.671433 271.622824 
L 168.858123 271.16958 
L 169.044814 261.108604 
L 169.231504 266.836045 
L 169.418194 266.94668 
L 169.604885 269.805921 
L 169.791575 274.946343 
L 169.978265 266.232943 
L 170.164956 266.667067 
L 170.351646 267.710472 
L 170.538337 267.568857 
L 170.725027 258.870794 
L 170.911717 272.800083 
L 171.098408 268.690863 
L 171.285098 276.086703 
L 171.471788 264.321491 
L 171.658479 265.41969 
L 171.845169 259.121145 
L 172.031859 269.13101 
L 172.21855 263.881057 
L 172.591931 278.021708 
L 172.965311 264.522295 
L 173.338692 277.275713 
L 173.525382 267.27986 
L 173.712073 266.508065 
L 173.898763 257.680589 
L 174.085453 268.479011 
L 174.272144 269.47929 
L 174.458834 265.273548 
L 174.645525 274.21702 
L 174.832215 257.213803 
L 175.018905 262.533333 
L 175.205596 272.821055 
L 175.392286 267.045059 
L 175.578976 279.747486 
L 175.765667 264.142804 
L 175.952357 267.426235 
L 176.139048 273.431704 
L 176.325738 267.610614 
L 176.512428 271.018548 
L 176.699119 264.911986 
L 176.885809 266.60602 
L 177.25919 258.539901 
L 177.44588 256.911087 
L 177.63257 276.928821 
L 177.819261 267.536214 
L 178.005951 276.88151 
L 178.192642 266.115083 
L 178.379332 269.718059 
L 178.566022 263.747882 
L 178.939403 273.389951 
L 179.126093 273.761957 
L 179.312784 267.316359 
L 179.499474 269.074769 
L 179.686164 275.100378 
L 179.872855 253.800825 
L 180.246236 282.989561 
L 180.432926 263.467171 
L 180.806307 270.406492 
L 180.992997 265.924978 
L 181.179687 266.883767 
L 181.366378 269.005183 
L 181.553068 273.466092 
L 181.739758 263.735224 
L 181.926449 273.006641 
L 182.113139 272.155901 
L 182.29983 263.629904 
L 182.48652 263.393275 
L 182.67321 272.3567 
L 182.859901 266.325587 
L 183.046591 267.859838 
L 183.233281 271.785593 
L 183.419972 272.98067 
L 183.606662 263.425247 
L 183.793353 290.159763 
L 184.166733 254.898939 
L 184.353424 273.592883 
L 184.540114 267.996964 
L 184.913495 284.284684 
L 185.286875 266.304413 
L 185.473566 265.743625 
L 185.660256 278.720323 
L 186.033637 264.375319 
L 186.220327 272.77601 
L 186.407018 268.819753 
L 186.593708 273.750502 
L 186.780398 265.677214 
L 186.967089 274.572434 
L 187.153779 265.068305 
L 187.52716 283.251431 
L 187.71385 265.01817 
L 188.087231 276.961614 
L 188.273921 262.601181 
L 188.460612 267.632535 
L 188.647302 279.745493 
L 188.833992 263.195968 
L 189.020683 263.882987 
L 189.207373 282.609347 
L 189.394063 264.616088 
L 189.580754 262.593072 
L 189.954135 277.067569 
L 190.140825 278.271491 
L 190.514206 262.419093 
L 190.700896 267.316143 
L 190.887586 275.529663 
L 191.074277 271.300281 
L 191.260967 273.185082 
L 191.447657 270.178407 
L 191.634348 269.157282 
L 192.007729 260.724244 
L 192.194419 267.581516 
L 192.381109 282.826348 
L 192.5678 266.971061 
L 192.75449 268.732505 
L 192.94118 257.612822 
L 193.127871 258.884397 
L 193.501252 273.568482 
L 193.687942 271.107487 
L 193.874632 265.973758 
L 194.061323 273.395089 
L 194.434703 265.655062 
L 194.621394 266.257225 
L 194.808084 263.693546 
L 194.994774 265.411948 
L 195.181465 275.001875 
L 195.368155 274.765451 
L 195.554846 260.889232 
L 195.741536 270.641179 
L 195.928226 264.134831 
L 196.114917 269.609489 
L 196.301607 258.033953 
L 196.488297 267.680963 
L 196.674988 267.096671 
L 196.861678 259.733492 
L 197.048368 261.565387 
L 197.235059 275.183772 
L 197.421749 270.124042 
L 197.60844 268.243179 
L 197.79513 276.906336 
L 197.98182 256.868821 
L 198.168511 269.286993 
L 198.355201 271.434359 
L 198.541891 267.780116 
L 198.728582 277.551788 
L 198.915272 264.405921 
L 199.101962 268.590796 
L 199.288653 278.500761 
L 199.475343 274.354909 
L 199.662034 253.160749 
L 199.848724 264.578849 
L 200.035414 266.863479 
L 200.222105 276.150516 
L 200.408795 265.935174 
L 200.595485 268.697477 
L 200.782176 258.356324 
L 201.155556 276.320623 
L 201.342247 274.705679 
L 201.528937 274.21825 
L 201.715628 281.840916 
L 202.089008 246.131453 
L 202.275699 259.971559 
L 202.462389 259.27702 
L 202.649079 269.192693 
L 202.83577 265.103899 
L 203.209151 281.30424 
L 203.395841 258.627418 
L 203.582531 267.534624 
L 203.769222 270.476026 
L 203.955912 275.191057 
L 204.142602 259.396647 
L 204.329293 267.091713 
L 204.515983 264.299316 
L 204.702673 268.584489 
L 204.889364 256.294636 
L 205.076054 267.111084 
L 205.262745 270.936305 
L 205.449435 260.249474 
L 205.636125 271.063144 
L 205.822816 270.397459 
L 206.009506 283.357436 
L 206.196196 272.114944 
L 206.382887 271.215516 
L 206.569577 279.912746 
L 206.756267 267.127165 
L 206.942958 271.623863 
L 207.129648 261.761913 
L 207.503029 273.744469 
L 207.689719 264.362403 
L 207.87641 282.078306 
L 208.0631 274.505187 
L 208.24979 272.353321 
L 208.436481 260.869397 
L 208.623171 270.04223 
L 208.809861 272.911288 
L 208.996552 265.839986 
L 209.369933 261.962241 
L 209.556623 279.679884 
L 209.743313 263.083861 
L 209.930004 275.817269 
L 210.116694 273.714957 
L 210.303384 285.122253 
L 210.490075 276.140386 
L 210.863455 270.030951 
L 211.050146 280.601756 
L 211.236836 273.553333 
L 211.423527 278.539328 
L 211.796907 259.505865 
L 212.356978 283.796952 
L 212.543669 267.231318 
L 212.730359 261.669665 
L 213.10374 282.783033 
L 213.29043 273.69736 
L 213.477121 270.141559 
L 213.663811 269.937654 
L 213.850501 278.404821 
L 214.037192 266.969031 
L 214.223882 279.509748 
L 214.597263 265.287124 
L 214.970644 275.08706 
L 215.157334 270.603684 
L 215.344024 272.009234 
L 215.530715 267.005912 
L 215.717405 275.4729 
L 215.904095 255.018746 
L 216.090786 266.888299 
L 216.277476 267.150301 
L 216.464166 267.044924 
L 216.650857 268.164928 
L 216.837547 265.021482 
L 217.024238 264.50213 
L 217.584309 277.19871 
L 217.770999 278.958105 
L 217.957689 279.360617 
L 218.14438 274.722346 
L 218.33107 265.425603 
L 218.51776 262.884357 
L 218.704451 267.841588 
L 218.891141 261.611975 
L 219.077832 282.296166 
L 219.264522 264.528454 
L 219.451212 276.864099 
L 219.637903 273.141223 
L 219.824593 264.038328 
L 220.011283 268.458947 
L 220.197974 267.388517 
L 220.384664 276.174067 
L 220.758045 263.311115 
L 220.944735 268.329094 
L 221.318116 270.271776 
L 221.691497 279.397971 
L 221.878187 269.43272 
L 222.064877 277.833402 
L 222.251568 268.584272 
L 222.438258 267.243244 
L 222.624949 261.655069 
L 222.811639 265.427461 
L 222.998329 284.13582 
L 223.18502 262.491507 
L 223.37171 267.024034 
L 223.5584 288.475895 
L 223.745091 267.696514 
L 223.931781 272.127447 
L 224.118471 257.799981 
L 224.305162 275.40081 
L 224.491852 279.446152 
L 224.678543 270.796062 
L 224.865233 269.694276 
L 225.051923 270.273177 
L 225.238614 279.523221 
L 225.425304 268.08525 
L 225.611994 270.805479 
L 225.798685 277.425787 
L 225.985375 275.366772 
L 226.172065 267.057264 
L 226.545446 281.354448 
L 226.732137 277.569026 
L 227.105517 262.678901 
L 227.292208 290.314092 
L 227.478898 273.849604 
L 227.852279 270.048233 
L 228.038969 274.499503 
L 228.41235 268.61797 
L 228.59904 268.805258 
L 228.785731 275.485652 
L 228.972421 266.560346 
L 229.159111 276.229108 
L 229.345802 266.131473 
L 229.719182 276.536753 
L 229.905873 274.588055 
L 230.092563 269.721916 
L 230.279253 280.511426 
L 230.652634 268.193908 
L 230.839325 265.916014 
L 231.026015 265.803292 
L 231.212705 251.400126 
L 231.399396 275.425947 
L 231.586086 266.677169 
L 231.772776 264.675145 
L 231.959467 271.876426 
L 232.146157 266.681366 
L 232.332848 266.820115 
L 232.519538 267.443469 
L 232.706228 280.321807 
L 232.892919 268.325894 
L 233.079609 277.014386 
L 233.266299 259.580547 
L 233.45299 270.351385 
L 233.63968 266.770813 
L 233.82637 270.99314 
L 234.013061 271.735683 
L 234.199751 269.020246 
L 234.386442 273.323974 
L 234.573132 271.486434 
L 234.759822 279.924058 
L 234.946513 268.839758 
L 235.133203 265.019247 
L 235.506584 271.722988 
L 235.693274 264.77168 
L 235.879964 279.383425 
L 236.066655 282.662719 
L 236.253345 265.114804 
L 236.440036 273.161794 
L 236.626726 270.983761 
L 236.813416 266.938046 
L 237.186797 279.034869 
L 237.373487 270.758771 
L 237.560178 271.97471 
L 237.746868 268.107192 
L 237.933558 280.192138 
L 238.120249 252.40474 
L 238.306939 270.170373 
L 238.49363 266.57896 
L 238.68032 266.871757 
L 238.86701 273.218961 
L 239.053701 267.765948 
L 239.240391 269.229063 
L 239.427081 282.938391 
L 239.613772 273.964876 
L 239.800462 274.301559 
L 239.987152 269.758624 
L 240.173843 281.930612 
L 240.360533 274.228896 
L 240.547224 273.416592 
L 240.733914 282.341988 
L 240.920604 271.938062 
L 241.107295 271.311824 
L 241.293985 274.116598 
L 241.480675 266.255978 
L 241.667366 273.715095 
L 241.854056 275.04771 
L 242.040747 264.182884 
L 242.414127 272.712735 
L 242.600818 282.870958 
L 242.787508 270.667539 
L 242.974198 277.216128 
L 243.160889 270.523812 
L 243.347579 270.571839 
L 243.534269 278.401705 
L 243.72096 275.958616 
L 243.90765 281.163368 
L 244.094341 279.442019 
L 244.281031 269.767556 
L 244.654412 280.259025 
L 245.027792 270.939093 
L 245.214483 281.99994 
L 245.401173 267.707276 
L 245.587863 275.344321 
L 245.774554 267.196356 
L 245.961244 277.753063 
L 246.334625 265.641746 
L 246.521315 274.917201 
L 246.708006 271.323495 
L 246.894696 277.922152 
L 247.081386 262.533216 
L 247.268077 265.400716 
L 247.454767 263.265826 
L 247.828148 283.755426 
L 248.014838 266.524806 
L 248.388219 276.784529 
L 248.574909 268.390458 
L 248.7616 267.215441 
L 248.94829 276.338797 
L 249.13498 267.720163 
L 249.321671 275.624968 
L 249.508361 274.631468 
L 249.695051 282.60473 
L 249.881742 268.217466 
L 250.068432 270.699636 
L 250.255123 264.743397 
L 250.441813 275.198913 
L 250.628503 276.828825 
L 250.815194 258.848303 
L 251.001884 273.538447 
L 251.188574 272.99345 
L 251.375265 271.819444 
L 251.561955 268.482823 
L 251.748646 275.80974 
L 251.935336 272.216077 
L 252.122026 281.250211 
L 252.308717 273.40794 
L 252.495407 274.892523 
L 252.682097 263.422005 
L 252.868788 273.97243 
L 253.055478 268.889449 
L 253.242168 274.688798 
L 253.80224 251.307499 
L 253.98893 267.608299 
L 254.17562 258.156155 
L 254.362311 262.432498 
L 254.549001 276.637468 
L 254.735691 270.33776 
L 254.922382 271.848105 
L 255.109072 277.667206 
L 255.295762 277.478198 
L 255.669143 268.123073 
L 255.855834 258.926003 
L 256.042524 278.072166 
L 256.229214 271.977003 
L 256.415905 281.621295 
L 256.789285 271.089933 
L 256.975976 276.070642 
L 257.162666 262.900314 
L 257.349356 273.447536 
L 257.536047 258.33846 
L 257.722737 277.775982 
L 257.909428 272.979024 
L 258.096118 286.304061 
L 258.282808 271.946808 
L 258.469499 271.291091 
L 258.842879 265.180116 
L 259.02957 265.595151 
L 259.21626 265.401042 
L 259.589641 270.01605 
L 259.776331 262.880021 
L 260.149712 284.13139 
L 260.336402 270.994036 
L 260.523093 267.342519 
L 260.709783 267.060411 
L 260.896473 267.394105 
L 261.083164 259.457295 
L 261.269854 272.800775 
L 261.456545 269.829337 
L 261.643235 269.07672 
L 261.829925 277.660468 
L 262.016616 278.590136 
L 262.203306 270.080969 
L 262.576687 272.649652 
L 262.763377 279.053273 
L 262.950067 263.646545 
L 263.323448 276.665205 
L 263.510139 265.490881 
L 263.696829 276.906685 
L 263.883519 273.379308 
L 264.2569 282.478614 
L 264.44359 267.634095 
L 264.630281 282.074308 
L 264.816971 277.974934 
L 265.003661 278.176392 
L 265.190352 266.5583 
L 265.377042 262.831828 
L 265.563733 271.460085 
L 265.750423 268.86979 
L 266.123804 259.097459 
L 266.310494 259.965795 
L 266.497184 275.578858 
L 266.683875 264.970379 
L 266.870565 271.559707 
L 267.057255 285.179057 
L 267.243946 267.324454 
L 267.617327 276.296208 
L 267.990707 265.275578 
L 268.177398 266.146034 
L 268.364088 259.89979 
L 268.550778 274.675747 
L 268.737469 276.853529 
L 269.29754 266.427076 
L 269.48423 267.018871 
L 269.670921 279.236972 
L 269.857611 269.990332 
L 270.044301 274.141994 
L 270.230992 266.854621 
L 270.417682 264.983427 
L 270.604372 276.868113 
L 270.791063 264.183516 
L 270.977753 262.23762 
L 271.351134 281.401783 
L 271.537824 266.790347 
L 271.724515 272.875343 
L 271.911205 262.439147 
L 272.097895 286.131505 
L 272.284586 269.795232 
L 272.471276 274.355616 
L 272.657966 268.376476 
L 272.844657 267.466862 
L 273.031347 277.983373 
L 273.218038 272.27148 
L 273.404728 271.029039 
L 273.591418 263.293453 
L 273.778109 294.379903 
L 273.964799 276.150168 
L 274.151489 271.717118 
L 274.33818 282.203158 
L 274.52487 278.261561 
L 274.71156 270.322733 
L 274.898251 279.875683 
L 275.084941 266.12963 
L 275.458322 279.337421 
L 275.831703 263.37487 
L 276.018393 283.509934 
L 276.205083 265.632734 
L 276.391774 277.748744 
L 276.578464 274.220502 
L 276.765154 279.643775 
L 276.951845 261.142627 
L 277.325226 276.675966 
L 277.511916 264.388456 
L 277.698606 275.102046 
L 278.071987 272.88604 
L 278.258677 277.752683 
L 278.445368 263.232098 
L 278.632058 277.663333 
L 278.818748 276.990748 
L 279.005439 264.777253 
L 279.192129 277.932761 
L 279.37882 272.291181 
L 279.56551 279.938787 
L 279.938891 265.373052 
L 280.125581 266.061792 
L 280.312271 277.741089 
L 280.498962 268.288791 
L 280.685652 280.769257 
L 280.872343 273.166069 
L 281.059033 272.883265 
L 281.245723 269.523029 
L 281.432414 280.600305 
L 281.619104 272.804042 
L 281.805794 284.661696 
L 281.992485 264.889929 
L 282.179175 277.843293 
L 282.365865 277.296083 
L 282.552556 279.328349 
L 282.739246 275.463625 
L 282.925937 284.047353 
L 283.299317 266.106943 
L 283.486008 280.535473 
L 283.672698 261.695403 
L 283.859388 262.84645 
L 284.046079 270.951146 
L 284.232769 272.865742 
L 284.419459 269.663455 
L 284.60615 259.746154 
L 284.979531 271.268518 
L 285.166221 256.389943 
L 285.352911 268.886535 
L 285.539602 269.314261 
L 285.726292 275.555303 
L 286.099673 254.842611 
L 286.286363 275.379203 
L 286.473053 267.748283 
L 286.659744 265.924881 
L 286.846434 275.740308 
L 287.033125 270.943121 
L 287.219815 275.681829 
L 287.406505 270.537805 
L 287.779886 280.04683 
L 287.966576 274.55259 
L 288.153267 275.836963 
L 288.339957 274.775891 
L 288.526647 261.477121 
L 288.713338 266.31417 
L 288.900028 281.738171 
L 289.086719 280.365656 
L 289.273409 280.179139 
L 289.460099 271.890007 
L 289.64679 258.651899 
L 289.83348 262.161037 
L 290.02017 263.201207 
L 290.206861 274.432951 
L 290.393551 274.355336 
L 290.580242 265.028289 
L 290.766932 265.717595 
L 290.953622 276.130638 
L 291.140313 269.135101 
L 291.513693 279.799764 
L 291.700384 270.376543 
L 291.887074 272.726144 
L 292.073764 262.732324 
L 292.260455 277.399146 
L 292.447145 267.021895 
L 292.633836 276.802097 
L 292.820526 271.439804 
L 293.007216 274.534067 
L 293.193907 273.091259 
L 293.380597 280.419101 
L 293.567287 275.761142 
L 293.753978 275.741293 
L 293.940668 281.018376 
L 294.500739 257.998639 
L 294.68743 273.254656 
L 294.87412 272.982512 
L 295.06081 279.591755 
L 295.434191 262.307763 
L 295.620881 262.380572 
L 295.807572 276.843036 
L 295.994262 280.212153 
L 296.180952 272.500308 
L 296.367643 276.584451 
L 296.554333 270.480844 
L 296.741024 272.383909 
L 296.927714 266.311703 
L 297.114404 267.472457 
L 297.301095 255.461721 
L 297.487785 270.647573 
L 297.674475 276.669444 
L 297.861166 269.811847 
L 298.047856 267.87832 
L 298.234547 249.323178 
L 298.607927 272.711002 
L 298.794618 275.228505 
L 298.981308 288.524626 
L 299.167998 273.887081 
L 299.354689 274.278325 
L 299.728069 261.215153 
L 299.91476 273.66759 
L 300.10145 277.353186 
L 300.288141 263.851602 
L 300.474831 276.814112 
L 300.661521 266.02817 
L 301.221592 280.696945 
L 301.408283 269.018815 
L 301.594973 270.179963 
L 301.781663 276.737235 
L 301.968354 274.01119 
L 302.341735 264.265624 
L 302.528425 274.25869 
L 302.715115 266.325819 
L 302.901806 284.29272 
L 303.088496 272.607365 
L 303.275186 279.195659 
L 303.461877 273.780469 
L 303.648567 282.294914 
L 303.835257 262.552739 
L 304.021948 269.662229 
L 304.208638 270.622988 
L 304.395329 265.775492 
L 304.9554 275.238373 
L 305.14209 267.427506 
L 305.32878 280.691674 
L 305.515471 274.349948 
L 305.702161 264.033694 
L 305.888851 282.021265 
L 306.075542 268.011025 
L 306.262232 272.100315 
L 306.448923 269.683681 
L 306.635613 264.625674 
L 307.008994 284.916943 
L 307.382374 269.314172 
L 307.569065 270.641093 
L 307.755755 270.116837 
L 308.129136 277.871661 
L 308.315826 268.88014 
L 308.502517 283.486298 
L 308.689207 261.914066 
L 308.875897 269.58317 
L 309.062588 267.754702 
L 309.249278 276.457722 
L 309.435968 267.793645 
L 309.622659 268.091189 
L 309.809349 279.699704 
L 310.18273 263.956324 
L 310.36942 276.134478 
L 310.556111 277.958484 
L 310.742801 274.297254 
L 310.929491 266.736846 
L 311.116182 270.021543 
L 311.302872 263.253858 
L 311.489562 275.608643 
L 311.676253 269.2538 
L 311.862943 269.479408 
L 312.049634 280.539423 
L 312.236324 268.319193 
L 312.423014 276.577635 
L 312.609705 273.965979 
L 312.796395 280.761401 
L 312.983085 267.721674 
L 313.169776 266.515415 
L 313.356466 281.951897 
L 313.543156 264.343396 
L 313.729847 278.092389 
L 313.916537 278.755509 
L 314.103228 282.9924 
L 314.289918 265.130144 
L 314.476608 274.875903 
L 314.663299 264.470351 
L 314.849989 265.295463 
L 315.036679 271.292427 
L 315.22337 266.716536 
L 315.59675 284.503108 
L 315.783441 277.828967 
L 315.970131 278.050941 
L 316.156822 271.258752 
L 316.343512 282.572728 
L 316.530202 280.470296 
L 316.716893 272.015989 
L 316.903583 270.275165 
L 317.090273 270.122738 
L 317.276964 283.454877 
L 317.650345 264.296612 
L 317.837035 286.744233 
L 318.023725 272.936919 
L 318.210416 268.851332 
L 318.397106 278.708984 
L 318.583796 273.677215 
L 318.770487 274.047261 
L 319.143867 266.291614 
L 319.330558 268.264095 
L 319.517248 273.74858 
L 319.703939 272.224945 
L 319.890629 278.616451 
L 320.077319 277.880446 
L 320.26401 263.702381 
L 320.4507 280.309833 
L 320.63739 269.156767 
L 320.824081 273.724215 
L 321.010771 263.680714 
L 321.757533 278.669675 
L 321.944223 280.913417 
L 322.504294 257.993809 
L 322.690984 279.865965 
L 322.877675 277.072272 
L 323.064365 271.995288 
L 323.251055 276.1348 
L 323.437746 258.893212 
L 323.811127 277.875179 
L 323.997817 280.52941 
L 324.371198 262.889921 
L 324.557888 270.45491 
L 324.744578 272.376112 
L 324.931269 281.451351 
L 325.117959 267.861721 
L 325.304649 280.392296 
L 325.49134 283.565208 
L 325.67803 274.148876 
L 325.864721 272.176755 
L 326.238101 255.497315 
L 326.424792 274.849813 
L 326.611482 271.342551 
L 326.798172 270.053172 
L 326.984863 261.833014 
L 327.171553 261.563434 
L 327.358244 256.701882 
L 327.544934 264.038034 
L 327.731624 278.448929 
L 327.918315 277.877966 
L 328.105005 264.279115 
L 328.291695 277.095517 
L 328.478386 273.459056 
L 328.665076 277.504693 
L 328.851766 272.454932 
L 329.038457 255.499744 
L 329.225147 275.846023 
L 329.411838 275.770067 
L 329.598528 282.14775 
L 329.785218 264.773711 
L 330.158599 290.766808 
L 330.345289 261.281146 
L 330.53198 263.006992 
L 330.71867 261.404553 
L 330.90536 267.202721 
L 331.092051 264.321935 
L 331.278741 255.152216 
L 331.465432 273.541321 
L 331.652122 264.434218 
L 331.838812 271.383394 
L 332.025503 283.10698 
L 332.212193 273.638866 
L 332.398883 271.211219 
L 332.585574 275.688755 
L 332.772264 270.47492 
L 332.958954 274.83123 
L 333.145645 259.939382 
L 333.519026 284.403198 
L 333.705716 283.856392 
L 334.079097 275.43825 
L 334.265787 272.375915 
L 334.452477 273.080565 
L 334.639168 281.14866 
L 334.825858 275.529591 
L 335.012548 281.208659 
L 335.199239 282.16657 
L 335.385929 274.519776 
L 335.57262 258.28703 
L 335.75931 279.021515 
L 335.946 271.755612 
L 336.132691 274.262171 
L 336.319381 286.963712 
L 336.506071 275.793192 
L 336.879452 281.884906 
L 337.066143 272.437925 
L 337.252833 278.483552 
L 337.439523 273.431425 
L 337.626214 273.403215 
L 337.812904 274.982856 
L 337.999594 280.959698 
L 338.372975 271.893486 
L 338.559665 276.158934 
L 338.933046 271.167794 
L 339.119737 272.440282 
L 339.306427 270.042619 
L 339.493117 276.925393 
L 339.679808 277.835367 
L 339.866498 276.321164 
L 340.053188 273.430219 
L 340.426569 280.609304 
L 340.613259 265.967132 
L 340.79995 279.956465 
L 340.98664 268.798674 
L 341.360021 284.531578 
L 341.546711 273.159953 
L 341.733402 269.137192 
L 342.106782 271.737109 
L 342.293473 272.26818 
L 342.480163 269.80776 
L 342.666853 268.86591 
L 342.853544 273.659728 
L 343.040234 270.679274 
L 343.226925 273.250852 
L 343.600305 266.80229 
L 343.786996 276.604815 
L 343.973686 272.722364 
L 344.160376 266.159554 
L 344.347067 270.86363 
L 344.533757 269.020142 
L 344.720447 252.251016 
L 344.907138 273.910357 
L 345.093828 267.342623 
L 345.280519 282.352166 
L 345.653899 264.244443 
L 345.84059 272.077416 
L 346.02728 267.001291 
L 346.21397 284.39093 
L 346.587351 267.915267 
L 346.774042 264.810656 
L 346.960732 264.956176 
L 347.147422 262.629859 
L 347.334113 276.910089 
L 347.520803 266.855038 
L 347.707493 275.798181 
L 348.080874 260.213645 
L 348.454255 255.893476 
L 348.640945 287.264092 
L 348.827636 278.48054 
L 349.014326 280.089122 
L 349.201016 271.914156 
L 349.574397 286.374238 
L 349.761087 286.338231 
L 350.134468 273.35767 
L 350.321158 273.258981 
L 350.507849 277.036227 
L 350.694539 261.120526 
L 350.88123 268.692438 
L 351.06792 267.581413 
L 351.25461 283.60318 
L 351.441301 277.377023 
L 351.627991 276.820692 
L 351.814681 279.590694 
L 352.188062 277.762868 
L 352.374752 270.569989 
L 352.561443 273.451087 
L 352.748133 274.117926 
L 352.934824 260.757974 
L 353.121514 284.127282 
L 353.308204 267.808669 
L 353.494895 269.993615 
L 353.681585 262.239531 
L 353.868275 273.37969 
L 354.054966 258.569512 
L 354.241656 273.268696 
L 354.615037 282.521679 
L 354.801727 268.865906 
L 354.988418 295.488 
L 355.175108 278.034503 
L 355.548489 270.860461 
L 355.735179 270.867899 
L 355.921869 273.686839 
L 356.10856 272.067882 
L 356.29525 280.195875 
L 356.481941 273.923233 
L 356.668631 273.442009 
L 356.855321 267.473786 
L 357.042012 281.378545 
L 357.415392 262.71418 
L 357.602083 276.824258 
L 357.788773 270.624971 
L 357.975463 278.254559 
L 358.162154 275.891949 
L 358.348844 275.295069 
L 358.535535 281.625024 
L 358.722225 265.863745 
L 358.908915 265.307186 
L 359.095606 270.46884 
L 359.282296 289.949562 
L 359.468986 280.025638 
L 359.655677 278.370084 
L 359.842367 267.82391 
L 360.029057 265.152353 
L 360.215748 277.171738 
L 360.402438 272.684084 
L 360.589129 257.778651 
L 360.962509 283.860117 
L 361.1492 268.533883 
L 361.33589 269.685382 
L 361.52258 270.12843 
L 361.709271 268.128398 
L 361.895961 256.028242 
L 362.082651 273.443578 
L 362.269342 275.623432 
L 362.456032 263.148049 
L 362.829413 282.243831 
L 363.016103 265.092782 
L 363.202794 264.865647 
L 363.576174 277.265008 
L 363.762865 277.169649 
L 363.949555 284.176893 
L 364.136245 264.887531 
L 364.322936 277.096993 
L 364.509626 269.341224 
L 364.883007 280.763557 
L 365.069697 283.209459 
L 365.256388 273.732343 
L 365.443078 272.398261 
L 365.816459 253.280691 
L 366.003149 266.248149 
L 366.18984 267.014422 
L 366.37653 271.63802 
L 366.56322 279.220909 
L 366.749911 273.070806 
L 366.936601 286.249728 
L 367.123291 285.827889 
L 367.309982 267.036533 
L 367.496672 272.270955 
L 367.683362 268.890475 
L 368.056743 282.992344 
L 368.430124 267.0832 
L 368.616814 272.677182 
L 368.803505 263.988653 
L 368.990195 281.226126 
L 369.176885 271.487002 
L 369.736956 274.914527 
L 369.923647 270.845978 
L 370.110337 271.014721 
L 370.483718 276.360412 
L 370.670408 270.817351 
L 370.857099 270.97784 
L 371.043789 281.137429 
L 371.230479 280.024996 
L 371.41717 257.394014 
L 371.60386 271.485566 
L 371.79055 270.00578 
L 372.163931 272.657801 
L 372.350622 273.096903 
L 372.537312 272.792038 
L 372.724002 255.69389 
L 372.910693 280.427947 
L 373.097383 273.425666 
L 373.284073 278.225684 
L 373.470764 254.295334 
L 373.657454 264.715077 
L 373.844144 266.74002 
L 374.217525 261.922402 
L 374.404216 275.611455 
L 374.590906 271.793207 
L 374.777596 272.114778 
L 374.964287 270.382443 
L 375.150977 265.730741 
L 375.337667 271.645348 
L 375.524358 270.907321 
L 375.711048 282.80537 
L 375.897739 282.075956 
L 376.084429 269.484017 
L 376.271119 271.790127 
L 376.45781 278.912936 
L 376.83119 272.002317 
L 377.391261 282.644392 
L 377.764642 278.621242 
L 378.138023 271.60046 
L 378.324713 274.214002 
L 378.511404 280.602034 
L 378.698094 221.511062 
L 378.884784 254.768089 
L 379.071475 264.731852 
L 379.258165 261.357609 
L 379.631546 266.324763 
L 379.818236 260.625089 
L 380.004927 269.557259 
L 380.191617 268.321181 
L 380.378307 270.181601 
L 380.564998 267.671294 
L 380.938378 277.374424 
L 381.125069 274.133598 
L 381.311759 265.125456 
L 381.498449 266.802477 
L 381.68514 280.920895 
L 381.87183 276.137421 
L 382.058521 277.002221 
L 382.245211 286.628253 
L 382.618592 272.735471 
L 382.805282 288.78718 
L 382.991972 267.603373 
L 383.178663 281.842489 
L 383.365353 277.348182 
L 383.552043 278.184365 
L 383.738734 261.222917 
L 384.112115 283.616687 
L 384.298805 271.953885 
L 384.485495 278.12103 
L 385.418947 257.368507 
L 385.605638 261.470214 
L 385.792328 262.716118 
L 385.979018 277.573567 
L 386.165709 258.45478 
L 386.352399 268.475669 
L 386.539089 292.46592 
L 386.72578 272.800922 
L 386.91247 278.318508 
L 387.09916 266.102272 
L 387.285851 282.534342 
L 387.472541 278.115864 
L 387.659232 277.817559 
L 387.845922 262.099316 
L 388.032612 272.137338 
L 388.219303 274.506966 
L 388.405993 266.741751 
L 388.779374 279.770762 
L 388.966064 258.547576 
L 389.152754 280.175224 
L 389.339445 281.467495 
L 389.526135 284.794312 
L 389.712826 272.622281 
L 389.899516 274.157384 
L 390.086206 267.239019 
L 390.272897 279.472187 
L 390.459587 279.214517 
L 390.646277 268.399149 
L 390.832968 281.151302 
L 391.206348 268.012361 
L 391.393039 270.459827 
L 391.579729 276.315707 
L 391.76642 263.735672 
L 391.95311 276.763568 
L 392.1398 278.069753 
L 392.513181 273.805967 
L 392.699871 273.02641 
L 392.886562 266.809585 
L 393.073252 284.868872 
L 393.446633 262.344272 
L 393.820014 280.723333 
L 394.193394 258.991652 
L 394.380085 280.354167 
L 394.566775 273.408116 
L 394.753465 272.926184 
L 394.940156 274.206223 
L 395.126846 267.79278 
L 395.313537 276.347982 
L 395.686917 266.096121 
L 395.873608 286.488974 
L 396.060298 284.782556 
L 396.433679 278.079547 
L 396.620369 270.46499 
L 396.99375 278.094015 
L 397.18044 260.361509 
L 397.367131 270.076062 
L 397.553821 271.995183 
L 397.740511 271.744374 
L 398.113892 285.33693 
L 398.487273 272.592082 
L 398.487273 272.592082 
" style="fill:none;stroke:#1f77b4;stroke-linecap:square;stroke-width:1.5;"/>
   </g>
   <g id="line2d_15">
    <path clip-path="url(#p9d7423a758)" d="M 73.832727 87.750387 
L 74.019418 118.928212 
L 74.579489 139.974965 
L 74.766179 136.118001 
L 75.13956 156.618061 
L 75.32625 148.430117 
L 75.699631 164.663757 
L 75.886321 127.097517 
L 76.073012 162.216675 
L 76.446392 183.306772 
L 76.633083 177.22073 
L 77.006463 192.723426 
L 77.193154 197.138515 
L 77.379844 193.386275 
L 77.566535 191.891523 
L 77.753225 200.626116 
L 77.939915 195.08567 
L 78.126606 196.524593 
L 78.313296 199.243262 
L 78.499986 197.820125 
L 78.686677 210.530748 
L 78.873367 196.993624 
L 79.060058 214.15217 
L 79.246748 161.787108 
L 79.620129 206.649662 
L 79.806819 218.415445 
L 79.993509 210.784221 
L 80.1802 209.79924 
L 80.36689 205.274392 
L 80.55358 165.215564 
L 80.740271 213.43578 
L 80.926961 213.688632 
L 81.113652 202.631742 
L 81.300342 218.931182 
L 81.487032 209.450049 
L 81.673723 221.08139 
L 81.860413 217.809878 
L 82.047103 219.247129 
L 82.233794 222.888581 
L 82.420484 214.367229 
L 82.793865 228.602687 
L 82.980555 211.735924 
L 83.167246 227.828492 
L 83.353936 221.583893 
L 83.540626 222.740965 
L 83.727317 220.855133 
L 83.914007 227.504049 
L 84.100697 227.344986 
L 84.287388 224.213293 
L 84.474078 232.591067 
L 84.660768 232.88126 
L 84.847459 222.342814 
L 85.034149 222.542005 
L 85.22084 223.81492 
L 85.967601 234.761813 
L 86.154291 228.396906 
L 86.340982 227.93445 
L 86.527672 216.730276 
L 86.714362 235.548285 
L 86.901053 222.423556 
L 87.087743 225.020798 
L 87.274434 234.904452 
L 87.461124 222.063119 
L 87.647814 230.729689 
L 88.021195 228.387002 
L 88.207885 241.571588 
L 88.394576 223.770714 
L 88.581266 231.488386 
L 88.767957 224.665538 
L 88.954647 230.472088 
L 89.141337 228.434023 
L 89.328028 230.862087 
L 89.514718 230.088214 
L 89.701408 237.248668 
L 89.888099 237.34332 
L 90.074789 233.004882 
L 90.44817 237.925111 
L 90.63486 228.296183 
L 90.821551 236.857063 
L 91.008241 234.341906 
L 91.194931 228.749408 
L 91.381622 237.777462 
L 91.568312 240.912798 
L 91.755002 228.590714 
L 92.128383 239.947457 
L 92.315073 229.894286 
L 92.501764 234.535515 
L 92.688454 233.472175 
L 92.875145 240.904765 
L 93.061835 239.381452 
L 93.248525 242.572115 
L 93.435216 236.39359 
L 93.808596 246.03914 
L 93.995287 229.075097 
L 94.181977 240.712939 
L 94.368667 243.325276 
L 94.555358 237.218177 
L 94.742048 242.526536 
L 95.115429 232.914903 
L 95.302119 235.315449 
L 95.6755 231.257155 
L 95.86219 232.748809 
L 96.048881 228.17185 
L 96.422261 238.397825 
L 96.608952 230.716205 
L 96.982333 242.059189 
L 97.355713 235.701897 
L 97.542404 224.03239 
L 97.729094 251.016984 
L 97.915784 235.365732 
L 98.102475 241.911817 
L 98.289165 234.071128 
L 98.475856 242.006166 
L 98.662546 243.475062 
L 99.035927 235.210521 
L 99.222617 244.609823 
L 99.595998 237.805444 
L 99.782688 236.159616 
L 100.156069 242.220809 
L 100.52945 239.758737 
L 100.90283 244.719895 
L 101.089521 239.447975 
L 101.276211 249.982333 
L 101.462901 244.324622 
L 101.649592 244.053988 
L 101.836282 252.596868 
L 102.022972 237.572683 
L 102.209663 239.891009 
L 102.396353 245.403181 
L 102.583044 241.228004 
L 102.769734 244.203355 
L 102.956424 243.959433 
L 103.143115 246.3338 
L 103.329805 236.788568 
L 103.516495 244.237134 
L 103.703186 240.708299 
L 103.889876 243.711332 
L 104.076566 236.64946 
L 104.263257 245.386846 
L 104.449947 248.212812 
L 104.823328 236.387515 
L 105.010018 242.457025 
L 105.196709 252.691305 
L 105.383399 238.594827 
L 105.570089 242.857775 
L 105.75678 239.84865 
L 105.94347 252.445967 
L 106.316851 241.23543 
L 106.503541 233.308394 
L 106.690232 239.446062 
L 106.876922 240.24405 
L 107.063612 237.204392 
L 107.436993 247.352462 
L 107.623683 246.636313 
L 107.810374 251.015812 
L 107.997064 244.224087 
L 108.183755 232.868092 
L 108.370445 244.54586 
L 108.557135 246.733461 
L 108.743826 247.386751 
L 108.930516 240.076653 
L 109.117206 246.760851 
L 109.303897 232.818338 
L 109.490587 248.185059 
L 109.677277 235.911037 
L 109.863968 248.648283 
L 110.237349 235.942745 
L 110.610729 250.835962 
L 110.98411 237.773294 
L 111.1708 250.718639 
L 111.357491 243.059306 
L 111.730871 244.760956 
L 111.917562 235.997291 
L 112.104252 243.733489 
L 112.290943 234.24774 
L 112.664323 253.905364 
L 112.851014 244.007744 
L 113.037704 242.412807 
L 113.224394 243.630631 
L 113.411085 250.202057 
L 113.597775 244.490193 
L 113.784465 243.915935 
L 113.971156 250.386988 
L 114.157846 251.616413 
L 114.531227 240.248472 
L 114.717917 241.797656 
L 114.904608 253.370079 
L 115.091298 248.597115 
L 115.277988 257.972151 
L 115.464679 249.384135 
L 115.651369 254.89879 
L 115.838059 247.809898 
L 116.02475 250.029597 
L 116.398131 244.381677 
L 116.584821 251.028904 
L 116.771511 249.872785 
L 116.958202 249.749798 
L 117.144892 253.522146 
L 117.331582 244.754736 
L 117.518273 256.801442 
L 117.891654 245.749231 
L 118.078344 244.11182 
L 118.451725 250.595418 
L 118.638415 246.229178 
L 118.825105 248.681521 
L 119.011796 244.250849 
L 119.198486 250.513228 
L 119.385176 243.775955 
L 119.571867 258.572246 
L 119.758557 253.139657 
L 119.945248 242.71582 
L 120.131938 248.302402 
L 120.318628 242.954777 
L 120.505319 254.932688 
L 120.692009 244.849133 
L 120.878699 259.403073 
L 121.25208 244.236243 
L 121.43877 251.128673 
L 121.625461 251.052752 
L 121.812151 247.711253 
L 121.998842 247.583058 
L 122.185532 257.939558 
L 122.372222 257.019899 
L 122.558913 257.059415 
L 122.745603 252.565971 
L 122.932293 257.168982 
L 123.118984 246.753393 
L 123.305674 244.035274 
L 123.679055 247.619537 
L 123.865745 246.454696 
L 124.052436 257.716654 
L 124.425816 255.156365 
L 124.612507 239.859839 
L 124.799197 256.151146 
L 124.985887 242.558863 
L 125.172578 253.941915 
L 125.359268 253.875546 
L 125.732649 258.210792 
L 125.919339 251.62868 
L 126.10603 253.454929 
L 126.29272 247.093757 
L 126.47941 256.657463 
L 126.666101 251.561968 
L 126.852791 254.134326 
L 127.039481 252.608486 
L 127.226172 253.099982 
L 127.412862 248.357645 
L 127.599553 251.064211 
L 127.786243 249.991599 
L 127.972933 237.235697 
L 128.159624 259.232998 
L 128.346314 249.046256 
L 128.533004 250.305553 
L 128.719695 240.498148 
L 128.906385 254.010987 
L 129.093075 253.454246 
L 129.279766 261.559092 
L 129.839837 250.111678 
L 130.026527 251.223142 
L 130.399908 259.157748 
L 130.586598 242.723837 
L 130.773289 248.284238 
L 130.959979 247.637005 
L 131.146669 248.104769 
L 131.33336 256.905901 
L 131.52005 247.694355 
L 131.893431 254.517265 
L 132.080121 255.856229 
L 132.266812 254.173024 
L 132.453502 265.963779 
L 132.640192 243.947756 
L 132.826883 243.289346 
L 133.013573 257.609329 
L 133.386954 251.228519 
L 133.573644 249.961737 
L 133.760335 261.048422 
L 133.947025 247.305471 
L 134.133715 261.174648 
L 134.320406 255.359749 
L 134.507096 255.164683 
L 134.693786 259.360171 
L 134.880477 254.65694 
L 135.067167 246.738251 
L 135.253857 259.58916 
L 135.440548 256.802697 
L 135.627238 250.50499 
L 135.813929 255.167932 
L 136.187309 251.205876 
L 136.374 253.925938 
L 136.56069 252.301454 
L 136.74738 260.105585 
L 136.934071 259.035949 
L 137.120761 255.644592 
L 137.307452 258.172901 
L 137.494142 267.562625 
L 137.680832 252.762494 
L 138.240903 257.717302 
L 138.427594 257.251228 
L 138.614284 267.20954 
L 138.987665 252.667879 
L 139.361046 267.804707 
L 139.547736 259.384102 
L 139.734426 262.477852 
L 139.921117 257.058341 
L 140.107807 259.696234 
L 140.294497 259.032612 
L 140.481188 258.87699 
L 140.667878 258.413979 
L 140.854568 263.06239 
L 141.227949 257.050498 
L 141.41464 268.985712 
L 141.60133 256.211842 
L 141.78802 254.848642 
L 141.974711 257.274348 
L 142.161401 255.723942 
L 142.348091 262.06344 
L 142.534782 258.767788 
L 142.721472 258.715382 
L 142.908162 253.038105 
L 143.094853 260.797911 
L 143.281543 251.738322 
L 143.468234 261.807566 
L 143.654924 261.838117 
L 143.841614 247.792719 
L 144.028305 260.919718 
L 144.214995 257.595426 
L 144.401685 260.39335 
L 144.588376 260.589877 
L 144.775066 264.581738 
L 144.961756 248.76424 
L 145.148447 259.890574 
L 145.335137 257.817604 
L 145.521828 263.890026 
L 145.708518 263.599158 
L 145.895208 266.800242 
L 146.081899 260.272408 
L 146.268589 258.65335 
L 146.455279 263.58764 
L 146.64197 256.020988 
L 146.82866 267.65242 
L 147.202041 257.428758 
L 147.388731 264.131171 
L 147.575422 266.201311 
L 147.762112 266.656986 
L 147.948802 254.370606 
L 148.322183 267.564781 
L 148.508873 246.795665 
L 148.695564 270.216752 
L 149.068945 258.556451 
L 149.255635 259.413258 
L 149.442325 263.070695 
L 149.629016 251.671386 
L 150.002396 268.664238 
L 150.189087 261.672408 
L 150.375777 248.992466 
L 150.562467 256.920861 
L 150.749158 270.273737 
L 150.935848 259.70762 
L 151.122539 266.794271 
L 151.309229 256.09991 
L 151.495919 260.511016 
L 151.68261 254.370285 
L 151.8693 267.836705 
L 152.242681 259.767658 
L 152.616061 254.534846 
L 152.802752 258.428277 
L 152.989442 255.489447 
L 153.176133 254.82422 
L 153.362823 259.273314 
L 153.549513 269.440987 
L 153.736204 258.318761 
L 153.922894 257.028769 
L 154.109584 257.625668 
L 154.296275 260.323282 
L 154.482965 255.617783 
L 154.669655 260.414029 
L 154.856346 261.831966 
L 155.229727 252.192093 
L 155.416417 262.079435 
L 155.603107 256.185709 
L 155.976488 260.378192 
L 156.163178 265.915845 
L 156.349869 257.677542 
L 156.72325 263.304885 
L 156.90994 254.064923 
L 157.09663 257.515241 
L 157.283321 255.7952 
L 157.470011 263.538435 
L 157.656701 258.207271 
L 157.843392 262.440002 
L 158.030082 258.714906 
L 158.216772 262.637088 
L 158.403463 263.230933 
L 158.590153 261.199145 
L 158.776844 261.346535 
L 158.963534 256.3256 
L 159.336915 259.123999 
L 159.523605 265.13517 
L 159.710295 260.538165 
L 159.896986 260.452773 
L 160.083676 265.289948 
L 160.270366 252.087314 
L 160.457057 259.235746 
L 160.643747 259.070742 
L 160.830438 261.285795 
L 161.017128 267.497927 
L 161.203818 257.046469 
L 161.390509 266.451742 
L 161.577199 265.785893 
L 161.763889 262.770192 
L 161.95058 250.793031 
L 162.13727 263.890517 
L 162.32396 263.174305 
L 162.510651 264.874656 
L 162.697341 272.048226 
L 162.884032 262.387438 
L 163.070722 274.141273 
L 163.257412 252.701532 
L 163.444103 257.479597 
L 163.630793 256.212678 
L 164.004174 268.005261 
L 164.190864 250.311085 
L 164.564245 261.845102 
L 164.750935 252.292365 
L 164.937626 264.071993 
L 165.124316 258.21286 
L 165.311006 259.292172 
L 165.497697 259.649742 
L 165.684387 263.525802 
L 165.871077 259.997647 
L 166.057768 266.358397 
L 166.244458 262.315006 
L 166.431149 263.612892 
L 166.617839 258.839063 
L 166.804529 259.32415 
L 167.3646 266.089346 
L 167.551291 267.279351 
L 167.737981 260.163066 
L 167.924671 262.155115 
L 168.111362 267.18304 
L 168.298052 259.898732 
L 168.484743 257.019328 
L 168.671433 257.386535 
L 168.858123 254.772767 
L 169.044814 259.741222 
L 169.231504 258.65762 
L 169.418194 267.894681 
L 169.604885 258.488901 
L 169.978265 269.881598 
L 170.164956 250.902382 
L 170.351646 272.779517 
L 170.725027 257.741468 
L 170.911717 259.332102 
L 171.098408 256.769282 
L 171.285098 260.696383 
L 171.471788 258.367652 
L 171.845169 268.00254 
L 172.031859 265.232842 
L 172.21855 269.123906 
L 172.40524 262.586371 
L 172.591931 266.204221 
L 172.778621 250.813905 
L 172.965311 271.005724 
L 173.152002 255.688484 
L 173.338692 267.605493 
L 173.525382 270.223216 
L 173.712073 265.229259 
L 173.898763 265.70797 
L 174.085453 265.478904 
L 174.272144 250.871111 
L 174.645525 263.501193 
L 174.832215 263.466513 
L 175.018905 266.471603 
L 175.205596 256.052013 
L 175.392286 268.913867 
L 175.578976 263.725729 
L 175.765667 262.871443 
L 175.952357 251.499792 
L 176.325738 262.054626 
L 176.512428 260.447248 
L 176.699119 257.865861 
L 176.885809 264.998251 
L 177.072499 259.452163 
L 177.25919 249.780534 
L 177.63257 260.682036 
L 177.819261 265.29539 
L 178.005951 259.952394 
L 178.192642 267.74899 
L 178.379332 263.099394 
L 178.566022 268.4394 
L 178.752713 259.011697 
L 179.126093 264.220685 
L 179.312784 263.462727 
L 179.499474 269.117579 
L 179.686164 262.872342 
L 179.872855 250.330811 
L 180.059545 264.226256 
L 180.246236 257.892749 
L 180.432926 258.586604 
L 180.619616 263.042731 
L 180.806307 272.709484 
L 180.992997 265.12713 
L 181.179687 267.426059 
L 181.553068 255.601123 
L 181.739758 257.202799 
L 181.926449 266.071366 
L 182.113139 257.161476 
L 182.48652 267.536233 
L 182.859901 259.711517 
L 183.046591 251.678832 
L 183.419972 267.920173 
L 183.606662 265.695228 
L 183.793353 268.69672 
L 183.980043 252.197468 
L 184.166733 259.003805 
L 184.353424 260.806822 
L 184.540114 260.635289 
L 184.726804 260.15225 
L 184.913495 268.76209 
L 185.100185 250.912312 
L 185.473566 263.643555 
L 185.660256 254.326085 
L 185.846947 264.793844 
L 186.033637 252.796651 
L 186.220327 266.356912 
L 186.593708 255.731334 
L 186.780398 265.854311 
L 186.967089 266.095473 
L 187.153779 263.694013 
L 187.340469 264.717904 
L 187.52716 263.453146 
L 187.71385 263.348085 
L 187.900541 260.263646 
L 188.087231 260.13353 
L 188.273921 254.415848 
L 188.460612 268.268244 
L 188.833992 256.05835 
L 189.020683 256.666221 
L 189.207373 261.851876 
L 189.394063 263.229264 
L 189.580754 271.945243 
L 189.954135 263.789773 
L 190.140825 270.967645 
L 190.327515 258.600614 
L 190.514206 269.718975 
L 190.700896 254.050611 
L 190.887586 265.356035 
L 191.074277 263.336231 
L 191.260967 256.878456 
L 191.447657 256.332781 
L 191.634348 263.895698 
L 191.821038 257.64394 
L 192.007729 266.676092 
L 192.194419 269.334779 
L 192.381109 256.255367 
L 192.5678 265.264745 
L 192.75449 232.477051 
L 192.94118 261.671727 
L 193.127871 267.615065 
L 193.314561 260.27676 
L 193.501252 262.927034 
L 193.687942 261.519725 
L 193.874632 262.690863 
L 194.061323 258.67119 
L 194.248013 267.978111 
L 194.434703 258.952625 
L 194.621394 259.399103 
L 194.808084 267.391578 
L 194.994774 265.912238 
L 195.181465 256.661901 
L 195.368155 254.043486 
L 195.741536 267.472072 
L 195.928226 263.197622 
L 196.114917 250.776384 
L 196.488297 258.352263 
L 196.674988 268.675345 
L 196.861678 258.443391 
L 197.048368 268.505056 
L 197.235059 261.883315 
L 197.421749 266.527132 
L 197.60844 256.536534 
L 197.79513 264.585986 
L 198.541891 260.543014 
L 198.915272 263.270684 
L 199.101962 257.50764 
L 199.288653 263.186648 
L 199.475343 261.406359 
L 199.662034 265.074927 
L 199.848724 266.115318 
L 200.035414 264.11116 
L 200.222105 256.318268 
L 200.408795 258.746891 
L 200.595485 265.460066 
L 200.782176 254.395453 
L 200.968866 254.05184 
L 201.155556 254.823766 
L 201.342247 263.721437 
L 201.528937 264.043789 
L 201.715628 263.540995 
L 201.902318 246.653723 
L 202.089008 247.93064 
L 202.275699 261.693021 
L 202.462389 253.699776 
L 202.649079 258.866614 
L 202.83577 256.421853 
L 203.02246 257.953366 
L 203.209151 251.095776 
L 203.395841 259.159579 
L 203.582531 259.903399 
L 203.769222 261.575951 
L 203.955912 254.146966 
L 204.142602 267.542511 
L 204.329293 251.446212 
L 204.702673 264.270146 
L 204.889364 266.000652 
L 205.076054 262.128801 
L 205.262745 269.947184 
L 205.449435 259.080462 
L 205.636125 259.001166 
L 205.822816 263.777242 
L 206.196196 252.458118 
L 206.382887 255.460739 
L 206.569577 264.502311 
L 206.756267 263.47536 
L 206.942958 272.196922 
L 207.129648 252.048648 
L 207.316339 260.14966 
L 207.503029 256.153388 
L 207.87641 269.31348 
L 208.0631 260.335984 
L 208.24979 261.393008 
L 208.436481 257.28017 
L 208.623171 259.533558 
L 208.809861 266.510886 
L 208.996552 268.541826 
L 209.183242 263.497026 
L 209.369933 264.873685 
L 209.556623 251.39551 
L 209.743313 266.374343 
L 209.930004 269.4587 
L 210.116694 256.41948 
L 210.303384 264.035733 
L 210.490075 262.154531 
L 210.676765 257.211066 
L 210.863455 264.525566 
L 211.050146 263.01587 
L 211.236836 268.161367 
L 211.423527 263.81347 
L 211.610217 268.917626 
L 211.796907 258.773476 
L 211.983598 267.745519 
L 212.170288 264.238954 
L 212.356978 255.412312 
L 212.543669 263.047032 
L 212.730359 257.103683 
L 212.91705 260.210607 
L 213.10374 260.527983 
L 213.29043 265.906265 
L 213.477121 263.951594 
L 213.663811 259.824583 
L 213.850501 260.903753 
L 214.037192 259.895668 
L 214.223882 264.036526 
L 214.410572 251.951794 
L 214.597263 266.256982 
L 214.783953 263.686992 
L 214.970644 268.269646 
L 215.157334 262.930513 
L 215.344024 263.673386 
L 215.530715 256.820169 
L 215.717405 256.655266 
L 215.904095 257.924382 
L 216.090786 264.916454 
L 216.277476 259.150698 
L 216.464166 263.01381 
L 216.650857 260.052607 
L 216.837547 266.30199 
L 217.024238 268.235299 
L 217.210928 262.454759 
L 217.584309 260.839133 
L 217.770999 260.162758 
L 217.957689 264.331912 
L 218.14438 255.876017 
L 218.33107 255.873751 
L 218.51776 256.619362 
L 218.891141 250.341418 
L 219.077832 265.235669 
L 219.264522 256.777748 
L 219.451212 267.19022 
L 219.637903 259.453432 
L 219.824593 260.685671 
L 220.011283 255.592008 
L 220.197974 262.557712 
L 220.384664 259.611788 
L 220.571354 260.06012 
L 220.758045 255.362043 
L 220.944735 270.569457 
L 221.131426 264.225846 
L 221.318116 264.618925 
L 221.504806 266.352442 
L 221.878187 254.835384 
L 222.064877 258.483372 
L 222.251568 264.408735 
L 222.438258 257.129591 
L 222.624949 266.194948 
L 223.18502 248.173804 
L 223.37171 260.05583 
L 223.5584 251.569303 
L 223.745091 255.657683 
L 223.931781 264.957219 
L 224.118471 260.302159 
L 224.305162 261.922395 
L 224.491852 259.641291 
L 224.678543 265.042111 
L 224.865233 248.196898 
L 225.051923 266.037595 
L 225.425304 258.308848 
L 225.611994 269.256194 
L 225.798685 269.783563 
L 225.985375 254.026906 
L 226.172065 265.311305 
L 226.358756 260.713794 
L 226.545446 262.006482 
L 226.732137 257.213769 
L 226.918827 260.288956 
L 227.105517 260.145216 
L 227.292208 256.534842 
L 227.478898 256.206616 
L 227.665588 260.051395 
L 227.852279 274.959218 
L 228.038969 270.354823 
L 228.225659 261.745395 
L 228.59904 263.548693 
L 228.785731 255.478303 
L 228.972421 264.762519 
L 229.159111 268.055315 
L 229.345802 262.865021 
L 229.532492 264.46491 
L 229.719182 268.542676 
L 229.905873 263.422974 
L 230.092563 266.274132 
L 230.465944 262.556932 
L 230.652634 269.901771 
L 230.839325 266.426443 
L 231.026015 254.958967 
L 231.212705 275.55652 
L 231.399396 257.970126 
L 231.586086 255.132754 
L 231.959467 278.700312 
L 232.332848 242.48498 
L 232.519538 266.153296 
L 232.706228 268.810958 
L 232.892919 256.590341 
L 233.079609 254.833426 
L 233.45299 260.996186 
L 233.63968 270.438639 
L 234.013061 261.469239 
L 234.199751 261.18506 
L 234.386442 264.757618 
L 234.573132 255.174978 
L 234.759822 267.834575 
L 234.946513 265.907491 
L 235.133203 266.667169 
L 235.319893 258.314514 
L 235.506584 268.479911 
L 235.879964 259.947524 
L 236.066655 260.901967 
L 236.253345 262.482705 
L 236.440036 265.740414 
L 236.626726 256.568055 
L 237.000107 267.22138 
L 237.186797 263.773468 
L 237.373487 264.00217 
L 237.560178 262.852262 
L 237.746868 271.581405 
L 237.933558 261.4797 
L 238.120249 257.590214 
L 238.49363 276.847043 
L 238.68032 267.828302 
L 238.86701 267.45193 
L 239.053701 250.979223 
L 239.240391 261.793335 
L 239.427081 245.26648 
L 239.613772 265.472674 
L 239.800462 251.843097 
L 239.987152 253.566206 
L 240.173843 261.763305 
L 240.547224 264.634571 
L 240.733914 269.22812 
L 240.920604 253.541052 
L 241.107295 259.901357 
L 241.293985 259.186798 
L 241.480675 264.535008 
L 241.667366 257.548943 
L 242.040747 263.590892 
L 242.227437 275.266544 
L 242.414127 261.73115 
L 242.600818 265.582577 
L 242.787508 260.380757 
L 242.974198 267.623479 
L 243.160889 262.579613 
L 243.347579 267.429928 
L 243.534269 269.098541 
L 243.72096 251.226219 
L 243.90765 265.225034 
L 244.094341 257.717715 
L 244.281031 267.156204 
L 244.654412 261.131696 
L 244.841102 264.41912 
L 245.027792 269.90664 
L 245.214483 260.553201 
L 245.401173 265.551354 
L 245.587863 252.70747 
L 245.774554 228.579214 
L 245.961244 269.574524 
L 246.147935 265.612966 
L 246.334625 258.632357 
L 246.521315 264.593666 
L 246.708006 258.990733 
L 246.894696 257.600667 
L 247.081386 271.834765 
L 247.268077 262.687267 
L 247.641457 264.873046 
L 248.201529 256.327776 
L 248.388219 268.566646 
L 248.7616 260.791584 
L 248.94829 260.847633 
L 249.13498 263.411182 
L 249.321671 273.204836 
L 249.695051 257.563017 
L 249.881742 270.301571 
L 250.068432 251.855382 
L 250.255123 260.319821 
L 250.441813 252.733959 
L 250.628503 254.630037 
L 251.001884 263.789992 
L 251.188574 259.084546 
L 251.561955 265.963911 
L 251.748646 252.71144 
L 251.935336 265.406426 
L 252.122026 254.716992 
L 252.495407 261.839601 
L 252.682097 263.305423 
L 252.868788 259.746206 
L 253.055478 261.64398 
L 253.242168 257.248711 
L 253.428859 257.151905 
L 253.615549 257.283823 
L 253.80224 260.185838 
L 253.98893 258.56115 
L 254.17562 258.72268 
L 254.549001 272.541238 
L 254.735691 220.635167 
L 254.922382 257.821604 
L 255.109072 242.907203 
L 255.295762 258.176396 
L 255.482453 263.165595 
L 255.669143 254.032853 
L 255.855834 259.892642 
L 256.042524 261.293268 
L 256.415905 268.053001 
L 256.789285 255.113893 
L 256.975976 263.470422 
L 257.162666 257.42966 
L 257.349356 261.21068 
L 257.536047 251.233588 
L 257.722737 270.049305 
L 257.909428 267.858228 
L 258.096118 263.87387 
L 258.282808 255.70813 
L 258.469499 257.282425 
L 258.656189 263.093115 
L 258.842879 263.85422 
L 259.02957 253.790206 
L 259.21626 254.631859 
L 259.40295 248.19486 
L 259.589641 260.911107 
L 259.776331 263.548802 
L 259.963022 258.87953 
L 260.149712 266.123704 
L 260.336402 236.837666 
L 260.523093 271.278902 
L 260.709783 269.76744 
L 260.896473 257.39007 
L 261.083164 265.766126 
L 261.456545 246.725017 
L 261.643235 265.527201 
L 261.829925 248.975182 
L 262.203306 266.534419 
L 262.389996 260.850613 
L 262.576687 260.148572 
L 262.763377 255.4509 
L 262.950067 256.587092 
L 263.136758 259.886951 
L 263.323448 255.375863 
L 263.510139 246.800398 
L 263.696829 262.857823 
L 263.883519 254.719692 
L 264.07021 261.83884 
L 264.44359 255.969508 
L 264.630281 263.504134 
L 264.816971 264.932112 
L 265.003661 255.235649 
L 265.190352 255.390321 
L 265.377042 255.089631 
L 265.563733 268.448862 
L 265.750423 262.910468 
L 265.937113 244.636724 
L 266.123804 260.853114 
L 266.310494 254.974112 
L 266.497184 270.862464 
L 266.683875 255.193087 
L 266.870565 263.655539 
L 267.057255 257.473111 
L 267.243946 257.06841 
L 267.430636 264.394379 
L 267.617327 260.900538 
L 267.804017 270.634328 
L 267.990707 268.659319 
L 268.177398 265.098672 
L 268.364088 266.940274 
L 268.550778 258.041671 
L 268.737469 257.879003 
L 268.924159 266.928574 
L 269.110849 269.7134 
L 269.29754 264.989284 
L 269.48423 268.945325 
L 270.044301 253.75463 
L 270.230992 266.547854 
L 270.417682 250.331363 
L 270.791063 268.718429 
L 270.977753 252.254807 
L 271.164444 267.175775 
L 271.537824 257.540006 
L 271.724515 263.499397 
L 271.911205 260.735268 
L 272.097895 267.324611 
L 272.284586 245.942797 
L 272.657966 265.69457 
L 272.844657 257.337375 
L 273.031347 257.042949 
L 273.218038 268.485426 
L 273.404728 266.983821 
L 273.591418 261.671238 
L 273.778109 261.396524 
L 273.964799 258.161286 
L 274.151489 262.680652 
L 274.33818 264.477511 
L 274.52487 255.124289 
L 274.71156 255.52226 
L 274.898251 263.322461 
L 275.084941 256.818577 
L 275.271632 257.453574 
L 275.645012 268.835407 
L 276.205083 255.227525 
L 276.391774 262.417147 
L 276.578464 262.097448 
L 276.765154 252.228791 
L 276.951845 255.967581 
L 277.138535 256.425036 
L 277.325226 258.443271 
L 277.511916 250.144198 
L 277.698606 250.679636 
L 277.885297 256.929087 
L 278.071987 255.438567 
L 278.258677 266.020771 
L 278.445368 260.490067 
L 278.818748 263.665092 
L 279.005439 269.257009 
L 279.37882 260.047291 
L 279.56551 260.013712 
L 279.7522 265.060873 
L 279.938891 262.956728 
L 280.125581 264.224327 
L 280.685652 253.072863 
L 280.872343 263.21443 
L 281.059033 260.886174 
L 281.245723 263.017724 
L 281.432414 255.223071 
L 281.805794 263.796144 
L 281.992485 255.889077 
L 282.179175 257.820521 
L 282.552556 265.100833 
L 282.925937 254.670381 
L 283.112627 248.876335 
L 283.299317 252.950759 
L 283.486008 261.003635 
L 283.672698 256.891432 
L 283.859388 273.619371 
L 284.232769 248.241202 
L 284.419459 264.175619 
L 284.60615 251.273436 
L 284.79284 256.582282 
L 284.979531 257.069409 
L 285.166221 260.879434 
L 285.352911 270.917287 
L 285.539602 259.035746 
L 285.726292 258.663868 
L 285.912982 255.806189 
L 286.099673 257.642519 
L 286.286363 249.765442 
L 286.473053 259.470685 
L 286.659744 261.015267 
L 286.846434 269.749343 
L 287.033125 252.843391 
L 287.219815 260.616639 
L 287.406505 261.015916 
L 287.593196 259.873172 
L 287.779886 249.479164 
L 287.966576 259.464883 
L 288.153267 259.102717 
L 288.339957 262.463011 
L 288.526647 252.144377 
L 288.713338 262.074199 
L 288.900028 252.85655 
L 289.086719 260.76206 
L 289.273409 260.204399 
L 289.460099 260.770642 
L 289.64679 256.138614 
L 289.83348 255.458137 
L 290.02017 256.751309 
L 290.206861 254.460942 
L 290.393551 266.206883 
L 290.580242 265.080071 
L 290.953622 252.945202 
L 291.140313 271.412304 
L 291.327003 263.250021 
L 291.513693 263.625579 
L 291.700384 263.003612 
L 291.887074 257.07375 
L 292.073764 263.578434 
L 292.260455 250.651127 
L 292.447145 251.506888 
L 292.633836 254.841071 
L 292.820526 256.053618 
L 293.007216 253.940323 
L 293.193907 254.746796 
L 293.380597 267.805114 
L 293.567287 250.095794 
L 293.753978 255.31025 
L 293.940668 254.449352 
L 294.127358 265.110756 
L 294.314049 261.632172 
L 294.500739 268.416298 
L 294.68743 261.015947 
L 294.87412 268.285235 
L 295.06081 259.41259 
L 295.247501 256.097981 
L 295.434191 268.55428 
L 295.807572 253.263468 
L 295.994262 266.182821 
L 296.180952 267.575711 
L 296.741024 254.497563 
L 296.927714 258.523288 
L 297.114404 255.141429 
L 297.301095 254.82168 
L 297.487785 245.42683 
L 297.861166 270.484732 
L 298.234547 250.774933 
L 298.421237 265.762411 
L 298.607927 251.017756 
L 298.981308 261.874984 
L 299.167998 261.469652 
L 299.354689 255.022579 
L 299.541379 261.096466 
L 299.728069 257.397859 
L 299.91476 251.291577 
L 300.288141 260.881824 
L 300.474831 258.085116 
L 300.661521 261.28008 
L 300.848212 259.547167 
L 301.034902 264.367534 
L 301.221592 260.627012 
L 301.408283 263.040381 
L 301.594973 252.139364 
L 301.781663 256.104037 
L 301.968354 254.486929 
L 302.341735 263.454318 
L 302.528425 264.17445 
L 302.715115 266.658732 
L 302.901806 263.685997 
L 303.088496 263.640874 
L 303.275186 260.188334 
L 303.461877 262.41882 
L 303.648567 248.093057 
L 303.835257 268.127023 
L 304.021948 263.944182 
L 304.208638 256.436258 
L 304.395329 261.846542 
L 304.582019 271.65921 
L 304.768709 257.826411 
L 304.9554 259.287682 
L 305.32878 253.485754 
L 305.515471 272.778449 
L 305.888851 256.660554 
L 306.075542 265.087633 
L 306.262232 265.054811 
L 306.448923 261.005759 
L 306.635613 261.577741 
L 306.822303 254.82541 
L 307.195684 259.466206 
L 307.382374 253.707403 
L 307.755755 264.020978 
L 307.942446 256.757963 
L 308.315826 257.868217 
L 308.502517 270.730395 
L 308.689207 258.081381 
L 309.062588 266.279682 
L 309.249278 257.200207 
L 309.622659 272.56886 
L 309.809349 257.147506 
L 309.99604 202.649281 
L 310.18273 260.014489 
L 310.36942 262.263584 
L 310.742801 259.782067 
L 310.929491 263.952462 
L 311.116182 260.304046 
L 311.302872 264.808712 
L 311.489562 258.854975 
L 311.676253 263.842185 
L 311.862943 263.549202 
L 312.049634 261.330494 
L 312.236324 266.506921 
L 312.423014 264.834593 
L 312.609705 260.582843 
L 312.796395 260.035904 
L 312.983085 248.967859 
L 313.169776 261.554599 
L 313.356466 253.829188 
L 313.729847 258.819163 
L 313.916537 253.043928 
L 314.289918 274.124302 
L 314.476608 254.149029 
L 314.663299 275.85275 
L 314.849989 256.486438 
L 315.036679 258.362049 
L 315.22337 254.917696 
L 315.41006 256.459894 
L 315.59675 256.558385 
L 315.783441 266.66738 
L 315.970131 263.668615 
L 316.156822 264.147844 
L 316.343512 260.135464 
L 316.530202 259.811196 
L 316.716893 256.364232 
L 317.090273 268.330054 
L 317.276964 260.015886 
L 317.463654 268.473465 
L 317.650345 261.158341 
L 317.837035 268.513477 
L 318.023725 254.603273 
L 318.210416 261.847761 
L 318.583796 254.420513 
L 318.770487 254.203678 
L 319.143867 262.185703 
L 319.330558 260.726322 
L 319.517248 257.767772 
L 319.703939 258.607342 
L 319.890629 257.509104 
L 320.077319 255.153211 
L 320.26401 257.496316 
L 320.4507 265.11178 
L 320.63739 257.953226 
L 320.824081 258.120396 
L 321.010771 254.53536 
L 321.384152 264.823057 
L 321.570842 263.780137 
L 321.757533 251.323691 
L 321.944223 257.451091 
L 322.130913 258.3484 
L 322.504294 260.9865 
L 322.690984 265.825937 
L 323.064365 254.220021 
L 323.251055 266.639356 
L 323.437746 255.349471 
L 323.624436 255.670417 
L 323.997817 270.552339 
L 324.184507 255.994068 
L 324.557888 264.911372 
L 324.744578 257.350876 
L 324.931269 241.675698 
L 325.304649 268.82943 
L 325.49134 254.025301 
L 325.67803 263.682483 
L 325.864721 258.686991 
L 326.238101 272.167093 
L 326.424792 257.233527 
L 326.611482 263.870322 
L 326.984863 259.135279 
L 327.171553 246.015238 
L 327.358244 258.179039 
L 327.544934 258.559879 
L 327.731624 254.481078 
L 328.105005 268.80172 
L 328.291695 263.579446 
L 328.478386 262.701059 
L 328.665076 272.829124 
L 328.851766 256.544809 
L 329.038457 262.423101 
L 329.225147 258.411048 
L 329.598528 259.766587 
L 329.785218 259.787161 
L 329.971909 260.171393 
L 330.158599 261.873155 
L 330.345289 256.63672 
L 330.53198 264.858325 
L 330.71867 251.935199 
L 330.90536 257.534165 
L 331.092051 53.568 
L 331.278741 250.302595 
L 331.465432 263.353689 
L 331.652122 262.465702 
L 331.838812 265.12313 
L 332.025503 264.356852 
L 332.212193 264.473022 
L 332.398883 265.566227 
L 332.585574 245.187208 
L 332.772264 266.428459 
L 332.958954 243.682654 
L 333.332335 260.691142 
L 333.519026 248.331812 
L 333.705716 253.962171 
L 333.892406 255.352618 
L 334.079097 259.320704 
L 334.265787 254.498074 
L 334.452477 261.841801 
L 334.639168 255.300118 
L 334.825858 266.65321 
L 335.012548 256.993449 
L 335.199239 258.449704 
L 335.385929 255.702489 
L 335.57262 258.466803 
L 335.75931 264.989679 
L 335.946 264.191596 
L 336.132691 268.280675 
L 336.319381 258.185766 
L 336.506071 256.03182 
L 336.879452 270.209845 
L 337.066143 255.711171 
L 337.252833 260.4364 
L 337.439523 258.318409 
L 337.626214 264.524641 
L 337.812904 265.085411 
L 337.999594 256.979544 
L 338.186285 270.094867 
L 338.559665 258.751956 
L 338.746356 263.18672 
L 338.933046 252.391786 
L 339.119737 267.159737 
L 339.306427 261.976414 
L 339.493117 262.85242 
L 339.679808 264.582156 
L 339.866498 254.020222 
L 340.239879 261.360329 
L 340.426569 251.886398 
L 340.613259 262.16087 
L 340.79995 262.69976 
L 340.98664 265.289416 
L 341.173331 259.553407 
L 341.360021 258.919869 
L 341.546711 264.768054 
L 341.733402 252.283733 
L 341.920092 259.526424 
L 342.106782 256.952764 
L 342.293473 260.746604 
L 342.480163 259.75704 
L 342.666853 250.627813 
L 342.853544 251.867361 
L 343.040234 249.333744 
L 343.226925 263.334808 
L 343.413615 261.211427 
L 343.600305 267.746946 
L 343.786996 250.607346 
L 343.973686 251.563387 
L 344.160376 263.190378 
L 344.533757 254.935322 
L 344.907138 260.522603 
L 345.093828 252.845564 
L 345.280519 251.847735 
L 345.467209 252.101639 
L 345.653899 272.666205 
L 345.84059 263.142295 
L 346.02728 268.389346 
L 346.21397 257.186021 
L 346.587351 258.160105 
L 346.774042 258.135059 
L 346.960732 257.374172 
L 347.147422 250.933672 
L 347.520803 264.278223 
L 347.707493 259.924015 
L 347.894184 251.794682 
L 348.080874 258.471561 
L 348.267564 251.014853 
L 348.454255 263.529487 
L 348.640945 261.744399 
L 348.827636 263.164519 
L 349.201016 257.379413 
L 349.387707 256.972219 
L 349.574397 265.747484 
L 349.947778 260.000627 
L 350.134468 265.240455 
L 350.321158 251.483376 
L 350.694539 270.162784 
L 350.88123 258.15919 
L 351.06792 262.644212 
L 351.25461 262.204119 
L 351.441301 259.975017 
L 351.627991 254.601002 
L 351.814681 261.617086 
L 352.001372 255.058097 
L 352.188062 256.868974 
L 352.374752 254.917665 
L 352.561443 256.397005 
L 352.934824 251.700364 
L 353.121514 264.05273 
L 353.308204 259.893704 
L 353.494895 266.300714 
L 353.681585 267.412989 
L 354.054966 250.044018 
L 354.428346 260.213366 
L 354.615037 259.19549 
L 354.801727 259.108017 
L 355.361798 241.501765 
L 355.548489 258.626573 
L 355.735179 258.873992 
L 355.921869 260.222701 
L 356.10856 255.236108 
L 356.29525 259.821938 
L 356.481941 258.20766 
L 356.668631 263.527904 
L 356.855321 248.444365 
L 357.042012 248.318363 
L 357.228702 261.727432 
L 357.415392 255.762028 
L 357.602083 266.184716 
L 357.975463 255.968238 
L 358.162154 259.495888 
L 358.348844 252.491593 
L 358.535535 267.331672 
L 359.095606 255.358285 
L 359.282296 260.606727 
L 359.468986 260.681358 
L 359.655677 256.852003 
L 359.842367 256.915659 
L 360.029057 261.914838 
L 360.402438 252.010091 
L 360.589129 259.6006 
L 360.775819 255.897431 
L 360.962509 259.012726 
L 361.1492 256.227254 
L 361.33589 257.555811 
L 361.709271 248.277473 
L 361.895961 246.691918 
L 362.082651 262.050687 
L 362.269342 254.994036 
L 362.456032 255.604105 
L 362.642723 261.525895 
L 363.016103 249.2752 
L 363.389484 263.51295 
L 363.576174 262.962158 
L 363.949555 250.064439 
L 364.136245 263.960171 
L 364.322936 259.107851 
L 364.509626 259.399561 
L 364.883007 248.685501 
L 365.069697 258.443487 
L 365.256388 259.847346 
L 365.443078 247.332103 
L 365.629768 250.840851 
L 366.18984 266.231695 
L 366.37653 260.887136 
L 366.56322 248.537436 
L 366.749911 258.486675 
L 366.936601 256.828284 
L 367.123291 258.819566 
L 367.309982 266.324718 
L 367.496672 259.48877 
L 367.683362 259.100006 
L 367.870053 261.258037 
L 368.056743 260.915914 
L 368.243434 259.445681 
L 368.616814 247.621531 
L 369.176885 259.731042 
L 369.363576 259.097281 
L 369.550266 265.174097 
L 369.736956 259.064905 
L 369.923647 257.442418 
L 370.110337 266.949529 
L 370.297028 270.641439 
L 370.483718 258.540235 
L 370.670408 256.292227 
L 370.857099 261.485714 
L 371.043789 244.864339 
L 371.230479 254.342601 
L 371.41717 252.36352 
L 371.60386 257.318724 
L 371.79055 252.605487 
L 372.163931 261.018927 
L 372.350622 250.190189 
L 372.537312 257.607037 
L 372.724002 250.849095 
L 372.910693 264.293037 
L 373.097383 263.040039 
L 373.284073 232.941924 
L 373.657454 262.461609 
L 373.844144 262.581813 
L 374.030835 255.045366 
L 374.217525 256.678979 
L 374.404216 267.445528 
L 374.590906 263.92762 
L 374.777596 250.696632 
L 374.964287 266.32329 
L 375.150977 262.253096 
L 375.337667 263.708741 
L 375.524358 256.699994 
L 375.711048 256.195985 
L 375.897739 271.213172 
L 376.084429 264.719972 
L 376.271119 262.457319 
L 376.45781 264.38214 
L 376.6445 248.784292 
L 376.83119 256.944598 
L 377.017881 255.689891 
L 377.204571 267.052532 
L 377.391261 265.371013 
L 377.577952 254.25992 
L 377.764642 256.988615 
L 377.951333 255.243545 
L 378.324713 266.289242 
L 378.511404 255.306325 
L 378.698094 191.103773 
L 378.884784 247.924767 
L 379.071475 250.893059 
L 379.258165 245.25727 
L 379.444855 258.936754 
L 379.631546 254.407015 
L 379.818236 262.687469 
L 380.004927 260.635963 
L 380.191617 254.687607 
L 380.378307 267.574252 
L 380.564998 254.854925 
L 380.751688 262.057327 
L 380.938378 254.900949 
L 381.125069 255.005141 
L 381.311759 251.953097 
L 381.498449 262.746909 
L 381.68514 256.379512 
L 381.87183 242.345545 
L 382.058521 259.775773 
L 382.431901 250.579154 
L 382.805282 256.633502 
L 382.991972 265.531833 
L 383.178663 257.633718 
L 383.365353 264.620741 
L 383.552043 258.911992 
L 383.738734 265.294988 
L 383.925424 256.390272 
L 384.112115 264.516651 
L 384.298805 247.374653 
L 384.485495 255.602596 
L 384.672186 256.326661 
L 384.858876 262.761273 
L 385.045566 263.950481 
L 385.232257 268.199857 
L 385.418947 263.607591 
L 385.605638 265.035429 
L 385.792328 260.260737 
L 385.979018 247.706961 
L 386.165709 263.741217 
L 386.352399 254.5058 
L 386.539089 255.446568 
L 386.72578 250.693553 
L 387.09916 254.158802 
L 387.285851 244.115307 
L 387.472541 262.81735 
L 387.659232 254.682939 
L 387.845922 265.267326 
L 388.032612 260.79777 
L 388.219303 252.725931 
L 388.405993 257.278861 
L 388.592683 247.266114 
L 388.779374 258.230724 
L 388.966064 248.31856 
L 389.152754 257.973922 
L 389.339445 256.609611 
L 389.526135 260.571473 
L 389.712826 260.188225 
L 389.899516 252.865635 
L 390.086206 258.280714 
L 390.272897 258.356541 
L 390.459587 246.475829 
L 390.646277 255.096922 
L 390.832968 248.316129 
L 391.019658 258.171597 
L 391.206348 261.900771 
L 391.393039 268.266306 
L 391.579729 252.24545 
L 391.76642 266.391054 
L 391.95311 254.935998 
L 392.1398 257.232364 
L 392.326491 255.66507 
L 392.513181 270.107957 
L 392.699871 254.169596 
L 392.886562 261.743401 
L 393.073252 250.00327 
L 393.259942 256.01582 
L 393.446633 257.633654 
L 393.633323 260.312003 
L 393.820014 253.902307 
L 394.006704 262.009012 
L 394.193394 264.596361 
L 394.380085 256.835999 
L 394.566775 259.024797 
L 394.753465 256.517157 
L 394.940156 263.1467 
L 395.313537 265.609697 
L 395.500227 262.265051 
L 395.686917 256.209568 
L 395.873608 262.201165 
L 396.060298 258.107855 
L 396.246988 257.745566 
L 396.433679 258.171866 
L 396.620369 270.499649 
L 396.807059 254.884919 
L 396.99375 262.072821 
L 397.18044 263.479594 
L 397.367131 260.900375 
L 397.740511 268.235069 
L 397.927202 267.565644 
L 398.113892 251.104025 
L 398.300582 260.109515 
L 398.487273 248.584985 
L 398.487273 248.584985 
" style="fill:none;stroke:#ff7f0e;stroke-linecap:square;stroke-width:1.5;"/>
   </g>
   <g id="patch_3">
    <path d="M 57.6 307.584 
L 57.6 41.472 
" style="fill:none;stroke:#000000;stroke-linecap:square;stroke-linejoin:miter;stroke-width:0.8;"/>
   </g>
   <g id="patch_4">
    <path d="M 414.72 307.584 
L 414.72 41.472 
" style="fill:none;stroke:#000000;stroke-linecap:square;stroke-linejoin:miter;stroke-width:0.8;"/>
   </g>
   <g id="patch_5">
    <path d="M 57.6 307.584 
L 414.72 307.584 
" style="fill:none;stroke:#000000;stroke-linecap:square;stroke-linejoin:miter;stroke-width:0.8;"/>
   </g>
   <g id="patch_6">
    <path d="M 57.6 41.472 
L 414.72 41.472 
" style="fill:none;stroke:#000000;stroke-linecap:square;stroke-linejoin:miter;stroke-width:0.8;"/>
   </g>
   <g id="legend_1">
    <g id="patch_7">
     <path d="M 184.2225 78.82825 
L 288.0975 78.82825 
Q 290.0975 78.82825 290.0975 76.82825 
L 290.0975 48.472 
Q 290.0975 46.472 288.0975 46.472 
L 184.2225 46.472 
Q 182.2225 46.472 182.2225 48.472 
L 182.2225 76.82825 
Q 182.2225 78.82825 184.2225 78.82825 
z
" style="fill:#ffffff;opacity:0.8;stroke:#cccccc;stroke-linejoin:miter;"/>
    </g>
    <g id="line2d_16">
     <path d="M 186.2225 54.570437 
L 206.2225 54.570437 
" style="fill:none;stroke:#1f77b4;stroke-linecap:square;stroke-width:1.5;"/>
    </g>
    <g id="line2d_17"/>
    <g id="text_15">
     <!-- Train loss -->
     <g transform="translate(214.2225 58.070437)scale(0.1 -0.1)">
      <defs>
       <path d="M -19 4666 
L 3928 4666 
L 3928 4134 
L 2272 4134 
L 2272 0 
L 1638 0 
L 1638 4134 
L -19 4134 
L -19 4666 
z
" id="DejaVuSans-54" transform="scale(0.015625)"/>
       <path d="M 2631 2963 
Q 2534 3019 2420 3045 
Q 2306 3072 2169 3072 
Q 1681 3072 1420 2755 
Q 1159 2438 1159 1844 
L 1159 0 
L 581 0 
L 581 3500 
L 1159 3500 
L 1159 2956 
Q 1341 3275 1631 3429 
Q 1922 3584 2338 3584 
Q 2397 3584 2469 3576 
Q 2541 3569 2628 3553 
L 2631 2963 
z
" id="DejaVuSans-72" transform="scale(0.015625)"/>
       <path d="M 2194 1759 
Q 1497 1759 1228 1600 
Q 959 1441 959 1056 
Q 959 750 1161 570 
Q 1363 391 1709 391 
Q 2188 391 2477 730 
Q 2766 1069 2766 1631 
L 2766 1759 
L 2194 1759 
z
M 3341 1997 
L 3341 0 
L 2766 0 
L 2766 531 
Q 2569 213 2275 61 
Q 1981 -91 1556 -91 
Q 1019 -91 701 211 
Q 384 513 384 1019 
Q 384 1609 779 1909 
Q 1175 2209 1959 2209 
L 2766 2209 
L 2766 2266 
Q 2766 2663 2505 2880 
Q 2244 3097 1772 3097 
Q 1472 3097 1187 3025 
Q 903 2953 641 2809 
L 641 3341 
Q 956 3463 1253 3523 
Q 1550 3584 1831 3584 
Q 2591 3584 2966 3190 
Q 3341 2797 3341 1997 
z
" id="DejaVuSans-61" transform="scale(0.015625)"/>
       <path d="M 603 3500 
L 1178 3500 
L 1178 0 
L 603 0 
L 603 3500 
z
M 603 4863 
L 1178 4863 
L 1178 4134 
L 603 4134 
L 603 4863 
z
" id="DejaVuSans-69" transform="scale(0.015625)"/>
       <path d="M 3513 2113 
L 3513 0 
L 2938 0 
L 2938 2094 
Q 2938 2591 2744 2837 
Q 2550 3084 2163 3084 
Q 1697 3084 1428 2787 
Q 1159 2491 1159 1978 
L 1159 0 
L 581 0 
L 581 3500 
L 1159 3500 
L 1159 2956 
Q 1366 3272 1645 3428 
Q 1925 3584 2291 3584 
Q 2894 3584 3203 3211 
Q 3513 2838 3513 2113 
z
" id="DejaVuSans-6e" transform="scale(0.015625)"/>
       <path id="DejaVuSans-20" transform="scale(0.015625)"/>
       <path d="M 603 4863 
L 1178 4863 
L 1178 0 
L 603 0 
L 603 4863 
z
" id="DejaVuSans-6c" transform="scale(0.015625)"/>
       <path d="M 2834 3397 
L 2834 2853 
Q 2591 2978 2328 3040 
Q 2066 3103 1784 3103 
Q 1356 3103 1142 2972 
Q 928 2841 928 2578 
Q 928 2378 1081 2264 
Q 1234 2150 1697 2047 
L 1894 2003 
Q 2506 1872 2764 1633 
Q 3022 1394 3022 966 
Q 3022 478 2636 193 
Q 2250 -91 1575 -91 
Q 1294 -91 989 -36 
Q 684 19 347 128 
L 347 722 
Q 666 556 975 473 
Q 1284 391 1588 391 
Q 1994 391 2212 530 
Q 2431 669 2431 922 
Q 2431 1156 2273 1281 
Q 2116 1406 1581 1522 
L 1381 1569 
Q 847 1681 609 1914 
Q 372 2147 372 2553 
Q 372 3047 722 3315 
Q 1072 3584 1716 3584 
Q 2034 3584 2315 3537 
Q 2597 3491 2834 3397 
z
" id="DejaVuSans-73" transform="scale(0.015625)"/>
      </defs>
      <use xlink:href="#DejaVuSans-54"/>
      <use x="46.333984" xlink:href="#DejaVuSans-72"/>
      <use x="87.447266" xlink:href="#DejaVuSans-61"/>
      <use x="148.726562" xlink:href="#DejaVuSans-69"/>
      <use x="176.509766" xlink:href="#DejaVuSans-6e"/>
      <use x="239.888672" xlink:href="#DejaVuSans-20"/>
      <use x="271.675781" xlink:href="#DejaVuSans-6c"/>
      <use x="299.458984" xlink:href="#DejaVuSans-6f"/>
      <use x="360.640625" xlink:href="#DejaVuSans-73"/>
      <use x="412.740234" xlink:href="#DejaVuSans-73"/>
     </g>
    </g>
    <g id="line2d_18">
     <path d="M 186.2225 69.248562 
L 206.2225 69.248562 
" style="fill:none;stroke:#ff7f0e;stroke-linecap:square;stroke-width:1.5;"/>
    </g>
    <g id="line2d_19"/>
    <g id="text_16">
     <!-- Validation loss -->
     <g transform="translate(214.2225 72.748562)scale(0.1 -0.1)">
      <defs>
       <path d="M 1831 0 
L 50 4666 
L 709 4666 
L 2188 738 
L 3669 4666 
L 4325 4666 
L 2547 0 
L 1831 0 
z
" id="DejaVuSans-56" transform="scale(0.015625)"/>
       <path d="M 2906 2969 
L 2906 4863 
L 3481 4863 
L 3481 0 
L 2906 0 
L 2906 525 
Q 2725 213 2448 61 
Q 2172 -91 1784 -91 
Q 1150 -91 751 415 
Q 353 922 353 1747 
Q 353 2572 751 3078 
Q 1150 3584 1784 3584 
Q 2172 3584 2448 3432 
Q 2725 3281 2906 2969 
z
M 947 1747 
Q 947 1113 1208 752 
Q 1469 391 1925 391 
Q 2381 391 2643 752 
Q 2906 1113 2906 1747 
Q 2906 2381 2643 2742 
Q 2381 3103 1925 3103 
Q 1469 3103 1208 2742 
Q 947 2381 947 1747 
z
" id="DejaVuSans-64" transform="scale(0.015625)"/>
       <path d="M 1172 4494 
L 1172 3500 
L 2356 3500 
L 2356 3053 
L 1172 3053 
L 1172 1153 
Q 1172 725 1289 603 
Q 1406 481 1766 481 
L 2356 481 
L 2356 0 
L 1766 0 
Q 1100 0 847 248 
Q 594 497 594 1153 
L 594 3053 
L 172 3053 
L 172 3500 
L 594 3500 
L 594 4494 
L 1172 4494 
z
" id="DejaVuSans-74" transform="scale(0.015625)"/>
      </defs>
      <use xlink:href="#DejaVuSans-56"/>
      <use x="60.658203" xlink:href="#DejaVuSans-61"/>
      <use x="121.9375" xlink:href="#DejaVuSans-6c"/>
      <use x="149.720703" xlink:href="#DejaVuSans-69"/>
      <use x="177.503906" xlink:href="#DejaVuSans-64"/>
      <use x="240.980469" xlink:href="#DejaVuSans-61"/>
      <use x="302.259766" xlink:href="#DejaVuSans-74"/>
      <use x="341.46875" xlink:href="#DejaVuSans-69"/>
      <use x="369.251953" xlink:href="#DejaVuSans-6f"/>
      <use x="430.433594" xlink:href="#DejaVuSans-6e"/>
      <use x="493.8125" xlink:href="#DejaVuSans-20"/>
      <use x="525.599609" xlink:href="#DejaVuSans-6c"/>
      <use x="553.382812" xlink:href="#DejaVuSans-6f"/>
      <use x="614.564453" xlink:href="#DejaVuSans-73"/>
      <use x="666.664062" xlink:href="#DejaVuSans-73"/>
     </g>
    </g>
   </g>
  </g>
 </g>
 <defs>
  <clipPath id="p9d7423a758">
   <rect height="266.112" width="357.12" x="57.6" y="41.472"/>
  </clipPath>
 </defs>
</svg>
