<?xml version="1.0" encoding="utf-8" standalone="no"?>
<!DOCTYPE svg PUBLIC "-//W3C//DTD SVG 1.1//EN"
  "http://www.w3.org/Graphics/SVG/1.1/DTD/svg11.dtd">
<svg height="345.6pt" version="1.1" viewBox="0 0 460.8 345.6" width="460.8pt" xmlns="http://www.w3.org/2000/svg" xmlns:xlink="http://www.w3.org/1999/xlink">
 <metadata>
  <rdf:RDF xmlns:cc="http://creativecommons.org/ns#" xmlns:dc="http://purl.org/dc/elements/1.1/" xmlns:rdf="http://www.w3.org/1999/02/22-rdf-syntax-ns#">
   <cc:Work>
    <dc:type rdf:resource="http://purl.org/dc/dcmitype/StillImage"/>
    <dc:date>2021-07-20T21:04:38.040169</dc:date>
    <dc:format>image/svg+xml</dc:format>
    <dc:creator>
     <cc:Agent>
      <dc:title>Matplotlib v3.4.2, https://matplotlib.org/</dc:title>
     </cc:Agent>
    </dc:creator>
   </cc:Work>
  </rdf:RDF>
 </metadata>
 <defs>
  <style type="text/css">*{stroke-linecap:butt;stroke-linejoin:round;}</style>
 </defs>
 <g id="figure_1">
  <g id="patch_1">
   <path d="M 0 345.6 
L 460.8 345.6 
L 460.8 0 
L 0 0 
z
" style="fill:#ffffff;"/>
  </g>
  <g id="axes_1">
   <g id="patch_2">
    <path d="M 57.6 307.584 
L 414.72 307.584 
L 414.72 41.472 
L 57.6 41.472 
z
" style="fill:#ffffff;"/>
   </g>
   <g id="matplotlib.axis_1">
    <g id="xtick_1">
     <g id="line2d_1">
      <defs>
       <path d="M 0 0 
L 0 3.5 
" id="m22ea634998" style="stroke:#000000;stroke-width:0.8;"/>
      </defs>
      <g>
       <use style="stroke:#000000;stroke-width:0.8;" x="73.629691" xlink:href="#m22ea634998" y="307.584"/>
      </g>
     </g>
     <g id="text_1">
      <!-- 0 -->
      <g transform="translate(70.448441 322.182437)scale(0.1 -0.1)">
       <defs>
        <path d="M 2034 4250 
Q 1547 4250 1301 3770 
Q 1056 3291 1056 2328 
Q 1056 1369 1301 889 
Q 1547 409 2034 409 
Q 2525 409 2770 889 
Q 3016 1369 3016 2328 
Q 3016 3291 2770 3770 
Q 2525 4250 2034 4250 
z
M 2034 4750 
Q 2819 4750 3233 4129 
Q 3647 3509 3647 2328 
Q 3647 1150 3233 529 
Q 2819 -91 2034 -91 
Q 1250 -91 836 529 
Q 422 1150 422 2328 
Q 422 3509 836 4129 
Q 1250 4750 2034 4750 
z
" id="DejaVuSans-30" transform="scale(0.015625)"/>
       </defs>
       <use xlink:href="#DejaVuSans-30"/>
      </g>
     </g>
    </g>
    <g id="xtick_2">
     <g id="line2d_2">
      <g>
       <use style="stroke:#000000;stroke-width:0.8;" x="114.236889" xlink:href="#m22ea634998" y="307.584"/>
      </g>
     </g>
     <g id="text_2">
      <!-- 200 -->
      <g transform="translate(104.693139 322.182437)scale(0.1 -0.1)">
       <defs>
        <path d="M 1228 531 
L 3431 531 
L 3431 0 
L 469 0 
L 469 531 
Q 828 903 1448 1529 
Q 2069 2156 2228 2338 
Q 2531 2678 2651 2914 
Q 2772 3150 2772 3378 
Q 2772 3750 2511 3984 
Q 2250 4219 1831 4219 
Q 1534 4219 1204 4116 
Q 875 4013 500 3803 
L 500 4441 
Q 881 4594 1212 4672 
Q 1544 4750 1819 4750 
Q 2544 4750 2975 4387 
Q 3406 4025 3406 3419 
Q 3406 3131 3298 2873 
Q 3191 2616 2906 2266 
Q 2828 2175 2409 1742 
Q 1991 1309 1228 531 
z
" id="DejaVuSans-32" transform="scale(0.015625)"/>
       </defs>
       <use xlink:href="#DejaVuSans-32"/>
       <use x="63.623047" xlink:href="#DejaVuSans-30"/>
       <use x="127.246094" xlink:href="#DejaVuSans-30"/>
      </g>
     </g>
    </g>
    <g id="xtick_3">
     <g id="line2d_3">
      <g>
       <use style="stroke:#000000;stroke-width:0.8;" x="154.844087" xlink:href="#m22ea634998" y="307.584"/>
      </g>
     </g>
     <g id="text_3">
      <!-- 400 -->
      <g transform="translate(145.300337 322.182437)scale(0.1 -0.1)">
       <defs>
        <path d="M 2419 4116 
L 825 1625 
L 2419 1625 
L 2419 4116 
z
M 2253 4666 
L 3047 4666 
L 3047 1625 
L 3713 1625 
L 3713 1100 
L 3047 1100 
L 3047 0 
L 2419 0 
L 2419 1100 
L 313 1100 
L 313 1709 
L 2253 4666 
z
" id="DejaVuSans-34" transform="scale(0.015625)"/>
       </defs>
       <use xlink:href="#DejaVuSans-34"/>
       <use x="63.623047" xlink:href="#DejaVuSans-30"/>
       <use x="127.246094" xlink:href="#DejaVuSans-30"/>
      </g>
     </g>
    </g>
    <g id="xtick_4">
     <g id="line2d_4">
      <g>
       <use style="stroke:#000000;stroke-width:0.8;" x="195.451284" xlink:href="#m22ea634998" y="307.584"/>
      </g>
     </g>
     <g id="text_4">
      <!-- 600 -->
      <g transform="translate(185.907534 322.182437)scale(0.1 -0.1)">
       <defs>
        <path d="M 2113 2584 
Q 1688 2584 1439 2293 
Q 1191 2003 1191 1497 
Q 1191 994 1439 701 
Q 1688 409 2113 409 
Q 2538 409 2786 701 
Q 3034 994 3034 1497 
Q 3034 2003 2786 2293 
Q 2538 2584 2113 2584 
z
M 3366 4563 
L 3366 3988 
Q 3128 4100 2886 4159 
Q 2644 4219 2406 4219 
Q 1781 4219 1451 3797 
Q 1122 3375 1075 2522 
Q 1259 2794 1537 2939 
Q 1816 3084 2150 3084 
Q 2853 3084 3261 2657 
Q 3669 2231 3669 1497 
Q 3669 778 3244 343 
Q 2819 -91 2113 -91 
Q 1303 -91 875 529 
Q 447 1150 447 2328 
Q 447 3434 972 4092 
Q 1497 4750 2381 4750 
Q 2619 4750 2861 4703 
Q 3103 4656 3366 4563 
z
" id="DejaVuSans-36" transform="scale(0.015625)"/>
       </defs>
       <use xlink:href="#DejaVuSans-36"/>
       <use x="63.623047" xlink:href="#DejaVuSans-30"/>
       <use x="127.246094" xlink:href="#DejaVuSans-30"/>
      </g>
     </g>
    </g>
    <g id="xtick_5">
     <g id="line2d_5">
      <g>
       <use style="stroke:#000000;stroke-width:0.8;" x="236.058482" xlink:href="#m22ea634998" y="307.584"/>
      </g>
     </g>
     <g id="text_5">
      <!-- 800 -->
      <g transform="translate(226.514732 322.182437)scale(0.1 -0.1)">
       <defs>
        <path d="M 2034 2216 
Q 1584 2216 1326 1975 
Q 1069 1734 1069 1313 
Q 1069 891 1326 650 
Q 1584 409 2034 409 
Q 2484 409 2743 651 
Q 3003 894 3003 1313 
Q 3003 1734 2745 1975 
Q 2488 2216 2034 2216 
z
M 1403 2484 
Q 997 2584 770 2862 
Q 544 3141 544 3541 
Q 544 4100 942 4425 
Q 1341 4750 2034 4750 
Q 2731 4750 3128 4425 
Q 3525 4100 3525 3541 
Q 3525 3141 3298 2862 
Q 3072 2584 2669 2484 
Q 3125 2378 3379 2068 
Q 3634 1759 3634 1313 
Q 3634 634 3220 271 
Q 2806 -91 2034 -91 
Q 1263 -91 848 271 
Q 434 634 434 1313 
Q 434 1759 690 2068 
Q 947 2378 1403 2484 
z
M 1172 3481 
Q 1172 3119 1398 2916 
Q 1625 2713 2034 2713 
Q 2441 2713 2670 2916 
Q 2900 3119 2900 3481 
Q 2900 3844 2670 4047 
Q 2441 4250 2034 4250 
Q 1625 4250 1398 4047 
Q 1172 3844 1172 3481 
z
" id="DejaVuSans-38" transform="scale(0.015625)"/>
       </defs>
       <use xlink:href="#DejaVuSans-38"/>
       <use x="63.623047" xlink:href="#DejaVuSans-30"/>
       <use x="127.246094" xlink:href="#DejaVuSans-30"/>
      </g>
     </g>
    </g>
    <g id="xtick_6">
     <g id="line2d_6">
      <g>
       <use style="stroke:#000000;stroke-width:0.8;" x="276.66568" xlink:href="#m22ea634998" y="307.584"/>
      </g>
     </g>
     <g id="text_6">
      <!-- 1000 -->
      <g transform="translate(263.94068 322.182437)scale(0.1 -0.1)">
       <defs>
        <path d="M 794 531 
L 1825 531 
L 1825 4091 
L 703 3866 
L 703 4441 
L 1819 4666 
L 2450 4666 
L 2450 531 
L 3481 531 
L 3481 0 
L 794 0 
L 794 531 
z
" id="DejaVuSans-31" transform="scale(0.015625)"/>
       </defs>
       <use xlink:href="#DejaVuSans-31"/>
       <use x="63.623047" xlink:href="#DejaVuSans-30"/>
       <use x="127.246094" xlink:href="#DejaVuSans-30"/>
       <use x="190.869141" xlink:href="#DejaVuSans-30"/>
      </g>
     </g>
    </g>
    <g id="xtick_7">
     <g id="line2d_7">
      <g>
       <use style="stroke:#000000;stroke-width:0.8;" x="317.272877" xlink:href="#m22ea634998" y="307.584"/>
      </g>
     </g>
     <g id="text_7">
      <!-- 1200 -->
      <g transform="translate(304.547877 322.182437)scale(0.1 -0.1)">
       <use xlink:href="#DejaVuSans-31"/>
       <use x="63.623047" xlink:href="#DejaVuSans-32"/>
       <use x="127.246094" xlink:href="#DejaVuSans-30"/>
       <use x="190.869141" xlink:href="#DejaVuSans-30"/>
      </g>
     </g>
    </g>
    <g id="xtick_8">
     <g id="line2d_8">
      <g>
       <use style="stroke:#000000;stroke-width:0.8;" x="357.880075" xlink:href="#m22ea634998" y="307.584"/>
      </g>
     </g>
     <g id="text_8">
      <!-- 1400 -->
      <g transform="translate(345.155075 322.182437)scale(0.1 -0.1)">
       <use xlink:href="#DejaVuSans-31"/>
       <use x="63.623047" xlink:href="#DejaVuSans-34"/>
       <use x="127.246094" xlink:href="#DejaVuSans-30"/>
       <use x="190.869141" xlink:href="#DejaVuSans-30"/>
      </g>
     </g>
    </g>
    <g id="xtick_9">
     <g id="line2d_9">
      <g>
       <use style="stroke:#000000;stroke-width:0.8;" x="398.487273" xlink:href="#m22ea634998" y="307.584"/>
      </g>
     </g>
     <g id="text_9">
      <!-- 1600 -->
      <g transform="translate(385.762273 322.182437)scale(0.1 -0.1)">
       <use xlink:href="#DejaVuSans-31"/>
       <use x="63.623047" xlink:href="#DejaVuSans-36"/>
       <use x="127.246094" xlink:href="#DejaVuSans-30"/>
       <use x="190.869141" xlink:href="#DejaVuSans-30"/>
      </g>
     </g>
    </g>
    <g id="text_10">
     <!-- Epoch -->
     <g transform="translate(213.193594 339.659781)scale(0.15 -0.15)">
      <defs>
       <path d="M 628 4666 
L 3578 4666 
L 3578 4134 
L 1259 4134 
L 1259 2753 
L 3481 2753 
L 3481 2222 
L 1259 2222 
L 1259 531 
L 3634 531 
L 3634 0 
L 628 0 
L 628 4666 
z
" id="DejaVuSans-45" transform="scale(0.015625)"/>
       <path d="M 1159 525 
L 1159 -1331 
L 581 -1331 
L 581 3500 
L 1159 3500 
L 1159 2969 
Q 1341 3281 1617 3432 
Q 1894 3584 2278 3584 
Q 2916 3584 3314 3078 
Q 3713 2572 3713 1747 
Q 3713 922 3314 415 
Q 2916 -91 2278 -91 
Q 1894 -91 1617 61 
Q 1341 213 1159 525 
z
M 3116 1747 
Q 3116 2381 2855 2742 
Q 2594 3103 2138 3103 
Q 1681 3103 1420 2742 
Q 1159 2381 1159 1747 
Q 1159 1113 1420 752 
Q 1681 391 2138 391 
Q 2594 391 2855 752 
Q 3116 1113 3116 1747 
z
" id="DejaVuSans-70" transform="scale(0.015625)"/>
       <path d="M 1959 3097 
Q 1497 3097 1228 2736 
Q 959 2375 959 1747 
Q 959 1119 1226 758 
Q 1494 397 1959 397 
Q 2419 397 2687 759 
Q 2956 1122 2956 1747 
Q 2956 2369 2687 2733 
Q 2419 3097 1959 3097 
z
M 1959 3584 
Q 2709 3584 3137 3096 
Q 3566 2609 3566 1747 
Q 3566 888 3137 398 
Q 2709 -91 1959 -91 
Q 1206 -91 779 398 
Q 353 888 353 1747 
Q 353 2609 779 3096 
Q 1206 3584 1959 3584 
z
" id="DejaVuSans-6f" transform="scale(0.015625)"/>
       <path d="M 3122 3366 
L 3122 2828 
Q 2878 2963 2633 3030 
Q 2388 3097 2138 3097 
Q 1578 3097 1268 2742 
Q 959 2388 959 1747 
Q 959 1106 1268 751 
Q 1578 397 2138 397 
Q 2388 397 2633 464 
Q 2878 531 3122 666 
L 3122 134 
Q 2881 22 2623 -34 
Q 2366 -91 2075 -91 
Q 1284 -91 818 406 
Q 353 903 353 1747 
Q 353 2603 823 3093 
Q 1294 3584 2113 3584 
Q 2378 3584 2631 3529 
Q 2884 3475 3122 3366 
z
" id="DejaVuSans-63" transform="scale(0.015625)"/>
       <path d="M 3513 2113 
L 3513 0 
L 2938 0 
L 2938 2094 
Q 2938 2591 2744 2837 
Q 2550 3084 2163 3084 
Q 1697 3084 1428 2787 
Q 1159 2491 1159 1978 
L 1159 0 
L 581 0 
L 581 4863 
L 1159 4863 
L 1159 2956 
Q 1366 3272 1645 3428 
Q 1925 3584 2291 3584 
Q 2894 3584 3203 3211 
Q 3513 2838 3513 2113 
z
" id="DejaVuSans-68" transform="scale(0.015625)"/>
      </defs>
      <use xlink:href="#DejaVuSans-45"/>
      <use x="63.183594" xlink:href="#DejaVuSans-70"/>
      <use x="126.660156" xlink:href="#DejaVuSans-6f"/>
      <use x="187.841797" xlink:href="#DejaVuSans-63"/>
      <use x="242.822266" xlink:href="#DejaVuSans-68"/>
     </g>
    </g>
   </g>
   <g id="matplotlib.axis_2">
    <g id="ytick_1">
     <g id="line2d_10">
      <defs>
       <path d="M 0 0 
L -3.5 0 
" id="m5b47a6ec92" style="stroke:#000000;stroke-width:0.8;"/>
      </defs>
      <g>
       <use style="stroke:#000000;stroke-width:0.8;" x="57.6" xlink:href="#m5b47a6ec92" y="266.266815"/>
      </g>
     </g>
     <g id="text_11">
      <!-- −1000 -->
      <g transform="translate(16.770313 270.066034)scale(0.1 -0.1)">
       <defs>
        <path d="M 678 2272 
L 4684 2272 
L 4684 1741 
L 678 1741 
L 678 2272 
z
" id="DejaVuSans-2212" transform="scale(0.015625)"/>
       </defs>
       <use xlink:href="#DejaVuSans-2212"/>
       <use x="83.789062" xlink:href="#DejaVuSans-31"/>
       <use x="147.412109" xlink:href="#DejaVuSans-30"/>
       <use x="211.035156" xlink:href="#DejaVuSans-30"/>
       <use x="274.658203" xlink:href="#DejaVuSans-30"/>
      </g>
     </g>
    </g>
    <g id="ytick_2">
     <g id="line2d_11">
      <g>
       <use style="stroke:#000000;stroke-width:0.8;" x="57.6" xlink:href="#m5b47a6ec92" y="219.319142"/>
      </g>
     </g>
     <g id="text_12">
      <!-- −800 -->
      <g transform="translate(23.132812 223.118361)scale(0.1 -0.1)">
       <use xlink:href="#DejaVuSans-2212"/>
       <use x="83.789062" xlink:href="#DejaVuSans-38"/>
       <use x="147.412109" xlink:href="#DejaVuSans-30"/>
       <use x="211.035156" xlink:href="#DejaVuSans-30"/>
      </g>
     </g>
    </g>
    <g id="ytick_3">
     <g id="line2d_12">
      <g>
       <use style="stroke:#000000;stroke-width:0.8;" x="57.6" xlink:href="#m5b47a6ec92" y="172.371469"/>
      </g>
     </g>
     <g id="text_13">
      <!-- −600 -->
      <g transform="translate(23.132812 176.170688)scale(0.1 -0.1)">
       <use xlink:href="#DejaVuSans-2212"/>
       <use x="83.789062" xlink:href="#DejaVuSans-36"/>
       <use x="147.412109" xlink:href="#DejaVuSans-30"/>
       <use x="211.035156" xlink:href="#DejaVuSans-30"/>
      </g>
     </g>
    </g>
    <g id="ytick_4">
     <g id="line2d_13">
      <g>
       <use style="stroke:#000000;stroke-width:0.8;" x="57.6" xlink:href="#m5b47a6ec92" y="125.423796"/>
      </g>
     </g>
     <g id="text_14">
      <!-- −400 -->
      <g transform="translate(23.132812 129.223015)scale(0.1 -0.1)">
       <use xlink:href="#DejaVuSans-2212"/>
       <use x="83.789062" xlink:href="#DejaVuSans-34"/>
       <use x="147.412109" xlink:href="#DejaVuSans-30"/>
       <use x="211.035156" xlink:href="#DejaVuSans-30"/>
      </g>
     </g>
    </g>
    <g id="ytick_5">
     <g id="line2d_14">
      <g>
       <use style="stroke:#000000;stroke-width:0.8;" x="57.6" xlink:href="#m5b47a6ec92" y="78.476123"/>
      </g>
     </g>
     <g id="text_15">
      <!-- −200 -->
      <g transform="translate(23.132812 82.275342)scale(0.1 -0.1)">
       <use xlink:href="#DejaVuSans-2212"/>
       <use x="83.789062" xlink:href="#DejaVuSans-32"/>
       <use x="147.412109" xlink:href="#DejaVuSans-30"/>
       <use x="211.035156" xlink:href="#DejaVuSans-30"/>
      </g>
     </g>
    </g>
   </g>
   <g id="line2d_15">
    <path clip-path="url(#paefdd70b94)" d="M 73.832727 56.947148 
L 74.035763 96.483978 
L 74.441835 124.186357 
L 74.644871 118.590716 
L 74.847907 140.468169 
L 75.050943 137.587392 
L 75.253979 143.514941 
L 75.457015 125.984615 
L 75.660051 157.201283 
L 75.863087 162.189194 
L 76.066123 159.708722 
L 76.269159 154.672079 
L 76.472195 174.971337 
L 76.675231 169.360361 
L 76.878267 157.766152 
L 77.081303 180.698367 
L 77.690411 189.290803 
L 77.893447 188.820606 
L 78.096483 185.613349 
L 78.299519 186.348901 
L 78.502555 184.308817 
L 79.111663 210.048178 
L 79.314699 193.641169 
L 79.720771 204.985148 
L 79.923807 195.411909 
L 80.126843 178.320737 
L 80.329879 203.708256 
L 80.532915 205.711775 
L 80.735951 210.683864 
L 80.938987 207.440923 
L 81.142023 207.955958 
L 81.345059 218.126402 
L 81.548095 218.348578 
L 81.751131 203.354068 
L 82.157203 216.622331 
L 82.360239 218.153518 
L 82.563275 214.240398 
L 82.766311 201.04823 
L 82.969347 214.280433 
L 83.172383 220.085812 
L 83.375419 218.057688 
L 83.578455 223.065748 
L 83.781491 212.507973 
L 83.984527 216.829255 
L 84.187563 208.522176 
L 84.390599 226.556215 
L 84.593635 218.095709 
L 84.796671 216.132762 
L 84.999707 223.946325 
L 85.202743 222.650878 
L 85.405779 223.23024 
L 85.608815 221.950373 
L 86.014887 230.186349 
L 86.420959 214.588241 
L 86.623995 231.721796 
L 86.827031 223.846157 
L 87.030067 230.653369 
L 87.233103 215.467091 
L 87.436138 234.521461 
L 87.639174 220.262371 
L 87.84221 232.995291 
L 88.045246 222.597472 
L 88.248282 221.506471 
L 88.451318 221.221903 
L 88.654354 224.193457 
L 88.85739 233.675033 
L 89.060426 229.831662 
L 89.466498 229.898458 
L 89.669534 227.692354 
L 89.87257 226.791207 
L 90.075606 227.325108 
L 90.278642 229.797592 
L 90.481678 241.051412 
L 90.88775 220.130016 
L 91.293822 236.039141 
L 91.496858 231.878456 
L 91.699894 235.319623 
L 91.90293 224.400255 
L 92.105966 227.317798 
L 92.309002 241.472541 
L 92.512038 228.383009 
L 92.715074 242.274707 
L 92.91811 242.432787 
L 93.121146 224.677028 
L 93.324182 227.299639 
L 93.527218 236.242953 
L 93.730254 239.999721 
L 93.93329 238.642615 
L 94.339362 228.597701 
L 94.542398 229.888835 
L 94.745434 238.535044 
L 94.94847 234.664738 
L 95.151506 233.992854 
L 95.354542 227.833414 
L 95.557578 248.111778 
L 95.760614 245.151785 
L 95.96365 240.307238 
L 96.166686 225.944829 
L 96.369722 241.193934 
L 96.572758 235.01848 
L 96.775794 236.140328 
L 96.97883 241.275345 
L 97.181866 242.425474 
L 97.384902 242.779362 
L 97.790974 221.444435 
L 97.99401 236.829907 
L 98.197046 243.648765 
L 98.400082 221.753534 
L 99.00919 244.349054 
L 99.212226 246.259515 
L 99.415262 239.187848 
L 99.618298 239.15918 
L 99.821334 232.144701 
L 100.02437 240.067099 
L 100.227406 237.606193 
L 100.430442 231.818491 
L 100.633478 249.949111 
L 100.836514 238.79996 
L 101.03955 234.552904 
L 101.445622 237.611579 
L 101.648658 249.065029 
L 101.851694 245.087675 
L 102.05473 224.848809 
L 102.257766 237.549608 
L 102.460802 228.802753 
L 102.663838 245.475814 
L 102.866874 242.617854 
L 103.06991 252.416096 
L 103.272946 243.312735 
L 103.475982 246.59003 
L 103.882054 236.723789 
L 104.08509 254.694999 
L 104.491162 240.748577 
L 104.694198 247.59665 
L 104.897233 249.254132 
L 105.100269 242.296552 
L 105.303305 248.781756 
L 105.506341 244.702905 
L 105.709377 243.243014 
L 105.912413 251.964951 
L 106.318485 234.002571 
L 106.521521 237.053337 
L 106.927593 250.98507 
L 107.130629 240.297641 
L 107.333665 243.696567 
L 107.536701 239.31647 
L 107.739737 242.132134 
L 107.942773 254.419238 
L 108.145809 249.125536 
L 108.348845 247.636862 
L 108.551881 237.492024 
L 108.754917 243.391689 
L 108.957953 245.789965 
L 109.364025 242.845834 
L 109.567061 238.761468 
L 109.770097 246.321271 
L 109.973133 249.742407 
L 110.176169 246.001278 
L 110.379205 237.169789 
L 110.582241 239.406099 
L 110.785277 251.925826 
L 110.988313 247.885349 
L 111.191349 249.550708 
L 111.597421 245.862011 
L 111.800457 247.282969 
L 112.003493 245.833597 
L 112.206529 246.793461 
L 112.409565 251.746546 
L 112.612601 245.769381 
L 112.815637 248.971326 
L 113.018673 256.314076 
L 113.424745 236.5551 
L 113.627781 253.52083 
L 113.830817 244.657172 
L 114.033853 241.658956 
L 114.439925 241.309738 
L 114.642961 246.329463 
L 114.845997 237.195169 
L 115.049033 240.672681 
L 115.252069 240.783865 
L 115.455105 241.616583 
L 115.658141 250.673839 
L 115.861177 245.248709 
L 116.064213 244.428553 
L 116.267249 239.012831 
L 116.470285 248.910399 
L 116.673321 247.885511 
L 116.876357 245.430084 
L 117.079393 257.694842 
L 117.282429 246.935962 
L 117.485465 259.249297 
L 117.688501 243.348384 
L 117.891537 253.975347 
L 118.297609 247.074236 
L 118.500645 247.680547 
L 118.906717 250.689282 
L 119.109753 252.202165 
L 119.515825 239.098393 
L 119.718861 249.562382 
L 119.921897 250.895958 
L 120.124933 246.708904 
L 120.327969 252.938633 
L 120.531005 247.997961 
L 120.937077 264.628242 
L 121.343149 244.367259 
L 121.546185 244.696522 
L 121.749221 250.560453 
L 121.952257 243.191751 
L 122.155293 242.918916 
L 122.358329 249.881211 
L 122.561364 244.678216 
L 122.967436 256.071829 
L 123.170472 248.682081 
L 123.373508 254.61595 
L 123.576544 251.64639 
L 123.77958 257.666524 
L 123.982616 257.919699 
L 124.388688 246.029455 
L 124.591724 258.466325 
L 124.79476 239.064189 
L 124.997796 262.3484 
L 125.200832 258.859742 
L 125.403868 264.355796 
L 125.606904 258.061544 
L 125.80994 256.123351 
L 126.012976 257.230868 
L 126.216012 256.796079 
L 126.419048 257.68448 
L 126.622084 255.819108 
L 126.82512 250.588506 
L 127.028156 241.331398 
L 127.231192 249.458531 
L 127.8403 255.599325 
L 128.043336 246.132094 
L 128.246372 256.046383 
L 128.449408 247.504438 
L 128.85548 263.998866 
L 129.261552 245.794645 
L 129.464588 256.244282 
L 129.667624 251.674532 
L 129.87066 253.562262 
L 130.276732 249.673731 
L 130.479768 256.874179 
L 130.682804 256.638822 
L 130.88584 254.437488 
L 131.088876 259.767814 
L 131.291912 256.659138 
L 131.697984 259.078024 
L 131.90102 260.512346 
L 132.104056 264.822349 
L 132.307092 259.90875 
L 132.510128 246.946009 
L 132.713164 249.623499 
L 132.9162 263.674592 
L 133.119236 250.3002 
L 133.322272 257.584466 
L 133.525308 257.710806 
L 133.728344 249.77943 
L 133.93138 253.639613 
L 134.134416 267.304531 
L 134.337452 241.697027 
L 134.540488 255.3 
L 134.743524 255.912548 
L 134.94656 260.027787 
L 135.149596 247.576202 
L 135.352632 269.342645 
L 135.555668 255.275491 
L 135.758704 249.908911 
L 135.96174 259.151587 
L 136.164776 260.515731 
L 136.367812 258.14443 
L 136.570848 247.315813 
L 136.773884 264.475893 
L 136.97692 261.381446 
L 137.179956 251.80672 
L 137.382992 251.964501 
L 137.789064 266.116368 
L 137.9921 249.638611 
L 138.195136 259.351737 
L 138.398172 241.712656 
L 138.601208 241.439159 
L 138.804244 254.040751 
L 139.00728 251.773875 
L 139.210316 260.171945 
L 139.413352 258.721396 
L 139.616388 254.534253 
L 139.819424 255.395568 
L 140.022459 255.764251 
L 140.225495 249.948971 
L 140.428531 250.308953 
L 140.631567 264.905942 
L 140.834603 254.743168 
L 141.037639 271.970453 
L 141.240675 258.223391 
L 141.443711 256.855191 
L 141.646747 257.05284 
L 141.849783 262.442965 
L 142.052819 255.47862 
L 142.255855 259.746028 
L 142.458891 254.532944 
L 142.661927 264.962644 
L 142.864963 259.222436 
L 143.067999 260.888047 
L 143.271035 261.252774 
L 143.474071 270.498677 
L 143.677107 252.122438 
L 143.880143 259.580109 
L 144.083179 262.059517 
L 144.286215 276.350277 
L 144.489251 259.849363 
L 144.692287 259.457342 
L 144.895323 266.687406 
L 145.098359 266.705948 
L 145.301395 250.889588 
L 145.504431 266.188179 
L 145.707467 265.862192 
L 145.910503 278.364786 
L 146.113539 257.923902 
L 146.519611 267.740641 
L 146.722647 254.936075 
L 146.925683 272.434842 
L 147.128719 263.206367 
L 147.331755 266.135898 
L 147.534791 265.118544 
L 147.737827 273.498958 
L 147.940863 259.15063 
L 148.143899 268.606217 
L 148.346935 256.18218 
L 148.549971 273.593703 
L 148.753007 263.779921 
L 148.956043 262.633409 
L 149.159079 267.631279 
L 149.362115 256.493514 
L 149.565151 257.543926 
L 149.768187 264.557156 
L 149.971223 262.23586 
L 150.174259 256.441815 
L 150.377295 256.712159 
L 150.580331 261.588918 
L 150.783367 260.92326 
L 150.986403 267.297765 
L 151.189439 265.463836 
L 151.392475 260.590208 
L 151.595511 258.611546 
L 151.798547 264.248379 
L 152.001583 273.359186 
L 152.204619 263.835034 
L 152.407655 262.824672 
L 152.610691 265.060991 
L 152.813727 265.662085 
L 153.016763 263.203202 
L 153.219799 267.462366 
L 153.422835 260.747598 
L 153.625871 266.110755 
L 153.828907 253.189683 
L 154.031943 263.095474 
L 154.234979 265.407316 
L 154.438015 264.580776 
L 154.641051 278.90735 
L 154.844087 258.342354 
L 155.047123 269.989178 
L 155.250159 260.754778 
L 155.453195 274.438909 
L 155.859267 258.831058 
L 156.062303 259.624231 
L 156.265339 266.006542 
L 156.468375 261.468638 
L 156.671411 261.063047 
L 156.874447 255.880684 
L 157.077483 257.333483 
L 157.280519 252.047174 
L 157.483554 269.352776 
L 157.889626 262.706146 
L 158.092662 267.050474 
L 158.295698 249.638753 
L 158.498734 265.52917 
L 158.70177 260.886623 
L 158.904806 266.406196 
L 159.107842 259.044369 
L 159.310878 274.023724 
L 159.513914 276.117105 
L 159.71695 259.020244 
L 159.919986 260.82027 
L 160.123022 270.324546 
L 160.326058 263.799161 
L 160.529094 281.648012 
L 160.935166 264.526863 
L 161.138202 265.520531 
L 161.341238 277.857281 
L 161.544274 261.250956 
L 161.74731 276.226595 
L 161.950346 263.458286 
L 162.153382 271.391504 
L 162.559454 258.895771 
L 162.76249 272.821363 
L 162.965526 265.053262 
L 163.168562 252.791943 
L 163.574634 276.061453 
L 163.77767 271.760286 
L 163.980706 261.359497 
L 164.183742 265.925993 
L 164.386778 285.724861 
L 164.79285 262.400182 
L 164.995886 260.992067 
L 165.401958 282.553785 
L 165.604994 267.010203 
L 165.80803 282.764566 
L 166.214102 252.372369 
L 166.417138 275.201993 
L 166.620174 265.329729 
L 166.82321 268.381304 
L 167.026246 261.824652 
L 167.432318 269.41921 
L 167.635354 262.580036 
L 167.83839 273.71281 
L 168.244462 265.458939 
L 168.447498 268.846138 
L 168.650534 267.108879 
L 168.85357 257.30121 
L 169.056606 258.295169 
L 169.259642 268.719172 
L 169.462678 264.850931 
L 169.665714 263.953048 
L 169.86875 259.65634 
L 170.071786 275.769641 
L 170.274822 268.663364 
L 170.477858 256.863017 
L 170.680894 260.650746 
L 170.88393 279.651875 
L 171.086966 255.749261 
L 171.290002 256.704097 
L 171.493038 266.442683 
L 171.696074 257.504099 
L 172.102146 275.157343 
L 172.305182 271.365151 
L 172.508218 260.756113 
L 172.711254 261.977844 
L 172.91429 271.043923 
L 173.117326 267.205277 
L 173.320362 270.086061 
L 173.92947 264.021467 
L 174.132506 272.038525 
L 174.538578 256.620323 
L 174.741614 267.970982 
L 174.944649 269.368842 
L 175.147685 274.426187 
L 175.350721 255.863339 
L 175.553757 267.36319 
L 175.756793 253.635205 
L 175.959829 258.746275 
L 176.162865 271.04882 
L 176.365901 252.448175 
L 176.568937 264.566393 
L 176.975009 271.622824 
L 177.178045 271.16958 
L 177.381081 261.108604 
L 177.584117 266.836045 
L 177.787153 266.94668 
L 177.990189 269.805921 
L 178.193225 274.946343 
L 178.396261 266.232943 
L 178.599297 266.667067 
L 178.802333 267.710472 
L 179.005369 267.568857 
L 179.208405 258.870794 
L 179.411441 272.800083 
L 179.614477 268.690863 
L 179.817513 276.086703 
L 180.020549 264.321491 
L 180.223585 265.41969 
L 180.426621 259.121145 
L 180.629657 269.13101 
L 180.832693 263.881057 
L 181.035729 269.372143 
L 181.238765 278.021708 
L 181.644837 264.522295 
L 182.050909 277.275713 
L 182.253945 267.27986 
L 182.456981 266.508065 
L 182.660017 257.680589 
L 182.863053 268.479011 
L 183.066089 269.47929 
L 183.269125 265.273548 
L 183.472161 274.21702 
L 183.675197 257.213803 
L 183.878233 262.533333 
L 184.081269 272.821055 
L 184.284305 267.045059 
L 184.487341 279.747486 
L 184.690377 264.142804 
L 184.893413 267.426235 
L 185.096449 273.431704 
L 185.299485 267.610614 
L 185.502521 271.018548 
L 185.705557 264.911986 
L 185.908593 266.60602 
L 186.314665 258.539901 
L 186.517701 256.911087 
L 186.720737 276.928821 
L 186.923773 267.536214 
L 187.126809 276.88151 
L 187.329845 266.115083 
L 187.532881 269.718059 
L 187.735917 263.747882 
L 188.141989 273.389951 
L 188.345025 273.761957 
L 188.548061 267.316359 
L 188.751097 269.074769 
L 188.954133 275.100378 
L 189.157169 253.800825 
L 189.563241 282.989561 
L 189.766277 263.467171 
L 190.172349 270.406492 
L 190.375385 265.924978 
L 190.578421 266.883767 
L 190.781457 269.005183 
L 190.984493 273.466092 
L 191.187529 263.735224 
L 191.390565 273.006641 
L 191.593601 272.155901 
L 191.796637 263.629904 
L 191.999673 263.393275 
L 192.202709 272.3567 
L 192.405744 266.325587 
L 192.60878 267.859838 
L 192.811816 271.785593 
L 193.014852 272.98067 
L 193.217888 263.425247 
L 193.420924 290.159763 
L 193.826996 254.898939 
L 194.030032 273.592883 
L 194.233068 267.996964 
L 194.63914 284.284684 
L 195.045212 266.304413 
L 195.248248 265.743625 
L 195.451284 278.720323 
L 195.857356 264.375319 
L 196.060392 272.77601 
L 196.263428 268.819753 
L 196.466464 273.750502 
L 196.6695 265.677214 
L 196.872536 274.572434 
L 197.075572 265.068305 
L 197.481644 283.251431 
L 197.68468 265.01817 
L 198.090752 276.961614 
L 198.293788 262.601181 
L 198.496824 267.632535 
L 198.69986 279.745493 
L 198.902896 263.195968 
L 199.105932 263.882987 
L 199.308968 282.609347 
L 199.512004 264.616088 
L 199.71504 262.593072 
L 200.121112 277.067569 
L 200.324148 278.271491 
L 200.73022 262.419093 
L 200.933256 267.316143 
L 201.136292 275.529663 
L 201.339328 271.300281 
L 201.542364 273.185082 
L 201.7454 270.178407 
L 201.948436 269.157282 
L 202.354508 260.724244 
L 202.557544 267.581516 
L 202.76058 282.826348 
L 202.963616 266.971061 
L 203.166652 268.732505 
L 203.369688 257.612822 
L 203.572724 258.884397 
L 203.978796 273.568482 
L 204.181832 271.107487 
L 204.384868 265.973758 
L 204.587904 273.395089 
L 204.993976 265.655062 
L 205.197012 266.257225 
L 205.400048 263.693546 
L 205.603084 265.411948 
L 205.80612 275.001875 
L 206.009156 274.765451 
L 206.212192 260.889232 
L 206.415228 270.641179 
L 206.618264 264.134831 
L 206.8213 269.609489 
L 207.024336 258.033953 
L 207.227372 267.680963 
L 207.430408 267.096671 
L 207.633444 259.733492 
L 207.83648 261.565387 
L 208.039516 275.183772 
L 208.242552 270.124042 
L 208.445588 268.243179 
L 208.648624 276.906336 
L 208.85166 256.868821 
L 209.054696 269.286993 
L 209.257732 271.434359 
L 209.460768 267.780116 
L 209.663804 277.551788 
L 209.86684 264.405921 
L 210.069875 268.590796 
L 210.272911 278.500761 
L 210.475947 274.354909 
L 210.678983 253.160749 
L 210.882019 264.578849 
L 211.085055 266.863479 
L 211.288091 276.150516 
L 211.491127 265.935174 
L 211.694163 268.697477 
L 211.897199 258.356324 
L 212.303271 276.320623 
L 212.506307 274.705679 
L 212.709343 274.21825 
L 212.912379 281.840916 
L 213.318451 246.131453 
L 213.521487 259.971559 
L 213.724523 259.27702 
L 213.927559 269.192693 
L 214.130595 265.103899 
L 214.536667 281.30424 
L 214.739703 258.627418 
L 214.942739 267.534624 
L 215.145775 270.476026 
L 215.348811 275.191057 
L 215.551847 259.396647 
L 215.754883 267.091713 
L 215.957919 264.299316 
L 216.160955 268.584489 
L 216.363991 256.294636 
L 216.567027 267.111084 
L 216.770063 270.936305 
L 216.973099 260.249474 
L 217.176135 271.063144 
L 217.379171 270.397459 
L 217.582207 283.357436 
L 217.785243 272.114944 
L 217.988279 271.215516 
L 218.191315 279.912746 
L 218.394351 267.127165 
L 218.597387 271.623863 
L 218.800423 261.761913 
L 219.206495 273.744469 
L 219.409531 264.362403 
L 219.612567 282.078306 
L 219.815603 274.505187 
L 220.018639 272.353321 
L 220.221675 260.869397 
L 220.424711 270.04223 
L 220.627747 272.911288 
L 220.830783 265.839986 
L 221.236855 261.962241 
L 221.439891 279.679884 
L 221.642927 263.083861 
L 221.845963 275.817269 
L 222.048999 273.714957 
L 222.252035 285.122253 
L 222.455071 276.140386 
L 222.658107 273.761334 
L 222.861143 270.030951 
L 223.064179 280.601756 
L 223.267215 273.553333 
L 223.470251 278.539328 
L 223.876323 259.505865 
L 224.485431 283.796952 
L 224.688467 267.231318 
L 224.891503 261.669665 
L 225.297575 282.783033 
L 225.500611 273.69736 
L 225.703647 270.141559 
L 225.906683 269.937654 
L 226.109719 278.404821 
L 226.312755 266.969031 
L 226.515791 279.509748 
L 226.718827 269.670475 
L 226.921863 265.287124 
L 227.327935 275.08706 
L 227.53097 270.603684 
L 227.734006 272.009234 
L 227.937042 267.005912 
L 228.140078 275.4729 
L 228.343114 255.018746 
L 228.54615 266.888299 
L 228.749186 267.150301 
L 228.952222 267.044924 
L 229.155258 268.164928 
L 229.358294 265.021482 
L 229.56133 264.50213 
L 230.170438 277.19871 
L 230.373474 278.958105 
L 230.57651 279.360617 
L 230.779546 274.722346 
L 230.982582 265.425603 
L 231.185618 262.884357 
L 231.388654 267.841588 
L 231.59169 261.611975 
L 231.794726 282.296166 
L 231.997762 264.528454 
L 232.200798 276.864099 
L 232.403834 273.141223 
L 232.60687 264.038328 
L 232.809906 268.458947 
L 233.012942 267.388517 
L 233.215978 276.174067 
L 233.62205 263.311115 
L 233.825086 268.329094 
L 234.231158 270.271776 
L 234.63723 279.397971 
L 234.840266 269.43272 
L 235.043302 277.833402 
L 235.246338 268.584272 
L 235.449374 267.243244 
L 235.65241 261.655069 
L 235.855446 265.427461 
L 236.058482 284.13582 
L 236.261518 262.491507 
L 236.464554 267.024034 
L 236.66759 288.475895 
L 236.870626 267.696514 
L 237.073662 272.127447 
L 237.276698 257.799981 
L 237.479734 275.40081 
L 237.68277 279.446152 
L 237.885806 270.796062 
L 238.088842 269.694276 
L 238.291878 270.273177 
L 238.494914 279.523221 
L 238.69795 268.08525 
L 238.900986 270.805479 
L 239.104022 277.425787 
L 239.307058 275.366772 
L 239.510094 267.057264 
L 239.916166 281.354448 
L 240.119202 277.569026 
L 240.525274 262.678901 
L 240.72831 290.314092 
L 240.931346 273.849604 
L 241.337418 270.048233 
L 241.540454 274.499503 
L 241.946526 268.61797 
L 242.149562 268.805258 
L 242.352598 275.485652 
L 242.555634 266.560346 
L 242.75867 276.229108 
L 242.961706 266.131473 
L 243.367778 276.536753 
L 243.570814 274.588055 
L 243.77385 269.721916 
L 243.976886 280.511426 
L 244.382958 268.193908 
L 244.585994 265.916014 
L 244.78903 265.803292 
L 244.992065 251.400126 
L 245.195101 275.425947 
L 245.398137 266.677169 
L 245.601173 264.675145 
L 245.804209 271.876426 
L 246.007245 266.681366 
L 246.210281 266.820115 
L 246.413317 267.443469 
L 246.616353 280.321807 
L 246.819389 268.325894 
L 247.022425 277.014386 
L 247.225461 259.580547 
L 247.428497 270.351385 
L 247.631533 266.770813 
L 247.834569 270.99314 
L 248.037605 271.735683 
L 248.240641 269.020246 
L 248.443677 273.323974 
L 248.646713 271.486434 
L 248.849749 279.924058 
L 249.052785 268.839758 
L 249.255821 265.019247 
L 249.661893 271.722988 
L 249.864929 264.77168 
L 250.067965 279.383425 
L 250.271001 282.662719 
L 250.474037 265.114804 
L 250.677073 273.161794 
L 250.880109 270.983761 
L 251.083145 266.938046 
L 251.489217 279.034869 
L 251.692253 270.758771 
L 251.895289 271.97471 
L 252.098325 268.107192 
L 252.301361 280.192138 
L 252.504397 252.40474 
L 252.707433 270.170373 
L 252.910469 266.57896 
L 253.113505 266.871757 
L 253.316541 273.218961 
L 253.519577 267.765948 
L 253.722613 269.229063 
L 253.925649 282.938391 
L 254.128685 273.964876 
L 254.331721 274.301559 
L 254.534757 269.758624 
L 254.737793 281.930612 
L 254.940829 274.228896 
L 255.143865 273.416592 
L 255.346901 282.341988 
L 255.549937 271.938062 
L 255.752973 271.311824 
L 255.956009 274.116598 
L 256.159045 266.255978 
L 256.362081 273.715095 
L 256.565117 275.04771 
L 256.768153 264.182884 
L 257.174225 272.712735 
L 257.377261 282.870958 
L 257.580297 270.667539 
L 257.783333 277.216128 
L 257.986369 270.523812 
L 258.189405 270.571839 
L 258.392441 278.401705 
L 258.595477 275.958616 
L 258.798513 281.163368 
L 259.001549 279.442019 
L 259.204585 269.767556 
L 259.610657 280.259025 
L 260.016729 270.939093 
L 260.219765 281.99994 
L 260.422801 267.707276 
L 260.625837 275.344321 
L 260.828873 267.196356 
L 261.031909 277.753063 
L 261.437981 265.641746 
L 261.641017 274.917201 
L 261.844053 271.323495 
L 262.047089 277.922152 
L 262.250125 262.533216 
L 262.45316 265.400716 
L 262.656196 263.265826 
L 262.859232 271.250025 
L 263.062268 283.755426 
L 263.265304 266.524806 
L 263.671376 276.784529 
L 263.874412 268.390458 
L 264.077448 267.215441 
L 264.280484 276.338797 
L 264.48352 267.720163 
L 264.686556 275.624968 
L 264.889592 274.631468 
L 265.092628 282.60473 
L 265.295664 268.217466 
L 265.4987 270.699636 
L 265.701736 264.743397 
L 265.904772 275.198913 
L 266.107808 276.828825 
L 266.310844 258.848303 
L 266.51388 273.538447 
L 266.716916 272.99345 
L 266.919952 271.819444 
L 267.122988 268.482823 
L 267.326024 275.80974 
L 267.52906 272.216077 
L 267.732096 281.250211 
L 267.935132 273.40794 
L 268.138168 274.892523 
L 268.341204 263.422005 
L 268.54424 273.97243 
L 268.747276 268.889449 
L 268.950312 274.688798 
L 269.55942 251.307499 
L 269.762456 267.608299 
L 269.965492 258.156155 
L 270.168528 262.432498 
L 270.371564 276.637468 
L 270.5746 270.33776 
L 270.777636 271.848105 
L 270.980672 277.667206 
L 271.183708 277.478198 
L 271.58978 268.123073 
L 271.792816 258.926003 
L 271.995852 278.072166 
L 272.198888 271.977003 
L 272.401924 281.621295 
L 272.60496 274.129831 
L 272.807996 271.089933 
L 273.011032 276.070642 
L 273.214068 262.900314 
L 273.417104 273.447536 
L 273.62014 258.33846 
L 273.823176 277.775982 
L 274.026212 272.979024 
L 274.229248 286.304061 
L 274.432284 271.946808 
L 274.63532 271.291091 
L 275.041392 265.180116 
L 275.244428 265.595151 
L 275.447464 265.401042 
L 275.853536 270.01605 
L 276.056572 262.880021 
L 276.462644 284.13139 
L 276.66568 270.994036 
L 276.868716 267.342519 
L 277.071752 267.060411 
L 277.274788 267.394105 
L 277.477824 259.457295 
L 277.68086 272.800775 
L 277.883896 269.829337 
L 278.086932 269.07672 
L 278.289968 277.660468 
L 278.493004 278.590136 
L 278.69604 270.080969 
L 279.102112 272.649652 
L 279.305148 279.053273 
L 279.508184 263.646545 
L 279.914256 276.665205 
L 280.117291 265.490881 
L 280.320327 276.906685 
L 280.523363 273.379308 
L 280.929435 282.478614 
L 281.132471 267.634095 
L 281.335507 282.074308 
L 281.538543 277.974934 
L 281.741579 278.176392 
L 281.944615 266.5583 
L 282.147651 262.831828 
L 282.350687 271.460085 
L 282.553723 268.86979 
L 282.959795 259.097459 
L 283.162831 259.965795 
L 283.365867 275.578858 
L 283.568903 264.970379 
L 283.771939 271.559707 
L 283.974975 285.179057 
L 284.178011 267.324454 
L 284.584083 276.296208 
L 284.990155 265.275578 
L 285.193191 266.146034 
L 285.396227 259.89979 
L 285.599263 274.675747 
L 285.802299 276.853529 
L 286.411407 266.427076 
L 286.614443 267.018871 
L 286.817479 279.236972 
L 287.020515 269.990332 
L 287.223551 274.141994 
L 287.426587 266.854621 
L 287.629623 264.983427 
L 287.832659 276.868113 
L 288.035695 264.183516 
L 288.238731 262.23762 
L 288.644803 281.401783 
L 288.847839 266.790347 
L 289.050875 272.875343 
L 289.253911 262.439147 
L 289.456947 286.131505 
L 289.659983 269.795232 
L 289.863019 274.355616 
L 290.066055 268.376476 
L 290.269091 267.466862 
L 290.472127 277.983373 
L 290.675163 272.27148 
L 290.878199 271.029039 
L 291.081235 263.293453 
L 291.284271 294.379903 
L 291.487307 276.150168 
L 291.690343 271.717118 
L 291.893379 282.203158 
L 292.096415 278.261561 
L 292.299451 270.322733 
L 292.502487 279.875683 
L 292.705523 266.12963 
L 293.111595 279.337421 
L 293.517667 263.37487 
L 293.720703 283.509934 
L 293.923739 265.632734 
L 294.126775 277.748744 
L 294.329811 274.220502 
L 294.532847 279.643775 
L 294.735883 261.142627 
L 295.141955 276.675966 
L 295.344991 264.388456 
L 295.548027 275.102046 
L 295.954099 272.88604 
L 296.157135 277.752683 
L 296.360171 263.232098 
L 296.563207 277.663333 
L 296.766243 276.990748 
L 296.969279 264.777253 
L 297.172315 277.932761 
L 297.375351 272.291181 
L 297.578386 279.938787 
L 297.984458 265.373052 
L 298.187494 266.061792 
L 298.39053 277.741089 
L 298.593566 268.288791 
L 298.796602 280.769257 
L 298.999638 273.166069 
L 299.202674 272.883265 
L 299.40571 269.523029 
L 299.608746 280.600305 
L 299.811782 272.804042 
L 300.014818 284.661696 
L 300.217854 264.889929 
L 300.42089 277.843293 
L 300.623926 277.296083 
L 300.826962 279.328349 
L 301.029998 275.463625 
L 301.233034 284.047353 
L 301.639106 266.106943 
L 301.842142 280.535473 
L 302.045178 261.695403 
L 302.248214 262.84645 
L 302.45125 270.951146 
L 302.654286 272.865742 
L 302.857322 269.663455 
L 303.060358 259.746154 
L 303.46643 271.268518 
L 303.669466 256.389943 
L 303.872502 268.886535 
L 304.075538 269.314261 
L 304.278574 275.555303 
L 304.684646 254.842611 
L 304.887682 275.379203 
L 305.090718 267.748283 
L 305.293754 265.924881 
L 305.49679 275.740308 
L 305.699826 270.943121 
L 305.902862 275.681829 
L 306.105898 270.537805 
L 306.51197 280.04683 
L 306.715006 274.55259 
L 306.918042 275.836963 
L 307.121078 274.775891 
L 307.324114 261.477121 
L 307.52715 266.31417 
L 307.730186 281.738171 
L 307.933222 280.365656 
L 308.136258 280.179139 
L 308.339294 271.890007 
L 308.54233 258.651899 
L 308.745366 262.161037 
L 308.948402 263.201207 
L 309.151438 274.432951 
L 309.354474 274.355336 
L 309.55751 265.028289 
L 309.760546 265.717595 
L 309.963582 276.130638 
L 310.166618 269.135101 
L 310.57269 279.799764 
L 310.775726 270.376543 
L 310.978762 272.726144 
L 311.181798 262.732324 
L 311.384834 277.399146 
L 311.58787 267.021895 
L 311.790906 276.802097 
L 311.993942 271.439804 
L 312.196978 274.534067 
L 312.400014 273.091259 
L 312.60305 280.419101 
L 312.806086 275.761142 
L 313.009122 275.741293 
L 313.212158 281.018376 
L 313.821266 257.998639 
L 314.024302 273.254656 
L 314.227338 272.982512 
L 314.430374 279.591755 
L 314.836446 262.307763 
L 315.039481 262.380572 
L 315.242517 276.843036 
L 315.445553 280.212153 
L 315.648589 272.500308 
L 315.851625 276.584451 
L 316.054661 270.480844 
L 316.257697 272.383909 
L 316.460733 266.311703 
L 316.663769 267.472457 
L 316.866805 255.461721 
L 317.069841 270.647573 
L 317.272877 276.669444 
L 317.475913 269.811847 
L 317.678949 267.87832 
L 317.881985 249.323178 
L 318.288057 272.711002 
L 318.491093 275.228505 
L 318.694129 288.524626 
L 318.897165 273.887081 
L 319.100201 274.278325 
L 319.506273 261.215153 
L 319.709309 273.66759 
L 319.912345 277.353186 
L 320.115381 263.851602 
L 320.318417 276.814112 
L 320.521453 266.02817 
L 321.130561 280.696945 
L 321.333597 269.018815 
L 321.536633 270.179963 
L 321.739669 276.737235 
L 321.942705 274.01119 
L 322.348777 264.265624 
L 322.551813 274.25869 
L 322.754849 266.325819 
L 322.957885 284.29272 
L 323.160921 272.607365 
L 323.363957 279.195659 
L 323.566993 273.780469 
L 323.770029 282.294914 
L 323.973065 262.552739 
L 324.176101 269.662229 
L 324.379137 270.622988 
L 324.582173 265.775492 
L 325.191281 275.238373 
L 325.394317 267.427506 
L 325.597353 280.691674 
L 325.800389 274.349948 
L 326.003425 264.033694 
L 326.206461 282.021265 
L 326.409497 268.011025 
L 326.612533 272.100315 
L 326.815569 269.683681 
L 327.018605 264.625674 
L 327.424677 284.916943 
L 327.830749 269.314172 
L 328.033785 270.641093 
L 328.236821 270.116837 
L 328.642893 277.871661 
L 328.845929 268.88014 
L 329.048965 283.486298 
L 329.252001 261.914066 
L 329.455037 269.58317 
L 329.658073 267.754702 
L 329.861109 276.457722 
L 330.064145 267.793645 
L 330.267181 268.091189 
L 330.470217 279.699704 
L 330.876289 263.956324 
L 331.079325 276.134478 
L 331.282361 277.958484 
L 331.485397 274.297254 
L 331.688433 266.736846 
L 331.891469 270.021543 
L 332.094505 263.253858 
L 332.297541 275.608643 
L 332.500576 269.2538 
L 332.703612 269.479408 
L 332.906648 280.539423 
L 333.109684 268.319193 
L 333.31272 276.577635 
L 333.515756 273.965979 
L 333.718792 280.761401 
L 333.921828 267.721674 
L 334.124864 266.515415 
L 334.3279 281.951897 
L 334.530936 264.343396 
L 334.733972 278.092389 
L 334.937008 278.755509 
L 335.140044 282.9924 
L 335.34308 265.130144 
L 335.546116 274.875903 
L 335.749152 264.470351 
L 335.952188 265.295463 
L 336.155224 271.292427 
L 336.35826 266.716536 
L 336.764332 284.503108 
L 336.967368 277.828967 
L 337.170404 278.050941 
L 337.37344 271.258752 
L 337.576476 282.572728 
L 337.779512 280.470296 
L 337.982548 272.015989 
L 338.185584 270.275165 
L 338.38862 270.122738 
L 338.591656 283.454877 
L 338.997728 264.296612 
L 339.200764 286.744233 
L 339.4038 272.936919 
L 339.606836 268.851332 
L 339.809872 278.708984 
L 340.012908 273.677215 
L 340.215944 274.047261 
L 340.622016 266.291614 
L 340.825052 268.264095 
L 341.028088 273.74858 
L 341.231124 272.224945 
L 341.43416 278.616451 
L 341.637196 277.880446 
L 341.840232 263.702381 
L 342.043268 280.309833 
L 342.246304 269.156767 
L 342.44934 273.724215 
L 342.652376 263.680714 
L 343.46452 278.669675 
L 343.667556 280.913417 
L 344.276664 257.993809 
L 344.4797 279.865965 
L 344.682736 277.072272 
L 344.885772 271.995288 
L 345.088808 276.1348 
L 345.291844 258.893212 
L 345.697916 277.875179 
L 345.900952 280.52941 
L 346.307024 262.889921 
L 346.51006 270.45491 
L 346.713096 272.376112 
L 346.916132 281.451351 
L 347.119168 267.861721 
L 347.322204 280.392296 
L 347.52524 283.565208 
L 347.728276 274.148876 
L 347.931312 272.176755 
L 348.337384 255.497315 
L 348.54042 274.849813 
L 348.743456 271.342551 
L 348.946492 270.053172 
L 349.149528 261.833014 
L 349.352564 261.563434 
L 349.5556 256.701882 
L 349.758636 264.038034 
L 349.961671 278.448929 
L 350.164707 277.877966 
L 350.367743 264.279115 
L 350.570779 277.095517 
L 350.773815 273.459056 
L 350.976851 277.504693 
L 351.179887 272.454932 
L 351.382923 255.499744 
L 351.585959 275.846023 
L 351.788995 275.770067 
L 351.992031 282.14775 
L 352.195067 264.773711 
L 352.601139 290.766808 
L 352.804175 261.281146 
L 353.007211 263.006992 
L 353.210247 261.404553 
L 353.413283 267.202721 
L 353.616319 264.321935 
L 353.819355 255.152216 
L 354.022391 273.541321 
L 354.225427 264.434218 
L 354.428463 271.383394 
L 354.631499 283.10698 
L 354.834535 273.638866 
L 355.037571 271.211219 
L 355.240607 275.688755 
L 355.443643 270.47492 
L 355.646679 274.83123 
L 355.849715 259.939382 
L 356.255787 284.403198 
L 356.458823 283.856392 
L 356.864895 275.43825 
L 357.067931 272.375915 
L 357.270967 273.080565 
L 357.474003 281.14866 
L 357.677039 275.529591 
L 357.880075 281.208659 
L 358.083111 282.16657 
L 358.286147 274.519776 
L 358.489183 258.28703 
L 358.692219 279.021515 
L 358.895255 271.755612 
L 359.098291 274.262171 
L 359.301327 286.963712 
L 359.504363 275.793192 
L 359.910435 281.884906 
L 360.113471 272.437925 
L 360.316507 278.483552 
L 360.519543 273.431425 
L 360.722579 273.403215 
L 360.925615 274.982856 
L 361.128651 280.959698 
L 361.534723 271.893486 
L 361.737759 276.158934 
L 362.143831 271.167794 
L 362.346867 272.440282 
L 362.549903 270.042619 
L 362.752939 276.925393 
L 362.955975 277.835367 
L 363.159011 276.321164 
L 363.362047 273.430219 
L 363.565083 276.209492 
L 363.768119 280.609304 
L 363.971155 265.967132 
L 364.174191 279.956465 
L 364.377227 268.798674 
L 364.783299 284.531578 
L 364.986335 273.159953 
L 365.189371 269.137192 
L 365.392407 270.968987 
L 365.798479 272.26818 
L 366.001515 269.80776 
L 366.204551 268.86591 
L 366.407587 273.659728 
L 366.610623 270.679274 
L 366.813659 273.250852 
L 367.219731 266.80229 
L 367.422767 276.604815 
L 367.625802 272.722364 
L 367.828838 266.159554 
L 368.031874 270.86363 
L 368.23491 269.020142 
L 368.437946 252.251016 
L 368.640982 273.910357 
L 368.844018 267.342623 
L 369.047054 282.352166 
L 369.453126 264.244443 
L 369.656162 272.077416 
L 369.859198 267.001291 
L 370.062234 284.39093 
L 370.468306 267.915267 
L 370.671342 264.810656 
L 370.874378 264.956176 
L 371.077414 262.629859 
L 371.28045 276.910089 
L 371.483486 266.855038 
L 371.686522 275.798181 
L 372.092594 260.213645 
L 372.498666 255.893476 
L 372.701702 287.264092 
L 372.904738 278.48054 
L 373.107774 280.089122 
L 373.31081 271.914156 
L 373.716882 286.374238 
L 373.919918 286.338231 
L 374.32599 273.35767 
L 374.529026 273.258981 
L 374.732062 277.036227 
L 374.935098 261.120526 
L 375.138134 268.692438 
L 375.34117 267.581413 
L 375.544206 283.60318 
L 375.747242 277.377023 
L 375.950278 276.820692 
L 376.153314 279.590694 
L 376.559386 277.762868 
L 376.762422 270.569989 
L 376.965458 273.451087 
L 377.168494 274.117926 
L 377.37153 260.757974 
L 377.574566 284.127282 
L 377.777602 267.808669 
L 377.980638 269.993615 
L 378.183674 262.239531 
L 378.38671 273.37969 
L 378.589746 258.569512 
L 378.792782 273.268696 
L 379.198854 282.521679 
L 379.40189 268.865906 
L 379.604926 295.488 
L 379.807962 278.034503 
L 380.214034 270.860461 
L 380.41707 270.867899 
L 380.620106 273.686839 
L 380.823142 272.067882 
L 381.026178 280.195875 
L 381.229214 273.923233 
L 381.43225 273.442009 
L 381.635286 267.473786 
L 381.838322 281.378545 
L 382.244394 262.71418 
L 382.44743 276.824258 
L 382.650466 270.624971 
L 382.853502 278.254559 
L 383.056538 275.891949 
L 383.259574 275.295069 
L 383.46261 281.625024 
L 383.665646 265.863745 
L 383.868682 265.307186 
L 384.071718 270.46884 
L 384.274754 289.949562 
L 384.47779 280.025638 
L 384.680826 278.370084 
L 384.883862 267.82391 
L 385.086897 265.152353 
L 385.289933 277.171738 
L 385.492969 272.684084 
L 385.696005 257.778651 
L 385.899041 267.85851 
L 386.102077 283.860117 
L 386.305113 268.533883 
L 386.508149 269.685382 
L 386.711185 270.12843 
L 386.914221 268.128398 
L 387.117257 256.028242 
L 387.320293 273.443578 
L 387.523329 275.623432 
L 387.726365 263.148049 
L 388.132437 282.243831 
L 388.335473 265.092782 
L 388.538509 264.865647 
L 388.944581 277.265008 
L 389.147617 277.169649 
L 389.350653 284.176893 
L 389.553689 264.887531 
L 389.756725 277.096993 
L 389.959761 269.341224 
L 390.365833 280.763557 
L 390.568869 283.209459 
L 390.771905 273.732343 
L 390.974941 272.398261 
L 391.381013 253.280691 
L 391.584049 266.248149 
L 391.787085 267.014422 
L 391.990121 271.63802 
L 392.193157 279.220909 
L 392.396193 273.070806 
L 392.599229 286.249728 
L 392.802265 285.827889 
L 393.005301 267.036533 
L 393.208337 272.270955 
L 393.411373 268.890475 
L 393.817445 282.992344 
L 394.223517 267.0832 
L 394.426553 272.677182 
L 394.629589 263.988653 
L 394.832625 281.226126 
L 395.035661 271.487002 
L 395.644769 274.914527 
L 395.847805 270.845978 
L 396.050841 271.014721 
L 396.253877 274.733523 
L 396.456913 276.360412 
L 396.659949 270.817351 
L 396.862985 270.97784 
L 397.066021 281.137429 
L 397.269057 280.024996 
L 397.472093 257.394014 
L 397.675129 271.485566 
L 397.878165 270.00578 
L 398.284237 272.657801 
L 398.487273 273.096903 
L 398.487273 273.096903 
" style="fill:none;stroke:#1f77b4;stroke-linecap:square;stroke-width:1.5;"/>
   </g>
   <g id="line2d_16">
    <path clip-path="url(#paefdd70b94)" d="M 73.832727 87.750387 
L 74.035763 118.928212 
L 74.644871 139.974965 
L 74.847907 136.118001 
L 75.050943 144.098123 
L 75.253979 156.618061 
L 75.457015 148.430117 
L 75.863087 164.663757 
L 76.066123 127.097517 
L 76.269159 162.216675 
L 76.675231 183.306772 
L 76.878267 177.22073 
L 77.284339 192.723426 
L 77.487375 197.138515 
L 77.690411 193.386275 
L 77.893447 191.891523 
L 78.096483 200.626116 
L 78.299519 195.08567 
L 78.502555 196.524593 
L 78.705591 199.243262 
L 78.908627 197.820125 
L 79.111663 210.530748 
L 79.314699 196.993624 
L 79.517735 214.15217 
L 79.720771 161.787108 
L 80.126843 206.649662 
L 80.329879 218.415445 
L 80.532915 210.784221 
L 80.735951 209.79924 
L 80.938987 205.274392 
L 81.142023 165.215564 
L 81.345059 213.43578 
L 81.548095 213.688632 
L 81.751131 202.631742 
L 81.954167 218.931182 
L 82.157203 209.450049 
L 82.360239 221.08139 
L 82.563275 217.809878 
L 82.766311 219.247129 
L 82.969347 222.888581 
L 83.172383 214.367229 
L 83.578455 228.602687 
L 83.781491 211.735924 
L 83.984527 227.828492 
L 84.187563 221.583893 
L 84.390599 222.740965 
L 84.593635 220.855133 
L 84.796671 227.504049 
L 84.999707 227.344986 
L 85.202743 224.213293 
L 85.405779 232.591067 
L 85.608815 232.88126 
L 85.811851 222.342814 
L 86.014887 222.542005 
L 86.217923 223.81492 
L 87.030067 234.761813 
L 87.233103 228.396906 
L 87.436138 227.93445 
L 87.639174 216.730276 
L 87.84221 235.548285 
L 88.045246 222.423556 
L 88.248282 225.020798 
L 88.451318 234.904452 
L 88.654354 222.063119 
L 88.85739 230.729689 
L 89.060426 229.824457 
L 89.263462 228.387002 
L 89.466498 241.571588 
L 89.669534 223.770714 
L 89.87257 231.488386 
L 90.075606 224.665538 
L 90.278642 230.472088 
L 90.481678 228.434023 
L 90.684714 230.862087 
L 90.88775 230.088214 
L 91.090786 237.248668 
L 91.293822 237.34332 
L 91.496858 233.004882 
L 91.90293 237.925111 
L 92.105966 228.296183 
L 92.309002 236.857063 
L 92.512038 234.341906 
L 92.715074 228.749408 
L 92.91811 237.777462 
L 93.121146 240.912798 
L 93.324182 228.590714 
L 93.730254 239.947457 
L 93.93329 229.894286 
L 94.136326 234.535515 
L 94.339362 233.472175 
L 94.542398 240.904765 
L 94.745434 239.381452 
L 94.94847 242.572115 
L 95.151506 236.39359 
L 95.557578 246.03914 
L 95.760614 229.075097 
L 95.96365 240.712939 
L 96.166686 243.325276 
L 96.369722 237.218177 
L 96.572758 242.526536 
L 96.97883 232.914903 
L 97.181866 235.315449 
L 97.587938 231.257155 
L 97.790974 232.748809 
L 97.99401 228.17185 
L 98.197046 235.293073 
L 98.400082 238.397825 
L 98.603118 230.716205 
L 99.00919 242.059189 
L 99.415262 235.701897 
L 99.618298 224.03239 
L 99.821334 251.016984 
L 100.02437 235.365732 
L 100.227406 241.911817 
L 100.430442 234.071128 
L 100.633478 242.006166 
L 100.836514 243.475062 
L 101.242586 235.210521 
L 101.445622 244.609823 
L 101.851694 237.805444 
L 102.05473 236.159616 
L 102.460802 242.220809 
L 102.866874 239.758737 
L 103.272946 244.719895 
L 103.475982 239.447975 
L 103.679018 249.982333 
L 103.882054 244.324622 
L 104.08509 244.053988 
L 104.288126 252.596868 
L 104.491162 237.572683 
L 104.694198 239.891009 
L 104.897233 245.403181 
L 105.100269 241.228004 
L 105.303305 244.203355 
L 105.506341 243.959433 
L 105.709377 246.3338 
L 105.912413 236.788568 
L 106.115449 244.237134 
L 106.318485 240.708299 
L 106.521521 243.711332 
L 106.724557 236.64946 
L 106.927593 245.386846 
L 107.130629 248.212812 
L 107.536701 236.387515 
L 107.739737 242.457025 
L 107.942773 252.691305 
L 108.145809 238.594827 
L 108.348845 242.857775 
L 108.551881 239.84865 
L 108.754917 252.445967 
L 109.160989 241.23543 
L 109.364025 233.308394 
L 109.567061 239.446062 
L 109.770097 240.24405 
L 109.973133 237.204392 
L 110.379205 247.352462 
L 110.582241 246.636313 
L 110.785277 251.015812 
L 110.988313 244.224087 
L 111.191349 232.868092 
L 111.394385 244.54586 
L 111.597421 246.733461 
L 111.800457 247.386751 
L 112.003493 240.076653 
L 112.206529 246.760851 
L 112.409565 232.818338 
L 112.612601 248.185059 
L 112.815637 235.911037 
L 113.018673 248.648283 
L 113.424745 235.942745 
L 113.830817 250.835962 
L 114.236889 237.773294 
L 114.439925 250.718639 
L 114.642961 243.059306 
L 114.845997 244.276362 
L 115.049033 244.760956 
L 115.252069 235.997291 
L 115.455105 243.733489 
L 115.658141 234.24774 
L 116.064213 253.905364 
L 116.267249 244.007744 
L 116.470285 242.412807 
L 116.673321 243.630631 
L 116.876357 250.202057 
L 117.079393 244.490193 
L 117.282429 243.915935 
L 117.485465 250.386988 
L 117.688501 251.616413 
L 118.094573 240.248472 
L 118.297609 241.797656 
L 118.500645 253.370079 
L 118.703681 248.597115 
L 118.906717 257.972151 
L 119.109753 249.384135 
L 119.312789 254.89879 
L 119.515825 247.809898 
L 119.718861 250.029597 
L 119.921897 246.128907 
L 120.124933 244.381677 
L 120.327969 251.028904 
L 120.531005 249.872785 
L 120.734041 249.749798 
L 120.937077 253.522146 
L 121.140113 244.754736 
L 121.343149 256.801442 
L 121.749221 245.749231 
L 121.952257 244.11182 
L 122.358329 250.595418 
L 122.561364 246.229178 
L 122.7644 248.681521 
L 122.967436 244.250849 
L 123.170472 250.513228 
L 123.373508 243.775955 
L 123.576544 258.572246 
L 123.77958 253.139657 
L 123.982616 242.71582 
L 124.185652 248.302402 
L 124.388688 242.954777 
L 124.591724 254.932688 
L 124.79476 244.849133 
L 124.997796 259.403073 
L 125.403868 244.236243 
L 125.606904 251.128673 
L 125.80994 251.052752 
L 126.012976 247.711253 
L 126.216012 247.583058 
L 126.419048 257.939558 
L 126.622084 257.019899 
L 126.82512 257.059415 
L 127.028156 252.565971 
L 127.231192 257.168982 
L 127.434228 246.753393 
L 127.637264 244.035274 
L 128.043336 247.619537 
L 128.246372 246.454696 
L 128.449408 257.716654 
L 128.85548 255.156365 
L 129.058516 239.859839 
L 129.261552 256.151146 
L 129.464588 242.558863 
L 129.667624 253.941915 
L 129.87066 253.875546 
L 130.276732 258.210792 
L 130.479768 251.62868 
L 130.682804 253.454929 
L 130.88584 247.093757 
L 131.088876 256.657463 
L 131.291912 251.561968 
L 131.494948 254.134326 
L 131.697984 252.608486 
L 131.90102 253.099982 
L 132.104056 248.357645 
L 132.307092 251.064211 
L 132.510128 249.991599 
L 132.713164 237.235697 
L 132.9162 259.232998 
L 133.119236 249.046256 
L 133.322272 250.305553 
L 133.525308 240.498148 
L 133.728344 254.010987 
L 133.93138 253.454246 
L 134.134416 261.559092 
L 134.743524 250.111678 
L 134.94656 251.223142 
L 135.352632 259.157748 
L 135.555668 242.723837 
L 135.758704 248.284238 
L 135.96174 247.637005 
L 136.164776 248.104769 
L 136.367812 256.905901 
L 136.570848 247.694355 
L 136.97692 254.517265 
L 137.179956 255.856229 
L 137.382992 254.173024 
L 137.586028 265.963779 
L 137.789064 243.947756 
L 137.9921 243.289346 
L 138.195136 257.609329 
L 138.601208 251.228519 
L 138.804244 249.961737 
L 139.00728 261.048422 
L 139.210316 247.305471 
L 139.413352 261.174648 
L 139.616388 255.359749 
L 139.819424 255.164683 
L 140.022459 259.360171 
L 140.225495 254.65694 
L 140.428531 246.738251 
L 140.631567 259.58916 
L 140.834603 256.802697 
L 141.037639 250.50499 
L 141.240675 255.167932 
L 141.646747 251.205876 
L 141.849783 253.925938 
L 142.052819 252.301454 
L 142.255855 260.105585 
L 142.458891 259.035949 
L 142.661927 255.644592 
L 142.864963 258.172901 
L 143.067999 267.562625 
L 143.271035 252.762494 
L 143.880143 257.717302 
L 144.083179 257.251228 
L 144.286215 267.20954 
L 144.692287 252.667879 
L 144.895323 258.592413 
L 145.098359 267.804707 
L 145.301395 259.384102 
L 145.504431 262.477852 
L 145.707467 257.058341 
L 145.910503 259.696234 
L 146.113539 259.032612 
L 146.316575 258.87699 
L 146.519611 258.413979 
L 146.722647 263.06239 
L 147.128719 257.050498 
L 147.331755 268.985712 
L 147.534791 256.211842 
L 147.737827 254.848642 
L 147.940863 257.274348 
L 148.143899 255.723942 
L 148.346935 262.06344 
L 148.549971 258.767788 
L 148.753007 258.715382 
L 148.956043 253.038105 
L 149.159079 260.797911 
L 149.362115 251.738322 
L 149.565151 261.807566 
L 149.768187 261.838117 
L 149.971223 247.792719 
L 150.174259 260.919718 
L 150.377295 257.595426 
L 150.580331 260.39335 
L 150.783367 260.589877 
L 150.986403 264.581738 
L 151.189439 248.76424 
L 151.392475 259.890574 
L 151.595511 257.817604 
L 151.798547 263.890026 
L 152.001583 263.599158 
L 152.204619 266.800242 
L 152.407655 260.272408 
L 152.610691 258.65335 
L 152.813727 263.58764 
L 153.016763 256.020988 
L 153.219799 267.65242 
L 153.625871 257.428758 
L 153.828907 264.131171 
L 154.031943 266.201311 
L 154.234979 266.656986 
L 154.438015 254.370606 
L 154.844087 267.564781 
L 155.047123 246.795665 
L 155.250159 270.216752 
L 155.656231 258.556451 
L 155.859267 259.413258 
L 156.062303 263.070695 
L 156.265339 251.671386 
L 156.671411 268.664238 
L 156.874447 261.672408 
L 157.077483 248.992466 
L 157.280519 256.920861 
L 157.483554 270.273737 
L 157.68659 259.70762 
L 157.889626 266.794271 
L 158.092662 256.09991 
L 158.295698 260.511016 
L 158.498734 254.370285 
L 158.70177 267.836705 
L 158.904806 262.115512 
L 159.513914 254.534846 
L 159.71695 258.428277 
L 159.919986 255.489447 
L 160.123022 254.82422 
L 160.326058 259.273314 
L 160.529094 269.440987 
L 160.73213 258.318761 
L 160.935166 257.028769 
L 161.138202 257.625668 
L 161.341238 260.323282 
L 161.544274 255.617783 
L 161.74731 260.414029 
L 161.950346 261.831966 
L 162.356418 252.192093 
L 162.559454 262.079435 
L 162.76249 256.185709 
L 163.168562 260.378192 
L 163.371598 265.915845 
L 163.574634 257.677542 
L 163.980706 263.304885 
L 164.183742 254.064923 
L 164.386778 257.515241 
L 164.589814 255.7952 
L 164.79285 263.538435 
L 164.995886 258.207271 
L 165.198922 262.440002 
L 165.401958 258.714906 
L 165.604994 262.637088 
L 165.80803 263.230933 
L 166.011066 261.199145 
L 166.214102 261.346535 
L 166.417138 256.3256 
L 166.82321 259.123999 
L 167.026246 265.13517 
L 167.229282 260.538165 
L 167.432318 260.452773 
L 167.635354 265.289948 
L 167.83839 252.087314 
L 168.041426 259.235746 
L 168.244462 259.070742 
L 168.447498 261.285795 
L 168.650534 267.497927 
L 168.85357 257.046469 
L 169.056606 266.451742 
L 169.259642 265.785893 
L 169.462678 262.770192 
L 169.665714 250.793031 
L 169.86875 263.890517 
L 170.071786 263.174305 
L 170.274822 264.874656 
L 170.477858 272.048226 
L 170.680894 262.387438 
L 170.88393 274.141273 
L 171.086966 252.701532 
L 171.290002 257.479597 
L 171.493038 256.212678 
L 171.89911 268.005261 
L 172.102146 250.311085 
L 172.508218 261.845102 
L 172.711254 252.292365 
L 172.91429 264.071993 
L 173.117326 258.21286 
L 173.320362 259.292172 
L 173.523398 259.649742 
L 173.726434 263.525802 
L 173.92947 259.997647 
L 174.132506 266.358397 
L 174.335542 262.315006 
L 174.538578 263.612892 
L 174.741614 258.839063 
L 174.944649 259.32415 
L 175.147685 261.935714 
L 175.350721 263.016274 
L 175.553757 266.089346 
L 175.756793 267.279351 
L 175.959829 260.163066 
L 176.162865 262.155115 
L 176.365901 267.18304 
L 176.568937 259.898732 
L 176.771973 257.019328 
L 176.975009 257.386535 
L 177.178045 254.772767 
L 177.381081 259.741222 
L 177.584117 258.65762 
L 177.787153 267.894681 
L 177.990189 258.488901 
L 178.396261 269.881598 
L 178.599297 250.902382 
L 178.802333 272.779517 
L 179.208405 257.741468 
L 179.411441 259.332102 
L 179.614477 256.769282 
L 179.817513 260.696383 
L 180.020549 258.367652 
L 180.426621 268.00254 
L 180.629657 265.232842 
L 180.832693 269.123906 
L 181.035729 262.586371 
L 181.238765 266.204221 
L 181.441801 250.813905 
L 181.644837 271.005724 
L 181.847873 255.688484 
L 182.050909 267.605493 
L 182.253945 270.223216 
L 182.456981 265.229259 
L 182.660017 265.70797 
L 182.863053 265.478904 
L 183.066089 250.871111 
L 183.472161 263.501193 
L 183.675197 263.466513 
L 183.878233 266.471603 
L 184.081269 256.052013 
L 184.284305 268.913867 
L 184.487341 263.725729 
L 184.690377 262.871443 
L 184.893413 251.499792 
L 185.299485 262.054626 
L 185.502521 260.447248 
L 185.705557 257.865861 
L 185.908593 264.998251 
L 186.111629 259.452163 
L 186.314665 249.780534 
L 186.720737 260.682036 
L 186.923773 265.29539 
L 187.126809 259.952394 
L 187.329845 267.74899 
L 187.532881 263.099394 
L 187.735917 268.4394 
L 187.938953 259.011697 
L 188.141989 262.66363 
L 188.345025 264.220685 
L 188.548061 263.462727 
L 188.751097 269.117579 
L 188.954133 262.872342 
L 189.157169 250.330811 
L 189.360205 264.226256 
L 189.563241 257.892749 
L 189.766277 258.586604 
L 189.969313 263.042731 
L 190.172349 272.709484 
L 190.375385 265.12713 
L 190.578421 267.426059 
L 190.984493 255.601123 
L 191.187529 257.202799 
L 191.390565 266.071366 
L 191.593601 257.161476 
L 191.999673 267.536233 
L 192.405744 259.711517 
L 192.60878 251.678832 
L 193.014852 267.920173 
L 193.217888 265.695228 
L 193.420924 268.69672 
L 193.62396 252.197468 
L 193.826996 259.003805 
L 194.030032 260.806822 
L 194.233068 260.635289 
L 194.436104 260.15225 
L 194.63914 268.76209 
L 194.842176 250.912312 
L 195.248248 263.643555 
L 195.451284 254.326085 
L 195.65432 264.793844 
L 195.857356 252.796651 
L 196.060392 266.356912 
L 196.466464 255.731334 
L 196.6695 265.854311 
L 196.872536 266.095473 
L 197.075572 263.694013 
L 197.278608 264.717904 
L 197.481644 263.453146 
L 197.68468 263.348085 
L 197.887716 260.263646 
L 198.090752 260.13353 
L 198.293788 254.415848 
L 198.496824 268.268244 
L 198.902896 256.05835 
L 199.105932 256.666221 
L 199.308968 261.851876 
L 199.512004 263.229264 
L 199.71504 271.945243 
L 200.121112 263.789773 
L 200.324148 270.967645 
L 200.527184 258.600614 
L 200.73022 269.718975 
L 200.933256 254.050611 
L 201.136292 265.356035 
L 201.339328 263.336231 
L 201.542364 256.878456 
L 201.7454 256.332781 
L 201.948436 263.895698 
L 202.151472 257.64394 
L 202.354508 266.676092 
L 202.557544 269.334779 
L 202.76058 256.255367 
L 202.963616 265.264745 
L 203.166652 232.477051 
L 203.369688 261.671727 
L 203.572724 267.615065 
L 203.77576 260.27676 
L 203.978796 262.927034 
L 204.181832 261.519725 
L 204.384868 262.690863 
L 204.587904 258.67119 
L 204.79094 267.978111 
L 204.993976 258.952625 
L 205.197012 259.399103 
L 205.400048 267.391578 
L 205.603084 265.912238 
L 205.80612 256.661901 
L 206.009156 254.043486 
L 206.415228 267.472072 
L 206.618264 263.197622 
L 206.8213 250.776384 
L 207.227372 258.352263 
L 207.430408 268.675345 
L 207.633444 258.443391 
L 207.83648 268.505056 
L 208.039516 261.883315 
L 208.242552 266.527132 
L 208.445588 256.536534 
L 208.648624 264.585986 
L 209.460768 260.543014 
L 209.86684 263.270684 
L 210.069875 257.50764 
L 210.272911 263.186648 
L 210.475947 261.406359 
L 210.678983 265.074927 
L 210.882019 266.115318 
L 211.085055 264.11116 
L 211.288091 256.318268 
L 211.491127 258.746891 
L 211.694163 265.460066 
L 211.897199 254.395453 
L 212.100235 254.05184 
L 212.303271 254.823766 
L 212.506307 263.721437 
L 212.709343 264.043789 
L 212.912379 263.540995 
L 213.115415 246.653723 
L 213.318451 247.93064 
L 213.521487 261.693021 
L 213.724523 253.699776 
L 213.927559 258.866614 
L 214.130595 256.421853 
L 214.333631 257.953366 
L 214.536667 251.095776 
L 214.739703 259.159579 
L 214.942739 259.903399 
L 215.145775 261.575951 
L 215.348811 254.146966 
L 215.551847 267.542511 
L 215.754883 251.446212 
L 216.160955 264.270146 
L 216.363991 266.000652 
L 216.567027 262.128801 
L 216.770063 269.947184 
L 216.973099 259.080462 
L 217.176135 259.001166 
L 217.379171 263.777242 
L 217.785243 252.458118 
L 217.988279 255.460739 
L 218.191315 264.502311 
L 218.394351 263.47536 
L 218.597387 272.196922 
L 218.800423 252.048648 
L 219.003459 260.14966 
L 219.206495 256.153388 
L 219.612567 269.31348 
L 219.815603 260.335984 
L 220.018639 261.393008 
L 220.221675 257.28017 
L 220.424711 259.533558 
L 220.627747 266.510886 
L 220.830783 268.541826 
L 221.033819 263.497026 
L 221.236855 264.873685 
L 221.439891 251.39551 
L 221.642927 266.374343 
L 221.845963 269.4587 
L 222.048999 256.41948 
L 222.252035 264.035733 
L 222.455071 262.154531 
L 222.658107 257.211066 
L 222.861143 264.525566 
L 223.064179 263.01587 
L 223.267215 268.161367 
L 223.470251 263.81347 
L 223.673287 268.917626 
L 223.876323 258.773476 
L 224.079359 267.745519 
L 224.282395 264.238954 
L 224.485431 255.412312 
L 224.688467 263.047032 
L 224.891503 257.103683 
L 225.094539 260.210607 
L 225.297575 260.527983 
L 225.500611 265.906265 
L 225.703647 263.951594 
L 225.906683 259.824583 
L 226.109719 260.903753 
L 226.312755 259.895668 
L 226.515791 264.036526 
L 226.718827 251.951794 
L 226.921863 266.256982 
L 227.124899 263.686992 
L 227.327935 268.269646 
L 227.53097 262.930513 
L 227.734006 263.673386 
L 227.937042 256.820169 
L 228.140078 256.655266 
L 228.343114 257.924382 
L 228.54615 264.916454 
L 228.749186 259.150698 
L 228.952222 263.01381 
L 229.155258 260.052607 
L 229.358294 266.30199 
L 229.56133 268.235299 
L 229.764366 262.454759 
L 230.170438 260.839133 
L 230.373474 260.162758 
L 230.57651 264.331912 
L 230.779546 255.876017 
L 230.982582 255.873751 
L 231.185618 256.619362 
L 231.59169 250.341418 
L 231.794726 265.235669 
L 231.997762 256.777748 
L 232.200798 267.19022 
L 232.403834 259.453432 
L 232.60687 260.685671 
L 232.809906 255.592008 
L 233.012942 262.557712 
L 233.215978 259.611788 
L 233.419014 260.06012 
L 233.62205 255.362043 
L 233.825086 270.569457 
L 234.028122 264.225846 
L 234.231158 264.618925 
L 234.434194 266.352442 
L 234.63723 258.213652 
L 234.840266 254.835384 
L 235.043302 258.483372 
L 235.246338 264.408735 
L 235.449374 257.129591 
L 235.65241 266.194948 
L 236.261518 248.173804 
L 236.464554 260.05583 
L 236.66759 251.569303 
L 236.870626 255.657683 
L 237.073662 264.957219 
L 237.276698 260.302159 
L 237.479734 261.922395 
L 237.68277 259.641291 
L 237.885806 265.042111 
L 238.088842 248.196898 
L 238.291878 266.037595 
L 238.494914 263.025994 
L 238.69795 258.308848 
L 238.900986 269.256194 
L 239.104022 269.783563 
L 239.307058 254.026906 
L 239.510094 265.311305 
L 239.71313 260.713794 
L 239.916166 262.006482 
L 240.119202 257.213769 
L 240.322238 260.288956 
L 240.525274 260.145216 
L 240.72831 256.534842 
L 240.931346 256.206616 
L 241.134382 260.051395 
L 241.337418 274.959218 
L 241.540454 270.354823 
L 241.74349 261.745395 
L 242.149562 263.548693 
L 242.352598 255.478303 
L 242.555634 264.762519 
L 242.75867 268.055315 
L 242.961706 262.865021 
L 243.164742 264.46491 
L 243.367778 268.542676 
L 243.570814 263.422974 
L 243.77385 266.274132 
L 243.976886 263.663498 
L 244.179922 262.556932 
L 244.382958 269.901771 
L 244.585994 266.426443 
L 244.78903 254.958967 
L 244.992065 275.55652 
L 245.195101 257.970126 
L 245.398137 255.132754 
L 245.804209 278.700312 
L 246.210281 242.48498 
L 246.413317 266.153296 
L 246.616353 268.810958 
L 246.819389 256.590341 
L 247.022425 254.833426 
L 247.428497 260.996186 
L 247.631533 270.438639 
L 248.037605 261.469239 
L 248.240641 261.18506 
L 248.443677 264.757618 
L 248.646713 255.174978 
L 248.849749 267.834575 
L 249.052785 265.907491 
L 249.255821 266.667169 
L 249.458857 258.314514 
L 249.661893 268.479911 
L 250.067965 259.947524 
L 250.271001 260.901967 
L 250.474037 262.482705 
L 250.677073 265.740414 
L 250.880109 256.568055 
L 251.286181 267.22138 
L 251.489217 263.773468 
L 251.692253 264.00217 
L 251.895289 262.852262 
L 252.098325 271.581405 
L 252.301361 261.4797 
L 252.504397 257.590214 
L 252.910469 276.847043 
L 253.113505 267.828302 
L 253.316541 267.45193 
L 253.519577 250.979223 
L 253.722613 261.793335 
L 253.925649 245.26648 
L 254.128685 265.472674 
L 254.331721 251.843097 
L 254.534757 253.566206 
L 254.737793 261.763305 
L 255.143865 264.634571 
L 255.346901 269.22812 
L 255.549937 253.541052 
L 255.752973 259.901357 
L 255.956009 259.186798 
L 256.159045 264.535008 
L 256.362081 257.548943 
L 256.768153 263.590892 
L 256.971189 275.266544 
L 257.174225 261.73115 
L 257.377261 265.582577 
L 257.580297 260.380757 
L 257.783333 267.623479 
L 257.986369 262.579613 
L 258.189405 267.429928 
L 258.392441 269.098541 
L 258.595477 251.226219 
L 258.798513 265.225034 
L 259.001549 257.717715 
L 259.204585 267.156204 
L 259.610657 261.131696 
L 259.813693 264.41912 
L 260.016729 269.90664 
L 260.219765 260.553201 
L 260.422801 265.551354 
L 260.625837 252.70747 
L 260.828873 228.579214 
L 261.031909 269.574524 
L 261.234945 265.612966 
L 261.437981 258.632357 
L 261.641017 264.593666 
L 261.844053 258.990733 
L 262.047089 257.600667 
L 262.250125 271.834765 
L 262.45316 262.687267 
L 262.859232 264.873046 
L 263.46834 256.327776 
L 263.671376 268.566646 
L 264.077448 260.791584 
L 264.280484 260.847633 
L 264.48352 263.411182 
L 264.686556 273.204836 
L 265.092628 257.563017 
L 265.295664 270.301571 
L 265.4987 251.855382 
L 265.701736 260.319821 
L 265.904772 252.733959 
L 266.107808 254.630037 
L 266.51388 263.789992 
L 266.716916 259.084546 
L 266.919952 263.950191 
L 267.122988 265.963911 
L 267.326024 252.71144 
L 267.52906 265.406426 
L 267.732096 254.716992 
L 268.138168 261.839601 
L 268.341204 263.305423 
L 268.54424 259.746206 
L 268.747276 261.64398 
L 268.950312 257.248711 
L 269.153348 257.151905 
L 269.356384 257.283823 
L 269.55942 260.185838 
L 269.762456 258.56115 
L 269.965492 258.72268 
L 270.371564 272.541238 
L 270.5746 220.635167 
L 270.777636 257.821604 
L 270.980672 242.907203 
L 271.183708 258.176396 
L 271.386744 263.165595 
L 271.58978 254.032853 
L 271.792816 259.892642 
L 271.995852 261.293268 
L 272.401924 268.053001 
L 272.807996 255.113893 
L 273.011032 263.470422 
L 273.214068 257.42966 
L 273.417104 261.21068 
L 273.62014 251.233588 
L 273.823176 270.049305 
L 274.026212 267.858228 
L 274.229248 263.87387 
L 274.432284 255.70813 
L 274.63532 257.282425 
L 274.838356 263.093115 
L 275.041392 263.85422 
L 275.244428 253.790206 
L 275.447464 254.631859 
L 275.6505 248.19486 
L 275.853536 260.911107 
L 276.056572 263.548802 
L 276.259608 258.87953 
L 276.462644 266.123704 
L 276.66568 236.837666 
L 276.868716 271.278902 
L 277.071752 269.76744 
L 277.274788 257.39007 
L 277.477824 265.766126 
L 277.883896 246.725017 
L 278.086932 265.527201 
L 278.289968 248.975182 
L 278.69604 266.534419 
L 278.899076 260.850613 
L 279.102112 260.148572 
L 279.305148 255.4509 
L 279.508184 256.587092 
L 279.71122 259.886951 
L 279.914256 255.375863 
L 280.117291 246.800398 
L 280.320327 262.857823 
L 280.523363 254.719692 
L 280.726399 261.83884 
L 281.132471 255.969508 
L 281.335507 263.504134 
L 281.538543 264.932112 
L 281.741579 255.235649 
L 281.944615 255.390321 
L 282.147651 255.089631 
L 282.350687 268.448862 
L 282.553723 262.910468 
L 282.756759 244.636724 
L 282.959795 260.853114 
L 283.162831 254.974112 
L 283.365867 270.862464 
L 283.568903 255.193087 
L 283.771939 263.655539 
L 283.974975 257.473111 
L 284.178011 257.06841 
L 284.381047 264.394379 
L 284.584083 260.900538 
L 284.787119 270.634328 
L 284.990155 268.659319 
L 285.193191 265.098672 
L 285.396227 266.940274 
L 285.599263 258.041671 
L 285.802299 257.879003 
L 286.005335 266.928574 
L 286.208371 269.7134 
L 286.411407 264.989284 
L 286.614443 268.945325 
L 287.223551 253.75463 
L 287.426587 266.547854 
L 287.629623 250.331363 
L 288.035695 268.718429 
L 288.238731 252.254807 
L 288.441767 267.175775 
L 288.847839 257.540006 
L 289.050875 263.499397 
L 289.253911 260.735268 
L 289.456947 267.324611 
L 289.659983 245.942797 
L 290.066055 265.69457 
L 290.269091 257.337375 
L 290.472127 257.042949 
L 290.675163 268.485426 
L 290.878199 266.983821 
L 291.081235 261.671238 
L 291.284271 261.396524 
L 291.487307 258.161286 
L 291.690343 262.680652 
L 291.893379 264.477511 
L 292.096415 255.124289 
L 292.299451 255.52226 
L 292.502487 263.322461 
L 292.705523 256.818577 
L 292.908559 257.453574 
L 293.314631 268.835407 
L 293.517667 264.440939 
L 293.720703 257.499595 
L 293.923739 255.227525 
L 294.126775 262.417147 
L 294.329811 262.097448 
L 294.532847 252.228791 
L 294.735883 255.967581 
L 294.938919 256.425036 
L 295.141955 258.443271 
L 295.344991 250.144198 
L 295.548027 250.679636 
L 295.751063 256.929087 
L 295.954099 255.438567 
L 296.157135 266.020771 
L 296.360171 260.490067 
L 296.766243 263.665092 
L 296.969279 269.257009 
L 297.375351 260.047291 
L 297.578386 260.013712 
L 297.781422 265.060873 
L 297.984458 262.956728 
L 298.187494 264.224327 
L 298.593566 254.246468 
L 298.796602 253.072863 
L 298.999638 263.21443 
L 299.202674 260.886174 
L 299.40571 263.017724 
L 299.608746 255.223071 
L 300.014818 263.796144 
L 300.217854 255.889077 
L 300.42089 257.820521 
L 300.623926 262.889547 
L 300.826962 265.100833 
L 301.029998 257.767269 
L 301.233034 254.670381 
L 301.43607 248.876335 
L 301.639106 252.950759 
L 301.842142 261.003635 
L 302.045178 256.891432 
L 302.248214 273.619371 
L 302.654286 248.241202 
L 302.857322 264.175619 
L 303.060358 251.273436 
L 303.263394 256.582282 
L 303.46643 257.069409 
L 303.669466 260.879434 
L 303.872502 270.917287 
L 304.075538 259.035746 
L 304.278574 258.663868 
L 304.48161 255.806189 
L 304.684646 257.642519 
L 304.887682 249.765442 
L 305.090718 259.470685 
L 305.293754 261.015267 
L 305.49679 269.749343 
L 305.699826 252.843391 
L 305.902862 260.616639 
L 306.105898 261.015916 
L 306.308934 259.873172 
L 306.51197 249.479164 
L 306.715006 259.464883 
L 306.918042 259.102717 
L 307.121078 262.463011 
L 307.324114 252.144377 
L 307.52715 262.074199 
L 307.730186 252.85655 
L 307.933222 260.76206 
L 308.136258 260.204399 
L 308.339294 260.770642 
L 308.54233 256.138614 
L 308.745366 255.458137 
L 308.948402 256.751309 
L 309.151438 254.460942 
L 309.354474 266.206883 
L 309.55751 265.080071 
L 309.963582 252.945202 
L 310.166618 271.412304 
L 310.369654 263.250021 
L 310.57269 263.625579 
L 310.775726 263.003612 
L 310.978762 257.07375 
L 311.181798 263.578434 
L 311.384834 250.651127 
L 311.58787 251.506888 
L 311.790906 254.841071 
L 311.993942 256.053618 
L 312.196978 253.940323 
L 312.400014 254.746796 
L 312.60305 267.805114 
L 312.806086 250.095794 
L 313.009122 255.31025 
L 313.212158 254.449352 
L 313.415194 265.110756 
L 313.61823 261.632172 
L 313.821266 268.416298 
L 314.024302 261.015947 
L 314.227338 268.285235 
L 314.430374 259.41259 
L 314.63341 256.097981 
L 314.836446 268.55428 
L 315.039481 257.879412 
L 315.242517 253.263468 
L 315.445553 266.182821 
L 315.648589 267.575711 
L 316.257697 254.497563 
L 316.460733 258.523288 
L 316.663769 255.141429 
L 316.866805 254.82168 
L 317.069841 245.42683 
L 317.475913 270.484732 
L 317.881985 250.774933 
L 318.085021 265.762411 
L 318.288057 251.017756 
L 318.491093 258.496076 
L 318.694129 261.874984 
L 318.897165 261.469652 
L 319.100201 255.022579 
L 319.303237 261.096466 
L 319.506273 257.397859 
L 319.709309 251.291577 
L 320.115381 260.881824 
L 320.318417 258.085116 
L 320.521453 261.28008 
L 320.724489 259.547167 
L 320.927525 264.367534 
L 321.130561 260.627012 
L 321.333597 263.040381 
L 321.536633 252.139364 
L 321.739669 256.104037 
L 321.942705 254.486929 
L 322.348777 263.454318 
L 322.551813 264.17445 
L 322.754849 266.658732 
L 322.957885 263.685997 
L 323.160921 263.640874 
L 323.363957 260.188334 
L 323.566993 262.41882 
L 323.770029 248.093057 
L 323.973065 268.127023 
L 324.176101 263.944182 
L 324.379137 256.436258 
L 324.582173 261.846542 
L 324.785209 271.65921 
L 324.988245 257.826411 
L 325.191281 259.287682 
L 325.597353 253.485754 
L 325.800389 272.778449 
L 326.206461 256.660554 
L 326.409497 265.087633 
L 326.612533 265.054811 
L 326.815569 261.005759 
L 327.018605 261.577741 
L 327.221641 254.82541 
L 327.627713 259.466206 
L 327.830749 253.707403 
L 328.236821 264.020978 
L 328.439857 256.757963 
L 328.845929 257.868217 
L 329.048965 270.730395 
L 329.252001 258.081381 
L 329.658073 266.279682 
L 329.861109 257.200207 
L 330.267181 272.56886 
L 330.470217 257.147506 
L 330.673253 202.649281 
L 330.876289 260.014489 
L 331.079325 262.263584 
L 331.485397 259.782067 
L 331.688433 263.952462 
L 331.891469 260.304046 
L 332.094505 264.808712 
L 332.297541 258.854975 
L 332.500576 263.842185 
L 332.703612 263.549202 
L 332.906648 261.330494 
L 333.109684 266.506921 
L 333.31272 264.834593 
L 333.515756 260.582843 
L 333.718792 260.035904 
L 333.921828 248.967859 
L 334.124864 261.554599 
L 334.3279 253.829188 
L 334.733972 258.819163 
L 334.937008 253.043928 
L 335.140044 261.27888 
L 335.34308 274.124302 
L 335.546116 254.149029 
L 335.749152 275.85275 
L 335.952188 256.486438 
L 336.155224 258.362049 
L 336.35826 254.917696 
L 336.561296 256.459894 
L 336.764332 256.558385 
L 336.967368 266.66738 
L 337.170404 263.668615 
L 337.37344 264.147844 
L 337.576476 260.135464 
L 337.779512 259.811196 
L 337.982548 256.364232 
L 338.38862 268.330054 
L 338.591656 260.015886 
L 338.794692 268.473465 
L 338.997728 261.158341 
L 339.200764 268.513477 
L 339.4038 254.603273 
L 339.606836 261.847761 
L 340.012908 254.420513 
L 340.215944 254.203678 
L 340.622016 262.185703 
L 340.825052 260.726322 
L 341.028088 257.767772 
L 341.231124 258.607342 
L 341.43416 257.509104 
L 341.637196 255.153211 
L 341.840232 257.496316 
L 342.043268 265.11178 
L 342.246304 257.953226 
L 342.44934 258.120396 
L 342.652376 254.53536 
L 343.058448 264.823057 
L 343.261484 263.780137 
L 343.46452 251.323691 
L 343.667556 257.451091 
L 343.870592 258.3484 
L 344.073628 260.216032 
L 344.276664 260.9865 
L 344.4797 265.825937 
L 344.885772 254.220021 
L 345.088808 266.639356 
L 345.291844 255.349471 
L 345.49488 255.670417 
L 345.900952 270.552339 
L 346.103988 255.994068 
L 346.51006 264.911372 
L 346.713096 257.350876 
L 346.916132 241.675698 
L 347.322204 268.82943 
L 347.52524 254.025301 
L 347.728276 263.682483 
L 347.931312 258.686991 
L 348.337384 272.167093 
L 348.54042 257.233527 
L 348.743456 263.870322 
L 349.149528 259.135279 
L 349.352564 246.015238 
L 349.5556 258.179039 
L 349.758636 258.559879 
L 349.961671 254.481078 
L 350.367743 268.80172 
L 350.570779 263.579446 
L 350.773815 262.701059 
L 350.976851 272.829124 
L 351.179887 256.544809 
L 351.382923 262.423101 
L 351.585959 258.411048 
L 351.992031 259.766587 
L 352.195067 259.787161 
L 352.398103 260.171393 
L 352.601139 261.873155 
L 352.804175 256.63672 
L 353.007211 264.858325 
L 353.210247 251.935199 
L 353.413283 257.534165 
L 353.616319 53.568 
L 353.819355 250.302595 
L 354.022391 263.353689 
L 354.225427 262.465702 
L 354.428463 265.12313 
L 354.631499 264.356852 
L 354.834535 264.473022 
L 355.037571 265.566227 
L 355.240607 245.187208 
L 355.443643 266.428459 
L 355.646679 243.682654 
L 356.052751 260.691142 
L 356.255787 248.331812 
L 356.458823 253.962171 
L 356.661859 255.352618 
L 356.864895 259.320704 
L 357.067931 254.498074 
L 357.270967 261.841801 
L 357.474003 255.300118 
L 357.677039 266.65321 
L 357.880075 256.993449 
L 358.083111 258.449704 
L 358.286147 255.702489 
L 358.489183 258.466803 
L 358.692219 264.989679 
L 358.895255 264.191596 
L 359.098291 268.280675 
L 359.301327 258.185766 
L 359.504363 256.03182 
L 359.910435 270.209845 
L 360.113471 255.711171 
L 360.316507 260.4364 
L 360.519543 258.318409 
L 360.722579 264.524641 
L 360.925615 265.085411 
L 361.128651 256.979544 
L 361.331687 270.094867 
L 361.534723 262.145932 
L 361.737759 258.751956 
L 361.940795 263.18672 
L 362.143831 252.391786 
L 362.346867 267.159737 
L 362.549903 261.976414 
L 362.752939 262.85242 
L 362.955975 264.582156 
L 363.159011 254.020222 
L 363.565083 261.360329 
L 363.768119 251.886398 
L 363.971155 262.16087 
L 364.174191 262.69976 
L 364.377227 265.289416 
L 364.580263 259.553407 
L 364.783299 258.919869 
L 364.986335 264.768054 
L 365.189371 252.283733 
L 365.392407 259.526424 
L 365.595443 256.952764 
L 365.798479 260.746604 
L 366.001515 259.75704 
L 366.204551 250.627813 
L 366.407587 251.867361 
L 366.610623 249.333744 
L 366.813659 263.334808 
L 367.016695 261.211427 
L 367.219731 267.746946 
L 367.422767 250.607346 
L 367.625802 251.563387 
L 367.828838 263.190378 
L 368.23491 254.935322 
L 368.640982 260.522603 
L 368.844018 252.845564 
L 369.047054 251.847735 
L 369.25009 252.101639 
L 369.453126 272.666205 
L 369.656162 263.142295 
L 369.859198 268.389346 
L 370.062234 257.186021 
L 370.468306 258.160105 
L 370.671342 258.135059 
L 370.874378 257.374172 
L 371.077414 250.933672 
L 371.483486 264.278223 
L 371.686522 259.924015 
L 371.889558 251.794682 
L 372.092594 258.471561 
L 372.29563 251.014853 
L 372.498666 263.529487 
L 372.701702 261.744399 
L 372.904738 263.164519 
L 373.31081 257.379413 
L 373.513846 256.972219 
L 373.716882 265.747484 
L 373.919918 263.494716 
L 374.122954 260.000627 
L 374.32599 265.240455 
L 374.529026 251.483376 
L 374.935098 270.162784 
L 375.138134 258.15919 
L 375.34117 262.644212 
L 375.544206 262.204119 
L 375.747242 259.975017 
L 375.950278 254.601002 
L 376.153314 261.617086 
L 376.35635 255.058097 
L 376.559386 256.868974 
L 376.762422 254.917665 
L 376.965458 256.397005 
L 377.37153 251.700364 
L 377.574566 264.05273 
L 377.777602 259.893704 
L 377.980638 266.300714 
L 378.183674 267.412989 
L 378.589746 250.044018 
L 378.792782 257.219905 
L 378.995818 260.213366 
L 379.198854 259.19549 
L 379.40189 259.108017 
L 380.010998 241.501765 
L 380.214034 258.626573 
L 380.41707 258.873992 
L 380.620106 260.222701 
L 380.823142 255.236108 
L 381.026178 259.821938 
L 381.229214 258.20766 
L 381.43225 263.527904 
L 381.635286 248.444365 
L 381.838322 248.318363 
L 382.041358 261.727432 
L 382.244394 255.762028 
L 382.44743 266.184716 
L 382.853502 255.968238 
L 383.056538 259.495888 
L 383.259574 252.491593 
L 383.46261 267.331672 
L 384.071718 255.358285 
L 384.274754 260.606727 
L 384.47779 260.681358 
L 384.680826 256.852003 
L 384.883862 256.915659 
L 385.086897 261.914838 
L 385.492969 252.010091 
L 385.696005 259.6006 
L 385.899041 255.897431 
L 386.102077 259.012726 
L 386.305113 256.227254 
L 386.508149 257.555811 
L 386.914221 248.277473 
L 387.117257 246.691918 
L 387.320293 262.050687 
L 387.523329 254.994036 
L 387.726365 255.604105 
L 387.929401 261.525895 
L 388.335473 249.2752 
L 388.741545 263.51295 
L 388.944581 262.962158 
L 389.350653 250.064439 
L 389.553689 263.960171 
L 389.756725 259.107851 
L 389.959761 259.399561 
L 390.365833 248.685501 
L 390.568869 258.443487 
L 390.771905 259.847346 
L 390.974941 247.332103 
L 391.177977 250.840851 
L 391.787085 266.231695 
L 391.990121 260.887136 
L 392.193157 248.537436 
L 392.396193 258.486675 
L 392.599229 256.828284 
L 392.802265 258.819566 
L 393.005301 266.324718 
L 393.208337 259.48877 
L 393.411373 259.100006 
L 393.614409 261.258037 
L 393.817445 260.915914 
L 394.020481 259.445681 
L 394.426553 247.621531 
L 395.035661 259.731042 
L 395.238697 259.097281 
L 395.441733 265.174097 
L 395.644769 259.064905 
L 395.847805 257.442418 
L 396.050841 266.949529 
L 396.253877 270.641439 
L 396.456913 258.540235 
L 396.659949 256.292227 
L 396.862985 261.485714 
L 397.066021 244.864339 
L 397.269057 254.342601 
L 397.472093 252.36352 
L 397.675129 257.318724 
L 397.878165 252.605487 
L 398.284237 261.018927 
L 398.487273 250.190189 
L 398.487273 250.190189 
" style="fill:none;stroke:#ff7f0e;stroke-linecap:square;stroke-width:1.5;"/>
   </g>
   <g id="patch_3">
    <path d="M 57.6 307.584 
L 57.6 41.472 
" style="fill:none;stroke:#000000;stroke-linecap:square;stroke-linejoin:miter;stroke-width:0.8;"/>
   </g>
   <g id="patch_4">
    <path d="M 414.72 307.584 
L 414.72 41.472 
" style="fill:none;stroke:#000000;stroke-linecap:square;stroke-linejoin:miter;stroke-width:0.8;"/>
   </g>
   <g id="patch_5">
    <path d="M 57.6 307.584 
L 414.72 307.584 
" style="fill:none;stroke:#000000;stroke-linecap:square;stroke-linejoin:miter;stroke-width:0.8;"/>
   </g>
   <g id="patch_6">
    <path d="M 57.6 41.472 
L 414.72 41.472 
" style="fill:none;stroke:#000000;stroke-linecap:square;stroke-linejoin:miter;stroke-width:0.8;"/>
   </g>
   <g id="legend_1">
    <g id="patch_7">
     <path d="M 184.2225 78.82825 
L 288.0975 78.82825 
Q 290.0975 78.82825 290.0975 76.82825 
L 290.0975 48.472 
Q 290.0975 46.472 288.0975 46.472 
L 184.2225 46.472 
Q 182.2225 46.472 182.2225 48.472 
L 182.2225 76.82825 
Q 182.2225 78.82825 184.2225 78.82825 
z
" style="fill:#ffffff;opacity:0.8;stroke:#cccccc;stroke-linejoin:miter;"/>
    </g>
    <g id="line2d_17">
     <path d="M 186.2225 54.570437 
L 206.2225 54.570437 
" style="fill:none;stroke:#1f77b4;stroke-linecap:square;stroke-width:1.5;"/>
    </g>
    <g id="line2d_18"/>
    <g id="text_16">
     <!-- Train loss -->
     <g transform="translate(214.2225 58.070437)scale(0.1 -0.1)">
      <defs>
       <path d="M -19 4666 
L 3928 4666 
L 3928 4134 
L 2272 4134 
L 2272 0 
L 1638 0 
L 1638 4134 
L -19 4134 
L -19 4666 
z
" id="DejaVuSans-54" transform="scale(0.015625)"/>
       <path d="M 2631 2963 
Q 2534 3019 2420 3045 
Q 2306 3072 2169 3072 
Q 1681 3072 1420 2755 
Q 1159 2438 1159 1844 
L 1159 0 
L 581 0 
L 581 3500 
L 1159 3500 
L 1159 2956 
Q 1341 3275 1631 3429 
Q 1922 3584 2338 3584 
Q 2397 3584 2469 3576 
Q 2541 3569 2628 3553 
L 2631 2963 
z
" id="DejaVuSans-72" transform="scale(0.015625)"/>
       <path d="M 2194 1759 
Q 1497 1759 1228 1600 
Q 959 1441 959 1056 
Q 959 750 1161 570 
Q 1363 391 1709 391 
Q 2188 391 2477 730 
Q 2766 1069 2766 1631 
L 2766 1759 
L 2194 1759 
z
M 3341 1997 
L 3341 0 
L 2766 0 
L 2766 531 
Q 2569 213 2275 61 
Q 1981 -91 1556 -91 
Q 1019 -91 701 211 
Q 384 513 384 1019 
Q 384 1609 779 1909 
Q 1175 2209 1959 2209 
L 2766 2209 
L 2766 2266 
Q 2766 2663 2505 2880 
Q 2244 3097 1772 3097 
Q 1472 3097 1187 3025 
Q 903 2953 641 2809 
L 641 3341 
Q 956 3463 1253 3523 
Q 1550 3584 1831 3584 
Q 2591 3584 2966 3190 
Q 3341 2797 3341 1997 
z
" id="DejaVuSans-61" transform="scale(0.015625)"/>
       <path d="M 603 3500 
L 1178 3500 
L 1178 0 
L 603 0 
L 603 3500 
z
M 603 4863 
L 1178 4863 
L 1178 4134 
L 603 4134 
L 603 4863 
z
" id="DejaVuSans-69" transform="scale(0.015625)"/>
       <path d="M 3513 2113 
L 3513 0 
L 2938 0 
L 2938 2094 
Q 2938 2591 2744 2837 
Q 2550 3084 2163 3084 
Q 1697 3084 1428 2787 
Q 1159 2491 1159 1978 
L 1159 0 
L 581 0 
L 581 3500 
L 1159 3500 
L 1159 2956 
Q 1366 3272 1645 3428 
Q 1925 3584 2291 3584 
Q 2894 3584 3203 3211 
Q 3513 2838 3513 2113 
z
" id="DejaVuSans-6e" transform="scale(0.015625)"/>
       <path id="DejaVuSans-20" transform="scale(0.015625)"/>
       <path d="M 603 4863 
L 1178 4863 
L 1178 0 
L 603 0 
L 603 4863 
z
" id="DejaVuSans-6c" transform="scale(0.015625)"/>
       <path d="M 2834 3397 
L 2834 2853 
Q 2591 2978 2328 3040 
Q 2066 3103 1784 3103 
Q 1356 3103 1142 2972 
Q 928 2841 928 2578 
Q 928 2378 1081 2264 
Q 1234 2150 1697 2047 
L 1894 2003 
Q 2506 1872 2764 1633 
Q 3022 1394 3022 966 
Q 3022 478 2636 193 
Q 2250 -91 1575 -91 
Q 1294 -91 989 -36 
Q 684 19 347 128 
L 347 722 
Q 666 556 975 473 
Q 1284 391 1588 391 
Q 1994 391 2212 530 
Q 2431 669 2431 922 
Q 2431 1156 2273 1281 
Q 2116 1406 1581 1522 
L 1381 1569 
Q 847 1681 609 1914 
Q 372 2147 372 2553 
Q 372 3047 722 3315 
Q 1072 3584 1716 3584 
Q 2034 3584 2315 3537 
Q 2597 3491 2834 3397 
z
" id="DejaVuSans-73" transform="scale(0.015625)"/>
      </defs>
      <use xlink:href="#DejaVuSans-54"/>
      <use x="46.333984" xlink:href="#DejaVuSans-72"/>
      <use x="87.447266" xlink:href="#DejaVuSans-61"/>
      <use x="148.726562" xlink:href="#DejaVuSans-69"/>
      <use x="176.509766" xlink:href="#DejaVuSans-6e"/>
      <use x="239.888672" xlink:href="#DejaVuSans-20"/>
      <use x="271.675781" xlink:href="#DejaVuSans-6c"/>
      <use x="299.458984" xlink:href="#DejaVuSans-6f"/>
      <use x="360.640625" xlink:href="#DejaVuSans-73"/>
      <use x="412.740234" xlink:href="#DejaVuSans-73"/>
     </g>
    </g>
    <g id="line2d_19">
     <path d="M 186.2225 69.248562 
L 206.2225 69.248562 
" style="fill:none;stroke:#ff7f0e;stroke-linecap:square;stroke-width:1.5;"/>
    </g>
    <g id="line2d_20"/>
    <g id="text_17">
     <!-- Validation loss -->
     <g transform="translate(214.2225 72.748562)scale(0.1 -0.1)">
      <defs>
       <path d="M 1831 0 
L 50 4666 
L 709 4666 
L 2188 738 
L 3669 4666 
L 4325 4666 
L 2547 0 
L 1831 0 
z
" id="DejaVuSans-56" transform="scale(0.015625)"/>
       <path d="M 2906 2969 
L 2906 4863 
L 3481 4863 
L 3481 0 
L 2906 0 
L 2906 525 
Q 2725 213 2448 61 
Q 2172 -91 1784 -91 
Q 1150 -91 751 415 
Q 353 922 353 1747 
Q 353 2572 751 3078 
Q 1150 3584 1784 3584 
Q 2172 3584 2448 3432 
Q 2725 3281 2906 2969 
z
M 947 1747 
Q 947 1113 1208 752 
Q 1469 391 1925 391 
Q 2381 391 2643 752 
Q 2906 1113 2906 1747 
Q 2906 2381 2643 2742 
Q 2381 3103 1925 3103 
Q 1469 3103 1208 2742 
Q 947 2381 947 1747 
z
" id="DejaVuSans-64" transform="scale(0.015625)"/>
       <path d="M 1172 4494 
L 1172 3500 
L 2356 3500 
L 2356 3053 
L 1172 3053 
L 1172 1153 
Q 1172 725 1289 603 
Q 1406 481 1766 481 
L 2356 481 
L 2356 0 
L 1766 0 
Q 1100 0 847 248 
Q 594 497 594 1153 
L 594 3053 
L 172 3053 
L 172 3500 
L 594 3500 
L 594 4494 
L 1172 4494 
z
" id="DejaVuSans-74" transform="scale(0.015625)"/>
      </defs>
      <use xlink:href="#DejaVuSans-56"/>
      <use x="60.658203" xlink:href="#DejaVuSans-61"/>
      <use x="121.9375" xlink:href="#DejaVuSans-6c"/>
      <use x="149.720703" xlink:href="#DejaVuSans-69"/>
      <use x="177.503906" xlink:href="#DejaVuSans-64"/>
      <use x="240.980469" xlink:href="#DejaVuSans-61"/>
      <use x="302.259766" xlink:href="#DejaVuSans-74"/>
      <use x="341.46875" xlink:href="#DejaVuSans-69"/>
      <use x="369.251953" xlink:href="#DejaVuSans-6f"/>
      <use x="430.433594" xlink:href="#DejaVuSans-6e"/>
      <use x="493.8125" xlink:href="#DejaVuSans-20"/>
      <use x="525.599609" xlink:href="#DejaVuSans-6c"/>
      <use x="553.382812" xlink:href="#DejaVuSans-6f"/>
      <use x="614.564453" xlink:href="#DejaVuSans-73"/>
      <use x="666.664062" xlink:href="#DejaVuSans-73"/>
     </g>
    </g>
   </g>
  </g>
 </g>
 <defs>
  <clipPath id="paefdd70b94">
   <rect height="266.112" width="357.12" x="57.6" y="41.472"/>
  </clipPath>
 </defs>
</svg>
