<?xml version="1.0" encoding="utf-8" standalone="no"?>
<!DOCTYPE svg PUBLIC "-//W3C//DTD SVG 1.1//EN"
  "http://www.w3.org/Graphics/SVG/1.1/DTD/svg11.dtd">
<svg height="345.6pt" version="1.1" viewBox="0 0 460.8 345.6" width="460.8pt" xmlns="http://www.w3.org/2000/svg" xmlns:xlink="http://www.w3.org/1999/xlink">
 <metadata>
  <rdf:RDF xmlns:cc="http://creativecommons.org/ns#" xmlns:dc="http://purl.org/dc/elements/1.1/" xmlns:rdf="http://www.w3.org/1999/02/22-rdf-syntax-ns#">
   <cc:Work>
    <dc:type rdf:resource="http://purl.org/dc/dcmitype/StillImage"/>
    <dc:date>2021-05-13T22:50:47.818757</dc:date>
    <dc:format>image/svg+xml</dc:format>
    <dc:creator>
     <cc:Agent>
      <dc:title>Matplotlib v3.4.1, https://matplotlib.org/</dc:title>
     </cc:Agent>
    </dc:creator>
   </cc:Work>
  </rdf:RDF>
 </metadata>
 <defs>
  <style type="text/css">*{stroke-linecap:butt;stroke-linejoin:round;}</style>
 </defs>
 <g id="figure_1">
  <g id="patch_1">
   <path d="M 0 345.6 
L 460.8 345.6 
L 460.8 0 
L 0 0 
z
" style="fill:#ffffff;"/>
  </g>
  <g id="axes_1">
   <g id="patch_2">
    <path d="M 57.6 307.584 
L 414.72 307.584 
L 414.72 41.472 
L 57.6 41.472 
z
" style="fill:#ffffff;"/>
   </g>
   <g id="matplotlib.axis_1">
    <g id="xtick_1">
     <g id="line2d_1">
      <defs>
       <path d="M 0 0 
L 0 3.5 
" id="m58f3cc2069" style="stroke:#000000;stroke-width:0.8;"/>
      </defs>
      <g>
       <use style="stroke:#000000;stroke-width:0.8;" x="72.201297" xlink:href="#m58f3cc2069" y="307.584"/>
      </g>
     </g>
     <g id="text_1">
      <!-- 0 -->
      <g transform="translate(69.020047 322.182437)scale(0.1 -0.1)">
       <defs>
        <path d="M 2034 4250 
Q 1547 4250 1301 3770 
Q 1056 3291 1056 2328 
Q 1056 1369 1301 889 
Q 1547 409 2034 409 
Q 2525 409 2770 889 
Q 3016 1369 3016 2328 
Q 3016 3291 2770 3770 
Q 2525 4250 2034 4250 
z
M 2034 4750 
Q 2819 4750 3233 4129 
Q 3647 3509 3647 2328 
Q 3647 1150 3233 529 
Q 2819 -91 2034 -91 
Q 1250 -91 836 529 
Q 422 1150 422 2328 
Q 422 3509 836 4129 
Q 1250 4750 2034 4750 
z
" id="DejaVuSans-30" transform="scale(0.015625)"/>
       </defs>
       <use xlink:href="#DejaVuSans-30"/>
      </g>
     </g>
    </g>
    <g id="xtick_2">
     <g id="line2d_2">
      <g>
       <use style="stroke:#000000;stroke-width:0.8;" x="112.987044" xlink:href="#m58f3cc2069" y="307.584"/>
      </g>
     </g>
     <g id="text_2">
      <!-- 25 -->
      <g transform="translate(106.624544 322.182437)scale(0.1 -0.1)">
       <defs>
        <path d="M 1228 531 
L 3431 531 
L 3431 0 
L 469 0 
L 469 531 
Q 828 903 1448 1529 
Q 2069 2156 2228 2338 
Q 2531 2678 2651 2914 
Q 2772 3150 2772 3378 
Q 2772 3750 2511 3984 
Q 2250 4219 1831 4219 
Q 1534 4219 1204 4116 
Q 875 4013 500 3803 
L 500 4441 
Q 881 4594 1212 4672 
Q 1544 4750 1819 4750 
Q 2544 4750 2975 4387 
Q 3406 4025 3406 3419 
Q 3406 3131 3298 2873 
Q 3191 2616 2906 2266 
Q 2828 2175 2409 1742 
Q 1991 1309 1228 531 
z
" id="DejaVuSans-32" transform="scale(0.015625)"/>
        <path d="M 691 4666 
L 3169 4666 
L 3169 4134 
L 1269 4134 
L 1269 2991 
Q 1406 3038 1543 3061 
Q 1681 3084 1819 3084 
Q 2600 3084 3056 2656 
Q 3513 2228 3513 1497 
Q 3513 744 3044 326 
Q 2575 -91 1722 -91 
Q 1428 -91 1123 -41 
Q 819 9 494 109 
L 494 744 
Q 775 591 1075 516 
Q 1375 441 1709 441 
Q 2250 441 2565 725 
Q 2881 1009 2881 1497 
Q 2881 1984 2565 2268 
Q 2250 2553 1709 2553 
Q 1456 2553 1204 2497 
Q 953 2441 691 2322 
L 691 4666 
z
" id="DejaVuSans-35" transform="scale(0.015625)"/>
       </defs>
       <use xlink:href="#DejaVuSans-32"/>
       <use x="63.623047" xlink:href="#DejaVuSans-35"/>
      </g>
     </g>
    </g>
    <g id="xtick_3">
     <g id="line2d_3">
      <g>
       <use style="stroke:#000000;stroke-width:0.8;" x="153.772791" xlink:href="#m58f3cc2069" y="307.584"/>
      </g>
     </g>
     <g id="text_3">
      <!-- 50 -->
      <g transform="translate(147.410291 322.182437)scale(0.1 -0.1)">
       <use xlink:href="#DejaVuSans-35"/>
       <use x="63.623047" xlink:href="#DejaVuSans-30"/>
      </g>
     </g>
    </g>
    <g id="xtick_4">
     <g id="line2d_4">
      <g>
       <use style="stroke:#000000;stroke-width:0.8;" x="194.558538" xlink:href="#m58f3cc2069" y="307.584"/>
      </g>
     </g>
     <g id="text_4">
      <!-- 75 -->
      <g transform="translate(188.196038 322.182437)scale(0.1 -0.1)">
       <defs>
        <path d="M 525 4666 
L 3525 4666 
L 3525 4397 
L 1831 0 
L 1172 0 
L 2766 4134 
L 525 4134 
L 525 4666 
z
" id="DejaVuSans-37" transform="scale(0.015625)"/>
       </defs>
       <use xlink:href="#DejaVuSans-37"/>
       <use x="63.623047" xlink:href="#DejaVuSans-35"/>
      </g>
     </g>
    </g>
    <g id="xtick_5">
     <g id="line2d_5">
      <g>
       <use style="stroke:#000000;stroke-width:0.8;" x="235.344285" xlink:href="#m58f3cc2069" y="307.584"/>
      </g>
     </g>
     <g id="text_5">
      <!-- 100 -->
      <g transform="translate(225.800535 322.182437)scale(0.1 -0.1)">
       <defs>
        <path d="M 794 531 
L 1825 531 
L 1825 4091 
L 703 3866 
L 703 4441 
L 1819 4666 
L 2450 4666 
L 2450 531 
L 3481 531 
L 3481 0 
L 794 0 
L 794 531 
z
" id="DejaVuSans-31" transform="scale(0.015625)"/>
       </defs>
       <use xlink:href="#DejaVuSans-31"/>
       <use x="63.623047" xlink:href="#DejaVuSans-30"/>
       <use x="127.246094" xlink:href="#DejaVuSans-30"/>
      </g>
     </g>
    </g>
    <g id="xtick_6">
     <g id="line2d_6">
      <g>
       <use style="stroke:#000000;stroke-width:0.8;" x="276.130032" xlink:href="#m58f3cc2069" y="307.584"/>
      </g>
     </g>
     <g id="text_6">
      <!-- 125 -->
      <g transform="translate(266.586282 322.182437)scale(0.1 -0.1)">
       <use xlink:href="#DejaVuSans-31"/>
       <use x="63.623047" xlink:href="#DejaVuSans-32"/>
       <use x="127.246094" xlink:href="#DejaVuSans-35"/>
      </g>
     </g>
    </g>
    <g id="xtick_7">
     <g id="line2d_7">
      <g>
       <use style="stroke:#000000;stroke-width:0.8;" x="316.915779" xlink:href="#m58f3cc2069" y="307.584"/>
      </g>
     </g>
     <g id="text_7">
      <!-- 150 -->
      <g transform="translate(307.372029 322.182437)scale(0.1 -0.1)">
       <use xlink:href="#DejaVuSans-31"/>
       <use x="63.623047" xlink:href="#DejaVuSans-35"/>
       <use x="127.246094" xlink:href="#DejaVuSans-30"/>
      </g>
     </g>
    </g>
    <g id="xtick_8">
     <g id="line2d_8">
      <g>
       <use style="stroke:#000000;stroke-width:0.8;" x="357.701526" xlink:href="#m58f3cc2069" y="307.584"/>
      </g>
     </g>
     <g id="text_8">
      <!-- 175 -->
      <g transform="translate(348.157776 322.182437)scale(0.1 -0.1)">
       <use xlink:href="#DejaVuSans-31"/>
       <use x="63.623047" xlink:href="#DejaVuSans-37"/>
       <use x="127.246094" xlink:href="#DejaVuSans-35"/>
      </g>
     </g>
    </g>
    <g id="xtick_9">
     <g id="line2d_9">
      <g>
       <use style="stroke:#000000;stroke-width:0.8;" x="398.487273" xlink:href="#m58f3cc2069" y="307.584"/>
      </g>
     </g>
     <g id="text_9">
      <!-- 200 -->
      <g transform="translate(388.943523 322.182437)scale(0.1 -0.1)">
       <use xlink:href="#DejaVuSans-32"/>
       <use x="63.623047" xlink:href="#DejaVuSans-30"/>
       <use x="127.246094" xlink:href="#DejaVuSans-30"/>
      </g>
     </g>
    </g>
    <g id="text_10">
     <!-- Epoch -->
     <g transform="translate(213.193594 339.659781)scale(0.15 -0.15)">
      <defs>
       <path d="M 628 4666 
L 3578 4666 
L 3578 4134 
L 1259 4134 
L 1259 2753 
L 3481 2753 
L 3481 2222 
L 1259 2222 
L 1259 531 
L 3634 531 
L 3634 0 
L 628 0 
L 628 4666 
z
" id="DejaVuSans-45" transform="scale(0.015625)"/>
       <path d="M 1159 525 
L 1159 -1331 
L 581 -1331 
L 581 3500 
L 1159 3500 
L 1159 2969 
Q 1341 3281 1617 3432 
Q 1894 3584 2278 3584 
Q 2916 3584 3314 3078 
Q 3713 2572 3713 1747 
Q 3713 922 3314 415 
Q 2916 -91 2278 -91 
Q 1894 -91 1617 61 
Q 1341 213 1159 525 
z
M 3116 1747 
Q 3116 2381 2855 2742 
Q 2594 3103 2138 3103 
Q 1681 3103 1420 2742 
Q 1159 2381 1159 1747 
Q 1159 1113 1420 752 
Q 1681 391 2138 391 
Q 2594 391 2855 752 
Q 3116 1113 3116 1747 
z
" id="DejaVuSans-70" transform="scale(0.015625)"/>
       <path d="M 1959 3097 
Q 1497 3097 1228 2736 
Q 959 2375 959 1747 
Q 959 1119 1226 758 
Q 1494 397 1959 397 
Q 2419 397 2687 759 
Q 2956 1122 2956 1747 
Q 2956 2369 2687 2733 
Q 2419 3097 1959 3097 
z
M 1959 3584 
Q 2709 3584 3137 3096 
Q 3566 2609 3566 1747 
Q 3566 888 3137 398 
Q 2709 -91 1959 -91 
Q 1206 -91 779 398 
Q 353 888 353 1747 
Q 353 2609 779 3096 
Q 1206 3584 1959 3584 
z
" id="DejaVuSans-6f" transform="scale(0.015625)"/>
       <path d="M 3122 3366 
L 3122 2828 
Q 2878 2963 2633 3030 
Q 2388 3097 2138 3097 
Q 1578 3097 1268 2742 
Q 959 2388 959 1747 
Q 959 1106 1268 751 
Q 1578 397 2138 397 
Q 2388 397 2633 464 
Q 2878 531 3122 666 
L 3122 134 
Q 2881 22 2623 -34 
Q 2366 -91 2075 -91 
Q 1284 -91 818 406 
Q 353 903 353 1747 
Q 353 2603 823 3093 
Q 1294 3584 2113 3584 
Q 2378 3584 2631 3529 
Q 2884 3475 3122 3366 
z
" id="DejaVuSans-63" transform="scale(0.015625)"/>
       <path d="M 3513 2113 
L 3513 0 
L 2938 0 
L 2938 2094 
Q 2938 2591 2744 2837 
Q 2550 3084 2163 3084 
Q 1697 3084 1428 2787 
Q 1159 2491 1159 1978 
L 1159 0 
L 581 0 
L 581 4863 
L 1159 4863 
L 1159 2956 
Q 1366 3272 1645 3428 
Q 1925 3584 2291 3584 
Q 2894 3584 3203 3211 
Q 3513 2838 3513 2113 
z
" id="DejaVuSans-68" transform="scale(0.015625)"/>
      </defs>
      <use xlink:href="#DejaVuSans-45"/>
      <use x="63.183594" xlink:href="#DejaVuSans-70"/>
      <use x="126.660156" xlink:href="#DejaVuSans-6f"/>
      <use x="187.841797" xlink:href="#DejaVuSans-63"/>
      <use x="242.822266" xlink:href="#DejaVuSans-68"/>
     </g>
    </g>
   </g>
   <g id="matplotlib.axis_2">
    <g id="ytick_1">
     <g id="line2d_10">
      <defs>
       <path d="M 0 0 
L -3.5 0 
" id="m26da3624b7" style="stroke:#000000;stroke-width:0.8;"/>
      </defs>
      <g>
       <use style="stroke:#000000;stroke-width:0.8;" x="57.6" xlink:href="#m26da3624b7" y="291.589227"/>
      </g>
     </g>
     <g id="text_11">
      <!-- 0.5 -->
      <g transform="translate(34.696875 295.388445)scale(0.1 -0.1)">
       <defs>
        <path d="M 684 794 
L 1344 794 
L 1344 0 
L 684 0 
L 684 794 
z
" id="DejaVuSans-2e" transform="scale(0.015625)"/>
       </defs>
       <use xlink:href="#DejaVuSans-30"/>
       <use x="63.623047" xlink:href="#DejaVuSans-2e"/>
       <use x="95.410156" xlink:href="#DejaVuSans-35"/>
      </g>
     </g>
    </g>
    <g id="ytick_2">
     <g id="line2d_11">
      <g>
       <use style="stroke:#000000;stroke-width:0.8;" x="57.6" xlink:href="#m26da3624b7" y="247.064696"/>
      </g>
     </g>
     <g id="text_12">
      <!-- 1.0 -->
      <g transform="translate(34.696875 250.863915)scale(0.1 -0.1)">
       <use xlink:href="#DejaVuSans-31"/>
       <use x="63.623047" xlink:href="#DejaVuSans-2e"/>
       <use x="95.410156" xlink:href="#DejaVuSans-30"/>
      </g>
     </g>
    </g>
    <g id="ytick_3">
     <g id="line2d_12">
      <g>
       <use style="stroke:#000000;stroke-width:0.8;" x="57.6" xlink:href="#m26da3624b7" y="202.540166"/>
      </g>
     </g>
     <g id="text_13">
      <!-- 1.5 -->
      <g transform="translate(34.696875 206.339385)scale(0.1 -0.1)">
       <use xlink:href="#DejaVuSans-31"/>
       <use x="63.623047" xlink:href="#DejaVuSans-2e"/>
       <use x="95.410156" xlink:href="#DejaVuSans-35"/>
      </g>
     </g>
    </g>
    <g id="ytick_4">
     <g id="line2d_13">
      <g>
       <use style="stroke:#000000;stroke-width:0.8;" x="57.6" xlink:href="#m26da3624b7" y="158.015636"/>
      </g>
     </g>
     <g id="text_14">
      <!-- 2.0 -->
      <g transform="translate(34.696875 161.814854)scale(0.1 -0.1)">
       <use xlink:href="#DejaVuSans-32"/>
       <use x="63.623047" xlink:href="#DejaVuSans-2e"/>
       <use x="95.410156" xlink:href="#DejaVuSans-30"/>
      </g>
     </g>
    </g>
    <g id="ytick_5">
     <g id="line2d_14">
      <g>
       <use style="stroke:#000000;stroke-width:0.8;" x="57.6" xlink:href="#m26da3624b7" y="113.491105"/>
      </g>
     </g>
     <g id="text_15">
      <!-- 2.5 -->
      <g transform="translate(34.696875 117.290324)scale(0.1 -0.1)">
       <use xlink:href="#DejaVuSans-32"/>
       <use x="63.623047" xlink:href="#DejaVuSans-2e"/>
       <use x="95.410156" xlink:href="#DejaVuSans-35"/>
      </g>
     </g>
    </g>
    <g id="ytick_6">
     <g id="line2d_15">
      <g>
       <use style="stroke:#000000;stroke-width:0.8;" x="57.6" xlink:href="#m26da3624b7" y="68.966575"/>
      </g>
     </g>
     <g id="text_16">
      <!-- 3.0 -->
      <g transform="translate(34.696875 72.765794)scale(0.1 -0.1)">
       <defs>
        <path d="M 2597 2516 
Q 3050 2419 3304 2112 
Q 3559 1806 3559 1356 
Q 3559 666 3084 287 
Q 2609 -91 1734 -91 
Q 1441 -91 1130 -33 
Q 819 25 488 141 
L 488 750 
Q 750 597 1062 519 
Q 1375 441 1716 441 
Q 2309 441 2620 675 
Q 2931 909 2931 1356 
Q 2931 1769 2642 2001 
Q 2353 2234 1838 2234 
L 1294 2234 
L 1294 2753 
L 1863 2753 
Q 2328 2753 2575 2939 
Q 2822 3125 2822 3475 
Q 2822 3834 2567 4026 
Q 2313 4219 1838 4219 
Q 1578 4219 1281 4162 
Q 984 4106 628 3988 
L 628 4550 
Q 988 4650 1302 4700 
Q 1616 4750 1894 4750 
Q 2613 4750 3031 4423 
Q 3450 4097 3450 3541 
Q 3450 3153 3228 2886 
Q 3006 2619 2597 2516 
z
" id="DejaVuSans-33" transform="scale(0.015625)"/>
       </defs>
       <use xlink:href="#DejaVuSans-33"/>
       <use x="63.623047" xlink:href="#DejaVuSans-2e"/>
       <use x="95.410156" xlink:href="#DejaVuSans-30"/>
      </g>
     </g>
    </g>
    <g id="text_17">
     <!-- Loss -->
     <g transform="translate(27.577344 190.978781)rotate(-90)scale(0.15 -0.15)">
      <defs>
       <path d="M 628 4666 
L 1259 4666 
L 1259 531 
L 3531 531 
L 3531 0 
L 628 0 
L 628 4666 
z
" id="DejaVuSans-4c" transform="scale(0.015625)"/>
       <path d="M 2834 3397 
L 2834 2853 
Q 2591 2978 2328 3040 
Q 2066 3103 1784 3103 
Q 1356 3103 1142 2972 
Q 928 2841 928 2578 
Q 928 2378 1081 2264 
Q 1234 2150 1697 2047 
L 1894 2003 
Q 2506 1872 2764 1633 
Q 3022 1394 3022 966 
Q 3022 478 2636 193 
Q 2250 -91 1575 -91 
Q 1294 -91 989 -36 
Q 684 19 347 128 
L 347 722 
Q 666 556 975 473 
Q 1284 391 1588 391 
Q 1994 391 2212 530 
Q 2431 669 2431 922 
Q 2431 1156 2273 1281 
Q 2116 1406 1581 1522 
L 1381 1569 
Q 847 1681 609 1914 
Q 372 2147 372 2553 
Q 372 3047 722 3315 
Q 1072 3584 1716 3584 
Q 2034 3584 2315 3537 
Q 2597 3491 2834 3397 
z
" id="DejaVuSans-73" transform="scale(0.015625)"/>
      </defs>
      <use xlink:href="#DejaVuSans-4c"/>
      <use x="53.962891" xlink:href="#DejaVuSans-6f"/>
      <use x="115.144531" xlink:href="#DejaVuSans-73"/>
      <use x="167.244141" xlink:href="#DejaVuSans-73"/>
     </g>
    </g>
   </g>
   <g id="line2d_16">
    <path clip-path="url(#p630983f7d8)" d="M 73.832727 130.59651 
L 75.464157 131.202145 
L 77.095587 130.949932 
L 78.727017 132.75608 
L 80.358447 133.955809 
L 81.989877 136.065667 
L 83.621307 141.093188 
L 85.252736 143.426533 
L 86.884166 141.759468 
L 90.147026 154.616242 
L 91.778456 152.230791 
L 93.409886 161.247459 
L 95.041316 164.746213 
L 96.672746 165.191676 
L 98.304175 159.261749 
L 99.935605 167.108968 
L 101.567035 177.648835 
L 103.198465 163.900595 
L 104.829895 172.378862 
L 106.461325 173.460807 
L 108.092755 167.165384 
L 109.724185 176.655518 
L 111.355614 175.918051 
L 112.987044 158.568341 
L 114.618474 166.458808 
L 116.249904 175.257328 
L 117.881334 180.475571 
L 119.512764 169.296977 
L 121.144194 166.712226 
L 122.775624 172.939343 
L 124.407053 183.502335 
L 126.038483 174.577295 
L 127.669913 175.863328 
L 129.301343 183.542319 
L 130.932773 180.776685 
L 132.564203 157.559276 
L 134.195633 182.774209 
L 135.827063 166.990064 
L 137.458492 168.391201 
L 139.089922 179.414464 
L 140.721352 167.399307 
L 142.352782 167.162799 
L 143.984212 167.734597 
L 145.615642 177.725022 
L 147.247072 170.417881 
L 148.878502 182.751609 
L 150.509931 177.624839 
L 152.141361 182.779475 
L 153.772791 182.691143 
L 155.404221 191.491855 
L 157.035651 184.372725 
L 158.667081 186.996355 
L 160.298511 191.526881 
L 161.929941 201.794461 
L 163.56137 188.360391 
L 165.1928 193.289342 
L 166.82423 185.350665 
L 168.45566 201.578054 
L 170.08709 196.059551 
L 171.71852 188.299999 
L 173.34995 194.026411 
L 174.98138 197.770813 
L 176.61281 189.947765 
L 178.244239 203.295515 
L 179.875669 196.02719 
L 181.507099 195.458588 
L 183.138529 197.210295 
L 184.769959 205.312763 
L 186.401389 209.937836 
L 188.032819 208.486037 
L 189.664249 208.592898 
L 191.295678 213.524041 
L 192.927108 215.768046 
L 194.558538 223.714918 
L 196.189968 215.481816 
L 197.821398 220.437215 
L 199.452828 213.101566 
L 201.084258 222.777444 
L 202.715688 220.763391 
L 204.347117 229.623258 
L 205.978547 233.273888 
L 207.609977 203.405916 
L 209.241407 220.696392 
L 210.872837 219.076773 
L 212.504267 209.991906 
L 214.135697 226.504108 
L 215.767127 233.700609 
L 217.398556 218.994524 
L 219.029986 236.753933 
L 220.661416 216.026846 
L 222.292846 233.314652 
L 223.924276 231.466046 
L 225.555706 241.573345 
L 227.187136 244.758367 
L 228.818566 230.491803 
L 230.449995 246.810774 
L 232.081425 247.027407 
L 233.712855 248.332824 
L 235.344285 238.0277 
L 236.975715 218.436681 
L 238.607145 207.170334 
L 240.238575 188.92316 
L 241.870005 227.910207 
L 243.501434 222.678874 
L 245.132864 239.008673 
L 246.764294 234.214451 
L 248.395724 230.241572 
L 250.027154 233.876449 
L 251.658584 245.768913 
L 253.290014 236.694149 
L 254.921444 236.585348 
L 256.552873 248.416171 
L 258.184303 233.730539 
L 259.815733 248.1107 
L 261.447163 253.22251 
L 263.078593 264.436075 
L 264.710023 252.090763 
L 266.341453 260.465993 
L 267.972883 253.335913 
L 269.604312 273.806525 
L 271.235742 249.159748 
L 272.867172 249.926915 
L 274.498602 237.936635 
L 276.130032 247.619079 
L 277.761462 223.546344 
L 279.392892 232.987366 
L 281.024322 230.67996 
L 282.655751 246.272577 
L 284.287181 257.044124 
L 285.918611 245.579766 
L 287.550041 250.856417 
L 289.181471 243.950331 
L 290.812901 245.520808 
L 292.444331 267.468821 
L 294.075761 256.320998 
L 295.70719 262.916857 
L 297.33862 275.267214 
L 298.97005 250.123023 
L 300.60148 264.271495 
L 302.23291 265.710635 
L 303.86434 261.748584 
L 305.49577 267.395972 
L 307.1272 264.400648 
L 308.75863 267.839019 
L 310.390059 277.862852 
L 312.021489 275.051303 
L 313.652919 282.920709 
L 315.284349 276.43925 
L 316.915779 275.798739 
L 318.547209 272.928949 
L 320.178639 273.965001 
L 321.810069 278.503745 
L 323.441498 280.119351 
L 325.072928 274.533942 
L 326.704358 271.409067 
L 328.335788 284.968798 
L 329.967218 275.97926 
L 331.598648 280.627761 
L 333.230078 257.292465 
L 334.861508 257.096482 
L 336.492937 259.839988 
L 338.124367 276.621314 
L 339.755797 263.810056 
L 341.387227 267.513445 
L 343.018657 274.836435 
L 344.650087 275.181513 
L 346.281517 281.667648 
L 347.912947 280.365514 
L 349.544376 279.40273 
L 351.175806 288.618175 
L 352.807236 276.59444 
L 354.438666 280.543533 
L 356.070096 288.139311 
L 357.701526 263.043781 
L 359.332956 258.018598 
L 360.964386 264.607162 
L 362.595815 239.872969 
L 364.227245 244.993195 
L 365.858675 242.500405 
L 367.490105 222.527699 
L 369.121535 261.952566 
L 370.752965 264.625123 
L 372.384395 266.376658 
L 374.015825 283.046096 
L 375.647254 274.664807 
L 377.278684 286.292552 
L 378.910114 275.67444 
L 380.541544 271.748994 
L 382.172974 286.060501 
L 383.804404 271.762839 
L 385.435834 278.922005 
L 387.067264 291.761988 
L 388.698693 285.478954 
L 390.330123 290.963552 
L 391.961553 289.427473 
L 393.592983 291.834805 
L 395.224413 294.796756 
L 396.855843 285.885471 
L 398.487273 295.488 
L 398.487273 295.488 
" style="fill:none;stroke:#1f77b4;stroke-linecap:square;stroke-width:1.5;"/>
   </g>
   <g id="line2d_17">
    <path clip-path="url(#p630983f7d8)" d="M 73.832727 131.252876 
L 75.464157 131.701889 
L 77.095587 132.435546 
L 78.727017 133.409919 
L 80.358447 134.216632 
L 81.989877 137.099858 
L 83.621307 138.866465 
L 85.252736 137.356987 
L 86.884166 143.245433 
L 88.515596 142.5108 
L 90.147026 150.123454 
L 91.778456 153.119651 
L 93.409886 142.397384 
L 95.041316 150.684291 
L 96.672746 152.517117 
L 98.304175 133.694435 
L 99.935605 152.26105 
L 101.567035 122.713045 
L 103.198465 155.16262 
L 104.829895 134.16606 
L 106.461325 159.586609 
L 108.092755 148.678646 
L 109.724185 129.344553 
L 111.355614 151.301921 
L 112.987044 156.272596 
L 114.618474 147.163626 
L 116.249904 167.88945 
L 117.881334 157.92326 
L 119.512764 140.332377 
L 121.144194 167.57778 
L 122.775624 153.579832 
L 124.407053 148.947408 
L 126.038483 172.43385 
L 127.669913 165.634861 
L 129.301343 145.852488 
L 130.932773 156.625072 
L 132.564203 158.390999 
L 134.195633 139.074719 
L 135.827063 174.900727 
L 137.458492 176.551105 
L 139.089922 118.274757 
L 140.721352 151.935325 
L 142.352782 162.1598 
L 143.984212 164.388381 
L 145.615642 144.7899 
L 147.247072 169.793038 
L 148.878502 176.371852 
L 150.509931 172.94679 
L 152.141361 139.883682 
L 153.772791 152.406907 
L 155.404221 180.39724 
L 157.035651 183.789012 
L 158.667081 167.654848 
L 160.298511 169.370999 
L 161.929941 174.714054 
L 163.56137 164.118791 
L 165.1928 158.401253 
L 166.82423 183.381749 
L 168.45566 170.939276 
L 170.08709 177.000808 
L 171.71852 186.606062 
L 173.34995 178.331585 
L 174.98138 171.74308 
L 176.61281 148.568542 
L 178.244239 175.623991 
L 179.875669 196.865844 
L 181.507099 193.570089 
L 183.138529 171.554921 
L 184.769959 147.720047 
L 186.401389 181.380297 
L 188.032819 193.175024 
L 189.664249 181.99265 
L 191.295678 166.999788 
L 192.927108 168.383409 
L 194.558538 197.837096 
L 196.189968 180.566504 
L 197.821398 171.799703 
L 199.452828 172.155226 
L 201.084258 178.47758 
L 202.715688 168.472537 
L 204.347117 176.77714 
L 205.978547 140.243674 
L 207.609977 166.740845 
L 209.241407 113.904366 
L 210.872837 179.562736 
L 212.504267 178.986242 
L 214.135697 163.742302 
L 215.767127 186.52048 
L 217.398556 187.71988 
L 219.029986 165.469822 
L 220.661416 173.528348 
L 222.292846 174.087571 
L 223.924276 179.468301 
L 225.555706 190.361647 
L 227.187136 189.290163 
L 228.818566 172.449826 
L 230.449995 185.005747 
L 232.081425 200.811924 
L 233.712855 171.291264 
L 235.344285 153.959144 
L 236.975715 176.442763 
L 238.607145 134.709296 
L 240.238575 175.681602 
L 241.870005 194.422979 
L 243.501434 176.941128 
L 245.132864 116.362082 
L 246.764294 202.265055 
L 248.395724 221.030763 
L 250.027154 178.327456 
L 251.658584 128.683591 
L 253.290014 190.962185 
L 254.921444 209.688553 
L 256.552873 186.762619 
L 258.184303 188.002909 
L 259.815733 184.256581 
L 261.447163 183.971608 
L 263.078593 188.747659 
L 264.710023 201.699526 
L 266.341453 191.264695 
L 267.972883 183.139387 
L 269.604312 161.864212 
L 271.235742 182.806698 
L 272.867172 183.874148 
L 274.498602 132.655414 
L 276.130032 157.130432 
L 277.761462 214.910315 
L 279.392892 183.913977 
L 281.024322 98.10873 
L 282.655751 154.49599 
L 284.287181 216.062838 
L 285.918611 218.174128 
L 287.550041 151.687432 
L 289.181471 120.914889 
L 290.812901 167.108682 
L 292.444331 231.667873 
L 294.075761 230.544957 
L 295.70719 189.88463 
L 297.33862 159.590834 
L 300.60148 219.789103 
L 302.23291 219.407891 
L 303.86434 189.142438 
L 305.49577 181.655673 
L 307.1272 215.499113 
L 308.75863 228.653248 
L 310.390059 205.576064 
L 312.021489 174.02477 
L 313.652919 157.904959 
L 315.284349 154.535055 
L 316.915779 148.260905 
L 318.547209 158.280035 
L 320.178639 158.226225 
L 321.810069 173.022521 
L 323.441498 186.386831 
L 325.072928 176.684467 
L 326.704358 151.355741 
L 328.335788 175.884962 
L 329.967218 182.286837 
L 331.598648 182.651808 
L 333.230078 114.79942 
L 334.861508 92.011201 
L 336.492937 179.802922 
L 338.124367 223.415816 
L 341.387227 180.559848 
L 343.018657 172.980165 
L 344.650087 168.893355 
L 346.281517 144.965225 
L 347.912947 161.328916 
L 349.544376 198.178575 
L 351.175806 217.299901 
L 352.807236 193.473021 
L 354.438666 178.54588 
L 356.070096 170.30549 
L 357.701526 168.217383 
L 359.332956 155.573397 
L 360.964386 185.508294 
L 362.595815 225.047659 
L 365.858675 53.568 
L 367.490105 137.872516 
L 369.121535 176.737342 
L 370.752965 184.396026 
L 372.384395 167.52967 
L 374.015825 201.043352 
L 375.647254 222.685058 
L 377.278684 208.254073 
L 378.910114 166.991084 
L 380.541544 193.374053 
L 382.172974 237.583177 
L 383.804404 238.740656 
L 387.067264 195.448551 
L 388.698693 205.384158 
L 390.330123 225.62184 
L 391.961553 225.497575 
L 393.592983 211.881635 
L 395.224413 193.656372 
L 396.855843 200.317179 
L 398.487273 220.605773 
L 398.487273 220.605773 
" style="fill:none;stroke:#ff7f0e;stroke-linecap:square;stroke-width:1.5;"/>
   </g>
   <g id="patch_3">
    <path d="M 57.6 307.584 
L 57.6 41.472 
" style="fill:none;stroke:#000000;stroke-linecap:square;stroke-linejoin:miter;stroke-width:0.8;"/>
   </g>
   <g id="patch_4">
    <path d="M 414.72 307.584 
L 414.72 41.472 
" style="fill:none;stroke:#000000;stroke-linecap:square;stroke-linejoin:miter;stroke-width:0.8;"/>
   </g>
   <g id="patch_5">
    <path d="M 57.6 307.584 
L 414.72 307.584 
" style="fill:none;stroke:#000000;stroke-linecap:square;stroke-linejoin:miter;stroke-width:0.8;"/>
   </g>
   <g id="patch_6">
    <path d="M 57.6 41.472 
L 414.72 41.472 
" style="fill:none;stroke:#000000;stroke-linecap:square;stroke-linejoin:miter;stroke-width:0.8;"/>
   </g>
   <g id="legend_1">
    <g id="patch_7">
     <path d="M 64.6 78.82825 
L 168.475 78.82825 
Q 170.475 78.82825 170.475 76.82825 
L 170.475 48.472 
Q 170.475 46.472 168.475 46.472 
L 64.6 46.472 
Q 62.6 46.472 62.6 48.472 
L 62.6 76.82825 
Q 62.6 78.82825 64.6 78.82825 
z
" style="fill:#ffffff;opacity:0.8;stroke:#cccccc;stroke-linejoin:miter;"/>
    </g>
    <g id="line2d_18">
     <path d="M 66.6 54.570437 
L 86.6 54.570437 
" style="fill:none;stroke:#1f77b4;stroke-linecap:square;stroke-width:1.5;"/>
    </g>
    <g id="line2d_19"/>
    <g id="text_18">
     <!-- Train loss -->
     <g transform="translate(94.6 58.070437)scale(0.1 -0.1)">
      <defs>
       <path d="M -19 4666 
L 3928 4666 
L 3928 4134 
L 2272 4134 
L 2272 0 
L 1638 0 
L 1638 4134 
L -19 4134 
L -19 4666 
z
" id="DejaVuSans-54" transform="scale(0.015625)"/>
       <path d="M 2631 2963 
Q 2534 3019 2420 3045 
Q 2306 3072 2169 3072 
Q 1681 3072 1420 2755 
Q 1159 2438 1159 1844 
L 1159 0 
L 581 0 
L 581 3500 
L 1159 3500 
L 1159 2956 
Q 1341 3275 1631 3429 
Q 1922 3584 2338 3584 
Q 2397 3584 2469 3576 
Q 2541 3569 2628 3553 
L 2631 2963 
z
" id="DejaVuSans-72" transform="scale(0.015625)"/>
       <path d="M 2194 1759 
Q 1497 1759 1228 1600 
Q 959 1441 959 1056 
Q 959 750 1161 570 
Q 1363 391 1709 391 
Q 2188 391 2477 730 
Q 2766 1069 2766 1631 
L 2766 1759 
L 2194 1759 
z
M 3341 1997 
L 3341 0 
L 2766 0 
L 2766 531 
Q 2569 213 2275 61 
Q 1981 -91 1556 -91 
Q 1019 -91 701 211 
Q 384 513 384 1019 
Q 384 1609 779 1909 
Q 1175 2209 1959 2209 
L 2766 2209 
L 2766 2266 
Q 2766 2663 2505 2880 
Q 2244 3097 1772 3097 
Q 1472 3097 1187 3025 
Q 903 2953 641 2809 
L 641 3341 
Q 956 3463 1253 3523 
Q 1550 3584 1831 3584 
Q 2591 3584 2966 3190 
Q 3341 2797 3341 1997 
z
" id="DejaVuSans-61" transform="scale(0.015625)"/>
       <path d="M 603 3500 
L 1178 3500 
L 1178 0 
L 603 0 
L 603 3500 
z
M 603 4863 
L 1178 4863 
L 1178 4134 
L 603 4134 
L 603 4863 
z
" id="DejaVuSans-69" transform="scale(0.015625)"/>
       <path d="M 3513 2113 
L 3513 0 
L 2938 0 
L 2938 2094 
Q 2938 2591 2744 2837 
Q 2550 3084 2163 3084 
Q 1697 3084 1428 2787 
Q 1159 2491 1159 1978 
L 1159 0 
L 581 0 
L 581 3500 
L 1159 3500 
L 1159 2956 
Q 1366 3272 1645 3428 
Q 1925 3584 2291 3584 
Q 2894 3584 3203 3211 
Q 3513 2838 3513 2113 
z
" id="DejaVuSans-6e" transform="scale(0.015625)"/>
       <path id="DejaVuSans-20" transform="scale(0.015625)"/>
       <path d="M 603 4863 
L 1178 4863 
L 1178 0 
L 603 0 
L 603 4863 
z
" id="DejaVuSans-6c" transform="scale(0.015625)"/>
      </defs>
      <use xlink:href="#DejaVuSans-54"/>
      <use x="46.333984" xlink:href="#DejaVuSans-72"/>
      <use x="87.447266" xlink:href="#DejaVuSans-61"/>
      <use x="148.726562" xlink:href="#DejaVuSans-69"/>
      <use x="176.509766" xlink:href="#DejaVuSans-6e"/>
      <use x="239.888672" xlink:href="#DejaVuSans-20"/>
      <use x="271.675781" xlink:href="#DejaVuSans-6c"/>
      <use x="299.458984" xlink:href="#DejaVuSans-6f"/>
      <use x="360.640625" xlink:href="#DejaVuSans-73"/>
      <use x="412.740234" xlink:href="#DejaVuSans-73"/>
     </g>
    </g>
    <g id="line2d_20">
     <path d="M 66.6 69.248562 
L 86.6 69.248562 
" style="fill:none;stroke:#ff7f0e;stroke-linecap:square;stroke-width:1.5;"/>
    </g>
    <g id="line2d_21"/>
    <g id="text_19">
     <!-- Validation loss -->
     <g transform="translate(94.6 72.748562)scale(0.1 -0.1)">
      <defs>
       <path d="M 1831 0 
L 50 4666 
L 709 4666 
L 2188 738 
L 3669 4666 
L 4325 4666 
L 2547 0 
L 1831 0 
z
" id="DejaVuSans-56" transform="scale(0.015625)"/>
       <path d="M 2906 2969 
L 2906 4863 
L 3481 4863 
L 3481 0 
L 2906 0 
L 2906 525 
Q 2725 213 2448 61 
Q 2172 -91 1784 -91 
Q 1150 -91 751 415 
Q 353 922 353 1747 
Q 353 2572 751 3078 
Q 1150 3584 1784 3584 
Q 2172 3584 2448 3432 
Q 2725 3281 2906 2969 
z
M 947 1747 
Q 947 1113 1208 752 
Q 1469 391 1925 391 
Q 2381 391 2643 752 
Q 2906 1113 2906 1747 
Q 2906 2381 2643 2742 
Q 2381 3103 1925 3103 
Q 1469 3103 1208 2742 
Q 947 2381 947 1747 
z
" id="DejaVuSans-64" transform="scale(0.015625)"/>
       <path d="M 1172 4494 
L 1172 3500 
L 2356 3500 
L 2356 3053 
L 1172 3053 
L 1172 1153 
Q 1172 725 1289 603 
Q 1406 481 1766 481 
L 2356 481 
L 2356 0 
L 1766 0 
Q 1100 0 847 248 
Q 594 497 594 1153 
L 594 3053 
L 172 3053 
L 172 3500 
L 594 3500 
L 594 4494 
L 1172 4494 
z
" id="DejaVuSans-74" transform="scale(0.015625)"/>
      </defs>
      <use xlink:href="#DejaVuSans-56"/>
      <use x="60.658203" xlink:href="#DejaVuSans-61"/>
      <use x="121.9375" xlink:href="#DejaVuSans-6c"/>
      <use x="149.720703" xlink:href="#DejaVuSans-69"/>
      <use x="177.503906" xlink:href="#DejaVuSans-64"/>
      <use x="240.980469" xlink:href="#DejaVuSans-61"/>
      <use x="302.259766" xlink:href="#DejaVuSans-74"/>
      <use x="341.46875" xlink:href="#DejaVuSans-69"/>
      <use x="369.251953" xlink:href="#DejaVuSans-6f"/>
      <use x="430.433594" xlink:href="#DejaVuSans-6e"/>
      <use x="493.8125" xlink:href="#DejaVuSans-20"/>
      <use x="525.599609" xlink:href="#DejaVuSans-6c"/>
      <use x="553.382812" xlink:href="#DejaVuSans-6f"/>
      <use x="614.564453" xlink:href="#DejaVuSans-73"/>
      <use x="666.664062" xlink:href="#DejaVuSans-73"/>
     </g>
    </g>
   </g>
  </g>
 </g>
 <defs>
  <clipPath id="p630983f7d8">
   <rect height="266.112" width="357.12" x="57.6" y="41.472"/>
  </clipPath>
 </defs>
</svg>
