<?xml version="1.0" encoding="utf-8" standalone="no"?>
<!DOCTYPE svg PUBLIC "-//W3C//DTD SVG 1.1//EN"
  "http://www.w3.org/Graphics/SVG/1.1/DTD/svg11.dtd">
<svg height="345.6pt" version="1.1" viewBox="0 0 460.8 345.6" width="460.8pt" xmlns="http://www.w3.org/2000/svg" xmlns:xlink="http://www.w3.org/1999/xlink">
 <metadata>
  <rdf:RDF xmlns:cc="http://creativecommons.org/ns#" xmlns:dc="http://purl.org/dc/elements/1.1/" xmlns:rdf="http://www.w3.org/1999/02/22-rdf-syntax-ns#">
   <cc:Work>
    <dc:type rdf:resource="http://purl.org/dc/dcmitype/StillImage"/>
    <dc:date>2021-08-01T07:47:54.372415</dc:date>
    <dc:format>image/svg+xml</dc:format>
    <dc:creator>
     <cc:Agent>
      <dc:title>Matplotlib v3.4.1, https://matplotlib.org/</dc:title>
     </cc:Agent>
    </dc:creator>
   </cc:Work>
  </rdf:RDF>
 </metadata>
 <defs>
  <style type="text/css">*{stroke-linecap:butt;stroke-linejoin:round;}</style>
 </defs>
 <g id="figure_1">
  <g id="patch_1">
   <path d="M 0 345.6 
L 460.8 345.6 
L 460.8 0 
L 0 0 
z
" style="fill:#ffffff;"/>
  </g>
  <g id="axes_1">
   <g id="patch_2">
    <path d="M 57.6 307.584 
L 414.72 307.584 
L 414.72 41.472 
L 57.6 41.472 
z
" style="fill:#ffffff;"/>
   </g>
   <g id="matplotlib.axis_1">
    <g id="xtick_1">
     <g id="line2d_1">
      <defs>
       <path d="M 0 0 
L 0 3.5 
" id="m96a2637044" style="stroke:#000000;stroke-width:0.8;"/>
      </defs>
      <g>
       <use style="stroke:#000000;stroke-width:0.8;" x="73.629691" xlink:href="#m96a2637044" y="307.584"/>
      </g>
     </g>
     <g id="text_1">
      <!-- 0 -->
      <g transform="translate(70.448441 322.182437)scale(0.1 -0.1)">
       <defs>
        <path d="M 2034 4250 
Q 1547 4250 1301 3770 
Q 1056 3291 1056 2328 
Q 1056 1369 1301 889 
Q 1547 409 2034 409 
Q 2525 409 2770 889 
Q 3016 1369 3016 2328 
Q 3016 3291 2770 3770 
Q 2525 4250 2034 4250 
z
M 2034 4750 
Q 2819 4750 3233 4129 
Q 3647 3509 3647 2328 
Q 3647 1150 3233 529 
Q 2819 -91 2034 -91 
Q 1250 -91 836 529 
Q 422 1150 422 2328 
Q 422 3509 836 4129 
Q 1250 4750 2034 4750 
z
" id="DejaVuSans-30" transform="scale(0.015625)"/>
       </defs>
       <use xlink:href="#DejaVuSans-30"/>
      </g>
     </g>
    </g>
    <g id="xtick_2">
     <g id="line2d_2">
      <g>
       <use style="stroke:#000000;stroke-width:0.8;" x="114.236889" xlink:href="#m96a2637044" y="307.584"/>
      </g>
     </g>
     <g id="text_2">
      <!-- 200 -->
      <g transform="translate(104.693139 322.182437)scale(0.1 -0.1)">
       <defs>
        <path d="M 1228 531 
L 3431 531 
L 3431 0 
L 469 0 
L 469 531 
Q 828 903 1448 1529 
Q 2069 2156 2228 2338 
Q 2531 2678 2651 2914 
Q 2772 3150 2772 3378 
Q 2772 3750 2511 3984 
Q 2250 4219 1831 4219 
Q 1534 4219 1204 4116 
Q 875 4013 500 3803 
L 500 4441 
Q 881 4594 1212 4672 
Q 1544 4750 1819 4750 
Q 2544 4750 2975 4387 
Q 3406 4025 3406 3419 
Q 3406 3131 3298 2873 
Q 3191 2616 2906 2266 
Q 2828 2175 2409 1742 
Q 1991 1309 1228 531 
z
" id="DejaVuSans-32" transform="scale(0.015625)"/>
       </defs>
       <use xlink:href="#DejaVuSans-32"/>
       <use x="63.623047" xlink:href="#DejaVuSans-30"/>
       <use x="127.246094" xlink:href="#DejaVuSans-30"/>
      </g>
     </g>
    </g>
    <g id="xtick_3">
     <g id="line2d_3">
      <g>
       <use style="stroke:#000000;stroke-width:0.8;" x="154.844087" xlink:href="#m96a2637044" y="307.584"/>
      </g>
     </g>
     <g id="text_3">
      <!-- 400 -->
      <g transform="translate(145.300337 322.182437)scale(0.1 -0.1)">
       <defs>
        <path d="M 2419 4116 
L 825 1625 
L 2419 1625 
L 2419 4116 
z
M 2253 4666 
L 3047 4666 
L 3047 1625 
L 3713 1625 
L 3713 1100 
L 3047 1100 
L 3047 0 
L 2419 0 
L 2419 1100 
L 313 1100 
L 313 1709 
L 2253 4666 
z
" id="DejaVuSans-34" transform="scale(0.015625)"/>
       </defs>
       <use xlink:href="#DejaVuSans-34"/>
       <use x="63.623047" xlink:href="#DejaVuSans-30"/>
       <use x="127.246094" xlink:href="#DejaVuSans-30"/>
      </g>
     </g>
    </g>
    <g id="xtick_4">
     <g id="line2d_4">
      <g>
       <use style="stroke:#000000;stroke-width:0.8;" x="195.451284" xlink:href="#m96a2637044" y="307.584"/>
      </g>
     </g>
     <g id="text_4">
      <!-- 600 -->
      <g transform="translate(185.907534 322.182437)scale(0.1 -0.1)">
       <defs>
        <path d="M 2113 2584 
Q 1688 2584 1439 2293 
Q 1191 2003 1191 1497 
Q 1191 994 1439 701 
Q 1688 409 2113 409 
Q 2538 409 2786 701 
Q 3034 994 3034 1497 
Q 3034 2003 2786 2293 
Q 2538 2584 2113 2584 
z
M 3366 4563 
L 3366 3988 
Q 3128 4100 2886 4159 
Q 2644 4219 2406 4219 
Q 1781 4219 1451 3797 
Q 1122 3375 1075 2522 
Q 1259 2794 1537 2939 
Q 1816 3084 2150 3084 
Q 2853 3084 3261 2657 
Q 3669 2231 3669 1497 
Q 3669 778 3244 343 
Q 2819 -91 2113 -91 
Q 1303 -91 875 529 
Q 447 1150 447 2328 
Q 447 3434 972 4092 
Q 1497 4750 2381 4750 
Q 2619 4750 2861 4703 
Q 3103 4656 3366 4563 
z
" id="DejaVuSans-36" transform="scale(0.015625)"/>
       </defs>
       <use xlink:href="#DejaVuSans-36"/>
       <use x="63.623047" xlink:href="#DejaVuSans-30"/>
       <use x="127.246094" xlink:href="#DejaVuSans-30"/>
      </g>
     </g>
    </g>
    <g id="xtick_5">
     <g id="line2d_5">
      <g>
       <use style="stroke:#000000;stroke-width:0.8;" x="236.058482" xlink:href="#m96a2637044" y="307.584"/>
      </g>
     </g>
     <g id="text_5">
      <!-- 800 -->
      <g transform="translate(226.514732 322.182437)scale(0.1 -0.1)">
       <defs>
        <path d="M 2034 2216 
Q 1584 2216 1326 1975 
Q 1069 1734 1069 1313 
Q 1069 891 1326 650 
Q 1584 409 2034 409 
Q 2484 409 2743 651 
Q 3003 894 3003 1313 
Q 3003 1734 2745 1975 
Q 2488 2216 2034 2216 
z
M 1403 2484 
Q 997 2584 770 2862 
Q 544 3141 544 3541 
Q 544 4100 942 4425 
Q 1341 4750 2034 4750 
Q 2731 4750 3128 4425 
Q 3525 4100 3525 3541 
Q 3525 3141 3298 2862 
Q 3072 2584 2669 2484 
Q 3125 2378 3379 2068 
Q 3634 1759 3634 1313 
Q 3634 634 3220 271 
Q 2806 -91 2034 -91 
Q 1263 -91 848 271 
Q 434 634 434 1313 
Q 434 1759 690 2068 
Q 947 2378 1403 2484 
z
M 1172 3481 
Q 1172 3119 1398 2916 
Q 1625 2713 2034 2713 
Q 2441 2713 2670 2916 
Q 2900 3119 2900 3481 
Q 2900 3844 2670 4047 
Q 2441 4250 2034 4250 
Q 1625 4250 1398 4047 
Q 1172 3844 1172 3481 
z
" id="DejaVuSans-38" transform="scale(0.015625)"/>
       </defs>
       <use xlink:href="#DejaVuSans-38"/>
       <use x="63.623047" xlink:href="#DejaVuSans-30"/>
       <use x="127.246094" xlink:href="#DejaVuSans-30"/>
      </g>
     </g>
    </g>
    <g id="xtick_6">
     <g id="line2d_6">
      <g>
       <use style="stroke:#000000;stroke-width:0.8;" x="276.66568" xlink:href="#m96a2637044" y="307.584"/>
      </g>
     </g>
     <g id="text_6">
      <!-- 1000 -->
      <g transform="translate(263.94068 322.182437)scale(0.1 -0.1)">
       <defs>
        <path d="M 794 531 
L 1825 531 
L 1825 4091 
L 703 3866 
L 703 4441 
L 1819 4666 
L 2450 4666 
L 2450 531 
L 3481 531 
L 3481 0 
L 794 0 
L 794 531 
z
" id="DejaVuSans-31" transform="scale(0.015625)"/>
       </defs>
       <use xlink:href="#DejaVuSans-31"/>
       <use x="63.623047" xlink:href="#DejaVuSans-30"/>
       <use x="127.246094" xlink:href="#DejaVuSans-30"/>
       <use x="190.869141" xlink:href="#DejaVuSans-30"/>
      </g>
     </g>
    </g>
    <g id="xtick_7">
     <g id="line2d_7">
      <g>
       <use style="stroke:#000000;stroke-width:0.8;" x="317.272877" xlink:href="#m96a2637044" y="307.584"/>
      </g>
     </g>
     <g id="text_7">
      <!-- 1200 -->
      <g transform="translate(304.547877 322.182437)scale(0.1 -0.1)">
       <use xlink:href="#DejaVuSans-31"/>
       <use x="63.623047" xlink:href="#DejaVuSans-32"/>
       <use x="127.246094" xlink:href="#DejaVuSans-30"/>
       <use x="190.869141" xlink:href="#DejaVuSans-30"/>
      </g>
     </g>
    </g>
    <g id="xtick_8">
     <g id="line2d_8">
      <g>
       <use style="stroke:#000000;stroke-width:0.8;" x="357.880075" xlink:href="#m96a2637044" y="307.584"/>
      </g>
     </g>
     <g id="text_8">
      <!-- 1400 -->
      <g transform="translate(345.155075 322.182437)scale(0.1 -0.1)">
       <use xlink:href="#DejaVuSans-31"/>
       <use x="63.623047" xlink:href="#DejaVuSans-34"/>
       <use x="127.246094" xlink:href="#DejaVuSans-30"/>
       <use x="190.869141" xlink:href="#DejaVuSans-30"/>
      </g>
     </g>
    </g>
    <g id="xtick_9">
     <g id="line2d_9">
      <g>
       <use style="stroke:#000000;stroke-width:0.8;" x="398.487273" xlink:href="#m96a2637044" y="307.584"/>
      </g>
     </g>
     <g id="text_9">
      <!-- 1600 -->
      <g transform="translate(385.762273 322.182437)scale(0.1 -0.1)">
       <use xlink:href="#DejaVuSans-31"/>
       <use x="63.623047" xlink:href="#DejaVuSans-36"/>
       <use x="127.246094" xlink:href="#DejaVuSans-30"/>
       <use x="190.869141" xlink:href="#DejaVuSans-30"/>
      </g>
     </g>
    </g>
    <g id="text_10">
     <!-- Epoch -->
     <g transform="translate(213.193594 339.659781)scale(0.15 -0.15)">
      <defs>
       <path d="M 628 4666 
L 3578 4666 
L 3578 4134 
L 1259 4134 
L 1259 2753 
L 3481 2753 
L 3481 2222 
L 1259 2222 
L 1259 531 
L 3634 531 
L 3634 0 
L 628 0 
L 628 4666 
z
" id="DejaVuSans-45" transform="scale(0.015625)"/>
       <path d="M 1159 525 
L 1159 -1331 
L 581 -1331 
L 581 3500 
L 1159 3500 
L 1159 2969 
Q 1341 3281 1617 3432 
Q 1894 3584 2278 3584 
Q 2916 3584 3314 3078 
Q 3713 2572 3713 1747 
Q 3713 922 3314 415 
Q 2916 -91 2278 -91 
Q 1894 -91 1617 61 
Q 1341 213 1159 525 
z
M 3116 1747 
Q 3116 2381 2855 2742 
Q 2594 3103 2138 3103 
Q 1681 3103 1420 2742 
Q 1159 2381 1159 1747 
Q 1159 1113 1420 752 
Q 1681 391 2138 391 
Q 2594 391 2855 752 
Q 3116 1113 3116 1747 
z
" id="DejaVuSans-70" transform="scale(0.015625)"/>
       <path d="M 1959 3097 
Q 1497 3097 1228 2736 
Q 959 2375 959 1747 
Q 959 1119 1226 758 
Q 1494 397 1959 397 
Q 2419 397 2687 759 
Q 2956 1122 2956 1747 
Q 2956 2369 2687 2733 
Q 2419 3097 1959 3097 
z
M 1959 3584 
Q 2709 3584 3137 3096 
Q 3566 2609 3566 1747 
Q 3566 888 3137 398 
Q 2709 -91 1959 -91 
Q 1206 -91 779 398 
Q 353 888 353 1747 
Q 353 2609 779 3096 
Q 1206 3584 1959 3584 
z
" id="DejaVuSans-6f" transform="scale(0.015625)"/>
       <path d="M 3122 3366 
L 3122 2828 
Q 2878 2963 2633 3030 
Q 2388 3097 2138 3097 
Q 1578 3097 1268 2742 
Q 959 2388 959 1747 
Q 959 1106 1268 751 
Q 1578 397 2138 397 
Q 2388 397 2633 464 
Q 2878 531 3122 666 
L 3122 134 
Q 2881 22 2623 -34 
Q 2366 -91 2075 -91 
Q 1284 -91 818 406 
Q 353 903 353 1747 
Q 353 2603 823 3093 
Q 1294 3584 2113 3584 
Q 2378 3584 2631 3529 
Q 2884 3475 3122 3366 
z
" id="DejaVuSans-63" transform="scale(0.015625)"/>
       <path d="M 3513 2113 
L 3513 0 
L 2938 0 
L 2938 2094 
Q 2938 2591 2744 2837 
Q 2550 3084 2163 3084 
Q 1697 3084 1428 2787 
Q 1159 2491 1159 1978 
L 1159 0 
L 581 0 
L 581 4863 
L 1159 4863 
L 1159 2956 
Q 1366 3272 1645 3428 
Q 1925 3584 2291 3584 
Q 2894 3584 3203 3211 
Q 3513 2838 3513 2113 
z
" id="DejaVuSans-68" transform="scale(0.015625)"/>
      </defs>
      <use xlink:href="#DejaVuSans-45"/>
      <use x="63.183594" xlink:href="#DejaVuSans-70"/>
      <use x="126.660156" xlink:href="#DejaVuSans-6f"/>
      <use x="187.841797" xlink:href="#DejaVuSans-63"/>
      <use x="242.822266" xlink:href="#DejaVuSans-68"/>
     </g>
    </g>
   </g>
   <g id="matplotlib.axis_2">
    <g id="ytick_1">
     <g id="line2d_10">
      <defs>
       <path d="M 0 0 
L -3.5 0 
" id="m9178096480" style="stroke:#000000;stroke-width:0.8;"/>
      </defs>
      <g>
       <use style="stroke:#000000;stroke-width:0.8;" x="57.6" xlink:href="#m9178096480" y="302.94038"/>
      </g>
     </g>
     <g id="text_11">
      <!-- −0.25 -->
      <g transform="translate(19.954687 306.739599)scale(0.1 -0.1)">
       <defs>
        <path d="M 678 2272 
L 4684 2272 
L 4684 1741 
L 678 1741 
L 678 2272 
z
" id="DejaVuSans-2212" transform="scale(0.015625)"/>
        <path d="M 684 794 
L 1344 794 
L 1344 0 
L 684 0 
L 684 794 
z
" id="DejaVuSans-2e" transform="scale(0.015625)"/>
        <path d="M 691 4666 
L 3169 4666 
L 3169 4134 
L 1269 4134 
L 1269 2991 
Q 1406 3038 1543 3061 
Q 1681 3084 1819 3084 
Q 2600 3084 3056 2656 
Q 3513 2228 3513 1497 
Q 3513 744 3044 326 
Q 2575 -91 1722 -91 
Q 1428 -91 1123 -41 
Q 819 9 494 109 
L 494 744 
Q 775 591 1075 516 
Q 1375 441 1709 441 
Q 2250 441 2565 725 
Q 2881 1009 2881 1497 
Q 2881 1984 2565 2268 
Q 2250 2553 1709 2553 
Q 1456 2553 1204 2497 
Q 953 2441 691 2322 
L 691 4666 
z
" id="DejaVuSans-35" transform="scale(0.015625)"/>
       </defs>
       <use xlink:href="#DejaVuSans-2212"/>
       <use x="83.789062" xlink:href="#DejaVuSans-30"/>
       <use x="147.412109" xlink:href="#DejaVuSans-2e"/>
       <use x="179.199219" xlink:href="#DejaVuSans-32"/>
       <use x="242.822266" xlink:href="#DejaVuSans-35"/>
      </g>
     </g>
    </g>
    <g id="ytick_2">
     <g id="line2d_11">
      <g>
       <use style="stroke:#000000;stroke-width:0.8;" x="57.6" xlink:href="#m9178096480" y="269.496113"/>
      </g>
     </g>
     <g id="text_12">
      <!-- 0.00 -->
      <g transform="translate(28.334375 273.295332)scale(0.1 -0.1)">
       <use xlink:href="#DejaVuSans-30"/>
       <use x="63.623047" xlink:href="#DejaVuSans-2e"/>
       <use x="95.410156" xlink:href="#DejaVuSans-30"/>
       <use x="159.033203" xlink:href="#DejaVuSans-30"/>
      </g>
     </g>
    </g>
    <g id="ytick_3">
     <g id="line2d_12">
      <g>
       <use style="stroke:#000000;stroke-width:0.8;" x="57.6" xlink:href="#m9178096480" y="236.051847"/>
      </g>
     </g>
     <g id="text_13">
      <!-- 0.25 -->
      <g transform="translate(28.334375 239.851066)scale(0.1 -0.1)">
       <use xlink:href="#DejaVuSans-30"/>
       <use x="63.623047" xlink:href="#DejaVuSans-2e"/>
       <use x="95.410156" xlink:href="#DejaVuSans-32"/>
       <use x="159.033203" xlink:href="#DejaVuSans-35"/>
      </g>
     </g>
    </g>
    <g id="ytick_4">
     <g id="line2d_13">
      <g>
       <use style="stroke:#000000;stroke-width:0.8;" x="57.6" xlink:href="#m9178096480" y="202.607581"/>
      </g>
     </g>
     <g id="text_14">
      <!-- 0.50 -->
      <g transform="translate(28.334375 206.406799)scale(0.1 -0.1)">
       <use xlink:href="#DejaVuSans-30"/>
       <use x="63.623047" xlink:href="#DejaVuSans-2e"/>
       <use x="95.410156" xlink:href="#DejaVuSans-35"/>
       <use x="159.033203" xlink:href="#DejaVuSans-30"/>
      </g>
     </g>
    </g>
    <g id="ytick_5">
     <g id="line2d_14">
      <g>
       <use style="stroke:#000000;stroke-width:0.8;" x="57.6" xlink:href="#m9178096480" y="169.163314"/>
      </g>
     </g>
     <g id="text_15">
      <!-- 0.75 -->
      <g transform="translate(28.334375 172.962533)scale(0.1 -0.1)">
       <defs>
        <path d="M 525 4666 
L 3525 4666 
L 3525 4397 
L 1831 0 
L 1172 0 
L 2766 4134 
L 525 4134 
L 525 4666 
z
" id="DejaVuSans-37" transform="scale(0.015625)"/>
       </defs>
       <use xlink:href="#DejaVuSans-30"/>
       <use x="63.623047" xlink:href="#DejaVuSans-2e"/>
       <use x="95.410156" xlink:href="#DejaVuSans-37"/>
       <use x="159.033203" xlink:href="#DejaVuSans-35"/>
      </g>
     </g>
    </g>
    <g id="ytick_6">
     <g id="line2d_15">
      <g>
       <use style="stroke:#000000;stroke-width:0.8;" x="57.6" xlink:href="#m9178096480" y="135.719048"/>
      </g>
     </g>
     <g id="text_16">
      <!-- 1.00 -->
      <g transform="translate(28.334375 139.518267)scale(0.1 -0.1)">
       <use xlink:href="#DejaVuSans-31"/>
       <use x="63.623047" xlink:href="#DejaVuSans-2e"/>
       <use x="95.410156" xlink:href="#DejaVuSans-30"/>
       <use x="159.033203" xlink:href="#DejaVuSans-30"/>
      </g>
     </g>
    </g>
    <g id="ytick_7">
     <g id="line2d_16">
      <g>
       <use style="stroke:#000000;stroke-width:0.8;" x="57.6" xlink:href="#m9178096480" y="102.274781"/>
      </g>
     </g>
     <g id="text_17">
      <!-- 1.25 -->
      <g transform="translate(28.334375 106.074)scale(0.1 -0.1)">
       <use xlink:href="#DejaVuSans-31"/>
       <use x="63.623047" xlink:href="#DejaVuSans-2e"/>
       <use x="95.410156" xlink:href="#DejaVuSans-32"/>
       <use x="159.033203" xlink:href="#DejaVuSans-35"/>
      </g>
     </g>
    </g>
    <g id="ytick_8">
     <g id="line2d_17">
      <g>
       <use style="stroke:#000000;stroke-width:0.8;" x="57.6" xlink:href="#m9178096480" y="68.830515"/>
      </g>
     </g>
     <g id="text_18">
      <!-- 1.50 -->
      <g transform="translate(28.334375 72.629734)scale(0.1 -0.1)">
       <use xlink:href="#DejaVuSans-31"/>
       <use x="63.623047" xlink:href="#DejaVuSans-2e"/>
       <use x="95.410156" xlink:href="#DejaVuSans-35"/>
       <use x="159.033203" xlink:href="#DejaVuSans-30"/>
      </g>
     </g>
    </g>
   </g>
   <g id="line2d_18">
    <path clip-path="url(#p0d42e569dd)" d="M 73.832727 117.441398 
L 74.035763 58.413423 
L 74.238799 112.895794 
L 74.441835 130.804761 
L 74.644871 112.954763 
L 74.847907 115.046252 
L 75.050943 114.897177 
L 75.253979 123.24955 
L 75.457015 106.698122 
L 75.660051 101.523042 
L 75.863087 151.654217 
L 76.066123 98.436824 
L 76.269159 94.991489 
L 76.472195 119.233517 
L 76.675231 121.262857 
L 76.878267 119.128794 
L 77.081303 104.311175 
L 77.284339 129.999982 
L 77.487375 112.587703 
L 77.690411 106.016882 
L 77.893447 111.790388 
L 78.096483 100.0934 
L 78.299519 106.159379 
L 78.502555 119.392598 
L 78.705591 110.514199 
L 78.908627 156.272136 
L 79.111663 123.435385 
L 79.314699 118.624295 
L 79.517735 107.927101 
L 79.720771 112.330628 
L 79.923807 119.611133 
L 80.126843 87.606486 
L 80.329879 118.766714 
L 80.532915 110.201086 
L 80.735951 88.335644 
L 80.938987 126.013738 
L 81.142023 96.402969 
L 81.345059 110.417515 
L 81.548095 85.23756 
L 81.751131 118.234487 
L 81.954167 91.915745 
L 82.157203 162.041774 
L 82.360239 92.232467 
L 82.563275 123.966328 
L 82.766311 123.809431 
L 82.969347 102.203962 
L 83.375419 131.602323 
L 83.578455 116.520178 
L 83.781491 132.614916 
L 83.984527 91.815102 
L 84.187563 123.586681 
L 84.390599 126.066952 
L 84.593635 107.063556 
L 84.796671 162.29637 
L 84.999707 94.225671 
L 85.405779 132.479393 
L 85.608815 76.720341 
L 85.811851 116.818454 
L 86.014887 101.257291 
L 86.217923 103.646504 
L 86.420959 123.597032 
L 86.623995 126.414394 
L 86.827031 102.971413 
L 87.030067 104.008441 
L 87.436138 118.307472 
L 87.639174 138.032049 
L 88.045246 110.459584 
L 88.248282 109.654356 
L 88.451318 128.546953 
L 88.654354 123.037473 
L 88.85739 130.799608 
L 89.060426 77.442404 
L 89.263462 107.644295 
L 89.466498 118.619104 
L 89.669534 86.207247 
L 89.87257 113.684555 
L 90.075606 108.056955 
L 90.278642 130.962059 
L 90.481678 129.721435 
L 90.684714 89.613669 
L 90.88775 97.185912 
L 91.090786 109.624028 
L 91.293822 108.962757 
L 91.496858 133.43937 
L 91.699894 129.145561 
L 91.90293 102.758035 
L 92.105966 127.918258 
L 92.309002 67.644985 
L 92.512038 109.628156 
L 92.715074 98.219277 
L 92.91811 96.872512 
L 93.324182 108.359197 
L 93.527218 105.427187 
L 93.730254 133.978882 
L 93.93329 92.215719 
L 94.136326 110.461572 
L 94.339362 113.401394 
L 94.542398 134.933659 
L 94.745434 116.903268 
L 94.94847 138.063716 
L 95.151506 75.407095 
L 95.354542 133.465912 
L 95.760614 53.568 
L 95.96365 125.201827 
L 96.166686 113.897496 
L 96.369722 96.087921 
L 96.572758 100.31056 
L 96.775794 131.737028 
L 96.97883 127.060069 
L 97.384902 142.078169 
L 97.587938 92.013417 
L 97.790974 120.652464 
L 98.197046 107.771828 
L 98.603118 124.968314 
L 98.806154 97.337215 
L 99.00919 96.378806 
L 99.415262 127.970495 
L 99.618298 111.267219 
L 99.821334 143.51042 
L 100.02437 97.199618 
L 100.227406 95.51369 
L 100.430442 100.170575 
L 100.633478 81.543273 
L 100.836514 131.510387 
L 101.03955 108.703791 
L 101.242586 122.213101 
L 101.445622 163.740457 
L 101.648658 91.214716 
L 101.851694 110.663493 
L 102.05473 103.30654 
L 102.257766 129.329564 
L 102.460802 133.086363 
L 102.663838 96.962537 
L 102.866874 116.449323 
L 103.06991 119.244179 
L 103.272946 156.052867 
L 103.475982 130.5393 
L 103.679018 145.604436 
L 103.882054 107.804481 
L 104.08509 130.71203 
L 104.288126 114.291752 
L 104.491162 109.935008 
L 104.694198 137.815889 
L 104.897233 116.130879 
L 105.100269 134.014281 
L 105.506341 58.942815 
L 105.709377 111.351306 
L 105.912413 108.517368 
L 106.115449 114.905679 
L 106.318485 134.666858 
L 106.521521 82.523545 
L 106.724557 93.960904 
L 106.927593 115.700955 
L 107.130629 105.901195 
L 107.333665 108.535418 
L 107.536701 109.395028 
L 107.739737 102.907524 
L 107.942773 141.137927 
L 108.145809 114.710128 
L 108.551881 93.041254 
L 108.754917 96.203469 
L 108.957953 134.152166 
L 109.364025 86.532194 
L 109.567061 107.859179 
L 109.770097 113.21356 
L 109.973133 131.870703 
L 110.176169 89.392246 
L 110.379205 137.757825 
L 110.582241 81.404907 
L 110.785277 139.902165 
L 111.191349 78.670608 
L 111.597421 132.509496 
L 111.800457 111.277404 
L 112.003493 134.442864 
L 112.206529 117.070073 
L 112.409565 110.401634 
L 112.612601 132.624556 
L 112.815637 175.29331 
L 113.221709 84.20561 
L 113.424745 117.344864 
L 113.627781 94.68 
L 113.830817 130.057445 
L 114.033853 118.764457 
L 114.236889 133.063617 
L 114.439925 137.66015 
L 114.642961 136.131945 
L 115.049033 99.706506 
L 115.252069 141.306389 
L 115.455105 147.655543 
L 115.658141 115.7591 
L 115.861177 133.701628 
L 116.064213 110.030207 
L 116.267249 136.072111 
L 116.673321 122.377317 
L 117.079393 134.963735 
L 117.282429 131.896167 
L 117.485465 98.896364 
L 117.688501 157.435501 
L 117.891537 141.584765 
L 118.094573 144.672428 
L 118.297609 133.884 
L 118.500645 140.899995 
L 118.703681 128.673975 
L 118.906717 139.809721 
L 119.109753 171.87902 
L 119.312789 116.980037 
L 119.515825 142.555995 
L 119.718861 131.526431 
L 119.921897 144.033579 
L 120.124933 146.266674 
L 120.327969 147.20817 
L 120.531005 153.024875 
L 120.734041 143.6978 
L 120.937077 162.413899 
L 121.140113 112.940712 
L 121.343149 140.182539 
L 121.546185 136.067057 
L 121.749221 135.009144 
L 121.952257 127.187296 
L 122.155293 139.64577 
L 122.358329 141.773056 
L 122.7644 156.414405 
L 123.170472 111.322277 
L 123.576544 175.411116 
L 123.77958 135.185503 
L 123.982616 139.084206 
L 124.185652 156.464549 
L 124.388688 109.02575 
L 124.591724 157.039811 
L 124.79476 145.376211 
L 124.997796 167.453065 
L 125.200832 148.501095 
L 125.403868 145.26853 
L 125.606904 152.511166 
L 125.80994 171.983473 
L 126.012976 140.425044 
L 126.216012 166.847238 
L 126.419048 169.965669 
L 126.622084 165.527574 
L 126.82512 163.997398 
L 127.028156 170.803344 
L 127.231192 157.54843 
L 127.434228 165.497695 
L 127.637264 148.405463 
L 127.8403 148.833659 
L 128.246372 183.590979 
L 128.652444 163.453088 
L 128.85548 184.068098 
L 129.058516 171.149101 
L 129.261552 182.23267 
L 129.464588 160.224695 
L 129.667624 183.928199 
L 129.87066 192.035634 
L 130.073696 167.856469 
L 130.276732 163.847054 
L 130.479768 172.829408 
L 130.682804 202.596577 
L 130.88584 165.572705 
L 131.088876 194.858693 
L 131.291912 171.585015 
L 131.494948 193.853065 
L 131.697984 170.088252 
L 131.90102 204.947503 
L 132.307092 163.904953 
L 132.713164 193.460214 
L 132.9162 187.404129 
L 133.119236 176.712818 
L 133.525308 184.293718 
L 133.728344 175.22438 
L 133.93138 193.626621 
L 134.337452 177.50195 
L 134.540488 202.667666 
L 134.743524 181.586282 
L 134.94656 189.505956 
L 135.149596 165.839461 
L 135.352632 187.111867 
L 135.555668 189.573717 
L 135.758704 196.316269 
L 135.96174 194.92579 
L 136.164776 183.168495 
L 136.367812 198.689507 
L 136.570848 186.248535 
L 136.773884 211.257622 
L 136.97692 211.366455 
L 137.179956 200.243034 
L 137.382992 195.339892 
L 137.586028 180.488866 
L 137.789064 197.319653 
L 137.9921 187.182023 
L 138.195136 185.26893 
L 138.601208 203.685069 
L 138.804244 186.238224 
L 139.00728 218.351221 
L 139.616388 182.316266 
L 140.022459 199.643276 
L 140.225495 206.613347 
L 140.428531 180.098234 
L 140.631567 213.106985 
L 140.834603 204.403551 
L 141.037639 202.01475 
L 141.240675 193.925676 
L 141.443711 207.312896 
L 141.646747 203.896178 
L 141.849783 206.617601 
L 142.052819 199.063508 
L 142.255855 205.591391 
L 142.458891 204.696317 
L 142.661927 209.235561 
L 142.864963 207.209179 
L 143.067999 213.591687 
L 143.271035 192.127858 
L 143.474071 201.716225 
L 143.677107 217.489464 
L 143.880143 207.565883 
L 144.083179 203.224613 
L 144.286215 212.924318 
L 144.489251 208.641894 
L 144.692287 208.452355 
L 144.895323 211.319375 
L 145.098359 211.113021 
L 145.301395 211.673836 
L 145.504431 213.238954 
L 145.707467 212.680746 
L 145.910503 212.54872 
L 146.113539 189.835506 
L 146.316575 218.21294 
L 146.519611 215.362827 
L 146.722647 219.045196 
L 146.925683 218.030428 
L 147.128719 234.879721 
L 147.331755 206.128168 
L 147.534791 228.23822 
L 147.737827 225.063041 
L 147.940863 210.25465 
L 148.143899 206.140484 
L 148.346935 213.116097 
L 148.549971 208.378543 
L 148.753007 210.735488 
L 148.956043 217.470301 
L 149.159079 214.024082 
L 149.362115 203.073043 
L 149.565151 214.619511 
L 149.768187 217.411187 
L 149.971223 206.354894 
L 150.174259 221.388321 
L 150.377295 212.395762 
L 150.580331 215.054153 
L 150.783367 207.591449 
L 151.189439 233.552088 
L 151.392475 214.374275 
L 151.595511 229.60979 
L 152.001583 233.125039 
L 152.407655 208.529399 
L 152.610691 206.62582 
L 152.813727 228.614979 
L 153.219799 216.851082 
L 153.422835 226.592857 
L 153.625871 228.200376 
L 154.234979 211.593141 
L 154.438015 230.515863 
L 154.641051 217.701624 
L 155.047123 227.634099 
L 155.250159 240.305371 
L 155.453195 226.36904 
L 155.656231 233.957189 
L 155.859267 212.440713 
L 156.062303 220.108699 
L 156.265339 216.508049 
L 156.468375 219.229466 
L 156.671411 228.420866 
L 156.874447 231.829598 
L 157.077483 228.176561 
L 157.280519 215.445991 
L 157.483554 233.731479 
L 157.68659 221.965391 
L 157.889626 221.604652 
L 158.092662 223.020419 
L 158.295698 221.319649 
L 158.498734 222.539351 
L 158.70177 238.451969 
L 158.904806 242.186507 
L 159.107842 227.289451 
L 159.310878 235.121564 
L 159.513914 227.189683 
L 159.71695 230.309213 
L 159.919986 223.188379 
L 160.123022 234.941002 
L 160.326058 223.25289 
L 160.529094 238.071105 
L 160.73213 237.618457 
L 160.935166 234.043481 
L 161.138202 217.971156 
L 161.341238 224.806725 
L 161.544274 238.119391 
L 161.74731 237.108875 
L 161.950346 223.651615 
L 162.153382 229.936833 
L 162.356418 241.190007 
L 162.559454 245.869178 
L 162.76249 230.665703 
L 162.965526 243.890797 
L 163.168562 244.369546 
L 163.371598 237.94258 
L 163.574634 250.168633 
L 163.77767 243.68815 
L 163.980706 241.265285 
L 164.183742 227.516241 
L 164.386778 226.461685 
L 164.589814 217.437694 
L 164.995886 233.832865 
L 165.198922 231.950943 
L 165.401958 235.596946 
L 165.604994 232.546619 
L 165.80803 238.719944 
L 166.011066 237.041954 
L 166.214102 231.278672 
L 166.417138 228.717378 
L 166.620174 229.128756 
L 166.82321 229.14815 
L 167.026246 236.295157 
L 167.229282 234.26423 
L 167.432318 240.214829 
L 167.83839 233.219029 
L 168.041426 233.64246 
L 168.244462 237.491395 
L 168.447498 238.501227 
L 168.650534 240.148083 
L 169.056606 222.984519 
L 169.462678 242.885066 
L 169.665714 238.293928 
L 170.071786 243.994412 
L 170.274822 208.165609 
L 170.680894 226.019275 
L 170.88393 227.927684 
L 171.086966 242.001359 
L 171.290002 241.285347 
L 171.493038 254.082159 
L 171.89911 230.93256 
L 172.102146 249.673192 
L 172.305182 240.03623 
L 172.508218 244.587413 
L 172.711254 244.628983 
L 172.91429 246.574118 
L 173.117326 238.634189 
L 173.320362 246.051197 
L 173.523398 235.513715 
L 173.92947 250.725568 
L 174.132506 232.760868 
L 174.335542 226.745761 
L 174.538578 239.493128 
L 174.741614 239.921293 
L 174.944649 243.278747 
L 175.147685 241.966533 
L 175.350721 237.464589 
L 175.553757 230.370701 
L 175.756793 248.739776 
L 176.162865 239.677734 
L 176.365901 241.215648 
L 176.568937 253.50853 
L 176.771973 242.165985 
L 176.975009 249.8389 
L 177.178045 241.844474 
L 177.381081 243.514837 
L 177.584117 239.761893 
L 177.787153 247.460733 
L 177.990189 238.456284 
L 178.193225 253.082411 
L 178.396261 250.462109 
L 178.599297 240.748993 
L 178.802333 239.033333 
L 179.005369 243.292752 
L 179.208405 253.63836 
L 179.411441 256.301096 
L 179.614477 242.302516 
L 179.817513 244.454604 
L 180.020549 244.748885 
L 180.223585 243.790419 
L 180.426621 226.273039 
L 180.629657 241.746953 
L 180.832693 236.8411 
L 181.035729 240.344429 
L 181.238765 255.540588 
L 181.644837 237.274913 
L 181.847873 241.595884 
L 182.050909 237.706987 
L 182.253945 250.517212 
L 182.456981 249.226735 
L 182.660017 245.705979 
L 182.863053 247.599426 
L 183.066089 252.698151 
L 183.269125 245.077255 
L 183.472161 249.517232 
L 183.675197 246.406986 
L 183.878233 249.945537 
L 184.081269 243.404408 
L 184.284305 247.867877 
L 184.487341 244.564256 
L 184.690377 257.50349 
L 185.096449 233.681779 
L 185.299485 237.539565 
L 185.502521 248.009397 
L 185.908593 240.421702 
L 186.111629 245.845138 
L 186.314665 247.111249 
L 186.720737 252.029437 
L 187.126809 261.208149 
L 187.532881 238.15559 
L 187.735917 239.338183 
L 187.938953 246.564036 
L 188.141989 239.944177 
L 188.345025 245.045778 
L 188.548061 241.085594 
L 188.954133 255.672597 
L 189.157169 255.353505 
L 189.360205 251.698218 
L 189.563241 245.161471 
L 189.766277 251.190363 
L 189.969313 252.00991 
L 190.172349 251.815872 
L 190.375385 251.828654 
L 190.578421 253.813525 
L 190.781457 259.46061 
L 190.984493 246.192524 
L 191.187529 241.39968 
L 191.390565 245.98744 
L 191.593601 256.772426 
L 191.796637 257.838069 
L 191.999673 244.960356 
L 192.202709 254.312095 
L 192.405744 256.025594 
L 192.60878 249.659817 
L 192.811816 254.408581 
L 193.014852 245.276934 
L 193.217888 249.548926 
L 193.420924 246.64116 
L 193.62396 268.719723 
L 193.826996 254.275816 
L 194.030032 247.804001 
L 194.233068 250.073347 
L 194.436104 259.847275 
L 194.842176 246.520741 
L 195.045212 218.863702 
L 195.451284 246.623992 
L 195.857356 256.377349 
L 196.060392 253.441178 
L 196.263428 256.256001 
L 196.466464 256.393162 
L 196.6695 246.215511 
L 196.872536 254.243709 
L 197.075572 241.483937 
L 197.278608 257.95242 
L 197.68468 246.21012 
L 197.887716 249.849163 
L 198.090752 257.443205 
L 198.293788 255.160215 
L 198.496824 254.437068 
L 198.69986 253.051 
L 198.902896 259.063463 
L 199.105932 255.10325 
L 199.308968 269.421753 
L 199.512004 258.161129 
L 199.71504 262.308977 
L 199.918076 257.636215 
L 200.121112 241.404019 
L 200.324148 255.695963 
L 200.527184 248.117437 
L 200.73022 248.028534 
L 200.933256 245.76964 
L 201.136292 241.563856 
L 201.339328 250.539311 
L 201.542364 252.620868 
L 201.7454 247.997417 
L 201.948436 251.041799 
L 202.151472 248.459548 
L 202.354508 256.918232 
L 202.557544 246.670789 
L 202.76058 259.18574 
L 202.963616 247.997472 
L 203.166652 261.263845 
L 203.369688 256.751357 
L 203.572724 249.028551 
L 203.77576 259.642413 
L 203.978796 242.250157 
L 204.181832 261.278203 
L 204.587904 242.212328 
L 204.79094 260.89706 
L 204.993976 262.498292 
L 205.197012 261.057981 
L 205.400048 266.617601 
L 205.603084 257.972759 
L 205.80612 259.880735 
L 206.009156 253.598037 
L 206.415228 261.191707 
L 206.618264 253.642538 
L 206.8213 262.016777 
L 207.024336 238.708077 
L 207.633444 260.033596 
L 207.83648 258.29758 
L 208.039516 254.874912 
L 208.242552 248.572234 
L 208.648624 259.92239 
L 208.85166 269.890031 
L 209.054696 262.794516 
L 209.257732 245.684953 
L 209.460768 265.688898 
L 209.663804 246.44196 
L 209.86684 250.077309 
L 210.272911 267.473223 
L 210.475947 265.422649 
L 210.882019 254.103966 
L 211.085055 258.342372 
L 211.288091 255.670978 
L 211.491127 247.166945 
L 211.694163 255.3345 
L 211.897199 257.106481 
L 212.100235 264.736288 
L 212.303271 251.960075 
L 212.506307 253.816935 
L 212.709343 259.139892 
L 212.912379 259.281897 
L 213.115415 256.685594 
L 213.318451 265.484457 
L 213.521487 261.392378 
L 213.724523 271.135162 
L 214.130595 256.547961 
L 214.333631 254.595766 
L 214.536667 258.759091 
L 214.739703 273.607598 
L 214.942739 257.852014 
L 215.145775 254.350343 
L 215.348811 253.68131 
L 215.551847 269.248457 
L 215.754883 258.249681 
L 215.957919 272.028559 
L 216.160955 267.456861 
L 216.363991 259.575504 
L 216.567027 260.209832 
L 216.770063 256.220146 
L 216.973099 257.4035 
L 217.176135 259.69585 
L 217.379171 260.454304 
L 217.582207 260.023622 
L 217.785243 263.528216 
L 217.988279 246.209592 
L 218.394351 264.611038 
L 218.597387 272.002608 
L 218.800423 264.759936 
L 219.003459 273.412693 
L 219.409531 268.040496 
L 219.612567 259.014764 
L 219.815603 270.336605 
L 220.018639 271.844554 
L 220.221675 271.229777 
L 220.830783 260.468012 
L 221.033819 269.910093 
L 221.439891 264.448832 
L 221.642927 273.534994 
L 221.845963 267.609035 
L 222.048999 270.586782 
L 222.455071 253.113963 
L 222.658107 263.82019 
L 223.064179 252.959963 
L 223.267215 265.163038 
L 223.470251 252.983013 
L 223.673287 255.950907 
L 223.876323 264.136445 
L 224.079359 244.354007 
L 224.282395 265.40203 
L 224.485431 257.767769 
L 224.688467 257.620078 
L 224.891503 268.222079 
L 225.094539 262.512713 
L 225.297575 263.835652 
L 225.500611 267.091301 
L 225.703647 254.177591 
L 225.906683 265.367552 
L 226.109719 267.646986 
L 226.312755 267.815914 
L 226.515791 266.342826 
L 226.718827 253.231678 
L 226.921863 264.642878 
L 227.327935 256.996955 
L 227.53097 259.190526 
L 227.734006 267.085524 
L 228.140078 254.210875 
L 228.343114 269.06086 
L 228.54615 259.53358 
L 228.749186 263.733828 
L 228.952222 270.510971 
L 229.155258 270.253879 
L 229.358294 253.548334 
L 229.764366 263.334003 
L 229.967402 266.81554 
L 230.170438 280.559518 
L 230.373474 257.596695 
L 230.779546 271.947334 
L 231.388654 251.414994 
L 231.794726 265.226052 
L 232.200798 258.104059 
L 232.403834 279.19513 
L 232.809906 261.749476 
L 233.012942 263.119448 
L 233.215978 252.429896 
L 233.419014 254.063338 
L 233.62205 274.118323 
L 234.028122 255.379958 
L 234.231158 270.244979 
L 234.434194 269.910893 
L 234.63723 266.897902 
L 234.840266 271.889309 
L 235.043302 270.272521 
L 235.246338 269.8067 
L 235.449374 265.121944 
L 235.65241 267.609031 
L 235.855446 268.147515 
L 236.058482 275.638098 
L 236.66759 264.69089 
L 236.870626 273.008398 
L 237.073662 259.854353 
L 237.276698 264.089502 
L 237.479734 262.624764 
L 237.68277 255.078005 
L 237.885806 269.18102 
L 238.088842 263.084951 
L 238.291878 263.578518 
L 238.494914 251.150318 
L 238.69795 267.096435 
L 238.900986 270.814868 
L 239.104022 267.61095 
L 239.510094 278.121172 
L 239.71313 266.425024 
L 239.916166 266.091085 
L 240.119202 257.204376 
L 240.72831 272.433893 
L 240.931346 265.279465 
L 241.134382 264.641446 
L 241.337418 277.442361 
L 241.540454 267.326215 
L 241.74349 245.028543 
L 241.946526 263.006699 
L 242.149562 270.700969 
L 242.352598 265.087647 
L 242.555634 268.922414 
L 242.75867 265.004506 
L 242.961706 270.426465 
L 243.164742 266.412059 
L 243.367778 267.727518 
L 243.570814 274.040691 
L 243.77385 276.04349 
L 243.976886 273.191906 
L 244.179922 259.579226 
L 244.382958 276.764435 
L 244.585994 267.63645 
L 244.78903 268.334459 
L 244.992065 263.94433 
L 245.601173 278.307222 
L 245.804209 268.984145 
L 246.210281 266.617042 
L 246.413317 260.871413 
L 246.616353 275.319065 
L 247.022425 264.127265 
L 247.225461 262.359155 
L 247.428497 270.717325 
L 247.631533 271.908071 
L 247.834569 271.188287 
L 248.240641 264.089722 
L 248.443677 274.943978 
L 248.646713 264.878489 
L 249.052785 273.802343 
L 249.255821 271.837347 
L 249.458857 273.422767 
L 249.661893 256.730851 
L 250.067965 268.111634 
L 250.271001 274.427751 
L 250.474037 260.285466 
L 250.677073 264.451655 
L 250.880109 261.679439 
L 251.083145 270.619029 
L 251.489217 261.003467 
L 251.692253 266.467764 
L 251.895289 277.506699 
L 252.098325 271.850342 
L 252.504397 278.150244 
L 252.707433 271.313827 
L 252.910469 272.047397 
L 253.113505 271.958599 
L 253.316541 265.076961 
L 253.519577 274.900262 
L 253.722613 267.426817 
L 253.925649 282.609807 
L 254.128685 271.769356 
L 254.331721 269.562666 
L 254.534757 277.949759 
L 254.737793 275.922406 
L 254.940829 268.807408 
L 255.143865 265.651973 
L 255.346901 268.548796 
L 255.549937 266.927845 
L 255.752973 271.409106 
L 255.956009 280.335099 
L 256.362081 266.354628 
L 256.768153 269.134129 
L 256.971189 276.053212 
L 257.377261 263.934935 
L 257.580297 255.245069 
L 257.783333 266.893901 
L 257.986369 269.181863 
L 258.189405 274.0036 
L 258.392441 267.894528 
L 258.595477 274.291059 
L 259.001549 269.626196 
L 259.204585 278.564051 
L 259.407621 277.125359 
L 259.610657 278.552014 
L 259.813693 271.106382 
L 260.016729 274.866693 
L 260.219765 263.119548 
L 260.422801 268.174118 
L 260.828873 258.359759 
L 261.031909 268.678725 
L 261.234945 270.022149 
L 261.437981 268.794254 
L 261.641017 284.2882 
L 261.844053 270.828067 
L 262.047089 275.980752 
L 262.250125 268.758215 
L 262.45316 280.8635 
L 262.656196 277.781998 
L 262.859232 263.69125 
L 263.062268 258.244538 
L 263.265304 266.627281 
L 263.46834 269.571271 
L 263.671376 266.024055 
L 263.874412 259.911439 
L 264.077448 277.134279 
L 264.280484 266.804663 
L 264.48352 275.143147 
L 264.686556 254.568062 
L 265.092628 277.351362 
L 265.4987 264.32109 
L 265.701736 262.820617 
L 265.904772 259.072361 
L 266.107808 272.30622 
L 266.51388 266.574257 
L 266.716916 266.988385 
L 266.919952 268.168415 
L 267.122988 275.862318 
L 267.326024 268.526606 
L 267.52906 268.638705 
L 267.732096 270.156066 
L 267.935132 266.263579 
L 268.138168 264.923324 
L 268.341204 267.821164 
L 268.747276 280.849182 
L 268.950312 273.035162 
L 269.153348 271.121701 
L 269.55942 283.534011 
L 269.762456 273.22859 
L 269.965492 277.997059 
L 270.168528 265.85341 
L 270.371564 273.045091 
L 270.5746 267.922437 
L 270.980672 277.006289 
L 271.183708 281.155532 
L 271.386744 261.740719 
L 271.792816 268.073168 
L 271.995852 280.52214 
L 272.198888 282.006056 
L 272.60496 271.303899 
L 272.807996 279.766035 
L 273.011032 273.003327 
L 273.214068 284.630179 
L 273.417104 270.014663 
L 273.62014 271.438071 
L 273.823176 276.796301 
L 274.026212 274.877813 
L 274.229248 280.782427 
L 274.432284 256.027075 
L 274.63532 282.708591 
L 275.041392 271.583976 
L 275.244428 266.265106 
L 275.447464 278.656926 
L 275.6505 277.000088 
L 275.853536 271.978778 
L 276.056572 272.118564 
L 276.259608 271.855045 
L 276.462644 279.187481 
L 276.66568 278.747196 
L 276.868716 280.650622 
L 277.274788 271.034958 
L 277.68086 274.315853 
L 277.883896 279.009288 
L 278.086932 268.410884 
L 278.289968 281.374282 
L 278.493004 273.50869 
L 278.899076 281.983073 
L 279.102112 265.627113 
L 279.508184 283.810237 
L 279.71122 272.519155 
L 279.914256 274.334953 
L 280.117291 273.387424 
L 280.320327 274.067857 
L 280.523363 272.309847 
L 280.726399 277.736527 
L 281.132471 268.075854 
L 281.335507 278.31062 
L 281.538543 271.957166 
L 281.741579 261.426584 
L 281.944615 282.397237 
L 282.350687 271.617155 
L 282.553723 274.611365 
L 282.756759 263.306215 
L 283.162831 279.527917 
L 283.365867 271.81305 
L 283.568903 274.499241 
L 283.771939 284.747798 
L 284.178011 265.800977 
L 284.584083 278.364364 
L 284.787119 278.054029 
L 284.990155 253.39466 
L 285.193191 273.075021 
L 285.396227 271.159492 
L 285.599263 278.838163 
L 285.802299 272.175367 
L 286.005335 270.317195 
L 286.208371 255.65962 
L 286.411407 279.530138 
L 287.020515 267.309881 
L 287.223551 278.657113 
L 287.426587 277.141657 
L 287.629623 286.51805 
L 288.035695 224.092673 
L 288.238731 249.035531 
L 288.441767 259.954899 
L 288.644803 263.896555 
L 288.847839 260.992843 
L 289.050875 269.089632 
L 289.253911 282.158184 
L 289.456947 266.513917 
L 289.659983 277.097329 
L 289.863019 255.491066 
L 290.066055 267.613272 
L 290.269091 272.757612 
L 290.472127 267.203772 
L 290.675163 274.31507 
L 290.878199 274.404738 
L 291.081235 282.833505 
L 291.487307 271.571373 
L 291.690343 274.552839 
L 291.893379 273.382374 
L 292.096415 273.362789 
L 292.299451 277.992305 
L 292.705523 260.839326 
L 292.908559 276.078721 
L 293.111595 264.764268 
L 293.517667 286.648148 
L 293.720703 274.534039 
L 293.923739 270.415605 
L 294.126775 275.608658 
L 294.329811 265.230415 
L 294.532847 280.975459 
L 294.735883 282.061831 
L 294.938919 272.879146 
L 295.141955 270.777574 
L 295.344991 278.528494 
L 295.548027 276.698225 
L 295.751063 286.202456 
L 296.157135 279.503373 
L 296.360171 276.162178 
L 296.563207 277.55009 
L 296.766243 260.411926 
L 296.969279 279.530179 
L 297.172315 271.524378 
L 297.578386 276.388576 
L 297.984458 289.714421 
L 298.187494 271.056061 
L 298.39053 270.612652 
L 298.796602 258.404952 
L 298.999638 275.208886 
L 299.202674 272.174184 
L 299.40571 273.700918 
L 299.608746 270.45157 
L 299.811782 276.827933 
L 300.014818 265.531056 
L 300.217854 288.678459 
L 300.42089 280.24103 
L 300.623926 283.027561 
L 300.826962 281.041085 
L 301.029998 272.827702 
L 301.233034 283.15978 
L 301.43607 272.084921 
L 301.639106 272.394229 
L 301.842142 280.889112 
L 302.045178 282.208375 
L 302.248214 278.894103 
L 302.45125 282.029719 
L 302.654286 275.206174 
L 302.857322 280.198798 
L 303.263394 272.691172 
L 303.46643 266.661467 
L 303.669466 277.268394 
L 304.278574 267.59631 
L 304.48161 266.800649 
L 304.684646 274.514165 
L 304.887682 270.170453 
L 305.090718 269.159261 
L 305.699826 285.473022 
L 305.902862 261.412469 
L 306.105898 285.439377 
L 306.308934 286.922639 
L 306.715006 272.6177 
L 306.918042 277.55585 
L 307.121078 279.408391 
L 307.324114 276.070095 
L 307.52715 267.493494 
L 307.730186 280.650895 
L 307.933222 284.46923 
L 308.136258 280.441426 
L 308.339294 279.810978 
L 308.54233 287.006552 
L 308.745366 266.792777 
L 308.948402 281.641235 
L 309.151438 271.340545 
L 309.354474 269.969978 
L 309.760546 276.23253 
L 309.963582 266.577771 
L 310.166618 276.851898 
L 310.369654 278.275749 
L 310.57269 289.177532 
L 310.775726 272.562269 
L 310.978762 269.070309 
L 311.181798 276.627466 
L 311.384834 279.008929 
L 311.58787 277.220809 
L 311.790906 282.458662 
L 311.993942 283.939878 
L 312.196978 274.514054 
L 312.400014 273.983088 
L 312.60305 287.917781 
L 312.806086 283.222449 
L 313.009122 283.907084 
L 313.212158 281.546896 
L 313.415194 274.162603 
L 313.61823 273.120542 
L 313.821266 282.356883 
L 314.227338 276.307441 
L 314.430374 276.899361 
L 314.63341 265.832009 
L 315.039481 282.198617 
L 315.242517 277.705995 
L 315.445553 269.678265 
L 315.648589 277.921687 
L 315.851625 279.726469 
L 316.054661 286.369747 
L 316.257697 278.009629 
L 316.460733 275.412891 
L 316.663769 280.689586 
L 316.866805 263.828576 
L 317.069841 262.459646 
L 317.272877 259.381598 
L 317.475913 283.651183 
L 317.678949 280.366352 
L 317.881985 271.780446 
L 318.085021 278.967001 
L 318.288057 281.874366 
L 318.491093 280.282878 
L 318.694129 265.095038 
L 318.897165 278.452556 
L 319.100201 271.58568 
L 319.303237 277.3482 
L 319.506273 277.987117 
L 319.709309 267.592939 
L 319.912345 272.170404 
L 320.115381 287.755487 
L 320.521453 278.904297 
L 320.724489 287.101021 
L 320.927525 276.497494 
L 321.130561 275.40218 
L 321.333597 281.792867 
L 321.536633 270.771042 
L 321.739669 287.416144 
L 321.942705 273.650891 
L 322.145741 268.432724 
L 322.348777 276.521583 
L 322.551813 272.208608 
L 322.754849 278.243922 
L 322.957885 272.598886 
L 323.160921 279.605511 
L 323.363957 279.268487 
L 323.566993 274.720323 
L 323.770029 283.810813 
L 323.973065 280.072583 
L 324.176101 270.305611 
L 324.379137 275.332225 
L 324.582173 273.245596 
L 324.785209 277.354959 
L 324.988245 286.585221 
L 325.394317 269.033637 
L 325.800389 284.128147 
L 326.003425 286.794166 
L 326.206461 282.598937 
L 326.409497 285.23225 
L 326.612533 279.192584 
L 326.815569 284.773633 
L 327.018605 286.946833 
L 327.221641 268.493485 
L 327.627713 281.568958 
L 327.830749 277.553948 
L 328.033785 283.825063 
L 328.236821 281.79662 
L 328.439857 277.442528 
L 328.642893 275.97506 
L 328.845929 286.308351 
L 329.048965 288.443027 
L 329.252001 288.301839 
L 329.455037 286.267905 
L 329.658073 276.494035 
L 329.861109 283.619766 
L 330.267181 270.568877 
L 330.673253 290.045246 
L 330.876289 277.572268 
L 331.079325 274.983745 
L 331.282361 268.306619 
L 331.688433 282.280732 
L 331.891469 275.284409 
L 332.094505 273.481149 
L 332.297541 280.741001 
L 332.500576 282.259413 
L 332.703612 270.957292 
L 332.906648 284.869064 
L 333.109684 276.480968 
L 333.31272 286.11056 
L 333.718792 274.929049 
L 333.921828 280.56511 
L 334.124864 277.462517 
L 334.3279 277.960328 
L 334.530936 282.198334 
L 334.733972 282.103279 
L 334.937008 267.761516 
L 335.140044 277.169147 
L 335.34308 277.332585 
L 335.546116 278.391342 
L 335.749152 275.926684 
L 336.155224 279.87026 
L 336.35826 273.574015 
L 336.764332 286.073941 
L 336.967368 283.752454 
L 337.170404 284.083828 
L 337.37344 273.880734 
L 337.576476 286.39101 
L 337.779512 276.450017 
L 337.982548 276.051119 
L 338.185584 277.891339 
L 338.38862 283.073502 
L 338.591656 283.251243 
L 338.794692 271.33289 
L 338.997728 282.416354 
L 339.200764 276.37602 
L 339.4038 282.307406 
L 339.606836 274.354626 
L 339.809872 261.698538 
L 340.215944 282.989266 
L 340.41898 277.714192 
L 340.622016 282.944111 
L 340.825052 281.403886 
L 341.028088 277.80748 
L 341.231124 279.536933 
L 341.43416 277.369527 
L 341.637196 291.439495 
L 341.840232 279.174414 
L 342.043268 284.552666 
L 342.246304 278.635161 
L 342.44934 282.217329 
L 342.652376 277.216261 
L 342.855412 289.916186 
L 343.058448 281.686073 
L 343.261484 285.766762 
L 343.46452 283.196552 
L 343.667556 292.045756 
L 343.870592 286.703663 
L 344.073628 274.709536 
L 344.276664 284.75689 
L 344.4797 271.905995 
L 344.682736 286.621377 
L 344.885772 280.657821 
L 345.088808 279.564663 
L 345.49488 284.8963 
L 345.900952 277.520734 
L 346.103988 282.064557 
L 346.307024 266.829642 
L 346.51006 273.403317 
L 346.713096 270.185145 
L 346.916132 285.55567 
L 347.119168 280.568606 
L 347.322204 279.094427 
L 347.52524 275.564167 
L 347.728276 284.872226 
L 347.931312 287.968657 
L 348.134348 284.97925 
L 348.337384 270.04693 
L 348.743456 283.347217 
L 348.946492 269.715681 
L 349.149528 282.498319 
L 349.352564 281.438988 
L 349.5556 281.233835 
L 349.758636 291.021726 
L 349.961671 277.037411 
L 350.164707 278.903065 
L 350.367743 273.013264 
L 350.570779 287.239363 
L 350.773815 275.600303 
L 350.976851 282.962667 
L 351.179887 279.820577 
L 351.382923 285.381246 
L 351.585959 272.868612 
L 351.788995 269.623766 
L 351.992031 281.479061 
L 352.195067 273.072358 
L 352.398103 276.245556 
L 352.601139 282.56854 
L 352.804175 274.954253 
L 353.007211 276.211181 
L 353.210247 286.338372 
L 353.413283 284.072454 
L 353.616319 286.041013 
L 353.819355 289.644628 
L 354.225427 279.915582 
L 354.428463 280.476708 
L 354.631499 285.125932 
L 354.834535 276.890849 
L 355.037571 279.049656 
L 355.240607 290.250282 
L 355.646679 258.662755 
L 355.849715 282.002511 
L 356.052751 281.332197 
L 356.255787 283.111384 
L 356.458823 272.99688 
L 356.661859 281.643799 
L 356.864895 282.905979 
L 357.270967 272.488437 
L 357.474003 282.887992 
L 357.677039 275.00862 
L 357.880075 274.774955 
L 358.083111 273.435808 
L 358.286147 279.899342 
L 358.489183 279.653094 
L 358.692219 270.433695 
L 358.895255 278.869907 
L 359.098291 270.309378 
L 359.301327 267.445375 
L 359.504363 276.988445 
L 359.707399 276.439002 
L 359.910435 282.969007 
L 360.113471 279.451353 
L 360.316507 288.470796 
L 360.519543 280.224064 
L 360.722579 278.445363 
L 360.925615 280.029786 
L 361.128651 279.223023 
L 361.331687 287.026221 
L 361.534723 287.536878 
L 361.737759 279.522234 
L 362.143831 275.397297 
L 362.346867 277.86887 
L 362.549903 291.094812 
L 362.752939 275.309301 
L 362.955975 270.945058 
L 363.159011 280.920211 
L 363.362047 281.592459 
L 363.565083 286.618642 
L 363.768119 282.975721 
L 363.971155 276.243604 
L 364.174191 281.133074 
L 364.377227 280.680903 
L 364.783299 276.430656 
L 364.986335 276.02097 
L 365.189371 281.183528 
L 365.392407 278.8518 
L 365.595443 279.990636 
L 365.798479 275.64211 
L 366.001515 275.977181 
L 366.204551 278.867684 
L 366.407587 283.554398 
L 366.813659 279.911858 
L 367.016695 280.122123 
L 367.219731 282.792871 
L 367.422767 280.654363 
L 367.625802 285.101004 
L 367.828838 280.977947 
L 368.031874 279.863246 
L 368.23491 288.97628 
L 368.437946 265.61686 
L 368.640982 280.854546 
L 368.844018 278.935993 
L 369.047054 274.58856 
L 369.25009 284.71648 
L 369.453126 280.417064 
L 369.656162 280.458333 
L 369.859198 281.083441 
L 370.062234 293.530271 
L 370.26527 279.086388 
L 370.468306 293.415273 
L 370.671342 284.138636 
L 370.874378 281.55764 
L 371.077414 274.880835 
L 371.28045 295.488 
L 371.686522 270.939612 
L 371.889558 284.761428 
L 372.092594 286.932119 
L 372.29563 285.356833 
L 372.498666 286.229856 
L 372.701702 276.620566 
L 372.904738 284.034998 
L 373.107774 287.29835 
L 373.31081 288.043693 
L 373.513846 275.879822 
L 373.716882 278.55693 
L 373.919918 279.633873 
L 374.122954 282.331239 
L 374.32599 288.355824 
L 374.529026 276.205473 
L 374.732062 274.558048 
L 374.935098 285.990081 
L 375.34117 280.882619 
L 375.544206 267.396497 
L 375.747242 287.005044 
L 376.153314 271.95442 
L 376.35635 293.865544 
L 376.559386 278.837506 
L 376.762422 285.427192 
L 376.965458 272.858481 
L 377.168494 286.781205 
L 377.37153 279.375555 
L 377.574566 278.028411 
L 377.980638 282.038116 
L 378.183674 279.619283 
L 378.38671 287.970306 
L 378.589746 279.493273 
L 378.792782 290.069717 
L 379.198854 263.548343 
L 379.40189 278.585814 
L 379.604926 280.256865 
L 379.807962 285.485756 
L 380.010998 284.581394 
L 380.214034 278.035572 
L 380.41707 282.591546 
L 380.620106 271.989965 
L 380.823142 274.177446 
L 381.229214 289.552835 
L 381.43225 280.232596 
L 381.635286 288.978186 
L 381.838322 280.247108 
L 382.041358 285.148457 
L 382.44743 274.726282 
L 382.650466 244.78399 
L 382.853502 182.658789 
L 383.056538 254.565385 
L 383.259574 256.136218 
L 383.665646 269.536581 
L 383.868682 272.566976 
L 384.274754 285.001266 
L 384.47779 279.658335 
L 384.883862 286.373925 
L 385.086897 282.376987 
L 385.289933 272.652936 
L 385.492969 286.436853 
L 385.696005 278.880838 
L 385.899041 288.490022 
L 386.102077 279.91712 
L 386.305113 286.069999 
L 386.508149 281.658987 
L 386.711185 281.713286 
L 386.914221 273.818037 
L 387.117257 271.929604 
L 387.320293 276.733414 
L 387.523329 277.830739 
L 387.726365 276.475967 
L 387.929401 287.877584 
L 388.132437 284.177188 
L 388.335473 287.275241 
L 388.538509 277.111062 
L 388.741545 280.155818 
L 388.944581 278.646956 
L 389.147617 283.447124 
L 389.350653 270.032055 
L 389.553689 284.013529 
L 389.756725 278.697682 
L 389.959761 288.45723 
L 390.162797 281.028929 
L 390.365833 280.004782 
L 390.568869 276.324119 
L 390.771905 284.527845 
L 390.974941 279.399005 
L 391.177977 278.319173 
L 391.381013 285.274094 
L 391.584049 286.264277 
L 391.787085 283.657374 
L 391.990121 288.998552 
L 392.193157 270.994516 
L 392.396193 290.587892 
L 393.005301 278.865927 
L 393.208337 279.313777 
L 393.411373 278.117031 
L 393.614409 285.196639 
L 393.817445 276.031344 
L 394.020481 283.603353 
L 394.426553 287.699112 
L 394.629589 277.48837 
L 394.832625 286.616504 
L 395.035661 271.723603 
L 395.238697 280.577222 
L 395.441733 279.724152 
L 395.644769 280.933987 
L 395.847805 288.191339 
L 396.050841 279.051149 
L 396.253877 282.296197 
L 396.456913 294.58541 
L 396.862985 282.502081 
L 397.066021 285.713013 
L 397.269057 280.45158 
L 397.472093 291.07359 
L 397.675129 283.81382 
L 397.878165 285.424855 
L 398.081201 282.304421 
L 398.284237 287.842099 
L 398.487273 275.752562 
L 398.487273 275.752562 
" style="fill:none;stroke:#1f77b4;stroke-linecap:square;stroke-width:1.5;"/>
   </g>
   <g id="line2d_19">
    <path clip-path="url(#p0d42e569dd)" d="M 73.832727 94.060003 
L 74.035763 110.646597 
L 74.238799 87.785154 
L 74.644871 146.549107 
L 75.050943 105.832525 
L 75.457015 128.241972 
L 75.660051 105.332451 
L 75.863087 127.905259 
L 76.066123 111.636123 
L 76.269159 122.08005 
L 76.472195 120.115954 
L 76.675231 148.940774 
L 76.878267 87.954783 
L 77.284339 129.606614 
L 77.487375 87.261731 
L 77.690411 115.412256 
L 77.893447 100.410432 
L 78.096483 119.078592 
L 78.299519 98.708352 
L 78.502555 127.237752 
L 78.705591 98.427729 
L 78.908627 111.276753 
L 79.111663 107.966531 
L 79.314699 115.558403 
L 79.517735 91.82451 
L 79.720771 93.971991 
L 79.923807 134.232517 
L 80.126843 140.729414 
L 80.329879 88.678759 
L 80.532915 143.412148 
L 80.735951 105.094211 
L 81.142023 125.211216 
L 81.345059 133.895509 
L 81.548095 101.451148 
L 81.751131 114.945097 
L 81.954167 114.682433 
L 82.157203 112.85017 
L 82.360239 109.743127 
L 82.563275 113.900813 
L 82.766311 93.275905 
L 83.172383 104.492173 
L 83.375419 138.430518 
L 83.781491 109.076195 
L 83.984527 82.440903 
L 84.390599 127.774991 
L 84.593635 119.321911 
L 84.999707 140.121166 
L 85.202743 115.211675 
L 85.405779 114.504747 
L 85.608815 129.654981 
L 85.811851 103.961384 
L 86.014887 122.454862 
L 86.217923 122.639964 
L 86.420959 96.012987 
L 86.623995 127.420716 
L 86.827031 115.838391 
L 87.030067 121.489392 
L 87.233103 143.102422 
L 87.436138 94.208795 
L 87.639174 130.563498 
L 87.84221 135.796357 
L 88.045246 94.199493 
L 88.248282 136.818899 
L 88.451318 130.080635 
L 88.654354 81.709918 
L 89.060426 96.688069 
L 89.263462 96.713382 
L 89.466498 134.989244 
L 89.669534 107.729804 
L 89.87257 114.099155 
L 90.075606 115.265527 
L 90.278642 128.894172 
L 90.481678 93.08176 
L 90.88775 134.460833 
L 91.293822 83.218597 
L 91.496858 121.187197 
L 91.699894 109.993326 
L 91.90293 114.639846 
L 92.105966 123.013743 
L 92.309002 115.178036 
L 92.512038 116.401904 
L 92.715074 82.894503 
L 92.91811 126.602816 
L 93.121146 134.531918 
L 93.527218 110.918432 
L 93.730254 106.940249 
L 93.93329 114.921545 
L 94.136326 109.483846 
L 94.339362 127.810692 
L 94.542398 96.227692 
L 94.745434 113.712001 
L 94.94847 113.441269 
L 95.354542 75.064208 
L 95.557578 117.584303 
L 95.760614 130.903811 
L 95.96365 115.2916 
L 96.369722 144.292165 
L 96.572758 102.348019 
L 96.775794 86.798935 
L 96.97883 124.247011 
L 97.181866 102.480533 
L 97.384902 127.601423 
L 97.587938 135.515306 
L 97.790974 122.204105 
L 97.99401 117.832222 
L 98.197046 102.320064 
L 98.400082 114.756446 
L 98.603118 111.452367 
L 98.806154 128.085583 
L 99.00919 117.080607 
L 99.212226 122.036672 
L 99.415262 102.566128 
L 99.618298 130.596675 
L 99.821334 127.937981 
L 100.02437 95.641041 
L 100.227406 97.606494 
L 100.430442 90.673521 
L 100.633478 101.572802 
L 100.836514 93.758921 
L 101.03955 119.470507 
L 101.242586 110.714028 
L 101.445622 120.4777 
L 101.648658 104.003285 
L 101.851694 105.63658 
L 102.05473 80.458664 
L 102.460802 137.380974 
L 102.866874 96.186984 
L 103.475982 117.746975 
L 103.679018 95.846753 
L 104.08509 133.821916 
L 104.491162 113.896589 
L 104.897233 147.721725 
L 105.100269 103.657722 
L 105.303305 133.817359 
L 105.506341 114.696331 
L 105.709377 80.481967 
L 105.912413 104.451995 
L 106.115449 104.387912 
L 106.318485 142.504404 
L 106.521521 115.961228 
L 106.724557 111.597867 
L 106.927593 103.37809 
L 107.333665 117.834748 
L 107.536701 115.026764 
L 107.739737 82.053218 
L 108.145809 140.040051 
L 108.348845 115.951287 
L 108.551881 125.639227 
L 108.754917 123.143076 
L 108.957953 104.06907 
L 109.160989 104.101909 
L 109.364025 116.166532 
L 109.567061 113.44639 
L 109.770097 108.173272 
L 109.973133 111.276801 
L 110.176169 99.79119 
L 110.379205 123.311966 
L 110.582241 108.54378 
L 110.785277 122.153284 
L 110.988313 114.818885 
L 111.191349 119.008077 
L 111.394385 110.588851 
L 111.597421 116.069877 
L 111.800457 101.768569 
L 112.003493 106.498607 
L 112.206529 104.319224 
L 112.409565 131.621332 
L 112.815637 108.484782 
L 113.018673 106.465541 
L 113.221709 130.865827 
L 113.424745 112.37836 
L 113.627781 105.335067 
L 113.830817 107.398158 
L 114.033853 151.55008 
L 114.236889 113.40716 
L 114.642961 145.668397 
L 114.845997 109.711942 
L 115.252069 141.920357 
L 115.455105 118.486159 
L 115.658141 112.523706 
L 115.861177 96.721578 
L 116.470285 138.985038 
L 116.673321 127.055332 
L 116.876357 99.573805 
L 117.079393 134.265197 
L 117.282429 139.52361 
L 117.485465 125.119784 
L 117.688501 127.873377 
L 117.891537 135.815749 
L 118.094573 118.256209 
L 118.297609 126.850105 
L 118.500645 113.157478 
L 118.703681 129.840914 
L 118.906717 105.991388 
L 119.312789 142.663037 
L 119.515825 121.453606 
L 119.718861 137.727847 
L 119.921897 135.484944 
L 120.124933 123.383664 
L 120.327969 128.319405 
L 120.531005 143.193273 
L 120.937077 120.080178 
L 121.140113 162.025509 
L 121.343149 145.748056 
L 121.546185 152.126066 
L 121.749221 133.44318 
L 121.952257 149.159966 
L 122.155293 126.233681 
L 122.358329 142.269316 
L 122.561364 130.415743 
L 122.7644 139.213661 
L 122.967436 127.853909 
L 123.373508 169.772065 
L 123.576544 143.545172 
L 123.77958 149.653728 
L 123.982616 160.367463 
L 124.185652 131.859229 
L 124.388688 142.89225 
L 124.591724 126.891486 
L 124.79476 158.679779 
L 124.997796 167.894814 
L 125.200832 146.382569 
L 125.403868 139.50594 
L 125.606904 160.034654 
L 125.80994 129.934216 
L 126.012976 157.62866 
L 126.216012 165.936606 
L 126.622084 155.801973 
L 126.82512 139.329331 
L 127.028156 171.348868 
L 127.231192 166.502134 
L 127.434228 148.038504 
L 127.637264 155.604404 
L 127.8403 147.824785 
L 128.043336 153.330788 
L 128.246372 167.489988 
L 128.449408 156.58085 
L 128.652444 158.069726 
L 128.85548 161.108528 
L 129.058516 153.03762 
L 129.261552 137.756493 
L 129.464588 148.666213 
L 129.667624 166.82393 
L 129.87066 163.412326 
L 130.073696 154.563059 
L 130.276732 171.02158 
L 130.479768 169.894029 
L 130.682804 162.411793 
L 130.88584 168.41026 
L 131.088876 159.684353 
L 131.291912 181.728262 
L 131.494948 172.603312 
L 131.697984 172.328827 
L 131.90102 165.502926 
L 132.104056 168.438168 
L 132.307092 162.237488 
L 132.510128 172.473042 
L 132.713164 163.731622 
L 132.9162 183.223394 
L 133.119236 166.495757 
L 133.322272 170.284949 
L 133.525308 186.719321 
L 133.728344 167.4325 
L 133.93138 171.922173 
L 134.134416 165.118875 
L 134.337452 180.824125 
L 134.540488 179.88071 
L 134.94656 175.264543 
L 135.149596 180.388973 
L 135.352632 179.321864 
L 135.555668 177.531812 
L 135.758704 182.93333 
L 135.96174 173.193785 
L 136.164776 187.750936 
L 136.570848 172.592911 
L 136.773884 181.302074 
L 137.179956 181.010932 
L 137.382992 174.195525 
L 137.586028 176.090952 
L 137.789064 174.23358 
L 137.9921 179.752617 
L 138.195136 175.917921 
L 138.398172 175.767049 
L 138.601208 178.003682 
L 138.804244 178.116927 
L 139.00728 163.116056 
L 139.210316 180.125649 
L 139.616388 190.953886 
L 139.819424 176.15214 
L 140.022459 170.76207 
L 140.225495 188.209126 
L 140.428531 176.342293 
L 140.631567 172.391505 
L 140.834603 182.030811 
L 141.037639 174.501897 
L 141.240675 179.773575 
L 141.443711 189.4234 
L 141.849783 165.567452 
L 142.052819 176.385309 
L 142.255855 196.516104 
L 142.458891 185.800555 
L 142.661927 200.632051 
L 142.864963 172.489836 
L 143.067999 178.977797 
L 143.271035 190.392267 
L 143.474071 172.936626 
L 143.677107 183.998301 
L 143.880143 186.68306 
L 144.083179 180.786817 
L 144.286215 180.478689 
L 144.489251 185.281653 
L 144.692287 184.012271 
L 144.895323 192.095942 
L 145.098359 212.401671 
L 145.301395 185.703927 
L 145.504431 198.844194 
L 145.707467 182.080003 
L 145.910503 179.857083 
L 146.113539 193.807897 
L 146.316575 182.007525 
L 146.722647 185.771066 
L 146.925683 174.075073 
L 147.534791 205.626698 
L 147.737827 197.064374 
L 147.940863 182.894992 
L 148.143899 185.806204 
L 148.346935 179.377153 
L 148.549971 169.075334 
L 148.753007 186.84419 
L 148.956043 192.477808 
L 149.159079 180.906715 
L 149.362115 198.840596 
L 149.565151 189.559438 
L 149.971223 199.512408 
L 150.377295 176.032295 
L 150.580331 190.061193 
L 150.783367 190.360871 
L 150.986403 189.108517 
L 151.189439 196.337531 
L 151.392475 178.691233 
L 151.595511 204.596461 
L 151.798547 183.701594 
L 152.204619 191.94499 
L 152.610691 179.864965 
L 152.813727 191.857436 
L 153.016763 183.378303 
L 153.219799 189.482477 
L 153.422835 199.646466 
L 153.828907 194.126617 
L 154.031943 200.055605 
L 154.234979 201.38193 
L 154.438015 194.786821 
L 154.641051 200.041884 
L 154.844087 177.80348 
L 155.047123 197.754789 
L 155.250159 190.438445 
L 155.453195 187.59736 
L 155.656231 199.754933 
L 155.859267 193.056986 
L 156.062303 190.967587 
L 156.265339 183.293851 
L 156.468375 185.365245 
L 156.671411 205.879163 
L 156.874447 182.008648 
L 157.077483 196.819621 
L 157.280519 179.956846 
L 157.483554 191.391666 
L 157.68659 184.351375 
L 157.889626 197.812456 
L 158.092662 203.583568 
L 158.295698 195.184662 
L 158.498734 194.142302 
L 158.70177 197.316493 
L 158.904806 185.373297 
L 159.107842 195.536069 
L 159.310878 189.533264 
L 159.513914 190.508488 
L 159.71695 195.97452 
L 159.919986 185.641516 
L 160.123022 197.350204 
L 160.326058 198.226005 
L 160.529094 189.579302 
L 160.73213 194.018812 
L 160.935166 194.464675 
L 161.138202 183.323215 
L 161.544274 198.406268 
L 161.74731 196.984466 
L 161.950346 192.544614 
L 162.153382 201.195606 
L 162.356418 190.409115 
L 162.559454 208.38994 
L 162.965526 184.073735 
L 163.168562 186.20424 
L 163.371598 184.600133 
L 163.574634 195.855991 
L 163.77767 192.990373 
L 163.980706 205.07563 
L 164.183742 193.657861 
L 164.386778 195.755681 
L 164.589814 199.113582 
L 164.79285 185.599169 
L 164.995886 208.221529 
L 165.198922 188.439669 
L 165.401958 191.350295 
L 165.604994 180.250974 
L 165.80803 191.608795 
L 166.214102 180.830752 
L 166.417138 199.503959 
L 166.620174 187.056629 
L 166.82321 197.966055 
L 167.229282 194.383716 
L 167.432318 180.237977 
L 167.635354 205.166587 
L 167.83839 204.948822 
L 168.244462 176.730619 
L 168.447498 185.39153 
L 168.650534 210.362545 
L 168.85357 188.320732 
L 169.056606 187.065 
L 169.259642 204.791037 
L 169.462678 187.856506 
L 169.665714 207.963183 
L 170.274822 187.183207 
L 170.680894 205.014181 
L 170.88393 204.839031 
L 171.086966 199.856803 
L 171.290002 199.376868 
L 171.493038 196.506151 
L 171.696074 186.488546 
L 172.305182 197.886398 
L 172.508218 199.623808 
L 172.711254 186.834316 
L 172.91429 195.473637 
L 173.117326 175.573939 
L 173.523398 203.774602 
L 173.726434 186.201186 
L 173.92947 192.878079 
L 174.132506 187.578566 
L 174.335542 199.440525 
L 174.538578 203.14622 
L 174.741614 188.288629 
L 174.944649 202.300323 
L 175.147685 174.623894 
L 175.756793 205.108889 
L 175.959829 197.316023 
L 176.162865 182.96817 
L 176.365901 191.267397 
L 176.771973 196.589752 
L 176.975009 190.554747 
L 177.178045 208.603733 
L 177.381081 190.602908 
L 177.584117 197.578754 
L 177.787153 190.09332 
L 177.990189 203.212658 
L 178.193225 192.302978 
L 178.396261 197.699937 
L 178.599297 189.610688 
L 178.802333 203.985017 
L 179.005369 194.865812 
L 179.208405 206.346189 
L 179.411441 192.336108 
L 179.614477 197.918685 
L 179.817513 206.931823 
L 180.020549 192.950446 
L 180.223585 204.048672 
L 180.426621 197.011341 
L 180.629657 195.514041 
L 180.832693 185.807199 
L 181.238765 198.149752 
L 181.441801 197.111858 
L 181.644837 185.983224 
L 181.847873 204.310417 
L 182.050909 187.301247 
L 182.456981 204.45998 
L 182.660017 198.98133 
L 182.863053 199.860017 
L 183.066089 205.861691 
L 183.269125 196.420741 
L 183.472161 200.270208 
L 183.675197 189.832976 
L 183.878233 202.351355 
L 184.081269 183.794447 
L 184.893413 201.415098 
L 185.096449 200.957535 
L 185.299485 195.762315 
L 185.502521 209.128115 
L 185.705557 196.597084 
L 185.908593 209.079361 
L 186.111629 186.428978 
L 186.314665 201.237884 
L 186.517701 193.621359 
L 186.923773 209.21402 
L 187.126809 189.654236 
L 187.329845 202.332697 
L 187.532881 195.644389 
L 187.938953 202.155485 
L 188.141989 177.856635 
L 188.548061 216.041813 
L 188.751097 184.757181 
L 189.157169 197.910478 
L 189.360205 184.916265 
L 189.563241 194.830129 
L 189.766277 182.194583 
L 189.969313 192.248282 
L 190.172349 190.940182 
L 190.375385 201.604361 
L 190.578421 199.599726 
L 190.781457 203.131299 
L 190.984493 182.729455 
L 191.390565 209.330478 
L 191.593601 194.630768 
L 191.796637 195.862714 
L 191.999673 183.488357 
L 192.202709 192.815504 
L 192.405744 188.010276 
L 192.60878 190.764297 
L 192.811816 185.173621 
L 193.014852 192.008201 
L 193.217888 204.476026 
L 193.420924 197.947678 
L 193.62396 201.073017 
L 193.826996 193.255453 
L 194.030032 197.152651 
L 194.233068 187.988053 
L 194.436104 200.256987 
L 194.63914 195.850111 
L 194.842176 196.806926 
L 195.045212 184.470346 
L 195.248248 204.510064 
L 195.451284 183.811274 
L 195.65432 201.957156 
L 195.857356 193.260887 
L 196.060392 207.114915 
L 196.263428 187.531797 
L 196.466464 198.667516 
L 196.6695 193.555136 
L 196.872536 198.251041 
L 197.075572 209.856236 
L 197.278608 210.550251 
L 197.481644 185.274119 
L 197.68468 210.105424 
L 197.887716 192.233495 
L 198.090752 212.030309 
L 198.293788 204.010274 
L 198.496824 200.667453 
L 198.69986 222.125555 
L 198.902896 195.470471 
L 199.105932 192.566133 
L 199.308968 205.666595 
L 199.71504 196.440763 
L 199.918076 181.325482 
L 200.324148 205.350873 
L 200.73022 185.712604 
L 200.933256 213.715965 
L 201.136292 195.964429 
L 201.339328 207.29488 
L 201.542364 210.762253 
L 201.7454 200.880848 
L 201.948436 201.021303 
L 202.151472 192.887996 
L 202.354508 190.484208 
L 202.557544 201.118164 
L 202.76058 204.105578 
L 202.963616 200.840446 
L 203.166652 190.215518 
L 203.369688 204.938074 
L 203.572724 200.902511 
L 203.77576 211.458564 
L 203.978796 207.56061 
L 204.181832 212.307147 
L 204.384868 212.857129 
L 204.587904 187.80262 
L 204.993976 208.966112 
L 205.197012 195.201526 
L 205.400048 211.730169 
L 205.603084 199.66985 
L 205.80612 195.873013 
L 206.009156 194.777861 
L 206.212192 184.849573 
L 206.415228 182.080903 
L 206.618264 205.006309 
L 206.8213 207.758865 
L 207.024336 208.389507 
L 207.227372 202.984523 
L 207.430408 201.798967 
L 207.633444 199.879163 
L 207.83648 200.575429 
L 208.039516 194.511282 
L 208.242552 197.635188 
L 208.445588 204.043854 
L 208.85166 188.031839 
L 209.054696 193.086481 
L 209.257732 205.08757 
L 209.460768 201.136916 
L 209.663804 201.959952 
L 209.86684 192.665446 
L 210.069875 202.517702 
L 210.272911 203.218319 
L 210.475947 201.784754 
L 210.678983 208.227911 
L 210.882019 193.959376 
L 211.085055 190.130359 
L 211.288091 200.778649 
L 211.491127 204.720669 
L 211.694163 182.373262 
L 211.897199 199.958934 
L 212.100235 192.260864 
L 212.303271 197.14625 
L 212.506307 197.405095 
L 212.709343 197.191608 
L 212.912379 185.101235 
L 213.115415 212.909441 
L 213.318451 187.686639 
L 213.521487 192.17989 
L 213.724523 200.800807 
L 213.927559 190.1384 
L 214.130595 196.278852 
L 214.333631 198.594537 
L 214.536667 188.765166 
L 214.739703 197.2845 
L 215.145775 191.316739 
L 215.348811 194.069326 
L 215.551847 203.303059 
L 215.754883 202.713838 
L 215.957919 196.260873 
L 216.160955 180.714428 
L 216.567027 206.654817 
L 216.973099 184.697701 
L 217.176135 186.062894 
L 217.379171 185.46267 
L 217.582207 176.236243 
L 217.785243 184.122399 
L 217.988279 206.280312 
L 218.191315 195.10397 
L 218.394351 199.214466 
L 218.597387 194.031098 
L 218.800423 203.679706 
L 219.003459 187.510295 
L 219.206495 207.265375 
L 219.409531 184.996835 
L 219.612567 186.166301 
L 219.815603 191.376187 
L 220.018639 186.089779 
L 220.221675 205.192426 
L 220.424711 172.414873 
L 220.627747 199.278834 
L 220.830783 183.752651 
L 221.033819 200.445012 
L 221.236855 184.780841 
L 221.439891 205.073629 
L 221.642927 193.771136 
L 221.845963 193.56059 
L 222.048999 193.742854 
L 222.252035 193.297919 
L 222.455071 173.660216 
L 222.658107 191.761016 
L 222.861143 198.34495 
L 223.064179 197.212898 
L 223.267215 181.290006 
L 223.470251 194.029946 
L 223.673287 185.077953 
L 223.876323 188.389035 
L 224.079359 184.870722 
L 224.282395 212.320707 
L 224.485431 200.230131 
L 224.688467 204.435712 
L 224.891503 200.050113 
L 225.094539 189.402452 
L 225.297575 204.969351 
L 225.500611 186.344878 
L 225.703647 178.600985 
L 225.906683 207.053491 
L 226.109719 201.392157 
L 226.515791 181.720111 
L 226.718827 182.562134 
L 226.921863 180.84078 
L 227.124899 191.446397 
L 227.327935 187.612168 
L 227.53097 192.129956 
L 227.734006 182.980819 
L 228.140078 194.13146 
L 228.54615 183.582082 
L 228.749186 194.928142 
L 228.952222 190.509462 
L 229.155258 180.722363 
L 229.358294 198.754293 
L 229.56133 198.577807 
L 229.764366 176.422486 
L 229.967402 190.003335 
L 230.170438 188.302029 
L 230.57651 200.412351 
L 230.779546 195.954612 
L 230.982582 201.158239 
L 231.185618 195.525472 
L 231.388654 194.935501 
L 231.59169 189.267931 
L 231.794726 196.176438 
L 231.997762 197.751674 
L 232.200798 212.494358 
L 232.403834 202.480952 
L 232.60687 175.107776 
L 232.809906 181.515755 
L 233.012942 198.628777 
L 233.215978 192.220282 
L 233.62205 212.613316 
L 233.825086 193.247252 
L 234.028122 189.402127 
L 234.231158 202.527778 
L 234.434194 195.284329 
L 234.63723 192.676348 
L 234.840266 203.29628 
L 235.043302 190.758986 
L 235.246338 205.239166 
L 235.449374 180.75021 
L 236.261518 210.014949 
L 236.464554 191.671933 
L 236.66759 191.78125 
L 236.870626 189.548318 
L 237.073662 219.223408 
L 237.276698 194.528766 
L 237.68277 203.414186 
L 237.885806 203.746597 
L 238.088842 197.052164 
L 238.291878 203.435838 
L 238.494914 182.988343 
L 238.900986 215.457005 
L 239.104022 194.826361 
L 239.307058 193.477912 
L 239.510094 183.148895 
L 239.71313 189.105595 
L 239.916166 189.231701 
L 240.119202 205.168523 
L 240.322238 204.376952 
L 240.72831 200.248369 
L 240.931346 185.991644 
L 241.134382 206.619401 
L 241.337418 189.493676 
L 241.540454 190.386504 
L 241.74349 179.75473 
L 241.946526 195.288638 
L 242.149562 197.047761 
L 242.352598 189.074933 
L 242.555634 212.869337 
L 242.75867 190.312459 
L 242.961706 184.154043 
L 243.367778 200.717338 
L 243.570814 185.767581 
L 243.77385 182.607449 
L 243.976886 199.98244 
L 244.179922 182.524232 
L 244.382958 194.273425 
L 244.585994 193.614178 
L 244.992065 207.286408 
L 245.195101 193.008426 
L 245.398137 192.058356 
L 245.601173 203.022283 
L 245.804209 194.128815 
L 246.007245 212.147261 
L 246.210281 211.000229 
L 246.413317 207.706885 
L 246.616353 193.597723 
L 246.819389 198.433042 
L 247.022425 198.558258 
L 247.225461 190.20231 
L 247.428497 206.817078 
L 247.631533 163.531755 
L 248.037605 203.486587 
L 248.240641 187.556586 
L 248.443677 201.37622 
L 248.646713 200.961713 
L 248.849749 210.687307 
L 249.052785 185.948092 
L 249.255821 199.613379 
L 249.458857 223.639557 
L 249.661893 175.263959 
L 249.864929 173.519867 
L 250.067965 186.019178 
L 250.271001 186.428532 
L 250.474037 202.811919 
L 250.677073 197.925307 
L 250.880109 199.479297 
L 251.083145 204.803748 
L 251.286181 206.136216 
L 251.489217 204.497428 
L 251.692253 194.735193 
L 251.895289 204.751241 
L 252.098325 178.423857 
L 252.504397 195.326277 
L 252.707433 195.583361 
L 252.910469 176.910615 
L 253.113505 202.600736 
L 253.316541 182.651415 
L 253.519577 178.769142 
L 253.925649 216.882283 
L 254.128685 192.537938 
L 254.331721 195.750561 
L 254.737793 177.876612 
L 254.940829 181.08478 
L 255.143865 196.557097 
L 255.346901 177.345609 
L 255.549937 206.852351 
L 255.752973 182.850578 
L 255.956009 191.410427 
L 256.362081 175.385552 
L 256.565117 190.942912 
L 256.768153 191.576303 
L 256.971189 191.48569 
L 257.174225 206.865042 
L 257.377261 174.519478 
L 257.580297 199.863263 
L 257.986369 194.521976 
L 258.189405 189.219275 
L 258.392441 192.550236 
L 258.595477 193.765175 
L 258.798513 197.408432 
L 259.001549 177.738584 
L 259.204585 203.677823 
L 259.407621 214.726924 
L 259.610657 192.337217 
L 259.813693 207.544343 
L 260.016729 181.148222 
L 260.219765 204.543209 
L 260.422801 188.101197 
L 260.625837 160.507671 
L 260.828873 202.162909 
L 261.031909 192.423117 
L 261.234945 192.793629 
L 261.437981 180.323813 
L 261.641017 199.521946 
L 261.844053 197.20471 
L 262.047089 201.240156 
L 262.250125 195.981514 
L 262.45316 198.190811 
L 262.656196 206.430287 
L 263.062268 182.93877 
L 263.265304 204.457357 
L 263.46834 199.51395 
L 263.671376 198.224411 
L 263.874412 219.290235 
L 264.077448 195.657359 
L 264.280484 203.104209 
L 264.48352 166.009264 
L 264.686556 199.464788 
L 264.889592 207.445794 
L 265.092628 194.03902 
L 265.295664 189.775205 
L 265.4987 189.048076 
L 265.701736 192.441901 
L 265.904772 199.896771 
L 266.107808 184.51323 
L 266.310844 198.525568 
L 266.51388 202.860922 
L 266.716916 192.769971 
L 266.919952 198.53564 
L 267.122988 215.245361 
L 267.326024 205.675301 
L 267.52906 177.316526 
L 267.935132 194.713075 
L 268.138168 196.322818 
L 268.341204 201.072759 
L 268.54424 195.878581 
L 268.747276 201.75172 
L 268.950312 195.950878 
L 269.153348 201.538242 
L 269.356384 202.000416 
L 269.55942 176.845882 
L 269.762456 172.321438 
L 269.965492 175.713495 
L 270.168528 190.032193 
L 270.371564 182.053803 
L 270.5746 202.59316 
L 270.777636 194.719821 
L 270.980672 199.09795 
L 271.183708 199.339678 
L 271.386744 187.402573 
L 271.58978 202.042214 
L 271.792816 191.042559 
L 271.995852 208.383846 
L 272.401924 175.983599 
L 272.60496 193.846263 
L 272.807996 182.485956 
L 273.011032 199.623154 
L 273.214068 187.293004 
L 273.417104 199.701314 
L 273.62014 186.969436 
L 273.823176 194.301878 
L 274.026212 181.8664 
L 274.229248 180.748332 
L 274.432284 198.944713 
L 274.63532 206.859153 
L 274.838356 203.780772 
L 275.041392 217.135997 
L 275.244428 194.38883 
L 275.6505 195.944483 
L 275.853536 195.460551 
L 276.056572 186.492035 
L 276.259608 211.166857 
L 276.66568 187.721462 
L 276.868716 190.833115 
L 277.071752 191.731006 
L 277.274788 189.181723 
L 277.477824 191.519676 
L 277.68086 187.412916 
L 277.883896 189.305761 
L 278.086932 171.862314 
L 278.289968 184.094013 
L 278.493004 186.981623 
L 278.69604 212.842205 
L 278.899076 177.136598 
L 279.305148 191.385312 
L 279.508184 207.944153 
L 279.914256 188.958478 
L 280.117291 188.534173 
L 280.320327 212.017756 
L 280.523363 210.998441 
L 280.726399 192.242151 
L 280.929435 208.0883 
L 281.132471 180.059955 
L 281.335507 200.027671 
L 281.741579 189.885508 
L 281.944615 191.740415 
L 282.147651 185.139902 
L 282.553723 208.556657 
L 282.959795 186.732326 
L 283.162831 200.066212 
L 283.365867 192.284324 
L 283.568903 176.284452 
L 283.771939 202.340864 
L 283.974975 209.90021 
L 284.178011 176.287672 
L 284.381047 171.040985 
L 284.584083 196.423034 
L 284.787119 181.608349 
L 284.990155 199.145052 
L 285.193191 194.540299 
L 285.396227 198.727742 
L 285.599263 193.929097 
L 285.802299 166.9454 
L 286.005335 169.400424 
L 286.208371 191.511958 
L 286.411407 173.377823 
L 287.223551 198.376808 
L 287.426587 198.725914 
L 287.629623 212.282317 
L 287.832659 178.598417 
L 288.035695 175.169843 
L 288.238731 191.702901 
L 288.441767 191.424316 
L 288.644803 209.815069 
L 289.050875 200.503017 
L 289.253911 203.852614 
L 289.456947 202.041927 
L 289.659983 201.78418 
L 289.863019 189.247039 
L 290.269091 202.358834 
L 290.472127 194.070011 
L 290.675163 210.19556 
L 290.878199 195.071905 
L 291.081235 192.329283 
L 291.284271 198.967142 
L 291.690343 186.150688 
L 291.893379 200.052261 
L 292.299451 186.466113 
L 292.502487 191.086042 
L 292.705523 200.533353 
L 292.908559 199.787636 
L 293.111595 196.365154 
L 293.314631 204.163417 
L 293.517667 200.891358 
L 293.720703 201.230511 
L 293.923739 199.409264 
L 294.126775 200.849085 
L 294.329811 199.639734 
L 294.532847 208.109954 
L 294.735883 173.615437 
L 294.938919 172.480046 
L 295.141955 193.195272 
L 295.344991 167.727562 
L 295.751063 202.009204 
L 295.954099 187.218344 
L 296.157135 192.378193 
L 296.360171 185.858186 
L 296.563207 205.869327 
L 296.969279 191.43806 
L 297.172315 197.149151 
L 297.375351 209.263 
L 297.578386 210.474942 
L 297.984458 190.937392 
L 298.187494 192.104241 
L 298.39053 207.918099 
L 298.796602 195.711772 
L 298.999638 193.11869 
L 299.202674 192.867325 
L 299.40571 180.474227 
L 299.608746 204.567764 
L 299.811782 172.365311 
L 300.014818 192.952569 
L 300.217854 184.502946 
L 300.42089 207.194119 
L 300.623926 169.761761 
L 301.029998 206.380903 
L 301.233034 201.83449 
L 301.43607 194.296778 
L 301.639106 169.150563 
L 301.842142 202.212872 
L 302.045178 188.95465 
L 302.248214 186.419839 
L 302.654286 201.196597 
L 302.857322 182.143742 
L 303.263394 215.906149 
L 303.46643 190.784239 
L 303.669466 184.498067 
L 303.872502 198.769244 
L 304.075538 192.112054 
L 304.278574 193.949247 
L 304.48161 194.504369 
L 304.684646 208.08639 
L 304.887682 198.855113 
L 305.090718 195.029575 
L 305.293754 182.920564 
L 305.699826 208.288962 
L 306.105898 192.526964 
L 306.308934 203.965144 
L 306.51197 188.166205 
L 306.715006 160.395325 
L 306.918042 195.864177 
L 307.121078 184.543351 
L 307.324114 185.656821 
L 307.730186 218.448887 
L 308.136258 183.18145 
L 308.339294 186.9493 
L 308.54233 183.980664 
L 308.745366 202.386678 
L 308.948402 190.874646 
L 309.151438 205.797271 
L 309.354474 171.175359 
L 309.55751 192.714472 
L 309.760546 186.056891 
L 309.963582 189.743751 
L 310.369654 200.498752 
L 310.57269 194.743217 
L 310.775726 192.193903 
L 310.978762 209.984895 
L 311.384834 193.781983 
L 311.58787 193.993094 
L 311.790906 198.825148 
L 311.993942 184.575311 
L 312.196978 213.419264 
L 312.400014 177.966839 
L 312.60305 196.004648 
L 312.806086 191.594949 
L 313.009122 177.616703 
L 313.212158 201.271934 
L 313.415194 189.103349 
L 313.61823 200.80333 
L 313.821266 187.994786 
L 314.024302 188.079057 
L 314.227338 196.922132 
L 314.430374 166.622135 
L 314.836446 205.070661 
L 315.039481 198.91337 
L 315.242517 204.822823 
L 315.445553 205.976696 
L 315.648589 211.476437 
L 315.851625 201.698622 
L 316.054661 198.043711 
L 316.257697 203.213326 
L 316.460733 185.720806 
L 316.663769 207.300346 
L 316.866805 209.561355 
L 317.272877 180.37314 
L 317.678949 206.409968 
L 317.881985 193.246033 
L 318.085021 190.231521 
L 318.288057 195.187776 
L 318.897165 178.337933 
L 319.100201 205.360182 
L 319.303237 197.029585 
L 319.506273 175.402482 
L 319.709309 194.958905 
L 319.912345 177.568555 
L 320.115381 199.797146 
L 320.521453 192.652623 
L 320.724489 194.318332 
L 321.130561 207.527533 
L 321.333597 183.001109 
L 321.536633 202.086528 
L 321.739669 182.592871 
L 321.942705 192.428578 
L 322.145741 193.708522 
L 322.348777 190.166816 
L 322.551813 204.561802 
L 322.754849 185.284039 
L 322.957885 198.627349 
L 323.160921 199.905883 
L 323.363957 203.969273 
L 323.566993 191.02788 
L 323.973065 218.934501 
L 324.176101 184.261598 
L 324.379137 198.243545 
L 324.582173 186.651814 
L 324.785209 210.745709 
L 324.988245 218.087084 
L 325.191281 187.295435 
L 325.394317 192.122776 
L 325.597353 193.616501 
L 325.800389 204.969483 
L 326.206461 173.284269 
L 326.409497 206.532878 
L 326.612533 182.657213 
L 326.815569 215.846659 
L 327.018605 215.363702 
L 327.221641 147.168882 
L 327.424677 199.943611 
L 327.627713 171.600531 
L 327.830749 198.932606 
L 328.033785 183.234245 
L 328.236821 196.006683 
L 328.439857 189.326759 
L 328.642893 197.834431 
L 329.048965 201.916277 
L 329.252001 190.462932 
L 329.455037 190.061954 
L 329.658073 185.312275 
L 330.064145 169.218307 
L 330.267181 191.552022 
L 330.470217 190.431252 
L 330.673253 194.110666 
L 330.876289 185.544683 
L 331.079325 192.775873 
L 331.282361 177.174418 
L 331.485397 178.529751 
L 331.688433 186.063652 
L 331.891469 185.901867 
L 332.094505 184.338953 
L 332.297541 204.788674 
L 332.500576 196.607883 
L 332.703612 182.079606 
L 333.109684 200.923629 
L 333.31272 181.392691 
L 333.515756 194.895678 
L 333.718792 178.775347 
L 333.921828 204.258454 
L 334.124864 187.242575 
L 334.3279 203.516514 
L 334.530936 197.723368 
L 334.733972 196.139668 
L 334.937008 198.399556 
L 335.140044 175.397046 
L 335.34308 184.754377 
L 335.546116 180.301431 
L 335.749152 196.164245 
L 335.952188 186.599134 
L 336.155224 194.433297 
L 336.35826 167.02508 
L 336.561296 158.923101 
L 336.764332 173.11968 
L 336.967368 203.661429 
L 337.170404 190.593205 
L 337.37344 211.086803 
L 337.576476 203.828721 
L 337.779512 204.772168 
L 337.982548 175.502879 
L 338.185584 198.299729 
L 338.38862 197.302445 
L 338.591656 188.209455 
L 338.794692 193.06351 
L 338.997728 194.528255 
L 339.200764 179.896861 
L 339.4038 181.070311 
L 339.606836 215.480893 
L 339.809872 186.87076 
L 340.012908 210.884339 
L 340.215944 186.390724 
L 340.622016 208.329465 
L 340.825052 202.737993 
L 341.028088 204.598066 
L 341.231124 190.934516 
L 341.43416 199.600245 
L 341.637196 200.830965 
L 341.840232 196.762322 
L 342.043268 196.786709 
L 342.246304 199.098313 
L 342.44934 177.237099 
L 342.855412 189.629906 
L 343.058448 183.115827 
L 343.261484 199.361761 
L 343.46452 201.149996 
L 343.667556 215.640782 
L 343.870592 201.421683 
L 344.073628 196.204681 
L 344.276664 181.458814 
L 344.4797 184.168721 
L 344.682736 196.276817 
L 344.885772 190.199024 
L 345.088808 187.819893 
L 345.291844 189.675749 
L 345.49488 183.207558 
L 345.697916 171.983516 
L 345.900952 180.585448 
L 346.103988 214.924591 
L 346.51006 187.808506 
L 346.713096 187.798202 
L 347.322204 198.925139 
L 347.52524 168.093923 
L 347.728276 191.368161 
L 347.931312 193.996489 
L 348.134348 192.014883 
L 348.337384 200.24194 
L 348.54042 179.961973 
L 348.743456 206.637877 
L 348.946492 196.366315 
L 349.149528 207.548129 
L 349.352564 204.109989 
L 349.5556 183.089424 
L 349.758636 190.441545 
L 349.961671 191.951621 
L 350.164707 188.805665 
L 350.367743 203.21799 
L 350.570779 202.493924 
L 350.773815 198.920561 
L 350.976851 214.268299 
L 351.179887 183.907269 
L 351.382923 197.303917 
L 351.585959 173.921114 
L 351.788995 221.021735 
L 351.992031 203.892782 
L 352.195067 213.340432 
L 352.398103 186.739988 
L 352.601139 209.515204 
L 352.804175 173.880924 
L 353.007211 191.880212 
L 353.210247 190.035568 
L 353.413283 195.692722 
L 353.616319 171.608433 
L 353.819355 172.052939 
L 354.022391 186.88418 
L 354.225427 175.52202 
L 354.428463 183.672158 
L 354.631499 179.02531 
L 355.037571 218.303526 
L 355.240607 178.179211 
L 355.443643 207.2124 
L 355.849715 192.337813 
L 356.052751 192.703281 
L 356.255787 198.355793 
L 356.458823 184.821548 
L 356.661859 193.169394 
L 356.864895 196.652718 
L 357.067931 206.87462 
L 357.270967 193.265382 
L 357.474003 202.406817 
L 357.677039 185.909736 
L 357.880075 204.597243 
L 358.083111 185.616069 
L 358.286147 212.527113 
L 358.489183 189.55093 
L 358.692219 203.050214 
L 358.895255 195.779874 
L 359.098291 180.620917 
L 359.301327 201.97434 
L 359.504363 197.149604 
L 359.707399 199.261069 
L 359.910435 185.459503 
L 360.113471 219.115106 
L 360.316507 198.853145 
L 360.519543 213.844738 
L 360.925615 199.524761 
L 361.128651 188.48787 
L 361.534723 198.033251 
L 361.737759 190.060245 
L 361.940795 201.642826 
L 362.143831 199.016803 
L 362.346867 190.132653 
L 362.549903 203.187228 
L 362.752939 172.665006 
L 362.955975 189.553472 
L 363.159011 196.829725 
L 363.362047 187.767759 
L 363.565083 208.959741 
L 363.971155 186.985499 
L 364.174191 190.759393 
L 364.377227 192.032334 
L 364.580263 202.5744 
L 364.783299 191.200643 
L 364.986335 205.026141 
L 365.189371 191.228344 
L 365.392407 194.154057 
L 365.595443 190.04113 
L 365.798479 208.711114 
L 366.001515 204.420661 
L 366.204551 208.172727 
L 366.610623 186.135713 
L 367.219731 201.022938 
L 367.422767 198.011257 
L 367.625802 201.68256 
L 367.828838 184.554279 
L 368.23491 202.6076 
L 368.640982 181.269369 
L 368.844018 192.648891 
L 369.047054 174.720939 
L 369.25009 193.39372 
L 369.453126 186.253428 
L 369.656162 199.260561 
L 369.859198 202.397467 
L 370.062234 197.545332 
L 370.26527 196.523117 
L 370.468306 184.455237 
L 370.671342 183.980988 
L 370.874378 163.916518 
L 371.077414 180.134794 
L 371.28045 207.533812 
L 371.483486 196.329146 
L 371.686522 175.63619 
L 371.889558 182.36259 
L 372.092594 200.821594 
L 372.29563 205.437654 
L 372.498666 184.131114 
L 372.904738 192.930317 
L 373.107774 186.568921 
L 373.31081 195.799226 
L 373.513846 192.673353 
L 373.716882 194.310311 
L 373.919918 199.295227 
L 374.122954 215.178148 
L 374.32599 195.359905 
L 374.529026 196.716804 
L 374.732062 186.401848 
L 374.935098 197.688387 
L 375.34117 187.165089 
L 375.544206 192.222836 
L 375.747242 167.255159 
L 375.950278 212.454019 
L 376.153314 184.496808 
L 376.35635 185.319381 
L 376.559386 195.149532 
L 376.762422 197.921867 
L 376.965458 180.624602 
L 377.168494 188.950009 
L 377.37153 186.638391 
L 377.574566 201.624914 
L 377.777602 197.198389 
L 377.980638 184.815651 
L 378.183674 199.806544 
L 378.589746 188.575652 
L 378.792782 192.28636 
L 379.40189 179.537751 
L 379.604926 206.553447 
L 379.807962 193.028464 
L 380.214034 183.822064 
L 380.41707 191.46537 
L 380.620106 208.183045 
L 380.823142 198.290174 
L 381.026178 194.11215 
L 381.229214 194.382252 
L 381.43225 201.294233 
L 381.838322 204.166167 
L 382.041358 180.500517 
L 382.244394 181.173691 
L 382.44743 180.501564 
L 382.650466 113.829312 
L 382.853502 183.470128 
L 383.056538 202.524339 
L 383.259574 184.919681 
L 383.665646 211.935259 
L 383.868682 210.464329 
L 384.071718 219.134028 
L 384.274754 191.86433 
L 384.47779 204.944751 
L 384.680826 184.555468 
L 384.883862 191.275911 
L 385.086897 189.125081 
L 385.289933 169.480897 
L 385.492969 197.528986 
L 385.696005 201.776635 
L 385.899041 199.376103 
L 386.102077 187.930706 
L 386.305113 202.290963 
L 386.508149 183.148078 
L 386.711185 193.398237 
L 386.914221 191.155306 
L 387.117257 192.985716 
L 387.320293 201.508756 
L 387.523329 192.349121 
L 387.726365 216.479431 
L 387.929401 184.641895 
L 388.132437 203.561784 
L 388.335473 179.475481 
L 388.538509 208.054998 
L 388.741545 200.95545 
L 388.944581 173.504612 
L 389.147617 177.031474 
L 389.350653 192.693268 
L 389.553689 193.50346 
L 389.756725 199.288555 
L 389.959761 196.98074 
L 390.162797 197.387169 
L 390.365833 194.761766 
L 390.568869 216.537834 
L 390.771905 184.034276 
L 390.974941 193.24799 
L 391.584049 203.15561 
L 391.787085 214.255268 
L 391.990121 197.65299 
L 392.193157 203.112049 
L 392.396193 200.811031 
L 392.599229 205.732127 
L 392.802265 215.005819 
L 393.005301 163.921817 
L 393.411373 204.111829 
L 393.614409 171.070785 
L 393.817445 190.878813 
L 394.426553 174.461277 
L 394.629589 194.431542 
L 394.832625 192.788925 
L 395.035661 195.798139 
L 395.238697 175.518899 
L 395.441733 193.639314 
L 395.644769 198.586507 
L 395.847805 163.303255 
L 396.050841 203.765309 
L 396.253877 183.295241 
L 396.456913 179.137574 
L 396.659949 181.123283 
L 396.862985 205.416425 
L 397.269057 171.268326 
L 397.472093 196.036627 
L 397.675129 184.187374 
L 397.878165 192.369822 
L 398.081201 158.7383 
L 398.284237 181.04483 
L 398.487273 188.581448 
L 398.487273 188.581448 
" style="fill:none;stroke:#ff7f0e;stroke-linecap:square;stroke-width:1.5;"/>
   </g>
   <g id="patch_3">
    <path d="M 57.6 307.584 
L 57.6 41.472 
" style="fill:none;stroke:#000000;stroke-linecap:square;stroke-linejoin:miter;stroke-width:0.8;"/>
   </g>
   <g id="patch_4">
    <path d="M 414.72 307.584 
L 414.72 41.472 
" style="fill:none;stroke:#000000;stroke-linecap:square;stroke-linejoin:miter;stroke-width:0.8;"/>
   </g>
   <g id="patch_5">
    <path d="M 57.6 307.584 
L 414.72 307.584 
" style="fill:none;stroke:#000000;stroke-linecap:square;stroke-linejoin:miter;stroke-width:0.8;"/>
   </g>
   <g id="patch_6">
    <path d="M 57.6 41.472 
L 414.72 41.472 
" style="fill:none;stroke:#000000;stroke-linecap:square;stroke-linejoin:miter;stroke-width:0.8;"/>
   </g>
   <g id="legend_1">
    <g id="patch_7">
     <path d="M 303.845 78.82825 
L 407.72 78.82825 
Q 409.72 78.82825 409.72 76.82825 
L 409.72 48.472 
Q 409.72 46.472 407.72 46.472 
L 303.845 46.472 
Q 301.845 46.472 301.845 48.472 
L 301.845 76.82825 
Q 301.845 78.82825 303.845 78.82825 
z
" style="fill:#ffffff;opacity:0.8;stroke:#cccccc;stroke-linejoin:miter;"/>
    </g>
    <g id="line2d_20">
     <path d="M 305.845 54.570437 
L 325.845 54.570437 
" style="fill:none;stroke:#1f77b4;stroke-linecap:square;stroke-width:1.5;"/>
    </g>
    <g id="line2d_21"/>
    <g id="text_19">
     <!-- Train loss -->
     <g transform="translate(333.845 58.070437)scale(0.1 -0.1)">
      <defs>
       <path d="M -19 4666 
L 3928 4666 
L 3928 4134 
L 2272 4134 
L 2272 0 
L 1638 0 
L 1638 4134 
L -19 4134 
L -19 4666 
z
" id="DejaVuSans-54" transform="scale(0.015625)"/>
       <path d="M 2631 2963 
Q 2534 3019 2420 3045 
Q 2306 3072 2169 3072 
Q 1681 3072 1420 2755 
Q 1159 2438 1159 1844 
L 1159 0 
L 581 0 
L 581 3500 
L 1159 3500 
L 1159 2956 
Q 1341 3275 1631 3429 
Q 1922 3584 2338 3584 
Q 2397 3584 2469 3576 
Q 2541 3569 2628 3553 
L 2631 2963 
z
" id="DejaVuSans-72" transform="scale(0.015625)"/>
       <path d="M 2194 1759 
Q 1497 1759 1228 1600 
Q 959 1441 959 1056 
Q 959 750 1161 570 
Q 1363 391 1709 391 
Q 2188 391 2477 730 
Q 2766 1069 2766 1631 
L 2766 1759 
L 2194 1759 
z
M 3341 1997 
L 3341 0 
L 2766 0 
L 2766 531 
Q 2569 213 2275 61 
Q 1981 -91 1556 -91 
Q 1019 -91 701 211 
Q 384 513 384 1019 
Q 384 1609 779 1909 
Q 1175 2209 1959 2209 
L 2766 2209 
L 2766 2266 
Q 2766 2663 2505 2880 
Q 2244 3097 1772 3097 
Q 1472 3097 1187 3025 
Q 903 2953 641 2809 
L 641 3341 
Q 956 3463 1253 3523 
Q 1550 3584 1831 3584 
Q 2591 3584 2966 3190 
Q 3341 2797 3341 1997 
z
" id="DejaVuSans-61" transform="scale(0.015625)"/>
       <path d="M 603 3500 
L 1178 3500 
L 1178 0 
L 603 0 
L 603 3500 
z
M 603 4863 
L 1178 4863 
L 1178 4134 
L 603 4134 
L 603 4863 
z
" id="DejaVuSans-69" transform="scale(0.015625)"/>
       <path d="M 3513 2113 
L 3513 0 
L 2938 0 
L 2938 2094 
Q 2938 2591 2744 2837 
Q 2550 3084 2163 3084 
Q 1697 3084 1428 2787 
Q 1159 2491 1159 1978 
L 1159 0 
L 581 0 
L 581 3500 
L 1159 3500 
L 1159 2956 
Q 1366 3272 1645 3428 
Q 1925 3584 2291 3584 
Q 2894 3584 3203 3211 
Q 3513 2838 3513 2113 
z
" id="DejaVuSans-6e" transform="scale(0.015625)"/>
       <path id="DejaVuSans-20" transform="scale(0.015625)"/>
       <path d="M 603 4863 
L 1178 4863 
L 1178 0 
L 603 0 
L 603 4863 
z
" id="DejaVuSans-6c" transform="scale(0.015625)"/>
       <path d="M 2834 3397 
L 2834 2853 
Q 2591 2978 2328 3040 
Q 2066 3103 1784 3103 
Q 1356 3103 1142 2972 
Q 928 2841 928 2578 
Q 928 2378 1081 2264 
Q 1234 2150 1697 2047 
L 1894 2003 
Q 2506 1872 2764 1633 
Q 3022 1394 3022 966 
Q 3022 478 2636 193 
Q 2250 -91 1575 -91 
Q 1294 -91 989 -36 
Q 684 19 347 128 
L 347 722 
Q 666 556 975 473 
Q 1284 391 1588 391 
Q 1994 391 2212 530 
Q 2431 669 2431 922 
Q 2431 1156 2273 1281 
Q 2116 1406 1581 1522 
L 1381 1569 
Q 847 1681 609 1914 
Q 372 2147 372 2553 
Q 372 3047 722 3315 
Q 1072 3584 1716 3584 
Q 2034 3584 2315 3537 
Q 2597 3491 2834 3397 
z
" id="DejaVuSans-73" transform="scale(0.015625)"/>
      </defs>
      <use xlink:href="#DejaVuSans-54"/>
      <use x="46.333984" xlink:href="#DejaVuSans-72"/>
      <use x="87.447266" xlink:href="#DejaVuSans-61"/>
      <use x="148.726562" xlink:href="#DejaVuSans-69"/>
      <use x="176.509766" xlink:href="#DejaVuSans-6e"/>
      <use x="239.888672" xlink:href="#DejaVuSans-20"/>
      <use x="271.675781" xlink:href="#DejaVuSans-6c"/>
      <use x="299.458984" xlink:href="#DejaVuSans-6f"/>
      <use x="360.640625" xlink:href="#DejaVuSans-73"/>
      <use x="412.740234" xlink:href="#DejaVuSans-73"/>
     </g>
    </g>
    <g id="line2d_22">
     <path d="M 305.845 69.248562 
L 325.845 69.248562 
" style="fill:none;stroke:#ff7f0e;stroke-linecap:square;stroke-width:1.5;"/>
    </g>
    <g id="line2d_23"/>
    <g id="text_20">
     <!-- Validation loss -->
     <g transform="translate(333.845 72.748562)scale(0.1 -0.1)">
      <defs>
       <path d="M 1831 0 
L 50 4666 
L 709 4666 
L 2188 738 
L 3669 4666 
L 4325 4666 
L 2547 0 
L 1831 0 
z
" id="DejaVuSans-56" transform="scale(0.015625)"/>
       <path d="M 2906 2969 
L 2906 4863 
L 3481 4863 
L 3481 0 
L 2906 0 
L 2906 525 
Q 2725 213 2448 61 
Q 2172 -91 1784 -91 
Q 1150 -91 751 415 
Q 353 922 353 1747 
Q 353 2572 751 3078 
Q 1150 3584 1784 3584 
Q 2172 3584 2448 3432 
Q 2725 3281 2906 2969 
z
M 947 1747 
Q 947 1113 1208 752 
Q 1469 391 1925 391 
Q 2381 391 2643 752 
Q 2906 1113 2906 1747 
Q 2906 2381 2643 2742 
Q 2381 3103 1925 3103 
Q 1469 3103 1208 2742 
Q 947 2381 947 1747 
z
" id="DejaVuSans-64" transform="scale(0.015625)"/>
       <path d="M 1172 4494 
L 1172 3500 
L 2356 3500 
L 2356 3053 
L 1172 3053 
L 1172 1153 
Q 1172 725 1289 603 
Q 1406 481 1766 481 
L 2356 481 
L 2356 0 
L 1766 0 
Q 1100 0 847 248 
Q 594 497 594 1153 
L 594 3053 
L 172 3053 
L 172 3500 
L 594 3500 
L 594 4494 
L 1172 4494 
z
" id="DejaVuSans-74" transform="scale(0.015625)"/>
      </defs>
      <use xlink:href="#DejaVuSans-56"/>
      <use x="60.658203" xlink:href="#DejaVuSans-61"/>
      <use x="121.9375" xlink:href="#DejaVuSans-6c"/>
      <use x="149.720703" xlink:href="#DejaVuSans-69"/>
      <use x="177.503906" xlink:href="#DejaVuSans-64"/>
      <use x="240.980469" xlink:href="#DejaVuSans-61"/>
      <use x="302.259766" xlink:href="#DejaVuSans-74"/>
      <use x="341.46875" xlink:href="#DejaVuSans-69"/>
      <use x="369.251953" xlink:href="#DejaVuSans-6f"/>
      <use x="430.433594" xlink:href="#DejaVuSans-6e"/>
      <use x="493.8125" xlink:href="#DejaVuSans-20"/>
      <use x="525.599609" xlink:href="#DejaVuSans-6c"/>
      <use x="553.382812" xlink:href="#DejaVuSans-6f"/>
      <use x="614.564453" xlink:href="#DejaVuSans-73"/>
      <use x="666.664062" xlink:href="#DejaVuSans-73"/>
     </g>
    </g>
   </g>
  </g>
 </g>
 <defs>
  <clipPath id="p0d42e569dd">
   <rect height="266.112" width="357.12" x="57.6" y="41.472"/>
  </clipPath>
 </defs>
</svg>
