<?xml version="1.0" encoding="utf-8" standalone="no"?>
<!DOCTYPE svg PUBLIC "-//W3C//DTD SVG 1.1//EN"
  "http://www.w3.org/Graphics/SVG/1.1/DTD/svg11.dtd">
<svg height="345.6pt" version="1.1" viewBox="0 0 460.8 345.6" width="460.8pt" xmlns="http://www.w3.org/2000/svg" xmlns:xlink="http://www.w3.org/1999/xlink">
 <metadata>
  <rdf:RDF xmlns:cc="http://creativecommons.org/ns#" xmlns:dc="http://purl.org/dc/elements/1.1/" xmlns:rdf="http://www.w3.org/1999/02/22-rdf-syntax-ns#">
   <cc:Work>
    <dc:type rdf:resource="http://purl.org/dc/dcmitype/StillImage"/>
    <dc:date>2021-07-16T18:59:23.603249</dc:date>
    <dc:format>image/svg+xml</dc:format>
    <dc:creator>
     <cc:Agent>
      <dc:title>Matplotlib v3.4.2, https://matplotlib.org/</dc:title>
     </cc:Agent>
    </dc:creator>
   </cc:Work>
  </rdf:RDF>
 </metadata>
 <defs>
  <style type="text/css">*{stroke-linecap:butt;stroke-linejoin:round;}</style>
 </defs>
 <g id="figure_1">
  <g id="patch_1">
   <path d="M 0 345.6 
L 460.8 345.6 
L 460.8 0 
L 0 0 
z
" style="fill:#ffffff;"/>
  </g>
  <g id="axes_1">
   <g id="patch_2">
    <path d="M 57.6 307.584 
L 414.72 307.584 
L 414.72 41.472 
L 57.6 41.472 
z
" style="fill:#ffffff;"/>
   </g>
   <g id="matplotlib.axis_1">
    <g id="xtick_1">
     <g id="line2d_1">
      <defs>
       <path d="M 0 0 
L 0 3.5 
" id="m48f93433ea" style="stroke:#000000;stroke-width:0.8;"/>
      </defs>
      <g>
       <use style="stroke:#000000;stroke-width:0.8;" x="73.019057" xlink:href="#m48f93433ea" y="307.584"/>
      </g>
     </g>
     <g id="text_1">
      <!-- 0 -->
      <g transform="translate(69.837807 322.182437)scale(0.1 -0.1)">
       <defs>
        <path d="M 2034 4250 
Q 1547 4250 1301 3770 
Q 1056 3291 1056 2328 
Q 1056 1369 1301 889 
Q 1547 409 2034 409 
Q 2525 409 2770 889 
Q 3016 1369 3016 2328 
Q 3016 3291 2770 3770 
Q 2525 4250 2034 4250 
z
M 2034 4750 
Q 2819 4750 3233 4129 
Q 3647 3509 3647 2328 
Q 3647 1150 3233 529 
Q 2819 -91 2034 -91 
Q 1250 -91 836 529 
Q 422 1150 422 2328 
Q 422 3509 836 4129 
Q 1250 4750 2034 4750 
z
" id="DejaVuSans-30" transform="scale(0.015625)"/>
       </defs>
       <use xlink:href="#DejaVuSans-30"/>
      </g>
     </g>
    </g>
    <g id="xtick_2">
     <g id="line2d_2">
      <g>
       <use style="stroke:#000000;stroke-width:0.8;" x="113.702584" xlink:href="#m48f93433ea" y="307.584"/>
      </g>
     </g>
     <g id="text_2">
      <!-- 50 -->
      <g transform="translate(107.340084 322.182437)scale(0.1 -0.1)">
       <defs>
        <path d="M 691 4666 
L 3169 4666 
L 3169 4134 
L 1269 4134 
L 1269 2991 
Q 1406 3038 1543 3061 
Q 1681 3084 1819 3084 
Q 2600 3084 3056 2656 
Q 3513 2228 3513 1497 
Q 3513 744 3044 326 
Q 2575 -91 1722 -91 
Q 1428 -91 1123 -41 
Q 819 9 494 109 
L 494 744 
Q 775 591 1075 516 
Q 1375 441 1709 441 
Q 2250 441 2565 725 
Q 2881 1009 2881 1497 
Q 2881 1984 2565 2268 
Q 2250 2553 1709 2553 
Q 1456 2553 1204 2497 
Q 953 2441 691 2322 
L 691 4666 
z
" id="DejaVuSans-35" transform="scale(0.015625)"/>
       </defs>
       <use xlink:href="#DejaVuSans-35"/>
       <use x="63.623047" xlink:href="#DejaVuSans-30"/>
      </g>
     </g>
    </g>
    <g id="xtick_3">
     <g id="line2d_3">
      <g>
       <use style="stroke:#000000;stroke-width:0.8;" x="154.386111" xlink:href="#m48f93433ea" y="307.584"/>
      </g>
     </g>
     <g id="text_3">
      <!-- 100 -->
      <g transform="translate(144.842361 322.182437)scale(0.1 -0.1)">
       <defs>
        <path d="M 794 531 
L 1825 531 
L 1825 4091 
L 703 3866 
L 703 4441 
L 1819 4666 
L 2450 4666 
L 2450 531 
L 3481 531 
L 3481 0 
L 794 0 
L 794 531 
z
" id="DejaVuSans-31" transform="scale(0.015625)"/>
       </defs>
       <use xlink:href="#DejaVuSans-31"/>
       <use x="63.623047" xlink:href="#DejaVuSans-30"/>
       <use x="127.246094" xlink:href="#DejaVuSans-30"/>
      </g>
     </g>
    </g>
    <g id="xtick_4">
     <g id="line2d_4">
      <g>
       <use style="stroke:#000000;stroke-width:0.8;" x="195.069638" xlink:href="#m48f93433ea" y="307.584"/>
      </g>
     </g>
     <g id="text_4">
      <!-- 150 -->
      <g transform="translate(185.525888 322.182437)scale(0.1 -0.1)">
       <use xlink:href="#DejaVuSans-31"/>
       <use x="63.623047" xlink:href="#DejaVuSans-35"/>
       <use x="127.246094" xlink:href="#DejaVuSans-30"/>
      </g>
     </g>
    </g>
    <g id="xtick_5">
     <g id="line2d_5">
      <g>
       <use style="stroke:#000000;stroke-width:0.8;" x="235.753165" xlink:href="#m48f93433ea" y="307.584"/>
      </g>
     </g>
     <g id="text_5">
      <!-- 200 -->
      <g transform="translate(226.209415 322.182437)scale(0.1 -0.1)">
       <defs>
        <path d="M 1228 531 
L 3431 531 
L 3431 0 
L 469 0 
L 469 531 
Q 828 903 1448 1529 
Q 2069 2156 2228 2338 
Q 2531 2678 2651 2914 
Q 2772 3150 2772 3378 
Q 2772 3750 2511 3984 
Q 2250 4219 1831 4219 
Q 1534 4219 1204 4116 
Q 875 4013 500 3803 
L 500 4441 
Q 881 4594 1212 4672 
Q 1544 4750 1819 4750 
Q 2544 4750 2975 4387 
Q 3406 4025 3406 3419 
Q 3406 3131 3298 2873 
Q 3191 2616 2906 2266 
Q 2828 2175 2409 1742 
Q 1991 1309 1228 531 
z
" id="DejaVuSans-32" transform="scale(0.015625)"/>
       </defs>
       <use xlink:href="#DejaVuSans-32"/>
       <use x="63.623047" xlink:href="#DejaVuSans-30"/>
       <use x="127.246094" xlink:href="#DejaVuSans-30"/>
      </g>
     </g>
    </g>
    <g id="xtick_6">
     <g id="line2d_6">
      <g>
       <use style="stroke:#000000;stroke-width:0.8;" x="276.436692" xlink:href="#m48f93433ea" y="307.584"/>
      </g>
     </g>
     <g id="text_6">
      <!-- 250 -->
      <g transform="translate(266.892942 322.182437)scale(0.1 -0.1)">
       <use xlink:href="#DejaVuSans-32"/>
       <use x="63.623047" xlink:href="#DejaVuSans-35"/>
       <use x="127.246094" xlink:href="#DejaVuSans-30"/>
      </g>
     </g>
    </g>
    <g id="xtick_7">
     <g id="line2d_7">
      <g>
       <use style="stroke:#000000;stroke-width:0.8;" x="317.120219" xlink:href="#m48f93433ea" y="307.584"/>
      </g>
     </g>
     <g id="text_7">
      <!-- 300 -->
      <g transform="translate(307.576469 322.182437)scale(0.1 -0.1)">
       <defs>
        <path d="M 2597 2516 
Q 3050 2419 3304 2112 
Q 3559 1806 3559 1356 
Q 3559 666 3084 287 
Q 2609 -91 1734 -91 
Q 1441 -91 1130 -33 
Q 819 25 488 141 
L 488 750 
Q 750 597 1062 519 
Q 1375 441 1716 441 
Q 2309 441 2620 675 
Q 2931 909 2931 1356 
Q 2931 1769 2642 2001 
Q 2353 2234 1838 2234 
L 1294 2234 
L 1294 2753 
L 1863 2753 
Q 2328 2753 2575 2939 
Q 2822 3125 2822 3475 
Q 2822 3834 2567 4026 
Q 2313 4219 1838 4219 
Q 1578 4219 1281 4162 
Q 984 4106 628 3988 
L 628 4550 
Q 988 4650 1302 4700 
Q 1616 4750 1894 4750 
Q 2613 4750 3031 4423 
Q 3450 4097 3450 3541 
Q 3450 3153 3228 2886 
Q 3006 2619 2597 2516 
z
" id="DejaVuSans-33" transform="scale(0.015625)"/>
       </defs>
       <use xlink:href="#DejaVuSans-33"/>
       <use x="63.623047" xlink:href="#DejaVuSans-30"/>
       <use x="127.246094" xlink:href="#DejaVuSans-30"/>
      </g>
     </g>
    </g>
    <g id="xtick_8">
     <g id="line2d_8">
      <g>
       <use style="stroke:#000000;stroke-width:0.8;" x="357.803746" xlink:href="#m48f93433ea" y="307.584"/>
      </g>
     </g>
     <g id="text_8">
      <!-- 350 -->
      <g transform="translate(348.259996 322.182437)scale(0.1 -0.1)">
       <use xlink:href="#DejaVuSans-33"/>
       <use x="63.623047" xlink:href="#DejaVuSans-35"/>
       <use x="127.246094" xlink:href="#DejaVuSans-30"/>
      </g>
     </g>
    </g>
    <g id="xtick_9">
     <g id="line2d_9">
      <g>
       <use style="stroke:#000000;stroke-width:0.8;" x="398.487273" xlink:href="#m48f93433ea" y="307.584"/>
      </g>
     </g>
     <g id="text_9">
      <!-- 400 -->
      <g transform="translate(388.943523 322.182437)scale(0.1 -0.1)">
       <defs>
        <path d="M 2419 4116 
L 825 1625 
L 2419 1625 
L 2419 4116 
z
M 2253 4666 
L 3047 4666 
L 3047 1625 
L 3713 1625 
L 3713 1100 
L 3047 1100 
L 3047 0 
L 2419 0 
L 2419 1100 
L 313 1100 
L 313 1709 
L 2253 4666 
z
" id="DejaVuSans-34" transform="scale(0.015625)"/>
       </defs>
       <use xlink:href="#DejaVuSans-34"/>
       <use x="63.623047" xlink:href="#DejaVuSans-30"/>
       <use x="127.246094" xlink:href="#DejaVuSans-30"/>
      </g>
     </g>
    </g>
    <g id="text_10">
     <!-- Epoch -->
     <g transform="translate(213.193594 339.659781)scale(0.15 -0.15)">
      <defs>
       <path d="M 628 4666 
L 3578 4666 
L 3578 4134 
L 1259 4134 
L 1259 2753 
L 3481 2753 
L 3481 2222 
L 1259 2222 
L 1259 531 
L 3634 531 
L 3634 0 
L 628 0 
L 628 4666 
z
" id="DejaVuSans-45" transform="scale(0.015625)"/>
       <path d="M 1159 525 
L 1159 -1331 
L 581 -1331 
L 581 3500 
L 1159 3500 
L 1159 2969 
Q 1341 3281 1617 3432 
Q 1894 3584 2278 3584 
Q 2916 3584 3314 3078 
Q 3713 2572 3713 1747 
Q 3713 922 3314 415 
Q 2916 -91 2278 -91 
Q 1894 -91 1617 61 
Q 1341 213 1159 525 
z
M 3116 1747 
Q 3116 2381 2855 2742 
Q 2594 3103 2138 3103 
Q 1681 3103 1420 2742 
Q 1159 2381 1159 1747 
Q 1159 1113 1420 752 
Q 1681 391 2138 391 
Q 2594 391 2855 752 
Q 3116 1113 3116 1747 
z
" id="DejaVuSans-70" transform="scale(0.015625)"/>
       <path d="M 1959 3097 
Q 1497 3097 1228 2736 
Q 959 2375 959 1747 
Q 959 1119 1226 758 
Q 1494 397 1959 397 
Q 2419 397 2687 759 
Q 2956 1122 2956 1747 
Q 2956 2369 2687 2733 
Q 2419 3097 1959 3097 
z
M 1959 3584 
Q 2709 3584 3137 3096 
Q 3566 2609 3566 1747 
Q 3566 888 3137 398 
Q 2709 -91 1959 -91 
Q 1206 -91 779 398 
Q 353 888 353 1747 
Q 353 2609 779 3096 
Q 1206 3584 1959 3584 
z
" id="DejaVuSans-6f" transform="scale(0.015625)"/>
       <path d="M 3122 3366 
L 3122 2828 
Q 2878 2963 2633 3030 
Q 2388 3097 2138 3097 
Q 1578 3097 1268 2742 
Q 959 2388 959 1747 
Q 959 1106 1268 751 
Q 1578 397 2138 397 
Q 2388 397 2633 464 
Q 2878 531 3122 666 
L 3122 134 
Q 2881 22 2623 -34 
Q 2366 -91 2075 -91 
Q 1284 -91 818 406 
Q 353 903 353 1747 
Q 353 2603 823 3093 
Q 1294 3584 2113 3584 
Q 2378 3584 2631 3529 
Q 2884 3475 3122 3366 
z
" id="DejaVuSans-63" transform="scale(0.015625)"/>
       <path d="M 3513 2113 
L 3513 0 
L 2938 0 
L 2938 2094 
Q 2938 2591 2744 2837 
Q 2550 3084 2163 3084 
Q 1697 3084 1428 2787 
Q 1159 2491 1159 1978 
L 1159 0 
L 581 0 
L 581 4863 
L 1159 4863 
L 1159 2956 
Q 1366 3272 1645 3428 
Q 1925 3584 2291 3584 
Q 2894 3584 3203 3211 
Q 3513 2838 3513 2113 
z
" id="DejaVuSans-68" transform="scale(0.015625)"/>
      </defs>
      <use xlink:href="#DejaVuSans-45"/>
      <use x="63.183594" xlink:href="#DejaVuSans-70"/>
      <use x="126.660156" xlink:href="#DejaVuSans-6f"/>
      <use x="187.841797" xlink:href="#DejaVuSans-63"/>
      <use x="242.822266" xlink:href="#DejaVuSans-68"/>
     </g>
    </g>
   </g>
   <g id="matplotlib.axis_2">
    <g id="ytick_1">
     <g id="line2d_10">
      <defs>
       <path d="M 0 0 
L -3.5 0 
" id="m7447ac5906" style="stroke:#000000;stroke-width:0.8;"/>
      </defs>
      <g>
       <use style="stroke:#000000;stroke-width:0.8;" x="57.6" xlink:href="#m7447ac5906" y="292.244181"/>
      </g>
     </g>
     <g id="text_11">
      <!-- 0 -->
      <g transform="translate(44.2375 296.0434)scale(0.1 -0.1)">
       <use xlink:href="#DejaVuSans-30"/>
      </g>
     </g>
    </g>
    <g id="ytick_2">
     <g id="line2d_11">
      <g>
       <use style="stroke:#000000;stroke-width:0.8;" x="57.6" xlink:href="#m7447ac5906" y="237.772341"/>
      </g>
     </g>
     <g id="text_12">
      <!-- 20000 -->
      <g transform="translate(18.7875 241.57156)scale(0.1 -0.1)">
       <use xlink:href="#DejaVuSans-32"/>
       <use x="63.623047" xlink:href="#DejaVuSans-30"/>
       <use x="127.246094" xlink:href="#DejaVuSans-30"/>
       <use x="190.869141" xlink:href="#DejaVuSans-30"/>
       <use x="254.492188" xlink:href="#DejaVuSans-30"/>
      </g>
     </g>
    </g>
    <g id="ytick_3">
     <g id="line2d_12">
      <g>
       <use style="stroke:#000000;stroke-width:0.8;" x="57.6" xlink:href="#m7447ac5906" y="183.3005"/>
      </g>
     </g>
     <g id="text_13">
      <!-- 40000 -->
      <g transform="translate(18.7875 187.099719)scale(0.1 -0.1)">
       <use xlink:href="#DejaVuSans-34"/>
       <use x="63.623047" xlink:href="#DejaVuSans-30"/>
       <use x="127.246094" xlink:href="#DejaVuSans-30"/>
       <use x="190.869141" xlink:href="#DejaVuSans-30"/>
       <use x="254.492188" xlink:href="#DejaVuSans-30"/>
      </g>
     </g>
    </g>
    <g id="ytick_4">
     <g id="line2d_13">
      <g>
       <use style="stroke:#000000;stroke-width:0.8;" x="57.6" xlink:href="#m7447ac5906" y="128.828659"/>
      </g>
     </g>
     <g id="text_14">
      <!-- 60000 -->
      <g transform="translate(18.7875 132.627878)scale(0.1 -0.1)">
       <defs>
        <path d="M 2113 2584 
Q 1688 2584 1439 2293 
Q 1191 2003 1191 1497 
Q 1191 994 1439 701 
Q 1688 409 2113 409 
Q 2538 409 2786 701 
Q 3034 994 3034 1497 
Q 3034 2003 2786 2293 
Q 2538 2584 2113 2584 
z
M 3366 4563 
L 3366 3988 
Q 3128 4100 2886 4159 
Q 2644 4219 2406 4219 
Q 1781 4219 1451 3797 
Q 1122 3375 1075 2522 
Q 1259 2794 1537 2939 
Q 1816 3084 2150 3084 
Q 2853 3084 3261 2657 
Q 3669 2231 3669 1497 
Q 3669 778 3244 343 
Q 2819 -91 2113 -91 
Q 1303 -91 875 529 
Q 447 1150 447 2328 
Q 447 3434 972 4092 
Q 1497 4750 2381 4750 
Q 2619 4750 2861 4703 
Q 3103 4656 3366 4563 
z
" id="DejaVuSans-36" transform="scale(0.015625)"/>
       </defs>
       <use xlink:href="#DejaVuSans-36"/>
       <use x="63.623047" xlink:href="#DejaVuSans-30"/>
       <use x="127.246094" xlink:href="#DejaVuSans-30"/>
       <use x="190.869141" xlink:href="#DejaVuSans-30"/>
       <use x="254.492188" xlink:href="#DejaVuSans-30"/>
      </g>
     </g>
    </g>
    <g id="ytick_5">
     <g id="line2d_14">
      <g>
       <use style="stroke:#000000;stroke-width:0.8;" x="57.6" xlink:href="#m7447ac5906" y="74.356819"/>
      </g>
     </g>
     <g id="text_15">
      <!-- 80000 -->
      <g transform="translate(18.7875 78.156037)scale(0.1 -0.1)">
       <defs>
        <path d="M 2034 2216 
Q 1584 2216 1326 1975 
Q 1069 1734 1069 1313 
Q 1069 891 1326 650 
Q 1584 409 2034 409 
Q 2484 409 2743 651 
Q 3003 894 3003 1313 
Q 3003 1734 2745 1975 
Q 2488 2216 2034 2216 
z
M 1403 2484 
Q 997 2584 770 2862 
Q 544 3141 544 3541 
Q 544 4100 942 4425 
Q 1341 4750 2034 4750 
Q 2731 4750 3128 4425 
Q 3525 4100 3525 3541 
Q 3525 3141 3298 2862 
Q 3072 2584 2669 2484 
Q 3125 2378 3379 2068 
Q 3634 1759 3634 1313 
Q 3634 634 3220 271 
Q 2806 -91 2034 -91 
Q 1263 -91 848 271 
Q 434 634 434 1313 
Q 434 1759 690 2068 
Q 947 2378 1403 2484 
z
M 1172 3481 
Q 1172 3119 1398 2916 
Q 1625 2713 2034 2713 
Q 2441 2713 2670 2916 
Q 2900 3119 2900 3481 
Q 2900 3844 2670 4047 
Q 2441 4250 2034 4250 
Q 1625 4250 1398 4047 
Q 1172 3844 1172 3481 
z
" id="DejaVuSans-38" transform="scale(0.015625)"/>
       </defs>
       <use xlink:href="#DejaVuSans-38"/>
       <use x="63.623047" xlink:href="#DejaVuSans-30"/>
       <use x="127.246094" xlink:href="#DejaVuSans-30"/>
       <use x="190.869141" xlink:href="#DejaVuSans-30"/>
       <use x="254.492188" xlink:href="#DejaVuSans-30"/>
      </g>
     </g>
    </g>
    <g id="text_16">
     <!-- Loss -->
     <g transform="translate(11.667969 190.978781)rotate(-90)scale(0.15 -0.15)">
      <defs>
       <path d="M 628 4666 
L 1259 4666 
L 1259 531 
L 3531 531 
L 3531 0 
L 628 0 
L 628 4666 
z
" id="DejaVuSans-4c" transform="scale(0.015625)"/>
       <path d="M 2834 3397 
L 2834 2853 
Q 2591 2978 2328 3040 
Q 2066 3103 1784 3103 
Q 1356 3103 1142 2972 
Q 928 2841 928 2578 
Q 928 2378 1081 2264 
Q 1234 2150 1697 2047 
L 1894 2003 
Q 2506 1872 2764 1633 
Q 3022 1394 3022 966 
Q 3022 478 2636 193 
Q 2250 -91 1575 -91 
Q 1294 -91 989 -36 
Q 684 19 347 128 
L 347 722 
Q 666 556 975 473 
Q 1284 391 1588 391 
Q 1994 391 2212 530 
Q 2431 669 2431 922 
Q 2431 1156 2273 1281 
Q 2116 1406 1581 1522 
L 1381 1569 
Q 847 1681 609 1914 
Q 372 2147 372 2553 
Q 372 3047 722 3315 
Q 1072 3584 1716 3584 
Q 2034 3584 2315 3537 
Q 2597 3491 2834 3397 
z
" id="DejaVuSans-73" transform="scale(0.015625)"/>
      </defs>
      <use xlink:href="#DejaVuSans-4c"/>
      <use x="53.962891" xlink:href="#DejaVuSans-6f"/>
      <use x="115.144531" xlink:href="#DejaVuSans-73"/>
      <use x="167.244141" xlink:href="#DejaVuSans-73"/>
     </g>
    </g>
   </g>
   <g id="line2d_15">
    <path clip-path="url(#pfb49c31ec2)" d="M 73.832727 292.672775 
L 74.646398 293.264162 
L 77.087409 293.549906 
L 77.90108 293.701762 
L 79.528421 293.818224 
L 81.155762 294.053377 
L 85.224115 294.129828 
L 86.037785 294.262373 
L 92.54715 294.318743 
L 93.36082 294.581856 
L 94.174491 294.44043 
L 94.988161 294.62075 
L 95.801832 294.490766 
L 96.615502 294.605683 
L 97.429173 294.432818 
L 99.870185 294.653714 
L 104.752208 294.60163 
L 105.565878 294.773513 
L 106.379549 294.780506 
L 107.193219 294.626243 
L 108.82056 294.632831 
L 111.261572 294.704349 
L 113.702584 294.587511 
L 114.516254 294.879183 
L 115.329925 294.628833 
L 116.143595 294.742552 
L 116.957266 294.653953 
L 117.770936 294.703651 
L 118.584607 294.902068 
L 121.839289 294.87836 
L 123.46663 294.627291 
L 125.093971 294.773701 
L 125.907642 294.81301 
L 126.721312 294.672299 
L 127.534983 294.835975 
L 129.162324 294.776309 
L 134.044347 294.770511 
L 134.858018 294.72118 
L 135.671688 294.870771 
L 136.485359 294.718404 
L 138.1127 294.589815 
L 138.92637 294.852023 
L 139.740041 294.819873 
L 140.553712 294.95969 
L 141.367382 294.853071 
L 145.435735 294.83462 
L 146.249405 294.667966 
L 147.063076 294.774117 
L 148.690417 294.781726 
L 149.504087 294.753181 
L 150.317758 294.912821 
L 151.131429 294.88948 
L 151.945099 294.733403 
L 152.75877 294.920069 
L 153.57244 294.679897 
L 156.013452 294.857969 
L 156.827122 294.703558 
L 157.640793 294.941498 
L 159.268134 294.806438 
L 160.081805 294.914719 
L 160.895475 294.786052 
L 161.709146 294.976975 
L 162.522816 294.772567 
L 164.150157 294.909812 
L 166.591169 294.81319 
L 167.404839 294.924792 
L 168.21851 294.886228 
L 169.03218 295.0896 
L 169.845851 294.785876 
L 170.659522 294.932365 
L 171.473192 294.950678 
L 173.914204 294.595847 
L 174.727874 294.969511 
L 175.541545 294.824415 
L 176.355215 294.816255 
L 177.168886 295.091601 
L 177.982556 294.904471 
L 178.796227 294.574332 
L 179.609897 294.944878 
L 182.050909 294.718451 
L 182.86458 294.937054 
L 185.305591 294.773951 
L 186.119262 294.833868 
L 186.932932 294.773091 
L 187.746603 295.020488 
L 188.560273 294.810502 
L 189.373944 295.039413 
L 190.187614 294.842719 
L 191.814956 295.078146 
L 193.442297 294.77079 
L 194.255967 295.084531 
L 195.069638 294.78779 
L 195.883308 294.901756 
L 196.696979 294.812605 
L 197.510649 294.987418 
L 199.13799 294.779147 
L 201.579002 294.961797 
L 202.392673 294.786435 
L 203.206343 295.066169 
L 206.461025 294.848084 
L 207.274696 295.037788 
L 210.529378 295.024518 
L 211.343049 294.680884 
L 213.78406 295.071319 
L 215.411401 294.801772 
L 216.225072 294.895455 
L 217.038742 294.69609 
L 217.852413 295.028843 
L 218.666083 295.021604 
L 219.479754 294.862844 
L 224.361777 294.988688 
L 225.989118 294.917641 
L 226.802789 295.002492 
L 227.616459 294.910877 
L 228.43013 295.107224 
L 229.2438 294.906719 
L 231.684812 294.823725 
L 232.498483 295.023094 
L 233.312153 294.840111 
L 234.939494 294.996386 
L 235.753165 295.064768 
L 237.380506 294.832742 
L 239.007847 294.969059 
L 245.517211 294.968227 
L 246.330882 294.812172 
L 249.585564 295.064525 
L 250.399234 294.868922 
L 251.212905 295.060251 
L 252.840246 295.067881 
L 253.653917 294.92389 
L 254.467587 295.146459 
L 256.908599 294.860276 
L 257.722269 294.877147 
L 258.53594 295.140804 
L 260.163281 294.921448 
L 260.976951 295.050295 
L 261.790622 294.862846 
L 262.604293 295.021892 
L 272.368339 294.886467 
L 273.18201 295.232201 
L 273.99568 294.989206 
L 274.809351 294.946824 
L 276.436692 295.016287 
L 277.250362 294.902702 
L 278.877703 295.171765 
L 279.691374 294.84892 
L 280.505044 295.017488 
L 282.132386 295.165416 
L 282.946056 294.988727 
L 283.759727 295.194184 
L 285.387068 294.885654 
L 286.200738 295.112047 
L 288.64175 295.027244 
L 289.45542 294.894103 
L 290.269091 294.985611 
L 291.082761 294.936683 
L 291.896432 295.135756 
L 293.523773 295.142329 
L 295.964785 294.997337 
L 296.778455 295.167851 
L 298.405796 295.119314 
L 299.219467 295.235462 
L 300.033137 295.064912 
L 304.915161 295.022427 
L 305.728831 295.178128 
L 306.542502 295.02581 
L 308.169843 295.163782 
L 308.983513 294.972162 
L 310.610854 295.167927 
L 312.238195 295.248888 
L 313.051866 294.925331 
L 313.865537 295.219587 
L 314.679207 295.057284 
L 315.492878 295.156882 
L 316.306548 295.048864 
L 317.120219 295.200639 
L 317.933889 295.177574 
L 318.74756 294.893736 
L 320.374901 295.181204 
L 322.002242 295.166518 
L 322.815913 295.30333 
L 326.070595 295.224221 
L 326.884265 295.33758 
L 329.325277 295.100168 
L 331.766288 295.216587 
L 332.579959 294.981843 
L 333.39363 294.92288 
L 334.2073 295.195987 
L 335.020971 294.962128 
L 335.834641 295.191033 
L 337.461982 295.03872 
L 338.275653 295.233969 
L 339.089323 295.17761 
L 339.902994 295.265594 
L 340.716664 295.145581 
L 342.344005 295.40542 
L 345.598688 295.002976 
L 346.412358 295.1628 
L 347.226029 294.968169 
L 348.039699 295.235571 
L 349.66704 295.165979 
L 350.480711 295.299734 
L 351.294381 295.170149 
L 352.108052 295.32358 
L 352.921722 295.058766 
L 353.735393 295.258977 
L 356.990075 295.145147 
L 357.803746 294.871869 
L 358.617416 295.100123 
L 361.058428 295.326482 
L 361.872098 295.143065 
L 363.49944 295.267358 
L 364.31311 295.073131 
L 365.940451 295.237163 
L 366.754122 295.027758 
L 368.381463 295.278516 
L 370.008804 295.265896 
L 370.822474 295.488 
L 371.636145 295.286922 
L 372.449815 295.321326 
L 374.077157 295.16937 
L 374.890827 295.31713 
L 376.518168 295.163461 
L 377.331839 295.093908 
L 380.586521 295.328892 
L 381.400191 295.247983 
L 382.213862 295.316835 
L 383.027532 295.143403 
L 385.468544 295.139686 
L 387.095885 295.335132 
L 387.909556 295.320658 
L 388.723226 295.035321 
L 389.536897 295.243868 
L 390.350567 295.186597 
L 391.164238 295.331361 
L 392.791579 295.092099 
L 394.41892 295.020801 
L 396.046261 295.366694 
L 396.859932 295.370883 
L 397.673602 295.123449 
L 398.487273 295.188301 
L 398.487273 295.188301 
" style="fill:none;stroke:#1f77b4;stroke-linecap:square;stroke-width:1.5;"/>
   </g>
   <g id="line2d_16">
    <path clip-path="url(#pfb49c31ec2)" d="M 73.832727 292.947112 
L 74.646398 293.138677 
L 76.273739 292.695347 
L 77.087409 289.314594 
L 77.90108 289.050571 
L 78.714751 284.820335 
L 79.528421 284.346791 
L 80.342092 275.99749 
L 81.155762 266.136007 
L 81.969433 268.918569 
L 82.783103 258.281727 
L 83.596774 261.749792 
L 84.410444 254.276683 
L 85.224115 258.633538 
L 86.037785 243.287664 
L 86.851456 241.956402 
L 87.665126 251.427137 
L 88.478797 233.888468 
L 89.292468 247.488443 
L 90.106138 249.946166 
L 90.919809 233.534022 
L 91.733479 231.438876 
L 92.54715 232.043457 
L 93.36082 219.495154 
L 94.174491 224.140597 
L 94.988161 222.892076 
L 95.801832 218.251532 
L 96.615502 217.573536 
L 97.429173 228.136274 
L 98.242843 224.861739 
L 99.056514 222.390916 
L 100.683855 223.873817 
L 101.497526 211.327321 
L 102.311196 213.044578 
L 103.124867 212.806348 
L 103.938537 222.5836 
L 105.565878 207.657282 
L 106.379549 212.418065 
L 107.193219 212.049583 
L 108.00689 214.720484 
L 108.82056 214.028181 
L 109.634231 205.50139 
L 110.447902 204.750409 
L 111.261572 214.38634 
L 112.075243 206.654223 
L 112.888913 195.67779 
L 113.702584 201.617235 
L 114.516254 220.826253 
L 115.329925 199.223204 
L 116.143595 202.233987 
L 116.957266 208.02424 
L 117.770936 192.214976 
L 118.584607 196.511254 
L 119.398278 199.34078 
L 120.211948 193.72253 
L 121.025619 206.021391 
L 121.839289 192.692832 
L 122.65296 197.800492 
L 123.46663 195.878387 
L 124.280301 195.398463 
L 125.093971 197.932016 
L 125.907642 195.72345 
L 126.721312 203.706982 
L 127.534983 193.503731 
L 128.348653 189.566132 
L 129.162324 191.558089 
L 129.975995 189.24959 
L 130.789665 200.024103 
L 131.603336 197.244844 
L 132.417006 198.548985 
L 133.230677 191.246402 
L 134.044347 199.066845 
L 134.858018 198.949808 
L 135.671688 200.2508 
L 136.485359 191.537737 
L 137.299029 193.550912 
L 138.1127 192.176624 
L 138.92637 199.589641 
L 139.740041 190.916775 
L 140.553712 193.42276 
L 141.367382 189.914835 
L 142.181053 198.459056 
L 142.994723 192.374873 
L 143.808394 190.661148 
L 144.622064 199.16936 
L 145.435735 197.895525 
L 146.249405 197.282504 
L 147.063076 200.35212 
L 147.876746 196.650548 
L 148.690417 196.373539 
L 149.504087 193.48446 
L 150.317758 192.224326 
L 151.131429 185.731859 
L 151.945099 177.168128 
L 152.75877 192.355464 
L 153.57244 195.597624 
L 154.386111 188.535761 
L 155.199781 202.132931 
L 156.013452 187.331185 
L 156.827122 193.379076 
L 157.640793 185.642588 
L 158.454463 188.939722 
L 159.268134 184.769018 
L 160.081805 195.47893 
L 160.895475 195.735206 
L 161.709146 195.04855 
L 162.522816 197.86767 
L 163.336487 177.609257 
L 164.150157 187.973327 
L 164.963828 174.78569 
L 165.777498 190.244565 
L 166.591169 190.245733 
L 167.404839 192.553741 
L 168.21851 159.105355 
L 169.03218 189.066534 
L 169.845851 181.872107 
L 170.659522 189.244968 
L 171.473192 176.563566 
L 172.286863 187.724323 
L 173.100533 180.767678 
L 173.914204 188.887655 
L 174.727874 189.27534 
L 175.541545 186.269549 
L 176.355215 174.166364 
L 177.168886 185.554218 
L 177.982556 179.690551 
L 178.796227 186.563779 
L 179.609897 179.8385 
L 180.423568 164.886996 
L 181.237239 174.165893 
L 182.050909 180.155704 
L 182.86458 173.907583 
L 183.67825 176.870246 
L 184.491921 168.067661 
L 185.305591 181.828326 
L 186.119262 163.852161 
L 186.932932 163.367662 
L 187.746603 178.788674 
L 188.560273 163.95395 
L 189.373944 174.857567 
L 190.187614 167.245215 
L 191.001285 190.923212 
L 191.814956 179.851884 
L 192.628626 175.486361 
L 193.442297 201.277661 
L 194.255967 180.412817 
L 195.069638 169.396775 
L 195.883308 174.413094 
L 196.696979 169.34519 
L 197.510649 166.529228 
L 198.32432 169.517573 
L 199.13799 168.283018 
L 199.951661 179.361728 
L 200.765332 168.014155 
L 201.579002 161.09958 
L 202.392673 167.80844 
L 203.206343 162.094446 
L 204.020014 162.008372 
L 204.833684 176.252895 
L 205.647355 175.96658 
L 206.461025 158.425317 
L 207.274696 165.569574 
L 208.088366 150.328345 
L 208.902037 156.01026 
L 209.715707 168.507262 
L 210.529378 165.799936 
L 211.343049 183.234225 
L 212.156719 194.77763 
L 212.97039 180.862116 
L 213.78406 161.631316 
L 214.597731 170.634423 
L 215.411401 167.953666 
L 216.225072 154.536647 
L 217.038742 171.444225 
L 217.852413 171.330808 
L 219.479754 148.551186 
L 220.293424 177.901826 
L 221.107095 167.911889 
L 221.920766 164.816457 
L 222.734436 164.681242 
L 223.548107 156.339161 
L 224.361777 154.737181 
L 225.175448 154.632789 
L 225.989118 164.573131 
L 226.802789 156.56302 
L 227.616459 165.463933 
L 228.43013 160.148104 
L 229.2438 159.783061 
L 230.057471 133.138579 
L 230.871141 142.428412 
L 231.684812 184.740735 
L 232.498483 169.51284 
L 233.312153 168.697368 
L 234.125824 159.193731 
L 234.939494 156.069339 
L 235.753165 143.132035 
L 236.566835 156.761717 
L 237.380506 152.95491 
L 238.194176 162.611871 
L 239.007847 145.984803 
L 239.821517 157.293392 
L 240.635188 152.418918 
L 241.448859 160.595348 
L 242.262529 155.872324 
L 243.0762 153.804395 
L 243.88987 149.247608 
L 244.703541 158.679959 
L 245.517211 155.278876 
L 246.330882 160.843923 
L 247.144552 148.320706 
L 247.958223 148.617886 
L 248.771893 158.40228 
L 249.585564 165.65328 
L 250.399234 158.404267 
L 251.212905 154.795057 
L 252.026576 150.116554 
L 252.840246 149.707343 
L 253.653917 143.308135 
L 254.467587 157.306344 
L 255.281258 154.960174 
L 256.094928 149.155515 
L 256.908599 166.808501 
L 257.722269 152.517005 
L 258.53594 152.989555 
L 259.34961 150.380265 
L 260.163281 149.877656 
L 260.976951 145.62065 
L 261.790622 142.002797 
L 262.604293 153.381503 
L 263.417963 133.43384 
L 264.231634 157.363717 
L 265.045304 174.02495 
L 265.858975 145.394636 
L 267.486316 142.714947 
L 268.299986 141.09097 
L 269.113657 145.810757 
L 269.927327 149.399489 
L 270.740998 139.733523 
L 271.554668 150.438767 
L 272.368339 143.461713 
L 273.18201 145.647864 
L 273.99568 177.463436 
L 274.809351 149.849359 
L 275.623021 158.117994 
L 276.436692 126.078607 
L 277.250362 150.846359 
L 278.064033 155.155436 
L 278.877703 137.637263 
L 279.691374 150.413953 
L 280.505044 134.974591 
L 281.318715 133.849679 
L 282.132386 135.695638 
L 282.946056 139.12102 
L 283.759727 143.30174 
L 284.573397 157.21584 
L 285.387068 143.334768 
L 286.200738 153.19652 
L 287.014409 145.890344 
L 287.828079 143.609709 
L 288.64175 126.593726 
L 289.45542 153.005379 
L 290.269091 142.412478 
L 291.082761 142.935591 
L 291.896432 137.969781 
L 292.710103 146.204943 
L 293.523773 147.255378 
L 294.337444 140.188086 
L 295.151114 121.915824 
L 295.964785 127.559154 
L 296.778455 132.3937 
L 297.592126 132.192958 
L 298.405796 136.826099 
L 299.219467 132.439669 
L 300.033137 132.896306 
L 300.846808 139.202021 
L 301.660478 129.605584 
L 302.474149 129.893795 
L 303.28782 140.861146 
L 304.10149 135.348299 
L 304.915161 132.146969 
L 305.728831 124.159488 
L 306.542502 127.588139 
L 307.356172 129.36736 
L 308.169843 126.620696 
L 308.983513 123.380633 
L 309.797184 129.041571 
L 310.610854 126.262388 
L 311.424525 116.553679 
L 312.238195 103.228303 
L 313.051866 111.336919 
L 313.865537 134.953431 
L 314.679207 119.753082 
L 315.492878 107.749998 
L 316.306548 118.363482 
L 317.120219 108.850265 
L 317.933889 117.636513 
L 319.56123 99.607626 
L 320.374901 97.190501 
L 321.188571 165.446649 
L 322.002242 106.505826 
L 322.815913 90.818141 
L 323.629583 86.344306 
L 324.443254 86.759983 
L 325.256924 117.394209 
L 326.884265 91.854982 
L 327.697936 83.960159 
L 328.511606 99.442639 
L 329.325277 88.610285 
L 330.138947 87.652013 
L 330.952618 142.391788 
L 331.766288 80.930845 
L 332.579959 74.604317 
L 333.39363 99.431429 
L 334.2073 84.94987 
L 335.020971 96.916234 
L 335.834641 101.732325 
L 336.648312 83.491096 
L 337.461982 91.376607 
L 338.275653 106.309301 
L 339.089323 86.351296 
L 339.902994 81.703207 
L 340.716664 118.54394 
L 341.530335 97.188926 
L 342.344005 85.912533 
L 343.157676 80.946027 
L 343.971347 93.88784 
L 344.785017 83.044485 
L 345.598688 74.780366 
L 346.412358 84.149402 
L 347.226029 98.968711 
L 348.039699 92.436468 
L 348.85337 87.549931 
L 349.66704 67.095633 
L 350.480711 62.663899 
L 351.294381 69.13728 
L 352.108052 88.585966 
L 352.921722 71.123763 
L 353.735393 73.54736 
L 354.549064 76.429524 
L 355.362734 64.605423 
L 356.176405 85.037294 
L 356.990075 142.050781 
L 357.803746 83.462314 
L 358.617416 95.718145 
L 359.431087 87.500285 
L 360.244757 77.427037 
L 361.872098 64.288116 
L 362.685769 61.206719 
L 363.49944 76.859826 
L 364.31311 73.090842 
L 365.126781 81.382751 
L 365.940451 91.64507 
L 366.754122 74.509679 
L 367.567792 71.477151 
L 368.381463 77.936565 
L 369.195133 80.370938 
L 370.008804 61.128763 
L 370.822474 73.388403 
L 371.636145 78.238945 
L 372.449815 107.249313 
L 373.263486 80.664026 
L 374.077157 132.109799 
L 374.890827 56.435268 
L 375.704498 62.258866 
L 376.518168 75.935521 
L 377.331839 122.383101 
L 378.145509 93.409152 
L 378.95918 84.226194 
L 379.77285 73.124688 
L 380.586521 74.853875 
L 381.400191 63.105057 
L 382.213862 57.663851 
L 383.027532 59.818006 
L 383.841203 65.165259 
L 384.654874 162.8149 
L 385.468544 80.157641 
L 386.282215 92.549597 
L 387.095885 74.286194 
L 387.909556 65.685156 
L 388.723226 82.962862 
L 389.536897 68.672768 
L 390.350567 107.622858 
L 391.164238 85.198957 
L 391.977908 67.171113 
L 392.791579 69.653999 
L 393.605249 65.196708 
L 394.41892 70.836912 
L 395.232591 58.635797 
L 396.046261 83.700886 
L 396.859932 67.285937 
L 397.673602 53.568 
L 398.487273 65.224426 
L 398.487273 65.224426 
" style="fill:none;stroke:#ff7f0e;stroke-linecap:square;stroke-width:1.5;"/>
   </g>
   <g id="patch_3">
    <path d="M 57.6 307.584 
L 57.6 41.472 
" style="fill:none;stroke:#000000;stroke-linecap:square;stroke-linejoin:miter;stroke-width:0.8;"/>
   </g>
   <g id="patch_4">
    <path d="M 414.72 307.584 
L 414.72 41.472 
" style="fill:none;stroke:#000000;stroke-linecap:square;stroke-linejoin:miter;stroke-width:0.8;"/>
   </g>
   <g id="patch_5">
    <path d="M 57.6 307.584 
L 414.72 307.584 
" style="fill:none;stroke:#000000;stroke-linecap:square;stroke-linejoin:miter;stroke-width:0.8;"/>
   </g>
   <g id="patch_6">
    <path d="M 57.6 41.472 
L 414.72 41.472 
" style="fill:none;stroke:#000000;stroke-linecap:square;stroke-linejoin:miter;stroke-width:0.8;"/>
   </g>
   <g id="legend_1">
    <g id="patch_7">
     <path d="M 64.6 78.82825 
L 168.475 78.82825 
Q 170.475 78.82825 170.475 76.82825 
L 170.475 48.472 
Q 170.475 46.472 168.475 46.472 
L 64.6 46.472 
Q 62.6 46.472 62.6 48.472 
L 62.6 76.82825 
Q 62.6 78.82825 64.6 78.82825 
z
" style="fill:#ffffff;opacity:0.8;stroke:#cccccc;stroke-linejoin:miter;"/>
    </g>
    <g id="line2d_17">
     <path d="M 66.6 54.570437 
L 86.6 54.570437 
" style="fill:none;stroke:#1f77b4;stroke-linecap:square;stroke-width:1.5;"/>
    </g>
    <g id="line2d_18"/>
    <g id="text_17">
     <!-- Train loss -->
     <g transform="translate(94.6 58.070437)scale(0.1 -0.1)">
      <defs>
       <path d="M -19 4666 
L 3928 4666 
L 3928 4134 
L 2272 4134 
L 2272 0 
L 1638 0 
L 1638 4134 
L -19 4134 
L -19 4666 
z
" id="DejaVuSans-54" transform="scale(0.015625)"/>
       <path d="M 2631 2963 
Q 2534 3019 2420 3045 
Q 2306 3072 2169 3072 
Q 1681 3072 1420 2755 
Q 1159 2438 1159 1844 
L 1159 0 
L 581 0 
L 581 3500 
L 1159 3500 
L 1159 2956 
Q 1341 3275 1631 3429 
Q 1922 3584 2338 3584 
Q 2397 3584 2469 3576 
Q 2541 3569 2628 3553 
L 2631 2963 
z
" id="DejaVuSans-72" transform="scale(0.015625)"/>
       <path d="M 2194 1759 
Q 1497 1759 1228 1600 
Q 959 1441 959 1056 
Q 959 750 1161 570 
Q 1363 391 1709 391 
Q 2188 391 2477 730 
Q 2766 1069 2766 1631 
L 2766 1759 
L 2194 1759 
z
M 3341 1997 
L 3341 0 
L 2766 0 
L 2766 531 
Q 2569 213 2275 61 
Q 1981 -91 1556 -91 
Q 1019 -91 701 211 
Q 384 513 384 1019 
Q 384 1609 779 1909 
Q 1175 2209 1959 2209 
L 2766 2209 
L 2766 2266 
Q 2766 2663 2505 2880 
Q 2244 3097 1772 3097 
Q 1472 3097 1187 3025 
Q 903 2953 641 2809 
L 641 3341 
Q 956 3463 1253 3523 
Q 1550 3584 1831 3584 
Q 2591 3584 2966 3190 
Q 3341 2797 3341 1997 
z
" id="DejaVuSans-61" transform="scale(0.015625)"/>
       <path d="M 603 3500 
L 1178 3500 
L 1178 0 
L 603 0 
L 603 3500 
z
M 603 4863 
L 1178 4863 
L 1178 4134 
L 603 4134 
L 603 4863 
z
" id="DejaVuSans-69" transform="scale(0.015625)"/>
       <path d="M 3513 2113 
L 3513 0 
L 2938 0 
L 2938 2094 
Q 2938 2591 2744 2837 
Q 2550 3084 2163 3084 
Q 1697 3084 1428 2787 
Q 1159 2491 1159 1978 
L 1159 0 
L 581 0 
L 581 3500 
L 1159 3500 
L 1159 2956 
Q 1366 3272 1645 3428 
Q 1925 3584 2291 3584 
Q 2894 3584 3203 3211 
Q 3513 2838 3513 2113 
z
" id="DejaVuSans-6e" transform="scale(0.015625)"/>
       <path id="DejaVuSans-20" transform="scale(0.015625)"/>
       <path d="M 603 4863 
L 1178 4863 
L 1178 0 
L 603 0 
L 603 4863 
z
" id="DejaVuSans-6c" transform="scale(0.015625)"/>
      </defs>
      <use xlink:href="#DejaVuSans-54"/>
      <use x="46.333984" xlink:href="#DejaVuSans-72"/>
      <use x="87.447266" xlink:href="#DejaVuSans-61"/>
      <use x="148.726562" xlink:href="#DejaVuSans-69"/>
      <use x="176.509766" xlink:href="#DejaVuSans-6e"/>
      <use x="239.888672" xlink:href="#DejaVuSans-20"/>
      <use x="271.675781" xlink:href="#DejaVuSans-6c"/>
      <use x="299.458984" xlink:href="#DejaVuSans-6f"/>
      <use x="360.640625" xlink:href="#DejaVuSans-73"/>
      <use x="412.740234" xlink:href="#DejaVuSans-73"/>
     </g>
    </g>
    <g id="line2d_19">
     <path d="M 66.6 69.248562 
L 86.6 69.248562 
" style="fill:none;stroke:#ff7f0e;stroke-linecap:square;stroke-width:1.5;"/>
    </g>
    <g id="line2d_20"/>
    <g id="text_18">
     <!-- Validation loss -->
     <g transform="translate(94.6 72.748562)scale(0.1 -0.1)">
      <defs>
       <path d="M 1831 0 
L 50 4666 
L 709 4666 
L 2188 738 
L 3669 4666 
L 4325 4666 
L 2547 0 
L 1831 0 
z
" id="DejaVuSans-56" transform="scale(0.015625)"/>
       <path d="M 2906 2969 
L 2906 4863 
L 3481 4863 
L 3481 0 
L 2906 0 
L 2906 525 
Q 2725 213 2448 61 
Q 2172 -91 1784 -91 
Q 1150 -91 751 415 
Q 353 922 353 1747 
Q 353 2572 751 3078 
Q 1150 3584 1784 3584 
Q 2172 3584 2448 3432 
Q 2725 3281 2906 2969 
z
M 947 1747 
Q 947 1113 1208 752 
Q 1469 391 1925 391 
Q 2381 391 2643 752 
Q 2906 1113 2906 1747 
Q 2906 2381 2643 2742 
Q 2381 3103 1925 3103 
Q 1469 3103 1208 2742 
Q 947 2381 947 1747 
z
" id="DejaVuSans-64" transform="scale(0.015625)"/>
       <path d="M 1172 4494 
L 1172 3500 
L 2356 3500 
L 2356 3053 
L 1172 3053 
L 1172 1153 
Q 1172 725 1289 603 
Q 1406 481 1766 481 
L 2356 481 
L 2356 0 
L 1766 0 
Q 1100 0 847 248 
Q 594 497 594 1153 
L 594 3053 
L 172 3053 
L 172 3500 
L 594 3500 
L 594 4494 
L 1172 4494 
z
" id="DejaVuSans-74" transform="scale(0.015625)"/>
      </defs>
      <use xlink:href="#DejaVuSans-56"/>
      <use x="60.658203" xlink:href="#DejaVuSans-61"/>
      <use x="121.9375" xlink:href="#DejaVuSans-6c"/>
      <use x="149.720703" xlink:href="#DejaVuSans-69"/>
      <use x="177.503906" xlink:href="#DejaVuSans-64"/>
      <use x="240.980469" xlink:href="#DejaVuSans-61"/>
      <use x="302.259766" xlink:href="#DejaVuSans-74"/>
      <use x="341.46875" xlink:href="#DejaVuSans-69"/>
      <use x="369.251953" xlink:href="#DejaVuSans-6f"/>
      <use x="430.433594" xlink:href="#DejaVuSans-6e"/>
      <use x="493.8125" xlink:href="#DejaVuSans-20"/>
      <use x="525.599609" xlink:href="#DejaVuSans-6c"/>
      <use x="553.382812" xlink:href="#DejaVuSans-6f"/>
      <use x="614.564453" xlink:href="#DejaVuSans-73"/>
      <use x="666.664062" xlink:href="#DejaVuSans-73"/>
     </g>
    </g>
   </g>
  </g>
 </g>
 <defs>
  <clipPath id="pfb49c31ec2">
   <rect height="266.112" width="357.12" x="57.6" y="41.472"/>
  </clipPath>
 </defs>
</svg>
