<?xml version="1.0" encoding="utf-8" standalone="no"?>
<!DOCTYPE svg PUBLIC "-//W3C//DTD SVG 1.1//EN"
  "http://www.w3.org/Graphics/SVG/1.1/DTD/svg11.dtd">
<svg height="345.6pt" version="1.1" viewBox="0 0 460.8 345.6" width="460.8pt" xmlns="http://www.w3.org/2000/svg" xmlns:xlink="http://www.w3.org/1999/xlink">
 <metadata>
  <rdf:RDF xmlns:cc="http://creativecommons.org/ns#" xmlns:dc="http://purl.org/dc/elements/1.1/" xmlns:rdf="http://www.w3.org/1999/02/22-rdf-syntax-ns#">
   <cc:Work>
    <dc:type rdf:resource="http://purl.org/dc/dcmitype/StillImage"/>
    <dc:date>2021-07-16T18:59:23.924114</dc:date>
    <dc:format>image/svg+xml</dc:format>
    <dc:creator>
     <cc:Agent>
      <dc:title>Matplotlib v3.4.2, https://matplotlib.org/</dc:title>
     </cc:Agent>
    </dc:creator>
   </cc:Work>
  </rdf:RDF>
 </metadata>
 <defs>
  <style type="text/css">*{stroke-linecap:butt;stroke-linejoin:round;}</style>
 </defs>
 <g id="figure_1">
  <g id="patch_1">
   <path d="M 0 345.6 
L 460.8 345.6 
L 460.8 0 
L 0 0 
z
" style="fill:#ffffff;"/>
  </g>
  <g id="axes_1">
   <g id="patch_2">
    <path d="M 57.6 307.584 
L 414.72 307.584 
L 414.72 41.472 
L 57.6 41.472 
z
" style="fill:#ffffff;"/>
   </g>
   <g id="matplotlib.axis_1">
    <g id="xtick_1">
     <g id="line2d_1">
      <defs>
       <path d="M 0 0 
L 0 3.5 
" id="m00b8062085" style="stroke:#000000;stroke-width:0.8;"/>
      </defs>
      <g>
       <use style="stroke:#000000;stroke-width:0.8;" x="73.019057" xlink:href="#m00b8062085" y="307.584"/>
      </g>
     </g>
     <g id="text_1">
      <!-- 0 -->
      <g transform="translate(69.837807 322.182437)scale(0.1 -0.1)">
       <defs>
        <path d="M 2034 4250 
Q 1547 4250 1301 3770 
Q 1056 3291 1056 2328 
Q 1056 1369 1301 889 
Q 1547 409 2034 409 
Q 2525 409 2770 889 
Q 3016 1369 3016 2328 
Q 3016 3291 2770 3770 
Q 2525 4250 2034 4250 
z
M 2034 4750 
Q 2819 4750 3233 4129 
Q 3647 3509 3647 2328 
Q 3647 1150 3233 529 
Q 2819 -91 2034 -91 
Q 1250 -91 836 529 
Q 422 1150 422 2328 
Q 422 3509 836 4129 
Q 1250 4750 2034 4750 
z
" id="DejaVuSans-30" transform="scale(0.015625)"/>
       </defs>
       <use xlink:href="#DejaVuSans-30"/>
      </g>
     </g>
    </g>
    <g id="xtick_2">
     <g id="line2d_2">
      <g>
       <use style="stroke:#000000;stroke-width:0.8;" x="113.702584" xlink:href="#m00b8062085" y="307.584"/>
      </g>
     </g>
     <g id="text_2">
      <!-- 50 -->
      <g transform="translate(107.340084 322.182437)scale(0.1 -0.1)">
       <defs>
        <path d="M 691 4666 
L 3169 4666 
L 3169 4134 
L 1269 4134 
L 1269 2991 
Q 1406 3038 1543 3061 
Q 1681 3084 1819 3084 
Q 2600 3084 3056 2656 
Q 3513 2228 3513 1497 
Q 3513 744 3044 326 
Q 2575 -91 1722 -91 
Q 1428 -91 1123 -41 
Q 819 9 494 109 
L 494 744 
Q 775 591 1075 516 
Q 1375 441 1709 441 
Q 2250 441 2565 725 
Q 2881 1009 2881 1497 
Q 2881 1984 2565 2268 
Q 2250 2553 1709 2553 
Q 1456 2553 1204 2497 
Q 953 2441 691 2322 
L 691 4666 
z
" id="DejaVuSans-35" transform="scale(0.015625)"/>
       </defs>
       <use xlink:href="#DejaVuSans-35"/>
       <use x="63.623047" xlink:href="#DejaVuSans-30"/>
      </g>
     </g>
    </g>
    <g id="xtick_3">
     <g id="line2d_3">
      <g>
       <use style="stroke:#000000;stroke-width:0.8;" x="154.386111" xlink:href="#m00b8062085" y="307.584"/>
      </g>
     </g>
     <g id="text_3">
      <!-- 100 -->
      <g transform="translate(144.842361 322.182437)scale(0.1 -0.1)">
       <defs>
        <path d="M 794 531 
L 1825 531 
L 1825 4091 
L 703 3866 
L 703 4441 
L 1819 4666 
L 2450 4666 
L 2450 531 
L 3481 531 
L 3481 0 
L 794 0 
L 794 531 
z
" id="DejaVuSans-31" transform="scale(0.015625)"/>
       </defs>
       <use xlink:href="#DejaVuSans-31"/>
       <use x="63.623047" xlink:href="#DejaVuSans-30"/>
       <use x="127.246094" xlink:href="#DejaVuSans-30"/>
      </g>
     </g>
    </g>
    <g id="xtick_4">
     <g id="line2d_4">
      <g>
       <use style="stroke:#000000;stroke-width:0.8;" x="195.069638" xlink:href="#m00b8062085" y="307.584"/>
      </g>
     </g>
     <g id="text_4">
      <!-- 150 -->
      <g transform="translate(185.525888 322.182437)scale(0.1 -0.1)">
       <use xlink:href="#DejaVuSans-31"/>
       <use x="63.623047" xlink:href="#DejaVuSans-35"/>
       <use x="127.246094" xlink:href="#DejaVuSans-30"/>
      </g>
     </g>
    </g>
    <g id="xtick_5">
     <g id="line2d_5">
      <g>
       <use style="stroke:#000000;stroke-width:0.8;" x="235.753165" xlink:href="#m00b8062085" y="307.584"/>
      </g>
     </g>
     <g id="text_5">
      <!-- 200 -->
      <g transform="translate(226.209415 322.182437)scale(0.1 -0.1)">
       <defs>
        <path d="M 1228 531 
L 3431 531 
L 3431 0 
L 469 0 
L 469 531 
Q 828 903 1448 1529 
Q 2069 2156 2228 2338 
Q 2531 2678 2651 2914 
Q 2772 3150 2772 3378 
Q 2772 3750 2511 3984 
Q 2250 4219 1831 4219 
Q 1534 4219 1204 4116 
Q 875 4013 500 3803 
L 500 4441 
Q 881 4594 1212 4672 
Q 1544 4750 1819 4750 
Q 2544 4750 2975 4387 
Q 3406 4025 3406 3419 
Q 3406 3131 3298 2873 
Q 3191 2616 2906 2266 
Q 2828 2175 2409 1742 
Q 1991 1309 1228 531 
z
" id="DejaVuSans-32" transform="scale(0.015625)"/>
       </defs>
       <use xlink:href="#DejaVuSans-32"/>
       <use x="63.623047" xlink:href="#DejaVuSans-30"/>
       <use x="127.246094" xlink:href="#DejaVuSans-30"/>
      </g>
     </g>
    </g>
    <g id="xtick_6">
     <g id="line2d_6">
      <g>
       <use style="stroke:#000000;stroke-width:0.8;" x="276.436692" xlink:href="#m00b8062085" y="307.584"/>
      </g>
     </g>
     <g id="text_6">
      <!-- 250 -->
      <g transform="translate(266.892942 322.182437)scale(0.1 -0.1)">
       <use xlink:href="#DejaVuSans-32"/>
       <use x="63.623047" xlink:href="#DejaVuSans-35"/>
       <use x="127.246094" xlink:href="#DejaVuSans-30"/>
      </g>
     </g>
    </g>
    <g id="xtick_7">
     <g id="line2d_7">
      <g>
       <use style="stroke:#000000;stroke-width:0.8;" x="317.120219" xlink:href="#m00b8062085" y="307.584"/>
      </g>
     </g>
     <g id="text_7">
      <!-- 300 -->
      <g transform="translate(307.576469 322.182437)scale(0.1 -0.1)">
       <defs>
        <path d="M 2597 2516 
Q 3050 2419 3304 2112 
Q 3559 1806 3559 1356 
Q 3559 666 3084 287 
Q 2609 -91 1734 -91 
Q 1441 -91 1130 -33 
Q 819 25 488 141 
L 488 750 
Q 750 597 1062 519 
Q 1375 441 1716 441 
Q 2309 441 2620 675 
Q 2931 909 2931 1356 
Q 2931 1769 2642 2001 
Q 2353 2234 1838 2234 
L 1294 2234 
L 1294 2753 
L 1863 2753 
Q 2328 2753 2575 2939 
Q 2822 3125 2822 3475 
Q 2822 3834 2567 4026 
Q 2313 4219 1838 4219 
Q 1578 4219 1281 4162 
Q 984 4106 628 3988 
L 628 4550 
Q 988 4650 1302 4700 
Q 1616 4750 1894 4750 
Q 2613 4750 3031 4423 
Q 3450 4097 3450 3541 
Q 3450 3153 3228 2886 
Q 3006 2619 2597 2516 
z
" id="DejaVuSans-33" transform="scale(0.015625)"/>
       </defs>
       <use xlink:href="#DejaVuSans-33"/>
       <use x="63.623047" xlink:href="#DejaVuSans-30"/>
       <use x="127.246094" xlink:href="#DejaVuSans-30"/>
      </g>
     </g>
    </g>
    <g id="xtick_8">
     <g id="line2d_8">
      <g>
       <use style="stroke:#000000;stroke-width:0.8;" x="357.803746" xlink:href="#m00b8062085" y="307.584"/>
      </g>
     </g>
     <g id="text_8">
      <!-- 350 -->
      <g transform="translate(348.259996 322.182437)scale(0.1 -0.1)">
       <use xlink:href="#DejaVuSans-33"/>
       <use x="63.623047" xlink:href="#DejaVuSans-35"/>
       <use x="127.246094" xlink:href="#DejaVuSans-30"/>
      </g>
     </g>
    </g>
    <g id="xtick_9">
     <g id="line2d_9">
      <g>
       <use style="stroke:#000000;stroke-width:0.8;" x="398.487273" xlink:href="#m00b8062085" y="307.584"/>
      </g>
     </g>
     <g id="text_9">
      <!-- 400 -->
      <g transform="translate(388.943523 322.182437)scale(0.1 -0.1)">
       <defs>
        <path d="M 2419 4116 
L 825 1625 
L 2419 1625 
L 2419 4116 
z
M 2253 4666 
L 3047 4666 
L 3047 1625 
L 3713 1625 
L 3713 1100 
L 3047 1100 
L 3047 0 
L 2419 0 
L 2419 1100 
L 313 1100 
L 313 1709 
L 2253 4666 
z
" id="DejaVuSans-34" transform="scale(0.015625)"/>
       </defs>
       <use xlink:href="#DejaVuSans-34"/>
       <use x="63.623047" xlink:href="#DejaVuSans-30"/>
       <use x="127.246094" xlink:href="#DejaVuSans-30"/>
      </g>
     </g>
    </g>
    <g id="text_10">
     <!-- Epoch -->
     <g transform="translate(213.193594 339.659781)scale(0.15 -0.15)">
      <defs>
       <path d="M 628 4666 
L 3578 4666 
L 3578 4134 
L 1259 4134 
L 1259 2753 
L 3481 2753 
L 3481 2222 
L 1259 2222 
L 1259 531 
L 3634 531 
L 3634 0 
L 628 0 
L 628 4666 
z
" id="DejaVuSans-45" transform="scale(0.015625)"/>
       <path d="M 1159 525 
L 1159 -1331 
L 581 -1331 
L 581 3500 
L 1159 3500 
L 1159 2969 
Q 1341 3281 1617 3432 
Q 1894 3584 2278 3584 
Q 2916 3584 3314 3078 
Q 3713 2572 3713 1747 
Q 3713 922 3314 415 
Q 2916 -91 2278 -91 
Q 1894 -91 1617 61 
Q 1341 213 1159 525 
z
M 3116 1747 
Q 3116 2381 2855 2742 
Q 2594 3103 2138 3103 
Q 1681 3103 1420 2742 
Q 1159 2381 1159 1747 
Q 1159 1113 1420 752 
Q 1681 391 2138 391 
Q 2594 391 2855 752 
Q 3116 1113 3116 1747 
z
" id="DejaVuSans-70" transform="scale(0.015625)"/>
       <path d="M 1959 3097 
Q 1497 3097 1228 2736 
Q 959 2375 959 1747 
Q 959 1119 1226 758 
Q 1494 397 1959 397 
Q 2419 397 2687 759 
Q 2956 1122 2956 1747 
Q 2956 2369 2687 2733 
Q 2419 3097 1959 3097 
z
M 1959 3584 
Q 2709 3584 3137 3096 
Q 3566 2609 3566 1747 
Q 3566 888 3137 398 
Q 2709 -91 1959 -91 
Q 1206 -91 779 398 
Q 353 888 353 1747 
Q 353 2609 779 3096 
Q 1206 3584 1959 3584 
z
" id="DejaVuSans-6f" transform="scale(0.015625)"/>
       <path d="M 3122 3366 
L 3122 2828 
Q 2878 2963 2633 3030 
Q 2388 3097 2138 3097 
Q 1578 3097 1268 2742 
Q 959 2388 959 1747 
Q 959 1106 1268 751 
Q 1578 397 2138 397 
Q 2388 397 2633 464 
Q 2878 531 3122 666 
L 3122 134 
Q 2881 22 2623 -34 
Q 2366 -91 2075 -91 
Q 1284 -91 818 406 
Q 353 903 353 1747 
Q 353 2603 823 3093 
Q 1294 3584 2113 3584 
Q 2378 3584 2631 3529 
Q 2884 3475 3122 3366 
z
" id="DejaVuSans-63" transform="scale(0.015625)"/>
       <path d="M 3513 2113 
L 3513 0 
L 2938 0 
L 2938 2094 
Q 2938 2591 2744 2837 
Q 2550 3084 2163 3084 
Q 1697 3084 1428 2787 
Q 1159 2491 1159 1978 
L 1159 0 
L 581 0 
L 581 4863 
L 1159 4863 
L 1159 2956 
Q 1366 3272 1645 3428 
Q 1925 3584 2291 3584 
Q 2894 3584 3203 3211 
Q 3513 2838 3513 2113 
z
" id="DejaVuSans-68" transform="scale(0.015625)"/>
      </defs>
      <use xlink:href="#DejaVuSans-45"/>
      <use x="63.183594" xlink:href="#DejaVuSans-70"/>
      <use x="126.660156" xlink:href="#DejaVuSans-6f"/>
      <use x="187.841797" xlink:href="#DejaVuSans-63"/>
      <use x="242.822266" xlink:href="#DejaVuSans-68"/>
     </g>
    </g>
   </g>
   <g id="matplotlib.axis_2">
    <g id="ytick_1">
     <g id="line2d_10">
      <defs>
       <path d="M 0 0 
L -3.5 0 
" id="m970f939131" style="stroke:#000000;stroke-width:0.8;"/>
      </defs>
      <g>
       <use style="stroke:#000000;stroke-width:0.8;" x="57.6" xlink:href="#m970f939131" y="283.324209"/>
      </g>
     </g>
     <g id="text_11">
      <!-- 0.22 -->
      <g transform="translate(28.334375 287.123428)scale(0.1 -0.1)">
       <defs>
        <path d="M 684 794 
L 1344 794 
L 1344 0 
L 684 0 
L 684 794 
z
" id="DejaVuSans-2e" transform="scale(0.015625)"/>
       </defs>
       <use xlink:href="#DejaVuSans-30"/>
       <use x="63.623047" xlink:href="#DejaVuSans-2e"/>
       <use x="95.410156" xlink:href="#DejaVuSans-32"/>
       <use x="159.033203" xlink:href="#DejaVuSans-32"/>
      </g>
     </g>
    </g>
    <g id="ytick_2">
     <g id="line2d_11">
      <g>
       <use style="stroke:#000000;stroke-width:0.8;" x="57.6" xlink:href="#m970f939131" y="250.184033"/>
      </g>
     </g>
     <g id="text_12">
      <!-- 0.24 -->
      <g transform="translate(28.334375 253.983251)scale(0.1 -0.1)">
       <use xlink:href="#DejaVuSans-30"/>
       <use x="63.623047" xlink:href="#DejaVuSans-2e"/>
       <use x="95.410156" xlink:href="#DejaVuSans-32"/>
       <use x="159.033203" xlink:href="#DejaVuSans-34"/>
      </g>
     </g>
    </g>
    <g id="ytick_3">
     <g id="line2d_12">
      <g>
       <use style="stroke:#000000;stroke-width:0.8;" x="57.6" xlink:href="#m970f939131" y="217.043856"/>
      </g>
     </g>
     <g id="text_13">
      <!-- 0.26 -->
      <g transform="translate(28.334375 220.843075)scale(0.1 -0.1)">
       <defs>
        <path d="M 2113 2584 
Q 1688 2584 1439 2293 
Q 1191 2003 1191 1497 
Q 1191 994 1439 701 
Q 1688 409 2113 409 
Q 2538 409 2786 701 
Q 3034 994 3034 1497 
Q 3034 2003 2786 2293 
Q 2538 2584 2113 2584 
z
M 3366 4563 
L 3366 3988 
Q 3128 4100 2886 4159 
Q 2644 4219 2406 4219 
Q 1781 4219 1451 3797 
Q 1122 3375 1075 2522 
Q 1259 2794 1537 2939 
Q 1816 3084 2150 3084 
Q 2853 3084 3261 2657 
Q 3669 2231 3669 1497 
Q 3669 778 3244 343 
Q 2819 -91 2113 -91 
Q 1303 -91 875 529 
Q 447 1150 447 2328 
Q 447 3434 972 4092 
Q 1497 4750 2381 4750 
Q 2619 4750 2861 4703 
Q 3103 4656 3366 4563 
z
" id="DejaVuSans-36" transform="scale(0.015625)"/>
       </defs>
       <use xlink:href="#DejaVuSans-30"/>
       <use x="63.623047" xlink:href="#DejaVuSans-2e"/>
       <use x="95.410156" xlink:href="#DejaVuSans-32"/>
       <use x="159.033203" xlink:href="#DejaVuSans-36"/>
      </g>
     </g>
    </g>
    <g id="ytick_4">
     <g id="line2d_13">
      <g>
       <use style="stroke:#000000;stroke-width:0.8;" x="57.6" xlink:href="#m970f939131" y="183.903679"/>
      </g>
     </g>
     <g id="text_14">
      <!-- 0.28 -->
      <g transform="translate(28.334375 187.702898)scale(0.1 -0.1)">
       <defs>
        <path d="M 2034 2216 
Q 1584 2216 1326 1975 
Q 1069 1734 1069 1313 
Q 1069 891 1326 650 
Q 1584 409 2034 409 
Q 2484 409 2743 651 
Q 3003 894 3003 1313 
Q 3003 1734 2745 1975 
Q 2488 2216 2034 2216 
z
M 1403 2484 
Q 997 2584 770 2862 
Q 544 3141 544 3541 
Q 544 4100 942 4425 
Q 1341 4750 2034 4750 
Q 2731 4750 3128 4425 
Q 3525 4100 3525 3541 
Q 3525 3141 3298 2862 
Q 3072 2584 2669 2484 
Q 3125 2378 3379 2068 
Q 3634 1759 3634 1313 
Q 3634 634 3220 271 
Q 2806 -91 2034 -91 
Q 1263 -91 848 271 
Q 434 634 434 1313 
Q 434 1759 690 2068 
Q 947 2378 1403 2484 
z
M 1172 3481 
Q 1172 3119 1398 2916 
Q 1625 2713 2034 2713 
Q 2441 2713 2670 2916 
Q 2900 3119 2900 3481 
Q 2900 3844 2670 4047 
Q 2441 4250 2034 4250 
Q 1625 4250 1398 4047 
Q 1172 3844 1172 3481 
z
" id="DejaVuSans-38" transform="scale(0.015625)"/>
       </defs>
       <use xlink:href="#DejaVuSans-30"/>
       <use x="63.623047" xlink:href="#DejaVuSans-2e"/>
       <use x="95.410156" xlink:href="#DejaVuSans-32"/>
       <use x="159.033203" xlink:href="#DejaVuSans-38"/>
      </g>
     </g>
    </g>
    <g id="ytick_5">
     <g id="line2d_14">
      <g>
       <use style="stroke:#000000;stroke-width:0.8;" x="57.6" xlink:href="#m970f939131" y="150.763502"/>
      </g>
     </g>
     <g id="text_15">
      <!-- 0.30 -->
      <g transform="translate(28.334375 154.562721)scale(0.1 -0.1)">
       <use xlink:href="#DejaVuSans-30"/>
       <use x="63.623047" xlink:href="#DejaVuSans-2e"/>
       <use x="95.410156" xlink:href="#DejaVuSans-33"/>
       <use x="159.033203" xlink:href="#DejaVuSans-30"/>
      </g>
     </g>
    </g>
    <g id="ytick_6">
     <g id="line2d_15">
      <g>
       <use style="stroke:#000000;stroke-width:0.8;" x="57.6" xlink:href="#m970f939131" y="117.623325"/>
      </g>
     </g>
     <g id="text_16">
      <!-- 0.32 -->
      <g transform="translate(28.334375 121.422544)scale(0.1 -0.1)">
       <use xlink:href="#DejaVuSans-30"/>
       <use x="63.623047" xlink:href="#DejaVuSans-2e"/>
       <use x="95.410156" xlink:href="#DejaVuSans-33"/>
       <use x="159.033203" xlink:href="#DejaVuSans-32"/>
      </g>
     </g>
    </g>
    <g id="ytick_7">
     <g id="line2d_16">
      <g>
       <use style="stroke:#000000;stroke-width:0.8;" x="57.6" xlink:href="#m970f939131" y="84.483149"/>
      </g>
     </g>
     <g id="text_17">
      <!-- 0.34 -->
      <g transform="translate(28.334375 88.282367)scale(0.1 -0.1)">
       <use xlink:href="#DejaVuSans-30"/>
       <use x="63.623047" xlink:href="#DejaVuSans-2e"/>
       <use x="95.410156" xlink:href="#DejaVuSans-33"/>
       <use x="159.033203" xlink:href="#DejaVuSans-34"/>
      </g>
     </g>
    </g>
    <g id="ytick_8">
     <g id="line2d_17">
      <g>
       <use style="stroke:#000000;stroke-width:0.8;" x="57.6" xlink:href="#m970f939131" y="51.342972"/>
      </g>
     </g>
     <g id="text_18">
      <!-- 0.36 -->
      <g transform="translate(28.334375 55.14219)scale(0.1 -0.1)">
       <use xlink:href="#DejaVuSans-30"/>
       <use x="63.623047" xlink:href="#DejaVuSans-2e"/>
       <use x="95.410156" xlink:href="#DejaVuSans-33"/>
       <use x="159.033203" xlink:href="#DejaVuSans-36"/>
      </g>
     </g>
    </g>
    <g id="text_19">
     <!-- Loss -->
     <g transform="translate(21.214844 190.978781)rotate(-90)scale(0.15 -0.15)">
      <defs>
       <path d="M 628 4666 
L 1259 4666 
L 1259 531 
L 3531 531 
L 3531 0 
L 628 0 
L 628 4666 
z
" id="DejaVuSans-4c" transform="scale(0.015625)"/>
       <path d="M 2834 3397 
L 2834 2853 
Q 2591 2978 2328 3040 
Q 2066 3103 1784 3103 
Q 1356 3103 1142 2972 
Q 928 2841 928 2578 
Q 928 2378 1081 2264 
Q 1234 2150 1697 2047 
L 1894 2003 
Q 2506 1872 2764 1633 
Q 3022 1394 3022 966 
Q 3022 478 2636 193 
Q 2250 -91 1575 -91 
Q 1294 -91 989 -36 
Q 684 19 347 128 
L 347 722 
Q 666 556 975 473 
Q 1284 391 1588 391 
Q 1994 391 2212 530 
Q 2431 669 2431 922 
Q 2431 1156 2273 1281 
Q 2116 1406 1581 1522 
L 1381 1569 
Q 847 1681 609 1914 
Q 372 2147 372 2553 
Q 372 3047 722 3315 
Q 1072 3584 1716 3584 
Q 2034 3584 2315 3537 
Q 2597 3491 2834 3397 
z
" id="DejaVuSans-73" transform="scale(0.015625)"/>
      </defs>
      <use xlink:href="#DejaVuSans-4c"/>
      <use x="53.962891" xlink:href="#DejaVuSans-6f"/>
      <use x="115.144531" xlink:href="#DejaVuSans-73"/>
      <use x="167.244141" xlink:href="#DejaVuSans-73"/>
     </g>
    </g>
   </g>
   <g id="line2d_18">
    <path clip-path="url(#p2c2a930b06)" d="M 73.832727 62.656826 
L 74.646398 78.448843 
L 75.460068 66.174396 
L 76.273739 90.221205 
L 77.087409 75.2028 
L 77.90108 72.571549 
L 78.714751 101.582034 
L 79.528421 75.217277 
L 80.342092 71.613184 
L 81.155762 56.098583 
L 81.969433 75.948085 
L 82.783103 74.623669 
L 83.596774 85.936682 
L 84.410444 84.070321 
L 85.224115 90.557725 
L 86.037785 78.771111 
L 86.851456 95.687642 
L 87.665126 87.591753 
L 88.478797 86.732291 
L 89.292468 103.735976 
L 90.106138 83.631591 
L 90.919809 84.278533 
L 91.733479 96.41374 
L 92.54715 91.083559 
L 93.36082 59.487874 
L 94.174491 98.038093 
L 94.988161 54.186592 
L 95.801832 95.873331 
L 96.615502 68.922884 
L 97.429173 97.325068 
L 98.242843 92.926977 
L 99.056514 72.12052 
L 99.870185 72.863597 
L 100.683855 68.635738 
L 101.497526 87.452626 
L 102.311196 81.008598 
L 103.124867 75.525789 
L 103.938537 97.66546 
L 104.752208 104.055318 
L 105.565878 63.51038 
L 106.379549 71.253478 
L 107.193219 104.315119 
L 108.00689 113.55669 
L 108.82056 113.433536 
L 109.634231 79.172136 
L 110.447902 102.597695 
L 111.261572 102.789337 
L 112.075243 96.369077 
L 112.888913 96.253626 
L 113.702584 125.641802 
L 114.516254 71.675495 
L 115.329925 80.099159 
L 116.957266 128.627558 
L 117.770936 125.840313 
L 118.584607 98.707814 
L 119.398278 83.663626 
L 120.211948 116.33011 
L 121.025619 96.269214 
L 121.839289 103.015212 
L 122.65296 126.402333 
L 123.46663 142.113732 
L 124.280301 129.730215 
L 125.093971 121.783228 
L 125.907642 105.812972 
L 126.721312 149.547408 
L 127.534983 115.143095 
L 128.348653 124.342318 
L 129.162324 127.05912 
L 129.975995 126.279223 
L 130.789665 115.653382 
L 131.603336 121.598096 
L 132.417006 108.247298 
L 133.230677 80.536545 
L 134.044347 126.609171 
L 134.858018 132.280752 
L 135.671688 95.183197 
L 136.485359 126.91941 
L 137.299029 129.990501 
L 138.1127 155.883092 
L 138.92637 109.325201 
L 139.740041 108.000038 
L 140.553712 92.627686 
L 141.367382 106.060755 
L 142.181053 109.128332 
L 142.994723 119.089776 
L 143.808394 109.968328 
L 144.622064 108.454787 
L 145.435735 119.487395 
L 146.249405 137.19173 
L 147.063076 137.077327 
L 147.876746 139.628325 
L 148.690417 126.755307 
L 149.504087 149.190367 
L 150.317758 125.207911 
L 151.131429 123.863659 
L 151.945099 154.766965 
L 152.75877 103.401122 
L 153.57244 152.926231 
L 154.386111 131.147345 
L 155.199781 113.246262 
L 156.827122 145.617015 
L 157.640793 120.185872 
L 158.454463 135.149622 
L 159.268134 144.248122 
L 160.081805 127.121207 
L 160.895475 128.1418 
L 161.709146 130.073864 
L 162.522816 151.890449 
L 163.336487 134.881808 
L 164.150157 130.587767 
L 164.963828 138.227396 
L 165.777498 158.586943 
L 166.591169 166.365202 
L 167.404839 116.141634 
L 168.21851 144.238915 
L 169.03218 106.279265 
L 169.845851 168.483474 
L 170.659522 127.496389 
L 171.473192 151.891301 
L 172.286863 147.643502 
L 173.100533 146.164147 
L 173.914204 189.035438 
L 174.727874 137.482018 
L 175.541545 148.535242 
L 176.355215 181.833156 
L 177.168886 102.36679 
L 177.982556 169.116987 
L 178.796227 205.463276 
L 179.609897 128.570741 
L 180.423568 161.199352 
L 181.237239 171.864844 
L 182.050909 175.18972 
L 182.86458 158.893559 
L 183.67825 161.380437 
L 184.491921 160.555611 
L 185.305591 189.420258 
L 186.119262 170.110443 
L 186.932932 181.864265 
L 187.746603 151.499278 
L 188.560273 163.735532 
L 189.373944 145.631303 
L 190.187614 179.859075 
L 191.001285 152.380779 
L 191.814956 141.72911 
L 192.628626 173.470341 
L 193.442297 181.5156 
L 194.255967 150.198587 
L 195.069638 197.709986 
L 195.883308 173.237599 
L 196.696979 194.541606 
L 197.510649 169.53976 
L 198.32432 178.75757 
L 199.13799 182.796727 
L 201.579002 170.467925 
L 202.392673 185.137307 
L 203.206343 147.041136 
L 204.020014 168.55249 
L 204.833684 175.973109 
L 205.647355 188.72096 
L 206.461025 185.699284 
L 207.274696 165.749639 
L 208.088366 171.437567 
L 208.902037 154.344885 
L 210.529378 171.582779 
L 211.343049 215.634789 
L 212.97039 165.800974 
L 213.78406 148.057797 
L 214.597731 187.572078 
L 215.411401 208.315182 
L 216.225072 194.729114 
L 217.038742 214.01409 
L 217.852413 165.600284 
L 218.666083 176.381722 
L 219.479754 201.86477 
L 220.293424 203.315259 
L 221.107095 188.452207 
L 221.920766 196.747653 
L 222.734436 169.019488 
L 223.548107 184.390713 
L 224.361777 172.154516 
L 225.175448 204.537963 
L 225.989118 198.785579 
L 226.802789 206.567968 
L 227.616459 190.552043 
L 228.43013 162.868911 
L 229.2438 206.997477 
L 230.057471 190.186445 
L 230.871141 212.387024 
L 231.684812 220.701138 
L 232.498483 171.752366 
L 233.312153 218.732231 
L 234.125824 199.278545 
L 234.939494 199.978648 
L 235.753165 199.720125 
L 237.380506 231.068367 
L 238.194176 232.531117 
L 239.007847 201.63799 
L 239.821517 218.883524 
L 240.635188 221.675269 
L 241.448859 199.910599 
L 242.262529 194.194786 
L 243.0762 193.575495 
L 243.88987 217.815128 
L 244.703541 184.014178 
L 245.517211 207.447147 
L 246.330882 227.415868 
L 247.144552 224.917497 
L 248.771893 194.235856 
L 249.585564 208.924732 
L 250.399234 228.266126 
L 251.212905 215.873848 
L 252.026576 167.760415 
L 252.840246 203.305109 
L 253.653917 209.823042 
L 254.467587 195.023807 
L 255.281258 209.293405 
L 256.094928 247.773237 
L 256.908599 242.020194 
L 257.722269 229.510872 
L 258.53594 190.865239 
L 259.34961 196.404328 
L 260.163281 238.611339 
L 260.976951 208.941473 
L 261.790622 248.900216 
L 262.604293 217.033795 
L 263.417963 199.984206 
L 264.231634 230.500161 
L 265.045304 226.543951 
L 265.858975 211.204241 
L 266.672645 237.693287 
L 267.486316 228.415607 
L 268.299986 221.189693 
L 269.113657 221.581861 
L 269.927327 227.930476 
L 270.740998 233.270671 
L 271.554668 216.307233 
L 272.368339 241.920513 
L 273.18201 175.722651 
L 273.99568 232.195332 
L 274.809351 238.643344 
L 275.623021 217.036263 
L 276.436692 225.70256 
L 277.250362 253.385825 
L 278.064033 208.454089 
L 278.877703 209.182699 
L 279.691374 259.931441 
L 280.505044 223.7581 
L 281.318715 233.888641 
L 282.132386 225.119266 
L 282.946056 246.774909 
L 283.759727 195.859757 
L 284.573397 239.029051 
L 285.387068 250.077014 
L 286.200738 229.293339 
L 287.014409 229.871444 
L 287.828079 244.665889 
L 288.64175 231.845613 
L 289.45542 257.45682 
L 290.269091 233.864047 
L 291.082761 232.57103 
L 291.896432 233.951546 
L 292.710103 222.616314 
L 293.523773 231.057394 
L 294.337444 213.961608 
L 295.151114 246.011428 
L 295.964785 246.979324 
L 296.778455 251.657407 
L 297.592126 229.442976 
L 298.405796 245.51474 
L 299.219467 198.344637 
L 300.033137 230.679592 
L 300.846808 233.148525 
L 301.660478 259.034261 
L 302.474149 248.353909 
L 303.28782 229.240039 
L 304.10149 242.197434 
L 304.915161 248.466129 
L 305.728831 228.836472 
L 306.542502 251.67222 
L 307.356172 251.398323 
L 308.169843 242.492606 
L 308.983513 258.691586 
L 309.797184 234.807862 
L 310.610854 220.856562 
L 311.424525 231.689969 
L 312.238195 228.060577 
L 313.051866 254.867563 
L 313.865537 206.261541 
L 314.679207 251.424142 
L 315.492878 257.750952 
L 316.306548 282.298673 
L 317.120219 244.12281 
L 317.933889 243.177342 
L 318.74756 284.351805 
L 319.56123 257.085658 
L 321.188571 244.778569 
L 322.002242 234.939699 
L 322.815913 245.154219 
L 323.629583 240.339713 
L 324.443254 224.696929 
L 326.070595 235.342399 
L 326.884265 222.07382 
L 327.697936 239.478568 
L 328.511606 245.075721 
L 329.325277 264.004725 
L 330.952618 253.628528 
L 331.766288 255.715081 
L 332.579959 286.838279 
L 333.39363 289.469539 
L 334.2073 243.837633 
L 335.020971 267.32039 
L 335.834641 232.336812 
L 336.648312 258.144447 
L 337.461982 263.350581 
L 338.275653 243.526215 
L 339.089323 242.346409 
L 339.902994 240.112 
L 340.716664 234.798843 
L 341.530335 233.885287 
L 342.344005 211.898382 
L 343.157676 251.335321 
L 343.971347 242.565986 
L 345.598688 291.338152 
L 346.412358 270.3269 
L 347.226029 276.225807 
L 348.039699 258.656421 
L 348.85337 259.272358 
L 349.66704 250.815159 
L 350.480711 254.703464 
L 351.294381 274.77456 
L 352.108052 235.865129 
L 352.921722 294.544347 
L 353.735393 261.886321 
L 354.549064 254.921924 
L 355.362734 268.564324 
L 356.176405 260.696013 
L 356.990075 260.619228 
L 357.803746 274.593085 
L 358.617416 268.431375 
L 359.431087 255.385782 
L 360.244757 259.785326 
L 361.058428 248.523467 
L 361.872098 273.852555 
L 362.685769 254.414856 
L 363.49944 260.735714 
L 364.31311 276.763279 
L 365.126781 262.260958 
L 365.940451 269.368209 
L 366.754122 281.183681 
L 367.567792 275.622006 
L 368.381463 237.77712 
L 369.195133 240.846235 
L 370.008804 238.360554 
L 370.822474 212.518115 
L 371.636145 263.620888 
L 372.449815 232.943914 
L 373.263486 284.483361 
L 374.077157 277.730044 
L 374.890827 250.719606 
L 375.704498 264.904148 
L 376.518168 267.843373 
L 377.331839 252.492148 
L 378.145509 250.17577 
L 378.95918 265.250823 
L 379.77285 258.40526 
L 380.586521 254.80983 
L 381.400191 261.665319 
L 382.213862 253.030938 
L 383.027532 283.249755 
L 383.841203 265.102793 
L 384.654874 266.928711 
L 385.468544 262.870934 
L 386.282215 253.252827 
L 387.095885 246.213077 
L 387.909556 244.860839 
L 388.723226 295.488 
L 389.536897 268.380292 
L 390.350567 258.943702 
L 391.164238 271.402675 
L 391.977908 279.428752 
L 392.791579 285.652446 
L 393.605249 283.624277 
L 394.41892 291.701562 
L 395.232591 280.417461 
L 396.046261 244.519977 
L 396.859932 249.538169 
L 397.673602 284.884007 
L 398.487273 270.072646 
L 398.487273 270.072646 
" style="fill:none;stroke:#1f77b4;stroke-linecap:square;stroke-width:1.5;"/>
   </g>
   <g id="line2d_19">
    <path clip-path="url(#p2c2a930b06)" d="M 73.832727 91.44267 
L 74.646398 92.571043 
L 75.460068 68.056626 
L 76.273739 72.358791 
L 77.087409 72.374458 
L 77.90108 89.241163 
L 78.714751 117.238788 
L 79.528421 56.174739 
L 80.342092 88.039046 
L 81.155762 91.903401 
L 81.969433 88.18819 
L 82.783103 79.106377 
L 83.596774 78.429946 
L 84.410444 65.214169 
L 85.224115 93.531264 
L 86.037785 89.567282 
L 86.851456 87.054122 
L 87.665126 67.691773 
L 88.478797 76.194994 
L 89.292468 62.00599 
L 90.106138 86.88416 
L 90.919809 87.191812 
L 91.733479 87.83757 
L 92.54715 82.651391 
L 93.36082 53.568 
L 94.988161 84.944397 
L 95.801832 74.320272 
L 96.615502 70.793341 
L 97.429173 100.45322 
L 98.242843 107.317627 
L 99.056514 78.084858 
L 99.870185 101.015491 
L 101.497526 81.27534 
L 102.311196 82.647494 
L 103.124867 60.625168 
L 103.938537 115.052377 
L 104.752208 77.293564 
L 105.565878 70.122689 
L 106.379549 106.98176 
L 107.193219 91.956081 
L 108.00689 112.840045 
L 108.82056 102.648702 
L 109.634231 83.822033 
L 110.447902 90.267758 
L 111.261572 117.209208 
L 112.075243 114.278927 
L 112.888913 91.81021 
L 113.702584 76.355395 
L 114.516254 119.00558 
L 115.329925 108.483915 
L 116.143595 101.801272 
L 116.957266 116.719573 
L 117.770936 94.37553 
L 118.584607 107.502584 
L 120.211948 99.993577 
L 121.025619 118.780862 
L 121.839289 96.165847 
L 122.65296 120.008535 
L 124.280301 108.25829 
L 125.093971 129.279989 
L 125.907642 107.629818 
L 126.721312 124.415587 
L 127.534983 115.320825 
L 128.348653 86.552371 
L 129.162324 101.058247 
L 129.975995 102.494774 
L 130.789665 109.630963 
L 131.603336 112.971347 
L 132.417006 108.079634 
L 133.230677 89.039906 
L 134.044347 127.724408 
L 134.858018 136.217043 
L 135.671688 128.69873 
L 136.485359 124.279432 
L 137.299029 114.284708 
L 138.1127 111.720328 
L 138.92637 140.494721 
L 139.740041 95.335617 
L 140.553712 117.176014 
L 141.367382 95.427528 
L 142.181053 131.587013 
L 142.994723 121.734207 
L 143.808394 116.005252 
L 144.622064 121.452328 
L 145.435735 116.348756 
L 146.249405 130.27295 
L 147.063076 140.837431 
L 147.876746 129.980294 
L 148.690417 125.504022 
L 149.504087 106.845021 
L 150.317758 138.811866 
L 151.131429 119.308343 
L 151.945099 119.650551 
L 152.75877 141.260758 
L 153.57244 137.965006 
L 154.386111 142.933146 
L 155.199781 151.566082 
L 156.013452 139.653783 
L 156.827122 141.702675 
L 157.640793 148.269455 
L 158.454463 130.742269 
L 159.268134 133.632234 
L 160.081805 132.061336 
L 160.895475 171.204355 
L 161.709146 160.424289 
L 162.522816 156.372104 
L 163.336487 155.072621 
L 164.150157 155.530255 
L 164.963828 133.435257 
L 165.777498 137.857065 
L 166.591169 144.216907 
L 167.404839 171.926575 
L 168.21851 116.605178 
L 169.03218 173.153638 
L 169.845851 157.836107 
L 170.659522 181.878469 
L 171.473192 149.5049 
L 172.286863 172.531656 
L 173.914204 144.026949 
L 174.727874 167.026677 
L 175.541545 166.279353 
L 176.355215 171.498819 
L 177.168886 162.388947 
L 177.982556 169.250323 
L 178.796227 161.165737 
L 179.609897 169.866488 
L 180.423568 162.867793 
L 181.237239 171.45647 
L 182.050909 159.535901 
L 182.86458 164.135082 
L 183.67825 174.814107 
L 184.491921 155.947213 
L 185.305591 173.447605 
L 186.119262 143.268551 
L 186.932932 139.556587 
L 187.746603 180.90861 
L 188.560273 170.660028 
L 189.373944 169.808632 
L 190.187614 148.197269 
L 191.814956 191.715856 
L 192.628626 172.420398 
L 193.442297 164.54774 
L 195.069638 145.606561 
L 195.883308 156.545256 
L 196.696979 164.235081 
L 198.32432 174.20311 
L 199.13799 176.44745 
L 199.951661 190.986621 
L 200.765332 180.482124 
L 201.579002 167.41517 
L 202.392673 158.950434 
L 203.206343 175.903835 
L 204.020014 179.383519 
L 204.833684 180.495137 
L 205.647355 188.975182 
L 206.461025 157.72417 
L 207.274696 184.123284 
L 208.088366 181.136129 
L 208.902037 167.945898 
L 209.715707 175.80476 
L 210.529378 174.289054 
L 211.343049 170.269434 
L 212.156719 152.874858 
L 212.97039 211.456239 
L 213.78406 177.26524 
L 214.597731 197.135772 
L 215.411401 193.92453 
L 216.225072 189.660304 
L 217.038742 204.88874 
L 217.852413 205.121091 
L 218.666083 195.030196 
L 219.479754 188.479402 
L 220.293424 188.221338 
L 221.107095 180.90932 
L 221.920766 197.281262 
L 222.734436 201.123164 
L 223.548107 185.87213 
L 224.361777 187.902907 
L 225.175448 195.008813 
L 225.989118 213.829246 
L 226.802789 208.347112 
L 227.616459 209.952742 
L 228.43013 212.38639 
L 229.2438 186.826102 
L 230.057471 152.55775 
L 231.684812 215.032049 
L 232.498483 218.756581 
L 233.312153 192.350408 
L 234.125824 209.380479 
L 234.939494 201.325585 
L 235.753165 187.749649 
L 236.566835 209.995681 
L 237.380506 206.108452 
L 238.194176 234.915345 
L 239.007847 198.723958 
L 239.821517 212.077139 
L 240.635188 188.048336 
L 241.448859 213.927605 
L 242.262529 197.218025 
L 243.0762 219.885073 
L 243.88987 211.3641 
L 244.703541 224.745948 
L 245.517211 215.480468 
L 246.330882 180.204769 
L 247.144552 202.149241 
L 247.958223 219.679506 
L 248.771893 194.492373 
L 249.585564 229.451971 
L 250.399234 225.413513 
L 251.212905 218.188975 
L 252.026576 187.385865 
L 252.840246 208.318068 
L 253.653917 208.918861 
L 254.467587 223.571714 
L 255.281258 220.942421 
L 256.094928 208.770292 
L 256.908599 214.783948 
L 257.722269 213.196388 
L 258.53594 228.293452 
L 259.34961 212.617963 
L 260.163281 224.120875 
L 260.976951 207.872836 
L 261.790622 216.146766 
L 262.604293 222.652438 
L 263.417963 197.628823 
L 264.231634 228.583362 
L 265.045304 232.563372 
L 265.858975 215.177451 
L 266.672645 230.260071 
L 267.486316 222.544514 
L 268.299986 221.682473 
L 269.113657 220.065111 
L 269.927327 210.959935 
L 270.740998 213.309188 
L 271.554668 223.469996 
L 272.368339 225.592189 
L 273.18201 228.701949 
L 273.99568 236.571743 
L 274.809351 228.401965 
L 276.436692 202.454155 
L 277.250362 231.222251 
L 278.064033 235.414521 
L 278.877703 225.267462 
L 279.691374 250.895878 
L 280.505044 205.064345 
L 281.318715 202.232149 
L 282.132386 225.17067 
L 282.946056 228.732369 
L 283.759727 234.303999 
L 284.573397 246.304102 
L 285.387068 225.431739 
L 286.200738 254.447477 
L 287.014409 227.650268 
L 287.828079 224.126899 
L 288.64175 202.004029 
L 289.45542 225.656798 
L 290.269091 234.324795 
L 291.082761 234.867377 
L 291.896432 223.06359 
L 292.710103 242.335835 
L 293.523773 251.364898 
L 294.337444 236.506915 
L 295.151114 223.82072 
L 295.964785 225.509421 
L 296.778455 238.735953 
L 297.592126 236.71059 
L 298.405796 259.172573 
L 299.219467 241.286041 
L 300.033137 233.893291 
L 300.846808 220.215323 
L 301.660478 218.318697 
L 302.474149 242.710579 
L 303.28782 246.438465 
L 304.10149 245.247255 
L 304.915161 248.590962 
L 305.728831 224.248131 
L 306.542502 262.644554 
L 307.356172 250.102135 
L 308.169843 235.449802 
L 308.983513 236.707805 
L 309.797184 215.749397 
L 310.610854 256.071148 
L 311.424525 224.251807 
L 312.238195 241.758307 
L 313.051866 231.297291 
L 313.865537 262.469544 
L 314.679207 260.395798 
L 315.492878 237.447637 
L 316.306548 259.012362 
L 317.120219 267.647784 
L 317.933889 254.623452 
L 318.74756 237.793238 
L 319.56123 250.458676 
L 320.374901 235.292007 
L 321.188571 233.541261 
L 322.002242 237.628415 
L 322.815913 217.745868 
L 323.629583 247.251917 
L 324.443254 242.50386 
L 325.256924 261.830108 
L 326.070595 261.781951 
L 326.884265 253.263928 
L 327.697936 246.714161 
L 328.511606 263.687606 
L 329.325277 238.975603 
L 330.138947 238.98346 
L 330.952618 266.233925 
L 331.766288 243.06297 
L 332.579959 230.011214 
L 333.39363 243.926165 
L 334.2073 235.834221 
L 335.834641 255.401849 
L 336.648312 234.663037 
L 337.461982 238.640219 
L 338.275653 258.327065 
L 339.089323 257.655425 
L 339.902994 251.902086 
L 340.716664 255.770632 
L 341.530335 239.403397 
L 342.344005 253.094257 
L 343.157676 228.150866 
L 343.971347 245.246795 
L 344.785017 265.637486 
L 345.598688 246.463344 
L 346.412358 249.090189 
L 347.226029 244.300533 
L 348.039699 266.978954 
L 348.85337 257.498241 
L 349.66704 254.962437 
L 350.480711 241.565552 
L 352.108052 292.083672 
L 352.921722 227.795793 
L 353.735393 249.175436 
L 354.549064 265.370872 
L 355.362734 246.365923 
L 356.176405 255.189722 
L 356.990075 238.387461 
L 357.803746 249.809518 
L 358.617416 259.111863 
L 359.431087 242.051864 
L 360.244757 255.934955 
L 361.058428 259.688885 
L 361.872098 234.723089 
L 362.685769 247.357514 
L 363.49944 263.592443 
L 364.31311 257.837036 
L 365.126781 267.020213 
L 365.940451 280.225868 
L 366.754122 234.195507 
L 367.567792 247.859387 
L 368.381463 255.42427 
L 369.195133 246.019831 
L 370.008804 260.46082 
L 370.822474 270.562662 
L 371.636145 278.181864 
L 372.449815 271.407437 
L 373.263486 286.21933 
L 374.077157 274.818675 
L 375.704498 231.25886 
L 376.518168 265.501274 
L 377.331839 266.176875 
L 378.145509 283.04926 
L 379.77285 238.966867 
L 381.400191 265.655442 
L 383.027532 249.469858 
L 383.841203 270.8559 
L 384.654874 253.713495 
L 385.468544 271.320106 
L 386.282215 274.628468 
L 387.095885 250.088943 
L 387.909556 274.329047 
L 388.723226 291.968893 
L 389.536897 247.806766 
L 390.350567 273.77683 
L 391.164238 286.734933 
L 391.977908 259.065287 
L 392.791579 269.003658 
L 393.605249 262.18361 
L 394.41892 261.527137 
L 395.232591 256.811433 
L 396.046261 260.029138 
L 396.859932 260.784405 
L 397.673602 262.086658 
L 398.487273 258.426485 
L 398.487273 258.426485 
" style="fill:none;stroke:#ff7f0e;stroke-linecap:square;stroke-width:1.5;"/>
   </g>
   <g id="patch_3">
    <path d="M 57.6 307.584 
L 57.6 41.472 
" style="fill:none;stroke:#000000;stroke-linecap:square;stroke-linejoin:miter;stroke-width:0.8;"/>
   </g>
   <g id="patch_4">
    <path d="M 414.72 307.584 
L 414.72 41.472 
" style="fill:none;stroke:#000000;stroke-linecap:square;stroke-linejoin:miter;stroke-width:0.8;"/>
   </g>
   <g id="patch_5">
    <path d="M 57.6 307.584 
L 414.72 307.584 
" style="fill:none;stroke:#000000;stroke-linecap:square;stroke-linejoin:miter;stroke-width:0.8;"/>
   </g>
   <g id="patch_6">
    <path d="M 57.6 41.472 
L 414.72 41.472 
" style="fill:none;stroke:#000000;stroke-linecap:square;stroke-linejoin:miter;stroke-width:0.8;"/>
   </g>
   <g id="legend_1">
    <g id="patch_7">
     <path d="M 303.845 78.82825 
L 407.72 78.82825 
Q 409.72 78.82825 409.72 76.82825 
L 409.72 48.472 
Q 409.72 46.472 407.72 46.472 
L 303.845 46.472 
Q 301.845 46.472 301.845 48.472 
L 301.845 76.82825 
Q 301.845 78.82825 303.845 78.82825 
z
" style="fill:#ffffff;opacity:0.8;stroke:#cccccc;stroke-linejoin:miter;"/>
    </g>
    <g id="line2d_20">
     <path d="M 305.845 54.570437 
L 325.845 54.570437 
" style="fill:none;stroke:#1f77b4;stroke-linecap:square;stroke-width:1.5;"/>
    </g>
    <g id="line2d_21"/>
    <g id="text_20">
     <!-- Train loss -->
     <g transform="translate(333.845 58.070437)scale(0.1 -0.1)">
      <defs>
       <path d="M -19 4666 
L 3928 4666 
L 3928 4134 
L 2272 4134 
L 2272 0 
L 1638 0 
L 1638 4134 
L -19 4134 
L -19 4666 
z
" id="DejaVuSans-54" transform="scale(0.015625)"/>
       <path d="M 2631 2963 
Q 2534 3019 2420 3045 
Q 2306 3072 2169 3072 
Q 1681 3072 1420 2755 
Q 1159 2438 1159 1844 
L 1159 0 
L 581 0 
L 581 3500 
L 1159 3500 
L 1159 2956 
Q 1341 3275 1631 3429 
Q 1922 3584 2338 3584 
Q 2397 3584 2469 3576 
Q 2541 3569 2628 3553 
L 2631 2963 
z
" id="DejaVuSans-72" transform="scale(0.015625)"/>
       <path d="M 2194 1759 
Q 1497 1759 1228 1600 
Q 959 1441 959 1056 
Q 959 750 1161 570 
Q 1363 391 1709 391 
Q 2188 391 2477 730 
Q 2766 1069 2766 1631 
L 2766 1759 
L 2194 1759 
z
M 3341 1997 
L 3341 0 
L 2766 0 
L 2766 531 
Q 2569 213 2275 61 
Q 1981 -91 1556 -91 
Q 1019 -91 701 211 
Q 384 513 384 1019 
Q 384 1609 779 1909 
Q 1175 2209 1959 2209 
L 2766 2209 
L 2766 2266 
Q 2766 2663 2505 2880 
Q 2244 3097 1772 3097 
Q 1472 3097 1187 3025 
Q 903 2953 641 2809 
L 641 3341 
Q 956 3463 1253 3523 
Q 1550 3584 1831 3584 
Q 2591 3584 2966 3190 
Q 3341 2797 3341 1997 
z
" id="DejaVuSans-61" transform="scale(0.015625)"/>
       <path d="M 603 3500 
L 1178 3500 
L 1178 0 
L 603 0 
L 603 3500 
z
M 603 4863 
L 1178 4863 
L 1178 4134 
L 603 4134 
L 603 4863 
z
" id="DejaVuSans-69" transform="scale(0.015625)"/>
       <path d="M 3513 2113 
L 3513 0 
L 2938 0 
L 2938 2094 
Q 2938 2591 2744 2837 
Q 2550 3084 2163 3084 
Q 1697 3084 1428 2787 
Q 1159 2491 1159 1978 
L 1159 0 
L 581 0 
L 581 3500 
L 1159 3500 
L 1159 2956 
Q 1366 3272 1645 3428 
Q 1925 3584 2291 3584 
Q 2894 3584 3203 3211 
Q 3513 2838 3513 2113 
z
" id="DejaVuSans-6e" transform="scale(0.015625)"/>
       <path id="DejaVuSans-20" transform="scale(0.015625)"/>
       <path d="M 603 4863 
L 1178 4863 
L 1178 0 
L 603 0 
L 603 4863 
z
" id="DejaVuSans-6c" transform="scale(0.015625)"/>
      </defs>
      <use xlink:href="#DejaVuSans-54"/>
      <use x="46.333984" xlink:href="#DejaVuSans-72"/>
      <use x="87.447266" xlink:href="#DejaVuSans-61"/>
      <use x="148.726562" xlink:href="#DejaVuSans-69"/>
      <use x="176.509766" xlink:href="#DejaVuSans-6e"/>
      <use x="239.888672" xlink:href="#DejaVuSans-20"/>
      <use x="271.675781" xlink:href="#DejaVuSans-6c"/>
      <use x="299.458984" xlink:href="#DejaVuSans-6f"/>
      <use x="360.640625" xlink:href="#DejaVuSans-73"/>
      <use x="412.740234" xlink:href="#DejaVuSans-73"/>
     </g>
    </g>
    <g id="line2d_22">
     <path d="M 305.845 69.248562 
L 325.845 69.248562 
" style="fill:none;stroke:#ff7f0e;stroke-linecap:square;stroke-width:1.5;"/>
    </g>
    <g id="line2d_23"/>
    <g id="text_21">
     <!-- Validation loss -->
     <g transform="translate(333.845 72.748562)scale(0.1 -0.1)">
      <defs>
       <path d="M 1831 0 
L 50 4666 
L 709 4666 
L 2188 738 
L 3669 4666 
L 4325 4666 
L 2547 0 
L 1831 0 
z
" id="DejaVuSans-56" transform="scale(0.015625)"/>
       <path d="M 2906 2969 
L 2906 4863 
L 3481 4863 
L 3481 0 
L 2906 0 
L 2906 525 
Q 2725 213 2448 61 
Q 2172 -91 1784 -91 
Q 1150 -91 751 415 
Q 353 922 353 1747 
Q 353 2572 751 3078 
Q 1150 3584 1784 3584 
Q 2172 3584 2448 3432 
Q 2725 3281 2906 2969 
z
M 947 1747 
Q 947 1113 1208 752 
Q 1469 391 1925 391 
Q 2381 391 2643 752 
Q 2906 1113 2906 1747 
Q 2906 2381 2643 2742 
Q 2381 3103 1925 3103 
Q 1469 3103 1208 2742 
Q 947 2381 947 1747 
z
" id="DejaVuSans-64" transform="scale(0.015625)"/>
       <path d="M 1172 4494 
L 1172 3500 
L 2356 3500 
L 2356 3053 
L 1172 3053 
L 1172 1153 
Q 1172 725 1289 603 
Q 1406 481 1766 481 
L 2356 481 
L 2356 0 
L 1766 0 
Q 1100 0 847 248 
Q 594 497 594 1153 
L 594 3053 
L 172 3053 
L 172 3500 
L 594 3500 
L 594 4494 
L 1172 4494 
z
" id="DejaVuSans-74" transform="scale(0.015625)"/>
      </defs>
      <use xlink:href="#DejaVuSans-56"/>
      <use x="60.658203" xlink:href="#DejaVuSans-61"/>
      <use x="121.9375" xlink:href="#DejaVuSans-6c"/>
      <use x="149.720703" xlink:href="#DejaVuSans-69"/>
      <use x="177.503906" xlink:href="#DejaVuSans-64"/>
      <use x="240.980469" xlink:href="#DejaVuSans-61"/>
      <use x="302.259766" xlink:href="#DejaVuSans-74"/>
      <use x="341.46875" xlink:href="#DejaVuSans-69"/>
      <use x="369.251953" xlink:href="#DejaVuSans-6f"/>
      <use x="430.433594" xlink:href="#DejaVuSans-6e"/>
      <use x="493.8125" xlink:href="#DejaVuSans-20"/>
      <use x="525.599609" xlink:href="#DejaVuSans-6c"/>
      <use x="553.382812" xlink:href="#DejaVuSans-6f"/>
      <use x="614.564453" xlink:href="#DejaVuSans-73"/>
      <use x="666.664062" xlink:href="#DejaVuSans-73"/>
     </g>
    </g>
   </g>
  </g>
 </g>
 <defs>
  <clipPath id="p2c2a930b06">
   <rect height="266.112" width="357.12" x="57.6" y="41.472"/>
  </clipPath>
 </defs>
</svg>
