<?xml version="1.0" encoding="utf-8" standalone="no"?>
<!DOCTYPE svg PUBLIC "-//W3C//DTD SVG 1.1//EN"
  "http://www.w3.org/Graphics/SVG/1.1/DTD/svg11.dtd">
<svg height="345.6pt" version="1.1" viewBox="0 0 460.8 345.6" width="460.8pt" xmlns="http://www.w3.org/2000/svg" xmlns:xlink="http://www.w3.org/1999/xlink">
 <metadata>
  <rdf:RDF xmlns:cc="http://creativecommons.org/ns#" xmlns:dc="http://purl.org/dc/elements/1.1/" xmlns:rdf="http://www.w3.org/1999/02/22-rdf-syntax-ns#">
   <cc:Work>
    <dc:type rdf:resource="http://purl.org/dc/dcmitype/StillImage"/>
    <dc:date>2021-07-15T21:39:58.533366</dc:date>
    <dc:format>image/svg+xml</dc:format>
    <dc:creator>
     <cc:Agent>
      <dc:title>Matplotlib v3.4.2, https://matplotlib.org/</dc:title>
     </cc:Agent>
    </dc:creator>
   </cc:Work>
  </rdf:RDF>
 </metadata>
 <defs>
  <style type="text/css">*{stroke-linecap:butt;stroke-linejoin:round;}</style>
 </defs>
 <g id="figure_1">
  <g id="patch_1">
   <path d="M 0 345.6 
L 460.8 345.6 
L 460.8 0 
L 0 0 
z
" style="fill:#ffffff;"/>
  </g>
  <g id="axes_1">
   <g id="patch_2">
    <path d="M 57.6 307.584 
L 414.72 307.584 
L 414.72 41.472 
L 57.6 41.472 
z
" style="fill:#ffffff;"/>
   </g>
   <g id="matplotlib.axis_1">
    <g id="xtick_1">
     <g id="line2d_1">
      <defs>
       <path d="M 0 0 
L 0 3.5 
" id="m34a9e4f61d" style="stroke:#000000;stroke-width:0.8;"/>
      </defs>
      <g>
       <use style="stroke:#000000;stroke-width:0.8;" x="73.019057" xlink:href="#m34a9e4f61d" y="307.584"/>
      </g>
     </g>
     <g id="text_1">
      <!-- 0 -->
      <g transform="translate(69.837807 322.182437)scale(0.1 -0.1)">
       <defs>
        <path d="M 2034 4250 
Q 1547 4250 1301 3770 
Q 1056 3291 1056 2328 
Q 1056 1369 1301 889 
Q 1547 409 2034 409 
Q 2525 409 2770 889 
Q 3016 1369 3016 2328 
Q 3016 3291 2770 3770 
Q 2525 4250 2034 4250 
z
M 2034 4750 
Q 2819 4750 3233 4129 
Q 3647 3509 3647 2328 
Q 3647 1150 3233 529 
Q 2819 -91 2034 -91 
Q 1250 -91 836 529 
Q 422 1150 422 2328 
Q 422 3509 836 4129 
Q 1250 4750 2034 4750 
z
" id="DejaVuSans-30" transform="scale(0.015625)"/>
       </defs>
       <use xlink:href="#DejaVuSans-30"/>
      </g>
     </g>
    </g>
    <g id="xtick_2">
     <g id="line2d_2">
      <g>
       <use style="stroke:#000000;stroke-width:0.8;" x="113.702584" xlink:href="#m34a9e4f61d" y="307.584"/>
      </g>
     </g>
     <g id="text_2">
      <!-- 50 -->
      <g transform="translate(107.340084 322.182437)scale(0.1 -0.1)">
       <defs>
        <path d="M 691 4666 
L 3169 4666 
L 3169 4134 
L 1269 4134 
L 1269 2991 
Q 1406 3038 1543 3061 
Q 1681 3084 1819 3084 
Q 2600 3084 3056 2656 
Q 3513 2228 3513 1497 
Q 3513 744 3044 326 
Q 2575 -91 1722 -91 
Q 1428 -91 1123 -41 
Q 819 9 494 109 
L 494 744 
Q 775 591 1075 516 
Q 1375 441 1709 441 
Q 2250 441 2565 725 
Q 2881 1009 2881 1497 
Q 2881 1984 2565 2268 
Q 2250 2553 1709 2553 
Q 1456 2553 1204 2497 
Q 953 2441 691 2322 
L 691 4666 
z
" id="DejaVuSans-35" transform="scale(0.015625)"/>
       </defs>
       <use xlink:href="#DejaVuSans-35"/>
       <use x="63.623047" xlink:href="#DejaVuSans-30"/>
      </g>
     </g>
    </g>
    <g id="xtick_3">
     <g id="line2d_3">
      <g>
       <use style="stroke:#000000;stroke-width:0.8;" x="154.386111" xlink:href="#m34a9e4f61d" y="307.584"/>
      </g>
     </g>
     <g id="text_3">
      <!-- 100 -->
      <g transform="translate(144.842361 322.182437)scale(0.1 -0.1)">
       <defs>
        <path d="M 794 531 
L 1825 531 
L 1825 4091 
L 703 3866 
L 703 4441 
L 1819 4666 
L 2450 4666 
L 2450 531 
L 3481 531 
L 3481 0 
L 794 0 
L 794 531 
z
" id="DejaVuSans-31" transform="scale(0.015625)"/>
       </defs>
       <use xlink:href="#DejaVuSans-31"/>
       <use x="63.623047" xlink:href="#DejaVuSans-30"/>
       <use x="127.246094" xlink:href="#DejaVuSans-30"/>
      </g>
     </g>
    </g>
    <g id="xtick_4">
     <g id="line2d_4">
      <g>
       <use style="stroke:#000000;stroke-width:0.8;" x="195.069638" xlink:href="#m34a9e4f61d" y="307.584"/>
      </g>
     </g>
     <g id="text_4">
      <!-- 150 -->
      <g transform="translate(185.525888 322.182437)scale(0.1 -0.1)">
       <use xlink:href="#DejaVuSans-31"/>
       <use x="63.623047" xlink:href="#DejaVuSans-35"/>
       <use x="127.246094" xlink:href="#DejaVuSans-30"/>
      </g>
     </g>
    </g>
    <g id="xtick_5">
     <g id="line2d_5">
      <g>
       <use style="stroke:#000000;stroke-width:0.8;" x="235.753165" xlink:href="#m34a9e4f61d" y="307.584"/>
      </g>
     </g>
     <g id="text_5">
      <!-- 200 -->
      <g transform="translate(226.209415 322.182437)scale(0.1 -0.1)">
       <defs>
        <path d="M 1228 531 
L 3431 531 
L 3431 0 
L 469 0 
L 469 531 
Q 828 903 1448 1529 
Q 2069 2156 2228 2338 
Q 2531 2678 2651 2914 
Q 2772 3150 2772 3378 
Q 2772 3750 2511 3984 
Q 2250 4219 1831 4219 
Q 1534 4219 1204 4116 
Q 875 4013 500 3803 
L 500 4441 
Q 881 4594 1212 4672 
Q 1544 4750 1819 4750 
Q 2544 4750 2975 4387 
Q 3406 4025 3406 3419 
Q 3406 3131 3298 2873 
Q 3191 2616 2906 2266 
Q 2828 2175 2409 1742 
Q 1991 1309 1228 531 
z
" id="DejaVuSans-32" transform="scale(0.015625)"/>
       </defs>
       <use xlink:href="#DejaVuSans-32"/>
       <use x="63.623047" xlink:href="#DejaVuSans-30"/>
       <use x="127.246094" xlink:href="#DejaVuSans-30"/>
      </g>
     </g>
    </g>
    <g id="xtick_6">
     <g id="line2d_6">
      <g>
       <use style="stroke:#000000;stroke-width:0.8;" x="276.436692" xlink:href="#m34a9e4f61d" y="307.584"/>
      </g>
     </g>
     <g id="text_6">
      <!-- 250 -->
      <g transform="translate(266.892942 322.182437)scale(0.1 -0.1)">
       <use xlink:href="#DejaVuSans-32"/>
       <use x="63.623047" xlink:href="#DejaVuSans-35"/>
       <use x="127.246094" xlink:href="#DejaVuSans-30"/>
      </g>
     </g>
    </g>
    <g id="xtick_7">
     <g id="line2d_7">
      <g>
       <use style="stroke:#000000;stroke-width:0.8;" x="317.120219" xlink:href="#m34a9e4f61d" y="307.584"/>
      </g>
     </g>
     <g id="text_7">
      <!-- 300 -->
      <g transform="translate(307.576469 322.182437)scale(0.1 -0.1)">
       <defs>
        <path d="M 2597 2516 
Q 3050 2419 3304 2112 
Q 3559 1806 3559 1356 
Q 3559 666 3084 287 
Q 2609 -91 1734 -91 
Q 1441 -91 1130 -33 
Q 819 25 488 141 
L 488 750 
Q 750 597 1062 519 
Q 1375 441 1716 441 
Q 2309 441 2620 675 
Q 2931 909 2931 1356 
Q 2931 1769 2642 2001 
Q 2353 2234 1838 2234 
L 1294 2234 
L 1294 2753 
L 1863 2753 
Q 2328 2753 2575 2939 
Q 2822 3125 2822 3475 
Q 2822 3834 2567 4026 
Q 2313 4219 1838 4219 
Q 1578 4219 1281 4162 
Q 984 4106 628 3988 
L 628 4550 
Q 988 4650 1302 4700 
Q 1616 4750 1894 4750 
Q 2613 4750 3031 4423 
Q 3450 4097 3450 3541 
Q 3450 3153 3228 2886 
Q 3006 2619 2597 2516 
z
" id="DejaVuSans-33" transform="scale(0.015625)"/>
       </defs>
       <use xlink:href="#DejaVuSans-33"/>
       <use x="63.623047" xlink:href="#DejaVuSans-30"/>
       <use x="127.246094" xlink:href="#DejaVuSans-30"/>
      </g>
     </g>
    </g>
    <g id="xtick_8">
     <g id="line2d_8">
      <g>
       <use style="stroke:#000000;stroke-width:0.8;" x="357.803746" xlink:href="#m34a9e4f61d" y="307.584"/>
      </g>
     </g>
     <g id="text_8">
      <!-- 350 -->
      <g transform="translate(348.259996 322.182437)scale(0.1 -0.1)">
       <use xlink:href="#DejaVuSans-33"/>
       <use x="63.623047" xlink:href="#DejaVuSans-35"/>
       <use x="127.246094" xlink:href="#DejaVuSans-30"/>
      </g>
     </g>
    </g>
    <g id="xtick_9">
     <g id="line2d_9">
      <g>
       <use style="stroke:#000000;stroke-width:0.8;" x="398.487273" xlink:href="#m34a9e4f61d" y="307.584"/>
      </g>
     </g>
     <g id="text_9">
      <!-- 400 -->
      <g transform="translate(388.943523 322.182437)scale(0.1 -0.1)">
       <defs>
        <path d="M 2419 4116 
L 825 1625 
L 2419 1625 
L 2419 4116 
z
M 2253 4666 
L 3047 4666 
L 3047 1625 
L 3713 1625 
L 3713 1100 
L 3047 1100 
L 3047 0 
L 2419 0 
L 2419 1100 
L 313 1100 
L 313 1709 
L 2253 4666 
z
" id="DejaVuSans-34" transform="scale(0.015625)"/>
       </defs>
       <use xlink:href="#DejaVuSans-34"/>
       <use x="63.623047" xlink:href="#DejaVuSans-30"/>
       <use x="127.246094" xlink:href="#DejaVuSans-30"/>
      </g>
     </g>
    </g>
    <g id="text_10">
     <!-- Epoch -->
     <g transform="translate(213.193594 339.659781)scale(0.15 -0.15)">
      <defs>
       <path d="M 628 4666 
L 3578 4666 
L 3578 4134 
L 1259 4134 
L 1259 2753 
L 3481 2753 
L 3481 2222 
L 1259 2222 
L 1259 531 
L 3634 531 
L 3634 0 
L 628 0 
L 628 4666 
z
" id="DejaVuSans-45" transform="scale(0.015625)"/>
       <path d="M 1159 525 
L 1159 -1331 
L 581 -1331 
L 581 3500 
L 1159 3500 
L 1159 2969 
Q 1341 3281 1617 3432 
Q 1894 3584 2278 3584 
Q 2916 3584 3314 3078 
Q 3713 2572 3713 1747 
Q 3713 922 3314 415 
Q 2916 -91 2278 -91 
Q 1894 -91 1617 61 
Q 1341 213 1159 525 
z
M 3116 1747 
Q 3116 2381 2855 2742 
Q 2594 3103 2138 3103 
Q 1681 3103 1420 2742 
Q 1159 2381 1159 1747 
Q 1159 1113 1420 752 
Q 1681 391 2138 391 
Q 2594 391 2855 752 
Q 3116 1113 3116 1747 
z
" id="DejaVuSans-70" transform="scale(0.015625)"/>
       <path d="M 1959 3097 
Q 1497 3097 1228 2736 
Q 959 2375 959 1747 
Q 959 1119 1226 758 
Q 1494 397 1959 397 
Q 2419 397 2687 759 
Q 2956 1122 2956 1747 
Q 2956 2369 2687 2733 
Q 2419 3097 1959 3097 
z
M 1959 3584 
Q 2709 3584 3137 3096 
Q 3566 2609 3566 1747 
Q 3566 888 3137 398 
Q 2709 -91 1959 -91 
Q 1206 -91 779 398 
Q 353 888 353 1747 
Q 353 2609 779 3096 
Q 1206 3584 1959 3584 
z
" id="DejaVuSans-6f" transform="scale(0.015625)"/>
       <path d="M 3122 3366 
L 3122 2828 
Q 2878 2963 2633 3030 
Q 2388 3097 2138 3097 
Q 1578 3097 1268 2742 
Q 959 2388 959 1747 
Q 959 1106 1268 751 
Q 1578 397 2138 397 
Q 2388 397 2633 464 
Q 2878 531 3122 666 
L 3122 134 
Q 2881 22 2623 -34 
Q 2366 -91 2075 -91 
Q 1284 -91 818 406 
Q 353 903 353 1747 
Q 353 2603 823 3093 
Q 1294 3584 2113 3584 
Q 2378 3584 2631 3529 
Q 2884 3475 3122 3366 
z
" id="DejaVuSans-63" transform="scale(0.015625)"/>
       <path d="M 3513 2113 
L 3513 0 
L 2938 0 
L 2938 2094 
Q 2938 2591 2744 2837 
Q 2550 3084 2163 3084 
Q 1697 3084 1428 2787 
Q 1159 2491 1159 1978 
L 1159 0 
L 581 0 
L 581 4863 
L 1159 4863 
L 1159 2956 
Q 1366 3272 1645 3428 
Q 1925 3584 2291 3584 
Q 2894 3584 3203 3211 
Q 3513 2838 3513 2113 
z
" id="DejaVuSans-68" transform="scale(0.015625)"/>
      </defs>
      <use xlink:href="#DejaVuSans-45"/>
      <use x="63.183594" xlink:href="#DejaVuSans-70"/>
      <use x="126.660156" xlink:href="#DejaVuSans-6f"/>
      <use x="187.841797" xlink:href="#DejaVuSans-63"/>
      <use x="242.822266" xlink:href="#DejaVuSans-68"/>
     </g>
    </g>
   </g>
   <g id="matplotlib.axis_2">
    <g id="ytick_1">
     <g id="line2d_10">
      <defs>
       <path d="M 0 0 
L -3.5 0 
" id="mb2c53525df" style="stroke:#000000;stroke-width:0.8;"/>
      </defs>
      <g>
       <use style="stroke:#000000;stroke-width:0.8;" x="57.6" xlink:href="#mb2c53525df" y="292.312227"/>
      </g>
     </g>
     <g id="text_11">
      <!-- 0 -->
      <g transform="translate(44.2375 296.111446)scale(0.1 -0.1)">
       <use xlink:href="#DejaVuSans-30"/>
      </g>
     </g>
    </g>
    <g id="ytick_2">
     <g id="line2d_11">
      <g>
       <use style="stroke:#000000;stroke-width:0.8;" x="57.6" xlink:href="#mb2c53525df" y="237.755211"/>
      </g>
     </g>
     <g id="text_12">
      <!-- 20000 -->
      <g transform="translate(18.7875 241.554429)scale(0.1 -0.1)">
       <use xlink:href="#DejaVuSans-32"/>
       <use x="63.623047" xlink:href="#DejaVuSans-30"/>
       <use x="127.246094" xlink:href="#DejaVuSans-30"/>
       <use x="190.869141" xlink:href="#DejaVuSans-30"/>
       <use x="254.492188" xlink:href="#DejaVuSans-30"/>
      </g>
     </g>
    </g>
    <g id="ytick_3">
     <g id="line2d_12">
      <g>
       <use style="stroke:#000000;stroke-width:0.8;" x="57.6" xlink:href="#mb2c53525df" y="183.198194"/>
      </g>
     </g>
     <g id="text_13">
      <!-- 40000 -->
      <g transform="translate(18.7875 186.997413)scale(0.1 -0.1)">
       <use xlink:href="#DejaVuSans-34"/>
       <use x="63.623047" xlink:href="#DejaVuSans-30"/>
       <use x="127.246094" xlink:href="#DejaVuSans-30"/>
       <use x="190.869141" xlink:href="#DejaVuSans-30"/>
       <use x="254.492188" xlink:href="#DejaVuSans-30"/>
      </g>
     </g>
    </g>
    <g id="ytick_4">
     <g id="line2d_13">
      <g>
       <use style="stroke:#000000;stroke-width:0.8;" x="57.6" xlink:href="#mb2c53525df" y="128.641178"/>
      </g>
     </g>
     <g id="text_14">
      <!-- 60000 -->
      <g transform="translate(18.7875 132.440396)scale(0.1 -0.1)">
       <defs>
        <path d="M 2113 2584 
Q 1688 2584 1439 2293 
Q 1191 2003 1191 1497 
Q 1191 994 1439 701 
Q 1688 409 2113 409 
Q 2538 409 2786 701 
Q 3034 994 3034 1497 
Q 3034 2003 2786 2293 
Q 2538 2584 2113 2584 
z
M 3366 4563 
L 3366 3988 
Q 3128 4100 2886 4159 
Q 2644 4219 2406 4219 
Q 1781 4219 1451 3797 
Q 1122 3375 1075 2522 
Q 1259 2794 1537 2939 
Q 1816 3084 2150 3084 
Q 2853 3084 3261 2657 
Q 3669 2231 3669 1497 
Q 3669 778 3244 343 
Q 2819 -91 2113 -91 
Q 1303 -91 875 529 
Q 447 1150 447 2328 
Q 447 3434 972 4092 
Q 1497 4750 2381 4750 
Q 2619 4750 2861 4703 
Q 3103 4656 3366 4563 
z
" id="DejaVuSans-36" transform="scale(0.015625)"/>
       </defs>
       <use xlink:href="#DejaVuSans-36"/>
       <use x="63.623047" xlink:href="#DejaVuSans-30"/>
       <use x="127.246094" xlink:href="#DejaVuSans-30"/>
       <use x="190.869141" xlink:href="#DejaVuSans-30"/>
       <use x="254.492188" xlink:href="#DejaVuSans-30"/>
      </g>
     </g>
    </g>
    <g id="ytick_5">
     <g id="line2d_14">
      <g>
       <use style="stroke:#000000;stroke-width:0.8;" x="57.6" xlink:href="#mb2c53525df" y="74.084161"/>
      </g>
     </g>
     <g id="text_15">
      <!-- 80000 -->
      <g transform="translate(18.7875 77.88338)scale(0.1 -0.1)">
       <defs>
        <path d="M 2034 2216 
Q 1584 2216 1326 1975 
Q 1069 1734 1069 1313 
Q 1069 891 1326 650 
Q 1584 409 2034 409 
Q 2484 409 2743 651 
Q 3003 894 3003 1313 
Q 3003 1734 2745 1975 
Q 2488 2216 2034 2216 
z
M 1403 2484 
Q 997 2584 770 2862 
Q 544 3141 544 3541 
Q 544 4100 942 4425 
Q 1341 4750 2034 4750 
Q 2731 4750 3128 4425 
Q 3525 4100 3525 3541 
Q 3525 3141 3298 2862 
Q 3072 2584 2669 2484 
Q 3125 2378 3379 2068 
Q 3634 1759 3634 1313 
Q 3634 634 3220 271 
Q 2806 -91 2034 -91 
Q 1263 -91 848 271 
Q 434 634 434 1313 
Q 434 1759 690 2068 
Q 947 2378 1403 2484 
z
M 1172 3481 
Q 1172 3119 1398 2916 
Q 1625 2713 2034 2713 
Q 2441 2713 2670 2916 
Q 2900 3119 2900 3481 
Q 2900 3844 2670 4047 
Q 2441 4250 2034 4250 
Q 1625 4250 1398 4047 
Q 1172 3844 1172 3481 
z
" id="DejaVuSans-38" transform="scale(0.015625)"/>
       </defs>
       <use xlink:href="#DejaVuSans-38"/>
       <use x="63.623047" xlink:href="#DejaVuSans-30"/>
       <use x="127.246094" xlink:href="#DejaVuSans-30"/>
       <use x="190.869141" xlink:href="#DejaVuSans-30"/>
       <use x="254.492188" xlink:href="#DejaVuSans-30"/>
      </g>
     </g>
    </g>
    <g id="text_16">
     <!-- Loss -->
     <g transform="translate(11.667969 190.978781)rotate(-90)scale(0.15 -0.15)">
      <defs>
       <path d="M 628 4666 
L 1259 4666 
L 1259 531 
L 3531 531 
L 3531 0 
L 628 0 
L 628 4666 
z
" id="DejaVuSans-4c" transform="scale(0.015625)"/>
       <path d="M 2834 3397 
L 2834 2853 
Q 2591 2978 2328 3040 
Q 2066 3103 1784 3103 
Q 1356 3103 1142 2972 
Q 928 2841 928 2578 
Q 928 2378 1081 2264 
Q 1234 2150 1697 2047 
L 1894 2003 
Q 2506 1872 2764 1633 
Q 3022 1394 3022 966 
Q 3022 478 2636 193 
Q 2250 -91 1575 -91 
Q 1294 -91 989 -36 
Q 684 19 347 128 
L 347 722 
Q 666 556 975 473 
Q 1284 391 1588 391 
Q 1994 391 2212 530 
Q 2431 669 2431 922 
Q 2431 1156 2273 1281 
Q 2116 1406 1581 1522 
L 1381 1569 
Q 847 1681 609 1914 
Q 372 2147 372 2553 
Q 372 3047 722 3315 
Q 1072 3584 1716 3584 
Q 2034 3584 2315 3537 
Q 2597 3491 2834 3397 
z
" id="DejaVuSans-73" transform="scale(0.015625)"/>
      </defs>
      <use xlink:href="#DejaVuSans-4c"/>
      <use x="53.962891" xlink:href="#DejaVuSans-6f"/>
      <use x="115.144531" xlink:href="#DejaVuSans-73"/>
      <use x="167.244141" xlink:href="#DejaVuSans-73"/>
     </g>
    </g>
   </g>
   <g id="line2d_15">
    <path clip-path="url(#pe68627b066)" d="M 73.832727 292.618652 
L 74.646398 293.209974 
L 76.273739 293.558979 
L 77.087409 293.516188 
L 83.596774 294.169716 
L 84.410444 294.098908 
L 85.224115 294.223188 
L 86.037785 294.126877 
L 88.478797 294.423151 
L 94.988161 294.497554 
L 95.801832 294.642165 
L 97.429173 294.348895 
L 98.242843 294.568 
L 99.870185 294.77689 
L 100.683855 294.531486 
L 102.311196 294.561118 
L 103.124867 294.754323 
L 103.938537 294.564035 
L 104.752208 294.62759 
L 105.565878 294.88748 
L 106.379549 294.416594 
L 108.00689 294.742166 
L 108.82056 294.67199 
L 112.075243 294.741732 
L 112.888913 294.626391 
L 113.702584 294.843718 
L 114.516254 294.772655 
L 115.329925 294.885702 
L 116.143595 294.808299 
L 116.957266 294.921261 
L 118.584607 294.847429 
L 119.398278 294.905098 
L 120.211948 294.737883 
L 121.025619 295.011608 
L 122.65296 294.828884 
L 124.280301 294.669403 
L 125.093971 294.790117 
L 126.721312 294.820716 
L 127.534983 294.920862 
L 128.348653 294.728008 
L 129.162324 294.896896 
L 131.603336 294.831875 
L 132.417006 294.684612 
L 134.044347 294.881689 
L 135.671688 294.840502 
L 136.485359 294.67682 
L 137.299029 294.74272 
L 138.1127 294.926524 
L 138.92637 294.610901 
L 141.367382 294.786074 
L 145.435735 294.852365 
L 146.249405 294.944923 
L 151.945099 294.749938 
L 154.386111 294.991116 
L 155.199781 294.740063 
L 156.013452 294.944882 
L 156.827122 295.031269 
L 160.081805 294.783284 
L 160.895475 295.031634 
L 161.709146 294.991818 
L 162.522816 294.837282 
L 163.336487 295.047107 
L 164.150157 294.909771 
L 164.963828 294.968946 
L 165.777498 294.851513 
L 166.591169 294.94171 
L 169.845851 294.80833 
L 170.659522 295.014741 
L 171.473192 294.811182 
L 172.286863 294.949101 
L 174.727874 294.838359 
L 175.541545 294.94802 
L 177.168886 294.969015 
L 178.796227 294.901409 
L 179.609897 294.853598 
L 180.423568 295.015514 
L 181.237239 294.837019 
L 182.050909 294.986267 
L 182.86458 294.891213 
L 184.491921 295.112385 
L 185.305591 294.890849 
L 186.119262 294.911668 
L 186.932932 295.046602 
L 188.560273 294.94598 
L 189.373944 294.999007 
L 190.187614 294.864955 
L 193.442297 295.095031 
L 194.255967 294.968205 
L 195.883308 294.872681 
L 196.696979 295.082898 
L 197.510649 294.943437 
L 199.13799 295.074938 
L 199.951661 295.066349 
L 200.765332 294.901275 
L 202.392673 294.952216 
L 203.206343 295.064755 
L 206.461025 294.945541 
L 207.274696 295.040006 
L 208.088366 294.864072 
L 209.715707 295.092333 
L 210.529378 295.040342 
L 211.343049 294.819863 
L 212.156719 295.055618 
L 217.038742 294.804115 
L 217.852413 295.059527 
L 218.666083 295.034518 
L 219.479754 294.885295 
L 220.293424 295.048169 
L 221.107095 294.944591 
L 222.734436 295.247094 
L 223.548107 295.0002 
L 225.175448 295.099974 
L 225.989118 294.903474 
L 229.2438 295.169435 
L 230.057471 294.994797 
L 231.684812 294.938396 
L 232.498483 295.040451 
L 233.312153 294.983695 
L 234.125824 295.118942 
L 235.753165 295.049619 
L 236.566835 294.393955 
L 237.380506 294.666046 
L 240.635188 294.84961 
L 241.448859 294.906796 
L 242.262529 294.713913 
L 243.0762 294.829686 
L 243.88987 294.823223 
L 245.517211 295.123883 
L 247.958223 294.900825 
L 250.399234 295.183525 
L 252.026576 295.092427 
L 259.34961 295.115825 
L 260.163281 294.956335 
L 260.976951 295.084252 
L 261.790622 294.957752 
L 262.604293 294.952347 
L 263.417963 295.150255 
L 266.672645 295.036258 
L 267.486316 294.940386 
L 269.113657 295.265305 
L 269.927327 294.95141 
L 270.740998 295.084876 
L 273.18201 294.997512 
L 273.99568 295.270365 
L 275.623021 295.05352 
L 276.436692 295.265061 
L 277.250362 295.032936 
L 278.064033 295.190148 
L 278.877703 295.175236 
L 279.691374 294.990285 
L 280.505044 295.192745 
L 281.318715 295.091451 
L 282.132386 295.161394 
L 283.759727 295.020194 
L 286.200738 295.374053 
L 287.014409 295.106663 
L 287.828079 295.352421 
L 289.45542 295.186013 
L 292.710103 295.102349 
L 293.523773 295.204563 
L 295.151114 295.132041 
L 297.592126 295.296034 
L 298.405796 295.204716 
L 300.033137 295.334856 
L 300.846808 295.082907 
L 301.660478 295.225211 
L 302.474149 294.939319 
L 303.28782 295.151169 
L 304.915161 295.168159 
L 307.356172 295.299071 
L 308.169843 295.183979 
L 309.797184 295.248469 
L 310.610854 294.995062 
L 311.424525 295.32174 
L 313.051866 295.111819 
L 314.679207 295.38452 
L 316.306548 295.22269 
L 317.120219 295.18244 
L 317.933889 295.300348 
L 318.74756 295.099737 
L 319.56123 295.281444 
L 321.188571 295.089298 
L 322.002242 295.293902 
L 322.815913 295.201829 
L 325.256924 295.304162 
L 326.070595 295.096947 
L 328.511606 295.26518 
L 330.952618 295.275548 
L 331.766288 295.015034 
L 332.579959 295.239144 
L 333.39363 295.044254 
L 335.020971 295.262558 
L 335.834641 295.210948 
L 336.648312 295.015635 
L 338.275653 295.328289 
L 339.089323 295.291054 
L 339.902994 295.036586 
L 340.716664 295.37093 
L 341.530335 295.2595 
L 342.344005 295.302658 
L 343.157676 295.130701 
L 345.598688 295.459338 
L 346.412358 295.166922 
L 350.480711 295.215019 
L 351.294381 295.147845 
L 353.735393 295.238817 
L 355.362734 295.302697 
L 356.990075 295.312405 
L 358.617416 295.033618 
L 359.431087 295.370096 
L 361.058428 295.201883 
L 365.940451 295.275864 
L 366.754122 295.046229 
L 367.567792 295.269086 
L 368.381463 295.247352 
L 369.195133 295.488 
L 370.822474 295.280912 
L 372.449815 295.264794 
L 373.263486 295.437013 
L 374.077157 295.433157 
L 374.890827 295.259455 
L 375.704498 295.483713 
L 376.518168 295.404127 
L 377.331839 295.443169 
L 378.95918 295.132916 
L 379.77285 295.434079 
L 382.213862 295.169247 
L 383.027532 295.344863 
L 383.841203 295.10983 
L 384.654874 295.38438 
L 385.468544 295.22982 
L 387.095885 295.158298 
L 388.723226 295.092562 
L 390.350567 295.298457 
L 391.164238 295.059602 
L 391.977908 295.40502 
L 392.791579 295.360368 
L 393.605249 295.160922 
L 394.41892 295.36946 
L 395.232591 295.444672 
L 396.046261 295.234922 
L 396.859932 295.392439 
L 397.673602 295.434045 
L 398.487273 295.286113 
L 398.487273 295.286113 
" style="fill:none;stroke:#1f77b4;stroke-linecap:square;stroke-width:1.5;"/>
   </g>
   <g id="line2d_16">
    <path clip-path="url(#pe68627b066)" d="M 73.832727 293.202313 
L 74.646398 293.204575 
L 76.273739 292.566875 
L 77.087409 292.745198 
L 78.714751 286.124035 
L 79.528421 282.955681 
L 80.342092 280.971117 
L 81.969433 272.355763 
L 82.783103 271.406868 
L 83.596774 263.47147 
L 84.410444 277.996966 
L 85.224115 266.180596 
L 86.037785 260.362605 
L 86.851456 259.628058 
L 87.665126 248.90548 
L 88.478797 247.272449 
L 89.292468 248.525717 
L 90.106138 243.260118 
L 90.919809 243.555945 
L 91.733479 232.992439 
L 92.54715 260.118828 
L 93.36082 238.771662 
L 94.174491 228.711193 
L 94.988161 222.825399 
L 95.801832 223.416098 
L 96.615502 242.634583 
L 97.429173 227.521148 
L 98.242843 218.973242 
L 99.056514 232.52875 
L 100.683855 216.28208 
L 101.497526 217.912946 
L 102.311196 213.945848 
L 103.124867 223.934625 
L 103.938537 218.240266 
L 104.752208 200.972526 
L 105.565878 209.335306 
L 106.379549 221.441646 
L 107.193219 210.936727 
L 108.00689 215.365833 
L 108.82056 222.625768 
L 109.634231 268.926696 
L 110.447902 207.132517 
L 111.261572 197.030401 
L 112.075243 196.332347 
L 112.888913 204.234111 
L 113.702584 205.575372 
L 114.516254 207.777538 
L 115.329925 206.092004 
L 116.143595 206.505559 
L 117.770936 201.23096 
L 118.584607 207.436536 
L 119.398278 195.656696 
L 120.211948 197.324766 
L 121.025619 203.484596 
L 121.839289 200.608264 
L 122.65296 200.596742 
L 123.46663 204.655314 
L 124.280301 194.098358 
L 125.093971 205.82663 
L 125.907642 201.427712 
L 126.721312 194.827682 
L 127.534983 191.148108 
L 128.348653 200.134687 
L 129.162324 197.344774 
L 129.975995 198.279652 
L 130.789665 197.40091 
L 131.603336 201.190896 
L 132.417006 198.444904 
L 133.230677 203.441908 
L 134.044347 196.906769 
L 134.858018 195.058994 
L 135.671688 202.018392 
L 136.485359 203.237271 
L 137.299029 210.24043 
L 138.1127 194.644898 
L 138.92637 196.482688 
L 139.740041 191.473205 
L 140.553712 213.930196 
L 141.367382 193.827765 
L 142.181053 193.143543 
L 142.994723 195.397365 
L 143.808394 194.204137 
L 144.622064 200.120096 
L 145.435735 198.147016 
L 146.249405 189.677111 
L 147.063076 197.03376 
L 147.876746 198.745585 
L 148.690417 190.460608 
L 149.504087 195.419749 
L 150.317758 198.606942 
L 151.131429 195.030398 
L 151.945099 201.455136 
L 152.75877 191.20725 
L 153.57244 192.963345 
L 154.386111 195.136203 
L 155.199781 188.599276 
L 156.013452 187.289399 
L 156.827122 188.604644 
L 157.640793 185.090895 
L 158.454463 193.274949 
L 159.268134 175.967975 
L 160.081805 190.467766 
L 160.895475 191.264621 
L 161.709146 192.402514 
L 162.522816 191.835695 
L 164.150157 187.900493 
L 164.963828 199.680786 
L 165.777498 195.106657 
L 166.591169 193.56475 
L 167.404839 181.095756 
L 168.21851 189.722068 
L 169.03218 184.084149 
L 169.845851 195.424486 
L 170.659522 186.225451 
L 171.473192 190.558955 
L 172.286863 168.592811 
L 173.100533 186.323485 
L 173.914204 179.520467 
L 174.727874 183.224699 
L 175.541545 192.660386 
L 176.355215 192.808476 
L 177.982556 178.212282 
L 178.796227 177.141711 
L 179.609897 188.11892 
L 180.423568 169.985757 
L 181.237239 180.92989 
L 182.050909 184.602329 
L 182.86458 171.556479 
L 183.67825 189.229152 
L 184.491921 181.304554 
L 185.305591 192.914715 
L 186.119262 174.914778 
L 186.932932 189.523439 
L 187.746603 170.390234 
L 188.560273 203.520586 
L 189.373944 184.900037 
L 190.187614 188.867311 
L 191.001285 174.077038 
L 191.814956 167.284465 
L 192.628626 185.653826 
L 193.442297 173.317606 
L 194.255967 181.08003 
L 195.069638 186.350437 
L 195.883308 161.322497 
L 196.696979 174.705386 
L 197.510649 182.573524 
L 198.32432 175.528971 
L 199.13799 182.019448 
L 199.951661 185.823346 
L 200.765332 172.356574 
L 201.579002 178.209113 
L 202.392673 176.305957 
L 203.206343 204.88098 
L 204.020014 168.776465 
L 204.833684 171.437086 
L 205.647355 177.096463 
L 206.461025 172.608765 
L 207.274696 172.147331 
L 208.088366 182.752871 
L 208.902037 163.685958 
L 209.715707 160.009889 
L 210.529378 172.016054 
L 211.343049 175.907413 
L 212.156719 169.091731 
L 212.97039 170.022698 
L 213.78406 178.169729 
L 214.597731 168.933463 
L 215.411401 167.368178 
L 216.225072 159.287578 
L 217.038742 184.482452 
L 217.852413 179.968139 
L 218.666083 168.919966 
L 219.479754 162.181596 
L 220.293424 179.234644 
L 221.107095 166.076359 
L 221.920766 164.788906 
L 222.734436 176.909312 
L 223.548107 170.755725 
L 224.361777 165.836707 
L 225.175448 170.430327 
L 225.989118 157.296449 
L 226.802789 159.394854 
L 227.616459 162.619976 
L 228.43013 191.781607 
L 229.2438 147.652584 
L 230.057471 167.479383 
L 230.871141 154.363345 
L 231.684812 163.691581 
L 232.498483 165.512188 
L 233.312153 173.400295 
L 234.125824 154.311311 
L 234.939494 184.074031 
L 235.753165 160.028817 
L 236.566835 261.500027 
L 237.380506 243.95241 
L 238.194176 235.810078 
L 239.007847 236.146215 
L 239.821517 222.219489 
L 240.635188 212.270633 
L 241.448859 212.91482 
L 242.262529 213.400346 
L 243.0762 200.721145 
L 243.88987 208.013385 
L 244.703541 191.389917 
L 245.517211 190.415948 
L 246.330882 189.631957 
L 247.144552 179.592191 
L 247.958223 196.193565 
L 248.771893 185.889038 
L 249.585564 185.288082 
L 251.212905 155.539987 
L 252.026576 167.49586 
L 252.840246 190.205927 
L 253.653917 167.94853 
L 254.467587 163.24363 
L 255.281258 171.894932 
L 256.094928 166.242834 
L 256.908599 169.52398 
L 257.722269 168.380473 
L 258.53594 176.249067 
L 259.34961 164.244628 
L 260.163281 166.272508 
L 260.976951 177.986603 
L 261.790622 174.529583 
L 262.604293 156.729499 
L 263.417963 196.373827 
L 264.231634 167.422967 
L 265.045304 158.378513 
L 265.858975 157.872102 
L 266.672645 159.133474 
L 267.486316 150.421678 
L 268.299986 162.04869 
L 269.113657 159.826503 
L 269.927327 171.946978 
L 271.554668 157.225474 
L 272.368339 160.262905 
L 273.18201 160.531918 
L 273.99568 152.898934 
L 274.809351 154.428898 
L 275.623021 144.177943 
L 276.436692 179.740237 
L 277.250362 141.502636 
L 278.877703 164.534958 
L 279.691374 141.474974 
L 280.505044 144.051807 
L 281.318715 149.528256 
L 282.132386 139.657675 
L 282.946056 137.041385 
L 283.759727 148.45315 
L 284.573397 141.943248 
L 285.387068 144.800088 
L 286.200738 152.54415 
L 287.014409 130.472187 
L 287.828079 161.234861 
L 288.64175 140.924832 
L 289.45542 131.219204 
L 290.269091 146.568907 
L 291.082761 130.103358 
L 291.896432 134.54184 
L 292.710103 182.075581 
L 293.523773 166.997824 
L 294.337444 162.083835 
L 295.964785 141.003673 
L 296.778455 185.5656 
L 297.592126 145.811355 
L 299.219467 117.290421 
L 300.033137 127.48665 
L 300.846808 144.554293 
L 301.660478 120.090558 
L 302.474149 194.711568 
L 303.28782 147.426992 
L 304.10149 132.766149 
L 304.915161 122.079933 
L 305.728831 122.516148 
L 306.542502 106.564784 
L 307.356172 135.045833 
L 308.169843 145.105478 
L 308.983513 127.135327 
L 309.797184 144.149474 
L 310.610854 140.637117 
L 311.424525 105.788245 
L 312.238195 91.038506 
L 313.051866 176.85964 
L 313.865537 130.887331 
L 314.679207 123.456186 
L 315.492878 111.840928 
L 316.306548 90.195861 
L 317.120219 88.782759 
L 317.933889 122.139565 
L 318.74756 115.75684 
L 319.56123 141.09843 
L 320.374901 108.705378 
L 321.188571 129.153385 
L 322.002242 106.47928 
L 322.815913 115.133722 
L 323.629583 116.380115 
L 324.443254 101.055935 
L 325.256924 99.528292 
L 326.070595 164.898595 
L 326.884265 114.375388 
L 327.697936 115.979512 
L 328.511606 94.956569 
L 329.325277 112.015527 
L 330.138947 97.887336 
L 331.766288 147.64225 
L 332.579959 95.000916 
L 333.39363 107.548989 
L 334.2073 77.495312 
L 335.020971 106.263298 
L 335.834641 87.77486 
L 336.648312 120.18668 
L 337.461982 80.887017 
L 338.275653 93.262803 
L 339.089323 91.497253 
L 339.902994 145.907415 
L 340.716664 98.390436 
L 341.530335 89.970867 
L 342.344005 96.544914 
L 343.157676 71.785607 
L 343.971347 84.317662 
L 344.785017 101.694905 
L 345.598688 79.956228 
L 346.412358 91.915833 
L 347.226029 96.709072 
L 348.039699 83.962434 
L 348.85337 102.567154 
L 349.66704 94.696231 
L 350.480711 129.449857 
L 351.294381 81.665632 
L 352.108052 73.391132 
L 352.921722 87.649751 
L 353.735393 75.631206 
L 354.549064 81.165194 
L 355.362734 77.462233 
L 356.176405 105.958388 
L 356.990075 81.653411 
L 357.803746 89.239102 
L 358.617416 89.894267 
L 359.431087 81.063736 
L 360.244757 73.446236 
L 361.058428 73.165491 
L 361.872098 82.074334 
L 362.685769 75.927963 
L 363.49944 113.7186 
L 364.31311 69.50816 
L 365.126781 80.610824 
L 365.940451 85.042174 
L 366.754122 163.623519 
L 367.567792 93.198091 
L 368.381463 78.711172 
L 369.195133 81.086484 
L 370.008804 87.362647 
L 370.822474 69.728071 
L 371.636145 88.328878 
L 372.449815 66.515363 
L 373.263486 68.49384 
L 374.077157 73.518396 
L 374.890827 53.568 
L 375.704498 64.721821 
L 376.518168 69.67912 
L 377.331839 71.241261 
L 378.145509 67.246954 
L 378.95918 112.21558 
L 380.586521 69.659824 
L 381.400191 91.285908 
L 382.213862 73.820937 
L 383.027532 88.956361 
L 383.841203 75.952622 
L 384.654874 81.544166 
L 385.468544 71.443355 
L 386.282215 74.590245 
L 387.095885 115.8519 
L 387.909556 100.265489 
L 388.723226 181.93627 
L 389.536897 120.088685 
L 390.350567 111.620017 
L 391.164238 86.320601 
L 391.977908 158.277914 
L 392.791579 101.651521 
L 394.41892 61.928863 
L 396.046261 107.924813 
L 396.859932 75.478426 
L 397.673602 100.850824 
L 398.487273 110.292905 
L 398.487273 110.292905 
" style="fill:none;stroke:#ff7f0e;stroke-linecap:square;stroke-width:1.5;"/>
   </g>
   <g id="patch_3">
    <path d="M 57.6 307.584 
L 57.6 41.472 
" style="fill:none;stroke:#000000;stroke-linecap:square;stroke-linejoin:miter;stroke-width:0.8;"/>
   </g>
   <g id="patch_4">
    <path d="M 414.72 307.584 
L 414.72 41.472 
" style="fill:none;stroke:#000000;stroke-linecap:square;stroke-linejoin:miter;stroke-width:0.8;"/>
   </g>
   <g id="patch_5">
    <path d="M 57.6 307.584 
L 414.72 307.584 
" style="fill:none;stroke:#000000;stroke-linecap:square;stroke-linejoin:miter;stroke-width:0.8;"/>
   </g>
   <g id="patch_6">
    <path d="M 57.6 41.472 
L 414.72 41.472 
" style="fill:none;stroke:#000000;stroke-linecap:square;stroke-linejoin:miter;stroke-width:0.8;"/>
   </g>
   <g id="legend_1">
    <g id="patch_7">
     <path d="M 64.6 78.82825 
L 168.475 78.82825 
Q 170.475 78.82825 170.475 76.82825 
L 170.475 48.472 
Q 170.475 46.472 168.475 46.472 
L 64.6 46.472 
Q 62.6 46.472 62.6 48.472 
L 62.6 76.82825 
Q 62.6 78.82825 64.6 78.82825 
z
" style="fill:#ffffff;opacity:0.8;stroke:#cccccc;stroke-linejoin:miter;"/>
    </g>
    <g id="line2d_17">
     <path d="M 66.6 54.570437 
L 86.6 54.570437 
" style="fill:none;stroke:#1f77b4;stroke-linecap:square;stroke-width:1.5;"/>
    </g>
    <g id="line2d_18"/>
    <g id="text_17">
     <!-- Train loss -->
     <g transform="translate(94.6 58.070437)scale(0.1 -0.1)">
      <defs>
       <path d="M -19 4666 
L 3928 4666 
L 3928 4134 
L 2272 4134 
L 2272 0 
L 1638 0 
L 1638 4134 
L -19 4134 
L -19 4666 
z
" id="DejaVuSans-54" transform="scale(0.015625)"/>
       <path d="M 2631 2963 
Q 2534 3019 2420 3045 
Q 2306 3072 2169 3072 
Q 1681 3072 1420 2755 
Q 1159 2438 1159 1844 
L 1159 0 
L 581 0 
L 581 3500 
L 1159 3500 
L 1159 2956 
Q 1341 3275 1631 3429 
Q 1922 3584 2338 3584 
Q 2397 3584 2469 3576 
Q 2541 3569 2628 3553 
L 2631 2963 
z
" id="DejaVuSans-72" transform="scale(0.015625)"/>
       <path d="M 2194 1759 
Q 1497 1759 1228 1600 
Q 959 1441 959 1056 
Q 959 750 1161 570 
Q 1363 391 1709 391 
Q 2188 391 2477 730 
Q 2766 1069 2766 1631 
L 2766 1759 
L 2194 1759 
z
M 3341 1997 
L 3341 0 
L 2766 0 
L 2766 531 
Q 2569 213 2275 61 
Q 1981 -91 1556 -91 
Q 1019 -91 701 211 
Q 384 513 384 1019 
Q 384 1609 779 1909 
Q 1175 2209 1959 2209 
L 2766 2209 
L 2766 2266 
Q 2766 2663 2505 2880 
Q 2244 3097 1772 3097 
Q 1472 3097 1187 3025 
Q 903 2953 641 2809 
L 641 3341 
Q 956 3463 1253 3523 
Q 1550 3584 1831 3584 
Q 2591 3584 2966 3190 
Q 3341 2797 3341 1997 
z
" id="DejaVuSans-61" transform="scale(0.015625)"/>
       <path d="M 603 3500 
L 1178 3500 
L 1178 0 
L 603 0 
L 603 3500 
z
M 603 4863 
L 1178 4863 
L 1178 4134 
L 603 4134 
L 603 4863 
z
" id="DejaVuSans-69" transform="scale(0.015625)"/>
       <path d="M 3513 2113 
L 3513 0 
L 2938 0 
L 2938 2094 
Q 2938 2591 2744 2837 
Q 2550 3084 2163 3084 
Q 1697 3084 1428 2787 
Q 1159 2491 1159 1978 
L 1159 0 
L 581 0 
L 581 3500 
L 1159 3500 
L 1159 2956 
Q 1366 3272 1645 3428 
Q 1925 3584 2291 3584 
Q 2894 3584 3203 3211 
Q 3513 2838 3513 2113 
z
" id="DejaVuSans-6e" transform="scale(0.015625)"/>
       <path id="DejaVuSans-20" transform="scale(0.015625)"/>
       <path d="M 603 4863 
L 1178 4863 
L 1178 0 
L 603 0 
L 603 4863 
z
" id="DejaVuSans-6c" transform="scale(0.015625)"/>
      </defs>
      <use xlink:href="#DejaVuSans-54"/>
      <use x="46.333984" xlink:href="#DejaVuSans-72"/>
      <use x="87.447266" xlink:href="#DejaVuSans-61"/>
      <use x="148.726562" xlink:href="#DejaVuSans-69"/>
      <use x="176.509766" xlink:href="#DejaVuSans-6e"/>
      <use x="239.888672" xlink:href="#DejaVuSans-20"/>
      <use x="271.675781" xlink:href="#DejaVuSans-6c"/>
      <use x="299.458984" xlink:href="#DejaVuSans-6f"/>
      <use x="360.640625" xlink:href="#DejaVuSans-73"/>
      <use x="412.740234" xlink:href="#DejaVuSans-73"/>
     </g>
    </g>
    <g id="line2d_19">
     <path d="M 66.6 69.248562 
L 86.6 69.248562 
" style="fill:none;stroke:#ff7f0e;stroke-linecap:square;stroke-width:1.5;"/>
    </g>
    <g id="line2d_20"/>
    <g id="text_18">
     <!-- Validation loss -->
     <g transform="translate(94.6 72.748562)scale(0.1 -0.1)">
      <defs>
       <path d="M 1831 0 
L 50 4666 
L 709 4666 
L 2188 738 
L 3669 4666 
L 4325 4666 
L 2547 0 
L 1831 0 
z
" id="DejaVuSans-56" transform="scale(0.015625)"/>
       <path d="M 2906 2969 
L 2906 4863 
L 3481 4863 
L 3481 0 
L 2906 0 
L 2906 525 
Q 2725 213 2448 61 
Q 2172 -91 1784 -91 
Q 1150 -91 751 415 
Q 353 922 353 1747 
Q 353 2572 751 3078 
Q 1150 3584 1784 3584 
Q 2172 3584 2448 3432 
Q 2725 3281 2906 2969 
z
M 947 1747 
Q 947 1113 1208 752 
Q 1469 391 1925 391 
Q 2381 391 2643 752 
Q 2906 1113 2906 1747 
Q 2906 2381 2643 2742 
Q 2381 3103 1925 3103 
Q 1469 3103 1208 2742 
Q 947 2381 947 1747 
z
" id="DejaVuSans-64" transform="scale(0.015625)"/>
       <path d="M 1172 4494 
L 1172 3500 
L 2356 3500 
L 2356 3053 
L 1172 3053 
L 1172 1153 
Q 1172 725 1289 603 
Q 1406 481 1766 481 
L 2356 481 
L 2356 0 
L 1766 0 
Q 1100 0 847 248 
Q 594 497 594 1153 
L 594 3053 
L 172 3053 
L 172 3500 
L 594 3500 
L 594 4494 
L 1172 4494 
z
" id="DejaVuSans-74" transform="scale(0.015625)"/>
      </defs>
      <use xlink:href="#DejaVuSans-56"/>
      <use x="60.658203" xlink:href="#DejaVuSans-61"/>
      <use x="121.9375" xlink:href="#DejaVuSans-6c"/>
      <use x="149.720703" xlink:href="#DejaVuSans-69"/>
      <use x="177.503906" xlink:href="#DejaVuSans-64"/>
      <use x="240.980469" xlink:href="#DejaVuSans-61"/>
      <use x="302.259766" xlink:href="#DejaVuSans-74"/>
      <use x="341.46875" xlink:href="#DejaVuSans-69"/>
      <use x="369.251953" xlink:href="#DejaVuSans-6f"/>
      <use x="430.433594" xlink:href="#DejaVuSans-6e"/>
      <use x="493.8125" xlink:href="#DejaVuSans-20"/>
      <use x="525.599609" xlink:href="#DejaVuSans-6c"/>
      <use x="553.382812" xlink:href="#DejaVuSans-6f"/>
      <use x="614.564453" xlink:href="#DejaVuSans-73"/>
      <use x="666.664062" xlink:href="#DejaVuSans-73"/>
     </g>
    </g>
   </g>
  </g>
 </g>
 <defs>
  <clipPath id="pe68627b066">
   <rect height="266.112" width="357.12" x="57.6" y="41.472"/>
  </clipPath>
 </defs>
</svg>
