<?xml version="1.0" encoding="utf-8" standalone="no"?>
<!DOCTYPE svg PUBLIC "-//W3C//DTD SVG 1.1//EN"
  "http://www.w3.org/Graphics/SVG/1.1/DTD/svg11.dtd">
<svg height="345.6pt" version="1.1" viewBox="0 0 460.8 345.6" width="460.8pt" xmlns="http://www.w3.org/2000/svg" xmlns:xlink="http://www.w3.org/1999/xlink">
 <metadata>
  <rdf:RDF xmlns:cc="http://creativecommons.org/ns#" xmlns:dc="http://purl.org/dc/elements/1.1/" xmlns:rdf="http://www.w3.org/1999/02/22-rdf-syntax-ns#">
   <cc:Work>
    <dc:type rdf:resource="http://purl.org/dc/dcmitype/StillImage"/>
    <dc:date>2021-07-15T21:39:58.118797</dc:date>
    <dc:format>image/svg+xml</dc:format>
    <dc:creator>
     <cc:Agent>
      <dc:title>Matplotlib v3.4.2, https://matplotlib.org/</dc:title>
     </cc:Agent>
    </dc:creator>
   </cc:Work>
  </rdf:RDF>
 </metadata>
 <defs>
  <style type="text/css">*{stroke-linecap:butt;stroke-linejoin:round;}</style>
 </defs>
 <g id="figure_1">
  <g id="patch_1">
   <path d="M 0 345.6 
L 460.8 345.6 
L 460.8 0 
L 0 0 
z
" style="fill:#ffffff;"/>
  </g>
  <g id="axes_1">
   <g id="patch_2">
    <path d="M 57.6 307.584 
L 414.72 307.584 
L 414.72 41.472 
L 57.6 41.472 
z
" style="fill:#ffffff;"/>
   </g>
   <g id="matplotlib.axis_1">
    <g id="xtick_1">
     <g id="line2d_1">
      <defs>
       <path d="M 0 0 
L 0 3.5 
" id="m8bfa50caee" style="stroke:#000000;stroke-width:0.8;"/>
      </defs>
      <g>
       <use style="stroke:#000000;stroke-width:0.8;" x="73.019057" xlink:href="#m8bfa50caee" y="307.584"/>
      </g>
     </g>
     <g id="text_1">
      <!-- 0 -->
      <g transform="translate(69.837807 322.182437)scale(0.1 -0.1)">
       <defs>
        <path d="M 2034 4250 
Q 1547 4250 1301 3770 
Q 1056 3291 1056 2328 
Q 1056 1369 1301 889 
Q 1547 409 2034 409 
Q 2525 409 2770 889 
Q 3016 1369 3016 2328 
Q 3016 3291 2770 3770 
Q 2525 4250 2034 4250 
z
M 2034 4750 
Q 2819 4750 3233 4129 
Q 3647 3509 3647 2328 
Q 3647 1150 3233 529 
Q 2819 -91 2034 -91 
Q 1250 -91 836 529 
Q 422 1150 422 2328 
Q 422 3509 836 4129 
Q 1250 4750 2034 4750 
z
" id="DejaVuSans-30" transform="scale(0.015625)"/>
       </defs>
       <use xlink:href="#DejaVuSans-30"/>
      </g>
     </g>
    </g>
    <g id="xtick_2">
     <g id="line2d_2">
      <g>
       <use style="stroke:#000000;stroke-width:0.8;" x="113.702584" xlink:href="#m8bfa50caee" y="307.584"/>
      </g>
     </g>
     <g id="text_2">
      <!-- 50 -->
      <g transform="translate(107.340084 322.182437)scale(0.1 -0.1)">
       <defs>
        <path d="M 691 4666 
L 3169 4666 
L 3169 4134 
L 1269 4134 
L 1269 2991 
Q 1406 3038 1543 3061 
Q 1681 3084 1819 3084 
Q 2600 3084 3056 2656 
Q 3513 2228 3513 1497 
Q 3513 744 3044 326 
Q 2575 -91 1722 -91 
Q 1428 -91 1123 -41 
Q 819 9 494 109 
L 494 744 
Q 775 591 1075 516 
Q 1375 441 1709 441 
Q 2250 441 2565 725 
Q 2881 1009 2881 1497 
Q 2881 1984 2565 2268 
Q 2250 2553 1709 2553 
Q 1456 2553 1204 2497 
Q 953 2441 691 2322 
L 691 4666 
z
" id="DejaVuSans-35" transform="scale(0.015625)"/>
       </defs>
       <use xlink:href="#DejaVuSans-35"/>
       <use x="63.623047" xlink:href="#DejaVuSans-30"/>
      </g>
     </g>
    </g>
    <g id="xtick_3">
     <g id="line2d_3">
      <g>
       <use style="stroke:#000000;stroke-width:0.8;" x="154.386111" xlink:href="#m8bfa50caee" y="307.584"/>
      </g>
     </g>
     <g id="text_3">
      <!-- 100 -->
      <g transform="translate(144.842361 322.182437)scale(0.1 -0.1)">
       <defs>
        <path d="M 794 531 
L 1825 531 
L 1825 4091 
L 703 3866 
L 703 4441 
L 1819 4666 
L 2450 4666 
L 2450 531 
L 3481 531 
L 3481 0 
L 794 0 
L 794 531 
z
" id="DejaVuSans-31" transform="scale(0.015625)"/>
       </defs>
       <use xlink:href="#DejaVuSans-31"/>
       <use x="63.623047" xlink:href="#DejaVuSans-30"/>
       <use x="127.246094" xlink:href="#DejaVuSans-30"/>
      </g>
     </g>
    </g>
    <g id="xtick_4">
     <g id="line2d_4">
      <g>
       <use style="stroke:#000000;stroke-width:0.8;" x="195.069638" xlink:href="#m8bfa50caee" y="307.584"/>
      </g>
     </g>
     <g id="text_4">
      <!-- 150 -->
      <g transform="translate(185.525888 322.182437)scale(0.1 -0.1)">
       <use xlink:href="#DejaVuSans-31"/>
       <use x="63.623047" xlink:href="#DejaVuSans-35"/>
       <use x="127.246094" xlink:href="#DejaVuSans-30"/>
      </g>
     </g>
    </g>
    <g id="xtick_5">
     <g id="line2d_5">
      <g>
       <use style="stroke:#000000;stroke-width:0.8;" x="235.753165" xlink:href="#m8bfa50caee" y="307.584"/>
      </g>
     </g>
     <g id="text_5">
      <!-- 200 -->
      <g transform="translate(226.209415 322.182437)scale(0.1 -0.1)">
       <defs>
        <path d="M 1228 531 
L 3431 531 
L 3431 0 
L 469 0 
L 469 531 
Q 828 903 1448 1529 
Q 2069 2156 2228 2338 
Q 2531 2678 2651 2914 
Q 2772 3150 2772 3378 
Q 2772 3750 2511 3984 
Q 2250 4219 1831 4219 
Q 1534 4219 1204 4116 
Q 875 4013 500 3803 
L 500 4441 
Q 881 4594 1212 4672 
Q 1544 4750 1819 4750 
Q 2544 4750 2975 4387 
Q 3406 4025 3406 3419 
Q 3406 3131 3298 2873 
Q 3191 2616 2906 2266 
Q 2828 2175 2409 1742 
Q 1991 1309 1228 531 
z
" id="DejaVuSans-32" transform="scale(0.015625)"/>
       </defs>
       <use xlink:href="#DejaVuSans-32"/>
       <use x="63.623047" xlink:href="#DejaVuSans-30"/>
       <use x="127.246094" xlink:href="#DejaVuSans-30"/>
      </g>
     </g>
    </g>
    <g id="xtick_6">
     <g id="line2d_6">
      <g>
       <use style="stroke:#000000;stroke-width:0.8;" x="276.436692" xlink:href="#m8bfa50caee" y="307.584"/>
      </g>
     </g>
     <g id="text_6">
      <!-- 250 -->
      <g transform="translate(266.892942 322.182437)scale(0.1 -0.1)">
       <use xlink:href="#DejaVuSans-32"/>
       <use x="63.623047" xlink:href="#DejaVuSans-35"/>
       <use x="127.246094" xlink:href="#DejaVuSans-30"/>
      </g>
     </g>
    </g>
    <g id="xtick_7">
     <g id="line2d_7">
      <g>
       <use style="stroke:#000000;stroke-width:0.8;" x="317.120219" xlink:href="#m8bfa50caee" y="307.584"/>
      </g>
     </g>
     <g id="text_7">
      <!-- 300 -->
      <g transform="translate(307.576469 322.182437)scale(0.1 -0.1)">
       <defs>
        <path d="M 2597 2516 
Q 3050 2419 3304 2112 
Q 3559 1806 3559 1356 
Q 3559 666 3084 287 
Q 2609 -91 1734 -91 
Q 1441 -91 1130 -33 
Q 819 25 488 141 
L 488 750 
Q 750 597 1062 519 
Q 1375 441 1716 441 
Q 2309 441 2620 675 
Q 2931 909 2931 1356 
Q 2931 1769 2642 2001 
Q 2353 2234 1838 2234 
L 1294 2234 
L 1294 2753 
L 1863 2753 
Q 2328 2753 2575 2939 
Q 2822 3125 2822 3475 
Q 2822 3834 2567 4026 
Q 2313 4219 1838 4219 
Q 1578 4219 1281 4162 
Q 984 4106 628 3988 
L 628 4550 
Q 988 4650 1302 4700 
Q 1616 4750 1894 4750 
Q 2613 4750 3031 4423 
Q 3450 4097 3450 3541 
Q 3450 3153 3228 2886 
Q 3006 2619 2597 2516 
z
" id="DejaVuSans-33" transform="scale(0.015625)"/>
       </defs>
       <use xlink:href="#DejaVuSans-33"/>
       <use x="63.623047" xlink:href="#DejaVuSans-30"/>
       <use x="127.246094" xlink:href="#DejaVuSans-30"/>
      </g>
     </g>
    </g>
    <g id="xtick_8">
     <g id="line2d_8">
      <g>
       <use style="stroke:#000000;stroke-width:0.8;" x="357.803746" xlink:href="#m8bfa50caee" y="307.584"/>
      </g>
     </g>
     <g id="text_8">
      <!-- 350 -->
      <g transform="translate(348.259996 322.182437)scale(0.1 -0.1)">
       <use xlink:href="#DejaVuSans-33"/>
       <use x="63.623047" xlink:href="#DejaVuSans-35"/>
       <use x="127.246094" xlink:href="#DejaVuSans-30"/>
      </g>
     </g>
    </g>
    <g id="xtick_9">
     <g id="line2d_9">
      <g>
       <use style="stroke:#000000;stroke-width:0.8;" x="398.487273" xlink:href="#m8bfa50caee" y="307.584"/>
      </g>
     </g>
     <g id="text_9">
      <!-- 400 -->
      <g transform="translate(388.943523 322.182437)scale(0.1 -0.1)">
       <defs>
        <path d="M 2419 4116 
L 825 1625 
L 2419 1625 
L 2419 4116 
z
M 2253 4666 
L 3047 4666 
L 3047 1625 
L 3713 1625 
L 3713 1100 
L 3047 1100 
L 3047 0 
L 2419 0 
L 2419 1100 
L 313 1100 
L 313 1709 
L 2253 4666 
z
" id="DejaVuSans-34" transform="scale(0.015625)"/>
       </defs>
       <use xlink:href="#DejaVuSans-34"/>
       <use x="63.623047" xlink:href="#DejaVuSans-30"/>
       <use x="127.246094" xlink:href="#DejaVuSans-30"/>
      </g>
     </g>
    </g>
    <g id="text_10">
     <!-- Epoch -->
     <g transform="translate(213.193594 339.659781)scale(0.15 -0.15)">
      <defs>
       <path d="M 628 4666 
L 3578 4666 
L 3578 4134 
L 1259 4134 
L 1259 2753 
L 3481 2753 
L 3481 2222 
L 1259 2222 
L 1259 531 
L 3634 531 
L 3634 0 
L 628 0 
L 628 4666 
z
" id="DejaVuSans-45" transform="scale(0.015625)"/>
       <path d="M 1159 525 
L 1159 -1331 
L 581 -1331 
L 581 3500 
L 1159 3500 
L 1159 2969 
Q 1341 3281 1617 3432 
Q 1894 3584 2278 3584 
Q 2916 3584 3314 3078 
Q 3713 2572 3713 1747 
Q 3713 922 3314 415 
Q 2916 -91 2278 -91 
Q 1894 -91 1617 61 
Q 1341 213 1159 525 
z
M 3116 1747 
Q 3116 2381 2855 2742 
Q 2594 3103 2138 3103 
Q 1681 3103 1420 2742 
Q 1159 2381 1159 1747 
Q 1159 1113 1420 752 
Q 1681 391 2138 391 
Q 2594 391 2855 752 
Q 3116 1113 3116 1747 
z
" id="DejaVuSans-70" transform="scale(0.015625)"/>
       <path d="M 1959 3097 
Q 1497 3097 1228 2736 
Q 959 2375 959 1747 
Q 959 1119 1226 758 
Q 1494 397 1959 397 
Q 2419 397 2687 759 
Q 2956 1122 2956 1747 
Q 2956 2369 2687 2733 
Q 2419 3097 1959 3097 
z
M 1959 3584 
Q 2709 3584 3137 3096 
Q 3566 2609 3566 1747 
Q 3566 888 3137 398 
Q 2709 -91 1959 -91 
Q 1206 -91 779 398 
Q 353 888 353 1747 
Q 353 2609 779 3096 
Q 1206 3584 1959 3584 
z
" id="DejaVuSans-6f" transform="scale(0.015625)"/>
       <path d="M 3122 3366 
L 3122 2828 
Q 2878 2963 2633 3030 
Q 2388 3097 2138 3097 
Q 1578 3097 1268 2742 
Q 959 2388 959 1747 
Q 959 1106 1268 751 
Q 1578 397 2138 397 
Q 2388 397 2633 464 
Q 2878 531 3122 666 
L 3122 134 
Q 2881 22 2623 -34 
Q 2366 -91 2075 -91 
Q 1284 -91 818 406 
Q 353 903 353 1747 
Q 353 2603 823 3093 
Q 1294 3584 2113 3584 
Q 2378 3584 2631 3529 
Q 2884 3475 3122 3366 
z
" id="DejaVuSans-63" transform="scale(0.015625)"/>
       <path d="M 3513 2113 
L 3513 0 
L 2938 0 
L 2938 2094 
Q 2938 2591 2744 2837 
Q 2550 3084 2163 3084 
Q 1697 3084 1428 2787 
Q 1159 2491 1159 1978 
L 1159 0 
L 581 0 
L 581 4863 
L 1159 4863 
L 1159 2956 
Q 1366 3272 1645 3428 
Q 1925 3584 2291 3584 
Q 2894 3584 3203 3211 
Q 3513 2838 3513 2113 
z
" id="DejaVuSans-68" transform="scale(0.015625)"/>
      </defs>
      <use xlink:href="#DejaVuSans-45"/>
      <use x="63.183594" xlink:href="#DejaVuSans-70"/>
      <use x="126.660156" xlink:href="#DejaVuSans-6f"/>
      <use x="187.841797" xlink:href="#DejaVuSans-63"/>
      <use x="242.822266" xlink:href="#DejaVuSans-68"/>
     </g>
    </g>
   </g>
   <g id="matplotlib.axis_2">
    <g id="ytick_1">
     <g id="line2d_10">
      <defs>
       <path d="M 0 0 
L -3.5 0 
" id="mb848a61fe9" style="stroke:#000000;stroke-width:0.8;"/>
      </defs>
      <g>
       <use style="stroke:#000000;stroke-width:0.8;" x="57.6" xlink:href="#mb848a61fe9" y="292.312957"/>
      </g>
     </g>
     <g id="text_11">
      <!-- 0 -->
      <g transform="translate(44.2375 296.112176)scale(0.1 -0.1)">
       <use xlink:href="#DejaVuSans-30"/>
      </g>
     </g>
    </g>
    <g id="ytick_2">
     <g id="line2d_11">
      <g>
       <use style="stroke:#000000;stroke-width:0.8;" x="57.6" xlink:href="#mb848a61fe9" y="237.75593"/>
      </g>
     </g>
     <g id="text_12">
      <!-- 20000 -->
      <g transform="translate(18.7875 241.555149)scale(0.1 -0.1)">
       <use xlink:href="#DejaVuSans-32"/>
       <use x="63.623047" xlink:href="#DejaVuSans-30"/>
       <use x="127.246094" xlink:href="#DejaVuSans-30"/>
       <use x="190.869141" xlink:href="#DejaVuSans-30"/>
       <use x="254.492188" xlink:href="#DejaVuSans-30"/>
      </g>
     </g>
    </g>
    <g id="ytick_3">
     <g id="line2d_12">
      <g>
       <use style="stroke:#000000;stroke-width:0.8;" x="57.6" xlink:href="#mb848a61fe9" y="183.198903"/>
      </g>
     </g>
     <g id="text_13">
      <!-- 40000 -->
      <g transform="translate(18.7875 186.998122)scale(0.1 -0.1)">
       <use xlink:href="#DejaVuSans-34"/>
       <use x="63.623047" xlink:href="#DejaVuSans-30"/>
       <use x="127.246094" xlink:href="#DejaVuSans-30"/>
       <use x="190.869141" xlink:href="#DejaVuSans-30"/>
       <use x="254.492188" xlink:href="#DejaVuSans-30"/>
      </g>
     </g>
    </g>
    <g id="ytick_4">
     <g id="line2d_13">
      <g>
       <use style="stroke:#000000;stroke-width:0.8;" x="57.6" xlink:href="#mb848a61fe9" y="128.641876"/>
      </g>
     </g>
     <g id="text_14">
      <!-- 60000 -->
      <g transform="translate(18.7875 132.441095)scale(0.1 -0.1)">
       <defs>
        <path d="M 2113 2584 
Q 1688 2584 1439 2293 
Q 1191 2003 1191 1497 
Q 1191 994 1439 701 
Q 1688 409 2113 409 
Q 2538 409 2786 701 
Q 3034 994 3034 1497 
Q 3034 2003 2786 2293 
Q 2538 2584 2113 2584 
z
M 3366 4563 
L 3366 3988 
Q 3128 4100 2886 4159 
Q 2644 4219 2406 4219 
Q 1781 4219 1451 3797 
Q 1122 3375 1075 2522 
Q 1259 2794 1537 2939 
Q 1816 3084 2150 3084 
Q 2853 3084 3261 2657 
Q 3669 2231 3669 1497 
Q 3669 778 3244 343 
Q 2819 -91 2113 -91 
Q 1303 -91 875 529 
Q 447 1150 447 2328 
Q 447 3434 972 4092 
Q 1497 4750 2381 4750 
Q 2619 4750 2861 4703 
Q 3103 4656 3366 4563 
z
" id="DejaVuSans-36" transform="scale(0.015625)"/>
       </defs>
       <use xlink:href="#DejaVuSans-36"/>
       <use x="63.623047" xlink:href="#DejaVuSans-30"/>
       <use x="127.246094" xlink:href="#DejaVuSans-30"/>
       <use x="190.869141" xlink:href="#DejaVuSans-30"/>
       <use x="254.492188" xlink:href="#DejaVuSans-30"/>
      </g>
     </g>
    </g>
    <g id="ytick_5">
     <g id="line2d_14">
      <g>
       <use style="stroke:#000000;stroke-width:0.8;" x="57.6" xlink:href="#mb848a61fe9" y="74.084849"/>
      </g>
     </g>
     <g id="text_15">
      <!-- 80000 -->
      <g transform="translate(18.7875 77.884068)scale(0.1 -0.1)">
       <defs>
        <path d="M 2034 2216 
Q 1584 2216 1326 1975 
Q 1069 1734 1069 1313 
Q 1069 891 1326 650 
Q 1584 409 2034 409 
Q 2484 409 2743 651 
Q 3003 894 3003 1313 
Q 3003 1734 2745 1975 
Q 2488 2216 2034 2216 
z
M 1403 2484 
Q 997 2584 770 2862 
Q 544 3141 544 3541 
Q 544 4100 942 4425 
Q 1341 4750 2034 4750 
Q 2731 4750 3128 4425 
Q 3525 4100 3525 3541 
Q 3525 3141 3298 2862 
Q 3072 2584 2669 2484 
Q 3125 2378 3379 2068 
Q 3634 1759 3634 1313 
Q 3634 634 3220 271 
Q 2806 -91 2034 -91 
Q 1263 -91 848 271 
Q 434 634 434 1313 
Q 434 1759 690 2068 
Q 947 2378 1403 2484 
z
M 1172 3481 
Q 1172 3119 1398 2916 
Q 1625 2713 2034 2713 
Q 2441 2713 2670 2916 
Q 2900 3119 2900 3481 
Q 2900 3844 2670 4047 
Q 2441 4250 2034 4250 
Q 1625 4250 1398 4047 
Q 1172 3844 1172 3481 
z
" id="DejaVuSans-38" transform="scale(0.015625)"/>
       </defs>
       <use xlink:href="#DejaVuSans-38"/>
       <use x="63.623047" xlink:href="#DejaVuSans-30"/>
       <use x="127.246094" xlink:href="#DejaVuSans-30"/>
       <use x="190.869141" xlink:href="#DejaVuSans-30"/>
       <use x="254.492188" xlink:href="#DejaVuSans-30"/>
      </g>
     </g>
    </g>
    <g id="text_16">
     <!-- Loss -->
     <g transform="translate(11.667969 190.978781)rotate(-90)scale(0.15 -0.15)">
      <defs>
       <path d="M 628 4666 
L 1259 4666 
L 1259 531 
L 3531 531 
L 3531 0 
L 628 0 
L 628 4666 
z
" id="DejaVuSans-4c" transform="scale(0.015625)"/>
       <path d="M 2834 3397 
L 2834 2853 
Q 2591 2978 2328 3040 
Q 2066 3103 1784 3103 
Q 1356 3103 1142 2972 
Q 928 2841 928 2578 
Q 928 2378 1081 2264 
Q 1234 2150 1697 2047 
L 1894 2003 
Q 2506 1872 2764 1633 
Q 3022 1394 3022 966 
Q 3022 478 2636 193 
Q 2250 -91 1575 -91 
Q 1294 -91 989 -36 
Q 684 19 347 128 
L 347 722 
Q 666 556 975 473 
Q 1284 391 1588 391 
Q 1994 391 2212 530 
Q 2431 669 2431 922 
Q 2431 1156 2273 1281 
Q 2116 1406 1581 1522 
L 1381 1569 
Q 847 1681 609 1914 
Q 372 2147 372 2553 
Q 372 3047 722 3315 
Q 1072 3584 1716 3584 
Q 2034 3584 2315 3537 
Q 2597 3491 2834 3397 
z
" id="DejaVuSans-73" transform="scale(0.015625)"/>
      </defs>
      <use xlink:href="#DejaVuSans-4c"/>
      <use x="53.962891" xlink:href="#DejaVuSans-6f"/>
      <use x="115.144531" xlink:href="#DejaVuSans-73"/>
      <use x="167.244141" xlink:href="#DejaVuSans-73"/>
     </g>
    </g>
   </g>
   <g id="line2d_15">
    <path clip-path="url(#pc35e326715)" d="M 73.832727 292.618473 
L 74.646398 293.20979 
L 76.273739 293.558685 
L 77.087409 293.515967 
L 83.596774 294.169476 
L 84.410444 294.098664 
L 85.224115 294.222979 
L 86.037785 294.126661 
L 88.478797 294.42292 
L 94.988161 294.497353 
L 95.801832 294.641913 
L 97.429173 294.348687 
L 98.242843 294.5678 
L 99.870185 294.776612 
L 100.683855 294.531281 
L 102.311196 294.560928 
L 103.124867 294.754072 
L 103.938537 294.563854 
L 104.752208 294.6274 
L 105.565878 294.887201 
L 106.379549 294.416407 
L 108.00689 294.741926 
L 108.82056 294.671808 
L 112.075243 294.741515 
L 112.888913 294.626232 
L 113.702584 294.843478 
L 114.516254 294.772446 
L 115.329925 294.885464 
L 116.143595 294.808098 
L 116.957266 294.921025 
L 118.584607 294.847211 
L 119.398278 294.904876 
L 120.211948 294.737711 
L 121.025619 295.011349 
L 122.65296 294.828683 
L 124.280301 294.669265 
L 125.093971 294.789941 
L 126.721312 294.820532 
L 127.534983 294.920632 
L 128.348653 294.727853 
L 129.162324 294.896685 
L 131.603336 294.831691 
L 132.417006 294.684478 
L 134.044347 294.881506 
L 135.671688 294.840307 
L 136.485359 294.676677 
L 137.299029 294.742573 
L 138.1127 294.926312 
L 138.92637 294.610802 
L 141.367382 294.785935 
L 145.435735 294.852193 
L 146.249405 294.944725 
L 151.945099 294.749803 
L 154.386111 294.990941 
L 155.199781 294.739957 
L 156.013452 294.944718 
L 156.827122 295.031064 
L 160.081805 294.783187 
L 160.895475 295.031465 
L 161.709146 294.991681 
L 162.522816 294.83719 
L 163.336487 295.04692 
L 164.150157 294.909655 
L 164.963828 294.968796 
L 165.777498 294.851414 
L 166.591169 294.941598 
L 169.845851 294.808237 
L 170.659522 295.014599 
L 171.473192 294.811089 
L 172.286863 294.949009 
L 174.727874 294.838287 
L 175.541545 294.947911 
L 177.168886 294.968898 
L 178.796227 294.901334 
L 179.609897 294.853496 
L 180.423568 295.015374 
L 181.237239 294.836961 
L 182.050909 294.986149 
L 182.86458 294.891111 
L 184.491921 295.112245 
L 185.305591 294.890772 
L 186.119262 294.911604 
L 186.932932 295.046495 
L 188.560273 294.945892 
L 189.373944 294.998896 
L 190.187614 294.864904 
L 193.442297 295.094918 
L 194.255967 294.968134 
L 195.883308 294.872633 
L 196.696979 295.082769 
L 197.510649 294.943365 
L 199.13799 295.074832 
L 199.951661 295.066232 
L 200.765332 294.901214 
L 202.392673 294.952131 
L 203.206343 295.064629 
L 206.461025 294.945483 
L 207.274696 295.039923 
L 208.088366 294.864031 
L 209.715707 295.092262 
L 210.529378 295.040262 
L 211.343049 294.819809 
L 212.156719 295.055528 
L 217.038742 294.80411 
L 217.852413 295.059454 
L 218.666083 295.034433 
L 219.479754 294.885271 
L 220.293424 295.04809 
L 221.107095 294.944535 
L 222.734436 295.246953 
L 223.548107 295.000148 
L 225.175448 295.099898 
L 225.989118 294.90344 
L 229.2438 295.169335 
L 230.057471 294.994751 
L 231.684812 294.93835 
L 232.498483 295.040377 
L 233.312153 294.983654 
L 234.125824 295.118868 
L 235.753165 295.049583 
L 236.566835 294.393853 
L 237.380506 294.665964 
L 240.635188 294.849551 
L 241.448859 294.906694 
L 242.262529 294.713907 
L 243.0762 294.829644 
L 243.88987 294.823192 
L 245.517211 295.123762 
L 247.958223 294.900788 
L 250.399234 295.183434 
L 252.026576 295.092344 
L 259.34961 295.115736 
L 260.163281 294.956327 
L 260.976951 295.084208 
L 261.790622 294.957739 
L 262.604293 294.952349 
L 263.417963 295.150184 
L 266.672645 295.03623 
L 267.486316 294.940431 
L 269.113657 295.265239 
L 269.927327 294.95142 
L 270.740998 295.084839 
L 273.18201 294.997514 
L 273.99568 295.270287 
L 275.623021 295.053516 
L 276.436692 295.265001 
L 277.250362 295.03295 
L 278.064033 295.190111 
L 278.877703 295.175194 
L 279.691374 294.990312 
L 280.505044 295.192705 
L 281.318715 295.091444 
L 282.132386 295.161402 
L 283.759727 295.02021 
L 286.200738 295.374004 
L 287.014409 295.106665 
L 287.828079 295.352348 
L 289.45542 295.186011 
L 292.710103 295.102358 
L 293.523773 295.204538 
L 295.151114 295.132036 
L 297.592126 295.296019 
L 298.405796 295.204734 
L 300.033137 295.334844 
L 300.846808 295.082916 
L 301.660478 295.22524 
L 302.474149 294.939362 
L 303.28782 295.151134 
L 304.915161 295.168208 
L 307.356172 295.299048 
L 308.169843 295.184002 
L 309.797184 295.248464 
L 310.610854 294.995126 
L 311.424525 295.321756 
L 313.051866 295.111799 
L 314.679207 295.384493 
L 316.306548 295.222732 
L 317.120219 295.182493 
L 317.933889 295.300337 
L 318.74756 295.099803 
L 319.56123 295.281463 
L 321.188571 295.089321 
L 322.002242 295.293921 
L 322.815913 295.201835 
L 325.256924 295.304201 
L 326.070595 295.096992 
L 328.511606 295.26521 
L 330.952618 295.27557 
L 331.766288 295.015112 
L 332.579959 295.239177 
L 333.39363 295.044345 
L 335.020971 295.262592 
L 335.834641 295.211003 
L 336.648312 295.015731 
L 338.275653 295.328294 
L 339.089323 295.291089 
L 339.902994 295.036619 
L 340.716664 295.370988 
L 341.530335 295.259559 
L 342.344005 295.302681 
L 343.157676 295.130785 
L 345.598688 295.459338 
L 346.412358 295.167008 
L 350.480711 295.215069 
L 351.294381 295.147912 
L 353.735393 295.238859 
L 355.362734 295.302726 
L 356.990075 295.312467 
L 358.617416 295.033712 
L 359.431087 295.370128 
L 361.058428 295.201956 
L 365.940451 295.275961 
L 366.754122 295.046284 
L 367.567792 295.269128 
L 368.381463 295.247409 
L 369.195133 295.488 
L 370.822474 295.28098 
L 372.449815 295.264872 
L 373.263486 295.437054 
L 374.077157 295.433212 
L 374.890827 295.259551 
L 375.704498 295.483759 
L 376.518168 295.404162 
L 377.331839 295.443215 
L 378.95918 295.132981 
L 379.77285 295.434098 
L 382.213862 295.169332 
L 383.027532 295.34493 
L 383.841203 295.109948 
L 384.654874 295.384409 
L 385.468544 295.229888 
L 387.095885 295.158373 
L 388.723226 295.09264 
L 390.350567 295.29853 
L 391.164238 295.059721 
L 391.977908 295.405072 
L 392.791579 295.36044 
L 393.605249 295.161036 
L 394.41892 295.369503 
L 395.232591 295.444706 
L 396.046261 295.235026 
L 396.859932 295.392506 
L 397.673602 295.434087 
L 398.487273 295.286185 
L 398.487273 295.286185 
" style="fill:none;stroke:#1f77b4;stroke-linecap:square;stroke-width:1.5;"/>
   </g>
   <g id="line2d_16">
    <path clip-path="url(#pc35e326715)" d="M 73.832727 293.202067 
L 74.646398 293.204382 
L 76.273739 292.566699 
L 77.087409 292.744995 
L 78.714751 286.123858 
L 79.528421 282.955485 
L 80.342092 280.970891 
L 81.969433 272.355522 
L 82.783103 271.406678 
L 83.596774 263.471229 
L 84.410444 277.996776 
L 85.224115 266.18041 
L 86.037785 260.362382 
L 86.851456 259.627847 
L 87.665126 248.905285 
L 88.478797 247.272249 
L 89.292468 248.52551 
L 90.106138 243.259878 
L 90.919809 243.555733 
L 91.733479 232.992222 
L 92.54715 260.118625 
L 93.36082 238.771438 
L 94.174491 228.710977 
L 94.988161 222.825167 
L 95.801832 223.415854 
L 96.615502 242.634413 
L 97.429173 227.520937 
L 98.242843 218.972987 
L 99.056514 232.52859 
L 100.683855 216.281824 
L 101.497526 217.91273 
L 102.311196 213.945595 
L 103.124867 223.934403 
L 103.938537 218.240038 
L 104.752208 200.97224 
L 105.565878 209.335071 
L 106.379549 221.441425 
L 107.193219 210.936479 
L 108.00689 215.365634 
L 108.82056 222.625563 
L 109.634231 268.926478 
L 110.447902 207.132312 
L 111.261572 197.030131 
L 112.075243 196.332101 
L 112.888913 204.233874 
L 113.702584 205.575152 
L 114.516254 207.777339 
L 115.329925 206.091775 
L 116.143595 206.505355 
L 117.770936 201.230737 
L 118.584607 207.436341 
L 119.398278 195.656441 
L 120.211948 197.32453 
L 121.025619 203.484381 
L 121.839289 200.608064 
L 122.65296 200.596544 
L 123.46663 204.655111 
L 124.280301 194.098121 
L 125.093971 205.826437 
L 125.907642 201.427506 
L 126.721312 194.82746 
L 127.534983 191.147847 
L 128.348653 200.134516 
L 129.162324 197.344553 
L 129.975995 198.279441 
L 130.789665 197.400668 
L 131.603336 201.190705 
L 132.417006 198.444743 
L 133.230677 203.441726 
L 134.044347 196.906536 
L 134.858018 195.058791 
L 135.671688 202.018238 
L 136.485359 203.237108 
L 137.299029 210.240271 
L 138.1127 194.64471 
L 138.92637 196.482477 
L 139.740041 191.473 
L 140.553712 213.930032 
L 141.367382 193.827566 
L 142.181053 193.143388 
L 142.994723 195.397161 
L 143.808394 194.203915 
L 144.622064 200.119906 
L 145.435735 198.146865 
L 146.249405 189.676923 
L 147.063076 197.033598 
L 147.876746 198.745412 
L 148.690417 190.460445 
L 149.504087 195.419594 
L 150.317758 198.606799 
L 151.131429 195.030264 
L 151.945099 201.455001 
L 152.75877 191.207074 
L 153.57244 192.963205 
L 154.386111 195.136041 
L 155.199781 188.59909 
L 156.013452 187.289235 
L 156.827122 188.604481 
L 157.640793 185.090755 
L 158.454463 193.274764 
L 159.268134 175.967776 
L 160.081805 190.467599 
L 160.895475 191.264441 
L 161.709146 192.402358 
L 162.522816 191.83554 
L 164.150157 187.90035 
L 164.963828 199.680676 
L 165.777498 195.106556 
L 166.591169 193.564641 
L 167.404839 181.095584 
L 168.21851 189.721926 
L 169.03218 184.084024 
L 169.845851 195.424362 
L 170.659522 186.225328 
L 171.473192 190.558842 
L 172.286863 168.592641 
L 173.100533 186.323304 
L 173.914204 179.520343 
L 174.727874 183.224564 
L 175.541545 192.660257 
L 176.355215 192.808363 
L 177.982556 178.212168 
L 178.796227 177.141556 
L 179.609897 188.118794 
L 180.423568 169.985583 
L 181.237239 180.929739 
L 182.050909 184.602219 
L 182.86458 171.556342 
L 183.67825 189.229058 
L 184.491921 181.30446 
L 185.305591 192.914587 
L 186.119262 174.914627 
L 186.932932 189.523333 
L 187.746603 170.390126 
L 188.560273 203.520493 
L 189.373944 184.899946 
L 190.187614 188.867183 
L 191.001285 174.07689 
L 191.814956 167.284304 
L 192.628626 185.653671 
L 193.442297 173.317462 
L 194.255967 181.079918 
L 195.069638 186.350372 
L 195.883308 161.32234 
L 196.696979 174.705281 
L 197.510649 182.57348 
L 198.32432 175.528846 
L 199.13799 182.019348 
L 199.951661 185.82326 
L 200.765332 172.356447 
L 201.579002 178.208995 
L 202.392673 176.305829 
L 203.206343 204.88088 
L 204.020014 168.776346 
L 204.833684 171.437002 
L 205.647355 177.096337 
L 206.461025 172.608682 
L 207.274696 172.147245 
L 208.088366 182.752815 
L 208.902037 163.685835 
L 209.715707 160.009776 
L 210.529378 172.015972 
L 211.343049 175.9073 
L 212.156719 169.091635 
L 212.97039 170.022588 
L 213.78406 178.169604 
L 214.597731 168.933395 
L 215.411401 167.368077 
L 216.225072 159.287466 
L 217.038742 184.482329 
L 217.852413 179.968063 
L 218.666083 168.919864 
L 219.479754 162.181476 
L 220.293424 179.234567 
L 221.107095 166.076294 
L 221.920766 164.788761 
L 222.734436 176.909267 
L 223.548107 170.755593 
L 224.361777 165.8366 
L 225.175448 170.430265 
L 225.989118 157.296361 
L 226.802789 159.394777 
L 227.616459 162.619854 
L 228.43013 191.781532 
L 229.2438 147.652465 
L 230.057471 167.479296 
L 230.871141 154.36324 
L 231.684812 163.691465 
L 232.498483 165.5121 
L 233.312153 173.400173 
L 234.125824 154.311205 
L 234.939494 184.073943 
L 235.753165 160.028708 
L 236.566835 261.49994 
L 237.380506 243.952369 
L 238.194176 235.809976 
L 239.007847 236.146168 
L 239.821517 222.219403 
L 240.635188 212.270506 
L 241.448859 212.914726 
L 242.262529 213.400294 
L 243.0762 200.721064 
L 243.88987 208.013291 
L 244.703541 191.389839 
L 245.517211 190.415864 
L 246.330882 189.63189 
L 247.144552 179.592072 
L 247.958223 196.19347 
L 248.771893 185.88892 
L 249.585564 185.288021 
L 251.212905 155.539848 
L 252.026576 167.495812 
L 252.840246 190.205845 
L 253.653917 167.948429 
L 254.467587 163.24354 
L 255.281258 171.894843 
L 256.094928 166.242776 
L 256.908599 169.52395 
L 257.722269 168.380391 
L 258.53594 176.249022 
L 259.34961 164.24457 
L 260.163281 166.272428 
L 260.976951 177.986583 
L 261.790622 174.529534 
L 262.604293 156.729453 
L 263.417963 196.373808 
L 264.231634 167.422922 
L 265.045304 158.378435 
L 265.858975 157.872044 
L 266.672645 159.133422 
L 267.486316 150.421573 
L 268.299986 162.048642 
L 269.113657 159.826454 
L 269.927327 171.946919 
L 271.554668 157.225435 
L 272.368339 160.262838 
L 273.18201 160.531856 
L 273.99568 152.898905 
L 274.809351 154.428891 
L 275.623021 144.177893 
L 276.436692 179.740193 
L 277.250362 141.502559 
L 278.877703 164.534923 
L 279.691374 141.474898 
L 280.505044 144.05177 
L 281.318715 149.52823 
L 282.132386 139.657626 
L 282.946056 137.041349 
L 283.759727 148.453132 
L 284.573397 141.943235 
L 285.387068 144.800068 
L 286.200738 152.544127 
L 287.014409 130.472135 
L 287.828079 161.234825 
L 288.64175 140.924791 
L 289.45542 131.219174 
L 290.269091 146.568897 
L 291.082761 130.103322 
L 291.896432 134.541818 
L 292.710103 182.075564 
L 293.523773 166.99778 
L 294.337444 162.083842 
L 295.964785 141.003636 
L 296.778455 185.565617 
L 297.592126 145.811331 
L 299.219467 117.29032 
L 300.033137 127.486628 
L 300.846808 144.554272 
L 301.660478 120.090529 
L 302.474149 194.711543 
L 303.28782 147.426903 
L 304.10149 132.76611 
L 304.915161 122.079921 
L 305.728831 122.516094 
L 306.542502 106.564732 
L 307.356172 135.045837 
L 308.169843 145.10547 
L 308.983513 127.135307 
L 309.797184 144.149455 
L 310.610854 140.637125 
L 311.424525 105.788227 
L 312.238195 91.038464 
L 313.051866 176.859623 
L 313.865537 130.887308 
L 314.679207 123.456192 
L 315.492878 111.840917 
L 316.306548 90.195814 
L 317.120219 88.782711 
L 317.933889 122.139554 
L 318.74756 115.756825 
L 319.56123 141.098408 
L 320.374901 108.705369 
L 321.188571 129.153368 
L 322.002242 106.479241 
L 322.815913 115.133702 
L 323.629583 116.380098 
L 324.443254 101.055936 
L 325.256924 99.528296 
L 326.070595 164.898556 
L 326.884265 114.375377 
L 327.697936 115.979499 
L 328.511606 94.956532 
L 329.325277 112.015531 
L 330.138947 97.887337 
L 331.766288 147.642251 
L 332.579959 95.000897 
L 333.39363 107.548986 
L 334.2073 77.495303 
L 335.020971 106.263319 
L 335.834641 87.774862 
L 336.648312 120.186678 
L 337.461982 80.887004 
L 338.275653 93.262779 
L 339.089323 91.49725 
L 339.902994 145.907445 
L 340.716664 98.390445 
L 341.530335 89.970846 
L 342.344005 96.544959 
L 343.157676 71.785612 
L 343.971347 84.31767 
L 344.785017 101.69497 
L 345.598688 79.956222 
L 346.412358 91.915838 
L 347.226029 96.709134 
L 348.039699 83.96244 
L 348.85337 102.567164 
L 349.66704 94.696232 
L 350.480711 129.44987 
L 351.294381 81.665605 
L 352.108052 73.39112 
L 352.921722 87.649706 
L 353.735393 75.631175 
L 354.549064 81.165207 
L 355.362734 77.462241 
L 356.176405 105.958425 
L 356.990075 81.653409 
L 357.803746 89.239111 
L 358.617416 89.894299 
L 359.431087 81.063761 
L 360.244757 73.446265 
L 361.058428 73.165501 
L 361.872098 82.074337 
L 362.685769 75.927958 
L 363.49944 113.718613 
L 364.31311 69.508148 
L 365.126781 80.610829 
L 365.940451 85.042205 
L 366.754122 163.623548 
L 367.567792 93.198078 
L 368.381463 78.711192 
L 369.195133 81.086485 
L 370.008804 87.362656 
L 370.822474 69.728083 
L 371.636145 88.32889 
L 372.449815 66.515338 
L 373.263486 68.49386 
L 374.077157 73.518429 
L 374.890827 53.568 
L 375.704498 64.72182 
L 376.518168 69.679134 
L 377.331839 71.241299 
L 378.145509 67.246966 
L 378.95918 112.215655 
L 380.586521 69.659831 
L 381.400191 91.285954 
L 382.213862 73.820966 
L 383.027532 88.956399 
L 383.841203 75.95269 
L 384.654874 81.544146 
L 385.468544 71.443375 
L 386.282215 74.590268 
L 387.095885 115.851919 
L 387.909556 100.265502 
L 388.723226 181.936359 
L 389.536897 120.088699 
L 390.350567 111.620013 
L 391.164238 86.320627 
L 391.977908 158.277963 
L 392.791579 101.651547 
L 394.41892 61.928832 
L 396.046261 107.924854 
L 396.859932 75.478453 
L 397.673602 100.850907 
L 398.487273 110.292986 
L 398.487273 110.292986 
" style="fill:none;stroke:#ff7f0e;stroke-linecap:square;stroke-width:1.5;"/>
   </g>
   <g id="patch_3">
    <path d="M 57.6 307.584 
L 57.6 41.472 
" style="fill:none;stroke:#000000;stroke-linecap:square;stroke-linejoin:miter;stroke-width:0.8;"/>
   </g>
   <g id="patch_4">
    <path d="M 414.72 307.584 
L 414.72 41.472 
" style="fill:none;stroke:#000000;stroke-linecap:square;stroke-linejoin:miter;stroke-width:0.8;"/>
   </g>
   <g id="patch_5">
    <path d="M 57.6 307.584 
L 414.72 307.584 
" style="fill:none;stroke:#000000;stroke-linecap:square;stroke-linejoin:miter;stroke-width:0.8;"/>
   </g>
   <g id="patch_6">
    <path d="M 57.6 41.472 
L 414.72 41.472 
" style="fill:none;stroke:#000000;stroke-linecap:square;stroke-linejoin:miter;stroke-width:0.8;"/>
   </g>
   <g id="legend_1">
    <g id="patch_7">
     <path d="M 64.6 78.82825 
L 168.475 78.82825 
Q 170.475 78.82825 170.475 76.82825 
L 170.475 48.472 
Q 170.475 46.472 168.475 46.472 
L 64.6 46.472 
Q 62.6 46.472 62.6 48.472 
L 62.6 76.82825 
Q 62.6 78.82825 64.6 78.82825 
z
" style="fill:#ffffff;opacity:0.8;stroke:#cccccc;stroke-linejoin:miter;"/>
    </g>
    <g id="line2d_17">
     <path d="M 66.6 54.570437 
L 86.6 54.570437 
" style="fill:none;stroke:#1f77b4;stroke-linecap:square;stroke-width:1.5;"/>
    </g>
    <g id="line2d_18"/>
    <g id="text_17">
     <!-- Train loss -->
     <g transform="translate(94.6 58.070437)scale(0.1 -0.1)">
      <defs>
       <path d="M -19 4666 
L 3928 4666 
L 3928 4134 
L 2272 4134 
L 2272 0 
L 1638 0 
L 1638 4134 
L -19 4134 
L -19 4666 
z
" id="DejaVuSans-54" transform="scale(0.015625)"/>
       <path d="M 2631 2963 
Q 2534 3019 2420 3045 
Q 2306 3072 2169 3072 
Q 1681 3072 1420 2755 
Q 1159 2438 1159 1844 
L 1159 0 
L 581 0 
L 581 3500 
L 1159 3500 
L 1159 2956 
Q 1341 3275 1631 3429 
Q 1922 3584 2338 3584 
Q 2397 3584 2469 3576 
Q 2541 3569 2628 3553 
L 2631 2963 
z
" id="DejaVuSans-72" transform="scale(0.015625)"/>
       <path d="M 2194 1759 
Q 1497 1759 1228 1600 
Q 959 1441 959 1056 
Q 959 750 1161 570 
Q 1363 391 1709 391 
Q 2188 391 2477 730 
Q 2766 1069 2766 1631 
L 2766 1759 
L 2194 1759 
z
M 3341 1997 
L 3341 0 
L 2766 0 
L 2766 531 
Q 2569 213 2275 61 
Q 1981 -91 1556 -91 
Q 1019 -91 701 211 
Q 384 513 384 1019 
Q 384 1609 779 1909 
Q 1175 2209 1959 2209 
L 2766 2209 
L 2766 2266 
Q 2766 2663 2505 2880 
Q 2244 3097 1772 3097 
Q 1472 3097 1187 3025 
Q 903 2953 641 2809 
L 641 3341 
Q 956 3463 1253 3523 
Q 1550 3584 1831 3584 
Q 2591 3584 2966 3190 
Q 3341 2797 3341 1997 
z
" id="DejaVuSans-61" transform="scale(0.015625)"/>
       <path d="M 603 3500 
L 1178 3500 
L 1178 0 
L 603 0 
L 603 3500 
z
M 603 4863 
L 1178 4863 
L 1178 4134 
L 603 4134 
L 603 4863 
z
" id="DejaVuSans-69" transform="scale(0.015625)"/>
       <path d="M 3513 2113 
L 3513 0 
L 2938 0 
L 2938 2094 
Q 2938 2591 2744 2837 
Q 2550 3084 2163 3084 
Q 1697 3084 1428 2787 
Q 1159 2491 1159 1978 
L 1159 0 
L 581 0 
L 581 3500 
L 1159 3500 
L 1159 2956 
Q 1366 3272 1645 3428 
Q 1925 3584 2291 3584 
Q 2894 3584 3203 3211 
Q 3513 2838 3513 2113 
z
" id="DejaVuSans-6e" transform="scale(0.015625)"/>
       <path id="DejaVuSans-20" transform="scale(0.015625)"/>
       <path d="M 603 4863 
L 1178 4863 
L 1178 0 
L 603 0 
L 603 4863 
z
" id="DejaVuSans-6c" transform="scale(0.015625)"/>
      </defs>
      <use xlink:href="#DejaVuSans-54"/>
      <use x="46.333984" xlink:href="#DejaVuSans-72"/>
      <use x="87.447266" xlink:href="#DejaVuSans-61"/>
      <use x="148.726562" xlink:href="#DejaVuSans-69"/>
      <use x="176.509766" xlink:href="#DejaVuSans-6e"/>
      <use x="239.888672" xlink:href="#DejaVuSans-20"/>
      <use x="271.675781" xlink:href="#DejaVuSans-6c"/>
      <use x="299.458984" xlink:href="#DejaVuSans-6f"/>
      <use x="360.640625" xlink:href="#DejaVuSans-73"/>
      <use x="412.740234" xlink:href="#DejaVuSans-73"/>
     </g>
    </g>
    <g id="line2d_19">
     <path d="M 66.6 69.248562 
L 86.6 69.248562 
" style="fill:none;stroke:#ff7f0e;stroke-linecap:square;stroke-width:1.5;"/>
    </g>
    <g id="line2d_20"/>
    <g id="text_18">
     <!-- Validation loss -->
     <g transform="translate(94.6 72.748562)scale(0.1 -0.1)">
      <defs>
       <path d="M 1831 0 
L 50 4666 
L 709 4666 
L 2188 738 
L 3669 4666 
L 4325 4666 
L 2547 0 
L 1831 0 
z
" id="DejaVuSans-56" transform="scale(0.015625)"/>
       <path d="M 2906 2969 
L 2906 4863 
L 3481 4863 
L 3481 0 
L 2906 0 
L 2906 525 
Q 2725 213 2448 61 
Q 2172 -91 1784 -91 
Q 1150 -91 751 415 
Q 353 922 353 1747 
Q 353 2572 751 3078 
Q 1150 3584 1784 3584 
Q 2172 3584 2448 3432 
Q 2725 3281 2906 2969 
z
M 947 1747 
Q 947 1113 1208 752 
Q 1469 391 1925 391 
Q 2381 391 2643 752 
Q 2906 1113 2906 1747 
Q 2906 2381 2643 2742 
Q 2381 3103 1925 3103 
Q 1469 3103 1208 2742 
Q 947 2381 947 1747 
z
" id="DejaVuSans-64" transform="scale(0.015625)"/>
       <path d="M 1172 4494 
L 1172 3500 
L 2356 3500 
L 2356 3053 
L 1172 3053 
L 1172 1153 
Q 1172 725 1289 603 
Q 1406 481 1766 481 
L 2356 481 
L 2356 0 
L 1766 0 
Q 1100 0 847 248 
Q 594 497 594 1153 
L 594 3053 
L 172 3053 
L 172 3500 
L 594 3500 
L 594 4494 
L 1172 4494 
z
" id="DejaVuSans-74" transform="scale(0.015625)"/>
      </defs>
      <use xlink:href="#DejaVuSans-56"/>
      <use x="60.658203" xlink:href="#DejaVuSans-61"/>
      <use x="121.9375" xlink:href="#DejaVuSans-6c"/>
      <use x="149.720703" xlink:href="#DejaVuSans-69"/>
      <use x="177.503906" xlink:href="#DejaVuSans-64"/>
      <use x="240.980469" xlink:href="#DejaVuSans-61"/>
      <use x="302.259766" xlink:href="#DejaVuSans-74"/>
      <use x="341.46875" xlink:href="#DejaVuSans-69"/>
      <use x="369.251953" xlink:href="#DejaVuSans-6f"/>
      <use x="430.433594" xlink:href="#DejaVuSans-6e"/>
      <use x="493.8125" xlink:href="#DejaVuSans-20"/>
      <use x="525.599609" xlink:href="#DejaVuSans-6c"/>
      <use x="553.382812" xlink:href="#DejaVuSans-6f"/>
      <use x="614.564453" xlink:href="#DejaVuSans-73"/>
      <use x="666.664062" xlink:href="#DejaVuSans-73"/>
     </g>
    </g>
   </g>
  </g>
 </g>
 <defs>
  <clipPath id="pc35e326715">
   <rect height="266.112" width="357.12" x="57.6" y="41.472"/>
  </clipPath>
 </defs>
</svg>
