<?xml version="1.0" encoding="utf-8" standalone="no"?>
<!DOCTYPE svg PUBLIC "-//W3C//DTD SVG 1.1//EN"
  "http://www.w3.org/Graphics/SVG/1.1/DTD/svg11.dtd">
<svg height="345.6pt" version="1.1" viewBox="0 0 460.8 345.6" width="460.8pt" xmlns="http://www.w3.org/2000/svg" xmlns:xlink="http://www.w3.org/1999/xlink">
 <metadata>
  <rdf:RDF xmlns:cc="http://creativecommons.org/ns#" xmlns:dc="http://purl.org/dc/elements/1.1/" xmlns:rdf="http://www.w3.org/1999/02/22-rdf-syntax-ns#">
   <cc:Work>
    <dc:type rdf:resource="http://purl.org/dc/dcmitype/StillImage"/>
    <dc:date>2021-07-13T18:21:50.764038</dc:date>
    <dc:format>image/svg+xml</dc:format>
    <dc:creator>
     <cc:Agent>
      <dc:title>Matplotlib v3.4.2, https://matplotlib.org/</dc:title>
     </cc:Agent>
    </dc:creator>
   </cc:Work>
  </rdf:RDF>
 </metadata>
 <defs>
  <style type="text/css">*{stroke-linecap:butt;stroke-linejoin:round;}</style>
 </defs>
 <g id="figure_1">
  <g id="patch_1">
   <path d="M 0 345.6 
L 460.8 345.6 
L 460.8 0 
L 0 0 
z
" style="fill:#ffffff;"/>
  </g>
  <g id="axes_1">
   <g id="patch_2">
    <path d="M 57.6 307.584 
L 414.72 307.584 
L 414.72 41.472 
L 57.6 41.472 
z
" style="fill:#ffffff;"/>
   </g>
   <g id="matplotlib.axis_1">
    <g id="xtick_1">
     <g id="line2d_1">
      <defs>
       <path d="M 0 0 
L 0 3.5 
" id="m502b4caeaa" style="stroke:#000000;stroke-width:0.8;"/>
      </defs>
      <g>
       <use style="stroke:#000000;stroke-width:0.8;" x="73.019057" xlink:href="#m502b4caeaa" y="307.584"/>
      </g>
     </g>
     <g id="text_1">
      <!-- 0 -->
      <g transform="translate(69.837807 322.182437)scale(0.1 -0.1)">
       <defs>
        <path d="M 2034 4250 
Q 1547 4250 1301 3770 
Q 1056 3291 1056 2328 
Q 1056 1369 1301 889 
Q 1547 409 2034 409 
Q 2525 409 2770 889 
Q 3016 1369 3016 2328 
Q 3016 3291 2770 3770 
Q 2525 4250 2034 4250 
z
M 2034 4750 
Q 2819 4750 3233 4129 
Q 3647 3509 3647 2328 
Q 3647 1150 3233 529 
Q 2819 -91 2034 -91 
Q 1250 -91 836 529 
Q 422 1150 422 2328 
Q 422 3509 836 4129 
Q 1250 4750 2034 4750 
z
" id="DejaVuSans-30" transform="scale(0.015625)"/>
       </defs>
       <use xlink:href="#DejaVuSans-30"/>
      </g>
     </g>
    </g>
    <g id="xtick_2">
     <g id="line2d_2">
      <g>
       <use style="stroke:#000000;stroke-width:0.8;" x="113.702584" xlink:href="#m502b4caeaa" y="307.584"/>
      </g>
     </g>
     <g id="text_2">
      <!-- 50 -->
      <g transform="translate(107.340084 322.182437)scale(0.1 -0.1)">
       <defs>
        <path d="M 691 4666 
L 3169 4666 
L 3169 4134 
L 1269 4134 
L 1269 2991 
Q 1406 3038 1543 3061 
Q 1681 3084 1819 3084 
Q 2600 3084 3056 2656 
Q 3513 2228 3513 1497 
Q 3513 744 3044 326 
Q 2575 -91 1722 -91 
Q 1428 -91 1123 -41 
Q 819 9 494 109 
L 494 744 
Q 775 591 1075 516 
Q 1375 441 1709 441 
Q 2250 441 2565 725 
Q 2881 1009 2881 1497 
Q 2881 1984 2565 2268 
Q 2250 2553 1709 2553 
Q 1456 2553 1204 2497 
Q 953 2441 691 2322 
L 691 4666 
z
" id="DejaVuSans-35" transform="scale(0.015625)"/>
       </defs>
       <use xlink:href="#DejaVuSans-35"/>
       <use x="63.623047" xlink:href="#DejaVuSans-30"/>
      </g>
     </g>
    </g>
    <g id="xtick_3">
     <g id="line2d_3">
      <g>
       <use style="stroke:#000000;stroke-width:0.8;" x="154.386111" xlink:href="#m502b4caeaa" y="307.584"/>
      </g>
     </g>
     <g id="text_3">
      <!-- 100 -->
      <g transform="translate(144.842361 322.182437)scale(0.1 -0.1)">
       <defs>
        <path d="M 794 531 
L 1825 531 
L 1825 4091 
L 703 3866 
L 703 4441 
L 1819 4666 
L 2450 4666 
L 2450 531 
L 3481 531 
L 3481 0 
L 794 0 
L 794 531 
z
" id="DejaVuSans-31" transform="scale(0.015625)"/>
       </defs>
       <use xlink:href="#DejaVuSans-31"/>
       <use x="63.623047" xlink:href="#DejaVuSans-30"/>
       <use x="127.246094" xlink:href="#DejaVuSans-30"/>
      </g>
     </g>
    </g>
    <g id="xtick_4">
     <g id="line2d_4">
      <g>
       <use style="stroke:#000000;stroke-width:0.8;" x="195.069638" xlink:href="#m502b4caeaa" y="307.584"/>
      </g>
     </g>
     <g id="text_4">
      <!-- 150 -->
      <g transform="translate(185.525888 322.182437)scale(0.1 -0.1)">
       <use xlink:href="#DejaVuSans-31"/>
       <use x="63.623047" xlink:href="#DejaVuSans-35"/>
       <use x="127.246094" xlink:href="#DejaVuSans-30"/>
      </g>
     </g>
    </g>
    <g id="xtick_5">
     <g id="line2d_5">
      <g>
       <use style="stroke:#000000;stroke-width:0.8;" x="235.753165" xlink:href="#m502b4caeaa" y="307.584"/>
      </g>
     </g>
     <g id="text_5">
      <!-- 200 -->
      <g transform="translate(226.209415 322.182437)scale(0.1 -0.1)">
       <defs>
        <path d="M 1228 531 
L 3431 531 
L 3431 0 
L 469 0 
L 469 531 
Q 828 903 1448 1529 
Q 2069 2156 2228 2338 
Q 2531 2678 2651 2914 
Q 2772 3150 2772 3378 
Q 2772 3750 2511 3984 
Q 2250 4219 1831 4219 
Q 1534 4219 1204 4116 
Q 875 4013 500 3803 
L 500 4441 
Q 881 4594 1212 4672 
Q 1544 4750 1819 4750 
Q 2544 4750 2975 4387 
Q 3406 4025 3406 3419 
Q 3406 3131 3298 2873 
Q 3191 2616 2906 2266 
Q 2828 2175 2409 1742 
Q 1991 1309 1228 531 
z
" id="DejaVuSans-32" transform="scale(0.015625)"/>
       </defs>
       <use xlink:href="#DejaVuSans-32"/>
       <use x="63.623047" xlink:href="#DejaVuSans-30"/>
       <use x="127.246094" xlink:href="#DejaVuSans-30"/>
      </g>
     </g>
    </g>
    <g id="xtick_6">
     <g id="line2d_6">
      <g>
       <use style="stroke:#000000;stroke-width:0.8;" x="276.436692" xlink:href="#m502b4caeaa" y="307.584"/>
      </g>
     </g>
     <g id="text_6">
      <!-- 250 -->
      <g transform="translate(266.892942 322.182437)scale(0.1 -0.1)">
       <use xlink:href="#DejaVuSans-32"/>
       <use x="63.623047" xlink:href="#DejaVuSans-35"/>
       <use x="127.246094" xlink:href="#DejaVuSans-30"/>
      </g>
     </g>
    </g>
    <g id="xtick_7">
     <g id="line2d_7">
      <g>
       <use style="stroke:#000000;stroke-width:0.8;" x="317.120219" xlink:href="#m502b4caeaa" y="307.584"/>
      </g>
     </g>
     <g id="text_7">
      <!-- 300 -->
      <g transform="translate(307.576469 322.182437)scale(0.1 -0.1)">
       <defs>
        <path d="M 2597 2516 
Q 3050 2419 3304 2112 
Q 3559 1806 3559 1356 
Q 3559 666 3084 287 
Q 2609 -91 1734 -91 
Q 1441 -91 1130 -33 
Q 819 25 488 141 
L 488 750 
Q 750 597 1062 519 
Q 1375 441 1716 441 
Q 2309 441 2620 675 
Q 2931 909 2931 1356 
Q 2931 1769 2642 2001 
Q 2353 2234 1838 2234 
L 1294 2234 
L 1294 2753 
L 1863 2753 
Q 2328 2753 2575 2939 
Q 2822 3125 2822 3475 
Q 2822 3834 2567 4026 
Q 2313 4219 1838 4219 
Q 1578 4219 1281 4162 
Q 984 4106 628 3988 
L 628 4550 
Q 988 4650 1302 4700 
Q 1616 4750 1894 4750 
Q 2613 4750 3031 4423 
Q 3450 4097 3450 3541 
Q 3450 3153 3228 2886 
Q 3006 2619 2597 2516 
z
" id="DejaVuSans-33" transform="scale(0.015625)"/>
       </defs>
       <use xlink:href="#DejaVuSans-33"/>
       <use x="63.623047" xlink:href="#DejaVuSans-30"/>
       <use x="127.246094" xlink:href="#DejaVuSans-30"/>
      </g>
     </g>
    </g>
    <g id="xtick_8">
     <g id="line2d_8">
      <g>
       <use style="stroke:#000000;stroke-width:0.8;" x="357.803746" xlink:href="#m502b4caeaa" y="307.584"/>
      </g>
     </g>
     <g id="text_8">
      <!-- 350 -->
      <g transform="translate(348.259996 322.182437)scale(0.1 -0.1)">
       <use xlink:href="#DejaVuSans-33"/>
       <use x="63.623047" xlink:href="#DejaVuSans-35"/>
       <use x="127.246094" xlink:href="#DejaVuSans-30"/>
      </g>
     </g>
    </g>
    <g id="xtick_9">
     <g id="line2d_9">
      <g>
       <use style="stroke:#000000;stroke-width:0.8;" x="398.487273" xlink:href="#m502b4caeaa" y="307.584"/>
      </g>
     </g>
     <g id="text_9">
      <!-- 400 -->
      <g transform="translate(388.943523 322.182437)scale(0.1 -0.1)">
       <defs>
        <path d="M 2419 4116 
L 825 1625 
L 2419 1625 
L 2419 4116 
z
M 2253 4666 
L 3047 4666 
L 3047 1625 
L 3713 1625 
L 3713 1100 
L 3047 1100 
L 3047 0 
L 2419 0 
L 2419 1100 
L 313 1100 
L 313 1709 
L 2253 4666 
z
" id="DejaVuSans-34" transform="scale(0.015625)"/>
       </defs>
       <use xlink:href="#DejaVuSans-34"/>
       <use x="63.623047" xlink:href="#DejaVuSans-30"/>
       <use x="127.246094" xlink:href="#DejaVuSans-30"/>
      </g>
     </g>
    </g>
    <g id="text_10">
     <!-- Epoch -->
     <g transform="translate(213.193594 339.659781)scale(0.15 -0.15)">
      <defs>
       <path d="M 628 4666 
L 3578 4666 
L 3578 4134 
L 1259 4134 
L 1259 2753 
L 3481 2753 
L 3481 2222 
L 1259 2222 
L 1259 531 
L 3634 531 
L 3634 0 
L 628 0 
L 628 4666 
z
" id="DejaVuSans-45" transform="scale(0.015625)"/>
       <path d="M 1159 525 
L 1159 -1331 
L 581 -1331 
L 581 3500 
L 1159 3500 
L 1159 2969 
Q 1341 3281 1617 3432 
Q 1894 3584 2278 3584 
Q 2916 3584 3314 3078 
Q 3713 2572 3713 1747 
Q 3713 922 3314 415 
Q 2916 -91 2278 -91 
Q 1894 -91 1617 61 
Q 1341 213 1159 525 
z
M 3116 1747 
Q 3116 2381 2855 2742 
Q 2594 3103 2138 3103 
Q 1681 3103 1420 2742 
Q 1159 2381 1159 1747 
Q 1159 1113 1420 752 
Q 1681 391 2138 391 
Q 2594 391 2855 752 
Q 3116 1113 3116 1747 
z
" id="DejaVuSans-70" transform="scale(0.015625)"/>
       <path d="M 1959 3097 
Q 1497 3097 1228 2736 
Q 959 2375 959 1747 
Q 959 1119 1226 758 
Q 1494 397 1959 397 
Q 2419 397 2687 759 
Q 2956 1122 2956 1747 
Q 2956 2369 2687 2733 
Q 2419 3097 1959 3097 
z
M 1959 3584 
Q 2709 3584 3137 3096 
Q 3566 2609 3566 1747 
Q 3566 888 3137 398 
Q 2709 -91 1959 -91 
Q 1206 -91 779 398 
Q 353 888 353 1747 
Q 353 2609 779 3096 
Q 1206 3584 1959 3584 
z
" id="DejaVuSans-6f" transform="scale(0.015625)"/>
       <path d="M 3122 3366 
L 3122 2828 
Q 2878 2963 2633 3030 
Q 2388 3097 2138 3097 
Q 1578 3097 1268 2742 
Q 959 2388 959 1747 
Q 959 1106 1268 751 
Q 1578 397 2138 397 
Q 2388 397 2633 464 
Q 2878 531 3122 666 
L 3122 134 
Q 2881 22 2623 -34 
Q 2366 -91 2075 -91 
Q 1284 -91 818 406 
Q 353 903 353 1747 
Q 353 2603 823 3093 
Q 1294 3584 2113 3584 
Q 2378 3584 2631 3529 
Q 2884 3475 3122 3366 
z
" id="DejaVuSans-63" transform="scale(0.015625)"/>
       <path d="M 3513 2113 
L 3513 0 
L 2938 0 
L 2938 2094 
Q 2938 2591 2744 2837 
Q 2550 3084 2163 3084 
Q 1697 3084 1428 2787 
Q 1159 2491 1159 1978 
L 1159 0 
L 581 0 
L 581 4863 
L 1159 4863 
L 1159 2956 
Q 1366 3272 1645 3428 
Q 1925 3584 2291 3584 
Q 2894 3584 3203 3211 
Q 3513 2838 3513 2113 
z
" id="DejaVuSans-68" transform="scale(0.015625)"/>
      </defs>
      <use xlink:href="#DejaVuSans-45"/>
      <use x="63.183594" xlink:href="#DejaVuSans-70"/>
      <use x="126.660156" xlink:href="#DejaVuSans-6f"/>
      <use x="187.841797" xlink:href="#DejaVuSans-63"/>
      <use x="242.822266" xlink:href="#DejaVuSans-68"/>
     </g>
    </g>
   </g>
   <g id="matplotlib.axis_2">
    <g id="ytick_1">
     <g id="line2d_10">
      <defs>
       <path d="M 0 0 
L -3.5 0 
" id="m6411233a94" style="stroke:#000000;stroke-width:0.8;"/>
      </defs>
      <g>
       <use style="stroke:#000000;stroke-width:0.8;" x="57.6" xlink:href="#m6411233a94" y="303.291871"/>
      </g>
     </g>
     <g id="text_11">
      <!-- 0.0 -->
      <g transform="translate(34.696875 307.09109)scale(0.1 -0.1)">
       <defs>
        <path d="M 684 794 
L 1344 794 
L 1344 0 
L 684 0 
L 684 794 
z
" id="DejaVuSans-2e" transform="scale(0.015625)"/>
       </defs>
       <use xlink:href="#DejaVuSans-30"/>
       <use x="63.623047" xlink:href="#DejaVuSans-2e"/>
       <use x="95.410156" xlink:href="#DejaVuSans-30"/>
      </g>
     </g>
    </g>
    <g id="ytick_2">
     <g id="line2d_11">
      <g>
       <use style="stroke:#000000;stroke-width:0.8;" x="57.6" xlink:href="#m6411233a94" y="251.266065"/>
      </g>
     </g>
     <g id="text_12">
      <!-- 0.2 -->
      <g transform="translate(34.696875 255.065283)scale(0.1 -0.1)">
       <use xlink:href="#DejaVuSans-30"/>
       <use x="63.623047" xlink:href="#DejaVuSans-2e"/>
       <use x="95.410156" xlink:href="#DejaVuSans-32"/>
      </g>
     </g>
    </g>
    <g id="ytick_3">
     <g id="line2d_12">
      <g>
       <use style="stroke:#000000;stroke-width:0.8;" x="57.6" xlink:href="#m6411233a94" y="199.240258"/>
      </g>
     </g>
     <g id="text_13">
      <!-- 0.4 -->
      <g transform="translate(34.696875 203.039477)scale(0.1 -0.1)">
       <use xlink:href="#DejaVuSans-30"/>
       <use x="63.623047" xlink:href="#DejaVuSans-2e"/>
       <use x="95.410156" xlink:href="#DejaVuSans-34"/>
      </g>
     </g>
    </g>
    <g id="ytick_4">
     <g id="line2d_13">
      <g>
       <use style="stroke:#000000;stroke-width:0.8;" x="57.6" xlink:href="#m6411233a94" y="147.214452"/>
      </g>
     </g>
     <g id="text_14">
      <!-- 0.6 -->
      <g transform="translate(34.696875 151.01367)scale(0.1 -0.1)">
       <defs>
        <path d="M 2113 2584 
Q 1688 2584 1439 2293 
Q 1191 2003 1191 1497 
Q 1191 994 1439 701 
Q 1688 409 2113 409 
Q 2538 409 2786 701 
Q 3034 994 3034 1497 
Q 3034 2003 2786 2293 
Q 2538 2584 2113 2584 
z
M 3366 4563 
L 3366 3988 
Q 3128 4100 2886 4159 
Q 2644 4219 2406 4219 
Q 1781 4219 1451 3797 
Q 1122 3375 1075 2522 
Q 1259 2794 1537 2939 
Q 1816 3084 2150 3084 
Q 2853 3084 3261 2657 
Q 3669 2231 3669 1497 
Q 3669 778 3244 343 
Q 2819 -91 2113 -91 
Q 1303 -91 875 529 
Q 447 1150 447 2328 
Q 447 3434 972 4092 
Q 1497 4750 2381 4750 
Q 2619 4750 2861 4703 
Q 3103 4656 3366 4563 
z
" id="DejaVuSans-36" transform="scale(0.015625)"/>
       </defs>
       <use xlink:href="#DejaVuSans-30"/>
       <use x="63.623047" xlink:href="#DejaVuSans-2e"/>
       <use x="95.410156" xlink:href="#DejaVuSans-36"/>
      </g>
     </g>
    </g>
    <g id="ytick_5">
     <g id="line2d_14">
      <g>
       <use style="stroke:#000000;stroke-width:0.8;" x="57.6" xlink:href="#m6411233a94" y="95.188645"/>
      </g>
     </g>
     <g id="text_15">
      <!-- 0.8 -->
      <g transform="translate(34.696875 98.987864)scale(0.1 -0.1)">
       <defs>
        <path d="M 2034 2216 
Q 1584 2216 1326 1975 
Q 1069 1734 1069 1313 
Q 1069 891 1326 650 
Q 1584 409 2034 409 
Q 2484 409 2743 651 
Q 3003 894 3003 1313 
Q 3003 1734 2745 1975 
Q 2488 2216 2034 2216 
z
M 1403 2484 
Q 997 2584 770 2862 
Q 544 3141 544 3541 
Q 544 4100 942 4425 
Q 1341 4750 2034 4750 
Q 2731 4750 3128 4425 
Q 3525 4100 3525 3541 
Q 3525 3141 3298 2862 
Q 3072 2584 2669 2484 
Q 3125 2378 3379 2068 
Q 3634 1759 3634 1313 
Q 3634 634 3220 271 
Q 2806 -91 2034 -91 
Q 1263 -91 848 271 
Q 434 634 434 1313 
Q 434 1759 690 2068 
Q 947 2378 1403 2484 
z
M 1172 3481 
Q 1172 3119 1398 2916 
Q 1625 2713 2034 2713 
Q 2441 2713 2670 2916 
Q 2900 3119 2900 3481 
Q 2900 3844 2670 4047 
Q 2441 4250 2034 4250 
Q 1625 4250 1398 4047 
Q 1172 3844 1172 3481 
z
" id="DejaVuSans-38" transform="scale(0.015625)"/>
       </defs>
       <use xlink:href="#DejaVuSans-30"/>
       <use x="63.623047" xlink:href="#DejaVuSans-2e"/>
       <use x="95.410156" xlink:href="#DejaVuSans-38"/>
      </g>
     </g>
    </g>
    <g id="ytick_6">
     <g id="line2d_15">
      <g>
       <use style="stroke:#000000;stroke-width:0.8;" x="57.6" xlink:href="#m6411233a94" y="43.162839"/>
      </g>
     </g>
     <g id="text_16">
      <!-- 1.0 -->
      <g transform="translate(34.696875 46.962057)scale(0.1 -0.1)">
       <use xlink:href="#DejaVuSans-31"/>
       <use x="63.623047" xlink:href="#DejaVuSans-2e"/>
       <use x="95.410156" xlink:href="#DejaVuSans-30"/>
      </g>
     </g>
    </g>
    <g id="text_17">
     <!-- Loss -->
     <g transform="translate(27.577344 190.978781)rotate(-90)scale(0.15 -0.15)">
      <defs>
       <path d="M 628 4666 
L 1259 4666 
L 1259 531 
L 3531 531 
L 3531 0 
L 628 0 
L 628 4666 
z
" id="DejaVuSans-4c" transform="scale(0.015625)"/>
       <path d="M 2834 3397 
L 2834 2853 
Q 2591 2978 2328 3040 
Q 2066 3103 1784 3103 
Q 1356 3103 1142 2972 
Q 928 2841 928 2578 
Q 928 2378 1081 2264 
Q 1234 2150 1697 2047 
L 1894 2003 
Q 2506 1872 2764 1633 
Q 3022 1394 3022 966 
Q 3022 478 2636 193 
Q 2250 -91 1575 -91 
Q 1294 -91 989 -36 
Q 684 19 347 128 
L 347 722 
Q 666 556 975 473 
Q 1284 391 1588 391 
Q 1994 391 2212 530 
Q 2431 669 2431 922 
Q 2431 1156 2273 1281 
Q 2116 1406 1581 1522 
L 1381 1569 
Q 847 1681 609 1914 
Q 372 2147 372 2553 
Q 372 3047 722 3315 
Q 1072 3584 1716 3584 
Q 2034 3584 2315 3537 
Q 2597 3491 2834 3397 
z
" id="DejaVuSans-73" transform="scale(0.015625)"/>
      </defs>
      <use xlink:href="#DejaVuSans-4c"/>
      <use x="53.962891" xlink:href="#DejaVuSans-6f"/>
      <use x="115.144531" xlink:href="#DejaVuSans-73"/>
      <use x="167.244141" xlink:href="#DejaVuSans-73"/>
     </g>
    </g>
   </g>
   <g id="line2d_16">
    <path clip-path="url(#p46175d4da9)" d="M 73.832727 285.082839 
L 75.460068 287.684129 
L 76.273739 275.978323 
L 77.087409 279.880258 
L 77.90108 273.377032 
L 78.714751 277.278968 
L 80.342092 279.880258 
L 81.155762 295.488 
L 81.969433 281.180903 
L 82.783103 273.377032 
L 83.596774 274.677677 
L 84.410444 272.076387 
L 86.851456 287.684129 
L 87.665126 272.076387 
L 88.478797 288.984774 
L 89.292468 277.278968 
L 90.106138 275.978323 
L 90.919809 278.579613 
L 91.733479 275.978323 
L 92.54715 279.880258 
L 93.36082 278.579613 
L 94.174491 279.880258 
L 94.988161 274.677677 
L 95.801832 264.272516 
L 96.615502 269.475097 
L 97.429173 266.873806 
L 98.242843 262.971871 
L 99.056514 255.168 
L 99.870185 252.56671 
L 100.683855 253.867355 
L 101.497526 261.671226 
L 102.311196 244.762839 
L 103.124867 257.76929 
L 103.938537 251.266065 
L 104.752208 253.867355 
L 105.565878 251.266065 
L 106.379549 238.259613 
L 107.193219 246.063484 
L 108.00689 244.762839 
L 108.82056 238.259613 
L 109.634231 233.057032 
L 110.447902 235.658323 
L 111.261572 214.848 
L 112.075243 229.155097 
L 112.888913 227.854452 
L 113.702584 214.848 
L 114.516254 225.253161 
L 115.329925 220.050581 
L 116.143595 216.148645 
L 116.957266 216.148645 
L 117.770936 230.455742 
L 118.584607 200.540903 
L 119.398278 203.142194 
L 120.211948 214.848 
L 121.025619 221.351226 
L 121.839289 197.939613 
L 122.65296 209.645419 
L 123.46663 205.743484 
L 124.280301 209.645419 
L 125.907642 191.436387 
L 126.721312 191.436387 
L 127.534983 204.442839 
L 128.348653 192.737032 
L 129.162324 194.037677 
L 129.975995 177.12929 
L 130.789665 173.227355 
L 131.603336 173.227355 
L 132.417006 168.024774 
L 133.230677 177.12929 
L 134.044347 169.325419 
L 134.858018 179.730581 
L 135.671688 169.325419 
L 136.485359 166.724129 
L 137.299029 156.318968 
L 138.1127 164.122839 
L 138.92637 161.521548 
L 139.740041 149.815742 
L 140.553712 148.515097 
L 141.367382 158.920258 
L 142.181053 162.822194 
L 142.994723 149.815742 
L 143.808394 151.116387 
L 144.622064 166.724129 
L 145.435735 147.214452 
L 146.249405 145.913806 
L 147.063076 136.80929 
L 147.876746 144.613161 
L 148.690417 134.208 
L 149.504087 135.508645 
L 150.317758 130.306065 
L 151.131429 139.410581 
L 151.945099 138.109935 
L 152.75877 140.711226 
L 153.57244 132.907355 
L 155.199781 135.508645 
L 156.013452 132.907355 
L 156.827122 125.103484 
L 157.640793 121.201548 
L 158.454463 118.600258 
L 159.268134 130.306065 
L 160.081805 135.508645 
L 160.895475 121.201548 
L 161.709146 134.208 
L 162.522816 115.998968 
L 163.336487 125.103484 
L 164.150157 122.502194 
L 164.963828 131.60671 
L 165.777498 117.299613 
L 166.591169 123.802839 
L 167.404839 112.097032 
L 168.21851 115.998968 
L 169.03218 127.704774 
L 169.845851 118.600258 
L 170.659522 113.397677 
L 171.473192 109.495742 
L 172.286863 117.299613 
L 173.100533 123.802839 
L 173.914204 105.593806 
L 174.727874 106.894452 
L 175.541545 110.796387 
L 176.355215 121.201548 
L 177.168886 117.299613 
L 177.982556 123.802839 
L 178.796227 102.992516 
L 179.609897 99.090581 
L 180.423568 96.48929 
L 181.237239 102.992516 
L 182.86458 110.796387 
L 183.67825 105.593806 
L 185.305591 84.783484 
L 186.119262 95.188645 
L 186.932932 88.685419 
L 187.746603 95.188645 
L 188.560273 99.090581 
L 189.373944 93.888 
L 190.187614 104.293161 
L 191.001285 96.48929 
L 191.814956 96.48929 
L 192.628626 105.593806 
L 193.442297 109.495742 
L 194.255967 95.188645 
L 195.069638 93.888 
L 195.883308 82.182194 
L 196.696979 88.685419 
L 197.510649 92.587355 
L 198.32432 99.090581 
L 199.13799 88.685419 
L 199.951661 93.888 
L 200.765332 84.783484 
L 201.579002 87.384774 
L 202.392673 91.28671 
L 203.206343 96.48929 
L 204.020014 99.090581 
L 204.833684 84.783484 
L 205.647355 73.077677 
L 206.461025 88.685419 
L 207.274696 89.986065 
L 208.088366 80.881548 
L 208.902037 92.587355 
L 209.715707 89.986065 
L 210.529378 84.783484 
L 211.343049 84.783484 
L 212.156719 83.482839 
L 212.97039 91.28671 
L 213.78406 86.084129 
L 214.597731 83.482839 
L 215.411401 75.678968 
L 216.225072 75.678968 
L 217.038742 83.482839 
L 217.852413 73.077677 
L 218.666083 95.188645 
L 219.479754 82.182194 
L 220.293424 82.182194 
L 221.107095 92.587355 
L 221.920766 79.580903 
L 222.734436 79.580903 
L 223.548107 87.384774 
L 224.361777 75.678968 
L 225.175448 95.188645 
L 225.989118 82.182194 
L 226.802789 88.685419 
L 227.616459 89.986065 
L 228.43013 71.777032 
L 229.2438 75.678968 
L 230.057471 75.678968 
L 230.871141 87.384774 
L 231.684812 83.482839 
L 232.498483 73.077677 
L 233.312153 71.777032 
L 234.125824 92.587355 
L 234.939494 83.482839 
L 235.753165 84.783484 
L 236.566835 75.678968 
L 237.380506 83.482839 
L 238.194176 78.280258 
L 239.007847 75.678968 
L 239.821517 70.476387 
L 240.635188 82.182194 
L 241.448859 89.986065 
L 242.262529 74.378323 
L 243.0762 86.084129 
L 243.88987 69.175742 
L 244.703541 70.476387 
L 246.330882 83.482839 
L 247.144552 76.979613 
L 247.958223 74.378323 
L 248.771893 86.084129 
L 249.585564 80.881548 
L 250.399234 71.777032 
L 251.212905 73.077677 
L 252.026576 65.273806 
L 253.653917 83.482839 
L 254.467587 73.077677 
L 255.281258 70.476387 
L 256.094928 83.482839 
L 256.908599 79.580903 
L 257.722269 70.476387 
L 258.53594 75.678968 
L 259.34961 63.973161 
L 260.163281 75.678968 
L 260.976951 75.678968 
L 261.790622 65.273806 
L 262.604293 67.875097 
L 263.417963 74.378323 
L 264.231634 73.077677 
L 265.045304 70.476387 
L 265.858975 84.783484 
L 266.672645 70.476387 
L 267.486316 73.077677 
L 268.299986 65.273806 
L 269.113657 76.979613 
L 269.927327 69.175742 
L 271.554668 74.378323 
L 272.368339 84.783484 
L 273.18201 80.881548 
L 273.99568 74.378323 
L 275.623021 76.979613 
L 276.436692 75.678968 
L 277.250362 78.280258 
L 278.064033 78.280258 
L 278.877703 66.574452 
L 279.691374 70.476387 
L 280.505044 71.777032 
L 281.318715 80.881548 
L 282.132386 74.378323 
L 283.759727 69.175742 
L 284.573397 67.875097 
L 285.387068 67.875097 
L 286.200738 82.182194 
L 287.014409 76.979613 
L 287.828079 73.077677 
L 288.64175 83.482839 
L 289.45542 79.580903 
L 290.269091 60.071226 
L 291.082761 75.678968 
L 291.896432 62.672516 
L 292.710103 73.077677 
L 293.523773 76.979613 
L 294.337444 83.482839 
L 295.151114 76.979613 
L 295.964785 62.672516 
L 296.778455 79.580903 
L 297.592126 80.881548 
L 298.405796 73.077677 
L 299.219467 67.875097 
L 300.033137 71.777032 
L 300.846808 67.875097 
L 301.660478 80.881548 
L 302.474149 76.979613 
L 303.28782 82.182194 
L 304.10149 71.777032 
L 304.915161 63.973161 
L 305.728831 67.875097 
L 306.542502 70.476387 
L 308.169843 70.476387 
L 308.983513 66.574452 
L 309.797184 75.678968 
L 310.610854 75.678968 
L 311.424525 78.280258 
L 312.238195 66.574452 
L 313.051866 67.875097 
L 313.865537 78.280258 
L 314.679207 63.973161 
L 315.492878 82.182194 
L 316.306548 70.476387 
L 317.120219 69.175742 
L 317.933889 65.273806 
L 318.74756 73.077677 
L 319.56123 67.875097 
L 320.374901 76.979613 
L 321.188571 63.973161 
L 322.002242 67.875097 
L 322.815913 74.378323 
L 323.629583 76.979613 
L 324.443254 69.175742 
L 325.256924 74.378323 
L 326.070595 71.777032 
L 326.884265 76.979613 
L 327.697936 75.678968 
L 329.325277 75.678968 
L 330.138947 74.378323 
L 330.952618 62.672516 
L 331.766288 67.875097 
L 332.579959 63.973161 
L 333.39363 63.973161 
L 334.2073 70.476387 
L 335.020971 74.378323 
L 335.834641 69.175742 
L 336.648312 70.476387 
L 337.461982 61.371871 
L 338.275653 65.273806 
L 339.089323 70.476387 
L 339.902994 69.175742 
L 341.530335 79.580903 
L 342.344005 66.574452 
L 343.157676 73.077677 
L 343.971347 70.476387 
L 344.785017 71.777032 
L 345.598688 62.672516 
L 346.412358 69.175742 
L 347.226029 62.672516 
L 348.85337 75.678968 
L 349.66704 66.574452 
L 350.480711 61.371871 
L 351.294381 70.476387 
L 352.108052 69.175742 
L 352.921722 73.077677 
L 353.735393 70.476387 
L 354.549064 63.973161 
L 355.362734 69.175742 
L 356.176405 83.482839 
L 356.990075 66.574452 
L 358.617416 74.378323 
L 359.431087 69.175742 
L 360.244757 62.672516 
L 361.058428 66.574452 
L 362.685769 66.574452 
L 363.49944 65.273806 
L 364.31311 74.378323 
L 365.126781 66.574452 
L 365.940451 65.273806 
L 366.754122 67.875097 
L 367.567792 73.077677 
L 368.381463 67.875097 
L 369.195133 58.770581 
L 370.008804 65.273806 
L 371.636145 65.273806 
L 372.449815 70.476387 
L 373.263486 71.777032 
L 374.077157 69.175742 
L 374.890827 57.469935 
L 375.704498 74.378323 
L 376.518168 62.672516 
L 377.331839 69.175742 
L 378.145509 69.175742 
L 378.95918 73.077677 
L 379.77285 75.678968 
L 380.586521 62.672516 
L 381.400191 61.371871 
L 382.213862 53.568 
L 383.027532 71.777032 
L 383.841203 62.672516 
L 384.654874 65.273806 
L 385.468544 61.371871 
L 386.282215 73.077677 
L 387.095885 66.574452 
L 387.909556 63.973161 
L 388.723226 56.16929 
L 389.536897 63.973161 
L 390.350567 61.371871 
L 391.164238 66.574452 
L 391.977908 62.672516 
L 392.791579 67.875097 
L 393.605249 76.979613 
L 394.41892 69.175742 
L 395.232591 58.770581 
L 396.046261 67.875097 
L 396.859932 57.469935 
L 397.673602 66.574452 
L 398.487273 71.777032 
L 398.487273 71.777032 
" style="fill:none;stroke:#1f77b4;stroke-linecap:square;stroke-width:1.5;"/>
   </g>
   <g id="line2d_17">
    <path clip-path="url(#p46175d4da9)" d="M 73.832727 277.170581 
L 74.646398 278.839742 
L 75.460068 278.471226 
L 76.273739 279.056516 
L 77.087409 279.056516 
L 77.90108 278.622968 
L 79.528421 278.579613 
L 80.342092 276.932129 
L 81.155762 277.92929 
L 81.969433 278.536258 
L 82.783103 278.514581 
L 83.596774 276.281806 
L 84.410444 279.056516 
L 85.224115 278.362839 
L 86.037785 278.926452 
L 86.851456 278.319484 
L 87.665126 277.885935 
L 88.478797 278.818065 
L 90.919809 277.864258 
L 91.733479 278.189419 
L 92.54715 277.083871 
L 93.36082 276.58529 
L 94.174491 273.637161 
L 94.988161 272.835097 
L 95.801832 264.66271 
L 96.615502 269.323355 
L 98.242843 249.553548 
L 99.056514 248.729806 
L 99.870185 246.843871 
L 100.683855 246.865548 
L 101.497526 253.368774 
L 102.311196 250.160516 
L 103.124867 252.978581 
L 103.938537 241.272774 
L 104.752208 252.306581 
L 105.565878 242.573419 
L 106.379549 242.118194 
L 107.193219 236.763871 
L 108.00689 236.828903 
L 108.82056 240.167226 
L 109.634231 236.655484 
L 110.447902 232.385032 
L 111.261572 233.338839 
L 112.075243 237.78271 
L 112.888913 227.811097 
L 113.702584 225.6 
L 114.516254 226.423742 
L 115.329925 225.816774 
L 116.143595 227.290839 
L 116.957266 217.601032 
L 117.770936 224.299355 
L 118.584607 222.001548 
L 119.398278 224.732903 
L 120.211948 221.589677 
L 121.025619 217.340903 
L 121.839289 216.018581 
L 122.65296 217.991226 
L 123.46663 209.948903 
L 124.280301 208.539871 
L 125.093971 204.356129 
L 125.907642 202.773677 
L 126.721312 212.593548 
L 127.534983 201.603097 
L 128.348653 200.974452 
L 129.162324 200.15071 
L 129.975995 198.091355 
L 130.789665 203.705806 
L 131.603336 200.952774 
L 132.417006 191.653161 
L 133.230677 186.905806 
L 134.044347 194.818065 
L 134.858018 195.836903 
L 135.671688 194.926452 
L 136.485359 194.969806 
L 137.299029 185.995355 
L 138.1127 182.895484 
L 138.92637 184.196129 
L 139.740041 180.120774 
L 140.553712 181.789935 
L 141.367382 178.64671 
L 142.181053 176.348903 
L 142.994723 179.232 
L 143.808394 176.348903 
L 144.622064 181.16129 
L 145.435735 182.353548 
L 146.249405 175.460129 
L 147.063076 170.496 
L 148.690417 178.429935 
L 149.504087 173.465806 
L 150.317758 181.248 
L 151.131429 167.873032 
L 151.945099 170.972903 
L 152.75877 176.565677 
L 153.57244 170.777806 
L 154.386111 175.308387 
L 155.199781 167.04929 
L 156.013452 164.057806 
L 156.827122 164.729806 
L 157.640793 169.390452 
L 158.454463 165.271742 
L 159.268134 163.906065 
L 160.081805 163.01729 
L 160.895475 157.424516 
L 161.709146 158.898581 
L 162.522816 161.608258 
L 163.336487 163.082323 
L 164.963828 155.148387 
L 165.777498 156.058839 
L 166.591169 152.568774 
L 167.404839 159.852387 
L 168.21851 165.640258 
L 169.03218 154.563097 
L 169.845851 156.535742 
L 170.659522 157.14271 
L 171.473192 155.733677 
L 172.286863 160.264258 
L 173.100533 147.214452 
L 173.914204 161.586581 
L 174.727874 151.59329 
L 175.541545 176.197161 
L 176.355215 154.974968 
L 177.168886 151.940129 
L 177.982556 146.434065 
L 178.796227 149.273806 
L 179.609897 148.168258 
L 180.423568 152.720516 
L 181.237239 147.257806 
L 182.050909 148.926968 
L 182.86458 150.075871 
L 183.67825 153.392516 
L 184.491921 144.20129 
L 185.305591 144.266323 
L 186.119262 142.597161 
L 186.932932 144.591484 
L 187.746603 143.897806 
L 188.560273 149.967484 
L 189.373944 142.553806 
L 190.187614 140.689548 
L 191.001285 145.588645 
L 191.814956 137.958194 
L 192.628626 144.309677 
L 193.442297 145.003355 
L 194.255967 132.77729 
L 195.069638 139.844129 
L 195.883308 144.288 
L 196.696979 140.125935 
L 197.510649 137.958194 
L 199.13799 144.049548 
L 199.951661 135.617032 
L 200.765332 149.533935 
L 201.579002 135.898839 
L 202.392673 141.036387 
L 203.206343 139.887484 
L 204.020014 137.698065 
L 204.833684 138.565161 
L 206.461025 134.554839 
L 207.274696 144.569806 
L 208.088366 133.666065 
L 208.902037 134.424774 
L 209.715707 131.194839 
L 210.529378 136.245677 
L 211.343049 129.655742 
L 212.156719 135.768774 
L 212.97039 143.052387 
L 213.78406 139.193806 
L 214.597731 142.120258 
L 215.411401 141.578323 
L 216.225072 132.018581 
L 217.852413 139.800774 
L 218.666083 133.319226 
L 219.479754 133.427613 
L 220.293424 136.917677 
L 221.107095 134.88 
L 221.920766 140.689548 
L 222.734436 134.12129 
L 223.548107 135.877161 
L 224.361777 141.491613 
L 225.175448 138.370065 
L 225.989118 136.332387 
L 226.802789 128.962065 
L 227.616459 129.092129 
L 228.43013 134.099613 
L 229.2438 134.489806 
L 230.057471 144.353032 
L 230.871141 146.369032 
L 231.684812 134.923355 
L 232.498483 136.484129 
L 233.312153 129.157161 
L 234.125824 142.293677 
L 234.939494 128.485161 
L 235.753165 128.983742 
L 237.380506 128.875355 
L 238.194176 132.972387 
L 239.007847 137.763097 
L 239.821517 140.646194 
L 240.635188 132.148645 
L 241.448859 131.693419 
L 242.262529 127.509677 
L 243.0762 135.356903 
L 243.88987 140.819613 
L 244.703541 125.450323 
L 245.517211 127.769806 
L 246.330882 131.650065 
L 247.144552 133.904516 
L 249.585564 124.344774 
L 250.399234 129.959226 
L 251.212905 128.550194 
L 252.026576 129.352258 
L 252.840246 128.897032 
L 253.653917 133.340903 
L 254.467587 130.457806 
L 255.281258 148.211613 
L 256.094928 127.054452 
L 256.908599 131.129806 
L 257.722269 123.672774 
L 258.53594 121.418323 
L 260.163281 129.699097 
L 260.976951 133.124129 
L 261.790622 128.485161 
L 262.604293 122.935742 
L 263.417963 125.038452 
L 264.231634 129.677419 
L 265.045304 123.781161 
L 265.858975 136.31071 
L 266.672645 125.797161 
L 267.486316 129.504 
L 268.299986 125.38529 
L 269.113657 137.134452 
L 269.927327 123.044129 
L 270.740998 145.263484 
L 271.554668 128.962065 
L 273.18201 132.126968 
L 273.99568 126.664258 
L 274.809351 132.647226 
L 275.623021 131.411613 
L 276.436692 144.461419 
L 277.250362 132.235355 
L 278.064033 133.687742 
L 278.877703 127.422968 
L 279.691374 128.24671 
L 280.505044 126.078968 
L 281.318715 136.80929 
L 282.946056 129.41729 
L 283.759727 127.054452 
L 284.573397 129.265548 
L 285.387068 125.580387 
L 286.200738 138.716903 
L 287.014409 130.284387 
L 287.828079 127.769806 
L 288.64175 133.644387 
L 289.45542 132.798968 
L 290.269091 130.045935 
L 291.082761 130.002581 
L 291.896432 125.255226 
L 292.710103 126.642581 
L 293.523773 133.340903 
L 294.337444 127.466323 
L 295.151114 126.989419 
L 295.964785 124.474839 
L 296.778455 127.899871 
L 297.592126 126.187355 
L 298.405796 129.113806 
L 300.033137 125.688774 
L 300.846808 129.352258 
L 301.660478 130.26271 
L 302.474149 130.08929 
L 303.28782 123.456 
L 304.10149 121.396645 
L 304.915161 120.356129 
L 305.728831 127.921548 
L 306.542502 126.881032 
L 307.356172 131.043097 
L 308.169843 124.865032 
L 308.983513 133.015742 
L 309.797184 125.125161 
L 310.610854 131.780129 
L 311.424525 126.317419 
L 312.238195 125.103484 
L 313.051866 127.769806 
L 313.865537 132.77729 
L 314.679207 129.135484 
L 315.492878 126.620903 
L 316.306548 122.19871 
L 317.120219 130.848 
L 317.933889 122.979097 
L 318.74756 120.030968 
L 319.56123 126.772645 
L 320.374901 122.588903 
L 321.188571 131.043097 
L 322.002242 126.90271 
L 322.815913 119.662452 
L 323.629583 119.619097 
L 324.443254 136.050581 
L 325.256924 123.347613 
L 326.070595 126.382452 
L 326.884265 126.72929 
L 327.697936 118.730323 
L 328.511606 127.553032 
L 329.325277 126.772645 
L 330.138947 121.201548 
L 330.952618 123.282581 
L 331.766288 121.916903 
L 332.579959 129.048774 
L 333.39363 120.030968 
L 334.2073 123.911226 
L 335.020971 124.019613 
L 335.834641 129.373935 
L 336.648312 124.149677 
L 337.461982 121.223226 
L 338.275653 130.284387 
L 339.089323 124.778323 
L 339.902994 126.165677 
L 340.716664 125.797161 
L 341.530335 126.447484 
L 342.344005 123.174194 
L 343.157676 117.386323 
L 343.971347 121.418323 
L 344.785017 120.334452 
L 345.598688 124.258065 
L 346.412358 118.556903 
L 347.226029 123.347613 
L 348.039699 122.350452 
L 348.85337 126.946065 
L 349.66704 123.54271 
L 350.480711 127.813161 
L 351.294381 120.919742 
L 352.108052 124.669935 
L 352.921722 130.002581 
L 353.735393 122.328774 
L 354.549064 123.824516 
L 355.362734 126.512516 
L 356.176405 116.736 
L 356.990075 124.301419 
L 357.803746 120.226065 
L 358.617416 122.523871 
L 359.431087 118.643613 
L 360.244757 126.469161 
L 361.058428 132.625548 
L 361.872098 125.038452 
L 362.685769 122.610581 
L 363.49944 121.808516 
L 364.31311 126.295742 
L 365.126781 125.255226 
L 365.940451 131.216516 
L 366.754122 123.759484 
L 367.567792 122.480516 
L 368.381463 127.184516 
L 369.195133 124.084645 
L 370.008804 117.191226 
L 370.822474 125.081806 
L 371.636145 123.36929 
L 372.449815 123.651097 
L 373.263486 120.074323 
L 374.077157 126.512516 
L 374.890827 123.195871 
L 375.704498 129.178839 
L 376.518168 132.603871 
L 377.331839 127.553032 
L 378.145509 123.36929 
L 378.95918 118.058323 
L 379.77285 121.309935 
L 380.586521 129.850839 
L 381.400191 121.505032 
L 382.213862 118.231742 
L 383.027532 121.35329 
L 383.841203 128.008258 
L 384.654874 118.014968 
L 385.468544 128.420129 
L 386.282215 125.927226 
L 387.095885 118.318452 
L 387.909556 120.919742 
L 388.723226 120.486194 
L 389.536897 118.535226 
L 390.350567 122.588903 
L 391.164238 120.442839 
L 391.977908 123.000774 
L 392.791579 119.684129 
L 393.605249 125.146839 
L 394.41892 118.340129 
L 395.232591 121.570065 
L 396.046261 121.201548 
L 396.859932 120.18271 
L 398.487273 127.986581 
L 398.487273 127.986581 
" style="fill:none;stroke:#ff7f0e;stroke-linecap:square;stroke-width:1.5;"/>
   </g>
   <g id="patch_3">
    <path d="M 57.6 307.584 
L 57.6 41.472 
" style="fill:none;stroke:#000000;stroke-linecap:square;stroke-linejoin:miter;stroke-width:0.8;"/>
   </g>
   <g id="patch_4">
    <path d="M 414.72 307.584 
L 414.72 41.472 
" style="fill:none;stroke:#000000;stroke-linecap:square;stroke-linejoin:miter;stroke-width:0.8;"/>
   </g>
   <g id="patch_5">
    <path d="M 57.6 307.584 
L 414.72 307.584 
" style="fill:none;stroke:#000000;stroke-linecap:square;stroke-linejoin:miter;stroke-width:0.8;"/>
   </g>
   <g id="patch_6">
    <path d="M 57.6 41.472 
L 414.72 41.472 
" style="fill:none;stroke:#000000;stroke-linecap:square;stroke-linejoin:miter;stroke-width:0.8;"/>
   </g>
   <g id="legend_1">
    <g id="patch_7">
     <path d="M 64.6 78.82825 
L 168.475 78.82825 
Q 170.475 78.82825 170.475 76.82825 
L 170.475 48.472 
Q 170.475 46.472 168.475 46.472 
L 64.6 46.472 
Q 62.6 46.472 62.6 48.472 
L 62.6 76.82825 
Q 62.6 78.82825 64.6 78.82825 
z
" style="fill:#ffffff;opacity:0.8;stroke:#cccccc;stroke-linejoin:miter;"/>
    </g>
    <g id="line2d_18">
     <path d="M 66.6 54.570437 
L 86.6 54.570437 
" style="fill:none;stroke:#1f77b4;stroke-linecap:square;stroke-width:1.5;"/>
    </g>
    <g id="line2d_19"/>
    <g id="text_18">
     <!-- Train loss -->
     <g transform="translate(94.6 58.070437)scale(0.1 -0.1)">
      <defs>
       <path d="M -19 4666 
L 3928 4666 
L 3928 4134 
L 2272 4134 
L 2272 0 
L 1638 0 
L 1638 4134 
L -19 4134 
L -19 4666 
z
" id="DejaVuSans-54" transform="scale(0.015625)"/>
       <path d="M 2631 2963 
Q 2534 3019 2420 3045 
Q 2306 3072 2169 3072 
Q 1681 3072 1420 2755 
Q 1159 2438 1159 1844 
L 1159 0 
L 581 0 
L 581 3500 
L 1159 3500 
L 1159 2956 
Q 1341 3275 1631 3429 
Q 1922 3584 2338 3584 
Q 2397 3584 2469 3576 
Q 2541 3569 2628 3553 
L 2631 2963 
z
" id="DejaVuSans-72" transform="scale(0.015625)"/>
       <path d="M 2194 1759 
Q 1497 1759 1228 1600 
Q 959 1441 959 1056 
Q 959 750 1161 570 
Q 1363 391 1709 391 
Q 2188 391 2477 730 
Q 2766 1069 2766 1631 
L 2766 1759 
L 2194 1759 
z
M 3341 1997 
L 3341 0 
L 2766 0 
L 2766 531 
Q 2569 213 2275 61 
Q 1981 -91 1556 -91 
Q 1019 -91 701 211 
Q 384 513 384 1019 
Q 384 1609 779 1909 
Q 1175 2209 1959 2209 
L 2766 2209 
L 2766 2266 
Q 2766 2663 2505 2880 
Q 2244 3097 1772 3097 
Q 1472 3097 1187 3025 
Q 903 2953 641 2809 
L 641 3341 
Q 956 3463 1253 3523 
Q 1550 3584 1831 3584 
Q 2591 3584 2966 3190 
Q 3341 2797 3341 1997 
z
" id="DejaVuSans-61" transform="scale(0.015625)"/>
       <path d="M 603 3500 
L 1178 3500 
L 1178 0 
L 603 0 
L 603 3500 
z
M 603 4863 
L 1178 4863 
L 1178 4134 
L 603 4134 
L 603 4863 
z
" id="DejaVuSans-69" transform="scale(0.015625)"/>
       <path d="M 3513 2113 
L 3513 0 
L 2938 0 
L 2938 2094 
Q 2938 2591 2744 2837 
Q 2550 3084 2163 3084 
Q 1697 3084 1428 2787 
Q 1159 2491 1159 1978 
L 1159 0 
L 581 0 
L 581 3500 
L 1159 3500 
L 1159 2956 
Q 1366 3272 1645 3428 
Q 1925 3584 2291 3584 
Q 2894 3584 3203 3211 
Q 3513 2838 3513 2113 
z
" id="DejaVuSans-6e" transform="scale(0.015625)"/>
       <path id="DejaVuSans-20" transform="scale(0.015625)"/>
       <path d="M 603 4863 
L 1178 4863 
L 1178 0 
L 603 0 
L 603 4863 
z
" id="DejaVuSans-6c" transform="scale(0.015625)"/>
      </defs>
      <use xlink:href="#DejaVuSans-54"/>
      <use x="46.333984" xlink:href="#DejaVuSans-72"/>
      <use x="87.447266" xlink:href="#DejaVuSans-61"/>
      <use x="148.726562" xlink:href="#DejaVuSans-69"/>
      <use x="176.509766" xlink:href="#DejaVuSans-6e"/>
      <use x="239.888672" xlink:href="#DejaVuSans-20"/>
      <use x="271.675781" xlink:href="#DejaVuSans-6c"/>
      <use x="299.458984" xlink:href="#DejaVuSans-6f"/>
      <use x="360.640625" xlink:href="#DejaVuSans-73"/>
      <use x="412.740234" xlink:href="#DejaVuSans-73"/>
     </g>
    </g>
    <g id="line2d_20">
     <path d="M 66.6 69.248562 
L 86.6 69.248562 
" style="fill:none;stroke:#ff7f0e;stroke-linecap:square;stroke-width:1.5;"/>
    </g>
    <g id="line2d_21"/>
    <g id="text_19">
     <!-- Validation loss -->
     <g transform="translate(94.6 72.748562)scale(0.1 -0.1)">
      <defs>
       <path d="M 1831 0 
L 50 4666 
L 709 4666 
L 2188 738 
L 3669 4666 
L 4325 4666 
L 2547 0 
L 1831 0 
z
" id="DejaVuSans-56" transform="scale(0.015625)"/>
       <path d="M 2906 2969 
L 2906 4863 
L 3481 4863 
L 3481 0 
L 2906 0 
L 2906 525 
Q 2725 213 2448 61 
Q 2172 -91 1784 -91 
Q 1150 -91 751 415 
Q 353 922 353 1747 
Q 353 2572 751 3078 
Q 1150 3584 1784 3584 
Q 2172 3584 2448 3432 
Q 2725 3281 2906 2969 
z
M 947 1747 
Q 947 1113 1208 752 
Q 1469 391 1925 391 
Q 2381 391 2643 752 
Q 2906 1113 2906 1747 
Q 2906 2381 2643 2742 
Q 2381 3103 1925 3103 
Q 1469 3103 1208 2742 
Q 947 2381 947 1747 
z
" id="DejaVuSans-64" transform="scale(0.015625)"/>
       <path d="M 1172 4494 
L 1172 3500 
L 2356 3500 
L 2356 3053 
L 1172 3053 
L 1172 1153 
Q 1172 725 1289 603 
Q 1406 481 1766 481 
L 2356 481 
L 2356 0 
L 1766 0 
Q 1100 0 847 248 
Q 594 497 594 1153 
L 594 3053 
L 172 3053 
L 172 3500 
L 594 3500 
L 594 4494 
L 1172 4494 
z
" id="DejaVuSans-74" transform="scale(0.015625)"/>
      </defs>
      <use xlink:href="#DejaVuSans-56"/>
      <use x="60.658203" xlink:href="#DejaVuSans-61"/>
      <use x="121.9375" xlink:href="#DejaVuSans-6c"/>
      <use x="149.720703" xlink:href="#DejaVuSans-69"/>
      <use x="177.503906" xlink:href="#DejaVuSans-64"/>
      <use x="240.980469" xlink:href="#DejaVuSans-61"/>
      <use x="302.259766" xlink:href="#DejaVuSans-74"/>
      <use x="341.46875" xlink:href="#DejaVuSans-69"/>
      <use x="369.251953" xlink:href="#DejaVuSans-6f"/>
      <use x="430.433594" xlink:href="#DejaVuSans-6e"/>
      <use x="493.8125" xlink:href="#DejaVuSans-20"/>
      <use x="525.599609" xlink:href="#DejaVuSans-6c"/>
      <use x="553.382812" xlink:href="#DejaVuSans-6f"/>
      <use x="614.564453" xlink:href="#DejaVuSans-73"/>
      <use x="666.664062" xlink:href="#DejaVuSans-73"/>
     </g>
    </g>
   </g>
  </g>
 </g>
 <defs>
  <clipPath id="p46175d4da9">
   <rect height="266.112" width="357.12" x="57.6" y="41.472"/>
  </clipPath>
 </defs>
</svg>
