<?xml version="1.0" encoding="utf-8" standalone="no"?>
<!DOCTYPE svg PUBLIC "-//W3C//DTD SVG 1.1//EN"
  "http://www.w3.org/Graphics/SVG/1.1/DTD/svg11.dtd">
<svg height="345.6pt" version="1.1" viewBox="0 0 460.8 345.6" width="460.8pt" xmlns="http://www.w3.org/2000/svg" xmlns:xlink="http://www.w3.org/1999/xlink">
 <metadata>
  <rdf:RDF xmlns:cc="http://creativecommons.org/ns#" xmlns:dc="http://purl.org/dc/elements/1.1/" xmlns:rdf="http://www.w3.org/1999/02/22-rdf-syntax-ns#">
   <cc:Work>
    <dc:type rdf:resource="http://purl.org/dc/dcmitype/StillImage"/>
    <dc:date>2021-07-14T22:30:56.102216</dc:date>
    <dc:format>image/svg+xml</dc:format>
    <dc:creator>
     <cc:Agent>
      <dc:title>Matplotlib v3.4.2, https://matplotlib.org/</dc:title>
     </cc:Agent>
    </dc:creator>
   </cc:Work>
  </rdf:RDF>
 </metadata>
 <defs>
  <style type="text/css">*{stroke-linecap:butt;stroke-linejoin:round;}</style>
 </defs>
 <g id="figure_1">
  <g id="patch_1">
   <path d="M 0 345.6 
L 460.8 345.6 
L 460.8 0 
L 0 0 
z
" style="fill:#ffffff;"/>
  </g>
  <g id="axes_1">
   <g id="patch_2">
    <path d="M 57.6 307.584 
L 414.72 307.584 
L 414.72 41.472 
L 57.6 41.472 
z
" style="fill:#ffffff;"/>
   </g>
   <g id="matplotlib.axis_1">
    <g id="xtick_1">
     <g id="line2d_1">
      <defs>
       <path d="M 0 0 
L 0 3.5 
" id="m9c17a68403" style="stroke:#000000;stroke-width:0.8;"/>
      </defs>
      <g>
       <use style="stroke:#000000;stroke-width:0.8;" x="73.019057" xlink:href="#m9c17a68403" y="307.584"/>
      </g>
     </g>
     <g id="text_1">
      <!-- 0 -->
      <g transform="translate(69.837807 322.182437)scale(0.1 -0.1)">
       <defs>
        <path d="M 2034 4250 
Q 1547 4250 1301 3770 
Q 1056 3291 1056 2328 
Q 1056 1369 1301 889 
Q 1547 409 2034 409 
Q 2525 409 2770 889 
Q 3016 1369 3016 2328 
Q 3016 3291 2770 3770 
Q 2525 4250 2034 4250 
z
M 2034 4750 
Q 2819 4750 3233 4129 
Q 3647 3509 3647 2328 
Q 3647 1150 3233 529 
Q 2819 -91 2034 -91 
Q 1250 -91 836 529 
Q 422 1150 422 2328 
Q 422 3509 836 4129 
Q 1250 4750 2034 4750 
z
" id="DejaVuSans-30" transform="scale(0.015625)"/>
       </defs>
       <use xlink:href="#DejaVuSans-30"/>
      </g>
     </g>
    </g>
    <g id="xtick_2">
     <g id="line2d_2">
      <g>
       <use style="stroke:#000000;stroke-width:0.8;" x="113.702584" xlink:href="#m9c17a68403" y="307.584"/>
      </g>
     </g>
     <g id="text_2">
      <!-- 50 -->
      <g transform="translate(107.340084 322.182437)scale(0.1 -0.1)">
       <defs>
        <path d="M 691 4666 
L 3169 4666 
L 3169 4134 
L 1269 4134 
L 1269 2991 
Q 1406 3038 1543 3061 
Q 1681 3084 1819 3084 
Q 2600 3084 3056 2656 
Q 3513 2228 3513 1497 
Q 3513 744 3044 326 
Q 2575 -91 1722 -91 
Q 1428 -91 1123 -41 
Q 819 9 494 109 
L 494 744 
Q 775 591 1075 516 
Q 1375 441 1709 441 
Q 2250 441 2565 725 
Q 2881 1009 2881 1497 
Q 2881 1984 2565 2268 
Q 2250 2553 1709 2553 
Q 1456 2553 1204 2497 
Q 953 2441 691 2322 
L 691 4666 
z
" id="DejaVuSans-35" transform="scale(0.015625)"/>
       </defs>
       <use xlink:href="#DejaVuSans-35"/>
       <use x="63.623047" xlink:href="#DejaVuSans-30"/>
      </g>
     </g>
    </g>
    <g id="xtick_3">
     <g id="line2d_3">
      <g>
       <use style="stroke:#000000;stroke-width:0.8;" x="154.386111" xlink:href="#m9c17a68403" y="307.584"/>
      </g>
     </g>
     <g id="text_3">
      <!-- 100 -->
      <g transform="translate(144.842361 322.182437)scale(0.1 -0.1)">
       <defs>
        <path d="M 794 531 
L 1825 531 
L 1825 4091 
L 703 3866 
L 703 4441 
L 1819 4666 
L 2450 4666 
L 2450 531 
L 3481 531 
L 3481 0 
L 794 0 
L 794 531 
z
" id="DejaVuSans-31" transform="scale(0.015625)"/>
       </defs>
       <use xlink:href="#DejaVuSans-31"/>
       <use x="63.623047" xlink:href="#DejaVuSans-30"/>
       <use x="127.246094" xlink:href="#DejaVuSans-30"/>
      </g>
     </g>
    </g>
    <g id="xtick_4">
     <g id="line2d_4">
      <g>
       <use style="stroke:#000000;stroke-width:0.8;" x="195.069638" xlink:href="#m9c17a68403" y="307.584"/>
      </g>
     </g>
     <g id="text_4">
      <!-- 150 -->
      <g transform="translate(185.525888 322.182437)scale(0.1 -0.1)">
       <use xlink:href="#DejaVuSans-31"/>
       <use x="63.623047" xlink:href="#DejaVuSans-35"/>
       <use x="127.246094" xlink:href="#DejaVuSans-30"/>
      </g>
     </g>
    </g>
    <g id="xtick_5">
     <g id="line2d_5">
      <g>
       <use style="stroke:#000000;stroke-width:0.8;" x="235.753165" xlink:href="#m9c17a68403" y="307.584"/>
      </g>
     </g>
     <g id="text_5">
      <!-- 200 -->
      <g transform="translate(226.209415 322.182437)scale(0.1 -0.1)">
       <defs>
        <path d="M 1228 531 
L 3431 531 
L 3431 0 
L 469 0 
L 469 531 
Q 828 903 1448 1529 
Q 2069 2156 2228 2338 
Q 2531 2678 2651 2914 
Q 2772 3150 2772 3378 
Q 2772 3750 2511 3984 
Q 2250 4219 1831 4219 
Q 1534 4219 1204 4116 
Q 875 4013 500 3803 
L 500 4441 
Q 881 4594 1212 4672 
Q 1544 4750 1819 4750 
Q 2544 4750 2975 4387 
Q 3406 4025 3406 3419 
Q 3406 3131 3298 2873 
Q 3191 2616 2906 2266 
Q 2828 2175 2409 1742 
Q 1991 1309 1228 531 
z
" id="DejaVuSans-32" transform="scale(0.015625)"/>
       </defs>
       <use xlink:href="#DejaVuSans-32"/>
       <use x="63.623047" xlink:href="#DejaVuSans-30"/>
       <use x="127.246094" xlink:href="#DejaVuSans-30"/>
      </g>
     </g>
    </g>
    <g id="xtick_6">
     <g id="line2d_6">
      <g>
       <use style="stroke:#000000;stroke-width:0.8;" x="276.436692" xlink:href="#m9c17a68403" y="307.584"/>
      </g>
     </g>
     <g id="text_6">
      <!-- 250 -->
      <g transform="translate(266.892942 322.182437)scale(0.1 -0.1)">
       <use xlink:href="#DejaVuSans-32"/>
       <use x="63.623047" xlink:href="#DejaVuSans-35"/>
       <use x="127.246094" xlink:href="#DejaVuSans-30"/>
      </g>
     </g>
    </g>
    <g id="xtick_7">
     <g id="line2d_7">
      <g>
       <use style="stroke:#000000;stroke-width:0.8;" x="317.120219" xlink:href="#m9c17a68403" y="307.584"/>
      </g>
     </g>
     <g id="text_7">
      <!-- 300 -->
      <g transform="translate(307.576469 322.182437)scale(0.1 -0.1)">
       <defs>
        <path d="M 2597 2516 
Q 3050 2419 3304 2112 
Q 3559 1806 3559 1356 
Q 3559 666 3084 287 
Q 2609 -91 1734 -91 
Q 1441 -91 1130 -33 
Q 819 25 488 141 
L 488 750 
Q 750 597 1062 519 
Q 1375 441 1716 441 
Q 2309 441 2620 675 
Q 2931 909 2931 1356 
Q 2931 1769 2642 2001 
Q 2353 2234 1838 2234 
L 1294 2234 
L 1294 2753 
L 1863 2753 
Q 2328 2753 2575 2939 
Q 2822 3125 2822 3475 
Q 2822 3834 2567 4026 
Q 2313 4219 1838 4219 
Q 1578 4219 1281 4162 
Q 984 4106 628 3988 
L 628 4550 
Q 988 4650 1302 4700 
Q 1616 4750 1894 4750 
Q 2613 4750 3031 4423 
Q 3450 4097 3450 3541 
Q 3450 3153 3228 2886 
Q 3006 2619 2597 2516 
z
" id="DejaVuSans-33" transform="scale(0.015625)"/>
       </defs>
       <use xlink:href="#DejaVuSans-33"/>
       <use x="63.623047" xlink:href="#DejaVuSans-30"/>
       <use x="127.246094" xlink:href="#DejaVuSans-30"/>
      </g>
     </g>
    </g>
    <g id="xtick_8">
     <g id="line2d_8">
      <g>
       <use style="stroke:#000000;stroke-width:0.8;" x="357.803746" xlink:href="#m9c17a68403" y="307.584"/>
      </g>
     </g>
     <g id="text_8">
      <!-- 350 -->
      <g transform="translate(348.259996 322.182437)scale(0.1 -0.1)">
       <use xlink:href="#DejaVuSans-33"/>
       <use x="63.623047" xlink:href="#DejaVuSans-35"/>
       <use x="127.246094" xlink:href="#DejaVuSans-30"/>
      </g>
     </g>
    </g>
    <g id="xtick_9">
     <g id="line2d_9">
      <g>
       <use style="stroke:#000000;stroke-width:0.8;" x="398.487273" xlink:href="#m9c17a68403" y="307.584"/>
      </g>
     </g>
     <g id="text_9">
      <!-- 400 -->
      <g transform="translate(388.943523 322.182437)scale(0.1 -0.1)">
       <defs>
        <path d="M 2419 4116 
L 825 1625 
L 2419 1625 
L 2419 4116 
z
M 2253 4666 
L 3047 4666 
L 3047 1625 
L 3713 1625 
L 3713 1100 
L 3047 1100 
L 3047 0 
L 2419 0 
L 2419 1100 
L 313 1100 
L 313 1709 
L 2253 4666 
z
" id="DejaVuSans-34" transform="scale(0.015625)"/>
       </defs>
       <use xlink:href="#DejaVuSans-34"/>
       <use x="63.623047" xlink:href="#DejaVuSans-30"/>
       <use x="127.246094" xlink:href="#DejaVuSans-30"/>
      </g>
     </g>
    </g>
    <g id="text_10">
     <!-- Epoch -->
     <g transform="translate(213.193594 339.659781)scale(0.15 -0.15)">
      <defs>
       <path d="M 628 4666 
L 3578 4666 
L 3578 4134 
L 1259 4134 
L 1259 2753 
L 3481 2753 
L 3481 2222 
L 1259 2222 
L 1259 531 
L 3634 531 
L 3634 0 
L 628 0 
L 628 4666 
z
" id="DejaVuSans-45" transform="scale(0.015625)"/>
       <path d="M 1159 525 
L 1159 -1331 
L 581 -1331 
L 581 3500 
L 1159 3500 
L 1159 2969 
Q 1341 3281 1617 3432 
Q 1894 3584 2278 3584 
Q 2916 3584 3314 3078 
Q 3713 2572 3713 1747 
Q 3713 922 3314 415 
Q 2916 -91 2278 -91 
Q 1894 -91 1617 61 
Q 1341 213 1159 525 
z
M 3116 1747 
Q 3116 2381 2855 2742 
Q 2594 3103 2138 3103 
Q 1681 3103 1420 2742 
Q 1159 2381 1159 1747 
Q 1159 1113 1420 752 
Q 1681 391 2138 391 
Q 2594 391 2855 752 
Q 3116 1113 3116 1747 
z
" id="DejaVuSans-70" transform="scale(0.015625)"/>
       <path d="M 1959 3097 
Q 1497 3097 1228 2736 
Q 959 2375 959 1747 
Q 959 1119 1226 758 
Q 1494 397 1959 397 
Q 2419 397 2687 759 
Q 2956 1122 2956 1747 
Q 2956 2369 2687 2733 
Q 2419 3097 1959 3097 
z
M 1959 3584 
Q 2709 3584 3137 3096 
Q 3566 2609 3566 1747 
Q 3566 888 3137 398 
Q 2709 -91 1959 -91 
Q 1206 -91 779 398 
Q 353 888 353 1747 
Q 353 2609 779 3096 
Q 1206 3584 1959 3584 
z
" id="DejaVuSans-6f" transform="scale(0.015625)"/>
       <path d="M 3122 3366 
L 3122 2828 
Q 2878 2963 2633 3030 
Q 2388 3097 2138 3097 
Q 1578 3097 1268 2742 
Q 959 2388 959 1747 
Q 959 1106 1268 751 
Q 1578 397 2138 397 
Q 2388 397 2633 464 
Q 2878 531 3122 666 
L 3122 134 
Q 2881 22 2623 -34 
Q 2366 -91 2075 -91 
Q 1284 -91 818 406 
Q 353 903 353 1747 
Q 353 2603 823 3093 
Q 1294 3584 2113 3584 
Q 2378 3584 2631 3529 
Q 2884 3475 3122 3366 
z
" id="DejaVuSans-63" transform="scale(0.015625)"/>
       <path d="M 3513 2113 
L 3513 0 
L 2938 0 
L 2938 2094 
Q 2938 2591 2744 2837 
Q 2550 3084 2163 3084 
Q 1697 3084 1428 2787 
Q 1159 2491 1159 1978 
L 1159 0 
L 581 0 
L 581 4863 
L 1159 4863 
L 1159 2956 
Q 1366 3272 1645 3428 
Q 1925 3584 2291 3584 
Q 2894 3584 3203 3211 
Q 3513 2838 3513 2113 
z
" id="DejaVuSans-68" transform="scale(0.015625)"/>
      </defs>
      <use xlink:href="#DejaVuSans-45"/>
      <use x="63.183594" xlink:href="#DejaVuSans-70"/>
      <use x="126.660156" xlink:href="#DejaVuSans-6f"/>
      <use x="187.841797" xlink:href="#DejaVuSans-63"/>
      <use x="242.822266" xlink:href="#DejaVuSans-68"/>
     </g>
    </g>
   </g>
   <g id="matplotlib.axis_2">
    <g id="ytick_1">
     <g id="line2d_10">
      <defs>
       <path d="M 0 0 
L -3.5 0 
" id="m9988b99ddf" style="stroke:#000000;stroke-width:0.8;"/>
      </defs>
      <g>
       <use style="stroke:#000000;stroke-width:0.8;" x="57.6" xlink:href="#m9988b99ddf" y="291.410002"/>
      </g>
     </g>
     <g id="text_11">
      <!-- 0 -->
      <g transform="translate(44.2375 295.209221)scale(0.1 -0.1)">
       <use xlink:href="#DejaVuSans-30"/>
      </g>
     </g>
    </g>
    <g id="ytick_2">
     <g id="line2d_11">
      <g>
       <use style="stroke:#000000;stroke-width:0.8;" x="57.6" xlink:href="#m9988b99ddf" y="258.749288"/>
      </g>
     </g>
     <g id="text_12">
      <!-- 10000 -->
      <g transform="translate(18.7875 262.548507)scale(0.1 -0.1)">
       <use xlink:href="#DejaVuSans-31"/>
       <use x="63.623047" xlink:href="#DejaVuSans-30"/>
       <use x="127.246094" xlink:href="#DejaVuSans-30"/>
       <use x="190.869141" xlink:href="#DejaVuSans-30"/>
       <use x="254.492188" xlink:href="#DejaVuSans-30"/>
      </g>
     </g>
    </g>
    <g id="ytick_3">
     <g id="line2d_12">
      <g>
       <use style="stroke:#000000;stroke-width:0.8;" x="57.6" xlink:href="#m9988b99ddf" y="226.088574"/>
      </g>
     </g>
     <g id="text_13">
      <!-- 20000 -->
      <g transform="translate(18.7875 229.887793)scale(0.1 -0.1)">
       <use xlink:href="#DejaVuSans-32"/>
       <use x="63.623047" xlink:href="#DejaVuSans-30"/>
       <use x="127.246094" xlink:href="#DejaVuSans-30"/>
       <use x="190.869141" xlink:href="#DejaVuSans-30"/>
       <use x="254.492188" xlink:href="#DejaVuSans-30"/>
      </g>
     </g>
    </g>
    <g id="ytick_4">
     <g id="line2d_13">
      <g>
       <use style="stroke:#000000;stroke-width:0.8;" x="57.6" xlink:href="#m9988b99ddf" y="193.42786"/>
      </g>
     </g>
     <g id="text_14">
      <!-- 30000 -->
      <g transform="translate(18.7875 197.227079)scale(0.1 -0.1)">
       <use xlink:href="#DejaVuSans-33"/>
       <use x="63.623047" xlink:href="#DejaVuSans-30"/>
       <use x="127.246094" xlink:href="#DejaVuSans-30"/>
       <use x="190.869141" xlink:href="#DejaVuSans-30"/>
       <use x="254.492188" xlink:href="#DejaVuSans-30"/>
      </g>
     </g>
    </g>
    <g id="ytick_5">
     <g id="line2d_14">
      <g>
       <use style="stroke:#000000;stroke-width:0.8;" x="57.6" xlink:href="#m9988b99ddf" y="160.767146"/>
      </g>
     </g>
     <g id="text_15">
      <!-- 40000 -->
      <g transform="translate(18.7875 164.566364)scale(0.1 -0.1)">
       <use xlink:href="#DejaVuSans-34"/>
       <use x="63.623047" xlink:href="#DejaVuSans-30"/>
       <use x="127.246094" xlink:href="#DejaVuSans-30"/>
       <use x="190.869141" xlink:href="#DejaVuSans-30"/>
       <use x="254.492188" xlink:href="#DejaVuSans-30"/>
      </g>
     </g>
    </g>
    <g id="ytick_6">
     <g id="line2d_15">
      <g>
       <use style="stroke:#000000;stroke-width:0.8;" x="57.6" xlink:href="#m9988b99ddf" y="128.106431"/>
      </g>
     </g>
     <g id="text_16">
      <!-- 50000 -->
      <g transform="translate(18.7875 131.90565)scale(0.1 -0.1)">
       <use xlink:href="#DejaVuSans-35"/>
       <use x="63.623047" xlink:href="#DejaVuSans-30"/>
       <use x="127.246094" xlink:href="#DejaVuSans-30"/>
       <use x="190.869141" xlink:href="#DejaVuSans-30"/>
       <use x="254.492188" xlink:href="#DejaVuSans-30"/>
      </g>
     </g>
    </g>
    <g id="ytick_7">
     <g id="line2d_16">
      <g>
       <use style="stroke:#000000;stroke-width:0.8;" x="57.6" xlink:href="#m9988b99ddf" y="95.445717"/>
      </g>
     </g>
     <g id="text_17">
      <!-- 60000 -->
      <g transform="translate(18.7875 99.244936)scale(0.1 -0.1)">
       <defs>
        <path d="M 2113 2584 
Q 1688 2584 1439 2293 
Q 1191 2003 1191 1497 
Q 1191 994 1439 701 
Q 1688 409 2113 409 
Q 2538 409 2786 701 
Q 3034 994 3034 1497 
Q 3034 2003 2786 2293 
Q 2538 2584 2113 2584 
z
M 3366 4563 
L 3366 3988 
Q 3128 4100 2886 4159 
Q 2644 4219 2406 4219 
Q 1781 4219 1451 3797 
Q 1122 3375 1075 2522 
Q 1259 2794 1537 2939 
Q 1816 3084 2150 3084 
Q 2853 3084 3261 2657 
Q 3669 2231 3669 1497 
Q 3669 778 3244 343 
Q 2819 -91 2113 -91 
Q 1303 -91 875 529 
Q 447 1150 447 2328 
Q 447 3434 972 4092 
Q 1497 4750 2381 4750 
Q 2619 4750 2861 4703 
Q 3103 4656 3366 4563 
z
" id="DejaVuSans-36" transform="scale(0.015625)"/>
       </defs>
       <use xlink:href="#DejaVuSans-36"/>
       <use x="63.623047" xlink:href="#DejaVuSans-30"/>
       <use x="127.246094" xlink:href="#DejaVuSans-30"/>
       <use x="190.869141" xlink:href="#DejaVuSans-30"/>
       <use x="254.492188" xlink:href="#DejaVuSans-30"/>
      </g>
     </g>
    </g>
    <g id="ytick_8">
     <g id="line2d_17">
      <g>
       <use style="stroke:#000000;stroke-width:0.8;" x="57.6" xlink:href="#m9988b99ddf" y="62.785003"/>
      </g>
     </g>
     <g id="text_18">
      <!-- 70000 -->
      <g transform="translate(18.7875 66.584222)scale(0.1 -0.1)">
       <defs>
        <path d="M 525 4666 
L 3525 4666 
L 3525 4397 
L 1831 0 
L 1172 0 
L 2766 4134 
L 525 4134 
L 525 4666 
z
" id="DejaVuSans-37" transform="scale(0.015625)"/>
       </defs>
       <use xlink:href="#DejaVuSans-37"/>
       <use x="63.623047" xlink:href="#DejaVuSans-30"/>
       <use x="127.246094" xlink:href="#DejaVuSans-30"/>
       <use x="190.869141" xlink:href="#DejaVuSans-30"/>
       <use x="254.492188" xlink:href="#DejaVuSans-30"/>
      </g>
     </g>
    </g>
    <g id="text_19">
     <!-- Loss -->
     <g transform="translate(11.667969 190.978781)rotate(-90)scale(0.15 -0.15)">
      <defs>
       <path d="M 628 4666 
L 1259 4666 
L 1259 531 
L 3531 531 
L 3531 0 
L 628 0 
L 628 4666 
z
" id="DejaVuSans-4c" transform="scale(0.015625)"/>
       <path d="M 2834 3397 
L 2834 2853 
Q 2591 2978 2328 3040 
Q 2066 3103 1784 3103 
Q 1356 3103 1142 2972 
Q 928 2841 928 2578 
Q 928 2378 1081 2264 
Q 1234 2150 1697 2047 
L 1894 2003 
Q 2506 1872 2764 1633 
Q 3022 1394 3022 966 
Q 3022 478 2636 193 
Q 2250 -91 1575 -91 
Q 1294 -91 989 -36 
Q 684 19 347 128 
L 347 722 
Q 666 556 975 473 
Q 1284 391 1588 391 
Q 1994 391 2212 530 
Q 2431 669 2431 922 
Q 2431 1156 2273 1281 
Q 2116 1406 1581 1522 
L 1381 1569 
Q 847 1681 609 1914 
Q 372 2147 372 2553 
Q 372 3047 722 3315 
Q 1072 3584 1716 3584 
Q 2034 3584 2315 3537 
Q 2597 3491 2834 3397 
z
" id="DejaVuSans-73" transform="scale(0.015625)"/>
      </defs>
      <use xlink:href="#DejaVuSans-4c"/>
      <use x="53.962891" xlink:href="#DejaVuSans-6f"/>
      <use x="115.144531" xlink:href="#DejaVuSans-73"/>
      <use x="167.244141" xlink:href="#DejaVuSans-73"/>
     </g>
    </g>
   </g>
   <g id="line2d_18">
    <path clip-path="url(#pb79f907926)" d="M 73.832727 291.708055 
L 74.646398 292.569019 
L 76.273739 292.656367 
L 77.087409 293.114177 
L 77.90108 293.188046 
L 79.528421 293.683806 
L 80.342092 293.567976 
L 81.155762 294.242722 
L 81.969433 294.131837 
L 83.596774 294.355773 
L 84.410444 294.478263 
L 85.224115 294.326791 
L 86.851456 294.59798 
L 88.478797 294.749738 
L 89.292468 294.502885 
L 90.919809 294.64782 
L 91.733479 294.428656 
L 92.54715 294.607707 
L 93.36082 294.531138 
L 94.988161 294.601711 
L 95.801832 294.580263 
L 96.615502 294.72002 
L 97.429173 294.582006 
L 98.242843 294.724956 
L 99.056514 294.45704 
L 99.870185 294.710808 
L 101.497526 294.831415 
L 102.311196 294.767783 
L 103.124867 294.841118 
L 104.752208 294.663288 
L 106.379549 294.837809 
L 107.193219 294.631772 
L 108.00689 294.685909 
L 108.82056 294.938065 
L 109.634231 295.021203 
L 110.447902 294.989429 
L 111.261572 294.79602 
L 112.075243 295.040562 
L 114.516254 294.686334 
L 116.957266 295.052526 
L 117.770936 294.704021 
L 118.584607 294.971972 
L 119.398278 294.596793 
L 120.211948 294.856038 
L 121.025619 294.761799 
L 121.839289 294.967474 
L 122.65296 294.653978 
L 123.46663 294.809232 
L 124.280301 295.106322 
L 125.093971 294.879272 
L 125.907642 294.821828 
L 126.721312 294.906636 
L 127.534983 294.761702 
L 128.348653 295.141913 
L 129.162324 295.10959 
L 129.975995 294.95767 
L 130.789665 295.130432 
L 131.603336 294.783793 
L 132.417006 294.735987 
L 133.230677 294.989486 
L 134.044347 294.751547 
L 136.485359 295.029517 
L 137.299029 294.757466 
L 138.1127 295.17121 
L 138.92637 294.872633 
L 139.740041 295.01015 
L 140.553712 294.856427 
L 142.181053 294.961774 
L 142.994723 294.656555 
L 144.622064 295.006197 
L 145.435735 295.114591 
L 146.249405 294.832857 
L 147.063076 294.944085 
L 147.876746 294.852227 
L 149.504087 295.043331 
L 150.317758 294.812241 
L 151.131429 295.048514 
L 151.945099 294.969992 
L 152.75877 295.058732 
L 153.57244 294.816725 
L 154.386111 295.02297 
L 155.199781 295.107155 
L 158.454463 294.920315 
L 159.268134 295.170073 
L 160.895475 294.851651 
L 161.709146 295.014654 
L 163.336487 294.977877 
L 164.963828 294.943735 
L 165.777498 295.182492 
L 167.404839 294.929124 
L 172.286863 295.031091 
L 173.914204 294.934447 
L 174.727874 295.032277 
L 175.541545 294.914984 
L 176.355215 295.226729 
L 177.168886 294.933785 
L 178.796227 295.120651 
L 179.609897 294.961128 
L 180.423568 295.258705 
L 181.237239 294.881517 
L 182.050909 295.15233 
L 183.67825 295.215426 
L 184.491921 294.932545 
L 186.119262 295.105387 
L 186.932932 294.862114 
L 187.746603 295.28804 
L 189.373944 295.038666 
L 191.814956 295.085017 
L 192.628626 294.90126 
L 193.442297 295.0368 
L 194.255967 295.040094 
L 195.069638 294.920453 
L 195.883308 295.196138 
L 196.696979 295.330231 
L 197.510649 295.162769 
L 198.32432 295.157667 
L 199.13799 294.960479 
L 199.951661 295.180862 
L 201.579002 295.005418 
L 202.392673 295.184743 
L 203.206343 294.950231 
L 204.020014 295.127667 
L 204.833684 295.007687 
L 205.647355 295.071472 
L 206.461025 294.91137 
L 207.274696 295.032427 
L 208.088366 294.973641 
L 210.529378 295.186719 
L 211.343049 295.026505 
L 213.78406 295.077822 
L 214.597731 295.238446 
L 215.411401 295.017748 
L 217.038742 295.016976 
L 219.479754 294.962802 
L 220.293424 295.116132 
L 221.107095 294.875789 
L 221.920766 295.2436 
L 222.734436 294.982921 
L 225.175448 295.093195 
L 225.989118 294.801464 
L 226.802789 294.990608 
L 228.43013 295.043785 
L 229.2438 295.017836 
L 230.057471 295.215874 
L 233.312153 295.121258 
L 234.125824 294.875449 
L 234.939494 295.351456 
L 235.753165 295.124964 
L 236.566835 295.036675 
L 238.194176 295.182188 
L 239.007847 295.180675 
L 239.821517 295.319342 
L 240.635188 295.077266 
L 241.448859 295.237311 
L 242.262529 295.093447 
L 243.88987 295.309335 
L 244.703541 295.066331 
L 245.517211 294.983652 
L 246.330882 295.1969 
L 247.144552 295.087354 
L 247.958223 295.332682 
L 248.771893 295.095837 
L 254.467587 295.088472 
L 258.53594 295.297673 
L 259.34961 295.176684 
L 260.976951 295.251789 
L 262.604293 295.008505 
L 264.231634 295.081104 
L 265.045304 295.004893 
L 265.858975 295.171453 
L 266.672645 295.036306 
L 267.486316 295.255253 
L 268.299986 295.078673 
L 270.740998 295.267468 
L 271.554668 295.016579 
L 272.368339 295.317501 
L 273.18201 295.13626 
L 273.99568 294.817053 
L 275.623021 295.307527 
L 276.436692 294.966229 
L 277.250362 295.207171 
L 278.064033 295.092827 
L 278.877703 295.10452 
L 279.691374 294.906661 
L 280.505044 295.166303 
L 281.318715 295.171543 
L 282.132386 295.385346 
L 282.946056 295.204164 
L 283.759727 295.298391 
L 285.387068 295.123976 
L 286.200738 295.312644 
L 287.014409 295.328149 
L 287.828079 294.995066 
L 288.64175 295.127298 
L 289.45542 294.926642 
L 290.269091 295.082066 
L 291.082761 295.462834 
L 291.896432 295.128475 
L 292.710103 295.351713 
L 295.151114 295.16464 
L 300.033137 295.088847 
L 300.846808 294.846818 
L 301.660478 294.960519 
L 302.474149 294.898014 
L 303.28782 295.157128 
L 305.728831 295.160051 
L 307.356172 295.309989 
L 308.983513 295.207283 
L 310.610854 295.28268 
L 311.424525 295.34049 
L 313.865537 295.003496 
L 315.492878 295.184598 
L 317.120219 294.956479 
L 317.933889 295.357845 
L 319.56123 294.993006 
L 320.374901 295.236465 
L 321.188571 295.281066 
L 322.002242 295.002447 
L 322.815913 294.975172 
L 323.629583 295.200797 
L 324.443254 294.910543 
L 325.256924 295.134849 
L 326.070595 295.093921 
L 326.884265 295.276037 
L 330.138947 295.086259 
L 330.952618 295.383988 
L 331.766288 295.207124 
L 335.020971 295.245365 
L 335.834641 294.909364 
L 336.648312 295.272117 
L 337.461982 294.959631 
L 338.275653 295.386086 
L 339.902994 294.908183 
L 340.716664 295.488 
L 341.530335 295.214631 
L 346.412358 295.226264 
L 347.226029 295.014225 
L 348.039699 294.982151 
L 348.85337 295.308796 
L 349.66704 295.08524 
L 350.480711 295.19549 
L 352.108052 295.189011 
L 355.362734 295.086464 
L 356.176405 295.392658 
L 356.990075 295.339405 
L 357.803746 295.157992 
L 359.431087 295.312798 
L 360.244757 295.136723 
L 361.058428 295.170212 
L 361.872098 295.317612 
L 363.49944 295.011962 
L 364.31311 295.364893 
L 365.940451 295.207305 
L 366.754122 295.278676 
L 367.567792 295.148423 
L 368.381463 295.289277 
L 369.195133 295.175187 
L 370.822474 295.134032 
L 371.636145 295.028997 
L 375.704498 295.251803 
L 376.518168 294.952227 
L 378.145509 295.098312 
L 378.95918 295.108391 
L 379.77285 295.267745 
L 380.586521 295.134152 
L 381.400191 295.167136 
L 382.213862 295.361292 
L 383.027532 295.181972 
L 383.841203 295.413407 
L 385.468544 295.238866 
L 387.095885 295.213915 
L 387.909556 295.099081 
L 389.536897 295.240122 
L 395.232591 295.187253 
L 396.046261 295.067551 
L 396.859932 295.3168 
L 397.673602 295.032818 
L 398.487273 295.106013 
L 398.487273 295.106013 
" style="fill:none;stroke:#1f77b4;stroke-linecap:square;stroke-width:1.5;"/>
   </g>
   <g id="line2d_19">
    <path clip-path="url(#pb79f907926)" d="M 73.832727 292.150213 
L 74.646398 292.206357 
L 75.460068 290.014713 
L 76.273739 290.647511 
L 77.087409 281.790365 
L 77.90108 282.578763 
L 78.714751 258.741177 
L 79.528421 267.048255 
L 80.342092 262.46627 
L 81.155762 262.729234 
L 81.969433 265.237305 
L 82.783103 259.994509 
L 83.596774 255.902681 
L 84.410444 241.619414 
L 85.224115 248.326532 
L 86.037785 238.949476 
L 86.851456 241.37313 
L 87.665126 241.04214 
L 88.478797 235.980557 
L 89.292468 250.982282 
L 90.106138 237.046849 
L 90.919809 247.865252 
L 91.733479 227.068104 
L 92.54715 217.16721 
L 93.36082 202.536966 
L 94.174491 220.187923 
L 94.988161 229.422189 
L 95.801832 225.153936 
L 96.615502 221.483902 
L 97.429173 218.535016 
L 98.242843 218.911041 
L 99.056514 204.328236 
L 99.870185 199.355032 
L 100.683855 204.870538 
L 101.497526 217.567106 
L 102.311196 209.270537 
L 103.124867 216.384153 
L 103.938537 221.570463 
L 104.752208 209.015828 
L 105.565878 186.44132 
L 107.193219 219.283754 
L 108.00689 184.876214 
L 108.82056 175.908839 
L 109.634231 194.028227 
L 110.447902 203.088572 
L 112.075243 188.494808 
L 112.888913 184.945679 
L 113.702584 166.433987 
L 114.516254 198.798665 
L 115.329925 194.684111 
L 116.143595 176.637172 
L 116.957266 198.662234 
L 117.770936 200.991951 
L 118.584607 179.64816 
L 119.398278 192.18518 
L 120.211948 177.026655 
L 121.025619 177.500524 
L 121.839289 153.522611 
L 122.65296 173.651281 
L 123.46663 166.252771 
L 124.280301 178.256838 
L 125.093971 172.683173 
L 125.907642 194.759497 
L 126.721312 174.761853 
L 127.534983 168.418115 
L 128.348653 168.379722 
L 129.162324 146.691334 
L 129.975995 166.813875 
L 130.789665 162.952013 
L 131.603336 183.942756 
L 132.417006 166.404081 
L 133.230677 164.532696 
L 134.044347 179.439229 
L 134.858018 142.878648 
L 135.671688 244.165787 
L 136.485359 162.181131 
L 137.299029 171.394359 
L 138.1127 166.352432 
L 138.92637 149.577725 
L 139.740041 165.239663 
L 140.553712 143.498495 
L 141.367382 145.811647 
L 142.181053 193.592076 
L 142.994723 194.061805 
L 144.622064 171.161868 
L 145.435735 176.982651 
L 146.249405 163.317879 
L 147.063076 188.901767 
L 147.876746 158.847036 
L 148.690417 160.76926 
L 149.504087 157.293068 
L 150.317758 151.047508 
L 151.131429 137.731091 
L 151.945099 155.762615 
L 152.75877 163.935776 
L 153.57244 159.565952 
L 154.386111 167.462431 
L 155.199781 144.882902 
L 156.013452 160.116392 
L 156.827122 188.051213 
L 157.640793 138.657456 
L 158.454463 142.079762 
L 159.268134 138.500417 
L 160.081805 134.062305 
L 160.895475 181.628105 
L 161.709146 157.758917 
L 162.522816 149.165551 
L 163.336487 153.439747 
L 164.963828 118.373582 
L 165.777498 140.744249 
L 166.591169 126.109199 
L 167.404839 159.597633 
L 168.21851 148.245818 
L 169.03218 148.291815 
L 169.845851 105.92469 
L 170.659522 196.421138 
L 171.473192 135.389941 
L 172.286863 124.01902 
L 173.100533 142.748917 
L 173.914204 130.414645 
L 174.727874 143.707739 
L 175.541545 139.723733 
L 176.355215 113.592917 
L 177.168886 138.750997 
L 177.982556 122.33473 
L 178.796227 118.021995 
L 179.609897 116.871769 
L 180.423568 114.035285 
L 181.237239 128.496111 
L 182.050909 131.003445 
L 182.86458 140.249791 
L 183.67825 121.01598 
L 184.491921 119.91144 
L 185.305591 145.707337 
L 186.119262 127.605286 
L 186.932932 136.811664 
L 187.746603 118.748861 
L 188.560273 126.339678 
L 189.373944 152.790482 
L 190.187614 121.687742 
L 191.001285 103.980681 
L 191.814956 124.660329 
L 192.628626 117.893373 
L 193.442297 109.6721 
L 194.255967 135.555804 
L 195.069638 150.215803 
L 195.883308 130.70999 
L 196.696979 140.416822 
L 197.510649 154.598348 
L 198.32432 171.572746 
L 199.13799 136.71816 
L 199.951661 132.692457 
L 200.765332 116.749106 
L 201.579002 110.219508 
L 202.392673 116.373967 
L 203.206343 138.368561 
L 204.020014 116.238111 
L 204.833684 132.017159 
L 205.647355 122.526598 
L 206.461025 111.063446 
L 207.274696 107.82034 
L 208.088366 121.919336 
L 208.902037 120.954411 
L 210.529378 108.600864 
L 211.343049 114.871042 
L 212.156719 167.259495 
L 212.97039 121.158336 
L 213.78406 122.464841 
L 214.597731 119.956491 
L 215.411401 138.537375 
L 216.225072 137.319174 
L 217.038742 111.52348 
L 217.852413 103.452341 
L 218.666083 108.308899 
L 219.479754 96.535611 
L 220.293424 130.929128 
L 221.107095 99.67192 
L 221.920766 108.989534 
L 222.734436 104.713409 
L 223.548107 137.705231 
L 224.361777 116.965577 
L 225.989118 102.977634 
L 226.802789 115.683824 
L 227.616459 92.929504 
L 228.43013 95.193857 
L 229.2438 128.045595 
L 230.057471 108.942215 
L 230.871141 122.839743 
L 231.684812 110.218133 
L 232.498483 113.67046 
L 233.312153 139.68657 
L 234.125824 118.572431 
L 234.939494 103.385936 
L 235.753165 118.335085 
L 236.566835 115.385 
L 237.380506 97.264403 
L 238.194176 119.920333 
L 239.007847 116.444964 
L 239.821517 128.315848 
L 240.635188 113.431996 
L 241.448859 138.106184 
L 242.262529 128.18611 
L 243.0762 113.132155 
L 243.88987 104.968949 
L 244.703541 99.34963 
L 245.517211 178.06931 
L 246.330882 153.581453 
L 247.144552 95.522819 
L 247.958223 107.423025 
L 248.771893 102.904386 
L 249.585564 132.705554 
L 250.399234 111.310205 
L 251.212905 116.210876 
L 252.026576 109.226197 
L 252.840246 115.597796 
L 253.653917 107.012595 
L 254.467587 87.579668 
L 255.281258 101.966709 
L 256.094928 93.442328 
L 256.908599 127.081526 
L 257.722269 154.194025 
L 258.53594 100.999814 
L 259.34961 95.5495 
L 260.163281 111.669826 
L 260.976951 191.138596 
L 261.790622 116.000512 
L 262.604293 133.534823 
L 263.417963 79.170445 
L 264.231634 130.580775 
L 265.045304 103.671419 
L 265.858975 128.918978 
L 266.672645 86.688515 
L 267.486316 100.103926 
L 268.299986 140.657417 
L 269.113657 84.597034 
L 269.927327 130.7429 
L 270.740998 84.596844 
L 271.554668 117.61522 
L 272.368339 77.64193 
L 273.18201 97.549323 
L 273.99568 83.297663 
L 274.809351 108.576278 
L 275.623021 115.006705 
L 276.436692 101.763777 
L 277.250362 121.774956 
L 278.064033 94.5951 
L 278.877703 95.248041 
L 279.691374 104.754683 
L 280.505044 109.416792 
L 281.318715 92.972736 
L 282.132386 92.358328 
L 282.946056 115.252553 
L 283.759727 119.181695 
L 284.573397 139.971078 
L 285.387068 95.469789 
L 286.200738 104.371146 
L 287.014409 80.046282 
L 287.828079 97.693241 
L 288.64175 105.44017 
L 289.45542 96.390544 
L 290.269091 94.803944 
L 291.082761 129.372353 
L 291.896432 56.978675 
L 292.710103 104.029797 
L 293.523773 115.375848 
L 294.337444 95.987913 
L 295.151114 98.019506 
L 295.964785 106.061621 
L 296.778455 96.561997 
L 297.592126 64.79274 
L 298.405796 56.959146 
L 299.219467 118.552425 
L 300.033137 85.005745 
L 300.846808 130.656897 
L 301.660478 79.711002 
L 302.474149 80.873758 
L 303.28782 121.563069 
L 304.10149 99.478614 
L 304.915161 98.714451 
L 305.728831 99.404609 
L 306.542502 123.646407 
L 307.356172 70.332594 
L 308.169843 100.309589 
L 308.983513 112.502821 
L 309.797184 103.527586 
L 310.610854 137.911768 
L 311.424525 113.140343 
L 312.238195 121.971467 
L 313.051866 78.347059 
L 313.865537 104.973257 
L 314.679207 91.601449 
L 315.492878 94.096308 
L 316.306548 97.669605 
L 317.120219 139.317593 
L 317.933889 94.628451 
L 318.74756 98.362843 
L 319.56123 79.77681 
L 320.374901 114.465318 
L 321.188571 92.482369 
L 322.002242 79.756733 
L 322.815913 88.526794 
L 323.629583 112.52077 
L 324.443254 109.901396 
L 325.256924 111.158134 
L 326.070595 83.686929 
L 326.884265 109.889604 
L 327.697936 76.210797 
L 328.511606 86.442744 
L 329.325277 128.113494 
L 330.138947 109.208347 
L 330.952618 81.589741 
L 331.766288 69.198348 
L 332.579959 107.778391 
L 333.39363 80.319427 
L 334.2073 97.860644 
L 335.020971 124.961015 
L 335.834641 130.721504 
L 336.648312 133.877219 
L 337.461982 107.363542 
L 338.275653 122.897806 
L 339.089323 98.675831 
L 339.902994 111.567024 
L 340.716664 73.519679 
L 341.530335 101.423337 
L 342.344005 112.463506 
L 343.157676 126.858338 
L 343.971347 97.450429 
L 344.785017 104.927207 
L 345.598688 120.603067 
L 346.412358 99.889798 
L 347.226029 87.898488 
L 348.039699 132.707031 
L 348.85337 98.723903 
L 349.66704 91.2855 
L 350.480711 89.508983 
L 351.294381 68.496914 
L 352.108052 89.557169 
L 352.921722 99.315191 
L 353.735393 104.278655 
L 354.549064 84.448056 
L 355.362734 90.851255 
L 356.176405 95.845515 
L 356.990075 131.240973 
L 357.803746 104.901992 
L 358.617416 91.983051 
L 359.431087 99.121199 
L 360.244757 114.424082 
L 361.058428 66.343762 
L 361.872098 142.280209 
L 362.685769 118.047236 
L 363.49944 90.117712 
L 364.31311 69.071524 
L 365.126781 132.81512 
L 365.940451 95.502573 
L 366.754122 103.379829 
L 367.567792 94.676762 
L 368.381463 53.568 
L 369.195133 98.510095 
L 370.008804 89.112383 
L 370.822474 75.693272 
L 371.636145 66.81002 
L 372.449815 77.320129 
L 373.263486 164.195391 
L 374.077157 109.107439 
L 374.890827 132.486121 
L 375.704498 106.375955 
L 376.518168 105.288778 
L 377.331839 87.750628 
L 378.145509 102.072093 
L 378.95918 107.013945 
L 379.77285 75.901639 
L 380.586521 69.892281 
L 381.400191 83.758614 
L 382.213862 73.339039 
L 383.027532 85.435364 
L 383.841203 72.88324 
L 385.468544 126.867332 
L 386.282215 76.944124 
L 387.095885 99.044659 
L 387.909556 84.989589 
L 388.723226 76.774881 
L 389.536897 62.11714 
L 390.350567 100.325354 
L 391.164238 64.513422 
L 391.977908 117.730645 
L 392.791579 100.188282 
L 393.605249 71.714226 
L 394.41892 87.671733 
L 395.232591 107.693086 
L 396.046261 90.68449 
L 396.859932 109.106116 
L 397.673602 69.706573 
L 398.487273 83.881817 
L 398.487273 83.881817 
" style="fill:none;stroke:#ff7f0e;stroke-linecap:square;stroke-width:1.5;"/>
   </g>
   <g id="patch_3">
    <path d="M 57.6 307.584 
L 57.6 41.472 
" style="fill:none;stroke:#000000;stroke-linecap:square;stroke-linejoin:miter;stroke-width:0.8;"/>
   </g>
   <g id="patch_4">
    <path d="M 414.72 307.584 
L 414.72 41.472 
" style="fill:none;stroke:#000000;stroke-linecap:square;stroke-linejoin:miter;stroke-width:0.8;"/>
   </g>
   <g id="patch_5">
    <path d="M 57.6 307.584 
L 414.72 307.584 
" style="fill:none;stroke:#000000;stroke-linecap:square;stroke-linejoin:miter;stroke-width:0.8;"/>
   </g>
   <g id="patch_6">
    <path d="M 57.6 41.472 
L 414.72 41.472 
" style="fill:none;stroke:#000000;stroke-linecap:square;stroke-linejoin:miter;stroke-width:0.8;"/>
   </g>
   <g id="legend_1">
    <g id="patch_7">
     <path d="M 64.6 78.82825 
L 168.475 78.82825 
Q 170.475 78.82825 170.475 76.82825 
L 170.475 48.472 
Q 170.475 46.472 168.475 46.472 
L 64.6 46.472 
Q 62.6 46.472 62.6 48.472 
L 62.6 76.82825 
Q 62.6 78.82825 64.6 78.82825 
z
" style="fill:#ffffff;opacity:0.8;stroke:#cccccc;stroke-linejoin:miter;"/>
    </g>
    <g id="line2d_20">
     <path d="M 66.6 54.570437 
L 86.6 54.570437 
" style="fill:none;stroke:#1f77b4;stroke-linecap:square;stroke-width:1.5;"/>
    </g>
    <g id="line2d_21"/>
    <g id="text_20">
     <!-- Train loss -->
     <g transform="translate(94.6 58.070437)scale(0.1 -0.1)">
      <defs>
       <path d="M -19 4666 
L 3928 4666 
L 3928 4134 
L 2272 4134 
L 2272 0 
L 1638 0 
L 1638 4134 
L -19 4134 
L -19 4666 
z
" id="DejaVuSans-54" transform="scale(0.015625)"/>
       <path d="M 2631 2963 
Q 2534 3019 2420 3045 
Q 2306 3072 2169 3072 
Q 1681 3072 1420 2755 
Q 1159 2438 1159 1844 
L 1159 0 
L 581 0 
L 581 3500 
L 1159 3500 
L 1159 2956 
Q 1341 3275 1631 3429 
Q 1922 3584 2338 3584 
Q 2397 3584 2469 3576 
Q 2541 3569 2628 3553 
L 2631 2963 
z
" id="DejaVuSans-72" transform="scale(0.015625)"/>
       <path d="M 2194 1759 
Q 1497 1759 1228 1600 
Q 959 1441 959 1056 
Q 959 750 1161 570 
Q 1363 391 1709 391 
Q 2188 391 2477 730 
Q 2766 1069 2766 1631 
L 2766 1759 
L 2194 1759 
z
M 3341 1997 
L 3341 0 
L 2766 0 
L 2766 531 
Q 2569 213 2275 61 
Q 1981 -91 1556 -91 
Q 1019 -91 701 211 
Q 384 513 384 1019 
Q 384 1609 779 1909 
Q 1175 2209 1959 2209 
L 2766 2209 
L 2766 2266 
Q 2766 2663 2505 2880 
Q 2244 3097 1772 3097 
Q 1472 3097 1187 3025 
Q 903 2953 641 2809 
L 641 3341 
Q 956 3463 1253 3523 
Q 1550 3584 1831 3584 
Q 2591 3584 2966 3190 
Q 3341 2797 3341 1997 
z
" id="DejaVuSans-61" transform="scale(0.015625)"/>
       <path d="M 603 3500 
L 1178 3500 
L 1178 0 
L 603 0 
L 603 3500 
z
M 603 4863 
L 1178 4863 
L 1178 4134 
L 603 4134 
L 603 4863 
z
" id="DejaVuSans-69" transform="scale(0.015625)"/>
       <path d="M 3513 2113 
L 3513 0 
L 2938 0 
L 2938 2094 
Q 2938 2591 2744 2837 
Q 2550 3084 2163 3084 
Q 1697 3084 1428 2787 
Q 1159 2491 1159 1978 
L 1159 0 
L 581 0 
L 581 3500 
L 1159 3500 
L 1159 2956 
Q 1366 3272 1645 3428 
Q 1925 3584 2291 3584 
Q 2894 3584 3203 3211 
Q 3513 2838 3513 2113 
z
" id="DejaVuSans-6e" transform="scale(0.015625)"/>
       <path id="DejaVuSans-20" transform="scale(0.015625)"/>
       <path d="M 603 4863 
L 1178 4863 
L 1178 0 
L 603 0 
L 603 4863 
z
" id="DejaVuSans-6c" transform="scale(0.015625)"/>
      </defs>
      <use xlink:href="#DejaVuSans-54"/>
      <use x="46.333984" xlink:href="#DejaVuSans-72"/>
      <use x="87.447266" xlink:href="#DejaVuSans-61"/>
      <use x="148.726562" xlink:href="#DejaVuSans-69"/>
      <use x="176.509766" xlink:href="#DejaVuSans-6e"/>
      <use x="239.888672" xlink:href="#DejaVuSans-20"/>
      <use x="271.675781" xlink:href="#DejaVuSans-6c"/>
      <use x="299.458984" xlink:href="#DejaVuSans-6f"/>
      <use x="360.640625" xlink:href="#DejaVuSans-73"/>
      <use x="412.740234" xlink:href="#DejaVuSans-73"/>
     </g>
    </g>
    <g id="line2d_22">
     <path d="M 66.6 69.248562 
L 86.6 69.248562 
" style="fill:none;stroke:#ff7f0e;stroke-linecap:square;stroke-width:1.5;"/>
    </g>
    <g id="line2d_23"/>
    <g id="text_21">
     <!-- Validation loss -->
     <g transform="translate(94.6 72.748562)scale(0.1 -0.1)">
      <defs>
       <path d="M 1831 0 
L 50 4666 
L 709 4666 
L 2188 738 
L 3669 4666 
L 4325 4666 
L 2547 0 
L 1831 0 
z
" id="DejaVuSans-56" transform="scale(0.015625)"/>
       <path d="M 2906 2969 
L 2906 4863 
L 3481 4863 
L 3481 0 
L 2906 0 
L 2906 525 
Q 2725 213 2448 61 
Q 2172 -91 1784 -91 
Q 1150 -91 751 415 
Q 353 922 353 1747 
Q 353 2572 751 3078 
Q 1150 3584 1784 3584 
Q 2172 3584 2448 3432 
Q 2725 3281 2906 2969 
z
M 947 1747 
Q 947 1113 1208 752 
Q 1469 391 1925 391 
Q 2381 391 2643 752 
Q 2906 1113 2906 1747 
Q 2906 2381 2643 2742 
Q 2381 3103 1925 3103 
Q 1469 3103 1208 2742 
Q 947 2381 947 1747 
z
" id="DejaVuSans-64" transform="scale(0.015625)"/>
       <path d="M 1172 4494 
L 1172 3500 
L 2356 3500 
L 2356 3053 
L 1172 3053 
L 1172 1153 
Q 1172 725 1289 603 
Q 1406 481 1766 481 
L 2356 481 
L 2356 0 
L 1766 0 
Q 1100 0 847 248 
Q 594 497 594 1153 
L 594 3053 
L 172 3053 
L 172 3500 
L 594 3500 
L 594 4494 
L 1172 4494 
z
" id="DejaVuSans-74" transform="scale(0.015625)"/>
      </defs>
      <use xlink:href="#DejaVuSans-56"/>
      <use x="60.658203" xlink:href="#DejaVuSans-61"/>
      <use x="121.9375" xlink:href="#DejaVuSans-6c"/>
      <use x="149.720703" xlink:href="#DejaVuSans-69"/>
      <use x="177.503906" xlink:href="#DejaVuSans-64"/>
      <use x="240.980469" xlink:href="#DejaVuSans-61"/>
      <use x="302.259766" xlink:href="#DejaVuSans-74"/>
      <use x="341.46875" xlink:href="#DejaVuSans-69"/>
      <use x="369.251953" xlink:href="#DejaVuSans-6f"/>
      <use x="430.433594" xlink:href="#DejaVuSans-6e"/>
      <use x="493.8125" xlink:href="#DejaVuSans-20"/>
      <use x="525.599609" xlink:href="#DejaVuSans-6c"/>
      <use x="553.382812" xlink:href="#DejaVuSans-6f"/>
      <use x="614.564453" xlink:href="#DejaVuSans-73"/>
      <use x="666.664062" xlink:href="#DejaVuSans-73"/>
     </g>
    </g>
   </g>
  </g>
 </g>
 <defs>
  <clipPath id="pb79f907926">
   <rect height="266.112" width="357.12" x="57.6" y="41.472"/>
  </clipPath>
 </defs>
</svg>
