<?xml version="1.0" encoding="utf-8" standalone="no"?>
<!DOCTYPE svg PUBLIC "-//W3C//DTD SVG 1.1//EN"
  "http://www.w3.org/Graphics/SVG/1.1/DTD/svg11.dtd">
<svg height="345.6pt" version="1.1" viewBox="0 0 460.8 345.6" width="460.8pt" xmlns="http://www.w3.org/2000/svg" xmlns:xlink="http://www.w3.org/1999/xlink">
 <metadata>
  <rdf:RDF xmlns:cc="http://creativecommons.org/ns#" xmlns:dc="http://purl.org/dc/elements/1.1/" xmlns:rdf="http://www.w3.org/1999/02/22-rdf-syntax-ns#">
   <cc:Work>
    <dc:type rdf:resource="http://purl.org/dc/dcmitype/StillImage"/>
    <dc:date>2021-07-17T02:52:35.829270</dc:date>
    <dc:format>image/svg+xml</dc:format>
    <dc:creator>
     <cc:Agent>
      <dc:title>Matplotlib v3.4.2, https://matplotlib.org/</dc:title>
     </cc:Agent>
    </dc:creator>
   </cc:Work>
  </rdf:RDF>
 </metadata>
 <defs>
  <style type="text/css">*{stroke-linecap:butt;stroke-linejoin:round;}</style>
 </defs>
 <g id="figure_1">
  <g id="patch_1">
   <path d="M 0 345.6 
L 460.8 345.6 
L 460.8 0 
L 0 0 
z
" style="fill:#ffffff;"/>
  </g>
  <g id="axes_1">
   <g id="patch_2">
    <path d="M 57.6 307.584 
L 414.72 307.584 
L 414.72 41.472 
L 57.6 41.472 
z
" style="fill:#ffffff;"/>
   </g>
   <g id="matplotlib.axis_1">
    <g id="xtick_1">
     <g id="line2d_1">
      <defs>
       <path d="M 0 0 
L 0 3.5 
" id="m9247a7e417" style="stroke:#000000;stroke-width:0.8;"/>
      </defs>
      <g>
       <use style="stroke:#000000;stroke-width:0.8;" x="73.019057" xlink:href="#m9247a7e417" y="307.584"/>
      </g>
     </g>
     <g id="text_1">
      <!-- 0 -->
      <g transform="translate(69.837807 322.182437)scale(0.1 -0.1)">
       <defs>
        <path d="M 2034 4250 
Q 1547 4250 1301 3770 
Q 1056 3291 1056 2328 
Q 1056 1369 1301 889 
Q 1547 409 2034 409 
Q 2525 409 2770 889 
Q 3016 1369 3016 2328 
Q 3016 3291 2770 3770 
Q 2525 4250 2034 4250 
z
M 2034 4750 
Q 2819 4750 3233 4129 
Q 3647 3509 3647 2328 
Q 3647 1150 3233 529 
Q 2819 -91 2034 -91 
Q 1250 -91 836 529 
Q 422 1150 422 2328 
Q 422 3509 836 4129 
Q 1250 4750 2034 4750 
z
" id="DejaVuSans-30" transform="scale(0.015625)"/>
       </defs>
       <use xlink:href="#DejaVuSans-30"/>
      </g>
     </g>
    </g>
    <g id="xtick_2">
     <g id="line2d_2">
      <g>
       <use style="stroke:#000000;stroke-width:0.8;" x="113.702584" xlink:href="#m9247a7e417" y="307.584"/>
      </g>
     </g>
     <g id="text_2">
      <!-- 50 -->
      <g transform="translate(107.340084 322.182437)scale(0.1 -0.1)">
       <defs>
        <path d="M 691 4666 
L 3169 4666 
L 3169 4134 
L 1269 4134 
L 1269 2991 
Q 1406 3038 1543 3061 
Q 1681 3084 1819 3084 
Q 2600 3084 3056 2656 
Q 3513 2228 3513 1497 
Q 3513 744 3044 326 
Q 2575 -91 1722 -91 
Q 1428 -91 1123 -41 
Q 819 9 494 109 
L 494 744 
Q 775 591 1075 516 
Q 1375 441 1709 441 
Q 2250 441 2565 725 
Q 2881 1009 2881 1497 
Q 2881 1984 2565 2268 
Q 2250 2553 1709 2553 
Q 1456 2553 1204 2497 
Q 953 2441 691 2322 
L 691 4666 
z
" id="DejaVuSans-35" transform="scale(0.015625)"/>
       </defs>
       <use xlink:href="#DejaVuSans-35"/>
       <use x="63.623047" xlink:href="#DejaVuSans-30"/>
      </g>
     </g>
    </g>
    <g id="xtick_3">
     <g id="line2d_3">
      <g>
       <use style="stroke:#000000;stroke-width:0.8;" x="154.386111" xlink:href="#m9247a7e417" y="307.584"/>
      </g>
     </g>
     <g id="text_3">
      <!-- 100 -->
      <g transform="translate(144.842361 322.182437)scale(0.1 -0.1)">
       <defs>
        <path d="M 794 531 
L 1825 531 
L 1825 4091 
L 703 3866 
L 703 4441 
L 1819 4666 
L 2450 4666 
L 2450 531 
L 3481 531 
L 3481 0 
L 794 0 
L 794 531 
z
" id="DejaVuSans-31" transform="scale(0.015625)"/>
       </defs>
       <use xlink:href="#DejaVuSans-31"/>
       <use x="63.623047" xlink:href="#DejaVuSans-30"/>
       <use x="127.246094" xlink:href="#DejaVuSans-30"/>
      </g>
     </g>
    </g>
    <g id="xtick_4">
     <g id="line2d_4">
      <g>
       <use style="stroke:#000000;stroke-width:0.8;" x="195.069638" xlink:href="#m9247a7e417" y="307.584"/>
      </g>
     </g>
     <g id="text_4">
      <!-- 150 -->
      <g transform="translate(185.525888 322.182437)scale(0.1 -0.1)">
       <use xlink:href="#DejaVuSans-31"/>
       <use x="63.623047" xlink:href="#DejaVuSans-35"/>
       <use x="127.246094" xlink:href="#DejaVuSans-30"/>
      </g>
     </g>
    </g>
    <g id="xtick_5">
     <g id="line2d_5">
      <g>
       <use style="stroke:#000000;stroke-width:0.8;" x="235.753165" xlink:href="#m9247a7e417" y="307.584"/>
      </g>
     </g>
     <g id="text_5">
      <!-- 200 -->
      <g transform="translate(226.209415 322.182437)scale(0.1 -0.1)">
       <defs>
        <path d="M 1228 531 
L 3431 531 
L 3431 0 
L 469 0 
L 469 531 
Q 828 903 1448 1529 
Q 2069 2156 2228 2338 
Q 2531 2678 2651 2914 
Q 2772 3150 2772 3378 
Q 2772 3750 2511 3984 
Q 2250 4219 1831 4219 
Q 1534 4219 1204 4116 
Q 875 4013 500 3803 
L 500 4441 
Q 881 4594 1212 4672 
Q 1544 4750 1819 4750 
Q 2544 4750 2975 4387 
Q 3406 4025 3406 3419 
Q 3406 3131 3298 2873 
Q 3191 2616 2906 2266 
Q 2828 2175 2409 1742 
Q 1991 1309 1228 531 
z
" id="DejaVuSans-32" transform="scale(0.015625)"/>
       </defs>
       <use xlink:href="#DejaVuSans-32"/>
       <use x="63.623047" xlink:href="#DejaVuSans-30"/>
       <use x="127.246094" xlink:href="#DejaVuSans-30"/>
      </g>
     </g>
    </g>
    <g id="xtick_6">
     <g id="line2d_6">
      <g>
       <use style="stroke:#000000;stroke-width:0.8;" x="276.436692" xlink:href="#m9247a7e417" y="307.584"/>
      </g>
     </g>
     <g id="text_6">
      <!-- 250 -->
      <g transform="translate(266.892942 322.182437)scale(0.1 -0.1)">
       <use xlink:href="#DejaVuSans-32"/>
       <use x="63.623047" xlink:href="#DejaVuSans-35"/>
       <use x="127.246094" xlink:href="#DejaVuSans-30"/>
      </g>
     </g>
    </g>
    <g id="xtick_7">
     <g id="line2d_7">
      <g>
       <use style="stroke:#000000;stroke-width:0.8;" x="317.120219" xlink:href="#m9247a7e417" y="307.584"/>
      </g>
     </g>
     <g id="text_7">
      <!-- 300 -->
      <g transform="translate(307.576469 322.182437)scale(0.1 -0.1)">
       <defs>
        <path d="M 2597 2516 
Q 3050 2419 3304 2112 
Q 3559 1806 3559 1356 
Q 3559 666 3084 287 
Q 2609 -91 1734 -91 
Q 1441 -91 1130 -33 
Q 819 25 488 141 
L 488 750 
Q 750 597 1062 519 
Q 1375 441 1716 441 
Q 2309 441 2620 675 
Q 2931 909 2931 1356 
Q 2931 1769 2642 2001 
Q 2353 2234 1838 2234 
L 1294 2234 
L 1294 2753 
L 1863 2753 
Q 2328 2753 2575 2939 
Q 2822 3125 2822 3475 
Q 2822 3834 2567 4026 
Q 2313 4219 1838 4219 
Q 1578 4219 1281 4162 
Q 984 4106 628 3988 
L 628 4550 
Q 988 4650 1302 4700 
Q 1616 4750 1894 4750 
Q 2613 4750 3031 4423 
Q 3450 4097 3450 3541 
Q 3450 3153 3228 2886 
Q 3006 2619 2597 2516 
z
" id="DejaVuSans-33" transform="scale(0.015625)"/>
       </defs>
       <use xlink:href="#DejaVuSans-33"/>
       <use x="63.623047" xlink:href="#DejaVuSans-30"/>
       <use x="127.246094" xlink:href="#DejaVuSans-30"/>
      </g>
     </g>
    </g>
    <g id="xtick_8">
     <g id="line2d_8">
      <g>
       <use style="stroke:#000000;stroke-width:0.8;" x="357.803746" xlink:href="#m9247a7e417" y="307.584"/>
      </g>
     </g>
     <g id="text_8">
      <!-- 350 -->
      <g transform="translate(348.259996 322.182437)scale(0.1 -0.1)">
       <use xlink:href="#DejaVuSans-33"/>
       <use x="63.623047" xlink:href="#DejaVuSans-35"/>
       <use x="127.246094" xlink:href="#DejaVuSans-30"/>
      </g>
     </g>
    </g>
    <g id="xtick_9">
     <g id="line2d_9">
      <g>
       <use style="stroke:#000000;stroke-width:0.8;" x="398.487273" xlink:href="#m9247a7e417" y="307.584"/>
      </g>
     </g>
     <g id="text_9">
      <!-- 400 -->
      <g transform="translate(388.943523 322.182437)scale(0.1 -0.1)">
       <defs>
        <path d="M 2419 4116 
L 825 1625 
L 2419 1625 
L 2419 4116 
z
M 2253 4666 
L 3047 4666 
L 3047 1625 
L 3713 1625 
L 3713 1100 
L 3047 1100 
L 3047 0 
L 2419 0 
L 2419 1100 
L 313 1100 
L 313 1709 
L 2253 4666 
z
" id="DejaVuSans-34" transform="scale(0.015625)"/>
       </defs>
       <use xlink:href="#DejaVuSans-34"/>
       <use x="63.623047" xlink:href="#DejaVuSans-30"/>
       <use x="127.246094" xlink:href="#DejaVuSans-30"/>
      </g>
     </g>
    </g>
    <g id="text_10">
     <!-- Epoch -->
     <g transform="translate(213.193594 339.659781)scale(0.15 -0.15)">
      <defs>
       <path d="M 628 4666 
L 3578 4666 
L 3578 4134 
L 1259 4134 
L 1259 2753 
L 3481 2753 
L 3481 2222 
L 1259 2222 
L 1259 531 
L 3634 531 
L 3634 0 
L 628 0 
L 628 4666 
z
" id="DejaVuSans-45" transform="scale(0.015625)"/>
       <path d="M 1159 525 
L 1159 -1331 
L 581 -1331 
L 581 3500 
L 1159 3500 
L 1159 2969 
Q 1341 3281 1617 3432 
Q 1894 3584 2278 3584 
Q 2916 3584 3314 3078 
Q 3713 2572 3713 1747 
Q 3713 922 3314 415 
Q 2916 -91 2278 -91 
Q 1894 -91 1617 61 
Q 1341 213 1159 525 
z
M 3116 1747 
Q 3116 2381 2855 2742 
Q 2594 3103 2138 3103 
Q 1681 3103 1420 2742 
Q 1159 2381 1159 1747 
Q 1159 1113 1420 752 
Q 1681 391 2138 391 
Q 2594 391 2855 752 
Q 3116 1113 3116 1747 
z
" id="DejaVuSans-70" transform="scale(0.015625)"/>
       <path d="M 1959 3097 
Q 1497 3097 1228 2736 
Q 959 2375 959 1747 
Q 959 1119 1226 758 
Q 1494 397 1959 397 
Q 2419 397 2687 759 
Q 2956 1122 2956 1747 
Q 2956 2369 2687 2733 
Q 2419 3097 1959 3097 
z
M 1959 3584 
Q 2709 3584 3137 3096 
Q 3566 2609 3566 1747 
Q 3566 888 3137 398 
Q 2709 -91 1959 -91 
Q 1206 -91 779 398 
Q 353 888 353 1747 
Q 353 2609 779 3096 
Q 1206 3584 1959 3584 
z
" id="DejaVuSans-6f" transform="scale(0.015625)"/>
       <path d="M 3122 3366 
L 3122 2828 
Q 2878 2963 2633 3030 
Q 2388 3097 2138 3097 
Q 1578 3097 1268 2742 
Q 959 2388 959 1747 
Q 959 1106 1268 751 
Q 1578 397 2138 397 
Q 2388 397 2633 464 
Q 2878 531 3122 666 
L 3122 134 
Q 2881 22 2623 -34 
Q 2366 -91 2075 -91 
Q 1284 -91 818 406 
Q 353 903 353 1747 
Q 353 2603 823 3093 
Q 1294 3584 2113 3584 
Q 2378 3584 2631 3529 
Q 2884 3475 3122 3366 
z
" id="DejaVuSans-63" transform="scale(0.015625)"/>
       <path d="M 3513 2113 
L 3513 0 
L 2938 0 
L 2938 2094 
Q 2938 2591 2744 2837 
Q 2550 3084 2163 3084 
Q 1697 3084 1428 2787 
Q 1159 2491 1159 1978 
L 1159 0 
L 581 0 
L 581 4863 
L 1159 4863 
L 1159 2956 
Q 1366 3272 1645 3428 
Q 1925 3584 2291 3584 
Q 2894 3584 3203 3211 
Q 3513 2838 3513 2113 
z
" id="DejaVuSans-68" transform="scale(0.015625)"/>
      </defs>
      <use xlink:href="#DejaVuSans-45"/>
      <use x="63.183594" xlink:href="#DejaVuSans-70"/>
      <use x="126.660156" xlink:href="#DejaVuSans-6f"/>
      <use x="187.841797" xlink:href="#DejaVuSans-63"/>
      <use x="242.822266" xlink:href="#DejaVuSans-68"/>
     </g>
    </g>
   </g>
   <g id="matplotlib.axis_2">
    <g id="ytick_1">
     <g id="line2d_10">
      <defs>
       <path d="M 0 0 
L -3.5 0 
" id="m201947a19d" style="stroke:#000000;stroke-width:0.8;"/>
      </defs>
      <g>
       <use style="stroke:#000000;stroke-width:0.8;" x="57.6" xlink:href="#m201947a19d" y="307.402717"/>
      </g>
     </g>
     <g id="text_11">
      <!-- −1200 -->
      <g transform="translate(16.770313 311.201936)scale(0.1 -0.1)">
       <defs>
        <path d="M 678 2272 
L 4684 2272 
L 4684 1741 
L 678 1741 
L 678 2272 
z
" id="DejaVuSans-2212" transform="scale(0.015625)"/>
       </defs>
       <use xlink:href="#DejaVuSans-2212"/>
       <use x="83.789062" xlink:href="#DejaVuSans-31"/>
       <use x="147.412109" xlink:href="#DejaVuSans-32"/>
       <use x="211.035156" xlink:href="#DejaVuSans-30"/>
       <use x="274.658203" xlink:href="#DejaVuSans-30"/>
      </g>
     </g>
    </g>
    <g id="ytick_2">
     <g id="line2d_11">
      <g>
       <use style="stroke:#000000;stroke-width:0.8;" x="57.6" xlink:href="#m201947a19d" y="261.343134"/>
      </g>
     </g>
     <g id="text_12">
      <!-- −1000 -->
      <g transform="translate(16.770313 265.142353)scale(0.1 -0.1)">
       <use xlink:href="#DejaVuSans-2212"/>
       <use x="83.789062" xlink:href="#DejaVuSans-31"/>
       <use x="147.412109" xlink:href="#DejaVuSans-30"/>
       <use x="211.035156" xlink:href="#DejaVuSans-30"/>
       <use x="274.658203" xlink:href="#DejaVuSans-30"/>
      </g>
     </g>
    </g>
    <g id="ytick_3">
     <g id="line2d_12">
      <g>
       <use style="stroke:#000000;stroke-width:0.8;" x="57.6" xlink:href="#m201947a19d" y="215.283551"/>
      </g>
     </g>
     <g id="text_13">
      <!-- −800 -->
      <g transform="translate(23.132812 219.08277)scale(0.1 -0.1)">
       <defs>
        <path d="M 2034 2216 
Q 1584 2216 1326 1975 
Q 1069 1734 1069 1313 
Q 1069 891 1326 650 
Q 1584 409 2034 409 
Q 2484 409 2743 651 
Q 3003 894 3003 1313 
Q 3003 1734 2745 1975 
Q 2488 2216 2034 2216 
z
M 1403 2484 
Q 997 2584 770 2862 
Q 544 3141 544 3541 
Q 544 4100 942 4425 
Q 1341 4750 2034 4750 
Q 2731 4750 3128 4425 
Q 3525 4100 3525 3541 
Q 3525 3141 3298 2862 
Q 3072 2584 2669 2484 
Q 3125 2378 3379 2068 
Q 3634 1759 3634 1313 
Q 3634 634 3220 271 
Q 2806 -91 2034 -91 
Q 1263 -91 848 271 
Q 434 634 434 1313 
Q 434 1759 690 2068 
Q 947 2378 1403 2484 
z
M 1172 3481 
Q 1172 3119 1398 2916 
Q 1625 2713 2034 2713 
Q 2441 2713 2670 2916 
Q 2900 3119 2900 3481 
Q 2900 3844 2670 4047 
Q 2441 4250 2034 4250 
Q 1625 4250 1398 4047 
Q 1172 3844 1172 3481 
z
" id="DejaVuSans-38" transform="scale(0.015625)"/>
       </defs>
       <use xlink:href="#DejaVuSans-2212"/>
       <use x="83.789062" xlink:href="#DejaVuSans-38"/>
       <use x="147.412109" xlink:href="#DejaVuSans-30"/>
       <use x="211.035156" xlink:href="#DejaVuSans-30"/>
      </g>
     </g>
    </g>
    <g id="ytick_4">
     <g id="line2d_13">
      <g>
       <use style="stroke:#000000;stroke-width:0.8;" x="57.6" xlink:href="#m201947a19d" y="169.223968"/>
      </g>
     </g>
     <g id="text_14">
      <!-- −600 -->
      <g transform="translate(23.132812 173.023187)scale(0.1 -0.1)">
       <defs>
        <path d="M 2113 2584 
Q 1688 2584 1439 2293 
Q 1191 2003 1191 1497 
Q 1191 994 1439 701 
Q 1688 409 2113 409 
Q 2538 409 2786 701 
Q 3034 994 3034 1497 
Q 3034 2003 2786 2293 
Q 2538 2584 2113 2584 
z
M 3366 4563 
L 3366 3988 
Q 3128 4100 2886 4159 
Q 2644 4219 2406 4219 
Q 1781 4219 1451 3797 
Q 1122 3375 1075 2522 
Q 1259 2794 1537 2939 
Q 1816 3084 2150 3084 
Q 2853 3084 3261 2657 
Q 3669 2231 3669 1497 
Q 3669 778 3244 343 
Q 2819 -91 2113 -91 
Q 1303 -91 875 529 
Q 447 1150 447 2328 
Q 447 3434 972 4092 
Q 1497 4750 2381 4750 
Q 2619 4750 2861 4703 
Q 3103 4656 3366 4563 
z
" id="DejaVuSans-36" transform="scale(0.015625)"/>
       </defs>
       <use xlink:href="#DejaVuSans-2212"/>
       <use x="83.789062" xlink:href="#DejaVuSans-36"/>
       <use x="147.412109" xlink:href="#DejaVuSans-30"/>
       <use x="211.035156" xlink:href="#DejaVuSans-30"/>
      </g>
     </g>
    </g>
    <g id="ytick_5">
     <g id="line2d_14">
      <g>
       <use style="stroke:#000000;stroke-width:0.8;" x="57.6" xlink:href="#m201947a19d" y="123.164385"/>
      </g>
     </g>
     <g id="text_15">
      <!-- −400 -->
      <g transform="translate(23.132812 126.963604)scale(0.1 -0.1)">
       <use xlink:href="#DejaVuSans-2212"/>
       <use x="83.789062" xlink:href="#DejaVuSans-34"/>
       <use x="147.412109" xlink:href="#DejaVuSans-30"/>
       <use x="211.035156" xlink:href="#DejaVuSans-30"/>
      </g>
     </g>
    </g>
    <g id="ytick_6">
     <g id="line2d_15">
      <g>
       <use style="stroke:#000000;stroke-width:0.8;" x="57.6" xlink:href="#m201947a19d" y="77.104802"/>
      </g>
     </g>
     <g id="text_16">
      <!-- −200 -->
      <g transform="translate(23.132812 80.904021)scale(0.1 -0.1)">
       <use xlink:href="#DejaVuSans-2212"/>
       <use x="83.789062" xlink:href="#DejaVuSans-32"/>
       <use x="147.412109" xlink:href="#DejaVuSans-30"/>
       <use x="211.035156" xlink:href="#DejaVuSans-30"/>
      </g>
     </g>
    </g>
    <g id="text_17">
     <!-- Loss -->
     <g transform="translate(9.650781 190.978781)rotate(-90)scale(0.15 -0.15)">
      <defs>
       <path d="M 628 4666 
L 1259 4666 
L 1259 531 
L 3531 531 
L 3531 0 
L 628 0 
L 628 4666 
z
" id="DejaVuSans-4c" transform="scale(0.015625)"/>
       <path d="M 2834 3397 
L 2834 2853 
Q 2591 2978 2328 3040 
Q 2066 3103 1784 3103 
Q 1356 3103 1142 2972 
Q 928 2841 928 2578 
Q 928 2378 1081 2264 
Q 1234 2150 1697 2047 
L 1894 2003 
Q 2506 1872 2764 1633 
Q 3022 1394 3022 966 
Q 3022 478 2636 193 
Q 2250 -91 1575 -91 
Q 1294 -91 989 -36 
Q 684 19 347 128 
L 347 722 
Q 666 556 975 473 
Q 1284 391 1588 391 
Q 1994 391 2212 530 
Q 2431 669 2431 922 
Q 2431 1156 2273 1281 
Q 2116 1406 1581 1522 
L 1381 1569 
Q 847 1681 609 1914 
Q 372 2147 372 2553 
Q 372 3047 722 3315 
Q 1072 3584 1716 3584 
Q 2034 3584 2315 3537 
Q 2597 3491 2834 3397 
z
" id="DejaVuSans-73" transform="scale(0.015625)"/>
      </defs>
      <use xlink:href="#DejaVuSans-4c"/>
      <use x="53.962891" xlink:href="#DejaVuSans-6f"/>
      <use x="115.144531" xlink:href="#DejaVuSans-73"/>
      <use x="167.244141" xlink:href="#DejaVuSans-73"/>
     </g>
    </g>
   </g>
   <g id="line2d_16">
    <path clip-path="url(#pcab40a5b79)" d="M 73.832727 53.568 
L 74.646398 104.656263 
L 75.460068 116.277734 
L 76.273739 124.863778 
L 77.087409 147.074643 
L 77.90108 133.34596 
L 78.714751 151.97923 
L 79.528421 166.266467 
L 80.342092 161.061694 
L 81.155762 180.684603 
L 81.969433 173.82913 
L 82.783103 197.810453 
L 83.596774 206.957948 
L 84.410444 191.703083 
L 85.224115 203.980265 
L 86.037785 210.98218 
L 86.851456 212.544082 
L 87.665126 208.568984 
L 88.478797 217.008093 
L 89.292468 213.00927 
L 90.106138 221.302991 
L 90.919809 213.378896 
L 91.733479 211.65061 
L 92.54715 220.196051 
L 93.36082 231.071273 
L 94.174491 220.227905 
L 94.988161 194.160388 
L 95.801832 196.709888 
L 96.615502 222.369296 
L 97.429173 232.112933 
L 98.242843 225.924427 
L 99.056514 226.65528 
L 99.870185 228.783126 
L 100.683855 242.067013 
L 101.497526 219.748649 
L 102.311196 228.103331 
L 103.124867 234.880412 
L 103.938537 234.398336 
L 104.752208 231.68187 
L 105.565878 242.661742 
L 106.379549 243.413026 
L 107.193219 246.445641 
L 108.00689 229.924945 
L 108.82056 246.202967 
L 109.634231 250.814797 
L 110.447902 237.713734 
L 111.261572 231.345002 
L 112.075243 232.498178 
L 112.888913 237.588636 
L 113.702584 237.194084 
L 114.516254 231.36096 
L 115.329925 246.849876 
L 116.143595 252.609217 
L 116.957266 252.068879 
L 117.770936 246.546294 
L 118.584607 244.401979 
L 119.398278 253.104817 
L 120.211948 257.676304 
L 121.025619 260.977884 
L 121.839289 242.691651 
L 122.65296 248.73907 
L 123.46663 245.493834 
L 124.280301 244.290393 
L 125.093971 252.091641 
L 125.907642 241.083482 
L 126.721312 254.958348 
L 127.534983 251.260683 
L 128.348653 227.672116 
L 129.162324 249.577 
L 129.975995 250.737005 
L 130.789665 253.81637 
L 131.603336 241.401653 
L 132.417006 240.689148 
L 133.230677 255.348398 
L 134.044347 246.582438 
L 134.858018 245.782679 
L 135.671688 239.644998 
L 136.485359 249.595392 
L 137.299029 244.055483 
L 138.1127 245.431775 
L 138.92637 255.590663 
L 139.740041 246.494869 
L 140.553712 241.994437 
L 141.367382 247.888235 
L 142.181053 244.290427 
L 142.994723 244.681829 
L 143.808394 253.995107 
L 144.622064 236.656153 
L 145.435735 240.354688 
L 146.249405 245.934031 
L 147.063076 237.398668 
L 147.876746 239.553052 
L 148.690417 244.555041 
L 149.504087 248.291438 
L 150.317758 252.784717 
L 151.131429 247.408986 
L 151.945099 245.558984 
L 152.75877 250.616943 
L 153.57244 252.734761 
L 154.386111 244.350019 
L 155.199781 243.762517 
L 156.013452 254.776863 
L 156.827122 251.33755 
L 157.640793 252.985245 
L 158.454463 247.628019 
L 159.268134 256.885 
L 160.081805 254.951244 
L 160.895475 263.919248 
L 161.709146 271.380014 
L 162.522816 271.002706 
L 163.336487 246.181787 
L 164.150157 245.795434 
L 164.963828 252.177183 
L 166.591169 262.651514 
L 167.404839 255.179165 
L 168.21851 263.463359 
L 169.03218 252.848986 
L 169.845851 253.168262 
L 170.659522 246.242945 
L 171.473192 269.882325 
L 172.286863 250.12099 
L 173.100533 252.412722 
L 173.914204 267.785154 
L 174.727874 256.493654 
L 175.541545 253.763481 
L 176.355215 249.715663 
L 177.168886 256.089102 
L 177.982556 266.885409 
L 178.796227 250.151803 
L 179.609897 262.80484 
L 180.423568 231.968654 
L 181.237239 252.181811 
L 182.050909 254.581302 
L 182.86458 261.644797 
L 183.67825 248.571437 
L 184.491921 250.857718 
L 185.305591 267.059176 
L 186.119262 259.677019 
L 186.932932 250.001999 
L 187.746603 250.004583 
L 188.560273 247.877087 
L 189.373944 241.077161 
L 190.187614 249.451429 
L 191.001285 251.723449 
L 191.814956 255.090018 
L 192.628626 247.158278 
L 193.442297 248.469635 
L 194.255967 254.726849 
L 195.069638 248.602626 
L 195.883308 261.699505 
L 196.696979 244.330829 
L 198.32432 261.63829 
L 199.13799 243.855486 
L 199.951661 252.505588 
L 200.765332 246.415213 
L 201.579002 251.502239 
L 202.392673 263.75645 
L 203.206343 252.716989 
L 204.020014 255.402475 
L 204.833684 262.224553 
L 205.647355 256.008205 
L 206.461025 268.240593 
L 207.274696 256.161863 
L 208.088366 264.821144 
L 208.902037 250.203191 
L 209.715707 250.687015 
L 210.529378 255.487247 
L 211.343049 256.961005 
L 212.156719 254.400001 
L 212.97039 261.738886 
L 213.78406 261.168133 
L 214.597731 267.981908 
L 215.411401 262.945295 
L 216.225072 256.249717 
L 217.038742 262.753586 
L 217.852413 248.712031 
L 218.666083 253.528778 
L 219.479754 266.573587 
L 220.293424 248.929719 
L 221.107095 267.106861 
L 221.920766 265.710163 
L 222.734436 257.607778 
L 223.548107 250.805771 
L 224.361777 255.716485 
L 225.175448 271.558692 
L 225.989118 256.192872 
L 226.802789 278.224818 
L 227.616459 269.877761 
L 228.43013 258.758684 
L 229.2438 263.83761 
L 230.057471 258.893292 
L 230.871141 264.860786 
L 231.684812 271.673285 
L 232.498483 257.117224 
L 233.312153 250.793291 
L 234.125824 274.884566 
L 234.939494 253.106138 
L 235.753165 263.939341 
L 236.566835 252.821632 
L 237.380506 260.657124 
L 238.194176 263.91469 
L 239.007847 261.971595 
L 239.821517 282.362716 
L 240.635188 270.959481 
L 241.448859 273.005606 
L 242.262529 267.434485 
L 243.0762 245.66994 
L 244.703541 272.551696 
L 245.517211 278.120333 
L 246.330882 263.544953 
L 247.144552 246.029589 
L 247.958223 255.45767 
L 248.771893 274.660637 
L 249.585564 275.519281 
L 250.399234 260.412977 
L 251.212905 261.672809 
L 252.026576 261.57442 
L 252.840246 269.016337 
L 253.653917 265.9275 
L 254.467587 255.548713 
L 255.281258 259.797734 
L 256.094928 259.615402 
L 256.908599 265.167012 
L 257.722269 267.667876 
L 258.53594 271.103898 
L 259.34961 280.982145 
L 260.163281 259.933385 
L 260.976951 255.639507 
L 261.790622 268.425487 
L 262.604293 270.436042 
L 263.417963 271.169907 
L 265.045304 256.152044 
L 265.858975 257.246741 
L 266.672645 262.6956 
L 267.486316 270.236358 
L 268.299986 266.550304 
L 269.113657 269.678495 
L 269.927327 278.407807 
L 270.740998 277.812098 
L 271.554668 280.712299 
L 272.368339 269.920061 
L 273.18201 278.748306 
L 273.99568 250.282944 
L 274.809351 283.859459 
L 275.623021 254.494488 
L 276.436692 256.089326 
L 277.250362 256.574796 
L 278.064033 265.814416 
L 278.877703 270.949169 
L 279.691374 265.034849 
L 280.505044 275.513725 
L 281.318715 272.473715 
L 282.132386 261.121902 
L 282.946056 272.259342 
L 283.759727 270.399123 
L 284.573397 278.392499 
L 285.387068 266.198495 
L 286.200738 267.352761 
L 287.014409 277.571017 
L 287.828079 258.03117 
L 288.64175 281.899882 
L 289.45542 285.578688 
L 291.082761 269.204269 
L 291.896432 249.291752 
L 292.710103 264.743607 
L 293.523773 266.203194 
L 294.337444 263.605091 
L 295.151114 268.532276 
L 295.964785 278.131067 
L 296.778455 275.147384 
L 297.592126 267.295705 
L 298.405796 268.213849 
L 299.219467 283.902914 
L 300.033137 272.520027 
L 300.846808 280.024769 
L 301.660478 256.813703 
L 302.474149 280.210536 
L 303.28782 252.412504 
L 304.10149 272.565307 
L 304.915161 269.21578 
L 305.728831 275.487225 
L 306.542502 279.539326 
L 307.356172 272.973878 
L 308.169843 269.387572 
L 308.983513 287.128602 
L 309.797184 272.022837 
L 310.610854 263.043861 
L 311.424525 268.035721 
L 312.238195 272.193704 
L 313.051866 274.425639 
L 313.865537 258.717032 
L 314.679207 263.175901 
L 315.492878 272.024356 
L 316.306548 274.133637 
L 317.120219 287.309809 
L 317.933889 263.940439 
L 318.74756 276.542781 
L 319.56123 280.243309 
L 320.374901 286.749102 
L 321.188571 268.03512 
L 322.002242 268.182738 
L 322.815913 276.220697 
L 323.629583 275.126875 
L 324.443254 267.67578 
L 325.256924 278.547799 
L 326.070595 276.4424 
L 326.884265 285.043137 
L 327.697936 278.95536 
L 328.511606 265.321434 
L 329.325277 278.592249 
L 330.138947 276.594459 
L 330.952618 271.622815 
L 331.766288 276.700147 
L 332.579959 287.79915 
L 333.39363 286.90157 
L 334.2073 271.766578 
L 335.020971 282.520487 
L 335.834641 287.950223 
L 336.648312 267.424425 
L 337.461982 285.036638 
L 338.275653 277.688918 
L 339.089323 279.416758 
L 339.902994 284.180974 
L 340.716664 282.247977 
L 341.530335 277.869227 
L 342.344005 271.331047 
L 343.157676 253.345491 
L 344.785017 280.326639 
L 345.598688 280.864602 
L 346.412358 275.356155 
L 347.226029 287.656164 
L 348.039699 273.616442 
L 349.66704 280.597288 
L 350.480711 290.14446 
L 352.108052 268.150677 
L 352.921722 277.946775 
L 353.735393 272.444558 
L 354.549064 270.718409 
L 356.176405 280.929138 
L 356.990075 275.355985 
L 357.803746 270.919987 
L 358.617416 264.141898 
L 359.431087 281.323827 
L 360.244757 278.013146 
L 361.058428 273.039761 
L 361.872098 295.488 
L 362.685769 291.670831 
L 363.49944 265.942317 
L 364.31311 276.52318 
L 365.126781 283.437385 
L 365.940451 289.253542 
L 366.754122 278.758548 
L 367.567792 274.981554 
L 368.381463 272.792292 
L 369.195133 267.770845 
L 370.008804 275.528866 
L 370.822474 261.380927 
L 371.636145 284.854173 
L 372.449815 272.553874 
L 373.263486 269.862582 
L 374.077157 269.46551 
L 374.890827 285.340046 
L 375.704498 276.289061 
L 376.518168 275.423919 
L 377.331839 267.645876 
L 378.145509 267.316889 
L 378.95918 264.518624 
L 379.77285 291.13859 
L 380.586521 279.903011 
L 381.400191 265.952343 
L 382.213862 288.023691 
L 383.027532 276.570119 
L 383.841203 268.093706 
L 384.654874 284.61878 
L 385.468544 278.946055 
L 386.282215 289.226031 
L 387.095885 273.164467 
L 387.909556 278.213998 
L 388.723226 274.166207 
L 389.536897 275.131666 
L 390.350567 272.418107 
L 391.164238 278.781524 
L 391.977908 270.11137 
L 392.791579 270.208838 
L 393.605249 278.595521 
L 394.41892 275.591789 
L 395.232591 279.070906 
L 396.046261 281.641214 
L 397.673602 250.118815 
L 398.487273 272.841806 
L 398.487273 272.841806 
" style="fill:none;stroke:#1f77b4;stroke-linecap:square;stroke-width:1.5;"/>
   </g>
   <g id="line2d_17">
    <path clip-path="url(#pcab40a5b79)" d="M 73.832727 108.212739 
L 74.646398 110.4189 
L 75.460068 127.997792 
L 76.273739 149.894329 
L 77.087409 147.328691 
L 77.90108 145.916481 
L 78.714751 173.067593 
L 79.528421 168.920385 
L 80.342092 173.291071 
L 81.155762 164.729646 
L 81.969433 195.263589 
L 82.783103 174.294152 
L 83.596774 201.922762 
L 84.410444 188.543661 
L 85.224115 209.90364 
L 86.037785 213.961472 
L 86.851456 216.11676 
L 87.665126 224.237381 
L 88.478797 208.967777 
L 89.292468 228.839029 
L 90.106138 193.651095 
L 90.919809 221.00374 
L 91.733479 198.920725 
L 92.54715 219.081334 
L 93.36082 220.0632 
L 94.174491 227.303426 
L 94.988161 56.718552 
L 95.801832 223.809784 
L 97.429173 231.007155 
L 98.242843 226.440999 
L 99.056514 235.63964 
L 100.683855 233.650034 
L 101.497526 226.425948 
L 102.311196 236.042909 
L 103.124867 237.523016 
L 103.938537 167.344909 
L 104.752208 245.078048 
L 105.565878 213.330727 
L 106.379549 240.291601 
L 107.193219 243.447796 
L 108.00689 231.305305 
L 108.82056 235.172533 
L 109.634231 243.598541 
L 110.447902 256.948007 
L 111.261572 230.844466 
L 112.888913 248.602469 
L 113.702584 242.111759 
L 114.516254 234.401639 
L 115.329925 240.463799 
L 116.143595 243.462218 
L 116.957266 245.672115 
L 117.770936 256.204654 
L 118.584607 241.629618 
L 120.211948 244.671683 
L 121.025619 248.816749 
L 121.839289 246.802353 
L 122.65296 241.734665 
L 123.46663 248.928515 
L 124.280301 239.339695 
L 125.093971 260.419383 
L 125.907642 247.265186 
L 126.721312 238.762496 
L 127.534983 249.858335 
L 128.348653 250.166802 
L 129.162324 244.427594 
L 129.975995 248.364315 
L 130.789665 245.681888 
L 131.603336 236.137945 
L 132.417006 245.565286 
L 133.230677 245.09435 
L 134.044347 232.076283 
L 134.858018 249.108876 
L 135.671688 250.329598 
L 136.485359 252.719207 
L 137.299029 250.826572 
L 138.1127 246.894449 
L 139.740041 240.979107 
L 140.553712 246.295054 
L 141.367382 246.168531 
L 142.181053 245.814539 
L 142.994723 254.918501 
L 143.808394 244.504698 
L 144.622064 246.054186 
L 145.435735 239.20374 
L 146.249405 249.647017 
L 147.063076 241.323886 
L 147.876746 249.565417 
L 148.690417 247.777332 
L 149.504087 242.395195 
L 150.317758 243.58208 
L 151.131429 256.212702 
L 151.945099 263.897926 
L 152.75877 228.030941 
L 153.57244 252.041392 
L 154.386111 240.884028 
L 155.199781 248.692683 
L 156.013452 244.235786 
L 156.827122 246.37626 
L 157.640793 252.711273 
L 158.454463 256.500617 
L 159.268134 248.895045 
L 160.081805 249.371961 
L 160.895475 250.59031 
L 161.709146 250.474255 
L 162.522816 257.563851 
L 163.336487 250.468678 
L 164.150157 259.154111 
L 164.963828 256.850358 
L 165.777498 245.274338 
L 166.591169 258.406115 
L 167.404839 261.235056 
L 168.21851 253.412106 
L 169.03218 250.503635 
L 169.845851 249.467632 
L 170.659522 251.197893 
L 171.473192 252.594865 
L 172.286863 245.725067 
L 173.100533 248.492897 
L 173.914204 246.324837 
L 174.727874 258.588565 
L 175.541545 233.557584 
L 176.355215 258.97075 
L 177.168886 250.615652 
L 177.982556 243.807374 
L 178.796227 253.24438 
L 179.609897 265.537612 
L 181.237239 250.822461 
L 182.050909 254.677417 
L 183.67825 247.336692 
L 184.491921 253.795154 
L 185.305591 249.770397 
L 186.119262 261.615261 
L 186.932932 261.758751 
L 187.746603 268.019212 
L 188.560273 261.845696 
L 189.373944 253.557422 
L 190.187614 255.752979 
L 191.001285 259.144743 
L 191.814956 267.29469 
L 192.628626 259.433656 
L 193.442297 257.695746 
L 194.255967 255.04524 
L 195.069638 262.857566 
L 195.883308 261.368395 
L 196.696979 255.211837 
L 197.510649 261.830786 
L 198.32432 249.529632 
L 199.13799 264.187367 
L 199.951661 254.556114 
L 200.765332 241.647326 
L 201.579002 246.50858 
L 202.392673 249.16293 
L 203.206343 250.509545 
L 204.020014 256.015468 
L 204.833684 249.585462 
L 205.647355 266.135742 
L 206.461025 255.422824 
L 207.274696 259.552841 
L 208.088366 257.505188 
L 208.902037 259.473378 
L 209.715707 247.946803 
L 210.529378 242.708699 
L 211.343049 252.03227 
L 212.156719 247.859842 
L 212.97039 255.341965 
L 213.78406 258.988694 
L 214.597731 255.689227 
L 215.411401 255.165545 
L 216.225072 262.445844 
L 217.038742 266.079642 
L 217.852413 262.449185 
L 218.666083 253.286737 
L 219.479754 267.144957 
L 220.293424 269.925966 
L 221.107095 253.399441 
L 221.920766 265.741413 
L 222.734436 248.494943 
L 223.548107 253.751416 
L 224.361777 266.384106 
L 225.175448 266.181451 
L 225.989118 252.282291 
L 226.802789 260.257806 
L 227.616459 264.822432 
L 228.43013 260.334521 
L 229.2438 267.515348 
L 230.057471 253.001851 
L 230.871141 254.112023 
L 231.684812 263.052542 
L 232.498483 263.419621 
L 233.312153 264.562868 
L 234.125824 271.653454 
L 234.939494 260.096886 
L 235.753165 269.197481 
L 236.566835 268.421068 
L 237.380506 263.832227 
L 238.194176 261.801214 
L 239.007847 254.398058 
L 239.821517 253.025081 
L 240.635188 254.405393 
L 241.448859 262.326129 
L 242.262529 263.13181 
L 243.0762 269.022318 
L 243.88987 258.611525 
L 244.703541 253.853066 
L 245.517211 262.927249 
L 246.330882 254.183692 
L 247.144552 249.499674 
L 247.958223 254.859432 
L 248.771893 267.126516 
L 249.585564 265.228469 
L 250.399234 261.349162 
L 251.212905 258.535453 
L 252.026576 256.464787 
L 252.840246 267.159877 
L 253.653917 262.632117 
L 254.467587 259.409741 
L 255.281258 258.422753 
L 256.094928 253.278994 
L 256.908599 265.553074 
L 257.722269 259.274809 
L 258.53594 267.52207 
L 259.34961 266.772998 
L 260.163281 251.36202 
L 260.976951 264.01239 
L 261.790622 262.058514 
L 262.604293 278.865632 
L 263.417963 277.44789 
L 264.231634 265.473137 
L 265.045304 251.84895 
L 265.858975 258.706399 
L 266.672645 256.725181 
L 267.486316 257.971993 
L 268.299986 264.440502 
L 269.113657 264.143026 
L 269.927327 275.453404 
L 270.740998 277.54573 
L 271.554668 268.381527 
L 272.368339 269.250469 
L 273.18201 268.200943 
L 273.99568 264.922629 
L 274.809351 275.076005 
L 275.623021 263.310088 
L 276.436692 259.793285 
L 277.250362 280.836594 
L 278.877703 240.641468 
L 279.691374 258.881405 
L 281.318715 264.892745 
L 282.132386 261.60837 
L 283.759727 267.67261 
L 284.573397 266.453898 
L 285.387068 260.598074 
L 286.200738 259.100203 
L 287.014409 264.699833 
L 287.828079 259.497615 
L 288.64175 256.937956 
L 289.45542 266.902001 
L 290.269091 270.050059 
L 291.082761 259.93442 
L 291.896432 273.469145 
L 292.710103 255.41832 
L 293.523773 272.836598 
L 294.337444 268.418815 
L 295.151114 265.414812 
L 295.964785 267.043591 
L 296.778455 272.887797 
L 297.592126 272.1018 
L 298.405796 252.536037 
L 299.219467 269.956913 
L 300.033137 266.766192 
L 300.846808 246.33475 
L 301.660478 270.227138 
L 302.474149 270.923442 
L 303.28782 255.850925 
L 304.10149 262.380578 
L 304.915161 270.528065 
L 305.728831 268.329331 
L 306.542502 270.64587 
L 307.356172 260.622086 
L 308.169843 275.888738 
L 308.983513 266.770797 
L 309.797184 278.545493 
L 310.610854 266.98674 
L 311.424525 266.967122 
L 312.238195 262.352625 
L 313.051866 268.690383 
L 313.865537 269.118525 
L 314.679207 264.149012 
L 315.492878 263.919392 
L 316.306548 268.627634 
L 317.120219 280.705201 
L 317.933889 263.272177 
L 318.74756 275.874204 
L 319.56123 277.569033 
L 320.374901 266.557964 
L 321.188571 259.082052 
L 322.815913 273.275902 
L 323.629583 266.619618 
L 324.443254 250.578877 
L 325.256924 266.811569 
L 326.070595 272.858697 
L 326.884265 266.435353 
L 327.697936 264.272386 
L 328.511606 261.673637 
L 329.325277 252.795575 
L 330.138947 261.134092 
L 330.952618 263.816606 
L 331.766288 277.763741 
L 332.579959 262.790182 
L 333.39363 275.409519 
L 334.2073 273.658241 
L 335.020971 281.516511 
L 335.834641 276.484325 
L 336.648312 276.393876 
L 337.461982 268.590218 
L 338.275653 268.590056 
L 339.089323 264.468309 
L 339.902994 269.762121 
L 340.716664 252.071732 
L 341.530335 273.768176 
L 342.344005 272.024122 
L 343.157676 280.56647 
L 343.971347 259.270174 
L 344.785017 257.57185 
L 345.598688 273.070323 
L 346.412358 267.10768 
L 347.226029 257.711198 
L 348.039699 265.479296 
L 348.85337 269.080366 
L 349.66704 278.665345 
L 350.480711 269.38216 
L 351.294381 282.633454 
L 352.108052 275.445365 
L 352.921722 278.805355 
L 353.735393 270.107037 
L 354.549064 267.989041 
L 355.362734 287.202893 
L 356.176405 274.801047 
L 356.990075 260.666913 
L 357.803746 263.241971 
L 358.617416 267.580262 
L 359.431087 267.659008 
L 360.244757 277.677011 
L 361.058428 273.566653 
L 361.872098 256.378242 
L 362.685769 258.907331 
L 363.49944 272.133536 
L 364.31311 271.409549 
L 365.126781 276.755436 
L 365.940451 275.093663 
L 366.754122 268.651074 
L 367.567792 273.693789 
L 368.381463 284.173309 
L 369.195133 277.858893 
L 370.008804 277.04765 
L 370.822474 276.98677 
L 371.636145 267.905332 
L 372.449815 278.851103 
L 373.263486 275.960916 
L 374.077157 274.785193 
L 374.890827 272.647424 
L 375.704498 266.919677 
L 376.518168 272.826936 
L 377.331839 265.834621 
L 378.145509 274.063102 
L 378.95918 268.32425 
L 379.77285 272.056361 
L 380.586521 264.069306 
L 381.400191 274.152614 
L 382.213862 269.703171 
L 383.027532 266.10263 
L 383.841203 258.341448 
L 384.654874 278.637735 
L 385.468544 278.69948 
L 386.282215 270.517166 
L 387.095885 266.166788 
L 387.909556 272.702135 
L 388.723226 268.524194 
L 389.536897 266.603456 
L 390.350567 286.454594 
L 391.977908 258.421091 
L 392.791579 269.878121 
L 393.605249 274.385696 
L 394.41892 275.635228 
L 395.232591 281.278727 
L 396.046261 276.386869 
L 396.859932 260.463262 
L 397.673602 273.668269 
L 398.487273 273.343951 
L 398.487273 273.343951 
" style="fill:none;stroke:#ff7f0e;stroke-linecap:square;stroke-width:1.5;"/>
   </g>
   <g id="patch_3">
    <path d="M 57.6 307.584 
L 57.6 41.472 
" style="fill:none;stroke:#000000;stroke-linecap:square;stroke-linejoin:miter;stroke-width:0.8;"/>
   </g>
   <g id="patch_4">
    <path d="M 414.72 307.584 
L 414.72 41.472 
" style="fill:none;stroke:#000000;stroke-linecap:square;stroke-linejoin:miter;stroke-width:0.8;"/>
   </g>
   <g id="patch_5">
    <path d="M 57.6 307.584 
L 414.72 307.584 
" style="fill:none;stroke:#000000;stroke-linecap:square;stroke-linejoin:miter;stroke-width:0.8;"/>
   </g>
   <g id="patch_6">
    <path d="M 57.6 41.472 
L 414.72 41.472 
" style="fill:none;stroke:#000000;stroke-linecap:square;stroke-linejoin:miter;stroke-width:0.8;"/>
   </g>
   <g id="legend_1">
    <g id="patch_7">
     <path d="M 303.845 78.82825 
L 407.72 78.82825 
Q 409.72 78.82825 409.72 76.82825 
L 409.72 48.472 
Q 409.72 46.472 407.72 46.472 
L 303.845 46.472 
Q 301.845 46.472 301.845 48.472 
L 301.845 76.82825 
Q 301.845 78.82825 303.845 78.82825 
z
" style="fill:#ffffff;opacity:0.8;stroke:#cccccc;stroke-linejoin:miter;"/>
    </g>
    <g id="line2d_18">
     <path d="M 305.845 54.570437 
L 325.845 54.570437 
" style="fill:none;stroke:#1f77b4;stroke-linecap:square;stroke-width:1.5;"/>
    </g>
    <g id="line2d_19"/>
    <g id="text_18">
     <!-- Train loss -->
     <g transform="translate(333.845 58.070437)scale(0.1 -0.1)">
      <defs>
       <path d="M -19 4666 
L 3928 4666 
L 3928 4134 
L 2272 4134 
L 2272 0 
L 1638 0 
L 1638 4134 
L -19 4134 
L -19 4666 
z
" id="DejaVuSans-54" transform="scale(0.015625)"/>
       <path d="M 2631 2963 
Q 2534 3019 2420 3045 
Q 2306 3072 2169 3072 
Q 1681 3072 1420 2755 
Q 1159 2438 1159 1844 
L 1159 0 
L 581 0 
L 581 3500 
L 1159 3500 
L 1159 2956 
Q 1341 3275 1631 3429 
Q 1922 3584 2338 3584 
Q 2397 3584 2469 3576 
Q 2541 3569 2628 3553 
L 2631 2963 
z
" id="DejaVuSans-72" transform="scale(0.015625)"/>
       <path d="M 2194 1759 
Q 1497 1759 1228 1600 
Q 959 1441 959 1056 
Q 959 750 1161 570 
Q 1363 391 1709 391 
Q 2188 391 2477 730 
Q 2766 1069 2766 1631 
L 2766 1759 
L 2194 1759 
z
M 3341 1997 
L 3341 0 
L 2766 0 
L 2766 531 
Q 2569 213 2275 61 
Q 1981 -91 1556 -91 
Q 1019 -91 701 211 
Q 384 513 384 1019 
Q 384 1609 779 1909 
Q 1175 2209 1959 2209 
L 2766 2209 
L 2766 2266 
Q 2766 2663 2505 2880 
Q 2244 3097 1772 3097 
Q 1472 3097 1187 3025 
Q 903 2953 641 2809 
L 641 3341 
Q 956 3463 1253 3523 
Q 1550 3584 1831 3584 
Q 2591 3584 2966 3190 
Q 3341 2797 3341 1997 
z
" id="DejaVuSans-61" transform="scale(0.015625)"/>
       <path d="M 603 3500 
L 1178 3500 
L 1178 0 
L 603 0 
L 603 3500 
z
M 603 4863 
L 1178 4863 
L 1178 4134 
L 603 4134 
L 603 4863 
z
" id="DejaVuSans-69" transform="scale(0.015625)"/>
       <path d="M 3513 2113 
L 3513 0 
L 2938 0 
L 2938 2094 
Q 2938 2591 2744 2837 
Q 2550 3084 2163 3084 
Q 1697 3084 1428 2787 
Q 1159 2491 1159 1978 
L 1159 0 
L 581 0 
L 581 3500 
L 1159 3500 
L 1159 2956 
Q 1366 3272 1645 3428 
Q 1925 3584 2291 3584 
Q 2894 3584 3203 3211 
Q 3513 2838 3513 2113 
z
" id="DejaVuSans-6e" transform="scale(0.015625)"/>
       <path id="DejaVuSans-20" transform="scale(0.015625)"/>
       <path d="M 603 4863 
L 1178 4863 
L 1178 0 
L 603 0 
L 603 4863 
z
" id="DejaVuSans-6c" transform="scale(0.015625)"/>
      </defs>
      <use xlink:href="#DejaVuSans-54"/>
      <use x="46.333984" xlink:href="#DejaVuSans-72"/>
      <use x="87.447266" xlink:href="#DejaVuSans-61"/>
      <use x="148.726562" xlink:href="#DejaVuSans-69"/>
      <use x="176.509766" xlink:href="#DejaVuSans-6e"/>
      <use x="239.888672" xlink:href="#DejaVuSans-20"/>
      <use x="271.675781" xlink:href="#DejaVuSans-6c"/>
      <use x="299.458984" xlink:href="#DejaVuSans-6f"/>
      <use x="360.640625" xlink:href="#DejaVuSans-73"/>
      <use x="412.740234" xlink:href="#DejaVuSans-73"/>
     </g>
    </g>
    <g id="line2d_20">
     <path d="M 305.845 69.248562 
L 325.845 69.248562 
" style="fill:none;stroke:#ff7f0e;stroke-linecap:square;stroke-width:1.5;"/>
    </g>
    <g id="line2d_21"/>
    <g id="text_19">
     <!-- Validation loss -->
     <g transform="translate(333.845 72.748562)scale(0.1 -0.1)">
      <defs>
       <path d="M 1831 0 
L 50 4666 
L 709 4666 
L 2188 738 
L 3669 4666 
L 4325 4666 
L 2547 0 
L 1831 0 
z
" id="DejaVuSans-56" transform="scale(0.015625)"/>
       <path d="M 2906 2969 
L 2906 4863 
L 3481 4863 
L 3481 0 
L 2906 0 
L 2906 525 
Q 2725 213 2448 61 
Q 2172 -91 1784 -91 
Q 1150 -91 751 415 
Q 353 922 353 1747 
Q 353 2572 751 3078 
Q 1150 3584 1784 3584 
Q 2172 3584 2448 3432 
Q 2725 3281 2906 2969 
z
M 947 1747 
Q 947 1113 1208 752 
Q 1469 391 1925 391 
Q 2381 391 2643 752 
Q 2906 1113 2906 1747 
Q 2906 2381 2643 2742 
Q 2381 3103 1925 3103 
Q 1469 3103 1208 2742 
Q 947 2381 947 1747 
z
" id="DejaVuSans-64" transform="scale(0.015625)"/>
       <path d="M 1172 4494 
L 1172 3500 
L 2356 3500 
L 2356 3053 
L 1172 3053 
L 1172 1153 
Q 1172 725 1289 603 
Q 1406 481 1766 481 
L 2356 481 
L 2356 0 
L 1766 0 
Q 1100 0 847 248 
Q 594 497 594 1153 
L 594 3053 
L 172 3053 
L 172 3500 
L 594 3500 
L 594 4494 
L 1172 4494 
z
" id="DejaVuSans-74" transform="scale(0.015625)"/>
      </defs>
      <use xlink:href="#DejaVuSans-56"/>
      <use x="60.658203" xlink:href="#DejaVuSans-61"/>
      <use x="121.9375" xlink:href="#DejaVuSans-6c"/>
      <use x="149.720703" xlink:href="#DejaVuSans-69"/>
      <use x="177.503906" xlink:href="#DejaVuSans-64"/>
      <use x="240.980469" xlink:href="#DejaVuSans-61"/>
      <use x="302.259766" xlink:href="#DejaVuSans-74"/>
      <use x="341.46875" xlink:href="#DejaVuSans-69"/>
      <use x="369.251953" xlink:href="#DejaVuSans-6f"/>
      <use x="430.433594" xlink:href="#DejaVuSans-6e"/>
      <use x="493.8125" xlink:href="#DejaVuSans-20"/>
      <use x="525.599609" xlink:href="#DejaVuSans-6c"/>
      <use x="553.382812" xlink:href="#DejaVuSans-6f"/>
      <use x="614.564453" xlink:href="#DejaVuSans-73"/>
      <use x="666.664062" xlink:href="#DejaVuSans-73"/>
     </g>
    </g>
   </g>
  </g>
 </g>
 <defs>
  <clipPath id="pcab40a5b79">
   <rect height="266.112" width="357.12" x="57.6" y="41.472"/>
  </clipPath>
 </defs>
</svg>
