<?xml version="1.0" encoding="utf-8" standalone="no"?>
<!DOCTYPE svg PUBLIC "-//W3C//DTD SVG 1.1//EN"
  "http://www.w3.org/Graphics/SVG/1.1/DTD/svg11.dtd">
<svg height="345.6pt" version="1.1" viewBox="0 0 460.8 345.6" width="460.8pt" xmlns="http://www.w3.org/2000/svg" xmlns:xlink="http://www.w3.org/1999/xlink">
 <metadata>
  <rdf:RDF xmlns:cc="http://creativecommons.org/ns#" xmlns:dc="http://purl.org/dc/elements/1.1/" xmlns:rdf="http://www.w3.org/1999/02/22-rdf-syntax-ns#">
   <cc:Work>
    <dc:type rdf:resource="http://purl.org/dc/dcmitype/StillImage"/>
    <dc:date>2021-07-17T02:52:35.716111</dc:date>
    <dc:format>image/svg+xml</dc:format>
    <dc:creator>
     <cc:Agent>
      <dc:title>Matplotlib v3.4.2, https://matplotlib.org/</dc:title>
     </cc:Agent>
    </dc:creator>
   </cc:Work>
  </rdf:RDF>
 </metadata>
 <defs>
  <style type="text/css">*{stroke-linecap:butt;stroke-linejoin:round;}</style>
 </defs>
 <g id="figure_1">
  <g id="patch_1">
   <path d="M 0 345.6 
L 460.8 345.6 
L 460.8 0 
L 0 0 
z
" style="fill:#ffffff;"/>
  </g>
  <g id="axes_1">
   <g id="patch_2">
    <path d="M 57.6 307.584 
L 414.72 307.584 
L 414.72 41.472 
L 57.6 41.472 
z
" style="fill:#ffffff;"/>
   </g>
   <g id="matplotlib.axis_1">
    <g id="xtick_1">
     <g id="line2d_1">
      <defs>
       <path d="M 0 0 
L 0 3.5 
" id="m53f9dc77f5" style="stroke:#000000;stroke-width:0.8;"/>
      </defs>
      <g>
       <use style="stroke:#000000;stroke-width:0.8;" x="73.019057" xlink:href="#m53f9dc77f5" y="307.584"/>
      </g>
     </g>
     <g id="text_1">
      <!-- 0 -->
      <g transform="translate(69.837807 322.182437)scale(0.1 -0.1)">
       <defs>
        <path d="M 2034 4250 
Q 1547 4250 1301 3770 
Q 1056 3291 1056 2328 
Q 1056 1369 1301 889 
Q 1547 409 2034 409 
Q 2525 409 2770 889 
Q 3016 1369 3016 2328 
Q 3016 3291 2770 3770 
Q 2525 4250 2034 4250 
z
M 2034 4750 
Q 2819 4750 3233 4129 
Q 3647 3509 3647 2328 
Q 3647 1150 3233 529 
Q 2819 -91 2034 -91 
Q 1250 -91 836 529 
Q 422 1150 422 2328 
Q 422 3509 836 4129 
Q 1250 4750 2034 4750 
z
" id="DejaVuSans-30" transform="scale(0.015625)"/>
       </defs>
       <use xlink:href="#DejaVuSans-30"/>
      </g>
     </g>
    </g>
    <g id="xtick_2">
     <g id="line2d_2">
      <g>
       <use style="stroke:#000000;stroke-width:0.8;" x="113.702584" xlink:href="#m53f9dc77f5" y="307.584"/>
      </g>
     </g>
     <g id="text_2">
      <!-- 50 -->
      <g transform="translate(107.340084 322.182437)scale(0.1 -0.1)">
       <defs>
        <path d="M 691 4666 
L 3169 4666 
L 3169 4134 
L 1269 4134 
L 1269 2991 
Q 1406 3038 1543 3061 
Q 1681 3084 1819 3084 
Q 2600 3084 3056 2656 
Q 3513 2228 3513 1497 
Q 3513 744 3044 326 
Q 2575 -91 1722 -91 
Q 1428 -91 1123 -41 
Q 819 9 494 109 
L 494 744 
Q 775 591 1075 516 
Q 1375 441 1709 441 
Q 2250 441 2565 725 
Q 2881 1009 2881 1497 
Q 2881 1984 2565 2268 
Q 2250 2553 1709 2553 
Q 1456 2553 1204 2497 
Q 953 2441 691 2322 
L 691 4666 
z
" id="DejaVuSans-35" transform="scale(0.015625)"/>
       </defs>
       <use xlink:href="#DejaVuSans-35"/>
       <use x="63.623047" xlink:href="#DejaVuSans-30"/>
      </g>
     </g>
    </g>
    <g id="xtick_3">
     <g id="line2d_3">
      <g>
       <use style="stroke:#000000;stroke-width:0.8;" x="154.386111" xlink:href="#m53f9dc77f5" y="307.584"/>
      </g>
     </g>
     <g id="text_3">
      <!-- 100 -->
      <g transform="translate(144.842361 322.182437)scale(0.1 -0.1)">
       <defs>
        <path d="M 794 531 
L 1825 531 
L 1825 4091 
L 703 3866 
L 703 4441 
L 1819 4666 
L 2450 4666 
L 2450 531 
L 3481 531 
L 3481 0 
L 794 0 
L 794 531 
z
" id="DejaVuSans-31" transform="scale(0.015625)"/>
       </defs>
       <use xlink:href="#DejaVuSans-31"/>
       <use x="63.623047" xlink:href="#DejaVuSans-30"/>
       <use x="127.246094" xlink:href="#DejaVuSans-30"/>
      </g>
     </g>
    </g>
    <g id="xtick_4">
     <g id="line2d_4">
      <g>
       <use style="stroke:#000000;stroke-width:0.8;" x="195.069638" xlink:href="#m53f9dc77f5" y="307.584"/>
      </g>
     </g>
     <g id="text_4">
      <!-- 150 -->
      <g transform="translate(185.525888 322.182437)scale(0.1 -0.1)">
       <use xlink:href="#DejaVuSans-31"/>
       <use x="63.623047" xlink:href="#DejaVuSans-35"/>
       <use x="127.246094" xlink:href="#DejaVuSans-30"/>
      </g>
     </g>
    </g>
    <g id="xtick_5">
     <g id="line2d_5">
      <g>
       <use style="stroke:#000000;stroke-width:0.8;" x="235.753165" xlink:href="#m53f9dc77f5" y="307.584"/>
      </g>
     </g>
     <g id="text_5">
      <!-- 200 -->
      <g transform="translate(226.209415 322.182437)scale(0.1 -0.1)">
       <defs>
        <path d="M 1228 531 
L 3431 531 
L 3431 0 
L 469 0 
L 469 531 
Q 828 903 1448 1529 
Q 2069 2156 2228 2338 
Q 2531 2678 2651 2914 
Q 2772 3150 2772 3378 
Q 2772 3750 2511 3984 
Q 2250 4219 1831 4219 
Q 1534 4219 1204 4116 
Q 875 4013 500 3803 
L 500 4441 
Q 881 4594 1212 4672 
Q 1544 4750 1819 4750 
Q 2544 4750 2975 4387 
Q 3406 4025 3406 3419 
Q 3406 3131 3298 2873 
Q 3191 2616 2906 2266 
Q 2828 2175 2409 1742 
Q 1991 1309 1228 531 
z
" id="DejaVuSans-32" transform="scale(0.015625)"/>
       </defs>
       <use xlink:href="#DejaVuSans-32"/>
       <use x="63.623047" xlink:href="#DejaVuSans-30"/>
       <use x="127.246094" xlink:href="#DejaVuSans-30"/>
      </g>
     </g>
    </g>
    <g id="xtick_6">
     <g id="line2d_6">
      <g>
       <use style="stroke:#000000;stroke-width:0.8;" x="276.436692" xlink:href="#m53f9dc77f5" y="307.584"/>
      </g>
     </g>
     <g id="text_6">
      <!-- 250 -->
      <g transform="translate(266.892942 322.182437)scale(0.1 -0.1)">
       <use xlink:href="#DejaVuSans-32"/>
       <use x="63.623047" xlink:href="#DejaVuSans-35"/>
       <use x="127.246094" xlink:href="#DejaVuSans-30"/>
      </g>
     </g>
    </g>
    <g id="xtick_7">
     <g id="line2d_7">
      <g>
       <use style="stroke:#000000;stroke-width:0.8;" x="317.120219" xlink:href="#m53f9dc77f5" y="307.584"/>
      </g>
     </g>
     <g id="text_7">
      <!-- 300 -->
      <g transform="translate(307.576469 322.182437)scale(0.1 -0.1)">
       <defs>
        <path d="M 2597 2516 
Q 3050 2419 3304 2112 
Q 3559 1806 3559 1356 
Q 3559 666 3084 287 
Q 2609 -91 1734 -91 
Q 1441 -91 1130 -33 
Q 819 25 488 141 
L 488 750 
Q 750 597 1062 519 
Q 1375 441 1716 441 
Q 2309 441 2620 675 
Q 2931 909 2931 1356 
Q 2931 1769 2642 2001 
Q 2353 2234 1838 2234 
L 1294 2234 
L 1294 2753 
L 1863 2753 
Q 2328 2753 2575 2939 
Q 2822 3125 2822 3475 
Q 2822 3834 2567 4026 
Q 2313 4219 1838 4219 
Q 1578 4219 1281 4162 
Q 984 4106 628 3988 
L 628 4550 
Q 988 4650 1302 4700 
Q 1616 4750 1894 4750 
Q 2613 4750 3031 4423 
Q 3450 4097 3450 3541 
Q 3450 3153 3228 2886 
Q 3006 2619 2597 2516 
z
" id="DejaVuSans-33" transform="scale(0.015625)"/>
       </defs>
       <use xlink:href="#DejaVuSans-33"/>
       <use x="63.623047" xlink:href="#DejaVuSans-30"/>
       <use x="127.246094" xlink:href="#DejaVuSans-30"/>
      </g>
     </g>
    </g>
    <g id="xtick_8">
     <g id="line2d_8">
      <g>
       <use style="stroke:#000000;stroke-width:0.8;" x="357.803746" xlink:href="#m53f9dc77f5" y="307.584"/>
      </g>
     </g>
     <g id="text_8">
      <!-- 350 -->
      <g transform="translate(348.259996 322.182437)scale(0.1 -0.1)">
       <use xlink:href="#DejaVuSans-33"/>
       <use x="63.623047" xlink:href="#DejaVuSans-35"/>
       <use x="127.246094" xlink:href="#DejaVuSans-30"/>
      </g>
     </g>
    </g>
    <g id="xtick_9">
     <g id="line2d_9">
      <g>
       <use style="stroke:#000000;stroke-width:0.8;" x="398.487273" xlink:href="#m53f9dc77f5" y="307.584"/>
      </g>
     </g>
     <g id="text_9">
      <!-- 400 -->
      <g transform="translate(388.943523 322.182437)scale(0.1 -0.1)">
       <defs>
        <path d="M 2419 4116 
L 825 1625 
L 2419 1625 
L 2419 4116 
z
M 2253 4666 
L 3047 4666 
L 3047 1625 
L 3713 1625 
L 3713 1100 
L 3047 1100 
L 3047 0 
L 2419 0 
L 2419 1100 
L 313 1100 
L 313 1709 
L 2253 4666 
z
" id="DejaVuSans-34" transform="scale(0.015625)"/>
       </defs>
       <use xlink:href="#DejaVuSans-34"/>
       <use x="63.623047" xlink:href="#DejaVuSans-30"/>
       <use x="127.246094" xlink:href="#DejaVuSans-30"/>
      </g>
     </g>
    </g>
    <g id="text_10">
     <!-- Epoch -->
     <g transform="translate(213.193594 339.659781)scale(0.15 -0.15)">
      <defs>
       <path d="M 628 4666 
L 3578 4666 
L 3578 4134 
L 1259 4134 
L 1259 2753 
L 3481 2753 
L 3481 2222 
L 1259 2222 
L 1259 531 
L 3634 531 
L 3634 0 
L 628 0 
L 628 4666 
z
" id="DejaVuSans-45" transform="scale(0.015625)"/>
       <path d="M 1159 525 
L 1159 -1331 
L 581 -1331 
L 581 3500 
L 1159 3500 
L 1159 2969 
Q 1341 3281 1617 3432 
Q 1894 3584 2278 3584 
Q 2916 3584 3314 3078 
Q 3713 2572 3713 1747 
Q 3713 922 3314 415 
Q 2916 -91 2278 -91 
Q 1894 -91 1617 61 
Q 1341 213 1159 525 
z
M 3116 1747 
Q 3116 2381 2855 2742 
Q 2594 3103 2138 3103 
Q 1681 3103 1420 2742 
Q 1159 2381 1159 1747 
Q 1159 1113 1420 752 
Q 1681 391 2138 391 
Q 2594 391 2855 752 
Q 3116 1113 3116 1747 
z
" id="DejaVuSans-70" transform="scale(0.015625)"/>
       <path d="M 1959 3097 
Q 1497 3097 1228 2736 
Q 959 2375 959 1747 
Q 959 1119 1226 758 
Q 1494 397 1959 397 
Q 2419 397 2687 759 
Q 2956 1122 2956 1747 
Q 2956 2369 2687 2733 
Q 2419 3097 1959 3097 
z
M 1959 3584 
Q 2709 3584 3137 3096 
Q 3566 2609 3566 1747 
Q 3566 888 3137 398 
Q 2709 -91 1959 -91 
Q 1206 -91 779 398 
Q 353 888 353 1747 
Q 353 2609 779 3096 
Q 1206 3584 1959 3584 
z
" id="DejaVuSans-6f" transform="scale(0.015625)"/>
       <path d="M 3122 3366 
L 3122 2828 
Q 2878 2963 2633 3030 
Q 2388 3097 2138 3097 
Q 1578 3097 1268 2742 
Q 959 2388 959 1747 
Q 959 1106 1268 751 
Q 1578 397 2138 397 
Q 2388 397 2633 464 
Q 2878 531 3122 666 
L 3122 134 
Q 2881 22 2623 -34 
Q 2366 -91 2075 -91 
Q 1284 -91 818 406 
Q 353 903 353 1747 
Q 353 2603 823 3093 
Q 1294 3584 2113 3584 
Q 2378 3584 2631 3529 
Q 2884 3475 3122 3366 
z
" id="DejaVuSans-63" transform="scale(0.015625)"/>
       <path d="M 3513 2113 
L 3513 0 
L 2938 0 
L 2938 2094 
Q 2938 2591 2744 2837 
Q 2550 3084 2163 3084 
Q 1697 3084 1428 2787 
Q 1159 2491 1159 1978 
L 1159 0 
L 581 0 
L 581 4863 
L 1159 4863 
L 1159 2956 
Q 1366 3272 1645 3428 
Q 1925 3584 2291 3584 
Q 2894 3584 3203 3211 
Q 3513 2838 3513 2113 
z
" id="DejaVuSans-68" transform="scale(0.015625)"/>
      </defs>
      <use xlink:href="#DejaVuSans-45"/>
      <use x="63.183594" xlink:href="#DejaVuSans-70"/>
      <use x="126.660156" xlink:href="#DejaVuSans-6f"/>
      <use x="187.841797" xlink:href="#DejaVuSans-63"/>
      <use x="242.822266" xlink:href="#DejaVuSans-68"/>
     </g>
    </g>
   </g>
   <g id="matplotlib.axis_2">
    <g id="ytick_1">
     <g id="line2d_10">
      <defs>
       <path d="M 0 0 
L -3.5 0 
" id="m97c33cc4b1" style="stroke:#000000;stroke-width:0.8;"/>
      </defs>
      <g>
       <use style="stroke:#000000;stroke-width:0.8;" x="57.6" xlink:href="#m97c33cc4b1" y="307.403917"/>
      </g>
     </g>
     <g id="text_11">
      <!-- −1200 -->
      <g transform="translate(16.770313 311.203135)scale(0.1 -0.1)">
       <defs>
        <path d="M 678 2272 
L 4684 2272 
L 4684 1741 
L 678 1741 
L 678 2272 
z
" id="DejaVuSans-2212" transform="scale(0.015625)"/>
       </defs>
       <use xlink:href="#DejaVuSans-2212"/>
       <use x="83.789062" xlink:href="#DejaVuSans-31"/>
       <use x="147.412109" xlink:href="#DejaVuSans-32"/>
       <use x="211.035156" xlink:href="#DejaVuSans-30"/>
       <use x="274.658203" xlink:href="#DejaVuSans-30"/>
      </g>
     </g>
    </g>
    <g id="ytick_2">
     <g id="line2d_11">
      <g>
       <use style="stroke:#000000;stroke-width:0.8;" x="57.6" xlink:href="#m97c33cc4b1" y="261.358226"/>
      </g>
     </g>
     <g id="text_12">
      <!-- −1000 -->
      <g transform="translate(16.770313 265.157445)scale(0.1 -0.1)">
       <use xlink:href="#DejaVuSans-2212"/>
       <use x="83.789062" xlink:href="#DejaVuSans-31"/>
       <use x="147.412109" xlink:href="#DejaVuSans-30"/>
       <use x="211.035156" xlink:href="#DejaVuSans-30"/>
       <use x="274.658203" xlink:href="#DejaVuSans-30"/>
      </g>
     </g>
    </g>
    <g id="ytick_3">
     <g id="line2d_12">
      <g>
       <use style="stroke:#000000;stroke-width:0.8;" x="57.6" xlink:href="#m97c33cc4b1" y="215.312536"/>
      </g>
     </g>
     <g id="text_13">
      <!-- −800 -->
      <g transform="translate(23.132812 219.111755)scale(0.1 -0.1)">
       <defs>
        <path d="M 2034 2216 
Q 1584 2216 1326 1975 
Q 1069 1734 1069 1313 
Q 1069 891 1326 650 
Q 1584 409 2034 409 
Q 2484 409 2743 651 
Q 3003 894 3003 1313 
Q 3003 1734 2745 1975 
Q 2488 2216 2034 2216 
z
M 1403 2484 
Q 997 2584 770 2862 
Q 544 3141 544 3541 
Q 544 4100 942 4425 
Q 1341 4750 2034 4750 
Q 2731 4750 3128 4425 
Q 3525 4100 3525 3541 
Q 3525 3141 3298 2862 
Q 3072 2584 2669 2484 
Q 3125 2378 3379 2068 
Q 3634 1759 3634 1313 
Q 3634 634 3220 271 
Q 2806 -91 2034 -91 
Q 1263 -91 848 271 
Q 434 634 434 1313 
Q 434 1759 690 2068 
Q 947 2378 1403 2484 
z
M 1172 3481 
Q 1172 3119 1398 2916 
Q 1625 2713 2034 2713 
Q 2441 2713 2670 2916 
Q 2900 3119 2900 3481 
Q 2900 3844 2670 4047 
Q 2441 4250 2034 4250 
Q 1625 4250 1398 4047 
Q 1172 3844 1172 3481 
z
" id="DejaVuSans-38" transform="scale(0.015625)"/>
       </defs>
       <use xlink:href="#DejaVuSans-2212"/>
       <use x="83.789062" xlink:href="#DejaVuSans-38"/>
       <use x="147.412109" xlink:href="#DejaVuSans-30"/>
       <use x="211.035156" xlink:href="#DejaVuSans-30"/>
      </g>
     </g>
    </g>
    <g id="ytick_4">
     <g id="line2d_13">
      <g>
       <use style="stroke:#000000;stroke-width:0.8;" x="57.6" xlink:href="#m97c33cc4b1" y="169.266845"/>
      </g>
     </g>
     <g id="text_14">
      <!-- −600 -->
      <g transform="translate(23.132812 173.066064)scale(0.1 -0.1)">
       <defs>
        <path d="M 2113 2584 
Q 1688 2584 1439 2293 
Q 1191 2003 1191 1497 
Q 1191 994 1439 701 
Q 1688 409 2113 409 
Q 2538 409 2786 701 
Q 3034 994 3034 1497 
Q 3034 2003 2786 2293 
Q 2538 2584 2113 2584 
z
M 3366 4563 
L 3366 3988 
Q 3128 4100 2886 4159 
Q 2644 4219 2406 4219 
Q 1781 4219 1451 3797 
Q 1122 3375 1075 2522 
Q 1259 2794 1537 2939 
Q 1816 3084 2150 3084 
Q 2853 3084 3261 2657 
Q 3669 2231 3669 1497 
Q 3669 778 3244 343 
Q 2819 -91 2113 -91 
Q 1303 -91 875 529 
Q 447 1150 447 2328 
Q 447 3434 972 4092 
Q 1497 4750 2381 4750 
Q 2619 4750 2861 4703 
Q 3103 4656 3366 4563 
z
" id="DejaVuSans-36" transform="scale(0.015625)"/>
       </defs>
       <use xlink:href="#DejaVuSans-2212"/>
       <use x="83.789062" xlink:href="#DejaVuSans-36"/>
       <use x="147.412109" xlink:href="#DejaVuSans-30"/>
       <use x="211.035156" xlink:href="#DejaVuSans-30"/>
      </g>
     </g>
    </g>
    <g id="ytick_5">
     <g id="line2d_14">
      <g>
       <use style="stroke:#000000;stroke-width:0.8;" x="57.6" xlink:href="#m97c33cc4b1" y="123.221155"/>
      </g>
     </g>
     <g id="text_15">
      <!-- −400 -->
      <g transform="translate(23.132812 127.020374)scale(0.1 -0.1)">
       <use xlink:href="#DejaVuSans-2212"/>
       <use x="83.789062" xlink:href="#DejaVuSans-34"/>
       <use x="147.412109" xlink:href="#DejaVuSans-30"/>
       <use x="211.035156" xlink:href="#DejaVuSans-30"/>
      </g>
     </g>
    </g>
    <g id="ytick_6">
     <g id="line2d_15">
      <g>
       <use style="stroke:#000000;stroke-width:0.8;" x="57.6" xlink:href="#m97c33cc4b1" y="77.175465"/>
      </g>
     </g>
     <g id="text_16">
      <!-- −200 -->
      <g transform="translate(23.132812 80.974684)scale(0.1 -0.1)">
       <use xlink:href="#DejaVuSans-2212"/>
       <use x="83.789062" xlink:href="#DejaVuSans-32"/>
       <use x="147.412109" xlink:href="#DejaVuSans-30"/>
       <use x="211.035156" xlink:href="#DejaVuSans-30"/>
      </g>
     </g>
    </g>
    <g id="text_17">
     <!-- Loss -->
     <g transform="translate(9.650781 190.978781)rotate(-90)scale(0.15 -0.15)">
      <defs>
       <path d="M 628 4666 
L 1259 4666 
L 1259 531 
L 3531 531 
L 3531 0 
L 628 0 
L 628 4666 
z
" id="DejaVuSans-4c" transform="scale(0.015625)"/>
       <path d="M 2834 3397 
L 2834 2853 
Q 2591 2978 2328 3040 
Q 2066 3103 1784 3103 
Q 1356 3103 1142 2972 
Q 928 2841 928 2578 
Q 928 2378 1081 2264 
Q 1234 2150 1697 2047 
L 1894 2003 
Q 2506 1872 2764 1633 
Q 3022 1394 3022 966 
Q 3022 478 2636 193 
Q 2250 -91 1575 -91 
Q 1294 -91 989 -36 
Q 684 19 347 128 
L 347 722 
Q 666 556 975 473 
Q 1284 391 1588 391 
Q 1994 391 2212 530 
Q 2431 669 2431 922 
Q 2431 1156 2273 1281 
Q 2116 1406 1581 1522 
L 1381 1569 
Q 847 1681 609 1914 
Q 372 2147 372 2553 
Q 372 3047 722 3315 
Q 1072 3584 1716 3584 
Q 2034 3584 2315 3537 
Q 2597 3491 2834 3397 
z
" id="DejaVuSans-73" transform="scale(0.015625)"/>
      </defs>
      <use xlink:href="#DejaVuSans-4c"/>
      <use x="53.962891" xlink:href="#DejaVuSans-6f"/>
      <use x="115.144531" xlink:href="#DejaVuSans-73"/>
      <use x="167.244141" xlink:href="#DejaVuSans-73"/>
     </g>
    </g>
   </g>
   <g id="line2d_16">
    <path clip-path="url(#pa13b26af47)" d="M 73.832727 53.568 
L 74.646398 104.640882 
L 75.460068 116.258081 
L 76.273739 124.843021 
L 77.087409 147.042647 
L 77.90108 133.326288 
L 78.714751 151.950596 
L 79.528421 166.231759 
L 80.342092 161.02836 
L 81.155762 180.646874 
L 81.969433 173.79508 
L 82.783103 197.762137 
L 83.596774 206.90785 
L 84.410444 191.6615 
L 85.224115 203.934601 
L 86.037785 210.930445 
L 86.851456 212.494879 
L 87.665126 208.521773 
L 88.478797 216.957096 
L 89.292468 212.959943 
L 90.106138 221.250216 
L 90.919809 213.327948 
L 91.733479 211.605061 
L 92.54715 220.145713 
L 93.36082 231.014602 
L 94.174491 220.178067 
L 94.988161 194.121843 
L 95.801832 196.665726 
L 96.615502 222.318224 
L 97.429173 232.055932 
L 98.242843 225.872409 
L 99.056514 226.602736 
L 99.870185 228.727907 
L 100.683855 242.005247 
L 101.497526 219.699726 
L 102.311196 228.051529 
L 103.124867 234.824538 
L 103.938537 234.342376 
L 104.752208 231.625341 
L 105.565878 242.6005 
L 106.379549 243.351607 
L 107.193219 246.38402 
L 108.00689 229.873234 
L 108.82056 246.140926 
L 109.634231 250.750768 
L 110.447902 237.656673 
L 111.261572 231.29223 
L 112.075243 232.44831 
L 112.888913 237.533971 
L 113.702584 237.139047 
L 114.516254 231.311458 
L 115.329925 246.791539 
L 116.143595 252.547961 
L 116.957266 252.007737 
L 117.770936 246.490369 
L 118.584607 244.34576 
L 119.398278 253.045943 
L 120.211948 257.61539 
L 121.025619 260.912351 
L 121.839289 242.639488 
L 122.65296 248.683283 
L 123.46663 245.440997 
L 124.280301 244.239764 
L 125.093971 252.036928 
L 125.907642 241.034646 
L 126.721312 254.901972 
L 127.534983 251.206776 
L 128.348653 227.633281 
L 129.162324 249.524098 
L 129.975995 250.686809 
L 130.789665 253.763286 
L 131.603336 241.356248 
L 132.417006 240.645451 
L 133.230677 255.296788 
L 134.044347 246.536001 
L 134.858018 245.73819 
L 135.671688 239.602655 
L 136.485359 249.545806 
L 137.299029 244.011738 
L 138.1127 245.388922 
L 138.92637 255.539553 
L 139.740041 246.450736 
L 140.553712 241.953361 
L 141.367382 247.842694 
L 142.181053 244.250608 
L 142.994723 244.641723 
L 143.808394 253.949781 
L 144.622064 236.621746 
L 145.435735 240.312218 
L 146.249405 245.893644 
L 147.063076 237.359302 
L 147.876746 239.516184 
L 148.690417 244.517305 
L 149.504087 248.255082 
L 150.317758 252.741796 
L 151.131429 247.372514 
L 151.945099 245.522035 
L 152.75877 250.577882 
L 153.57244 252.695872 
L 154.386111 244.317286 
L 155.199781 243.727381 
L 156.013452 254.736911 
L 156.827122 251.300253 
L 157.640793 252.94102 
L 158.454463 247.592564 
L 159.268134 256.841894 
L 160.081805 254.911608 
L 160.895475 263.876605 
L 161.709146 271.331906 
L 162.522816 270.959068 
L 163.336487 246.149156 
L 164.150157 245.763417 
L 164.963828 252.143137 
L 166.591169 262.613305 
L 167.404839 255.142545 
L 168.21851 263.424275 
L 169.03218 252.816475 
L 169.845851 253.131778 
L 170.659522 246.212398 
L 171.473192 269.840108 
L 172.286863 250.089651 
L 173.100533 252.38144 
L 173.914204 267.742347 
L 174.727874 256.462534 
L 175.541545 253.733055 
L 176.355215 249.688696 
L 177.168886 256.057645 
L 177.982556 266.847284 
L 178.796227 250.124018 
L 179.609897 262.770819 
L 180.423568 231.946862 
L 181.237239 252.148725 
L 182.050909 254.549527 
L 182.86458 261.606524 
L 183.67825 248.545353 
L 184.491921 250.831701 
L 185.305591 267.021797 
L 186.119262 259.647762 
L 186.932932 249.977229 
L 187.746603 249.979947 
L 188.560273 247.854724 
L 189.373944 241.055894 
L 190.187614 249.429714 
L 191.001285 251.699143 
L 191.814956 255.06583 
L 192.628626 247.134826 
L 193.442297 248.445459 
L 194.255967 254.704298 
L 195.069638 248.585664 
L 195.883308 261.674114 
L 196.696979 244.313978 
L 198.32432 261.613591 
L 199.13799 243.837528 
L 199.951661 252.48598 
L 200.765332 246.394449 
L 201.579002 251.483666 
L 202.392673 263.73158 
L 203.206343 252.697125 
L 204.020014 255.381013 
L 204.833684 262.202223 
L 205.647355 255.987398 
L 206.461025 268.213685 
L 207.274696 256.141916 
L 208.088366 264.795847 
L 208.902037 250.188639 
L 209.715707 250.670009 
L 210.529378 255.466544 
L 211.343049 256.944262 
L 212.156719 254.382271 
L 212.97039 261.718989 
L 213.78406 261.153557 
L 214.597731 267.957764 
L 215.411401 262.927871 
L 216.225072 256.237039 
L 217.038742 262.731477 
L 217.852413 248.698546 
L 218.666083 253.514113 
L 219.479754 266.557666 
L 220.293424 248.919978 
L 221.107095 267.08686 
L 221.920766 265.691068 
L 222.734436 257.594245 
L 223.548107 250.793634 
L 224.361777 255.700588 
L 225.175448 271.535902 
L 225.989118 256.180596 
L 226.802789 278.204477 
L 227.616459 269.862202 
L 228.43013 258.747425 
L 229.2438 263.826626 
L 230.057471 258.880015 
L 230.871141 264.846843 
L 231.684812 271.652663 
L 232.498483 257.10637 
L 233.312153 250.789302 
L 234.125824 274.867889 
L 234.939494 253.096914 
L 235.753165 263.925684 
L 236.566835 252.813741 
L 237.380506 260.648786 
L 238.194176 263.907225 
L 239.007847 261.964802 
L 239.821517 282.346797 
L 240.635188 270.945886 
L 241.448859 272.992545 
L 242.262529 267.425503 
L 243.0762 245.665006 
L 244.703541 272.540593 
L 245.517211 278.107472 
L 246.330882 263.541224 
L 247.144552 246.024987 
L 247.958223 255.452178 
L 248.771893 274.646758 
L 249.585564 275.507705 
L 250.399234 260.411254 
L 251.212905 261.669428 
L 252.026576 261.566798 
L 252.840246 269.009904 
L 253.653917 265.922826 
L 254.467587 255.545295 
L 255.281258 259.794754 
L 256.094928 259.607514 
L 256.908599 265.159678 
L 257.722269 267.659738 
L 258.53594 271.093058 
L 259.34961 280.967976 
L 260.163281 259.930578 
L 260.976951 255.640484 
L 261.790622 268.418115 
L 262.604293 270.429202 
L 263.417963 271.166555 
L 265.045304 256.145664 
L 265.858975 257.240318 
L 266.672645 262.693169 
L 267.486316 270.229695 
L 268.299986 266.549742 
L 269.113657 269.676395 
L 269.927327 278.398241 
L 270.740998 277.806493 
L 271.554668 280.703334 
L 272.368339 269.915196 
L 273.18201 278.742963 
L 273.99568 250.285079 
L 274.809351 283.853801 
L 275.623021 254.499042 
L 276.436692 256.08942 
L 277.250362 256.574576 
L 278.064033 265.816 
L 278.877703 270.948009 
L 279.691374 265.035582 
L 280.505044 275.507116 
L 281.318715 272.47017 
L 282.132386 261.120015 
L 282.946056 272.259415 
L 283.759727 270.396932 
L 284.573397 278.385105 
L 285.387068 266.203129 
L 286.200738 267.351585 
L 287.014409 277.568584 
L 287.828079 258.032922 
L 288.64175 281.893829 
L 289.45542 285.574338 
L 291.082761 269.203915 
L 291.896432 249.29901 
L 292.710103 264.746799 
L 293.523773 266.201953 
L 294.337444 263.608531 
L 295.151114 268.535454 
L 295.964785 278.130973 
L 296.778455 275.139228 
L 297.592126 267.297273 
L 298.405796 268.215339 
L 299.219467 283.896124 
L 300.033137 272.521731 
L 300.846808 280.021731 
L 301.660478 256.821232 
L 302.474149 280.209187 
L 303.28782 252.421812 
L 304.10149 272.566237 
L 304.915161 269.22186 
L 305.728831 275.485627 
L 306.542502 279.543016 
L 307.356172 272.975239 
L 308.169843 269.388475 
L 308.983513 287.127231 
L 309.797184 272.024391 
L 310.610854 263.049403 
L 311.424525 268.04247 
L 312.238195 272.195269 
L 313.051866 274.427962 
L 313.865537 258.725581 
L 314.679207 263.18075 
L 315.492878 272.024102 
L 316.306548 274.137808 
L 317.120219 287.309121 
L 317.933889 263.944807 
L 318.74756 276.543631 
L 319.56123 280.244883 
L 320.374901 286.745956 
L 321.188571 268.040679 
L 322.002242 268.182195 
L 322.815913 276.223078 
L 323.629583 275.130498 
L 324.443254 267.679454 
L 325.256924 278.554716 
L 326.070595 276.446158 
L 326.884265 285.044822 
L 327.697936 278.95726 
L 328.511606 265.33182 
L 329.325277 278.595082 
L 330.138947 276.597092 
L 330.952618 271.623867 
L 331.766288 276.700779 
L 332.579959 287.792417 
L 333.39363 286.896802 
L 334.2073 271.770324 
L 335.020971 282.52172 
L 335.834641 287.948632 
L 336.648312 267.43114 
L 337.461982 285.037391 
L 338.275653 277.692891 
L 339.089323 279.421497 
L 339.902994 284.183306 
L 340.716664 282.253105 
L 341.530335 277.870072 
L 342.344005 271.333036 
L 343.157676 253.355762 
L 344.785017 280.323038 
L 345.598688 280.865685 
L 346.412358 275.360848 
L 347.226029 287.656125 
L 348.039699 273.621205 
L 349.66704 280.597653 
L 350.480711 290.141015 
L 352.108052 268.154639 
L 352.921722 277.953105 
L 353.735393 272.452742 
L 354.549064 270.722751 
L 356.176405 280.932977 
L 356.990075 275.361215 
L 357.803746 270.924498 
L 358.617416 264.150736 
L 359.431087 281.330414 
L 360.244757 278.019921 
L 361.058428 273.045174 
L 361.872098 295.488 
L 362.685769 291.67175 
L 363.49944 265.951572 
L 364.31311 276.528664 
L 365.126781 283.436913 
L 365.940451 289.259514 
L 366.754122 278.760107 
L 367.567792 274.98951 
L 368.381463 272.802121 
L 369.195133 267.781585 
L 370.008804 275.535695 
L 370.822474 261.390809 
L 371.636145 284.858033 
L 372.449815 272.563628 
L 373.263486 269.87285 
L 374.077157 269.474951 
L 374.890827 285.343111 
L 375.704498 276.296444 
L 376.518168 275.425722 
L 377.331839 267.654104 
L 378.145509 267.327195 
L 378.95918 264.530527 
L 379.77285 291.14426 
L 380.586521 279.908197 
L 381.400191 265.962599 
L 382.213862 288.028745 
L 383.027532 276.575933 
L 383.841203 268.103318 
L 384.654874 284.627018 
L 385.468544 278.955537 
L 386.282215 289.228549 
L 387.095885 273.172395 
L 387.909556 278.221981 
L 388.723226 274.173125 
L 389.536897 275.14095 
L 390.350567 272.426339 
L 391.164238 278.791673 
L 391.977908 270.121281 
L 392.791579 270.218939 
L 393.605249 278.602953 
L 394.41892 275.601567 
L 395.232591 279.076598 
L 396.046261 281.651581 
L 397.673602 250.134107 
L 398.487273 272.853678 
L 398.487273 272.853678 
" style="fill:none;stroke:#1f77b4;stroke-linecap:square;stroke-width:1.5;"/>
   </g>
   <g id="line2d_17">
    <path clip-path="url(#pa13b26af47)" d="M 73.832727 108.19545 
L 74.646398 110.397728 
L 75.460068 127.975788 
L 76.273739 149.859828 
L 77.087409 147.300984 
L 77.90108 145.886718 
L 78.714751 173.028511 
L 79.528421 168.884433 
L 80.342092 173.252957 
L 81.155762 164.692984 
L 81.969433 195.220504 
L 82.783103 174.257067 
L 83.596774 201.879416 
L 84.410444 188.507751 
L 85.224115 209.854458 
L 86.037785 213.912147 
L 86.851456 216.067048 
L 87.665126 224.180947 
L 88.478797 208.922154 
L 89.292468 228.782189 
L 90.106138 193.612529 
L 90.919809 220.952815 
L 91.733479 198.874536 
L 92.54715 219.03131 
L 93.36082 220.009775 
L 94.174491 227.250651 
L 94.988161 56.71869 
L 95.801832 223.756159 
L 97.429173 230.951613 
L 98.242843 226.389407 
L 99.056514 235.58174 
L 100.683855 233.593858 
L 101.497526 226.375071 
L 102.311196 235.986167 
L 103.124867 237.465586 
L 103.938537 167.309698 
L 104.752208 245.016062 
L 105.565878 213.28148 
L 106.379549 240.233731 
L 107.193219 243.388204 
L 108.00689 231.253443 
L 108.82056 235.117375 
L 109.634231 243.537924 
L 110.447902 256.880298 
L 111.261572 230.793533 
L 112.888913 248.54216 
L 113.702584 242.056315 
L 114.516254 234.350494 
L 115.329925 240.409104 
L 116.143595 243.405897 
L 116.957266 245.615697 
L 117.770936 256.14248 
L 118.584607 241.576395 
L 120.211948 244.617498 
L 121.025619 248.760788 
L 121.839289 246.74738 
L 122.65296 241.684327 
L 123.46663 248.873292 
L 124.280301 239.29096 
L 125.093971 260.359267 
L 125.907642 247.21272 
L 126.721312 238.716042 
L 127.534983 249.805422 
L 128.348653 250.114611 
L 129.162324 244.37891 
L 129.975995 248.314632 
L 130.789665 245.633318 
L 131.603336 236.09655 
L 132.417006 245.517535 
L 133.230677 245.047384 
L 134.044347 232.039624 
L 134.858018 249.0615 
L 135.671688 250.280295 
L 136.485359 252.669815 
L 137.299029 250.780409 
L 138.1127 246.846701 
L 139.740041 240.937592 
L 140.553712 246.248155 
L 141.367382 246.124621 
L 142.181053 245.771884 
L 142.994723 254.872904 
L 143.808394 244.465658 
L 144.622064 246.013766 
L 145.435735 239.168227 
L 146.249405 249.605602 
L 147.063076 241.28774 
L 147.876746 249.525867 
L 148.690417 247.741901 
L 149.504087 242.358365 
L 150.317758 243.546328 
L 151.131429 256.166998 
L 151.945099 263.851211 
L 152.75877 228.000856 
L 153.57244 252.001952 
L 154.386111 240.851108 
L 155.199781 248.656631 
L 156.013452 244.198923 
L 156.827122 246.341099 
L 157.640793 252.668956 
L 158.454463 256.462085 
L 159.268134 248.859821 
L 160.081805 249.335684 
L 160.895475 250.554581 
L 161.709146 250.440014 
L 162.522816 257.525235 
L 163.336487 250.435121 
L 164.150157 259.112918 
L 164.963828 256.813386 
L 165.777498 245.242451 
L 166.591169 258.371525 
L 167.404839 261.197112 
L 168.21851 253.379432 
L 169.03218 250.470745 
L 169.845851 249.432507 
L 170.659522 251.161226 
L 171.473192 252.564848 
L 172.286863 245.695853 
L 173.100533 248.464453 
L 173.914204 246.295626 
L 174.727874 258.555161 
L 175.541545 233.533845 
L 176.355215 258.93845 
L 177.168886 250.586267 
L 177.982556 243.782717 
L 178.796227 253.214581 
L 179.609897 265.499111 
L 181.237239 250.794 
L 182.050909 254.64701 
L 183.67825 247.311726 
L 184.491921 253.764527 
L 185.305591 249.746169 
L 186.119262 261.586567 
L 186.932932 261.727415 
L 187.746603 267.987005 
L 188.560273 261.815272 
L 189.373944 253.534432 
L 190.187614 255.728434 
L 191.001285 259.117629 
L 191.814956 267.26431 
L 192.628626 259.406611 
L 193.442297 257.669548 
L 194.255967 255.022283 
L 195.069638 262.831776 
L 195.883308 261.34112 
L 196.696979 255.186321 
L 197.510649 261.80392 
L 198.32432 249.508047 
L 199.13799 264.158198 
L 199.951661 254.531751 
L 200.765332 241.626019 
L 201.579002 246.49161 
L 202.392673 249.142561 
L 203.206343 250.490226 
L 204.020014 255.994978 
L 204.833684 249.565045 
L 205.647355 266.103005 
L 206.461025 255.404511 
L 207.274696 259.535435 
L 208.088366 257.484777 
L 208.902037 259.454048 
L 209.715707 247.929052 
L 210.529378 242.696964 
L 211.343049 252.013123 
L 212.156719 247.843483 
L 212.97039 255.324261 
L 213.78406 258.973301 
L 214.597731 255.674055 
L 215.411401 255.152119 
L 216.225072 262.42736 
L 217.038742 266.056732 
L 217.852413 262.431279 
L 218.666083 253.269746 
L 219.479754 267.124111 
L 220.293424 269.903099 
L 221.107095 253.384595 
L 221.920766 265.72404 
L 222.734436 248.487399 
L 223.548107 253.735547 
L 224.361777 266.366762 
L 225.175448 266.166294 
L 225.989118 252.265016 
L 226.802789 260.246156 
L 227.616459 264.806895 
L 228.43013 260.32391 
L 229.2438 267.502167 
L 230.057471 252.992945 
L 230.871141 254.102295 
L 231.684812 263.036233 
L 232.498483 263.407962 
L 233.312153 264.550395 
L 234.125824 271.6379 
L 234.939494 260.084486 
L 235.753165 269.178722 
L 236.566835 268.406677 
L 237.380506 263.822161 
L 238.194176 261.791336 
L 239.007847 254.392226 
L 239.821517 253.020423 
L 240.635188 254.398325 
L 241.448859 262.321733 
L 242.262529 263.125404 
L 243.0762 269.012904 
L 243.88987 258.606551 
L 244.703541 253.848441 
L 245.517211 262.921471 
L 246.330882 254.181283 
L 247.144552 249.496706 
L 247.958223 254.857069 
L 248.771893 267.11324 
L 249.585564 265.222871 
L 250.399234 261.344782 
L 251.212905 258.527822 
L 252.026576 256.463787 
L 252.840246 267.149845 
L 253.653917 262.626208 
L 254.467587 259.404766 
L 255.281258 258.417507 
L 256.094928 253.269379 
L 256.908599 265.546271 
L 257.722269 259.26685 
L 258.53594 267.517109 
L 259.34961 266.76711 
L 260.163281 251.364144 
L 260.976951 264.008905 
L 261.790622 262.055 
L 262.604293 278.854705 
L 263.417963 277.439973 
L 264.231634 265.472206 
L 265.045304 251.841681 
L 265.858975 258.697101 
L 266.672645 256.722006 
L 267.486316 257.971147 
L 268.299986 264.437544 
L 269.113657 264.142383 
L 269.927327 275.44672 
L 270.740998 277.541524 
L 271.554668 268.379418 
L 272.368339 269.248377 
L 273.18201 268.197283 
L 273.99568 264.91682 
L 274.809351 275.07338 
L 275.623021 263.304216 
L 276.436692 259.793489 
L 277.250362 280.827002 
L 278.877703 240.651075 
L 279.691374 258.880884 
L 281.318715 264.89082 
L 282.132386 261.605659 
L 283.759727 267.671099 
L 284.573397 266.454614 
L 285.387068 260.59831 
L 286.200738 259.101618 
L 287.014409 264.702567 
L 287.828079 259.501908 
L 288.64175 256.941912 
L 289.45542 266.903821 
L 290.269091 270.044605 
L 291.082761 259.937328 
L 291.896432 273.467215 
L 292.710103 255.424017 
L 293.523773 272.837779 
L 294.337444 268.419797 
L 295.151114 265.418271 
L 295.964785 267.048407 
L 296.778455 272.888867 
L 297.592126 272.100594 
L 298.405796 252.526487 
L 299.219467 269.954406 
L 300.033137 266.768838 
L 300.846808 246.344714 
L 301.660478 270.228707 
L 302.474149 270.922919 
L 303.28782 255.855197 
L 304.10149 262.385111 
L 304.915161 270.529891 
L 305.728831 268.332152 
L 306.542502 270.649505 
L 307.356172 260.623292 
L 308.169843 275.889636 
L 308.983513 266.772903 
L 309.797184 278.543076 
L 310.610854 266.992203 
L 311.424525 266.97161 
L 312.238195 262.355897 
L 313.051866 268.694444 
L 313.865537 269.124797 
L 314.679207 264.15135 
L 315.492878 263.921579 
L 316.306548 268.630468 
L 317.120219 280.704981 
L 317.933889 263.276602 
L 318.74756 275.873704 
L 319.56123 277.571902 
L 320.374901 266.562071 
L 321.188571 259.091667 
L 322.815913 273.278138 
L 323.629583 266.622512 
L 324.443254 250.586993 
L 325.256924 266.818338 
L 326.070595 272.861231 
L 326.884265 266.441043 
L 327.697936 264.277944 
L 328.511606 261.681847 
L 329.325277 252.805816 
L 330.138947 261.140584 
L 330.952618 263.820954 
L 331.766288 277.765019 
L 332.579959 262.793715 
L 333.39363 275.41337 
L 334.2073 273.659394 
L 335.020971 281.52081 
L 335.834641 276.487089 
L 336.648312 276.398494 
L 337.461982 268.59702 
L 338.275653 268.595959 
L 339.089323 264.476572 
L 339.902994 269.769803 
L 340.716664 252.083698 
L 341.530335 273.767593 
L 342.344005 272.025824 
L 343.157676 280.565771 
L 343.971347 259.272524 
L 344.785017 257.581354 
L 345.598688 273.072053 
L 346.412358 267.115284 
L 347.226029 257.723811 
L 348.039699 265.486011 
L 348.85337 269.08261 
L 349.66704 278.666354 
L 350.480711 269.388275 
L 351.294381 282.633679 
L 352.108052 275.444757 
L 352.921722 278.809378 
L 353.735393 270.114049 
L 354.549064 267.989413 
L 355.362734 287.204458 
L 356.176405 274.80828 
L 356.990075 260.675506 
L 357.803746 263.248051 
L 358.617416 267.583267 
L 359.431087 267.664067 
L 360.244757 277.679652 
L 361.058428 273.570599 
L 361.872098 256.386993 
L 362.685769 258.916441 
L 363.49944 272.139118 
L 364.31311 271.417571 
L 365.126781 276.760986 
L 365.940451 275.102245 
L 366.754122 268.659143 
L 367.567792 273.699954 
L 368.381463 284.174407 
L 369.195133 277.862498 
L 370.008804 277.05185 
L 370.822474 276.99005 
L 371.636145 267.915523 
L 372.449815 278.856717 
L 373.263486 275.966692 
L 374.077157 274.791745 
L 374.890827 272.652529 
L 375.704498 266.927737 
L 376.518168 272.837089 
L 377.331839 265.843755 
L 378.145509 274.069388 
L 378.95918 268.336052 
L 379.77285 272.064062 
L 380.586521 264.079465 
L 381.400191 274.154034 
L 382.213862 269.711142 
L 383.027532 266.113474 
L 383.841203 258.354591 
L 384.654874 278.6433 
L 385.468544 278.701561 
L 386.282215 270.524812 
L 387.095885 266.176904 
L 387.909556 272.708417 
L 388.723226 268.532706 
L 389.536897 266.609338 
L 390.350567 286.459038 
L 391.977908 258.430694 
L 392.791579 269.887794 
L 393.605249 274.392606 
L 394.41892 275.636777 
L 395.232591 281.282869 
L 396.046261 276.395065 
L 396.859932 260.473383 
L 397.673602 273.675127 
L 398.487273 273.351784 
L 398.487273 273.351784 
" style="fill:none;stroke:#ff7f0e;stroke-linecap:square;stroke-width:1.5;"/>
   </g>
   <g id="patch_3">
    <path d="M 57.6 307.584 
L 57.6 41.472 
" style="fill:none;stroke:#000000;stroke-linecap:square;stroke-linejoin:miter;stroke-width:0.8;"/>
   </g>
   <g id="patch_4">
    <path d="M 414.72 307.584 
L 414.72 41.472 
" style="fill:none;stroke:#000000;stroke-linecap:square;stroke-linejoin:miter;stroke-width:0.8;"/>
   </g>
   <g id="patch_5">
    <path d="M 57.6 307.584 
L 414.72 307.584 
" style="fill:none;stroke:#000000;stroke-linecap:square;stroke-linejoin:miter;stroke-width:0.8;"/>
   </g>
   <g id="patch_6">
    <path d="M 57.6 41.472 
L 414.72 41.472 
" style="fill:none;stroke:#000000;stroke-linecap:square;stroke-linejoin:miter;stroke-width:0.8;"/>
   </g>
   <g id="legend_1">
    <g id="patch_7">
     <path d="M 303.845 78.82825 
L 407.72 78.82825 
Q 409.72 78.82825 409.72 76.82825 
L 409.72 48.472 
Q 409.72 46.472 407.72 46.472 
L 303.845 46.472 
Q 301.845 46.472 301.845 48.472 
L 301.845 76.82825 
Q 301.845 78.82825 303.845 78.82825 
z
" style="fill:#ffffff;opacity:0.8;stroke:#cccccc;stroke-linejoin:miter;"/>
    </g>
    <g id="line2d_18">
     <path d="M 305.845 54.570437 
L 325.845 54.570437 
" style="fill:none;stroke:#1f77b4;stroke-linecap:square;stroke-width:1.5;"/>
    </g>
    <g id="line2d_19"/>
    <g id="text_18">
     <!-- Train loss -->
     <g transform="translate(333.845 58.070437)scale(0.1 -0.1)">
      <defs>
       <path d="M -19 4666 
L 3928 4666 
L 3928 4134 
L 2272 4134 
L 2272 0 
L 1638 0 
L 1638 4134 
L -19 4134 
L -19 4666 
z
" id="DejaVuSans-54" transform="scale(0.015625)"/>
       <path d="M 2631 2963 
Q 2534 3019 2420 3045 
Q 2306 3072 2169 3072 
Q 1681 3072 1420 2755 
Q 1159 2438 1159 1844 
L 1159 0 
L 581 0 
L 581 3500 
L 1159 3500 
L 1159 2956 
Q 1341 3275 1631 3429 
Q 1922 3584 2338 3584 
Q 2397 3584 2469 3576 
Q 2541 3569 2628 3553 
L 2631 2963 
z
" id="DejaVuSans-72" transform="scale(0.015625)"/>
       <path d="M 2194 1759 
Q 1497 1759 1228 1600 
Q 959 1441 959 1056 
Q 959 750 1161 570 
Q 1363 391 1709 391 
Q 2188 391 2477 730 
Q 2766 1069 2766 1631 
L 2766 1759 
L 2194 1759 
z
M 3341 1997 
L 3341 0 
L 2766 0 
L 2766 531 
Q 2569 213 2275 61 
Q 1981 -91 1556 -91 
Q 1019 -91 701 211 
Q 384 513 384 1019 
Q 384 1609 779 1909 
Q 1175 2209 1959 2209 
L 2766 2209 
L 2766 2266 
Q 2766 2663 2505 2880 
Q 2244 3097 1772 3097 
Q 1472 3097 1187 3025 
Q 903 2953 641 2809 
L 641 3341 
Q 956 3463 1253 3523 
Q 1550 3584 1831 3584 
Q 2591 3584 2966 3190 
Q 3341 2797 3341 1997 
z
" id="DejaVuSans-61" transform="scale(0.015625)"/>
       <path d="M 603 3500 
L 1178 3500 
L 1178 0 
L 603 0 
L 603 3500 
z
M 603 4863 
L 1178 4863 
L 1178 4134 
L 603 4134 
L 603 4863 
z
" id="DejaVuSans-69" transform="scale(0.015625)"/>
       <path d="M 3513 2113 
L 3513 0 
L 2938 0 
L 2938 2094 
Q 2938 2591 2744 2837 
Q 2550 3084 2163 3084 
Q 1697 3084 1428 2787 
Q 1159 2491 1159 1978 
L 1159 0 
L 581 0 
L 581 3500 
L 1159 3500 
L 1159 2956 
Q 1366 3272 1645 3428 
Q 1925 3584 2291 3584 
Q 2894 3584 3203 3211 
Q 3513 2838 3513 2113 
z
" id="DejaVuSans-6e" transform="scale(0.015625)"/>
       <path id="DejaVuSans-20" transform="scale(0.015625)"/>
       <path d="M 603 4863 
L 1178 4863 
L 1178 0 
L 603 0 
L 603 4863 
z
" id="DejaVuSans-6c" transform="scale(0.015625)"/>
      </defs>
      <use xlink:href="#DejaVuSans-54"/>
      <use x="46.333984" xlink:href="#DejaVuSans-72"/>
      <use x="87.447266" xlink:href="#DejaVuSans-61"/>
      <use x="148.726562" xlink:href="#DejaVuSans-69"/>
      <use x="176.509766" xlink:href="#DejaVuSans-6e"/>
      <use x="239.888672" xlink:href="#DejaVuSans-20"/>
      <use x="271.675781" xlink:href="#DejaVuSans-6c"/>
      <use x="299.458984" xlink:href="#DejaVuSans-6f"/>
      <use x="360.640625" xlink:href="#DejaVuSans-73"/>
      <use x="412.740234" xlink:href="#DejaVuSans-73"/>
     </g>
    </g>
    <g id="line2d_20">
     <path d="M 305.845 69.248562 
L 325.845 69.248562 
" style="fill:none;stroke:#ff7f0e;stroke-linecap:square;stroke-width:1.5;"/>
    </g>
    <g id="line2d_21"/>
    <g id="text_19">
     <!-- Validation loss -->
     <g transform="translate(333.845 72.748562)scale(0.1 -0.1)">
      <defs>
       <path d="M 1831 0 
L 50 4666 
L 709 4666 
L 2188 738 
L 3669 4666 
L 4325 4666 
L 2547 0 
L 1831 0 
z
" id="DejaVuSans-56" transform="scale(0.015625)"/>
       <path d="M 2906 2969 
L 2906 4863 
L 3481 4863 
L 3481 0 
L 2906 0 
L 2906 525 
Q 2725 213 2448 61 
Q 2172 -91 1784 -91 
Q 1150 -91 751 415 
Q 353 922 353 1747 
Q 353 2572 751 3078 
Q 1150 3584 1784 3584 
Q 2172 3584 2448 3432 
Q 2725 3281 2906 2969 
z
M 947 1747 
Q 947 1113 1208 752 
Q 1469 391 1925 391 
Q 2381 391 2643 752 
Q 2906 1113 2906 1747 
Q 2906 2381 2643 2742 
Q 2381 3103 1925 3103 
Q 1469 3103 1208 2742 
Q 947 2381 947 1747 
z
" id="DejaVuSans-64" transform="scale(0.015625)"/>
       <path d="M 1172 4494 
L 1172 3500 
L 2356 3500 
L 2356 3053 
L 1172 3053 
L 1172 1153 
Q 1172 725 1289 603 
Q 1406 481 1766 481 
L 2356 481 
L 2356 0 
L 1766 0 
Q 1100 0 847 248 
Q 594 497 594 1153 
L 594 3053 
L 172 3053 
L 172 3500 
L 594 3500 
L 594 4494 
L 1172 4494 
z
" id="DejaVuSans-74" transform="scale(0.015625)"/>
      </defs>
      <use xlink:href="#DejaVuSans-56"/>
      <use x="60.658203" xlink:href="#DejaVuSans-61"/>
      <use x="121.9375" xlink:href="#DejaVuSans-6c"/>
      <use x="149.720703" xlink:href="#DejaVuSans-69"/>
      <use x="177.503906" xlink:href="#DejaVuSans-64"/>
      <use x="240.980469" xlink:href="#DejaVuSans-61"/>
      <use x="302.259766" xlink:href="#DejaVuSans-74"/>
      <use x="341.46875" xlink:href="#DejaVuSans-69"/>
      <use x="369.251953" xlink:href="#DejaVuSans-6f"/>
      <use x="430.433594" xlink:href="#DejaVuSans-6e"/>
      <use x="493.8125" xlink:href="#DejaVuSans-20"/>
      <use x="525.599609" xlink:href="#DejaVuSans-6c"/>
      <use x="553.382812" xlink:href="#DejaVuSans-6f"/>
      <use x="614.564453" xlink:href="#DejaVuSans-73"/>
      <use x="666.664062" xlink:href="#DejaVuSans-73"/>
     </g>
    </g>
   </g>
  </g>
 </g>
 <defs>
  <clipPath id="pa13b26af47">
   <rect height="266.112" width="357.12" x="57.6" y="41.472"/>
  </clipPath>
 </defs>
</svg>
