<?xml version="1.0" encoding="utf-8" standalone="no"?>
<!DOCTYPE svg PUBLIC "-//W3C//DTD SVG 1.1//EN"
  "http://www.w3.org/Graphics/SVG/1.1/DTD/svg11.dtd">
<svg height="345.6pt" version="1.1" viewBox="0 0 460.8 345.6" width="460.8pt" xmlns="http://www.w3.org/2000/svg" xmlns:xlink="http://www.w3.org/1999/xlink">
 <metadata>
  <rdf:RDF xmlns:cc="http://creativecommons.org/ns#" xmlns:dc="http://purl.org/dc/elements/1.1/" xmlns:rdf="http://www.w3.org/1999/02/22-rdf-syntax-ns#">
   <cc:Work>
    <dc:type rdf:resource="http://purl.org/dc/dcmitype/StillImage"/>
    <dc:date>2021-07-14T10:49:49.584862</dc:date>
    <dc:format>image/svg+xml</dc:format>
    <dc:creator>
     <cc:Agent>
      <dc:title>Matplotlib v3.4.2, https://matplotlib.org/</dc:title>
     </cc:Agent>
    </dc:creator>
   </cc:Work>
  </rdf:RDF>
 </metadata>
 <defs>
  <style type="text/css">*{stroke-linecap:butt;stroke-linejoin:round;}</style>
 </defs>
 <g id="figure_1">
  <g id="patch_1">
   <path d="M 0 345.6 
L 460.8 345.6 
L 460.8 0 
L 0 0 
z
" style="fill:#ffffff;"/>
  </g>
  <g id="axes_1">
   <g id="patch_2">
    <path d="M 57.6 307.584 
L 414.72 307.584 
L 414.72 41.472 
L 57.6 41.472 
z
" style="fill:#ffffff;"/>
   </g>
   <g id="matplotlib.axis_1">
    <g id="xtick_1">
     <g id="line2d_1">
      <defs>
       <path d="M 0 0 
L 0 3.5 
" id="m3263870e98" style="stroke:#000000;stroke-width:0.8;"/>
      </defs>
      <g>
       <use style="stroke:#000000;stroke-width:0.8;" x="73.019057" xlink:href="#m3263870e98" y="307.584"/>
      </g>
     </g>
     <g id="text_1">
      <!-- 0 -->
      <g transform="translate(69.837807 322.182437)scale(0.1 -0.1)">
       <defs>
        <path d="M 2034 4250 
Q 1547 4250 1301 3770 
Q 1056 3291 1056 2328 
Q 1056 1369 1301 889 
Q 1547 409 2034 409 
Q 2525 409 2770 889 
Q 3016 1369 3016 2328 
Q 3016 3291 2770 3770 
Q 2525 4250 2034 4250 
z
M 2034 4750 
Q 2819 4750 3233 4129 
Q 3647 3509 3647 2328 
Q 3647 1150 3233 529 
Q 2819 -91 2034 -91 
Q 1250 -91 836 529 
Q 422 1150 422 2328 
Q 422 3509 836 4129 
Q 1250 4750 2034 4750 
z
" id="DejaVuSans-30" transform="scale(0.015625)"/>
       </defs>
       <use xlink:href="#DejaVuSans-30"/>
      </g>
     </g>
    </g>
    <g id="xtick_2">
     <g id="line2d_2">
      <g>
       <use style="stroke:#000000;stroke-width:0.8;" x="113.702584" xlink:href="#m3263870e98" y="307.584"/>
      </g>
     </g>
     <g id="text_2">
      <!-- 50 -->
      <g transform="translate(107.340084 322.182437)scale(0.1 -0.1)">
       <defs>
        <path d="M 691 4666 
L 3169 4666 
L 3169 4134 
L 1269 4134 
L 1269 2991 
Q 1406 3038 1543 3061 
Q 1681 3084 1819 3084 
Q 2600 3084 3056 2656 
Q 3513 2228 3513 1497 
Q 3513 744 3044 326 
Q 2575 -91 1722 -91 
Q 1428 -91 1123 -41 
Q 819 9 494 109 
L 494 744 
Q 775 591 1075 516 
Q 1375 441 1709 441 
Q 2250 441 2565 725 
Q 2881 1009 2881 1497 
Q 2881 1984 2565 2268 
Q 2250 2553 1709 2553 
Q 1456 2553 1204 2497 
Q 953 2441 691 2322 
L 691 4666 
z
" id="DejaVuSans-35" transform="scale(0.015625)"/>
       </defs>
       <use xlink:href="#DejaVuSans-35"/>
       <use x="63.623047" xlink:href="#DejaVuSans-30"/>
      </g>
     </g>
    </g>
    <g id="xtick_3">
     <g id="line2d_3">
      <g>
       <use style="stroke:#000000;stroke-width:0.8;" x="154.386111" xlink:href="#m3263870e98" y="307.584"/>
      </g>
     </g>
     <g id="text_3">
      <!-- 100 -->
      <g transform="translate(144.842361 322.182437)scale(0.1 -0.1)">
       <defs>
        <path d="M 794 531 
L 1825 531 
L 1825 4091 
L 703 3866 
L 703 4441 
L 1819 4666 
L 2450 4666 
L 2450 531 
L 3481 531 
L 3481 0 
L 794 0 
L 794 531 
z
" id="DejaVuSans-31" transform="scale(0.015625)"/>
       </defs>
       <use xlink:href="#DejaVuSans-31"/>
       <use x="63.623047" xlink:href="#DejaVuSans-30"/>
       <use x="127.246094" xlink:href="#DejaVuSans-30"/>
      </g>
     </g>
    </g>
    <g id="xtick_4">
     <g id="line2d_4">
      <g>
       <use style="stroke:#000000;stroke-width:0.8;" x="195.069638" xlink:href="#m3263870e98" y="307.584"/>
      </g>
     </g>
     <g id="text_4">
      <!-- 150 -->
      <g transform="translate(185.525888 322.182437)scale(0.1 -0.1)">
       <use xlink:href="#DejaVuSans-31"/>
       <use x="63.623047" xlink:href="#DejaVuSans-35"/>
       <use x="127.246094" xlink:href="#DejaVuSans-30"/>
      </g>
     </g>
    </g>
    <g id="xtick_5">
     <g id="line2d_5">
      <g>
       <use style="stroke:#000000;stroke-width:0.8;" x="235.753165" xlink:href="#m3263870e98" y="307.584"/>
      </g>
     </g>
     <g id="text_5">
      <!-- 200 -->
      <g transform="translate(226.209415 322.182437)scale(0.1 -0.1)">
       <defs>
        <path d="M 1228 531 
L 3431 531 
L 3431 0 
L 469 0 
L 469 531 
Q 828 903 1448 1529 
Q 2069 2156 2228 2338 
Q 2531 2678 2651 2914 
Q 2772 3150 2772 3378 
Q 2772 3750 2511 3984 
Q 2250 4219 1831 4219 
Q 1534 4219 1204 4116 
Q 875 4013 500 3803 
L 500 4441 
Q 881 4594 1212 4672 
Q 1544 4750 1819 4750 
Q 2544 4750 2975 4387 
Q 3406 4025 3406 3419 
Q 3406 3131 3298 2873 
Q 3191 2616 2906 2266 
Q 2828 2175 2409 1742 
Q 1991 1309 1228 531 
z
" id="DejaVuSans-32" transform="scale(0.015625)"/>
       </defs>
       <use xlink:href="#DejaVuSans-32"/>
       <use x="63.623047" xlink:href="#DejaVuSans-30"/>
       <use x="127.246094" xlink:href="#DejaVuSans-30"/>
      </g>
     </g>
    </g>
    <g id="xtick_6">
     <g id="line2d_6">
      <g>
       <use style="stroke:#000000;stroke-width:0.8;" x="276.436692" xlink:href="#m3263870e98" y="307.584"/>
      </g>
     </g>
     <g id="text_6">
      <!-- 250 -->
      <g transform="translate(266.892942 322.182437)scale(0.1 -0.1)">
       <use xlink:href="#DejaVuSans-32"/>
       <use x="63.623047" xlink:href="#DejaVuSans-35"/>
       <use x="127.246094" xlink:href="#DejaVuSans-30"/>
      </g>
     </g>
    </g>
    <g id="xtick_7">
     <g id="line2d_7">
      <g>
       <use style="stroke:#000000;stroke-width:0.8;" x="317.120219" xlink:href="#m3263870e98" y="307.584"/>
      </g>
     </g>
     <g id="text_7">
      <!-- 300 -->
      <g transform="translate(307.576469 322.182437)scale(0.1 -0.1)">
       <defs>
        <path d="M 2597 2516 
Q 3050 2419 3304 2112 
Q 3559 1806 3559 1356 
Q 3559 666 3084 287 
Q 2609 -91 1734 -91 
Q 1441 -91 1130 -33 
Q 819 25 488 141 
L 488 750 
Q 750 597 1062 519 
Q 1375 441 1716 441 
Q 2309 441 2620 675 
Q 2931 909 2931 1356 
Q 2931 1769 2642 2001 
Q 2353 2234 1838 2234 
L 1294 2234 
L 1294 2753 
L 1863 2753 
Q 2328 2753 2575 2939 
Q 2822 3125 2822 3475 
Q 2822 3834 2567 4026 
Q 2313 4219 1838 4219 
Q 1578 4219 1281 4162 
Q 984 4106 628 3988 
L 628 4550 
Q 988 4650 1302 4700 
Q 1616 4750 1894 4750 
Q 2613 4750 3031 4423 
Q 3450 4097 3450 3541 
Q 3450 3153 3228 2886 
Q 3006 2619 2597 2516 
z
" id="DejaVuSans-33" transform="scale(0.015625)"/>
       </defs>
       <use xlink:href="#DejaVuSans-33"/>
       <use x="63.623047" xlink:href="#DejaVuSans-30"/>
       <use x="127.246094" xlink:href="#DejaVuSans-30"/>
      </g>
     </g>
    </g>
    <g id="xtick_8">
     <g id="line2d_8">
      <g>
       <use style="stroke:#000000;stroke-width:0.8;" x="357.803746" xlink:href="#m3263870e98" y="307.584"/>
      </g>
     </g>
     <g id="text_8">
      <!-- 350 -->
      <g transform="translate(348.259996 322.182437)scale(0.1 -0.1)">
       <use xlink:href="#DejaVuSans-33"/>
       <use x="63.623047" xlink:href="#DejaVuSans-35"/>
       <use x="127.246094" xlink:href="#DejaVuSans-30"/>
      </g>
     </g>
    </g>
    <g id="xtick_9">
     <g id="line2d_9">
      <g>
       <use style="stroke:#000000;stroke-width:0.8;" x="398.487273" xlink:href="#m3263870e98" y="307.584"/>
      </g>
     </g>
     <g id="text_9">
      <!-- 400 -->
      <g transform="translate(388.943523 322.182437)scale(0.1 -0.1)">
       <defs>
        <path d="M 2419 4116 
L 825 1625 
L 2419 1625 
L 2419 4116 
z
M 2253 4666 
L 3047 4666 
L 3047 1625 
L 3713 1625 
L 3713 1100 
L 3047 1100 
L 3047 0 
L 2419 0 
L 2419 1100 
L 313 1100 
L 313 1709 
L 2253 4666 
z
" id="DejaVuSans-34" transform="scale(0.015625)"/>
       </defs>
       <use xlink:href="#DejaVuSans-34"/>
       <use x="63.623047" xlink:href="#DejaVuSans-30"/>
       <use x="127.246094" xlink:href="#DejaVuSans-30"/>
      </g>
     </g>
    </g>
    <g id="text_10">
     <!-- Epoch -->
     <g transform="translate(213.193594 339.659781)scale(0.15 -0.15)">
      <defs>
       <path d="M 628 4666 
L 3578 4666 
L 3578 4134 
L 1259 4134 
L 1259 2753 
L 3481 2753 
L 3481 2222 
L 1259 2222 
L 1259 531 
L 3634 531 
L 3634 0 
L 628 0 
L 628 4666 
z
" id="DejaVuSans-45" transform="scale(0.015625)"/>
       <path d="M 1159 525 
L 1159 -1331 
L 581 -1331 
L 581 3500 
L 1159 3500 
L 1159 2969 
Q 1341 3281 1617 3432 
Q 1894 3584 2278 3584 
Q 2916 3584 3314 3078 
Q 3713 2572 3713 1747 
Q 3713 922 3314 415 
Q 2916 -91 2278 -91 
Q 1894 -91 1617 61 
Q 1341 213 1159 525 
z
M 3116 1747 
Q 3116 2381 2855 2742 
Q 2594 3103 2138 3103 
Q 1681 3103 1420 2742 
Q 1159 2381 1159 1747 
Q 1159 1113 1420 752 
Q 1681 391 2138 391 
Q 2594 391 2855 752 
Q 3116 1113 3116 1747 
z
" id="DejaVuSans-70" transform="scale(0.015625)"/>
       <path d="M 1959 3097 
Q 1497 3097 1228 2736 
Q 959 2375 959 1747 
Q 959 1119 1226 758 
Q 1494 397 1959 397 
Q 2419 397 2687 759 
Q 2956 1122 2956 1747 
Q 2956 2369 2687 2733 
Q 2419 3097 1959 3097 
z
M 1959 3584 
Q 2709 3584 3137 3096 
Q 3566 2609 3566 1747 
Q 3566 888 3137 398 
Q 2709 -91 1959 -91 
Q 1206 -91 779 398 
Q 353 888 353 1747 
Q 353 2609 779 3096 
Q 1206 3584 1959 3584 
z
" id="DejaVuSans-6f" transform="scale(0.015625)"/>
       <path d="M 3122 3366 
L 3122 2828 
Q 2878 2963 2633 3030 
Q 2388 3097 2138 3097 
Q 1578 3097 1268 2742 
Q 959 2388 959 1747 
Q 959 1106 1268 751 
Q 1578 397 2138 397 
Q 2388 397 2633 464 
Q 2878 531 3122 666 
L 3122 134 
Q 2881 22 2623 -34 
Q 2366 -91 2075 -91 
Q 1284 -91 818 406 
Q 353 903 353 1747 
Q 353 2603 823 3093 
Q 1294 3584 2113 3584 
Q 2378 3584 2631 3529 
Q 2884 3475 3122 3366 
z
" id="DejaVuSans-63" transform="scale(0.015625)"/>
       <path d="M 3513 2113 
L 3513 0 
L 2938 0 
L 2938 2094 
Q 2938 2591 2744 2837 
Q 2550 3084 2163 3084 
Q 1697 3084 1428 2787 
Q 1159 2491 1159 1978 
L 1159 0 
L 581 0 
L 581 4863 
L 1159 4863 
L 1159 2956 
Q 1366 3272 1645 3428 
Q 1925 3584 2291 3584 
Q 2894 3584 3203 3211 
Q 3513 2838 3513 2113 
z
" id="DejaVuSans-68" transform="scale(0.015625)"/>
      </defs>
      <use xlink:href="#DejaVuSans-45"/>
      <use x="63.183594" xlink:href="#DejaVuSans-70"/>
      <use x="126.660156" xlink:href="#DejaVuSans-6f"/>
      <use x="187.841797" xlink:href="#DejaVuSans-63"/>
      <use x="242.822266" xlink:href="#DejaVuSans-68"/>
     </g>
    </g>
   </g>
   <g id="matplotlib.axis_2">
    <g id="ytick_1">
     <g id="line2d_10">
      <defs>
       <path d="M 0 0 
L -3.5 0 
" id="m4833d7bc05" style="stroke:#000000;stroke-width:0.8;"/>
      </defs>
      <g>
       <use style="stroke:#000000;stroke-width:0.8;" x="57.6" xlink:href="#m4833d7bc05" y="289.661889"/>
      </g>
     </g>
     <g id="text_11">
      <!-- −1000 -->
      <g transform="translate(16.770313 293.461108)scale(0.1 -0.1)">
       <defs>
        <path d="M 678 2272 
L 4684 2272 
L 4684 1741 
L 678 1741 
L 678 2272 
z
" id="DejaVuSans-2212" transform="scale(0.015625)"/>
       </defs>
       <use xlink:href="#DejaVuSans-2212"/>
       <use x="83.789062" xlink:href="#DejaVuSans-31"/>
       <use x="147.412109" xlink:href="#DejaVuSans-30"/>
       <use x="211.035156" xlink:href="#DejaVuSans-30"/>
       <use x="274.658203" xlink:href="#DejaVuSans-30"/>
      </g>
     </g>
    </g>
    <g id="ytick_2">
     <g id="line2d_11">
      <g>
       <use style="stroke:#000000;stroke-width:0.8;" x="57.6" xlink:href="#m4833d7bc05" y="238.070199"/>
      </g>
     </g>
     <g id="text_12">
      <!-- −800 -->
      <g transform="translate(23.132812 241.869418)scale(0.1 -0.1)">
       <defs>
        <path d="M 2034 2216 
Q 1584 2216 1326 1975 
Q 1069 1734 1069 1313 
Q 1069 891 1326 650 
Q 1584 409 2034 409 
Q 2484 409 2743 651 
Q 3003 894 3003 1313 
Q 3003 1734 2745 1975 
Q 2488 2216 2034 2216 
z
M 1403 2484 
Q 997 2584 770 2862 
Q 544 3141 544 3541 
Q 544 4100 942 4425 
Q 1341 4750 2034 4750 
Q 2731 4750 3128 4425 
Q 3525 4100 3525 3541 
Q 3525 3141 3298 2862 
Q 3072 2584 2669 2484 
Q 3125 2378 3379 2068 
Q 3634 1759 3634 1313 
Q 3634 634 3220 271 
Q 2806 -91 2034 -91 
Q 1263 -91 848 271 
Q 434 634 434 1313 
Q 434 1759 690 2068 
Q 947 2378 1403 2484 
z
M 1172 3481 
Q 1172 3119 1398 2916 
Q 1625 2713 2034 2713 
Q 2441 2713 2670 2916 
Q 2900 3119 2900 3481 
Q 2900 3844 2670 4047 
Q 2441 4250 2034 4250 
Q 1625 4250 1398 4047 
Q 1172 3844 1172 3481 
z
" id="DejaVuSans-38" transform="scale(0.015625)"/>
       </defs>
       <use xlink:href="#DejaVuSans-2212"/>
       <use x="83.789062" xlink:href="#DejaVuSans-38"/>
       <use x="147.412109" xlink:href="#DejaVuSans-30"/>
       <use x="211.035156" xlink:href="#DejaVuSans-30"/>
      </g>
     </g>
    </g>
    <g id="ytick_3">
     <g id="line2d_12">
      <g>
       <use style="stroke:#000000;stroke-width:0.8;" x="57.6" xlink:href="#m4833d7bc05" y="186.478508"/>
      </g>
     </g>
     <g id="text_13">
      <!-- −600 -->
      <g transform="translate(23.132812 190.277727)scale(0.1 -0.1)">
       <defs>
        <path d="M 2113 2584 
Q 1688 2584 1439 2293 
Q 1191 2003 1191 1497 
Q 1191 994 1439 701 
Q 1688 409 2113 409 
Q 2538 409 2786 701 
Q 3034 994 3034 1497 
Q 3034 2003 2786 2293 
Q 2538 2584 2113 2584 
z
M 3366 4563 
L 3366 3988 
Q 3128 4100 2886 4159 
Q 2644 4219 2406 4219 
Q 1781 4219 1451 3797 
Q 1122 3375 1075 2522 
Q 1259 2794 1537 2939 
Q 1816 3084 2150 3084 
Q 2853 3084 3261 2657 
Q 3669 2231 3669 1497 
Q 3669 778 3244 343 
Q 2819 -91 2113 -91 
Q 1303 -91 875 529 
Q 447 1150 447 2328 
Q 447 3434 972 4092 
Q 1497 4750 2381 4750 
Q 2619 4750 2861 4703 
Q 3103 4656 3366 4563 
z
" id="DejaVuSans-36" transform="scale(0.015625)"/>
       </defs>
       <use xlink:href="#DejaVuSans-2212"/>
       <use x="83.789062" xlink:href="#DejaVuSans-36"/>
       <use x="147.412109" xlink:href="#DejaVuSans-30"/>
       <use x="211.035156" xlink:href="#DejaVuSans-30"/>
      </g>
     </g>
    </g>
    <g id="ytick_4">
     <g id="line2d_13">
      <g>
       <use style="stroke:#000000;stroke-width:0.8;" x="57.6" xlink:href="#m4833d7bc05" y="134.886818"/>
      </g>
     </g>
     <g id="text_14">
      <!-- −400 -->
      <g transform="translate(23.132812 138.686037)scale(0.1 -0.1)">
       <use xlink:href="#DejaVuSans-2212"/>
       <use x="83.789062" xlink:href="#DejaVuSans-34"/>
       <use x="147.412109" xlink:href="#DejaVuSans-30"/>
       <use x="211.035156" xlink:href="#DejaVuSans-30"/>
      </g>
     </g>
    </g>
    <g id="ytick_5">
     <g id="line2d_14">
      <g>
       <use style="stroke:#000000;stroke-width:0.8;" x="57.6" xlink:href="#m4833d7bc05" y="83.295128"/>
      </g>
     </g>
     <g id="text_15">
      <!-- −200 -->
      <g transform="translate(23.132812 87.094347)scale(0.1 -0.1)">
       <use xlink:href="#DejaVuSans-2212"/>
       <use x="83.789062" xlink:href="#DejaVuSans-32"/>
       <use x="147.412109" xlink:href="#DejaVuSans-30"/>
       <use x="211.035156" xlink:href="#DejaVuSans-30"/>
      </g>
     </g>
    </g>
    <g id="text_16">
     <!-- Loss -->
     <g transform="translate(9.650781 190.978781)rotate(-90)scale(0.15 -0.15)">
      <defs>
       <path d="M 628 4666 
L 1259 4666 
L 1259 531 
L 3531 531 
L 3531 0 
L 628 0 
L 628 4666 
z
" id="DejaVuSans-4c" transform="scale(0.015625)"/>
       <path d="M 2834 3397 
L 2834 2853 
Q 2591 2978 2328 3040 
Q 2066 3103 1784 3103 
Q 1356 3103 1142 2972 
Q 928 2841 928 2578 
Q 928 2378 1081 2264 
Q 1234 2150 1697 2047 
L 1894 2003 
Q 2506 1872 2764 1633 
Q 3022 1394 3022 966 
Q 3022 478 2636 193 
Q 2250 -91 1575 -91 
Q 1294 -91 989 -36 
Q 684 19 347 128 
L 347 722 
Q 666 556 975 473 
Q 1284 391 1588 391 
Q 1994 391 2212 530 
Q 2431 669 2431 922 
Q 2431 1156 2273 1281 
Q 2116 1406 1581 1522 
L 1381 1569 
Q 847 1681 609 1914 
Q 372 2147 372 2553 
Q 372 3047 722 3315 
Q 1072 3584 1716 3584 
Q 2034 3584 2315 3537 
Q 2597 3491 2834 3397 
z
" id="DejaVuSans-73" transform="scale(0.015625)"/>
      </defs>
      <use xlink:href="#DejaVuSans-4c"/>
      <use x="53.962891" xlink:href="#DejaVuSans-6f"/>
      <use x="115.144531" xlink:href="#DejaVuSans-73"/>
      <use x="167.244141" xlink:href="#DejaVuSans-73"/>
     </g>
    </g>
   </g>
   <g id="line2d_15">
    <path clip-path="url(#pc4b44f3076)" d="M 73.832727 53.568 
L 74.646398 107.715085 
L 75.460068 127.613862 
L 76.273739 135.899597 
L 77.087409 141.508997 
L 77.90108 157.042964 
L 78.714751 119.908663 
L 79.528421 165.21649 
L 80.342092 161.568852 
L 81.155762 171.543891 
L 81.969433 178.298824 
L 82.783103 177.097685 
L 83.596774 182.392817 
L 84.410444 175.111343 
L 85.224115 191.520339 
L 86.037785 195.613352 
L 86.851456 191.170041 
L 87.665126 194.077013 
L 88.478797 209.483471 
L 89.292468 208.201857 
L 90.106138 211.973286 
L 90.919809 206.267352 
L 91.733479 189.059506 
L 92.54715 219.173883 
L 93.36082 214.34317 
L 94.174491 214.898067 
L 94.988161 222.021073 
L 95.801832 225.809171 
L 96.615502 220.14499 
L 97.429173 219.828073 
L 98.242843 223.442777 
L 99.056514 234.647781 
L 99.870185 224.823081 
L 100.683855 230.342427 
L 101.497526 231.673682 
L 102.311196 223.770503 
L 103.124867 223.102688 
L 103.938537 244.298674 
L 104.752208 228.556395 
L 105.565878 229.892889 
L 106.379549 230.063134 
L 107.193219 230.433655 
L 108.00689 228.943927 
L 108.82056 231.342593 
L 109.634231 243.119413 
L 110.447902 231.820562 
L 111.261572 237.785998 
L 112.075243 225.858974 
L 112.888913 253.307664 
L 113.702584 238.407799 
L 114.516254 243.461663 
L 115.329925 233.286908 
L 116.143595 237.390599 
L 116.957266 232.03887 
L 117.770936 236.630477 
L 118.584607 243.100859 
L 119.398278 245.029804 
L 120.211948 232.736967 
L 121.025619 247.741463 
L 121.839289 241.11801 
L 122.65296 241.976813 
L 123.46663 237.161101 
L 125.093971 250.519866 
L 125.907642 247.903393 
L 126.721312 238.302344 
L 127.534983 243.116173 
L 128.348653 244.863847 
L 129.162324 234.858944 
L 129.975995 249.840394 
L 130.789665 239.101038 
L 131.603336 250.407815 
L 132.417006 246.491522 
L 133.230677 249.150218 
L 134.044347 244.910506 
L 134.858018 244.297222 
L 135.671688 253.118783 
L 136.485359 254.640201 
L 137.299029 247.014272 
L 138.1127 245.090049 
L 138.92637 259.129782 
L 139.740041 251.421328 
L 140.553712 246.102704 
L 141.367382 252.935258 
L 142.181053 243.329151 
L 142.994723 248.618172 
L 143.808394 244.586165 
L 144.622064 246.384083 
L 145.435735 261.75134 
L 146.249405 263.994196 
L 147.063076 251.714313 
L 147.876746 253.582047 
L 148.690417 261.8155 
L 149.504087 249.0586 
L 150.317758 264.497589 
L 151.131429 261.227879 
L 151.945099 254.615065 
L 152.75877 257.911945 
L 153.57244 252.831691 
L 154.386111 250.639415 
L 155.199781 253.23382 
L 156.013452 244.103314 
L 156.827122 249.476533 
L 157.640793 258.108731 
L 158.454463 254.777673 
L 159.268134 250.565917 
L 160.081805 259.473824 
L 160.895475 266.049438 
L 161.709146 258.574199 
L 162.522816 267.811786 
L 163.336487 239.336596 
L 164.150157 257.102085 
L 164.963828 253.431808 
L 165.777498 267.531929 
L 166.591169 247.472134 
L 167.404839 259.427993 
L 168.21851 248.798996 
L 169.03218 256.731033 
L 169.845851 273.116285 
L 170.659522 258.304624 
L 171.473192 256.351288 
L 172.286863 274.130317 
L 173.100533 262.805047 
L 173.914204 265.598761 
L 174.727874 260.919602 
L 175.541545 260.212573 
L 176.355215 267.011121 
L 177.168886 265.504572 
L 177.982556 254.789351 
L 178.796227 257.981015 
L 179.609897 254.941294 
L 180.423568 259.41197 
L 181.237239 268.280709 
L 182.050909 272.433378 
L 182.86458 258.833707 
L 183.67825 273.701642 
L 184.491921 268.663537 
L 185.305591 251.267365 
L 186.119262 254.311373 
L 186.932932 250.069577 
L 187.746603 260.462922 
L 188.560273 258.883791 
L 189.373944 251.819563 
L 190.187614 260.538138 
L 191.001285 255.511637 
L 191.814956 262.063492 
L 192.628626 259.711679 
L 193.442297 250.448562 
L 194.255967 260.943515 
L 195.069638 264.170863 
L 195.883308 263.462055 
L 196.696979 259.588285 
L 197.510649 263.494217 
L 198.32432 266.081146 
L 199.13799 259.387158 
L 199.951661 265.532691 
L 200.765332 256.231843 
L 201.579002 253.888215 
L 202.392673 254.140727 
L 203.206343 264.090763 
L 204.020014 262.794697 
L 204.833684 262.540032 
L 205.647355 265.919345 
L 206.461025 261.846369 
L 207.274696 262.852434 
L 208.088366 269.354659 
L 208.902037 253.804251 
L 210.529378 275.690037 
L 211.343049 259.701331 
L 212.156719 258.475026 
L 212.97039 272.988184 
L 213.78406 254.003523 
L 214.597731 259.831692 
L 215.411401 270.303854 
L 216.225072 266.401409 
L 217.038742 255.956374 
L 217.852413 262.790676 
L 218.666083 266.3726 
L 219.479754 261.572291 
L 220.293424 265.546691 
L 221.107095 263.795804 
L 221.920766 263.381121 
L 222.734436 276.788076 
L 223.548107 266.464575 
L 224.361777 279.456135 
L 225.175448 267.972589 
L 225.989118 273.704041 
L 226.802789 269.079526 
L 227.616459 267.428434 
L 228.43013 262.465039 
L 229.2438 263.854257 
L 230.057471 276.849329 
L 230.871141 252.137048 
L 231.684812 264.004771 
L 232.498483 266.079276 
L 233.312153 253.493164 
L 234.125824 269.690672 
L 234.939494 258.889691 
L 235.753165 253.985491 
L 237.380506 265.781529 
L 238.194176 262.284661 
L 239.007847 274.106658 
L 239.821517 255.73913 
L 240.635188 269.198027 
L 241.448859 268.718518 
L 242.262529 286.578318 
L 243.0762 269.738835 
L 243.88987 268.51738 
L 244.703541 272.928793 
L 245.517211 274.335071 
L 246.330882 273.077683 
L 247.144552 265.468456 
L 247.958223 275.417273 
L 248.771893 275.206288 
L 249.585564 276.513938 
L 251.212905 262.1213 
L 252.026576 281.89539 
L 252.840246 274.955081 
L 253.653917 288.252603 
L 254.467587 266.278728 
L 255.281258 267.024658 
L 256.094928 271.662832 
L 256.908599 286.515396 
L 257.722269 274.113432 
L 258.53594 268.960298 
L 259.34961 272.969724 
L 260.163281 286.187204 
L 260.976951 279.385332 
L 261.790622 269.259754 
L 262.604293 267.209653 
L 263.417963 270.123125 
L 264.231634 276.773533 
L 265.045304 280.630631 
L 265.858975 271.047322 
L 266.672645 265.787914 
L 267.486316 265.455993 
L 268.299986 274.670155 
L 269.113657 269.502256 
L 269.927327 282.324132 
L 270.740998 274.361467 
L 271.554668 278.811232 
L 272.368339 272.360967 
L 273.18201 268.604135 
L 273.99568 268.607352 
L 275.623021 282.218604 
L 276.436692 271.850428 
L 277.250362 289.771931 
L 278.064033 276.620835 
L 278.877703 276.418737 
L 279.691374 267.263792 
L 280.505044 271.77385 
L 282.132386 284.472219 
L 282.946056 275.062612 
L 283.759727 278.978609 
L 284.573397 281.787636 
L 285.387068 286.467952 
L 286.200738 281.699499 
L 287.014409 274.160624 
L 287.828079 269.450754 
L 288.64175 277.136634 
L 289.45542 280.487019 
L 290.269091 274.094151 
L 291.082761 269.973562 
L 291.896432 284.078821 
L 292.710103 279.756754 
L 293.523773 262.448626 
L 294.337444 272.474533 
L 295.151114 272.334038 
L 295.964785 269.364727 
L 296.778455 285.268163 
L 297.592126 279.502418 
L 298.405796 283.627399 
L 299.219467 272.375311 
L 300.033137 290.952791 
L 300.846808 279.646231 
L 301.660478 271.531647 
L 302.474149 274.599754 
L 303.28782 289.43697 
L 304.10149 273.891266 
L 304.915161 281.056812 
L 305.728831 292.525502 
L 306.542502 278.540831 
L 307.356172 270.560798 
L 308.169843 274.898797 
L 308.983513 288.953036 
L 309.797184 270.782461 
L 310.610854 271.858768 
L 311.424525 291.210855 
L 312.238195 287.975694 
L 313.051866 283.251281 
L 313.865537 272.976162 
L 314.679207 277.150121 
L 315.492878 278.141567 
L 316.306548 280.135904 
L 317.120219 276.352698 
L 317.933889 281.18312 
L 318.74756 280.364755 
L 319.56123 285.726897 
L 320.374901 283.900996 
L 321.188571 278.685171 
L 322.002242 275.185136 
L 322.815913 282.784527 
L 323.629583 292.770789 
L 325.256924 273.693423 
L 326.070595 280.749137 
L 326.884265 270.772015 
L 327.697936 271.798102 
L 328.511606 277.357957 
L 329.325277 276.671244 
L 330.138947 283.705173 
L 330.952618 281.593694 
L 331.766288 278.794296 
L 332.579959 285.654264 
L 333.39363 279.482218 
L 335.020971 272.344515 
L 335.834641 284.344234 
L 336.648312 275.07763 
L 337.461982 289.43988 
L 338.275653 275.64598 
L 339.089323 294.563717 
L 339.902994 283.443647 
L 340.716664 283.927467 
L 341.530335 280.973572 
L 342.344005 282.230121 
L 343.157676 268.660918 
L 343.971347 290.853679 
L 344.785017 279.376461 
L 346.412358 284.816132 
L 347.226029 286.442572 
L 348.039699 283.602856 
L 348.85337 287.861296 
L 349.66704 284.733901 
L 350.480711 283.750521 
L 351.294381 292.850285 
L 352.108052 278.226912 
L 352.921722 277.229844 
L 353.735393 272.177539 
L 354.549064 287.497149 
L 355.362734 291.59581 
L 356.176405 269.699761 
L 356.990075 287.260096 
L 357.803746 288.987589 
L 358.617416 281.296975 
L 359.431087 279.427262 
L 361.058428 284.570309 
L 361.872098 280.132818 
L 362.685769 279.551314 
L 363.49944 292.965076 
L 364.31311 290.401749 
L 365.126781 287.181984 
L 365.940451 273.867077 
L 366.754122 283.822092 
L 367.567792 280.657925 
L 368.381463 275.296835 
L 369.195133 280.802587 
L 370.008804 278.080055 
L 370.822474 281.152344 
L 371.636145 286.110676 
L 372.449815 282.373586 
L 373.263486 272.485769 
L 374.077157 288.855505 
L 374.890827 290.197835 
L 375.704498 286.79865 
L 376.518168 276.966024 
L 377.331839 286.944782 
L 378.145509 284.375308 
L 378.95918 295.488 
L 379.77285 278.124418 
L 380.586521 278.867669 
L 381.400191 271.097991 
L 382.213862 290.078478 
L 383.027532 285.277058 
L 383.841203 275.692299 
L 384.654874 271.191805 
L 385.468544 276.312742 
L 386.282215 284.82222 
L 387.095885 283.748184 
L 387.909556 286.794107 
L 388.723226 279.623173 
L 389.536897 282.595902 
L 390.350567 283.447177 
L 391.164238 271.104515 
L 391.977908 281.218341 
L 392.791579 276.410108 
L 393.605249 274.141682 
L 394.41892 291.68074 
L 395.232591 286.283133 
L 396.046261 285.492495 
L 396.859932 278.602064 
L 397.673602 290.895526 
L 398.487273 284.677983 
L 398.487273 284.677983 
" style="fill:none;stroke:#1f77b4;stroke-linecap:square;stroke-width:1.5;"/>
   </g>
   <g id="line2d_16">
    <path clip-path="url(#pc4b44f3076)" d="M 73.832727 105.912256 
L 74.646398 113.009965 
L 75.460068 137.158266 
L 76.273739 118.613924 
L 77.087409 142.230912 
L 77.90108 160.649087 
L 78.714751 150.520984 
L 79.528421 165.289966 
L 80.342092 161.365203 
L 81.155762 181.702396 
L 81.969433 184.921488 
L 82.783103 183.901339 
L 83.596774 172.392732 
L 84.410444 144.539544 
L 85.224115 199.922831 
L 86.037785 199.477607 
L 86.851456 190.709635 
L 87.665126 207.40169 
L 88.478797 206.72466 
L 89.292468 213.151774 
L 90.106138 217.008029 
L 90.919809 207.681495 
L 91.733479 193.510222 
L 92.54715 217.05956 
L 93.36082 210.751499 
L 94.174491 215.938242 
L 94.988161 229.776398 
L 96.615502 216.12254 
L 97.429173 221.309846 
L 98.242843 211.410293 
L 99.056514 186.427913 
L 99.870185 229.584635 
L 100.683855 227.534416 
L 101.497526 223.099243 
L 102.311196 230.467508 
L 103.124867 225.623037 
L 103.938537 230.784521 
L 104.752208 237.355929 
L 105.565878 237.73918 
L 106.379549 231.747551 
L 107.193219 232.181858 
L 108.82056 239.424535 
L 109.634231 230.994482 
L 110.447902 238.666563 
L 111.261572 245.12941 
L 112.888913 231.879497 
L 113.702584 247.081974 
L 114.516254 238.36689 
L 115.329925 246.870435 
L 116.143595 242.573435 
L 116.957266 224.843702 
L 117.770936 238.873221 
L 118.584607 245.941512 
L 119.398278 235.72717 
L 120.211948 242.576335 
L 121.025619 231.324069 
L 121.839289 244.322668 
L 122.65296 240.776504 
L 123.46663 243.13891 
L 124.280301 237.494881 
L 125.093971 246.879441 
L 125.907642 253.060248 
L 126.721312 242.008928 
L 127.534983 242.239865 
L 128.348653 243.786096 
L 129.162324 246.56211 
L 129.975995 245.014367 
L 130.789665 244.45359 
L 131.603336 245.02391 
L 132.417006 243.704374 
L 133.230677 253.384872 
L 134.044347 249.132195 
L 134.858018 250.597447 
L 135.671688 249.498302 
L 136.485359 247.634306 
L 137.299029 248.505654 
L 138.1127 255.827467 
L 138.92637 236.623001 
L 139.740041 245.815858 
L 140.553712 250.646303 
L 141.367382 249.664504 
L 142.181053 247.272342 
L 142.994723 246.514643 
L 143.808394 247.600758 
L 144.622064 255.44616 
L 145.435735 250.292311 
L 146.249405 246.886572 
L 147.063076 250.192216 
L 147.876746 246.519298 
L 148.690417 240.975127 
L 149.504087 252.299074 
L 150.317758 256.704329 
L 151.131429 247.081279 
L 151.945099 246.848783 
L 152.75877 258.996815 
L 153.57244 250.278623 
L 154.386111 247.428454 
L 155.199781 251.707863 
L 156.013452 250.555758 
L 156.827122 256.601875 
L 157.640793 251.509939 
L 158.454463 266.479795 
L 159.268134 265.809895 
L 160.081805 249.141023 
L 160.895475 258.90672 
L 161.709146 242.408418 
L 162.522816 249.793088 
L 163.336487 262.742875 
L 164.150157 261.376108 
L 165.777498 253.597021 
L 166.591169 258.386387 
L 167.404839 255.667504 
L 168.21851 256.431973 
L 169.03218 248.223114 
L 169.845851 250.730863 
L 170.659522 255.809797 
L 172.286863 251.643118 
L 173.100533 251.688946 
L 173.914204 247.205445 
L 174.727874 267.065408 
L 175.541545 265.148837 
L 176.355215 260.23105 
L 177.168886 254.272802 
L 177.982556 268.660973 
L 178.796227 251.462609 
L 179.609897 255.616961 
L 180.423568 258.115682 
L 181.237239 258.229519 
L 182.050909 266.60246 
L 182.86458 217.316268 
L 183.67825 263.323527 
L 184.491921 263.886191 
L 185.305591 255.503091 
L 186.119262 252.116689 
L 186.932932 260.529216 
L 187.746603 251.859227 
L 188.560273 260.583667 
L 189.373944 266.157277 
L 190.187614 257.915891 
L 191.001285 267.476531 
L 191.814956 263.902321 
L 192.628626 268.534532 
L 193.442297 248.204589 
L 194.255967 258.994481 
L 195.069638 263.488022 
L 195.883308 259.973498 
L 196.696979 262.532737 
L 197.510649 263.053862 
L 198.32432 262.500035 
L 199.951661 255.763648 
L 200.765332 261.132527 
L 201.579002 268.589722 
L 202.392673 263.187881 
L 203.206343 262.747963 
L 204.020014 271.675316 
L 204.833684 257.907824 
L 205.647355 269.039098 
L 206.461025 258.392223 
L 207.274696 267.920245 
L 208.088366 265.596675 
L 208.902037 252.957103 
L 209.715707 264.249626 
L 210.529378 265.237129 
L 211.343049 263.74071 
L 212.156719 266.260933 
L 212.97039 265.267767 
L 213.78406 263.9263 
L 214.597731 264.432758 
L 215.411401 256.293443 
L 216.225072 268.701429 
L 217.038742 266.616138 
L 217.852413 265.920155 
L 218.666083 261.543339 
L 219.479754 262.353121 
L 220.293424 255.596272 
L 221.107095 264.905741 
L 221.920766 267.753006 
L 222.734436 273.987369 
L 223.548107 263.819802 
L 224.361777 267.970824 
L 225.175448 260.762664 
L 225.989118 258.655102 
L 226.802789 258.539586 
L 227.616459 259.581631 
L 228.43013 270.614489 
L 229.2438 271.2951 
L 230.057471 259.524108 
L 230.871141 272.827082 
L 232.498483 264.60425 
L 233.312153 269.819022 
L 234.125824 261.426644 
L 234.939494 273.608643 
L 235.753165 273.946293 
L 236.566835 258.43171 
L 237.380506 277.868391 
L 238.194176 267.321283 
L 239.007847 265.986369 
L 239.821517 271.353921 
L 240.635188 261.660386 
L 241.448859 266.158449 
L 242.262529 269.284381 
L 243.0762 262.302724 
L 243.88987 277.206914 
L 244.703541 276.226495 
L 245.517211 265.545895 
L 246.330882 272.321139 
L 247.144552 274.903734 
L 247.958223 271.558407 
L 248.771893 273.312187 
L 249.585564 278.578722 
L 250.399234 264.841093 
L 251.212905 272.811515 
L 252.026576 265.262044 
L 252.840246 259.524211 
L 253.653917 263.614888 
L 254.467587 266.765559 
L 255.281258 262.214163 
L 256.094928 266.702485 
L 256.908599 277.951548 
L 257.722269 270.000175 
L 258.53594 267.209811 
L 259.34961 263.715341 
L 260.163281 268.654282 
L 260.976951 274.282265 
L 261.790622 264.372264 
L 262.604293 267.976924 
L 263.417963 269.704332 
L 264.231634 273.707173 
L 265.045304 276.643912 
L 265.858975 277.842372 
L 266.672645 273.884618 
L 267.486316 278.346689 
L 268.299986 276.29257 
L 269.113657 280.94329 
L 269.927327 276.961314 
L 270.740998 269.736727 
L 271.554668 276.288505 
L 272.368339 274.102877 
L 273.18201 275.560134 
L 273.99568 277.75912 
L 275.623021 285.475715 
L 276.436692 271.567552 
L 278.064033 273.543088 
L 278.877703 275.177193 
L 279.691374 277.463837 
L 280.505044 271.879817 
L 281.318715 267.554339 
L 282.132386 271.472823 
L 282.946056 271.50997 
L 283.759727 260.064554 
L 284.573397 270.403366 
L 285.387068 268.542689 
L 286.200738 272.873372 
L 287.014409 271.034612 
L 287.828079 263.338788 
L 288.64175 272.46529 
L 289.45542 274.135321 
L 290.269091 282.652424 
L 291.082761 270.493344 
L 291.896432 276.421425 
L 292.710103 277.813619 
L 293.523773 276.280361 
L 294.337444 272.128175 
L 295.151114 278.812282 
L 295.964785 277.341046 
L 296.778455 273.714338 
L 297.592126 282.769778 
L 298.405796 285.937164 
L 299.219467 265.016696 
L 300.033137 278.243271 
L 300.846808 279.898125 
L 301.660478 276.461765 
L 302.474149 283.436237 
L 303.28782 262.731044 
L 304.10149 283.40689 
L 304.915161 285.457038 
L 305.728831 277.481917 
L 306.542502 262.549123 
L 307.356172 270.488068 
L 308.169843 288.949748 
L 308.983513 279.470718 
L 309.797184 268.13694 
L 310.610854 273.891157 
L 311.424525 271.572512 
L 312.238195 265.217788 
L 313.865537 284.740031 
L 314.679207 288.272727 
L 315.492878 283.684384 
L 316.306548 283.407802 
L 317.120219 272.27618 
L 317.933889 282.491587 
L 318.74756 279.096646 
L 319.56123 272.930312 
L 320.374901 279.930962 
L 321.188571 275.717842 
L 322.002242 276.580339 
L 322.815913 271.264214 
L 323.629583 280.396855 
L 324.443254 274.212193 
L 325.256924 277.933004 
L 326.070595 284.992603 
L 326.884265 248.56041 
L 327.697936 281.181536 
L 328.511606 281.220894 
L 330.138947 273.676993 
L 330.952618 253.672483 
L 331.766288 280.086045 
L 332.579959 284.692053 
L 333.39363 286.273853 
L 334.2073 277.035728 
L 335.020971 263.693963 
L 336.648312 285.523204 
L 337.461982 281.207023 
L 338.275653 259.309971 
L 339.089323 275.080603 
L 339.902994 271.634917 
L 340.716664 277.019633 
L 341.530335 281.048658 
L 342.344005 283.17345 
L 343.157676 265.162273 
L 343.971347 283.835127 
L 344.785017 262.261319 
L 345.598688 279.090837 
L 346.412358 277.407135 
L 347.226029 265.876732 
L 348.039699 276.740051 
L 348.85337 276.358691 
L 349.66704 281.365847 
L 350.480711 280.15281 
L 351.294381 269.406686 
L 352.108052 280.364463 
L 352.921722 274.887192 
L 353.735393 282.060976 
L 354.549064 281.628728 
L 355.362734 280.031478 
L 356.990075 281.100987 
L 357.803746 271.267143 
L 358.617416 279.250413 
L 359.431087 273.872017 
L 360.244757 277.284861 
L 361.058428 274.2132 
L 361.872098 274.946916 
L 362.685769 282.405452 
L 363.49944 283.146112 
L 364.31311 276.140432 
L 365.126781 277.05898 
L 365.940451 274.29184 
L 366.754122 281.30263 
L 367.567792 276.25559 
L 368.381463 275.605366 
L 369.195133 287.120154 
L 370.008804 274.515084 
L 370.822474 281.693028 
L 371.636145 279.044808 
L 372.449815 278.541588 
L 373.263486 279.964249 
L 374.890827 278.414544 
L 375.704498 282.487565 
L 376.518168 277.575403 
L 377.331839 281.113863 
L 378.145509 282.163761 
L 378.95918 272.949983 
L 379.77285 278.67516 
L 380.586521 274.759094 
L 381.400191 287.772643 
L 382.213862 277.309265 
L 383.027532 276.319103 
L 383.841203 270.697914 
L 384.654874 283.355306 
L 385.468544 281.847491 
L 386.282215 270.838853 
L 387.095885 275.95068 
L 387.909556 279.763679 
L 389.536897 291.987237 
L 390.350567 277.02841 
L 391.164238 288.415609 
L 391.977908 268.243565 
L 392.791579 282.441183 
L 393.605249 287.818693 
L 394.41892 282.615992 
L 395.232591 283.389284 
L 396.046261 275.196958 
L 396.859932 279.581355 
L 397.673602 267.619821 
L 398.487273 280.724225 
L 398.487273 280.724225 
" style="fill:none;stroke:#ff7f0e;stroke-linecap:square;stroke-width:1.5;"/>
   </g>
   <g id="patch_3">
    <path d="M 57.6 307.584 
L 57.6 41.472 
" style="fill:none;stroke:#000000;stroke-linecap:square;stroke-linejoin:miter;stroke-width:0.8;"/>
   </g>
   <g id="patch_4">
    <path d="M 414.72 307.584 
L 414.72 41.472 
" style="fill:none;stroke:#000000;stroke-linecap:square;stroke-linejoin:miter;stroke-width:0.8;"/>
   </g>
   <g id="patch_5">
    <path d="M 57.6 307.584 
L 414.72 307.584 
" style="fill:none;stroke:#000000;stroke-linecap:square;stroke-linejoin:miter;stroke-width:0.8;"/>
   </g>
   <g id="patch_6">
    <path d="M 57.6 41.472 
L 414.72 41.472 
" style="fill:none;stroke:#000000;stroke-linecap:square;stroke-linejoin:miter;stroke-width:0.8;"/>
   </g>
   <g id="legend_1">
    <g id="patch_7">
     <path d="M 303.845 78.82825 
L 407.72 78.82825 
Q 409.72 78.82825 409.72 76.82825 
L 409.72 48.472 
Q 409.72 46.472 407.72 46.472 
L 303.845 46.472 
Q 301.845 46.472 301.845 48.472 
L 301.845 76.82825 
Q 301.845 78.82825 303.845 78.82825 
z
" style="fill:#ffffff;opacity:0.8;stroke:#cccccc;stroke-linejoin:miter;"/>
    </g>
    <g id="line2d_17">
     <path d="M 305.845 54.570437 
L 325.845 54.570437 
" style="fill:none;stroke:#1f77b4;stroke-linecap:square;stroke-width:1.5;"/>
    </g>
    <g id="line2d_18"/>
    <g id="text_17">
     <!-- Train loss -->
     <g transform="translate(333.845 58.070437)scale(0.1 -0.1)">
      <defs>
       <path d="M -19 4666 
L 3928 4666 
L 3928 4134 
L 2272 4134 
L 2272 0 
L 1638 0 
L 1638 4134 
L -19 4134 
L -19 4666 
z
" id="DejaVuSans-54" transform="scale(0.015625)"/>
       <path d="M 2631 2963 
Q 2534 3019 2420 3045 
Q 2306 3072 2169 3072 
Q 1681 3072 1420 2755 
Q 1159 2438 1159 1844 
L 1159 0 
L 581 0 
L 581 3500 
L 1159 3500 
L 1159 2956 
Q 1341 3275 1631 3429 
Q 1922 3584 2338 3584 
Q 2397 3584 2469 3576 
Q 2541 3569 2628 3553 
L 2631 2963 
z
" id="DejaVuSans-72" transform="scale(0.015625)"/>
       <path d="M 2194 1759 
Q 1497 1759 1228 1600 
Q 959 1441 959 1056 
Q 959 750 1161 570 
Q 1363 391 1709 391 
Q 2188 391 2477 730 
Q 2766 1069 2766 1631 
L 2766 1759 
L 2194 1759 
z
M 3341 1997 
L 3341 0 
L 2766 0 
L 2766 531 
Q 2569 213 2275 61 
Q 1981 -91 1556 -91 
Q 1019 -91 701 211 
Q 384 513 384 1019 
Q 384 1609 779 1909 
Q 1175 2209 1959 2209 
L 2766 2209 
L 2766 2266 
Q 2766 2663 2505 2880 
Q 2244 3097 1772 3097 
Q 1472 3097 1187 3025 
Q 903 2953 641 2809 
L 641 3341 
Q 956 3463 1253 3523 
Q 1550 3584 1831 3584 
Q 2591 3584 2966 3190 
Q 3341 2797 3341 1997 
z
" id="DejaVuSans-61" transform="scale(0.015625)"/>
       <path d="M 603 3500 
L 1178 3500 
L 1178 0 
L 603 0 
L 603 3500 
z
M 603 4863 
L 1178 4863 
L 1178 4134 
L 603 4134 
L 603 4863 
z
" id="DejaVuSans-69" transform="scale(0.015625)"/>
       <path d="M 3513 2113 
L 3513 0 
L 2938 0 
L 2938 2094 
Q 2938 2591 2744 2837 
Q 2550 3084 2163 3084 
Q 1697 3084 1428 2787 
Q 1159 2491 1159 1978 
L 1159 0 
L 581 0 
L 581 3500 
L 1159 3500 
L 1159 2956 
Q 1366 3272 1645 3428 
Q 1925 3584 2291 3584 
Q 2894 3584 3203 3211 
Q 3513 2838 3513 2113 
z
" id="DejaVuSans-6e" transform="scale(0.015625)"/>
       <path id="DejaVuSans-20" transform="scale(0.015625)"/>
       <path d="M 603 4863 
L 1178 4863 
L 1178 0 
L 603 0 
L 603 4863 
z
" id="DejaVuSans-6c" transform="scale(0.015625)"/>
      </defs>
      <use xlink:href="#DejaVuSans-54"/>
      <use x="46.333984" xlink:href="#DejaVuSans-72"/>
      <use x="87.447266" xlink:href="#DejaVuSans-61"/>
      <use x="148.726562" xlink:href="#DejaVuSans-69"/>
      <use x="176.509766" xlink:href="#DejaVuSans-6e"/>
      <use x="239.888672" xlink:href="#DejaVuSans-20"/>
      <use x="271.675781" xlink:href="#DejaVuSans-6c"/>
      <use x="299.458984" xlink:href="#DejaVuSans-6f"/>
      <use x="360.640625" xlink:href="#DejaVuSans-73"/>
      <use x="412.740234" xlink:href="#DejaVuSans-73"/>
     </g>
    </g>
    <g id="line2d_19">
     <path d="M 305.845 69.248562 
L 325.845 69.248562 
" style="fill:none;stroke:#ff7f0e;stroke-linecap:square;stroke-width:1.5;"/>
    </g>
    <g id="line2d_20"/>
    <g id="text_18">
     <!-- Validation loss -->
     <g transform="translate(333.845 72.748562)scale(0.1 -0.1)">
      <defs>
       <path d="M 1831 0 
L 50 4666 
L 709 4666 
L 2188 738 
L 3669 4666 
L 4325 4666 
L 2547 0 
L 1831 0 
z
" id="DejaVuSans-56" transform="scale(0.015625)"/>
       <path d="M 2906 2969 
L 2906 4863 
L 3481 4863 
L 3481 0 
L 2906 0 
L 2906 525 
Q 2725 213 2448 61 
Q 2172 -91 1784 -91 
Q 1150 -91 751 415 
Q 353 922 353 1747 
Q 353 2572 751 3078 
Q 1150 3584 1784 3584 
Q 2172 3584 2448 3432 
Q 2725 3281 2906 2969 
z
M 947 1747 
Q 947 1113 1208 752 
Q 1469 391 1925 391 
Q 2381 391 2643 752 
Q 2906 1113 2906 1747 
Q 2906 2381 2643 2742 
Q 2381 3103 1925 3103 
Q 1469 3103 1208 2742 
Q 947 2381 947 1747 
z
" id="DejaVuSans-64" transform="scale(0.015625)"/>
       <path d="M 1172 4494 
L 1172 3500 
L 2356 3500 
L 2356 3053 
L 1172 3053 
L 1172 1153 
Q 1172 725 1289 603 
Q 1406 481 1766 481 
L 2356 481 
L 2356 0 
L 1766 0 
Q 1100 0 847 248 
Q 594 497 594 1153 
L 594 3053 
L 172 3053 
L 172 3500 
L 594 3500 
L 594 4494 
L 1172 4494 
z
" id="DejaVuSans-74" transform="scale(0.015625)"/>
      </defs>
      <use xlink:href="#DejaVuSans-56"/>
      <use x="60.658203" xlink:href="#DejaVuSans-61"/>
      <use x="121.9375" xlink:href="#DejaVuSans-6c"/>
      <use x="149.720703" xlink:href="#DejaVuSans-69"/>
      <use x="177.503906" xlink:href="#DejaVuSans-64"/>
      <use x="240.980469" xlink:href="#DejaVuSans-61"/>
      <use x="302.259766" xlink:href="#DejaVuSans-74"/>
      <use x="341.46875" xlink:href="#DejaVuSans-69"/>
      <use x="369.251953" xlink:href="#DejaVuSans-6f"/>
      <use x="430.433594" xlink:href="#DejaVuSans-6e"/>
      <use x="493.8125" xlink:href="#DejaVuSans-20"/>
      <use x="525.599609" xlink:href="#DejaVuSans-6c"/>
      <use x="553.382812" xlink:href="#DejaVuSans-6f"/>
      <use x="614.564453" xlink:href="#DejaVuSans-73"/>
      <use x="666.664062" xlink:href="#DejaVuSans-73"/>
     </g>
    </g>
   </g>
  </g>
 </g>
 <defs>
  <clipPath id="pc4b44f3076">
   <rect height="266.112" width="357.12" x="57.6" y="41.472"/>
  </clipPath>
 </defs>
</svg>
