<?xml version="1.0" encoding="utf-8" standalone="no"?>
<!DOCTYPE svg PUBLIC "-//W3C//DTD SVG 1.1//EN"
  "http://www.w3.org/Graphics/SVG/1.1/DTD/svg11.dtd">
<svg height="345.6pt" version="1.1" viewBox="0 0 460.8 345.6" width="460.8pt" xmlns="http://www.w3.org/2000/svg" xmlns:xlink="http://www.w3.org/1999/xlink">
 <metadata>
  <rdf:RDF xmlns:cc="http://creativecommons.org/ns#" xmlns:dc="http://purl.org/dc/elements/1.1/" xmlns:rdf="http://www.w3.org/1999/02/22-rdf-syntax-ns#">
   <cc:Work>
    <dc:type rdf:resource="http://purl.org/dc/dcmitype/StillImage"/>
    <dc:date>2021-08-01T11:44:01.871067</dc:date>
    <dc:format>image/svg+xml</dc:format>
    <dc:creator>
     <cc:Agent>
      <dc:title>Matplotlib v3.4.2, https://matplotlib.org/</dc:title>
     </cc:Agent>
    </dc:creator>
   </cc:Work>
  </rdf:RDF>
 </metadata>
 <defs>
  <style type="text/css">*{stroke-linecap:butt;stroke-linejoin:round;}</style>
 </defs>
 <g id="figure_1">
  <g id="patch_1">
   <path d="M 0 345.6 
L 460.8 345.6 
L 460.8 0 
L 0 0 
z
" style="fill:#ffffff;"/>
  </g>
  <g id="axes_1">
   <g id="patch_2">
    <path d="M 57.6 307.584 
L 414.72 307.584 
L 414.72 41.472 
L 57.6 41.472 
z
" style="fill:#ffffff;"/>
   </g>
   <g id="matplotlib.axis_1">
    <g id="xtick_1">
     <g id="line2d_1">
      <defs>
       <path d="M 0 0 
L 0 3.5 
" id="m969d0255f8" style="stroke:#000000;stroke-width:0.8;"/>
      </defs>
      <g>
       <use style="stroke:#000000;stroke-width:0.8;" x="73.600665" xlink:href="#m969d0255f8" y="307.584"/>
      </g>
     </g>
     <g id="text_1">
      <!-- 0 -->
      <g transform="translate(70.419415 322.182437)scale(0.1 -0.1)">
       <defs>
        <path d="M 2034 4250 
Q 1547 4250 1301 3770 
Q 1056 3291 1056 2328 
Q 1056 1369 1301 889 
Q 1547 409 2034 409 
Q 2525 409 2770 889 
Q 3016 1369 3016 2328 
Q 3016 3291 2770 3770 
Q 2525 4250 2034 4250 
z
M 2034 4750 
Q 2819 4750 3233 4129 
Q 3647 3509 3647 2328 
Q 3647 1150 3233 529 
Q 2819 -91 2034 -91 
Q 1250 -91 836 529 
Q 422 1150 422 2328 
Q 422 3509 836 4129 
Q 1250 4750 2034 4750 
z
" id="DejaVuSans-30" transform="scale(0.015625)"/>
       </defs>
       <use xlink:href="#DejaVuSans-30"/>
      </g>
     </g>
    </g>
    <g id="xtick_2">
     <g id="line2d_2">
      <g>
       <use style="stroke:#000000;stroke-width:0.8;" x="120.013038" xlink:href="#m969d0255f8" y="307.584"/>
      </g>
     </g>
     <g id="text_2">
      <!-- 200 -->
      <g transform="translate(110.469288 322.182437)scale(0.1 -0.1)">
       <defs>
        <path d="M 1228 531 
L 3431 531 
L 3431 0 
L 469 0 
L 469 531 
Q 828 903 1448 1529 
Q 2069 2156 2228 2338 
Q 2531 2678 2651 2914 
Q 2772 3150 2772 3378 
Q 2772 3750 2511 3984 
Q 2250 4219 1831 4219 
Q 1534 4219 1204 4116 
Q 875 4013 500 3803 
L 500 4441 
Q 881 4594 1212 4672 
Q 1544 4750 1819 4750 
Q 2544 4750 2975 4387 
Q 3406 4025 3406 3419 
Q 3406 3131 3298 2873 
Q 3191 2616 2906 2266 
Q 2828 2175 2409 1742 
Q 1991 1309 1228 531 
z
" id="DejaVuSans-32" transform="scale(0.015625)"/>
       </defs>
       <use xlink:href="#DejaVuSans-32"/>
       <use x="63.623047" xlink:href="#DejaVuSans-30"/>
       <use x="127.246094" xlink:href="#DejaVuSans-30"/>
      </g>
     </g>
    </g>
    <g id="xtick_3">
     <g id="line2d_3">
      <g>
       <use style="stroke:#000000;stroke-width:0.8;" x="166.42541" xlink:href="#m969d0255f8" y="307.584"/>
      </g>
     </g>
     <g id="text_3">
      <!-- 400 -->
      <g transform="translate(156.88166 322.182437)scale(0.1 -0.1)">
       <defs>
        <path d="M 2419 4116 
L 825 1625 
L 2419 1625 
L 2419 4116 
z
M 2253 4666 
L 3047 4666 
L 3047 1625 
L 3713 1625 
L 3713 1100 
L 3047 1100 
L 3047 0 
L 2419 0 
L 2419 1100 
L 313 1100 
L 313 1709 
L 2253 4666 
z
" id="DejaVuSans-34" transform="scale(0.015625)"/>
       </defs>
       <use xlink:href="#DejaVuSans-34"/>
       <use x="63.623047" xlink:href="#DejaVuSans-30"/>
       <use x="127.246094" xlink:href="#DejaVuSans-30"/>
      </g>
     </g>
    </g>
    <g id="xtick_4">
     <g id="line2d_4">
      <g>
       <use style="stroke:#000000;stroke-width:0.8;" x="212.837783" xlink:href="#m969d0255f8" y="307.584"/>
      </g>
     </g>
     <g id="text_4">
      <!-- 600 -->
      <g transform="translate(203.294033 322.182437)scale(0.1 -0.1)">
       <defs>
        <path d="M 2113 2584 
Q 1688 2584 1439 2293 
Q 1191 2003 1191 1497 
Q 1191 994 1439 701 
Q 1688 409 2113 409 
Q 2538 409 2786 701 
Q 3034 994 3034 1497 
Q 3034 2003 2786 2293 
Q 2538 2584 2113 2584 
z
M 3366 4563 
L 3366 3988 
Q 3128 4100 2886 4159 
Q 2644 4219 2406 4219 
Q 1781 4219 1451 3797 
Q 1122 3375 1075 2522 
Q 1259 2794 1537 2939 
Q 1816 3084 2150 3084 
Q 2853 3084 3261 2657 
Q 3669 2231 3669 1497 
Q 3669 778 3244 343 
Q 2819 -91 2113 -91 
Q 1303 -91 875 529 
Q 447 1150 447 2328 
Q 447 3434 972 4092 
Q 1497 4750 2381 4750 
Q 2619 4750 2861 4703 
Q 3103 4656 3366 4563 
z
" id="DejaVuSans-36" transform="scale(0.015625)"/>
       </defs>
       <use xlink:href="#DejaVuSans-36"/>
       <use x="63.623047" xlink:href="#DejaVuSans-30"/>
       <use x="127.246094" xlink:href="#DejaVuSans-30"/>
      </g>
     </g>
    </g>
    <g id="xtick_5">
     <g id="line2d_5">
      <g>
       <use style="stroke:#000000;stroke-width:0.8;" x="259.250155" xlink:href="#m969d0255f8" y="307.584"/>
      </g>
     </g>
     <g id="text_5">
      <!-- 800 -->
      <g transform="translate(249.706405 322.182437)scale(0.1 -0.1)">
       <defs>
        <path d="M 2034 2216 
Q 1584 2216 1326 1975 
Q 1069 1734 1069 1313 
Q 1069 891 1326 650 
Q 1584 409 2034 409 
Q 2484 409 2743 651 
Q 3003 894 3003 1313 
Q 3003 1734 2745 1975 
Q 2488 2216 2034 2216 
z
M 1403 2484 
Q 997 2584 770 2862 
Q 544 3141 544 3541 
Q 544 4100 942 4425 
Q 1341 4750 2034 4750 
Q 2731 4750 3128 4425 
Q 3525 4100 3525 3541 
Q 3525 3141 3298 2862 
Q 3072 2584 2669 2484 
Q 3125 2378 3379 2068 
Q 3634 1759 3634 1313 
Q 3634 634 3220 271 
Q 2806 -91 2034 -91 
Q 1263 -91 848 271 
Q 434 634 434 1313 
Q 434 1759 690 2068 
Q 947 2378 1403 2484 
z
M 1172 3481 
Q 1172 3119 1398 2916 
Q 1625 2713 2034 2713 
Q 2441 2713 2670 2916 
Q 2900 3119 2900 3481 
Q 2900 3844 2670 4047 
Q 2441 4250 2034 4250 
Q 1625 4250 1398 4047 
Q 1172 3844 1172 3481 
z
" id="DejaVuSans-38" transform="scale(0.015625)"/>
       </defs>
       <use xlink:href="#DejaVuSans-38"/>
       <use x="63.623047" xlink:href="#DejaVuSans-30"/>
       <use x="127.246094" xlink:href="#DejaVuSans-30"/>
      </g>
     </g>
    </g>
    <g id="xtick_6">
     <g id="line2d_6">
      <g>
       <use style="stroke:#000000;stroke-width:0.8;" x="305.662528" xlink:href="#m969d0255f8" y="307.584"/>
      </g>
     </g>
     <g id="text_6">
      <!-- 1000 -->
      <g transform="translate(292.937528 322.182437)scale(0.1 -0.1)">
       <defs>
        <path d="M 794 531 
L 1825 531 
L 1825 4091 
L 703 3866 
L 703 4441 
L 1819 4666 
L 2450 4666 
L 2450 531 
L 3481 531 
L 3481 0 
L 794 0 
L 794 531 
z
" id="DejaVuSans-31" transform="scale(0.015625)"/>
       </defs>
       <use xlink:href="#DejaVuSans-31"/>
       <use x="63.623047" xlink:href="#DejaVuSans-30"/>
       <use x="127.246094" xlink:href="#DejaVuSans-30"/>
       <use x="190.869141" xlink:href="#DejaVuSans-30"/>
      </g>
     </g>
    </g>
    <g id="xtick_7">
     <g id="line2d_7">
      <g>
       <use style="stroke:#000000;stroke-width:0.8;" x="352.0749" xlink:href="#m969d0255f8" y="307.584"/>
      </g>
     </g>
     <g id="text_7">
      <!-- 1200 -->
      <g transform="translate(339.3499 322.182437)scale(0.1 -0.1)">
       <use xlink:href="#DejaVuSans-31"/>
       <use x="63.623047" xlink:href="#DejaVuSans-32"/>
       <use x="127.246094" xlink:href="#DejaVuSans-30"/>
       <use x="190.869141" xlink:href="#DejaVuSans-30"/>
      </g>
     </g>
    </g>
    <g id="xtick_8">
     <g id="line2d_8">
      <g>
       <use style="stroke:#000000;stroke-width:0.8;" x="398.487273" xlink:href="#m969d0255f8" y="307.584"/>
      </g>
     </g>
     <g id="text_8">
      <!-- 1400 -->
      <g transform="translate(385.762273 322.182437)scale(0.1 -0.1)">
       <use xlink:href="#DejaVuSans-31"/>
       <use x="63.623047" xlink:href="#DejaVuSans-34"/>
       <use x="127.246094" xlink:href="#DejaVuSans-30"/>
       <use x="190.869141" xlink:href="#DejaVuSans-30"/>
      </g>
     </g>
    </g>
    <g id="text_9">
     <!-- Epoch -->
     <g transform="translate(213.193594 339.659781)scale(0.15 -0.15)">
      <defs>
       <path d="M 628 4666 
L 3578 4666 
L 3578 4134 
L 1259 4134 
L 1259 2753 
L 3481 2753 
L 3481 2222 
L 1259 2222 
L 1259 531 
L 3634 531 
L 3634 0 
L 628 0 
L 628 4666 
z
" id="DejaVuSans-45" transform="scale(0.015625)"/>
       <path d="M 1159 525 
L 1159 -1331 
L 581 -1331 
L 581 3500 
L 1159 3500 
L 1159 2969 
Q 1341 3281 1617 3432 
Q 1894 3584 2278 3584 
Q 2916 3584 3314 3078 
Q 3713 2572 3713 1747 
Q 3713 922 3314 415 
Q 2916 -91 2278 -91 
Q 1894 -91 1617 61 
Q 1341 213 1159 525 
z
M 3116 1747 
Q 3116 2381 2855 2742 
Q 2594 3103 2138 3103 
Q 1681 3103 1420 2742 
Q 1159 2381 1159 1747 
Q 1159 1113 1420 752 
Q 1681 391 2138 391 
Q 2594 391 2855 752 
Q 3116 1113 3116 1747 
z
" id="DejaVuSans-70" transform="scale(0.015625)"/>
       <path d="M 1959 3097 
Q 1497 3097 1228 2736 
Q 959 2375 959 1747 
Q 959 1119 1226 758 
Q 1494 397 1959 397 
Q 2419 397 2687 759 
Q 2956 1122 2956 1747 
Q 2956 2369 2687 2733 
Q 2419 3097 1959 3097 
z
M 1959 3584 
Q 2709 3584 3137 3096 
Q 3566 2609 3566 1747 
Q 3566 888 3137 398 
Q 2709 -91 1959 -91 
Q 1206 -91 779 398 
Q 353 888 353 1747 
Q 353 2609 779 3096 
Q 1206 3584 1959 3584 
z
" id="DejaVuSans-6f" transform="scale(0.015625)"/>
       <path d="M 3122 3366 
L 3122 2828 
Q 2878 2963 2633 3030 
Q 2388 3097 2138 3097 
Q 1578 3097 1268 2742 
Q 959 2388 959 1747 
Q 959 1106 1268 751 
Q 1578 397 2138 397 
Q 2388 397 2633 464 
Q 2878 531 3122 666 
L 3122 134 
Q 2881 22 2623 -34 
Q 2366 -91 2075 -91 
Q 1284 -91 818 406 
Q 353 903 353 1747 
Q 353 2603 823 3093 
Q 1294 3584 2113 3584 
Q 2378 3584 2631 3529 
Q 2884 3475 3122 3366 
z
" id="DejaVuSans-63" transform="scale(0.015625)"/>
       <path d="M 3513 2113 
L 3513 0 
L 2938 0 
L 2938 2094 
Q 2938 2591 2744 2837 
Q 2550 3084 2163 3084 
Q 1697 3084 1428 2787 
Q 1159 2491 1159 1978 
L 1159 0 
L 581 0 
L 581 4863 
L 1159 4863 
L 1159 2956 
Q 1366 3272 1645 3428 
Q 1925 3584 2291 3584 
Q 2894 3584 3203 3211 
Q 3513 2838 3513 2113 
z
" id="DejaVuSans-68" transform="scale(0.015625)"/>
      </defs>
      <use xlink:href="#DejaVuSans-45"/>
      <use x="63.183594" xlink:href="#DejaVuSans-70"/>
      <use x="126.660156" xlink:href="#DejaVuSans-6f"/>
      <use x="187.841797" xlink:href="#DejaVuSans-63"/>
      <use x="242.822266" xlink:href="#DejaVuSans-68"/>
     </g>
    </g>
   </g>
   <g id="matplotlib.axis_2">
    <g id="ytick_1">
     <g id="line2d_9">
      <defs>
       <path d="M 0 0 
L -3.5 0 
" id="mc46c562d5a" style="stroke:#000000;stroke-width:0.8;"/>
      </defs>
      <g>
       <use style="stroke:#000000;stroke-width:0.8;" x="57.6" xlink:href="#mc46c562d5a" y="264.397322"/>
      </g>
     </g>
     <g id="text_10">
      <!-- −1000 -->
      <g transform="translate(16.770313 268.196541)scale(0.1 -0.1)">
       <defs>
        <path d="M 678 2272 
L 4684 2272 
L 4684 1741 
L 678 1741 
L 678 2272 
z
" id="DejaVuSans-2212" transform="scale(0.015625)"/>
       </defs>
       <use xlink:href="#DejaVuSans-2212"/>
       <use x="83.789062" xlink:href="#DejaVuSans-31"/>
       <use x="147.412109" xlink:href="#DejaVuSans-30"/>
       <use x="211.035156" xlink:href="#DejaVuSans-30"/>
       <use x="274.658203" xlink:href="#DejaVuSans-30"/>
      </g>
     </g>
    </g>
    <g id="ytick_2">
     <g id="line2d_10">
      <g>
       <use style="stroke:#000000;stroke-width:0.8;" x="57.6" xlink:href="#mc46c562d5a" y="218.118865"/>
      </g>
     </g>
     <g id="text_11">
      <!-- −800 -->
      <g transform="translate(23.132812 221.918084)scale(0.1 -0.1)">
       <use xlink:href="#DejaVuSans-2212"/>
       <use x="83.789062" xlink:href="#DejaVuSans-38"/>
       <use x="147.412109" xlink:href="#DejaVuSans-30"/>
       <use x="211.035156" xlink:href="#DejaVuSans-30"/>
      </g>
     </g>
    </g>
    <g id="ytick_3">
     <g id="line2d_11">
      <g>
       <use style="stroke:#000000;stroke-width:0.8;" x="57.6" xlink:href="#mc46c562d5a" y="171.840408"/>
      </g>
     </g>
     <g id="text_12">
      <!-- −600 -->
      <g transform="translate(23.132812 175.639626)scale(0.1 -0.1)">
       <use xlink:href="#DejaVuSans-2212"/>
       <use x="83.789062" xlink:href="#DejaVuSans-36"/>
       <use x="147.412109" xlink:href="#DejaVuSans-30"/>
       <use x="211.035156" xlink:href="#DejaVuSans-30"/>
      </g>
     </g>
    </g>
    <g id="ytick_4">
     <g id="line2d_12">
      <g>
       <use style="stroke:#000000;stroke-width:0.8;" x="57.6" xlink:href="#mc46c562d5a" y="125.56195"/>
      </g>
     </g>
     <g id="text_13">
      <!-- −400 -->
      <g transform="translate(23.132812 129.361169)scale(0.1 -0.1)">
       <use xlink:href="#DejaVuSans-2212"/>
       <use x="83.789062" xlink:href="#DejaVuSans-34"/>
       <use x="147.412109" xlink:href="#DejaVuSans-30"/>
       <use x="211.035156" xlink:href="#DejaVuSans-30"/>
      </g>
     </g>
    </g>
    <g id="ytick_5">
     <g id="line2d_13">
      <g>
       <use style="stroke:#000000;stroke-width:0.8;" x="57.6" xlink:href="#mc46c562d5a" y="79.283493"/>
      </g>
     </g>
     <g id="text_14">
      <!-- −200 -->
      <g transform="translate(23.132812 83.082712)scale(0.1 -0.1)">
       <use xlink:href="#DejaVuSans-2212"/>
       <use x="83.789062" xlink:href="#DejaVuSans-32"/>
       <use x="147.412109" xlink:href="#DejaVuSans-30"/>
       <use x="211.035156" xlink:href="#DejaVuSans-30"/>
      </g>
     </g>
    </g>
   </g>
   <g id="line2d_14">
    <path clip-path="url(#p96cd056652)" d="M 73.832727 53.568 
L 74.064789 106.214914 
L 74.296851 111.992044 
L 74.760975 137.244949 
L 74.993037 137.601629 
L 75.225098 150.084752 
L 75.45716 149.986045 
L 75.689222 148.728257 
L 76.153346 160.434546 
L 76.385408 169.500202 
L 76.61747 162.14728 
L 76.849531 176.359714 
L 77.081593 169.784593 
L 77.313655 176.564461 
L 77.545717 172.212891 
L 77.777779 191.863101 
L 78.009841 168.725579 
L 78.241903 184.791315 
L 78.473965 187.408877 
L 78.938088 196.807065 
L 79.17015 192.543563 
L 79.402212 191.72916 
L 79.634274 203.865471 
L 79.866336 202.333007 
L 80.098398 199.069637 
L 80.330459 199.219516 
L 80.794583 205.662931 
L 81.026645 193.760193 
L 81.258707 199.393968 
L 81.490769 208.791184 
L 81.722831 213.248782 
L 81.954892 208.44043 
L 82.186954 212.344148 
L 82.419016 207.206987 
L 82.651078 209.402399 
L 82.88314 213.637458 
L 83.115202 208.713309 
L 83.347264 209.071698 
L 83.579325 215.536235 
L 83.811387 208.143252 
L 84.043449 210.618394 
L 84.275511 222.137711 
L 84.507573 200.787432 
L 84.739635 216.525231 
L 84.971697 207.649475 
L 85.43582 230.047539 
L 85.667882 202.457293 
L 85.899944 217.764364 
L 86.132006 215.654771 
L 86.364068 210.168816 
L 86.59613 219.84786 
L 86.828192 217.130054 
L 87.060253 221.459084 
L 87.292315 211.31954 
L 87.524377 224.536427 
L 87.756439 224.967348 
L 87.988501 221.558122 
L 88.220563 225.781671 
L 88.452625 235.725642 
L 88.916748 220.731733 
L 89.14881 222.417506 
L 89.380872 227.596485 
L 89.612934 222.948406 
L 89.844996 230.249238 
L 90.077058 220.870032 
L 90.30912 222.903708 
L 90.541181 229.761362 
L 90.773243 230.31715 
L 91.005305 220.658232 
L 91.237367 226.404938 
L 91.469429 222.806873 
L 91.701491 231.798302 
L 91.933553 232.268049 
L 92.165614 232.067008 
L 92.397676 232.934887 
L 92.629738 249.006593 
L 92.8618 226.885369 
L 93.093862 232.116793 
L 93.325924 227.987635 
L 93.557986 226.874628 
L 93.790047 243.927491 
L 94.022109 222.957177 
L 94.254171 232.816223 
L 94.486233 223.988711 
L 94.718295 244.08023 
L 94.950357 244.859471 
L 95.646542 228.673635 
L 95.878604 236.258418 
L 96.110666 230.346848 
L 96.342728 230.411914 
L 96.57479 226.797962 
L 96.806852 225.471612 
L 97.038914 238.851703 
L 97.270975 237.931281 
L 97.503037 250.37655 
L 97.735099 243.728226 
L 97.967161 242.424127 
L 98.199223 242.173304 
L 98.431285 234.386326 
L 98.663347 248.792437 
L 98.895408 236.683655 
L 99.12747 237.870063 
L 99.359532 255.24648 
L 99.591594 234.327916 
L 99.823656 245.927711 
L 100.055718 236.454708 
L 100.28778 241.484942 
L 100.751903 225.963288 
L 100.983965 241.486783 
L 101.216027 236.771627 
L 101.448089 235.999696 
L 101.680151 245.304992 
L 101.912213 241.877396 
L 102.144274 240.799448 
L 102.376336 237.998078 
L 102.608398 230.02985 
L 102.84046 245.12398 
L 103.072522 239.603868 
L 103.304584 237.520867 
L 103.536646 242.470991 
L 103.768708 240.621606 
L 104.000769 231.269442 
L 104.232831 244.763794 
L 104.464893 239.770445 
L 104.696955 237.391669 
L 104.929017 233.448552 
L 105.393141 246.100995 
L 105.625202 246.046283 
L 105.857264 245.199302 
L 106.089326 237.018396 
L 106.321388 240.895736 
L 106.55345 241.077782 
L 107.017574 229.7402 
L 107.249635 243.106133 
L 107.713759 233.824624 
L 107.945821 248.173032 
L 108.409945 225.671522 
L 108.642007 232.590664 
L 108.874068 223.314655 
L 109.338192 247.148633 
L 109.570254 241.727559 
L 109.802316 239.925418 
L 110.034378 226.306566 
L 110.26644 228.073604 
L 110.730563 234.351741 
L 110.962625 227.919264 
L 111.194687 233.891298 
L 111.426749 229.776417 
L 111.890873 239.234376 
L 112.122935 247.646356 
L 112.354996 251.268304 
L 112.587058 240.813656 
L 112.81912 245.160167 
L 113.051182 243.459243 
L 113.515306 249.636859 
L 113.747368 235.460104 
L 113.979429 239.113949 
L 114.211491 240.449133 
L 114.443553 230.627254 
L 114.675615 245.025957 
L 115.139739 242.296113 
L 115.371801 245.867477 
L 115.603862 237.305324 
L 115.835924 246.567963 
L 116.067986 234.041423 
L 116.300048 239.253699 
L 116.53211 240.105374 
L 116.764172 253.723589 
L 116.996234 234.444776 
L 117.460357 244.00213 
L 117.692419 243.972352 
L 117.924481 234.70592 
L 118.156543 241.219973 
L 118.388605 240.967607 
L 118.620667 250.651043 
L 118.852729 250.395047 
L 119.08479 251.024833 
L 119.316852 239.504746 
L 119.780976 249.866707 
L 120.013038 239.619227 
L 120.477162 247.300709 
L 120.709223 233.064561 
L 120.941285 251.305402 
L 121.173347 242.544791 
L 121.405409 250.817388 
L 121.637471 240.10062 
L 121.869533 254.110362 
L 122.101595 243.771455 
L 122.333657 246.146139 
L 122.565718 257.96269 
L 122.79778 254.024727 
L 123.029842 256.375635 
L 123.261904 248.652896 
L 123.493966 249.426979 
L 123.726028 249.164648 
L 123.95809 236.48994 
L 124.190151 246.877125 
L 124.422213 245.044006 
L 124.654275 256.070097 
L 124.886337 251.738577 
L 125.118399 255.216744 
L 125.350461 238.932039 
L 125.582523 259.593377 
L 125.814584 244.285029 
L 126.046646 246.309598 
L 126.278708 244.458233 
L 126.51077 239.159416 
L 126.742832 249.159839 
L 127.206956 254.959584 
L 127.439017 244.330545 
L 127.671079 248.602152 
L 127.903141 247.303431 
L 128.599327 255.684008 
L 128.831389 251.851325 
L 129.063451 265.642933 
L 129.295512 245.650698 
L 129.527574 257.568417 
L 129.759636 250.085135 
L 129.991698 252.728675 
L 130.22376 249.241444 
L 130.455822 259.473251 
L 130.687884 250.429143 
L 130.919945 263.523978 
L 131.152007 247.969654 
L 131.384069 255.106092 
L 131.616131 254.580136 
L 131.848193 250.012516 
L 132.080255 262.378254 
L 132.312317 251.968727 
L 132.77644 265.219727 
L 133.008502 256.7721 
L 133.472626 250.167946 
L 133.704688 251.325089 
L 133.93675 257.670728 
L 134.168811 252.450276 
L 134.400873 261.556343 
L 134.632935 249.839634 
L 134.864997 248.97641 
L 135.329121 259.311907 
L 135.561183 260.357567 
L 135.793245 263.288245 
L 136.025306 248.112742 
L 136.257368 252.726219 
L 136.48943 250.359789 
L 136.721492 251.282931 
L 136.953554 253.604356 
L 137.185616 258.286068 
L 137.417678 258.389728 
L 137.649739 254.047707 
L 137.881801 259.201453 
L 138.113863 260.117678 
L 138.345925 258.259791 
L 138.577987 255.274372 
L 138.810049 250.135691 
L 139.042111 249.616563 
L 139.274172 259.652978 
L 139.506234 261.92407 
L 139.738296 254.016834 
L 139.970358 252.353761 
L 140.20242 263.443899 
L 140.434482 251.388951 
L 140.666544 254.983436 
L 140.898605 266.222199 
L 141.130667 253.970423 
L 141.362729 256.478951 
L 141.594791 253.152042 
L 141.826853 260.388522 
L 142.058915 256.932426 
L 142.290977 260.917908 
L 142.523039 261.261605 
L 142.7551 262.361974 
L 142.987162 269.177401 
L 143.451286 250.447898 
L 143.683348 264.915421 
L 143.91541 243.815321 
L 144.147472 260.546204 
L 144.379533 250.870077 
L 144.611595 264.417368 
L 144.843657 262.689794 
L 145.075719 262.213229 
L 145.307781 266.700941 
L 145.539843 258.94739 
L 145.771905 265.311683 
L 146.003966 264.174497 
L 146.236028 265.484963 
L 146.46809 256.071699 
L 146.700152 262.321256 
L 146.932214 259.905602 
L 147.164276 274.443059 
L 147.6284 251.459593 
L 147.860461 263.591961 
L 148.092523 258.031283 
L 148.324585 280.551783 
L 148.556647 262.437996 
L 148.788709 263.818037 
L 149.020771 252.502306 
L 149.484894 262.029834 
L 149.716956 253.628231 
L 149.949018 264.701492 
L 150.18108 260.659871 
L 150.645204 270.359136 
L 150.877266 254.832789 
L 151.109327 261.564714 
L 151.341389 261.839025 
L 151.573451 252.179079 
L 152.037575 268.580236 
L 152.269637 269.46956 
L 152.73376 255.245303 
L 153.197884 267.285143 
L 153.429946 258.764284 
L 153.662008 264.206091 
L 153.89407 265.682282 
L 154.126132 264.352879 
L 154.590255 250.535759 
L 154.822317 259.685391 
L 155.054379 263.269912 
L 155.286441 262.806463 
L 155.518503 252.861118 
L 155.750565 259.723248 
L 155.982627 260.042456 
L 156.214688 269.120566 
L 156.44675 263.8985 
L 156.678812 268.997478 
L 156.910874 267.194898 
L 157.142936 254.723363 
L 157.374998 270.593975 
L 157.839121 248.119382 
L 158.071183 251.698242 
L 158.303245 259.623676 
L 158.535307 246.902258 
L 158.999431 259.666048 
L 159.231493 259.29955 
L 159.463554 258.615549 
L 159.695616 270.187709 
L 159.927678 251.135468 
L 160.15974 250.673076 
L 160.391802 261.799545 
L 160.623864 266.062334 
L 160.855926 258.096907 
L 161.320049 260.164711 
L 161.552111 266.377109 
L 161.784173 254.793444 
L 162.016235 257.009602 
L 162.480359 272.109403 
L 162.712421 252.912054 
L 162.944482 253.367995 
L 163.176544 275.129308 
L 163.640668 251.03608 
L 163.87273 257.175913 
L 164.104792 257.325586 
L 164.336854 257.633196 
L 164.568915 275.339756 
L 164.800977 267.023562 
L 165.033039 269.050772 
L 165.265101 269.836325 
L 165.497163 258.566639 
L 165.729225 257.579771 
L 165.961287 269.847863 
L 166.193348 261.690962 
L 166.42541 265.635243 
L 166.657472 262.450264 
L 166.889534 269.956399 
L 167.121596 271.068606 
L 167.353658 265.74844 
L 167.58572 267.843211 
L 167.817782 252.438664 
L 168.049843 268.082244 
L 168.281905 255.982193 
L 168.746029 275.586296 
L 168.978091 257.740771 
L 169.442215 272.255178 
L 169.674276 276.81695 
L 169.906338 259.256389 
L 170.1384 269.063155 
L 170.370462 253.009611 
L 170.602524 278.611661 
L 170.834586 259.245681 
L 171.066648 275.672107 
L 171.298709 271.988811 
L 171.530771 261.673014 
L 171.762833 267.77836 
L 171.994895 262.25972 
L 172.226957 260.854603 
L 172.459019 272.412799 
L 172.691081 273.436632 
L 172.923143 270.888705 
L 173.155204 273.84768 
L 173.387266 259.653524 
L 173.619328 277.543938 
L 173.85139 278.103419 
L 174.083452 254.681788 
L 174.315514 260.591319 
L 174.547576 263.591208 
L 174.779637 263.593717 
L 175.011699 272.731917 
L 175.243761 263.337831 
L 175.475823 269.513543 
L 175.707885 257.74315 
L 175.939947 275.173007 
L 176.172009 225.44637 
L 176.40407 256.341671 
L 176.636132 257.440353 
L 176.868194 263.355133 
L 177.100256 265.726768 
L 177.332318 255.206037 
L 177.56438 256.569863 
L 177.796442 267.786404 
L 178.028503 250.152607 
L 178.260565 275.245473 
L 178.492627 274.144846 
L 178.724689 261.124527 
L 179.188813 255.491146 
L 179.420875 266.188073 
L 179.652937 266.05823 
L 179.884998 269.254176 
L 180.11706 265.849956 
L 180.349122 269.213519 
L 180.581184 261.101128 
L 181.045308 275.79331 
L 181.27737 263.383375 
L 181.509431 244.348937 
L 181.741493 281.848247 
L 181.973555 264.317094 
L 182.205617 259.749662 
L 182.437679 260.41854 
L 182.669741 274.396014 
L 182.901803 264.967684 
L 183.133864 281.381666 
L 183.365926 268.574155 
L 183.597988 268.525765 
L 183.83005 272.426511 
L 184.062112 266.299087 
L 184.294174 271.057919 
L 184.526236 268.275233 
L 184.990359 255.893041 
L 185.222421 256.140906 
L 185.454483 277.286835 
L 185.686545 259.16986 
L 185.918607 253.674394 
L 186.382731 273.565939 
L 186.614792 263.120715 
L 186.846854 260.901966 
L 187.078916 254.033153 
L 187.310978 271.93777 
L 187.54304 273.270757 
L 187.775102 267.803179 
L 188.239225 267.219131 
L 188.471287 256.84251 
L 188.703349 270.219675 
L 188.935411 266.538418 
L 189.167473 256.688044 
L 189.399535 261.30933 
L 189.631597 272.671212 
L 189.863658 257.983358 
L 190.327782 274.626381 
L 190.791906 261.462954 
L 191.023968 257.159004 
L 191.25603 267.113814 
L 191.488091 265.729872 
L 191.720153 274.994835 
L 192.416339 258.608474 
L 192.648401 267.857782 
L 192.880463 263.173316 
L 193.112525 273.38359 
L 193.344586 263.235594 
L 193.576648 264.651128 
L 193.80871 252.602411 
L 194.040772 266.604583 
L 194.272834 255.789785 
L 194.504896 258.698101 
L 194.736958 259.579633 
L 194.969019 257.971545 
L 195.201081 265.036626 
L 195.665205 258.737184 
L 196.129329 267.062671 
L 196.361391 266.805822 
L 196.825514 262.980777 
L 197.057576 261.800371 
L 197.289638 273.237925 
L 197.5217 271.912204 
L 197.985824 258.444398 
L 198.217886 261.680874 
L 198.449947 254.495763 
L 198.682009 262.29674 
L 198.914071 265.021653 
L 199.146133 274.557847 
L 199.378195 270.895989 
L 199.610257 261.713948 
L 199.842319 274.381587 
L 200.07438 264.439121 
L 200.306442 275.527894 
L 200.770566 260.387365 
L 201.002628 258.731965 
L 201.23469 278.072485 
L 201.466752 258.197384 
L 201.698813 264.889853 
L 201.930875 259.576564 
L 202.162937 266.425181 
L 202.394999 264.452356 
L 202.627061 261.383559 
L 202.859123 239.598142 
L 203.091185 258.889097 
L 203.323246 261.001485 
L 203.555308 274.401893 
L 203.78737 259.430199 
L 204.019432 271.30696 
L 204.251494 251.461849 
L 204.483556 273.46615 
L 204.715618 266.887922 
L 205.179741 272.029938 
L 205.411803 279.283548 
L 205.643865 276.40507 
L 206.107989 263.038625 
L 206.340051 264.265114 
L 206.572113 267.114842 
L 206.804174 265.474903 
L 207.036236 254.153345 
L 207.268298 258.326595 
L 207.50036 259.469217 
L 208.196546 271.149761 
L 208.428607 263.30603 
L 208.660669 264.239676 
L 208.892731 263.580628 
L 209.124793 257.272688 
L 209.356855 265.093935 
L 209.588917 264.19094 
L 209.820979 282.758266 
L 210.05304 265.662461 
L 210.285102 269.524335 
L 210.517164 268.359873 
L 210.749226 254.317606 
L 210.981288 259.73687 
L 211.21335 275.866891 
L 211.445412 271.198914 
L 211.677474 258.80734 
L 211.909535 260.977585 
L 212.141597 265.883836 
L 212.373659 265.536811 
L 212.605721 258.178029 
L 213.069845 266.684396 
L 213.301907 269.985824 
L 213.533968 269.867572 
L 213.76603 261.602146 
L 213.998092 258.415226 
L 214.230154 276.866003 
L 214.462216 262.680612 
L 214.694278 274.633721 
L 214.92634 270.16604 
L 215.158401 260.46656 
L 215.390463 256.04602 
L 215.622525 272.773352 
L 215.854587 267.151295 
L 216.086649 268.710486 
L 216.318711 272.071779 
L 216.782834 263.440402 
L 217.246958 274.813312 
L 217.47902 263.023355 
L 217.711082 265.037672 
L 217.943144 251.780859 
L 218.407268 270.566246 
L 218.639329 273.439063 
L 218.871391 258.035283 
L 219.335515 274.025511 
L 219.567577 269.181987 
L 219.799639 267.865061 
L 220.031701 261.640335 
L 220.263762 274.291458 
L 220.495824 270.019399 
L 220.959948 253.129903 
L 221.19201 267.604723 
L 221.424072 275.08614 
L 221.656134 271.351847 
L 221.888195 265.382456 
L 222.120257 270.706852 
L 222.352319 268.271974 
L 222.584381 263.478695 
L 222.816443 269.84793 
L 223.048505 262.579197 
L 223.280567 264.296803 
L 223.512629 271.646045 
L 223.74469 267.472837 
L 223.976752 270.354387 
L 224.208814 264.911932 
L 224.440876 266.115703 
L 224.905 262.87055 
L 225.369123 265.927338 
L 225.833247 276.779452 
L 226.065309 251.417758 
L 226.297371 265.203642 
L 226.529433 258.338119 
L 226.761495 263.760167 
L 226.993556 258.98568 
L 227.225618 283.186889 
L 227.45768 262.597041 
L 227.689742 280.361012 
L 227.921804 271.204875 
L 228.153866 273.98889 
L 228.385928 258.544024 
L 228.617989 276.331403 
L 228.850051 267.72551 
L 229.082113 265.358682 
L 229.314175 261.538271 
L 229.546237 248.86536 
L 229.778299 267.920367 
L 230.010361 263.720904 
L 230.242423 269.825109 
L 230.474484 263.264659 
L 230.706546 268.350903 
L 230.938608 262.477745 
L 231.17067 267.772022 
L 231.402732 263.373601 
L 231.634794 269.801133 
L 232.098917 274.68522 
L 232.330979 269.451994 
L 232.563041 274.594979 
L 232.795103 266.565799 
L 233.027165 272.272724 
L 233.491289 274.166776 
L 233.72335 271.662629 
L 233.955412 267.627931 
L 234.419536 274.570562 
L 234.651598 269.763442 
L 234.88366 274.112231 
L 235.115722 280.853739 
L 235.347783 263.499656 
L 235.811907 269.05841 
L 236.043969 269.598753 
L 236.276031 272.809984 
L 236.508093 262.624657 
L 236.740155 261.730658 
L 236.972217 275.200981 
L 237.204278 270.121455 
L 237.43634 275.205754 
L 237.668402 264.466331 
L 237.900464 289.64416 
L 238.132526 276.185342 
L 238.364588 269.88993 
L 238.59665 270.141392 
L 238.828711 264.998602 
L 239.060773 275.739186 
L 239.292835 275.66564 
L 239.524897 274.384842 
L 239.989021 267.81304 
L 240.221083 279.762018 
L 240.453144 271.756336 
L 240.685206 268.301033 
L 240.917268 262.432702 
L 241.14933 276.07992 
L 241.381392 268.822145 
L 241.613454 273.854278 
L 241.845516 282.754756 
L 242.077577 266.807279 
L 242.541701 281.856272 
L 242.773763 267.195689 
L 243.005825 269.516927 
L 243.237887 268.607938 
L 243.469949 264.483916 
L 243.702011 264.176589 
L 243.934072 269.136905 
L 244.166134 279.841032 
L 244.398196 268.742747 
L 244.630258 269.918368 
L 244.86232 272.203221 
L 245.094382 258.820414 
L 245.326444 257.899678 
L 245.558505 271.226917 
L 245.790567 269.7543 
L 246.022629 272.108022 
L 246.254691 270.040921 
L 246.486753 257.872322 
L 246.718815 274.571532 
L 246.950877 274.198597 
L 247.182938 260.750691 
L 247.415 270.899932 
L 247.647062 272.088753 
L 247.879124 255.583015 
L 248.111186 260.522079 
L 248.343248 285.743828 
L 248.57531 264.256956 
L 248.807371 264.880917 
L 249.039433 261.82936 
L 249.503557 273.780523 
L 249.735619 260.113317 
L 250.199743 272.347218 
L 250.431805 270.37975 
L 250.663866 295.488 
L 250.895928 272.082372 
L 251.12799 270.739724 
L 251.360052 278.398626 
L 251.824176 256.521219 
L 252.056238 268.031417 
L 252.288299 269.578525 
L 252.520361 267.168885 
L 252.752423 266.759812 
L 252.984485 263.134949 
L 253.216547 272.665226 
L 253.448609 272.396632 
L 253.680671 280.007774 
L 253.912732 271.375621 
L 254.144794 271.345108 
L 254.376856 271.709424 
L 254.608918 273.346779 
L 254.84098 272.891298 
L 255.073042 261.015974 
L 255.537166 266.773421 
L 255.769227 267.377046 
L 256.001289 269.674982 
L 256.233351 255.373909 
L 256.465413 267.071012 
L 256.697475 260.743759 
L 256.929537 270.142794 
L 257.161599 266.288677 
L 257.39366 277.151909 
L 257.625722 264.227613 
L 257.857784 274.078431 
L 258.321908 265.203624 
L 258.55397 271.494594 
L 258.786032 267.260378 
L 259.250155 269.843276 
L 259.482217 280.442758 
L 259.714279 265.986322 
L 260.178403 274.632569 
L 260.410465 264.874673 
L 260.642526 280.256687 
L 260.874588 274.392944 
L 261.10665 278.241521 
L 261.570774 266.765172 
L 261.802836 271.408419 
L 262.034898 280.100796 
L 262.26696 261.163726 
L 262.499021 275.814271 
L 262.731083 276.104941 
L 263.195207 254.673575 
L 263.427269 277.94684 
L 263.659331 277.218612 
L 263.891393 278.912733 
L 264.355516 271.421296 
L 264.587578 279.788617 
L 264.81964 266.845518 
L 265.051702 281.187741 
L 265.515826 267.764791 
L 265.747887 282.136137 
L 265.979949 269.877697 
L 266.212011 266.584704 
L 266.444073 275.321454 
L 266.908197 257.145662 
L 267.140259 274.224505 
L 267.37232 279.799064 
L 267.604382 256.365277 
L 267.836444 281.32759 
L 268.068506 252.559814 
L 268.300568 275.330573 
L 268.53263 260.515242 
L 268.764692 271.528325 
L 268.996754 270.965749 
L 269.228815 271.498828 
L 269.692939 261.588545 
L 269.925001 262.500158 
L 270.157063 266.870673 
L 270.389125 277.926443 
L 270.621187 268.657836 
L 270.853248 278.627635 
L 271.08531 275.725061 
L 271.317372 276.322897 
L 271.549434 283.13756 
L 271.781496 267.483165 
L 272.013558 265.706601 
L 272.24562 277.216058 
L 272.477681 266.761927 
L 272.941805 262.499109 
L 273.173867 280.805178 
L 273.405929 263.075341 
L 273.637991 279.717564 
L 273.870053 269.18781 
L 274.102114 269.681442 
L 274.334176 268.170461 
L 274.566238 264.091297 
L 274.7983 271.299984 
L 275.030362 272.909818 
L 275.262424 264.51869 
L 275.494486 273.113299 
L 275.726548 272.686757 
L 275.958609 264.235062 
L 276.190671 263.331066 
L 276.422733 264.817223 
L 276.654795 272.09008 
L 276.886857 250.153036 
L 277.350981 276.435636 
L 277.583042 275.525897 
L 277.815104 270.254717 
L 278.047166 273.141411 
L 278.279228 267.18223 
L 278.51129 281.02889 
L 278.743352 279.91478 
L 278.975414 265.98587 
L 279.207475 273.887769 
L 279.439537 267.161272 
L 279.671599 272.23687 
L 279.903661 270.654653 
L 280.135723 276.504041 
L 280.367785 279.437182 
L 280.599847 270.052342 
L 280.831909 266.807027 
L 281.06397 284.10908 
L 281.296032 265.2268 
L 281.528094 276.904075 
L 281.760156 271.938248 
L 281.992218 276.318827 
L 282.22428 269.076097 
L 282.456342 269.63635 
L 282.688403 270.806107 
L 282.920465 271.201066 
L 283.152527 266.328508 
L 283.384589 269.090467 
L 283.616651 266.491302 
L 283.848713 266.809703 
L 284.080775 274.276326 
L 284.312836 264.512629 
L 284.544898 282.836043 
L 284.77696 267.535474 
L 285.009022 274.462905 
L 285.241084 262.220303 
L 285.705208 274.209895 
L 285.937269 273.950416 
L 286.169331 274.015479 
L 286.401393 272.770371 
L 286.633455 274.609832 
L 286.865517 281.73145 
L 287.097579 270.17982 
L 287.329641 269.953488 
L 287.561703 273.528638 
L 288.025826 270.392022 
L 288.257888 279.294412 
L 288.48995 270.014745 
L 288.722012 272.837262 
L 288.954074 277.447315 
L 289.418197 267.438197 
L 289.650259 261.921427 
L 289.882321 259.533797 
L 290.114383 278.442821 
L 290.346445 275.128022 
L 290.578507 279.671799 
L 290.810569 261.99648 
L 291.04263 260.895278 
L 291.274692 273.402666 
L 291.738816 268.663855 
L 291.970878 276.394933 
L 292.20294 268.093209 
L 292.435002 269.662708 
L 292.667063 270.21332 
L 292.899125 271.119372 
L 293.131187 273.06796 
L 293.363249 266.72819 
L 293.595311 269.301346 
L 293.827373 282.149791 
L 294.059435 270.063088 
L 294.291497 277.970286 
L 294.523558 259.092775 
L 294.75562 268.907781 
L 295.219744 275.622563 
L 295.451806 277.843134 
L 295.683868 264.208499 
L 295.91593 277.01277 
L 296.380053 264.154643 
L 296.612115 260.070438 
L 296.844177 263.264399 
L 297.076239 279.24508 
L 297.308301 258.816868 
L 297.540363 268.207949 
L 297.772424 271.357378 
L 298.004486 268.056755 
L 298.236548 274.021784 
L 298.700672 266.592554 
L 298.932734 271.694201 
L 299.164796 271.009802 
L 299.396857 253.055364 
L 299.628919 261.827668 
L 299.860981 283.651655 
L 300.093043 265.424357 
L 300.325105 267.379809 
L 300.557167 264.654235 
L 300.789229 271.354046 
L 301.021291 268.525279 
L 301.253352 276.805527 
L 301.485414 257.854195 
L 301.949538 277.859265 
L 302.1816 263.879828 
L 302.413662 279.23029 
L 302.645724 267.359013 
L 302.877785 276.824907 
L 303.109847 263.48051 
L 303.341909 265.603912 
L 303.573971 266.139294 
L 303.806033 279.151223 
L 304.038095 270.8129 
L 304.270157 280.586188 
L 304.502218 264.041845 
L 304.966342 273.600479 
L 305.198404 272.385808 
L 305.430466 258.531474 
L 305.662528 267.906886 
L 305.89459 282.183994 
L 306.126652 268.135897 
L 306.358713 265.572154 
L 306.590775 270.751234 
L 306.822837 269.478269 
L 307.286961 278.98306 
L 307.519023 260.819676 
L 307.751085 277.579904 
L 307.983146 263.246129 
L 308.215208 274.299446 
L 308.44727 260.751268 
L 308.679332 276.466705 
L 308.911394 273.614091 
L 309.143456 277.223548 
L 309.375518 271.425257 
L 309.607579 278.085128 
L 309.839641 279.866686 
L 310.071703 277.85032 
L 310.303765 269.933193 
L 310.767889 279.083423 
L 310.999951 275.038467 
L 311.232012 268.326139 
L 311.464074 270.953748 
L 311.696136 258.572263 
L 311.928198 272.815292 
L 312.16026 271.304877 
L 312.392322 275.066594 
L 312.624384 267.237427 
L 312.856446 254.234454 
L 313.088507 269.801135 
L 313.552631 257.986012 
L 313.784693 273.707763 
L 314.016755 281.691732 
L 314.248817 262.684307 
L 314.480879 267.616893 
L 314.71294 269.405014 
L 314.945002 276.442169 
L 315.177064 261.751673 
L 315.409126 271.92698 
L 315.641188 265.222655 
L 315.87325 274.075009 
L 316.105312 278.486719 
L 316.337373 280.418999 
L 316.569435 270.967879 
L 316.801497 272.362974 
L 317.033559 262.227207 
L 317.265621 259.452682 
L 317.497683 269.83729 
L 317.961806 271.623723 
L 318.193868 272.383718 
L 318.42593 272.127201 
L 318.890054 274.521277 
L 319.122116 263.373876 
L 319.354178 273.401547 
L 319.818301 267.315395 
L 320.050363 276.505721 
L 320.282425 274.024697 
L 320.514487 267.168576 
L 320.746549 273.836538 
L 320.978611 259.773012 
L 321.674796 271.687137 
L 321.906858 260.876741 
L 322.13892 265.218777 
L 322.370982 259.441905 
L 322.603044 268.90557 
L 323.067167 264.696869 
L 323.299229 282.908887 
L 323.531291 267.137996 
L 323.763353 276.303505 
L 323.995415 274.15115 
L 324.227477 268.205943 
L 324.459539 270.630369 
L 324.6916 271.012229 
L 324.923662 272.163468 
L 325.155724 278.203634 
L 325.387786 266.064091 
L 325.619848 291.002552 
L 325.85191 271.164949 
L 326.083972 264.192635 
L 326.316034 266.114874 
L 326.548095 263.390801 
L 326.780157 272.065399 
L 327.012219 265.020519 
L 327.244281 269.843534 
L 327.476343 269.587148 
L 327.708405 274.35693 
L 327.940467 258.766231 
L 328.636652 277.251752 
L 328.868714 275.488252 
L 329.100776 259.235234 
L 329.332838 272.845752 
L 329.5649 268.252912 
L 329.796961 270.683922 
L 330.029023 264.215432 
L 330.261085 270.117565 
L 330.493147 260.850646 
L 330.725209 265.475665 
L 330.957271 260.776311 
L 331.189333 275.323691 
L 331.421395 274.718717 
L 331.653456 274.66686 
L 331.885518 275.64596 
L 332.349642 282.823685 
L 332.581704 272.451534 
L 332.813766 273.858561 
L 333.045828 276.890069 
L 333.277889 264.106008 
L 333.509951 268.895715 
L 333.742013 261.999416 
L 334.206137 269.959847 
L 334.438199 266.614308 
L 334.670261 275.345893 
L 334.902322 274.084881 
L 335.134384 271.767903 
L 335.366446 275.090815 
L 335.598508 276.294472 
L 335.83057 275.036921 
L 336.062632 261.856064 
L 336.294694 283.35941 
L 336.526755 275.282229 
L 336.758817 274.625236 
L 337.222941 271.764811 
L 337.455003 272.118736 
L 337.687065 266.036711 
L 337.919127 275.366811 
L 338.151189 260.341581 
L 338.38325 268.405945 
L 338.615312 269.587099 
L 338.847374 266.231491 
L 339.079436 267.750307 
L 339.311498 281.676291 
L 339.54356 267.405884 
L 339.775622 278.71025 
L 340.007683 274.923768 
L 340.239745 281.821074 
L 340.471807 272.077057 
L 340.703869 274.680388 
L 340.935931 262.762291 
L 341.167993 258.974049 
L 341.400055 281.536717 
L 341.632116 277.679747 
L 341.864178 282.173994 
L 342.09624 279.093286 
L 342.328302 269.050813 
L 342.560364 281.924273 
L 342.792426 267.975311 
L 343.024488 275.670579 
L 343.488611 270.999847 
L 343.720673 264.31761 
L 344.184797 274.856871 
L 344.416859 269.999398 
L 344.648921 255.432408 
L 344.880983 273.014238 
L 345.113044 270.575065 
L 345.577168 278.639003 
L 345.80923 258.199858 
L 346.041292 278.496593 
L 346.273354 276.003395 
L 346.505416 281.767653 
L 346.737477 279.30623 
L 346.969539 264.392756 
L 347.201601 266.780788 
L 347.433663 253.770374 
L 348.129849 281.720911 
L 348.36191 269.203482 
L 348.593972 273.888593 
L 348.826034 286.29571 
L 349.290158 257.58899 
L 349.52222 270.680409 
L 349.754282 265.405926 
L 349.986343 268.072014 
L 350.218405 265.258657 
L 350.450467 267.240348 
L 350.682529 263.395441 
L 350.914591 272.43296 
L 351.146653 256.613622 
L 351.378715 271.903774 
L 351.610777 264.917329 
L 351.842838 266.797761 
L 352.0749 282.319425 
L 352.539024 262.614643 
L 352.771086 261.727752 
L 353.23521 273.379781 
L 353.467271 271.418301 
L 353.699333 274.927397 
L 353.931395 264.132088 
L 354.163457 279.568879 
L 354.395519 286.994254 
L 354.627581 266.643535 
L 354.859643 263.897273 
L 355.091704 277.859343 
L 355.323766 275.748435 
L 355.555828 267.625351 
L 355.78789 276.280571 
L 356.019952 269.028418 
L 356.252014 280.635869 
L 356.484076 265.315623 
L 356.716138 272.387836 
L 356.948199 271.830412 
L 357.180261 265.74989 
L 357.644385 273.508818 
L 357.876447 274.412977 
L 358.108509 277.451064 
L 358.340571 276.41403 
L 358.572632 270.80194 
L 358.804694 268.591755 
L 359.036756 275.471527 
L 359.268818 275.505657 
L 359.50088 276.106592 
L 359.965004 269.862247 
L 360.197065 262.01807 
L 360.429127 282.128587 
L 360.661189 266.636069 
L 360.893251 263.935634 
L 361.125313 271.231576 
L 361.357375 266.784356 
L 361.589437 277.754886 
L 361.821498 273.290714 
L 362.05356 263.335835 
L 362.285622 274.335374 
L 362.517684 278.541572 
L 362.749746 278.409633 
L 363.21387 272.38543 
L 363.445932 256.358235 
L 363.677993 264.30052 
L 363.910055 285.778914 
L 364.374179 266.488225 
L 364.606241 263.999162 
L 364.838303 266.10479 
L 365.070365 275.805097 
L 365.302426 262.747577 
L 365.534488 284.306646 
L 365.76655 269.384223 
L 365.998612 274.966981 
L 366.230674 277.675625 
L 366.462736 267.951746 
L 366.694798 270.084365 
L 366.926859 270.54746 
L 367.390983 280.580376 
L 367.623045 269.222844 
L 367.855107 275.810788 
L 368.087169 274.232428 
L 368.319231 266.922192 
L 368.551292 280.550086 
L 368.783354 265.925249 
L 369.015416 281.564889 
L 369.247478 264.382452 
L 369.47954 264.707445 
L 369.711602 282.729706 
L 369.943664 269.273764 
L 370.407787 265.475478 
L 370.639849 265.17969 
L 370.871911 276.012629 
L 371.103973 270.554043 
L 371.336035 275.275928 
L 371.568097 271.466525 
L 371.800159 275.295781 
L 372.03222 272.100406 
L 372.264282 285.210186 
L 372.496344 266.076904 
L 372.728406 275.451117 
L 372.960468 258.41116 
L 373.424592 279.00919 
L 373.888715 276.90225 
L 374.120777 280.201696 
L 374.352839 271.630833 
L 374.584901 271.665634 
L 374.816963 279.684429 
L 375.049025 272.283262 
L 375.281086 270.44599 
L 375.513148 275.494741 
L 375.74521 277.475182 
L 376.441396 267.160654 
L 376.673458 285.066049 
L 377.369643 263.606867 
L 377.601705 262.967458 
L 377.833767 257.893527 
L 378.065829 263.534904 
L 378.297891 260.44957 
L 378.529953 275.62499 
L 378.762014 266.773199 
L 378.994076 270.707614 
L 379.226138 265.427447 
L 379.4582 267.339821 
L 379.690262 278.784186 
L 379.922324 281.410892 
L 380.154386 268.012542 
L 380.618509 277.427218 
L 380.850571 280.208068 
L 381.082633 269.778294 
L 381.314695 276.920649 
L 381.546757 277.448092 
L 382.01088 266.035862 
L 382.242942 272.698726 
L 382.475004 270.267089 
L 382.707066 277.570945 
L 382.939128 269.474536 
L 383.17119 281.325563 
L 383.403252 268.251884 
L 383.635314 279.148998 
L 383.867375 276.318816 
L 384.099437 275.002542 
L 384.331499 262.33419 
L 384.563561 257.474002 
L 384.795623 263.224672 
L 385.027685 264.95304 
L 385.259747 288.143291 
L 385.491808 272.546734 
L 385.955932 264.288418 
L 386.187994 276.198043 
L 386.420056 270.726718 
L 386.652118 273.29374 
L 386.88418 280.274318 
L 387.116241 263.413289 
L 387.348303 275.648959 
L 387.580365 280.17012 
L 387.812427 256.352758 
L 388.044489 260.631205 
L 388.276551 275.447485 
L 388.508613 271.519163 
L 388.740675 270.397954 
L 388.972736 265.266574 
L 389.204798 272.611861 
L 389.43686 265.469527 
L 389.668922 281.212967 
L 389.900984 273.895367 
L 390.133046 273.771823 
L 390.365108 267.675671 
L 390.597169 265.424593 
L 390.829231 271.68747 
L 391.061293 284.349754 
L 391.293355 269.480911 
L 391.525417 271.302588 
L 391.757479 285.520151 
L 391.989541 269.925852 
L 392.221602 278.862826 
L 392.453664 276.324218 
L 392.685726 269.267147 
L 392.917788 278.717816 
L 393.14985 266.933757 
L 393.613974 274.533996 
L 393.846035 269.978399 
L 394.078097 262.904688 
L 394.310159 280.477094 
L 394.542221 270.528086 
L 394.774283 272.384022 
L 395.006345 273.02309 
L 395.238407 274.670025 
L 395.70253 260.126073 
L 395.934592 267.563016 
L 396.166654 271.401037 
L 396.398716 265.563215 
L 396.630778 273.559858 
L 396.86284 265.933667 
L 397.094902 264.387966 
L 397.326963 275.17498 
L 397.559025 266.070604 
L 397.791087 285.165123 
L 398.255211 280.408524 
L 398.487273 279.956976 
L 398.487273 279.956976 
" style="fill:none;stroke:#1f77b4;stroke-linecap:square;stroke-width:1.5;"/>
   </g>
   <g id="line2d_15">
    <path clip-path="url(#p96cd056652)" d="M 73.832727 105.108868 
L 74.064789 124.97777 
L 74.296851 132.469761 
L 74.528913 122.442562 
L 74.760975 149.298415 
L 74.993037 154.300481 
L 75.225098 156.217336 
L 75.689222 165.369835 
L 75.921284 162.972201 
L 76.385408 174.247903 
L 76.61747 171.547271 
L 76.849531 173.7326 
L 77.081593 183.867511 
L 77.313655 168.619457 
L 77.545717 186.577303 
L 77.777779 192.276198 
L 78.009841 178.326764 
L 78.241903 189.568501 
L 78.706026 193.895408 
L 78.938088 203.882649 
L 79.402212 194.085025 
L 79.634274 202.700084 
L 79.866336 205.049616 
L 80.098398 195.896085 
L 80.330459 212.893483 
L 80.562521 210.247548 
L 80.794583 211.269289 
L 81.026645 199.928543 
L 81.258707 206.922056 
L 81.490769 207.793599 
L 81.722831 204.026397 
L 81.954892 209.992625 
L 82.186954 207.047835 
L 82.419016 200.378672 
L 82.88314 214.217853 
L 83.115202 200.46112 
L 83.347264 216.922129 
L 83.579325 211.906387 
L 83.811387 215.970115 
L 84.043449 212.589503 
L 84.275511 219.480386 
L 84.507573 221.384927 
L 84.739635 221.805002 
L 84.971697 202.990218 
L 85.43582 221.374354 
L 85.667882 221.241825 
L 85.899944 219.392114 
L 86.132006 220.694647 
L 86.364068 221.06131 
L 86.59613 215.564531 
L 87.060253 226.923533 
L 87.292315 209.03558 
L 87.756439 226.438995 
L 87.988501 216.929879 
L 88.220563 219.856256 
L 88.452625 225.009185 
L 88.684686 221.154184 
L 88.916748 225.858901 
L 89.14881 223.605911 
L 89.380872 229.086951 
L 89.612934 226.789199 
L 89.844996 230.781011 
L 90.30912 222.641103 
L 90.541181 237.733564 
L 91.005305 229.415832 
L 91.237367 228.332665 
L 91.469429 233.155744 
L 91.701491 229.57542 
L 91.933553 231.406376 
L 92.165614 235.882063 
L 92.397676 228.188637 
L 92.629738 232.350421 
L 92.8618 212.372853 
L 93.093862 231.999824 
L 93.325924 229.482206 
L 93.557986 230.158361 
L 93.790047 231.369166 
L 94.022109 233.404215 
L 94.254171 221.567327 
L 94.486233 236.009911 
L 94.718295 231.594397 
L 94.950357 232.705306 
L 95.646542 233.94384 
L 95.878604 234.267582 
L 96.110666 234.239509 
L 96.342728 225.665746 
L 96.57479 228.491002 
L 96.806852 229.265312 
L 97.038914 235.008419 
L 97.270975 231.115614 
L 97.503037 240.377487 
L 97.735099 235.037026 
L 97.967161 239.388152 
L 98.199223 238.790912 
L 98.431285 241.823164 
L 98.663347 239.105065 
L 98.895408 234.614769 
L 99.12747 234.623337 
L 99.359532 240.264959 
L 99.591594 242.689328 
L 99.823656 236.709596 
L 100.28778 247.650375 
L 100.519841 242.344956 
L 100.751903 240.921639 
L 100.983965 235.746816 
L 101.216027 237.66345 
L 101.448089 237.402907 
L 101.680151 234.215116 
L 101.912213 222.65253 
L 102.144274 237.161925 
L 102.376336 239.587154 
L 102.608398 240.192978 
L 103.072522 230.871812 
L 103.304584 237.571695 
L 103.536646 234.338895 
L 103.768708 240.956895 
L 104.000769 242.15868 
L 104.232831 232.332472 
L 104.464893 232.275611 
L 104.696955 237.40591 
L 104.929017 250.675423 
L 105.161079 233.534316 
L 105.625202 243.121754 
L 105.857264 237.065565 
L 106.089326 235.76954 
L 106.321388 247.276951 
L 106.55345 239.467211 
L 106.785512 235.935244 
L 107.017574 234.495562 
L 107.249635 246.260334 
L 107.713759 230.568241 
L 107.945821 239.319401 
L 108.177883 238.185173 
L 108.409945 240.684283 
L 108.642007 238.68224 
L 108.874068 235.520007 
L 109.10613 230.535721 
L 109.338192 233.755649 
L 109.570254 246.838855 
L 109.802316 236.945908 
L 110.034378 236.966262 
L 110.26644 244.223772 
L 110.498502 229.658223 
L 110.730563 238.486357 
L 110.962625 242.899364 
L 111.194687 226.339588 
L 111.426749 241.20201 
L 111.658811 232.911419 
L 112.122935 243.720634 
L 112.354996 243.433275 
L 112.587058 247.253232 
L 112.81912 244.929335 
L 113.051182 243.734362 
L 113.283244 240.609406 
L 113.515306 245.63128 
L 113.747368 234.388259 
L 113.979429 242.770087 
L 114.211491 236.521012 
L 114.443553 236.873905 
L 114.675615 238.607766 
L 114.907677 242.890658 
L 115.139739 229.233555 
L 115.371801 241.929414 
L 115.603862 248.09338 
L 115.835924 238.705312 
L 116.067986 242.370408 
L 116.300048 249.292722 
L 116.996234 233.294242 
L 117.460357 247.030357 
L 117.692419 237.201921 
L 117.924481 235.403683 
L 118.156543 244.658066 
L 118.388605 247.187508 
L 118.620667 244.61505 
L 118.852729 245.414412 
L 119.08479 243.626032 
L 119.316852 245.919655 
L 119.548914 246.723319 
L 119.780976 220.16658 
L 120.013038 249.796335 
L 120.2451 247.266989 
L 120.477162 247.98235 
L 120.709223 242.216079 
L 120.941285 242.90669 
L 121.173347 226.260689 
L 121.405409 244.112107 
L 121.637471 242.937562 
L 121.869533 239.742634 
L 122.101595 250.867104 
L 122.333657 246.010831 
L 122.565718 244.944589 
L 122.79778 252.721334 
L 123.029842 240.648534 
L 123.261904 249.96492 
L 123.493966 247.275669 
L 123.726028 249.804675 
L 123.95809 250.567971 
L 124.190151 239.439626 
L 124.654275 245.320421 
L 124.886337 241.400782 
L 125.118399 244.210713 
L 125.350461 250.466787 
L 125.582523 236.290131 
L 125.814584 249.548185 
L 126.046646 249.436868 
L 126.278708 240.219431 
L 126.742832 255.985307 
L 126.974894 246.07451 
L 127.206956 248.261917 
L 127.439017 248.022559 
L 127.671079 244.565145 
L 127.903141 255.855633 
L 128.135203 241.308903 
L 128.367265 252.540908 
L 128.599327 247.637374 
L 128.831389 253.97734 
L 129.063451 247.98446 
L 129.295512 250.736881 
L 129.527574 257.129369 
L 129.759636 241.87573 
L 129.991698 252.691416 
L 130.22376 249.890832 
L 130.455822 252.009896 
L 130.687884 249.782399 
L 130.919945 252.0735 
L 131.152007 252.290276 
L 131.384069 254.169016 
L 131.848193 244.070846 
L 132.080255 254.708962 
L 132.312317 251.649296 
L 132.544378 244.86164 
L 132.77644 247.285503 
L 133.008502 245.254427 
L 133.240564 261.027781 
L 133.472626 259.843295 
L 133.704688 241.936011 
L 133.93675 253.476967 
L 134.168811 253.363364 
L 134.400873 256.723617 
L 134.632935 250.827634 
L 134.864997 253.155373 
L 135.097059 250.487739 
L 135.329121 253.95472 
L 135.561183 253.421266 
L 135.793245 260.660098 
L 136.025306 245.55234 
L 136.257368 259.830454 
L 136.48943 242.365685 
L 136.721492 260.065071 
L 136.953554 262.812841 
L 137.417678 244.942435 
L 137.649739 248.782807 
L 137.881801 256.097377 
L 138.113863 245.098404 
L 138.577987 258.764796 
L 138.810049 255.76512 
L 139.042111 260.619638 
L 139.274172 245.500622 
L 139.506234 258.706244 
L 139.970358 250.183222 
L 140.20242 251.776462 
L 140.434482 256.267024 
L 140.666544 258.369593 
L 140.898605 263.48098 
L 141.130667 245.60121 
L 141.362729 252.648085 
L 141.594791 251.447278 
L 141.826853 259.383812 
L 142.058915 257.549743 
L 142.290977 258.727618 
L 142.523039 255.953774 
L 142.7551 243.599778 
L 142.987162 264.502616 
L 143.219224 248.517341 
L 143.451286 251.327209 
L 143.683348 256.635543 
L 143.91541 244.967376 
L 144.147472 249.439672 
L 144.379533 258.323905 
L 144.611595 246.379225 
L 145.075719 254.048391 
L 145.307781 247.123345 
L 146.236028 266.604759 
L 146.932214 239.075341 
L 147.396338 264.263863 
L 147.6284 250.732591 
L 147.860461 264.627968 
L 148.092523 255.428137 
L 148.324585 260.078689 
L 148.556647 251.417326 
L 148.788709 260.546378 
L 149.020771 257.748151 
L 149.252833 259.252136 
L 149.484894 259.897832 
L 149.716956 254.841973 
L 149.949018 261.023688 
L 150.413142 256.261915 
L 150.645204 261.213758 
L 150.877266 251.020245 
L 151.109327 253.38866 
L 151.341389 258.413264 
L 151.573451 252.763586 
L 151.805513 250.329148 
L 152.037575 262.936374 
L 152.269637 263.418353 
L 152.73376 252.172312 
L 152.965822 250.287856 
L 153.197884 255.35283 
L 153.429946 269.551962 
L 153.662008 262.551951 
L 153.89407 263.766235 
L 154.126132 255.901703 
L 154.358194 236.315904 
L 154.590255 259.346615 
L 154.822317 256.107205 
L 155.054379 261.865267 
L 155.518503 243.627396 
L 155.982627 256.905417 
L 156.214688 258.622646 
L 156.44675 259.484318 
L 156.678812 252.650802 
L 156.910874 253.726668 
L 157.142936 265.175251 
L 157.60706 249.284354 
L 157.839121 260.185408 
L 158.071183 258.54744 
L 158.303245 251.944288 
L 158.535307 255.165516 
L 158.767369 264.150314 
L 158.999431 259.824915 
L 159.463554 261.093568 
L 159.695616 255.490118 
L 159.927678 256.546907 
L 160.391802 250.720193 
L 160.623864 259.365703 
L 160.855926 262.83606 
L 161.087988 259.421854 
L 161.320049 271.066119 
L 161.552111 250.917218 
L 161.784173 259.63911 
L 162.016235 261.888779 
L 162.248297 259.508545 
L 162.480359 264.189348 
L 162.712421 213.025041 
L 162.944482 254.181994 
L 163.176544 263.358983 
L 163.640668 254.906432 
L 163.87273 260.068693 
L 164.104792 262.364179 
L 164.336854 257.392126 
L 164.568915 257.358398 
L 164.800977 258.600738 
L 165.033039 255.733205 
L 165.265101 258.671233 
L 165.497163 258.470881 
L 165.729225 251.362494 
L 165.961287 253.390315 
L 166.42541 262.427336 
L 166.657472 262.595384 
L 166.889534 266.934796 
L 167.121596 262.924511 
L 167.353658 256.178755 
L 167.58572 261.915578 
L 168.049843 249.658879 
L 168.513967 265.553174 
L 168.746029 266.161132 
L 168.978091 258.480596 
L 169.210153 264.08144 
L 169.442215 265.009648 
L 169.674276 259.021936 
L 169.906338 259.381617 
L 170.1384 242.368597 
L 170.602524 264.807134 
L 170.834586 255.868428 
L 171.066648 260.296359 
L 171.298709 262.095136 
L 171.530771 261.338883 
L 171.762833 251.93912 
L 171.994895 262.73914 
L 172.226957 257.856606 
L 172.459019 259.481829 
L 172.691081 260.192154 
L 172.923143 264.359141 
L 173.155204 251.195444 
L 173.387266 260.953429 
L 173.619328 252.568509 
L 173.85139 253.233995 
L 174.083452 250.614737 
L 174.315514 262.125478 
L 174.547576 249.836014 
L 175.011699 270.378514 
L 175.243761 261.563701 
L 175.475823 260.99938 
L 175.707885 256.387848 
L 175.939947 258.71151 
L 176.172009 248.16303 
L 176.40407 248.504936 
L 176.636132 259.630297 
L 176.868194 264.180398 
L 177.100256 252.91004 
L 177.332318 261.390578 
L 177.56438 252.103209 
L 177.796442 267.221039 
L 178.028503 251.629665 
L 178.260565 262.246002 
L 178.492627 246.311829 
L 178.724689 260.915778 
L 178.956751 267.549242 
L 179.188813 251.684775 
L 179.652937 266.706673 
L 180.11706 259.707693 
L 180.349122 257.016266 
L 180.581184 264.127835 
L 180.813246 254.346126 
L 181.045308 257.304271 
L 181.27737 268.664871 
L 181.741493 254.390054 
L 181.973555 265.493566 
L 182.205617 246.46352 
L 182.437679 271.745016 
L 182.669741 261.180004 
L 182.901803 266.340498 
L 183.133864 255.250728 
L 183.365926 264.251435 
L 183.597988 256.167307 
L 183.83005 260.339191 
L 184.062112 262.120798 
L 184.294174 266.582705 
L 184.526236 260.811612 
L 184.758297 250.717045 
L 184.990359 262.762551 
L 185.222421 254.362887 
L 185.454483 255.393806 
L 185.686545 260.97094 
L 185.918607 259.995021 
L 186.150669 256.850837 
L 186.382731 257.371726 
L 186.614792 250.780349 
L 186.846854 259.781446 
L 187.078916 257.76038 
L 187.310978 257.177155 
L 187.54304 254.482444 
L 187.775102 245.706829 
L 188.007164 263.142502 
L 188.239225 257.403889 
L 188.703349 267.838245 
L 188.935411 264.51535 
L 189.167473 263.327245 
L 189.399535 262.928459 
L 189.863658 273.251581 
L 190.09572 253.03857 
L 190.327782 256.259653 
L 190.559844 257.229969 
L 191.023968 262.31041 
L 191.25603 260.269058 
L 191.488091 263.732415 
L 191.720153 253.69675 
L 191.952215 261.24269 
L 192.184277 259.648106 
L 192.416339 255.038875 
L 192.648401 244.803069 
L 192.880463 260.18947 
L 193.112525 263.21177 
L 193.344586 255.152821 
L 193.576648 261.960375 
L 194.040772 254.42352 
L 194.272834 258.62367 
L 194.504896 258.075065 
L 194.736958 275.20071 
L 194.969019 273.679089 
L 195.433143 251.344904 
L 195.665205 257.473746 
L 195.897267 237.914647 
L 196.129329 265.352872 
L 196.361391 262.74373 
L 196.593452 262.824986 
L 196.825514 268.178845 
L 197.057576 258.029888 
L 197.289638 254.550016 
L 197.5217 263.317836 
L 197.753762 261.238229 
L 197.985824 241.709382 
L 198.217886 273.59323 
L 198.449947 237.125226 
L 198.682009 263.748396 
L 198.914071 248.230766 
L 199.146133 262.674477 
L 199.378195 259.897514 
L 199.610257 255.748882 
L 199.842319 262.668199 
L 200.07438 265.892195 
L 200.306442 259.345526 
L 200.538504 260.79876 
L 200.770566 257.476237 
L 201.002628 258.050652 
L 201.23469 253.405236 
L 201.466752 263.71062 
L 201.698813 264.330951 
L 201.930875 260.258252 
L 202.162937 248.561059 
L 202.394999 261.548561 
L 202.627061 264.692641 
L 202.859123 255.37373 
L 203.091185 264.675508 
L 203.323246 252.755287 
L 203.555308 259.954305 
L 204.019432 251.269895 
L 204.715618 267.864554 
L 205.179741 248.363581 
L 205.411803 252.930204 
L 205.643865 261.797909 
L 205.875927 255.61643 
L 206.107989 273.804242 
L 206.340051 260.118861 
L 206.572113 256.830889 
L 206.804174 251.495544 
L 207.036236 255.500677 
L 207.268298 253.081436 
L 207.732422 265.364867 
L 207.964484 261.640916 
L 208.196546 261.980701 
L 208.428607 259.341741 
L 208.660669 264.553931 
L 208.892731 256.982563 
L 209.124793 262.943702 
L 209.356855 261.631386 
L 209.588917 261.358868 
L 209.820979 260.648938 
L 210.05304 259.369102 
L 210.285102 267.557416 
L 210.749226 255.222282 
L 210.981288 263.59388 
L 211.21335 262.225894 
L 211.445412 256.002449 
L 211.677474 264.021504 
L 211.909535 255.06156 
L 212.141597 255.857915 
L 212.373659 266.532783 
L 212.605721 259.013808 
L 212.837783 257.91364 
L 213.301907 253.3754 
L 213.533968 255.754671 
L 213.76603 264.412596 
L 213.998092 261.28648 
L 214.230154 260.119397 
L 214.462216 254.190157 
L 214.694278 255.499025 
L 214.92634 242.981481 
L 215.158401 269.306051 
L 215.390463 247.424595 
L 215.622525 258.817264 
L 215.854587 254.330616 
L 216.318711 262.001317 
L 216.550773 260.634857 
L 216.782834 240.520984 
L 217.014896 260.992492 
L 217.246958 269.116345 
L 217.47902 252.843117 
L 217.711082 185.016692 
L 217.943144 262.012155 
L 218.175206 259.263012 
L 218.407268 254.304569 
L 218.639329 265.441074 
L 218.871391 265.915523 
L 219.103453 258.300194 
L 219.567577 267.810165 
L 219.799639 247.968189 
L 220.263762 262.520994 
L 220.495824 257.976204 
L 220.959948 260.931045 
L 221.19201 264.110479 
L 221.424072 248.220683 
L 221.656134 272.067615 
L 221.888195 269.095027 
L 222.352319 244.853859 
L 222.584381 245.867557 
L 223.048505 266.173447 
L 223.280567 259.592905 
L 223.512629 257.791075 
L 223.976752 248.118489 
L 224.208814 264.797715 
L 224.440876 263.548863 
L 224.672938 260.113752 
L 224.905 253.775195 
L 225.137062 255.85464 
L 225.369123 264.304227 
L 225.601185 263.601692 
L 225.833247 267.640659 
L 226.065309 267.457008 
L 226.297371 264.912538 
L 226.529433 252.091127 
L 226.761495 262.061252 
L 226.993556 257.869923 
L 227.225618 265.341192 
L 227.45768 260.250975 
L 227.921804 266.499306 
L 228.153866 266.052065 
L 228.385928 259.042119 
L 228.617989 265.14196 
L 228.850051 257.795352 
L 229.082113 262.028482 
L 229.314175 254.799714 
L 229.546237 267.154872 
L 229.778299 255.31361 
L 230.010361 256.857055 
L 230.242423 260.961274 
L 230.474484 260.360982 
L 230.706546 259.257507 
L 230.938608 262.294077 
L 231.17067 258.653421 
L 231.402732 262.453296 
L 231.634794 248.635697 
L 231.866856 260.751224 
L 232.098917 265.565498 
L 232.330979 251.140448 
L 232.563041 260.67349 
L 232.795103 260.069084 
L 233.491289 252.80528 
L 233.72335 256.702475 
L 233.955412 254.659781 
L 234.187474 264.131472 
L 234.419536 252.375887 
L 234.88366 256.731938 
L 235.115722 262.970739 
L 235.347783 250.80339 
L 235.579845 258.773747 
L 235.811907 257.380989 
L 236.043969 248.449855 
L 236.740155 269.611358 
L 236.972217 264.485341 
L 237.204278 272.166323 
L 237.668402 256.875166 
L 237.900464 256.705979 
L 238.132526 265.686206 
L 238.364588 260.034911 
L 238.59665 260.005233 
L 238.828711 252.977215 
L 239.060773 267.692778 
L 239.292835 256.908093 
L 239.989021 265.773434 
L 240.221083 254.344187 
L 240.453144 263.029025 
L 240.685206 263.895527 
L 240.917268 255.813783 
L 241.14933 257.219052 
L 241.381392 254.521281 
L 241.613454 257.699824 
L 241.845516 255.942713 
L 242.309639 269.512453 
L 242.541701 254.239012 
L 242.773763 263.506286 
L 243.237887 254.868765 
L 243.469949 267.529293 
L 243.702011 257.004778 
L 243.934072 265.776573 
L 244.166134 254.984536 
L 244.398196 266.554048 
L 244.630258 264.032997 
L 244.86232 255.627612 
L 245.094382 267.674335 
L 245.326444 265.414846 
L 245.558505 265.368248 
L 245.790567 271.393443 
L 246.022629 256.170264 
L 246.254691 252.739703 
L 246.486753 263.693471 
L 246.718815 260.996285 
L 246.950877 263.419544 
L 247.182938 268.291406 
L 247.415 267.353513 
L 247.647062 262.519461 
L 247.879124 268.193128 
L 248.111186 259.455775 
L 248.343248 256.461731 
L 248.57531 266.552203 
L 248.807371 255.917049 
L 249.039433 269.729066 
L 249.271495 257.892785 
L 249.503557 264.866899 
L 249.735619 258.425061 
L 249.967681 265.069514 
L 250.199743 257.201141 
L 250.431805 258.083716 
L 250.663866 267.47146 
L 250.895928 265.649078 
L 251.12799 259.147128 
L 251.360052 258.44418 
L 251.592114 258.733855 
L 251.824176 265.181884 
L 252.056238 254.485988 
L 252.288299 263.166958 
L 252.520361 214.601189 
L 252.752423 255.818657 
L 252.984485 266.945109 
L 253.216547 256.162031 
L 253.448609 262.943041 
L 253.680671 262.374325 
L 253.912732 269.031186 
L 254.144794 261.004081 
L 254.376856 258.997354 
L 254.608918 260.662365 
L 254.84098 260.70373 
L 255.537166 257.391 
L 255.769227 258.665296 
L 256.001289 267.666134 
L 256.233351 271.4143 
L 256.465413 257.815266 
L 256.697475 256.87486 
L 256.929537 254.620099 
L 257.161599 263.428104 
L 257.625722 253.925247 
L 257.857784 272.994317 
L 258.321908 255.840464 
L 258.55397 254.32332 
L 258.786032 270.972179 
L 259.018093 253.983927 
L 259.250155 248.921419 
L 259.482217 263.05953 
L 259.714279 263.998645 
L 259.946341 259.199642 
L 260.178403 258.990085 
L 260.410465 261.961907 
L 260.642526 257.68489 
L 260.874588 261.54185 
L 261.10665 262.833885 
L 261.338712 271.733341 
L 261.570774 268.579998 
L 261.802836 267.92619 
L 262.034898 252.237995 
L 262.26696 254.659167 
L 262.499021 270.080906 
L 262.731083 258.380509 
L 262.963145 259.051951 
L 263.195207 262.25256 
L 263.427269 260.981609 
L 263.659331 261.056715 
L 263.891393 262.83048 
L 264.123454 252.847669 
L 264.355516 263.379782 
L 264.587578 258.276496 
L 265.051702 261.202805 
L 265.283764 251.947843 
L 265.515826 268.000411 
L 265.747887 257.067747 
L 265.979949 252.972412 
L 266.212011 264.321466 
L 266.444073 245.630294 
L 266.676135 253.200219 
L 266.908197 253.082235 
L 267.140259 256.564454 
L 267.604382 257.405327 
L 267.836444 247.239834 
L 268.068506 261.848424 
L 268.300568 253.003648 
L 268.53263 266.915495 
L 268.764692 257.892396 
L 268.996754 259.913457 
L 269.228815 265.233349 
L 269.460877 265.763683 
L 269.692939 257.586141 
L 269.925001 263.705506 
L 270.157063 262.766807 
L 270.389125 255.473218 
L 270.621187 257.605133 
L 270.853248 268.227678 
L 271.317372 255.638533 
L 271.549434 263.427323 
L 271.781496 257.179556 
L 272.013558 270.924833 
L 272.24562 261.447623 
L 272.477681 259.590126 
L 272.709743 263.199313 
L 273.405929 250.841013 
L 273.637991 267.813133 
L 273.870053 254.133123 
L 274.102114 259.758274 
L 274.566238 263.236236 
L 274.7983 259.873912 
L 275.030362 261.580038 
L 275.262424 259.157516 
L 275.494486 263.720385 
L 275.726548 259.667201 
L 275.958609 259.327648 
L 276.422733 255.872543 
L 276.654795 264.212813 
L 276.886857 238.056542 
L 277.118919 256.089005 
L 277.350981 260.198558 
L 277.583042 261.826824 
L 277.815104 261.930081 
L 278.047166 250.377219 
L 278.51129 262.606019 
L 278.743352 263.792946 
L 278.975414 260.544628 
L 279.207475 259.339193 
L 279.439537 256.956105 
L 279.671599 252.672655 
L 279.903661 259.32394 
L 280.367785 262.10305 
L 280.599847 255.968194 
L 281.06397 266.381758 
L 281.296032 250.931124 
L 281.528094 266.333703 
L 281.760156 269.374558 
L 281.992218 258.33292 
L 282.22428 260.43839 
L 282.456342 263.704537 
L 282.688403 263.121022 
L 282.920465 266.44959 
L 283.384589 260.435835 
L 283.616651 265.033523 
L 283.848713 256.461587 
L 284.080775 252.615667 
L 284.312836 264.047439 
L 284.544898 252.621672 
L 284.77696 265.469263 
L 285.241084 252.728073 
L 285.473146 259.034843 
L 285.705208 259.295707 
L 286.169331 257.771403 
L 286.401393 261.364944 
L 286.633455 259.719172 
L 286.865517 262.732719 
L 287.097579 261.658449 
L 287.329641 256.567974 
L 287.561703 261.798719 
L 287.793764 263.058138 
L 288.025826 267.530271 
L 288.257888 256.283391 
L 288.48995 259.044955 
L 288.722012 257.814288 
L 288.954074 264.568855 
L 289.186136 257.656356 
L 289.418197 265.242061 
L 289.650259 260.890563 
L 289.882321 269.73995 
L 290.114383 259.352888 
L 290.346445 256.812026 
L 290.578507 259.854876 
L 290.810569 254.824741 
L 291.04263 262.219097 
L 291.506754 256.574924 
L 291.970878 265.096635 
L 292.20294 255.458244 
L 292.435002 255.929731 
L 292.667063 258.321484 
L 292.899125 256.577839 
L 293.131187 260.440379 
L 293.363249 257.298313 
L 293.595311 265.561416 
L 293.827373 263.658817 
L 294.059435 251.263751 
L 294.523558 266.879153 
L 294.75562 264.964589 
L 294.987682 258.990817 
L 295.451806 258.087384 
L 295.683868 258.333108 
L 295.91593 270.81062 
L 296.147991 255.909191 
L 296.380053 266.549169 
L 296.612115 264.873818 
L 297.076239 267.189358 
L 297.308301 264.902771 
L 297.540363 256.655516 
L 297.772424 261.791867 
L 298.004486 260.833152 
L 298.236548 246.834134 
L 298.46861 259.177742 
L 298.700672 265.37431 
L 299.164796 255.148489 
L 299.396857 257.350845 
L 299.628919 262.948906 
L 299.860981 264.122853 
L 300.093043 263.042657 
L 300.325105 255.439442 
L 300.789229 250.415471 
L 301.021291 259.490289 
L 301.485414 267.005772 
L 301.717476 254.991538 
L 301.949538 254.871776 
L 302.1816 257.995298 
L 302.413662 258.767633 
L 302.645724 261.459175 
L 302.877785 246.052888 
L 303.109847 257.731139 
L 303.341909 262.718641 
L 303.573971 257.367086 
L 303.806033 258.065809 
L 304.038095 258.245562 
L 304.270157 257.268551 
L 304.502218 265.611592 
L 304.73428 264.179271 
L 304.966342 265.471883 
L 305.198404 262.786822 
L 305.430466 254.038552 
L 305.662528 258.614573 
L 305.89459 259.029187 
L 306.126652 252.133572 
L 306.358713 253.907159 
L 306.590775 259.424094 
L 306.822837 260.73589 
L 307.054899 258.711499 
L 307.286961 261.738056 
L 307.519023 256.828113 
L 307.751085 258.896243 
L 307.983146 264.301845 
L 308.215208 250.479207 
L 308.44727 274.28742 
L 308.679332 260.159076 
L 308.911394 261.439315 
L 309.143456 256.989626 
L 309.375518 257.294175 
L 309.607579 255.265596 
L 309.839641 261.222147 
L 310.071703 252.84923 
L 310.303765 263.724983 
L 310.535827 253.584906 
L 310.999951 264.032575 
L 311.232012 254.094659 
L 311.464074 256.725669 
L 311.696136 253.7422 
L 311.928198 266.678091 
L 312.16026 258.60057 
L 312.392322 257.781348 
L 312.624384 257.380379 
L 312.856446 267.878543 
L 313.088507 263.026943 
L 313.320569 254.966414 
L 313.552631 267.116022 
L 313.784693 261.488592 
L 314.016755 260.964698 
L 314.248817 260.819529 
L 314.480879 265.640783 
L 314.945002 254.859864 
L 315.177064 258.040042 
L 315.409126 267.328257 
L 315.87325 257.521345 
L 316.105312 271.436459 
L 316.337373 262.855208 
L 316.801497 258.063763 
L 317.033559 262.680391 
L 317.265621 261.364665 
L 317.497683 267.461268 
L 317.729745 244.489044 
L 317.961806 253.71934 
L 318.42593 260.234554 
L 318.657992 258.818115 
L 319.122116 252.555533 
L 319.354178 261.007759 
L 319.58624 256.245997 
L 320.050363 271.31851 
L 320.282425 259.872196 
L 320.514487 254.981448 
L 320.746549 252.964425 
L 320.978611 260.069195 
L 321.210673 259.477971 
L 321.442734 263.77235 
L 321.674796 264.804215 
L 321.906858 258.76192 
L 322.13892 238.73264 
L 322.370982 263.476046 
L 322.835106 247.059632 
L 323.067167 254.193919 
L 323.299229 255.96027 
L 323.531291 263.916338 
L 323.763353 257.047143 
L 323.995415 254.710494 
L 324.227477 265.13507 
L 324.459539 257.089818 
L 324.6916 255.318596 
L 324.923662 263.997168 
L 325.155724 260.379867 
L 325.387786 252.581595 
L 325.619848 262.293362 
L 325.85191 262.672914 
L 326.083972 232.885024 
L 326.316034 265.599806 
L 326.548095 254.909674 
L 326.780157 264.494874 
L 327.012219 255.598813 
L 327.244281 267.464187 
L 327.476343 255.708306 
L 327.708405 258.766536 
L 327.940467 263.39531 
L 328.172528 255.220527 
L 328.40459 255.710065 
L 328.636652 256.580481 
L 328.868714 267.309259 
L 329.100776 262.994858 
L 329.332838 268.533955 
L 329.5649 255.946732 
L 329.796961 261.97933 
L 330.261085 245.466604 
L 330.493147 260.53074 
L 330.725209 262.387814 
L 330.957271 256.221541 
L 331.189333 258.712747 
L 331.421395 258.649385 
L 331.653456 263.977651 
L 331.885518 265.196361 
L 332.11758 263.202888 
L 332.349642 264.873639 
L 332.581704 254.905582 
L 332.813766 254.531921 
L 333.045828 264.807799 
L 333.277889 258.616687 
L 333.509951 257.247535 
L 333.742013 262.852434 
L 333.974075 262.224862 
L 334.206137 251.295254 
L 334.438199 252.054762 
L 334.670261 255.228248 
L 334.902322 266.053293 
L 335.134384 263.032954 
L 335.366446 263.024021 
L 335.598508 265.916944 
L 335.83057 260.975361 
L 336.062632 264.055364 
L 336.294694 258.716717 
L 336.526755 267.996297 
L 336.758817 256.312365 
L 336.990879 263.688738 
L 337.222941 262.189374 
L 337.455003 262.377028 
L 337.687065 264.400448 
L 338.38325 250.040806 
L 338.615312 260.655853 
L 338.847374 259.458577 
L 339.079436 264.067498 
L 339.311498 252.432903 
L 339.54356 254.625484 
L 339.775622 264.97257 
L 340.007683 263.987131 
L 340.239745 251.042886 
L 340.471807 259.880525 
L 340.703869 259.149611 
L 340.935931 250.313595 
L 341.167993 263.727404 
L 341.400055 267.70758 
L 341.632116 255.073416 
L 342.09624 269.231666 
L 342.328302 263.647124 
L 342.560364 255.323283 
L 342.792426 255.780946 
L 343.024488 251.890736 
L 343.488611 259.002465 
L 343.720673 256.081795 
L 343.952735 264.989491 
L 344.184797 260.808915 
L 344.416859 268.508321 
L 345.345106 248.289265 
L 345.577168 259.003664 
L 346.041292 252.70821 
L 346.273354 263.754394 
L 346.505416 255.618712 
L 346.737477 257.08687 
L 346.969539 267.116431 
L 347.201601 256.911095 
L 347.433663 239.051184 
L 347.665725 259.371878 
L 347.897787 261.588321 
L 348.129849 254.41953 
L 348.36191 258.661837 
L 348.593972 265.222446 
L 348.826034 268.450654 
L 349.058096 243.089491 
L 349.52222 261.494446 
L 349.754282 256.609198 
L 349.986343 268.093476 
L 350.218405 260.998001 
L 350.450467 262.581693 
L 350.682529 266.225241 
L 351.146653 252.057882 
L 351.378715 255.287019 
L 351.610777 265.157764 
L 351.842838 257.305259 
L 352.0749 256.954542 
L 352.306962 260.73976 
L 352.539024 255.311759 
L 352.771086 257.659496 
L 353.003148 257.859439 
L 353.23521 254.216675 
L 353.467271 267.694255 
L 353.699333 251.153995 
L 353.931395 250.060681 
L 354.163457 254.533832 
L 354.395519 262.873322 
L 354.627581 252.856822 
L 354.859643 264.003241 
L 355.091704 256.596203 
L 355.323766 262.930124 
L 355.555828 258.138171 
L 355.78789 257.722965 
L 356.019952 249.551927 
L 356.252014 260.081067 
L 356.484076 250.687523 
L 356.716138 259.508202 
L 356.948199 263.677532 
L 357.180261 246.429112 
L 357.644385 262.519095 
L 357.876447 256.953476 
L 358.340571 261.292166 
L 358.804694 254.535758 
L 359.036756 268.977979 
L 359.268818 264.574196 
L 359.732942 261.533996 
L 359.965004 264.67909 
L 360.197065 262.183553 
L 360.429127 267.551076 
L 360.893251 247.93398 
L 361.125313 263.21179 
L 361.357375 259.963222 
L 361.589437 253.327695 
L 361.821498 263.912285 
L 362.05356 259.2332 
L 362.285622 260.412624 
L 362.517684 260.745271 
L 362.749746 259.117654 
L 362.981808 275.764744 
L 363.21387 260.88379 
L 363.445932 233.734977 
L 363.677993 264.062268 
L 363.910055 249.338032 
L 364.142117 258.807084 
L 364.374179 263.057275 
L 364.606241 252.962349 
L 364.838303 262.864135 
L 365.070365 260.96028 
L 365.302426 252.802201 
L 365.534488 258.97151 
L 365.76655 258.264352 
L 365.998612 254.005452 
L 366.230674 255.708382 
L 366.462736 248.85316 
L 366.694798 251.821764 
L 367.158921 268.153583 
L 367.390983 253.121632 
L 367.623045 260.238358 
L 367.855107 253.934251 
L 368.087169 260.82024 
L 368.319231 263.563751 
L 368.551292 255.352389 
L 368.783354 261.813291 
L 369.015416 257.016888 
L 369.47954 263.092432 
L 369.711602 259.023191 
L 370.175726 263.29537 
L 370.407787 248.933568 
L 370.871911 267.113872 
L 371.103973 254.068931 
L 371.800159 263.322124 
L 372.03222 252.184566 
L 372.264282 257.90299 
L 372.496344 255.728365 
L 372.728406 247.220923 
L 373.424592 262.230056 
L 373.656653 256.024291 
L 373.888715 260.11955 
L 374.120777 255.794346 
L 374.352839 259.264819 
L 374.584901 260.537109 
L 374.816963 257.978946 
L 375.049025 262.708097 
L 375.281086 264.450141 
L 375.513148 262.115484 
L 375.74521 257.985464 
L 375.977272 262.025266 
L 376.209334 257.843123 
L 376.441396 260.578061 
L 376.673458 249.661834 
L 376.90552 256.695976 
L 377.137581 245.507949 
L 377.369643 256.904373 
L 377.601705 259.953432 
L 377.833767 252.863796 
L 378.065829 251.782434 
L 378.529953 257.954296 
L 378.762014 269.462892 
L 378.994076 263.831032 
L 379.226138 262.62883 
L 379.690262 253.407932 
L 379.922324 261.762946 
L 380.154386 254.840133 
L 380.386447 265.34548 
L 380.618509 245.369035 
L 380.850571 267.038973 
L 381.082633 250.786255 
L 381.314695 261.938233 
L 381.546757 252.019705 
L 381.778819 251.105505 
L 382.01088 260.603915 
L 382.242942 252.907109 
L 382.475004 261.231599 
L 382.707066 257.071193 
L 382.939128 265.386937 
L 383.17119 259.746849 
L 383.403252 268.818435 
L 383.635314 256.388994 
L 383.867375 257.535561 
L 384.099437 257.941996 
L 384.331499 252.642236 
L 384.563561 256.220832 
L 384.795623 256.690278 
L 385.027685 263.505656 
L 385.259747 254.650415 
L 385.491808 259.272645 
L 385.72387 257.457142 
L 385.955932 251.363215 
L 386.652118 270.341723 
L 386.88418 262.009021 
L 387.116241 269.186368 
L 387.348303 252.674931 
L 387.580365 259.334355 
L 387.812427 247.882404 
L 388.044489 261.53689 
L 388.276551 267.736982 
L 388.508613 263.294205 
L 388.740675 252.261182 
L 388.972736 269.115449 
L 389.204798 266.224145 
L 389.43686 250.778993 
L 389.900984 265.640205 
L 390.133046 265.968128 
L 390.365108 255.806398 
L 390.597169 262.546893 
L 390.829231 265.677732 
L 391.061293 261.985995 
L 391.293355 252.216091 
L 391.525417 258.484554 
L 391.757479 258.079683 
L 391.989541 262.067166 
L 392.221602 253.341774 
L 392.453664 253.706396 
L 392.917788 262.182399 
L 393.14985 259.893591 
L 393.381912 253.381745 
L 393.613974 267.530326 
L 393.846035 253.463761 
L 394.078097 263.120239 
L 394.310159 263.551323 
L 394.542221 263.453283 
L 394.774283 258.129454 
L 395.006345 259.727846 
L 395.238407 259.591923 
L 395.470469 258.558774 
L 395.70253 266.351851 
L 396.166654 255.716862 
L 396.398716 260.463019 
L 396.630778 255.249974 
L 396.86284 264.844048 
L 397.094902 251.382594 
L 397.326963 258.956902 
L 397.559025 249.473508 
L 397.791087 262.933154 
L 398.023149 257.403857 
L 398.487273 265.345027 
L 398.487273 265.345027 
" style="fill:none;stroke:#ff7f0e;stroke-linecap:square;stroke-width:1.5;"/>
   </g>
   <g id="patch_3">
    <path d="M 57.6 307.584 
L 57.6 41.472 
" style="fill:none;stroke:#000000;stroke-linecap:square;stroke-linejoin:miter;stroke-width:0.8;"/>
   </g>
   <g id="patch_4">
    <path d="M 414.72 307.584 
L 414.72 41.472 
" style="fill:none;stroke:#000000;stroke-linecap:square;stroke-linejoin:miter;stroke-width:0.8;"/>
   </g>
   <g id="patch_5">
    <path d="M 57.6 307.584 
L 414.72 307.584 
" style="fill:none;stroke:#000000;stroke-linecap:square;stroke-linejoin:miter;stroke-width:0.8;"/>
   </g>
   <g id="patch_6">
    <path d="M 57.6 41.472 
L 414.72 41.472 
" style="fill:none;stroke:#000000;stroke-linecap:square;stroke-linejoin:miter;stroke-width:0.8;"/>
   </g>
   <g id="legend_1">
    <g id="patch_7">
     <path d="M 303.845 78.82825 
L 407.72 78.82825 
Q 409.72 78.82825 409.72 76.82825 
L 409.72 48.472 
Q 409.72 46.472 407.72 46.472 
L 303.845 46.472 
Q 301.845 46.472 301.845 48.472 
L 301.845 76.82825 
Q 301.845 78.82825 303.845 78.82825 
z
" style="fill:#ffffff;opacity:0.8;stroke:#cccccc;stroke-linejoin:miter;"/>
    </g>
    <g id="line2d_16">
     <path d="M 305.845 54.570437 
L 325.845 54.570437 
" style="fill:none;stroke:#1f77b4;stroke-linecap:square;stroke-width:1.5;"/>
    </g>
    <g id="line2d_17"/>
    <g id="text_15">
     <!-- Train loss -->
     <g transform="translate(333.845 58.070437)scale(0.1 -0.1)">
      <defs>
       <path d="M -19 4666 
L 3928 4666 
L 3928 4134 
L 2272 4134 
L 2272 0 
L 1638 0 
L 1638 4134 
L -19 4134 
L -19 4666 
z
" id="DejaVuSans-54" transform="scale(0.015625)"/>
       <path d="M 2631 2963 
Q 2534 3019 2420 3045 
Q 2306 3072 2169 3072 
Q 1681 3072 1420 2755 
Q 1159 2438 1159 1844 
L 1159 0 
L 581 0 
L 581 3500 
L 1159 3500 
L 1159 2956 
Q 1341 3275 1631 3429 
Q 1922 3584 2338 3584 
Q 2397 3584 2469 3576 
Q 2541 3569 2628 3553 
L 2631 2963 
z
" id="DejaVuSans-72" transform="scale(0.015625)"/>
       <path d="M 2194 1759 
Q 1497 1759 1228 1600 
Q 959 1441 959 1056 
Q 959 750 1161 570 
Q 1363 391 1709 391 
Q 2188 391 2477 730 
Q 2766 1069 2766 1631 
L 2766 1759 
L 2194 1759 
z
M 3341 1997 
L 3341 0 
L 2766 0 
L 2766 531 
Q 2569 213 2275 61 
Q 1981 -91 1556 -91 
Q 1019 -91 701 211 
Q 384 513 384 1019 
Q 384 1609 779 1909 
Q 1175 2209 1959 2209 
L 2766 2209 
L 2766 2266 
Q 2766 2663 2505 2880 
Q 2244 3097 1772 3097 
Q 1472 3097 1187 3025 
Q 903 2953 641 2809 
L 641 3341 
Q 956 3463 1253 3523 
Q 1550 3584 1831 3584 
Q 2591 3584 2966 3190 
Q 3341 2797 3341 1997 
z
" id="DejaVuSans-61" transform="scale(0.015625)"/>
       <path d="M 603 3500 
L 1178 3500 
L 1178 0 
L 603 0 
L 603 3500 
z
M 603 4863 
L 1178 4863 
L 1178 4134 
L 603 4134 
L 603 4863 
z
" id="DejaVuSans-69" transform="scale(0.015625)"/>
       <path d="M 3513 2113 
L 3513 0 
L 2938 0 
L 2938 2094 
Q 2938 2591 2744 2837 
Q 2550 3084 2163 3084 
Q 1697 3084 1428 2787 
Q 1159 2491 1159 1978 
L 1159 0 
L 581 0 
L 581 3500 
L 1159 3500 
L 1159 2956 
Q 1366 3272 1645 3428 
Q 1925 3584 2291 3584 
Q 2894 3584 3203 3211 
Q 3513 2838 3513 2113 
z
" id="DejaVuSans-6e" transform="scale(0.015625)"/>
       <path id="DejaVuSans-20" transform="scale(0.015625)"/>
       <path d="M 603 4863 
L 1178 4863 
L 1178 0 
L 603 0 
L 603 4863 
z
" id="DejaVuSans-6c" transform="scale(0.015625)"/>
       <path d="M 2834 3397 
L 2834 2853 
Q 2591 2978 2328 3040 
Q 2066 3103 1784 3103 
Q 1356 3103 1142 2972 
Q 928 2841 928 2578 
Q 928 2378 1081 2264 
Q 1234 2150 1697 2047 
L 1894 2003 
Q 2506 1872 2764 1633 
Q 3022 1394 3022 966 
Q 3022 478 2636 193 
Q 2250 -91 1575 -91 
Q 1294 -91 989 -36 
Q 684 19 347 128 
L 347 722 
Q 666 556 975 473 
Q 1284 391 1588 391 
Q 1994 391 2212 530 
Q 2431 669 2431 922 
Q 2431 1156 2273 1281 
Q 2116 1406 1581 1522 
L 1381 1569 
Q 847 1681 609 1914 
Q 372 2147 372 2553 
Q 372 3047 722 3315 
Q 1072 3584 1716 3584 
Q 2034 3584 2315 3537 
Q 2597 3491 2834 3397 
z
" id="DejaVuSans-73" transform="scale(0.015625)"/>
      </defs>
      <use xlink:href="#DejaVuSans-54"/>
      <use x="46.333984" xlink:href="#DejaVuSans-72"/>
      <use x="87.447266" xlink:href="#DejaVuSans-61"/>
      <use x="148.726562" xlink:href="#DejaVuSans-69"/>
      <use x="176.509766" xlink:href="#DejaVuSans-6e"/>
      <use x="239.888672" xlink:href="#DejaVuSans-20"/>
      <use x="271.675781" xlink:href="#DejaVuSans-6c"/>
      <use x="299.458984" xlink:href="#DejaVuSans-6f"/>
      <use x="360.640625" xlink:href="#DejaVuSans-73"/>
      <use x="412.740234" xlink:href="#DejaVuSans-73"/>
     </g>
    </g>
    <g id="line2d_18">
     <path d="M 305.845 69.248562 
L 325.845 69.248562 
" style="fill:none;stroke:#ff7f0e;stroke-linecap:square;stroke-width:1.5;"/>
    </g>
    <g id="line2d_19"/>
    <g id="text_16">
     <!-- Validation loss -->
     <g transform="translate(333.845 72.748562)scale(0.1 -0.1)">
      <defs>
       <path d="M 1831 0 
L 50 4666 
L 709 4666 
L 2188 738 
L 3669 4666 
L 4325 4666 
L 2547 0 
L 1831 0 
z
" id="DejaVuSans-56" transform="scale(0.015625)"/>
       <path d="M 2906 2969 
L 2906 4863 
L 3481 4863 
L 3481 0 
L 2906 0 
L 2906 525 
Q 2725 213 2448 61 
Q 2172 -91 1784 -91 
Q 1150 -91 751 415 
Q 353 922 353 1747 
Q 353 2572 751 3078 
Q 1150 3584 1784 3584 
Q 2172 3584 2448 3432 
Q 2725 3281 2906 2969 
z
M 947 1747 
Q 947 1113 1208 752 
Q 1469 391 1925 391 
Q 2381 391 2643 752 
Q 2906 1113 2906 1747 
Q 2906 2381 2643 2742 
Q 2381 3103 1925 3103 
Q 1469 3103 1208 2742 
Q 947 2381 947 1747 
z
" id="DejaVuSans-64" transform="scale(0.015625)"/>
       <path d="M 1172 4494 
L 1172 3500 
L 2356 3500 
L 2356 3053 
L 1172 3053 
L 1172 1153 
Q 1172 725 1289 603 
Q 1406 481 1766 481 
L 2356 481 
L 2356 0 
L 1766 0 
Q 1100 0 847 248 
Q 594 497 594 1153 
L 594 3053 
L 172 3053 
L 172 3500 
L 594 3500 
L 594 4494 
L 1172 4494 
z
" id="DejaVuSans-74" transform="scale(0.015625)"/>
      </defs>
      <use xlink:href="#DejaVuSans-56"/>
      <use x="60.658203" xlink:href="#DejaVuSans-61"/>
      <use x="121.9375" xlink:href="#DejaVuSans-6c"/>
      <use x="149.720703" xlink:href="#DejaVuSans-69"/>
      <use x="177.503906" xlink:href="#DejaVuSans-64"/>
      <use x="240.980469" xlink:href="#DejaVuSans-61"/>
      <use x="302.259766" xlink:href="#DejaVuSans-74"/>
      <use x="341.46875" xlink:href="#DejaVuSans-69"/>
      <use x="369.251953" xlink:href="#DejaVuSans-6f"/>
      <use x="430.433594" xlink:href="#DejaVuSans-6e"/>
      <use x="493.8125" xlink:href="#DejaVuSans-20"/>
      <use x="525.599609" xlink:href="#DejaVuSans-6c"/>
      <use x="553.382812" xlink:href="#DejaVuSans-6f"/>
      <use x="614.564453" xlink:href="#DejaVuSans-73"/>
      <use x="666.664062" xlink:href="#DejaVuSans-73"/>
     </g>
    </g>
   </g>
  </g>
 </g>
 <defs>
  <clipPath id="p96cd056652">
   <rect height="266.112" width="357.12" x="57.6" y="41.472"/>
  </clipPath>
 </defs>
</svg>
