<?xml version="1.0" encoding="utf-8" standalone="no"?>
<!DOCTYPE svg PUBLIC "-//W3C//DTD SVG 1.1//EN"
  "http://www.w3.org/Graphics/SVG/1.1/DTD/svg11.dtd">
<svg height="345.6pt" version="1.1" viewBox="0 0 460.8 345.6" width="460.8pt" xmlns="http://www.w3.org/2000/svg" xmlns:xlink="http://www.w3.org/1999/xlink">
 <metadata>
  <rdf:RDF xmlns:cc="http://creativecommons.org/ns#" xmlns:dc="http://purl.org/dc/elements/1.1/" xmlns:rdf="http://www.w3.org/1999/02/22-rdf-syntax-ns#">
   <cc:Work>
    <dc:type rdf:resource="http://purl.org/dc/dcmitype/StillImage"/>
    <dc:date>2021-07-15T07:29:49.523380</dc:date>
    <dc:format>image/svg+xml</dc:format>
    <dc:creator>
     <cc:Agent>
      <dc:title>Matplotlib v3.4.2, https://matplotlib.org/</dc:title>
     </cc:Agent>
    </dc:creator>
   </cc:Work>
  </rdf:RDF>
 </metadata>
 <defs>
  <style type="text/css">*{stroke-linecap:butt;stroke-linejoin:round;}</style>
 </defs>
 <g id="figure_1">
  <g id="patch_1">
   <path d="M 0 345.6 
L 460.8 345.6 
L 460.8 0 
L 0 0 
z
" style="fill:#ffffff;"/>
  </g>
  <g id="axes_1">
   <g id="patch_2">
    <path d="M 57.6 307.584 
L 414.72 307.584 
L 414.72 41.472 
L 57.6 41.472 
z
" style="fill:#ffffff;"/>
   </g>
   <g id="matplotlib.axis_1">
    <g id="xtick_1">
     <g id="line2d_1">
      <defs>
       <path d="M 0 0 
L 0 3.5 
" id="mce91cba7bc" style="stroke:#000000;stroke-width:0.8;"/>
      </defs>
      <g>
       <use style="stroke:#000000;stroke-width:0.8;" x="73.019057" xlink:href="#mce91cba7bc" y="307.584"/>
      </g>
     </g>
     <g id="text_1">
      <!-- 0 -->
      <g transform="translate(69.837807 322.182437)scale(0.1 -0.1)">
       <defs>
        <path d="M 2034 4250 
Q 1547 4250 1301 3770 
Q 1056 3291 1056 2328 
Q 1056 1369 1301 889 
Q 1547 409 2034 409 
Q 2525 409 2770 889 
Q 3016 1369 3016 2328 
Q 3016 3291 2770 3770 
Q 2525 4250 2034 4250 
z
M 2034 4750 
Q 2819 4750 3233 4129 
Q 3647 3509 3647 2328 
Q 3647 1150 3233 529 
Q 2819 -91 2034 -91 
Q 1250 -91 836 529 
Q 422 1150 422 2328 
Q 422 3509 836 4129 
Q 1250 4750 2034 4750 
z
" id="DejaVuSans-30" transform="scale(0.015625)"/>
       </defs>
       <use xlink:href="#DejaVuSans-30"/>
      </g>
     </g>
    </g>
    <g id="xtick_2">
     <g id="line2d_2">
      <g>
       <use style="stroke:#000000;stroke-width:0.8;" x="113.702584" xlink:href="#mce91cba7bc" y="307.584"/>
      </g>
     </g>
     <g id="text_2">
      <!-- 50 -->
      <g transform="translate(107.340084 322.182437)scale(0.1 -0.1)">
       <defs>
        <path d="M 691 4666 
L 3169 4666 
L 3169 4134 
L 1269 4134 
L 1269 2991 
Q 1406 3038 1543 3061 
Q 1681 3084 1819 3084 
Q 2600 3084 3056 2656 
Q 3513 2228 3513 1497 
Q 3513 744 3044 326 
Q 2575 -91 1722 -91 
Q 1428 -91 1123 -41 
Q 819 9 494 109 
L 494 744 
Q 775 591 1075 516 
Q 1375 441 1709 441 
Q 2250 441 2565 725 
Q 2881 1009 2881 1497 
Q 2881 1984 2565 2268 
Q 2250 2553 1709 2553 
Q 1456 2553 1204 2497 
Q 953 2441 691 2322 
L 691 4666 
z
" id="DejaVuSans-35" transform="scale(0.015625)"/>
       </defs>
       <use xlink:href="#DejaVuSans-35"/>
       <use x="63.623047" xlink:href="#DejaVuSans-30"/>
      </g>
     </g>
    </g>
    <g id="xtick_3">
     <g id="line2d_3">
      <g>
       <use style="stroke:#000000;stroke-width:0.8;" x="154.386111" xlink:href="#mce91cba7bc" y="307.584"/>
      </g>
     </g>
     <g id="text_3">
      <!-- 100 -->
      <g transform="translate(144.842361 322.182437)scale(0.1 -0.1)">
       <defs>
        <path d="M 794 531 
L 1825 531 
L 1825 4091 
L 703 3866 
L 703 4441 
L 1819 4666 
L 2450 4666 
L 2450 531 
L 3481 531 
L 3481 0 
L 794 0 
L 794 531 
z
" id="DejaVuSans-31" transform="scale(0.015625)"/>
       </defs>
       <use xlink:href="#DejaVuSans-31"/>
       <use x="63.623047" xlink:href="#DejaVuSans-30"/>
       <use x="127.246094" xlink:href="#DejaVuSans-30"/>
      </g>
     </g>
    </g>
    <g id="xtick_4">
     <g id="line2d_4">
      <g>
       <use style="stroke:#000000;stroke-width:0.8;" x="195.069638" xlink:href="#mce91cba7bc" y="307.584"/>
      </g>
     </g>
     <g id="text_4">
      <!-- 150 -->
      <g transform="translate(185.525888 322.182437)scale(0.1 -0.1)">
       <use xlink:href="#DejaVuSans-31"/>
       <use x="63.623047" xlink:href="#DejaVuSans-35"/>
       <use x="127.246094" xlink:href="#DejaVuSans-30"/>
      </g>
     </g>
    </g>
    <g id="xtick_5">
     <g id="line2d_5">
      <g>
       <use style="stroke:#000000;stroke-width:0.8;" x="235.753165" xlink:href="#mce91cba7bc" y="307.584"/>
      </g>
     </g>
     <g id="text_5">
      <!-- 200 -->
      <g transform="translate(226.209415 322.182437)scale(0.1 -0.1)">
       <defs>
        <path d="M 1228 531 
L 3431 531 
L 3431 0 
L 469 0 
L 469 531 
Q 828 903 1448 1529 
Q 2069 2156 2228 2338 
Q 2531 2678 2651 2914 
Q 2772 3150 2772 3378 
Q 2772 3750 2511 3984 
Q 2250 4219 1831 4219 
Q 1534 4219 1204 4116 
Q 875 4013 500 3803 
L 500 4441 
Q 881 4594 1212 4672 
Q 1544 4750 1819 4750 
Q 2544 4750 2975 4387 
Q 3406 4025 3406 3419 
Q 3406 3131 3298 2873 
Q 3191 2616 2906 2266 
Q 2828 2175 2409 1742 
Q 1991 1309 1228 531 
z
" id="DejaVuSans-32" transform="scale(0.015625)"/>
       </defs>
       <use xlink:href="#DejaVuSans-32"/>
       <use x="63.623047" xlink:href="#DejaVuSans-30"/>
       <use x="127.246094" xlink:href="#DejaVuSans-30"/>
      </g>
     </g>
    </g>
    <g id="xtick_6">
     <g id="line2d_6">
      <g>
       <use style="stroke:#000000;stroke-width:0.8;" x="276.436692" xlink:href="#mce91cba7bc" y="307.584"/>
      </g>
     </g>
     <g id="text_6">
      <!-- 250 -->
      <g transform="translate(266.892942 322.182437)scale(0.1 -0.1)">
       <use xlink:href="#DejaVuSans-32"/>
       <use x="63.623047" xlink:href="#DejaVuSans-35"/>
       <use x="127.246094" xlink:href="#DejaVuSans-30"/>
      </g>
     </g>
    </g>
    <g id="xtick_7">
     <g id="line2d_7">
      <g>
       <use style="stroke:#000000;stroke-width:0.8;" x="317.120219" xlink:href="#mce91cba7bc" y="307.584"/>
      </g>
     </g>
     <g id="text_7">
      <!-- 300 -->
      <g transform="translate(307.576469 322.182437)scale(0.1 -0.1)">
       <defs>
        <path d="M 2597 2516 
Q 3050 2419 3304 2112 
Q 3559 1806 3559 1356 
Q 3559 666 3084 287 
Q 2609 -91 1734 -91 
Q 1441 -91 1130 -33 
Q 819 25 488 141 
L 488 750 
Q 750 597 1062 519 
Q 1375 441 1716 441 
Q 2309 441 2620 675 
Q 2931 909 2931 1356 
Q 2931 1769 2642 2001 
Q 2353 2234 1838 2234 
L 1294 2234 
L 1294 2753 
L 1863 2753 
Q 2328 2753 2575 2939 
Q 2822 3125 2822 3475 
Q 2822 3834 2567 4026 
Q 2313 4219 1838 4219 
Q 1578 4219 1281 4162 
Q 984 4106 628 3988 
L 628 4550 
Q 988 4650 1302 4700 
Q 1616 4750 1894 4750 
Q 2613 4750 3031 4423 
Q 3450 4097 3450 3541 
Q 3450 3153 3228 2886 
Q 3006 2619 2597 2516 
z
" id="DejaVuSans-33" transform="scale(0.015625)"/>
       </defs>
       <use xlink:href="#DejaVuSans-33"/>
       <use x="63.623047" xlink:href="#DejaVuSans-30"/>
       <use x="127.246094" xlink:href="#DejaVuSans-30"/>
      </g>
     </g>
    </g>
    <g id="xtick_8">
     <g id="line2d_8">
      <g>
       <use style="stroke:#000000;stroke-width:0.8;" x="357.803746" xlink:href="#mce91cba7bc" y="307.584"/>
      </g>
     </g>
     <g id="text_8">
      <!-- 350 -->
      <g transform="translate(348.259996 322.182437)scale(0.1 -0.1)">
       <use xlink:href="#DejaVuSans-33"/>
       <use x="63.623047" xlink:href="#DejaVuSans-35"/>
       <use x="127.246094" xlink:href="#DejaVuSans-30"/>
      </g>
     </g>
    </g>
    <g id="xtick_9">
     <g id="line2d_9">
      <g>
       <use style="stroke:#000000;stroke-width:0.8;" x="398.487273" xlink:href="#mce91cba7bc" y="307.584"/>
      </g>
     </g>
     <g id="text_9">
      <!-- 400 -->
      <g transform="translate(388.943523 322.182437)scale(0.1 -0.1)">
       <defs>
        <path d="M 2419 4116 
L 825 1625 
L 2419 1625 
L 2419 4116 
z
M 2253 4666 
L 3047 4666 
L 3047 1625 
L 3713 1625 
L 3713 1100 
L 3047 1100 
L 3047 0 
L 2419 0 
L 2419 1100 
L 313 1100 
L 313 1709 
L 2253 4666 
z
" id="DejaVuSans-34" transform="scale(0.015625)"/>
       </defs>
       <use xlink:href="#DejaVuSans-34"/>
       <use x="63.623047" xlink:href="#DejaVuSans-30"/>
       <use x="127.246094" xlink:href="#DejaVuSans-30"/>
      </g>
     </g>
    </g>
    <g id="text_10">
     <!-- Epoch -->
     <g transform="translate(213.193594 339.659781)scale(0.15 -0.15)">
      <defs>
       <path d="M 628 4666 
L 3578 4666 
L 3578 4134 
L 1259 4134 
L 1259 2753 
L 3481 2753 
L 3481 2222 
L 1259 2222 
L 1259 531 
L 3634 531 
L 3634 0 
L 628 0 
L 628 4666 
z
" id="DejaVuSans-45" transform="scale(0.015625)"/>
       <path d="M 1159 525 
L 1159 -1331 
L 581 -1331 
L 581 3500 
L 1159 3500 
L 1159 2969 
Q 1341 3281 1617 3432 
Q 1894 3584 2278 3584 
Q 2916 3584 3314 3078 
Q 3713 2572 3713 1747 
Q 3713 922 3314 415 
Q 2916 -91 2278 -91 
Q 1894 -91 1617 61 
Q 1341 213 1159 525 
z
M 3116 1747 
Q 3116 2381 2855 2742 
Q 2594 3103 2138 3103 
Q 1681 3103 1420 2742 
Q 1159 2381 1159 1747 
Q 1159 1113 1420 752 
Q 1681 391 2138 391 
Q 2594 391 2855 752 
Q 3116 1113 3116 1747 
z
" id="DejaVuSans-70" transform="scale(0.015625)"/>
       <path d="M 1959 3097 
Q 1497 3097 1228 2736 
Q 959 2375 959 1747 
Q 959 1119 1226 758 
Q 1494 397 1959 397 
Q 2419 397 2687 759 
Q 2956 1122 2956 1747 
Q 2956 2369 2687 2733 
Q 2419 3097 1959 3097 
z
M 1959 3584 
Q 2709 3584 3137 3096 
Q 3566 2609 3566 1747 
Q 3566 888 3137 398 
Q 2709 -91 1959 -91 
Q 1206 -91 779 398 
Q 353 888 353 1747 
Q 353 2609 779 3096 
Q 1206 3584 1959 3584 
z
" id="DejaVuSans-6f" transform="scale(0.015625)"/>
       <path d="M 3122 3366 
L 3122 2828 
Q 2878 2963 2633 3030 
Q 2388 3097 2138 3097 
Q 1578 3097 1268 2742 
Q 959 2388 959 1747 
Q 959 1106 1268 751 
Q 1578 397 2138 397 
Q 2388 397 2633 464 
Q 2878 531 3122 666 
L 3122 134 
Q 2881 22 2623 -34 
Q 2366 -91 2075 -91 
Q 1284 -91 818 406 
Q 353 903 353 1747 
Q 353 2603 823 3093 
Q 1294 3584 2113 3584 
Q 2378 3584 2631 3529 
Q 2884 3475 3122 3366 
z
" id="DejaVuSans-63" transform="scale(0.015625)"/>
       <path d="M 3513 2113 
L 3513 0 
L 2938 0 
L 2938 2094 
Q 2938 2591 2744 2837 
Q 2550 3084 2163 3084 
Q 1697 3084 1428 2787 
Q 1159 2491 1159 1978 
L 1159 0 
L 581 0 
L 581 4863 
L 1159 4863 
L 1159 2956 
Q 1366 3272 1645 3428 
Q 1925 3584 2291 3584 
Q 2894 3584 3203 3211 
Q 3513 2838 3513 2113 
z
" id="DejaVuSans-68" transform="scale(0.015625)"/>
      </defs>
      <use xlink:href="#DejaVuSans-45"/>
      <use x="63.183594" xlink:href="#DejaVuSans-70"/>
      <use x="126.660156" xlink:href="#DejaVuSans-6f"/>
      <use x="187.841797" xlink:href="#DejaVuSans-63"/>
      <use x="242.822266" xlink:href="#DejaVuSans-68"/>
     </g>
    </g>
   </g>
   <g id="matplotlib.axis_2">
    <g id="ytick_1">
     <g id="line2d_10">
      <defs>
       <path d="M 0 0 
L -3.5 0 
" id="m66f764ff44" style="stroke:#000000;stroke-width:0.8;"/>
      </defs>
      <g>
       <use style="stroke:#000000;stroke-width:0.8;" x="57.6" xlink:href="#m66f764ff44" y="288.406644"/>
      </g>
     </g>
     <g id="text_11">
      <!-- −1000 -->
      <g transform="translate(16.770313 292.205863)scale(0.1 -0.1)">
       <defs>
        <path d="M 678 2272 
L 4684 2272 
L 4684 1741 
L 678 1741 
L 678 2272 
z
" id="DejaVuSans-2212" transform="scale(0.015625)"/>
       </defs>
       <use xlink:href="#DejaVuSans-2212"/>
       <use x="83.789062" xlink:href="#DejaVuSans-31"/>
       <use x="147.412109" xlink:href="#DejaVuSans-30"/>
       <use x="211.035156" xlink:href="#DejaVuSans-30"/>
       <use x="274.658203" xlink:href="#DejaVuSans-30"/>
      </g>
     </g>
    </g>
    <g id="ytick_2">
     <g id="line2d_11">
      <g>
       <use style="stroke:#000000;stroke-width:0.8;" x="57.6" xlink:href="#m66f764ff44" y="240.354324"/>
      </g>
     </g>
     <g id="text_12">
      <!-- −800 -->
      <g transform="translate(23.132812 244.153543)scale(0.1 -0.1)">
       <defs>
        <path d="M 2034 2216 
Q 1584 2216 1326 1975 
Q 1069 1734 1069 1313 
Q 1069 891 1326 650 
Q 1584 409 2034 409 
Q 2484 409 2743 651 
Q 3003 894 3003 1313 
Q 3003 1734 2745 1975 
Q 2488 2216 2034 2216 
z
M 1403 2484 
Q 997 2584 770 2862 
Q 544 3141 544 3541 
Q 544 4100 942 4425 
Q 1341 4750 2034 4750 
Q 2731 4750 3128 4425 
Q 3525 4100 3525 3541 
Q 3525 3141 3298 2862 
Q 3072 2584 2669 2484 
Q 3125 2378 3379 2068 
Q 3634 1759 3634 1313 
Q 3634 634 3220 271 
Q 2806 -91 2034 -91 
Q 1263 -91 848 271 
Q 434 634 434 1313 
Q 434 1759 690 2068 
Q 947 2378 1403 2484 
z
M 1172 3481 
Q 1172 3119 1398 2916 
Q 1625 2713 2034 2713 
Q 2441 2713 2670 2916 
Q 2900 3119 2900 3481 
Q 2900 3844 2670 4047 
Q 2441 4250 2034 4250 
Q 1625 4250 1398 4047 
Q 1172 3844 1172 3481 
z
" id="DejaVuSans-38" transform="scale(0.015625)"/>
       </defs>
       <use xlink:href="#DejaVuSans-2212"/>
       <use x="83.789062" xlink:href="#DejaVuSans-38"/>
       <use x="147.412109" xlink:href="#DejaVuSans-30"/>
       <use x="211.035156" xlink:href="#DejaVuSans-30"/>
      </g>
     </g>
    </g>
    <g id="ytick_3">
     <g id="line2d_12">
      <g>
       <use style="stroke:#000000;stroke-width:0.8;" x="57.6" xlink:href="#m66f764ff44" y="192.302004"/>
      </g>
     </g>
     <g id="text_13">
      <!-- −600 -->
      <g transform="translate(23.132812 196.101223)scale(0.1 -0.1)">
       <defs>
        <path d="M 2113 2584 
Q 1688 2584 1439 2293 
Q 1191 2003 1191 1497 
Q 1191 994 1439 701 
Q 1688 409 2113 409 
Q 2538 409 2786 701 
Q 3034 994 3034 1497 
Q 3034 2003 2786 2293 
Q 2538 2584 2113 2584 
z
M 3366 4563 
L 3366 3988 
Q 3128 4100 2886 4159 
Q 2644 4219 2406 4219 
Q 1781 4219 1451 3797 
Q 1122 3375 1075 2522 
Q 1259 2794 1537 2939 
Q 1816 3084 2150 3084 
Q 2853 3084 3261 2657 
Q 3669 2231 3669 1497 
Q 3669 778 3244 343 
Q 2819 -91 2113 -91 
Q 1303 -91 875 529 
Q 447 1150 447 2328 
Q 447 3434 972 4092 
Q 1497 4750 2381 4750 
Q 2619 4750 2861 4703 
Q 3103 4656 3366 4563 
z
" id="DejaVuSans-36" transform="scale(0.015625)"/>
       </defs>
       <use xlink:href="#DejaVuSans-2212"/>
       <use x="83.789062" xlink:href="#DejaVuSans-36"/>
       <use x="147.412109" xlink:href="#DejaVuSans-30"/>
       <use x="211.035156" xlink:href="#DejaVuSans-30"/>
      </g>
     </g>
    </g>
    <g id="ytick_4">
     <g id="line2d_13">
      <g>
       <use style="stroke:#000000;stroke-width:0.8;" x="57.6" xlink:href="#m66f764ff44" y="144.249684"/>
      </g>
     </g>
     <g id="text_14">
      <!-- −400 -->
      <g transform="translate(23.132812 148.048903)scale(0.1 -0.1)">
       <use xlink:href="#DejaVuSans-2212"/>
       <use x="83.789062" xlink:href="#DejaVuSans-34"/>
       <use x="147.412109" xlink:href="#DejaVuSans-30"/>
       <use x="211.035156" xlink:href="#DejaVuSans-30"/>
      </g>
     </g>
    </g>
    <g id="ytick_5">
     <g id="line2d_14">
      <g>
       <use style="stroke:#000000;stroke-width:0.8;" x="57.6" xlink:href="#m66f764ff44" y="96.197364"/>
      </g>
     </g>
     <g id="text_15">
      <!-- −200 -->
      <g transform="translate(23.132812 99.996583)scale(0.1 -0.1)">
       <use xlink:href="#DejaVuSans-2212"/>
       <use x="83.789062" xlink:href="#DejaVuSans-32"/>
       <use x="147.412109" xlink:href="#DejaVuSans-30"/>
       <use x="211.035156" xlink:href="#DejaVuSans-30"/>
      </g>
     </g>
    </g>
    <g id="ytick_6">
     <g id="line2d_15">
      <g>
       <use style="stroke:#000000;stroke-width:0.8;" x="57.6" xlink:href="#m66f764ff44" y="48.145045"/>
      </g>
     </g>
     <g id="text_16">
      <!-- 0 -->
      <g transform="translate(44.2375 51.944263)scale(0.1 -0.1)">
       <use xlink:href="#DejaVuSans-30"/>
      </g>
     </g>
    </g>
    <g id="text_17">
     <!-- Loss -->
     <g transform="translate(9.650781 190.978781)rotate(-90)scale(0.15 -0.15)">
      <defs>
       <path d="M 628 4666 
L 1259 4666 
L 1259 531 
L 3531 531 
L 3531 0 
L 628 0 
L 628 4666 
z
" id="DejaVuSans-4c" transform="scale(0.015625)"/>
       <path d="M 2834 3397 
L 2834 2853 
Q 2591 2978 2328 3040 
Q 2066 3103 1784 3103 
Q 1356 3103 1142 2972 
Q 928 2841 928 2578 
Q 928 2378 1081 2264 
Q 1234 2150 1697 2047 
L 1894 2003 
Q 2506 1872 2764 1633 
Q 3022 1394 3022 966 
Q 3022 478 2636 193 
Q 2250 -91 1575 -91 
Q 1294 -91 989 -36 
Q 684 19 347 128 
L 347 722 
Q 666 556 975 473 
Q 1284 391 1588 391 
Q 1994 391 2212 530 
Q 2431 669 2431 922 
Q 2431 1156 2273 1281 
Q 2116 1406 1581 1522 
L 1381 1569 
Q 847 1681 609 1914 
Q 372 2147 372 2553 
Q 372 3047 722 3315 
Q 1072 3584 1716 3584 
Q 2034 3584 2315 3537 
Q 2597 3491 2834 3397 
z
" id="DejaVuSans-73" transform="scale(0.015625)"/>
      </defs>
      <use xlink:href="#DejaVuSans-4c"/>
      <use x="53.962891" xlink:href="#DejaVuSans-6f"/>
      <use x="115.144531" xlink:href="#DejaVuSans-73"/>
      <use x="167.244141" xlink:href="#DejaVuSans-73"/>
     </g>
    </g>
   </g>
   <g id="line2d_16">
    <path clip-path="url(#p96d7e9a657)" d="M 73.832727 53.568 
L 74.646398 73.957018 
L 75.460068 115.505858 
L 76.273739 132.976437 
L 77.087409 141.536836 
L 77.90108 145.554604 
L 78.714751 138.928791 
L 79.528421 144.597248 
L 80.342092 143.300778 
L 81.155762 167.309023 
L 81.969433 158.881345 
L 82.783103 168.214911 
L 83.596774 175.329405 
L 84.410444 173.652159 
L 85.224115 174.307685 
L 86.037785 172.968205 
L 86.851456 188.484049 
L 87.665126 178.156439 
L 88.478797 169.439203 
L 89.292468 185.815804 
L 90.106138 181.129381 
L 90.919809 184.778252 
L 91.733479 186.21148 
L 92.54715 200.753187 
L 93.36082 196.064824 
L 94.174491 196.686532 
L 94.988161 199.194369 
L 95.801832 195.32826 
L 96.615502 193.520024 
L 97.429173 211.34469 
L 98.242843 202.987867 
L 99.056514 210.189109 
L 99.870185 205.618677 
L 100.683855 214.208238 
L 101.497526 213.950745 
L 102.311196 214.429647 
L 103.124867 213.157323 
L 103.938537 206.053666 
L 104.752208 214.51909 
L 105.565878 217.676991 
L 106.379549 217.789437 
L 107.193219 220.638077 
L 108.00689 213.14812 
L 108.82056 221.687226 
L 109.634231 216.173231 
L 110.447902 226.876172 
L 111.261572 227.386535 
L 112.075243 219.817313 
L 112.888913 221.557791 
L 113.702584 226.133192 
L 114.516254 226.309408 
L 115.329925 235.644685 
L 116.143595 224.175033 
L 116.957266 229.869279 
L 117.770936 239.813306 
L 118.584607 235.391373 
L 119.398278 237.298403 
L 120.211948 234.554947 
L 121.025619 236.688316 
L 121.839289 245.179162 
L 122.65296 218.864146 
L 123.46663 228.87173 
L 124.280301 235.568383 
L 125.093971 225.076613 
L 125.907642 230.945727 
L 126.721312 246.692252 
L 127.534983 237.431089 
L 128.348653 236.468604 
L 129.162324 240.691581 
L 129.975995 231.362181 
L 130.789665 245.417659 
L 131.603336 238.301709 
L 132.417006 237.084479 
L 133.230677 248.958843 
L 134.044347 239.593673 
L 134.858018 238.5735 
L 136.485359 248.483612 
L 137.299029 240.055998 
L 138.1127 240.45855 
L 138.92637 240.317315 
L 139.740041 239.70613 
L 140.553712 231.826689 
L 141.367382 252.040401 
L 142.181053 248.961945 
L 142.994723 237.022143 
L 144.622064 246.585513 
L 145.435735 250.795836 
L 146.249405 251.589948 
L 147.063076 251.07728 
L 147.876746 242.560426 
L 148.690417 252.603485 
L 149.504087 244.967194 
L 150.317758 244.127923 
L 151.131429 249.864977 
L 151.945099 256.963326 
L 152.75877 258.941643 
L 153.57244 241.244768 
L 154.386111 262.879433 
L 155.199781 250.182526 
L 156.013452 259.11385 
L 156.827122 246.768234 
L 157.640793 259.436639 
L 158.454463 253.260756 
L 159.268134 251.71762 
L 160.081805 247.801517 
L 160.895475 260.720752 
L 161.709146 252.806534 
L 162.522816 258.228215 
L 163.336487 250.383509 
L 164.150157 257.331415 
L 164.963828 253.826822 
L 165.777498 255.57182 
L 166.591169 258.614015 
L 167.404839 254.036851 
L 168.21851 252.998874 
L 169.03218 256.922872 
L 169.845851 252.928599 
L 170.659522 256.034695 
L 171.473192 254.488367 
L 172.286863 252.223573 
L 173.100533 265.049043 
L 173.914204 255.236544 
L 174.727874 259.859401 
L 175.541545 265.606499 
L 176.355215 260.823445 
L 177.168886 267.164273 
L 177.982556 266.658664 
L 178.796227 257.086844 
L 179.609897 259.05546 
L 180.423568 254.410094 
L 181.237239 260.956695 
L 182.050909 261.870365 
L 182.86458 259.395637 
L 183.67825 253.431146 
L 184.491921 257.558718 
L 185.305591 251.64786 
L 186.119262 253.53589 
L 186.932932 273.44399 
L 187.746603 253.619592 
L 188.560273 257.952798 
L 189.373944 257.392385 
L 190.187614 273.514336 
L 191.001285 266.143735 
L 191.814956 257.393587 
L 192.628626 267.943451 
L 193.442297 263.207365 
L 194.255967 250.333639 
L 195.069638 263.119863 
L 195.883308 261.819375 
L 196.696979 257.885499 
L 197.510649 265.265345 
L 198.32432 259.326699 
L 199.13799 258.647642 
L 199.951661 251.724951 
L 200.765332 253.740883 
L 201.579002 261.121137 
L 202.392673 257.009235 
L 203.206343 258.310799 
L 204.020014 258.885803 
L 204.833684 265.61896 
L 205.647355 258.819649 
L 206.461025 266.533 
L 207.274696 272.169604 
L 208.088366 269.671858 
L 208.902037 252.110495 
L 209.715707 261.976316 
L 210.529378 257.806824 
L 211.343049 268.962052 
L 212.156719 259.27038 
L 212.97039 263.326495 
L 213.78406 276.505774 
L 215.411401 262.440577 
L 217.038742 257.096605 
L 217.852413 265.304948 
L 218.666083 263.659875 
L 219.479754 261.105714 
L 220.293424 257.074214 
L 221.107095 262.594417 
L 221.920766 266.665222 
L 222.734436 274.793569 
L 223.548107 264.072476 
L 224.361777 264.426754 
L 225.175448 262.118442 
L 225.989118 256.996606 
L 226.802789 261.982131 
L 227.616459 255.586471 
L 228.43013 255.305309 
L 229.2438 253.344676 
L 230.057471 269.122424 
L 230.871141 267.675448 
L 231.684812 267.011006 
L 232.498483 263.087648 
L 233.312153 263.29785 
L 235.753165 266.501091 
L 236.566835 270.244024 
L 237.380506 262.749894 
L 238.194176 266.762179 
L 239.007847 260.985163 
L 239.821517 268.218767 
L 240.635188 270.766296 
L 241.448859 270.381936 
L 242.262529 266.999764 
L 243.0762 266.459885 
L 243.88987 268.176522 
L 244.703541 280.874552 
L 245.517211 271.33792 
L 246.330882 271.023646 
L 247.144552 266.356305 
L 247.958223 271.859289 
L 248.771893 273.664259 
L 249.585564 270.388508 
L 250.399234 275.956555 
L 251.212905 264.259275 
L 252.026576 268.690019 
L 252.840246 274.533921 
L 253.653917 271.155288 
L 254.467587 265.641805 
L 255.281258 265.171846 
L 256.094928 281.922986 
L 256.908599 266.310671 
L 257.722269 270.686339 
L 258.53594 281.803731 
L 259.34961 271.783863 
L 260.163281 265.098609 
L 260.976951 264.80555 
L 261.790622 275.682282 
L 262.604293 269.458666 
L 263.417963 270.895145 
L 264.231634 267.77468 
L 265.045304 283.155715 
L 265.858975 268.726056 
L 266.672645 275.467184 
L 267.486316 272.337241 
L 268.299986 274.197889 
L 269.113657 264.419845 
L 269.927327 264.243164 
L 270.740998 272.448647 
L 271.554668 269.339205 
L 272.368339 269.16304 
L 273.18201 273.717382 
L 273.99568 259.106723 
L 274.809351 268.980403 
L 275.623021 270.118607 
L 276.436692 267.692598 
L 277.250362 267.119862 
L 278.064033 267.985228 
L 278.877703 266.515181 
L 279.691374 272.207568 
L 280.505044 269.402878 
L 281.318715 275.52905 
L 282.132386 276.288345 
L 282.946056 269.219979 
L 283.759727 265.343856 
L 284.573397 259.525501 
L 285.387068 260.89109 
L 286.200738 273.16186 
L 287.014409 278.164011 
L 287.828079 271.12096 
L 288.64175 265.779061 
L 289.45542 272.327589 
L 290.269091 269.955204 
L 291.082761 285.616532 
L 291.896432 263.64157 
L 292.710103 269.315791 
L 293.523773 263.429318 
L 294.337444 271.458361 
L 295.151114 277.729442 
L 295.964785 279.447824 
L 296.778455 272.183781 
L 297.592126 276.627397 
L 298.405796 288.711913 
L 299.219467 271.765292 
L 300.033137 267.853366 
L 300.846808 264.895871 
L 301.660478 274.502069 
L 302.474149 267.954113 
L 303.28782 270.540342 
L 304.10149 265.332296 
L 304.915161 264.741717 
L 305.728831 279.326727 
L 306.542502 271.37227 
L 307.356172 274.924523 
L 308.169843 265.498101 
L 308.983513 282.535116 
L 309.797184 282.478461 
L 310.610854 275.634022 
L 311.424525 271.075242 
L 312.238195 263.187188 
L 313.051866 270.694822 
L 313.865537 292.031667 
L 314.679207 260.438475 
L 315.492878 281.492074 
L 316.306548 274.309677 
L 317.120219 262.471799 
L 317.933889 276.691558 
L 318.74756 275.053272 
L 319.56123 268.595159 
L 320.374901 271.288282 
L 321.188571 279.078907 
L 322.002242 294.506614 
L 322.815913 277.62706 
L 323.629583 279.936221 
L 324.443254 283.173253 
L 325.256924 278.729444 
L 326.070595 266.54779 
L 326.884265 283.09943 
L 327.697936 271.431952 
L 328.511606 274.266578 
L 329.325277 269.561766 
L 330.138947 272.727923 
L 330.952618 279.231494 
L 331.766288 280.089117 
L 332.579959 277.648692 
L 333.39363 280.777546 
L 334.2073 265.501247 
L 335.020971 285.770832 
L 335.834641 272.557713 
L 336.648312 278.110896 
L 337.461982 279.367729 
L 338.275653 272.366636 
L 339.089323 278.434804 
L 339.902994 282.880375 
L 340.716664 279.614408 
L 341.530335 289.576306 
L 343.157676 275.202771 
L 343.971347 272.889263 
L 344.785017 282.184244 
L 345.598688 282.462086 
L 346.412358 270.727327 
L 347.226029 287.877982 
L 348.039699 295.488 
L 348.85337 269.22652 
L 349.66704 276.926832 
L 350.480711 280.289018 
L 351.294381 289.057012 
L 352.108052 282.919274 
L 352.921722 277.958939 
L 353.735393 271.05579 
L 354.549064 281.168434 
L 355.362734 276.760253 
L 356.176405 273.32351 
L 356.990075 277.130418 
L 357.803746 278.347107 
L 358.617416 270.855689 
L 359.431087 279.372127 
L 360.244757 290.039596 
L 361.058428 283.302299 
L 361.872098 280.084143 
L 362.685769 285.483447 
L 363.49944 273.218545 
L 364.31311 283.879388 
L 365.126781 273.073746 
L 365.940451 274.250421 
L 366.754122 288.680469 
L 367.567792 279.93209 
L 368.381463 284.143203 
L 369.195133 277.656978 
L 370.008804 269.390663 
L 370.822474 282.019207 
L 371.636145 282.219686 
L 372.449815 281.135431 
L 373.263486 276.837259 
L 374.077157 279.995036 
L 374.890827 277.915166 
L 375.704498 289.187772 
L 376.518168 280.419283 
L 377.331839 275.257556 
L 378.145509 278.236289 
L 379.77285 285.371128 
L 380.586521 274.892392 
L 381.400191 275.223168 
L 382.213862 282.266914 
L 383.027532 278.631254 
L 383.841203 277.447494 
L 384.654874 280.695314 
L 385.468544 281.284972 
L 386.282215 288.795519 
L 387.095885 275.207426 
L 387.909556 286.8878 
L 388.723226 280.59133 
L 389.536897 277.170487 
L 390.350567 280.136717 
L 391.164238 275.523557 
L 391.977908 274.357942 
L 392.791579 281.122636 
L 393.605249 276.370379 
L 394.41892 286.291793 
L 395.232591 274.440725 
L 396.046261 289.438689 
L 396.859932 283.18369 
L 397.673602 293.081328 
L 398.487273 274.694456 
L 398.487273 274.694456 
" style="fill:none;stroke:#1f77b4;stroke-linecap:square;stroke-width:1.5;"/>
   </g>
   <g id="line2d_17">
    <path clip-path="url(#p96d7e9a657)" d="M 73.832727 117.051863 
L 74.646398 80.218529 
L 75.460068 128.706243 
L 76.273739 117.165826 
L 77.087409 151.421381 
L 77.90108 150.28075 
L 78.714751 161.343652 
L 79.528421 168.209044 
L 80.342092 163.735502 
L 81.155762 67.487914 
L 81.969433 174.921526 
L 82.783103 174.168909 
L 83.596774 181.917933 
L 84.410444 169.299025 
L 85.224115 180.978677 
L 86.037785 186.227085 
L 86.851456 170.710074 
L 87.665126 185.656388 
L 88.478797 183.723625 
L 89.292468 192.268263 
L 90.919809 181.495904 
L 91.733479 192.370601 
L 92.54715 198.112619 
L 93.36082 186.984318 
L 94.174491 197.528665 
L 94.988161 199.815974 
L 95.801832 195.890793 
L 96.615502 195.687138 
L 97.429173 205.374964 
L 98.242843 202.990435 
L 99.056514 214.573463 
L 99.870185 208.81857 
L 100.683855 197.981807 
L 101.497526 210.38666 
L 102.311196 220.352431 
L 103.124867 207.919793 
L 103.938537 208.076136 
L 104.752208 208.080655 
L 105.565878 217.566821 
L 106.379549 222.599683 
L 108.00689 213.459405 
L 109.634231 220.698993 
L 110.447902 224.468819 
L 111.261572 219.330793 
L 112.075243 228.670882 
L 112.888913 226.353192 
L 113.702584 214.391143 
L 114.516254 220.424507 
L 115.329925 229.409601 
L 116.143595 222.159602 
L 116.957266 226.797986 
L 117.770936 220.215774 
L 118.584607 228.981599 
L 119.398278 232.328739 
L 120.211948 237.346092 
L 121.025619 237.752406 
L 121.839289 232.316097 
L 122.65296 232.474313 
L 123.46663 237.739591 
L 124.280301 239.247687 
L 125.907642 233.746522 
L 126.721312 237.300743 
L 127.534983 243.378113 
L 128.348653 236.107035 
L 129.162324 223.725259 
L 129.975995 247.050454 
L 130.789665 233.152591 
L 131.603336 243.135115 
L 132.417006 237.764814 
L 133.230677 249.874148 
L 134.044347 237.796251 
L 134.858018 219.024878 
L 135.671688 236.745821 
L 136.485359 224.918445 
L 137.299029 245.403103 
L 138.1127 251.807388 
L 138.92637 245.757059 
L 139.740041 245.164136 
L 140.553712 245.492414 
L 141.367382 250.401801 
L 142.994723 235.183412 
L 143.808394 245.593345 
L 144.622064 239.689138 
L 145.435735 247.412829 
L 146.249405 218.941656 
L 147.063076 256.253024 
L 147.876746 242.374494 
L 148.690417 240.282797 
L 149.504087 248.36914 
L 150.317758 248.283236 
L 151.131429 253.6035 
L 151.945099 254.498626 
L 152.75877 254.968231 
L 153.57244 255.980448 
L 154.386111 246.737204 
L 155.199781 249.04253 
L 156.013452 244.191802 
L 156.827122 250.710852 
L 157.640793 242.620611 
L 158.454463 244.662625 
L 159.268134 243.429741 
L 160.081805 237.341837 
L 160.895475 250.274026 
L 161.709146 234.024153 
L 162.522816 246.162725 
L 163.336487 252.762052 
L 164.150157 251.965687 
L 164.963828 250.14125 
L 165.777498 253.908703 
L 166.591169 250.923463 
L 167.404839 253.936103 
L 168.21851 251.147123 
L 169.03218 255.139102 
L 169.845851 261.455875 
L 170.659522 265.345563 
L 171.473192 259.903358 
L 172.286863 247.269321 
L 173.100533 251.463728 
L 173.914204 247.407481 
L 174.727874 259.372325 
L 175.541545 262.597766 
L 176.355215 260.038652 
L 177.168886 251.763883 
L 177.982556 257.725892 
L 178.796227 255.777113 
L 179.609897 257.238819 
L 181.237239 250.962138 
L 182.050909 253.100982 
L 182.86458 244.572152 
L 185.305591 257.67249 
L 186.119262 258.769361 
L 187.746603 246.222927 
L 188.560273 254.565007 
L 189.373944 259.30509 
L 190.187614 255.01663 
L 191.001285 264.210236 
L 191.814956 253.235745 
L 192.628626 256.642861 
L 193.442297 256.737258 
L 194.255967 257.573408 
L 195.069638 258.781283 
L 195.883308 260.260111 
L 196.696979 260.957289 
L 197.510649 263.913186 
L 198.32432 256.838885 
L 199.13799 261.459151 
L 199.951661 256.237161 
L 200.765332 258.455951 
L 201.579002 249.740318 
L 202.392673 256.076617 
L 203.206343 259.793742 
L 204.020014 265.813304 
L 204.833684 253.561016 
L 205.647355 251.75495 
L 206.461025 260.89631 
L 207.274696 256.975971 
L 208.088366 256.262668 
L 208.902037 258.258199 
L 209.715707 269.709114 
L 210.529378 260.442289 
L 211.343049 265.294636 
L 212.156719 261.04316 
L 212.97039 262.570401 
L 213.78406 263.493252 
L 214.597731 266.973535 
L 215.411401 265.482473 
L 216.225072 269.270117 
L 217.852413 258.98372 
L 218.666083 272.114504 
L 219.479754 260.810551 
L 220.293424 255.45648 
L 221.107095 268.794791 
L 221.920766 256.77258 
L 222.734436 269.759943 
L 223.548107 257.472791 
L 224.361777 260.86337 
L 225.989118 241.404432 
L 226.802789 265.401754 
L 227.616459 259.383563 
L 228.43013 264.78248 
L 229.2438 266.122488 
L 230.057471 254.928792 
L 230.871141 273.887671 
L 231.684812 257.744106 
L 232.498483 265.433992 
L 233.312153 266.098301 
L 234.125824 265.131735 
L 234.939494 265.200222 
L 235.753165 260.296533 
L 236.566835 267.11892 
L 237.380506 267.459182 
L 238.194176 254.283552 
L 239.007847 263.188683 
L 239.821517 262.872739 
L 240.635188 254.825673 
L 241.448859 250.536374 
L 242.262529 263.651182 
L 243.0762 263.909183 
L 243.88987 269.507674 
L 244.703541 257.316654 
L 245.517211 274.152164 
L 246.330882 260.974555 
L 247.144552 270.375905 
L 247.958223 270.31973 
L 248.771893 267.808667 
L 249.585564 274.209856 
L 250.399234 264.529058 
L 251.212905 279.036251 
L 252.026576 253.464099 
L 252.840246 259.450914 
L 253.653917 262.808615 
L 254.467587 252.775236 
L 255.281258 260.643891 
L 256.094928 271.296282 
L 256.908599 264.824475 
L 257.722269 265.396739 
L 259.34961 269.897942 
L 260.163281 260.226082 
L 260.976951 257.871745 
L 261.790622 264.393934 
L 262.604293 260.716278 
L 263.417963 263.24663 
L 264.231634 258.570501 
L 265.045304 262.640199 
L 265.858975 275.912751 
L 266.672645 266.572495 
L 267.486316 270.366785 
L 268.299986 265.392672 
L 269.113657 266.021091 
L 270.740998 261.137982 
L 271.554668 266.828245 
L 272.368339 265.876427 
L 273.18201 267.72734 
L 273.99568 266.674508 
L 274.809351 277.620639 
L 275.623021 264.465914 
L 276.436692 266.503026 
L 277.250362 261.827286 
L 278.064033 266.06244 
L 278.877703 273.592552 
L 279.691374 258.260555 
L 280.505044 281.093098 
L 281.318715 264.419979 
L 282.132386 265.337874 
L 282.946056 261.660993 
L 283.759727 253.361116 
L 284.573397 260.156239 
L 285.387068 259.236918 
L 286.200738 264.215726 
L 287.014409 273.910834 
L 287.828079 273.100833 
L 288.64175 271.830473 
L 289.45542 267.765378 
L 290.269091 269.554347 
L 291.082761 262.153244 
L 291.896432 267.819424 
L 292.710103 260.494471 
L 293.523773 267.159819 
L 294.337444 266.302096 
L 295.151114 261.743782 
L 295.964785 269.201524 
L 296.778455 265.158422 
L 297.592126 271.12935 
L 298.405796 269.903865 
L 299.219467 270.008092 
L 300.033137 267.401467 
L 300.846808 274.315179 
L 301.660478 266.056573 
L 302.474149 275.765073 
L 303.28782 261.873132 
L 304.10149 271.025956 
L 304.915161 263.548187 
L 305.728831 268.068409 
L 306.542502 271.343218 
L 307.356172 265.298486 
L 308.169843 268.51388 
L 308.983513 276.572436 
L 309.797184 265.192234 
L 310.610854 266.020896 
L 311.424525 273.691084 
L 312.238195 262.508931 
L 313.051866 273.663592 
L 313.865537 259.631226 
L 314.679207 268.909796 
L 315.492878 272.495066 
L 316.306548 261.671698 
L 317.120219 270.502665 
L 317.933889 272.526556 
L 318.74756 267.607046 
L 319.56123 272.119212 
L 320.374901 267.52342 
L 321.188571 273.931014 
L 322.002242 266.35949 
L 322.815913 272.270394 
L 323.629583 268.134598 
L 324.443254 279.017883 
L 325.256924 264.796673 
L 326.070595 272.44731 
L 326.884265 265.327832 
L 327.697936 264.582378 
L 328.511606 269.803139 
L 329.325277 273.747552 
L 330.138947 265.695659 
L 330.952618 271.332216 
L 331.766288 273.399366 
L 332.579959 281.092692 
L 333.39363 272.059158 
L 334.2073 269.091574 
L 335.020971 270.799606 
L 335.834641 268.074615 
L 336.648312 266.968015 
L 337.461982 269.817092 
L 338.275653 278.857166 
L 339.089323 272.757837 
L 339.902994 276.966801 
L 341.530335 274.067611 
L 342.344005 267.593064 
L 343.157676 266.190566 
L 343.971347 281.04705 
L 344.785017 272.813394 
L 345.598688 273.045902 
L 346.412358 266.353473 
L 347.226029 268.783085 
L 348.039699 271.86424 
L 348.85337 275.80018 
L 349.66704 273.023375 
L 350.480711 274.119808 
L 351.294381 269.647572 
L 352.108052 266.808278 
L 352.921722 275.573362 
L 353.735393 274.156474 
L 354.549064 255.02808 
L 355.362734 276.885395 
L 356.176405 268.628157 
L 356.990075 266.132728 
L 357.803746 272.661992 
L 358.617416 274.31182 
L 359.431087 272.66467 
L 360.244757 267.272088 
L 361.058428 272.011723 
L 362.685769 268.522437 
L 363.49944 275.133109 
L 364.31311 264.681402 
L 365.126781 266.540708 
L 365.940451 274.517826 
L 366.754122 275.589164 
L 367.567792 264.259431 
L 368.381463 275.545336 
L 369.195133 265.302606 
L 370.008804 274.981093 
L 370.822474 277.15105 
L 371.636145 275.653982 
L 372.449815 271.399706 
L 373.263486 265.33005 
L 374.077157 267.660452 
L 374.890827 274.359555 
L 375.704498 273.002143 
L 376.518168 277.200811 
L 377.331839 266.822008 
L 378.145509 274.461913 
L 378.95918 276.96762 
L 379.77285 261.21367 
L 380.586521 280.450082 
L 381.400191 277.261365 
L 382.213862 265.445439 
L 383.027532 270.368622 
L 383.841203 272.999445 
L 384.654874 263.772858 
L 385.468544 278.240983 
L 386.282215 277.545526 
L 387.095885 281.132808 
L 387.909556 281.773446 
L 388.723226 271.616874 
L 389.536897 275.593663 
L 390.350567 273.953902 
L 391.164238 278.446133 
L 391.977908 275.455128 
L 392.791579 266.923847 
L 393.605249 268.438437 
L 394.41892 282.310714 
L 395.232591 270.161469 
L 396.046261 280.249177 
L 396.859932 271.706835 
L 398.487273 260.531653 
L 398.487273 260.531653 
" style="fill:none;stroke:#ff7f0e;stroke-linecap:square;stroke-width:1.5;"/>
   </g>
   <g id="patch_3">
    <path d="M 57.6 307.584 
L 57.6 41.472 
" style="fill:none;stroke:#000000;stroke-linecap:square;stroke-linejoin:miter;stroke-width:0.8;"/>
   </g>
   <g id="patch_4">
    <path d="M 414.72 307.584 
L 414.72 41.472 
" style="fill:none;stroke:#000000;stroke-linecap:square;stroke-linejoin:miter;stroke-width:0.8;"/>
   </g>
   <g id="patch_5">
    <path d="M 57.6 307.584 
L 414.72 307.584 
" style="fill:none;stroke:#000000;stroke-linecap:square;stroke-linejoin:miter;stroke-width:0.8;"/>
   </g>
   <g id="patch_6">
    <path d="M 57.6 41.472 
L 414.72 41.472 
" style="fill:none;stroke:#000000;stroke-linecap:square;stroke-linejoin:miter;stroke-width:0.8;"/>
   </g>
   <g id="legend_1">
    <g id="patch_7">
     <path d="M 303.845 78.82825 
L 407.72 78.82825 
Q 409.72 78.82825 409.72 76.82825 
L 409.72 48.472 
Q 409.72 46.472 407.72 46.472 
L 303.845 46.472 
Q 301.845 46.472 301.845 48.472 
L 301.845 76.82825 
Q 301.845 78.82825 303.845 78.82825 
z
" style="fill:#ffffff;opacity:0.8;stroke:#cccccc;stroke-linejoin:miter;"/>
    </g>
    <g id="line2d_18">
     <path d="M 305.845 54.570437 
L 325.845 54.570437 
" style="fill:none;stroke:#1f77b4;stroke-linecap:square;stroke-width:1.5;"/>
    </g>
    <g id="line2d_19"/>
    <g id="text_18">
     <!-- Train loss -->
     <g transform="translate(333.845 58.070437)scale(0.1 -0.1)">
      <defs>
       <path d="M -19 4666 
L 3928 4666 
L 3928 4134 
L 2272 4134 
L 2272 0 
L 1638 0 
L 1638 4134 
L -19 4134 
L -19 4666 
z
" id="DejaVuSans-54" transform="scale(0.015625)"/>
       <path d="M 2631 2963 
Q 2534 3019 2420 3045 
Q 2306 3072 2169 3072 
Q 1681 3072 1420 2755 
Q 1159 2438 1159 1844 
L 1159 0 
L 581 0 
L 581 3500 
L 1159 3500 
L 1159 2956 
Q 1341 3275 1631 3429 
Q 1922 3584 2338 3584 
Q 2397 3584 2469 3576 
Q 2541 3569 2628 3553 
L 2631 2963 
z
" id="DejaVuSans-72" transform="scale(0.015625)"/>
       <path d="M 2194 1759 
Q 1497 1759 1228 1600 
Q 959 1441 959 1056 
Q 959 750 1161 570 
Q 1363 391 1709 391 
Q 2188 391 2477 730 
Q 2766 1069 2766 1631 
L 2766 1759 
L 2194 1759 
z
M 3341 1997 
L 3341 0 
L 2766 0 
L 2766 531 
Q 2569 213 2275 61 
Q 1981 -91 1556 -91 
Q 1019 -91 701 211 
Q 384 513 384 1019 
Q 384 1609 779 1909 
Q 1175 2209 1959 2209 
L 2766 2209 
L 2766 2266 
Q 2766 2663 2505 2880 
Q 2244 3097 1772 3097 
Q 1472 3097 1187 3025 
Q 903 2953 641 2809 
L 641 3341 
Q 956 3463 1253 3523 
Q 1550 3584 1831 3584 
Q 2591 3584 2966 3190 
Q 3341 2797 3341 1997 
z
" id="DejaVuSans-61" transform="scale(0.015625)"/>
       <path d="M 603 3500 
L 1178 3500 
L 1178 0 
L 603 0 
L 603 3500 
z
M 603 4863 
L 1178 4863 
L 1178 4134 
L 603 4134 
L 603 4863 
z
" id="DejaVuSans-69" transform="scale(0.015625)"/>
       <path d="M 3513 2113 
L 3513 0 
L 2938 0 
L 2938 2094 
Q 2938 2591 2744 2837 
Q 2550 3084 2163 3084 
Q 1697 3084 1428 2787 
Q 1159 2491 1159 1978 
L 1159 0 
L 581 0 
L 581 3500 
L 1159 3500 
L 1159 2956 
Q 1366 3272 1645 3428 
Q 1925 3584 2291 3584 
Q 2894 3584 3203 3211 
Q 3513 2838 3513 2113 
z
" id="DejaVuSans-6e" transform="scale(0.015625)"/>
       <path id="DejaVuSans-20" transform="scale(0.015625)"/>
       <path d="M 603 4863 
L 1178 4863 
L 1178 0 
L 603 0 
L 603 4863 
z
" id="DejaVuSans-6c" transform="scale(0.015625)"/>
      </defs>
      <use xlink:href="#DejaVuSans-54"/>
      <use x="46.333984" xlink:href="#DejaVuSans-72"/>
      <use x="87.447266" xlink:href="#DejaVuSans-61"/>
      <use x="148.726562" xlink:href="#DejaVuSans-69"/>
      <use x="176.509766" xlink:href="#DejaVuSans-6e"/>
      <use x="239.888672" xlink:href="#DejaVuSans-20"/>
      <use x="271.675781" xlink:href="#DejaVuSans-6c"/>
      <use x="299.458984" xlink:href="#DejaVuSans-6f"/>
      <use x="360.640625" xlink:href="#DejaVuSans-73"/>
      <use x="412.740234" xlink:href="#DejaVuSans-73"/>
     </g>
    </g>
    <g id="line2d_20">
     <path d="M 305.845 69.248562 
L 325.845 69.248562 
" style="fill:none;stroke:#ff7f0e;stroke-linecap:square;stroke-width:1.5;"/>
    </g>
    <g id="line2d_21"/>
    <g id="text_19">
     <!-- Validation loss -->
     <g transform="translate(333.845 72.748562)scale(0.1 -0.1)">
      <defs>
       <path d="M 1831 0 
L 50 4666 
L 709 4666 
L 2188 738 
L 3669 4666 
L 4325 4666 
L 2547 0 
L 1831 0 
z
" id="DejaVuSans-56" transform="scale(0.015625)"/>
       <path d="M 2906 2969 
L 2906 4863 
L 3481 4863 
L 3481 0 
L 2906 0 
L 2906 525 
Q 2725 213 2448 61 
Q 2172 -91 1784 -91 
Q 1150 -91 751 415 
Q 353 922 353 1747 
Q 353 2572 751 3078 
Q 1150 3584 1784 3584 
Q 2172 3584 2448 3432 
Q 2725 3281 2906 2969 
z
M 947 1747 
Q 947 1113 1208 752 
Q 1469 391 1925 391 
Q 2381 391 2643 752 
Q 2906 1113 2906 1747 
Q 2906 2381 2643 2742 
Q 2381 3103 1925 3103 
Q 1469 3103 1208 2742 
Q 947 2381 947 1747 
z
" id="DejaVuSans-64" transform="scale(0.015625)"/>
       <path d="M 1172 4494 
L 1172 3500 
L 2356 3500 
L 2356 3053 
L 1172 3053 
L 1172 1153 
Q 1172 725 1289 603 
Q 1406 481 1766 481 
L 2356 481 
L 2356 0 
L 1766 0 
Q 1100 0 847 248 
Q 594 497 594 1153 
L 594 3053 
L 172 3053 
L 172 3500 
L 594 3500 
L 594 4494 
L 1172 4494 
z
" id="DejaVuSans-74" transform="scale(0.015625)"/>
      </defs>
      <use xlink:href="#DejaVuSans-56"/>
      <use x="60.658203" xlink:href="#DejaVuSans-61"/>
      <use x="121.9375" xlink:href="#DejaVuSans-6c"/>
      <use x="149.720703" xlink:href="#DejaVuSans-69"/>
      <use x="177.503906" xlink:href="#DejaVuSans-64"/>
      <use x="240.980469" xlink:href="#DejaVuSans-61"/>
      <use x="302.259766" xlink:href="#DejaVuSans-74"/>
      <use x="341.46875" xlink:href="#DejaVuSans-69"/>
      <use x="369.251953" xlink:href="#DejaVuSans-6f"/>
      <use x="430.433594" xlink:href="#DejaVuSans-6e"/>
      <use x="493.8125" xlink:href="#DejaVuSans-20"/>
      <use x="525.599609" xlink:href="#DejaVuSans-6c"/>
      <use x="553.382812" xlink:href="#DejaVuSans-6f"/>
      <use x="614.564453" xlink:href="#DejaVuSans-73"/>
      <use x="666.664062" xlink:href="#DejaVuSans-73"/>
     </g>
    </g>
   </g>
  </g>
 </g>
 <defs>
  <clipPath id="p96d7e9a657">
   <rect height="266.112" width="357.12" x="57.6" y="41.472"/>
  </clipPath>
 </defs>
</svg>
