<?xml version="1.0" encoding="utf-8" standalone="no"?>
<!DOCTYPE svg PUBLIC "-//W3C//DTD SVG 1.1//EN"
  "http://www.w3.org/Graphics/SVG/1.1/DTD/svg11.dtd">
<svg height="345.6pt" version="1.1" viewBox="0 0 460.8 345.6" width="460.8pt" xmlns="http://www.w3.org/2000/svg" xmlns:xlink="http://www.w3.org/1999/xlink">
 <metadata>
  <rdf:RDF xmlns:cc="http://creativecommons.org/ns#" xmlns:dc="http://purl.org/dc/elements/1.1/" xmlns:rdf="http://www.w3.org/1999/02/22-rdf-syntax-ns#">
   <cc:Work>
    <dc:type rdf:resource="http://purl.org/dc/dcmitype/StillImage"/>
    <dc:date>2021-08-01T11:23:12.158193</dc:date>
    <dc:format>image/svg+xml</dc:format>
    <dc:creator>
     <cc:Agent>
      <dc:title>Matplotlib v3.4.2, https://matplotlib.org/</dc:title>
     </cc:Agent>
    </dc:creator>
   </cc:Work>
  </rdf:RDF>
 </metadata>
 <defs>
  <style type="text/css">*{stroke-linecap:butt;stroke-linejoin:round;}</style>
 </defs>
 <g id="figure_1">
  <g id="patch_1">
   <path d="M 0 345.6 
L 460.8 345.6 
L 460.8 0 
L 0 0 
z
" style="fill:#ffffff;"/>
  </g>
  <g id="axes_1">
   <g id="patch_2">
    <path d="M 57.6 307.584 
L 414.72 307.584 
L 414.72 41.472 
L 57.6 41.472 
z
" style="fill:#ffffff;"/>
   </g>
   <g id="matplotlib.axis_1">
    <g id="xtick_1">
     <g id="line2d_1">
      <defs>
       <path d="M 0 0 
L 0 3.5 
" id="mf6f9bb6fa9" style="stroke:#000000;stroke-width:0.8;"/>
      </defs>
      <g>
       <use style="stroke:#000000;stroke-width:0.8;" x="73.600665" xlink:href="#mf6f9bb6fa9" y="307.584"/>
      </g>
     </g>
     <g id="text_1">
      <!-- 0 -->
      <g transform="translate(70.419415 322.182437)scale(0.1 -0.1)">
       <defs>
        <path d="M 2034 4250 
Q 1547 4250 1301 3770 
Q 1056 3291 1056 2328 
Q 1056 1369 1301 889 
Q 1547 409 2034 409 
Q 2525 409 2770 889 
Q 3016 1369 3016 2328 
Q 3016 3291 2770 3770 
Q 2525 4250 2034 4250 
z
M 2034 4750 
Q 2819 4750 3233 4129 
Q 3647 3509 3647 2328 
Q 3647 1150 3233 529 
Q 2819 -91 2034 -91 
Q 1250 -91 836 529 
Q 422 1150 422 2328 
Q 422 3509 836 4129 
Q 1250 4750 2034 4750 
z
" id="DejaVuSans-30" transform="scale(0.015625)"/>
       </defs>
       <use xlink:href="#DejaVuSans-30"/>
      </g>
     </g>
    </g>
    <g id="xtick_2">
     <g id="line2d_2">
      <g>
       <use style="stroke:#000000;stroke-width:0.8;" x="120.013038" xlink:href="#mf6f9bb6fa9" y="307.584"/>
      </g>
     </g>
     <g id="text_2">
      <!-- 200 -->
      <g transform="translate(110.469288 322.182437)scale(0.1 -0.1)">
       <defs>
        <path d="M 1228 531 
L 3431 531 
L 3431 0 
L 469 0 
L 469 531 
Q 828 903 1448 1529 
Q 2069 2156 2228 2338 
Q 2531 2678 2651 2914 
Q 2772 3150 2772 3378 
Q 2772 3750 2511 3984 
Q 2250 4219 1831 4219 
Q 1534 4219 1204 4116 
Q 875 4013 500 3803 
L 500 4441 
Q 881 4594 1212 4672 
Q 1544 4750 1819 4750 
Q 2544 4750 2975 4387 
Q 3406 4025 3406 3419 
Q 3406 3131 3298 2873 
Q 3191 2616 2906 2266 
Q 2828 2175 2409 1742 
Q 1991 1309 1228 531 
z
" id="DejaVuSans-32" transform="scale(0.015625)"/>
       </defs>
       <use xlink:href="#DejaVuSans-32"/>
       <use x="63.623047" xlink:href="#DejaVuSans-30"/>
       <use x="127.246094" xlink:href="#DejaVuSans-30"/>
      </g>
     </g>
    </g>
    <g id="xtick_3">
     <g id="line2d_3">
      <g>
       <use style="stroke:#000000;stroke-width:0.8;" x="166.42541" xlink:href="#mf6f9bb6fa9" y="307.584"/>
      </g>
     </g>
     <g id="text_3">
      <!-- 400 -->
      <g transform="translate(156.88166 322.182437)scale(0.1 -0.1)">
       <defs>
        <path d="M 2419 4116 
L 825 1625 
L 2419 1625 
L 2419 4116 
z
M 2253 4666 
L 3047 4666 
L 3047 1625 
L 3713 1625 
L 3713 1100 
L 3047 1100 
L 3047 0 
L 2419 0 
L 2419 1100 
L 313 1100 
L 313 1709 
L 2253 4666 
z
" id="DejaVuSans-34" transform="scale(0.015625)"/>
       </defs>
       <use xlink:href="#DejaVuSans-34"/>
       <use x="63.623047" xlink:href="#DejaVuSans-30"/>
       <use x="127.246094" xlink:href="#DejaVuSans-30"/>
      </g>
     </g>
    </g>
    <g id="xtick_4">
     <g id="line2d_4">
      <g>
       <use style="stroke:#000000;stroke-width:0.8;" x="212.837783" xlink:href="#mf6f9bb6fa9" y="307.584"/>
      </g>
     </g>
     <g id="text_4">
      <!-- 600 -->
      <g transform="translate(203.294033 322.182437)scale(0.1 -0.1)">
       <defs>
        <path d="M 2113 2584 
Q 1688 2584 1439 2293 
Q 1191 2003 1191 1497 
Q 1191 994 1439 701 
Q 1688 409 2113 409 
Q 2538 409 2786 701 
Q 3034 994 3034 1497 
Q 3034 2003 2786 2293 
Q 2538 2584 2113 2584 
z
M 3366 4563 
L 3366 3988 
Q 3128 4100 2886 4159 
Q 2644 4219 2406 4219 
Q 1781 4219 1451 3797 
Q 1122 3375 1075 2522 
Q 1259 2794 1537 2939 
Q 1816 3084 2150 3084 
Q 2853 3084 3261 2657 
Q 3669 2231 3669 1497 
Q 3669 778 3244 343 
Q 2819 -91 2113 -91 
Q 1303 -91 875 529 
Q 447 1150 447 2328 
Q 447 3434 972 4092 
Q 1497 4750 2381 4750 
Q 2619 4750 2861 4703 
Q 3103 4656 3366 4563 
z
" id="DejaVuSans-36" transform="scale(0.015625)"/>
       </defs>
       <use xlink:href="#DejaVuSans-36"/>
       <use x="63.623047" xlink:href="#DejaVuSans-30"/>
       <use x="127.246094" xlink:href="#DejaVuSans-30"/>
      </g>
     </g>
    </g>
    <g id="xtick_5">
     <g id="line2d_5">
      <g>
       <use style="stroke:#000000;stroke-width:0.8;" x="259.250155" xlink:href="#mf6f9bb6fa9" y="307.584"/>
      </g>
     </g>
     <g id="text_5">
      <!-- 800 -->
      <g transform="translate(249.706405 322.182437)scale(0.1 -0.1)">
       <defs>
        <path d="M 2034 2216 
Q 1584 2216 1326 1975 
Q 1069 1734 1069 1313 
Q 1069 891 1326 650 
Q 1584 409 2034 409 
Q 2484 409 2743 651 
Q 3003 894 3003 1313 
Q 3003 1734 2745 1975 
Q 2488 2216 2034 2216 
z
M 1403 2484 
Q 997 2584 770 2862 
Q 544 3141 544 3541 
Q 544 4100 942 4425 
Q 1341 4750 2034 4750 
Q 2731 4750 3128 4425 
Q 3525 4100 3525 3541 
Q 3525 3141 3298 2862 
Q 3072 2584 2669 2484 
Q 3125 2378 3379 2068 
Q 3634 1759 3634 1313 
Q 3634 634 3220 271 
Q 2806 -91 2034 -91 
Q 1263 -91 848 271 
Q 434 634 434 1313 
Q 434 1759 690 2068 
Q 947 2378 1403 2484 
z
M 1172 3481 
Q 1172 3119 1398 2916 
Q 1625 2713 2034 2713 
Q 2441 2713 2670 2916 
Q 2900 3119 2900 3481 
Q 2900 3844 2670 4047 
Q 2441 4250 2034 4250 
Q 1625 4250 1398 4047 
Q 1172 3844 1172 3481 
z
" id="DejaVuSans-38" transform="scale(0.015625)"/>
       </defs>
       <use xlink:href="#DejaVuSans-38"/>
       <use x="63.623047" xlink:href="#DejaVuSans-30"/>
       <use x="127.246094" xlink:href="#DejaVuSans-30"/>
      </g>
     </g>
    </g>
    <g id="xtick_6">
     <g id="line2d_6">
      <g>
       <use style="stroke:#000000;stroke-width:0.8;" x="305.662528" xlink:href="#mf6f9bb6fa9" y="307.584"/>
      </g>
     </g>
     <g id="text_6">
      <!-- 1000 -->
      <g transform="translate(292.937528 322.182437)scale(0.1 -0.1)">
       <defs>
        <path d="M 794 531 
L 1825 531 
L 1825 4091 
L 703 3866 
L 703 4441 
L 1819 4666 
L 2450 4666 
L 2450 531 
L 3481 531 
L 3481 0 
L 794 0 
L 794 531 
z
" id="DejaVuSans-31" transform="scale(0.015625)"/>
       </defs>
       <use xlink:href="#DejaVuSans-31"/>
       <use x="63.623047" xlink:href="#DejaVuSans-30"/>
       <use x="127.246094" xlink:href="#DejaVuSans-30"/>
       <use x="190.869141" xlink:href="#DejaVuSans-30"/>
      </g>
     </g>
    </g>
    <g id="xtick_7">
     <g id="line2d_7">
      <g>
       <use style="stroke:#000000;stroke-width:0.8;" x="352.0749" xlink:href="#mf6f9bb6fa9" y="307.584"/>
      </g>
     </g>
     <g id="text_7">
      <!-- 1200 -->
      <g transform="translate(339.3499 322.182437)scale(0.1 -0.1)">
       <use xlink:href="#DejaVuSans-31"/>
       <use x="63.623047" xlink:href="#DejaVuSans-32"/>
       <use x="127.246094" xlink:href="#DejaVuSans-30"/>
       <use x="190.869141" xlink:href="#DejaVuSans-30"/>
      </g>
     </g>
    </g>
    <g id="xtick_8">
     <g id="line2d_8">
      <g>
       <use style="stroke:#000000;stroke-width:0.8;" x="398.487273" xlink:href="#mf6f9bb6fa9" y="307.584"/>
      </g>
     </g>
     <g id="text_8">
      <!-- 1400 -->
      <g transform="translate(385.762273 322.182437)scale(0.1 -0.1)">
       <use xlink:href="#DejaVuSans-31"/>
       <use x="63.623047" xlink:href="#DejaVuSans-34"/>
       <use x="127.246094" xlink:href="#DejaVuSans-30"/>
       <use x="190.869141" xlink:href="#DejaVuSans-30"/>
      </g>
     </g>
    </g>
    <g id="text_9">
     <!-- Epoch -->
     <g transform="translate(213.193594 339.659781)scale(0.15 -0.15)">
      <defs>
       <path d="M 628 4666 
L 3578 4666 
L 3578 4134 
L 1259 4134 
L 1259 2753 
L 3481 2753 
L 3481 2222 
L 1259 2222 
L 1259 531 
L 3634 531 
L 3634 0 
L 628 0 
L 628 4666 
z
" id="DejaVuSans-45" transform="scale(0.015625)"/>
       <path d="M 1159 525 
L 1159 -1331 
L 581 -1331 
L 581 3500 
L 1159 3500 
L 1159 2969 
Q 1341 3281 1617 3432 
Q 1894 3584 2278 3584 
Q 2916 3584 3314 3078 
Q 3713 2572 3713 1747 
Q 3713 922 3314 415 
Q 2916 -91 2278 -91 
Q 1894 -91 1617 61 
Q 1341 213 1159 525 
z
M 3116 1747 
Q 3116 2381 2855 2742 
Q 2594 3103 2138 3103 
Q 1681 3103 1420 2742 
Q 1159 2381 1159 1747 
Q 1159 1113 1420 752 
Q 1681 391 2138 391 
Q 2594 391 2855 752 
Q 3116 1113 3116 1747 
z
" id="DejaVuSans-70" transform="scale(0.015625)"/>
       <path d="M 1959 3097 
Q 1497 3097 1228 2736 
Q 959 2375 959 1747 
Q 959 1119 1226 758 
Q 1494 397 1959 397 
Q 2419 397 2687 759 
Q 2956 1122 2956 1747 
Q 2956 2369 2687 2733 
Q 2419 3097 1959 3097 
z
M 1959 3584 
Q 2709 3584 3137 3096 
Q 3566 2609 3566 1747 
Q 3566 888 3137 398 
Q 2709 -91 1959 -91 
Q 1206 -91 779 398 
Q 353 888 353 1747 
Q 353 2609 779 3096 
Q 1206 3584 1959 3584 
z
" id="DejaVuSans-6f" transform="scale(0.015625)"/>
       <path d="M 3122 3366 
L 3122 2828 
Q 2878 2963 2633 3030 
Q 2388 3097 2138 3097 
Q 1578 3097 1268 2742 
Q 959 2388 959 1747 
Q 959 1106 1268 751 
Q 1578 397 2138 397 
Q 2388 397 2633 464 
Q 2878 531 3122 666 
L 3122 134 
Q 2881 22 2623 -34 
Q 2366 -91 2075 -91 
Q 1284 -91 818 406 
Q 353 903 353 1747 
Q 353 2603 823 3093 
Q 1294 3584 2113 3584 
Q 2378 3584 2631 3529 
Q 2884 3475 3122 3366 
z
" id="DejaVuSans-63" transform="scale(0.015625)"/>
       <path d="M 3513 2113 
L 3513 0 
L 2938 0 
L 2938 2094 
Q 2938 2591 2744 2837 
Q 2550 3084 2163 3084 
Q 1697 3084 1428 2787 
Q 1159 2491 1159 1978 
L 1159 0 
L 581 0 
L 581 4863 
L 1159 4863 
L 1159 2956 
Q 1366 3272 1645 3428 
Q 1925 3584 2291 3584 
Q 2894 3584 3203 3211 
Q 3513 2838 3513 2113 
z
" id="DejaVuSans-68" transform="scale(0.015625)"/>
      </defs>
      <use xlink:href="#DejaVuSans-45"/>
      <use x="63.183594" xlink:href="#DejaVuSans-70"/>
      <use x="126.660156" xlink:href="#DejaVuSans-6f"/>
      <use x="187.841797" xlink:href="#DejaVuSans-63"/>
      <use x="242.822266" xlink:href="#DejaVuSans-68"/>
     </g>
    </g>
   </g>
   <g id="matplotlib.axis_2">
    <g id="ytick_1">
     <g id="line2d_9">
      <defs>
       <path d="M 0 0 
L -3.5 0 
" id="mde286a0745" style="stroke:#000000;stroke-width:0.8;"/>
      </defs>
      <g>
       <use style="stroke:#000000;stroke-width:0.8;" x="57.6" xlink:href="#mde286a0745" y="291.13581"/>
      </g>
     </g>
     <g id="text_10">
      <!-- −1000 -->
      <g transform="translate(16.770313 294.935028)scale(0.1 -0.1)">
       <defs>
        <path d="M 678 2272 
L 4684 2272 
L 4684 1741 
L 678 1741 
L 678 2272 
z
" id="DejaVuSans-2212" transform="scale(0.015625)"/>
       </defs>
       <use xlink:href="#DejaVuSans-2212"/>
       <use x="83.789062" xlink:href="#DejaVuSans-31"/>
       <use x="147.412109" xlink:href="#DejaVuSans-30"/>
       <use x="211.035156" xlink:href="#DejaVuSans-30"/>
       <use x="274.658203" xlink:href="#DejaVuSans-30"/>
      </g>
     </g>
    </g>
    <g id="ytick_2">
     <g id="line2d_10">
      <g>
       <use style="stroke:#000000;stroke-width:0.8;" x="57.6" xlink:href="#mde286a0745" y="257.214854"/>
      </g>
     </g>
     <g id="text_11">
      <!-- 0 -->
      <g transform="translate(44.2375 261.014073)scale(0.1 -0.1)">
       <use xlink:href="#DejaVuSans-30"/>
      </g>
     </g>
    </g>
    <g id="ytick_3">
     <g id="line2d_11">
      <g>
       <use style="stroke:#000000;stroke-width:0.8;" x="57.6" xlink:href="#mde286a0745" y="223.293898"/>
      </g>
     </g>
     <g id="text_12">
      <!-- 1000 -->
      <g transform="translate(25.15 227.093117)scale(0.1 -0.1)">
       <use xlink:href="#DejaVuSans-31"/>
       <use x="63.623047" xlink:href="#DejaVuSans-30"/>
       <use x="127.246094" xlink:href="#DejaVuSans-30"/>
       <use x="190.869141" xlink:href="#DejaVuSans-30"/>
      </g>
     </g>
    </g>
    <g id="ytick_4">
     <g id="line2d_12">
      <g>
       <use style="stroke:#000000;stroke-width:0.8;" x="57.6" xlink:href="#mde286a0745" y="189.372943"/>
      </g>
     </g>
     <g id="text_13">
      <!-- 2000 -->
      <g transform="translate(25.15 193.172162)scale(0.1 -0.1)">
       <use xlink:href="#DejaVuSans-32"/>
       <use x="63.623047" xlink:href="#DejaVuSans-30"/>
       <use x="127.246094" xlink:href="#DejaVuSans-30"/>
       <use x="190.869141" xlink:href="#DejaVuSans-30"/>
      </g>
     </g>
    </g>
    <g id="ytick_5">
     <g id="line2d_13">
      <g>
       <use style="stroke:#000000;stroke-width:0.8;" x="57.6" xlink:href="#mde286a0745" y="155.451987"/>
      </g>
     </g>
     <g id="text_14">
      <!-- 3000 -->
      <g transform="translate(25.15 159.251206)scale(0.1 -0.1)">
       <defs>
        <path d="M 2597 2516 
Q 3050 2419 3304 2112 
Q 3559 1806 3559 1356 
Q 3559 666 3084 287 
Q 2609 -91 1734 -91 
Q 1441 -91 1130 -33 
Q 819 25 488 141 
L 488 750 
Q 750 597 1062 519 
Q 1375 441 1716 441 
Q 2309 441 2620 675 
Q 2931 909 2931 1356 
Q 2931 1769 2642 2001 
Q 2353 2234 1838 2234 
L 1294 2234 
L 1294 2753 
L 1863 2753 
Q 2328 2753 2575 2939 
Q 2822 3125 2822 3475 
Q 2822 3834 2567 4026 
Q 2313 4219 1838 4219 
Q 1578 4219 1281 4162 
Q 984 4106 628 3988 
L 628 4550 
Q 988 4650 1302 4700 
Q 1616 4750 1894 4750 
Q 2613 4750 3031 4423 
Q 3450 4097 3450 3541 
Q 3450 3153 3228 2886 
Q 3006 2619 2597 2516 
z
" id="DejaVuSans-33" transform="scale(0.015625)"/>
       </defs>
       <use xlink:href="#DejaVuSans-33"/>
       <use x="63.623047" xlink:href="#DejaVuSans-30"/>
       <use x="127.246094" xlink:href="#DejaVuSans-30"/>
       <use x="190.869141" xlink:href="#DejaVuSans-30"/>
      </g>
     </g>
    </g>
    <g id="ytick_6">
     <g id="line2d_14">
      <g>
       <use style="stroke:#000000;stroke-width:0.8;" x="57.6" xlink:href="#mde286a0745" y="121.531032"/>
      </g>
     </g>
     <g id="text_15">
      <!-- 4000 -->
      <g transform="translate(25.15 125.330251)scale(0.1 -0.1)">
       <use xlink:href="#DejaVuSans-34"/>
       <use x="63.623047" xlink:href="#DejaVuSans-30"/>
       <use x="127.246094" xlink:href="#DejaVuSans-30"/>
       <use x="190.869141" xlink:href="#DejaVuSans-30"/>
      </g>
     </g>
    </g>
    <g id="ytick_7">
     <g id="line2d_15">
      <g>
       <use style="stroke:#000000;stroke-width:0.8;" x="57.6" xlink:href="#mde286a0745" y="87.610076"/>
      </g>
     </g>
     <g id="text_16">
      <!-- 5000 -->
      <g transform="translate(25.15 91.409295)scale(0.1 -0.1)">
       <defs>
        <path d="M 691 4666 
L 3169 4666 
L 3169 4134 
L 1269 4134 
L 1269 2991 
Q 1406 3038 1543 3061 
Q 1681 3084 1819 3084 
Q 2600 3084 3056 2656 
Q 3513 2228 3513 1497 
Q 3513 744 3044 326 
Q 2575 -91 1722 -91 
Q 1428 -91 1123 -41 
Q 819 9 494 109 
L 494 744 
Q 775 591 1075 516 
Q 1375 441 1709 441 
Q 2250 441 2565 725 
Q 2881 1009 2881 1497 
Q 2881 1984 2565 2268 
Q 2250 2553 1709 2553 
Q 1456 2553 1204 2497 
Q 953 2441 691 2322 
L 691 4666 
z
" id="DejaVuSans-35" transform="scale(0.015625)"/>
       </defs>
       <use xlink:href="#DejaVuSans-35"/>
       <use x="63.623047" xlink:href="#DejaVuSans-30"/>
       <use x="127.246094" xlink:href="#DejaVuSans-30"/>
       <use x="190.869141" xlink:href="#DejaVuSans-30"/>
      </g>
     </g>
    </g>
    <g id="ytick_8">
     <g id="line2d_16">
      <g>
       <use style="stroke:#000000;stroke-width:0.8;" x="57.6" xlink:href="#mde286a0745" y="53.689121"/>
      </g>
     </g>
     <g id="text_17">
      <!-- 6000 -->
      <g transform="translate(25.15 57.48834)scale(0.1 -0.1)">
       <use xlink:href="#DejaVuSans-36"/>
       <use x="63.623047" xlink:href="#DejaVuSans-30"/>
       <use x="127.246094" xlink:href="#DejaVuSans-30"/>
       <use x="190.869141" xlink:href="#DejaVuSans-30"/>
      </g>
     </g>
    </g>
   </g>
   <g id="line2d_17">
    <path clip-path="url(#p5180ecdaed)" d="M 73.832727 260.421664 
L 74.064789 267.934551 
L 74.528913 271.543259 
L 74.993037 273.765406 
L 75.225098 272.650917 
L 75.45716 275.061527 
L 75.689222 275.826518 
L 75.921284 272.236286 
L 76.153346 275.843339 
L 76.385408 276.045075 
L 76.61747 277.113733 
L 76.849531 276.182237 
L 77.081593 278.046706 
L 77.313655 277.046822 
L 77.545717 277.44028 
L 77.777779 278.769985 
L 78.009841 279.128832 
L 78.241903 278.594145 
L 78.473965 279.603124 
L 78.706026 278.487515 
L 79.17015 280.381384 
L 79.402212 279.555576 
L 79.634274 277.904251 
L 79.866336 279.0947 
L 80.098398 280.936179 
L 80.330459 280.060331 
L 80.562521 281.131422 
L 80.794583 278.784497 
L 81.026645 282.322648 
L 81.490769 281.250088 
L 81.722831 282.936803 
L 81.954892 282.976995 
L 82.419016 281.59134 
L 82.88314 283.870345 
L 83.115202 280.750729 
L 83.347264 281.87182 
L 83.579325 281.894817 
L 83.811387 282.653824 
L 84.043449 284.028849 
L 84.275511 281.521579 
L 84.507573 283.479725 
L 84.739635 283.24471 
L 84.971697 283.735054 
L 85.203759 282.193379 
L 85.43582 284.342104 
L 85.899944 282.78497 
L 86.132006 283.518187 
L 86.364068 284.811311 
L 86.59613 283.363714 
L 86.828192 285.261833 
L 87.060253 283.953157 
L 87.292315 284.697914 
L 87.524377 283.71487 
L 87.756439 285.527112 
L 87.988501 284.963118 
L 88.220563 283.40481 
L 88.452625 285.046401 
L 88.684686 284.400668 
L 88.916748 284.500192 
L 89.14881 284.163072 
L 89.612934 285.010939 
L 89.844996 286.50413 
L 90.077058 285.111668 
L 90.30912 285.117854 
L 90.541181 286.004504 
L 90.773243 283.692374 
L 91.005305 284.651194 
L 91.237367 286.383555 
L 91.469429 285.030004 
L 91.701491 286.407045 
L 92.165614 284.28688 
L 92.397676 284.918313 
L 92.629738 286.578626 
L 92.8618 283.944079 
L 93.093862 285.642039 
L 93.557986 286.029029 
L 94.022109 286.061445 
L 94.254171 287.539829 
L 94.486233 286.794588 
L 94.718295 283.561215 
L 94.950357 284.906212 
L 95.182419 284.878496 
L 95.646542 285.558614 
L 95.878604 285.656818 
L 96.110666 286.723626 
L 96.342728 286.28173 
L 96.57479 284.422053 
L 96.806852 286.7841 
L 97.038914 285.191609 
L 97.270975 286.178941 
L 97.503037 288.47087 
L 97.735099 288.255865 
L 97.967161 287.631777 
L 98.199223 288.656073 
L 98.431285 287.036885 
L 98.663347 286.658002 
L 98.895408 288.486081 
L 99.12747 287.586439 
L 99.359532 287.799727 
L 99.591594 287.18201 
L 99.823656 287.330829 
L 100.28778 287.995551 
L 100.751903 284.554685 
L 100.983965 286.531144 
L 101.216027 286.462721 
L 101.448089 288.061053 
L 101.680151 286.966732 
L 101.912213 287.514499 
L 102.144274 285.851001 
L 102.376336 288.012423 
L 102.608398 286.429437 
L 102.84046 287.752124 
L 103.072522 287.158457 
L 103.304584 285.441836 
L 103.536646 285.715325 
L 103.768708 286.426444 
L 104.000769 287.551676 
L 104.232831 287.966534 
L 104.464893 286.412069 
L 104.929017 286.445226 
L 105.161079 287.795598 
L 105.393141 287.130266 
L 105.625202 285.495958 
L 105.857264 287.584319 
L 106.089326 286.985915 
L 106.321388 288.594595 
L 106.55345 286.521119 
L 107.017574 287.280854 
L 107.249635 287.422751 
L 107.481697 286.843975 
L 107.713759 287.516778 
L 107.945821 286.688765 
L 108.177883 287.911771 
L 108.409945 287.058527 
L 108.642007 287.268587 
L 108.874068 286.622277 
L 109.10613 288.333357 
L 109.338192 286.723802 
L 109.570254 288.318091 
L 109.802316 287.319498 
L 110.034378 287.797476 
L 110.26644 285.390357 
L 110.498502 287.422667 
L 110.730563 285.659728 
L 110.962625 285.878793 
L 111.194687 288.482796 
L 111.426749 288.284441 
L 111.658811 289.150446 
L 111.890873 287.656888 
L 112.122935 288.673933 
L 112.354996 289.028326 
L 112.587058 288.546031 
L 112.81912 288.847375 
L 113.283244 290.017021 
L 113.515306 287.692159 
L 113.747368 287.518484 
L 113.979429 286.945961 
L 114.211491 287.27037 
L 114.443553 287.281768 
L 114.675615 276.274657 
L 114.907677 280.152162 
L 115.139739 281.553339 
L 115.371801 281.098272 
L 115.603862 281.408272 
L 115.835924 285.134822 
L 116.300048 283.288954 
L 116.53211 284.32106 
L 116.996234 284.682315 
L 117.460357 286.150391 
L 117.692419 286.336403 
L 118.388605 286.116101 
L 118.852729 286.990992 
L 119.08479 286.533498 
L 119.316852 285.091206 
L 119.548914 287.36778 
L 119.780976 287.577006 
L 120.013038 286.991419 
L 120.2451 286.745777 
L 120.477162 286.150502 
L 120.709223 286.74871 
L 120.941285 286.856874 
L 121.173347 288.734451 
L 121.405409 287.643124 
L 122.101595 287.247593 
L 122.333657 287.258091 
L 122.565718 287.597604 
L 122.79778 288.617016 
L 123.029842 287.413091 
L 123.261904 288.585847 
L 123.493966 288.471504 
L 123.726028 287.759418 
L 123.95809 288.947553 
L 124.190151 287.021038 
L 124.422213 287.154866 
L 124.654275 286.822563 
L 124.886337 287.803533 
L 125.118399 287.346974 
L 125.350461 287.460673 
L 125.582523 287.989397 
L 126.046646 286.473786 
L 126.51077 288.795152 
L 126.742832 286.785779 
L 127.206956 287.669707 
L 127.439017 288.903524 
L 127.671079 288.377523 
L 127.903141 287.135073 
L 128.135203 288.514833 
L 128.367265 288.745059 
L 128.599327 288.135259 
L 128.831389 289.294256 
L 129.063451 287.908517 
L 129.295512 288.063762 
L 129.527574 289.183172 
L 129.759636 287.905233 
L 129.991698 288.759282 
L 130.22376 287.902409 
L 130.455822 288.014489 
L 130.687884 288.480884 
L 130.919945 288.397142 
L 131.152007 287.974536 
L 131.384069 287.077227 
L 131.848193 288.619554 
L 132.080255 288.876972 
L 132.312317 289.477212 
L 132.544378 289.164126 
L 132.77644 287.711131 
L 133.008502 288.917251 
L 133.240564 287.24426 
L 133.472626 290.181561 
L 133.704688 287.768339 
L 133.93675 289.661057 
L 134.400873 286.773977 
L 134.632935 286.69763 
L 134.864997 287.878997 
L 135.097059 286.49436 
L 135.329121 288.551246 
L 135.561183 289.087691 
L 135.793245 287.992222 
L 136.025306 289.475183 
L 136.257368 289.328158 
L 136.48943 291.026544 
L 136.721492 288.398785 
L 136.953554 289.307041 
L 137.185616 287.387205 
L 137.417678 289.305869 
L 137.649739 288.638671 
L 137.881801 288.866127 
L 138.113863 289.517434 
L 138.345925 289.555565 
L 138.577987 289.118789 
L 138.810049 288.170251 
L 139.042111 288.959768 
L 139.274172 288.78052 
L 139.506234 288.181512 
L 139.738296 289.782929 
L 139.970358 288.440831 
L 140.20242 290.746646 
L 140.434482 288.278935 
L 140.666544 288.733647 
L 140.898605 290.131106 
L 141.130667 289.996131 
L 141.362729 289.458316 
L 141.594791 290.288732 
L 142.058915 288.692421 
L 142.290977 289.281022 
L 142.523039 287.821606 
L 142.7551 287.099834 
L 142.987162 289.041692 
L 143.451286 287.871378 
L 143.683348 289.648929 
L 143.91541 289.510932 
L 144.147472 288.274236 
L 144.379533 288.684502 
L 144.611595 288.705818 
L 144.843657 287.271724 
L 145.075719 290.125316 
L 145.307781 289.523507 
L 145.539843 288.023298 
L 146.003966 289.846676 
L 146.236028 288.392396 
L 146.46809 290.29165 
L 146.700152 289.615305 
L 146.932214 289.926294 
L 147.164276 289.09064 
L 147.396338 289.214538 
L 147.6284 289.165797 
L 147.860461 290.344449 
L 148.092523 287.51111 
L 148.788709 290.066067 
L 149.020771 289.620777 
L 149.252833 290.188225 
L 149.484894 288.10782 
L 149.716956 289.849746 
L 150.18108 289.942434 
L 150.413142 289.241056 
L 150.877266 290.291558 
L 151.109327 289.194631 
L 151.341389 288.763292 
L 151.573451 290.305914 
L 151.805513 287.779762 
L 152.037575 287.941324 
L 152.269637 290.54959 
L 152.501699 289.404401 
L 152.965822 289.674818 
L 153.197884 289.290215 
L 153.429946 291.984864 
L 153.662008 288.327124 
L 153.89407 288.922429 
L 154.126132 290.402599 
L 154.358194 288.837423 
L 154.590255 290.488163 
L 154.822317 288.853459 
L 155.054379 290.050203 
L 155.286441 288.542744 
L 155.518503 289.085856 
L 155.750565 290.888886 
L 155.982627 289.754601 
L 156.214688 289.666116 
L 156.678812 291.016403 
L 156.910874 291.374249 
L 157.142936 289.405834 
L 157.374998 289.684421 
L 157.60706 290.751984 
L 157.839121 288.586517 
L 158.303245 290.313485 
L 158.535307 289.771215 
L 158.767369 290.550372 
L 159.231493 289.672588 
L 159.463554 290.534546 
L 159.695616 287.929618 
L 159.927678 288.804795 
L 160.15974 290.144829 
L 160.391802 289.192938 
L 160.623864 290.627455 
L 160.855926 289.075099 
L 161.087988 292.220804 
L 161.320049 291.525719 
L 161.552111 291.290121 
L 161.784173 288.727955 
L 162.016235 290.397106 
L 162.248297 290.243648 
L 162.480359 288.488374 
L 162.712421 289.674335 
L 162.944482 292.0808 
L 163.176544 289.694231 
L 163.408606 289.261284 
L 163.640668 292.299181 
L 164.104792 288.006639 
L 164.336854 291.187432 
L 164.568915 289.407437 
L 164.800977 289.775708 
L 165.033039 290.895547 
L 165.265101 289.623551 
L 165.497163 289.629084 
L 165.729225 291.272753 
L 165.961287 290.005304 
L 166.193348 290.902862 
L 166.42541 293.594266 
L 166.657472 290.002308 
L 166.889534 291.903383 
L 167.121596 289.998086 
L 167.353658 290.33576 
L 167.58572 291.19111 
L 168.049843 289.452809 
L 168.281905 289.373558 
L 168.513967 289.672192 
L 168.746029 291.458866 
L 168.978091 290.249582 
L 169.210153 290.558406 
L 169.442215 291.333065 
L 169.674276 290.80371 
L 169.906338 291.080588 
L 170.1384 289.990508 
L 170.370462 290.415915 
L 170.602524 290.413172 
L 170.834586 291.422516 
L 171.066648 289.982764 
L 171.298709 291.511754 
L 171.530771 291.6982 
L 171.762833 290.53344 
L 172.226957 290.205062 
L 172.459019 291.532735 
L 172.691081 290.358481 
L 172.923143 290.117279 
L 173.387266 291.387994 
L 173.619328 288.804361 
L 173.85139 290.494177 
L 174.083452 290.129013 
L 174.547576 291.416049 
L 174.779637 290.769593 
L 175.243761 291.73908 
L 175.475823 291.681312 
L 175.939947 289.475491 
L 176.172009 290.948506 
L 176.40407 291.369778 
L 176.636132 290.753394 
L 176.868194 290.745231 
L 177.332318 292.068128 
L 177.56438 291.983981 
L 177.796442 293.086144 
L 178.028503 292.714884 
L 178.260565 291.126268 
L 178.492627 291.701562 
L 178.724689 288.970715 
L 178.956751 290.878544 
L 179.188813 290.208248 
L 179.420875 291.971281 
L 179.652937 289.189708 
L 179.884998 289.753231 
L 180.11706 289.67379 
L 180.349122 289.313388 
L 180.581184 289.832222 
L 180.813246 291.277258 
L 181.27737 290.019653 
L 181.509431 291.387136 
L 181.741493 293.517474 
L 181.973555 290.904016 
L 182.205617 292.284431 
L 182.437679 290.171728 
L 182.669741 291.442225 
L 182.901803 291.924269 
L 183.365926 290.543808 
L 183.597988 292.155095 
L 183.83005 291.076296 
L 184.062112 290.903891 
L 184.294174 291.925736 
L 184.526236 292.094736 
L 184.758297 292.498533 
L 184.990359 290.096431 
L 185.222421 292.777336 
L 185.686545 291.801337 
L 185.918607 291.361559 
L 186.150669 291.782454 
L 186.382731 291.719496 
L 186.614792 293.120738 
L 186.846854 290.059374 
L 187.310978 293.08144 
L 187.775102 290.69552 
L 188.007164 290.880836 
L 188.239225 289.268654 
L 188.471287 289.994909 
L 188.703349 291.543591 
L 188.935411 290.208936 
L 189.167473 291.388372 
L 189.399535 291.679729 
L 189.631597 291.026953 
L 189.863658 291.178845 
L 190.09572 291.042228 
L 190.327782 291.156904 
L 190.559844 291.001106 
L 190.791906 290.191304 
L 191.023968 286.879991 
L 191.25603 292.14881 
L 191.488091 289.929649 
L 191.720153 291.141341 
L 191.952215 290.25435 
L 192.184277 293.054847 
L 192.416339 291.141652 
L 192.648401 290.803515 
L 192.880463 291.897252 
L 193.112525 291.558558 
L 193.344586 289.523473 
L 193.576648 291.658704 
L 193.80871 292.531578 
L 194.040772 289.235747 
L 194.272834 291.963637 
L 194.504896 291.119369 
L 194.736958 293.091589 
L 194.969019 290.097829 
L 195.433143 292.564908 
L 195.665205 291.47958 
L 195.897267 291.030338 
L 196.129329 292.086475 
L 196.361391 291.812506 
L 196.593452 292.241639 
L 196.825514 291.299295 
L 197.057576 292.545781 
L 197.289638 291.788298 
L 197.5217 290.460506 
L 197.985824 290.720206 
L 198.217886 291.49768 
L 198.449947 291.52488 
L 198.682009 292.146321 
L 198.914071 292.127864 
L 199.146133 292.772316 
L 199.378195 292.387207 
L 199.610257 293.618845 
L 199.842319 290.666357 
L 200.306442 288.940089 
L 200.538504 292.549527 
L 201.002628 289.488687 
L 201.23469 292.25323 
L 201.466752 289.247626 
L 201.698813 291.710151 
L 201.930875 290.964272 
L 202.162937 291.050101 
L 202.394999 290.298038 
L 202.859123 292.808952 
L 203.091185 290.816556 
L 203.323246 291.299993 
L 203.555308 289.298482 
L 203.78737 291.136152 
L 204.019432 290.216845 
L 204.251494 290.567615 
L 204.483556 292.209042 
L 204.715618 291.615127 
L 204.94768 291.346536 
L 205.179741 291.386718 
L 205.411803 292.221621 
L 205.643865 291.540298 
L 205.875927 288.622963 
L 206.107989 291.371251 
L 206.572113 289.329703 
L 206.804174 291.65722 
L 207.036236 289.931708 
L 207.50036 292.985425 
L 207.732422 291.298801 
L 207.964484 292.751172 
L 208.196546 293.402583 
L 208.660669 291.235225 
L 208.892731 292.793292 
L 209.124793 291.775239 
L 209.356855 291.904995 
L 209.588917 289.856282 
L 209.820979 291.476283 
L 210.05304 289.815069 
L 210.285102 293.014659 
L 210.517164 291.54308 
L 210.749226 291.335337 
L 210.981288 292.287716 
L 211.21335 292.574115 
L 211.445412 291.378812 
L 211.677474 291.834304 
L 211.909535 290.141276 
L 212.141597 293.091798 
L 212.373659 292.437531 
L 212.837783 289.882588 
L 213.069845 290.58497 
L 213.301907 292.989374 
L 213.533968 291.511577 
L 213.76603 292.260693 
L 213.998092 291.039171 
L 214.230154 290.853279 
L 214.462216 290.864465 
L 214.694278 292.016581 
L 214.92634 290.304748 
L 215.158401 291.013808 
L 215.390463 290.668333 
L 215.854587 292.69889 
L 216.086649 290.055757 
L 216.550773 291.157024 
L 216.782834 291.002974 
L 217.014896 288.786983 
L 217.246958 292.449109 
L 217.47902 290.092009 
L 217.711082 291.585362 
L 217.943144 291.692383 
L 218.175206 291.198205 
L 218.407268 293.012921 
L 218.639329 292.75165 
L 219.103453 293.563077 
L 219.335515 291.345927 
L 219.567577 292.442831 
L 219.799639 292.096075 
L 220.031701 290.62774 
L 220.263762 291.808174 
L 220.495824 291.707828 
L 220.727886 292.167901 
L 221.19201 290.52028 
L 221.424072 293.021178 
L 221.656134 291.133637 
L 222.120257 292.44885 
L 222.352319 291.598769 
L 222.584381 292.390523 
L 222.816443 289.616072 
L 223.048505 291.380976 
L 223.512629 292.590482 
L 223.74469 290.565387 
L 223.976752 291.379712 
L 224.208814 291.291615 
L 224.440876 293.075125 
L 224.672938 290.858953 
L 224.905 292.130176 
L 225.137062 291.838989 
L 225.369123 291.077877 
L 225.833247 292.968881 
L 226.297371 290.831231 
L 226.529433 292.255638 
L 226.993556 293.052385 
L 227.225618 291.181734 
L 227.45768 292.823499 
L 227.689742 291.698237 
L 227.921804 291.87592 
L 228.153866 292.203118 
L 228.385928 292.792882 
L 228.617989 291.653667 
L 228.850051 291.320445 
L 229.082113 291.271433 
L 229.314175 290.893571 
L 229.546237 291.801604 
L 229.778299 291.246087 
L 230.010361 291.211659 
L 230.242423 290.404013 
L 230.474484 292.481216 
L 230.706546 292.050802 
L 230.938608 290.939757 
L 231.17067 292.470469 
L 231.402732 292.00702 
L 231.634794 293.032915 
L 231.866856 290.410171 
L 232.098917 290.471177 
L 232.563041 292.372262 
L 232.795103 291.271146 
L 233.027165 291.759202 
L 233.259227 291.673103 
L 233.491289 292.781051 
L 233.72335 292.087671 
L 233.955412 290.294709 
L 234.419536 291.12844 
L 234.651598 292.147054 
L 235.115722 291.018264 
L 235.579845 292.235222 
L 235.811907 290.440606 
L 236.043969 292.923014 
L 236.508093 289.756352 
L 236.740155 292.150614 
L 236.972217 291.150367 
L 237.204278 292.209419 
L 237.668402 291.734575 
L 238.132526 292.728934 
L 238.364588 291.224834 
L 238.828711 293.566893 
L 239.060773 292.075159 
L 239.292835 291.896317 
L 239.524897 293.246159 
L 239.756959 291.433049 
L 239.989021 293.511567 
L 240.221083 293.515446 
L 240.453144 292.687851 
L 240.685206 290.940621 
L 240.917268 292.770595 
L 241.14933 292.157309 
L 241.381392 292.058085 
L 241.613454 291.553063 
L 241.845516 292.184783 
L 242.077577 290.995995 
L 242.309639 292.127308 
L 242.541701 289.664815 
L 242.773763 292.201927 
L 243.237887 290.762228 
L 243.469949 289.26368 
L 243.702011 292.326789 
L 243.934072 292.301429 
L 244.166134 292.725779 
L 244.398196 292.518117 
L 244.630258 291.720897 
L 244.86232 293.92576 
L 245.094382 291.241463 
L 245.326444 290.932504 
L 245.558505 292.43707 
L 245.790567 290.431466 
L 246.254691 292.357241 
L 246.486753 291.761761 
L 246.718815 293.853327 
L 246.950877 292.743172 
L 247.182938 292.321958 
L 247.415 292.951286 
L 247.647062 291.606522 
L 247.879124 291.839189 
L 248.111186 293.021197 
L 248.343248 290.257462 
L 248.57531 292.171275 
L 248.807371 290.837427 
L 249.039433 291.936115 
L 249.271495 291.014067 
L 249.503557 291.63666 
L 249.735619 292.857866 
L 249.967681 292.12158 
L 250.199743 290.577704 
L 250.431805 291.838385 
L 250.663866 289.637657 
L 250.895928 292.187503 
L 251.12799 291.70883 
L 251.360052 289.874799 
L 251.592114 290.933221 
L 251.824176 291.312204 
L 252.056238 292.396284 
L 252.288299 292.722222 
L 252.520361 291.706634 
L 252.752423 292.696699 
L 252.984485 292.275333 
L 253.216547 292.500811 
L 253.680671 291.561813 
L 253.912732 290.830227 
L 254.144794 291.888716 
L 254.376856 293.532539 
L 254.608918 290.777362 
L 254.84098 292.794687 
L 255.073042 290.534499 
L 255.305104 292.158526 
L 255.769227 291.366793 
L 256.001289 292.395151 
L 256.233351 292.754732 
L 256.465413 292.384029 
L 256.697475 292.939651 
L 256.929537 292.182573 
L 257.161599 292.474639 
L 257.39366 293.73358 
L 257.625722 290.987279 
L 257.857784 292.949867 
L 258.089846 292.703361 
L 258.321908 289.877252 
L 258.55397 292.193 
L 258.786032 290.394037 
L 259.018093 292.775193 
L 259.250155 292.088048 
L 259.482217 292.351758 
L 259.714279 291.845993 
L 259.946341 292.097772 
L 260.178403 289.541564 
L 260.410465 289.909345 
L 260.642526 290.869418 
L 260.874588 290.752314 
L 261.338712 292.510064 
L 261.570774 291.37904 
L 261.802836 292.02567 
L 262.034898 291.824192 
L 262.26696 292.570407 
L 262.499021 291.139711 
L 262.731083 291.77465 
L 262.963145 291.795136 
L 263.195207 290.827538 
L 263.427269 289.31992 
L 263.659331 291.69443 
L 263.891393 291.750918 
L 264.123454 292.743089 
L 264.355516 292.847784 
L 264.587578 289.930246 
L 264.81964 292.112819 
L 265.051702 292.9524 
L 265.283764 289.601193 
L 265.515826 291.98549 
L 265.747887 291.629678 
L 265.979949 290.235045 
L 266.212011 292.142502 
L 266.444073 291.053063 
L 266.676135 292.439832 
L 266.908197 291.766171 
L 267.140259 292.564209 
L 267.37232 292.761338 
L 267.604382 292.628609 
L 267.836444 293.307233 
L 268.300568 292.655821 
L 268.53263 292.821072 
L 268.764692 292.255429 
L 268.996754 292.329089 
L 269.228815 292.793618 
L 269.460877 291.29775 
L 269.692939 292.590336 
L 269.925001 292.326512 
L 270.157063 291.756702 
L 270.389125 291.897165 
L 270.621187 291.866369 
L 270.853248 290.401474 
L 271.08531 292.029694 
L 271.317372 291.171361 
L 271.549434 291.774887 
L 272.013558 290.756798 
L 272.24562 291.218519 
L 272.477681 291.405432 
L 272.709743 292.929027 
L 272.941805 291.066795 
L 273.173867 293.015206 
L 273.637991 291.571459 
L 273.870053 292.052101 
L 274.102114 292.015815 
L 274.334176 291.266776 
L 274.566238 292.763258 
L 274.7983 289.689288 
L 275.262424 293.464651 
L 275.494486 291.410128 
L 275.726548 291.157016 
L 275.958609 291.839301 
L 276.190671 291.945159 
L 276.422733 292.733212 
L 276.654795 291.681452 
L 276.886857 291.451345 
L 277.118919 292.203752 
L 277.350981 291.931732 
L 277.583042 292.718324 
L 277.815104 293.079276 
L 278.047166 292.660741 
L 278.279228 290.819103 
L 278.743352 292.720404 
L 278.975414 289.843354 
L 279.207475 292.633501 
L 279.439537 293.368769 
L 279.903661 291.788375 
L 280.135723 292.223814 
L 280.367785 290.407445 
L 280.599847 292.839433 
L 281.06397 290.107808 
L 281.296032 292.039775 
L 281.528094 289.775468 
L 281.760156 291.829405 
L 281.992218 292.10936 
L 282.22428 291.579291 
L 282.456342 291.509202 
L 282.688403 292.060245 
L 282.920465 291.795699 
L 283.152527 290.383821 
L 283.616651 293.086191 
L 283.848713 291.510175 
L 284.080775 293.542435 
L 284.312836 290.114023 
L 284.544898 291.952328 
L 284.77696 292.379262 
L 285.009022 292.303727 
L 285.241084 293.577167 
L 285.705208 290.368236 
L 285.937269 293.996224 
L 286.169331 291.94336 
L 286.401393 291.009385 
L 286.633455 291.80046 
L 286.865517 293.28915 
L 287.097579 292.123571 
L 287.329641 292.040553 
L 287.561703 290.888547 
L 288.025826 291.178861 
L 288.257888 294.30088 
L 288.48995 292.502308 
L 288.722012 291.785625 
L 288.954074 293.110184 
L 289.186136 292.381409 
L 289.418197 292.518621 
L 289.650259 291.537719 
L 289.882321 292.095664 
L 290.114383 291.337862 
L 290.578507 292.637416 
L 290.810569 288.454816 
L 291.506754 292.792006 
L 291.970878 292.692874 
L 292.20294 291.846053 
L 292.435002 293.401067 
L 292.667063 291.092953 
L 292.899125 291.873705 
L 293.131187 291.180709 
L 293.363249 292.889718 
L 293.595311 291.431289 
L 293.827373 290.807999 
L 294.059435 293.178602 
L 294.523558 291.459832 
L 294.75562 292.637765 
L 294.987682 291.878918 
L 295.219744 289.851442 
L 295.451806 291.542284 
L 295.683868 291.003456 
L 295.91593 293.490815 
L 296.147991 292.026095 
L 296.380053 292.494434 
L 296.844177 291.857109 
L 297.076239 290.980938 
L 297.308301 290.788481 
L 297.540363 291.632598 
L 297.772424 290.780563 
L 298.004486 292.500359 
L 298.236548 291.595718 
L 298.46861 292.456296 
L 298.700672 285.093131 
L 299.164796 291.966344 
L 299.628919 292.220395 
L 299.860981 292.565508 
L 300.093043 292.557401 
L 300.325105 290.773715 
L 300.557167 292.953337 
L 300.789229 292.418571 
L 301.021291 291.542394 
L 301.253352 293.377425 
L 301.485414 290.960227 
L 301.717476 292.388177 
L 301.949538 289.148068 
L 302.1816 292.156534 
L 302.645724 290.912492 
L 302.877785 292.375008 
L 303.109847 290.639286 
L 303.341909 290.032007 
L 303.573971 292.397481 
L 303.806033 290.147745 
L 304.038095 292.186954 
L 304.270157 291.0595 
L 304.502218 292.25179 
L 304.73428 292.017518 
L 304.966342 290.078043 
L 305.198404 290.778154 
L 305.430466 292.50066 
L 305.662528 291.883952 
L 305.89459 292.275294 
L 306.126652 292.006963 
L 306.358713 292.547293 
L 306.590775 292.074658 
L 306.822837 290.989312 
L 307.286961 293.242401 
L 307.519023 291.933787 
L 307.751085 291.590801 
L 308.215208 292.396456 
L 308.44727 290.050359 
L 308.679332 291.603849 
L 309.143456 290.546894 
L 309.375518 291.592169 
L 309.607579 290.689072 
L 309.839641 293.416995 
L 310.071703 292.031301 
L 310.303765 292.783544 
L 310.535827 292.525545 
L 310.767889 293.009982 
L 310.999951 290.657443 
L 311.232012 292.047663 
L 311.464074 291.349263 
L 311.696136 291.464245 
L 311.928198 289.036127 
L 312.16026 292.813996 
L 312.392322 291.638121 
L 312.624384 291.68378 
L 312.856446 292.350242 
L 313.088507 292.058224 
L 313.320569 293.219214 
L 313.552631 290.739336 
L 314.016755 292.004063 
L 314.248817 291.674907 
L 314.71294 292.371781 
L 314.945002 291.929432 
L 315.177064 292.132693 
L 315.409126 291.986359 
L 315.641188 290.895189 
L 315.87325 291.870367 
L 316.105312 294.097776 
L 316.337373 291.277211 
L 316.569435 290.994765 
L 316.801497 291.126991 
L 317.033559 290.80229 
L 317.265621 291.000067 
L 317.497683 292.636709 
L 317.729745 290.738627 
L 317.961806 292.436545 
L 318.193868 292.425363 
L 318.42593 292.030328 
L 318.657992 293.031306 
L 318.890054 291.903871 
L 319.122116 292.342491 
L 319.354178 292.252095 
L 319.58624 292.59228 
L 319.818301 291.011102 
L 320.050363 293.0009 
L 320.282425 291.362019 
L 320.514487 291.950687 
L 320.746549 293.579622 
L 320.978611 292.565075 
L 321.210673 292.505048 
L 321.442734 293.367295 
L 321.674796 291.521759 
L 321.906858 291.941427 
L 322.13892 293.361357 
L 322.370982 293.602338 
L 322.603044 291.56327 
L 322.835106 291.772355 
L 323.067167 291.215424 
L 323.299229 290.947915 
L 323.531291 292.936289 
L 323.763353 292.466915 
L 323.995415 292.685297 
L 324.227477 291.870854 
L 324.6916 293.836912 
L 324.923662 291.345943 
L 325.387786 293.580539 
L 325.619848 289.836688 
L 325.85191 291.917191 
L 326.083972 292.764543 
L 326.316034 291.300942 
L 326.548095 291.180904 
L 326.780157 293.132277 
L 327.012219 293.642975 
L 327.244281 291.019539 
L 327.708405 292.525615 
L 327.940467 291.39586 
L 328.172528 291.28122 
L 328.40459 292.722074 
L 328.636652 292.370261 
L 328.868714 291.317041 
L 329.100776 293.054298 
L 329.332838 292.101023 
L 329.5649 291.690261 
L 329.796961 292.339602 
L 330.029023 291.119091 
L 330.493147 291.362176 
L 330.725209 292.391632 
L 330.957271 291.819122 
L 331.189333 294.427809 
L 331.421395 291.132759 
L 331.653456 290.618158 
L 332.11758 293.817959 
L 332.581704 289.719156 
L 332.813766 291.734708 
L 333.045828 292.358411 
L 333.277889 291.1697 
L 333.509951 292.567036 
L 333.742013 291.039874 
L 333.974075 292.733629 
L 334.206137 292.388396 
L 334.438199 293.167948 
L 334.670261 289.972784 
L 334.902322 290.447784 
L 335.134384 292.419755 
L 335.366446 292.386205 
L 335.598508 292.083392 
L 335.83057 291.542062 
L 336.062632 291.438671 
L 336.294694 292.537733 
L 336.526755 291.291154 
L 336.758817 292.822864 
L 336.990879 292.725495 
L 337.222941 291.3175 
L 337.455003 291.385344 
L 337.687065 293.998481 
L 337.919127 292.567968 
L 338.151189 292.099195 
L 338.615312 293.259737 
L 338.847374 291.338382 
L 339.079436 291.057694 
L 339.311498 291.854789 
L 339.54356 293.305411 
L 339.775622 292.72035 
L 340.007683 291.38276 
L 340.239745 291.911139 
L 340.703869 291.911914 
L 340.935931 290.939657 
L 341.167993 291.488348 
L 341.400055 291.286855 
L 341.632116 291.40782 
L 341.864178 292.398229 
L 342.328302 291.429935 
L 342.560364 290.1202 
L 342.792426 290.718854 
L 343.024488 293.12897 
L 343.256549 291.655523 
L 343.488611 290.961804 
L 343.720673 292.830721 
L 343.952735 291.527559 
L 344.184797 291.2169 
L 344.648921 292.338598 
L 344.880983 292.549015 
L 345.113044 292.142775 
L 345.345106 291.277251 
L 345.577168 292.000088 
L 345.80923 291.223869 
L 346.041292 292.663669 
L 346.273354 292.282719 
L 346.505416 290.633897 
L 346.969539 292.409248 
L 347.433663 291.315931 
L 347.665725 289.490394 
L 347.897787 292.876704 
L 348.129849 291.336183 
L 348.36191 293.962482 
L 348.593972 293.18818 
L 348.826034 291.476771 
L 349.058096 291.573405 
L 349.290158 290.42024 
L 349.52222 292.459521 
L 349.754282 290.603902 
L 350.218405 291.971493 
L 350.450467 291.380033 
L 350.682529 292.242579 
L 351.378715 291.564196 
L 351.610777 292.679441 
L 351.842838 292.955063 
L 352.0749 292.948009 
L 352.306962 292.560956 
L 352.771086 291.039809 
L 353.003148 290.879483 
L 353.23521 291.687708 
L 353.467271 293.097591 
L 353.699333 292.432725 
L 353.931395 292.170038 
L 354.163457 291.64771 
L 354.395519 291.607941 
L 354.627581 295.210749 
L 354.859643 292.528924 
L 355.091704 293.511195 
L 355.555828 292.157776 
L 355.78789 293.807647 
L 356.019952 290.961612 
L 356.484076 292.007016 
L 356.716138 293.026556 
L 356.948199 290.672006 
L 357.412323 291.653413 
L 357.644385 292.993889 
L 357.876447 291.164329 
L 358.108509 293.895142 
L 358.340571 292.121788 
L 358.572632 292.663 
L 358.804694 291.696122 
L 359.036756 289.695667 
L 359.268818 294.036178 
L 359.50088 293.629241 
L 359.965004 290.716355 
L 360.197065 291.555947 
L 360.429127 293.10894 
L 360.661189 293.419116 
L 360.893251 293.436932 
L 361.125313 293.793944 
L 361.357375 289.236725 
L 361.821498 292.286835 
L 362.05356 292.637126 
L 362.285622 290.295577 
L 362.517684 291.50795 
L 362.749746 291.936243 
L 362.981808 291.557259 
L 363.21387 293.394017 
L 363.445932 291.658436 
L 363.677993 293.93508 
L 363.910055 294.418777 
L 364.142117 291.775533 
L 364.374179 291.853726 
L 364.606241 293.089374 
L 365.070365 292.327817 
L 365.302426 294.067563 
L 365.534488 291.761996 
L 365.76655 291.190147 
L 365.998612 292.29911 
L 366.230674 291.790717 
L 366.462736 292.071483 
L 366.694798 291.728798 
L 366.926859 290.412599 
L 367.390983 293.243778 
L 367.623045 293.678194 
L 367.855107 291.318235 
L 368.087169 292.426067 
L 368.319231 294.291263 
L 368.551292 292.806748 
L 368.783354 293.769727 
L 369.015416 289.936469 
L 369.247478 289.792228 
L 369.47954 292.95819 
L 369.711602 292.618336 
L 369.943664 291.672132 
L 370.175726 294.330683 
L 370.407787 291.225885 
L 370.639849 289.86166 
L 370.871911 292.103899 
L 371.103973 293.122053 
L 371.336035 291.373493 
L 371.800159 293.427284 
L 372.03222 292.920343 
L 372.264282 291.047491 
L 372.496344 292.08218 
L 372.728406 292.006631 
L 372.960468 292.915175 
L 373.19253 292.827113 
L 373.424592 292.082903 
L 373.656653 291.907342 
L 373.888715 294.528008 
L 374.120777 292.478343 
L 374.352839 291.619858 
L 374.584901 293.542442 
L 374.816963 293.608313 
L 375.049025 291.226443 
L 375.281086 290.701882 
L 375.74521 292.09048 
L 375.977272 292.123148 
L 376.209334 293.014602 
L 376.441396 293.017329 
L 376.673458 291.354802 
L 376.90552 293.298092 
L 377.137581 291.718328 
L 377.601705 290.656632 
L 377.833767 292.286427 
L 378.065829 292.298003 
L 378.297891 292.069207 
L 378.529953 293.260995 
L 378.762014 291.753509 
L 378.994076 292.802002 
L 379.226138 291.349718 
L 379.4582 293.902875 
L 379.922324 291.272751 
L 380.154386 292.680358 
L 380.386447 290.637991 
L 380.850571 292.034444 
L 381.314695 292.871793 
L 381.546757 293.027363 
L 381.778819 291.379132 
L 382.01088 292.441164 
L 382.242942 292.387994 
L 382.475004 291.828002 
L 382.707066 291.637099 
L 382.939128 291.826416 
L 383.17119 291.049911 
L 383.403252 292.914958 
L 383.635314 292.907263 
L 383.867375 292.349932 
L 384.099437 293.363317 
L 384.331499 292.409004 
L 384.563561 292.594467 
L 384.795623 292.303704 
L 385.027685 292.865631 
L 385.259747 291.767301 
L 385.491808 292.192072 
L 385.72387 291.386037 
L 386.187994 291.219973 
L 386.420056 293.032181 
L 386.652118 291.224583 
L 386.88418 292.271428 
L 387.116241 292.431394 
L 387.348303 293.984555 
L 387.580365 292.770398 
L 387.812427 290.299013 
L 388.044489 292.783912 
L 388.276551 292.963691 
L 388.508613 290.156195 
L 388.740675 290.983048 
L 388.972736 294.244776 
L 389.204798 295.488 
L 389.43686 289.286807 
L 389.900984 291.292459 
L 390.133046 292.408287 
L 390.365108 292.667448 
L 390.597169 292.59118 
L 390.829231 291.185046 
L 391.061293 290.690126 
L 391.293355 293.091343 
L 391.525417 292.363329 
L 391.757479 293.338681 
L 391.989541 293.783919 
L 392.221602 291.067421 
L 392.453664 292.721991 
L 392.685726 290.476295 
L 392.917788 293.037607 
L 393.14985 292.629659 
L 393.381912 293.348508 
L 393.613974 290.193384 
L 394.078097 293.278988 
L 394.310159 291.875951 
L 394.542221 291.41064 
L 394.774283 290.14219 
L 395.006345 290.462566 
L 395.238407 292.592538 
L 395.470469 289.698955 
L 395.70253 291.924723 
L 396.166654 292.714285 
L 396.398716 293.882188 
L 396.630778 291.672206 
L 396.86284 290.795833 
L 397.094902 292.559629 
L 397.326963 290.844887 
L 397.559025 292.830944 
L 397.791087 293.827908 
L 398.023149 292.040789 
L 398.255211 293.096601 
L 398.487273 292.456935 
L 398.487273 292.456935 
" style="fill:none;stroke:#1f77b4;stroke-linecap:square;stroke-width:1.5;"/>
   </g>
   <g id="line2d_18">
    <path clip-path="url(#p5180ecdaed)" d="M 73.832727 263.741627 
L 74.064789 270.637357 
L 74.296851 269.319877 
L 74.528913 272.187198 
L 74.993037 273.386205 
L 75.225098 274.498806 
L 75.45716 274.655833 
L 75.689222 275.580209 
L 75.921284 274.578084 
L 76.153346 276.376392 
L 76.385408 273.588454 
L 76.61747 277.56797 
L 76.849531 275.698569 
L 77.313655 278.591548 
L 77.777779 277.800014 
L 78.009841 279.246915 
L 78.241903 278.556044 
L 78.473965 279.511864 
L 78.938088 279.836872 
L 79.402212 281.096621 
L 79.634274 279.47664 
L 79.866336 280.154224 
L 80.098398 280.339916 
L 80.330459 280.823486 
L 80.562521 280.699721 
L 80.794583 281.066682 
L 81.026645 281.061831 
L 81.258707 280.938413 
L 81.490769 280.627464 
L 81.954892 282.062905 
L 82.186954 280.645267 
L 82.419016 282.134131 
L 82.651078 282.320562 
L 82.88314 283.062751 
L 83.115202 282.456833 
L 83.347264 282.524443 
L 83.579325 283.222556 
L 84.043449 282.427801 
L 84.275511 283.576608 
L 84.507573 284.09857 
L 84.739635 284.154915 
L 84.971697 283.624685 
L 85.203759 282.432294 
L 85.43582 283.095204 
L 85.667882 283.148275 
L 85.899944 284.970257 
L 86.132006 284.659673 
L 86.364068 282.033167 
L 86.59613 283.717044 
L 86.828192 284.434624 
L 87.060253 283.286307 
L 87.292315 283.674595 
L 87.524377 283.196633 
L 87.756439 284.493366 
L 87.988501 283.808757 
L 88.220563 284.941341 
L 88.452625 284.93466 
L 88.684686 284.617129 
L 88.916748 285.506556 
L 89.380872 283.845391 
L 89.612934 284.100351 
L 89.844996 285.13644 
L 90.077058 284.117735 
L 90.541181 284.32635 
L 90.773243 285.117879 
L 91.005305 284.742211 
L 91.237367 283.200236 
L 91.469429 285.9322 
L 91.701491 284.653476 
L 91.933553 284.305671 
L 92.397676 285.537634 
L 92.629738 285.59757 
L 92.8618 285.502195 
L 93.093862 281.516294 
L 93.325924 284.665732 
L 93.790047 285.65884 
L 94.022109 285.25861 
L 94.254171 284.415552 
L 94.486233 285.537624 
L 94.718295 285.965023 
L 94.950357 284.725373 
L 95.182419 286.526344 
L 95.41448 284.883489 
L 95.646542 286.096438 
L 95.878604 285.55204 
L 96.110666 285.634685 
L 96.342728 286.093823 
L 96.57479 285.882247 
L 96.806852 284.796162 
L 97.038914 286.630217 
L 97.270975 287.431861 
L 97.503037 286.757269 
L 97.735099 287.011392 
L 98.199223 286.457042 
L 98.663347 287.32435 
L 98.895408 286.078982 
L 99.12747 286.983423 
L 99.359532 286.067653 
L 99.591594 287.015839 
L 99.823656 286.687136 
L 100.055718 286.699539 
L 100.28778 285.832617 
L 100.519841 286.851268 
L 100.983965 285.983534 
L 101.216027 285.862427 
L 101.448089 287.083576 
L 101.680151 285.806139 
L 101.912213 287.285602 
L 102.144274 287.110986 
L 102.376336 286.751415 
L 102.608398 284.993045 
L 102.84046 286.818838 
L 103.072522 286.072982 
L 103.304584 286.233941 
L 103.536646 286.579275 
L 103.768708 286.272644 
L 104.000769 288.162112 
L 104.232831 286.482413 
L 104.464893 286.817625 
L 104.696955 286.085197 
L 104.929017 287.808062 
L 105.161079 286.577691 
L 105.625202 286.846847 
L 105.857264 287.384745 
L 106.089326 286.159537 
L 106.321388 287.433053 
L 106.55345 286.823872 
L 106.785512 288.070036 
L 107.017574 286.04582 
L 107.249635 288.09718 
L 107.481697 286.975744 
L 107.713759 286.970971 
L 107.945821 286.518454 
L 108.177883 287.620117 
L 108.409945 287.413547 
L 108.642007 287.409836 
L 108.874068 286.162088 
L 109.10613 286.7549 
L 109.338192 286.862904 
L 109.570254 286.700376 
L 109.802316 286.984883 
L 110.034378 286.930494 
L 110.26644 288.064944 
L 110.498502 286.65979 
L 110.962625 287.559125 
L 111.194687 286.655978 
L 111.426749 287.397449 
L 111.658811 286.167232 
L 111.890873 287.662792 
L 112.354996 287.363111 
L 112.587058 288.111441 
L 112.81912 286.775699 
L 113.051182 287.924663 
L 113.283244 288.367983 
L 113.515306 286.551863 
L 113.747368 286.380404 
L 113.979429 287.591363 
L 114.211491 286.22262 
L 114.443553 286.748758 
L 114.675615 277.860318 
L 114.907677 281.836709 
L 115.139739 281.636722 
L 115.371801 282.846888 
L 115.603862 283.03886 
L 115.835924 284.362815 
L 116.067986 284.023564 
L 116.300048 284.90299 
L 116.53211 284.013889 
L 116.764172 284.088267 
L 116.996234 285.283568 
L 117.228296 284.452445 
L 117.460357 285.917937 
L 117.692419 286.603059 
L 117.924481 286.394154 
L 118.156543 284.886374 
L 118.620667 286.790102 
L 118.852729 287.098668 
L 119.08479 286.958028 
L 119.316852 286.07954 
L 119.548914 287.712675 
L 119.780976 285.395618 
L 120.013038 287.12255 
L 120.2451 286.764033 
L 120.477162 284.87049 
L 120.709223 287.233374 
L 120.941285 287.397415 
L 121.173347 286.246953 
L 121.405409 287.748597 
L 121.637471 286.41516 
L 121.869533 288.324855 
L 122.101595 285.23869 
L 122.79778 288.293081 
L 123.029842 288.106409 
L 123.261904 286.08748 
L 123.493966 287.353697 
L 123.726028 287.15015 
L 123.95809 286.440813 
L 124.190151 288.110305 
L 124.422213 286.595031 
L 124.654275 288.588722 
L 124.886337 288.178957 
L 125.118399 287.426266 
L 125.350461 286.158852 
L 125.582523 287.767195 
L 125.814584 285.846733 
L 126.046646 288.229035 
L 126.278708 286.60456 
L 126.51077 288.036379 
L 126.742832 287.620021 
L 126.974894 288.460271 
L 127.439017 287.746709 
L 127.671079 288.624641 
L 127.903141 288.776428 
L 128.135203 287.611186 
L 128.599327 287.934771 
L 128.831389 288.285629 
L 129.063451 287.116325 
L 129.295512 288.364662 
L 129.759636 287.938831 
L 129.991698 287.237003 
L 130.22376 287.202559 
L 130.455822 286.761122 
L 130.687884 288.444166 
L 130.919945 288.136092 
L 131.152007 287.469916 
L 131.384069 287.33257 
L 131.616131 286.777836 
L 131.848193 288.052932 
L 132.080255 287.621306 
L 132.312317 288.760293 
L 132.544378 289.102798 
L 132.77644 287.178643 
L 133.008502 287.702949 
L 133.240564 287.852852 
L 133.472626 288.394958 
L 133.704688 287.375197 
L 134.168811 288.266767 
L 134.400873 287.289313 
L 134.864997 288.420655 
L 135.097059 289.299501 
L 135.329121 287.397263 
L 136.025306 288.724221 
L 136.257368 288.53445 
L 136.48943 287.909961 
L 136.721492 286.869477 
L 137.185616 290.037888 
L 137.417678 285.96682 
L 137.649739 287.880592 
L 137.881801 288.82718 
L 138.113863 287.711534 
L 138.345925 287.489998 
L 138.577987 287.54274 
L 138.810049 287.757768 
L 139.042111 287.796874 
L 139.274172 289.404414 
L 139.506234 286.648338 
L 139.738296 288.382159 
L 139.970358 288.28853 
L 140.20242 289.14349 
L 140.434482 288.808658 
L 140.666544 289.110184 
L 141.130667 287.331017 
L 141.362729 288.689666 
L 141.594791 288.299423 
L 142.058915 288.412774 
L 142.290977 288.484189 
L 142.523039 288.341614 
L 142.7551 289.599918 
L 142.987162 289.256836 
L 143.219224 288.453187 
L 143.451286 288.178512 
L 143.91541 287.334218 
L 144.147472 288.221817 
L 144.379533 288.235208 
L 144.611595 288.450796 
L 144.843657 287.709998 
L 145.075719 288.066609 
L 145.307781 287.975055 
L 145.539843 287.042098 
L 145.771905 287.127963 
L 146.003966 288.458942 
L 146.236028 288.826335 
L 146.46809 288.600449 
L 146.700152 288.664957 
L 146.932214 288.320793 
L 147.164276 289.20697 
L 147.396338 288.329021 
L 147.6284 288.294659 
L 147.860461 289.915852 
L 148.092523 288.758397 
L 148.324585 289.026138 
L 148.556647 287.922546 
L 148.788709 288.384447 
L 149.020771 288.45309 
L 149.252833 288.921163 
L 149.484894 288.798494 
L 149.716956 288.199791 
L 149.949018 289.920902 
L 150.18108 288.442582 
L 150.413142 288.987667 
L 150.645204 288.609539 
L 150.877266 287.976882 
L 151.109327 289.722557 
L 151.341389 289.768125 
L 151.573451 288.500859 
L 151.805513 289.392114 
L 152.037575 288.509511 
L 152.269637 289.939122 
L 152.501699 288.824896 
L 152.965822 290.380308 
L 153.197884 288.89841 
L 153.429946 289.472671 
L 153.662008 288.863408 
L 153.89407 289.180667 
L 154.126132 289.79872 
L 154.358194 289.216618 
L 154.590255 289.114827 
L 154.822317 287.647391 
L 155.054379 288.65306 
L 155.286441 287.806941 
L 155.750565 289.579138 
L 155.982627 289.368625 
L 156.214688 290.260422 
L 156.678812 289.028794 
L 156.910874 289.008779 
L 157.142936 289.760496 
L 157.374998 289.414712 
L 157.60706 289.383083 
L 157.839121 288.837768 
L 158.071183 288.750189 
L 158.303245 289.071588 
L 158.535307 288.102446 
L 158.999431 291.120607 
L 159.463554 288.585235 
L 159.695616 288.495804 
L 159.927678 289.938312 
L 160.15974 289.039719 
L 160.391802 289.385724 
L 160.623864 290.508635 
L 161.087988 288.448193 
L 161.320049 291.139832 
L 161.552111 290.521778 
L 161.784173 288.139648 
L 162.016235 289.993356 
L 162.248297 288.135633 
L 162.480359 289.580655 
L 162.712421 288.742822 
L 162.944482 290.024669 
L 163.176544 289.765226 
L 163.408606 288.345722 
L 163.640668 289.726983 
L 163.87273 290.308887 
L 164.104792 287.352316 
L 164.336854 289.575055 
L 164.800977 288.447724 
L 165.033039 289.746287 
L 165.265101 289.481182 
L 165.497163 290.299298 
L 165.729225 289.210084 
L 165.961287 289.277395 
L 166.193348 289.864722 
L 166.42541 288.517282 
L 166.657472 290.11126 
L 167.121596 288.365619 
L 167.353658 290.911036 
L 167.58572 289.487047 
L 167.817782 289.061329 
L 168.049843 290.561309 
L 168.281905 287.971476 
L 168.513967 289.589474 
L 168.746029 288.846733 
L 168.978091 289.676718 
L 169.210153 290.082766 
L 169.442215 290.237717 
L 169.674276 290.635794 
L 169.906338 289.547774 
L 170.1384 289.517179 
L 170.370462 290.410531 
L 170.602524 290.3147 
L 170.834586 289.516966 
L 171.066648 287.722589 
L 171.298709 290.967391 
L 171.530771 287.210037 
L 171.994895 289.908171 
L 172.226957 290.395435 
L 172.691081 289.767276 
L 172.923143 290.024712 
L 173.387266 289.593774 
L 173.619328 290.708947 
L 173.85139 289.510161 
L 174.083452 289.218614 
L 174.315514 287.944309 
L 174.547576 290.079732 
L 174.779637 290.953222 
L 175.475823 289.494075 
L 175.707885 289.63951 
L 175.939947 290.004781 
L 176.172009 289.947503 
L 176.40407 290.361978 
L 176.636132 289.004067 
L 176.868194 289.871583 
L 177.100256 290.158964 
L 177.332318 289.600891 
L 178.028503 290.886687 
L 178.260565 290.144761 
L 178.492627 290.227738 
L 178.724689 288.870755 
L 179.188813 291.552157 
L 179.420875 290.16646 
L 179.652937 287.801536 
L 179.884998 289.246035 
L 180.11706 289.63746 
L 180.349122 288.957317 
L 180.581184 290.472958 
L 181.045308 289.092319 
L 181.27737 289.592348 
L 181.509431 289.345949 
L 181.741493 289.637547 
L 181.973555 289.735091 
L 182.205617 289.966109 
L 182.437679 290.725081 
L 182.669741 290.573532 
L 182.901803 290.685408 
L 183.365926 288.606049 
L 183.597988 289.966321 
L 183.83005 289.425341 
L 184.294174 291.311059 
L 184.526236 290.146682 
L 184.758297 290.249182 
L 184.990359 291.038247 
L 185.222421 289.46925 
L 185.454483 289.075784 
L 185.686545 290.277696 
L 185.918607 290.792281 
L 186.382731 289.907903 
L 186.614792 289.253697 
L 186.846854 290.186669 
L 187.078916 289.246585 
L 187.310978 290.263672 
L 187.54304 289.341579 
L 187.775102 289.571703 
L 188.007164 290.327161 
L 188.239225 289.23381 
L 188.471287 290.228321 
L 188.703349 290.695654 
L 188.935411 289.317666 
L 189.167473 289.590445 
L 189.399535 291.0515 
L 189.631597 290.485835 
L 189.863658 289.57485 
L 190.09572 291.304136 
L 190.559844 289.346428 
L 190.791906 291.162545 
L 191.023968 290.714501 
L 191.25603 291.93116 
L 191.720153 289.0047 
L 191.952215 291.114391 
L 192.184277 289.677201 
L 192.416339 290.715793 
L 192.648401 291.049144 
L 192.880463 291.039406 
L 193.112525 289.256944 
L 193.576648 290.87177 
L 193.80871 290.043529 
L 194.040772 288.451023 
L 194.272834 290.360866 
L 194.504896 290.163152 
L 194.736958 290.338907 
L 194.969019 289.757 
L 195.201081 289.871295 
L 195.433143 290.127032 
L 195.665205 289.311326 
L 195.897267 289.25738 
L 196.129329 290.723533 
L 196.361391 289.823665 
L 196.593452 290.299923 
L 196.825514 289.962977 
L 197.057576 289.023388 
L 197.5217 291.281898 
L 197.753762 289.355088 
L 197.985824 289.667513 
L 198.217886 290.725767 
L 198.449947 288.746597 
L 198.682009 290.739719 
L 198.914071 289.837943 
L 199.146133 290.017285 
L 199.378195 290.613781 
L 199.610257 290.349968 
L 199.842319 289.351717 
L 200.07438 290.450621 
L 200.306442 289.923345 
L 200.538504 290.616933 
L 200.770566 290.232823 
L 201.002628 291.444084 
L 201.466752 289.218054 
L 201.930875 291.030227 
L 202.162937 289.445981 
L 202.394999 288.787545 
L 202.859123 290.547938 
L 203.091185 289.537635 
L 203.323246 289.839624 
L 203.555308 288.998756 
L 204.019432 290.577956 
L 204.251494 291.149769 
L 204.483556 290.131804 
L 204.715618 290.814391 
L 204.94768 290.481535 
L 205.179741 290.734263 
L 205.411803 290.003989 
L 205.643865 289.984723 
L 205.875927 290.728367 
L 206.107989 287.594719 
L 206.340051 291.427701 
L 206.572113 290.954302 
L 206.804174 290.189942 
L 207.036236 290.078902 
L 207.268298 291.944981 
L 207.50036 291.270156 
L 207.732422 291.041016 
L 207.964484 289.609645 
L 208.196546 290.126972 
L 208.428607 292.818247 
L 209.124793 290.230963 
L 209.356855 291.02903 
L 209.588917 288.753984 
L 209.820979 290.981013 
L 210.05304 290.702885 
L 210.285102 289.169382 
L 210.517164 291.460706 
L 210.749226 292.16945 
L 210.981288 290.381915 
L 211.21335 290.710973 
L 211.445412 290.119698 
L 211.677474 291.1611 
L 211.909535 290.295672 
L 212.141597 291.053632 
L 212.373659 290.463596 
L 212.837783 289.937264 
L 213.069845 288.957393 
L 213.301907 291.002495 
L 213.533968 291.12829 
L 213.76603 290.152559 
L 213.998092 290.450834 
L 214.230154 289.693624 
L 214.462216 291.461548 
L 214.694278 290.420668 
L 214.92634 290.940191 
L 215.390463 288.936029 
L 215.622525 289.932162 
L 215.854587 290.066742 
L 216.086649 289.572318 
L 216.318711 291.112337 
L 216.782834 289.73094 
L 217.246958 291.164827 
L 217.711082 289.931946 
L 217.943144 290.778248 
L 218.175206 289.730108 
L 218.407268 291.086596 
L 218.639329 291.042386 
L 218.871391 290.02652 
L 219.103453 290.897523 
L 219.335515 290.796308 
L 219.567577 288.53292 
L 219.799639 290.23362 
L 220.031701 290.496952 
L 220.263762 289.407719 
L 220.495824 290.608795 
L 220.727886 290.36525 
L 220.959948 290.851918 
L 221.19201 289.237896 
L 221.424072 290.781788 
L 221.656134 289.838089 
L 221.888195 290.294358 
L 222.352319 289.820485 
L 222.584381 286.44236 
L 223.048505 289.807438 
L 223.280567 290.011767 
L 223.512629 291.206282 
L 223.74469 289.965111 
L 223.976752 289.83822 
L 224.208814 290.270318 
L 224.440876 290.223826 
L 224.672938 290.675298 
L 224.905 289.965118 
L 225.137062 290.05719 
L 225.369123 290.723601 
L 225.833247 289.860965 
L 226.065309 290.034621 
L 226.297371 289.755394 
L 226.529433 290.92488 
L 226.761495 288.049619 
L 226.993556 289.571322 
L 227.225618 289.558555 
L 227.45768 291.265466 
L 227.689742 289.402868 
L 227.921804 290.137534 
L 228.153866 290.108974 
L 228.385928 290.658865 
L 228.617989 289.151607 
L 228.850051 290.951298 
L 229.082113 290.994434 
L 229.314175 290.354674 
L 229.546237 290.544083 
L 229.778299 289.707901 
L 230.010361 289.764177 
L 230.242423 290.219411 
L 230.474484 289.365641 
L 230.706546 290.125743 
L 230.938608 288.936257 
L 231.402732 291.596176 
L 231.634794 291.170534 
L 231.866856 287.327825 
L 232.098917 289.818374 
L 232.330979 290.570252 
L 232.563041 290.596373 
L 232.795103 291.116475 
L 233.027165 290.569084 
L 233.259227 290.829167 
L 233.491289 290.098869 
L 233.72335 290.887668 
L 233.955412 289.264348 
L 234.187474 290.888829 
L 234.419536 291.395621 
L 234.651598 290.350767 
L 234.88366 291.61278 
L 235.115722 289.936035 
L 235.347783 290.303078 
L 235.579845 291.271362 
L 235.811907 290.780958 
L 236.043969 288.685195 
L 236.276031 288.623788 
L 236.508093 290.484208 
L 236.972217 290.929053 
L 237.204278 289.184595 
L 237.43634 289.40853 
L 237.668402 292.219605 
L 238.132526 289.745311 
L 238.364588 291.208555 
L 238.59665 290.894291 
L 238.828711 290.279057 
L 239.060773 291.586413 
L 239.292835 290.360943 
L 239.524897 291.503181 
L 239.756959 290.686125 
L 239.989021 290.379864 
L 240.221083 289.67248 
L 240.453144 290.285262 
L 240.685206 290.144949 
L 240.917268 290.395355 
L 241.14933 291.294128 
L 241.381392 289.399827 
L 241.613454 291.396595 
L 241.845516 290.775373 
L 242.077577 289.749729 
L 242.309639 289.888456 
L 242.541701 289.31646 
L 242.773763 290.890519 
L 243.237887 289.830019 
L 243.469949 289.220217 
L 243.702011 290.903714 
L 243.934072 290.6407 
L 244.166134 290.679599 
L 244.398196 289.457059 
L 244.630258 290.568247 
L 244.86232 290.079899 
L 245.326444 291.166964 
L 245.558505 290.289156 
L 245.790567 290.461784 
L 246.022629 288.939147 
L 246.254691 291.105899 
L 246.486753 290.854041 
L 246.718815 290.944885 
L 246.950877 289.361005 
L 247.182938 290.351404 
L 247.415 290.507703 
L 247.647062 291.532163 
L 247.879124 290.827462 
L 248.111186 289.057048 
L 248.57531 290.079629 
L 248.807371 289.75575 
L 249.039433 290.932164 
L 249.271495 289.629463 
L 249.503557 290.794687 
L 249.735619 290.187742 
L 249.967681 288.006549 
L 250.199743 289.636718 
L 250.431805 290.340724 
L 250.663866 289.950378 
L 250.895928 290.091283 
L 251.12799 290.957453 
L 251.360052 290.867563 
L 251.592114 291.139696 
L 251.824176 290.506697 
L 252.056238 290.617048 
L 252.288299 289.569868 
L 252.520361 289.615366 
L 252.752423 290.282743 
L 252.984485 291.427915 
L 253.216547 290.48497 
L 253.912732 289.409564 
L 254.376856 290.623763 
L 254.608918 290.3629 
L 254.84098 289.882046 
L 255.073042 288.57835 
L 255.305104 289.35139 
L 255.537166 289.724124 
L 255.769227 290.879075 
L 256.001289 289.875201 
L 256.233351 290.289576 
L 256.465413 289.822099 
L 256.697475 290.447867 
L 256.929537 290.342927 
L 257.39366 289.81661 
L 257.625722 290.930108 
L 257.857784 288.755391 
L 258.089846 290.163019 
L 258.321908 290.28369 
L 258.55397 291.09267 
L 258.786032 291.462365 
L 259.018093 291.593116 
L 259.250155 290.653254 
L 259.714279 290.233252 
L 259.946341 290.845669 
L 260.178403 289.534484 
L 260.642526 290.285686 
L 260.874588 290.118679 
L 261.10665 291.223756 
L 261.338712 290.727746 
L 261.570774 291.512878 
L 261.802836 288.868875 
L 262.034898 291.144757 
L 262.26696 291.322537 
L 262.499021 290.242066 
L 262.731083 290.429173 
L 262.963145 291.129921 
L 263.195207 289.658309 
L 263.659331 290.536262 
L 263.891393 290.673534 
L 264.123454 289.711873 
L 264.355516 284.740712 
L 264.587578 290.417484 
L 264.81964 290.524325 
L 265.051702 291.154847 
L 265.515826 289.914361 
L 265.747887 289.685947 
L 265.979949 291.122771 
L 266.212011 291.483493 
L 266.444073 290.907509 
L 266.676135 289.793276 
L 266.908197 289.79661 
L 267.140259 291.059623 
L 267.37232 291.187555 
L 267.604382 290.294429 
L 267.836444 291.447355 
L 268.068506 290.087276 
L 268.53263 290.85631 
L 268.764692 290.62062 
L 268.996754 289.543685 
L 269.228815 290.912301 
L 269.460877 289.922517 
L 269.692939 290.923327 
L 269.925001 290.840829 
L 270.389125 289.451622 
L 270.621187 290.617633 
L 270.853248 289.186016 
L 271.08531 290.531028 
L 271.317372 290.492313 
L 271.549434 290.287282 
L 271.781496 289.919715 
L 272.013558 289.203229 
L 272.24562 289.607046 
L 272.477681 290.893112 
L 272.709743 290.276805 
L 272.941805 291.086696 
L 273.405929 289.221363 
L 273.637991 290.917737 
L 273.870053 290.598676 
L 274.102114 290.621031 
L 274.334176 291.133364 
L 274.566238 290.904346 
L 274.7983 289.604218 
L 275.030362 290.596205 
L 275.262424 290.779587 
L 275.494486 289.782231 
L 276.190671 290.701921 
L 276.654795 289.54838 
L 276.886857 289.892383 
L 277.118919 291.442513 
L 277.350981 290.64086 
L 277.583042 288.877174 
L 277.815104 290.097352 
L 278.047166 290.361087 
L 278.279228 288.438562 
L 278.51129 289.043578 
L 278.743352 290.220649 
L 278.975414 289.331112 
L 279.207475 291.113821 
L 279.439537 291.670918 
L 279.671599 289.33472 
L 280.135723 290.476246 
L 280.367785 289.97212 
L 280.599847 290.698065 
L 280.831909 289.251046 
L 281.06397 289.117555 
L 281.528094 291.73492 
L 281.760156 288.764826 
L 281.992218 289.323335 
L 282.22428 290.255812 
L 282.456342 290.336867 
L 282.688403 290.170555 
L 282.920465 289.028672 
L 283.152527 288.889749 
L 283.384589 290.954226 
L 283.616651 289.889716 
L 283.848713 290.190917 
L 284.080775 291.27314 
L 284.544898 289.045672 
L 284.77696 289.856149 
L 285.009022 291.280032 
L 285.241084 289.808155 
L 285.473146 291.224545 
L 285.705208 289.45777 
L 285.937269 289.824954 
L 286.169331 291.346957 
L 286.401393 290.252866 
L 286.633455 291.070121 
L 286.865517 290.956204 
L 287.097579 291.674021 
L 287.561703 289.417612 
L 287.793764 290.037273 
L 288.025826 289.257022 
L 288.257888 290.871265 
L 288.48995 290.228598 
L 288.722012 290.101734 
L 288.954074 289.592793 
L 289.186136 289.711359 
L 289.418197 290.296397 
L 289.650259 290.461295 
L 290.114383 288.875507 
L 290.578507 289.972466 
L 290.810569 290.120555 
L 291.04263 289.852962 
L 291.274692 290.502168 
L 291.506754 289.413742 
L 291.970878 290.468581 
L 292.20294 288.783379 
L 292.435002 289.249989 
L 292.667063 289.182809 
L 292.899125 287.895223 
L 293.131187 291.171175 
L 293.363249 289.962117 
L 293.595311 291.135514 
L 293.827373 289.676338 
L 294.291497 290.335087 
L 294.523558 290.824485 
L 294.75562 290.15651 
L 294.987682 290.432228 
L 295.219744 289.602491 
L 295.451806 290.069018 
L 295.683868 291.130372 
L 296.147991 290.468121 
L 296.380053 290.382655 
L 296.612115 290.433573 
L 296.844177 289.524686 
L 297.076239 290.374585 
L 297.540363 288.344996 
L 297.772424 290.291007 
L 298.004486 289.939923 
L 298.236548 289.935464 
L 298.46861 53.568 
L 298.700672 287.45829 
L 298.932734 289.418421 
L 299.164796 289.312503 
L 299.396857 289.615146 
L 299.628919 289.720122 
L 299.860981 290.441022 
L 300.093043 289.503798 
L 300.325105 290.100226 
L 300.557167 291.252603 
L 300.789229 290.483118 
L 301.021291 290.246087 
L 301.253352 291.671648 
L 301.485414 290.74886 
L 301.717476 290.584361 
L 301.949538 289.935286 
L 302.1816 288.747234 
L 302.645724 291.175684 
L 302.877785 289.676769 
L 303.109847 289.032275 
L 303.341909 288.812124 
L 303.573971 289.288485 
L 303.806033 290.851862 
L 304.038095 289.530036 
L 304.270157 289.589025 
L 304.502218 291.110589 
L 304.73428 291.397633 
L 304.966342 290.918454 
L 305.198404 289.766184 
L 305.430466 289.963267 
L 305.662528 290.393743 
L 305.89459 290.541814 
L 306.126652 290.991305 
L 306.358713 290.929195 
L 306.822837 288.982274 
L 307.054899 289.317207 
L 307.286961 290.591185 
L 307.519023 290.609629 
L 307.751085 291.331245 
L 308.215208 289.47185 
L 308.44727 288.88066 
L 308.679332 290.641449 
L 308.911394 289.99034 
L 309.143456 290.113735 
L 309.375518 289.976864 
L 309.607579 288.664667 
L 309.839641 289.001748 
L 310.071703 290.164178 
L 310.303765 289.555858 
L 310.535827 290.940247 
L 310.767889 288.686636 
L 310.999951 289.605583 
L 311.232012 289.893973 
L 311.464074 290.614611 
L 311.696136 289.584911 
L 311.928198 289.319599 
L 312.16026 289.856326 
L 312.392322 289.624814 
L 312.624384 290.391309 
L 312.856446 290.108247 
L 313.088507 290.771165 
L 313.320569 290.305182 
L 313.552631 290.997555 
L 313.784693 290.058917 
L 314.016755 289.974489 
L 314.248817 290.424194 
L 314.480879 288.987977 
L 314.71294 290.56618 
L 314.945002 288.617211 
L 315.177064 290.474823 
L 315.409126 289.819194 
L 315.641188 290.678727 
L 316.105312 290.549462 
L 316.337373 290.723324 
L 316.801497 290.535997 
L 317.033559 289.861296 
L 317.265621 289.67839 
L 317.497683 290.724793 
L 317.729745 290.593833 
L 317.961806 289.610377 
L 318.42593 290.873902 
L 318.657992 290.748477 
L 318.890054 288.670462 
L 319.122116 290.33371 
L 319.354178 290.376349 
L 319.58624 288.637958 
L 319.818301 290.177678 
L 320.050363 290.330463 
L 320.514487 290.172621 
L 320.746549 290.847001 
L 320.978611 292.065404 
L 321.210673 290.236028 
L 321.442734 289.842728 
L 322.13892 291.285842 
L 322.370982 290.626091 
L 322.603044 290.64589 
L 323.067167 290.247447 
L 323.299229 290.114871 
L 323.531291 289.639872 
L 323.763353 290.053198 
L 323.995415 289.554486 
L 324.227477 288.724905 
L 324.459539 290.57141 
L 324.6916 289.632111 
L 324.923662 289.210831 
L 325.155724 290.36316 
L 325.387786 288.90424 
L 325.619848 289.197619 
L 325.85191 291.445709 
L 326.083972 290.953292 
L 326.316034 289.951152 
L 326.548095 290.772756 
L 326.780157 290.664939 
L 327.012219 290.053649 
L 327.244281 290.260883 
L 327.476343 291.338463 
L 327.708405 287.890939 
L 327.940467 290.308566 
L 328.172528 289.138839 
L 328.40459 290.822762 
L 328.636652 290.569862 
L 328.868714 290.940643 
L 329.100776 290.175075 
L 329.332838 289.024757 
L 329.5649 289.515757 
L 329.796961 290.374788 
L 330.029023 290.239458 
L 330.261085 291.171789 
L 330.493147 289.784765 
L 330.725209 290.656683 
L 330.957271 289.76775 
L 331.189333 291.663609 
L 331.421395 289.864124 
L 331.653456 290.539088 
L 331.885518 289.523951 
L 332.11758 289.916763 
L 332.349642 288.8571 
L 332.581704 289.851057 
L 332.813766 288.907399 
L 333.045828 291.352327 
L 333.277889 289.800279 
L 333.509951 289.356467 
L 333.742013 289.60646 
L 334.206137 291.292494 
L 334.670261 288.134434 
L 335.134384 290.940658 
L 335.366446 290.574057 
L 335.598508 290.425929 
L 336.062632 291.610606 
L 336.294694 289.071667 
L 336.526755 289.974765 
L 336.758817 289.409791 
L 336.990879 290.238049 
L 337.455003 289.422673 
L 337.687065 290.240362 
L 337.919127 289.500255 
L 338.151189 289.884421 
L 338.38325 289.549572 
L 338.615312 291.623668 
L 338.847374 289.603113 
L 339.079436 288.924634 
L 339.311498 291.218773 
L 339.54356 290.198089 
L 339.775622 290.768658 
L 340.007683 290.695018 
L 340.239745 289.863385 
L 340.703869 290.647316 
L 340.935931 289.467055 
L 341.167993 289.882286 
L 341.400055 289.262702 
L 341.632116 289.861048 
L 342.09624 289.749456 
L 342.328302 290.469133 
L 342.792426 288.432799 
L 343.024488 290.219172 
L 343.256549 289.693867 
L 343.488611 290.782878 
L 343.720673 290.266748 
L 343.952735 290.063872 
L 344.184797 290.62194 
L 344.648921 290.333922 
L 344.880983 288.932648 
L 345.113044 290.275877 
L 345.345106 290.723313 
L 345.577168 289.32141 
L 345.80923 290.526566 
L 346.041292 290.197082 
L 346.273354 288.728714 
L 346.505416 290.001457 
L 346.737477 289.20544 
L 346.969539 289.456972 
L 347.201601 289.302796 
L 347.433663 289.593815 
L 347.665725 289.589519 
L 347.897787 289.277813 
L 348.129849 289.796379 
L 348.36191 289.356761 
L 348.593972 290.91239 
L 348.826034 290.353042 
L 349.058096 290.096137 
L 349.290158 289.170751 
L 349.52222 290.852661 
L 349.754282 290.893665 
L 350.218405 289.644566 
L 350.450467 290.479644 
L 350.914591 289.935082 
L 351.146653 290.013279 
L 351.378715 290.888179 
L 351.610777 290.28739 
L 351.842838 290.189181 
L 352.0749 290.375536 
L 352.539024 288.847597 
L 353.003148 290.198499 
L 353.23521 289.986129 
L 353.467271 290.032033 
L 353.699333 290.724128 
L 353.931395 290.084534 
L 354.395519 290.24775 
L 354.859643 289.193571 
L 355.091704 291.222103 
L 355.323766 289.508898 
L 355.555828 290.217847 
L 355.78789 288.824551 
L 356.019952 289.25098 
L 356.252014 290.008848 
L 356.484076 290.283214 
L 356.716138 290.356277 
L 356.948199 289.548321 
L 357.180261 289.603128 
L 357.412323 291.078345 
L 357.644385 289.992948 
L 357.876447 290.872193 
L 358.108509 288.787487 
L 358.340571 290.718384 
L 358.572632 289.778334 
L 358.804694 290.961783 
L 359.036756 288.975202 
L 359.50088 290.489878 
L 359.732942 289.475657 
L 359.965004 289.360628 
L 360.197065 290.404348 
L 360.429127 289.96488 
L 360.661189 289.259224 
L 360.893251 289.758672 
L 361.125313 289.192624 
L 361.357375 289.297255 
L 361.589437 288.93818 
L 362.05356 289.978533 
L 362.285622 291.423978 
L 362.517684 291.112095 
L 362.749746 291.077317 
L 362.981808 289.979993 
L 363.21387 290.702445 
L 363.445932 290.18321 
L 363.677993 289.183778 
L 363.910055 288.857909 
L 364.142117 289.12571 
L 364.606241 291.101788 
L 364.838303 289.765032 
L 365.070365 291.175367 
L 365.302426 289.402765 
L 365.534488 289.600043 
L 365.76655 290.767922 
L 365.998612 289.62184 
L 366.230674 291.071162 
L 366.462736 288.857918 
L 366.694798 290.531824 
L 366.926859 289.632505 
L 367.390983 290.335945 
L 367.623045 289.914711 
L 367.855107 290.512702 
L 368.087169 289.12654 
L 368.319231 289.749174 
L 368.551292 288.241188 
L 368.783354 290.498338 
L 369.015416 288.772873 
L 369.247478 290.588475 
L 369.711602 289.007416 
L 369.943664 288.761814 
L 370.175726 289.762404 
L 370.407787 289.934133 
L 370.639849 288.546343 
L 370.871911 290.993619 
L 371.103973 289.272351 
L 371.336035 289.089563 
L 371.568097 291.264628 
L 371.800159 289.436885 
L 372.03222 289.143333 
L 372.264282 291.238906 
L 372.496344 290.187159 
L 372.728406 290.046952 
L 372.960468 289.596621 
L 373.19253 290.688727 
L 373.424592 290.17732 
L 373.656653 290.481702 
L 373.888715 290.341341 
L 374.120777 290.574487 
L 374.584901 290.435862 
L 374.816963 289.621889 
L 375.049025 290.32317 
L 375.281086 290.114718 
L 375.513148 287.938904 
L 375.74521 290.114263 
L 375.977272 290.927553 
L 376.209334 289.283664 
L 376.441396 289.551298 
L 376.673458 290.738882 
L 376.90552 287.651595 
L 377.137581 290.431907 
L 377.369643 289.721934 
L 377.833767 289.86906 
L 378.065829 289.640997 
L 378.297891 288.872432 
L 378.529953 289.124396 
L 378.762014 290.81033 
L 379.226138 289.41352 
L 379.4582 290.407101 
L 379.690262 290.465811 
L 379.922324 290.323631 
L 380.154386 288.397486 
L 380.386447 289.971847 
L 380.618509 290.723985 
L 380.850571 290.460672 
L 381.082633 288.369366 
L 381.314695 289.535183 
L 381.778819 289.025217 
L 382.242942 290.13172 
L 382.475004 290.52358 
L 382.707066 289.375837 
L 382.939128 289.300175 
L 383.17119 290.479381 
L 383.403252 292.340378 
L 383.635314 290.085358 
L 383.867375 289.925218 
L 384.099437 289.029318 
L 384.331499 290.714733 
L 384.563561 289.072415 
L 384.795623 289.658143 
L 385.027685 289.681884 
L 385.259747 289.485287 
L 385.491808 290.677166 
L 385.72387 289.170867 
L 385.955932 290.761822 
L 386.187994 290.598295 
L 386.420056 289.782143 
L 386.652118 289.897738 
L 386.88418 289.607386 
L 387.116241 289.959789 
L 387.348303 291.827628 
L 387.580365 289.9928 
L 388.044489 289.15158 
L 388.276551 289.921876 
L 388.508613 289.612035 
L 388.740675 289.529815 
L 389.204798 290.734069 
L 389.43686 289.339611 
L 389.668922 289.801271 
L 390.133046 289.946719 
L 390.365108 289.366439 
L 390.597169 289.54276 
L 390.829231 289.043269 
L 391.061293 289.177384 
L 391.293355 290.330034 
L 391.525417 289.669698 
L 391.757479 290.0643 
L 391.989541 289.0929 
L 392.221602 289.853151 
L 392.453664 289.323455 
L 392.917788 288.908032 
L 393.14985 290.069807 
L 393.381912 290.596399 
L 393.846035 288.734582 
L 394.078097 290.291847 
L 394.310159 290.810949 
L 394.542221 289.174884 
L 394.774283 290.931518 
L 395.006345 290.999066 
L 395.238407 290.846767 
L 395.470469 291.347492 
L 395.70253 290.036145 
L 395.934592 289.367612 
L 396.166654 291.078877 
L 396.630778 288.372742 
L 396.86284 291.040083 
L 397.094902 289.523768 
L 397.326963 288.954869 
L 397.559025 290.91096 
L 397.791087 290.704822 
L 398.023149 290.325142 
L 398.255211 290.484718 
L 398.487273 290.100405 
L 398.487273 290.100405 
" style="fill:none;stroke:#ff7f0e;stroke-linecap:square;stroke-width:1.5;"/>
   </g>
   <g id="patch_3">
    <path d="M 57.6 307.584 
L 57.6 41.472 
" style="fill:none;stroke:#000000;stroke-linecap:square;stroke-linejoin:miter;stroke-width:0.8;"/>
   </g>
   <g id="patch_4">
    <path d="M 414.72 307.584 
L 414.72 41.472 
" style="fill:none;stroke:#000000;stroke-linecap:square;stroke-linejoin:miter;stroke-width:0.8;"/>
   </g>
   <g id="patch_5">
    <path d="M 57.6 307.584 
L 414.72 307.584 
" style="fill:none;stroke:#000000;stroke-linecap:square;stroke-linejoin:miter;stroke-width:0.8;"/>
   </g>
   <g id="patch_6">
    <path d="M 57.6 41.472 
L 414.72 41.472 
" style="fill:none;stroke:#000000;stroke-linecap:square;stroke-linejoin:miter;stroke-width:0.8;"/>
   </g>
   <g id="legend_1">
    <g id="patch_7">
     <path d="M 303.845 78.82825 
L 407.72 78.82825 
Q 409.72 78.82825 409.72 76.82825 
L 409.72 48.472 
Q 409.72 46.472 407.72 46.472 
L 303.845 46.472 
Q 301.845 46.472 301.845 48.472 
L 301.845 76.82825 
Q 301.845 78.82825 303.845 78.82825 
z
" style="fill:#ffffff;opacity:0.8;stroke:#cccccc;stroke-linejoin:miter;"/>
    </g>
    <g id="line2d_19">
     <path d="M 305.845 54.570437 
L 325.845 54.570437 
" style="fill:none;stroke:#1f77b4;stroke-linecap:square;stroke-width:1.5;"/>
    </g>
    <g id="line2d_20"/>
    <g id="text_18">
     <!-- Train loss -->
     <g transform="translate(333.845 58.070437)scale(0.1 -0.1)">
      <defs>
       <path d="M -19 4666 
L 3928 4666 
L 3928 4134 
L 2272 4134 
L 2272 0 
L 1638 0 
L 1638 4134 
L -19 4134 
L -19 4666 
z
" id="DejaVuSans-54" transform="scale(0.015625)"/>
       <path d="M 2631 2963 
Q 2534 3019 2420 3045 
Q 2306 3072 2169 3072 
Q 1681 3072 1420 2755 
Q 1159 2438 1159 1844 
L 1159 0 
L 581 0 
L 581 3500 
L 1159 3500 
L 1159 2956 
Q 1341 3275 1631 3429 
Q 1922 3584 2338 3584 
Q 2397 3584 2469 3576 
Q 2541 3569 2628 3553 
L 2631 2963 
z
" id="DejaVuSans-72" transform="scale(0.015625)"/>
       <path d="M 2194 1759 
Q 1497 1759 1228 1600 
Q 959 1441 959 1056 
Q 959 750 1161 570 
Q 1363 391 1709 391 
Q 2188 391 2477 730 
Q 2766 1069 2766 1631 
L 2766 1759 
L 2194 1759 
z
M 3341 1997 
L 3341 0 
L 2766 0 
L 2766 531 
Q 2569 213 2275 61 
Q 1981 -91 1556 -91 
Q 1019 -91 701 211 
Q 384 513 384 1019 
Q 384 1609 779 1909 
Q 1175 2209 1959 2209 
L 2766 2209 
L 2766 2266 
Q 2766 2663 2505 2880 
Q 2244 3097 1772 3097 
Q 1472 3097 1187 3025 
Q 903 2953 641 2809 
L 641 3341 
Q 956 3463 1253 3523 
Q 1550 3584 1831 3584 
Q 2591 3584 2966 3190 
Q 3341 2797 3341 1997 
z
" id="DejaVuSans-61" transform="scale(0.015625)"/>
       <path d="M 603 3500 
L 1178 3500 
L 1178 0 
L 603 0 
L 603 3500 
z
M 603 4863 
L 1178 4863 
L 1178 4134 
L 603 4134 
L 603 4863 
z
" id="DejaVuSans-69" transform="scale(0.015625)"/>
       <path d="M 3513 2113 
L 3513 0 
L 2938 0 
L 2938 2094 
Q 2938 2591 2744 2837 
Q 2550 3084 2163 3084 
Q 1697 3084 1428 2787 
Q 1159 2491 1159 1978 
L 1159 0 
L 581 0 
L 581 3500 
L 1159 3500 
L 1159 2956 
Q 1366 3272 1645 3428 
Q 1925 3584 2291 3584 
Q 2894 3584 3203 3211 
Q 3513 2838 3513 2113 
z
" id="DejaVuSans-6e" transform="scale(0.015625)"/>
       <path id="DejaVuSans-20" transform="scale(0.015625)"/>
       <path d="M 603 4863 
L 1178 4863 
L 1178 0 
L 603 0 
L 603 4863 
z
" id="DejaVuSans-6c" transform="scale(0.015625)"/>
       <path d="M 2834 3397 
L 2834 2853 
Q 2591 2978 2328 3040 
Q 2066 3103 1784 3103 
Q 1356 3103 1142 2972 
Q 928 2841 928 2578 
Q 928 2378 1081 2264 
Q 1234 2150 1697 2047 
L 1894 2003 
Q 2506 1872 2764 1633 
Q 3022 1394 3022 966 
Q 3022 478 2636 193 
Q 2250 -91 1575 -91 
Q 1294 -91 989 -36 
Q 684 19 347 128 
L 347 722 
Q 666 556 975 473 
Q 1284 391 1588 391 
Q 1994 391 2212 530 
Q 2431 669 2431 922 
Q 2431 1156 2273 1281 
Q 2116 1406 1581 1522 
L 1381 1569 
Q 847 1681 609 1914 
Q 372 2147 372 2553 
Q 372 3047 722 3315 
Q 1072 3584 1716 3584 
Q 2034 3584 2315 3537 
Q 2597 3491 2834 3397 
z
" id="DejaVuSans-73" transform="scale(0.015625)"/>
      </defs>
      <use xlink:href="#DejaVuSans-54"/>
      <use x="46.333984" xlink:href="#DejaVuSans-72"/>
      <use x="87.447266" xlink:href="#DejaVuSans-61"/>
      <use x="148.726562" xlink:href="#DejaVuSans-69"/>
      <use x="176.509766" xlink:href="#DejaVuSans-6e"/>
      <use x="239.888672" xlink:href="#DejaVuSans-20"/>
      <use x="271.675781" xlink:href="#DejaVuSans-6c"/>
      <use x="299.458984" xlink:href="#DejaVuSans-6f"/>
      <use x="360.640625" xlink:href="#DejaVuSans-73"/>
      <use x="412.740234" xlink:href="#DejaVuSans-73"/>
     </g>
    </g>
    <g id="line2d_21">
     <path d="M 305.845 69.248562 
L 325.845 69.248562 
" style="fill:none;stroke:#ff7f0e;stroke-linecap:square;stroke-width:1.5;"/>
    </g>
    <g id="line2d_22"/>
    <g id="text_19">
     <!-- Validation loss -->
     <g transform="translate(333.845 72.748562)scale(0.1 -0.1)">
      <defs>
       <path d="M 1831 0 
L 50 4666 
L 709 4666 
L 2188 738 
L 3669 4666 
L 4325 4666 
L 2547 0 
L 1831 0 
z
" id="DejaVuSans-56" transform="scale(0.015625)"/>
       <path d="M 2906 2969 
L 2906 4863 
L 3481 4863 
L 3481 0 
L 2906 0 
L 2906 525 
Q 2725 213 2448 61 
Q 2172 -91 1784 -91 
Q 1150 -91 751 415 
Q 353 922 353 1747 
Q 353 2572 751 3078 
Q 1150 3584 1784 3584 
Q 2172 3584 2448 3432 
Q 2725 3281 2906 2969 
z
M 947 1747 
Q 947 1113 1208 752 
Q 1469 391 1925 391 
Q 2381 391 2643 752 
Q 2906 1113 2906 1747 
Q 2906 2381 2643 2742 
Q 2381 3103 1925 3103 
Q 1469 3103 1208 2742 
Q 947 2381 947 1747 
z
" id="DejaVuSans-64" transform="scale(0.015625)"/>
       <path d="M 1172 4494 
L 1172 3500 
L 2356 3500 
L 2356 3053 
L 1172 3053 
L 1172 1153 
Q 1172 725 1289 603 
Q 1406 481 1766 481 
L 2356 481 
L 2356 0 
L 1766 0 
Q 1100 0 847 248 
Q 594 497 594 1153 
L 594 3053 
L 172 3053 
L 172 3500 
L 594 3500 
L 594 4494 
L 1172 4494 
z
" id="DejaVuSans-74" transform="scale(0.015625)"/>
      </defs>
      <use xlink:href="#DejaVuSans-56"/>
      <use x="60.658203" xlink:href="#DejaVuSans-61"/>
      <use x="121.9375" xlink:href="#DejaVuSans-6c"/>
      <use x="149.720703" xlink:href="#DejaVuSans-69"/>
      <use x="177.503906" xlink:href="#DejaVuSans-64"/>
      <use x="240.980469" xlink:href="#DejaVuSans-61"/>
      <use x="302.259766" xlink:href="#DejaVuSans-74"/>
      <use x="341.46875" xlink:href="#DejaVuSans-69"/>
      <use x="369.251953" xlink:href="#DejaVuSans-6f"/>
      <use x="430.433594" xlink:href="#DejaVuSans-6e"/>
      <use x="493.8125" xlink:href="#DejaVuSans-20"/>
      <use x="525.599609" xlink:href="#DejaVuSans-6c"/>
      <use x="553.382812" xlink:href="#DejaVuSans-6f"/>
      <use x="614.564453" xlink:href="#DejaVuSans-73"/>
      <use x="666.664062" xlink:href="#DejaVuSans-73"/>
     </g>
    </g>
   </g>
  </g>
 </g>
 <defs>
  <clipPath id="p5180ecdaed">
   <rect height="266.112" width="357.12" x="57.6" y="41.472"/>
  </clipPath>
 </defs>
</svg>
