<?xml version="1.0" encoding="utf-8" standalone="no"?>
<!DOCTYPE svg PUBLIC "-//W3C//DTD SVG 1.1//EN"
  "http://www.w3.org/Graphics/SVG/1.1/DTD/svg11.dtd">
<svg height="345.6pt" version="1.1" viewBox="0 0 460.8 345.6" width="460.8pt" xmlns="http://www.w3.org/2000/svg" xmlns:xlink="http://www.w3.org/1999/xlink">
 <metadata>
  <rdf:RDF xmlns:cc="http://creativecommons.org/ns#" xmlns:dc="http://purl.org/dc/elements/1.1/" xmlns:rdf="http://www.w3.org/1999/02/22-rdf-syntax-ns#">
   <cc:Work>
    <dc:type rdf:resource="http://purl.org/dc/dcmitype/StillImage"/>
    <dc:date>2021-07-14T14:43:56.388974</dc:date>
    <dc:format>image/svg+xml</dc:format>
    <dc:creator>
     <cc:Agent>
      <dc:title>Matplotlib v3.4.2, https://matplotlib.org/</dc:title>
     </cc:Agent>
    </dc:creator>
   </cc:Work>
  </rdf:RDF>
 </metadata>
 <defs>
  <style type="text/css">*{stroke-linecap:butt;stroke-linejoin:round;}</style>
 </defs>
 <g id="figure_1">
  <g id="patch_1">
   <path d="M 0 345.6 
L 460.8 345.6 
L 460.8 0 
L 0 0 
z
" style="fill:#ffffff;"/>
  </g>
  <g id="axes_1">
   <g id="patch_2">
    <path d="M 57.6 307.584 
L 414.72 307.584 
L 414.72 41.472 
L 57.6 41.472 
z
" style="fill:#ffffff;"/>
   </g>
   <g id="matplotlib.axis_1">
    <g id="xtick_1">
     <g id="line2d_1">
      <defs>
       <path d="M 0 0 
L 0 3.5 
" id="mb371421056" style="stroke:#000000;stroke-width:0.8;"/>
      </defs>
      <g>
       <use style="stroke:#000000;stroke-width:0.8;" x="73.019057" xlink:href="#mb371421056" y="307.584"/>
      </g>
     </g>
     <g id="text_1">
      <!-- 0 -->
      <g transform="translate(69.837807 322.182437)scale(0.1 -0.1)">
       <defs>
        <path d="M 2034 4250 
Q 1547 4250 1301 3770 
Q 1056 3291 1056 2328 
Q 1056 1369 1301 889 
Q 1547 409 2034 409 
Q 2525 409 2770 889 
Q 3016 1369 3016 2328 
Q 3016 3291 2770 3770 
Q 2525 4250 2034 4250 
z
M 2034 4750 
Q 2819 4750 3233 4129 
Q 3647 3509 3647 2328 
Q 3647 1150 3233 529 
Q 2819 -91 2034 -91 
Q 1250 -91 836 529 
Q 422 1150 422 2328 
Q 422 3509 836 4129 
Q 1250 4750 2034 4750 
z
" id="DejaVuSans-30" transform="scale(0.015625)"/>
       </defs>
       <use xlink:href="#DejaVuSans-30"/>
      </g>
     </g>
    </g>
    <g id="xtick_2">
     <g id="line2d_2">
      <g>
       <use style="stroke:#000000;stroke-width:0.8;" x="113.702584" xlink:href="#mb371421056" y="307.584"/>
      </g>
     </g>
     <g id="text_2">
      <!-- 50 -->
      <g transform="translate(107.340084 322.182437)scale(0.1 -0.1)">
       <defs>
        <path d="M 691 4666 
L 3169 4666 
L 3169 4134 
L 1269 4134 
L 1269 2991 
Q 1406 3038 1543 3061 
Q 1681 3084 1819 3084 
Q 2600 3084 3056 2656 
Q 3513 2228 3513 1497 
Q 3513 744 3044 326 
Q 2575 -91 1722 -91 
Q 1428 -91 1123 -41 
Q 819 9 494 109 
L 494 744 
Q 775 591 1075 516 
Q 1375 441 1709 441 
Q 2250 441 2565 725 
Q 2881 1009 2881 1497 
Q 2881 1984 2565 2268 
Q 2250 2553 1709 2553 
Q 1456 2553 1204 2497 
Q 953 2441 691 2322 
L 691 4666 
z
" id="DejaVuSans-35" transform="scale(0.015625)"/>
       </defs>
       <use xlink:href="#DejaVuSans-35"/>
       <use x="63.623047" xlink:href="#DejaVuSans-30"/>
      </g>
     </g>
    </g>
    <g id="xtick_3">
     <g id="line2d_3">
      <g>
       <use style="stroke:#000000;stroke-width:0.8;" x="154.386111" xlink:href="#mb371421056" y="307.584"/>
      </g>
     </g>
     <g id="text_3">
      <!-- 100 -->
      <g transform="translate(144.842361 322.182437)scale(0.1 -0.1)">
       <defs>
        <path d="M 794 531 
L 1825 531 
L 1825 4091 
L 703 3866 
L 703 4441 
L 1819 4666 
L 2450 4666 
L 2450 531 
L 3481 531 
L 3481 0 
L 794 0 
L 794 531 
z
" id="DejaVuSans-31" transform="scale(0.015625)"/>
       </defs>
       <use xlink:href="#DejaVuSans-31"/>
       <use x="63.623047" xlink:href="#DejaVuSans-30"/>
       <use x="127.246094" xlink:href="#DejaVuSans-30"/>
      </g>
     </g>
    </g>
    <g id="xtick_4">
     <g id="line2d_4">
      <g>
       <use style="stroke:#000000;stroke-width:0.8;" x="195.069638" xlink:href="#mb371421056" y="307.584"/>
      </g>
     </g>
     <g id="text_4">
      <!-- 150 -->
      <g transform="translate(185.525888 322.182437)scale(0.1 -0.1)">
       <use xlink:href="#DejaVuSans-31"/>
       <use x="63.623047" xlink:href="#DejaVuSans-35"/>
       <use x="127.246094" xlink:href="#DejaVuSans-30"/>
      </g>
     </g>
    </g>
    <g id="xtick_5">
     <g id="line2d_5">
      <g>
       <use style="stroke:#000000;stroke-width:0.8;" x="235.753165" xlink:href="#mb371421056" y="307.584"/>
      </g>
     </g>
     <g id="text_5">
      <!-- 200 -->
      <g transform="translate(226.209415 322.182437)scale(0.1 -0.1)">
       <defs>
        <path d="M 1228 531 
L 3431 531 
L 3431 0 
L 469 0 
L 469 531 
Q 828 903 1448 1529 
Q 2069 2156 2228 2338 
Q 2531 2678 2651 2914 
Q 2772 3150 2772 3378 
Q 2772 3750 2511 3984 
Q 2250 4219 1831 4219 
Q 1534 4219 1204 4116 
Q 875 4013 500 3803 
L 500 4441 
Q 881 4594 1212 4672 
Q 1544 4750 1819 4750 
Q 2544 4750 2975 4387 
Q 3406 4025 3406 3419 
Q 3406 3131 3298 2873 
Q 3191 2616 2906 2266 
Q 2828 2175 2409 1742 
Q 1991 1309 1228 531 
z
" id="DejaVuSans-32" transform="scale(0.015625)"/>
       </defs>
       <use xlink:href="#DejaVuSans-32"/>
       <use x="63.623047" xlink:href="#DejaVuSans-30"/>
       <use x="127.246094" xlink:href="#DejaVuSans-30"/>
      </g>
     </g>
    </g>
    <g id="xtick_6">
     <g id="line2d_6">
      <g>
       <use style="stroke:#000000;stroke-width:0.8;" x="276.436692" xlink:href="#mb371421056" y="307.584"/>
      </g>
     </g>
     <g id="text_6">
      <!-- 250 -->
      <g transform="translate(266.892942 322.182437)scale(0.1 -0.1)">
       <use xlink:href="#DejaVuSans-32"/>
       <use x="63.623047" xlink:href="#DejaVuSans-35"/>
       <use x="127.246094" xlink:href="#DejaVuSans-30"/>
      </g>
     </g>
    </g>
    <g id="xtick_7">
     <g id="line2d_7">
      <g>
       <use style="stroke:#000000;stroke-width:0.8;" x="317.120219" xlink:href="#mb371421056" y="307.584"/>
      </g>
     </g>
     <g id="text_7">
      <!-- 300 -->
      <g transform="translate(307.576469 322.182437)scale(0.1 -0.1)">
       <defs>
        <path d="M 2597 2516 
Q 3050 2419 3304 2112 
Q 3559 1806 3559 1356 
Q 3559 666 3084 287 
Q 2609 -91 1734 -91 
Q 1441 -91 1130 -33 
Q 819 25 488 141 
L 488 750 
Q 750 597 1062 519 
Q 1375 441 1716 441 
Q 2309 441 2620 675 
Q 2931 909 2931 1356 
Q 2931 1769 2642 2001 
Q 2353 2234 1838 2234 
L 1294 2234 
L 1294 2753 
L 1863 2753 
Q 2328 2753 2575 2939 
Q 2822 3125 2822 3475 
Q 2822 3834 2567 4026 
Q 2313 4219 1838 4219 
Q 1578 4219 1281 4162 
Q 984 4106 628 3988 
L 628 4550 
Q 988 4650 1302 4700 
Q 1616 4750 1894 4750 
Q 2613 4750 3031 4423 
Q 3450 4097 3450 3541 
Q 3450 3153 3228 2886 
Q 3006 2619 2597 2516 
z
" id="DejaVuSans-33" transform="scale(0.015625)"/>
       </defs>
       <use xlink:href="#DejaVuSans-33"/>
       <use x="63.623047" xlink:href="#DejaVuSans-30"/>
       <use x="127.246094" xlink:href="#DejaVuSans-30"/>
      </g>
     </g>
    </g>
    <g id="xtick_8">
     <g id="line2d_8">
      <g>
       <use style="stroke:#000000;stroke-width:0.8;" x="357.803746" xlink:href="#mb371421056" y="307.584"/>
      </g>
     </g>
     <g id="text_8">
      <!-- 350 -->
      <g transform="translate(348.259996 322.182437)scale(0.1 -0.1)">
       <use xlink:href="#DejaVuSans-33"/>
       <use x="63.623047" xlink:href="#DejaVuSans-35"/>
       <use x="127.246094" xlink:href="#DejaVuSans-30"/>
      </g>
     </g>
    </g>
    <g id="xtick_9">
     <g id="line2d_9">
      <g>
       <use style="stroke:#000000;stroke-width:0.8;" x="398.487273" xlink:href="#mb371421056" y="307.584"/>
      </g>
     </g>
     <g id="text_9">
      <!-- 400 -->
      <g transform="translate(388.943523 322.182437)scale(0.1 -0.1)">
       <defs>
        <path d="M 2419 4116 
L 825 1625 
L 2419 1625 
L 2419 4116 
z
M 2253 4666 
L 3047 4666 
L 3047 1625 
L 3713 1625 
L 3713 1100 
L 3047 1100 
L 3047 0 
L 2419 0 
L 2419 1100 
L 313 1100 
L 313 1709 
L 2253 4666 
z
" id="DejaVuSans-34" transform="scale(0.015625)"/>
       </defs>
       <use xlink:href="#DejaVuSans-34"/>
       <use x="63.623047" xlink:href="#DejaVuSans-30"/>
       <use x="127.246094" xlink:href="#DejaVuSans-30"/>
      </g>
     </g>
    </g>
    <g id="text_10">
     <!-- Epoch -->
     <g transform="translate(213.193594 339.659781)scale(0.15 -0.15)">
      <defs>
       <path d="M 628 4666 
L 3578 4666 
L 3578 4134 
L 1259 4134 
L 1259 2753 
L 3481 2753 
L 3481 2222 
L 1259 2222 
L 1259 531 
L 3634 531 
L 3634 0 
L 628 0 
L 628 4666 
z
" id="DejaVuSans-45" transform="scale(0.015625)"/>
       <path d="M 1159 525 
L 1159 -1331 
L 581 -1331 
L 581 3500 
L 1159 3500 
L 1159 2969 
Q 1341 3281 1617 3432 
Q 1894 3584 2278 3584 
Q 2916 3584 3314 3078 
Q 3713 2572 3713 1747 
Q 3713 922 3314 415 
Q 2916 -91 2278 -91 
Q 1894 -91 1617 61 
Q 1341 213 1159 525 
z
M 3116 1747 
Q 3116 2381 2855 2742 
Q 2594 3103 2138 3103 
Q 1681 3103 1420 2742 
Q 1159 2381 1159 1747 
Q 1159 1113 1420 752 
Q 1681 391 2138 391 
Q 2594 391 2855 752 
Q 3116 1113 3116 1747 
z
" id="DejaVuSans-70" transform="scale(0.015625)"/>
       <path d="M 1959 3097 
Q 1497 3097 1228 2736 
Q 959 2375 959 1747 
Q 959 1119 1226 758 
Q 1494 397 1959 397 
Q 2419 397 2687 759 
Q 2956 1122 2956 1747 
Q 2956 2369 2687 2733 
Q 2419 3097 1959 3097 
z
M 1959 3584 
Q 2709 3584 3137 3096 
Q 3566 2609 3566 1747 
Q 3566 888 3137 398 
Q 2709 -91 1959 -91 
Q 1206 -91 779 398 
Q 353 888 353 1747 
Q 353 2609 779 3096 
Q 1206 3584 1959 3584 
z
" id="DejaVuSans-6f" transform="scale(0.015625)"/>
       <path d="M 3122 3366 
L 3122 2828 
Q 2878 2963 2633 3030 
Q 2388 3097 2138 3097 
Q 1578 3097 1268 2742 
Q 959 2388 959 1747 
Q 959 1106 1268 751 
Q 1578 397 2138 397 
Q 2388 397 2633 464 
Q 2878 531 3122 666 
L 3122 134 
Q 2881 22 2623 -34 
Q 2366 -91 2075 -91 
Q 1284 -91 818 406 
Q 353 903 353 1747 
Q 353 2603 823 3093 
Q 1294 3584 2113 3584 
Q 2378 3584 2631 3529 
Q 2884 3475 3122 3366 
z
" id="DejaVuSans-63" transform="scale(0.015625)"/>
       <path d="M 3513 2113 
L 3513 0 
L 2938 0 
L 2938 2094 
Q 2938 2591 2744 2837 
Q 2550 3084 2163 3084 
Q 1697 3084 1428 2787 
Q 1159 2491 1159 1978 
L 1159 0 
L 581 0 
L 581 4863 
L 1159 4863 
L 1159 2956 
Q 1366 3272 1645 3428 
Q 1925 3584 2291 3584 
Q 2894 3584 3203 3211 
Q 3513 2838 3513 2113 
z
" id="DejaVuSans-68" transform="scale(0.015625)"/>
      </defs>
      <use xlink:href="#DejaVuSans-45"/>
      <use x="63.183594" xlink:href="#DejaVuSans-70"/>
      <use x="126.660156" xlink:href="#DejaVuSans-6f"/>
      <use x="187.841797" xlink:href="#DejaVuSans-63"/>
      <use x="242.822266" xlink:href="#DejaVuSans-68"/>
     </g>
    </g>
   </g>
   <g id="matplotlib.axis_2">
    <g id="ytick_1">
     <g id="line2d_10">
      <defs>
       <path d="M 0 0 
L -3.5 0 
" id="mf74e246062" style="stroke:#000000;stroke-width:0.8;"/>
      </defs>
      <g>
       <use style="stroke:#000000;stroke-width:0.8;" x="57.6" xlink:href="#mf74e246062" y="285.558375"/>
      </g>
     </g>
     <g id="text_11">
      <!-- −1000 -->
      <g transform="translate(16.770313 289.357594)scale(0.1 -0.1)">
       <defs>
        <path d="M 678 2272 
L 4684 2272 
L 4684 1741 
L 678 1741 
L 678 2272 
z
" id="DejaVuSans-2212" transform="scale(0.015625)"/>
       </defs>
       <use xlink:href="#DejaVuSans-2212"/>
       <use x="83.789062" xlink:href="#DejaVuSans-31"/>
       <use x="147.412109" xlink:href="#DejaVuSans-30"/>
       <use x="211.035156" xlink:href="#DejaVuSans-30"/>
       <use x="274.658203" xlink:href="#DejaVuSans-30"/>
      </g>
     </g>
    </g>
    <g id="ytick_2">
     <g id="line2d_11">
      <g>
       <use style="stroke:#000000;stroke-width:0.8;" x="57.6" xlink:href="#mf74e246062" y="235.693468"/>
      </g>
     </g>
     <g id="text_12">
      <!-- −800 -->
      <g transform="translate(23.132812 239.492686)scale(0.1 -0.1)">
       <defs>
        <path d="M 2034 2216 
Q 1584 2216 1326 1975 
Q 1069 1734 1069 1313 
Q 1069 891 1326 650 
Q 1584 409 2034 409 
Q 2484 409 2743 651 
Q 3003 894 3003 1313 
Q 3003 1734 2745 1975 
Q 2488 2216 2034 2216 
z
M 1403 2484 
Q 997 2584 770 2862 
Q 544 3141 544 3541 
Q 544 4100 942 4425 
Q 1341 4750 2034 4750 
Q 2731 4750 3128 4425 
Q 3525 4100 3525 3541 
Q 3525 3141 3298 2862 
Q 3072 2584 2669 2484 
Q 3125 2378 3379 2068 
Q 3634 1759 3634 1313 
Q 3634 634 3220 271 
Q 2806 -91 2034 -91 
Q 1263 -91 848 271 
Q 434 634 434 1313 
Q 434 1759 690 2068 
Q 947 2378 1403 2484 
z
M 1172 3481 
Q 1172 3119 1398 2916 
Q 1625 2713 2034 2713 
Q 2441 2713 2670 2916 
Q 2900 3119 2900 3481 
Q 2900 3844 2670 4047 
Q 2441 4250 2034 4250 
Q 1625 4250 1398 4047 
Q 1172 3844 1172 3481 
z
" id="DejaVuSans-38" transform="scale(0.015625)"/>
       </defs>
       <use xlink:href="#DejaVuSans-2212"/>
       <use x="83.789062" xlink:href="#DejaVuSans-38"/>
       <use x="147.412109" xlink:href="#DejaVuSans-30"/>
       <use x="211.035156" xlink:href="#DejaVuSans-30"/>
      </g>
     </g>
    </g>
    <g id="ytick_3">
     <g id="line2d_12">
      <g>
       <use style="stroke:#000000;stroke-width:0.8;" x="57.6" xlink:href="#mf74e246062" y="185.82856"/>
      </g>
     </g>
     <g id="text_13">
      <!-- −600 -->
      <g transform="translate(23.132812 189.627779)scale(0.1 -0.1)">
       <defs>
        <path d="M 2113 2584 
Q 1688 2584 1439 2293 
Q 1191 2003 1191 1497 
Q 1191 994 1439 701 
Q 1688 409 2113 409 
Q 2538 409 2786 701 
Q 3034 994 3034 1497 
Q 3034 2003 2786 2293 
Q 2538 2584 2113 2584 
z
M 3366 4563 
L 3366 3988 
Q 3128 4100 2886 4159 
Q 2644 4219 2406 4219 
Q 1781 4219 1451 3797 
Q 1122 3375 1075 2522 
Q 1259 2794 1537 2939 
Q 1816 3084 2150 3084 
Q 2853 3084 3261 2657 
Q 3669 2231 3669 1497 
Q 3669 778 3244 343 
Q 2819 -91 2113 -91 
Q 1303 -91 875 529 
Q 447 1150 447 2328 
Q 447 3434 972 4092 
Q 1497 4750 2381 4750 
Q 2619 4750 2861 4703 
Q 3103 4656 3366 4563 
z
" id="DejaVuSans-36" transform="scale(0.015625)"/>
       </defs>
       <use xlink:href="#DejaVuSans-2212"/>
       <use x="83.789062" xlink:href="#DejaVuSans-36"/>
       <use x="147.412109" xlink:href="#DejaVuSans-30"/>
       <use x="211.035156" xlink:href="#DejaVuSans-30"/>
      </g>
     </g>
    </g>
    <g id="ytick_4">
     <g id="line2d_13">
      <g>
       <use style="stroke:#000000;stroke-width:0.8;" x="57.6" xlink:href="#mf74e246062" y="135.963653"/>
      </g>
     </g>
     <g id="text_14">
      <!-- −400 -->
      <g transform="translate(23.132812 139.762872)scale(0.1 -0.1)">
       <use xlink:href="#DejaVuSans-2212"/>
       <use x="83.789062" xlink:href="#DejaVuSans-34"/>
       <use x="147.412109" xlink:href="#DejaVuSans-30"/>
       <use x="211.035156" xlink:href="#DejaVuSans-30"/>
      </g>
     </g>
    </g>
    <g id="ytick_5">
     <g id="line2d_14">
      <g>
       <use style="stroke:#000000;stroke-width:0.8;" x="57.6" xlink:href="#mf74e246062" y="86.098746"/>
      </g>
     </g>
     <g id="text_15">
      <!-- −200 -->
      <g transform="translate(23.132812 89.897964)scale(0.1 -0.1)">
       <use xlink:href="#DejaVuSans-2212"/>
       <use x="83.789062" xlink:href="#DejaVuSans-32"/>
       <use x="147.412109" xlink:href="#DejaVuSans-30"/>
       <use x="211.035156" xlink:href="#DejaVuSans-30"/>
      </g>
     </g>
    </g>
    <g id="text_16">
     <!-- Loss -->
     <g transform="translate(9.650781 190.978781)rotate(-90)scale(0.15 -0.15)">
      <defs>
       <path d="M 628 4666 
L 1259 4666 
L 1259 531 
L 3531 531 
L 3531 0 
L 628 0 
L 628 4666 
z
" id="DejaVuSans-4c" transform="scale(0.015625)"/>
       <path d="M 2834 3397 
L 2834 2853 
Q 2591 2978 2328 3040 
Q 2066 3103 1784 3103 
Q 1356 3103 1142 2972 
Q 928 2841 928 2578 
Q 928 2378 1081 2264 
Q 1234 2150 1697 2047 
L 1894 2003 
Q 2506 1872 2764 1633 
Q 3022 1394 3022 966 
Q 3022 478 2636 193 
Q 2250 -91 1575 -91 
Q 1294 -91 989 -36 
Q 684 19 347 128 
L 347 722 
Q 666 556 975 473 
Q 1284 391 1588 391 
Q 1994 391 2212 530 
Q 2431 669 2431 922 
Q 2431 1156 2273 1281 
Q 2116 1406 1581 1522 
L 1381 1569 
Q 847 1681 609 1914 
Q 372 2147 372 2553 
Q 372 3047 722 3315 
Q 1072 3584 1716 3584 
Q 2034 3584 2315 3537 
Q 2597 3491 2834 3397 
z
" id="DejaVuSans-73" transform="scale(0.015625)"/>
      </defs>
      <use xlink:href="#DejaVuSans-4c"/>
      <use x="53.962891" xlink:href="#DejaVuSans-6f"/>
      <use x="115.144531" xlink:href="#DejaVuSans-73"/>
      <use x="167.244141" xlink:href="#DejaVuSans-73"/>
     </g>
    </g>
   </g>
   <g id="line2d_15">
    <path clip-path="url(#p20f85fea3c)" d="M 73.832727 53.568 
L 74.646398 109.956306 
L 75.460068 134.487888 
L 76.273739 130.214809 
L 77.90108 148.897495 
L 78.714751 146.131792 
L 79.528421 155.367845 
L 80.342092 166.447985 
L 81.155762 163.137818 
L 81.969433 163.953464 
L 82.783103 177.075398 
L 83.596774 166.510873 
L 85.224115 181.429577 
L 86.037785 183.732777 
L 86.851456 190.522769 
L 87.665126 189.657387 
L 88.478797 177.797296 
L 89.292468 192.886827 
L 90.106138 192.105102 
L 90.919809 195.24756 
L 91.733479 209.981941 
L 92.54715 209.907993 
L 93.36082 194.843863 
L 94.174491 206.817327 
L 94.988161 200.935696 
L 95.801832 208.922614 
L 96.615502 194.453124 
L 97.429173 201.325203 
L 98.242843 212.967956 
L 99.056514 213.348914 
L 99.870185 213.429084 
L 100.683855 176.862494 
L 101.497526 208.665125 
L 102.311196 216.344804 
L 103.124867 219.238832 
L 103.938537 211.197892 
L 104.752208 223.330007 
L 105.565878 225.719081 
L 106.379549 223.765714 
L 108.00689 230.108795 
L 108.82056 214.87375 
L 109.634231 226.426838 
L 110.447902 229.519522 
L 111.261572 226.609641 
L 112.075243 236.653476 
L 112.888913 232.402821 
L 113.702584 235.447711 
L 114.516254 224.591766 
L 115.329925 233.914643 
L 116.143595 233.088222 
L 116.957266 220.044401 
L 117.770936 239.254861 
L 118.584607 234.835438 
L 119.398278 229.413745 
L 120.211948 245.338469 
L 121.025619 221.977405 
L 121.839289 225.075183 
L 122.65296 240.481262 
L 123.46663 239.289956 
L 124.280301 235.797607 
L 125.907642 244.039708 
L 126.721312 239.713617 
L 127.534983 242.838233 
L 128.348653 231.803153 
L 129.162324 246.471621 
L 129.975995 247.098017 
L 130.789665 233.885061 
L 131.603336 243.471018 
L 132.417006 244.820628 
L 133.230677 239.47304 
L 134.044347 240.051666 
L 134.858018 249.631175 
L 135.671688 241.523178 
L 136.485359 234.707717 
L 137.299029 251.63897 
L 138.92637 237.863215 
L 139.740041 239.546131 
L 140.553712 252.685094 
L 141.367382 249.098222 
L 142.181053 241.076904 
L 142.994723 253.554997 
L 143.808394 237.178739 
L 144.622064 244.137601 
L 145.435735 260.337674 
L 147.063076 237.195627 
L 147.876746 241.684147 
L 148.690417 245.026328 
L 149.504087 252.719773 
L 150.317758 248.112653 
L 151.131429 247.96742 
L 151.945099 248.213511 
L 152.75877 255.038068 
L 153.57244 244.613484 
L 154.386111 246.443479 
L 155.199781 244.337382 
L 156.013452 241.861024 
L 156.827122 238.396347 
L 157.640793 252.919199 
L 158.454463 248.717906 
L 159.268134 248.647377 
L 160.895475 261.777432 
L 161.709146 262.087105 
L 162.522816 251.976752 
L 163.336487 247.671513 
L 164.150157 249.199156 
L 164.963828 248.095694 
L 165.777498 245.72291 
L 166.591169 247.519627 
L 167.404839 247.672131 
L 168.21851 248.004972 
L 169.03218 255.584723 
L 169.845851 242.352925 
L 170.659522 243.005598 
L 171.473192 251.548004 
L 172.286863 247.782644 
L 173.100533 258.612894 
L 173.914204 251.227024 
L 174.727874 254.16446 
L 175.541545 257.909392 
L 176.355215 252.165426 
L 177.168886 255.26645 
L 177.982556 256.903283 
L 178.796227 254.21474 
L 179.609897 257.597402 
L 180.423568 266.173469 
L 181.237239 247.743384 
L 182.050909 258.87849 
L 182.86458 246.591056 
L 183.67825 261.577282 
L 184.491921 259.753894 
L 185.305591 268.274128 
L 186.119262 255.343807 
L 186.932932 255.359114 
L 188.560273 265.537418 
L 189.373944 256.869301 
L 190.187614 257.565825 
L 191.001285 252.289554 
L 191.814956 252.351571 
L 192.628626 243.939938 
L 193.442297 249.50258 
L 194.255967 256.434047 
L 195.069638 257.67724 
L 195.883308 256.985073 
L 196.696979 264.488658 
L 197.510649 268.099026 
L 198.32432 259.95948 
L 199.13799 262.554797 
L 199.951661 256.153616 
L 200.765332 261.113469 
L 201.579002 262.209173 
L 202.392673 270.053483 
L 203.206343 261.956141 
L 204.020014 265.660975 
L 204.833684 261.106703 
L 205.647355 260.361964 
L 206.461025 262.436745 
L 207.274696 254.981372 
L 208.088366 275.571125 
L 208.902037 258.864949 
L 209.715707 268.989095 
L 210.529378 257.7834 
L 211.343049 262.886201 
L 212.156719 271.213476 
L 212.97039 268.236505 
L 214.597731 253.650696 
L 215.411401 265.518824 
L 217.038742 258.237276 
L 217.852413 256.634409 
L 218.666083 268.637622 
L 219.479754 258.244829 
L 220.293424 271.5704 
L 221.107095 266.584335 
L 221.920766 257.570327 
L 222.734436 255.283403 
L 223.548107 265.058732 
L 224.361777 254.241296 
L 225.175448 258.470638 
L 225.989118 272.115757 
L 226.802789 260.775706 
L 227.616459 268.223516 
L 228.43013 269.97861 
L 229.2438 260.704591 
L 230.057471 261.119406 
L 230.871141 265.183628 
L 231.684812 271.273003 
L 232.498483 254.95192 
L 233.312153 258.508678 
L 234.125824 267.2088 
L 234.939494 270.107215 
L 235.753165 266.707459 
L 236.566835 272.289978 
L 237.380506 263.527979 
L 238.194176 267.782879 
L 239.821517 274.884403 
L 240.635188 273.623487 
L 241.448859 262.128939 
L 242.262529 258.166312 
L 243.88987 278.669826 
L 244.703541 269.780341 
L 245.517211 262.714245 
L 246.330882 268.63472 
L 247.144552 266.091223 
L 247.958223 269.626394 
L 248.771893 264.070219 
L 249.585564 267.249242 
L 250.399234 282.255034 
L 251.212905 269.391351 
L 252.026576 261.253865 
L 252.840246 277.621305 
L 253.653917 275.252668 
L 254.467587 278.790651 
L 255.281258 269.365028 
L 256.094928 261.551712 
L 256.908599 269.889204 
L 257.722269 262.004843 
L 258.53594 282.113448 
L 259.34961 267.507275 
L 260.163281 276.548097 
L 260.976951 264.075402 
L 261.790622 273.533756 
L 262.604293 278.99626 
L 263.417963 262.878528 
L 264.231634 271.747697 
L 265.045304 276.237283 
L 266.672645 270.6146 
L 267.486316 270.087249 
L 269.113657 280.008601 
L 269.927327 276.535146 
L 270.740998 269.953852 
L 271.554668 264.368069 
L 272.368339 279.297423 
L 273.18201 274.837443 
L 273.99568 281.406021 
L 274.809351 281.476619 
L 275.623021 287.118482 
L 276.436692 272.57731 
L 277.250362 268.62776 
L 278.064033 270.31792 
L 278.877703 286.33297 
L 279.691374 276.133223 
L 280.505044 280.928522 
L 281.318715 266.789404 
L 282.132386 281.846508 
L 282.946056 265.940647 
L 283.759727 282.289875 
L 284.573397 267.300068 
L 285.387068 267.335343 
L 286.200738 271.083079 
L 287.014409 273.845852 
L 287.828079 282.551303 
L 288.64175 265.258337 
L 289.45542 278.515732 
L 290.269091 277.558106 
L 291.082761 286.396731 
L 291.896432 271.174597 
L 292.710103 272.621733 
L 293.523773 282.583581 
L 294.337444 269.99661 
L 295.151114 271.080875 
L 295.964785 279.429643 
L 296.778455 277.78926 
L 297.592126 275.561192 
L 298.405796 276.464113 
L 299.219467 270.405658 
L 300.033137 268.903653 
L 300.846808 288.912996 
L 301.660478 278.701592 
L 302.474149 262.797324 
L 303.28782 268.951023 
L 304.10149 279.054801 
L 304.915161 293.101863 
L 305.728831 287.26818 
L 306.542502 274.786542 
L 307.356172 272.867342 
L 308.169843 277.721535 
L 308.983513 270.769181 
L 309.797184 271.065861 
L 310.610854 270.784888 
L 311.424525 278.81843 
L 312.238195 278.268082 
L 313.051866 279.199783 
L 313.865537 265.437837 
L 314.679207 282.536605 
L 315.492878 282.763696 
L 316.306548 282.191171 
L 317.120219 266.990508 
L 317.933889 263.898226 
L 318.74756 280.99418 
L 319.56123 292.343941 
L 321.188571 268.019228 
L 322.002242 284.891953 
L 322.815913 276.131079 
L 323.629583 289.955785 
L 324.443254 277.596899 
L 325.256924 283.922269 
L 326.070595 278.810757 
L 326.884265 291.679991 
L 327.697936 283.050934 
L 328.511606 278.742751 
L 329.325277 262.158599 
L 330.138947 271.162262 
L 330.952618 283.814037 
L 331.766288 277.858031 
L 332.579959 274.185534 
L 333.39363 269.545002 
L 334.2073 278.459415 
L 335.020971 280.474534 
L 335.834641 287.011561 
L 336.648312 288.547815 
L 337.461982 277.543056 
L 338.275653 284.417963 
L 339.089323 284.033735 
L 339.902994 276.819071 
L 341.530335 283.165921 
L 343.157676 284.083762 
L 343.971347 283.60357 
L 344.785017 279.241593 
L 345.598688 286.801342 
L 346.412358 279.045625 
L 347.226029 284.430951 
L 348.039699 273.813543 
L 348.85337 283.733355 
L 350.480711 278.072254 
L 351.294381 269.201877 
L 352.108052 277.887359 
L 352.921722 277.961894 
L 353.735393 275.297974 
L 354.549064 281.001248 
L 355.362734 280.009657 
L 356.176405 270.364547 
L 356.990075 287.521656 
L 357.803746 276.995105 
L 358.617416 283.038816 
L 359.431087 286.382294 
L 360.244757 282.624817 
L 361.058428 283.430374 
L 361.872098 284.515425 
L 362.685769 286.551632 
L 363.49944 282.466828 
L 364.31311 277.287832 
L 365.126781 281.938287 
L 365.940451 277.804602 
L 366.754122 282.304867 
L 367.567792 282.86334 
L 368.381463 276.09138 
L 369.195133 273.212568 
L 370.008804 272.398401 
L 370.822474 281.089441 
L 371.636145 275.654327 
L 372.449815 279.080462 
L 373.263486 280.100975 
L 374.077157 287.602414 
L 374.890827 290.11265 
L 375.704498 278.154148 
L 376.518168 283.976348 
L 377.331839 274.778319 
L 378.145509 275.385962 
L 378.95918 282.024503 
L 379.77285 273.059586 
L 380.586521 282.838246 
L 381.400191 295.488 
L 382.213862 283.273573 
L 383.027532 284.199702 
L 383.841203 292.599658 
L 384.654874 281.142374 
L 385.468544 258.269203 
L 386.282215 280.341549 
L 387.095885 277.199628 
L 387.909556 279.63527 
L 388.723226 273.956825 
L 389.536897 280.069656 
L 390.350567 290.804765 
L 391.164238 278.267239 
L 391.977908 282.043392 
L 392.791579 279.217291 
L 393.605249 287.300095 
L 394.41892 285.35747 
L 396.046261 272.090618 
L 396.859932 269.953959 
L 397.673602 290.355246 
L 398.487273 279.169459 
L 398.487273 279.169459 
" style="fill:none;stroke:#1f77b4;stroke-linecap:square;stroke-width:1.5;"/>
   </g>
   <g id="line2d_16">
    <path clip-path="url(#p20f85fea3c)" d="M 73.832727 58.243308 
L 74.646398 130.889572 
L 75.460068 133.973346 
L 76.273739 145.825022 
L 77.087409 150.947786 
L 77.90108 142.772999 
L 78.714751 148.876763 
L 79.528421 160.638461 
L 80.342092 166.690986 
L 81.155762 143.881903 
L 81.969433 167.188737 
L 82.783103 181.712784 
L 83.596774 181.334501 
L 84.410444 183.846939 
L 85.224115 184.848935 
L 86.037785 184.598878 
L 86.851456 189.876353 
L 87.665126 196.51493 
L 88.478797 190.352645 
L 89.292468 192.801715 
L 90.106138 205.171875 
L 90.919809 193.320251 
L 91.733479 203.268238 
L 92.54715 204.224393 
L 93.36082 204.258791 
L 94.174491 212.071385 
L 94.988161 191.795326 
L 95.801832 210.453264 
L 96.615502 206.434746 
L 97.429173 210.017469 
L 98.242843 201.004642 
L 99.870185 217.379576 
L 100.683855 210.617124 
L 101.497526 217.048463 
L 102.311196 214.779573 
L 103.124867 215.423721 
L 103.938537 205.940318 
L 104.752208 216.318357 
L 105.565878 213.253489 
L 106.379549 221.760755 
L 107.193219 226.612489 
L 108.00689 221.342225 
L 108.82056 224.477434 
L 109.634231 220.816753 
L 110.447902 218.220061 
L 111.261572 229.654452 
L 112.075243 230.338816 
L 112.888913 234.759275 
L 113.702584 234.342929 
L 114.516254 228.103984 
L 115.329925 236.861123 
L 116.143595 233.677875 
L 116.957266 228.414247 
L 117.770936 235.312021 
L 118.584607 237.34005 
L 119.398278 228.466922 
L 120.211948 238.205814 
L 121.025619 239.489197 
L 121.839289 222.760939 
L 122.65296 237.262775 
L 123.46663 225.674124 
L 124.280301 239.800906 
L 125.093971 235.723432 
L 125.907642 241.898006 
L 126.721312 230.954253 
L 127.534983 237.273494 
L 128.348653 240.027643 
L 129.162324 234.325876 
L 129.975995 246.300778 
L 130.789665 236.057469 
L 131.603336 228.235168 
L 132.417006 233.664246 
L 133.230677 241.806208 
L 134.044347 240.570266 
L 134.858018 245.585581 
L 135.671688 242.138052 
L 136.485359 243.83677 
L 137.299029 244.042486 
L 138.1127 234.744007 
L 138.92637 237.699372 
L 139.740041 243.470543 
L 140.553712 246.115733 
L 141.367382 244.091882 
L 142.181053 251.537372 
L 142.994723 243.351013 
L 143.808394 238.507081 
L 144.622064 248.741794 
L 145.435735 201.143268 
L 146.249405 251.036853 
L 147.063076 243.075219 
L 147.876746 241.905042 
L 148.690417 238.413189 
L 149.504087 251.320884 
L 150.317758 240.14039 
L 151.131429 251.782946 
L 151.945099 252.903712 
L 152.75877 251.606447 
L 153.57244 238.554678 
L 154.386111 238.333553 
L 155.199781 250.26349 
L 156.013452 247.764874 
L 156.827122 244.192871 
L 157.640793 254.553411 
L 158.454463 245.459724 
L 159.268134 253.414415 
L 160.081805 248.462433 
L 160.895475 252.724114 
L 161.709146 255.696933 
L 162.522816 250.010812 
L 163.336487 253.150295 
L 164.150157 242.724734 
L 164.963828 248.072974 
L 165.777498 252.087724 
L 166.591169 250.738362 
L 167.404839 248.007476 
L 168.21851 257.507826 
L 169.03218 254.167853 
L 169.845851 252.474991 
L 170.659522 237.639651 
L 171.473192 252.664527 
L 172.286863 247.776909 
L 173.100533 253.968949 
L 173.914204 258.814301 
L 174.727874 255.760414 
L 175.541545 257.64977 
L 176.355215 249.393507 
L 177.168886 254.073656 
L 177.982556 263.502471 
L 178.796227 255.385101 
L 179.609897 251.239884 
L 180.423568 244.200945 
L 181.237239 249.101999 
L 182.050909 263.366354 
L 182.86458 252.35239 
L 183.67825 250.975079 
L 184.491921 256.404851 
L 185.305591 259.239028 
L 186.119262 250.748443 
L 186.932932 263.336133 
L 187.746603 249.936716 
L 188.560273 253.38849 
L 189.373944 247.086259 
L 190.187614 247.494223 
L 191.001285 251.146243 
L 191.814956 265.132857 
L 192.628626 256.360176 
L 193.442297 261.19071 
L 194.255967 258.549209 
L 195.069638 261.996524 
L 195.883308 247.451011 
L 196.696979 258.292565 
L 197.510649 263.617608 
L 198.32432 252.240583 
L 199.13799 262.894618 
L 199.951661 254.709442 
L 200.765332 259.620927 
L 202.392673 257.780005 
L 203.206343 259.862688 
L 204.020014 259.239744 
L 204.833684 266.879627 
L 205.647355 261.031807 
L 206.461025 259.597891 
L 207.274696 265.920967 
L 208.088366 267.392985 
L 208.902037 262.336738 
L 209.715707 259.803852 
L 210.529378 258.893973 
L 211.343049 260.060527 
L 212.156719 258.638531 
L 212.97039 266.303934 
L 213.78406 269.127952 
L 214.597731 261.475492 
L 215.411401 264.754765 
L 216.225072 248.175564 
L 217.038742 254.106257 
L 217.852413 258.06048 
L 218.666083 267.899213 
L 219.479754 262.127323 
L 220.293424 259.796706 
L 221.107095 264.379417 
L 221.920766 259.700697 
L 222.734436 260.503024 
L 223.548107 266.064973 
L 224.361777 261.277554 
L 225.175448 248.433935 
L 225.989118 262.054534 
L 226.802789 264.150709 
L 227.616459 261.418167 
L 228.43013 263.599879 
L 229.2438 260.207695 
L 230.057471 265.196376 
L 231.684812 259.950758 
L 232.498483 258.131884 
L 233.312153 263.60344 
L 234.125824 268.211031 
L 234.939494 258.151749 
L 235.753165 253.254745 
L 236.566835 272.043979 
L 237.380506 258.454117 
L 238.194176 277.302083 
L 239.007847 266.925801 
L 239.821517 270.450323 
L 240.635188 259.460348 
L 241.448859 262.116601 
L 242.262529 266.503059 
L 243.0762 274.857782 
L 245.517211 263.893402 
L 246.330882 270.686013 
L 247.144552 267.734209 
L 247.958223 266.100633 
L 248.771893 269.381548 
L 249.585564 268.353767 
L 250.399234 272.670849 
L 251.212905 265.747966 
L 252.026576 262.012123 
L 252.840246 269.629606 
L 253.653917 269.770982 
L 254.467587 255.91289 
L 255.281258 258.033234 
L 256.094928 267.000626 
L 256.908599 274.544865 
L 257.722269 264.602432 
L 258.53594 262.369621 
L 259.34961 270.924303 
L 260.163281 268.519871 
L 260.976951 268.619999 
L 261.790622 272.550394 
L 262.604293 266.239112 
L 263.417963 263.221034 
L 264.231634 269.340547 
L 265.045304 274.303121 
L 265.858975 267.293219 
L 266.672645 268.415643 
L 267.486316 281.313001 
L 268.299986 271.10867 
L 269.113657 269.346734 
L 269.927327 267.861418 
L 270.740998 263.097932 
L 271.554668 272.549236 
L 272.368339 271.922551 
L 273.18201 272.360077 
L 273.99568 265.3103 
L 275.623021 277.926778 
L 276.436692 270.968343 
L 277.250362 271.328937 
L 278.064033 277.352794 
L 278.877703 263.535992 
L 279.691374 270.510958 
L 280.505044 273.92206 
L 281.318715 274.537077 
L 282.132386 268.414139 
L 282.946056 277.598995 
L 283.759727 274.42722 
L 284.573397 272.865995 
L 285.387068 270.984618 
L 286.200738 280.506088 
L 287.014409 285.875103 
L 288.64175 268.758494 
L 289.45542 282.684383 
L 290.269091 268.496276 
L 291.082761 271.761396 
L 291.896432 267.086487 
L 292.710103 281.006003 
L 293.523773 276.318492 
L 294.337444 251.314688 
L 295.151114 272.165686 
L 295.964785 277.222181 
L 296.778455 279.200232 
L 297.592126 270.246074 
L 298.405796 264.18339 
L 299.219467 268.956439 
L 300.846808 282.228102 
L 301.660478 273.185989 
L 302.474149 273.493631 
L 303.28782 276.163905 
L 304.10149 273.705103 
L 304.915161 276.714507 
L 305.728831 278.567478 
L 306.542502 271.518005 
L 307.356172 268.481093 
L 308.169843 273.678043 
L 308.983513 284.89382 
L 309.797184 278.008109 
L 310.610854 266.76224 
L 311.424525 279.609555 
L 312.238195 272.463494 
L 313.051866 276.244375 
L 313.865537 275.841231 
L 314.679207 271.843083 
L 315.492878 269.537301 
L 316.306548 269.859691 
L 317.120219 265.44986 
L 317.933889 286.264527 
L 318.74756 280.960085 
L 319.56123 282.697536 
L 320.374901 271.905364 
L 321.188571 282.780195 
L 322.002242 278.001452 
L 322.815913 275.632736 
L 323.629583 272.555084 
L 324.443254 270.981903 
L 325.256924 285.137358 
L 326.070595 270.118809 
L 326.884265 274.624148 
L 327.697936 274.811932 
L 328.511606 284.260334 
L 329.325277 278.230993 
L 330.138947 273.553208 
L 330.952618 266.83717 
L 331.766288 278.647495 
L 332.579959 269.250826 
L 333.39363 271.941618 
L 334.2073 278.51399 
L 335.020971 279.176489 
L 335.834641 284.827698 
L 336.648312 283.580848 
L 337.461982 284.378038 
L 338.275653 279.106136 
L 339.089323 274.613596 
L 339.902994 277.909851 
L 340.716664 283.199754 
L 341.530335 268.803005 
L 342.344005 272.361976 
L 343.157676 277.530979 
L 343.971347 290.00192 
L 344.785017 272.797623 
L 345.598688 279.64061 
L 346.412358 282.727539 
L 347.226029 280.50135 
L 348.039699 279.739551 
L 348.85337 283.124312 
L 349.66704 271.228991 
L 350.480711 268.472721 
L 351.294381 269.565094 
L 352.108052 284.859993 
L 352.921722 279.903668 
L 353.735393 282.117503 
L 354.549064 279.933996 
L 355.362734 278.902357 
L 356.176405 275.207796 
L 356.990075 279.406006 
L 357.803746 270.097679 
L 358.617416 274.877326 
L 359.431087 284.362042 
L 360.244757 260.533329 
L 361.058428 275.202368 
L 361.872098 276.48158 
L 362.685769 276.743646 
L 363.49944 269.030635 
L 364.31311 283.087491 
L 365.126781 273.469179 
L 366.754122 278.511068 
L 367.567792 263.982038 
L 368.381463 265.722079 
L 369.195133 272.738699 
L 370.008804 277.725033 
L 370.822474 279.772191 
L 371.636145 272.486163 
L 372.449815 278.660457 
L 373.263486 278.489572 
L 374.077157 282.235599 
L 374.890827 249.137497 
L 375.704498 278.387094 
L 376.518168 267.80492 
L 377.331839 285.359677 
L 378.145509 276.094349 
L 378.95918 280.399922 
L 379.77285 272.081166 
L 380.586521 286.443298 
L 381.400191 276.282637 
L 382.213862 272.921894 
L 383.027532 273.471061 
L 383.841203 265.301052 
L 384.654874 277.041212 
L 385.468544 259.290502 
L 386.282215 273.727083 
L 387.095885 278.934339 
L 387.909556 276.065439 
L 388.723226 279.093632 
L 389.536897 276.24366 
L 390.350567 275.629593 
L 391.164238 277.274294 
L 391.977908 282.937727 
L 392.791579 276.217826 
L 393.605249 271.315668 
L 394.41892 281.79566 
L 395.232591 273.82418 
L 396.046261 289.559444 
L 396.859932 277.262731 
L 397.673602 269.730607 
L 398.487273 284.216138 
L 398.487273 284.216138 
" style="fill:none;stroke:#ff7f0e;stroke-linecap:square;stroke-width:1.5;"/>
   </g>
   <g id="patch_3">
    <path d="M 57.6 307.584 
L 57.6 41.472 
" style="fill:none;stroke:#000000;stroke-linecap:square;stroke-linejoin:miter;stroke-width:0.8;"/>
   </g>
   <g id="patch_4">
    <path d="M 414.72 307.584 
L 414.72 41.472 
" style="fill:none;stroke:#000000;stroke-linecap:square;stroke-linejoin:miter;stroke-width:0.8;"/>
   </g>
   <g id="patch_5">
    <path d="M 57.6 307.584 
L 414.72 307.584 
" style="fill:none;stroke:#000000;stroke-linecap:square;stroke-linejoin:miter;stroke-width:0.8;"/>
   </g>
   <g id="patch_6">
    <path d="M 57.6 41.472 
L 414.72 41.472 
" style="fill:none;stroke:#000000;stroke-linecap:square;stroke-linejoin:miter;stroke-width:0.8;"/>
   </g>
   <g id="legend_1">
    <g id="patch_7">
     <path d="M 303.845 78.82825 
L 407.72 78.82825 
Q 409.72 78.82825 409.72 76.82825 
L 409.72 48.472 
Q 409.72 46.472 407.72 46.472 
L 303.845 46.472 
Q 301.845 46.472 301.845 48.472 
L 301.845 76.82825 
Q 301.845 78.82825 303.845 78.82825 
z
" style="fill:#ffffff;opacity:0.8;stroke:#cccccc;stroke-linejoin:miter;"/>
    </g>
    <g id="line2d_17">
     <path d="M 305.845 54.570437 
L 325.845 54.570437 
" style="fill:none;stroke:#1f77b4;stroke-linecap:square;stroke-width:1.5;"/>
    </g>
    <g id="line2d_18"/>
    <g id="text_17">
     <!-- Train loss -->
     <g transform="translate(333.845 58.070437)scale(0.1 -0.1)">
      <defs>
       <path d="M -19 4666 
L 3928 4666 
L 3928 4134 
L 2272 4134 
L 2272 0 
L 1638 0 
L 1638 4134 
L -19 4134 
L -19 4666 
z
" id="DejaVuSans-54" transform="scale(0.015625)"/>
       <path d="M 2631 2963 
Q 2534 3019 2420 3045 
Q 2306 3072 2169 3072 
Q 1681 3072 1420 2755 
Q 1159 2438 1159 1844 
L 1159 0 
L 581 0 
L 581 3500 
L 1159 3500 
L 1159 2956 
Q 1341 3275 1631 3429 
Q 1922 3584 2338 3584 
Q 2397 3584 2469 3576 
Q 2541 3569 2628 3553 
L 2631 2963 
z
" id="DejaVuSans-72" transform="scale(0.015625)"/>
       <path d="M 2194 1759 
Q 1497 1759 1228 1600 
Q 959 1441 959 1056 
Q 959 750 1161 570 
Q 1363 391 1709 391 
Q 2188 391 2477 730 
Q 2766 1069 2766 1631 
L 2766 1759 
L 2194 1759 
z
M 3341 1997 
L 3341 0 
L 2766 0 
L 2766 531 
Q 2569 213 2275 61 
Q 1981 -91 1556 -91 
Q 1019 -91 701 211 
Q 384 513 384 1019 
Q 384 1609 779 1909 
Q 1175 2209 1959 2209 
L 2766 2209 
L 2766 2266 
Q 2766 2663 2505 2880 
Q 2244 3097 1772 3097 
Q 1472 3097 1187 3025 
Q 903 2953 641 2809 
L 641 3341 
Q 956 3463 1253 3523 
Q 1550 3584 1831 3584 
Q 2591 3584 2966 3190 
Q 3341 2797 3341 1997 
z
" id="DejaVuSans-61" transform="scale(0.015625)"/>
       <path d="M 603 3500 
L 1178 3500 
L 1178 0 
L 603 0 
L 603 3500 
z
M 603 4863 
L 1178 4863 
L 1178 4134 
L 603 4134 
L 603 4863 
z
" id="DejaVuSans-69" transform="scale(0.015625)"/>
       <path d="M 3513 2113 
L 3513 0 
L 2938 0 
L 2938 2094 
Q 2938 2591 2744 2837 
Q 2550 3084 2163 3084 
Q 1697 3084 1428 2787 
Q 1159 2491 1159 1978 
L 1159 0 
L 581 0 
L 581 3500 
L 1159 3500 
L 1159 2956 
Q 1366 3272 1645 3428 
Q 1925 3584 2291 3584 
Q 2894 3584 3203 3211 
Q 3513 2838 3513 2113 
z
" id="DejaVuSans-6e" transform="scale(0.015625)"/>
       <path id="DejaVuSans-20" transform="scale(0.015625)"/>
       <path d="M 603 4863 
L 1178 4863 
L 1178 0 
L 603 0 
L 603 4863 
z
" id="DejaVuSans-6c" transform="scale(0.015625)"/>
      </defs>
      <use xlink:href="#DejaVuSans-54"/>
      <use x="46.333984" xlink:href="#DejaVuSans-72"/>
      <use x="87.447266" xlink:href="#DejaVuSans-61"/>
      <use x="148.726562" xlink:href="#DejaVuSans-69"/>
      <use x="176.509766" xlink:href="#DejaVuSans-6e"/>
      <use x="239.888672" xlink:href="#DejaVuSans-20"/>
      <use x="271.675781" xlink:href="#DejaVuSans-6c"/>
      <use x="299.458984" xlink:href="#DejaVuSans-6f"/>
      <use x="360.640625" xlink:href="#DejaVuSans-73"/>
      <use x="412.740234" xlink:href="#DejaVuSans-73"/>
     </g>
    </g>
    <g id="line2d_19">
     <path d="M 305.845 69.248562 
L 325.845 69.248562 
" style="fill:none;stroke:#ff7f0e;stroke-linecap:square;stroke-width:1.5;"/>
    </g>
    <g id="line2d_20"/>
    <g id="text_18">
     <!-- Validation loss -->
     <g transform="translate(333.845 72.748562)scale(0.1 -0.1)">
      <defs>
       <path d="M 1831 0 
L 50 4666 
L 709 4666 
L 2188 738 
L 3669 4666 
L 4325 4666 
L 2547 0 
L 1831 0 
z
" id="DejaVuSans-56" transform="scale(0.015625)"/>
       <path d="M 2906 2969 
L 2906 4863 
L 3481 4863 
L 3481 0 
L 2906 0 
L 2906 525 
Q 2725 213 2448 61 
Q 2172 -91 1784 -91 
Q 1150 -91 751 415 
Q 353 922 353 1747 
Q 353 2572 751 3078 
Q 1150 3584 1784 3584 
Q 2172 3584 2448 3432 
Q 2725 3281 2906 2969 
z
M 947 1747 
Q 947 1113 1208 752 
Q 1469 391 1925 391 
Q 2381 391 2643 752 
Q 2906 1113 2906 1747 
Q 2906 2381 2643 2742 
Q 2381 3103 1925 3103 
Q 1469 3103 1208 2742 
Q 947 2381 947 1747 
z
" id="DejaVuSans-64" transform="scale(0.015625)"/>
       <path d="M 1172 4494 
L 1172 3500 
L 2356 3500 
L 2356 3053 
L 1172 3053 
L 1172 1153 
Q 1172 725 1289 603 
Q 1406 481 1766 481 
L 2356 481 
L 2356 0 
L 1766 0 
Q 1100 0 847 248 
Q 594 497 594 1153 
L 594 3053 
L 172 3053 
L 172 3500 
L 594 3500 
L 594 4494 
L 1172 4494 
z
" id="DejaVuSans-74" transform="scale(0.015625)"/>
      </defs>
      <use xlink:href="#DejaVuSans-56"/>
      <use x="60.658203" xlink:href="#DejaVuSans-61"/>
      <use x="121.9375" xlink:href="#DejaVuSans-6c"/>
      <use x="149.720703" xlink:href="#DejaVuSans-69"/>
      <use x="177.503906" xlink:href="#DejaVuSans-64"/>
      <use x="240.980469" xlink:href="#DejaVuSans-61"/>
      <use x="302.259766" xlink:href="#DejaVuSans-74"/>
      <use x="341.46875" xlink:href="#DejaVuSans-69"/>
      <use x="369.251953" xlink:href="#DejaVuSans-6f"/>
      <use x="430.433594" xlink:href="#DejaVuSans-6e"/>
      <use x="493.8125" xlink:href="#DejaVuSans-20"/>
      <use x="525.599609" xlink:href="#DejaVuSans-6c"/>
      <use x="553.382812" xlink:href="#DejaVuSans-6f"/>
      <use x="614.564453" xlink:href="#DejaVuSans-73"/>
      <use x="666.664062" xlink:href="#DejaVuSans-73"/>
     </g>
    </g>
   </g>
  </g>
 </g>
 <defs>
  <clipPath id="p20f85fea3c">
   <rect height="266.112" width="357.12" x="57.6" y="41.472"/>
  </clipPath>
 </defs>
</svg>
