<?xml version="1.0" encoding="utf-8" standalone="no"?>
<!DOCTYPE svg PUBLIC "-//W3C//DTD SVG 1.1//EN"
  "http://www.w3.org/Graphics/SVG/1.1/DTD/svg11.dtd">
<svg height="345.6pt" version="1.1" viewBox="0 0 460.8 345.6" width="460.8pt" xmlns="http://www.w3.org/2000/svg" xmlns:xlink="http://www.w3.org/1999/xlink">
 <metadata>
  <rdf:RDF xmlns:cc="http://creativecommons.org/ns#" xmlns:dc="http://purl.org/dc/elements/1.1/" xmlns:rdf="http://www.w3.org/1999/02/22-rdf-syntax-ns#">
   <cc:Work>
    <dc:type rdf:resource="http://purl.org/dc/dcmitype/StillImage"/>
    <dc:date>2021-07-14T14:43:56.620100</dc:date>
    <dc:format>image/svg+xml</dc:format>
    <dc:creator>
     <cc:Agent>
      <dc:title>Matplotlib v3.4.2, https://matplotlib.org/</dc:title>
     </cc:Agent>
    </dc:creator>
   </cc:Work>
  </rdf:RDF>
 </metadata>
 <defs>
  <style type="text/css">*{stroke-linecap:butt;stroke-linejoin:round;}</style>
 </defs>
 <g id="figure_1">
  <g id="patch_1">
   <path d="M 0 345.6 
L 460.8 345.6 
L 460.8 0 
L 0 0 
z
" style="fill:#ffffff;"/>
  </g>
  <g id="axes_1">
   <g id="patch_2">
    <path d="M 57.6 307.584 
L 414.72 307.584 
L 414.72 41.472 
L 57.6 41.472 
z
" style="fill:#ffffff;"/>
   </g>
   <g id="matplotlib.axis_1">
    <g id="xtick_1">
     <g id="line2d_1">
      <defs>
       <path d="M 0 0 
L 0 3.5 
" id="mc278eb5214" style="stroke:#000000;stroke-width:0.8;"/>
      </defs>
      <g>
       <use style="stroke:#000000;stroke-width:0.8;" x="73.019057" xlink:href="#mc278eb5214" y="307.584"/>
      </g>
     </g>
     <g id="text_1">
      <!-- 0 -->
      <g transform="translate(69.837807 322.182437)scale(0.1 -0.1)">
       <defs>
        <path d="M 2034 4250 
Q 1547 4250 1301 3770 
Q 1056 3291 1056 2328 
Q 1056 1369 1301 889 
Q 1547 409 2034 409 
Q 2525 409 2770 889 
Q 3016 1369 3016 2328 
Q 3016 3291 2770 3770 
Q 2525 4250 2034 4250 
z
M 2034 4750 
Q 2819 4750 3233 4129 
Q 3647 3509 3647 2328 
Q 3647 1150 3233 529 
Q 2819 -91 2034 -91 
Q 1250 -91 836 529 
Q 422 1150 422 2328 
Q 422 3509 836 4129 
Q 1250 4750 2034 4750 
z
" id="DejaVuSans-30" transform="scale(0.015625)"/>
       </defs>
       <use xlink:href="#DejaVuSans-30"/>
      </g>
     </g>
    </g>
    <g id="xtick_2">
     <g id="line2d_2">
      <g>
       <use style="stroke:#000000;stroke-width:0.8;" x="113.702584" xlink:href="#mc278eb5214" y="307.584"/>
      </g>
     </g>
     <g id="text_2">
      <!-- 50 -->
      <g transform="translate(107.340084 322.182437)scale(0.1 -0.1)">
       <defs>
        <path d="M 691 4666 
L 3169 4666 
L 3169 4134 
L 1269 4134 
L 1269 2991 
Q 1406 3038 1543 3061 
Q 1681 3084 1819 3084 
Q 2600 3084 3056 2656 
Q 3513 2228 3513 1497 
Q 3513 744 3044 326 
Q 2575 -91 1722 -91 
Q 1428 -91 1123 -41 
Q 819 9 494 109 
L 494 744 
Q 775 591 1075 516 
Q 1375 441 1709 441 
Q 2250 441 2565 725 
Q 2881 1009 2881 1497 
Q 2881 1984 2565 2268 
Q 2250 2553 1709 2553 
Q 1456 2553 1204 2497 
Q 953 2441 691 2322 
L 691 4666 
z
" id="DejaVuSans-35" transform="scale(0.015625)"/>
       </defs>
       <use xlink:href="#DejaVuSans-35"/>
       <use x="63.623047" xlink:href="#DejaVuSans-30"/>
      </g>
     </g>
    </g>
    <g id="xtick_3">
     <g id="line2d_3">
      <g>
       <use style="stroke:#000000;stroke-width:0.8;" x="154.386111" xlink:href="#mc278eb5214" y="307.584"/>
      </g>
     </g>
     <g id="text_3">
      <!-- 100 -->
      <g transform="translate(144.842361 322.182437)scale(0.1 -0.1)">
       <defs>
        <path d="M 794 531 
L 1825 531 
L 1825 4091 
L 703 3866 
L 703 4441 
L 1819 4666 
L 2450 4666 
L 2450 531 
L 3481 531 
L 3481 0 
L 794 0 
L 794 531 
z
" id="DejaVuSans-31" transform="scale(0.015625)"/>
       </defs>
       <use xlink:href="#DejaVuSans-31"/>
       <use x="63.623047" xlink:href="#DejaVuSans-30"/>
       <use x="127.246094" xlink:href="#DejaVuSans-30"/>
      </g>
     </g>
    </g>
    <g id="xtick_4">
     <g id="line2d_4">
      <g>
       <use style="stroke:#000000;stroke-width:0.8;" x="195.069638" xlink:href="#mc278eb5214" y="307.584"/>
      </g>
     </g>
     <g id="text_4">
      <!-- 150 -->
      <g transform="translate(185.525888 322.182437)scale(0.1 -0.1)">
       <use xlink:href="#DejaVuSans-31"/>
       <use x="63.623047" xlink:href="#DejaVuSans-35"/>
       <use x="127.246094" xlink:href="#DejaVuSans-30"/>
      </g>
     </g>
    </g>
    <g id="xtick_5">
     <g id="line2d_5">
      <g>
       <use style="stroke:#000000;stroke-width:0.8;" x="235.753165" xlink:href="#mc278eb5214" y="307.584"/>
      </g>
     </g>
     <g id="text_5">
      <!-- 200 -->
      <g transform="translate(226.209415 322.182437)scale(0.1 -0.1)">
       <defs>
        <path d="M 1228 531 
L 3431 531 
L 3431 0 
L 469 0 
L 469 531 
Q 828 903 1448 1529 
Q 2069 2156 2228 2338 
Q 2531 2678 2651 2914 
Q 2772 3150 2772 3378 
Q 2772 3750 2511 3984 
Q 2250 4219 1831 4219 
Q 1534 4219 1204 4116 
Q 875 4013 500 3803 
L 500 4441 
Q 881 4594 1212 4672 
Q 1544 4750 1819 4750 
Q 2544 4750 2975 4387 
Q 3406 4025 3406 3419 
Q 3406 3131 3298 2873 
Q 3191 2616 2906 2266 
Q 2828 2175 2409 1742 
Q 1991 1309 1228 531 
z
" id="DejaVuSans-32" transform="scale(0.015625)"/>
       </defs>
       <use xlink:href="#DejaVuSans-32"/>
       <use x="63.623047" xlink:href="#DejaVuSans-30"/>
       <use x="127.246094" xlink:href="#DejaVuSans-30"/>
      </g>
     </g>
    </g>
    <g id="xtick_6">
     <g id="line2d_6">
      <g>
       <use style="stroke:#000000;stroke-width:0.8;" x="276.436692" xlink:href="#mc278eb5214" y="307.584"/>
      </g>
     </g>
     <g id="text_6">
      <!-- 250 -->
      <g transform="translate(266.892942 322.182437)scale(0.1 -0.1)">
       <use xlink:href="#DejaVuSans-32"/>
       <use x="63.623047" xlink:href="#DejaVuSans-35"/>
       <use x="127.246094" xlink:href="#DejaVuSans-30"/>
      </g>
     </g>
    </g>
    <g id="xtick_7">
     <g id="line2d_7">
      <g>
       <use style="stroke:#000000;stroke-width:0.8;" x="317.120219" xlink:href="#mc278eb5214" y="307.584"/>
      </g>
     </g>
     <g id="text_7">
      <!-- 300 -->
      <g transform="translate(307.576469 322.182437)scale(0.1 -0.1)">
       <defs>
        <path d="M 2597 2516 
Q 3050 2419 3304 2112 
Q 3559 1806 3559 1356 
Q 3559 666 3084 287 
Q 2609 -91 1734 -91 
Q 1441 -91 1130 -33 
Q 819 25 488 141 
L 488 750 
Q 750 597 1062 519 
Q 1375 441 1716 441 
Q 2309 441 2620 675 
Q 2931 909 2931 1356 
Q 2931 1769 2642 2001 
Q 2353 2234 1838 2234 
L 1294 2234 
L 1294 2753 
L 1863 2753 
Q 2328 2753 2575 2939 
Q 2822 3125 2822 3475 
Q 2822 3834 2567 4026 
Q 2313 4219 1838 4219 
Q 1578 4219 1281 4162 
Q 984 4106 628 3988 
L 628 4550 
Q 988 4650 1302 4700 
Q 1616 4750 1894 4750 
Q 2613 4750 3031 4423 
Q 3450 4097 3450 3541 
Q 3450 3153 3228 2886 
Q 3006 2619 2597 2516 
z
" id="DejaVuSans-33" transform="scale(0.015625)"/>
       </defs>
       <use xlink:href="#DejaVuSans-33"/>
       <use x="63.623047" xlink:href="#DejaVuSans-30"/>
       <use x="127.246094" xlink:href="#DejaVuSans-30"/>
      </g>
     </g>
    </g>
    <g id="xtick_8">
     <g id="line2d_8">
      <g>
       <use style="stroke:#000000;stroke-width:0.8;" x="357.803746" xlink:href="#mc278eb5214" y="307.584"/>
      </g>
     </g>
     <g id="text_8">
      <!-- 350 -->
      <g transform="translate(348.259996 322.182437)scale(0.1 -0.1)">
       <use xlink:href="#DejaVuSans-33"/>
       <use x="63.623047" xlink:href="#DejaVuSans-35"/>
       <use x="127.246094" xlink:href="#DejaVuSans-30"/>
      </g>
     </g>
    </g>
    <g id="xtick_9">
     <g id="line2d_9">
      <g>
       <use style="stroke:#000000;stroke-width:0.8;" x="398.487273" xlink:href="#mc278eb5214" y="307.584"/>
      </g>
     </g>
     <g id="text_9">
      <!-- 400 -->
      <g transform="translate(388.943523 322.182437)scale(0.1 -0.1)">
       <defs>
        <path d="M 2419 4116 
L 825 1625 
L 2419 1625 
L 2419 4116 
z
M 2253 4666 
L 3047 4666 
L 3047 1625 
L 3713 1625 
L 3713 1100 
L 3047 1100 
L 3047 0 
L 2419 0 
L 2419 1100 
L 313 1100 
L 313 1709 
L 2253 4666 
z
" id="DejaVuSans-34" transform="scale(0.015625)"/>
       </defs>
       <use xlink:href="#DejaVuSans-34"/>
       <use x="63.623047" xlink:href="#DejaVuSans-30"/>
       <use x="127.246094" xlink:href="#DejaVuSans-30"/>
      </g>
     </g>
    </g>
    <g id="text_10">
     <!-- Epoch -->
     <g transform="translate(213.193594 339.659781)scale(0.15 -0.15)">
      <defs>
       <path d="M 628 4666 
L 3578 4666 
L 3578 4134 
L 1259 4134 
L 1259 2753 
L 3481 2753 
L 3481 2222 
L 1259 2222 
L 1259 531 
L 3634 531 
L 3634 0 
L 628 0 
L 628 4666 
z
" id="DejaVuSans-45" transform="scale(0.015625)"/>
       <path d="M 1159 525 
L 1159 -1331 
L 581 -1331 
L 581 3500 
L 1159 3500 
L 1159 2969 
Q 1341 3281 1617 3432 
Q 1894 3584 2278 3584 
Q 2916 3584 3314 3078 
Q 3713 2572 3713 1747 
Q 3713 922 3314 415 
Q 2916 -91 2278 -91 
Q 1894 -91 1617 61 
Q 1341 213 1159 525 
z
M 3116 1747 
Q 3116 2381 2855 2742 
Q 2594 3103 2138 3103 
Q 1681 3103 1420 2742 
Q 1159 2381 1159 1747 
Q 1159 1113 1420 752 
Q 1681 391 2138 391 
Q 2594 391 2855 752 
Q 3116 1113 3116 1747 
z
" id="DejaVuSans-70" transform="scale(0.015625)"/>
       <path d="M 1959 3097 
Q 1497 3097 1228 2736 
Q 959 2375 959 1747 
Q 959 1119 1226 758 
Q 1494 397 1959 397 
Q 2419 397 2687 759 
Q 2956 1122 2956 1747 
Q 2956 2369 2687 2733 
Q 2419 3097 1959 3097 
z
M 1959 3584 
Q 2709 3584 3137 3096 
Q 3566 2609 3566 1747 
Q 3566 888 3137 398 
Q 2709 -91 1959 -91 
Q 1206 -91 779 398 
Q 353 888 353 1747 
Q 353 2609 779 3096 
Q 1206 3584 1959 3584 
z
" id="DejaVuSans-6f" transform="scale(0.015625)"/>
       <path d="M 3122 3366 
L 3122 2828 
Q 2878 2963 2633 3030 
Q 2388 3097 2138 3097 
Q 1578 3097 1268 2742 
Q 959 2388 959 1747 
Q 959 1106 1268 751 
Q 1578 397 2138 397 
Q 2388 397 2633 464 
Q 2878 531 3122 666 
L 3122 134 
Q 2881 22 2623 -34 
Q 2366 -91 2075 -91 
Q 1284 -91 818 406 
Q 353 903 353 1747 
Q 353 2603 823 3093 
Q 1294 3584 2113 3584 
Q 2378 3584 2631 3529 
Q 2884 3475 3122 3366 
z
" id="DejaVuSans-63" transform="scale(0.015625)"/>
       <path d="M 3513 2113 
L 3513 0 
L 2938 0 
L 2938 2094 
Q 2938 2591 2744 2837 
Q 2550 3084 2163 3084 
Q 1697 3084 1428 2787 
Q 1159 2491 1159 1978 
L 1159 0 
L 581 0 
L 581 4863 
L 1159 4863 
L 1159 2956 
Q 1366 3272 1645 3428 
Q 1925 3584 2291 3584 
Q 2894 3584 3203 3211 
Q 3513 2838 3513 2113 
z
" id="DejaVuSans-68" transform="scale(0.015625)"/>
      </defs>
      <use xlink:href="#DejaVuSans-45"/>
      <use x="63.183594" xlink:href="#DejaVuSans-70"/>
      <use x="126.660156" xlink:href="#DejaVuSans-6f"/>
      <use x="187.841797" xlink:href="#DejaVuSans-63"/>
      <use x="242.822266" xlink:href="#DejaVuSans-68"/>
     </g>
    </g>
   </g>
   <g id="matplotlib.axis_2">
    <g id="ytick_1">
     <g id="line2d_10">
      <defs>
       <path d="M 0 0 
L -3.5 0 
" id="m8059fb23e8" style="stroke:#000000;stroke-width:0.8;"/>
      </defs>
      <g>
       <use style="stroke:#000000;stroke-width:0.8;" x="57.6" xlink:href="#m8059fb23e8" y="285.544107"/>
      </g>
     </g>
     <g id="text_11">
      <!-- −1000 -->
      <g transform="translate(16.770313 289.343326)scale(0.1 -0.1)">
       <defs>
        <path d="M 678 2272 
L 4684 2272 
L 4684 1741 
L 678 1741 
L 678 2272 
z
" id="DejaVuSans-2212" transform="scale(0.015625)"/>
       </defs>
       <use xlink:href="#DejaVuSans-2212"/>
       <use x="83.789062" xlink:href="#DejaVuSans-31"/>
       <use x="147.412109" xlink:href="#DejaVuSans-30"/>
       <use x="211.035156" xlink:href="#DejaVuSans-30"/>
       <use x="274.658203" xlink:href="#DejaVuSans-30"/>
      </g>
     </g>
    </g>
    <g id="ytick_2">
     <g id="line2d_11">
      <g>
       <use style="stroke:#000000;stroke-width:0.8;" x="57.6" xlink:href="#m8059fb23e8" y="235.658945"/>
      </g>
     </g>
     <g id="text_12">
      <!-- −800 -->
      <g transform="translate(23.132812 239.458164)scale(0.1 -0.1)">
       <defs>
        <path d="M 2034 2216 
Q 1584 2216 1326 1975 
Q 1069 1734 1069 1313 
Q 1069 891 1326 650 
Q 1584 409 2034 409 
Q 2484 409 2743 651 
Q 3003 894 3003 1313 
Q 3003 1734 2745 1975 
Q 2488 2216 2034 2216 
z
M 1403 2484 
Q 997 2584 770 2862 
Q 544 3141 544 3541 
Q 544 4100 942 4425 
Q 1341 4750 2034 4750 
Q 2731 4750 3128 4425 
Q 3525 4100 3525 3541 
Q 3525 3141 3298 2862 
Q 3072 2584 2669 2484 
Q 3125 2378 3379 2068 
Q 3634 1759 3634 1313 
Q 3634 634 3220 271 
Q 2806 -91 2034 -91 
Q 1263 -91 848 271 
Q 434 634 434 1313 
Q 434 1759 690 2068 
Q 947 2378 1403 2484 
z
M 1172 3481 
Q 1172 3119 1398 2916 
Q 1625 2713 2034 2713 
Q 2441 2713 2670 2916 
Q 2900 3119 2900 3481 
Q 2900 3844 2670 4047 
Q 2441 4250 2034 4250 
Q 1625 4250 1398 4047 
Q 1172 3844 1172 3481 
z
" id="DejaVuSans-38" transform="scale(0.015625)"/>
       </defs>
       <use xlink:href="#DejaVuSans-2212"/>
       <use x="83.789062" xlink:href="#DejaVuSans-38"/>
       <use x="147.412109" xlink:href="#DejaVuSans-30"/>
       <use x="211.035156" xlink:href="#DejaVuSans-30"/>
      </g>
     </g>
    </g>
    <g id="ytick_3">
     <g id="line2d_12">
      <g>
       <use style="stroke:#000000;stroke-width:0.8;" x="57.6" xlink:href="#m8059fb23e8" y="185.773784"/>
      </g>
     </g>
     <g id="text_13">
      <!-- −600 -->
      <g transform="translate(23.132812 189.573002)scale(0.1 -0.1)">
       <defs>
        <path d="M 2113 2584 
Q 1688 2584 1439 2293 
Q 1191 2003 1191 1497 
Q 1191 994 1439 701 
Q 1688 409 2113 409 
Q 2538 409 2786 701 
Q 3034 994 3034 1497 
Q 3034 2003 2786 2293 
Q 2538 2584 2113 2584 
z
M 3366 4563 
L 3366 3988 
Q 3128 4100 2886 4159 
Q 2644 4219 2406 4219 
Q 1781 4219 1451 3797 
Q 1122 3375 1075 2522 
Q 1259 2794 1537 2939 
Q 1816 3084 2150 3084 
Q 2853 3084 3261 2657 
Q 3669 2231 3669 1497 
Q 3669 778 3244 343 
Q 2819 -91 2113 -91 
Q 1303 -91 875 529 
Q 447 1150 447 2328 
Q 447 3434 972 4092 
Q 1497 4750 2381 4750 
Q 2619 4750 2861 4703 
Q 3103 4656 3366 4563 
z
" id="DejaVuSans-36" transform="scale(0.015625)"/>
       </defs>
       <use xlink:href="#DejaVuSans-2212"/>
       <use x="83.789062" xlink:href="#DejaVuSans-36"/>
       <use x="147.412109" xlink:href="#DejaVuSans-30"/>
       <use x="211.035156" xlink:href="#DejaVuSans-30"/>
      </g>
     </g>
    </g>
    <g id="ytick_4">
     <g id="line2d_13">
      <g>
       <use style="stroke:#000000;stroke-width:0.8;" x="57.6" xlink:href="#m8059fb23e8" y="135.888622"/>
      </g>
     </g>
     <g id="text_14">
      <!-- −400 -->
      <g transform="translate(23.132812 139.687841)scale(0.1 -0.1)">
       <use xlink:href="#DejaVuSans-2212"/>
       <use x="83.789062" xlink:href="#DejaVuSans-34"/>
       <use x="147.412109" xlink:href="#DejaVuSans-30"/>
       <use x="211.035156" xlink:href="#DejaVuSans-30"/>
      </g>
     </g>
    </g>
    <g id="ytick_5">
     <g id="line2d_14">
      <g>
       <use style="stroke:#000000;stroke-width:0.8;" x="57.6" xlink:href="#m8059fb23e8" y="86.003461"/>
      </g>
     </g>
     <g id="text_15">
      <!-- −200 -->
      <g transform="translate(23.132812 89.802679)scale(0.1 -0.1)">
       <use xlink:href="#DejaVuSans-2212"/>
       <use x="83.789062" xlink:href="#DejaVuSans-32"/>
       <use x="147.412109" xlink:href="#DejaVuSans-30"/>
       <use x="211.035156" xlink:href="#DejaVuSans-30"/>
      </g>
     </g>
    </g>
    <g id="text_16">
     <!-- Loss -->
     <g transform="translate(9.650781 190.978781)rotate(-90)scale(0.15 -0.15)">
      <defs>
       <path d="M 628 4666 
L 1259 4666 
L 1259 531 
L 3531 531 
L 3531 0 
L 628 0 
L 628 4666 
z
" id="DejaVuSans-4c" transform="scale(0.015625)"/>
       <path d="M 2834 3397 
L 2834 2853 
Q 2591 2978 2328 3040 
Q 2066 3103 1784 3103 
Q 1356 3103 1142 2972 
Q 928 2841 928 2578 
Q 928 2378 1081 2264 
Q 1234 2150 1697 2047 
L 1894 2003 
Q 2506 1872 2764 1633 
Q 3022 1394 3022 966 
Q 3022 478 2636 193 
Q 2250 -91 1575 -91 
Q 1294 -91 989 -36 
Q 684 19 347 128 
L 347 722 
Q 666 556 975 473 
Q 1284 391 1588 391 
Q 1994 391 2212 530 
Q 2431 669 2431 922 
Q 2431 1156 2273 1281 
Q 2116 1406 1581 1522 
L 1381 1569 
Q 847 1681 609 1914 
Q 372 2147 372 2553 
Q 372 3047 722 3315 
Q 1072 3584 1716 3584 
Q 2034 3584 2315 3537 
Q 2597 3491 2834 3397 
z
" id="DejaVuSans-73" transform="scale(0.015625)"/>
      </defs>
      <use xlink:href="#DejaVuSans-4c"/>
      <use x="53.962891" xlink:href="#DejaVuSans-6f"/>
      <use x="115.144531" xlink:href="#DejaVuSans-73"/>
      <use x="167.244141" xlink:href="#DejaVuSans-73"/>
     </g>
    </g>
   </g>
   <g id="line2d_15">
    <path clip-path="url(#p8fc76581ab)" d="M 73.832727 53.568 
L 74.646398 109.961162 
L 75.460068 134.528809 
L 76.273739 130.261688 
L 77.90108 148.933718 
L 78.714751 146.167768 
L 79.528421 155.406747 
L 80.342092 166.488345 
L 81.155762 163.174279 
L 81.969433 164.001096 
L 82.783103 177.123606 
L 83.596774 166.543837 
L 85.224115 181.48623 
L 86.037785 183.779328 
L 86.851456 190.574559 
L 87.665126 189.706806 
L 88.478797 177.850567 
L 89.292468 192.947234 
L 90.106138 192.164042 
L 90.919809 195.295586 
L 91.733479 210.032722 
L 92.54715 209.965395 
L 93.36082 194.901116 
L 94.174491 206.880058 
L 94.988161 200.991282 
L 95.801832 208.984545 
L 96.615502 194.522597 
L 97.429173 201.382051 
L 98.242843 213.024256 
L 99.056514 213.409513 
L 99.870185 213.497914 
L 100.683855 176.905181 
L 101.497526 208.73254 
L 102.311196 216.41525 
L 103.124867 219.297264 
L 103.938537 211.267176 
L 104.752208 223.390827 
L 105.565878 225.788639 
L 106.379549 223.837297 
L 108.00689 230.180041 
L 108.82056 214.931285 
L 109.634231 226.493903 
L 110.447902 229.590986 
L 111.261572 226.664792 
L 112.075243 236.724795 
L 112.888913 232.476203 
L 113.702584 235.514786 
L 114.516254 224.665187 
L 115.329925 233.98031 
L 116.143595 233.154618 
L 116.957266 220.119408 
L 117.770936 239.321545 
L 118.584607 234.897184 
L 119.398278 229.477634 
L 120.211948 245.406276 
L 121.025619 222.051946 
L 121.839289 225.131068 
L 122.65296 240.560158 
L 123.46663 239.353417 
L 124.280301 235.863047 
L 125.907642 244.106377 
L 126.721312 239.767716 
L 127.534983 242.897916 
L 128.348653 231.870703 
L 129.162324 246.534589 
L 129.975995 247.164474 
L 130.789665 233.944098 
L 131.603336 243.540173 
L 132.417006 244.873507 
L 133.230677 239.529041 
L 134.044347 240.109274 
L 134.858018 249.690327 
L 135.671688 241.584255 
L 136.485359 234.75542 
L 137.299029 251.699558 
L 138.92637 237.922226 
L 139.740041 239.605025 
L 140.553712 252.735499 
L 141.367382 249.149804 
L 142.181053 241.130187 
L 142.994723 253.613747 
L 143.808394 237.232866 
L 144.622064 244.192592 
L 145.435735 260.395593 
L 147.063076 237.253707 
L 147.876746 241.729257 
L 148.690417 245.079239 
L 149.504087 252.771519 
L 150.317758 248.167059 
L 151.131429 248.017632 
L 151.945099 248.257927 
L 152.75877 255.083513 
L 153.57244 244.665397 
L 154.386111 246.487197 
L 155.199781 244.395719 
L 156.013452 241.912394 
L 156.827122 238.440362 
L 157.640793 252.965418 
L 158.454463 248.76066 
L 159.268134 248.69725 
L 160.081805 254.833294 
L 160.895475 261.829513 
L 161.709146 262.139837 
L 162.522816 252.017247 
L 163.336487 247.713873 
L 164.150157 249.245015 
L 164.963828 248.137666 
L 165.777498 245.767076 
L 166.591169 247.56804 
L 167.404839 247.723522 
L 168.21851 248.043639 
L 169.03218 255.620748 
L 169.845851 242.389359 
L 170.659522 243.056168 
L 171.473192 251.594616 
L 172.286863 247.817934 
L 173.100533 258.653396 
L 173.914204 251.278992 
L 174.727874 254.20175 
L 175.541545 257.944934 
L 176.355215 252.20447 
L 177.168886 255.312325 
L 177.982556 256.939048 
L 178.796227 254.255941 
L 179.609897 257.63622 
L 180.423568 266.217915 
L 181.237239 247.791336 
L 182.050909 258.918026 
L 182.86458 246.620809 
L 183.67825 261.617697 
L 184.491921 259.784351 
L 185.305591 268.312274 
L 186.119262 255.382352 
L 186.932932 255.387002 
L 188.560273 265.56738 
L 189.373944 256.912819 
L 190.187614 257.592777 
L 191.001285 252.319533 
L 191.814956 252.389455 
L 192.628626 243.966836 
L 193.442297 249.529491 
L 194.255967 256.465905 
L 195.069638 257.703957 
L 195.883308 257.006848 
L 196.696979 264.517598 
L 197.510649 268.132311 
L 198.32432 259.994994 
L 199.13799 262.585108 
L 199.951661 256.182259 
L 200.765332 261.135036 
L 201.579002 262.23112 
L 202.392673 270.089084 
L 203.206343 261.982294 
L 204.020014 265.680321 
L 204.833684 261.137473 
L 205.647355 260.386784 
L 206.461025 262.459574 
L 207.274696 255.003752 
L 208.088366 275.605442 
L 208.902037 258.887254 
L 209.715707 269.011854 
L 210.529378 257.7961 
L 211.343049 262.911773 
L 212.156719 271.234141 
L 212.97039 268.260051 
L 214.597731 253.671463 
L 215.411401 265.540669 
L 217.038742 258.256038 
L 217.852413 256.64832 
L 218.666083 268.658313 
L 219.479754 258.25679 
L 220.293424 271.591622 
L 221.107095 266.604926 
L 221.920766 257.581143 
L 222.734436 255.30091 
L 223.548107 265.073119 
L 224.361777 254.255731 
L 225.175448 258.478699 
L 225.989118 272.132951 
L 226.802789 260.794381 
L 227.616459 268.240491 
L 228.43013 270.000366 
L 229.2438 260.72148 
L 230.057471 261.124414 
L 230.871141 265.195117 
L 231.684812 271.291285 
L 232.498483 254.965369 
L 233.312153 258.51648 
L 234.125824 267.22095 
L 234.939494 270.120106 
L 235.753165 266.718816 
L 236.566835 272.309298 
L 237.380506 263.540559 
L 238.194176 267.798987 
L 239.821517 274.896278 
L 240.635188 273.636999 
L 241.448859 262.143178 
L 242.262529 258.171603 
L 243.88987 278.692705 
L 244.703541 269.788382 
L 245.517211 262.71748 
L 246.330882 268.658251 
L 247.144552 266.098959 
L 247.958223 269.632328 
L 248.771893 264.089713 
L 249.585564 267.257391 
L 250.399234 282.26998 
L 251.212905 269.401986 
L 252.026576 261.263476 
L 252.840246 277.636944 
L 253.653917 275.261575 
L 254.467587 278.801462 
L 255.281258 269.371795 
L 256.094928 261.558304 
L 256.908599 269.896859 
L 257.722269 262.015277 
L 258.53594 282.133741 
L 259.34961 267.522551 
L 260.163281 276.559661 
L 260.976951 264.080656 
L 261.790622 273.539985 
L 262.604293 279.002315 
L 263.417963 262.880201 
L 264.231634 271.75291 
L 265.045304 276.247549 
L 266.672645 270.620516 
L 267.486316 270.094352 
L 269.113657 280.016068 
L 269.927327 276.546649 
L 270.740998 269.966194 
L 271.554668 264.36878 
L 272.368339 279.300195 
L 273.18201 274.847469 
L 273.99568 281.417338 
L 274.809351 281.487667 
L 275.623021 287.129783 
L 276.436692 272.580122 
L 277.250362 268.633559 
L 278.064033 270.322549 
L 278.877703 286.337792 
L 279.691374 276.140195 
L 280.505044 280.936634 
L 281.318715 266.792011 
L 282.132386 281.856569 
L 282.946056 265.943457 
L 283.759727 282.300963 
L 284.573397 267.304759 
L 285.387068 267.337293 
L 286.200738 271.083507 
L 287.014409 273.850793 
L 287.828079 282.554334 
L 288.64175 265.255618 
L 289.45542 278.516582 
L 290.269091 277.572461 
L 291.082761 286.401603 
L 291.896432 271.173597 
L 292.710103 272.624066 
L 293.523773 282.582184 
L 294.337444 269.993879 
L 295.151114 271.081675 
L 295.964785 279.438807 
L 296.778455 277.795478 
L 297.592126 275.561051 
L 298.405796 276.469421 
L 299.219467 270.411355 
L 300.033137 268.898511 
L 300.846808 288.921129 
L 301.660478 278.698707 
L 302.474149 262.790245 
L 303.28782 268.94634 
L 304.10149 279.05918 
L 304.915161 293.104518 
L 305.728831 287.273067 
L 306.542502 274.797968 
L 307.356172 272.859957 
L 308.169843 277.727444 
L 308.983513 270.772126 
L 309.797184 271.062601 
L 310.610854 270.775022 
L 311.424525 278.819327 
L 312.238195 278.273025 
L 313.051866 279.194418 
L 313.865537 265.425423 
L 314.679207 282.533495 
L 315.492878 282.775942 
L 316.306548 282.191503 
L 317.120219 266.992628 
L 317.933889 263.900103 
L 318.74756 280.997744 
L 319.56123 292.354146 
L 321.188571 268.009715 
L 322.002242 284.895494 
L 322.815913 276.147013 
L 323.629583 289.957649 
L 324.443254 277.592529 
L 325.256924 283.923949 
L 326.070595 278.807184 
L 326.884265 291.685337 
L 327.697936 283.049477 
L 328.511606 278.735301 
L 329.325277 262.153488 
L 330.138947 271.161819 
L 330.952618 283.81534 
L 331.766288 277.849231 
L 332.579959 274.182186 
L 333.39363 269.545156 
L 334.2073 278.457865 
L 335.020971 280.479362 
L 335.834641 287.012848 
L 336.648312 288.547144 
L 337.461982 277.551069 
L 338.275653 284.416837 
L 339.089323 284.032791 
L 339.902994 276.818651 
L 341.530335 283.172171 
L 343.157676 284.083813 
L 343.971347 283.604993 
L 344.785017 279.24026 
L 345.598688 286.804645 
L 346.412358 279.041639 
L 347.226029 284.43504 
L 348.039699 273.805188 
L 348.85337 283.738577 
L 350.480711 278.072505 
L 351.294381 269.19628 
L 352.108052 277.884592 
L 352.921722 277.965742 
L 353.735393 275.292035 
L 354.549064 281.004559 
L 355.362734 280.016791 
L 356.176405 270.360394 
L 356.990075 287.524172 
L 357.803746 277.00657 
L 358.617416 283.041048 
L 359.431087 286.379283 
L 360.244757 282.621283 
L 361.058428 283.424787 
L 361.872098 284.518283 
L 362.685769 286.549467 
L 363.49944 282.466441 
L 364.31311 277.282872 
L 365.126781 281.934931 
L 365.940451 277.805109 
L 366.754122 282.299211 
L 367.567792 282.857295 
L 368.381463 276.094047 
L 369.195133 273.205906 
L 370.008804 272.401084 
L 370.822474 281.088141 
L 371.636145 275.64497 
L 372.449815 279.086068 
L 373.263486 280.111814 
L 374.077157 287.599472 
L 374.890827 290.12337 
L 375.704498 278.149109 
L 376.518168 283.975826 
L 377.331839 274.773642 
L 378.145509 275.38601 
L 378.95918 282.026167 
L 379.77285 273.05225 
L 380.586521 282.83985 
L 381.400191 295.488 
L 382.213862 283.277491 
L 383.027532 284.20347 
L 383.841203 292.598942 
L 384.654874 281.1412 
L 385.468544 258.254254 
L 386.282215 280.352462 
L 387.095885 277.190749 
L 387.909556 279.628319 
L 388.723226 273.945426 
L 389.536897 280.059551 
L 390.350567 290.805326 
L 391.164238 278.260128 
L 391.977908 282.038143 
L 392.791579 279.218582 
L 393.605249 287.303467 
L 394.41892 285.351643 
L 396.046261 272.087241 
L 396.859932 269.951436 
L 397.673602 290.357912 
L 398.487273 279.171989 
L 398.487273 279.171989 
" style="fill:none;stroke:#1f77b4;stroke-linecap:square;stroke-width:1.5;"/>
   </g>
   <g id="line2d_16">
    <path clip-path="url(#p8fc76581ab)" d="M 73.832727 58.425288 
L 74.646398 131.098514 
L 75.460068 134.180932 
L 76.273739 146.052078 
L 77.087409 151.169341 
L 77.90108 142.99106 
L 78.714751 149.111337 
L 79.528421 160.857848 
L 80.342092 166.918217 
L 81.155762 144.102606 
L 81.969433 167.432841 
L 82.783103 181.934714 
L 83.596774 181.561432 
L 84.410444 184.073845 
L 85.224115 185.073831 
L 86.037785 184.827352 
L 86.851456 190.106814 
L 87.665126 196.745026 
L 88.478797 190.584084 
L 89.292468 193.048425 
L 90.106138 205.394415 
L 90.919809 193.551919 
L 91.733479 203.505957 
L 92.54715 204.465108 
L 93.36082 204.500021 
L 94.174491 212.309021 
L 94.988161 192.037007 
L 95.801832 210.705635 
L 96.615502 206.679072 
L 97.429173 210.262056 
L 98.242843 201.258873 
L 99.870185 217.621239 
L 100.683855 210.858171 
L 101.497526 217.296403 
L 102.311196 215.029025 
L 103.124867 215.677906 
L 103.938537 206.182539 
L 104.752208 216.575269 
L 105.565878 213.495025 
L 106.379549 222.019321 
L 107.193219 226.862102 
L 108.00689 221.589627 
L 108.82056 224.719118 
L 109.634231 221.054224 
L 110.447902 218.477294 
L 111.261572 229.899882 
L 112.075243 230.585409 
L 112.888913 235.014658 
L 113.702584 234.595029 
L 114.516254 228.350655 
L 115.329925 237.106028 
L 116.143595 233.921342 
L 116.957266 228.658461 
L 117.770936 235.553301 
L 118.584607 237.58389 
L 119.398278 228.718059 
L 120.211948 238.44716 
L 121.025619 239.728746 
L 121.839289 222.996284 
L 122.65296 237.507304 
L 123.46663 225.918428 
L 124.280301 240.042902 
L 125.093971 235.963082 
L 125.907642 242.129501 
L 126.721312 231.185725 
L 127.534983 237.515412 
L 128.348653 240.265847 
L 129.162324 234.559131 
L 129.975995 246.523768 
L 130.789665 236.282524 
L 131.603336 228.444663 
L 132.417006 233.891806 
L 133.230677 242.028101 
L 134.044347 240.790356 
L 134.858018 245.81337 
L 135.671688 242.363426 
L 136.485359 244.058576 
L 137.299029 244.2668 
L 138.1127 234.9663 
L 138.92637 237.922069 
L 139.740041 243.685591 
L 140.553712 246.33127 
L 141.367382 244.305033 
L 142.181053 251.751494 
L 142.994723 243.571529 
L 143.808394 238.718954 
L 144.622064 248.953019 
L 145.435735 201.338666 
L 146.249405 251.242104 
L 147.063076 243.294211 
L 147.876746 242.116748 
L 148.690417 238.636961 
L 149.504087 251.528148 
L 150.317758 240.353055 
L 151.131429 251.992877 
L 151.945099 253.118034 
L 152.75877 251.809575 
L 153.57244 238.767924 
L 154.386111 238.551819 
L 155.199781 250.487622 
L 156.013452 247.967801 
L 156.827122 244.407035 
L 157.640793 254.756417 
L 158.454463 245.682345 
L 159.268134 253.640153 
L 160.081805 248.679661 
L 160.895475 252.936616 
L 161.709146 255.900193 
L 162.522816 250.210569 
L 163.336487 253.372326 
L 164.150157 242.956776 
L 164.963828 248.28708 
L 165.777498 252.303755 
L 166.591169 250.948719 
L 167.404839 248.205542 
L 168.21851 257.705584 
L 169.03218 254.376037 
L 169.845851 252.684341 
L 170.659522 237.829732 
L 171.473192 252.872435 
L 172.286863 247.990963 
L 173.100533 254.187552 
L 173.914204 259.011844 
L 174.727874 255.963107 
L 175.541545 257.85514 
L 176.355215 249.601461 
L 177.168886 254.279405 
L 177.982556 263.705908 
L 178.796227 255.588268 
L 179.609897 251.448158 
L 180.423568 244.39616 
L 181.237239 249.308153 
L 182.050909 263.561271 
L 182.86458 252.566046 
L 183.67825 251.17471 
L 184.491921 256.621751 
L 185.305591 259.467996 
L 186.119262 250.950895 
L 186.932932 263.557652 
L 187.746603 250.156811 
L 188.560273 253.599048 
L 189.373944 247.301897 
L 190.187614 247.701027 
L 191.001285 251.359413 
L 191.814956 265.350678 
L 192.628626 256.553671 
L 193.442297 261.398084 
L 194.255967 258.756423 
L 195.069638 262.213302 
L 195.883308 247.686118 
L 196.696979 258.484247 
L 197.510649 263.825733 
L 198.32432 252.439168 
L 199.13799 263.110771 
L 199.951661 254.906654 
L 200.765332 259.833794 
L 201.579002 258.989943 
L 202.392673 257.976503 
L 203.206343 260.07157 
L 204.020014 259.449013 
L 204.833684 267.076174 
L 205.647355 261.277323 
L 206.461025 259.802449 
L 207.274696 266.12799 
L 208.088366 267.608768 
L 208.902037 262.514183 
L 209.715707 260.007167 
L 210.529378 259.106234 
L 211.343049 260.255437 
L 212.156719 258.845138 
L 212.97039 266.502049 
L 213.78406 269.31724 
L 214.597731 261.715048 
L 215.411401 264.964869 
L 216.225072 248.354201 
L 217.038742 254.313828 
L 217.852413 258.268628 
L 218.666083 268.135227 
L 219.479754 262.339527 
L 220.293424 260.000613 
L 221.107095 264.560906 
L 221.920766 259.902106 
L 222.734436 260.701314 
L 223.548107 266.264449 
L 224.361777 261.52132 
L 225.175448 248.641256 
L 225.989118 262.266601 
L 226.802789 264.378868 
L 227.616459 261.619994 
L 228.43013 263.818636 
L 229.2438 260.40196 
L 230.057471 265.394495 
L 231.684812 260.180326 
L 232.498483 258.32743 
L 233.312153 263.796002 
L 234.125824 268.399339 
L 234.939494 258.361284 
L 235.753165 253.460786 
L 236.566835 272.223717 
L 237.380506 258.65096 
L 238.194176 277.479617 
L 239.007847 267.127185 
L 239.821517 270.633463 
L 240.635188 259.679234 
L 241.448859 262.355228 
L 242.262529 266.697081 
L 243.0762 275.040398 
L 245.517211 264.114432 
L 246.330882 270.86452 
L 247.144552 267.937859 
L 247.958223 266.301161 
L 248.771893 269.566064 
L 249.585564 268.548997 
L 250.399234 272.856662 
L 251.212905 265.940841 
L 252.026576 262.188934 
L 252.840246 269.823509 
L 253.653917 269.957279 
L 254.467587 256.101591 
L 255.281258 258.238288 
L 256.094928 267.192132 
L 256.908599 274.721799 
L 257.722269 264.778559 
L 258.53594 262.544363 
L 259.34961 271.095278 
L 260.163281 268.696883 
L 260.976951 268.80841 
L 261.790622 272.739796 
L 262.604293 266.418382 
L 263.417963 263.420541 
L 264.231634 269.564999 
L 265.045304 274.535387 
L 265.858975 267.486453 
L 266.672645 268.595343 
L 267.486316 281.485754 
L 268.299986 271.295779 
L 269.113657 269.519436 
L 269.927327 268.054653 
L 270.740998 263.303683 
L 271.554668 272.723757 
L 272.368339 272.142925 
L 273.18201 272.545093 
L 273.99568 265.496416 
L 275.623021 278.108111 
L 276.436692 271.163486 
L 277.250362 271.507838 
L 278.064033 277.559684 
L 278.877703 263.727569 
L 279.691374 270.750729 
L 280.505044 274.144835 
L 281.318715 274.748376 
L 282.132386 268.617416 
L 282.946056 277.791535 
L 283.759727 274.602322 
L 284.573397 273.033646 
L 285.387068 271.162889 
L 286.200738 280.691052 
L 287.014409 286.073538 
L 288.64175 268.951861 
L 289.45542 282.890493 
L 290.269091 268.694131 
L 291.082761 271.947657 
L 291.896432 267.284537 
L 292.710103 281.201212 
L 293.523773 276.514024 
L 294.337444 251.528762 
L 295.151114 272.354072 
L 295.964785 277.42735 
L 296.778455 279.375225 
L 297.592126 270.455375 
L 298.405796 264.380375 
L 299.219467 269.151343 
L 300.846808 282.423724 
L 301.660478 273.410114 
L 302.474149 273.701994 
L 303.28782 276.359272 
L 304.10149 273.906431 
L 304.915161 276.936074 
L 305.728831 278.796413 
L 306.542502 271.72806 
L 307.356172 268.668523 
L 308.169843 273.853016 
L 308.983513 285.083132 
L 309.797184 278.243541 
L 310.610854 266.956921 
L 311.424525 279.79311 
L 312.238195 272.627346 
L 313.051866 276.431351 
L 313.865537 276.038232 
L 314.679207 272.069344 
L 315.492878 269.720117 
L 316.306548 270.075279 
L 317.120219 265.623854 
L 317.933889 286.432323 
L 318.74756 281.137402 
L 319.56123 282.905462 
L 320.374901 272.059997 
L 321.188571 282.961115 
L 322.002242 278.219564 
L 322.815913 275.824355 
L 323.629583 272.748213 
L 324.443254 271.168382 
L 325.256924 285.338039 
L 326.070595 270.309646 
L 326.884265 274.809502 
L 327.697936 275.012914 
L 328.511606 284.46538 
L 329.325277 278.442347 
L 330.138947 273.759421 
L 330.952618 267.026763 
L 331.766288 278.838178 
L 332.579959 269.441892 
L 333.39363 272.124674 
L 334.2073 278.707954 
L 335.020971 279.345797 
L 335.834641 284.999623 
L 336.648312 283.769352 
L 337.461982 284.567539 
L 338.275653 279.320247 
L 339.089323 274.844374 
L 339.902994 278.131579 
L 340.716664 283.39648 
L 341.530335 268.98543 
L 342.344005 272.552976 
L 343.157676 277.735751 
L 343.971347 290.171264 
L 344.785017 272.966713 
L 345.598688 279.825977 
L 346.412358 282.919335 
L 347.226029 280.706951 
L 348.039699 279.961864 
L 348.85337 283.294469 
L 349.66704 271.403728 
L 350.480711 268.649425 
L 351.294381 269.718583 
L 352.108052 285.023391 
L 352.921722 280.087049 
L 353.735393 282.288885 
L 354.549064 280.126131 
L 355.362734 279.085816 
L 356.176405 275.401687 
L 356.990075 279.580071 
L 357.803746 270.24289 
L 358.617416 275.031571 
L 359.431087 284.526828 
L 360.244757 260.700356 
L 361.058428 275.388814 
L 361.872098 276.6676 
L 362.685769 276.93412 
L 363.49944 269.192361 
L 364.31311 283.269869 
L 365.126781 273.654143 
L 365.940451 276.023758 
L 366.754122 278.738149 
L 367.567792 264.192602 
L 368.381463 265.926955 
L 369.195133 272.94413 
L 370.008804 277.909795 
L 370.822474 279.940776 
L 371.636145 272.665506 
L 372.449815 278.831411 
L 373.263486 278.637144 
L 374.077157 282.441645 
L 374.890827 249.273558 
L 375.704498 278.548728 
L 376.518168 268.000657 
L 377.331839 285.518021 
L 378.145509 276.257667 
L 378.95918 280.577951 
L 379.77285 272.296241 
L 380.586521 286.641454 
L 381.400191 276.468589 
L 382.213862 273.154514 
L 383.027532 273.651306 
L 383.841203 265.478101 
L 384.654874 277.259889 
L 385.468544 259.474423 
L 386.282215 273.904527 
L 387.095885 279.101127 
L 387.909556 276.256723 
L 388.723226 279.288035 
L 389.536897 276.485242 
L 390.350567 275.839048 
L 391.164238 277.45576 
L 391.977908 283.132038 
L 392.791579 276.399574 
L 393.605249 271.503866 
L 394.41892 281.980017 
L 395.232591 274.006337 
L 396.046261 289.756769 
L 396.859932 277.451514 
L 397.673602 269.929293 
L 398.487273 284.400106 
L 398.487273 284.400106 
" style="fill:none;stroke:#ff7f0e;stroke-linecap:square;stroke-width:1.5;"/>
   </g>
   <g id="patch_3">
    <path d="M 57.6 307.584 
L 57.6 41.472 
" style="fill:none;stroke:#000000;stroke-linecap:square;stroke-linejoin:miter;stroke-width:0.8;"/>
   </g>
   <g id="patch_4">
    <path d="M 414.72 307.584 
L 414.72 41.472 
" style="fill:none;stroke:#000000;stroke-linecap:square;stroke-linejoin:miter;stroke-width:0.8;"/>
   </g>
   <g id="patch_5">
    <path d="M 57.6 307.584 
L 414.72 307.584 
" style="fill:none;stroke:#000000;stroke-linecap:square;stroke-linejoin:miter;stroke-width:0.8;"/>
   </g>
   <g id="patch_6">
    <path d="M 57.6 41.472 
L 414.72 41.472 
" style="fill:none;stroke:#000000;stroke-linecap:square;stroke-linejoin:miter;stroke-width:0.8;"/>
   </g>
   <g id="legend_1">
    <g id="patch_7">
     <path d="M 303.845 78.82825 
L 407.72 78.82825 
Q 409.72 78.82825 409.72 76.82825 
L 409.72 48.472 
Q 409.72 46.472 407.72 46.472 
L 303.845 46.472 
Q 301.845 46.472 301.845 48.472 
L 301.845 76.82825 
Q 301.845 78.82825 303.845 78.82825 
z
" style="fill:#ffffff;opacity:0.8;stroke:#cccccc;stroke-linejoin:miter;"/>
    </g>
    <g id="line2d_17">
     <path d="M 305.845 54.570437 
L 325.845 54.570437 
" style="fill:none;stroke:#1f77b4;stroke-linecap:square;stroke-width:1.5;"/>
    </g>
    <g id="line2d_18"/>
    <g id="text_17">
     <!-- Train loss -->
     <g transform="translate(333.845 58.070437)scale(0.1 -0.1)">
      <defs>
       <path d="M -19 4666 
L 3928 4666 
L 3928 4134 
L 2272 4134 
L 2272 0 
L 1638 0 
L 1638 4134 
L -19 4134 
L -19 4666 
z
" id="DejaVuSans-54" transform="scale(0.015625)"/>
       <path d="M 2631 2963 
Q 2534 3019 2420 3045 
Q 2306 3072 2169 3072 
Q 1681 3072 1420 2755 
Q 1159 2438 1159 1844 
L 1159 0 
L 581 0 
L 581 3500 
L 1159 3500 
L 1159 2956 
Q 1341 3275 1631 3429 
Q 1922 3584 2338 3584 
Q 2397 3584 2469 3576 
Q 2541 3569 2628 3553 
L 2631 2963 
z
" id="DejaVuSans-72" transform="scale(0.015625)"/>
       <path d="M 2194 1759 
Q 1497 1759 1228 1600 
Q 959 1441 959 1056 
Q 959 750 1161 570 
Q 1363 391 1709 391 
Q 2188 391 2477 730 
Q 2766 1069 2766 1631 
L 2766 1759 
L 2194 1759 
z
M 3341 1997 
L 3341 0 
L 2766 0 
L 2766 531 
Q 2569 213 2275 61 
Q 1981 -91 1556 -91 
Q 1019 -91 701 211 
Q 384 513 384 1019 
Q 384 1609 779 1909 
Q 1175 2209 1959 2209 
L 2766 2209 
L 2766 2266 
Q 2766 2663 2505 2880 
Q 2244 3097 1772 3097 
Q 1472 3097 1187 3025 
Q 903 2953 641 2809 
L 641 3341 
Q 956 3463 1253 3523 
Q 1550 3584 1831 3584 
Q 2591 3584 2966 3190 
Q 3341 2797 3341 1997 
z
" id="DejaVuSans-61" transform="scale(0.015625)"/>
       <path d="M 603 3500 
L 1178 3500 
L 1178 0 
L 603 0 
L 603 3500 
z
M 603 4863 
L 1178 4863 
L 1178 4134 
L 603 4134 
L 603 4863 
z
" id="DejaVuSans-69" transform="scale(0.015625)"/>
       <path d="M 3513 2113 
L 3513 0 
L 2938 0 
L 2938 2094 
Q 2938 2591 2744 2837 
Q 2550 3084 2163 3084 
Q 1697 3084 1428 2787 
Q 1159 2491 1159 1978 
L 1159 0 
L 581 0 
L 581 3500 
L 1159 3500 
L 1159 2956 
Q 1366 3272 1645 3428 
Q 1925 3584 2291 3584 
Q 2894 3584 3203 3211 
Q 3513 2838 3513 2113 
z
" id="DejaVuSans-6e" transform="scale(0.015625)"/>
       <path id="DejaVuSans-20" transform="scale(0.015625)"/>
       <path d="M 603 4863 
L 1178 4863 
L 1178 0 
L 603 0 
L 603 4863 
z
" id="DejaVuSans-6c" transform="scale(0.015625)"/>
      </defs>
      <use xlink:href="#DejaVuSans-54"/>
      <use x="46.333984" xlink:href="#DejaVuSans-72"/>
      <use x="87.447266" xlink:href="#DejaVuSans-61"/>
      <use x="148.726562" xlink:href="#DejaVuSans-69"/>
      <use x="176.509766" xlink:href="#DejaVuSans-6e"/>
      <use x="239.888672" xlink:href="#DejaVuSans-20"/>
      <use x="271.675781" xlink:href="#DejaVuSans-6c"/>
      <use x="299.458984" xlink:href="#DejaVuSans-6f"/>
      <use x="360.640625" xlink:href="#DejaVuSans-73"/>
      <use x="412.740234" xlink:href="#DejaVuSans-73"/>
     </g>
    </g>
    <g id="line2d_19">
     <path d="M 305.845 69.248562 
L 325.845 69.248562 
" style="fill:none;stroke:#ff7f0e;stroke-linecap:square;stroke-width:1.5;"/>
    </g>
    <g id="line2d_20"/>
    <g id="text_18">
     <!-- Validation loss -->
     <g transform="translate(333.845 72.748562)scale(0.1 -0.1)">
      <defs>
       <path d="M 1831 0 
L 50 4666 
L 709 4666 
L 2188 738 
L 3669 4666 
L 4325 4666 
L 2547 0 
L 1831 0 
z
" id="DejaVuSans-56" transform="scale(0.015625)"/>
       <path d="M 2906 2969 
L 2906 4863 
L 3481 4863 
L 3481 0 
L 2906 0 
L 2906 525 
Q 2725 213 2448 61 
Q 2172 -91 1784 -91 
Q 1150 -91 751 415 
Q 353 922 353 1747 
Q 353 2572 751 3078 
Q 1150 3584 1784 3584 
Q 2172 3584 2448 3432 
Q 2725 3281 2906 2969 
z
M 947 1747 
Q 947 1113 1208 752 
Q 1469 391 1925 391 
Q 2381 391 2643 752 
Q 2906 1113 2906 1747 
Q 2906 2381 2643 2742 
Q 2381 3103 1925 3103 
Q 1469 3103 1208 2742 
Q 947 2381 947 1747 
z
" id="DejaVuSans-64" transform="scale(0.015625)"/>
       <path d="M 1172 4494 
L 1172 3500 
L 2356 3500 
L 2356 3053 
L 1172 3053 
L 1172 1153 
Q 1172 725 1289 603 
Q 1406 481 1766 481 
L 2356 481 
L 2356 0 
L 1766 0 
Q 1100 0 847 248 
Q 594 497 594 1153 
L 594 3053 
L 172 3053 
L 172 3500 
L 594 3500 
L 594 4494 
L 1172 4494 
z
" id="DejaVuSans-74" transform="scale(0.015625)"/>
      </defs>
      <use xlink:href="#DejaVuSans-56"/>
      <use x="60.658203" xlink:href="#DejaVuSans-61"/>
      <use x="121.9375" xlink:href="#DejaVuSans-6c"/>
      <use x="149.720703" xlink:href="#DejaVuSans-69"/>
      <use x="177.503906" xlink:href="#DejaVuSans-64"/>
      <use x="240.980469" xlink:href="#DejaVuSans-61"/>
      <use x="302.259766" xlink:href="#DejaVuSans-74"/>
      <use x="341.46875" xlink:href="#DejaVuSans-69"/>
      <use x="369.251953" xlink:href="#DejaVuSans-6f"/>
      <use x="430.433594" xlink:href="#DejaVuSans-6e"/>
      <use x="493.8125" xlink:href="#DejaVuSans-20"/>
      <use x="525.599609" xlink:href="#DejaVuSans-6c"/>
      <use x="553.382812" xlink:href="#DejaVuSans-6f"/>
      <use x="614.564453" xlink:href="#DejaVuSans-73"/>
      <use x="666.664062" xlink:href="#DejaVuSans-73"/>
     </g>
    </g>
   </g>
  </g>
 </g>
 <defs>
  <clipPath id="p8fc76581ab">
   <rect height="266.112" width="357.12" x="57.6" y="41.472"/>
  </clipPath>
 </defs>
</svg>
