<?xml version="1.0" encoding="utf-8" standalone="no"?>
<!DOCTYPE svg PUBLIC "-//W3C//DTD SVG 1.1//EN"
  "http://www.w3.org/Graphics/SVG/1.1/DTD/svg11.dtd">
<svg height="345.6pt" version="1.1" viewBox="0 0 460.8 345.6" width="460.8pt" xmlns="http://www.w3.org/2000/svg" xmlns:xlink="http://www.w3.org/1999/xlink">
 <metadata>
  <rdf:RDF xmlns:cc="http://creativecommons.org/ns#" xmlns:dc="http://purl.org/dc/elements/1.1/" xmlns:rdf="http://www.w3.org/1999/02/22-rdf-syntax-ns#">
   <cc:Work>
    <dc:type rdf:resource="http://purl.org/dc/dcmitype/StillImage"/>
    <dc:date>2021-08-06T00:25:29.749915</dc:date>
    <dc:format>image/svg+xml</dc:format>
    <dc:creator>
     <cc:Agent>
      <dc:title>Matplotlib v3.4.2, https://matplotlib.org/</dc:title>
     </cc:Agent>
    </dc:creator>
   </cc:Work>
  </rdf:RDF>
 </metadata>
 <defs>
  <style type="text/css">*{stroke-linecap:butt;stroke-linejoin:round;}</style>
 </defs>
 <g id="figure_1">
  <g id="patch_1">
   <path d="M 0 345.6 
L 460.8 345.6 
L 460.8 0 
L 0 0 
z
" style="fill:#ffffff;"/>
  </g>
  <g id="axes_1">
   <g id="patch_2">
    <path d="M 57.6 307.584 
L 414.72 307.584 
L 414.72 41.472 
L 57.6 41.472 
z
" style="fill:#ffffff;"/>
   </g>
   <g id="matplotlib.axis_1">
    <g id="xtick_1">
     <g id="line2d_1">
      <defs>
       <path d="M 0 0 
L 0 3.5 
" id="m776d10371e" style="stroke:#000000;stroke-width:0.8;"/>
      </defs>
      <g>
       <use style="stroke:#000000;stroke-width:0.8;" x="73.832727" xlink:href="#m776d10371e" y="307.584"/>
      </g>
     </g>
     <g id="text_1">
      <!-- 0 -->
      <g transform="translate(70.651477 322.182437)scale(0.1 -0.1)">
       <defs>
        <path d="M 2034 4250 
Q 1547 4250 1301 3770 
Q 1056 3291 1056 2328 
Q 1056 1369 1301 889 
Q 1547 409 2034 409 
Q 2525 409 2770 889 
Q 3016 1369 3016 2328 
Q 3016 3291 2770 3770 
Q 2525 4250 2034 4250 
z
M 2034 4750 
Q 2819 4750 3233 4129 
Q 3647 3509 3647 2328 
Q 3647 1150 3233 529 
Q 2819 -91 2034 -91 
Q 1250 -91 836 529 
Q 422 1150 422 2328 
Q 422 3509 836 4129 
Q 1250 4750 2034 4750 
z
" id="DejaVuSans-30" transform="scale(0.015625)"/>
       </defs>
       <use xlink:href="#DejaVuSans-30"/>
      </g>
     </g>
    </g>
    <g id="xtick_2">
     <g id="line2d_2">
      <g>
       <use style="stroke:#000000;stroke-width:0.8;" x="129.904324" xlink:href="#m776d10371e" y="307.584"/>
      </g>
     </g>
     <g id="text_2">
      <!-- 100 -->
      <g transform="translate(120.360574 322.182437)scale(0.1 -0.1)">
       <defs>
        <path d="M 794 531 
L 1825 531 
L 1825 4091 
L 703 3866 
L 703 4441 
L 1819 4666 
L 2450 4666 
L 2450 531 
L 3481 531 
L 3481 0 
L 794 0 
L 794 531 
z
" id="DejaVuSans-31" transform="scale(0.015625)"/>
       </defs>
       <use xlink:href="#DejaVuSans-31"/>
       <use x="63.623047" xlink:href="#DejaVuSans-30"/>
       <use x="127.246094" xlink:href="#DejaVuSans-30"/>
      </g>
     </g>
    </g>
    <g id="xtick_3">
     <g id="line2d_3">
      <g>
       <use style="stroke:#000000;stroke-width:0.8;" x="185.975921" xlink:href="#m776d10371e" y="307.584"/>
      </g>
     </g>
     <g id="text_3">
      <!-- 200 -->
      <g transform="translate(176.432171 322.182437)scale(0.1 -0.1)">
       <defs>
        <path d="M 1228 531 
L 3431 531 
L 3431 0 
L 469 0 
L 469 531 
Q 828 903 1448 1529 
Q 2069 2156 2228 2338 
Q 2531 2678 2651 2914 
Q 2772 3150 2772 3378 
Q 2772 3750 2511 3984 
Q 2250 4219 1831 4219 
Q 1534 4219 1204 4116 
Q 875 4013 500 3803 
L 500 4441 
Q 881 4594 1212 4672 
Q 1544 4750 1819 4750 
Q 2544 4750 2975 4387 
Q 3406 4025 3406 3419 
Q 3406 3131 3298 2873 
Q 3191 2616 2906 2266 
Q 2828 2175 2409 1742 
Q 1991 1309 1228 531 
z
" id="DejaVuSans-32" transform="scale(0.015625)"/>
       </defs>
       <use xlink:href="#DejaVuSans-32"/>
       <use x="63.623047" xlink:href="#DejaVuSans-30"/>
       <use x="127.246094" xlink:href="#DejaVuSans-30"/>
      </g>
     </g>
    </g>
    <g id="xtick_4">
     <g id="line2d_4">
      <g>
       <use style="stroke:#000000;stroke-width:0.8;" x="242.047518" xlink:href="#m776d10371e" y="307.584"/>
      </g>
     </g>
     <g id="text_4">
      <!-- 300 -->
      <g transform="translate(232.503768 322.182437)scale(0.1 -0.1)">
       <defs>
        <path d="M 2597 2516 
Q 3050 2419 3304 2112 
Q 3559 1806 3559 1356 
Q 3559 666 3084 287 
Q 2609 -91 1734 -91 
Q 1441 -91 1130 -33 
Q 819 25 488 141 
L 488 750 
Q 750 597 1062 519 
Q 1375 441 1716 441 
Q 2309 441 2620 675 
Q 2931 909 2931 1356 
Q 2931 1769 2642 2001 
Q 2353 2234 1838 2234 
L 1294 2234 
L 1294 2753 
L 1863 2753 
Q 2328 2753 2575 2939 
Q 2822 3125 2822 3475 
Q 2822 3834 2567 4026 
Q 2313 4219 1838 4219 
Q 1578 4219 1281 4162 
Q 984 4106 628 3988 
L 628 4550 
Q 988 4650 1302 4700 
Q 1616 4750 1894 4750 
Q 2613 4750 3031 4423 
Q 3450 4097 3450 3541 
Q 3450 3153 3228 2886 
Q 3006 2619 2597 2516 
z
" id="DejaVuSans-33" transform="scale(0.015625)"/>
       </defs>
       <use xlink:href="#DejaVuSans-33"/>
       <use x="63.623047" xlink:href="#DejaVuSans-30"/>
       <use x="127.246094" xlink:href="#DejaVuSans-30"/>
      </g>
     </g>
    </g>
    <g id="xtick_5">
     <g id="line2d_5">
      <g>
       <use style="stroke:#000000;stroke-width:0.8;" x="298.119114" xlink:href="#m776d10371e" y="307.584"/>
      </g>
     </g>
     <g id="text_5">
      <!-- 400 -->
      <g transform="translate(288.575364 322.182437)scale(0.1 -0.1)">
       <defs>
        <path d="M 2419 4116 
L 825 1625 
L 2419 1625 
L 2419 4116 
z
M 2253 4666 
L 3047 4666 
L 3047 1625 
L 3713 1625 
L 3713 1100 
L 3047 1100 
L 3047 0 
L 2419 0 
L 2419 1100 
L 313 1100 
L 313 1709 
L 2253 4666 
z
" id="DejaVuSans-34" transform="scale(0.015625)"/>
       </defs>
       <use xlink:href="#DejaVuSans-34"/>
       <use x="63.623047" xlink:href="#DejaVuSans-30"/>
       <use x="127.246094" xlink:href="#DejaVuSans-30"/>
      </g>
     </g>
    </g>
    <g id="xtick_6">
     <g id="line2d_6">
      <g>
       <use style="stroke:#000000;stroke-width:0.8;" x="354.190711" xlink:href="#m776d10371e" y="307.584"/>
      </g>
     </g>
     <g id="text_6">
      <!-- 500 -->
      <g transform="translate(344.646961 322.182437)scale(0.1 -0.1)">
       <defs>
        <path d="M 691 4666 
L 3169 4666 
L 3169 4134 
L 1269 4134 
L 1269 2991 
Q 1406 3038 1543 3061 
Q 1681 3084 1819 3084 
Q 2600 3084 3056 2656 
Q 3513 2228 3513 1497 
Q 3513 744 3044 326 
Q 2575 -91 1722 -91 
Q 1428 -91 1123 -41 
Q 819 9 494 109 
L 494 744 
Q 775 591 1075 516 
Q 1375 441 1709 441 
Q 2250 441 2565 725 
Q 2881 1009 2881 1497 
Q 2881 1984 2565 2268 
Q 2250 2553 1709 2553 
Q 1456 2553 1204 2497 
Q 953 2441 691 2322 
L 691 4666 
z
" id="DejaVuSans-35" transform="scale(0.015625)"/>
       </defs>
       <use xlink:href="#DejaVuSans-35"/>
       <use x="63.623047" xlink:href="#DejaVuSans-30"/>
       <use x="127.246094" xlink:href="#DejaVuSans-30"/>
      </g>
     </g>
    </g>
    <g id="xtick_7">
     <g id="line2d_7">
      <g>
       <use style="stroke:#000000;stroke-width:0.8;" x="410.262308" xlink:href="#m776d10371e" y="307.584"/>
      </g>
     </g>
     <g id="text_7">
      <!-- 600 -->
      <g transform="translate(400.718558 322.182437)scale(0.1 -0.1)">
       <defs>
        <path d="M 2113 2584 
Q 1688 2584 1439 2293 
Q 1191 2003 1191 1497 
Q 1191 994 1439 701 
Q 1688 409 2113 409 
Q 2538 409 2786 701 
Q 3034 994 3034 1497 
Q 3034 2003 2786 2293 
Q 2538 2584 2113 2584 
z
M 3366 4563 
L 3366 3988 
Q 3128 4100 2886 4159 
Q 2644 4219 2406 4219 
Q 1781 4219 1451 3797 
Q 1122 3375 1075 2522 
Q 1259 2794 1537 2939 
Q 1816 3084 2150 3084 
Q 2853 3084 3261 2657 
Q 3669 2231 3669 1497 
Q 3669 778 3244 343 
Q 2819 -91 2113 -91 
Q 1303 -91 875 529 
Q 447 1150 447 2328 
Q 447 3434 972 4092 
Q 1497 4750 2381 4750 
Q 2619 4750 2861 4703 
Q 3103 4656 3366 4563 
z
" id="DejaVuSans-36" transform="scale(0.015625)"/>
       </defs>
       <use xlink:href="#DejaVuSans-36"/>
       <use x="63.623047" xlink:href="#DejaVuSans-30"/>
       <use x="127.246094" xlink:href="#DejaVuSans-30"/>
      </g>
     </g>
    </g>
    <g id="text_8">
     <!-- Epoch -->
     <g transform="translate(213.193594 339.659781)scale(0.15 -0.15)">
      <defs>
       <path d="M 628 4666 
L 3578 4666 
L 3578 4134 
L 1259 4134 
L 1259 2753 
L 3481 2753 
L 3481 2222 
L 1259 2222 
L 1259 531 
L 3634 531 
L 3634 0 
L 628 0 
L 628 4666 
z
" id="DejaVuSans-45" transform="scale(0.015625)"/>
       <path d="M 1159 525 
L 1159 -1331 
L 581 -1331 
L 581 3500 
L 1159 3500 
L 1159 2969 
Q 1341 3281 1617 3432 
Q 1894 3584 2278 3584 
Q 2916 3584 3314 3078 
Q 3713 2572 3713 1747 
Q 3713 922 3314 415 
Q 2916 -91 2278 -91 
Q 1894 -91 1617 61 
Q 1341 213 1159 525 
z
M 3116 1747 
Q 3116 2381 2855 2742 
Q 2594 3103 2138 3103 
Q 1681 3103 1420 2742 
Q 1159 2381 1159 1747 
Q 1159 1113 1420 752 
Q 1681 391 2138 391 
Q 2594 391 2855 752 
Q 3116 1113 3116 1747 
z
" id="DejaVuSans-70" transform="scale(0.015625)"/>
       <path d="M 1959 3097 
Q 1497 3097 1228 2736 
Q 959 2375 959 1747 
Q 959 1119 1226 758 
Q 1494 397 1959 397 
Q 2419 397 2687 759 
Q 2956 1122 2956 1747 
Q 2956 2369 2687 2733 
Q 2419 3097 1959 3097 
z
M 1959 3584 
Q 2709 3584 3137 3096 
Q 3566 2609 3566 1747 
Q 3566 888 3137 398 
Q 2709 -91 1959 -91 
Q 1206 -91 779 398 
Q 353 888 353 1747 
Q 353 2609 779 3096 
Q 1206 3584 1959 3584 
z
" id="DejaVuSans-6f" transform="scale(0.015625)"/>
       <path d="M 3122 3366 
L 3122 2828 
Q 2878 2963 2633 3030 
Q 2388 3097 2138 3097 
Q 1578 3097 1268 2742 
Q 959 2388 959 1747 
Q 959 1106 1268 751 
Q 1578 397 2138 397 
Q 2388 397 2633 464 
Q 2878 531 3122 666 
L 3122 134 
Q 2881 22 2623 -34 
Q 2366 -91 2075 -91 
Q 1284 -91 818 406 
Q 353 903 353 1747 
Q 353 2603 823 3093 
Q 1294 3584 2113 3584 
Q 2378 3584 2631 3529 
Q 2884 3475 3122 3366 
z
" id="DejaVuSans-63" transform="scale(0.015625)"/>
       <path d="M 3513 2113 
L 3513 0 
L 2938 0 
L 2938 2094 
Q 2938 2591 2744 2837 
Q 2550 3084 2163 3084 
Q 1697 3084 1428 2787 
Q 1159 2491 1159 1978 
L 1159 0 
L 581 0 
L 581 4863 
L 1159 4863 
L 1159 2956 
Q 1366 3272 1645 3428 
Q 1925 3584 2291 3584 
Q 2894 3584 3203 3211 
Q 3513 2838 3513 2113 
z
" id="DejaVuSans-68" transform="scale(0.015625)"/>
      </defs>
      <use xlink:href="#DejaVuSans-45"/>
      <use x="63.183594" xlink:href="#DejaVuSans-70"/>
      <use x="126.660156" xlink:href="#DejaVuSans-6f"/>
      <use x="187.841797" xlink:href="#DejaVuSans-63"/>
      <use x="242.822266" xlink:href="#DejaVuSans-68"/>
     </g>
    </g>
   </g>
   <g id="matplotlib.axis_2">
    <g id="ytick_1">
     <g id="line2d_8">
      <defs>
       <path d="M 0 0 
L -3.5 0 
" id="m70e92fbf04" style="stroke:#000000;stroke-width:0.8;"/>
      </defs>
      <g>
       <use style="stroke:#000000;stroke-width:0.8;" x="57.6" xlink:href="#m70e92fbf04" y="294.919425"/>
      </g>
     </g>
     <g id="text_9">
      <!-- $\mathdefault{10^{-5}}$ -->
      <g transform="translate(27.1 298.718644)scale(0.1 -0.1)">
       <defs>
        <path d="M 678 2272 
L 4684 2272 
L 4684 1741 
L 678 1741 
L 678 2272 
z
" id="DejaVuSans-2212" transform="scale(0.015625)"/>
       </defs>
       <use transform="translate(0 0.684375)" xlink:href="#DejaVuSans-31"/>
       <use transform="translate(63.623047 0.684375)" xlink:href="#DejaVuSans-30"/>
       <use transform="translate(128.203125 38.965625)scale(0.7)" xlink:href="#DejaVuSans-2212"/>
       <use transform="translate(186.855469 38.965625)scale(0.7)" xlink:href="#DejaVuSans-35"/>
      </g>
     </g>
    </g>
    <g id="ytick_2">
     <g id="line2d_9">
      <g>
       <use style="stroke:#000000;stroke-width:0.8;" x="57.6" xlink:href="#m70e92fbf04" y="259.729497"/>
      </g>
     </g>
     <g id="text_10">
      <!-- $\mathdefault{10^{-4}}$ -->
      <g transform="translate(27.1 263.528716)scale(0.1 -0.1)">
       <use transform="translate(0 0.684375)" xlink:href="#DejaVuSans-31"/>
       <use transform="translate(63.623047 0.684375)" xlink:href="#DejaVuSans-30"/>
       <use transform="translate(128.203125 38.965625)scale(0.7)" xlink:href="#DejaVuSans-2212"/>
       <use transform="translate(186.855469 38.965625)scale(0.7)" xlink:href="#DejaVuSans-34"/>
      </g>
     </g>
    </g>
    <g id="ytick_3">
     <g id="line2d_10">
      <g>
       <use style="stroke:#000000;stroke-width:0.8;" x="57.6" xlink:href="#m70e92fbf04" y="224.539569"/>
      </g>
     </g>
     <g id="text_11">
      <!-- $\mathdefault{10^{-3}}$ -->
      <g transform="translate(27.1 228.338788)scale(0.1 -0.1)">
       <use transform="translate(0 0.765625)" xlink:href="#DejaVuSans-31"/>
       <use transform="translate(63.623047 0.765625)" xlink:href="#DejaVuSans-30"/>
       <use transform="translate(128.203125 39.046875)scale(0.7)" xlink:href="#DejaVuSans-2212"/>
       <use transform="translate(186.855469 39.046875)scale(0.7)" xlink:href="#DejaVuSans-33"/>
      </g>
     </g>
    </g>
    <g id="ytick_4">
     <g id="line2d_11">
      <g>
       <use style="stroke:#000000;stroke-width:0.8;" x="57.6" xlink:href="#m70e92fbf04" y="189.349641"/>
      </g>
     </g>
     <g id="text_12">
      <!-- $\mathdefault{10^{-2}}$ -->
      <g transform="translate(27.1 193.14886)scale(0.1 -0.1)">
       <use transform="translate(0 0.765625)" xlink:href="#DejaVuSans-31"/>
       <use transform="translate(63.623047 0.765625)" xlink:href="#DejaVuSans-30"/>
       <use transform="translate(128.203125 39.046875)scale(0.7)" xlink:href="#DejaVuSans-2212"/>
       <use transform="translate(186.855469 39.046875)scale(0.7)" xlink:href="#DejaVuSans-32"/>
      </g>
     </g>
    </g>
    <g id="ytick_5">
     <g id="line2d_12">
      <g>
       <use style="stroke:#000000;stroke-width:0.8;" x="57.6" xlink:href="#m70e92fbf04" y="154.159713"/>
      </g>
     </g>
     <g id="text_13">
      <!-- $\mathdefault{10^{-1}}$ -->
      <g transform="translate(27.1 157.958932)scale(0.1 -0.1)">
       <use transform="translate(0 0.684375)" xlink:href="#DejaVuSans-31"/>
       <use transform="translate(63.623047 0.684375)" xlink:href="#DejaVuSans-30"/>
       <use transform="translate(128.203125 38.965625)scale(0.7)" xlink:href="#DejaVuSans-2212"/>
       <use transform="translate(186.855469 38.965625)scale(0.7)" xlink:href="#DejaVuSans-31"/>
      </g>
     </g>
    </g>
    <g id="ytick_6">
     <g id="line2d_13">
      <g>
       <use style="stroke:#000000;stroke-width:0.8;" x="57.6" xlink:href="#m70e92fbf04" y="118.969785"/>
      </g>
     </g>
     <g id="text_14">
      <!-- $\mathdefault{10^{0}}$ -->
      <g transform="translate(33 122.769004)scale(0.1 -0.1)">
       <use transform="translate(0 0.765625)" xlink:href="#DejaVuSans-31"/>
       <use transform="translate(63.623047 0.765625)" xlink:href="#DejaVuSans-30"/>
       <use transform="translate(128.203125 39.046875)scale(0.7)" xlink:href="#DejaVuSans-30"/>
      </g>
     </g>
    </g>
    <g id="ytick_7">
     <g id="line2d_14">
      <g>
       <use style="stroke:#000000;stroke-width:0.8;" x="57.6" xlink:href="#m70e92fbf04" y="83.779857"/>
      </g>
     </g>
     <g id="text_15">
      <!-- $\mathdefault{10^{1}}$ -->
      <g transform="translate(33 87.579075)scale(0.1 -0.1)">
       <use transform="translate(0 0.684375)" xlink:href="#DejaVuSans-31"/>
       <use transform="translate(63.623047 0.684375)" xlink:href="#DejaVuSans-30"/>
       <use transform="translate(128.203125 38.965625)scale(0.7)" xlink:href="#DejaVuSans-31"/>
      </g>
     </g>
    </g>
    <g id="ytick_8">
     <g id="line2d_15">
      <g>
       <use style="stroke:#000000;stroke-width:0.8;" x="57.6" xlink:href="#m70e92fbf04" y="48.589929"/>
      </g>
     </g>
     <g id="text_16">
      <!-- $\mathdefault{10^{2}}$ -->
      <g transform="translate(33 52.389147)scale(0.1 -0.1)">
       <use transform="translate(0 0.765625)" xlink:href="#DejaVuSans-31"/>
       <use transform="translate(63.623047 0.765625)" xlink:href="#DejaVuSans-30"/>
       <use transform="translate(128.203125 39.046875)scale(0.7)" xlink:href="#DejaVuSans-32"/>
      </g>
     </g>
    </g>
    <g id="ytick_9">
     <g id="line2d_16">
      <defs>
       <path d="M 0 0 
L -2 0 
" id="mdd0a252958" style="stroke:#000000;stroke-width:0.6;"/>
      </defs>
      <g>
       <use style="stroke:#000000;stroke-width:0.6;" x="57.6" xlink:href="#mdd0a252958" y="305.512649"/>
      </g>
     </g>
    </g>
    <g id="ytick_10">
     <g id="line2d_17">
      <g>
       <use style="stroke:#000000;stroke-width:0.6;" x="57.6" xlink:href="#mdd0a252958" y="302.726267"/>
      </g>
     </g>
    </g>
    <g id="ytick_11">
     <g id="line2d_18">
      <g>
       <use style="stroke:#000000;stroke-width:0.6;" x="57.6" xlink:href="#mdd0a252958" y="300.370414"/>
      </g>
     </g>
    </g>
    <g id="ytick_12">
     <g id="line2d_19">
      <g>
       <use style="stroke:#000000;stroke-width:0.6;" x="57.6" xlink:href="#mdd0a252958" y="298.329681"/>
      </g>
     </g>
    </g>
    <g id="ytick_13">
     <g id="line2d_20">
      <g>
       <use style="stroke:#000000;stroke-width:0.6;" x="57.6" xlink:href="#mdd0a252958" y="296.529628"/>
      </g>
     </g>
    </g>
    <g id="ytick_14">
     <g id="line2d_21">
      <g>
       <use style="stroke:#000000;stroke-width:0.6;" x="57.6" xlink:href="#mdd0a252958" y="284.326201"/>
      </g>
     </g>
    </g>
    <g id="ytick_15">
     <g id="line2d_22">
      <g>
       <use style="stroke:#000000;stroke-width:0.6;" x="57.6" xlink:href="#mdd0a252958" y="278.129562"/>
      </g>
     </g>
    </g>
    <g id="ytick_16">
     <g id="line2d_23">
      <g>
       <use style="stroke:#000000;stroke-width:0.6;" x="57.6" xlink:href="#mdd0a252958" y="273.732977"/>
      </g>
     </g>
    </g>
    <g id="ytick_17">
     <g id="line2d_24">
      <g>
       <use style="stroke:#000000;stroke-width:0.6;" x="57.6" xlink:href="#mdd0a252958" y="270.322721"/>
      </g>
     </g>
    </g>
    <g id="ytick_18">
     <g id="line2d_25">
      <g>
       <use style="stroke:#000000;stroke-width:0.6;" x="57.6" xlink:href="#mdd0a252958" y="267.536338"/>
      </g>
     </g>
    </g>
    <g id="ytick_19">
     <g id="line2d_26">
      <g>
       <use style="stroke:#000000;stroke-width:0.6;" x="57.6" xlink:href="#mdd0a252958" y="265.180486"/>
      </g>
     </g>
    </g>
    <g id="ytick_20">
     <g id="line2d_27">
      <g>
       <use style="stroke:#000000;stroke-width:0.6;" x="57.6" xlink:href="#mdd0a252958" y="263.139753"/>
      </g>
     </g>
    </g>
    <g id="ytick_21">
     <g id="line2d_28">
      <g>
       <use style="stroke:#000000;stroke-width:0.6;" x="57.6" xlink:href="#mdd0a252958" y="261.3397"/>
      </g>
     </g>
    </g>
    <g id="ytick_22">
     <g id="line2d_29">
      <g>
       <use style="stroke:#000000;stroke-width:0.6;" x="57.6" xlink:href="#mdd0a252958" y="249.136273"/>
      </g>
     </g>
    </g>
    <g id="ytick_23">
     <g id="line2d_30">
      <g>
       <use style="stroke:#000000;stroke-width:0.6;" x="57.6" xlink:href="#mdd0a252958" y="242.939634"/>
      </g>
     </g>
    </g>
    <g id="ytick_24">
     <g id="line2d_31">
      <g>
       <use style="stroke:#000000;stroke-width:0.6;" x="57.6" xlink:href="#mdd0a252958" y="238.543049"/>
      </g>
     </g>
    </g>
    <g id="ytick_25">
     <g id="line2d_32">
      <g>
       <use style="stroke:#000000;stroke-width:0.6;" x="57.6" xlink:href="#mdd0a252958" y="235.132793"/>
      </g>
     </g>
    </g>
    <g id="ytick_26">
     <g id="line2d_33">
      <g>
       <use style="stroke:#000000;stroke-width:0.6;" x="57.6" xlink:href="#mdd0a252958" y="232.34641"/>
      </g>
     </g>
    </g>
    <g id="ytick_27">
     <g id="line2d_34">
      <g>
       <use style="stroke:#000000;stroke-width:0.6;" x="57.6" xlink:href="#mdd0a252958" y="229.990558"/>
      </g>
     </g>
    </g>
    <g id="ytick_28">
     <g id="line2d_35">
      <g>
       <use style="stroke:#000000;stroke-width:0.6;" x="57.6" xlink:href="#mdd0a252958" y="227.949825"/>
      </g>
     </g>
    </g>
    <g id="ytick_29">
     <g id="line2d_36">
      <g>
       <use style="stroke:#000000;stroke-width:0.6;" x="57.6" xlink:href="#mdd0a252958" y="226.149772"/>
      </g>
     </g>
    </g>
    <g id="ytick_30">
     <g id="line2d_37">
      <g>
       <use style="stroke:#000000;stroke-width:0.6;" x="57.6" xlink:href="#mdd0a252958" y="213.946345"/>
      </g>
     </g>
    </g>
    <g id="ytick_31">
     <g id="line2d_38">
      <g>
       <use style="stroke:#000000;stroke-width:0.6;" x="57.6" xlink:href="#mdd0a252958" y="207.749706"/>
      </g>
     </g>
    </g>
    <g id="ytick_32">
     <g id="line2d_39">
      <g>
       <use style="stroke:#000000;stroke-width:0.6;" x="57.6" xlink:href="#mdd0a252958" y="203.353121"/>
      </g>
     </g>
    </g>
    <g id="ytick_33">
     <g id="line2d_40">
      <g>
       <use style="stroke:#000000;stroke-width:0.6;" x="57.6" xlink:href="#mdd0a252958" y="199.942865"/>
      </g>
     </g>
    </g>
    <g id="ytick_34">
     <g id="line2d_41">
      <g>
       <use style="stroke:#000000;stroke-width:0.6;" x="57.6" xlink:href="#mdd0a252958" y="197.156482"/>
      </g>
     </g>
    </g>
    <g id="ytick_35">
     <g id="line2d_42">
      <g>
       <use style="stroke:#000000;stroke-width:0.6;" x="57.6" xlink:href="#mdd0a252958" y="194.80063"/>
      </g>
     </g>
    </g>
    <g id="ytick_36">
     <g id="line2d_43">
      <g>
       <use style="stroke:#000000;stroke-width:0.6;" x="57.6" xlink:href="#mdd0a252958" y="192.759897"/>
      </g>
     </g>
    </g>
    <g id="ytick_37">
     <g id="line2d_44">
      <g>
       <use style="stroke:#000000;stroke-width:0.6;" x="57.6" xlink:href="#mdd0a252958" y="190.959844"/>
      </g>
     </g>
    </g>
    <g id="ytick_38">
     <g id="line2d_45">
      <g>
       <use style="stroke:#000000;stroke-width:0.6;" x="57.6" xlink:href="#mdd0a252958" y="178.756417"/>
      </g>
     </g>
    </g>
    <g id="ytick_39">
     <g id="line2d_46">
      <g>
       <use style="stroke:#000000;stroke-width:0.6;" x="57.6" xlink:href="#mdd0a252958" y="172.559778"/>
      </g>
     </g>
    </g>
    <g id="ytick_40">
     <g id="line2d_47">
      <g>
       <use style="stroke:#000000;stroke-width:0.6;" x="57.6" xlink:href="#mdd0a252958" y="168.163193"/>
      </g>
     </g>
    </g>
    <g id="ytick_41">
     <g id="line2d_48">
      <g>
       <use style="stroke:#000000;stroke-width:0.6;" x="57.6" xlink:href="#mdd0a252958" y="164.752937"/>
      </g>
     </g>
    </g>
    <g id="ytick_42">
     <g id="line2d_49">
      <g>
       <use style="stroke:#000000;stroke-width:0.6;" x="57.6" xlink:href="#mdd0a252958" y="161.966554"/>
      </g>
     </g>
    </g>
    <g id="ytick_43">
     <g id="line2d_50">
      <g>
       <use style="stroke:#000000;stroke-width:0.6;" x="57.6" xlink:href="#mdd0a252958" y="159.610702"/>
      </g>
     </g>
    </g>
    <g id="ytick_44">
     <g id="line2d_51">
      <g>
       <use style="stroke:#000000;stroke-width:0.6;" x="57.6" xlink:href="#mdd0a252958" y="157.569969"/>
      </g>
     </g>
    </g>
    <g id="ytick_45">
     <g id="line2d_52">
      <g>
       <use style="stroke:#000000;stroke-width:0.6;" x="57.6" xlink:href="#mdd0a252958" y="155.769916"/>
      </g>
     </g>
    </g>
    <g id="ytick_46">
     <g id="line2d_53">
      <g>
       <use style="stroke:#000000;stroke-width:0.6;" x="57.6" xlink:href="#mdd0a252958" y="143.566489"/>
      </g>
     </g>
    </g>
    <g id="ytick_47">
     <g id="line2d_54">
      <g>
       <use style="stroke:#000000;stroke-width:0.6;" x="57.6" xlink:href="#mdd0a252958" y="137.36985"/>
      </g>
     </g>
    </g>
    <g id="ytick_48">
     <g id="line2d_55">
      <g>
       <use style="stroke:#000000;stroke-width:0.6;" x="57.6" xlink:href="#mdd0a252958" y="132.973265"/>
      </g>
     </g>
    </g>
    <g id="ytick_49">
     <g id="line2d_56">
      <g>
       <use style="stroke:#000000;stroke-width:0.6;" x="57.6" xlink:href="#mdd0a252958" y="129.563009"/>
      </g>
     </g>
    </g>
    <g id="ytick_50">
     <g id="line2d_57">
      <g>
       <use style="stroke:#000000;stroke-width:0.6;" x="57.6" xlink:href="#mdd0a252958" y="126.776626"/>
      </g>
     </g>
    </g>
    <g id="ytick_51">
     <g id="line2d_58">
      <g>
       <use style="stroke:#000000;stroke-width:0.6;" x="57.6" xlink:href="#mdd0a252958" y="124.420774"/>
      </g>
     </g>
    </g>
    <g id="ytick_52">
     <g id="line2d_59">
      <g>
       <use style="stroke:#000000;stroke-width:0.6;" x="57.6" xlink:href="#mdd0a252958" y="122.380041"/>
      </g>
     </g>
    </g>
    <g id="ytick_53">
     <g id="line2d_60">
      <g>
       <use style="stroke:#000000;stroke-width:0.6;" x="57.6" xlink:href="#mdd0a252958" y="120.579988"/>
      </g>
     </g>
    </g>
    <g id="ytick_54">
     <g id="line2d_61">
      <g>
       <use style="stroke:#000000;stroke-width:0.6;" x="57.6" xlink:href="#mdd0a252958" y="108.376561"/>
      </g>
     </g>
    </g>
    <g id="ytick_55">
     <g id="line2d_62">
      <g>
       <use style="stroke:#000000;stroke-width:0.6;" x="57.6" xlink:href="#mdd0a252958" y="102.179922"/>
      </g>
     </g>
    </g>
    <g id="ytick_56">
     <g id="line2d_63">
      <g>
       <use style="stroke:#000000;stroke-width:0.6;" x="57.6" xlink:href="#mdd0a252958" y="97.783337"/>
      </g>
     </g>
    </g>
    <g id="ytick_57">
     <g id="line2d_64">
      <g>
       <use style="stroke:#000000;stroke-width:0.6;" x="57.6" xlink:href="#mdd0a252958" y="94.373081"/>
      </g>
     </g>
    </g>
    <g id="ytick_58">
     <g id="line2d_65">
      <g>
       <use style="stroke:#000000;stroke-width:0.6;" x="57.6" xlink:href="#mdd0a252958" y="91.586698"/>
      </g>
     </g>
    </g>
    <g id="ytick_59">
     <g id="line2d_66">
      <g>
       <use style="stroke:#000000;stroke-width:0.6;" x="57.6" xlink:href="#mdd0a252958" y="89.230846"/>
      </g>
     </g>
    </g>
    <g id="ytick_60">
     <g id="line2d_67">
      <g>
       <use style="stroke:#000000;stroke-width:0.6;" x="57.6" xlink:href="#mdd0a252958" y="87.190113"/>
      </g>
     </g>
    </g>
    <g id="ytick_61">
     <g id="line2d_68">
      <g>
       <use style="stroke:#000000;stroke-width:0.6;" x="57.6" xlink:href="#mdd0a252958" y="85.39006"/>
      </g>
     </g>
    </g>
    <g id="ytick_62">
     <g id="line2d_69">
      <g>
       <use style="stroke:#000000;stroke-width:0.6;" x="57.6" xlink:href="#mdd0a252958" y="73.186633"/>
      </g>
     </g>
    </g>
    <g id="ytick_63">
     <g id="line2d_70">
      <g>
       <use style="stroke:#000000;stroke-width:0.6;" x="57.6" xlink:href="#mdd0a252958" y="66.989994"/>
      </g>
     </g>
    </g>
    <g id="ytick_64">
     <g id="line2d_71">
      <g>
       <use style="stroke:#000000;stroke-width:0.6;" x="57.6" xlink:href="#mdd0a252958" y="62.593409"/>
      </g>
     </g>
    </g>
    <g id="ytick_65">
     <g id="line2d_72">
      <g>
       <use style="stroke:#000000;stroke-width:0.6;" x="57.6" xlink:href="#mdd0a252958" y="59.183153"/>
      </g>
     </g>
    </g>
    <g id="ytick_66">
     <g id="line2d_73">
      <g>
       <use style="stroke:#000000;stroke-width:0.6;" x="57.6" xlink:href="#mdd0a252958" y="56.39677"/>
      </g>
     </g>
    </g>
    <g id="ytick_67">
     <g id="line2d_74">
      <g>
       <use style="stroke:#000000;stroke-width:0.6;" x="57.6" xlink:href="#mdd0a252958" y="54.040917"/>
      </g>
     </g>
    </g>
    <g id="ytick_68">
     <g id="line2d_75">
      <g>
       <use style="stroke:#000000;stroke-width:0.6;" x="57.6" xlink:href="#mdd0a252958" y="52.000185"/>
      </g>
     </g>
    </g>
    <g id="ytick_69">
     <g id="line2d_76">
      <g>
       <use style="stroke:#000000;stroke-width:0.6;" x="57.6" xlink:href="#mdd0a252958" y="50.200131"/>
      </g>
     </g>
    </g>
    <g id="text_17">
     <!-- Gradient norm -->
     <g transform="translate(19.980469 229.154953)rotate(-90)scale(0.15 -0.15)">
      <defs>
       <path d="M 3809 666 
L 3809 1919 
L 2778 1919 
L 2778 2438 
L 4434 2438 
L 4434 434 
Q 4069 175 3628 42 
Q 3188 -91 2688 -91 
Q 1594 -91 976 548 
Q 359 1188 359 2328 
Q 359 3472 976 4111 
Q 1594 4750 2688 4750 
Q 3144 4750 3555 4637 
Q 3966 4525 4313 4306 
L 4313 3634 
Q 3963 3931 3569 4081 
Q 3175 4231 2741 4231 
Q 1884 4231 1454 3753 
Q 1025 3275 1025 2328 
Q 1025 1384 1454 906 
Q 1884 428 2741 428 
Q 3075 428 3337 486 
Q 3600 544 3809 666 
z
" id="DejaVuSans-47" transform="scale(0.015625)"/>
       <path d="M 2631 2963 
Q 2534 3019 2420 3045 
Q 2306 3072 2169 3072 
Q 1681 3072 1420 2755 
Q 1159 2438 1159 1844 
L 1159 0 
L 581 0 
L 581 3500 
L 1159 3500 
L 1159 2956 
Q 1341 3275 1631 3429 
Q 1922 3584 2338 3584 
Q 2397 3584 2469 3576 
Q 2541 3569 2628 3553 
L 2631 2963 
z
" id="DejaVuSans-72" transform="scale(0.015625)"/>
       <path d="M 2194 1759 
Q 1497 1759 1228 1600 
Q 959 1441 959 1056 
Q 959 750 1161 570 
Q 1363 391 1709 391 
Q 2188 391 2477 730 
Q 2766 1069 2766 1631 
L 2766 1759 
L 2194 1759 
z
M 3341 1997 
L 3341 0 
L 2766 0 
L 2766 531 
Q 2569 213 2275 61 
Q 1981 -91 1556 -91 
Q 1019 -91 701 211 
Q 384 513 384 1019 
Q 384 1609 779 1909 
Q 1175 2209 1959 2209 
L 2766 2209 
L 2766 2266 
Q 2766 2663 2505 2880 
Q 2244 3097 1772 3097 
Q 1472 3097 1187 3025 
Q 903 2953 641 2809 
L 641 3341 
Q 956 3463 1253 3523 
Q 1550 3584 1831 3584 
Q 2591 3584 2966 3190 
Q 3341 2797 3341 1997 
z
" id="DejaVuSans-61" transform="scale(0.015625)"/>
       <path d="M 2906 2969 
L 2906 4863 
L 3481 4863 
L 3481 0 
L 2906 0 
L 2906 525 
Q 2725 213 2448 61 
Q 2172 -91 1784 -91 
Q 1150 -91 751 415 
Q 353 922 353 1747 
Q 353 2572 751 3078 
Q 1150 3584 1784 3584 
Q 2172 3584 2448 3432 
Q 2725 3281 2906 2969 
z
M 947 1747 
Q 947 1113 1208 752 
Q 1469 391 1925 391 
Q 2381 391 2643 752 
Q 2906 1113 2906 1747 
Q 2906 2381 2643 2742 
Q 2381 3103 1925 3103 
Q 1469 3103 1208 2742 
Q 947 2381 947 1747 
z
" id="DejaVuSans-64" transform="scale(0.015625)"/>
       <path d="M 603 3500 
L 1178 3500 
L 1178 0 
L 603 0 
L 603 3500 
z
M 603 4863 
L 1178 4863 
L 1178 4134 
L 603 4134 
L 603 4863 
z
" id="DejaVuSans-69" transform="scale(0.015625)"/>
       <path d="M 3597 1894 
L 3597 1613 
L 953 1613 
Q 991 1019 1311 708 
Q 1631 397 2203 397 
Q 2534 397 2845 478 
Q 3156 559 3463 722 
L 3463 178 
Q 3153 47 2828 -22 
Q 2503 -91 2169 -91 
Q 1331 -91 842 396 
Q 353 884 353 1716 
Q 353 2575 817 3079 
Q 1281 3584 2069 3584 
Q 2775 3584 3186 3129 
Q 3597 2675 3597 1894 
z
M 3022 2063 
Q 3016 2534 2758 2815 
Q 2500 3097 2075 3097 
Q 1594 3097 1305 2825 
Q 1016 2553 972 2059 
L 3022 2063 
z
" id="DejaVuSans-65" transform="scale(0.015625)"/>
       <path d="M 3513 2113 
L 3513 0 
L 2938 0 
L 2938 2094 
Q 2938 2591 2744 2837 
Q 2550 3084 2163 3084 
Q 1697 3084 1428 2787 
Q 1159 2491 1159 1978 
L 1159 0 
L 581 0 
L 581 3500 
L 1159 3500 
L 1159 2956 
Q 1366 3272 1645 3428 
Q 1925 3584 2291 3584 
Q 2894 3584 3203 3211 
Q 3513 2838 3513 2113 
z
" id="DejaVuSans-6e" transform="scale(0.015625)"/>
       <path d="M 1172 4494 
L 1172 3500 
L 2356 3500 
L 2356 3053 
L 1172 3053 
L 1172 1153 
Q 1172 725 1289 603 
Q 1406 481 1766 481 
L 2356 481 
L 2356 0 
L 1766 0 
Q 1100 0 847 248 
Q 594 497 594 1153 
L 594 3053 
L 172 3053 
L 172 3500 
L 594 3500 
L 594 4494 
L 1172 4494 
z
" id="DejaVuSans-74" transform="scale(0.015625)"/>
       <path id="DejaVuSans-20" transform="scale(0.015625)"/>
       <path d="M 3328 2828 
Q 3544 3216 3844 3400 
Q 4144 3584 4550 3584 
Q 5097 3584 5394 3201 
Q 5691 2819 5691 2113 
L 5691 0 
L 5113 0 
L 5113 2094 
Q 5113 2597 4934 2840 
Q 4756 3084 4391 3084 
Q 3944 3084 3684 2787 
Q 3425 2491 3425 1978 
L 3425 0 
L 2847 0 
L 2847 2094 
Q 2847 2600 2669 2842 
Q 2491 3084 2119 3084 
Q 1678 3084 1418 2786 
Q 1159 2488 1159 1978 
L 1159 0 
L 581 0 
L 581 3500 
L 1159 3500 
L 1159 2956 
Q 1356 3278 1631 3431 
Q 1906 3584 2284 3584 
Q 2666 3584 2933 3390 
Q 3200 3197 3328 2828 
z
" id="DejaVuSans-6d" transform="scale(0.015625)"/>
      </defs>
      <use xlink:href="#DejaVuSans-47"/>
      <use x="77.490234" xlink:href="#DejaVuSans-72"/>
      <use x="118.603516" xlink:href="#DejaVuSans-61"/>
      <use x="179.882812" xlink:href="#DejaVuSans-64"/>
      <use x="243.359375" xlink:href="#DejaVuSans-69"/>
      <use x="271.142578" xlink:href="#DejaVuSans-65"/>
      <use x="332.666016" xlink:href="#DejaVuSans-6e"/>
      <use x="396.044922" xlink:href="#DejaVuSans-74"/>
      <use x="435.253906" xlink:href="#DejaVuSans-20"/>
      <use x="467.041016" xlink:href="#DejaVuSans-6e"/>
      <use x="530.419922" xlink:href="#DejaVuSans-6f"/>
      <use x="591.601562" xlink:href="#DejaVuSans-72"/>
      <use x="630.964844" xlink:href="#DejaVuSans-6d"/>
     </g>
    </g>
   </g>
   <g id="line2d_77">
    <path clip-path="url(#p115f673e71)" d="M 73.832727 139.272146 
L 74.393443 130.128682 
L 74.954159 125.044388 
L 75.514875 121.875215 
L 76.075591 122.87777 
L 76.636307 127.443993 
L 77.197023 122.949104 
L 77.757739 130.267238 
L 78.318455 129.597175 
L 78.879171 131.907143 
L 79.439887 130.817731 
L 80.000603 136.61788 
L 80.561319 134.714761 
L 81.122035 137.630571 
L 81.682751 132.508159 
L 82.243467 134.630046 
L 82.804183 132.447862 
L 83.364899 132.01368 
L 85.047047 124.182558 
L 85.607763 118.217781 
L 86.168479 128.519177 
L 87.289911 131.842877 
L 87.850626 131.861637 
L 88.411342 127.84183 
L 88.972058 132.746065 
L 89.532774 132.530234 
L 90.09349 130.004474 
L 90.654206 132.782109 
L 91.214922 137.894934 
L 91.775638 130.046792 
L 92.336354 132.55954 
L 92.89707 133.465762 
L 93.457786 130.077315 
L 94.018502 135.094555 
L 94.579218 132.578857 
L 95.139934 136.838919 
L 95.70065 129.431627 
L 96.261366 131.947781 
L 96.822082 123.384453 
L 97.382798 129.720323 
L 97.943514 129.48505 
L 98.50423 124.585612 
L 99.064946 126.808841 
L 99.625662 123.206012 
L 100.186378 125.879508 
L 100.747094 125.442941 
L 101.30781 116.805674 
L 101.868526 124.420544 
L 102.429242 122.288166 
L 102.989958 121.846142 
L 103.550674 124.443933 
L 104.11139 125.219301 
L 104.672106 119.213607 
L 105.232821 126.99853 
L 105.793537 119.347121 
L 106.354253 118.241019 
L 106.914969 116.428283 
L 108.036401 121.867844 
L 108.597117 125.954568 
L 109.157833 122.265313 
L 109.718549 122.05465 
L 110.279265 120.940863 
L 110.839981 122.946132 
L 111.400697 123.517441 
L 111.961413 118.076866 
L 112.522129 119.086429 
L 113.082845 116.621627 
L 113.643561 120.026255 
L 114.204277 118.134186 
L 114.764993 118.433244 
L 115.325709 114.302547 
L 115.886425 112.072286 
L 116.447141 114.384089 
L 117.007857 113.405739 
L 117.568573 113.42972 
L 118.129289 111.445935 
L 118.690005 117.07855 
L 119.250721 111.744472 
L 119.811437 111.479727 
L 120.372153 111.067852 
L 120.932869 111.223848 
L 121.493585 107.52688 
L 122.054301 102.571992 
L 122.615016 108.858587 
L 123.175732 110.130942 
L 123.736448 107.890798 
L 124.297164 107.884626 
L 124.85788 105.621633 
L 125.418596 107.104804 
L 125.979312 110.741093 
L 126.540028 105.014132 
L 127.100744 109.348821 
L 127.66146 106.401613 
L 128.222176 106.365343 
L 128.782892 110.105845 
L 129.904324 103.258305 
L 130.46504 107.475235 
L 131.025756 106.326781 
L 131.586472 101.156645 
L 132.147188 101.952197 
L 132.707904 105.322843 
L 133.829336 100.708801 
L 134.390052 104.840926 
L 134.950768 103.506515 
L 135.511484 101.310036 
L 136.0722 104.586673 
L 136.632916 106.87001 
L 137.193632 104.677039 
L 137.754348 105.209829 
L 138.315064 106.654964 
L 138.87578 101.656568 
L 139.436496 102.390015 
L 139.997211 99.327566 
L 140.557927 101.654816 
L 141.118643 100.871393 
L 141.679359 102.076922 
L 142.240075 94.138344 
L 142.800791 103.85813 
L 143.361507 100.255297 
L 143.922223 101.276379 
L 144.482939 101.672546 
L 145.043655 100.236621 
L 145.604371 102.12839 
L 146.165087 96.146342 
L 146.725803 98.063809 
L 147.286519 101.578904 
L 147.847235 100.521984 
L 148.407951 99.096664 
L 148.968667 101.052332 
L 149.529383 98.732867 
L 150.090099 100.537487 
L 151.211531 98.772053 
L 151.772247 101.903279 
L 152.332963 99.222183 
L 152.893679 99.867092 
L 153.454395 100.709234 
L 154.015111 102.044117 
L 154.575827 95.628571 
L 155.136543 99.525218 
L 155.697259 96.067039 
L 156.257975 99.471242 
L 156.818691 99.04214 
L 157.379407 99.179398 
L 157.940122 97.643272 
L 158.500838 95.379211 
L 159.061554 97.939157 
L 159.62227 94.24921 
L 160.182986 96.734208 
L 160.743702 94.301079 
L 161.304418 98.981665 
L 161.865134 96.376409 
L 162.42585 101.266707 
L 162.986566 94.922896 
L 163.547282 92.028286 
L 164.107998 99.29653 
L 164.668714 95.360213 
L 165.22943 97.870572 
L 165.790146 95.226509 
L 166.350862 89.23089 
L 166.911578 98.081307 
L 167.472294 90.77167 
L 168.03301 95.587584 
L 168.593726 93.936791 
L 169.154442 94.054479 
L 169.715158 89.204462 
L 170.275874 89.727156 
L 170.83659 89.932142 
L 171.397306 95.747554 
L 171.958022 86.97152 
L 172.518738 91.799105 
L 173.079454 89.038857 
L 173.64017 90.693398 
L 174.200886 93.637988 
L 174.761602 91.056722 
L 175.322317 89.008681 
L 175.883033 92.45589 
L 176.443749 89.640013 
L 177.004465 83.260568 
L 177.565181 87.658625 
L 178.125897 88.720732 
L 178.686613 90.799898 
L 179.247329 87.899052 
L 179.808045 86.930337 
L 180.929477 92.396775 
L 181.490193 85.363716 
L 182.050909 91.377555 
L 183.172341 88.632191 
L 183.733057 94.346192 
L 184.293773 89.461819 
L 184.854489 89.413006 
L 185.415205 90.719786 
L 185.975921 90.011808 
L 186.536637 87.092552 
L 187.097353 91.370013 
L 187.658069 87.870251 
L 188.779501 85.426996 
L 189.340217 88.3333 
L 189.900933 84.566706 
L 190.461649 92.241771 
L 191.022365 74.373205 
L 191.583081 85.094172 
L 192.143797 83.33092 
L 192.704512 82.521456 
L 193.265228 83.311272 
L 193.825944 80.223338 
L 194.38666 85.650796 
L 194.947376 83.719303 
L 195.508092 83.526054 
L 196.068808 82.947134 
L 196.629524 72.397565 
L 197.19024 82.906371 
L 197.750956 83.42606 
L 198.311672 81.007149 
L 198.872388 80.473241 
L 199.433104 85.320819 
L 199.99382 84.546936 
L 200.554536 80.993426 
L 201.115252 79.061628 
L 201.675968 79.121835 
L 202.236684 80.25353 
L 202.7974 80.866275 
L 203.358116 78.715829 
L 203.918832 79.030911 
L 204.479548 74.139303 
L 205.040264 74.035871 
L 205.60098 72.164515 
L 206.161696 82.195575 
L 206.722412 80.171293 
L 207.283128 80.30711 
L 207.843844 74.008922 
L 208.40456 78.618473 
L 208.965276 74.701523 
L 209.525992 83.951797 
L 210.086707 81.261275 
L 210.647423 81.946954 
L 211.208139 79.837494 
L 211.768855 79.12003 
L 212.329571 76.174335 
L 212.890287 80.75057 
L 213.451003 75.665082 
L 214.011719 81.693925 
L 214.572435 80.464654 
L 215.133151 82.295394 
L 215.693867 78.692834 
L 216.254583 82.726611 
L 216.815299 82.287569 
L 217.376015 74.452837 
L 217.936731 85.71914 
L 218.497447 80.687769 
L 219.058163 65.438467 
L 220.179595 83.450453 
L 220.740311 75.236858 
L 221.301027 79.362407 
L 221.861743 81.833917 
L 222.422459 81.239667 
L 222.983175 80.093331 
L 223.543891 82.55512 
L 224.104607 76.329646 
L 224.665323 76.641208 
L 225.226039 77.379499 
L 225.786755 80.913594 
L 226.347471 75.184924 
L 226.908187 75.163631 
L 227.468902 75.78893 
L 228.029618 75.907007 
L 228.590334 79.26458 
L 229.15105 74.225297 
L 229.711766 75.918507 
L 230.272482 73.719372 
L 230.833198 81.527698 
L 231.393914 76.61698 
L 231.95463 84.418379 
L 232.515346 75.168872 
L 233.636778 79.68608 
L 234.197494 79.180921 
L 234.75821 78.895844 
L 235.318926 69.172535 
L 235.879642 79.503024 
L 236.440358 77.587193 
L 237.001074 81.532044 
L 237.56179 75.985204 
L 238.122506 78.560928 
L 239.243938 73.052569 
L 239.804654 75.911922 
L 240.36537 72.657965 
L 240.926086 76.909012 
L 241.486802 73.509352 
L 242.047518 78.108343 
L 242.608234 76.911989 
L 243.16895 72.367057 
L 243.729666 76.167221 
L 244.851098 71.695733 
L 245.411813 71.248619 
L 245.972529 72.386649 
L 246.533245 72.895841 
L 247.093961 75.962449 
L 247.654677 80.724418 
L 248.215393 77.270142 
L 248.776109 68.43432 
L 249.336825 77.192322 
L 249.897541 72.770874 
L 250.458257 67.464468 
L 251.018973 75.542105 
L 251.579689 75.237914 
L 252.701121 67.330673 
L 253.261837 74.537282 
L 253.822553 72.468188 
L 254.383269 75.071478 
L 254.943985 75.035134 
L 255.504701 68.639746 
L 256.065417 71.655039 
L 256.626133 71.618046 
L 257.186849 67.969924 
L 257.747565 75.116824 
L 258.308281 76.175017 
L 258.868997 74.37019 
L 259.429713 75.531561 
L 259.990429 71.875805 
L 260.551145 72.106114 
L 261.111861 71.029473 
L 261.672577 69.303029 
L 262.233293 73.36879 
L 262.794008 74.635007 
L 263.354724 77.842374 
L 263.91544 74.279619 
L 264.476156 66.966594 
L 265.036872 74.26517 
L 265.597588 73.107487 
L 266.158304 73.79717 
L 266.71902 65.262693 
L 267.279736 70.125592 
L 267.840452 72.385771 
L 268.401168 70.789645 
L 268.961884 75.491991 
L 269.5226 71.709554 
L 270.644032 75.873359 
L 271.204748 73.529427 
L 271.765464 73.120246 
L 272.32618 75.449871 
L 272.886896 65.682262 
L 274.008328 71.718639 
L 274.569044 71.70016 
L 275.12976 72.207704 
L 275.690476 66.251914 
L 276.251192 74.50036 
L 276.811908 74.041821 
L 277.372624 73.068286 
L 277.93334 69.166294 
L 278.494056 64.478938 
L 279.054772 75.509846 
L 279.615488 69.309682 
L 280.176203 71.571922 
L 280.736919 70.707125 
L 281.297635 73.197467 
L 281.858351 68.588363 
L 282.419067 62.569406 
L 282.979783 79.297892 
L 283.540499 69.147796 
L 284.101215 77.29134 
L 284.661931 73.504178 
L 285.222647 67.175556 
L 285.783363 75.723498 
L 286.344079 70.208172 
L 286.904795 73.355328 
L 287.465511 73.832082 
L 288.026227 65.557175 
L 288.586943 73.05345 
L 289.147659 66.867483 
L 289.708375 73.341285 
L 290.269091 73.131777 
L 290.829807 63.743184 
L 291.390523 72.605755 
L 291.951239 69.237695 
L 292.511955 74.432794 
L 293.072671 73.230423 
L 293.633387 67.148725 
L 294.194103 70.710853 
L 294.754819 71.577952 
L 295.315535 73.729006 
L 295.876251 72.362591 
L 296.436967 71.45601 
L 296.997683 71.114606 
L 297.558398 72.640631 
L 298.119114 77.166429 
L 298.67983 68.196791 
L 299.240546 68.634019 
L 300.361978 73.8005 
L 300.922694 66.394542 
L 301.48341 66.674849 
L 302.044126 69.92702 
L 302.604842 66.294223 
L 303.165558 71.169394 
L 303.726274 69.235525 
L 304.28699 69.347921 
L 304.847706 72.591227 
L 305.408422 66.622888 
L 305.969138 74.666876 
L 306.529854 68.098078 
L 307.09057 73.508584 
L 307.651286 69.466201 
L 308.212002 69.259788 
L 308.772718 67.181415 
L 309.333434 67.875419 
L 309.89415 72.04745 
L 310.454866 71.03786 
L 311.015582 67.620632 
L 311.576298 67.291559 
L 312.137014 67.465254 
L 312.69773 64.347393 
L 313.819162 72.063166 
L 314.379878 67.79057 
L 314.940593 70.290757 
L 315.501309 69.832522 
L 316.062025 66.548972 
L 316.622741 68.911306 
L 317.183457 56.054245 
L 317.744173 69.233019 
L 318.304889 73.161627 
L 318.865605 73.72166 
L 319.426321 72.289996 
L 319.987037 69.922485 
L 320.547753 63.01108 
L 321.108469 73.630647 
L 321.669185 69.048154 
L 322.229901 59.420564 
L 322.790617 66.554763 
L 323.351333 64.668899 
L 323.912049 71.013027 
L 324.472765 69.399226 
L 325.033481 66.369217 
L 325.594197 70.929426 
L 326.154913 65.013258 
L 326.715629 65.185301 
L 327.276345 74.598179 
L 327.837061 72.580366 
L 328.397777 71.642601 
L 328.958493 68.679086 
L 329.519209 66.669727 
L 330.079925 62.953161 
L 330.640641 67.925898 
L 331.201357 70.658649 
L 332.322789 58.819148 
L 332.883504 68.345871 
L 333.44422 64.033307 
L 335.126368 70.143125 
L 335.687084 71.697305 
L 336.2478 66.473399 
L 336.808516 66.422578 
L 337.369232 67.281621 
L 337.929948 68.39576 
L 338.490664 68.0987 
L 339.05138 69.932444 
L 339.612096 63.521124 
L 340.172812 71.81241 
L 340.733528 71.015518 
L 341.294244 68.260749 
L 341.85496 68.461822 
L 342.415676 70.983972 
L 342.976392 70.752904 
L 343.537108 68.114293 
L 344.097824 66.846051 
L 344.65854 67.731196 
L 345.219256 73.720285 
L 345.779972 68.298695 
L 346.340688 67.176315 
L 346.901404 67.677234 
L 347.46212 71.109554 
L 348.583552 66.837405 
L 349.144268 66.820286 
L 349.704984 66.259036 
L 350.265699 71.91464 
L 350.826415 65.285865 
L 351.387131 70.476459 
L 351.947847 70.506745 
L 352.508563 65.630055 
L 353.069279 67.801545 
L 353.629995 66.138662 
L 354.190711 68.425877 
L 354.751427 58.382771 
L 355.872859 67.809051 
L 356.994291 71.532596 
L 357.555007 68.598953 
L 358.115723 67.184015 
L 358.676439 63.013003 
L 359.237155 70.899703 
L 359.797871 62.383905 
L 360.358587 71.161367 
L 360.919303 67.881815 
L 361.480019 70.407017 
L 362.040735 64.686215 
L 362.601451 67.355552 
L 363.162167 70.96241 
L 363.722883 64.724289 
L 364.283599 61.901625 
L 364.844315 62.72873 
L 365.405031 68.309623 
L 365.965747 65.71308 
L 366.526463 67.433916 
L 367.087179 67.118337 
L 367.647894 63.257393 
L 368.20861 55.895499 
L 368.769326 68.17389 
L 369.330042 59.38007 
L 369.890758 71.48988 
L 370.451474 69.259664 
L 371.01219 65.016581 
L 371.572906 66.375336 
L 372.133622 66.521151 
L 372.694338 69.243565 
L 373.255054 65.688493 
L 373.81577 64.937906 
L 374.376486 67.472199 
L 374.937202 64.50676 
L 375.497918 60.901178 
L 376.058634 66.388593 
L 376.61935 65.919245 
L 377.180066 60.561012 
L 377.740782 69.372257 
L 378.301498 63.641791 
L 378.862214 59.788129 
L 379.42293 59.933938 
L 379.983646 70.558813 
L 380.544362 64.230745 
L 381.105078 53.568 
L 381.665794 62.915294 
L 382.22651 64.855623 
L 382.787226 68.025812 
L 383.347942 72.444374 
L 383.908658 55.424459 
L 384.469374 68.835312 
L 385.030089 69.630074 
L 385.590805 71.353281 
L 386.151521 70.279649 
L 386.712237 62.897773 
L 387.272953 61.211115 
L 387.833669 63.723969 
L 388.394385 69.522321 
L 388.955101 68.314712 
L 389.515817 70.269879 
L 390.076533 66.266542 
L 390.637249 63.97936 
L 391.197965 66.545088 
L 391.758681 67.793222 
L 392.319397 65.245402 
L 392.880113 73.443207 
L 393.440829 71.771715 
L 394.001545 68.884138 
L 394.562261 61.165365 
L 395.122977 70.434288 
L 395.683693 67.23877 
L 396.244409 74.411617 
L 396.805125 66.50393 
L 397.365841 70.359837 
L 397.926557 67.881876 
L 398.487273 68.934241 
L 398.487273 68.934241 
" style="fill:none;stroke:#0000ff;stroke-linecap:square;stroke-width:1.5;"/>
   </g>
   <g id="line2d_78">
    <path clip-path="url(#p115f673e71)" d="M 73.832727 237.828798 
L 74.393443 235.063222 
L 76.075591 261.869548 
L 77.197023 269.105065 
L 77.757739 285.457526 
L 78.318455 283.633471 
L 78.879171 282.400425 
L 79.439887 275.650802 
L 80.561319 295.488 
L 81.122035 287.769775 
L 81.682751 262.724375 
L 82.243467 228.880191 
L 82.804183 217.474202 
L 83.364899 219.779612 
L 83.925615 214.481724 
L 84.486331 217.24821 
L 85.047047 226.298374 
L 85.607763 216.820368 
L 86.168479 232.410973 
L 86.729195 231.315539 
L 87.289911 237.753416 
L 87.850626 241.05344 
L 88.411342 240.102441 
L 88.972058 244.373776 
L 89.532774 246.659171 
L 90.09349 255.150396 
L 90.654206 257.632008 
L 91.214922 260.790937 
L 91.775638 256.003949 
L 92.336354 258.302494 
L 93.457786 250.657281 
L 94.018502 255.84668 
L 94.579218 259.453382 
L 95.139934 252.795233 
L 95.70065 243.114279 
L 96.261366 246.381188 
L 97.382798 240.501881 
L 97.943514 240.00335 
L 98.50423 230.535224 
L 99.064946 232.247274 
L 99.625662 223.27105 
L 100.186378 222.550146 
L 101.30781 214.029239 
L 101.868526 212.089887 
L 102.429242 207.036341 
L 102.989958 208.818151 
L 103.550674 206.381313 
L 104.672106 198.083707 
L 105.232821 196.422835 
L 105.793537 195.720757 
L 106.354253 196.341956 
L 106.914969 195.794073 
L 107.475685 191.676567 
L 108.036401 190.605505 
L 108.597117 188.403335 
L 109.157833 185.629139 
L 109.718549 183.943289 
L 110.279265 185.716498 
L 110.839981 184.646964 
L 111.961413 184.171927 
L 112.522129 185.82818 
L 113.082845 184.502389 
L 113.643561 187.204297 
L 114.204277 184.63605 
L 114.764993 183.315341 
L 115.325709 183.502338 
L 115.886425 185.098581 
L 116.447141 185.552148 
L 117.007857 185.269567 
L 117.568573 184.75889 
L 119.250721 181.766734 
L 119.811437 179.459291 
L 120.932869 181.758486 
L 121.493585 181.573467 
L 122.054301 180.24777 
L 122.615016 180.99685 
L 123.175732 176.529278 
L 123.736448 176.806494 
L 124.297164 174.224051 
L 124.85788 175.589443 
L 125.979312 177.162369 
L 126.540028 175.207476 
L 127.100744 174.788229 
L 127.66146 175.140097 
L 128.222176 174.999658 
L 128.782892 175.720291 
L 129.343608 173.549635 
L 129.904324 174.13224 
L 130.46504 171.122511 
L 131.025756 163.775096 
L 131.586472 162.518693 
L 132.147188 159.992669 
L 132.707904 160.254427 
L 133.26862 159.010151 
L 133.829336 158.760647 
L 134.390052 159.114307 
L 134.950768 157.849475 
L 135.511484 157.211808 
L 136.0722 157.830209 
L 136.632916 160.118788 
L 137.193632 158.59763 
L 137.754348 156.510587 
L 138.315064 157.164395 
L 138.87578 156.27136 
L 139.436496 156.088987 
L 139.997211 155.438146 
L 140.557927 155.706403 
L 141.118643 155.333011 
L 141.679359 156.117545 
L 142.240075 154.919905 
L 142.800791 154.892416 
L 143.361507 153.995129 
L 143.922223 157.712262 
L 145.043655 152.980559 
L 145.604371 156.223204 
L 146.165087 155.947749 
L 146.725803 156.140449 
L 147.286519 154.057801 
L 147.847235 154.675767 
L 148.407951 152.322758 
L 148.968667 154.778758 
L 149.529383 153.890972 
L 150.090099 154.593395 
L 150.650815 154.683617 
L 151.211531 152.541711 
L 151.772247 156.555084 
L 152.332963 153.383142 
L 152.893679 154.07173 
L 153.454395 155.347406 
L 154.015111 155.641358 
L 154.575827 154.431552 
L 155.136543 153.735241 
L 155.697259 152.435819 
L 156.257975 152.76736 
L 156.818691 153.685909 
L 157.379407 151.940873 
L 157.940122 153.574275 
L 158.500838 152.760464 
L 159.061554 153.008938 
L 159.62227 153.387286 
L 160.182986 152.437057 
L 160.743702 153.429915 
L 161.304418 153.393792 
L 161.865134 151.135223 
L 162.42585 152.271879 
L 162.986566 152.816015 
L 163.547282 152.230001 
L 164.107998 154.342129 
L 164.668714 151.646116 
L 165.22943 152.278611 
L 165.790146 153.673124 
L 166.350862 152.007506 
L 166.911578 152.45334 
L 167.472294 149.55673 
L 168.593726 153.471138 
L 169.154442 150.648856 
L 169.715158 151.676616 
L 170.275874 150.554627 
L 170.83659 150.850507 
L 171.397306 153.322245 
L 171.958022 150.762404 
L 172.518738 153.636505 
L 173.079454 148.999377 
L 173.64017 151.614907 
L 174.200886 151.544325 
L 174.761602 152.252483 
L 175.322317 152.37242 
L 175.883033 150.231731 
L 176.443749 152.565314 
L 177.004465 152.551248 
L 177.565181 149.879636 
L 178.125897 152.67989 
L 178.686613 151.130711 
L 179.247329 151.355274 
L 179.808045 150.972812 
L 180.368761 150.145028 
L 180.929477 151.779605 
L 181.490193 150.29325 
L 182.050909 154.258455 
L 182.611625 151.424323 
L 183.172341 152.112465 
L 183.733057 153.400108 
L 184.293773 149.892412 
L 184.854489 153.516893 
L 185.415205 152.093438 
L 185.975921 152.222047 
L 186.536637 152.132883 
L 187.097353 152.648356 
L 187.658069 149.857272 
L 188.218785 151.907734 
L 188.779501 151.90029 
L 189.340217 150.499122 
L 189.900933 150.860268 
L 190.461649 154.486935 
L 191.022365 151.745167 
L 191.583081 150.186413 
L 192.143797 150.676875 
L 193.265228 153.288437 
L 193.825944 151.904663 
L 194.38666 152.679235 
L 194.947376 155.351007 
L 195.508092 152.098163 
L 196.068808 151.504311 
L 196.629524 149.019563 
L 197.19024 150.437223 
L 197.750956 149.641003 
L 198.311672 152.03758 
L 198.872388 151.680064 
L 199.433104 153.545812 
L 199.99382 154.95622 
L 200.554536 153.623736 
L 201.115252 153.559634 
L 201.675968 150.131263 
L 202.236684 149.421894 
L 203.358116 153.919387 
L 203.918832 151.750575 
L 204.479548 153.698587 
L 205.040264 151.535463 
L 205.60098 150.319365 
L 206.161696 151.834956 
L 207.283128 152.166277 
L 207.843844 150.302184 
L 208.40456 151.123942 
L 208.965276 151.237342 
L 209.525992 152.910679 
L 210.086707 151.085215 
L 210.647423 151.732695 
L 211.208139 153.056785 
L 211.768855 152.458109 
L 212.329571 152.171392 
L 212.890287 150.107871 
L 213.451003 152.06552 
L 214.011719 149.263158 
L 214.572435 151.180871 
L 215.133151 154.094714 
L 215.693867 152.568613 
L 216.254583 151.746381 
L 216.815299 151.986061 
L 217.376015 153.144155 
L 217.936731 151.746158 
L 218.497447 151.937474 
L 219.058163 150.826933 
L 220.179595 150.87943 
L 220.740311 152.676253 
L 221.301027 149.029888 
L 221.861743 151.149093 
L 222.422459 152.28792 
L 222.983175 152.774973 
L 223.543891 152.161538 
L 224.104607 152.79166 
L 224.665323 152.899329 
L 225.226039 152.593172 
L 225.786755 152.94143 
L 226.347471 151.958317 
L 226.908187 148.712735 
L 227.468902 152.200837 
L 228.029618 153.605844 
L 228.590334 153.010433 
L 229.15105 152.007955 
L 229.711766 152.801517 
L 230.272482 151.811569 
L 230.833198 153.451405 
L 231.393914 152.307464 
L 231.95463 150.677655 
L 232.515346 154.401588 
L 233.076062 151.156023 
L 233.636778 152.655758 
L 234.197494 152.383208 
L 234.75821 154.460411 
L 235.318926 154.586961 
L 235.879642 150.561725 
L 236.440358 153.103404 
L 237.001074 149.553701 
L 237.56179 152.941188 
L 238.122506 150.757184 
L 238.683222 152.713493 
L 239.243938 151.76319 
L 239.804654 151.821477 
L 240.36537 148.529295 
L 240.926086 152.826655 
L 241.486802 151.702441 
L 242.047518 152.714807 
L 242.608234 153.958494 
L 243.16895 151.642759 
L 243.729666 152.827561 
L 244.290382 155.18538 
L 244.851098 150.964947 
L 245.411813 152.789746 
L 245.972529 152.332249 
L 246.533245 153.487953 
L 247.093961 154.078131 
L 247.654677 156.238855 
L 248.215393 152.74735 
L 248.776109 150.381954 
L 249.336825 150.634646 
L 249.897541 153.795049 
L 250.458257 152.336894 
L 251.018973 149.670103 
L 251.579689 152.975454 
L 252.140405 152.072317 
L 252.701121 152.811185 
L 253.261837 153.854828 
L 253.822553 151.978977 
L 254.383269 153.72629 
L 254.943985 154.556793 
L 255.504701 149.543409 
L 256.065417 150.449136 
L 256.626133 153.066626 
L 257.186849 151.982731 
L 257.747565 151.379589 
L 258.308281 152.044435 
L 258.868997 153.12867 
L 259.429713 153.060271 
L 259.990429 151.249692 
L 260.551145 152.668694 
L 261.111861 153.183606 
L 261.672577 151.234211 
L 262.233293 152.802753 
L 262.794008 151.111071 
L 263.354724 155.85656 
L 263.91544 154.827747 
L 264.476156 151.788728 
L 265.036872 151.889277 
L 265.597588 152.730661 
L 266.158304 151.604414 
L 266.71902 149.938611 
L 267.279736 151.263859 
L 267.840452 152.162023 
L 268.401168 152.027718 
L 268.961884 151.175118 
L 269.5226 150.581656 
L 270.083316 153.059492 
L 270.644032 152.591754 
L 271.204748 153.116664 
L 271.765464 151.468882 
L 272.32618 153.552544 
L 272.886896 151.135867 
L 273.447612 150.90843 
L 274.008328 149.369446 
L 274.569044 152.377967 
L 275.12976 151.902474 
L 275.690476 151.794249 
L 276.251192 153.505971 
L 276.811908 153.385628 
L 277.372624 151.273136 
L 277.93334 151.752154 
L 278.494056 154.357815 
L 279.054772 151.713935 
L 279.615488 152.873305 
L 280.176203 149.833324 
L 280.736919 153.943097 
L 281.297635 151.530606 
L 281.858351 151.895321 
L 282.419067 152.873529 
L 282.979783 154.904319 
L 283.540499 152.703119 
L 284.101215 154.609686 
L 284.661931 151.093154 
L 285.222647 151.331148 
L 285.783363 153.136286 
L 286.344079 149.192031 
L 286.904795 152.838561 
L 287.465511 152.918809 
L 288.026227 151.308573 
L 288.586943 151.466062 
L 289.147659 153.308101 
L 289.708375 151.047967 
L 290.269091 151.621524 
L 290.829807 149.976239 
L 291.390523 150.469312 
L 291.951239 150.700046 
L 292.511955 151.697569 
L 293.072671 150.967258 
L 294.194103 151.32432 
L 294.754819 153.412691 
L 295.315535 152.198866 
L 295.876251 152.085598 
L 296.436967 152.636632 
L 296.997683 149.821938 
L 297.558398 154.766309 
L 298.119114 153.377593 
L 298.67983 151.354938 
L 299.240546 153.433959 
L 299.801262 152.380244 
L 300.361978 151.057005 
L 300.922694 150.648771 
L 301.48341 149.431564 
L 302.044126 153.659872 
L 302.604842 149.536129 
L 303.165558 150.810488 
L 303.726274 152.373035 
L 304.847706 152.210424 
L 305.408422 152.120099 
L 305.969138 153.362859 
L 306.529854 151.145539 
L 307.09057 151.704735 
L 307.651286 150.639133 
L 308.212002 153.871283 
L 308.772718 151.163017 
L 309.333434 152.213267 
L 309.89415 152.647237 
L 310.454866 154.636025 
L 311.015582 153.332169 
L 311.576298 151.314493 
L 312.137014 152.57055 
L 312.69773 152.994178 
L 313.258446 150.571518 
L 313.819162 152.985742 
L 314.379878 150.532795 
L 314.940593 151.898338 
L 315.501309 151.403405 
L 316.062025 151.505721 
L 316.622741 154.288019 
L 317.744173 147.978243 
L 318.304889 151.759851 
L 318.865605 154.189537 
L 319.426321 152.210558 
L 319.987037 150.883391 
L 320.547753 149.846751 
L 321.108469 151.530339 
L 321.669185 152.629935 
L 322.229901 150.732155 
L 322.790617 153.210901 
L 323.351333 153.390523 
L 323.912049 152.476931 
L 324.472765 153.961636 
L 325.033481 152.910019 
L 325.594197 157.016626 
L 326.154913 151.60211 
L 326.715629 154.481896 
L 327.276345 156.083702 
L 327.837061 154.035728 
L 328.397777 155.353645 
L 328.958493 151.938447 
L 329.519209 154.935685 
L 330.079925 154.375172 
L 330.640641 150.221743 
L 331.201357 153.223831 
L 331.762073 151.523315 
L 332.322789 152.412503 
L 332.883504 152.991258 
L 333.44422 148.772884 
L 334.565652 153.372969 
L 335.126368 149.543028 
L 335.687084 153.417616 
L 336.2478 153.103732 
L 336.808516 150.98973 
L 337.369232 153.772085 
L 337.929948 152.470289 
L 338.490664 150.634666 
L 339.05138 151.110781 
L 339.612096 153.85413 
L 340.172812 154.924689 
L 340.733528 153.071025 
L 341.294244 152.319654 
L 341.85496 154.550727 
L 342.415676 150.350953 
L 342.976392 152.574736 
L 343.537108 150.422155 
L 344.097824 151.633235 
L 344.65854 154.903991 
L 345.219256 154.077706 
L 345.779972 152.281494 
L 346.340688 152.833991 
L 346.901404 155.749935 
L 347.46212 153.529271 
L 348.022836 153.179842 
L 348.583552 153.590427 
L 349.144268 150.326149 
L 349.704984 152.652384 
L 350.265699 153.437123 
L 350.826415 155.670319 
L 351.387131 152.816893 
L 351.947847 153.334554 
L 352.508563 151.796326 
L 353.069279 152.635995 
L 354.190711 155.511858 
L 354.751427 151.130127 
L 355.312143 154.528346 
L 355.872859 152.559521 
L 356.433575 153.810281 
L 356.994291 156.700515 
L 357.555007 153.192445 
L 358.115723 153.118731 
L 358.676439 152.060356 
L 359.237155 155.521436 
L 359.797871 151.999969 
L 360.358587 154.589346 
L 360.919303 151.045505 
L 361.480019 152.7278 
L 362.040735 149.968263 
L 362.601451 154.378379 
L 363.722883 149.918889 
L 364.283599 152.294321 
L 364.844315 151.414214 
L 365.405031 152.351029 
L 365.965747 151.975771 
L 366.526463 152.352995 
L 367.087179 151.523091 
L 367.647894 152.43685 
L 368.20861 151.111578 
L 368.769326 151.742163 
L 369.330042 151.115264 
L 369.890758 151.508373 
L 370.451474 153.29823 
L 371.01219 152.193078 
L 371.572906 152.945414 
L 372.133622 152.08696 
L 372.694338 154.74921 
L 373.255054 156.163276 
L 373.81577 153.689653 
L 374.376486 155.999075 
L 374.937202 154.342473 
L 376.058634 154.727169 
L 376.61935 153.871004 
L 377.180066 155.195441 
L 377.740782 152.856702 
L 378.301498 151.308107 
L 379.42293 154.857735 
L 379.983646 152.717641 
L 380.544362 153.386592 
L 381.105078 151.441633 
L 381.665794 151.043887 
L 382.22651 151.913359 
L 382.787226 154.460063 
L 383.347942 157.92787 
L 383.908658 153.59154 
L 384.469374 153.945405 
L 385.030089 153.342761 
L 385.590805 154.082896 
L 386.151521 155.875686 
L 386.712237 155.614246 
L 387.272953 151.700977 
L 387.833669 154.38245 
L 388.394385 153.276043 
L 388.955101 152.819236 
L 389.515817 155.704843 
L 390.076533 151.663667 
L 390.637249 153.289797 
L 391.197965 153.440905 
L 391.758681 149.803958 
L 392.319397 151.660722 
L 392.880113 152.964238 
L 393.440829 150.419396 
L 394.001545 154.659405 
L 394.562261 154.304628 
L 395.122977 150.896377 
L 395.683693 155.370896 
L 396.244409 155.674059 
L 396.805125 155.466136 
L 397.365841 152.084974 
L 397.926557 153.785937 
L 398.487273 152.520513 
L 398.487273 152.520513 
" style="fill:none;stroke:#ffa500;stroke-linecap:square;stroke-width:1.5;"/>
   </g>
   <g id="line2d_79">
    <path clip-path="url(#p115f673e71)" d="M 73.832727 153.928539 
L 74.393443 152.484767 
L 75.514875 165.534843 
L 76.075591 167.568695 
L 76.636307 166.532046 
L 77.197023 170.781379 
L 77.757739 177.221259 
L 78.318455 179.111191 
L 78.879171 178.009576 
L 79.439887 170.820247 
L 80.000603 179.685224 
L 80.561319 180.140783 
L 81.122035 181.975629 
L 81.682751 171.228938 
L 82.243467 150.92219 
L 82.804183 143.996939 
L 83.364899 143.651833 
L 83.925615 139.122442 
L 84.486331 137.190319 
L 85.047047 141.863703 
L 85.607763 140.802788 
L 86.168479 146.077693 
L 86.729195 144.637397 
L 87.289911 147.405888 
L 87.850626 152.973359 
L 88.411342 152.085502 
L 89.532774 159.837114 
L 90.09349 158.542832 
L 90.654206 163.404817 
L 91.214922 164.931269 
L 91.775638 164.618707 
L 92.336354 162.965193 
L 92.89707 159.797184 
L 94.018502 162.950422 
L 94.579218 164.319145 
L 95.139934 158.726754 
L 95.70065 154.416505 
L 96.261366 154.335398 
L 96.822082 155.097804 
L 97.382798 153.595654 
L 97.943514 151.428225 
L 98.50423 148.514382 
L 99.064946 149.478767 
L 99.625662 147.299516 
L 100.186378 145.938627 
L 100.747094 143.676339 
L 101.30781 142.092186 
L 101.868526 139.927841 
L 102.429242 138.46087 
L 102.989958 142.450407 
L 103.550674 137.732426 
L 104.11139 138.688016 
L 104.672106 137.609271 
L 105.232821 138.915343 
L 105.793537 135.212236 
L 106.354253 137.766834 
L 106.914969 138.432389 
L 107.475685 135.509078 
L 108.036401 134.790879 
L 108.597117 131.469258 
L 109.157833 132.101836 
L 109.718549 133.519873 
L 110.279265 135.340694 
L 110.839981 130.803625 
L 111.400697 134.431985 
L 111.961413 133.46632 
L 112.522129 133.479696 
L 113.082845 132.783376 
L 113.643561 133.045398 
L 114.204277 131.599813 
L 114.764993 132.332307 
L 115.325709 131.536637 
L 115.886425 129.215317 
L 116.447141 129.198141 
L 117.007857 133.878571 
L 117.568573 131.540065 
L 118.129289 130.873332 
L 118.690005 130.460269 
L 119.250721 128.845942 
L 119.811437 126.672994 
L 120.372153 127.613538 
L 120.932869 128.066441 
L 121.493585 122.929707 
L 122.054301 128.471948 
L 122.615016 126.49305 
L 123.175732 125.535418 
L 124.297164 122.888666 
L 124.85788 124.774034 
L 125.418596 124.670178 
L 125.979312 123.859361 
L 127.100744 125.450523 
L 127.66146 124.520347 
L 128.222176 124.826309 
L 128.782892 122.984857 
L 129.343608 123.905001 
L 129.904324 123.904721 
L 130.46504 122.128566 
L 131.025756 115.856146 
L 131.586472 113.47443 
L 132.147188 113.452629 
L 132.707904 110.932167 
L 133.26862 113.754778 
L 134.390052 110.430876 
L 135.511484 109.828644 
L 136.0722 113.767775 
L 136.632916 109.075233 
L 137.193632 112.787323 
L 137.754348 110.249113 
L 138.315064 110.449542 
L 138.87578 112.934467 
L 139.436496 109.94314 
L 139.997211 111.598505 
L 140.557927 112.096408 
L 141.118643 110.101132 
L 141.679359 111.803666 
L 142.800791 107.762938 
L 143.361507 110.097382 
L 143.922223 109.227576 
L 144.482939 108.749173 
L 145.043655 109.070798 
L 145.604371 110.092424 
L 146.725803 108.32487 
L 147.286519 106.395678 
L 147.847235 108.4571 
L 148.407951 111.813649 
L 148.968667 111.794172 
L 149.529383 112.12636 
L 150.090099 110.714139 
L 151.211531 112.270493 
L 151.772247 106.987725 
L 152.332963 116.047342 
L 152.893679 108.877336 
L 153.454395 110.715862 
L 154.015111 111.275693 
L 154.575827 113.743939 
L 155.136543 107.333357 
L 155.697259 109.809684 
L 156.257975 110.083449 
L 156.818691 112.064812 
L 157.379407 111.555935 
L 157.940122 109.1627 
L 158.500838 111.128361 
L 159.061554 109.019418 
L 159.62227 111.797291 
L 160.182986 109.14005 
L 160.743702 110.089015 
L 161.304418 112.270719 
L 161.865134 110.68045 
L 162.42585 107.91466 
L 162.986566 113.592576 
L 163.547282 112.853697 
L 164.107998 110.580741 
L 164.668714 111.029738 
L 165.22943 109.323325 
L 165.790146 116.059312 
L 166.350862 109.098592 
L 166.911578 110.962305 
L 167.472294 110.043952 
L 168.03301 113.221239 
L 168.593726 110.032441 
L 169.154442 113.456818 
L 169.715158 113.139612 
L 170.275874 110.211951 
L 170.83659 113.250344 
L 171.397306 106.765278 
L 171.958022 116.050398 
L 172.518738 108.977467 
L 173.079454 111.478589 
L 173.64017 114.558202 
L 174.200886 111.535773 
L 174.761602 118.412027 
L 175.322317 114.788566 
L 175.883033 112.771457 
L 176.443749 110.10973 
L 177.004465 113.847587 
L 177.565181 107.13193 
L 178.125897 110.280074 
L 178.686613 108.064333 
L 179.247329 115.948639 
L 179.808045 111.964416 
L 180.368761 110.771433 
L 180.929477 111.189043 
L 181.490193 114.654851 
L 182.050909 111.404103 
L 182.611625 111.783515 
L 183.172341 109.03511 
L 183.733057 115.287309 
L 184.293773 114.423865 
L 184.854489 110.615078 
L 185.415205 114.885517 
L 185.975921 115.319327 
L 186.536637 111.599912 
L 187.097353 110.674976 
L 187.658069 113.714774 
L 188.218785 113.01359 
L 188.779501 116.73394 
L 189.340217 115.379747 
L 189.900933 108.174649 
L 190.461649 113.37275 
L 191.022365 112.207433 
L 191.583081 112.16493 
L 192.143797 113.628897 
L 193.265228 110.521588 
L 193.825944 110.896904 
L 194.38666 110.326323 
L 194.947376 107.723762 
L 195.508092 110.475833 
L 196.068808 112.596486 
L 196.629524 109.275449 
L 197.19024 110.439734 
L 197.750956 109.942024 
L 198.872388 111.734936 
L 199.433104 111.817726 
L 199.99382 108.218494 
L 200.554536 112.942027 
L 201.115252 109.379521 
L 201.675968 113.53383 
L 202.236684 113.8784 
L 202.7974 113.01962 
L 203.358116 116.902292 
L 203.918832 109.271676 
L 204.479548 114.517542 
L 205.040264 112.521778 
L 205.60098 113.164629 
L 206.161696 111.291669 
L 206.722412 113.075357 
L 207.283128 112.828997 
L 207.843844 115.076118 
L 208.40456 114.263147 
L 208.965276 106.522422 
L 209.525992 113.007901 
L 210.086707 111.565591 
L 210.647423 108.921694 
L 211.208139 113.927188 
L 211.768855 112.091646 
L 212.329571 116.348205 
L 212.890287 111.612829 
L 213.451003 110.048064 
L 214.011719 112.1924 
L 214.572435 118.885694 
L 215.133151 113.601227 
L 215.693867 111.46284 
L 216.254583 119.515274 
L 216.815299 117.371457 
L 217.376015 109.876036 
L 217.936731 114.099297 
L 218.497447 109.418965 
L 219.058163 109.84645 
L 219.618879 108.792756 
L 220.179595 110.407252 
L 220.740311 110.060122 
L 221.301027 109.446052 
L 221.861743 112.547017 
L 222.422459 107.708331 
L 222.983175 114.895701 
L 223.543891 116.915512 
L 224.104607 111.593732 
L 224.665323 114.9409 
L 225.226039 112.154345 
L 225.786755 111.204608 
L 226.347471 120.080884 
L 226.908187 116.859312 
L 227.468902 112.122352 
L 228.029618 117.541047 
L 228.590334 109.286891 
L 229.711766 116.671398 
L 230.272482 112.920896 
L 230.833198 118.726802 
L 231.393914 113.510921 
L 231.95463 109.870284 
L 232.515346 114.323927 
L 233.076062 114.881653 
L 233.636778 107.564508 
L 234.197494 113.839394 
L 234.75821 115.124692 
L 235.318926 112.646791 
L 235.879642 114.028518 
L 236.440358 116.325279 
L 237.001074 110.077937 
L 237.56179 109.368658 
L 238.122506 113.985397 
L 238.683222 115.196414 
L 239.243938 117.917079 
L 239.804654 118.695199 
L 240.36537 113.992689 
L 240.926086 115.375605 
L 241.486802 115.461629 
L 242.047518 115.005571 
L 242.608234 110.787234 
L 243.16895 116.475103 
L 243.729666 115.931285 
L 244.290382 121.018051 
L 244.851098 114.394921 
L 245.411813 111.757554 
L 245.972529 111.084916 
L 247.093961 117.652382 
L 247.654677 118.21652 
L 248.215393 113.602039 
L 249.336825 109.886493 
L 249.897541 112.661253 
L 250.458257 117.061718 
L 251.018973 112.555808 
L 251.579689 112.874617 
L 252.140405 115.247346 
L 252.701121 116.805274 
L 253.261837 111.567758 
L 253.822553 116.337322 
L 254.383269 114.947091 
L 254.943985 115.38483 
L 255.504701 116.280194 
L 256.065417 111.142129 
L 256.626133 112.459316 
L 257.186849 119.465041 
L 257.747565 116.562099 
L 258.308281 112.698265 
L 258.868997 120.091245 
L 259.429713 118.618084 
L 259.990429 109.684723 
L 260.551145 117.153613 
L 261.111861 119.702282 
L 261.672577 106.919253 
L 262.233293 120.293345 
L 262.794008 114.780309 
L 263.354724 116.352534 
L 263.91544 117.314688 
L 264.476156 118.725981 
L 265.036872 110.270441 
L 265.597588 112.958104 
L 266.158304 114.587668 
L 266.71902 114.694161 
L 267.279736 118.190138 
L 267.840452 115.140085 
L 268.401168 117.341606 
L 268.961884 118.063976 
L 270.083316 113.894464 
L 270.644032 114.991412 
L 271.204748 113.466693 
L 271.765464 113.61963 
L 272.32618 117.530024 
L 272.886896 112.131286 
L 274.008328 120.058467 
L 274.569044 115.318355 
L 275.12976 115.466259 
L 275.690476 111.697519 
L 276.251192 113.017927 
L 276.811908 115.451905 
L 277.372624 114.412698 
L 278.494056 118.353259 
L 279.054772 118.099605 
L 279.615488 115.479608 
L 280.176203 114.353249 
L 280.736919 120.084562 
L 281.297635 121.911141 
L 281.858351 113.575064 
L 282.419067 114.593721 
L 282.979783 115.338425 
L 283.540499 115.20268 
L 284.101215 113.421383 
L 284.661931 115.311854 
L 285.222647 113.358357 
L 285.783363 120.191321 
L 286.344079 113.881349 
L 286.904795 113.818896 
L 287.465511 114.645734 
L 288.026227 110.649164 
L 288.586943 118.986391 
L 289.147659 122.275985 
L 289.708375 110.046768 
L 290.269091 111.422258 
L 290.829807 121.562047 
L 291.390523 114.628885 
L 291.951239 122.653367 
L 292.511955 116.661649 
L 293.072671 113.844917 
L 293.633387 121.943175 
L 294.194103 122.485653 
L 294.754819 120.970446 
L 295.315535 112.604067 
L 295.876251 117.74981 
L 296.436967 121.340294 
L 296.997683 117.064765 
L 297.558398 118.000138 
L 298.119114 116.324968 
L 298.67983 120.763848 
L 299.801262 110.390978 
L 300.361978 118.941978 
L 301.48341 118.502231 
L 302.044126 120.192868 
L 302.604842 116.016681 
L 303.165558 117.702415 
L 303.726274 117.333566 
L 304.28699 121.367509 
L 304.847706 120.389179 
L 305.408422 121.325854 
L 305.969138 117.133005 
L 307.09057 112.097964 
L 307.651286 117.293599 
L 308.212002 117.704233 
L 308.772718 118.894116 
L 309.333434 117.301881 
L 309.89415 124.716577 
L 310.454866 118.403207 
L 311.015582 117.468817 
L 311.576298 118.341415 
L 312.137014 114.942828 
L 312.69773 116.891566 
L 313.258446 114.064747 
L 313.819162 114.500731 
L 314.379878 116.08588 
L 314.940593 116.491439 
L 315.501309 122.709213 
L 316.062025 122.027971 
L 316.622741 128.573192 
L 317.183457 121.596143 
L 317.744173 117.143959 
L 318.304889 116.685489 
L 318.865605 118.33576 
L 319.426321 108.494236 
L 319.987037 124.936839 
L 320.547753 118.183768 
L 321.108469 113.418141 
L 321.669185 122.947884 
L 322.229901 128.87785 
L 322.790617 121.09074 
L 323.351333 117.831876 
L 323.912049 115.892136 
L 324.472765 117.40549 
L 325.033481 121.795107 
L 325.594197 120.007918 
L 326.154913 112.404976 
L 326.715629 130.997992 
L 327.276345 122.728377 
L 327.837061 123.624976 
L 328.397777 121.586695 
L 328.958493 118.952212 
L 329.519209 120.384577 
L 330.079925 125.007294 
L 330.640641 121.443821 
L 331.201357 116.119475 
L 331.762073 119.209561 
L 332.322789 118.328135 
L 332.883504 123.656662 
L 333.44422 113.262298 
L 334.565652 119.801254 
L 335.126368 111.24743 
L 335.687084 118.253438 
L 336.2478 113.744538 
L 336.808516 124.140675 
L 337.369232 121.210468 
L 337.929948 114.890078 
L 338.490664 121.327145 
L 339.05138 116.710014 
L 339.612096 116.138162 
L 340.172812 121.77643 
L 340.733528 121.505047 
L 341.294244 121.44798 
L 341.85496 124.859191 
L 342.415676 119.200589 
L 342.976392 115.430957 
L 343.537108 116.503271 
L 344.097824 113.416673 
L 344.65854 123.779247 
L 345.219256 123.606032 
L 345.779972 118.633331 
L 346.340688 116.422054 
L 346.901404 122.018102 
L 347.46212 121.810516 
L 348.022836 123.504144 
L 348.583552 111.464102 
L 349.704984 128.243628 
L 350.265699 119.192654 
L 350.826415 119.704891 
L 351.387131 112.197645 
L 351.947847 119.876422 
L 352.508563 124.260857 
L 353.069279 118.735075 
L 353.629995 118.16164 
L 355.312143 122.985595 
L 355.872859 112.845585 
L 356.433575 124.59455 
L 356.994291 121.985712 
L 357.555007 116.63412 
L 358.676439 124.341401 
L 359.237155 121.896032 
L 359.797871 120.922703 
L 360.358587 122.57269 
L 360.919303 114.970536 
L 362.040735 122.631342 
L 362.601451 122.357486 
L 363.162167 120.620189 
L 363.722883 117.711629 
L 364.283599 120.697587 
L 364.844315 121.317607 
L 365.405031 124.836995 
L 365.965747 117.342198 
L 366.526463 117.461861 
L 367.087179 124.999354 
L 367.647894 113.913289 
L 368.20861 117.761148 
L 368.769326 116.595748 
L 369.330042 112.06071 
L 369.890758 116.782381 
L 370.451474 117.913027 
L 371.572906 124.502762 
L 372.133622 124.127218 
L 372.694338 115.244424 
L 373.81577 124.522684 
L 374.376486 122.43457 
L 374.937202 121.853494 
L 375.497918 126.802655 
L 376.058634 122.690816 
L 376.61935 126.544354 
L 377.180066 125.543379 
L 377.740782 113.923014 
L 378.862214 123.375217 
L 379.42293 119.927685 
L 379.983646 118.41896 
L 380.544362 127.969283 
L 381.105078 116.156629 
L 381.665794 117.328643 
L 382.22651 124.97877 
L 382.787226 121.286021 
L 383.347942 124.749447 
L 383.908658 125.163065 
L 384.469374 122.184467 
L 385.030089 123.730205 
L 385.590805 122.952104 
L 386.151521 121.191248 
L 386.712237 116.013019 
L 387.833669 121.89511 
L 388.394385 123.456219 
L 388.955101 117.730851 
L 389.515817 128.035588 
L 390.076533 117.289159 
L 390.637249 116.431341 
L 391.197965 113.54298 
L 391.758681 113.221575 
L 392.319397 122.505755 
L 392.880113 110.786664 
L 393.440829 116.780357 
L 394.001545 117.231093 
L 394.562261 117.386988 
L 395.122977 125.968578 
L 395.683693 117.2181 
L 396.244409 110.646923 
L 396.805125 123.814769 
L 397.365841 121.882654 
L 397.926557 120.706879 
L 398.487273 120.878929 
L 398.487273 120.878929 
" style="fill:none;stroke:#008000;stroke-linecap:square;stroke-width:1.5;"/>
   </g>
   <g id="patch_3">
    <path d="M 57.6 307.584 
L 57.6 41.472 
" style="fill:none;stroke:#000000;stroke-linecap:square;stroke-linejoin:miter;stroke-width:0.8;"/>
   </g>
   <g id="patch_4">
    <path d="M 414.72 307.584 
L 414.72 41.472 
" style="fill:none;stroke:#000000;stroke-linecap:square;stroke-linejoin:miter;stroke-width:0.8;"/>
   </g>
   <g id="patch_5">
    <path d="M 57.6 307.584 
L 414.72 307.584 
" style="fill:none;stroke:#000000;stroke-linecap:square;stroke-linejoin:miter;stroke-width:0.8;"/>
   </g>
   <g id="patch_6">
    <path d="M 57.6 41.472 
L 414.72 41.472 
" style="fill:none;stroke:#000000;stroke-linecap:square;stroke-linejoin:miter;stroke-width:0.8;"/>
   </g>
   <g id="legend_1">
    <g id="patch_7">
     <path d="M 271.49175 300.384 
L 404.64 300.384 
Q 407.52 300.384 407.52 297.504 
L 407.52 235.5345 
Q 407.52 232.6545 404.64 232.6545 
L 271.49175 232.6545 
Q 268.61175 232.6545 268.61175 235.5345 
L 268.61175 297.504 
Q 268.61175 300.384 271.49175 300.384 
z
" style="fill:#ffffff;opacity:0.8;stroke:#cccccc;stroke-linejoin:miter;"/>
    </g>
    <g id="line2d_80">
     <path d="M 274.37175 244.31625 
L 303.17175 244.31625 
" style="fill:none;stroke:#0000ff;stroke-linecap:square;stroke-width:1.5;"/>
    </g>
    <g id="line2d_81"/>
    <g id="text_18">
     <!-- Regression -->
     <g transform="translate(314.69175 249.35625)scale(0.144 -0.144)">
      <defs>
       <path d="M 2841 2188 
Q 3044 2119 3236 1894 
Q 3428 1669 3622 1275 
L 4263 0 
L 3584 0 
L 2988 1197 
Q 2756 1666 2539 1819 
Q 2322 1972 1947 1972 
L 1259 1972 
L 1259 0 
L 628 0 
L 628 4666 
L 2053 4666 
Q 2853 4666 3247 4331 
Q 3641 3997 3641 3322 
Q 3641 2881 3436 2590 
Q 3231 2300 2841 2188 
z
M 1259 4147 
L 1259 2491 
L 2053 2491 
Q 2509 2491 2742 2702 
Q 2975 2913 2975 3322 
Q 2975 3731 2742 3939 
Q 2509 4147 2053 4147 
L 1259 4147 
z
" id="DejaVuSans-52" transform="scale(0.015625)"/>
       <path d="M 2906 1791 
Q 2906 2416 2648 2759 
Q 2391 3103 1925 3103 
Q 1463 3103 1205 2759 
Q 947 2416 947 1791 
Q 947 1169 1205 825 
Q 1463 481 1925 481 
Q 2391 481 2648 825 
Q 2906 1169 2906 1791 
z
M 3481 434 
Q 3481 -459 3084 -895 
Q 2688 -1331 1869 -1331 
Q 1566 -1331 1297 -1286 
Q 1028 -1241 775 -1147 
L 775 -588 
Q 1028 -725 1275 -790 
Q 1522 -856 1778 -856 
Q 2344 -856 2625 -561 
Q 2906 -266 2906 331 
L 2906 616 
Q 2728 306 2450 153 
Q 2172 0 1784 0 
Q 1141 0 747 490 
Q 353 981 353 1791 
Q 353 2603 747 3093 
Q 1141 3584 1784 3584 
Q 2172 3584 2450 3431 
Q 2728 3278 2906 2969 
L 2906 3500 
L 3481 3500 
L 3481 434 
z
" id="DejaVuSans-67" transform="scale(0.015625)"/>
       <path d="M 2834 3397 
L 2834 2853 
Q 2591 2978 2328 3040 
Q 2066 3103 1784 3103 
Q 1356 3103 1142 2972 
Q 928 2841 928 2578 
Q 928 2378 1081 2264 
Q 1234 2150 1697 2047 
L 1894 2003 
Q 2506 1872 2764 1633 
Q 3022 1394 3022 966 
Q 3022 478 2636 193 
Q 2250 -91 1575 -91 
Q 1294 -91 989 -36 
Q 684 19 347 128 
L 347 722 
Q 666 556 975 473 
Q 1284 391 1588 391 
Q 1994 391 2212 530 
Q 2431 669 2431 922 
Q 2431 1156 2273 1281 
Q 2116 1406 1581 1522 
L 1381 1569 
Q 847 1681 609 1914 
Q 372 2147 372 2553 
Q 372 3047 722 3315 
Q 1072 3584 1716 3584 
Q 2034 3584 2315 3537 
Q 2597 3491 2834 3397 
z
" id="DejaVuSans-73" transform="scale(0.015625)"/>
      </defs>
      <use xlink:href="#DejaVuSans-52"/>
      <use x="64.982422" xlink:href="#DejaVuSans-65"/>
      <use x="126.505859" xlink:href="#DejaVuSans-67"/>
      <use x="189.982422" xlink:href="#DejaVuSans-72"/>
      <use x="228.845703" xlink:href="#DejaVuSans-65"/>
      <use x="290.369141" xlink:href="#DejaVuSans-73"/>
      <use x="342.46875" xlink:href="#DejaVuSans-73"/>
      <use x="394.568359" xlink:href="#DejaVuSans-69"/>
      <use x="422.351562" xlink:href="#DejaVuSans-6f"/>
      <use x="483.533203" xlink:href="#DejaVuSans-6e"/>
     </g>
    </g>
    <g id="line2d_82">
     <path d="M 274.37175 265.45275 
L 303.17175 265.45275 
" style="fill:none;stroke:#ffa500;stroke-linecap:square;stroke-width:1.5;"/>
    </g>
    <g id="line2d_83"/>
    <g id="text_19">
     <!-- Consistency -->
     <g transform="translate(314.69175 270.49275)scale(0.144 -0.144)">
      <defs>
       <path d="M 4122 4306 
L 4122 3641 
Q 3803 3938 3442 4084 
Q 3081 4231 2675 4231 
Q 1875 4231 1450 3742 
Q 1025 3253 1025 2328 
Q 1025 1406 1450 917 
Q 1875 428 2675 428 
Q 3081 428 3442 575 
Q 3803 722 4122 1019 
L 4122 359 
Q 3791 134 3420 21 
Q 3050 -91 2638 -91 
Q 1578 -91 968 557 
Q 359 1206 359 2328 
Q 359 3453 968 4101 
Q 1578 4750 2638 4750 
Q 3056 4750 3426 4639 
Q 3797 4528 4122 4306 
z
" id="DejaVuSans-43" transform="scale(0.015625)"/>
       <path d="M 2059 -325 
Q 1816 -950 1584 -1140 
Q 1353 -1331 966 -1331 
L 506 -1331 
L 506 -850 
L 844 -850 
Q 1081 -850 1212 -737 
Q 1344 -625 1503 -206 
L 1606 56 
L 191 3500 
L 800 3500 
L 1894 763 
L 2988 3500 
L 3597 3500 
L 2059 -325 
z
" id="DejaVuSans-79" transform="scale(0.015625)"/>
      </defs>
      <use xlink:href="#DejaVuSans-43"/>
      <use x="69.824219" xlink:href="#DejaVuSans-6f"/>
      <use x="131.005859" xlink:href="#DejaVuSans-6e"/>
      <use x="194.384766" xlink:href="#DejaVuSans-73"/>
      <use x="246.484375" xlink:href="#DejaVuSans-69"/>
      <use x="274.267578" xlink:href="#DejaVuSans-73"/>
      <use x="326.367188" xlink:href="#DejaVuSans-74"/>
      <use x="365.576172" xlink:href="#DejaVuSans-65"/>
      <use x="427.099609" xlink:href="#DejaVuSans-6e"/>
      <use x="490.478516" xlink:href="#DejaVuSans-63"/>
      <use x="545.458984" xlink:href="#DejaVuSans-79"/>
     </g>
    </g>
    <g id="line2d_84">
     <path d="M 274.37175 286.58925 
L 303.17175 286.58925 
" style="fill:none;stroke:#008000;stroke-linecap:square;stroke-width:1.5;"/>
    </g>
    <g id="line2d_85"/>
    <g id="text_20">
     <!-- Supervised -->
     <g transform="translate(314.69175 291.62925)scale(0.144 -0.144)">
      <defs>
       <path d="M 3425 4513 
L 3425 3897 
Q 3066 4069 2747 4153 
Q 2428 4238 2131 4238 
Q 1616 4238 1336 4038 
Q 1056 3838 1056 3469 
Q 1056 3159 1242 3001 
Q 1428 2844 1947 2747 
L 2328 2669 
Q 3034 2534 3370 2195 
Q 3706 1856 3706 1288 
Q 3706 609 3251 259 
Q 2797 -91 1919 -91 
Q 1588 -91 1214 -16 
Q 841 59 441 206 
L 441 856 
Q 825 641 1194 531 
Q 1563 422 1919 422 
Q 2459 422 2753 634 
Q 3047 847 3047 1241 
Q 3047 1584 2836 1778 
Q 2625 1972 2144 2069 
L 1759 2144 
Q 1053 2284 737 2584 
Q 422 2884 422 3419 
Q 422 4038 858 4394 
Q 1294 4750 2059 4750 
Q 2388 4750 2728 4690 
Q 3069 4631 3425 4513 
z
" id="DejaVuSans-53" transform="scale(0.015625)"/>
       <path d="M 544 1381 
L 544 3500 
L 1119 3500 
L 1119 1403 
Q 1119 906 1312 657 
Q 1506 409 1894 409 
Q 2359 409 2629 706 
Q 2900 1003 2900 1516 
L 2900 3500 
L 3475 3500 
L 3475 0 
L 2900 0 
L 2900 538 
Q 2691 219 2414 64 
Q 2138 -91 1772 -91 
Q 1169 -91 856 284 
Q 544 659 544 1381 
z
M 1991 3584 
L 1991 3584 
z
" id="DejaVuSans-75" transform="scale(0.015625)"/>
       <path d="M 191 3500 
L 800 3500 
L 1894 563 
L 2988 3500 
L 3597 3500 
L 2284 0 
L 1503 0 
L 191 3500 
z
" id="DejaVuSans-76" transform="scale(0.015625)"/>
      </defs>
      <use xlink:href="#DejaVuSans-53"/>
      <use x="63.476562" xlink:href="#DejaVuSans-75"/>
      <use x="126.855469" xlink:href="#DejaVuSans-70"/>
      <use x="190.332031" xlink:href="#DejaVuSans-65"/>
      <use x="251.855469" xlink:href="#DejaVuSans-72"/>
      <use x="292.96875" xlink:href="#DejaVuSans-76"/>
      <use x="352.148438" xlink:href="#DejaVuSans-69"/>
      <use x="379.931641" xlink:href="#DejaVuSans-73"/>
      <use x="432.03125" xlink:href="#DejaVuSans-65"/>
      <use x="493.554688" xlink:href="#DejaVuSans-64"/>
     </g>
    </g>
   </g>
  </g>
 </g>
 <defs>
  <clipPath id="p115f673e71">
   <rect height="266.112" width="357.12" x="57.6" y="41.472"/>
  </clipPath>
 </defs>
</svg>
