<?xml version="1.0" encoding="utf-8" standalone="no"?>
<!DOCTYPE svg PUBLIC "-//W3C//DTD SVG 1.1//EN"
  "http://www.w3.org/Graphics/SVG/1.1/DTD/svg11.dtd">
<svg height="345.6pt" version="1.1" viewBox="0 0 460.8 345.6" width="460.8pt" xmlns="http://www.w3.org/2000/svg" xmlns:xlink="http://www.w3.org/1999/xlink">
 <metadata>
  <rdf:RDF xmlns:cc="http://creativecommons.org/ns#" xmlns:dc="http://purl.org/dc/elements/1.1/" xmlns:rdf="http://www.w3.org/1999/02/22-rdf-syntax-ns#">
   <cc:Work>
    <dc:type rdf:resource="http://purl.org/dc/dcmitype/StillImage"/>
    <dc:date>2021-08-05T22:58:02.663846</dc:date>
    <dc:format>image/svg+xml</dc:format>
    <dc:creator>
     <cc:Agent>
      <dc:title>Matplotlib v3.4.2, https://matplotlib.org/</dc:title>
     </cc:Agent>
    </dc:creator>
   </cc:Work>
  </rdf:RDF>
 </metadata>
 <defs>
  <style type="text/css">*{stroke-linecap:butt;stroke-linejoin:round;}</style>
 </defs>
 <g id="figure_1">
  <g id="patch_1">
   <path d="M 0 345.6 
L 460.8 345.6 
L 460.8 0 
L 0 0 
z
" style="fill:#ffffff;"/>
  </g>
  <g id="axes_1">
   <g id="patch_2">
    <path d="M 57.6 307.584 
L 414.72 307.584 
L 414.72 41.472 
L 57.6 41.472 
z
" style="fill:#ffffff;"/>
   </g>
   <g id="matplotlib.axis_1">
    <g id="xtick_1">
     <g id="line2d_1">
      <defs>
       <path d="M 0 0 
L 0 3.5 
" id="m3355160e34" style="stroke:#000000;stroke-width:0.8;"/>
      </defs>
      <g>
       <use style="stroke:#000000;stroke-width:0.8;" x="73.832727" xlink:href="#m3355160e34" y="307.584"/>
      </g>
     </g>
     <g id="text_1">
      <!-- 0 -->
      <g transform="translate(70.651477 322.182437)scale(0.1 -0.1)">
       <defs>
        <path d="M 2034 4250 
Q 1547 4250 1301 3770 
Q 1056 3291 1056 2328 
Q 1056 1369 1301 889 
Q 1547 409 2034 409 
Q 2525 409 2770 889 
Q 3016 1369 3016 2328 
Q 3016 3291 2770 3770 
Q 2525 4250 2034 4250 
z
M 2034 4750 
Q 2819 4750 3233 4129 
Q 3647 3509 3647 2328 
Q 3647 1150 3233 529 
Q 2819 -91 2034 -91 
Q 1250 -91 836 529 
Q 422 1150 422 2328 
Q 422 3509 836 4129 
Q 1250 4750 2034 4750 
z
" id="DejaVuSans-30" transform="scale(0.015625)"/>
       </defs>
       <use xlink:href="#DejaVuSans-30"/>
      </g>
     </g>
    </g>
    <g id="xtick_2">
     <g id="line2d_2">
      <g>
       <use style="stroke:#000000;stroke-width:0.8;" x="119.049238" xlink:href="#m3355160e34" y="307.584"/>
      </g>
     </g>
     <g id="text_2">
      <!-- 50 -->
      <g transform="translate(112.686738 322.182437)scale(0.1 -0.1)">
       <defs>
        <path d="M 691 4666 
L 3169 4666 
L 3169 4134 
L 1269 4134 
L 1269 2991 
Q 1406 3038 1543 3061 
Q 1681 3084 1819 3084 
Q 2600 3084 3056 2656 
Q 3513 2228 3513 1497 
Q 3513 744 3044 326 
Q 2575 -91 1722 -91 
Q 1428 -91 1123 -41 
Q 819 9 494 109 
L 494 744 
Q 775 591 1075 516 
Q 1375 441 1709 441 
Q 2250 441 2565 725 
Q 2881 1009 2881 1497 
Q 2881 1984 2565 2268 
Q 2250 2553 1709 2553 
Q 1456 2553 1204 2497 
Q 953 2441 691 2322 
L 691 4666 
z
" id="DejaVuSans-35" transform="scale(0.015625)"/>
       </defs>
       <use xlink:href="#DejaVuSans-35"/>
       <use x="63.623047" xlink:href="#DejaVuSans-30"/>
      </g>
     </g>
    </g>
    <g id="xtick_3">
     <g id="line2d_3">
      <g>
       <use style="stroke:#000000;stroke-width:0.8;" x="164.265748" xlink:href="#m3355160e34" y="307.584"/>
      </g>
     </g>
     <g id="text_3">
      <!-- 100 -->
      <g transform="translate(154.721998 322.182437)scale(0.1 -0.1)">
       <defs>
        <path d="M 794 531 
L 1825 531 
L 1825 4091 
L 703 3866 
L 703 4441 
L 1819 4666 
L 2450 4666 
L 2450 531 
L 3481 531 
L 3481 0 
L 794 0 
L 794 531 
z
" id="DejaVuSans-31" transform="scale(0.015625)"/>
       </defs>
       <use xlink:href="#DejaVuSans-31"/>
       <use x="63.623047" xlink:href="#DejaVuSans-30"/>
       <use x="127.246094" xlink:href="#DejaVuSans-30"/>
      </g>
     </g>
    </g>
    <g id="xtick_4">
     <g id="line2d_4">
      <g>
       <use style="stroke:#000000;stroke-width:0.8;" x="209.482259" xlink:href="#m3355160e34" y="307.584"/>
      </g>
     </g>
     <g id="text_4">
      <!-- 150 -->
      <g transform="translate(199.938509 322.182437)scale(0.1 -0.1)">
       <use xlink:href="#DejaVuSans-31"/>
       <use x="63.623047" xlink:href="#DejaVuSans-35"/>
       <use x="127.246094" xlink:href="#DejaVuSans-30"/>
      </g>
     </g>
    </g>
    <g id="xtick_5">
     <g id="line2d_5">
      <g>
       <use style="stroke:#000000;stroke-width:0.8;" x="254.698769" xlink:href="#m3355160e34" y="307.584"/>
      </g>
     </g>
     <g id="text_5">
      <!-- 200 -->
      <g transform="translate(245.155019 322.182437)scale(0.1 -0.1)">
       <defs>
        <path d="M 1228 531 
L 3431 531 
L 3431 0 
L 469 0 
L 469 531 
Q 828 903 1448 1529 
Q 2069 2156 2228 2338 
Q 2531 2678 2651 2914 
Q 2772 3150 2772 3378 
Q 2772 3750 2511 3984 
Q 2250 4219 1831 4219 
Q 1534 4219 1204 4116 
Q 875 4013 500 3803 
L 500 4441 
Q 881 4594 1212 4672 
Q 1544 4750 1819 4750 
Q 2544 4750 2975 4387 
Q 3406 4025 3406 3419 
Q 3406 3131 3298 2873 
Q 3191 2616 2906 2266 
Q 2828 2175 2409 1742 
Q 1991 1309 1228 531 
z
" id="DejaVuSans-32" transform="scale(0.015625)"/>
       </defs>
       <use xlink:href="#DejaVuSans-32"/>
       <use x="63.623047" xlink:href="#DejaVuSans-30"/>
       <use x="127.246094" xlink:href="#DejaVuSans-30"/>
      </g>
     </g>
    </g>
    <g id="xtick_6">
     <g id="line2d_6">
      <g>
       <use style="stroke:#000000;stroke-width:0.8;" x="299.91528" xlink:href="#m3355160e34" y="307.584"/>
      </g>
     </g>
     <g id="text_6">
      <!-- 250 -->
      <g transform="translate(290.37153 322.182437)scale(0.1 -0.1)">
       <use xlink:href="#DejaVuSans-32"/>
       <use x="63.623047" xlink:href="#DejaVuSans-35"/>
       <use x="127.246094" xlink:href="#DejaVuSans-30"/>
      </g>
     </g>
    </g>
    <g id="xtick_7">
     <g id="line2d_7">
      <g>
       <use style="stroke:#000000;stroke-width:0.8;" x="345.13179" xlink:href="#m3355160e34" y="307.584"/>
      </g>
     </g>
     <g id="text_7">
      <!-- 300 -->
      <g transform="translate(335.58804 322.182437)scale(0.1 -0.1)">
       <defs>
        <path d="M 2597 2516 
Q 3050 2419 3304 2112 
Q 3559 1806 3559 1356 
Q 3559 666 3084 287 
Q 2609 -91 1734 -91 
Q 1441 -91 1130 -33 
Q 819 25 488 141 
L 488 750 
Q 750 597 1062 519 
Q 1375 441 1716 441 
Q 2309 441 2620 675 
Q 2931 909 2931 1356 
Q 2931 1769 2642 2001 
Q 2353 2234 1838 2234 
L 1294 2234 
L 1294 2753 
L 1863 2753 
Q 2328 2753 2575 2939 
Q 2822 3125 2822 3475 
Q 2822 3834 2567 4026 
Q 2313 4219 1838 4219 
Q 1578 4219 1281 4162 
Q 984 4106 628 3988 
L 628 4550 
Q 988 4650 1302 4700 
Q 1616 4750 1894 4750 
Q 2613 4750 3031 4423 
Q 3450 4097 3450 3541 
Q 3450 3153 3228 2886 
Q 3006 2619 2597 2516 
z
" id="DejaVuSans-33" transform="scale(0.015625)"/>
       </defs>
       <use xlink:href="#DejaVuSans-33"/>
       <use x="63.623047" xlink:href="#DejaVuSans-30"/>
       <use x="127.246094" xlink:href="#DejaVuSans-30"/>
      </g>
     </g>
    </g>
    <g id="xtick_8">
     <g id="line2d_8">
      <g>
       <use style="stroke:#000000;stroke-width:0.8;" x="390.348301" xlink:href="#m3355160e34" y="307.584"/>
      </g>
     </g>
     <g id="text_8">
      <!-- 350 -->
      <g transform="translate(380.804551 322.182437)scale(0.1 -0.1)">
       <use xlink:href="#DejaVuSans-33"/>
       <use x="63.623047" xlink:href="#DejaVuSans-35"/>
       <use x="127.246094" xlink:href="#DejaVuSans-30"/>
      </g>
     </g>
    </g>
    <g id="text_9">
     <!-- Epoch -->
     <g transform="translate(213.193594 339.659781)scale(0.15 -0.15)">
      <defs>
       <path d="M 628 4666 
L 3578 4666 
L 3578 4134 
L 1259 4134 
L 1259 2753 
L 3481 2753 
L 3481 2222 
L 1259 2222 
L 1259 531 
L 3634 531 
L 3634 0 
L 628 0 
L 628 4666 
z
" id="DejaVuSans-45" transform="scale(0.015625)"/>
       <path d="M 1159 525 
L 1159 -1331 
L 581 -1331 
L 581 3500 
L 1159 3500 
L 1159 2969 
Q 1341 3281 1617 3432 
Q 1894 3584 2278 3584 
Q 2916 3584 3314 3078 
Q 3713 2572 3713 1747 
Q 3713 922 3314 415 
Q 2916 -91 2278 -91 
Q 1894 -91 1617 61 
Q 1341 213 1159 525 
z
M 3116 1747 
Q 3116 2381 2855 2742 
Q 2594 3103 2138 3103 
Q 1681 3103 1420 2742 
Q 1159 2381 1159 1747 
Q 1159 1113 1420 752 
Q 1681 391 2138 391 
Q 2594 391 2855 752 
Q 3116 1113 3116 1747 
z
" id="DejaVuSans-70" transform="scale(0.015625)"/>
       <path d="M 1959 3097 
Q 1497 3097 1228 2736 
Q 959 2375 959 1747 
Q 959 1119 1226 758 
Q 1494 397 1959 397 
Q 2419 397 2687 759 
Q 2956 1122 2956 1747 
Q 2956 2369 2687 2733 
Q 2419 3097 1959 3097 
z
M 1959 3584 
Q 2709 3584 3137 3096 
Q 3566 2609 3566 1747 
Q 3566 888 3137 398 
Q 2709 -91 1959 -91 
Q 1206 -91 779 398 
Q 353 888 353 1747 
Q 353 2609 779 3096 
Q 1206 3584 1959 3584 
z
" id="DejaVuSans-6f" transform="scale(0.015625)"/>
       <path d="M 3122 3366 
L 3122 2828 
Q 2878 2963 2633 3030 
Q 2388 3097 2138 3097 
Q 1578 3097 1268 2742 
Q 959 2388 959 1747 
Q 959 1106 1268 751 
Q 1578 397 2138 397 
Q 2388 397 2633 464 
Q 2878 531 3122 666 
L 3122 134 
Q 2881 22 2623 -34 
Q 2366 -91 2075 -91 
Q 1284 -91 818 406 
Q 353 903 353 1747 
Q 353 2603 823 3093 
Q 1294 3584 2113 3584 
Q 2378 3584 2631 3529 
Q 2884 3475 3122 3366 
z
" id="DejaVuSans-63" transform="scale(0.015625)"/>
       <path d="M 3513 2113 
L 3513 0 
L 2938 0 
L 2938 2094 
Q 2938 2591 2744 2837 
Q 2550 3084 2163 3084 
Q 1697 3084 1428 2787 
Q 1159 2491 1159 1978 
L 1159 0 
L 581 0 
L 581 4863 
L 1159 4863 
L 1159 2956 
Q 1366 3272 1645 3428 
Q 1925 3584 2291 3584 
Q 2894 3584 3203 3211 
Q 3513 2838 3513 2113 
z
" id="DejaVuSans-68" transform="scale(0.015625)"/>
      </defs>
      <use xlink:href="#DejaVuSans-45"/>
      <use x="63.183594" xlink:href="#DejaVuSans-70"/>
      <use x="126.660156" xlink:href="#DejaVuSans-6f"/>
      <use x="187.841797" xlink:href="#DejaVuSans-63"/>
      <use x="242.822266" xlink:href="#DejaVuSans-68"/>
     </g>
    </g>
   </g>
   <g id="matplotlib.axis_2">
    <g id="ytick_1">
     <g id="line2d_9">
      <defs>
       <path d="M 0 0 
L -3.5 0 
" id="m60c8cd7e2e" style="stroke:#000000;stroke-width:0.8;"/>
      </defs>
      <g>
       <use style="stroke:#000000;stroke-width:0.8;" x="57.6" xlink:href="#m60c8cd7e2e" y="302.768032"/>
      </g>
     </g>
     <g id="text_10">
      <!-- $\mathdefault{10^{-2}}$ -->
      <g transform="translate(27.1 306.567251)scale(0.1 -0.1)">
       <defs>
        <path d="M 678 2272 
L 4684 2272 
L 4684 1741 
L 678 1741 
L 678 2272 
z
" id="DejaVuSans-2212" transform="scale(0.015625)"/>
       </defs>
       <use transform="translate(0 0.765625)" xlink:href="#DejaVuSans-31"/>
       <use transform="translate(63.623047 0.765625)" xlink:href="#DejaVuSans-30"/>
       <use transform="translate(128.203125 39.046875)scale(0.7)" xlink:href="#DejaVuSans-2212"/>
       <use transform="translate(186.855469 39.046875)scale(0.7)" xlink:href="#DejaVuSans-32"/>
      </g>
     </g>
    </g>
    <g id="ytick_2">
     <g id="line2d_10">
      <g>
       <use style="stroke:#000000;stroke-width:0.8;" x="57.6" xlink:href="#m60c8cd7e2e" y="201.833096"/>
      </g>
     </g>
     <g id="text_11">
      <!-- $\mathdefault{10^{-1}}$ -->
      <g transform="translate(27.1 205.632315)scale(0.1 -0.1)">
       <use transform="translate(0 0.684375)" xlink:href="#DejaVuSans-31"/>
       <use transform="translate(63.623047 0.684375)" xlink:href="#DejaVuSans-30"/>
       <use transform="translate(128.203125 38.965625)scale(0.7)" xlink:href="#DejaVuSans-2212"/>
       <use transform="translate(186.855469 38.965625)scale(0.7)" xlink:href="#DejaVuSans-31"/>
      </g>
     </g>
    </g>
    <g id="ytick_3">
     <g id="line2d_11">
      <g>
       <use style="stroke:#000000;stroke-width:0.8;" x="57.6" xlink:href="#m60c8cd7e2e" y="100.898161"/>
      </g>
     </g>
     <g id="text_12">
      <!-- $\mathdefault{10^{0}}$ -->
      <g transform="translate(33 104.697379)scale(0.1 -0.1)">
       <use transform="translate(0 0.765625)" xlink:href="#DejaVuSans-31"/>
       <use transform="translate(63.623047 0.765625)" xlink:href="#DejaVuSans-30"/>
       <use transform="translate(128.203125 39.046875)scale(0.7)" xlink:href="#DejaVuSans-30"/>
      </g>
     </g>
    </g>
    <g id="ytick_4">
     <g id="line2d_12">
      <defs>
       <path d="M 0 0 
L -2 0 
" id="mab44661155" style="stroke:#000000;stroke-width:0.6;"/>
      </defs>
      <g>
       <use style="stroke:#000000;stroke-width:0.6;" x="57.6" xlink:href="#mab44661155" y="307.386561"/>
      </g>
     </g>
    </g>
    <g id="ytick_5">
     <g id="line2d_13">
      <g>
       <use style="stroke:#000000;stroke-width:0.6;" x="57.6" xlink:href="#mab44661155" y="272.383589"/>
      </g>
     </g>
    </g>
    <g id="ytick_6">
     <g id="line2d_14">
      <g>
       <use style="stroke:#000000;stroke-width:0.6;" x="57.6" xlink:href="#mab44661155" y="254.609829"/>
      </g>
     </g>
    </g>
    <g id="ytick_7">
     <g id="line2d_15">
      <g>
       <use style="stroke:#000000;stroke-width:0.6;" x="57.6" xlink:href="#mab44661155" y="241.999145"/>
      </g>
     </g>
    </g>
    <g id="ytick_8">
     <g id="line2d_16">
      <g>
       <use style="stroke:#000000;stroke-width:0.6;" x="57.6" xlink:href="#mab44661155" y="232.217539"/>
      </g>
     </g>
    </g>
    <g id="ytick_9">
     <g id="line2d_17">
      <g>
       <use style="stroke:#000000;stroke-width:0.6;" x="57.6" xlink:href="#mab44661155" y="224.225385"/>
      </g>
     </g>
    </g>
    <g id="ytick_10">
     <g id="line2d_18">
      <g>
       <use style="stroke:#000000;stroke-width:0.6;" x="57.6" xlink:href="#mab44661155" y="217.468116"/>
      </g>
     </g>
    </g>
    <g id="ytick_11">
     <g id="line2d_19">
      <g>
       <use style="stroke:#000000;stroke-width:0.6;" x="57.6" xlink:href="#mab44661155" y="211.614702"/>
      </g>
     </g>
    </g>
    <g id="ytick_12">
     <g id="line2d_20">
      <g>
       <use style="stroke:#000000;stroke-width:0.6;" x="57.6" xlink:href="#mab44661155" y="206.451626"/>
      </g>
     </g>
    </g>
    <g id="ytick_13">
     <g id="line2d_21">
      <g>
       <use style="stroke:#000000;stroke-width:0.6;" x="57.6" xlink:href="#mab44661155" y="171.448653"/>
      </g>
     </g>
    </g>
    <g id="ytick_14">
     <g id="line2d_22">
      <g>
       <use style="stroke:#000000;stroke-width:0.6;" x="57.6" xlink:href="#mab44661155" y="153.674893"/>
      </g>
     </g>
    </g>
    <g id="ytick_15">
     <g id="line2d_23">
      <g>
       <use style="stroke:#000000;stroke-width:0.6;" x="57.6" xlink:href="#mab44661155" y="141.06421"/>
      </g>
     </g>
    </g>
    <g id="ytick_16">
     <g id="line2d_24">
      <g>
       <use style="stroke:#000000;stroke-width:0.6;" x="57.6" xlink:href="#mab44661155" y="131.282604"/>
      </g>
     </g>
    </g>
    <g id="ytick_17">
     <g id="line2d_25">
      <g>
       <use style="stroke:#000000;stroke-width:0.6;" x="57.6" xlink:href="#mab44661155" y="123.29045"/>
      </g>
     </g>
    </g>
    <g id="ytick_18">
     <g id="line2d_26">
      <g>
       <use style="stroke:#000000;stroke-width:0.6;" x="57.6" xlink:href="#mab44661155" y="116.53318"/>
      </g>
     </g>
    </g>
    <g id="ytick_19">
     <g id="line2d_27">
      <g>
       <use style="stroke:#000000;stroke-width:0.6;" x="57.6" xlink:href="#mab44661155" y="110.679767"/>
      </g>
     </g>
    </g>
    <g id="ytick_20">
     <g id="line2d_28">
      <g>
       <use style="stroke:#000000;stroke-width:0.6;" x="57.6" xlink:href="#mab44661155" y="105.51669"/>
      </g>
     </g>
    </g>
    <g id="ytick_21">
     <g id="line2d_29">
      <g>
       <use style="stroke:#000000;stroke-width:0.6;" x="57.6" xlink:href="#mab44661155" y="70.513717"/>
      </g>
     </g>
    </g>
    <g id="ytick_22">
     <g id="line2d_30">
      <g>
       <use style="stroke:#000000;stroke-width:0.6;" x="57.6" xlink:href="#mab44661155" y="52.739957"/>
      </g>
     </g>
    </g>
    <g id="text_13">
     <!-- GradNorm weight -->
     <g transform="translate(19.980469 240.907688)rotate(-90)scale(0.15 -0.15)">
      <defs>
       <path d="M 3809 666 
L 3809 1919 
L 2778 1919 
L 2778 2438 
L 4434 2438 
L 4434 434 
Q 4069 175 3628 42 
Q 3188 -91 2688 -91 
Q 1594 -91 976 548 
Q 359 1188 359 2328 
Q 359 3472 976 4111 
Q 1594 4750 2688 4750 
Q 3144 4750 3555 4637 
Q 3966 4525 4313 4306 
L 4313 3634 
Q 3963 3931 3569 4081 
Q 3175 4231 2741 4231 
Q 1884 4231 1454 3753 
Q 1025 3275 1025 2328 
Q 1025 1384 1454 906 
Q 1884 428 2741 428 
Q 3075 428 3337 486 
Q 3600 544 3809 666 
z
" id="DejaVuSans-47" transform="scale(0.015625)"/>
       <path d="M 2631 2963 
Q 2534 3019 2420 3045 
Q 2306 3072 2169 3072 
Q 1681 3072 1420 2755 
Q 1159 2438 1159 1844 
L 1159 0 
L 581 0 
L 581 3500 
L 1159 3500 
L 1159 2956 
Q 1341 3275 1631 3429 
Q 1922 3584 2338 3584 
Q 2397 3584 2469 3576 
Q 2541 3569 2628 3553 
L 2631 2963 
z
" id="DejaVuSans-72" transform="scale(0.015625)"/>
       <path d="M 2194 1759 
Q 1497 1759 1228 1600 
Q 959 1441 959 1056 
Q 959 750 1161 570 
Q 1363 391 1709 391 
Q 2188 391 2477 730 
Q 2766 1069 2766 1631 
L 2766 1759 
L 2194 1759 
z
M 3341 1997 
L 3341 0 
L 2766 0 
L 2766 531 
Q 2569 213 2275 61 
Q 1981 -91 1556 -91 
Q 1019 -91 701 211 
Q 384 513 384 1019 
Q 384 1609 779 1909 
Q 1175 2209 1959 2209 
L 2766 2209 
L 2766 2266 
Q 2766 2663 2505 2880 
Q 2244 3097 1772 3097 
Q 1472 3097 1187 3025 
Q 903 2953 641 2809 
L 641 3341 
Q 956 3463 1253 3523 
Q 1550 3584 1831 3584 
Q 2591 3584 2966 3190 
Q 3341 2797 3341 1997 
z
" id="DejaVuSans-61" transform="scale(0.015625)"/>
       <path d="M 2906 2969 
L 2906 4863 
L 3481 4863 
L 3481 0 
L 2906 0 
L 2906 525 
Q 2725 213 2448 61 
Q 2172 -91 1784 -91 
Q 1150 -91 751 415 
Q 353 922 353 1747 
Q 353 2572 751 3078 
Q 1150 3584 1784 3584 
Q 2172 3584 2448 3432 
Q 2725 3281 2906 2969 
z
M 947 1747 
Q 947 1113 1208 752 
Q 1469 391 1925 391 
Q 2381 391 2643 752 
Q 2906 1113 2906 1747 
Q 2906 2381 2643 2742 
Q 2381 3103 1925 3103 
Q 1469 3103 1208 2742 
Q 947 2381 947 1747 
z
" id="DejaVuSans-64" transform="scale(0.015625)"/>
       <path d="M 628 4666 
L 1478 4666 
L 3547 763 
L 3547 4666 
L 4159 4666 
L 4159 0 
L 3309 0 
L 1241 3903 
L 1241 0 
L 628 0 
L 628 4666 
z
" id="DejaVuSans-4e" transform="scale(0.015625)"/>
       <path d="M 3328 2828 
Q 3544 3216 3844 3400 
Q 4144 3584 4550 3584 
Q 5097 3584 5394 3201 
Q 5691 2819 5691 2113 
L 5691 0 
L 5113 0 
L 5113 2094 
Q 5113 2597 4934 2840 
Q 4756 3084 4391 3084 
Q 3944 3084 3684 2787 
Q 3425 2491 3425 1978 
L 3425 0 
L 2847 0 
L 2847 2094 
Q 2847 2600 2669 2842 
Q 2491 3084 2119 3084 
Q 1678 3084 1418 2786 
Q 1159 2488 1159 1978 
L 1159 0 
L 581 0 
L 581 3500 
L 1159 3500 
L 1159 2956 
Q 1356 3278 1631 3431 
Q 1906 3584 2284 3584 
Q 2666 3584 2933 3390 
Q 3200 3197 3328 2828 
z
" id="DejaVuSans-6d" transform="scale(0.015625)"/>
       <path id="DejaVuSans-20" transform="scale(0.015625)"/>
       <path d="M 269 3500 
L 844 3500 
L 1563 769 
L 2278 3500 
L 2956 3500 
L 3675 769 
L 4391 3500 
L 4966 3500 
L 4050 0 
L 3372 0 
L 2619 2869 
L 1863 0 
L 1184 0 
L 269 3500 
z
" id="DejaVuSans-77" transform="scale(0.015625)"/>
       <path d="M 3597 1894 
L 3597 1613 
L 953 1613 
Q 991 1019 1311 708 
Q 1631 397 2203 397 
Q 2534 397 2845 478 
Q 3156 559 3463 722 
L 3463 178 
Q 3153 47 2828 -22 
Q 2503 -91 2169 -91 
Q 1331 -91 842 396 
Q 353 884 353 1716 
Q 353 2575 817 3079 
Q 1281 3584 2069 3584 
Q 2775 3584 3186 3129 
Q 3597 2675 3597 1894 
z
M 3022 2063 
Q 3016 2534 2758 2815 
Q 2500 3097 2075 3097 
Q 1594 3097 1305 2825 
Q 1016 2553 972 2059 
L 3022 2063 
z
" id="DejaVuSans-65" transform="scale(0.015625)"/>
       <path d="M 603 3500 
L 1178 3500 
L 1178 0 
L 603 0 
L 603 3500 
z
M 603 4863 
L 1178 4863 
L 1178 4134 
L 603 4134 
L 603 4863 
z
" id="DejaVuSans-69" transform="scale(0.015625)"/>
       <path d="M 2906 1791 
Q 2906 2416 2648 2759 
Q 2391 3103 1925 3103 
Q 1463 3103 1205 2759 
Q 947 2416 947 1791 
Q 947 1169 1205 825 
Q 1463 481 1925 481 
Q 2391 481 2648 825 
Q 2906 1169 2906 1791 
z
M 3481 434 
Q 3481 -459 3084 -895 
Q 2688 -1331 1869 -1331 
Q 1566 -1331 1297 -1286 
Q 1028 -1241 775 -1147 
L 775 -588 
Q 1028 -725 1275 -790 
Q 1522 -856 1778 -856 
Q 2344 -856 2625 -561 
Q 2906 -266 2906 331 
L 2906 616 
Q 2728 306 2450 153 
Q 2172 0 1784 0 
Q 1141 0 747 490 
Q 353 981 353 1791 
Q 353 2603 747 3093 
Q 1141 3584 1784 3584 
Q 2172 3584 2450 3431 
Q 2728 3278 2906 2969 
L 2906 3500 
L 3481 3500 
L 3481 434 
z
" id="DejaVuSans-67" transform="scale(0.015625)"/>
       <path d="M 1172 4494 
L 1172 3500 
L 2356 3500 
L 2356 3053 
L 1172 3053 
L 1172 1153 
Q 1172 725 1289 603 
Q 1406 481 1766 481 
L 2356 481 
L 2356 0 
L 1766 0 
Q 1100 0 847 248 
Q 594 497 594 1153 
L 594 3053 
L 172 3053 
L 172 3500 
L 594 3500 
L 594 4494 
L 1172 4494 
z
" id="DejaVuSans-74" transform="scale(0.015625)"/>
      </defs>
      <use xlink:href="#DejaVuSans-47"/>
      <use x="77.490234" xlink:href="#DejaVuSans-72"/>
      <use x="118.603516" xlink:href="#DejaVuSans-61"/>
      <use x="179.882812" xlink:href="#DejaVuSans-64"/>
      <use x="243.359375" xlink:href="#DejaVuSans-4e"/>
      <use x="318.164062" xlink:href="#DejaVuSans-6f"/>
      <use x="379.345703" xlink:href="#DejaVuSans-72"/>
      <use x="418.708984" xlink:href="#DejaVuSans-6d"/>
      <use x="516.121094" xlink:href="#DejaVuSans-20"/>
      <use x="547.908203" xlink:href="#DejaVuSans-77"/>
      <use x="629.695312" xlink:href="#DejaVuSans-65"/>
      <use x="691.21875" xlink:href="#DejaVuSans-69"/>
      <use x="719.001953" xlink:href="#DejaVuSans-67"/>
      <use x="782.478516" xlink:href="#DejaVuSans-68"/>
      <use x="845.857422" xlink:href="#DejaVuSans-74"/>
     </g>
    </g>
   </g>
   <g id="line2d_31">
    <path clip-path="url(#pa2eadcf2e0)" d="M 73.832727 100.898161 
L 163.361418 100.898161 
L 164.265748 258.043021 
L 166.074409 220.815936 
L 166.978739 231.569106 
L 167.883069 223.231305 
L 168.787399 211.45014 
L 169.69173 215.573076 
L 170.59606 221.585452 
L 171.50039 211.190962 
L 172.40472 210.194405 
L 173.30905 214.645013 
L 174.213381 208.415306 
L 175.117711 204.467577 
L 176.022041 206.51466 
L 176.926371 201.617147 
L 177.830701 199.059198 
L 178.735032 211.376733 
L 179.639362 206.826306 
L 180.543692 216.543788 
L 181.448022 209.252965 
L 182.352352 208.342662 
L 183.256683 208.77241 
L 184.161013 227.816733 
L 185.065343 197.461571 
L 185.969673 208.111919 
L 186.874004 211.694212 
L 187.778334 205.723888 
L 188.682664 206.240307 
L 189.586994 208.587964 
L 190.491324 224.506724 
L 191.395655 218.564043 
L 192.299985 202.798867 
L 193.204315 207.416234 
L 195.012975 207.648703 
L 195.917306 208.772069 
L 196.821636 207.781477 
L 197.725966 209.715491 
L 198.630296 208.594025 
L 199.534626 205.303698 
L 200.438957 209.255475 
L 201.343287 208.891692 
L 202.247617 207.892759 
L 203.151947 206.224324 
L 204.056278 220.419897 
L 204.960608 205.295361 
L 205.864938 215.078078 
L 206.769268 204.036344 
L 207.673598 209.428172 
L 208.577929 204.021025 
L 209.482259 213.674889 
L 210.386589 217.992707 
L 211.290919 208.530867 
L 212.195249 221.376563 
L 213.09958 211.603773 
L 214.00391 222.783382 
L 214.90824 207.815236 
L 215.81257 208.380061 
L 216.7169 198.192924 
L 217.621231 218.045614 
L 218.525561 224.167346 
L 219.429891 207.974668 
L 220.334221 213.665724 
L 221.238552 207.649358 
L 222.142882 219.93753 
L 223.047212 230.159442 
L 223.951542 206.859051 
L 224.855872 221.421652 
L 225.760203 210.723616 
L 226.664533 222.241015 
L 227.568863 214.313195 
L 228.473193 232.000897 
L 229.377523 227.033008 
L 230.281854 227.923186 
L 231.186184 213.402442 
L 232.090514 236.336429 
L 232.994844 228.065152 
L 233.899174 224.704333 
L 234.803505 226.396634 
L 235.707835 216.132552 
L 236.612165 226.998098 
L 237.516495 234.071561 
L 238.420826 218.32537 
L 239.325156 231.528652 
L 240.229486 249.403378 
L 241.133816 230.589098 
L 242.038146 233.890003 
L 242.942477 224.410163 
L 243.846807 232.96712 
L 244.751137 235.62729 
L 245.655467 226.342009 
L 246.559797 220.970038 
L 247.464128 239.33774 
L 248.368458 230.08051 
L 249.272788 226.419663 
L 250.177118 233.034586 
L 251.081448 218.437957 
L 251.985779 226.640302 
L 252.890109 232.925362 
L 253.794439 226.954834 
L 254.698769 229.975476 
L 255.6031 235.659157 
L 256.50743 225.999467 
L 257.41176 229.840842 
L 258.31609 238.179828 
L 259.22042 241.06953 
L 260.124751 230.597452 
L 261.029081 241.944664 
L 261.933411 225.630028 
L 262.837741 270.995927 
L 263.742071 239.363733 
L 264.646402 244.339018 
L 265.550732 250.565258 
L 266.455062 249.744353 
L 267.359392 255.023398 
L 268.263722 240.975708 
L 269.168053 252.456639 
L 270.072383 247.584188 
L 270.976713 246.146639 
L 271.881043 271.010706 
L 272.785374 245.669268 
L 273.689704 240.181818 
L 274.594034 253.166311 
L 275.498364 255.231901 
L 276.402694 244.56197 
L 277.307025 248.33223 
L 278.211355 258.580572 
L 279.115685 262.519199 
L 280.924345 248.818605 
L 281.828676 254.033816 
L 282.733006 264.802792 
L 283.637336 257.338952 
L 284.541666 277.799509 
L 285.445996 270.049792 
L 286.350327 275.702861 
L 287.254657 250.14497 
L 288.158987 256.372857 
L 289.063317 253.485619 
L 289.967648 270.864104 
L 290.871978 257.555883 
L 291.776308 268.46303 
L 292.680638 250.027882 
L 293.584968 251.575627 
L 294.489299 249.732749 
L 295.393629 259.995231 
L 296.297959 259.505972 
L 297.202289 266.886975 
L 298.106619 248.238455 
L 299.01095 268.260996 
L 299.91528 245.178783 
L 300.81961 253.998764 
L 301.72394 254.226306 
L 302.62827 259.160894 
L 303.532601 248.254648 
L 304.436931 249.964792 
L 305.341261 273.459143 
L 306.245591 238.129069 
L 307.149921 253.569133 
L 308.054252 294.97346 
L 308.958582 266.574131 
L 309.862912 242.585236 
L 310.767242 271.487496 
L 311.671573 250.192204 
L 312.575903 247.922132 
L 314.384563 258.366788 
L 315.288893 249.923876 
L 316.193224 267.501214 
L 317.097554 268.317115 
L 318.001884 265.440955 
L 318.906214 254.758221 
L 319.810544 270.527607 
L 320.714875 263.592414 
L 321.619205 270.996666 
L 322.523535 272.126859 
L 323.427865 258.745478 
L 324.332195 271.273379 
L 325.236526 270.414188 
L 326.140856 274.144719 
L 327.045186 255.183919 
L 327.949516 268.376487 
L 328.853847 238.25189 
L 329.758177 275.731376 
L 330.662507 262.385948 
L 331.566837 257.776916 
L 332.471167 258.949012 
L 333.375498 264.08305 
L 334.279828 289.733009 
L 335.184158 253.559992 
L 336.088488 264.884989 
L 336.992818 243.093973 
L 337.897149 268.958775 
L 338.801479 258.303737 
L 339.705809 269.920048 
L 340.610139 273.404636 
L 341.514469 267.852336 
L 342.4188 269.569898 
L 343.32313 267.522258 
L 344.22746 273.092404 
L 345.13179 262.799292 
L 346.036121 269.070415 
L 346.940451 277.375868 
L 347.844781 268.943092 
L 348.749111 279.334492 
L 349.653441 277.767982 
L 350.557772 282.410895 
L 351.462102 279.203442 
L 352.366432 278.647912 
L 354.175092 262.391985 
L 355.079423 263.933415 
L 355.983753 285.091994 
L 356.888083 260.39389 
L 357.792413 279.76012 
L 358.696743 293.08745 
L 359.601074 261.942599 
L 361.409734 280.96376 
L 362.314064 295.488 
L 363.218395 272.947532 
L 364.122725 276.111108 
L 365.027055 273.346633 
L 365.931385 275.162432 
L 366.835715 281.279531 
L 367.740046 274.385981 
L 368.644376 282.463091 
L 369.548706 288.672697 
L 370.453036 267.830902 
L 371.357366 267.261786 
L 372.261697 275.335307 
L 373.166027 270.987965 
L 374.974687 278.968902 
L 375.879017 281.473195 
L 376.783348 280.751015 
L 377.687678 275.038065 
L 378.592008 267.294199 
L 379.496338 271.652353 
L 380.400669 277.622478 
L 381.304999 291.908186 
L 382.209329 270.177013 
L 383.113659 275.597416 
L 384.017989 270.461897 
L 384.92232 292.121439 
L 385.82665 280.039969 
L 386.73098 277.08895 
L 387.63531 281.833337 
L 388.53964 265.058277 
L 389.443971 273.346462 
L 390.348301 275.728146 
L 391.252631 270.030753 
L 392.156961 274.897091 
L 393.061291 273.693227 
L 393.965622 270.127011 
L 394.869952 294.281779 
L 395.774282 285.187619 
L 396.678612 270.957459 
L 397.582943 276.646885 
L 398.487273 277.851623 
L 398.487273 277.851623 
" style="fill:none;stroke:#1f77b4;stroke-linecap:square;stroke-width:1.5;"/>
   </g>
   <g id="line2d_32">
    <path clip-path="url(#pa2eadcf2e0)" d="M 73.832727 100.898161 
L 163.361418 100.898161 
L 164.265748 54.755988 
L 165.170079 55.043502 
L 166.074409 55.682558 
L 166.978739 55.335344 
L 167.883069 55.671289 
L 169.69173 56.061767 
L 170.59606 55.756477 
L 171.50039 55.730548 
L 172.40472 55.893185 
L 173.30905 55.74966 
L 174.213381 56.311515 
L 175.117711 55.968752 
L 176.022041 56.085944 
L 176.926371 56.364747 
L 177.830701 56.408584 
L 178.735032 56.067795 
L 179.639362 56.231591 
L 180.543692 55.955307 
L 181.448022 56.283168 
L 182.352352 56.029426 
L 183.256683 56.247498 
L 184.161013 55.348136 
L 185.065343 56.384107 
L 186.874004 55.893915 
L 187.778334 56.177069 
L 188.682664 56.191161 
L 190.491324 55.549069 
L 191.395655 55.465349 
L 192.299985 56.152263 
L 194.108645 56.368829 
L 195.012975 56.034875 
L 195.917306 56.417388 
L 196.821636 56.068464 
L 197.725966 56.071057 
L 198.630296 55.853132 
L 199.534626 55.913967 
L 200.438957 56.359533 
L 201.343287 55.869509 
L 202.247617 55.861686 
L 203.151947 56.151422 
L 204.056278 55.930152 
L 204.960608 55.964869 
L 205.864938 55.871649 
L 206.769268 56.395466 
L 207.673598 56.271514 
L 208.577929 56.761569 
L 209.482259 55.604674 
L 210.386589 55.728489 
L 211.290919 56.01587 
L 212.195249 55.653945 
L 213.09958 55.944074 
L 214.00391 55.298466 
L 214.90824 56.021321 
L 215.81257 56.309518 
L 216.7169 56.318111 
L 217.621231 55.928587 
L 218.525561 55.897976 
L 219.429891 56.028985 
L 220.334221 55.890944 
L 221.238552 56.075562 
L 222.142882 55.895295 
L 223.047212 55.558292 
L 223.951542 56.054179 
L 224.855872 55.842177 
L 225.760203 56.319393 
L 226.664533 55.263437 
L 227.568863 56.172025 
L 228.473193 55.170659 
L 230.281854 55.968698 
L 231.186184 55.39099 
L 232.090514 55.735334 
L 232.994844 55.33476 
L 233.899174 55.860305 
L 234.803505 56.041561 
L 236.612165 56.07773 
L 237.516495 55.667961 
L 238.420826 55.898413 
L 239.325156 55.272314 
L 240.229486 55.135548 
L 241.133816 55.18587 
L 242.038146 55.119788 
L 242.942477 55.358814 
L 243.846807 55.892774 
L 244.751137 55.365226 
L 245.655467 55.643477 
L 246.559797 55.468634 
L 247.464128 55.633864 
L 248.368458 55.260374 
L 249.272788 55.350768 
L 250.177118 54.951908 
L 251.081448 55.588473 
L 251.985779 55.548771 
L 252.890109 54.841144 
L 253.794439 55.278443 
L 255.6031 54.971361 
L 256.50743 55.018583 
L 257.41176 55.502513 
L 258.31609 54.980984 
L 259.22042 55.041247 
L 260.124751 55.225526 
L 261.029081 54.67435 
L 261.933411 54.903079 
L 262.837741 54.71284 
L 263.742071 54.839541 
L 264.646402 55.080042 
L 265.550732 54.842799 
L 266.455062 54.447257 
L 267.359392 54.445448 
L 268.263722 54.596644 
L 269.168053 54.122033 
L 270.976713 54.660071 
L 271.881043 54.323785 
L 272.785374 54.326888 
L 273.689704 54.895463 
L 274.594034 54.232807 
L 276.402694 54.578656 
L 277.307025 54.219132 
L 278.211355 54.215145 
L 279.115685 53.983629 
L 280.020015 54.736762 
L 281.828676 54.624963 
L 282.733006 54.333987 
L 283.637336 54.168667 
L 285.445996 54.342988 
L 286.350327 54.26293 
L 287.254657 54.47792 
L 291.776308 54.175793 
L 292.680638 54.455945 
L 294.489299 54.226547 
L 295.393629 54.345838 
L 297.202289 54.314198 
L 298.106619 54.403249 
L 299.01095 54.079158 
L 300.81961 54.680756 
L 301.72394 54.121515 
L 302.62827 54.151917 
L 303.532601 54.514818 
L 304.436931 54.406662 
L 305.341261 54.162336 
L 306.245591 54.497843 
L 308.054252 53.988154 
L 308.958582 54.00168 
L 309.862912 54.280213 
L 310.767242 54.001622 
L 311.671573 54.265519 
L 312.575903 54.31137 
L 313.480233 54.080203 
L 314.384563 54.175347 
L 315.288893 54.591404 
L 316.193224 54.000742 
L 317.097554 54.132696 
L 318.001884 54.031863 
L 320.714875 54.533424 
L 321.619205 54.057541 
L 322.523535 54.039845 
L 323.427865 53.880858 
L 324.332195 53.892895 
L 325.236526 54.180676 
L 327.045186 54.39562 
L 327.949516 54.134786 
L 328.853847 54.446969 
L 329.758177 53.953017 
L 330.662507 54.075189 
L 334.279828 53.776219 
L 335.184158 54.25674 
L 336.088488 53.991146 
L 336.992818 54.318068 
L 337.897149 53.70707 
L 338.801479 54.304107 
L 339.705809 53.989074 
L 340.610139 54.066174 
L 341.514469 54.006394 
L 342.4188 54.362001 
L 343.32313 54.134133 
L 345.13179 53.959478 
L 346.036121 53.661384 
L 346.940451 54.10944 
L 348.749111 53.73008 
L 349.653441 53.792132 
L 350.557772 53.693808 
L 351.462102 53.80478 
L 352.366432 53.739347 
L 354.175092 53.778338 
L 356.888083 53.792944 
L 357.792413 53.643671 
L 359.601074 54.009984 
L 360.505404 53.719492 
L 362.314064 53.711367 
L 363.218395 53.639379 
L 364.122725 53.793098 
L 365.931385 53.821423 
L 366.835715 53.923294 
L 367.740046 53.82285 
L 368.644376 53.911797 
L 369.548706 53.725285 
L 370.453036 53.829302 
L 371.357366 53.780616 
L 373.166027 53.93313 
L 374.974687 53.780788 
L 375.879017 53.777136 
L 376.783348 53.568 
L 378.592008 54.093942 
L 379.496338 53.684594 
L 380.400669 53.685929 
L 381.304999 53.896235 
L 382.209329 53.69196 
L 383.113659 53.876256 
L 384.017989 53.715177 
L 389.443971 53.957587 
L 390.348301 53.65162 
L 391.252631 53.889245 
L 392.156961 53.671197 
L 393.965622 54.066188 
L 394.869952 53.592706 
L 396.678612 54.193705 
L 398.487273 53.721853 
L 398.487273 53.721853 
" style="fill:none;stroke:#ff7f0e;stroke-linecap:square;stroke-width:1.5;"/>
   </g>
   <g id="line2d_33">
    <path clip-path="url(#pa2eadcf2e0)" d="M 73.832727 57.832274 
L 163.361418 57.832274 
L 164.265748 155.757216 
L 165.170079 154.127714 
L 166.074409 147.292898 
L 166.978739 150.150791 
L 167.883069 146.372903 
L 168.787399 149.256365 
L 169.69173 142.225031 
L 170.59606 145.360652 
L 171.50039 151.859936 
L 172.40472 148.780455 
L 173.30905 149.193487 
L 174.213381 141.3811 
L 175.117711 151.192636 
L 176.022041 147.064625 
L 176.926371 144.776173 
L 177.830701 145.833104 
L 178.735032 144.36868 
L 179.639362 143.875188 
L 180.543692 143.804522 
L 181.448022 141.428271 
L 182.352352 147.036227 
L 183.256683 142.378011 
L 184.161013 151.507721 
L 185.065343 147.664233 
L 185.969673 144.631946 
L 186.874004 147.804985 
L 187.778334 145.697871 
L 188.682664 145.063733 
L 189.586994 149.692465 
L 190.491324 148.427198 
L 191.395655 153.577666 
L 192.299985 148.34113 
L 193.204315 143.761933 
L 194.108645 140.820983 
L 195.012975 147.382932 
L 195.917306 139.260827 
L 196.821636 146.580129 
L 197.725966 145.293661 
L 198.630296 150.789046 
L 199.534626 151.826411 
L 200.438957 140.027947 
L 201.343287 150.199679 
L 202.247617 151.095936 
L 203.151947 145.888484 
L 204.056278 142.439457 
L 204.960608 150.637568 
L 205.864938 146.290517 
L 206.769268 142.500899 
L 207.673598 141.546185 
L 208.577929 136.064597 
L 209.482259 153.232219 
L 210.386589 147.759815 
L 211.290919 147.201399 
L 212.195249 147.634152 
L 213.09958 146.783436 
L 214.00391 155.361139 
L 214.90824 147.561968 
L 215.81257 141.4387 
L 216.7169 148.464801 
L 217.621231 143.584474 
L 218.525561 141.449811 
L 219.429891 147.290093 
L 220.334221 146.685157 
L 221.238552 146.518208 
L 222.142882 143.337508 
L 223.047212 145.804911 
L 223.951542 147.507069 
L 225.760203 139.956484 
L 226.664533 156.609401 
L 227.568863 140.789534 
L 228.473193 153.965702 
L 229.377523 146.940223 
L 230.281854 138.749134 
L 231.186184 159.097056 
L 232.090514 140.230446 
L 232.994844 151.712609 
L 233.899174 141.945277 
L 234.803505 138.012818 
L 235.707835 142.682611 
L 236.612165 137.181762 
L 237.516495 142.205115 
L 238.420826 144.046147 
L 239.325156 151.658502 
L 240.229486 148.717816 
L 241.133816 154.225761 
L 242.038146 154.430257 
L 242.942477 152.934339 
L 243.846807 138.427502 
L 244.751137 147.899798 
L 245.655467 145.579361 
L 246.559797 152.100657 
L 247.464128 141.2418 
L 248.368458 152.591763 
L 249.272788 152.113831 
L 250.177118 159.40828 
L 251.081448 150.673393 
L 251.985779 147.463849 
L 252.890109 162.800674 
L 253.794439 153.637032 
L 254.698769 156.435049 
L 255.6031 157.613924 
L 256.50743 161.321297 
L 257.41176 147.117245 
L 258.31609 156.264794 
L 259.22042 153.574937 
L 260.124751 153.219575 
L 261.029081 163.65094 
L 261.933411 165.206683 
L 262.837741 154.041553 
L 263.742071 159.731053 
L 264.646402 151.50082 
L 265.550732 155.549472 
L 266.455062 167.963218 
L 267.359392 166.015187 
L 268.263722 166.688016 
L 269.168053 180.005776 
L 270.072383 169.908463 
L 270.976713 162.335263 
L 271.881043 165.469232 
L 272.785374 174.47984 
L 273.689704 157.789052 
L 274.594034 174.752582 
L 275.498364 167.276716 
L 276.402694 165.631525 
L 277.307025 177.702529 
L 278.211355 173.242539 
L 279.115685 181.992411 
L 280.020015 156.949477 
L 280.924345 160.516705 
L 281.828676 160.614126 
L 282.733006 166.747325 
L 283.637336 175.66508 
L 284.541666 164.821752 
L 285.445996 165.057471 
L 286.350327 166.463628 
L 287.254657 166.725105 
L 288.158987 166.470859 
L 289.063317 169.705338 
L 289.967648 163.027794 
L 290.871978 175.395261 
L 292.680638 167.539262 
L 293.584968 169.580301 
L 294.489299 176.649069 
L 295.393629 167.797883 
L 296.297959 168.856501 
L 297.202289 166.85383 
L 298.106619 170.220795 
L 299.01095 175.483981 
L 299.91528 173.666422 
L 300.81961 158.984643 
L 301.72394 179.151388 
L 302.62827 175.640697 
L 303.532601 166.222211 
L 304.436931 169.339078 
L 306.245591 171.82832 
L 307.149921 176.041123 
L 308.054252 173.001471 
L 308.958582 179.521609 
L 309.862912 178.253529 
L 310.767242 177.852472 
L 311.671573 174.761194 
L 312.575903 173.969392 
L 313.480233 181.542558 
L 314.384563 174.964447 
L 315.288893 163.053106 
L 316.193224 179.230135 
L 317.097554 173.244482 
L 318.001884 178.541417 
L 318.906214 177.075179 
L 319.810544 163.695594 
L 320.714875 160.637888 
L 321.619205 175.552034 
L 322.523535 175.971906 
L 323.427865 189.35005 
L 324.332195 183.129856 
L 325.236526 170.752465 
L 326.140856 164.795096 
L 327.045186 167.687804 
L 327.949516 173.141978 
L 328.853847 173.775018 
L 329.758177 178.776944 
L 330.662507 177.732504 
L 331.566837 183.151167 
L 332.471167 192.00831 
L 333.375498 186.960441 
L 334.279828 183.697595 
L 335.184158 173.59403 
L 336.088488 180.66066 
L 336.992818 176.277915 
L 337.897149 194.91805 
L 338.801479 169.893105 
L 339.705809 178.934573 
L 340.610139 174.487189 
L 341.514469 178.844428 
L 342.4188 164.543374 
L 343.32313 173.43164 
L 344.22746 176.406009 
L 345.13179 183.083736 
L 346.036121 198.030922 
L 346.940451 171.713419 
L 347.844781 182.344284 
L 348.749111 189.208766 
L 349.653441 186.216278 
L 350.557772 190.339163 
L 351.462102 185.071305 
L 352.366432 188.902108 
L 353.270762 188.793405 
L 354.175092 193.663871 
L 355.079423 191.274325 
L 355.983753 180.216077 
L 356.888083 193.854255 
L 357.792413 194.445002 
L 358.696743 181.194118 
L 359.601074 180.946865 
L 360.505404 192.692864 
L 361.409734 186.702594 
L 362.314064 185.824137 
L 363.218395 197.655868 
L 364.122725 186.724938 
L 365.027055 189.07895 
L 365.931385 185.506123 
L 366.835715 178.622529 
L 367.740046 185.700333 
L 368.644376 178.85139 
L 369.548706 186.68959 
L 370.453036 187.90306 
L 371.357366 191.030018 
L 372.261697 184.263972 
L 373.166027 181.225552 
L 374.070357 186.568735 
L 374.974687 186.44647 
L 375.879017 185.863835 
L 376.783348 199.359592 
L 377.687678 184.911523 
L 378.592008 175.169838 
L 379.496338 195.134805 
L 380.400669 192.522257 
L 381.304999 177.457567 
L 382.209329 195.339018 
L 383.113659 182.509552 
L 384.017989 193.664526 
L 384.92232 184.657333 
L 385.82665 190.090797 
L 386.73098 183.114734 
L 387.63531 178.947085 
L 388.53964 181.715629 
L 389.443971 179.286273 
L 390.348301 195.542421 
L 391.252631 183.771188 
L 392.156961 194.582069 
L 393.061291 183.52068 
L 393.965622 175.448899 
L 394.869952 193.131822 
L 396.678612 170.11162 
L 398.487273 190.219117 
L 398.487273 190.219117 
" style="fill:none;stroke:#2ca02c;stroke-linecap:square;stroke-width:1.5;"/>
   </g>
   <g id="patch_3">
    <path d="M 57.6 307.584 
L 57.6 41.472 
" style="fill:none;stroke:#000000;stroke-linecap:square;stroke-linejoin:miter;stroke-width:0.8;"/>
   </g>
   <g id="patch_4">
    <path d="M 414.72 307.584 
L 414.72 41.472 
" style="fill:none;stroke:#000000;stroke-linecap:square;stroke-linejoin:miter;stroke-width:0.8;"/>
   </g>
   <g id="patch_5">
    <path d="M 57.6 307.584 
L 414.72 307.584 
" style="fill:none;stroke:#000000;stroke-linecap:square;stroke-linejoin:miter;stroke-width:0.8;"/>
   </g>
   <g id="patch_6">
    <path d="M 57.6 41.472 
L 414.72 41.472 
" style="fill:none;stroke:#000000;stroke-linecap:square;stroke-linejoin:miter;stroke-width:0.8;"/>
   </g>
   <g id="legend_1">
    <g id="patch_7">
     <path d="M 67.68 300.384 
L 200.82825 300.384 
Q 203.70825 300.384 203.70825 297.504 
L 203.70825 235.5345 
Q 203.70825 232.6545 200.82825 232.6545 
L 67.68 232.6545 
Q 64.8 232.6545 64.8 235.5345 
L 64.8 297.504 
Q 64.8 300.384 67.68 300.384 
z
" style="fill:#ffffff;opacity:0.8;stroke:#cccccc;stroke-linejoin:miter;"/>
    </g>
    <g id="line2d_34">
     <path d="M 70.56 244.31625 
L 99.36 244.31625 
" style="fill:none;stroke:#1f77b4;stroke-linecap:square;stroke-width:1.5;"/>
    </g>
    <g id="line2d_35"/>
    <g id="text_14">
     <!-- Regression -->
     <g transform="translate(110.88 249.35625)scale(0.144 -0.144)">
      <defs>
       <path d="M 2841 2188 
Q 3044 2119 3236 1894 
Q 3428 1669 3622 1275 
L 4263 0 
L 3584 0 
L 2988 1197 
Q 2756 1666 2539 1819 
Q 2322 1972 1947 1972 
L 1259 1972 
L 1259 0 
L 628 0 
L 628 4666 
L 2053 4666 
Q 2853 4666 3247 4331 
Q 3641 3997 3641 3322 
Q 3641 2881 3436 2590 
Q 3231 2300 2841 2188 
z
M 1259 4147 
L 1259 2491 
L 2053 2491 
Q 2509 2491 2742 2702 
Q 2975 2913 2975 3322 
Q 2975 3731 2742 3939 
Q 2509 4147 2053 4147 
L 1259 4147 
z
" id="DejaVuSans-52" transform="scale(0.015625)"/>
       <path d="M 2834 3397 
L 2834 2853 
Q 2591 2978 2328 3040 
Q 2066 3103 1784 3103 
Q 1356 3103 1142 2972 
Q 928 2841 928 2578 
Q 928 2378 1081 2264 
Q 1234 2150 1697 2047 
L 1894 2003 
Q 2506 1872 2764 1633 
Q 3022 1394 3022 966 
Q 3022 478 2636 193 
Q 2250 -91 1575 -91 
Q 1294 -91 989 -36 
Q 684 19 347 128 
L 347 722 
Q 666 556 975 473 
Q 1284 391 1588 391 
Q 1994 391 2212 530 
Q 2431 669 2431 922 
Q 2431 1156 2273 1281 
Q 2116 1406 1581 1522 
L 1381 1569 
Q 847 1681 609 1914 
Q 372 2147 372 2553 
Q 372 3047 722 3315 
Q 1072 3584 1716 3584 
Q 2034 3584 2315 3537 
Q 2597 3491 2834 3397 
z
" id="DejaVuSans-73" transform="scale(0.015625)"/>
       <path d="M 3513 2113 
L 3513 0 
L 2938 0 
L 2938 2094 
Q 2938 2591 2744 2837 
Q 2550 3084 2163 3084 
Q 1697 3084 1428 2787 
Q 1159 2491 1159 1978 
L 1159 0 
L 581 0 
L 581 3500 
L 1159 3500 
L 1159 2956 
Q 1366 3272 1645 3428 
Q 1925 3584 2291 3584 
Q 2894 3584 3203 3211 
Q 3513 2838 3513 2113 
z
" id="DejaVuSans-6e" transform="scale(0.015625)"/>
      </defs>
      <use xlink:href="#DejaVuSans-52"/>
      <use x="64.982422" xlink:href="#DejaVuSans-65"/>
      <use x="126.505859" xlink:href="#DejaVuSans-67"/>
      <use x="189.982422" xlink:href="#DejaVuSans-72"/>
      <use x="228.845703" xlink:href="#DejaVuSans-65"/>
      <use x="290.369141" xlink:href="#DejaVuSans-73"/>
      <use x="342.46875" xlink:href="#DejaVuSans-73"/>
      <use x="394.568359" xlink:href="#DejaVuSans-69"/>
      <use x="422.351562" xlink:href="#DejaVuSans-6f"/>
      <use x="483.533203" xlink:href="#DejaVuSans-6e"/>
     </g>
    </g>
    <g id="line2d_36">
     <path d="M 70.56 265.45275 
L 99.36 265.45275 
" style="fill:none;stroke:#ff7f0e;stroke-linecap:square;stroke-width:1.5;"/>
    </g>
    <g id="line2d_37"/>
    <g id="text_15">
     <!-- Consistency -->
     <g transform="translate(110.88 270.49275)scale(0.144 -0.144)">
      <defs>
       <path d="M 4122 4306 
L 4122 3641 
Q 3803 3938 3442 4084 
Q 3081 4231 2675 4231 
Q 1875 4231 1450 3742 
Q 1025 3253 1025 2328 
Q 1025 1406 1450 917 
Q 1875 428 2675 428 
Q 3081 428 3442 575 
Q 3803 722 4122 1019 
L 4122 359 
Q 3791 134 3420 21 
Q 3050 -91 2638 -91 
Q 1578 -91 968 557 
Q 359 1206 359 2328 
Q 359 3453 968 4101 
Q 1578 4750 2638 4750 
Q 3056 4750 3426 4639 
Q 3797 4528 4122 4306 
z
" id="DejaVuSans-43" transform="scale(0.015625)"/>
       <path d="M 2059 -325 
Q 1816 -950 1584 -1140 
Q 1353 -1331 966 -1331 
L 506 -1331 
L 506 -850 
L 844 -850 
Q 1081 -850 1212 -737 
Q 1344 -625 1503 -206 
L 1606 56 
L 191 3500 
L 800 3500 
L 1894 763 
L 2988 3500 
L 3597 3500 
L 2059 -325 
z
" id="DejaVuSans-79" transform="scale(0.015625)"/>
      </defs>
      <use xlink:href="#DejaVuSans-43"/>
      <use x="69.824219" xlink:href="#DejaVuSans-6f"/>
      <use x="131.005859" xlink:href="#DejaVuSans-6e"/>
      <use x="194.384766" xlink:href="#DejaVuSans-73"/>
      <use x="246.484375" xlink:href="#DejaVuSans-69"/>
      <use x="274.267578" xlink:href="#DejaVuSans-73"/>
      <use x="326.367188" xlink:href="#DejaVuSans-74"/>
      <use x="365.576172" xlink:href="#DejaVuSans-65"/>
      <use x="427.099609" xlink:href="#DejaVuSans-6e"/>
      <use x="490.478516" xlink:href="#DejaVuSans-63"/>
      <use x="545.458984" xlink:href="#DejaVuSans-79"/>
     </g>
    </g>
    <g id="line2d_38">
     <path d="M 70.56 286.58925 
L 99.36 286.58925 
" style="fill:none;stroke:#2ca02c;stroke-linecap:square;stroke-width:1.5;"/>
    </g>
    <g id="line2d_39"/>
    <g id="text_16">
     <!-- Supervised -->
     <g transform="translate(110.88 291.62925)scale(0.144 -0.144)">
      <defs>
       <path d="M 3425 4513 
L 3425 3897 
Q 3066 4069 2747 4153 
Q 2428 4238 2131 4238 
Q 1616 4238 1336 4038 
Q 1056 3838 1056 3469 
Q 1056 3159 1242 3001 
Q 1428 2844 1947 2747 
L 2328 2669 
Q 3034 2534 3370 2195 
Q 3706 1856 3706 1288 
Q 3706 609 3251 259 
Q 2797 -91 1919 -91 
Q 1588 -91 1214 -16 
Q 841 59 441 206 
L 441 856 
Q 825 641 1194 531 
Q 1563 422 1919 422 
Q 2459 422 2753 634 
Q 3047 847 3047 1241 
Q 3047 1584 2836 1778 
Q 2625 1972 2144 2069 
L 1759 2144 
Q 1053 2284 737 2584 
Q 422 2884 422 3419 
Q 422 4038 858 4394 
Q 1294 4750 2059 4750 
Q 2388 4750 2728 4690 
Q 3069 4631 3425 4513 
z
" id="DejaVuSans-53" transform="scale(0.015625)"/>
       <path d="M 544 1381 
L 544 3500 
L 1119 3500 
L 1119 1403 
Q 1119 906 1312 657 
Q 1506 409 1894 409 
Q 2359 409 2629 706 
Q 2900 1003 2900 1516 
L 2900 3500 
L 3475 3500 
L 3475 0 
L 2900 0 
L 2900 538 
Q 2691 219 2414 64 
Q 2138 -91 1772 -91 
Q 1169 -91 856 284 
Q 544 659 544 1381 
z
M 1991 3584 
L 1991 3584 
z
" id="DejaVuSans-75" transform="scale(0.015625)"/>
       <path d="M 191 3500 
L 800 3500 
L 1894 563 
L 2988 3500 
L 3597 3500 
L 2284 0 
L 1503 0 
L 191 3500 
z
" id="DejaVuSans-76" transform="scale(0.015625)"/>
      </defs>
      <use xlink:href="#DejaVuSans-53"/>
      <use x="63.476562" xlink:href="#DejaVuSans-75"/>
      <use x="126.855469" xlink:href="#DejaVuSans-70"/>
      <use x="190.332031" xlink:href="#DejaVuSans-65"/>
      <use x="251.855469" xlink:href="#DejaVuSans-72"/>
      <use x="292.96875" xlink:href="#DejaVuSans-76"/>
      <use x="352.148438" xlink:href="#DejaVuSans-69"/>
      <use x="379.931641" xlink:href="#DejaVuSans-73"/>
      <use x="432.03125" xlink:href="#DejaVuSans-65"/>
      <use x="493.554688" xlink:href="#DejaVuSans-64"/>
     </g>
    </g>
   </g>
  </g>
 </g>
 <defs>
  <clipPath id="pa2eadcf2e0">
   <rect height="266.112" width="357.12" x="57.6" y="41.472"/>
  </clipPath>
 </defs>
</svg>
