<?xml version="1.0" encoding="utf-8" standalone="no"?>
<!DOCTYPE svg PUBLIC "-//W3C//DTD SVG 1.1//EN"
  "http://www.w3.org/Graphics/SVG/1.1/DTD/svg11.dtd">
<svg height="345.6pt" version="1.1" viewBox="0 0 460.8 345.6" width="460.8pt" xmlns="http://www.w3.org/2000/svg" xmlns:xlink="http://www.w3.org/1999/xlink">
 <metadata>
  <rdf:RDF xmlns:cc="http://creativecommons.org/ns#" xmlns:dc="http://purl.org/dc/elements/1.1/" xmlns:rdf="http://www.w3.org/1999/02/22-rdf-syntax-ns#">
   <cc:Work>
    <dc:type rdf:resource="http://purl.org/dc/dcmitype/StillImage"/>
    <dc:date>2021-07-14T23:42:34.749872</dc:date>
    <dc:format>image/svg+xml</dc:format>
    <dc:creator>
     <cc:Agent>
      <dc:title>Matplotlib v3.4.2, https://matplotlib.org/</dc:title>
     </cc:Agent>
    </dc:creator>
   </cc:Work>
  </rdf:RDF>
 </metadata>
 <defs>
  <style type="text/css">*{stroke-linecap:butt;stroke-linejoin:round;}</style>
 </defs>
 <g id="figure_1">
  <g id="patch_1">
   <path d="M 0 345.6 
L 460.8 345.6 
L 460.8 0 
L 0 0 
z
" style="fill:#ffffff;"/>
  </g>
  <g id="axes_1">
   <g id="patch_2">
    <path d="M 57.6 307.584 
L 414.72 307.584 
L 414.72 41.472 
L 57.6 41.472 
z
" style="fill:#ffffff;"/>
   </g>
   <g id="matplotlib.axis_1">
    <g id="xtick_1">
     <g id="line2d_1">
      <defs>
       <path d="M 0 0 
L 0 3.5 
" id="ma0e7f1b79c" style="stroke:#000000;stroke-width:0.8;"/>
      </defs>
      <g>
       <use style="stroke:#000000;stroke-width:0.8;" x="73.019057" xlink:href="#ma0e7f1b79c" y="307.584"/>
      </g>
     </g>
     <g id="text_1">
      <!-- 0 -->
      <g transform="translate(69.837807 322.182437)scale(0.1 -0.1)">
       <defs>
        <path d="M 2034 4250 
Q 1547 4250 1301 3770 
Q 1056 3291 1056 2328 
Q 1056 1369 1301 889 
Q 1547 409 2034 409 
Q 2525 409 2770 889 
Q 3016 1369 3016 2328 
Q 3016 3291 2770 3770 
Q 2525 4250 2034 4250 
z
M 2034 4750 
Q 2819 4750 3233 4129 
Q 3647 3509 3647 2328 
Q 3647 1150 3233 529 
Q 2819 -91 2034 -91 
Q 1250 -91 836 529 
Q 422 1150 422 2328 
Q 422 3509 836 4129 
Q 1250 4750 2034 4750 
z
" id="DejaVuSans-30" transform="scale(0.015625)"/>
       </defs>
       <use xlink:href="#DejaVuSans-30"/>
      </g>
     </g>
    </g>
    <g id="xtick_2">
     <g id="line2d_2">
      <g>
       <use style="stroke:#000000;stroke-width:0.8;" x="113.702584" xlink:href="#ma0e7f1b79c" y="307.584"/>
      </g>
     </g>
     <g id="text_2">
      <!-- 50 -->
      <g transform="translate(107.340084 322.182437)scale(0.1 -0.1)">
       <defs>
        <path d="M 691 4666 
L 3169 4666 
L 3169 4134 
L 1269 4134 
L 1269 2991 
Q 1406 3038 1543 3061 
Q 1681 3084 1819 3084 
Q 2600 3084 3056 2656 
Q 3513 2228 3513 1497 
Q 3513 744 3044 326 
Q 2575 -91 1722 -91 
Q 1428 -91 1123 -41 
Q 819 9 494 109 
L 494 744 
Q 775 591 1075 516 
Q 1375 441 1709 441 
Q 2250 441 2565 725 
Q 2881 1009 2881 1497 
Q 2881 1984 2565 2268 
Q 2250 2553 1709 2553 
Q 1456 2553 1204 2497 
Q 953 2441 691 2322 
L 691 4666 
z
" id="DejaVuSans-35" transform="scale(0.015625)"/>
       </defs>
       <use xlink:href="#DejaVuSans-35"/>
       <use x="63.623047" xlink:href="#DejaVuSans-30"/>
      </g>
     </g>
    </g>
    <g id="xtick_3">
     <g id="line2d_3">
      <g>
       <use style="stroke:#000000;stroke-width:0.8;" x="154.386111" xlink:href="#ma0e7f1b79c" y="307.584"/>
      </g>
     </g>
     <g id="text_3">
      <!-- 100 -->
      <g transform="translate(144.842361 322.182437)scale(0.1 -0.1)">
       <defs>
        <path d="M 794 531 
L 1825 531 
L 1825 4091 
L 703 3866 
L 703 4441 
L 1819 4666 
L 2450 4666 
L 2450 531 
L 3481 531 
L 3481 0 
L 794 0 
L 794 531 
z
" id="DejaVuSans-31" transform="scale(0.015625)"/>
       </defs>
       <use xlink:href="#DejaVuSans-31"/>
       <use x="63.623047" xlink:href="#DejaVuSans-30"/>
       <use x="127.246094" xlink:href="#DejaVuSans-30"/>
      </g>
     </g>
    </g>
    <g id="xtick_4">
     <g id="line2d_4">
      <g>
       <use style="stroke:#000000;stroke-width:0.8;" x="195.069638" xlink:href="#ma0e7f1b79c" y="307.584"/>
      </g>
     </g>
     <g id="text_4">
      <!-- 150 -->
      <g transform="translate(185.525888 322.182437)scale(0.1 -0.1)">
       <use xlink:href="#DejaVuSans-31"/>
       <use x="63.623047" xlink:href="#DejaVuSans-35"/>
       <use x="127.246094" xlink:href="#DejaVuSans-30"/>
      </g>
     </g>
    </g>
    <g id="xtick_5">
     <g id="line2d_5">
      <g>
       <use style="stroke:#000000;stroke-width:0.8;" x="235.753165" xlink:href="#ma0e7f1b79c" y="307.584"/>
      </g>
     </g>
     <g id="text_5">
      <!-- 200 -->
      <g transform="translate(226.209415 322.182437)scale(0.1 -0.1)">
       <defs>
        <path d="M 1228 531 
L 3431 531 
L 3431 0 
L 469 0 
L 469 531 
Q 828 903 1448 1529 
Q 2069 2156 2228 2338 
Q 2531 2678 2651 2914 
Q 2772 3150 2772 3378 
Q 2772 3750 2511 3984 
Q 2250 4219 1831 4219 
Q 1534 4219 1204 4116 
Q 875 4013 500 3803 
L 500 4441 
Q 881 4594 1212 4672 
Q 1544 4750 1819 4750 
Q 2544 4750 2975 4387 
Q 3406 4025 3406 3419 
Q 3406 3131 3298 2873 
Q 3191 2616 2906 2266 
Q 2828 2175 2409 1742 
Q 1991 1309 1228 531 
z
" id="DejaVuSans-32" transform="scale(0.015625)"/>
       </defs>
       <use xlink:href="#DejaVuSans-32"/>
       <use x="63.623047" xlink:href="#DejaVuSans-30"/>
       <use x="127.246094" xlink:href="#DejaVuSans-30"/>
      </g>
     </g>
    </g>
    <g id="xtick_6">
     <g id="line2d_6">
      <g>
       <use style="stroke:#000000;stroke-width:0.8;" x="276.436692" xlink:href="#ma0e7f1b79c" y="307.584"/>
      </g>
     </g>
     <g id="text_6">
      <!-- 250 -->
      <g transform="translate(266.892942 322.182437)scale(0.1 -0.1)">
       <use xlink:href="#DejaVuSans-32"/>
       <use x="63.623047" xlink:href="#DejaVuSans-35"/>
       <use x="127.246094" xlink:href="#DejaVuSans-30"/>
      </g>
     </g>
    </g>
    <g id="xtick_7">
     <g id="line2d_7">
      <g>
       <use style="stroke:#000000;stroke-width:0.8;" x="317.120219" xlink:href="#ma0e7f1b79c" y="307.584"/>
      </g>
     </g>
     <g id="text_7">
      <!-- 300 -->
      <g transform="translate(307.576469 322.182437)scale(0.1 -0.1)">
       <defs>
        <path d="M 2597 2516 
Q 3050 2419 3304 2112 
Q 3559 1806 3559 1356 
Q 3559 666 3084 287 
Q 2609 -91 1734 -91 
Q 1441 -91 1130 -33 
Q 819 25 488 141 
L 488 750 
Q 750 597 1062 519 
Q 1375 441 1716 441 
Q 2309 441 2620 675 
Q 2931 909 2931 1356 
Q 2931 1769 2642 2001 
Q 2353 2234 1838 2234 
L 1294 2234 
L 1294 2753 
L 1863 2753 
Q 2328 2753 2575 2939 
Q 2822 3125 2822 3475 
Q 2822 3834 2567 4026 
Q 2313 4219 1838 4219 
Q 1578 4219 1281 4162 
Q 984 4106 628 3988 
L 628 4550 
Q 988 4650 1302 4700 
Q 1616 4750 1894 4750 
Q 2613 4750 3031 4423 
Q 3450 4097 3450 3541 
Q 3450 3153 3228 2886 
Q 3006 2619 2597 2516 
z
" id="DejaVuSans-33" transform="scale(0.015625)"/>
       </defs>
       <use xlink:href="#DejaVuSans-33"/>
       <use x="63.623047" xlink:href="#DejaVuSans-30"/>
       <use x="127.246094" xlink:href="#DejaVuSans-30"/>
      </g>
     </g>
    </g>
    <g id="xtick_8">
     <g id="line2d_8">
      <g>
       <use style="stroke:#000000;stroke-width:0.8;" x="357.803746" xlink:href="#ma0e7f1b79c" y="307.584"/>
      </g>
     </g>
     <g id="text_8">
      <!-- 350 -->
      <g transform="translate(348.259996 322.182437)scale(0.1 -0.1)">
       <use xlink:href="#DejaVuSans-33"/>
       <use x="63.623047" xlink:href="#DejaVuSans-35"/>
       <use x="127.246094" xlink:href="#DejaVuSans-30"/>
      </g>
     </g>
    </g>
    <g id="xtick_9">
     <g id="line2d_9">
      <g>
       <use style="stroke:#000000;stroke-width:0.8;" x="398.487273" xlink:href="#ma0e7f1b79c" y="307.584"/>
      </g>
     </g>
     <g id="text_9">
      <!-- 400 -->
      <g transform="translate(388.943523 322.182437)scale(0.1 -0.1)">
       <defs>
        <path d="M 2419 4116 
L 825 1625 
L 2419 1625 
L 2419 4116 
z
M 2253 4666 
L 3047 4666 
L 3047 1625 
L 3713 1625 
L 3713 1100 
L 3047 1100 
L 3047 0 
L 2419 0 
L 2419 1100 
L 313 1100 
L 313 1709 
L 2253 4666 
z
" id="DejaVuSans-34" transform="scale(0.015625)"/>
       </defs>
       <use xlink:href="#DejaVuSans-34"/>
       <use x="63.623047" xlink:href="#DejaVuSans-30"/>
       <use x="127.246094" xlink:href="#DejaVuSans-30"/>
      </g>
     </g>
    </g>
    <g id="text_10">
     <!-- Epoch -->
     <g transform="translate(213.193594 339.659781)scale(0.15 -0.15)">
      <defs>
       <path d="M 628 4666 
L 3578 4666 
L 3578 4134 
L 1259 4134 
L 1259 2753 
L 3481 2753 
L 3481 2222 
L 1259 2222 
L 1259 531 
L 3634 531 
L 3634 0 
L 628 0 
L 628 4666 
z
" id="DejaVuSans-45" transform="scale(0.015625)"/>
       <path d="M 1159 525 
L 1159 -1331 
L 581 -1331 
L 581 3500 
L 1159 3500 
L 1159 2969 
Q 1341 3281 1617 3432 
Q 1894 3584 2278 3584 
Q 2916 3584 3314 3078 
Q 3713 2572 3713 1747 
Q 3713 922 3314 415 
Q 2916 -91 2278 -91 
Q 1894 -91 1617 61 
Q 1341 213 1159 525 
z
M 3116 1747 
Q 3116 2381 2855 2742 
Q 2594 3103 2138 3103 
Q 1681 3103 1420 2742 
Q 1159 2381 1159 1747 
Q 1159 1113 1420 752 
Q 1681 391 2138 391 
Q 2594 391 2855 752 
Q 3116 1113 3116 1747 
z
" id="DejaVuSans-70" transform="scale(0.015625)"/>
       <path d="M 1959 3097 
Q 1497 3097 1228 2736 
Q 959 2375 959 1747 
Q 959 1119 1226 758 
Q 1494 397 1959 397 
Q 2419 397 2687 759 
Q 2956 1122 2956 1747 
Q 2956 2369 2687 2733 
Q 2419 3097 1959 3097 
z
M 1959 3584 
Q 2709 3584 3137 3096 
Q 3566 2609 3566 1747 
Q 3566 888 3137 398 
Q 2709 -91 1959 -91 
Q 1206 -91 779 398 
Q 353 888 353 1747 
Q 353 2609 779 3096 
Q 1206 3584 1959 3584 
z
" id="DejaVuSans-6f" transform="scale(0.015625)"/>
       <path d="M 3122 3366 
L 3122 2828 
Q 2878 2963 2633 3030 
Q 2388 3097 2138 3097 
Q 1578 3097 1268 2742 
Q 959 2388 959 1747 
Q 959 1106 1268 751 
Q 1578 397 2138 397 
Q 2388 397 2633 464 
Q 2878 531 3122 666 
L 3122 134 
Q 2881 22 2623 -34 
Q 2366 -91 2075 -91 
Q 1284 -91 818 406 
Q 353 903 353 1747 
Q 353 2603 823 3093 
Q 1294 3584 2113 3584 
Q 2378 3584 2631 3529 
Q 2884 3475 3122 3366 
z
" id="DejaVuSans-63" transform="scale(0.015625)"/>
       <path d="M 3513 2113 
L 3513 0 
L 2938 0 
L 2938 2094 
Q 2938 2591 2744 2837 
Q 2550 3084 2163 3084 
Q 1697 3084 1428 2787 
Q 1159 2491 1159 1978 
L 1159 0 
L 581 0 
L 581 4863 
L 1159 4863 
L 1159 2956 
Q 1366 3272 1645 3428 
Q 1925 3584 2291 3584 
Q 2894 3584 3203 3211 
Q 3513 2838 3513 2113 
z
" id="DejaVuSans-68" transform="scale(0.015625)"/>
      </defs>
      <use xlink:href="#DejaVuSans-45"/>
      <use x="63.183594" xlink:href="#DejaVuSans-70"/>
      <use x="126.660156" xlink:href="#DejaVuSans-6f"/>
      <use x="187.841797" xlink:href="#DejaVuSans-63"/>
      <use x="242.822266" xlink:href="#DejaVuSans-68"/>
     </g>
    </g>
   </g>
   <g id="matplotlib.axis_2">
    <g id="ytick_1">
     <g id="line2d_10">
      <defs>
       <path d="M 0 0 
L -3.5 0 
" id="m689aad9524" style="stroke:#000000;stroke-width:0.8;"/>
      </defs>
      <g>
       <use style="stroke:#000000;stroke-width:0.8;" x="57.6" xlink:href="#m689aad9524" y="296.802045"/>
      </g>
     </g>
     <g id="text_11">
      <!-- −1200 -->
      <g transform="translate(16.770313 300.601264)scale(0.1 -0.1)">
       <defs>
        <path d="M 678 2272 
L 4684 2272 
L 4684 1741 
L 678 1741 
L 678 2272 
z
" id="DejaVuSans-2212" transform="scale(0.015625)"/>
       </defs>
       <use xlink:href="#DejaVuSans-2212"/>
       <use x="83.789062" xlink:href="#DejaVuSans-31"/>
       <use x="147.412109" xlink:href="#DejaVuSans-32"/>
       <use x="211.035156" xlink:href="#DejaVuSans-30"/>
       <use x="274.658203" xlink:href="#DejaVuSans-30"/>
      </g>
     </g>
    </g>
    <g id="ytick_2">
     <g id="line2d_11">
      <g>
       <use style="stroke:#000000;stroke-width:0.8;" x="57.6" xlink:href="#m689aad9524" y="253.98512"/>
      </g>
     </g>
     <g id="text_12">
      <!-- −1000 -->
      <g transform="translate(16.770313 257.784339)scale(0.1 -0.1)">
       <use xlink:href="#DejaVuSans-2212"/>
       <use x="83.789062" xlink:href="#DejaVuSans-31"/>
       <use x="147.412109" xlink:href="#DejaVuSans-30"/>
       <use x="211.035156" xlink:href="#DejaVuSans-30"/>
       <use x="274.658203" xlink:href="#DejaVuSans-30"/>
      </g>
     </g>
    </g>
    <g id="ytick_3">
     <g id="line2d_12">
      <g>
       <use style="stroke:#000000;stroke-width:0.8;" x="57.6" xlink:href="#m689aad9524" y="211.168196"/>
      </g>
     </g>
     <g id="text_13">
      <!-- −800 -->
      <g transform="translate(23.132812 214.967415)scale(0.1 -0.1)">
       <defs>
        <path d="M 2034 2216 
Q 1584 2216 1326 1975 
Q 1069 1734 1069 1313 
Q 1069 891 1326 650 
Q 1584 409 2034 409 
Q 2484 409 2743 651 
Q 3003 894 3003 1313 
Q 3003 1734 2745 1975 
Q 2488 2216 2034 2216 
z
M 1403 2484 
Q 997 2584 770 2862 
Q 544 3141 544 3541 
Q 544 4100 942 4425 
Q 1341 4750 2034 4750 
Q 2731 4750 3128 4425 
Q 3525 4100 3525 3541 
Q 3525 3141 3298 2862 
Q 3072 2584 2669 2484 
Q 3125 2378 3379 2068 
Q 3634 1759 3634 1313 
Q 3634 634 3220 271 
Q 2806 -91 2034 -91 
Q 1263 -91 848 271 
Q 434 634 434 1313 
Q 434 1759 690 2068 
Q 947 2378 1403 2484 
z
M 1172 3481 
Q 1172 3119 1398 2916 
Q 1625 2713 2034 2713 
Q 2441 2713 2670 2916 
Q 2900 3119 2900 3481 
Q 2900 3844 2670 4047 
Q 2441 4250 2034 4250 
Q 1625 4250 1398 4047 
Q 1172 3844 1172 3481 
z
" id="DejaVuSans-38" transform="scale(0.015625)"/>
       </defs>
       <use xlink:href="#DejaVuSans-2212"/>
       <use x="83.789062" xlink:href="#DejaVuSans-38"/>
       <use x="147.412109" xlink:href="#DejaVuSans-30"/>
       <use x="211.035156" xlink:href="#DejaVuSans-30"/>
      </g>
     </g>
    </g>
    <g id="ytick_4">
     <g id="line2d_13">
      <g>
       <use style="stroke:#000000;stroke-width:0.8;" x="57.6" xlink:href="#m689aad9524" y="168.351271"/>
      </g>
     </g>
     <g id="text_14">
      <!-- −600 -->
      <g transform="translate(23.132812 172.15049)scale(0.1 -0.1)">
       <defs>
        <path d="M 2113 2584 
Q 1688 2584 1439 2293 
Q 1191 2003 1191 1497 
Q 1191 994 1439 701 
Q 1688 409 2113 409 
Q 2538 409 2786 701 
Q 3034 994 3034 1497 
Q 3034 2003 2786 2293 
Q 2538 2584 2113 2584 
z
M 3366 4563 
L 3366 3988 
Q 3128 4100 2886 4159 
Q 2644 4219 2406 4219 
Q 1781 4219 1451 3797 
Q 1122 3375 1075 2522 
Q 1259 2794 1537 2939 
Q 1816 3084 2150 3084 
Q 2853 3084 3261 2657 
Q 3669 2231 3669 1497 
Q 3669 778 3244 343 
Q 2819 -91 2113 -91 
Q 1303 -91 875 529 
Q 447 1150 447 2328 
Q 447 3434 972 4092 
Q 1497 4750 2381 4750 
Q 2619 4750 2861 4703 
Q 3103 4656 3366 4563 
z
" id="DejaVuSans-36" transform="scale(0.015625)"/>
       </defs>
       <use xlink:href="#DejaVuSans-2212"/>
       <use x="83.789062" xlink:href="#DejaVuSans-36"/>
       <use x="147.412109" xlink:href="#DejaVuSans-30"/>
       <use x="211.035156" xlink:href="#DejaVuSans-30"/>
      </g>
     </g>
    </g>
    <g id="ytick_5">
     <g id="line2d_14">
      <g>
       <use style="stroke:#000000;stroke-width:0.8;" x="57.6" xlink:href="#m689aad9524" y="125.534347"/>
      </g>
     </g>
     <g id="text_15">
      <!-- −400 -->
      <g transform="translate(23.132812 129.333566)scale(0.1 -0.1)">
       <use xlink:href="#DejaVuSans-2212"/>
       <use x="83.789062" xlink:href="#DejaVuSans-34"/>
       <use x="147.412109" xlink:href="#DejaVuSans-30"/>
       <use x="211.035156" xlink:href="#DejaVuSans-30"/>
      </g>
     </g>
    </g>
    <g id="ytick_6">
     <g id="line2d_15">
      <g>
       <use style="stroke:#000000;stroke-width:0.8;" x="57.6" xlink:href="#m689aad9524" y="82.717422"/>
      </g>
     </g>
     <g id="text_16">
      <!-- −200 -->
      <g transform="translate(23.132812 86.516641)scale(0.1 -0.1)">
       <use xlink:href="#DejaVuSans-2212"/>
       <use x="83.789062" xlink:href="#DejaVuSans-32"/>
       <use x="147.412109" xlink:href="#DejaVuSans-30"/>
       <use x="211.035156" xlink:href="#DejaVuSans-30"/>
      </g>
     </g>
    </g>
    <g id="text_17">
     <!-- Loss -->
     <g transform="translate(9.650781 190.978781)rotate(-90)scale(0.15 -0.15)">
      <defs>
       <path d="M 628 4666 
L 1259 4666 
L 1259 531 
L 3531 531 
L 3531 0 
L 628 0 
L 628 4666 
z
" id="DejaVuSans-4c" transform="scale(0.015625)"/>
       <path d="M 2834 3397 
L 2834 2853 
Q 2591 2978 2328 3040 
Q 2066 3103 1784 3103 
Q 1356 3103 1142 2972 
Q 928 2841 928 2578 
Q 928 2378 1081 2264 
Q 1234 2150 1697 2047 
L 1894 2003 
Q 2506 1872 2764 1633 
Q 3022 1394 3022 966 
Q 3022 478 2636 193 
Q 2250 -91 1575 -91 
Q 1294 -91 989 -36 
Q 684 19 347 128 
L 347 722 
Q 666 556 975 473 
Q 1284 391 1588 391 
Q 1994 391 2212 530 
Q 2431 669 2431 922 
Q 2431 1156 2273 1281 
Q 2116 1406 1581 1522 
L 1381 1569 
Q 847 1681 609 1914 
Q 372 2147 372 2553 
Q 372 3047 722 3315 
Q 1072 3584 1716 3584 
Q 2034 3584 2315 3537 
Q 2597 3491 2834 3397 
z
" id="DejaVuSans-73" transform="scale(0.015625)"/>
      </defs>
      <use xlink:href="#DejaVuSans-4c"/>
      <use x="53.962891" xlink:href="#DejaVuSans-6f"/>
      <use x="115.144531" xlink:href="#DejaVuSans-73"/>
      <use x="167.244141" xlink:href="#DejaVuSans-73"/>
     </g>
    </g>
   </g>
   <g id="line2d_16">
    <path clip-path="url(#p857808114b)" d="M 73.832727 53.568 
L 74.646398 106.662149 
L 75.460068 118.697815 
L 76.273739 119.111567 
L 77.087409 122.626608 
L 77.90108 130.06714 
L 78.714751 145.050503 
L 79.528421 143.387686 
L 80.342092 146.031178 
L 81.155762 154.277714 
L 81.969433 149.301419 
L 82.783103 167.504721 
L 83.596774 162.504763 
L 84.410444 168.947286 
L 85.224115 195.606907 
L 86.037785 206.080297 
L 86.851456 190.831618 
L 87.665126 205.324902 
L 88.478797 207.988653 
L 89.292468 203.271139 
L 90.106138 206.649348 
L 90.919809 221.711994 
L 91.733479 216.546356 
L 92.54715 226.753217 
L 93.36082 199.714448 
L 94.174491 218.574729 
L 94.988161 220.939985 
L 95.801832 228.196974 
L 96.615502 218.78596 
L 97.429173 224.869431 
L 98.242843 226.663492 
L 99.056514 227.936761 
L 99.870185 239.182721 
L 100.683855 238.221567 
L 101.497526 220.439558 
L 102.311196 233.961743 
L 103.124867 242.179976 
L 103.938537 228.154333 
L 104.752208 224.98922 
L 105.565878 240.563844 
L 106.379549 238.81284 
L 107.193219 235.158701 
L 108.00689 236.795318 
L 108.82056 235.239038 
L 109.634231 241.250891 
L 110.447902 245.100511 
L 111.261572 246.853251 
L 112.075243 240.230115 
L 112.888913 251.856868 
L 113.702584 242.825846 
L 114.516254 246.027541 
L 115.329925 239.104476 
L 116.143595 261.274023 
L 116.957266 255.743095 
L 117.770936 246.795309 
L 118.584607 251.424857 
L 119.398278 254.218285 
L 120.211948 248.778296 
L 121.025619 248.753878 
L 121.839289 246.84786 
L 122.65296 256.018981 
L 123.46663 257.378809 
L 124.280301 241.357784 
L 125.093971 230.005461 
L 125.907642 243.052215 
L 126.721312 239.257751 
L 127.534983 251.293461 
L 128.348653 250.93804 
L 129.162324 249.151476 
L 129.975995 238.20753 
L 130.789665 256.650451 
L 131.603336 245.979531 
L 132.417006 241.648443 
L 133.230677 251.154311 
L 134.044347 233.938874 
L 134.858018 247.69941 
L 135.671688 257.078709 
L 136.485359 249.239894 
L 137.299029 247.439764 
L 138.1127 245.970205 
L 138.92637 255.029045 
L 139.740041 242.881429 
L 140.553712 249.998507 
L 141.367382 244.415548 
L 142.181053 240.6736 
L 142.994723 239.762893 
L 143.808394 243.6644 
L 144.622064 257.554317 
L 145.435735 262.350769 
L 146.249405 252.164955 
L 147.063076 237.070352 
L 147.876746 250.361149 
L 148.690417 245.881845 
L 149.504087 255.170588 
L 150.317758 242.719952 
L 151.131429 252.150863 
L 151.945099 259.885762 
L 152.75877 251.248384 
L 153.57244 246.702666 
L 154.386111 247.072328 
L 155.199781 240.846673 
L 156.013452 245.981471 
L 156.827122 256.203039 
L 157.640793 249.292642 
L 158.454463 248.965858 
L 159.268134 246.934395 
L 160.081805 264.301572 
L 160.895475 248.120892 
L 161.709146 259.032161 
L 162.522816 243.743823 
L 163.336487 257.95087 
L 164.150157 253.248411 
L 164.963828 244.668736 
L 165.777498 257.048261 
L 166.591169 255.426203 
L 167.404839 262.60645 
L 168.21851 242.558997 
L 169.03218 251.427083 
L 169.845851 241.398496 
L 170.659522 256.454869 
L 171.473192 260.277841 
L 172.286863 256.699904 
L 173.100533 251.909328 
L 173.914204 253.458903 
L 174.727874 254.75703 
L 175.541545 262.838725 
L 176.355215 252.076586 
L 177.168886 244.535393 
L 177.982556 251.083035 
L 178.796227 259.537419 
L 179.609897 250.968337 
L 180.423568 256.326492 
L 181.237239 254.910103 
L 182.050909 255.882309 
L 182.86458 260.128133 
L 183.67825 248.96824 
L 184.491921 258.966129 
L 185.305591 260.393183 
L 186.119262 259.749322 
L 186.932932 254.979372 
L 187.746603 267.73146 
L 188.560273 256.940771 
L 189.373944 267.366554 
L 190.187614 259.353379 
L 191.001285 269.454044 
L 191.814956 259.88446 
L 192.628626 259.733817 
L 193.442297 254.339856 
L 194.255967 260.427211 
L 195.069638 251.407645 
L 195.883308 254.265838 
L 196.696979 268.034352 
L 197.510649 252.913916 
L 198.32432 264.659707 
L 199.13799 252.138771 
L 199.951661 266.213394 
L 200.765332 253.253639 
L 201.579002 262.627067 
L 202.392673 252.861494 
L 203.206343 252.223647 
L 204.020014 263.155057 
L 204.833684 257.086357 
L 205.647355 256.311836 
L 206.461025 264.730009 
L 207.274696 265.700395 
L 208.088366 263.547486 
L 208.902037 254.263052 
L 209.715707 257.61364 
L 211.343049 263.404172 
L 212.156719 258.691062 
L 212.97039 267.72938 
L 213.78406 254.989286 
L 214.597731 264.499718 
L 215.411401 256.415365 
L 216.225072 251.732799 
L 217.038742 263.504188 
L 217.852413 271.860943 
L 218.666083 254.396083 
L 219.479754 269.363868 
L 220.293424 266.588134 
L 221.107095 277.897702 
L 221.920766 264.765651 
L 222.734436 266.074377 
L 223.548107 259.422133 
L 224.361777 261.292561 
L 225.175448 262.51953 
L 226.802789 256.182971 
L 227.616459 260.204882 
L 228.43013 265.698891 
L 229.2438 264.110399 
L 230.057471 259.837993 
L 230.871141 256.286149 
L 231.684812 263.646331 
L 232.498483 258.150879 
L 233.312153 269.544906 
L 234.125824 273.465166 
L 234.939494 260.322197 
L 235.753165 253.052728 
L 236.566835 257.73631 
L 237.380506 264.847139 
L 238.194176 268.129613 
L 239.007847 260.094835 
L 239.821517 256.991435 
L 240.635188 250.174944 
L 241.448859 265.660393 
L 242.262529 260.174562 
L 243.0762 264.333632 
L 243.88987 272.036147 
L 244.703541 261.142362 
L 245.517211 263.804816 
L 246.330882 273.866226 
L 247.144552 266.789743 
L 247.958223 261.680914 
L 248.771893 261.104041 
L 249.585564 269.968377 
L 250.399234 257.934278 
L 251.212905 260.575955 
L 252.026576 266.029929 
L 252.840246 258.996195 
L 253.653917 267.312767 
L 254.467587 255.084888 
L 255.281258 272.052332 
L 256.094928 263.106186 
L 256.908599 264.041947 
L 257.722269 255.252035 
L 258.53594 263.891515 
L 259.34961 264.893098 
L 260.163281 266.187987 
L 260.976951 253.306074 
L 261.790622 254.034249 
L 262.604293 254.608474 
L 263.417963 267.704286 
L 264.231634 266.713032 
L 265.045304 263.537455 
L 265.858975 264.774467 
L 266.672645 265.39182 
L 267.486316 269.565493 
L 268.299986 259.402531 
L 269.113657 270.170962 
L 269.927327 257.675098 
L 270.740998 270.243628 
L 271.554668 262.618037 
L 272.368339 270.444494 
L 273.18201 260.146233 
L 273.99568 272.375889 
L 274.809351 249.994478 
L 275.623021 256.731673 
L 276.436692 276.641472 
L 278.064033 261.071475 
L 278.877703 269.058494 
L 279.691374 271.475827 
L 280.505044 265.013671 
L 281.318715 275.471193 
L 282.132386 262.207994 
L 282.946056 266.576015 
L 283.759727 264.980259 
L 284.573397 265.785567 
L 285.387068 264.32001 
L 286.200738 264.107677 
L 287.014409 269.597129 
L 287.828079 269.802837 
L 288.64175 260.164585 
L 289.45542 261.285334 
L 290.269091 271.910469 
L 291.082761 266.354475 
L 291.896432 267.299106 
L 292.710103 274.71393 
L 293.523773 261.586816 
L 294.337444 268.273257 
L 295.151114 276.892001 
L 295.964785 258.741509 
L 296.778455 252.922061 
L 297.592126 279.39139 
L 298.405796 258.854168 
L 299.219467 264.150422 
L 300.033137 264.788076 
L 300.846808 260.586777 
L 301.660478 265.746087 
L 302.474149 276.39345 
L 303.28782 262.813296 
L 304.10149 262.654255 
L 304.915161 278.079715 
L 305.728831 273.567714 
L 307.356172 267.492815 
L 308.169843 277.96502 
L 308.983513 270.603939 
L 309.797184 260.184249 
L 310.610854 264.550849 
L 311.424525 264.790445 
L 312.238195 270.148517 
L 313.051866 264.130784 
L 314.679207 285.276908 
L 315.492878 267.479581 
L 316.306548 277.388707 
L 317.120219 278.452233 
L 317.933889 283.967068 
L 318.74756 261.601232 
L 319.56123 270.459447 
L 320.374901 273.31853 
L 321.188571 263.503285 
L 322.002242 275.531757 
L 322.815913 261.820016 
L 323.629583 276.193356 
L 324.443254 277.076697 
L 325.256924 267.890467 
L 326.070595 270.67432 
L 326.884265 267.882238 
L 327.697936 266.198093 
L 328.511606 269.919079 
L 329.325277 280.189887 
L 330.138947 260.202743 
L 330.952618 269.406788 
L 331.766288 277.001205 
L 332.579959 268.38307 
L 333.39363 275.78213 
L 334.2073 274.139415 
L 335.020971 278.644414 
L 335.834641 288.43835 
L 336.648312 276.368018 
L 337.461982 269.630475 
L 338.275653 276.717208 
L 339.089323 279.269697 
L 339.902994 277.65726 
L 340.716664 278.890336 
L 341.530335 270.363657 
L 342.344005 282.995542 
L 343.157676 283.433222 
L 343.971347 285.126128 
L 344.785017 273.075264 
L 345.598688 265.116296 
L 346.412358 270.128733 
L 347.226029 270.383294 
L 348.039699 266.332752 
L 348.85337 278.700335 
L 349.66704 268.662413 
L 350.480711 261.706333 
L 351.294381 279.36607 
L 352.108052 280.545111 
L 352.921722 276.913848 
L 353.735393 270.644388 
L 354.549064 277.289067 
L 355.362734 273.175603 
L 356.176405 264.513224 
L 356.990075 277.712147 
L 357.803746 279.780138 
L 358.617416 283.496976 
L 359.431087 271.415644 
L 360.244757 275.801366 
L 361.058428 276.794552 
L 361.872098 280.764269 
L 362.685769 256.430679 
L 363.49944 273.450018 
L 364.31311 269.22127 
L 365.126781 276.716174 
L 365.940451 267.664675 
L 366.754122 266.745272 
L 367.567792 278.046855 
L 368.381463 280.520138 
L 369.195133 267.423313 
L 370.008804 266.638114 
L 370.822474 285.307117 
L 371.636145 276.495612 
L 372.449815 276.928481 
L 373.263486 272.664202 
L 374.077157 275.263108 
L 374.890827 278.927746 
L 375.704498 263.397209 
L 376.518168 265.777758 
L 377.331839 270.582226 
L 378.145509 276.609045 
L 378.95918 276.813731 
L 379.77285 262.652322 
L 380.586521 276.801101 
L 381.400191 271.980685 
L 382.213862 269.903208 
L 383.027532 265.465386 
L 383.841203 286.753105 
L 384.654874 275.408259 
L 385.468544 283.005701 
L 386.282215 272.835128 
L 387.095885 278.994388 
L 387.909556 288.046109 
L 388.723226 274.169797 
L 389.536897 281.797285 
L 390.350567 267.759978 
L 391.164238 269.628197 
L 391.977908 283.067284 
L 392.791579 284.812419 
L 393.605249 267.743808 
L 394.41892 279.075549 
L 395.232591 266.98568 
L 396.046261 283.983018 
L 396.859932 276.429074 
L 397.673602 281.426013 
L 398.487273 274.263281 
L 398.487273 274.263281 
" style="fill:none;stroke:#1f77b4;stroke-linecap:square;stroke-width:1.5;"/>
   </g>
   <g id="line2d_17">
    <path clip-path="url(#p857808114b)" d="M 73.832727 109.883982 
L 74.646398 120.745452 
L 75.460068 128.466678 
L 76.273739 132.850332 
L 77.087409 128.719286 
L 77.90108 123.479283 
L 78.714751 153.511686 
L 79.528421 142.821153 
L 80.342092 157.748968 
L 81.155762 153.280839 
L 81.969433 157.336673 
L 82.783103 163.882337 
L 83.596774 179.141373 
L 84.410444 188.202482 
L 85.224115 154.108065 
L 86.037785 185.869635 
L 86.851456 191.081699 
L 87.665126 179.053714 
L 88.478797 198.961064 
L 89.292468 200.667524 
L 90.106138 209.480037 
L 90.919809 215.053268 
L 91.733479 202.075436 
L 92.54715 226.763355 
L 93.36082 220.983177 
L 94.174491 222.273851 
L 94.988161 218.550098 
L 95.801832 219.625722 
L 96.615502 234.065042 
L 97.429173 235.866572 
L 98.242843 206.500963 
L 99.056514 226.406513 
L 99.870185 242.969325 
L 100.683855 240.539233 
L 101.497526 216.708687 
L 102.311196 232.066367 
L 103.124867 239.977371 
L 103.938537 229.397216 
L 104.752208 236.175885 
L 105.565878 239.92985 
L 106.379549 237.972157 
L 107.193219 247.007735 
L 108.00689 237.2299 
L 108.82056 233.978158 
L 109.634231 237.919378 
L 110.447902 238.149448 
L 111.261572 245.688472 
L 112.075243 232.066284 
L 112.888913 246.926211 
L 113.702584 248.365724 
L 114.516254 243.96009 
L 115.329925 250.980177 
L 116.143595 243.672217 
L 116.957266 250.475021 
L 117.770936 244.134452 
L 118.584607 244.630782 
L 119.398278 244.905171 
L 120.211948 234.190299 
L 121.025619 236.722162 
L 121.839289 259.563012 
L 122.65296 237.388996 
L 123.46663 256.946684 
L 124.280301 240.957781 
L 125.093971 248.460935 
L 125.907642 245.840753 
L 126.721312 258.200344 
L 127.534983 240.364467 
L 128.348653 230.233699 
L 129.162324 239.852464 
L 129.975995 218.416941 
L 130.789665 247.386584 
L 131.603336 246.445168 
L 132.417006 250.482553 
L 133.230677 242.047511 
L 134.044347 244.753405 
L 134.858018 229.740578 
L 135.671688 235.424887 
L 136.485359 261.326737 
L 138.1127 237.955532 
L 138.92637 256.315801 
L 139.740041 257.610034 
L 140.553712 251.758782 
L 141.367382 227.995993 
L 142.181053 241.818422 
L 142.994723 244.57136 
L 143.808394 237.595471 
L 144.622064 246.728477 
L 145.435735 252.45654 
L 146.249405 236.472784 
L 147.063076 243.998878 
L 147.876746 248.355526 
L 148.690417 258.087245 
L 149.504087 243.441714 
L 150.317758 248.836471 
L 151.131429 234.587413 
L 151.945099 253.322001 
L 152.75877 248.619288 
L 153.57244 260.396044 
L 154.386111 255.482326 
L 155.199781 239.344632 
L 156.013452 255.415403 
L 156.827122 254.492639 
L 157.640793 247.700163 
L 158.454463 249.129122 
L 159.268134 238.787303 
L 160.081805 262.646961 
L 160.895475 240.394877 
L 161.709146 246.012585 
L 162.522816 247.902627 
L 163.336487 246.27545 
L 164.150157 246.062073 
L 164.963828 262.731743 
L 165.777498 260.125253 
L 166.591169 254.790284 
L 167.404839 240.109716 
L 168.21851 265.392449 
L 169.03218 235.607181 
L 169.845851 252.049315 
L 170.659522 259.141437 
L 171.473192 264.998477 
L 172.286863 242.059388 
L 173.100533 246.057623 
L 173.914204 247.851657 
L 174.727874 251.258097 
L 175.541545 269.348724 
L 176.355215 258.458519 
L 177.168886 251.258683 
L 177.982556 245.126661 
L 178.796227 244.698354 
L 179.609897 256.404082 
L 180.423568 260.642741 
L 181.237239 246.62324 
L 182.050909 253.121647 
L 182.86458 243.683955 
L 183.67825 267.492291 
L 184.491921 249.482395 
L 185.305591 269.07668 
L 186.119262 257.877068 
L 186.932932 261.854142 
L 187.746603 274.04423 
L 188.560273 251.226008 
L 189.373944 253.693355 
L 191.001285 274.520017 
L 191.814956 241.300642 
L 192.628626 253.423263 
L 193.442297 255.360245 
L 194.255967 247.081567 
L 195.069638 242.437399 
L 195.883308 255.537296 
L 196.696979 265.029737 
L 197.510649 240.717165 
L 198.32432 265.340442 
L 199.13799 259.594539 
L 199.951661 263.784915 
L 200.765332 249.150147 
L 201.579002 249.34528 
L 202.392673 267.718047 
L 203.206343 252.758259 
L 204.020014 260.131157 
L 204.833684 263.615801 
L 205.647355 262.899887 
L 206.461025 263.713928 
L 207.274696 273.421901 
L 208.088366 261.556353 
L 208.902037 272.120841 
L 209.715707 246.542878 
L 210.529378 250.845133 
L 211.343049 262.002981 
L 212.156719 265.131334 
L 212.97039 239.075054 
L 213.78406 259.385573 
L 214.597731 271.342977 
L 215.411401 239.699504 
L 216.225072 249.711078 
L 217.038742 256.473162 
L 217.852413 252.910363 
L 218.666083 259.331024 
L 219.479754 257.05638 
L 220.293424 271.862156 
L 221.920766 254.51333 
L 222.734436 257.644563 
L 223.548107 261.302782 
L 224.361777 250.114927 
L 225.175448 275.078016 
L 225.989118 265.197808 
L 227.616459 253.743328 
L 228.43013 255.275223 
L 229.2438 264.503485 
L 230.057471 251.046541 
L 230.871141 254.612974 
L 231.684812 241.251643 
L 232.498483 261.739361 
L 233.312153 273.806014 
L 234.125824 272.320764 
L 234.939494 259.975097 
L 235.753165 266.201486 
L 236.566835 290.658995 
L 237.380506 250.041983 
L 238.194176 267.293089 
L 239.007847 276.158459 
L 239.821517 263.928032 
L 240.635188 256.405691 
L 241.448859 261.961585 
L 242.262529 276.963615 
L 243.0762 254.060735 
L 243.88987 261.21779 
L 244.703541 255.381485 
L 245.517211 239.531951 
L 246.330882 282.405397 
L 247.144552 253.043077 
L 247.958223 281.468896 
L 248.771893 259.149991 
L 249.585564 267.730033 
L 250.399234 262.043684 
L 251.212905 272.501117 
L 252.026576 256.863427 
L 252.840246 253.318463 
L 253.653917 254.875548 
L 254.467587 275.120136 
L 255.281258 256.320616 
L 256.094928 266.424087 
L 256.908599 240.138708 
L 257.722269 261.644842 
L 258.53594 261.140715 
L 259.34961 240.51353 
L 260.163281 278.913559 
L 260.976951 278.3052 
L 261.790622 263.090411 
L 262.604293 265.29428 
L 263.417963 269.059786 
L 264.231634 253.428962 
L 265.045304 250.736398 
L 265.858975 239.353782 
L 266.672645 253.569905 
L 267.486316 251.552549 
L 268.299986 257.162547 
L 269.113657 260.138506 
L 269.927327 266.661932 
L 270.740998 260.338108 
L 271.554668 256.562671 
L 272.368339 263.666579 
L 273.18201 268.551505 
L 273.99568 269.278868 
L 274.809351 267.491437 
L 275.623021 257.552434 
L 276.436692 267.090423 
L 277.250362 262.461455 
L 278.064033 263.895206 
L 278.877703 268.95829 
L 279.691374 253.46105 
L 280.505044 261.088856 
L 281.318715 253.044951 
L 282.132386 273.166399 
L 282.946056 279.247111 
L 283.759727 262.853663 
L 284.573397 269.447316 
L 285.387068 259.794297 
L 286.200738 273.872153 
L 287.014409 250.574782 
L 287.828079 258.990541 
L 288.64175 271.773996 
L 289.45542 252.96176 
L 290.269091 278.351746 
L 291.082761 263.270614 
L 291.896432 270.492467 
L 292.710103 267.334104 
L 293.523773 252.601877 
L 294.337444 257.996217 
L 295.151114 268.131126 
L 295.964785 266.912573 
L 296.778455 262.733786 
L 297.592126 279.11489 
L 298.405796 266.947559 
L 299.219467 275.83892 
L 300.033137 276.435813 
L 300.846808 267.317774 
L 301.660478 264.9545 
L 302.474149 271.615307 
L 303.28782 266.900572 
L 304.10149 265.425942 
L 304.915161 256.615718 
L 305.728831 245.002268 
L 306.542502 271.712323 
L 307.356172 256.874808 
L 308.169843 284.036904 
L 308.983513 274.52981 
L 309.797184 275.926408 
L 310.610854 264.248836 
L 311.424525 279.977493 
L 312.238195 257.911107 
L 313.051866 284.12084 
L 313.865537 265.333158 
L 314.679207 266.755267 
L 315.492878 267.070101 
L 316.306548 258.743406 
L 317.120219 263.448109 
L 317.933889 269.865901 
L 318.74756 278.52929 
L 319.56123 265.934923 
L 320.374901 269.373925 
L 321.188571 245.653202 
L 322.002242 261.449979 
L 322.815913 260.981106 
L 323.629583 285.123986 
L 324.443254 275.258018 
L 325.256924 261.190012 
L 326.070595 291.318648 
L 326.884265 256.539579 
L 327.697936 273.243731 
L 328.511606 278.602668 
L 329.325277 266.256139 
L 330.138947 267.289938 
L 330.952618 262.177007 
L 331.766288 258.950554 
L 332.579959 274.118491 
L 333.39363 271.164751 
L 334.2073 269.902493 
L 335.020971 276.789302 
L 335.834641 273.474164 
L 336.648312 265.068316 
L 337.461982 264.884127 
L 338.275653 280.667701 
L 339.089323 268.428186 
L 339.902994 268.863919 
L 340.716664 258.540052 
L 341.530335 291.011006 
L 342.344005 265.099088 
L 343.157676 293.499639 
L 343.971347 273.685115 
L 344.785017 270.185697 
L 345.598688 278.30416 
L 346.412358 263.196237 
L 347.226029 257.452845 
L 348.039699 275.073926 
L 348.85337 288.743057 
L 349.66704 280.084338 
L 350.480711 276.141019 
L 351.294381 275.932893 
L 352.108052 250.430367 
L 352.921722 269.739332 
L 354.549064 290.137386 
L 355.362734 276.080487 
L 356.176405 272.788675 
L 356.990075 288.842678 
L 357.803746 260.293006 
L 358.617416 269.042393 
L 359.431087 257.51192 
L 360.244757 287.773515 
L 361.058428 289.908713 
L 361.872098 277.424417 
L 362.685769 284.18827 
L 363.49944 262.913438 
L 364.31311 278.196719 
L 365.126781 286.906168 
L 366.754122 269.185873 
L 367.567792 266.168649 
L 368.381463 279.652719 
L 369.195133 265.867125 
L 370.008804 295.488 
L 370.822474 259.944361 
L 371.636145 270.532553 
L 372.449815 277.858804 
L 373.263486 265.833195 
L 374.077157 284.483516 
L 374.890827 261.50088 
L 375.704498 260.901172 
L 376.518168 273.274976 
L 377.331839 239.271193 
L 378.145509 278.131133 
L 378.95918 268.488655 
L 379.77285 269.7901 
L 380.586521 274.959255 
L 381.400191 267.393172 
L 382.213862 272.643679 
L 383.027532 260.333283 
L 383.841203 284.424469 
L 384.654874 278.830569 
L 385.468544 287.254676 
L 386.282215 277.236877 
L 387.095885 260.884438 
L 387.909556 270.322628 
L 388.723226 281.751866 
L 389.536897 275.323602 
L 390.350567 284.652385 
L 391.164238 274.414521 
L 391.977908 279.886492 
L 392.791579 273.87334 
L 393.605249 277.249047 
L 394.41892 266.253921 
L 395.232591 282.752683 
L 396.046261 279.872896 
L 396.859932 262.18002 
L 397.673602 287.263587 
L 398.487273 288.862055 
L 398.487273 288.862055 
" style="fill:none;stroke:#ff7f0e;stroke-linecap:square;stroke-width:1.5;"/>
   </g>
   <g id="patch_3">
    <path d="M 57.6 307.584 
L 57.6 41.472 
" style="fill:none;stroke:#000000;stroke-linecap:square;stroke-linejoin:miter;stroke-width:0.8;"/>
   </g>
   <g id="patch_4">
    <path d="M 414.72 307.584 
L 414.72 41.472 
" style="fill:none;stroke:#000000;stroke-linecap:square;stroke-linejoin:miter;stroke-width:0.8;"/>
   </g>
   <g id="patch_5">
    <path d="M 57.6 307.584 
L 414.72 307.584 
" style="fill:none;stroke:#000000;stroke-linecap:square;stroke-linejoin:miter;stroke-width:0.8;"/>
   </g>
   <g id="patch_6">
    <path d="M 57.6 41.472 
L 414.72 41.472 
" style="fill:none;stroke:#000000;stroke-linecap:square;stroke-linejoin:miter;stroke-width:0.8;"/>
   </g>
   <g id="legend_1">
    <g id="patch_7">
     <path d="M 303.845 78.82825 
L 407.72 78.82825 
Q 409.72 78.82825 409.72 76.82825 
L 409.72 48.472 
Q 409.72 46.472 407.72 46.472 
L 303.845 46.472 
Q 301.845 46.472 301.845 48.472 
L 301.845 76.82825 
Q 301.845 78.82825 303.845 78.82825 
z
" style="fill:#ffffff;opacity:0.8;stroke:#cccccc;stroke-linejoin:miter;"/>
    </g>
    <g id="line2d_18">
     <path d="M 305.845 54.570437 
L 325.845 54.570437 
" style="fill:none;stroke:#1f77b4;stroke-linecap:square;stroke-width:1.5;"/>
    </g>
    <g id="line2d_19"/>
    <g id="text_18">
     <!-- Train loss -->
     <g transform="translate(333.845 58.070437)scale(0.1 -0.1)">
      <defs>
       <path d="M -19 4666 
L 3928 4666 
L 3928 4134 
L 2272 4134 
L 2272 0 
L 1638 0 
L 1638 4134 
L -19 4134 
L -19 4666 
z
" id="DejaVuSans-54" transform="scale(0.015625)"/>
       <path d="M 2631 2963 
Q 2534 3019 2420 3045 
Q 2306 3072 2169 3072 
Q 1681 3072 1420 2755 
Q 1159 2438 1159 1844 
L 1159 0 
L 581 0 
L 581 3500 
L 1159 3500 
L 1159 2956 
Q 1341 3275 1631 3429 
Q 1922 3584 2338 3584 
Q 2397 3584 2469 3576 
Q 2541 3569 2628 3553 
L 2631 2963 
z
" id="DejaVuSans-72" transform="scale(0.015625)"/>
       <path d="M 2194 1759 
Q 1497 1759 1228 1600 
Q 959 1441 959 1056 
Q 959 750 1161 570 
Q 1363 391 1709 391 
Q 2188 391 2477 730 
Q 2766 1069 2766 1631 
L 2766 1759 
L 2194 1759 
z
M 3341 1997 
L 3341 0 
L 2766 0 
L 2766 531 
Q 2569 213 2275 61 
Q 1981 -91 1556 -91 
Q 1019 -91 701 211 
Q 384 513 384 1019 
Q 384 1609 779 1909 
Q 1175 2209 1959 2209 
L 2766 2209 
L 2766 2266 
Q 2766 2663 2505 2880 
Q 2244 3097 1772 3097 
Q 1472 3097 1187 3025 
Q 903 2953 641 2809 
L 641 3341 
Q 956 3463 1253 3523 
Q 1550 3584 1831 3584 
Q 2591 3584 2966 3190 
Q 3341 2797 3341 1997 
z
" id="DejaVuSans-61" transform="scale(0.015625)"/>
       <path d="M 603 3500 
L 1178 3500 
L 1178 0 
L 603 0 
L 603 3500 
z
M 603 4863 
L 1178 4863 
L 1178 4134 
L 603 4134 
L 603 4863 
z
" id="DejaVuSans-69" transform="scale(0.015625)"/>
       <path d="M 3513 2113 
L 3513 0 
L 2938 0 
L 2938 2094 
Q 2938 2591 2744 2837 
Q 2550 3084 2163 3084 
Q 1697 3084 1428 2787 
Q 1159 2491 1159 1978 
L 1159 0 
L 581 0 
L 581 3500 
L 1159 3500 
L 1159 2956 
Q 1366 3272 1645 3428 
Q 1925 3584 2291 3584 
Q 2894 3584 3203 3211 
Q 3513 2838 3513 2113 
z
" id="DejaVuSans-6e" transform="scale(0.015625)"/>
       <path id="DejaVuSans-20" transform="scale(0.015625)"/>
       <path d="M 603 4863 
L 1178 4863 
L 1178 0 
L 603 0 
L 603 4863 
z
" id="DejaVuSans-6c" transform="scale(0.015625)"/>
      </defs>
      <use xlink:href="#DejaVuSans-54"/>
      <use x="46.333984" xlink:href="#DejaVuSans-72"/>
      <use x="87.447266" xlink:href="#DejaVuSans-61"/>
      <use x="148.726562" xlink:href="#DejaVuSans-69"/>
      <use x="176.509766" xlink:href="#DejaVuSans-6e"/>
      <use x="239.888672" xlink:href="#DejaVuSans-20"/>
      <use x="271.675781" xlink:href="#DejaVuSans-6c"/>
      <use x="299.458984" xlink:href="#DejaVuSans-6f"/>
      <use x="360.640625" xlink:href="#DejaVuSans-73"/>
      <use x="412.740234" xlink:href="#DejaVuSans-73"/>
     </g>
    </g>
    <g id="line2d_20">
     <path d="M 305.845 69.248562 
L 325.845 69.248562 
" style="fill:none;stroke:#ff7f0e;stroke-linecap:square;stroke-width:1.5;"/>
    </g>
    <g id="line2d_21"/>
    <g id="text_19">
     <!-- Validation loss -->
     <g transform="translate(333.845 72.748562)scale(0.1 -0.1)">
      <defs>
       <path d="M 1831 0 
L 50 4666 
L 709 4666 
L 2188 738 
L 3669 4666 
L 4325 4666 
L 2547 0 
L 1831 0 
z
" id="DejaVuSans-56" transform="scale(0.015625)"/>
       <path d="M 2906 2969 
L 2906 4863 
L 3481 4863 
L 3481 0 
L 2906 0 
L 2906 525 
Q 2725 213 2448 61 
Q 2172 -91 1784 -91 
Q 1150 -91 751 415 
Q 353 922 353 1747 
Q 353 2572 751 3078 
Q 1150 3584 1784 3584 
Q 2172 3584 2448 3432 
Q 2725 3281 2906 2969 
z
M 947 1747 
Q 947 1113 1208 752 
Q 1469 391 1925 391 
Q 2381 391 2643 752 
Q 2906 1113 2906 1747 
Q 2906 2381 2643 2742 
Q 2381 3103 1925 3103 
Q 1469 3103 1208 2742 
Q 947 2381 947 1747 
z
" id="DejaVuSans-64" transform="scale(0.015625)"/>
       <path d="M 1172 4494 
L 1172 3500 
L 2356 3500 
L 2356 3053 
L 1172 3053 
L 1172 1153 
Q 1172 725 1289 603 
Q 1406 481 1766 481 
L 2356 481 
L 2356 0 
L 1766 0 
Q 1100 0 847 248 
Q 594 497 594 1153 
L 594 3053 
L 172 3053 
L 172 3500 
L 594 3500 
L 594 4494 
L 1172 4494 
z
" id="DejaVuSans-74" transform="scale(0.015625)"/>
      </defs>
      <use xlink:href="#DejaVuSans-56"/>
      <use x="60.658203" xlink:href="#DejaVuSans-61"/>
      <use x="121.9375" xlink:href="#DejaVuSans-6c"/>
      <use x="149.720703" xlink:href="#DejaVuSans-69"/>
      <use x="177.503906" xlink:href="#DejaVuSans-64"/>
      <use x="240.980469" xlink:href="#DejaVuSans-61"/>
      <use x="302.259766" xlink:href="#DejaVuSans-74"/>
      <use x="341.46875" xlink:href="#DejaVuSans-69"/>
      <use x="369.251953" xlink:href="#DejaVuSans-6f"/>
      <use x="430.433594" xlink:href="#DejaVuSans-6e"/>
      <use x="493.8125" xlink:href="#DejaVuSans-20"/>
      <use x="525.599609" xlink:href="#DejaVuSans-6c"/>
      <use x="553.382812" xlink:href="#DejaVuSans-6f"/>
      <use x="614.564453" xlink:href="#DejaVuSans-73"/>
      <use x="666.664062" xlink:href="#DejaVuSans-73"/>
     </g>
    </g>
   </g>
  </g>
 </g>
 <defs>
  <clipPath id="p857808114b">
   <rect height="266.112" width="357.12" x="57.6" y="41.472"/>
  </clipPath>
 </defs>
</svg>
