<?xml version="1.0" encoding="utf-8" standalone="no"?>
<!DOCTYPE svg PUBLIC "-//W3C//DTD SVG 1.1//EN"
  "http://www.w3.org/Graphics/SVG/1.1/DTD/svg11.dtd">
<svg height="345.6pt" version="1.1" viewBox="0 0 460.8 345.6" width="460.8pt" xmlns="http://www.w3.org/2000/svg" xmlns:xlink="http://www.w3.org/1999/xlink">
 <metadata>
  <rdf:RDF xmlns:cc="http://creativecommons.org/ns#" xmlns:dc="http://purl.org/dc/elements/1.1/" xmlns:rdf="http://www.w3.org/1999/02/22-rdf-syntax-ns#">
   <cc:Work>
    <dc:type rdf:resource="http://purl.org/dc/dcmitype/StillImage"/>
    <dc:date>2021-07-14T23:42:35.426164</dc:date>
    <dc:format>image/svg+xml</dc:format>
    <dc:creator>
     <cc:Agent>
      <dc:title>Matplotlib v3.4.2, https://matplotlib.org/</dc:title>
     </cc:Agent>
    </dc:creator>
   </cc:Work>
  </rdf:RDF>
 </metadata>
 <defs>
  <style type="text/css">*{stroke-linecap:butt;stroke-linejoin:round;}</style>
 </defs>
 <g id="figure_1">
  <g id="patch_1">
   <path d="M 0 345.6 
L 460.8 345.6 
L 460.8 0 
L 0 0 
z
" style="fill:#ffffff;"/>
  </g>
  <g id="axes_1">
   <g id="patch_2">
    <path d="M 57.6 307.584 
L 414.72 307.584 
L 414.72 41.472 
L 57.6 41.472 
z
" style="fill:#ffffff;"/>
   </g>
   <g id="matplotlib.axis_1">
    <g id="xtick_1">
     <g id="line2d_1">
      <defs>
       <path d="M 0 0 
L 0 3.5 
" id="m0e7d6c05b0" style="stroke:#000000;stroke-width:0.8;"/>
      </defs>
      <g>
       <use style="stroke:#000000;stroke-width:0.8;" x="73.019057" xlink:href="#m0e7d6c05b0" y="307.584"/>
      </g>
     </g>
     <g id="text_1">
      <!-- 0 -->
      <g transform="translate(69.837807 322.182437)scale(0.1 -0.1)">
       <defs>
        <path d="M 2034 4250 
Q 1547 4250 1301 3770 
Q 1056 3291 1056 2328 
Q 1056 1369 1301 889 
Q 1547 409 2034 409 
Q 2525 409 2770 889 
Q 3016 1369 3016 2328 
Q 3016 3291 2770 3770 
Q 2525 4250 2034 4250 
z
M 2034 4750 
Q 2819 4750 3233 4129 
Q 3647 3509 3647 2328 
Q 3647 1150 3233 529 
Q 2819 -91 2034 -91 
Q 1250 -91 836 529 
Q 422 1150 422 2328 
Q 422 3509 836 4129 
Q 1250 4750 2034 4750 
z
" id="DejaVuSans-30" transform="scale(0.015625)"/>
       </defs>
       <use xlink:href="#DejaVuSans-30"/>
      </g>
     </g>
    </g>
    <g id="xtick_2">
     <g id="line2d_2">
      <g>
       <use style="stroke:#000000;stroke-width:0.8;" x="113.702584" xlink:href="#m0e7d6c05b0" y="307.584"/>
      </g>
     </g>
     <g id="text_2">
      <!-- 50 -->
      <g transform="translate(107.340084 322.182437)scale(0.1 -0.1)">
       <defs>
        <path d="M 691 4666 
L 3169 4666 
L 3169 4134 
L 1269 4134 
L 1269 2991 
Q 1406 3038 1543 3061 
Q 1681 3084 1819 3084 
Q 2600 3084 3056 2656 
Q 3513 2228 3513 1497 
Q 3513 744 3044 326 
Q 2575 -91 1722 -91 
Q 1428 -91 1123 -41 
Q 819 9 494 109 
L 494 744 
Q 775 591 1075 516 
Q 1375 441 1709 441 
Q 2250 441 2565 725 
Q 2881 1009 2881 1497 
Q 2881 1984 2565 2268 
Q 2250 2553 1709 2553 
Q 1456 2553 1204 2497 
Q 953 2441 691 2322 
L 691 4666 
z
" id="DejaVuSans-35" transform="scale(0.015625)"/>
       </defs>
       <use xlink:href="#DejaVuSans-35"/>
       <use x="63.623047" xlink:href="#DejaVuSans-30"/>
      </g>
     </g>
    </g>
    <g id="xtick_3">
     <g id="line2d_3">
      <g>
       <use style="stroke:#000000;stroke-width:0.8;" x="154.386111" xlink:href="#m0e7d6c05b0" y="307.584"/>
      </g>
     </g>
     <g id="text_3">
      <!-- 100 -->
      <g transform="translate(144.842361 322.182437)scale(0.1 -0.1)">
       <defs>
        <path d="M 794 531 
L 1825 531 
L 1825 4091 
L 703 3866 
L 703 4441 
L 1819 4666 
L 2450 4666 
L 2450 531 
L 3481 531 
L 3481 0 
L 794 0 
L 794 531 
z
" id="DejaVuSans-31" transform="scale(0.015625)"/>
       </defs>
       <use xlink:href="#DejaVuSans-31"/>
       <use x="63.623047" xlink:href="#DejaVuSans-30"/>
       <use x="127.246094" xlink:href="#DejaVuSans-30"/>
      </g>
     </g>
    </g>
    <g id="xtick_4">
     <g id="line2d_4">
      <g>
       <use style="stroke:#000000;stroke-width:0.8;" x="195.069638" xlink:href="#m0e7d6c05b0" y="307.584"/>
      </g>
     </g>
     <g id="text_4">
      <!-- 150 -->
      <g transform="translate(185.525888 322.182437)scale(0.1 -0.1)">
       <use xlink:href="#DejaVuSans-31"/>
       <use x="63.623047" xlink:href="#DejaVuSans-35"/>
       <use x="127.246094" xlink:href="#DejaVuSans-30"/>
      </g>
     </g>
    </g>
    <g id="xtick_5">
     <g id="line2d_5">
      <g>
       <use style="stroke:#000000;stroke-width:0.8;" x="235.753165" xlink:href="#m0e7d6c05b0" y="307.584"/>
      </g>
     </g>
     <g id="text_5">
      <!-- 200 -->
      <g transform="translate(226.209415 322.182437)scale(0.1 -0.1)">
       <defs>
        <path d="M 1228 531 
L 3431 531 
L 3431 0 
L 469 0 
L 469 531 
Q 828 903 1448 1529 
Q 2069 2156 2228 2338 
Q 2531 2678 2651 2914 
Q 2772 3150 2772 3378 
Q 2772 3750 2511 3984 
Q 2250 4219 1831 4219 
Q 1534 4219 1204 4116 
Q 875 4013 500 3803 
L 500 4441 
Q 881 4594 1212 4672 
Q 1544 4750 1819 4750 
Q 2544 4750 2975 4387 
Q 3406 4025 3406 3419 
Q 3406 3131 3298 2873 
Q 3191 2616 2906 2266 
Q 2828 2175 2409 1742 
Q 1991 1309 1228 531 
z
" id="DejaVuSans-32" transform="scale(0.015625)"/>
       </defs>
       <use xlink:href="#DejaVuSans-32"/>
       <use x="63.623047" xlink:href="#DejaVuSans-30"/>
       <use x="127.246094" xlink:href="#DejaVuSans-30"/>
      </g>
     </g>
    </g>
    <g id="xtick_6">
     <g id="line2d_6">
      <g>
       <use style="stroke:#000000;stroke-width:0.8;" x="276.436692" xlink:href="#m0e7d6c05b0" y="307.584"/>
      </g>
     </g>
     <g id="text_6">
      <!-- 250 -->
      <g transform="translate(266.892942 322.182437)scale(0.1 -0.1)">
       <use xlink:href="#DejaVuSans-32"/>
       <use x="63.623047" xlink:href="#DejaVuSans-35"/>
       <use x="127.246094" xlink:href="#DejaVuSans-30"/>
      </g>
     </g>
    </g>
    <g id="xtick_7">
     <g id="line2d_7">
      <g>
       <use style="stroke:#000000;stroke-width:0.8;" x="317.120219" xlink:href="#m0e7d6c05b0" y="307.584"/>
      </g>
     </g>
     <g id="text_7">
      <!-- 300 -->
      <g transform="translate(307.576469 322.182437)scale(0.1 -0.1)">
       <defs>
        <path d="M 2597 2516 
Q 3050 2419 3304 2112 
Q 3559 1806 3559 1356 
Q 3559 666 3084 287 
Q 2609 -91 1734 -91 
Q 1441 -91 1130 -33 
Q 819 25 488 141 
L 488 750 
Q 750 597 1062 519 
Q 1375 441 1716 441 
Q 2309 441 2620 675 
Q 2931 909 2931 1356 
Q 2931 1769 2642 2001 
Q 2353 2234 1838 2234 
L 1294 2234 
L 1294 2753 
L 1863 2753 
Q 2328 2753 2575 2939 
Q 2822 3125 2822 3475 
Q 2822 3834 2567 4026 
Q 2313 4219 1838 4219 
Q 1578 4219 1281 4162 
Q 984 4106 628 3988 
L 628 4550 
Q 988 4650 1302 4700 
Q 1616 4750 1894 4750 
Q 2613 4750 3031 4423 
Q 3450 4097 3450 3541 
Q 3450 3153 3228 2886 
Q 3006 2619 2597 2516 
z
" id="DejaVuSans-33" transform="scale(0.015625)"/>
       </defs>
       <use xlink:href="#DejaVuSans-33"/>
       <use x="63.623047" xlink:href="#DejaVuSans-30"/>
       <use x="127.246094" xlink:href="#DejaVuSans-30"/>
      </g>
     </g>
    </g>
    <g id="xtick_8">
     <g id="line2d_8">
      <g>
       <use style="stroke:#000000;stroke-width:0.8;" x="357.803746" xlink:href="#m0e7d6c05b0" y="307.584"/>
      </g>
     </g>
     <g id="text_8">
      <!-- 350 -->
      <g transform="translate(348.259996 322.182437)scale(0.1 -0.1)">
       <use xlink:href="#DejaVuSans-33"/>
       <use x="63.623047" xlink:href="#DejaVuSans-35"/>
       <use x="127.246094" xlink:href="#DejaVuSans-30"/>
      </g>
     </g>
    </g>
    <g id="xtick_9">
     <g id="line2d_9">
      <g>
       <use style="stroke:#000000;stroke-width:0.8;" x="398.487273" xlink:href="#m0e7d6c05b0" y="307.584"/>
      </g>
     </g>
     <g id="text_9">
      <!-- 400 -->
      <g transform="translate(388.943523 322.182437)scale(0.1 -0.1)">
       <defs>
        <path d="M 2419 4116 
L 825 1625 
L 2419 1625 
L 2419 4116 
z
M 2253 4666 
L 3047 4666 
L 3047 1625 
L 3713 1625 
L 3713 1100 
L 3047 1100 
L 3047 0 
L 2419 0 
L 2419 1100 
L 313 1100 
L 313 1709 
L 2253 4666 
z
" id="DejaVuSans-34" transform="scale(0.015625)"/>
       </defs>
       <use xlink:href="#DejaVuSans-34"/>
       <use x="63.623047" xlink:href="#DejaVuSans-30"/>
       <use x="127.246094" xlink:href="#DejaVuSans-30"/>
      </g>
     </g>
    </g>
    <g id="text_10">
     <!-- Epoch -->
     <g transform="translate(213.193594 339.659781)scale(0.15 -0.15)">
      <defs>
       <path d="M 628 4666 
L 3578 4666 
L 3578 4134 
L 1259 4134 
L 1259 2753 
L 3481 2753 
L 3481 2222 
L 1259 2222 
L 1259 531 
L 3634 531 
L 3634 0 
L 628 0 
L 628 4666 
z
" id="DejaVuSans-45" transform="scale(0.015625)"/>
       <path d="M 1159 525 
L 1159 -1331 
L 581 -1331 
L 581 3500 
L 1159 3500 
L 1159 2969 
Q 1341 3281 1617 3432 
Q 1894 3584 2278 3584 
Q 2916 3584 3314 3078 
Q 3713 2572 3713 1747 
Q 3713 922 3314 415 
Q 2916 -91 2278 -91 
Q 1894 -91 1617 61 
Q 1341 213 1159 525 
z
M 3116 1747 
Q 3116 2381 2855 2742 
Q 2594 3103 2138 3103 
Q 1681 3103 1420 2742 
Q 1159 2381 1159 1747 
Q 1159 1113 1420 752 
Q 1681 391 2138 391 
Q 2594 391 2855 752 
Q 3116 1113 3116 1747 
z
" id="DejaVuSans-70" transform="scale(0.015625)"/>
       <path d="M 1959 3097 
Q 1497 3097 1228 2736 
Q 959 2375 959 1747 
Q 959 1119 1226 758 
Q 1494 397 1959 397 
Q 2419 397 2687 759 
Q 2956 1122 2956 1747 
Q 2956 2369 2687 2733 
Q 2419 3097 1959 3097 
z
M 1959 3584 
Q 2709 3584 3137 3096 
Q 3566 2609 3566 1747 
Q 3566 888 3137 398 
Q 2709 -91 1959 -91 
Q 1206 -91 779 398 
Q 353 888 353 1747 
Q 353 2609 779 3096 
Q 1206 3584 1959 3584 
z
" id="DejaVuSans-6f" transform="scale(0.015625)"/>
       <path d="M 3122 3366 
L 3122 2828 
Q 2878 2963 2633 3030 
Q 2388 3097 2138 3097 
Q 1578 3097 1268 2742 
Q 959 2388 959 1747 
Q 959 1106 1268 751 
Q 1578 397 2138 397 
Q 2388 397 2633 464 
Q 2878 531 3122 666 
L 3122 134 
Q 2881 22 2623 -34 
Q 2366 -91 2075 -91 
Q 1284 -91 818 406 
Q 353 903 353 1747 
Q 353 2603 823 3093 
Q 1294 3584 2113 3584 
Q 2378 3584 2631 3529 
Q 2884 3475 3122 3366 
z
" id="DejaVuSans-63" transform="scale(0.015625)"/>
       <path d="M 3513 2113 
L 3513 0 
L 2938 0 
L 2938 2094 
Q 2938 2591 2744 2837 
Q 2550 3084 2163 3084 
Q 1697 3084 1428 2787 
Q 1159 2491 1159 1978 
L 1159 0 
L 581 0 
L 581 4863 
L 1159 4863 
L 1159 2956 
Q 1366 3272 1645 3428 
Q 1925 3584 2291 3584 
Q 2894 3584 3203 3211 
Q 3513 2838 3513 2113 
z
" id="DejaVuSans-68" transform="scale(0.015625)"/>
      </defs>
      <use xlink:href="#DejaVuSans-45"/>
      <use x="63.183594" xlink:href="#DejaVuSans-70"/>
      <use x="126.660156" xlink:href="#DejaVuSans-6f"/>
      <use x="187.841797" xlink:href="#DejaVuSans-63"/>
      <use x="242.822266" xlink:href="#DejaVuSans-68"/>
     </g>
    </g>
   </g>
   <g id="matplotlib.axis_2">
    <g id="ytick_1">
     <g id="line2d_10">
      <defs>
       <path d="M 0 0 
L -3.5 0 
" id="m4266c7f6f9" style="stroke:#000000;stroke-width:0.8;"/>
      </defs>
      <g>
       <use style="stroke:#000000;stroke-width:0.8;" x="57.6" xlink:href="#m4266c7f6f9" y="259.598769"/>
      </g>
     </g>
     <g id="text_11">
      <!-- 0.2 -->
      <g transform="translate(34.696875 263.397988)scale(0.1 -0.1)">
       <defs>
        <path d="M 684 794 
L 1344 794 
L 1344 0 
L 684 0 
L 684 794 
z
" id="DejaVuSans-2e" transform="scale(0.015625)"/>
       </defs>
       <use xlink:href="#DejaVuSans-30"/>
       <use x="63.623047" xlink:href="#DejaVuSans-2e"/>
       <use x="95.410156" xlink:href="#DejaVuSans-32"/>
      </g>
     </g>
    </g>
    <g id="ytick_2">
     <g id="line2d_11">
      <g>
       <use style="stroke:#000000;stroke-width:0.8;" x="57.6" xlink:href="#m4266c7f6f9" y="206.429538"/>
      </g>
     </g>
     <g id="text_12">
      <!-- 0.4 -->
      <g transform="translate(34.696875 210.228757)scale(0.1 -0.1)">
       <use xlink:href="#DejaVuSans-30"/>
       <use x="63.623047" xlink:href="#DejaVuSans-2e"/>
       <use x="95.410156" xlink:href="#DejaVuSans-34"/>
      </g>
     </g>
    </g>
    <g id="ytick_3">
     <g id="line2d_12">
      <g>
       <use style="stroke:#000000;stroke-width:0.8;" x="57.6" xlink:href="#m4266c7f6f9" y="153.260308"/>
      </g>
     </g>
     <g id="text_13">
      <!-- 0.6 -->
      <g transform="translate(34.696875 157.059526)scale(0.1 -0.1)">
       <defs>
        <path d="M 2113 2584 
Q 1688 2584 1439 2293 
Q 1191 2003 1191 1497 
Q 1191 994 1439 701 
Q 1688 409 2113 409 
Q 2538 409 2786 701 
Q 3034 994 3034 1497 
Q 3034 2003 2786 2293 
Q 2538 2584 2113 2584 
z
M 3366 4563 
L 3366 3988 
Q 3128 4100 2886 4159 
Q 2644 4219 2406 4219 
Q 1781 4219 1451 3797 
Q 1122 3375 1075 2522 
Q 1259 2794 1537 2939 
Q 1816 3084 2150 3084 
Q 2853 3084 3261 2657 
Q 3669 2231 3669 1497 
Q 3669 778 3244 343 
Q 2819 -91 2113 -91 
Q 1303 -91 875 529 
Q 447 1150 447 2328 
Q 447 3434 972 4092 
Q 1497 4750 2381 4750 
Q 2619 4750 2861 4703 
Q 3103 4656 3366 4563 
z
" id="DejaVuSans-36" transform="scale(0.015625)"/>
       </defs>
       <use xlink:href="#DejaVuSans-30"/>
       <use x="63.623047" xlink:href="#DejaVuSans-2e"/>
       <use x="95.410156" xlink:href="#DejaVuSans-36"/>
      </g>
     </g>
    </g>
    <g id="ytick_4">
     <g id="line2d_13">
      <g>
       <use style="stroke:#000000;stroke-width:0.8;" x="57.6" xlink:href="#m4266c7f6f9" y="100.091077"/>
      </g>
     </g>
     <g id="text_14">
      <!-- 0.8 -->
      <g transform="translate(34.696875 103.890296)scale(0.1 -0.1)">
       <defs>
        <path d="M 2034 2216 
Q 1584 2216 1326 1975 
Q 1069 1734 1069 1313 
Q 1069 891 1326 650 
Q 1584 409 2034 409 
Q 2484 409 2743 651 
Q 3003 894 3003 1313 
Q 3003 1734 2745 1975 
Q 2488 2216 2034 2216 
z
M 1403 2484 
Q 997 2584 770 2862 
Q 544 3141 544 3541 
Q 544 4100 942 4425 
Q 1341 4750 2034 4750 
Q 2731 4750 3128 4425 
Q 3525 4100 3525 3541 
Q 3525 3141 3298 2862 
Q 3072 2584 2669 2484 
Q 3125 2378 3379 2068 
Q 3634 1759 3634 1313 
Q 3634 634 3220 271 
Q 2806 -91 2034 -91 
Q 1263 -91 848 271 
Q 434 634 434 1313 
Q 434 1759 690 2068 
Q 947 2378 1403 2484 
z
M 1172 3481 
Q 1172 3119 1398 2916 
Q 1625 2713 2034 2713 
Q 2441 2713 2670 2916 
Q 2900 3119 2900 3481 
Q 2900 3844 2670 4047 
Q 2441 4250 2034 4250 
Q 1625 4250 1398 4047 
Q 1172 3844 1172 3481 
z
" id="DejaVuSans-38" transform="scale(0.015625)"/>
       </defs>
       <use xlink:href="#DejaVuSans-30"/>
       <use x="63.623047" xlink:href="#DejaVuSans-2e"/>
       <use x="95.410156" xlink:href="#DejaVuSans-38"/>
      </g>
     </g>
    </g>
    <g id="ytick_5">
     <g id="line2d_14">
      <g>
       <use style="stroke:#000000;stroke-width:0.8;" x="57.6" xlink:href="#m4266c7f6f9" y="46.921846"/>
      </g>
     </g>
     <g id="text_15">
      <!-- 1.0 -->
      <g transform="translate(34.696875 50.721065)scale(0.1 -0.1)">
       <use xlink:href="#DejaVuSans-31"/>
       <use x="63.623047" xlink:href="#DejaVuSans-2e"/>
       <use x="95.410156" xlink:href="#DejaVuSans-30"/>
      </g>
     </g>
    </g>
    <g id="text_16">
     <!-- Loss -->
     <g transform="translate(27.577344 190.978781)rotate(-90)scale(0.15 -0.15)">
      <defs>
       <path d="M 628 4666 
L 1259 4666 
L 1259 531 
L 3531 531 
L 3531 0 
L 628 0 
L 628 4666 
z
" id="DejaVuSans-4c" transform="scale(0.015625)"/>
       <path d="M 2834 3397 
L 2834 2853 
Q 2591 2978 2328 3040 
Q 2066 3103 1784 3103 
Q 1356 3103 1142 2972 
Q 928 2841 928 2578 
Q 928 2378 1081 2264 
Q 1234 2150 1697 2047 
L 1894 2003 
Q 2506 1872 2764 1633 
Q 3022 1394 3022 966 
Q 3022 478 2636 193 
Q 2250 -91 1575 -91 
Q 1294 -91 989 -36 
Q 684 19 347 128 
L 347 722 
Q 666 556 975 473 
Q 1284 391 1588 391 
Q 1994 391 2212 530 
Q 2431 669 2431 922 
Q 2431 1156 2273 1281 
Q 2116 1406 1581 1522 
L 1381 1569 
Q 847 1681 609 1914 
Q 372 2147 372 2553 
Q 372 3047 722 3315 
Q 1072 3584 1716 3584 
Q 2034 3584 2315 3537 
Q 2597 3491 2834 3397 
z
" id="DejaVuSans-73" transform="scale(0.015625)"/>
      </defs>
      <use xlink:href="#DejaVuSans-4c"/>
      <use x="53.962891" xlink:href="#DejaVuSans-6f"/>
      <use x="115.144531" xlink:href="#DejaVuSans-73"/>
      <use x="167.244141" xlink:href="#DejaVuSans-73"/>
     </g>
    </g>
   </g>
   <g id="line2d_15">
    <path clip-path="url(#p57318be4ee)" d="M 73.832727 283.524923 
L 74.646398 288.841846 
L 75.460068 283.524923 
L 76.273739 287.512615 
L 77.087409 286.183385 
L 77.90108 287.512615 
L 78.714751 287.512615 
L 79.528421 292.829538 
L 80.342092 280.866462 
L 81.155762 288.841846 
L 81.969433 288.841846 
L 82.783103 295.488 
L 83.596774 280.866462 
L 84.410444 290.171077 
L 85.224115 284.854154 
L 86.037785 290.171077 
L 86.851456 287.512615 
L 87.665126 291.500308 
L 88.478797 284.854154 
L 89.292468 287.512615 
L 90.106138 288.841846 
L 90.919809 278.208 
L 91.733479 287.512615 
L 92.54715 284.854154 
L 93.36082 294.158769 
L 95.801832 274.220308 
L 96.615502 283.524923 
L 97.429173 280.866462 
L 98.242843 271.561846 
L 99.056514 274.220308 
L 99.870185 274.220308 
L 100.683855 263.586462 
L 101.497526 264.915692 
L 102.311196 259.598769 
L 103.124867 264.915692 
L 103.938537 264.915692 
L 104.752208 262.257231 
L 105.565878 258.269538 
L 107.193219 258.269538 
L 108.00689 268.903385 
L 109.634231 258.269538 
L 110.447902 270.232615 
L 111.261572 260.928 
L 112.075243 260.928 
L 112.888913 263.586462 
L 113.702584 260.928 
L 114.516254 266.244923 
L 116.143595 244.977231 
L 116.957266 258.269538 
L 117.770936 248.964923 
L 118.584607 258.269538 
L 119.398278 248.964923 
L 120.211948 252.952615 
L 121.025619 262.257231 
L 121.839289 248.964923 
L 122.65296 259.598769 
L 123.46663 259.598769 
L 124.280301 254.281846 
L 125.093971 256.940308 
L 125.907642 247.635692 
L 126.721312 258.269538 
L 127.534983 255.611077 
L 128.348653 251.623385 
L 129.162324 254.281846 
L 129.975995 243.648 
L 130.789665 258.269538 
L 131.603336 246.306462 
L 132.417006 251.623385 
L 133.230677 251.623385 
L 134.044347 255.611077 
L 134.858018 243.648 
L 135.671688 251.623385 
L 136.485359 252.952615 
L 137.299029 246.306462 
L 138.1127 246.306462 
L 138.92637 244.977231 
L 139.740041 248.964923 
L 140.553712 239.660308 
L 141.367382 240.989538 
L 142.994723 238.331077 
L 143.808394 238.331077 
L 144.622064 259.598769 
L 145.435735 248.964923 
L 146.249405 250.294154 
L 147.063076 242.318769 
L 147.876746 243.648 
L 148.690417 250.294154 
L 149.504087 250.294154 
L 150.317758 229.026462 
L 151.131429 247.635692 
L 151.945099 235.672615 
L 152.75877 251.623385 
L 153.57244 242.318769 
L 154.386111 238.331077 
L 155.199781 237.001846 
L 156.013452 227.697231 
L 156.827122 235.672615 
L 157.640793 233.014154 
L 159.268134 235.672615 
L 160.081805 230.355692 
L 160.895475 243.648 
L 161.709146 237.001846 
L 162.522816 229.026462 
L 163.336487 238.331077 
L 164.150157 233.014154 
L 164.963828 215.734154 
L 165.777498 205.100308 
L 166.591169 226.368 
L 167.404839 221.051077 
L 169.03218 215.734154 
L 169.845851 211.746462 
L 172.286863 203.771077 
L 173.914204 203.771077 
L 175.541545 198.454154 
L 176.355215 199.783385 
L 177.168886 214.404923 
L 177.982556 203.771077 
L 178.796227 213.075692 
L 179.609897 215.734154 
L 180.423568 203.771077 
L 181.237239 181.174154 
L 182.050909 194.466462 
L 182.86458 198.454154 
L 183.67825 201.112615 
L 184.491921 201.112615 
L 185.305591 185.161846 
L 186.119262 193.137231 
L 186.932932 191.808 
L 187.746603 178.515692 
L 188.560273 191.808 
L 189.373944 181.174154 
L 191.001285 170.540308 
L 191.814956 163.894154 
L 192.628626 166.552615 
L 193.442297 158.577231 
L 194.255967 159.906462 
L 195.069638 169.211077 
L 195.883308 162.564923 
L 196.696979 177.186462 
L 197.510649 179.844923 
L 198.32432 179.844923 
L 199.13799 155.918769 
L 199.951661 171.869538 
L 201.579002 163.894154 
L 202.392673 167.881846 
L 203.206343 163.894154 
L 204.833684 158.577231 
L 205.647355 165.223385 
L 206.461025 141.297231 
L 207.274696 162.564923 
L 208.088366 150.601846 
L 208.902037 126.675692 
L 209.715707 151.931077 
L 210.529378 161.235692 
L 211.343049 151.931077 
L 212.156719 143.955692 
L 212.97039 138.638769 
L 213.78406 135.980308 
L 214.597731 126.675692 
L 215.411401 154.589538 
L 216.225072 138.638769 
L 217.038742 133.321846 
L 217.852413 150.601846 
L 218.666083 117.371077 
L 219.479754 139.968 
L 220.293424 134.651077 
L 221.107095 128.004923 
L 221.920766 131.992615 
L 222.734436 128.004923 
L 223.548107 106.737231 
L 224.361777 110.724923 
L 225.989118 108.066462 
L 226.802789 114.712615 
L 227.616459 126.675692 
L 228.43013 96.103385 
L 229.2438 116.041846 
L 230.057471 118.700308 
L 230.871141 100.091077 
L 231.684812 129.334154 
L 232.498483 121.358769 
L 233.312153 109.395692 
L 234.125824 117.371077 
L 234.939494 110.724923 
L 235.753165 110.724923 
L 236.566835 106.737231 
L 237.380506 118.700308 
L 238.194176 101.420308 
L 239.007847 116.041846 
L 239.821517 110.724923 
L 240.635188 110.724923 
L 241.448859 105.408 
L 242.262529 89.457231 
L 243.0762 92.115692 
L 243.88987 96.103385 
L 244.703541 77.494154 
L 245.517211 90.786462 
L 246.330882 94.774154 
L 247.144552 96.103385 
L 247.958223 112.054154 
L 248.771893 106.737231 
L 249.585564 100.091077 
L 250.399234 82.811077 
L 251.212905 77.494154 
L 252.026576 85.469538 
L 252.840246 90.786462 
L 253.653917 90.786462 
L 254.467587 81.481846 
L 255.281258 93.444923 
L 256.094928 81.481846 
L 256.908599 86.798769 
L 257.722269 93.444923 
L 258.53594 85.469538 
L 259.34961 89.457231 
L 260.163281 85.469538 
L 260.976951 102.749538 
L 261.790622 90.786462 
L 262.604293 84.140308 
L 263.417963 90.786462 
L 264.231634 82.811077 
L 265.045304 92.115692 
L 265.858975 90.786462 
L 266.672645 77.494154 
L 267.486316 81.481846 
L 268.299986 73.506462 
L 269.113657 84.140308 
L 269.927327 85.469538 
L 270.740998 80.152615 
L 271.554668 80.152615 
L 272.368339 94.774154 
L 273.18201 97.432615 
L 273.99568 82.811077 
L 274.809351 74.835692 
L 275.623021 70.848 
L 276.436692 73.506462 
L 277.250362 82.811077 
L 278.064033 72.177231 
L 278.877703 94.774154 
L 279.691374 85.469538 
L 280.505044 74.835692 
L 281.318715 97.432615 
L 282.132386 88.128 
L 282.946056 76.164923 
L 283.759727 72.177231 
L 284.573397 62.872615 
L 285.387068 86.798769 
L 286.200738 72.177231 
L 287.014409 90.786462 
L 287.828079 86.798769 
L 288.64175 84.140308 
L 289.45542 85.469538 
L 290.269091 69.518769 
L 291.082761 81.481846 
L 291.896432 76.164923 
L 292.710103 80.152615 
L 293.523773 69.518769 
L 294.337444 94.774154 
L 295.151114 78.823385 
L 295.964785 76.164923 
L 296.778455 68.189538 
L 297.592126 76.164923 
L 298.405796 72.177231 
L 299.219467 69.518769 
L 300.033137 76.164923 
L 300.846808 70.848 
L 301.660478 81.481846 
L 302.474149 88.128 
L 303.28782 80.152615 
L 304.10149 78.823385 
L 304.915161 72.177231 
L 305.728831 64.201846 
L 306.542502 62.872615 
L 307.356172 70.848 
L 308.169843 85.469538 
L 308.983513 77.494154 
L 309.797184 72.177231 
L 310.610854 77.494154 
L 311.424525 69.518769 
L 312.238195 77.494154 
L 313.051866 69.518769 
L 313.865537 66.860308 
L 314.679207 86.798769 
L 315.492878 80.152615 
L 316.306548 82.811077 
L 317.120219 68.189538 
L 317.933889 77.494154 
L 318.74756 66.860308 
L 319.56123 62.872615 
L 320.374901 84.140308 
L 321.188571 84.140308 
L 322.002242 90.786462 
L 322.815913 61.543385 
L 323.629583 66.860308 
L 324.443254 74.835692 
L 325.256924 66.860308 
L 326.070595 69.518769 
L 326.884265 70.848 
L 327.697936 74.835692 
L 328.511606 80.152615 
L 329.325277 80.152615 
L 330.138947 70.848 
L 330.952618 74.835692 
L 331.766288 77.494154 
L 332.579959 64.201846 
L 333.39363 73.506462 
L 334.2073 84.140308 
L 335.020971 65.531077 
L 335.834641 61.543385 
L 336.648312 68.189538 
L 337.461982 64.201846 
L 338.275653 76.164923 
L 339.902994 57.555692 
L 340.716664 78.823385 
L 341.530335 76.164923 
L 342.344005 57.555692 
L 343.157676 66.860308 
L 343.971347 73.506462 
L 344.785017 69.518769 
L 345.598688 69.518769 
L 346.412358 74.835692 
L 347.226029 70.848 
L 348.039699 72.177231 
L 348.85337 65.531077 
L 349.66704 85.469538 
L 350.480711 76.164923 
L 351.294381 70.848 
L 352.108052 81.481846 
L 352.921722 77.494154 
L 353.735393 85.469538 
L 354.549064 78.823385 
L 355.362734 68.189538 
L 356.176405 64.201846 
L 356.990075 66.860308 
L 357.803746 66.860308 
L 358.617416 70.848 
L 359.431087 53.568 
L 360.244757 72.177231 
L 361.058428 70.848 
L 361.872098 61.543385 
L 362.685769 72.177231 
L 363.49944 69.518769 
L 364.31311 61.543385 
L 365.940451 61.543385 
L 366.754122 68.189538 
L 367.567792 72.177231 
L 368.381463 64.201846 
L 369.195133 78.823385 
L 370.008804 66.860308 
L 370.822474 78.823385 
L 371.636145 69.518769 
L 372.449815 68.189538 
L 373.263486 61.543385 
L 374.077157 68.189538 
L 374.890827 70.848 
L 376.518168 65.531077 
L 377.331839 65.531077 
L 378.145509 61.543385 
L 378.95918 82.811077 
L 379.77285 60.214154 
L 380.586521 66.860308 
L 381.400191 74.835692 
L 382.213862 68.189538 
L 383.027532 76.164923 
L 383.841203 65.531077 
L 384.654874 69.518769 
L 385.468544 58.884923 
L 386.282215 58.884923 
L 387.909556 74.835692 
L 388.723226 64.201846 
L 389.536897 76.164923 
L 390.350567 53.568 
L 391.164238 70.848 
L 391.977908 64.201846 
L 392.791579 65.531077 
L 393.605249 82.811077 
L 394.41892 62.872615 
L 395.232591 64.201846 
L 396.046261 66.860308 
L 396.859932 68.189538 
L 397.673602 72.177231 
L 398.487273 62.872615 
L 398.487273 62.872615 
" style="fill:none;stroke:#1f77b4;stroke-linecap:square;stroke-width:1.5;"/>
   </g>
   <g id="line2d_16">
    <path clip-path="url(#p57318be4ee)" d="M 73.832727 287.512615 
L 74.646398 286.139077 
L 75.460068 286.980923 
L 76.273739 286.294154 
L 77.087409 286.249846 
L 77.90108 288.022154 
L 78.714751 283.347692 
L 79.528421 283.657846 
L 80.342092 285.097846 
L 81.969433 286.028308 
L 82.783103 287.379692 
L 83.596774 285.828923 
L 84.410444 285.319385 
L 85.224115 286.382769 
L 86.037785 286.161231 
L 86.851456 284.145231 
L 87.665126 286.537846 
L 88.478797 286.493538 
L 89.292468 287.158154 
L 90.106138 282.217846 
L 90.919809 284.787692 
L 91.733479 283.524923 
L 92.54715 282.904615 
L 93.36082 283.968 
L 94.174491 281.265231 
L 94.988161 279.249231 
L 95.801832 278.363077 
L 96.615502 273.976615 
L 97.429173 276.103385 
L 98.242843 274.486154 
L 99.056514 269.856 
L 99.870185 260.219077 
L 100.683855 262.899692 
L 101.497526 268.903385 
L 102.311196 266.089846 
L 103.124867 255.478154 
L 103.938537 256.430769 
L 104.752208 256.076308 
L 106.379549 254.636308 
L 107.193219 253.528615 
L 108.00689 259.222154 
L 108.82056 258.624 
L 109.634231 262.722462 
L 110.447902 254.791385 
L 111.261572 255.744 
L 112.075243 252.841846 
L 112.888913 254.459077 
L 113.702584 256.630154 
L 115.329925 253.462154 
L 116.143595 255.057231 
L 116.957266 253.262769 
L 117.770936 251.933538 
L 118.584607 252.221538 
L 119.398278 253.528615 
L 120.211948 252.664615 
L 121.025619 252.310154 
L 121.839289 254.990769 
L 122.65296 252.310154 
L 124.280301 251.778462 
L 125.093971 254.215385 
L 125.907642 251.446154 
L 126.721312 252.066462 
L 128.348653 257.294769 
L 129.162324 248.211692 
L 129.975995 256.408615 
L 130.789665 250.493538 
L 131.603336 249.319385 
L 132.417006 252.753231 
L 133.230677 247.192615 
L 134.044347 244.002462 
L 134.858018 246.594462 
L 135.671688 255.921231 
L 136.485359 246.948923 
L 137.299029 253.728 
L 138.1127 249.939692 
L 138.92637 248.566154 
L 139.740041 245.220923 
L 140.553712 244.667077 
L 141.367382 245.065846 
L 142.181053 242.340923 
L 142.994723 242.119385 
L 143.808394 239.859692 
L 144.622064 243.227077 
L 145.435735 241.764923 
L 146.249405 241.388308 
L 147.063076 239.305846 
L 147.876746 239.106462 
L 148.690417 243.515077 
L 149.504087 240.324923 
L 150.317758 234.764308 
L 151.131429 234.963692 
L 151.945099 238.796308 
L 152.75877 236.580923 
L 153.57244 238.685538 
L 154.386111 238.176 
L 155.199781 234.033231 
L 156.013452 233.501538 
L 156.827122 235.451077 
L 157.640793 229.292308 
L 158.454463 230.665846 
L 159.268134 232.260923 
L 160.081805 233.590154 
L 160.895475 225.016615 
L 161.709146 231.241846 
L 162.522816 228.361846 
L 163.336487 226.921846 
L 164.150157 221.516308 
L 164.963828 222.624 
L 165.777498 221.272615 
L 166.591169 224.152615 
L 167.404839 230.887385 
L 168.21851 218.968615 
L 169.03218 217.44 
L 169.845851 218.304 
L 171.473192 223.288615 
L 172.286863 219.854769 
L 173.100533 222.601846 
L 173.914204 211.591385 
L 174.727874 216.642462 
L 175.541545 216.465231 
L 176.355215 211.126154 
L 177.168886 212.233846 
L 177.982556 207.758769 
L 178.796227 211.059692 
L 179.609897 221.272615 
L 180.423568 211.015385 
L 181.237239 203.571692 
L 182.050909 211.325538 
L 182.86458 201.289846 
L 183.67825 210.882462 
L 184.491921 200.913231 
L 185.305591 202.907077 
L 186.119262 205.211077 
L 186.932932 197.368615 
L 187.746603 199.960615 
L 188.560273 190.478769 
L 189.373944 201.068308 
L 190.187614 194.289231 
L 191.001285 195.396923 
L 191.814956 214.870154 
L 192.628626 191.032615 
L 193.442297 184.032 
L 194.255967 196.416 
L 195.069638 191.076923 
L 195.883308 182.791385 
L 196.696979 197.678769 
L 197.510649 185.051077 
L 198.32432 188.883692 
L 199.13799 186.557538 
L 199.951661 176.256 
L 200.765332 180.864 
L 201.579002 190.944 
L 202.392673 183.987692 
L 203.206343 178.958769 
L 204.020014 180.553846 
L 204.833684 183.876923 
L 205.647355 176.256 
L 206.461025 177.031385 
L 207.274696 175.214769 
L 208.088366 168.945231 
L 208.902037 176.987077 
L 209.715707 177.097846 
L 210.529378 173.796923 
L 211.343049 173.309538 
L 212.156719 171.382154 
L 212.97039 165.112615 
L 213.78406 167.970462 
L 214.597731 175.015385 
L 215.411401 173.752615 
L 216.225072 164.049231 
L 217.038742 167.084308 
L 217.852413 164.736 
L 218.666083 160.283077 
L 219.479754 159.042462 
L 220.293424 158.998154 
L 221.107095 158.001231 
L 221.920766 161.922462 
L 222.734436 158.488615 
L 223.548107 159.684923 
L 224.361777 163.584 
L 225.175448 157.646769 
L 225.989118 165.156923 
L 226.802789 154.545231 
L 227.616459 152.219077 
L 228.43013 160.925538 
L 229.2438 152.994462 
L 230.057471 149.604923 
L 230.871141 149.405538 
L 231.684812 147.389538 
L 232.498483 148.918154 
L 233.312153 152.219077 
L 234.125824 154.966154 
L 234.939494 148.32 
L 235.753165 149.405538 
L 236.566835 153.703385 
L 237.380506 146.924308 
L 238.194176 143.091692 
L 239.007847 146.525538 
L 239.821517 147.854769 
L 240.635188 148.297846 
L 241.448859 143.313231 
L 242.262529 148.009846 
L 243.0762 145.595077 
L 243.88987 141.518769 
L 244.703541 139.968 
L 245.517211 135.803077 
L 246.330882 151.443692 
L 247.144552 142.249846 
L 247.958223 146.968615 
L 248.771893 138.217846 
L 250.399234 143.579077 
L 251.212905 143.778462 
L 252.026576 139.436308 
L 252.840246 140.322462 
L 253.653917 134.340923 
L 254.467587 144.310154 
L 255.281258 136.844308 
L 256.094928 145.284923 
L 256.908599 130.818462 
L 257.722269 130.619077 
L 258.53594 128.027077 
L 259.34961 131.904 
L 260.163281 138.683077 
L 260.976951 136.578462 
L 261.790622 133.211077 
L 262.604293 137.686154 
L 263.417963 135.537231 
L 264.231634 131.350154 
L 265.045304 134.318769 
L 265.858975 126.72 
L 266.672645 131.771077 
L 267.486316 128.292923 
L 268.299986 131.350154 
L 269.113657 124.460308 
L 269.927327 134.540308 
L 270.740998 125.700923 
L 271.554668 122.555077 
L 272.368339 126.166154 
L 273.18201 132.923077 
L 273.99568 126.188308 
L 274.809351 133.853538 
L 275.623021 119.741538 
L 276.436692 125.878154 
L 277.250362 130.796308 
L 278.064033 124.969846 
L 278.877703 130.884923 
L 279.691374 125.900308 
L 280.505044 124.548923 
L 281.318715 124.482462 
L 282.132386 132.369231 
L 283.759727 119.830154 
L 284.573397 126.609231 
L 285.387068 123.707077 
L 286.200738 134.784 
L 287.014409 126.188308 
L 287.828079 135.581538 
L 288.64175 131.948308 
L 289.45542 126.210462 
L 290.269091 124.349538 
L 291.082761 124.327385 
L 291.896432 115.731692 
L 292.710103 125.900308 
L 293.523773 118.500923 
L 294.337444 121.314462 
L 295.151114 134.828308 
L 295.964785 119.940923 
L 296.778455 124.482462 
L 297.592126 122.577231 
L 298.405796 117.858462 
L 299.219467 120.251077 
L 300.033137 123.197538 
L 300.846808 121.602462 
L 301.660478 129.511385 
L 302.474149 125.944615 
L 303.28782 129.046154 
L 304.10149 120.627692 
L 304.915161 116.019692 
L 305.728831 112.763077 
L 306.542502 119.564308 
L 307.356172 112.475077 
L 308.169843 114.845538 
L 308.983513 126.897231 
L 309.797184 119.342769 
L 310.610854 115.598769 
L 311.424525 127.805538 
L 312.238195 127.163077 
L 313.051866 123.640615 
L 313.865537 114.934154 
L 314.679207 122.134154 
L 315.492878 127.428923 
L 316.306548 114.912 
L 317.120219 117.481846 
L 317.933889 114.845538 
L 318.74756 121.358769 
L 319.56123 119.254154 
L 320.374901 115.776 
L 321.188571 119.963077 
L 322.002242 120.605538 
L 322.815913 119.298462 
L 323.629583 113.804308 
L 324.443254 114.269538 
L 325.256924 109.661538 
L 326.070595 116.086154 
L 326.884265 114.491077 
L 327.697936 114.513231 
L 328.511606 114.867692 
L 329.325277 112.873846 
L 330.138947 112.718769 
L 330.952618 116.152615 
L 331.766288 112.297846 
L 332.579959 113.294769 
L 333.39363 112.231385 
L 334.2073 114.513231 
L 335.020971 111.012923 
L 335.834641 105.474462 
L 337.461982 115.532308 
L 338.275653 120.516923 
L 339.089323 108.974769 
L 339.902994 113.228308 
L 340.716664 108.930462 
L 341.530335 111.256615 
L 342.344005 110.326154 
L 343.157676 114.491077 
L 343.971347 112.763077 
L 344.785017 112.164923 
L 345.598688 116.041846 
L 346.412358 111.544615 
L 347.226029 111.588923 
L 348.039699 109.927385 
L 349.66704 119.564308 
L 350.480711 118.788923 
L 351.294381 123.662769 
L 352.108052 106.803692 
L 352.921722 114.468923 
L 353.735393 115.377231 
L 354.549064 114.225231 
L 355.362734 111.921231 
L 356.176405 110.813538 
L 356.990075 116.795077 
L 357.803746 108.664615 
L 358.617416 111.478154 
L 359.431087 113.272615 
L 360.244757 112.962462 
L 361.058428 113.449846 
L 361.872098 121.890462 
L 363.49944 110.016 
L 364.31311 114.601846 
L 365.126781 113.538462 
L 365.940451 111.788308 
L 367.567792 104.411077 
L 368.381463 108.265846 
L 369.195133 115.731692 
L 370.008804 116.329846 
L 370.822474 107.712 
L 371.636145 110.370462 
L 372.449815 108.598154 
L 373.263486 109.993846 
L 374.077157 111.123692 
L 374.890827 106.094769 
L 375.704498 107.313231 
L 376.518168 110.990769 
L 377.331839 105.319385 
L 378.145509 108.376615 
L 378.95918 109.661538 
L 379.77285 107.512615 
L 380.586521 109.196308 
L 381.400191 112.231385 
L 382.213862 111.611077 
L 383.027532 111.212308 
L 384.654874 112.896 
L 385.468544 121.314462 
L 386.282215 105.762462 
L 387.095885 107.579077 
L 387.909556 113.538462 
L 388.723226 108.022154 
L 389.536897 111.899077 
L 390.350567 113.516308 
L 391.164238 111.566769 
L 391.977908 110.902154 
L 392.791579 105.474462 
L 393.605249 103.857231 
L 394.41892 114.402462 
L 395.232591 105.696 
L 396.046261 109.196308 
L 396.859932 111.411692 
L 397.673602 116.617846 
L 398.487273 109.883077 
L 398.487273 109.883077 
" style="fill:none;stroke:#ff7f0e;stroke-linecap:square;stroke-width:1.5;"/>
   </g>
   <g id="patch_3">
    <path d="M 57.6 307.584 
L 57.6 41.472 
" style="fill:none;stroke:#000000;stroke-linecap:square;stroke-linejoin:miter;stroke-width:0.8;"/>
   </g>
   <g id="patch_4">
    <path d="M 414.72 307.584 
L 414.72 41.472 
" style="fill:none;stroke:#000000;stroke-linecap:square;stroke-linejoin:miter;stroke-width:0.8;"/>
   </g>
   <g id="patch_5">
    <path d="M 57.6 307.584 
L 414.72 307.584 
" style="fill:none;stroke:#000000;stroke-linecap:square;stroke-linejoin:miter;stroke-width:0.8;"/>
   </g>
   <g id="patch_6">
    <path d="M 57.6 41.472 
L 414.72 41.472 
" style="fill:none;stroke:#000000;stroke-linecap:square;stroke-linejoin:miter;stroke-width:0.8;"/>
   </g>
   <g id="legend_1">
    <g id="patch_7">
     <path d="M 64.6 78.82825 
L 168.475 78.82825 
Q 170.475 78.82825 170.475 76.82825 
L 170.475 48.472 
Q 170.475 46.472 168.475 46.472 
L 64.6 46.472 
Q 62.6 46.472 62.6 48.472 
L 62.6 76.82825 
Q 62.6 78.82825 64.6 78.82825 
z
" style="fill:#ffffff;opacity:0.8;stroke:#cccccc;stroke-linejoin:miter;"/>
    </g>
    <g id="line2d_17">
     <path d="M 66.6 54.570437 
L 86.6 54.570437 
" style="fill:none;stroke:#1f77b4;stroke-linecap:square;stroke-width:1.5;"/>
    </g>
    <g id="line2d_18"/>
    <g id="text_17">
     <!-- Train loss -->
     <g transform="translate(94.6 58.070437)scale(0.1 -0.1)">
      <defs>
       <path d="M -19 4666 
L 3928 4666 
L 3928 4134 
L 2272 4134 
L 2272 0 
L 1638 0 
L 1638 4134 
L -19 4134 
L -19 4666 
z
" id="DejaVuSans-54" transform="scale(0.015625)"/>
       <path d="M 2631 2963 
Q 2534 3019 2420 3045 
Q 2306 3072 2169 3072 
Q 1681 3072 1420 2755 
Q 1159 2438 1159 1844 
L 1159 0 
L 581 0 
L 581 3500 
L 1159 3500 
L 1159 2956 
Q 1341 3275 1631 3429 
Q 1922 3584 2338 3584 
Q 2397 3584 2469 3576 
Q 2541 3569 2628 3553 
L 2631 2963 
z
" id="DejaVuSans-72" transform="scale(0.015625)"/>
       <path d="M 2194 1759 
Q 1497 1759 1228 1600 
Q 959 1441 959 1056 
Q 959 750 1161 570 
Q 1363 391 1709 391 
Q 2188 391 2477 730 
Q 2766 1069 2766 1631 
L 2766 1759 
L 2194 1759 
z
M 3341 1997 
L 3341 0 
L 2766 0 
L 2766 531 
Q 2569 213 2275 61 
Q 1981 -91 1556 -91 
Q 1019 -91 701 211 
Q 384 513 384 1019 
Q 384 1609 779 1909 
Q 1175 2209 1959 2209 
L 2766 2209 
L 2766 2266 
Q 2766 2663 2505 2880 
Q 2244 3097 1772 3097 
Q 1472 3097 1187 3025 
Q 903 2953 641 2809 
L 641 3341 
Q 956 3463 1253 3523 
Q 1550 3584 1831 3584 
Q 2591 3584 2966 3190 
Q 3341 2797 3341 1997 
z
" id="DejaVuSans-61" transform="scale(0.015625)"/>
       <path d="M 603 3500 
L 1178 3500 
L 1178 0 
L 603 0 
L 603 3500 
z
M 603 4863 
L 1178 4863 
L 1178 4134 
L 603 4134 
L 603 4863 
z
" id="DejaVuSans-69" transform="scale(0.015625)"/>
       <path d="M 3513 2113 
L 3513 0 
L 2938 0 
L 2938 2094 
Q 2938 2591 2744 2837 
Q 2550 3084 2163 3084 
Q 1697 3084 1428 2787 
Q 1159 2491 1159 1978 
L 1159 0 
L 581 0 
L 581 3500 
L 1159 3500 
L 1159 2956 
Q 1366 3272 1645 3428 
Q 1925 3584 2291 3584 
Q 2894 3584 3203 3211 
Q 3513 2838 3513 2113 
z
" id="DejaVuSans-6e" transform="scale(0.015625)"/>
       <path id="DejaVuSans-20" transform="scale(0.015625)"/>
       <path d="M 603 4863 
L 1178 4863 
L 1178 0 
L 603 0 
L 603 4863 
z
" id="DejaVuSans-6c" transform="scale(0.015625)"/>
      </defs>
      <use xlink:href="#DejaVuSans-54"/>
      <use x="46.333984" xlink:href="#DejaVuSans-72"/>
      <use x="87.447266" xlink:href="#DejaVuSans-61"/>
      <use x="148.726562" xlink:href="#DejaVuSans-69"/>
      <use x="176.509766" xlink:href="#DejaVuSans-6e"/>
      <use x="239.888672" xlink:href="#DejaVuSans-20"/>
      <use x="271.675781" xlink:href="#DejaVuSans-6c"/>
      <use x="299.458984" xlink:href="#DejaVuSans-6f"/>
      <use x="360.640625" xlink:href="#DejaVuSans-73"/>
      <use x="412.740234" xlink:href="#DejaVuSans-73"/>
     </g>
    </g>
    <g id="line2d_19">
     <path d="M 66.6 69.248562 
L 86.6 69.248562 
" style="fill:none;stroke:#ff7f0e;stroke-linecap:square;stroke-width:1.5;"/>
    </g>
    <g id="line2d_20"/>
    <g id="text_18">
     <!-- Validation loss -->
     <g transform="translate(94.6 72.748562)scale(0.1 -0.1)">
      <defs>
       <path d="M 1831 0 
L 50 4666 
L 709 4666 
L 2188 738 
L 3669 4666 
L 4325 4666 
L 2547 0 
L 1831 0 
z
" id="DejaVuSans-56" transform="scale(0.015625)"/>
       <path d="M 2906 2969 
L 2906 4863 
L 3481 4863 
L 3481 0 
L 2906 0 
L 2906 525 
Q 2725 213 2448 61 
Q 2172 -91 1784 -91 
Q 1150 -91 751 415 
Q 353 922 353 1747 
Q 353 2572 751 3078 
Q 1150 3584 1784 3584 
Q 2172 3584 2448 3432 
Q 2725 3281 2906 2969 
z
M 947 1747 
Q 947 1113 1208 752 
Q 1469 391 1925 391 
Q 2381 391 2643 752 
Q 2906 1113 2906 1747 
Q 2906 2381 2643 2742 
Q 2381 3103 1925 3103 
Q 1469 3103 1208 2742 
Q 947 2381 947 1747 
z
" id="DejaVuSans-64" transform="scale(0.015625)"/>
       <path d="M 1172 4494 
L 1172 3500 
L 2356 3500 
L 2356 3053 
L 1172 3053 
L 1172 1153 
Q 1172 725 1289 603 
Q 1406 481 1766 481 
L 2356 481 
L 2356 0 
L 1766 0 
Q 1100 0 847 248 
Q 594 497 594 1153 
L 594 3053 
L 172 3053 
L 172 3500 
L 594 3500 
L 594 4494 
L 1172 4494 
z
" id="DejaVuSans-74" transform="scale(0.015625)"/>
      </defs>
      <use xlink:href="#DejaVuSans-56"/>
      <use x="60.658203" xlink:href="#DejaVuSans-61"/>
      <use x="121.9375" xlink:href="#DejaVuSans-6c"/>
      <use x="149.720703" xlink:href="#DejaVuSans-69"/>
      <use x="177.503906" xlink:href="#DejaVuSans-64"/>
      <use x="240.980469" xlink:href="#DejaVuSans-61"/>
      <use x="302.259766" xlink:href="#DejaVuSans-74"/>
      <use x="341.46875" xlink:href="#DejaVuSans-69"/>
      <use x="369.251953" xlink:href="#DejaVuSans-6f"/>
      <use x="430.433594" xlink:href="#DejaVuSans-6e"/>
      <use x="493.8125" xlink:href="#DejaVuSans-20"/>
      <use x="525.599609" xlink:href="#DejaVuSans-6c"/>
      <use x="553.382812" xlink:href="#DejaVuSans-6f"/>
      <use x="614.564453" xlink:href="#DejaVuSans-73"/>
      <use x="666.664062" xlink:href="#DejaVuSans-73"/>
     </g>
    </g>
   </g>
  </g>
 </g>
 <defs>
  <clipPath id="p57318be4ee">
   <rect height="266.112" width="357.12" x="57.6" y="41.472"/>
  </clipPath>
 </defs>
</svg>
