<?xml version="1.0" encoding="utf-8" standalone="no"?>
<!DOCTYPE svg PUBLIC "-//W3C//DTD SVG 1.1//EN"
  "http://www.w3.org/Graphics/SVG/1.1/DTD/svg11.dtd">
<svg height="345.6pt" version="1.1" viewBox="0 0 460.8 345.6" width="460.8pt" xmlns="http://www.w3.org/2000/svg" xmlns:xlink="http://www.w3.org/1999/xlink">
 <metadata>
  <rdf:RDF xmlns:cc="http://creativecommons.org/ns#" xmlns:dc="http://purl.org/dc/elements/1.1/" xmlns:rdf="http://www.w3.org/1999/02/22-rdf-syntax-ns#">
   <cc:Work>
    <dc:type rdf:resource="http://purl.org/dc/dcmitype/StillImage"/>
    <dc:date>2021-07-16T02:14:02.344442</dc:date>
    <dc:format>image/svg+xml</dc:format>
    <dc:creator>
     <cc:Agent>
      <dc:title>Matplotlib v3.4.2, https://matplotlib.org/</dc:title>
     </cc:Agent>
    </dc:creator>
   </cc:Work>
  </rdf:RDF>
 </metadata>
 <defs>
  <style type="text/css">*{stroke-linecap:butt;stroke-linejoin:round;}</style>
 </defs>
 <g id="figure_1">
  <g id="patch_1">
   <path d="M 0 345.6 
L 460.8 345.6 
L 460.8 0 
L 0 0 
z
" style="fill:#ffffff;"/>
  </g>
  <g id="axes_1">
   <g id="patch_2">
    <path d="M 57.6 307.584 
L 414.72 307.584 
L 414.72 41.472 
L 57.6 41.472 
z
" style="fill:#ffffff;"/>
   </g>
   <g id="matplotlib.axis_1">
    <g id="xtick_1">
     <g id="line2d_1">
      <defs>
       <path d="M 0 0 
L 0 3.5 
" id="m07ee21a74e" style="stroke:#000000;stroke-width:0.8;"/>
      </defs>
      <g>
       <use style="stroke:#000000;stroke-width:0.8;" x="73.019057" xlink:href="#m07ee21a74e" y="307.584"/>
      </g>
     </g>
     <g id="text_1">
      <!-- 0 -->
      <g transform="translate(69.837807 322.182437)scale(0.1 -0.1)">
       <defs>
        <path d="M 2034 4250 
Q 1547 4250 1301 3770 
Q 1056 3291 1056 2328 
Q 1056 1369 1301 889 
Q 1547 409 2034 409 
Q 2525 409 2770 889 
Q 3016 1369 3016 2328 
Q 3016 3291 2770 3770 
Q 2525 4250 2034 4250 
z
M 2034 4750 
Q 2819 4750 3233 4129 
Q 3647 3509 3647 2328 
Q 3647 1150 3233 529 
Q 2819 -91 2034 -91 
Q 1250 -91 836 529 
Q 422 1150 422 2328 
Q 422 3509 836 4129 
Q 1250 4750 2034 4750 
z
" id="DejaVuSans-30" transform="scale(0.015625)"/>
       </defs>
       <use xlink:href="#DejaVuSans-30"/>
      </g>
     </g>
    </g>
    <g id="xtick_2">
     <g id="line2d_2">
      <g>
       <use style="stroke:#000000;stroke-width:0.8;" x="113.702584" xlink:href="#m07ee21a74e" y="307.584"/>
      </g>
     </g>
     <g id="text_2">
      <!-- 50 -->
      <g transform="translate(107.340084 322.182437)scale(0.1 -0.1)">
       <defs>
        <path d="M 691 4666 
L 3169 4666 
L 3169 4134 
L 1269 4134 
L 1269 2991 
Q 1406 3038 1543 3061 
Q 1681 3084 1819 3084 
Q 2600 3084 3056 2656 
Q 3513 2228 3513 1497 
Q 3513 744 3044 326 
Q 2575 -91 1722 -91 
Q 1428 -91 1123 -41 
Q 819 9 494 109 
L 494 744 
Q 775 591 1075 516 
Q 1375 441 1709 441 
Q 2250 441 2565 725 
Q 2881 1009 2881 1497 
Q 2881 1984 2565 2268 
Q 2250 2553 1709 2553 
Q 1456 2553 1204 2497 
Q 953 2441 691 2322 
L 691 4666 
z
" id="DejaVuSans-35" transform="scale(0.015625)"/>
       </defs>
       <use xlink:href="#DejaVuSans-35"/>
       <use x="63.623047" xlink:href="#DejaVuSans-30"/>
      </g>
     </g>
    </g>
    <g id="xtick_3">
     <g id="line2d_3">
      <g>
       <use style="stroke:#000000;stroke-width:0.8;" x="154.386111" xlink:href="#m07ee21a74e" y="307.584"/>
      </g>
     </g>
     <g id="text_3">
      <!-- 100 -->
      <g transform="translate(144.842361 322.182437)scale(0.1 -0.1)">
       <defs>
        <path d="M 794 531 
L 1825 531 
L 1825 4091 
L 703 3866 
L 703 4441 
L 1819 4666 
L 2450 4666 
L 2450 531 
L 3481 531 
L 3481 0 
L 794 0 
L 794 531 
z
" id="DejaVuSans-31" transform="scale(0.015625)"/>
       </defs>
       <use xlink:href="#DejaVuSans-31"/>
       <use x="63.623047" xlink:href="#DejaVuSans-30"/>
       <use x="127.246094" xlink:href="#DejaVuSans-30"/>
      </g>
     </g>
    </g>
    <g id="xtick_4">
     <g id="line2d_4">
      <g>
       <use style="stroke:#000000;stroke-width:0.8;" x="195.069638" xlink:href="#m07ee21a74e" y="307.584"/>
      </g>
     </g>
     <g id="text_4">
      <!-- 150 -->
      <g transform="translate(185.525888 322.182437)scale(0.1 -0.1)">
       <use xlink:href="#DejaVuSans-31"/>
       <use x="63.623047" xlink:href="#DejaVuSans-35"/>
       <use x="127.246094" xlink:href="#DejaVuSans-30"/>
      </g>
     </g>
    </g>
    <g id="xtick_5">
     <g id="line2d_5">
      <g>
       <use style="stroke:#000000;stroke-width:0.8;" x="235.753165" xlink:href="#m07ee21a74e" y="307.584"/>
      </g>
     </g>
     <g id="text_5">
      <!-- 200 -->
      <g transform="translate(226.209415 322.182437)scale(0.1 -0.1)">
       <defs>
        <path d="M 1228 531 
L 3431 531 
L 3431 0 
L 469 0 
L 469 531 
Q 828 903 1448 1529 
Q 2069 2156 2228 2338 
Q 2531 2678 2651 2914 
Q 2772 3150 2772 3378 
Q 2772 3750 2511 3984 
Q 2250 4219 1831 4219 
Q 1534 4219 1204 4116 
Q 875 4013 500 3803 
L 500 4441 
Q 881 4594 1212 4672 
Q 1544 4750 1819 4750 
Q 2544 4750 2975 4387 
Q 3406 4025 3406 3419 
Q 3406 3131 3298 2873 
Q 3191 2616 2906 2266 
Q 2828 2175 2409 1742 
Q 1991 1309 1228 531 
z
" id="DejaVuSans-32" transform="scale(0.015625)"/>
       </defs>
       <use xlink:href="#DejaVuSans-32"/>
       <use x="63.623047" xlink:href="#DejaVuSans-30"/>
       <use x="127.246094" xlink:href="#DejaVuSans-30"/>
      </g>
     </g>
    </g>
    <g id="xtick_6">
     <g id="line2d_6">
      <g>
       <use style="stroke:#000000;stroke-width:0.8;" x="276.436692" xlink:href="#m07ee21a74e" y="307.584"/>
      </g>
     </g>
     <g id="text_6">
      <!-- 250 -->
      <g transform="translate(266.892942 322.182437)scale(0.1 -0.1)">
       <use xlink:href="#DejaVuSans-32"/>
       <use x="63.623047" xlink:href="#DejaVuSans-35"/>
       <use x="127.246094" xlink:href="#DejaVuSans-30"/>
      </g>
     </g>
    </g>
    <g id="xtick_7">
     <g id="line2d_7">
      <g>
       <use style="stroke:#000000;stroke-width:0.8;" x="317.120219" xlink:href="#m07ee21a74e" y="307.584"/>
      </g>
     </g>
     <g id="text_7">
      <!-- 300 -->
      <g transform="translate(307.576469 322.182437)scale(0.1 -0.1)">
       <defs>
        <path d="M 2597 2516 
Q 3050 2419 3304 2112 
Q 3559 1806 3559 1356 
Q 3559 666 3084 287 
Q 2609 -91 1734 -91 
Q 1441 -91 1130 -33 
Q 819 25 488 141 
L 488 750 
Q 750 597 1062 519 
Q 1375 441 1716 441 
Q 2309 441 2620 675 
Q 2931 909 2931 1356 
Q 2931 1769 2642 2001 
Q 2353 2234 1838 2234 
L 1294 2234 
L 1294 2753 
L 1863 2753 
Q 2328 2753 2575 2939 
Q 2822 3125 2822 3475 
Q 2822 3834 2567 4026 
Q 2313 4219 1838 4219 
Q 1578 4219 1281 4162 
Q 984 4106 628 3988 
L 628 4550 
Q 988 4650 1302 4700 
Q 1616 4750 1894 4750 
Q 2613 4750 3031 4423 
Q 3450 4097 3450 3541 
Q 3450 3153 3228 2886 
Q 3006 2619 2597 2516 
z
" id="DejaVuSans-33" transform="scale(0.015625)"/>
       </defs>
       <use xlink:href="#DejaVuSans-33"/>
       <use x="63.623047" xlink:href="#DejaVuSans-30"/>
       <use x="127.246094" xlink:href="#DejaVuSans-30"/>
      </g>
     </g>
    </g>
    <g id="xtick_8">
     <g id="line2d_8">
      <g>
       <use style="stroke:#000000;stroke-width:0.8;" x="357.803746" xlink:href="#m07ee21a74e" y="307.584"/>
      </g>
     </g>
     <g id="text_8">
      <!-- 350 -->
      <g transform="translate(348.259996 322.182437)scale(0.1 -0.1)">
       <use xlink:href="#DejaVuSans-33"/>
       <use x="63.623047" xlink:href="#DejaVuSans-35"/>
       <use x="127.246094" xlink:href="#DejaVuSans-30"/>
      </g>
     </g>
    </g>
    <g id="xtick_9">
     <g id="line2d_9">
      <g>
       <use style="stroke:#000000;stroke-width:0.8;" x="398.487273" xlink:href="#m07ee21a74e" y="307.584"/>
      </g>
     </g>
     <g id="text_9">
      <!-- 400 -->
      <g transform="translate(388.943523 322.182437)scale(0.1 -0.1)">
       <defs>
        <path d="M 2419 4116 
L 825 1625 
L 2419 1625 
L 2419 4116 
z
M 2253 4666 
L 3047 4666 
L 3047 1625 
L 3713 1625 
L 3713 1100 
L 3047 1100 
L 3047 0 
L 2419 0 
L 2419 1100 
L 313 1100 
L 313 1709 
L 2253 4666 
z
" id="DejaVuSans-34" transform="scale(0.015625)"/>
       </defs>
       <use xlink:href="#DejaVuSans-34"/>
       <use x="63.623047" xlink:href="#DejaVuSans-30"/>
       <use x="127.246094" xlink:href="#DejaVuSans-30"/>
      </g>
     </g>
    </g>
    <g id="text_10">
     <!-- Epoch -->
     <g transform="translate(213.193594 339.659781)scale(0.15 -0.15)">
      <defs>
       <path d="M 628 4666 
L 3578 4666 
L 3578 4134 
L 1259 4134 
L 1259 2753 
L 3481 2753 
L 3481 2222 
L 1259 2222 
L 1259 531 
L 3634 531 
L 3634 0 
L 628 0 
L 628 4666 
z
" id="DejaVuSans-45" transform="scale(0.015625)"/>
       <path d="M 1159 525 
L 1159 -1331 
L 581 -1331 
L 581 3500 
L 1159 3500 
L 1159 2969 
Q 1341 3281 1617 3432 
Q 1894 3584 2278 3584 
Q 2916 3584 3314 3078 
Q 3713 2572 3713 1747 
Q 3713 922 3314 415 
Q 2916 -91 2278 -91 
Q 1894 -91 1617 61 
Q 1341 213 1159 525 
z
M 3116 1747 
Q 3116 2381 2855 2742 
Q 2594 3103 2138 3103 
Q 1681 3103 1420 2742 
Q 1159 2381 1159 1747 
Q 1159 1113 1420 752 
Q 1681 391 2138 391 
Q 2594 391 2855 752 
Q 3116 1113 3116 1747 
z
" id="DejaVuSans-70" transform="scale(0.015625)"/>
       <path d="M 1959 3097 
Q 1497 3097 1228 2736 
Q 959 2375 959 1747 
Q 959 1119 1226 758 
Q 1494 397 1959 397 
Q 2419 397 2687 759 
Q 2956 1122 2956 1747 
Q 2956 2369 2687 2733 
Q 2419 3097 1959 3097 
z
M 1959 3584 
Q 2709 3584 3137 3096 
Q 3566 2609 3566 1747 
Q 3566 888 3137 398 
Q 2709 -91 1959 -91 
Q 1206 -91 779 398 
Q 353 888 353 1747 
Q 353 2609 779 3096 
Q 1206 3584 1959 3584 
z
" id="DejaVuSans-6f" transform="scale(0.015625)"/>
       <path d="M 3122 3366 
L 3122 2828 
Q 2878 2963 2633 3030 
Q 2388 3097 2138 3097 
Q 1578 3097 1268 2742 
Q 959 2388 959 1747 
Q 959 1106 1268 751 
Q 1578 397 2138 397 
Q 2388 397 2633 464 
Q 2878 531 3122 666 
L 3122 134 
Q 2881 22 2623 -34 
Q 2366 -91 2075 -91 
Q 1284 -91 818 406 
Q 353 903 353 1747 
Q 353 2603 823 3093 
Q 1294 3584 2113 3584 
Q 2378 3584 2631 3529 
Q 2884 3475 3122 3366 
z
" id="DejaVuSans-63" transform="scale(0.015625)"/>
       <path d="M 3513 2113 
L 3513 0 
L 2938 0 
L 2938 2094 
Q 2938 2591 2744 2837 
Q 2550 3084 2163 3084 
Q 1697 3084 1428 2787 
Q 1159 2491 1159 1978 
L 1159 0 
L 581 0 
L 581 4863 
L 1159 4863 
L 1159 2956 
Q 1366 3272 1645 3428 
Q 1925 3584 2291 3584 
Q 2894 3584 3203 3211 
Q 3513 2838 3513 2113 
z
" id="DejaVuSans-68" transform="scale(0.015625)"/>
      </defs>
      <use xlink:href="#DejaVuSans-45"/>
      <use x="63.183594" xlink:href="#DejaVuSans-70"/>
      <use x="126.660156" xlink:href="#DejaVuSans-6f"/>
      <use x="187.841797" xlink:href="#DejaVuSans-63"/>
      <use x="242.822266" xlink:href="#DejaVuSans-68"/>
     </g>
    </g>
   </g>
   <g id="matplotlib.axis_2">
    <g id="ytick_1">
     <g id="line2d_10">
      <defs>
       <path d="M 0 0 
L -3.5 0 
" id="m9653a68b2d" style="stroke:#000000;stroke-width:0.8;"/>
      </defs>
      <g>
       <use style="stroke:#000000;stroke-width:0.8;" x="57.6" xlink:href="#m9653a68b2d" y="303.349302"/>
      </g>
     </g>
     <g id="text_11">
      <!-- 0.20 -->
      <g transform="translate(28.334375 307.148521)scale(0.1 -0.1)">
       <defs>
        <path d="M 684 794 
L 1344 794 
L 1344 0 
L 684 0 
L 684 794 
z
" id="DejaVuSans-2e" transform="scale(0.015625)"/>
       </defs>
       <use xlink:href="#DejaVuSans-30"/>
       <use x="63.623047" xlink:href="#DejaVuSans-2e"/>
       <use x="95.410156" xlink:href="#DejaVuSans-32"/>
       <use x="159.033203" xlink:href="#DejaVuSans-30"/>
      </g>
     </g>
    </g>
    <g id="ytick_2">
     <g id="line2d_11">
      <g>
       <use style="stroke:#000000;stroke-width:0.8;" x="57.6" xlink:href="#m9653a68b2d" y="272.636429"/>
      </g>
     </g>
     <g id="text_12">
      <!-- 0.22 -->
      <g transform="translate(28.334375 276.435648)scale(0.1 -0.1)">
       <use xlink:href="#DejaVuSans-30"/>
       <use x="63.623047" xlink:href="#DejaVuSans-2e"/>
       <use x="95.410156" xlink:href="#DejaVuSans-32"/>
       <use x="159.033203" xlink:href="#DejaVuSans-32"/>
      </g>
     </g>
    </g>
    <g id="ytick_3">
     <g id="line2d_12">
      <g>
       <use style="stroke:#000000;stroke-width:0.8;" x="57.6" xlink:href="#m9653a68b2d" y="241.923557"/>
      </g>
     </g>
     <g id="text_13">
      <!-- 0.24 -->
      <g transform="translate(28.334375 245.722776)scale(0.1 -0.1)">
       <use xlink:href="#DejaVuSans-30"/>
       <use x="63.623047" xlink:href="#DejaVuSans-2e"/>
       <use x="95.410156" xlink:href="#DejaVuSans-32"/>
       <use x="159.033203" xlink:href="#DejaVuSans-34"/>
      </g>
     </g>
    </g>
    <g id="ytick_4">
     <g id="line2d_13">
      <g>
       <use style="stroke:#000000;stroke-width:0.8;" x="57.6" xlink:href="#m9653a68b2d" y="211.210684"/>
      </g>
     </g>
     <g id="text_14">
      <!-- 0.26 -->
      <g transform="translate(28.334375 215.009903)scale(0.1 -0.1)">
       <defs>
        <path d="M 2113 2584 
Q 1688 2584 1439 2293 
Q 1191 2003 1191 1497 
Q 1191 994 1439 701 
Q 1688 409 2113 409 
Q 2538 409 2786 701 
Q 3034 994 3034 1497 
Q 3034 2003 2786 2293 
Q 2538 2584 2113 2584 
z
M 3366 4563 
L 3366 3988 
Q 3128 4100 2886 4159 
Q 2644 4219 2406 4219 
Q 1781 4219 1451 3797 
Q 1122 3375 1075 2522 
Q 1259 2794 1537 2939 
Q 1816 3084 2150 3084 
Q 2853 3084 3261 2657 
Q 3669 2231 3669 1497 
Q 3669 778 3244 343 
Q 2819 -91 2113 -91 
Q 1303 -91 875 529 
Q 447 1150 447 2328 
Q 447 3434 972 4092 
Q 1497 4750 2381 4750 
Q 2619 4750 2861 4703 
Q 3103 4656 3366 4563 
z
" id="DejaVuSans-36" transform="scale(0.015625)"/>
       </defs>
       <use xlink:href="#DejaVuSans-30"/>
       <use x="63.623047" xlink:href="#DejaVuSans-2e"/>
       <use x="95.410156" xlink:href="#DejaVuSans-32"/>
       <use x="159.033203" xlink:href="#DejaVuSans-36"/>
      </g>
     </g>
    </g>
    <g id="ytick_5">
     <g id="line2d_14">
      <g>
       <use style="stroke:#000000;stroke-width:0.8;" x="57.6" xlink:href="#m9653a68b2d" y="180.497812"/>
      </g>
     </g>
     <g id="text_15">
      <!-- 0.28 -->
      <g transform="translate(28.334375 184.297031)scale(0.1 -0.1)">
       <defs>
        <path d="M 2034 2216 
Q 1584 2216 1326 1975 
Q 1069 1734 1069 1313 
Q 1069 891 1326 650 
Q 1584 409 2034 409 
Q 2484 409 2743 651 
Q 3003 894 3003 1313 
Q 3003 1734 2745 1975 
Q 2488 2216 2034 2216 
z
M 1403 2484 
Q 997 2584 770 2862 
Q 544 3141 544 3541 
Q 544 4100 942 4425 
Q 1341 4750 2034 4750 
Q 2731 4750 3128 4425 
Q 3525 4100 3525 3541 
Q 3525 3141 3298 2862 
Q 3072 2584 2669 2484 
Q 3125 2378 3379 2068 
Q 3634 1759 3634 1313 
Q 3634 634 3220 271 
Q 2806 -91 2034 -91 
Q 1263 -91 848 271 
Q 434 634 434 1313 
Q 434 1759 690 2068 
Q 947 2378 1403 2484 
z
M 1172 3481 
Q 1172 3119 1398 2916 
Q 1625 2713 2034 2713 
Q 2441 2713 2670 2916 
Q 2900 3119 2900 3481 
Q 2900 3844 2670 4047 
Q 2441 4250 2034 4250 
Q 1625 4250 1398 4047 
Q 1172 3844 1172 3481 
z
" id="DejaVuSans-38" transform="scale(0.015625)"/>
       </defs>
       <use xlink:href="#DejaVuSans-30"/>
       <use x="63.623047" xlink:href="#DejaVuSans-2e"/>
       <use x="95.410156" xlink:href="#DejaVuSans-32"/>
       <use x="159.033203" xlink:href="#DejaVuSans-38"/>
      </g>
     </g>
    </g>
    <g id="ytick_6">
     <g id="line2d_15">
      <g>
       <use style="stroke:#000000;stroke-width:0.8;" x="57.6" xlink:href="#m9653a68b2d" y="149.784939"/>
      </g>
     </g>
     <g id="text_16">
      <!-- 0.30 -->
      <g transform="translate(28.334375 153.584158)scale(0.1 -0.1)">
       <use xlink:href="#DejaVuSans-30"/>
       <use x="63.623047" xlink:href="#DejaVuSans-2e"/>
       <use x="95.410156" xlink:href="#DejaVuSans-33"/>
       <use x="159.033203" xlink:href="#DejaVuSans-30"/>
      </g>
     </g>
    </g>
    <g id="ytick_7">
     <g id="line2d_16">
      <g>
       <use style="stroke:#000000;stroke-width:0.8;" x="57.6" xlink:href="#m9653a68b2d" y="119.072067"/>
      </g>
     </g>
     <g id="text_17">
      <!-- 0.32 -->
      <g transform="translate(28.334375 122.871285)scale(0.1 -0.1)">
       <use xlink:href="#DejaVuSans-30"/>
       <use x="63.623047" xlink:href="#DejaVuSans-2e"/>
       <use x="95.410156" xlink:href="#DejaVuSans-33"/>
       <use x="159.033203" xlink:href="#DejaVuSans-32"/>
      </g>
     </g>
    </g>
    <g id="ytick_8">
     <g id="line2d_17">
      <g>
       <use style="stroke:#000000;stroke-width:0.8;" x="57.6" xlink:href="#m9653a68b2d" y="88.359194"/>
      </g>
     </g>
     <g id="text_18">
      <!-- 0.34 -->
      <g transform="translate(28.334375 92.158413)scale(0.1 -0.1)">
       <use xlink:href="#DejaVuSans-30"/>
       <use x="63.623047" xlink:href="#DejaVuSans-2e"/>
       <use x="95.410156" xlink:href="#DejaVuSans-33"/>
       <use x="159.033203" xlink:href="#DejaVuSans-34"/>
      </g>
     </g>
    </g>
    <g id="ytick_9">
     <g id="line2d_18">
      <g>
       <use style="stroke:#000000;stroke-width:0.8;" x="57.6" xlink:href="#m9653a68b2d" y="57.646322"/>
      </g>
     </g>
     <g id="text_19">
      <!-- 0.36 -->
      <g transform="translate(28.334375 61.44554)scale(0.1 -0.1)">
       <use xlink:href="#DejaVuSans-30"/>
       <use x="63.623047" xlink:href="#DejaVuSans-2e"/>
       <use x="95.410156" xlink:href="#DejaVuSans-33"/>
       <use x="159.033203" xlink:href="#DejaVuSans-36"/>
      </g>
     </g>
    </g>
    <g id="text_20">
     <!-- Loss -->
     <g transform="translate(21.214844 190.978781)rotate(-90)scale(0.15 -0.15)">
      <defs>
       <path d="M 628 4666 
L 1259 4666 
L 1259 531 
L 3531 531 
L 3531 0 
L 628 0 
L 628 4666 
z
" id="DejaVuSans-4c" transform="scale(0.015625)"/>
       <path d="M 2834 3397 
L 2834 2853 
Q 2591 2978 2328 3040 
Q 2066 3103 1784 3103 
Q 1356 3103 1142 2972 
Q 928 2841 928 2578 
Q 928 2378 1081 2264 
Q 1234 2150 1697 2047 
L 1894 2003 
Q 2506 1872 2764 1633 
Q 3022 1394 3022 966 
Q 3022 478 2636 193 
Q 2250 -91 1575 -91 
Q 1294 -91 989 -36 
Q 684 19 347 128 
L 347 722 
Q 666 556 975 473 
Q 1284 391 1588 391 
Q 1994 391 2212 530 
Q 2431 669 2431 922 
Q 2431 1156 2273 1281 
Q 2116 1406 1581 1522 
L 1381 1569 
Q 847 1681 609 1914 
Q 372 2147 372 2553 
Q 372 3047 722 3315 
Q 1072 3584 1716 3584 
Q 2034 3584 2315 3537 
Q 2597 3491 2834 3397 
z
" id="DejaVuSans-73" transform="scale(0.015625)"/>
      </defs>
      <use xlink:href="#DejaVuSans-4c"/>
      <use x="53.962891" xlink:href="#DejaVuSans-6f"/>
      <use x="115.144531" xlink:href="#DejaVuSans-73"/>
      <use x="167.244141" xlink:href="#DejaVuSans-73"/>
     </g>
    </g>
   </g>
   <g id="line2d_19">
    <path clip-path="url(#p9ec1d78649)" d="M 73.832727 80.833991 
L 74.646398 97.111028 
L 75.460068 53.568 
L 76.273739 75.346138 
L 77.087409 85.758105 
L 77.90108 89.73114 
L 78.714751 86.910353 
L 79.528421 61.087436 
L 80.342092 81.198193 
L 81.155762 64.428479 
L 81.969433 114.891614 
L 82.783103 97.333092 
L 83.596774 63.92648 
L 84.410444 69.994271 
L 85.224115 83.89642 
L 86.037785 56.655811 
L 86.851456 62.051795 
L 87.665126 76.845167 
L 88.478797 75.952742 
L 89.292468 102.463411 
L 90.106138 74.035389 
L 90.919809 106.772039 
L 91.733479 110.582795 
L 92.54715 103.440722 
L 93.36082 94.70003 
L 94.174491 55.657023 
L 94.988161 80.232476 
L 95.801832 63.102748 
L 96.615502 62.669495 
L 97.429173 91.75777 
L 98.242843 104.772577 
L 99.056514 91.08612 
L 99.870185 72.054137 
L 100.683855 66.709232 
L 101.497526 77.858243 
L 102.311196 71.361916 
L 103.124867 95.835088 
L 103.938537 63.94073 
L 104.752208 66.767334 
L 105.565878 113.589527 
L 106.379549 110.75277 
L 107.193219 91.81718 
L 108.00689 92.575916 
L 108.82056 101.143256 
L 109.634231 114.490291 
L 110.447902 87.163225 
L 111.261572 77.965667 
L 112.075243 112.119644 
L 112.888913 103.850164 
L 113.702584 99.557236 
L 114.516254 75.067836 
L 115.329925 132.29058 
L 116.143595 64.028487 
L 117.770936 121.655114 
L 118.584607 71.166612 
L 119.398278 75.553873 
L 120.211948 116.437124 
L 121.025619 68.09102 
L 121.839289 100.305992 
L 122.65296 117.144623 
L 123.46663 124.859196 
L 124.280301 59.567085 
L 125.093971 109.217778 
L 125.907642 87.005199 
L 126.721312 87.488365 
L 127.534983 124.935522 
L 128.348653 112.835784 
L 129.162324 119.2126 
L 129.975995 97.467645 
L 130.789665 114.724415 
L 131.603336 106.674379 
L 132.417006 104.63895 
L 133.230677 106.293927 
L 134.044347 116.489856 
L 134.858018 147.13629 
L 135.671688 107.075295 
L 136.485359 128.690029 
L 137.299029 80.726999 
L 138.1127 117.614462 
L 138.92637 109.513416 
L 139.740041 120.406694 
L 140.553712 117.696066 
L 141.367382 143.271651 
L 142.181053 97.808638 
L 142.994723 124.661139 
L 143.808394 104.687567 
L 144.622064 117.495683 
L 145.435735 101.020166 
L 146.249405 107.498142 
L 147.063076 99.140653 
L 147.876746 158.484388 
L 148.690417 127.648114 
L 149.504087 137.443185 
L 150.317758 159.776566 
L 151.131429 113.782115 
L 151.945099 128.34586 
L 152.75877 127.793342 
L 153.57244 131.39617 
L 154.386111 129.196593 
L 156.013452 131.902892 
L 156.827122 140.787973 
L 157.640793 104.619181 
L 158.454463 124.519751 
L 159.268134 116.531613 
L 160.081805 126.84766 
L 160.895475 132.255228 
L 161.709146 106.719139 
L 162.522816 122.779242 
L 163.336487 119.702435 
L 164.150157 143.929184 
L 164.963828 144.812141 
L 165.777498 117.740203 
L 166.591169 125.571542 
L 167.404839 151.081384 
L 168.21851 130.498503 
L 169.03218 115.976432 
L 169.845851 116.629878 
L 170.659522 149.214741 
L 171.473192 123.155974 
L 172.286863 127.720489 
L 173.100533 142.422391 
L 173.914204 137.935207 
L 174.727874 112.615966 
L 175.541545 166.002689 
L 176.355215 134.164331 
L 177.168886 121.669561 
L 177.982556 138.732002 
L 178.796227 140.954537 
L 179.609897 156.624737 
L 180.423568 114.513222 
L 181.237239 165.407309 
L 182.050909 135.719072 
L 182.86458 149.818583 
L 183.67825 146.998986 
L 184.491921 138.22309 
L 185.305591 175.907006 
L 186.119262 139.275044 
L 186.932932 146.882244 
L 187.746603 178.669618 
L 188.560273 143.414087 
L 189.373944 129.717653 
L 190.187614 156.003531 
L 191.001285 156.361674 
L 192.628626 140.470179 
L 193.442297 165.146901 
L 194.255967 119.502076 
L 195.069638 126.838241 
L 195.883308 164.046768 
L 196.696979 184.108181 
L 197.510649 134.268812 
L 198.32432 139.00783 
L 199.13799 184.681384 
L 199.951661 152.932263 
L 200.765332 133.66906 
L 202.392673 165.640453 
L 203.206343 158.954302 
L 204.020014 167.41229 
L 204.833684 177.101042 
L 205.647355 159.122606 
L 207.274696 176.654144 
L 208.088366 165.583831 
L 208.902037 161.17656 
L 209.715707 176.068167 
L 210.529378 168.32391 
L 211.343049 162.420145 
L 212.97039 138.214839 
L 213.78406 191.284053 
L 215.411401 153.003953 
L 216.225072 185.44979 
L 217.038742 178.779952 
L 217.852413 179.018403 
L 218.666083 165.774308 
L 219.479754 198.258102 
L 220.293424 186.977743 
L 221.107095 163.285741 
L 221.920766 209.558998 
L 222.734436 168.907703 
L 223.548107 173.356786 
L 224.361777 170.64757 
L 225.175448 174.298879 
L 225.989118 186.957129 
L 226.802789 171.077031 
L 227.616459 189.815212 
L 228.43013 192.3689 
L 229.2438 199.050218 
L 230.057471 185.016318 
L 230.871141 219.940713 
L 231.684812 170.645692 
L 232.498483 203.214451 
L 234.125824 154.142213 
L 234.939494 181.053831 
L 235.753165 198.812587 
L 236.566835 175.778213 
L 237.380506 223.77808 
L 238.194176 146.278467 
L 239.007847 182.142003 
L 239.821517 192.054606 
L 240.635188 180.701137 
L 241.448859 187.385823 
L 242.262529 208.083832 
L 243.0762 208.222066 
L 243.88987 182.880967 
L 244.703541 235.480078 
L 245.517211 198.091046 
L 246.330882 188.500372 
L 247.144552 168.948945 
L 247.958223 205.052196 
L 248.771893 211.879788 
L 249.585564 215.409289 
L 250.399234 220.263418 
L 251.212905 211.615374 
L 252.026576 195.594773 
L 252.840246 199.82874 
L 253.653917 207.71072 
L 254.467587 201.10214 
L 255.281258 184.763557 
L 256.094928 195.450201 
L 256.908599 199.718597 
L 257.722269 220.489012 
L 258.53594 204.001859 
L 259.34961 209.333282 
L 260.163281 198.405788 
L 260.976951 181.079346 
L 261.790622 189.859816 
L 262.604293 190.130554 
L 263.417963 202.587937 
L 264.231634 204.768836 
L 265.045304 211.512422 
L 265.858975 184.130354 
L 266.672645 208.125056 
L 267.486316 192.608703 
L 268.299986 193.773217 
L 269.113657 197.722179 
L 269.927327 219.01529 
L 270.740998 177.100939 
L 271.554668 199.424426 
L 272.368339 197.101346 
L 273.18201 191.708373 
L 273.99568 208.122153 
L 274.809351 196.970401 
L 275.623021 210.650156 
L 276.436692 191.972087 
L 277.250362 215.597898 
L 278.064033 219.824644 
L 278.877703 192.148188 
L 279.691374 194.153672 
L 280.505044 219.24738 
L 281.318715 223.144355 
L 282.132386 242.422472 
L 282.946056 212.42307 
L 283.759727 211.132475 
L 284.573397 217.655965 
L 285.387068 221.73134 
L 286.200738 221.054971 
L 287.014409 222.599881 
L 287.828079 223.352313 
L 288.64175 235.288447 
L 289.45542 202.829752 
L 290.269091 238.019373 
L 291.082761 209.070296 
L 291.896432 226.526151 
L 293.523773 217.651623 
L 294.337444 215.852259 
L 295.151114 218.708734 
L 295.964785 198.780761 
L 296.778455 224.165259 
L 297.592126 238.057373 
L 298.405796 216.248972 
L 299.219467 217.787581 
L 300.033137 202.309236 
L 300.846808 242.947206 
L 301.660478 221.897143 
L 302.474149 242.07699 
L 303.28782 226.433556 
L 304.10149 206.790972 
L 304.915161 212.709482 
L 305.728831 251.28635 
L 306.542502 227.328572 
L 307.356172 209.893922 
L 308.169843 248.509126 
L 308.983513 244.322696 
L 309.797184 251.767182 
L 310.610854 221.17792 
L 311.424525 232.341362 
L 312.238195 220.344215 
L 313.051866 251.497537 
L 313.865537 255.552528 
L 314.679207 222.718142 
L 315.492878 236.821498 
L 316.306548 232.877231 
L 317.120219 219.143678 
L 317.933889 251.675197 
L 318.74756 241.2969 
L 319.56123 225.827022 
L 320.374901 215.732594 
L 321.188571 247.392262 
L 322.002242 237.145717 
L 322.815913 237.235892 
L 323.629583 217.941301 
L 324.443254 234.134085 
L 325.256924 217.861756 
L 326.070595 204.956187 
L 326.884265 221.469529 
L 327.697936 251.884272 
L 328.511606 252.128305 
L 329.325277 253.993087 
L 330.138947 234.726759 
L 330.952618 244.253787 
L 331.766288 239.639325 
L 332.579959 241.992459 
L 333.39363 219.954395 
L 334.2073 219.342955 
L 335.020971 233.481821 
L 335.834641 234.265602 
L 336.648312 218.473313 
L 337.461982 244.953249 
L 338.275653 227.24226 
L 339.089323 262.534603 
L 339.902994 243.026688 
L 340.716664 253.872808 
L 341.530335 217.477553 
L 343.157676 252.056862 
L 343.971347 237.450044 
L 344.785017 234.156947 
L 345.598688 222.400052 
L 346.412358 256.021787 
L 347.226029 258.375364 
L 348.039699 248.278588 
L 348.85337 255.189072 
L 349.66704 242.214381 
L 350.480711 249.182063 
L 351.294381 227.68901 
L 352.108052 232.076609 
L 352.921722 258.290695 
L 353.735393 266.846845 
L 354.549064 249.599804 
L 355.362734 258.521287 
L 356.176405 235.470399 
L 356.990075 259.125171 
L 357.803746 264.286937 
L 358.617416 216.534007 
L 359.431087 237.98891 
L 360.244757 229.912946 
L 361.058428 249.15971 
L 361.872098 243.205221 
L 362.685769 249.692707 
L 363.49944 258.176998 
L 364.31311 259.319154 
L 365.126781 252.008776 
L 365.940451 282.124357 
L 366.754122 233.508916 
L 367.567792 271.809135 
L 368.381463 225.313919 
L 369.195133 225.755376 
L 370.008804 266.171639 
L 370.822474 295.488 
L 371.636145 243.010038 
L 372.449815 269.10107 
L 373.263486 273.137605 
L 374.077157 214.048523 
L 374.890827 261.030589 
L 375.704498 233.750821 
L 376.518168 274.839478 
L 377.331839 263.035207 
L 378.145509 236.313609 
L 378.95918 246.098233 
L 379.77285 268.585171 
L 380.586521 233.392711 
L 381.400191 230.778041 
L 382.213862 260.158989 
L 383.027532 269.339152 
L 383.841203 259.205765 
L 384.654874 255.490342 
L 385.468544 272.714715 
L 386.282215 250.023824 
L 387.095885 248.917959 
L 387.909556 269.305687 
L 388.723226 257.773649 
L 389.536897 259.940975 
L 390.350567 241.011348 
L 391.164238 251.541307 
L 391.977908 265.850845 
L 392.791579 250.137479 
L 393.605249 256.673116 
L 394.41892 277.208141 
L 395.232591 266.990376 
L 396.046261 249.100162 
L 396.859932 268.516148 
L 397.673602 243.676733 
L 398.487273 255.840583 
L 398.487273 255.840583 
" style="fill:none;stroke:#1f77b4;stroke-linecap:square;stroke-width:1.5;"/>
   </g>
   <g id="line2d_20">
    <path clip-path="url(#p9ec1d78649)" d="M 73.832727 84.202559 
L 74.646398 84.749976 
L 75.460068 93.015098 
L 76.273739 75.14283 
L 77.087409 77.611031 
L 77.90108 70.80104 
L 78.714751 84.113624 
L 79.528421 93.761906 
L 80.342092 80.346799 
L 81.155762 113.904902 
L 81.969433 73.472368 
L 82.783103 69.389361 
L 83.596774 74.598092 
L 84.410444 87.129096 
L 85.224115 104.997202 
L 86.037785 78.528224 
L 86.851456 87.162974 
L 87.665126 83.331378 
L 88.478797 78.259465 
L 89.292468 68.070995 
L 90.106138 76.355351 
L 90.919809 71.938641 
L 91.733479 92.189376 
L 92.54715 69.367619 
L 93.36082 113.609091 
L 94.174491 75.987088 
L 94.988161 80.940837 
L 95.801832 82.435545 
L 96.615502 90.23093 
L 97.429173 84.81577 
L 98.242843 74.465521 
L 99.056514 84.845141 
L 99.870185 86.406887 
L 100.683855 80.625117 
L 101.497526 76.977255 
L 102.311196 78.233527 
L 103.124867 92.04707 
L 103.938537 69.246407 
L 104.752208 70.622908 
L 105.565878 102.939288 
L 106.379549 100.768313 
L 107.193219 97.309311 
L 108.00689 113.296772 
L 108.82056 95.675396 
L 109.634231 74.886566 
L 110.447902 89.152119 
L 111.261572 83.887971 
L 112.075243 75.057733 
L 112.888913 96.73412 
L 113.702584 101.305493 
L 114.516254 100.860925 
L 115.329925 92.734973 
L 116.143595 104.212337 
L 116.957266 106.30636 
L 117.770936 107.768245 
L 118.584607 86.972479 
L 119.398278 81.298677 
L 120.211948 125.877997 
L 121.025619 124.96429 
L 121.839289 86.000825 
L 122.65296 105.209777 
L 123.46663 103.642417 
L 124.280301 81.048135 
L 125.093971 100.480929 
L 125.907642 108.796354 
L 126.721312 102.814907 
L 127.534983 66.201393 
L 128.348653 104.308886 
L 129.162324 101.595628 
L 129.975995 100.549673 
L 130.789665 113.606244 
L 131.603336 131.156376 
L 132.417006 110.563733 
L 133.230677 122.250809 
L 134.044347 112.086939 
L 134.858018 129.187824 
L 135.671688 77.820251 
L 136.485359 93.117588 
L 137.299029 105.157563 
L 138.1127 111.810103 
L 138.92637 102.081174 
L 139.740041 131.893851 
L 140.553712 120.585184 
L 141.367382 135.11339 
L 142.994723 103.866798 
L 143.808394 120.787385 
L 144.622064 128.643692 
L 145.435735 99.650209 
L 146.249405 113.545559 
L 147.063076 124.250794 
L 147.876746 126.230461 
L 148.690417 104.675723 
L 149.504087 136.349116 
L 150.317758 137.305252 
L 151.131429 149.506183 
L 151.945099 136.435142 
L 152.75877 109.061038 
L 153.57244 100.934958 
L 154.386111 132.59066 
L 155.199781 107.625889 
L 156.013452 132.727156 
L 156.827122 143.950855 
L 157.640793 150.512529 
L 158.454463 133.480875 
L 159.268134 136.797491 
L 160.081805 133.400937 
L 160.895475 121.639696 
L 161.709146 145.664063 
L 162.522816 130.233379 
L 163.336487 136.420153 
L 164.150157 105.927391 
L 164.963828 143.682675 
L 165.777498 143.822605 
L 166.591169 120.921316 
L 167.404839 152.745281 
L 168.21851 142.543987 
L 169.03218 143.187242 
L 169.845851 150.924633 
L 170.659522 103.038781 
L 171.473192 138.032788 
L 172.286863 122.644867 
L 173.100533 150.506972 
L 173.914204 150.979098 
L 174.727874 154.948067 
L 175.541545 126.94554 
L 176.355215 137.867665 
L 177.168886 140.06413 
L 177.982556 155.774916 
L 178.796227 128.834576 
L 179.609897 145.793893 
L 180.423568 142.708684 
L 181.237239 130.151503 
L 182.050909 153.927997 
L 182.86458 152.472645 
L 183.67825 152.629314 
L 184.491921 144.129768 
L 186.119262 164.469809 
L 186.932932 160.59175 
L 187.746603 147.833377 
L 188.560273 126.602774 
L 189.373944 159.352 
L 190.187614 160.422626 
L 191.001285 148.232391 
L 191.814956 156.037105 
L 192.628626 127.056861 
L 193.442297 171.759808 
L 194.255967 160.501473 
L 195.069638 158.467042 
L 195.883308 151.342868 
L 196.696979 166.315042 
L 197.510649 165.815317 
L 198.32432 145.316101 
L 199.13799 156.774077 
L 199.951661 165.929015 
L 200.765332 183.949165 
L 201.579002 168.965808 
L 202.392673 164.87914 
L 203.206343 163.345408 
L 204.020014 164.479577 
L 204.833684 192.014264 
L 205.647355 155.50096 
L 206.461025 183.236289 
L 207.274696 168.371006 
L 208.088366 140.914149 
L 208.902037 186.73272 
L 209.715707 170.545272 
L 210.529378 166.180085 
L 211.343049 167.575349 
L 212.156719 172.602931 
L 212.97039 197.529878 
L 213.78406 156.736906 
L 214.597731 174.37107 
L 215.411401 179.24476 
L 216.225072 173.706765 
L 217.038742 173.23916 
L 217.852413 176.736618 
L 218.666083 183.485353 
L 219.479754 177.195055 
L 220.293424 159.619562 
L 221.107095 186.769815 
L 221.920766 172.856404 
L 222.734436 186.865785 
L 223.548107 192.952027 
L 224.361777 146.935911 
L 225.175448 170.234956 
L 225.989118 157.564175 
L 226.802789 162.444378 
L 227.616459 195.380944 
L 228.43013 186.838997 
L 229.2438 173.951734 
L 230.057471 177.897343 
L 230.871141 191.53342 
L 231.684812 189.081454 
L 232.498483 184.673974 
L 233.312153 188.596311 
L 234.125824 217.122977 
L 234.939494 171.461463 
L 235.753165 192.627183 
L 236.566835 148.00735 
L 238.194176 186.272205 
L 239.007847 161.777947 
L 239.821517 172.938835 
L 240.635188 151.040201 
L 241.448859 163.62353 
L 242.262529 196.953774 
L 243.0762 166.269366 
L 243.88987 212.533673 
L 244.703541 171.31863 
L 245.517211 206.937611 
L 246.330882 192.922677 
L 247.144552 203.625763 
L 247.958223 205.373197 
L 248.771893 198.580584 
L 249.585564 189.314496 
L 250.399234 199.682853 
L 251.212905 201.456677 
L 252.026576 201.300088 
L 252.840246 207.298919 
L 253.653917 189.415201 
L 254.467587 198.853462 
L 255.281258 202.107775 
L 256.094928 180.498122 
L 256.908599 210.547407 
L 257.722269 208.895461 
L 258.53594 172.952593 
L 259.34961 210.722712 
L 260.163281 190.889448 
L 260.976951 207.874938 
L 261.790622 207.168983 
L 262.604293 205.272665 
L 263.417963 210.265281 
L 264.231634 224.587752 
L 265.045304 194.066986 
L 265.858975 194.510024 
L 266.672645 205.526995 
L 267.486316 184.813698 
L 268.299986 185.164745 
L 269.113657 240.607466 
L 269.927327 181.198404 
L 270.740998 231.035027 
L 271.554668 238.043515 
L 272.368339 197.566972 
L 273.18201 198.336205 
L 273.99568 201.570712 
L 274.809351 220.300438 
L 275.623021 194.234476 
L 276.436692 223.606125 
L 277.250362 213.943425 
L 278.064033 218.572497 
L 278.877703 205.173507 
L 279.691374 207.973466 
L 280.505044 194.520374 
L 281.318715 231.232227 
L 282.132386 215.742854 
L 282.946056 216.838462 
L 283.759727 209.577481 
L 284.573397 205.628682 
L 285.387068 198.068388 
L 286.200738 234.555141 
L 287.014409 213.651702 
L 287.828079 228.760641 
L 288.64175 232.416497 
L 289.45542 222.05659 
L 290.269091 222.476298 
L 291.082761 209.090779 
L 291.896432 205.001089 
L 292.710103 197.995772 
L 293.523773 180.642219 
L 294.337444 204.749341 
L 295.151114 223.043225 
L 295.964785 191.343715 
L 296.778455 206.593933 
L 297.592126 259.490479 
L 298.405796 251.024076 
L 299.219467 227.853073 
L 300.033137 226.908547 
L 300.846808 235.4121 
L 301.660478 215.905177 
L 302.474149 237.839937 
L 303.28782 204.456248 
L 304.10149 201.627959 
L 304.915161 212.308418 
L 305.728831 219.169763 
L 306.542502 211.849126 
L 307.356172 245.646148 
L 308.169843 226.693724 
L 308.983513 220.03404 
L 309.797184 230.713475 
L 310.610854 223.900486 
L 311.424525 235.604044 
L 312.238195 234.586659 
L 313.051866 241.814568 
L 313.865537 234.333969 
L 314.679207 227.961171 
L 315.492878 212.961629 
L 316.306548 215.584344 
L 317.120219 246.803802 
L 317.933889 212.292183 
L 319.56123 233.489133 
L 320.374901 213.609279 
L 321.188571 215.666725 
L 322.002242 240.221064 
L 322.815913 231.364867 
L 323.629583 241.104412 
L 324.443254 220.393986 
L 325.256924 238.019657 
L 326.070595 228.04871 
L 326.884265 243.793877 
L 327.697936 230.627642 
L 328.511606 219.642407 
L 329.325277 252.247603 
L 330.138947 214.522345 
L 330.952618 248.424184 
L 331.766288 252.350605 
L 332.579959 240.631344 
L 333.39363 224.660958 
L 334.2073 241.810418 
L 335.020971 221.364955 
L 335.834641 241.131733 
L 336.648312 240.755726 
L 337.461982 247.837837 
L 338.275653 258.21815 
L 339.089323 227.590721 
L 339.902994 229.397174 
L 340.716664 229.968376 
L 341.530335 260.384699 
L 342.344005 258.393823 
L 343.157676 252.334893 
L 343.971347 229.216614 
L 344.785017 214.761443 
L 345.598688 213.012988 
L 346.412358 251.876776 
L 347.226029 241.132653 
L 348.039699 237.22269 
L 348.85337 239.124558 
L 349.66704 251.499537 
L 350.480711 248.869243 
L 351.294381 240.194714 
L 352.108052 226.517313 
L 352.921722 263.542454 
L 353.735393 230.279856 
L 354.549064 245.066954 
L 355.362734 277.717849 
L 356.176405 244.858499 
L 356.990075 230.837651 
L 357.803746 236.536735 
L 358.617416 239.537919 
L 359.431087 246.128927 
L 360.244757 249.162346 
L 361.872098 233.509106 
L 362.685769 247.5889 
L 363.49944 239.194289 
L 364.31311 243.71395 
L 365.126781 263.211884 
L 366.754122 253.865188 
L 368.381463 235.225533 
L 369.195133 237.345843 
L 370.008804 255.065863 
L 370.822474 257.744446 
L 371.636145 255.291602 
L 372.449815 254.650003 
L 373.263486 258.88822 
L 374.077157 222.367513 
L 374.890827 247.775753 
L 375.704498 244.013799 
L 376.518168 261.985693 
L 377.331839 222.813283 
L 378.145509 237.290966 
L 378.95918 264.406864 
L 379.77285 251.590188 
L 380.586521 219.59052 
L 381.400191 252.446722 
L 382.213862 261.18642 
L 383.027532 265.769022 
L 383.841203 273.080212 
L 385.468544 239.109844 
L 386.282215 241.196663 
L 387.095885 254.264227 
L 387.909556 273.555741 
L 388.723226 258.359125 
L 389.536897 254.972367 
L 390.350567 288.341528 
L 391.164238 272.252346 
L 391.977908 260.866308 
L 392.791579 229.546292 
L 393.605249 254.00488 
L 394.41892 273.117821 
L 395.232591 237.443546 
L 396.046261 237.626184 
L 396.859932 267.053378 
L 397.673602 266.41916 
L 398.487273 277.467112 
L 398.487273 277.467112 
" style="fill:none;stroke:#ff7f0e;stroke-linecap:square;stroke-width:1.5;"/>
   </g>
   <g id="patch_3">
    <path d="M 57.6 307.584 
L 57.6 41.472 
" style="fill:none;stroke:#000000;stroke-linecap:square;stroke-linejoin:miter;stroke-width:0.8;"/>
   </g>
   <g id="patch_4">
    <path d="M 414.72 307.584 
L 414.72 41.472 
" style="fill:none;stroke:#000000;stroke-linecap:square;stroke-linejoin:miter;stroke-width:0.8;"/>
   </g>
   <g id="patch_5">
    <path d="M 57.6 307.584 
L 414.72 307.584 
" style="fill:none;stroke:#000000;stroke-linecap:square;stroke-linejoin:miter;stroke-width:0.8;"/>
   </g>
   <g id="patch_6">
    <path d="M 57.6 41.472 
L 414.72 41.472 
" style="fill:none;stroke:#000000;stroke-linecap:square;stroke-linejoin:miter;stroke-width:0.8;"/>
   </g>
   <g id="legend_1">
    <g id="patch_7">
     <path d="M 303.845 78.82825 
L 407.72 78.82825 
Q 409.72 78.82825 409.72 76.82825 
L 409.72 48.472 
Q 409.72 46.472 407.72 46.472 
L 303.845 46.472 
Q 301.845 46.472 301.845 48.472 
L 301.845 76.82825 
Q 301.845 78.82825 303.845 78.82825 
z
" style="fill:#ffffff;opacity:0.8;stroke:#cccccc;stroke-linejoin:miter;"/>
    </g>
    <g id="line2d_21">
     <path d="M 305.845 54.570437 
L 325.845 54.570437 
" style="fill:none;stroke:#1f77b4;stroke-linecap:square;stroke-width:1.5;"/>
    </g>
    <g id="line2d_22"/>
    <g id="text_21">
     <!-- Train loss -->
     <g transform="translate(333.845 58.070437)scale(0.1 -0.1)">
      <defs>
       <path d="M -19 4666 
L 3928 4666 
L 3928 4134 
L 2272 4134 
L 2272 0 
L 1638 0 
L 1638 4134 
L -19 4134 
L -19 4666 
z
" id="DejaVuSans-54" transform="scale(0.015625)"/>
       <path d="M 2631 2963 
Q 2534 3019 2420 3045 
Q 2306 3072 2169 3072 
Q 1681 3072 1420 2755 
Q 1159 2438 1159 1844 
L 1159 0 
L 581 0 
L 581 3500 
L 1159 3500 
L 1159 2956 
Q 1341 3275 1631 3429 
Q 1922 3584 2338 3584 
Q 2397 3584 2469 3576 
Q 2541 3569 2628 3553 
L 2631 2963 
z
" id="DejaVuSans-72" transform="scale(0.015625)"/>
       <path d="M 2194 1759 
Q 1497 1759 1228 1600 
Q 959 1441 959 1056 
Q 959 750 1161 570 
Q 1363 391 1709 391 
Q 2188 391 2477 730 
Q 2766 1069 2766 1631 
L 2766 1759 
L 2194 1759 
z
M 3341 1997 
L 3341 0 
L 2766 0 
L 2766 531 
Q 2569 213 2275 61 
Q 1981 -91 1556 -91 
Q 1019 -91 701 211 
Q 384 513 384 1019 
Q 384 1609 779 1909 
Q 1175 2209 1959 2209 
L 2766 2209 
L 2766 2266 
Q 2766 2663 2505 2880 
Q 2244 3097 1772 3097 
Q 1472 3097 1187 3025 
Q 903 2953 641 2809 
L 641 3341 
Q 956 3463 1253 3523 
Q 1550 3584 1831 3584 
Q 2591 3584 2966 3190 
Q 3341 2797 3341 1997 
z
" id="DejaVuSans-61" transform="scale(0.015625)"/>
       <path d="M 603 3500 
L 1178 3500 
L 1178 0 
L 603 0 
L 603 3500 
z
M 603 4863 
L 1178 4863 
L 1178 4134 
L 603 4134 
L 603 4863 
z
" id="DejaVuSans-69" transform="scale(0.015625)"/>
       <path d="M 3513 2113 
L 3513 0 
L 2938 0 
L 2938 2094 
Q 2938 2591 2744 2837 
Q 2550 3084 2163 3084 
Q 1697 3084 1428 2787 
Q 1159 2491 1159 1978 
L 1159 0 
L 581 0 
L 581 3500 
L 1159 3500 
L 1159 2956 
Q 1366 3272 1645 3428 
Q 1925 3584 2291 3584 
Q 2894 3584 3203 3211 
Q 3513 2838 3513 2113 
z
" id="DejaVuSans-6e" transform="scale(0.015625)"/>
       <path id="DejaVuSans-20" transform="scale(0.015625)"/>
       <path d="M 603 4863 
L 1178 4863 
L 1178 0 
L 603 0 
L 603 4863 
z
" id="DejaVuSans-6c" transform="scale(0.015625)"/>
      </defs>
      <use xlink:href="#DejaVuSans-54"/>
      <use x="46.333984" xlink:href="#DejaVuSans-72"/>
      <use x="87.447266" xlink:href="#DejaVuSans-61"/>
      <use x="148.726562" xlink:href="#DejaVuSans-69"/>
      <use x="176.509766" xlink:href="#DejaVuSans-6e"/>
      <use x="239.888672" xlink:href="#DejaVuSans-20"/>
      <use x="271.675781" xlink:href="#DejaVuSans-6c"/>
      <use x="299.458984" xlink:href="#DejaVuSans-6f"/>
      <use x="360.640625" xlink:href="#DejaVuSans-73"/>
      <use x="412.740234" xlink:href="#DejaVuSans-73"/>
     </g>
    </g>
    <g id="line2d_23">
     <path d="M 305.845 69.248562 
L 325.845 69.248562 
" style="fill:none;stroke:#ff7f0e;stroke-linecap:square;stroke-width:1.5;"/>
    </g>
    <g id="line2d_24"/>
    <g id="text_22">
     <!-- Validation loss -->
     <g transform="translate(333.845 72.748562)scale(0.1 -0.1)">
      <defs>
       <path d="M 1831 0 
L 50 4666 
L 709 4666 
L 2188 738 
L 3669 4666 
L 4325 4666 
L 2547 0 
L 1831 0 
z
" id="DejaVuSans-56" transform="scale(0.015625)"/>
       <path d="M 2906 2969 
L 2906 4863 
L 3481 4863 
L 3481 0 
L 2906 0 
L 2906 525 
Q 2725 213 2448 61 
Q 2172 -91 1784 -91 
Q 1150 -91 751 415 
Q 353 922 353 1747 
Q 353 2572 751 3078 
Q 1150 3584 1784 3584 
Q 2172 3584 2448 3432 
Q 2725 3281 2906 2969 
z
M 947 1747 
Q 947 1113 1208 752 
Q 1469 391 1925 391 
Q 2381 391 2643 752 
Q 2906 1113 2906 1747 
Q 2906 2381 2643 2742 
Q 2381 3103 1925 3103 
Q 1469 3103 1208 2742 
Q 947 2381 947 1747 
z
" id="DejaVuSans-64" transform="scale(0.015625)"/>
       <path d="M 1172 4494 
L 1172 3500 
L 2356 3500 
L 2356 3053 
L 1172 3053 
L 1172 1153 
Q 1172 725 1289 603 
Q 1406 481 1766 481 
L 2356 481 
L 2356 0 
L 1766 0 
Q 1100 0 847 248 
Q 594 497 594 1153 
L 594 3053 
L 172 3053 
L 172 3500 
L 594 3500 
L 594 4494 
L 1172 4494 
z
" id="DejaVuSans-74" transform="scale(0.015625)"/>
      </defs>
      <use xlink:href="#DejaVuSans-56"/>
      <use x="60.658203" xlink:href="#DejaVuSans-61"/>
      <use x="121.9375" xlink:href="#DejaVuSans-6c"/>
      <use x="149.720703" xlink:href="#DejaVuSans-69"/>
      <use x="177.503906" xlink:href="#DejaVuSans-64"/>
      <use x="240.980469" xlink:href="#DejaVuSans-61"/>
      <use x="302.259766" xlink:href="#DejaVuSans-74"/>
      <use x="341.46875" xlink:href="#DejaVuSans-69"/>
      <use x="369.251953" xlink:href="#DejaVuSans-6f"/>
      <use x="430.433594" xlink:href="#DejaVuSans-6e"/>
      <use x="493.8125" xlink:href="#DejaVuSans-20"/>
      <use x="525.599609" xlink:href="#DejaVuSans-6c"/>
      <use x="553.382812" xlink:href="#DejaVuSans-6f"/>
      <use x="614.564453" xlink:href="#DejaVuSans-73"/>
      <use x="666.664062" xlink:href="#DejaVuSans-73"/>
     </g>
    </g>
   </g>
  </g>
 </g>
 <defs>
  <clipPath id="p9ec1d78649">
   <rect height="266.112" width="357.12" x="57.6" y="41.472"/>
  </clipPath>
 </defs>
</svg>
