<?xml version="1.0" encoding="utf-8" standalone="no"?>
<!DOCTYPE svg PUBLIC "-//W3C//DTD SVG 1.1//EN"
  "http://www.w3.org/Graphics/SVG/1.1/DTD/svg11.dtd">
<svg height="345.6pt" version="1.1" viewBox="0 0 460.8 345.6" width="460.8pt" xmlns="http://www.w3.org/2000/svg" xmlns:xlink="http://www.w3.org/1999/xlink">
 <metadata>
  <rdf:RDF xmlns:cc="http://creativecommons.org/ns#" xmlns:dc="http://purl.org/dc/elements/1.1/" xmlns:rdf="http://www.w3.org/1999/02/22-rdf-syntax-ns#">
   <cc:Work>
    <dc:type rdf:resource="http://purl.org/dc/dcmitype/StillImage"/>
    <dc:date>2021-07-16T14:18:24.138013</dc:date>
    <dc:format>image/svg+xml</dc:format>
    <dc:creator>
     <cc:Agent>
      <dc:title>Matplotlib v3.4.2, https://matplotlib.org/</dc:title>
     </cc:Agent>
    </dc:creator>
   </cc:Work>
  </rdf:RDF>
 </metadata>
 <defs>
  <style type="text/css">*{stroke-linecap:butt;stroke-linejoin:round;}</style>
 </defs>
 <g id="figure_1">
  <g id="patch_1">
   <path d="M 0 345.6 
L 460.8 345.6 
L 460.8 0 
L 0 0 
z
" style="fill:#ffffff;"/>
  </g>
  <g id="axes_1">
   <g id="patch_2">
    <path d="M 57.6 307.584 
L 414.72 307.584 
L 414.72 41.472 
L 57.6 41.472 
z
" style="fill:#ffffff;"/>
   </g>
   <g id="matplotlib.axis_1">
    <g id="xtick_1">
     <g id="line2d_1">
      <defs>
       <path d="M 0 0 
L 0 3.5 
" id="ma5de34bbf7" style="stroke:#000000;stroke-width:0.8;"/>
      </defs>
      <g>
       <use style="stroke:#000000;stroke-width:0.8;" x="73.019057" xlink:href="#ma5de34bbf7" y="307.584"/>
      </g>
     </g>
     <g id="text_1">
      <!-- 0 -->
      <g transform="translate(69.837807 322.182437)scale(0.1 -0.1)">
       <defs>
        <path d="M 2034 4250 
Q 1547 4250 1301 3770 
Q 1056 3291 1056 2328 
Q 1056 1369 1301 889 
Q 1547 409 2034 409 
Q 2525 409 2770 889 
Q 3016 1369 3016 2328 
Q 3016 3291 2770 3770 
Q 2525 4250 2034 4250 
z
M 2034 4750 
Q 2819 4750 3233 4129 
Q 3647 3509 3647 2328 
Q 3647 1150 3233 529 
Q 2819 -91 2034 -91 
Q 1250 -91 836 529 
Q 422 1150 422 2328 
Q 422 3509 836 4129 
Q 1250 4750 2034 4750 
z
" id="DejaVuSans-30" transform="scale(0.015625)"/>
       </defs>
       <use xlink:href="#DejaVuSans-30"/>
      </g>
     </g>
    </g>
    <g id="xtick_2">
     <g id="line2d_2">
      <g>
       <use style="stroke:#000000;stroke-width:0.8;" x="113.702584" xlink:href="#ma5de34bbf7" y="307.584"/>
      </g>
     </g>
     <g id="text_2">
      <!-- 50 -->
      <g transform="translate(107.340084 322.182437)scale(0.1 -0.1)">
       <defs>
        <path d="M 691 4666 
L 3169 4666 
L 3169 4134 
L 1269 4134 
L 1269 2991 
Q 1406 3038 1543 3061 
Q 1681 3084 1819 3084 
Q 2600 3084 3056 2656 
Q 3513 2228 3513 1497 
Q 3513 744 3044 326 
Q 2575 -91 1722 -91 
Q 1428 -91 1123 -41 
Q 819 9 494 109 
L 494 744 
Q 775 591 1075 516 
Q 1375 441 1709 441 
Q 2250 441 2565 725 
Q 2881 1009 2881 1497 
Q 2881 1984 2565 2268 
Q 2250 2553 1709 2553 
Q 1456 2553 1204 2497 
Q 953 2441 691 2322 
L 691 4666 
z
" id="DejaVuSans-35" transform="scale(0.015625)"/>
       </defs>
       <use xlink:href="#DejaVuSans-35"/>
       <use x="63.623047" xlink:href="#DejaVuSans-30"/>
      </g>
     </g>
    </g>
    <g id="xtick_3">
     <g id="line2d_3">
      <g>
       <use style="stroke:#000000;stroke-width:0.8;" x="154.386111" xlink:href="#ma5de34bbf7" y="307.584"/>
      </g>
     </g>
     <g id="text_3">
      <!-- 100 -->
      <g transform="translate(144.842361 322.182437)scale(0.1 -0.1)">
       <defs>
        <path d="M 794 531 
L 1825 531 
L 1825 4091 
L 703 3866 
L 703 4441 
L 1819 4666 
L 2450 4666 
L 2450 531 
L 3481 531 
L 3481 0 
L 794 0 
L 794 531 
z
" id="DejaVuSans-31" transform="scale(0.015625)"/>
       </defs>
       <use xlink:href="#DejaVuSans-31"/>
       <use x="63.623047" xlink:href="#DejaVuSans-30"/>
       <use x="127.246094" xlink:href="#DejaVuSans-30"/>
      </g>
     </g>
    </g>
    <g id="xtick_4">
     <g id="line2d_4">
      <g>
       <use style="stroke:#000000;stroke-width:0.8;" x="195.069638" xlink:href="#ma5de34bbf7" y="307.584"/>
      </g>
     </g>
     <g id="text_4">
      <!-- 150 -->
      <g transform="translate(185.525888 322.182437)scale(0.1 -0.1)">
       <use xlink:href="#DejaVuSans-31"/>
       <use x="63.623047" xlink:href="#DejaVuSans-35"/>
       <use x="127.246094" xlink:href="#DejaVuSans-30"/>
      </g>
     </g>
    </g>
    <g id="xtick_5">
     <g id="line2d_5">
      <g>
       <use style="stroke:#000000;stroke-width:0.8;" x="235.753165" xlink:href="#ma5de34bbf7" y="307.584"/>
      </g>
     </g>
     <g id="text_5">
      <!-- 200 -->
      <g transform="translate(226.209415 322.182437)scale(0.1 -0.1)">
       <defs>
        <path d="M 1228 531 
L 3431 531 
L 3431 0 
L 469 0 
L 469 531 
Q 828 903 1448 1529 
Q 2069 2156 2228 2338 
Q 2531 2678 2651 2914 
Q 2772 3150 2772 3378 
Q 2772 3750 2511 3984 
Q 2250 4219 1831 4219 
Q 1534 4219 1204 4116 
Q 875 4013 500 3803 
L 500 4441 
Q 881 4594 1212 4672 
Q 1544 4750 1819 4750 
Q 2544 4750 2975 4387 
Q 3406 4025 3406 3419 
Q 3406 3131 3298 2873 
Q 3191 2616 2906 2266 
Q 2828 2175 2409 1742 
Q 1991 1309 1228 531 
z
" id="DejaVuSans-32" transform="scale(0.015625)"/>
       </defs>
       <use xlink:href="#DejaVuSans-32"/>
       <use x="63.623047" xlink:href="#DejaVuSans-30"/>
       <use x="127.246094" xlink:href="#DejaVuSans-30"/>
      </g>
     </g>
    </g>
    <g id="xtick_6">
     <g id="line2d_6">
      <g>
       <use style="stroke:#000000;stroke-width:0.8;" x="276.436692" xlink:href="#ma5de34bbf7" y="307.584"/>
      </g>
     </g>
     <g id="text_6">
      <!-- 250 -->
      <g transform="translate(266.892942 322.182437)scale(0.1 -0.1)">
       <use xlink:href="#DejaVuSans-32"/>
       <use x="63.623047" xlink:href="#DejaVuSans-35"/>
       <use x="127.246094" xlink:href="#DejaVuSans-30"/>
      </g>
     </g>
    </g>
    <g id="xtick_7">
     <g id="line2d_7">
      <g>
       <use style="stroke:#000000;stroke-width:0.8;" x="317.120219" xlink:href="#ma5de34bbf7" y="307.584"/>
      </g>
     </g>
     <g id="text_7">
      <!-- 300 -->
      <g transform="translate(307.576469 322.182437)scale(0.1 -0.1)">
       <defs>
        <path d="M 2597 2516 
Q 3050 2419 3304 2112 
Q 3559 1806 3559 1356 
Q 3559 666 3084 287 
Q 2609 -91 1734 -91 
Q 1441 -91 1130 -33 
Q 819 25 488 141 
L 488 750 
Q 750 597 1062 519 
Q 1375 441 1716 441 
Q 2309 441 2620 675 
Q 2931 909 2931 1356 
Q 2931 1769 2642 2001 
Q 2353 2234 1838 2234 
L 1294 2234 
L 1294 2753 
L 1863 2753 
Q 2328 2753 2575 2939 
Q 2822 3125 2822 3475 
Q 2822 3834 2567 4026 
Q 2313 4219 1838 4219 
Q 1578 4219 1281 4162 
Q 984 4106 628 3988 
L 628 4550 
Q 988 4650 1302 4700 
Q 1616 4750 1894 4750 
Q 2613 4750 3031 4423 
Q 3450 4097 3450 3541 
Q 3450 3153 3228 2886 
Q 3006 2619 2597 2516 
z
" id="DejaVuSans-33" transform="scale(0.015625)"/>
       </defs>
       <use xlink:href="#DejaVuSans-33"/>
       <use x="63.623047" xlink:href="#DejaVuSans-30"/>
       <use x="127.246094" xlink:href="#DejaVuSans-30"/>
      </g>
     </g>
    </g>
    <g id="xtick_8">
     <g id="line2d_8">
      <g>
       <use style="stroke:#000000;stroke-width:0.8;" x="357.803746" xlink:href="#ma5de34bbf7" y="307.584"/>
      </g>
     </g>
     <g id="text_8">
      <!-- 350 -->
      <g transform="translate(348.259996 322.182437)scale(0.1 -0.1)">
       <use xlink:href="#DejaVuSans-33"/>
       <use x="63.623047" xlink:href="#DejaVuSans-35"/>
       <use x="127.246094" xlink:href="#DejaVuSans-30"/>
      </g>
     </g>
    </g>
    <g id="xtick_9">
     <g id="line2d_9">
      <g>
       <use style="stroke:#000000;stroke-width:0.8;" x="398.487273" xlink:href="#ma5de34bbf7" y="307.584"/>
      </g>
     </g>
     <g id="text_9">
      <!-- 400 -->
      <g transform="translate(388.943523 322.182437)scale(0.1 -0.1)">
       <defs>
        <path d="M 2419 4116 
L 825 1625 
L 2419 1625 
L 2419 4116 
z
M 2253 4666 
L 3047 4666 
L 3047 1625 
L 3713 1625 
L 3713 1100 
L 3047 1100 
L 3047 0 
L 2419 0 
L 2419 1100 
L 313 1100 
L 313 1709 
L 2253 4666 
z
" id="DejaVuSans-34" transform="scale(0.015625)"/>
       </defs>
       <use xlink:href="#DejaVuSans-34"/>
       <use x="63.623047" xlink:href="#DejaVuSans-30"/>
       <use x="127.246094" xlink:href="#DejaVuSans-30"/>
      </g>
     </g>
    </g>
    <g id="text_10">
     <!-- Epoch -->
     <g transform="translate(213.193594 339.659781)scale(0.15 -0.15)">
      <defs>
       <path d="M 628 4666 
L 3578 4666 
L 3578 4134 
L 1259 4134 
L 1259 2753 
L 3481 2753 
L 3481 2222 
L 1259 2222 
L 1259 531 
L 3634 531 
L 3634 0 
L 628 0 
L 628 4666 
z
" id="DejaVuSans-45" transform="scale(0.015625)"/>
       <path d="M 1159 525 
L 1159 -1331 
L 581 -1331 
L 581 3500 
L 1159 3500 
L 1159 2969 
Q 1341 3281 1617 3432 
Q 1894 3584 2278 3584 
Q 2916 3584 3314 3078 
Q 3713 2572 3713 1747 
Q 3713 922 3314 415 
Q 2916 -91 2278 -91 
Q 1894 -91 1617 61 
Q 1341 213 1159 525 
z
M 3116 1747 
Q 3116 2381 2855 2742 
Q 2594 3103 2138 3103 
Q 1681 3103 1420 2742 
Q 1159 2381 1159 1747 
Q 1159 1113 1420 752 
Q 1681 391 2138 391 
Q 2594 391 2855 752 
Q 3116 1113 3116 1747 
z
" id="DejaVuSans-70" transform="scale(0.015625)"/>
       <path d="M 1959 3097 
Q 1497 3097 1228 2736 
Q 959 2375 959 1747 
Q 959 1119 1226 758 
Q 1494 397 1959 397 
Q 2419 397 2687 759 
Q 2956 1122 2956 1747 
Q 2956 2369 2687 2733 
Q 2419 3097 1959 3097 
z
M 1959 3584 
Q 2709 3584 3137 3096 
Q 3566 2609 3566 1747 
Q 3566 888 3137 398 
Q 2709 -91 1959 -91 
Q 1206 -91 779 398 
Q 353 888 353 1747 
Q 353 2609 779 3096 
Q 1206 3584 1959 3584 
z
" id="DejaVuSans-6f" transform="scale(0.015625)"/>
       <path d="M 3122 3366 
L 3122 2828 
Q 2878 2963 2633 3030 
Q 2388 3097 2138 3097 
Q 1578 3097 1268 2742 
Q 959 2388 959 1747 
Q 959 1106 1268 751 
Q 1578 397 2138 397 
Q 2388 397 2633 464 
Q 2878 531 3122 666 
L 3122 134 
Q 2881 22 2623 -34 
Q 2366 -91 2075 -91 
Q 1284 -91 818 406 
Q 353 903 353 1747 
Q 353 2603 823 3093 
Q 1294 3584 2113 3584 
Q 2378 3584 2631 3529 
Q 2884 3475 3122 3366 
z
" id="DejaVuSans-63" transform="scale(0.015625)"/>
       <path d="M 3513 2113 
L 3513 0 
L 2938 0 
L 2938 2094 
Q 2938 2591 2744 2837 
Q 2550 3084 2163 3084 
Q 1697 3084 1428 2787 
Q 1159 2491 1159 1978 
L 1159 0 
L 581 0 
L 581 4863 
L 1159 4863 
L 1159 2956 
Q 1366 3272 1645 3428 
Q 1925 3584 2291 3584 
Q 2894 3584 3203 3211 
Q 3513 2838 3513 2113 
z
" id="DejaVuSans-68" transform="scale(0.015625)"/>
      </defs>
      <use xlink:href="#DejaVuSans-45"/>
      <use x="63.183594" xlink:href="#DejaVuSans-70"/>
      <use x="126.660156" xlink:href="#DejaVuSans-6f"/>
      <use x="187.841797" xlink:href="#DejaVuSans-63"/>
      <use x="242.822266" xlink:href="#DejaVuSans-68"/>
     </g>
    </g>
   </g>
   <g id="matplotlib.axis_2">
    <g id="ytick_1">
     <g id="line2d_10">
      <defs>
       <path d="M 0 0 
L -3.5 0 
" id="m6aa76b017c" style="stroke:#000000;stroke-width:0.8;"/>
      </defs>
      <g>
       <use style="stroke:#000000;stroke-width:0.8;" x="57.6" xlink:href="#m6aa76b017c" y="302.649617"/>
      </g>
     </g>
     <g id="text_11">
      <!-- 0.0 -->
      <g transform="translate(34.696875 306.448835)scale(0.1 -0.1)">
       <defs>
        <path d="M 684 794 
L 1344 794 
L 1344 0 
L 684 0 
L 684 794 
z
" id="DejaVuSans-2e" transform="scale(0.015625)"/>
       </defs>
       <use xlink:href="#DejaVuSans-30"/>
       <use x="63.623047" xlink:href="#DejaVuSans-2e"/>
       <use x="95.410156" xlink:href="#DejaVuSans-30"/>
      </g>
     </g>
    </g>
    <g id="ytick_2">
     <g id="line2d_11">
      <g>
       <use style="stroke:#000000;stroke-width:0.8;" x="57.6" xlink:href="#m6aa76b017c" y="262.915462"/>
      </g>
     </g>
     <g id="text_12">
      <!-- 0.2 -->
      <g transform="translate(34.696875 266.714681)scale(0.1 -0.1)">
       <use xlink:href="#DejaVuSans-30"/>
       <use x="63.623047" xlink:href="#DejaVuSans-2e"/>
       <use x="95.410156" xlink:href="#DejaVuSans-32"/>
      </g>
     </g>
    </g>
    <g id="ytick_3">
     <g id="line2d_12">
      <g>
       <use style="stroke:#000000;stroke-width:0.8;" x="57.6" xlink:href="#m6aa76b017c" y="223.181308"/>
      </g>
     </g>
     <g id="text_13">
      <!-- 0.4 -->
      <g transform="translate(34.696875 226.980527)scale(0.1 -0.1)">
       <use xlink:href="#DejaVuSans-30"/>
       <use x="63.623047" xlink:href="#DejaVuSans-2e"/>
       <use x="95.410156" xlink:href="#DejaVuSans-34"/>
      </g>
     </g>
    </g>
    <g id="ytick_4">
     <g id="line2d_13">
      <g>
       <use style="stroke:#000000;stroke-width:0.8;" x="57.6" xlink:href="#m6aa76b017c" y="183.447153"/>
      </g>
     </g>
     <g id="text_14">
      <!-- 0.6 -->
      <g transform="translate(34.696875 187.246372)scale(0.1 -0.1)">
       <defs>
        <path d="M 2113 2584 
Q 1688 2584 1439 2293 
Q 1191 2003 1191 1497 
Q 1191 994 1439 701 
Q 1688 409 2113 409 
Q 2538 409 2786 701 
Q 3034 994 3034 1497 
Q 3034 2003 2786 2293 
Q 2538 2584 2113 2584 
z
M 3366 4563 
L 3366 3988 
Q 3128 4100 2886 4159 
Q 2644 4219 2406 4219 
Q 1781 4219 1451 3797 
Q 1122 3375 1075 2522 
Q 1259 2794 1537 2939 
Q 1816 3084 2150 3084 
Q 2853 3084 3261 2657 
Q 3669 2231 3669 1497 
Q 3669 778 3244 343 
Q 2819 -91 2113 -91 
Q 1303 -91 875 529 
Q 447 1150 447 2328 
Q 447 3434 972 4092 
Q 1497 4750 2381 4750 
Q 2619 4750 2861 4703 
Q 3103 4656 3366 4563 
z
" id="DejaVuSans-36" transform="scale(0.015625)"/>
       </defs>
       <use xlink:href="#DejaVuSans-30"/>
       <use x="63.623047" xlink:href="#DejaVuSans-2e"/>
       <use x="95.410156" xlink:href="#DejaVuSans-36"/>
      </g>
     </g>
    </g>
    <g id="ytick_5">
     <g id="line2d_14">
      <g>
       <use style="stroke:#000000;stroke-width:0.8;" x="57.6" xlink:href="#m6aa76b017c" y="143.712999"/>
      </g>
     </g>
     <g id="text_15">
      <!-- 0.8 -->
      <g transform="translate(34.696875 147.512218)scale(0.1 -0.1)">
       <defs>
        <path d="M 2034 2216 
Q 1584 2216 1326 1975 
Q 1069 1734 1069 1313 
Q 1069 891 1326 650 
Q 1584 409 2034 409 
Q 2484 409 2743 651 
Q 3003 894 3003 1313 
Q 3003 1734 2745 1975 
Q 2488 2216 2034 2216 
z
M 1403 2484 
Q 997 2584 770 2862 
Q 544 3141 544 3541 
Q 544 4100 942 4425 
Q 1341 4750 2034 4750 
Q 2731 4750 3128 4425 
Q 3525 4100 3525 3541 
Q 3525 3141 3298 2862 
Q 3072 2584 2669 2484 
Q 3125 2378 3379 2068 
Q 3634 1759 3634 1313 
Q 3634 634 3220 271 
Q 2806 -91 2034 -91 
Q 1263 -91 848 271 
Q 434 634 434 1313 
Q 434 1759 690 2068 
Q 947 2378 1403 2484 
z
M 1172 3481 
Q 1172 3119 1398 2916 
Q 1625 2713 2034 2713 
Q 2441 2713 2670 2916 
Q 2900 3119 2900 3481 
Q 2900 3844 2670 4047 
Q 2441 4250 2034 4250 
Q 1625 4250 1398 4047 
Q 1172 3844 1172 3481 
z
" id="DejaVuSans-38" transform="scale(0.015625)"/>
       </defs>
       <use xlink:href="#DejaVuSans-30"/>
       <use x="63.623047" xlink:href="#DejaVuSans-2e"/>
       <use x="95.410156" xlink:href="#DejaVuSans-38"/>
      </g>
     </g>
    </g>
    <g id="ytick_6">
     <g id="line2d_15">
      <g>
       <use style="stroke:#000000;stroke-width:0.8;" x="57.6" xlink:href="#m6aa76b017c" y="103.978845"/>
      </g>
     </g>
     <g id="text_16">
      <!-- 1.0 -->
      <g transform="translate(34.696875 107.778063)scale(0.1 -0.1)">
       <use xlink:href="#DejaVuSans-31"/>
       <use x="63.623047" xlink:href="#DejaVuSans-2e"/>
       <use x="95.410156" xlink:href="#DejaVuSans-30"/>
      </g>
     </g>
    </g>
    <g id="ytick_7">
     <g id="line2d_16">
      <g>
       <use style="stroke:#000000;stroke-width:0.8;" x="57.6" xlink:href="#m6aa76b017c" y="64.24469"/>
      </g>
     </g>
     <g id="text_17">
      <!-- 1.2 -->
      <g transform="translate(34.696875 68.043909)scale(0.1 -0.1)">
       <use xlink:href="#DejaVuSans-31"/>
       <use x="63.623047" xlink:href="#DejaVuSans-2e"/>
       <use x="95.410156" xlink:href="#DejaVuSans-32"/>
      </g>
     </g>
    </g>
    <g id="text_18">
     <!-- Loss -->
     <g transform="translate(27.577344 190.978781)rotate(-90)scale(0.15 -0.15)">
      <defs>
       <path d="M 628 4666 
L 1259 4666 
L 1259 531 
L 3531 531 
L 3531 0 
L 628 0 
L 628 4666 
z
" id="DejaVuSans-4c" transform="scale(0.015625)"/>
       <path d="M 2834 3397 
L 2834 2853 
Q 2591 2978 2328 3040 
Q 2066 3103 1784 3103 
Q 1356 3103 1142 2972 
Q 928 2841 928 2578 
Q 928 2378 1081 2264 
Q 1234 2150 1697 2047 
L 1894 2003 
Q 2506 1872 2764 1633 
Q 3022 1394 3022 966 
Q 3022 478 2636 193 
Q 2250 -91 1575 -91 
Q 1294 -91 989 -36 
Q 684 19 347 128 
L 347 722 
Q 666 556 975 473 
Q 1284 391 1588 391 
Q 1994 391 2212 530 
Q 2431 669 2431 922 
Q 2431 1156 2273 1281 
Q 2116 1406 1581 1522 
L 1381 1569 
Q 847 1681 609 1914 
Q 372 2147 372 2553 
Q 372 3047 722 3315 
Q 1072 3584 1716 3584 
Q 2034 3584 2315 3537 
Q 2597 3491 2834 3397 
z
" id="DejaVuSans-73" transform="scale(0.015625)"/>
      </defs>
      <use xlink:href="#DejaVuSans-4c"/>
      <use x="53.962891" xlink:href="#DejaVuSans-6f"/>
      <use x="115.144531" xlink:href="#DejaVuSans-73"/>
      <use x="167.244141" xlink:href="#DejaVuSans-73"/>
     </g>
    </g>
   </g>
   <g id="line2d_17">
    <path clip-path="url(#pda7489bf62)" d="M 73.832727 218.498664 
L 74.646398 221.315429 
L 75.460068 216.76698 
L 76.273739 203.549297 
L 77.087409 210.550686 
L 77.90108 225.167835 
L 78.714751 214.17468 
L 79.528421 231.661731 
L 80.342092 216.877165 
L 81.155762 221.461279 
L 81.969433 223.697468 
L 82.783103 219.319306 
L 83.596774 211.972336 
L 84.410444 214.080352 
L 85.224115 218.214618 
L 86.037785 219.657475 
L 86.851456 217.535737 
L 87.665126 205.047346 
L 88.478797 218.799123 
L 89.292468 226.488967 
L 90.106138 219.017503 
L 90.919809 219.593467 
L 91.733479 214.899611 
L 92.54715 223.98293 
L 93.36082 219.364778 
L 94.174491 207.528734 
L 94.988161 211.629605 
L 95.801832 214.72989 
L 96.615502 215.453331 
L 97.429173 210.939694 
L 98.242843 215.101831 
L 99.056514 214.984986 
L 99.870185 215.057353 
L 100.683855 218.492337 
L 101.497526 216.650542 
L 102.311196 212.669106 
L 103.124867 211.086595 
L 103.938537 213.732535 
L 105.565878 226.036 
L 106.379549 216.00388 
L 107.193219 220.943334 
L 108.00689 210.884463 
L 108.82056 213.801885 
L 109.634231 212.191447 
L 110.447902 226.106382 
L 111.261572 214.945921 
L 112.075243 215.147347 
L 112.888913 211.762018 
L 113.702584 216.115321 
L 114.516254 227.657515 
L 115.329925 217.132227 
L 116.143595 214.143666 
L 116.957266 214.98975 
L 117.770936 220.907483 
L 118.584607 223.270261 
L 119.398278 218.738686 
L 120.211948 215.163083 
L 121.025619 222.142711 
L 121.839289 221.666036 
L 122.65296 215.33829 
L 123.46663 221.517266 
L 124.280301 221.659382 
L 125.093971 222.572896 
L 125.907642 224.278359 
L 126.721312 220.639064 
L 127.534983 214.027765 
L 128.348653 223.658623 
L 129.162324 229.024875 
L 129.975995 208.430138 
L 130.789665 227.975004 
L 131.603336 214.497836 
L 132.417006 221.550528 
L 133.230677 222.758394 
L 134.044347 212.739028 
L 134.858018 220.423227 
L 135.671688 229.306184 
L 136.485359 234.096676 
L 137.299029 231.343873 
L 138.1127 238.639273 
L 138.92637 229.429013 
L 139.740041 228.419595 
L 140.553712 233.611328 
L 141.367382 229.629947 
L 142.181053 238.607874 
L 142.994723 237.02003 
L 143.808394 230.089777 
L 144.622064 226.973812 
L 145.435735 231.707619 
L 146.249405 233.398955 
L 147.063076 223.362015 
L 147.876746 231.069736 
L 148.690417 235.871126 
L 149.504087 236.779227 
L 150.317758 235.102634 
L 151.131429 230.257422 
L 151.945099 239.732538 
L 152.75877 232.871906 
L 153.57244 236.693518 
L 154.386111 230.815194 
L 155.199781 242.731048 
L 156.013452 228.966153 
L 156.827122 232.765898 
L 157.640793 240.475884 
L 158.454463 230.632371 
L 159.268134 238.324053 
L 160.081805 228.260337 
L 160.895475 244.288899 
L 161.709146 238.319061 
L 162.522816 229.462494 
L 163.336487 232.60378 
L 164.150157 233.300149 
L 164.963828 245.643127 
L 165.777498 247.225609 
L 166.591169 244.98481 
L 167.404839 240.780196 
L 168.21851 232.202091 
L 169.03218 239.647198 
L 169.845851 248.634051 
L 170.659522 231.285901 
L 171.473192 240.639162 
L 172.286863 237.770208 
L 173.100533 246.05192 
L 173.914204 245.127913 
L 174.727874 236.279627 
L 175.541545 249.817621 
L 176.355215 241.373942 
L 177.168886 241.990872 
L 177.982556 236.265327 
L 178.796227 250.295539 
L 179.609897 252.162951 
L 180.423568 249.852158 
L 181.237239 235.215664 
L 182.050909 243.472442 
L 182.86458 236.317847 
L 183.67825 241.288577 
L 184.491921 240.442268 
L 185.305591 246.820544 
L 186.119262 254.228519 
L 186.932932 252.376344 
L 187.746603 249.085467 
L 188.560273 244.140664 
L 189.373944 249.288544 
L 190.187614 252.421779 
L 191.001285 248.764764 
L 191.814956 251.767438 
L 192.628626 248.499668 
L 193.442297 254.094876 
L 194.255967 243.464414 
L 195.069638 249.516572 
L 195.883308 247.000604 
L 196.696979 248.203617 
L 197.510649 253.56142 
L 198.32432 256.684119 
L 199.13799 252.826462 
L 199.951661 251.513897 
L 200.765332 250.73618 
L 201.579002 252.024612 
L 202.392673 254.701237 
L 203.206343 253.317129 
L 204.020014 250.835575 
L 204.833684 246.905591 
L 205.647355 245.055611 
L 206.461025 262.549579 
L 207.274696 248.361238 
L 208.088366 249.70301 
L 208.902037 255.366617 
L 209.715707 258.819329 
L 210.529378 256.396462 
L 211.343049 255.190661 
L 212.156719 250.262515 
L 212.97039 262.128651 
L 213.78406 255.286731 
L 214.597731 265.633984 
L 215.411401 255.324561 
L 216.225072 262.035797 
L 217.038742 251.954269 
L 217.852413 260.723148 
L 218.666083 248.410578 
L 219.479754 263.328679 
L 220.293424 257.391217 
L 221.107095 256.768808 
L 221.920766 258.00313 
L 222.734436 249.822549 
L 223.548107 261.913799 
L 224.361777 256.219215 
L 225.175448 261.240383 
L 225.989118 265.329366 
L 226.802789 259.232117 
L 227.616459 257.927291 
L 228.43013 259.177532 
L 229.2438 254.679035 
L 230.057471 262.327085 
L 230.871141 259.887499 
L 231.684812 261.472029 
L 232.498483 259.262847 
L 233.312153 260.303364 
L 234.125824 266.972639 
L 234.939494 259.374792 
L 235.753165 261.966879 
L 236.566835 267.629394 
L 238.194176 261.481278 
L 239.007847 259.797819 
L 239.821517 270.554834 
L 240.635188 263.379748 
L 241.448859 266.372194 
L 242.262529 265.926964 
L 243.0762 256.995963 
L 243.88987 272.341029 
L 244.703541 258.87923 
L 245.517211 265.859704 
L 246.330882 264.583409 
L 247.144552 259.379982 
L 247.958223 268.687149 
L 248.771893 266.069444 
L 249.585564 267.265886 
L 250.399234 277.637304 
L 251.212905 270.104472 
L 252.026576 264.328392 
L 252.840246 253.345346 
L 253.653917 268.553723 
L 254.467587 269.154614 
L 255.281258 268.679619 
L 256.094928 266.700052 
L 257.722269 269.165439 
L 258.53594 268.739101 
L 259.34961 269.965481 
L 260.163281 278.036491 
L 260.976951 270.894626 
L 261.790622 275.605864 
L 262.604293 271.436158 
L 263.417963 274.267337 
L 264.231634 266.126668 
L 265.045304 274.992025 
L 265.858975 274.809255 
L 266.672645 276.322394 
L 267.486316 263.343464 
L 268.299986 266.853061 
L 269.113657 271.583761 
L 269.927327 277.195959 
L 270.740998 265.624775 
L 271.554668 270.275572 
L 272.368339 271.309837 
L 273.18201 271.239785 
L 273.99568 269.681247 
L 274.809351 278.57592 
L 275.623021 275.543676 
L 276.436692 273.326844 
L 277.250362 278.17044 
L 278.064033 269.985472 
L 278.877703 282.392933 
L 279.691374 273.488498 
L 280.505044 273.437841 
L 281.318715 278.246771 
L 282.132386 270.245314 
L 282.946056 270.471894 
L 283.759727 279.562549 
L 284.573397 278.915972 
L 285.387068 277.325744 
L 286.200738 275.133381 
L 287.014409 279.625884 
L 287.828079 266.778952 
L 288.64175 273.33056 
L 289.45542 275.053094 
L 290.269091 279.894513 
L 291.082761 278.787859 
L 291.896432 277.173978 
L 292.710103 279.722236 
L 293.523773 274.007116 
L 294.337444 266.540312 
L 295.151114 272.785999 
L 295.964785 274.317828 
L 296.778455 282.864206 
L 297.592126 276.301568 
L 298.405796 283.361614 
L 299.219467 276.872355 
L 300.033137 284.532847 
L 300.846808 280.613765 
L 301.660478 277.997694 
L 302.474149 279.610523 
L 303.28782 281.833255 
L 304.10149 285.246246 
L 304.915161 276.325049 
L 305.728831 286.086884 
L 306.542502 264.588983 
L 307.356172 282.791441 
L 308.169843 279.266194 
L 308.983513 286.358775 
L 309.797184 282.587731 
L 310.610854 280.523248 
L 311.424525 283.072962 
L 312.238195 275.253185 
L 313.051866 279.077103 
L 313.865537 281.862042 
L 314.679207 279.345102 
L 315.492878 277.241913 
L 316.306548 286.287803 
L 317.120219 280.180384 
L 317.933889 285.371347 
L 318.74756 282.709277 
L 319.56123 276.992119 
L 320.374901 285.885318 
L 321.188571 279.4987 
L 322.002242 282.061731 
L 322.815913 283.618533 
L 323.629583 284.060086 
L 324.443254 276.175619 
L 325.256924 281.467736 
L 326.070595 284.102932 
L 326.884265 286.013772 
L 327.697936 281.499857 
L 328.511606 288.487782 
L 329.325277 282.452922 
L 330.138947 281.984342 
L 330.952618 284.702683 
L 331.766288 289.332359 
L 332.579959 290.399746 
L 333.39363 284.633712 
L 334.2073 287.768015 
L 335.020971 291.85538 
L 335.834641 285.189228 
L 336.648312 286.115696 
L 337.461982 290.305111 
L 338.275653 286.16887 
L 339.089323 280.395008 
L 339.902994 289.575995 
L 340.716664 284.764508 
L 341.530335 284.114479 
L 342.344005 289.74199 
L 343.157676 283.515384 
L 343.971347 287.593491 
L 344.785017 287.52938 
L 345.598688 281.664029 
L 346.412358 287.498531 
L 347.226029 289.746459 
L 348.039699 286.954323 
L 348.85337 291.387674 
L 349.66704 277.631831 
L 350.480711 289.866683 
L 351.294381 286.272331 
L 352.108052 289.833681 
L 352.921722 288.672511 
L 353.735393 290.552661 
L 354.549064 291.830675 
L 355.362734 286.336596 
L 356.176405 289.581548 
L 356.990075 289.971656 
L 357.803746 284.062406 
L 358.617416 284.339008 
L 359.431087 291.774057 
L 361.058428 288.828114 
L 361.872098 287.763082 
L 362.685769 291.799032 
L 363.49944 286.604913 
L 364.31311 287.946991 
L 365.126781 295.390052 
L 365.940451 292.870146 
L 366.754122 291.796686 
L 367.567792 293.223156 
L 369.195133 284.731928 
L 370.008804 283.870301 
L 370.822474 289.703921 
L 371.636145 285.7794 
L 372.449815 288.306606 
L 373.263486 282.658216 
L 374.077157 289.406294 
L 374.890827 286.768114 
L 375.704498 286.890244 
L 376.518168 294.060261 
L 377.331839 291.221728 
L 378.145509 286.7825 
L 378.95918 294.805096 
L 379.77285 294.057182 
L 380.586521 284.58366 
L 381.400191 292.650479 
L 382.213862 291.371873 
L 383.027532 290.681604 
L 383.841203 294.719265 
L 384.654874 288.955179 
L 385.468544 289.295143 
L 386.282215 290.256232 
L 387.095885 289.901748 
L 387.909556 286.796991 
L 388.723226 293.163675 
L 389.536897 289.896759 
L 390.350567 295.376161 
L 391.164238 295.13988 
L 391.977908 292.048916 
L 392.791579 291.192209 
L 393.605249 283.719444 
L 394.41892 286.637276 
L 395.232591 288.038003 
L 396.046261 293.821394 
L 396.859932 293.125321 
L 397.673602 286.825349 
L 398.487273 295.488 
L 398.487273 295.488 
" style="fill:none;stroke:#1f77b4;stroke-linecap:square;stroke-width:1.5;"/>
   </g>
   <g id="line2d_18">
    <path clip-path="url(#pda7489bf62)" d="M 73.832727 53.568 
L 74.646398 68.584021 
L 75.460068 71.843964 
L 76.273739 71.023776 
L 77.087409 76.722363 
L 77.90108 61.140424 
L 78.714751 67.523007 
L 79.528421 59.619354 
L 80.342092 70.212313 
L 81.155762 66.643639 
L 81.969433 72.892696 
L 82.783103 74.22624 
L 83.596774 71.959804 
L 84.410444 70.552115 
L 85.224115 70.048789 
L 86.037785 62.029055 
L 86.851456 71.026222 
L 87.665126 60.247116 
L 88.478797 68.815206 
L 89.292468 74.233731 
L 90.106138 67.836923 
L 90.919809 72.168761 
L 91.733479 73.800245 
L 92.54715 62.059223 
L 93.36082 75.225288 
L 94.174491 76.792491 
L 94.988161 71.203218 
L 95.801832 75.767978 
L 96.615502 82.84537 
L 97.429173 67.784733 
L 98.242843 58.231444 
L 99.056514 66.214163 
L 99.870185 68.668829 
L 100.683855 58.186275 
L 101.497526 70.991031 
L 102.311196 74.63719 
L 103.124867 76.552249 
L 103.938537 75.105257 
L 104.752208 75.693009 
L 105.565878 75.306376 
L 106.379549 74.049087 
L 107.193219 79.630147 
L 108.00689 74.018147 
L 108.82056 71.840878 
L 109.634231 86.194086 
L 110.447902 66.376581 
L 111.261572 77.609628 
L 112.075243 67.206658 
L 112.888913 67.630759 
L 113.702584 78.030429 
L 114.516254 70.365411 
L 115.329925 65.164338 
L 116.143595 74.059958 
L 116.957266 76.037299 
L 117.770936 69.352977 
L 118.584607 87.824281 
L 119.398278 76.265631 
L 120.211948 82.323123 
L 121.025619 90.994472 
L 121.839289 80.403889 
L 122.65296 79.461071 
L 123.46663 87.803791 
L 124.280301 86.959432 
L 125.093971 84.290575 
L 125.907642 93.844407 
L 126.721312 87.260127 
L 127.534983 85.99628 
L 128.348653 90.994461 
L 129.162324 91.90585 
L 129.975995 79.191452 
L 130.789665 93.778822 
L 131.603336 95.368518 
L 132.417006 94.273069 
L 133.230677 88.859403 
L 134.044347 94.917481 
L 134.858018 90.146583 
L 135.671688 103.338084 
L 136.485359 84.521125 
L 137.299029 93.230784 
L 138.1127 95.214477 
L 138.92637 87.040748 
L 139.740041 99.254686 
L 140.553712 100.366115 
L 141.367382 96.573818 
L 142.181053 101.883158 
L 142.994723 100.222038 
L 143.808394 100.160514 
L 144.622064 110.464339 
L 145.435735 106.049096 
L 146.249405 103.310912 
L 147.063076 91.25229 
L 147.876746 114.287775 
L 148.690417 107.247691 
L 149.504087 105.478799 
L 150.317758 97.630803 
L 151.131429 103.168498 
L 151.945099 104.376459 
L 152.75877 106.135198 
L 153.57244 106.782842 
L 154.386111 105.925324 
L 155.199781 109.078249 
L 156.013452 119.070878 
L 156.827122 107.347687 
L 157.640793 108.08425 
L 159.268134 111.659276 
L 160.081805 102.198673 
L 160.895475 109.079276 
L 161.709146 107.851368 
L 162.522816 107.420103 
L 163.336487 113.864073 
L 164.150157 117.591536 
L 164.963828 117.154405 
L 165.777498 121.457783 
L 166.591169 121.20893 
L 167.404839 101.713353 
L 168.21851 122.378878 
L 169.03218 109.563394 
L 169.845851 111.317729 
L 170.659522 118.533771 
L 171.473192 104.398847 
L 172.286863 108.182627 
L 173.100533 122.349099 
L 173.914204 121.142098 
L 174.727874 122.604807 
L 175.541545 114.155307 
L 176.355215 116.528588 
L 177.168886 127.686099 
L 177.982556 127.067537 
L 178.796227 106.94268 
L 179.609897 122.314497 
L 180.423568 120.987358 
L 181.237239 136.211187 
L 182.050909 126.286323 
L 182.86458 133.031893 
L 183.67825 133.039548 
L 184.491921 123.451497 
L 185.305591 134.703606 
L 186.119262 126.506949 
L 186.932932 135.371094 
L 187.746603 131.567515 
L 188.560273 132.487113 
L 189.373944 131.158177 
L 190.187614 143.377048 
L 191.001285 129.146771 
L 191.814956 110.236044 
L 192.628626 130.787206 
L 193.442297 127.98065 
L 194.255967 122.201506 
L 195.069638 135.601212 
L 195.883308 140.02599 
L 196.696979 131.821233 
L 197.510649 141.053744 
L 198.32432 141.066017 
L 199.13799 144.172831 
L 199.951661 139.91591 
L 200.765332 127.102841 
L 201.579002 137.796224 
L 202.392673 143.134316 
L 203.206343 129.91001 
L 204.020014 141.053006 
L 204.833684 139.375109 
L 205.647355 129.167136 
L 206.461025 128.96779 
L 207.274696 136.532276 
L 208.088366 139.969661 
L 208.902037 127.014637 
L 209.715707 138.150862 
L 210.529378 142.834493 
L 211.343049 140.322588 
L 212.156719 144.054518 
L 213.78406 148.98444 
L 214.597731 155.13167 
L 215.411401 121.965183 
L 216.225072 146.95782 
L 217.038742 144.905621 
L 217.852413 144.964979 
L 218.666083 140.503694 
L 219.479754 142.684841 
L 220.293424 136.997871 
L 221.107095 137.363282 
L 221.920766 137.484441 
L 222.734436 152.932663 
L 223.548107 142.259339 
L 224.361777 153.516511 
L 225.175448 143.35852 
L 225.989118 149.888974 
L 226.802789 135.488838 
L 227.616459 144.829567 
L 228.43013 130.996507 
L 229.2438 139.312348 
L 230.057471 139.872725 
L 230.871141 150.053005 
L 231.684812 150.907239 
L 232.498483 140.8028 
L 233.312153 144.698644 
L 234.939494 154.741978 
L 235.753165 137.061015 
L 236.566835 156.561338 
L 238.194176 132.469268 
L 239.007847 150.508855 
L 239.821517 154.902515 
L 240.635188 142.428268 
L 241.448859 149.204923 
L 242.262529 143.343953 
L 243.0762 141.907155 
L 243.88987 128.575684 
L 244.703541 147.469851 
L 245.517211 123.398536 
L 246.330882 118.838634 
L 247.144552 133.610746 
L 247.958223 154.674084 
L 249.585564 160.956886 
L 250.399234 151.30323 
L 251.212905 128.734455 
L 252.026576 127.551633 
L 252.840246 149.304348 
L 253.653917 149.311117 
L 254.467587 142.917639 
L 255.281258 148.503439 
L 256.094928 151.680338 
L 256.908599 123.722448 
L 257.722269 149.460293 
L 258.53594 144.252373 
L 259.34961 139.836981 
L 260.163281 140.529156 
L 260.976951 141.969775 
L 261.790622 137.157244 
L 262.604293 120.401738 
L 263.417963 150.23737 
L 264.231634 147.760216 
L 265.045304 159.185466 
L 265.858975 159.347653 
L 266.672645 152.920417 
L 267.486316 151.079367 
L 268.299986 143.253135 
L 269.113657 165.307901 
L 269.927327 133.840153 
L 270.740998 157.45111 
L 271.554668 139.077998 
L 272.368339 146.436026 
L 273.18201 140.304868 
L 273.99568 165.747879 
L 274.809351 158.071409 
L 275.623021 158.821763 
L 276.436692 141.69286 
L 277.250362 149.330445 
L 278.064033 162.257683 
L 278.877703 160.563348 
L 279.691374 152.783 
L 280.505044 156.686187 
L 281.318715 157.086565 
L 282.132386 170.707297 
L 282.946056 160.136942 
L 283.759727 165.022686 
L 284.573397 158.960126 
L 285.387068 121.263846 
L 286.200738 147.242096 
L 287.014409 168.786353 
L 287.828079 164.840008 
L 288.64175 165.579203 
L 289.45542 161.079878 
L 290.269091 160.162874 
L 291.082761 139.142087 
L 291.896432 122.786288 
L 292.710103 153.806278 
L 293.523773 102.759377 
L 294.337444 162.538574 
L 295.151114 162.487682 
L 295.964785 152.457615 
L 296.778455 147.755045 
L 297.592126 151.342418 
L 298.405796 117.236245 
L 299.219467 153.603839 
L 300.033137 141.967309 
L 300.846808 162.522299 
L 301.660478 138.401697 
L 302.474149 135.49972 
L 303.28782 154.766073 
L 304.10149 136.573412 
L 304.915161 140.570925 
L 305.728831 140.665704 
L 306.542502 150.803331 
L 307.356172 111.964283 
L 308.169843 166.31444 
L 308.983513 150.561346 
L 309.797184 146.841001 
L 310.610854 145.80785 
L 311.424525 151.819896 
L 312.238195 137.65612 
L 313.051866 159.509583 
L 313.865537 154.070887 
L 314.679207 143.747726 
L 315.492878 150.655622 
L 316.306548 150.039608 
L 317.120219 136.758031 
L 317.933889 129.554206 
L 318.74756 150.666126 
L 319.56123 149.544313 
L 320.374901 165.404981 
L 321.188571 165.522931 
L 322.002242 151.45852 
L 322.815913 150.137126 
L 323.629583 116.383865 
L 324.443254 142.992499 
L 325.256924 98.968928 
L 326.070595 131.799021 
L 326.884265 154.85346 
L 327.697936 167.265864 
L 328.511606 165.480646 
L 329.325277 149.67921 
L 330.138947 161.835525 
L 330.952618 150.461558 
L 331.766288 153.346216 
L 332.579959 146.388169 
L 333.39363 147.743197 
L 334.2073 148.307053 
L 335.020971 135.702341 
L 335.834641 152.33407 
L 336.648312 146.133425 
L 337.461982 122.361378 
L 338.275653 146.874515 
L 339.902994 167.613662 
L 340.716664 156.25656 
L 341.530335 155.48352 
L 342.344005 168.088145 
L 343.157676 171.674974 
L 343.971347 159.456405 
L 344.785017 162.686785 
L 345.598688 123.778787 
L 346.412358 159.994799 
L 347.226029 160.284829 
L 348.039699 150.661031 
L 348.85337 144.089119 
L 350.480711 154.323796 
L 351.294381 165.961407 
L 352.108052 141.567622 
L 352.921722 150.890325 
L 353.735393 127.97855 
L 354.549064 127.365236 
L 355.362734 140.267271 
L 356.176405 135.855982 
L 356.990075 162.886991 
L 357.803746 146.074949 
L 358.617416 126.8471 
L 359.431087 152.692617 
L 360.244757 134.493062 
L 361.058428 152.548216 
L 361.872098 175.72822 
L 362.685769 162.083516 
L 363.49944 132.784928 
L 364.31311 161.536792 
L 365.126781 135.285249 
L 365.940451 139.738542 
L 366.754122 104.772288 
L 367.567792 150.859486 
L 368.381463 120.763574 
L 369.195133 104.554835 
L 370.008804 158.974324 
L 370.822474 170.538125 
L 371.636145 167.223535 
L 372.449815 127.095447 
L 373.263486 171.55424 
L 374.890827 153.664528 
L 375.704498 180.35389 
L 376.518168 153.459875 
L 377.331839 159.354783 
L 378.145509 162.8249 
L 378.95918 154.902857 
L 379.77285 152.944956 
L 380.586521 164.912194 
L 381.400191 168.982436 
L 382.213862 160.772119 
L 383.027532 166.517558 
L 383.841203 166.794229 
L 384.654874 154.911268 
L 385.468544 163.419696 
L 386.282215 72.624841 
L 387.095885 127.998389 
L 387.909556 149.689688 
L 388.723226 152.894668 
L 389.536897 146.957863 
L 390.350567 161.499642 
L 391.164238 148.833369 
L 391.977908 131.937161 
L 392.791579 140.862688 
L 393.605249 151.655419 
L 394.41892 169.709167 
L 395.232591 158.349831 
L 396.046261 142.149969 
L 396.859932 169.25385 
L 397.673602 174.145905 
L 398.487273 150.592216 
L 398.487273 150.592216 
" style="fill:none;stroke:#ff7f0e;stroke-linecap:square;stroke-width:1.5;"/>
   </g>
   <g id="patch_3">
    <path d="M 57.6 307.584 
L 57.6 41.472 
" style="fill:none;stroke:#000000;stroke-linecap:square;stroke-linejoin:miter;stroke-width:0.8;"/>
   </g>
   <g id="patch_4">
    <path d="M 414.72 307.584 
L 414.72 41.472 
" style="fill:none;stroke:#000000;stroke-linecap:square;stroke-linejoin:miter;stroke-width:0.8;"/>
   </g>
   <g id="patch_5">
    <path d="M 57.6 307.584 
L 414.72 307.584 
" style="fill:none;stroke:#000000;stroke-linecap:square;stroke-linejoin:miter;stroke-width:0.8;"/>
   </g>
   <g id="patch_6">
    <path d="M 57.6 41.472 
L 414.72 41.472 
" style="fill:none;stroke:#000000;stroke-linecap:square;stroke-linejoin:miter;stroke-width:0.8;"/>
   </g>
   <g id="legend_1">
    <g id="patch_7">
     <path d="M 64.6 302.584 
L 168.475 302.584 
Q 170.475 302.584 170.475 300.584 
L 170.475 272.22775 
Q 170.475 270.22775 168.475 270.22775 
L 64.6 270.22775 
Q 62.6 270.22775 62.6 272.22775 
L 62.6 300.584 
Q 62.6 302.584 64.6 302.584 
z
" style="fill:#ffffff;opacity:0.8;stroke:#cccccc;stroke-linejoin:miter;"/>
    </g>
    <g id="line2d_19">
     <path d="M 66.6 278.326187 
L 86.6 278.326187 
" style="fill:none;stroke:#1f77b4;stroke-linecap:square;stroke-width:1.5;"/>
    </g>
    <g id="line2d_20"/>
    <g id="text_19">
     <!-- Train loss -->
     <g transform="translate(94.6 281.826187)scale(0.1 -0.1)">
      <defs>
       <path d="M -19 4666 
L 3928 4666 
L 3928 4134 
L 2272 4134 
L 2272 0 
L 1638 0 
L 1638 4134 
L -19 4134 
L -19 4666 
z
" id="DejaVuSans-54" transform="scale(0.015625)"/>
       <path d="M 2631 2963 
Q 2534 3019 2420 3045 
Q 2306 3072 2169 3072 
Q 1681 3072 1420 2755 
Q 1159 2438 1159 1844 
L 1159 0 
L 581 0 
L 581 3500 
L 1159 3500 
L 1159 2956 
Q 1341 3275 1631 3429 
Q 1922 3584 2338 3584 
Q 2397 3584 2469 3576 
Q 2541 3569 2628 3553 
L 2631 2963 
z
" id="DejaVuSans-72" transform="scale(0.015625)"/>
       <path d="M 2194 1759 
Q 1497 1759 1228 1600 
Q 959 1441 959 1056 
Q 959 750 1161 570 
Q 1363 391 1709 391 
Q 2188 391 2477 730 
Q 2766 1069 2766 1631 
L 2766 1759 
L 2194 1759 
z
M 3341 1997 
L 3341 0 
L 2766 0 
L 2766 531 
Q 2569 213 2275 61 
Q 1981 -91 1556 -91 
Q 1019 -91 701 211 
Q 384 513 384 1019 
Q 384 1609 779 1909 
Q 1175 2209 1959 2209 
L 2766 2209 
L 2766 2266 
Q 2766 2663 2505 2880 
Q 2244 3097 1772 3097 
Q 1472 3097 1187 3025 
Q 903 2953 641 2809 
L 641 3341 
Q 956 3463 1253 3523 
Q 1550 3584 1831 3584 
Q 2591 3584 2966 3190 
Q 3341 2797 3341 1997 
z
" id="DejaVuSans-61" transform="scale(0.015625)"/>
       <path d="M 603 3500 
L 1178 3500 
L 1178 0 
L 603 0 
L 603 3500 
z
M 603 4863 
L 1178 4863 
L 1178 4134 
L 603 4134 
L 603 4863 
z
" id="DejaVuSans-69" transform="scale(0.015625)"/>
       <path d="M 3513 2113 
L 3513 0 
L 2938 0 
L 2938 2094 
Q 2938 2591 2744 2837 
Q 2550 3084 2163 3084 
Q 1697 3084 1428 2787 
Q 1159 2491 1159 1978 
L 1159 0 
L 581 0 
L 581 3500 
L 1159 3500 
L 1159 2956 
Q 1366 3272 1645 3428 
Q 1925 3584 2291 3584 
Q 2894 3584 3203 3211 
Q 3513 2838 3513 2113 
z
" id="DejaVuSans-6e" transform="scale(0.015625)"/>
       <path id="DejaVuSans-20" transform="scale(0.015625)"/>
       <path d="M 603 4863 
L 1178 4863 
L 1178 0 
L 603 0 
L 603 4863 
z
" id="DejaVuSans-6c" transform="scale(0.015625)"/>
      </defs>
      <use xlink:href="#DejaVuSans-54"/>
      <use x="46.333984" xlink:href="#DejaVuSans-72"/>
      <use x="87.447266" xlink:href="#DejaVuSans-61"/>
      <use x="148.726562" xlink:href="#DejaVuSans-69"/>
      <use x="176.509766" xlink:href="#DejaVuSans-6e"/>
      <use x="239.888672" xlink:href="#DejaVuSans-20"/>
      <use x="271.675781" xlink:href="#DejaVuSans-6c"/>
      <use x="299.458984" xlink:href="#DejaVuSans-6f"/>
      <use x="360.640625" xlink:href="#DejaVuSans-73"/>
      <use x="412.740234" xlink:href="#DejaVuSans-73"/>
     </g>
    </g>
    <g id="line2d_21">
     <path d="M 66.6 293.004312 
L 86.6 293.004312 
" style="fill:none;stroke:#ff7f0e;stroke-linecap:square;stroke-width:1.5;"/>
    </g>
    <g id="line2d_22"/>
    <g id="text_20">
     <!-- Validation loss -->
     <g transform="translate(94.6 296.504312)scale(0.1 -0.1)">
      <defs>
       <path d="M 1831 0 
L 50 4666 
L 709 4666 
L 2188 738 
L 3669 4666 
L 4325 4666 
L 2547 0 
L 1831 0 
z
" id="DejaVuSans-56" transform="scale(0.015625)"/>
       <path d="M 2906 2969 
L 2906 4863 
L 3481 4863 
L 3481 0 
L 2906 0 
L 2906 525 
Q 2725 213 2448 61 
Q 2172 -91 1784 -91 
Q 1150 -91 751 415 
Q 353 922 353 1747 
Q 353 2572 751 3078 
Q 1150 3584 1784 3584 
Q 2172 3584 2448 3432 
Q 2725 3281 2906 2969 
z
M 947 1747 
Q 947 1113 1208 752 
Q 1469 391 1925 391 
Q 2381 391 2643 752 
Q 2906 1113 2906 1747 
Q 2906 2381 2643 2742 
Q 2381 3103 1925 3103 
Q 1469 3103 1208 2742 
Q 947 2381 947 1747 
z
" id="DejaVuSans-64" transform="scale(0.015625)"/>
       <path d="M 1172 4494 
L 1172 3500 
L 2356 3500 
L 2356 3053 
L 1172 3053 
L 1172 1153 
Q 1172 725 1289 603 
Q 1406 481 1766 481 
L 2356 481 
L 2356 0 
L 1766 0 
Q 1100 0 847 248 
Q 594 497 594 1153 
L 594 3053 
L 172 3053 
L 172 3500 
L 594 3500 
L 594 4494 
L 1172 4494 
z
" id="DejaVuSans-74" transform="scale(0.015625)"/>
      </defs>
      <use xlink:href="#DejaVuSans-56"/>
      <use x="60.658203" xlink:href="#DejaVuSans-61"/>
      <use x="121.9375" xlink:href="#DejaVuSans-6c"/>
      <use x="149.720703" xlink:href="#DejaVuSans-69"/>
      <use x="177.503906" xlink:href="#DejaVuSans-64"/>
      <use x="240.980469" xlink:href="#DejaVuSans-61"/>
      <use x="302.259766" xlink:href="#DejaVuSans-74"/>
      <use x="341.46875" xlink:href="#DejaVuSans-69"/>
      <use x="369.251953" xlink:href="#DejaVuSans-6f"/>
      <use x="430.433594" xlink:href="#DejaVuSans-6e"/>
      <use x="493.8125" xlink:href="#DejaVuSans-20"/>
      <use x="525.599609" xlink:href="#DejaVuSans-6c"/>
      <use x="553.382812" xlink:href="#DejaVuSans-6f"/>
      <use x="614.564453" xlink:href="#DejaVuSans-73"/>
      <use x="666.664062" xlink:href="#DejaVuSans-73"/>
     </g>
    </g>
   </g>
  </g>
 </g>
 <defs>
  <clipPath id="pda7489bf62">
   <rect height="266.112" width="357.12" x="57.6" y="41.472"/>
  </clipPath>
 </defs>
</svg>
