<?xml version="1.0" encoding="utf-8" standalone="no"?>
<!DOCTYPE svg PUBLIC "-//W3C//DTD SVG 1.1//EN"
  "http://www.w3.org/Graphics/SVG/1.1/DTD/svg11.dtd">
<svg height="345.6pt" version="1.1" viewBox="0 0 460.8 345.6" width="460.8pt" xmlns="http://www.w3.org/2000/svg" xmlns:xlink="http://www.w3.org/1999/xlink">
 <metadata>
  <rdf:RDF xmlns:cc="http://creativecommons.org/ns#" xmlns:dc="http://purl.org/dc/elements/1.1/" xmlns:rdf="http://www.w3.org/1999/02/22-rdf-syntax-ns#">
   <cc:Work>
    <dc:type rdf:resource="http://purl.org/dc/dcmitype/StillImage"/>
    <dc:date>2021-07-16T22:34:43.213026</dc:date>
    <dc:format>image/svg+xml</dc:format>
    <dc:creator>
     <cc:Agent>
      <dc:title>Matplotlib v3.4.2, https://matplotlib.org/</dc:title>
     </cc:Agent>
    </dc:creator>
   </cc:Work>
  </rdf:RDF>
 </metadata>
 <defs>
  <style type="text/css">*{stroke-linecap:butt;stroke-linejoin:round;}</style>
 </defs>
 <g id="figure_1">
  <g id="patch_1">
   <path d="M 0 345.6 
L 460.8 345.6 
L 460.8 0 
L 0 0 
z
" style="fill:#ffffff;"/>
  </g>
  <g id="axes_1">
   <g id="patch_2">
    <path d="M 57.6 307.584 
L 414.72 307.584 
L 414.72 41.472 
L 57.6 41.472 
z
" style="fill:#ffffff;"/>
   </g>
   <g id="matplotlib.axis_1">
    <g id="xtick_1">
     <g id="line2d_1">
      <defs>
       <path d="M 0 0 
L 0 3.5 
" id="m582064f376" style="stroke:#000000;stroke-width:0.8;"/>
      </defs>
      <g>
       <use style="stroke:#000000;stroke-width:0.8;" x="73.019057" xlink:href="#m582064f376" y="307.584"/>
      </g>
     </g>
     <g id="text_1">
      <!-- 0 -->
      <g transform="translate(69.837807 322.182437)scale(0.1 -0.1)">
       <defs>
        <path d="M 2034 4250 
Q 1547 4250 1301 3770 
Q 1056 3291 1056 2328 
Q 1056 1369 1301 889 
Q 1547 409 2034 409 
Q 2525 409 2770 889 
Q 3016 1369 3016 2328 
Q 3016 3291 2770 3770 
Q 2525 4250 2034 4250 
z
M 2034 4750 
Q 2819 4750 3233 4129 
Q 3647 3509 3647 2328 
Q 3647 1150 3233 529 
Q 2819 -91 2034 -91 
Q 1250 -91 836 529 
Q 422 1150 422 2328 
Q 422 3509 836 4129 
Q 1250 4750 2034 4750 
z
" id="DejaVuSans-30" transform="scale(0.015625)"/>
       </defs>
       <use xlink:href="#DejaVuSans-30"/>
      </g>
     </g>
    </g>
    <g id="xtick_2">
     <g id="line2d_2">
      <g>
       <use style="stroke:#000000;stroke-width:0.8;" x="113.702584" xlink:href="#m582064f376" y="307.584"/>
      </g>
     </g>
     <g id="text_2">
      <!-- 50 -->
      <g transform="translate(107.340084 322.182437)scale(0.1 -0.1)">
       <defs>
        <path d="M 691 4666 
L 3169 4666 
L 3169 4134 
L 1269 4134 
L 1269 2991 
Q 1406 3038 1543 3061 
Q 1681 3084 1819 3084 
Q 2600 3084 3056 2656 
Q 3513 2228 3513 1497 
Q 3513 744 3044 326 
Q 2575 -91 1722 -91 
Q 1428 -91 1123 -41 
Q 819 9 494 109 
L 494 744 
Q 775 591 1075 516 
Q 1375 441 1709 441 
Q 2250 441 2565 725 
Q 2881 1009 2881 1497 
Q 2881 1984 2565 2268 
Q 2250 2553 1709 2553 
Q 1456 2553 1204 2497 
Q 953 2441 691 2322 
L 691 4666 
z
" id="DejaVuSans-35" transform="scale(0.015625)"/>
       </defs>
       <use xlink:href="#DejaVuSans-35"/>
       <use x="63.623047" xlink:href="#DejaVuSans-30"/>
      </g>
     </g>
    </g>
    <g id="xtick_3">
     <g id="line2d_3">
      <g>
       <use style="stroke:#000000;stroke-width:0.8;" x="154.386111" xlink:href="#m582064f376" y="307.584"/>
      </g>
     </g>
     <g id="text_3">
      <!-- 100 -->
      <g transform="translate(144.842361 322.182437)scale(0.1 -0.1)">
       <defs>
        <path d="M 794 531 
L 1825 531 
L 1825 4091 
L 703 3866 
L 703 4441 
L 1819 4666 
L 2450 4666 
L 2450 531 
L 3481 531 
L 3481 0 
L 794 0 
L 794 531 
z
" id="DejaVuSans-31" transform="scale(0.015625)"/>
       </defs>
       <use xlink:href="#DejaVuSans-31"/>
       <use x="63.623047" xlink:href="#DejaVuSans-30"/>
       <use x="127.246094" xlink:href="#DejaVuSans-30"/>
      </g>
     </g>
    </g>
    <g id="xtick_4">
     <g id="line2d_4">
      <g>
       <use style="stroke:#000000;stroke-width:0.8;" x="195.069638" xlink:href="#m582064f376" y="307.584"/>
      </g>
     </g>
     <g id="text_4">
      <!-- 150 -->
      <g transform="translate(185.525888 322.182437)scale(0.1 -0.1)">
       <use xlink:href="#DejaVuSans-31"/>
       <use x="63.623047" xlink:href="#DejaVuSans-35"/>
       <use x="127.246094" xlink:href="#DejaVuSans-30"/>
      </g>
     </g>
    </g>
    <g id="xtick_5">
     <g id="line2d_5">
      <g>
       <use style="stroke:#000000;stroke-width:0.8;" x="235.753165" xlink:href="#m582064f376" y="307.584"/>
      </g>
     </g>
     <g id="text_5">
      <!-- 200 -->
      <g transform="translate(226.209415 322.182437)scale(0.1 -0.1)">
       <defs>
        <path d="M 1228 531 
L 3431 531 
L 3431 0 
L 469 0 
L 469 531 
Q 828 903 1448 1529 
Q 2069 2156 2228 2338 
Q 2531 2678 2651 2914 
Q 2772 3150 2772 3378 
Q 2772 3750 2511 3984 
Q 2250 4219 1831 4219 
Q 1534 4219 1204 4116 
Q 875 4013 500 3803 
L 500 4441 
Q 881 4594 1212 4672 
Q 1544 4750 1819 4750 
Q 2544 4750 2975 4387 
Q 3406 4025 3406 3419 
Q 3406 3131 3298 2873 
Q 3191 2616 2906 2266 
Q 2828 2175 2409 1742 
Q 1991 1309 1228 531 
z
" id="DejaVuSans-32" transform="scale(0.015625)"/>
       </defs>
       <use xlink:href="#DejaVuSans-32"/>
       <use x="63.623047" xlink:href="#DejaVuSans-30"/>
       <use x="127.246094" xlink:href="#DejaVuSans-30"/>
      </g>
     </g>
    </g>
    <g id="xtick_6">
     <g id="line2d_6">
      <g>
       <use style="stroke:#000000;stroke-width:0.8;" x="276.436692" xlink:href="#m582064f376" y="307.584"/>
      </g>
     </g>
     <g id="text_6">
      <!-- 250 -->
      <g transform="translate(266.892942 322.182437)scale(0.1 -0.1)">
       <use xlink:href="#DejaVuSans-32"/>
       <use x="63.623047" xlink:href="#DejaVuSans-35"/>
       <use x="127.246094" xlink:href="#DejaVuSans-30"/>
      </g>
     </g>
    </g>
    <g id="xtick_7">
     <g id="line2d_7">
      <g>
       <use style="stroke:#000000;stroke-width:0.8;" x="317.120219" xlink:href="#m582064f376" y="307.584"/>
      </g>
     </g>
     <g id="text_7">
      <!-- 300 -->
      <g transform="translate(307.576469 322.182437)scale(0.1 -0.1)">
       <defs>
        <path d="M 2597 2516 
Q 3050 2419 3304 2112 
Q 3559 1806 3559 1356 
Q 3559 666 3084 287 
Q 2609 -91 1734 -91 
Q 1441 -91 1130 -33 
Q 819 25 488 141 
L 488 750 
Q 750 597 1062 519 
Q 1375 441 1716 441 
Q 2309 441 2620 675 
Q 2931 909 2931 1356 
Q 2931 1769 2642 2001 
Q 2353 2234 1838 2234 
L 1294 2234 
L 1294 2753 
L 1863 2753 
Q 2328 2753 2575 2939 
Q 2822 3125 2822 3475 
Q 2822 3834 2567 4026 
Q 2313 4219 1838 4219 
Q 1578 4219 1281 4162 
Q 984 4106 628 3988 
L 628 4550 
Q 988 4650 1302 4700 
Q 1616 4750 1894 4750 
Q 2613 4750 3031 4423 
Q 3450 4097 3450 3541 
Q 3450 3153 3228 2886 
Q 3006 2619 2597 2516 
z
" id="DejaVuSans-33" transform="scale(0.015625)"/>
       </defs>
       <use xlink:href="#DejaVuSans-33"/>
       <use x="63.623047" xlink:href="#DejaVuSans-30"/>
       <use x="127.246094" xlink:href="#DejaVuSans-30"/>
      </g>
     </g>
    </g>
    <g id="xtick_8">
     <g id="line2d_8">
      <g>
       <use style="stroke:#000000;stroke-width:0.8;" x="357.803746" xlink:href="#m582064f376" y="307.584"/>
      </g>
     </g>
     <g id="text_8">
      <!-- 350 -->
      <g transform="translate(348.259996 322.182437)scale(0.1 -0.1)">
       <use xlink:href="#DejaVuSans-33"/>
       <use x="63.623047" xlink:href="#DejaVuSans-35"/>
       <use x="127.246094" xlink:href="#DejaVuSans-30"/>
      </g>
     </g>
    </g>
    <g id="xtick_9">
     <g id="line2d_9">
      <g>
       <use style="stroke:#000000;stroke-width:0.8;" x="398.487273" xlink:href="#m582064f376" y="307.584"/>
      </g>
     </g>
     <g id="text_9">
      <!-- 400 -->
      <g transform="translate(388.943523 322.182437)scale(0.1 -0.1)">
       <defs>
        <path d="M 2419 4116 
L 825 1625 
L 2419 1625 
L 2419 4116 
z
M 2253 4666 
L 3047 4666 
L 3047 1625 
L 3713 1625 
L 3713 1100 
L 3047 1100 
L 3047 0 
L 2419 0 
L 2419 1100 
L 313 1100 
L 313 1709 
L 2253 4666 
z
" id="DejaVuSans-34" transform="scale(0.015625)"/>
       </defs>
       <use xlink:href="#DejaVuSans-34"/>
       <use x="63.623047" xlink:href="#DejaVuSans-30"/>
       <use x="127.246094" xlink:href="#DejaVuSans-30"/>
      </g>
     </g>
    </g>
    <g id="text_10">
     <!-- Epoch -->
     <g transform="translate(213.193594 339.659781)scale(0.15 -0.15)">
      <defs>
       <path d="M 628 4666 
L 3578 4666 
L 3578 4134 
L 1259 4134 
L 1259 2753 
L 3481 2753 
L 3481 2222 
L 1259 2222 
L 1259 531 
L 3634 531 
L 3634 0 
L 628 0 
L 628 4666 
z
" id="DejaVuSans-45" transform="scale(0.015625)"/>
       <path d="M 1159 525 
L 1159 -1331 
L 581 -1331 
L 581 3500 
L 1159 3500 
L 1159 2969 
Q 1341 3281 1617 3432 
Q 1894 3584 2278 3584 
Q 2916 3584 3314 3078 
Q 3713 2572 3713 1747 
Q 3713 922 3314 415 
Q 2916 -91 2278 -91 
Q 1894 -91 1617 61 
Q 1341 213 1159 525 
z
M 3116 1747 
Q 3116 2381 2855 2742 
Q 2594 3103 2138 3103 
Q 1681 3103 1420 2742 
Q 1159 2381 1159 1747 
Q 1159 1113 1420 752 
Q 1681 391 2138 391 
Q 2594 391 2855 752 
Q 3116 1113 3116 1747 
z
" id="DejaVuSans-70" transform="scale(0.015625)"/>
       <path d="M 1959 3097 
Q 1497 3097 1228 2736 
Q 959 2375 959 1747 
Q 959 1119 1226 758 
Q 1494 397 1959 397 
Q 2419 397 2687 759 
Q 2956 1122 2956 1747 
Q 2956 2369 2687 2733 
Q 2419 3097 1959 3097 
z
M 1959 3584 
Q 2709 3584 3137 3096 
Q 3566 2609 3566 1747 
Q 3566 888 3137 398 
Q 2709 -91 1959 -91 
Q 1206 -91 779 398 
Q 353 888 353 1747 
Q 353 2609 779 3096 
Q 1206 3584 1959 3584 
z
" id="DejaVuSans-6f" transform="scale(0.015625)"/>
       <path d="M 3122 3366 
L 3122 2828 
Q 2878 2963 2633 3030 
Q 2388 3097 2138 3097 
Q 1578 3097 1268 2742 
Q 959 2388 959 1747 
Q 959 1106 1268 751 
Q 1578 397 2138 397 
Q 2388 397 2633 464 
Q 2878 531 3122 666 
L 3122 134 
Q 2881 22 2623 -34 
Q 2366 -91 2075 -91 
Q 1284 -91 818 406 
Q 353 903 353 1747 
Q 353 2603 823 3093 
Q 1294 3584 2113 3584 
Q 2378 3584 2631 3529 
Q 2884 3475 3122 3366 
z
" id="DejaVuSans-63" transform="scale(0.015625)"/>
       <path d="M 3513 2113 
L 3513 0 
L 2938 0 
L 2938 2094 
Q 2938 2591 2744 2837 
Q 2550 3084 2163 3084 
Q 1697 3084 1428 2787 
Q 1159 2491 1159 1978 
L 1159 0 
L 581 0 
L 581 4863 
L 1159 4863 
L 1159 2956 
Q 1366 3272 1645 3428 
Q 1925 3584 2291 3584 
Q 2894 3584 3203 3211 
Q 3513 2838 3513 2113 
z
" id="DejaVuSans-68" transform="scale(0.015625)"/>
      </defs>
      <use xlink:href="#DejaVuSans-45"/>
      <use x="63.183594" xlink:href="#DejaVuSans-70"/>
      <use x="126.660156" xlink:href="#DejaVuSans-6f"/>
      <use x="187.841797" xlink:href="#DejaVuSans-63"/>
      <use x="242.822266" xlink:href="#DejaVuSans-68"/>
     </g>
    </g>
   </g>
   <g id="matplotlib.axis_2">
    <g id="ytick_1">
     <g id="line2d_10">
      <defs>
       <path d="M 0 0 
L -3.5 0 
" id="ma0c3d76bde" style="stroke:#000000;stroke-width:0.8;"/>
      </defs>
      <g>
       <use style="stroke:#000000;stroke-width:0.8;" x="57.6" xlink:href="#ma0c3d76bde" y="287.38232"/>
      </g>
     </g>
     <g id="text_11">
      <!-- −1000 -->
      <g transform="translate(16.770313 291.181539)scale(0.1 -0.1)">
       <defs>
        <path d="M 678 2272 
L 4684 2272 
L 4684 1741 
L 678 1741 
L 678 2272 
z
" id="DejaVuSans-2212" transform="scale(0.015625)"/>
       </defs>
       <use xlink:href="#DejaVuSans-2212"/>
       <use x="83.789062" xlink:href="#DejaVuSans-31"/>
       <use x="147.412109" xlink:href="#DejaVuSans-30"/>
       <use x="211.035156" xlink:href="#DejaVuSans-30"/>
       <use x="274.658203" xlink:href="#DejaVuSans-30"/>
      </g>
     </g>
    </g>
    <g id="ytick_2">
     <g id="line2d_11">
      <g>
       <use style="stroke:#000000;stroke-width:0.8;" x="57.6" xlink:href="#ma0c3d76bde" y="255.69126"/>
      </g>
     </g>
     <g id="text_12">
      <!-- −750 -->
      <g transform="translate(23.132812 259.490479)scale(0.1 -0.1)">
       <defs>
        <path d="M 525 4666 
L 3525 4666 
L 3525 4397 
L 1831 0 
L 1172 0 
L 2766 4134 
L 525 4134 
L 525 4666 
z
" id="DejaVuSans-37" transform="scale(0.015625)"/>
       </defs>
       <use xlink:href="#DejaVuSans-2212"/>
       <use x="83.789062" xlink:href="#DejaVuSans-37"/>
       <use x="147.412109" xlink:href="#DejaVuSans-35"/>
       <use x="211.035156" xlink:href="#DejaVuSans-30"/>
      </g>
     </g>
    </g>
    <g id="ytick_3">
     <g id="line2d_12">
      <g>
       <use style="stroke:#000000;stroke-width:0.8;" x="57.6" xlink:href="#ma0c3d76bde" y="224.0002"/>
      </g>
     </g>
     <g id="text_13">
      <!-- −500 -->
      <g transform="translate(23.132812 227.799419)scale(0.1 -0.1)">
       <use xlink:href="#DejaVuSans-2212"/>
       <use x="83.789062" xlink:href="#DejaVuSans-35"/>
       <use x="147.412109" xlink:href="#DejaVuSans-30"/>
       <use x="211.035156" xlink:href="#DejaVuSans-30"/>
      </g>
     </g>
    </g>
    <g id="ytick_4">
     <g id="line2d_13">
      <g>
       <use style="stroke:#000000;stroke-width:0.8;" x="57.6" xlink:href="#ma0c3d76bde" y="192.30914"/>
      </g>
     </g>
     <g id="text_14">
      <!-- −250 -->
      <g transform="translate(23.132812 196.108359)scale(0.1 -0.1)">
       <use xlink:href="#DejaVuSans-2212"/>
       <use x="83.789062" xlink:href="#DejaVuSans-32"/>
       <use x="147.412109" xlink:href="#DejaVuSans-35"/>
       <use x="211.035156" xlink:href="#DejaVuSans-30"/>
      </g>
     </g>
    </g>
    <g id="ytick_5">
     <g id="line2d_14">
      <g>
       <use style="stroke:#000000;stroke-width:0.8;" x="57.6" xlink:href="#ma0c3d76bde" y="160.61808"/>
      </g>
     </g>
     <g id="text_15">
      <!-- 0 -->
      <g transform="translate(44.2375 164.417299)scale(0.1 -0.1)">
       <use xlink:href="#DejaVuSans-30"/>
      </g>
     </g>
    </g>
    <g id="ytick_6">
     <g id="line2d_15">
      <g>
       <use style="stroke:#000000;stroke-width:0.8;" x="57.6" xlink:href="#ma0c3d76bde" y="128.927021"/>
      </g>
     </g>
     <g id="text_16">
      <!-- 250 -->
      <g transform="translate(31.5125 132.726239)scale(0.1 -0.1)">
       <use xlink:href="#DejaVuSans-32"/>
       <use x="63.623047" xlink:href="#DejaVuSans-35"/>
       <use x="127.246094" xlink:href="#DejaVuSans-30"/>
      </g>
     </g>
    </g>
    <g id="ytick_7">
     <g id="line2d_16">
      <g>
       <use style="stroke:#000000;stroke-width:0.8;" x="57.6" xlink:href="#ma0c3d76bde" y="97.235961"/>
      </g>
     </g>
     <g id="text_17">
      <!-- 500 -->
      <g transform="translate(31.5125 101.03518)scale(0.1 -0.1)">
       <use xlink:href="#DejaVuSans-35"/>
       <use x="63.623047" xlink:href="#DejaVuSans-30"/>
       <use x="127.246094" xlink:href="#DejaVuSans-30"/>
      </g>
     </g>
    </g>
    <g id="ytick_8">
     <g id="line2d_17">
      <g>
       <use style="stroke:#000000;stroke-width:0.8;" x="57.6" xlink:href="#ma0c3d76bde" y="65.544901"/>
      </g>
     </g>
     <g id="text_18">
      <!-- 750 -->
      <g transform="translate(31.5125 69.34412)scale(0.1 -0.1)">
       <use xlink:href="#DejaVuSans-37"/>
       <use x="63.623047" xlink:href="#DejaVuSans-35"/>
       <use x="127.246094" xlink:href="#DejaVuSans-30"/>
      </g>
     </g>
    </g>
    <g id="text_19">
     <!-- Loss -->
     <g transform="translate(9.650781 190.978781)rotate(-90)scale(0.15 -0.15)">
      <defs>
       <path d="M 628 4666 
L 1259 4666 
L 1259 531 
L 3531 531 
L 3531 0 
L 628 0 
L 628 4666 
z
" id="DejaVuSans-4c" transform="scale(0.015625)"/>
       <path d="M 2834 3397 
L 2834 2853 
Q 2591 2978 2328 3040 
Q 2066 3103 1784 3103 
Q 1356 3103 1142 2972 
Q 928 2841 928 2578 
Q 928 2378 1081 2264 
Q 1234 2150 1697 2047 
L 1894 2003 
Q 2506 1872 2764 1633 
Q 3022 1394 3022 966 
Q 3022 478 2636 193 
Q 2250 -91 1575 -91 
Q 1294 -91 989 -36 
Q 684 19 347 128 
L 347 722 
Q 666 556 975 473 
Q 1284 391 1588 391 
Q 1994 391 2212 530 
Q 2431 669 2431 922 
Q 2431 1156 2273 1281 
Q 2116 1406 1581 1522 
L 1381 1569 
Q 847 1681 609 1914 
Q 372 2147 372 2553 
Q 372 3047 722 3315 
Q 1072 3584 1716 3584 
Q 2034 3584 2315 3537 
Q 2597 3491 2834 3397 
z
" id="DejaVuSans-73" transform="scale(0.015625)"/>
      </defs>
      <use xlink:href="#DejaVuSans-4c"/>
      <use x="53.962891" xlink:href="#DejaVuSans-6f"/>
      <use x="115.144531" xlink:href="#DejaVuSans-73"/>
      <use x="167.244141" xlink:href="#DejaVuSans-73"/>
     </g>
    </g>
   </g>
   <g id="line2d_18">
    <path clip-path="url(#p93c51ecaea)" d="M 73.832727 168.798029 
L 74.646398 196.526092 
L 75.460068 193.754082 
L 76.273739 198.14512 
L 77.087409 211.838471 
L 77.90108 207.316182 
L 78.714751 213.536444 
L 79.528421 224.370951 
L 80.342092 221.760855 
L 81.155762 227.256455 
L 81.969433 230.092125 
L 82.783103 228.881138 
L 83.596774 234.036587 
L 84.410444 237.537676 
L 85.224115 239.633857 
L 86.037785 238.114072 
L 86.851456 242.399219 
L 87.665126 239.55065 
L 88.478797 247.372409 
L 89.292468 242.871849 
L 90.106138 245.265815 
L 90.919809 249.657539 
L 91.733479 249.554253 
L 92.54715 251.222512 
L 93.36082 247.976466 
L 94.174491 254.48629 
L 94.988161 252.793037 
L 95.801832 256.01029 
L 96.615502 249.083987 
L 97.429173 254.269939 
L 98.242843 254.068518 
L 99.056514 254.629109 
L 99.870185 259.269535 
L 100.683855 255.97261 
L 101.497526 258.100483 
L 102.311196 259.085274 
L 103.124867 256.530622 
L 103.938537 258.301123 
L 104.752208 258.714559 
L 105.565878 260.400348 
L 106.379549 259.325279 
L 107.193219 251.244803 
L 108.00689 263.431526 
L 108.82056 260.034912 
L 109.634231 259.466131 
L 110.447902 260.774084 
L 111.261572 256.250667 
L 112.075243 261.692666 
L 112.888913 256.916544 
L 113.702584 255.918768 
L 114.516254 263.626051 
L 115.329925 265.863694 
L 116.143595 261.153983 
L 116.957266 264.493354 
L 117.770936 262.949437 
L 118.584607 268.298427 
L 119.398278 265.54477 
L 120.211948 268.961483 
L 121.025619 265.544873 
L 121.839289 266.075453 
L 122.65296 268.263775 
L 123.46663 265.728714 
L 124.280301 271.485031 
L 125.093971 263.717521 
L 125.907642 265.109048 
L 126.721312 265.776702 
L 127.534983 267.097214 
L 128.348653 266.225778 
L 129.162324 260.606368 
L 129.975995 272.444601 
L 130.789665 268.051564 
L 131.603336 270.849948 
L 132.417006 262.62215 
L 133.230677 266.473689 
L 134.044347 265.138253 
L 134.858018 269.790364 
L 135.671688 267.048741 
L 136.485359 262.38396 
L 137.299029 265.562921 
L 138.1127 265.107792 
L 138.92637 270.322477 
L 139.740041 269.275068 
L 140.553712 272.297399 
L 141.367382 268.611487 
L 142.181053 267.639379 
L 142.994723 271.995974 
L 143.808394 270.832707 
L 144.622064 266.327951 
L 145.435735 270.629228 
L 146.249405 265.332743 
L 147.063076 274.181406 
L 147.876746 269.817264 
L 148.690417 268.401058 
L 149.504087 269.842647 
L 150.317758 269.827905 
L 151.131429 267.96521 
L 151.945099 266.748691 
L 152.75877 276.975858 
L 153.57244 272.433413 
L 154.386111 270.590028 
L 155.199781 276.42989 
L 156.013452 269.669858 
L 156.827122 272.993313 
L 158.454463 270.47825 
L 159.268134 270.996866 
L 160.081805 267.551305 
L 160.895475 266.688834 
L 161.709146 271.358184 
L 162.522816 271.482684 
L 163.336487 271.838703 
L 164.150157 266.028532 
L 164.963828 271.962974 
L 165.777498 270.943708 
L 166.591169 270.240031 
L 167.404839 273.934909 
L 168.21851 273.329812 
L 169.03218 270.957613 
L 169.845851 268.994708 
L 171.473192 273.640672 
L 172.286863 270.454198 
L 173.100533 275.149708 
L 173.914204 270.180057 
L 174.727874 278.075005 
L 175.541545 274.371788 
L 176.355215 276.866105 
L 177.168886 271.964928 
L 177.982556 272.620486 
L 178.796227 272.170053 
L 179.609897 272.500352 
L 180.423568 268.292556 
L 181.237239 272.911573 
L 182.050909 274.748762 
L 182.86458 273.354201 
L 183.67825 275.353514 
L 184.491921 276.055937 
L 185.305591 276.594836 
L 186.119262 276.044484 
L 187.746603 271.419108 
L 188.560273 272.676957 
L 189.373944 274.976766 
L 190.187614 278.57644 
L 191.001285 276.622883 
L 191.814956 273.020011 
L 192.628626 273.983911 
L 193.442297 268.073464 
L 194.255967 278.541965 
L 195.069638 272.778685 
L 195.883308 278.706993 
L 196.696979 277.726195 
L 197.510649 273.962691 
L 198.32432 279.094472 
L 199.13799 273.693367 
L 199.951661 280.206006 
L 200.765332 276.194339 
L 201.579002 282.175243 
L 202.392673 270.371505 
L 203.206343 271.038157 
L 204.020014 273.107909 
L 204.833684 274.368982 
L 205.647355 276.435398 
L 206.461025 268.663109 
L 207.274696 275.339112 
L 208.088366 271.204044 
L 208.902037 273.601341 
L 209.715707 279.374646 
L 210.529378 282.97069 
L 211.343049 272.829056 
L 212.156719 275.234396 
L 212.97039 278.313766 
L 213.78406 271.848107 
L 214.597731 271.705635 
L 215.411401 271.953778 
L 216.225072 273.579429 
L 217.038742 278.319161 
L 217.852413 273.877268 
L 218.666083 275.50424 
L 219.479754 283.642006 
L 220.293424 280.853057 
L 221.107095 276.270022 
L 221.920766 274.196531 
L 222.734436 274.287119 
L 223.548107 276.141753 
L 224.361777 277.548557 
L 225.175448 273.789539 
L 225.989118 271.779238 
L 226.802789 276.063452 
L 227.616459 275.740788 
L 228.43013 276.758741 
L 229.2438 273.332217 
L 230.057471 275.070193 
L 230.871141 271.638664 
L 231.684812 280.85098 
L 232.498483 276.701356 
L 233.312153 277.415652 
L 234.125824 274.542967 
L 234.939494 277.707044 
L 235.753165 275.978373 
L 236.566835 271.598578 
L 237.380506 272.835182 
L 238.194176 277.450799 
L 239.007847 284.245856 
L 239.821517 278.91298 
L 240.635188 284.27095 
L 241.448859 273.226421 
L 242.262529 282.96011 
L 243.0762 280.840962 
L 243.88987 276.033053 
L 244.703541 279.955989 
L 245.517211 285.348903 
L 246.330882 281.457472 
L 247.144552 273.94038 
L 247.958223 276.378352 
L 248.771893 274.330357 
L 250.399234 280.746437 
L 252.026576 274.300548 
L 252.840246 281.200971 
L 253.653917 278.690773 
L 254.467587 277.853061 
L 255.281258 277.348844 
L 256.094928 278.471022 
L 256.908599 277.206413 
L 257.722269 278.37352 
L 258.53594 282.680281 
L 259.34961 277.297227 
L 260.163281 280.914256 
L 260.976951 275.065856 
L 261.790622 275.427627 
L 262.604293 281.58353 
L 263.417963 274.646746 
L 264.231634 277.244992 
L 265.045304 277.8591 
L 265.858975 277.23855 
L 266.672645 277.049614 
L 267.486316 282.17905 
L 268.299986 279.504147 
L 269.113657 278.187793 
L 269.927327 280.407154 
L 270.740998 284.813886 
L 271.554668 279.038975 
L 272.368339 283.542787 
L 273.18201 280.242767 
L 273.99568 278.185914 
L 274.809351 278.847005 
L 275.623021 276.847613 
L 277.250362 282.669441 
L 278.064033 281.066919 
L 278.877703 276.399548 
L 279.691374 281.897651 
L 280.505044 281.312511 
L 281.318715 281.40625 
L 282.132386 280.968169 
L 282.946056 279.612619 
L 283.759727 275.78541 
L 284.573397 281.743798 
L 285.387068 285.846321 
L 286.200738 278.204066 
L 287.014409 283.232942 
L 287.828079 280.410491 
L 288.64175 274.409065 
L 289.45542 283.388739 
L 291.082761 271.423554 
L 291.896432 285.561942 
L 292.710103 282.962547 
L 293.523773 277.980194 
L 294.337444 275.220365 
L 295.151114 283.149962 
L 295.964785 279.95201 
L 296.778455 280.69193 
L 298.405796 284.673485 
L 299.219467 282.579729 
L 300.033137 287.815237 
L 300.846808 285.766915 
L 301.660478 272.834456 
L 302.474149 281.862082 
L 303.28782 280.08313 
L 304.10149 285.897767 
L 304.915161 276.858063 
L 305.728831 286.83613 
L 306.542502 283.994257 
L 307.356172 280.576481 
L 308.169843 282.939227 
L 309.797184 288.116909 
L 311.424525 281.488076 
L 312.238195 290.147026 
L 313.051866 285.964036 
L 313.865537 285.987759 
L 314.679207 279.158619 
L 315.492878 276.55578 
L 316.306548 283.239184 
L 317.120219 285.594003 
L 317.933889 285.787667 
L 318.74756 286.952803 
L 319.56123 284.447258 
L 320.374901 283.70184 
L 321.188571 282.459095 
L 322.002242 283.766581 
L 322.815913 281.239488 
L 323.629583 286.077685 
L 324.443254 287.138711 
L 325.256924 281.622017 
L 326.070595 286.025017 
L 326.884265 281.9254 
L 327.697936 281.042515 
L 328.511606 286.488071 
L 329.325277 289.714557 
L 330.138947 288.608228 
L 330.952618 279.967824 
L 331.766288 283.56075 
L 332.579959 291.71551 
L 333.39363 282.272511 
L 334.2073 282.517505 
L 335.020971 290.777417 
L 335.834641 283.199165 
L 336.648312 283.61694 
L 337.461982 279.036999 
L 338.275653 284.100143 
L 339.089323 286.571171 
L 339.902994 286.98711 
L 340.716664 286.605424 
L 341.530335 287.845022 
L 342.344005 282.164883 
L 343.157676 292.934723 
L 343.971347 282.691928 
L 344.785017 289.470951 
L 345.598688 290.047229 
L 347.226029 282.81188 
L 348.039699 285.444033 
L 348.85337 290.308788 
L 349.66704 286.168462 
L 350.480711 286.305033 
L 351.294381 283.813858 
L 352.108052 282.632747 
L 352.921722 293.587356 
L 353.735393 282.704507 
L 354.549064 283.539775 
L 355.362734 284.853792 
L 356.176405 285.245031 
L 356.990075 281.635679 
L 357.803746 285.480479 
L 358.617416 282.265023 
L 359.431087 288.813735 
L 360.244757 290.325468 
L 361.058428 284.103047 
L 361.872098 283.606986 
L 362.685769 281.363749 
L 363.49944 284.512722 
L 364.31311 286.223379 
L 365.126781 285.925497 
L 365.940451 291.174182 
L 366.754122 292.910406 
L 367.567792 282.775914 
L 368.381463 282.515314 
L 369.195133 285.221426 
L 370.008804 285.891745 
L 370.822474 288.430732 
L 371.636145 288.016979 
L 372.449815 292.865128 
L 373.263486 286.801699 
L 374.077157 286.032468 
L 374.890827 288.636402 
L 375.704498 285.975048 
L 376.518168 287.251283 
L 377.331839 282.928231 
L 378.145509 286.574331 
L 378.95918 285.993179 
L 379.77285 283.034714 
L 380.586521 284.121752 
L 381.400191 290.088222 
L 382.213862 276.491252 
L 383.027532 276.046004 
L 383.841203 284.02644 
L 384.654874 287.394886 
L 385.468544 288.216264 
L 386.282215 287.798946 
L 387.095885 287.556776 
L 387.909556 286.1805 
L 388.723226 284.320393 
L 389.536897 286.543473 
L 390.350567 284.87188 
L 391.164238 288.811414 
L 391.977908 284.39848 
L 392.791579 286.721216 
L 393.605249 286.388488 
L 394.41892 287.722555 
L 395.232591 291.068799 
L 396.046261 295.488 
L 396.859932 294.793045 
L 397.673602 281.321004 
L 398.487273 287.652988 
L 398.487273 287.652988 
" style="fill:none;stroke:#1f77b4;stroke-linecap:square;stroke-width:1.5;"/>
   </g>
   <g id="line2d_19">
    <path clip-path="url(#p93c51ecaea)" d="M 73.832727 190.970756 
L 74.646398 186.842486 
L 75.460068 158.569727 
L 76.273739 212.247764 
L 77.087409 53.568 
L 77.90108 218.043008 
L 78.714751 219.799785 
L 79.528421 227.503693 
L 80.342092 229.121218 
L 81.155762 226.657197 
L 81.969433 230.217884 
L 82.783103 235.585801 
L 83.596774 238.428963 
L 84.410444 237.922376 
L 85.224115 228.971132 
L 86.037785 243.155468 
L 86.851456 245.904083 
L 87.665126 241.982617 
L 88.478797 248.945919 
L 89.292468 239.429758 
L 90.106138 244.115253 
L 90.919809 252.32805 
L 91.733479 250.359848 
L 92.54715 251.750052 
L 93.36082 250.726369 
L 94.174491 250.428926 
L 94.988161 248.206332 
L 95.801832 257.339719 
L 96.615502 254.918184 
L 97.429173 254.72572 
L 98.242843 259.982635 
L 99.056514 257.358646 
L 99.870185 261.464602 
L 100.683855 253.351974 
L 101.497526 253.480349 
L 102.311196 250.465652 
L 103.938537 260.393271 
L 104.752208 260.379664 
L 105.565878 245.679437 
L 106.379549 259.406658 
L 107.193219 261.742814 
L 108.00689 260.701337 
L 108.82056 260.904001 
L 109.634231 260.613198 
L 110.447902 264.009146 
L 111.261572 260.647353 
L 112.075243 260.11179 
L 112.888913 262.703575 
L 113.702584 263.413732 
L 114.516254 265.689595 
L 115.329925 263.745917 
L 116.143595 263.723435 
L 116.957266 263.350731 
L 117.770936 263.512335 
L 118.584607 267.182708 
L 119.398278 270.128439 
L 120.211948 266.161552 
L 121.025619 267.521043 
L 121.839289 265.359039 
L 122.65296 265.549868 
L 123.46663 267.95152 
L 124.280301 266.980173 
L 125.093971 268.89533 
L 125.907642 265.349078 
L 126.721312 266.803412 
L 127.534983 269.352251 
L 129.162324 259.810645 
L 129.975995 266.21732 
L 130.789665 265.023105 
L 131.603336 266.752334 
L 132.417006 265.945586 
L 133.230677 267.552064 
L 134.044347 248.795644 
L 134.858018 267.26665 
L 135.671688 272.000042 
L 136.485359 260.824659 
L 137.299029 264.801197 
L 138.1127 267.271188 
L 138.92637 267.898754 
L 139.740041 268.784928 
L 140.553712 258.448077 
L 141.367382 265.473326 
L 142.181053 270.511484 
L 142.994723 268.229698 
L 143.808394 274.989372 
L 144.622064 271.789986 
L 145.435735 270.050236 
L 146.249405 270.776392 
L 147.876746 265.058271 
L 148.690417 270.443773 
L 149.504087 267.735454 
L 151.131429 272.200069 
L 151.945099 267.41667 
L 152.75877 265.015343 
L 153.57244 265.779975 
L 155.199781 277.059831 
L 156.013452 263.565254 
L 156.827122 267.480953 
L 157.640793 273.489878 
L 158.454463 272.173984 
L 159.268134 271.086665 
L 160.081805 271.531744 
L 161.709146 268.219317 
L 162.522816 269.748421 
L 163.336487 268.783282 
L 164.150157 270.523853 
L 164.963828 269.722275 
L 165.777498 273.009723 
L 166.591169 272.079459 
L 167.404839 267.692339 
L 168.21851 269.519821 
L 169.03218 268.956 
L 169.845851 274.396781 
L 170.659522 271.763686 
L 171.473192 267.757309 
L 172.286863 264.616243 
L 173.100533 268.195091 
L 173.914204 273.021092 
L 174.727874 271.663171 
L 175.541545 267.801655 
L 176.355215 268.971382 
L 177.168886 264.512574 
L 177.982556 271.568742 
L 178.796227 274.444612 
L 179.609897 270.427117 
L 180.423568 272.106463 
L 181.237239 274.963283 
L 182.050909 269.695516 
L 182.86458 270.168117 
L 183.67825 273.055939 
L 184.491921 273.974447 
L 185.305591 273.020068 
L 186.119262 276.454123 
L 186.932932 262.717361 
L 187.746603 270.396252 
L 188.560273 273.868968 
L 189.373944 270.418497 
L 190.187614 277.202869 
L 191.001285 273.550421 
L 191.814956 272.067243 
L 192.628626 273.233912 
L 193.442297 275.993774 
L 194.255967 274.850338 
L 195.069638 269.515584 
L 195.883308 275.008771 
L 196.696979 271.569993 
L 197.510649 269.835895 
L 198.32432 274.355367 
L 199.13799 272.477316 
L 199.951661 271.677094 
L 200.765332 267.204904 
L 201.579002 275.621249 
L 202.392673 271.345599 
L 203.206343 274.415428 
L 204.020014 269.256667 
L 204.833684 268.731136 
L 205.647355 271.316304 
L 206.461025 272.964019 
L 207.274696 274.926308 
L 208.088366 274.916574 
L 208.902037 271.138947 
L 209.715707 268.397934 
L 210.529378 279.804693 
L 211.343049 271.820375 
L 212.156719 274.546852 
L 212.97039 274.830752 
L 213.78406 274.121194 
L 214.597731 275.987847 
L 215.411401 273.667895 
L 216.225072 279.234733 
L 217.038742 271.202446 
L 217.852413 275.056664 
L 218.666083 273.705487 
L 219.479754 274.920405 
L 220.293424 275.156691 
L 221.107095 272.576138 
L 221.920766 271.428432 
L 222.734436 272.3021 
L 223.548107 274.238212 
L 224.361777 273.462697 
L 225.175448 274.160379 
L 225.989118 273.027452 
L 226.802789 274.616825 
L 227.616459 269.539845 
L 228.43013 266.358579 
L 229.2438 275.260977 
L 230.871141 272.754144 
L 231.684812 276.707208 
L 232.498483 272.758161 
L 233.312153 279.40673 
L 234.125824 272.724734 
L 234.939494 274.415755 
L 235.753165 271.709387 
L 236.566835 274.000075 
L 237.380506 275.834221 
L 238.194176 276.531242 
L 239.007847 270.228242 
L 239.821517 275.62789 
L 240.635188 275.799241 
L 241.448859 276.21858 
L 242.262529 272.368881 
L 243.0762 279.393468 
L 243.88987 275.736379 
L 244.703541 274.453912 
L 245.517211 278.398883 
L 246.330882 278.677916 
L 247.144552 278.740584 
L 247.958223 278.597128 
L 248.771893 276.663565 
L 249.585564 276.682323 
L 250.399234 275.370327 
L 251.212905 277.558945 
L 252.026576 281.701787 
L 252.840246 278.413395 
L 253.653917 274.602083 
L 254.467587 278.597867 
L 255.281258 273.56715 
L 256.094928 276.687667 
L 256.908599 279.032652 
L 257.722269 272.255551 
L 258.53594 276.661557 
L 259.34961 274.739261 
L 260.163281 276.927482 
L 260.976951 267.407485 
L 261.790622 273.109474 
L 262.604293 276.614138 
L 263.417963 278.36541 
L 264.231634 279.399413 
L 265.858975 274.701926 
L 266.672645 279.234967 
L 267.486316 280.39871 
L 268.299986 273.861272 
L 269.113657 273.908097 
L 269.927327 276.910822 
L 270.740998 274.576087 
L 271.554668 275.810264 
L 272.368339 274.858663 
L 273.18201 274.848306 
L 273.99568 279.357315 
L 274.809351 272.573037 
L 275.623021 276.501443 
L 276.436692 272.481792 
L 277.250362 276.08694 
L 278.064033 276.700072 
L 278.877703 280.280723 
L 279.691374 278.62842 
L 280.505044 279.343907 
L 281.318715 276.674044 
L 282.132386 278.035911 
L 282.946056 279.69705 
L 283.759727 274.848059 
L 284.573397 276.108742 
L 285.387068 278.801976 
L 286.200738 283.471086 
L 287.014409 276.904566 
L 287.828079 279.420986 
L 288.64175 282.377863 
L 289.45542 280.006249 
L 290.269091 276.21969 
L 291.082761 276.252573 
L 291.896432 278.817761 
L 292.710103 279.84145 
L 293.523773 278.221236 
L 294.337444 279.902502 
L 295.151114 272.194314 
L 295.964785 281.846702 
L 296.778455 278.97754 
L 297.592126 276.528193 
L 298.405796 282.424743 
L 299.219467 274.184235 
L 300.033137 278.164394 
L 300.846808 278.80217 
L 301.660478 284.900746 
L 302.474149 280.294107 
L 303.28782 280.289157 
L 304.10149 278.246417 
L 304.915161 278.123034 
L 305.728831 278.420667 
L 306.542502 283.512436 
L 307.356172 274.17964 
L 308.169843 283.352943 
L 308.983513 279.75665 
L 309.797184 281.800661 
L 310.610854 278.485046 
L 311.424525 278.778388 
L 312.238195 277.139572 
L 313.051866 279.94008 
L 313.865537 279.293386 
L 314.679207 280.15378 
L 315.492878 279.483433 
L 316.306548 283.198486 
L 317.933889 277.755694 
L 318.74756 282.642787 
L 319.56123 280.501715 
L 320.374901 281.681373 
L 321.188571 284.892666 
L 322.002242 279.923135 
L 322.815913 280.911893 
L 323.629583 276.648013 
L 324.443254 284.257262 
L 325.256924 280.730047 
L 326.070595 280.292163 
L 327.697936 281.251482 
L 328.511606 280.328354 
L 329.325277 281.28305 
L 330.138947 279.187256 
L 330.952618 273.048593 
L 331.766288 280.199769 
L 332.579959 279.393007 
L 333.39363 283.784761 
L 334.2073 285.731595 
L 335.020971 283.438421 
L 336.648312 281.562961 
L 337.461982 278.939853 
L 338.275653 283.318673 
L 339.089323 281.741415 
L 339.902994 279.827062 
L 340.716664 283.050912 
L 342.344005 284.97295 
L 343.157676 284.505646 
L 343.971347 281.29444 
L 345.598688 277.348552 
L 346.412358 277.896241 
L 347.226029 281.41016 
L 348.039699 283.225481 
L 348.85337 284.106254 
L 349.66704 281.334528 
L 350.480711 282.020912 
L 351.294381 280.826787 
L 352.108052 283.669869 
L 352.921722 285.119428 
L 353.735393 279.58731 
L 354.549064 280.13339 
L 355.362734 279.811494 
L 356.176405 280.481485 
L 356.990075 286.536365 
L 357.803746 285.178849 
L 358.617416 278.915414 
L 359.431087 281.98927 
L 360.244757 280.470752 
L 361.058428 285.265515 
L 361.872098 283.584199 
L 362.685769 283.325439 
L 363.49944 282.646796 
L 364.31311 287.459418 
L 365.126781 281.484806 
L 365.940451 282.431367 
L 366.754122 284.448864 
L 367.567792 283.2797 
L 368.381463 283.508505 
L 369.195133 283.407866 
L 370.008804 278.255404 
L 370.822474 282.182098 
L 371.636145 279.324567 
L 372.449815 284.422002 
L 373.263486 268.433957 
L 374.077157 285.122186 
L 374.890827 284.840258 
L 375.704498 281.87266 
L 376.518168 287.116583 
L 377.331839 286.477146 
L 378.145509 280.602107 
L 378.95918 284.657393 
L 379.77285 286.201755 
L 380.586521 281.333392 
L 381.400191 275.345337 
L 382.213862 281.166234 
L 383.027532 276.842738 
L 383.841203 280.719615 
L 384.654874 282.281487 
L 385.468544 285.648767 
L 386.282215 283.878998 
L 387.095885 285.598909 
L 388.723226 281.60205 
L 389.536897 288.321265 
L 390.350567 287.964675 
L 391.164238 281.05941 
L 391.977908 284.335452 
L 392.791579 284.063778 
L 393.605249 284.991421 
L 394.41892 286.554198 
L 395.232591 288.418732 
L 396.046261 283.740239 
L 396.859932 285.661022 
L 397.673602 280.596413 
L 398.487273 284.066625 
L 398.487273 284.066625 
" style="fill:none;stroke:#ff7f0e;stroke-linecap:square;stroke-width:1.5;"/>
   </g>
   <g id="patch_3">
    <path d="M 57.6 307.584 
L 57.6 41.472 
" style="fill:none;stroke:#000000;stroke-linecap:square;stroke-linejoin:miter;stroke-width:0.8;"/>
   </g>
   <g id="patch_4">
    <path d="M 414.72 307.584 
L 414.72 41.472 
" style="fill:none;stroke:#000000;stroke-linecap:square;stroke-linejoin:miter;stroke-width:0.8;"/>
   </g>
   <g id="patch_5">
    <path d="M 57.6 307.584 
L 414.72 307.584 
" style="fill:none;stroke:#000000;stroke-linecap:square;stroke-linejoin:miter;stroke-width:0.8;"/>
   </g>
   <g id="patch_6">
    <path d="M 57.6 41.472 
L 414.72 41.472 
" style="fill:none;stroke:#000000;stroke-linecap:square;stroke-linejoin:miter;stroke-width:0.8;"/>
   </g>
   <g id="legend_1">
    <g id="patch_7">
     <path d="M 303.845 78.82825 
L 407.72 78.82825 
Q 409.72 78.82825 409.72 76.82825 
L 409.72 48.472 
Q 409.72 46.472 407.72 46.472 
L 303.845 46.472 
Q 301.845 46.472 301.845 48.472 
L 301.845 76.82825 
Q 301.845 78.82825 303.845 78.82825 
z
" style="fill:#ffffff;opacity:0.8;stroke:#cccccc;stroke-linejoin:miter;"/>
    </g>
    <g id="line2d_20">
     <path d="M 305.845 54.570437 
L 325.845 54.570437 
" style="fill:none;stroke:#1f77b4;stroke-linecap:square;stroke-width:1.5;"/>
    </g>
    <g id="line2d_21"/>
    <g id="text_20">
     <!-- Train loss -->
     <g transform="translate(333.845 58.070437)scale(0.1 -0.1)">
      <defs>
       <path d="M -19 4666 
L 3928 4666 
L 3928 4134 
L 2272 4134 
L 2272 0 
L 1638 0 
L 1638 4134 
L -19 4134 
L -19 4666 
z
" id="DejaVuSans-54" transform="scale(0.015625)"/>
       <path d="M 2631 2963 
Q 2534 3019 2420 3045 
Q 2306 3072 2169 3072 
Q 1681 3072 1420 2755 
Q 1159 2438 1159 1844 
L 1159 0 
L 581 0 
L 581 3500 
L 1159 3500 
L 1159 2956 
Q 1341 3275 1631 3429 
Q 1922 3584 2338 3584 
Q 2397 3584 2469 3576 
Q 2541 3569 2628 3553 
L 2631 2963 
z
" id="DejaVuSans-72" transform="scale(0.015625)"/>
       <path d="M 2194 1759 
Q 1497 1759 1228 1600 
Q 959 1441 959 1056 
Q 959 750 1161 570 
Q 1363 391 1709 391 
Q 2188 391 2477 730 
Q 2766 1069 2766 1631 
L 2766 1759 
L 2194 1759 
z
M 3341 1997 
L 3341 0 
L 2766 0 
L 2766 531 
Q 2569 213 2275 61 
Q 1981 -91 1556 -91 
Q 1019 -91 701 211 
Q 384 513 384 1019 
Q 384 1609 779 1909 
Q 1175 2209 1959 2209 
L 2766 2209 
L 2766 2266 
Q 2766 2663 2505 2880 
Q 2244 3097 1772 3097 
Q 1472 3097 1187 3025 
Q 903 2953 641 2809 
L 641 3341 
Q 956 3463 1253 3523 
Q 1550 3584 1831 3584 
Q 2591 3584 2966 3190 
Q 3341 2797 3341 1997 
z
" id="DejaVuSans-61" transform="scale(0.015625)"/>
       <path d="M 603 3500 
L 1178 3500 
L 1178 0 
L 603 0 
L 603 3500 
z
M 603 4863 
L 1178 4863 
L 1178 4134 
L 603 4134 
L 603 4863 
z
" id="DejaVuSans-69" transform="scale(0.015625)"/>
       <path d="M 3513 2113 
L 3513 0 
L 2938 0 
L 2938 2094 
Q 2938 2591 2744 2837 
Q 2550 3084 2163 3084 
Q 1697 3084 1428 2787 
Q 1159 2491 1159 1978 
L 1159 0 
L 581 0 
L 581 3500 
L 1159 3500 
L 1159 2956 
Q 1366 3272 1645 3428 
Q 1925 3584 2291 3584 
Q 2894 3584 3203 3211 
Q 3513 2838 3513 2113 
z
" id="DejaVuSans-6e" transform="scale(0.015625)"/>
       <path id="DejaVuSans-20" transform="scale(0.015625)"/>
       <path d="M 603 4863 
L 1178 4863 
L 1178 0 
L 603 0 
L 603 4863 
z
" id="DejaVuSans-6c" transform="scale(0.015625)"/>
      </defs>
      <use xlink:href="#DejaVuSans-54"/>
      <use x="46.333984" xlink:href="#DejaVuSans-72"/>
      <use x="87.447266" xlink:href="#DejaVuSans-61"/>
      <use x="148.726562" xlink:href="#DejaVuSans-69"/>
      <use x="176.509766" xlink:href="#DejaVuSans-6e"/>
      <use x="239.888672" xlink:href="#DejaVuSans-20"/>
      <use x="271.675781" xlink:href="#DejaVuSans-6c"/>
      <use x="299.458984" xlink:href="#DejaVuSans-6f"/>
      <use x="360.640625" xlink:href="#DejaVuSans-73"/>
      <use x="412.740234" xlink:href="#DejaVuSans-73"/>
     </g>
    </g>
    <g id="line2d_22">
     <path d="M 305.845 69.248562 
L 325.845 69.248562 
" style="fill:none;stroke:#ff7f0e;stroke-linecap:square;stroke-width:1.5;"/>
    </g>
    <g id="line2d_23"/>
    <g id="text_21">
     <!-- Validation loss -->
     <g transform="translate(333.845 72.748562)scale(0.1 -0.1)">
      <defs>
       <path d="M 1831 0 
L 50 4666 
L 709 4666 
L 2188 738 
L 3669 4666 
L 4325 4666 
L 2547 0 
L 1831 0 
z
" id="DejaVuSans-56" transform="scale(0.015625)"/>
       <path d="M 2906 2969 
L 2906 4863 
L 3481 4863 
L 3481 0 
L 2906 0 
L 2906 525 
Q 2725 213 2448 61 
Q 2172 -91 1784 -91 
Q 1150 -91 751 415 
Q 353 922 353 1747 
Q 353 2572 751 3078 
Q 1150 3584 1784 3584 
Q 2172 3584 2448 3432 
Q 2725 3281 2906 2969 
z
M 947 1747 
Q 947 1113 1208 752 
Q 1469 391 1925 391 
Q 2381 391 2643 752 
Q 2906 1113 2906 1747 
Q 2906 2381 2643 2742 
Q 2381 3103 1925 3103 
Q 1469 3103 1208 2742 
Q 947 2381 947 1747 
z
" id="DejaVuSans-64" transform="scale(0.015625)"/>
       <path d="M 1172 4494 
L 1172 3500 
L 2356 3500 
L 2356 3053 
L 1172 3053 
L 1172 1153 
Q 1172 725 1289 603 
Q 1406 481 1766 481 
L 2356 481 
L 2356 0 
L 1766 0 
Q 1100 0 847 248 
Q 594 497 594 1153 
L 594 3053 
L 172 3053 
L 172 3500 
L 594 3500 
L 594 4494 
L 1172 4494 
z
" id="DejaVuSans-74" transform="scale(0.015625)"/>
      </defs>
      <use xlink:href="#DejaVuSans-56"/>
      <use x="60.658203" xlink:href="#DejaVuSans-61"/>
      <use x="121.9375" xlink:href="#DejaVuSans-6c"/>
      <use x="149.720703" xlink:href="#DejaVuSans-69"/>
      <use x="177.503906" xlink:href="#DejaVuSans-64"/>
      <use x="240.980469" xlink:href="#DejaVuSans-61"/>
      <use x="302.259766" xlink:href="#DejaVuSans-74"/>
      <use x="341.46875" xlink:href="#DejaVuSans-69"/>
      <use x="369.251953" xlink:href="#DejaVuSans-6f"/>
      <use x="430.433594" xlink:href="#DejaVuSans-6e"/>
      <use x="493.8125" xlink:href="#DejaVuSans-20"/>
      <use x="525.599609" xlink:href="#DejaVuSans-6c"/>
      <use x="553.382812" xlink:href="#DejaVuSans-6f"/>
      <use x="614.564453" xlink:href="#DejaVuSans-73"/>
      <use x="666.664062" xlink:href="#DejaVuSans-73"/>
     </g>
    </g>
   </g>
  </g>
 </g>
 <defs>
  <clipPath id="p93c51ecaea">
   <rect height="266.112" width="357.12" x="57.6" y="41.472"/>
  </clipPath>
 </defs>
</svg>
