<?xml version="1.0" encoding="utf-8" standalone="no"?>
<!DOCTYPE svg PUBLIC "-//W3C//DTD SVG 1.1//EN"
  "http://www.w3.org/Graphics/SVG/1.1/DTD/svg11.dtd">
<svg height="345.6pt" version="1.1" viewBox="0 0 460.8 345.6" width="460.8pt" xmlns="http://www.w3.org/2000/svg" xmlns:xlink="http://www.w3.org/1999/xlink">
 <metadata>
  <rdf:RDF xmlns:cc="http://creativecommons.org/ns#" xmlns:dc="http://purl.org/dc/elements/1.1/" xmlns:rdf="http://www.w3.org/1999/02/22-rdf-syntax-ns#">
   <cc:Work>
    <dc:type rdf:resource="http://purl.org/dc/dcmitype/StillImage"/>
    <dc:date>2021-07-14T12:46:36.202061</dc:date>
    <dc:format>image/svg+xml</dc:format>
    <dc:creator>
     <cc:Agent>
      <dc:title>Matplotlib v3.4.2, https://matplotlib.org/</dc:title>
     </cc:Agent>
    </dc:creator>
   </cc:Work>
  </rdf:RDF>
 </metadata>
 <defs>
  <style type="text/css">*{stroke-linecap:butt;stroke-linejoin:round;}</style>
 </defs>
 <g id="figure_1">
  <g id="patch_1">
   <path d="M 0 345.6 
L 460.8 345.6 
L 460.8 0 
L 0 0 
z
" style="fill:#ffffff;"/>
  </g>
  <g id="axes_1">
   <g id="patch_2">
    <path d="M 57.6 307.584 
L 414.72 307.584 
L 414.72 41.472 
L 57.6 41.472 
z
" style="fill:#ffffff;"/>
   </g>
   <g id="matplotlib.axis_1">
    <g id="xtick_1">
     <g id="line2d_1">
      <defs>
       <path d="M 0 0 
L 0 3.5 
" id="mb049d9bbb2" style="stroke:#000000;stroke-width:0.8;"/>
      </defs>
      <g>
       <use style="stroke:#000000;stroke-width:0.8;" x="73.019057" xlink:href="#mb049d9bbb2" y="307.584"/>
      </g>
     </g>
     <g id="text_1">
      <!-- 0 -->
      <g transform="translate(69.837807 322.182437)scale(0.1 -0.1)">
       <defs>
        <path d="M 2034 4250 
Q 1547 4250 1301 3770 
Q 1056 3291 1056 2328 
Q 1056 1369 1301 889 
Q 1547 409 2034 409 
Q 2525 409 2770 889 
Q 3016 1369 3016 2328 
Q 3016 3291 2770 3770 
Q 2525 4250 2034 4250 
z
M 2034 4750 
Q 2819 4750 3233 4129 
Q 3647 3509 3647 2328 
Q 3647 1150 3233 529 
Q 2819 -91 2034 -91 
Q 1250 -91 836 529 
Q 422 1150 422 2328 
Q 422 3509 836 4129 
Q 1250 4750 2034 4750 
z
" id="DejaVuSans-30" transform="scale(0.015625)"/>
       </defs>
       <use xlink:href="#DejaVuSans-30"/>
      </g>
     </g>
    </g>
    <g id="xtick_2">
     <g id="line2d_2">
      <g>
       <use style="stroke:#000000;stroke-width:0.8;" x="113.702584" xlink:href="#mb049d9bbb2" y="307.584"/>
      </g>
     </g>
     <g id="text_2">
      <!-- 50 -->
      <g transform="translate(107.340084 322.182437)scale(0.1 -0.1)">
       <defs>
        <path d="M 691 4666 
L 3169 4666 
L 3169 4134 
L 1269 4134 
L 1269 2991 
Q 1406 3038 1543 3061 
Q 1681 3084 1819 3084 
Q 2600 3084 3056 2656 
Q 3513 2228 3513 1497 
Q 3513 744 3044 326 
Q 2575 -91 1722 -91 
Q 1428 -91 1123 -41 
Q 819 9 494 109 
L 494 744 
Q 775 591 1075 516 
Q 1375 441 1709 441 
Q 2250 441 2565 725 
Q 2881 1009 2881 1497 
Q 2881 1984 2565 2268 
Q 2250 2553 1709 2553 
Q 1456 2553 1204 2497 
Q 953 2441 691 2322 
L 691 4666 
z
" id="DejaVuSans-35" transform="scale(0.015625)"/>
       </defs>
       <use xlink:href="#DejaVuSans-35"/>
       <use x="63.623047" xlink:href="#DejaVuSans-30"/>
      </g>
     </g>
    </g>
    <g id="xtick_3">
     <g id="line2d_3">
      <g>
       <use style="stroke:#000000;stroke-width:0.8;" x="154.386111" xlink:href="#mb049d9bbb2" y="307.584"/>
      </g>
     </g>
     <g id="text_3">
      <!-- 100 -->
      <g transform="translate(144.842361 322.182437)scale(0.1 -0.1)">
       <defs>
        <path d="M 794 531 
L 1825 531 
L 1825 4091 
L 703 3866 
L 703 4441 
L 1819 4666 
L 2450 4666 
L 2450 531 
L 3481 531 
L 3481 0 
L 794 0 
L 794 531 
z
" id="DejaVuSans-31" transform="scale(0.015625)"/>
       </defs>
       <use xlink:href="#DejaVuSans-31"/>
       <use x="63.623047" xlink:href="#DejaVuSans-30"/>
       <use x="127.246094" xlink:href="#DejaVuSans-30"/>
      </g>
     </g>
    </g>
    <g id="xtick_4">
     <g id="line2d_4">
      <g>
       <use style="stroke:#000000;stroke-width:0.8;" x="195.069638" xlink:href="#mb049d9bbb2" y="307.584"/>
      </g>
     </g>
     <g id="text_4">
      <!-- 150 -->
      <g transform="translate(185.525888 322.182437)scale(0.1 -0.1)">
       <use xlink:href="#DejaVuSans-31"/>
       <use x="63.623047" xlink:href="#DejaVuSans-35"/>
       <use x="127.246094" xlink:href="#DejaVuSans-30"/>
      </g>
     </g>
    </g>
    <g id="xtick_5">
     <g id="line2d_5">
      <g>
       <use style="stroke:#000000;stroke-width:0.8;" x="235.753165" xlink:href="#mb049d9bbb2" y="307.584"/>
      </g>
     </g>
     <g id="text_5">
      <!-- 200 -->
      <g transform="translate(226.209415 322.182437)scale(0.1 -0.1)">
       <defs>
        <path d="M 1228 531 
L 3431 531 
L 3431 0 
L 469 0 
L 469 531 
Q 828 903 1448 1529 
Q 2069 2156 2228 2338 
Q 2531 2678 2651 2914 
Q 2772 3150 2772 3378 
Q 2772 3750 2511 3984 
Q 2250 4219 1831 4219 
Q 1534 4219 1204 4116 
Q 875 4013 500 3803 
L 500 4441 
Q 881 4594 1212 4672 
Q 1544 4750 1819 4750 
Q 2544 4750 2975 4387 
Q 3406 4025 3406 3419 
Q 3406 3131 3298 2873 
Q 3191 2616 2906 2266 
Q 2828 2175 2409 1742 
Q 1991 1309 1228 531 
z
" id="DejaVuSans-32" transform="scale(0.015625)"/>
       </defs>
       <use xlink:href="#DejaVuSans-32"/>
       <use x="63.623047" xlink:href="#DejaVuSans-30"/>
       <use x="127.246094" xlink:href="#DejaVuSans-30"/>
      </g>
     </g>
    </g>
    <g id="xtick_6">
     <g id="line2d_6">
      <g>
       <use style="stroke:#000000;stroke-width:0.8;" x="276.436692" xlink:href="#mb049d9bbb2" y="307.584"/>
      </g>
     </g>
     <g id="text_6">
      <!-- 250 -->
      <g transform="translate(266.892942 322.182437)scale(0.1 -0.1)">
       <use xlink:href="#DejaVuSans-32"/>
       <use x="63.623047" xlink:href="#DejaVuSans-35"/>
       <use x="127.246094" xlink:href="#DejaVuSans-30"/>
      </g>
     </g>
    </g>
    <g id="xtick_7">
     <g id="line2d_7">
      <g>
       <use style="stroke:#000000;stroke-width:0.8;" x="317.120219" xlink:href="#mb049d9bbb2" y="307.584"/>
      </g>
     </g>
     <g id="text_7">
      <!-- 300 -->
      <g transform="translate(307.576469 322.182437)scale(0.1 -0.1)">
       <defs>
        <path d="M 2597 2516 
Q 3050 2419 3304 2112 
Q 3559 1806 3559 1356 
Q 3559 666 3084 287 
Q 2609 -91 1734 -91 
Q 1441 -91 1130 -33 
Q 819 25 488 141 
L 488 750 
Q 750 597 1062 519 
Q 1375 441 1716 441 
Q 2309 441 2620 675 
Q 2931 909 2931 1356 
Q 2931 1769 2642 2001 
Q 2353 2234 1838 2234 
L 1294 2234 
L 1294 2753 
L 1863 2753 
Q 2328 2753 2575 2939 
Q 2822 3125 2822 3475 
Q 2822 3834 2567 4026 
Q 2313 4219 1838 4219 
Q 1578 4219 1281 4162 
Q 984 4106 628 3988 
L 628 4550 
Q 988 4650 1302 4700 
Q 1616 4750 1894 4750 
Q 2613 4750 3031 4423 
Q 3450 4097 3450 3541 
Q 3450 3153 3228 2886 
Q 3006 2619 2597 2516 
z
" id="DejaVuSans-33" transform="scale(0.015625)"/>
       </defs>
       <use xlink:href="#DejaVuSans-33"/>
       <use x="63.623047" xlink:href="#DejaVuSans-30"/>
       <use x="127.246094" xlink:href="#DejaVuSans-30"/>
      </g>
     </g>
    </g>
    <g id="xtick_8">
     <g id="line2d_8">
      <g>
       <use style="stroke:#000000;stroke-width:0.8;" x="357.803746" xlink:href="#mb049d9bbb2" y="307.584"/>
      </g>
     </g>
     <g id="text_8">
      <!-- 350 -->
      <g transform="translate(348.259996 322.182437)scale(0.1 -0.1)">
       <use xlink:href="#DejaVuSans-33"/>
       <use x="63.623047" xlink:href="#DejaVuSans-35"/>
       <use x="127.246094" xlink:href="#DejaVuSans-30"/>
      </g>
     </g>
    </g>
    <g id="xtick_9">
     <g id="line2d_9">
      <g>
       <use style="stroke:#000000;stroke-width:0.8;" x="398.487273" xlink:href="#mb049d9bbb2" y="307.584"/>
      </g>
     </g>
     <g id="text_9">
      <!-- 400 -->
      <g transform="translate(388.943523 322.182437)scale(0.1 -0.1)">
       <defs>
        <path d="M 2419 4116 
L 825 1625 
L 2419 1625 
L 2419 4116 
z
M 2253 4666 
L 3047 4666 
L 3047 1625 
L 3713 1625 
L 3713 1100 
L 3047 1100 
L 3047 0 
L 2419 0 
L 2419 1100 
L 313 1100 
L 313 1709 
L 2253 4666 
z
" id="DejaVuSans-34" transform="scale(0.015625)"/>
       </defs>
       <use xlink:href="#DejaVuSans-34"/>
       <use x="63.623047" xlink:href="#DejaVuSans-30"/>
       <use x="127.246094" xlink:href="#DejaVuSans-30"/>
      </g>
     </g>
    </g>
    <g id="text_10">
     <!-- Epoch -->
     <g transform="translate(213.193594 339.659781)scale(0.15 -0.15)">
      <defs>
       <path d="M 628 4666 
L 3578 4666 
L 3578 4134 
L 1259 4134 
L 1259 2753 
L 3481 2753 
L 3481 2222 
L 1259 2222 
L 1259 531 
L 3634 531 
L 3634 0 
L 628 0 
L 628 4666 
z
" id="DejaVuSans-45" transform="scale(0.015625)"/>
       <path d="M 1159 525 
L 1159 -1331 
L 581 -1331 
L 581 3500 
L 1159 3500 
L 1159 2969 
Q 1341 3281 1617 3432 
Q 1894 3584 2278 3584 
Q 2916 3584 3314 3078 
Q 3713 2572 3713 1747 
Q 3713 922 3314 415 
Q 2916 -91 2278 -91 
Q 1894 -91 1617 61 
Q 1341 213 1159 525 
z
M 3116 1747 
Q 3116 2381 2855 2742 
Q 2594 3103 2138 3103 
Q 1681 3103 1420 2742 
Q 1159 2381 1159 1747 
Q 1159 1113 1420 752 
Q 1681 391 2138 391 
Q 2594 391 2855 752 
Q 3116 1113 3116 1747 
z
" id="DejaVuSans-70" transform="scale(0.015625)"/>
       <path d="M 1959 3097 
Q 1497 3097 1228 2736 
Q 959 2375 959 1747 
Q 959 1119 1226 758 
Q 1494 397 1959 397 
Q 2419 397 2687 759 
Q 2956 1122 2956 1747 
Q 2956 2369 2687 2733 
Q 2419 3097 1959 3097 
z
M 1959 3584 
Q 2709 3584 3137 3096 
Q 3566 2609 3566 1747 
Q 3566 888 3137 398 
Q 2709 -91 1959 -91 
Q 1206 -91 779 398 
Q 353 888 353 1747 
Q 353 2609 779 3096 
Q 1206 3584 1959 3584 
z
" id="DejaVuSans-6f" transform="scale(0.015625)"/>
       <path d="M 3122 3366 
L 3122 2828 
Q 2878 2963 2633 3030 
Q 2388 3097 2138 3097 
Q 1578 3097 1268 2742 
Q 959 2388 959 1747 
Q 959 1106 1268 751 
Q 1578 397 2138 397 
Q 2388 397 2633 464 
Q 2878 531 3122 666 
L 3122 134 
Q 2881 22 2623 -34 
Q 2366 -91 2075 -91 
Q 1284 -91 818 406 
Q 353 903 353 1747 
Q 353 2603 823 3093 
Q 1294 3584 2113 3584 
Q 2378 3584 2631 3529 
Q 2884 3475 3122 3366 
z
" id="DejaVuSans-63" transform="scale(0.015625)"/>
       <path d="M 3513 2113 
L 3513 0 
L 2938 0 
L 2938 2094 
Q 2938 2591 2744 2837 
Q 2550 3084 2163 3084 
Q 1697 3084 1428 2787 
Q 1159 2491 1159 1978 
L 1159 0 
L 581 0 
L 581 4863 
L 1159 4863 
L 1159 2956 
Q 1366 3272 1645 3428 
Q 1925 3584 2291 3584 
Q 2894 3584 3203 3211 
Q 3513 2838 3513 2113 
z
" id="DejaVuSans-68" transform="scale(0.015625)"/>
      </defs>
      <use xlink:href="#DejaVuSans-45"/>
      <use x="63.183594" xlink:href="#DejaVuSans-70"/>
      <use x="126.660156" xlink:href="#DejaVuSans-6f"/>
      <use x="187.841797" xlink:href="#DejaVuSans-63"/>
      <use x="242.822266" xlink:href="#DejaVuSans-68"/>
     </g>
    </g>
   </g>
   <g id="matplotlib.axis_2">
    <g id="ytick_1">
     <g id="line2d_10">
      <defs>
       <path d="M 0 0 
L -3.5 0 
" id="ma3e2af1049" style="stroke:#000000;stroke-width:0.8;"/>
      </defs>
      <g>
       <use style="stroke:#000000;stroke-width:0.8;" x="57.6" xlink:href="#ma3e2af1049" y="286.175171"/>
      </g>
     </g>
     <g id="text_11">
      <!-- −1000 -->
      <g transform="translate(16.770313 289.974389)scale(0.1 -0.1)">
       <defs>
        <path d="M 678 2272 
L 4684 2272 
L 4684 1741 
L 678 1741 
L 678 2272 
z
" id="DejaVuSans-2212" transform="scale(0.015625)"/>
       </defs>
       <use xlink:href="#DejaVuSans-2212"/>
       <use x="83.789062" xlink:href="#DejaVuSans-31"/>
       <use x="147.412109" xlink:href="#DejaVuSans-30"/>
       <use x="211.035156" xlink:href="#DejaVuSans-30"/>
       <use x="274.658203" xlink:href="#DejaVuSans-30"/>
      </g>
     </g>
    </g>
    <g id="ytick_2">
     <g id="line2d_11">
      <g>
       <use style="stroke:#000000;stroke-width:0.8;" x="57.6" xlink:href="#ma3e2af1049" y="240.042671"/>
      </g>
     </g>
     <g id="text_12">
      <!-- −800 -->
      <g transform="translate(23.132812 243.841889)scale(0.1 -0.1)">
       <defs>
        <path d="M 2034 2216 
Q 1584 2216 1326 1975 
Q 1069 1734 1069 1313 
Q 1069 891 1326 650 
Q 1584 409 2034 409 
Q 2484 409 2743 651 
Q 3003 894 3003 1313 
Q 3003 1734 2745 1975 
Q 2488 2216 2034 2216 
z
M 1403 2484 
Q 997 2584 770 2862 
Q 544 3141 544 3541 
Q 544 4100 942 4425 
Q 1341 4750 2034 4750 
Q 2731 4750 3128 4425 
Q 3525 4100 3525 3541 
Q 3525 3141 3298 2862 
Q 3072 2584 2669 2484 
Q 3125 2378 3379 2068 
Q 3634 1759 3634 1313 
Q 3634 634 3220 271 
Q 2806 -91 2034 -91 
Q 1263 -91 848 271 
Q 434 634 434 1313 
Q 434 1759 690 2068 
Q 947 2378 1403 2484 
z
M 1172 3481 
Q 1172 3119 1398 2916 
Q 1625 2713 2034 2713 
Q 2441 2713 2670 2916 
Q 2900 3119 2900 3481 
Q 2900 3844 2670 4047 
Q 2441 4250 2034 4250 
Q 1625 4250 1398 4047 
Q 1172 3844 1172 3481 
z
" id="DejaVuSans-38" transform="scale(0.015625)"/>
       </defs>
       <use xlink:href="#DejaVuSans-2212"/>
       <use x="83.789062" xlink:href="#DejaVuSans-38"/>
       <use x="147.412109" xlink:href="#DejaVuSans-30"/>
       <use x="211.035156" xlink:href="#DejaVuSans-30"/>
      </g>
     </g>
    </g>
    <g id="ytick_3">
     <g id="line2d_12">
      <g>
       <use style="stroke:#000000;stroke-width:0.8;" x="57.6" xlink:href="#ma3e2af1049" y="193.910171"/>
      </g>
     </g>
     <g id="text_13">
      <!-- −600 -->
      <g transform="translate(23.132812 197.709389)scale(0.1 -0.1)">
       <defs>
        <path d="M 2113 2584 
Q 1688 2584 1439 2293 
Q 1191 2003 1191 1497 
Q 1191 994 1439 701 
Q 1688 409 2113 409 
Q 2538 409 2786 701 
Q 3034 994 3034 1497 
Q 3034 2003 2786 2293 
Q 2538 2584 2113 2584 
z
M 3366 4563 
L 3366 3988 
Q 3128 4100 2886 4159 
Q 2644 4219 2406 4219 
Q 1781 4219 1451 3797 
Q 1122 3375 1075 2522 
Q 1259 2794 1537 2939 
Q 1816 3084 2150 3084 
Q 2853 3084 3261 2657 
Q 3669 2231 3669 1497 
Q 3669 778 3244 343 
Q 2819 -91 2113 -91 
Q 1303 -91 875 529 
Q 447 1150 447 2328 
Q 447 3434 972 4092 
Q 1497 4750 2381 4750 
Q 2619 4750 2861 4703 
Q 3103 4656 3366 4563 
z
" id="DejaVuSans-36" transform="scale(0.015625)"/>
       </defs>
       <use xlink:href="#DejaVuSans-2212"/>
       <use x="83.789062" xlink:href="#DejaVuSans-36"/>
       <use x="147.412109" xlink:href="#DejaVuSans-30"/>
       <use x="211.035156" xlink:href="#DejaVuSans-30"/>
      </g>
     </g>
    </g>
    <g id="ytick_4">
     <g id="line2d_13">
      <g>
       <use style="stroke:#000000;stroke-width:0.8;" x="57.6" xlink:href="#ma3e2af1049" y="147.777671"/>
      </g>
     </g>
     <g id="text_14">
      <!-- −400 -->
      <g transform="translate(23.132812 151.576889)scale(0.1 -0.1)">
       <use xlink:href="#DejaVuSans-2212"/>
       <use x="83.789062" xlink:href="#DejaVuSans-34"/>
       <use x="147.412109" xlink:href="#DejaVuSans-30"/>
       <use x="211.035156" xlink:href="#DejaVuSans-30"/>
      </g>
     </g>
    </g>
    <g id="ytick_5">
     <g id="line2d_14">
      <g>
       <use style="stroke:#000000;stroke-width:0.8;" x="57.6" xlink:href="#ma3e2af1049" y="101.645171"/>
      </g>
     </g>
     <g id="text_15">
      <!-- −200 -->
      <g transform="translate(23.132812 105.444389)scale(0.1 -0.1)">
       <use xlink:href="#DejaVuSans-2212"/>
       <use x="83.789062" xlink:href="#DejaVuSans-32"/>
       <use x="147.412109" xlink:href="#DejaVuSans-30"/>
       <use x="211.035156" xlink:href="#DejaVuSans-30"/>
      </g>
     </g>
    </g>
    <g id="ytick_6">
     <g id="line2d_15">
      <g>
       <use style="stroke:#000000;stroke-width:0.8;" x="57.6" xlink:href="#ma3e2af1049" y="55.512671"/>
      </g>
     </g>
     <g id="text_16">
      <!-- 0 -->
      <g transform="translate(44.2375 59.311889)scale(0.1 -0.1)">
       <use xlink:href="#DejaVuSans-30"/>
      </g>
     </g>
    </g>
    <g id="text_17">
     <!-- Loss -->
     <g transform="translate(9.650781 190.978781)rotate(-90)scale(0.15 -0.15)">
      <defs>
       <path d="M 628 4666 
L 1259 4666 
L 1259 531 
L 3531 531 
L 3531 0 
L 628 0 
L 628 4666 
z
" id="DejaVuSans-4c" transform="scale(0.015625)"/>
       <path d="M 2834 3397 
L 2834 2853 
Q 2591 2978 2328 3040 
Q 2066 3103 1784 3103 
Q 1356 3103 1142 2972 
Q 928 2841 928 2578 
Q 928 2378 1081 2264 
Q 1234 2150 1697 2047 
L 1894 2003 
Q 2506 1872 2764 1633 
Q 3022 1394 3022 966 
Q 3022 478 2636 193 
Q 2250 -91 1575 -91 
Q 1294 -91 989 -36 
Q 684 19 347 128 
L 347 722 
Q 666 556 975 473 
Q 1284 391 1588 391 
Q 1994 391 2212 530 
Q 2431 669 2431 922 
Q 2431 1156 2273 1281 
Q 2116 1406 1581 1522 
L 1381 1569 
Q 847 1681 609 1914 
Q 372 2147 372 2553 
Q 372 3047 722 3315 
Q 1072 3584 1716 3584 
Q 2034 3584 2315 3537 
Q 2597 3491 2834 3397 
z
" id="DejaVuSans-73" transform="scale(0.015625)"/>
      </defs>
      <use xlink:href="#DejaVuSans-4c"/>
      <use x="53.962891" xlink:href="#DejaVuSans-6f"/>
      <use x="115.144531" xlink:href="#DejaVuSans-73"/>
      <use x="167.244141" xlink:href="#DejaVuSans-73"/>
     </g>
    </g>
   </g>
   <g id="line2d_16">
    <path clip-path="url(#p73c4f8f3c3)" d="M 73.832727 53.568 
L 74.646398 97.564467 
L 75.460068 131.429884 
L 76.273739 128.469211 
L 77.087409 139.17924 
L 77.90108 144.121376 
L 78.714751 141.693594 
L 80.342092 170.032027 
L 81.155762 166.827861 
L 81.969433 155.789523 
L 82.783103 176.520776 
L 83.596774 180.284486 
L 84.410444 149.698245 
L 85.224115 187.996124 
L 86.037785 177.976879 
L 86.851456 188.281072 
L 87.665126 194.733767 
L 88.478797 188.052638 
L 89.292468 194.96814 
L 90.106138 196.081503 
L 90.919809 200.946593 
L 91.733479 194.701072 
L 92.54715 202.455029 
L 93.36082 201.869169 
L 94.174491 213.950562 
L 94.988161 210.422691 
L 95.801832 205.572434 
L 96.615502 207.13947 
L 97.429173 215.600854 
L 98.242843 216.703256 
L 99.056514 222.186285 
L 99.870185 217.656818 
L 100.683855 218.968687 
L 101.497526 222.149589 
L 102.311196 216.0037 
L 103.124867 233.872421 
L 103.938537 228.998046 
L 104.752208 204.723404 
L 105.565878 218.380571 
L 106.379549 226.404683 
L 107.193219 228.977259 
L 108.00689 216.584917 
L 108.82056 227.619928 
L 109.634231 235.22772 
L 110.447902 239.238694 
L 111.261572 238.393608 
L 112.075243 223.37274 
L 112.888913 238.704441 
L 113.702584 226.980229 
L 114.516254 232.406921 
L 115.329925 234.77147 
L 116.143595 237.88552 
L 116.957266 236.490175 
L 117.770936 236.582856 
L 118.584607 238.336387 
L 119.398278 233.402649 
L 120.211948 229.579006 
L 121.025619 238.726229 
L 121.839289 241.869221 
L 122.65296 252.356829 
L 123.46663 247.361753 
L 124.280301 240.813589 
L 125.093971 252.886639 
L 125.907642 250.541479 
L 126.721312 246.91179 
L 127.534983 238.747961 
L 128.348653 244.76922 
L 129.162324 235.473289 
L 129.975995 246.24711 
L 130.789665 250.049549 
L 131.603336 257.055633 
L 132.417006 237.376468 
L 133.230677 249.134047 
L 134.044347 237.264607 
L 134.858018 241.008496 
L 135.671688 237.806573 
L 136.485359 233.560324 
L 137.299029 246.52986 
L 138.1127 247.1372 
L 138.92637 246.323946 
L 139.740041 234.836564 
L 140.553712 249.501644 
L 141.367382 246.864741 
L 142.181053 253.685732 
L 142.994723 245.04195 
L 144.622064 243.740872 
L 145.435735 258.44566 
L 146.249405 246.298867 
L 147.063076 252.966821 
L 147.876746 250.312205 
L 148.690417 256.094859 
L 149.504087 248.082003 
L 150.317758 246.047344 
L 151.131429 253.000104 
L 151.945099 243.016544 
L 152.75877 258.743197 
L 153.57244 254.437697 
L 154.386111 252.910983 
L 155.199781 255.672849 
L 156.013452 260.712875 
L 156.827122 254.823259 
L 157.640793 253.978978 
L 158.454463 257.174925 
L 159.268134 253.307703 
L 160.081805 252.707497 
L 160.895475 262.254095 
L 161.709146 253.73738 
L 162.522816 259.2499 
L 163.336487 252.882133 
L 164.150157 255.209004 
L 164.963828 254.049634 
L 165.777498 245.481086 
L 166.591169 255.413447 
L 167.404839 249.969457 
L 168.21851 262.530935 
L 169.03218 255.787302 
L 169.845851 254.425245 
L 170.659522 256.736405 
L 171.473192 256.282999 
L 172.286863 254.207936 
L 173.100533 255.120949 
L 173.914204 253.919301 
L 174.727874 260.950218 
L 175.541545 259.386742 
L 176.355215 256.481212 
L 177.168886 258.162648 
L 177.982556 265.52655 
L 178.796227 253.204442 
L 179.609897 260.178244 
L 180.423568 255.433855 
L 181.237239 255.761573 
L 182.050909 269.414536 
L 182.86458 259.40957 
L 183.67825 267.983177 
L 184.491921 259.872029 
L 185.305591 262.513196 
L 186.119262 248.742535 
L 186.932932 255.895385 
L 187.746603 257.347177 
L 188.560273 255.286494 
L 189.373944 263.811608 
L 190.187614 260.730418 
L 191.001285 261.448821 
L 191.814956 260.382893 
L 192.628626 262.505025 
L 193.442297 246.301087 
L 194.255967 259.836774 
L 195.069638 252.859687 
L 195.883308 257.343294 
L 196.696979 259.208339 
L 197.510649 259.371384 
L 198.32432 261.222504 
L 199.13799 252.612225 
L 199.951661 263.345585 
L 200.765332 261.961965 
L 201.579002 260.144148 
L 202.392673 267.509647 
L 203.206343 255.373918 
L 204.020014 269.296678 
L 204.833684 267.860555 
L 205.647355 270.174198 
L 206.461025 264.995441 
L 207.274696 257.195929 
L 208.088366 259.384012 
L 208.902037 263.817447 
L 209.715707 263.215005 
L 210.529378 263.999671 
L 211.343049 263.508478 
L 212.156719 259.239106 
L 212.97039 259.853202 
L 213.78406 260.038584 
L 214.597731 262.348367 
L 215.411401 259.868098 
L 216.225072 262.134254 
L 217.038742 253.028622 
L 217.852413 271.53228 
L 218.666083 262.083564 
L 219.479754 265.206159 
L 220.293424 269.793963 
L 221.107095 270.287588 
L 221.920766 262.209478 
L 222.734436 264.78721 
L 223.548107 251.063066 
L 224.361777 267.971122 
L 225.175448 256.94371 
L 226.802789 267.315153 
L 227.616459 259.753863 
L 229.2438 265.896719 
L 230.057471 254.982947 
L 230.871141 260.8603 
L 231.684812 267.810623 
L 232.498483 262.978595 
L 233.312153 266.603637 
L 234.125824 255.494771 
L 234.939494 266.973626 
L 236.566835 257.786528 
L 237.380506 260.636541 
L 238.194176 264.110481 
L 239.007847 269.26169 
L 239.821517 257.193404 
L 240.635188 267.48354 
L 241.448859 268.833266 
L 242.262529 269.79059 
L 243.0762 261.407966 
L 243.88987 277.413309 
L 244.703541 248.623212 
L 245.517211 265.958632 
L 246.330882 267.174538 
L 247.144552 275.912495 
L 247.958223 266.639155 
L 248.771893 258.854288 
L 250.399234 258.486486 
L 251.212905 266.586049 
L 252.026576 262.908768 
L 252.840246 254.656875 
L 253.653917 256.214883 
L 254.467587 259.146055 
L 255.281258 268.422284 
L 256.094928 275.004238 
L 256.908599 262.486386 
L 257.722269 268.394495 
L 258.53594 266.66657 
L 259.34961 266.497206 
L 260.163281 276.384798 
L 260.976951 271.130047 
L 261.790622 264.965802 
L 262.604293 265.822413 
L 263.417963 261.784818 
L 264.231634 253.79437 
L 265.045304 263.634975 
L 265.858975 261.038028 
L 266.672645 281.967641 
L 267.486316 268.841406 
L 268.299986 260.13697 
L 269.113657 267.794526 
L 269.927327 263.582701 
L 270.740998 272.453628 
L 271.554668 260.255476 
L 273.18201 269.677662 
L 273.99568 263.687633 
L 274.809351 266.088888 
L 275.623021 269.315446 
L 276.436692 279.876531 
L 277.250362 268.534466 
L 278.064033 271.49546 
L 278.877703 271.27601 
L 279.691374 271.673209 
L 280.505044 265.229376 
L 281.318715 268.120962 
L 282.132386 260.415425 
L 282.946056 272.002922 
L 283.759727 267.869261 
L 284.573397 275.364901 
L 285.387068 275.239599 
L 286.200738 276.301918 
L 287.014409 268.51244 
L 287.828079 262.225606 
L 288.64175 272.123907 
L 289.45542 275.068078 
L 290.269091 264.319768 
L 291.082761 271.343252 
L 291.896432 270.23969 
L 292.710103 269.331162 
L 293.523773 267.945216 
L 294.337444 273.097038 
L 295.151114 270.403195 
L 295.964785 266.36839 
L 296.778455 269.138028 
L 297.592126 268.065126 
L 298.405796 276.060328 
L 299.219467 267.04333 
L 300.033137 269.305259 
L 300.846808 265.692404 
L 301.660478 267.214578 
L 302.474149 263.902722 
L 303.28782 269.681179 
L 304.10149 273.550597 
L 304.915161 273.689367 
L 305.728831 272.911291 
L 306.542502 272.702698 
L 307.356172 263.269151 
L 308.169843 286.27517 
L 308.983513 282.073206 
L 309.797184 274.679472 
L 310.610854 265.817402 
L 311.424525 274.300846 
L 312.238195 267.779468 
L 313.051866 278.36975 
L 313.865537 275.627105 
L 314.679207 264.755163 
L 315.492878 270.994948 
L 316.306548 263.725536 
L 317.120219 260.931473 
L 317.933889 277.244632 
L 318.74756 280.286397 
L 319.56123 285.32877 
L 320.374901 274.844504 
L 321.188571 282.241279 
L 322.002242 266.089081 
L 322.815913 276.26139 
L 323.629583 279.782708 
L 324.443254 272.471392 
L 325.256924 281.343391 
L 326.070595 270.517399 
L 326.884265 272.262002 
L 327.697936 276.389297 
L 328.511606 279.169457 
L 329.325277 277.372906 
L 330.138947 279.046562 
L 330.952618 283.234564 
L 331.766288 279.253585 
L 332.579959 284.842869 
L 333.39363 281.818411 
L 334.2073 275.661989 
L 335.020971 274.263208 
L 335.834641 264.988937 
L 336.648312 279.981986 
L 337.461982 273.295758 
L 338.275653 279.334242 
L 339.089323 274.987585 
L 339.902994 269.258418 
L 340.716664 283.97403 
L 341.530335 276.81555 
L 342.344005 270.899288 
L 343.157676 281.943493 
L 343.971347 275.286846 
L 344.785017 275.956723 
L 345.598688 287.04008 
L 346.412358 280.507088 
L 347.226029 276.633756 
L 348.039699 277.858203 
L 348.85337 269.105622 
L 349.66704 281.505958 
L 350.480711 279.202137 
L 351.294381 281.344515 
L 352.108052 271.909317 
L 352.921722 290.463487 
L 353.735393 291.51493 
L 354.549064 268.401661 
L 355.362734 281.670083 
L 356.176405 276.86769 
L 356.990075 267.259805 
L 357.803746 272.920228 
L 358.617416 273.773492 
L 359.431087 279.344805 
L 360.244757 268.010305 
L 361.058428 277.694804 
L 361.872098 276.024167 
L 362.685769 286.307821 
L 363.49944 273.363253 
L 364.31311 279.248355 
L 365.126781 276.009902 
L 365.940451 269.441685 
L 367.567792 283.079931 
L 368.381463 283.843787 
L 369.195133 264.046359 
L 370.008804 264.597276 
L 370.822474 277.891955 
L 371.636145 278.791407 
L 372.449815 281.249246 
L 373.263486 277.849878 
L 374.077157 272.462612 
L 374.890827 289.932699 
L 375.704498 281.817458 
L 376.518168 295.488 
L 377.331839 278.4166 
L 378.145509 279.84216 
L 378.95918 279.894282 
L 379.77285 275.404352 
L 380.586521 288.714718 
L 381.400191 277.801071 
L 382.213862 281.996355 
L 383.841203 272.857058 
L 384.654874 279.237481 
L 385.468544 270.988391 
L 386.282215 273.124766 
L 387.095885 273.089934 
L 387.909556 276.985471 
L 388.723226 287.112553 
L 389.536897 269.636898 
L 390.350567 267.565632 
L 391.164238 270.102773 
L 391.977908 278.931371 
L 392.791579 284.05509 
L 393.605249 282.267668 
L 394.41892 270.623212 
L 395.232591 280.145404 
L 396.046261 265.160814 
L 396.859932 268.56262 
L 398.487273 288.651848 
L 398.487273 288.651848 
" style="fill:none;stroke:#1f77b4;stroke-linecap:square;stroke-width:1.5;"/>
   </g>
   <g id="line2d_17">
    <path clip-path="url(#p73c4f8f3c3)" d="M 73.832727 57.650737 
L 75.460068 130.217427 
L 76.273739 146.275384 
L 77.087409 115.543027 
L 77.90108 151.498486 
L 78.714751 135.673982 
L 79.528421 158.714184 
L 80.342092 149.739502 
L 81.969433 175.21632 
L 82.783103 171.979986 
L 83.596774 179.754072 
L 84.410444 184.864784 
L 85.224115 163.593782 
L 86.851456 185.908947 
L 87.665126 192.336764 
L 88.478797 188.832887 
L 89.292468 192.526266 
L 90.106138 205.738341 
L 90.919809 200.444802 
L 91.733479 188.414874 
L 92.54715 200.173507 
L 93.36082 217.346482 
L 94.174491 209.626905 
L 94.988161 214.299589 
L 95.801832 186.91275 
L 96.615502 209.617522 
L 97.429173 220.98284 
L 98.242843 220.743889 
L 99.056514 209.945719 
L 99.870185 219.704076 
L 100.683855 222.965926 
L 101.497526 213.358332 
L 102.311196 222.344085 
L 103.124867 221.941386 
L 103.938537 230.434591 
L 104.752208 135.52624 
L 105.565878 232.19077 
L 106.379549 230.161224 
L 107.193219 236.614936 
L 108.00689 231.215523 
L 108.82056 236.266378 
L 109.634231 224.475806 
L 110.447902 238.311185 
L 111.261572 233.630379 
L 112.075243 236.566188 
L 112.888913 233.686588 
L 113.702584 233.659086 
L 114.516254 231.86997 
L 115.329925 232.374804 
L 116.143595 236.875259 
L 116.957266 231.194442 
L 117.770936 232.515557 
L 118.584607 240.609801 
L 119.398278 237.683943 
L 120.211948 248.20528 
L 121.025619 247.000981 
L 121.839289 243.782354 
L 122.65296 236.15332 
L 123.46663 246.53102 
L 124.280301 239.476188 
L 125.093971 242.024698 
L 125.907642 248.04511 
L 126.721312 245.358364 
L 127.534983 240.306236 
L 128.348653 243.487872 
L 129.162324 247.137742 
L 129.975995 240.707686 
L 130.789665 246.914271 
L 131.603336 241.263078 
L 132.417006 236.629303 
L 133.230677 253.209603 
L 134.044347 244.179073 
L 134.858018 250.447557 
L 135.671688 248.001261 
L 136.485359 250.142119 
L 137.299029 250.178834 
L 138.1127 254.271126 
L 138.92637 243.969485 
L 139.740041 247.788046 
L 140.553712 250.696592 
L 141.367382 246.529548 
L 142.181053 253.922114 
L 142.994723 254.241737 
L 144.622064 250.93257 
L 145.435735 246.350485 
L 146.249405 248.905381 
L 147.063076 250.826319 
L 147.876746 246.737724 
L 148.690417 252.952673 
L 149.504087 194.325915 
L 150.317758 257.942544 
L 151.131429 249.87353 
L 151.945099 250.090506 
L 152.75877 253.437521 
L 153.57244 247.324908 
L 154.386111 252.70246 
L 155.199781 246.959343 
L 156.013452 258.902849 
L 156.827122 247.821438 
L 157.640793 248.961431 
L 158.454463 254.662808 
L 159.268134 251.360974 
L 160.081805 252.711345 
L 160.895475 239.426924 
L 161.709146 251.772593 
L 162.522816 250.056935 
L 163.336487 248.70305 
L 164.150157 255.464873 
L 164.963828 253.317601 
L 165.777498 255.872824 
L 166.591169 256.111077 
L 167.404839 255.429828 
L 168.21851 251.343718 
L 169.03218 255.323098 
L 169.845851 251.93842 
L 170.659522 253.094686 
L 171.473192 251.707585 
L 172.286863 260.723435 
L 173.100533 258.124884 
L 173.914204 256.661887 
L 174.727874 259.984885 
L 175.541545 247.237407 
L 176.355215 249.75641 
L 177.168886 250.421449 
L 177.982556 253.931084 
L 178.796227 255.388395 
L 179.609897 256.531841 
L 180.423568 256.613038 
L 181.237239 259.49798 
L 182.050909 268.842518 
L 182.86458 257.042438 
L 183.67825 253.198661 
L 184.491921 257.128641 
L 185.305591 253.103798 
L 186.119262 256.093287 
L 186.932932 250.849426 
L 187.746603 258.385372 
L 188.560273 258.927596 
L 189.373944 258.543911 
L 190.187614 257.311216 
L 191.001285 265.549057 
L 191.814956 257.938051 
L 192.628626 251.37247 
L 193.442297 260.461026 
L 194.255967 249.610946 
L 195.069638 249.450585 
L 195.883308 261.267183 
L 196.696979 265.351913 
L 197.510649 257.907708 
L 198.32432 256.904928 
L 199.13799 250.835628 
L 200.765332 267.524153 
L 201.579002 255.886057 
L 202.392673 249.589718 
L 203.206343 258.704897 
L 204.020014 257.615024 
L 204.833684 256.209872 
L 205.647355 263.182169 
L 206.461025 257.72663 
L 207.274696 253.802437 
L 208.088366 255.12144 
L 208.902037 256.156043 
L 209.715707 264.098869 
L 210.529378 258.984986 
L 211.343049 259.344008 
L 212.156719 256.598346 
L 212.97039 260.150745 
L 213.78406 257.007439 
L 214.597731 260.733843 
L 215.411401 257.769714 
L 216.225072 259.387283 
L 217.038742 243.600063 
L 217.852413 264.150137 
L 218.666083 258.929068 
L 219.479754 262.737661 
L 220.293424 256.934044 
L 221.107095 257.240441 
L 221.920766 249.416836 
L 222.734436 258.102627 
L 223.548107 261.714397 
L 224.361777 263.698152 
L 225.175448 268.789847 
L 225.989118 269.561904 
L 226.802789 260.566004 
L 227.616459 262.639017 
L 228.43013 265.160388 
L 229.2438 257.841729 
L 230.057471 253.305807 
L 230.871141 261.190462 
L 231.684812 261.920134 
L 233.312153 255.695144 
L 234.125824 264.877049 
L 234.939494 266.482429 
L 235.753165 256.497243 
L 236.566835 257.465266 
L 237.380506 260.463774 
L 238.194176 267.683641 
L 239.007847 262.220321 
L 239.821517 265.37528 
L 240.635188 247.3062 
L 241.448859 257.615022 
L 242.262529 265.817782 
L 243.0762 264.854965 
L 243.88987 262.341181 
L 244.703541 260.484087 
L 245.517211 270.436496 
L 246.330882 271.120011 
L 247.144552 260.567189 
L 247.958223 267.913489 
L 248.771893 258.102833 
L 249.585564 262.545185 
L 250.399234 270.5265 
L 251.212905 260.510516 
L 252.026576 266.640586 
L 252.840246 264.946474 
L 253.653917 264.913398 
L 254.467587 269.375083 
L 255.281258 268.806614 
L 256.094928 252.777688 
L 256.908599 265.693021 
L 257.722269 265.29277 
L 258.53594 269.119432 
L 259.34961 260.602144 
L 260.163281 264.228422 
L 260.976951 266.06995 
L 261.790622 260.51053 
L 262.604293 268.38698 
L 263.417963 264.467196 
L 264.231634 270.252518 
L 265.045304 259.494305 
L 265.858975 258.279382 
L 266.672645 270.379714 
L 268.299986 261.817981 
L 269.113657 259.761092 
L 269.927327 253.583124 
L 270.740998 271.940758 
L 271.554668 255.912105 
L 272.368339 271.569251 
L 273.18201 272.239375 
L 273.99568 262.551805 
L 274.809351 264.455174 
L 275.623021 260.795418 
L 277.250362 268.716911 
L 278.064033 269.601837 
L 278.877703 258.597735 
L 279.691374 260.292164 
L 280.505044 263.088094 
L 281.318715 264.646607 
L 282.132386 265.078992 
L 282.946056 270.336247 
L 284.573397 273.857053 
L 285.387068 266.570775 
L 286.200738 264.919091 
L 287.014409 265.218204 
L 287.828079 251.117975 
L 288.64175 262.94337 
L 289.45542 266.488393 
L 290.269091 273.137826 
L 291.082761 273.743582 
L 291.896432 270.752936 
L 292.710103 271.411371 
L 293.523773 275.441067 
L 294.337444 264.33609 
L 295.151114 268.969855 
L 295.964785 271.643211 
L 296.778455 271.678296 
L 297.592126 268.860246 
L 298.405796 273.507719 
L 299.219467 263.439013 
L 300.033137 273.236641 
L 300.846808 263.422943 
L 301.660478 267.843886 
L 302.474149 263.91673 
L 303.28782 268.336604 
L 304.10149 277.124933 
L 304.915161 267.487336 
L 305.728831 270.911779 
L 306.542502 269.742788 
L 308.169843 263.789018 
L 308.983513 265.293779 
L 309.797184 266.426685 
L 310.610854 274.842065 
L 311.424525 272.692069 
L 312.238195 279.253306 
L 313.051866 270.8085 
L 313.865537 268.930257 
L 314.679207 273.366469 
L 315.492878 270.914086 
L 316.306548 267.477023 
L 317.120219 274.626865 
L 317.933889 269.257097 
L 318.74756 271.963628 
L 319.56123 272.922061 
L 320.374901 269.919727 
L 321.188571 272.378021 
L 322.002242 271.332384 
L 322.815913 267.080114 
L 323.629583 268.482766 
L 324.443254 268.915083 
L 325.256924 278.866272 
L 326.070595 269.670293 
L 326.884265 276.906374 
L 327.697936 256.20772 
L 328.511606 264.007005 
L 329.325277 261.563987 
L 330.138947 262.535643 
L 330.952618 278.821645 
L 331.766288 270.295204 
L 332.579959 269.022101 
L 333.39363 269.4279 
L 334.2073 267.845437 
L 335.020971 280.081368 
L 335.834641 271.415445 
L 336.648312 276.873309 
L 337.461982 273.296352 
L 338.275653 281.583005 
L 339.089323 273.559369 
L 339.902994 269.120761 
L 340.716664 277.640472 
L 341.530335 272.562291 
L 342.344005 277.724659 
L 343.157676 271.617501 
L 343.971347 272.950189 
L 344.785017 263.499919 
L 345.598688 270.341661 
L 346.412358 264.895856 
L 347.226029 266.496382 
L 348.039699 269.707359 
L 348.85337 269.267588 
L 349.66704 266.355889 
L 350.480711 270.915533 
L 351.294381 269.498739 
L 352.108052 267.167423 
L 352.921722 267.924169 
L 353.735393 271.702896 
L 354.549064 277.936383 
L 355.362734 270.057754 
L 356.176405 274.814851 
L 356.990075 275.481502 
L 357.803746 282.423254 
L 358.617416 265.57065 
L 359.431087 283.442168 
L 360.244757 271.833649 
L 361.058428 278.297941 
L 361.872098 276.944229 
L 362.685769 272.667409 
L 363.49944 272.568918 
L 364.31311 274.395232 
L 365.126781 278.568945 
L 365.940451 270.535707 
L 366.754122 269.633421 
L 367.567792 279.839686 
L 368.381463 277.804676 
L 369.195133 253.171692 
L 370.008804 276.32268 
L 370.822474 276.036663 
L 371.636145 271.9624 
L 372.449815 260.278919 
L 374.077157 280.862991 
L 374.890827 273.769257 
L 375.704498 272.906032 
L 376.518168 281.153559 
L 377.331839 270.393423 
L 378.145509 271.943985 
L 379.77285 277.589485 
L 380.586521 285.277955 
L 381.400191 271.150955 
L 382.213862 278.662017 
L 383.027532 277.330025 
L 383.841203 276.488954 
L 384.654874 278.371067 
L 385.468544 271.489967 
L 386.282215 275.881393 
L 387.095885 262.390352 
L 387.909556 273.130087 
L 388.723226 272.266261 
L 389.536897 272.23606 
L 390.350567 276.048412 
L 391.164238 275.02631 
L 391.977908 275.060348 
L 392.791579 266.547963 
L 393.605249 270.677358 
L 394.41892 272.771563 
L 395.232591 272.184076 
L 396.046261 265.590612 
L 396.859932 267.723279 
L 397.673602 275.708605 
L 398.487273 281.396179 
L 398.487273 281.396179 
" style="fill:none;stroke:#ff7f0e;stroke-linecap:square;stroke-width:1.5;"/>
   </g>
   <g id="patch_3">
    <path d="M 57.6 307.584 
L 57.6 41.472 
" style="fill:none;stroke:#000000;stroke-linecap:square;stroke-linejoin:miter;stroke-width:0.8;"/>
   </g>
   <g id="patch_4">
    <path d="M 414.72 307.584 
L 414.72 41.472 
" style="fill:none;stroke:#000000;stroke-linecap:square;stroke-linejoin:miter;stroke-width:0.8;"/>
   </g>
   <g id="patch_5">
    <path d="M 57.6 307.584 
L 414.72 307.584 
" style="fill:none;stroke:#000000;stroke-linecap:square;stroke-linejoin:miter;stroke-width:0.8;"/>
   </g>
   <g id="patch_6">
    <path d="M 57.6 41.472 
L 414.72 41.472 
" style="fill:none;stroke:#000000;stroke-linecap:square;stroke-linejoin:miter;stroke-width:0.8;"/>
   </g>
   <g id="legend_1">
    <g id="patch_7">
     <path d="M 303.845 78.82825 
L 407.72 78.82825 
Q 409.72 78.82825 409.72 76.82825 
L 409.72 48.472 
Q 409.72 46.472 407.72 46.472 
L 303.845 46.472 
Q 301.845 46.472 301.845 48.472 
L 301.845 76.82825 
Q 301.845 78.82825 303.845 78.82825 
z
" style="fill:#ffffff;opacity:0.8;stroke:#cccccc;stroke-linejoin:miter;"/>
    </g>
    <g id="line2d_18">
     <path d="M 305.845 54.570437 
L 325.845 54.570437 
" style="fill:none;stroke:#1f77b4;stroke-linecap:square;stroke-width:1.5;"/>
    </g>
    <g id="line2d_19"/>
    <g id="text_18">
     <!-- Train loss -->
     <g transform="translate(333.845 58.070437)scale(0.1 -0.1)">
      <defs>
       <path d="M -19 4666 
L 3928 4666 
L 3928 4134 
L 2272 4134 
L 2272 0 
L 1638 0 
L 1638 4134 
L -19 4134 
L -19 4666 
z
" id="DejaVuSans-54" transform="scale(0.015625)"/>
       <path d="M 2631 2963 
Q 2534 3019 2420 3045 
Q 2306 3072 2169 3072 
Q 1681 3072 1420 2755 
Q 1159 2438 1159 1844 
L 1159 0 
L 581 0 
L 581 3500 
L 1159 3500 
L 1159 2956 
Q 1341 3275 1631 3429 
Q 1922 3584 2338 3584 
Q 2397 3584 2469 3576 
Q 2541 3569 2628 3553 
L 2631 2963 
z
" id="DejaVuSans-72" transform="scale(0.015625)"/>
       <path d="M 2194 1759 
Q 1497 1759 1228 1600 
Q 959 1441 959 1056 
Q 959 750 1161 570 
Q 1363 391 1709 391 
Q 2188 391 2477 730 
Q 2766 1069 2766 1631 
L 2766 1759 
L 2194 1759 
z
M 3341 1997 
L 3341 0 
L 2766 0 
L 2766 531 
Q 2569 213 2275 61 
Q 1981 -91 1556 -91 
Q 1019 -91 701 211 
Q 384 513 384 1019 
Q 384 1609 779 1909 
Q 1175 2209 1959 2209 
L 2766 2209 
L 2766 2266 
Q 2766 2663 2505 2880 
Q 2244 3097 1772 3097 
Q 1472 3097 1187 3025 
Q 903 2953 641 2809 
L 641 3341 
Q 956 3463 1253 3523 
Q 1550 3584 1831 3584 
Q 2591 3584 2966 3190 
Q 3341 2797 3341 1997 
z
" id="DejaVuSans-61" transform="scale(0.015625)"/>
       <path d="M 603 3500 
L 1178 3500 
L 1178 0 
L 603 0 
L 603 3500 
z
M 603 4863 
L 1178 4863 
L 1178 4134 
L 603 4134 
L 603 4863 
z
" id="DejaVuSans-69" transform="scale(0.015625)"/>
       <path d="M 3513 2113 
L 3513 0 
L 2938 0 
L 2938 2094 
Q 2938 2591 2744 2837 
Q 2550 3084 2163 3084 
Q 1697 3084 1428 2787 
Q 1159 2491 1159 1978 
L 1159 0 
L 581 0 
L 581 3500 
L 1159 3500 
L 1159 2956 
Q 1366 3272 1645 3428 
Q 1925 3584 2291 3584 
Q 2894 3584 3203 3211 
Q 3513 2838 3513 2113 
z
" id="DejaVuSans-6e" transform="scale(0.015625)"/>
       <path id="DejaVuSans-20" transform="scale(0.015625)"/>
       <path d="M 603 4863 
L 1178 4863 
L 1178 0 
L 603 0 
L 603 4863 
z
" id="DejaVuSans-6c" transform="scale(0.015625)"/>
      </defs>
      <use xlink:href="#DejaVuSans-54"/>
      <use x="46.333984" xlink:href="#DejaVuSans-72"/>
      <use x="87.447266" xlink:href="#DejaVuSans-61"/>
      <use x="148.726562" xlink:href="#DejaVuSans-69"/>
      <use x="176.509766" xlink:href="#DejaVuSans-6e"/>
      <use x="239.888672" xlink:href="#DejaVuSans-20"/>
      <use x="271.675781" xlink:href="#DejaVuSans-6c"/>
      <use x="299.458984" xlink:href="#DejaVuSans-6f"/>
      <use x="360.640625" xlink:href="#DejaVuSans-73"/>
      <use x="412.740234" xlink:href="#DejaVuSans-73"/>
     </g>
    </g>
    <g id="line2d_20">
     <path d="M 305.845 69.248562 
L 325.845 69.248562 
" style="fill:none;stroke:#ff7f0e;stroke-linecap:square;stroke-width:1.5;"/>
    </g>
    <g id="line2d_21"/>
    <g id="text_19">
     <!-- Validation loss -->
     <g transform="translate(333.845 72.748562)scale(0.1 -0.1)">
      <defs>
       <path d="M 1831 0 
L 50 4666 
L 709 4666 
L 2188 738 
L 3669 4666 
L 4325 4666 
L 2547 0 
L 1831 0 
z
" id="DejaVuSans-56" transform="scale(0.015625)"/>
       <path d="M 2906 2969 
L 2906 4863 
L 3481 4863 
L 3481 0 
L 2906 0 
L 2906 525 
Q 2725 213 2448 61 
Q 2172 -91 1784 -91 
Q 1150 -91 751 415 
Q 353 922 353 1747 
Q 353 2572 751 3078 
Q 1150 3584 1784 3584 
Q 2172 3584 2448 3432 
Q 2725 3281 2906 2969 
z
M 947 1747 
Q 947 1113 1208 752 
Q 1469 391 1925 391 
Q 2381 391 2643 752 
Q 2906 1113 2906 1747 
Q 2906 2381 2643 2742 
Q 2381 3103 1925 3103 
Q 1469 3103 1208 2742 
Q 947 2381 947 1747 
z
" id="DejaVuSans-64" transform="scale(0.015625)"/>
       <path d="M 1172 4494 
L 1172 3500 
L 2356 3500 
L 2356 3053 
L 1172 3053 
L 1172 1153 
Q 1172 725 1289 603 
Q 1406 481 1766 481 
L 2356 481 
L 2356 0 
L 1766 0 
Q 1100 0 847 248 
Q 594 497 594 1153 
L 594 3053 
L 172 3053 
L 172 3500 
L 594 3500 
L 594 4494 
L 1172 4494 
z
" id="DejaVuSans-74" transform="scale(0.015625)"/>
      </defs>
      <use xlink:href="#DejaVuSans-56"/>
      <use x="60.658203" xlink:href="#DejaVuSans-61"/>
      <use x="121.9375" xlink:href="#DejaVuSans-6c"/>
      <use x="149.720703" xlink:href="#DejaVuSans-69"/>
      <use x="177.503906" xlink:href="#DejaVuSans-64"/>
      <use x="240.980469" xlink:href="#DejaVuSans-61"/>
      <use x="302.259766" xlink:href="#DejaVuSans-74"/>
      <use x="341.46875" xlink:href="#DejaVuSans-69"/>
      <use x="369.251953" xlink:href="#DejaVuSans-6f"/>
      <use x="430.433594" xlink:href="#DejaVuSans-6e"/>
      <use x="493.8125" xlink:href="#DejaVuSans-20"/>
      <use x="525.599609" xlink:href="#DejaVuSans-6c"/>
      <use x="553.382812" xlink:href="#DejaVuSans-6f"/>
      <use x="614.564453" xlink:href="#DejaVuSans-73"/>
      <use x="666.664062" xlink:href="#DejaVuSans-73"/>
     </g>
    </g>
   </g>
  </g>
 </g>
 <defs>
  <clipPath id="p73c4f8f3c3">
   <rect height="266.112" width="357.12" x="57.6" y="41.472"/>
  </clipPath>
 </defs>
</svg>
