<?xml version="1.0" encoding="utf-8" standalone="no"?>
<!DOCTYPE svg PUBLIC "-//W3C//DTD SVG 1.1//EN"
  "http://www.w3.org/Graphics/SVG/1.1/DTD/svg11.dtd">
<svg height="345.6pt" version="1.1" viewBox="0 0 460.8 345.6" width="460.8pt" xmlns="http://www.w3.org/2000/svg" xmlns:xlink="http://www.w3.org/1999/xlink">
 <metadata>
  <rdf:RDF xmlns:cc="http://creativecommons.org/ns#" xmlns:dc="http://purl.org/dc/elements/1.1/" xmlns:rdf="http://www.w3.org/1999/02/22-rdf-syntax-ns#">
   <cc:Work>
    <dc:type rdf:resource="http://purl.org/dc/dcmitype/StillImage"/>
    <dc:date>2021-07-11T12:28:59.343008</dc:date>
    <dc:format>image/svg+xml</dc:format>
    <dc:creator>
     <cc:Agent>
      <dc:title>Matplotlib v3.4.2, https://matplotlib.org/</dc:title>
     </cc:Agent>
    </dc:creator>
   </cc:Work>
  </rdf:RDF>
 </metadata>
 <defs>
  <style type="text/css">*{stroke-linecap:butt;stroke-linejoin:round;}</style>
 </defs>
 <g id="figure_1">
  <g id="patch_1">
   <path d="M 0 345.6 
L 460.8 345.6 
L 460.8 0 
L 0 0 
z
" style="fill:#ffffff;"/>
  </g>
  <g id="axes_1">
   <g id="patch_2">
    <path d="M 57.6 307.584 
L 414.72 307.584 
L 414.72 41.472 
L 57.6 41.472 
z
" style="fill:#ffffff;"/>
   </g>
   <g id="matplotlib.axis_1">
    <g id="xtick_1">
     <g id="line2d_1">
      <defs>
       <path d="M 0 0 
L 0 3.5 
" id="m98a23d4fc4" style="stroke:#000000;stroke-width:0.8;"/>
      </defs>
      <g>
       <use style="stroke:#000000;stroke-width:0.8;" x="73.019057" xlink:href="#m98a23d4fc4" y="307.584"/>
      </g>
     </g>
     <g id="text_1">
      <!-- 0 -->
      <g transform="translate(69.837807 322.182437)scale(0.1 -0.1)">
       <defs>
        <path d="M 2034 4250 
Q 1547 4250 1301 3770 
Q 1056 3291 1056 2328 
Q 1056 1369 1301 889 
Q 1547 409 2034 409 
Q 2525 409 2770 889 
Q 3016 1369 3016 2328 
Q 3016 3291 2770 3770 
Q 2525 4250 2034 4250 
z
M 2034 4750 
Q 2819 4750 3233 4129 
Q 3647 3509 3647 2328 
Q 3647 1150 3233 529 
Q 2819 -91 2034 -91 
Q 1250 -91 836 529 
Q 422 1150 422 2328 
Q 422 3509 836 4129 
Q 1250 4750 2034 4750 
z
" id="DejaVuSans-30" transform="scale(0.015625)"/>
       </defs>
       <use xlink:href="#DejaVuSans-30"/>
      </g>
     </g>
    </g>
    <g id="xtick_2">
     <g id="line2d_2">
      <g>
       <use style="stroke:#000000;stroke-width:0.8;" x="113.702584" xlink:href="#m98a23d4fc4" y="307.584"/>
      </g>
     </g>
     <g id="text_2">
      <!-- 50 -->
      <g transform="translate(107.340084 322.182437)scale(0.1 -0.1)">
       <defs>
        <path d="M 691 4666 
L 3169 4666 
L 3169 4134 
L 1269 4134 
L 1269 2991 
Q 1406 3038 1543 3061 
Q 1681 3084 1819 3084 
Q 2600 3084 3056 2656 
Q 3513 2228 3513 1497 
Q 3513 744 3044 326 
Q 2575 -91 1722 -91 
Q 1428 -91 1123 -41 
Q 819 9 494 109 
L 494 744 
Q 775 591 1075 516 
Q 1375 441 1709 441 
Q 2250 441 2565 725 
Q 2881 1009 2881 1497 
Q 2881 1984 2565 2268 
Q 2250 2553 1709 2553 
Q 1456 2553 1204 2497 
Q 953 2441 691 2322 
L 691 4666 
z
" id="DejaVuSans-35" transform="scale(0.015625)"/>
       </defs>
       <use xlink:href="#DejaVuSans-35"/>
       <use x="63.623047" xlink:href="#DejaVuSans-30"/>
      </g>
     </g>
    </g>
    <g id="xtick_3">
     <g id="line2d_3">
      <g>
       <use style="stroke:#000000;stroke-width:0.8;" x="154.386111" xlink:href="#m98a23d4fc4" y="307.584"/>
      </g>
     </g>
     <g id="text_3">
      <!-- 100 -->
      <g transform="translate(144.842361 322.182437)scale(0.1 -0.1)">
       <defs>
        <path d="M 794 531 
L 1825 531 
L 1825 4091 
L 703 3866 
L 703 4441 
L 1819 4666 
L 2450 4666 
L 2450 531 
L 3481 531 
L 3481 0 
L 794 0 
L 794 531 
z
" id="DejaVuSans-31" transform="scale(0.015625)"/>
       </defs>
       <use xlink:href="#DejaVuSans-31"/>
       <use x="63.623047" xlink:href="#DejaVuSans-30"/>
       <use x="127.246094" xlink:href="#DejaVuSans-30"/>
      </g>
     </g>
    </g>
    <g id="xtick_4">
     <g id="line2d_4">
      <g>
       <use style="stroke:#000000;stroke-width:0.8;" x="195.069638" xlink:href="#m98a23d4fc4" y="307.584"/>
      </g>
     </g>
     <g id="text_4">
      <!-- 150 -->
      <g transform="translate(185.525888 322.182437)scale(0.1 -0.1)">
       <use xlink:href="#DejaVuSans-31"/>
       <use x="63.623047" xlink:href="#DejaVuSans-35"/>
       <use x="127.246094" xlink:href="#DejaVuSans-30"/>
      </g>
     </g>
    </g>
    <g id="xtick_5">
     <g id="line2d_5">
      <g>
       <use style="stroke:#000000;stroke-width:0.8;" x="235.753165" xlink:href="#m98a23d4fc4" y="307.584"/>
      </g>
     </g>
     <g id="text_5">
      <!-- 200 -->
      <g transform="translate(226.209415 322.182437)scale(0.1 -0.1)">
       <defs>
        <path d="M 1228 531 
L 3431 531 
L 3431 0 
L 469 0 
L 469 531 
Q 828 903 1448 1529 
Q 2069 2156 2228 2338 
Q 2531 2678 2651 2914 
Q 2772 3150 2772 3378 
Q 2772 3750 2511 3984 
Q 2250 4219 1831 4219 
Q 1534 4219 1204 4116 
Q 875 4013 500 3803 
L 500 4441 
Q 881 4594 1212 4672 
Q 1544 4750 1819 4750 
Q 2544 4750 2975 4387 
Q 3406 4025 3406 3419 
Q 3406 3131 3298 2873 
Q 3191 2616 2906 2266 
Q 2828 2175 2409 1742 
Q 1991 1309 1228 531 
z
" id="DejaVuSans-32" transform="scale(0.015625)"/>
       </defs>
       <use xlink:href="#DejaVuSans-32"/>
       <use x="63.623047" xlink:href="#DejaVuSans-30"/>
       <use x="127.246094" xlink:href="#DejaVuSans-30"/>
      </g>
     </g>
    </g>
    <g id="xtick_6">
     <g id="line2d_6">
      <g>
       <use style="stroke:#000000;stroke-width:0.8;" x="276.436692" xlink:href="#m98a23d4fc4" y="307.584"/>
      </g>
     </g>
     <g id="text_6">
      <!-- 250 -->
      <g transform="translate(266.892942 322.182437)scale(0.1 -0.1)">
       <use xlink:href="#DejaVuSans-32"/>
       <use x="63.623047" xlink:href="#DejaVuSans-35"/>
       <use x="127.246094" xlink:href="#DejaVuSans-30"/>
      </g>
     </g>
    </g>
    <g id="xtick_7">
     <g id="line2d_7">
      <g>
       <use style="stroke:#000000;stroke-width:0.8;" x="317.120219" xlink:href="#m98a23d4fc4" y="307.584"/>
      </g>
     </g>
     <g id="text_7">
      <!-- 300 -->
      <g transform="translate(307.576469 322.182437)scale(0.1 -0.1)">
       <defs>
        <path d="M 2597 2516 
Q 3050 2419 3304 2112 
Q 3559 1806 3559 1356 
Q 3559 666 3084 287 
Q 2609 -91 1734 -91 
Q 1441 -91 1130 -33 
Q 819 25 488 141 
L 488 750 
Q 750 597 1062 519 
Q 1375 441 1716 441 
Q 2309 441 2620 675 
Q 2931 909 2931 1356 
Q 2931 1769 2642 2001 
Q 2353 2234 1838 2234 
L 1294 2234 
L 1294 2753 
L 1863 2753 
Q 2328 2753 2575 2939 
Q 2822 3125 2822 3475 
Q 2822 3834 2567 4026 
Q 2313 4219 1838 4219 
Q 1578 4219 1281 4162 
Q 984 4106 628 3988 
L 628 4550 
Q 988 4650 1302 4700 
Q 1616 4750 1894 4750 
Q 2613 4750 3031 4423 
Q 3450 4097 3450 3541 
Q 3450 3153 3228 2886 
Q 3006 2619 2597 2516 
z
" id="DejaVuSans-33" transform="scale(0.015625)"/>
       </defs>
       <use xlink:href="#DejaVuSans-33"/>
       <use x="63.623047" xlink:href="#DejaVuSans-30"/>
       <use x="127.246094" xlink:href="#DejaVuSans-30"/>
      </g>
     </g>
    </g>
    <g id="xtick_8">
     <g id="line2d_8">
      <g>
       <use style="stroke:#000000;stroke-width:0.8;" x="357.803746" xlink:href="#m98a23d4fc4" y="307.584"/>
      </g>
     </g>
     <g id="text_8">
      <!-- 350 -->
      <g transform="translate(348.259996 322.182437)scale(0.1 -0.1)">
       <use xlink:href="#DejaVuSans-33"/>
       <use x="63.623047" xlink:href="#DejaVuSans-35"/>
       <use x="127.246094" xlink:href="#DejaVuSans-30"/>
      </g>
     </g>
    </g>
    <g id="xtick_9">
     <g id="line2d_9">
      <g>
       <use style="stroke:#000000;stroke-width:0.8;" x="398.487273" xlink:href="#m98a23d4fc4" y="307.584"/>
      </g>
     </g>
     <g id="text_9">
      <!-- 400 -->
      <g transform="translate(388.943523 322.182437)scale(0.1 -0.1)">
       <defs>
        <path d="M 2419 4116 
L 825 1625 
L 2419 1625 
L 2419 4116 
z
M 2253 4666 
L 3047 4666 
L 3047 1625 
L 3713 1625 
L 3713 1100 
L 3047 1100 
L 3047 0 
L 2419 0 
L 2419 1100 
L 313 1100 
L 313 1709 
L 2253 4666 
z
" id="DejaVuSans-34" transform="scale(0.015625)"/>
       </defs>
       <use xlink:href="#DejaVuSans-34"/>
       <use x="63.623047" xlink:href="#DejaVuSans-30"/>
       <use x="127.246094" xlink:href="#DejaVuSans-30"/>
      </g>
     </g>
    </g>
    <g id="text_10">
     <!-- Epoch -->
     <g transform="translate(213.193594 339.659781)scale(0.15 -0.15)">
      <defs>
       <path d="M 628 4666 
L 3578 4666 
L 3578 4134 
L 1259 4134 
L 1259 2753 
L 3481 2753 
L 3481 2222 
L 1259 2222 
L 1259 531 
L 3634 531 
L 3634 0 
L 628 0 
L 628 4666 
z
" id="DejaVuSans-45" transform="scale(0.015625)"/>
       <path d="M 1159 525 
L 1159 -1331 
L 581 -1331 
L 581 3500 
L 1159 3500 
L 1159 2969 
Q 1341 3281 1617 3432 
Q 1894 3584 2278 3584 
Q 2916 3584 3314 3078 
Q 3713 2572 3713 1747 
Q 3713 922 3314 415 
Q 2916 -91 2278 -91 
Q 1894 -91 1617 61 
Q 1341 213 1159 525 
z
M 3116 1747 
Q 3116 2381 2855 2742 
Q 2594 3103 2138 3103 
Q 1681 3103 1420 2742 
Q 1159 2381 1159 1747 
Q 1159 1113 1420 752 
Q 1681 391 2138 391 
Q 2594 391 2855 752 
Q 3116 1113 3116 1747 
z
" id="DejaVuSans-70" transform="scale(0.015625)"/>
       <path d="M 1959 3097 
Q 1497 3097 1228 2736 
Q 959 2375 959 1747 
Q 959 1119 1226 758 
Q 1494 397 1959 397 
Q 2419 397 2687 759 
Q 2956 1122 2956 1747 
Q 2956 2369 2687 2733 
Q 2419 3097 1959 3097 
z
M 1959 3584 
Q 2709 3584 3137 3096 
Q 3566 2609 3566 1747 
Q 3566 888 3137 398 
Q 2709 -91 1959 -91 
Q 1206 -91 779 398 
Q 353 888 353 1747 
Q 353 2609 779 3096 
Q 1206 3584 1959 3584 
z
" id="DejaVuSans-6f" transform="scale(0.015625)"/>
       <path d="M 3122 3366 
L 3122 2828 
Q 2878 2963 2633 3030 
Q 2388 3097 2138 3097 
Q 1578 3097 1268 2742 
Q 959 2388 959 1747 
Q 959 1106 1268 751 
Q 1578 397 2138 397 
Q 2388 397 2633 464 
Q 2878 531 3122 666 
L 3122 134 
Q 2881 22 2623 -34 
Q 2366 -91 2075 -91 
Q 1284 -91 818 406 
Q 353 903 353 1747 
Q 353 2603 823 3093 
Q 1294 3584 2113 3584 
Q 2378 3584 2631 3529 
Q 2884 3475 3122 3366 
z
" id="DejaVuSans-63" transform="scale(0.015625)"/>
       <path d="M 3513 2113 
L 3513 0 
L 2938 0 
L 2938 2094 
Q 2938 2591 2744 2837 
Q 2550 3084 2163 3084 
Q 1697 3084 1428 2787 
Q 1159 2491 1159 1978 
L 1159 0 
L 581 0 
L 581 4863 
L 1159 4863 
L 1159 2956 
Q 1366 3272 1645 3428 
Q 1925 3584 2291 3584 
Q 2894 3584 3203 3211 
Q 3513 2838 3513 2113 
z
" id="DejaVuSans-68" transform="scale(0.015625)"/>
      </defs>
      <use xlink:href="#DejaVuSans-45"/>
      <use x="63.183594" xlink:href="#DejaVuSans-70"/>
      <use x="126.660156" xlink:href="#DejaVuSans-6f"/>
      <use x="187.841797" xlink:href="#DejaVuSans-63"/>
      <use x="242.822266" xlink:href="#DejaVuSans-68"/>
     </g>
    </g>
   </g>
   <g id="matplotlib.axis_2">
    <g id="ytick_1">
     <g id="line2d_10">
      <defs>
       <path d="M 0 0 
L -3.5 0 
" id="m9cb6aab8cd" style="stroke:#000000;stroke-width:0.8;"/>
      </defs>
      <g>
       <use style="stroke:#000000;stroke-width:0.8;" x="57.6" xlink:href="#m9cb6aab8cd" y="259.400486"/>
      </g>
     </g>
     <g id="text_11">
      <!-- 0.2 -->
      <g transform="translate(34.696875 263.199705)scale(0.1 -0.1)">
       <defs>
        <path d="M 684 794 
L 1344 794 
L 1344 0 
L 684 0 
L 684 794 
z
" id="DejaVuSans-2e" transform="scale(0.015625)"/>
       </defs>
       <use xlink:href="#DejaVuSans-30"/>
       <use x="63.623047" xlink:href="#DejaVuSans-2e"/>
       <use x="95.410156" xlink:href="#DejaVuSans-32"/>
      </g>
     </g>
    </g>
    <g id="ytick_2">
     <g id="line2d_11">
      <g>
       <use style="stroke:#000000;stroke-width:0.8;" x="57.6" xlink:href="#m9cb6aab8cd" y="205.937503"/>
      </g>
     </g>
     <g id="text_12">
      <!-- 0.4 -->
      <g transform="translate(34.696875 209.736722)scale(0.1 -0.1)">
       <use xlink:href="#DejaVuSans-30"/>
       <use x="63.623047" xlink:href="#DejaVuSans-2e"/>
       <use x="95.410156" xlink:href="#DejaVuSans-34"/>
      </g>
     </g>
    </g>
    <g id="ytick_3">
     <g id="line2d_12">
      <g>
       <use style="stroke:#000000;stroke-width:0.8;" x="57.6" xlink:href="#m9cb6aab8cd" y="152.474519"/>
      </g>
     </g>
     <g id="text_13">
      <!-- 0.6 -->
      <g transform="translate(34.696875 156.273738)scale(0.1 -0.1)">
       <defs>
        <path d="M 2113 2584 
Q 1688 2584 1439 2293 
Q 1191 2003 1191 1497 
Q 1191 994 1439 701 
Q 1688 409 2113 409 
Q 2538 409 2786 701 
Q 3034 994 3034 1497 
Q 3034 2003 2786 2293 
Q 2538 2584 2113 2584 
z
M 3366 4563 
L 3366 3988 
Q 3128 4100 2886 4159 
Q 2644 4219 2406 4219 
Q 1781 4219 1451 3797 
Q 1122 3375 1075 2522 
Q 1259 2794 1537 2939 
Q 1816 3084 2150 3084 
Q 2853 3084 3261 2657 
Q 3669 2231 3669 1497 
Q 3669 778 3244 343 
Q 2819 -91 2113 -91 
Q 1303 -91 875 529 
Q 447 1150 447 2328 
Q 447 3434 972 4092 
Q 1497 4750 2381 4750 
Q 2619 4750 2861 4703 
Q 3103 4656 3366 4563 
z
" id="DejaVuSans-36" transform="scale(0.015625)"/>
       </defs>
       <use xlink:href="#DejaVuSans-30"/>
       <use x="63.623047" xlink:href="#DejaVuSans-2e"/>
       <use x="95.410156" xlink:href="#DejaVuSans-36"/>
      </g>
     </g>
    </g>
    <g id="ytick_4">
     <g id="line2d_13">
      <g>
       <use style="stroke:#000000;stroke-width:0.8;" x="57.6" xlink:href="#m9cb6aab8cd" y="99.011536"/>
      </g>
     </g>
     <g id="text_14">
      <!-- 0.8 -->
      <g transform="translate(34.696875 102.810755)scale(0.1 -0.1)">
       <defs>
        <path d="M 2034 2216 
Q 1584 2216 1326 1975 
Q 1069 1734 1069 1313 
Q 1069 891 1326 650 
Q 1584 409 2034 409 
Q 2484 409 2743 651 
Q 3003 894 3003 1313 
Q 3003 1734 2745 1975 
Q 2488 2216 2034 2216 
z
M 1403 2484 
Q 997 2584 770 2862 
Q 544 3141 544 3541 
Q 544 4100 942 4425 
Q 1341 4750 2034 4750 
Q 2731 4750 3128 4425 
Q 3525 4100 3525 3541 
Q 3525 3141 3298 2862 
Q 3072 2584 2669 2484 
Q 3125 2378 3379 2068 
Q 3634 1759 3634 1313 
Q 3634 634 3220 271 
Q 2806 -91 2034 -91 
Q 1263 -91 848 271 
Q 434 634 434 1313 
Q 434 1759 690 2068 
Q 947 2378 1403 2484 
z
M 1172 3481 
Q 1172 3119 1398 2916 
Q 1625 2713 2034 2713 
Q 2441 2713 2670 2916 
Q 2900 3119 2900 3481 
Q 2900 3844 2670 4047 
Q 2441 4250 2034 4250 
Q 1625 4250 1398 4047 
Q 1172 3844 1172 3481 
z
" id="DejaVuSans-38" transform="scale(0.015625)"/>
       </defs>
       <use xlink:href="#DejaVuSans-30"/>
       <use x="63.623047" xlink:href="#DejaVuSans-2e"/>
       <use x="95.410156" xlink:href="#DejaVuSans-38"/>
      </g>
     </g>
    </g>
    <g id="ytick_5">
     <g id="line2d_14">
      <g>
       <use style="stroke:#000000;stroke-width:0.8;" x="57.6" xlink:href="#m9cb6aab8cd" y="45.548552"/>
      </g>
     </g>
     <g id="text_15">
      <!-- 1.0 -->
      <g transform="translate(34.696875 49.347771)scale(0.1 -0.1)">
       <use xlink:href="#DejaVuSans-31"/>
       <use x="63.623047" xlink:href="#DejaVuSans-2e"/>
       <use x="95.410156" xlink:href="#DejaVuSans-30"/>
      </g>
     </g>
    </g>
    <g id="text_16">
     <!-- Loss -->
     <g transform="translate(27.577344 190.978781)rotate(-90)scale(0.15 -0.15)">
      <defs>
       <path d="M 628 4666 
L 1259 4666 
L 1259 531 
L 3531 531 
L 3531 0 
L 628 0 
L 628 4666 
z
" id="DejaVuSans-4c" transform="scale(0.015625)"/>
       <path d="M 2834 3397 
L 2834 2853 
Q 2591 2978 2328 3040 
Q 2066 3103 1784 3103 
Q 1356 3103 1142 2972 
Q 928 2841 928 2578 
Q 928 2378 1081 2264 
Q 1234 2150 1697 2047 
L 1894 2003 
Q 2506 1872 2764 1633 
Q 3022 1394 3022 966 
Q 3022 478 2636 193 
Q 2250 -91 1575 -91 
Q 1294 -91 989 -36 
Q 684 19 347 128 
L 347 722 
Q 666 556 975 473 
Q 1284 391 1588 391 
Q 1994 391 2212 530 
Q 2431 669 2431 922 
Q 2431 1156 2273 1281 
Q 2116 1406 1581 1522 
L 1381 1569 
Q 847 1681 609 1914 
Q 372 2147 372 2553 
Q 372 3047 722 3315 
Q 1072 3584 1716 3584 
Q 2034 3584 2315 3537 
Q 2597 3491 2834 3397 
z
" id="DejaVuSans-73" transform="scale(0.015625)"/>
      </defs>
      <use xlink:href="#DejaVuSans-4c"/>
      <use x="53.962891" xlink:href="#DejaVuSans-6f"/>
      <use x="115.144531" xlink:href="#DejaVuSans-73"/>
      <use x="167.244141" xlink:href="#DejaVuSans-73"/>
     </g>
    </g>
   </g>
   <g id="line2d_15">
    <path clip-path="url(#p15ef1f9e56)" d="M 73.832727 286.131978 
L 74.646398 283.458829 
L 75.460068 287.468552 
L 76.273739 287.468552 
L 77.087409 295.488 
L 77.90108 280.78568 
L 78.714751 287.468552 
L 79.528421 286.131978 
L 80.342092 291.478276 
L 81.155762 286.131978 
L 81.969433 295.488 
L 82.783103 291.478276 
L 83.596774 295.488 
L 84.410444 288.805127 
L 85.224115 287.468552 
L 86.037785 288.805127 
L 86.851456 286.131978 
L 87.665126 288.805127 
L 88.478797 284.795403 
L 89.292468 286.131978 
L 90.106138 290.141702 
L 90.919809 283.458829 
L 91.733479 280.78568 
L 92.54715 291.478276 
L 93.36082 279.449105 
L 94.174491 290.141702 
L 94.988161 284.795403 
L 95.801832 283.458829 
L 96.615502 278.11253 
L 97.429173 276.775956 
L 98.242843 276.775956 
L 99.056514 267.419934 
L 99.870185 274.102807 
L 101.497526 266.083359 
L 102.311196 263.41021 
L 103.124867 278.11253 
L 103.938537 267.419934 
L 104.752208 259.400486 
L 105.565878 250.044464 
L 106.379549 254.054188 
L 107.193219 264.746785 
L 108.00689 255.390762 
L 108.82056 239.351867 
L 109.634231 259.400486 
L 110.447902 251.381039 
L 111.261572 246.03474 
L 112.075243 228.659271 
L 112.888913 221.976398 
L 113.702584 228.659271 
L 114.516254 223.312972 
L 115.329925 236.678718 
L 116.143595 227.322696 
L 116.957266 224.649547 
L 117.770936 200.591204 
L 118.584607 205.937503 
L 119.398278 208.610652 
L 120.211948 203.264354 
L 121.025619 212.620376 
L 121.839289 209.947227 
L 122.65296 197.918055 
L 123.46663 200.591204 
L 124.280301 200.591204 
L 125.093971 181.87916 
L 125.907642 197.918055 
L 126.721312 179.206011 
L 127.534983 188.562033 
L 128.348653 171.186564 
L 129.162324 177.869436 
L 129.975995 172.523138 
L 130.789665 171.186564 
L 131.603336 176.532862 
L 132.417006 160.493967 
L 133.230677 169.849989 
L 134.044347 168.513414 
L 134.858018 161.830541 
L 135.671688 161.830541 
L 136.485359 156.484243 
L 137.299029 164.503691 
L 138.1127 168.513414 
L 138.92637 169.849989 
L 139.740041 148.464796 
L 140.553712 173.859713 
L 141.367382 165.840265 
L 142.181053 160.493967 
L 142.994723 157.820818 
L 143.808394 159.157392 
L 144.622064 159.157392 
L 145.435735 155.147669 
L 146.249405 164.503691 
L 147.063076 155.147669 
L 147.876746 156.484243 
L 148.690417 136.435624 
L 149.504087 145.791646 
L 150.317758 161.830541 
L 151.131429 156.484243 
L 151.945099 148.464796 
L 152.75877 144.455072 
L 153.57244 148.464796 
L 154.386111 156.484243 
L 156.013452 137.772199 
L 156.827122 136.435624 
L 157.640793 127.079602 
L 158.454463 132.425901 
L 159.268134 131.089326 
L 160.081805 121.733304 
L 160.895475 125.743028 
L 161.709146 119.060155 
L 162.522816 145.791646 
L 163.336487 119.060155 
L 164.150157 155.147669 
L 164.963828 129.752751 
L 165.777498 112.377282 
L 166.591169 128.416177 
L 167.404839 133.762475 
L 168.21851 133.762475 
L 169.03218 136.435624 
L 169.845851 115.050431 
L 170.659522 127.079602 
L 171.473192 129.752751 
L 172.286863 121.733304 
L 173.100533 117.72358 
L 173.914204 105.694409 
L 174.727874 117.72358 
L 175.541545 117.72358 
L 176.355215 125.743028 
L 177.168886 121.733304 
L 177.982556 123.069878 
L 178.796227 92.328663 
L 179.609897 111.040707 
L 180.423568 119.060155 
L 181.237239 128.416177 
L 182.050909 113.713856 
L 182.86458 124.406453 
L 183.67825 116.387006 
L 184.491921 103.02126 
L 185.305591 107.030983 
L 186.119262 103.02126 
L 186.932932 100.34811 
L 187.746603 119.060155 
L 188.560273 129.752751 
L 189.373944 112.377282 
L 190.187614 99.011536 
L 191.001285 115.050431 
L 191.814956 120.396729 
L 192.628626 103.02126 
L 193.442297 95.001812 
L 194.255967 105.694409 
L 195.069638 105.694409 
L 195.883308 95.001812 
L 196.696979 95.001812 
L 197.510649 105.694409 
L 198.32432 92.328663 
L 199.13799 88.318939 
L 199.951661 105.694409 
L 200.765332 89.655514 
L 201.579002 100.34811 
L 202.392673 88.318939 
L 203.206343 97.674961 
L 204.020014 81.636066 
L 204.833684 103.02126 
L 205.647355 88.318939 
L 206.461025 93.665238 
L 207.274696 72.280044 
L 208.088366 90.992088 
L 209.715707 104.357834 
L 210.529378 85.64579 
L 211.343049 86.982365 
L 212.156719 93.665238 
L 212.97039 84.309215 
L 213.78406 92.328663 
L 214.597731 92.328663 
L 215.411401 81.636066 
L 216.225072 85.64579 
L 217.038742 90.992088 
L 217.852413 97.674961 
L 218.666083 86.982365 
L 220.293424 97.674961 
L 221.107095 90.992088 
L 221.920766 90.992088 
L 222.734436 95.001812 
L 223.548107 85.64579 
L 224.361777 86.982365 
L 225.175448 84.309215 
L 225.989118 95.001812 
L 226.802789 89.655514 
L 227.616459 73.616619 
L 228.43013 88.318939 
L 229.2438 97.674961 
L 230.057471 92.328663 
L 230.871141 93.665238 
L 231.684812 84.309215 
L 233.312153 76.289768 
L 234.125824 92.328663 
L 234.939494 76.289768 
L 235.753165 82.972641 
L 236.566835 62.924022 
L 237.380506 81.636066 
L 238.194176 80.299492 
L 239.007847 76.289768 
L 239.821517 70.94347 
L 240.635188 92.328663 
L 241.448859 80.299492 
L 242.262529 72.280044 
L 243.0762 84.309215 
L 243.88987 81.636066 
L 244.703541 80.299492 
L 245.517211 93.665238 
L 246.330882 86.982365 
L 247.144552 69.606895 
L 247.958223 69.606895 
L 248.771893 86.982365 
L 249.585564 74.953193 
L 250.399234 76.289768 
L 251.212905 70.94347 
L 252.026576 69.606895 
L 252.840246 78.962917 
L 253.653917 73.616619 
L 254.467587 81.636066 
L 255.281258 90.992088 
L 256.094928 78.962917 
L 256.908599 78.962917 
L 257.722269 61.587448 
L 258.53594 84.309215 
L 259.34961 82.972641 
L 260.163281 74.953193 
L 260.976951 73.616619 
L 261.790622 77.626343 
L 262.604293 86.982365 
L 263.417963 76.289768 
L 264.231634 84.309215 
L 265.045304 85.64579 
L 265.858975 77.626343 
L 266.672645 77.626343 
L 267.486316 68.27032 
L 268.299986 72.280044 
L 269.113657 65.597171 
L 269.927327 73.616619 
L 270.740998 77.626343 
L 271.554668 68.27032 
L 272.368339 70.94347 
L 273.18201 70.94347 
L 273.99568 78.962917 
L 274.809351 81.636066 
L 275.623021 92.328663 
L 276.436692 73.616619 
L 277.250362 69.606895 
L 278.064033 76.289768 
L 278.877703 69.606895 
L 279.691374 89.655514 
L 280.505044 78.962917 
L 281.318715 77.626343 
L 282.132386 70.94347 
L 282.946056 72.280044 
L 283.759727 77.626343 
L 285.387068 66.933746 
L 286.200738 60.250873 
L 287.014409 66.933746 
L 287.828079 72.280044 
L 288.64175 73.616619 
L 289.45542 77.626343 
L 290.269091 57.577724 
L 291.082761 81.636066 
L 291.896432 65.597171 
L 292.710103 76.289768 
L 293.523773 74.953193 
L 294.337444 65.597171 
L 295.151114 61.587448 
L 295.964785 80.299492 
L 296.778455 69.606895 
L 298.405796 66.933746 
L 299.219467 61.587448 
L 300.033137 64.260597 
L 300.846808 95.001812 
L 301.660478 61.587448 
L 302.474149 70.94347 
L 303.28782 77.626343 
L 304.10149 66.933746 
L 304.915161 80.299492 
L 305.728831 61.587448 
L 306.542502 85.64579 
L 307.356172 80.299492 
L 308.983513 72.280044 
L 309.797184 73.616619 
L 310.610854 78.962917 
L 311.424525 69.606895 
L 312.238195 74.953193 
L 313.051866 70.94347 
L 313.865537 68.27032 
L 314.679207 74.953193 
L 315.492878 69.606895 
L 316.306548 69.606895 
L 317.120219 64.260597 
L 317.933889 68.27032 
L 318.74756 69.606895 
L 319.56123 76.289768 
L 320.374901 53.568 
L 321.188571 61.587448 
L 322.002242 56.241149 
L 322.815913 72.280044 
L 323.629583 66.933746 
L 324.443254 64.260597 
L 325.256924 57.577724 
L 326.070595 76.289768 
L 326.884265 72.280044 
L 327.697936 84.309215 
L 328.511606 66.933746 
L 329.325277 72.280044 
L 330.138947 82.972641 
L 330.952618 85.64579 
L 331.766288 62.924022 
L 332.579959 66.933746 
L 333.39363 76.289768 
L 334.2073 69.606895 
L 335.020971 60.250873 
L 335.834641 65.597171 
L 336.648312 74.953193 
L 337.461982 62.924022 
L 338.275653 76.289768 
L 339.089323 61.587448 
L 339.902994 62.924022 
L 340.716664 66.933746 
L 341.530335 73.616619 
L 342.344005 57.577724 
L 343.157676 70.94347 
L 343.971347 64.260597 
L 344.785017 68.27032 
L 345.598688 68.27032 
L 346.412358 77.626343 
L 347.226029 78.962917 
L 348.039699 66.933746 
L 348.85337 77.626343 
L 349.66704 82.972641 
L 350.480711 76.289768 
L 351.294381 64.260597 
L 352.108052 78.962917 
L 352.921722 60.250873 
L 353.735393 78.962917 
L 354.549064 72.280044 
L 355.362734 68.27032 
L 356.176405 90.992088 
L 356.990075 61.587448 
L 357.803746 73.616619 
L 358.617416 61.587448 
L 359.431087 68.27032 
L 360.244757 66.933746 
L 361.058428 82.972641 
L 361.872098 64.260597 
L 362.685769 56.241149 
L 363.49944 64.260597 
L 364.31311 80.299492 
L 365.126781 65.597171 
L 365.940451 73.616619 
L 366.754122 65.597171 
L 367.567792 89.655514 
L 368.381463 66.933746 
L 369.195133 74.953193 
L 370.008804 60.250873 
L 370.822474 70.94347 
L 371.636145 62.924022 
L 372.449815 77.626343 
L 373.263486 72.280044 
L 374.077157 62.924022 
L 374.890827 58.914298 
L 375.704498 61.587448 
L 376.518168 70.94347 
L 377.331839 73.616619 
L 378.145509 74.953193 
L 379.77285 58.914298 
L 380.586521 68.27032 
L 381.400191 69.606895 
L 382.213862 64.260597 
L 383.027532 66.933746 
L 383.841203 68.27032 
L 384.654874 57.577724 
L 385.468544 60.250873 
L 386.282215 61.587448 
L 387.095885 60.250873 
L 387.909556 66.933746 
L 388.723226 62.924022 
L 389.536897 65.597171 
L 391.164238 68.27032 
L 391.977908 77.626343 
L 392.791579 58.914298 
L 393.605249 66.933746 
L 394.41892 73.616619 
L 395.232591 62.924022 
L 396.046261 64.260597 
L 396.859932 68.27032 
L 397.673602 60.250873 
L 398.487273 60.250873 
L 398.487273 60.250873 
" style="fill:none;stroke:#1f77b4;stroke-linecap:square;stroke-width:1.5;"/>
   </g>
   <g id="line2d_16">
    <path clip-path="url(#p15ef1f9e56)" d="M 73.832727 286.555227 
L 74.646398 284.528088 
L 75.460068 285.307757 
L 76.273739 285.753282 
L 77.087409 285.419138 
L 77.90108 284.483536 
L 79.528421 284.038011 
L 81.155762 284.706298 
L 81.969433 284.81768 
L 82.783103 285.864663 
L 83.596774 285.018166 
L 84.410444 285.018166 
L 85.224115 284.661746 
L 86.037785 285.263204 
L 87.665126 283.948906 
L 88.478797 284.015735 
L 89.292468 283.503381 
L 90.106138 284.305326 
L 90.919809 282.567779 
L 91.733479 281.565348 
L 92.54715 278.64716 
L 93.36082 279.582762 
L 94.174491 276.464088 
L 94.988161 272.855337 
L 95.801832 270.070807 
L 96.615502 269.135204 
L 97.429173 264.323536 
L 98.242843 268.667403 
L 99.056514 263.499315 
L 99.870185 263.254276 
L 100.683855 261.739492 
L 101.497526 263.833459 
L 102.311196 260.001945 
L 103.124867 262.69737 
L 103.938537 260.024221 
L 104.752208 259.890564 
L 105.565878 257.551558 
L 106.379549 256.549127 
L 107.193219 251.358762 
L 108.82056 254.856133 
L 109.634231 255.502144 
L 110.447902 245.455558 
L 112.075243 237.881635 
L 112.888913 239.017724 
L 113.702584 229.461215 
L 114.516254 233.93874 
L 116.143595 215.293525 
L 116.957266 209.835845 
L 117.770936 213.132729 
L 118.584607 212.754033 
L 119.398278 217.743912 
L 120.211948 206.806276 
L 121.025619 218.590409 
L 121.839289 206.137989 
L 122.65296 198.519514 
L 123.46663 203.487116 
L 124.280301 207.697326 
L 125.093971 221.553149 
L 125.907642 204.845967 
L 126.721312 192.527204 
L 127.534983 203.553945 
L 128.348653 199.566497 
L 129.162324 192.326718 
L 129.975995 183.705812 
L 130.789665 185.599293 
L 131.603336 190.388685 
L 132.417006 184.730519 
L 133.230677 182.77021 
L 134.044347 200.14568 
L 134.858018 187.069525 
L 135.671688 190.856486 
L 137.299029 187.047249 
L 138.1127 177.936265 
L 138.92637 182.992972 
L 140.553712 175.040354 
L 141.367382 176.889282 
L 142.181053 183.215735 
L 143.808394 169.404464 
L 144.622064 184.284994 
L 145.435735 175.508155 
L 146.249405 187.492773 
L 147.063076 169.560398 
L 147.876746 170.718762 
L 148.690417 180.787624 
L 149.504087 167.800575 
L 150.317758 181.433635 
L 151.131429 165.528398 
L 151.945099 166.419448 
L 152.75877 165.171978 
L 153.57244 167.934232 
L 154.386111 165.39474 
L 155.199781 163.746298 
L 156.013452 165.261083 
L 156.827122 164.971492 
L 157.640793 167.555536 
L 158.454463 163.590365 
L 159.268134 166.99863 
L 160.081805 169.404464 
L 160.895475 164.548243 
L 161.709146 166.686762 
L 162.522816 162.855249 
L 163.336487 161.117702 
L 164.150157 160.694453 
L 164.963828 160.115271 
L 165.777498 158.132685 
L 166.591169 169.471293 
L 167.404839 177.178873 
L 168.21851 161.18453 
L 169.03218 167.35505 
L 170.659522 152.964597 
L 171.473192 155.147669 
L 172.286863 149.400398 
L 173.100533 152.585901 
L 173.914204 158.956906 
L 174.727874 152.585901 
L 175.541545 154.301171 
L 176.355215 157.174807 
L 177.168886 149.26674 
L 177.982556 152.697282 
L 178.796227 168.513414 
L 179.609897 155.147669 
L 180.423568 146.192619 
L 181.237239 153.343293 
L 182.050909 145.145635 
L 182.86458 160.672177 
L 183.67825 147.105945 
L 184.491921 146.771801 
L 185.305591 155.058564 
L 186.119262 153.098254 
L 186.932932 155.860508 
L 187.746603 154.590762 
L 188.560273 164.124994 
L 189.373944 147.640575 
L 191.001285 159.402431 
L 191.814956 146.526762 
L 192.628626 139.754785 
L 193.442297 158.199514 
L 194.255967 139.376088 
L 195.069638 147.863337 
L 195.883308 148.598453 
L 196.696979 145.05653 
L 197.510649 147.328707 
L 198.32432 144.009547 
L 199.13799 152.741834 
L 199.951661 142.427934 
L 200.765332 154.457105 
L 201.579002 158.93463 
L 202.392673 142.784354 
L 203.206343 147.72968 
L 204.020014 145.992133 
L 204.833684 142.695249 
L 205.647355 146.014409 
L 206.461025 141.603713 
L 207.274696 140.645834 
L 208.088366 147.818785 
L 208.902037 149.378122 
L 209.715707 142.650696 
L 210.529378 145.368398 
L 211.343049 142.383381 
L 212.156719 140.757215 
L 212.97039 137.215293 
L 213.78406 141.759646 
L 214.597731 148.108376 
L 215.411401 142.026961 
L 216.225072 143.586298 
L 217.852413 133.161017 
L 218.666083 143.474917 
L 219.479754 141.002254 
L 220.293424 155.860508 
L 221.107095 138.039514 
L 221.920766 140.333967 
L 222.734436 131.846718 
L 224.361777 146.994564 
L 225.175448 136.235138 
L 225.989118 135.143602 
L 226.802789 137.504884 
L 227.616459 135.767337 
L 228.43013 133.13874 
L 229.2438 139.264707 
L 230.057471 132.069481 
L 230.871141 136.725215 
L 231.684812 137.415779 
L 232.498483 138.685525 
L 233.312153 135.522298 
L 234.125824 143.252155 
L 234.939494 140.913149 
L 235.753165 135.45547 
L 236.566835 136.970254 
L 237.380506 124.629215 
L 238.194176 136.257414 
L 239.007847 128.75032 
L 239.821517 133.116464 
L 240.635188 133.896133 
L 241.448859 129.039912 
L 242.262529 138.841459 
L 243.0762 139.353812 
L 243.88987 128.371624 
L 244.703541 140.66811 
L 245.517211 136.168309 
L 246.330882 136.257414 
L 247.144552 128.549834 
L 247.958223 135.967823 
L 248.771893 133.940685 
L 250.399234 125.141569 
L 251.212905 133.940685 
L 252.026576 132.871425 
L 252.840246 138.017238 
L 253.653917 126.344486 
L 254.467587 126.099448 
L 255.281258 135.254983 
L 256.094928 131.557127 
L 256.908599 132.158586 
L 257.722269 129.886409 
L 258.53594 126.879116 
L 259.34961 128.906254 
L 260.163281 123.092155 
L 260.976951 126.990497 
L 261.790622 121.109569 
L 262.604293 125.319779 
L 263.417963 146.704972 
L 264.231634 144.833768 
L 265.045304 131.846718 
L 265.858975 121.22095 
L 266.672645 126.455867 
L 267.486316 125.653923 
L 268.299986 137.148464 
L 269.113657 126.700906 
L 270.740998 130.242829 
L 271.554668 132.804597 
L 272.368339 130.198276 
L 273.18201 124.094586 
L 273.99568 127.146431 
L 274.809351 119.104707 
L 276.436692 131.445746 
L 277.250362 139.532022 
L 278.064033 124.495558 
L 278.877703 128.683492 
L 279.691374 125.453436 
L 280.505044 126.077171 
L 281.318715 126.277657 
L 282.132386 136.480177 
L 282.946056 119.706166 
L 283.759727 122.691182 
L 284.573397 128.92853 
L 285.387068 126.901392 
L 286.200738 141.759646 
L 287.014409 121.911514 
L 287.828079 122.668906 
L 289.45542 131.958099 
L 290.269091 125.275227 
L 291.082761 141.536884 
L 291.896432 146.66042 
L 293.523773 117.389436 
L 294.337444 129.685923 
L 295.151114 127.190983 
L 295.964785 129.953238 
L 296.778455 122.134276 
L 297.592126 124.985635 
L 298.405796 126.544972 
L 299.219467 122.067448 
L 300.033137 129.307227 
L 300.846808 132.78232 
L 301.660478 119.772994 
L 302.474149 131.24526 
L 303.28782 119.082431 
L 304.10149 127.792442 
L 304.915161 124.562387 
L 305.728831 119.772994 
L 306.542502 141.826475 
L 307.356172 126.411315 
L 308.169843 121.332331 
L 308.983513 126.121724 
L 309.797184 127.190983 
L 310.610854 119.928928 
L 311.424525 132.024928 
L 312.238195 120.730873 
L 313.051866 126.366762 
L 313.865537 119.617061 
L 314.679207 127.614232 
L 315.492878 133.918409 
L 316.306548 132.269967 
L 317.120219 122.446144 
L 317.933889 134.608972 
L 318.74756 128.973083 
L 319.56123 128.037481 
L 320.374901 123.693613 
L 321.188571 128.661215 
L 322.002242 125.475713 
L 322.815913 131.77989 
L 323.629583 122.869392 
L 324.443254 122.913945 
L 325.256924 122.602077 
L 326.070595 117.500818 
L 326.884265 130.086895 
L 327.697936 119.817547 
L 328.511606 116.008309 
L 329.325277 132.292243 
L 330.138947 121.555094 
L 330.952618 118.837392 
L 331.766288 126.054895 
L 332.579959 146.883182 
L 333.39363 144.120928 
L 334.2073 134.453039 
L 335.020971 121.176398 
L 335.834641 121.777856 
L 336.648312 128.705768 
L 337.461982 124.562387 
L 338.275653 123.404022 
L 339.089323 121.243227 
L 339.902994 121.39916 
L 340.716664 119.32747 
L 341.530335 116.498387 
L 342.344005 124.651492 
L 343.157676 136.012376 
L 343.971347 131.77989 
L 344.785017 117.72358 
L 345.598688 120.68632 
L 346.412358 123.047602 
L 347.226029 130.688354 
L 348.039699 128.393901 
L 348.85337 117.478541 
L 349.66704 119.50568 
L 350.480711 122.178829 
L 351.294381 118.681459 
L 352.108052 118.347315 
L 352.921722 123.983204 
L 353.735393 135.210431 
L 354.549064 118.681459 
L 355.362734 121.777856 
L 356.176405 126.344486 
L 356.990075 120.975912 
L 357.803746 121.532818 
L 359.431087 119.594785 
L 360.244757 116.320177 
L 361.058428 122.624354 
L 361.872098 115.518232 
L 362.685769 117.36716 
L 364.31311 127.257812 
L 365.126781 116.83253 
L 365.940451 122.112 
L 366.754122 125.453436 
L 367.567792 117.389436 
L 368.381463 122.936221 
L 370.008804 116.364729 
L 370.822474 111.152088 
L 371.636145 113.33516 
L 372.449815 123.270365 
L 373.263486 123.71589 
L 374.077157 122.156552 
L 374.890827 124.829702 
L 375.704498 115.11726 
L 376.518168 115.830099 
L 377.331839 122.82484 
L 378.145509 121.22095 
L 378.95918 116.721149 
L 379.77285 120.641768 
L 380.586521 125.230674 
L 381.400191 120.931359 
L 382.213862 113.69158 
L 383.027532 128.215691 
L 383.841203 122.446144 
L 384.654874 113.045569 
L 385.468544 122.357039 
L 386.282215 123.069878 
L 387.095885 116.030586 
L 387.909556 119.216088 
L 388.723226 116.743425 
L 389.536897 121.844685 
L 390.350567 124.696044 
L 391.164238 132.648663 
L 391.977908 121.956066 
L 392.791579 119.060155 
L 393.605249 120.664044 
L 394.41892 130.220552 
L 395.232591 119.461127 
L 396.046261 117.90179 
L 396.859932 122.156552 
L 397.673602 117.144398 
L 398.487273 117.990895 
L 398.487273 117.990895 
" style="fill:none;stroke:#ff7f0e;stroke-linecap:square;stroke-width:1.5;"/>
   </g>
   <g id="patch_3">
    <path d="M 57.6 307.584 
L 57.6 41.472 
" style="fill:none;stroke:#000000;stroke-linecap:square;stroke-linejoin:miter;stroke-width:0.8;"/>
   </g>
   <g id="patch_4">
    <path d="M 414.72 307.584 
L 414.72 41.472 
" style="fill:none;stroke:#000000;stroke-linecap:square;stroke-linejoin:miter;stroke-width:0.8;"/>
   </g>
   <g id="patch_5">
    <path d="M 57.6 307.584 
L 414.72 307.584 
" style="fill:none;stroke:#000000;stroke-linecap:square;stroke-linejoin:miter;stroke-width:0.8;"/>
   </g>
   <g id="patch_6">
    <path d="M 57.6 41.472 
L 414.72 41.472 
" style="fill:none;stroke:#000000;stroke-linecap:square;stroke-linejoin:miter;stroke-width:0.8;"/>
   </g>
   <g id="legend_1">
    <g id="patch_7">
     <path d="M 64.6 78.82825 
L 168.475 78.82825 
Q 170.475 78.82825 170.475 76.82825 
L 170.475 48.472 
Q 170.475 46.472 168.475 46.472 
L 64.6 46.472 
Q 62.6 46.472 62.6 48.472 
L 62.6 76.82825 
Q 62.6 78.82825 64.6 78.82825 
z
" style="fill:#ffffff;opacity:0.8;stroke:#cccccc;stroke-linejoin:miter;"/>
    </g>
    <g id="line2d_17">
     <path d="M 66.6 54.570437 
L 86.6 54.570437 
" style="fill:none;stroke:#1f77b4;stroke-linecap:square;stroke-width:1.5;"/>
    </g>
    <g id="line2d_18"/>
    <g id="text_17">
     <!-- Train loss -->
     <g transform="translate(94.6 58.070437)scale(0.1 -0.1)">
      <defs>
       <path d="M -19 4666 
L 3928 4666 
L 3928 4134 
L 2272 4134 
L 2272 0 
L 1638 0 
L 1638 4134 
L -19 4134 
L -19 4666 
z
" id="DejaVuSans-54" transform="scale(0.015625)"/>
       <path d="M 2631 2963 
Q 2534 3019 2420 3045 
Q 2306 3072 2169 3072 
Q 1681 3072 1420 2755 
Q 1159 2438 1159 1844 
L 1159 0 
L 581 0 
L 581 3500 
L 1159 3500 
L 1159 2956 
Q 1341 3275 1631 3429 
Q 1922 3584 2338 3584 
Q 2397 3584 2469 3576 
Q 2541 3569 2628 3553 
L 2631 2963 
z
" id="DejaVuSans-72" transform="scale(0.015625)"/>
       <path d="M 2194 1759 
Q 1497 1759 1228 1600 
Q 959 1441 959 1056 
Q 959 750 1161 570 
Q 1363 391 1709 391 
Q 2188 391 2477 730 
Q 2766 1069 2766 1631 
L 2766 1759 
L 2194 1759 
z
M 3341 1997 
L 3341 0 
L 2766 0 
L 2766 531 
Q 2569 213 2275 61 
Q 1981 -91 1556 -91 
Q 1019 -91 701 211 
Q 384 513 384 1019 
Q 384 1609 779 1909 
Q 1175 2209 1959 2209 
L 2766 2209 
L 2766 2266 
Q 2766 2663 2505 2880 
Q 2244 3097 1772 3097 
Q 1472 3097 1187 3025 
Q 903 2953 641 2809 
L 641 3341 
Q 956 3463 1253 3523 
Q 1550 3584 1831 3584 
Q 2591 3584 2966 3190 
Q 3341 2797 3341 1997 
z
" id="DejaVuSans-61" transform="scale(0.015625)"/>
       <path d="M 603 3500 
L 1178 3500 
L 1178 0 
L 603 0 
L 603 3500 
z
M 603 4863 
L 1178 4863 
L 1178 4134 
L 603 4134 
L 603 4863 
z
" id="DejaVuSans-69" transform="scale(0.015625)"/>
       <path d="M 3513 2113 
L 3513 0 
L 2938 0 
L 2938 2094 
Q 2938 2591 2744 2837 
Q 2550 3084 2163 3084 
Q 1697 3084 1428 2787 
Q 1159 2491 1159 1978 
L 1159 0 
L 581 0 
L 581 3500 
L 1159 3500 
L 1159 2956 
Q 1366 3272 1645 3428 
Q 1925 3584 2291 3584 
Q 2894 3584 3203 3211 
Q 3513 2838 3513 2113 
z
" id="DejaVuSans-6e" transform="scale(0.015625)"/>
       <path id="DejaVuSans-20" transform="scale(0.015625)"/>
       <path d="M 603 4863 
L 1178 4863 
L 1178 0 
L 603 0 
L 603 4863 
z
" id="DejaVuSans-6c" transform="scale(0.015625)"/>
      </defs>
      <use xlink:href="#DejaVuSans-54"/>
      <use x="46.333984" xlink:href="#DejaVuSans-72"/>
      <use x="87.447266" xlink:href="#DejaVuSans-61"/>
      <use x="148.726562" xlink:href="#DejaVuSans-69"/>
      <use x="176.509766" xlink:href="#DejaVuSans-6e"/>
      <use x="239.888672" xlink:href="#DejaVuSans-20"/>
      <use x="271.675781" xlink:href="#DejaVuSans-6c"/>
      <use x="299.458984" xlink:href="#DejaVuSans-6f"/>
      <use x="360.640625" xlink:href="#DejaVuSans-73"/>
      <use x="412.740234" xlink:href="#DejaVuSans-73"/>
     </g>
    </g>
    <g id="line2d_19">
     <path d="M 66.6 69.248562 
L 86.6 69.248562 
" style="fill:none;stroke:#ff7f0e;stroke-linecap:square;stroke-width:1.5;"/>
    </g>
    <g id="line2d_20"/>
    <g id="text_18">
     <!-- Validation loss -->
     <g transform="translate(94.6 72.748562)scale(0.1 -0.1)">
      <defs>
       <path d="M 1831 0 
L 50 4666 
L 709 4666 
L 2188 738 
L 3669 4666 
L 4325 4666 
L 2547 0 
L 1831 0 
z
" id="DejaVuSans-56" transform="scale(0.015625)"/>
       <path d="M 2906 2969 
L 2906 4863 
L 3481 4863 
L 3481 0 
L 2906 0 
L 2906 525 
Q 2725 213 2448 61 
Q 2172 -91 1784 -91 
Q 1150 -91 751 415 
Q 353 922 353 1747 
Q 353 2572 751 3078 
Q 1150 3584 1784 3584 
Q 2172 3584 2448 3432 
Q 2725 3281 2906 2969 
z
M 947 1747 
Q 947 1113 1208 752 
Q 1469 391 1925 391 
Q 2381 391 2643 752 
Q 2906 1113 2906 1747 
Q 2906 2381 2643 2742 
Q 2381 3103 1925 3103 
Q 1469 3103 1208 2742 
Q 947 2381 947 1747 
z
" id="DejaVuSans-64" transform="scale(0.015625)"/>
       <path d="M 1172 4494 
L 1172 3500 
L 2356 3500 
L 2356 3053 
L 1172 3053 
L 1172 1153 
Q 1172 725 1289 603 
Q 1406 481 1766 481 
L 2356 481 
L 2356 0 
L 1766 0 
Q 1100 0 847 248 
Q 594 497 594 1153 
L 594 3053 
L 172 3053 
L 172 3500 
L 594 3500 
L 594 4494 
L 1172 4494 
z
" id="DejaVuSans-74" transform="scale(0.015625)"/>
      </defs>
      <use xlink:href="#DejaVuSans-56"/>
      <use x="60.658203" xlink:href="#DejaVuSans-61"/>
      <use x="121.9375" xlink:href="#DejaVuSans-6c"/>
      <use x="149.720703" xlink:href="#DejaVuSans-69"/>
      <use x="177.503906" xlink:href="#DejaVuSans-64"/>
      <use x="240.980469" xlink:href="#DejaVuSans-61"/>
      <use x="302.259766" xlink:href="#DejaVuSans-74"/>
      <use x="341.46875" xlink:href="#DejaVuSans-69"/>
      <use x="369.251953" xlink:href="#DejaVuSans-6f"/>
      <use x="430.433594" xlink:href="#DejaVuSans-6e"/>
      <use x="493.8125" xlink:href="#DejaVuSans-20"/>
      <use x="525.599609" xlink:href="#DejaVuSans-6c"/>
      <use x="553.382812" xlink:href="#DejaVuSans-6f"/>
      <use x="614.564453" xlink:href="#DejaVuSans-73"/>
      <use x="666.664062" xlink:href="#DejaVuSans-73"/>
     </g>
    </g>
   </g>
  </g>
 </g>
 <defs>
  <clipPath id="p15ef1f9e56">
   <rect height="266.112" width="357.12" x="57.6" y="41.472"/>
  </clipPath>
 </defs>
</svg>
