<?xml version="1.0" encoding="utf-8" standalone="no"?>
<!DOCTYPE svg PUBLIC "-//W3C//DTD SVG 1.1//EN"
  "http://www.w3.org/Graphics/SVG/1.1/DTD/svg11.dtd">
<svg height="345.6pt" version="1.1" viewBox="0 0 460.8 345.6" width="460.8pt" xmlns="http://www.w3.org/2000/svg" xmlns:xlink="http://www.w3.org/1999/xlink">
 <metadata>
  <rdf:RDF xmlns:cc="http://creativecommons.org/ns#" xmlns:dc="http://purl.org/dc/elements/1.1/" xmlns:rdf="http://www.w3.org/1999/02/22-rdf-syntax-ns#">
   <cc:Work>
    <dc:type rdf:resource="http://purl.org/dc/dcmitype/StillImage"/>
    <dc:date>2021-07-10T21:08:12.106425</dc:date>
    <dc:format>image/svg+xml</dc:format>
    <dc:creator>
     <cc:Agent>
      <dc:title>Matplotlib v3.4.2, https://matplotlib.org/</dc:title>
     </cc:Agent>
    </dc:creator>
   </cc:Work>
  </rdf:RDF>
 </metadata>
 <defs>
  <style type="text/css">*{stroke-linecap:butt;stroke-linejoin:round;}</style>
 </defs>
 <g id="figure_1">
  <g id="patch_1">
   <path d="M 0 345.6 
L 460.8 345.6 
L 460.8 0 
L 0 0 
z
" style="fill:#ffffff;"/>
  </g>
  <g id="axes_1">
   <g id="patch_2">
    <path d="M 57.6 307.584 
L 414.72 307.584 
L 414.72 41.472 
L 57.6 41.472 
z
" style="fill:#ffffff;"/>
   </g>
   <g id="matplotlib.axis_1">
    <g id="xtick_1">
     <g id="line2d_1">
      <defs>
       <path d="M 0 0 
L 0 3.5 
" id="m3adfec2471" style="stroke:#000000;stroke-width:0.8;"/>
      </defs>
      <g>
       <use style="stroke:#000000;stroke-width:0.8;" x="73.019057" xlink:href="#m3adfec2471" y="307.584"/>
      </g>
     </g>
     <g id="text_1">
      <!-- 0 -->
      <g transform="translate(69.837807 322.182437)scale(0.1 -0.1)">
       <defs>
        <path d="M 2034 4250 
Q 1547 4250 1301 3770 
Q 1056 3291 1056 2328 
Q 1056 1369 1301 889 
Q 1547 409 2034 409 
Q 2525 409 2770 889 
Q 3016 1369 3016 2328 
Q 3016 3291 2770 3770 
Q 2525 4250 2034 4250 
z
M 2034 4750 
Q 2819 4750 3233 4129 
Q 3647 3509 3647 2328 
Q 3647 1150 3233 529 
Q 2819 -91 2034 -91 
Q 1250 -91 836 529 
Q 422 1150 422 2328 
Q 422 3509 836 4129 
Q 1250 4750 2034 4750 
z
" id="DejaVuSans-30" transform="scale(0.015625)"/>
       </defs>
       <use xlink:href="#DejaVuSans-30"/>
      </g>
     </g>
    </g>
    <g id="xtick_2">
     <g id="line2d_2">
      <g>
       <use style="stroke:#000000;stroke-width:0.8;" x="113.702584" xlink:href="#m3adfec2471" y="307.584"/>
      </g>
     </g>
     <g id="text_2">
      <!-- 50 -->
      <g transform="translate(107.340084 322.182437)scale(0.1 -0.1)">
       <defs>
        <path d="M 691 4666 
L 3169 4666 
L 3169 4134 
L 1269 4134 
L 1269 2991 
Q 1406 3038 1543 3061 
Q 1681 3084 1819 3084 
Q 2600 3084 3056 2656 
Q 3513 2228 3513 1497 
Q 3513 744 3044 326 
Q 2575 -91 1722 -91 
Q 1428 -91 1123 -41 
Q 819 9 494 109 
L 494 744 
Q 775 591 1075 516 
Q 1375 441 1709 441 
Q 2250 441 2565 725 
Q 2881 1009 2881 1497 
Q 2881 1984 2565 2268 
Q 2250 2553 1709 2553 
Q 1456 2553 1204 2497 
Q 953 2441 691 2322 
L 691 4666 
z
" id="DejaVuSans-35" transform="scale(0.015625)"/>
       </defs>
       <use xlink:href="#DejaVuSans-35"/>
       <use x="63.623047" xlink:href="#DejaVuSans-30"/>
      </g>
     </g>
    </g>
    <g id="xtick_3">
     <g id="line2d_3">
      <g>
       <use style="stroke:#000000;stroke-width:0.8;" x="154.386111" xlink:href="#m3adfec2471" y="307.584"/>
      </g>
     </g>
     <g id="text_3">
      <!-- 100 -->
      <g transform="translate(144.842361 322.182437)scale(0.1 -0.1)">
       <defs>
        <path d="M 794 531 
L 1825 531 
L 1825 4091 
L 703 3866 
L 703 4441 
L 1819 4666 
L 2450 4666 
L 2450 531 
L 3481 531 
L 3481 0 
L 794 0 
L 794 531 
z
" id="DejaVuSans-31" transform="scale(0.015625)"/>
       </defs>
       <use xlink:href="#DejaVuSans-31"/>
       <use x="63.623047" xlink:href="#DejaVuSans-30"/>
       <use x="127.246094" xlink:href="#DejaVuSans-30"/>
      </g>
     </g>
    </g>
    <g id="xtick_4">
     <g id="line2d_4">
      <g>
       <use style="stroke:#000000;stroke-width:0.8;" x="195.069638" xlink:href="#m3adfec2471" y="307.584"/>
      </g>
     </g>
     <g id="text_4">
      <!-- 150 -->
      <g transform="translate(185.525888 322.182437)scale(0.1 -0.1)">
       <use xlink:href="#DejaVuSans-31"/>
       <use x="63.623047" xlink:href="#DejaVuSans-35"/>
       <use x="127.246094" xlink:href="#DejaVuSans-30"/>
      </g>
     </g>
    </g>
    <g id="xtick_5">
     <g id="line2d_5">
      <g>
       <use style="stroke:#000000;stroke-width:0.8;" x="235.753165" xlink:href="#m3adfec2471" y="307.584"/>
      </g>
     </g>
     <g id="text_5">
      <!-- 200 -->
      <g transform="translate(226.209415 322.182437)scale(0.1 -0.1)">
       <defs>
        <path d="M 1228 531 
L 3431 531 
L 3431 0 
L 469 0 
L 469 531 
Q 828 903 1448 1529 
Q 2069 2156 2228 2338 
Q 2531 2678 2651 2914 
Q 2772 3150 2772 3378 
Q 2772 3750 2511 3984 
Q 2250 4219 1831 4219 
Q 1534 4219 1204 4116 
Q 875 4013 500 3803 
L 500 4441 
Q 881 4594 1212 4672 
Q 1544 4750 1819 4750 
Q 2544 4750 2975 4387 
Q 3406 4025 3406 3419 
Q 3406 3131 3298 2873 
Q 3191 2616 2906 2266 
Q 2828 2175 2409 1742 
Q 1991 1309 1228 531 
z
" id="DejaVuSans-32" transform="scale(0.015625)"/>
       </defs>
       <use xlink:href="#DejaVuSans-32"/>
       <use x="63.623047" xlink:href="#DejaVuSans-30"/>
       <use x="127.246094" xlink:href="#DejaVuSans-30"/>
      </g>
     </g>
    </g>
    <g id="xtick_6">
     <g id="line2d_6">
      <g>
       <use style="stroke:#000000;stroke-width:0.8;" x="276.436692" xlink:href="#m3adfec2471" y="307.584"/>
      </g>
     </g>
     <g id="text_6">
      <!-- 250 -->
      <g transform="translate(266.892942 322.182437)scale(0.1 -0.1)">
       <use xlink:href="#DejaVuSans-32"/>
       <use x="63.623047" xlink:href="#DejaVuSans-35"/>
       <use x="127.246094" xlink:href="#DejaVuSans-30"/>
      </g>
     </g>
    </g>
    <g id="xtick_7">
     <g id="line2d_7">
      <g>
       <use style="stroke:#000000;stroke-width:0.8;" x="317.120219" xlink:href="#m3adfec2471" y="307.584"/>
      </g>
     </g>
     <g id="text_7">
      <!-- 300 -->
      <g transform="translate(307.576469 322.182437)scale(0.1 -0.1)">
       <defs>
        <path d="M 2597 2516 
Q 3050 2419 3304 2112 
Q 3559 1806 3559 1356 
Q 3559 666 3084 287 
Q 2609 -91 1734 -91 
Q 1441 -91 1130 -33 
Q 819 25 488 141 
L 488 750 
Q 750 597 1062 519 
Q 1375 441 1716 441 
Q 2309 441 2620 675 
Q 2931 909 2931 1356 
Q 2931 1769 2642 2001 
Q 2353 2234 1838 2234 
L 1294 2234 
L 1294 2753 
L 1863 2753 
Q 2328 2753 2575 2939 
Q 2822 3125 2822 3475 
Q 2822 3834 2567 4026 
Q 2313 4219 1838 4219 
Q 1578 4219 1281 4162 
Q 984 4106 628 3988 
L 628 4550 
Q 988 4650 1302 4700 
Q 1616 4750 1894 4750 
Q 2613 4750 3031 4423 
Q 3450 4097 3450 3541 
Q 3450 3153 3228 2886 
Q 3006 2619 2597 2516 
z
" id="DejaVuSans-33" transform="scale(0.015625)"/>
       </defs>
       <use xlink:href="#DejaVuSans-33"/>
       <use x="63.623047" xlink:href="#DejaVuSans-30"/>
       <use x="127.246094" xlink:href="#DejaVuSans-30"/>
      </g>
     </g>
    </g>
    <g id="xtick_8">
     <g id="line2d_8">
      <g>
       <use style="stroke:#000000;stroke-width:0.8;" x="357.803746" xlink:href="#m3adfec2471" y="307.584"/>
      </g>
     </g>
     <g id="text_8">
      <!-- 350 -->
      <g transform="translate(348.259996 322.182437)scale(0.1 -0.1)">
       <use xlink:href="#DejaVuSans-33"/>
       <use x="63.623047" xlink:href="#DejaVuSans-35"/>
       <use x="127.246094" xlink:href="#DejaVuSans-30"/>
      </g>
     </g>
    </g>
    <g id="xtick_9">
     <g id="line2d_9">
      <g>
       <use style="stroke:#000000;stroke-width:0.8;" x="398.487273" xlink:href="#m3adfec2471" y="307.584"/>
      </g>
     </g>
     <g id="text_9">
      <!-- 400 -->
      <g transform="translate(388.943523 322.182437)scale(0.1 -0.1)">
       <defs>
        <path d="M 2419 4116 
L 825 1625 
L 2419 1625 
L 2419 4116 
z
M 2253 4666 
L 3047 4666 
L 3047 1625 
L 3713 1625 
L 3713 1100 
L 3047 1100 
L 3047 0 
L 2419 0 
L 2419 1100 
L 313 1100 
L 313 1709 
L 2253 4666 
z
" id="DejaVuSans-34" transform="scale(0.015625)"/>
       </defs>
       <use xlink:href="#DejaVuSans-34"/>
       <use x="63.623047" xlink:href="#DejaVuSans-30"/>
       <use x="127.246094" xlink:href="#DejaVuSans-30"/>
      </g>
     </g>
    </g>
    <g id="text_10">
     <!-- Epoch -->
     <g transform="translate(213.193594 339.659781)scale(0.15 -0.15)">
      <defs>
       <path d="M 628 4666 
L 3578 4666 
L 3578 4134 
L 1259 4134 
L 1259 2753 
L 3481 2753 
L 3481 2222 
L 1259 2222 
L 1259 531 
L 3634 531 
L 3634 0 
L 628 0 
L 628 4666 
z
" id="DejaVuSans-45" transform="scale(0.015625)"/>
       <path d="M 1159 525 
L 1159 -1331 
L 581 -1331 
L 581 3500 
L 1159 3500 
L 1159 2969 
Q 1341 3281 1617 3432 
Q 1894 3584 2278 3584 
Q 2916 3584 3314 3078 
Q 3713 2572 3713 1747 
Q 3713 922 3314 415 
Q 2916 -91 2278 -91 
Q 1894 -91 1617 61 
Q 1341 213 1159 525 
z
M 3116 1747 
Q 3116 2381 2855 2742 
Q 2594 3103 2138 3103 
Q 1681 3103 1420 2742 
Q 1159 2381 1159 1747 
Q 1159 1113 1420 752 
Q 1681 391 2138 391 
Q 2594 391 2855 752 
Q 3116 1113 3116 1747 
z
" id="DejaVuSans-70" transform="scale(0.015625)"/>
       <path d="M 1959 3097 
Q 1497 3097 1228 2736 
Q 959 2375 959 1747 
Q 959 1119 1226 758 
Q 1494 397 1959 397 
Q 2419 397 2687 759 
Q 2956 1122 2956 1747 
Q 2956 2369 2687 2733 
Q 2419 3097 1959 3097 
z
M 1959 3584 
Q 2709 3584 3137 3096 
Q 3566 2609 3566 1747 
Q 3566 888 3137 398 
Q 2709 -91 1959 -91 
Q 1206 -91 779 398 
Q 353 888 353 1747 
Q 353 2609 779 3096 
Q 1206 3584 1959 3584 
z
" id="DejaVuSans-6f" transform="scale(0.015625)"/>
       <path d="M 3122 3366 
L 3122 2828 
Q 2878 2963 2633 3030 
Q 2388 3097 2138 3097 
Q 1578 3097 1268 2742 
Q 959 2388 959 1747 
Q 959 1106 1268 751 
Q 1578 397 2138 397 
Q 2388 397 2633 464 
Q 2878 531 3122 666 
L 3122 134 
Q 2881 22 2623 -34 
Q 2366 -91 2075 -91 
Q 1284 -91 818 406 
Q 353 903 353 1747 
Q 353 2603 823 3093 
Q 1294 3584 2113 3584 
Q 2378 3584 2631 3529 
Q 2884 3475 3122 3366 
z
" id="DejaVuSans-63" transform="scale(0.015625)"/>
       <path d="M 3513 2113 
L 3513 0 
L 2938 0 
L 2938 2094 
Q 2938 2591 2744 2837 
Q 2550 3084 2163 3084 
Q 1697 3084 1428 2787 
Q 1159 2491 1159 1978 
L 1159 0 
L 581 0 
L 581 4863 
L 1159 4863 
L 1159 2956 
Q 1366 3272 1645 3428 
Q 1925 3584 2291 3584 
Q 2894 3584 3203 3211 
Q 3513 2838 3513 2113 
z
" id="DejaVuSans-68" transform="scale(0.015625)"/>
      </defs>
      <use xlink:href="#DejaVuSans-45"/>
      <use x="63.183594" xlink:href="#DejaVuSans-70"/>
      <use x="126.660156" xlink:href="#DejaVuSans-6f"/>
      <use x="187.841797" xlink:href="#DejaVuSans-63"/>
      <use x="242.822266" xlink:href="#DejaVuSans-68"/>
     </g>
    </g>
   </g>
   <g id="matplotlib.axis_2">
    <g id="ytick_1">
     <g id="line2d_10">
      <defs>
       <path d="M 0 0 
L -3.5 0 
" id="m31273aa082" style="stroke:#000000;stroke-width:0.8;"/>
      </defs>
      <g>
       <use style="stroke:#000000;stroke-width:0.8;" x="57.6" xlink:href="#m31273aa082" y="269.366731"/>
      </g>
     </g>
     <g id="text_11">
      <!-- −2000 -->
      <g transform="translate(16.770313 273.16595)scale(0.1 -0.1)">
       <defs>
        <path d="M 678 2272 
L 4684 2272 
L 4684 1741 
L 678 1741 
L 678 2272 
z
" id="DejaVuSans-2212" transform="scale(0.015625)"/>
       </defs>
       <use xlink:href="#DejaVuSans-2212"/>
       <use x="83.789062" xlink:href="#DejaVuSans-32"/>
       <use x="147.412109" xlink:href="#DejaVuSans-30"/>
       <use x="211.035156" xlink:href="#DejaVuSans-30"/>
       <use x="274.658203" xlink:href="#DejaVuSans-30"/>
      </g>
     </g>
    </g>
    <g id="ytick_2">
     <g id="line2d_11">
      <g>
       <use style="stroke:#000000;stroke-width:0.8;" x="57.6" xlink:href="#m31273aa082" y="215.417048"/>
      </g>
     </g>
     <g id="text_12">
      <!-- −1500 -->
      <g transform="translate(16.770313 219.216267)scale(0.1 -0.1)">
       <use xlink:href="#DejaVuSans-2212"/>
       <use x="83.789062" xlink:href="#DejaVuSans-31"/>
       <use x="147.412109" xlink:href="#DejaVuSans-35"/>
       <use x="211.035156" xlink:href="#DejaVuSans-30"/>
       <use x="274.658203" xlink:href="#DejaVuSans-30"/>
      </g>
     </g>
    </g>
    <g id="ytick_3">
     <g id="line2d_12">
      <g>
       <use style="stroke:#000000;stroke-width:0.8;" x="57.6" xlink:href="#m31273aa082" y="161.467365"/>
      </g>
     </g>
     <g id="text_13">
      <!-- −1000 -->
      <g transform="translate(16.770313 165.266584)scale(0.1 -0.1)">
       <use xlink:href="#DejaVuSans-2212"/>
       <use x="83.789062" xlink:href="#DejaVuSans-31"/>
       <use x="147.412109" xlink:href="#DejaVuSans-30"/>
       <use x="211.035156" xlink:href="#DejaVuSans-30"/>
       <use x="274.658203" xlink:href="#DejaVuSans-30"/>
      </g>
     </g>
    </g>
    <g id="ytick_4">
     <g id="line2d_13">
      <g>
       <use style="stroke:#000000;stroke-width:0.8;" x="57.6" xlink:href="#m31273aa082" y="107.517683"/>
      </g>
     </g>
     <g id="text_14">
      <!-- −500 -->
      <g transform="translate(23.132812 111.316901)scale(0.1 -0.1)">
       <use xlink:href="#DejaVuSans-2212"/>
       <use x="83.789062" xlink:href="#DejaVuSans-35"/>
       <use x="147.412109" xlink:href="#DejaVuSans-30"/>
       <use x="211.035156" xlink:href="#DejaVuSans-30"/>
      </g>
     </g>
    </g>
    <g id="ytick_5">
     <g id="line2d_14">
      <g>
       <use style="stroke:#000000;stroke-width:0.8;" x="57.6" xlink:href="#m31273aa082" y="53.568"/>
      </g>
     </g>
     <g id="text_15">
      <!-- 0 -->
      <g transform="translate(44.2375 57.367219)scale(0.1 -0.1)">
       <use xlink:href="#DejaVuSans-30"/>
      </g>
     </g>
    </g>
    <g id="text_16">
     <!-- Loss -->
     <g transform="translate(9.650781 190.978781)rotate(-90)scale(0.15 -0.15)">
      <defs>
       <path d="M 628 4666 
L 1259 4666 
L 1259 531 
L 3531 531 
L 3531 0 
L 628 0 
L 628 4666 
z
" id="DejaVuSans-4c" transform="scale(0.015625)"/>
       <path d="M 2834 3397 
L 2834 2853 
Q 2591 2978 2328 3040 
Q 2066 3103 1784 3103 
Q 1356 3103 1142 2972 
Q 928 2841 928 2578 
Q 928 2378 1081 2264 
Q 1234 2150 1697 2047 
L 1894 2003 
Q 2506 1872 2764 1633 
Q 3022 1394 3022 966 
Q 3022 478 2636 193 
Q 2250 -91 1575 -91 
Q 1294 -91 989 -36 
Q 684 19 347 128 
L 347 722 
Q 666 556 975 473 
Q 1284 391 1588 391 
Q 1994 391 2212 530 
Q 2431 669 2431 922 
Q 2431 1156 2273 1281 
Q 2116 1406 1581 1522 
L 1381 1569 
Q 847 1681 609 1914 
Q 372 2147 372 2553 
Q 372 3047 722 3315 
Q 1072 3584 1716 3584 
Q 2034 3584 2315 3537 
Q 2597 3491 2834 3397 
z
" id="DejaVuSans-73" transform="scale(0.015625)"/>
      </defs>
      <use xlink:href="#DejaVuSans-4c"/>
      <use x="53.962891" xlink:href="#DejaVuSans-6f"/>
      <use x="115.144531" xlink:href="#DejaVuSans-73"/>
      <use x="167.244141" xlink:href="#DejaVuSans-73"/>
     </g>
    </g>
   </g>
   <g id="line2d_15">
    <path clip-path="url(#pe308856126)" d="M 73.832727 54.668043 
L 74.646398 78.112295 
L 75.460068 88.717553 
L 76.273739 88.648296 
L 77.087409 95.18826 
L 77.90108 96.955674 
L 78.714751 101.991224 
L 79.528421 101.966702 
L 80.342092 111.719354 
L 81.969433 110.960335 
L 82.783103 116.048852 
L 83.596774 116.820833 
L 84.410444 119.049825 
L 85.224115 118.543918 
L 86.037785 123.621594 
L 86.851456 121.912528 
L 87.665126 126.576696 
L 88.478797 124.783708 
L 89.292468 123.851334 
L 90.106138 130.568129 
L 90.919809 122.109669 
L 91.733479 132.134588 
L 92.54715 130.157112 
L 93.36082 131.258259 
L 94.174491 131.026011 
L 94.988161 133.644115 
L 95.801832 130.746788 
L 96.615502 133.808954 
L 97.429173 138.672759 
L 98.242843 138.16297 
L 99.056514 138.115342 
L 99.870185 132.756914 
L 100.683855 131.08402 
L 101.497526 143.326496 
L 102.311196 132.727505 
L 103.124867 137.799045 
L 103.938537 137.406471 
L 104.752208 139.973119 
L 105.565878 139.457629 
L 106.379549 138.101552 
L 107.193219 134.695809 
L 108.82056 142.009186 
L 109.634231 139.63121 
L 110.447902 136.415038 
L 111.261572 141.100702 
L 112.075243 142.610658 
L 112.888913 142.436935 
L 113.702584 143.176224 
L 114.516254 138.106523 
L 115.329925 139.035354 
L 116.957266 144.138295 
L 117.770936 147.873874 
L 118.584607 145.297557 
L 119.398278 147.601249 
L 120.211948 145.062729 
L 121.025619 140.918298 
L 121.839289 145.423519 
L 122.65296 142.186632 
L 123.46663 137.895993 
L 124.280301 145.598297 
L 125.093971 141.88549 
L 125.907642 141.183285 
L 126.721312 142.206744 
L 127.534983 139.530202 
L 128.348653 145.409819 
L 129.162324 143.4125 
L 129.975995 149.139817 
L 130.789665 143.835618 
L 131.603336 145.008783 
L 132.417006 140.742882 
L 133.230677 145.49505 
L 134.044347 147.29171 
L 134.858018 143.278576 
L 135.671688 142.960587 
L 136.485359 148.648332 
L 137.299029 144.084396 
L 138.1127 144.261733 
L 138.92637 145.324291 
L 139.740041 146.844733 
L 140.553712 143.304775 
L 141.367382 145.495252 
L 142.181053 152.324778 
L 142.994723 145.28482 
L 143.808394 145.636832 
L 144.622064 147.951755 
L 145.435735 143.197144 
L 146.249405 145.68049 
L 147.063076 144.226031 
L 147.876746 145.601768 
L 149.504087 145.64889 
L 150.317758 144.26635 
L 151.131429 148.409481 
L 151.945099 147.688455 
L 152.75877 144.850078 
L 153.57244 149.151268 
L 154.386111 148.676174 
L 155.199781 144.595181 
L 156.827122 146.864483 
L 157.640793 145.054538 
L 158.454463 147.954971 
L 159.268134 153.491066 
L 160.081805 144.85582 
L 160.895475 151.907168 
L 161.709146 148.60036 
L 162.522816 151.356303 
L 163.336487 149.271353 
L 164.150157 146.561228 
L 164.963828 146.995609 
L 166.591169 152.51924 
L 168.21851 150.289663 
L 169.03218 148.787561 
L 169.845851 151.91088 
L 170.659522 146.872892 
L 171.473192 149.868168 
L 172.286863 149.039408 
L 173.100533 152.41878 
L 173.914204 150.926267 
L 174.727874 151.843316 
L 175.541545 150.162431 
L 176.355215 147.856935 
L 177.168886 149.58784 
L 177.982556 147.308904 
L 178.796227 151.499966 
L 179.609897 148.679502 
L 180.423568 152.828713 
L 181.237239 146.539132 
L 182.050909 156.937215 
L 182.86458 149.593792 
L 183.67825 147.193534 
L 184.491921 150.426028 
L 185.305591 145.573575 
L 186.119262 153.566084 
L 186.932932 154.678878 
L 187.746603 153.544835 
L 188.560273 155.121233 
L 190.187614 150.924893 
L 191.001285 152.31129 
L 191.814956 147.153582 
L 192.628626 151.467187 
L 193.442297 153.697647 
L 194.255967 151.163703 
L 195.069638 146.438156 
L 195.883308 156.635895 
L 196.696979 150.556537 
L 197.510649 154.647308 
L 198.32432 153.332734 
L 199.13799 149.51398 
L 199.951661 152.794504 
L 200.765332 152.579336 
L 201.579002 152.01862 
L 202.392673 148.824458 
L 204.020014 155.935181 
L 204.833684 153.531297 
L 205.647355 153.436051 
L 207.274696 149.155053 
L 208.088366 152.432361 
L 208.902037 153.127708 
L 209.715707 151.238214 
L 210.529378 154.32562 
L 211.343049 147.073626 
L 212.156719 155.565991 
L 212.97039 149.914401 
L 213.78406 154.338699 
L 214.597731 155.240417 
L 215.411401 153.34242 
L 216.225072 153.640867 
L 217.038742 156.1391 
L 217.852413 153.036596 
L 218.666083 152.717565 
L 219.479754 151.070105 
L 220.293424 150.403244 
L 221.107095 155.153734 
L 221.920766 152.291873 
L 222.734436 156.417749 
L 223.548107 151.089135 
L 224.361777 151.276374 
L 225.175448 154.141907 
L 225.989118 152.776451 
L 226.802789 155.06465 
L 227.616459 155.690981 
L 228.43013 154.392764 
L 229.2438 148.493332 
L 230.057471 154.201623 
L 230.871141 156.590396 
L 231.684812 152.120462 
L 232.498483 156.929296 
L 234.125824 154.691769 
L 234.939494 154.774163 
L 235.753165 152.616819 
L 236.566835 154.087689 
L 237.380506 153.841312 
L 238.194176 154.061771 
L 239.007847 155.03689 
L 239.821517 154.57153 
L 240.635188 152.991237 
L 241.448859 150.185021 
L 242.262529 156.344689 
L 243.0762 151.661815 
L 243.88987 157.57086 
L 244.703541 159.342408 
L 245.517211 152.406357 
L 246.330882 153.963274 
L 247.144552 153.167294 
L 247.958223 155.780185 
L 248.771893 156.486629 
L 249.585564 154.253747 
L 250.399234 144.675028 
L 251.212905 154.688836 
L 252.026576 152.592662 
L 252.840246 146.884803 
L 253.653917 156.39556 
L 254.467587 159.286412 
L 255.281258 152.996949 
L 256.094928 149.502708 
L 256.908599 156.369998 
L 257.722269 156.411048 
L 258.53594 157.728457 
L 259.34961 154.5703 
L 260.163281 153.377 
L 260.976951 155.005586 
L 261.790622 154.170053 
L 262.604293 154.9764 
L 263.417963 154.494104 
L 264.231634 159.236896 
L 265.045304 156.23629 
L 265.858975 154.025232 
L 266.672645 161.621161 
L 267.486316 152.430503 
L 268.299986 158.79311 
L 269.113657 158.39304 
L 269.927327 160.815375 
L 270.740998 157.671266 
L 271.554668 151.056046 
L 272.368339 156.204962 
L 273.18201 153.98027 
L 273.99568 150.522709 
L 274.809351 155.823254 
L 275.623021 156.515074 
L 276.436692 154.720732 
L 277.250362 152.520128 
L 278.064033 159.469284 
L 278.877703 156.775996 
L 279.691374 150.633969 
L 280.505044 156.643836 
L 282.132386 154.641161 
L 282.946056 157.878677 
L 283.759727 152.729822 
L 284.573397 157.848596 
L 285.387068 155.219642 
L 286.200738 158.32715 
L 287.014409 159.589298 
L 287.828079 156.111633 
L 288.64175 154.589873 
L 289.45542 155.053393 
L 290.269091 157.210155 
L 291.082761 157.718641 
L 291.896432 162.88849 
L 292.710103 155.82992 
L 293.523773 157.12528 
L 294.337444 155.448871 
L 295.151114 158.962056 
L 295.964785 159.79329 
L 296.778455 154.257211 
L 297.592126 151.336744 
L 298.405796 155.958241 
L 299.219467 158.226632 
L 300.033137 154.222041 
L 301.660478 155.363674 
L 302.474149 156.778302 
L 304.10149 154.367602 
L 304.915161 154.4688 
L 305.728831 154.099007 
L 306.542502 153.523737 
L 307.356172 157.868064 
L 308.169843 150.925501 
L 308.983513 154.728643 
L 309.797184 155.219122 
L 310.610854 162.675359 
L 311.424525 158.36339 
L 312.238195 160.597662 
L 313.051866 158.968226 
L 313.865537 156.804214 
L 314.679207 158.339505 
L 315.492878 160.195243 
L 316.306548 150.230384 
L 317.120219 158.157316 
L 317.933889 154.795799 
L 318.74756 160.835255 
L 319.56123 162.029264 
L 320.374901 159.489006 
L 321.188571 152.639821 
L 322.002242 156.377789 
L 322.815913 160.797103 
L 323.629583 155.678184 
L 324.443254 153.845072 
L 325.256924 157.507419 
L 326.070595 156.242697 
L 326.884265 163.832733 
L 327.697936 157.831681 
L 328.511606 155.877573 
L 329.325277 158.085617 
L 330.138947 160.78566 
L 330.952618 158.462674 
L 331.766288 155.300961 
L 332.579959 156.323858 
L 333.39363 163.829396 
L 334.2073 157.325731 
L 335.020971 160.425762 
L 335.834641 158.777728 
L 336.648312 157.408856 
L 337.461982 162.330312 
L 338.275653 155.297671 
L 339.089323 158.655459 
L 339.902994 152.38452 
L 340.716664 159.514819 
L 341.530335 151.501556 
L 342.344005 158.537179 
L 343.157676 158.227384 
L 343.971347 158.840538 
L 344.785017 153.88121 
L 345.598688 159.009175 
L 346.412358 159.513521 
L 347.226029 156.020886 
L 348.039699 158.039055 
L 348.85337 154.306298 
L 349.66704 156.737694 
L 350.480711 160.285922 
L 351.294381 156.734345 
L 352.108052 155.843303 
L 352.921722 160.494052 
L 353.735393 157.429537 
L 354.549064 164.763294 
L 355.362734 156.974235 
L 356.176405 161.854881 
L 356.990075 164.661748 
L 357.803746 156.449661 
L 358.617416 156.100248 
L 359.431087 159.452989 
L 360.244757 157.974916 
L 361.058428 159.809851 
L 361.872098 163.681574 
L 362.685769 163.23211 
L 363.49944 162.344092 
L 364.31311 160.42911 
L 365.126781 154.08529 
L 365.940451 158.956223 
L 366.754122 159.683314 
L 367.567792 160.921224 
L 368.381463 157.956999 
L 369.195133 158.518391 
L 370.008804 159.345876 
L 370.822474 159.06137 
L 371.636145 162.518473 
L 372.449815 164.180219 
L 373.263486 153.475838 
L 374.077157 164.94646 
L 374.890827 161.41025 
L 375.704498 159.191216 
L 376.518168 154.966292 
L 377.331839 162.447326 
L 378.145509 160.392162 
L 378.95918 158.647566 
L 379.77285 161.600256 
L 381.400191 160.593082 
L 382.213862 157.521861 
L 383.027532 159.399452 
L 383.841203 162.490434 
L 384.654874 162.764657 
L 385.468544 160.566772 
L 386.282215 162.999436 
L 387.095885 163.075372 
L 387.909556 158.426578 
L 388.723226 161.51843 
L 389.536897 161.05974 
L 390.350567 159.80537 
L 391.164238 161.499995 
L 391.977908 165.008044 
L 392.791579 164.260584 
L 393.605249 161.225228 
L 394.41892 160.50774 
L 395.232591 163.096344 
L 396.046261 162.830978 
L 396.859932 160.859579 
L 397.673602 162.03701 
L 398.487273 160.691415 
L 398.487273 160.691415 
" style="fill:none;stroke:#1f77b4;stroke-linecap:square;stroke-width:1.5;"/>
   </g>
   <g id="line2d_16">
    <path clip-path="url(#pe308856126)" d="M 73.832727 100.432619 
L 74.646398 80.659032 
L 75.460068 85.911015 
L 76.273739 130.447168 
L 77.087409 122.281468 
L 77.90108 132.327822 
L 78.714751 124.232351 
L 79.528421 114.089866 
L 80.342092 110.0373 
L 81.155762 148.607014 
L 81.969433 149.911482 
L 82.783103 106.062404 
L 83.596774 108.892066 
L 84.410444 130.902332 
L 85.224115 53.568 
L 86.037785 136.07744 
L 86.851456 174.57269 
L 87.665126 118.65766 
L 88.478797 183.848141 
L 89.292468 100.450505 
L 90.106138 188.546308 
L 90.919809 130.372269 
L 91.733479 168.938517 
L 92.54715 180.222915 
L 93.36082 172.878515 
L 94.174491 211.533771 
L 94.988161 70.33011 
L 95.801832 111.386429 
L 96.615502 98.83207 
L 97.429173 88.785484 
L 98.242843 140.98201 
L 99.056514 142.982451 
L 99.870185 93.185701 
L 100.683855 142.284608 
L 101.497526 217.734079 
L 102.311196 57.401176 
L 103.124867 143.042535 
L 103.938537 148.83915 
L 104.752208 145.560687 
L 105.565878 53.568 
L 106.379549 89.925189 
L 107.193219 148.477223 
L 108.00689 187.45699 
L 109.634231 104.572979 
L 110.447902 127.635714 
L 111.261572 174.426247 
L 112.075243 150.651151 
L 112.888913 103.472222 
L 113.702584 230.231274 
L 114.516254 77.602553 
L 115.329925 171.079367 
L 116.143595 146.688977 
L 116.957266 78.753563 
L 117.770936 65.880639 
L 118.584607 181.882305 
L 119.398278 149.204105 
L 120.211948 86.104702 
L 121.025619 192.898544 
L 121.839289 150.805154 
L 122.65296 153.45594 
L 123.46663 102.620796 
L 124.280301 104.879756 
L 125.093971 194.379675 
L 125.907642 177.479406 
L 126.721312 156.880973 
L 127.534983 128.439294 
L 128.348653 57.349396 
L 129.162324 205.400187 
L 129.975995 153.676008 
L 130.789665 62.539632 
L 131.603336 53.568 
L 132.417006 144.090003 
L 133.230677 161.50517 
L 134.044347 155.472086 
L 134.858018 159.678169 
L 135.671688 153.517206 
L 136.485359 153.598432 
L 137.299029 157.666752 
L 138.1127 251.462631 
L 138.92637 249.218064 
L 139.740041 78.888197 
L 140.553712 209.904935 
L 141.367382 151.643906 
L 142.181053 154.218664 
L 142.994723 159.872942 
L 143.808394 128.458764 
L 144.622064 158.099641 
L 145.435735 154.848765 
L 146.249405 129.768658 
L 147.063076 155.199182 
L 147.876746 236.757934 
L 148.690417 131.996491 
L 149.504087 207.290815 
L 150.317758 66.444677 
L 151.131429 199.730291 
L 151.945099 54.094146 
L 152.75877 121.72339 
L 153.57244 161.61821 
L 154.386111 155.429356 
L 155.199781 155.751142 
L 156.827122 107.370662 
L 157.640793 79.637459 
L 158.454463 159.250104 
L 159.268134 222.888092 
L 160.081805 157.122068 
L 160.895475 236.257214 
L 161.709146 66.803645 
L 162.522816 159.210933 
L 163.336487 141.435687 
L 164.150157 169.353975 
L 164.963828 219.311494 
L 165.777498 133.375623 
L 166.591169 222.717988 
L 167.404839 160.524858 
L 168.21851 157.985132 
L 169.03218 228.368806 
L 170.659522 80.128047 
L 171.473192 159.045964 
L 172.286863 76.947492 
L 173.100533 53.568 
L 174.727874 165.564272 
L 175.541545 53.568 
L 176.355215 105.423681 
L 177.168886 80.102511 
L 177.982556 134.201452 
L 178.796227 80.188333 
L 179.609897 53.568 
L 180.423568 224.220078 
L 182.050909 160.778776 
L 182.86458 236.146797 
L 183.67825 239.68765 
L 184.491921 260.720403 
L 185.305591 162.785269 
L 186.119262 80.366035 
L 186.932932 208.219372 
L 187.746603 106.710146 
L 188.560273 133.084873 
L 189.373944 80.452924 
L 190.187614 161.750654 
L 191.001285 161.53638 
L 191.814956 119.547625 
L 192.628626 160.969201 
L 193.442297 187.804504 
L 194.255967 107.85795 
L 195.069638 216.655744 
L 195.883308 149.196912 
L 196.696979 161.981717 
L 197.510649 161.582426 
L 198.32432 66.687058 
L 199.13799 158.767043 
L 199.951661 156.987678 
L 200.765332 163.593552 
L 202.392673 248.779577 
L 203.206343 121.630202 
L 204.020014 187.802892 
L 204.833684 104.293445 
L 205.647355 241.798053 
L 206.461025 212.780722 
L 207.274696 200.474372 
L 208.088366 53.568 
L 208.902037 160.757867 
L 210.529378 80.018379 
L 211.343049 66.719766 
L 212.97039 171.45867 
L 213.78406 133.379437 
L 214.597731 160.924717 
L 215.411401 136.021958 
L 216.225072 190.865656 
L 217.038742 165.816777 
L 217.852413 105.632395 
L 218.666083 218.087749 
L 219.479754 120.758169 
L 220.293424 200.605325 
L 221.107095 192.277903 
L 221.920766 80.624225 
L 222.734436 162.924801 
L 223.548107 80.698966 
L 224.361777 184.715459 
L 225.175448 175.273931 
L 225.989118 152.783597 
L 226.802789 256.656495 
L 227.616459 203.600037 
L 228.43013 218.118471 
L 229.2438 131.845292 
L 230.057471 93.619771 
L 230.871141 190.50155 
L 231.684812 262.018454 
L 233.312153 108.212377 
L 234.125824 105.08459 
L 234.939494 252.257254 
L 235.753165 161.797144 
L 236.566835 159.833592 
L 237.380506 78.206767 
L 238.194176 150.779349 
L 239.007847 247.304115 
L 239.821517 97.149672 
L 240.635188 164.231796 
L 241.448859 53.568 
L 242.262529 161.09876 
L 243.0762 237.835624 
L 243.88987 165.238944 
L 244.703541 121.10567 
L 245.517211 164.938926 
L 246.330882 166.009471 
L 247.144552 162.905814 
L 247.958223 165.970306 
L 248.771893 108.918172 
L 249.585564 115.317604 
L 250.399234 73.694752 
L 251.212905 165.018944 
L 252.026576 191.959678 
L 252.840246 80.61613 
L 253.653917 195.311188 
L 254.467587 164.164433 
L 255.281258 248.52213 
L 256.094928 190.911188 
L 256.908599 164.829446 
L 257.722269 109.323979 
L 258.53594 134.895576 
L 259.34961 231.919717 
L 260.163281 219.632481 
L 260.976951 224.632829 
L 261.790622 163.078971 
L 262.604293 81.556315 
L 263.417963 261.826501 
L 264.231634 165.718866 
L 265.045304 159.836108 
L 265.858975 181.625957 
L 266.672645 166.822486 
L 267.486316 163.421939 
L 268.299986 162.952837 
L 269.113657 164.944997 
L 269.927327 260.592992 
L 270.740998 258.61766 
L 271.554668 208.362523 
L 272.368339 183.55295 
L 273.18201 162.902901 
L 273.99568 247.6471 
L 274.809351 215.576776 
L 275.623021 163.70742 
L 276.436692 221.307428 
L 277.250362 64.694282 
L 278.064033 107.280476 
L 279.691374 225.197257 
L 280.505044 123.460912 
L 282.132386 262.756863 
L 282.946056 232.802286 
L 283.759727 164.515871 
L 284.573397 196.614496 
L 285.387068 81.029763 
L 286.200738 243.944921 
L 287.014409 136.398918 
L 287.828079 150.86697 
L 288.64175 138.175544 
L 289.45542 123.612621 
L 290.269091 206.9456 
L 291.082761 188.708548 
L 291.896432 266.7421 
L 292.710103 268.645777 
L 293.523773 153.131759 
L 294.337444 109.961252 
L 295.151114 236.40403 
L 295.964785 166.142072 
L 296.778455 162.271202 
L 297.592126 253.414547 
L 298.405796 222.171756 
L 299.219467 222.861198 
L 300.033137 268.820001 
L 300.846808 81.552927 
L 301.660478 247.451249 
L 302.474149 225.505317 
L 303.28782 248.569931 
L 304.10149 224.301647 
L 304.915161 163.523353 
L 305.728831 165.929625 
L 306.542502 167.245206 
L 307.356172 219.236179 
L 308.169843 167.35141 
L 308.983513 249.99415 
L 309.797184 163.357598 
L 310.610854 97.655299 
L 311.424525 134.507201 
L 312.238195 163.649904 
L 313.051866 164.145374 
L 313.865537 194.992109 
L 314.679207 214.390086 
L 315.492878 166.411721 
L 316.306548 82.583367 
L 317.120219 164.051317 
L 317.933889 136.918555 
L 318.74756 161.71073 
L 319.56123 195.751256 
L 320.374901 194.10229 
L 321.188571 110.961315 
L 322.002242 166.196426 
L 322.815913 245.260896 
L 323.629583 109.918389 
L 324.443254 67.76807 
L 325.256924 224.027983 
L 326.070595 165.252533 
L 326.884265 123.356638 
L 327.697936 272.523865 
L 328.511606 165.094879 
L 329.325277 182.816728 
L 330.138947 226.347537 
L 330.952618 164.739885 
L 331.766288 125.596057 
L 332.579959 192.157226 
L 333.39363 203.175142 
L 334.2073 81.290605 
L 335.020971 251.698577 
L 335.834641 107.184689 
L 336.648312 163.173126 
L 337.461982 239.929387 
L 338.275653 89.979386 
L 339.089323 53.568 
L 339.902994 68.067958 
L 340.716664 234.893617 
L 341.530335 195.266432 
L 342.344005 165.898106 
L 343.157676 167.691589 
L 343.971347 95.562144 
L 344.785017 167.658479 
L 345.598688 81.040194 
L 346.412358 112.351781 
L 347.226029 53.568 
L 348.039699 168.511764 
L 348.85337 53.568 
L 349.66704 80.729767 
L 350.480711 239.267098 
L 351.294381 134.77667 
L 352.108052 81.484432 
L 352.921722 166.473524 
L 353.735393 164.849107 
L 354.549064 239.322259 
L 355.362734 138.810054 
L 356.176405 110.494124 
L 356.990075 183.735472 
L 357.803746 165.830493 
L 358.617416 136.203963 
L 359.431087 257.21676 
L 360.244757 246.03103 
L 361.058428 167.599713 
L 361.872098 168.032326 
L 362.685769 139.162797 
L 363.49944 170.169054 
L 364.31311 123.341867 
L 365.126781 178.921035 
L 365.940451 109.086863 
L 366.754122 166.169575 
L 367.567792 170.344164 
L 368.381463 87.20541 
L 369.195133 207.423002 
L 370.008804 82.178724 
L 370.822474 53.568 
L 372.449815 112.394209 
L 373.263486 288.012454 
L 374.077157 225.985807 
L 374.890827 53.568 
L 375.704498 231.676036 
L 376.518168 231.589407 
L 377.331839 168.163792 
L 378.145509 193.625103 
L 378.95918 225.870078 
L 379.77285 180.242657 
L 380.586521 84.247503 
L 381.400191 254.268103 
L 382.213862 141.206672 
L 383.027532 171.575347 
L 383.841203 53.568 
L 384.654874 110.927254 
L 386.282215 167.361871 
L 387.095885 109.878641 
L 387.909556 170.526855 
L 388.723226 171.552166 
L 389.536897 174.231935 
L 390.350567 260.411708 
L 391.164238 98.027302 
L 391.977908 169.036179 
L 392.791579 257.558599 
L 394.41892 143.066101 
L 395.232591 204.705829 
L 396.046261 295.488 
L 396.859932 232.888136 
L 397.673602 225.984123 
L 398.487273 173.842238 
L 398.487273 173.842238 
" style="fill:none;stroke:#ff7f0e;stroke-linecap:square;stroke-width:1.5;"/>
   </g>
   <g id="patch_3">
    <path d="M 57.6 307.584 
L 57.6 41.472 
" style="fill:none;stroke:#000000;stroke-linecap:square;stroke-linejoin:miter;stroke-width:0.8;"/>
   </g>
   <g id="patch_4">
    <path d="M 414.72 307.584 
L 414.72 41.472 
" style="fill:none;stroke:#000000;stroke-linecap:square;stroke-linejoin:miter;stroke-width:0.8;"/>
   </g>
   <g id="patch_5">
    <path d="M 57.6 307.584 
L 414.72 307.584 
" style="fill:none;stroke:#000000;stroke-linecap:square;stroke-linejoin:miter;stroke-width:0.8;"/>
   </g>
   <g id="patch_6">
    <path d="M 57.6 41.472 
L 414.72 41.472 
" style="fill:none;stroke:#000000;stroke-linecap:square;stroke-linejoin:miter;stroke-width:0.8;"/>
   </g>
   <g id="legend_1">
    <g id="patch_7">
     <path d="M 64.6 302.584 
L 168.475 302.584 
Q 170.475 302.584 170.475 300.584 
L 170.475 272.22775 
Q 170.475 270.22775 168.475 270.22775 
L 64.6 270.22775 
Q 62.6 270.22775 62.6 272.22775 
L 62.6 300.584 
Q 62.6 302.584 64.6 302.584 
z
" style="fill:#ffffff;opacity:0.8;stroke:#cccccc;stroke-linejoin:miter;"/>
    </g>
    <g id="line2d_17">
     <path d="M 66.6 278.326187 
L 86.6 278.326187 
" style="fill:none;stroke:#1f77b4;stroke-linecap:square;stroke-width:1.5;"/>
    </g>
    <g id="line2d_18"/>
    <g id="text_17">
     <!-- Train loss -->
     <g transform="translate(94.6 281.826187)scale(0.1 -0.1)">
      <defs>
       <path d="M -19 4666 
L 3928 4666 
L 3928 4134 
L 2272 4134 
L 2272 0 
L 1638 0 
L 1638 4134 
L -19 4134 
L -19 4666 
z
" id="DejaVuSans-54" transform="scale(0.015625)"/>
       <path d="M 2631 2963 
Q 2534 3019 2420 3045 
Q 2306 3072 2169 3072 
Q 1681 3072 1420 2755 
Q 1159 2438 1159 1844 
L 1159 0 
L 581 0 
L 581 3500 
L 1159 3500 
L 1159 2956 
Q 1341 3275 1631 3429 
Q 1922 3584 2338 3584 
Q 2397 3584 2469 3576 
Q 2541 3569 2628 3553 
L 2631 2963 
z
" id="DejaVuSans-72" transform="scale(0.015625)"/>
       <path d="M 2194 1759 
Q 1497 1759 1228 1600 
Q 959 1441 959 1056 
Q 959 750 1161 570 
Q 1363 391 1709 391 
Q 2188 391 2477 730 
Q 2766 1069 2766 1631 
L 2766 1759 
L 2194 1759 
z
M 3341 1997 
L 3341 0 
L 2766 0 
L 2766 531 
Q 2569 213 2275 61 
Q 1981 -91 1556 -91 
Q 1019 -91 701 211 
Q 384 513 384 1019 
Q 384 1609 779 1909 
Q 1175 2209 1959 2209 
L 2766 2209 
L 2766 2266 
Q 2766 2663 2505 2880 
Q 2244 3097 1772 3097 
Q 1472 3097 1187 3025 
Q 903 2953 641 2809 
L 641 3341 
Q 956 3463 1253 3523 
Q 1550 3584 1831 3584 
Q 2591 3584 2966 3190 
Q 3341 2797 3341 1997 
z
" id="DejaVuSans-61" transform="scale(0.015625)"/>
       <path d="M 603 3500 
L 1178 3500 
L 1178 0 
L 603 0 
L 603 3500 
z
M 603 4863 
L 1178 4863 
L 1178 4134 
L 603 4134 
L 603 4863 
z
" id="DejaVuSans-69" transform="scale(0.015625)"/>
       <path d="M 3513 2113 
L 3513 0 
L 2938 0 
L 2938 2094 
Q 2938 2591 2744 2837 
Q 2550 3084 2163 3084 
Q 1697 3084 1428 2787 
Q 1159 2491 1159 1978 
L 1159 0 
L 581 0 
L 581 3500 
L 1159 3500 
L 1159 2956 
Q 1366 3272 1645 3428 
Q 1925 3584 2291 3584 
Q 2894 3584 3203 3211 
Q 3513 2838 3513 2113 
z
" id="DejaVuSans-6e" transform="scale(0.015625)"/>
       <path id="DejaVuSans-20" transform="scale(0.015625)"/>
       <path d="M 603 4863 
L 1178 4863 
L 1178 0 
L 603 0 
L 603 4863 
z
" id="DejaVuSans-6c" transform="scale(0.015625)"/>
      </defs>
      <use xlink:href="#DejaVuSans-54"/>
      <use x="46.333984" xlink:href="#DejaVuSans-72"/>
      <use x="87.447266" xlink:href="#DejaVuSans-61"/>
      <use x="148.726562" xlink:href="#DejaVuSans-69"/>
      <use x="176.509766" xlink:href="#DejaVuSans-6e"/>
      <use x="239.888672" xlink:href="#DejaVuSans-20"/>
      <use x="271.675781" xlink:href="#DejaVuSans-6c"/>
      <use x="299.458984" xlink:href="#DejaVuSans-6f"/>
      <use x="360.640625" xlink:href="#DejaVuSans-73"/>
      <use x="412.740234" xlink:href="#DejaVuSans-73"/>
     </g>
    </g>
    <g id="line2d_19">
     <path d="M 66.6 293.004312 
L 86.6 293.004312 
" style="fill:none;stroke:#ff7f0e;stroke-linecap:square;stroke-width:1.5;"/>
    </g>
    <g id="line2d_20"/>
    <g id="text_18">
     <!-- Validation loss -->
     <g transform="translate(94.6 296.504312)scale(0.1 -0.1)">
      <defs>
       <path d="M 1831 0 
L 50 4666 
L 709 4666 
L 2188 738 
L 3669 4666 
L 4325 4666 
L 2547 0 
L 1831 0 
z
" id="DejaVuSans-56" transform="scale(0.015625)"/>
       <path d="M 2906 2969 
L 2906 4863 
L 3481 4863 
L 3481 0 
L 2906 0 
L 2906 525 
Q 2725 213 2448 61 
Q 2172 -91 1784 -91 
Q 1150 -91 751 415 
Q 353 922 353 1747 
Q 353 2572 751 3078 
Q 1150 3584 1784 3584 
Q 2172 3584 2448 3432 
Q 2725 3281 2906 2969 
z
M 947 1747 
Q 947 1113 1208 752 
Q 1469 391 1925 391 
Q 2381 391 2643 752 
Q 2906 1113 2906 1747 
Q 2906 2381 2643 2742 
Q 2381 3103 1925 3103 
Q 1469 3103 1208 2742 
Q 947 2381 947 1747 
z
" id="DejaVuSans-64" transform="scale(0.015625)"/>
       <path d="M 1172 4494 
L 1172 3500 
L 2356 3500 
L 2356 3053 
L 1172 3053 
L 1172 1153 
Q 1172 725 1289 603 
Q 1406 481 1766 481 
L 2356 481 
L 2356 0 
L 1766 0 
Q 1100 0 847 248 
Q 594 497 594 1153 
L 594 3053 
L 172 3053 
L 172 3500 
L 594 3500 
L 594 4494 
L 1172 4494 
z
" id="DejaVuSans-74" transform="scale(0.015625)"/>
      </defs>
      <use xlink:href="#DejaVuSans-56"/>
      <use x="60.658203" xlink:href="#DejaVuSans-61"/>
      <use x="121.9375" xlink:href="#DejaVuSans-6c"/>
      <use x="149.720703" xlink:href="#DejaVuSans-69"/>
      <use x="177.503906" xlink:href="#DejaVuSans-64"/>
      <use x="240.980469" xlink:href="#DejaVuSans-61"/>
      <use x="302.259766" xlink:href="#DejaVuSans-74"/>
      <use x="341.46875" xlink:href="#DejaVuSans-69"/>
      <use x="369.251953" xlink:href="#DejaVuSans-6f"/>
      <use x="430.433594" xlink:href="#DejaVuSans-6e"/>
      <use x="493.8125" xlink:href="#DejaVuSans-20"/>
      <use x="525.599609" xlink:href="#DejaVuSans-6c"/>
      <use x="553.382812" xlink:href="#DejaVuSans-6f"/>
      <use x="614.564453" xlink:href="#DejaVuSans-73"/>
      <use x="666.664062" xlink:href="#DejaVuSans-73"/>
     </g>
    </g>
   </g>
  </g>
 </g>
 <defs>
  <clipPath id="pe308856126">
   <rect height="266.112" width="357.12" x="57.6" y="41.472"/>
  </clipPath>
 </defs>
</svg>
