<?xml version="1.0" encoding="utf-8" standalone="no"?>
<!DOCTYPE svg PUBLIC "-//W3C//DTD SVG 1.1//EN"
  "http://www.w3.org/Graphics/SVG/1.1/DTD/svg11.dtd">
<svg height="345.6pt" version="1.1" viewBox="0 0 460.8 345.6" width="460.8pt" xmlns="http://www.w3.org/2000/svg" xmlns:xlink="http://www.w3.org/1999/xlink">
 <metadata>
  <rdf:RDF xmlns:cc="http://creativecommons.org/ns#" xmlns:dc="http://purl.org/dc/elements/1.1/" xmlns:rdf="http://www.w3.org/1999/02/22-rdf-syntax-ns#">
   <cc:Work>
    <dc:type rdf:resource="http://purl.org/dc/dcmitype/StillImage"/>
    <dc:date>2021-07-11T15:51:27.863616</dc:date>
    <dc:format>image/svg+xml</dc:format>
    <dc:creator>
     <cc:Agent>
      <dc:title>Matplotlib v3.4.2, https://matplotlib.org/</dc:title>
     </cc:Agent>
    </dc:creator>
   </cc:Work>
  </rdf:RDF>
 </metadata>
 <defs>
  <style type="text/css">*{stroke-linecap:butt;stroke-linejoin:round;}</style>
 </defs>
 <g id="figure_1">
  <g id="patch_1">
   <path d="M 0 345.6 
L 460.8 345.6 
L 460.8 0 
L 0 0 
z
" style="fill:#ffffff;"/>
  </g>
  <g id="axes_1">
   <g id="patch_2">
    <path d="M 57.6 307.584 
L 414.72 307.584 
L 414.72 41.472 
L 57.6 41.472 
z
" style="fill:#ffffff;"/>
   </g>
   <g id="matplotlib.axis_1">
    <g id="xtick_1">
     <g id="line2d_1">
      <defs>
       <path d="M 0 0 
L 0 3.5 
" id="mc871e1ebee" style="stroke:#000000;stroke-width:0.8;"/>
      </defs>
      <g>
       <use style="stroke:#000000;stroke-width:0.8;" x="73.019057" xlink:href="#mc871e1ebee" y="307.584"/>
      </g>
     </g>
     <g id="text_1">
      <!-- 0 -->
      <g transform="translate(69.837807 322.182437)scale(0.1 -0.1)">
       <defs>
        <path d="M 2034 4250 
Q 1547 4250 1301 3770 
Q 1056 3291 1056 2328 
Q 1056 1369 1301 889 
Q 1547 409 2034 409 
Q 2525 409 2770 889 
Q 3016 1369 3016 2328 
Q 3016 3291 2770 3770 
Q 2525 4250 2034 4250 
z
M 2034 4750 
Q 2819 4750 3233 4129 
Q 3647 3509 3647 2328 
Q 3647 1150 3233 529 
Q 2819 -91 2034 -91 
Q 1250 -91 836 529 
Q 422 1150 422 2328 
Q 422 3509 836 4129 
Q 1250 4750 2034 4750 
z
" id="DejaVuSans-30" transform="scale(0.015625)"/>
       </defs>
       <use xlink:href="#DejaVuSans-30"/>
      </g>
     </g>
    </g>
    <g id="xtick_2">
     <g id="line2d_2">
      <g>
       <use style="stroke:#000000;stroke-width:0.8;" x="113.702584" xlink:href="#mc871e1ebee" y="307.584"/>
      </g>
     </g>
     <g id="text_2">
      <!-- 50 -->
      <g transform="translate(107.340084 322.182437)scale(0.1 -0.1)">
       <defs>
        <path d="M 691 4666 
L 3169 4666 
L 3169 4134 
L 1269 4134 
L 1269 2991 
Q 1406 3038 1543 3061 
Q 1681 3084 1819 3084 
Q 2600 3084 3056 2656 
Q 3513 2228 3513 1497 
Q 3513 744 3044 326 
Q 2575 -91 1722 -91 
Q 1428 -91 1123 -41 
Q 819 9 494 109 
L 494 744 
Q 775 591 1075 516 
Q 1375 441 1709 441 
Q 2250 441 2565 725 
Q 2881 1009 2881 1497 
Q 2881 1984 2565 2268 
Q 2250 2553 1709 2553 
Q 1456 2553 1204 2497 
Q 953 2441 691 2322 
L 691 4666 
z
" id="DejaVuSans-35" transform="scale(0.015625)"/>
       </defs>
       <use xlink:href="#DejaVuSans-35"/>
       <use x="63.623047" xlink:href="#DejaVuSans-30"/>
      </g>
     </g>
    </g>
    <g id="xtick_3">
     <g id="line2d_3">
      <g>
       <use style="stroke:#000000;stroke-width:0.8;" x="154.386111" xlink:href="#mc871e1ebee" y="307.584"/>
      </g>
     </g>
     <g id="text_3">
      <!-- 100 -->
      <g transform="translate(144.842361 322.182437)scale(0.1 -0.1)">
       <defs>
        <path d="M 794 531 
L 1825 531 
L 1825 4091 
L 703 3866 
L 703 4441 
L 1819 4666 
L 2450 4666 
L 2450 531 
L 3481 531 
L 3481 0 
L 794 0 
L 794 531 
z
" id="DejaVuSans-31" transform="scale(0.015625)"/>
       </defs>
       <use xlink:href="#DejaVuSans-31"/>
       <use x="63.623047" xlink:href="#DejaVuSans-30"/>
       <use x="127.246094" xlink:href="#DejaVuSans-30"/>
      </g>
     </g>
    </g>
    <g id="xtick_4">
     <g id="line2d_4">
      <g>
       <use style="stroke:#000000;stroke-width:0.8;" x="195.069638" xlink:href="#mc871e1ebee" y="307.584"/>
      </g>
     </g>
     <g id="text_4">
      <!-- 150 -->
      <g transform="translate(185.525888 322.182437)scale(0.1 -0.1)">
       <use xlink:href="#DejaVuSans-31"/>
       <use x="63.623047" xlink:href="#DejaVuSans-35"/>
       <use x="127.246094" xlink:href="#DejaVuSans-30"/>
      </g>
     </g>
    </g>
    <g id="xtick_5">
     <g id="line2d_5">
      <g>
       <use style="stroke:#000000;stroke-width:0.8;" x="235.753165" xlink:href="#mc871e1ebee" y="307.584"/>
      </g>
     </g>
     <g id="text_5">
      <!-- 200 -->
      <g transform="translate(226.209415 322.182437)scale(0.1 -0.1)">
       <defs>
        <path d="M 1228 531 
L 3431 531 
L 3431 0 
L 469 0 
L 469 531 
Q 828 903 1448 1529 
Q 2069 2156 2228 2338 
Q 2531 2678 2651 2914 
Q 2772 3150 2772 3378 
Q 2772 3750 2511 3984 
Q 2250 4219 1831 4219 
Q 1534 4219 1204 4116 
Q 875 4013 500 3803 
L 500 4441 
Q 881 4594 1212 4672 
Q 1544 4750 1819 4750 
Q 2544 4750 2975 4387 
Q 3406 4025 3406 3419 
Q 3406 3131 3298 2873 
Q 3191 2616 2906 2266 
Q 2828 2175 2409 1742 
Q 1991 1309 1228 531 
z
" id="DejaVuSans-32" transform="scale(0.015625)"/>
       </defs>
       <use xlink:href="#DejaVuSans-32"/>
       <use x="63.623047" xlink:href="#DejaVuSans-30"/>
       <use x="127.246094" xlink:href="#DejaVuSans-30"/>
      </g>
     </g>
    </g>
    <g id="xtick_6">
     <g id="line2d_6">
      <g>
       <use style="stroke:#000000;stroke-width:0.8;" x="276.436692" xlink:href="#mc871e1ebee" y="307.584"/>
      </g>
     </g>
     <g id="text_6">
      <!-- 250 -->
      <g transform="translate(266.892942 322.182437)scale(0.1 -0.1)">
       <use xlink:href="#DejaVuSans-32"/>
       <use x="63.623047" xlink:href="#DejaVuSans-35"/>
       <use x="127.246094" xlink:href="#DejaVuSans-30"/>
      </g>
     </g>
    </g>
    <g id="xtick_7">
     <g id="line2d_7">
      <g>
       <use style="stroke:#000000;stroke-width:0.8;" x="317.120219" xlink:href="#mc871e1ebee" y="307.584"/>
      </g>
     </g>
     <g id="text_7">
      <!-- 300 -->
      <g transform="translate(307.576469 322.182437)scale(0.1 -0.1)">
       <defs>
        <path d="M 2597 2516 
Q 3050 2419 3304 2112 
Q 3559 1806 3559 1356 
Q 3559 666 3084 287 
Q 2609 -91 1734 -91 
Q 1441 -91 1130 -33 
Q 819 25 488 141 
L 488 750 
Q 750 597 1062 519 
Q 1375 441 1716 441 
Q 2309 441 2620 675 
Q 2931 909 2931 1356 
Q 2931 1769 2642 2001 
Q 2353 2234 1838 2234 
L 1294 2234 
L 1294 2753 
L 1863 2753 
Q 2328 2753 2575 2939 
Q 2822 3125 2822 3475 
Q 2822 3834 2567 4026 
Q 2313 4219 1838 4219 
Q 1578 4219 1281 4162 
Q 984 4106 628 3988 
L 628 4550 
Q 988 4650 1302 4700 
Q 1616 4750 1894 4750 
Q 2613 4750 3031 4423 
Q 3450 4097 3450 3541 
Q 3450 3153 3228 2886 
Q 3006 2619 2597 2516 
z
" id="DejaVuSans-33" transform="scale(0.015625)"/>
       </defs>
       <use xlink:href="#DejaVuSans-33"/>
       <use x="63.623047" xlink:href="#DejaVuSans-30"/>
       <use x="127.246094" xlink:href="#DejaVuSans-30"/>
      </g>
     </g>
    </g>
    <g id="xtick_8">
     <g id="line2d_8">
      <g>
       <use style="stroke:#000000;stroke-width:0.8;" x="357.803746" xlink:href="#mc871e1ebee" y="307.584"/>
      </g>
     </g>
     <g id="text_8">
      <!-- 350 -->
      <g transform="translate(348.259996 322.182437)scale(0.1 -0.1)">
       <use xlink:href="#DejaVuSans-33"/>
       <use x="63.623047" xlink:href="#DejaVuSans-35"/>
       <use x="127.246094" xlink:href="#DejaVuSans-30"/>
      </g>
     </g>
    </g>
    <g id="xtick_9">
     <g id="line2d_9">
      <g>
       <use style="stroke:#000000;stroke-width:0.8;" x="398.487273" xlink:href="#mc871e1ebee" y="307.584"/>
      </g>
     </g>
     <g id="text_9">
      <!-- 400 -->
      <g transform="translate(388.943523 322.182437)scale(0.1 -0.1)">
       <defs>
        <path d="M 2419 4116 
L 825 1625 
L 2419 1625 
L 2419 4116 
z
M 2253 4666 
L 3047 4666 
L 3047 1625 
L 3713 1625 
L 3713 1100 
L 3047 1100 
L 3047 0 
L 2419 0 
L 2419 1100 
L 313 1100 
L 313 1709 
L 2253 4666 
z
" id="DejaVuSans-34" transform="scale(0.015625)"/>
       </defs>
       <use xlink:href="#DejaVuSans-34"/>
       <use x="63.623047" xlink:href="#DejaVuSans-30"/>
       <use x="127.246094" xlink:href="#DejaVuSans-30"/>
      </g>
     </g>
    </g>
    <g id="text_10">
     <!-- Epoch -->
     <g transform="translate(213.193594 339.659781)scale(0.15 -0.15)">
      <defs>
       <path d="M 628 4666 
L 3578 4666 
L 3578 4134 
L 1259 4134 
L 1259 2753 
L 3481 2753 
L 3481 2222 
L 1259 2222 
L 1259 531 
L 3634 531 
L 3634 0 
L 628 0 
L 628 4666 
z
" id="DejaVuSans-45" transform="scale(0.015625)"/>
       <path d="M 1159 525 
L 1159 -1331 
L 581 -1331 
L 581 3500 
L 1159 3500 
L 1159 2969 
Q 1341 3281 1617 3432 
Q 1894 3584 2278 3584 
Q 2916 3584 3314 3078 
Q 3713 2572 3713 1747 
Q 3713 922 3314 415 
Q 2916 -91 2278 -91 
Q 1894 -91 1617 61 
Q 1341 213 1159 525 
z
M 3116 1747 
Q 3116 2381 2855 2742 
Q 2594 3103 2138 3103 
Q 1681 3103 1420 2742 
Q 1159 2381 1159 1747 
Q 1159 1113 1420 752 
Q 1681 391 2138 391 
Q 2594 391 2855 752 
Q 3116 1113 3116 1747 
z
" id="DejaVuSans-70" transform="scale(0.015625)"/>
       <path d="M 1959 3097 
Q 1497 3097 1228 2736 
Q 959 2375 959 1747 
Q 959 1119 1226 758 
Q 1494 397 1959 397 
Q 2419 397 2687 759 
Q 2956 1122 2956 1747 
Q 2956 2369 2687 2733 
Q 2419 3097 1959 3097 
z
M 1959 3584 
Q 2709 3584 3137 3096 
Q 3566 2609 3566 1747 
Q 3566 888 3137 398 
Q 2709 -91 1959 -91 
Q 1206 -91 779 398 
Q 353 888 353 1747 
Q 353 2609 779 3096 
Q 1206 3584 1959 3584 
z
" id="DejaVuSans-6f" transform="scale(0.015625)"/>
       <path d="M 3122 3366 
L 3122 2828 
Q 2878 2963 2633 3030 
Q 2388 3097 2138 3097 
Q 1578 3097 1268 2742 
Q 959 2388 959 1747 
Q 959 1106 1268 751 
Q 1578 397 2138 397 
Q 2388 397 2633 464 
Q 2878 531 3122 666 
L 3122 134 
Q 2881 22 2623 -34 
Q 2366 -91 2075 -91 
Q 1284 -91 818 406 
Q 353 903 353 1747 
Q 353 2603 823 3093 
Q 1294 3584 2113 3584 
Q 2378 3584 2631 3529 
Q 2884 3475 3122 3366 
z
" id="DejaVuSans-63" transform="scale(0.015625)"/>
       <path d="M 3513 2113 
L 3513 0 
L 2938 0 
L 2938 2094 
Q 2938 2591 2744 2837 
Q 2550 3084 2163 3084 
Q 1697 3084 1428 2787 
Q 1159 2491 1159 1978 
L 1159 0 
L 581 0 
L 581 4863 
L 1159 4863 
L 1159 2956 
Q 1366 3272 1645 3428 
Q 1925 3584 2291 3584 
Q 2894 3584 3203 3211 
Q 3513 2838 3513 2113 
z
" id="DejaVuSans-68" transform="scale(0.015625)"/>
      </defs>
      <use xlink:href="#DejaVuSans-45"/>
      <use x="63.183594" xlink:href="#DejaVuSans-70"/>
      <use x="126.660156" xlink:href="#DejaVuSans-6f"/>
      <use x="187.841797" xlink:href="#DejaVuSans-63"/>
      <use x="242.822266" xlink:href="#DejaVuSans-68"/>
     </g>
    </g>
   </g>
   <g id="matplotlib.axis_2">
    <g id="ytick_1">
     <g id="line2d_10">
      <defs>
       <path d="M 0 0 
L -3.5 0 
" id="m8e9f0cef9d" style="stroke:#000000;stroke-width:0.8;"/>
      </defs>
      <g>
       <use style="stroke:#000000;stroke-width:0.8;" x="57.6" xlink:href="#m8e9f0cef9d" y="295.500433"/>
      </g>
     </g>
     <g id="text_11">
      <!-- 0 -->
      <g transform="translate(44.2375 299.299651)scale(0.1 -0.1)">
       <use xlink:href="#DejaVuSans-30"/>
      </g>
     </g>
    </g>
    <g id="ytick_2">
     <g id="line2d_11">
      <g>
       <use style="stroke:#000000;stroke-width:0.8;" x="57.6" xlink:href="#m8e9f0cef9d" y="236.888366"/>
      </g>
     </g>
     <g id="text_12">
      <!-- 50000 -->
      <g transform="translate(18.7875 240.687585)scale(0.1 -0.1)">
       <use xlink:href="#DejaVuSans-35"/>
       <use x="63.623047" xlink:href="#DejaVuSans-30"/>
       <use x="127.246094" xlink:href="#DejaVuSans-30"/>
       <use x="190.869141" xlink:href="#DejaVuSans-30"/>
       <use x="254.492188" xlink:href="#DejaVuSans-30"/>
      </g>
     </g>
    </g>
    <g id="ytick_3">
     <g id="line2d_12">
      <g>
       <use style="stroke:#000000;stroke-width:0.8;" x="57.6" xlink:href="#m8e9f0cef9d" y="178.2763"/>
      </g>
     </g>
     <g id="text_13">
      <!-- 100000 -->
      <g transform="translate(12.425 182.075519)scale(0.1 -0.1)">
       <use xlink:href="#DejaVuSans-31"/>
       <use x="63.623047" xlink:href="#DejaVuSans-30"/>
       <use x="127.246094" xlink:href="#DejaVuSans-30"/>
       <use x="190.869141" xlink:href="#DejaVuSans-30"/>
       <use x="254.492188" xlink:href="#DejaVuSans-30"/>
       <use x="318.115234" xlink:href="#DejaVuSans-30"/>
      </g>
     </g>
    </g>
    <g id="ytick_4">
     <g id="line2d_13">
      <g>
       <use style="stroke:#000000;stroke-width:0.8;" x="57.6" xlink:href="#m8e9f0cef9d" y="119.664234"/>
      </g>
     </g>
     <g id="text_14">
      <!-- 150000 -->
      <g transform="translate(12.425 123.463453)scale(0.1 -0.1)">
       <use xlink:href="#DejaVuSans-31"/>
       <use x="63.623047" xlink:href="#DejaVuSans-35"/>
       <use x="127.246094" xlink:href="#DejaVuSans-30"/>
       <use x="190.869141" xlink:href="#DejaVuSans-30"/>
       <use x="254.492188" xlink:href="#DejaVuSans-30"/>
       <use x="318.115234" xlink:href="#DejaVuSans-30"/>
      </g>
     </g>
    </g>
    <g id="ytick_5">
     <g id="line2d_14">
      <g>
       <use style="stroke:#000000;stroke-width:0.8;" x="57.6" xlink:href="#m8e9f0cef9d" y="61.052168"/>
      </g>
     </g>
     <g id="text_15">
      <!-- 200000 -->
      <g transform="translate(12.425 64.851386)scale(0.1 -0.1)">
       <use xlink:href="#DejaVuSans-32"/>
       <use x="63.623047" xlink:href="#DejaVuSans-30"/>
       <use x="127.246094" xlink:href="#DejaVuSans-30"/>
       <use x="190.869141" xlink:href="#DejaVuSans-30"/>
       <use x="254.492188" xlink:href="#DejaVuSans-30"/>
       <use x="318.115234" xlink:href="#DejaVuSans-30"/>
      </g>
     </g>
    </g>
    <g id="text_16">
     <!-- Loss -->
     <g transform="translate(5.305469 190.978781)rotate(-90)scale(0.15 -0.15)">
      <defs>
       <path d="M 628 4666 
L 1259 4666 
L 1259 531 
L 3531 531 
L 3531 0 
L 628 0 
L 628 4666 
z
" id="DejaVuSans-4c" transform="scale(0.015625)"/>
       <path d="M 2834 3397 
L 2834 2853 
Q 2591 2978 2328 3040 
Q 2066 3103 1784 3103 
Q 1356 3103 1142 2972 
Q 928 2841 928 2578 
Q 928 2378 1081 2264 
Q 1234 2150 1697 2047 
L 1894 2003 
Q 2506 1872 2764 1633 
Q 3022 1394 3022 966 
Q 3022 478 2636 193 
Q 2250 -91 1575 -91 
Q 1294 -91 989 -36 
Q 684 19 347 128 
L 347 722 
Q 666 556 975 473 
Q 1284 391 1588 391 
Q 1994 391 2212 530 
Q 2431 669 2431 922 
Q 2431 1156 2273 1281 
Q 2116 1406 1581 1522 
L 1381 1569 
Q 847 1681 609 1914 
Q 372 2147 372 2553 
Q 372 3047 722 3315 
Q 1072 3584 1716 3584 
Q 2034 3584 2315 3537 
Q 2597 3491 2834 3397 
z
" id="DejaVuSans-73" transform="scale(0.015625)"/>
      </defs>
      <use xlink:href="#DejaVuSans-4c"/>
      <use x="53.962891" xlink:href="#DejaVuSans-6f"/>
      <use x="115.144531" xlink:href="#DejaVuSans-73"/>
      <use x="167.244141" xlink:href="#DejaVuSans-73"/>
     </g>
    </g>
   </g>
   <g id="line2d_15">
    <path clip-path="url(#p1e52f36567)" d="M 73.832727 100.030949 
L 74.646398 85.790224 
L 75.460068 96.546809 
L 76.273739 56.62795 
L 77.087409 78.244604 
L 77.90108 108.198114 
L 78.714751 71.728804 
L 79.528421 81.455023 
L 80.342092 72.745086 
L 81.155762 85.933156 
L 81.969433 53.568 
L 82.783103 65.740793 
L 83.596774 80.237903 
L 84.410444 75.555057 
L 85.224115 63.406348 
L 86.037785 103.680708 
L 86.851456 54.457545 
L 87.665126 68.468129 
L 88.478797 60.783537 
L 89.292468 79.270095 
L 90.106138 87.741869 
L 90.919809 82.874767 
L 91.733479 71.062497 
L 92.54715 61.725952 
L 93.36082 94.261005 
L 94.174491 94.011926 
L 94.988161 83.409526 
L 95.801832 90.632623 
L 96.615502 93.572938 
L 97.429173 63.506245 
L 98.242843 77.462852 
L 99.056514 86.434559 
L 99.870185 89.487317 
L 100.683855 101.354154 
L 101.497526 67.260093 
L 102.311196 75.795816 
L 103.124867 91.944872 
L 103.938537 104.961512 
L 104.752208 82.630131 
L 105.565878 85.7749 
L 106.379549 98.112467 
L 107.193219 71.746955 
L 108.82056 106.038338 
L 109.634231 97.262796 
L 110.447902 110.836062 
L 111.261572 120.789461 
L 112.075243 98.642745 
L 112.888913 129.708035 
L 113.702584 93.21665 
L 114.516254 108.956841 
L 115.329925 107.9292 
L 116.143595 130.146667 
L 116.957266 102.914801 
L 117.770936 105.798507 
L 118.584607 110.538203 
L 119.398278 126.728049 
L 120.211948 97.054119 
L 121.025619 108.314546 
L 121.839289 108.845872 
L 122.65296 146.705413 
L 123.46663 92.682 
L 124.280301 113.083218 
L 125.093971 128.805854 
L 125.907642 108.815481 
L 126.721312 114.408888 
L 127.534983 116.975051 
L 128.348653 128.472086 
L 129.162324 97.422832 
L 129.975995 106.690406 
L 130.789665 126.771649 
L 131.603336 112.913396 
L 132.417006 115.406302 
L 133.230677 114.2922 
L 134.044347 142.259187 
L 134.858018 132.580012 
L 135.671688 112.752673 
L 136.485359 118.68957 
L 137.299029 126.45429 
L 138.1127 122.236372 
L 138.92637 127.504617 
L 139.740041 125.724726 
L 140.553712 134.108772 
L 141.367382 104.714513 
L 142.181053 130.479753 
L 142.994723 151.486006 
L 143.808394 141.797268 
L 144.622064 141.211221 
L 145.435735 92.349455 
L 146.249405 79.949592 
L 147.063076 129.600141 
L 147.876746 147.640979 
L 148.690417 134.611314 
L 149.504087 132.604781 
L 151.131429 169.136227 
L 151.945099 155.22289 
L 152.75877 152.275458 
L 153.57244 141.316452 
L 154.386111 160.39878 
L 155.199781 148.191511 
L 156.013452 168.75129 
L 156.827122 133.966885 
L 157.640793 170.709684 
L 158.454463 133.455151 
L 159.268134 164.904585 
L 160.081805 146.894439 
L 160.895475 153.616691 
L 161.709146 174.524707 
L 162.522816 174.63532 
L 163.336487 174.304975 
L 164.150157 157.925949 
L 164.963828 174.642056 
L 165.777498 166.107491 
L 166.591169 175.799119 
L 167.404839 166.679949 
L 168.21851 194.613921 
L 169.03218 188.102624 
L 169.845851 166.106606 
L 170.659522 169.315876 
L 171.473192 183.624868 
L 172.286863 190.192783 
L 173.100533 175.22292 
L 173.914204 183.249052 
L 174.727874 194.46636 
L 175.541545 199.040943 
L 176.355215 186.840489 
L 177.168886 192.896461 
L 177.982556 206.540186 
L 178.796227 201.666288 
L 179.609897 182.292741 
L 180.423568 180.133201 
L 181.237239 197.892231 
L 182.050909 189.644289 
L 182.86458 212.554288 
L 183.67825 180.372707 
L 184.491921 207.457754 
L 185.305591 200.075698 
L 186.119262 197.577756 
L 186.932932 174.927305 
L 187.746603 196.579809 
L 188.560273 197.534651 
L 189.373944 203.969155 
L 190.187614 212.562191 
L 191.001285 236.188114 
L 191.814956 207.245469 
L 192.628626 208.441643 
L 193.442297 193.464255 
L 194.255967 214.566757 
L 195.883308 196.288866 
L 196.696979 211.00239 
L 197.510649 206.724947 
L 198.32432 197.234756 
L 199.13799 213.943875 
L 199.951661 202.067807 
L 200.765332 221.672664 
L 201.579002 190.429646 
L 202.392673 235.360667 
L 203.206343 232.655788 
L 204.020014 217.812281 
L 204.833684 226.823078 
L 205.647355 189.165642 
L 206.461025 208.128118 
L 207.274696 220.233127 
L 208.088366 223.329216 
L 208.902037 230.301337 
L 209.715707 206.734739 
L 210.529378 213.368803 
L 211.343049 214.631462 
L 212.156719 208.538167 
L 212.97039 210.506623 
L 213.78406 219.235351 
L 214.597731 235.388697 
L 215.411401 228.903546 
L 216.225072 226.207919 
L 217.038742 221.926084 
L 217.852413 226.01149 
L 218.666083 234.91342 
L 219.479754 219.911137 
L 220.293424 233.982142 
L 221.107095 227.967301 
L 221.920766 219.431914 
L 222.734436 216.29627 
L 223.548107 234.02753 
L 224.361777 211.961145 
L 225.175448 232.969085 
L 225.989118 238.504901 
L 226.802789 207.289798 
L 227.616459 233.786153 
L 228.43013 232.337397 
L 229.2438 227.864993 
L 230.057471 238.490512 
L 230.871141 227.442885 
L 231.684812 243.614281 
L 232.498483 238.611141 
L 233.312153 229.438893 
L 234.125824 231.952389 
L 234.939494 145.119656 
L 235.753165 204.574364 
L 236.566835 224.800285 
L 237.380506 201.116942 
L 238.194176 222.692662 
L 239.007847 222.983625 
L 239.821517 242.976627 
L 240.635188 220.870733 
L 241.448859 241.184477 
L 242.262529 228.776771 
L 243.0762 229.748318 
L 243.88987 235.211869 
L 244.703541 223.196005 
L 245.517211 235.022629 
L 246.330882 239.0226 
L 247.144552 248.973542 
L 247.958223 240.40801 
L 248.771893 248.917271 
L 249.585564 226.059366 
L 250.399234 232.484813 
L 251.212905 245.054032 
L 252.026576 252.056612 
L 252.840246 236.099247 
L 253.653917 228.725782 
L 254.467587 258.253933 
L 255.281258 242.566143 
L 256.094928 243.556314 
L 256.908599 266.616726 
L 257.722269 256.699151 
L 258.53594 249.21373 
L 259.34961 250.813443 
L 260.163281 253.802335 
L 260.976951 245.89667 
L 261.790622 254.006703 
L 262.604293 248.623711 
L 263.417963 245.734883 
L 264.231634 247.922212 
L 265.045304 231.97238 
L 265.858975 254.092015 
L 266.672645 227.1818 
L 268.299986 259.856076 
L 269.113657 263.74101 
L 269.927327 255.269829 
L 270.740998 258.621624 
L 271.554668 259.227373 
L 272.368339 260.063911 
L 273.18201 250.334756 
L 273.99568 263.239935 
L 274.809351 242.212062 
L 275.623021 247.647093 
L 276.436692 259.602212 
L 277.250362 280.928249 
L 278.064033 251.345218 
L 278.877703 268.306523 
L 279.691374 247.023981 
L 280.505044 253.48172 
L 281.318715 256.12865 
L 282.132386 268.506436 
L 282.946056 256.650821 
L 283.759727 250.237981 
L 284.573397 249.540981 
L 285.387068 252.790129 
L 286.200738 252.218951 
L 287.014409 261.045857 
L 287.828079 254.821583 
L 288.64175 260.510261 
L 289.45542 271.822193 
L 290.269091 267.846629 
L 291.896432 253.294227 
L 292.710103 261.751164 
L 293.523773 261.736759 
L 294.337444 266.785936 
L 295.151114 258.520188 
L 295.964785 262.189997 
L 296.778455 257.311197 
L 297.592126 263.510604 
L 298.405796 258.63501 
L 299.219467 260.922243 
L 300.033137 259.540822 
L 300.846808 253.345173 
L 301.660478 273.718542 
L 302.474149 246.197304 
L 303.28782 266.616134 
L 304.10149 267.103888 
L 304.915161 258.806183 
L 305.728831 268.184816 
L 306.542502 242.313789 
L 307.356172 270.281593 
L 308.169843 257.823244 
L 308.983513 276.643566 
L 309.797184 269.457057 
L 310.610854 268.937907 
L 312.238195 253.488587 
L 313.051866 272.586324 
L 313.865537 265.804529 
L 314.679207 271.404689 
L 315.492878 253.544807 
L 317.120219 265.22909 
L 317.933889 272.386866 
L 318.74756 268.0661 
L 320.374901 254.893177 
L 321.188571 259.467452 
L 322.002242 262.764907 
L 322.815913 275.49438 
L 323.629583 271.242182 
L 324.443254 282.606178 
L 325.256924 253.279474 
L 326.070595 256.86105 
L 326.884265 272.177208 
L 327.697936 272.635294 
L 328.511606 246.782363 
L 329.325277 273.376143 
L 330.138947 267.941595 
L 330.952618 251.747105 
L 331.766288 269.493931 
L 332.579959 269.28379 
L 333.39363 255.607992 
L 334.2073 260.722006 
L 335.020971 255.958954 
L 335.834641 267.746243 
L 336.648312 272.524213 
L 337.461982 274.513259 
L 338.275653 262.999814 
L 339.089323 265.044727 
L 339.902994 279.679501 
L 340.716664 258.36228 
L 341.530335 264.661504 
L 342.344005 261.76668 
L 343.157676 272.603342 
L 343.971347 266.824043 
L 344.785017 279.534868 
L 345.598688 266.524279 
L 346.412358 273.079751 
L 347.226029 264.495495 
L 348.039699 236.367993 
L 348.85337 162.327619 
L 350.480711 259.347934 
L 351.294381 268.103852 
L 352.108052 271.044329 
L 352.921722 276.40547 
L 353.735393 275.696211 
L 354.549064 281.486699 
L 355.362734 282.242052 
L 356.176405 269.179915 
L 356.990075 279.474755 
L 357.803746 277.015675 
L 358.617416 278.25494 
L 359.431087 267.928286 
L 360.244757 251.644336 
L 361.058428 260.849217 
L 361.872098 274.962993 
L 362.685769 277.060795 
L 363.49944 271.721984 
L 364.31311 282.423198 
L 365.126781 281.318647 
L 365.940451 269.688117 
L 366.754122 272.491847 
L 367.567792 260.505679 
L 368.381463 276.685716 
L 369.195133 279.757678 
L 370.008804 273.090297 
L 370.822474 284.833077 
L 371.636145 279.450881 
L 372.449815 180.297486 
L 373.263486 221.476019 
L 374.077157 213.778074 
L 374.890827 245.328606 
L 375.704498 266.137777 
L 376.518168 263.785896 
L 377.331839 266.63353 
L 378.145509 254.394758 
L 378.95918 238.012465 
L 379.77285 240.467446 
L 380.586521 244.10626 
L 381.400191 253.014297 
L 382.213862 269.548847 
L 383.027532 254.204623 
L 383.841203 254.45845 
L 384.654874 271.265944 
L 386.282215 251.589598 
L 387.095885 274.976647 
L 387.909556 260.447173 
L 388.723226 243.52755 
L 389.536897 271.252324 
L 390.350567 275.243995 
L 391.164238 259.64264 
L 391.977908 275.103968 
L 392.791579 252.123536 
L 393.605249 274.582955 
L 394.41892 257.978858 
L 395.232591 258.895979 
L 396.046261 273.805907 
L 396.859932 272.629046 
L 397.673602 257.74784 
L 398.487273 266.677043 
L 398.487273 266.677043 
" style="fill:none;stroke:#1f77b4;stroke-linecap:square;stroke-width:1.5;"/>
   </g>
   <g id="line2d_16">
    <path clip-path="url(#p1e52f36567)" d="M 73.832727 294.435332 
L 74.646398 294.302023 
L 75.460068 294.967766 
L 76.273739 293.902856 
L 77.087409 294.169147 
L 77.90108 293.902987 
L 78.714751 294.701748 
L 79.528421 295.149785 
L 80.342092 295.326538 
L 81.155762 294.568549 
L 81.969433 295.234142 
L 82.783103 294.435356 
L 83.596774 294.435175 
L 84.410444 294.93534 
L 85.224115 294.701512 
L 86.037785 293.902629 
L 86.851456 294.435178 
L 87.665126 295.435223 
L 88.478797 294.967857 
L 89.292468 295.383585 
L 90.106138 293.704827 
L 90.919809 295.204425 
L 91.733479 293.36997 
L 92.54715 294.16961 
L 93.36082 293.520215 
L 94.174491 294.435962 
L 94.988161 293.94157 
L 95.801832 294.554842 
L 96.615502 295.456984 
L 97.429173 294.99529 
L 98.242843 295.476069 
L 99.056514 294.704955 
L 100.683855 294.183329 
L 101.497526 294.449205 
L 102.311196 293.947646 
L 103.124867 294.458874 
L 103.938537 295.245939 
L 104.752208 294.486532 
L 105.565878 294.516698 
L 106.379549 295.005514 
L 107.193219 293.786123 
L 108.00689 293.521006 
L 108.82056 295.018122 
L 109.634231 294.535735 
L 110.447902 294.549924 
L 111.261572 293.819632 
L 112.075243 293.583713 
L 112.888913 293.803074 
L 113.702584 295.257444 
L 115.329925 294.836747 
L 116.143595 294.315046 
L 116.957266 294.762694 
L 117.770936 293.717247 
L 119.398278 294.099144 
L 120.211948 294.562855 
L 121.025619 294.547762 
L 121.839289 293.734373 
L 122.65296 294.544358 
L 123.46663 294.581894 
L 124.280301 295.242385 
L 125.093971 295.270611 
L 125.907642 294.571789 
L 126.721312 294.55482 
L 127.534983 294.343064 
L 128.348653 295.035736 
L 129.162324 294.563066 
L 130.789665 295.442488 
L 131.603336 295.035452 
L 132.417006 294.260728 
L 133.230677 295.144951 
L 134.044347 294.099137 
L 134.858018 294.588923 
L 135.671688 294.577943 
L 136.485359 294.009568 
L 137.299029 294.629761 
L 138.1127 294.585915 
L 138.92637 294.160424 
L 139.740041 294.065176 
L 140.553712 294.087642 
L 141.367382 294.50557 
L 142.181053 294.296634 
L 142.994723 295.167053 
L 143.808394 295.256278 
L 145.435735 293.860041 
L 146.249405 294.589008 
L 147.063076 295.053507 
L 147.876746 294.602357 
L 148.690417 294.768992 
L 149.504087 295.282022 
L 150.317758 295.135533 
L 151.131429 294.673158 
L 151.945099 294.50008 
L 152.75877 294.608544 
L 153.57244 294.095822 
L 155.199781 295.068572 
L 156.013452 295.333861 
L 156.827122 295.272518 
L 157.640793 294.370067 
L 158.454463 295.175593 
L 159.268134 294.477961 
L 160.895475 294.85859 
L 161.709146 294.025107 
L 162.522816 293.822658 
L 163.336487 295.394209 
L 164.963828 293.899051 
L 166.591169 295.127908 
L 167.404839 294.698463 
L 168.21851 295.012706 
L 169.03218 294.682201 
L 169.845851 294.511726 
L 170.659522 294.742625 
L 171.473192 294.712932 
L 172.286863 295.164233 
L 173.100533 295.33628 
L 173.914204 294.793098 
L 175.541545 294.576077 
L 176.355215 295.099376 
L 177.168886 294.931915 
L 177.982556 295.018368 
L 178.796227 295.306106 
L 179.609897 294.371683 
L 180.423568 294.925075 
L 181.237239 294.550675 
L 182.050909 294.709203 
L 182.86458 294.698237 
L 183.67825 294.261991 
L 184.491921 294.660383 
L 185.305591 294.693134 
L 186.119262 295.238241 
L 186.932932 294.214689 
L 187.746603 294.652608 
L 188.560273 294.221953 
L 189.373944 294.937222 
L 190.187614 294.32107 
L 191.001285 294.453157 
L 191.814956 294.909788 
L 192.628626 294.787092 
L 193.442297 295.300165 
L 194.255967 294.038677 
L 195.069638 295.412561 
L 196.696979 294.776258 
L 197.510649 295.044644 
L 198.32432 294.918913 
L 199.13799 294.177368 
L 199.951661 295.260377 
L 200.765332 294.796104 
L 202.392673 295.245664 
L 203.206343 294.782297 
L 204.020014 294.994593 
L 204.833684 294.358942 
L 205.647355 294.227363 
L 206.461025 295.322341 
L 207.274696 294.566709 
L 208.088366 294.043358 
L 208.902037 294.762225 
L 209.715707 295.034821 
L 210.529378 294.938774 
L 211.343049 295.023762 
L 212.97039 294.289458 
L 213.78406 295.299659 
L 214.597731 294.668292 
L 215.411401 293.882614 
L 216.225072 294.815354 
L 217.038742 294.728066 
L 217.852413 294.147425 
L 218.666083 295.326618 
L 219.479754 294.499351 
L 220.293424 295.358891 
L 221.107095 294.812591 
L 221.920766 294.792655 
L 222.734436 295.337944 
L 223.548107 294.774814 
L 224.361777 295.254938 
L 225.175448 295.054633 
L 225.989118 295.157681 
L 226.802789 294.488737 
L 227.616459 295.339806 
L 228.43013 294.721407 
L 229.2438 294.442013 
L 230.057471 294.519528 
L 230.871141 295.329282 
L 231.684812 294.05759 
L 232.498483 294.732577 
L 233.312153 294.672262 
L 234.125824 294.442023 
L 234.939494 294.903263 
L 236.566835 294.335287 
L 237.380506 295.099399 
L 238.194176 293.981805 
L 239.007847 294.825815 
L 239.821517 295.325465 
L 240.635188 294.504957 
L 241.448859 295.320575 
L 242.262529 295.465576 
L 243.0762 294.786753 
L 243.88987 295.248225 
L 244.703541 294.815024 
L 245.517211 294.8435 
L 246.330882 294.696576 
L 247.144552 295.036295 
L 247.958223 294.175907 
L 248.771893 295.440706 
L 249.585564 293.943981 
L 250.399234 295.165459 
L 251.212905 295.293376 
L 252.026576 295.077676 
L 252.840246 294.163515 
L 253.653917 295.095832 
L 255.281258 294.854902 
L 256.094928 294.419338 
L 256.908599 294.850739 
L 260.163281 294.76775 
L 260.976951 294.168051 
L 262.604293 294.800615 
L 264.231634 295.397773 
L 265.045304 294.702646 
L 265.858975 294.827758 
L 266.672645 294.411583 
L 267.486316 295.40037 
L 268.299986 294.302032 
L 269.113657 294.813594 
L 269.927327 294.703037 
L 270.740998 294.787615 
L 271.554668 294.655039 
L 272.368339 294.808457 
L 273.18201 295.448519 
L 273.99568 295.28869 
L 274.809351 294.72146 
L 275.623021 294.643911 
L 276.436692 294.815472 
L 278.064033 294.779898 
L 278.877703 294.566026 
L 279.691374 293.798471 
L 280.505044 295.406081 
L 281.318715 295.013451 
L 282.132386 295.103007 
L 282.946056 293.857456 
L 283.759727 294.809346 
L 284.573397 294.21919 
L 285.387068 295.098659 
L 286.200738 294.839448 
L 290.269091 294.773353 
L 291.082761 294.185912 
L 292.710103 295.384433 
L 293.523773 294.237438 
L 294.337444 295.298951 
L 295.151114 293.993544 
L 295.964785 294.577029 
L 296.778455 294.489637 
L 297.592126 294.81682 
L 298.405796 294.742338 
L 299.219467 295.133509 
L 300.033137 294.919335 
L 302.474149 294.97336 
L 303.28782 294.340896 
L 304.10149 294.754712 
L 305.728831 294.715746 
L 306.542502 294.848419 
L 307.356172 294.515206 
L 308.169843 294.818037 
L 308.983513 294.461987 
L 309.797184 295.3199 
L 310.610854 295.340781 
L 311.424525 294.567296 
L 312.238195 294.899294 
L 313.051866 294.793524 
L 313.865537 295.223457 
L 314.679207 295.119272 
L 315.492878 294.437039 
L 316.306548 294.610863 
L 317.120219 294.470432 
L 317.933889 294.801541 
L 318.74756 294.71886 
L 319.56123 295.488 
L 321.188571 295.161142 
L 322.002242 294.25644 
L 322.815913 294.798821 
L 324.443254 294.768818 
L 325.256924 294.890996 
L 326.070595 295.148153 
L 326.884265 295.18868 
L 327.697936 294.719409 
L 328.511606 295.119849 
L 329.325277 295.074217 
L 330.138947 294.681033 
L 330.952618 294.582201 
L 331.766288 295.459313 
L 332.579959 294.331275 
L 333.39363 295.129687 
L 334.2073 295.176808 
L 335.020971 294.881621 
L 336.648312 295.160805 
L 337.461982 294.55945 
L 338.275653 295.378905 
L 339.089323 294.601468 
L 339.902994 295.116366 
L 341.530335 294.09113 
L 342.344005 295.15403 
L 343.971347 294.373457 
L 344.785017 294.605022 
L 345.598688 294.5548 
L 346.412358 294.694204 
L 347.226029 295.245445 
L 348.039699 293.597834 
L 348.85337 294.816992 
L 350.480711 294.792004 
L 351.294381 294.45096 
L 352.108052 295.178504 
L 352.921722 295.11511 
L 353.735393 294.453274 
L 354.549064 294.967311 
L 355.362734 294.928113 
L 356.176405 294.768663 
L 356.990075 294.953841 
L 357.803746 294.184832 
L 358.617416 294.813444 
L 359.431087 293.751117 
L 360.244757 294.795076 
L 361.058428 295.205366 
L 361.872098 294.268811 
L 362.685769 294.204226 
L 363.49944 295.085387 
L 364.31311 293.893317 
L 365.126781 294.683971 
L 366.754122 294.82373 
L 368.381463 294.764192 
L 370.822474 294.733003 
L 371.636145 294.231222 
L 372.449815 294.719452 
L 373.263486 294.684998 
L 374.077157 295.106887 
L 375.704498 295.093476 
L 376.518168 294.850201 
L 377.331839 295.176645 
L 378.145509 295.047196 
L 379.77285 295.14901 
L 380.586521 294.782189 
L 381.400191 295.351421 
L 382.213862 295.052269 
L 383.027532 294.555515 
L 383.841203 294.953583 
L 384.654874 294.889911 
L 385.468544 295.046961 
L 386.282215 294.987975 
L 387.095885 295.467647 
L 387.909556 294.737336 
L 388.723226 294.419754 
L 389.536897 294.749419 
L 390.350567 294.338968 
L 391.164238 295.040142 
L 391.977908 294.252557 
L 392.791579 295.295966 
L 393.605249 295.211129 
L 394.41892 294.104308 
L 395.232591 294.766548 
L 397.673602 294.755784 
L 398.487273 295.039177 
L 398.487273 295.039177 
" style="fill:none;stroke:#ff7f0e;stroke-linecap:square;stroke-width:1.5;"/>
   </g>
   <g id="patch_3">
    <path d="M 57.6 307.584 
L 57.6 41.472 
" style="fill:none;stroke:#000000;stroke-linecap:square;stroke-linejoin:miter;stroke-width:0.8;"/>
   </g>
   <g id="patch_4">
    <path d="M 414.72 307.584 
L 414.72 41.472 
" style="fill:none;stroke:#000000;stroke-linecap:square;stroke-linejoin:miter;stroke-width:0.8;"/>
   </g>
   <g id="patch_5">
    <path d="M 57.6 307.584 
L 414.72 307.584 
" style="fill:none;stroke:#000000;stroke-linecap:square;stroke-linejoin:miter;stroke-width:0.8;"/>
   </g>
   <g id="patch_6">
    <path d="M 57.6 41.472 
L 414.72 41.472 
" style="fill:none;stroke:#000000;stroke-linecap:square;stroke-linejoin:miter;stroke-width:0.8;"/>
   </g>
   <g id="legend_1">
    <g id="patch_7">
     <path d="M 303.845 78.82825 
L 407.72 78.82825 
Q 409.72 78.82825 409.72 76.82825 
L 409.72 48.472 
Q 409.72 46.472 407.72 46.472 
L 303.845 46.472 
Q 301.845 46.472 301.845 48.472 
L 301.845 76.82825 
Q 301.845 78.82825 303.845 78.82825 
z
" style="fill:#ffffff;opacity:0.8;stroke:#cccccc;stroke-linejoin:miter;"/>
    </g>
    <g id="line2d_17">
     <path d="M 305.845 54.570437 
L 325.845 54.570437 
" style="fill:none;stroke:#1f77b4;stroke-linecap:square;stroke-width:1.5;"/>
    </g>
    <g id="line2d_18"/>
    <g id="text_17">
     <!-- Train loss -->
     <g transform="translate(333.845 58.070437)scale(0.1 -0.1)">
      <defs>
       <path d="M -19 4666 
L 3928 4666 
L 3928 4134 
L 2272 4134 
L 2272 0 
L 1638 0 
L 1638 4134 
L -19 4134 
L -19 4666 
z
" id="DejaVuSans-54" transform="scale(0.015625)"/>
       <path d="M 2631 2963 
Q 2534 3019 2420 3045 
Q 2306 3072 2169 3072 
Q 1681 3072 1420 2755 
Q 1159 2438 1159 1844 
L 1159 0 
L 581 0 
L 581 3500 
L 1159 3500 
L 1159 2956 
Q 1341 3275 1631 3429 
Q 1922 3584 2338 3584 
Q 2397 3584 2469 3576 
Q 2541 3569 2628 3553 
L 2631 2963 
z
" id="DejaVuSans-72" transform="scale(0.015625)"/>
       <path d="M 2194 1759 
Q 1497 1759 1228 1600 
Q 959 1441 959 1056 
Q 959 750 1161 570 
Q 1363 391 1709 391 
Q 2188 391 2477 730 
Q 2766 1069 2766 1631 
L 2766 1759 
L 2194 1759 
z
M 3341 1997 
L 3341 0 
L 2766 0 
L 2766 531 
Q 2569 213 2275 61 
Q 1981 -91 1556 -91 
Q 1019 -91 701 211 
Q 384 513 384 1019 
Q 384 1609 779 1909 
Q 1175 2209 1959 2209 
L 2766 2209 
L 2766 2266 
Q 2766 2663 2505 2880 
Q 2244 3097 1772 3097 
Q 1472 3097 1187 3025 
Q 903 2953 641 2809 
L 641 3341 
Q 956 3463 1253 3523 
Q 1550 3584 1831 3584 
Q 2591 3584 2966 3190 
Q 3341 2797 3341 1997 
z
" id="DejaVuSans-61" transform="scale(0.015625)"/>
       <path d="M 603 3500 
L 1178 3500 
L 1178 0 
L 603 0 
L 603 3500 
z
M 603 4863 
L 1178 4863 
L 1178 4134 
L 603 4134 
L 603 4863 
z
" id="DejaVuSans-69" transform="scale(0.015625)"/>
       <path d="M 3513 2113 
L 3513 0 
L 2938 0 
L 2938 2094 
Q 2938 2591 2744 2837 
Q 2550 3084 2163 3084 
Q 1697 3084 1428 2787 
Q 1159 2491 1159 1978 
L 1159 0 
L 581 0 
L 581 3500 
L 1159 3500 
L 1159 2956 
Q 1366 3272 1645 3428 
Q 1925 3584 2291 3584 
Q 2894 3584 3203 3211 
Q 3513 2838 3513 2113 
z
" id="DejaVuSans-6e" transform="scale(0.015625)"/>
       <path id="DejaVuSans-20" transform="scale(0.015625)"/>
       <path d="M 603 4863 
L 1178 4863 
L 1178 0 
L 603 0 
L 603 4863 
z
" id="DejaVuSans-6c" transform="scale(0.015625)"/>
      </defs>
      <use xlink:href="#DejaVuSans-54"/>
      <use x="46.333984" xlink:href="#DejaVuSans-72"/>
      <use x="87.447266" xlink:href="#DejaVuSans-61"/>
      <use x="148.726562" xlink:href="#DejaVuSans-69"/>
      <use x="176.509766" xlink:href="#DejaVuSans-6e"/>
      <use x="239.888672" xlink:href="#DejaVuSans-20"/>
      <use x="271.675781" xlink:href="#DejaVuSans-6c"/>
      <use x="299.458984" xlink:href="#DejaVuSans-6f"/>
      <use x="360.640625" xlink:href="#DejaVuSans-73"/>
      <use x="412.740234" xlink:href="#DejaVuSans-73"/>
     </g>
    </g>
    <g id="line2d_19">
     <path d="M 305.845 69.248562 
L 325.845 69.248562 
" style="fill:none;stroke:#ff7f0e;stroke-linecap:square;stroke-width:1.5;"/>
    </g>
    <g id="line2d_20"/>
    <g id="text_18">
     <!-- Validation loss -->
     <g transform="translate(333.845 72.748562)scale(0.1 -0.1)">
      <defs>
       <path d="M 1831 0 
L 50 4666 
L 709 4666 
L 2188 738 
L 3669 4666 
L 4325 4666 
L 2547 0 
L 1831 0 
z
" id="DejaVuSans-56" transform="scale(0.015625)"/>
       <path d="M 2906 2969 
L 2906 4863 
L 3481 4863 
L 3481 0 
L 2906 0 
L 2906 525 
Q 2725 213 2448 61 
Q 2172 -91 1784 -91 
Q 1150 -91 751 415 
Q 353 922 353 1747 
Q 353 2572 751 3078 
Q 1150 3584 1784 3584 
Q 2172 3584 2448 3432 
Q 2725 3281 2906 2969 
z
M 947 1747 
Q 947 1113 1208 752 
Q 1469 391 1925 391 
Q 2381 391 2643 752 
Q 2906 1113 2906 1747 
Q 2906 2381 2643 2742 
Q 2381 3103 1925 3103 
Q 1469 3103 1208 2742 
Q 947 2381 947 1747 
z
" id="DejaVuSans-64" transform="scale(0.015625)"/>
       <path d="M 1172 4494 
L 1172 3500 
L 2356 3500 
L 2356 3053 
L 1172 3053 
L 1172 1153 
Q 1172 725 1289 603 
Q 1406 481 1766 481 
L 2356 481 
L 2356 0 
L 1766 0 
Q 1100 0 847 248 
Q 594 497 594 1153 
L 594 3053 
L 172 3053 
L 172 3500 
L 594 3500 
L 594 4494 
L 1172 4494 
z
" id="DejaVuSans-74" transform="scale(0.015625)"/>
      </defs>
      <use xlink:href="#DejaVuSans-56"/>
      <use x="60.658203" xlink:href="#DejaVuSans-61"/>
      <use x="121.9375" xlink:href="#DejaVuSans-6c"/>
      <use x="149.720703" xlink:href="#DejaVuSans-69"/>
      <use x="177.503906" xlink:href="#DejaVuSans-64"/>
      <use x="240.980469" xlink:href="#DejaVuSans-61"/>
      <use x="302.259766" xlink:href="#DejaVuSans-74"/>
      <use x="341.46875" xlink:href="#DejaVuSans-69"/>
      <use x="369.251953" xlink:href="#DejaVuSans-6f"/>
      <use x="430.433594" xlink:href="#DejaVuSans-6e"/>
      <use x="493.8125" xlink:href="#DejaVuSans-20"/>
      <use x="525.599609" xlink:href="#DejaVuSans-6c"/>
      <use x="553.382812" xlink:href="#DejaVuSans-6f"/>
      <use x="614.564453" xlink:href="#DejaVuSans-73"/>
      <use x="666.664062" xlink:href="#DejaVuSans-73"/>
     </g>
    </g>
   </g>
  </g>
 </g>
 <defs>
  <clipPath id="p1e52f36567">
   <rect height="266.112" width="357.12" x="57.6" y="41.472"/>
  </clipPath>
 </defs>
</svg>
