<?xml version="1.0" encoding="utf-8" standalone="no"?>
<!DOCTYPE svg PUBLIC "-//W3C//DTD SVG 1.1//EN"
  "http://www.w3.org/Graphics/SVG/1.1/DTD/svg11.dtd">
<svg height="345.6pt" version="1.1" viewBox="0 0 460.8 345.6" width="460.8pt" xmlns="http://www.w3.org/2000/svg" xmlns:xlink="http://www.w3.org/1999/xlink">
 <metadata>
  <rdf:RDF xmlns:cc="http://creativecommons.org/ns#" xmlns:dc="http://purl.org/dc/elements/1.1/" xmlns:rdf="http://www.w3.org/1999/02/22-rdf-syntax-ns#">
   <cc:Work>
    <dc:type rdf:resource="http://purl.org/dc/dcmitype/StillImage"/>
    <dc:date>2021-07-15T05:57:29.544798</dc:date>
    <dc:format>image/svg+xml</dc:format>
    <dc:creator>
     <cc:Agent>
      <dc:title>Matplotlib v3.4.2, https://matplotlib.org/</dc:title>
     </cc:Agent>
    </dc:creator>
   </cc:Work>
  </rdf:RDF>
 </metadata>
 <defs>
  <style type="text/css">*{stroke-linecap:butt;stroke-linejoin:round;}</style>
 </defs>
 <g id="figure_1">
  <g id="patch_1">
   <path d="M 0 345.6 
L 460.8 345.6 
L 460.8 0 
L 0 0 
z
" style="fill:#ffffff;"/>
  </g>
  <g id="axes_1">
   <g id="patch_2">
    <path d="M 57.6 307.584 
L 414.72 307.584 
L 414.72 41.472 
L 57.6 41.472 
z
" style="fill:#ffffff;"/>
   </g>
   <g id="matplotlib.axis_1">
    <g id="xtick_1">
     <g id="line2d_1">
      <defs>
       <path d="M 0 0 
L 0 3.5 
" id="m8c4f4bbf68" style="stroke:#000000;stroke-width:0.8;"/>
      </defs>
      <g>
       <use style="stroke:#000000;stroke-width:0.8;" x="73.019057" xlink:href="#m8c4f4bbf68" y="307.584"/>
      </g>
     </g>
     <g id="text_1">
      <!-- 0 -->
      <g transform="translate(69.837807 322.182437)scale(0.1 -0.1)">
       <defs>
        <path d="M 2034 4250 
Q 1547 4250 1301 3770 
Q 1056 3291 1056 2328 
Q 1056 1369 1301 889 
Q 1547 409 2034 409 
Q 2525 409 2770 889 
Q 3016 1369 3016 2328 
Q 3016 3291 2770 3770 
Q 2525 4250 2034 4250 
z
M 2034 4750 
Q 2819 4750 3233 4129 
Q 3647 3509 3647 2328 
Q 3647 1150 3233 529 
Q 2819 -91 2034 -91 
Q 1250 -91 836 529 
Q 422 1150 422 2328 
Q 422 3509 836 4129 
Q 1250 4750 2034 4750 
z
" id="DejaVuSans-30" transform="scale(0.015625)"/>
       </defs>
       <use xlink:href="#DejaVuSans-30"/>
      </g>
     </g>
    </g>
    <g id="xtick_2">
     <g id="line2d_2">
      <g>
       <use style="stroke:#000000;stroke-width:0.8;" x="113.702584" xlink:href="#m8c4f4bbf68" y="307.584"/>
      </g>
     </g>
     <g id="text_2">
      <!-- 50 -->
      <g transform="translate(107.340084 322.182437)scale(0.1 -0.1)">
       <defs>
        <path d="M 691 4666 
L 3169 4666 
L 3169 4134 
L 1269 4134 
L 1269 2991 
Q 1406 3038 1543 3061 
Q 1681 3084 1819 3084 
Q 2600 3084 3056 2656 
Q 3513 2228 3513 1497 
Q 3513 744 3044 326 
Q 2575 -91 1722 -91 
Q 1428 -91 1123 -41 
Q 819 9 494 109 
L 494 744 
Q 775 591 1075 516 
Q 1375 441 1709 441 
Q 2250 441 2565 725 
Q 2881 1009 2881 1497 
Q 2881 1984 2565 2268 
Q 2250 2553 1709 2553 
Q 1456 2553 1204 2497 
Q 953 2441 691 2322 
L 691 4666 
z
" id="DejaVuSans-35" transform="scale(0.015625)"/>
       </defs>
       <use xlink:href="#DejaVuSans-35"/>
       <use x="63.623047" xlink:href="#DejaVuSans-30"/>
      </g>
     </g>
    </g>
    <g id="xtick_3">
     <g id="line2d_3">
      <g>
       <use style="stroke:#000000;stroke-width:0.8;" x="154.386111" xlink:href="#m8c4f4bbf68" y="307.584"/>
      </g>
     </g>
     <g id="text_3">
      <!-- 100 -->
      <g transform="translate(144.842361 322.182437)scale(0.1 -0.1)">
       <defs>
        <path d="M 794 531 
L 1825 531 
L 1825 4091 
L 703 3866 
L 703 4441 
L 1819 4666 
L 2450 4666 
L 2450 531 
L 3481 531 
L 3481 0 
L 794 0 
L 794 531 
z
" id="DejaVuSans-31" transform="scale(0.015625)"/>
       </defs>
       <use xlink:href="#DejaVuSans-31"/>
       <use x="63.623047" xlink:href="#DejaVuSans-30"/>
       <use x="127.246094" xlink:href="#DejaVuSans-30"/>
      </g>
     </g>
    </g>
    <g id="xtick_4">
     <g id="line2d_4">
      <g>
       <use style="stroke:#000000;stroke-width:0.8;" x="195.069638" xlink:href="#m8c4f4bbf68" y="307.584"/>
      </g>
     </g>
     <g id="text_4">
      <!-- 150 -->
      <g transform="translate(185.525888 322.182437)scale(0.1 -0.1)">
       <use xlink:href="#DejaVuSans-31"/>
       <use x="63.623047" xlink:href="#DejaVuSans-35"/>
       <use x="127.246094" xlink:href="#DejaVuSans-30"/>
      </g>
     </g>
    </g>
    <g id="xtick_5">
     <g id="line2d_5">
      <g>
       <use style="stroke:#000000;stroke-width:0.8;" x="235.753165" xlink:href="#m8c4f4bbf68" y="307.584"/>
      </g>
     </g>
     <g id="text_5">
      <!-- 200 -->
      <g transform="translate(226.209415 322.182437)scale(0.1 -0.1)">
       <defs>
        <path d="M 1228 531 
L 3431 531 
L 3431 0 
L 469 0 
L 469 531 
Q 828 903 1448 1529 
Q 2069 2156 2228 2338 
Q 2531 2678 2651 2914 
Q 2772 3150 2772 3378 
Q 2772 3750 2511 3984 
Q 2250 4219 1831 4219 
Q 1534 4219 1204 4116 
Q 875 4013 500 3803 
L 500 4441 
Q 881 4594 1212 4672 
Q 1544 4750 1819 4750 
Q 2544 4750 2975 4387 
Q 3406 4025 3406 3419 
Q 3406 3131 3298 2873 
Q 3191 2616 2906 2266 
Q 2828 2175 2409 1742 
Q 1991 1309 1228 531 
z
" id="DejaVuSans-32" transform="scale(0.015625)"/>
       </defs>
       <use xlink:href="#DejaVuSans-32"/>
       <use x="63.623047" xlink:href="#DejaVuSans-30"/>
       <use x="127.246094" xlink:href="#DejaVuSans-30"/>
      </g>
     </g>
    </g>
    <g id="xtick_6">
     <g id="line2d_6">
      <g>
       <use style="stroke:#000000;stroke-width:0.8;" x="276.436692" xlink:href="#m8c4f4bbf68" y="307.584"/>
      </g>
     </g>
     <g id="text_6">
      <!-- 250 -->
      <g transform="translate(266.892942 322.182437)scale(0.1 -0.1)">
       <use xlink:href="#DejaVuSans-32"/>
       <use x="63.623047" xlink:href="#DejaVuSans-35"/>
       <use x="127.246094" xlink:href="#DejaVuSans-30"/>
      </g>
     </g>
    </g>
    <g id="xtick_7">
     <g id="line2d_7">
      <g>
       <use style="stroke:#000000;stroke-width:0.8;" x="317.120219" xlink:href="#m8c4f4bbf68" y="307.584"/>
      </g>
     </g>
     <g id="text_7">
      <!-- 300 -->
      <g transform="translate(307.576469 322.182437)scale(0.1 -0.1)">
       <defs>
        <path d="M 2597 2516 
Q 3050 2419 3304 2112 
Q 3559 1806 3559 1356 
Q 3559 666 3084 287 
Q 2609 -91 1734 -91 
Q 1441 -91 1130 -33 
Q 819 25 488 141 
L 488 750 
Q 750 597 1062 519 
Q 1375 441 1716 441 
Q 2309 441 2620 675 
Q 2931 909 2931 1356 
Q 2931 1769 2642 2001 
Q 2353 2234 1838 2234 
L 1294 2234 
L 1294 2753 
L 1863 2753 
Q 2328 2753 2575 2939 
Q 2822 3125 2822 3475 
Q 2822 3834 2567 4026 
Q 2313 4219 1838 4219 
Q 1578 4219 1281 4162 
Q 984 4106 628 3988 
L 628 4550 
Q 988 4650 1302 4700 
Q 1616 4750 1894 4750 
Q 2613 4750 3031 4423 
Q 3450 4097 3450 3541 
Q 3450 3153 3228 2886 
Q 3006 2619 2597 2516 
z
" id="DejaVuSans-33" transform="scale(0.015625)"/>
       </defs>
       <use xlink:href="#DejaVuSans-33"/>
       <use x="63.623047" xlink:href="#DejaVuSans-30"/>
       <use x="127.246094" xlink:href="#DejaVuSans-30"/>
      </g>
     </g>
    </g>
    <g id="xtick_8">
     <g id="line2d_8">
      <g>
       <use style="stroke:#000000;stroke-width:0.8;" x="357.803746" xlink:href="#m8c4f4bbf68" y="307.584"/>
      </g>
     </g>
     <g id="text_8">
      <!-- 350 -->
      <g transform="translate(348.259996 322.182437)scale(0.1 -0.1)">
       <use xlink:href="#DejaVuSans-33"/>
       <use x="63.623047" xlink:href="#DejaVuSans-35"/>
       <use x="127.246094" xlink:href="#DejaVuSans-30"/>
      </g>
     </g>
    </g>
    <g id="xtick_9">
     <g id="line2d_9">
      <g>
       <use style="stroke:#000000;stroke-width:0.8;" x="398.487273" xlink:href="#m8c4f4bbf68" y="307.584"/>
      </g>
     </g>
     <g id="text_9">
      <!-- 400 -->
      <g transform="translate(388.943523 322.182437)scale(0.1 -0.1)">
       <defs>
        <path d="M 2419 4116 
L 825 1625 
L 2419 1625 
L 2419 4116 
z
M 2253 4666 
L 3047 4666 
L 3047 1625 
L 3713 1625 
L 3713 1100 
L 3047 1100 
L 3047 0 
L 2419 0 
L 2419 1100 
L 313 1100 
L 313 1709 
L 2253 4666 
z
" id="DejaVuSans-34" transform="scale(0.015625)"/>
       </defs>
       <use xlink:href="#DejaVuSans-34"/>
       <use x="63.623047" xlink:href="#DejaVuSans-30"/>
       <use x="127.246094" xlink:href="#DejaVuSans-30"/>
      </g>
     </g>
    </g>
    <g id="text_10">
     <!-- Epoch -->
     <g transform="translate(213.193594 339.659781)scale(0.15 -0.15)">
      <defs>
       <path d="M 628 4666 
L 3578 4666 
L 3578 4134 
L 1259 4134 
L 1259 2753 
L 3481 2753 
L 3481 2222 
L 1259 2222 
L 1259 531 
L 3634 531 
L 3634 0 
L 628 0 
L 628 4666 
z
" id="DejaVuSans-45" transform="scale(0.015625)"/>
       <path d="M 1159 525 
L 1159 -1331 
L 581 -1331 
L 581 3500 
L 1159 3500 
L 1159 2969 
Q 1341 3281 1617 3432 
Q 1894 3584 2278 3584 
Q 2916 3584 3314 3078 
Q 3713 2572 3713 1747 
Q 3713 922 3314 415 
Q 2916 -91 2278 -91 
Q 1894 -91 1617 61 
Q 1341 213 1159 525 
z
M 3116 1747 
Q 3116 2381 2855 2742 
Q 2594 3103 2138 3103 
Q 1681 3103 1420 2742 
Q 1159 2381 1159 1747 
Q 1159 1113 1420 752 
Q 1681 391 2138 391 
Q 2594 391 2855 752 
Q 3116 1113 3116 1747 
z
" id="DejaVuSans-70" transform="scale(0.015625)"/>
       <path d="M 1959 3097 
Q 1497 3097 1228 2736 
Q 959 2375 959 1747 
Q 959 1119 1226 758 
Q 1494 397 1959 397 
Q 2419 397 2687 759 
Q 2956 1122 2956 1747 
Q 2956 2369 2687 2733 
Q 2419 3097 1959 3097 
z
M 1959 3584 
Q 2709 3584 3137 3096 
Q 3566 2609 3566 1747 
Q 3566 888 3137 398 
Q 2709 -91 1959 -91 
Q 1206 -91 779 398 
Q 353 888 353 1747 
Q 353 2609 779 3096 
Q 1206 3584 1959 3584 
z
" id="DejaVuSans-6f" transform="scale(0.015625)"/>
       <path d="M 3122 3366 
L 3122 2828 
Q 2878 2963 2633 3030 
Q 2388 3097 2138 3097 
Q 1578 3097 1268 2742 
Q 959 2388 959 1747 
Q 959 1106 1268 751 
Q 1578 397 2138 397 
Q 2388 397 2633 464 
Q 2878 531 3122 666 
L 3122 134 
Q 2881 22 2623 -34 
Q 2366 -91 2075 -91 
Q 1284 -91 818 406 
Q 353 903 353 1747 
Q 353 2603 823 3093 
Q 1294 3584 2113 3584 
Q 2378 3584 2631 3529 
Q 2884 3475 3122 3366 
z
" id="DejaVuSans-63" transform="scale(0.015625)"/>
       <path d="M 3513 2113 
L 3513 0 
L 2938 0 
L 2938 2094 
Q 2938 2591 2744 2837 
Q 2550 3084 2163 3084 
Q 1697 3084 1428 2787 
Q 1159 2491 1159 1978 
L 1159 0 
L 581 0 
L 581 4863 
L 1159 4863 
L 1159 2956 
Q 1366 3272 1645 3428 
Q 1925 3584 2291 3584 
Q 2894 3584 3203 3211 
Q 3513 2838 3513 2113 
z
" id="DejaVuSans-68" transform="scale(0.015625)"/>
      </defs>
      <use xlink:href="#DejaVuSans-45"/>
      <use x="63.183594" xlink:href="#DejaVuSans-70"/>
      <use x="126.660156" xlink:href="#DejaVuSans-6f"/>
      <use x="187.841797" xlink:href="#DejaVuSans-63"/>
      <use x="242.822266" xlink:href="#DejaVuSans-68"/>
     </g>
    </g>
   </g>
   <g id="matplotlib.axis_2">
    <g id="ytick_1">
     <g id="line2d_10">
      <defs>
       <path d="M 0 0 
L -3.5 0 
" id="mce7b0ec049" style="stroke:#000000;stroke-width:0.8;"/>
      </defs>
      <g>
       <use style="stroke:#000000;stroke-width:0.8;" x="57.6" xlink:href="#mce7b0ec049" y="284.151822"/>
      </g>
     </g>
     <g id="text_11">
      <!-- −0.175 -->
      <g transform="translate(13.592188 287.951041)scale(0.1 -0.1)">
       <defs>
        <path d="M 678 2272 
L 4684 2272 
L 4684 1741 
L 678 1741 
L 678 2272 
z
" id="DejaVuSans-2212" transform="scale(0.015625)"/>
        <path d="M 684 794 
L 1344 794 
L 1344 0 
L 684 0 
L 684 794 
z
" id="DejaVuSans-2e" transform="scale(0.015625)"/>
        <path d="M 525 4666 
L 3525 4666 
L 3525 4397 
L 1831 0 
L 1172 0 
L 2766 4134 
L 525 4134 
L 525 4666 
z
" id="DejaVuSans-37" transform="scale(0.015625)"/>
       </defs>
       <use xlink:href="#DejaVuSans-2212"/>
       <use x="83.789062" xlink:href="#DejaVuSans-30"/>
       <use x="147.412109" xlink:href="#DejaVuSans-2e"/>
       <use x="179.199219" xlink:href="#DejaVuSans-31"/>
       <use x="242.822266" xlink:href="#DejaVuSans-37"/>
       <use x="306.445312" xlink:href="#DejaVuSans-35"/>
      </g>
     </g>
    </g>
    <g id="ytick_2">
     <g id="line2d_11">
      <g>
       <use style="stroke:#000000;stroke-width:0.8;" x="57.6" xlink:href="#mce7b0ec049" y="251.216745"/>
      </g>
     </g>
     <g id="text_12">
      <!-- −0.150 -->
      <g transform="translate(13.592188 255.015964)scale(0.1 -0.1)">
       <use xlink:href="#DejaVuSans-2212"/>
       <use x="83.789062" xlink:href="#DejaVuSans-30"/>
       <use x="147.412109" xlink:href="#DejaVuSans-2e"/>
       <use x="179.199219" xlink:href="#DejaVuSans-31"/>
       <use x="242.822266" xlink:href="#DejaVuSans-35"/>
       <use x="306.445312" xlink:href="#DejaVuSans-30"/>
      </g>
     </g>
    </g>
    <g id="ytick_3">
     <g id="line2d_12">
      <g>
       <use style="stroke:#000000;stroke-width:0.8;" x="57.6" xlink:href="#mce7b0ec049" y="218.281668"/>
      </g>
     </g>
     <g id="text_13">
      <!-- −0.125 -->
      <g transform="translate(13.592188 222.080887)scale(0.1 -0.1)">
       <use xlink:href="#DejaVuSans-2212"/>
       <use x="83.789062" xlink:href="#DejaVuSans-30"/>
       <use x="147.412109" xlink:href="#DejaVuSans-2e"/>
       <use x="179.199219" xlink:href="#DejaVuSans-31"/>
       <use x="242.822266" xlink:href="#DejaVuSans-32"/>
       <use x="306.445312" xlink:href="#DejaVuSans-35"/>
      </g>
     </g>
    </g>
    <g id="ytick_4">
     <g id="line2d_13">
      <g>
       <use style="stroke:#000000;stroke-width:0.8;" x="57.6" xlink:href="#mce7b0ec049" y="185.346591"/>
      </g>
     </g>
     <g id="text_14">
      <!-- −0.100 -->
      <g transform="translate(13.592188 189.14581)scale(0.1 -0.1)">
       <use xlink:href="#DejaVuSans-2212"/>
       <use x="83.789062" xlink:href="#DejaVuSans-30"/>
       <use x="147.412109" xlink:href="#DejaVuSans-2e"/>
       <use x="179.199219" xlink:href="#DejaVuSans-31"/>
       <use x="242.822266" xlink:href="#DejaVuSans-30"/>
       <use x="306.445312" xlink:href="#DejaVuSans-30"/>
      </g>
     </g>
    </g>
    <g id="ytick_5">
     <g id="line2d_14">
      <g>
       <use style="stroke:#000000;stroke-width:0.8;" x="57.6" xlink:href="#mce7b0ec049" y="152.411515"/>
      </g>
     </g>
     <g id="text_15">
      <!-- −0.075 -->
      <g transform="translate(13.592188 156.210733)scale(0.1 -0.1)">
       <use xlink:href="#DejaVuSans-2212"/>
       <use x="83.789062" xlink:href="#DejaVuSans-30"/>
       <use x="147.412109" xlink:href="#DejaVuSans-2e"/>
       <use x="179.199219" xlink:href="#DejaVuSans-30"/>
       <use x="242.822266" xlink:href="#DejaVuSans-37"/>
       <use x="306.445312" xlink:href="#DejaVuSans-35"/>
      </g>
     </g>
    </g>
    <g id="ytick_6">
     <g id="line2d_15">
      <g>
       <use style="stroke:#000000;stroke-width:0.8;" x="57.6" xlink:href="#mce7b0ec049" y="119.476438"/>
      </g>
     </g>
     <g id="text_16">
      <!-- −0.050 -->
      <g transform="translate(13.592188 123.275656)scale(0.1 -0.1)">
       <use xlink:href="#DejaVuSans-2212"/>
       <use x="83.789062" xlink:href="#DejaVuSans-30"/>
       <use x="147.412109" xlink:href="#DejaVuSans-2e"/>
       <use x="179.199219" xlink:href="#DejaVuSans-30"/>
       <use x="242.822266" xlink:href="#DejaVuSans-35"/>
       <use x="306.445312" xlink:href="#DejaVuSans-30"/>
      </g>
     </g>
    </g>
    <g id="ytick_7">
     <g id="line2d_16">
      <g>
       <use style="stroke:#000000;stroke-width:0.8;" x="57.6" xlink:href="#mce7b0ec049" y="86.541361"/>
      </g>
     </g>
     <g id="text_17">
      <!-- −0.025 -->
      <g transform="translate(13.592188 90.340579)scale(0.1 -0.1)">
       <use xlink:href="#DejaVuSans-2212"/>
       <use x="83.789062" xlink:href="#DejaVuSans-30"/>
       <use x="147.412109" xlink:href="#DejaVuSans-2e"/>
       <use x="179.199219" xlink:href="#DejaVuSans-30"/>
       <use x="242.822266" xlink:href="#DejaVuSans-32"/>
       <use x="306.445312" xlink:href="#DejaVuSans-35"/>
      </g>
     </g>
    </g>
    <g id="ytick_8">
     <g id="line2d_17">
      <g>
       <use style="stroke:#000000;stroke-width:0.8;" x="57.6" xlink:href="#mce7b0ec049" y="53.606284"/>
      </g>
     </g>
     <g id="text_18">
      <!-- 0.000 -->
      <g transform="translate(21.971875 57.405503)scale(0.1 -0.1)">
       <use xlink:href="#DejaVuSans-30"/>
       <use x="63.623047" xlink:href="#DejaVuSans-2e"/>
       <use x="95.410156" xlink:href="#DejaVuSans-30"/>
       <use x="159.033203" xlink:href="#DejaVuSans-30"/>
       <use x="222.65625" xlink:href="#DejaVuSans-30"/>
      </g>
     </g>
    </g>
    <g id="text_19">
     <!-- Loss -->
     <g transform="translate(6.472656 190.978781)rotate(-90)scale(0.15 -0.15)">
      <defs>
       <path d="M 628 4666 
L 1259 4666 
L 1259 531 
L 3531 531 
L 3531 0 
L 628 0 
L 628 4666 
z
" id="DejaVuSans-4c" transform="scale(0.015625)"/>
       <path d="M 2834 3397 
L 2834 2853 
Q 2591 2978 2328 3040 
Q 2066 3103 1784 3103 
Q 1356 3103 1142 2972 
Q 928 2841 928 2578 
Q 928 2378 1081 2264 
Q 1234 2150 1697 2047 
L 1894 2003 
Q 2506 1872 2764 1633 
Q 3022 1394 3022 966 
Q 3022 478 2636 193 
Q 2250 -91 1575 -91 
Q 1294 -91 989 -36 
Q 684 19 347 128 
L 347 722 
Q 666 556 975 473 
Q 1284 391 1588 391 
Q 1994 391 2212 530 
Q 2431 669 2431 922 
Q 2431 1156 2273 1281 
Q 2116 1406 1581 1522 
L 1381 1569 
Q 847 1681 609 1914 
Q 372 2147 372 2553 
Q 372 3047 722 3315 
Q 1072 3584 1716 3584 
Q 2034 3584 2315 3537 
Q 2597 3491 2834 3397 
z
" id="DejaVuSans-73" transform="scale(0.015625)"/>
      </defs>
      <use xlink:href="#DejaVuSans-4c"/>
      <use x="53.962891" xlink:href="#DejaVuSans-6f"/>
      <use x="115.144531" xlink:href="#DejaVuSans-73"/>
      <use x="167.244141" xlink:href="#DejaVuSans-73"/>
     </g>
    </g>
   </g>
   <g id="line2d_18">
    <path clip-path="url(#pa60ba8ecc6)" d="M 73.832727 53.586845 
L 75.460068 53.629278 
L 81.155762 53.604318 
L 98.242843 53.65786 
L 99.870185 53.891807 
L 100.683855 55.258255 
L 101.497526 54.367293 
L 102.311196 56.253924 
L 103.124867 56.967387 
L 103.938537 56.971391 
L 104.752208 57.117704 
L 105.565878 58.09353 
L 106.379549 56.611473 
L 107.193219 59.923208 
L 108.00689 59.802354 
L 108.82056 59.872829 
L 109.634231 62.445637 
L 110.447902 66.802621 
L 112.075243 72.558491 
L 112.888913 73.862309 
L 113.702584 76.207392 
L 114.516254 79.169616 
L 115.329925 77.661796 
L 116.143595 82.829689 
L 116.957266 80.949042 
L 117.770936 81.74612 
L 118.584607 80.438585 
L 119.398278 83.091815 
L 120.211948 83.049326 
L 121.025619 83.90756 
L 121.839289 77.372383 
L 122.65296 82.239461 
L 123.46663 85.888843 
L 124.280301 95.214107 
L 125.093971 91.14832 
L 125.907642 97.687493 
L 126.721312 95.192393 
L 127.534983 99.22506 
L 128.348653 107.299678 
L 129.162324 109.756151 
L 129.975995 102.973991 
L 130.789665 105.699906 
L 131.603336 116.301302 
L 132.417006 112.122411 
L 133.230677 111.543121 
L 134.044347 112.755861 
L 134.858018 122.447872 
L 135.671688 121.237429 
L 136.485359 127.35745 
L 137.299029 121.484326 
L 138.1127 129.711962 
L 138.92637 125.042513 
L 139.740041 122.311164 
L 140.553712 135.37442 
L 141.367382 138.280005 
L 142.181053 139.251794 
L 142.994723 134.042409 
L 143.808394 139.097935 
L 144.622064 148.250258 
L 145.435735 146.335625 
L 146.249405 146.342325 
L 147.063076 136.080416 
L 147.876746 148.061089 
L 148.690417 157.465314 
L 149.504087 162.295853 
L 150.317758 151.690219 
L 151.131429 152.306953 
L 151.945099 159.609418 
L 152.75877 161.245218 
L 153.57244 160.85328 
L 154.386111 153.903331 
L 155.199781 161.523981 
L 156.013452 172.796207 
L 156.827122 172.414226 
L 157.640793 163.890495 
L 158.454463 170.067079 
L 159.268134 166.33056 
L 160.081805 179.635645 
L 160.895475 171.204219 
L 161.709146 174.396628 
L 162.522816 179.610037 
L 163.336487 171.701613 
L 164.150157 178.366831 
L 164.963828 163.85212 
L 165.777498 178.26798 
L 166.591169 181.579433 
L 167.404839 180.328474 
L 168.21851 194.345204 
L 169.03218 195.487926 
L 169.845851 203.283234 
L 170.659522 186.287487 
L 171.473192 185.329171 
L 172.286863 184.914187 
L 173.100533 200.561687 
L 173.914204 180.969174 
L 174.727874 191.805713 
L 175.541545 199.461708 
L 177.168886 205.673777 
L 177.982556 192.795365 
L 178.796227 191.997605 
L 180.423568 211.349534 
L 181.237239 218.191972 
L 182.050909 197.767124 
L 182.86458 211.339512 
L 183.67825 210.375667 
L 184.491921 219.967951 
L 185.305591 212.806971 
L 186.119262 213.487413 
L 186.932932 195.65165 
L 187.746603 218.402438 
L 188.560273 204.408972 
L 189.373944 202.848158 
L 190.187614 212.571952 
L 191.001285 207.652947 
L 191.814956 225.606348 
L 192.628626 194.983807 
L 193.442297 209.240914 
L 194.255967 216.810292 
L 195.069638 233.457592 
L 195.883308 211.098522 
L 196.696979 230.552727 
L 197.510649 228.644293 
L 198.32432 229.297226 
L 199.13799 208.239314 
L 199.951661 207.512856 
L 200.765332 215.547546 
L 201.579002 221.876577 
L 202.392673 219.760015 
L 203.206343 225.133017 
L 204.020014 233.214366 
L 204.833684 231.350969 
L 205.647355 233.048991 
L 206.461025 223.268587 
L 207.274696 222.474746 
L 208.088366 225.078378 
L 208.902037 239.163782 
L 209.715707 242.015573 
L 210.529378 234.963031 
L 211.343049 239.17781 
L 212.156719 239.075498 
L 212.97039 250.125232 
L 213.78406 236.019006 
L 214.597731 225.930658 
L 215.411401 218.440864 
L 216.225072 243.316885 
L 217.038742 238.895813 
L 217.852413 249.665413 
L 218.666083 249.488264 
L 219.479754 241.638616 
L 220.293424 225.920199 
L 221.107095 224.501443 
L 221.920766 234.5663 
L 222.734436 231.498129 
L 224.361777 249.733372 
L 225.175448 232.757201 
L 225.989118 230.329513 
L 226.802789 232.081896 
L 227.616459 220.633496 
L 228.43013 239.047128 
L 229.2438 229.479635 
L 230.057471 223.688601 
L 230.871141 242.01601 
L 231.684812 234.679752 
L 232.498483 238.320948 
L 233.312153 236.896981 
L 234.125824 239.49455 
L 234.939494 258.017162 
L 235.753165 252.99614 
L 236.566835 260.779041 
L 237.380506 245.248442 
L 238.194176 247.068636 
L 239.007847 266.92267 
L 239.821517 247.098988 
L 240.635188 244.371466 
L 241.448859 253.285655 
L 242.262529 245.532867 
L 243.0762 230.191916 
L 243.88987 257.201569 
L 244.703541 234.647613 
L 245.517211 239.232139 
L 246.330882 221.605089 
L 247.144552 254.587566 
L 247.958223 253.361705 
L 248.771893 222.46215 
L 249.585564 249.444183 
L 250.399234 246.962768 
L 251.212905 250.746533 
L 252.026576 259.260102 
L 252.840246 240.948359 
L 253.653917 228.954209 
L 254.467587 264.768235 
L 255.281258 240.050386 
L 256.094928 234.962036 
L 256.908599 242.136156 
L 257.722269 246.62486 
L 258.53594 245.93813 
L 259.34961 247.834741 
L 260.163281 248.538446 
L 260.976951 240.714105 
L 261.790622 255.725663 
L 262.604293 252.476201 
L 263.417963 257.833794 
L 264.231634 232.135065 
L 265.045304 254.052182 
L 265.858975 271.49907 
L 266.672645 268.30524 
L 267.486316 248.365583 
L 268.299986 259.074302 
L 269.113657 262.947881 
L 269.927327 259.227916 
L 270.740998 241.592312 
L 271.554668 263.362763 
L 272.368339 242.471501 
L 273.18201 245.403377 
L 273.99568 236.360323 
L 274.809351 242.167041 
L 275.623021 248.775977 
L 276.436692 248.971705 
L 277.250362 260.069584 
L 278.064033 257.228318 
L 278.877703 241.051286 
L 279.691374 253.842803 
L 280.505044 260.17631 
L 281.318715 259.706924 
L 282.132386 258.230203 
L 282.946056 252.244577 
L 283.759727 268.121711 
L 284.573397 233.590494 
L 286.200738 250.057208 
L 287.014409 261.403832 
L 287.828079 245.530726 
L 288.64175 249.535854 
L 289.45542 251.89949 
L 290.269091 250.926006 
L 291.082761 246.757835 
L 291.896432 264.601623 
L 292.710103 272.039504 
L 293.523773 272.066395 
L 294.337444 252.555947 
L 295.151114 285.368441 
L 295.964785 255.807878 
L 296.778455 262.515578 
L 297.592126 250.523872 
L 298.405796 261.744563 
L 299.219467 261.332895 
L 300.033137 271.441924 
L 300.846808 259.005675 
L 301.660478 280.035447 
L 302.474149 250.88125 
L 303.28782 248.638509 
L 304.10149 248.345166 
L 304.915161 258.49219 
L 305.728831 274.602664 
L 306.542502 273.479479 
L 307.356172 267.161085 
L 308.169843 270.485206 
L 308.983513 260.29282 
L 309.797184 275.906294 
L 310.610854 249.108458 
L 311.424525 251.829114 
L 312.238195 276.803395 
L 313.051866 255.180602 
L 313.865537 252.018819 
L 314.679207 285.45949 
L 315.492878 288.080975 
L 316.306548 271.127796 
L 317.120219 259.657119 
L 317.933889 256.587491 
L 318.74756 271.313448 
L 319.56123 274.404864 
L 320.374901 263.130262 
L 321.188571 255.95622 
L 322.002242 260.744921 
L 322.815913 266.855827 
L 323.629583 265.942862 
L 324.443254 280.147915 
L 325.256924 267.036204 
L 326.070595 274.695571 
L 326.884265 265.163324 
L 327.697936 266.269732 
L 328.511606 283.939065 
L 329.325277 271.432791 
L 330.138947 250.917735 
L 330.952618 252.720478 
L 331.766288 275.031028 
L 332.579959 279.425269 
L 333.39363 280.404696 
L 334.2073 263.799758 
L 335.020971 281.220893 
L 335.834641 267.025541 
L 336.648312 272.799205 
L 337.461982 261.395935 
L 338.275653 265.081432 
L 339.089323 272.544646 
L 339.902994 258.840116 
L 340.716664 269.363084 
L 341.530335 255.703443 
L 342.344005 249.105247 
L 343.157676 252.77211 
L 343.971347 271.310995 
L 344.785017 261.789762 
L 345.598688 279.977288 
L 346.412358 263.044245 
L 347.226029 264.084414 
L 348.039699 275.958177 
L 348.85337 267.939991 
L 349.66704 284.388641 
L 350.480711 295.488 
L 351.294381 267.133833 
L 352.108052 275.549886 
L 352.921722 278.331196 
L 353.735393 264.621808 
L 354.549064 287.843666 
L 355.362734 293.966119 
L 356.176405 262.539332 
L 356.990075 276.594544 
L 357.803746 273.001083 
L 358.617416 276.315411 
L 359.431087 256.444582 
L 360.244757 242.583644 
L 361.058428 253.097942 
L 361.872098 251.673401 
L 363.49944 269.910752 
L 364.31311 268.492661 
L 365.126781 276.031653 
L 365.940451 267.208053 
L 366.754122 276.679228 
L 367.567792 272.079646 
L 368.381463 270.298564 
L 369.195133 267.185473 
L 370.008804 285.766194 
L 370.822474 279.849184 
L 371.636145 237.095835 
L 372.449815 264.257442 
L 373.263486 273.450832 
L 374.077157 261.073455 
L 374.890827 287.942537 
L 375.704498 266.879706 
L 376.518168 276.89273 
L 377.331839 258.898825 
L 378.145509 261.609254 
L 378.95918 273.852311 
L 379.77285 271.991652 
L 380.586521 273.022629 
L 381.400191 258.12356 
L 382.213862 276.195904 
L 383.027532 289.307917 
L 383.841203 264.236901 
L 384.654874 270.889721 
L 385.468544 285.960632 
L 386.282215 288.25184 
L 387.095885 261.725087 
L 387.909556 268.682091 
L 388.723226 269.65361 
L 389.536897 280.89721 
L 390.350567 277.370652 
L 391.164238 250.883558 
L 391.977908 270.513004 
L 392.791579 281.918923 
L 393.605249 278.309592 
L 394.41892 276.526677 
L 395.232591 272.308587 
L 396.046261 282.923114 
L 396.859932 266.683069 
L 397.673602 274.482305 
L 398.487273 285.368974 
L 398.487273 285.368974 
" style="fill:none;stroke:#1f77b4;stroke-linecap:square;stroke-width:1.5;"/>
   </g>
   <g id="line2d_19">
    <path clip-path="url(#pa60ba8ecc6)" d="M 73.832727 53.568 
L 76.273739 53.611876 
L 97.429173 53.620315 
L 98.242843 53.659451 
L 99.056514 53.874952 
L 99.870185 54.373612 
L 100.683855 54.352473 
L 101.497526 55.020552 
L 102.311196 55.316767 
L 103.124867 56.263251 
L 103.938537 57.445365 
L 104.752208 55.197386 
L 105.565878 54.51741 
L 106.379549 58.877578 
L 107.193219 56.514415 
L 108.00689 56.747726 
L 108.82056 59.627622 
L 109.634231 60.603158 
L 110.447902 66.245404 
L 111.261572 72.929375 
L 112.075243 68.518921 
L 112.888913 70.371874 
L 113.702584 73.367787 
L 114.516254 73.71082 
L 115.329925 73.691531 
L 116.143595 76.025479 
L 116.957266 74.840871 
L 117.770936 76.958986 
L 118.584607 83.901159 
L 119.398278 84.022913 
L 120.211948 81.835807 
L 121.025619 77.048748 
L 121.839289 81.552967 
L 123.46663 85.914749 
L 124.280301 90.774721 
L 125.093971 87.041473 
L 125.907642 99.078868 
L 126.721312 86.735165 
L 127.534983 95.072623 
L 128.348653 112.133074 
L 129.162324 103.870193 
L 129.975995 101.78968 
L 130.789665 108.651746 
L 131.603336 110.57486 
L 132.417006 110.404806 
L 133.230677 119.81291 
L 134.044347 115.629944 
L 134.858018 113.309335 
L 135.671688 118.381535 
L 136.485359 122.154491 
L 137.299029 122.904827 
L 138.1127 127.762054 
L 138.92637 134.52585 
L 139.740041 124.161244 
L 140.553712 124.424432 
L 141.367382 120.791971 
L 142.181053 124.124307 
L 142.994723 136.376438 
L 143.808394 144.583601 
L 144.622064 146.177591 
L 145.435735 134.72448 
L 146.249405 136.758664 
L 147.063076 126.967429 
L 147.876746 150.527032 
L 148.690417 148.591489 
L 149.504087 144.032736 
L 150.317758 113.814826 
L 151.131429 149.846945 
L 151.945099 155.690001 
L 152.75877 151.911964 
L 153.57244 142.675834 
L 154.386111 159.31063 
L 155.199781 152.617384 
L 156.013452 169.335417 
L 156.827122 172.145737 
L 157.640793 169.868551 
L 158.454463 155.017534 
L 159.268134 164.75902 
L 160.081805 168.706806 
L 160.895475 174.135373 
L 161.709146 186.857896 
L 162.522816 165.773372 
L 163.336487 166.094511 
L 164.150157 168.966688 
L 164.963828 169.907485 
L 165.777498 188.670859 
L 166.591169 186.226696 
L 167.404839 184.65057 
L 168.21851 169.623343 
L 169.03218 193.245266 
L 169.845851 191.009638 
L 170.659522 193.291372 
L 171.473192 183.390093 
L 172.286863 187.32758 
L 173.100533 192.67461 
L 173.914204 190.779217 
L 174.727874 196.9968 
L 175.541545 194.558196 
L 176.355215 209.788519 
L 177.168886 197.745904 
L 177.982556 192.355896 
L 178.796227 195.938973 
L 179.609897 209.921238 
L 180.423568 203.335946 
L 181.237239 206.614508 
L 182.050909 198.169149 
L 182.86458 187.359318 
L 183.67825 209.893033 
L 184.491921 192.704596 
L 185.305591 201.697495 
L 186.119262 216.717483 
L 186.932932 192.814508 
L 187.746603 214.546539 
L 188.560273 192.094029 
L 189.373944 224.600625 
L 190.187614 203.262419 
L 191.001285 190.606213 
L 191.814956 216.29133 
L 193.442297 218.82753 
L 194.255967 222.641168 
L 195.069638 202.947073 
L 195.883308 211.764483 
L 196.696979 216.636415 
L 197.510649 207.095515 
L 198.32432 211.401658 
L 199.13799 220.988385 
L 199.951661 215.391981 
L 200.765332 211.320927 
L 201.579002 218.617747 
L 202.392673 228.314895 
L 203.206343 212.603912 
L 204.020014 217.614303 
L 204.833684 218.935887 
L 205.647355 225.329256 
L 206.461025 205.92499 
L 207.274696 215.889507 
L 208.088366 234.159953 
L 208.902037 239.143166 
L 209.715707 227.808305 
L 210.529378 236.016311 
L 211.343049 217.209177 
L 212.156719 225.392015 
L 212.97039 232.035714 
L 213.78406 232.236317 
L 214.597731 232.919325 
L 215.411401 241.786601 
L 216.225072 231.691304 
L 217.038742 238.82542 
L 217.852413 224.930409 
L 218.666083 228.827057 
L 219.479754 236.646803 
L 220.293424 218.364145 
L 221.107095 222.372883 
L 221.920766 219.784077 
L 222.734436 229.834425 
L 223.548107 217.726783 
L 224.361777 230.778458 
L 225.175448 230.002577 
L 225.989118 230.717958 
L 226.802789 213.393968 
L 227.616459 235.452656 
L 228.43013 205.10762 
L 229.2438 186.487415 
L 230.057471 219.409476 
L 230.871141 226.28231 
L 231.684812 224.804799 
L 232.498483 228.361861 
L 233.312153 240.989636 
L 234.125824 228.480813 
L 234.939494 241.688423 
L 235.753165 243.406011 
L 236.566835 219.931817 
L 237.380506 234.702144 
L 238.194176 242.213197 
L 239.007847 257.077218 
L 239.821517 249.188426 
L 240.635188 245.800382 
L 241.448859 245.627054 
L 242.262529 241.089922 
L 243.0762 249.758994 
L 243.88987 228.30247 
L 244.703541 253.468334 
L 245.517211 248.065194 
L 246.330882 235.544299 
L 247.144552 249.96874 
L 247.958223 251.168126 
L 248.771893 227.175353 
L 249.585564 240.007142 
L 250.399234 248.064637 
L 251.212905 237.707223 
L 252.026576 250.348812 
L 253.653917 235.102222 
L 255.281258 244.338818 
L 256.094928 236.999165 
L 256.908599 223.642025 
L 257.722269 250.300279 
L 258.53594 240.285166 
L 259.34961 243.319308 
L 260.163281 239.348987 
L 260.976951 245.491597 
L 261.790622 241.168797 
L 262.604293 254.671984 
L 263.417963 235.62966 
L 264.231634 240.251918 
L 265.045304 254.132649 
L 265.858975 249.686164 
L 266.672645 229.292434 
L 267.486316 245.340349 
L 268.299986 264.896106 
L 269.113657 253.767406 
L 269.927327 254.731328 
L 270.740998 236.473224 
L 271.554668 255.633422 
L 272.368339 227.016124 
L 273.18201 193.403926 
L 273.99568 229.955345 
L 274.809351 244.360631 
L 275.623021 255.581244 
L 276.436692 251.699283 
L 277.250362 248.391835 
L 278.064033 230.336116 
L 278.877703 250.128283 
L 279.691374 246.35828 
L 280.505044 236.004732 
L 281.318715 254.515068 
L 282.132386 250.428907 
L 282.946056 247.135173 
L 283.759727 250.002381 
L 284.573397 239.793486 
L 285.387068 242.444476 
L 286.200738 242.437845 
L 287.014409 249.979251 
L 287.828079 246.601285 
L 288.64175 241.757782 
L 289.45542 247.165682 
L 290.269091 242.898466 
L 291.082761 254.652547 
L 291.896432 251.13168 
L 292.710103 257.646397 
L 293.523773 249.70392 
L 294.337444 256.654712 
L 295.151114 260.07811 
L 295.964785 250.5649 
L 296.778455 237.479629 
L 297.592126 242.372744 
L 298.405796 226.816792 
L 299.219467 254.336996 
L 300.033137 244.254495 
L 300.846808 259.849786 
L 301.660478 248.929059 
L 302.474149 252.242212 
L 303.28782 250.974234 
L 304.10149 266.684177 
L 304.915161 224.787784 
L 305.728831 261.41245 
L 306.542502 257.760907 
L 307.356172 267.66286 
L 308.169843 268.169269 
L 308.983513 250.114763 
L 309.797184 269.590887 
L 310.610854 258.417799 
L 311.424525 262.607403 
L 312.238195 252.863309 
L 313.051866 264.561359 
L 313.865537 251.725504 
L 314.679207 254.875401 
L 315.492878 266.150755 
L 316.306548 263.920015 
L 317.120219 248.122771 
L 317.933889 259.557104 
L 318.74756 264.802557 
L 319.56123 264.774849 
L 320.374901 252.415935 
L 321.188571 267.742658 
L 322.002242 260.524365 
L 322.815913 264.394202 
L 323.629583 273.79033 
L 324.443254 265.248685 
L 325.256924 271.42371 
L 326.070595 261.025794 
L 326.884265 254.774434 
L 327.697936 256.050018 
L 328.511606 258.39976 
L 329.325277 284.502025 
L 330.138947 246.941311 
L 330.952618 246.800126 
L 331.766288 266.379628 
L 332.579959 257.416292 
L 333.39363 251.546693 
L 334.2073 258.668656 
L 335.020971 264.027872 
L 335.834641 264.588336 
L 336.648312 256.096869 
L 337.461982 259.493785 
L 338.275653 248.717266 
L 339.089323 274.167929 
L 339.902994 258.353086 
L 340.716664 262.514397 
L 341.530335 251.842252 
L 342.344005 264.972605 
L 343.157676 260.064518 
L 343.971347 256.962884 
L 344.785017 250.906575 
L 345.598688 269.623883 
L 346.412358 241.855678 
L 347.226029 267.718718 
L 348.039699 270.460177 
L 348.85337 270.604139 
L 349.66704 265.978425 
L 350.480711 246.717207 
L 351.294381 244.092325 
L 352.108052 257.046909 
L 352.921722 267.678973 
L 353.735393 260.227746 
L 354.549064 280.506938 
L 355.362734 260.478101 
L 356.176405 250.601764 
L 356.990075 251.028503 
L 357.803746 260.046184 
L 358.617416 263.707465 
L 359.431087 270.292223 
L 360.244757 248.232491 
L 361.058428 265.79662 
L 361.872098 248.801196 
L 362.685769 265.672507 
L 363.49944 259.7671 
L 364.31311 263.006241 
L 365.126781 266.94335 
L 365.940451 269.928207 
L 366.754122 272.250554 
L 367.567792 261.974911 
L 368.381463 255.358063 
L 369.195133 267.664909 
L 370.008804 266.007393 
L 370.822474 261.083316 
L 371.636145 254.221525 
L 372.449815 245.914743 
L 373.263486 261.375685 
L 374.890827 254.139242 
L 375.704498 274.05537 
L 376.518168 272.321321 
L 377.331839 266.138092 
L 378.145509 258.72335 
L 379.77285 276.610151 
L 380.586521 263.814559 
L 381.400191 249.264277 
L 382.213862 267.701647 
L 383.027532 245.779071 
L 383.841203 262.537663 
L 384.654874 259.883114 
L 385.468544 268.27481 
L 386.282215 268.954259 
L 387.095885 257.05197 
L 387.909556 276.102447 
L 388.723226 270.399973 
L 389.536897 283.887622 
L 390.350567 263.2701 
L 391.164238 262.286396 
L 391.977908 256.21561 
L 392.791579 262.411933 
L 393.605249 255.105413 
L 394.41892 256.41878 
L 395.232591 252.842564 
L 396.046261 269.013104 
L 396.859932 256.250444 
L 397.673602 267.214462 
L 398.487273 232.850194 
L 398.487273 232.850194 
" style="fill:none;stroke:#ff7f0e;stroke-linecap:square;stroke-width:1.5;"/>
   </g>
   <g id="patch_3">
    <path d="M 57.6 307.584 
L 57.6 41.472 
" style="fill:none;stroke:#000000;stroke-linecap:square;stroke-linejoin:miter;stroke-width:0.8;"/>
   </g>
   <g id="patch_4">
    <path d="M 414.72 307.584 
L 414.72 41.472 
" style="fill:none;stroke:#000000;stroke-linecap:square;stroke-linejoin:miter;stroke-width:0.8;"/>
   </g>
   <g id="patch_5">
    <path d="M 57.6 307.584 
L 414.72 307.584 
" style="fill:none;stroke:#000000;stroke-linecap:square;stroke-linejoin:miter;stroke-width:0.8;"/>
   </g>
   <g id="patch_6">
    <path d="M 57.6 41.472 
L 414.72 41.472 
" style="fill:none;stroke:#000000;stroke-linecap:square;stroke-linejoin:miter;stroke-width:0.8;"/>
   </g>
   <g id="legend_1">
    <g id="patch_7">
     <path d="M 303.845 78.82825 
L 407.72 78.82825 
Q 409.72 78.82825 409.72 76.82825 
L 409.72 48.472 
Q 409.72 46.472 407.72 46.472 
L 303.845 46.472 
Q 301.845 46.472 301.845 48.472 
L 301.845 76.82825 
Q 301.845 78.82825 303.845 78.82825 
z
" style="fill:#ffffff;opacity:0.8;stroke:#cccccc;stroke-linejoin:miter;"/>
    </g>
    <g id="line2d_20">
     <path d="M 305.845 54.570437 
L 325.845 54.570437 
" style="fill:none;stroke:#1f77b4;stroke-linecap:square;stroke-width:1.5;"/>
    </g>
    <g id="line2d_21"/>
    <g id="text_20">
     <!-- Train loss -->
     <g transform="translate(333.845 58.070437)scale(0.1 -0.1)">
      <defs>
       <path d="M -19 4666 
L 3928 4666 
L 3928 4134 
L 2272 4134 
L 2272 0 
L 1638 0 
L 1638 4134 
L -19 4134 
L -19 4666 
z
" id="DejaVuSans-54" transform="scale(0.015625)"/>
       <path d="M 2631 2963 
Q 2534 3019 2420 3045 
Q 2306 3072 2169 3072 
Q 1681 3072 1420 2755 
Q 1159 2438 1159 1844 
L 1159 0 
L 581 0 
L 581 3500 
L 1159 3500 
L 1159 2956 
Q 1341 3275 1631 3429 
Q 1922 3584 2338 3584 
Q 2397 3584 2469 3576 
Q 2541 3569 2628 3553 
L 2631 2963 
z
" id="DejaVuSans-72" transform="scale(0.015625)"/>
       <path d="M 2194 1759 
Q 1497 1759 1228 1600 
Q 959 1441 959 1056 
Q 959 750 1161 570 
Q 1363 391 1709 391 
Q 2188 391 2477 730 
Q 2766 1069 2766 1631 
L 2766 1759 
L 2194 1759 
z
M 3341 1997 
L 3341 0 
L 2766 0 
L 2766 531 
Q 2569 213 2275 61 
Q 1981 -91 1556 -91 
Q 1019 -91 701 211 
Q 384 513 384 1019 
Q 384 1609 779 1909 
Q 1175 2209 1959 2209 
L 2766 2209 
L 2766 2266 
Q 2766 2663 2505 2880 
Q 2244 3097 1772 3097 
Q 1472 3097 1187 3025 
Q 903 2953 641 2809 
L 641 3341 
Q 956 3463 1253 3523 
Q 1550 3584 1831 3584 
Q 2591 3584 2966 3190 
Q 3341 2797 3341 1997 
z
" id="DejaVuSans-61" transform="scale(0.015625)"/>
       <path d="M 603 3500 
L 1178 3500 
L 1178 0 
L 603 0 
L 603 3500 
z
M 603 4863 
L 1178 4863 
L 1178 4134 
L 603 4134 
L 603 4863 
z
" id="DejaVuSans-69" transform="scale(0.015625)"/>
       <path d="M 3513 2113 
L 3513 0 
L 2938 0 
L 2938 2094 
Q 2938 2591 2744 2837 
Q 2550 3084 2163 3084 
Q 1697 3084 1428 2787 
Q 1159 2491 1159 1978 
L 1159 0 
L 581 0 
L 581 3500 
L 1159 3500 
L 1159 2956 
Q 1366 3272 1645 3428 
Q 1925 3584 2291 3584 
Q 2894 3584 3203 3211 
Q 3513 2838 3513 2113 
z
" id="DejaVuSans-6e" transform="scale(0.015625)"/>
       <path id="DejaVuSans-20" transform="scale(0.015625)"/>
       <path d="M 603 4863 
L 1178 4863 
L 1178 0 
L 603 0 
L 603 4863 
z
" id="DejaVuSans-6c" transform="scale(0.015625)"/>
      </defs>
      <use xlink:href="#DejaVuSans-54"/>
      <use x="46.333984" xlink:href="#DejaVuSans-72"/>
      <use x="87.447266" xlink:href="#DejaVuSans-61"/>
      <use x="148.726562" xlink:href="#DejaVuSans-69"/>
      <use x="176.509766" xlink:href="#DejaVuSans-6e"/>
      <use x="239.888672" xlink:href="#DejaVuSans-20"/>
      <use x="271.675781" xlink:href="#DejaVuSans-6c"/>
      <use x="299.458984" xlink:href="#DejaVuSans-6f"/>
      <use x="360.640625" xlink:href="#DejaVuSans-73"/>
      <use x="412.740234" xlink:href="#DejaVuSans-73"/>
     </g>
    </g>
    <g id="line2d_22">
     <path d="M 305.845 69.248562 
L 325.845 69.248562 
" style="fill:none;stroke:#ff7f0e;stroke-linecap:square;stroke-width:1.5;"/>
    </g>
    <g id="line2d_23"/>
    <g id="text_21">
     <!-- Validation loss -->
     <g transform="translate(333.845 72.748562)scale(0.1 -0.1)">
      <defs>
       <path d="M 1831 0 
L 50 4666 
L 709 4666 
L 2188 738 
L 3669 4666 
L 4325 4666 
L 2547 0 
L 1831 0 
z
" id="DejaVuSans-56" transform="scale(0.015625)"/>
       <path d="M 2906 2969 
L 2906 4863 
L 3481 4863 
L 3481 0 
L 2906 0 
L 2906 525 
Q 2725 213 2448 61 
Q 2172 -91 1784 -91 
Q 1150 -91 751 415 
Q 353 922 353 1747 
Q 353 2572 751 3078 
Q 1150 3584 1784 3584 
Q 2172 3584 2448 3432 
Q 2725 3281 2906 2969 
z
M 947 1747 
Q 947 1113 1208 752 
Q 1469 391 1925 391 
Q 2381 391 2643 752 
Q 2906 1113 2906 1747 
Q 2906 2381 2643 2742 
Q 2381 3103 1925 3103 
Q 1469 3103 1208 2742 
Q 947 2381 947 1747 
z
" id="DejaVuSans-64" transform="scale(0.015625)"/>
       <path d="M 1172 4494 
L 1172 3500 
L 2356 3500 
L 2356 3053 
L 1172 3053 
L 1172 1153 
Q 1172 725 1289 603 
Q 1406 481 1766 481 
L 2356 481 
L 2356 0 
L 1766 0 
Q 1100 0 847 248 
Q 594 497 594 1153 
L 594 3053 
L 172 3053 
L 172 3500 
L 594 3500 
L 594 4494 
L 1172 4494 
z
" id="DejaVuSans-74" transform="scale(0.015625)"/>
      </defs>
      <use xlink:href="#DejaVuSans-56"/>
      <use x="60.658203" xlink:href="#DejaVuSans-61"/>
      <use x="121.9375" xlink:href="#DejaVuSans-6c"/>
      <use x="149.720703" xlink:href="#DejaVuSans-69"/>
      <use x="177.503906" xlink:href="#DejaVuSans-64"/>
      <use x="240.980469" xlink:href="#DejaVuSans-61"/>
      <use x="302.259766" xlink:href="#DejaVuSans-74"/>
      <use x="341.46875" xlink:href="#DejaVuSans-69"/>
      <use x="369.251953" xlink:href="#DejaVuSans-6f"/>
      <use x="430.433594" xlink:href="#DejaVuSans-6e"/>
      <use x="493.8125" xlink:href="#DejaVuSans-20"/>
      <use x="525.599609" xlink:href="#DejaVuSans-6c"/>
      <use x="553.382812" xlink:href="#DejaVuSans-6f"/>
      <use x="614.564453" xlink:href="#DejaVuSans-73"/>
      <use x="666.664062" xlink:href="#DejaVuSans-73"/>
     </g>
    </g>
   </g>
  </g>
 </g>
 <defs>
  <clipPath id="pa60ba8ecc6">
   <rect height="266.112" width="357.12" x="57.6" y="41.472"/>
  </clipPath>
 </defs>
</svg>
