<?xml version="1.0" encoding="utf-8" standalone="no"?>
<!DOCTYPE svg PUBLIC "-//W3C//DTD SVG 1.1//EN"
  "http://www.w3.org/Graphics/SVG/1.1/DTD/svg11.dtd">
<svg height="345.6pt" version="1.1" viewBox="0 0 460.8 345.6" width="460.8pt" xmlns="http://www.w3.org/2000/svg" xmlns:xlink="http://www.w3.org/1999/xlink">
 <metadata>
  <rdf:RDF xmlns:cc="http://creativecommons.org/ns#" xmlns:dc="http://purl.org/dc/elements/1.1/" xmlns:rdf="http://www.w3.org/1999/02/22-rdf-syntax-ns#">
   <cc:Work>
    <dc:type rdf:resource="http://purl.org/dc/dcmitype/StillImage"/>
    <dc:date>2021-05-09T10:42:37.475158</dc:date>
    <dc:format>image/svg+xml</dc:format>
    <dc:creator>
     <cc:Agent>
      <dc:title>Matplotlib v3.4.1, https://matplotlib.org/</dc:title>
     </cc:Agent>
    </dc:creator>
   </cc:Work>
  </rdf:RDF>
 </metadata>
 <defs>
  <style type="text/css">*{stroke-linecap:butt;stroke-linejoin:round;}</style>
 </defs>
 <g id="figure_1">
  <g id="patch_1">
   <path d="M 0 345.6 
L 460.8 345.6 
L 460.8 0 
L 0 0 
z
" style="fill:#ffffff;"/>
  </g>
  <g id="axes_1">
   <g id="patch_2">
    <path d="M 57.6 307.584 
L 414.72 307.584 
L 414.72 41.472 
L 57.6 41.472 
z
" style="fill:#ffffff;"/>
   </g>
   <g id="matplotlib.axis_1">
    <g id="xtick_1">
     <g id="line2d_1">
      <defs>
       <path d="M 0 0 
L 0 3.5 
" id="m3f453dc9af" style="stroke:#000000;stroke-width:0.8;"/>
      </defs>
      <g>
       <use style="stroke:#000000;stroke-width:0.8;" x="73.507748" xlink:href="#m3f453dc9af" y="307.584"/>
      </g>
     </g>
     <g id="text_1">
      <!-- 0 -->
      <g transform="translate(70.326498 322.182437)scale(0.1 -0.1)">
       <defs>
        <path d="M 2034 4250 
Q 1547 4250 1301 3770 
Q 1056 3291 1056 2328 
Q 1056 1369 1301 889 
Q 1547 409 2034 409 
Q 2525 409 2770 889 
Q 3016 1369 3016 2328 
Q 3016 3291 2770 3770 
Q 2525 4250 2034 4250 
z
M 2034 4750 
Q 2819 4750 3233 4129 
Q 3647 3509 3647 2328 
Q 3647 1150 3233 529 
Q 2819 -91 2034 -91 
Q 1250 -91 836 529 
Q 422 1150 422 2328 
Q 422 3509 836 4129 
Q 1250 4750 2034 4750 
z
" id="DejaVuSans-30" transform="scale(0.015625)"/>
       </defs>
       <use xlink:href="#DejaVuSans-30"/>
      </g>
     </g>
    </g>
    <g id="xtick_2">
     <g id="line2d_2">
      <g>
       <use style="stroke:#000000;stroke-width:0.8;" x="138.503653" xlink:href="#m3f453dc9af" y="307.584"/>
      </g>
     </g>
     <g id="text_2">
      <!-- 200 -->
      <g transform="translate(128.959903 322.182437)scale(0.1 -0.1)">
       <defs>
        <path d="M 1228 531 
L 3431 531 
L 3431 0 
L 469 0 
L 469 531 
Q 828 903 1448 1529 
Q 2069 2156 2228 2338 
Q 2531 2678 2651 2914 
Q 2772 3150 2772 3378 
Q 2772 3750 2511 3984 
Q 2250 4219 1831 4219 
Q 1534 4219 1204 4116 
Q 875 4013 500 3803 
L 500 4441 
Q 881 4594 1212 4672 
Q 1544 4750 1819 4750 
Q 2544 4750 2975 4387 
Q 3406 4025 3406 3419 
Q 3406 3131 3298 2873 
Q 3191 2616 2906 2266 
Q 2828 2175 2409 1742 
Q 1991 1309 1228 531 
z
" id="DejaVuSans-32" transform="scale(0.015625)"/>
       </defs>
       <use xlink:href="#DejaVuSans-32"/>
       <use x="63.623047" xlink:href="#DejaVuSans-30"/>
       <use x="127.246094" xlink:href="#DejaVuSans-30"/>
      </g>
     </g>
    </g>
    <g id="xtick_3">
     <g id="line2d_3">
      <g>
       <use style="stroke:#000000;stroke-width:0.8;" x="203.499558" xlink:href="#m3f453dc9af" y="307.584"/>
      </g>
     </g>
     <g id="text_3">
      <!-- 400 -->
      <g transform="translate(193.955808 322.182437)scale(0.1 -0.1)">
       <defs>
        <path d="M 2419 4116 
L 825 1625 
L 2419 1625 
L 2419 4116 
z
M 2253 4666 
L 3047 4666 
L 3047 1625 
L 3713 1625 
L 3713 1100 
L 3047 1100 
L 3047 0 
L 2419 0 
L 2419 1100 
L 313 1100 
L 313 1709 
L 2253 4666 
z
" id="DejaVuSans-34" transform="scale(0.015625)"/>
       </defs>
       <use xlink:href="#DejaVuSans-34"/>
       <use x="63.623047" xlink:href="#DejaVuSans-30"/>
       <use x="127.246094" xlink:href="#DejaVuSans-30"/>
      </g>
     </g>
    </g>
    <g id="xtick_4">
     <g id="line2d_4">
      <g>
       <use style="stroke:#000000;stroke-width:0.8;" x="268.495463" xlink:href="#m3f453dc9af" y="307.584"/>
      </g>
     </g>
     <g id="text_4">
      <!-- 600 -->
      <g transform="translate(258.951713 322.182437)scale(0.1 -0.1)">
       <defs>
        <path d="M 2113 2584 
Q 1688 2584 1439 2293 
Q 1191 2003 1191 1497 
Q 1191 994 1439 701 
Q 1688 409 2113 409 
Q 2538 409 2786 701 
Q 3034 994 3034 1497 
Q 3034 2003 2786 2293 
Q 2538 2584 2113 2584 
z
M 3366 4563 
L 3366 3988 
Q 3128 4100 2886 4159 
Q 2644 4219 2406 4219 
Q 1781 4219 1451 3797 
Q 1122 3375 1075 2522 
Q 1259 2794 1537 2939 
Q 1816 3084 2150 3084 
Q 2853 3084 3261 2657 
Q 3669 2231 3669 1497 
Q 3669 778 3244 343 
Q 2819 -91 2113 -91 
Q 1303 -91 875 529 
Q 447 1150 447 2328 
Q 447 3434 972 4092 
Q 1497 4750 2381 4750 
Q 2619 4750 2861 4703 
Q 3103 4656 3366 4563 
z
" id="DejaVuSans-36" transform="scale(0.015625)"/>
       </defs>
       <use xlink:href="#DejaVuSans-36"/>
       <use x="63.623047" xlink:href="#DejaVuSans-30"/>
       <use x="127.246094" xlink:href="#DejaVuSans-30"/>
      </g>
     </g>
    </g>
    <g id="xtick_5">
     <g id="line2d_5">
      <g>
       <use style="stroke:#000000;stroke-width:0.8;" x="333.491368" xlink:href="#m3f453dc9af" y="307.584"/>
      </g>
     </g>
     <g id="text_5">
      <!-- 800 -->
      <g transform="translate(323.947618 322.182437)scale(0.1 -0.1)">
       <defs>
        <path d="M 2034 2216 
Q 1584 2216 1326 1975 
Q 1069 1734 1069 1313 
Q 1069 891 1326 650 
Q 1584 409 2034 409 
Q 2484 409 2743 651 
Q 3003 894 3003 1313 
Q 3003 1734 2745 1975 
Q 2488 2216 2034 2216 
z
M 1403 2484 
Q 997 2584 770 2862 
Q 544 3141 544 3541 
Q 544 4100 942 4425 
Q 1341 4750 2034 4750 
Q 2731 4750 3128 4425 
Q 3525 4100 3525 3541 
Q 3525 3141 3298 2862 
Q 3072 2584 2669 2484 
Q 3125 2378 3379 2068 
Q 3634 1759 3634 1313 
Q 3634 634 3220 271 
Q 2806 -91 2034 -91 
Q 1263 -91 848 271 
Q 434 634 434 1313 
Q 434 1759 690 2068 
Q 947 2378 1403 2484 
z
M 1172 3481 
Q 1172 3119 1398 2916 
Q 1625 2713 2034 2713 
Q 2441 2713 2670 2916 
Q 2900 3119 2900 3481 
Q 2900 3844 2670 4047 
Q 2441 4250 2034 4250 
Q 1625 4250 1398 4047 
Q 1172 3844 1172 3481 
z
" id="DejaVuSans-38" transform="scale(0.015625)"/>
       </defs>
       <use xlink:href="#DejaVuSans-38"/>
       <use x="63.623047" xlink:href="#DejaVuSans-30"/>
       <use x="127.246094" xlink:href="#DejaVuSans-30"/>
      </g>
     </g>
    </g>
    <g id="xtick_6">
     <g id="line2d_6">
      <g>
       <use style="stroke:#000000;stroke-width:0.8;" x="398.487273" xlink:href="#m3f453dc9af" y="307.584"/>
      </g>
     </g>
     <g id="text_6">
      <!-- 1000 -->
      <g transform="translate(385.762273 322.182437)scale(0.1 -0.1)">
       <defs>
        <path d="M 794 531 
L 1825 531 
L 1825 4091 
L 703 3866 
L 703 4441 
L 1819 4666 
L 2450 4666 
L 2450 531 
L 3481 531 
L 3481 0 
L 794 0 
L 794 531 
z
" id="DejaVuSans-31" transform="scale(0.015625)"/>
       </defs>
       <use xlink:href="#DejaVuSans-31"/>
       <use x="63.623047" xlink:href="#DejaVuSans-30"/>
       <use x="127.246094" xlink:href="#DejaVuSans-30"/>
       <use x="190.869141" xlink:href="#DejaVuSans-30"/>
      </g>
     </g>
    </g>
    <g id="text_7">
     <!-- Epoch -->
     <g transform="translate(213.193594 339.659781)scale(0.15 -0.15)">
      <defs>
       <path d="M 628 4666 
L 3578 4666 
L 3578 4134 
L 1259 4134 
L 1259 2753 
L 3481 2753 
L 3481 2222 
L 1259 2222 
L 1259 531 
L 3634 531 
L 3634 0 
L 628 0 
L 628 4666 
z
" id="DejaVuSans-45" transform="scale(0.015625)"/>
       <path d="M 1159 525 
L 1159 -1331 
L 581 -1331 
L 581 3500 
L 1159 3500 
L 1159 2969 
Q 1341 3281 1617 3432 
Q 1894 3584 2278 3584 
Q 2916 3584 3314 3078 
Q 3713 2572 3713 1747 
Q 3713 922 3314 415 
Q 2916 -91 2278 -91 
Q 1894 -91 1617 61 
Q 1341 213 1159 525 
z
M 3116 1747 
Q 3116 2381 2855 2742 
Q 2594 3103 2138 3103 
Q 1681 3103 1420 2742 
Q 1159 2381 1159 1747 
Q 1159 1113 1420 752 
Q 1681 391 2138 391 
Q 2594 391 2855 752 
Q 3116 1113 3116 1747 
z
" id="DejaVuSans-70" transform="scale(0.015625)"/>
       <path d="M 1959 3097 
Q 1497 3097 1228 2736 
Q 959 2375 959 1747 
Q 959 1119 1226 758 
Q 1494 397 1959 397 
Q 2419 397 2687 759 
Q 2956 1122 2956 1747 
Q 2956 2369 2687 2733 
Q 2419 3097 1959 3097 
z
M 1959 3584 
Q 2709 3584 3137 3096 
Q 3566 2609 3566 1747 
Q 3566 888 3137 398 
Q 2709 -91 1959 -91 
Q 1206 -91 779 398 
Q 353 888 353 1747 
Q 353 2609 779 3096 
Q 1206 3584 1959 3584 
z
" id="DejaVuSans-6f" transform="scale(0.015625)"/>
       <path d="M 3122 3366 
L 3122 2828 
Q 2878 2963 2633 3030 
Q 2388 3097 2138 3097 
Q 1578 3097 1268 2742 
Q 959 2388 959 1747 
Q 959 1106 1268 751 
Q 1578 397 2138 397 
Q 2388 397 2633 464 
Q 2878 531 3122 666 
L 3122 134 
Q 2881 22 2623 -34 
Q 2366 -91 2075 -91 
Q 1284 -91 818 406 
Q 353 903 353 1747 
Q 353 2603 823 3093 
Q 1294 3584 2113 3584 
Q 2378 3584 2631 3529 
Q 2884 3475 3122 3366 
z
" id="DejaVuSans-63" transform="scale(0.015625)"/>
       <path d="M 3513 2113 
L 3513 0 
L 2938 0 
L 2938 2094 
Q 2938 2591 2744 2837 
Q 2550 3084 2163 3084 
Q 1697 3084 1428 2787 
Q 1159 2491 1159 1978 
L 1159 0 
L 581 0 
L 581 4863 
L 1159 4863 
L 1159 2956 
Q 1366 3272 1645 3428 
Q 1925 3584 2291 3584 
Q 2894 3584 3203 3211 
Q 3513 2838 3513 2113 
z
" id="DejaVuSans-68" transform="scale(0.015625)"/>
      </defs>
      <use xlink:href="#DejaVuSans-45"/>
      <use x="63.183594" xlink:href="#DejaVuSans-70"/>
      <use x="126.660156" xlink:href="#DejaVuSans-6f"/>
      <use x="187.841797" xlink:href="#DejaVuSans-63"/>
      <use x="242.822266" xlink:href="#DejaVuSans-68"/>
     </g>
    </g>
   </g>
   <g id="matplotlib.axis_2">
    <g id="ytick_1">
     <g id="line2d_7">
      <defs>
       <path d="M 0 0 
L -3.5 0 
" id="m014f7befa7" style="stroke:#000000;stroke-width:0.8;"/>
      </defs>
      <g>
       <use style="stroke:#000000;stroke-width:0.8;" x="57.6" xlink:href="#m014f7befa7" y="295.493084"/>
      </g>
     </g>
     <g id="text_8">
      <!-- 0 -->
      <g transform="translate(44.2375 299.292303)scale(0.1 -0.1)">
       <use xlink:href="#DejaVuSans-30"/>
      </g>
     </g>
    </g>
    <g id="ytick_2">
     <g id="line2d_8">
      <g>
       <use style="stroke:#000000;stroke-width:0.8;" x="57.6" xlink:href="#m014f7befa7" y="245.520538"/>
      </g>
     </g>
     <g id="text_9">
      <!-- 5 -->
      <g transform="translate(44.2375 249.319757)scale(0.1 -0.1)">
       <defs>
        <path d="M 691 4666 
L 3169 4666 
L 3169 4134 
L 1269 4134 
L 1269 2991 
Q 1406 3038 1543 3061 
Q 1681 3084 1819 3084 
Q 2600 3084 3056 2656 
Q 3513 2228 3513 1497 
Q 3513 744 3044 326 
Q 2575 -91 1722 -91 
Q 1428 -91 1123 -41 
Q 819 9 494 109 
L 494 744 
Q 775 591 1075 516 
Q 1375 441 1709 441 
Q 2250 441 2565 725 
Q 2881 1009 2881 1497 
Q 2881 1984 2565 2268 
Q 2250 2553 1709 2553 
Q 1456 2553 1204 2497 
Q 953 2441 691 2322 
L 691 4666 
z
" id="DejaVuSans-35" transform="scale(0.015625)"/>
       </defs>
       <use xlink:href="#DejaVuSans-35"/>
      </g>
     </g>
    </g>
    <g id="ytick_3">
     <g id="line2d_9">
      <g>
       <use style="stroke:#000000;stroke-width:0.8;" x="57.6" xlink:href="#m014f7befa7" y="195.547991"/>
      </g>
     </g>
     <g id="text_10">
      <!-- 10 -->
      <g transform="translate(37.875 199.34721)scale(0.1 -0.1)">
       <use xlink:href="#DejaVuSans-31"/>
       <use x="63.623047" xlink:href="#DejaVuSans-30"/>
      </g>
     </g>
    </g>
    <g id="ytick_4">
     <g id="line2d_10">
      <g>
       <use style="stroke:#000000;stroke-width:0.8;" x="57.6" xlink:href="#m014f7befa7" y="145.575445"/>
      </g>
     </g>
     <g id="text_11">
      <!-- 15 -->
      <g transform="translate(37.875 149.374664)scale(0.1 -0.1)">
       <use xlink:href="#DejaVuSans-31"/>
       <use x="63.623047" xlink:href="#DejaVuSans-35"/>
      </g>
     </g>
    </g>
    <g id="ytick_5">
     <g id="line2d_11">
      <g>
       <use style="stroke:#000000;stroke-width:0.8;" x="57.6" xlink:href="#m014f7befa7" y="95.602898"/>
      </g>
     </g>
     <g id="text_12">
      <!-- 20 -->
      <g transform="translate(37.875 99.402117)scale(0.1 -0.1)">
       <use xlink:href="#DejaVuSans-32"/>
       <use x="63.623047" xlink:href="#DejaVuSans-30"/>
      </g>
     </g>
    </g>
    <g id="ytick_6">
     <g id="line2d_12">
      <g>
       <use style="stroke:#000000;stroke-width:0.8;" x="57.6" xlink:href="#m014f7befa7" y="45.630352"/>
      </g>
     </g>
     <g id="text_13">
      <!-- 25 -->
      <g transform="translate(37.875 49.42957)scale(0.1 -0.1)">
       <use xlink:href="#DejaVuSans-32"/>
       <use x="63.623047" xlink:href="#DejaVuSans-35"/>
      </g>
     </g>
    </g>
    <g id="text_14">
     <!-- Loss -->
     <g transform="translate(30.755469 190.978781)rotate(-90)scale(0.15 -0.15)">
      <defs>
       <path d="M 628 4666 
L 1259 4666 
L 1259 531 
L 3531 531 
L 3531 0 
L 628 0 
L 628 4666 
z
" id="DejaVuSans-4c" transform="scale(0.015625)"/>
       <path d="M 2834 3397 
L 2834 2853 
Q 2591 2978 2328 3040 
Q 2066 3103 1784 3103 
Q 1356 3103 1142 2972 
Q 928 2841 928 2578 
Q 928 2378 1081 2264 
Q 1234 2150 1697 2047 
L 1894 2003 
Q 2506 1872 2764 1633 
Q 3022 1394 3022 966 
Q 3022 478 2636 193 
Q 2250 -91 1575 -91 
Q 1294 -91 989 -36 
Q 684 19 347 128 
L 347 722 
Q 666 556 975 473 
Q 1284 391 1588 391 
Q 1994 391 2212 530 
Q 2431 669 2431 922 
Q 2431 1156 2273 1281 
Q 2116 1406 1581 1522 
L 1381 1569 
Q 847 1681 609 1914 
Q 372 2147 372 2553 
Q 372 3047 722 3315 
Q 1072 3584 1716 3584 
Q 2034 3584 2315 3537 
Q 2597 3491 2834 3397 
z
" id="DejaVuSans-73" transform="scale(0.015625)"/>
      </defs>
      <use xlink:href="#DejaVuSans-4c"/>
      <use x="53.962891" xlink:href="#DejaVuSans-6f"/>
      <use x="115.144531" xlink:href="#DejaVuSans-73"/>
      <use x="167.244141" xlink:href="#DejaVuSans-73"/>
     </g>
    </g>
   </g>
   <g id="line2d_13">
    <path clip-path="url(#p7b8a296ea7)" d="M 73.832727 271.790595 
L 74.157707 271.015183 
L 74.482686 272.056443 
L 74.807666 272.166375 
L 75.132645 272.49175 
L 75.782604 272.548362 
L 77.082523 273.034793 
L 77.407502 273.22024 
L 77.732482 272.804976 
L 78.057461 273.132977 
L 78.382441 274.272183 
L 78.70742 272.439176 
L 79.0324 273.988589 
L 79.357379 274.03216 
L 79.682359 274.512784 
L 80.007338 274.784077 
L 80.332318 275.249348 
L 80.657297 275.915661 
L 80.982277 275.466821 
L 81.632236 277.65688 
L 81.957215 277.408616 
L 82.282195 274.437562 
L 82.607174 276.052074 
L 82.932154 278.797104 
L 83.257133 277.304937 
L 83.907093 279.587013 
L 84.232072 278.241528 
L 84.557052 278.543168 
L 85.207011 280.590122 
L 85.53199 279.983129 
L 85.85697 278.996105 
L 86.506929 281.375634 
L 86.831908 281.342222 
L 87.156888 279.503955 
L 87.481867 272.697375 
L 88.131826 281.803931 
L 88.456806 279.075943 
L 88.781785 281.547201 
L 89.106765 281.232695 
L 89.431744 280.372514 
L 89.756724 282.196921 
L 90.081704 280.384643 
L 90.406683 281.442348 
L 90.731663 282.040649 
L 91.056642 280.974977 
L 91.381622 282.512514 
L 91.706601 282.315126 
L 92.031581 281.627549 
L 92.35656 282.686959 
L 92.68154 283.344066 
L 93.006519 282.700828 
L 93.331499 282.971652 
L 93.656478 283.766822 
L 93.981458 283.827474 
L 94.306437 282.455134 
L 94.631417 278.917048 
L 94.956396 273.281044 
L 95.281376 282.267537 
L 95.606355 283.561886 
L 95.931335 279.989364 
L 96.256314 282.622834 
L 96.581294 284.014833 
L 96.906274 282.4427 
L 97.231253 284.108861 
L 97.881212 282.71218 
L 98.206192 284.562364 
L 98.531171 282.637962 
L 98.856151 282.707233 
L 99.18113 284.89741 
L 99.50611 282.502239 
L 99.831089 281.890698 
L 100.156069 285.05131 
L 100.481048 283.743655 
L 100.806028 281.63792 
L 101.131007 284.595038 
L 101.455987 285.391486 
L 101.780966 283.599186 
L 102.430925 285.928819 
L 103.080885 285.405038 
L 103.405864 285.48326 
L 104.055823 286.557643 
L 104.705782 286.910736 
L 105.030762 286.798384 
L 105.355741 284.993194 
L 105.680721 268.516609 
L 106.0057 233.783731 
L 106.33068 278.307009 
L 106.655659 270.844224 
L 106.980639 278.621691 
L 107.630598 281.403263 
L 107.955577 278.855274 
L 108.280557 281.770317 
L 108.605536 280.335139 
L 108.930516 283.441629 
L 109.580475 281.480548 
L 109.905455 282.491723 
L 110.230434 281.970634 
L 110.555414 282.023589 
L 110.880393 283.13829 
L 111.205373 282.738294 
L 111.530352 282.975487 
L 111.855332 283.646693 
L 112.180311 283.412501 
L 112.83027 283.93824 
L 113.15525 283.815127 
L 113.480229 284.379693 
L 113.805209 284.595491 
L 114.130188 284.571431 
L 114.455168 284.826248 
L 114.780147 284.791813 
L 115.105127 285.314348 
L 115.430106 285.347881 
L 115.755086 285.642202 
L 116.080066 285.652984 
L 116.405045 285.993699 
L 116.730025 285.971082 
L 117.055004 286.281002 
L 117.704963 286.551741 
L 118.029943 286.784174 
L 118.354922 286.755977 
L 118.679902 287.072242 
L 119.004881 287.198346 
L 119.329861 287.139318 
L 120.954758 287.937078 
L 121.279738 287.812514 
L 121.604717 286.710544 
L 121.929697 282.738807 
L 122.579656 264.599283 
L 122.904636 283.506974 
L 123.229615 284.200934 
L 123.554595 272.129202 
L 123.879574 286.812871 
L 124.204554 278.436678 
L 124.529533 276.043076 
L 124.854513 286.1021 
L 125.179492 278.842205 
L 125.504472 286.914281 
L 125.829451 281.529034 
L 126.154431 286.870136 
L 126.47941 282.239413 
L 126.80439 286.604255 
L 127.129369 284.309392 
L 127.454349 285.599017 
L 127.779328 286.360768 
L 128.104308 285.12927 
L 128.429287 286.508625 
L 128.754267 285.363413 
L 129.079247 286.715097 
L 129.404226 285.902881 
L 129.729206 286.644428 
L 130.379165 286.49375 
L 130.704144 287.082256 
L 131.029124 286.559865 
L 131.354103 287.334516 
L 131.679083 286.814678 
L 132.004062 287.465022 
L 132.329042 287.243542 
L 132.654021 287.726836 
L 132.979001 287.518485 
L 133.30398 287.893291 
L 133.62896 287.655778 
L 133.953939 288.143954 
L 134.278919 287.931017 
L 134.603898 288.275548 
L 135.253857 288.313074 
L 135.578837 288.531717 
L 135.903817 288.489182 
L 136.553776 288.752397 
L 136.878755 288.682913 
L 137.853694 289.051422 
L 138.828632 288.995653 
L 139.478591 288.840405 
L 139.803571 288.365489 
L 140.12855 287.353966 
L 140.45353 285.491624 
L 140.778509 280.928676 
L 141.103489 279.846968 
L 141.428468 280.534626 
L 141.753448 288.413721 
L 142.078428 286.76618 
L 142.403407 279.510843 
L 142.728387 285.515959 
L 143.053366 287.822782 
L 143.378346 286.216336 
L 143.703325 288.085215 
L 144.028305 287.829859 
L 144.353284 287.809955 
L 144.678264 288.761335 
L 145.003243 287.408777 
L 145.328223 288.381269 
L 145.653202 288.722349 
L 145.978182 287.518154 
L 146.303161 288.772258 
L 146.628141 288.524034 
L 146.95312 287.974652 
L 147.2781 289.418958 
L 147.603079 288.59769 
L 148.253038 289.410029 
L 148.578018 289.14733 
L 148.902998 289.726367 
L 149.227977 289.400422 
L 149.552957 289.355413 
L 149.877936 289.815429 
L 150.202916 289.433678 
L 150.852875 290.094476 
L 151.177854 289.559263 
L 151.502834 289.423981 
L 151.827813 290.213248 
L 152.152793 290.32989 
L 152.477772 289.86499 
L 152.802752 290.008584 
L 153.127731 290.511671 
L 153.452711 290.766829 
L 154.752629 290.438925 
L 155.402588 290.798778 
L 156.052547 291.336307 
L 157.027486 291.187983 
L 157.352465 290.697391 
L 157.677445 287.958653 
L 158.002424 282.146518 
L 158.327404 283.268917 
L 158.652383 262.113685 
L 158.977363 225.722478 
L 159.302342 283.166212 
L 159.627322 239.928403 
L 159.952301 270.553551 
L 160.277281 265.470427 
L 160.60226 280.321442 
L 160.92724 271.119475 
L 161.252219 279.664383 
L 161.577199 278.642709 
L 161.902179 277.20299 
L 162.552138 282.516426 
L 162.877117 280.737475 
L 163.202097 281.406823 
L 163.527076 283.141811 
L 163.852056 282.310366 
L 164.177035 281.786694 
L 164.502015 282.855489 
L 164.826994 283.273871 
L 165.151974 282.426916 
L 165.476953 282.675545 
L 165.801933 283.662138 
L 166.126912 283.626075 
L 166.451892 283.256489 
L 167.101851 284.308861 
L 167.42683 284.091472 
L 167.75181 284.275285 
L 168.07679 284.944917 
L 168.401769 284.841216 
L 168.726749 285.003257 
L 169.051728 285.642096 
L 169.376708 285.532613 
L 169.701687 285.737061 
L 170.026667 286.320429 
L 170.351646 286.225336 
L 170.676626 286.764095 
L 171.001605 286.796147 
L 171.651564 287.32807 
L 172.301523 287.653998 
L 172.626503 287.85601 
L 172.951482 287.924124 
L 173.276462 288.210773 
L 173.601441 288.103769 
L 174.57638 288.710078 
L 174.90136 288.742327 
L 175.226339 289.076815 
L 175.551319 289.194551 
L 176.201278 288.791662 
L 176.851237 289.187478 
L 177.501196 289.602405 
L 177.826175 289.854319 
L 178.151155 289.804643 
L 178.476134 289.595114 
L 178.801114 288.905171 
L 179.126093 287.382052 
L 179.451073 284.85317 
L 180.101032 264.289307 
L 180.426011 280.953526 
L 180.750991 288.225805 
L 181.075971 279.325672 
L 181.40095 286.635386 
L 181.72593 285.295709 
L 182.050909 285.442168 
L 182.375889 287.356739 
L 182.700868 285.657027 
L 183.025848 288.757639 
L 183.350827 284.98816 
L 183.675807 288.570018 
L 184.000786 287.562449 
L 184.325766 288.460618 
L 184.650745 287.259499 
L 184.975725 289.083626 
L 185.300704 288.485588 
L 185.625684 288.989353 
L 185.950663 288.706224 
L 186.275643 289.338996 
L 186.600622 289.013381 
L 187.250581 289.54206 
L 187.575561 289.239662 
L 187.900541 289.69509 
L 188.22552 289.411416 
L 188.5505 289.838845 
L 188.875479 289.599126 
L 189.200459 290.089619 
L 189.525438 289.735379 
L 189.850418 290.206316 
L 190.175397 290.023987 
L 190.500377 290.329996 
L 190.825356 290.264434 
L 191.150336 290.41426 
L 191.800295 290.460585 
L 192.125274 290.66292 
L 192.450254 290.597617 
L 192.775233 290.864879 
L 193.100213 290.762042 
L 193.750172 291.022077 
L 194.075152 290.90912 
L 194.400131 291.128236 
L 195.37507 291.318311 
L 198.949844 291.850036 
L 199.274824 291.988734 
L 200.249762 291.943458 
L 200.574742 291.988821 
L 201.224701 292.285862 
L 202.524619 292.186974 
L 202.849599 292.043116 
L 203.174578 292.033177 
L 203.824537 291.343414 
L 204.799476 290.340856 
L 205.124455 290.608316 
L 205.449435 289.84448 
L 205.774414 288.147372 
L 206.099394 280.226783 
L 206.424373 259.960366 
L 206.749353 252.709291 
L 207.074333 277.007458 
L 207.399312 289.989362 
L 207.724292 279.424946 
L 208.049271 290.339015 
L 208.374251 279.68421 
L 208.69923 282.413474 
L 209.02421 282.208015 
L 209.349189 284.704643 
L 209.674169 273.241064 
L 209.999148 288.078438 
L 210.324128 268.229246 
L 210.649107 289.118052 
L 210.974087 279.633957 
L 211.299066 282.565432 
L 211.624046 289.023416 
L 211.949025 282.07599 
L 212.274005 284.755427 
L 212.598984 288.667562 
L 212.923964 287.732503 
L 213.248943 284.701067 
L 213.573923 288.492477 
L 213.898903 288.534023 
L 214.548862 287.093053 
L 215.198821 289.680217 
L 215.84878 288.235868 
L 216.173759 288.756446 
L 216.498739 289.613278 
L 216.823718 289.501857 
L 217.148698 289.263149 
L 217.798657 290.287617 
L 218.448616 289.981293 
L 219.098575 290.674957 
L 219.748534 290.638517 
L 220.398493 291.268455 
L 220.723473 291.175072 
L 221.048452 291.233929 
L 221.373432 291.594134 
L 222.023391 291.592369 
L 222.34837 291.860788 
L 225.273186 292.524557 
L 225.598165 292.525424 
L 226.248124 292.711644 
L 228.198002 293.04659 
L 231.447797 293.570873 
L 238.597346 294.164991 
L 239.247305 294.115573 
L 239.897265 294.326548 
L 240.547224 294.294277 
L 241.522162 294.077385 
L 242.497101 294.500961 
L 243.14706 294.478562 
L 243.797019 294.277909 
L 244.121998 293.91187 
L 244.446978 293.330122 
L 245.096937 293.461023 
L 245.421916 294.241258 
L 245.746896 294.69206 
L 246.071876 294.627412 
L 246.721835 294.077053 
L 247.046814 294.267997 
L 247.371794 294.633423 
L 247.696773 294.804147 
L 248.671712 294.545975 
L 249.321671 294.880391 
L 250.296609 294.785669 
L 250.946568 294.946405 
L 252.246486 294.936319 
L 252.896446 295.012783 
L 253.871384 295.033081 
L 254.521343 295.079433 
L 255.821261 295.126039 
L 258.096118 295.209927 
L 261.345913 295.274179 
L 267.520524 295.351603 
L 276.294971 295.407821 
L 316.592432 295.475952 
L 398.487273 295.488 
L 398.487273 295.488 
" style="fill:none;stroke:#1f77b4;stroke-linecap:square;stroke-width:1.5;"/>
   </g>
   <g id="line2d_14">
    <path clip-path="url(#p7b8a296ea7)" d="M 73.832727 270.910835 
L 74.157707 271.993664 
L 74.482686 272.076176 
L 74.807666 272.396539 
L 75.457625 272.424746 
L 77.082523 272.755053 
L 77.407502 272.104184 
L 77.732482 272.496754 
L 78.057461 273.188114 
L 78.382441 271.049325 
L 78.70742 272.782284 
L 79.0324 272.804648 
L 79.357379 272.691242 
L 79.682359 272.868692 
L 80.007338 273.487461 
L 80.332318 273.80669 
L 80.657297 272.467907 
L 80.982277 273.490425 
L 81.307256 273.5391 
L 82.282195 268.616589 
L 82.607174 271.576396 
L 82.932154 270.570644 
L 83.257133 269.037448 
L 83.582113 269.00262 
L 83.907093 268.522537 
L 84.232072 264.617746 
L 84.557052 267.123388 
L 84.882031 266.087094 
L 85.207011 263.737244 
L 85.53199 265.062581 
L 85.85697 262.106451 
L 86.181949 262.666239 
L 86.506929 261.485273 
L 86.831908 254.972247 
L 87.156888 257.277091 
L 87.481867 252.258999 
L 87.806847 259.096859 
L 88.131826 260.505427 
L 88.456806 257.85263 
L 88.781785 256.483672 
L 89.106765 260.185338 
L 89.431744 258.186238 
L 89.756724 253.56045 
L 90.081704 258.794038 
L 90.406683 258.033405 
L 90.731663 252.832486 
L 91.056642 256.18342 
L 91.381622 255.11663 
L 91.706601 248.109042 
L 92.031581 252.629526 
L 92.35656 250.625222 
L 92.68154 245.98569 
L 93.006519 248.636001 
L 93.331499 243.924039 
L 93.656478 241.243198 
L 93.981458 243.207522 
L 94.306437 229.953428 
L 94.631417 242.214735 
L 94.956396 235.259995 
L 95.281376 237.171348 
L 95.606355 242.23742 
L 95.931335 234.784268 
L 96.256314 237.742738 
L 96.581294 241.84842 
L 97.231253 236.958638 
L 97.556233 240.74766 
L 97.881212 237.42398 
L 98.206192 231.831855 
L 98.531171 237.292322 
L 98.856151 233.898223 
L 99.18113 227.568388 
L 99.50611 233.997956 
L 100.156069 224.572559 
L 100.481048 229.61596 
L 100.806028 222.316323 
L 101.131007 222.653719 
L 101.455987 225.607419 
L 101.780966 219.117892 
L 102.105946 219.295131 
L 102.430925 218.758292 
L 102.755905 212.970089 
L 103.080885 215.949648 
L 103.405864 211.529574 
L 103.730844 210.174927 
L 104.380803 203.051613 
L 104.705782 202.077226 
L 105.030762 193.847504 
L 105.355741 201.291506 
L 105.680721 148.991861 
L 106.0057 207.053835 
L 106.33068 214.212235 
L 106.980639 222.497412 
L 107.305618 230.741793 
L 107.630598 234.761864 
L 107.955577 235.226282 
L 108.280557 237.211818 
L 108.930516 252.187755 
L 109.255495 253.958881 
L 109.580475 253.142326 
L 109.905455 250.560608 
L 110.230434 249.937095 
L 110.880393 253.097256 
L 111.205373 252.581402 
L 111.855332 249.200333 
L 112.180311 249.262684 
L 112.505291 249.842309 
L 112.83027 249.473969 
L 113.15525 248.079533 
L 113.805209 243.766331 
L 114.130188 242.971508 
L 114.455168 241.868836 
L 115.755086 235.14585 
L 116.080066 232.474331 
L 116.405045 228.844871 
L 117.055004 224.516909 
L 117.379984 221.329817 
L 118.029943 217.209499 
L 120.629779 193.303655 
L 120.954758 189.373777 
L 121.279738 187.333014 
L 121.604717 179.129752 
L 121.929697 179.423941 
L 122.254676 161.154016 
L 122.579656 181.979119 
L 122.904636 184.546612 
L 123.229615 173.004662 
L 123.554595 188.266196 
L 123.879574 190.647901 
L 124.204554 186.256002 
L 124.529533 198.011133 
L 125.179492 205.744092 
L 125.504472 203.663097 
L 125.829451 209.352177 
L 126.154431 211.923368 
L 126.47941 212.453329 
L 126.80439 212.104362 
L 127.129369 214.309323 
L 127.454349 217.618777 
L 127.779328 219.552281 
L 128.429287 218.52467 
L 128.754267 219.790388 
L 129.079247 220.564942 
L 129.404226 219.655917 
L 129.729206 217.127666 
L 130.054185 215.843343 
L 130.379165 216.330403 
L 130.704144 216.176927 
L 131.354103 212.175886 
L 132.004062 209.871587 
L 132.979001 202.459192 
L 133.30398 201.20963 
L 133.953939 195.661092 
L 134.278919 194.161872 
L 134.603898 191.779672 
L 134.928878 188.435076 
L 135.578837 184.64186 
L 136.228796 178.524653 
L 136.553776 176.290592 
L 136.878755 173.052796 
L 137.528714 169.361825 
L 138.503653 160.372642 
L 138.828632 159.107392 
L 139.153612 155.536308 
L 139.478591 154.830176 
L 139.803571 149.65533 
L 140.12855 150.408605 
L 140.45353 141.929348 
L 140.778509 146.468109 
L 141.103489 143.281831 
L 141.428468 150.282255 
L 141.753448 150.426677 
L 142.078428 143.133978 
L 142.403407 153.674986 
L 142.728387 157.363374 
L 143.378346 160.133687 
L 143.703325 159.945907 
L 144.028305 160.090576 
L 144.353284 160.835359 
L 145.003243 161.589186 
L 145.653202 164.461382 
L 145.978182 164.929608 
L 146.303161 165.179791 
L 146.628141 164.758956 
L 146.95312 165.245244 
L 147.2781 163.931373 
L 147.928059 164.07406 
L 148.253038 164.348033 
L 148.578018 165.198711 
L 148.902998 165.131199 
L 149.227977 164.83801 
L 149.552957 164.241157 
L 150.202916 161.124173 
L 150.527895 160.101614 
L 151.177854 156.826188 
L 151.502834 157.057041 
L 151.827813 155.882464 
L 152.152793 153.562371 
L 152.802752 151.275743 
L 153.452711 148.050339 
L 153.77769 145.975311 
L 154.10267 144.875699 
L 154.427649 143.31277 
L 154.752629 142.944444 
L 155.077609 141.446215 
L 155.402588 140.756515 
L 155.727568 139.743154 
L 156.052547 137.486884 
L 156.377527 136.964662 
L 156.702506 134.12109 
L 157.027486 133.889036 
L 157.352465 128.094032 
L 157.677445 126.398968 
L 158.002424 128.405922 
L 158.327404 109.851167 
L 158.652383 124.530774 
L 158.977363 153.888949 
L 159.302342 113.634431 
L 159.627322 156.755111 
L 159.952301 182.415462 
L 160.277281 195.864895 
L 160.60226 193.546299 
L 161.252219 233.206617 
L 161.577199 237.397254 
L 161.902179 239.559748 
L 162.227158 236.3159 
L 162.552138 234.807667 
L 162.877117 237.795128 
L 163.527076 249.703907 
L 163.852056 251.021523 
L 164.177035 251.015661 
L 164.826994 247.033803 
L 165.151974 247.377666 
L 165.801933 250.671474 
L 166.126912 250.664868 
L 166.451892 249.673606 
L 166.776871 247.714376 
L 167.101851 245.038577 
L 167.42683 244.128342 
L 167.75181 244.28575 
L 168.07679 243.619269 
L 168.401769 241.889534 
L 170.351646 226.920612 
L 171.001605 220.323137 
L 171.651564 214.737869 
L 172.301523 207.458372 
L 172.626503 204.884874 
L 172.951482 201.254104 
L 173.276462 196.333178 
L 173.601441 194.694712 
L 174.2514 186.808019 
L 174.57638 184.484628 
L 175.226339 175.770925 
L 175.551319 172.679752 
L 175.876298 167.022994 
L 176.201278 165.855765 
L 176.526257 161.215752 
L 176.851237 159.995366 
L 177.176216 155.779447 
L 177.826175 150.27687 
L 178.151155 145.550358 
L 178.476134 145.362644 
L 178.801114 138.415472 
L 179.126093 142.240304 
L 179.451073 126.351349 
L 179.776052 140.799807 
L 180.101032 134.549989 
L 180.426011 146.366693 
L 180.750991 151.5104 
L 181.075971 152.720624 
L 181.40095 154.470399 
L 181.72593 160.693425 
L 182.050909 162.330976 
L 182.375889 159.874974 
L 183.025848 169.220197 
L 183.350827 168.795549 
L 183.675807 169.169613 
L 184.000786 171.956616 
L 184.325766 173.183054 
L 184.650745 173.608617 
L 184.975725 171.838196 
L 185.300704 171.666 
L 185.625684 173.10033 
L 185.950663 172.44135 
L 186.275643 170.765568 
L 186.600622 171.15249 
L 186.925602 172.310302 
L 187.250581 172.230656 
L 187.575561 171.863017 
L 187.900541 170.885113 
L 188.22552 171.758666 
L 188.5505 171.503965 
L 189.200459 169.053815 
L 189.525438 169.825018 
L 189.850418 169.414229 
L 190.500377 167.496099 
L 190.825356 166.800309 
L 191.800295 163.516991 
L 192.450254 161.759839 
L 192.775233 160.567361 
L 193.100213 159.814725 
L 194.400131 155.456929 
L 195.37507 151.694777 
L 196.674988 147.366815 
L 199.599803 138.502152 
L 201.224701 134.043847 
L 201.549681 133.146455 
L 201.87466 131.812826 
L 202.19964 131.390447 
L 202.524619 129.642216 
L 202.849599 129.055494 
L 203.174578 127.413101 
L 203.499558 126.942054 
L 203.824537 124.993376 
L 204.149517 123.926915 
L 204.474496 122.218697 
L 204.799476 122.056452 
L 205.124455 120.432169 
L 205.449435 119.575477 
L 205.774414 116.41441 
L 206.099394 99.866723 
L 206.749353 123.685043 
L 207.074333 141.58527 
L 207.399312 142.159219 
L 207.724292 154.379631 
L 208.049271 151.111439 
L 208.374251 162.227092 
L 208.69923 166.0935 
L 209.02421 165.332257 
L 209.349189 165.103806 
L 209.674169 179.456377 
L 209.999148 178.541019 
L 210.324128 191.319834 
L 210.649107 192.140306 
L 211.299066 207.421075 
L 211.624046 206.858621 
L 211.949025 210.00255 
L 212.274005 215.653037 
L 212.598984 216.778288 
L 212.923964 215.958774 
L 213.248943 219.988795 
L 213.573923 221.07227 
L 213.898903 220.652408 
L 214.223882 221.719398 
L 214.548862 223.298768 
L 214.873841 223.213809 
L 215.198821 221.42181 
L 215.5238 220.261254 
L 216.173759 220.090516 
L 216.823718 217.596959 
L 217.473677 217.42655 
L 218.773595 212.791497 
L 219.748534 208.805278 
L 220.398493 206.080383 
L 221.373432 200.358829 
L 222.023391 196.58806 
L 222.998329 192.379966 
L 223.648288 187.507203 
L 224.298247 182.826642 
L 224.948206 180.994429 
L 225.923145 175.616105 
L 226.248124 173.25474 
L 226.573104 171.732197 
L 227.223063 170.50106 
L 227.873022 168.677358 
L 229.17294 164.267769 
L 229.49792 163.821008 
L 231.122817 157.260052 
L 231.772776 155.495408 
L 232.422735 152.685205 
L 233.397674 148.356557 
L 234.047633 147.195038 
L 235.022572 144.607482 
L 235.672531 142.011367 
L 237.947387 137.106262 
L 238.272367 136.304615 
L 239.247305 133.208696 
L 239.572285 132.730214 
L 240.872203 129.32821 
L 241.197183 127.840742 
L 241.522162 127.052467 
L 242.172121 126.200446 
L 242.82208 123.700446 
L 243.14706 123.186431 
L 243.472039 122.361117 
L 243.797019 120.628098 
L 244.771957 118.435489 
L 245.096937 119.457381 
L 245.421916 119.387744 
L 246.071876 117.397127 
L 246.396855 116.141256 
L 246.721835 117.049189 
L 247.046814 116.881873 
L 247.696773 117.05201 
L 248.021753 115.80487 
L 248.346732 115.613897 
L 248.671712 115.69154 
L 248.996691 115.651641 
L 249.321671 115.102741 
L 249.64665 114.946558 
L 250.296609 114.391061 
L 250.621589 114.655885 
L 250.946568 114.34592 
L 251.271548 113.625376 
L 251.596527 114.085634 
L 251.921507 113.592988 
L 252.246486 113.679534 
L 252.571466 113.95551 
L 252.896446 113.49346 
L 253.221425 113.417075 
L 253.546405 113.651874 
L 253.871384 113.567501 
L 254.196364 113.282928 
L 254.521343 113.32847 
L 255.171302 112.95575 
L 255.496282 113.203703 
L 256.146241 112.51732 
L 256.47122 112.873055 
L 256.7962 112.352253 
L 257.121179 112.230116 
L 257.446159 112.391046 
L 258.096118 111.68846 
L 258.421097 111.779276 
L 259.071057 111.109611 
L 259.396036 111.158603 
L 260.045995 110.285117 
L 260.370975 110.326636 
L 260.695954 110.052014 
L 261.020934 109.518803 
L 261.670893 109.268753 
L 262.320852 108.477543 
L 262.645831 108.426702 
L 262.970811 108.223261 
L 263.62077 107.412931 
L 263.945749 107.498409 
L 264.270729 107.140559 
L 264.595708 106.552636 
L 265.245667 106.426077 
L 265.895627 105.637326 
L 266.220606 105.63643 
L 266.545586 105.508383 
L 267.195545 104.716849 
L 267.520524 104.768395 
L 267.845504 104.652835 
L 268.170483 104.133082 
L 268.820442 103.738897 
L 269.470401 103.226255 
L 270.12036 102.716776 
L 270.770319 102.402885 
L 271.420278 101.825276 
L 271.745258 101.82356 
L 272.070238 101.594804 
L 272.395217 101.201686 
L 273.045176 100.906648 
L 273.370156 100.633094 
L 273.695135 100.548587 
L 274.345094 99.984227 
L 274.670074 99.955442 
L 274.995053 99.783684 
L 275.320033 99.446783 
L 275.969992 99.176756 
L 276.619951 98.744292 
L 276.94493 98.707996 
L 277.919869 98.104252 
L 278.244848 97.926241 
L 278.569828 97.59077 
L 279.219787 97.311268 
L 279.869746 96.809663 
L 280.519705 96.553838 
L 280.844685 96.243568 
L 281.494644 95.956822 
L 282.144603 95.480762 
L 282.469582 95.401783 
L 283.119541 94.944576 
L 283.444521 94.916573 
L 286.369337 93.16552 
L 286.694316 93.180923 
L 287.019296 93.037341 
L 287.344275 92.749165 
L 287.994234 92.500869 
L 288.644193 92.174282 
L 292.868927 89.80942 
L 293.193907 89.52113 
L 293.843866 89.219152 
L 294.168845 88.926116 
L 294.818804 88.537554 
L 295.468763 88.112678 
L 296.768681 87.154838 
L 298.0686 86.220903 
L 298.718559 85.970434 
L 299.368518 85.385657 
L 300.018477 85.137628 
L 300.668436 84.793045 
L 300.993415 84.736942 
L 301.968354 83.981666 
L 302.293333 83.911628 
L 303.268272 83.144189 
L 303.593251 83.123373 
L 304.56819 82.480854 
L 305.218149 82.225657 
L 305.868108 81.8309 
L 306.518067 81.551284 
L 307.168026 81.027318 
L 308.142965 80.723492 
L 308.792924 80.13414 
L 310.092842 79.539354 
L 310.742801 79.240199 
L 311.39276 78.910237 
L 312.367699 78.373442 
L 313.017658 78.09108 
L 313.992596 77.499326 
L 314.642555 77.39467 
L 316.917412 76.238174 
L 317.242391 76.189678 
L 318.54231 75.616529 
L 318.867289 75.501122 
L 319.517248 75.074968 
L 321.142146 74.491564 
L 322.442064 73.849255 
L 323.092023 73.616209 
L 323.741982 73.261771 
L 324.066962 73.230145 
L 326.341818 72.294704 
L 326.666798 72.241003 
L 327.316757 71.919887 
L 327.966716 71.777181 
L 328.941654 71.302741 
L 329.266634 71.280437 
L 332.19145 70.091229 
L 332.516429 70.137781 
L 332.841409 70.014196 
L 333.491368 69.486284 
L 334.466306 69.504756 
L 335.441245 68.89676 
L 336.091204 68.946915 
L 337.716102 68.310343 
L 341.940835 66.774761 
L 342.590794 66.730191 
L 343.565733 66.379985 
L 343.890713 66.406711 
L 344.540672 66.112264 
L 345.190631 65.875234 
L 345.51561 65.87958 
L 346.165569 65.559646 
L 346.490549 65.361181 
L 348.440426 64.940861 
L 348.765405 64.778806 
L 349.740344 64.638921 
L 350.390303 64.397393 
L 354.290057 63.381258 
L 354.940016 63.166666 
L 355.589975 62.969268 
L 355.914955 62.99161 
L 356.564914 62.678005 
L 356.889894 62.490405 
L 358.839771 62.136215 
L 359.48973 61.920841 
L 360.139689 61.886928 
L 360.789648 61.588286 
L 361.439607 61.434086 
L 362.414545 61.162876 
L 362.739525 61.196808 
L 363.389484 60.923807 
L 364.039443 60.698272 
L 364.689402 60.731747 
L 365.664341 60.329651 
L 366.3143 60.32315 
L 368.914136 59.656479 
L 369.564095 59.565167 
L 370.539034 59.157123 
L 371.838952 59.028086 
L 372.488911 58.766293 
L 373.13887 58.763815 
L 374.763767 58.395308 
L 375.088747 58.376016 
L 376.063686 57.954056 
L 377.038624 57.877919 
L 378.013563 57.615402 
L 378.663522 57.581698 
L 379.96344 57.157928 
L 380.613399 57.165991 
L 381.263358 56.942763 
L 381.913317 56.73471 
L 382.563276 56.749998 
L 383.863194 56.363477 
L 385.813071 55.990604 
L 387.437969 55.673148 
L 398.487273 53.568 
L 398.487273 53.568 
" style="fill:none;stroke:#ff7f0e;stroke-linecap:square;stroke-width:1.5;"/>
   </g>
   <g id="patch_3">
    <path d="M 57.6 307.584 
L 57.6 41.472 
" style="fill:none;stroke:#000000;stroke-linecap:square;stroke-linejoin:miter;stroke-width:0.8;"/>
   </g>
   <g id="patch_4">
    <path d="M 414.72 307.584 
L 414.72 41.472 
" style="fill:none;stroke:#000000;stroke-linecap:square;stroke-linejoin:miter;stroke-width:0.8;"/>
   </g>
   <g id="patch_5">
    <path d="M 57.6 307.584 
L 414.72 307.584 
" style="fill:none;stroke:#000000;stroke-linecap:square;stroke-linejoin:miter;stroke-width:0.8;"/>
   </g>
   <g id="patch_6">
    <path d="M 57.6 41.472 
L 414.72 41.472 
" style="fill:none;stroke:#000000;stroke-linecap:square;stroke-linejoin:miter;stroke-width:0.8;"/>
   </g>
   <g id="legend_1">
    <g id="patch_7">
     <path d="M 64.6 78.82825 
L 168.475 78.82825 
Q 170.475 78.82825 170.475 76.82825 
L 170.475 48.472 
Q 170.475 46.472 168.475 46.472 
L 64.6 46.472 
Q 62.6 46.472 62.6 48.472 
L 62.6 76.82825 
Q 62.6 78.82825 64.6 78.82825 
z
" style="fill:#ffffff;opacity:0.8;stroke:#cccccc;stroke-linejoin:miter;"/>
    </g>
    <g id="line2d_15">
     <path d="M 66.6 54.570437 
L 86.6 54.570437 
" style="fill:none;stroke:#1f77b4;stroke-linecap:square;stroke-width:1.5;"/>
    </g>
    <g id="line2d_16"/>
    <g id="text_15">
     <!-- Train loss -->
     <g transform="translate(94.6 58.070437)scale(0.1 -0.1)">
      <defs>
       <path d="M -19 4666 
L 3928 4666 
L 3928 4134 
L 2272 4134 
L 2272 0 
L 1638 0 
L 1638 4134 
L -19 4134 
L -19 4666 
z
" id="DejaVuSans-54" transform="scale(0.015625)"/>
       <path d="M 2631 2963 
Q 2534 3019 2420 3045 
Q 2306 3072 2169 3072 
Q 1681 3072 1420 2755 
Q 1159 2438 1159 1844 
L 1159 0 
L 581 0 
L 581 3500 
L 1159 3500 
L 1159 2956 
Q 1341 3275 1631 3429 
Q 1922 3584 2338 3584 
Q 2397 3584 2469 3576 
Q 2541 3569 2628 3553 
L 2631 2963 
z
" id="DejaVuSans-72" transform="scale(0.015625)"/>
       <path d="M 2194 1759 
Q 1497 1759 1228 1600 
Q 959 1441 959 1056 
Q 959 750 1161 570 
Q 1363 391 1709 391 
Q 2188 391 2477 730 
Q 2766 1069 2766 1631 
L 2766 1759 
L 2194 1759 
z
M 3341 1997 
L 3341 0 
L 2766 0 
L 2766 531 
Q 2569 213 2275 61 
Q 1981 -91 1556 -91 
Q 1019 -91 701 211 
Q 384 513 384 1019 
Q 384 1609 779 1909 
Q 1175 2209 1959 2209 
L 2766 2209 
L 2766 2266 
Q 2766 2663 2505 2880 
Q 2244 3097 1772 3097 
Q 1472 3097 1187 3025 
Q 903 2953 641 2809 
L 641 3341 
Q 956 3463 1253 3523 
Q 1550 3584 1831 3584 
Q 2591 3584 2966 3190 
Q 3341 2797 3341 1997 
z
" id="DejaVuSans-61" transform="scale(0.015625)"/>
       <path d="M 603 3500 
L 1178 3500 
L 1178 0 
L 603 0 
L 603 3500 
z
M 603 4863 
L 1178 4863 
L 1178 4134 
L 603 4134 
L 603 4863 
z
" id="DejaVuSans-69" transform="scale(0.015625)"/>
       <path d="M 3513 2113 
L 3513 0 
L 2938 0 
L 2938 2094 
Q 2938 2591 2744 2837 
Q 2550 3084 2163 3084 
Q 1697 3084 1428 2787 
Q 1159 2491 1159 1978 
L 1159 0 
L 581 0 
L 581 3500 
L 1159 3500 
L 1159 2956 
Q 1366 3272 1645 3428 
Q 1925 3584 2291 3584 
Q 2894 3584 3203 3211 
Q 3513 2838 3513 2113 
z
" id="DejaVuSans-6e" transform="scale(0.015625)"/>
       <path id="DejaVuSans-20" transform="scale(0.015625)"/>
       <path d="M 603 4863 
L 1178 4863 
L 1178 0 
L 603 0 
L 603 4863 
z
" id="DejaVuSans-6c" transform="scale(0.015625)"/>
      </defs>
      <use xlink:href="#DejaVuSans-54"/>
      <use x="46.333984" xlink:href="#DejaVuSans-72"/>
      <use x="87.447266" xlink:href="#DejaVuSans-61"/>
      <use x="148.726562" xlink:href="#DejaVuSans-69"/>
      <use x="176.509766" xlink:href="#DejaVuSans-6e"/>
      <use x="239.888672" xlink:href="#DejaVuSans-20"/>
      <use x="271.675781" xlink:href="#DejaVuSans-6c"/>
      <use x="299.458984" xlink:href="#DejaVuSans-6f"/>
      <use x="360.640625" xlink:href="#DejaVuSans-73"/>
      <use x="412.740234" xlink:href="#DejaVuSans-73"/>
     </g>
    </g>
    <g id="line2d_17">
     <path d="M 66.6 69.248562 
L 86.6 69.248562 
" style="fill:none;stroke:#ff7f0e;stroke-linecap:square;stroke-width:1.5;"/>
    </g>
    <g id="line2d_18"/>
    <g id="text_16">
     <!-- Validation loss -->
     <g transform="translate(94.6 72.748562)scale(0.1 -0.1)">
      <defs>
       <path d="M 1831 0 
L 50 4666 
L 709 4666 
L 2188 738 
L 3669 4666 
L 4325 4666 
L 2547 0 
L 1831 0 
z
" id="DejaVuSans-56" transform="scale(0.015625)"/>
       <path d="M 2906 2969 
L 2906 4863 
L 3481 4863 
L 3481 0 
L 2906 0 
L 2906 525 
Q 2725 213 2448 61 
Q 2172 -91 1784 -91 
Q 1150 -91 751 415 
Q 353 922 353 1747 
Q 353 2572 751 3078 
Q 1150 3584 1784 3584 
Q 2172 3584 2448 3432 
Q 2725 3281 2906 2969 
z
M 947 1747 
Q 947 1113 1208 752 
Q 1469 391 1925 391 
Q 2381 391 2643 752 
Q 2906 1113 2906 1747 
Q 2906 2381 2643 2742 
Q 2381 3103 1925 3103 
Q 1469 3103 1208 2742 
Q 947 2381 947 1747 
z
" id="DejaVuSans-64" transform="scale(0.015625)"/>
       <path d="M 1172 4494 
L 1172 3500 
L 2356 3500 
L 2356 3053 
L 1172 3053 
L 1172 1153 
Q 1172 725 1289 603 
Q 1406 481 1766 481 
L 2356 481 
L 2356 0 
L 1766 0 
Q 1100 0 847 248 
Q 594 497 594 1153 
L 594 3053 
L 172 3053 
L 172 3500 
L 594 3500 
L 594 4494 
L 1172 4494 
z
" id="DejaVuSans-74" transform="scale(0.015625)"/>
      </defs>
      <use xlink:href="#DejaVuSans-56"/>
      <use x="60.658203" xlink:href="#DejaVuSans-61"/>
      <use x="121.9375" xlink:href="#DejaVuSans-6c"/>
      <use x="149.720703" xlink:href="#DejaVuSans-69"/>
      <use x="177.503906" xlink:href="#DejaVuSans-64"/>
      <use x="240.980469" xlink:href="#DejaVuSans-61"/>
      <use x="302.259766" xlink:href="#DejaVuSans-74"/>
      <use x="341.46875" xlink:href="#DejaVuSans-69"/>
      <use x="369.251953" xlink:href="#DejaVuSans-6f"/>
      <use x="430.433594" xlink:href="#DejaVuSans-6e"/>
      <use x="493.8125" xlink:href="#DejaVuSans-20"/>
      <use x="525.599609" xlink:href="#DejaVuSans-6c"/>
      <use x="553.382812" xlink:href="#DejaVuSans-6f"/>
      <use x="614.564453" xlink:href="#DejaVuSans-73"/>
      <use x="666.664062" xlink:href="#DejaVuSans-73"/>
     </g>
    </g>
   </g>
  </g>
 </g>
 <defs>
  <clipPath id="p7b8a296ea7">
   <rect height="266.112" width="357.12" x="57.6" y="41.472"/>
  </clipPath>
 </defs>
</svg>
