<?xml version="1.0" encoding="utf-8" standalone="no"?>
<!DOCTYPE svg PUBLIC "-//W3C//DTD SVG 1.1//EN"
  "http://www.w3.org/Graphics/SVG/1.1/DTD/svg11.dtd">
<svg height="345.6pt" version="1.1" viewBox="0 0 460.8 345.6" width="460.8pt" xmlns="http://www.w3.org/2000/svg" xmlns:xlink="http://www.w3.org/1999/xlink">
 <metadata>
  <rdf:RDF xmlns:cc="http://creativecommons.org/ns#" xmlns:dc="http://purl.org/dc/elements/1.1/" xmlns:rdf="http://www.w3.org/1999/02/22-rdf-syntax-ns#">
   <cc:Work>
    <dc:type rdf:resource="http://purl.org/dc/dcmitype/StillImage"/>
    <dc:date>2021-07-16T01:21:41.667557</dc:date>
    <dc:format>image/svg+xml</dc:format>
    <dc:creator>
     <cc:Agent>
      <dc:title>Matplotlib v3.4.2, https://matplotlib.org/</dc:title>
     </cc:Agent>
    </dc:creator>
   </cc:Work>
  </rdf:RDF>
 </metadata>
 <defs>
  <style type="text/css">*{stroke-linecap:butt;stroke-linejoin:round;}</style>
 </defs>
 <g id="figure_1">
  <g id="patch_1">
   <path d="M 0 345.6 
L 460.8 345.6 
L 460.8 0 
L 0 0 
z
" style="fill:#ffffff;"/>
  </g>
  <g id="axes_1">
   <g id="patch_2">
    <path d="M 57.6 307.584 
L 414.72 307.584 
L 414.72 41.472 
L 57.6 41.472 
z
" style="fill:#ffffff;"/>
   </g>
   <g id="matplotlib.axis_1">
    <g id="xtick_1">
     <g id="line2d_1">
      <defs>
       <path d="M 0 0 
L 0 3.5 
" id="mb90db9378b" style="stroke:#000000;stroke-width:0.8;"/>
      </defs>
      <g>
       <use style="stroke:#000000;stroke-width:0.8;" x="73.019057" xlink:href="#mb90db9378b" y="307.584"/>
      </g>
     </g>
     <g id="text_1">
      <!-- 0 -->
      <g transform="translate(69.837807 322.182437)scale(0.1 -0.1)">
       <defs>
        <path d="M 2034 4250 
Q 1547 4250 1301 3770 
Q 1056 3291 1056 2328 
Q 1056 1369 1301 889 
Q 1547 409 2034 409 
Q 2525 409 2770 889 
Q 3016 1369 3016 2328 
Q 3016 3291 2770 3770 
Q 2525 4250 2034 4250 
z
M 2034 4750 
Q 2819 4750 3233 4129 
Q 3647 3509 3647 2328 
Q 3647 1150 3233 529 
Q 2819 -91 2034 -91 
Q 1250 -91 836 529 
Q 422 1150 422 2328 
Q 422 3509 836 4129 
Q 1250 4750 2034 4750 
z
" id="DejaVuSans-30" transform="scale(0.015625)"/>
       </defs>
       <use xlink:href="#DejaVuSans-30"/>
      </g>
     </g>
    </g>
    <g id="xtick_2">
     <g id="line2d_2">
      <g>
       <use style="stroke:#000000;stroke-width:0.8;" x="113.702584" xlink:href="#mb90db9378b" y="307.584"/>
      </g>
     </g>
     <g id="text_2">
      <!-- 50 -->
      <g transform="translate(107.340084 322.182437)scale(0.1 -0.1)">
       <defs>
        <path d="M 691 4666 
L 3169 4666 
L 3169 4134 
L 1269 4134 
L 1269 2991 
Q 1406 3038 1543 3061 
Q 1681 3084 1819 3084 
Q 2600 3084 3056 2656 
Q 3513 2228 3513 1497 
Q 3513 744 3044 326 
Q 2575 -91 1722 -91 
Q 1428 -91 1123 -41 
Q 819 9 494 109 
L 494 744 
Q 775 591 1075 516 
Q 1375 441 1709 441 
Q 2250 441 2565 725 
Q 2881 1009 2881 1497 
Q 2881 1984 2565 2268 
Q 2250 2553 1709 2553 
Q 1456 2553 1204 2497 
Q 953 2441 691 2322 
L 691 4666 
z
" id="DejaVuSans-35" transform="scale(0.015625)"/>
       </defs>
       <use xlink:href="#DejaVuSans-35"/>
       <use x="63.623047" xlink:href="#DejaVuSans-30"/>
      </g>
     </g>
    </g>
    <g id="xtick_3">
     <g id="line2d_3">
      <g>
       <use style="stroke:#000000;stroke-width:0.8;" x="154.386111" xlink:href="#mb90db9378b" y="307.584"/>
      </g>
     </g>
     <g id="text_3">
      <!-- 100 -->
      <g transform="translate(144.842361 322.182437)scale(0.1 -0.1)">
       <defs>
        <path d="M 794 531 
L 1825 531 
L 1825 4091 
L 703 3866 
L 703 4441 
L 1819 4666 
L 2450 4666 
L 2450 531 
L 3481 531 
L 3481 0 
L 794 0 
L 794 531 
z
" id="DejaVuSans-31" transform="scale(0.015625)"/>
       </defs>
       <use xlink:href="#DejaVuSans-31"/>
       <use x="63.623047" xlink:href="#DejaVuSans-30"/>
       <use x="127.246094" xlink:href="#DejaVuSans-30"/>
      </g>
     </g>
    </g>
    <g id="xtick_4">
     <g id="line2d_4">
      <g>
       <use style="stroke:#000000;stroke-width:0.8;" x="195.069638" xlink:href="#mb90db9378b" y="307.584"/>
      </g>
     </g>
     <g id="text_4">
      <!-- 150 -->
      <g transform="translate(185.525888 322.182437)scale(0.1 -0.1)">
       <use xlink:href="#DejaVuSans-31"/>
       <use x="63.623047" xlink:href="#DejaVuSans-35"/>
       <use x="127.246094" xlink:href="#DejaVuSans-30"/>
      </g>
     </g>
    </g>
    <g id="xtick_5">
     <g id="line2d_5">
      <g>
       <use style="stroke:#000000;stroke-width:0.8;" x="235.753165" xlink:href="#mb90db9378b" y="307.584"/>
      </g>
     </g>
     <g id="text_5">
      <!-- 200 -->
      <g transform="translate(226.209415 322.182437)scale(0.1 -0.1)">
       <defs>
        <path d="M 1228 531 
L 3431 531 
L 3431 0 
L 469 0 
L 469 531 
Q 828 903 1448 1529 
Q 2069 2156 2228 2338 
Q 2531 2678 2651 2914 
Q 2772 3150 2772 3378 
Q 2772 3750 2511 3984 
Q 2250 4219 1831 4219 
Q 1534 4219 1204 4116 
Q 875 4013 500 3803 
L 500 4441 
Q 881 4594 1212 4672 
Q 1544 4750 1819 4750 
Q 2544 4750 2975 4387 
Q 3406 4025 3406 3419 
Q 3406 3131 3298 2873 
Q 3191 2616 2906 2266 
Q 2828 2175 2409 1742 
Q 1991 1309 1228 531 
z
" id="DejaVuSans-32" transform="scale(0.015625)"/>
       </defs>
       <use xlink:href="#DejaVuSans-32"/>
       <use x="63.623047" xlink:href="#DejaVuSans-30"/>
       <use x="127.246094" xlink:href="#DejaVuSans-30"/>
      </g>
     </g>
    </g>
    <g id="xtick_6">
     <g id="line2d_6">
      <g>
       <use style="stroke:#000000;stroke-width:0.8;" x="276.436692" xlink:href="#mb90db9378b" y="307.584"/>
      </g>
     </g>
     <g id="text_6">
      <!-- 250 -->
      <g transform="translate(266.892942 322.182437)scale(0.1 -0.1)">
       <use xlink:href="#DejaVuSans-32"/>
       <use x="63.623047" xlink:href="#DejaVuSans-35"/>
       <use x="127.246094" xlink:href="#DejaVuSans-30"/>
      </g>
     </g>
    </g>
    <g id="xtick_7">
     <g id="line2d_7">
      <g>
       <use style="stroke:#000000;stroke-width:0.8;" x="317.120219" xlink:href="#mb90db9378b" y="307.584"/>
      </g>
     </g>
     <g id="text_7">
      <!-- 300 -->
      <g transform="translate(307.576469 322.182437)scale(0.1 -0.1)">
       <defs>
        <path d="M 2597 2516 
Q 3050 2419 3304 2112 
Q 3559 1806 3559 1356 
Q 3559 666 3084 287 
Q 2609 -91 1734 -91 
Q 1441 -91 1130 -33 
Q 819 25 488 141 
L 488 750 
Q 750 597 1062 519 
Q 1375 441 1716 441 
Q 2309 441 2620 675 
Q 2931 909 2931 1356 
Q 2931 1769 2642 2001 
Q 2353 2234 1838 2234 
L 1294 2234 
L 1294 2753 
L 1863 2753 
Q 2328 2753 2575 2939 
Q 2822 3125 2822 3475 
Q 2822 3834 2567 4026 
Q 2313 4219 1838 4219 
Q 1578 4219 1281 4162 
Q 984 4106 628 3988 
L 628 4550 
Q 988 4650 1302 4700 
Q 1616 4750 1894 4750 
Q 2613 4750 3031 4423 
Q 3450 4097 3450 3541 
Q 3450 3153 3228 2886 
Q 3006 2619 2597 2516 
z
" id="DejaVuSans-33" transform="scale(0.015625)"/>
       </defs>
       <use xlink:href="#DejaVuSans-33"/>
       <use x="63.623047" xlink:href="#DejaVuSans-30"/>
       <use x="127.246094" xlink:href="#DejaVuSans-30"/>
      </g>
     </g>
    </g>
    <g id="xtick_8">
     <g id="line2d_8">
      <g>
       <use style="stroke:#000000;stroke-width:0.8;" x="357.803746" xlink:href="#mb90db9378b" y="307.584"/>
      </g>
     </g>
     <g id="text_8">
      <!-- 350 -->
      <g transform="translate(348.259996 322.182437)scale(0.1 -0.1)">
       <use xlink:href="#DejaVuSans-33"/>
       <use x="63.623047" xlink:href="#DejaVuSans-35"/>
       <use x="127.246094" xlink:href="#DejaVuSans-30"/>
      </g>
     </g>
    </g>
    <g id="xtick_9">
     <g id="line2d_9">
      <g>
       <use style="stroke:#000000;stroke-width:0.8;" x="398.487273" xlink:href="#mb90db9378b" y="307.584"/>
      </g>
     </g>
     <g id="text_9">
      <!-- 400 -->
      <g transform="translate(388.943523 322.182437)scale(0.1 -0.1)">
       <defs>
        <path d="M 2419 4116 
L 825 1625 
L 2419 1625 
L 2419 4116 
z
M 2253 4666 
L 3047 4666 
L 3047 1625 
L 3713 1625 
L 3713 1100 
L 3047 1100 
L 3047 0 
L 2419 0 
L 2419 1100 
L 313 1100 
L 313 1709 
L 2253 4666 
z
" id="DejaVuSans-34" transform="scale(0.015625)"/>
       </defs>
       <use xlink:href="#DejaVuSans-34"/>
       <use x="63.623047" xlink:href="#DejaVuSans-30"/>
       <use x="127.246094" xlink:href="#DejaVuSans-30"/>
      </g>
     </g>
    </g>
    <g id="text_10">
     <!-- Epoch -->
     <g transform="translate(213.193594 339.659781)scale(0.15 -0.15)">
      <defs>
       <path d="M 628 4666 
L 3578 4666 
L 3578 4134 
L 1259 4134 
L 1259 2753 
L 3481 2753 
L 3481 2222 
L 1259 2222 
L 1259 531 
L 3634 531 
L 3634 0 
L 628 0 
L 628 4666 
z
" id="DejaVuSans-45" transform="scale(0.015625)"/>
       <path d="M 1159 525 
L 1159 -1331 
L 581 -1331 
L 581 3500 
L 1159 3500 
L 1159 2969 
Q 1341 3281 1617 3432 
Q 1894 3584 2278 3584 
Q 2916 3584 3314 3078 
Q 3713 2572 3713 1747 
Q 3713 922 3314 415 
Q 2916 -91 2278 -91 
Q 1894 -91 1617 61 
Q 1341 213 1159 525 
z
M 3116 1747 
Q 3116 2381 2855 2742 
Q 2594 3103 2138 3103 
Q 1681 3103 1420 2742 
Q 1159 2381 1159 1747 
Q 1159 1113 1420 752 
Q 1681 391 2138 391 
Q 2594 391 2855 752 
Q 3116 1113 3116 1747 
z
" id="DejaVuSans-70" transform="scale(0.015625)"/>
       <path d="M 1959 3097 
Q 1497 3097 1228 2736 
Q 959 2375 959 1747 
Q 959 1119 1226 758 
Q 1494 397 1959 397 
Q 2419 397 2687 759 
Q 2956 1122 2956 1747 
Q 2956 2369 2687 2733 
Q 2419 3097 1959 3097 
z
M 1959 3584 
Q 2709 3584 3137 3096 
Q 3566 2609 3566 1747 
Q 3566 888 3137 398 
Q 2709 -91 1959 -91 
Q 1206 -91 779 398 
Q 353 888 353 1747 
Q 353 2609 779 3096 
Q 1206 3584 1959 3584 
z
" id="DejaVuSans-6f" transform="scale(0.015625)"/>
       <path d="M 3122 3366 
L 3122 2828 
Q 2878 2963 2633 3030 
Q 2388 3097 2138 3097 
Q 1578 3097 1268 2742 
Q 959 2388 959 1747 
Q 959 1106 1268 751 
Q 1578 397 2138 397 
Q 2388 397 2633 464 
Q 2878 531 3122 666 
L 3122 134 
Q 2881 22 2623 -34 
Q 2366 -91 2075 -91 
Q 1284 -91 818 406 
Q 353 903 353 1747 
Q 353 2603 823 3093 
Q 1294 3584 2113 3584 
Q 2378 3584 2631 3529 
Q 2884 3475 3122 3366 
z
" id="DejaVuSans-63" transform="scale(0.015625)"/>
       <path d="M 3513 2113 
L 3513 0 
L 2938 0 
L 2938 2094 
Q 2938 2591 2744 2837 
Q 2550 3084 2163 3084 
Q 1697 3084 1428 2787 
Q 1159 2491 1159 1978 
L 1159 0 
L 581 0 
L 581 4863 
L 1159 4863 
L 1159 2956 
Q 1366 3272 1645 3428 
Q 1925 3584 2291 3584 
Q 2894 3584 3203 3211 
Q 3513 2838 3513 2113 
z
" id="DejaVuSans-68" transform="scale(0.015625)"/>
      </defs>
      <use xlink:href="#DejaVuSans-45"/>
      <use x="63.183594" xlink:href="#DejaVuSans-70"/>
      <use x="126.660156" xlink:href="#DejaVuSans-6f"/>
      <use x="187.841797" xlink:href="#DejaVuSans-63"/>
      <use x="242.822266" xlink:href="#DejaVuSans-68"/>
     </g>
    </g>
   </g>
   <g id="matplotlib.axis_2">
    <g id="ytick_1">
     <g id="line2d_10">
      <defs>
       <path d="M 0 0 
L -3.5 0 
" id="m467ed842fc" style="stroke:#000000;stroke-width:0.8;"/>
      </defs>
      <g>
       <use style="stroke:#000000;stroke-width:0.8;" x="57.6" xlink:href="#m467ed842fc" y="279.966715"/>
      </g>
     </g>
     <g id="text_11">
      <!-- −1000 -->
      <g transform="translate(16.770313 283.765934)scale(0.1 -0.1)">
       <defs>
        <path d="M 678 2272 
L 4684 2272 
L 4684 1741 
L 678 1741 
L 678 2272 
z
" id="DejaVuSans-2212" transform="scale(0.015625)"/>
       </defs>
       <use xlink:href="#DejaVuSans-2212"/>
       <use x="83.789062" xlink:href="#DejaVuSans-31"/>
       <use x="147.412109" xlink:href="#DejaVuSans-30"/>
       <use x="211.035156" xlink:href="#DejaVuSans-30"/>
       <use x="274.658203" xlink:href="#DejaVuSans-30"/>
      </g>
     </g>
    </g>
    <g id="ytick_2">
     <g id="line2d_11">
      <g>
       <use style="stroke:#000000;stroke-width:0.8;" x="57.6" xlink:href="#m467ed842fc" y="230.392831"/>
      </g>
     </g>
     <g id="text_12">
      <!-- −800 -->
      <g transform="translate(23.132812 234.19205)scale(0.1 -0.1)">
       <defs>
        <path d="M 2034 2216 
Q 1584 2216 1326 1975 
Q 1069 1734 1069 1313 
Q 1069 891 1326 650 
Q 1584 409 2034 409 
Q 2484 409 2743 651 
Q 3003 894 3003 1313 
Q 3003 1734 2745 1975 
Q 2488 2216 2034 2216 
z
M 1403 2484 
Q 997 2584 770 2862 
Q 544 3141 544 3541 
Q 544 4100 942 4425 
Q 1341 4750 2034 4750 
Q 2731 4750 3128 4425 
Q 3525 4100 3525 3541 
Q 3525 3141 3298 2862 
Q 3072 2584 2669 2484 
Q 3125 2378 3379 2068 
Q 3634 1759 3634 1313 
Q 3634 634 3220 271 
Q 2806 -91 2034 -91 
Q 1263 -91 848 271 
Q 434 634 434 1313 
Q 434 1759 690 2068 
Q 947 2378 1403 2484 
z
M 1172 3481 
Q 1172 3119 1398 2916 
Q 1625 2713 2034 2713 
Q 2441 2713 2670 2916 
Q 2900 3119 2900 3481 
Q 2900 3844 2670 4047 
Q 2441 4250 2034 4250 
Q 1625 4250 1398 4047 
Q 1172 3844 1172 3481 
z
" id="DejaVuSans-38" transform="scale(0.015625)"/>
       </defs>
       <use xlink:href="#DejaVuSans-2212"/>
       <use x="83.789062" xlink:href="#DejaVuSans-38"/>
       <use x="147.412109" xlink:href="#DejaVuSans-30"/>
       <use x="211.035156" xlink:href="#DejaVuSans-30"/>
      </g>
     </g>
    </g>
    <g id="ytick_3">
     <g id="line2d_12">
      <g>
       <use style="stroke:#000000;stroke-width:0.8;" x="57.6" xlink:href="#m467ed842fc" y="180.818948"/>
      </g>
     </g>
     <g id="text_13">
      <!-- −600 -->
      <g transform="translate(23.132812 184.618167)scale(0.1 -0.1)">
       <defs>
        <path d="M 2113 2584 
Q 1688 2584 1439 2293 
Q 1191 2003 1191 1497 
Q 1191 994 1439 701 
Q 1688 409 2113 409 
Q 2538 409 2786 701 
Q 3034 994 3034 1497 
Q 3034 2003 2786 2293 
Q 2538 2584 2113 2584 
z
M 3366 4563 
L 3366 3988 
Q 3128 4100 2886 4159 
Q 2644 4219 2406 4219 
Q 1781 4219 1451 3797 
Q 1122 3375 1075 2522 
Q 1259 2794 1537 2939 
Q 1816 3084 2150 3084 
Q 2853 3084 3261 2657 
Q 3669 2231 3669 1497 
Q 3669 778 3244 343 
Q 2819 -91 2113 -91 
Q 1303 -91 875 529 
Q 447 1150 447 2328 
Q 447 3434 972 4092 
Q 1497 4750 2381 4750 
Q 2619 4750 2861 4703 
Q 3103 4656 3366 4563 
z
" id="DejaVuSans-36" transform="scale(0.015625)"/>
       </defs>
       <use xlink:href="#DejaVuSans-2212"/>
       <use x="83.789062" xlink:href="#DejaVuSans-36"/>
       <use x="147.412109" xlink:href="#DejaVuSans-30"/>
       <use x="211.035156" xlink:href="#DejaVuSans-30"/>
      </g>
     </g>
    </g>
    <g id="ytick_4">
     <g id="line2d_13">
      <g>
       <use style="stroke:#000000;stroke-width:0.8;" x="57.6" xlink:href="#m467ed842fc" y="131.245064"/>
      </g>
     </g>
     <g id="text_14">
      <!-- −400 -->
      <g transform="translate(23.132812 135.044283)scale(0.1 -0.1)">
       <use xlink:href="#DejaVuSans-2212"/>
       <use x="83.789062" xlink:href="#DejaVuSans-34"/>
       <use x="147.412109" xlink:href="#DejaVuSans-30"/>
       <use x="211.035156" xlink:href="#DejaVuSans-30"/>
      </g>
     </g>
    </g>
    <g id="ytick_5">
     <g id="line2d_14">
      <g>
       <use style="stroke:#000000;stroke-width:0.8;" x="57.6" xlink:href="#m467ed842fc" y="81.671181"/>
      </g>
     </g>
     <g id="text_15">
      <!-- −200 -->
      <g transform="translate(23.132812 85.4704)scale(0.1 -0.1)">
       <use xlink:href="#DejaVuSans-2212"/>
       <use x="83.789062" xlink:href="#DejaVuSans-32"/>
       <use x="147.412109" xlink:href="#DejaVuSans-30"/>
       <use x="211.035156" xlink:href="#DejaVuSans-30"/>
      </g>
     </g>
    </g>
    <g id="text_16">
     <!-- Loss -->
     <g transform="translate(9.650781 190.978781)rotate(-90)scale(0.15 -0.15)">
      <defs>
       <path d="M 628 4666 
L 1259 4666 
L 1259 531 
L 3531 531 
L 3531 0 
L 628 0 
L 628 4666 
z
" id="DejaVuSans-4c" transform="scale(0.015625)"/>
       <path d="M 2834 3397 
L 2834 2853 
Q 2591 2978 2328 3040 
Q 2066 3103 1784 3103 
Q 1356 3103 1142 2972 
Q 928 2841 928 2578 
Q 928 2378 1081 2264 
Q 1234 2150 1697 2047 
L 1894 2003 
Q 2506 1872 2764 1633 
Q 3022 1394 3022 966 
Q 3022 478 2636 193 
Q 2250 -91 1575 -91 
Q 1294 -91 989 -36 
Q 684 19 347 128 
L 347 722 
Q 666 556 975 473 
Q 1284 391 1588 391 
Q 1994 391 2212 530 
Q 2431 669 2431 922 
Q 2431 1156 2273 1281 
Q 2116 1406 1581 1522 
L 1381 1569 
Q 847 1681 609 1914 
Q 372 2147 372 2553 
Q 372 3047 722 3315 
Q 1072 3584 1716 3584 
Q 2034 3584 2315 3537 
Q 2597 3491 2834 3397 
z
" id="DejaVuSans-73" transform="scale(0.015625)"/>
      </defs>
      <use xlink:href="#DejaVuSans-4c"/>
      <use x="53.962891" xlink:href="#DejaVuSans-6f"/>
      <use x="115.144531" xlink:href="#DejaVuSans-73"/>
      <use x="167.244141" xlink:href="#DejaVuSans-73"/>
     </g>
    </g>
   </g>
   <g id="line2d_15">
    <path clip-path="url(#p633086c603)" d="M 73.832727 53.568 
L 74.646398 114.937985 
L 75.460068 130.838728 
L 76.273739 126.544876 
L 77.087409 144.552403 
L 77.90108 140.78747 
L 78.714751 147.966983 
L 80.342092 165.348414 
L 81.155762 158.125079 
L 81.969433 166.388866 
L 82.783103 171.799299 
L 83.596774 171.78815 
L 84.410444 177.447375 
L 85.224115 177.171197 
L 86.037785 181.851524 
L 86.851456 189.700283 
L 87.665126 189.234233 
L 88.478797 191.141225 
L 89.292468 167.607725 
L 90.106138 193.307106 
L 90.919809 170.487974 
L 91.733479 203.379884 
L 92.54715 200.287345 
L 93.36082 194.797393 
L 94.174491 199.42824 
L 94.988161 200.486004 
L 95.801832 197.324695 
L 96.615502 210.449279 
L 97.429173 205.36849 
L 98.242843 210.054718 
L 99.056514 206.584448 
L 99.870185 220.066172 
L 100.683855 218.879112 
L 101.497526 223.755735 
L 102.311196 210.91474 
L 103.124867 208.182617 
L 103.938537 209.510019 
L 104.752208 217.458352 
L 105.565878 229.112052 
L 106.379549 228.32134 
L 107.193219 225.403706 
L 108.00689 219.626612 
L 108.82056 233.588265 
L 109.634231 229.277599 
L 110.447902 221.339422 
L 111.261572 233.527275 
L 112.075243 211.178347 
L 112.888913 234.216074 
L 113.702584 224.584157 
L 114.516254 227.433439 
L 115.329925 221.142262 
L 116.143595 235.90385 
L 116.957266 226.711071 
L 117.770936 233.493338 
L 118.584607 237.268095 
L 119.398278 231.803866 
L 120.211948 238.750972 
L 121.025619 223.879414 
L 121.839289 239.66982 
L 122.65296 231.750082 
L 123.46663 235.99852 
L 124.280301 235.565908 
L 125.093971 243.276914 
L 125.907642 237.915611 
L 126.721312 240.725799 
L 127.534983 239.361743 
L 128.348653 238.285019 
L 129.162324 239.159921 
L 129.975995 238.3344 
L 130.789665 242.085596 
L 131.603336 241.57578 
L 132.417006 241.777576 
L 133.230677 243.711881 
L 134.044347 246.278115 
L 134.858018 251.51562 
L 136.485359 234.701667 
L 137.299029 250.763603 
L 138.1127 239.950643 
L 138.92637 248.092672 
L 139.740041 237.470684 
L 140.553712 242.356934 
L 141.367382 252.538334 
L 142.181053 243.890634 
L 142.994723 245.598356 
L 143.808394 239.533497 
L 144.622064 240.986545 
L 146.249405 254.062308 
L 147.063076 242.792993 
L 147.876746 245.060127 
L 148.690417 242.290292 
L 149.504087 254.159758 
L 150.317758 255.857853 
L 151.131429 254.886762 
L 151.945099 253.391933 
L 152.75877 254.1668 
L 153.57244 250.050074 
L 154.386111 249.702984 
L 155.199781 241.885401 
L 156.013452 253.627636 
L 156.827122 245.915692 
L 157.640793 257.261425 
L 158.454463 256.219038 
L 159.268134 237.400278 
L 160.081805 238.231146 
L 160.895475 251.357892 
L 161.709146 257.21749 
L 162.522816 257.069857 
L 163.336487 256.307547 
L 164.150157 236.755324 
L 164.963828 257.403753 
L 165.777498 255.73132 
L 166.591169 248.199788 
L 167.404839 263.573465 
L 169.03218 243.072405 
L 169.845851 259.604494 
L 170.659522 259.221845 
L 171.473192 249.533601 
L 172.286863 259.420508 
L 173.100533 250.363253 
L 173.914204 243.90999 
L 174.727874 245.312706 
L 175.541545 250.861277 
L 176.355215 250.236241 
L 177.168886 252.875715 
L 177.982556 257.221564 
L 178.796227 247.549596 
L 179.609897 252.232766 
L 180.423568 243.043684 
L 181.237239 259.539325 
L 182.050909 251.20554 
L 182.86458 260.727659 
L 183.67825 253.0232 
L 184.491921 246.502637 
L 185.305591 250.355766 
L 186.119262 256.352382 
L 186.932932 248.853417 
L 187.746603 253.100186 
L 188.560273 259.023409 
L 189.373944 260.778872 
L 190.187614 243.912377 
L 191.001285 256.87341 
L 191.814956 263.901515 
L 192.628626 252.981484 
L 193.442297 250.417239 
L 194.255967 253.620535 
L 195.069638 258.069266 
L 195.883308 261.688246 
L 196.696979 260.833896 
L 197.510649 255.474918 
L 199.13799 253.528334 
L 199.951661 265.530256 
L 200.765332 257.647062 
L 201.579002 252.691307 
L 202.392673 249.921816 
L 203.206343 256.701343 
L 204.020014 257.69083 
L 204.833684 260.98124 
L 205.647355 269.173025 
L 207.274696 253.388099 
L 208.088366 257.69476 
L 208.902037 251.598391 
L 209.715707 264.290893 
L 210.529378 264.574099 
L 211.343049 248.453072 
L 212.156719 256.019821 
L 212.97039 267.544817 
L 213.78406 261.036996 
L 215.411401 266.853049 
L 216.225072 261.790481 
L 217.038742 258.278477 
L 217.852413 261.472734 
L 218.666083 255.501367 
L 219.479754 266.415502 
L 220.293424 265.766778 
L 221.107095 253.361763 
L 221.920766 258.949616 
L 222.734436 274.523483 
L 223.548107 257.140475 
L 224.361777 268.584755 
L 225.175448 253.9467 
L 225.989118 252.344641 
L 226.802789 261.629366 
L 227.616459 267.47399 
L 228.43013 242.671728 
L 229.2438 259.154843 
L 230.057471 266.162556 
L 230.871141 260.500047 
L 231.684812 256.649377 
L 232.498483 258.302099 
L 233.312153 265.844793 
L 234.125824 256.838161 
L 234.939494 278.722736 
L 235.753165 262.163923 
L 236.566835 248.355306 
L 237.380506 263.484465 
L 238.194176 264.082171 
L 239.007847 256.985766 
L 239.821517 268.225703 
L 240.635188 267.078253 
L 241.448859 258.366439 
L 242.262529 258.019339 
L 243.0762 266.642103 
L 243.88987 261.187273 
L 244.703541 252.79578 
L 245.517211 263.589672 
L 246.330882 259.59469 
L 247.144552 260.631636 
L 247.958223 264.478566 
L 248.771893 255.017263 
L 249.585564 261.843319 
L 250.399234 258.883117 
L 251.212905 262.043748 
L 252.026576 266.508915 
L 252.840246 249.753852 
L 253.653917 257.427418 
L 254.467587 250.252236 
L 255.281258 265.055505 
L 256.094928 258.633095 
L 256.908599 268.548383 
L 257.722269 266.00772 
L 258.53594 269.036735 
L 259.34961 271.153619 
L 260.163281 266.723053 
L 260.976951 258.650266 
L 261.790622 266.399029 
L 262.604293 258.34776 
L 263.417963 259.794973 
L 264.231634 264.237962 
L 265.045304 266.439732 
L 265.858975 274.342801 
L 266.672645 275.248736 
L 267.486316 273.293089 
L 268.299986 262.564661 
L 269.113657 267.951594 
L 269.927327 262.360905 
L 270.740998 259.686795 
L 271.554668 259.861799 
L 272.368339 261.791622 
L 273.18201 260.661599 
L 273.99568 272.777237 
L 274.809351 261.726453 
L 275.623021 264.524263 
L 276.436692 258.433568 
L 277.250362 260.655053 
L 278.064033 260.062433 
L 278.877703 266.196249 
L 279.691374 271.343263 
L 280.505044 265.687197 
L 281.318715 264.12663 
L 282.132386 267.192506 
L 282.946056 262.121133 
L 283.759727 265.393907 
L 284.573397 271.987056 
L 285.387068 261.701611 
L 286.200738 265.34493 
L 287.014409 267.646553 
L 287.828079 272.608136 
L 288.64175 265.394319 
L 289.45542 277.229575 
L 290.269091 260.045153 
L 291.082761 275.593948 
L 291.896432 270.271992 
L 292.710103 273.563415 
L 294.337444 262.654877 
L 295.151114 256.446195 
L 295.964785 270.222187 
L 296.778455 270.153243 
L 297.592126 276.198707 
L 298.405796 261.965784 
L 299.219467 270.689234 
L 300.033137 276.97421 
L 300.846808 250.841867 
L 301.660478 259.721357 
L 302.474149 264.658903 
L 303.28782 277.765114 
L 304.10149 277.898823 
L 304.915161 260.63516 
L 305.728831 271.008963 
L 306.542502 275.19271 
L 307.356172 269.366732 
L 308.169843 268.125138 
L 308.983513 260.608448 
L 309.797184 272.26096 
L 310.610854 261.663019 
L 311.424525 278.187037 
L 312.238195 262.2304 
L 313.051866 259.994781 
L 313.865537 260.931051 
L 314.679207 265.809177 
L 315.492878 268.939898 
L 316.306548 261.925918 
L 317.933889 276.382699 
L 318.74756 276.062446 
L 319.56123 266.272424 
L 320.374901 268.758709 
L 321.188571 270.529047 
L 322.002242 264.780495 
L 322.815913 271.84852 
L 324.443254 274.747376 
L 325.256924 275.046334 
L 326.070595 274.472597 
L 326.884265 270.108958 
L 327.697936 276.327883 
L 328.511606 255.066198 
L 329.325277 276.559145 
L 330.138947 276.638881 
L 330.952618 270.869345 
L 331.766288 276.279141 
L 332.579959 260.32802 
L 333.39363 276.329828 
L 334.2073 274.063122 
L 335.020971 265.664029 
L 335.834641 270.315287 
L 336.648312 279.849778 
L 337.461982 273.369713 
L 338.275653 269.935351 
L 339.089323 276.667626 
L 339.902994 285.369811 
L 340.716664 277.02971 
L 341.530335 271.158186 
L 342.344005 276.884666 
L 343.157676 276.926553 
L 343.971347 279.112235 
L 344.785017 271.686897 
L 345.598688 267.361343 
L 346.412358 272.393958 
L 347.226029 272.455215 
L 348.039699 274.094049 
L 348.85337 272.526639 
L 349.66704 278.838673 
L 350.480711 277.628027 
L 351.294381 279.318128 
L 352.108052 277.198374 
L 352.921722 270.746468 
L 353.735393 276.261941 
L 354.549064 269.431371 
L 355.362734 278.676781 
L 356.176405 267.294467 
L 356.990075 269.142416 
L 357.803746 275.694807 
L 358.617416 268.339951 
L 359.431087 275.981125 
L 360.244757 265.023042 
L 361.058428 265.043289 
L 361.872098 283.544779 
L 362.685769 271.792832 
L 363.49944 284.885115 
L 364.31311 264.988974 
L 365.126781 286.051196 
L 365.940451 275.30678 
L 366.754122 277.928025 
L 367.567792 278.88704 
L 368.381463 265.066834 
L 369.195133 279.495997 
L 370.008804 261.976395 
L 370.822474 274.475124 
L 371.636145 275.478154 
L 372.449815 279.321699 
L 373.263486 271.435475 
L 374.077157 265.986775 
L 374.890827 287.003745 
L 375.704498 280.691362 
L 376.518168 280.125984 
L 377.331839 276.24125 
L 378.145509 270.745236 
L 378.95918 295.245245 
L 379.77285 277.623566 
L 380.586521 270.077699 
L 381.400191 278.589519 
L 382.213862 285.0495 
L 383.027532 281.724141 
L 383.841203 281.666073 
L 384.654874 295.488 
L 385.468544 278.310988 
L 386.282215 281.484944 
L 387.095885 271.816514 
L 387.909556 274.596466 
L 388.723226 279.235461 
L 389.536897 264.025459 
L 390.350567 272.680643 
L 391.164238 272.560544 
L 391.977908 275.277698 
L 392.791579 271.786941 
L 393.605249 268.94446 
L 394.41892 282.088035 
L 395.232591 272.343139 
L 396.046261 268.818784 
L 396.859932 285.680063 
L 397.673602 277.914189 
L 398.487273 274.008343 
L 398.487273 274.008343 
" style="fill:none;stroke:#1f77b4;stroke-linecap:square;stroke-width:1.5;"/>
   </g>
   <g id="line2d_16">
    <path clip-path="url(#p633086c603)" d="M 73.832727 111.10321 
L 74.646398 118.792606 
L 75.460068 124.473785 
L 76.273739 143.575023 
L 77.90108 157.413654 
L 78.714751 158.50527 
L 79.528421 166.049999 
L 80.342092 163.964668 
L 81.155762 171.547806 
L 81.969433 169.669588 
L 82.783103 168.179069 
L 83.596774 184.481496 
L 84.410444 178.118558 
L 85.224115 177.942731 
L 86.037785 189.92878 
L 86.851456 186.9051 
L 87.665126 193.490413 
L 88.478797 192.885293 
L 89.292468 196.616432 
L 90.106138 197.741609 
L 90.919809 196.111959 
L 91.733479 203.693474 
L 92.54715 187.767299 
L 93.36082 197.032741 
L 94.174491 204.803407 
L 94.988161 197.396469 
L 95.801832 210.734174 
L 96.615502 195.956925 
L 97.429173 210.52033 
L 98.242843 210.939414 
L 99.056514 218.305203 
L 99.870185 217.44915 
L 100.683855 217.135561 
L 101.497526 218.598517 
L 102.311196 219.486919 
L 103.124867 210.279062 
L 103.938537 219.581403 
L 104.752208 220.584004 
L 105.565878 218.204808 
L 106.379549 224.587809 
L 107.193219 220.401015 
L 108.00689 224.320183 
L 108.82056 223.917181 
L 109.634231 218.675672 
L 110.447902 219.986997 
L 111.261572 231.992515 
L 112.075243 211.138607 
L 112.888913 239.570663 
L 113.702584 219.59108 
L 114.516254 221.815676 
L 115.329925 233.026885 
L 116.143595 233.129269 
L 116.957266 231.05935 
L 117.770936 231.437474 
L 118.584607 228.70765 
L 119.398278 238.224694 
L 120.211948 235.883282 
L 121.025619 239.211755 
L 121.839289 232.162188 
L 122.65296 231.388695 
L 123.46663 246.097145 
L 124.280301 237.872502 
L 125.093971 239.093692 
L 125.907642 237.03919 
L 126.721312 235.322869 
L 127.534983 244.849215 
L 128.348653 238.943574 
L 129.162324 235.481882 
L 129.975995 248.570605 
L 130.789665 243.5099 
L 131.603336 239.566534 
L 132.417006 238.279336 
L 133.230677 238.656189 
L 134.044347 209.161398 
L 134.858018 238.047547 
L 135.671688 237.865975 
L 136.485359 244.345363 
L 137.299029 236.966182 
L 138.1127 248.927273 
L 138.92637 244.910759 
L 139.740041 238.510091 
L 140.553712 238.045164 
L 141.367382 242.80795 
L 142.181053 249.947826 
L 142.994723 247.062031 
L 143.808394 245.380204 
L 144.622064 243.321381 
L 145.435735 251.80239 
L 146.249405 240.657016 
L 147.063076 248.450271 
L 147.876746 237.434351 
L 148.690417 246.789482 
L 149.504087 241.851313 
L 150.317758 259.16745 
L 151.131429 250.647942 
L 151.945099 235.77712 
L 152.75877 242.447492 
L 153.57244 247.672957 
L 154.386111 256.571773 
L 155.199781 249.529088 
L 156.827122 251.504509 
L 157.640793 240.658463 
L 158.454463 257.186012 
L 159.268134 257.688894 
L 160.081805 245.861071 
L 160.895475 250.810195 
L 161.709146 245.34314 
L 162.522816 231.756484 
L 163.336487 247.335904 
L 164.150157 247.219114 
L 164.963828 249.712599 
L 165.777498 246.892005 
L 166.591169 245.451392 
L 167.404839 254.132163 
L 168.21851 251.274732 
L 169.03218 249.863283 
L 169.845851 246.492487 
L 170.659522 247.959434 
L 171.473192 262.927277 
L 172.286863 244.993411 
L 173.100533 243.471827 
L 173.914204 255.413339 
L 174.727874 245.931127 
L 175.541545 252.283626 
L 176.355215 243.473911 
L 177.168886 255.140882 
L 177.982556 253.525491 
L 178.796227 248.532789 
L 179.609897 244.891115 
L 180.423568 252.454255 
L 181.237239 249.914338 
L 182.050909 253.844149 
L 182.86458 244.984966 
L 183.67825 257.414387 
L 184.491921 259.57759 
L 185.305591 258.978056 
L 186.119262 251.094441 
L 186.932932 245.730299 
L 187.746603 255.155566 
L 188.560273 262.918816 
L 189.373944 263.061279 
L 190.187614 259.570184 
L 191.814956 242.314996 
L 192.628626 255.895134 
L 193.442297 251.296452 
L 194.255967 261.885223 
L 195.069638 252.702678 
L 195.883308 255.714808 
L 196.696979 255.235157 
L 197.510649 246.670272 
L 198.32432 260.267259 
L 199.13799 247.455571 
L 199.951661 258.964293 
L 200.765332 251.401067 
L 201.579002 258.316888 
L 202.392673 260.949301 
L 203.206343 253.9617 
L 204.020014 255.800895 
L 204.833684 249.478823 
L 205.647355 260.171948 
L 206.461025 251.82536 
L 208.088366 262.008333 
L 208.902037 255.216305 
L 209.715707 254.70414 
L 210.529378 255.366889 
L 212.156719 267.040702 
L 212.97039 256.327676 
L 213.78406 242.915523 
L 214.597731 242.254867 
L 215.411401 259.251782 
L 216.225072 256.683401 
L 217.038742 258.818004 
L 217.852413 247.071832 
L 218.666083 257.587248 
L 219.479754 253.06361 
L 220.293424 262.006362 
L 221.107095 259.260437 
L 221.920766 255.840556 
L 222.734436 263.818296 
L 223.548107 251.214327 
L 224.361777 262.44718 
L 225.175448 266.568429 
L 225.989118 242.998612 
L 227.616459 256.665752 
L 228.43013 253.233454 
L 229.2438 255.032881 
L 230.057471 259.889169 
L 230.871141 260.1621 
L 231.684812 253.433886 
L 232.498483 258.242107 
L 233.312153 253.297503 
L 234.125824 256.464955 
L 234.939494 255.275286 
L 235.753165 252.774784 
L 236.566835 256.757553 
L 237.380506 258.705956 
L 238.194176 250.254953 
L 239.007847 259.854481 
L 239.821517 260.605046 
L 240.635188 260.740109 
L 241.448859 262.105285 
L 242.262529 265.097949 
L 243.0762 252.452208 
L 243.88987 252.779567 
L 244.703541 266.492255 
L 245.517211 258.48572 
L 246.330882 254.458051 
L 247.144552 253.175072 
L 247.958223 269.838373 
L 248.771893 257.260924 
L 249.585564 258.406525 
L 250.399234 264.068578 
L 251.212905 250.592155 
L 252.026576 263.505971 
L 252.840246 258.825309 
L 253.653917 254.794173 
L 254.467587 264.081826 
L 255.281258 252.820283 
L 256.094928 268.801445 
L 256.908599 258.656929 
L 257.722269 255.050604 
L 258.53594 260.082209 
L 259.34961 255.43484 
L 260.163281 251.530237 
L 260.976951 249.511284 
L 261.790622 257.323019 
L 262.604293 259.316974 
L 263.417963 257.171359 
L 264.231634 263.88141 
L 265.858975 262.025198 
L 266.672645 258.283816 
L 267.486316 255.451716 
L 268.299986 257.004956 
L 269.113657 269.643455 
L 269.927327 264.214364 
L 270.740998 257.751329 
L 271.554668 263.191873 
L 272.368339 260.970748 
L 273.18201 255.682908 
L 273.99568 261.800613 
L 274.809351 262.920151 
L 275.623021 258.755998 
L 276.436692 263.811762 
L 277.250362 254.500136 
L 278.064033 263.077328 
L 278.877703 266.216117 
L 279.691374 260.106988 
L 280.505044 263.008561 
L 281.318715 266.931705 
L 282.132386 260.652218 
L 282.946056 260.174221 
L 283.759727 258.937841 
L 284.573397 258.611297 
L 285.387068 254.888746 
L 286.200738 259.659714 
L 287.014409 253.145669 
L 287.828079 263.855899 
L 288.64175 264.850803 
L 289.45542 265.500642 
L 290.269091 251.195343 
L 291.082761 259.958002 
L 292.710103 260.860075 
L 293.523773 263.009037 
L 294.337444 270.079975 
L 295.151114 265.702104 
L 295.964785 252.638883 
L 296.778455 257.965541 
L 297.592126 257.818834 
L 298.405796 273.412584 
L 299.219467 259.424403 
L 300.033137 267.136136 
L 300.846808 264.328206 
L 301.660478 255.957502 
L 303.28782 273.142282 
L 304.10149 268.271109 
L 304.915161 265.554775 
L 305.728831 261.415563 
L 306.542502 264.302717 
L 307.356172 265.28271 
L 308.169843 263.973928 
L 308.983513 248.124486 
L 309.797184 274.165282 
L 310.610854 266.810292 
L 312.238195 262.855484 
L 313.051866 264.489425 
L 313.865537 266.521201 
L 314.679207 262.485564 
L 315.492878 273.66198 
L 316.306548 262.94994 
L 317.120219 266.05504 
L 317.933889 261.913615 
L 318.74756 272.065265 
L 319.56123 264.476801 
L 320.374901 255.454536 
L 321.188571 272.485482 
L 322.002242 276.876837 
L 322.815913 258.735899 
L 323.629583 260.822895 
L 324.443254 259.344007 
L 325.256924 264.834781 
L 326.070595 261.700542 
L 326.884265 265.983641 
L 327.697936 271.696549 
L 328.511606 263.941133 
L 329.325277 268.439119 
L 330.138947 259.70175 
L 330.952618 267.419395 
L 331.766288 263.994761 
L 332.579959 264.069129 
L 333.39363 270.904833 
L 334.2073 274.398968 
L 335.020971 268.845412 
L 335.834641 274.615145 
L 336.648312 274.870928 
L 337.461982 265.289119 
L 338.275653 263.781615 
L 339.089323 271.545063 
L 339.902994 273.732842 
L 340.716664 258.505729 
L 341.530335 267.221991 
L 342.344005 267.710555 
L 343.157676 266.153871 
L 343.971347 267.384658 
L 344.785017 259.278348 
L 345.598688 265.385236 
L 346.412358 264.399742 
L 347.226029 274.468159 
L 348.039699 270.871627 
L 348.85337 259.187858 
L 349.66704 274.217431 
L 350.480711 274.181035 
L 351.294381 265.496718 
L 352.108052 265.150847 
L 352.921722 272.539268 
L 353.735393 261.676459 
L 354.549064 268.261253 
L 355.362734 272.73134 
L 356.176405 265.742903 
L 356.990075 266.711068 
L 357.803746 271.799803 
L 358.617416 261.597213 
L 359.431087 274.434984 
L 360.244757 271.730731 
L 361.058428 273.760609 
L 361.872098 291.907677 
L 362.685769 257.769975 
L 363.49944 269.615913 
L 364.31311 273.437246 
L 365.126781 270.465524 
L 365.940451 271.639054 
L 366.754122 276.959476 
L 367.567792 257.96687 
L 368.381463 271.428542 
L 369.195133 264.949979 
L 370.008804 269.565134 
L 370.822474 270.666105 
L 371.636145 265.787361 
L 372.449815 254.921366 
L 373.263486 266.718376 
L 374.077157 272.374805 
L 374.890827 273.774793 
L 375.704498 275.668742 
L 376.518168 261.509596 
L 377.331839 270.422544 
L 378.145509 275.878536 
L 378.95918 272.420875 
L 379.77285 266.899662 
L 380.586521 271.636691 
L 381.400191 271.197627 
L 382.213862 273.722978 
L 383.027532 271.123865 
L 383.841203 264.656346 
L 384.654874 272.225817 
L 385.468544 267.59234 
L 386.282215 267.179791 
L 387.095885 270.269713 
L 387.909556 274.266368 
L 388.723226 270.189045 
L 389.536897 257.819667 
L 390.350567 273.001225 
L 391.164238 274.474293 
L 391.977908 275.016494 
L 392.791579 270.123352 
L 394.41892 264.784067 
L 395.232591 268.100406 
L 396.046261 261.036958 
L 396.859932 272.834369 
L 397.673602 273.501095 
L 398.487273 273.38812 
L 398.487273 273.38812 
" style="fill:none;stroke:#ff7f0e;stroke-linecap:square;stroke-width:1.5;"/>
   </g>
   <g id="patch_3">
    <path d="M 57.6 307.584 
L 57.6 41.472 
" style="fill:none;stroke:#000000;stroke-linecap:square;stroke-linejoin:miter;stroke-width:0.8;"/>
   </g>
   <g id="patch_4">
    <path d="M 414.72 307.584 
L 414.72 41.472 
" style="fill:none;stroke:#000000;stroke-linecap:square;stroke-linejoin:miter;stroke-width:0.8;"/>
   </g>
   <g id="patch_5">
    <path d="M 57.6 307.584 
L 414.72 307.584 
" style="fill:none;stroke:#000000;stroke-linecap:square;stroke-linejoin:miter;stroke-width:0.8;"/>
   </g>
   <g id="patch_6">
    <path d="M 57.6 41.472 
L 414.72 41.472 
" style="fill:none;stroke:#000000;stroke-linecap:square;stroke-linejoin:miter;stroke-width:0.8;"/>
   </g>
   <g id="legend_1">
    <g id="patch_7">
     <path d="M 303.845 78.82825 
L 407.72 78.82825 
Q 409.72 78.82825 409.72 76.82825 
L 409.72 48.472 
Q 409.72 46.472 407.72 46.472 
L 303.845 46.472 
Q 301.845 46.472 301.845 48.472 
L 301.845 76.82825 
Q 301.845 78.82825 303.845 78.82825 
z
" style="fill:#ffffff;opacity:0.8;stroke:#cccccc;stroke-linejoin:miter;"/>
    </g>
    <g id="line2d_17">
     <path d="M 305.845 54.570437 
L 325.845 54.570437 
" style="fill:none;stroke:#1f77b4;stroke-linecap:square;stroke-width:1.5;"/>
    </g>
    <g id="line2d_18"/>
    <g id="text_17">
     <!-- Train loss -->
     <g transform="translate(333.845 58.070437)scale(0.1 -0.1)">
      <defs>
       <path d="M -19 4666 
L 3928 4666 
L 3928 4134 
L 2272 4134 
L 2272 0 
L 1638 0 
L 1638 4134 
L -19 4134 
L -19 4666 
z
" id="DejaVuSans-54" transform="scale(0.015625)"/>
       <path d="M 2631 2963 
Q 2534 3019 2420 3045 
Q 2306 3072 2169 3072 
Q 1681 3072 1420 2755 
Q 1159 2438 1159 1844 
L 1159 0 
L 581 0 
L 581 3500 
L 1159 3500 
L 1159 2956 
Q 1341 3275 1631 3429 
Q 1922 3584 2338 3584 
Q 2397 3584 2469 3576 
Q 2541 3569 2628 3553 
L 2631 2963 
z
" id="DejaVuSans-72" transform="scale(0.015625)"/>
       <path d="M 2194 1759 
Q 1497 1759 1228 1600 
Q 959 1441 959 1056 
Q 959 750 1161 570 
Q 1363 391 1709 391 
Q 2188 391 2477 730 
Q 2766 1069 2766 1631 
L 2766 1759 
L 2194 1759 
z
M 3341 1997 
L 3341 0 
L 2766 0 
L 2766 531 
Q 2569 213 2275 61 
Q 1981 -91 1556 -91 
Q 1019 -91 701 211 
Q 384 513 384 1019 
Q 384 1609 779 1909 
Q 1175 2209 1959 2209 
L 2766 2209 
L 2766 2266 
Q 2766 2663 2505 2880 
Q 2244 3097 1772 3097 
Q 1472 3097 1187 3025 
Q 903 2953 641 2809 
L 641 3341 
Q 956 3463 1253 3523 
Q 1550 3584 1831 3584 
Q 2591 3584 2966 3190 
Q 3341 2797 3341 1997 
z
" id="DejaVuSans-61" transform="scale(0.015625)"/>
       <path d="M 603 3500 
L 1178 3500 
L 1178 0 
L 603 0 
L 603 3500 
z
M 603 4863 
L 1178 4863 
L 1178 4134 
L 603 4134 
L 603 4863 
z
" id="DejaVuSans-69" transform="scale(0.015625)"/>
       <path d="M 3513 2113 
L 3513 0 
L 2938 0 
L 2938 2094 
Q 2938 2591 2744 2837 
Q 2550 3084 2163 3084 
Q 1697 3084 1428 2787 
Q 1159 2491 1159 1978 
L 1159 0 
L 581 0 
L 581 3500 
L 1159 3500 
L 1159 2956 
Q 1366 3272 1645 3428 
Q 1925 3584 2291 3584 
Q 2894 3584 3203 3211 
Q 3513 2838 3513 2113 
z
" id="DejaVuSans-6e" transform="scale(0.015625)"/>
       <path id="DejaVuSans-20" transform="scale(0.015625)"/>
       <path d="M 603 4863 
L 1178 4863 
L 1178 0 
L 603 0 
L 603 4863 
z
" id="DejaVuSans-6c" transform="scale(0.015625)"/>
      </defs>
      <use xlink:href="#DejaVuSans-54"/>
      <use x="46.333984" xlink:href="#DejaVuSans-72"/>
      <use x="87.447266" xlink:href="#DejaVuSans-61"/>
      <use x="148.726562" xlink:href="#DejaVuSans-69"/>
      <use x="176.509766" xlink:href="#DejaVuSans-6e"/>
      <use x="239.888672" xlink:href="#DejaVuSans-20"/>
      <use x="271.675781" xlink:href="#DejaVuSans-6c"/>
      <use x="299.458984" xlink:href="#DejaVuSans-6f"/>
      <use x="360.640625" xlink:href="#DejaVuSans-73"/>
      <use x="412.740234" xlink:href="#DejaVuSans-73"/>
     </g>
    </g>
    <g id="line2d_19">
     <path d="M 305.845 69.248562 
L 325.845 69.248562 
" style="fill:none;stroke:#ff7f0e;stroke-linecap:square;stroke-width:1.5;"/>
    </g>
    <g id="line2d_20"/>
    <g id="text_18">
     <!-- Validation loss -->
     <g transform="translate(333.845 72.748562)scale(0.1 -0.1)">
      <defs>
       <path d="M 1831 0 
L 50 4666 
L 709 4666 
L 2188 738 
L 3669 4666 
L 4325 4666 
L 2547 0 
L 1831 0 
z
" id="DejaVuSans-56" transform="scale(0.015625)"/>
       <path d="M 2906 2969 
L 2906 4863 
L 3481 4863 
L 3481 0 
L 2906 0 
L 2906 525 
Q 2725 213 2448 61 
Q 2172 -91 1784 -91 
Q 1150 -91 751 415 
Q 353 922 353 1747 
Q 353 2572 751 3078 
Q 1150 3584 1784 3584 
Q 2172 3584 2448 3432 
Q 2725 3281 2906 2969 
z
M 947 1747 
Q 947 1113 1208 752 
Q 1469 391 1925 391 
Q 2381 391 2643 752 
Q 2906 1113 2906 1747 
Q 2906 2381 2643 2742 
Q 2381 3103 1925 3103 
Q 1469 3103 1208 2742 
Q 947 2381 947 1747 
z
" id="DejaVuSans-64" transform="scale(0.015625)"/>
       <path d="M 1172 4494 
L 1172 3500 
L 2356 3500 
L 2356 3053 
L 1172 3053 
L 1172 1153 
Q 1172 725 1289 603 
Q 1406 481 1766 481 
L 2356 481 
L 2356 0 
L 1766 0 
Q 1100 0 847 248 
Q 594 497 594 1153 
L 594 3053 
L 172 3053 
L 172 3500 
L 594 3500 
L 594 4494 
L 1172 4494 
z
" id="DejaVuSans-74" transform="scale(0.015625)"/>
      </defs>
      <use xlink:href="#DejaVuSans-56"/>
      <use x="60.658203" xlink:href="#DejaVuSans-61"/>
      <use x="121.9375" xlink:href="#DejaVuSans-6c"/>
      <use x="149.720703" xlink:href="#DejaVuSans-69"/>
      <use x="177.503906" xlink:href="#DejaVuSans-64"/>
      <use x="240.980469" xlink:href="#DejaVuSans-61"/>
      <use x="302.259766" xlink:href="#DejaVuSans-74"/>
      <use x="341.46875" xlink:href="#DejaVuSans-69"/>
      <use x="369.251953" xlink:href="#DejaVuSans-6f"/>
      <use x="430.433594" xlink:href="#DejaVuSans-6e"/>
      <use x="493.8125" xlink:href="#DejaVuSans-20"/>
      <use x="525.599609" xlink:href="#DejaVuSans-6c"/>
      <use x="553.382812" xlink:href="#DejaVuSans-6f"/>
      <use x="614.564453" xlink:href="#DejaVuSans-73"/>
      <use x="666.664062" xlink:href="#DejaVuSans-73"/>
     </g>
    </g>
   </g>
  </g>
 </g>
 <defs>
  <clipPath id="p633086c603">
   <rect height="266.112" width="357.12" x="57.6" y="41.472"/>
  </clipPath>
 </defs>
</svg>
