<?xml version="1.0" encoding="utf-8" standalone="no"?>
<!DOCTYPE svg PUBLIC "-//W3C//DTD SVG 1.1//EN"
  "http://www.w3.org/Graphics/SVG/1.1/DTD/svg11.dtd">
<svg height="345.6pt" version="1.1" viewBox="0 0 460.8 345.6" width="460.8pt" xmlns="http://www.w3.org/2000/svg" xmlns:xlink="http://www.w3.org/1999/xlink">
 <metadata>
  <rdf:RDF xmlns:cc="http://creativecommons.org/ns#" xmlns:dc="http://purl.org/dc/elements/1.1/" xmlns:rdf="http://www.w3.org/1999/02/22-rdf-syntax-ns#">
   <cc:Work>
    <dc:type rdf:resource="http://purl.org/dc/dcmitype/StillImage"/>
    <dc:date>2021-07-16T01:21:42.968939</dc:date>
    <dc:format>image/svg+xml</dc:format>
    <dc:creator>
     <cc:Agent>
      <dc:title>Matplotlib v3.4.2, https://matplotlib.org/</dc:title>
     </cc:Agent>
    </dc:creator>
   </cc:Work>
  </rdf:RDF>
 </metadata>
 <defs>
  <style type="text/css">*{stroke-linecap:butt;stroke-linejoin:round;}</style>
 </defs>
 <g id="figure_1">
  <g id="patch_1">
   <path d="M 0 345.6 
L 460.8 345.6 
L 460.8 0 
L 0 0 
z
" style="fill:#ffffff;"/>
  </g>
  <g id="axes_1">
   <g id="patch_2">
    <path d="M 57.6 307.584 
L 414.72 307.584 
L 414.72 41.472 
L 57.6 41.472 
z
" style="fill:#ffffff;"/>
   </g>
   <g id="matplotlib.axis_1">
    <g id="xtick_1">
     <g id="line2d_1">
      <defs>
       <path d="M 0 0 
L 0 3.5 
" id="m0687906f45" style="stroke:#000000;stroke-width:0.8;"/>
      </defs>
      <g>
       <use style="stroke:#000000;stroke-width:0.8;" x="73.019057" xlink:href="#m0687906f45" y="307.584"/>
      </g>
     </g>
     <g id="text_1">
      <!-- 0 -->
      <g transform="translate(69.837807 322.182437)scale(0.1 -0.1)">
       <defs>
        <path d="M 2034 4250 
Q 1547 4250 1301 3770 
Q 1056 3291 1056 2328 
Q 1056 1369 1301 889 
Q 1547 409 2034 409 
Q 2525 409 2770 889 
Q 3016 1369 3016 2328 
Q 3016 3291 2770 3770 
Q 2525 4250 2034 4250 
z
M 2034 4750 
Q 2819 4750 3233 4129 
Q 3647 3509 3647 2328 
Q 3647 1150 3233 529 
Q 2819 -91 2034 -91 
Q 1250 -91 836 529 
Q 422 1150 422 2328 
Q 422 3509 836 4129 
Q 1250 4750 2034 4750 
z
" id="DejaVuSans-30" transform="scale(0.015625)"/>
       </defs>
       <use xlink:href="#DejaVuSans-30"/>
      </g>
     </g>
    </g>
    <g id="xtick_2">
     <g id="line2d_2">
      <g>
       <use style="stroke:#000000;stroke-width:0.8;" x="113.702584" xlink:href="#m0687906f45" y="307.584"/>
      </g>
     </g>
     <g id="text_2">
      <!-- 50 -->
      <g transform="translate(107.340084 322.182437)scale(0.1 -0.1)">
       <defs>
        <path d="M 691 4666 
L 3169 4666 
L 3169 4134 
L 1269 4134 
L 1269 2991 
Q 1406 3038 1543 3061 
Q 1681 3084 1819 3084 
Q 2600 3084 3056 2656 
Q 3513 2228 3513 1497 
Q 3513 744 3044 326 
Q 2575 -91 1722 -91 
Q 1428 -91 1123 -41 
Q 819 9 494 109 
L 494 744 
Q 775 591 1075 516 
Q 1375 441 1709 441 
Q 2250 441 2565 725 
Q 2881 1009 2881 1497 
Q 2881 1984 2565 2268 
Q 2250 2553 1709 2553 
Q 1456 2553 1204 2497 
Q 953 2441 691 2322 
L 691 4666 
z
" id="DejaVuSans-35" transform="scale(0.015625)"/>
       </defs>
       <use xlink:href="#DejaVuSans-35"/>
       <use x="63.623047" xlink:href="#DejaVuSans-30"/>
      </g>
     </g>
    </g>
    <g id="xtick_3">
     <g id="line2d_3">
      <g>
       <use style="stroke:#000000;stroke-width:0.8;" x="154.386111" xlink:href="#m0687906f45" y="307.584"/>
      </g>
     </g>
     <g id="text_3">
      <!-- 100 -->
      <g transform="translate(144.842361 322.182437)scale(0.1 -0.1)">
       <defs>
        <path d="M 794 531 
L 1825 531 
L 1825 4091 
L 703 3866 
L 703 4441 
L 1819 4666 
L 2450 4666 
L 2450 531 
L 3481 531 
L 3481 0 
L 794 0 
L 794 531 
z
" id="DejaVuSans-31" transform="scale(0.015625)"/>
       </defs>
       <use xlink:href="#DejaVuSans-31"/>
       <use x="63.623047" xlink:href="#DejaVuSans-30"/>
       <use x="127.246094" xlink:href="#DejaVuSans-30"/>
      </g>
     </g>
    </g>
    <g id="xtick_4">
     <g id="line2d_4">
      <g>
       <use style="stroke:#000000;stroke-width:0.8;" x="195.069638" xlink:href="#m0687906f45" y="307.584"/>
      </g>
     </g>
     <g id="text_4">
      <!-- 150 -->
      <g transform="translate(185.525888 322.182437)scale(0.1 -0.1)">
       <use xlink:href="#DejaVuSans-31"/>
       <use x="63.623047" xlink:href="#DejaVuSans-35"/>
       <use x="127.246094" xlink:href="#DejaVuSans-30"/>
      </g>
     </g>
    </g>
    <g id="xtick_5">
     <g id="line2d_5">
      <g>
       <use style="stroke:#000000;stroke-width:0.8;" x="235.753165" xlink:href="#m0687906f45" y="307.584"/>
      </g>
     </g>
     <g id="text_5">
      <!-- 200 -->
      <g transform="translate(226.209415 322.182437)scale(0.1 -0.1)">
       <defs>
        <path d="M 1228 531 
L 3431 531 
L 3431 0 
L 469 0 
L 469 531 
Q 828 903 1448 1529 
Q 2069 2156 2228 2338 
Q 2531 2678 2651 2914 
Q 2772 3150 2772 3378 
Q 2772 3750 2511 3984 
Q 2250 4219 1831 4219 
Q 1534 4219 1204 4116 
Q 875 4013 500 3803 
L 500 4441 
Q 881 4594 1212 4672 
Q 1544 4750 1819 4750 
Q 2544 4750 2975 4387 
Q 3406 4025 3406 3419 
Q 3406 3131 3298 2873 
Q 3191 2616 2906 2266 
Q 2828 2175 2409 1742 
Q 1991 1309 1228 531 
z
" id="DejaVuSans-32" transform="scale(0.015625)"/>
       </defs>
       <use xlink:href="#DejaVuSans-32"/>
       <use x="63.623047" xlink:href="#DejaVuSans-30"/>
       <use x="127.246094" xlink:href="#DejaVuSans-30"/>
      </g>
     </g>
    </g>
    <g id="xtick_6">
     <g id="line2d_6">
      <g>
       <use style="stroke:#000000;stroke-width:0.8;" x="276.436692" xlink:href="#m0687906f45" y="307.584"/>
      </g>
     </g>
     <g id="text_6">
      <!-- 250 -->
      <g transform="translate(266.892942 322.182437)scale(0.1 -0.1)">
       <use xlink:href="#DejaVuSans-32"/>
       <use x="63.623047" xlink:href="#DejaVuSans-35"/>
       <use x="127.246094" xlink:href="#DejaVuSans-30"/>
      </g>
     </g>
    </g>
    <g id="xtick_7">
     <g id="line2d_7">
      <g>
       <use style="stroke:#000000;stroke-width:0.8;" x="317.120219" xlink:href="#m0687906f45" y="307.584"/>
      </g>
     </g>
     <g id="text_7">
      <!-- 300 -->
      <g transform="translate(307.576469 322.182437)scale(0.1 -0.1)">
       <defs>
        <path d="M 2597 2516 
Q 3050 2419 3304 2112 
Q 3559 1806 3559 1356 
Q 3559 666 3084 287 
Q 2609 -91 1734 -91 
Q 1441 -91 1130 -33 
Q 819 25 488 141 
L 488 750 
Q 750 597 1062 519 
Q 1375 441 1716 441 
Q 2309 441 2620 675 
Q 2931 909 2931 1356 
Q 2931 1769 2642 2001 
Q 2353 2234 1838 2234 
L 1294 2234 
L 1294 2753 
L 1863 2753 
Q 2328 2753 2575 2939 
Q 2822 3125 2822 3475 
Q 2822 3834 2567 4026 
Q 2313 4219 1838 4219 
Q 1578 4219 1281 4162 
Q 984 4106 628 3988 
L 628 4550 
Q 988 4650 1302 4700 
Q 1616 4750 1894 4750 
Q 2613 4750 3031 4423 
Q 3450 4097 3450 3541 
Q 3450 3153 3228 2886 
Q 3006 2619 2597 2516 
z
" id="DejaVuSans-33" transform="scale(0.015625)"/>
       </defs>
       <use xlink:href="#DejaVuSans-33"/>
       <use x="63.623047" xlink:href="#DejaVuSans-30"/>
       <use x="127.246094" xlink:href="#DejaVuSans-30"/>
      </g>
     </g>
    </g>
    <g id="xtick_8">
     <g id="line2d_8">
      <g>
       <use style="stroke:#000000;stroke-width:0.8;" x="357.803746" xlink:href="#m0687906f45" y="307.584"/>
      </g>
     </g>
     <g id="text_8">
      <!-- 350 -->
      <g transform="translate(348.259996 322.182437)scale(0.1 -0.1)">
       <use xlink:href="#DejaVuSans-33"/>
       <use x="63.623047" xlink:href="#DejaVuSans-35"/>
       <use x="127.246094" xlink:href="#DejaVuSans-30"/>
      </g>
     </g>
    </g>
    <g id="xtick_9">
     <g id="line2d_9">
      <g>
       <use style="stroke:#000000;stroke-width:0.8;" x="398.487273" xlink:href="#m0687906f45" y="307.584"/>
      </g>
     </g>
     <g id="text_9">
      <!-- 400 -->
      <g transform="translate(388.943523 322.182437)scale(0.1 -0.1)">
       <defs>
        <path d="M 2419 4116 
L 825 1625 
L 2419 1625 
L 2419 4116 
z
M 2253 4666 
L 3047 4666 
L 3047 1625 
L 3713 1625 
L 3713 1100 
L 3047 1100 
L 3047 0 
L 2419 0 
L 2419 1100 
L 313 1100 
L 313 1709 
L 2253 4666 
z
" id="DejaVuSans-34" transform="scale(0.015625)"/>
       </defs>
       <use xlink:href="#DejaVuSans-34"/>
       <use x="63.623047" xlink:href="#DejaVuSans-30"/>
       <use x="127.246094" xlink:href="#DejaVuSans-30"/>
      </g>
     </g>
    </g>
    <g id="text_10">
     <!-- Epoch -->
     <g transform="translate(213.193594 339.659781)scale(0.15 -0.15)">
      <defs>
       <path d="M 628 4666 
L 3578 4666 
L 3578 4134 
L 1259 4134 
L 1259 2753 
L 3481 2753 
L 3481 2222 
L 1259 2222 
L 1259 531 
L 3634 531 
L 3634 0 
L 628 0 
L 628 4666 
z
" id="DejaVuSans-45" transform="scale(0.015625)"/>
       <path d="M 1159 525 
L 1159 -1331 
L 581 -1331 
L 581 3500 
L 1159 3500 
L 1159 2969 
Q 1341 3281 1617 3432 
Q 1894 3584 2278 3584 
Q 2916 3584 3314 3078 
Q 3713 2572 3713 1747 
Q 3713 922 3314 415 
Q 2916 -91 2278 -91 
Q 1894 -91 1617 61 
Q 1341 213 1159 525 
z
M 3116 1747 
Q 3116 2381 2855 2742 
Q 2594 3103 2138 3103 
Q 1681 3103 1420 2742 
Q 1159 2381 1159 1747 
Q 1159 1113 1420 752 
Q 1681 391 2138 391 
Q 2594 391 2855 752 
Q 3116 1113 3116 1747 
z
" id="DejaVuSans-70" transform="scale(0.015625)"/>
       <path d="M 1959 3097 
Q 1497 3097 1228 2736 
Q 959 2375 959 1747 
Q 959 1119 1226 758 
Q 1494 397 1959 397 
Q 2419 397 2687 759 
Q 2956 1122 2956 1747 
Q 2956 2369 2687 2733 
Q 2419 3097 1959 3097 
z
M 1959 3584 
Q 2709 3584 3137 3096 
Q 3566 2609 3566 1747 
Q 3566 888 3137 398 
Q 2709 -91 1959 -91 
Q 1206 -91 779 398 
Q 353 888 353 1747 
Q 353 2609 779 3096 
Q 1206 3584 1959 3584 
z
" id="DejaVuSans-6f" transform="scale(0.015625)"/>
       <path d="M 3122 3366 
L 3122 2828 
Q 2878 2963 2633 3030 
Q 2388 3097 2138 3097 
Q 1578 3097 1268 2742 
Q 959 2388 959 1747 
Q 959 1106 1268 751 
Q 1578 397 2138 397 
Q 2388 397 2633 464 
Q 2878 531 3122 666 
L 3122 134 
Q 2881 22 2623 -34 
Q 2366 -91 2075 -91 
Q 1284 -91 818 406 
Q 353 903 353 1747 
Q 353 2603 823 3093 
Q 1294 3584 2113 3584 
Q 2378 3584 2631 3529 
Q 2884 3475 3122 3366 
z
" id="DejaVuSans-63" transform="scale(0.015625)"/>
       <path d="M 3513 2113 
L 3513 0 
L 2938 0 
L 2938 2094 
Q 2938 2591 2744 2837 
Q 2550 3084 2163 3084 
Q 1697 3084 1428 2787 
Q 1159 2491 1159 1978 
L 1159 0 
L 581 0 
L 581 4863 
L 1159 4863 
L 1159 2956 
Q 1366 3272 1645 3428 
Q 1925 3584 2291 3584 
Q 2894 3584 3203 3211 
Q 3513 2838 3513 2113 
z
" id="DejaVuSans-68" transform="scale(0.015625)"/>
      </defs>
      <use xlink:href="#DejaVuSans-45"/>
      <use x="63.183594" xlink:href="#DejaVuSans-70"/>
      <use x="126.660156" xlink:href="#DejaVuSans-6f"/>
      <use x="187.841797" xlink:href="#DejaVuSans-63"/>
      <use x="242.822266" xlink:href="#DejaVuSans-68"/>
     </g>
    </g>
   </g>
   <g id="matplotlib.axis_2">
    <g id="ytick_1">
     <g id="line2d_10">
      <defs>
       <path d="M 0 0 
L -3.5 0 
" id="mce349c9395" style="stroke:#000000;stroke-width:0.8;"/>
      </defs>
      <g>
       <use style="stroke:#000000;stroke-width:0.8;" x="57.6" xlink:href="#mce349c9395" y="289.09794"/>
      </g>
     </g>
     <g id="text_11">
      <!-- −0.20 -->
      <g transform="translate(19.954687 292.897159)scale(0.1 -0.1)">
       <defs>
        <path d="M 678 2272 
L 4684 2272 
L 4684 1741 
L 678 1741 
L 678 2272 
z
" id="DejaVuSans-2212" transform="scale(0.015625)"/>
        <path d="M 684 794 
L 1344 794 
L 1344 0 
L 684 0 
L 684 794 
z
" id="DejaVuSans-2e" transform="scale(0.015625)"/>
       </defs>
       <use xlink:href="#DejaVuSans-2212"/>
       <use x="83.789062" xlink:href="#DejaVuSans-30"/>
       <use x="147.412109" xlink:href="#DejaVuSans-2e"/>
       <use x="179.199219" xlink:href="#DejaVuSans-32"/>
       <use x="242.822266" xlink:href="#DejaVuSans-30"/>
      </g>
     </g>
    </g>
    <g id="ytick_2">
     <g id="line2d_11">
      <g>
       <use style="stroke:#000000;stroke-width:0.8;" x="57.6" xlink:href="#mce349c9395" y="230.217769"/>
      </g>
     </g>
     <g id="text_12">
      <!-- −0.15 -->
      <g transform="translate(19.954687 234.016988)scale(0.1 -0.1)">
       <use xlink:href="#DejaVuSans-2212"/>
       <use x="83.789062" xlink:href="#DejaVuSans-30"/>
       <use x="147.412109" xlink:href="#DejaVuSans-2e"/>
       <use x="179.199219" xlink:href="#DejaVuSans-31"/>
       <use x="242.822266" xlink:href="#DejaVuSans-35"/>
      </g>
     </g>
    </g>
    <g id="ytick_3">
     <g id="line2d_12">
      <g>
       <use style="stroke:#000000;stroke-width:0.8;" x="57.6" xlink:href="#mce349c9395" y="171.337598"/>
      </g>
     </g>
     <g id="text_13">
      <!-- −0.10 -->
      <g transform="translate(19.954687 175.136817)scale(0.1 -0.1)">
       <use xlink:href="#DejaVuSans-2212"/>
       <use x="83.789062" xlink:href="#DejaVuSans-30"/>
       <use x="147.412109" xlink:href="#DejaVuSans-2e"/>
       <use x="179.199219" xlink:href="#DejaVuSans-31"/>
       <use x="242.822266" xlink:href="#DejaVuSans-30"/>
      </g>
     </g>
    </g>
    <g id="ytick_4">
     <g id="line2d_13">
      <g>
       <use style="stroke:#000000;stroke-width:0.8;" x="57.6" xlink:href="#mce349c9395" y="112.457427"/>
      </g>
     </g>
     <g id="text_14">
      <!-- −0.05 -->
      <g transform="translate(19.954687 116.256646)scale(0.1 -0.1)">
       <use xlink:href="#DejaVuSans-2212"/>
       <use x="83.789062" xlink:href="#DejaVuSans-30"/>
       <use x="147.412109" xlink:href="#DejaVuSans-2e"/>
       <use x="179.199219" xlink:href="#DejaVuSans-30"/>
       <use x="242.822266" xlink:href="#DejaVuSans-35"/>
      </g>
     </g>
    </g>
    <g id="ytick_5">
     <g id="line2d_14">
      <g>
       <use style="stroke:#000000;stroke-width:0.8;" x="57.6" xlink:href="#mce349c9395" y="53.577256"/>
      </g>
     </g>
     <g id="text_15">
      <!-- 0.00 -->
      <g transform="translate(28.334375 57.376475)scale(0.1 -0.1)">
       <use xlink:href="#DejaVuSans-30"/>
       <use x="63.623047" xlink:href="#DejaVuSans-2e"/>
       <use x="95.410156" xlink:href="#DejaVuSans-30"/>
       <use x="159.033203" xlink:href="#DejaVuSans-30"/>
      </g>
     </g>
    </g>
    <g id="text_16">
     <!-- Loss -->
     <g transform="translate(12.835156 190.978781)rotate(-90)scale(0.15 -0.15)">
      <defs>
       <path d="M 628 4666 
L 1259 4666 
L 1259 531 
L 3531 531 
L 3531 0 
L 628 0 
L 628 4666 
z
" id="DejaVuSans-4c" transform="scale(0.015625)"/>
       <path d="M 2834 3397 
L 2834 2853 
Q 2591 2978 2328 3040 
Q 2066 3103 1784 3103 
Q 1356 3103 1142 2972 
Q 928 2841 928 2578 
Q 928 2378 1081 2264 
Q 1234 2150 1697 2047 
L 1894 2003 
Q 2506 1872 2764 1633 
Q 3022 1394 3022 966 
Q 3022 478 2636 193 
Q 2250 -91 1575 -91 
Q 1294 -91 989 -36 
Q 684 19 347 128 
L 347 722 
Q 666 556 975 473 
Q 1284 391 1588 391 
Q 1994 391 2212 530 
Q 2431 669 2431 922 
Q 2431 1156 2273 1281 
Q 2116 1406 1581 1522 
L 1381 1569 
Q 847 1681 609 1914 
Q 372 2147 372 2553 
Q 372 3047 722 3315 
Q 1072 3584 1716 3584 
Q 2034 3584 2315 3537 
Q 2597 3491 2834 3397 
z
" id="DejaVuSans-73" transform="scale(0.015625)"/>
      </defs>
      <use xlink:href="#DejaVuSans-4c"/>
      <use x="53.962891" xlink:href="#DejaVuSans-6f"/>
      <use x="115.144531" xlink:href="#DejaVuSans-73"/>
      <use x="167.244141" xlink:href="#DejaVuSans-73"/>
     </g>
    </g>
   </g>
   <g id="line2d_15">
    <path clip-path="url(#p9648629f00)" d="M 73.832727 53.568 
L 75.460068 53.575385 
L 103.124867 53.653519 
L 103.938537 53.785051 
L 104.752208 54.152653 
L 105.565878 54.869244 
L 106.379549 57.965197 
L 107.193219 60.180179 
L 108.82056 71.805237 
L 109.634231 75.011296 
L 110.447902 75.349911 
L 111.261572 81.393891 
L 112.075243 78.151277 
L 112.888913 86.647052 
L 113.702584 86.614663 
L 114.516254 88.20051 
L 115.329925 87.349549 
L 116.143595 91.630327 
L 116.957266 88.391782 
L 117.770936 90.584319 
L 118.584607 100.607968 
L 119.398278 94.717672 
L 120.211948 100.098037 
L 121.025619 91.438948 
L 121.839289 106.602081 
L 122.65296 100.613961 
L 123.46663 106.731933 
L 124.280301 101.782616 
L 125.093971 109.496883 
L 125.907642 108.828655 
L 126.721312 103.220982 
L 127.534983 106.604712 
L 128.348653 114.956952 
L 129.162324 112.762057 
L 129.975995 109.092113 
L 130.789665 113.763373 
L 131.603336 114.746539 
L 132.417006 111.872145 
L 133.230677 120.097148 
L 134.044347 121.096694 
L 134.858018 125.342802 
L 135.671688 126.187673 
L 136.485359 119.999601 
L 137.299029 116.787284 
L 138.1127 121.723717 
L 138.92637 130.199424 
L 139.740041 124.641366 
L 140.553712 125.233039 
L 141.367382 136.862532 
L 142.181053 128.493222 
L 142.994723 139.513771 
L 143.808394 139.325643 
L 144.622064 143.516753 
L 145.435735 149.380193 
L 146.249405 151.642048 
L 147.063076 140.958741 
L 147.876746 142.388145 
L 148.690417 142.835735 
L 149.504087 160.851218 
L 150.317758 164.63921 
L 151.131429 160.490571 
L 151.945099 163.902873 
L 152.75877 160.544808 
L 153.57244 169.019947 
L 154.386111 155.007897 
L 155.199781 155.634928 
L 156.013452 161.800796 
L 156.827122 157.371951 
L 157.640793 163.365101 
L 158.454463 158.457454 
L 159.268134 157.104166 
L 160.081805 159.323821 
L 160.895475 159.427084 
L 161.709146 169.041545 
L 162.522816 174.013221 
L 163.336487 170.31698 
L 164.150157 155.28209 
L 164.963828 179.285127 
L 165.777498 177.596586 
L 166.591169 172.793316 
L 167.404839 178.247571 
L 168.21851 169.358276 
L 169.03218 168.27263 
L 169.845851 183.875475 
L 170.659522 181.067387 
L 171.473192 186.626552 
L 172.286863 189.223821 
L 173.914204 175.443099 
L 174.727874 180.460715 
L 175.541545 177.590418 
L 176.355215 184.582746 
L 177.168886 177.203973 
L 177.982556 179.066665 
L 178.796227 173.822274 
L 179.609897 176.861812 
L 180.423568 179.119722 
L 181.237239 189.68382 
L 182.050909 186.109396 
L 182.86458 187.076072 
L 183.67825 191.990948 
L 184.491921 178.671738 
L 185.305591 195.304703 
L 186.119262 192.394957 
L 186.932932 186.84549 
L 187.746603 196.344166 
L 188.560273 195.145993 
L 189.373944 204.096909 
L 190.187614 182.070656 
L 191.001285 200.086587 
L 191.814956 202.622029 
L 192.628626 202.178612 
L 193.442297 194.87939 
L 194.255967 190.790809 
L 195.069638 208.456846 
L 195.883308 208.023928 
L 196.696979 201.196559 
L 197.510649 205.390664 
L 198.32432 208.628404 
L 199.13799 206.79303 
L 199.951661 215.571843 
L 200.765332 210.30144 
L 201.579002 213.689013 
L 202.392673 207.758004 
L 203.206343 210.856004 
L 204.020014 216.333436 
L 204.833684 224.693896 
L 205.647355 231.341601 
L 206.461025 227.026212 
L 207.274696 213.632703 
L 208.088366 211.019457 
L 208.902037 213.395351 
L 209.715707 225.384017 
L 210.529378 232.375141 
L 211.343049 213.800261 
L 212.156719 224.834525 
L 212.97039 230.762148 
L 213.78406 230.434575 
L 214.597731 229.500026 
L 215.411401 254.62944 
L 216.225072 224.307527 
L 217.038742 228.232593 
L 217.852413 240.975267 
L 218.666083 215.091834 
L 219.479754 236.368096 
L 220.293424 225.022596 
L 221.107095 220.573578 
L 221.920766 229.002943 
L 222.734436 248.873865 
L 223.548107 234.123237 
L 224.361777 244.378252 
L 225.175448 229.032045 
L 225.989118 223.666575 
L 226.802789 237.568425 
L 227.616459 242.723662 
L 228.43013 225.833034 
L 229.2438 229.721218 
L 230.057471 235.145816 
L 230.871141 233.451479 
L 231.684812 238.056512 
L 232.498483 235.548319 
L 233.312153 245.090513 
L 234.125824 235.49919 
L 234.939494 259.750027 
L 236.566835 229.232839 
L 237.380506 237.221549 
L 238.194176 247.975306 
L 239.007847 233.228418 
L 239.821517 243.709763 
L 240.635188 247.693889 
L 241.448859 232.135331 
L 242.262529 234.062691 
L 243.0762 252.176168 
L 243.88987 248.010635 
L 244.703541 230.397843 
L 245.517211 242.146016 
L 246.330882 234.425911 
L 247.144552 249.780425 
L 247.958223 246.455093 
L 248.771893 239.384653 
L 249.585564 252.318265 
L 250.399234 251.088431 
L 251.212905 247.415844 
L 252.026576 248.363157 
L 252.840246 226.130891 
L 253.653917 243.196862 
L 254.467587 237.00727 
L 255.281258 252.729391 
L 256.094928 244.767997 
L 256.908599 247.771375 
L 257.722269 243.65702 
L 258.53594 260.6295 
L 259.34961 255.85305 
L 260.163281 252.331196 
L 260.976951 246.200184 
L 261.790622 259.112475 
L 262.604293 244.396894 
L 263.417963 237.692914 
L 264.231634 254.01153 
L 265.045304 243.450013 
L 265.858975 261.568429 
L 266.672645 266.71753 
L 267.486316 258.140878 
L 268.299986 246.560337 
L 269.113657 258.299449 
L 269.927327 255.546358 
L 270.740998 260.189101 
L 271.554668 247.189241 
L 272.368339 249.409284 
L 273.99568 261.963364 
L 274.809351 252.052468 
L 275.623021 247.686597 
L 276.436692 255.666976 
L 277.250362 246.969361 
L 278.064033 240.893169 
L 278.877703 250.994703 
L 279.691374 257.203459 
L 280.505044 262.048482 
L 281.318715 248.069031 
L 282.132386 254.900617 
L 282.946056 248.858595 
L 283.759727 248.936929 
L 284.573397 265.153435 
L 285.387068 258.476931 
L 286.200738 252.7408 
L 287.014409 253.827787 
L 287.828079 256.025554 
L 288.64175 247.64031 
L 289.45542 262.026272 
L 290.269091 240.048321 
L 291.082761 261.358966 
L 291.896432 266.843316 
L 292.710103 277.685788 
L 293.523773 253.433691 
L 294.337444 249.009843 
L 295.151114 252.85298 
L 295.964785 265.204866 
L 296.778455 261.373959 
L 297.592126 285.569506 
L 298.405796 240.094878 
L 299.219467 262.306892 
L 300.033137 272.807507 
L 300.846808 227.835889 
L 301.660478 250.855145 
L 302.474149 248.541174 
L 303.28782 263.451896 
L 304.10149 267.286138 
L 304.915161 249.335238 
L 305.728831 262.193314 
L 306.542502 271.516405 
L 307.356172 265.089145 
L 308.169843 262.907784 
L 308.983513 255.335235 
L 309.797184 260.029896 
L 310.610854 252.649231 
L 311.424525 279.35273 
L 312.238195 253.446221 
L 313.051866 255.847194 
L 313.865537 265.059114 
L 314.679207 261.923794 
L 315.492878 266.243599 
L 316.306548 265.318826 
L 317.120219 271.7667 
L 317.933889 273.828966 
L 318.74756 265.409688 
L 319.56123 269.357559 
L 320.374901 241.136523 
L 321.188571 254.447194 
L 322.002242 255.430674 
L 322.815913 266.700468 
L 323.629583 266.289212 
L 324.443254 265.209611 
L 325.256924 278.790552 
L 326.070595 258.342788 
L 326.884265 268.980563 
L 327.697936 268.335261 
L 328.511606 250.933898 
L 329.325277 259.800475 
L 330.138947 267.420051 
L 330.952618 264.282391 
L 331.766288 266.459342 
L 332.579959 246.175064 
L 333.39363 274.937761 
L 334.2073 265.873096 
L 335.020971 268.929855 
L 335.834641 266.564513 
L 336.648312 272.508968 
L 337.461982 269.44755 
L 338.275653 262.948751 
L 339.089323 264.213609 
L 339.902994 282.72803 
L 340.716664 273.067333 
L 341.530335 260.772611 
L 342.344005 261.364536 
L 343.157676 266.56774 
L 343.971347 262.021782 
L 344.785017 266.715563 
L 345.598688 251.689833 
L 346.412358 263.037282 
L 347.226029 262.461565 
L 348.039699 268.677031 
L 349.66704 261.973341 
L 350.480711 263.833161 
L 351.294381 275.901601 
L 352.108052 264.53152 
L 352.921722 263.888823 
L 353.735393 266.471234 
L 354.549064 264.23301 
L 355.362734 276.984643 
L 356.176405 271.154778 
L 356.990075 276.010203 
L 357.803746 283.736089 
L 358.617416 261.499403 
L 359.431087 265.554722 
L 360.244757 265.839245 
L 361.058428 257.251538 
L 361.872098 272.042125 
L 362.685769 260.952136 
L 363.49944 287.582769 
L 364.31311 258.112349 
L 365.126781 285.678117 
L 365.940451 270.647108 
L 367.567792 275.255965 
L 368.381463 253.331255 
L 369.195133 277.265579 
L 370.008804 261.442645 
L 370.822474 261.69024 
L 371.636145 264.367703 
L 372.449815 275.345672 
L 373.263486 269.205568 
L 374.077157 261.637293 
L 374.890827 285.909434 
L 375.704498 275.780694 
L 376.518168 277.419844 
L 377.331839 276.585958 
L 378.145509 272.828585 
L 378.95918 285.919063 
L 379.77285 267.309628 
L 380.586521 267.336224 
L 381.400191 274.017519 
L 382.213862 286.600186 
L 383.027532 286.593616 
L 383.841203 278.84711 
L 384.654874 278.575132 
L 385.468544 272.830808 
L 386.282215 277.617206 
L 387.095885 262.03385 
L 387.909556 276.517973 
L 388.723226 279.836265 
L 389.536897 262.793273 
L 390.350567 277.517276 
L 391.164238 266.843438 
L 391.977908 266.046505 
L 392.791579 267.64056 
L 393.605249 255.579788 
L 394.41892 283.30944 
L 395.232591 270.020109 
L 396.046261 268.612998 
L 396.859932 278.074849 
L 397.673602 284.701754 
L 398.487273 271.341001 
L 398.487273 271.341001 
" style="fill:none;stroke:#1f77b4;stroke-linecap:square;stroke-width:1.5;"/>
   </g>
   <g id="line2d_16">
    <path clip-path="url(#p9648629f00)" d="M 73.832727 53.590104 
L 80.342092 53.577258 
L 103.124867 53.667274 
L 103.938537 53.838307 
L 104.752208 54.338595 
L 105.565878 55.966826 
L 107.193219 62.041405 
L 108.00689 66.556802 
L 108.82056 72.873706 
L 109.634231 77.964372 
L 110.447902 73.256945 
L 111.261572 77.727285 
L 112.075243 80.245439 
L 112.888913 87.617611 
L 113.702584 88.148989 
L 114.516254 85.517614 
L 116.143595 87.791996 
L 116.957266 91.471279 
L 117.770936 98.65688 
L 118.584607 91.02422 
L 119.398278 94.414446 
L 120.211948 93.400049 
L 121.025619 101.673624 
L 121.839289 105.471314 
L 122.65296 100.63839 
L 123.46663 103.214664 
L 124.280301 112.825585 
L 125.093971 106.958352 
L 125.907642 102.11223 
L 126.721312 98.634368 
L 127.534983 109.878978 
L 128.348653 115.163039 
L 129.162324 106.717229 
L 129.975995 112.039272 
L 130.789665 106.625768 
L 131.603336 114.875633 
L 132.417006 113.774348 
L 133.230677 117.722061 
L 134.044347 109.675096 
L 134.858018 124.37811 
L 135.671688 119.013837 
L 136.485359 116.29472 
L 137.299029 122.003899 
L 138.1127 129.35542 
L 138.92637 125.528344 
L 139.740041 118.333456 
L 140.553712 127.869746 
L 141.367382 139.621122 
L 142.181053 140.320828 
L 142.994723 132.67839 
L 143.808394 142.635614 
L 144.622064 141.913826 
L 145.435735 141.865459 
L 146.249405 142.295214 
L 147.063076 141.04383 
L 147.876746 138.272045 
L 148.690417 161.346846 
L 149.504087 144.308728 
L 150.317758 166.486803 
L 151.131429 156.535525 
L 151.945099 142.622336 
L 152.75877 159.707939 
L 153.57244 144.649574 
L 154.386111 159.634789 
L 155.199781 151.95495 
L 156.013452 159.881894 
L 156.827122 150.171548 
L 157.640793 160.710531 
L 158.454463 162.347768 
L 159.268134 154.399009 
L 160.081805 165.593442 
L 160.895475 160.845776 
L 161.709146 158.282269 
L 162.522816 161.135218 
L 163.336487 169.388479 
L 164.150157 171.867318 
L 164.963828 183.99991 
L 165.777498 174.554237 
L 166.591169 159.164879 
L 167.404839 164.865423 
L 168.21851 151.445807 
L 169.845851 179.754081 
L 170.659522 171.32668 
L 171.473192 186.109693 
L 172.286863 185.149113 
L 173.100533 187.363763 
L 173.914204 185.068008 
L 174.727874 189.696024 
L 175.541545 179.438265 
L 176.355215 180.99147 
L 177.982556 176.898813 
L 178.796227 176.745281 
L 179.609897 175.007813 
L 180.423568 185.61905 
L 181.237239 181.648032 
L 182.86458 176.598503 
L 183.67825 190.271714 
L 184.491921 195.356073 
L 185.305591 198.987455 
L 186.119262 192.778235 
L 186.932932 190.10987 
L 187.746603 199.834724 
L 188.560273 208.005313 
L 189.373944 192.414566 
L 190.187614 197.099692 
L 191.001285 190.240853 
L 191.814956 196.650584 
L 192.628626 201.601941 
L 193.442297 185.29833 
L 194.255967 210.149553 
L 195.069638 209.016786 
L 195.883308 196.185465 
L 196.696979 202.390239 
L 197.510649 206.37409 
L 198.32432 211.309007 
L 199.13799 206.233435 
L 199.951661 206.6272 
L 200.765332 199.351439 
L 201.579002 223.302341 
L 202.392673 216.436282 
L 203.206343 210.843233 
L 204.020014 215.475959 
L 204.833684 209.6233 
L 205.647355 225.546302 
L 206.461025 214.695028 
L 207.274696 218.982505 
L 208.088366 227.57723 
L 208.902037 221.213235 
L 209.715707 216.969442 
L 210.529378 226.391187 
L 211.343049 219.23039 
L 212.156719 226.071761 
L 212.97039 229.956992 
L 213.78406 199.193901 
L 214.597731 194.469302 
L 215.411401 232.489292 
L 216.225072 238.02812 
L 217.038742 230.847011 
L 217.852413 205.661276 
L 218.666083 239.842563 
L 219.479754 220.010741 
L 220.293424 236.146643 
L 221.107095 236.179936 
L 221.920766 234.341348 
L 222.734436 244.178558 
L 223.548107 220.715119 
L 224.361777 244.631227 
L 225.175448 229.840285 
L 226.802789 234.516264 
L 227.616459 212.963071 
L 229.2438 231.869988 
L 230.057471 229.150686 
L 230.871141 230.249306 
L 231.684812 234.329103 
L 232.498483 249.227052 
L 233.312153 238.484957 
L 234.125824 236.892749 
L 234.939494 240.103296 
L 235.753165 233.622547 
L 236.566835 240.037042 
L 237.380506 240.662475 
L 238.194176 249.377918 
L 239.007847 253.469841 
L 239.821517 237.936455 
L 240.635188 243.874864 
L 241.448859 247.341471 
L 242.262529 248.044708 
L 243.88987 234.734045 
L 244.703541 247.550806 
L 245.517211 245.774338 
L 246.330882 243.277129 
L 247.144552 237.179557 
L 247.958223 256.88585 
L 249.585564 246.078164 
L 250.399234 249.271571 
L 251.212905 244.293641 
L 252.026576 250.024043 
L 252.840246 217.06295 
L 253.653917 237.473671 
L 254.467587 262.053183 
L 255.281258 246.302184 
L 256.094928 252.879116 
L 256.908599 243.926826 
L 257.722269 233.203416 
L 258.53594 257.009538 
L 259.34961 244.995967 
L 260.163281 244.477921 
L 260.976951 242.810136 
L 261.790622 254.204839 
L 262.604293 257.513996 
L 263.417963 246.475531 
L 264.231634 248.991781 
L 265.045304 249.277414 
L 265.858975 247.264119 
L 266.672645 245.787705 
L 267.486316 246.38263 
L 268.299986 259.772313 
L 269.113657 256.44728 
L 269.927327 259.056063 
L 270.740998 254.549141 
L 271.554668 255.030723 
L 272.368339 255.001629 
L 273.18201 250.989561 
L 273.99568 255.348652 
L 274.809351 253.489629 
L 275.623021 239.815254 
L 276.436692 260.131535 
L 277.250362 260.060181 
L 278.064033 248.087027 
L 278.877703 268.141908 
L 279.691374 258.09038 
L 280.505044 259.782633 
L 281.318715 258.433849 
L 282.132386 257.319759 
L 282.946056 254.84152 
L 283.759727 263.517789 
L 284.573397 256.380397 
L 285.387068 235.772326 
L 286.200738 253.312958 
L 287.014409 253.043707 
L 287.828079 260.245128 
L 288.64175 251.760039 
L 289.45542 261.103658 
L 290.269091 230.683044 
L 291.082761 264.874859 
L 291.896432 254.958497 
L 292.710103 254.557422 
L 293.523773 261.385123 
L 294.337444 266.817514 
L 295.151114 262.680556 
L 295.964785 248.725929 
L 296.778455 261.49973 
L 297.592126 249.184435 
L 298.405796 273.52261 
L 299.219467 245.711823 
L 300.846808 261.780557 
L 301.660478 248.596064 
L 302.474149 270.476649 
L 303.28782 276.268196 
L 304.10149 272.091093 
L 304.915161 259.083895 
L 305.728831 264.635603 
L 306.542502 266.527278 
L 307.356172 269.332407 
L 308.169843 264.081878 
L 308.983513 241.463846 
L 309.797184 272.557063 
L 310.610854 273.341345 
L 311.424525 266.669541 
L 312.238195 255.813264 
L 313.051866 279.60653 
L 313.865537 262.958422 
L 314.679207 257.810011 
L 315.492878 266.634825 
L 316.306548 268.26898 
L 317.120219 268.52257 
L 317.933889 260.154102 
L 318.74756 262.552636 
L 319.56123 263.839785 
L 320.374901 251.442159 
L 321.188571 263.882297 
L 322.002242 270.84142 
L 322.815913 263.323884 
L 323.629583 254.663586 
L 324.443254 265.839159 
L 325.256924 255.058258 
L 326.070595 262.007398 
L 326.884265 265.848161 
L 327.697936 272.969292 
L 328.511606 255.764077 
L 329.325277 269.552866 
L 330.138947 249.21123 
L 330.952618 246.113413 
L 331.766288 252.660077 
L 332.579959 256.915476 
L 333.39363 268.856179 
L 334.2073 276.805044 
L 335.020971 269.510304 
L 335.834641 279.494788 
L 336.648312 265.376249 
L 337.461982 262.153578 
L 338.275653 264.345606 
L 339.089323 263.033266 
L 339.902994 276.429363 
L 340.716664 253.618998 
L 341.530335 259.142368 
L 342.344005 259.174087 
L 343.157676 264.243059 
L 343.971347 274.985222 
L 344.785017 249.08772 
L 345.598688 253.603001 
L 346.412358 253.752146 
L 347.226029 275.642371 
L 348.039699 270.790635 
L 348.85337 251.21476 
L 349.66704 271.687461 
L 350.480711 269.807867 
L 351.294381 261.636746 
L 352.108052 255.055792 
L 352.921722 276.137676 
L 353.735393 271.804712 
L 354.549064 268.212887 
L 355.362734 273.414439 
L 356.176405 261.760009 
L 356.990075 271.134081 
L 357.803746 249.757305 
L 358.617416 249.840345 
L 359.431087 288.161408 
L 360.244757 251.934143 
L 361.058428 266.76055 
L 361.872098 295.488 
L 362.685769 244.372953 
L 363.49944 269.281863 
L 364.31311 274.869626 
L 365.126781 276.263631 
L 365.940451 275.899392 
L 366.754122 272.365645 
L 367.567792 258.34763 
L 368.381463 269.82947 
L 369.195133 267.98561 
L 370.008804 269.714684 
L 370.822474 266.089371 
L 371.636145 278.568318 
L 372.449815 260.308417 
L 373.263486 274.241415 
L 374.077157 276.047744 
L 374.890827 290.555328 
L 375.704498 284.873254 
L 376.518168 257.853725 
L 377.331839 267.499416 
L 378.145509 281.821886 
L 378.95918 268.453058 
L 379.77285 260.693782 
L 380.586521 269.227149 
L 381.400191 276.028836 
L 382.213862 273.116421 
L 383.027532 274.403372 
L 383.841203 270.873484 
L 384.654874 276.979394 
L 385.468544 274.746687 
L 386.282215 266.250803 
L 387.095885 262.429861 
L 387.909556 281.518288 
L 388.723226 274.456801 
L 389.536897 275.706723 
L 390.350567 272.55269 
L 391.164238 273.193236 
L 391.977908 281.075947 
L 392.791579 270.78385 
L 393.605249 269.775052 
L 394.41892 277.033937 
L 395.232591 272.904952 
L 396.046261 258.744545 
L 396.859932 271.200844 
L 398.487273 278.185267 
L 398.487273 278.185267 
" style="fill:none;stroke:#ff7f0e;stroke-linecap:square;stroke-width:1.5;"/>
   </g>
   <g id="patch_3">
    <path d="M 57.6 307.584 
L 57.6 41.472 
" style="fill:none;stroke:#000000;stroke-linecap:square;stroke-linejoin:miter;stroke-width:0.8;"/>
   </g>
   <g id="patch_4">
    <path d="M 414.72 307.584 
L 414.72 41.472 
" style="fill:none;stroke:#000000;stroke-linecap:square;stroke-linejoin:miter;stroke-width:0.8;"/>
   </g>
   <g id="patch_5">
    <path d="M 57.6 307.584 
L 414.72 307.584 
" style="fill:none;stroke:#000000;stroke-linecap:square;stroke-linejoin:miter;stroke-width:0.8;"/>
   </g>
   <g id="patch_6">
    <path d="M 57.6 41.472 
L 414.72 41.472 
" style="fill:none;stroke:#000000;stroke-linecap:square;stroke-linejoin:miter;stroke-width:0.8;"/>
   </g>
   <g id="legend_1">
    <g id="patch_7">
     <path d="M 303.845 78.82825 
L 407.72 78.82825 
Q 409.72 78.82825 409.72 76.82825 
L 409.72 48.472 
Q 409.72 46.472 407.72 46.472 
L 303.845 46.472 
Q 301.845 46.472 301.845 48.472 
L 301.845 76.82825 
Q 301.845 78.82825 303.845 78.82825 
z
" style="fill:#ffffff;opacity:0.8;stroke:#cccccc;stroke-linejoin:miter;"/>
    </g>
    <g id="line2d_17">
     <path d="M 305.845 54.570437 
L 325.845 54.570437 
" style="fill:none;stroke:#1f77b4;stroke-linecap:square;stroke-width:1.5;"/>
    </g>
    <g id="line2d_18"/>
    <g id="text_17">
     <!-- Train loss -->
     <g transform="translate(333.845 58.070437)scale(0.1 -0.1)">
      <defs>
       <path d="M -19 4666 
L 3928 4666 
L 3928 4134 
L 2272 4134 
L 2272 0 
L 1638 0 
L 1638 4134 
L -19 4134 
L -19 4666 
z
" id="DejaVuSans-54" transform="scale(0.015625)"/>
       <path d="M 2631 2963 
Q 2534 3019 2420 3045 
Q 2306 3072 2169 3072 
Q 1681 3072 1420 2755 
Q 1159 2438 1159 1844 
L 1159 0 
L 581 0 
L 581 3500 
L 1159 3500 
L 1159 2956 
Q 1341 3275 1631 3429 
Q 1922 3584 2338 3584 
Q 2397 3584 2469 3576 
Q 2541 3569 2628 3553 
L 2631 2963 
z
" id="DejaVuSans-72" transform="scale(0.015625)"/>
       <path d="M 2194 1759 
Q 1497 1759 1228 1600 
Q 959 1441 959 1056 
Q 959 750 1161 570 
Q 1363 391 1709 391 
Q 2188 391 2477 730 
Q 2766 1069 2766 1631 
L 2766 1759 
L 2194 1759 
z
M 3341 1997 
L 3341 0 
L 2766 0 
L 2766 531 
Q 2569 213 2275 61 
Q 1981 -91 1556 -91 
Q 1019 -91 701 211 
Q 384 513 384 1019 
Q 384 1609 779 1909 
Q 1175 2209 1959 2209 
L 2766 2209 
L 2766 2266 
Q 2766 2663 2505 2880 
Q 2244 3097 1772 3097 
Q 1472 3097 1187 3025 
Q 903 2953 641 2809 
L 641 3341 
Q 956 3463 1253 3523 
Q 1550 3584 1831 3584 
Q 2591 3584 2966 3190 
Q 3341 2797 3341 1997 
z
" id="DejaVuSans-61" transform="scale(0.015625)"/>
       <path d="M 603 3500 
L 1178 3500 
L 1178 0 
L 603 0 
L 603 3500 
z
M 603 4863 
L 1178 4863 
L 1178 4134 
L 603 4134 
L 603 4863 
z
" id="DejaVuSans-69" transform="scale(0.015625)"/>
       <path d="M 3513 2113 
L 3513 0 
L 2938 0 
L 2938 2094 
Q 2938 2591 2744 2837 
Q 2550 3084 2163 3084 
Q 1697 3084 1428 2787 
Q 1159 2491 1159 1978 
L 1159 0 
L 581 0 
L 581 3500 
L 1159 3500 
L 1159 2956 
Q 1366 3272 1645 3428 
Q 1925 3584 2291 3584 
Q 2894 3584 3203 3211 
Q 3513 2838 3513 2113 
z
" id="DejaVuSans-6e" transform="scale(0.015625)"/>
       <path id="DejaVuSans-20" transform="scale(0.015625)"/>
       <path d="M 603 4863 
L 1178 4863 
L 1178 0 
L 603 0 
L 603 4863 
z
" id="DejaVuSans-6c" transform="scale(0.015625)"/>
      </defs>
      <use xlink:href="#DejaVuSans-54"/>
      <use x="46.333984" xlink:href="#DejaVuSans-72"/>
      <use x="87.447266" xlink:href="#DejaVuSans-61"/>
      <use x="148.726562" xlink:href="#DejaVuSans-69"/>
      <use x="176.509766" xlink:href="#DejaVuSans-6e"/>
      <use x="239.888672" xlink:href="#DejaVuSans-20"/>
      <use x="271.675781" xlink:href="#DejaVuSans-6c"/>
      <use x="299.458984" xlink:href="#DejaVuSans-6f"/>
      <use x="360.640625" xlink:href="#DejaVuSans-73"/>
      <use x="412.740234" xlink:href="#DejaVuSans-73"/>
     </g>
    </g>
    <g id="line2d_19">
     <path d="M 305.845 69.248562 
L 325.845 69.248562 
" style="fill:none;stroke:#ff7f0e;stroke-linecap:square;stroke-width:1.5;"/>
    </g>
    <g id="line2d_20"/>
    <g id="text_18">
     <!-- Validation loss -->
     <g transform="translate(333.845 72.748562)scale(0.1 -0.1)">
      <defs>
       <path d="M 1831 0 
L 50 4666 
L 709 4666 
L 2188 738 
L 3669 4666 
L 4325 4666 
L 2547 0 
L 1831 0 
z
" id="DejaVuSans-56" transform="scale(0.015625)"/>
       <path d="M 2906 2969 
L 2906 4863 
L 3481 4863 
L 3481 0 
L 2906 0 
L 2906 525 
Q 2725 213 2448 61 
Q 2172 -91 1784 -91 
Q 1150 -91 751 415 
Q 353 922 353 1747 
Q 353 2572 751 3078 
Q 1150 3584 1784 3584 
Q 2172 3584 2448 3432 
Q 2725 3281 2906 2969 
z
M 947 1747 
Q 947 1113 1208 752 
Q 1469 391 1925 391 
Q 2381 391 2643 752 
Q 2906 1113 2906 1747 
Q 2906 2381 2643 2742 
Q 2381 3103 1925 3103 
Q 1469 3103 1208 2742 
Q 947 2381 947 1747 
z
" id="DejaVuSans-64" transform="scale(0.015625)"/>
       <path d="M 1172 4494 
L 1172 3500 
L 2356 3500 
L 2356 3053 
L 1172 3053 
L 1172 1153 
Q 1172 725 1289 603 
Q 1406 481 1766 481 
L 2356 481 
L 2356 0 
L 1766 0 
Q 1100 0 847 248 
Q 594 497 594 1153 
L 594 3053 
L 172 3053 
L 172 3500 
L 594 3500 
L 594 4494 
L 1172 4494 
z
" id="DejaVuSans-74" transform="scale(0.015625)"/>
      </defs>
      <use xlink:href="#DejaVuSans-56"/>
      <use x="60.658203" xlink:href="#DejaVuSans-61"/>
      <use x="121.9375" xlink:href="#DejaVuSans-6c"/>
      <use x="149.720703" xlink:href="#DejaVuSans-69"/>
      <use x="177.503906" xlink:href="#DejaVuSans-64"/>
      <use x="240.980469" xlink:href="#DejaVuSans-61"/>
      <use x="302.259766" xlink:href="#DejaVuSans-74"/>
      <use x="341.46875" xlink:href="#DejaVuSans-69"/>
      <use x="369.251953" xlink:href="#DejaVuSans-6f"/>
      <use x="430.433594" xlink:href="#DejaVuSans-6e"/>
      <use x="493.8125" xlink:href="#DejaVuSans-20"/>
      <use x="525.599609" xlink:href="#DejaVuSans-6c"/>
      <use x="553.382812" xlink:href="#DejaVuSans-6f"/>
      <use x="614.564453" xlink:href="#DejaVuSans-73"/>
      <use x="666.664062" xlink:href="#DejaVuSans-73"/>
     </g>
    </g>
   </g>
  </g>
 </g>
 <defs>
  <clipPath id="p9648629f00">
   <rect height="266.112" width="357.12" x="57.6" y="41.472"/>
  </clipPath>
 </defs>
</svg>
