<?xml version="1.0" encoding="utf-8" standalone="no"?>
<!DOCTYPE svg PUBLIC "-//W3C//DTD SVG 1.1//EN"
  "http://www.w3.org/Graphics/SVG/1.1/DTD/svg11.dtd">
<svg height="345.6pt" version="1.1" viewBox="0 0 460.8 345.6" width="460.8pt" xmlns="http://www.w3.org/2000/svg" xmlns:xlink="http://www.w3.org/1999/xlink">
 <metadata>
  <rdf:RDF xmlns:cc="http://creativecommons.org/ns#" xmlns:dc="http://purl.org/dc/elements/1.1/" xmlns:rdf="http://www.w3.org/1999/02/22-rdf-syntax-ns#">
   <cc:Work>
    <dc:type rdf:resource="http://purl.org/dc/dcmitype/StillImage"/>
    <dc:date>2021-07-14T12:10:48.830715</dc:date>
    <dc:format>image/svg+xml</dc:format>
    <dc:creator>
     <cc:Agent>
      <dc:title>Matplotlib v3.4.2, https://matplotlib.org/</dc:title>
     </cc:Agent>
    </dc:creator>
   </cc:Work>
  </rdf:RDF>
 </metadata>
 <defs>
  <style type="text/css">*{stroke-linecap:butt;stroke-linejoin:round;}</style>
 </defs>
 <g id="figure_1">
  <g id="patch_1">
   <path d="M 0 345.6 
L 460.8 345.6 
L 460.8 0 
L 0 0 
z
" style="fill:#ffffff;"/>
  </g>
  <g id="axes_1">
   <g id="patch_2">
    <path d="M 57.6 307.584 
L 414.72 307.584 
L 414.72 41.472 
L 57.6 41.472 
z
" style="fill:#ffffff;"/>
   </g>
   <g id="matplotlib.axis_1">
    <g id="xtick_1">
     <g id="line2d_1">
      <defs>
       <path d="M 0 0 
L 0 3.5 
" id="ma76c03567c" style="stroke:#000000;stroke-width:0.8;"/>
      </defs>
      <g>
       <use style="stroke:#000000;stroke-width:0.8;" x="73.019057" xlink:href="#ma76c03567c" y="307.584"/>
      </g>
     </g>
     <g id="text_1">
      <!-- 0 -->
      <g transform="translate(69.837807 322.182437)scale(0.1 -0.1)">
       <defs>
        <path d="M 2034 4250 
Q 1547 4250 1301 3770 
Q 1056 3291 1056 2328 
Q 1056 1369 1301 889 
Q 1547 409 2034 409 
Q 2525 409 2770 889 
Q 3016 1369 3016 2328 
Q 3016 3291 2770 3770 
Q 2525 4250 2034 4250 
z
M 2034 4750 
Q 2819 4750 3233 4129 
Q 3647 3509 3647 2328 
Q 3647 1150 3233 529 
Q 2819 -91 2034 -91 
Q 1250 -91 836 529 
Q 422 1150 422 2328 
Q 422 3509 836 4129 
Q 1250 4750 2034 4750 
z
" id="DejaVuSans-30" transform="scale(0.015625)"/>
       </defs>
       <use xlink:href="#DejaVuSans-30"/>
      </g>
     </g>
    </g>
    <g id="xtick_2">
     <g id="line2d_2">
      <g>
       <use style="stroke:#000000;stroke-width:0.8;" x="113.702584" xlink:href="#ma76c03567c" y="307.584"/>
      </g>
     </g>
     <g id="text_2">
      <!-- 50 -->
      <g transform="translate(107.340084 322.182437)scale(0.1 -0.1)">
       <defs>
        <path d="M 691 4666 
L 3169 4666 
L 3169 4134 
L 1269 4134 
L 1269 2991 
Q 1406 3038 1543 3061 
Q 1681 3084 1819 3084 
Q 2600 3084 3056 2656 
Q 3513 2228 3513 1497 
Q 3513 744 3044 326 
Q 2575 -91 1722 -91 
Q 1428 -91 1123 -41 
Q 819 9 494 109 
L 494 744 
Q 775 591 1075 516 
Q 1375 441 1709 441 
Q 2250 441 2565 725 
Q 2881 1009 2881 1497 
Q 2881 1984 2565 2268 
Q 2250 2553 1709 2553 
Q 1456 2553 1204 2497 
Q 953 2441 691 2322 
L 691 4666 
z
" id="DejaVuSans-35" transform="scale(0.015625)"/>
       </defs>
       <use xlink:href="#DejaVuSans-35"/>
       <use x="63.623047" xlink:href="#DejaVuSans-30"/>
      </g>
     </g>
    </g>
    <g id="xtick_3">
     <g id="line2d_3">
      <g>
       <use style="stroke:#000000;stroke-width:0.8;" x="154.386111" xlink:href="#ma76c03567c" y="307.584"/>
      </g>
     </g>
     <g id="text_3">
      <!-- 100 -->
      <g transform="translate(144.842361 322.182437)scale(0.1 -0.1)">
       <defs>
        <path d="M 794 531 
L 1825 531 
L 1825 4091 
L 703 3866 
L 703 4441 
L 1819 4666 
L 2450 4666 
L 2450 531 
L 3481 531 
L 3481 0 
L 794 0 
L 794 531 
z
" id="DejaVuSans-31" transform="scale(0.015625)"/>
       </defs>
       <use xlink:href="#DejaVuSans-31"/>
       <use x="63.623047" xlink:href="#DejaVuSans-30"/>
       <use x="127.246094" xlink:href="#DejaVuSans-30"/>
      </g>
     </g>
    </g>
    <g id="xtick_4">
     <g id="line2d_4">
      <g>
       <use style="stroke:#000000;stroke-width:0.8;" x="195.069638" xlink:href="#ma76c03567c" y="307.584"/>
      </g>
     </g>
     <g id="text_4">
      <!-- 150 -->
      <g transform="translate(185.525888 322.182437)scale(0.1 -0.1)">
       <use xlink:href="#DejaVuSans-31"/>
       <use x="63.623047" xlink:href="#DejaVuSans-35"/>
       <use x="127.246094" xlink:href="#DejaVuSans-30"/>
      </g>
     </g>
    </g>
    <g id="xtick_5">
     <g id="line2d_5">
      <g>
       <use style="stroke:#000000;stroke-width:0.8;" x="235.753165" xlink:href="#ma76c03567c" y="307.584"/>
      </g>
     </g>
     <g id="text_5">
      <!-- 200 -->
      <g transform="translate(226.209415 322.182437)scale(0.1 -0.1)">
       <defs>
        <path d="M 1228 531 
L 3431 531 
L 3431 0 
L 469 0 
L 469 531 
Q 828 903 1448 1529 
Q 2069 2156 2228 2338 
Q 2531 2678 2651 2914 
Q 2772 3150 2772 3378 
Q 2772 3750 2511 3984 
Q 2250 4219 1831 4219 
Q 1534 4219 1204 4116 
Q 875 4013 500 3803 
L 500 4441 
Q 881 4594 1212 4672 
Q 1544 4750 1819 4750 
Q 2544 4750 2975 4387 
Q 3406 4025 3406 3419 
Q 3406 3131 3298 2873 
Q 3191 2616 2906 2266 
Q 2828 2175 2409 1742 
Q 1991 1309 1228 531 
z
" id="DejaVuSans-32" transform="scale(0.015625)"/>
       </defs>
       <use xlink:href="#DejaVuSans-32"/>
       <use x="63.623047" xlink:href="#DejaVuSans-30"/>
       <use x="127.246094" xlink:href="#DejaVuSans-30"/>
      </g>
     </g>
    </g>
    <g id="xtick_6">
     <g id="line2d_6">
      <g>
       <use style="stroke:#000000;stroke-width:0.8;" x="276.436692" xlink:href="#ma76c03567c" y="307.584"/>
      </g>
     </g>
     <g id="text_6">
      <!-- 250 -->
      <g transform="translate(266.892942 322.182437)scale(0.1 -0.1)">
       <use xlink:href="#DejaVuSans-32"/>
       <use x="63.623047" xlink:href="#DejaVuSans-35"/>
       <use x="127.246094" xlink:href="#DejaVuSans-30"/>
      </g>
     </g>
    </g>
    <g id="xtick_7">
     <g id="line2d_7">
      <g>
       <use style="stroke:#000000;stroke-width:0.8;" x="317.120219" xlink:href="#ma76c03567c" y="307.584"/>
      </g>
     </g>
     <g id="text_7">
      <!-- 300 -->
      <g transform="translate(307.576469 322.182437)scale(0.1 -0.1)">
       <defs>
        <path d="M 2597 2516 
Q 3050 2419 3304 2112 
Q 3559 1806 3559 1356 
Q 3559 666 3084 287 
Q 2609 -91 1734 -91 
Q 1441 -91 1130 -33 
Q 819 25 488 141 
L 488 750 
Q 750 597 1062 519 
Q 1375 441 1716 441 
Q 2309 441 2620 675 
Q 2931 909 2931 1356 
Q 2931 1769 2642 2001 
Q 2353 2234 1838 2234 
L 1294 2234 
L 1294 2753 
L 1863 2753 
Q 2328 2753 2575 2939 
Q 2822 3125 2822 3475 
Q 2822 3834 2567 4026 
Q 2313 4219 1838 4219 
Q 1578 4219 1281 4162 
Q 984 4106 628 3988 
L 628 4550 
Q 988 4650 1302 4700 
Q 1616 4750 1894 4750 
Q 2613 4750 3031 4423 
Q 3450 4097 3450 3541 
Q 3450 3153 3228 2886 
Q 3006 2619 2597 2516 
z
" id="DejaVuSans-33" transform="scale(0.015625)"/>
       </defs>
       <use xlink:href="#DejaVuSans-33"/>
       <use x="63.623047" xlink:href="#DejaVuSans-30"/>
       <use x="127.246094" xlink:href="#DejaVuSans-30"/>
      </g>
     </g>
    </g>
    <g id="xtick_8">
     <g id="line2d_8">
      <g>
       <use style="stroke:#000000;stroke-width:0.8;" x="357.803746" xlink:href="#ma76c03567c" y="307.584"/>
      </g>
     </g>
     <g id="text_8">
      <!-- 350 -->
      <g transform="translate(348.259996 322.182437)scale(0.1 -0.1)">
       <use xlink:href="#DejaVuSans-33"/>
       <use x="63.623047" xlink:href="#DejaVuSans-35"/>
       <use x="127.246094" xlink:href="#DejaVuSans-30"/>
      </g>
     </g>
    </g>
    <g id="xtick_9">
     <g id="line2d_9">
      <g>
       <use style="stroke:#000000;stroke-width:0.8;" x="398.487273" xlink:href="#ma76c03567c" y="307.584"/>
      </g>
     </g>
     <g id="text_9">
      <!-- 400 -->
      <g transform="translate(388.943523 322.182437)scale(0.1 -0.1)">
       <defs>
        <path d="M 2419 4116 
L 825 1625 
L 2419 1625 
L 2419 4116 
z
M 2253 4666 
L 3047 4666 
L 3047 1625 
L 3713 1625 
L 3713 1100 
L 3047 1100 
L 3047 0 
L 2419 0 
L 2419 1100 
L 313 1100 
L 313 1709 
L 2253 4666 
z
" id="DejaVuSans-34" transform="scale(0.015625)"/>
       </defs>
       <use xlink:href="#DejaVuSans-34"/>
       <use x="63.623047" xlink:href="#DejaVuSans-30"/>
       <use x="127.246094" xlink:href="#DejaVuSans-30"/>
      </g>
     </g>
    </g>
    <g id="text_10">
     <!-- Epoch -->
     <g transform="translate(213.193594 339.659781)scale(0.15 -0.15)">
      <defs>
       <path d="M 628 4666 
L 3578 4666 
L 3578 4134 
L 1259 4134 
L 1259 2753 
L 3481 2753 
L 3481 2222 
L 1259 2222 
L 1259 531 
L 3634 531 
L 3634 0 
L 628 0 
L 628 4666 
z
" id="DejaVuSans-45" transform="scale(0.015625)"/>
       <path d="M 1159 525 
L 1159 -1331 
L 581 -1331 
L 581 3500 
L 1159 3500 
L 1159 2969 
Q 1341 3281 1617 3432 
Q 1894 3584 2278 3584 
Q 2916 3584 3314 3078 
Q 3713 2572 3713 1747 
Q 3713 922 3314 415 
Q 2916 -91 2278 -91 
Q 1894 -91 1617 61 
Q 1341 213 1159 525 
z
M 3116 1747 
Q 3116 2381 2855 2742 
Q 2594 3103 2138 3103 
Q 1681 3103 1420 2742 
Q 1159 2381 1159 1747 
Q 1159 1113 1420 752 
Q 1681 391 2138 391 
Q 2594 391 2855 752 
Q 3116 1113 3116 1747 
z
" id="DejaVuSans-70" transform="scale(0.015625)"/>
       <path d="M 1959 3097 
Q 1497 3097 1228 2736 
Q 959 2375 959 1747 
Q 959 1119 1226 758 
Q 1494 397 1959 397 
Q 2419 397 2687 759 
Q 2956 1122 2956 1747 
Q 2956 2369 2687 2733 
Q 2419 3097 1959 3097 
z
M 1959 3584 
Q 2709 3584 3137 3096 
Q 3566 2609 3566 1747 
Q 3566 888 3137 398 
Q 2709 -91 1959 -91 
Q 1206 -91 779 398 
Q 353 888 353 1747 
Q 353 2609 779 3096 
Q 1206 3584 1959 3584 
z
" id="DejaVuSans-6f" transform="scale(0.015625)"/>
       <path d="M 3122 3366 
L 3122 2828 
Q 2878 2963 2633 3030 
Q 2388 3097 2138 3097 
Q 1578 3097 1268 2742 
Q 959 2388 959 1747 
Q 959 1106 1268 751 
Q 1578 397 2138 397 
Q 2388 397 2633 464 
Q 2878 531 3122 666 
L 3122 134 
Q 2881 22 2623 -34 
Q 2366 -91 2075 -91 
Q 1284 -91 818 406 
Q 353 903 353 1747 
Q 353 2603 823 3093 
Q 1294 3584 2113 3584 
Q 2378 3584 2631 3529 
Q 2884 3475 3122 3366 
z
" id="DejaVuSans-63" transform="scale(0.015625)"/>
       <path d="M 3513 2113 
L 3513 0 
L 2938 0 
L 2938 2094 
Q 2938 2591 2744 2837 
Q 2550 3084 2163 3084 
Q 1697 3084 1428 2787 
Q 1159 2491 1159 1978 
L 1159 0 
L 581 0 
L 581 4863 
L 1159 4863 
L 1159 2956 
Q 1366 3272 1645 3428 
Q 1925 3584 2291 3584 
Q 2894 3584 3203 3211 
Q 3513 2838 3513 2113 
z
" id="DejaVuSans-68" transform="scale(0.015625)"/>
      </defs>
      <use xlink:href="#DejaVuSans-45"/>
      <use x="63.183594" xlink:href="#DejaVuSans-70"/>
      <use x="126.660156" xlink:href="#DejaVuSans-6f"/>
      <use x="187.841797" xlink:href="#DejaVuSans-63"/>
      <use x="242.822266" xlink:href="#DejaVuSans-68"/>
     </g>
    </g>
   </g>
   <g id="matplotlib.axis_2">
    <g id="ytick_1">
     <g id="line2d_10">
      <defs>
       <path d="M 0 0 
L -3.5 0 
" id="mbeb6bbc257" style="stroke:#000000;stroke-width:0.8;"/>
      </defs>
      <g>
       <use style="stroke:#000000;stroke-width:0.8;" x="57.6" xlink:href="#mbeb6bbc257" y="254.016"/>
      </g>
     </g>
     <g id="text_11">
      <!-- 0.2 -->
      <g transform="translate(34.696875 257.815219)scale(0.1 -0.1)">
       <defs>
        <path d="M 684 794 
L 1344 794 
L 1344 0 
L 684 0 
L 684 794 
z
" id="DejaVuSans-2e" transform="scale(0.015625)"/>
       </defs>
       <use xlink:href="#DejaVuSans-30"/>
       <use x="63.623047" xlink:href="#DejaVuSans-2e"/>
       <use x="95.410156" xlink:href="#DejaVuSans-32"/>
      </g>
     </g>
    </g>
    <g id="ytick_2">
     <g id="line2d_11">
      <g>
       <use style="stroke:#000000;stroke-width:0.8;" x="57.6" xlink:href="#mbeb6bbc257" y="198.72"/>
      </g>
     </g>
     <g id="text_12">
      <!-- 0.4 -->
      <g transform="translate(34.696875 202.519219)scale(0.1 -0.1)">
       <use xlink:href="#DejaVuSans-30"/>
       <use x="63.623047" xlink:href="#DejaVuSans-2e"/>
       <use x="95.410156" xlink:href="#DejaVuSans-34"/>
      </g>
     </g>
    </g>
    <g id="ytick_3">
     <g id="line2d_12">
      <g>
       <use style="stroke:#000000;stroke-width:0.8;" x="57.6" xlink:href="#mbeb6bbc257" y="143.424"/>
      </g>
     </g>
     <g id="text_13">
      <!-- 0.6 -->
      <g transform="translate(34.696875 147.223219)scale(0.1 -0.1)">
       <defs>
        <path d="M 2113 2584 
Q 1688 2584 1439 2293 
Q 1191 2003 1191 1497 
Q 1191 994 1439 701 
Q 1688 409 2113 409 
Q 2538 409 2786 701 
Q 3034 994 3034 1497 
Q 3034 2003 2786 2293 
Q 2538 2584 2113 2584 
z
M 3366 4563 
L 3366 3988 
Q 3128 4100 2886 4159 
Q 2644 4219 2406 4219 
Q 1781 4219 1451 3797 
Q 1122 3375 1075 2522 
Q 1259 2794 1537 2939 
Q 1816 3084 2150 3084 
Q 2853 3084 3261 2657 
Q 3669 2231 3669 1497 
Q 3669 778 3244 343 
Q 2819 -91 2113 -91 
Q 1303 -91 875 529 
Q 447 1150 447 2328 
Q 447 3434 972 4092 
Q 1497 4750 2381 4750 
Q 2619 4750 2861 4703 
Q 3103 4656 3366 4563 
z
" id="DejaVuSans-36" transform="scale(0.015625)"/>
       </defs>
       <use xlink:href="#DejaVuSans-30"/>
       <use x="63.623047" xlink:href="#DejaVuSans-2e"/>
       <use x="95.410156" xlink:href="#DejaVuSans-36"/>
      </g>
     </g>
    </g>
    <g id="ytick_4">
     <g id="line2d_13">
      <g>
       <use style="stroke:#000000;stroke-width:0.8;" x="57.6" xlink:href="#mbeb6bbc257" y="88.128"/>
      </g>
     </g>
     <g id="text_14">
      <!-- 0.8 -->
      <g transform="translate(34.696875 91.927219)scale(0.1 -0.1)">
       <defs>
        <path d="M 2034 2216 
Q 1584 2216 1326 1975 
Q 1069 1734 1069 1313 
Q 1069 891 1326 650 
Q 1584 409 2034 409 
Q 2484 409 2743 651 
Q 3003 894 3003 1313 
Q 3003 1734 2745 1975 
Q 2488 2216 2034 2216 
z
M 1403 2484 
Q 997 2584 770 2862 
Q 544 3141 544 3541 
Q 544 4100 942 4425 
Q 1341 4750 2034 4750 
Q 2731 4750 3128 4425 
Q 3525 4100 3525 3541 
Q 3525 3141 3298 2862 
Q 3072 2584 2669 2484 
Q 3125 2378 3379 2068 
Q 3634 1759 3634 1313 
Q 3634 634 3220 271 
Q 2806 -91 2034 -91 
Q 1263 -91 848 271 
Q 434 634 434 1313 
Q 434 1759 690 2068 
Q 947 2378 1403 2484 
z
M 1172 3481 
Q 1172 3119 1398 2916 
Q 1625 2713 2034 2713 
Q 2441 2713 2670 2916 
Q 2900 3119 2900 3481 
Q 2900 3844 2670 4047 
Q 2441 4250 2034 4250 
Q 1625 4250 1398 4047 
Q 1172 3844 1172 3481 
z
" id="DejaVuSans-38" transform="scale(0.015625)"/>
       </defs>
       <use xlink:href="#DejaVuSans-30"/>
       <use x="63.623047" xlink:href="#DejaVuSans-2e"/>
       <use x="95.410156" xlink:href="#DejaVuSans-38"/>
      </g>
     </g>
    </g>
    <g id="text_15">
     <!-- Loss -->
     <g transform="translate(27.577344 190.978781)rotate(-90)scale(0.15 -0.15)">
      <defs>
       <path d="M 628 4666 
L 1259 4666 
L 1259 531 
L 3531 531 
L 3531 0 
L 628 0 
L 628 4666 
z
" id="DejaVuSans-4c" transform="scale(0.015625)"/>
       <path d="M 2834 3397 
L 2834 2853 
Q 2591 2978 2328 3040 
Q 2066 3103 1784 3103 
Q 1356 3103 1142 2972 
Q 928 2841 928 2578 
Q 928 2378 1081 2264 
Q 1234 2150 1697 2047 
L 1894 2003 
Q 2506 1872 2764 1633 
Q 3022 1394 3022 966 
Q 3022 478 2636 193 
Q 2250 -91 1575 -91 
Q 1294 -91 989 -36 
Q 684 19 347 128 
L 347 722 
Q 666 556 975 473 
Q 1284 391 1588 391 
Q 1994 391 2212 530 
Q 2431 669 2431 922 
Q 2431 1156 2273 1281 
Q 2116 1406 1581 1522 
L 1381 1569 
Q 847 1681 609 1914 
Q 372 2147 372 2553 
Q 372 3047 722 3315 
Q 1072 3584 1716 3584 
Q 2034 3584 2315 3537 
Q 2597 3491 2834 3397 
z
" id="DejaVuSans-73" transform="scale(0.015625)"/>
      </defs>
      <use xlink:href="#DejaVuSans-4c"/>
      <use x="53.962891" xlink:href="#DejaVuSans-6f"/>
      <use x="115.144531" xlink:href="#DejaVuSans-73"/>
      <use x="167.244141" xlink:href="#DejaVuSans-73"/>
     </g>
    </g>
   </g>
   <g id="line2d_14">
    <path clip-path="url(#p868a50ca04)" d="M 73.832727 288.576 
L 74.646398 280.2816 
L 75.460068 294.1056 
L 76.273739 283.0464 
L 77.087409 289.9584 
L 77.90108 287.1936 
L 78.714751 285.8112 
L 79.528421 283.0464 
L 80.342092 281.664 
L 81.155762 278.8992 
L 81.969433 280.2816 
L 82.783103 283.0464 
L 83.596774 283.0464 
L 84.410444 287.1936 
L 85.224115 284.4288 
L 86.037785 283.0464 
L 86.851456 287.1936 
L 87.665126 280.2816 
L 88.478797 287.1936 
L 89.292468 281.664 
L 90.106138 285.8112 
L 90.919809 284.4288 
L 91.733479 285.8112 
L 92.54715 277.5168 
L 93.36082 280.2816 
L 94.174491 278.8992 
L 94.988161 278.8992 
L 95.801832 287.1936 
L 96.615502 281.664 
L 97.429173 284.4288 
L 98.242843 281.664 
L 99.056514 273.3696 
L 99.870185 283.0464 
L 100.683855 281.664 
L 101.497526 291.3408 
L 102.311196 281.664 
L 103.124867 278.8992 
L 103.938537 277.5168 
L 104.752208 285.8112 
L 105.565878 295.488 
L 106.379549 278.8992 
L 107.193219 277.5168 
L 108.00689 284.4288 
L 108.82056 266.4576 
L 109.634231 277.5168 
L 110.447902 281.664 
L 111.261572 277.5168 
L 112.075243 259.5456 
L 112.888913 283.0464 
L 113.702584 273.3696 
L 114.516254 259.5456 
L 115.329925 263.6928 
L 116.143595 259.5456 
L 116.957266 252.6336 
L 117.770936 273.3696 
L 118.584607 251.2512 
L 119.398278 248.4864 
L 120.211948 254.016 
L 121.025619 247.104 
L 121.839289 231.8976 
L 122.65296 249.8688 
L 123.46663 231.8976 
L 124.280301 229.1328 
L 125.093971 249.8688 
L 125.907642 223.6032 
L 126.721312 227.7504 
L 127.534983 222.2208 
L 128.348653 223.6032 
L 129.162324 247.104 
L 129.975995 223.6032 
L 130.789665 224.9856 
L 131.603336 224.9856 
L 132.417006 220.8384 
L 133.230677 224.9856 
L 134.044347 212.544 
L 134.858018 215.3088 
L 135.671688 223.6032 
L 136.485359 209.7792 
L 137.299029 218.0736 
L 138.1127 207.0144 
L 138.92637 213.9264 
L 139.740041 209.7792 
L 140.553712 211.1616 
L 141.367382 216.6912 
L 142.181053 202.8672 
L 142.994723 207.0144 
L 143.808394 204.2496 
L 144.622064 209.7792 
L 145.435735 211.1616 
L 146.249405 205.632 
L 147.063076 197.3376 
L 147.876746 202.8672 
L 148.690417 213.9264 
L 149.504087 204.2496 
L 150.317758 184.896 
L 151.131429 191.808 
L 151.945099 189.0432 
L 152.75877 197.3376 
L 153.57244 194.5728 
L 154.386111 194.5728 
L 155.199781 190.4256 
L 156.013452 189.0432 
L 156.827122 179.3664 
L 157.640793 164.16 
L 158.454463 155.8656 
L 159.268134 160.0128 
L 160.081805 194.5728 
L 160.895475 161.3952 
L 161.709146 162.7776 
L 162.522816 150.336 
L 163.336487 171.072 
L 164.150157 158.6304 
L 164.963828 155.8656 
L 165.777498 161.3952 
L 166.591169 154.4832 
L 167.404839 175.2192 
L 168.21851 132.3648 
L 169.03218 153.1008 
L 169.845851 157.248 
L 170.659522 140.6592 
L 171.473192 155.8656 
L 173.100533 150.336 
L 173.914204 137.8944 
L 174.727874 151.7184 
L 175.541545 135.1296 
L 177.168886 171.072 
L 177.982556 147.5712 
L 178.796227 143.424 
L 179.609897 142.0416 
L 180.423568 148.9536 
L 181.237239 136.512 
L 182.050909 136.512 
L 182.86458 118.5408 
L 183.67825 132.3648 
L 184.491921 136.512 
L 185.305591 133.7472 
L 186.119262 144.8064 
L 186.932932 139.2768 
L 188.560273 114.3936 
L 189.373944 142.0416 
L 190.187614 126.8352 
L 191.001285 137.8944 
L 191.814956 140.6592 
L 192.628626 113.0112 
L 193.442297 130.9824 
L 194.255967 137.8944 
L 195.069638 119.9232 
L 195.883308 136.512 
L 196.696979 107.4816 
L 197.510649 136.512 
L 198.32432 117.1584 
L 199.13799 126.8352 
L 199.951661 146.1888 
L 200.765332 146.1888 
L 201.579002 119.9232 
L 202.392673 143.424 
L 203.206343 124.0704 
L 204.020014 154.4832 
L 204.833684 118.5408 
L 205.647355 128.2176 
L 206.461025 117.1584 
L 207.274696 117.1584 
L 208.088366 113.0112 
L 208.902037 115.776 
L 209.715707 103.3344 
L 210.529378 106.0992 
L 211.343049 113.0112 
L 212.156719 121.3056 
L 212.97039 107.4816 
L 213.78406 124.0704 
L 214.597731 129.6 
L 215.411401 113.0112 
L 216.225072 100.5696 
L 217.038742 111.6288 
L 217.852413 95.04 
L 218.666083 117.1584 
L 219.479754 124.0704 
L 220.293424 117.1584 
L 221.107095 108.864 
L 222.734436 108.864 
L 223.548107 110.2464 
L 224.361777 95.04 
L 225.175448 106.0992 
L 225.989118 111.6288 
L 226.802789 92.2752 
L 227.616459 111.6288 
L 228.43013 108.864 
L 229.2438 118.5408 
L 230.057471 122.688 
L 230.871141 103.3344 
L 231.684812 104.7168 
L 232.498483 97.8048 
L 233.312153 121.3056 
L 234.125824 101.952 
L 234.939494 106.0992 
L 235.753165 106.0992 
L 236.566835 104.7168 
L 237.380506 88.128 
L 238.194176 96.4224 
L 239.007847 106.0992 
L 239.821517 106.0992 
L 240.635188 82.5984 
L 241.448859 90.8928 
L 242.262529 117.1584 
L 243.0762 100.5696 
L 243.88987 92.2752 
L 244.703541 106.0992 
L 245.517211 85.3632 
L 246.330882 104.7168 
L 247.144552 114.3936 
L 247.958223 92.2752 
L 248.771893 88.128 
L 249.585564 86.7456 
L 250.399234 92.2752 
L 251.212905 92.2752 
L 252.026576 106.0992 
L 252.840246 114.3936 
L 253.653917 97.8048 
L 254.467587 110.2464 
L 255.281258 92.2752 
L 256.094928 89.5104 
L 256.908599 95.04 
L 257.722269 79.8336 
L 258.53594 100.5696 
L 259.34961 81.216 
L 260.163281 97.8048 
L 260.976951 97.8048 
L 261.790622 108.864 
L 262.604293 86.7456 
L 263.417963 81.216 
L 264.231634 107.4816 
L 265.045304 95.04 
L 265.858975 107.4816 
L 266.672645 78.4512 
L 267.486316 88.128 
L 269.113657 93.6576 
L 269.927327 81.216 
L 270.740998 89.5104 
L 271.554668 90.8928 
L 272.368339 75.6864 
L 273.18201 96.4224 
L 274.809351 77.0688 
L 275.623021 93.6576 
L 276.436692 82.5984 
L 277.250362 100.5696 
L 278.064033 75.6864 
L 278.877703 97.8048 
L 279.691374 82.5984 
L 280.505044 97.8048 
L 281.318715 88.128 
L 282.132386 60.48 
L 282.946056 79.8336 
L 283.759727 75.6864 
L 284.573397 89.5104 
L 285.387068 83.9808 
L 286.200738 107.4816 
L 287.014409 68.7744 
L 287.828079 103.3344 
L 288.64175 85.3632 
L 289.45542 82.5984 
L 290.269091 61.8624 
L 291.082761 72.9216 
L 291.896432 81.216 
L 292.710103 103.3344 
L 293.523773 79.8336 
L 294.337444 93.6576 
L 295.151114 86.7456 
L 295.964785 92.2752 
L 296.778455 104.7168 
L 297.592126 66.0096 
L 298.405796 67.392 
L 299.219467 71.5392 
L 300.033137 77.0688 
L 300.846808 81.216 
L 301.660478 83.9808 
L 302.474149 85.3632 
L 303.28782 88.128 
L 304.10149 67.392 
L 304.915161 68.7744 
L 305.728831 93.6576 
L 306.542502 77.0688 
L 307.356172 89.5104 
L 308.169843 72.9216 
L 308.983513 82.5984 
L 309.797184 83.9808 
L 310.610854 83.9808 
L 311.424525 82.5984 
L 312.238195 66.0096 
L 313.051866 85.3632 
L 313.865537 78.4512 
L 314.679207 81.216 
L 315.492878 68.7744 
L 316.306548 88.128 
L 317.120219 89.5104 
L 317.933889 86.7456 
L 318.74756 100.5696 
L 320.374901 79.8336 
L 321.188571 93.6576 
L 322.002242 82.5984 
L 322.815913 90.8928 
L 323.629583 78.4512 
L 324.443254 96.4224 
L 325.256924 72.9216 
L 326.070595 81.216 
L 326.884265 68.7744 
L 327.697936 60.48 
L 328.511606 89.5104 
L 329.325277 82.5984 
L 330.138947 66.0096 
L 330.952618 74.304 
L 331.766288 72.9216 
L 332.579959 67.392 
L 333.39363 75.6864 
L 334.2073 97.8048 
L 335.020971 81.216 
L 335.834641 77.0688 
L 336.648312 75.6864 
L 337.461982 81.216 
L 338.275653 93.6576 
L 339.089323 81.216 
L 339.902994 64.6272 
L 340.716664 63.2448 
L 341.530335 66.0096 
L 342.344005 67.392 
L 343.157676 88.128 
L 344.785017 77.0688 
L 345.598688 64.6272 
L 346.412358 93.6576 
L 347.226029 82.5984 
L 348.039699 78.4512 
L 348.85337 103.3344 
L 349.66704 82.5984 
L 350.480711 74.304 
L 351.294381 61.8624 
L 352.108052 60.48 
L 352.921722 71.5392 
L 353.735393 60.48 
L 354.549064 54.9504 
L 355.362734 78.4512 
L 356.176405 79.8336 
L 356.990075 90.8928 
L 357.803746 85.3632 
L 358.617416 70.1568 
L 359.431087 75.6864 
L 360.244757 88.128 
L 361.058428 68.7744 
L 361.872098 63.2448 
L 362.685769 61.8624 
L 363.49944 78.4512 
L 364.31311 71.5392 
L 365.126781 90.8928 
L 365.940451 89.5104 
L 366.754122 78.4512 
L 367.567792 63.2448 
L 368.381463 79.8336 
L 369.195133 72.9216 
L 370.008804 71.5392 
L 370.822474 79.8336 
L 371.636145 72.9216 
L 372.449815 75.6864 
L 373.263486 70.1568 
L 374.077157 71.5392 
L 374.890827 66.0096 
L 375.704498 81.216 
L 376.518168 67.392 
L 377.331839 75.6864 
L 378.145509 57.7152 
L 378.95918 59.0976 
L 379.77285 67.392 
L 380.586521 66.0096 
L 381.400191 78.4512 
L 382.213862 86.7456 
L 383.027532 75.6864 
L 383.841203 61.8624 
L 384.654874 64.6272 
L 386.282215 67.392 
L 387.095885 81.216 
L 387.909556 85.3632 
L 388.723226 103.3344 
L 389.536897 53.568 
L 390.350567 68.7744 
L 391.164238 71.5392 
L 391.977908 70.1568 
L 392.791579 72.9216 
L 393.605249 72.9216 
L 394.41892 54.9504 
L 395.232591 56.3328 
L 396.046261 88.128 
L 396.859932 83.9808 
L 397.673602 74.304 
L 398.487273 79.8336 
L 398.487273 79.8336 
" style="fill:none;stroke:#1f77b4;stroke-linecap:square;stroke-width:1.5;"/>
   </g>
   <g id="line2d_15">
    <path clip-path="url(#p868a50ca04)" d="M 73.832727 281.04192 
L 74.646398 282.24 
L 75.460068 281.59488 
L 76.273739 280.14336 
L 77.087409 280.30464 
L 77.90108 282.21696 
L 78.714751 282.17088 
L 79.528421 281.52576 
L 80.342092 282.816 
L 81.155762 282.83904 
L 81.969433 281.57184 
L 82.783103 283.13856 
L 84.410444 280.92672 
L 85.224115 281.98656 
L 86.037785 282.10176 
L 86.851456 280.58112 
L 87.665126 280.60416 
L 88.478797 280.12032 
L 89.292468 280.53504 
L 90.106138 281.13408 
L 90.919809 280.32768 
L 91.733479 280.71936 
L 92.54715 280.30464 
L 93.36082 280.8576 
L 94.174491 280.18944 
L 94.988161 279.98208 
L 95.801832 281.80224 
L 96.615502 281.50272 
L 97.429173 281.01888 
L 98.242843 281.13408 
L 99.056514 280.76544 
L 100.683855 281.088 
L 101.497526 279.29088 
L 102.311196 280.55808 
L 103.124867 280.35072 
L 103.938537 278.4384 
L 104.752208 279.936 
L 105.565878 279.5904 
L 106.379549 279.40608 
L 107.193219 278.04672 
L 108.00689 277.10208 
L 108.82056 277.90848 
L 109.634231 274.93632 
L 110.447902 275.39712 
L 111.261572 273.73824 
L 112.075243 267.9552 
L 112.888913 258.30144 
L 114.516254 255.99744 
L 115.329925 253.94688 
L 116.143595 259.61472 
L 116.957266 251.73504 
L 117.770936 248.11776 
L 118.584607 252.88704 
L 119.398278 248.67072 
L 120.211948 242.97984 
L 121.025619 238.25664 
L 121.839289 231.29856 
L 122.65296 234.7776 
L 123.46663 246.2976 
L 124.280301 233.46432 
L 125.093971 229.80096 
L 126.721312 223.92576 
L 127.534983 226.09152 
L 128.348653 229.77792 
L 129.162324 230.5152 
L 129.975995 226.22976 
L 130.789665 223.58016 
L 131.603336 223.30368 
L 132.417006 223.87968 
L 133.230677 224.91648 
L 134.858018 217.63584 
L 135.671688 232.31232 
L 136.485359 215.8848 
L 137.299029 215.28576 
L 138.1127 224.73216 
L 138.92637 225.60768 
L 139.740041 213.94944 
L 140.553712 217.77408 
L 141.367382 211.43808 
L 142.181053 208.83456 
L 142.994723 209.01888 
L 143.808394 218.304 
L 144.622064 208.48896 
L 145.435735 220.10112 
L 146.249405 209.27232 
L 147.063076 208.94976 
L 147.876746 206.87616 
L 148.690417 203.7888 
L 149.504087 204.0192 
L 150.317758 200.49408 
L 151.131429 201.27744 
L 151.945099 203.328 
L 152.75877 200.65536 
L 153.57244 201.024 
L 154.386111 192.45312 
L 155.199781 192.7296 
L 156.013452 193.536 
L 156.827122 187.75296 
L 157.640793 187.13088 
L 158.454463 191.4624 
L 159.268134 183.95136 
L 160.081805 181.48608 
L 160.895475 185.56416 
L 161.709146 184.82688 
L 162.522816 191.60064 
L 163.336487 178.53696 
L 164.150157 182.1312 
L 164.963828 175.2192 
L 165.777498 180.67968 
L 166.591169 191.85408 
L 167.404839 185.2416 
L 168.21851 173.62944 
L 169.03218 175.68 
L 169.845851 175.03488 
L 170.659522 175.72608 
L 171.473192 171.48672 
L 172.286863 169.41312 
L 173.100533 175.54176 
L 173.914204 175.15008 
L 174.727874 168.03072 
L 175.541545 175.51872 
L 176.355215 176.6016 
L 177.168886 168.09984 
L 177.982556 177.10848 
L 178.796227 170.40384 
L 179.609897 170.28864 
L 180.423568 201.34656 
L 181.237239 169.73568 
L 182.050909 166.48704 
L 182.86458 161.6256 
L 183.67825 164.57472 
L 184.491921 160.54272 
L 185.305591 174.9888 
L 186.119262 165.40416 
L 187.746603 158.42304 
L 188.560273 163.8144 
L 189.373944 161.0496 
L 190.187614 180.49536 
L 191.001285 165.1968 
L 191.814956 160.17408 
L 192.628626 160.26624 
L 193.442297 166.51008 
L 194.255967 163.16928 
L 195.069638 154.06848 
L 195.883308 159.11424 
L 196.696979 165.79584 
L 197.510649 166.2336 
L 198.32432 152.82432 
L 199.13799 160.38144 
L 199.951661 157.77792 
L 200.765332 161.37216 
L 201.579002 170.21952 
L 202.392673 162.17856 
L 204.020014 156.92544 
L 204.833684 149.96736 
L 205.647355 156.18816 
L 206.461025 150.24384 
L 207.274696 155.54304 
L 208.088366 153.792 
L 208.902037 150.86592 
L 209.715707 151.85664 
L 210.529378 159.02208 
L 211.343049 152.31744 
L 212.156719 154.39104 
L 212.97039 159.11424 
L 213.78406 152.11008 
L 214.597731 155.70432 
L 215.411401 149.76 
L 216.225072 147.96288 
L 217.038742 154.64448 
L 217.852413 156.83328 
L 218.666083 153.4464 
L 219.479754 155.42784 
L 220.293424 148.86144 
L 221.107095 153.53856 
L 221.920766 155.2896 
L 222.734436 148.9536 
L 223.548107 147.50208 
L 224.361777 149.76 
L 225.175448 159.34464 
L 225.989118 145.31328 
L 226.802789 143.67744 
L 227.616459 153.03168 
L 228.43013 158.33088 
L 229.2438 149.39136 
L 230.057471 155.42784 
L 230.871141 146.7648 
L 231.684812 147.31776 
L 232.498483 165.61152 
L 233.312153 146.88 
L 234.125824 155.22048 
L 234.939494 145.10592 
L 235.753165 145.19808 
L 236.566835 145.0368 
L 237.380506 145.0368 
L 238.194176 143.95392 
L 239.007847 146.09664 
L 239.821517 142.80192 
L 240.635188 138.76992 
L 241.448859 148.3776 
L 242.262529 139.92192 
L 243.0762 142.34112 
L 243.88987 137.38752 
L 244.703541 146.48832 
L 245.517211 148.23936 
L 246.330882 143.83872 
L 247.144552 137.73312 
L 247.958223 145.35936 
L 249.585564 151.30368 
L 250.399234 140.68224 
L 251.212905 160.128 
L 252.026576 166.07232 
L 252.840246 144.43776 
L 253.653917 142.31808 
L 254.467587 148.7232 
L 255.281258 145.42848 
L 256.094928 154.57536 
L 256.908599 141.41952 
L 257.722269 138.79296 
L 258.53594 140.7744 
L 259.34961 141.83424 
L 260.163281 137.41056 
L 260.976951 138.56256 
L 261.790622 138.30912 
L 262.604293 143.37792 
L 264.231634 140.22144 
L 265.045304 139.02336 
L 265.858975 136.21248 
L 266.672645 136.58112 
L 267.486316 140.59008 
L 268.299986 140.84352 
L 269.113657 138.67776 
L 269.927327 140.10624 
L 270.740998 140.72832 
L 271.554668 132.9408 
L 272.368339 132.89472 
L 273.18201 132.11136 
L 273.99568 132.20352 
L 274.809351 131.00544 
L 275.623021 133.81632 
L 276.436692 138.05568 
L 277.250362 135.10656 
L 278.064033 137.38752 
L 278.877703 137.80224 
L 279.691374 144.9216 
L 280.505044 132.50304 
L 281.318715 134.80704 
L 282.132386 133.5168 
L 282.946056 136.2816 
L 283.759727 134.62272 
L 285.387068 132.15744 
L 286.200738 141.71904 
L 287.014409 143.95392 
L 287.828079 132.45696 
L 288.64175 131.62752 
L 289.45542 132.64128 
L 290.269091 133.24032 
L 291.082761 128.7936 
L 291.896432 151.1424 
L 292.710103 132.87168 
L 293.523773 134.208 
L 294.337444 130.19904 
L 295.151114 136.7424 
L 296.778455 134.87616 
L 297.592126 133.49376 
L 298.405796 128.60928 
L 299.219467 130.56768 
L 300.033137 130.82112 
L 300.846808 136.18944 
L 301.660478 137.3184 
L 302.474149 132.73344 
L 304.10149 129.80736 
L 304.915161 136.67328 
L 305.728831 138.72384 
L 306.542502 131.69664 
L 307.356172 132.96384 
L 308.169843 138.28608 
L 308.983513 135.15264 
L 309.797184 132.68736 
L 310.610854 132.73344 
L 311.424525 137.96352 
L 313.051866 130.8672 
L 313.865537 147.75552 
L 314.679207 129.80736 
L 315.492878 139.06944 
L 316.306548 133.14816 
L 317.120219 134.99136 
L 317.933889 137.11104 
L 318.74756 129.55392 
L 320.374901 132.1344 
L 321.188571 130.0608 
L 322.002242 129.024 
L 322.815913 137.24928 
L 323.629583 132.48 
L 324.443254 125.9136 
L 325.256924 133.12512 
L 326.070595 128.58624 
L 326.884265 126.88128 
L 327.697936 127.4112 
L 328.511606 127.77984 
L 329.325277 148.76928 
L 330.952618 125.19936 
L 331.766288 128.17152 
L 332.579959 137.87136 
L 333.39363 125.86752 
L 334.2073 135.65952 
L 335.020971 138.03264 
L 335.834641 134.0928 
L 336.648312 130.72896 
L 337.461982 126.53568 
L 338.275653 133.67808 
L 339.089323 126.62784 
L 339.902994 125.84448 
L 340.716664 127.13472 
L 341.530335 126.46656 
L 342.344005 129.18528 
L 343.157676 126.76608 
L 343.971347 126.67392 
L 344.785017 130.91328 
L 345.598688 132.27264 
L 347.226029 131.97312 
L 348.039699 128.7936 
L 348.85337 126.6048 
L 349.66704 121.3056 
L 350.480711 128.51712 
L 351.294381 126.8352 
L 352.108052 126.76608 
L 352.921722 128.54016 
L 354.549064 120.89088 
L 355.362734 124.0704 
L 356.176405 135.08352 
L 356.990075 130.89024 
L 357.803746 129.85344 
L 358.617416 129.46176 
L 359.431087 127.38816 
L 360.244757 129.39264 
L 361.058428 127.91808 
L 361.872098 131.76576 
L 362.685769 129.34656 
L 363.49944 124.11648 
L 364.31311 128.77056 
L 365.126781 125.42976 
L 365.940451 127.296 
L 366.754122 125.15328 
L 367.567792 128.30976 
L 368.381463 121.46688 
L 369.195133 126.90432 
L 370.008804 128.81664 
L 370.822474 124.3008 
L 371.636145 122.66496 
L 372.449815 124.416 
L 373.263486 122.01984 
L 374.077157 123.84 
L 374.890827 120.96 
L 375.704498 127.1808 
L 376.518168 126.12096 
L 377.331839 129.73824 
L 378.145509 125.06112 
L 378.95918 123.0336 
L 379.77285 123.33312 
L 380.586521 123.24096 
L 381.400191 129.4848 
L 382.213862 126.21312 
L 383.027532 127.11168 
L 383.841203 119.0016 
L 384.654874 122.25024 
L 385.468544 126.76608 
L 386.282215 126.97344 
L 387.095885 132.04224 
L 387.909556 130.68288 
L 388.723226 122.71104 
L 389.536897 120.82176 
L 390.350567 122.13504 
L 391.164238 129.55392 
L 391.977908 122.54976 
L 392.791579 121.60512 
L 393.605249 115.75296 
L 394.41892 119.39328 
L 395.232591 128.49408 
L 396.046261 120.8448 
L 396.859932 122.13504 
L 397.673602 123.17184 
L 398.487273 117.504 
L 398.487273 117.504 
" style="fill:none;stroke:#ff7f0e;stroke-linecap:square;stroke-width:1.5;"/>
   </g>
   <g id="patch_3">
    <path d="M 57.6 307.584 
L 57.6 41.472 
" style="fill:none;stroke:#000000;stroke-linecap:square;stroke-linejoin:miter;stroke-width:0.8;"/>
   </g>
   <g id="patch_4">
    <path d="M 414.72 307.584 
L 414.72 41.472 
" style="fill:none;stroke:#000000;stroke-linecap:square;stroke-linejoin:miter;stroke-width:0.8;"/>
   </g>
   <g id="patch_5">
    <path d="M 57.6 307.584 
L 414.72 307.584 
" style="fill:none;stroke:#000000;stroke-linecap:square;stroke-linejoin:miter;stroke-width:0.8;"/>
   </g>
   <g id="patch_6">
    <path d="M 57.6 41.472 
L 414.72 41.472 
" style="fill:none;stroke:#000000;stroke-linecap:square;stroke-linejoin:miter;stroke-width:0.8;"/>
   </g>
   <g id="legend_1">
    <g id="patch_7">
     <path d="M 64.6 78.82825 
L 168.475 78.82825 
Q 170.475 78.82825 170.475 76.82825 
L 170.475 48.472 
Q 170.475 46.472 168.475 46.472 
L 64.6 46.472 
Q 62.6 46.472 62.6 48.472 
L 62.6 76.82825 
Q 62.6 78.82825 64.6 78.82825 
z
" style="fill:#ffffff;opacity:0.8;stroke:#cccccc;stroke-linejoin:miter;"/>
    </g>
    <g id="line2d_16">
     <path d="M 66.6 54.570437 
L 86.6 54.570437 
" style="fill:none;stroke:#1f77b4;stroke-linecap:square;stroke-width:1.5;"/>
    </g>
    <g id="line2d_17"/>
    <g id="text_16">
     <!-- Train loss -->
     <g transform="translate(94.6 58.070437)scale(0.1 -0.1)">
      <defs>
       <path d="M -19 4666 
L 3928 4666 
L 3928 4134 
L 2272 4134 
L 2272 0 
L 1638 0 
L 1638 4134 
L -19 4134 
L -19 4666 
z
" id="DejaVuSans-54" transform="scale(0.015625)"/>
       <path d="M 2631 2963 
Q 2534 3019 2420 3045 
Q 2306 3072 2169 3072 
Q 1681 3072 1420 2755 
Q 1159 2438 1159 1844 
L 1159 0 
L 581 0 
L 581 3500 
L 1159 3500 
L 1159 2956 
Q 1341 3275 1631 3429 
Q 1922 3584 2338 3584 
Q 2397 3584 2469 3576 
Q 2541 3569 2628 3553 
L 2631 2963 
z
" id="DejaVuSans-72" transform="scale(0.015625)"/>
       <path d="M 2194 1759 
Q 1497 1759 1228 1600 
Q 959 1441 959 1056 
Q 959 750 1161 570 
Q 1363 391 1709 391 
Q 2188 391 2477 730 
Q 2766 1069 2766 1631 
L 2766 1759 
L 2194 1759 
z
M 3341 1997 
L 3341 0 
L 2766 0 
L 2766 531 
Q 2569 213 2275 61 
Q 1981 -91 1556 -91 
Q 1019 -91 701 211 
Q 384 513 384 1019 
Q 384 1609 779 1909 
Q 1175 2209 1959 2209 
L 2766 2209 
L 2766 2266 
Q 2766 2663 2505 2880 
Q 2244 3097 1772 3097 
Q 1472 3097 1187 3025 
Q 903 2953 641 2809 
L 641 3341 
Q 956 3463 1253 3523 
Q 1550 3584 1831 3584 
Q 2591 3584 2966 3190 
Q 3341 2797 3341 1997 
z
" id="DejaVuSans-61" transform="scale(0.015625)"/>
       <path d="M 603 3500 
L 1178 3500 
L 1178 0 
L 603 0 
L 603 3500 
z
M 603 4863 
L 1178 4863 
L 1178 4134 
L 603 4134 
L 603 4863 
z
" id="DejaVuSans-69" transform="scale(0.015625)"/>
       <path d="M 3513 2113 
L 3513 0 
L 2938 0 
L 2938 2094 
Q 2938 2591 2744 2837 
Q 2550 3084 2163 3084 
Q 1697 3084 1428 2787 
Q 1159 2491 1159 1978 
L 1159 0 
L 581 0 
L 581 3500 
L 1159 3500 
L 1159 2956 
Q 1366 3272 1645 3428 
Q 1925 3584 2291 3584 
Q 2894 3584 3203 3211 
Q 3513 2838 3513 2113 
z
" id="DejaVuSans-6e" transform="scale(0.015625)"/>
       <path id="DejaVuSans-20" transform="scale(0.015625)"/>
       <path d="M 603 4863 
L 1178 4863 
L 1178 0 
L 603 0 
L 603 4863 
z
" id="DejaVuSans-6c" transform="scale(0.015625)"/>
      </defs>
      <use xlink:href="#DejaVuSans-54"/>
      <use x="46.333984" xlink:href="#DejaVuSans-72"/>
      <use x="87.447266" xlink:href="#DejaVuSans-61"/>
      <use x="148.726562" xlink:href="#DejaVuSans-69"/>
      <use x="176.509766" xlink:href="#DejaVuSans-6e"/>
      <use x="239.888672" xlink:href="#DejaVuSans-20"/>
      <use x="271.675781" xlink:href="#DejaVuSans-6c"/>
      <use x="299.458984" xlink:href="#DejaVuSans-6f"/>
      <use x="360.640625" xlink:href="#DejaVuSans-73"/>
      <use x="412.740234" xlink:href="#DejaVuSans-73"/>
     </g>
    </g>
    <g id="line2d_18">
     <path d="M 66.6 69.248562 
L 86.6 69.248562 
" style="fill:none;stroke:#ff7f0e;stroke-linecap:square;stroke-width:1.5;"/>
    </g>
    <g id="line2d_19"/>
    <g id="text_17">
     <!-- Validation loss -->
     <g transform="translate(94.6 72.748562)scale(0.1 -0.1)">
      <defs>
       <path d="M 1831 0 
L 50 4666 
L 709 4666 
L 2188 738 
L 3669 4666 
L 4325 4666 
L 2547 0 
L 1831 0 
z
" id="DejaVuSans-56" transform="scale(0.015625)"/>
       <path d="M 2906 2969 
L 2906 4863 
L 3481 4863 
L 3481 0 
L 2906 0 
L 2906 525 
Q 2725 213 2448 61 
Q 2172 -91 1784 -91 
Q 1150 -91 751 415 
Q 353 922 353 1747 
Q 353 2572 751 3078 
Q 1150 3584 1784 3584 
Q 2172 3584 2448 3432 
Q 2725 3281 2906 2969 
z
M 947 1747 
Q 947 1113 1208 752 
Q 1469 391 1925 391 
Q 2381 391 2643 752 
Q 2906 1113 2906 1747 
Q 2906 2381 2643 2742 
Q 2381 3103 1925 3103 
Q 1469 3103 1208 2742 
Q 947 2381 947 1747 
z
" id="DejaVuSans-64" transform="scale(0.015625)"/>
       <path d="M 1172 4494 
L 1172 3500 
L 2356 3500 
L 2356 3053 
L 1172 3053 
L 1172 1153 
Q 1172 725 1289 603 
Q 1406 481 1766 481 
L 2356 481 
L 2356 0 
L 1766 0 
Q 1100 0 847 248 
Q 594 497 594 1153 
L 594 3053 
L 172 3053 
L 172 3500 
L 594 3500 
L 594 4494 
L 1172 4494 
z
" id="DejaVuSans-74" transform="scale(0.015625)"/>
      </defs>
      <use xlink:href="#DejaVuSans-56"/>
      <use x="60.658203" xlink:href="#DejaVuSans-61"/>
      <use x="121.9375" xlink:href="#DejaVuSans-6c"/>
      <use x="149.720703" xlink:href="#DejaVuSans-69"/>
      <use x="177.503906" xlink:href="#DejaVuSans-64"/>
      <use x="240.980469" xlink:href="#DejaVuSans-61"/>
      <use x="302.259766" xlink:href="#DejaVuSans-74"/>
      <use x="341.46875" xlink:href="#DejaVuSans-69"/>
      <use x="369.251953" xlink:href="#DejaVuSans-6f"/>
      <use x="430.433594" xlink:href="#DejaVuSans-6e"/>
      <use x="493.8125" xlink:href="#DejaVuSans-20"/>
      <use x="525.599609" xlink:href="#DejaVuSans-6c"/>
      <use x="553.382812" xlink:href="#DejaVuSans-6f"/>
      <use x="614.564453" xlink:href="#DejaVuSans-73"/>
      <use x="666.664062" xlink:href="#DejaVuSans-73"/>
     </g>
    </g>
   </g>
  </g>
 </g>
 <defs>
  <clipPath id="p868a50ca04">
   <rect height="266.112" width="357.12" x="57.6" y="41.472"/>
  </clipPath>
 </defs>
</svg>
