<?xml version="1.0" encoding="utf-8" standalone="no"?>
<!DOCTYPE svg PUBLIC "-//W3C//DTD SVG 1.1//EN"
  "http://www.w3.org/Graphics/SVG/1.1/DTD/svg11.dtd">
<svg height="345.6pt" version="1.1" viewBox="0 0 460.8 345.6" width="460.8pt" xmlns="http://www.w3.org/2000/svg" xmlns:xlink="http://www.w3.org/1999/xlink">
 <metadata>
  <rdf:RDF xmlns:cc="http://creativecommons.org/ns#" xmlns:dc="http://purl.org/dc/elements/1.1/" xmlns:rdf="http://www.w3.org/1999/02/22-rdf-syntax-ns#">
   <cc:Work>
    <dc:type rdf:resource="http://purl.org/dc/dcmitype/StillImage"/>
    <dc:date>2021-07-14T18:41:06.398221</dc:date>
    <dc:format>image/svg+xml</dc:format>
    <dc:creator>
     <cc:Agent>
      <dc:title>Matplotlib v3.4.2, https://matplotlib.org/</dc:title>
     </cc:Agent>
    </dc:creator>
   </cc:Work>
  </rdf:RDF>
 </metadata>
 <defs>
  <style type="text/css">*{stroke-linecap:butt;stroke-linejoin:round;}</style>
 </defs>
 <g id="figure_1">
  <g id="patch_1">
   <path d="M 0 345.6 
L 460.8 345.6 
L 460.8 0 
L 0 0 
z
" style="fill:#ffffff;"/>
  </g>
  <g id="axes_1">
   <g id="patch_2">
    <path d="M 57.6 307.584 
L 414.72 307.584 
L 414.72 41.472 
L 57.6 41.472 
z
" style="fill:#ffffff;"/>
   </g>
   <g id="matplotlib.axis_1">
    <g id="xtick_1">
     <g id="line2d_1">
      <defs>
       <path d="M 0 0 
L 0 3.5 
" id="mc066de2832" style="stroke:#000000;stroke-width:0.8;"/>
      </defs>
      <g>
       <use style="stroke:#000000;stroke-width:0.8;" x="73.019057" xlink:href="#mc066de2832" y="307.584"/>
      </g>
     </g>
     <g id="text_1">
      <!-- 0 -->
      <g transform="translate(69.837807 322.182437)scale(0.1 -0.1)">
       <defs>
        <path d="M 2034 4250 
Q 1547 4250 1301 3770 
Q 1056 3291 1056 2328 
Q 1056 1369 1301 889 
Q 1547 409 2034 409 
Q 2525 409 2770 889 
Q 3016 1369 3016 2328 
Q 3016 3291 2770 3770 
Q 2525 4250 2034 4250 
z
M 2034 4750 
Q 2819 4750 3233 4129 
Q 3647 3509 3647 2328 
Q 3647 1150 3233 529 
Q 2819 -91 2034 -91 
Q 1250 -91 836 529 
Q 422 1150 422 2328 
Q 422 3509 836 4129 
Q 1250 4750 2034 4750 
z
" id="DejaVuSans-30" transform="scale(0.015625)"/>
       </defs>
       <use xlink:href="#DejaVuSans-30"/>
      </g>
     </g>
    </g>
    <g id="xtick_2">
     <g id="line2d_2">
      <g>
       <use style="stroke:#000000;stroke-width:0.8;" x="113.702584" xlink:href="#mc066de2832" y="307.584"/>
      </g>
     </g>
     <g id="text_2">
      <!-- 50 -->
      <g transform="translate(107.340084 322.182437)scale(0.1 -0.1)">
       <defs>
        <path d="M 691 4666 
L 3169 4666 
L 3169 4134 
L 1269 4134 
L 1269 2991 
Q 1406 3038 1543 3061 
Q 1681 3084 1819 3084 
Q 2600 3084 3056 2656 
Q 3513 2228 3513 1497 
Q 3513 744 3044 326 
Q 2575 -91 1722 -91 
Q 1428 -91 1123 -41 
Q 819 9 494 109 
L 494 744 
Q 775 591 1075 516 
Q 1375 441 1709 441 
Q 2250 441 2565 725 
Q 2881 1009 2881 1497 
Q 2881 1984 2565 2268 
Q 2250 2553 1709 2553 
Q 1456 2553 1204 2497 
Q 953 2441 691 2322 
L 691 4666 
z
" id="DejaVuSans-35" transform="scale(0.015625)"/>
       </defs>
       <use xlink:href="#DejaVuSans-35"/>
       <use x="63.623047" xlink:href="#DejaVuSans-30"/>
      </g>
     </g>
    </g>
    <g id="xtick_3">
     <g id="line2d_3">
      <g>
       <use style="stroke:#000000;stroke-width:0.8;" x="154.386111" xlink:href="#mc066de2832" y="307.584"/>
      </g>
     </g>
     <g id="text_3">
      <!-- 100 -->
      <g transform="translate(144.842361 322.182437)scale(0.1 -0.1)">
       <defs>
        <path d="M 794 531 
L 1825 531 
L 1825 4091 
L 703 3866 
L 703 4441 
L 1819 4666 
L 2450 4666 
L 2450 531 
L 3481 531 
L 3481 0 
L 794 0 
L 794 531 
z
" id="DejaVuSans-31" transform="scale(0.015625)"/>
       </defs>
       <use xlink:href="#DejaVuSans-31"/>
       <use x="63.623047" xlink:href="#DejaVuSans-30"/>
       <use x="127.246094" xlink:href="#DejaVuSans-30"/>
      </g>
     </g>
    </g>
    <g id="xtick_4">
     <g id="line2d_4">
      <g>
       <use style="stroke:#000000;stroke-width:0.8;" x="195.069638" xlink:href="#mc066de2832" y="307.584"/>
      </g>
     </g>
     <g id="text_4">
      <!-- 150 -->
      <g transform="translate(185.525888 322.182437)scale(0.1 -0.1)">
       <use xlink:href="#DejaVuSans-31"/>
       <use x="63.623047" xlink:href="#DejaVuSans-35"/>
       <use x="127.246094" xlink:href="#DejaVuSans-30"/>
      </g>
     </g>
    </g>
    <g id="xtick_5">
     <g id="line2d_5">
      <g>
       <use style="stroke:#000000;stroke-width:0.8;" x="235.753165" xlink:href="#mc066de2832" y="307.584"/>
      </g>
     </g>
     <g id="text_5">
      <!-- 200 -->
      <g transform="translate(226.209415 322.182437)scale(0.1 -0.1)">
       <defs>
        <path d="M 1228 531 
L 3431 531 
L 3431 0 
L 469 0 
L 469 531 
Q 828 903 1448 1529 
Q 2069 2156 2228 2338 
Q 2531 2678 2651 2914 
Q 2772 3150 2772 3378 
Q 2772 3750 2511 3984 
Q 2250 4219 1831 4219 
Q 1534 4219 1204 4116 
Q 875 4013 500 3803 
L 500 4441 
Q 881 4594 1212 4672 
Q 1544 4750 1819 4750 
Q 2544 4750 2975 4387 
Q 3406 4025 3406 3419 
Q 3406 3131 3298 2873 
Q 3191 2616 2906 2266 
Q 2828 2175 2409 1742 
Q 1991 1309 1228 531 
z
" id="DejaVuSans-32" transform="scale(0.015625)"/>
       </defs>
       <use xlink:href="#DejaVuSans-32"/>
       <use x="63.623047" xlink:href="#DejaVuSans-30"/>
       <use x="127.246094" xlink:href="#DejaVuSans-30"/>
      </g>
     </g>
    </g>
    <g id="xtick_6">
     <g id="line2d_6">
      <g>
       <use style="stroke:#000000;stroke-width:0.8;" x="276.436692" xlink:href="#mc066de2832" y="307.584"/>
      </g>
     </g>
     <g id="text_6">
      <!-- 250 -->
      <g transform="translate(266.892942 322.182437)scale(0.1 -0.1)">
       <use xlink:href="#DejaVuSans-32"/>
       <use x="63.623047" xlink:href="#DejaVuSans-35"/>
       <use x="127.246094" xlink:href="#DejaVuSans-30"/>
      </g>
     </g>
    </g>
    <g id="xtick_7">
     <g id="line2d_7">
      <g>
       <use style="stroke:#000000;stroke-width:0.8;" x="317.120219" xlink:href="#mc066de2832" y="307.584"/>
      </g>
     </g>
     <g id="text_7">
      <!-- 300 -->
      <g transform="translate(307.576469 322.182437)scale(0.1 -0.1)">
       <defs>
        <path d="M 2597 2516 
Q 3050 2419 3304 2112 
Q 3559 1806 3559 1356 
Q 3559 666 3084 287 
Q 2609 -91 1734 -91 
Q 1441 -91 1130 -33 
Q 819 25 488 141 
L 488 750 
Q 750 597 1062 519 
Q 1375 441 1716 441 
Q 2309 441 2620 675 
Q 2931 909 2931 1356 
Q 2931 1769 2642 2001 
Q 2353 2234 1838 2234 
L 1294 2234 
L 1294 2753 
L 1863 2753 
Q 2328 2753 2575 2939 
Q 2822 3125 2822 3475 
Q 2822 3834 2567 4026 
Q 2313 4219 1838 4219 
Q 1578 4219 1281 4162 
Q 984 4106 628 3988 
L 628 4550 
Q 988 4650 1302 4700 
Q 1616 4750 1894 4750 
Q 2613 4750 3031 4423 
Q 3450 4097 3450 3541 
Q 3450 3153 3228 2886 
Q 3006 2619 2597 2516 
z
" id="DejaVuSans-33" transform="scale(0.015625)"/>
       </defs>
       <use xlink:href="#DejaVuSans-33"/>
       <use x="63.623047" xlink:href="#DejaVuSans-30"/>
       <use x="127.246094" xlink:href="#DejaVuSans-30"/>
      </g>
     </g>
    </g>
    <g id="xtick_8">
     <g id="line2d_8">
      <g>
       <use style="stroke:#000000;stroke-width:0.8;" x="357.803746" xlink:href="#mc066de2832" y="307.584"/>
      </g>
     </g>
     <g id="text_8">
      <!-- 350 -->
      <g transform="translate(348.259996 322.182437)scale(0.1 -0.1)">
       <use xlink:href="#DejaVuSans-33"/>
       <use x="63.623047" xlink:href="#DejaVuSans-35"/>
       <use x="127.246094" xlink:href="#DejaVuSans-30"/>
      </g>
     </g>
    </g>
    <g id="xtick_9">
     <g id="line2d_9">
      <g>
       <use style="stroke:#000000;stroke-width:0.8;" x="398.487273" xlink:href="#mc066de2832" y="307.584"/>
      </g>
     </g>
     <g id="text_9">
      <!-- 400 -->
      <g transform="translate(388.943523 322.182437)scale(0.1 -0.1)">
       <defs>
        <path d="M 2419 4116 
L 825 1625 
L 2419 1625 
L 2419 4116 
z
M 2253 4666 
L 3047 4666 
L 3047 1625 
L 3713 1625 
L 3713 1100 
L 3047 1100 
L 3047 0 
L 2419 0 
L 2419 1100 
L 313 1100 
L 313 1709 
L 2253 4666 
z
" id="DejaVuSans-34" transform="scale(0.015625)"/>
       </defs>
       <use xlink:href="#DejaVuSans-34"/>
       <use x="63.623047" xlink:href="#DejaVuSans-30"/>
       <use x="127.246094" xlink:href="#DejaVuSans-30"/>
      </g>
     </g>
    </g>
    <g id="text_10">
     <!-- Epoch -->
     <g transform="translate(213.193594 339.659781)scale(0.15 -0.15)">
      <defs>
       <path d="M 628 4666 
L 3578 4666 
L 3578 4134 
L 1259 4134 
L 1259 2753 
L 3481 2753 
L 3481 2222 
L 1259 2222 
L 1259 531 
L 3634 531 
L 3634 0 
L 628 0 
L 628 4666 
z
" id="DejaVuSans-45" transform="scale(0.015625)"/>
       <path d="M 1159 525 
L 1159 -1331 
L 581 -1331 
L 581 3500 
L 1159 3500 
L 1159 2969 
Q 1341 3281 1617 3432 
Q 1894 3584 2278 3584 
Q 2916 3584 3314 3078 
Q 3713 2572 3713 1747 
Q 3713 922 3314 415 
Q 2916 -91 2278 -91 
Q 1894 -91 1617 61 
Q 1341 213 1159 525 
z
M 3116 1747 
Q 3116 2381 2855 2742 
Q 2594 3103 2138 3103 
Q 1681 3103 1420 2742 
Q 1159 2381 1159 1747 
Q 1159 1113 1420 752 
Q 1681 391 2138 391 
Q 2594 391 2855 752 
Q 3116 1113 3116 1747 
z
" id="DejaVuSans-70" transform="scale(0.015625)"/>
       <path d="M 1959 3097 
Q 1497 3097 1228 2736 
Q 959 2375 959 1747 
Q 959 1119 1226 758 
Q 1494 397 1959 397 
Q 2419 397 2687 759 
Q 2956 1122 2956 1747 
Q 2956 2369 2687 2733 
Q 2419 3097 1959 3097 
z
M 1959 3584 
Q 2709 3584 3137 3096 
Q 3566 2609 3566 1747 
Q 3566 888 3137 398 
Q 2709 -91 1959 -91 
Q 1206 -91 779 398 
Q 353 888 353 1747 
Q 353 2609 779 3096 
Q 1206 3584 1959 3584 
z
" id="DejaVuSans-6f" transform="scale(0.015625)"/>
       <path d="M 3122 3366 
L 3122 2828 
Q 2878 2963 2633 3030 
Q 2388 3097 2138 3097 
Q 1578 3097 1268 2742 
Q 959 2388 959 1747 
Q 959 1106 1268 751 
Q 1578 397 2138 397 
Q 2388 397 2633 464 
Q 2878 531 3122 666 
L 3122 134 
Q 2881 22 2623 -34 
Q 2366 -91 2075 -91 
Q 1284 -91 818 406 
Q 353 903 353 1747 
Q 353 2603 823 3093 
Q 1294 3584 2113 3584 
Q 2378 3584 2631 3529 
Q 2884 3475 3122 3366 
z
" id="DejaVuSans-63" transform="scale(0.015625)"/>
       <path d="M 3513 2113 
L 3513 0 
L 2938 0 
L 2938 2094 
Q 2938 2591 2744 2837 
Q 2550 3084 2163 3084 
Q 1697 3084 1428 2787 
Q 1159 2491 1159 1978 
L 1159 0 
L 581 0 
L 581 4863 
L 1159 4863 
L 1159 2956 
Q 1366 3272 1645 3428 
Q 1925 3584 2291 3584 
Q 2894 3584 3203 3211 
Q 3513 2838 3513 2113 
z
" id="DejaVuSans-68" transform="scale(0.015625)"/>
      </defs>
      <use xlink:href="#DejaVuSans-45"/>
      <use x="63.183594" xlink:href="#DejaVuSans-70"/>
      <use x="126.660156" xlink:href="#DejaVuSans-6f"/>
      <use x="187.841797" xlink:href="#DejaVuSans-63"/>
      <use x="242.822266" xlink:href="#DejaVuSans-68"/>
     </g>
    </g>
   </g>
   <g id="matplotlib.axis_2">
    <g id="ytick_1">
     <g id="line2d_10">
      <defs>
       <path d="M 0 0 
L -3.5 0 
" id="m0da63e6169" style="stroke:#000000;stroke-width:0.8;"/>
      </defs>
      <g>
       <use style="stroke:#000000;stroke-width:0.8;" x="57.6" xlink:href="#m0da63e6169" y="286.955097"/>
      </g>
     </g>
     <g id="text_11">
      <!-- −1000 -->
      <g transform="translate(16.770313 290.754316)scale(0.1 -0.1)">
       <defs>
        <path d="M 678 2272 
L 4684 2272 
L 4684 1741 
L 678 1741 
L 678 2272 
z
" id="DejaVuSans-2212" transform="scale(0.015625)"/>
       </defs>
       <use xlink:href="#DejaVuSans-2212"/>
       <use x="83.789062" xlink:href="#DejaVuSans-31"/>
       <use x="147.412109" xlink:href="#DejaVuSans-30"/>
       <use x="211.035156" xlink:href="#DejaVuSans-30"/>
       <use x="274.658203" xlink:href="#DejaVuSans-30"/>
      </g>
     </g>
    </g>
    <g id="ytick_2">
     <g id="line2d_11">
      <g>
       <use style="stroke:#000000;stroke-width:0.8;" x="57.6" xlink:href="#m0da63e6169" y="234.143353"/>
      </g>
     </g>
     <g id="text_12">
      <!-- −800 -->
      <g transform="translate(23.132812 237.942572)scale(0.1 -0.1)">
       <defs>
        <path d="M 2034 2216 
Q 1584 2216 1326 1975 
Q 1069 1734 1069 1313 
Q 1069 891 1326 650 
Q 1584 409 2034 409 
Q 2484 409 2743 651 
Q 3003 894 3003 1313 
Q 3003 1734 2745 1975 
Q 2488 2216 2034 2216 
z
M 1403 2484 
Q 997 2584 770 2862 
Q 544 3141 544 3541 
Q 544 4100 942 4425 
Q 1341 4750 2034 4750 
Q 2731 4750 3128 4425 
Q 3525 4100 3525 3541 
Q 3525 3141 3298 2862 
Q 3072 2584 2669 2484 
Q 3125 2378 3379 2068 
Q 3634 1759 3634 1313 
Q 3634 634 3220 271 
Q 2806 -91 2034 -91 
Q 1263 -91 848 271 
Q 434 634 434 1313 
Q 434 1759 690 2068 
Q 947 2378 1403 2484 
z
M 1172 3481 
Q 1172 3119 1398 2916 
Q 1625 2713 2034 2713 
Q 2441 2713 2670 2916 
Q 2900 3119 2900 3481 
Q 2900 3844 2670 4047 
Q 2441 4250 2034 4250 
Q 1625 4250 1398 4047 
Q 1172 3844 1172 3481 
z
" id="DejaVuSans-38" transform="scale(0.015625)"/>
       </defs>
       <use xlink:href="#DejaVuSans-2212"/>
       <use x="83.789062" xlink:href="#DejaVuSans-38"/>
       <use x="147.412109" xlink:href="#DejaVuSans-30"/>
       <use x="211.035156" xlink:href="#DejaVuSans-30"/>
      </g>
     </g>
    </g>
    <g id="ytick_3">
     <g id="line2d_12">
      <g>
       <use style="stroke:#000000;stroke-width:0.8;" x="57.6" xlink:href="#m0da63e6169" y="181.331609"/>
      </g>
     </g>
     <g id="text_13">
      <!-- −600 -->
      <g transform="translate(23.132812 185.130828)scale(0.1 -0.1)">
       <defs>
        <path d="M 2113 2584 
Q 1688 2584 1439 2293 
Q 1191 2003 1191 1497 
Q 1191 994 1439 701 
Q 1688 409 2113 409 
Q 2538 409 2786 701 
Q 3034 994 3034 1497 
Q 3034 2003 2786 2293 
Q 2538 2584 2113 2584 
z
M 3366 4563 
L 3366 3988 
Q 3128 4100 2886 4159 
Q 2644 4219 2406 4219 
Q 1781 4219 1451 3797 
Q 1122 3375 1075 2522 
Q 1259 2794 1537 2939 
Q 1816 3084 2150 3084 
Q 2853 3084 3261 2657 
Q 3669 2231 3669 1497 
Q 3669 778 3244 343 
Q 2819 -91 2113 -91 
Q 1303 -91 875 529 
Q 447 1150 447 2328 
Q 447 3434 972 4092 
Q 1497 4750 2381 4750 
Q 2619 4750 2861 4703 
Q 3103 4656 3366 4563 
z
" id="DejaVuSans-36" transform="scale(0.015625)"/>
       </defs>
       <use xlink:href="#DejaVuSans-2212"/>
       <use x="83.789062" xlink:href="#DejaVuSans-36"/>
       <use x="147.412109" xlink:href="#DejaVuSans-30"/>
       <use x="211.035156" xlink:href="#DejaVuSans-30"/>
      </g>
     </g>
    </g>
    <g id="ytick_4">
     <g id="line2d_13">
      <g>
       <use style="stroke:#000000;stroke-width:0.8;" x="57.6" xlink:href="#m0da63e6169" y="128.519865"/>
      </g>
     </g>
     <g id="text_14">
      <!-- −400 -->
      <g transform="translate(23.132812 132.319083)scale(0.1 -0.1)">
       <use xlink:href="#DejaVuSans-2212"/>
       <use x="83.789062" xlink:href="#DejaVuSans-34"/>
       <use x="147.412109" xlink:href="#DejaVuSans-30"/>
       <use x="211.035156" xlink:href="#DejaVuSans-30"/>
      </g>
     </g>
    </g>
    <g id="ytick_5">
     <g id="line2d_14">
      <g>
       <use style="stroke:#000000;stroke-width:0.8;" x="57.6" xlink:href="#m0da63e6169" y="75.708121"/>
      </g>
     </g>
     <g id="text_15">
      <!-- −200 -->
      <g transform="translate(23.132812 79.507339)scale(0.1 -0.1)">
       <use xlink:href="#DejaVuSans-2212"/>
       <use x="83.789062" xlink:href="#DejaVuSans-32"/>
       <use x="147.412109" xlink:href="#DejaVuSans-30"/>
       <use x="211.035156" xlink:href="#DejaVuSans-30"/>
      </g>
     </g>
    </g>
    <g id="text_16">
     <!-- Loss -->
     <g transform="translate(9.650781 190.978781)rotate(-90)scale(0.15 -0.15)">
      <defs>
       <path d="M 628 4666 
L 1259 4666 
L 1259 531 
L 3531 531 
L 3531 0 
L 628 0 
L 628 4666 
z
" id="DejaVuSans-4c" transform="scale(0.015625)"/>
       <path d="M 2834 3397 
L 2834 2853 
Q 2591 2978 2328 3040 
Q 2066 3103 1784 3103 
Q 1356 3103 1142 2972 
Q 928 2841 928 2578 
Q 928 2378 1081 2264 
Q 1234 2150 1697 2047 
L 1894 2003 
Q 2506 1872 2764 1633 
Q 3022 1394 3022 966 
Q 3022 478 2636 193 
Q 2250 -91 1575 -91 
Q 1294 -91 989 -36 
Q 684 19 347 128 
L 347 722 
Q 666 556 975 473 
Q 1284 391 1588 391 
Q 1994 391 2212 530 
Q 2431 669 2431 922 
Q 2431 1156 2273 1281 
Q 2116 1406 1581 1522 
L 1381 1569 
Q 847 1681 609 1914 
Q 372 2147 372 2553 
Q 372 3047 722 3315 
Q 1072 3584 1716 3584 
Q 2034 3584 2315 3537 
Q 2597 3491 2834 3397 
z
" id="DejaVuSans-73" transform="scale(0.015625)"/>
      </defs>
      <use xlink:href="#DejaVuSans-4c"/>
      <use x="53.962891" xlink:href="#DejaVuSans-6f"/>
      <use x="115.144531" xlink:href="#DejaVuSans-73"/>
      <use x="167.244141" xlink:href="#DejaVuSans-73"/>
     </g>
    </g>
   </g>
   <g id="line2d_15">
    <path clip-path="url(#p627c3f9eb4)" d="M 73.832727 53.568 
L 74.646398 109.153709 
L 76.273739 140.356037 
L 77.087409 147.65806 
L 77.90108 106.215949 
L 78.714751 154.291733 
L 79.528421 156.561238 
L 80.342092 157.851376 
L 81.155762 163.128376 
L 81.969433 165.993678 
L 82.783103 145.782704 
L 83.596774 171.429286 
L 84.410444 171.622254 
L 85.224115 177.688049 
L 86.037785 176.527491 
L 86.851456 182.11587 
L 87.665126 182.892904 
L 88.478797 183.283426 
L 89.292468 167.869075 
L 90.106138 192.929255 
L 90.919809 193.836069 
L 91.733479 195.896718 
L 92.54715 199.724769 
L 93.36082 193.957877 
L 94.174491 198.64496 
L 94.988161 209.697585 
L 95.801832 192.310519 
L 96.615502 210.519624 
L 97.429173 206.591094 
L 98.242843 210.015474 
L 99.056514 210.453974 
L 99.870185 215.509165 
L 100.683855 205.353195 
L 101.497526 209.508344 
L 102.311196 212.295394 
L 103.124867 188.986875 
L 103.938537 213.953521 
L 104.752208 221.37527 
L 106.379549 209.154611 
L 107.193219 222.158199 
L 108.00689 221.333266 
L 108.82056 201.547963 
L 109.634231 219.449452 
L 110.447902 224.997967 
L 111.261572 233.359832 
L 112.075243 226.306961 
L 112.888913 228.911697 
L 113.702584 213.50959 
L 114.516254 227.046123 
L 115.329925 230.654223 
L 116.143595 235.400357 
L 116.957266 234.657641 
L 117.770936 228.804503 
L 118.584607 236.633699 
L 119.398278 227.923308 
L 120.211948 235.846651 
L 121.025619 230.669859 
L 121.839289 232.289714 
L 122.65296 232.03645 
L 123.46663 235.579074 
L 124.280301 228.16594 
L 125.093971 239.78557 
L 125.907642 233.090598 
L 126.721312 234.798323 
L 127.534983 235.162671 
L 128.348653 237.426996 
L 129.162324 244.208057 
L 129.975995 247.038162 
L 130.789665 242.663557 
L 131.603336 247.128606 
L 132.417006 241.849413 
L 133.230677 230.210732 
L 134.044347 246.115155 
L 134.858018 241.886402 
L 135.671688 243.062803 
L 136.485359 233.014542 
L 137.299029 252.847882 
L 138.1127 242.429305 
L 138.92637 251.291126 
L 139.740041 236.971478 
L 140.553712 241.444102 
L 141.367382 244.683293 
L 142.181053 244.127888 
L 142.994723 245.742157 
L 143.808394 247.722575 
L 144.622064 242.899842 
L 145.435735 239.175871 
L 146.249405 241.932466 
L 147.063076 243.13345 
L 147.876746 248.817849 
L 148.690417 241.896264 
L 149.504087 252.608701 
L 150.317758 246.724548 
L 151.131429 247.043552 
L 151.945099 250.233007 
L 152.75877 254.19123 
L 153.57244 251.402481 
L 154.386111 244.655907 
L 155.199781 249.790792 
L 156.013452 248.711534 
L 156.827122 252.325524 
L 157.640793 246.426104 
L 158.454463 247.519044 
L 159.268134 244.097843 
L 160.081805 243.051726 
L 160.895475 259.009512 
L 161.709146 251.440191 
L 162.522816 242.265375 
L 163.336487 258.222748 
L 164.150157 250.50825 
L 164.963828 258.037873 
L 165.777498 241.329788 
L 167.404839 257.453789 
L 168.21851 247.870095 
L 169.03218 262.481817 
L 169.845851 235.997843 
L 170.659522 249.243647 
L 171.473192 246.27318 
L 172.286863 250.873906 
L 173.100533 253.462202 
L 173.914204 249.950084 
L 174.727874 253.254113 
L 175.541545 250.530878 
L 176.355215 257.526945 
L 177.168886 246.51614 
L 177.982556 259.891199 
L 178.796227 240.510208 
L 179.609897 243.617118 
L 180.423568 253.593467 
L 181.237239 246.939296 
L 182.050909 251.994339 
L 182.86458 262.252342 
L 183.67825 251.68331 
L 184.491921 260.23394 
L 186.119262 247.003166 
L 186.932932 253.578262 
L 187.746603 263.690952 
L 188.560273 248.169169 
L 189.373944 256.269193 
L 190.187614 254.811093 
L 191.001285 259.332485 
L 191.814956 258.30249 
L 192.628626 261.05506 
L 193.442297 265.999044 
L 194.255967 262.185293 
L 195.069638 255.376935 
L 195.883308 258.25145 
L 196.696979 260.24673 
L 197.510649 250.223063 
L 198.32432 264.376329 
L 199.13799 253.455616 
L 199.951661 261.522489 
L 200.765332 258.053627 
L 201.579002 259.475085 
L 202.392673 258.827386 
L 203.206343 264.83833 
L 204.020014 259.343562 
L 204.833684 256.69443 
L 205.647355 258.731869 
L 206.461025 258.406925 
L 207.274696 267.344434 
L 208.088366 263.834977 
L 208.902037 248.839892 
L 209.715707 262.783081 
L 210.529378 263.173684 
L 211.343049 250.627846 
L 212.156719 256.188859 
L 212.97039 249.612532 
L 213.78406 262.715177 
L 214.597731 258.076108 
L 215.411401 248.551827 
L 216.225072 257.267365 
L 217.038742 257.625263 
L 217.852413 253.355402 
L 218.666083 253.159724 
L 220.293424 268.806786 
L 221.107095 261.590991 
L 221.920766 266.879828 
L 222.734436 270.770646 
L 223.548107 266.509473 
L 224.361777 272.287698 
L 225.175448 256.523379 
L 225.989118 260.521382 
L 227.616459 258.013714 
L 228.43013 254.436362 
L 229.2438 256.982365 
L 230.057471 254.828424 
L 230.871141 264.702999 
L 231.684812 265.466478 
L 232.498483 270.360974 
L 233.312153 262.615429 
L 234.125824 259.517004 
L 234.939494 255.589881 
L 235.753165 257.069204 
L 236.566835 264.577793 
L 237.380506 270.427033 
L 238.194176 242.6837 
L 239.007847 267.520095 
L 239.821517 258.145231 
L 240.635188 259.371896 
L 241.448859 268.893757 
L 242.262529 259.867762 
L 243.0762 266.654396 
L 243.88987 268.100172 
L 244.703541 273.281226 
L 245.517211 269.500451 
L 246.330882 254.20749 
L 247.144552 255.296148 
L 247.958223 250.422532 
L 248.771893 255.833661 
L 249.585564 264.771154 
L 250.399234 243.39513 
L 251.212905 262.008011 
L 252.026576 266.123398 
L 252.840246 266.809465 
L 253.653917 262.715805 
L 254.467587 259.884473 
L 255.281258 268.980812 
L 256.094928 274.710946 
L 256.908599 263.519548 
L 257.722269 269.558696 
L 258.53594 267.815251 
L 259.34961 276.246809 
L 260.163281 268.383447 
L 260.976951 272.160401 
L 261.790622 271.226503 
L 262.604293 254.945812 
L 263.417963 259.497948 
L 264.231634 255.176954 
L 265.045304 268.071373 
L 265.858975 268.040904 
L 266.672645 264.718737 
L 267.486316 253.729666 
L 268.299986 270.851175 
L 269.113657 268.022539 
L 269.927327 269.113232 
L 270.740998 270.548151 
L 271.554668 266.042173 
L 272.368339 256.07106 
L 273.18201 274.97711 
L 273.99568 253.452437 
L 274.809351 269.744984 
L 275.623021 266.975522 
L 276.436692 272.493879 
L 277.250362 268.897642 
L 278.064033 271.012299 
L 278.877703 264.75649 
L 279.691374 278.07651 
L 281.318715 267.641167 
L 282.132386 269.053118 
L 282.946056 266.006009 
L 283.759727 266.309453 
L 284.573397 282.694852 
L 285.387068 270.580543 
L 286.200738 264.962518 
L 287.014409 272.748547 
L 287.828079 271.645232 
L 288.64175 271.37149 
L 289.45542 276.265998 
L 290.269091 265.243432 
L 291.082761 270.371584 
L 291.896432 272.447593 
L 292.710103 272.744613 
L 293.523773 268.705049 
L 294.337444 265.781639 
L 295.151114 273.286951 
L 295.964785 278.158502 
L 296.778455 260.709924 
L 297.592126 271.086554 
L 298.405796 279.009339 
L 299.219467 261.216903 
L 300.033137 255.072075 
L 300.846808 267.430335 
L 301.660478 264.325664 
L 302.474149 271.006633 
L 303.28782 260.138932 
L 304.10149 264.644812 
L 304.915161 270.216712 
L 306.542502 257.737327 
L 307.356172 270.4665 
L 308.169843 267.9884 
L 308.983513 284.119209 
L 309.797184 263.922932 
L 310.610854 269.377846 
L 311.424525 266.24329 
L 312.238195 273.762026 
L 313.051866 279.022025 
L 313.865537 276.594973 
L 314.679207 267.541049 
L 315.492878 262.372921 
L 316.306548 274.356792 
L 317.120219 271.801791 
L 317.933889 270.910374 
L 318.74756 269.31639 
L 319.56123 266.671811 
L 320.374901 256.041941 
L 321.188571 268.763942 
L 322.002242 264.969605 
L 322.815913 254.66485 
L 324.443254 272.471017 
L 325.256924 278.682946 
L 326.070595 273.922986 
L 326.884265 275.568625 
L 327.697936 259.271722 
L 328.511606 260.726305 
L 329.325277 260.963644 
L 330.138947 264.026397 
L 330.952618 264.746648 
L 331.766288 278.202409 
L 332.579959 263.87857 
L 333.39363 279.04385 
L 334.2073 268.165605 
L 335.020971 277.146954 
L 335.834641 274.776433 
L 336.648312 272.903151 
L 337.461982 270.479737 
L 338.275653 267.391174 
L 339.089323 282.931416 
L 339.902994 280.379029 
L 340.716664 263.033154 
L 341.530335 277.836454 
L 342.344005 276.371034 
L 343.157676 266.18908 
L 343.971347 273.665667 
L 344.785017 276.193143 
L 345.598688 277.392634 
L 346.412358 275.447592 
L 348.039699 264.154989 
L 348.85337 274.029888 
L 349.66704 266.557781 
L 350.480711 268.022271 
L 351.294381 280.549956 
L 352.108052 275.495939 
L 352.921722 266.718892 
L 353.735393 265.374323 
L 354.549064 260.791827 
L 355.362734 278.642477 
L 356.176405 283.009774 
L 356.990075 256.401105 
L 357.803746 265.462365 
L 358.617416 269.884295 
L 359.431087 275.990373 
L 360.244757 284.024291 
L 361.872098 268.388762 
L 362.685769 268.04472 
L 363.49944 273.416293 
L 364.31311 287.312017 
L 365.126781 282.559889 
L 365.940451 288.774789 
L 366.754122 266.025525 
L 367.567792 275.694399 
L 368.381463 262.443783 
L 369.195133 285.546902 
L 370.008804 275.994696 
L 370.822474 263.93088 
L 371.636145 269.26858 
L 372.449815 286.076872 
L 373.263486 261.495211 
L 374.077157 281.559271 
L 374.890827 274.013619 
L 375.704498 276.625632 
L 376.518168 284.33442 
L 377.331839 277.008839 
L 378.145509 273.71039 
L 378.95918 277.173122 
L 379.77285 273.704424 
L 380.586521 274.297543 
L 381.400191 274.078268 
L 382.213862 281.277171 
L 383.027532 273.266001 
L 383.841203 281.128714 
L 384.654874 274.815263 
L 385.468544 272.601136 
L 386.282215 280.355852 
L 387.095885 273.856502 
L 387.909556 281.302962 
L 388.723226 286.959318 
L 389.536897 287.78298 
L 390.350567 273.009432 
L 391.164238 280.803854 
L 391.977908 272.105448 
L 392.791579 277.740001 
L 393.605249 279.507096 
L 394.41892 295.488 
L 395.232591 279.67636 
L 396.046261 267.132015 
L 396.859932 276.943833 
L 397.673602 284.81181 
L 398.487273 275.436078 
L 398.487273 275.436078 
" style="fill:none;stroke:#1f77b4;stroke-linecap:square;stroke-width:1.5;"/>
   </g>
   <g id="line2d_16">
    <path clip-path="url(#p627c3f9eb4)" d="M 73.832727 106.203468 
L 74.646398 128.488603 
L 75.460068 131.533013 
L 76.273739 145.476447 
L 77.087409 154.084348 
L 77.90108 141.183528 
L 78.714751 155.034239 
L 79.528421 143.669986 
L 80.342092 163.015914 
L 81.155762 150.316349 
L 83.596774 178.358703 
L 84.410444 169.811236 
L 85.224115 169.095173 
L 86.037785 178.894761 
L 86.851456 167.924537 
L 87.665126 182.83194 
L 88.478797 184.148626 
L 90.106138 198.635489 
L 90.919809 193.833081 
L 91.733479 192.571332 
L 92.54715 201.294154 
L 93.36082 193.34983 
L 94.174491 205.427003 
L 94.988161 197.270457 
L 95.801832 199.214226 
L 96.615502 208.300113 
L 97.429173 100.85095 
L 98.242843 211.554851 
L 99.056514 209.866148 
L 99.870185 215.519358 
L 100.683855 203.306354 
L 101.497526 222.134178 
L 102.311196 217.30448 
L 103.124867 219.36303 
L 103.938537 216.724002 
L 104.752208 221.131423 
L 105.565878 211.658887 
L 106.379549 214.410646 
L 107.193219 226.987148 
L 108.00689 221.70462 
L 108.82056 195.75492 
L 109.634231 219.021779 
L 110.447902 213.508342 
L 111.261572 223.388574 
L 112.075243 227.364634 
L 112.888913 227.56964 
L 113.702584 224.287767 
L 114.516254 223.735431 
L 115.329925 227.633614 
L 116.143595 221.58169 
L 116.957266 204.362482 
L 117.770936 210.950378 
L 119.398278 239.316034 
L 120.211948 229.830819 
L 121.025619 236.437084 
L 121.839289 234.048483 
L 122.65296 227.614284 
L 123.46663 246.657312 
L 124.280301 239.596037 
L 125.093971 229.479299 
L 125.907642 237.436235 
L 126.721312 227.907169 
L 127.534983 235.44692 
L 128.348653 234.993267 
L 129.162324 241.617801 
L 129.975995 231.312256 
L 130.789665 234.337087 
L 131.603336 239.940952 
L 132.417006 241.669259 
L 133.230677 238.880056 
L 134.044347 245.766944 
L 134.858018 238.682244 
L 135.671688 221.807763 
L 136.485359 242.203163 
L 137.299029 242.33005 
L 138.1127 249.524361 
L 139.740041 242.918347 
L 140.553712 237.818887 
L 141.367382 238.266896 
L 142.181053 252.617592 
L 142.994723 242.737393 
L 143.808394 230.667194 
L 144.622064 245.946293 
L 145.435735 242.86938 
L 146.249405 248.196291 
L 147.063076 247.65463 
L 147.876746 234.835319 
L 148.690417 253.902352 
L 149.504087 254.801129 
L 151.131429 241.742434 
L 151.945099 240.115937 
L 152.75877 249.214384 
L 153.57244 250.130266 
L 154.386111 247.33595 
L 155.199781 241.781116 
L 156.013452 248.486556 
L 156.827122 213.480189 
L 157.640793 250.644458 
L 158.454463 240.093903 
L 159.268134 241.573089 
L 160.081805 245.1502 
L 160.895475 238.062517 
L 161.709146 248.04839 
L 162.522816 245.297049 
L 163.336487 249.486354 
L 164.150157 257.094784 
L 164.963828 245.058657 
L 165.777498 256.217933 
L 166.591169 253.488042 
L 167.404839 246.099887 
L 168.21851 246.026425 
L 169.03218 245.407584 
L 170.659522 253.551374 
L 171.473192 251.392673 
L 172.286863 247.379659 
L 173.100533 255.401945 
L 173.914204 246.32289 
L 174.727874 243.611833 
L 175.541545 253.843906 
L 176.355215 252.289582 
L 177.168886 250.126807 
L 177.982556 258.150946 
L 178.796227 247.086823 
L 179.609897 257.148462 
L 180.423568 254.741186 
L 181.237239 255.852317 
L 182.050909 265.648689 
L 182.86458 251.263597 
L 183.67825 239.086762 
L 184.491921 260.859379 
L 185.305591 241.024772 
L 186.119262 251.558695 
L 186.932932 259.534605 
L 187.746603 246.609883 
L 188.560273 252.558994 
L 189.373944 248.12413 
L 190.187614 263.077916 
L 191.001285 259.450745 
L 191.814956 254.438241 
L 192.628626 255.695429 
L 193.442297 253.046202 
L 194.255967 257.71471 
L 195.069638 252.427436 
L 195.883308 254.672794 
L 196.696979 259.564154 
L 197.510649 261.288259 
L 199.13799 247.671979 
L 199.951661 251.055952 
L 200.765332 265.641146 
L 201.579002 255.489896 
L 202.392673 258.085191 
L 203.206343 258.556955 
L 204.020014 253.961382 
L 204.833684 251.243677 
L 205.647355 245.301202 
L 206.461025 251.837127 
L 207.274696 250.782077 
L 208.088366 257.94775 
L 208.902037 250.527071 
L 209.715707 251.457071 
L 210.529378 253.777809 
L 211.343049 250.360523 
L 212.156719 254.646356 
L 212.97039 260.090335 
L 213.78406 259.64108 
L 214.597731 254.3752 
L 215.411401 256.002677 
L 216.225072 247.883996 
L 217.038742 264.587503 
L 217.852413 249.913953 
L 218.666083 252.995379 
L 219.479754 254.816938 
L 220.293424 258.549169 
L 221.107095 259.424725 
L 221.920766 253.586534 
L 222.734436 255.27006 
L 223.548107 260.045866 
L 224.361777 265.640272 
L 225.175448 256.761386 
L 225.989118 255.998064 
L 226.802789 264.331795 
L 227.616459 257.110862 
L 228.43013 254.474547 
L 229.2438 262.847805 
L 230.057471 245.564365 
L 230.871141 260.720323 
L 231.684812 260.211145 
L 232.498483 257.253231 
L 233.312153 256.476243 
L 234.125824 263.796599 
L 234.939494 260.957691 
L 235.753165 255.93105 
L 236.566835 259.817969 
L 237.380506 258.162892 
L 238.194176 260.945701 
L 239.007847 261.770004 
L 239.821517 260.769258 
L 240.635188 267.379973 
L 241.448859 263.541108 
L 242.262529 251.883953 
L 243.0762 264.81924 
L 243.88987 255.369888 
L 244.703541 262.088753 
L 245.517211 259.570351 
L 246.330882 253.534932 
L 247.144552 270.475743 
L 247.958223 245.140908 
L 248.771893 257.953243 
L 249.585564 264.392468 
L 250.399234 257.125583 
L 251.212905 256.645261 
L 252.026576 262.862033 
L 252.840246 255.213544 
L 254.467587 260.942697 
L 255.281258 250.75362 
L 256.094928 257.881872 
L 256.908599 261.340863 
L 257.722269 265.731149 
L 258.53594 262.383732 
L 259.34961 266.913267 
L 260.163281 259.682657 
L 260.976951 259.738671 
L 261.790622 255.956819 
L 262.604293 261.601332 
L 263.417963 252.131463 
L 264.231634 260.580344 
L 265.045304 265.295732 
L 265.858975 261.615314 
L 266.672645 259.496144 
L 267.486316 274.026372 
L 268.299986 260.713931 
L 269.113657 265.800769 
L 269.927327 262.488395 
L 270.740998 252.603363 
L 271.554668 263.294262 
L 272.368339 255.058332 
L 273.18201 261.203837 
L 273.99568 260.962885 
L 274.809351 268.213171 
L 275.623021 270.194641 
L 276.436692 265.257727 
L 277.250362 265.968414 
L 278.064033 256.916872 
L 278.877703 269.760173 
L 279.691374 258.027405 
L 280.505044 264.324163 
L 281.318715 252.703731 
L 282.132386 260.138191 
L 282.946056 257.121327 
L 283.759727 271.675659 
L 284.573397 248.97079 
L 285.387068 260.594472 
L 286.200738 261.163834 
L 287.014409 272.748122 
L 287.828079 269.584269 
L 288.64175 261.717943 
L 289.45542 255.447194 
L 290.269091 263.570389 
L 291.082761 259.845808 
L 291.896432 258.550982 
L 292.710103 269.323211 
L 293.523773 264.36555 
L 294.337444 268.838593 
L 295.151114 251.385347 
L 295.964785 259.547998 
L 296.778455 257.8152 
L 297.592126 268.482838 
L 299.219467 258.985672 
L 300.033137 269.044367 
L 300.846808 270.673047 
L 301.660478 264.81913 
L 302.474149 255.195685 
L 303.28782 253.90837 
L 304.10149 261.277739 
L 304.915161 258.882911 
L 305.728831 264.628885 
L 306.542502 260.265824 
L 307.356172 264.472204 
L 308.169843 259.51586 
L 308.983513 260.825215 
L 309.797184 259.161377 
L 310.610854 272.418882 
L 311.424525 264.33095 
L 312.238195 249.049655 
L 313.051866 258.270862 
L 313.865537 262.43062 
L 314.679207 265.429485 
L 315.492878 267.144138 
L 316.306548 262.015076 
L 317.120219 253.810075 
L 317.933889 269.102476 
L 318.74756 265.544131 
L 319.56123 257.243603 
L 320.374901 268.912667 
L 321.188571 262.797639 
L 322.002242 260.850115 
L 322.815913 269.045923 
L 323.629583 265.859429 
L 324.443254 269.936639 
L 325.256924 269.730719 
L 326.070595 267.691767 
L 326.884265 263.893293 
L 327.697936 256.713009 
L 328.511606 275.418045 
L 329.325277 267.761054 
L 330.138947 261.798375 
L 330.952618 267.814406 
L 331.766288 264.798079 
L 332.579959 258.068887 
L 333.39363 271.863327 
L 334.2073 271.752434 
L 335.020971 268.054225 
L 335.834641 260.977366 
L 336.648312 263.631047 
L 337.461982 269.189484 
L 338.275653 273.809815 
L 339.089323 274.435199 
L 339.902994 268.489208 
L 340.716664 259.798712 
L 341.530335 271.485495 
L 342.344005 276.188177 
L 343.157676 267.567219 
L 343.971347 269.949589 
L 344.785017 258.802485 
L 345.598688 273.918972 
L 346.412358 270.217866 
L 347.226029 260.789539 
L 348.039699 270.198238 
L 348.85337 272.262358 
L 349.66704 266.42831 
L 350.480711 275.461694 
L 351.294381 280.152259 
L 352.108052 267.027632 
L 352.921722 270.675015 
L 353.735393 261.859533 
L 354.549064 272.794293 
L 355.362734 264.495003 
L 356.176405 268.611437 
L 356.990075 270.588149 
L 357.803746 273.783471 
L 358.617416 271.378509 
L 359.431087 276.179677 
L 360.244757 270.131472 
L 361.058428 265.383561 
L 361.872098 263.664527 
L 362.685769 266.505341 
L 363.49944 270.286527 
L 364.31311 259.662515 
L 365.126781 272.994512 
L 365.940451 270.244835 
L 366.754122 268.849637 
L 367.567792 255.98324 
L 368.381463 259.958463 
L 369.195133 275.748564 
L 370.822474 262.459802 
L 371.636145 272.804691 
L 372.449815 269.098702 
L 373.263486 277.701839 
L 374.077157 279.776299 
L 374.890827 276.815701 
L 375.704498 267.650618 
L 376.518168 270.032067 
L 377.331839 271.330368 
L 378.145509 274.213678 
L 379.77285 267.297553 
L 380.586521 276.118121 
L 381.400191 272.426425 
L 382.213862 267.942117 
L 383.027532 265.8742 
L 383.841203 266.922729 
L 384.654874 264.616626 
L 385.468544 266.335284 
L 386.282215 274.158532 
L 387.095885 271.712313 
L 387.909556 270.776008 
L 388.723226 271.501364 
L 389.536897 268.609272 
L 390.350567 271.181655 
L 391.164238 277.659852 
L 391.977908 272.105602 
L 392.791579 277.114644 
L 393.605249 277.295993 
L 394.41892 276.051995 
L 395.232591 275.990756 
L 396.046261 286.286624 
L 396.859932 272.864528 
L 397.673602 266.08308 
L 398.487273 271.39455 
L 398.487273 271.39455 
" style="fill:none;stroke:#ff7f0e;stroke-linecap:square;stroke-width:1.5;"/>
   </g>
   <g id="patch_3">
    <path d="M 57.6 307.584 
L 57.6 41.472 
" style="fill:none;stroke:#000000;stroke-linecap:square;stroke-linejoin:miter;stroke-width:0.8;"/>
   </g>
   <g id="patch_4">
    <path d="M 414.72 307.584 
L 414.72 41.472 
" style="fill:none;stroke:#000000;stroke-linecap:square;stroke-linejoin:miter;stroke-width:0.8;"/>
   </g>
   <g id="patch_5">
    <path d="M 57.6 307.584 
L 414.72 307.584 
" style="fill:none;stroke:#000000;stroke-linecap:square;stroke-linejoin:miter;stroke-width:0.8;"/>
   </g>
   <g id="patch_6">
    <path d="M 57.6 41.472 
L 414.72 41.472 
" style="fill:none;stroke:#000000;stroke-linecap:square;stroke-linejoin:miter;stroke-width:0.8;"/>
   </g>
   <g id="legend_1">
    <g id="patch_7">
     <path d="M 303.845 78.82825 
L 407.72 78.82825 
Q 409.72 78.82825 409.72 76.82825 
L 409.72 48.472 
Q 409.72 46.472 407.72 46.472 
L 303.845 46.472 
Q 301.845 46.472 301.845 48.472 
L 301.845 76.82825 
Q 301.845 78.82825 303.845 78.82825 
z
" style="fill:#ffffff;opacity:0.8;stroke:#cccccc;stroke-linejoin:miter;"/>
    </g>
    <g id="line2d_17">
     <path d="M 305.845 54.570437 
L 325.845 54.570437 
" style="fill:none;stroke:#1f77b4;stroke-linecap:square;stroke-width:1.5;"/>
    </g>
    <g id="line2d_18"/>
    <g id="text_17">
     <!-- Train loss -->
     <g transform="translate(333.845 58.070437)scale(0.1 -0.1)">
      <defs>
       <path d="M -19 4666 
L 3928 4666 
L 3928 4134 
L 2272 4134 
L 2272 0 
L 1638 0 
L 1638 4134 
L -19 4134 
L -19 4666 
z
" id="DejaVuSans-54" transform="scale(0.015625)"/>
       <path d="M 2631 2963 
Q 2534 3019 2420 3045 
Q 2306 3072 2169 3072 
Q 1681 3072 1420 2755 
Q 1159 2438 1159 1844 
L 1159 0 
L 581 0 
L 581 3500 
L 1159 3500 
L 1159 2956 
Q 1341 3275 1631 3429 
Q 1922 3584 2338 3584 
Q 2397 3584 2469 3576 
Q 2541 3569 2628 3553 
L 2631 2963 
z
" id="DejaVuSans-72" transform="scale(0.015625)"/>
       <path d="M 2194 1759 
Q 1497 1759 1228 1600 
Q 959 1441 959 1056 
Q 959 750 1161 570 
Q 1363 391 1709 391 
Q 2188 391 2477 730 
Q 2766 1069 2766 1631 
L 2766 1759 
L 2194 1759 
z
M 3341 1997 
L 3341 0 
L 2766 0 
L 2766 531 
Q 2569 213 2275 61 
Q 1981 -91 1556 -91 
Q 1019 -91 701 211 
Q 384 513 384 1019 
Q 384 1609 779 1909 
Q 1175 2209 1959 2209 
L 2766 2209 
L 2766 2266 
Q 2766 2663 2505 2880 
Q 2244 3097 1772 3097 
Q 1472 3097 1187 3025 
Q 903 2953 641 2809 
L 641 3341 
Q 956 3463 1253 3523 
Q 1550 3584 1831 3584 
Q 2591 3584 2966 3190 
Q 3341 2797 3341 1997 
z
" id="DejaVuSans-61" transform="scale(0.015625)"/>
       <path d="M 603 3500 
L 1178 3500 
L 1178 0 
L 603 0 
L 603 3500 
z
M 603 4863 
L 1178 4863 
L 1178 4134 
L 603 4134 
L 603 4863 
z
" id="DejaVuSans-69" transform="scale(0.015625)"/>
       <path d="M 3513 2113 
L 3513 0 
L 2938 0 
L 2938 2094 
Q 2938 2591 2744 2837 
Q 2550 3084 2163 3084 
Q 1697 3084 1428 2787 
Q 1159 2491 1159 1978 
L 1159 0 
L 581 0 
L 581 3500 
L 1159 3500 
L 1159 2956 
Q 1366 3272 1645 3428 
Q 1925 3584 2291 3584 
Q 2894 3584 3203 3211 
Q 3513 2838 3513 2113 
z
" id="DejaVuSans-6e" transform="scale(0.015625)"/>
       <path id="DejaVuSans-20" transform="scale(0.015625)"/>
       <path d="M 603 4863 
L 1178 4863 
L 1178 0 
L 603 0 
L 603 4863 
z
" id="DejaVuSans-6c" transform="scale(0.015625)"/>
      </defs>
      <use xlink:href="#DejaVuSans-54"/>
      <use x="46.333984" xlink:href="#DejaVuSans-72"/>
      <use x="87.447266" xlink:href="#DejaVuSans-61"/>
      <use x="148.726562" xlink:href="#DejaVuSans-69"/>
      <use x="176.509766" xlink:href="#DejaVuSans-6e"/>
      <use x="239.888672" xlink:href="#DejaVuSans-20"/>
      <use x="271.675781" xlink:href="#DejaVuSans-6c"/>
      <use x="299.458984" xlink:href="#DejaVuSans-6f"/>
      <use x="360.640625" xlink:href="#DejaVuSans-73"/>
      <use x="412.740234" xlink:href="#DejaVuSans-73"/>
     </g>
    </g>
    <g id="line2d_19">
     <path d="M 305.845 69.248562 
L 325.845 69.248562 
" style="fill:none;stroke:#ff7f0e;stroke-linecap:square;stroke-width:1.5;"/>
    </g>
    <g id="line2d_20"/>
    <g id="text_18">
     <!-- Validation loss -->
     <g transform="translate(333.845 72.748562)scale(0.1 -0.1)">
      <defs>
       <path d="M 1831 0 
L 50 4666 
L 709 4666 
L 2188 738 
L 3669 4666 
L 4325 4666 
L 2547 0 
L 1831 0 
z
" id="DejaVuSans-56" transform="scale(0.015625)"/>
       <path d="M 2906 2969 
L 2906 4863 
L 3481 4863 
L 3481 0 
L 2906 0 
L 2906 525 
Q 2725 213 2448 61 
Q 2172 -91 1784 -91 
Q 1150 -91 751 415 
Q 353 922 353 1747 
Q 353 2572 751 3078 
Q 1150 3584 1784 3584 
Q 2172 3584 2448 3432 
Q 2725 3281 2906 2969 
z
M 947 1747 
Q 947 1113 1208 752 
Q 1469 391 1925 391 
Q 2381 391 2643 752 
Q 2906 1113 2906 1747 
Q 2906 2381 2643 2742 
Q 2381 3103 1925 3103 
Q 1469 3103 1208 2742 
Q 947 2381 947 1747 
z
" id="DejaVuSans-64" transform="scale(0.015625)"/>
       <path d="M 1172 4494 
L 1172 3500 
L 2356 3500 
L 2356 3053 
L 1172 3053 
L 1172 1153 
Q 1172 725 1289 603 
Q 1406 481 1766 481 
L 2356 481 
L 2356 0 
L 1766 0 
Q 1100 0 847 248 
Q 594 497 594 1153 
L 594 3053 
L 172 3053 
L 172 3500 
L 594 3500 
L 594 4494 
L 1172 4494 
z
" id="DejaVuSans-74" transform="scale(0.015625)"/>
      </defs>
      <use xlink:href="#DejaVuSans-56"/>
      <use x="60.658203" xlink:href="#DejaVuSans-61"/>
      <use x="121.9375" xlink:href="#DejaVuSans-6c"/>
      <use x="149.720703" xlink:href="#DejaVuSans-69"/>
      <use x="177.503906" xlink:href="#DejaVuSans-64"/>
      <use x="240.980469" xlink:href="#DejaVuSans-61"/>
      <use x="302.259766" xlink:href="#DejaVuSans-74"/>
      <use x="341.46875" xlink:href="#DejaVuSans-69"/>
      <use x="369.251953" xlink:href="#DejaVuSans-6f"/>
      <use x="430.433594" xlink:href="#DejaVuSans-6e"/>
      <use x="493.8125" xlink:href="#DejaVuSans-20"/>
      <use x="525.599609" xlink:href="#DejaVuSans-6c"/>
      <use x="553.382812" xlink:href="#DejaVuSans-6f"/>
      <use x="614.564453" xlink:href="#DejaVuSans-73"/>
      <use x="666.664062" xlink:href="#DejaVuSans-73"/>
     </g>
    </g>
   </g>
  </g>
 </g>
 <defs>
  <clipPath id="p627c3f9eb4">
   <rect height="266.112" width="357.12" x="57.6" y="41.472"/>
  </clipPath>
 </defs>
</svg>
