<?xml version="1.0" encoding="utf-8" standalone="no"?>
<!DOCTYPE svg PUBLIC "-//W3C//DTD SVG 1.1//EN"
  "http://www.w3.org/Graphics/SVG/1.1/DTD/svg11.dtd">
<svg height="345.6pt" version="1.1" viewBox="0 0 460.8 345.6" width="460.8pt" xmlns="http://www.w3.org/2000/svg" xmlns:xlink="http://www.w3.org/1999/xlink">
 <metadata>
  <rdf:RDF xmlns:cc="http://creativecommons.org/ns#" xmlns:dc="http://purl.org/dc/elements/1.1/" xmlns:rdf="http://www.w3.org/1999/02/22-rdf-syntax-ns#">
   <cc:Work>
    <dc:type rdf:resource="http://purl.org/dc/dcmitype/StillImage"/>
    <dc:date>2021-07-19T13:00:29.357688</dc:date>
    <dc:format>image/svg+xml</dc:format>
    <dc:creator>
     <cc:Agent>
      <dc:title>Matplotlib v3.4.2, https://matplotlib.org/</dc:title>
     </cc:Agent>
    </dc:creator>
   </cc:Work>
  </rdf:RDF>
 </metadata>
 <defs>
  <style type="text/css">*{stroke-linecap:butt;stroke-linejoin:round;}</style>
 </defs>
 <g id="figure_1">
  <g id="patch_1">
   <path d="M 0 345.6 
L 460.8 345.6 
L 460.8 0 
L 0 0 
z
" style="fill:#ffffff;"/>
  </g>
  <g id="axes_1">
   <g id="patch_2">
    <path d="M 57.6 307.584 
L 414.72 307.584 
L 414.72 41.472 
L 57.6 41.472 
z
" style="fill:#ffffff;"/>
   </g>
   <g id="matplotlib.axis_1">
    <g id="xtick_1">
     <g id="line2d_1">
      <defs>
       <path d="M 0 0 
L 0 3.5 
" id="ma47f933109" style="stroke:#000000;stroke-width:0.8;"/>
      </defs>
      <g>
       <use style="stroke:#000000;stroke-width:0.8;" x="73.507748" xlink:href="#ma47f933109" y="307.584"/>
      </g>
     </g>
     <g id="text_1">
      <!-- 0 -->
      <g transform="translate(70.326498 322.182437)scale(0.1 -0.1)">
       <defs>
        <path d="M 2034 4250 
Q 1547 4250 1301 3770 
Q 1056 3291 1056 2328 
Q 1056 1369 1301 889 
Q 1547 409 2034 409 
Q 2525 409 2770 889 
Q 3016 1369 3016 2328 
Q 3016 3291 2770 3770 
Q 2525 4250 2034 4250 
z
M 2034 4750 
Q 2819 4750 3233 4129 
Q 3647 3509 3647 2328 
Q 3647 1150 3233 529 
Q 2819 -91 2034 -91 
Q 1250 -91 836 529 
Q 422 1150 422 2328 
Q 422 3509 836 4129 
Q 1250 4750 2034 4750 
z
" id="DejaVuSans-30" transform="scale(0.015625)"/>
       </defs>
       <use xlink:href="#DejaVuSans-30"/>
      </g>
     </g>
    </g>
    <g id="xtick_2">
     <g id="line2d_2">
      <g>
       <use style="stroke:#000000;stroke-width:0.8;" x="138.503653" xlink:href="#ma47f933109" y="307.584"/>
      </g>
     </g>
     <g id="text_2">
      <!-- 200 -->
      <g transform="translate(128.959903 322.182437)scale(0.1 -0.1)">
       <defs>
        <path d="M 1228 531 
L 3431 531 
L 3431 0 
L 469 0 
L 469 531 
Q 828 903 1448 1529 
Q 2069 2156 2228 2338 
Q 2531 2678 2651 2914 
Q 2772 3150 2772 3378 
Q 2772 3750 2511 3984 
Q 2250 4219 1831 4219 
Q 1534 4219 1204 4116 
Q 875 4013 500 3803 
L 500 4441 
Q 881 4594 1212 4672 
Q 1544 4750 1819 4750 
Q 2544 4750 2975 4387 
Q 3406 4025 3406 3419 
Q 3406 3131 3298 2873 
Q 3191 2616 2906 2266 
Q 2828 2175 2409 1742 
Q 1991 1309 1228 531 
z
" id="DejaVuSans-32" transform="scale(0.015625)"/>
       </defs>
       <use xlink:href="#DejaVuSans-32"/>
       <use x="63.623047" xlink:href="#DejaVuSans-30"/>
       <use x="127.246094" xlink:href="#DejaVuSans-30"/>
      </g>
     </g>
    </g>
    <g id="xtick_3">
     <g id="line2d_3">
      <g>
       <use style="stroke:#000000;stroke-width:0.8;" x="203.499558" xlink:href="#ma47f933109" y="307.584"/>
      </g>
     </g>
     <g id="text_3">
      <!-- 400 -->
      <g transform="translate(193.955808 322.182437)scale(0.1 -0.1)">
       <defs>
        <path d="M 2419 4116 
L 825 1625 
L 2419 1625 
L 2419 4116 
z
M 2253 4666 
L 3047 4666 
L 3047 1625 
L 3713 1625 
L 3713 1100 
L 3047 1100 
L 3047 0 
L 2419 0 
L 2419 1100 
L 313 1100 
L 313 1709 
L 2253 4666 
z
" id="DejaVuSans-34" transform="scale(0.015625)"/>
       </defs>
       <use xlink:href="#DejaVuSans-34"/>
       <use x="63.623047" xlink:href="#DejaVuSans-30"/>
       <use x="127.246094" xlink:href="#DejaVuSans-30"/>
      </g>
     </g>
    </g>
    <g id="xtick_4">
     <g id="line2d_4">
      <g>
       <use style="stroke:#000000;stroke-width:0.8;" x="268.495463" xlink:href="#ma47f933109" y="307.584"/>
      </g>
     </g>
     <g id="text_4">
      <!-- 600 -->
      <g transform="translate(258.951713 322.182437)scale(0.1 -0.1)">
       <defs>
        <path d="M 2113 2584 
Q 1688 2584 1439 2293 
Q 1191 2003 1191 1497 
Q 1191 994 1439 701 
Q 1688 409 2113 409 
Q 2538 409 2786 701 
Q 3034 994 3034 1497 
Q 3034 2003 2786 2293 
Q 2538 2584 2113 2584 
z
M 3366 4563 
L 3366 3988 
Q 3128 4100 2886 4159 
Q 2644 4219 2406 4219 
Q 1781 4219 1451 3797 
Q 1122 3375 1075 2522 
Q 1259 2794 1537 2939 
Q 1816 3084 2150 3084 
Q 2853 3084 3261 2657 
Q 3669 2231 3669 1497 
Q 3669 778 3244 343 
Q 2819 -91 2113 -91 
Q 1303 -91 875 529 
Q 447 1150 447 2328 
Q 447 3434 972 4092 
Q 1497 4750 2381 4750 
Q 2619 4750 2861 4703 
Q 3103 4656 3366 4563 
z
" id="DejaVuSans-36" transform="scale(0.015625)"/>
       </defs>
       <use xlink:href="#DejaVuSans-36"/>
       <use x="63.623047" xlink:href="#DejaVuSans-30"/>
       <use x="127.246094" xlink:href="#DejaVuSans-30"/>
      </g>
     </g>
    </g>
    <g id="xtick_5">
     <g id="line2d_5">
      <g>
       <use style="stroke:#000000;stroke-width:0.8;" x="333.491368" xlink:href="#ma47f933109" y="307.584"/>
      </g>
     </g>
     <g id="text_5">
      <!-- 800 -->
      <g transform="translate(323.947618 322.182437)scale(0.1 -0.1)">
       <defs>
        <path d="M 2034 2216 
Q 1584 2216 1326 1975 
Q 1069 1734 1069 1313 
Q 1069 891 1326 650 
Q 1584 409 2034 409 
Q 2484 409 2743 651 
Q 3003 894 3003 1313 
Q 3003 1734 2745 1975 
Q 2488 2216 2034 2216 
z
M 1403 2484 
Q 997 2584 770 2862 
Q 544 3141 544 3541 
Q 544 4100 942 4425 
Q 1341 4750 2034 4750 
Q 2731 4750 3128 4425 
Q 3525 4100 3525 3541 
Q 3525 3141 3298 2862 
Q 3072 2584 2669 2484 
Q 3125 2378 3379 2068 
Q 3634 1759 3634 1313 
Q 3634 634 3220 271 
Q 2806 -91 2034 -91 
Q 1263 -91 848 271 
Q 434 634 434 1313 
Q 434 1759 690 2068 
Q 947 2378 1403 2484 
z
M 1172 3481 
Q 1172 3119 1398 2916 
Q 1625 2713 2034 2713 
Q 2441 2713 2670 2916 
Q 2900 3119 2900 3481 
Q 2900 3844 2670 4047 
Q 2441 4250 2034 4250 
Q 1625 4250 1398 4047 
Q 1172 3844 1172 3481 
z
" id="DejaVuSans-38" transform="scale(0.015625)"/>
       </defs>
       <use xlink:href="#DejaVuSans-38"/>
       <use x="63.623047" xlink:href="#DejaVuSans-30"/>
       <use x="127.246094" xlink:href="#DejaVuSans-30"/>
      </g>
     </g>
    </g>
    <g id="xtick_6">
     <g id="line2d_6">
      <g>
       <use style="stroke:#000000;stroke-width:0.8;" x="398.487273" xlink:href="#ma47f933109" y="307.584"/>
      </g>
     </g>
     <g id="text_6">
      <!-- 1000 -->
      <g transform="translate(385.762273 322.182437)scale(0.1 -0.1)">
       <defs>
        <path d="M 794 531 
L 1825 531 
L 1825 4091 
L 703 3866 
L 703 4441 
L 1819 4666 
L 2450 4666 
L 2450 531 
L 3481 531 
L 3481 0 
L 794 0 
L 794 531 
z
" id="DejaVuSans-31" transform="scale(0.015625)"/>
       </defs>
       <use xlink:href="#DejaVuSans-31"/>
       <use x="63.623047" xlink:href="#DejaVuSans-30"/>
       <use x="127.246094" xlink:href="#DejaVuSans-30"/>
       <use x="190.869141" xlink:href="#DejaVuSans-30"/>
      </g>
     </g>
    </g>
    <g id="text_7">
     <!-- Epoch -->
     <g transform="translate(213.193594 339.659781)scale(0.15 -0.15)">
      <defs>
       <path d="M 628 4666 
L 3578 4666 
L 3578 4134 
L 1259 4134 
L 1259 2753 
L 3481 2753 
L 3481 2222 
L 1259 2222 
L 1259 531 
L 3634 531 
L 3634 0 
L 628 0 
L 628 4666 
z
" id="DejaVuSans-45" transform="scale(0.015625)"/>
       <path d="M 1159 525 
L 1159 -1331 
L 581 -1331 
L 581 3500 
L 1159 3500 
L 1159 2969 
Q 1341 3281 1617 3432 
Q 1894 3584 2278 3584 
Q 2916 3584 3314 3078 
Q 3713 2572 3713 1747 
Q 3713 922 3314 415 
Q 2916 -91 2278 -91 
Q 1894 -91 1617 61 
Q 1341 213 1159 525 
z
M 3116 1747 
Q 3116 2381 2855 2742 
Q 2594 3103 2138 3103 
Q 1681 3103 1420 2742 
Q 1159 2381 1159 1747 
Q 1159 1113 1420 752 
Q 1681 391 2138 391 
Q 2594 391 2855 752 
Q 3116 1113 3116 1747 
z
" id="DejaVuSans-70" transform="scale(0.015625)"/>
       <path d="M 1959 3097 
Q 1497 3097 1228 2736 
Q 959 2375 959 1747 
Q 959 1119 1226 758 
Q 1494 397 1959 397 
Q 2419 397 2687 759 
Q 2956 1122 2956 1747 
Q 2956 2369 2687 2733 
Q 2419 3097 1959 3097 
z
M 1959 3584 
Q 2709 3584 3137 3096 
Q 3566 2609 3566 1747 
Q 3566 888 3137 398 
Q 2709 -91 1959 -91 
Q 1206 -91 779 398 
Q 353 888 353 1747 
Q 353 2609 779 3096 
Q 1206 3584 1959 3584 
z
" id="DejaVuSans-6f" transform="scale(0.015625)"/>
       <path d="M 3122 3366 
L 3122 2828 
Q 2878 2963 2633 3030 
Q 2388 3097 2138 3097 
Q 1578 3097 1268 2742 
Q 959 2388 959 1747 
Q 959 1106 1268 751 
Q 1578 397 2138 397 
Q 2388 397 2633 464 
Q 2878 531 3122 666 
L 3122 134 
Q 2881 22 2623 -34 
Q 2366 -91 2075 -91 
Q 1284 -91 818 406 
Q 353 903 353 1747 
Q 353 2603 823 3093 
Q 1294 3584 2113 3584 
Q 2378 3584 2631 3529 
Q 2884 3475 3122 3366 
z
" id="DejaVuSans-63" transform="scale(0.015625)"/>
       <path d="M 3513 2113 
L 3513 0 
L 2938 0 
L 2938 2094 
Q 2938 2591 2744 2837 
Q 2550 3084 2163 3084 
Q 1697 3084 1428 2787 
Q 1159 2491 1159 1978 
L 1159 0 
L 581 0 
L 581 4863 
L 1159 4863 
L 1159 2956 
Q 1366 3272 1645 3428 
Q 1925 3584 2291 3584 
Q 2894 3584 3203 3211 
Q 3513 2838 3513 2113 
z
" id="DejaVuSans-68" transform="scale(0.015625)"/>
      </defs>
      <use xlink:href="#DejaVuSans-45"/>
      <use x="63.183594" xlink:href="#DejaVuSans-70"/>
      <use x="126.660156" xlink:href="#DejaVuSans-6f"/>
      <use x="187.841797" xlink:href="#DejaVuSans-63"/>
      <use x="242.822266" xlink:href="#DejaVuSans-68"/>
     </g>
    </g>
   </g>
   <g id="matplotlib.axis_2">
    <g id="ytick_1">
     <g id="line2d_7">
      <defs>
       <path d="M 0 0 
L -3.5 0 
" id="m1be889ba47" style="stroke:#000000;stroke-width:0.8;"/>
      </defs>
      <g>
       <use style="stroke:#000000;stroke-width:0.8;" x="57.6" xlink:href="#m1be889ba47" y="270.96328"/>
      </g>
     </g>
     <g id="text_8">
      <!-- −1000 -->
      <g transform="translate(16.770313 274.762498)scale(0.1 -0.1)">
       <defs>
        <path d="M 678 2272 
L 4684 2272 
L 4684 1741 
L 678 1741 
L 678 2272 
z
" id="DejaVuSans-2212" transform="scale(0.015625)"/>
       </defs>
       <use xlink:href="#DejaVuSans-2212"/>
       <use x="83.789062" xlink:href="#DejaVuSans-31"/>
       <use x="147.412109" xlink:href="#DejaVuSans-30"/>
       <use x="211.035156" xlink:href="#DejaVuSans-30"/>
       <use x="274.658203" xlink:href="#DejaVuSans-30"/>
      </g>
     </g>
    </g>
    <g id="ytick_2">
     <g id="line2d_8">
      <g>
       <use style="stroke:#000000;stroke-width:0.8;" x="57.6" xlink:href="#m1be889ba47" y="229.27055"/>
      </g>
     </g>
     <g id="text_9">
      <!-- −800 -->
      <g transform="translate(23.132812 233.069769)scale(0.1 -0.1)">
       <use xlink:href="#DejaVuSans-2212"/>
       <use x="83.789062" xlink:href="#DejaVuSans-38"/>
       <use x="147.412109" xlink:href="#DejaVuSans-30"/>
       <use x="211.035156" xlink:href="#DejaVuSans-30"/>
      </g>
     </g>
    </g>
    <g id="ytick_3">
     <g id="line2d_9">
      <g>
       <use style="stroke:#000000;stroke-width:0.8;" x="57.6" xlink:href="#m1be889ba47" y="187.577821"/>
      </g>
     </g>
     <g id="text_10">
      <!-- −600 -->
      <g transform="translate(23.132812 191.37704)scale(0.1 -0.1)">
       <use xlink:href="#DejaVuSans-2212"/>
       <use x="83.789062" xlink:href="#DejaVuSans-36"/>
       <use x="147.412109" xlink:href="#DejaVuSans-30"/>
       <use x="211.035156" xlink:href="#DejaVuSans-30"/>
      </g>
     </g>
    </g>
    <g id="ytick_4">
     <g id="line2d_10">
      <g>
       <use style="stroke:#000000;stroke-width:0.8;" x="57.6" xlink:href="#m1be889ba47" y="145.885092"/>
      </g>
     </g>
     <g id="text_11">
      <!-- −400 -->
      <g transform="translate(23.132812 149.684311)scale(0.1 -0.1)">
       <use xlink:href="#DejaVuSans-2212"/>
       <use x="83.789062" xlink:href="#DejaVuSans-34"/>
       <use x="147.412109" xlink:href="#DejaVuSans-30"/>
       <use x="211.035156" xlink:href="#DejaVuSans-30"/>
      </g>
     </g>
    </g>
    <g id="ytick_5">
     <g id="line2d_11">
      <g>
       <use style="stroke:#000000;stroke-width:0.8;" x="57.6" xlink:href="#m1be889ba47" y="104.192363"/>
      </g>
     </g>
     <g id="text_12">
      <!-- −200 -->
      <g transform="translate(23.132812 107.991581)scale(0.1 -0.1)">
       <use xlink:href="#DejaVuSans-2212"/>
       <use x="83.789062" xlink:href="#DejaVuSans-32"/>
       <use x="147.412109" xlink:href="#DejaVuSans-30"/>
       <use x="211.035156" xlink:href="#DejaVuSans-30"/>
      </g>
     </g>
    </g>
    <g id="ytick_6">
     <g id="line2d_12">
      <g>
       <use style="stroke:#000000;stroke-width:0.8;" x="57.6" xlink:href="#m1be889ba47" y="62.499633"/>
      </g>
     </g>
     <g id="text_13">
      <!-- 0 -->
      <g transform="translate(44.2375 66.298852)scale(0.1 -0.1)">
       <use xlink:href="#DejaVuSans-30"/>
      </g>
     </g>
    </g>
   </g>
   <g id="line2d_13">
    <path clip-path="url(#pe616650a7b)" d="M 73.832727 53.568 
L 74.157707 110.306833 
L 74.807666 145.946251 
L 75.132645 145.264856 
L 76.107584 175.927128 
L 76.432563 170.157305 
L 76.757543 173.204814 
L 77.082523 181.227775 
L 77.407502 173.71241 
L 77.732482 174.101719 
L 78.382441 193.033641 
L 79.0324 184.243918 
L 79.357379 189.052491 
L 79.682359 196.483198 
L 80.007338 197.437192 
L 80.332318 198.897947 
L 80.982277 191.684253 
L 81.307256 205.615418 
L 81.632236 199.171138 
L 81.957215 204.573863 
L 82.282195 204.731551 
L 82.607174 205.055296 
L 82.932154 201.426834 
L 83.257133 212.307867 
L 83.582113 204.787951 
L 83.907093 206.918341 
L 84.232072 216.439348 
L 84.557052 203.467919 
L 84.882031 212.559061 
L 85.207011 215.92102 
L 85.53199 211.353838 
L 85.85697 212.81158 
L 86.181949 217.298506 
L 86.506929 215.931479 
L 86.831908 216.164779 
L 87.156888 222.52304 
L 87.481867 212.88545 
L 87.806847 222.189957 
L 88.131826 225.742451 
L 88.456806 217.437828 
L 88.781785 217.685529 
L 89.106765 219.226952 
L 89.431744 216.110997 
L 89.756724 219.73531 
L 90.081704 225.764074 
L 90.731663 224.595222 
L 91.056642 225.272614 
L 91.381622 232.095726 
L 91.706601 232.666623 
L 92.031581 224.418242 
L 92.35656 236.581737 
L 92.68154 228.882816 
L 93.006519 229.586051 
L 93.331499 228.506977 
L 93.656478 230.910971 
L 93.981458 238.875123 
L 94.306437 228.628493 
L 94.631417 238.986861 
L 94.956396 233.055211 
L 95.281376 233.434252 
L 95.606355 235.449165 
L 95.931335 231.978442 
L 96.256314 236.074815 
L 96.581294 232.72988 
L 96.906274 225.706604 
L 97.231253 239.159569 
L 97.556233 245.205457 
L 98.206192 234.668675 
L 98.531171 236.177881 
L 98.856151 236.157709 
L 99.18113 243.557342 
L 99.50611 231.333388 
L 99.831089 239.684029 
L 100.156069 234.76274 
L 100.481048 236.75814 
L 100.806028 242.22161 
L 101.131007 237.725699 
L 101.455987 241.546207 
L 101.780966 238.702583 
L 102.105946 226.745574 
L 102.430925 238.000998 
L 102.755905 236.557256 
L 103.080885 260.850872 
L 103.405864 230.103985 
L 103.730844 240.192122 
L 104.055823 237.481541 
L 104.380803 244.918751 
L 104.705782 240.428906 
L 105.030762 244.585728 
L 105.355741 245.969427 
L 105.680721 248.865165 
L 106.0057 246.749682 
L 106.33068 248.840626 
L 106.655659 235.251638 
L 106.980639 251.730028 
L 107.305618 240.829191 
L 107.630598 251.104524 
L 107.955577 249.679956 
L 108.280557 254.650773 
L 108.605536 248.891992 
L 108.930516 250.982826 
L 109.255495 250.088804 
L 109.580475 236.193003 
L 110.230434 245.635317 
L 110.555414 244.103448 
L 110.880393 250.615243 
L 111.205373 247.395614 
L 111.530352 240.7383 
L 111.855332 253.466425 
L 112.180311 248.22123 
L 112.505291 246.482557 
L 112.83027 243.449402 
L 113.15525 243.310078 
L 113.480229 249.920349 
L 113.805209 245.972624 
L 114.130188 247.462361 
L 114.455168 248.351967 
L 114.780147 243.069998 
L 115.105127 256.047964 
L 115.430106 245.862238 
L 115.755086 244.862612 
L 116.080066 249.993586 
L 116.730025 244.65866 
L 117.055004 246.622056 
L 117.379984 246.206762 
L 117.704963 242.650859 
L 118.029943 251.092029 
L 118.354922 237.094015 
L 118.679902 239.598045 
L 119.004881 248.891273 
L 119.329861 251.40632 
L 119.65484 241.69884 
L 119.97982 240.831702 
L 120.304799 247.616148 
L 120.629779 240.176698 
L 120.954758 245.121417 
L 121.279738 239.907802 
L 121.604717 249.439554 
L 121.929697 249.881318 
L 122.254676 252.255043 
L 122.579656 242.689929 
L 122.904636 251.165569 
L 123.229615 253.956338 
L 123.554595 246.455931 
L 123.879574 248.41565 
L 124.204554 242.981069 
L 124.529533 250.755047 
L 124.854513 248.41365 
L 125.179492 253.839595 
L 125.504472 243.750663 
L 125.829451 257.16729 
L 126.47941 240.160961 
L 126.80439 254.005961 
L 127.129369 242.730596 
L 127.454349 253.568576 
L 127.779328 251.306079 
L 128.104308 252.200652 
L 128.429287 250.07801 
L 128.754267 247.136676 
L 129.079247 250.901335 
L 129.729206 244.90366 
L 130.054185 244.733196 
L 130.704144 260.933562 
L 131.029124 243.313534 
L 131.354103 249.533159 
L 131.679083 239.884123 
L 132.004062 245.910871 
L 132.329042 236.170389 
L 132.979001 255.92332 
L 133.30398 242.776466 
L 133.62896 253.030311 
L 133.953939 248.191153 
L 134.278919 254.87613 
L 134.603898 258.864258 
L 135.578837 248.179345 
L 135.903817 256.922227 
L 136.228796 257.718185 
L 136.878755 249.671543 
L 137.203735 244.978098 
L 137.528714 243.227334 
L 137.853694 252.884705 
L 138.178673 258.593018 
L 138.503653 254.102638 
L 138.828632 251.457592 
L 139.153612 252.48545 
L 139.478591 249.711317 
L 139.803571 257.294867 
L 140.12855 262.274129 
L 140.778509 253.698365 
L 141.103489 244.798739 
L 141.428468 260.231534 
L 142.078428 249.057677 
L 142.403407 257.216301 
L 142.728387 255.095713 
L 143.053366 259.718692 
L 143.378346 251.400984 
L 144.028305 255.141716 
L 144.353284 252.175559 
L 144.678264 256.430845 
L 145.003243 252.869785 
L 145.328223 255.549626 
L 145.653202 255.524933 
L 145.978182 248.736616 
L 146.303161 250.834735 
L 146.628141 246.54946 
L 146.95312 254.803434 
L 147.2781 245.106958 
L 147.603079 256.693618 
L 147.928059 263.595761 
L 148.253038 264.249716 
L 148.578018 260.198828 
L 148.902998 260.470136 
L 149.227977 261.488148 
L 149.552957 259.585709 
L 149.877936 255.012497 
L 150.202916 256.752404 
L 150.527895 248.443385 
L 150.852875 247.579478 
L 151.177854 258.700436 
L 151.502834 253.996234 
L 151.827813 256.044769 
L 152.152793 247.912974 
L 152.477772 252.378081 
L 153.127731 264.358947 
L 153.452711 259.911383 
L 153.77769 240.956261 
L 154.10267 258.592203 
L 154.427649 251.874443 
L 154.752629 263.81659 
L 155.402588 247.357349 
L 155.727568 256.097745 
L 156.052547 252.78809 
L 156.377527 254.143965 
L 156.702506 259.90054 
L 157.027486 253.631488 
L 157.352465 254.475767 
L 157.677445 251.8227 
L 158.002424 260.976867 
L 158.327404 263.87839 
L 158.652383 265.33905 
L 159.302342 251.562379 
L 159.627322 260.032584 
L 159.952301 261.737179 
L 160.277281 252.33825 
L 160.60226 251.783531 
L 160.92724 255.009043 
L 161.577199 256.048411 
L 161.902179 258.756033 
L 162.227158 253.837627 
L 162.552138 247.000831 
L 162.877117 246.209823 
L 163.527076 258.48918 
L 163.852056 261.515746 
L 164.177035 252.87984 
L 164.502015 254.899154 
L 165.151974 250.189876 
L 165.476953 246.293433 
L 165.801933 255.948065 
L 166.126912 258.101196 
L 166.451892 263.10272 
L 166.776871 252.814952 
L 167.101851 256.08207 
L 167.42683 268.858369 
L 167.75181 246.401809 
L 168.07679 254.259985 
L 168.401769 247.880208 
L 168.726749 250.901584 
L 169.051728 252.193112 
L 169.376708 261.186399 
L 169.701687 257.880371 
L 170.026667 252.157759 
L 170.351646 260.511116 
L 170.676626 253.054728 
L 171.001605 257.097593 
L 171.326585 247.400045 
L 171.651564 266.202221 
L 171.976544 253.050025 
L 172.301523 261.730874 
L 172.626503 260.655297 
L 172.951482 256.376397 
L 173.276462 254.189673 
L 173.601441 261.235194 
L 173.926421 264.844217 
L 174.2514 263.497854 
L 174.57638 265.627043 
L 174.90136 255.843079 
L 175.226339 268.298788 
L 175.876298 265.56046 
L 176.201278 254.12038 
L 176.526257 258.837657 
L 176.851237 259.191239 
L 177.176216 266.855994 
L 177.501196 256.105326 
L 177.826175 253.514074 
L 178.151155 255.732906 
L 178.476134 263.181058 
L 178.801114 254.537792 
L 179.126093 259.740733 
L 179.451073 268.784734 
L 179.776052 260.682512 
L 180.101032 263.83506 
L 180.426011 262.812389 
L 180.750991 253.055983 
L 181.40095 271.408051 
L 181.72593 270.45751 
L 182.050909 262.846602 
L 182.375889 261.770555 
L 182.700868 251.631276 
L 183.025848 252.52578 
L 183.350827 253.879654 
L 183.675807 271.434241 
L 184.325766 253.523987 
L 184.650745 265.43783 
L 184.975725 266.025641 
L 185.300704 258.10477 
L 185.625684 261.068609 
L 185.950663 262.201622 
L 186.275643 260.967201 
L 186.600622 267.434715 
L 186.925602 258.962801 
L 187.250581 262.690742 
L 187.575561 255.641881 
L 187.900541 259.661211 
L 188.5505 255.454599 
L 188.875479 262.193569 
L 189.200459 260.873485 
L 189.525438 269.797997 
L 189.850418 263.983881 
L 190.175397 262.990706 
L 190.500377 247.823609 
L 190.825356 266.853114 
L 191.150336 265.828531 
L 191.475315 269.287494 
L 191.800295 258.299024 
L 192.125274 265.01414 
L 192.450254 267.138937 
L 192.775233 265.885357 
L 193.100213 272.651073 
L 193.425192 246.250218 
L 193.750172 262.711716 
L 194.075152 247.223341 
L 194.400131 275.25396 
L 194.725111 267.710731 
L 195.05009 263.7005 
L 195.37507 266.264454 
L 195.700049 265.083208 
L 196.025029 269.130588 
L 196.350008 263.415265 
L 196.674988 267.053101 
L 196.999967 262.011431 
L 197.324947 264.26783 
L 197.649926 265.702634 
L 197.974906 260.698579 
L 198.299885 261.022733 
L 198.624865 266.556157 
L 198.949844 262.467462 
L 199.274824 266.365164 
L 199.599803 274.934836 
L 199.924783 269.812647 
L 200.249762 261.828751 
L 200.574742 263.3696 
L 200.899722 261.318553 
L 201.224701 273.675605 
L 201.87466 262.472757 
L 202.19964 275.141275 
L 202.524619 272.649939 
L 202.849599 272.49065 
L 203.499558 264.577693 
L 203.824537 265.496412 
L 204.149517 263.099081 
L 204.474496 272.744846 
L 204.799476 263.727568 
L 205.124455 281.3428 
L 205.449435 271.455454 
L 205.774414 275.604401 
L 206.099394 264.45036 
L 206.424373 263.800769 
L 206.749353 261.710534 
L 207.074333 265.984757 
L 207.399312 266.126894 
L 207.724292 264.989297 
L 208.049271 260.532219 
L 208.374251 267.314547 
L 208.69923 270.14923 
L 209.02421 274.564568 
L 209.349189 273.638507 
L 209.674169 270.509916 
L 209.999148 259.876159 
L 210.324128 270.232284 
L 210.649107 276.365282 
L 210.974087 262.013641 
L 211.624046 276.202934 
L 211.949025 280.225781 
L 212.274005 267.735888 
L 212.598984 271.294402 
L 212.923964 276.739506 
L 213.248943 267.180989 
L 213.573923 277.152387 
L 213.898903 262.320593 
L 214.223882 265.202177 
L 214.548862 282.770456 
L 214.873841 270.841618 
L 215.198821 276.564055 
L 215.5238 266.880609 
L 215.84878 267.757105 
L 216.173759 254.025563 
L 216.498739 253.901587 
L 216.823718 268.66974 
L 217.148698 263.042067 
L 217.473677 263.313292 
L 217.798657 273.75512 
L 218.123636 267.359092 
L 218.448616 257.370879 
L 218.773595 273.712806 
L 219.098575 266.02947 
L 219.423554 280.31579 
L 220.073514 260.457455 
L 220.398493 279.442204 
L 220.723473 266.759044 
L 221.048452 269.797145 
L 221.373432 268.272111 
L 222.023391 279.032728 
L 222.34837 261.42537 
L 222.67335 275.324083 
L 222.998329 275.110784 
L 223.323309 270.007553 
L 223.648288 267.528801 
L 223.973268 263.079402 
L 224.298247 267.839021 
L 224.623227 266.003671 
L 224.948206 274.317797 
L 225.273186 261.224667 
L 225.598165 268.722218 
L 225.923145 270.478872 
L 226.248124 259.612078 
L 226.573104 273.742404 
L 227.223063 276.511815 
L 227.548043 274.822077 
L 227.873022 269.855107 
L 228.198002 282.622947 
L 228.522981 267.420353 
L 228.847961 268.343324 
L 229.17294 281.904618 
L 229.49792 284.13951 
L 229.822899 259.494037 
L 230.147879 281.424536 
L 230.472858 286.700553 
L 230.797838 271.782192 
L 231.122817 263.999943 
L 231.447797 259.013967 
L 231.772776 273.706685 
L 232.097756 262.704154 
L 232.422735 274.859653 
L 232.747715 276.316404 
L 233.072695 263.690393 
L 233.397674 271.27894 
L 233.722654 274.263778 
L 234.047633 263.952996 
L 234.372613 269.842825 
L 235.022572 263.342631 
L 235.347551 274.299035 
L 235.672531 264.683623 
L 235.99751 273.582705 
L 236.32249 270.5686 
L 236.647469 274.606696 
L 236.972449 273.644692 
L 237.297428 279.640275 
L 237.622408 265.014986 
L 237.947387 269.50308 
L 238.272367 266.32439 
L 238.597346 268.763247 
L 238.922326 259.450015 
L 239.247305 264.867874 
L 239.572285 272.507367 
L 239.897265 273.140306 
L 240.222244 279.191531 
L 240.547224 274.820227 
L 240.872203 275.907556 
L 241.197183 272.386818 
L 241.847142 278.92843 
L 242.497101 274.683623 
L 242.82208 280.227154 
L 243.14706 271.927393 
L 243.472039 274.885301 
L 243.797019 267.410112 
L 244.121998 270.241566 
L 244.446978 268.517817 
L 244.771957 282.065684 
L 245.096937 276.183095 
L 245.421916 263.66833 
L 245.746896 263.765003 
L 246.071876 264.590019 
L 246.396855 269.798382 
L 246.721835 258.943161 
L 247.046814 265.921535 
L 247.371794 262.029228 
L 247.696773 281.4314 
L 248.021753 272.615496 
L 248.671712 278.544999 
L 248.996691 273.162869 
L 249.321671 272.646762 
L 249.64665 274.192326 
L 249.97163 271.163541 
L 250.296609 270.545749 
L 250.621589 269.261653 
L 250.946568 261.818068 
L 251.271548 279.593248 
L 251.596527 271.623061 
L 251.921507 267.568543 
L 252.246486 278.775668 
L 252.571466 270.416819 
L 252.896446 269.495929 
L 253.221425 277.504921 
L 253.546405 271.300812 
L 253.871384 279.175255 
L 254.196364 278.171435 
L 254.521343 268.288987 
L 254.846323 279.318156 
L 255.171302 266.989071 
L 255.496282 279.899596 
L 256.146241 260.939375 
L 256.7962 274.124578 
L 257.121179 269.278502 
L 257.446159 274.405546 
L 257.771138 273.858311 
L 258.096118 272.189819 
L 258.421097 265.588821 
L 258.746077 276.660161 
L 259.071057 279.232702 
L 259.396036 272.648705 
L 259.721016 280.678898 
L 260.045995 266.201954 
L 260.370975 280.033801 
L 260.695954 278.231448 
L 261.020934 277.174015 
L 261.345913 270.111122 
L 261.670893 270.673112 
L 261.995872 272.52138 
L 262.320852 272.390518 
L 262.645831 270.257999 
L 262.970811 267.100013 
L 263.29579 265.983222 
L 263.62077 278.675593 
L 263.945749 272.762848 
L 264.270729 271.790508 
L 264.595708 275.343358 
L 264.920688 276.454523 
L 265.245667 269.163979 
L 265.570647 275.107701 
L 265.895627 264.067422 
L 266.545586 279.533095 
L 266.870565 265.219652 
L 267.195545 278.172512 
L 267.520524 266.868046 
L 267.845504 272.551915 
L 268.170483 273.703411 
L 268.495463 272.226154 
L 268.820442 277.456835 
L 269.145422 275.836777 
L 269.470401 270.370005 
L 269.795381 275.976404 
L 270.12036 273.625421 
L 270.44534 279.50672 
L 270.770319 280.858306 
L 271.095299 273.803432 
L 271.420278 282.954107 
L 271.745258 274.986855 
L 272.070238 285.789026 
L 272.395217 290.462723 
L 272.720197 275.189847 
L 273.045176 286.40228 
L 273.370156 270.283333 
L 273.695135 286.315413 
L 274.020115 269.776956 
L 274.345094 284.94265 
L 274.670074 275.909211 
L 274.995053 272.535711 
L 275.320033 279.548352 
L 275.645012 276.837319 
L 275.969992 283.367572 
L 276.619951 269.556987 
L 276.94493 272.018987 
L 277.26991 278.997413 
L 277.594889 274.675298 
L 277.919869 274.336576 
L 278.569828 275.821634 
L 278.894808 287.285625 
L 279.219787 271.289727 
L 279.544767 273.126227 
L 279.869746 274.234282 
L 280.194726 271.833759 
L 280.519705 270.756639 
L 280.844685 280.214091 
L 281.169664 279.221642 
L 281.494644 267.643776 
L 281.819623 271.759753 
L 282.144603 278.010049 
L 282.469582 280.896188 
L 282.794562 261.121256 
L 283.119541 280.079719 
L 283.444521 283.224675 
L 283.7695 274.718079 
L 284.419459 272.230769 
L 284.744439 275.878771 
L 285.069419 278.188 
L 285.394398 272.891985 
L 285.719378 277.994829 
L 286.369337 268.598209 
L 286.694316 264.030451 
L 287.019296 279.842988 
L 287.344275 277.113635 
L 287.669255 266.171573 
L 287.994234 273.846688 
L 288.319214 263.177297 
L 288.644193 276.066405 
L 288.969173 273.647222 
L 289.294152 270.308315 
L 289.619132 277.366349 
L 289.944111 271.467028 
L 290.269091 278.431662 
L 290.59407 277.834962 
L 290.91905 274.788966 
L 291.244029 279.639608 
L 292.218968 260.676903 
L 292.543948 271.241441 
L 292.868927 277.075019 
L 293.193907 272.166375 
L 293.518886 287.060865 
L 293.843866 270.246154 
L 294.168845 269.945629 
L 294.493825 274.951379 
L 294.818804 270.493429 
L 295.143784 270.04668 
L 295.468763 273.926784 
L 295.793743 273.324929 
L 296.118722 274.04768 
L 296.443702 280.625442 
L 296.768681 271.885652 
L 297.093661 280.57103 
L 297.41864 284.867404 
L 297.74362 275.453673 
L 298.0686 274.417418 
L 298.393579 275.976369 
L 298.718559 291.919186 
L 299.043538 270.713344 
L 299.368518 274.121886 
L 299.693497 275.797835 
L 300.018477 276.260598 
L 300.343456 273.169767 
L 300.668436 265.197709 
L 300.993415 268.611099 
L 301.318395 276.961463 
L 301.643374 279.913525 
L 301.968354 273.132895 
L 302.293333 277.759574 
L 302.618313 269.367727 
L 302.943292 282.989213 
L 303.268272 268.796951 
L 303.593251 268.698521 
L 304.24321 289.52071 
L 304.56819 284.633507 
L 304.89317 268.649917 
L 305.218149 267.443201 
L 305.868108 277.684718 
L 306.518067 269.159205 
L 306.843047 267.324124 
L 307.168026 266.386105 
L 307.493006 269.754746 
L 307.817985 277.5196 
L 308.467944 270.734036 
L 308.792924 273.248127 
L 309.117903 268.843077 
L 309.442883 269.677054 
L 309.767862 270.965538 
L 310.092842 279.254501 
L 310.417821 268.272481 
L 310.742801 268.938515 
L 311.067781 268.030241 
L 311.39276 278.39705 
L 311.71774 280.852223 
L 312.367699 270.792033 
L 312.692678 279.460846 
L 313.017658 269.857727 
L 313.342637 280.027435 
L 313.992596 285.653449 
L 314.317576 275.520716 
L 314.642555 271.531399 
L 314.967535 283.582559 
L 315.292514 269.036737 
L 315.617494 276.765712 
L 315.942473 268.289597 
L 316.267453 270.756208 
L 316.592432 279.356053 
L 316.917412 264.584123 
L 317.242391 274.059808 
L 317.567371 267.613641 
L 317.892351 273.901637 
L 318.21733 269.475911 
L 318.867289 280.916939 
L 319.192269 271.193122 
L 319.842228 274.187146 
L 320.167207 271.20266 
L 320.492187 267.01445 
L 320.817166 281.405775 
L 321.142146 273.785926 
L 321.467125 280.100825 
L 321.792105 271.718548 
L 322.117084 279.761542 
L 322.442064 273.601141 
L 322.767043 271.780293 
L 323.092023 273.405194 
L 323.417002 270.634289 
L 323.741982 283.728805 
L 324.066962 277.598484 
L 324.391941 281.89018 
L 324.716921 275.456533 
L 325.0419 273.303497 
L 325.36688 279.087415 
L 325.691859 265.538549 
L 326.016839 271.219314 
L 326.341818 266.334371 
L 326.666798 294.136456 
L 326.991777 281.645644 
L 327.316757 274.061285 
L 327.966716 277.419335 
L 328.291695 271.884137 
L 328.616675 280.084775 
L 328.941654 282.582863 
L 329.266634 280.013133 
L 329.591613 271.406271 
L 329.916593 266.18857 
L 330.241572 277.782351 
L 330.566552 271.906453 
L 331.216511 268.40898 
L 331.541491 277.703025 
L 331.86647 263.541009 
L 332.516429 281.902948 
L 332.841409 277.775769 
L 333.491368 274.189208 
L 333.816347 273.791026 
L 334.141327 272.991218 
L 334.466306 274.409943 
L 334.791286 263.676614 
L 335.116265 267.442534 
L 335.441245 276.819262 
L 335.766224 276.114264 
L 336.091204 273.305828 
L 336.416183 276.605249 
L 336.741163 269.92334 
L 337.066143 274.373168 
L 337.391122 260.742299 
L 338.041081 275.251371 
L 338.366061 272.799806 
L 338.69104 277.127397 
L 339.01602 275.849407 
L 339.340999 276.612126 
L 339.665979 267.565967 
L 339.990958 272.734258 
L 340.315938 282.778944 
L 340.640917 264.299144 
L 340.965897 278.981387 
L 341.290876 275.017679 
L 341.615856 280.372452 
L 341.940835 271.354686 
L 342.265815 274.179891 
L 342.590794 274.143796 
L 342.915774 272.230663 
L 343.240753 279.958493 
L 343.565733 261.829588 
L 343.890713 285.158154 
L 344.215692 274.652557 
L 344.540672 274.649517 
L 344.865651 274.496479 
L 345.190631 277.416224 
L 345.51561 276.00716 
L 345.84059 263.388546 
L 346.165569 281.743183 
L 346.815528 276.423286 
L 347.140508 290.131749 
L 347.790467 274.136326 
L 348.115446 274.682045 
L 348.440426 273.775364 
L 348.765405 282.05332 
L 349.090385 264.265727 
L 349.415364 281.183813 
L 349.740344 274.459035 
L 350.065324 273.144985 
L 350.390303 282.605877 
L 350.715283 274.28373 
L 351.040262 284.18185 
L 351.690221 272.45559 
L 352.015201 269.623521 
L 352.34018 269.639715 
L 352.66516 271.305859 
L 352.990139 282.208038 
L 353.315119 275.559136 
L 353.640098 277.51026 
L 353.965078 277.121385 
L 354.290057 270.278623 
L 354.615037 282.435727 
L 354.940016 282.769019 
L 355.264996 268.989506 
L 355.589975 279.269163 
L 355.914955 272.636461 
L 356.239934 279.679274 
L 356.564914 271.068044 
L 356.889894 275.323975 
L 357.214873 271.561594 
L 357.539853 285.763294 
L 357.864832 269.222273 
L 358.189812 262.867606 
L 358.514791 278.57365 
L 358.839771 286.318102 
L 359.16475 269.092984 
L 359.48973 271.531491 
L 359.814709 260.964216 
L 360.139689 284.05097 
L 360.464668 278.588819 
L 360.789648 263.269396 
L 361.114627 272.828886 
L 361.439607 286.791781 
L 361.764586 281.361752 
L 362.089566 269.158591 
L 362.414545 278.928541 
L 362.739525 280.792176 
L 363.064505 279.360631 
L 363.389484 265.468997 
L 364.039443 281.660241 
L 364.364423 275.278333 
L 364.689402 292.512565 
L 365.014382 281.275435 
L 365.339361 282.439854 
L 365.664341 268.599117 
L 365.98932 281.321352 
L 366.3143 275.649299 
L 366.639279 267.979083 
L 366.964259 269.15305 
L 367.289238 273.462246 
L 367.614218 271.853495 
L 367.939197 283.457113 
L 368.264177 285.478308 
L 368.589156 270.019554 
L 368.914136 268.655669 
L 369.239115 282.067318 
L 369.564095 267.325089 
L 369.889075 274.0148 
L 370.214054 271.994752 
L 370.539034 285.460759 
L 370.864013 278.405364 
L 371.513972 270.587825 
L 371.838952 280.679667 
L 372.163931 273.15781 
L 372.488911 273.350199 
L 372.81389 282.067868 
L 373.13887 272.662471 
L 373.463849 275.208094 
L 373.788829 266.524006 
L 374.113808 281.566929 
L 374.438788 270.049442 
L 374.763767 268.245391 
L 375.088747 279.197705 
L 375.413726 267.04394 
L 375.738706 265.482699 
L 376.063686 276.043477 
L 376.388665 279.375695 
L 376.713645 273.230161 
L 377.038624 285.943318 
L 377.363604 280.267751 
L 377.688583 271.541141 
L 378.013563 275.697498 
L 378.338542 272.290916 
L 378.663522 285.83593 
L 378.988501 279.402192 
L 379.313481 276.681745 
L 379.63846 282.56283 
L 379.96344 281.39283 
L 380.288419 279.434415 
L 380.613399 275.504689 
L 380.938378 278.924963 
L 381.263358 268.50934 
L 381.588337 275.381281 
L 381.913317 269.914619 
L 382.238296 271.41954 
L 382.563276 266.499958 
L 382.888256 282.686352 
L 383.213235 272.98298 
L 383.538215 273.524237 
L 383.863194 278.199064 
L 384.188174 280.961999 
L 384.838133 273.257175 
L 385.163112 279.200136 
L 385.488092 290.523119 
L 385.813071 272.246707 
L 386.138051 273.213858 
L 386.46303 275.006239 
L 386.78801 272.084089 
L 387.112989 275.760061 
L 387.762948 274.920266 
L 388.087928 284.84431 
L 388.412907 278.219839 
L 388.737887 274.756163 
L 389.062867 278.960852 
L 389.387846 270.551065 
L 389.712826 281.934798 
L 390.037805 275.261613 
L 390.362785 274.329643 
L 390.687764 276.61812 
L 391.012744 273.786262 
L 391.337723 267.482199 
L 391.662703 268.945072 
L 391.987682 285.838396 
L 392.312662 276.820465 
L 392.637641 272.928291 
L 392.962621 283.385097 
L 393.2876 274.850577 
L 393.61258 294.070406 
L 393.937559 295.488 
L 394.262539 276.532717 
L 394.587518 293.154697 
L 394.912498 270.270403 
L 395.237477 283.437903 
L 395.562457 275.84459 
L 395.887437 278.598919 
L 396.212416 277.015844 
L 396.537396 278.399805 
L 397.512334 272.839361 
L 397.837314 273.538748 
L 398.162293 280.801191 
L 398.487273 273.08271 
L 398.487273 273.08271 
" style="fill:none;stroke:#1f77b4;stroke-linecap:square;stroke-width:1.5;"/>
   </g>
   <g id="line2d_14">
    <path clip-path="url(#pe616650a7b)" d="M 73.832727 58.862258 
L 74.157707 125.269943 
L 74.482686 146.547648 
L 74.807666 158.856667 
L 75.132645 151.830769 
L 75.457625 158.000092 
L 75.782604 176.896582 
L 76.107584 172.116015 
L 76.432563 136.740086 
L 76.757543 184.360832 
L 77.082523 174.528727 
L 77.407502 170.414049 
L 77.732482 184.94722 
L 78.057461 188.520293 
L 78.382441 122.115559 
L 78.70742 198.943024 
L 79.0324 199.519351 
L 79.357379 197.897124 
L 79.682359 188.989953 
L 80.007338 203.904415 
L 80.332318 204.633637 
L 80.657297 180.923012 
L 80.982277 198.01143 
L 81.307256 201.60783 
L 81.632236 210.985396 
L 81.957215 197.937899 
L 82.282195 209.243039 
L 82.607174 209.884363 
L 82.932154 209.196094 
L 83.257133 215.26924 
L 83.582113 204.819687 
L 83.907093 213.409528 
L 84.232072 208.152279 
L 84.557052 210.012402 
L 85.207011 215.466173 
L 85.53199 215.57504 
L 85.85697 213.577085 
L 86.506929 222.086655 
L 86.831908 208.402657 
L 87.156888 225.985206 
L 87.481867 227.609325 
L 87.806847 226.900211 
L 88.131826 218.55951 
L 88.456806 220.776917 
L 88.781785 226.776082 
L 89.106765 225.008794 
L 89.431744 225.364324 
L 89.756724 195.288042 
L 90.081704 218.651708 
L 90.406683 220.923608 
L 90.731663 226.571203 
L 91.056642 227.255056 
L 91.381622 232.584352 
L 91.706601 232.713517 
L 92.031581 229.703689 
L 92.35656 234.429099 
L 92.68154 225.428056 
L 93.006519 230.766546 
L 93.331499 227.602019 
L 93.656478 233.870301 
L 93.981458 235.193881 
L 94.306437 231.419224 
L 94.631417 229.050289 
L 94.956396 230.237306 
L 95.281376 236.886708 
L 95.606355 241.035549 
L 95.931335 237.433219 
L 96.256314 232.496681 
L 96.581294 235.10231 
L 96.906274 240.554212 
L 97.231253 235.023699 
L 97.556233 223.061807 
L 97.881212 229.174868 
L 98.206192 237.675681 
L 98.531171 235.603356 
L 98.856151 241.227643 
L 99.18113 229.460634 
L 99.50611 238.08533 
L 99.831089 236.646934 
L 100.156069 225.912761 
L 100.481048 233.840357 
L 100.806028 233.882158 
L 101.131007 248.303145 
L 101.455987 240.799511 
L 101.780966 242.901961 
L 102.105946 251.399329 
L 102.430925 244.883633 
L 102.755905 243.325134 
L 103.080885 244.761357 
L 103.405864 227.691192 
L 103.730844 246.006078 
L 104.055823 230.708839 
L 104.380803 239.687651 
L 104.705782 228.251538 
L 105.030762 232.821847 
L 105.355741 240.558758 
L 105.680721 237.410575 
L 106.0057 243.80099 
L 106.33068 242.168721 
L 106.655659 248.246903 
L 106.980639 250.047204 
L 107.305618 245.341575 
L 107.630598 235.766552 
L 107.955577 250.498215 
L 108.280557 251.781376 
L 108.605536 248.125394 
L 108.930516 243.073574 
L 109.255495 240.65216 
L 109.580475 247.55679 
L 109.905455 242.920896 
L 110.230434 244.095156 
L 110.555414 246.700876 
L 110.880393 243.02491 
L 111.205373 242.422658 
L 111.855332 246.136842 
L 112.180311 243.536529 
L 112.505291 247.254535 
L 112.83027 248.705449 
L 113.15525 240.377251 
L 113.480229 241.321064 
L 113.805209 240.779391 
L 114.455168 251.025732 
L 114.780147 247.548256 
L 115.105127 239.997275 
L 116.080066 247.344087 
L 116.405045 244.632696 
L 116.730025 249.746598 
L 117.055004 247.720437 
L 117.379984 249.628774 
L 117.704963 244.064212 
L 118.029943 233.681966 
L 118.354922 192.401005 
L 118.679902 240.24559 
L 119.004881 240.2787 
L 119.329861 252.168136 
L 119.65484 248.427142 
L 119.97982 247.43623 
L 120.304799 242.384133 
L 120.629779 253.055323 
L 120.954758 241.760924 
L 121.279738 243.788274 
L 121.604717 238.070892 
L 121.929697 240.641047 
L 122.254676 255.070668 
L 122.579656 247.557724 
L 122.904636 250.445495 
L 123.229615 248.850782 
L 123.554595 239.814826 
L 123.879574 246.900474 
L 124.204554 246.113464 
L 124.529533 248.481787 
L 124.854513 246.496251 
L 125.179492 248.310397 
L 125.504472 239.326579 
L 125.829451 242.045469 
L 126.154431 234.964609 
L 126.47941 238.198763 
L 126.80439 255.619487 
L 127.129369 243.39315 
L 127.779328 254.102988 
L 128.104308 254.166472 
L 128.429287 247.935816 
L 129.079247 245.269094 
L 129.404226 242.603237 
L 129.729206 255.84516 
L 130.054185 244.34109 
L 130.379165 249.413276 
L 130.704144 251.487385 
L 131.029124 256.126998 
L 131.354103 244.255747 
L 131.679083 242.132882 
L 132.329042 253.003211 
L 132.654021 248.163349 
L 132.979001 258.841162 
L 133.30398 244.631391 
L 133.62896 253.047182 
L 133.953939 252.627869 
L 134.278919 252.751965 
L 134.603898 245.482684 
L 134.928878 248.239004 
L 135.578837 245.44164 
L 136.228796 251.483306 
L 136.553776 248.383209 
L 136.878755 252.167915 
L 137.203735 251.440733 
L 137.528714 242.856787 
L 137.853694 249.043398 
L 138.178673 250.061105 
L 138.503653 256.910876 
L 138.828632 256.889103 
L 139.153612 256.39463 
L 139.478591 243.940963 
L 139.803571 250.835 
L 140.12855 248.167411 
L 140.45353 255.442111 
L 140.778509 255.905486 
L 141.103489 257.818295 
L 141.428468 252.11801 
L 141.753448 253.796721 
L 142.078428 250.487828 
L 142.403407 252.356747 
L 142.728387 252.864084 
L 143.053366 249.972723 
L 143.378346 249.706968 
L 143.703325 251.248367 
L 144.028305 251.503651 
L 144.678264 254.876861 
L 145.003243 255.835678 
L 145.328223 253.26149 
L 145.653202 258.489575 
L 145.978182 243.04296 
L 146.303161 253.466238 
L 146.628141 254.334478 
L 146.95312 252.69807 
L 147.2781 254.141814 
L 147.603079 252.558725 
L 147.928059 259.565777 
L 148.578018 246.768377 
L 148.902998 246.469774 
L 149.227977 252.80246 
L 149.552957 252.426784 
L 149.877936 247.928851 
L 150.202916 252.814942 
L 150.527895 252.54827 
L 150.852875 248.916595 
L 151.177854 248.001178 
L 151.502834 252.842216 
L 151.827813 253.506452 
L 152.152793 256.156733 
L 152.477772 249.109181 
L 152.802752 262.77648 
L 153.127731 243.230867 
L 153.452711 248.882343 
L 153.77769 257.366215 
L 154.10267 249.729909 
L 154.427649 249.226037 
L 154.752629 241.596162 
L 155.077609 254.552295 
L 155.402588 255.889734 
L 155.727568 252.815221 
L 156.052547 259.822453 
L 156.377527 259.196558 
L 156.702506 250.856033 
L 157.027486 254.267238 
L 157.352465 247.367349 
L 157.677445 252.697291 
L 158.002424 249.127649 
L 158.327404 256.619945 
L 158.652383 248.224689 
L 158.977363 264.048424 
L 159.302342 250.988249 
L 159.627322 255.85819 
L 159.952301 252.986707 
L 160.277281 261.13272 
L 160.60226 262.696667 
L 160.92724 257.847073 
L 161.252219 249.737719 
L 161.577199 255.081746 
L 161.902179 250.553111 
L 162.227158 256.135408 
L 162.552138 265.162641 
L 162.877117 255.616594 
L 163.202097 259.821961 
L 163.527076 254.908924 
L 163.852056 265.563254 
L 164.502015 250.268658 
L 164.826994 248.120021 
L 165.151974 254.399507 
L 165.476953 256.770247 
L 165.801933 256.497603 
L 166.126912 258.351559 
L 166.451892 251.834825 
L 166.776871 240.636448 
L 167.101851 258.871829 
L 167.42683 257.507644 
L 167.75181 257.859583 
L 168.07679 253.245817 
L 168.401769 261.331297 
L 168.726749 258.817815 
L 169.051728 253.643159 
L 169.376708 257.545944 
L 170.026667 261.555431 
L 170.351646 257.61743 
L 170.676626 251.606605 
L 171.326585 259.740075 
L 171.651564 256.948131 
L 171.976544 255.358087 
L 172.301523 256.542622 
L 172.626503 259.768723 
L 172.951482 256.558045 
L 173.276462 258.702553 
L 173.601441 256.460822 
L 173.926421 253.223732 
L 174.2514 252.523224 
L 174.57638 259.102879 
L 174.90136 252.2616 
L 175.226339 259.592498 
L 175.551319 259.033706 
L 175.876298 262.403218 
L 176.201278 259.042056 
L 176.526257 259.466734 
L 176.851237 257.304991 
L 177.176216 259.763824 
L 177.501196 253.748872 
L 177.826175 256.463315 
L 178.151155 250.671119 
L 178.801114 257.294772 
L 179.126093 258.944962 
L 179.451073 255.949097 
L 179.776052 264.777696 
L 180.101032 255.138868 
L 180.426011 252.973276 
L 180.750991 254.508442 
L 181.075971 261.173111 
L 181.40095 254.423056 
L 181.72593 255.792645 
L 182.050909 252.208918 
L 183.025848 261.190538 
L 183.675807 249.487973 
L 184.000786 261.538332 
L 184.325766 261.103704 
L 184.650745 258.528705 
L 184.975725 254.050706 
L 185.300704 261.323669 
L 185.625684 264.120297 
L 185.950663 260.549078 
L 186.275643 261.788416 
L 186.600622 263.611788 
L 186.925602 259.116825 
L 187.250581 262.673093 
L 187.575561 264.409207 
L 187.900541 259.192784 
L 188.22552 249.418272 
L 188.875479 255.415461 
L 189.200459 252.994733 
L 189.525438 255.401415 
L 189.850418 262.278975 
L 190.175397 263.514767 
L 190.500377 254.692703 
L 190.825356 255.980738 
L 191.150336 263.135025 
L 191.475315 259.832583 
L 191.800295 262.064559 
L 192.125274 267.996923 
L 192.450254 261.911683 
L 192.775233 258.556639 
L 193.100213 266.888003 
L 193.425192 260.001941 
L 194.075152 257.520599 
L 194.400131 257.587698 
L 194.725111 262.061967 
L 195.05009 261.215569 
L 195.37507 270.775119 
L 195.700049 261.412558 
L 196.025029 259.631902 
L 196.350008 260.743547 
L 196.674988 268.834398 
L 196.999967 261.911105 
L 197.324947 261.041547 
L 197.649926 263.583999 
L 197.974906 256.815519 
L 198.299885 270.030061 
L 198.624865 255.545376 
L 198.949844 266.269301 
L 199.274824 258.289182 
L 199.599803 263.442449 
L 199.924783 265.381292 
L 200.249762 258.10953 
L 200.574742 266.482014 
L 200.899722 263.813271 
L 201.224701 257.470799 
L 201.549681 270.822158 
L 201.87466 265.378302 
L 202.19964 264.755539 
L 202.524619 261.037631 
L 202.849599 266.610178 
L 203.174578 254.776558 
L 203.499558 268.653781 
L 203.824537 262.266162 
L 204.149517 259.074376 
L 204.474496 268.390457 
L 204.799476 267.05141 
L 205.124455 267.537574 
L 205.449435 264.037127 
L 205.774414 278.723461 
L 206.099394 263.326059 
L 206.424373 267.628324 
L 206.749353 262.830314 
L 207.074333 267.860167 
L 207.399312 253.170248 
L 207.724292 257.312316 
L 208.049271 259.649177 
L 208.374251 258.774269 
L 208.69923 273.013437 
L 209.02421 250.894596 
L 209.349189 262.764732 
L 209.674169 268.487701 
L 209.999148 267.638572 
L 210.324128 263.380262 
L 210.649107 263.834105 
L 210.974087 263.013906 
L 211.299066 259.676712 
L 211.624046 267.462896 
L 211.949025 255.940995 
L 212.274005 266.135495 
L 212.598984 265.686933 
L 212.923964 271.896492 
L 213.573923 255.298155 
L 213.898903 261.87901 
L 214.223882 263.686425 
L 214.548862 267.029531 
L 215.198821 250.483828 
L 215.5238 270.88117 
L 215.84878 269.173231 
L 216.173759 251.182992 
L 216.498739 265.380398 
L 216.823718 265.713931 
L 217.148698 269.438978 
L 217.473677 271.697652 
L 217.798657 261.702275 
L 218.123636 266.182389 
L 218.448616 266.687307 
L 218.773595 265.606231 
L 219.098575 259.059396 
L 219.423554 270.741641 
L 219.748534 239.422692 
L 220.073514 265.340865 
L 220.398493 266.565563 
L 220.723473 268.991087 
L 221.048452 273.022855 
L 221.373432 271.54648 
L 221.698411 267.729035 
L 222.023391 276.851809 
L 222.34837 270.557326 
L 222.67335 267.338161 
L 222.998329 273.697275 
L 223.323309 271.72916 
L 223.648288 266.020779 
L 223.973268 265.966074 
L 224.298247 265.707435 
L 224.623227 268.468307 
L 224.948206 264.023747 
L 225.273186 268.69466 
L 225.598165 264.39753 
L 225.923145 263.147608 
L 226.248124 263.394944 
L 226.573104 258.36469 
L 226.898084 270.330733 
L 227.223063 262.578557 
L 227.548043 262.946818 
L 227.873022 269.246745 
L 228.198002 268.221424 
L 228.847961 276.525024 
L 229.17294 265.70452 
L 229.49792 263.838554 
L 229.822899 271.464408 
L 230.147879 275.612974 
L 230.472858 267.797993 
L 230.797838 266.339701 
L 231.122817 268.249917 
L 231.447797 259.826484 
L 231.772776 255.571824 
L 232.097756 269.745373 
L 232.422735 261.115827 
L 232.747715 267.29935 
L 233.072695 269.73845 
L 233.397674 269.702888 
L 233.722654 265.827813 
L 234.047633 258.211714 
L 234.372613 267.310952 
L 234.697592 266.165637 
L 235.347551 274.113629 
L 235.672531 273.113913 
L 235.99751 266.39917 
L 236.32249 264.945646 
L 236.647469 274.54747 
L 236.972449 250.765872 
L 237.297428 272.98546 
L 237.622408 271.23573 
L 237.947387 274.744436 
L 238.272367 269.829302 
L 238.597346 271.420734 
L 238.922326 260.413604 
L 239.247305 257.095784 
L 239.897265 275.788466 
L 240.547224 265.096819 
L 240.872203 268.487144 
L 241.197183 261.108126 
L 241.522162 270.37222 
L 241.847142 260.736527 
L 242.172121 271.614377 
L 242.497101 263.254961 
L 242.82208 260.988993 
L 243.14706 264.734989 
L 243.472039 264.084153 
L 243.797019 271.577148 
L 244.121998 258.832363 
L 244.446978 270.565463 
L 244.771957 272.077158 
L 245.096937 267.101817 
L 245.421916 267.955809 
L 245.746896 266.053352 
L 246.071876 260.825129 
L 246.396855 267.191228 
L 246.721835 260.092144 
L 247.046814 261.842828 
L 247.371794 269.793711 
L 247.696773 268.751892 
L 248.021753 269.251103 
L 248.346732 267.772683 
L 248.671712 253.60551 
L 248.996691 259.986594 
L 249.321671 275.620782 
L 249.64665 267.096855 
L 249.97163 269.629745 
L 250.296609 268.188867 
L 250.621589 267.29213 
L 250.946568 262.845789 
L 251.271548 269.41014 
L 251.596527 269.633405 
L 251.921507 267.074934 
L 252.246486 270.711211 
L 252.571466 264.222646 
L 252.896446 262.772006 
L 253.546405 272.432751 
L 253.871384 270.42434 
L 254.196364 260.895827 
L 254.521343 259.10732 
L 254.846323 264.254295 
L 255.171302 264.721311 
L 255.496282 263.400605 
L 255.821261 261.450026 
L 256.146241 261.351773 
L 256.47122 263.051734 
L 256.7962 266.624517 
L 257.121179 223.853286 
L 257.446159 267.202759 
L 257.771138 266.413891 
L 258.096118 270.797528 
L 258.421097 273.191191 
L 258.746077 271.786657 
L 259.396036 265.090751 
L 259.721016 264.465571 
L 260.045995 268.008915 
L 260.370975 269.37123 
L 260.695954 272.801546 
L 261.345913 262.438019 
L 261.670893 268.311153 
L 262.320852 260.793217 
L 262.645831 268.79693 
L 262.970811 271.442692 
L 263.62077 265.50471 
L 263.945749 273.853713 
L 264.270729 272.850776 
L 264.595708 265.488953 
L 264.920688 269.346113 
L 265.245667 264.118193 
L 265.570647 270.661086 
L 265.895627 265.686731 
L 266.220606 266.92873 
L 266.545586 269.29965 
L 266.870565 266.848484 
L 267.195545 262.350249 
L 267.520524 269.401918 
L 267.845504 269.077957 
L 268.170483 271.240265 
L 268.495463 263.500319 
L 268.820442 267.422381 
L 269.145422 263.602829 
L 270.12036 274.490219 
L 270.44534 273.272888 
L 270.770319 264.760922 
L 271.095299 272.170355 
L 271.420278 274.831501 
L 271.745258 264.316997 
L 272.070238 274.58432 
L 272.395217 269.1098 
L 272.720197 267.20967 
L 273.045176 274.310794 
L 273.370156 272.296967 
L 273.695135 268.604854 
L 274.020115 271.35739 
L 274.345094 265.539326 
L 274.670074 272.650137 
L 274.995053 271.254645 
L 275.645012 274.612771 
L 275.969992 274.981389 
L 276.294971 263.626485 
L 276.619951 271.409047 
L 276.94493 263.934011 
L 277.26991 264.711326 
L 277.594889 269.983276 
L 277.919869 263.294207 
L 278.244848 274.815831 
L 278.569828 269.303524 
L 278.894808 276.351655 
L 279.219787 266.53675 
L 279.544767 261.926767 
L 280.194726 265.363929 
L 280.519705 269.658671 
L 280.844685 270.164874 
L 281.169664 268.905314 
L 281.494644 258.039518 
L 281.819623 272.836742 
L 282.144603 273.746358 
L 282.469582 277.190613 
L 283.119541 267.723915 
L 283.444521 272.598929 
L 283.7695 260.768482 
L 284.09448 267.915445 
L 284.419459 256.013788 
L 284.744439 264.452 
L 285.069419 262.218564 
L 285.394398 269.213239 
L 285.719378 268.389861 
L 286.044357 275.287026 
L 286.369337 266.535973 
L 286.694316 273.932353 
L 287.019296 268.701484 
L 287.344275 268.347222 
L 287.669255 268.260827 
L 287.994234 267.352567 
L 288.319214 265.392211 
L 288.644193 264.227193 
L 288.969173 272.246424 
L 289.294152 262.521688 
L 289.944111 270.451929 
L 290.269091 262.881393 
L 290.59407 261.497226 
L 290.91905 262.130268 
L 291.244029 267.154167 
L 291.569009 263.366341 
L 291.893989 276.591472 
L 292.218968 265.078667 
L 292.543948 271.324165 
L 292.868927 266.815479 
L 293.193907 265.858166 
L 293.518886 270.178422 
L 293.843866 270.980188 
L 294.168845 274.098631 
L 294.493825 261.012823 
L 294.818804 259.402322 
L 295.143784 271.375048 
L 295.793743 267.138034 
L 296.118722 267.389717 
L 296.443702 273.509885 
L 296.768681 266.899683 
L 297.093661 268.979025 
L 297.41864 262.144261 
L 298.0686 273.030259 
L 298.393579 271.585425 
L 298.718559 268.344237 
L 299.043538 275.639316 
L 299.368518 277.395703 
L 299.693497 273.655961 
L 300.018477 271.718911 
L 300.343456 253.108184 
L 300.668436 270.583457 
L 300.993415 269.228813 
L 301.318395 267.307255 
L 301.643374 270.691055 
L 301.968354 263.817787 
L 302.293333 267.10065 
L 302.618313 266.799546 
L 302.943292 266.898289 
L 303.268272 268.560513 
L 303.593251 264.080051 
L 303.918231 263.072862 
L 304.24321 274.053146 
L 304.56819 274.797319 
L 304.89317 246.170296 
L 305.218149 266.189681 
L 305.543129 259.067757 
L 305.868108 264.758624 
L 306.193088 261.888784 
L 306.518067 262.415917 
L 306.843047 263.605704 
L 307.168026 266.589888 
L 307.493006 259.509657 
L 307.817985 275.014311 
L 308.142965 264.691988 
L 308.467944 264.650691 
L 309.117903 263.942198 
L 309.442883 260.798806 
L 309.767862 264.688008 
L 310.092842 262.85766 
L 310.417821 262.285271 
L 310.742801 270.819338 
L 311.067781 273.093647 
L 311.39276 266.217381 
L 311.71774 267.062536 
L 312.042719 272.579293 
L 312.367699 270.491394 
L 312.692678 275.665159 
L 313.017658 263.477553 
L 313.342637 257.255631 
L 313.667617 271.123794 
L 313.992596 257.94989 
L 314.317576 267.208128 
L 314.642555 270.810864 
L 314.967535 269.548597 
L 315.292514 264.498534 
L 315.617494 250.013304 
L 315.942473 265.974701 
L 316.267453 267.738587 
L 316.917412 276.194862 
L 317.242391 269.890618 
L 317.567371 266.105167 
L 317.892351 270.721675 
L 318.21733 268.424324 
L 318.54231 272.412396 
L 318.867289 268.111194 
L 319.192269 269.608862 
L 319.517248 264.108536 
L 319.842228 268.473393 
L 320.167207 270.37402 
L 320.492187 266.633273 
L 320.817166 271.712066 
L 321.142146 265.099529 
L 321.467125 274.299505 
L 321.792105 272.559936 
L 322.442064 260.866834 
L 322.767043 259.562188 
L 323.092023 272.944312 
L 323.741982 266.770772 
L 324.066962 272.988422 
L 324.391941 261.579437 
L 324.716921 272.079118 
L 325.0419 263.72331 
L 325.36688 271.110354 
L 325.691859 262.99464 
L 326.016839 268.998472 
L 326.341818 271.416192 
L 326.666798 267.488288 
L 326.991777 268.194388 
L 327.316757 262.948122 
L 327.641736 263.196918 
L 327.966716 265.363689 
L 328.291695 271.03732 
L 328.616675 272.067646 
L 328.941654 267.86664 
L 329.266634 267.121451 
L 329.591613 269.061331 
L 329.916593 262.917536 
L 330.241572 267.053765 
L 330.566552 266.625501 
L 330.891532 269.362292 
L 331.216511 264.698486 
L 331.541491 273.310858 
L 331.86647 270.708717 
L 332.19145 266.100861 
L 332.516429 273.723097 
L 332.841409 267.783912 
L 333.166388 251.464229 
L 333.491368 268.8564 
L 333.816347 263.260459 
L 334.141327 268.101726 
L 334.466306 268.869131 
L 334.791286 263.924731 
L 335.441245 269.745421 
L 335.766224 264.27841 
L 336.091204 273.720128 
L 336.416183 266.832408 
L 336.741163 270.862368 
L 337.066143 265.423051 
L 337.391122 267.818844 
L 337.716102 256.971978 
L 338.041081 279.959323 
L 338.366061 268.184123 
L 338.69104 268.557563 
L 339.01602 254.110473 
L 339.340999 272.789944 
L 339.665979 257.794907 
L 339.990958 273.571548 
L 340.315938 263.661281 
L 340.640917 261.884178 
L 340.965897 271.601728 
L 341.615856 267.792091 
L 341.940835 270.299162 
L 342.265815 267.077635 
L 342.590794 268.839767 
L 342.915774 266.6439 
L 343.240753 270.672221 
L 343.565733 265.380062 
L 343.890713 270.81684 
L 344.215692 267.925748 
L 344.540672 267.231205 
L 344.865651 273.391322 
L 345.190631 275.846693 
L 345.51561 273.676216 
L 345.84059 269.87536 
L 346.165569 274.218087 
L 346.490549 256.810697 
L 346.815528 267.036558 
L 347.140508 266.123026 
L 347.465487 263.470799 
L 347.790467 267.893934 
L 348.115446 270.683197 
L 348.440426 263.586464 
L 348.765405 261.365693 
L 349.090385 262.529811 
L 349.415364 261.371463 
L 349.740344 264.693418 
L 350.065324 264.667091 
L 350.390303 264.838241 
L 350.715283 263.503959 
L 351.040262 271.365392 
L 351.690221 276.148323 
L 352.015201 263.187915 
L 352.34018 271.332194 
L 352.66516 269.300974 
L 352.990139 270.924546 
L 353.315119 274.385954 
L 353.640098 265.085927 
L 353.965078 269.804579 
L 354.290057 272.827595 
L 354.615037 266.684955 
L 355.264996 272.90323 
L 355.589975 269.655152 
L 355.914955 260.045151 
L 356.239934 271.033028 
L 356.564914 263.175283 
L 357.214873 271.832493 
L 357.539853 259.643042 
L 357.864832 268.16568 
L 358.189812 257.821319 
L 358.514791 275.181886 
L 358.839771 270.04346 
L 359.16475 269.749692 
L 359.48973 261.702344 
L 359.814709 265.767832 
L 360.139689 262.519326 
L 360.464668 272.701968 
L 360.789648 265.286219 
L 361.114627 263.180029 
L 361.439607 275.417177 
L 361.764586 272.038467 
L 362.089566 270.955184 
L 362.414545 274.166374 
L 363.064505 266.599349 
L 363.389484 269.672078 
L 363.714464 265.800026 
L 364.364423 272.102728 
L 365.014382 257.188001 
L 365.339361 271.147909 
L 365.664341 266.406168 
L 365.98932 267.137489 
L 366.3143 278.375393 
L 366.639279 264.983504 
L 367.289238 269.400823 
L 367.614218 266.236528 
L 367.939197 261.976915 
L 368.264177 267.217548 
L 368.589156 275.486872 
L 368.914136 266.838365 
L 369.239115 274.185258 
L 369.889075 266.954474 
L 370.214054 256.218012 
L 370.539034 262.955862 
L 370.864013 263.11673 
L 371.188993 272.837244 
L 371.513972 265.810126 
L 371.838952 262.939237 
L 372.163931 273.171218 
L 372.488911 272.16432 
L 372.81389 264.968419 
L 373.13887 261.013519 
L 373.463849 269.803574 
L 373.788829 265.209964 
L 374.113808 264.472165 
L 374.438788 262.599693 
L 374.763767 262.879645 
L 375.088747 260.999078 
L 375.413726 271.896724 
L 375.738706 257.35934 
L 376.063686 262.591558 
L 376.388665 264.140059 
L 376.713645 272.239809 
L 377.038624 262.147099 
L 377.363604 268.559283 
L 377.688583 265.85412 
L 378.013563 265.397516 
L 378.338542 272.538717 
L 378.663522 270.689862 
L 378.988501 270.935275 
L 379.313481 262.15421 
L 379.63846 272.266702 
L 379.96344 275.208297 
L 380.288419 263.13739 
L 380.613399 272.014304 
L 380.938378 270.207077 
L 381.263358 276.326873 
L 381.588337 265.802151 
L 381.913317 261.980394 
L 382.238296 270.184764 
L 382.563276 268.303903 
L 382.888256 261.779984 
L 383.213235 260.660415 
L 383.863194 267.324817 
L 384.188174 259.058799 
L 384.513153 269.491529 
L 384.838133 275.253464 
L 385.163112 264.108063 
L 385.813071 271.883803 
L 386.138051 272.201652 
L 386.46303 261.796178 
L 386.78801 261.439673 
L 387.437969 266.60201 
L 387.762948 267.162632 
L 388.087928 264.011316 
L 388.412907 276.702886 
L 388.737887 268.741796 
L 389.062867 266.286329 
L 389.387846 269.336989 
L 389.712826 264.40549 
L 390.037805 257.364185 
L 390.362785 262.890079 
L 390.687764 273.834597 
L 391.012744 263.203107 
L 391.337723 269.976087 
L 391.662703 266.175589 
L 391.987682 269.481563 
L 392.312662 278.839262 
L 392.637641 263.981681 
L 392.962621 270.107929 
L 393.2876 264.168602 
L 393.61258 269.315527 
L 393.937559 264.970159 
L 394.262539 265.513715 
L 394.587518 267.399623 
L 394.912498 266.74 
L 395.237477 270.515222 
L 395.562457 262.094402 
L 395.887437 270.78486 
L 396.212416 270.14914 
L 396.537396 265.678582 
L 396.862375 268.347008 
L 397.187355 269.653241 
L 397.512334 268.48894 
L 397.837314 262.159075 
L 398.162293 269.707984 
L 398.487273 264.275004 
L 398.487273 264.275004 
" style="fill:none;stroke:#ff7f0e;stroke-linecap:square;stroke-width:1.5;"/>
   </g>
   <g id="patch_3">
    <path d="M 57.6 307.584 
L 57.6 41.472 
" style="fill:none;stroke:#000000;stroke-linecap:square;stroke-linejoin:miter;stroke-width:0.8;"/>
   </g>
   <g id="patch_4">
    <path d="M 414.72 307.584 
L 414.72 41.472 
" style="fill:none;stroke:#000000;stroke-linecap:square;stroke-linejoin:miter;stroke-width:0.8;"/>
   </g>
   <g id="patch_5">
    <path d="M 57.6 307.584 
L 414.72 307.584 
" style="fill:none;stroke:#000000;stroke-linecap:square;stroke-linejoin:miter;stroke-width:0.8;"/>
   </g>
   <g id="patch_6">
    <path d="M 57.6 41.472 
L 414.72 41.472 
" style="fill:none;stroke:#000000;stroke-linecap:square;stroke-linejoin:miter;stroke-width:0.8;"/>
   </g>
   <g id="legend_1">
    <g id="patch_7">
     <path d="M 303.845 78.82825 
L 407.72 78.82825 
Q 409.72 78.82825 409.72 76.82825 
L 409.72 48.472 
Q 409.72 46.472 407.72 46.472 
L 303.845 46.472 
Q 301.845 46.472 301.845 48.472 
L 301.845 76.82825 
Q 301.845 78.82825 303.845 78.82825 
z
" style="fill:#ffffff;opacity:0.8;stroke:#cccccc;stroke-linejoin:miter;"/>
    </g>
    <g id="line2d_15">
     <path d="M 305.845 54.570437 
L 325.845 54.570437 
" style="fill:none;stroke:#1f77b4;stroke-linecap:square;stroke-width:1.5;"/>
    </g>
    <g id="line2d_16"/>
    <g id="text_14">
     <!-- Train loss -->
     <g transform="translate(333.845 58.070437)scale(0.1 -0.1)">
      <defs>
       <path d="M -19 4666 
L 3928 4666 
L 3928 4134 
L 2272 4134 
L 2272 0 
L 1638 0 
L 1638 4134 
L -19 4134 
L -19 4666 
z
" id="DejaVuSans-54" transform="scale(0.015625)"/>
       <path d="M 2631 2963 
Q 2534 3019 2420 3045 
Q 2306 3072 2169 3072 
Q 1681 3072 1420 2755 
Q 1159 2438 1159 1844 
L 1159 0 
L 581 0 
L 581 3500 
L 1159 3500 
L 1159 2956 
Q 1341 3275 1631 3429 
Q 1922 3584 2338 3584 
Q 2397 3584 2469 3576 
Q 2541 3569 2628 3553 
L 2631 2963 
z
" id="DejaVuSans-72" transform="scale(0.015625)"/>
       <path d="M 2194 1759 
Q 1497 1759 1228 1600 
Q 959 1441 959 1056 
Q 959 750 1161 570 
Q 1363 391 1709 391 
Q 2188 391 2477 730 
Q 2766 1069 2766 1631 
L 2766 1759 
L 2194 1759 
z
M 3341 1997 
L 3341 0 
L 2766 0 
L 2766 531 
Q 2569 213 2275 61 
Q 1981 -91 1556 -91 
Q 1019 -91 701 211 
Q 384 513 384 1019 
Q 384 1609 779 1909 
Q 1175 2209 1959 2209 
L 2766 2209 
L 2766 2266 
Q 2766 2663 2505 2880 
Q 2244 3097 1772 3097 
Q 1472 3097 1187 3025 
Q 903 2953 641 2809 
L 641 3341 
Q 956 3463 1253 3523 
Q 1550 3584 1831 3584 
Q 2591 3584 2966 3190 
Q 3341 2797 3341 1997 
z
" id="DejaVuSans-61" transform="scale(0.015625)"/>
       <path d="M 603 3500 
L 1178 3500 
L 1178 0 
L 603 0 
L 603 3500 
z
M 603 4863 
L 1178 4863 
L 1178 4134 
L 603 4134 
L 603 4863 
z
" id="DejaVuSans-69" transform="scale(0.015625)"/>
       <path d="M 3513 2113 
L 3513 0 
L 2938 0 
L 2938 2094 
Q 2938 2591 2744 2837 
Q 2550 3084 2163 3084 
Q 1697 3084 1428 2787 
Q 1159 2491 1159 1978 
L 1159 0 
L 581 0 
L 581 3500 
L 1159 3500 
L 1159 2956 
Q 1366 3272 1645 3428 
Q 1925 3584 2291 3584 
Q 2894 3584 3203 3211 
Q 3513 2838 3513 2113 
z
" id="DejaVuSans-6e" transform="scale(0.015625)"/>
       <path id="DejaVuSans-20" transform="scale(0.015625)"/>
       <path d="M 603 4863 
L 1178 4863 
L 1178 0 
L 603 0 
L 603 4863 
z
" id="DejaVuSans-6c" transform="scale(0.015625)"/>
       <path d="M 2834 3397 
L 2834 2853 
Q 2591 2978 2328 3040 
Q 2066 3103 1784 3103 
Q 1356 3103 1142 2972 
Q 928 2841 928 2578 
Q 928 2378 1081 2264 
Q 1234 2150 1697 2047 
L 1894 2003 
Q 2506 1872 2764 1633 
Q 3022 1394 3022 966 
Q 3022 478 2636 193 
Q 2250 -91 1575 -91 
Q 1294 -91 989 -36 
Q 684 19 347 128 
L 347 722 
Q 666 556 975 473 
Q 1284 391 1588 391 
Q 1994 391 2212 530 
Q 2431 669 2431 922 
Q 2431 1156 2273 1281 
Q 2116 1406 1581 1522 
L 1381 1569 
Q 847 1681 609 1914 
Q 372 2147 372 2553 
Q 372 3047 722 3315 
Q 1072 3584 1716 3584 
Q 2034 3584 2315 3537 
Q 2597 3491 2834 3397 
z
" id="DejaVuSans-73" transform="scale(0.015625)"/>
      </defs>
      <use xlink:href="#DejaVuSans-54"/>
      <use x="46.333984" xlink:href="#DejaVuSans-72"/>
      <use x="87.447266" xlink:href="#DejaVuSans-61"/>
      <use x="148.726562" xlink:href="#DejaVuSans-69"/>
      <use x="176.509766" xlink:href="#DejaVuSans-6e"/>
      <use x="239.888672" xlink:href="#DejaVuSans-20"/>
      <use x="271.675781" xlink:href="#DejaVuSans-6c"/>
      <use x="299.458984" xlink:href="#DejaVuSans-6f"/>
      <use x="360.640625" xlink:href="#DejaVuSans-73"/>
      <use x="412.740234" xlink:href="#DejaVuSans-73"/>
     </g>
    </g>
    <g id="line2d_17">
     <path d="M 305.845 69.248562 
L 325.845 69.248562 
" style="fill:none;stroke:#ff7f0e;stroke-linecap:square;stroke-width:1.5;"/>
    </g>
    <g id="line2d_18"/>
    <g id="text_15">
     <!-- Validation loss -->
     <g transform="translate(333.845 72.748562)scale(0.1 -0.1)">
      <defs>
       <path d="M 1831 0 
L 50 4666 
L 709 4666 
L 2188 738 
L 3669 4666 
L 4325 4666 
L 2547 0 
L 1831 0 
z
" id="DejaVuSans-56" transform="scale(0.015625)"/>
       <path d="M 2906 2969 
L 2906 4863 
L 3481 4863 
L 3481 0 
L 2906 0 
L 2906 525 
Q 2725 213 2448 61 
Q 2172 -91 1784 -91 
Q 1150 -91 751 415 
Q 353 922 353 1747 
Q 353 2572 751 3078 
Q 1150 3584 1784 3584 
Q 2172 3584 2448 3432 
Q 2725 3281 2906 2969 
z
M 947 1747 
Q 947 1113 1208 752 
Q 1469 391 1925 391 
Q 2381 391 2643 752 
Q 2906 1113 2906 1747 
Q 2906 2381 2643 2742 
Q 2381 3103 1925 3103 
Q 1469 3103 1208 2742 
Q 947 2381 947 1747 
z
" id="DejaVuSans-64" transform="scale(0.015625)"/>
       <path d="M 1172 4494 
L 1172 3500 
L 2356 3500 
L 2356 3053 
L 1172 3053 
L 1172 1153 
Q 1172 725 1289 603 
Q 1406 481 1766 481 
L 2356 481 
L 2356 0 
L 1766 0 
Q 1100 0 847 248 
Q 594 497 594 1153 
L 594 3053 
L 172 3053 
L 172 3500 
L 594 3500 
L 594 4494 
L 1172 4494 
z
" id="DejaVuSans-74" transform="scale(0.015625)"/>
      </defs>
      <use xlink:href="#DejaVuSans-56"/>
      <use x="60.658203" xlink:href="#DejaVuSans-61"/>
      <use x="121.9375" xlink:href="#DejaVuSans-6c"/>
      <use x="149.720703" xlink:href="#DejaVuSans-69"/>
      <use x="177.503906" xlink:href="#DejaVuSans-64"/>
      <use x="240.980469" xlink:href="#DejaVuSans-61"/>
      <use x="302.259766" xlink:href="#DejaVuSans-74"/>
      <use x="341.46875" xlink:href="#DejaVuSans-69"/>
      <use x="369.251953" xlink:href="#DejaVuSans-6f"/>
      <use x="430.433594" xlink:href="#DejaVuSans-6e"/>
      <use x="493.8125" xlink:href="#DejaVuSans-20"/>
      <use x="525.599609" xlink:href="#DejaVuSans-6c"/>
      <use x="553.382812" xlink:href="#DejaVuSans-6f"/>
      <use x="614.564453" xlink:href="#DejaVuSans-73"/>
      <use x="666.664062" xlink:href="#DejaVuSans-73"/>
     </g>
    </g>
   </g>
  </g>
 </g>
 <defs>
  <clipPath id="pe616650a7b">
   <rect height="266.112" width="357.12" x="57.6" y="41.472"/>
  </clipPath>
 </defs>
</svg>
