<?xml version="1.0" encoding="utf-8" standalone="no"?>
<!DOCTYPE svg PUBLIC "-//W3C//DTD SVG 1.1//EN"
  "http://www.w3.org/Graphics/SVG/1.1/DTD/svg11.dtd">
<svg height="345.6pt" version="1.1" viewBox="0 0 460.8 345.6" width="460.8pt" xmlns="http://www.w3.org/2000/svg" xmlns:xlink="http://www.w3.org/1999/xlink">
 <metadata>
  <rdf:RDF xmlns:cc="http://creativecommons.org/ns#" xmlns:dc="http://purl.org/dc/elements/1.1/" xmlns:rdf="http://www.w3.org/1999/02/22-rdf-syntax-ns#">
   <cc:Work>
    <dc:type rdf:resource="http://purl.org/dc/dcmitype/StillImage"/>
    <dc:date>2021-07-19T13:00:29.460806</dc:date>
    <dc:format>image/svg+xml</dc:format>
    <dc:creator>
     <cc:Agent>
      <dc:title>Matplotlib v3.4.2, https://matplotlib.org/</dc:title>
     </cc:Agent>
    </dc:creator>
   </cc:Work>
  </rdf:RDF>
 </metadata>
 <defs>
  <style type="text/css">*{stroke-linecap:butt;stroke-linejoin:round;}</style>
 </defs>
 <g id="figure_1">
  <g id="patch_1">
   <path d="M 0 345.6 
L 460.8 345.6 
L 460.8 0 
L 0 0 
z
" style="fill:#ffffff;"/>
  </g>
  <g id="axes_1">
   <g id="patch_2">
    <path d="M 57.6 307.584 
L 414.72 307.584 
L 414.72 41.472 
L 57.6 41.472 
z
" style="fill:#ffffff;"/>
   </g>
   <g id="matplotlib.axis_1">
    <g id="xtick_1">
     <g id="line2d_1">
      <defs>
       <path d="M 0 0 
L 0 3.5 
" id="m88a62f986e" style="stroke:#000000;stroke-width:0.8;"/>
      </defs>
      <g>
       <use style="stroke:#000000;stroke-width:0.8;" x="73.507748" xlink:href="#m88a62f986e" y="307.584"/>
      </g>
     </g>
     <g id="text_1">
      <!-- 0 -->
      <g transform="translate(70.326498 322.182437)scale(0.1 -0.1)">
       <defs>
        <path d="M 2034 4250 
Q 1547 4250 1301 3770 
Q 1056 3291 1056 2328 
Q 1056 1369 1301 889 
Q 1547 409 2034 409 
Q 2525 409 2770 889 
Q 3016 1369 3016 2328 
Q 3016 3291 2770 3770 
Q 2525 4250 2034 4250 
z
M 2034 4750 
Q 2819 4750 3233 4129 
Q 3647 3509 3647 2328 
Q 3647 1150 3233 529 
Q 2819 -91 2034 -91 
Q 1250 -91 836 529 
Q 422 1150 422 2328 
Q 422 3509 836 4129 
Q 1250 4750 2034 4750 
z
" id="DejaVuSans-30" transform="scale(0.015625)"/>
       </defs>
       <use xlink:href="#DejaVuSans-30"/>
      </g>
     </g>
    </g>
    <g id="xtick_2">
     <g id="line2d_2">
      <g>
       <use style="stroke:#000000;stroke-width:0.8;" x="138.503653" xlink:href="#m88a62f986e" y="307.584"/>
      </g>
     </g>
     <g id="text_2">
      <!-- 200 -->
      <g transform="translate(128.959903 322.182437)scale(0.1 -0.1)">
       <defs>
        <path d="M 1228 531 
L 3431 531 
L 3431 0 
L 469 0 
L 469 531 
Q 828 903 1448 1529 
Q 2069 2156 2228 2338 
Q 2531 2678 2651 2914 
Q 2772 3150 2772 3378 
Q 2772 3750 2511 3984 
Q 2250 4219 1831 4219 
Q 1534 4219 1204 4116 
Q 875 4013 500 3803 
L 500 4441 
Q 881 4594 1212 4672 
Q 1544 4750 1819 4750 
Q 2544 4750 2975 4387 
Q 3406 4025 3406 3419 
Q 3406 3131 3298 2873 
Q 3191 2616 2906 2266 
Q 2828 2175 2409 1742 
Q 1991 1309 1228 531 
z
" id="DejaVuSans-32" transform="scale(0.015625)"/>
       </defs>
       <use xlink:href="#DejaVuSans-32"/>
       <use x="63.623047" xlink:href="#DejaVuSans-30"/>
       <use x="127.246094" xlink:href="#DejaVuSans-30"/>
      </g>
     </g>
    </g>
    <g id="xtick_3">
     <g id="line2d_3">
      <g>
       <use style="stroke:#000000;stroke-width:0.8;" x="203.499558" xlink:href="#m88a62f986e" y="307.584"/>
      </g>
     </g>
     <g id="text_3">
      <!-- 400 -->
      <g transform="translate(193.955808 322.182437)scale(0.1 -0.1)">
       <defs>
        <path d="M 2419 4116 
L 825 1625 
L 2419 1625 
L 2419 4116 
z
M 2253 4666 
L 3047 4666 
L 3047 1625 
L 3713 1625 
L 3713 1100 
L 3047 1100 
L 3047 0 
L 2419 0 
L 2419 1100 
L 313 1100 
L 313 1709 
L 2253 4666 
z
" id="DejaVuSans-34" transform="scale(0.015625)"/>
       </defs>
       <use xlink:href="#DejaVuSans-34"/>
       <use x="63.623047" xlink:href="#DejaVuSans-30"/>
       <use x="127.246094" xlink:href="#DejaVuSans-30"/>
      </g>
     </g>
    </g>
    <g id="xtick_4">
     <g id="line2d_4">
      <g>
       <use style="stroke:#000000;stroke-width:0.8;" x="268.495463" xlink:href="#m88a62f986e" y="307.584"/>
      </g>
     </g>
     <g id="text_4">
      <!-- 600 -->
      <g transform="translate(258.951713 322.182437)scale(0.1 -0.1)">
       <defs>
        <path d="M 2113 2584 
Q 1688 2584 1439 2293 
Q 1191 2003 1191 1497 
Q 1191 994 1439 701 
Q 1688 409 2113 409 
Q 2538 409 2786 701 
Q 3034 994 3034 1497 
Q 3034 2003 2786 2293 
Q 2538 2584 2113 2584 
z
M 3366 4563 
L 3366 3988 
Q 3128 4100 2886 4159 
Q 2644 4219 2406 4219 
Q 1781 4219 1451 3797 
Q 1122 3375 1075 2522 
Q 1259 2794 1537 2939 
Q 1816 3084 2150 3084 
Q 2853 3084 3261 2657 
Q 3669 2231 3669 1497 
Q 3669 778 3244 343 
Q 2819 -91 2113 -91 
Q 1303 -91 875 529 
Q 447 1150 447 2328 
Q 447 3434 972 4092 
Q 1497 4750 2381 4750 
Q 2619 4750 2861 4703 
Q 3103 4656 3366 4563 
z
" id="DejaVuSans-36" transform="scale(0.015625)"/>
       </defs>
       <use xlink:href="#DejaVuSans-36"/>
       <use x="63.623047" xlink:href="#DejaVuSans-30"/>
       <use x="127.246094" xlink:href="#DejaVuSans-30"/>
      </g>
     </g>
    </g>
    <g id="xtick_5">
     <g id="line2d_5">
      <g>
       <use style="stroke:#000000;stroke-width:0.8;" x="333.491368" xlink:href="#m88a62f986e" y="307.584"/>
      </g>
     </g>
     <g id="text_5">
      <!-- 800 -->
      <g transform="translate(323.947618 322.182437)scale(0.1 -0.1)">
       <defs>
        <path d="M 2034 2216 
Q 1584 2216 1326 1975 
Q 1069 1734 1069 1313 
Q 1069 891 1326 650 
Q 1584 409 2034 409 
Q 2484 409 2743 651 
Q 3003 894 3003 1313 
Q 3003 1734 2745 1975 
Q 2488 2216 2034 2216 
z
M 1403 2484 
Q 997 2584 770 2862 
Q 544 3141 544 3541 
Q 544 4100 942 4425 
Q 1341 4750 2034 4750 
Q 2731 4750 3128 4425 
Q 3525 4100 3525 3541 
Q 3525 3141 3298 2862 
Q 3072 2584 2669 2484 
Q 3125 2378 3379 2068 
Q 3634 1759 3634 1313 
Q 3634 634 3220 271 
Q 2806 -91 2034 -91 
Q 1263 -91 848 271 
Q 434 634 434 1313 
Q 434 1759 690 2068 
Q 947 2378 1403 2484 
z
M 1172 3481 
Q 1172 3119 1398 2916 
Q 1625 2713 2034 2713 
Q 2441 2713 2670 2916 
Q 2900 3119 2900 3481 
Q 2900 3844 2670 4047 
Q 2441 4250 2034 4250 
Q 1625 4250 1398 4047 
Q 1172 3844 1172 3481 
z
" id="DejaVuSans-38" transform="scale(0.015625)"/>
       </defs>
       <use xlink:href="#DejaVuSans-38"/>
       <use x="63.623047" xlink:href="#DejaVuSans-30"/>
       <use x="127.246094" xlink:href="#DejaVuSans-30"/>
      </g>
     </g>
    </g>
    <g id="xtick_6">
     <g id="line2d_6">
      <g>
       <use style="stroke:#000000;stroke-width:0.8;" x="398.487273" xlink:href="#m88a62f986e" y="307.584"/>
      </g>
     </g>
     <g id="text_6">
      <!-- 1000 -->
      <g transform="translate(385.762273 322.182437)scale(0.1 -0.1)">
       <defs>
        <path d="M 794 531 
L 1825 531 
L 1825 4091 
L 703 3866 
L 703 4441 
L 1819 4666 
L 2450 4666 
L 2450 531 
L 3481 531 
L 3481 0 
L 794 0 
L 794 531 
z
" id="DejaVuSans-31" transform="scale(0.015625)"/>
       </defs>
       <use xlink:href="#DejaVuSans-31"/>
       <use x="63.623047" xlink:href="#DejaVuSans-30"/>
       <use x="127.246094" xlink:href="#DejaVuSans-30"/>
       <use x="190.869141" xlink:href="#DejaVuSans-30"/>
      </g>
     </g>
    </g>
    <g id="text_7">
     <!-- Epoch -->
     <g transform="translate(213.193594 339.659781)scale(0.15 -0.15)">
      <defs>
       <path d="M 628 4666 
L 3578 4666 
L 3578 4134 
L 1259 4134 
L 1259 2753 
L 3481 2753 
L 3481 2222 
L 1259 2222 
L 1259 531 
L 3634 531 
L 3634 0 
L 628 0 
L 628 4666 
z
" id="DejaVuSans-45" transform="scale(0.015625)"/>
       <path d="M 1159 525 
L 1159 -1331 
L 581 -1331 
L 581 3500 
L 1159 3500 
L 1159 2969 
Q 1341 3281 1617 3432 
Q 1894 3584 2278 3584 
Q 2916 3584 3314 3078 
Q 3713 2572 3713 1747 
Q 3713 922 3314 415 
Q 2916 -91 2278 -91 
Q 1894 -91 1617 61 
Q 1341 213 1159 525 
z
M 3116 1747 
Q 3116 2381 2855 2742 
Q 2594 3103 2138 3103 
Q 1681 3103 1420 2742 
Q 1159 2381 1159 1747 
Q 1159 1113 1420 752 
Q 1681 391 2138 391 
Q 2594 391 2855 752 
Q 3116 1113 3116 1747 
z
" id="DejaVuSans-70" transform="scale(0.015625)"/>
       <path d="M 1959 3097 
Q 1497 3097 1228 2736 
Q 959 2375 959 1747 
Q 959 1119 1226 758 
Q 1494 397 1959 397 
Q 2419 397 2687 759 
Q 2956 1122 2956 1747 
Q 2956 2369 2687 2733 
Q 2419 3097 1959 3097 
z
M 1959 3584 
Q 2709 3584 3137 3096 
Q 3566 2609 3566 1747 
Q 3566 888 3137 398 
Q 2709 -91 1959 -91 
Q 1206 -91 779 398 
Q 353 888 353 1747 
Q 353 2609 779 3096 
Q 1206 3584 1959 3584 
z
" id="DejaVuSans-6f" transform="scale(0.015625)"/>
       <path d="M 3122 3366 
L 3122 2828 
Q 2878 2963 2633 3030 
Q 2388 3097 2138 3097 
Q 1578 3097 1268 2742 
Q 959 2388 959 1747 
Q 959 1106 1268 751 
Q 1578 397 2138 397 
Q 2388 397 2633 464 
Q 2878 531 3122 666 
L 3122 134 
Q 2881 22 2623 -34 
Q 2366 -91 2075 -91 
Q 1284 -91 818 406 
Q 353 903 353 1747 
Q 353 2603 823 3093 
Q 1294 3584 2113 3584 
Q 2378 3584 2631 3529 
Q 2884 3475 3122 3366 
z
" id="DejaVuSans-63" transform="scale(0.015625)"/>
       <path d="M 3513 2113 
L 3513 0 
L 2938 0 
L 2938 2094 
Q 2938 2591 2744 2837 
Q 2550 3084 2163 3084 
Q 1697 3084 1428 2787 
Q 1159 2491 1159 1978 
L 1159 0 
L 581 0 
L 581 4863 
L 1159 4863 
L 1159 2956 
Q 1366 3272 1645 3428 
Q 1925 3584 2291 3584 
Q 2894 3584 3203 3211 
Q 3513 2838 3513 2113 
z
" id="DejaVuSans-68" transform="scale(0.015625)"/>
      </defs>
      <use xlink:href="#DejaVuSans-45"/>
      <use x="63.183594" xlink:href="#DejaVuSans-70"/>
      <use x="126.660156" xlink:href="#DejaVuSans-6f"/>
      <use x="187.841797" xlink:href="#DejaVuSans-63"/>
      <use x="242.822266" xlink:href="#DejaVuSans-68"/>
     </g>
    </g>
   </g>
   <g id="matplotlib.axis_2">
    <g id="ytick_1">
     <g id="line2d_7">
      <defs>
       <path d="M 0 0 
L -3.5 0 
" id="mf6f16a5cad" style="stroke:#000000;stroke-width:0.8;"/>
      </defs>
      <g>
       <use style="stroke:#000000;stroke-width:0.8;" x="57.6" xlink:href="#mf6f16a5cad" y="307.584"/>
      </g>
     </g>
     <g id="text_8">
      <!-- 0.0 -->
      <g transform="translate(34.696875 311.383219)scale(0.1 -0.1)">
       <defs>
        <path d="M 684 794 
L 1344 794 
L 1344 0 
L 684 0 
L 684 794 
z
" id="DejaVuSans-2e" transform="scale(0.015625)"/>
       </defs>
       <use xlink:href="#DejaVuSans-30"/>
       <use x="63.623047" xlink:href="#DejaVuSans-2e"/>
       <use x="95.410156" xlink:href="#DejaVuSans-30"/>
      </g>
     </g>
    </g>
    <g id="ytick_2">
     <g id="line2d_8">
      <g>
       <use style="stroke:#000000;stroke-width:0.8;" x="57.6" xlink:href="#mf6f16a5cad" y="254.3616"/>
      </g>
     </g>
     <g id="text_9">
      <!-- 0.2 -->
      <g transform="translate(34.696875 258.160819)scale(0.1 -0.1)">
       <use xlink:href="#DejaVuSans-30"/>
       <use x="63.623047" xlink:href="#DejaVuSans-2e"/>
       <use x="95.410156" xlink:href="#DejaVuSans-32"/>
      </g>
     </g>
    </g>
    <g id="ytick_3">
     <g id="line2d_9">
      <g>
       <use style="stroke:#000000;stroke-width:0.8;" x="57.6" xlink:href="#mf6f16a5cad" y="201.1392"/>
      </g>
     </g>
     <g id="text_10">
      <!-- 0.4 -->
      <g transform="translate(34.696875 204.938419)scale(0.1 -0.1)">
       <use xlink:href="#DejaVuSans-30"/>
       <use x="63.623047" xlink:href="#DejaVuSans-2e"/>
       <use x="95.410156" xlink:href="#DejaVuSans-34"/>
      </g>
     </g>
    </g>
    <g id="ytick_4">
     <g id="line2d_10">
      <g>
       <use style="stroke:#000000;stroke-width:0.8;" x="57.6" xlink:href="#mf6f16a5cad" y="147.9168"/>
      </g>
     </g>
     <g id="text_11">
      <!-- 0.6 -->
      <g transform="translate(34.696875 151.716019)scale(0.1 -0.1)">
       <use xlink:href="#DejaVuSans-30"/>
       <use x="63.623047" xlink:href="#DejaVuSans-2e"/>
       <use x="95.410156" xlink:href="#DejaVuSans-36"/>
      </g>
     </g>
    </g>
    <g id="ytick_5">
     <g id="line2d_11">
      <g>
       <use style="stroke:#000000;stroke-width:0.8;" x="57.6" xlink:href="#mf6f16a5cad" y="94.6944"/>
      </g>
     </g>
     <g id="text_12">
      <!-- 0.8 -->
      <g transform="translate(34.696875 98.493619)scale(0.1 -0.1)">
       <use xlink:href="#DejaVuSans-30"/>
       <use x="63.623047" xlink:href="#DejaVuSans-2e"/>
       <use x="95.410156" xlink:href="#DejaVuSans-38"/>
      </g>
     </g>
    </g>
    <g id="ytick_6">
     <g id="line2d_12">
      <g>
       <use style="stroke:#000000;stroke-width:0.8;" x="57.6" xlink:href="#mf6f16a5cad" y="41.472"/>
      </g>
     </g>
     <g id="text_13">
      <!-- 1.0 -->
      <g transform="translate(34.696875 45.271219)scale(0.1 -0.1)">
       <use xlink:href="#DejaVuSans-31"/>
       <use x="63.623047" xlink:href="#DejaVuSans-2e"/>
       <use x="95.410156" xlink:href="#DejaVuSans-30"/>
      </g>
     </g>
    </g>
    <g id="text_14">
     <!-- Accuracy -->
     <g transform="translate(27.577344 208.770187)rotate(-90)scale(0.15 -0.15)">
      <defs>
       <path d="M 2188 4044 
L 1331 1722 
L 3047 1722 
L 2188 4044 
z
M 1831 4666 
L 2547 4666 
L 4325 0 
L 3669 0 
L 3244 1197 
L 1141 1197 
L 716 0 
L 50 0 
L 1831 4666 
z
" id="DejaVuSans-41" transform="scale(0.015625)"/>
       <path d="M 544 1381 
L 544 3500 
L 1119 3500 
L 1119 1403 
Q 1119 906 1312 657 
Q 1506 409 1894 409 
Q 2359 409 2629 706 
Q 2900 1003 2900 1516 
L 2900 3500 
L 3475 3500 
L 3475 0 
L 2900 0 
L 2900 538 
Q 2691 219 2414 64 
Q 2138 -91 1772 -91 
Q 1169 -91 856 284 
Q 544 659 544 1381 
z
M 1991 3584 
L 1991 3584 
z
" id="DejaVuSans-75" transform="scale(0.015625)"/>
       <path d="M 2631 2963 
Q 2534 3019 2420 3045 
Q 2306 3072 2169 3072 
Q 1681 3072 1420 2755 
Q 1159 2438 1159 1844 
L 1159 0 
L 581 0 
L 581 3500 
L 1159 3500 
L 1159 2956 
Q 1341 3275 1631 3429 
Q 1922 3584 2338 3584 
Q 2397 3584 2469 3576 
Q 2541 3569 2628 3553 
L 2631 2963 
z
" id="DejaVuSans-72" transform="scale(0.015625)"/>
       <path d="M 2194 1759 
Q 1497 1759 1228 1600 
Q 959 1441 959 1056 
Q 959 750 1161 570 
Q 1363 391 1709 391 
Q 2188 391 2477 730 
Q 2766 1069 2766 1631 
L 2766 1759 
L 2194 1759 
z
M 3341 1997 
L 3341 0 
L 2766 0 
L 2766 531 
Q 2569 213 2275 61 
Q 1981 -91 1556 -91 
Q 1019 -91 701 211 
Q 384 513 384 1019 
Q 384 1609 779 1909 
Q 1175 2209 1959 2209 
L 2766 2209 
L 2766 2266 
Q 2766 2663 2505 2880 
Q 2244 3097 1772 3097 
Q 1472 3097 1187 3025 
Q 903 2953 641 2809 
L 641 3341 
Q 956 3463 1253 3523 
Q 1550 3584 1831 3584 
Q 2591 3584 2966 3190 
Q 3341 2797 3341 1997 
z
" id="DejaVuSans-61" transform="scale(0.015625)"/>
       <path d="M 2059 -325 
Q 1816 -950 1584 -1140 
Q 1353 -1331 966 -1331 
L 506 -1331 
L 506 -850 
L 844 -850 
Q 1081 -850 1212 -737 
Q 1344 -625 1503 -206 
L 1606 56 
L 191 3500 
L 800 3500 
L 1894 763 
L 2988 3500 
L 3597 3500 
L 2059 -325 
z
" id="DejaVuSans-79" transform="scale(0.015625)"/>
      </defs>
      <use xlink:href="#DejaVuSans-41"/>
      <use x="66.658203" xlink:href="#DejaVuSans-63"/>
      <use x="121.638672" xlink:href="#DejaVuSans-63"/>
      <use x="176.619141" xlink:href="#DejaVuSans-75"/>
      <use x="239.998047" xlink:href="#DejaVuSans-72"/>
      <use x="281.111328" xlink:href="#DejaVuSans-61"/>
      <use x="342.390625" xlink:href="#DejaVuSans-63"/>
      <use x="397.371094" xlink:href="#DejaVuSans-79"/>
     </g>
    </g>
   </g>
   <g id="line2d_13">
    <path clip-path="url(#p07af1c6565)" d="M 73.832727 282.30336 
L 74.157707 287.6256 
L 74.482686 284.96448 
L 74.807666 279.64224 
L 75.132645 286.29504 
L 75.457625 282.30336 
L 75.782604 284.96448 
L 76.107584 275.65056 
L 76.432563 282.30336 
L 76.757543 278.31168 
L 77.082523 276.98112 
L 77.407502 283.63392 
L 77.732482 286.29504 
L 78.057461 280.9728 
L 79.357379 280.9728 
L 79.682359 279.64224 
L 80.007338 282.30336 
L 80.332318 280.9728 
L 80.657297 282.30336 
L 80.982277 282.30336 
L 81.307256 284.96448 
L 81.632236 291.61728 
L 81.957215 280.9728 
L 82.282195 284.96448 
L 82.607174 276.98112 
L 82.932154 283.63392 
L 83.257133 279.64224 
L 83.582113 288.95616 
L 83.907093 292.94784 
L 84.232072 278.31168 
L 84.557052 283.63392 
L 84.882031 282.30336 
L 85.207011 284.96448 
L 85.53199 278.31168 
L 85.85697 282.30336 
L 86.181949 275.65056 
L 86.506929 271.65888 
L 86.831908 265.00608 
L 87.156888 274.32 
L 87.806847 263.67552 
L 88.131826 262.34496 
L 88.456806 258.35328 
L 88.781785 268.99776 
L 89.106765 270.32832 
L 89.431744 259.68384 
L 89.756724 253.03104 
L 90.081704 253.03104 
L 90.406683 254.3616 
L 90.731663 249.03936 
L 91.056642 258.35328 
L 91.381622 261.0144 
L 91.706601 253.03104 
L 92.031581 266.33664 
L 92.35656 251.70048 
L 92.68154 255.69216 
L 93.006519 251.70048 
L 93.331499 261.0144 
L 93.656478 255.69216 
L 93.981458 247.7088 
L 94.306437 254.3616 
L 94.631417 247.7088 
L 94.956396 247.7088 
L 95.281376 254.3616 
L 95.931335 249.03936 
L 96.256314 243.71712 
L 96.581294 254.3616 
L 96.906274 241.056 
L 97.231253 241.056 
L 97.556233 245.04768 
L 97.881212 243.71712 
L 98.206192 247.7088 
L 98.531171 243.71712 
L 98.856151 251.70048 
L 99.18113 255.69216 
L 99.50611 237.06432 
L 99.831089 262.34496 
L 100.156069 234.4032 
L 100.481048 254.3616 
L 100.806028 245.04768 
L 101.131007 242.38656 
L 101.455987 245.04768 
L 101.780966 238.39488 
L 102.105946 249.03936 
L 102.755905 233.07264 
L 103.080885 247.7088 
L 103.405864 243.71712 
L 103.730844 247.7088 
L 104.055823 238.39488 
L 104.380803 239.72544 
L 104.705782 234.4032 
L 105.030762 233.07264 
L 105.680721 246.37824 
L 106.33068 246.37824 
L 106.655659 235.73376 
L 106.980639 233.07264 
L 107.630598 238.39488 
L 107.955577 237.06432 
L 108.280557 223.75872 
L 108.605536 235.73376 
L 108.930516 231.74208 
L 109.255495 239.72544 
L 109.580475 231.74208 
L 109.905455 235.73376 
L 110.230434 227.7504 
L 110.880393 237.06432 
L 111.205373 230.41152 
L 111.530352 230.41152 
L 111.855332 249.03936 
L 112.180311 241.056 
L 112.505291 238.39488 
L 112.83027 229.08096 
L 113.15525 237.06432 
L 113.480229 223.75872 
L 113.805209 237.06432 
L 114.130188 222.42816 
L 114.455168 231.74208 
L 114.780147 234.4032 
L 115.105127 226.41984 
L 115.430106 230.41152 
L 115.755086 225.08928 
L 116.080066 215.77536 
L 116.730025 222.42816 
L 117.055004 235.73376 
L 117.379984 217.10592 
L 117.704963 219.76704 
L 118.029943 223.75872 
L 118.354922 223.75872 
L 118.679902 219.76704 
L 119.004881 223.75872 
L 119.329861 230.41152 
L 119.65484 217.10592 
L 119.97982 218.43648 
L 120.304799 223.75872 
L 120.629779 222.42816 
L 120.954758 222.42816 
L 121.279738 226.41984 
L 121.604717 215.77536 
L 121.929697 211.78368 
L 122.254676 215.77536 
L 122.579656 210.45312 
L 123.229615 222.42816 
L 123.554595 197.14752 
L 123.879574 206.46144 
L 124.204554 209.12256 
L 124.529533 215.77536 
L 124.854513 217.10592 
L 125.179492 207.792 
L 125.504472 218.43648 
L 126.154431 203.80032 
L 126.47941 205.13088 
L 126.80439 205.13088 
L 127.129369 201.1392 
L 127.454349 203.80032 
L 127.779328 199.80864 
L 128.104308 201.1392 
L 128.429287 201.1392 
L 128.754267 193.15584 
L 129.079247 194.4864 
L 129.404226 205.13088 
L 129.729206 183.84192 
L 130.054185 210.45312 
L 130.379165 175.85856 
L 130.704144 194.4864 
L 131.029124 190.49472 
L 131.354103 191.82528 
L 131.679083 190.49472 
L 132.004062 186.50304 
L 132.329042 186.50304 
L 132.654021 178.51968 
L 132.979001 191.82528 
L 133.30398 175.85856 
L 133.62896 181.1808 
L 133.953939 189.16416 
L 134.278919 181.1808 
L 134.603898 177.18912 
L 134.928878 170.53632 
L 135.253857 173.19744 
L 135.578837 179.85024 
L 135.903817 179.85024 
L 136.228796 178.51968 
L 136.553776 183.84192 
L 136.878755 170.53632 
L 137.203735 162.55296 
L 137.528714 159.89184 
L 137.853694 177.18912 
L 138.178673 170.53632 
L 138.503653 181.1808 
L 138.828632 171.86688 
L 139.153612 167.8752 
L 139.478591 154.5696 
L 139.803571 170.53632 
L 140.12855 157.23072 
L 140.45353 165.21408 
L 140.778509 158.56128 
L 141.103489 169.20576 
L 141.428468 155.90016 
L 141.753448 157.23072 
L 142.078428 174.528 
L 142.403407 149.24736 
L 142.728387 151.90848 
L 143.053366 165.21408 
L 143.703325 138.60288 
L 144.028305 137.27232 
L 144.353284 134.6112 
L 144.678264 130.61952 
L 145.328223 118.64448 
L 145.978182 153.23904 
L 146.303161 149.24736 
L 146.628141 126.62784 
L 146.95312 131.95008 
L 147.2781 125.29728 
L 147.603079 143.92512 
L 147.928059 137.27232 
L 148.253038 123.96672 
L 148.578018 127.9584 
L 148.902998 141.264 
L 149.227977 133.28064 
L 149.552957 118.64448 
L 149.877936 114.6528 
L 150.202916 142.59456 
L 150.527895 131.95008 
L 150.852875 115.98336 
L 151.177854 125.29728 
L 151.502834 115.98336 
L 151.827813 113.32224 
L 152.152793 126.62784 
L 152.477772 121.3056 
L 152.802752 118.64448 
L 153.127731 105.33888 
L 153.452711 111.99168 
L 153.77769 111.99168 
L 154.10267 122.63616 
L 154.427649 123.96672 
L 154.752629 117.31392 
L 155.077609 118.64448 
L 155.402588 109.33056 
L 155.727568 121.3056 
L 156.052547 114.6528 
L 156.377527 111.99168 
L 156.702506 98.68608 
L 157.027486 109.33056 
L 157.352465 104.00832 
L 157.677445 109.33056 
L 158.002424 101.3472 
L 158.327404 118.64448 
L 158.652383 94.6944 
L 159.302342 105.33888 
L 159.627322 96.02496 
L 159.952301 106.66944 
L 160.277281 92.03328 
L 160.60226 105.33888 
L 160.92724 94.6944 
L 161.252219 106.66944 
L 161.577199 105.33888 
L 161.902179 106.66944 
L 162.227158 105.33888 
L 162.552138 85.38048 
L 162.877117 92.03328 
L 163.202097 88.0416 
L 163.527076 96.02496 
L 163.852056 108 
L 164.177035 88.0416 
L 164.502015 101.3472 
L 164.826994 94.6944 
L 165.151974 100.01664 
L 165.476953 73.40544 
L 166.126912 97.35552 
L 166.451892 78.72768 
L 166.776871 92.03328 
L 167.101851 98.68608 
L 167.42683 100.01664 
L 167.75181 81.3888 
L 168.07679 94.6944 
L 168.401769 78.72768 
L 168.726749 77.39712 
L 169.051728 97.35552 
L 169.376708 96.02496 
L 169.701687 92.03328 
L 170.026667 92.03328 
L 170.351646 94.6944 
L 171.001605 74.736 
L 171.651564 93.36384 
L 172.301523 100.01664 
L 172.951482 76.06656 
L 173.276462 81.3888 
L 173.601441 77.39712 
L 173.926421 98.68608 
L 174.2514 92.03328 
L 174.57638 101.3472 
L 174.90136 76.06656 
L 175.226339 90.70272 
L 175.551319 89.37216 
L 175.876298 86.71104 
L 176.201278 89.37216 
L 176.526257 69.41376 
L 176.851237 93.36384 
L 177.176216 86.71104 
L 177.501196 69.41376 
L 177.826175 85.38048 
L 178.151155 90.70272 
L 178.476134 86.71104 
L 178.801114 97.35552 
L 179.126093 80.05824 
L 179.451073 77.39712 
L 179.776052 81.3888 
L 180.101032 80.05824 
L 180.426011 86.71104 
L 180.750991 90.70272 
L 181.075971 86.71104 
L 181.40095 77.39712 
L 182.050909 77.39712 
L 182.375889 81.3888 
L 182.700868 89.37216 
L 183.025848 92.03328 
L 183.350827 76.06656 
L 183.675807 70.74432 
L 184.000786 80.05824 
L 184.325766 77.39712 
L 184.650745 73.40544 
L 184.975725 86.71104 
L 185.300704 80.05824 
L 185.625684 96.02496 
L 185.950663 68.0832 
L 186.275643 78.72768 
L 186.600622 80.05824 
L 186.925602 78.72768 
L 187.250581 88.0416 
L 187.575561 66.75264 
L 187.900541 65.42208 
L 188.22552 88.0416 
L 188.5505 73.40544 
L 188.875479 94.6944 
L 189.200459 69.41376 
L 189.850418 81.3888 
L 190.175397 69.41376 
L 190.500377 82.71936 
L 190.825356 68.0832 
L 191.150336 66.75264 
L 191.800295 69.41376 
L 192.450254 89.37216 
L 192.775233 68.0832 
L 193.100213 73.40544 
L 193.425192 68.0832 
L 193.750172 76.06656 
L 194.075152 77.39712 
L 194.400131 80.05824 
L 194.725111 76.06656 
L 195.05009 78.72768 
L 195.37507 90.70272 
L 195.700049 66.75264 
L 196.025029 66.75264 
L 196.350008 72.07488 
L 196.674988 60.09984 
L 196.999967 84.04992 
L 197.324947 65.42208 
L 197.649926 76.06656 
L 197.974906 81.3888 
L 198.624865 65.42208 
L 198.949844 64.09152 
L 199.274824 84.04992 
L 199.599803 76.06656 
L 199.924783 78.72768 
L 200.249762 80.05824 
L 200.574742 80.05824 
L 200.899722 73.40544 
L 201.224701 70.74432 
L 201.549681 86.71104 
L 201.87466 86.71104 
L 202.19964 77.39712 
L 202.524619 72.07488 
L 202.849599 56.10816 
L 203.174578 82.71936 
L 203.499558 65.42208 
L 203.824537 74.736 
L 204.149517 78.72768 
L 204.474496 96.02496 
L 204.799476 60.09984 
L 205.124455 70.74432 
L 205.449435 64.09152 
L 205.774414 66.75264 
L 206.099394 81.3888 
L 206.424373 77.39712 
L 206.749353 80.05824 
L 207.074333 69.41376 
L 207.399312 74.736 
L 207.724292 72.07488 
L 208.374251 64.09152 
L 208.69923 76.06656 
L 209.02421 66.75264 
L 209.349189 69.41376 
L 209.674169 76.06656 
L 209.999148 68.0832 
L 210.324128 77.39712 
L 210.649107 69.41376 
L 210.974087 72.07488 
L 211.299066 72.07488 
L 211.624046 85.38048 
L 211.949025 64.09152 
L 212.274005 77.39712 
L 212.598984 76.06656 
L 212.923964 80.05824 
L 213.248943 77.39712 
L 213.573923 57.43872 
L 213.898903 77.39712 
L 214.223882 62.76096 
L 214.548862 84.04992 
L 215.198821 70.74432 
L 215.5238 69.41376 
L 215.84878 82.71936 
L 216.173759 69.41376 
L 216.823718 85.38048 
L 217.148698 64.09152 
L 217.473677 68.0832 
L 217.798657 86.71104 
L 218.123636 62.76096 
L 218.773595 80.05824 
L 219.098575 86.71104 
L 219.423554 70.74432 
L 219.748534 82.71936 
L 220.073514 84.04992 
L 220.398493 66.75264 
L 220.723473 65.42208 
L 221.048452 58.76928 
L 221.373432 65.42208 
L 221.698411 62.76096 
L 222.023391 72.07488 
L 222.34837 76.06656 
L 222.67335 69.41376 
L 222.998329 56.10816 
L 223.323309 82.71936 
L 223.648288 72.07488 
L 223.973268 69.41376 
L 224.298247 65.42208 
L 224.623227 72.07488 
L 224.948206 60.09984 
L 225.273186 76.06656 
L 225.598165 65.42208 
L 225.923145 64.09152 
L 226.248124 70.74432 
L 226.573104 64.09152 
L 226.898084 60.09984 
L 227.223063 74.736 
L 227.548043 64.09152 
L 227.873022 77.39712 
L 228.198002 81.3888 
L 228.522981 69.41376 
L 228.847961 68.0832 
L 229.17294 65.42208 
L 229.49792 65.42208 
L 229.822899 64.09152 
L 230.147879 66.75264 
L 230.472858 62.76096 
L 230.797838 64.09152 
L 231.122817 56.10816 
L 231.447797 73.40544 
L 231.772776 74.736 
L 232.097756 61.4304 
L 232.422735 57.43872 
L 232.747715 58.76928 
L 233.397674 81.3888 
L 233.722654 68.0832 
L 234.047633 78.72768 
L 234.372613 69.41376 
L 234.697592 82.71936 
L 235.022572 81.3888 
L 235.347551 70.74432 
L 235.672531 69.41376 
L 235.99751 73.40544 
L 236.32249 64.09152 
L 236.647469 65.42208 
L 236.972449 69.41376 
L 237.297428 62.76096 
L 237.622408 64.09152 
L 237.947387 69.41376 
L 238.272367 60.09984 
L 238.597346 60.09984 
L 238.922326 65.42208 
L 239.247305 61.4304 
L 239.572285 61.4304 
L 239.897265 70.74432 
L 240.222244 69.41376 
L 240.547224 72.07488 
L 240.872203 72.07488 
L 241.197183 65.42208 
L 241.522162 73.40544 
L 241.847142 74.736 
L 242.172121 82.71936 
L 242.497101 66.75264 
L 242.82208 64.09152 
L 243.14706 80.05824 
L 243.472039 65.42208 
L 243.797019 66.75264 
L 244.121998 64.09152 
L 244.446978 60.09984 
L 244.771957 60.09984 
L 245.096937 69.41376 
L 245.421916 68.0832 
L 245.746896 61.4304 
L 246.071876 82.71936 
L 246.396855 72.07488 
L 247.046814 62.76096 
L 247.371794 68.0832 
L 247.696773 69.41376 
L 248.021753 76.06656 
L 248.346732 65.42208 
L 248.671712 70.74432 
L 248.996691 65.42208 
L 249.64665 62.76096 
L 249.97163 81.3888 
L 250.946568 56.10816 
L 251.271548 61.4304 
L 251.596527 60.09984 
L 251.921507 72.07488 
L 252.246486 66.75264 
L 252.571466 66.75264 
L 252.896446 76.06656 
L 253.221425 69.41376 
L 253.546405 78.72768 
L 253.871384 66.75264 
L 254.196364 62.76096 
L 254.521343 66.75264 
L 254.846323 66.75264 
L 255.171302 70.74432 
L 255.821261 58.76928 
L 256.146241 69.41376 
L 256.47122 61.4304 
L 256.7962 68.0832 
L 257.121179 64.09152 
L 257.446159 84.04992 
L 257.771138 76.06656 
L 258.096118 74.736 
L 258.746077 65.42208 
L 259.071057 69.41376 
L 259.396036 62.76096 
L 259.721016 69.41376 
L 260.045995 73.40544 
L 260.370975 70.74432 
L 260.695954 56.10816 
L 261.020934 78.72768 
L 261.345913 60.09984 
L 261.670893 78.72768 
L 262.320852 54.7776 
L 262.645831 56.10816 
L 262.970811 46.79424 
L 263.62077 64.09152 
L 264.270729 69.41376 
L 264.920688 58.76928 
L 265.245667 56.10816 
L 265.570647 62.76096 
L 266.220606 69.41376 
L 266.545586 72.07488 
L 266.870565 50.78592 
L 267.520524 69.41376 
L 267.845504 72.07488 
L 268.170483 69.41376 
L 268.495463 77.39712 
L 268.820442 57.43872 
L 269.145422 66.75264 
L 269.470401 57.43872 
L 270.12036 66.75264 
L 270.44534 49.45536 
L 270.770319 68.0832 
L 271.095299 66.75264 
L 271.745258 53.44704 
L 272.070238 60.09984 
L 272.395217 64.09152 
L 273.045176 50.78592 
L 273.370156 58.76928 
L 273.695135 61.4304 
L 274.020115 70.74432 
L 274.345094 61.4304 
L 274.670074 72.07488 
L 274.995053 54.7776 
L 275.320033 62.76096 
L 275.645012 62.76096 
L 275.969992 60.09984 
L 276.294971 60.09984 
L 276.619951 58.76928 
L 276.94493 54.7776 
L 277.26991 56.10816 
L 277.594889 50.78592 
L 278.244848 72.07488 
L 278.569828 64.09152 
L 278.894808 76.06656 
L 279.219787 53.44704 
L 279.544767 62.76096 
L 279.869746 62.76096 
L 280.194726 49.45536 
L 280.519705 70.74432 
L 280.844685 56.10816 
L 281.169664 52.11648 
L 281.494644 65.42208 
L 281.819623 70.74432 
L 282.469582 65.42208 
L 283.119541 57.43872 
L 283.444521 61.4304 
L 283.7695 81.3888 
L 284.09448 72.07488 
L 284.419459 69.41376 
L 284.744439 61.4304 
L 285.069419 62.76096 
L 285.394398 58.76928 
L 286.044357 74.736 
L 286.369337 58.76928 
L 286.694316 60.09984 
L 287.019296 70.74432 
L 287.344275 69.41376 
L 287.669255 76.06656 
L 287.994234 52.11648 
L 288.319214 74.736 
L 288.644193 60.09984 
L 288.969173 65.42208 
L 289.294152 78.72768 
L 289.944111 61.4304 
L 290.59407 68.0832 
L 291.569009 57.43872 
L 291.893989 65.42208 
L 292.218968 53.44704 
L 292.543948 70.74432 
L 292.868927 76.06656 
L 293.193907 72.07488 
L 293.518886 61.4304 
L 293.843866 73.40544 
L 294.168845 61.4304 
L 294.493825 65.42208 
L 294.818804 52.11648 
L 295.143784 77.39712 
L 295.468763 54.7776 
L 295.793743 52.11648 
L 296.443702 72.07488 
L 296.768681 54.7776 
L 297.093661 73.40544 
L 297.41864 53.44704 
L 297.74362 56.10816 
L 298.0686 81.3888 
L 298.393579 62.76096 
L 298.718559 56.10816 
L 299.043538 53.44704 
L 299.368518 64.09152 
L 299.693497 60.09984 
L 300.018477 85.38048 
L 300.343456 69.41376 
L 300.668436 61.4304 
L 300.993415 62.76096 
L 301.318395 69.41376 
L 301.643374 54.7776 
L 301.968354 60.09984 
L 302.293333 70.74432 
L 302.618313 61.4304 
L 302.943292 62.76096 
L 303.268272 74.736 
L 303.593251 68.0832 
L 303.918231 57.43872 
L 304.24321 88.0416 
L 304.56819 60.09984 
L 304.89317 58.76928 
L 305.218149 62.76096 
L 305.543129 53.44704 
L 305.868108 65.42208 
L 306.193088 69.41376 
L 306.518067 64.09152 
L 306.843047 54.7776 
L 307.168026 60.09984 
L 307.493006 60.09984 
L 307.817985 70.74432 
L 308.142965 60.09984 
L 308.467944 65.42208 
L 309.117903 58.76928 
L 309.442883 61.4304 
L 309.767862 53.44704 
L 310.092842 61.4304 
L 310.417821 54.7776 
L 310.742801 76.06656 
L 311.067781 62.76096 
L 311.39276 85.38048 
L 311.71774 62.76096 
L 312.042719 74.736 
L 312.367699 73.40544 
L 312.692678 61.4304 
L 313.017658 73.40544 
L 313.342637 62.76096 
L 313.667617 64.09152 
L 313.992596 81.3888 
L 314.967535 60.09984 
L 315.292514 65.42208 
L 315.617494 58.76928 
L 315.942473 72.07488 
L 316.267453 58.76928 
L 316.592432 69.41376 
L 316.917412 66.75264 
L 317.242391 54.7776 
L 317.567371 72.07488 
L 317.892351 61.4304 
L 318.21733 61.4304 
L 318.54231 64.09152 
L 318.867289 73.40544 
L 319.192269 64.09152 
L 319.517248 60.09984 
L 320.167207 65.42208 
L 320.492187 65.42208 
L 320.817166 80.05824 
L 321.142146 62.76096 
L 321.467125 62.76096 
L 321.792105 53.44704 
L 322.117084 58.76928 
L 322.442064 61.4304 
L 322.767043 58.76928 
L 323.092023 69.41376 
L 323.417002 61.4304 
L 323.741982 65.42208 
L 324.391941 56.10816 
L 324.716921 57.43872 
L 325.0419 61.4304 
L 325.36688 58.76928 
L 325.691859 61.4304 
L 326.016839 61.4304 
L 326.341818 72.07488 
L 326.666798 62.76096 
L 327.316757 72.07488 
L 327.641736 61.4304 
L 327.966716 69.41376 
L 328.291695 61.4304 
L 328.616675 68.0832 
L 328.941654 54.7776 
L 329.266634 76.06656 
L 329.591613 58.76928 
L 329.916593 56.10816 
L 330.241572 80.05824 
L 330.566552 60.09984 
L 330.891532 58.76928 
L 331.216511 70.74432 
L 331.541491 49.45536 
L 331.86647 64.09152 
L 332.19145 60.09984 
L 332.516429 65.42208 
L 333.166388 58.76928 
L 333.491368 61.4304 
L 333.816347 54.7776 
L 334.141327 56.10816 
L 335.116265 74.736 
L 335.766224 49.45536 
L 336.091204 72.07488 
L 336.416183 69.41376 
L 336.741163 57.43872 
L 337.066143 58.76928 
L 337.391122 64.09152 
L 337.716102 60.09984 
L 338.041081 58.76928 
L 338.366061 53.44704 
L 338.69104 60.09984 
L 339.01602 70.74432 
L 339.340999 65.42208 
L 339.665979 46.79424 
L 339.990958 56.10816 
L 340.315938 58.76928 
L 340.965897 68.0832 
L 341.290876 68.0832 
L 341.615856 58.76928 
L 341.940835 60.09984 
L 342.590794 66.75264 
L 343.240753 64.09152 
L 343.565733 54.7776 
L 343.890713 57.43872 
L 344.215692 62.76096 
L 344.540672 74.736 
L 345.190631 65.42208 
L 345.51561 62.76096 
L 345.84059 49.45536 
L 346.165569 48.1248 
L 346.815528 61.4304 
L 347.140508 56.10816 
L 347.465487 65.42208 
L 347.790467 70.74432 
L 348.115446 56.10816 
L 348.440426 66.75264 
L 348.765405 58.76928 
L 349.090385 58.76928 
L 349.415364 65.42208 
L 349.740344 58.76928 
L 350.065324 57.43872 
L 350.390303 54.7776 
L 350.715283 60.09984 
L 351.365242 60.09984 
L 351.690221 54.7776 
L 352.015201 62.76096 
L 352.34018 65.42208 
L 352.66516 70.74432 
L 352.990139 57.43872 
L 353.315119 65.42208 
L 353.640098 60.09984 
L 353.965078 65.42208 
L 354.290057 62.76096 
L 354.615037 56.10816 
L 354.940016 54.7776 
L 355.264996 62.76096 
L 355.589975 58.76928 
L 355.914955 58.76928 
L 356.239934 77.39712 
L 356.564914 64.09152 
L 356.889894 57.43872 
L 357.214873 57.43872 
L 357.539853 66.75264 
L 357.864832 66.75264 
L 358.189812 69.41376 
L 358.514791 52.11648 
L 358.839771 58.76928 
L 359.16475 61.4304 
L 359.48973 62.76096 
L 359.814709 61.4304 
L 360.464668 70.74432 
L 360.789648 65.42208 
L 361.114627 57.43872 
L 361.439607 61.4304 
L 361.764586 58.76928 
L 362.089566 64.09152 
L 362.414545 57.43872 
L 362.739525 54.7776 
L 363.064505 70.74432 
L 363.389484 65.42208 
L 363.714464 62.76096 
L 364.039443 62.76096 
L 364.364423 57.43872 
L 364.689402 64.09152 
L 365.014382 73.40544 
L 365.339361 70.74432 
L 365.664341 57.43872 
L 365.98932 69.41376 
L 366.3143 48.1248 
L 366.639279 69.41376 
L 366.964259 66.75264 
L 367.289238 57.43872 
L 367.939197 64.09152 
L 368.589156 57.43872 
L 368.914136 64.09152 
L 369.239115 62.76096 
L 369.564095 65.42208 
L 369.889075 61.4304 
L 370.214054 70.74432 
L 370.539034 61.4304 
L 371.188993 69.41376 
L 371.513972 57.43872 
L 371.838952 61.4304 
L 372.163931 56.10816 
L 372.488911 62.76096 
L 372.81389 61.4304 
L 373.13887 69.41376 
L 373.463849 58.76928 
L 373.788829 56.10816 
L 374.113808 64.09152 
L 374.438788 60.09984 
L 374.763767 60.09984 
L 375.413726 70.74432 
L 375.738706 53.44704 
L 376.063686 69.41376 
L 376.713645 57.43872 
L 377.038624 65.42208 
L 377.363604 57.43872 
L 377.688583 56.10816 
L 378.338542 62.76096 
L 378.663522 60.09984 
L 378.988501 53.44704 
L 379.313481 76.06656 
L 379.63846 65.42208 
L 379.96344 60.09984 
L 380.288419 61.4304 
L 380.613399 57.43872 
L 380.938378 72.07488 
L 381.588337 49.45536 
L 381.913317 70.74432 
L 382.238296 62.76096 
L 382.563276 61.4304 
L 382.888256 48.1248 
L 383.213235 62.76096 
L 383.538215 65.42208 
L 383.863194 64.09152 
L 384.188174 54.7776 
L 384.513153 66.75264 
L 384.838133 66.75264 
L 385.163112 68.0832 
L 385.488092 58.76928 
L 385.813071 72.07488 
L 386.46303 49.45536 
L 386.78801 66.75264 
L 387.112989 64.09152 
L 387.437969 57.43872 
L 387.762948 60.09984 
L 388.087928 66.75264 
L 388.412907 70.74432 
L 389.062867 58.76928 
L 389.387846 57.43872 
L 390.037805 66.75264 
L 390.362785 61.4304 
L 390.687764 61.4304 
L 391.012744 62.76096 
L 391.337723 57.43872 
L 391.662703 66.75264 
L 392.312662 58.76928 
L 392.637641 69.41376 
L 392.962621 73.40544 
L 393.2876 66.75264 
L 393.61258 73.40544 
L 394.262539 49.45536 
L 394.587518 66.75264 
L 394.912498 53.44704 
L 395.237477 70.74432 
L 395.562457 57.43872 
L 395.887437 54.7776 
L 396.212416 60.09984 
L 396.537396 62.76096 
L 396.862375 72.07488 
L 397.512334 62.76096 
L 397.837314 62.76096 
L 398.162293 68.0832 
L 398.487273 52.11648 
L 398.487273 52.11648 
" style="fill:none;stroke:#1f77b4;stroke-linecap:square;stroke-width:1.5;"/>
   </g>
   <g id="line2d_14">
    <path clip-path="url(#p07af1c6565)" d="M 73.832727 280.573632 
L 74.157707 280.396224 
L 74.482686 279.97488 
L 74.807666 281.438496 
L 75.132645 280.839744 
L 75.457625 281.19456 
L 76.107584 280.462752 
L 76.432563 281.371968 
L 76.757543 281.08368 
L 77.732482 281.394144 
L 78.057461 281.771136 
L 78.382441 281.549376 
L 78.70742 281.593728 
L 79.0324 281.128032 
L 79.357379 281.549376 
L 79.682359 281.704608 
L 80.007338 281.394144 
L 80.332318 281.283264 
L 80.657297 281.438496 
L 80.982277 281.371968 
L 81.307256 281.017152 
L 81.632236 281.19456 
L 81.957215 281.882016 
L 82.282195 280.64016 
L 82.607174 281.061504 
L 82.932154 280.396224 
L 83.257133 280.64016 
L 83.582113 281.97072 
L 84.557052 280.462752 
L 84.882031 281.371968 
L 85.207011 279.464832 
L 85.53199 280.706688 
L 85.85697 277.069824 
L 86.181949 269.175168 
L 86.831908 266.580576 
L 87.156888 262.322784 
L 87.481867 260.79264 
L 87.806847 261.036576 
L 88.131826 260.34912 
L 88.456806 264.3408 
L 88.781785 261.67968 
L 89.106765 257.510592 
L 89.756724 255.093408 
L 90.081704 257.35536 
L 90.406683 253.940256 
L 90.731663 255.758688 
L 91.056642 255.071232 
L 91.381622 252.676224 
L 91.706601 252.454464 
L 92.031581 256.956192 
L 92.68154 252.742752 
L 93.006519 253.186272 
L 93.331499 254.02896 
L 93.656478 251.36784 
L 93.981458 251.345664 
L 94.306437 250.857792 
L 94.631417 249.505056 
L 94.956396 250.36992 
L 95.281376 253.075392 
L 95.606355 249.438528 
L 95.931335 250.835616 
L 96.256314 250.4808 
L 96.581294 247.841856 
L 97.231253 250.502976 
L 97.556233 246.755232 
L 97.881212 245.956896 
L 98.206192 245.846016 
L 98.531171 246.223008 
L 98.856151 245.335968 
L 99.50611 247.243104 
L 99.831089 244.648512 
L 100.156069 244.692864 
L 100.481048 245.757312 
L 100.806028 244.071936 
L 101.131007 243.406656 
L 101.780966 246.311712 
L 102.105946 243.650592 
L 102.430925 242.60832 
L 103.080885 246.37824 
L 103.405864 240.479424 
L 103.730844 241.6104 
L 104.055823 240.479424 
L 104.380803 241.100352 
L 104.705782 238.993632 
L 105.030762 239.969376 
L 105.355741 241.743456 
L 106.33068 236.376864 
L 106.655659 236.95344 
L 106.980639 237.263904 
L 107.305618 239.037984 
L 107.630598 236.886912 
L 107.955577 238.261824 
L 108.280557 236.798208 
L 108.605536 241.543872 
L 108.930516 238.106592 
L 109.255495 235.933344 
L 109.580475 241.189056 
L 109.905455 233.95968 
L 110.230434 235.578528 
L 110.555414 235.822464 
L 110.880393 234.780192 
L 111.205373 232.806528 
L 111.530352 232.828704 
L 111.855332 231.498144 
L 112.180311 233.316576 
L 112.505291 232.163424 
L 112.83027 232.651296 
L 113.15525 230.96592 
L 113.480229 230.832864 
L 114.130188 232.873056 
L 114.455168 233.538336 
L 114.780147 227.439936 
L 115.105127 231.254208 
L 115.430106 228.903552 
L 115.755086 227.97216 
L 116.080066 228.038688 
L 116.405045 234.891072 
L 117.055004 225.954144 
L 117.379984 225.732384 
L 117.704963 222.694272 
L 118.029943 223.248672 
L 118.354922 223.3152 
L 118.679902 240.146784 
L 119.004881 225.377568 
L 119.329861 220.365792 
L 119.65484 219.922272 
L 119.97982 223.159968 
L 120.304799 217.54944 
L 120.629779 221.141952 
L 120.954758 219.589632 
L 121.279738 220.964544 
L 121.604717 221.43024 
L 121.929697 218.968704 
L 122.254676 219.256992 
L 122.579656 218.126016 
L 122.904636 218.636064 
L 123.229615 216.928512 
L 123.554595 216.950688 
L 123.879574 214.134336 
L 124.204554 213.513408 
L 124.529533 211.805856 
L 124.854513 213.624288 
L 125.179492 213.180768 
L 125.504472 217.749024 
L 125.829451 214.489152 
L 126.154431 213.269472 
L 126.47941 213.291648 
L 126.80439 212.205024 
L 127.129369 206.01792 
L 127.454349 209.854368 
L 128.104308 210.0096 
L 128.429287 208.767744 
L 128.754267 204.79824 
L 129.079247 208.67904 
L 129.404226 202.381056 
L 129.729206 205.507872 
L 130.054185 206.040096 
L 130.379165 205.973568 
L 130.704144 205.042176 
L 131.029124 207.104544 
L 131.354103 207.792 
L 131.679083 202.292352 
L 132.004062 202.647168 
L 132.329042 205.951392 
L 132.654021 201.383136 
L 132.979001 200.939616 
L 133.30398 198.69984 
L 133.953939 197.857152 
L 134.278919 199.054656 
L 134.603898 197.014464 
L 134.928878 199.342944 
L 135.253857 197.191872 
L 135.578837 196.03872 
L 135.903817 195.70608 
L 136.228796 194.841216 
L 136.553776 199.786464 
L 137.203735 192.069216 
L 137.853694 190.228608 
L 138.178673 188.543232 
L 138.503653 187.767072 
L 138.828632 193.887648 
L 139.153612 194.663808 
L 139.478591 187.94448 
L 139.803571 191.60352 
L 140.12855 183.110112 
L 140.45353 187.966656 
L 140.778509 186.591744 
L 141.103489 187.123968 
L 141.753448 181.801728 
L 142.078428 181.40256 
L 142.403407 177.676992 
L 143.053366 181.713024 
L 143.378346 178.386624 
L 143.703325 180.338112 
L 144.028305 175.459392 
L 144.353284 176.457312 
L 145.328223 168.850944 
L 145.653202 170.935488 
L 145.978182 168.806592 
L 146.303161 169.893216 
L 146.628141 170.469792 
L 146.95312 168.252192 
L 147.603079 170.580672 
L 147.928059 168.87312 
L 148.253038 161.2224 
L 148.578018 162.575136 
L 148.902998 162.952128 
L 149.227977 162.686016 
L 149.552957 164.526624 
L 149.877936 160.77888 
L 150.202916 162.042912 
L 150.527895 159.315264 
L 150.852875 155.412288 
L 151.177854 153.993024 
L 151.502834 163.44 
L 151.827813 157.408128 
L 152.152793 159.537024 
L 152.477772 153.660384 
L 152.802752 155.101824 
L 153.127731 154.12608 
L 153.452711 156.67632 
L 154.427649 152.01936 
L 154.752629 162.708192 
L 155.402588 152.79552 
L 155.727568 153.79344 
L 156.052547 155.922336 
L 156.377527 152.839872 
L 156.702506 147.47328 
L 157.027486 148.759488 
L 157.352465 150.755328 
L 157.677445 148.449024 
L 158.002424 149.424768 
L 158.327404 148.271616 
L 158.652383 149.491296 
L 158.977363 148.182912 
L 159.302342 139.645152 
L 159.627322 146.719296 
L 159.952301 148.315968 
L 160.277281 142.905024 
L 160.60226 145.654848 
L 160.92724 146.58624 
L 161.252219 141.640992 
L 161.577199 139.578624 
L 161.902179 140.643072 
L 162.227158 139.179456 
L 162.552138 145.1448 
L 162.877117 138.092832 
L 163.202097 139.002048 
L 163.527076 149.0256 
L 163.852056 142.882848 
L 164.502015 140.643072 
L 164.826994 132.704064 
L 165.151974 142.949376 
L 165.476953 141.219648 
L 165.801933 137.649312 
L 166.126912 137.516256 
L 166.451892 134.677728 
L 166.776871 147.47328 
L 167.101851 131.861376 
L 167.42683 139.667328 
L 167.75181 133.369344 
L 168.07679 139.911264 
L 168.401769 134.855136 
L 168.726749 136.49616 
L 169.051728 136.961856 
L 169.376708 131.2848 
L 169.701687 132.016608 
L 170.026667 135.875232 
L 170.351646 133.103232 
L 170.676626 134.300736 
L 171.001605 133.480224 
L 171.326585 134.988192 
L 171.651564 133.369344 
L 171.976544 132.637536 
L 172.301523 129.799008 
L 172.626503 141.48576 
L 172.951482 126.893952 
L 173.276462 129.555072 
L 173.601441 129.799008 
L 173.926421 126.96048 
L 174.2514 130.95216 
L 174.57638 136.873152 
L 175.226339 131.683968 
L 175.551319 126.250848 
L 175.876298 126.982656 
L 176.201278 123.85584 
L 176.526257 123.257088 
L 176.851237 129.111552 
L 177.176216 123.567552 
L 177.501196 146.763648 
L 177.826175 131.972256 
L 178.151155 130.331232 
L 178.476134 120.928608 
L 178.801114 131.151744 
L 179.126093 122.347872 
L 179.776052 123.345792 
L 180.101032 123.124032 
L 180.426011 127.359648 
L 180.750991 120.507264 
L 181.075971 120.906432 
L 181.40095 118.954944 
L 181.72593 118.844064 
L 182.050909 121.904352 
L 182.375889 127.492704 
L 182.700868 128.091456 
L 183.025848 123.234912 
L 183.350827 126.40608 
L 183.675807 116.626464 
L 184.000786 119.708928 
L 184.325766 126.561312 
L 184.650745 121.793472 
L 184.975725 119.265408 
L 185.300704 121.926528 
L 185.625684 118.467072 
L 185.950663 122.236992 
L 186.275643 122.480928 
L 186.600622 124.166304 
L 186.925602 114.87456 
L 187.250581 119.287584 
L 187.575561 118.20096 
L 187.900541 123.323616 
L 188.22552 113.943168 
L 188.5505 116.559936 
L 188.875479 116.138592 
L 189.200459 124.388064 
L 189.525438 117.114336 
L 189.850418 123.035328 
L 190.175397 114.453216 
L 190.500377 118.42272 
L 190.825356 118.023552 
L 191.150336 116.582112 
L 191.475315 118.156608 
L 191.800295 115.251552 
L 192.125274 113.965344 
L 192.450254 120.485088 
L 192.775233 115.162848 
L 193.100213 117.247392 
L 193.425192 118.356192 
L 193.750172 120.551616 
L 194.075152 115.695072 
L 194.400131 115.65072 
L 194.725111 117.136512 
L 195.05009 117.358272 
L 195.37507 117.158688 
L 195.700049 117.180864 
L 196.025029 114.453216 
L 196.350008 109.99584 
L 197.324947 112.612608 
L 197.649926 109.907136 
L 197.974906 118.178784 
L 198.624865 109.596672 
L 198.949844 110.905056 
L 199.274824 110.949408 
L 199.599803 112.523904 
L 199.924783 110.749824 
L 200.249762 117.402624 
L 200.574742 106.691616 
L 200.899722 109.729728 
L 201.224701 115.87248 
L 201.549681 111.792096 
L 201.87466 113.920992 
L 202.19964 109.064448 
L 202.524619 111.171168 
L 202.849599 109.352736 
L 203.174578 129.821184 
L 203.499558 113.943168 
L 203.824537 111.392928 
L 204.149517 112.834368 
L 204.474496 111.747744 
L 204.799476 114.0984 
L 205.124455 110.018016 
L 205.449435 109.21968 
L 205.774414 111.259872 
L 206.099394 112.4352 
L 206.424373 117.801792 
L 206.749353 109.130976 
L 207.074333 112.058208 
L 207.399312 105.56064 
L 207.724292 111.370752 
L 208.374251 106.8912 
L 208.69923 109.88496 
L 209.02421 108.842688 
L 209.349189 104.00832 
L 209.999148 114.918912 
L 210.324128 109.88496 
L 210.649107 107.379072 
L 210.974087 108.487872 
L 211.299066 113.610528 
L 211.624046 106.381152 
L 211.949025 137.738016 
L 212.274005 107.933472 
L 212.598984 108.576576 
L 212.923964 108.620928 
L 213.248943 110.705472 
L 213.573923 106.070688 
L 213.898903 107.534304 
L 214.223882 105.294528 
L 214.548862 111.392928 
L 214.873841 107.046432 
L 215.198821 111.392928 
L 215.5238 107.467776 
L 215.84878 111.947328 
L 216.173759 135.05472 
L 216.498739 113.144832 
L 216.823718 113.255712 
L 217.148698 107.689536 
L 217.473677 119.575872 
L 217.798657 107.512128 
L 218.123636 107.356896 
L 218.448616 112.523904 
L 218.773595 106.270272 
L 219.423554 110.772 
L 219.748534 123.478848 
L 220.073514 105.183648 
L 220.398493 109.596672 
L 220.723473 103.631328 
L 221.048452 102.456 
L 221.373432 107.246016 
L 221.698411 106.979904 
L 222.023391 105.205824 
L 222.34837 113.943168 
L 222.67335 107.379072 
L 222.998329 108.354816 
L 223.648288 106.469856 
L 223.973268 106.647264 
L 224.298247 110.66112 
L 224.623227 111.902976 
L 224.948206 107.246016 
L 225.273186 105.582816 
L 225.598165 107.179488 
L 225.923145 105.693696 
L 226.248124 105.693696 
L 226.573104 106.66944 
L 226.898084 109.352736 
L 227.223063 101.036736 
L 227.548043 118.577952 
L 227.873022 103.89744 
L 228.198002 104.429664 
L 228.522981 103.387392 
L 228.847961 107.379072 
L 229.17294 107.356896 
L 229.49792 102.478176 
L 229.822899 104.939712 
L 230.147879 102.522528 
L 230.472858 104.407488 
L 231.122817 103.875264 
L 231.447797 105.760224 
L 231.772776 109.21968 
L 232.097756 111.370752 
L 232.747715 102.943872 
L 233.072695 105.7824 
L 233.722654 100.415808 
L 234.047633 106.492032 
L 234.372613 105.250176 
L 234.697592 110.2176 
L 235.347551 103.476096 
L 235.672531 106.55856 
L 235.99751 111.348576 
L 236.32249 106.602912 
L 236.972449 104.052672 
L 237.297428 104.296608 
L 237.622408 105.405408 
L 237.947387 104.540544 
L 238.272367 106.3368 
L 238.597346 103.586976 
L 238.922326 98.79696 
L 239.247305 103.720032 
L 239.572285 100.726272 
L 240.222244 108.399168 
L 240.547224 103.986144 
L 240.872203 103.054752 
L 241.197183 106.292448 
L 241.522162 111.836448 
L 241.847142 106.802496 
L 242.172121 104.695776 
L 242.497101 101.524608 
L 242.82208 103.808736 
L 243.14706 103.209984 
L 243.472039 104.89536 
L 243.797019 104.363136 
L 244.121998 105.538464 
L 244.446978 104.56272 
L 244.771957 105.538464 
L 245.096937 105.715872 
L 245.421916 106.358976 
L 245.746896 105.272352 
L 246.071876 110.727648 
L 246.721835 100.57104 
L 247.371794 104.274432 
L 247.696773 101.258496 
L 248.021753 101.12544 
L 248.346732 99.661824 
L 248.671712 104.717952 
L 248.996691 100.859328 
L 249.321671 106.314624 
L 249.64665 102.278592 
L 249.97163 106.580736 
L 250.296609 103.586976 
L 250.621589 103.431744 
L 250.946568 98.530848 
L 251.271548 105.228 
L 251.596527 106.00416 
L 251.921507 102.167712 
L 252.246486 101.480256 
L 252.571466 107.689536 
L 252.896446 102.256416 
L 253.221425 102.810816 
L 253.546405 104.873184 
L 253.871384 102.766464 
L 254.196364 103.67568 
L 254.521343 103.054752 
L 254.846323 102.744288 
L 255.171302 102.633408 
L 255.496282 98.198208 
L 255.821261 99.595296 
L 256.146241 104.474016 
L 256.47122 100.2384 
L 256.7962 102.500352 
L 257.121179 102.12336 
L 257.771138 105.383232 
L 258.096118 100.34928 
L 258.421097 103.720032 
L 258.746077 101.613312 
L 259.071057 101.103264 
L 259.396036 99.927936 
L 259.721016 102.544704 
L 260.045995 102.589056 
L 260.370975 99.373536 
L 260.695954 100.704096 
L 261.020934 102.56688 
L 261.345913 98.286912 
L 261.670893 104.56272 
L 261.995872 97.732512 
L 262.320852 97.621632 
L 262.645831 100.526688 
L 262.970811 98.68608 
L 263.29579 98.486496 
L 263.62077 105.00624 
L 263.945749 98.974368 
L 264.270729 102.810816 
L 264.595708 100.327104 
L 265.245667 101.857248 
L 265.570647 99.373536 
L 265.895627 100.548864 
L 266.220606 103.209984 
L 266.545586 100.171872 
L 266.870565 101.23632 
L 267.195545 104.651424 
L 267.520524 95.514912 
L 267.845504 101.702016 
L 268.170483 95.02704 
L 268.820442 102.034656 
L 269.145422 99.107424 
L 269.470401 98.774784 
L 269.795381 97.976448 
L 270.12036 100.90368 
L 270.44534 96.379776 
L 270.770319 97.776864 
L 271.095299 93.053376 
L 271.420278 97.399872 
L 271.745258 95.559264 
L 272.070238 94.960512 
L 272.395217 95.8032 
L 272.720197 96.047136 
L 273.045176 97.222464 
L 273.370156 95.492736 
L 273.695135 92.432448 
L 274.020115 100.482336 
L 274.345094 98.641728 
L 274.670074 97.710336 
L 274.995053 97.621632 
L 275.320033 97.79904 
L 275.645012 94.450464 
L 275.969992 95.714496 
L 276.294971 96.379776 
L 276.619951 93.053376 
L 276.94493 100.2384 
L 277.26991 96.13584 
L 277.594889 97.776864 
L 277.919869 97.288992 
L 278.244848 98.841312 
L 278.569828 95.35968 
L 278.894808 97.821216 
L 279.219787 95.559264 
L 279.544767 97.643808 
L 279.869746 97.13376 
L 280.194726 98.930016 
L 280.519705 97.843392 
L 280.844685 98.13168 
L 281.169664 99.107424 
L 281.494644 94.650048 
L 281.819623 102.655584 
L 282.144603 98.663904 
L 282.469582 99.063072 
L 282.794562 101.812896 
L 283.119541 96.24672 
L 283.444521 100.814976 
L 283.7695 96.069312 
L 284.09448 98.397792 
L 284.419459 97.111584 
L 284.744439 98.930016 
L 285.069419 95.293152 
L 285.394398 96.912 
L 285.719378 97.821216 
L 286.044357 95.936256 
L 286.369337 97.067232 
L 286.694316 97.510752 
L 287.019296 105.11712 
L 287.344275 96.002784 
L 287.669255 106.425504 
L 287.994234 98.087328 
L 288.319214 97.510752 
L 288.644193 100.637568 
L 288.969173 100.415808 
L 289.294152 97.4664 
L 289.619132 97.311168 
L 289.944111 97.821216 
L 290.269091 99.817056 
L 290.59407 97.000704 
L 290.91905 95.58144 
L 291.244029 95.071392 
L 291.569009 93.607776 
L 291.893989 95.869728 
L 292.218968 96.335424 
L 292.543948 95.980608 
L 292.868927 94.650048 
L 293.193907 98.0208 
L 293.518886 95.514912 
L 294.168845 98.996544 
L 294.493825 94.91616 
L 295.143784 100.105344 
L 295.468763 94.650048 
L 295.793743 93.075552 
L 296.118722 92.58768 
L 296.443702 96.778944 
L 296.768681 93.563424 
L 297.093661 99.440064 
L 297.41864 95.670144 
L 297.74362 96.3576 
L 298.0686 95.514912 
L 298.393579 101.945952 
L 298.718559 97.067232 
L 299.043538 97.665984 
L 299.368518 95.8032 
L 299.693497 95.891904 
L 300.018477 97.488576 
L 300.343456 94.516992 
L 300.668436 94.383936 
L 300.993415 98.220384 
L 301.318395 93.408192 
L 301.643374 96.80112 
L 301.968354 94.672224 
L 302.293333 95.35968 
L 302.618313 93.230784 
L 302.943292 97.57728 
L 303.268272 92.188512 
L 303.593251 99.79488 
L 303.918231 93.14208 
L 304.24321 93.718656 
L 304.56819 100.149696 
L 304.89317 94.47264 
L 305.218149 92.4768 
L 305.543129 91.390176 
L 305.868108 100.859328 
L 306.193088 99.417888 
L 306.518067 109.951488 
L 306.843047 94.561344 
L 307.168026 91.345824 
L 307.493006 93.408192 
L 307.817985 94.6944 
L 308.142965 98.153856 
L 308.467944 94.206528 
L 308.792924 94.02912 
L 309.117903 94.716576 
L 309.442883 97.510752 
L 309.767862 98.752608 
L 310.417821 89.59392 
L 310.742801 99.750528 
L 311.39276 92.787264 
L 311.71774 93.496896 
L 312.042719 96.535008 
L 312.367699 102.12336 
L 312.692678 97.02288 
L 313.017658 94.760928 
L 313.342637 94.716576 
L 313.667617 95.980608 
L 314.317576 93.186432 
L 314.642555 92.942496 
L 314.967535 89.638272 
L 315.292514 92.92032 
L 315.617494 91.013184 
L 315.942473 96.113664 
L 316.267453 105.183648 
L 316.592432 92.166336 
L 316.917412 94.47264 
L 317.242391 103.431744 
L 317.567371 98.35344 
L 318.21733 92.964672 
L 318.54231 95.293152 
L 318.867289 91.744992 
L 319.192269 93.009024 
L 319.842228 97.444224 
L 320.167207 95.293152 
L 320.492187 94.871808 
L 320.817166 91.523232 
L 321.142146 91.634112 
L 321.467125 94.273056 
L 321.792105 97.843392 
L 322.117084 92.388096 
L 322.767043 92.69856 
L 323.092023 93.164256 
L 323.417002 90.14832 
L 323.741982 91.14624 
L 324.066962 98.885664 
L 324.391941 91.25712 
L 324.716921 91.14624 
L 325.36688 95.625792 
L 325.691859 93.14208 
L 326.016839 93.319488 
L 326.341818 95.226624 
L 326.666798 93.718656 
L 326.991777 94.738752 
L 327.316757 97.111584 
L 327.641736 92.69856 
L 327.966716 96.57936 
L 328.616675 99.085248 
L 328.941654 91.545408 
L 329.266634 91.013184 
L 329.591613 93.519072 
L 329.916593 89.726976 
L 330.241572 94.716576 
L 330.566552 94.295232 
L 330.891532 88.618176 
L 331.216511 94.36176 
L 331.541491 93.275136 
L 331.86647 95.647968 
L 332.19145 94.738752 
L 332.516429 94.91616 
L 332.841409 92.210688 
L 333.166388 93.341664 
L 333.491368 93.186432 
L 333.816347 91.25712 
L 334.141327 93.386016 
L 334.466306 94.650048 
L 334.791286 92.188512 
L 335.116265 98.730432 
L 335.441245 93.896064 
L 335.766224 90.880128 
L 336.416183 94.494816 
L 336.741163 95.58144 
L 337.066143 90.991008 
L 337.391122 91.523232 
L 337.716102 99.040896 
L 338.041081 98.996544 
L 338.366061 93.851712 
L 338.69104 95.35968 
L 339.01602 93.91824 
L 339.340999 90.48096 
L 339.665979 95.204448 
L 339.990958 93.652128 
L 340.315938 96.313248 
L 340.640917 90.214848 
L 340.965897 92.188512 
L 341.290876 91.345824 
L 341.615856 94.162176 
L 341.940835 91.124064 
L 342.265815 90.857952 
L 342.590794 93.718656 
L 342.915774 92.609856 
L 343.240753 94.650048 
L 343.890713 95.825376 
L 344.215692 92.410272 
L 344.540672 93.896064 
L 344.865651 93.652128 
L 345.190631 93.740832 
L 345.51561 95.204448 
L 345.84059 91.301472 
L 346.165569 90.347904 
L 346.490549 89.970912 
L 346.815528 96.712416 
L 347.465487 91.855872 
L 347.790467 92.14416 
L 348.115446 97.4664 
L 348.440426 92.69856 
L 348.765405 92.654208 
L 349.090385 97.067232 
L 349.415364 91.013184 
L 349.740344 88.950816 
L 350.065324 93.319488 
L 350.390303 92.986848 
L 350.715283 91.456704 
L 351.040262 91.03536 
L 351.365242 88.573824 
L 352.015201 95.35968 
L 352.34018 97.422048 
L 352.66516 91.545408 
L 352.990139 89.7048 
L 353.315119 92.964672 
L 353.640098 88.573824 
L 353.965078 95.182272 
L 354.290057 96.02496 
L 354.615037 91.234944 
L 354.940016 89.638272 
L 355.264996 94.716576 
L 355.589975 90.37008 
L 355.914955 98.68608 
L 356.239934 94.627872 
L 356.564914 94.383936 
L 356.889894 89.216928 
L 357.214873 93.297312 
L 357.539853 110.128896 
L 357.864832 91.279296 
L 358.189812 93.962592 
L 358.514791 92.875968 
L 358.839771 90.636192 
L 359.16475 90.281376 
L 359.48973 89.660448 
L 360.139689 91.456704 
L 360.464668 93.962592 
L 360.789648 95.071392 
L 361.114627 88.618176 
L 361.439607 91.124064 
L 361.764586 87.952896 
L 362.414545 90.658368 
L 362.739525 91.301472 
L 363.064505 94.339584 
L 363.389484 92.454624 
L 363.714464 89.26128 
L 364.039443 88.507296 
L 364.364423 89.37216 
L 364.689402 88.884288 
L 365.014382 99.79488 
L 365.339361 96.512832 
L 365.664341 92.011104 
L 365.98932 92.166336 
L 366.3143 89.327808 
L 366.639279 98.508672 
L 366.964259 90.347904 
L 367.289238 94.450464 
L 367.614218 91.523232 
L 367.939197 92.80944 
L 368.264177 87.642432 
L 368.589156 93.829536 
L 368.914136 92.964672 
L 369.239115 91.412352 
L 369.564095 88.241184 
L 369.889075 93.408192 
L 370.214054 89.349984 
L 370.539034 92.388096 
L 370.864013 93.319488 
L 371.188993 91.501056 
L 371.513972 93.186432 
L 371.838952 90.170496 
L 372.163931 92.188512 
L 372.488911 87.864192 
L 372.81389 93.629952 
L 373.13887 88.48512 
L 373.463849 92.676384 
L 373.788829 94.228704 
L 374.113808 88.729056 
L 374.438788 95.625792 
L 374.763767 94.80528 
L 375.088747 88.950816 
L 375.413726 93.208608 
L 375.738706 89.505216 
L 376.063686 90.03744 
L 376.388665 90.170496 
L 376.713645 92.011104 
L 377.038624 88.15248 
L 377.363604 94.295232 
L 377.688583 91.611936 
L 378.013563 97.266816 
L 378.338542 87.198912 
L 378.663522 87.088032 
L 378.988501 88.462944 
L 379.313481 83.052 
L 379.63846 98.042976 
L 379.96344 94.650048 
L 380.288419 93.14208 
L 380.613399 92.277216 
L 380.938378 92.299392 
L 381.263358 90.747072 
L 381.588337 91.212768 
L 381.913317 90.325728 
L 382.238296 93.47472 
L 382.563276 90.458784 
L 382.888256 91.323648 
L 383.213235 91.124064 
L 383.538215 96.202368 
L 383.863194 90.436608 
L 384.188174 93.097728 
L 384.513153 89.638272 
L 384.838133 94.383936 
L 385.163112 92.166336 
L 385.488092 89.083872 
L 385.813071 92.4768 
L 386.138051 92.099808 
L 386.46303 90.237024 
L 386.78801 95.426208 
L 387.112989 92.099808 
L 387.762948 92.69856 
L 388.087928 90.48096 
L 388.412907 94.650048 
L 388.737887 94.650048 
L 389.062867 92.831616 
L 389.387846 92.898144 
L 389.712826 89.882208 
L 390.037805 89.726976 
L 390.362785 86.04576 
L 390.687764 88.130304 
L 391.012744 88.329888 
L 391.337723 89.837856 
L 391.662703 94.539168 
L 391.987682 89.527392 
L 392.637641 97.311168 
L 392.962621 90.569664 
L 393.2876 91.944576 
L 393.61258 91.988928 
L 393.937559 90.237024 
L 394.262539 89.48304 
L 394.587518 90.70272 
L 394.912498 89.03952 
L 395.237477 86.200992 
L 395.562457 90.92448 
L 395.887437 89.860032 
L 396.862375 95.049216 
L 397.187355 93.0312 
L 397.512334 92.277216 
L 397.837314 89.860032 
L 398.162293 86.311872 
L 398.487273 88.950816 
L 398.487273 88.950816 
" style="fill:none;stroke:#ff7f0e;stroke-linecap:square;stroke-width:1.5;"/>
   </g>
   <g id="patch_3">
    <path d="M 57.6 307.584 
L 57.6 41.472 
" style="fill:none;stroke:#000000;stroke-linecap:square;stroke-linejoin:miter;stroke-width:0.8;"/>
   </g>
   <g id="patch_4">
    <path d="M 414.72 307.584 
L 414.72 41.472 
" style="fill:none;stroke:#000000;stroke-linecap:square;stroke-linejoin:miter;stroke-width:0.8;"/>
   </g>
   <g id="patch_5">
    <path d="M 57.6 307.584 
L 414.72 307.584 
" style="fill:none;stroke:#000000;stroke-linecap:square;stroke-linejoin:miter;stroke-width:0.8;"/>
   </g>
   <g id="patch_6">
    <path d="M 57.6 41.472 
L 414.72 41.472 
" style="fill:none;stroke:#000000;stroke-linecap:square;stroke-linejoin:miter;stroke-width:0.8;"/>
   </g>
   <g id="legend_1">
    <g id="patch_7">
     <path d="M 303.845 302.584 
L 407.72 302.584 
Q 409.72 302.584 409.72 300.584 
L 409.72 272.22775 
Q 409.72 270.22775 407.72 270.22775 
L 303.845 270.22775 
Q 301.845 270.22775 301.845 272.22775 
L 301.845 300.584 
Q 301.845 302.584 303.845 302.584 
z
" style="fill:#ffffff;opacity:0.8;stroke:#cccccc;stroke-linejoin:miter;"/>
    </g>
    <g id="line2d_15">
     <path d="M 305.845 278.326187 
L 325.845 278.326187 
" style="fill:none;stroke:#1f77b4;stroke-linecap:square;stroke-width:1.5;"/>
    </g>
    <g id="line2d_16"/>
    <g id="text_15">
     <!-- Train loss -->
     <g transform="translate(333.845 281.826187)scale(0.1 -0.1)">
      <defs>
       <path d="M -19 4666 
L 3928 4666 
L 3928 4134 
L 2272 4134 
L 2272 0 
L 1638 0 
L 1638 4134 
L -19 4134 
L -19 4666 
z
" id="DejaVuSans-54" transform="scale(0.015625)"/>
       <path d="M 603 3500 
L 1178 3500 
L 1178 0 
L 603 0 
L 603 3500 
z
M 603 4863 
L 1178 4863 
L 1178 4134 
L 603 4134 
L 603 4863 
z
" id="DejaVuSans-69" transform="scale(0.015625)"/>
       <path d="M 3513 2113 
L 3513 0 
L 2938 0 
L 2938 2094 
Q 2938 2591 2744 2837 
Q 2550 3084 2163 3084 
Q 1697 3084 1428 2787 
Q 1159 2491 1159 1978 
L 1159 0 
L 581 0 
L 581 3500 
L 1159 3500 
L 1159 2956 
Q 1366 3272 1645 3428 
Q 1925 3584 2291 3584 
Q 2894 3584 3203 3211 
Q 3513 2838 3513 2113 
z
" id="DejaVuSans-6e" transform="scale(0.015625)"/>
       <path id="DejaVuSans-20" transform="scale(0.015625)"/>
       <path d="M 603 4863 
L 1178 4863 
L 1178 0 
L 603 0 
L 603 4863 
z
" id="DejaVuSans-6c" transform="scale(0.015625)"/>
       <path d="M 2834 3397 
L 2834 2853 
Q 2591 2978 2328 3040 
Q 2066 3103 1784 3103 
Q 1356 3103 1142 2972 
Q 928 2841 928 2578 
Q 928 2378 1081 2264 
Q 1234 2150 1697 2047 
L 1894 2003 
Q 2506 1872 2764 1633 
Q 3022 1394 3022 966 
Q 3022 478 2636 193 
Q 2250 -91 1575 -91 
Q 1294 -91 989 -36 
Q 684 19 347 128 
L 347 722 
Q 666 556 975 473 
Q 1284 391 1588 391 
Q 1994 391 2212 530 
Q 2431 669 2431 922 
Q 2431 1156 2273 1281 
Q 2116 1406 1581 1522 
L 1381 1569 
Q 847 1681 609 1914 
Q 372 2147 372 2553 
Q 372 3047 722 3315 
Q 1072 3584 1716 3584 
Q 2034 3584 2315 3537 
Q 2597 3491 2834 3397 
z
" id="DejaVuSans-73" transform="scale(0.015625)"/>
      </defs>
      <use xlink:href="#DejaVuSans-54"/>
      <use x="46.333984" xlink:href="#DejaVuSans-72"/>
      <use x="87.447266" xlink:href="#DejaVuSans-61"/>
      <use x="148.726562" xlink:href="#DejaVuSans-69"/>
      <use x="176.509766" xlink:href="#DejaVuSans-6e"/>
      <use x="239.888672" xlink:href="#DejaVuSans-20"/>
      <use x="271.675781" xlink:href="#DejaVuSans-6c"/>
      <use x="299.458984" xlink:href="#DejaVuSans-6f"/>
      <use x="360.640625" xlink:href="#DejaVuSans-73"/>
      <use x="412.740234" xlink:href="#DejaVuSans-73"/>
     </g>
    </g>
    <g id="line2d_17">
     <path d="M 305.845 293.004312 
L 325.845 293.004312 
" style="fill:none;stroke:#ff7f0e;stroke-linecap:square;stroke-width:1.5;"/>
    </g>
    <g id="line2d_18"/>
    <g id="text_16">
     <!-- Validation loss -->
     <g transform="translate(333.845 296.504312)scale(0.1 -0.1)">
      <defs>
       <path d="M 1831 0 
L 50 4666 
L 709 4666 
L 2188 738 
L 3669 4666 
L 4325 4666 
L 2547 0 
L 1831 0 
z
" id="DejaVuSans-56" transform="scale(0.015625)"/>
       <path d="M 2906 2969 
L 2906 4863 
L 3481 4863 
L 3481 0 
L 2906 0 
L 2906 525 
Q 2725 213 2448 61 
Q 2172 -91 1784 -91 
Q 1150 -91 751 415 
Q 353 922 353 1747 
Q 353 2572 751 3078 
Q 1150 3584 1784 3584 
Q 2172 3584 2448 3432 
Q 2725 3281 2906 2969 
z
M 947 1747 
Q 947 1113 1208 752 
Q 1469 391 1925 391 
Q 2381 391 2643 752 
Q 2906 1113 2906 1747 
Q 2906 2381 2643 2742 
Q 2381 3103 1925 3103 
Q 1469 3103 1208 2742 
Q 947 2381 947 1747 
z
" id="DejaVuSans-64" transform="scale(0.015625)"/>
       <path d="M 1172 4494 
L 1172 3500 
L 2356 3500 
L 2356 3053 
L 1172 3053 
L 1172 1153 
Q 1172 725 1289 603 
Q 1406 481 1766 481 
L 2356 481 
L 2356 0 
L 1766 0 
Q 1100 0 847 248 
Q 594 497 594 1153 
L 594 3053 
L 172 3053 
L 172 3500 
L 594 3500 
L 594 4494 
L 1172 4494 
z
" id="DejaVuSans-74" transform="scale(0.015625)"/>
      </defs>
      <use xlink:href="#DejaVuSans-56"/>
      <use x="60.658203" xlink:href="#DejaVuSans-61"/>
      <use x="121.9375" xlink:href="#DejaVuSans-6c"/>
      <use x="149.720703" xlink:href="#DejaVuSans-69"/>
      <use x="177.503906" xlink:href="#DejaVuSans-64"/>
      <use x="240.980469" xlink:href="#DejaVuSans-61"/>
      <use x="302.259766" xlink:href="#DejaVuSans-74"/>
      <use x="341.46875" xlink:href="#DejaVuSans-69"/>
      <use x="369.251953" xlink:href="#DejaVuSans-6f"/>
      <use x="430.433594" xlink:href="#DejaVuSans-6e"/>
      <use x="493.8125" xlink:href="#DejaVuSans-20"/>
      <use x="525.599609" xlink:href="#DejaVuSans-6c"/>
      <use x="553.382812" xlink:href="#DejaVuSans-6f"/>
      <use x="614.564453" xlink:href="#DejaVuSans-73"/>
      <use x="666.664062" xlink:href="#DejaVuSans-73"/>
     </g>
    </g>
   </g>
  </g>
 </g>
 <defs>
  <clipPath id="p07af1c6565">
   <rect height="266.112" width="357.12" x="57.6" y="41.472"/>
  </clipPath>
 </defs>
</svg>
