<?xml version="1.0" encoding="utf-8" standalone="no"?>
<!DOCTYPE svg PUBLIC "-//W3C//DTD SVG 1.1//EN"
  "http://www.w3.org/Graphics/SVG/1.1/DTD/svg11.dtd">
<svg height="345.6pt" version="1.1" viewBox="0 0 460.8 345.6" width="460.8pt" xmlns="http://www.w3.org/2000/svg" xmlns:xlink="http://www.w3.org/1999/xlink">
 <metadata>
  <rdf:RDF xmlns:cc="http://creativecommons.org/ns#" xmlns:dc="http://purl.org/dc/elements/1.1/" xmlns:rdf="http://www.w3.org/1999/02/22-rdf-syntax-ns#">
   <cc:Work>
    <dc:type rdf:resource="http://purl.org/dc/dcmitype/StillImage"/>
    <dc:date>2021-07-17T00:45:32.694357</dc:date>
    <dc:format>image/svg+xml</dc:format>
    <dc:creator>
     <cc:Agent>
      <dc:title>Matplotlib v3.4.2, https://matplotlib.org/</dc:title>
     </cc:Agent>
    </dc:creator>
   </cc:Work>
  </rdf:RDF>
 </metadata>
 <defs>
  <style type="text/css">*{stroke-linecap:butt;stroke-linejoin:round;}</style>
 </defs>
 <g id="figure_1">
  <g id="patch_1">
   <path d="M 0 345.6 
L 460.8 345.6 
L 460.8 0 
L 0 0 
z
" style="fill:#ffffff;"/>
  </g>
  <g id="axes_1">
   <g id="patch_2">
    <path d="M 57.6 307.584 
L 414.72 307.584 
L 414.72 41.472 
L 57.6 41.472 
z
" style="fill:#ffffff;"/>
   </g>
   <g id="matplotlib.axis_1">
    <g id="xtick_1">
     <g id="line2d_1">
      <defs>
       <path d="M 0 0 
L 0 3.5 
" id="m4d3832a271" style="stroke:#000000;stroke-width:0.8;"/>
      </defs>
      <g>
       <use style="stroke:#000000;stroke-width:0.8;" x="73.019057" xlink:href="#m4d3832a271" y="307.584"/>
      </g>
     </g>
     <g id="text_1">
      <!-- 0 -->
      <g transform="translate(69.837807 322.182437)scale(0.1 -0.1)">
       <defs>
        <path d="M 2034 4250 
Q 1547 4250 1301 3770 
Q 1056 3291 1056 2328 
Q 1056 1369 1301 889 
Q 1547 409 2034 409 
Q 2525 409 2770 889 
Q 3016 1369 3016 2328 
Q 3016 3291 2770 3770 
Q 2525 4250 2034 4250 
z
M 2034 4750 
Q 2819 4750 3233 4129 
Q 3647 3509 3647 2328 
Q 3647 1150 3233 529 
Q 2819 -91 2034 -91 
Q 1250 -91 836 529 
Q 422 1150 422 2328 
Q 422 3509 836 4129 
Q 1250 4750 2034 4750 
z
" id="DejaVuSans-30" transform="scale(0.015625)"/>
       </defs>
       <use xlink:href="#DejaVuSans-30"/>
      </g>
     </g>
    </g>
    <g id="xtick_2">
     <g id="line2d_2">
      <g>
       <use style="stroke:#000000;stroke-width:0.8;" x="113.702584" xlink:href="#m4d3832a271" y="307.584"/>
      </g>
     </g>
     <g id="text_2">
      <!-- 50 -->
      <g transform="translate(107.340084 322.182437)scale(0.1 -0.1)">
       <defs>
        <path d="M 691 4666 
L 3169 4666 
L 3169 4134 
L 1269 4134 
L 1269 2991 
Q 1406 3038 1543 3061 
Q 1681 3084 1819 3084 
Q 2600 3084 3056 2656 
Q 3513 2228 3513 1497 
Q 3513 744 3044 326 
Q 2575 -91 1722 -91 
Q 1428 -91 1123 -41 
Q 819 9 494 109 
L 494 744 
Q 775 591 1075 516 
Q 1375 441 1709 441 
Q 2250 441 2565 725 
Q 2881 1009 2881 1497 
Q 2881 1984 2565 2268 
Q 2250 2553 1709 2553 
Q 1456 2553 1204 2497 
Q 953 2441 691 2322 
L 691 4666 
z
" id="DejaVuSans-35" transform="scale(0.015625)"/>
       </defs>
       <use xlink:href="#DejaVuSans-35"/>
       <use x="63.623047" xlink:href="#DejaVuSans-30"/>
      </g>
     </g>
    </g>
    <g id="xtick_3">
     <g id="line2d_3">
      <g>
       <use style="stroke:#000000;stroke-width:0.8;" x="154.386111" xlink:href="#m4d3832a271" y="307.584"/>
      </g>
     </g>
     <g id="text_3">
      <!-- 100 -->
      <g transform="translate(144.842361 322.182437)scale(0.1 -0.1)">
       <defs>
        <path d="M 794 531 
L 1825 531 
L 1825 4091 
L 703 3866 
L 703 4441 
L 1819 4666 
L 2450 4666 
L 2450 531 
L 3481 531 
L 3481 0 
L 794 0 
L 794 531 
z
" id="DejaVuSans-31" transform="scale(0.015625)"/>
       </defs>
       <use xlink:href="#DejaVuSans-31"/>
       <use x="63.623047" xlink:href="#DejaVuSans-30"/>
       <use x="127.246094" xlink:href="#DejaVuSans-30"/>
      </g>
     </g>
    </g>
    <g id="xtick_4">
     <g id="line2d_4">
      <g>
       <use style="stroke:#000000;stroke-width:0.8;" x="195.069638" xlink:href="#m4d3832a271" y="307.584"/>
      </g>
     </g>
     <g id="text_4">
      <!-- 150 -->
      <g transform="translate(185.525888 322.182437)scale(0.1 -0.1)">
       <use xlink:href="#DejaVuSans-31"/>
       <use x="63.623047" xlink:href="#DejaVuSans-35"/>
       <use x="127.246094" xlink:href="#DejaVuSans-30"/>
      </g>
     </g>
    </g>
    <g id="xtick_5">
     <g id="line2d_5">
      <g>
       <use style="stroke:#000000;stroke-width:0.8;" x="235.753165" xlink:href="#m4d3832a271" y="307.584"/>
      </g>
     </g>
     <g id="text_5">
      <!-- 200 -->
      <g transform="translate(226.209415 322.182437)scale(0.1 -0.1)">
       <defs>
        <path d="M 1228 531 
L 3431 531 
L 3431 0 
L 469 0 
L 469 531 
Q 828 903 1448 1529 
Q 2069 2156 2228 2338 
Q 2531 2678 2651 2914 
Q 2772 3150 2772 3378 
Q 2772 3750 2511 3984 
Q 2250 4219 1831 4219 
Q 1534 4219 1204 4116 
Q 875 4013 500 3803 
L 500 4441 
Q 881 4594 1212 4672 
Q 1544 4750 1819 4750 
Q 2544 4750 2975 4387 
Q 3406 4025 3406 3419 
Q 3406 3131 3298 2873 
Q 3191 2616 2906 2266 
Q 2828 2175 2409 1742 
Q 1991 1309 1228 531 
z
" id="DejaVuSans-32" transform="scale(0.015625)"/>
       </defs>
       <use xlink:href="#DejaVuSans-32"/>
       <use x="63.623047" xlink:href="#DejaVuSans-30"/>
       <use x="127.246094" xlink:href="#DejaVuSans-30"/>
      </g>
     </g>
    </g>
    <g id="xtick_6">
     <g id="line2d_6">
      <g>
       <use style="stroke:#000000;stroke-width:0.8;" x="276.436692" xlink:href="#m4d3832a271" y="307.584"/>
      </g>
     </g>
     <g id="text_6">
      <!-- 250 -->
      <g transform="translate(266.892942 322.182437)scale(0.1 -0.1)">
       <use xlink:href="#DejaVuSans-32"/>
       <use x="63.623047" xlink:href="#DejaVuSans-35"/>
       <use x="127.246094" xlink:href="#DejaVuSans-30"/>
      </g>
     </g>
    </g>
    <g id="xtick_7">
     <g id="line2d_7">
      <g>
       <use style="stroke:#000000;stroke-width:0.8;" x="317.120219" xlink:href="#m4d3832a271" y="307.584"/>
      </g>
     </g>
     <g id="text_7">
      <!-- 300 -->
      <g transform="translate(307.576469 322.182437)scale(0.1 -0.1)">
       <defs>
        <path d="M 2597 2516 
Q 3050 2419 3304 2112 
Q 3559 1806 3559 1356 
Q 3559 666 3084 287 
Q 2609 -91 1734 -91 
Q 1441 -91 1130 -33 
Q 819 25 488 141 
L 488 750 
Q 750 597 1062 519 
Q 1375 441 1716 441 
Q 2309 441 2620 675 
Q 2931 909 2931 1356 
Q 2931 1769 2642 2001 
Q 2353 2234 1838 2234 
L 1294 2234 
L 1294 2753 
L 1863 2753 
Q 2328 2753 2575 2939 
Q 2822 3125 2822 3475 
Q 2822 3834 2567 4026 
Q 2313 4219 1838 4219 
Q 1578 4219 1281 4162 
Q 984 4106 628 3988 
L 628 4550 
Q 988 4650 1302 4700 
Q 1616 4750 1894 4750 
Q 2613 4750 3031 4423 
Q 3450 4097 3450 3541 
Q 3450 3153 3228 2886 
Q 3006 2619 2597 2516 
z
" id="DejaVuSans-33" transform="scale(0.015625)"/>
       </defs>
       <use xlink:href="#DejaVuSans-33"/>
       <use x="63.623047" xlink:href="#DejaVuSans-30"/>
       <use x="127.246094" xlink:href="#DejaVuSans-30"/>
      </g>
     </g>
    </g>
    <g id="xtick_8">
     <g id="line2d_8">
      <g>
       <use style="stroke:#000000;stroke-width:0.8;" x="357.803746" xlink:href="#m4d3832a271" y="307.584"/>
      </g>
     </g>
     <g id="text_8">
      <!-- 350 -->
      <g transform="translate(348.259996 322.182437)scale(0.1 -0.1)">
       <use xlink:href="#DejaVuSans-33"/>
       <use x="63.623047" xlink:href="#DejaVuSans-35"/>
       <use x="127.246094" xlink:href="#DejaVuSans-30"/>
      </g>
     </g>
    </g>
    <g id="xtick_9">
     <g id="line2d_9">
      <g>
       <use style="stroke:#000000;stroke-width:0.8;" x="398.487273" xlink:href="#m4d3832a271" y="307.584"/>
      </g>
     </g>
     <g id="text_9">
      <!-- 400 -->
      <g transform="translate(388.943523 322.182437)scale(0.1 -0.1)">
       <defs>
        <path d="M 2419 4116 
L 825 1625 
L 2419 1625 
L 2419 4116 
z
M 2253 4666 
L 3047 4666 
L 3047 1625 
L 3713 1625 
L 3713 1100 
L 3047 1100 
L 3047 0 
L 2419 0 
L 2419 1100 
L 313 1100 
L 313 1709 
L 2253 4666 
z
" id="DejaVuSans-34" transform="scale(0.015625)"/>
       </defs>
       <use xlink:href="#DejaVuSans-34"/>
       <use x="63.623047" xlink:href="#DejaVuSans-30"/>
       <use x="127.246094" xlink:href="#DejaVuSans-30"/>
      </g>
     </g>
    </g>
    <g id="text_10">
     <!-- Epoch -->
     <g transform="translate(213.193594 339.659781)scale(0.15 -0.15)">
      <defs>
       <path d="M 628 4666 
L 3578 4666 
L 3578 4134 
L 1259 4134 
L 1259 2753 
L 3481 2753 
L 3481 2222 
L 1259 2222 
L 1259 531 
L 3634 531 
L 3634 0 
L 628 0 
L 628 4666 
z
" id="DejaVuSans-45" transform="scale(0.015625)"/>
       <path d="M 1159 525 
L 1159 -1331 
L 581 -1331 
L 581 3500 
L 1159 3500 
L 1159 2969 
Q 1341 3281 1617 3432 
Q 1894 3584 2278 3584 
Q 2916 3584 3314 3078 
Q 3713 2572 3713 1747 
Q 3713 922 3314 415 
Q 2916 -91 2278 -91 
Q 1894 -91 1617 61 
Q 1341 213 1159 525 
z
M 3116 1747 
Q 3116 2381 2855 2742 
Q 2594 3103 2138 3103 
Q 1681 3103 1420 2742 
Q 1159 2381 1159 1747 
Q 1159 1113 1420 752 
Q 1681 391 2138 391 
Q 2594 391 2855 752 
Q 3116 1113 3116 1747 
z
" id="DejaVuSans-70" transform="scale(0.015625)"/>
       <path d="M 1959 3097 
Q 1497 3097 1228 2736 
Q 959 2375 959 1747 
Q 959 1119 1226 758 
Q 1494 397 1959 397 
Q 2419 397 2687 759 
Q 2956 1122 2956 1747 
Q 2956 2369 2687 2733 
Q 2419 3097 1959 3097 
z
M 1959 3584 
Q 2709 3584 3137 3096 
Q 3566 2609 3566 1747 
Q 3566 888 3137 398 
Q 2709 -91 1959 -91 
Q 1206 -91 779 398 
Q 353 888 353 1747 
Q 353 2609 779 3096 
Q 1206 3584 1959 3584 
z
" id="DejaVuSans-6f" transform="scale(0.015625)"/>
       <path d="M 3122 3366 
L 3122 2828 
Q 2878 2963 2633 3030 
Q 2388 3097 2138 3097 
Q 1578 3097 1268 2742 
Q 959 2388 959 1747 
Q 959 1106 1268 751 
Q 1578 397 2138 397 
Q 2388 397 2633 464 
Q 2878 531 3122 666 
L 3122 134 
Q 2881 22 2623 -34 
Q 2366 -91 2075 -91 
Q 1284 -91 818 406 
Q 353 903 353 1747 
Q 353 2603 823 3093 
Q 1294 3584 2113 3584 
Q 2378 3584 2631 3529 
Q 2884 3475 3122 3366 
z
" id="DejaVuSans-63" transform="scale(0.015625)"/>
       <path d="M 3513 2113 
L 3513 0 
L 2938 0 
L 2938 2094 
Q 2938 2591 2744 2837 
Q 2550 3084 2163 3084 
Q 1697 3084 1428 2787 
Q 1159 2491 1159 1978 
L 1159 0 
L 581 0 
L 581 4863 
L 1159 4863 
L 1159 2956 
Q 1366 3272 1645 3428 
Q 1925 3584 2291 3584 
Q 2894 3584 3203 3211 
Q 3513 2838 3513 2113 
z
" id="DejaVuSans-68" transform="scale(0.015625)"/>
      </defs>
      <use xlink:href="#DejaVuSans-45"/>
      <use x="63.183594" xlink:href="#DejaVuSans-70"/>
      <use x="126.660156" xlink:href="#DejaVuSans-6f"/>
      <use x="187.841797" xlink:href="#DejaVuSans-63"/>
      <use x="242.822266" xlink:href="#DejaVuSans-68"/>
     </g>
    </g>
   </g>
   <g id="matplotlib.axis_2">
    <g id="ytick_1">
     <g id="line2d_10">
      <defs>
       <path d="M 0 0 
L -3.5 0 
" id="m95145361ac" style="stroke:#000000;stroke-width:0.8;"/>
      </defs>
      <g>
       <use style="stroke:#000000;stroke-width:0.8;" x="57.6" xlink:href="#m95145361ac" y="286.353713"/>
      </g>
     </g>
     <g id="text_11">
      <!-- −1000 -->
      <g transform="translate(16.770313 290.152932)scale(0.1 -0.1)">
       <defs>
        <path d="M 678 2272 
L 4684 2272 
L 4684 1741 
L 678 1741 
L 678 2272 
z
" id="DejaVuSans-2212" transform="scale(0.015625)"/>
       </defs>
       <use xlink:href="#DejaVuSans-2212"/>
       <use x="83.789062" xlink:href="#DejaVuSans-31"/>
       <use x="147.412109" xlink:href="#DejaVuSans-30"/>
       <use x="211.035156" xlink:href="#DejaVuSans-30"/>
       <use x="274.658203" xlink:href="#DejaVuSans-30"/>
      </g>
     </g>
    </g>
    <g id="ytick_2">
     <g id="line2d_11">
      <g>
       <use style="stroke:#000000;stroke-width:0.8;" x="57.6" xlink:href="#m95145361ac" y="236.479645"/>
      </g>
     </g>
     <g id="text_12">
      <!-- −800 -->
      <g transform="translate(23.132812 240.278864)scale(0.1 -0.1)">
       <defs>
        <path d="M 2034 2216 
Q 1584 2216 1326 1975 
Q 1069 1734 1069 1313 
Q 1069 891 1326 650 
Q 1584 409 2034 409 
Q 2484 409 2743 651 
Q 3003 894 3003 1313 
Q 3003 1734 2745 1975 
Q 2488 2216 2034 2216 
z
M 1403 2484 
Q 997 2584 770 2862 
Q 544 3141 544 3541 
Q 544 4100 942 4425 
Q 1341 4750 2034 4750 
Q 2731 4750 3128 4425 
Q 3525 4100 3525 3541 
Q 3525 3141 3298 2862 
Q 3072 2584 2669 2484 
Q 3125 2378 3379 2068 
Q 3634 1759 3634 1313 
Q 3634 634 3220 271 
Q 2806 -91 2034 -91 
Q 1263 -91 848 271 
Q 434 634 434 1313 
Q 434 1759 690 2068 
Q 947 2378 1403 2484 
z
M 1172 3481 
Q 1172 3119 1398 2916 
Q 1625 2713 2034 2713 
Q 2441 2713 2670 2916 
Q 2900 3119 2900 3481 
Q 2900 3844 2670 4047 
Q 2441 4250 2034 4250 
Q 1625 4250 1398 4047 
Q 1172 3844 1172 3481 
z
" id="DejaVuSans-38" transform="scale(0.015625)"/>
       </defs>
       <use xlink:href="#DejaVuSans-2212"/>
       <use x="83.789062" xlink:href="#DejaVuSans-38"/>
       <use x="147.412109" xlink:href="#DejaVuSans-30"/>
       <use x="211.035156" xlink:href="#DejaVuSans-30"/>
      </g>
     </g>
    </g>
    <g id="ytick_3">
     <g id="line2d_12">
      <g>
       <use style="stroke:#000000;stroke-width:0.8;" x="57.6" xlink:href="#m95145361ac" y="186.605577"/>
      </g>
     </g>
     <g id="text_13">
      <!-- −600 -->
      <g transform="translate(23.132812 190.404796)scale(0.1 -0.1)">
       <defs>
        <path d="M 2113 2584 
Q 1688 2584 1439 2293 
Q 1191 2003 1191 1497 
Q 1191 994 1439 701 
Q 1688 409 2113 409 
Q 2538 409 2786 701 
Q 3034 994 3034 1497 
Q 3034 2003 2786 2293 
Q 2538 2584 2113 2584 
z
M 3366 4563 
L 3366 3988 
Q 3128 4100 2886 4159 
Q 2644 4219 2406 4219 
Q 1781 4219 1451 3797 
Q 1122 3375 1075 2522 
Q 1259 2794 1537 2939 
Q 1816 3084 2150 3084 
Q 2853 3084 3261 2657 
Q 3669 2231 3669 1497 
Q 3669 778 3244 343 
Q 2819 -91 2113 -91 
Q 1303 -91 875 529 
Q 447 1150 447 2328 
Q 447 3434 972 4092 
Q 1497 4750 2381 4750 
Q 2619 4750 2861 4703 
Q 3103 4656 3366 4563 
z
" id="DejaVuSans-36" transform="scale(0.015625)"/>
       </defs>
       <use xlink:href="#DejaVuSans-2212"/>
       <use x="83.789062" xlink:href="#DejaVuSans-36"/>
       <use x="147.412109" xlink:href="#DejaVuSans-30"/>
       <use x="211.035156" xlink:href="#DejaVuSans-30"/>
      </g>
     </g>
    </g>
    <g id="ytick_4">
     <g id="line2d_13">
      <g>
       <use style="stroke:#000000;stroke-width:0.8;" x="57.6" xlink:href="#m95145361ac" y="136.731509"/>
      </g>
     </g>
     <g id="text_14">
      <!-- −400 -->
      <g transform="translate(23.132812 140.530728)scale(0.1 -0.1)">
       <use xlink:href="#DejaVuSans-2212"/>
       <use x="83.789062" xlink:href="#DejaVuSans-34"/>
       <use x="147.412109" xlink:href="#DejaVuSans-30"/>
       <use x="211.035156" xlink:href="#DejaVuSans-30"/>
      </g>
     </g>
    </g>
    <g id="ytick_5">
     <g id="line2d_14">
      <g>
       <use style="stroke:#000000;stroke-width:0.8;" x="57.6" xlink:href="#m95145361ac" y="86.857442"/>
      </g>
     </g>
     <g id="text_15">
      <!-- −200 -->
      <g transform="translate(23.132812 90.65666)scale(0.1 -0.1)">
       <use xlink:href="#DejaVuSans-2212"/>
       <use x="83.789062" xlink:href="#DejaVuSans-32"/>
       <use x="147.412109" xlink:href="#DejaVuSans-30"/>
       <use x="211.035156" xlink:href="#DejaVuSans-30"/>
      </g>
     </g>
    </g>
    <g id="text_16">
     <!-- Loss -->
     <g transform="translate(9.650781 190.978781)rotate(-90)scale(0.15 -0.15)">
      <defs>
       <path d="M 628 4666 
L 1259 4666 
L 1259 531 
L 3531 531 
L 3531 0 
L 628 0 
L 628 4666 
z
" id="DejaVuSans-4c" transform="scale(0.015625)"/>
       <path d="M 2834 3397 
L 2834 2853 
Q 2591 2978 2328 3040 
Q 2066 3103 1784 3103 
Q 1356 3103 1142 2972 
Q 928 2841 928 2578 
Q 928 2378 1081 2264 
Q 1234 2150 1697 2047 
L 1894 2003 
Q 2506 1872 2764 1633 
Q 3022 1394 3022 966 
Q 3022 478 2636 193 
Q 2250 -91 1575 -91 
Q 1294 -91 989 -36 
Q 684 19 347 128 
L 347 722 
Q 666 556 975 473 
Q 1284 391 1588 391 
Q 1994 391 2212 530 
Q 2431 669 2431 922 
Q 2431 1156 2273 1281 
Q 2116 1406 1581 1522 
L 1381 1569 
Q 847 1681 609 1914 
Q 372 2147 372 2553 
Q 372 3047 722 3315 
Q 1072 3584 1716 3584 
Q 2034 3584 2315 3537 
Q 2597 3491 2834 3397 
z
" id="DejaVuSans-73" transform="scale(0.015625)"/>
      </defs>
      <use xlink:href="#DejaVuSans-4c"/>
      <use x="53.962891" xlink:href="#DejaVuSans-6f"/>
      <use x="115.144531" xlink:href="#DejaVuSans-73"/>
      <use x="167.244141" xlink:href="#DejaVuSans-73"/>
     </g>
    </g>
   </g>
   <g id="line2d_15">
    <path clip-path="url(#p5a54fd907a)" d="M 73.832727 53.568 
L 74.646398 117.396312 
L 75.460068 114.18479 
L 76.273739 136.486216 
L 77.087409 144.047377 
L 77.90108 156.636264 
L 78.714751 154.695749 
L 79.528421 168.095566 
L 80.342092 162.08954 
L 81.155762 163.665226 
L 81.969433 173.229307 
L 82.783103 175.025315 
L 83.596774 179.243816 
L 84.410444 179.591496 
L 85.224115 181.244828 
L 86.037785 187.830485 
L 86.851456 186.8915 
L 87.665126 198.349982 
L 88.478797 186.864713 
L 89.292468 205.931345 
L 90.106138 197.897719 
L 90.919809 209.32169 
L 91.733479 191.379411 
L 92.54715 206.025028 
L 93.36082 199.682576 
L 94.174491 215.674707 
L 94.988161 208.903025 
L 95.801832 182.941495 
L 96.615502 216.931324 
L 97.429173 216.392874 
L 98.242843 220.14946 
L 99.056514 222.304423 
L 99.870185 207.498745 
L 100.683855 225.573315 
L 101.497526 214.170646 
L 102.311196 212.432486 
L 103.124867 216.274263 
L 103.938537 214.338788 
L 104.752208 230.979297 
L 105.565878 216.349598 
L 106.379549 219.484511 
L 107.193219 223.289902 
L 108.00689 230.401513 
L 108.82056 217.65236 
L 109.634231 209.985594 
L 110.447902 225.579656 
L 111.261572 229.058744 
L 112.075243 228.0393 
L 112.888913 236.160281 
L 113.702584 231.988623 
L 114.516254 232.809644 
L 115.329925 229.524395 
L 116.957266 240.815772 
L 117.770936 242.434056 
L 118.584607 236.708418 
L 119.398278 237.602062 
L 120.211948 246.258545 
L 121.025619 241.813766 
L 121.839289 245.384105 
L 123.46663 229.831574 
L 124.280301 229.584224 
L 125.093971 238.667269 
L 125.907642 234.937646 
L 126.721312 249.423348 
L 127.534983 240.627728 
L 128.348653 241.098459 
L 129.162324 237.900423 
L 129.975995 245.214441 
L 130.789665 234.243741 
L 131.603336 236.667373 
L 132.417006 240.474493 
L 133.230677 229.305842 
L 134.044347 234.645409 
L 134.858018 238.278327 
L 135.671688 233.094564 
L 136.485359 232.235828 
L 137.299029 242.454656 
L 138.1127 222.198457 
L 138.92637 252.28245 
L 139.740041 248.26931 
L 140.553712 236.632282 
L 141.367382 244.201029 
L 142.181053 246.652753 
L 142.994723 242.45176 
L 143.808394 246.153336 
L 144.622064 243.751923 
L 145.435735 245.074029 
L 146.249405 238.852553 
L 147.063076 248.931485 
L 147.876746 242.38703 
L 148.690417 240.252748 
L 149.504087 240.186455 
L 150.317758 246.960508 
L 151.131429 246.885168 
L 151.945099 241.005874 
L 152.75877 237.926966 
L 153.57244 246.572224 
L 154.386111 237.301439 
L 155.199781 248.190908 
L 156.013452 243.320263 
L 156.827122 237.636244 
L 157.640793 243.681293 
L 158.454463 251.478618 
L 159.268134 249.59204 
L 160.081805 250.828651 
L 160.895475 254.60076 
L 161.709146 245.573983 
L 162.522816 245.921621 
L 163.336487 233.413817 
L 164.150157 249.512374 
L 164.963828 244.691264 
L 165.777498 242.548746 
L 166.591169 253.097483 
L 167.404839 256.934699 
L 169.03218 252.468637 
L 169.845851 255.998385 
L 170.659522 244.009744 
L 171.473192 251.733497 
L 172.286863 249.738895 
L 173.100533 256.573871 
L 173.914204 254.530143 
L 174.727874 241.813761 
L 175.541545 251.273183 
L 176.355215 257.500209 
L 177.168886 251.219593 
L 177.982556 255.879044 
L 178.796227 259.763737 
L 179.609897 249.838988 
L 180.423568 255.57538 
L 181.237239 262.953481 
L 182.050909 259.116887 
L 182.86458 262.817044 
L 183.67825 243.294974 
L 184.491921 249.909885 
L 185.305591 251.064418 
L 186.119262 259.004716 
L 186.932932 255.810432 
L 187.746603 258.458259 
L 188.560273 270.800389 
L 189.373944 246.099902 
L 190.187614 254.744991 
L 191.001285 260.886634 
L 191.814956 257.961634 
L 192.628626 244.252516 
L 193.442297 254.610808 
L 194.255967 251.781042 
L 195.069638 250.146788 
L 195.883308 254.253591 
L 196.696979 265.440558 
L 197.510649 266.082102 
L 198.32432 263.841629 
L 199.13799 258.895715 
L 199.951661 265.833537 
L 200.765332 257.210282 
L 201.579002 261.285115 
L 202.392673 262.103508 
L 203.206343 259.717805 
L 204.020014 266.486706 
L 204.833684 261.578387 
L 205.647355 264.266559 
L 206.461025 213.369372 
L 207.274696 248.166926 
L 208.088366 257.098288 
L 208.902037 253.19862 
L 209.715707 268.215873 
L 210.529378 253.772348 
L 211.343049 252.570103 
L 212.156719 250.057436 
L 212.97039 255.866879 
L 213.78406 262.614868 
L 214.597731 263.102574 
L 215.411401 255.577227 
L 216.225072 270.842684 
L 217.038742 259.529514 
L 217.852413 262.561881 
L 218.666083 245.333449 
L 219.479754 257.036411 
L 220.293424 251.896678 
L 221.107095 251.87074 
L 221.920766 262.835698 
L 222.734436 265.467354 
L 223.548107 254.275925 
L 224.361777 254.919772 
L 225.175448 267.537745 
L 225.989118 252.085587 
L 226.802789 258.753283 
L 227.616459 267.445054 
L 228.43013 269.859569 
L 229.2438 264.840047 
L 230.057471 260.71077 
L 230.871141 257.543093 
L 232.498483 268.54803 
L 233.312153 260.937327 
L 234.125824 267.631881 
L 234.939494 255.835366 
L 235.753165 259.743786 
L 236.566835 272.390746 
L 237.380506 248.441995 
L 238.194176 268.885711 
L 239.007847 271.11797 
L 239.821517 256.747737 
L 240.635188 269.480734 
L 241.448859 259.269353 
L 242.262529 263.637493 
L 243.0762 273.36611 
L 243.88987 261.090944 
L 244.703541 269.049735 
L 245.517211 266.95082 
L 246.330882 265.571023 
L 247.144552 265.246398 
L 247.958223 251.35754 
L 249.585564 262.951256 
L 250.399234 257.29456 
L 251.212905 271.487728 
L 252.026576 263.619777 
L 252.840246 271.616973 
L 253.653917 268.737908 
L 254.467587 274.775257 
L 255.281258 269.058139 
L 256.094928 277.678758 
L 256.908599 264.577789 
L 257.722269 262.581056 
L 258.53594 261.009021 
L 259.34961 270.999538 
L 260.163281 268.691054 
L 260.976951 273.083265 
L 261.790622 273.644225 
L 262.604293 258.997224 
L 263.417963 271.316736 
L 264.231634 264.844732 
L 265.045304 265.564276 
L 265.858975 260.590842 
L 266.672645 259.134816 
L 267.486316 270.918984 
L 269.113657 254.795575 
L 269.927327 270.113188 
L 270.740998 269.169712 
L 271.554668 266.890548 
L 272.368339 270.083845 
L 273.18201 267.625878 
L 273.99568 263.777801 
L 274.809351 260.540295 
L 275.623021 267.379464 
L 276.436692 258.501493 
L 277.250362 274.312604 
L 278.064033 268.862816 
L 278.877703 271.703443 
L 279.691374 265.009111 
L 280.505044 269.72225 
L 281.318715 277.588873 
L 282.132386 276.80356 
L 282.946056 275.505917 
L 283.759727 270.313358 
L 284.573397 269.577451 
L 285.387068 266.590915 
L 286.200738 261.949015 
L 287.014409 269.452643 
L 287.828079 267.06236 
L 288.64175 269.875147 
L 289.45542 274.191594 
L 290.269091 271.799616 
L 291.082761 277.991513 
L 291.896432 268.09034 
L 292.710103 265.834804 
L 293.523773 262.937584 
L 294.337444 267.877446 
L 295.151114 276.93339 
L 295.964785 274.184754 
L 296.778455 274.210779 
L 297.592126 278.30859 
L 298.405796 274.234292 
L 299.219467 276.462009 
L 300.033137 277.822012 
L 300.846808 271.731191 
L 301.660478 275.649789 
L 302.474149 276.275923 
L 303.28782 279.088686 
L 304.10149 279.936778 
L 304.915161 285.02871 
L 305.728831 279.930188 
L 306.542502 268.541702 
L 307.356172 275.876351 
L 308.169843 274.355583 
L 308.983513 279.283153 
L 309.797184 267.63791 
L 310.610854 263.040681 
L 311.424525 277.238238 
L 312.238195 275.5444 
L 313.051866 278.473615 
L 313.865537 286.168788 
L 314.679207 284.024108 
L 315.492878 279.376095 
L 316.306548 280.757114 
L 317.120219 281.656472 
L 317.933889 280.347755 
L 318.74756 284.831462 
L 319.56123 257.80267 
L 320.374901 278.519946 
L 321.188571 277.44665 
L 322.002242 281.665436 
L 322.815913 277.558216 
L 323.629583 279.443998 
L 324.443254 278.953744 
L 325.256924 282.815019 
L 326.070595 274.58416 
L 326.884265 277.341963 
L 327.697936 284.004935 
L 328.511606 278.893321 
L 329.325277 281.525953 
L 330.138947 280.701116 
L 330.952618 272.255723 
L 331.766288 280.664489 
L 332.579959 274.809854 
L 333.39363 281.83193 
L 334.2073 274.345017 
L 335.020971 275.333701 
L 335.834641 280.900975 
L 336.648312 282.84968 
L 337.461982 278.516681 
L 338.275653 285.838483 
L 339.089323 275.802041 
L 339.902994 283.248556 
L 340.716664 279.754344 
L 341.530335 279.757496 
L 342.344005 273.369225 
L 343.157676 282.553356 
L 343.971347 281.272482 
L 344.785017 279.704428 
L 345.598688 274.469043 
L 346.412358 272.56329 
L 347.226029 265.243259 
L 348.039699 272.693255 
L 348.85337 275.70859 
L 349.66704 281.715058 
L 350.480711 277.830693 
L 351.294381 286.785467 
L 352.108052 269.199428 
L 352.921722 276.251137 
L 354.549064 287.852794 
L 355.362734 269.484634 
L 356.176405 277.638334 
L 356.990075 271.179398 
L 357.803746 285.550958 
L 358.617416 283.193136 
L 359.431087 281.559172 
L 360.244757 286.551067 
L 361.058428 288.940381 
L 361.872098 279.347627 
L 362.685769 288.369611 
L 363.49944 278.675216 
L 364.31311 285.982985 
L 365.126781 285.661711 
L 365.940451 290.135008 
L 366.754122 278.099843 
L 367.567792 285.013926 
L 368.381463 277.253546 
L 369.195133 276.129732 
L 370.008804 290.075498 
L 370.822474 281.897165 
L 371.636145 281.48981 
L 372.449815 277.141774 
L 373.263486 282.480872 
L 374.077157 286.308442 
L 374.890827 287.892036 
L 375.704498 290.790072 
L 377.331839 286.900113 
L 378.145509 281.657236 
L 378.95918 282.425764 
L 379.77285 274.92484 
L 381.400191 294.937783 
L 382.213862 280.115925 
L 383.027532 268.000203 
L 383.841203 267.680584 
L 384.654874 287.118427 
L 385.468544 281.270388 
L 386.282215 278.821371 
L 387.095885 289.568896 
L 387.909556 284.331647 
L 388.723226 288.458303 
L 389.536897 285.24615 
L 390.350567 286.082905 
L 391.164238 282.309423 
L 391.977908 279.700191 
L 392.791579 295.488 
L 393.605249 279.119395 
L 394.41892 285.165107 
L 395.232591 290.227322 
L 396.046261 287.650291 
L 396.859932 289.551337 
L 397.673602 288.763363 
L 398.487273 280.801553 
L 398.487273 280.801553 
" style="fill:none;stroke:#1f77b4;stroke-linecap:square;stroke-width:1.5;"/>
   </g>
   <g id="line2d_16">
    <path clip-path="url(#p5a54fd907a)" d="M 73.832727 110.39191 
L 74.646398 125.871183 
L 75.460068 105.937196 
L 76.273739 146.141952 
L 77.087409 152.488624 
L 77.90108 149.64811 
L 78.714751 164.390618 
L 79.528421 166.979406 
L 80.342092 170.582674 
L 81.155762 167.030496 
L 81.969433 175.76064 
L 82.783103 176.379325 
L 83.596774 178.594108 
L 84.410444 185.559174 
L 85.224115 188.673573 
L 86.037785 188.44998 
L 86.851456 193.751191 
L 87.665126 193.447367 
L 88.478797 178.587302 
L 89.292468 200.275485 
L 90.106138 204.268223 
L 90.919809 201.044567 
L 91.733479 189.168952 
L 92.54715 207.308865 
L 93.36082 200.90865 
L 94.174491 209.657665 
L 94.988161 199.125017 
L 95.801832 216.296507 
L 96.615502 217.26764 
L 97.429173 215.238139 
L 98.242843 226.471236 
L 99.056514 207.648394 
L 99.870185 221.773 
L 100.683855 217.732363 
L 101.497526 224.294963 
L 102.311196 217.518194 
L 103.124867 229.415681 
L 103.938537 224.851989 
L 104.752208 221.608599 
L 105.565878 227.496295 
L 106.379549 219.553799 
L 107.193219 225.081557 
L 108.00689 229.491006 
L 108.82056 231.57251 
L 109.634231 211.432267 
L 110.447902 230.654499 
L 111.261572 225.744303 
L 112.075243 245.279522 
L 112.888913 225.649117 
L 113.702584 220.266256 
L 114.516254 231.502582 
L 115.329925 233.451706 
L 116.143595 240.69735 
L 116.957266 237.758368 
L 117.770936 232.845859 
L 118.584607 234.784766 
L 119.398278 242.071584 
L 120.211948 233.424762 
L 121.025619 236.630512 
L 121.839289 239.352382 
L 122.65296 234.708401 
L 123.46663 237.728639 
L 124.280301 233.614623 
L 125.093971 234.089314 
L 125.907642 244.790229 
L 126.721312 241.127005 
L 127.534983 240.044825 
L 129.162324 241.4585 
L 129.975995 235.322989 
L 130.789665 243.438973 
L 131.603336 225.9378 
L 132.417006 241.828208 
L 133.230677 243.228602 
L 134.044347 241.001663 
L 134.858018 242.727513 
L 135.671688 240.917259 
L 136.485359 233.950975 
L 137.299029 233.94113 
L 138.1127 239.34214 
L 138.92637 234.37657 
L 140.553712 238.870133 
L 141.367382 240.326218 
L 142.181053 235.935474 
L 142.994723 249.835033 
L 143.808394 243.752453 
L 144.622064 245.352818 
L 145.435735 236.099446 
L 146.249405 238.791587 
L 147.063076 246.25961 
L 147.876746 239.166372 
L 148.690417 245.369659 
L 149.504087 177.052366 
L 150.317758 250.647649 
L 151.131429 246.515998 
L 151.945099 253.025573 
L 152.75877 211.363224 
L 153.57244 249.595784 
L 154.386111 243.054591 
L 155.199781 253.486138 
L 156.013452 254.119571 
L 156.827122 244.261199 
L 157.640793 247.701036 
L 158.454463 244.13297 
L 159.268134 249.017611 
L 160.081805 239.940259 
L 160.895475 255.468637 
L 161.709146 249.658296 
L 162.522816 241.136487 
L 163.336487 238.924637 
L 164.150157 259.475023 
L 164.963828 250.328175 
L 165.777498 246.66003 
L 167.404839 257.836005 
L 168.21851 258.242421 
L 169.03218 253.176489 
L 169.845851 255.061384 
L 170.659522 247.870586 
L 171.473192 250.398412 
L 172.286863 244.039069 
L 173.100533 254.111924 
L 173.914204 251.390292 
L 174.727874 251.940275 
L 175.541545 247.324535 
L 176.355215 256.26893 
L 177.168886 257.317453 
L 177.982556 261.251265 
L 178.796227 259.704787 
L 179.609897 244.584296 
L 180.423568 254.720864 
L 181.237239 258.367791 
L 182.050909 252.325108 
L 182.86458 254.186838 
L 183.67825 253.58445 
L 184.491921 255.308251 
L 185.305591 249.114904 
L 186.119262 255.949051 
L 186.932932 254.113974 
L 187.746603 258.973487 
L 188.560273 255.52308 
L 189.373944 254.891957 
L 190.187614 250.397966 
L 191.001285 250.956334 
L 191.814956 254.623041 
L 192.628626 228.016899 
L 193.442297 250.296557 
L 194.255967 255.732459 
L 195.069638 255.366987 
L 195.883308 252.546625 
L 196.696979 247.097733 
L 197.510649 257.418941 
L 198.32432 249.211779 
L 199.13799 259.837505 
L 199.951661 265.263429 
L 200.765332 260.082863 
L 201.579002 265.668388 
L 202.392673 258.199539 
L 203.206343 257.518075 
L 204.020014 254.063218 
L 205.647355 258.88777 
L 206.461025 234.500056 
L 208.088366 262.179058 
L 208.902037 256.135809 
L 209.715707 258.406669 
L 210.529378 254.442732 
L 211.343049 247.082452 
L 212.156719 256.342312 
L 212.97039 255.840194 
L 213.78406 258.052498 
L 214.597731 253.791162 
L 215.411401 250.168251 
L 216.225072 261.526646 
L 217.038742 262.707094 
L 217.852413 264.873446 
L 218.666083 262.35394 
L 219.479754 251.947409 
L 220.293424 262.898626 
L 221.107095 253.289251 
L 221.920766 259.324521 
L 222.734436 255.735329 
L 223.548107 267.868062 
L 224.361777 255.602742 
L 225.175448 261.560354 
L 225.989118 265.387694 
L 226.802789 260.5767 
L 227.616459 262.055191 
L 228.43013 263.223937 
L 229.2438 257.333544 
L 230.057471 263.404678 
L 230.871141 244.243162 
L 232.498483 271.393542 
L 233.312153 268.525836 
L 234.125824 266.17943 
L 234.939494 258.763332 
L 235.753165 259.666773 
L 236.566835 257.569892 
L 237.380506 267.354181 
L 238.194176 261.514523 
L 239.007847 261.733307 
L 239.821517 256.48333 
L 240.635188 250.139218 
L 242.262529 262.864952 
L 243.0762 271.461839 
L 243.88987 266.884479 
L 244.703541 260.488826 
L 245.517211 259.244773 
L 246.330882 267.054783 
L 247.144552 266.507008 
L 247.958223 266.718468 
L 248.771893 264.288845 
L 249.585564 262.395608 
L 250.399234 251.23888 
L 251.212905 260.932338 
L 252.026576 261.538267 
L 252.840246 263.861964 
L 253.653917 256.228859 
L 254.467587 265.304025 
L 255.281258 261.597971 
L 256.094928 265.298082 
L 256.908599 271.877187 
L 257.722269 244.807917 
L 258.53594 266.498367 
L 259.34961 259.822141 
L 260.163281 267.221732 
L 260.976951 264.008928 
L 261.790622 262.158937 
L 262.604293 265.298589 
L 263.417963 269.924456 
L 264.231634 265.522834 
L 265.045304 264.245841 
L 265.858975 264.02761 
L 266.672645 271.227308 
L 267.486316 268.259338 
L 268.299986 266.390052 
L 269.113657 272.196654 
L 269.927327 268.726621 
L 270.740998 261.738903 
L 271.554668 256.304524 
L 272.368339 259.637804 
L 273.18201 260.453232 
L 273.99568 258.679095 
L 274.809351 246.872619 
L 275.623021 258.3868 
L 276.436692 263.618299 
L 277.250362 260.933122 
L 278.064033 269.15388 
L 278.877703 266.982738 
L 279.691374 275.13077 
L 280.505044 266.607369 
L 281.318715 264.73197 
L 282.132386 268.702733 
L 282.946056 268.481681 
L 283.759727 260.832251 
L 284.573397 269.710222 
L 286.200738 264.328337 
L 287.014409 273.322267 
L 287.828079 260.805819 
L 288.64175 269.944179 
L 289.45542 272.010153 
L 290.269091 256.685408 
L 291.082761 262.939071 
L 291.896432 261.599812 
L 292.710103 269.419993 
L 293.523773 263.62643 
L 294.337444 272.960964 
L 295.151114 262.95005 
L 295.964785 268.668559 
L 296.778455 254.88241 
L 297.592126 264.579733 
L 298.405796 278.647664 
L 299.219467 270.446037 
L 300.033137 268.134368 
L 300.846808 266.759499 
L 301.660478 270.581267 
L 302.474149 267.935583 
L 303.28782 270.827547 
L 304.10149 271.77874 
L 304.915161 255.456256 
L 305.728831 269.432597 
L 306.542502 267.574329 
L 307.356172 264.704611 
L 308.169843 268.193327 
L 308.983513 269.549181 
L 309.797184 265.236758 
L 310.610854 276.853413 
L 311.424525 268.558979 
L 312.238195 265.3889 
L 313.051866 272.324619 
L 313.865537 259.991919 
L 314.679207 278.055752 
L 315.492878 278.033409 
L 316.306548 275.752169 
L 317.120219 279.763831 
L 317.933889 271.804137 
L 318.74756 273.608466 
L 319.56123 262.934493 
L 320.374901 270.788977 
L 321.188571 275.708874 
L 322.002242 272.440303 
L 322.815913 270.000213 
L 323.629583 270.503124 
L 324.443254 269.334404 
L 325.256924 278.648447 
L 326.070595 270.793198 
L 326.884265 266.154449 
L 327.697936 265.309874 
L 328.511606 278.985329 
L 329.325277 266.143789 
L 330.138947 281.028055 
L 330.952618 274.153252 
L 331.766288 272.219982 
L 332.579959 273.094516 
L 333.39363 268.615713 
L 334.2073 282.703286 
L 335.020971 275.707359 
L 335.834641 274.375668 
L 336.648312 282.571649 
L 337.461982 274.855178 
L 338.275653 275.557064 
L 339.089323 277.165027 
L 339.902994 282.474219 
L 341.530335 271.909648 
L 342.344005 271.531169 
L 343.157676 261.369869 
L 343.971347 270.8113 
L 344.785017 269.67046 
L 345.598688 276.37582 
L 346.412358 279.23934 
L 347.226029 277.977667 
L 348.039699 272.597628 
L 348.85337 273.154749 
L 349.66704 270.901831 
L 350.480711 266.252184 
L 351.294381 270.208327 
L 352.108052 283.288397 
L 352.921722 283.614522 
L 353.735393 285.553461 
L 354.549064 279.643688 
L 355.362734 278.844277 
L 356.176405 275.356748 
L 356.990075 282.431539 
L 358.617416 276.824593 
L 359.431087 272.892879 
L 360.244757 281.411257 
L 361.058428 275.238978 
L 361.872098 278.559801 
L 362.685769 270.341886 
L 363.49944 274.640245 
L 364.31311 276.586511 
L 365.126781 273.637154 
L 365.940451 273.788403 
L 366.754122 279.926424 
L 367.567792 270.588893 
L 368.381463 281.239187 
L 369.195133 276.684679 
L 370.008804 274.879803 
L 371.636145 281.950617 
L 372.449815 276.934406 
L 373.263486 270.192532 
L 374.077157 286.713957 
L 374.890827 271.808549 
L 375.704498 280.087567 
L 376.518168 274.834583 
L 377.331839 274.29831 
L 378.145509 269.687887 
L 378.95918 274.349208 
L 379.77285 272.138406 
L 380.586521 273.099145 
L 381.400191 283.314591 
L 382.213862 274.272463 
L 383.027532 241.468252 
L 383.841203 277.713556 
L 384.654874 270.753092 
L 385.468544 267.02261 
L 386.282215 269.864898 
L 387.095885 277.631674 
L 387.909556 287.916954 
L 388.723226 272.693173 
L 389.536897 279.418648 
L 390.350567 273.685145 
L 391.164238 284.09181 
L 391.977908 283.9919 
L 392.791579 287.0953 
L 393.605249 274.406729 
L 394.41892 274.700207 
L 395.232591 283.807861 
L 396.046261 286.205731 
L 396.859932 283.089062 
L 397.673602 282.604126 
L 398.487273 285.755737 
L 398.487273 285.755737 
" style="fill:none;stroke:#ff7f0e;stroke-linecap:square;stroke-width:1.5;"/>
   </g>
   <g id="patch_3">
    <path d="M 57.6 307.584 
L 57.6 41.472 
" style="fill:none;stroke:#000000;stroke-linecap:square;stroke-linejoin:miter;stroke-width:0.8;"/>
   </g>
   <g id="patch_4">
    <path d="M 414.72 307.584 
L 414.72 41.472 
" style="fill:none;stroke:#000000;stroke-linecap:square;stroke-linejoin:miter;stroke-width:0.8;"/>
   </g>
   <g id="patch_5">
    <path d="M 57.6 307.584 
L 414.72 307.584 
" style="fill:none;stroke:#000000;stroke-linecap:square;stroke-linejoin:miter;stroke-width:0.8;"/>
   </g>
   <g id="patch_6">
    <path d="M 57.6 41.472 
L 414.72 41.472 
" style="fill:none;stroke:#000000;stroke-linecap:square;stroke-linejoin:miter;stroke-width:0.8;"/>
   </g>
   <g id="legend_1">
    <g id="patch_7">
     <path d="M 303.845 78.82825 
L 407.72 78.82825 
Q 409.72 78.82825 409.72 76.82825 
L 409.72 48.472 
Q 409.72 46.472 407.72 46.472 
L 303.845 46.472 
Q 301.845 46.472 301.845 48.472 
L 301.845 76.82825 
Q 301.845 78.82825 303.845 78.82825 
z
" style="fill:#ffffff;opacity:0.8;stroke:#cccccc;stroke-linejoin:miter;"/>
    </g>
    <g id="line2d_17">
     <path d="M 305.845 54.570437 
L 325.845 54.570437 
" style="fill:none;stroke:#1f77b4;stroke-linecap:square;stroke-width:1.5;"/>
    </g>
    <g id="line2d_18"/>
    <g id="text_17">
     <!-- Train loss -->
     <g transform="translate(333.845 58.070437)scale(0.1 -0.1)">
      <defs>
       <path d="M -19 4666 
L 3928 4666 
L 3928 4134 
L 2272 4134 
L 2272 0 
L 1638 0 
L 1638 4134 
L -19 4134 
L -19 4666 
z
" id="DejaVuSans-54" transform="scale(0.015625)"/>
       <path d="M 2631 2963 
Q 2534 3019 2420 3045 
Q 2306 3072 2169 3072 
Q 1681 3072 1420 2755 
Q 1159 2438 1159 1844 
L 1159 0 
L 581 0 
L 581 3500 
L 1159 3500 
L 1159 2956 
Q 1341 3275 1631 3429 
Q 1922 3584 2338 3584 
Q 2397 3584 2469 3576 
Q 2541 3569 2628 3553 
L 2631 2963 
z
" id="DejaVuSans-72" transform="scale(0.015625)"/>
       <path d="M 2194 1759 
Q 1497 1759 1228 1600 
Q 959 1441 959 1056 
Q 959 750 1161 570 
Q 1363 391 1709 391 
Q 2188 391 2477 730 
Q 2766 1069 2766 1631 
L 2766 1759 
L 2194 1759 
z
M 3341 1997 
L 3341 0 
L 2766 0 
L 2766 531 
Q 2569 213 2275 61 
Q 1981 -91 1556 -91 
Q 1019 -91 701 211 
Q 384 513 384 1019 
Q 384 1609 779 1909 
Q 1175 2209 1959 2209 
L 2766 2209 
L 2766 2266 
Q 2766 2663 2505 2880 
Q 2244 3097 1772 3097 
Q 1472 3097 1187 3025 
Q 903 2953 641 2809 
L 641 3341 
Q 956 3463 1253 3523 
Q 1550 3584 1831 3584 
Q 2591 3584 2966 3190 
Q 3341 2797 3341 1997 
z
" id="DejaVuSans-61" transform="scale(0.015625)"/>
       <path d="M 603 3500 
L 1178 3500 
L 1178 0 
L 603 0 
L 603 3500 
z
M 603 4863 
L 1178 4863 
L 1178 4134 
L 603 4134 
L 603 4863 
z
" id="DejaVuSans-69" transform="scale(0.015625)"/>
       <path d="M 3513 2113 
L 3513 0 
L 2938 0 
L 2938 2094 
Q 2938 2591 2744 2837 
Q 2550 3084 2163 3084 
Q 1697 3084 1428 2787 
Q 1159 2491 1159 1978 
L 1159 0 
L 581 0 
L 581 3500 
L 1159 3500 
L 1159 2956 
Q 1366 3272 1645 3428 
Q 1925 3584 2291 3584 
Q 2894 3584 3203 3211 
Q 3513 2838 3513 2113 
z
" id="DejaVuSans-6e" transform="scale(0.015625)"/>
       <path id="DejaVuSans-20" transform="scale(0.015625)"/>
       <path d="M 603 4863 
L 1178 4863 
L 1178 0 
L 603 0 
L 603 4863 
z
" id="DejaVuSans-6c" transform="scale(0.015625)"/>
      </defs>
      <use xlink:href="#DejaVuSans-54"/>
      <use x="46.333984" xlink:href="#DejaVuSans-72"/>
      <use x="87.447266" xlink:href="#DejaVuSans-61"/>
      <use x="148.726562" xlink:href="#DejaVuSans-69"/>
      <use x="176.509766" xlink:href="#DejaVuSans-6e"/>
      <use x="239.888672" xlink:href="#DejaVuSans-20"/>
      <use x="271.675781" xlink:href="#DejaVuSans-6c"/>
      <use x="299.458984" xlink:href="#DejaVuSans-6f"/>
      <use x="360.640625" xlink:href="#DejaVuSans-73"/>
      <use x="412.740234" xlink:href="#DejaVuSans-73"/>
     </g>
    </g>
    <g id="line2d_19">
     <path d="M 305.845 69.248562 
L 325.845 69.248562 
" style="fill:none;stroke:#ff7f0e;stroke-linecap:square;stroke-width:1.5;"/>
    </g>
    <g id="line2d_20"/>
    <g id="text_18">
     <!-- Validation loss -->
     <g transform="translate(333.845 72.748562)scale(0.1 -0.1)">
      <defs>
       <path d="M 1831 0 
L 50 4666 
L 709 4666 
L 2188 738 
L 3669 4666 
L 4325 4666 
L 2547 0 
L 1831 0 
z
" id="DejaVuSans-56" transform="scale(0.015625)"/>
       <path d="M 2906 2969 
L 2906 4863 
L 3481 4863 
L 3481 0 
L 2906 0 
L 2906 525 
Q 2725 213 2448 61 
Q 2172 -91 1784 -91 
Q 1150 -91 751 415 
Q 353 922 353 1747 
Q 353 2572 751 3078 
Q 1150 3584 1784 3584 
Q 2172 3584 2448 3432 
Q 2725 3281 2906 2969 
z
M 947 1747 
Q 947 1113 1208 752 
Q 1469 391 1925 391 
Q 2381 391 2643 752 
Q 2906 1113 2906 1747 
Q 2906 2381 2643 2742 
Q 2381 3103 1925 3103 
Q 1469 3103 1208 2742 
Q 947 2381 947 1747 
z
" id="DejaVuSans-64" transform="scale(0.015625)"/>
       <path d="M 1172 4494 
L 1172 3500 
L 2356 3500 
L 2356 3053 
L 1172 3053 
L 1172 1153 
Q 1172 725 1289 603 
Q 1406 481 1766 481 
L 2356 481 
L 2356 0 
L 1766 0 
Q 1100 0 847 248 
Q 594 497 594 1153 
L 594 3053 
L 172 3053 
L 172 3500 
L 594 3500 
L 594 4494 
L 1172 4494 
z
" id="DejaVuSans-74" transform="scale(0.015625)"/>
      </defs>
      <use xlink:href="#DejaVuSans-56"/>
      <use x="60.658203" xlink:href="#DejaVuSans-61"/>
      <use x="121.9375" xlink:href="#DejaVuSans-6c"/>
      <use x="149.720703" xlink:href="#DejaVuSans-69"/>
      <use x="177.503906" xlink:href="#DejaVuSans-64"/>
      <use x="240.980469" xlink:href="#DejaVuSans-61"/>
      <use x="302.259766" xlink:href="#DejaVuSans-74"/>
      <use x="341.46875" xlink:href="#DejaVuSans-69"/>
      <use x="369.251953" xlink:href="#DejaVuSans-6f"/>
      <use x="430.433594" xlink:href="#DejaVuSans-6e"/>
      <use x="493.8125" xlink:href="#DejaVuSans-20"/>
      <use x="525.599609" xlink:href="#DejaVuSans-6c"/>
      <use x="553.382812" xlink:href="#DejaVuSans-6f"/>
      <use x="614.564453" xlink:href="#DejaVuSans-73"/>
      <use x="666.664062" xlink:href="#DejaVuSans-73"/>
     </g>
    </g>
   </g>
  </g>
 </g>
 <defs>
  <clipPath id="p5a54fd907a">
   <rect height="266.112" width="357.12" x="57.6" y="41.472"/>
  </clipPath>
 </defs>
</svg>
