<?xml version="1.0" encoding="utf-8" standalone="no"?>
<!DOCTYPE svg PUBLIC "-//W3C//DTD SVG 1.1//EN"
  "http://www.w3.org/Graphics/SVG/1.1/DTD/svg11.dtd">
<svg height="345.6pt" version="1.1" viewBox="0 0 460.8 345.6" width="460.8pt" xmlns="http://www.w3.org/2000/svg" xmlns:xlink="http://www.w3.org/1999/xlink">
 <metadata>
  <rdf:RDF xmlns:cc="http://creativecommons.org/ns#" xmlns:dc="http://purl.org/dc/elements/1.1/" xmlns:rdf="http://www.w3.org/1999/02/22-rdf-syntax-ns#">
   <cc:Work>
    <dc:type rdf:resource="http://purl.org/dc/dcmitype/StillImage"/>
    <dc:date>2021-07-14T14:44:42.058847</dc:date>
    <dc:format>image/svg+xml</dc:format>
    <dc:creator>
     <cc:Agent>
      <dc:title>Matplotlib v3.4.2, https://matplotlib.org/</dc:title>
     </cc:Agent>
    </dc:creator>
   </cc:Work>
  </rdf:RDF>
 </metadata>
 <defs>
  <style type="text/css">*{stroke-linecap:butt;stroke-linejoin:round;}</style>
 </defs>
 <g id="figure_1">
  <g id="patch_1">
   <path d="M 0 345.6 
L 460.8 345.6 
L 460.8 0 
L 0 0 
z
" style="fill:#ffffff;"/>
  </g>
  <g id="axes_1">
   <g id="patch_2">
    <path d="M 57.6 307.584 
L 414.72 307.584 
L 414.72 41.472 
L 57.6 41.472 
z
" style="fill:#ffffff;"/>
   </g>
   <g id="matplotlib.axis_1">
    <g id="xtick_1">
     <g id="line2d_1">
      <defs>
       <path d="M 0 0 
L 0 3.5 
" id="m5de7b0464b" style="stroke:#000000;stroke-width:0.8;"/>
      </defs>
      <g>
       <use style="stroke:#000000;stroke-width:0.8;" x="73.019057" xlink:href="#m5de7b0464b" y="307.584"/>
      </g>
     </g>
     <g id="text_1">
      <!-- 0 -->
      <g transform="translate(69.837807 322.182437)scale(0.1 -0.1)">
       <defs>
        <path d="M 2034 4250 
Q 1547 4250 1301 3770 
Q 1056 3291 1056 2328 
Q 1056 1369 1301 889 
Q 1547 409 2034 409 
Q 2525 409 2770 889 
Q 3016 1369 3016 2328 
Q 3016 3291 2770 3770 
Q 2525 4250 2034 4250 
z
M 2034 4750 
Q 2819 4750 3233 4129 
Q 3647 3509 3647 2328 
Q 3647 1150 3233 529 
Q 2819 -91 2034 -91 
Q 1250 -91 836 529 
Q 422 1150 422 2328 
Q 422 3509 836 4129 
Q 1250 4750 2034 4750 
z
" id="DejaVuSans-30" transform="scale(0.015625)"/>
       </defs>
       <use xlink:href="#DejaVuSans-30"/>
      </g>
     </g>
    </g>
    <g id="xtick_2">
     <g id="line2d_2">
      <g>
       <use style="stroke:#000000;stroke-width:0.8;" x="113.702584" xlink:href="#m5de7b0464b" y="307.584"/>
      </g>
     </g>
     <g id="text_2">
      <!-- 50 -->
      <g transform="translate(107.340084 322.182437)scale(0.1 -0.1)">
       <defs>
        <path d="M 691 4666 
L 3169 4666 
L 3169 4134 
L 1269 4134 
L 1269 2991 
Q 1406 3038 1543 3061 
Q 1681 3084 1819 3084 
Q 2600 3084 3056 2656 
Q 3513 2228 3513 1497 
Q 3513 744 3044 326 
Q 2575 -91 1722 -91 
Q 1428 -91 1123 -41 
Q 819 9 494 109 
L 494 744 
Q 775 591 1075 516 
Q 1375 441 1709 441 
Q 2250 441 2565 725 
Q 2881 1009 2881 1497 
Q 2881 1984 2565 2268 
Q 2250 2553 1709 2553 
Q 1456 2553 1204 2497 
Q 953 2441 691 2322 
L 691 4666 
z
" id="DejaVuSans-35" transform="scale(0.015625)"/>
       </defs>
       <use xlink:href="#DejaVuSans-35"/>
       <use x="63.623047" xlink:href="#DejaVuSans-30"/>
      </g>
     </g>
    </g>
    <g id="xtick_3">
     <g id="line2d_3">
      <g>
       <use style="stroke:#000000;stroke-width:0.8;" x="154.386111" xlink:href="#m5de7b0464b" y="307.584"/>
      </g>
     </g>
     <g id="text_3">
      <!-- 100 -->
      <g transform="translate(144.842361 322.182437)scale(0.1 -0.1)">
       <defs>
        <path d="M 794 531 
L 1825 531 
L 1825 4091 
L 703 3866 
L 703 4441 
L 1819 4666 
L 2450 4666 
L 2450 531 
L 3481 531 
L 3481 0 
L 794 0 
L 794 531 
z
" id="DejaVuSans-31" transform="scale(0.015625)"/>
       </defs>
       <use xlink:href="#DejaVuSans-31"/>
       <use x="63.623047" xlink:href="#DejaVuSans-30"/>
       <use x="127.246094" xlink:href="#DejaVuSans-30"/>
      </g>
     </g>
    </g>
    <g id="xtick_4">
     <g id="line2d_4">
      <g>
       <use style="stroke:#000000;stroke-width:0.8;" x="195.069638" xlink:href="#m5de7b0464b" y="307.584"/>
      </g>
     </g>
     <g id="text_4">
      <!-- 150 -->
      <g transform="translate(185.525888 322.182437)scale(0.1 -0.1)">
       <use xlink:href="#DejaVuSans-31"/>
       <use x="63.623047" xlink:href="#DejaVuSans-35"/>
       <use x="127.246094" xlink:href="#DejaVuSans-30"/>
      </g>
     </g>
    </g>
    <g id="xtick_5">
     <g id="line2d_5">
      <g>
       <use style="stroke:#000000;stroke-width:0.8;" x="235.753165" xlink:href="#m5de7b0464b" y="307.584"/>
      </g>
     </g>
     <g id="text_5">
      <!-- 200 -->
      <g transform="translate(226.209415 322.182437)scale(0.1 -0.1)">
       <defs>
        <path d="M 1228 531 
L 3431 531 
L 3431 0 
L 469 0 
L 469 531 
Q 828 903 1448 1529 
Q 2069 2156 2228 2338 
Q 2531 2678 2651 2914 
Q 2772 3150 2772 3378 
Q 2772 3750 2511 3984 
Q 2250 4219 1831 4219 
Q 1534 4219 1204 4116 
Q 875 4013 500 3803 
L 500 4441 
Q 881 4594 1212 4672 
Q 1544 4750 1819 4750 
Q 2544 4750 2975 4387 
Q 3406 4025 3406 3419 
Q 3406 3131 3298 2873 
Q 3191 2616 2906 2266 
Q 2828 2175 2409 1742 
Q 1991 1309 1228 531 
z
" id="DejaVuSans-32" transform="scale(0.015625)"/>
       </defs>
       <use xlink:href="#DejaVuSans-32"/>
       <use x="63.623047" xlink:href="#DejaVuSans-30"/>
       <use x="127.246094" xlink:href="#DejaVuSans-30"/>
      </g>
     </g>
    </g>
    <g id="xtick_6">
     <g id="line2d_6">
      <g>
       <use style="stroke:#000000;stroke-width:0.8;" x="276.436692" xlink:href="#m5de7b0464b" y="307.584"/>
      </g>
     </g>
     <g id="text_6">
      <!-- 250 -->
      <g transform="translate(266.892942 322.182437)scale(0.1 -0.1)">
       <use xlink:href="#DejaVuSans-32"/>
       <use x="63.623047" xlink:href="#DejaVuSans-35"/>
       <use x="127.246094" xlink:href="#DejaVuSans-30"/>
      </g>
     </g>
    </g>
    <g id="xtick_7">
     <g id="line2d_7">
      <g>
       <use style="stroke:#000000;stroke-width:0.8;" x="317.120219" xlink:href="#m5de7b0464b" y="307.584"/>
      </g>
     </g>
     <g id="text_7">
      <!-- 300 -->
      <g transform="translate(307.576469 322.182437)scale(0.1 -0.1)">
       <defs>
        <path d="M 2597 2516 
Q 3050 2419 3304 2112 
Q 3559 1806 3559 1356 
Q 3559 666 3084 287 
Q 2609 -91 1734 -91 
Q 1441 -91 1130 -33 
Q 819 25 488 141 
L 488 750 
Q 750 597 1062 519 
Q 1375 441 1716 441 
Q 2309 441 2620 675 
Q 2931 909 2931 1356 
Q 2931 1769 2642 2001 
Q 2353 2234 1838 2234 
L 1294 2234 
L 1294 2753 
L 1863 2753 
Q 2328 2753 2575 2939 
Q 2822 3125 2822 3475 
Q 2822 3834 2567 4026 
Q 2313 4219 1838 4219 
Q 1578 4219 1281 4162 
Q 984 4106 628 3988 
L 628 4550 
Q 988 4650 1302 4700 
Q 1616 4750 1894 4750 
Q 2613 4750 3031 4423 
Q 3450 4097 3450 3541 
Q 3450 3153 3228 2886 
Q 3006 2619 2597 2516 
z
" id="DejaVuSans-33" transform="scale(0.015625)"/>
       </defs>
       <use xlink:href="#DejaVuSans-33"/>
       <use x="63.623047" xlink:href="#DejaVuSans-30"/>
       <use x="127.246094" xlink:href="#DejaVuSans-30"/>
      </g>
     </g>
    </g>
    <g id="xtick_8">
     <g id="line2d_8">
      <g>
       <use style="stroke:#000000;stroke-width:0.8;" x="357.803746" xlink:href="#m5de7b0464b" y="307.584"/>
      </g>
     </g>
     <g id="text_8">
      <!-- 350 -->
      <g transform="translate(348.259996 322.182437)scale(0.1 -0.1)">
       <use xlink:href="#DejaVuSans-33"/>
       <use x="63.623047" xlink:href="#DejaVuSans-35"/>
       <use x="127.246094" xlink:href="#DejaVuSans-30"/>
      </g>
     </g>
    </g>
    <g id="xtick_9">
     <g id="line2d_9">
      <g>
       <use style="stroke:#000000;stroke-width:0.8;" x="398.487273" xlink:href="#m5de7b0464b" y="307.584"/>
      </g>
     </g>
     <g id="text_9">
      <!-- 400 -->
      <g transform="translate(388.943523 322.182437)scale(0.1 -0.1)">
       <defs>
        <path d="M 2419 4116 
L 825 1625 
L 2419 1625 
L 2419 4116 
z
M 2253 4666 
L 3047 4666 
L 3047 1625 
L 3713 1625 
L 3713 1100 
L 3047 1100 
L 3047 0 
L 2419 0 
L 2419 1100 
L 313 1100 
L 313 1709 
L 2253 4666 
z
" id="DejaVuSans-34" transform="scale(0.015625)"/>
       </defs>
       <use xlink:href="#DejaVuSans-34"/>
       <use x="63.623047" xlink:href="#DejaVuSans-30"/>
       <use x="127.246094" xlink:href="#DejaVuSans-30"/>
      </g>
     </g>
    </g>
    <g id="text_10">
     <!-- Epoch -->
     <g transform="translate(213.193594 339.659781)scale(0.15 -0.15)">
      <defs>
       <path d="M 628 4666 
L 3578 4666 
L 3578 4134 
L 1259 4134 
L 1259 2753 
L 3481 2753 
L 3481 2222 
L 1259 2222 
L 1259 531 
L 3634 531 
L 3634 0 
L 628 0 
L 628 4666 
z
" id="DejaVuSans-45" transform="scale(0.015625)"/>
       <path d="M 1159 525 
L 1159 -1331 
L 581 -1331 
L 581 3500 
L 1159 3500 
L 1159 2969 
Q 1341 3281 1617 3432 
Q 1894 3584 2278 3584 
Q 2916 3584 3314 3078 
Q 3713 2572 3713 1747 
Q 3713 922 3314 415 
Q 2916 -91 2278 -91 
Q 1894 -91 1617 61 
Q 1341 213 1159 525 
z
M 3116 1747 
Q 3116 2381 2855 2742 
Q 2594 3103 2138 3103 
Q 1681 3103 1420 2742 
Q 1159 2381 1159 1747 
Q 1159 1113 1420 752 
Q 1681 391 2138 391 
Q 2594 391 2855 752 
Q 3116 1113 3116 1747 
z
" id="DejaVuSans-70" transform="scale(0.015625)"/>
       <path d="M 1959 3097 
Q 1497 3097 1228 2736 
Q 959 2375 959 1747 
Q 959 1119 1226 758 
Q 1494 397 1959 397 
Q 2419 397 2687 759 
Q 2956 1122 2956 1747 
Q 2956 2369 2687 2733 
Q 2419 3097 1959 3097 
z
M 1959 3584 
Q 2709 3584 3137 3096 
Q 3566 2609 3566 1747 
Q 3566 888 3137 398 
Q 2709 -91 1959 -91 
Q 1206 -91 779 398 
Q 353 888 353 1747 
Q 353 2609 779 3096 
Q 1206 3584 1959 3584 
z
" id="DejaVuSans-6f" transform="scale(0.015625)"/>
       <path d="M 3122 3366 
L 3122 2828 
Q 2878 2963 2633 3030 
Q 2388 3097 2138 3097 
Q 1578 3097 1268 2742 
Q 959 2388 959 1747 
Q 959 1106 1268 751 
Q 1578 397 2138 397 
Q 2388 397 2633 464 
Q 2878 531 3122 666 
L 3122 134 
Q 2881 22 2623 -34 
Q 2366 -91 2075 -91 
Q 1284 -91 818 406 
Q 353 903 353 1747 
Q 353 2603 823 3093 
Q 1294 3584 2113 3584 
Q 2378 3584 2631 3529 
Q 2884 3475 3122 3366 
z
" id="DejaVuSans-63" transform="scale(0.015625)"/>
       <path d="M 3513 2113 
L 3513 0 
L 2938 0 
L 2938 2094 
Q 2938 2591 2744 2837 
Q 2550 3084 2163 3084 
Q 1697 3084 1428 2787 
Q 1159 2491 1159 1978 
L 1159 0 
L 581 0 
L 581 4863 
L 1159 4863 
L 1159 2956 
Q 1366 3272 1645 3428 
Q 1925 3584 2291 3584 
Q 2894 3584 3203 3211 
Q 3513 2838 3513 2113 
z
" id="DejaVuSans-68" transform="scale(0.015625)"/>
      </defs>
      <use xlink:href="#DejaVuSans-45"/>
      <use x="63.183594" xlink:href="#DejaVuSans-70"/>
      <use x="126.660156" xlink:href="#DejaVuSans-6f"/>
      <use x="187.841797" xlink:href="#DejaVuSans-63"/>
      <use x="242.822266" xlink:href="#DejaVuSans-68"/>
     </g>
    </g>
   </g>
   <g id="matplotlib.axis_2">
    <g id="ytick_1">
     <g id="line2d_10">
      <defs>
       <path d="M 0 0 
L -3.5 0 
" id="m50bd8754da" style="stroke:#000000;stroke-width:0.8;"/>
      </defs>
      <g>
       <use style="stroke:#000000;stroke-width:0.8;" x="57.6" xlink:href="#m50bd8754da" y="291.735008"/>
      </g>
     </g>
     <g id="text_11">
      <!-- 0 -->
      <g transform="translate(44.2375 295.534227)scale(0.1 -0.1)">
       <use xlink:href="#DejaVuSans-30"/>
      </g>
     </g>
    </g>
    <g id="ytick_2">
     <g id="line2d_11">
      <g>
       <use style="stroke:#000000;stroke-width:0.8;" x="57.6" xlink:href="#m50bd8754da" y="260.451913"/>
      </g>
     </g>
     <g id="text_12">
      <!-- 10000 -->
      <g transform="translate(18.7875 264.251132)scale(0.1 -0.1)">
       <use xlink:href="#DejaVuSans-31"/>
       <use x="63.623047" xlink:href="#DejaVuSans-30"/>
       <use x="127.246094" xlink:href="#DejaVuSans-30"/>
       <use x="190.869141" xlink:href="#DejaVuSans-30"/>
       <use x="254.492188" xlink:href="#DejaVuSans-30"/>
      </g>
     </g>
    </g>
    <g id="ytick_3">
     <g id="line2d_12">
      <g>
       <use style="stroke:#000000;stroke-width:0.8;" x="57.6" xlink:href="#m50bd8754da" y="229.168818"/>
      </g>
     </g>
     <g id="text_13">
      <!-- 20000 -->
      <g transform="translate(18.7875 232.968037)scale(0.1 -0.1)">
       <use xlink:href="#DejaVuSans-32"/>
       <use x="63.623047" xlink:href="#DejaVuSans-30"/>
       <use x="127.246094" xlink:href="#DejaVuSans-30"/>
       <use x="190.869141" xlink:href="#DejaVuSans-30"/>
       <use x="254.492188" xlink:href="#DejaVuSans-30"/>
      </g>
     </g>
    </g>
    <g id="ytick_4">
     <g id="line2d_13">
      <g>
       <use style="stroke:#000000;stroke-width:0.8;" x="57.6" xlink:href="#m50bd8754da" y="197.885724"/>
      </g>
     </g>
     <g id="text_14">
      <!-- 30000 -->
      <g transform="translate(18.7875 201.684943)scale(0.1 -0.1)">
       <use xlink:href="#DejaVuSans-33"/>
       <use x="63.623047" xlink:href="#DejaVuSans-30"/>
       <use x="127.246094" xlink:href="#DejaVuSans-30"/>
       <use x="190.869141" xlink:href="#DejaVuSans-30"/>
       <use x="254.492188" xlink:href="#DejaVuSans-30"/>
      </g>
     </g>
    </g>
    <g id="ytick_5">
     <g id="line2d_14">
      <g>
       <use style="stroke:#000000;stroke-width:0.8;" x="57.6" xlink:href="#m50bd8754da" y="166.602629"/>
      </g>
     </g>
     <g id="text_15">
      <!-- 40000 -->
      <g transform="translate(18.7875 170.401848)scale(0.1 -0.1)">
       <use xlink:href="#DejaVuSans-34"/>
       <use x="63.623047" xlink:href="#DejaVuSans-30"/>
       <use x="127.246094" xlink:href="#DejaVuSans-30"/>
       <use x="190.869141" xlink:href="#DejaVuSans-30"/>
       <use x="254.492188" xlink:href="#DejaVuSans-30"/>
      </g>
     </g>
    </g>
    <g id="ytick_6">
     <g id="line2d_15">
      <g>
       <use style="stroke:#000000;stroke-width:0.8;" x="57.6" xlink:href="#m50bd8754da" y="135.319534"/>
      </g>
     </g>
     <g id="text_16">
      <!-- 50000 -->
      <g transform="translate(18.7875 139.118753)scale(0.1 -0.1)">
       <use xlink:href="#DejaVuSans-35"/>
       <use x="63.623047" xlink:href="#DejaVuSans-30"/>
       <use x="127.246094" xlink:href="#DejaVuSans-30"/>
       <use x="190.869141" xlink:href="#DejaVuSans-30"/>
       <use x="254.492188" xlink:href="#DejaVuSans-30"/>
      </g>
     </g>
    </g>
    <g id="ytick_7">
     <g id="line2d_16">
      <g>
       <use style="stroke:#000000;stroke-width:0.8;" x="57.6" xlink:href="#m50bd8754da" y="104.03644"/>
      </g>
     </g>
     <g id="text_17">
      <!-- 60000 -->
      <g transform="translate(18.7875 107.835658)scale(0.1 -0.1)">
       <defs>
        <path d="M 2113 2584 
Q 1688 2584 1439 2293 
Q 1191 2003 1191 1497 
Q 1191 994 1439 701 
Q 1688 409 2113 409 
Q 2538 409 2786 701 
Q 3034 994 3034 1497 
Q 3034 2003 2786 2293 
Q 2538 2584 2113 2584 
z
M 3366 4563 
L 3366 3988 
Q 3128 4100 2886 4159 
Q 2644 4219 2406 4219 
Q 1781 4219 1451 3797 
Q 1122 3375 1075 2522 
Q 1259 2794 1537 2939 
Q 1816 3084 2150 3084 
Q 2853 3084 3261 2657 
Q 3669 2231 3669 1497 
Q 3669 778 3244 343 
Q 2819 -91 2113 -91 
Q 1303 -91 875 529 
Q 447 1150 447 2328 
Q 447 3434 972 4092 
Q 1497 4750 2381 4750 
Q 2619 4750 2861 4703 
Q 3103 4656 3366 4563 
z
" id="DejaVuSans-36" transform="scale(0.015625)"/>
       </defs>
       <use xlink:href="#DejaVuSans-36"/>
       <use x="63.623047" xlink:href="#DejaVuSans-30"/>
       <use x="127.246094" xlink:href="#DejaVuSans-30"/>
       <use x="190.869141" xlink:href="#DejaVuSans-30"/>
       <use x="254.492188" xlink:href="#DejaVuSans-30"/>
      </g>
     </g>
    </g>
    <g id="ytick_8">
     <g id="line2d_17">
      <g>
       <use style="stroke:#000000;stroke-width:0.8;" x="57.6" xlink:href="#m50bd8754da" y="72.753345"/>
      </g>
     </g>
     <g id="text_18">
      <!-- 70000 -->
      <g transform="translate(18.7875 76.552564)scale(0.1 -0.1)">
       <defs>
        <path d="M 525 4666 
L 3525 4666 
L 3525 4397 
L 1831 0 
L 1172 0 
L 2766 4134 
L 525 4134 
L 525 4666 
z
" id="DejaVuSans-37" transform="scale(0.015625)"/>
       </defs>
       <use xlink:href="#DejaVuSans-37"/>
       <use x="63.623047" xlink:href="#DejaVuSans-30"/>
       <use x="127.246094" xlink:href="#DejaVuSans-30"/>
       <use x="190.869141" xlink:href="#DejaVuSans-30"/>
       <use x="254.492188" xlink:href="#DejaVuSans-30"/>
      </g>
     </g>
    </g>
    <g id="text_19">
     <!-- Loss -->
     <g transform="translate(11.667969 190.978781)rotate(-90)scale(0.15 -0.15)">
      <defs>
       <path d="M 628 4666 
L 1259 4666 
L 1259 531 
L 3531 531 
L 3531 0 
L 628 0 
L 628 4666 
z
" id="DejaVuSans-4c" transform="scale(0.015625)"/>
       <path d="M 2834 3397 
L 2834 2853 
Q 2591 2978 2328 3040 
Q 2066 3103 1784 3103 
Q 1356 3103 1142 2972 
Q 928 2841 928 2578 
Q 928 2378 1081 2264 
Q 1234 2150 1697 2047 
L 1894 2003 
Q 2506 1872 2764 1633 
Q 3022 1394 3022 966 
Q 3022 478 2636 193 
Q 2250 -91 1575 -91 
Q 1294 -91 989 -36 
Q 684 19 347 128 
L 347 722 
Q 666 556 975 473 
Q 1284 391 1588 391 
Q 1994 391 2212 530 
Q 2431 669 2431 922 
Q 2431 1156 2273 1281 
Q 2116 1406 1581 1522 
L 1381 1569 
Q 847 1681 609 1914 
Q 372 2147 372 2553 
Q 372 3047 722 3315 
Q 1072 3584 1716 3584 
Q 2034 3584 2315 3537 
Q 2597 3491 2834 3397 
z
" id="DejaVuSans-73" transform="scale(0.015625)"/>
      </defs>
      <use xlink:href="#DejaVuSans-4c"/>
      <use x="53.962891" xlink:href="#DejaVuSans-6f"/>
      <use x="115.144531" xlink:href="#DejaVuSans-73"/>
      <use x="167.244141" xlink:href="#DejaVuSans-73"/>
     </g>
    </g>
   </g>
   <g id="line2d_18">
    <path clip-path="url(#pf77b8b7db6)" d="M 73.832727 292.107236 
L 74.646398 292.792577 
L 75.460068 292.869738 
L 76.273739 292.664069 
L 77.087409 293.16425 
L 79.528421 293.343359 
L 82.783103 293.751336 
L 83.596774 293.536498 
L 84.410444 293.879823 
L 86.037785 293.842863 
L 86.851456 294.083057 
L 88.478797 293.820141 
L 89.292468 294.026556 
L 90.106138 293.981098 
L 90.919809 294.057538 
L 91.733479 293.883917 
L 93.36082 294.237353 
L 96.615502 294.228499 
L 97.429173 294.285941 
L 98.242843 294.11279 
L 99.056514 294.380533 
L 99.870185 294.183384 
L 101.497526 294.355118 
L 103.124867 294.324603 
L 103.938537 294.656472 
L 104.752208 294.335578 
L 106.379549 294.581342 
L 107.193219 294.406668 
L 108.00689 294.505262 
L 108.82056 294.347362 
L 109.634231 294.517513 
L 110.447902 294.361466 
L 115.329925 294.446905 
L 116.957266 294.421529 
L 117.770936 294.66482 
L 118.584607 294.676186 
L 120.211948 294.392882 
L 121.025619 294.49022 
L 121.839289 294.389846 
L 122.65296 294.412963 
L 123.46663 294.569222 
L 125.093971 294.444977 
L 125.907642 294.659815 
L 127.534983 294.503816 
L 128.348653 294.785702 
L 129.162324 294.611667 
L 129.975995 294.740124 
L 131.603336 294.448473 
L 132.417006 294.681822 
L 133.230677 294.531358 
L 134.858018 294.676504 
L 135.671688 294.567726 
L 138.1127 294.693096 
L 139.740041 294.571586 
L 140.553712 294.825914 
L 141.367382 294.586548 
L 142.181053 294.753163 
L 142.994723 294.406073 
L 143.808394 294.647183 
L 146.249405 294.532406 
L 147.063076 294.712 
L 147.876746 294.77605 
L 149.504087 294.690525 
L 151.131429 294.665749 
L 151.945099 294.524534 
L 153.57244 294.776973 
L 156.013452 294.617328 
L 156.827122 294.701105 
L 157.640793 294.897498 
L 158.454463 294.687762 
L 159.268134 294.75625 
L 160.081805 294.706819 
L 161.709146 294.862712 
L 162.522816 294.519818 
L 163.336487 294.83868 
L 164.150157 294.518736 
L 164.963828 294.815181 
L 173.914204 294.66578 
L 174.727874 294.73831 
L 175.541545 294.638727 
L 177.982556 294.958999 
L 178.796227 294.747609 
L 179.609897 294.659968 
L 181.237239 294.859768 
L 182.050909 294.619305 
L 184.491921 294.946579 
L 185.305591 294.776272 
L 186.119262 294.763107 
L 186.932932 294.992839 
L 187.746603 294.602472 
L 188.560273 294.801932 
L 189.373944 294.729008 
L 190.187614 294.841465 
L 191.001285 294.756673 
L 191.814956 294.952077 
L 192.628626 294.755403 
L 193.442297 294.955225 
L 194.255967 294.892389 
L 195.883308 294.905566 
L 196.696979 294.886032 
L 197.510649 294.707402 
L 198.32432 294.938026 
L 199.13799 294.796429 
L 200.765332 294.73569 
L 201.579002 294.627621 
L 202.392673 294.899716 
L 204.020014 294.863033 
L 204.833684 294.8532 
L 205.647355 295.008703 
L 206.461025 294.839764 
L 208.902037 294.901857 
L 210.529378 294.721345 
L 211.343049 294.943717 
L 212.97039 294.928651 
L 213.78406 295.068617 
L 215.411401 294.78741 
L 217.038742 294.792037 
L 218.666083 294.955691 
L 219.479754 294.81328 
L 222.734436 294.831585 
L 224.361777 294.959657 
L 225.175448 294.737054 
L 227.616459 294.921356 
L 229.2438 294.573547 
L 230.057471 295.008029 
L 230.871141 294.944476 
L 231.684812 295.11707 
L 232.498483 294.870165 
L 233.312153 294.851364 
L 234.939494 294.964081 
L 236.566835 295.118566 
L 239.007847 294.810376 
L 240.635188 295.0577 
L 241.448859 294.951239 
L 242.262529 294.986058 
L 243.0762 294.788827 
L 243.88987 294.805576 
L 244.703541 295.100506 
L 245.517211 295.165996 
L 246.330882 294.876265 
L 247.958223 294.927029 
L 248.771893 294.589079 
L 249.585564 295.10395 
L 250.399234 294.899233 
L 252.026576 294.948007 
L 252.840246 294.708038 
L 253.653917 294.871788 
L 256.094928 295.002011 
L 256.908599 294.863502 
L 257.722269 295.077944 
L 259.34961 295.212348 
L 260.163281 294.974142 
L 260.976951 295.089339 
L 261.790622 295.021877 
L 262.604293 294.796615 
L 263.417963 294.947678 
L 264.231634 294.944241 
L 265.045304 295.060938 
L 265.858975 294.868851 
L 266.672645 295.098914 
L 267.486316 295.127962 
L 268.299986 294.960155 
L 269.113657 294.973284 
L 269.927327 295.156748 
L 272.368339 295.086723 
L 273.18201 295.14263 
L 273.99568 294.743343 
L 274.809351 294.751227 
L 276.436692 295.312889 
L 277.250362 294.936987 
L 278.064033 295.129964 
L 278.877703 294.759331 
L 279.691374 294.979871 
L 280.505044 294.898332 
L 282.132386 295.014739 
L 282.946056 294.706148 
L 283.759727 294.9793 
L 284.573397 295.015639 
L 287.014409 294.842112 
L 287.828079 295.006339 
L 289.45542 294.867183 
L 291.896432 295.169279 
L 292.710103 294.825727 
L 293.523773 295.072675 
L 294.337444 294.713989 
L 295.151114 294.986624 
L 295.964785 294.913332 
L 296.778455 295.033428 
L 297.592126 295.030371 
L 298.405796 295.160763 
L 299.219467 294.923001 
L 301.660478 295.069692 
L 302.474149 295.011367 
L 304.10149 295.104937 
L 304.915161 295.047791 
L 305.728831 294.85536 
L 307.356172 295.059283 
L 308.169843 294.85121 
L 308.983513 295.029359 
L 309.797184 295.073605 
L 310.610854 294.867836 
L 312.238195 295.144688 
L 314.679207 295.155151 
L 315.492878 294.929609 
L 317.120219 294.980107 
L 317.933889 295.002836 
L 318.74756 294.904045 
L 319.56123 294.969698 
L 320.374901 295.179143 
L 321.188571 295.028971 
L 322.002242 295.000656 
L 322.815913 295.123586 
L 323.629583 295.015214 
L 325.256924 295.04125 
L 326.884265 295.152318 
L 327.697936 294.789357 
L 328.511606 295.05356 
L 329.325277 294.95378 
L 330.138947 294.708669 
L 330.952618 295.127071 
L 331.766288 295.031648 
L 332.579959 295.199157 
L 333.39363 294.861189 
L 334.2073 295.102139 
L 335.020971 294.997655 
L 335.834641 295.157252 
L 337.461982 294.954683 
L 338.275653 294.980167 
L 339.089323 295.327919 
L 340.716664 294.981363 
L 341.530335 295.220778 
L 343.157676 294.975703 
L 344.785017 295.168324 
L 345.598688 294.974566 
L 347.226029 295.129788 
L 348.039699 294.942137 
L 348.85337 294.989178 
L 349.66704 295.226605 
L 350.480711 295.197191 
L 352.108052 295.010145 
L 352.921722 294.918377 
L 353.735393 295.123294 
L 354.549064 295.196588 
L 356.990075 294.972521 
L 357.803746 295.488 
L 358.617416 295.006663 
L 359.431087 295.265671 
L 361.058428 294.961178 
L 361.872098 295.286379 
L 362.685769 295.137456 
L 363.49944 295.165256 
L 364.31311 294.95249 
L 367.567792 295.237976 
L 369.195133 294.909526 
L 370.822474 295.048106 
L 372.449815 295.212304 
L 374.077157 294.916589 
L 375.704498 295.174443 
L 378.145509 295.146991 
L 379.77285 295.200808 
L 380.586521 294.957393 
L 381.400191 295.192132 
L 382.213862 294.889333 
L 383.841203 295.179398 
L 385.468544 294.964046 
L 386.282215 295.0717 
L 387.095885 295.032012 
L 387.909556 295.121235 
L 389.536897 295.027552 
L 390.350567 295.243616 
L 391.164238 295.034301 
L 392.791579 294.875272 
L 393.605249 295.159673 
L 394.41892 294.818038 
L 395.232591 295.21654 
L 396.046261 295.21483 
L 396.859932 295.023312 
L 398.487273 295.03258 
L 398.487273 295.03258 
" style="fill:none;stroke:#1f77b4;stroke-linecap:square;stroke-width:1.5;"/>
   </g>
   <g id="line2d_19">
    <path clip-path="url(#pf77b8b7db6)" d="M 73.832727 292.691884 
L 74.646398 292.666668 
L 75.460068 291.787298 
L 76.273739 292.531488 
L 77.087409 291.283089 
L 77.90108 290.864737 
L 78.714751 289.356815 
L 79.528421 286.322958 
L 80.342092 280.305688 
L 81.155762 280.923131 
L 81.969433 282.455773 
L 82.783103 273.777953 
L 83.596774 275.287239 
L 84.410444 263.621712 
L 85.224115 264.920118 
L 86.037785 264.439995 
L 87.665126 250.918637 
L 88.478797 249.357175 
L 89.292468 248.335606 
L 90.106138 239.75254 
L 90.919809 247.719016 
L 91.733479 248.974437 
L 92.54715 248.47712 
L 93.36082 238.246369 
L 94.174491 236.525014 
L 94.988161 226.403903 
L 95.801832 243.773211 
L 96.615502 237.253978 
L 97.429173 226.671429 
L 98.242843 234.664262 
L 99.056514 223.711044 
L 99.870185 215.802837 
L 100.683855 226.512965 
L 101.497526 219.658246 
L 102.311196 225.003751 
L 103.124867 215.101149 
L 103.938537 207.347861 
L 104.752208 221.722819 
L 105.565878 205.06452 
L 106.379549 204.668997 
L 107.193219 271.384 
L 108.00689 213.971659 
L 108.82056 204.71475 
L 109.634231 208.076535 
L 110.447902 196.869504 
L 111.261572 198.153008 
L 112.075243 218.905187 
L 112.888913 208.946693 
L 113.702584 206.682677 
L 114.516254 198.948529 
L 115.329925 196.751241 
L 116.957266 193.921065 
L 117.770936 195.236205 
L 118.584607 205.583387 
L 119.398278 202.302041 
L 120.211948 199.947737 
L 121.025619 204.771834 
L 121.839289 184.517029 
L 122.65296 188.001315 
L 123.46663 187.509936 
L 124.280301 185.084127 
L 125.093971 194.216027 
L 125.907642 195.333069 
L 126.721312 185.221489 
L 127.534983 186.974193 
L 128.348653 178.142078 
L 129.162324 192.841823 
L 129.975995 166.497083 
L 130.789665 190.698208 
L 131.603336 183.984597 
L 132.417006 189.511711 
L 133.230677 192.925537 
L 134.044347 187.880603 
L 134.858018 175.998729 
L 135.671688 169.335681 
L 136.485359 175.572703 
L 137.299029 179.571934 
L 138.1127 167.584645 
L 138.92637 175.749811 
L 139.740041 178.545162 
L 140.553712 175.322882 
L 141.367382 177.707873 
L 142.181053 186.47775 
L 142.994723 178.110495 
L 143.808394 188.81431 
L 144.622064 169.172544 
L 145.435735 180.647398 
L 146.249405 177.662079 
L 147.063076 171.090585 
L 147.876746 166.000813 
L 148.690417 173.465236 
L 149.504087 185.261856 
L 150.317758 179.491825 
L 151.131429 168.714376 
L 151.945099 167.9013 
L 152.75877 183.93431 
L 153.57244 171.209287 
L 154.386111 173.529816 
L 155.199781 168.055939 
L 156.013452 166.344027 
L 156.827122 163.330375 
L 157.640793 185.182021 
L 158.454463 157.87051 
L 159.268134 191.330726 
L 160.081805 168.752573 
L 161.709146 187.577662 
L 163.336487 153.971936 
L 164.150157 164.858315 
L 164.963828 160.609539 
L 165.777498 169.9683 
L 166.591169 161.285484 
L 167.404839 168.599246 
L 168.21851 165.543377 
L 169.03218 155.200375 
L 169.845851 156.55423 
L 170.659522 145.752093 
L 171.473192 153.215365 
L 172.286863 173.563285 
L 173.100533 164.755617 
L 173.914204 170.393369 
L 174.727874 160.080306 
L 175.541545 152.686953 
L 176.355215 156.801018 
L 177.982556 170.884128 
L 178.796227 173.508286 
L 179.609897 157.541892 
L 180.423568 165.265658 
L 181.237239 159.10497 
L 182.050909 166.804406 
L 182.86458 165.508378 
L 183.67825 147.023128 
L 184.491921 137.647512 
L 185.305591 156.583376 
L 186.119262 154.553934 
L 186.932932 157.07371 
L 187.746603 190.301618 
L 188.560273 152.491081 
L 189.373944 149.793873 
L 190.187614 147.534675 
L 191.001285 140.70116 
L 191.814956 147.110109 
L 192.628626 154.91574 
L 193.442297 144.272135 
L 194.255967 154.389985 
L 195.069638 139.959198 
L 195.883308 157.838787 
L 196.696979 144.317356 
L 197.510649 153.0783 
L 198.32432 168.186505 
L 199.13799 147.104831 
L 199.951661 146.401968 
L 200.765332 147.478064 
L 201.579002 136.811374 
L 202.392673 150.631871 
L 203.206343 136.54268 
L 204.020014 149.414455 
L 204.833684 143.774045 
L 205.647355 133.378431 
L 206.461025 142.16112 
L 207.274696 144.138657 
L 208.088366 152.190263 
L 208.902037 151.738405 
L 209.715707 132.032581 
L 210.529378 130.353801 
L 211.343049 162.044215 
L 212.156719 154.216765 
L 212.97039 139.882324 
L 213.78406 138.567406 
L 214.597731 162.852334 
L 215.411401 141.13997 
L 216.225072 137.714948 
L 217.038742 124.148856 
L 217.852413 134.061275 
L 218.666083 137.129561 
L 221.107095 149.895149 
L 221.920766 143.342815 
L 222.734436 131.821268 
L 223.548107 134.955333 
L 224.361777 136.847463 
L 225.175448 123.756031 
L 225.989118 154.245021 
L 226.802789 147.028442 
L 227.616459 138.518869 
L 228.43013 144.879496 
L 229.2438 154.256443 
L 230.057471 129.838833 
L 231.684812 170.688357 
L 232.498483 131.718293 
L 233.312153 127.590535 
L 234.125824 143.214246 
L 234.939494 124.710957 
L 235.753165 146.942204 
L 236.566835 142.441888 
L 237.380506 174.2026 
L 238.194176 141.995547 
L 239.007847 140.09797 
L 239.821517 134.337378 
L 241.448859 139.846608 
L 242.262529 163.42569 
L 243.0762 130.043133 
L 243.88987 129.576887 
L 244.703541 127.34007 
L 245.517211 126.736516 
L 246.330882 137.082358 
L 247.144552 121.912354 
L 247.958223 128.717545 
L 248.771893 134.435555 
L 249.585564 127.276828 
L 250.399234 142.866668 
L 251.212905 131.031356 
L 252.026576 131.207613 
L 252.840246 157.781656 
L 253.653917 135.0226 
L 254.467587 125.728404 
L 255.281258 136.394892 
L 256.094928 121.835162 
L 256.908599 134.013156 
L 257.722269 109.012158 
L 258.53594 119.417154 
L 259.34961 116.227121 
L 260.163281 128.248002 
L 260.976951 126.50192 
L 261.790622 125.082778 
L 262.604293 115.30652 
L 263.417963 142.58527 
L 264.231634 115.635839 
L 265.045304 134.105207 
L 265.858975 115.424446 
L 266.672645 130.806718 
L 267.486316 119.24388 
L 268.299986 119.643527 
L 269.113657 122.443414 
L 269.927327 123.114017 
L 270.740998 122.783194 
L 271.554668 112.51877 
L 272.368339 104.380764 
L 273.18201 114.175738 
L 273.99568 145.584594 
L 274.809351 117.894114 
L 275.623021 122.566147 
L 276.436692 118.3227 
L 277.250362 105.871811 
L 278.064033 124.707688 
L 279.691374 106.004758 
L 280.505044 137.565096 
L 281.318715 110.548918 
L 282.132386 94.412483 
L 282.946056 118.618887 
L 283.759727 101.806559 
L 284.573397 114.237841 
L 285.387068 99.716841 
L 286.200738 118.322194 
L 287.014409 106.104524 
L 287.828079 120.0559 
L 288.64175 101.198702 
L 289.45542 105.056552 
L 290.269091 97.150488 
L 291.082761 94.845316 
L 291.896432 100.387834 
L 292.710103 167.268377 
L 294.337444 122.680189 
L 295.151114 150.572906 
L 295.964785 136.987621 
L 296.778455 142.126577 
L 297.592126 112.800821 
L 298.405796 122.566495 
L 299.219467 121.976423 
L 300.846808 99.019699 
L 301.660478 119.915965 
L 302.474149 109.823952 
L 303.28782 193.275601 
L 304.10149 120.797687 
L 304.915161 128.207309 
L 305.728831 109.594699 
L 306.542502 102.625554 
L 307.356172 108.34995 
L 308.169843 102.406425 
L 308.983513 110.246734 
L 309.797184 112.138745 
L 310.610854 105.346628 
L 311.424525 113.383236 
L 312.238195 119.433371 
L 313.051866 95.676505 
L 313.865537 116.606712 
L 314.679207 94.483728 
L 315.492878 96.893229 
L 316.306548 97.499712 
L 317.120219 109.446929 
L 317.933889 117.991587 
L 318.74756 90.161048 
L 319.56123 88.25256 
L 320.374901 92.588517 
L 321.188571 110.893466 
L 322.002242 108.247053 
L 322.815913 82.412134 
L 323.629583 85.039022 
L 324.443254 128.888271 
L 325.256924 94.058526 
L 326.070595 91.31705 
L 326.884265 104.62056 
L 327.697936 149.483462 
L 328.511606 100.484064 
L 329.325277 94.67666 
L 330.138947 90.414968 
L 330.952618 101.814931 
L 331.766288 95.536501 
L 332.579959 92.02865 
L 333.39363 84.656656 
L 334.2073 84.788895 
L 335.020971 101.173146 
L 335.834641 90.398065 
L 336.648312 92.695517 
L 337.461982 93.112841 
L 338.275653 93.657272 
L 339.089323 97.9515 
L 340.716664 97.981346 
L 341.530335 99.209324 
L 342.344005 95.930731 
L 343.157676 94.363083 
L 343.971347 96.281368 
L 344.785017 93.818305 
L 345.598688 115.078973 
L 346.412358 108.167485 
L 347.226029 83.33005 
L 348.039699 98.674464 
L 348.85337 64.644549 
L 349.66704 95.977402 
L 350.480711 91.955721 
L 351.294381 107.457624 
L 352.108052 129.530632 
L 352.921722 91.354571 
L 353.735393 76.06782 
L 354.549064 85.788733 
L 355.362734 85.417921 
L 356.176405 65.237062 
L 356.990075 132.753348 
L 357.803746 87.026711 
L 358.617416 87.241998 
L 359.431087 70.625736 
L 360.244757 100.206878 
L 361.058428 73.446547 
L 361.872098 77.250857 
L 362.685769 88.730245 
L 363.49944 74.248307 
L 364.31311 87.024132 
L 365.126781 87.558294 
L 365.940451 94.85878 
L 366.754122 53.568 
L 367.567792 71.160652 
L 368.381463 82.273478 
L 369.195133 77.529051 
L 370.008804 70.551085 
L 370.822474 87.305023 
L 371.636145 67.604833 
L 372.449815 91.241756 
L 373.263486 76.025535 
L 374.077157 78.817574 
L 374.890827 82.983697 
L 375.704498 91.002426 
L 376.518168 65.73634 
L 378.145509 82.928801 
L 378.95918 88.536333 
L 379.77285 108.902928 
L 380.586521 77.318862 
L 381.400191 93.027846 
L 382.213862 86.539127 
L 383.027532 93.894876 
L 383.841203 75.494321 
L 384.654874 72.25919 
L 385.468544 116.896577 
L 386.282215 101.924971 
L 387.095885 94.230268 
L 387.909556 90.410993 
L 388.723226 67.88186 
L 389.536897 73.804006 
L 390.350567 87.309553 
L 391.164238 135.834042 
L 391.977908 101.32514 
L 392.791579 118.017117 
L 393.605249 103.60255 
L 394.41892 107.453493 
L 395.232591 92.285684 
L 396.046261 97.441018 
L 396.859932 76.606782 
L 397.673602 85.682335 
L 398.487273 81.603397 
L 398.487273 81.603397 
" style="fill:none;stroke:#ff7f0e;stroke-linecap:square;stroke-width:1.5;"/>
   </g>
   <g id="patch_3">
    <path d="M 57.6 307.584 
L 57.6 41.472 
" style="fill:none;stroke:#000000;stroke-linecap:square;stroke-linejoin:miter;stroke-width:0.8;"/>
   </g>
   <g id="patch_4">
    <path d="M 414.72 307.584 
L 414.72 41.472 
" style="fill:none;stroke:#000000;stroke-linecap:square;stroke-linejoin:miter;stroke-width:0.8;"/>
   </g>
   <g id="patch_5">
    <path d="M 57.6 307.584 
L 414.72 307.584 
" style="fill:none;stroke:#000000;stroke-linecap:square;stroke-linejoin:miter;stroke-width:0.8;"/>
   </g>
   <g id="patch_6">
    <path d="M 57.6 41.472 
L 414.72 41.472 
" style="fill:none;stroke:#000000;stroke-linecap:square;stroke-linejoin:miter;stroke-width:0.8;"/>
   </g>
   <g id="legend_1">
    <g id="patch_7">
     <path d="M 64.6 78.82825 
L 168.475 78.82825 
Q 170.475 78.82825 170.475 76.82825 
L 170.475 48.472 
Q 170.475 46.472 168.475 46.472 
L 64.6 46.472 
Q 62.6 46.472 62.6 48.472 
L 62.6 76.82825 
Q 62.6 78.82825 64.6 78.82825 
z
" style="fill:#ffffff;opacity:0.8;stroke:#cccccc;stroke-linejoin:miter;"/>
    </g>
    <g id="line2d_20">
     <path d="M 66.6 54.570437 
L 86.6 54.570437 
" style="fill:none;stroke:#1f77b4;stroke-linecap:square;stroke-width:1.5;"/>
    </g>
    <g id="line2d_21"/>
    <g id="text_20">
     <!-- Train loss -->
     <g transform="translate(94.6 58.070437)scale(0.1 -0.1)">
      <defs>
       <path d="M -19 4666 
L 3928 4666 
L 3928 4134 
L 2272 4134 
L 2272 0 
L 1638 0 
L 1638 4134 
L -19 4134 
L -19 4666 
z
" id="DejaVuSans-54" transform="scale(0.015625)"/>
       <path d="M 2631 2963 
Q 2534 3019 2420 3045 
Q 2306 3072 2169 3072 
Q 1681 3072 1420 2755 
Q 1159 2438 1159 1844 
L 1159 0 
L 581 0 
L 581 3500 
L 1159 3500 
L 1159 2956 
Q 1341 3275 1631 3429 
Q 1922 3584 2338 3584 
Q 2397 3584 2469 3576 
Q 2541 3569 2628 3553 
L 2631 2963 
z
" id="DejaVuSans-72" transform="scale(0.015625)"/>
       <path d="M 2194 1759 
Q 1497 1759 1228 1600 
Q 959 1441 959 1056 
Q 959 750 1161 570 
Q 1363 391 1709 391 
Q 2188 391 2477 730 
Q 2766 1069 2766 1631 
L 2766 1759 
L 2194 1759 
z
M 3341 1997 
L 3341 0 
L 2766 0 
L 2766 531 
Q 2569 213 2275 61 
Q 1981 -91 1556 -91 
Q 1019 -91 701 211 
Q 384 513 384 1019 
Q 384 1609 779 1909 
Q 1175 2209 1959 2209 
L 2766 2209 
L 2766 2266 
Q 2766 2663 2505 2880 
Q 2244 3097 1772 3097 
Q 1472 3097 1187 3025 
Q 903 2953 641 2809 
L 641 3341 
Q 956 3463 1253 3523 
Q 1550 3584 1831 3584 
Q 2591 3584 2966 3190 
Q 3341 2797 3341 1997 
z
" id="DejaVuSans-61" transform="scale(0.015625)"/>
       <path d="M 603 3500 
L 1178 3500 
L 1178 0 
L 603 0 
L 603 3500 
z
M 603 4863 
L 1178 4863 
L 1178 4134 
L 603 4134 
L 603 4863 
z
" id="DejaVuSans-69" transform="scale(0.015625)"/>
       <path d="M 3513 2113 
L 3513 0 
L 2938 0 
L 2938 2094 
Q 2938 2591 2744 2837 
Q 2550 3084 2163 3084 
Q 1697 3084 1428 2787 
Q 1159 2491 1159 1978 
L 1159 0 
L 581 0 
L 581 3500 
L 1159 3500 
L 1159 2956 
Q 1366 3272 1645 3428 
Q 1925 3584 2291 3584 
Q 2894 3584 3203 3211 
Q 3513 2838 3513 2113 
z
" id="DejaVuSans-6e" transform="scale(0.015625)"/>
       <path id="DejaVuSans-20" transform="scale(0.015625)"/>
       <path d="M 603 4863 
L 1178 4863 
L 1178 0 
L 603 0 
L 603 4863 
z
" id="DejaVuSans-6c" transform="scale(0.015625)"/>
      </defs>
      <use xlink:href="#DejaVuSans-54"/>
      <use x="46.333984" xlink:href="#DejaVuSans-72"/>
      <use x="87.447266" xlink:href="#DejaVuSans-61"/>
      <use x="148.726562" xlink:href="#DejaVuSans-69"/>
      <use x="176.509766" xlink:href="#DejaVuSans-6e"/>
      <use x="239.888672" xlink:href="#DejaVuSans-20"/>
      <use x="271.675781" xlink:href="#DejaVuSans-6c"/>
      <use x="299.458984" xlink:href="#DejaVuSans-6f"/>
      <use x="360.640625" xlink:href="#DejaVuSans-73"/>
      <use x="412.740234" xlink:href="#DejaVuSans-73"/>
     </g>
    </g>
    <g id="line2d_22">
     <path d="M 66.6 69.248562 
L 86.6 69.248562 
" style="fill:none;stroke:#ff7f0e;stroke-linecap:square;stroke-width:1.5;"/>
    </g>
    <g id="line2d_23"/>
    <g id="text_21">
     <!-- Validation loss -->
     <g transform="translate(94.6 72.748562)scale(0.1 -0.1)">
      <defs>
       <path d="M 1831 0 
L 50 4666 
L 709 4666 
L 2188 738 
L 3669 4666 
L 4325 4666 
L 2547 0 
L 1831 0 
z
" id="DejaVuSans-56" transform="scale(0.015625)"/>
       <path d="M 2906 2969 
L 2906 4863 
L 3481 4863 
L 3481 0 
L 2906 0 
L 2906 525 
Q 2725 213 2448 61 
Q 2172 -91 1784 -91 
Q 1150 -91 751 415 
Q 353 922 353 1747 
Q 353 2572 751 3078 
Q 1150 3584 1784 3584 
Q 2172 3584 2448 3432 
Q 2725 3281 2906 2969 
z
M 947 1747 
Q 947 1113 1208 752 
Q 1469 391 1925 391 
Q 2381 391 2643 752 
Q 2906 1113 2906 1747 
Q 2906 2381 2643 2742 
Q 2381 3103 1925 3103 
Q 1469 3103 1208 2742 
Q 947 2381 947 1747 
z
" id="DejaVuSans-64" transform="scale(0.015625)"/>
       <path d="M 1172 4494 
L 1172 3500 
L 2356 3500 
L 2356 3053 
L 1172 3053 
L 1172 1153 
Q 1172 725 1289 603 
Q 1406 481 1766 481 
L 2356 481 
L 2356 0 
L 1766 0 
Q 1100 0 847 248 
Q 594 497 594 1153 
L 594 3053 
L 172 3053 
L 172 3500 
L 594 3500 
L 594 4494 
L 1172 4494 
z
" id="DejaVuSans-74" transform="scale(0.015625)"/>
      </defs>
      <use xlink:href="#DejaVuSans-56"/>
      <use x="60.658203" xlink:href="#DejaVuSans-61"/>
      <use x="121.9375" xlink:href="#DejaVuSans-6c"/>
      <use x="149.720703" xlink:href="#DejaVuSans-69"/>
      <use x="177.503906" xlink:href="#DejaVuSans-64"/>
      <use x="240.980469" xlink:href="#DejaVuSans-61"/>
      <use x="302.259766" xlink:href="#DejaVuSans-74"/>
      <use x="341.46875" xlink:href="#DejaVuSans-69"/>
      <use x="369.251953" xlink:href="#DejaVuSans-6f"/>
      <use x="430.433594" xlink:href="#DejaVuSans-6e"/>
      <use x="493.8125" xlink:href="#DejaVuSans-20"/>
      <use x="525.599609" xlink:href="#DejaVuSans-6c"/>
      <use x="553.382812" xlink:href="#DejaVuSans-6f"/>
      <use x="614.564453" xlink:href="#DejaVuSans-73"/>
      <use x="666.664062" xlink:href="#DejaVuSans-73"/>
     </g>
    </g>
   </g>
  </g>
 </g>
 <defs>
  <clipPath id="pf77b8b7db6">
   <rect height="266.112" width="357.12" x="57.6" y="41.472"/>
  </clipPath>
 </defs>
</svg>
